<?xml version="1.0" encoding="utf-8"?>
<!-- Generator: Adobe Illustrator 27.0.0, SVG Export Plug-In . SVG Version: 6.00 Build 0)  -->
<svg version="1.1" id="圖層_1" xmlns="http://www.w3.org/2000/svg" xmlns:xlink="http://www.w3.org/1999/xlink" x="0px" y="0px"
	 viewBox="0 0 823.9 176.2" style="enable-background:new 0 0 823.9 176.2;" xml:space="preserve">
<style type="text/css">
	.st0{fill:#FFFFFF;}
</style>
<g>
	<g id="_圖層_2">
		<g id="_圖層_1-2">
			<g>
				<g>
					<path class="st0" d="M76.6,96.5c-0.6,0.6-1.5,1-3,1.3c-0.7,16.4-2.2,23.2-6,26c-2.4,1.8-5.2,2.6-9.3,2.6c0-2.7-0.2-4.8-1.2-6
						c-1-1.3-2.9-2.3-5.7-2.9l0.1-0.9c2.4,0.2,6.1,0.4,7.5,0.4c1.1,0,1.7-0.2,2.3-0.7c1.7-1.4,2.7-7.7,3.3-20.1H60l-2.7,3.5
						l-7.9-4.3c0.6-0.6,1.4-1.2,2.2-1.7c0.7-5.5,1.3-15,1.3-19.9l9.8,4.6h1.5V63.8H50.8l-0.7-2.1h13.2l4.2-4.7l8.8,6.6v-6l8.3,3.2
						h2.5l3.6-4.1l6.8,5.1v-4.4l8.5,3.3h2.5l3.7-4.2l7.4,5.5c-0.4,0.6-1.1,1-2.7,1.3v11.9c0,0.3-2.5,1.6-6.7,1.6H109v-2.4h-3.5v1.3
						c0,0.5-2.4,1.8-6.4,1.8h-1.4V62.6c-0.4,0.4-1.1,0.7-2.3,1v11.9c0,0.3-2.5,1.6-6.6,1.6h-1.4v-2.5H84V76c0,0.5-2.4,1.8-6.3,1.8
						h-1.3V64c-0.6,0.7-1.6,1.3-3.2,1.6v16.2c-0.1,0.5-4.6,2-7.5,2h-1.6v-3.2h-3.4c-0.2,4-0.7,9.6-1.1,13.7h4.2l4.7-4.5L76.6,96.5
						L76.6,96.5z M115.4,104c0,0.2-1.2,1-3.5,1.5c0.7,0.6,5.7,4.3,8.7,6.9c-0.2,0.8-1,1.2-2.1,1.2h-17.4v10.9c0,0.5-2.9,2.2-7.7,2.2
						h-1.7v-13.1H74.3l-0.6-2.1h18.1v-7.8h-4.5v1c0,0.6-2.9,2.1-7.6,2.1h-1.6V78.3L88,82h17.4l4.4-5l8.3,6.3
						c-0.4,0.7-1.1,1.2-2.8,1.5L115.4,104L115.4,104z M84,63v9.5h3.5V63C87.4,63,84,63,84,63z M87.3,84.1v8h4.5v-8
						C91.8,84.1,87.3,84.1,87.3,84.1z M91.8,101.7v-7.5h-4.5v7.5H91.8z M101.1,84.1v8h4.6v-8H101.1z M105.8,94.2h-4.6v7.5h4.6V94.2z
						 M106.9,111.5l4.8-6c-1.2,0.2-2.6,0.4-4.1,0.4h-1.8v-2.2h-4.6v7.8L106.9,111.5L106.9,111.5z M105.5,62.9v9.6h3.5v-9.6H105.5z"
						/>
					<path class="st0" d="M128.7,70.7c3.6,8.6,3,15.2,0.7,18.5c-1.7,2.3-5.4,2.4-6.8,0.1c-1.2-2.1-0.3-4.4,1.6-6
						c1.8-2.2,4-7.7,3.5-12.7L128.7,70.7L128.7,70.7z M184.9,114.7c0,0,6,4.9,9.4,8.2c-0.1,0.8-1,1.2-2.1,1.2h-45.6l-0.6-2.1h17.8
						V99.2h-12.4l-0.6-2.1h13V79.1h-6.3c-2.8,6-6.3,11-10.6,14.9l-0.9-0.5c1.5-3.9,2.8-8.7,3.8-13.8c-1.4,1.2-3.7,1.3-5.6-0.7
						c0.2-3.2-0.7-6.8-1.8-9.3v53.9c0,0.8-4.3,2.8-8.2,2.8h-2.1V56.5l12.9,1.2c-0.1,1-0.7,1.8-2.7,2.1v9l0.5-0.2
						c4.6,1.6,7,3.8,7.9,5.8c0.7-4.3,1.2-8.7,1.4-13l11.6,3.2v-7.5l13,1.2c-0.1,1-0.6,1.7-2.4,2V77h4.2l5-6.9c0,0,5.7,4.6,9,7.8
						c-0.2,0.8-1,1.2-2.1,1.2h-16.1v18.1h3.3l4.9-7c0,0,5.4,4.7,8.5,7.9c-0.2,0.8-1,1.2-2.1,1.2h-14.6V122h5.1L184.9,114.7
						L184.9,114.7z M163.9,77V66.1c-0.4,0.3-1.1,0.4-2,0.4c-1,3.8-2.1,7.2-3.5,10.4H163.9L163.9,77z"/>
					<path class="st0" d="M246.1,62.8h-27.1l-1.5,10.8c1.5-0.2,2.8-0.2,4.5-0.2c6.7,0,13.5,1.5,18.4,5.1c5.3,3.6,8.5,9.4,8.5,17.6
						c0,13-11.2,24.6-30.1,24.6c-8.5,0-15.6-1.9-19.5-4l2.9-12.3c3.1,1.5,9.5,3.4,15.8,3.4c6.8,0,14-3.2,14-10.7
						s-5.7-11.6-19.7-11.6c-3.9,0-6.6,0.2-9.5,0.7l4.6-36.7h38.6L246.1,62.8L246.1,62.8z"/>
					<path class="st0" d="M258.1,95.1c-0.1-11,4.8-15.4,11.5-15.4c4,0,6.8,1.3,11.5,3.9c3.6,2,5.9,3.2,7.8,3.2s3.1-1.7,3.4-6.7h7.8
						c0.5,11.8-4.7,15.6-11,15.6c-4,0-7.1-1.5-11.5-3.9c-3.6-2.1-5.9-3.5-7.8-3.5s-3.5,1.4-3.9,6.8H258.1L258.1,95.1z"/>
					<path class="st0" d="M358.4,49.4v10.3l-28.9,59.7h-17.3l28.9-56.3v-0.2H309V49.4C309,49.4,358.4,49.4,358.4,49.4z"/>
					<path class="st0" d="M383.4,84.5c0,13.2-0.9,30.7-17.4,41.7l-0.7-0.4c7.1-12.1,7.6-27.7,7.6-41.2V61.9l9.8,3.3
						c13.2-2.1,29-5.7,37.5-8.6l9.4,9.6c-1,0.7-2.8,0.8-5.4-0.2c-10.5,1-26.9,1.6-40.9,1.1v5.1h32.9l4.6-5.1l9.8,7.3
						c-0.4,0.6-1.3,1.2-2.9,1.6v8.7c-0.1,0.6-5.4,2.4-8.9,2.4h-1.9v-2.6L383.4,84.5L383.4,84.5L383.4,84.5z M424.5,88.2
						c0,0,5.3,4.1,8.5,6.9c-0.2,0.8-1,1.2-2.1,1.2h-24.9c-0.3,2.4-0.6,4.9-1.2,7.2h11l5.1-4.7l8.8,7.2c-0.5,0.7-1.4,1.1-2.9,1.3
						c-0.9,9.1-2.5,14-6.2,16.1c-2.4,1.4-5.2,2.1-9.6,2.1c0-2.8-0.2-5.2-1.4-6.6c-1.2-1.4-3.2-2.5-6.2-3.2V115
						c2.6,0.2,6.7,0.4,8.1,0.4c1.1,0,1.6-0.2,2.1-0.4c1.1-0.8,1.9-4.1,2.5-9.3h-12.1c-2.8,8.2-9.4,15.4-26.7,20.5l-0.6-0.9
						c16-9,16.8-18.8,17.1-28.8h-9.3l-0.6-2.1h19.9c-0.2-0.1-0.4-0.2-0.7-0.4c-0.4-2.9-2.3-6-3.7-7.7l0.4-0.4
						c14.1-1.4,13.9,6.1,9.6,8.5h9.9L424.5,88.2L424.5,88.2z M383.4,74.2v8.2H417v-8.2H383.4z"/>
					<path class="st0" d="M459.1,84.8c3.7,0,6.6,2.9,6.6,6.6s-2.9,6.6-6.6,6.6s-6.6-2.9-6.6-6.6S455.5,84.8,459.1,84.8z"/>
					<path class="st0" d="M544.8,76.9c0,0,5.5,4.2,8.7,7.1c-0.2,0.8-1,1.2-2.1,1.2h-37.5c-0.3,0.7-1,1.1-2,1.1h-9.6v37.3
						c0,0.7-3.8,2.5-7.2,2.5h-1.8v-28c-3,5.7-6.4,11.7-9.8,16.3l-1-0.4c1.4-6.6,3.6-17.4,5.3-26l5.5,2v-3.6h-9.8l-0.6-2.1h10.4v-6
						c-1,3.7-4.5,5.2-7.6,1.9c0.4-5.4-0.8-11.7-2.2-16.4l0.9-0.3c5.6,3.5,8.2,7.5,8.9,10.9v-18l11.8,1.2c-0.2,1-0.7,1.8-2.7,2.1
						v20.7c0.8-4.5,2-11.6,3-17.4l8.6,3.1l-0.2-0.5h11.5v-9l12.4,1c-0.2,1-0.6,1.6-2.4,1.9v6.1h3l4.8-6.2c0,0,5.4,4.2,8.5,7.1
						c-0.2,0.8-1,1.2-2.1,1.2h-14.3v6.6h1.5l4.3-5.7c0,0,5,3.9,8,6.6c-0.2,0.8-1,1.2-2,1.2h-11.8v7h4.6L544.8,76.9L544.8,76.9z
						 M506.7,78.8c0,0,4,3.4,6.8,5.9l-0.4-1.5h12.4v-7H517l-0.6-2.1h9v-6.6H515c-0.5,0.4-1.2,0.6-2.2,0.5c-2.9,4.4-6.2,9.5-9.4,13.2
						l-1-0.5v3.6h0.4L506.7,78.8L506.7,78.8z M503.3,89.8c16.8,10.4,8.6,24.7,1.9,17.7c0.3-5.7-1.2-12.4-2.8-17.4L503.3,89.8
						L503.3,89.8z M541.2,85.9l9,6.8c-0.5,0.6-1.5,1.2-3,1.6V115c0,6.1-1.3,9.5-11.1,10.4c-0.2-2.9-0.4-5.2-1.4-6.5
						c-0.9-1.4-2.1-2.3-5.2-2.9v-1c0,0,5.6,0.3,6.9,0.3c1,0,1.3-0.4,1.3-1.3v-4.9h-13.2c-0.7,6.4-3.5,12.9-14.3,17.4l-0.5-0.6
						c5.2-5.7,5.5-13.4,5.5-21.1v-18l11,3.8h10.9L541.2,85.9L541.2,85.9z M537.8,107v-6.2h-13v4c0,0.7,0,1.5-0.1,2.2H537.8
						L537.8,107z M524.8,92.7v6.1h13v-6.1H524.8z"/>
					<path class="st0" d="M618.9,112.2c0,0,4.9,4.1,7.7,6.8c-0.2,0.8-1,1.2-2,1.2h-21.9v3.5c0,0.6-2.7,2.5-7,2.5h-1.5V82.7
						c-0.9,1.2-1.8,2.3-2.8,3.3l-0.4-0.4v30.5c0,5.7-1,8.8-9.5,9.6c-0.2-2.6-0.4-4.6-1.2-5.7c-0.8-1.2-2-2.1-4.6-2.6v-1
						c0,0,5,0.3,6.1,0.3s1.3-0.4,1.3-1.3V88.2c-0.2,0.1-0.4,0.1-0.7,0.1h-14.3l-0.5-2.1h4v-9.8h-3.5l-0.5-2.1h4v-8.8l8.2,0.9
						c-0.2,0.7-0.5,1.2-1.8,1.5v5.9l1.8-3.1c0,0,1.8,1.9,3.2,3.7v-11h-15.6v20.8c0,12.9,0.2,30-9.6,42.1l-1-0.5
						c3.3-12.4,2.9-28,2.9-41.6V58.1l9,3.3h13.7l3.6-4.2l7.7,6c-0.4,0.5-1.4,1.1-2.7,1.4v19.9c2.9-8.5,4.3-20.5,4.6-28l9.2,2.7
						c-0.4-1-0.7-1.8-1.2-2.7l0.7-0.4c18.1,5.6,8.9,19.3,2.1,12.6c0.2-2.4-0.2-5-0.9-7.4c-0.2,0-0.4,0.1-0.7,0.1
						c-1,2.9-2.2,6.3-3.8,9.7l2.6,1h10.3l4.1-5.7c0,0,4.7,3.9,7.4,6.6c-0.2,0.8-1,1.2-2,1.2h-9.1V87h0.1l3.8-5.4
						c0,0,4.3,3.7,6.7,6.3c-0.2,0.8-0.9,1.2-1.9,1.2h-8.6v13.2h0.1l3.8-5.4c0,0,4.3,3.7,6.7,6.3c-0.2,0.8-0.9,1.2-1.9,1.2h-8.6V118
						h0.1L618.9,112.2L618.9,112.2z M573.6,108.8v3.2c0,0.4-1.5,1.6-4,1.6h-0.7V90.5l5.5,2.3h1.6l2.3-2.3l4.7,3.6
						c-0.2,0.4-0.9,0.7-1.7,0.9v15.1c0,0.5-2.5,1.6-4.1,1.6h-0.8v-2.9L573.6,108.8L573.6,108.8z M573.6,94.8v11.9h2.8V94.8H573.6z
						 M580.2,82.5c0,0,1.5,1.6,2.9,3.2v-9.6c-0.3,0.2-0.7,0.2-1.1,0.2h-4v9.8L580.2,82.5L580.2,82.5z M602.8,74.1v12.9h3.3V74.1
						H602.8z M606.1,89.1h-3.3v13.2h3.3V89.1z M602.8,118.1h3.3v-13.6h-3.3V118.1z"/>
					<path class="st0" d="M688.8,95.2c0,0,6.3,4.7,10,7.9c-0.2,0.8-1,1.2-2.1,1.2h-27.8c-2.4,10.6-9.3,18-37.2,22.2l-0.4-1
						c18.1-5.8,23.8-12.4,25.7-21.1h-22.5l-0.6-2.1h23.5c0.4-2.7,0.6-5.7,0.7-8.9l14.6,1c-0.2,1-0.9,1.8-2.6,2.1
						c-0.2,2.1-0.4,4.1-0.8,5.9h14L688.8,95.2L688.8,95.2z M658.8,90.6v-8.9h-19.1l-0.6-2.1h19.7v-8.3h-23l-0.6-2.1h16.6
						c-0.5-0.2-1-0.6-1.5-1c-0.3-4.1-2.3-8.4-4.5-11.1l0.5-0.4c16.4,0.6,16.1,9.9,11.2,12.4h11.7c1.3-3.8,2.5-9,3.2-12.7l13.8,2.7
						c-0.3,1-1,1.6-2.8,1.6c-2.8,2.5-7.4,5.7-11.6,8.3h10.5l5.3-6.7c0,0,6,4.5,9.6,7.6c-0.2,0.8-1,1.2-2.1,1.2h-24.5v8.3h7.7l5-6.2
						c0,0,5.7,4.1,9.1,7.1c-0.2,0.8-1,1.2-2.1,1.2h-19.7v8.9h12.8l5.5-7.1c0,0,6.2,4.8,9.8,8c-0.2,0.8-1,1.2-2.1,1.2h-64l-0.6-2.1
						L658.8,90.6L658.8,90.6z M670.2,106.6c34.5,0.6,31.9,22.5,20.2,18.8c-4.8-6.5-13.6-14-20.7-18.2L670.2,106.6L670.2,106.6z"/>
					<path class="st0" d="M764.5,115.3c0,0,5.8,4.5,9.3,7.5c-0.2,0.8-1,1.2-2.1,1.2h-67.2l-0.6-2.1h29.4V112h-20.5l-0.6-2.1h21.1
						v-7.4l13.3,1c-0.2,1-0.6,1.8-2.7,2.1v4.3h9l5-6.5c0,0,5.6,4.3,9,7.4c-0.2,0.8-1,1.2-2.1,1.2h-20.9v9.9h15.5L764.5,115.3
						L764.5,115.3z M774.4,80.3c-0.6,0.7-1.3,0.9-2.9,1c-2.7,2.7-7.3,6.4-10.8,8.5l-0.6-0.4c0.7-2.7,1.4-6.8,1.8-10h-3.2v15.4
						c0,6-1.4,9.7-11.3,10.4c-0.2-2.8-0.4-4.9-1.3-6.1c-0.9-1.2-2.1-2.2-5.5-2.8v-1c0,0,6,0.4,7.3,0.4c1,0,1.3-0.4,1.3-1.2V79.3
						h-8.7l-0.7-2.1h12.4c-1.5-3.5-4.6-7.3-7.4-9.5l0.5-0.5c4.8-0.2,8.2,0.5,10.5,1.6c1.1-1.6,2.3-3.5,3.2-5.1h-17.1
						c-0.4,0.5-1.3,1-2.5,1.2v17.2c-0.1,0.4-2.1,1.4-4.3,2.1c1.6,1.2,4.6,3.5,6.7,5.3c-0.2,0.8-1,1.2-2,1.2H728V95
						c4.1-0.3,8.5-0.6,13-0.9l0.1,1c-6.1,2.5-15.2,5.5-29.1,9.7c-0.5,1-1.3,1.6-2.1,1.7l-4.9-10.3c3-0.1,8-0.3,13.9-0.7v-4.7h-11.6
						l-0.6-2.1h12.2v-6.3h-2.7V84c0,0.5-2.7,2.4-7.1,2.4h-1.5V58.2l9.6,3.6H730l4-4.3l7.8,5.8l-0.5-1.5h18.2l4.9-4.7l8.2,7.8
						c-0.7,0.6-1.4,0.8-2.9,0.9c-2.9,1.6-7.3,3.5-11.2,4.9c2.1,2.2,2,5,0.5,6.7h2.5l4.7-4.8L774.4,80.3L774.4,80.3z M716.1,63.8v7.1
						h2.7v-7.1H716.1z M718.8,80.3v-7.4h-2.7v7.4H718.8z M728,63.8v7.1h2.7v-7.1H728z M730.7,73H728v7.4h2.7V73z M733.1,84.7
						c-0.3,0.1-0.6,0.1-0.9,0.1h-1.5v-2.3H728v6.3h1.8L733.1,84.7z"/>
				</g>
			</g>
		</g>
	</g>
</g>
</svg>
