<?xml version="1.0" encoding="utf-8"?>
<!-- Generator: Adobe Illustrator 27.0.0, SVG Export Plug-In . SVG Version: 6.00 Build 0)  -->
<svg version="1.1" id="圖層_1" xmlns="http://www.w3.org/2000/svg" xmlns:xlink="http://www.w3.org/1999/xlink" x="0px" y="0px"
	 viewBox="0 0 668.6 103.2" style="enable-background:new 0 0 668.6 103.2;" xml:space="preserve">
<style type="text/css">
	.st0{fill:#FFF100;}
</style>
<g>
	<g id="_圖層_2">
		<g id="_圖層_1-2">
			<g>
				<g>
					<path class="st0" d="M45.3,36.2c-8.2,1.9-12.5,6.5-13.3,13.4c1.8-1.8,4.1-2.8,6.7-2.8c4.9,0,8.1,3.6,8.1,8.8
						c0,5.9-3.8,9.5-9.4,9.5c-6.2,0-10-4.6-10-12.4c0-8.9,6.6-16.4,17.8-17.6L45.3,36.2L45.3,36.2z M42.2,56c0-4.7-2-6.9-5.1-6.9
						c-1.8,0-3.7,0.5-5.4,2c0,0.3,0,0.7,0,1c0,7.7,2.1,11.4,5.6,11.4C40.2,63.5,42.2,61.1,42.2,56z"/>
					<path class="st0" d="M70.4,56.2h-4.6v8.2h-4.1v-8.2h-12v-2.4l13.1-18.4h3v17.8h4.6L70.4,56.2L70.4,56.2z M61.7,53.2V39.5
						l-9.8,13.7C51.9,53.2,61.7,53.2,61.7,53.2z"/>
					<path class="st0" d="M83.6,32.7h2.6l-12,39h-2.6L83.6,32.7L83.6,32.7z"/>
					<path class="st0" d="M107.3,57.4c0,4.6-3.8,7.7-9.6,7.7s-9.2-2.6-9.2-7c0-3.3,2.3-5.6,6.6-7.5c-3.9-2.1-5.7-4.7-5.7-8
						c0-4.7,3.8-7.6,8.7-7.6c5.1,0,8,2.9,8,6.7c0,2.3-1.4,4.9-5.6,7C105.2,51,107.4,53.5,107.3,57.4L107.3,57.4z M103.2,58.2
						c0-2.7-1.6-4.6-6.9-7c-2.6,1.8-3.8,3.5-3.8,6.4c0,3.7,2.2,6,5.5,6S103.2,61.3,103.2,58.2z M99.2,48.2c2.3-2,3.2-3.8,3.2-6.3
						c0-3-1.6-5.2-4.5-5.2c-2.5,0-4.7,1.8-4.7,4.6C93.2,43.8,94.4,46,99.2,48.2z"/>
					<path class="st0" d="M130,35.7v2.4l-10.4,26.4h-4.1l-0.4-0.4l12.4-24.6h-15.9v-3.8L130,35.7L130,35.7z"/>
					<path class="st0" d="M142.3,55.9c1.8-0.6,3.8-1.3,5.7-2l0.2,0.5c-2.6,1.8-6.6,4.5-12,7.8c-0.1,0.5-0.5,1-0.9,1.1l-2.1-4.5
						c1.1-0.3,3.1-0.9,5.4-1.7V43.6H134l-0.3-1.2h4.9V31.8l5.2,0.5c-0.1,0.5-0.4,1-1.5,1.1v9.1h0.7l1.9-3c0,0,2.1,2.2,3.3,3.5
						c-0.1,0.5-0.5,0.7-1.1,0.7h-4.9L142.3,55.9L142.3,55.9z M167.7,48c0,0,2.7,2.1,4.3,3.6c-0.1,0.5-0.5,0.7-1.1,0.7H160v14.8
						c0,0.2-1.3,1.1-3.2,1.1h-0.6V52.3h-11l-0.3-1.2h11.4V35h-9.7l-0.3-1.2h18.6l2.3-2.9c0,0,2.6,2,4.1,3.4
						c-0.1,0.5-0.5,0.7-1.1,0.7H160v16.1h5.4L167.7,48L167.7,48z M148.6,37.5c8.7,6.7,5,14.1,1.7,10.7c0-3.4-1.1-7.5-2.2-10.5
						L148.6,37.5z M161.6,48.9c1.1-3,2.3-7.7,3-11.7l5.4,1.7c-0.2,0.5-0.6,0.8-1.5,0.8c-1.8,3.5-4.1,7-6.3,9.4L161.6,48.9
						L161.6,48.9z"/>
					<path class="st0" d="M187.5,30.9h2.6v44.8h-2.6V30.9z"/>
					<path class="st0" d="M240,38.4c-0.3,0.3-0.9,0.7-1.8,0.8v27.2c-0.1,0.3-1.9,1.3-3.4,1.3h-0.6v-2.9h-17.7v1.5
						c0,0.5-1.6,1.5-3.3,1.5h-0.6V35.5l4.3,1.8h4.6c0.6-2.2,1-5,1.3-7.1l6.1,1c-0.1,0.5-0.6,0.9-1.5,0.9c-1.1,1.5-2.7,3.5-4.4,5.1
						h10.8l2.1-2.3L240,38.4L240,38.4z M216.5,38.5v7.4h17.7v-7.4H216.5L216.5,38.5z M216.5,47.1v7.7h17.7v-7.7H216.5L216.5,47.1z
						 M234.1,63.7v-7.8h-17.7v7.8H234.1z"/>
					<path class="st0" d="M258.8,47.9c-0.2,0.4-0.5,0.7-1.3,0.8v18c-0.1,0.3-1.7,1.1-3.2,1.1h-0.7V51.3c-2,1.8-4.2,3.4-6.8,4.8
						l-0.4-0.5c5.3-4.2,9.2-10.1,11.8-16.1H248l-0.4-1.2h11.2c1.2-2.8,2-5.5,2.6-8.2l5.8,1.6c-0.2,0.5-0.5,0.8-1.6,0.8
						c-0.6,1.9-1.5,3.8-2.4,5.8h13.7l2.5-3.1c0,0,2.8,2.1,4.5,3.6c-0.1,0.5-0.5,0.7-1.1,0.7h-20.1c-1.4,2.7-3.2,5.4-5.3,7.9
						L258.8,47.9L258.8,47.9z M280.1,61.3c0,0,2.6,2,4.3,3.5c-0.1,0.4-0.5,0.7-1.1,0.7h-24.6l-0.3-1.2h9.9V51.9h-7.7l-0.3-1.2h8.1
						v-9.5l5.2,0.5c0,0.5-0.4,0.9-1.3,1v7.9h3.2l2.3-2.8c0,0,2.5,2,4,3.4c-0.1,0.5-0.5,0.7-1,0.7h-8.5v12.4h5.5L280.1,61.3
						L280.1,61.3z"/>
					<path class="st0" d="M290.2,39.7c-0.9,0.9-1.7,1.7-2.6,2.3l-0.6-0.4c2-2.8,4-7,5.1-11.5l4.4,1.6c-0.2,0.5-0.7,0.8-1.5,0.8
						c-0.5,1-1,2-1.6,2.9l0.5,0.2h7.3l1.7-2c0,0,1.9,1.5,3.1,2.5c-0.1,0.5-0.5,0.7-1,0.7h-5v3.5h1.2l1.5-1.8c0,0,1.4,1.1,2.4,2.1
						c1.7-2.6,3.2-6.5,4-10.3l4.5,1.5c-0.1,0.5-0.6,0.8-1.5,0.8c-0.5,1-0.9,2-1.5,2.9l0.6,0.2h8.1l1.7-2c0,0,2,1.5,3.2,2.5
						c-0.1,0.5-0.5,0.7-1,0.7h-5.5v3.5h1.4l1.5-1.9c0,0,1.8,1.3,2.8,2.4c-0.1,0.5-0.5,0.7-1,0.7h-4.7v3.7h1.4l1.5-1.9
						c0,0,1.7,1.3,2.8,2.4c-0.1,0.5-0.5,0.7-1,0.7h-4.7v3.6h2.3l1.7-2.2c0,0,2,1.5,3.2,2.7c-0.1,0.5-0.5,0.7-1,0.7h-13.1v0.5
						c0,0.3-1.1,1.1-2.8,1.1h-0.6V39.7c-0.7,0.8-1.5,1.5-2.3,2.1l-0.5-0.4H300v3.7h1.2l1.5-1.9c0,0,1.7,1.3,2.7,2.4
						c-0.1,0.5-0.5,0.7-1,0.7H300v3.6h1.8l1.7-2.1c0,0,2,1.5,3.1,2.6c-0.1,0.5-0.5,0.7-1,0.7h-12.1v0.7c0,0.2-1.1,1-2.7,1h-0.6
						L290.2,39.7L290.2,39.7z M320.1,55c-0.3,0.4-0.8,0.5-1.9,0.5c-2.2,2.4-4.8,4.4-7.9,6.1c4.7,1.2,9.8,1.9,15,2.1l0,0.5
						c-1.7,0.4-2.8,1.7-3.2,3.7c-5.9-0.8-11.4-2.1-15.9-4.3c-5.4,2.2-11.7,3.6-18.6,4.3l-0.2-0.7c5.8-1.1,11.4-2.8,16.1-5.1
						c-3.1-1.9-5.6-4.3-7.5-7.3h-6.9l-0.4-1.2H314l2.5-2.2L320.1,55L320.1,55z M293.5,36.8v3.5h3.5v-3.5H293.5z M296.9,41.4h-3.5
						v3.7h3.5V41.4z M296.9,46.3h-3.5v3.6h3.5V46.3z M295.9,30.2c7.7,1.2,4.9,6.9,2,4.7c-0.2-1.5-1.3-3.4-2.4-4.4L295.9,30.2
						L295.9,30.2z M297.1,54.8c2.3,2.4,5.6,4.3,9.5,5.7c2.8-1.7,5.2-3.6,7-5.7H297.1z M310.7,36.8v3.5h3.8v-3.5H310.7z M314.5,41.4
						h-3.8v3.7h3.8V41.4z M314.5,46.2h-3.8v3.6h3.8V46.2z M313.4,30.1c7.7,1.2,4.8,6.9,2,4.7c-0.1-1.5-1.3-3.3-2.4-4.4L313.4,30.1
						L313.4,30.1z"/>
					<path class="st0" d="M360.9,61.7c0,0,2.9,2.2,4.7,3.8c-0.1,0.4-0.5,0.7-1.1,0.7h-36.2l-0.3-1.2h16.6V52.8h-11.9l-0.3-1.2h12.2
						V41.2H331l-0.4-1.2h26.2l2.5-3.2c0,0,2.8,2.1,4.6,3.7c-0.1,0.5-0.6,0.7-1.1,0.7h-14v10.4h6.6l2.5-3c0,0,2.7,2.1,4.4,3.6
						c-0.1,0.5-0.5,0.7-1.1,0.7h-12.3v12.1h9.6L360.9,61.7L360.9,61.7z M340.3,30.4c13.2,1.5,11.1,10.3,6.6,8
						c-1.2-2.8-4.3-5.8-7-7.6L340.3,30.4L340.3,30.4z"/>
					<path class="st0" d="M397.1,33c0.5,15.7,2.4,25,9.6,30.3l-0.1,0.5c-1.7,0.4-2.9,1.8-3.4,4c-4.2-4.3-5.8-12.2-6.5-22.7
						c-0.8,9.3-3.3,17.1-12.5,22.8l-0.5-0.6c1.9-1.7,3.4-3.5,4.7-5.3h-14.1l-1.3,2l-4-2.5c0.3-0.3,0.7-0.7,1.2-1V31.3l4.5,2.3h9.5
						l2.3-3c0,0,2.5,2.1,4.1,3.6c-0.1,0.5-0.5,0.7-1.1,0.7h-7.2v7.2h2.9l1.7-1.9l3.3,2.9c-0.3,0.3-0.8,0.6-1.5,0.7v9.1
						c-0.1,0.2-1.5,0.8-3,0.8H385v-1.9h-2.8v9.1h1.7l2.1-3c0,0,1.7,1.5,3.1,2.9c4.7-8.2,4.2-18.4,4.2-30.5l5.2,0.5
						c-0.1,0.6-0.5,1-1.5,1.1L397.1,33L397.1,33z M378.6,41.9v-7.2H374v7.2H378.6z M385,43.1h-11v7.4h11V43.1z M378.6,60.8v-9.1H374
						v9.1H378.6z"/>
					<path class="st0" d="M422.3,27.2h2.5V72h-2.5V27.2z"/>
					<path class="st0" d="M445.5,36.8c0.4,2.3-0.4,4-1.5,4.7c-1,0.7-2.5,0.5-2.9-0.7c-0.4-1.1,0.3-2,1.3-2.5c1.1-0.8,2-2.8,1.5-4.7
						l0.6,0c0.3,0.7,0.6,1.3,0.7,2h12.5v-2.2h-11.4l-0.3-1.2h22.4l1.9-2.4c0,0,2.2,1.7,3.6,2.9c-0.1,0.5-0.5,0.7-1,0.7h-11.4v2.2
						h12.2l2-2.1l3.6,3.5c-0.3,0.3-0.8,0.4-1.5,0.5c-1,1.1-2.8,2.7-4.2,3.6l-0.5-0.3c0.3-1,0.6-2.6,0.9-4h-3.4l1.7,2.8
						c-0.3,0.2-0.7,0.1-1.1-0.2c-1.6,0.3-5.5,0.7-8.4,0.8l-0.2-0.5c2.1-0.7,5.3-2,7.1-2.8h-8.2v7c0,0.2-1.2,0.8-3.1,0.8h-0.6v-7.9
						L445.5,36.8L445.5,36.8z M474.5,63.2c0,0,2.1,1.7,3.5,3c-0.1,0.4-0.5,0.7-1,0.7h-34.2l-0.4-1.2h15.5v-9.4h-13.2l-0.4-1.2h26
						l1.7-2v-0.6h-3.3v0.6c0,0.2-1.3,0.8-2.4,0.8h-0.5v-9.4l3,1.3h2.8l1.4-1.5l3.2,2.4c-0.2,0.2-0.7,0.5-1.4,0.7v5.3
						c0,0.2-0.9,0.6-1.7,0.8c0.8,0.5,1.9,1.4,2.8,2.1c-0.1,0.5-0.5,0.7-1.1,0.7h-7.5l4.2,1.5c-0.2,0.5-0.7,0.8-1.6,0.7
						c-0.2,0.5-0.5,0.9-0.7,1.4c6.5,1.7,4.1,6.3,1.6,4.5c-0.3-1.2-1.2-2.5-2.2-3.5c-1.6,2.2-3.6,3.8-5.8,4.8l-0.5-0.5
						c2.1-2,4-5,4.9-8.7h-5.7v9.4h11L474.5,63.2L474.5,63.2z M453.7,58c-0.2,0.5-0.7,0.8-1.5,0.7c-0.2,0.4-0.5,0.8-0.7,1.2
						c7.4,1.6,5.2,6.7,2.4,5c-0.4-1.4-1.7-3-2.9-4.2c-1.8,2.4-4.1,4.1-6.6,5l-0.5-0.5c2.5-1.8,4.6-5,5.6-8.8L453.7,58L453.7,58z
						 M450.6,53.8v-1.2H447v0.8c0,0.2-1.2,0.8-2.4,0.8h-0.4v-9.7l3,1.3h3.1l1.4-1.4l3,2.3c-0.2,0.2-0.6,0.5-1.3,0.6v5.6
						c0,0.3-1.5,0.8-2.4,0.8L450.6,53.8L450.6,53.8z M456.2,41.1c-1.7,0.7-4.2,1.7-7.6,3c-0.2,0.5-0.5,0.8-0.9,0.9l-1.4-3.3
						c1.8-0.2,5.8-0.7,9.9-1.2L456.2,41.1z M446.9,37.6c8.9-1.2,9.4,3.2,6.9,3c-1.7-0.8-4.8-1.9-7.1-2.3L446.9,37.6L446.9,37.6z
						 M450.6,51.4v-4.4H447v4.4H450.6z M461.4,53.7v-1.1h-3.6v0.6c0,0.2-1.3,0.8-2.4,0.8H455v-9.5l3,1.3h3.1l1.4-1.4l3,2.3
						c-0.2,0.2-0.7,0.5-1.3,0.6v5.5c0,0.2-1.5,0.8-2.4,0.8H461.4L461.4,53.7z M461.4,51.4v-4.4h-3.6v4.4H461.4z M462.8,40.7
						c10.5-0.5,11,4.2,8.2,3.9c-1.9-1-5.8-2.6-8.4-3.2L462.8,40.7L462.8,40.7z M472,51.4v-4.4h-3.3v4.4H472z"/>
					<path class="st0" d="M481.7,39.8c10,0.7,7.5,8,3.9,5.8c-0.6-2-2.5-4.2-4.2-5.4L481.7,39.8L481.7,39.8z M494.1,38.5
						c-1.7,4.8-5,13.8-5.5,15.8c-0.4,1.3-0.7,2.6-0.7,3.7c0.1,2,1.5,3.6,1.3,7c-0.1,1.9-1.2,3.1-3,3.1c-0.9,0-1.6-0.7-1.8-2
						c0.6-4.2,0.5-7.7-0.5-8.3c-0.6-0.4-1.2-0.6-2-0.7v-0.8h1.8c0.6,0,0.7,0,1.2-0.8c0.6-1,3.4-6.7,8.4-17.1L494.1,38.5L494.1,38.5z
						 M484.7,31c10.3,0.9,8,8.3,4.2,6.2c-0.7-2.1-2.8-4.5-4.5-5.8C484.4,31.3,484.7,31,484.7,31z M515.3,40.2c0,0,2.6,2.2,4.2,3.6
						c-0.1,0.5-0.5,0.6-1.1,0.6h-10.8v8h4.3l2-2.1l4,3.1c-0.2,0.3-0.8,0.7-1.7,0.8v12.3c0,0.3-1.9,1.1-3.2,1.1h-0.7v-3.2h-13.5v2.2
						c0,0.4-1.6,1.2-3.2,1.2h-0.6V50.7l4,1.7h4.5v-8H493l-0.3-1.1h11v-7.1c-3.4,0.4-6.9,0.7-10.1,0.8l-0.1-0.7
						c7-1.2,15.8-3.7,20.2-5.7l4,3.8c-0.4,0.4-1.3,0.4-2.4,0c-2.2,0.5-4.8,0.9-7.7,1.3v7.6h5.4L515.3,40.2L515.3,40.2z M498.9,53.6
						v9.7h13.5v-9.7H498.9z"/>
					<path class="st0" d="M525,39.7c-0.8,0.9-1.7,1.7-2.6,2.3l-0.6-0.4c2-2.8,4-7,5.2-11.5l4.4,1.6c-0.2,0.5-0.7,0.8-1.5,0.8
						c-0.5,1-1,2-1.6,2.9l0.5,0.2h7.3l1.7-2c0,0,1.9,1.5,3.1,2.5c-0.1,0.5-0.5,0.7-1,0.7h-5v3.5h1.2l1.5-1.8c0,0,1.4,1.1,2.4,2.1
						c1.7-2.6,3.2-6.5,4-10.3l4.5,1.5c-0.1,0.5-0.6,0.8-1.5,0.8c-0.5,1-0.9,2-1.5,2.9l0.6,0.2h8.2l1.7-2c0,0,2,1.5,3.2,2.5
						c-0.1,0.5-0.5,0.7-1,0.7h-5.5v3.5h1.4l1.5-1.9c0,0,1.8,1.3,2.8,2.4c-0.1,0.5-0.5,0.7-1,0.7h-4.7v3.7h1.4l1.5-1.9
						c0,0,1.7,1.3,2.8,2.4c-0.1,0.5-0.5,0.7-1,0.7h-4.7v3.6h2.3l1.7-2.2c0,0,2,1.5,3.2,2.7c-0.1,0.5-0.5,0.7-1,0.7h-13.1v0.5
						c0,0.3-1.1,1.1-2.8,1.1h-0.6V39.7c-0.7,0.8-1.5,1.5-2.3,2.1l-0.5-0.4h-4.5v3.7h1.2l1.5-1.9c0,0,1.7,1.3,2.7,2.4
						c-0.1,0.5-0.5,0.7-1,0.7h-4.3v3.6h1.8l1.7-2.1c0,0,2,1.5,3.1,2.6c-0.1,0.5-0.5,0.7-1,0.7h-12.1v0.7c0,0.2-1.1,1-2.7,1H525
						L525,39.7L525,39.7z M554.9,55c-0.3,0.4-0.8,0.5-1.9,0.5c-2.2,2.4-4.8,4.4-7.9,6.1c4.7,1.2,9.8,1.9,15,2.1l0,0.5
						c-1.7,0.4-2.8,1.7-3.2,3.7c-5.9-0.8-11.3-2.1-15.9-4.3c-5.3,2.2-11.7,3.6-18.6,4.3l-0.2-0.7c5.8-1.1,11.3-2.8,16.1-5.1
						c-3.1-1.9-5.6-4.3-7.5-7.3h-6.9l-0.4-1.2h25.2l2.5-2.2L554.9,55L554.9,55z M528.2,36.8v3.5h3.5v-3.5H528.2z M531.7,41.4h-3.5
						v3.7h3.5V41.4z M531.7,46.3h-3.5v3.6h3.5V46.3z M530.6,30.2c7.7,1.2,4.9,6.9,2,4.7c-0.2-1.5-1.3-3.4-2.4-4.4L530.6,30.2
						L530.6,30.2z M531.8,54.8c2.3,2.4,5.6,4.3,9.5,5.7c2.8-1.7,5.2-3.6,7-5.7H531.8z M545.4,36.8v3.5h3.8v-3.5H545.4z M549.2,41.4
						h-3.8v3.7h3.8V41.4z M549.2,46.2h-3.8v3.6h3.8V46.2z M548.2,30.1c7.7,1.2,4.8,6.9,2,4.7c-0.1-1.5-1.3-3.3-2.4-4.4L548.2,30.1
						L548.2,30.1z"/>
					<path class="st0" d="M595.7,56.5c0,0,2.8,2.2,4.5,3.7c-0.1,0.5-0.5,0.7-1.1,0.7h-15.8v6c0,0.4-1.7,1.2-3.2,1.2h-0.8v-7.2h-16.3
						l-0.4-1.2h16.6v-4.8h-7.7v1.4c0,0.4-1.7,1.3-3.2,1.3h-0.6V39.2l4.1,1.7h7.3v-4.1h-15.1l-0.3-1.2h15.4v-5.4l5.4,0.6
						c-0.1,0.6-0.4,1-1.5,1.2v3.6h8.7l2.5-3c0,0,2.9,2.1,4.6,3.6c-0.1,0.5-0.5,0.7-1.1,0.7h-14.7v4.1h7.4l2-2.2l4,3.2
						c-0.3,0.3-0.8,0.7-1.7,0.8v12.6c0,0.3-2,1.1-3.2,1.1h-0.7v-1.7h-7.8v4.8h9.8L595.7,56.5L595.7,56.5z M571.7,42.1v5h7.7v-5
						H571.7z M579.3,53.6v-5.3h-7.7v5.3H579.3z M583.3,42.1v5h7.8v-5H583.3z M591.1,53.6v-5.3h-7.8v5.3H591.1z"/>
					<path class="st0" d="M613.3,42c-0.1,0.4-0.5,0.6-1.2,0.8v23.9c-0.1,0.3-1.7,1.2-3.2,1.2h-0.7V46.1c-1.6,2-3.4,3.9-5.2,5.4
						l-0.5-0.4c3.5-5,7.1-13,9-20.9l5.7,1.7c-0.2,0.5-0.7,0.8-1.6,0.8c-1.2,3.1-2.5,5.9-4,8.5L613.3,42L613.3,42z M636.8,61.1
						c0,0,2.8,2.2,4.4,3.7c-0.1,0.4-0.5,0.7-1.1,0.7h-26.5l-0.3-1.2h14.3c1.7-6.5,3.5-15.2,4.3-21.4l5.8,1.3c-0.1,0.6-0.6,1-1.5,1
						c-1.6,5.3-4.5,13-7.7,19.1h6L636.8,61.1L636.8,61.1z M614.3,39.8h19.3l2.4-3c0,0,2.7,2.1,4.3,3.6c-0.1,0.5-0.5,0.7-1.1,0.7
						h-24.6L614.3,39.8L614.3,39.8z M617.7,43.5c11.3,11.9,5.8,21.7,3,17.3c-0.2-4.3-0.8-11.8-3.6-17.1L617.7,43.5z M622.6,30.3
						c10.5,3.2,6.8,11.1,3.1,8c-0.2-2.6-1.9-5.8-3.5-7.7L622.6,30.3L622.6,30.3z"/>
				</g>
			</g>
		</g>
	</g>
</g>
</svg>
