<?xml version="1.0" encoding="UTF-8"?>
<svg id="_圖層_2" data-name="圖層 2" xmlns="http://www.w3.org/2000/svg" xmlns:xlink="http://www.w3.org/1999/xlink" viewBox="0 0 340.31 207.12">
  <defs>
    <style>
      .cls-1 {
        fill: #fff;
      }

      .cls-2 {
        filter: url(#drop-shadow-1);
      }

      .cls-3 {
        fill: #fff000;
      }
    </style>
    <filter id="drop-shadow-1" filterUnits="userSpaceOnUse">
      <feOffset dx="5" dy="5"/>
      <feGaussianBlur result="blur" stdDeviation="5.08"/>
      <feFlood flood-color="#231815" flood-opacity=".95"/>
      <feComposite in2="blur" operator="in"/>
      <feComposite in="SourceGraphic"/>
    </filter>
  </defs>
  <g id="_圖層_1-2" data-name="圖層 1">
    <g class="cls-2">
      <g>
        <path class="cls-1" d="M44.01,16.15s4.21,3.19,6.8,5.4c-.16,.59-.76,.86-1.57,.86h-12.69l6.7,5.13c-.32,.43-.97,.92-2.11,1.13v15.5c0,4.48-1.3,7.02-9.77,7.67-.16-2.16-.49-3.73-1.46-4.75-.97-.92-2.05-1.73-5.18-2.27v-.65s6.05,.43,7.51,.43c.81,0,1.08-.43,1.08-1.08v-3.62H17.17c-1.35,4.54-4.64,9.23-12.64,12.31l-.32-.43c5.45-5.51,5.99-12.74,5.99-18.74v-10.15l8.96,3.02h13.61l3.19-3.51H.43l-.43-1.51H21.22v-5.29H7.07l-.43-1.51h14.58v-4.97H3.83l-.43-1.51H21.22V.7l9.77,.76c-.11,.76-.43,1.3-1.94,1.57V7.61h8.8l3.73-4.7s4.16,3.19,6.7,5.35c-.16,.59-.76,.86-1.57,.86H29.05v4.97h5.72l3.56-4.43s4,2.97,6.43,5.08c-.16,.59-.76,.86-1.51,.86h-14.2v5.29h11.23l3.73-4.75Zm-10.69,22.25v-4.7h-15.28c-.05,1.46-.16,3.08-.49,4.7h15.77Zm-15.28-10.96v4.75h15.28v-4.75h-15.28Z"/>
        <path class="cls-1" d="M102.17,14.04l7.24,5.56c-.43,.49-1.19,1.03-2.43,1.3v22.79c0,4.97-.92,7.61-8.21,8.21-.05-2.43-.16-4.21-.59-5.29s-1.03-1.89-2.75-2.27v-.7s2.32,.16,3.08,.16c.65,0,.81-.38,.81-.92v-5.08h-4.32v10.91c0,.7-3.29,2.54-5.94,2.54h-1.51v-13.45h-3.94v12.1c0,.49-2.27,2.21-6.05,2.21h-1.4V31.75c-3.13,2.59-7.94,6.26-14.53,10.58-.27,.76-.86,1.4-1.57,1.62l-3.19-8.8c1.35-.27,3.62-.76,6.43-1.4V17.66h-4.81l-.43-1.51h5.24V1.73l9.56,.81c-.11,.76-.49,1.3-2,1.57v11.93l2.86-5.18s2.11,2.32,3.83,4.43l6.8,2.7h3.19v-6.48h-12.37l-.43-1.51h12.8V1.24l8.96,.86c-.05,.59-.38,1.03-1.51,1.24v6.64h4.37l1.03-1.35c-.32-.16-.7-.32-1.03-.59-.05-2.11-1.19-4.43-2.43-5.67l.38-.32c7.34-.22,8.86,2.86,7.83,4.97,1.4,1.08,3.19,2.48,4.48,3.62-.16,.59-.76,.86-1.51,.86h-13.12v6.48h3.73l3.46-3.94Zm-31.32,17.87c1.73-.43,3.51-.92,5.29-1.4v-12.85h-5.29v14.26Zm12.74-12.42v7.56h3.94v-7.56h-3.94Zm3.94,16.79v-7.72h-3.94v7.72h3.94Zm7.45-16.79v7.56h4.32v-7.56h-4.32Zm4.32,16.79v-7.72h-4.32v7.72h4.32Z"/>
        <path class="cls-1" d="M121.45,36.34c2.48,5.78,2.43,10.15,.7,12.42-1.3,1.62-4.64,1.4-5.72-.86-.92-2,0-3.89,1.78-5.08,1.19-1.19,2.92-4.1,2.54-6.48h.7Zm39.8,6.86s4.16,3.4,6.59,5.67c-.11,.59-.7,.86-1.51,.86h-31.21l-.43-1.51h11.93v-13.01h-8.48l-.43-1.51h18.79l3.02-4.05c-.49-3.13-2.65-7.83-5.67-10.37,.92-2.05,2.16-5.13,3.08-7.61-.32,.27-.81,.38-1.46,.27-1.67,1.57-6.21,5.24-9.18,7.45,15.93,4.37,9.13,14.85,3.73,11.02-.22-3.13-2-8.1-4.91-10.85,.92-2.21,2.11-5.51,2.92-8.05-.27,.16-.65,.22-1.19,.16-1.67,1.57-5.89,5.4-8.75,7.67,14.96,4.91,7.94,15.01,2.92,11.07-.11-3.02-1.46-7.94-4.1-10.96,.32-.81,.65-1.78,1.03-2.81-.38,.16-.86,.22-1.46,.05-3.08,3.73-9.13,9.02-14.58,12.47,2.7-.16,6.05-.38,9.5-.59-.43-1.62-1.08-3.19-1.67-4.48l.54-.27c12.53,4.48,6.64,13.82,1.89,9.4,0-.92-.11-1.89-.32-2.81-2.92,1.46-6.97,3.35-11.56,5.18-.43,.54-.97,.97-1.51,1.13l-2.54-7.45s1.46-.32,2.11-.76c2.38-1.62,5.35-5.13,7.83-8.86-1.62,.76-3.46,1.62-5.4,2.43-.38,.65-.86,1.08-1.4,1.3l-3.13-7.34s1.24-.32,1.78-.7c2.48-2.38,5.83-10.21,6.7-14.42l8.48,4.27c-.22,.49-.86,.81-1.84,.76-2.48,3.24-6.75,7.56-10.53,10.31,2.16,0,4.81,0,7.56-.05,1.13-1.94,2.05-3.73,2.59-5.24l7.24,4.97c.97-2.92,1.89-6.05,2.21-7.56l7.88,2.32c.27-.86,.49-1.62,.59-2.16l8.26,2.54c.38-1.08,.65-1.94,.81-2.59l8.48,2.75c-.22,.54-.81,.92-1.84,.76-1.73,1.46-6.48,5.02-9.45,7.13,14.47,3.4,11.29,12.04,6.53,11.56,1.24,1.08,2.92,2.54,4.16,3.67-.16,.59-.7,.86-1.46,.86h-9.77v13.01h2.92l3.73-5.02Zm-35.64-7.51c10.8,6.86,3.56,15.66-.59,10.31,.7-3.4,.49-7.24-.05-10.15l.65-.16Zm5.4-.81c12.69,4,6.8,13.66,2.05,9.29,.05-3.08-1.19-6.64-2.59-9.02l.54-.27Zm5.89-27.65l-.43-1.51h20.3l3.51-4.43s4,2.97,6.43,5.08c-.16,.59-.76,.86-1.51,.86h-28.3Z"/>
        <path class="cls-1" d="M224.59,6.1c-.38,.43-.97,.76-2,.92-.27,7.99-.92,10.96-3.19,12.47-.92,.59-2,1.03-3.29,1.24l4.05,3.08c-.32,.38-.92,.81-1.89,1.03v16.74c-.05,.43-3.94,1.78-6.48,1.78h-1.35v-1.94h-17.23l7.88,5.51c-.54,.59-1.67,.86-3.51,.38-5.29,2.59-14.15,4.43-22.46,4.91l-.16-.65c6.97-2.27,14.53-6.64,18.14-10.15h-2.11v.76c0,.7-3.4,2.43-6.53,2.43h-1.13V20.68c-.7,.38-1.4,.76-2.11,1.13-.54,.86-1.24,1.4-1.89,1.73l-3.19-6.8c2.16-1.08,2.48-1.67,2.48-2.7V2.81l6.97,2.21c2.92-1.46,5.89-3.29,7.4-4.48l5.99,5.45c-.38,.43-1.13,.43-2,.05-2.48,.49-7.02,1.03-11.34,1.13V15.23c1.78-.32,3.67-.7,5.56-1.08-.81-1.78-2-3.51-3.19-4.75l.43-.32c15.34,1.67,9.88,13.61,3.94,9.23-.11-.86-.27-1.78-.59-2.65-1.84,1.13-4.16,2.59-6.86,4.1l6.48,2.48h18.47l3.4-3.62,.05,.05c-.11-.92-.32-1.62-.65-2.16-.65-.86-1.46-1.46-3.08-1.89l.05-.65c1.03,.11,2.92,.16,3.73,.16,.7,0,1.03-.05,1.24-.32,.59-.54,.92-2.86,1.08-7.88h-4.16c-.81,6.48-3.51,12.37-15.77,16.2l-.54-.7c7.67-4.75,8.42-10.04,8.64-15.5h-4.43l-.49-1.51h16.25l3.4-3.13,5.94,4.81Zm-33.59,17.66v4.48h19.44v-4.48h-19.44Zm0,5.99v4.27h19.44v-4.27h-19.44Zm19.44,10.15v-4.37h-19.44v4.37h19.44Zm-8.96,3.56c33.05-.38,19.87,12.37,13.28,7.51-2.32-2.11-6.8-5.08-13.45-6.91l.16-.59Z"/>
        <path class="cls-1" d="M254.61,24.46c-1.62,1.4-3.67,3.08-6.37,5.02v19.98c0,.76-3.13,2.54-5.83,2.54h-1.4v-17.55c-.92,.59-1.84,1.19-2.81,1.84-.22,.7-.76,1.3-1.4,1.51l-4.81-8.1c1.89-.38,5.13-1.19,9.02-2.16v-11.12h-2.54c-1.35,4.43-3.13,8.48-5.4,11.56l-.81-.38c1.03-5.89,1.51-14.09,1.4-21.11l7.34,1.19V.97l9.23,.92c-.11,.76-.49,1.3-2,1.51V12.96l1.78-3.08s3.4,3.46,5.08,5.67c-.11,.59-.65,.86-1.4,.86h-5.45v9.29c2.05-.59,4.16-1.13,6.26-1.73l.11,.49Zm-13.61-9.56v-5.83c-.22,.05-.49,.11-.81,.16-.38,1.94-.81,3.83-1.3,5.67h2.11Zm36.4,9.67s3.94,3.19,6.26,5.35c-.11,.59-.7,.86-1.46,.86h-8.26v13.18c0,4.97-1.3,7.56-9.99,8.26-.22-2.27-.54-3.83-1.67-4.91-1.13-1.08-2.43-1.84-5.89-2.43v-.65s7.45,.43,8.8,.43c.86,0,1.13-.27,1.13-.97v-12.91h-15.34l-.43-1.51h15.77v-6.86l9.45,.81c-.11,.81-.65,1.24-1.84,1.4v4.59l3.46-4.64Zm-25.54-13.88h10.15V.76l9.29,.76c-.05,.7-.43,1.19-1.73,1.4v7.78h2.86l3.73-4.91s4.27,3.29,6.8,5.56c-.16,.59-.76,.86-1.57,.86h-11.83v8.26h1.89l3.56-4.7s4.05,3.19,6.48,5.35c-.11,.59-.7,.86-1.51,.86h-25.92l-.43-1.51h8.37V12.2h-9.72l-.43-1.51Zm1.73,20.74c16.63,2.65,10.75,15.07,4.21,10.42-.7-3.56-2.81-7.4-4.64-10.15l.43-.27Z"/>
        <path class="cls-1" d="M335.83,43.58c3.62,.59,4.48,1.73,4.48,2.92,0,3.46-3.78,4.1-22.25,4.1h-11.23c-9.45,0-13.93-.86-13.93-7.67V6.37h-1.78l-.43-1.51h37.75l3.62-4.86s4.05,3.29,6.48,5.51c-.16,.59-.76,.86-1.51,.86h-36.94V41.9c0,2.43,1.62,3.08,5.94,3.08h12.58c3.73,0,7.4-.11,9.07-.22,1.08-.05,2.65-.27,3.62-.38,.92-.11,2.27-.43,3.67-.92h.54l.32,.11Zm-24.35-.97v-2.7h-2.75v2.21c0,.54-2.75,1.89-5.35,1.89h-.86V25.27l6.37,2.54h2.11l2.81-2.92,5.72,4.27c-.27,.32-.86,.76-1.73,.92v11.02c-.05,.38-3.19,1.51-5.24,1.51h-1.08Zm11.88-21.11h-8.96v1.4c0,.65-3.29,2.21-6.26,2.21h-1.03V7.78l7.56,2.86h8.15l3.24-3.46,6.64,4.97c-.32,.38-.92,.81-1.94,1.03v9.29c-.05,.38-3.78,1.62-6.1,1.62h-1.3v-2.59Zm-11.88,16.9v-9.07h-2.75v9.07h2.75Zm11.88-18.41v-7.83h-8.96v7.83h8.96Zm6.16,22.41v-2.48h-2.97v1.3c0,.59-2.81,1.94-5.4,1.94h-.92V25.27l6.53,2.54h2.27l2.86-2.97,5.83,4.37c-.27,.32-.86,.7-1.73,.86v10.75c-.05,.38-3.29,1.57-5.35,1.57h-1.13Zm0-4v-9.07h-2.97v9.07h2.97Z"/>
      </g>
      <g>
        <path class="cls-3" d="M46.38,92.65c-.31,.41-.9,.77-1.8,.99v35.01c-.09,.45-2.88,1.89-5.17,1.89h-.95v-3.55H11.69v1.53c0,.77-2.43,2.25-4.99,2.25h-.99v-41.94l6.48,2.56h25.83l2.83-3.15,5.53,4.41Zm-7.92,33.07v-20.79c-.31,.27-.85,.41-1.57,.31-1.3,3.65-2.97,6.71-4.86,9.27,.5,.99,1.08,1.89,1.76,2.66,.45,.58,.67,.54,1.03-.09,.58-.99,1.44-2.92,2.07-4.54l.45,.13-.76,6.3c1.26,2.38,1.48,3.69,.76,4.45-1.93,1.89-5.13,.18-6.52-1.39-.95-1.12-1.75-2.29-2.47-3.56-2.97,2.65-6.48,4.59-10.53,5.98l-.4-.5c3.51-2.2,6.75-5.22,9.31-9-1.12-3.06-1.8-6.39-2.16-9.94-.22,.09-.45,.18-.72,.23v6.52c0,.36-2.07,1.35-3.55,1.35h-.72v-1.31h-1.76v.81c0,.31-1.84,1.26-3.55,1.26h-.58v-12.01l4.32,1.75h1.26l1.89-1.94,3.33,2.47c-.14-1.17-.23-2.38-.27-3.6H12.81l-.36-1.26h11.7c-.09-1.94-.14-3.87-.14-5.9l6.79,1.12c-.09,.54-.54,1.04-1.57,1.12v3.65h2.25l1.39-1.85c-.41-1.48-1.35-3.01-2.16-3.91l.41-.27c6.7,.13,6.79,3.73,4.86,4.9,.68,.54,1.35,1.12,1.89,1.67-.14,.49-.58,.72-1.21,.72h-7.38c.09,2.83,.31,5.58,.81,8.1,.9-2.11,1.62-4.45,2.11-6.93l6.25,2.65v-11.74H11.69v33.07h26.77Zm-13.59-11.2c-1.71,1.44-4.45,3.51-8.46,6.17-.23,.63-.68,1.03-1.21,1.17l-2.83-6.17c2.2-.18,7.38-.85,12.46-1.62l.05,.45Zm-5.31-9.63h-1.76v5.67h1.76v-5.67Z"/>
        <path class="cls-3" d="M92.05,107.41c-.27,.36-.72,.58-1.75,.31-2.83,1.03-6.61,2.07-10.57,2.97,3.01,6.07,9.04,9.13,15.03,11.02l-.09,.5c-2.43,.54-4.23,2.52-5.13,5.53-5.49-3.78-8.95-8.46-10.8-16.83-.99,.18-1.98,.4-2.97,.58,3.78,6.39,3.51,14.04,1.17,17.1-1.26,1.62-3.87,2.16-7.42,2.16-.05-1.8-.41-3.1-1.12-4-.58-.72-1.94-1.4-3.82-1.94v-.45c1.89,.18,4.72,.36,5.8,.36,.63,0,1.12-.09,1.35-.5,.36-.72,.68-1.98,.76-3.51-5.35,3.01-12.37,5.58-19.44,6.75l-.27-.58c7.51-2.7,15.03-8.14,19.21-13.72l-.04-.31c-4.68,2.83-11.34,5.58-17.59,7.11l-.22-.49c5.53-2.75,11.47-7.83,14.94-12.33-4.23,2.29-9.27,4.09-14.44,5.35l-.27-.49c5.17-2.52,9.9-6.48,13-9.94h-7.69l-.36-1.26h20.7l3.15-4s1.76,1.35,3.55,2.79c.09-1.22,.09-2.75,.09-4h-26.91c.41,3.33-.72,5.67-2.39,6.7-1.57,.99-4,.45-4.68-1.53-.58-1.89,.54-3.33,2.11-4.05,1.49-.81,3.33-2.88,3.28-5.13h.54c.41,.94,.68,1.89,.9,2.74h12.06c-.18-.09-.31-.18-.49-.27-.18-2.16-1.44-4.36-2.93-5.58l.27-.23c9.9-1.21,9.9,4.36,6.93,6.07h10.8l3.06-3.1,5.35,5.04c-.36,.4-.81,.54-1.75,.58-1.35,1.12-3.6,2.52-5.49,3.42,.5,.36,.9,.72,1.3,1.08-.09,.49-.63,.72-1.26,.72h-11.34c-1.44,1.44-3.19,2.79-5.17,4,1.62,1.26,2.97,2.75,4,4.27,4-2.52,8.37-6.03,10.66-8.28l6.39,5.35Z"/>
        <path class="cls-3" d="M104.57,117.62c2.16,5,2.16,8.82,.77,10.93-1.04,1.48-3.82,1.4-4.81-.4-.81-1.62-.09-3.19,1.3-4.19,.99-1.17,2.47-3.96,2.16-6.34h.58Zm-3.69-5.89s1.21-.27,1.75-.63c1.98-1.35,4.45-4.27,6.52-7.38-1.35,.63-2.88,1.35-4.5,2.02-.31,.54-.72,.9-1.17,1.08l-2.61-6.12s1.03-.27,1.48-.58c2.07-1.98,4.86-8.5,5.58-12.01l7.06,3.55c-.18,.4-.72,.67-1.53,.63-2.07,2.7-5.62,6.3-8.77,8.59,1.8,0,4,0,6.3-.04,.94-1.62,1.71-3.1,2.16-4.36l6.3,4.32c-.23,.4-.81,.67-1.71,.45-2.56,3.1-7.6,7.51-12.15,10.39,2.25-.13,5.04-.31,7.92-.49-.36-1.35-.9-2.65-1.39-3.73l.45-.23c10.44,3.73,5.53,11.52,1.57,7.83,0-.76-.09-1.57-.27-2.34-2.43,1.21-5.8,2.79-9.63,4.32-.36,.45-.81,.81-1.26,.94l-2.11-6.21Zm7.2,5.35c9.22,5.58,3.33,13.05-.18,8.69,.45-2.83,.18-6.08-.36-8.5l.54-.18Zm35.1-11.56c-.27,.5-.72,.68-1.8,.81-1.26,4.9-3.19,9.49-6.21,13.41,2.61,2.25,5.58,3.91,8.77,5.31l-.14,.5c-2.61,.36-4.72,2.2-5.8,5.17-2.61-2.07-4.77-4.32-6.48-7.06-3.33,2.97-7.65,5.4-13.18,7.06l-.31-.5c4.99-2.65,8.73-6.25,11.47-10.44-1.57-3.78-2.65-8.46-3.28-14.53h-.23c-.68,9.94-2.88,18.67-10.48,25.47l-.58-.63c1.17-2.16,2.11-4.36,2.83-6.61-.9,.67-2.25,.76-3.55-.36,0-2.2-.99-4.81-2.11-6.48l.45-.23c3.82,.94,5.58,2.56,6.03,4.09,2.11-8.46,1.84-17.77,1.84-27.58h-2.56l-.4-1.26h13.68l2.29-2.7,5.62,4.09c-.36,.45-.77,.58-1.67,.72l-1.08,8.64,1.57-1.57,5.31,4.68Zm-16.83-12.6c-.04,3.83-.09,7.52-.27,11.07h4.14l1.22-11.07h-5.08Zm.59,12.33c.94,4.46,2.56,7.96,4.72,10.75,1.62-3.33,2.74-6.98,3.42-10.75h-8.14Z"/>
        <path class="cls-3" d="M184.93,122.93s4.18,3.15,6.66,5.26c-.14,.5-.68,.72-1.35,.72h-40.9l-.36-1.26h17.73v-5.22h-13.77l-.36-1.26h14.13v-4.77h-5.67v.99c0,.58-2.92,2.02-5.58,2.02h-.95v-18.85l6.88,2.61h5.31v-4h-16.51l-.36-1.26h16.87v-3.33c-4.81,.18-9.81,.23-14.4,.09l-.04-.68c9.81-1.17,22.41-3.82,28.89-6.12l5.35,5.49c-.54,.45-1.62,.45-3.15-.18-2.88,.41-6.3,.72-9.99,.99v3.73h7.92l3.33-4s3.73,2.65,6.07,4.54c-.14,.49-.67,.72-1.3,.72h-16.02v4h5.53l2.88-3.15,5.94,4.5c-.27,.36-.81,.76-1.75,.94v11.16c-.05,.23-1.08,.76-2.39,1.17,1.17,.85,3.55,2.56,5.17,3.91-.14,.5-.63,.72-1.3,.72h-14.08v5.22h7.87l3.69-4.72Zm-23.89-18.49v4.64h5.67v-4.64h-5.67Zm5.67,10.71v-4.81h-5.67v4.81h5.67Zm6.66-10.71v4.64h5.98v-4.64h-5.98Zm5.98,5.9h-5.98v4.81h5.98v-4.81Zm-5.98,10.84h6.25l2.43-3.02c-.54,.14-1.08,.18-1.57,.18h-1.12v-1.94h-5.98v4.77Z"/>
        <path class="cls-3" d="M221.03,103.04c1.53,8.23,7.02,16.11,19.17,20.61l-.04,.54c-3.33,.67-5.26,2.83-5.8,6.61-9.45-6.07-12.69-17.1-13.86-26.1-1.44,10.84-6.07,19.93-22.9,26.1l-.36-.58c12.24-7.87,15.52-16.83,16.42-27.18h-15.66l-.36-1.26h16.11c.27-4.27,.23-8.77,.23-13.54l8.95,.81c-.14,.72-.58,1.12-1.66,1.31-.09,3.96-.14,7.78-.45,11.43h8.68l3.73-4.72s4.18,3.15,6.7,5.26c-.14,.5-.67,.72-1.35,.72h-17.55Z"/>
        <path class="cls-3" d="M262.92,107.68c-.27,.49-.68,.67-1.66,.81-.63,4.36-1.71,8.55-3.87,12.28,4.95,2.25,11.61,2.75,20.7,2.75,2.21,0,7.47,0,10.21-.04v.49c-2.43,.54-3.6,2.88-3.73,5.4h-6.93c-10.48,0-17.68-1.04-22.63-5.17-2.25,2.61-5.26,4.86-9.31,6.57l-.31-.5c3.19-2.38,5.4-5.44,6.93-8.91-2.16-2.83-3.78-6.61-4.99-11.61l.4-.18c1.44,3.87,3.33,6.66,5.71,8.68,1.03-3.33,1.62-6.93,1.89-10.62h-1.48l-1.75,1.89-5.31-3.15c.41-.36,.99-.72,1.57-1.03,1.62-3.02,3.87-8.1,4.99-11.2h-7.15l-.41-1.26h7.42l2.56-2.56,5.04,4.59c-.31,.36-.94,.58-1.71,.72-1.17,2.74-3.42,7.65-4.91,10.75h.72l2.83-3.01,5.17,4.32Zm22.18-12.73s2.66,2.75,4,4.46c-.14,.5-.58,.72-1.21,.72h-5.13v6.08c-.04,.18-.85,.58-1.98,.85,.99,.81,3.28,2.66,4.72,4-.14,.5-.58,.72-1.26,.72h-10.03v4.68h3.91l3.19-4.09s3.69,2.74,5.89,4.63c-.14,.5-.68,.72-1.3,.72h-11.7v3.87c0,.45-2.56,1.53-4.95,1.53h-1.21v-5.4h-8.19l-.36-1.26h8.55v-4.68h-6.3l-.36-1.26h6.66v-4.59h-5.85l-.41-1.26h6.25v-4.54h-8.95l-.36-1.26h9.31v-4.45h-6.52l-.4-1.26h6.93v-5.08l7.83,.72c-.09,.67-.41,1.12-1.66,1.31v3.06h2.2l2.61-2.83,5.44,4.1c-.27,.31-.85,.72-1.71,.9v3.55h.04l2.29-3.92Zm-10.89,3.92h2.65v-4.45h-2.65v4.45Zm2.65,1.26h-2.65v4.54h2.65v-4.54Zm3.01,7.15c-.68,.18-1.4,.27-2.02,.27h-.99v-1.62h-2.65v4.59h3.28l2.39-3.24Z"/>
        <path class="cls-3" d="M309.72,93.73s2.74,2.25,4.41,3.78c-.09,.5-.58,.72-1.22,.72h-18.45l-.36-1.26h13.14l2.47-3.24Zm10.53,1.12c0,3.69-.9,9.9-8.77,13.45,.36,.31,.68,.58,.95,.85-.14,.5-.58,.72-1.22,.72h-14.89l-.36-1.26h9.76l2.39-3.1s1.3,.99,2.61,2.12c3.42-4,3.78-8.91,3.78-12.78v-5.76l6.66,2.29h2.56l2.79-3.01,4.99,4c-.27,.31-.81,.54-1.62,.67v6.43c0,.45,.14,.63,.63,.63h1.8c.27,0,.81-.04,1.08-.04,.31-.04,.81-.13,1.17-.22h.4l.23,.09c1.26,.63,1.67,1.21,1.67,2.25,0,2.16-1.89,3.37-6.3,3.37h-2.11c-3.82,0-4.23-1.12-4.23-4.59v-8.32h-3.96v2.21Zm-14.53,7.88l2.39-3.1s2.7,2.11,4.32,3.64c-.14,.5-.58,.72-1.22,.72h-14.89l-.36-1.26h9.76Zm.14,25.65v-2.56h-3.78v2.7c0,.54-2.39,1.75-4.72,1.75h-.81v-17.95l5.71,2.25h3.19l2.48-2.66,5.13,3.87c-.22,.31-.76,.63-1.57,.81v10.26c-.04,.36-2.74,1.53-4.63,1.53h-.99Zm-7.2-39.51c13.45-.45,8.37,10.08,2.7,6.39-.31-2.29-1.67-4.73-2.97-6.17l.27-.23Zm7.2,35.68v-8.73h-3.78v8.73h3.78Zm28.39-14.08c-.31,.5-.76,.68-1.84,.77-1.49,3.69-3.55,7.02-6.34,9.81,3.19,1.53,6.79,2.52,10.57,3.24l-.04,.54c-2.56,.58-4.36,2.56-5.17,5.53-3.73-1.53-6.88-3.33-9.4-5.85-4,2.79-9,4.9-15.25,6.17l-.27-.54c5.31-2.12,9.63-5.13,12.87-8.77-1.93-2.88-3.42-6.52-4.36-11.25h-1.8l-.41-1.26h12.64l3.38-3.24,5.44,4.86Zm-18.54-.36c1.3,3.55,3.37,6.21,5.98,8.28,1.75-2.52,3.06-5.31,3.96-8.28h-9.94Z"/>
        <path class="cls-3" d="M170.27,143.34c2.25,0,4.05,1.8,4.05,4.05s-1.8,4.05-4.05,4.05-4.05-1.8-4.05-4.05,1.8-4.05,4.05-4.05Z"/>
        <path class="cls-3" d="M25.28,164.28l6.93,.68c-.09,.63-.45,1.08-1.62,1.26v21.06c-.09,9.45-3.55,15.7-13.5,19.44l-.36-.45c6.03-4.41,8.37-9.85,8.55-17.86-.9,1.44-1.89,3.02-3.1,4.77,0,.63-.36,1.26-.85,1.53l-3.51-5.76c1.35-.58,4.32-2.07,7.47-3.78v-4.09c-.9,.99-2.43,1.12-3.82-.27,0-1.48-.23-3.06-.58-4.59-.23,.27-.58,.4-1.03,.4h-4.5v2.29c10.26,3.69,5.04,11.47,1.17,7.65,.14-2.07-.4-4.46-1.17-6.34v24.66c0,.54-2.47,1.89-4.68,1.89h-1.12v-17.01c-1.57,2.34-3.42,4.45-5.53,6.39l-.54-.45c2.92-5.17,4.59-12.33,5.49-19.08H4.58l-.36-1.26h5.31v-11.43l7.47,.72c-.09,.67-.45,1.12-1.67,1.3v8.64l1.71-2.7s2.2,2.07,3.64,3.64c-.36-1.35-.85-2.61-1.3-3.69l.49-.23c2.79,1.3,4.5,2.88,5.4,4.41v-11.74Zm19.66,35.59c1.3,.72,1.8,1.35,1.8,2.34,0,2.16-1.89,3.19-6.97,3.19h-2.52c-3.82,0-4.72-1.17-4.72-4.68v-36.31l7.06,.76c-.04,.58-.45,1.08-1.57,1.26v10.35c.94-2.43,1.84-4.9,2.29-6.39l6.07,4.36c-.23,.36-.85,.67-1.75,.36-1.4,1.26-4.05,3.46-6.61,5.26v1.98c11.47,4.5,6.39,13.59,1.66,9.45-.13-2.21-.85-4.54-1.66-6.66v13.9c0,.77,.18,1.08,.94,1.08h1.35c.49,0,.94,0,1.3-.04,.31,0,.68-.09,.94-.45,.5-.63,1.22-2.92,1.71-4.86h.5l.18,5.08Z"/>
        <path class="cls-3" d="M94.3,168.96c-.31,.4-.85,.76-1.8,.99v34.51c-.04,.45-3.06,1.98-5.49,1.98h-1.03v-3.69h-25.51v1.53c0,.81-2.56,2.39-5.31,2.39h-1.08v-41.76l6.93,2.74h24.52l3.01-3.33,5.76,4.63Zm-33.84,32.53h7.02l-2.43-3.92c1.48-.94,1.71-1.31,1.71-2.11v-1.44c-1.8,.76-3.73,1.39-5.76,1.89l-.36-.67c3.33-1.58,6.16-3.87,8.1-6.34h-.4c-.54,.5-2.56,1.3-4.32,1.3h-.72v-10.12l5.4,2.07h9.22l2.25-2.29,4.63,3.38c-.18,.27-.58,.54-1.21,.67v4.59c0,.14-.36,.31-.81,.5l3.19,2.83v-12.55c-.22,.14-.45,.18-.76,.18h-24.25l-.36-1.26h9.81v-3.19h-7.56l-.36-1.26h7.92v-4l6.97,.58c-.04,.5-.31,.85-1.26,1.04v2.38h2.02l2.43-2.92s2.74,1.98,4.45,3.46c-.09,.5-.54,.72-1.17,.72h-7.74v3.19h3.1l2.52-3.1s2.43,1.8,4.23,3.28v-9.45h-25.51v32.58Zm25.51,0v-9.58c-.22,.31-.68,.41-1.48,.09-.81,.31-2.02,.63-3.28,.94,7.2,3.73,4.32,8.91,.95,7.02-1.12-2.11-4.41-5.85-8.77-8.82l.31-.58c2.02,.4,3.78,.85,5.22,1.39,.72-.76,1.44-1.66,2.02-2.43-.58,.13-1.21,.23-1.71,.23h-.94v-.85h-3.46c-.85,.94-1.89,1.8-3.06,2.56v4.36c1.53-.41,3.24-.9,4.95-1.4l.14,.54c-1.57,1.21-4.95,3.69-8.5,6.07-.14,.18-.32,.31-.45,.45h18.09Zm-7.69-18.09h-9.81v4.23h9.81v-4.23Z"/>
        <path class="cls-3" d="M120.9,194.52c-.32,.36-.85,.63-1.76,.77-.45,5.76-1.35,8.86-3.46,10.21-1.35,.81-3.01,1.26-5.71,1.26,0-1.53-.14-2.88-.95-3.65-.76-.85-2.29-1.48-4.23-1.89v-.5c1.89,.13,4.9,.27,5.76,.27,.67,0,1.03-.04,1.35-.27,.63-.54,1.17-2.75,1.48-6.39h-3.96l-2.07,2.52-4.77-3.06c.45-.41,1.12-.81,1.8-1.08,.49-2.43,1.03-6.12,1.17-8.1l5.85,2.29h1.53v-6.07h-4.54c-2.34,1.03-4.9,1.84-7.69,2.47l-.22-.49c3.6-1.75,6.7-4.09,9.09-6.84-.99,.31-2.2,.23-3.42-.58-.09-1.89-1.17-3.92-2.43-4.95l.27-.23c5.58-.67,7.69,1.04,7.83,2.75,.85-1.4,1.62-2.83,2.16-4.37h-10.84l-.41-1.26h11.16l3.37-3.24,5.53,4.68c-.27,.5-.68,.63-1.71,.77-2.11,4.09-5.58,7.51-10.12,10.03h3.01l2.25-2.52,4.09,4.14c-.32,.31-.9,.63-1.62,.72v6.97c-.04,.13-2.47,.94-4.68,.94h-1.08v-1.67h-2.79c-.23,1.53-.54,3.42-.85,4.9h3.73l2.88-2.65,4.99,4.09Zm14.35-13.32v3.46c0,.45,.09,.58,.45,.58h.77c.18,0,.76,0,.99-.04,.27-.04,.76-.09,1.08-.18h.41l.27,.09c1.17,.63,1.53,1.08,1.53,1.93,0,2.16-1.89,2.66-5.58,2.66l4.5,3.78c-.27,.49-.68,.63-1.67,.72-.76,1.44-1.71,2.75-2.83,3.96,6.3,3.87,4.54,9.54,.04,8.19-1.08-1.48-2.56-3.06-4.32-4.54-3.55,2.34-8.1,3.96-13.41,4.86l-.23-.54c4.23-1.67,7.65-4.1,10.17-7.02-2.16-1.53-4.45-2.88-6.57-3.82l.32-.45c3.33,.09,6.12,.5,8.46,1.08,.5-.81,.9-1.71,1.22-2.61h-10.57l-.41-1.26h10.89l2.47-2.34c-3.42-.05-3.69-1.17-3.69-4.19v-4.68h-2.21v1.57c0,2.61-1.03,7.02-8.68,9.09l-.23-.41c2.93-2.61,3.1-6.03,3.1-8.68v-5.13l6.66,2.29h.85l1.57-1.71c-3.73-3.24-6.48-7.6-8.1-13.86l.49-.27c1.08,2.43,2.7,4.41,4.72,6.03,1.22-1.8,2.47-4.05,3.06-5.44l5.76,3.87c-.22,.45-.63,.67-1.71,.45-1.53,.77-3.6,1.62-5.67,2.25,1.62,1.12,3.38,2.07,5.26,2.83,1.03-1.62,2.11-3.69,2.61-4.99l5.8,3.91c-.27,.41-.68,.63-1.71,.45-1.26,.54-2.83,1.08-4.45,1.53,2.25,.81,4.64,1.4,6.97,1.89l-.09,.54c-2.56,.58-4.36,2.65-5.17,5.71-1.08-.5-2.11-1.04-3.1-1.58h-.05Z"/>
        <path class="cls-3" d="M188.94,194.84c-.27,.41-.72,.63-1.75,.41-1.93,.63-4.45,1.3-6.93,1.94,3.42,1.75,7.6,2.65,11.88,3.19l-.04,.54c-2.56,.72-4.27,2.83-4.99,5.98-7.51-2.88-12.19-6.88-14.44-16.42h-3.78v8.91c1.75-.4,3.64-.85,5.53-1.3l.09,.4c-1.67,1.62-5.13,4.72-9.4,7.87-.32,.32-.68,.58-.99,.77l-3.51-6.79c1.89-1.03,2.16-1.53,2.16-2.47v-7.38h-2.74c-1.21,5.98-4.14,11.88-10.93,16.2l-.36-.27c5.17-7.96,5.58-18,5.58-27v-14.71l7.56,2.52h19.66l2.74-3.02,5.8,4.32c-.27,.36-.85,.77-1.8,.99v6.52c-.05,.27-3.24,1.21-5.22,1.21h-.41c-.04,.45-.36,.81-1.26,.95v3.69h.67l2.79-3.78s3.1,2.56,4.95,4.32c-.14,.5-.58,.72-1.26,.72h-7.15v6.07h1.75l3.15-4.32s3.51,2.92,5.58,4.86c-.14,.5-.63,.72-1.26,.72h-7.56l5.89,4.36Zm-28.08-11.7c-.09,1.98-.27,4-.63,6.07h4.59v-6.07h-3.96Zm21.1-5.98v-1.67h-21.06v3.87c0,.81,0,1.66-.05,2.52h3.96v-5.53l7.33,.63c-.05,.5-.32,.85-1.22,.99v3.91h4.41v-5.31l6.61,.58Zm-21.06-8.68v5.76h21.06v-5.76h-21.06Zm14.44,14.67h-4.41v6.07h4.41v-6.07Zm-1.89,7.33c1.17,2.34,2.83,4.14,4.81,5.54,1.48-1.85,3.06-4.05,4-5.54h-8.82Z"/>
        <path class="cls-3" d="M234.39,191.33s3.51,2.56,5.67,4.36c-.14,.5-.63,.72-1.3,.72h-19.08c-1.62,4.63-5.85,8.05-22.14,10.08l-.23-.67c10.48-2.7,14.26-5.67,15.75-9.4h-15.39l-.36-1.26h16.11c.31-1.22,.45-2.56,.54-3.96l8.19,.99c-.14,.58-.58,1.08-1.67,1.12-.14,.63-.27,1.26-.4,1.85h11.2l3.1-3.83Zm-35.19-18.99l-.36-1.26h21.82c.49-2.16,1.08-4.99,1.39-6.93l8.68,1.94c-.14,.58-.63,.99-1.67,.94-1.71,1.12-4.32,2.74-6.66,4.05h8.28l2.97-3.82s3.28,2.56,5.31,4.36c-.14,.5-.63,.72-1.26,.72h-14.22v3.56h4.36l2.7-2.92,5.53,4.18c-.27,.36-.85,.77-1.8,.99v12.01c-.04,.41-2.92,1.67-4.95,1.67h-1.03v-1.53h-19.8v.72c0,.58-2.56,1.85-4.99,1.85h-.85v-19.39l6.25,2.43h2.92v-3.56h-12.64Zm7.51-7.87c12.82-1.94,9.31,8.68,3.64,5.89-.63-2.16-2.34-4.41-3.91-5.62l.27-.27Zm21.6,24.57v-5.49c-.81,.04-1.8,.09-3.01,.09h-.5c.81,.67,1.84,1.53,2.61,2.25-.09,.5-.54,.72-1.17,.72h-16.6l-.36-1.26h11.65l1.31-1.71c-3.06-.09-3.51-1.08-3.51-3.65v-2.83h-1.98c-.49,2.61-2.25,5.49-8.23,7.2v4.68h19.8Zm-19.8-11.88v6.16c2.34-1.84,3.06-4,3.24-6.16h-3.24Zm10.21-4.81h-1.84v3.56h1.84v-3.56Zm1.75,26.14c27.09,.9,16.15,11.7,10.89,7.38-1.89-1.98-5.58-4.86-11.07-6.88l.18-.5Zm3.01-21.33v2.21c0,.49,.14,.63,.81,.63h3.1c.23,0,.63-.04,.9-.04v-2.79h-4.81Z"/>
        <path class="cls-3" d="M274.53,188.04c3.73,2.21,9.81,2.74,14.35,2.61l-.04,.72c-2.34,2.12-3.51,4.54-3.69,7.33-5.04-1.94-9.58-6.17-12.42-10.66h-9.31c-3.33,5.08-9.58,8.55-17.59,10.66l-.27-.54c4.41-2.43,7.69-6.21,9.63-10.12h-9.18l-.36-1.26h10.26v-15.43h-8.28l-.36-1.26h8.64v-5.98l8.23,.67c-.09,.63-.41,1.08-1.62,1.31v4h9.09v-5.98l8.41,.67c-.09,.67-.41,1.12-1.67,1.31v4h1.22l2.92-4.1s3.33,2.79,5.26,4.63c-.14,.5-.63,.72-1.26,.72h-8.14v15.43h1.67l3.1-4.41s3.46,2.97,5.49,4.95c-.14,.5-.63,.72-1.31,.72h-12.78Zm5.13,11.61s4.14,3.06,6.66,5.13c-.14,.5-.68,.72-1.35,.72h-36.27l-.36-1.26h15.25v-6.39h-8.28l-.36-1.26h8.64v-6.39l8.32,.63c-.05,.63-.36,1.08-1.57,1.26v4.5h.49l3.01-3.96s3.42,2.65,5.44,4.5c-.14,.5-.63,.72-1.26,.72h-7.69v6.39h5.67l3.64-4.59Zm-17.14-28.3v4.27h9.09v-4.27h-9.09Zm0,9.81h9.09v-4.27h-9.09v4.27Zm9.09,5.62v-4.36h-9.09v4.36h9.09Z"/>
        <path class="cls-3" d="M330.01,164.6s4.23,3.15,6.79,5.27c-.14,.49-.67,.72-1.35,.72h-19.8c-1.53,4.5-3.96,9-7.2,13.09l2.34,.85h14.58l3.01-3.38,6.16,4.77c-.36,.41-.99,.85-2.02,1.08v17.91c-.09,.36-3.33,1.58-5.58,1.58h-1.08v-4.23h-15.7v2.61c0,.45-1.98,1.85-5.31,1.85h-1.21v-17.82c-2.83,2.65-6.07,4.99-9.67,6.84l-.31-.36c7.02-6.61,12.24-16.47,13.81-24.79h-12.46l-.36-1.26h31.63l3.73-4.73Zm-19.84,21.19v15.21h15.7v-15.21h-15.7Z"/>
      </g>
    </g>
  </g>
</svg>