<?xml version="1.0" encoding="utf-8"?>
<!-- Generator: Adobe Illustrator 27.0.0, SVG Export Plug-In . SVG Version: 6.00 Build 0)  -->
<svg version="1.1" id="圖層_1" xmlns="http://www.w3.org/2000/svg" xmlns:xlink="http://www.w3.org/1999/xlink" x="0px" y="0px"
	 viewBox="0 0 1759 107.8" style="enable-background:new 0 0 1759 107.8;" xml:space="preserve">
<style type="text/css">
	.st0{fill:#FFFFFF;}
	.st1{fill:#FFF100;}
</style>
<g>
	<g id="_圖層_2">
		<g id="_圖層_1-2">
			<g>
				<g>
					<path class="st0" d="M80,38.9c0,0,6.2,4.7,10,7.9c-0.2,0.9-1.1,1.3-2.3,1.3H69l9.8,7.5c-0.5,0.6-1.4,1.3-3.1,1.7V80
						c0,6.6-1.9,10.3-14.3,11.2c-0.2-3.2-0.7-5.5-2.1-7c-1.4-1.3-3-2.5-7.6-3.3V80c0,0,8.9,0.6,11,0.6c1.2,0,1.6-0.6,1.6-1.6v-5.3
						H40.6c-2,6.7-6.8,13.5-18.5,18.1l-0.5-0.6c8-8.1,8.8-18.7,8.8-27.5V48.8l13.2,4.4h20l4.7-5.2H16.1l-0.6-2.2h31.1v-7.8H25.8
						l-0.6-2.2h21.4v-7.3H21l-0.6-2.2h26.1V16.2l14.3,1.1c-0.2,1.1-0.6,1.9-2.8,2.3v6.7h12.9l5.5-6.9c0,0,6.1,4.7,9.8,7.8
						c-0.2,0.9-1.1,1.3-2.3,1.3H58v7.3h8.4l5.2-6.5c0,0,5.9,4.4,9.4,7.4c-0.2,0.9-1.1,1.3-2.2,1.3H58v7.8h16.5L80,38.9L80,38.9z
						 M64.3,71.6v-6.9H41.9c-0.1,2.1-0.2,4.5-0.7,6.9H64.3z M41.9,55.5v7h22.4v-7H41.9z"/>
					<path class="st0" d="M159.3,35.8l10.6,8.2c-0.6,0.7-1.7,1.5-3.6,1.9v33.4c0,7.3-1.4,11.2-12,12c-0.1-3.6-0.2-6.2-0.9-7.8
						c-0.6-1.6-1.5-2.8-4-3.3v-1c0,0,3.4,0.2,4.5,0.2c0.9,0,1.2-0.6,1.2-1.3v-7.4h-6.3v16c0,1-4.8,3.7-8.7,3.7h-2.2V70.7h-5.8v17.7
						c0,0.7-3.3,3.2-8.9,3.2h-2.1V61.8c-4.6,3.8-11.6,9.2-21.3,15.5c-0.4,1.1-1.3,2.1-2.3,2.4l-4.7-12.9c2-0.4,5.3-1.1,9.4-2.1V41.1
						h-7.1l-0.6-2.2h7.7V17.8l14,1.2c-0.2,1.1-0.7,1.9-2.9,2.3v17.5l4.2-7.6c0,0,3.1,3.4,5.6,6.5l10,4h4.7v-9.5h-18.1l-0.6-2.2h18.8
						V17.1l13.1,1.3c-0.1,0.9-0.6,1.5-2.2,1.8v9.7h6.4l1.5-2c-0.5-0.2-1-0.5-1.5-0.9c-0.1-3.1-1.7-6.5-3.6-8.3l0.6-0.5
						c10.8-0.3,13,4.2,11.5,7.3c2.1,1.6,4.7,3.6,6.6,5.3c-0.2,0.9-1.1,1.3-2.2,1.3h-19.2v9.5h5.5L159.3,35.8L159.3,35.8z M113.4,62
						c2.5-0.6,5.2-1.3,7.8-2.1V41.1h-7.8C113.4,41.1,113.4,62,113.4,62z M132.1,43.8v11.1h5.8V43.8H132.1z M137.9,68.5V57.1h-5.8
						v11.3H137.9z M148.8,43.8v11.1h6.3V43.8H148.8z M155.1,68.5V57.1h-6.3v11.3H155.1z"/>
					<path class="st0" d="M181.7,68.5c3.6,8.5,3.6,14.9,1,18.2c-1.9,2.4-6.8,2.1-8.4-1.3c-1.4-2.9,0-5.7,2.6-7.4
						c1.7-1.7,4.3-6,3.7-9.5H181.7z M240,78.6c0,0,6.1,5,9.7,8.3c-0.2,0.9-1,1.3-2.2,1.3h-45.8l-0.6-2.2h17.5V66.9h-12.4l-0.6-2.2
						h27.6l4.4-5.9c-0.7-4.6-3.9-11.5-8.3-15.2c1.4-3,3.2-7.5,4.5-11.2c-0.5,0.4-1.2,0.5-2.1,0.4c-2.5,2.3-9.1,7.7-13.5,10.9
						c23.4,6.4,13.4,21.8,5.5,16.2c-0.3-4.6-2.9-11.9-7.2-15.9c1.4-3.2,3.1-8.1,4.3-11.8c-0.4,0.2-0.9,0.3-1.7,0.2
						c-2.5,2.3-8.6,7.9-12.8,11.2c21.9,7.2,11.6,22,4.3,16.2c-0.2-4.4-2.1-11.6-6-16.1c0.5-1.2,0.9-2.6,1.5-4.1
						c-0.6,0.2-1.3,0.3-2.1,0.1c-4.5,5.5-13.4,13.2-21.4,18.3c4-0.2,8.9-0.5,13.9-0.9c-0.6-2.4-1.6-4.7-2.5-6.6l0.8-0.4
						c18.4,6.6,9.7,20.3,2.8,13.8c0-1.3-0.2-2.8-0.5-4.1c-4.3,2.1-10.2,4.9-16.9,7.6c-0.6,0.8-1.4,1.4-2.2,1.7L174,58.2
						c0,0,2.1-0.5,3.1-1.1c3.5-2.4,7.8-7.5,11.5-13c-2.4,1.1-5.1,2.4-7.9,3.6c-0.6,1-1.3,1.6-2.1,1.9L174,38.7c0,0,1.8-0.5,2.6-1
						c3.6-3.5,8.6-15,9.8-21.1l12.4,6.3c-0.3,0.7-1.3,1.2-2.7,1.1c-3.6,4.8-9.9,11.1-15.4,15.1c3.2,0,7.1,0,11.1-0.1
						c1.7-2.8,3-5.5,3.8-7.7l10.6,7.3c1.4-4.3,2.8-8.9,3.2-11.1l11.6,3.4c0.4-1.3,0.7-2.4,0.9-3.2l12.1,3.7c0.6-1.6,0.9-2.9,1.2-3.8
						l12.4,4c-0.3,0.8-1.2,1.3-2.7,1.1c-2.5,2.1-9.5,7.4-13.9,10.5c21.2,5,16.6,17.7,9.6,17c1.8,1.6,4.3,3.7,6.1,5.4
						c-0.2,0.9-1,1.3-2.1,1.3h-14.3V86h4.3L240,78.6L240,78.6z M187.8,67.6c15.8,10.1,5.2,23-0.9,15.1c1-5,0.7-10.6-0.1-14.9
						L187.8,67.6z M195.7,66.4c18.6,5.9,10,20,3,13.6c0.1-4.5-1.7-9.7-3.8-13.2L195.7,66.4L195.7,66.4z M204.3,25.8l-0.6-2.2h29.8
						l5.1-6.5c0,0,5.9,4.4,9.4,7.4c-0.2,0.9-1.1,1.3-2.2,1.3L204.3,25.8L204.3,25.8z"/>
					<path class="st0" d="M327,24.2c-0.5,0.6-1.4,1.1-2.9,1.4c-0.4,11.7-1.4,16.1-4.7,18.3c-1.4,0.9-2.9,1.5-4.8,1.8l5.9,4.5
						c-0.5,0.5-1.4,1.2-2.8,1.5v24.6c-0.1,0.6-5.8,2.6-9.5,2.6h-2V76H281l11.6,8.1c-0.8,0.9-2.5,1.3-5.1,0.6
						c-7.8,3.8-20.8,6.5-32.9,7.2l-0.2-0.9c10.2-3.3,21.3-9.7,26.6-14.9h-3.1v1.1c0,1-5,3.6-9.6,3.6h-1.7V45.6
						c-1,0.5-2.1,1.1-3.1,1.7c-0.8,1.3-1.8,2.1-2.8,2.5l-4.7-10c3.2-1.6,3.6-2.5,3.6-4V19.4l10.2,3.2c4.3-2.1,8.6-4.8,10.9-6.6
						l8.8,8c-0.5,0.6-1.7,0.6-2.9,0.1c-3.6,0.7-10.3,1.5-16.6,1.7v11.8c2.6-0.5,5.4-1,8.2-1.6c-1.2-2.6-2.9-5.1-4.7-7l0.6-0.5
						c22.5,2.5,14.5,20,5.8,13.5c-0.2-1.3-0.4-2.6-0.9-3.9c-2.7,1.7-6.1,3.8-10.1,6l9.5,3.6h27.1l5-5.3l0.1,0.1
						c-0.2-1.3-0.5-2.4-1-3.2c-1-1.3-2.1-2.1-4.5-2.8l0.1-1c1.5,0.2,4.3,0.2,5.5,0.2c1,0,1.5-0.1,1.8-0.5c0.9-0.8,1.4-4.2,1.6-11.6
						h-6.1c-1.2,9.5-5.1,18.1-23.1,23.8l-0.8-1c11.2-7,12.4-14.7,12.7-22.7h-6.5l-0.7-2.2h23.8l5-4.6L327,24.2L327,24.2z
						 M277.7,50.1v6.6h28.5v-6.6H277.7z M277.7,58.9v6.3h28.5v-6.3C306.2,58.9,277.7,58.9,277.7,58.9z M306.2,73.8v-6.4h-28.5v6.4
						H306.2z M293.1,79c48.5-0.6,29.1,18.1,19.5,11c-3.4-3.1-10-7.4-19.7-10.1L293.1,79z"/>
					<path class="st0" d="M365.1,51.1c-2.4,2.1-5.4,4.5-9.4,7.4v29.3c0,1.1-4.6,3.7-8.5,3.7h-2.1V65.8c-1.4,0.9-2.7,1.7-4.1,2.7
						c-0.3,1-1.1,1.9-2.1,2.2l-7-11.9c2.8-0.5,7.5-1.7,13.2-3.2V39.3h-3.7c-2,6.5-4.6,12.4-7.9,17l-1.2-0.5c1.5-8.6,2.2-20.7,2.1-31
						l10.8,1.7v-9.8l13.5,1.4c-0.2,1.1-0.7,1.9-2.9,2.2v14l2.6-4.5c0,0,5,5.1,7.4,8.3c-0.2,0.9-1,1.3-2.1,1.3h-8V53
						c3-0.9,6.1-1.7,9.2-2.5L365.1,51.1L365.1,51.1z M345.1,37.1v-8.5c-0.3,0.1-0.7,0.2-1.2,0.2c-0.5,2.9-1.2,5.6-1.9,8.3
						L345.1,37.1L345.1,37.1z M398.5,51.3c0,0,5.8,4.7,9.2,7.8c-0.2,0.9-1,1.3-2.1,1.3h-12.1v19.3c0,7.3-1.9,11.1-14.6,12.1
						c-0.3-3.3-0.8-5.6-2.5-7.2c-1.7-1.6-3.6-2.7-8.6-3.6v-0.9c0,0,10.9,0.6,12.9,0.6c1.3,0,1.7-0.4,1.7-1.4V60.4h-22.5l-0.6-2.2
						h23.1V48.1l13.9,1.2c-0.2,1.2-1,1.8-2.7,2.1v6.7L398.5,51.3L398.5,51.3z M361.1,30.9h14.9V16.4l13.6,1.1
						c-0.1,1-0.6,1.7-2.5,2.1v11.4h4.2l5.5-7.2c0,0,6.3,4.8,10,8.2c-0.2,0.9-1.1,1.3-2.3,1.3H387v12.1h2.8l5.2-6.9
						c0,0,5.9,4.7,9.5,7.8c-0.2,0.9-1,1.3-2.2,1.3h-38l-0.6-2.2h12.3V33.1h-14.2L361.1,30.9L361.1,30.9z M363.6,61.3
						c24.4,3.9,15.8,22.1,6.2,15.3c-1-5.2-4.1-10.8-6.8-14.9L363.6,61.3L363.6,61.3z"/>
					<path class="st0" d="M478.3,79.2c5.3,0.9,6.6,2.5,6.6,4.3c0,5.1-5.5,6-32.6,6h-16.5c-13.9,0-20.4-1.3-20.4-11.2V24.6h-2.6
						l-0.6-2.2h55.4l5.3-7.1c0,0,5.9,4.8,9.5,8.1c-0.2,0.9-1.1,1.3-2.2,1.3h-54.2v52.1c0,3.6,2.4,4.5,8.7,4.5H453
						c5.5,0,10.9-0.2,13.3-0.3c1.6-0.1,3.9-0.4,5.3-0.6c1.4-0.2,3.3-0.6,5.4-1.3h0.8L478.3,79.2L478.3,79.2z M442.5,77.7v-4h-4V77
						c0,0.8-4,2.8-7.8,2.8h-1.3V52.3l9.4,3.7h3.1l4.1-4.3l8.4,6.3c-0.4,0.5-1.3,1.1-2.5,1.3v16.2c-0.1,0.6-4.7,2.2-7.7,2.2
						L442.5,77.7L442.5,77.7z M460,46.8h-13.1v2.1c0,1-4.8,3.2-9.2,3.2h-1.5V26.6l11.1,4.2h12l4.8-5.1l9.7,7.3
						c-0.5,0.5-1.4,1.2-2.9,1.5v13.6c-0.1,0.5-5.5,2.4-9,2.4H460L460,46.8L460,46.8z M442.5,71.6V58.3h-4v13.3H442.5z M460,44.6
						V33.1h-13.1v11.5H460z M469,77.4v-3.6h-4.4v1.9c0,0.9-4.1,2.8-7.9,2.8h-1.4V52.3l9.6,3.7h3.3l4.2-4.4l8.5,6.4
						c-0.4,0.5-1.3,1-2.5,1.3v15.8c-0.1,0.6-4.8,2.3-7.8,2.3L469,77.4L469,77.4z M469,71.6V58.3h-4.4v13.3H469z"/>
					<path class="st0" d="M511.3,58.6h23.1v5.8h-23L511.3,58.6L511.3,58.6z"/>
					<path class="st1" d="M634.5,24.6c-0.5,0.7-1.6,1.4-3.2,1.7v61.6c-0.2,0.8-5.1,3.3-9.1,3.3h-1.7V85h-47.1v2.7c0,1.3-4.3,4-8.8,4
						h-1.7V17.9l11.4,4.5h45.5l5-5.5L634.5,24.6L634.5,24.6z M620.6,82.8V46.2c-0.5,0.5-1.5,0.7-2.8,0.5c-2.3,6.4-5.2,11.8-8.5,16.3
						c0.9,1.7,1.9,3.3,3.1,4.7c0.8,1,1.2,0.9,1.8-0.2c1-1.7,2.5-5.2,3.6-8l0.8,0.2l-1.3,11.1c2.2,4.2,2.6,6.5,1.3,7.8
						c-3.4,3.3-9,0.3-11.5-2.5c-1.7-2-3.1-4-4.4-6.3c-5.2,4.7-11.4,8.1-18.5,10.5l-0.7-0.9c6.2-3.9,11.9-9.2,16.4-15.8
						c-2-5.4-3.2-11.2-3.8-17.5c-0.4,0.2-0.8,0.3-1.3,0.4v11.5c0,0.6-3.6,2.4-6.3,2.4h-1.3v-2.3h-3.1v1.4c0,0.5-3.2,2.2-6.3,2.2h-1
						V40.8l7.6,3.1h2.2l3.3-3.4l5.9,4.4c-0.2-2.1-0.4-4.2-0.5-6.3h-20l-0.6-2.2h20.6c-0.2-3.4-0.2-6.8-0.2-10.4l12,2
						c-0.2,1-1,1.8-2.8,2v6.4h4l2.5-3.2c-0.7-2.6-2.4-5.3-3.8-6.9l0.7-0.5c11.8,0.2,12,6.6,8.5,8.6c1.2,1,2.4,2,3.3,2.9
						c-0.2,0.9-1,1.3-2.1,1.3h-13c0.2,5,0.5,9.8,1.4,14.2c1.6-3.7,2.8-7.8,3.7-12.2l11,4.7V24.6h-47.1v58.2H620.6L620.6,82.8z
						 M596.7,63.1c-3,2.5-7.8,6.2-14.9,10.8c-0.4,1.1-1.2,1.8-2.1,2.1l-5-10.8c3.9-0.3,13-1.5,21.9-2.8L596.7,63.1z M587.3,46.1
						h-3.1v10h3.1V46.1z"/>
					<path class="st1" d="M709,50.6c-0.5,0.6-1.3,1-3.1,0.5c-5,1.8-11.6,3.6-18.6,5.2c5.3,10.7,15.9,16.1,26.5,19.4l-0.2,0.9
						c-4.3,0.9-7.4,4.4-9,9.7c-9.7-6.7-15.8-14.9-19-29.6c-1.7,0.3-3.5,0.7-5.2,1c6.7,11.2,6.2,24.7,2.1,30.1
						c-2.2,2.8-6.8,3.8-13.1,3.8c-0.1-3.2-0.7-5.5-2-7.1c-1-1.3-3.4-2.4-6.7-3.4v-0.8c3.3,0.3,8.3,0.6,10.2,0.6c1.1,0,2-0.2,2.4-0.9
						c0.6-1.3,1.2-3.5,1.3-6.2c-9.4,5.3-21.8,9.8-34.2,11.9l-0.5-1c13.2-4.8,26.5-14.3,33.8-24.2l-0.1-0.5c-8.2,5-20,9.8-31,12.5
						l-0.4-0.9c9.7-4.8,20.2-13.8,26.3-21.7c-7.4,4-16.3,7.2-25.4,9.4l-0.5-0.9c9.1-4.4,17.4-11.4,22.9-17.5h-13.5l-0.6-2.2h36.4
						l5.5-7c0,0,3.1,2.4,6.3,4.9c0.2-2.1,0.2-4.8,0.2-7h-47.4c0.7,5.9-1.3,10-4.2,11.8c-2.8,1.7-7,0.8-8.2-2.7c-1-3.3,1-5.9,3.7-7.1
						c2.6-1.4,5.9-5.1,5.8-9h1c0.7,1.7,1.2,3.3,1.6,4.8h21.2c-0.3-0.2-0.5-0.3-0.9-0.5c-0.3-3.8-2.5-7.7-5.2-9.8l0.5-0.4
						c17.4-2.1,17.4,7.7,12.2,10.7h19l5.4-5.5l9.4,8.9c-0.6,0.7-1.4,1-3.1,1c-2.4,2-6.3,4.4-9.7,6c0.9,0.6,1.6,1.3,2.3,1.9
						c-0.2,0.9-1.1,1.3-2.2,1.3h-20c-2.5,2.5-5.6,4.9-9.1,7c2.8,2.2,5.2,4.8,7,7.5c7-4.4,14.7-10.6,18.8-14.6L709,50.6L709,50.6z"/>
					<path class="st1" d="M725,68.5c3.8,8.8,3.8,15.5,1.3,19.2c-1.8,2.6-6.7,2.5-8.5-0.7c-1.4-2.8-0.2-5.6,2.3-7.4
						c1.7-2.1,4.4-7,3.8-11.2H725L725,68.5z M718.5,58.2c0,0,2.1-0.5,3.1-1.1c3.5-2.4,7.8-7.5,11.5-13c-2.4,1.1-5.1,2.4-7.9,3.6
						c-0.5,1-1.3,1.6-2.1,1.9l-4.6-10.8c0,0,1.8-0.5,2.6-1c3.6-3.5,8.5-15,9.8-21.1l12.4,6.3c-0.3,0.7-1.3,1.2-2.7,1.1
						c-3.6,4.8-9.9,11.1-15.4,15.1c3.2,0,7,0,11.1-0.1c1.7-2.8,3-5.5,3.8-7.7l11.1,7.6c-0.4,0.7-1.4,1.2-3,0.8
						c-4.5,5.5-13.4,13.2-21.4,18.3c4-0.2,8.9-0.5,13.9-0.9c-0.6-2.4-1.6-4.7-2.5-6.6l0.8-0.4c18.4,6.6,9.7,20.3,2.8,13.8
						c0-1.3-0.2-2.8-0.5-4.1c-4.3,2.1-10.2,4.9-17,7.6c-0.6,0.8-1.4,1.4-2.2,1.7L718.5,58.2L718.5,58.2z M731.2,67.6
						c16.2,9.8,5.9,23-0.3,15.3c0.8-5,0.3-10.7-0.6-15L731.2,67.6L731.2,67.6z M793,47.2c-0.5,0.9-1.3,1.2-3.2,1.4
						c-2.2,8.6-5.6,16.7-10.9,23.6c4.6,4,9.8,6.9,15.4,9.3l-0.2,0.9c-4.6,0.6-8.3,3.9-10.2,9.1c-4.6-3.6-8.4-7.6-11.4-12.4
						c-5.9,5.2-13.5,9.5-23.2,12.4l-0.5-0.9c8.8-4.7,15.4-11,20.2-18.4c-2.8-6.7-4.7-14.9-5.8-25.6h-0.4
						c-1.2,17.5-5.1,32.9-18.5,44.8l-1-1.1c2.1-3.8,3.7-7.7,5-11.6c-1.6,1.2-4,1.3-6.3-0.6c0-3.9-1.7-8.5-3.7-11.4l0.8-0.4
						c6.7,1.7,9.8,4.5,10.6,7.2c3.7-14.9,3.2-31.3,3.2-48.5h-4.5l-0.7-2.2h24.1l4-4.8l9.9,7.2c-0.6,0.8-1.3,1-2.9,1.3l-1.9,15.2
						l2.8-2.8L793,47.2L793,47.2z M763.4,25.1c-0.1,6.7-0.2,13.2-0.5,19.5h7.3l2.1-19.5C772.3,25.1,763.4,25.1,763.4,25.1z
						 M764.4,46.8c1.7,7.8,4.5,14,8.3,18.9c2.8-5.9,4.8-12.3,6-18.9H764.4L764.4,46.8z"/>
					<path class="st1" d="M860.5,77.9c0,0,7.4,5.5,11.7,9.3c-0.2,0.9-1.2,1.3-2.4,1.3h-72l-0.6-2.2h31.2V77h-24.2l-0.6-2.2h24.9
						v-8.4h-10v1.7c0,1-5.2,3.6-9.8,3.6H807V38.5l12.1,4.6h9.3v-7h-29.1l-0.6-2.2h29.7V28c-8.5,0.3-17.3,0.4-25.3,0.2l-0.1-1.2
						c17.3-2.1,39.4-6.7,50.8-10.8l9.4,9.7c-1,0.8-2.8,0.8-5.5-0.3c-5.1,0.7-11.1,1.3-17.6,1.7v6.6h13.9l5.9-7c0,0,6.6,4.7,10.7,8
						c-0.2,0.9-1.2,1.3-2.3,1.3h-28.2v7h9.7l5.1-5.5l10.5,7.9c-0.5,0.6-1.4,1.3-3.1,1.7v19.6c-0.1,0.4-1.9,1.3-4.2,2.1
						c2.1,1.5,6.3,4.5,9.1,6.9c-0.2,0.9-1.1,1.3-2.3,1.3h-24.8v9.2h13.9L860.5,77.9L860.5,77.9z M818.5,45.3v8.2h10v-8.2H818.5z
						 M828.5,64.2v-8.5h-10v8.5H828.5z M840.2,45.3v8.2h10.5v-8.2H840.2z M850.7,55.7h-10.5v8.5h10.5
						C850.7,64.2,850.7,55.7,850.7,55.7z M840.2,74.8h11l4.3-5.3c-1,0.2-1.9,0.3-2.8,0.3h-2v-3.4h-10.5L840.2,74.8L840.2,74.8z"/>
					<path class="st1" d="M918.1,42.9c2.7,14.5,12.3,28.4,33.7,36.3l-0.1,0.9c-5.9,1.2-9.3,5-10.2,11.6
						c-16.6-10.7-22.3-30.1-24.4-45.9c-2.5,19.1-10.7,35.1-40.3,45.9l-0.6-1c21.5-13.9,27.3-29.6,28.9-47.8h-27.6l-0.6-2.2h28.3
						c0.5-7.5,0.4-15.4,0.4-23.8l15.8,1.4c-0.2,1.3-1,2-2.9,2.3c-0.2,7-0.2,13.7-0.8,20.1H933l6.6-8.3c0,0,7.4,5.5,11.8,9.3
						c-0.2,0.9-1.2,1.3-2.4,1.3L918.1,42.9L918.1,42.9z"/>
					<path class="st1" d="M985.9,51c-0.5,0.9-1.2,1.2-2.9,1.4c-1.1,7.7-3,15.1-6.8,21.6c8.7,4,20.4,4.8,36.4,4.8
						c3.9,0,13.2,0,18-0.1v0.9c-4.3,0.9-6.3,5.1-6.6,9.5h-12.2c-18.5,0-31.1-1.8-39.8-9.1c-4,4.6-9.3,8.6-16.4,11.6l-0.5-0.9
						c5.6-4.2,9.5-9.6,12.2-15.7c-3.8-5-6.7-11.6-8.8-20.4l0.7-0.3c2.5,6.8,5.9,11.7,10.1,15.3c1.8-5.9,2.8-12.2,3.3-18.7H970
						l-3.1,3.3l-9.3-5.5c0.7-0.6,1.7-1.3,2.8-1.8c2.8-5.3,6.8-14.2,8.8-19.7h-12.6l-0.7-2.2h13.1l4.5-4.5l8.9,8.1
						c-0.5,0.6-1.7,1-3,1.3c-2.1,4.8-6,13.5-8.6,18.9h1.3l5-5.3L985.9,51L985.9,51z M1025,28.6c0,0,4.7,4.8,7.1,7.8
						c-0.2,0.9-1,1.3-2.1,1.3h-9v10.7c-0.1,0.3-1.5,1-3.5,1.5c1.7,1.4,5.8,4.7,8.3,7c-0.2,0.9-1,1.3-2.2,1.3h-17.7v8.2h6.9l5.6-7.2
						c0,0,6.5,4.8,10.4,8.2c-0.2,0.9-1.2,1.3-2.3,1.3h-20.6v6.8c0,0.8-4.5,2.7-8.7,2.7h-2.1v-9.5h-14.4l-0.6-2.2h15v-8.2h-11.1
						l-0.6-2.2h11.7v-8.1h-10.3l-0.7-2.2h11v-8h-15.8l-0.6-2.2H995v-7.8h-11.5l-0.7-2.2H995v-8.9l13.8,1.3c-0.2,1.2-0.7,2-2.9,2.3
						v5.4h3.9l4.6-5l9.6,7.2c-0.5,0.5-1.5,1.3-3,1.6v6.3h0.1L1025,28.6L1025,28.6z M1005.8,35.5h4.7v-7.8h-4.7V35.5z M1010.5,37.7
						h-4.7v8h4.7V37.7z M1015.8,50.3c-1.2,0.3-2.5,0.5-3.6,0.5h-1.7V48h-4.7V56h5.8L1015.8,50.3L1015.8,50.3z"/>
					<path class="st1" d="M1062.3,26.5c0,0,4.8,4,7.8,6.6c-0.2,0.9-1,1.3-2.1,1.3h-32.5l-0.6-2.2h23.1
						C1058,32.2,1062.3,26.5,1062.3,26.5z M1080.9,28.5c0,6.5-1.6,17.4-15.4,23.7c0.6,0.5,1.2,1,1.7,1.5c-0.2,0.9-1,1.3-2.1,1.3
						h-26.2l-0.6-2.2h17.2l4.2-5.5c0,0,2.3,1.7,4.6,3.7c6-7,6.7-15.7,6.7-22.5V18.3l11.7,4h4.5l4.9-5.3l8.8,7.1
						c-0.5,0.5-1.4,1-2.8,1.2v11.3c0,0.8,0.2,1.1,1.1,1.1h3.2c0.5,0,1.4-0.1,1.9-0.1c0.6-0.1,1.4-0.2,2.1-0.4h0.7l0.4,0.2
						c2.2,1.1,2.9,2.1,2.9,4c0,3.8-3.3,5.9-11.1,5.9h-3.7c-6.7,0-7.4-2-7.4-8.1V24.6h-7L1080.9,28.5L1080.9,28.5z M1055.3,42.3
						l4.2-5.5c0,0,4.8,3.7,7.6,6.4c-0.2,0.9-1,1.3-2.1,1.3h-26.2l-0.6-2.2H1055.3L1055.3,42.3z M1055.5,87.5V83h-6.7v4.8
						c0,0.9-4.2,3.1-8.3,3.1h-1.4V59.2l10.1,4h5.6l4.4-4.7l9,6.8c-0.4,0.6-1.3,1.1-2.8,1.4v18.1c-0.1,0.6-4.8,2.7-8.2,2.7
						L1055.5,87.5L1055.5,87.5z M1042.9,17.9c23.7-0.8,14.7,17.7,4.8,11.2c-0.6-4-2.9-8.3-5.2-10.9L1042.9,17.9z M1055.5,80.7V65.4
						h-6.7v15.4H1055.5z M1105.5,56c-0.6,0.9-1.3,1.2-3.2,1.3c-2.6,6.5-6.3,12.3-11.2,17.3c5.6,2.7,12,4.4,18.6,5.7l-0.1,0.9
						c-4.5,1-7.7,4.5-9.1,9.7c-6.6-2.7-12.1-5.9-16.6-10.3c-7.1,4.9-15.8,8.6-26.8,10.8l-0.5-0.9c9.3-3.7,16.9-9,22.7-15.4
						c-3.4-5.1-6-11.5-7.7-19.8h-3.2l-0.7-2.2h22.2l5.9-5.7L1105.5,56L1105.5,56z M1072.9,55.3c2.3,6.3,5.9,10.9,10.5,14.6
						c3.1-4.4,5.4-9.3,7-14.6C1090.4,55.3,1072.9,55.3,1072.9,55.3z"/>
					<path class="st1" d="M1151.5,46.9c4,0,7.1,3.2,7.1,7.1s-3.2,7.1-7.1,7.1s-7.1-3.2-7.1-7.1S1147.6,46.9,1151.5,46.9z"/>
					<path class="st1" d="M1231,16.9l12.2,1.2c-0.2,1.1-0.8,1.9-2.8,2.2v37.1c-0.2,16.6-6.3,27.6-23.8,34.2l-0.6-0.8
						c10.6-7.8,14.7-17.3,15.1-31.4c-1.6,2.5-3.3,5.3-5.5,8.4c0,1.1-0.6,2.2-1.5,2.7l-6.2-10.1c2.4-1,7.6-3.6,13.2-6.7v-7.2
						c-1.6,1.7-4.3,2-6.7-0.5c0-2.6-0.4-5.4-1-8.1c-0.4,0.5-1,0.7-1.8,0.7h-7.9v4c18.1,6.5,8.9,20.2,2.1,13.5
						c0.2-3.6-0.7-7.8-2.1-11.2v43.4c0,0.9-4.4,3.3-8.2,3.3h-2V61.7c-2.8,4.1-6,7.8-9.7,11.2l-0.9-0.8c5.2-9.1,8.1-21.7,9.7-33.6
						h-7.7l-0.6-2.2h9.3V16.3l13.2,1.3c-0.2,1.2-0.8,2-2.9,2.3V35l3-4.8c0,0,3.9,3.6,6.4,6.4c-0.6-2.4-1.5-4.6-2.3-6.5l0.9-0.4
						c4.9,2.3,7.9,5.1,9.5,7.8L1231,16.9L1231,16.9z M1265.6,79.5c2.3,1.3,3.2,2.4,3.2,4.1c0,3.8-3.3,5.6-12.3,5.6h-4.4
						c-6.7,0-8.3-2.1-8.3-8.2V17.1l12.4,1.4c-0.1,1-0.8,1.9-2.8,2.2v18.2c1.7-4.3,3.2-8.6,4-11.2l10.7,7.7c-0.4,0.6-1.5,1.2-3.1,0.6
						c-2.4,2.2-7.1,6.1-11.6,9.3v3.5c20.2,7.9,11.2,23.9,2.9,16.6c-0.2-3.9-1.5-8-2.9-11.7v24.5c0,1.3,0.3,1.9,1.7,1.9h2.4
						c0.9,0,1.7,0,2.3-0.1c0.6,0,1.2-0.2,1.7-0.8c0.9-1.1,2.1-5.2,3-8.6h0.9L1265.6,79.5L1265.6,79.5z"/>
					<path class="st1" d="M1346.5,25.1c-0.6,0.7-1.5,1.4-3.2,1.7v60.7c-0.1,0.8-5.4,3.5-9.7,3.5h-1.8v-6.5H1287v2.7
						c0,1.4-4.5,4.2-9.3,4.2h-1.9V18l12.2,4.8h43.2l5.3-5.9L1346.5,25.1L1346.5,25.1z M1287,82.4h12.3l-4.3-6.9c2.6-1.7,3-2.3,3-3.7
						v-2.5c-3.2,1.3-6.6,2.5-10.1,3.3l-0.6-1.2c5.9-2.8,10.8-6.8,14.2-11.2h-0.7c-0.9,0.9-4.5,2.3-7.6,2.3h-1.3V44.7l9.5,3.6h16.2
						l4-4l8.2,5.9c-0.3,0.5-1,1-2.1,1.2v8.1c0,0.2-0.6,0.5-1.4,0.9l5.6,5V43.3c-0.4,0.2-0.8,0.3-1.3,0.3h-42.7l-0.6-2.2h17.3v-5.6
						h-13.3l-0.6-2.2h13.9v-7l12.3,1c-0.1,0.9-0.6,1.5-2.2,1.8v4.2h3.6l4.3-5.1c0,0,4.8,3.5,7.8,6.1c-0.2,0.9-0.9,1.3-2.1,1.3h-13.6
						v5.6h5.5l4.4-5.5c0,0,4.3,3.2,7.4,5.8V25.1h-44.9L1287,82.4L1287,82.4z M1331.9,82.4V65.5c-0.4,0.6-1.2,0.7-2.6,0.2
						c-1.4,0.6-3.6,1.1-5.8,1.7c12.7,6.6,7.6,15.7,1.7,12.3c-2-3.7-7.8-10.3-15.4-15.5l0.6-1c3.6,0.7,6.7,1.5,9.2,2.4
						c1.3-1.3,2.5-2.9,3.6-4.3c-1,0.2-2.1,0.4-3,0.4h-1.7v-1.5h-6.1c-1.5,1.7-3.3,3.2-5.4,4.5v7.7c2.7-0.7,5.7-1.6,8.7-2.5l0.2,0.9
						c-2.8,2.1-8.7,6.5-15,10.7c-0.2,0.3-0.6,0.6-0.8,0.8L1331.9,82.4L1331.9,82.4z M1318.3,50.6h-17.3V58h17.3V50.6z"/>
					<path class="st1" d="M1387.4,70.1c-0.6,0.6-1.5,1.1-3.1,1.3c-0.8,10.1-2.4,15.6-6.1,18c-2.4,1.4-5.3,2.2-10.1,2.2
						c0-2.7-0.2-5.1-1.7-6.4c-1.3-1.5-4-2.6-7.4-3.3v-0.9c3.3,0.2,8.6,0.5,10.1,0.5c1.2,0,1.8-0.1,2.4-0.5c1.1-0.9,2.1-4.8,2.6-11.2
						h-7l-3.6,4.4l-8.4-5.4c0.8-0.7,2-1.4,3.2-1.9c0.9-4.3,1.8-10.8,2.1-14.2l10.3,4h2.7V46.1h-8c-4.1,1.8-8.6,3.2-13.5,4.4
						l-0.4-0.9c6.3-3.1,11.8-7.2,16-12c-1.7,0.5-3.9,0.4-6-1c-0.2-3.3-2.1-6.9-4.3-8.7l0.5-0.4c9.8-1.2,13.5,1.8,13.8,4.8
						c1.5-2.5,2.8-5,3.8-7.7h-19.1l-0.7-2.2h19.6l5.9-5.7l9.7,8.2c-0.5,0.9-1.2,1.1-3,1.4c-3.7,7.2-9.8,13.2-17.8,17.7h5.3l4-4.4
						l7.2,7.3c-0.6,0.5-1.6,1.1-2.8,1.3v12.3c-0.1,0.2-4.4,1.7-8.2,1.7h-1.9V59h-4.9c-0.4,2.7-0.9,6-1.5,8.6h6.6l5.1-4.7
						L1387.4,70.1L1387.4,70.1z M1412.6,46.7v6.1c0,0.8,0.2,1,0.8,1h1.3c0.3,0,1.3,0,1.7-0.1c0.5-0.1,1.3-0.2,1.9-0.3h0.7l0.5,0.2
						c2.1,1.1,2.7,1.9,2.7,3.4c0,3.8-3.3,4.7-9.8,4.7l7.9,6.7c-0.5,0.9-1.2,1.1-2.9,1.3c-1.3,2.5-3,4.8-5,7
						c11.1,6.8,8,16.8,0.1,14.4c-1.9-2.6-4.5-5.4-7.6-8c-6.3,4.1-14.2,7-23.6,8.6l-0.4-0.9c7.4-2.9,13.5-7.2,17.9-12.3
						c-3.8-2.7-7.8-5.1-11.6-6.7l0.6-0.8c5.9,0.2,10.8,0.9,14.9,1.9c0.9-1.4,1.6-3,2.1-4.6h-18.6l-0.7-2.2h19.2l4.4-4.1
						c-6-0.1-6.5-2.1-6.5-7.4v-8.2h-3.9v2.8c0,4.6-1.8,12.4-15.3,16l-0.4-0.7c5.2-4.6,5.5-10.6,5.5-15.3v-9l11.7,4h1.5l2.8-3
						c-6.6-5.7-11.4-13.4-14.2-24.4l0.9-0.5c1.9,4.3,4.8,7.8,8.3,10.6c2.1-3.2,4.4-7.1,5.4-9.6l10.1,6.8c-0.4,0.8-1.1,1.2-3,0.8
						c-2.7,1.4-6.3,2.9-10,4c2.8,2,5.9,3.6,9.3,5c1.8-2.9,3.7-6.5,4.6-8.8l10.2,6.9c-0.5,0.7-1.2,1.1-3,0.8c-2.2,1-5,1.9-7.8,2.7
						c4,1.4,8.2,2.5,12.3,3.3l-0.2,1c-4.5,1-7.7,4.7-9.1,10.1C1416.3,48.6,1414.5,47.6,1412.6,46.7L1412.6,46.7L1412.6,46.7z"/>
					<path class="st1" d="M1501.2,70.7c-0.5,0.7-1.3,1.1-3.1,0.7c-3.4,1.1-7.8,2.3-12.2,3.4c6,3.1,13.4,4.7,20.9,5.6l-0.1,0.9
						c-4.5,1.3-7.5,5-8.8,10.5c-13.2-5.1-21.5-12.1-25.4-28.9h-6.7v15.7c3.1-0.7,6.4-1.5,9.7-2.3l0.2,0.7c-2.9,2.8-9,8.3-16.6,13.9
						c-0.6,0.6-1.2,1-1.7,1.3l-6.2-12c3.3-1.8,3.8-2.7,3.8-4.4V63h-4.8c-2.1,10.5-7.3,20.9-19.2,28.5l-0.6-0.5
						c9.1-14,9.8-31.7,9.8-47.5V17.6l13.3,4.4h34.6l4.8-5.3l10.2,7.6c-0.5,0.6-1.5,1.4-3.2,1.7v11.5c-0.1,0.5-5.7,2.1-9.2,2.1h-0.7
						c-0.1,0.8-0.6,1.4-2.2,1.7v6.5h1.2l4.9-6.7c0,0,5.5,4.5,8.7,7.6c-0.2,0.9-1,1.3-2.2,1.3h-12.6v10.7h3.1l5.5-7.6
						c0,0,6.2,5.2,9.8,8.5c-0.2,0.9-1.1,1.3-2.2,1.3h-13.3L1501.2,70.7L1501.2,70.7z M1451.8,50.1c-0.2,3.5-0.5,7-1.1,10.7h8.1V50.1
						H1451.8z M1488.9,39.5v-2.9h-37.1v6.8c0,1.4,0,2.9-0.1,4.4h7v-9.7l12.9,1.1c-0.1,0.9-0.6,1.5-2.1,1.7v6.9h7.8v-9.3
						C1477.3,38.5,1488.9,39.6,1488.9,39.5z M1451.8,24.3v10.1h37.1V24.3H1451.8z M1477.3,50.1h-7.8v10.7h7.8V50.1z M1473.9,63
						c2.1,4.1,5,7.3,8.5,9.7c2.6-3.2,5.4-7.1,7.1-9.7H1473.9z"/>
					<path class="st1" d="M1575.2,64.5c0,0,6.2,4.5,10,7.7c-0.2,0.9-1.1,1.3-2.3,1.3h-33.6c-2.8,8.2-10.3,14.2-39,17.7L1510,90
						c18.4-4.8,25.1-10,27.7-16.5h-27.1l-0.6-2.2h28.3c0.6-2.1,0.8-4.5,0.9-7l14.4,1.7c-0.2,1-1,1.9-2.9,2c-0.2,1.1-0.5,2.2-0.7,3.2
						h19.7L1575.2,64.5L1575.2,64.5z M1513.3,31.1l-0.6-2.2h38.4c0.9-3.8,1.9-8.8,2.5-12.2l15.3,3.4c-0.2,1-1.1,1.7-2.9,1.7
						c-3,2-7.6,4.8-11.7,7.1h14.6l5.2-6.7c0,0,5.8,4.5,9.3,7.7c-0.2,0.9-1.1,1.3-2.2,1.3h-25v6.3h7.7l4.8-5.2l9.7,7.4
						c-0.5,0.6-1.5,1.3-3.2,1.7v21.1c-0.1,0.7-5.2,2.9-8.7,2.9h-1.8v-2.7h-34.8V64c0,1-4.5,3.2-8.8,3.2h-1.5V33.1l11,4.3h5.2v-6.3
						L1513.3,31.1L1513.3,31.1z M1526.5,17.2c22.6-3.4,16.4,15.3,6.4,10.4c-1.1-3.8-4.1-7.8-6.9-9.9L1526.5,17.2L1526.5,17.2z
						 M1564.5,60.5v-9.7c-1.4,0.1-3.2,0.2-5.3,0.2h-0.9c1.4,1.2,3.2,2.7,4.6,4c-0.2,0.9-0.9,1.3-2.1,1.3h-29.2L1531,54h20.5l2.3-3
						c-5.4-0.2-6.2-1.9-6.2-6.4v-5h-3.5c-0.9,4.6-4,9.7-14.5,12.7v8.2L1564.5,60.5L1564.5,60.5z M1529.7,39.6v10.8
						c4.1-3.2,5.4-7,5.7-10.8H1529.7z M1547.7,31.1h-3.2v6.3h3.2C1547.7,37.3,1547.7,31.1,1547.7,31.1z M1550.8,77.1
						c47.7,1.6,28.4,20.6,19.2,13c-3.3-3.5-9.8-8.6-19.5-12.1C1550.4,78,1550.8,77.1,1550.8,77.1z M1556.1,39.5v3.9
						c0,0.9,0.2,1.1,1.4,1.1h5.5c0.4,0,1.1-0.1,1.6-0.1v-4.9H1556.1z"/>
					<path class="st1" d="M1639.9,58.7c6.6,3.9,17.3,4.8,25.3,4.6l-0.1,1.3c-4.1,3.7-6.2,8-6.5,12.9c-8.9-3.4-16.9-10.8-21.9-18.8
						h-16.4c-5.9,9-16.9,15-31,18.8l-0.5-0.9c7.8-4.3,13.5-10.9,16.9-17.8h-16.2l-0.6-2.2h18.1V29.3h-14.6l-0.6-2.2h15.2V16.6
						l14.5,1.2c-0.2,1.1-0.7,1.9-2.8,2.3v7.1h16V16.6l14.8,1.2c-0.2,1.2-0.7,2-2.9,2.3v7.1h2.1l5.2-7.2c0,0,5.9,4.9,9.3,8.2
						c-0.2,0.9-1.1,1.3-2.2,1.3h-14.3v27.2h2.9l5.5-7.8c0,0,6.1,5.2,9.7,8.7c-0.2,0.9-1.1,1.3-2.3,1.3L1639.9,58.7L1639.9,58.7z
						 M1649,79.2c0,0,7.3,5.4,11.7,9c-0.2,0.9-1.2,1.3-2.4,1.3h-63.8l-0.6-2.2h26.8V76h-14.6l-0.6-2.2h15.2V62.5l14.7,1.1
						c-0.1,1.1-0.6,1.9-2.8,2.2v7.9h0.9l5.3-7c0,0,6,4.7,9.6,7.9c-0.2,0.9-1.1,1.3-2.2,1.3h-13.5v11.2h10L1649,79.2L1649,79.2z
						 M1618.8,29.3v7.5h16v-7.5H1618.8z M1618.8,46.6h16v-7.5h-16V46.6z M1634.8,56.5v-7.7h-16v7.7H1634.8z"/>
					<path class="st1" d="M1731.7,17.5c0,0,7.4,5.5,12,9.3c-0.2,0.9-1.2,1.3-2.4,1.3h-34.8c-2.7,7.9-7,15.8-12.7,23l4.1,1.5h25.7
						l5.3-5.9l10.8,8.4c-0.6,0.7-1.7,1.5-3.6,1.9v31.5c-0.2,0.6-5.9,2.8-9.8,2.8h-1.9v-7.4h-27.6v4.6c0,0.8-3.5,3.2-9.3,3.2h-2.1
						V60.2c-5,4.7-10.7,8.8-17,12l-0.6-0.6c12.3-11.6,21.5-29,24.3-43.6H1670l-0.6-2.2h55.7C1725.1,25.8,1731.7,17.5,1731.7,17.5z
						 M1696.7,54.8v26.8h27.6V54.8H1696.7z"/>
				</g>
			</g>
		</g>
	</g>
</g>
</svg>
