<?xml version="1.0" encoding="UTF-8"?>
<svg id="_圖層_2" data-name="圖層 2" xmlns="http://www.w3.org/2000/svg" viewBox="0 0 623.76 236.1">
  <defs>
    <style>
      .cls-1 {
        fill: #231815;
      }
    </style>
  </defs>
  <g id="_圖層_1-2" data-name="圖層 1">
    <g>
      <path class="cls-1" d="M14.39,1.32V3.47h6.3l1.43-1.76s1.62,1.23,2.6,2.16c-.06,.31-.36,.45-.73,.45H14.39v2.3h4.76l1.37-1.71s1.54,1.2,2.52,2.07c-.08,.31-.36,.45-.76,.45h-7.9v2.46h7.62l1.43-1.79s1.65,1.23,2.63,2.16c-.06,.31-.34,.45-.76,.45H.98l-.22-.81H12.15v-2.46H4l-.22-.81H12.15v-2.3H2.58l-.25-.84H12.15V.2l3.28,.34c-.06,.39-.31,.64-1.04,.78ZM5.8,11.65l2.66,1.06h10l1.12-1.29,2.6,1.99c-.17,.2-.62,.42-1.18,.53v9.27c0,1.57-.42,2.55-3.39,2.83-.08-.64-.25-1.18-.67-1.51-.48-.28-1.15-.59-2.55-.76v-.42s3.02,.22,3.7,.22c.5,0,.64-.2,.64-.59v-2.69H7.78c-.48,2.18-1.71,4.37-4.93,5.91l-.28-.36c2.86-2.41,3.22-5.49,3.22-8.57v-5.63Zm12.94,7.81v-2.63H8.06v.42c0,.7-.03,1.46-.14,2.21h10.81Zm-10.67-3.44h10.67v-2.46H8.06v2.46Z"/>
      <path class="cls-1" d="M33.18,17.64V8.74h-3.14l-.22-.84h3.36V.64l3.22,.34c-.06,.39-.31,.67-1.01,.78V7.9h.64l1.26-1.85s1.43,1.34,2.21,2.24c-.06,.31-.31,.45-.7,.45h-3.42v8.18l3.89-1.32,.11,.36c-1.88,1.15-4.62,2.88-8.29,4.9-.08,.34-.34,.64-.62,.76l-1.18-2.83c.78-.2,2.18-.62,3.86-1.15Zm6.36-9.91l2.52,1.09h3.81v-3.28h-7.36l-.22-.84h7.59V.28l3.08,.34c-.06,.36-.28,.62-.92,.73v3.36h3.98l1.43-1.74s1.6,1.2,2.58,2.13c-.08,.31-.34,.45-.73,.45h-7.25v3.28h3.89l1.09-1.32,2.66,1.99c-.2,.22-.67,.48-1.26,.59v12.96c0,1.68-.31,2.66-2.94,2.91-.06-.67-.17-1.26-.48-1.6-.34-.36-.87-.62-1.85-.76v-.45s2.04,.17,2.49,.17,.56-.17,.56-.53v-3.86h-4.17v5.88c0,.31-.95,.84-1.74,.84h-.42v-6.72h-4.14v6.38c0,.17-.7,.76-1.82,.76h-.36V7.73Zm2.18,1.9v3.78h4.14v-3.78h-4.14Zm0,4.56v3.92h4.14v-3.92h-4.14Zm6.3-.78h4.17v-3.78h-4.17v3.78Zm0,4.7h4.17v-3.92h-4.17v3.92Zm3.08-14.25c-.2-1.01-1.09-2.18-1.96-2.8l.28-.22c5.18,.56,3.58,4.28,1.68,3.02Z"/>
      <path class="cls-1" d="M61.43,24.61c-.53,.7-1.68,.95-2.13,.28-.36-.59-.08-1.26,.48-1.76,.81-.87,1.62-3.05,1.48-4.98h.5c.87,3.05,.42,5.38-.34,6.47Zm6.24-7.67c0-.56-.11-1.18-.25-1.82-1.6,.5-3.84,1.18-6.24,1.82-.2,.31-.45,.5-.73,.59l-.95-2.69s.59-.14,.81-.31c1.26-1.12,2.77-3.08,4.09-5.07l-3.16,.9c-.2,.31-.42,.5-.64,.59l-1.09-2.72s.53-.11,.73-.28c1.46-1.57,3.33-5.54,3.95-7.7l2.94,1.48c-.11,.25-.45,.45-.98,.39-1.15,1.9-3.14,4.51-4.96,6.24h3.92c.84-1.37,1.54-2.66,1.96-3.67l2.69,1.9c-.17,.22-.56,.39-1.09,.25-1.51,2.32-4.48,5.71-7.17,7.98l5.74-.39c-.31-1.04-.76-2.04-1.18-2.83l.36-.17c4.82,3.3,2.94,7.11,1.26,5.49Zm-3.81,6.66c.34-1.82,.17-4.12-.14-5.71l.39-.08c3.64,3.95,1.26,7.73-.25,5.8Zm4.17-1.37c-.08-1.6-.98-3.61-1.82-4.87l.34-.17c5.04,2.77,3.22,6.61,1.48,5.04Zm17.44,1.68c-.08,.31-.36,.45-.76,.45h-15.99l-.22-.84h6.92v-6.66h-4.98l-.22-.81h10.22l1.26-1.57s1.4,1.09,2.3,1.93c-.08,.31-.34,.45-.73,.45h-5.57v6.66h3.72l1.43-1.85s1.62,1.32,2.63,2.24Zm-.78-21.36c-.06,.31-.34,.45-.73,.45h-14.48l-.22-.81h11.54l1.37-1.74s1.57,1.2,2.52,2.1Zm-10.78,2.52c-.73,.81-2.69,2.83-3.89,3.98,6.13,3.11,3.84,6.8,2.1,5.43-.25-1.4-1.26-3.78-2.86-5.38,.87-1.51,2.32-4.31,2.72-5.32l2.77,.98c-.11,.25-.36,.39-.84,.31Zm4.4,.14c-.73,.78-2.69,2.72-3.92,3.78,6.27,2.88,4.03,6.58,2.27,5.26-.31-1.4-1.4-3.7-3-5.18,.84-1.46,2.3-4.17,2.72-5.15l2.77,1.01c-.11,.22-.36,.39-.84,.28Zm4.65,.11c-.76,.73-2.8,2.55-4.06,3.56,6.55,2.69,4.4,6.38,2.55,5.12-.36-1.4-1.6-3.61-3.3-5.04,.87-1.4,2.44-4,2.88-4.98l2.74,1.04c-.08,.22-.36,.39-.81,.31Z"/>
      <path class="cls-1" d="M99.68,23.32c-2.49,1.18-6.69,2.3-10.56,2.74l-.14-.45c3.5-.98,7.48-2.88,9.41-4.37l2.74,1.96c-.22,.28-.7,.34-1.46,.11Zm-.87-14.22c-.14-.53-.42-1.12-.76-1.68-1.12,.59-2.63,1.4-4.34,2.27l2.24,.98h11.79l.95-1.01c0-.53-.11-1.01-.39-1.32-.31-.28-1.01-.5-1.79-.62l.03-.48c.76,.08,2.07,.17,2.55,.17,.39,0,.62-.03,.78-.2,.39-.36,.64-1.76,.81-4.34h-3.7c-.39,2.8-1.6,5.54-6.8,7.48l-.34-.42c3.86-2.16,4.62-4.65,4.79-7.06h-3.5l-.25-.81h9.58l1.12-1.15,2.24,1.82c-.2,.2-.5,.34-1.04,.39-.2,3.53-.62,5.26-1.6,5.96-.48,.36-1.15,.56-1.9,.64l2.04,1.54c-.17,.2-.56,.42-1.06,.5v9.52c-.03,.17-1.15,.67-1.88,.67h-.36v-1.12h-12.24v.84c0,.22-.95,.73-1.88,.73h-.34V9.77l-1.9,.92c-.17,.28-.39,.48-.62,.56l-1.04-2.18c.92-.45,1.04-.64,1.04-1.09V1.79l2.52,.84c1.99-.73,4.12-1.71,5.21-2.38l1.96,1.96c-.17,.2-.48,.17-.87-.03-1.43,.39-4.2,.98-6.72,1.26v4.84l4.56-1.37c-.64-.9-1.43-1.74-2.13-2.32l.31-.22c6.44,1.62,5.07,6.05,2.91,4.73Zm-3.02,2.38v2.32h12.24v-2.32h-12.24Zm12.24,5.43v-2.3h-12.24v2.3h12.24Zm0,3.14v-2.32h-12.24v2.32h12.24Zm2.97,5.63c-1.54-1.15-4.26-2.44-7.9-3.36l.08-.45c14.17,.81,10.25,5.46,7.81,3.81Z"/>
      <path class="cls-1" d="M125.16,1.46V7.25h.25l1.29-1.85s1.51,1.29,2.35,2.21c-.08,.31-.34,.45-.73,.45h-3.16v5.43l3.64-1.4,.11,.36-3.75,2.41v10.36c0,.31-.9,.81-1.71,.81h-.42v-9.86l-2.66,1.57c-.06,.36-.25,.64-.53,.76l-1.6-2.58c.98-.28,2.72-.9,4.79-1.65v-6.22h-2.3c-.59,2.18-1.32,4.23-2.27,5.77l-.48-.2c.84-2.88,1.34-6.92,1.51-10.61l3.02,.5c-.08,.36-.36,.62-1.01,.67-.17,1.01-.36,2.04-.59,3.05h2.1V.34l3.14,.34c-.06,.39-.28,.67-1.01,.78Zm19.24,13.24c-.08,.31-.36,.45-.76,.45h-4.45v8.15c0,1.62-.42,2.6-3.5,2.86-.11-.62-.28-1.09-.76-1.43-.53-.34-1.32-.56-2.83-.78v-.39s3.5,.25,4.17,.25c.56,0,.73-.2,.73-.62V15.15h-9.49l-.22-.81h9.72v-2.63l3.16,.31c-.06,.42-.34,.64-.98,.73v1.6h1.43l1.34-1.74s1.48,1.2,2.44,2.1Zm-.59-9.58c-.06,.31-.34,.45-.73,.45h-6.64v4.23h2.91l1.34-1.74s1.51,1.2,2.46,2.1c-.06,.31-.34,.45-.73,.45h-13.24l-.22-.81h5.29V5.57h-5.94l-.22-.81h6.16V.2l3.11,.31c-.06,.36-.28,.62-.92,.7v3.56h3.44l1.4-1.76s1.57,1.23,2.52,2.13Zm-12.1,16.21c-.39-1.54-1.79-3.47-2.88-4.68l.28-.2c6.44,2.13,4.73,6.36,2.6,4.87Z"/>
      <path class="cls-1" d="M171.84,2.46c-.08,.31-.34,.45-.73,.45h-19.88V21.73c0,1.23,.59,1.68,3.36,1.68h7.11c3,0,5.46-.06,6.33-.11,.53-.06,.95-.11,1.32-.17,.31-.03,.78-.14,1.2-.31h.34l.17,.03c1.12,.22,1.4,.5,1.4,.95,0,1.18-1.74,1.4-10.95,1.37h-6.69c-4.12,0-5.66-.5-5.68-3.16V2.91h-1.06l-.25-.81h20.05l1.43-1.82s1.57,1.26,2.55,2.18Zm-18.23,19.74h-.28V13.02l2.07,.9h3l1.01-1.04,2.13,1.62c-.14,.17-.5,.39-.92,.42v6.13c-.03,.2-1.01,.62-1.68,.62h-.31v-1.46h-3.36v1.34c0,.2-.84,.64-1.65,.64Zm5.01-7.48h-3.36v4.68h3.36v-4.68Zm-2.44-2.21h-.31V4.12l2.3,.98h6.47l1.12-1.18,2.38,1.79c-.17,.2-.56,.39-1.06,.5v5.29c-.03,.17-1.12,.62-1.82,.62h-.34v-1.2h-6.89v.92c0,.2-.95,.67-1.85,.67Zm8.74-6.61h-6.89v4.2h6.89V5.91Zm-1.88,15.9h-.31V13.02l2.1,.9h3l1.04-1.09,2.24,1.71c-.17,.17-.56,.36-1.01,.45v5.96c-.03,.17-1.04,.62-1.68,.62h-.34v-1.34h-3.39v.95c0,.2-.84,.64-1.65,.64Zm5.04-7.08h-3.39v4.68h3.39v-4.68Z"/>
      <path class="cls-1" d="M178.86,6.44l2.55,1.04h5.8c.22-1.15,.48-2.83,.64-4.14h-10.7l-.22-.78h21.25l1.6-1.99s1.79,1.37,2.91,2.32c-.08,.31-.36,.45-.76,.45h-11.03c-.87,1.4-1.93,3-2.8,4.14h10l1.18-1.4,2.44,1.9c-.2,.22-.53,.42-1.15,.53V25.06c0,.17-.84,.7-1.96,.7h-.36v-2.04h-17.14v1.57c0,.17-.73,.67-1.88,.67h-.36V6.44Zm6.3,16.46V8.29h-4.06v14.62h4.06Zm2.13-10.36h4.68v-4.26h-4.68v4.26Zm0,5.15h4.68v-4.34h-4.68v4.34Zm0,5.21h4.68v-4.4h-4.68v4.4Zm10.95-14.62h-4.14v14.62h4.14V8.29Z"/>
      <path class="cls-1" d="M216.52,2.66c-.28,.28-.76,.34-1.51,.08-.7,.25-1.54,.53-2.46,.81v5.24h.64l1.23-1.68s.9,.76,1.68,1.48h6.8v-2.18h-5.29l-.22-.78h5.52v-1.99h-5.94l-.22-.81h6.16V.48l3.14,.28c-.06,.39-.31,.67-1.01,.78v1.29h3.44l1.26-1.65s1.46,1.18,2.32,2.02c-.08,.31-.34,.45-.73,.45h-6.3v1.99h2.88l1.18-1.4s1.32,.98,2.18,1.76c-.06,.28-.34,.42-.73,.42h-5.52v2.18h3.75l1.26-1.62s1.46,1.15,2.32,1.99c-.06,.31-.31,.45-.7,.45h-15.15c-.11,.17-.31,.22-.56,.22h-3.42v2.69c5.66,2.18,3.89,5.8,2.04,4.37-.25-1.2-1.2-2.69-2.04-3.78v12.46c0,.17-.7,.67-1.74,.67h-.36V14.92c-1.15,2.27-2.63,4.28-4.42,6.05l-.39-.36c2.13-3,3.58-7.03,4.37-10.98h-3.47l-.22-.84h4.14V4.12c-1.37,.34-2.83,.62-4.2,.81l-.14-.39c2.72-.98,6.05-2.77,7.7-4.03l2.72,2.16Zm7.48,20.38c-.22,.22-.48,.28-1.01,.14-2.44,1.32-5.54,2.27-8.4,2.83l-.31-.48c2.49-.95,5.15-2.46,7.17-4.2l2.55,1.71Zm-5.88-12.96l2.18,.98h7.42l1.12-1.2,2.38,1.82c-.17,.2-.56,.42-1.04,.53v8.65c-.06,.2-1.15,.64-1.85,.64h-.34v-.81h-7.84v.56c0,.2-.87,.7-1.74,.7h-.31V10.08Zm2.04,1.79v2.1h7.84v-2.1h-7.84Zm0,5.01h7.84v-2.1h-7.84v2.1Zm0,3h7.84v-2.21h-7.84v2.21Zm9.69,5.68c-.84-1.06-2.52-2.44-4.79-3.56l.2-.42c10.19,1.79,6.38,5.77,4.59,3.98Z"/>
      <path class="cls-1" d="M261.16,5.12c-.08,.31-.39,.45-.81,.45h-13.69c-.64,1.32-1.4,2.66-2.3,3.98l.59,.17h9.44l1.15-1.37,2.74,2.04c-.22,.28-.7,.53-1.32,.64v11.98c0,1.68-.36,2.74-3.36,3.02-.08-.7-.25-1.32-.67-1.68-.42-.36-1.09-.64-2.44-.84v-.42s2.94,.2,3.53,.2c.53,0,.67-.17,.67-.59v-3.72h-10.42c-.42,2.58-1.46,5.24-3.98,7.28l-.34-.28c2.16-3.3,2.3-7.39,2.3-11.14v-2.52c-1.71,2.02-3.75,3.81-6.16,5.24l-.31-.31c3.78-3.02,6.55-7.36,8.37-11.68h-7.81l-.22-.81h8.34c.64-1.6,1.12-3.16,1.48-4.65l3.47,.98c-.14,.31-.36,.5-1.12,.5-.36,1.04-.78,2.1-1.26,3.16h9.74l1.54-1.9s1.74,1.32,2.83,2.27Zm-6.47,13.05v-3.5h-10.14v.17c0,1.04-.03,2.16-.17,3.33h10.3Zm-10.14-4.31h10.14v-3.33h-10.14v3.33Z"/>
      <path class="cls-1" d="M267.96,12.18c1.15-.39,2.27-.56,3.53-.56,4.14,0,6.78,2.24,6.78,6.05s-2.91,6.52-7.34,6.52c-3.22,0-5.35-1.51-5.82-4.17,.22-.59,.73-.9,1.29-.9,.78,0,1.18,.42,1.43,1.54l.59,2.27c.64,.25,1.29,.36,2.13,.36,3.05,0,4.9-2.02,4.9-5.29,0-3.47-1.82-5.18-4.59-5.18-1.23,0-2.32,.17-3.36,.62l-.7-.25,.64-9.16h10.25v2.24h-9.3l-.42,5.91Z"/>
      <path class="cls-1" d="M282.55,22.09c1.82-1.99,3.61-3.98,4.98-5.46,3.08-3.39,4.26-5.35,4.26-7.81s-1.43-4.34-3.89-4.34c-.62,0-1.2,.11-1.85,.31l-.78,2.38c-.28,1.23-.84,1.62-1.48,1.62-.56,0-1.04-.34-1.29-.87,.53-2.77,3.16-4.34,6.24-4.34,3.89,0,5.85,2.13,5.85,5.29,0,2.58-1.74,4.76-6.27,8.71-.84,.78-2.44,2.32-4.06,3.95h11.09v2.24h-12.8v-1.68Z"/>
      <path class="cls-1" d="M305.23,15.9c-3.47,0-6.02-2.3-5.99-6.08,.03-3.86,2.94-6.24,6.47-6.24,4.09,0,6.66,3.08,6.66,8.15,0,5.96-4.14,10.75-11.48,12.57l-.2-.76c5.15-1.79,7.92-4.87,8.68-9.24-.98,1.01-2.41,1.6-4.14,1.6Zm.98-1.09c1.26,0,2.35-.48,3.3-1.4,.06-.59,.08-1.18,.08-1.79,0-4.9-1.65-7.14-3.89-7.14-2.02,0-3.7,1.74-3.7,5.07s1.71,5.26,4.2,5.26Z"/>
      <path class="cls-1" d="M324.88,1.34c-.03,.06-.06,.11-.14,.17l2.16,1.01h11.42l1.2-1.34,2.49,1.99c-.2,.22-.64,.48-1.2,.59V24.81c-.03,.25-1.06,.81-1.88,.81h-.34v-1.96h-11.84v1.4c0,.28-.78,.81-1.74,.81h-.39V1.62c-.14,.17-.42,.28-.81,.25-.73,1.99-1.6,3.89-2.58,5.66l1.32,.5c-.08,.22-.34,.39-.81,.5V25.28c-.03,.2-.95,.73-1.79,.73h-.39V10.28c-1.01,1.48-2.13,2.83-3.28,3.92l-.36-.25c2.16-3.33,4.42-8.57,5.68-13.69l3.28,1.09Zm13.72,1.99h-11.84V22.88h11.84V3.33Zm-9.72,8.71l1.88,.87h.9v-3.84h-3.89l-.2-.81h4.09V4.26l2.8,.28c-.06,.36-.28,.62-.92,.73v3h1.46l1.12-1.51s1.29,1.09,2.07,1.88c-.08,.31-.34,.45-.73,.45h-3.92v3.84h1.43l.87-1.01,1.68,1.71c-.2,.17-.59,.39-1.04,.45v6.08c-.03,.14-.7,.62-1.46,.62h-.31v-1.48h-4.06v1.2c0,.17-.78,.56-1.51,.56h-.25V12.04Zm5.82,6.44v-4.79h-4.06v4.79h4.06Z"/>
      <path class="cls-1" d="M354.4,14c-.08,.39-.45,.64-1.04,.67-.22,1.04-.5,2.1-.87,3.16,1.18,2.44,2.74,3.81,4.96,4.54V10.16h-5.15v1.15c0,.22-.98,.73-1.88,.73h-.36V1.12l2.41,1.06h12.12l1.15-1.29,2.58,1.93c-.2,.22-.62,.45-1.18,.56v7.7c-.03,.2-1.15,.67-1.9,.67h-.36v-1.6h-5.12v5.57h5.43l1.51-1.9s1.76,1.32,2.83,2.27c-.08,.31-.36,.45-.78,.45h-8.99v6.36c1.46,.22,3.11,.28,5.01,.28,1.57,0,5.15,0,6.92-.03v.36c-.78,.17-1.23,.9-1.23,1.82h-5.82c-6.58,0-10.16-1.23-12.4-6.78-1.15,2.88-3.02,5.63-6.22,7.5l-.28-.31c3.56-3.11,4.93-8.12,5.35-12.35l3.33,.59Zm-2.1-11v6.38h12.57V3h-12.57Z"/>
      <path class="cls-1" d="M384.75,3.58c-.06,.31-.34,.45-.7,.45h-3.47v6.8h.76l1.18-1.71s1.37,1.2,2.13,2.07c-.06,.31-.34,.45-.7,.45h-3.36v6.61c1.29-.56,2.6-1.18,3.92-1.82l.17,.36c-1.96,1.51-4.68,3.5-8.12,5.57-.06,.34-.28,.64-.53,.78l-1.26-2.58c.87-.28,2.16-.78,3.67-1.4v-7.53h-2.91l-.22-.81h3.14V4.03h-3.05l-.22-.84h5.94l1.29-1.79s1.51,1.26,2.38,2.18Zm16.21,2.77c-.08,.31-.36,.45-.76,.45h-7.5c.39,2.72,1.01,4.9,1.82,6.72,1.15-1.54,2.38-3.5,3.22-5.12l2.72,1.79c-.2,.25-.42,.31-.98,.2-1.2,1.18-3.05,2.72-4.59,3.89,1.62,3.28,3.89,5.21,6.38,6.66l-.08,.28c-.92,.2-1.65,.98-1.96,2.13-3.53-3.05-5.63-6.75-6.61-14.28v14c0,1.68-.34,2.69-3.25,2.94-.06-.67-.22-1.2-.59-1.51-.45-.36-1.09-.62-2.38-.81v-.42s2.77,.22,3.39,.22c.5,0,.64-.14,.64-.59v-6.13c-1.6,1.46-3.7,3.33-6.33,5.49-.03,.36-.2,.7-.45,.87l-1.85-2.55c1.46-.67,4.98-2.58,8.62-4.68V6.8h-7.14l-.22-.81h7.36V.34l3.16,.34c-.06,.39-.25,.64-.98,.76V5.99h4.34l1.43-1.79s1.57,1.26,2.58,2.16Zm-14.42,7.84c-.14-1.71-1.2-3.84-2.13-5.26l.34-.17c6.02,3,3.81,7.28,1.79,5.43Zm10.11-9.55c-.39-1.04-1.62-2.38-2.69-3.08l.28-.25c5.74,.62,4.42,4.51,2.41,3.33Z"/>
      <path class="cls-1" d="M407.79,17.02V8.65h-3.02l-.22-.81h3.25V.56l3.19,.34c-.06,.39-.28,.67-1.01,.76V7.84h.36l1.29-1.9s1.4,1.34,2.24,2.27c-.08,.31-.36,.45-.76,.45h-3.14v7.48l3.81-1.54,.14,.31c-1.76,1.29-4.34,3.19-7.81,5.4-.06,.34-.28,.67-.56,.78l-1.37-2.72c.76-.25,2.04-.73,3.61-1.34Zm18.68-4.76l1.46-1.79s1.62,1.23,2.63,2.16c-.08,.31-.34,.45-.76,.45h-10.84c-.42,.78-.9,1.54-1.43,2.24h9.24l1.23-1.2,2.3,1.9c-.2,.22-.56,.34-1.12,.42-.39,4.96-1.2,7.78-2.49,8.74-.76,.62-1.76,.87-2.88,.87,0-.62-.08-1.18-.45-1.51-.36-.34-1.18-.59-2.07-.73v-.45c.95,.06,2.49,.2,3.05,.2,.48,0,.7-.06,.98-.28,.67-.59,1.34-3.02,1.71-7.14h-1.79c-1.54,4.34-4.51,7.59-9.18,9.88l-.28-.42c3.58-2.38,5.91-5.66,7.11-9.46h-1.85c-1.96,3.61-5.24,6.44-9.46,8.37l-.31-.42c3.33-2.02,5.91-4.82,7.53-7.95h-1.96c-1.65,1.88-3.84,3.39-6.44,4.59l-.31-.42c2.8-1.85,4.96-4.45,6.27-7.22h-4.06l-.22-.81h14.39Zm-11.26-11.56l2.3,.98h7.14l1.18-1.26,2.49,1.9c-.2,.2-.62,.45-1.18,.56v7.25c-.03,.2-1.09,.76-1.85,.76h-.36v-1.15h-7.56v.81c0,.2-.95,.7-1.85,.7h-.31V.7Zm9.72,4.56V2.49h-7.56v2.77h7.56Zm-7.56,3.67h7.56v-2.86h-7.56v2.86Z"/>
      <path class="cls-1" d="M438.34,15.09c.28-1.76,.42-3.64,.5-5.54h-4.2l-.25-.84h4.48c.06-1.76,.06-3.56,.06-5.4h-4.34l-.25-.84h10.25l1.32-1.43,2.41,2.1c-.22,.25-.59,.42-1.2,.5-.11,13.58-.39,19.18-1.71,20.89-.78,1.04-1.96,1.48-3.22,1.48,0-.78-.06-1.34-.42-1.71-.36-.36-1.2-.64-2.18-.87l.03-.48c.98,.11,2.41,.22,2.94,.22s.73-.08,1.01-.36c.59-.62,.9-2.86,1.09-6.94h-4.4c-.92,3.95-2.69,7.42-6.3,10.25l-.39-.45c2.63-2.86,3.98-6.16,4.65-9.8h-3.75l-.25-.78h4.14Zm2.72-5.54c-.11,1.93-.31,3.78-.64,5.54h4.26c.06-1.6,.11-3.44,.14-5.54h-3.75Zm.17-6.24c-.03,1.88-.06,3.67-.14,5.4h3.75l.06-5.4h-3.67Zm8.62-2.07l2.55,1.26h3.89l1.34-1.32,2.52,2.41c-.2,.25-.62,.34-1.26,.34-1.01,1.88-2.86,5.26-4.2,7.11,3.36,2.21,4.65,4.87,4.65,7.22,.03,2.74-1.09,4.23-4.2,4.34,0-.7-.14-1.51-.39-1.82-.25-.25-.87-.42-1.62-.53v-.42h2.44c.31,0,.48-.03,.73-.14,.53-.31,.84-.87,.84-2.02,0-2.13-.9-4.37-3.14-6.55,.7-1.88,1.76-5.43,2.41-7.81h-4.37V25.31c0,.17-.7,.76-1.82,.76h-.36V1.23Z"/>
      <path class="cls-1" d="M489.1,3.58c-.08,.31-.36,.45-.73,.45h-20.44v6.75c0,4.82-.28,11-4.51,15.29l-.42-.28c2.6-4.37,2.86-9.83,2.86-14.98V2.21l2.44,1.01h9.18c-.11-.03-.25-.08-.39-.17-.34-.98-1.37-2.18-2.27-2.83l.25-.22c4.37,.28,4.31,2.83,3.08,3.22h6.89l1.46-1.85s1.62,1.29,2.6,2.21Zm-18.14,6.05c-.11,1.43-.31,3.39-2.41,4.7l-.42-.39c1.23-1.54,1.23-3.42,1.23-5.18l2.38,.2c-.03,.31-.28,.62-.78,.67Zm6.66-2.52l-.03-.06h3.92v-2.6l2.88,.28c-.06,.39-.28,.62-.95,.7v1.62h1.51l1.2-1.6s1.4,1.12,2.24,1.96c-.08,.31-.34,.45-.73,.45h-4.34v6.8c-.03,.08-.64,.39-1.43,.39h-.25V7.87h-3.84l-.06-.22c-.11,.17-.31,.22-.56,.22h-3.56v6.75c-.06,.11-.62,.39-1.4,.39h-.22V7.87h-3.42l-.22-.81h3.47v-2.63l2.88,.25c-.06,.39-.28,.62-.95,.7v1.68h.95l1.12-1.43s.98,.76,1.76,1.48Zm7.98,18.56c-.22-.73-.62-1.51-1.15-2.27-3.39,.53-8.09,1.29-13.5,1.93-.17,.25-.39,.39-.59,.45l-.9-2.49s.62-.08,.92-.22c2.38-.87,5.26-2.52,7.67-4.17-1.79,.36-4.03,.81-6.41,1.18-.14,.25-.34,.39-.53,.45l-.87-2.32s.45-.08,.67-.17c2.04-.78,4.59-3.11,5.6-4.26l2.66,1.4c-.11,.22-.5,.45-1.12,.31-1.26,.87-3.19,1.9-5.07,2.72l6.44-.25c1.09-.81,2.04-1.57,2.72-2.21l2.55,1.76c-.17,.22-.56,.42-1.2,.2-2.46,1.71-7.11,4.06-11.28,5.66,2.91-.11,7.2-.34,11.79-.62-.81-1.12-1.79-2.18-2.66-3l.31-.22c7.78,2.83,6.27,7.76,3.95,6.16Zm-9.41-16.1v2.07c0,.22,.06,.31,.14,.31h.36c.08,0,.25-.03,.36-.06h.34c.45,.14,.64,.22,.64,.59,0,.56-.48,.84-1.76,.84h-.39c-.95,0-1.12-.42-1.12-1.26v-3.39l2.16,.28c-.03,.31-.34,.56-.73,.62Zm4.4,.06c-.11,1.32-.31,3.3-2.3,4.73l-.42-.42c1.12-1.62,1.12-3.56,1.15-5.18l2.35,.2c-.03,.31-.28,.62-.78,.67Zm5.38,.03v2.46c0,.28,.06,.36,.28,.36h.92c.08,0,.17-.03,.25-.03s.25-.03,.36-.06h.34c.45,.17,.67,.25,.67,.59,0,.56-.5,.84-2.21,.84h-.76c-1.12,0-1.32-.39-1.32-1.29v-3.78l2.18,.28c-.06,.31-.34,.56-.73,.62Z"/>
      <path class="cls-1" d="M507.5,.64c-.08,.39-.34,.7-1.01,.78-.06,2.44-.08,4.79-.31,7.08h7.59l1.65-2.07s1.9,1.43,3.05,2.46c-.06,.31-.36,.45-.76,.45h-11.14c1.01,5.26,4.06,10.75,12.24,14.36l-.03,.31c-1.23,.17-1.99,.76-2.27,2.07-7.42-4.2-9.63-10.95-10.44-16.55-.78,6.58-3.42,12.35-13.19,16.52l-.31-.48c8.09-4.45,10.44-9.97,11.12-16.24h-10.58l-.25-.84h10.92c.22-2.6,.2-5.35,.2-8.2l3.53,.34Z"/>
      <path class="cls-1" d="M525.2,15.85c1.74-.87,2.74-1.68,3.19-3.22-1.74-.81-2.32-1.57-2.32-2.46,0-1.04,.76-1.85,1.9-1.85,.64,0,1.15,.14,1.62,.59,.28,.64,.36,1.06,.36,1.79,0,3.02-1.71,4.93-4.4,5.94l-.36-.78Z"/>
      <path class="cls-1" d="M561.88,2.46c-.08,.31-.34,.45-.73,.45h-19.88V21.73c0,1.23,.59,1.68,3.36,1.68h7.11c3,0,5.46-.06,6.33-.11,.53-.06,.95-.11,1.32-.17,.31-.03,.78-.14,1.2-.31h.34l.17,.03c1.12,.22,1.4,.5,1.4,.95,0,1.18-1.74,1.4-10.95,1.37h-6.69c-4.12,0-5.66-.5-5.68-3.16V2.91h-1.06l-.25-.81h20.05l1.43-1.82s1.57,1.26,2.55,2.18Zm-18.23,19.74h-.28V13.02l2.07,.9h3l1.01-1.04,2.13,1.62c-.14,.17-.5,.39-.92,.42v6.13c-.03,.2-1.01,.62-1.68,.62h-.31v-1.46h-3.36v1.34c0,.2-.84,.64-1.65,.64Zm5.01-7.48h-3.36v4.68h3.36v-4.68Zm-2.44-2.21h-.31V4.12l2.3,.98h6.47l1.12-1.18,2.38,1.79c-.17,.2-.56,.39-1.06,.5v5.29c-.03,.17-1.12,.62-1.82,.62h-.34v-1.2h-6.89v.92c0,.2-.95,.67-1.85,.67Zm8.74-6.61h-6.89v4.2h6.89V5.91Zm-1.88,15.9h-.31V13.02l2.1,.9h3l1.04-1.09,2.24,1.71c-.17,.17-.56,.36-1.01,.45v5.96c-.03,.17-1.04,.62-1.68,.62h-.34v-1.34h-3.39v.95c0,.2-.84,.64-1.65,.64Zm5.04-7.08h-3.39v4.68h3.39v-4.68Z"/>
      <path class="cls-1" d="M578.12,1.62l.98-1.4,2.58,1.85c-.36,.36-1.12,.59-2.1,.64,.2,1.48,.48,2.94,.87,4.31h7.59l1.09-1.32,2.63,1.99c-.2,.22-.64,.45-1.18,.53v14.78c0,1.71-.42,2.77-3.56,3.11-.11-.76-.28-1.32-.76-1.68-.48-.39-1.26-.67-2.72-.87v-.42s3.28,.22,4.03,.22c.56,0,.7-.2,.7-.62V7.84h-7.59c1.26,3.84,3.5,7.03,7.39,8.79l-.08,.34c-.84,.22-1.51,.87-1.76,1.62-3.22-2.07-5.1-4.98-6.22-8.82-1.12,3.25-3.25,6.58-7.87,8.96l-.36-.36c4.06-3.08,5.88-7.22,6.55-10.53h-7.06V25.2c0,.28-.9,.84-1.88,.84h-.39V5.94l2.46,1.09h7.9c-.25-1.43-.45-2.97-.62-4.62h-4.51l-.25-.78h4.12Z"/>
      <path class="cls-1" d="M603.76,1.68c-.62,1.06-1.51,2.52-2.24,3.64h3.25l1.15-1.29,2.46,1.9c-.17,.25-.62,.45-1.18,.56V23.55c-.03,.2-1.06,.73-1.82,.73h-.34v-2.13h-5.4v2.21c0,.25-.78,.76-1.71,.76h-.39V4.26l2.24,1.06h.7c.31-1.46,.7-3.56,.95-5.07l3.39,.81c-.11,.42-.48,.62-1.06,.62Zm-4.12,4.45v6.97h5.4V6.13h-5.4Zm0,15.18h5.4v-7.39h-5.4v7.39Zm14.48-19.52c-.42,1.2-.92,2.38-1.46,3.47h5.66l1.29-1.4,2.46,2.07c-.22,.25-.59,.42-1.23,.48-.2,10.64-.64,16.58-2.02,18.17-.84,.98-1.99,1.43-3.5,1.43,0-.76-.11-1.34-.56-1.71-.45-.36-1.62-.73-2.83-.95l.03-.48c1.29,.14,3.3,.31,3.98,.31,.53,0,.76-.08,1.06-.39,1.04-1.01,1.4-7.14,1.6-16.72h-6.33c-1.23,2.35-2.69,4.37-4.31,5.91l-.36-.25c1.74-2.8,3.42-7.17,4.28-11.48l3.3,.98c-.11,.31-.42,.56-1.06,.56Zm-.98,15.23c-.28-1.93-1.79-4.31-3.11-5.8l.28-.2c7.17,2.83,5.12,7.84,2.83,5.99Z"/>
      <path class="cls-1" d="M12.54,42.11v1.01H4.93v17.11h-1.06v-18.12H12.54Z"/>
      <path class="cls-1" d="M25.45,49.22c-.08,.31-.34,.45-.73,.45h-2.94v2.3c5.32,2.44,3.47,6.08,1.68,4.56-.2-1.18-.92-2.66-1.68-3.78v14.53c0,.28-.9,.81-1.65,.81h-.45v-12.43c-.92,2.16-2.16,4.12-3.67,5.88l-.42-.36c1.9-3.19,3.05-7.39,3.7-11.51h-3.33l-.22-.81h3.95v-6.75l3.11,.34c-.06,.42-.28,.67-1.01,.78v5.63h.25l1.18-1.65s1.4,1.15,2.24,2.02Zm5.66-5.8v12.35c-.06,5.74-1.88,9.72-7.73,12.29l-.31-.36c4.51-2.72,5.99-6.33,6.05-11.65-.81,1.04-1.9,2.35-3.19,3.84,.03,.31-.14,.67-.39,.84l-1.65-2.27c.95-.5,3.08-1.85,5.24-3.3v-12.82l2.97,.31c-.06,.39-.28,.67-.98,.78Zm-4.09,8.99c-.14-1.71-1.15-3.92-2.04-5.35l.36-.17c5.4,3.19,3.5,7.2,1.68,5.52Zm8.57-8.93v7.56c1.04-1.57,2.13-3.44,2.66-4.54l2.66,1.74c-.14,.25-.53,.48-1.09,.28-.9,.95-2.6,2.44-4.23,3.64v2.32c6.44,2.6,4.87,6.94,2.74,5.38-.36-1.46-1.57-3.16-2.74-4.51v9.1c0,.56,.14,.78,.84,.78h1.37c.62,0,1.12,0,1.4-.03,.2-.03,.31-.08,.45-.28,.2-.31,.56-1.82,.78-3.05h.34l.11,3.14c.64,.31,.84,.5,.84,.92,0,.87-.9,1.23-4,1.23l-1.79-.03c-1.9,0-2.35-.59-2.35-2.1v-22.68l3.02,.36c-.06,.36-.31,.64-1.01,.76Z"/>
      <path class="cls-1" d="M47.4,68.04h-.39v-25.37l2.44,1.12h17.44l1.23-1.34,2.52,2.02c-.2,.25-.64,.42-1.2,.56v22.01c-.03,.2-1.09,.78-1.9,.78h-.36v-1.82h-17.95v1.15c0,.34-.81,.9-1.82,.9Zm1.82-23.41v20.55h17.95v-20.55h-17.95Zm3.19,13.64h-.28v-6.16l2.1,.92h7.59l.98-1.04,2.1,1.6c-.11,.17-.48,.36-.87,.42v3.25l1.74,1.62c-.14,.2-.39,.22-.87,.03-.64,.34-1.6,.78-2.49,1.2,4.42,2.24,3.22,4.7,1.6,3.86-.92-1.32-3.42-3.44-6.52-5.07l.2-.45c1.6,.39,2.88,.81,3.92,1.26,.7-.67,1.46-1.51,2.04-2.21-.34,.17-.87,.34-1.26,.34h-.34v-.59h-3.72c-.76,.73-1.65,1.4-2.66,1.99v2.97l3.98-1.15,.14,.42c-1.06,.56-3.14,1.76-5.26,2.83-.11,.25-.28,.42-.42,.5l-1.29-1.68c.81-.56,.95-.76,.95-1.12v-1.79c-1.29,.56-2.66,1.04-4.09,1.43l-.28-.48c2.55-.98,4.84-2.35,6.47-3.92h-1.76v.42c0,.17-.87,.59-1.68,.59Zm6.58-12.1v1.51h2.86l1.18-1.43s1.32,1.01,2.18,1.79c-.08,.31-.34,.45-.73,.45h-5.49v2.02h4.12l1.2-1.48s1.4,1.04,2.27,1.85c-.08,.31-.36,.45-.76,.45h-15.62l-.22-.81h6.97v-2.02h-5.43l-.22-.81h5.66v-2.44l2.86,.28c-.06,.34-.25,.56-.81,.64Zm-4.9,7.67v2.6h7.95v-2.6h-7.95Z"/>
      <path class="cls-1" d="M100.27,45.98c-.08,.31-.34,.45-.76,.45h-24.3l-.25-.81h12.29c-.39-1.23-1.74-2.66-2.86-3.42l.22-.22c4.7,.31,5.18,2.86,4.17,3.64h7l1.57-1.96s1.82,1.34,2.91,2.32Zm-23.1,22.06h-.36v-13.3l2.44,1.06h16.97l1.09-1.29,2.6,1.96c-.17,.2-.62,.45-1.18,.53v8.23c0,1.6-.36,2.58-3.22,2.86-.08-.67-.22-1.2-.59-1.54-.42-.34-1.04-.62-2.3-.76v-.39s2.63,.14,3.25,.14c.48,0,.62-.14,.62-.53v-8.4h-17.47v10.67c0,.25-.92,.76-1.85,.76Zm4.09-13.19h-.34v-7.28l2.35,1.01h8.6l1.15-1.26,2.58,1.93c-.2,.22-.64,.45-1.18,.56v4.23c-.03,.17-1.18,.59-1.9,.59h-.36v-1.12h-9.02v.67c0,.17-.98,.67-1.88,.67Zm1.57,10.61h-.31v-7.62l2.24,.95h5.49l1.09-1.15,2.35,1.76c-.17,.22-.59,.42-1.06,.5v4.51c-.03,.17-1.06,.67-1.79,.67h-.34v-1.34h-5.88v1.06c0,.17-.92,.64-1.79,.64Zm9.32-16.04h-9.02v3.25h9.02v-3.25Zm-1.65,10.22h-5.88v3.3h5.88v-3.3Z"/>
      <path class="cls-1" d="M109.7,43.51c5.71,3.05,2.83,5.74,1.51,4.23-.31-.95-.9-2.38-1.74-3.72-.78,1.65-1.93,3.56-3.28,5.18h3.08l1.15-1.46s1.34,1.04,2.13,1.85c-.06,.31-.31,.45-.67,.45h-2.27v4.09h.48l1.15-1.57s1.29,1.12,2.07,1.93c-.06,.31-.34,.45-.7,.45h-3v8.54l3.95-1.06,.11,.39c-1.88,.95-4.54,2.32-8.04,3.89-.11,.34-.36,.62-.62,.7l-1.01-2.6c.78-.14,2.07-.42,3.67-.84v-9.02h-3.22l-.22-.81h3.44v-4.09h-1.99l-.06-.2c-.5,.56-1.04,1.06-1.57,1.51l-.34-.28c1.71-2.3,3.3-6.36,3.89-8.93l3.11,.78c-.08,.31-.34,.5-1.04,.56v.03Zm-4.28,18.42c.11-1.71-.48-3.95-1.04-5.4l.42-.14c3.75,3.7,1.99,7.08,.62,5.54Zm7.11-4.59c-.45,1.54-1.09,3.39-1.82,4.65l-.5-.17c.31-1.57,.62-3.84,.78-5.77l2.52,.7c-.11,.34-.39,.59-.98,.59Zm9.74,3.47c-.06,.31-.31,.45-.7,.45h-3.02v2.04l3.75-.59,.06,.42c-1.74,.67-4.23,1.65-7.7,2.77-.14,.39-.36,.59-.62,.67l-1.32-2.41c.84-.08,2.24-.31,3.89-.56v-2.35h-3.05l-.22-.81h3.28v-2.1c-1.09,.17-2.21,.31-3.25,.36l-.14-.5c2.35-.53,5.26-1.6,6.78-2.41l-.22,.03h-.28v-.64h-3.75v.67c0,.17-.78,.56-1.54,.56h-.25v-6.19l1.93,.84h3.36l.95-1.01,2.07,1.6c-.14,.17-.5,.39-.98,.45v3.14c-.03,.17-.64,.45-1.18,.56l1.93,1.79c-.25,.25-.73,.22-1.34-.03-.62,.14-1.34,.31-2.16,.45v2.44h.67l1.04-1.23s1.26,.9,2.02,1.6Zm5.57-13.66c.39,.31,1.43,1.2,2.13,1.85-.06,.31-.34,.45-.73,.45h-4.62c.03,3.28,.2,6.38,.67,8.99,.84-2.21,1.37-4.54,1.65-6.8l3,.73c-.11,.36-.34,.53-1.15,.53-.56,2.66-1.46,5.46-2.91,8.04,.42,1.34,.95,2.49,1.65,3.39,.31,.48,.39,.45,.64-.14,.31-.67,.76-1.96,1.06-3.11l.34,.06-.45,4.37c.64,1.23,.73,1.82,.42,2.1-.81,.81-2.35-.17-3.14-1.26-.76-.98-1.37-2.1-1.85-3.39-1.51,1.99-3.44,3.75-5.99,5.07l-.28-.36c2.49-1.65,4.37-3.89,5.71-6.38-.92-3.25-1.23-7.28-1.37-11.82h-9.66l-.22-.81h3.95v-2.21h-3l-.22-.84h3.22v-3.14l2.88,.31c-.06,.34-.28,.59-.92,.7v2.13h.56l1.09-1.4s1.29,1.01,2.07,1.79c-.08,.31-.36,.45-.7,.45h-3.02v2.21h3.98c-.06-2.02-.06-4.14-.06-6.33l3.11,.36c-.06,.36-.31,.67-1.01,.78l-.06,5.18h1.71l1.12-1.46c-.22-.03-.48-.11-.7-.31-.17-1.04-.9-2.3-1.54-3.08l.31-.17c3.56,1.09,3.33,3.16,2.32,3.53Zm-8.34,7.22v-2.46h-3.75v2.46h3.75Z"/>
      <path class="cls-1" d="M139.33,62.44c.64-3.67,1.37-8.4,1.82-11.82l3.25,.95c-.11,.31-.45,.59-1.09,.56-.7,2.72-1.96,6.75-3.19,10.11l4.42-1.12,.08,.36c-2.13,1.06-5.18,2.55-9.44,4.34-.11,.36-.34,.62-.64,.7l-1.29-2.69c1.18-.22,3.42-.76,6.08-1.4Zm6.44-13.3c-.08,.31-.34,.45-.73,.45h-11.54l-.22-.81h8.62l1.4-1.93s1.57,1.34,2.46,2.3Zm-9.6,11.37c-.03-2.24-.31-6.44-1.62-9.35l.42-.17c5.54,6.61,2.6,11.79,1.2,9.52Zm2.21-12.82c-.14-1.68-1.09-3.81-1.88-5.24l.34-.14c5.8,2.94,3.58,7.22,1.54,5.38Zm13.69-4.37v5.52h3.22l1.34-1.74s1.51,1.2,2.44,2.13c-.06,.31-.31,.45-.73,.45h-6.27v5.94h2.55l1.09-1.32,2.32,1.79c-.2,.25-.45,.39-1.06,.5v10.56c0,.17-.81,.64-1.88,.64h-.36v-1.85h-7.53v1.46c0,.2-.67,.64-1.82,.64h-.34v-13.47l2.46,1.04h2.38v-13.41l3.22,.34c-.06,.39-.31,.67-1.04,.78Zm2.66,21.81v-8.71h-7.53v8.71h7.53Z"/>
      <path class="cls-1" d="M162.51,68.15v-1.01h7.62v-17.11h1.06v18.12h-8.68Z"/>
      <path class="cls-1" d="M181.36,57.85c1.74-.87,2.74-1.68,3.19-3.22-1.74-.81-2.32-1.57-2.32-2.46,0-1.04,.76-1.85,1.9-1.85,.64,0,1.15,.14,1.62,.59,.28,.64,.36,1.06,.36,1.79,0,3.02-1.71,4.93-4.4,5.94l-.36-.78Z"/>
      <path class="cls-1" d="M208.85,42.87c-.08,.34-.42,.62-1.04,.64-.64,1.04-1.65,2.35-2.72,3.5h7.67l1.23-1.4,2.6,2.07c-.2,.22-.62,.48-1.2,.59v18.84c-.06,.22-1.18,.81-2.02,.81h-.34v-1.93h-12.77v1.12c0,.31-.87,.87-1.88,.87h-.39v-22.09l2.49,1.12h3.64c.42-1.46,.78-3.39,.95-4.79l3.75,.64Zm-8.57,4.96v5.1h12.77v-5.1h-12.77Zm0,11.17h12.77v-5.26h-12.77v5.26Zm0,6.16h12.77v-5.35h-12.77v5.35Z"/>
      <path class="cls-1" d="M223.47,64.09c1.82-1.99,3.61-3.98,4.98-5.46,3.08-3.39,4.26-5.35,4.26-7.81s-1.43-4.34-3.89-4.34c-.62,0-1.2,.11-1.85,.31l-.78,2.38c-.28,1.23-.84,1.62-1.48,1.62-.56,0-1.04-.34-1.29-.87,.53-2.77,3.16-4.34,6.24-4.34,3.89,0,5.85,2.13,5.85,5.29,0,2.58-1.74,4.76-6.27,8.71-.84,.78-2.44,2.32-4.06,3.95h11.09v2.24h-12.8v-1.68Z"/>
      <path class="cls-1" d="M253.34,55.94c0,7.28-3.11,10.25-6.47,10.25s-6.5-2.97-6.5-10.25,3.08-10.36,6.5-10.36,6.47,3.05,6.47,10.36Zm-6.47,9.35c1.93,0,3.81-2.18,3.81-9.35s-1.88-9.46-3.81-9.46-3.81,2.21-3.81,9.46,1.82,9.35,3.81,9.35Z"/>
      <path class="cls-1" d="M270.42,55.94c0,7.28-3.11,10.25-6.47,10.25s-6.5-2.97-6.5-10.25,3.08-10.36,6.5-10.36,6.47,3.05,6.47,10.36Zm-6.47,9.35c1.93,0,3.81-2.18,3.81-9.35s-1.88-9.46-3.81-9.46-3.81,2.21-3.81,9.46,1.82,9.35,3.81,9.35Z"/>
      <path class="cls-1" d="M285.63,48.27h-10.92v-2.24h12.35v1.43l-7.2,18.31h-2.55l-.25-.2,8.57-17.3Z"/>
      <path class="cls-1" d="M301.67,43.12c-.14,.31-.48,.53-1.12,.48-.5,.98-1.06,1.9-1.62,2.8h12.82l1.57-1.93s1.76,1.32,2.88,2.32c-.08,.31-.36,.45-.73,.45h-8.65v5.29h4.31l1.48-1.82s1.65,1.26,2.69,2.18c-.06,.31-.34,.45-.76,.45h-7.73v6.58h5.85l1.6-1.96s1.79,1.37,2.91,2.32c-.06,.31-.36,.45-.78,.45h-9.58v6.58c-.03,.17-.78,.73-2.02,.73h-.42v-7.31h-12.8l-.25-.81h4.9v-8.48l2.69,1.09h5.46v-5.29h-6.05c-1.99,2.77-4.31,5.01-6.78,6.58l-.34-.31c2.6-2.63,5.4-7.06,7.08-11.73l3.36,1.34Zm2.72,10.22h-5.82v6.58h5.82v-6.58Z"/>
      <path class="cls-1" d="M346.39,45.98c-.08,.31-.34,.45-.76,.45h-24.3l-.25-.81h12.29c-.39-1.23-1.74-2.66-2.86-3.42l.22-.22c4.7,.31,5.18,2.86,4.17,3.64h7l1.57-1.96s1.82,1.34,2.91,2.32Zm-23.1,22.06h-.36v-13.3l2.44,1.06h16.97l1.09-1.29,2.6,1.96c-.17,.2-.62,.45-1.18,.53v8.23c0,1.6-.36,2.58-3.22,2.86-.08-.67-.22-1.2-.59-1.54-.42-.34-1.04-.62-2.3-.76v-.39s2.63,.14,3.25,.14c.48,0,.62-.14,.62-.53v-8.4h-17.47v10.67c0,.25-.92,.76-1.85,.76Zm4.09-13.19h-.34v-7.28l2.35,1.01h8.6l1.15-1.26,2.58,1.93c-.2,.22-.64,.45-1.18,.56v4.23c-.03,.17-1.18,.59-1.9,.59h-.36v-1.12h-9.02v.67c0,.17-.98,.67-1.88,.67Zm1.57,10.61h-.31v-7.62l2.24,.95h5.49l1.09-1.15,2.35,1.76c-.17,.22-.59,.42-1.06,.5v4.51c-.03,.17-1.06,.67-1.79,.67h-.34v-1.34h-5.88v1.06c0,.17-.92,.64-1.79,.64Zm9.32-16.04h-9.02v3.25h9.02v-3.25Zm-1.65,10.22h-5.88v3.3h5.88v-3.3Z"/>
      <path class="cls-1" d="M355.82,43.51c5.71,3.05,2.83,5.74,1.51,4.23-.31-.95-.9-2.38-1.74-3.72-.78,1.65-1.93,3.56-3.28,5.18h3.08l1.15-1.46s1.34,1.04,2.13,1.85c-.06,.31-.31,.45-.67,.45h-2.27v4.09h.48l1.15-1.57s1.29,1.12,2.07,1.93c-.06,.31-.34,.45-.7,.45h-3v8.54l3.95-1.06,.11,.39c-1.88,.95-4.54,2.32-8.04,3.89-.11,.34-.36,.62-.62,.7l-1.01-2.6c.78-.14,2.07-.42,3.67-.84v-9.02h-3.22l-.22-.81h3.44v-4.09h-1.99l-.06-.2c-.5,.56-1.04,1.06-1.57,1.51l-.34-.28c1.71-2.3,3.3-6.36,3.89-8.93l3.11,.78c-.08,.31-.34,.5-1.04,.56v.03Zm-4.28,18.42c.11-1.71-.48-3.95-1.04-5.4l.42-.14c3.75,3.7,1.99,7.08,.62,5.54Zm7.11-4.59c-.45,1.54-1.09,3.39-1.82,4.65l-.5-.17c.31-1.57,.62-3.84,.78-5.77l2.52,.7c-.11,.34-.39,.59-.98,.59Zm9.74,3.47c-.06,.31-.31,.45-.7,.45h-3.02v2.04l3.75-.59,.06,.42c-1.74,.67-4.23,1.65-7.7,2.77-.14,.39-.36,.59-.62,.67l-1.32-2.41c.84-.08,2.24-.31,3.89-.56v-2.35h-3.05l-.22-.81h3.28v-2.1c-1.09,.17-2.21,.31-3.25,.36l-.14-.5c2.35-.53,5.26-1.6,6.78-2.41l-.22,.03h-.28v-.64h-3.75v.67c0,.17-.78,.56-1.54,.56h-.25v-6.19l1.93,.84h3.36l.95-1.01,2.07,1.6c-.14,.17-.5,.39-.98,.45v3.14c-.03,.17-.64,.45-1.18,.56l1.93,1.79c-.25,.25-.73,.22-1.34-.03-.62,.14-1.34,.31-2.16,.45v2.44h.67l1.04-1.23s1.26,.9,2.02,1.6Zm5.57-13.66c.39,.31,1.43,1.2,2.13,1.85-.06,.31-.34,.45-.73,.45h-4.62c.03,3.28,.2,6.38,.67,8.99,.84-2.21,1.37-4.54,1.65-6.8l3,.73c-.11,.36-.34,.53-1.15,.53-.56,2.66-1.46,5.46-2.91,8.04,.42,1.34,.95,2.49,1.65,3.39,.31,.48,.39,.45,.64-.14,.31-.67,.76-1.96,1.06-3.11l.34,.06-.45,4.37c.64,1.23,.73,1.82,.42,2.1-.81,.81-2.35-.17-3.14-1.26-.76-.98-1.37-2.1-1.85-3.39-1.51,1.99-3.44,3.75-5.99,5.07l-.28-.36c2.49-1.65,4.37-3.89,5.71-6.38-.92-3.25-1.23-7.28-1.37-11.82h-9.66l-.22-.81h3.95v-2.21h-3l-.22-.84h3.22v-3.14l2.88,.31c-.06,.34-.28,.59-.92,.7v2.13h.56l1.09-1.4s1.29,1.01,2.07,1.79c-.08,.31-.36,.45-.7,.45h-3.02v2.21h3.98c-.06-2.02-.06-4.14-.06-6.33l3.11,.36c-.06,.36-.31,.67-1.01,.78l-.06,5.18h1.71l1.12-1.46c-.22-.03-.48-.11-.7-.31-.17-1.04-.9-2.3-1.54-3.08l.31-.17c3.56,1.09,3.33,3.16,2.32,3.53Zm-8.34,7.22v-2.46h-3.75v2.46h3.75Z"/>
      <path class="cls-1" d="M392.39,44.24c-2.24,.5-5.63,1.04-8.74,1.23v2.21h6.66l1.04-1.09,2.27,1.71c-.17,.2-.59,.39-1.06,.48v5.21c-.03,.2-1.04,.62-1.65,.62h-.34v-1.23h-6.92c-.03,.81-.06,1.65-.11,2.52l2.02,.9h4.82l1.01-1.09,2.21,1.68c-.17,.2-.56,.39-1.04,.48v7.56c-.03,.2-.95,.67-1.62,.67h-.31v-1.57h-5.21v2.27c0,.2-.76,.62-1.57,.62h-.31v-11.42c-.25,3.5-1.06,7.31-3.7,10.19l-.42-.31c2.16-4.12,2.24-9.18,2.24-13.78v-7.78l1.76,.59c3-.64,6.41-1.74,8.29-2.63l2.13,2.02c-.28,.25-.78,.25-1.46-.03Zm-1.82,4.26h-6.92v4.03h6.92v-4.03Zm-5.15,9.1v6.1h5.21v-6.1h-5.21Zm12.99-13.8c-.39,1.62-.87,3.16-1.46,4.62h4.62l1.46-1.85s1.62,1.29,2.63,2.21c-.08,.31-.36,.45-.76,.45h-1.48c-.53,4.34-1.57,8.2-3.64,11.45,1.54,2.18,3.5,4,6.05,5.35l-.08,.28c-1.04,.17-1.76,.73-2.07,1.76-2.16-1.54-3.81-3.5-5.04-5.8-1.85,2.3-4.31,4.26-7.62,5.8l-.25-.36c3.14-2.04,5.38-4.51,6.97-7.28-1.12-2.63-1.82-5.57-2.3-8.76-.64,1.15-1.37,2.21-2.18,3.11l-.42-.25c1.46-3.08,2.69-7.67,3.19-12.15l3.42,.81c-.11,.36-.39,.62-1.04,.62Zm-2.49,6.97c.56,2.94,1.43,5.6,2.69,7.95,1.29-2.86,1.96-6.05,2.3-9.49h-4.28l-.7,1.54Z"/>
      <path class="cls-1" d="M410,49.42l2.27,.95h2.69v-2.16h-5.82l-.22-.81h6.05v-2.27c-1.93,.17-3.92,.31-5.8,.34l-.11-.5c3.98-.56,8.99-1.82,11.62-2.8l2.24,2.24c-.28,.22-.81,.22-1.48-.06-1.26,.2-2.77,.39-4.42,.59v2.46h2.97l1.34-1.65s1.48,1.15,2.41,2.02c-.06,.31-.34,.45-.73,.45h-5.99v2.16h3.05l.98-1.18,2.16,1.65c-.17,.2-.45,.36-1.04,.48v6.78c0,.11-.73,.56-1.68,.56h-.36v-.67h-3.11v2.63h2.35l1.23-1.54s1.4,1.09,2.3,1.9c-.08,.31-.34,.45-.73,.45h-5.15v2.49l5.85-.78,.08,.45c-2.8,.92-6.69,2.1-12.15,3.53-.17,.34-.45,.56-.73,.64l-1.15-2.88c1.26-.08,3.42-.34,6.05-.67v-2.77h-5.4l-.22-.81h5.63v-2.63h-3v.59c0,.17-.64,.59-1.62,.59h-.34v-9.74Zm4.96,1.76h-3v2.58h3v-2.58Zm-3,3.39v2.6h3v-2.6h-3Zm8.15-.81v-2.58h-3.11v2.58h3.11Zm-3.11,3.42h3.11v-2.6h-3.11v2.6Zm12.32-14.31c-.08,.42-.34,.7-1.01,.78l-.06,5.43h3.19l1.23-1.34,2.32,1.99c-.17,.25-.53,.42-1.15,.48-.17,10.36-.56,14.92-1.79,16.38-.78,.87-1.88,1.23-3.05,1.23,0-.7-.08-1.26-.42-1.6-.36-.34-1.23-.62-2.16-.81v-.45c.95,.08,2.44,.2,2.97,.2,.5,0,.73-.08,1.01-.34,.84-.87,1.18-5.71,1.34-14.92h-3.5c-.17,8.26-1.12,14.2-7.9,18.26l-.36-.48c5.24-4.2,6.05-9.91,6.13-17.78h-3l-.25-.81h3.25v-6.55l3.19,.34Z"/>
      <path class="cls-1" d="M442.09,61.82l-.28-18.14,3.28,.28c-.03,.39-.25,.64-.98,.76l.25,16.38c2.27-.73,4.82-1.57,7.34-2.46l.11,.39c-2.74,1.54-6.52,3.61-11.73,6.02-.08,.31-.34,.62-.62,.73l-1.37-2.8c.9-.22,2.32-.62,4-1.15Zm20.3-17.7c-.08,.42-.42,.73-1.09,.81-.25,5.88-.7,10.86-3.67,14.98,8.46,4.03,7.08,9.24,4.42,7.56-.84-2.13-3.02-4.82-4.98-6.86-2.35,2.94-6.13,5.4-12.21,7.42l-.28-.53c13.02-5.8,14.03-13.1,14.25-23.74l3.56,.36Zm-10.44,9.24c-.64-2.07-2.77-4.65-4.37-6.33l.28-.2c8.26,3.05,6.61,8.2,4.09,6.52Z"/>
      <path class="cls-1" d="M489.35,49.34c-.08,.34-.42,.62-1.01,.62-.28,.87-.59,1.68-.95,2.44,6.16,2.18,4.65,6.38,2.49,4.96-.39-1.37-1.65-3-2.86-4.23-.95,1.74-2.13,3.14-3.53,4.14,2.58,3.33,6.36,5.91,10.22,7.11l-.06,.28c-.9,.17-1.68,.9-1.96,1.99-4.45-2.1-7.95-5.85-10.02-10.98v11.51c0,.31-.98,.9-1.82,.9h-.45v-9.69c-2.77,3.33-7,6.44-11.56,8.32l-.22-.42c4.87-2.63,9.58-7.36,11.79-12.54v-6.13h-11.09l-.25-.81h11.34v-4.51l3.28,.34c-.06,.39-.28,.67-1.01,.78v3.39h7.17l1.54-1.9s1.74,1.32,2.86,2.27c-.08,.31-.39,.45-.78,.45h-10.78v6.75c.39,.84,.9,1.62,1.43,2.38,1.48-2.04,2.6-4.93,3.05-8.18l3.19,.78Zm-12.66,.17c-.11,.34-.45,.59-1.04,.56-.28,.78-.62,1.51-.95,2.21,4.73,1.96,3,5.38,1.15,3.95-.2-.98-.84-2.16-1.6-3.14-1.32,2.32-3,4.12-4.93,5.35l-.36-.31c2.04-2.18,3.78-5.63,4.62-9.58l3.11,.95Z"/>
      <path class="cls-1" d="M500.27,57.85c1.74-.87,2.74-1.68,3.19-3.22-1.74-.81-2.32-1.57-2.32-2.46,0-1.04,.76-1.85,1.9-1.85,.64,0,1.15,.14,1.62,.59,.28,.64,.36,1.06,.36,1.79,0,3.02-1.71,4.93-4.4,5.94l-.36-.78Z"/>
      <path class="cls-1" d="M538.38,56.17c-.06,.31-.34,.45-.73,.45h-3.98c-.17,2.32-.34,4.23-.59,5.74h.9l1.34-1.76s1.51,1.23,2.44,2.13c-.08,.31-.36,.45-.76,.45h-4.06c-.34,1.85-.78,3.05-1.37,3.64-.84,.9-1.99,1.23-3.36,1.23,0-.67-.08-1.18-.5-1.54-.39-.36-1.43-.67-2.49-.87l.03-.48c1.09,.11,2.91,.28,3.53,.28,.5,0,.76-.11,1.09-.36,.31-.28,.56-.92,.78-1.9h-12.07l-.98,1.12-2.32-1.6c.25-.2,.64-.42,1.04-.59,.31-1.43,.64-3.42,.98-5.49h-4.48l-.25-.84h4.84c.42-2.83,.81-5.74,.98-7.76l2.72,1.34h10.33l1.29-1.37,2.38,2.04c-.2,.25-.56,.42-1.18,.45-.06,1.96-.14,3.7-.22,5.29h.87l1.37-1.79s1.51,1.26,2.44,2.18Zm-1.01-10.08c-.08,.31-.36,.45-.76,.45h-17.11c-.36,.53-.73,1.01-1.12,1.48-1.46,1.76-3.08,3.14-4.76,4.17l-.34-.31c2.16-2.21,4.42-5.88,5.71-9.83l3.25,1.34c-.14,.31-.5,.5-1.12,.45-.34,.64-.7,1.29-1.06,1.88h12.99l1.51-1.88s1.71,1.26,2.8,2.24Zm-6.55,16.27c.25-1.43,.45-3.33,.62-5.74h-11.93c-.34,2.07-.7,4.12-.98,5.74h12.29Zm.67-6.58c.08-1.65,.17-3.53,.22-5.6h-11.28c-.2,1.57-.48,3.56-.78,5.6h11.84Zm-5.6,5.71c-.67-1.32-2.49-2.91-3.86-3.72l.25-.28c6.86,.67,5.88,5.12,3.61,4Zm.39-6.66c-.62-1.26-2.3-2.77-3.61-3.56l.22-.28c6.55,.73,5.54,4.9,3.39,3.84Z"/>
      <path class="cls-1" d="M552.27,43.12c-.14,.31-.48,.53-1.12,.48-.5,.98-1.06,1.9-1.62,2.8h12.82l1.57-1.93s1.76,1.32,2.88,2.32c-.08,.31-.36,.45-.73,.45h-8.65v5.29h4.31l1.48-1.82s1.65,1.26,2.69,2.18c-.06,.31-.34,.45-.76,.45h-7.73v6.58h5.85l1.6-1.96s1.79,1.37,2.91,2.32c-.06,.31-.36,.45-.78,.45h-9.58v6.58c-.03,.17-.78,.73-2.02,.73h-.42v-7.31h-12.8l-.25-.81h4.9v-8.48l2.69,1.09h5.46v-5.29h-6.05c-1.99,2.77-4.31,5.01-6.78,6.58l-.34-.31c2.6-2.63,5.4-7.06,7.08-11.73l3.36,1.34Zm2.72,10.22h-5.82v6.58h5.82v-6.58Z"/>
      <path class="cls-1" d="M581.19,42.62c-.06,.39-.31,.67-1.01,.76v2.16h2.18l1.29-1.68s1.48,1.18,2.38,2.04c-.08,.28-.34,.42-.73,.42h-5.12v2.74h6.92c-.11-2.16-.17-4.42-.17-6.78l3.28,.39c-.06,.34-.28,.67-1.01,.76-.03,1.9-.03,3.81,.06,5.63h3.67l1.46-1.76c-.31,.08-.67,.03-1.06-.2-.42-1.23-1.88-2.69-3.08-3.47l.25-.25c5.1,.62,5.24,3.44,4,3.89,.17,.14,1.71,1.29,2.69,2.18-.08,.31-.36,.45-.78,.45h-7.11c.2,3.28,.62,6.33,1.46,8.88,1.06-2.24,1.76-4.62,2.21-6.92l3.19,.84c-.11,.36-.36,.53-1.09,.53-.73,2.55-1.82,5.21-3.44,7.67,.73,1.51,1.71,2.77,2.94,3.67,.42,.42,.56,.39,.81-.14,.34-.7,.9-2.1,1.23-3.25l.36,.06-.48,4.34c.81,1.18,.9,1.74,.62,2.07-.81,.98-2.52,.11-3.7-.9-1.32-1.06-2.38-2.38-3.25-3.95-1.68,2.02-3.81,3.78-6.5,5.07l-.25-.34c2.52-1.65,4.51-3.84,5.99-6.27-1.32-3.14-1.96-7-2.24-11.37h-15.48l-.25-.84h6.55v-2.74h-4.73l-.22-.78h4.96v-3.22l3.22,.31Zm-7.84,11.73l2.1,.92h2.58v-1.82h-5.52l-.22-.84h5.74v-2.41l2.88,.31c-.03,.34-.22,.56-.78,.64v1.46h2.74l1.26-1.46s1.43,1.04,2.32,1.85c-.06,.31-.34,.45-.7,.45h-5.63v1.82h2.52l.98-1.04,2.07,1.6c-.14,.17-.45,.34-.87,.42v5.04c-.03,.2-.98,.67-1.65,.67h-.31v-.64h-2.74v2.1h3.3l1.26-1.6s1.48,1.12,2.38,1.96c-.08,.31-.34,.45-.73,.45h-6.22v3.02c0,.25-.92,.73-1.71,.73h-.39v-3.75h-6.13l-.22-.81h6.36v-2.1h-2.69v.34c0,.17-.9,.62-1.68,.62h-.31v-7.92Zm4.68,1.71h-2.69v1.79h2.69v-1.79Zm-2.69,2.63v1.82h2.69v-1.82h-2.69Zm7.53-.84v-1.79h-2.74v1.79h2.74Zm-2.74,2.66h2.74v-1.82h-2.74v1.82Z"/>
      <path class="cls-1" d="M4.37,87.92H22.43l1.32-1.32,2.38,2.27c-.22,.2-.53,.25-1.06,.28-.73,1.01-1.96,2.38-2.97,3.22l-.31-.2c.25-.92,.59-2.32,.81-3.42H9.91l2.86,1.46c-.17,.28-.59,.48-1.15,.34l-.78,1.04h6.5l1.65-1.43,2.46,2.38c-.28,.22-.67,.28-1.46,.31-1.23,1.54-2.88,3-4.84,4.34,3.28,1.57,7.28,2.49,11.34,2.97l-.03,.34c-1.01,.2-1.68,.92-1.93,2.02-1.29-.25-2.52-.56-3.72-.92l.76,.56c-.17,.22-.56,.42-1.09,.53v6.52c-.03,.17-1.15,.64-1.9,.64h-.36v-1.71H8.71v1.06c0,.2-.73,.76-1.82,.76h-.39v-8.43c-1.9,.7-3.89,1.26-5.88,1.71l-.22-.42c4.26-1.26,8.48-3.33,11.84-5.71-1.2-1.06-2.27-2.24-3.11-3.61-2.13,2.07-4.56,3.61-6.97,4.59l-.28-.39c2.77-1.79,5.85-5.1,7.81-8.93H4.45c.08,1.88-.67,3.11-1.51,3.67-.73,.53-1.82,.5-2.16-.25-.28-.7,.14-1.32,.81-1.68,1.06-.59,2.1-2.18,1.99-3.92l.45-.03c.17,.48,.28,.95,.34,1.37Zm13.58,13.61l.64-.73c-1.82-.7-3.5-1.57-4.98-2.63-1.79,1.06-3.75,2.02-5.8,2.86l1.23,.5h8.9Zm-9.24,5.8h9.49v-4.98H8.71v4.98Zm1.46-14.92l-.59,.62c1.01,1.23,2.3,2.32,3.78,3.22,1.57-1.23,2.86-2.52,3.81-3.84h-7Zm2.86-4.84c-.2-1.15-1.18-2.49-2.13-3.19l.25-.22c5.88,.42,4.14,4.87,1.88,3.42Z"/>
      <path class="cls-1" d="M41.55,105.48v-2.13h-4.96v.64c0,.22-.98,.73-1.9,.73h-.34v-9.07l2.44,1.04h11.7l1.18-1.32,2.6,1.96c-.17,.25-.64,.48-1.2,.59v5.63c-.06,.17-1.2,.62-1.93,.62h-.34v-.81h-5.07v2.13h6.02l1.37-1.68s1.54,1.18,2.49,2.04c-.08,.31-.36,.45-.73,.45h-9.16v2.32h7.62l1.46-1.85s1.68,1.29,2.72,2.21c-.08,.31-.36,.45-.76,.45H30.32l-.25-.81h11.48v-2.32h-9.1l-.25-.81h9.35Zm9.8-11.45l1.4-1.71s1.57,1.2,2.55,2.1c-.06,.31-.36,.45-.76,.45H30.41l-.25-.84h21.2Zm-16.72-9.24l2.41,1.04h11.12l1.15-1.29,2.55,1.93c-.17,.2-.62,.45-1.18,.56v5.54c-.03,.2-1.15,.64-1.88,.64h-.36v-1.01h-11.56v.59c0,.2-1.01,.7-1.9,.7h-.34v-8.71Zm6.92,14.81v-2.1h-4.96v2.1h4.96Zm-4.96,2.97h4.96v-2.16h-4.96v2.16Zm11.84-15.96h-11.56v1.96h11.56v-1.96Zm-11.56,2.77v2.04h11.56v-2.04h-11.56Zm11.93,8.12h-5.07v2.1h5.07v-2.1Zm-5.07,2.91v2.16h5.07v-2.16h-5.07Z"/>
      <path class="cls-1" d="M61.52,108.72c-.56,.67-1.71,.81-2.16,.11-.34-.59,0-1.32,.59-1.76,.84-.76,1.79-2.66,1.76-4.42l.48,.03c.76,2.91,.2,5.07-.67,6.05Zm7.42-7.81c-.06-.56-.22-1.18-.48-1.79-1.76,.56-4.37,1.37-7.2,2.1-.2,.28-.42,.48-.67,.56l-1.09-2.8s.64-.11,.87-.28c1.54-1.18,3.42-3.3,4.96-5.43-1.18,.36-2.66,.76-4.17,1.12-.2,.31-.42,.53-.64,.62l-1.12-2.77s.56-.11,.76-.25c1.74-1.6,3.95-5.63,4.73-7.84l3,1.6c-.14,.22-.48,.45-1.04,.39-1.26,1.85-3.53,4.45-5.57,6.19,1.32,0,3.02,0,4.76-.03,.78-1.15,1.46-2.21,1.88-3.08l2.8,1.82c-.14,.22-.53,.45-1.09,.31-1.68,2.27-4.98,5.52-7.92,7.67,1.68-.11,4.03-.31,6.52-.53-.48-1.06-1.12-2.13-1.68-2.91l.36-.17c5.74,3.14,3.89,7.11,2.04,5.52Zm-4.37,6.55c.31-1.71,.11-3.81-.25-5.29l.39-.11c3.84,3.72,1.4,7.34-.14,5.4Zm4.42-.98c-.03-1.57-.84-3.56-1.68-4.79l.36-.17c5.07,2.6,3.11,6.61,1.32,4.96Zm7.17-20.69c-.42,1.29-.9,2.55-1.43,3.75h6.75l1.29-1.37,2.38,2.04c-.25,.22-.59,.39-1.23,.45-.34,10.56-1.09,16.32-2.6,17.98-.87,.98-2.02,1.37-3.44,1.37,0-.7-.11-1.26-.48-1.62-.45-.36-1.51-.67-2.6-.9l.03-.48c1.18,.11,3.02,.28,3.67,.28,.56,0,.81-.08,1.15-.39,1.18-1.06,1.85-7,2.16-16.55h-7.42c-1.18,2.49-2.6,4.7-4.17,6.38l-.42-.25c1.65-3.05,3.22-7.73,4.03-12.21l3.42,.92c-.11,.34-.45,.59-1.06,.59Zm.17,15.29c-.14-2.1-1.46-4.76-2.63-6.47l.36-.2c6.61,3.67,4.48,8.65,2.27,6.66Z"/>
      <path class="cls-1" d="M91.56,96.18c1.15-.39,2.27-.56,3.53-.56,4.14,0,6.78,2.24,6.78,6.05s-2.91,6.52-7.34,6.52c-3.22,0-5.35-1.51-5.82-4.17,.22-.59,.73-.9,1.29-.9,.78,0,1.18,.42,1.43,1.54l.59,2.27c.64,.25,1.29,.36,2.13,.36,3.05,0,4.9-2.02,4.9-5.29,0-3.47-1.82-5.18-4.59-5.18-1.23,0-2.32,.17-3.36,.62l-.7-.25,.64-9.16h10.25v2.24h-9.3l-.42,5.91Z"/>
      <path class="cls-1" d="M117.07,90.27h-10.92v-2.24h12.35v1.43l-7.2,18.31h-2.55l-.25-.2,8.57-17.3Z"/>
      <path class="cls-1" d="M133.5,102.09v5.68h-2.46v-5.68h-8.4v-1.51l9.02-12.74h1.85v12.35h3.28v1.9h-3.28Zm-2.46-1.9v-10l-7.06,10h7.06Z"/>
      <path class="cls-1" d="M152.96,87.25c-.06,.31-.36,.45-.7,.45h-4.42v1.82c0,.2-1.01,.62-1.85,.62h-.2l.78,.34h12.12l1.15-1.23,2.46,1.88c-.17,.22-.59,.42-1.15,.53v6.47c-.03,.22-1.09,.76-1.82,.76h-.36v-1.2h-5.26v2.32h7.31l1.06-1.29,2.6,1.96c-.17,.2-.62,.45-1.2,.53v5.96c0,1.54-.39,2.49-3.28,2.77-.08-.64-.22-1.18-.62-1.48-.45-.31-1.12-.59-2.44-.73v-.45s2.86,.22,3.5,.22c.5,0,.64-.17,.64-.56v-6.13h-7.59v3.25l3.67-.28c-.5-.73-1.09-1.43-1.68-1.93l.31-.22c6.13,2.04,4.42,6.24,2.49,4.73-.08-.64-.36-1.32-.76-1.99-2.58,.59-5.99,1.32-10.56,2.13-.14,.36-.42,.53-.7,.59l-1.06-2.55c1.29-.03,3.5-.17,6.13-.34v-3.39h-7.06v8.51c0,.17-.73,.73-1.85,.73h-.36v-9.24h-1.79l-.25-.81h2.04v-1.06l2.55,1.06h6.72v-2.32h-5.15v.87c0,.22-.92,.7-1.85,.7h-.31v-9.77l1.29,.56v-2.32h-5.29l-.22-.81h5.52v-2.63l3.14,.31c-.08,.31-.28,.53-.84,.62v1.71h1.51l1.26-1.68s1.48,1.18,2.35,2.04Zm-6.55,4.06v2.32h5.15v-2.32h-5.15Zm5.15,3.14h-5.15v2.38h5.15v-2.38Zm14.08-7.2c-.08,.31-.36,.45-.76,.45h-5.49v1.62c0,.22-1.01,.62-1.85,.62h-.42v-2.24h-3.44l-.22-.81h3.67v-2.69l3.14,.31c-.08,.34-.28,.56-.87,.62v1.76h2.6l1.29-1.68s1.46,1.18,2.35,2.04Zm-11.93,6.38h5.26v-2.32h-5.26v2.32Zm5.26,3.19v-2.38h-5.26v2.38h5.26Z"/>
      <path class="cls-1" d="M195.27,107.58l-.06,.34c-1.2,.17-2.02,.78-2.35,2.04-7.39-4-9.77-10.53-10.61-19.01-.5,6.86-2.55,13.94-12.66,19.1l-.34-.48c10.86-7.08,10.75-16.16,10.78-24.81l3.44,.36c-.06,.39-.31,.7-1.01,.78,.59,10.44,3.14,17.5,12.8,21.67Z"/>
      <path class="cls-1" d="M204.6,93.21c2.18,0,3.92,1.74,3.92,3.92s-1.74,3.95-3.92,3.95-3.95-1.76-3.95-3.95,1.76-3.92,3.95-3.92Zm0,6.92c1.62,0,2.97-1.37,2.97-3s-1.34-2.97-2.97-2.97-3,1.34-3,2.97,1.34,3,3,3Z"/>
      <path class="cls-1" d="M216.19,110.04h-.42v-25.17l2.44,1.12h17.36l1.23-1.37,2.52,2.02c-.2,.25-.64,.45-1.2,.56v21.9c-.03,.2-1.09,.81-1.9,.81h-.36v-1.9h-17.84v1.15c0,.31-.84,.9-1.82,.9Zm1.82-23.24v20.38h17.84v-20.38h-17.84Zm9.6,6.94h3.19l1.37-1.76s1.54,1.23,2.49,2.13c-.08,.31-.36,.45-.76,.45h-6.38c-.06,.59-.14,1.18-.22,1.76,8.43,5.21,7.06,10.25,4.7,8.46-.73-2.32-2.97-5.46-4.84-7.73-.78,3.58-2.66,6.61-7.48,8.85l-.34-.42c4.4-2.86,5.63-6.47,5.99-10.92h-5.57l-.22-.81h5.85c.08-1.71,.08-3.53,.08-5.46l3.22,.28c-.06,.36-.34,.64-.95,.73-.03,1.54-.06,3.02-.14,4.45Z"/>
      <path class="cls-1" d="M247.85,91.59v14.62l3.08-.78v-20.94l3.25,.34c-.08,.39-.31,.67-1.04,.78v8.15h1.29l1.34-1.9s1.51,1.34,2.41,2.3c-.08,.31-.36,.45-.76,.45h-4.28v10.25l4.51-1.18,.08,.39c-2.69,1.32-6.5,3.08-12.01,5.35-.11,.34-.36,.59-.64,.7l-1.71-2.86,2.38-.53v-16.16l3.08,.31c-.06,.39-.28,.64-.98,.73Zm13.24-5.99v8.12h3.36l1.4-1.99s1.57,1.4,2.46,2.38c-.08,.31-.36,.45-.76,.45h-6.47v11.62c0,.64,.2,.9,1.15,.9h2.07c.95,0,1.65-.03,1.99-.06,.28-.03,.45-.08,.59-.36,.25-.45,.62-2.41,.98-4.2h.36l.08,4.37c.7,.28,.92,.53,.92,1.01,0,1.01-1.06,1.43-5.04,1.43h-2.44c-2.27,0-2.91-.62-2.91-2.41v-22.4l3.25,.36c-.06,.36-.31,.67-1.01,.78Z"/>
      <path class="cls-1" d="M276,99.85c1.74-.87,2.74-1.68,3.19-3.22-1.74-.81-2.32-1.57-2.32-2.46,0-1.04,.76-1.85,1.9-1.85,.64,0,1.15,.14,1.62,.59,.28,.64,.36,1.06,.36,1.79,0,3.02-1.71,4.93-4.4,5.94l-.36-.78Z"/>
      <path class="cls-1" d="M310.27,85.62c-.17,.34-.5,.53-1.12,.5-.95,.95-2.38,2.21-3.75,3.25h4.9l1.37-1.37,2.46,2.32c-.2,.22-.53,.28-1.06,.31-.81,.76-2.21,1.82-3.25,2.38l-.31-.2c.28-.7,.64-1.76,.9-2.63h-18.12c.08,1.85-.62,3.11-1.46,3.67-.73,.5-1.88,.48-2.24-.31-.25-.7,.17-1.37,.87-1.76,1.06-.56,2.04-2.16,1.9-3.92l.45-.03c.2,.56,.31,1.06,.39,1.54h7.78v-5.18l3.28,.31c-.06,.36-.31,.64-.98,.76v4.12h2.18c.87-1.46,1.82-3.44,2.44-4.84l3.36,1.09Zm-18.34,13.3l2.44,1.04h13.58l1.18-1.23,2.46,1.88c-.17,.22-.59,.45-1.12,.56v8.01c-.03,.17-1.15,.64-1.88,.64h-.36v-1.48h-14.06v.92c0,.22-.98,.76-1.9,.76h-.34v-11.09Zm3.61-9.88c-.17-1.46-1.37-3.14-2.49-4.12l.28-.22c6.16,1.4,4.31,5.85,2.21,4.34Zm4.48,14.64v-2.91h-5.85v2.91h5.85Zm-5.85,3.81h5.85v-2.97h-5.85v2.97Zm.11-15.99l2.35,.98h9.02l1.09-1.18,2.44,1.79c-.17,.2-.56,.42-1.04,.53v4.23c-.03,.17-1.18,.62-1.88,.62h-.36v-1.12h-9.44v.76c0,.2-.95,.7-1.88,.7h-.31v-7.31Zm11.62,5.04v-3.25h-9.44v3.25h9.44Zm2.32,4.23h-5.99v2.91h5.99v-2.91Zm-5.99,3.75v2.97h5.99v-2.97h-5.99Z"/>
      <path class="cls-1" d="M343.67,107.58l-.06,.34c-1.2,.17-2.02,.78-2.35,2.04-7.39-4-9.77-10.53-10.61-19.01-.5,6.86-2.55,13.94-12.66,19.1l-.34-.48c10.86-7.08,10.75-16.16,10.78-24.81l3.44,.36c-.06,.39-.31,.7-1.01,.78,.59,10.44,3.14,17.5,12.8,21.67Z"/>
      <path class="cls-1" d="M349.97,94.61c-.42-1.26-1.79-2.72-2.91-3.53l.25-.25c6.38,.64,4.96,5.12,2.66,3.78Zm-.42,6.86q.56-.95,5.63-11.26l.45,.14c-1.18,3.19-3.47,9.16-3.86,10.42-.25,.84-.45,1.71-.42,2.41,.03,1.32,.92,2.52,.81,4.84-.06,1.26-.73,2.07-1.82,2.07-.53,0-.95-.5-1.06-1.43,.42-2.91,.28-5.21-.36-5.63-.36-.28-.81-.36-1.4-.42v-.59h1.26c.36,0,.48,0,.78-.56Zm2.63-12.74c-.39-1.37-1.79-3-2.94-3.92l.25-.22c6.61,.98,4.98,5.6,2.69,4.14Zm6.38,9.21v2.44c-.03,3.22-.81,7.42-5.52,9.74l-.34-.31c3.25-2.55,3.78-6.38,3.78-9.49v-3.39l3.02,.34c-.08,.34-.28,.62-.95,.67Zm14.2-9.16c-.08,.31-.34,.45-.73,.45h-10.39c-1.29,1.71-2.8,3.44-4.26,4.79,2.41-.14,6.1-.39,10.05-.7-.67-.81-1.4-1.54-2.07-2.1l.28-.22c7.25,1.99,5.8,6.83,3.5,5.35-.22-.76-.67-1.6-1.26-2.41-2.63,.56-6.44,1.32-10.75,2.04-.2,.36-.45,.56-.7,.67l-1.01-2.58s.5-.11,.76-.31c.95-1.01,2.07-2.72,3.05-4.54h-4.26l-.22-.81h4.93c.78-1.54,1.46-3.08,1.82-4.23l3.39,1.34c-.11,.28-.45,.5-1.04,.45-.42,.76-.98,1.57-1.6,2.44h6.5l1.43-1.85s1.6,1.26,2.58,2.21Zm-9.21,9.16v10.78c0,.22-.9,.62-1.68,.62h-.39v-12.4l3,.31c-.03,.36-.28,.62-.92,.7Zm5.04-.06v8.88c0,.34,.06,.45,.53,.45h1.96c.14,0,.31,0,.39-.03,.17,0,.39-.06,.53-.11h.28l.11,.06c.56,.2,.81,.39,.81,.84,0,.81-.81,1.18-3.33,1.18h-1.37c-1.71,0-1.96-.5-1.96-1.88v-10.36l2.91,.31c-.06,.34-.34,.62-.87,.67Z"/>
      <path class="cls-1" d="M383.38,101.47c-.2,.5-.42,.98-.64,1.43,5.96,2.49,4.31,6.36,2.41,4.87-.34-1.4-1.57-3.14-2.72-4.37-1.46,2.58-3.42,4.4-5.71,5.52l-.34-.31c2.24-1.85,4.17-4.93,5.07-8.71l3.02,1.06c-.14,.31-.48,.56-1.09,.5Zm7.14-15.34c-.08,.31-.34,.45-.73,.45h-1.6v10.22c0,.14-.67,.56-1.76,.56h-.36v-2.86c-1.82,.59-4.23,1.34-7.31,2.27-.14,.34-.39,.53-.64,.62l-1.34-2.35,2.49-.28v-8.18h-2.07l-.22-.81h9.66l1.37-1.68s1.54,1.18,2.52,2.04Zm7.17,11.56c-2.04,.34-4.51,.67-7.17,.95v10.7c0,.17-.76,.7-1.88,.7h-.39v-11.17c-3.22,.28-6.61,.48-9.8,.5l-.08-.53c6.41-.56,14.45-1.99,18.68-3.25l2.18,2.21c-.28,.22-.81,.22-1.54-.11Zm-16.3-9.16h4.68v-1.96h-4.68v1.96Zm4.68,2.83v-2.02h-4.68v2.02h4.68Zm0,2.44v-1.6h-4.68v2.27l4.68-.67Zm10.39-3.08c.73-.95,1.32-1.99,1.76-3.11h-7.7l-.25-.81h7.98l1.34-1.26,2.21,1.96c-.22,.25-.5,.34-1.15,.34-.64,1.37-1.51,2.63-2.58,3.78,5.04,2.97,3.75,5.66,1.96,4.7-.67-.92-1.85-2.1-3.42-3.36-1.93,1.54-4.34,2.74-7.34,3.53l-.22-.42c2.55-1.01,4.65-2.38,6.27-4.06-1.43-1.04-3.08-2.07-4.93-3l.2-.42c2.41,.67,4.34,1.4,5.85,2.13Zm.78,9.97l-.45,1.12c1.23,2.1,3.47,3.67,5.63,4.42l-.06,.31c-.84,.2-1.46,.87-1.71,1.99-1.82-1.26-3.28-3.33-4.2-5.99-1.26,2.58-3.02,4.51-5.12,5.74l-.34-.31c1.93-1.96,3.56-5.07,4.31-8.74l3,.92c-.11,.34-.45,.59-1.06,.53Z"/>
      <path class="cls-1" d="M406.48,109.28l-.22-.39c2.91-1.32,6.08-4.03,7.39-5.85l2.86,1.71c-.17,.31-.53,.48-1.32,.39-1.96,1.57-5.21,3.28-8.71,4.14Zm25-7.28c-.08,.31-.36,.45-.76,.45h-10.78v6.97c0,.25-1.01,.67-1.93,.67h-.42v-7.64h-10.92l-.25-.84h11.17v-2.32l3.39,.36c-.06,.36-.31,.64-1.04,.73v1.23h7.25l1.51-1.85s1.71,1.29,2.77,2.24Zm-1.9-13.55c-.06,.31-.34,.45-.73,.45h-8.06v2.41h4.26l1.29-1.62s1.48,1.15,2.44,1.99c-.08,.31-.36,.45-.76,.45h-7.22v2.49h4.17l1.32-1.62s1.48,1.12,2.41,1.99c-.08,.31-.34,.45-.73,.45h-7.17v2.58h5.24l1.43-1.79s1.62,1.23,2.6,2.16c-.06,.31-.36,.45-.76,.45h-16.74v.95c0,.17-.73,.7-1.82,.7h-.39v-9.46c-1.09,1.18-2.27,2.16-3.42,2.97l-.36-.31c1.99-2.21,4.23-5.88,5.66-9.6l3.08,1.37c-.14,.31-.5,.5-1.12,.42-.45,.76-.9,1.46-1.4,2.16l.14,.06h6.27l-.28-.17c-.2-1.23-1.09-2.74-1.88-3.61l.28-.2c4.12,.92,4.23,3.3,3.16,3.98h5.15l1.4-1.76s1.6,1.23,2.55,2.16Zm-11.06,2.86v-2.41h-5.96v2.41h5.96Zm0,3.3v-2.49h-5.96v2.49h5.96Zm-5.96,3.39h5.96v-2.58h-5.96v2.58Zm16.74,11.09c-1.6-1.74-5.21-4.03-7.76-5.21l.22-.34c10.19,1.37,10.22,6.27,7.53,5.54Z"/>
      <path class="cls-1" d="M438.4,99.85c1.74-.87,2.74-1.68,3.19-3.22-1.74-.81-2.32-1.57-2.32-2.46,0-1.04,.76-1.85,1.9-1.85,.64,0,1.15,.14,1.62,.59,.28,.64,.36,1.06,.36,1.79,0,3.02-1.71,4.93-4.4,5.94l-.36-.78Z"/>
      <path class="cls-1" d="M475.08,86.46c-.08,.31-.34,.45-.73,.45h-19.88v18.82c0,1.23,.59,1.68,3.36,1.68h7.11c3,0,5.46-.06,6.33-.11,.53-.06,.95-.11,1.32-.17,.31-.03,.78-.14,1.2-.31h.34l.17,.03c1.12,.22,1.4,.5,1.4,.95,0,1.18-1.74,1.4-10.95,1.37h-6.69c-4.12,0-5.66-.5-5.68-3.16v-19.1h-1.06l-.25-.81h20.05l1.43-1.82s1.57,1.26,2.55,2.18Zm-18.23,19.74h-.28v-9.18l2.07,.9h3l1.01-1.04,2.13,1.62c-.14,.17-.5,.39-.92,.42v6.13c-.03,.2-1.01,.62-1.68,.62h-.31v-1.46h-3.36v1.34c0,.2-.84,.64-1.65,.64Zm5.01-7.48h-3.36v4.68h3.36v-4.68Zm-2.44-2.21h-.31v-8.4l2.3,.98h6.47l1.12-1.18,2.38,1.79c-.17,.2-.56,.39-1.06,.5v5.29c-.03,.17-1.12,.62-1.82,.62h-.34v-1.2h-6.89v.92c0,.2-.95,.67-1.85,.67Zm8.74-6.61h-6.89v4.2h6.89v-4.2Zm-1.88,15.9h-.31v-8.79l2.1,.9h3l1.04-1.09,2.24,1.71c-.17,.17-.56,.36-1.01,.45v5.96c-.03,.17-1.04,.62-1.68,.62h-.34v-1.34h-3.39v.95c0,.2-.84,.64-1.65,.64Zm5.04-7.08h-3.39v4.68h3.39v-4.68Z"/>
      <path class="cls-1" d="M483.25,103.01v-9.91h-3.05l-.22-.84h3.28v-7.53l3.22,.34c-.08,.39-.31,.67-1.04,.76v6.44h.42l1.26-1.76s1.23,1.12,2.07,1.99l2.02,.84h2.8l.92-.98,1.96,1.51c-.11,.14-.42,.31-.84,.39v6.27c0,.17-.92,.59-1.54,.59h-.28v-1.43h-3.25v1.57c0,.17-.59,.64-1.54,.64h-.25v-9.02c-.11,.17-.31,.22-.59,.22h-3.16v9.07l3.44-1.4,.14,.34c-1.65,1.23-4.06,3-7.31,5.12-.08,.34-.28,.67-.56,.78l-1.46-2.72c.73-.22,2.02-.7,3.56-1.29Zm14.08-1.15l.11,.42c-2.1,.98-5.07,2.38-9.04,4.06-.11,.34-.34,.59-.59,.67l-1.26-2.44c1.85-.34,6.27-1.48,10.78-2.72Zm2.94-16.94c-.03,.34-.28,.67-.98,.76-.03,1.23-.03,2.46,0,3.7h3.22l.64-.81c-.34,.11-.76,.08-1.18-.22-.14-.98-.92-2.16-1.68-2.77l.28-.22c2.58,.39,3.36,1.57,3.22,2.38,0,0,1.46,1.18,2.32,2.02-.08,.31-.31,.45-.7,.45h-6.1c.14,3.3,.48,6.52,1.18,9.3,1.01-1.99,1.82-4.31,2.49-7.06l3.02,.98c-.14,.34-.39,.48-1.18,.45-.98,3.22-2.13,5.85-3.61,8.04,.67,1.79,1.54,3.25,2.66,4.26,.31,.34,.56,.42,.78-.08,.34-.7,.84-2.04,1.15-3.16l.31,.08-.5,4.56c.56,.92,.73,1.79,.36,2.1-.81,.76-2.24-.08-3.28-1.32-1.2-1.26-2.16-2.8-2.91-4.56-2.32,2.66-5.26,4.54-9.07,5.96l-.22-.5c3.64-1.85,6.44-4.09,8.62-7.36-1.09-3.3-1.6-7.31-1.82-11.68h-8.99l-.22-.81h9.18c-.08-1.57-.11-3.16-.11-4.82l3.11,.36Zm-9.3,13.94h3.25v-4.76h-3.25v4.76Z"/>
      <path class="cls-1" d="M516.24,90.61c1.04-1.2,1.9-2.49,2.52-3.86h-7.34l-.25-.81h7.62l1.43-1.32,2.3,2.04c-.22,.25-.5,.34-1.18,.34-1.29,2.52-3.3,4.7-5.99,6.44h2.55l.95-1.09,1.93,1.82c-.2,.2-.59,.39-1.04,.48v4.31c-.03,.11-.9,.5-1.71,.5h-.42v-1.06h-3.61c-.11,.9-.31,2.02-.48,2.88h4l1.15-1.18,2.24,1.85c-.2,.2-.56,.34-1.12,.39-.31,3.78-1.09,6.13-2.24,7-.73,.48-1.71,.73-2.83,.73,0-.56-.11-1.09-.5-1.37-.39-.34-1.32-.62-2.3-.76l.03-.48c1.04,.11,2.8,.22,3.36,.22,.45,0,.7-.06,.95-.22,.59-.48,1.15-2.38,1.46-5.38h-4.14l-.98,1.06-2.16-1.62c.31-.2,.73-.39,1.12-.53,.25-1.34,.56-3.36,.64-4.51l2.46,1.06h2.94v-3.28h-3.7c-1.32,.7-2.77,1.29-4.37,1.76l-.22-.39c2.24-1.01,4.23-2.35,5.85-3.92-.28,0-.56-.08-.87-.31-.22-1.12-1.32-2.41-2.3-3.11l.22-.22c3,.34,4,1.57,4,2.52Zm10.89,13.86c.76-.87,1.4-1.79,1.88-2.77h-7.62l-.25-.81h7.95l1.4-1.29,2.3,2.02c-.22,.25-.53,.34-1.18,.36-.7,1.2-1.57,2.32-2.63,3.33,4.62,2.44,4.12,5.07,2.13,4.45-.84-.95-2.18-2.07-3.72-3.16-2.1,1.54-4.76,2.72-7.9,3.5l-.2-.42c2.63-.98,4.9-2.35,6.69-4.03-1.34-.9-2.74-1.71-3.92-2.3l.25-.36c1.9,.45,3.5,.95,4.82,1.48Zm-1.15-16.46c1.09-1.04,2.35-2.52,3-3.44l2.44,1.74c-.17,.25-.42,.36-1.04,.14-.98,.64-2.49,1.43-3.92,2.04,.78,.76,1.71,1.46,2.66,2.1,1.04-1.01,2.24-2.52,2.83-3.44l2.49,1.76c-.2,.25-.45,.34-1.06,.14-.92,.59-2.32,1.34-3.64,1.9,1.79,1.09,3.81,1.93,5.85,2.49l-.06,.28c-.92,.17-1.65,.87-1.99,1.93-1.01-.42-1.99-.92-2.88-1.48-.2,.14-.53,.22-.9,.28v3.05c0,.25,.06,.34,.42,.34h.76c.31,0,.59,.03,.76,0,.11,0,.28,0,.39-.03,.14,0,.36-.06,.5-.08h.22l.11,.03c.59,.2,.81,.36,.81,.78,0,.81-.73,1.06-3.05,1.06h-1.2c-1.57,0-1.79-.48-1.79-1.68v-3.7h-3v.84c0,1.74-.45,4.23-4.23,5.68l-.28-.36c2.18-1.6,2.41-3.56,2.41-5.29v-2.8l2.46,1.12h2.38l.9-.92c-2.44-2.04-4.31-4.7-5.4-8.09l.42-.25c.62,1.43,1.54,2.72,2.63,3.86Z"/>
      <path class="cls-1" d="M550.93,92.74v2.24h4.68v-3.16l3,.31c-.03,.34-.25,.59-.87,.67v2.18h1.48l1.32-1.74s1.51,1.2,2.44,2.1c-.06,.31-.34,.45-.7,.45h-4.54v3.78h2.91l1.43-1.88s1.62,1.32,2.6,2.24c-.08,.31-.36,.45-.76,.45h-10.5c.73,1.65,1.82,3,3.16,4.06,1.37-1.2,3-2.77,3.84-3.72l2.55,1.82c-.2,.25-.45,.34-1.04,.17-1.2,.62-3.02,1.48-4.7,2.18,2.07,1.43,4.7,2.32,7.73,2.83l-.06,.34c-.95,.2-1.62,.92-1.9,2.02-5.26-1.62-8.57-4.37-10.19-9.69h-3.28v6.72c1.34-.42,3-.92,4.65-1.48l.11,.39c-1.15,.73-3.36,2.16-5.77,3.56-.17,.28-.36,.5-.56,.62l-1.6-2.52c.87-.53,1.01-.76,1.01-1.2v-6.08h-3.5l-.06-.17c-.62,3.47-1.99,7-4.82,9.8l-.39-.28c3.14-5.1,3.5-11.34,3.5-17.05v-7.87l2.66,1.09h15.2l1.15-1.26,2.52,1.9c-.2,.22-.64,.45-1.2,.56v4.62c-.03,.17-1.12,.59-1.85,.59h-.34v-1.04h-15.88v1.37c0,2.1-.06,4.48-.45,6.92h4.84v-3.78h-3.92l-.22-.81h4.14v-3.19l3.02,.28c-.06,.36-.28,.59-.87,.67Zm9.32-2.27v-3.75h-15.88v3.75h15.88Zm-4.65,5.32h-4.68v3.78h4.68v-3.78Z"/>
      <path class="cls-1" d="M573.27,92.2h-4.51l-.25-.81h4.84l1.18-1.18,2.35,2.1c-.28,.28-.92,.42-1.65,.45-.9,1.37-2.41,3.56-3.56,5.12h2.27l1.29-1.29,2.24,1.99c-.2,.25-.48,.34-1.09,.36-.5,1.76-1.23,3.56-2.24,5.24,2.04,2.58,5.12,2.97,10.39,2.97,2.21,0,7.48,0,9.77-.06v.36c-.9,.17-1.34,.98-1.37,1.93h-8.46c-5.54,0-8.62-.9-10.7-4.62-1.34,2.04-3.11,3.89-5.4,5.32l-.28-.39c3.11-2.77,5.07-6.97,5.96-10.98h-2.77l-.81,.64-1.79-1.51c.28-.17,.7-.36,1.09-.48,1.09-1.43,2.55-3.61,3.5-5.18Zm-.2-3.25c-.42-1.54-1.99-3.44-3.25-4.51l.28-.22c6.66,1.48,5.24,6.08,2.97,4.73Zm20.13-.67c-.08,.31-.34,.45-.73,.45h-6.66v2.77h3.05l1.12-1.2,2.44,1.85c-.17,.22-.64,.45-1.2,.56v4.82c-.03,.17-1.04,.62-1.74,.62h-.34v-1.06h-3.33v.95c8.2,2.46,7.11,7.14,4.76,5.85-.78-1.71-2.94-3.84-4.76-5.24v7.03c0,.28-.95,.78-1.74,.78h-.45v-6.83c-1.82,2.13-4.23,3.89-7.03,5.21l-.31-.45c2.8-1.85,5.1-4.56,6.55-7.31h-2.55v.78c0,.2-.9,.64-1.76,.64h-.28v-7.95l2.21,.95h3.16v-2.77h-6.78l-.22-.81h7v-3.81l3.19,.34c-.06,.42-.28,.67-1.01,.78v2.69h3.33l1.43-1.79s1.65,1.23,2.63,2.16Zm-12.91,4.03v3.92h3.33v-3.92h-3.33Zm5.52,3.92h3.33v-3.92h-3.33v3.92Z"/>
      <path class="cls-1" d="M623.42,88.31c-.06,.31-.36,.45-.73,.45h-20.08v6.27c0,4.73-.31,10.89-4.76,15.09l-.36-.28c2.63-4.31,2.88-9.74,2.88-14.78v-8.2l2.63,1.06h16.27l1.48-1.9s1.68,1.34,2.66,2.3Zm-5.71,10.5l2.24,2.1c-.25,.25-.53,.34-1.26,.34-1.23,1.76-2.77,3.28-4.65,4.51,2.77,1.04,6.08,1.6,9.72,1.85l-.03,.34c-.95,.22-1.62,.95-1.85,2.07-3.92-.62-7.17-1.54-9.74-3.16-3.14,1.62-6.94,2.63-11.45,3.16l-.17-.45c3.95-.78,7.42-1.99,10.22-3.67-1.6-1.29-2.91-2.91-3.86-4.98h-2.13l-.25-.81h11.73l1.48-1.29Zm-8.37-8.26v2.04h5.54v-3.08l3.16,.31c-.06,.36-.31,.62-.98,.73v2.04h2.02l1.29-1.82s1.51,1.26,2.35,2.18c-.06,.31-.31,.45-.7,.45h-4.96v4.79c0,.2-.95,.62-1.76,.62h-.42v-1.15h-5.54v.92c0,.2-.95,.62-1.76,.62h-.42v-5.8h-3.78l-.22-.81h4v-3.08l3.16,.31c-.06,.36-.31,.64-.98,.73Zm-1.79,10.36c1.15,1.71,2.72,3.02,4.65,4.03,1.6-1.15,2.91-2.49,3.89-4.03h-8.54Zm3.72-13.33c-.39-1.18-1.54-2.63-2.52-3.47l.28-.2c6.19,.64,4.56,5.04,2.24,3.67Zm-1.93,5.82v3.44h5.54v-3.44h-5.54Z"/>
      <path class="cls-1" d="M9.58,127.26c-.11,.34-.45,.59-1.09,.56-.78,2.1-1.68,4.09-2.69,5.91l1.23,.45c-.08,.25-.34,.45-.84,.5v16.63c-.03,.2-.95,.73-1.85,.73h-.42v-15.37c-1.06,1.51-2.21,2.86-3.44,3.98l-.39-.28c2.38-3.39,4.82-8.79,6.13-14.14l3.36,1.04Zm4.65,19.15c.81-1.37,1.2-2.91,1.34-4.76h-4.31v.95c0,.22-.95,.73-1.85,.73h-.34v-11.79l2.35,1.01h4.23v-3.14h-6.86l-.22-.81h13.64l1.48-1.9s1.71,1.34,2.74,2.27c-.06,.31-.34,.45-.76,.45h-7.78v3.14h4.31l1.18-1.29,2.55,1.93c-.2,.22-.62,.48-1.2,.59v8.74c0,.17-1.15,.64-1.88,.64h-.36v-1.51h-4.68c-.17,2.16-.7,4.06-1.93,5.63,2.94,1.34,6.69,2.04,10.81,2.13v.31c-.95,.25-1.74,1.09-1.93,2.24-4.23-.5-7.56-1.54-10.08-3.39-1.68,1.48-4.23,2.63-7.98,3.47l-.25-.39c3.39-1.18,5.6-2.49,6.97-4.12-1.15-1.09-2.1-2.41-2.86-3.98l.39-.25c.81,1.23,1.93,2.27,3.28,3.11Zm1.43-9.74v-3.3h-4.4v3.3h4.4Zm-.03,4.17l.03-1.32v-2.04h-4.4v3.36h4.37Zm6.86-3.36h-4.59v1.99l-.03,1.37h4.62v-3.36Zm0-4.12h-4.59v3.3h4.59v-3.3Z"/>
      <path class="cls-1" d="M37.72,126.62c-.08,.42-.28,.67-1.01,.78v5.49h.95l1.29-1.79s1.46,1.26,2.3,2.16c-.08,.31-.34,.45-.73,.45h-3.81v2.52c6.3,2.38,4.51,6.44,2.52,4.9-.34-1.4-1.48-3.11-2.52-4.34v14.5c0,.28-.92,.76-1.74,.76h-.45v-12.99c-1.2,2.49-2.77,4.79-4.68,6.72l-.36-.36c2.16-3.22,3.7-7.56,4.56-11.7h-3.84l-.22-.81h4.54v-6.61l3.19,.34Zm4.2,.78l2.35,1.06h7.39l1.2-1.34,2.55,2.02c-.2,.22-.64,.45-1.23,.56v21.28c-.03,.2-1.06,.78-1.9,.78h-.34v-2.52h-7.81v1.74c0,.34-.81,.9-1.82,.9h-.39v-24.47Zm10.02,7.59v-5.71h-7.81v5.71h7.81Zm-7.81,6.64h7.81v-5.82h-7.81v5.82Zm0,6.83h7.81v-6.02h-7.81v6.02Z"/>
      <path class="cls-1" d="M65.41,148.06v-4.06h-4.34l-.22-.81h4.56v-3.72h-5.01l-.22-.81h7.34c.45-1.4,.98-3.36,1.29-4.79h-6.33c4.62,2.44,2.41,6.05,.67,4.34,.08-1.43-.59-3.22-1.32-4.34h-2.46l-.22-.81h4.65v-6.8l2.72,.28c-.06,.36-.28,.59-.87,.7v5.82h1.82v-6.8l2.8,.28c-.06,.36-.31,.62-.92,.73v5.8h1.99l1.26-1.62s1.46,1.12,2.35,1.99c-.08,.31-.34,.45-.73,.45h-4.54l2.38,.59c-.11,.34-.45,.59-1.06,.59-.67,1.01-1.79,2.44-2.8,3.61h1.99l1.23-1.51s1.4,1.06,2.27,1.88c-.08,.31-.34,.45-.73,.45h-5.35v3.72h1.76l1.23-1.6s1.43,1.15,2.3,1.96c-.06,.31-.34,.45-.7,.45h-4.59v3.81l6.1-.76,.06,.45c-2.8,.87-6.78,1.99-12.4,3.36-.14,.34-.42,.56-.73,.64l-1.26-2.86c1.29-.08,3.44-.31,6.05-.59Zm-4.23-16.16c-.03-1.51-.84-3.39-1.65-4.54l.34-.17c5.15,2.52,3.05,6.38,1.32,4.7Zm13.5-3.58c-.14,.28-.48,.5-1.06,.45-1.09,1.29-2.38,2.66-3.53,3.56l-.39-.25c.56-1.2,1.37-3.19,1.99-5.01l3,1.26Zm8.4-1.4c-.08,.42-.36,.7-1.04,.78v6.36h.2l1.23-1.74s1.37,1.26,2.18,2.13c-.08,.31-.31,.45-.7,.45h-2.91v14.14c0,1.68-.34,2.72-3.25,3.02-.08-.7-.22-1.29-.64-1.62-.42-.39-1.09-.62-2.41-.81v-.42s2.88,.2,3.47,.2c.5,0,.64-.17,.64-.59v-13.92h-6.05l-.22-.84h6.27v-7.48l3.22,.34Zm-6.97,16.24c.11-1.99-.7-4.37-1.57-5.99l.36-.14c5.57,3.5,3.19,8.18,1.2,6.13Z"/>
      <path class="cls-1" d="M114.41,150.89c-.06,.31-.34,.45-.73,.45h-24.75l-.25-.81h9.16c-.22-.06-.45-.17-.67-.36-.08-1.12-.73-2.49-1.34-3.33l.28-.17c3.98,1.18,3.58,3.53,2.35,3.86h4.9c.45-1.15,.92-2.72,1.23-3.86l3.16,.81c-.11,.31-.48,.53-1.06,.53-.64,.78-1.62,1.71-2.52,2.52h6.22l1.46-1.76s1.6,1.23,2.58,2.13Zm-14.48-21.45c-.06,.28-.31,.42-.64,.42h-2.16v1.82h.67l.64-.78s.73,.62,1.2,1.15c-.08,.31-.31,.45-.67,.45h-1.85v1.85h.9l.7-.87s.81,.67,1.32,1.26c-.06,.28-.31,.42-.67,.42h-2.24v1.82h3.33v-10.72l2.97,.28c-.06,.39-.31,.62-.92,.73v9.72h2.72v-1.82h-2.13l-.22-.81h2.35v-1.85h-1.74l-.22-.81h1.96v-1.82h-2.02l-.22-.81h2.24v-2.38l2.38,.28c-.06,.31-.25,.53-.76,.62v1.48h.9l.73-.87s.78,.67,1.32,1.26c-.08,.28-.31,.42-.67,.42h-2.27v1.82h.73l.64-.81s.76,.62,1.26,1.18c-.06,.31-.31,.45-.67,.45h-1.96v1.85h1.01l.73-.9s.81,.7,1.34,1.29c-.08,.28-.31,.42-.7,.42h-2.38v1.82h3.39v-9.83l3,.31c-.08,.36-.31,.62-.95,.7v9.91c0,.08-.11,.17-.31,.28,.56,.42,1.29,1.04,1.85,1.54-.06,.31-.36,.45-.73,.45h-23.46l-.25-.81h20.58l.59-.76h-.31v-.98h-17.58l-.76,1.15-2.27-1.48c.2-.2,.5-.45,.81-.64v-9.55l3.05,.34c-.08,.39-.36,.64-1.04,.76v8.62h3.08v-1.82h-2.27l-.22-.81h2.49v-1.85h-1.82l-.22-.81h2.04v-1.82h-2.1l-.22-.81h2.32v-2.38l2.35,.28c-.03,.31-.25,.53-.76,.62v1.48h.78l.7-.87s.81,.67,1.32,1.26Zm-4.48,12.71h12.29l1.04-1.2,2.27,1.68c-.17,.22-.45,.36-1.01,.48v3.44c0,.11-.76,.53-1.85,.53h-.36v-.59h-12.68v.48c0,.14-.67,.56-1.79,.56h-.34v-6.38l2.44,1.01Zm12.38,3.53v-2.69h-12.68v2.69h12.68Z"/>
      <path class="cls-1" d="M121.86,129.53h18.2l1.32-1.34,2.35,2.3c-.2,.2-.5,.22-1.04,.28-.7,.9-1.88,2.1-2.8,2.83l-.34-.2c.22-.78,.5-2.07,.67-3.05h-18.28c.06,1.82-.7,3.05-1.54,3.58-.73,.48-1.82,.42-2.16-.34-.25-.7,.17-1.32,.84-1.65,1.06-.59,2.1-2.07,1.99-3.75l.48-.03c.14,.48,.25,.95,.31,1.37Zm-.06,22.48h-.34v-10.95l2.41,1.06h14l1.18-1.29,2.52,1.93c-.2,.22-.62,.45-1.2,.56v7.92c-.03,.2-1.12,.64-1.85,.64h-.36v-1.57h-14.48v.95c0,.22-.95,.73-1.88,.73Zm17.44-19.26c-.06,.31-.34,.45-.73,.45h-15.57l-.22-.81h12.82l1.29-1.54s1.48,1.06,2.41,1.9Zm-15.57,10.19v2.86h6.13v-2.86h-6.13Zm6.13,3.67h-6.13v2.91h6.13v-2.91Zm-5.68-5.4h-.31v-6.86l2.35,1.01h9.66l-.28-.03,1.12-1.18,2.44,1.79c-.17,.2-.56,.42-1.06,.53v3.86c-.03,.17-1.15,.62-1.85,.62h-.36v-1.12h-9.8v.7c0,.2-1.01,.67-1.9,.67Zm1.9-5.04v2.86h9.8v-2.86h-9.8Zm4.56-6.97c-.2-1.12-1.18-2.44-2.1-3.14l.25-.2c5.85,.34,4.09,4.76,1.85,3.33Zm1.43,16.6h6.13v-2.86h-6.13v2.86Zm6.13,3.72v-2.91h-6.13v2.91h6.13Z"/>
      <path class="cls-1" d="M153.36,135.21c2.18,0,3.92,1.74,3.92,3.92s-1.74,3.95-3.92,3.95-3.95-1.76-3.95-3.95,1.76-3.92,3.95-3.92Zm0,6.92c1.62,0,2.97-1.37,2.97-3s-1.34-2.97-2.97-2.97-3,1.34-3,2.97,1.34,3,3,3Z"/>
      <path class="cls-1" d="M176.4,132.16c-.08,.31-.36,.45-.76,.45h-6.92c-.03,1.43-.08,2.83-.2,4.2h3.16l1.2-1.26,2.3,1.93c-.2,.22-.53,.39-1.12,.45-.25,8.18-.81,11.65-2.07,12.85-.76,.73-1.74,1.04-2.83,1.04,0-.64-.08-1.2-.42-1.54-.31-.31-1.04-.56-1.82-.73v-.45c.78,.06,2.1,.17,2.6,.17,.45,0,.67-.06,.92-.31,.78-.73,1.29-4.2,1.48-11.31h-3.47c-.48,5.6-1.76,10.58-5.66,14.45l-.34-.28c3.42-5.49,3.92-12.15,3.84-19.21h-3.3l-.22-.81h9.69l1.37-1.79s1.57,1.26,2.55,2.16Zm-7.31-1.04c-.17-1.6-1.34-3.53-2.44-4.68l.31-.2c6.38,1.9,4.34,6.64,2.13,4.87Zm13.3-3.58c1.09,3.81,3.89,7.25,6.69,9.24l-.06,.31c-.92,.31-1.57,.87-1.76,1.68-2.41-2.41-4.23-6.24-5.26-10.16-1.37,3.72-3.75,7.95-7.08,10.61l-.36-.25c2.74-3.39,4.79-8.79,5.46-12.8l3.44,.73c-.08,.34-.34,.5-1.06,.59v.06Zm2.18,24.22c-1.62-2.38-5.57-5.32-8.51-6.92l.22-.31c11.76,2.41,11.31,8.46,8.29,7.22Zm-1.85-9.86c-.76-1.48-2.72-3.39-4.17-4.51l.25-.25c7.45,1.26,6.36,5.94,3.92,4.76Z"/>
      <path class="cls-1" d="M201.66,141.85c-.11,.39-.45,.62-1.06,.59-.28,.98-.67,1.99-1.2,2.97,1.12,2.1,2.58,3.14,4.68,3.58v-9.24h-11.51l-.25-.78h21.5l1.46-1.93s1.68,1.34,2.69,2.3c-.08,.28-.34,.42-.76,.42h-10.81v3.89h4.87l1.51-1.96s1.71,1.34,2.74,2.32c-.08,.31-.36,.45-.76,.45h-8.37v4.87c.76,.03,1.6,.06,2.49,.06,2.1,0,7.11,0,9.3-.06v.39c-.78,.14-1.18,.84-1.2,1.71h-8.18c-5.1,0-7.92-1.01-9.74-5.4-1.37,2.32-3.5,4.54-6.78,6.02l-.25-.34c3.86-2.66,5.6-6.94,6.24-10.61l3.39,.76Zm-4.48-15.04l2.49,1.06h11l1.2-1.32,2.6,1.99c-.2,.2-.62,.45-1.2,.56v7.95c-.03,.17-1.18,.64-1.96,.64h-.36v-1.29h-11.45v.9c0,.2-1.01,.73-1.96,.73h-.36v-11.23Zm13.78,1.88h-11.45v3.02h11.45v-3.02Zm-11.45,3.81v3.11h11.45v-3.11h-11.45Z"/>
      <path class="cls-1" d="M224.76,141.85c1.74-.87,2.74-1.68,3.19-3.22-1.74-.81-2.32-1.57-2.32-2.46,0-1.04,.76-1.85,1.9-1.85,.64,0,1.15,.14,1.62,.59,.28,.64,.36,1.06,.36,1.79,0,3.02-1.71,4.93-4.4,5.94l-.36-.78Z"/>
      <path class="cls-1" d="M248.98,131.57c-.06,.31-.34,.45-.73,.45h-10.89l-.22-.81h8.18l1.29-1.65s1.48,1.15,2.38,2.02Zm-1.26,3.64c-.06,.31-.34,.45-.7,.45h-8.57l-.22-.81h6.08l1.2-1.54s1.37,1.09,2.21,1.9Zm0,3.72c-.06,.31-.34,.45-.7,.45h-8.57l-.22-.81h6.08l1.2-1.51s1.37,1.06,2.21,1.88Zm-8.76,12.77h-.28v-10.42l2.16,.95h3.72l1.12-1.2,2.38,1.82c-.17,.22-.62,.42-1.15,.53v6.66c-.03,.2-1.04,.64-1.74,.64h-.34v-1.34h-4.12v1.68c0,.2-.9,.67-1.76,.67Zm3.47-21.22c-.2-1.34-1.18-2.97-2.07-3.92l.28-.17c5.94,1.23,3.98,5.63,1.79,4.09Zm2.41,12.57h-4.12v5.49h4.12v-5.49Zm18.06-2.83c-.08,.31-.36,.45-.76,.45h-5.94v10.58c0,.17-.67,.78-1.85,.78h-.36v-11.37h-6.19l-.22-.81h6.41v-8.15h-2.24c-1.04,2.1-2.32,3.86-3.81,5.18l-.42-.22c1.51-2.6,2.77-6.5,3.33-10.44l3.5,.9c-.11,.34-.42,.59-1.06,.59-.34,1.12-.73,2.18-1.18,3.19h6.16l1.4-1.79s1.57,1.23,2.55,2.16c-.06,.31-.36,.45-.73,.45h-5.29v8.15h2.86l1.34-1.88s1.57,1.32,2.49,2.24Z"/>
      <path class="cls-1" d="M278.18,129.36h6.41l1.34-1.26,2.44,2.16c-.22,.22-.67,.28-1.37,.34-4.31,5.26-10.56,8.6-20.02,10.3l-.25-.48c7.81-2.18,13.64-5.29,17.47-10.25h-7.14c-.81,.59-1.71,1.15-2.66,1.71,5.24,.59,4.59,4.2,2.52,3.42-.64-1.01-2.13-2.18-3.47-2.91-1.82,.98-3.81,1.85-5.88,2.46l-.25-.36c4.51-2.1,8.79-5.63,10.78-8.37l3.56,.95c-.11,.31-.48,.5-1.34,.48-.62,.59-1.34,1.2-2.13,1.82Zm3.39,9.97h6.66l1.37-1.32,2.49,2.21c-.22,.25-.67,.31-1.4,.36-4.62,6.78-11.54,10.05-22.9,11.42l-.17-.5c9.58-2.04,16.13-5.07,20.33-11.37h-7.56c-1.04,.7-2.18,1.4-3.42,2.04,6.1,.98,5.21,5.32,2.88,4.23-.62-1.37-2.3-2.83-3.84-3.72-2.1,1.04-4.4,1.96-6.83,2.6l-.2-.39c5.6-2.24,10.58-6.05,13.02-9.21l3.67,.9c-.11,.31-.5,.5-1.34,.48-.81,.76-1.74,1.51-2.77,2.27Z"/>
      <path class="cls-1" d="M314.61,127.06c-.11,.34-.42,.62-1.06,.64-.45,1.71-.98,3.33-1.62,4.84h5.94l1.43-1.82s1.62,1.26,2.6,2.21c-.06,.31-.34,.45-.73,.45h-2.07c-.64,4.37-1.82,8.15-4.06,11.23,1.74,2.24,4.03,4.06,7,5.35l-.08,.28c-1.06,.17-1.76,.76-2.07,1.79-2.63-1.54-4.59-3.53-6.05-5.94-2.24,2.52-5.35,4.51-9.6,5.96l-.22-.36c4.06-1.96,6.92-4.4,8.88-7.34-1.23-2.55-2.02-5.43-2.58-8.57-.84,1.43-1.82,2.66-2.88,3.72l-.39-.22c.34-.59,.64-1.23,.95-1.9h-4.09v8.29l5.63-1.46,.11,.42c-2.74,1.26-6.66,2.97-12.15,5.07-.08,.34-.34,.62-.62,.7l-1.37-2.77,1.79-.39v-13.36l2.74,.31c-.06,.31-.22,.53-.78,.62v11.98l2.46-.59v-16.41h-5.46l-.22-.81h9.46l1.43-1.79s1.6,1.23,2.58,2.16c-.08,.31-.36,.45-.73,.45h-4.87v6.78h1.23l1.32-1.82s1.06,.9,1.93,1.74c1.26-2.94,2.27-6.58,2.74-10.25l3.5,.81Zm1.93,6.33h-4.98l-.76,1.54c.64,2.94,1.6,5.6,3,7.92,1.51-2.77,2.35-5.94,2.74-9.46Z"/>
      <path class="cls-1" d="M351.12,130.84c-.06,.31-.36,.45-.73,.45h-20.33v6.1c0,4.62-.31,10.67-4.68,14.78l-.36-.28c2.55-4.26,2.77-9.55,2.77-14.48v-8.04l2.66,1.09h16.52l1.48-1.93s1.68,1.34,2.66,2.3Zm-14.25,2.41c-.53,1.23-1.29,2.69-2.21,4.12l1.32,.5c-.11,.25-.39,.42-.87,.48v13.08c-.06,.17-.92,.64-1.76,.64h-.39v-12.32c-.78,.98-1.62,1.9-2.55,2.72l-.31-.34c2.18-2.94,3.98-7.45,4.73-10.5l3.11,1.2c-.14,.31-.36,.48-1.06,.42Zm2.02-3.11c-.39-1.29-1.62-2.88-2.63-3.84l.28-.17c6.41,1.01,4.68,5.46,2.35,4Zm12.15,7.42c-.06,.31-.34,.45-.73,.45h-3.44v11.06c0,1.71-.36,2.74-3.33,3.02-.08-.67-.25-1.23-.67-1.6-.45-.36-1.15-.64-2.49-.84v-.45s3.05,.25,3.64,.25c.5,0,.64-.17,.64-.56v-10.89h-7.5l-.22-.84h7.73v-5.32l3.22,.34c-.08,.39-.34,.64-1.01,.73v4.26h.59l1.29-1.85s1.48,1.32,2.3,2.24Zm-10.84,7.42c-.17-1.79-1.32-4-2.35-5.46l.34-.17c6.27,2.97,4.09,7.5,2.02,5.63Z"/>
      <path class="cls-1" d="M364.08,133.28c-.08,.31-.34,.45-.73,.45h-3.14v2.16c5.18,2.38,3.44,5.85,1.74,4.42-.2-1.18-.98-2.69-1.74-3.78v14.7c0,.25-.9,.78-1.62,.78h-.42v-12.32c-.87,2.13-2.02,4.06-3.44,5.8l-.42-.36c1.82-3.19,2.88-7.31,3.47-11.4h-2.91l-.22-.81h3.53v-6.78l3.05,.31c-.06,.42-.28,.67-1.01,.78v5.68h.45l1.2-1.68s1.4,1.2,2.21,2.04Zm4.51,13.33c-1.2,1.62-3.33,3.47-5.68,4.59l-.31-.36c1.79-1.6,3.42-4.14,4.17-5.96l2.86,1.43c-.14,.28-.39,.42-1.04,.31Zm11.82-18.23c-.06,.31-.34,.45-.76,.45h-5.29v2.88h2.04l1.09-1.18,2.41,1.82c-.2,.22-.64,.42-1.2,.53v5.04c-.03,.17-1.04,.56-1.68,.56h-.34v-.92h-10.39v.98c0,.2-.87,.62-1.65,.62h-.31v-8.37l2.13,.92h2.13v-2.88h-5.04l-.22-.81h13.19l1.37-1.74s1.57,1.2,2.52,2.1Zm.2,15.2c-.08,.31-.36,.45-.76,.45h-7.03v7.45c0,.11-.7,.56-1.82,.56h-.36v-8.01h-6.94l-.22-.81h13.24l1.34-1.68s1.57,1.18,2.55,2.04Zm-1.71-3.28c-.08,.31-.36,.45-.76,.45h-12.8l-.22-.81h9.91l1.34-1.62s1.54,1.15,2.52,1.99Zm-12.6-7.78v4.23h2.3v-4.23h-2.3Zm6.3-3.7h-2.24v2.88h2.24v-2.88Zm-2.24,3.7v4.23h2.24v-4.23h-2.24Zm7.92,18c-.64-1.71-2.72-3.75-4.31-4.93l.28-.25c7.62,1.76,6.38,6.52,4.03,5.18Zm-3.92-13.78h2.32v-4.23h-2.32v4.23Z"/>
      <path class="cls-1" d="M393.09,146.47c-2.46,2.55-5.71,4.17-8.65,5.01l-.25-.42c2.55-1.32,5.52-3.75,7.62-6.72l2.52,2.02c-.2,.22-.64,.36-1.23,.11Zm16.58-3.16c-.08,.31-.36,.45-.76,.45h-10.89v7.59c0,.22-.98,.67-1.9,.67h-.42v-8.26h-11l-.25-.81h11.26v-2.91l3.36,.34c-.06,.39-.31,.64-1.04,.73v1.85h7.64l1.43-1.82s1.6,1.26,2.58,2.18Zm-22.06-14.08h9.04l-.22-.14c-.06-1.04-.81-2.24-1.62-2.88l.25-.2c3.86,.39,3.98,2.55,3,3.22h7.98l1.29-1.29,2.3,2.18c-.22,.2-.56,.25-1.09,.28-.67,.64-1.85,1.48-2.77,1.93l-.36-.2c.22-.53,.53-1.37,.73-2.1h-18.42c.06,1.4-.5,2.35-1.2,2.77-.67,.36-1.65,.31-1.93-.45-.22-.67,.22-1.26,.84-1.57,.87-.45,1.57-1.65,1.43-2.83l.45-.03c.17,.45,.28,.9,.34,1.29Zm21.39,5.01c-.08,.31-.36,.45-.76,.45h-5.57c-.56,1.18-1.4,2.18-2.63,3.08,8.43,1.65,6.05,4.28,3.84,3.44-1.51-.76-3.56-1.51-6.02-2.18-2.63,1.18-6.41,2.04-11.93,2.55l-.11-.42c4.56-.64,7.78-1.51,10.05-2.63-2.02-.48-4.26-.92-6.66-1.26,.62-.62,1.37-1.57,2.16-2.58h-5.88l-.25-.81h6.75c1.01-1.37,1.93-2.74,2.38-3.58l3.16,1.32c-.17,.28-.45,.5-1.29,.36l-1.51,1.9h5.8c.28-.76,.48-1.54,.59-2.38l3.3,.73c-.14,.42-.53,.59-1.09,.56-.08,.36-.2,.73-.34,1.09h2.18l1.34-1.65s1.54,1.15,2.49,2.02Zm-8.85,.45h-6.1c-.64,.76-1.29,1.51-1.88,2.16,2.16,.14,4,.34,5.57,.56,1.09-.81,1.88-1.71,2.41-2.72Zm6.61,16.32c-1.46-1.65-4.73-4.09-7-5.46l.25-.31c9.88,1.88,9.41,6.64,6.75,5.77Z"/>
      <path class="cls-1" d="M421.29,139.78c.39,.59,.64,1.34,.56,2.02-.06,.56-.42,1.06-1.09,1.06-.56,0-.92-.39-1.32-1.26-.87-1.76-2.18-3.47-4.28-5.18l.31-.42c2.83,.92,4.82,2.21,5.82,3.78Z"/>
      <path class="cls-1" d="M438.2,129.7c-2.24,5.07-5.49,8.76-9.3,11l-.34-.25c2.94-2.77,5.85-7.39,7.39-12.54l3.36,1.32c-.11,.31-.48,.53-1.12,.48Zm11.68,21.78c-.2-1.15-.62-2.41-1.18-3.67-3.81,.98-9.02,2.16-15.2,3.25-.25,.39-.53,.62-.84,.73l-1.12-3.05s.7-.14,.92-.39c2.38-2.6,5.66-8.96,6.78-12.49l3.44,1.48c-.14,.28-.5,.5-1.06,.45-1.71,3.28-5.12,7.95-8.12,11,3.42-.25,9.1-.87,14.9-1.62-.98-1.99-2.27-3.95-3.5-5.43l.39-.17c9.13,5.49,7.34,12.12,4.59,9.91Zm-4.9-25.48l2.6,1.79c-.34,.39-1.12,.59-2.1,.64,1.2,4.14,4.37,8.01,9.21,9.94l-.08,.34c-1.01,.28-1.79,1.09-2.07,2.02-4.31-2.72-6.8-6.97-7.87-12.46h-2.94l-.25-.81h2.52l.98-1.46Z"/>
      <path class="cls-1" d="M477.74,126.76c-.08,.42-.31,.7-1.01,.81v5.54h2.49l1.4-1.88s1.65,1.29,2.63,2.24c-.08,.31-.34,.45-.73,.45h-5.8v7.76h3.02l1.51-1.96s1.76,1.37,2.86,2.32c-.08,.31-.36,.45-.78,.45h-24.86l-.22-.81h7.14v-7.76h-6.02l-.22-.81h6.24v-6.66l3.28,.31c-.08,.42-.31,.7-1.01,.81v5.54h6.78v-6.66l3.3,.31Zm-8.12,18.7c-.2,.28-.42,.39-1.06,.25-2.07,2.27-5.74,4.87-9.69,6.36l-.25-.36c3.28-2.02,6.52-5.35,8.06-7.92l2.94,1.68Zm4.82-3.78v-7.76h-6.78v7.76h6.78Zm6.33,10.02c-1.26-2.35-4.62-5.38-7.14-7.08l.25-.28c10.67,2.97,9.77,8.82,6.89,7.36Z"/>
      <path class="cls-1" d="M499.27,148.93v-17.67h-9.52l-.22-.81h17.58l1.65-2.04s1.82,1.4,2.94,2.41c-.08,.31-.36,.45-.78,.45h-9.24v17.67h7.25l1.62-2.07s1.85,1.43,2.97,2.44c-.08,.31-.34,.45-.76,.45h-24.89l-.25-.81h11.65Z"/>
      <path class="cls-1" d="M527.83,128.46c-.28,.25-.81,.31-1.51,.08-.76,.25-1.65,.53-2.66,.78v5.18h.81l1.26-1.68s1.43,1.2,2.3,2.07c-.08,.31-.36,.45-.76,.45h-3.61v1.65c5.66,2.21,3.81,6.02,1.93,4.51-.22-1.2-1.09-2.66-1.93-3.78v13.58c-.03,.17-.76,.73-1.85,.73h-.36v-11.37c-1.15,2.1-2.63,4-4.42,5.63l-.36-.36c2.16-2.91,3.61-6.78,4.45-10.58h-3.92l-.22-.84h4.48v-4.68c-1.43,.31-2.97,.56-4.4,.73l-.14-.42c2.94-.92,6.44-2.66,8.18-3.89l2.74,2.21Zm13.58,11.12c-.31,.25-.87,.25-1.6-.03-1.15,.25-2.55,.53-4.06,.78v4.2h2.63l1.4-1.76s1.57,1.23,2.52,2.16c-.06,.28-.34,.42-.73,.42h-5.82v4.96h3.64l1.43-1.85s1.62,1.29,2.58,2.21c-.08,.28-.36,.42-.73,.42h-16.6l-.22-.78h7.64v-4.96h-5.8l-.22-.81h6.02v-3.86c-1.88,.22-3.81,.42-5.63,.53l-.11-.45c3.84-.81,8.62-2.38,11.09-3.58l2.58,2.41Zm-12.8-12.29l2.27,.98h7.42l1.12-1.23,2.44,1.85c-.17,.2-.59,.42-1.09,.53v6.8c-.03,.2-1.12,.7-1.85,.7h-.36v-1.18h-7.81v.87c0,.2-.92,.7-1.82,.7h-.31v-10.02Zm9.94,7.64v-5.88h-7.81v5.88h7.81Z"/>
      <path class="cls-1" d="M554.29,139.78c.39,.59,.64,1.34,.56,2.02-.06,.56-.42,1.06-1.09,1.06-.56,0-.92-.39-1.32-1.26-.87-1.76-2.18-3.47-4.28-5.18l.31-.42c2.83,.92,4.82,2.21,5.82,3.78Z"/>
      <path class="cls-1" d="M576.66,126.64c-.08,.39-.34,.7-1.01,.78-.06,2.44-.08,4.79-.31,7.08h7.59l1.65-2.07s1.9,1.43,3.05,2.46c-.06,.31-.36,.45-.76,.45h-11.14c1.01,5.26,4.06,10.75,12.24,14.36l-.03,.31c-1.23,.17-1.99,.76-2.27,2.07-7.42-4.2-9.63-10.95-10.44-16.55-.78,6.58-3.42,12.35-13.19,16.52l-.31-.48c8.09-4.45,10.44-9.97,11.12-16.24h-10.58l-.25-.84h10.92c.22-2.6,.2-5.35,.2-8.2l3.53,.34Z"/>
      <path class="cls-1" d="M595,133.64l.03-1.23v-3.44h-2.8l-.22-.81h10.44l1.32-1.65s1.54,1.18,2.46,2.02c-.08,.31-.34,.45-.73,.45h-3.14v4.68h.62l1.32-1.79s1.54,1.26,2.44,2.16c-.08,.31-.34,.45-.73,.45h-3.64v6.66c0,.11-.7,.56-1.79,.56h-.34v-7.22h-3.22c-.34,2.72-1.51,5.68-5.63,7.7l-.31-.34c2.74-2.21,3.61-4.82,3.86-7.36h-3.44l-.22-.81h3.72Zm7.95,16.83v-5.18h-8.82l-.22-.78h9.04v-3.86l3.3,.31c-.03,.39-.31,.67-1.01,.78v2.77h5.24l1.46-1.85s1.65,1.29,2.69,2.21c-.08,.28-.39,.42-.78,.42h-8.6v5.18h7.5l1.48-1.9s1.74,1.32,2.77,2.27c-.08,.31-.36,.45-.76,.45h-24.75l-.25-.81h11.7Zm-5.82-21.5v3.42l-.06,1.26h3.16v-4.68h-3.11Zm13.38-.92c-.06,.39-.31,.62-.98,.73v8.82c0,.22-.92,.64-1.71,.64h-.39v-10.5l3.08,.31Zm6.08-1.26c-.08,.39-.34,.62-1.01,.73v11.68c0,1.68-.31,2.63-2.94,2.88-.08-.67-.2-1.18-.53-1.54-.36-.34-.92-.59-1.99-.76v-.42s2.32,.17,2.8,.17c.42,0,.53-.14,.53-.48v-12.57l3.14,.31Z"/>
      <path class="cls-1" d="M4.31,180.99v-5.49H.62l-.22-.84h3.92v-6.44l3.19,.31c-.06,.42-.34,.7-1.04,.78v5.35h.62l1.23-1.74s1.43,1.23,2.24,2.13c-.08,.31-.36,.45-.73,.45h-3.36v4.82l3.86-1.23,.11,.36-3.98,2.27v9.35c0,1.68-.31,2.69-3.02,2.97-.06-.7-.2-1.26-.53-1.62-.39-.36-.95-.59-2.07-.76v-.42s2.41,.17,2.88,.17,.59-.14,.59-.53v-7.98l-2.66,1.37c-.08,.36-.34,.64-.62,.76l-1.04-2.8c.87-.22,2.41-.67,4.31-1.23Zm18.34-11.03l1.2-1.23,2.32,1.88c-.22,.22-.56,.36-1.12,.45-.17,5.32-.59,8.09-1.65,9.02-.7,.59-1.68,.87-2.86,.87,.03-.62-.08-1.2-.45-1.51-.36-.31-1.32-.62-2.27-.76l.03-.45c.98,.08,2.63,.22,3.16,.22,.45,0,.67-.06,.87-.28,.56-.5,.87-3.02,1.01-7.42h-4.96c-.76,5.21-2.94,8.79-8.06,11.06l-.2-.36c3.92-2.69,5.35-6.22,5.77-10.7h-4.7l-.25-.78h12.15Zm-11.12,12.01l2.35,1.01h8.04l1.15-1.29,2.49,1.9c-.17,.22-.62,.48-1.15,.59v9.07c-.06,.17-1.15,.64-1.88,.64h-.34v-2.02H13.75v1.46c0,.22-.95,.73-1.85,.73h-.36v-12.1Zm10.67,9.1v-7.31H13.75v7.31h8.46Z"/>
      <path class="cls-1" d="M40.52,176.54h4.31c.5-1.29,1.06-2.91,1.37-4.12h-15.46l-.25-.81h12.49c-.22-.03-.48-.14-.73-.31-.25-1.06-1.15-2.35-1.9-3.11l.28-.2c4.59,.7,4.14,3.39,2.72,3.61h7.67l1.57-1.96s1.79,1.34,2.91,2.32c-.08,.31-.36,.45-.78,.45h-8.26l3.08,.76c-.11,.31-.42,.53-1.06,.53-.64,.84-1.54,1.9-2.46,2.83h5.32l1.09-1.29,2.6,1.96c-.2,.22-.64,.45-1.2,.56v13.33c0,1.62-.36,2.66-3.25,2.91-.08-.67-.22-1.23-.62-1.57-.42-.34-1.06-.64-2.35-.81v-.39s2.74,.2,3.36,.2c.5,0,.64-.2,.64-.59v-9.1c-.14,.62-.95,.81-3.53,.81h-1.68c-1.68,0-1.9-.45-1.9-1.65v-3.53h-3.11c-.28,2.8-1.2,5.07-6.89,6.58l-.11-.14v9.44c0,.25-.9,.81-1.88,.81h-.36v-18.59l2.44,1.06h4.56l-.22-.14c-.2-1.26-1.09-2.83-1.88-3.78l.31-.17c3.98,1.09,4.14,3.39,3.16,4.09Zm-1.32,.84h-4.82v6.08c4.23-1.68,4.73-3.7,4.82-6.08Zm-.73,14.73h-.31v-9.13l2.18,.95h5.07l1.04-1.12,2.18,1.68c-.14,.2-.5,.39-.92,.45v6.1c-.03,.14-1.06,.56-1.74,.56h-.34v-1.62h-5.43v1.48c0,.2-.9,.64-1.74,.64Zm7.17-7.36h-5.43v4.4h5.43v-4.4Zm.73-4.23c0,.28,.06,.39,.59,.39h2.58c.14,0,.34-.03,.45-.06,.14,0,.36-.03,.53-.08h.25l.08,.03c.53,.17,.76,.31,.76,.64v-4.06h-5.24v3.14Z"/>
      <path class="cls-1" d="M62.36,183.85c1.74-.87,2.74-1.68,3.19-3.22-1.74-.81-2.32-1.57-2.32-2.46,0-1.04,.76-1.85,1.9-1.85,.64,0,1.15,.14,1.62,.59,.28,.64,.36,1.06,.36,1.79,0,3.02-1.71,4.93-4.4,5.94l-.36-.78Z"/>
      <path class="cls-1" d="M90.38,170.55c-.2,.28-.48,.42-1.15,.28-1.09,2.13-2.58,4.4-4.42,6.58h1.57l1.32-1.71s1.54,1.18,2.44,2.07c-.08,.28-.36,.42-.73,.42h-5.26c-.98,1.09-2.07,2.16-3.22,3.16h4l1.12-1.23,2.44,1.85c-.17,.22-.62,.45-1.15,.56v10.22c-.03,.2-1.09,.67-1.79,.67h-.34v-2.04h-5.54v1.76c0,.2-.67,.7-1.74,.7h-.34v-9.97c-1.01,.67-2.07,1.29-3.19,1.85l-.28-.34c1.2-.78,2.38-1.65,3.47-2.58v-2.38l1.76,.73c.98-.95,1.88-1.93,2.72-2.97h-7.45l-.22-.78h5.32v-3.98h-4.26l-.22-.84h4.48v-4.17l3.19,.28c-.06,.39-.34,.67-1.04,.78v3.11h1.26l1.23-1.68s.87,.73,1.65,1.46c.59-1.09,1.12-2.16,1.54-3.19l2.83,1.37Zm-10.44,11.62l-.28,.22v3.53h5.54v-3.75h-5.26Zm-.28,8.43h5.54v-3.86h-5.54v3.86Zm2.21-13.19h.84c1.01-1.32,1.9-2.63,2.72-3.98h-3.56v3.98Zm8.76-8.2l2.52,1.26h3.89l1.32-1.32,2.46,2.38c-.22,.25-.62,.34-1.29,.34-.98,1.85-2.83,5.24-4.17,7.06,3.33,2.24,4.59,4.87,4.59,7.14,0,2.77-1.12,4.17-4.2,4.31,0-.7-.11-1.48-.36-1.76-.28-.22-.9-.39-1.62-.48v-.45h2.44c.31,0,.5-.03,.73-.17,.56-.28,.84-.9,.84-1.99,0-2.1-.87-4.34-3.11-6.55,.7-1.85,1.79-5.35,2.46-7.7h-4.34v22.01c0,.17-.7,.76-1.82,.76h-.34v-24.84Z"/>
      <path class="cls-1" d="M110.94,185.47c-.2,.5-.42,.98-.64,1.43,5.96,2.49,4.31,6.36,2.41,4.87-.34-1.4-1.57-3.14-2.72-4.37-1.46,2.58-3.42,4.4-5.71,5.52l-.34-.31c2.24-1.85,4.17-4.93,5.07-8.71l3.02,1.06c-.14,.31-.48,.56-1.09,.5Zm7.14-15.34c-.08,.31-.34,.45-.73,.45h-1.6v10.22c0,.14-.67,.56-1.76,.56h-.36v-2.86c-1.82,.59-4.23,1.34-7.31,2.27-.14,.34-.39,.53-.64,.62l-1.34-2.35,2.49-.28v-8.18h-2.07l-.22-.81h9.66l1.37-1.68s1.54,1.18,2.52,2.04Zm7.17,11.56c-2.04,.34-4.51,.67-7.17,.95v10.7c0,.17-.76,.7-1.88,.7h-.39v-11.17c-3.22,.28-6.61,.48-9.8,.5l-.08-.53c6.41-.56,14.45-1.99,18.68-3.25l2.18,2.21c-.28,.22-.81,.22-1.54-.11Zm-16.3-9.16h4.68v-1.96h-4.68v1.96Zm4.68,2.83v-2.02h-4.68v2.02h4.68Zm0,2.44v-1.6h-4.68v2.27l4.68-.67Zm10.39-3.08c.73-.95,1.32-1.99,1.76-3.11h-7.7l-.25-.81h7.98l1.34-1.26,2.21,1.96c-.22,.25-.5,.34-1.15,.34-.64,1.37-1.51,2.63-2.58,3.78,5.04,2.97,3.75,5.66,1.96,4.7-.67-.92-1.85-2.1-3.42-3.36-1.93,1.54-4.34,2.74-7.34,3.53l-.22-.42c2.55-1.01,4.65-2.38,6.27-4.06-1.43-1.04-3.08-2.07-4.93-3l.2-.42c2.41,.67,4.34,1.4,5.85,2.13Zm.78,9.97l-.45,1.12c1.23,2.1,3.47,3.67,5.63,4.42l-.06,.31c-.84,.2-1.46,.87-1.71,1.99-1.82-1.26-3.28-3.33-4.2-5.99-1.26,2.58-3.02,4.51-5.12,5.74l-.34-.31c1.93-1.96,3.56-5.07,4.31-8.74l3,.92c-.11,.34-.45,.59-1.06,.53Z"/>
      <path class="cls-1" d="M134.04,193.28l-.22-.39c2.91-1.32,6.08-4.03,7.39-5.85l2.86,1.71c-.17,.31-.53,.48-1.32,.39-1.96,1.57-5.21,3.28-8.71,4.14Zm25-7.28c-.08,.31-.36,.45-.76,.45h-10.78v6.97c0,.25-1.01,.67-1.93,.67h-.42v-7.64h-10.92l-.25-.84h11.17v-2.32l3.39,.36c-.06,.36-.31,.64-1.04,.73v1.23h7.25l1.51-1.85s1.71,1.29,2.77,2.24Zm-1.9-13.55c-.06,.31-.34,.45-.73,.45h-8.06v2.41h4.26l1.29-1.62s1.48,1.15,2.44,1.99c-.08,.31-.36,.45-.76,.45h-7.22v2.49h4.17l1.32-1.62s1.48,1.12,2.41,1.99c-.08,.31-.34,.45-.73,.45h-7.17v2.58h5.24l1.43-1.79s1.62,1.23,2.6,2.16c-.06,.31-.36,.45-.76,.45h-16.74v.95c0,.17-.73,.7-1.82,.7h-.39v-9.46c-1.09,1.18-2.27,2.16-3.42,2.97l-.36-.31c1.99-2.21,4.23-5.88,5.66-9.6l3.08,1.37c-.14,.31-.5,.5-1.12,.42-.45,.76-.9,1.46-1.4,2.16l.14,.06h6.27l-.28-.17c-.2-1.23-1.09-2.74-1.88-3.61l.28-.2c4.12,.92,4.23,3.3,3.16,3.98h5.15l1.4-1.76s1.6,1.23,2.55,2.16Zm-11.06,2.86v-2.41h-5.96v2.41h5.96Zm0,3.3v-2.49h-5.96v2.49h5.96Zm-5.96,3.39h5.96v-2.58h-5.96v2.58Zm16.74,11.09c-1.6-1.74-5.21-4.03-7.76-5.21l.22-.34c10.19,1.37,10.22,6.27,7.53,5.54Z"/>
      <path class="cls-1" d="M188.19,174.08c-.06,.31-.34,.45-.76,.45h-14c-.98,1.85-2.13,3.67-3.56,5.38l.92,.34c-.11,.28-.36,.45-.87,.53v12.54c-.03,.17-.95,.7-1.85,.7h-.42v-11.73c-1.4,1.32-2.97,2.49-4.76,3.5l-.28-.31c3.67-2.86,6.41-6.86,8.26-10.95h-7.22l-.25-.81h7.84c.81-1.88,1.43-3.75,1.85-5.54l3.53,.98c-.11,.34-.36,.5-1.12,.5-.45,1.32-1.01,2.69-1.68,4.06h10l1.57-1.93s1.74,1.34,2.8,2.3Zm-1.46,8.57c-.08,.31-.34,.45-.73,.45h-5.99v8.54h4.37l1.48-1.88s1.71,1.32,2.77,2.24c-.08,.31-.36,.45-.76,.45h-17.02l-.22-.81h7.11v-8.54h-5.49l-.22-.81h5.71v-6.47l3.16,.31c-.03,.36-.25,.62-.9,.7v5.46h2.69l1.43-1.76s1.62,1.23,2.6,2.13Z"/>
      <path class="cls-1" d="M217.87,171.98c-.08,.31-.34,.45-.76,.45h-24.3l-.25-.81h12.29c-.39-1.23-1.74-2.66-2.86-3.42l.22-.22c4.7,.31,5.18,2.86,4.17,3.64h7l1.57-1.96s1.82,1.34,2.91,2.32Zm-23.1,22.06h-.36v-13.3l2.44,1.06h16.97l1.09-1.29,2.6,1.96c-.17,.2-.62,.45-1.18,.53v8.23c0,1.6-.36,2.58-3.22,2.86-.08-.67-.22-1.2-.59-1.54-.42-.34-1.04-.62-2.3-.76v-.39s2.63,.14,3.25,.14c.48,0,.62-.14,.62-.53v-8.4h-17.47v10.67c0,.25-.92,.76-1.85,.76Zm4.09-13.19h-.34v-7.28l2.35,1.01h8.6l1.15-1.26,2.58,1.93c-.2,.22-.64,.45-1.18,.56v4.23c-.03,.17-1.18,.59-1.9,.59h-.36v-1.12h-9.02v.67c0,.17-.98,.67-1.88,.67Zm1.57,10.61h-.31v-7.62l2.24,.95h5.49l1.09-1.15,2.35,1.76c-.17,.22-.59,.42-1.06,.5v4.51c-.03,.17-1.06,.67-1.79,.67h-.34v-1.34h-5.88v1.06c0,.17-.92,.64-1.79,.64Zm9.32-16.04h-9.02v3.25h9.02v-3.25Zm-1.65,10.22h-5.88v3.3h5.88v-3.3Z"/>
      <path class="cls-1" d="M227.3,169.51c5.71,3.05,2.83,5.74,1.51,4.23-.31-.95-.9-2.38-1.74-3.72-.78,1.65-1.93,3.56-3.28,5.18h3.08l1.15-1.46s1.34,1.04,2.13,1.85c-.06,.31-.31,.45-.67,.45h-2.27v4.09h.48l1.15-1.57s1.29,1.12,2.07,1.93c-.06,.31-.34,.45-.7,.45h-3v8.54l3.95-1.06,.11,.39c-1.88,.95-4.54,2.32-8.04,3.89-.11,.34-.36,.62-.62,.7l-1.01-2.6c.78-.14,2.07-.42,3.67-.84v-9.02h-3.22l-.22-.81h3.44v-4.09h-1.99l-.06-.2c-.5,.56-1.04,1.06-1.57,1.51l-.34-.28c1.71-2.3,3.3-6.36,3.89-8.93l3.11,.78c-.08,.31-.34,.5-1.04,.56v.03Zm-4.28,18.42c.11-1.71-.48-3.95-1.04-5.4l.42-.14c3.75,3.7,1.99,7.08,.62,5.54Zm7.11-4.59c-.45,1.54-1.09,3.39-1.82,4.65l-.5-.17c.31-1.57,.62-3.84,.78-5.77l2.52,.7c-.11,.34-.39,.59-.98,.59Zm9.74,3.47c-.06,.31-.31,.45-.7,.45h-3.02v2.04l3.75-.59,.06,.42c-1.74,.67-4.23,1.65-7.7,2.77-.14,.39-.36,.59-.62,.67l-1.32-2.41c.84-.08,2.24-.31,3.89-.56v-2.35h-3.05l-.22-.81h3.28v-2.1c-1.09,.17-2.21,.31-3.25,.36l-.14-.5c2.35-.53,5.26-1.6,6.78-2.41l-.22,.03h-.28v-.64h-3.75v.67c0,.17-.78,.56-1.54,.56h-.25v-6.19l1.93,.84h3.36l.95-1.01,2.07,1.6c-.14,.17-.5,.39-.98,.45v3.14c-.03,.17-.64,.45-1.18,.56l1.93,1.79c-.25,.25-.73,.22-1.34-.03-.62,.14-1.34,.31-2.16,.45v2.44h.67l1.04-1.23s1.26,.9,2.02,1.6Zm5.57-13.66c.39,.31,1.43,1.2,2.13,1.85-.06,.31-.34,.45-.73,.45h-4.62c.03,3.28,.2,6.38,.67,8.99,.84-2.21,1.37-4.54,1.65-6.8l3,.73c-.11,.36-.34,.53-1.15,.53-.56,2.66-1.46,5.46-2.91,8.04,.42,1.34,.95,2.49,1.65,3.39,.31,.48,.39,.45,.64-.14,.31-.67,.76-1.96,1.06-3.11l.34,.06-.45,4.37c.64,1.23,.73,1.82,.42,2.1-.81,.81-2.35-.17-3.14-1.26-.76-.98-1.37-2.1-1.85-3.39-1.51,1.99-3.44,3.75-5.99,5.07l-.28-.36c2.49-1.65,4.37-3.89,5.71-6.38-.92-3.25-1.23-7.28-1.37-11.82h-9.66l-.22-.81h3.95v-2.21h-3l-.22-.84h3.22v-3.14l2.88,.31c-.06,.34-.28,.59-.92,.7v2.13h.56l1.09-1.4s1.29,1.01,2.07,1.79c-.08,.31-.36,.45-.7,.45h-3.02v2.21h3.98c-.06-2.02-.06-4.14-.06-6.33l3.11,.36c-.06,.36-.31,.67-1.01,.78l-.06,5.18h1.71l1.12-1.46c-.22-.03-.48-.11-.7-.31-.17-1.04-.9-2.3-1.54-3.08l.31-.17c3.56,1.09,3.33,3.16,2.32,3.53Zm-8.34,7.22v-2.46h-3.75v2.46h3.75Z"/>
      <path class="cls-1" d="M258.16,169.46v5.8h.25l1.29-1.85s1.51,1.29,2.35,2.21c-.08,.31-.34,.45-.73,.45h-3.16v5.43l3.64-1.4,.11,.36-3.75,2.41v10.36c0,.31-.9,.81-1.71,.81h-.42v-9.86l-2.66,1.57c-.06,.36-.25,.64-.53,.76l-1.6-2.58c.98-.28,2.72-.9,4.79-1.65v-6.22h-2.3c-.59,2.18-1.32,4.23-2.27,5.77l-.48-.2c.84-2.88,1.34-6.92,1.51-10.61l3.02,.5c-.08,.36-.36,.62-1.01,.67-.17,1.01-.36,2.04-.59,3.05h2.1v-6.92l3.14,.34c-.06,.39-.28,.67-1.01,.78Zm19.24,13.24c-.08,.31-.36,.45-.76,.45h-4.45v8.15c0,1.62-.42,2.6-3.5,2.86-.11-.62-.28-1.09-.76-1.43-.53-.34-1.32-.56-2.83-.78v-.39s3.5,.25,4.17,.25c.56,0,.73-.2,.73-.62v-8.04h-9.49l-.22-.81h9.72v-2.63l3.16,.31c-.06,.42-.34,.64-.98,.73v1.6h1.43l1.34-1.74s1.48,1.2,2.44,2.1Zm-.59-9.58c-.06,.31-.34,.45-.73,.45h-6.64v4.23h2.91l1.34-1.74s1.51,1.2,2.46,2.1c-.06,.31-.34,.45-.73,.45h-13.24l-.22-.81h5.29v-4.23h-5.94l-.22-.81h6.16v-4.56l3.11,.31c-.06,.36-.28,.62-.92,.7v3.56h3.44l1.4-1.76s1.57,1.23,2.52,2.13Zm-12.1,16.21c-.39-1.54-1.79-3.47-2.88-4.68l.28-.2c6.44,2.13,4.73,6.36,2.6,4.87Z"/>
      <path class="cls-1" d="M304.84,170.46c-.08,.31-.34,.45-.73,.45h-19.88v18.82c0,1.23,.59,1.68,3.36,1.68h7.11c3,0,5.46-.06,6.33-.11,.53-.06,.95-.11,1.32-.17,.31-.03,.78-.14,1.2-.31h.34l.17,.03c1.12,.22,1.4,.5,1.4,.95,0,1.18-1.74,1.4-10.95,1.37h-6.69c-4.12,0-5.66-.5-5.68-3.16v-19.1h-1.06l-.25-.81h20.05l1.43-1.82s1.57,1.26,2.55,2.18Zm-18.23,19.74h-.28v-9.18l2.07,.9h3l1.01-1.04,2.13,1.62c-.14,.17-.5,.39-.92,.42v6.13c-.03,.2-1.01,.62-1.68,.62h-.31v-1.46h-3.36v1.34c0,.2-.84,.64-1.65,.64Zm5.01-7.48h-3.36v4.68h3.36v-4.68Zm-2.44-2.21h-.31v-8.4l2.3,.98h6.47l1.12-1.18,2.38,1.79c-.17,.2-.56,.39-1.06,.5v5.29c-.03,.17-1.12,.62-1.82,.62h-.34v-1.2h-6.89v.92c0,.2-.95,.67-1.85,.67Zm8.74-6.61h-6.89v4.2h6.89v-4.2Zm-1.88,15.9h-.31v-8.79l2.1,.9h3l1.04-1.09,2.24,1.71c-.17,.17-.56,.36-1.01,.45v5.96c-.03,.17-1.04,.62-1.68,.62h-.34v-1.34h-3.39v.95c0,.2-.84,.64-1.65,.64Zm5.04-7.08h-3.39v4.68h3.39v-4.68Z"/>
      <path class="cls-1" d="M312.96,183.85c1.74-.87,2.74-1.68,3.19-3.22-1.74-.81-2.32-1.57-2.32-2.46,0-1.04,.76-1.85,1.9-1.85,.64,0,1.15,.14,1.62,.59,.28,.64,.36,1.06,.36,1.79,0,3.02-1.71,4.93-4.4,5.94l-.36-.78Z"/>
      <path class="cls-1" d="M334.66,183.85c-.11,.39-.45,.62-1.06,.59-.28,.98-.67,1.99-1.2,2.97,1.12,2.1,2.58,3.14,4.68,3.58v-9.24h-11.51l-.25-.78h21.5l1.46-1.93s1.68,1.34,2.69,2.3c-.08,.28-.34,.42-.76,.42h-10.81v3.89h4.87l1.51-1.96s1.71,1.34,2.74,2.32c-.08,.31-.36,.45-.76,.45h-8.37v4.87c.76,.03,1.6,.06,2.49,.06,2.1,0,7.11,0,9.3-.06v.39c-.78,.14-1.18,.84-1.2,1.71h-8.18c-5.1,0-7.92-1.01-9.74-5.4-1.37,2.32-3.5,4.54-6.78,6.02l-.25-.34c3.86-2.66,5.6-6.94,6.24-10.61l3.39,.76Zm-4.48-15.04l2.49,1.06h11l1.2-1.32,2.6,1.99c-.2,.2-.62,.45-1.2,.56v7.95c-.03,.17-1.18,.64-1.96,.64h-.36v-1.29h-11.45v.9c0,.2-1.01,.73-1.96,.73h-.36v-11.23Zm13.78,1.88h-11.45v3.02h11.45v-3.02Zm-11.45,3.81v3.11h11.45v-3.11h-11.45Z"/>
      <path class="cls-1" d="M366.32,172.9v-4.68l3.33,.31c-.06,.42-.34,.7-1.04,.81v3.56h7.06l1.54-1.96s1.76,1.34,2.88,2.32c-.08,.31-.36,.45-.76,.45h-10.72v4.87h4.28l1.54-1.34,2.35,2.24c-.22,.25-.53,.34-1.29,.36-1.51,2.91-3.56,5.46-6.16,7.64,3.25,2.04,7.14,3.44,11.26,4.26l-.03,.31c-1.06,.14-1.85,.84-2.21,1.93-4.06-1.15-7.67-2.86-10.58-5.32-3.42,2.44-7.7,4.26-12.96,5.38l-.2-.45c4.65-1.43,8.65-3.5,11.84-6.13-2.18-2.16-3.89-4.84-5.01-8.06h-4.28l-.25-.81h9.41v-4.87h-11l-.22-.81h11.23Zm-4.28,6.5c1.26,2.8,3.25,5.12,5.68,6.97,2.21-2.04,3.98-4.4,5.18-6.97h-10.86Z"/>
      <path class="cls-1" d="M393.32,174.66c.59-.62,.98-1.68,.84-2.69l.48-.03c.14,.39,.25,.76,.31,1.12h4.79v-4.84l3.05,.31c-.03,.39-.31,.62-.98,.73v3.81h1.51c.7-1.32,1.57-3.16,2.07-4.48l3,.87c-.11,.34-.5,.53-1.09,.5-.78,.92-1.99,2.16-3.16,3.11h2.55l1.26-1.26,2.27,2.18c-.2,.17-.53,.22-1.06,.25-.67,.59-1.79,1.34-2.69,1.79l.7,.53c-.17,.2-.56,.39-1.06,.5v3.5c-.03,.17-1.04,.64-1.71,.64h-.34v-.9h-6.75v.45c0,.17-.9,.59-1.71,.59h-.31v-6.3l2.16,.9h6.36l1.06-1.12,1.12,.84c.25-.5,.53-1.2,.73-1.79h-11.65c.08,1.43-.42,2.41-1.09,2.86-.59,.36-1.48,.36-1.76-.28-.2-.5,.03-.98,.45-1.29h-2.77v5.4l3.44-.95,.11,.36-3.56,1.93v9.21c0,1.68-.34,2.66-2.97,2.91-.08-.64-.2-1.2-.53-1.57-.39-.36-.98-.59-2.07-.76v-.42s2.38,.17,2.86,.17,.62-.14,.62-.5v-7.98l-2.38,1.15c-.11,.36-.34,.64-.62,.73l-1.01-2.77c.81-.17,2.24-.5,4-.95v-5.96h-3.64l-.22-.81h3.86v-6.13l3.14,.34c-.08,.39-.36,.67-1.04,.76v5.04h.2l1.18-1.74s1.29,1.18,2.07,2.04Zm8.06,19.4c-.06-.62-.22-1.15-.56-1.48-.42-.28-1.09-.53-2.41-.73v-.39s2.8,.2,3.36,.2c.5,0,.64-.17,.64-.5v-3.47c-2.72,2.69-6.75,4.62-11.37,5.88l-.22-.48c3.84-1.46,7.2-3.72,9.38-6.24h-4.26l-.98,.95-2.13-1.6c.28-.2,.73-.39,1.15-.53,.36-.84,.76-1.88,1.01-2.63h-2.58l-.22-.81h12.99l1.26-1.54s1.4,1.09,2.27,1.9c-.08,.31-.34,.45-.73,.45h-3.39v3h1.54l1.32-1.71s1.51,1.2,2.41,2.07c-.06,.31-.34,.45-.73,.45h-4.54v4.37c0,1.57-.39,2.6-3.22,2.86Zm-5.12-21.59c-.14-1.2-.95-2.69-1.74-3.58l.31-.17c5.01,1.6,3.19,5.15,1.43,3.75Zm-.2,13.55h6.36v-3h-5.12c-.36,.9-.81,2.07-1.23,3Zm1.23-9.27v2.72h6.75v-2.72h-6.75Z"/>
      <path class="cls-1" d="M423.05,175.22c-.08,.31-.34,.45-.73,.45h-2.94v2.3c5.32,2.44,3.47,6.08,1.68,4.56-.2-1.18-.92-2.66-1.68-3.78v14.53c0,.28-.9,.81-1.65,.81h-.45v-12.43c-.92,2.16-2.16,4.12-3.67,5.88l-.42-.36c1.9-3.19,3.05-7.39,3.7-11.51h-3.33l-.22-.81h3.95v-6.75l3.11,.34c-.06,.42-.28,.67-1.01,.78v5.63h.25l1.18-1.65s1.4,1.15,2.24,2.02Zm5.66-5.8v12.35c-.06,5.74-1.88,9.72-7.73,12.29l-.31-.36c4.51-2.72,5.99-6.33,6.05-11.65-.81,1.04-1.9,2.35-3.19,3.84,.03,.31-.14,.67-.39,.84l-1.65-2.27c.95-.5,3.08-1.85,5.24-3.3v-12.82l2.97,.31c-.06,.39-.28,.67-.98,.78Zm-4.09,8.99c-.14-1.71-1.15-3.92-2.04-5.35l.36-.17c5.4,3.19,3.5,7.2,1.68,5.52Zm8.57-8.93v7.56c1.04-1.57,2.13-3.44,2.66-4.54l2.66,1.74c-.14,.25-.53,.48-1.09,.28-.9,.95-2.6,2.44-4.23,3.64v2.32c6.44,2.6,4.87,6.94,2.74,5.38-.36-1.46-1.57-3.16-2.74-4.51v9.1c0,.56,.14,.78,.84,.78h1.37c.62,0,1.12,0,1.4-.03,.2-.03,.31-.08,.45-.28,.2-.31,.56-1.82,.78-3.05h.34l.11,3.14c.64,.31,.84,.5,.84,.92,0,.87-.9,1.23-4,1.23l-1.79-.03c-1.9,0-2.35-.59-2.35-2.1v-22.68l3.02,.36c-.06,.36-.31,.64-1.01,.76Z"/>
      <path class="cls-1" d="M445,194.04h-.39v-25.37l2.44,1.12h17.44l1.23-1.34,2.52,2.02c-.2,.25-.64,.42-1.2,.56v22.01c-.03,.2-1.09,.78-1.9,.78h-.36v-1.82h-17.95v1.15c0,.34-.81,.9-1.82,.9Zm1.82-23.41v20.55h17.95v-20.55h-17.95Zm3.19,13.64h-.28v-6.16l2.1,.92h7.59l.98-1.04,2.1,1.6c-.11,.17-.48,.36-.87,.42v3.25l1.74,1.62c-.14,.2-.39,.22-.87,.03-.64,.34-1.6,.78-2.49,1.2,4.42,2.24,3.22,4.7,1.6,3.86-.92-1.32-3.42-3.44-6.52-5.07l.2-.45c1.6,.39,2.88,.81,3.92,1.26,.7-.67,1.46-1.51,2.04-2.21-.34,.17-.87,.34-1.26,.34h-.34v-.59h-3.72c-.76,.73-1.65,1.4-2.66,1.99v2.97l3.98-1.15,.14,.42c-1.06,.56-3.14,1.76-5.26,2.83-.11,.25-.28,.42-.42,.5l-1.29-1.68c.81-.56,.95-.76,.95-1.12v-1.79c-1.29,.56-2.66,1.04-4.09,1.43l-.28-.48c2.55-.98,4.84-2.35,6.47-3.92h-1.76v.42c0,.17-.87,.59-1.68,.59Zm6.58-12.1v1.51h2.86l1.18-1.43s1.32,1.01,2.18,1.79c-.08,.31-.34,.45-.73,.45h-5.49v2.02h4.12l1.2-1.48s1.4,1.04,2.27,1.85c-.08,.31-.36,.45-.76,.45h-15.62l-.22-.81h6.97v-2.02h-5.43l-.22-.81h5.66v-2.44l2.86,.28c-.06,.34-.25,.56-.81,.64Zm-4.9,7.67v2.6h7.95v-2.6h-7.95Z"/>
      <path class="cls-1" d="M473.54,172.31l2.04,.9h2.38v-1.74h-5.29l-.22-.84h5.52v-2.52l3,.31c-.06,.36-.28,.62-.95,.73v1.48h2.52l1.26-1.54s1.46,1.12,2.32,1.93c-.08,.31-.34,.45-.73,.45h-5.38v1.74h2.41l.95-1.01,2.04,1.57c-.11,.14-.45,.34-.87,.39v3.28c0,.22-.98,.64-1.6,.64h-.31v-.7h-2.63v.87l.03-.03c6.33,.5,5.4,4.54,3.3,3.56-.59-1.12-2.07-2.38-3.33-3.14v4.28c0,.25-.9,.64-1.62,.64h-.42v-3.89c-1.54,1.57-3.5,2.86-5.77,3.86l-.25-.45c2.3-1.48,4.2-3.53,5.43-5.71h-1.93v.31c0,.17-.87,.59-1.62,.59h-.28v-5.96Zm7.31,14.9c-.06,.36-.28,.62-.92,.73v4.56h4.09v-7.25h-9.6l-.25-.78h17.89l1.34-1.71s1.57,1.18,2.52,2.07c-.08,.28-.36,.42-.76,.42h-8.93v2.97h4.54l1.4-1.74s1.57,1.2,2.52,2.1c-.03,.31-.34,.42-.73,.42h-7.73v3.5h7.64l1.43-1.82s1.62,1.26,2.63,2.16c-.08,.31-.34,.45-.76,.45h-24.61l-.22-.78h5.4v-5.6l3.11,.31Zm-2.88-13.22h-2.52v2.55h2.52v-2.55Zm4.68,2.55v-2.55h-2.63v2.55h2.63Zm9.16-7.36c-.14,.31-.45,.56-1.04,.56-.34,.9-.76,1.74-1.2,2.52h4.9l1.34-1.76s1.51,1.23,2.46,2.13c-.08,.31-.34,.45-.73,.45h-1.76c-.67,2.18-1.74,4-3.16,5.54,1.51,1.15,3.44,2.07,5.82,2.66l-.08,.31c-.81,.25-1.37,.84-1.54,1.88-2.35-.92-4.09-2.18-5.43-3.72-1.85,1.51-4.2,2.69-7.11,3.53l-.2-.36c2.72-1.18,4.82-2.6,6.36-4.37-.87-1.29-1.57-2.72-2.13-4.31-.78,1.06-1.68,1.99-2.63,2.72l-.39-.28c1.46-2.02,2.77-5.15,3.42-8.4l3.11,.92Zm1.51,3.89h-4.23l-.36,.59c.64,1.43,1.48,2.69,2.58,3.81,.92-1.32,1.6-2.77,2.02-4.4Z"/>
      <path class="cls-1" d="M506.02,170.04h3.42l.95-1.23,2.38,1.76c-.22,.28-.59,.42-1.29,.5v6.33l.87-.9,1.6,1.6v-7.87l2.16,.92h1.46v-2.91l2.27,.28c-.06,.31-.28,.53-.81,.62v2.02h1.71v-2.91l2.32,.28c-.06,.34-.28,.56-.87,.64v1.99h1.68l.92-1.12,2.04,1.6c-.17,.2-.45,.36-1.01,.48v6.86c0,.08-.2,.22-.5,.36,.42,.31,1.34,1.04,1.96,1.62-.06,.31-.34,.45-.7,.45h-13.36l-.22-.81h10.86l.92-1.12-.56,.06h-.28v-.64h-8.18v.42c0,.17-.56,.56-1.51,.56h-.31v-1.46c-.17,.11-.45,.11-.81,.14-.39,.56-1.09,1.46-1.54,1.9l-.11-.06,.98,.73c-.17,.22-.59,.45-1.06,.5v9.91c0,1.37-.31,2.16-2.52,2.38-.06-.5-.14-.92-.42-1.18-.34-.25-.81-.42-1.71-.56v-.45s1.85,.17,2.3,.17c.42,0,.53-.17,.53-.53v-4.65l-2.63,2.04c-.06,.34-.25,.59-.5,.7l-.92-1.76c-.25,2.24-1.09,4.59-3.53,6.3l-.34-.34c1.99-2.46,2.13-5.52,2.13-8.51v-5.57l2.27,.98h3.28l.9-1.09,.95,.7,.36-1.82h-7.84c.08,1.01-.11,1.79-.5,2.21-.39,.42-1.26,.53-1.57-.03-.28-.53,0-1.09,.53-1.46,.45-.45,.84-1.65,.64-2.49h.5c.11,.31,.2,.62,.28,.92h.45v-8.37l1.99,.9Zm-.36,12.99c4.82-.22,4.34,2.6,2.74,2.16-.62-.48-1.74-1.09-2.74-1.51v1.48c0,.67-.03,1.4-.08,2.16,.87-.25,2.41-.78,4-1.37v-4.56h-3.92v1.65Zm3.14-9.77h.98v-2.38h-4.06v6.64h1.29v-5.1l1.79,.84Zm.98,4.26v-3.44h-1.37v3.44h1.37Zm18,14.95c-.06,.31-.34,.45-.76,.45h-14.67l-.22-.84h5.07c-.14-.06-.28-.14-.42-.25-.11-.95-.64-2.16-1.12-2.97-.22,.06-.45,.08-.73,.08h-.31v-6.8l2.24,.95h5.8l.98-1.12,2.1,1.6c-.17,.22-.42,.36-.98,.45v4.09c0,.14-.64,.48-1.51,.53l1.46,.48c-.14,.31-.48,.53-1.06,.48-.53,.76-1.37,1.71-2.21,2.49h2.6l1.32-1.65s1.51,1.18,2.44,2.04Zm-12.01-20.5v2.58h1.79v-2.58h-1.79Zm1.79,3.39h-1.79v2.69h1.79v-2.69Zm5.18,12.4h-6.19v.59c0,.06-.11,.17-.31,.28,2.88,1.2,2.72,3.05,1.76,3.44h2.6c.5-1.15,1.04-2.72,1.37-3.86l.76,.25v-.7Zm0-.84v-3h-6.19v3h6.19Zm-3.72-14.95v2.58h1.71v-2.58h-1.71Zm1.71,3.39h-1.71v2.69h1.71v-2.69Zm1.46-.81h1.76v-2.58h-1.76v2.58Zm1.76,3.5v-2.69h-1.76v2.69h1.76Z"/>
      <path class="cls-1" d="M532.73,172.34l2.44,1.09h5.38c.64-1.6,1.32-3.67,1.74-5.18l3.61,.9c-.14,.34-.45,.56-1.06,.56-.81,1.09-1.96,2.52-3.14,3.72h11.06l1.12-1.32,2.58,1.99c-.17,.2-.64,.45-1.2,.56v16.3c0,1.71-.36,2.74-3.5,3.05-.11-.7-.31-1.26-.76-1.62-.48-.36-1.29-.64-2.74-.84v-.45s3.33,.25,4.09,.25c.53,0,.7-.2,.7-.64v-16.46h-18.09v18.93c0,.28-.9,.84-1.85,.84h-.36v-21.67Zm6.02,5.12l2.21,.98h5.68l1.12-1.23,2.46,1.85c-.2,.22-.62,.48-1.18,.59v8.01c-.03,.2-1.09,.7-1.82,.7h-.31v-2.27h-6.08v2.32c0,.22-.92,.7-1.76,.7h-.34v-11.65Zm8.18,7.78v-5.99h-6.08v5.99h6.08Z"/>
      <path class="cls-1" d="M571.26,191.77v-23.27l3.42,.36c-.06,.42-.28,.7-.98,.81v9.13h5.88l1.6-2.02s1.82,1.4,2.94,2.41c-.08,.31-.36,.45-.78,.45h-9.63v12.12h8.01l1.62-2.04s1.85,1.4,2.97,2.41c-.08,.31-.36,.45-.78,.45h-24.89l-.22-.81h10.86Z"/>
      <path class="cls-1" d="M597.32,169.68c-.62,1.06-1.51,2.52-2.24,3.64h3.25l1.15-1.29,2.46,1.9c-.17,.25-.62,.45-1.18,.56v17.05c-.03,.2-1.06,.73-1.82,.73h-.34v-2.13h-5.4v2.21c0,.25-.78,.76-1.71,.76h-.39v-20.86l2.24,1.06h.7c.31-1.46,.7-3.56,.95-5.07l3.39,.81c-.11,.42-.48,.62-1.06,.62Zm-4.12,4.45v6.97h5.4v-6.97h-5.4Zm0,15.18h5.4v-7.39h-5.4v7.39Zm14.48-19.52c-.42,1.2-.92,2.38-1.46,3.47h5.66l1.29-1.4,2.46,2.07c-.22,.25-.59,.42-1.23,.48-.2,10.64-.64,16.58-2.02,18.17-.84,.98-1.99,1.43-3.5,1.43,0-.76-.11-1.34-.56-1.71-.45-.36-1.62-.73-2.83-.95l.03-.48c1.29,.14,3.3,.31,3.98,.31,.53,0,.76-.08,1.06-.39,1.04-1.01,1.4-7.14,1.6-16.72h-6.33c-1.23,2.35-2.69,4.37-4.31,5.91l-.36-.25c1.74-2.8,3.42-7.17,4.28-11.48l3.3,.98c-.11,.31-.42,.56-1.06,.56Zm-.98,15.23c-.28-1.93-1.79-4.31-3.11-5.8l.28-.2c7.17,2.83,5.12,7.84,2.83,5.99Z"/>
      <path class="cls-1" d="M10.05,221.03c-.08,.39-.34,.64-1.04,.76v4h1.54l1.32-1.82s1.48,1.29,2.38,2.18c-.08,.31-.34,.45-.73,.45h-4.51v6.1c1.48,.42,3.28,.5,5.49,.5,2.74,0,9.27,0,12.1-.08v.36c-.9,.2-1.34,.9-1.37,1.76H14.42c-5.6,0-8.57-1.04-10.42-6.08-.62,2.6-1.68,5.1-3.61,6.92l-.31-.34c2.13-3.36,2.69-8.82,2.52-13.22l3.16,.5c-.08,.42-.42,.67-1.04,.73-.08,1.43-.25,2.91-.53,4.42,.73,1.68,1.6,2.83,2.72,3.58v-11.12l3.14,.36Zm-3.64-1.34v-4.34H1.74l-.22-.81H6.41v-4.31l3.14,.31c-.03,.36-.28,.62-.95,.73v3.28h1.48l1.32-1.71s1.51,1.2,2.44,2.07c-.08,.31-.34,.45-.73,.45h-4.51v4.34h2.04l1.34-1.76s1.51,1.23,2.46,2.13c-.08,.31-.36,.45-.76,.45H.67l-.22-.81H6.41Zm8.48-8.26l2.46,1.01h4.65l1.18-1.26,2.55,1.93c-.2,.22-.64,.48-1.2,.59v8.06c-.03,.2-1.15,.64-1.88,.64h-.36v-1.85h-5.29v7.34c0,.56,.17,.76,1.23,.76h2.55c1.15,0,2.04-.03,2.41-.06,.31-.03,.48-.11,.62-.34,.22-.39,.59-1.96,.92-3.56h.36l.08,3.67c.7,.25,.87,.5,.87,.92,0,.98-1.04,1.37-5.38,1.37h-2.86c-2.35,0-2.91-.5-2.91-2.27v-16.97Zm7.39,1.85h-5.29v6.47h5.29v-6.47Z"/>
      <path class="cls-1" d="M31.16,211.2l2.38,.98h3.86l1.09-1.18,2.41,1.79c-.2,.22-.62,.45-1.15,.56v6.64c-.06,.14-1.06,.56-1.74,.56h-.34v-.95h-.98v5.21h.87l1.23-1.68s1.37,1.2,2.16,2.04c-.06,.28-.34,.42-.73,.42h-3.53v5.63l3.98-1.09,.11,.39c-2.27,1.09-5.43,2.69-9.69,4.51-.11,.34-.36,.62-.64,.73l-1.01-2.72,1.65-.36v-10.08l2.6,.25c-.03,.31-.25,.53-.78,.62v8.76l1.74-.48v-12.15h-1.46v.7c0,.17-.67,.67-1.71,.67h-.34v-9.77Zm2.04,1.79v5.77h4.48v-5.77h-4.48Zm13.78-1.9c-.11,.31-.42,.59-1.04,.59-.28,.87-.56,1.71-.9,2.49h7.17l1.18-1.26,2.27,1.9c-.2,.22-.56,.36-1.15,.45-.14,8.96-.5,12.94-1.65,14.22-.73,.78-1.74,1.12-2.86,1.09,0-.62-.06-1.15-.42-1.48-.36-.31-1.2-.59-2.07-.76l.03-.42c.9,.06,2.35,.17,2.86,.17s.7-.06,.95-.31c.73-.76,1.01-4.9,1.15-12.8h-7.81c-.45,.98-.95,1.9-1.48,2.77l1.29,.53h2.94l.98-1.06,2.21,1.65c-.14,.2-.53,.42-1.01,.5v6.75c-.03,.2-1.01,.62-1.65,.62h-.28v-1.34h-3.56v7.11c0,.64,.22,.87,1.65,.87h3.58c1.6,0,2.83-.03,3.33-.08,.36-.03,.59-.11,.76-.31,.22-.36,.56-1.6,.9-3h.36l.08,3.08c.76,.25,.95,.48,.95,.9,0,.98-1.12,1.4-6.5,1.4h-3.75c-2.66,0-3.36-.5-3.36-2.32v-13.72c-.67,.87-1.37,1.65-2.13,2.32l-.42-.28c1.76-2.72,3.33-6.89,4.09-11.14l3.3,.87Zm-2.86,13.5h3.56v-5.46h-3.56v5.46Z"/>
      <path class="cls-1" d="M61.01,235.2c-.56,.62-1.68,.76-2.1,.06-.34-.62,0-1.32,.62-1.76,.73-.67,1.65-2.38,1.62-3.92h.48c.73,2.72,.2,4.73-.62,5.63Zm-.36-13.41h-.31v-10.78l2.04,.92h6.97l1.01-1.12,2.24,1.71c-.17,.2-.59,.42-1.09,.5v7.73c-.03,.2-.98,.64-1.62,.64h-.28v-.81h-2.63v2.91h1.93l1.15-1.43s1.32,1.01,2.16,1.79c-.08,.31-.36,.45-.73,.45h-4.51v3.36h2.49l1.23-1.51s1.37,1.06,2.24,1.88c-.06,.31-.34,.45-.73,.45h-12.8l-.22-.81h5.77v-3.36h-4.73l-.22-.81h4.96v-2.91h-2.72v.56c0,.2-.81,.64-1.6,.64Zm4.54-9.04h-2.94v7.03h2.94v-7.03Zm-1.71,5.49c-.03-1.34-.59-3.16-1.09-4.28l.42-.14c3.14,3.05,1.76,5.6,.67,4.42Zm0,16.58c.34-1.65,.17-3.72-.17-5.12l.42-.11c3.42,3.64,1.09,7.03-.25,5.24Zm3.64-.34c.08-1.57-.56-3.58-1.26-4.84l.36-.17c4.48,3.05,2.49,6.69,.9,5.01Zm2.49-14.7v-4.7h-.25c-.42,.9-1.2,2.38-1.96,3.58l-.36-.17c.36-1.4,.81-3.58,.95-4.68l1.62,.53v-1.6h-2.83v7.03h2.83Zm1.04,14.36c0-1.51-.87-3.44-1.76-4.62l.34-.17c5.01,2.58,3.11,6.38,1.43,4.79Zm8.57-22.62v5.26h2.35l1.29-1.79s1.48,1.26,2.32,2.16c-.06,.31-.34,.45-.7,.45h-5.26v5.71h2.41l1.12-1.29,2.3,1.76c-.2,.25-.5,.39-1.09,.5v10.53c0,.14-.78,.62-1.85,.62h-.36v-1.9h-6.55v1.54c0,.17-.64,.62-1.76,.62h-.36v-13.38l2.46,1.01h1.51v-12.91l3.19,.34c-.06,.39-.31,.67-1.01,.78Zm2.52,21.2v-8.6h-6.55v8.6h6.55Z"/>
      <path class="cls-1" d="M94.56,219.21c2.18,0,3.92,1.74,3.92,3.92s-1.74,3.95-3.92,3.95-3.95-1.76-3.95-3.95,1.76-3.92,3.95-3.92Zm0,6.92c1.62,0,2.97-1.37,2.97-3s-1.34-2.97-2.97-2.97-3,1.34-3,2.97,1.34,3,3,3Z"/>
    </g>
  </g>
</svg>