<?xml version="1.0" encoding="UTF-8"?>
<svg id="_圖層_2" data-name="圖層 2" xmlns="http://www.w3.org/2000/svg" viewBox="0 0 500.54 162.64">
  <defs>
    <style>
      .cls-1 {
        fill: #fff;
      }
    </style>
  </defs>
  <g id="_圖層_1-2" data-name="圖層 1">
    <g>
      <path class="cls-1" d="M9.46,2.38c-.11,.3-.46,.54-1.08,.54-.54,1.4-1.13,2.73-1.81,3.94h4.89V.35l3.78,.38c-.08,.38-.3,.65-1,.76V6.86h5.05l1.67-2.02s1.81,1.32,3.02,2.38c-.08,.3-.35,.43-.76,.43H14.24v6.88h4.13l1.67-2.11s1.92,1.46,3.05,2.43c-.05,.3-.35,.43-.73,.43H14.24v8.02h6.42l1.73-2.16s1.94,1.46,3.13,2.51c-.08,.3-.35,.43-.76,.43H.64l-.24-.78H11.46V15.28H3.77l-.22-.76h7.91V7.64H6.14c-1.59,2.67-3.48,4.83-5.61,6.45l-.35-.24C2.39,10.82,4.55,6.05,5.63,1.19l3.83,1.19Z"/>
      <path class="cls-1" d="M36.52,10.47c-.38-1.32-1.67-2.78-2.78-3.62l.22-.24c6.67,.49,5.05,5.32,2.56,3.86Zm-.38,6.56q.59-.97,5.61-11.36l.46,.11c-1.13,3.19-3.27,9.15-3.67,10.47-.24,.84-.43,1.75-.43,2.43,.05,1.32,1,2.38,.92,4.64-.05,1.3-.84,2.08-1.97,2.08-.57,0-1.08-.43-1.24-1.38,.46-2.78,.32-5.07-.3-5.48-.38-.27-.81-.35-1.38-.41v-.54h1.24c.35,0,.46-.03,.76-.57Zm2.59-12.23c-.46-1.38-1.84-2.97-3-3.89l.24-.22c6.86,.57,5.32,5.53,2.75,4.1Zm4.18,9.07l2.7,1.11h2.97v-5.26h-7.07l-.22-.78h7.29V4.24c-2.24,.24-4.56,.43-6.75,.51l-.08-.43c4.67-.81,10.5-2.48,13.47-3.81l2.7,2.56c-.3,.24-.84,.24-1.62-.05-1.43,.3-3.19,.62-5.1,.86v5.05h3.62l1.54-2.05s1.75,1.4,2.81,2.4c-.08,.3-.35,.43-.73,.43h-7.23v5.26h2.92l1.27-1.4,2.7,2.05c-.19,.22-.57,.46-1.13,.57v8.15c-.03,.22-1.27,.78-2.13,.78h-.43v-2.11h-8.94v1.4c0,.27-1.11,.84-2.16,.84h-.38V13.87Zm11.47,1.89h-8.94v6.48h8.94v-6.48Z"/>
      <path class="cls-1" d="M74.56,1.46V7.1h.05l1.3-1.94s1.51,1.35,2.32,2.29c-.08,.3-.32,.43-.7,.43h-2.97v5.07l3.4-1.24,.11,.35-3.51,2.38v9.96c0,.32-1.03,.92-1.94,.92h-.49v-9.29l-2.24,1.38c-.05,.35-.27,.62-.57,.73l-1.75-2.81c.92-.27,2.56-.81,4.56-1.51V7.88h-2c-.57,2.13-1.32,4.1-2.29,5.61l-.46-.19c.76-2.83,1.19-6.78,1.3-10.31l3.24,.51c-.08,.35-.38,.62-.97,.67-.16,.97-.38,1.97-.59,2.92h1.78V.35l3.43,.38c-.08,.38-.27,.62-1,.73Zm18.35,12.79c-.08,.3-.35,.43-.73,.43h-4.21v7.67c0,1.78-.46,2.81-3.78,3.08-.11-.73-.27-1.27-.73-1.62-.54-.38-1.27-.65-2.78-.86v-.38s3.46,.22,4.1,.22c.51,0,.67-.16,.67-.54v-7.56h-8.83l-.22-.78h9.04v-2.65l3.46,.35c-.08,.38-.32,.59-.94,.67v1.62h1l1.4-1.84s1.57,1.27,2.54,2.19Zm-.49-9.2c-.08,.3-.35,.43-.73,.43h-6.29v4.08h2.35l1.43-1.81s1.59,1.24,2.56,2.16c-.05,.3-.32,.43-.7,.43h-12.82l-.22-.78h4.91V5.48h-5.53l-.22-.78h5.75V.24l3.35,.3c-.03,.35-.24,.59-.86,.7v3.45h2.89l1.46-1.89s1.67,1.29,2.67,2.24Zm-12.04,15.49c-.38-1.51-1.62-3.35-2.62-4.53l.27-.16c6.59,1.81,4.64,6.34,2.35,4.7Z"/>
      <path class="cls-1" d="M124.56,2.46c-.08,.3-.32,.43-.7,.43h-19V20.95c0,1.19,.62,1.59,3.16,1.59h6.75c2.65,0,4.89-.05,5.72-.11,.51-.03,1.03-.11,1.4-.16,.32-.03,.84-.16,1.32-.32h.3l.16,.03c1.24,.24,1.57,.57,1.57,1.03,0,1.29-1.73,1.54-10.69,1.51h-6.26c-4.13,0-5.8-.46-5.8-3.24V2.89h-1.03l-.22-.78h19.22l1.46-1.89s1.65,1.32,2.65,2.24Zm-17.57,19.08h-.3V12.58l2.27,.95h2.46l1.08-1.11,2.24,1.7c-.14,.19-.49,.38-.89,.43v5.8c-.03,.19-1.11,.62-1.84,.62h-.35v-1.38h-2.81v1.24c0,.22-.94,.7-1.86,.7Zm4.67-7.23h-2.81v4.51h2.81v-4.51Zm-2.19-2.13h-.35V3.94l2.56,1.05h5.75l1.19-1.27,2.54,1.92c-.16,.19-.51,.4-1,.49v4.99c-.03,.19-1.27,.65-2.08,.65h-.41v-1.19h-6.13v.84c0,.22-1.08,.76-2.08,.76Zm8.21-6.4h-6.13v4.02h6.13V5.78Zm-1.65,15.36h-.32V12.58l2.32,.95h2.48l1.08-1.16,2.35,1.78c-.16,.19-.51,.38-.97,.46v5.64c-.03,.16-1.13,.62-1.86,.62h-.35v-1.27h-2.86v.86c0,.22-.94,.68-1.86,.68Zm4.72-6.83h-2.86v4.51h2.86v-4.51Z"/>
      <path class="cls-1" d="M159.28,3.94c-.08,.3-.35,.43-.76,.43h-23.65l-.24-.78h11.69c-.35-1.21-1.51-2.56-2.56-3.32l.22-.19c4.8,.08,5.24,2.65,4.13,3.51h6.42l1.67-2.08s1.92,1.4,3.08,2.43Zm-22.57,21.38h-.4V12.28l2.78,1.13h15.9l1.19-1.4,2.78,2.11c-.16,.19-.57,.43-1.13,.51v7.69c0,1.73-.4,2.78-3.46,3.05-.08-.78-.19-1.35-.57-1.73s-.94-.67-2.19-.84v-.38s2.46,.16,3.08,.16c.43,0,.57-.16,.57-.51v-7.88h-16.41v10.28c0,.24-1.08,.84-2.13,.84Zm4-12.74h-.35V5.37l2.67,1.08h7.77l1.24-1.35,2.73,2.05c-.19,.19-.59,.43-1.13,.54v4.02c-.03,.16-1.32,.62-2.13,.62h-.43v-1.16h-8.21v.62c0,.22-1.11,.78-2.16,.78Zm1.59,10.15h-.32v-7.45l2.48,1.03h4.72l1.16-1.21,2.51,1.86c-.16,.19-.54,.41-1.03,.49v4.21c-.03,.19-1.19,.7-2,.7h-.41v-1.29h-5.07v.97c0,.19-1.08,.7-2.05,.7Zm8.77-15.49h-8.21v3.16h8.21v-3.16Zm-1.65,9.85h-5.07v3.19h5.07v-3.19Z"/>
      <path class="cls-1" d="M170.03,23.65c-.54,.67-1.75,.81-2.19,.08-.38-.67-.05-1.38,.57-1.86,.78-.7,1.67-2.51,1.65-4.13h.43c.81,2.83,.35,4.91-.46,5.91Zm5.18-7.48c0-.43-.03-.89-.11-1.35-1.46,.51-3.4,1.19-5.48,1.81-.22,.3-.46,.49-.73,.57l-.97-2.83s.62-.13,.86-.32c1.16-1.03,2.56-2.89,3.78-4.8l-2.75,.97c-.19,.27-.4,.46-.62,.54l-1.13-2.81s.51-.11,.7-.27c1.32-1.46,2.97-5.29,3.51-7.34l3.1,1.51c-.11,.24-.4,.46-.92,.4-1.08,1.78-3,4.24-4.7,5.83h3.54c.76-1.29,1.38-2.51,1.75-3.48l2.81,1.92c-.14,.22-.51,.38-1.03,.27-1.46,2.21-4.29,5.45-6.88,7.61l4.97-.32c-.24-1.03-.65-2.02-1.03-2.81l.35-.13c5.07,3,2.78,6.88,.97,5.05Zm-3.13,6.64c.24-1.73,0-3.89-.35-5.34l.4-.11c3.62,3.67,1.4,7.23-.05,5.45Zm4.97-2.78c1.3-.59,3.35-1.59,5.37-2.62l.14,.3c-.86,.97-2.21,2.54-4.05,4.45,0,.32-.19,.65-.43,.78l-1.32-1.78c-.3,.43-.89,.54-1.46,.03-.05-1.38-.81-3.1-1.54-4.16l.35-.16c2.02,.97,2.83,2.21,2.94,3.16Zm15.87-9.39c-.08,.3-.35,.43-.7,.43h-6.34v11.26c0,1.67-.38,2.75-3.13,3-.03-.7-.16-1.24-.46-1.57-.32-.35-.86-.59-1.97-.76v-.41s2.19,.16,2.65,.16c.43,0,.54-.13,.54-.49V11.07h-6.45l-.22-.78h8.34l.78-2.32h-5.05l-1.05,1.08-2.29-1.78c.3-.22,.76-.4,1.19-.54,.84-1.86,2-4.86,2.43-6.34l3.19,.59c-.08,.32-.35,.65-1.11,.62l-.54,1.46h4.62l1.13-1.19,2.29,1.97c-.22,.22-.46,.27-1,.32l-2.02,6.13h1.38l1.32-1.92s1.59,1.32,2.48,2.27Zm-12.66,5.59c-.38-1.3-1.62-2.92-2.73-3.83l.27-.22c6.21,1.16,4.64,5.43,2.46,4.05Zm5.97-9.04l1.11-3.35h-4.91l-1.38,3.35h5.18Zm4.18,15.39c-.84-1.46-2.08-3.56-3.89-4.94l.22-.27c7.32,1.54,6.02,6.86,3.67,5.21Zm1.11-8.8c-1.08,.73-3.19,1.94-4.56,2.7l-.24-.27c.97-1.24,2.32-3.37,3.05-4.53l2.7,1.94c-.13,.22-.4,.3-.94,.16Z"/>
      <path class="cls-1" d="M211.96,19.71c.67-.76,1.24-1.54,1.67-2.27-.38,.22-1.08,.46-1.73,.46h-.35v-4.7c-.73,.84-1.51,1.59-2.32,2.19l-.3-.24c.35-.51,.73-1.13,1.05-1.81-.16,.24-.41,.38-1,.27-.46,.62-1.05,1.3-1.7,1.94l.97,.38c-.08,.24-.35,.43-.84,.51v8.29c-.03,.19-1.03,.67-2,.67h-.43v-7.8c-1.05,.84-2.21,1.59-3.43,2.21l-.27-.32c2.43-2.08,4.72-5.37,5.78-7.75l2.94,1.57c.78-1.59,1.43-3.54,1.81-5.16h-4.8l2.62,1.4c-.16,.27-.4,.4-1,.27-1.43,1.65-3.86,3.59-6.51,4.75l-.27-.32c2-1.62,3.94-4.18,4.86-6.1h-.59v.41c0,.22-1.11,.73-2.08,.73h-.32V3.24l2.62,1.11h3.19v-1.78h-7.83l-.22-.78h20.6l1.46-1.78s1.65,1.21,2.67,2.13c-.08,.3-.32,.43-.7,.43h-7.48v1.78h3.29l1.19-1.27,2.54,1.89c-.16,.19-.54,.4-1.03,.49v2.92c0,.08-.24,.19-.57,.3,.4,.32,1.38,1.08,2.08,1.73-.08,.3-.35,.43-.73,.43h-11.47l-.51,.73,1.24,.51h6.8l1.16-1.21,2.43,1.84c-.13,.19-.49,.38-.94,.46v3.91c-.03,.19-1.11,.67-1.86,.73l1.97,1.81c-.22,.22-.51,.3-1.13,.32-.81,.97-1.78,1.78-2.92,2.46,2.05,.27,4.32,.35,6.72,.35v.32c-.92,.3-1.51,1.05-1.67,2.19-3.1-.27-5.78-.7-7.99-1.48-2.51,.86-5.45,1.29-8.75,1.46l-.14-.4c2.65-.41,5.02-1,7.05-1.84-.92-.46-1.78-1.03-2.54-1.73-.94,.54-1.97,1-3.08,1.35l-.24-.32c.86-.54,1.7-1.21,2.43-1.94-.49-.57-.92-1.19-1.3-1.89l.4-.27c.43,.59,.92,1.08,1.48,1.54Zm-5.83-14.6v2.27h3.4v-2.27h-3.4Zm9.5-2.54h-3.72v1.78h3.72v-1.78Zm-3.72,2.54v2.27h3.72v-2.27h-3.72Zm2.38,4.1l-.46,.84h8.1l1.03-1.21c-.32,.08-.67,.14-.94,.14h-.4v-.81h-9.64l3.27,.65c-.08,.3-.27,.43-.94,.4Zm5.32,10.39h-4.91c-.41,.35-.86,.67-1.35,1,1.05,.57,2.24,1,3.59,1.32,1.08-.65,1.97-1.43,2.67-2.32Zm-5.67-6.75v1.32h7.18v-1.32h-7.18Zm0,2.11v1.4h7.18v-1.4h-7.18Zm1.62,3.86h4.29l1.27-1.13v-.54h-6.29l2.51,.59c-.11,.27-.4,.46-1.19,.46l-.59,.62Zm2.48-11.44h3.56v-2.27h-3.56v2.27Z"/>
      <path class="cls-1" d="M249.33,.7c-.08,.4-.32,.67-.97,.78-.05,2.35-.08,4.64-.3,6.83h6.83l1.75-2.21s1.97,1.51,3.19,2.56c-.05,.3-.35,.43-.76,.43h-10.69c.97,5.05,4,10.23,11.74,13.52l-.05,.3c-1.35,.22-2.21,.94-2.48,2.46-6.78-3.94-8.88-10.47-9.64-15.87-.81,6.37-3.4,11.9-12.96,15.84l-.3-.43c7.72-4.4,9.91-9.72,10.53-15.82h-10.01l-.24-.78h10.31c.22-2.54,.19-5.18,.19-7.96l3.86,.35Z"/>
      <path class="cls-1" d="M277.52,7.45c-.05,.3-.32,.43-.67,.43h-3.16v8.75l3.56-1.32,.11,.27c-1.46,1.21-3.73,2.97-6.86,5.13-.08,.32-.3,.62-.57,.73l-1.75-2.92c.67-.19,1.73-.54,3.02-1V7.88h-2.75l-.22-.78h2.97V.54l3.48,.35c-.08,.38-.3,.62-1,.73V7.1h.57l1.19-1.83s1.35,1.3,2.08,2.19Zm.59,11.2h-.35V9.85l2.65,1.08h7.85l1.16-1.24,2.48,1.86c-.16,.19-.54,.41-1.03,.49v5.7c-.03,.19-1.21,.65-1.97,.65h-.4v-1.03h-.97v4.64c0,.3,.08,.41,.62,.41h1.4c.54,0,1.03,0,1.27-.03,.24-.03,.32-.08,.46-.3,.22-.38,.54-1.51,.89-2.83h.3l.08,2.94c.65,.27,.76,.54,.76,.94,0,.92-.81,1.35-3.97,1.35h-1.86c-2.02,0-2.32-.49-2.32-2v-5.13h-1.46c-.49,3.16-1.89,6.02-9.66,7.94l-.3-.4c6.21-2.24,7.02-4.83,7.23-7.53h-.73v.54c0,.22-1.08,.76-2.13,.76Zm15.28-9.88c-.08,.3-.35,.43-.73,.43h-16.28l-.22-.78h9.37c.49-1.27,1.03-2.97,1.35-4.18l3.29,1.21c-.14,.32-.49,.49-1.05,.43-.7,.7-1.73,1.67-2.73,2.54h3.1l1.38-1.75s1.54,1.21,2.51,2.11Zm-.62-5.05c-.08,.3-.35,.43-.73,.43h-14.93l-.22-.78h6.88l-.35-.22c-.03-1.03-.62-2.27-1.21-2.94l.24-.16c3.94,.49,3.89,2.67,2.75,3.32h3.64l1.38-1.84s1.59,1.27,2.54,2.19Zm-12.07,4.16c-.08-1.13-.81-2.46-1.57-3.24l.27-.16c5.75,.92,3.43,5.08,1.3,3.4Zm-.46,3.83v2.02h8.26v-2.02h-8.26Zm0,4.86h8.26v-2.05h-8.26v2.05Z"/>
      <path class="cls-1" d="M304.87,15.66c1.67-.84,2.67-1.62,3.13-3.13-1.81-.78-2.51-1.59-2.51-2.59,0-1.11,.84-2.02,2.08-2.02,.7,0,1.21,.16,1.73,.65,.3,.67,.38,1.11,.38,1.86,0,3.08-1.73,5.1-4.45,6.02l-.35-.78Z"/>
      <path class="cls-1" d="M331.14,19.6c-2.62,2.38-6.56,3.86-9.58,4.45l-.13-.38c2.59-1.27,5.64-3.56,7.8-6.34l3,2.05c-.19,.27-.51,.35-1.08,.22Zm-3.29-6.24c.03-.46,0-.94-.05-1.43-1.13,.46-2.75,1.11-4.4,1.73-.16,.3-.35,.46-.57,.57l-1.08-2.38s.49-.11,.7-.27c1.05-.95,2.35-2.7,3.4-4.43l-2.4,.97c-.13,.27-.32,.43-.51,.51l-1.08-2.35s.4-.13,.59-.27c1.11-1.11,2.46-4.18,2.89-5.78l3,1.32c-.11,.24-.4,.46-.92,.4-.94,1.35-2.43,3.08-3.78,4.29l2.81-.16c.54-.95,.94-1.81,1.21-2.51l2.78,1.59c-.13,.24-.49,.43-1,.35-1.3,1.84-3.56,4.43-5.7,6.21l3.94-.43c-.19-.89-.49-1.75-.81-2.43l.35-.14c4.27,2.83,2.19,6.26,.62,4.62Zm18.9,3.24c-.05,.3-.32,.43-.73,.43h-10.37v7.58c0,.24-1.16,.73-2.24,.73h-.46v-8.31h-10.96l-.24-.78h11.2v-2.56l3.7,.35c-.05,.38-.3,.65-1,.73v1.49h6.56l1.62-2.02s1.81,1.38,2.92,2.38Zm-15.84-2.65h-.32V2.51l2.24,.97h.05l.27-3.29,3.24,.46c-.11,.4-.4,.65-1,.67-.4,.62-1.05,1.48-1.57,2.16h1.65l1.08-1.19,2.35,1.81c-.16,.19-.54,.35-1,.46V12.96c-.03,.16-1.11,.65-1.84,.65h-.35v-1.24h-3.02v.92c0,.22-.86,.67-1.78,.67Zm1.78-9.69v3.21h3.02v-3.21h-3.02Zm3.02,4h-3.02v3.32h3.02v-3.32Zm8.58,15.6c-1.57-1.73-4.08-3.86-7.15-5.05l.13-.32c9.8-.16,10.26,6.42,7.02,5.37Zm.51-10.55c0-.49-.05-1.03-.16-1.59-1.11,.49-2.81,1.19-4.51,1.81-.19,.32-.38,.54-.59,.62l-1.11-2.35s.49-.13,.67-.27c1-.94,2.19-2.62,3.19-4.32l-2.21,.89c-.16,.27-.32,.41-.51,.49l-1.11-2.38s.4-.11,.59-.24c1.13-1.13,2.48-4.21,2.92-5.8l3.02,1.35c-.11,.24-.41,.46-.92,.4-.94,1.35-2.48,3.1-3.89,4.32l2.73-.19c.51-.92,.92-1.81,1.19-2.51l2.78,1.59c-.13,.24-.49,.46-1.03,.35-1.21,1.84-3.37,4.35-5.4,6.15l4.08-.49c-.22-.86-.51-1.73-.81-2.38l.35-.13c4.43,2.89,2.32,6.34,.73,4.67Z"/>
      <path class="cls-1" d="M357.82,10.47c-.38-1.32-1.67-2.78-2.78-3.62l.22-.24c6.67,.49,5.05,5.32,2.56,3.86Zm-.38,6.56q.59-.97,5.61-11.36l.46,.11c-1.13,3.19-3.27,9.15-3.67,10.47-.24,.84-.43,1.75-.43,2.43,.05,1.32,1,2.38,.92,4.64-.05,1.3-.84,2.08-1.97,2.08-.57,0-1.08-.43-1.24-1.38,.46-2.78,.32-5.07-.3-5.48-.38-.27-.81-.35-1.38-.41v-.54h1.24c.35,0,.46-.03,.76-.57Zm2.59-12.23c-.46-1.38-1.84-2.97-3-3.89l.24-.22c6.86,.57,5.32,5.53,2.75,4.1Zm4.18,9.07l2.7,1.11h2.97v-5.26h-7.07l-.22-.78h7.29V4.24c-2.24,.24-4.56,.43-6.75,.51l-.08-.43c4.67-.81,10.5-2.48,13.47-3.81l2.7,2.56c-.3,.24-.84,.24-1.62-.05-1.43,.3-3.19,.62-5.1,.86v5.05h3.62l1.54-2.05s1.75,1.4,2.81,2.4c-.08,.3-.35,.43-.73,.43h-7.23v5.26h2.92l1.27-1.4,2.7,2.05c-.19,.22-.57,.46-1.13,.57v8.15c-.03,.22-1.27,.78-2.13,.78h-.43v-2.11h-8.94v1.4c0,.27-1.11,.84-2.16,.84h-.38V13.87Zm11.47,1.89h-8.94v6.48h8.94v-6.48Z"/>
      <path class="cls-1" d="M400.83,15.17c-.08,.3-.32,.43-.7,.43h-4.1v.89c6.13,1.24,4.37,5.4,2.21,3.94-.3-1.13-1.3-2.48-2.21-3.4v7.53c0,.24-1.05,.73-1.92,.73h-.46v-6.21c-1.3,1.75-2.97,3.27-4.99,4.51l-.3-.38c2.13-2.02,3.67-4.8,4.59-7.61h-3.78l-.22-.78h4.7v-3.78l3.32,.3c-.05,.38-.27,.62-.94,.73v2.75h1.27l1.24-1.73s1.46,1.19,2.29,2.08Zm11.53-11.26c-.05,.3-.35,.43-.73,.43h-9.29v.92c10.01,1.11,9.93,6.24,7.15,5.51-1.48-1.65-4.7-3.78-7.15-4.99v5.78c0,.22-1.13,.65-2.13,.65h-.49V5.83c-2.38,2.51-5.8,4.43-9.83,5.7l-.24-.38c3.48-1.65,6.34-4.13,8.18-6.8h-7.37l-.22-.78h9.47V.27l3.62,.35c-.05,.35-.27,.62-1,.73V3.56h5.8l1.48-1.92s1.7,1.32,2.73,2.27Zm1,11.26c-.08,.3-.35,.43-.73,.43h-4.7c1.32,2.51,3.7,4.56,6.02,5.53l-.05,.3c-.92,.19-1.59,.94-1.92,2.19-2.05-1.65-3.56-4.18-4.51-7.5v8.5c0,.24-1.05,.67-1.97,.67h-.49v-6.72c-1.57,2.08-3.7,3.83-6.32,5.18l-.27-.38c2.62-2,4.56-4.8,5.7-7.77h-3l-.22-.78h4.1v-3.73l3.37,.32c-.05,.35-.27,.62-.92,.7v2.7h1.94l1.4-1.92s1.59,1.32,2.54,2.27Z"/>
      <path class="cls-1" d="M423.11,2.83l2.43,1.05h2.24l1.21-1.35,2.21,1.73-.05-.24c4.35-.76,9.66-2.35,12.36-3.64l2.7,2.59c-.3,.24-.86,.24-1.62-.05-1.3,.3-2.89,.57-4.64,.81V14.2h3.56l1.48-1.92s1.73,1.3,2.75,2.27c-.05,.3-.35,.41-.7,.41h-7.1v7.02c0,1.78-.49,3.1-3.75,3.35-.05-.78-.27-1.4-.73-1.78-.51-.41-1.24-.7-2.75-.89v-.4s3.32,.24,4.05,.24c.51,0,.67-.22,.67-.59v-6.94h-7.02v3.59c-.05,.19-1.19,.73-2,.73h-.38v-2.4h-2.65v3.02c0,.27-.89,.84-1.92,.84h-.38V2.83Zm2.29,1.84v11.42h2.65V4.67h-2.65Zm12.04,9.53V4.02c-2,.22-4.05,.35-6.02,.41l.13,.11c-.19,.22-.59,.46-1.13,.57V14.2h7.02Zm-4.08-1.73c.08-2.08-.73-4.56-1.51-6.32l.32-.13c5.91,3.78,3.32,8.69,1.19,6.45Zm13.33-5.78c-.11,.32-.43,.54-1.03,.54-1.16,2.13-2.65,4.4-4.13,5.91l-.38-.22c.65-1.84,1.48-4.83,2-7.42l3.54,1.19Z"/>
      <path class="cls-1" d="M456.61,2.19l2.4,1.05h2.48l1.16-1.32,2.51,1.97c-.16,.22-.57,.43-1.11,.57v13.42c-.03,.22-1.11,.81-1.94,.81h-.35v-2.43h-2.89v3.32c0,.27-.89,.84-1.92,.84h-.35V2.19Zm2.27,1.83V15.47h2.89V4.02h-2.89Zm15.14-1.81l1.08-1.24,2.46,1.94c-.22,.22-.43,.3-.94,.35l-.92,6.69h.92l1.46-1.38,2.38,2.19c-.22,.27-.49,.35-1.13,.4-.95,3.05-2.35,5.78-4.43,8.07,1.86,1.62,4.08,2.81,6.53,3.67l-.08,.3c-1.11,.13-1.97,.89-2.43,2.11-2.24-1.19-4.1-2.65-5.59-4.54-2.29,1.94-5.24,3.51-9.1,4.54l-.19-.41c3.48-1.35,6.21-3.24,8.26-5.59-1.4-2.27-2.4-5.05-3-8.58h-.13c-.7,5.56-2.7,10.55-8.64,14.44l-.38-.43c6.88-6.1,6.94-13.82,6.99-21.76h-2.67l-.24-.78h9.8Zm-4.75,7.75h3.91l.97-6.96h-4.56c-.03,2.4-.08,4.72-.32,6.96Zm.54,.78c.76,2.89,2,5.24,3.67,7.13,1.51-2.11,2.59-4.51,3.27-7.13h-6.94Z"/>
      <path class="cls-1" d="M494.92,8.99c2.11,0,3.81,1.7,3.81,3.81s-1.7,3.83-3.81,3.83-3.83-1.73-3.83-3.83,1.73-3.81,3.83-3.81Zm0,6.67c1.57,0,2.83-1.29,2.83-2.86s-1.27-2.83-2.83-2.83-2.86,1.27-2.86,2.83,1.27,2.86,2.86,2.86Z"/>
    </g>
    <g>
      <path class="cls-1" d="M5.03,44.42H.71l-.24-.78H5.14l1.21-1.24,2.46,2.21c-.27,.27-.84,.41-1.51,.41-.76,1.27-2.05,3.21-3.02,4.59h1.84l1.38-1.4,2.43,2.11c-.19,.27-.43,.32-1.05,.38-.59,2.13-1.54,4.32-2.86,6.32,2,2.16,5.02,2.46,10.07,2.46,2.05,0,7.02,0,9.2-.05v.35c-.89,.22-1.3,1-1.35,1.94h-7.94c-5.34,0-8.31-.81-10.37-4.16-1.3,1.75-2.92,3.37-4.97,4.64l-.27-.35c3.05-2.89,4.99-7.34,5.83-11.45H3.95l-.92,.78-2.08-1.59c.24-.19,.67-.38,1.05-.49,.94-1.32,2.21-3.29,3.02-4.67Zm-.54-2.29c-.4-1.46-1.75-3.16-2.92-4.1l.24-.22c6.96,.65,5.29,5.8,2.67,4.32Zm20.3,4.26c-.08,.3-.38,.43-.76,.43h-3.78v10.99c0,.13-.78,.62-2.11,.62h-.43v-11.61h-4.35c-.03,3.64-.43,8.26-4.78,11.23l-.3-.3c2.35-3.27,2.56-7.37,2.56-11.2v-6.8l2.56,.78c2.7-.86,5.64-2.11,7.26-3.02l2.67,2.48c-.3,.27-.86,.27-1.57,0-2.16,.49-5.4,1.03-8.42,1.27v4.78h7.07l1.51-1.97s1.78,1.35,2.83,2.32Z"/>
      <path class="cls-1" d="M35,38.24l2.62,1.05h3.62l1.16-1.24,2.48,1.86c-.16,.22-.54,.43-1.08,.54v6.59c-.03,.19-1.16,.59-1.92,.59h-.38v-1.19h-.51v5.07h.81l1.21-1.75s1.4,1.24,2.19,2.11c-.08,.27-.32,.41-.7,.41h-3.51v5.59l4.02-.81,.05,.38c-2.24,1-5.51,2.4-9.99,4.1-.13,.35-.4,.59-.7,.67l-1.08-2.97,1.67-.27v-9.77l2.7,.27c-.03,.27-.22,.49-.7,.57v8.58l1.73-.32v-11.85h-1.4v.89c0,.19-.76,.7-1.92,.7h-.38v-9.8Zm2.29,1.83v5.59h4.21v-5.59h-4.21Zm8.77,20.38v-20.16h-1.05l-.22-.78h9.88l1.48-1.92s1.67,1.32,2.7,2.27c-.08,.3-.35,.43-.73,.43h-9.56v5.37h5.56l1.24-1.35,2.67,2.02c-.19,.22-.57,.43-1.13,.54v7.64c-.03,.19-1.24,.76-2.11,.76h-.4v-1.62h-5.83v6.8h6.42l1.54-1.94s1.75,1.32,2.78,2.29c-.08,.3-.32,.43-.73,.43h-14.44l-.22-.78h2.13Zm2.51-14.01v6.42h5.83v-6.42h-5.83Z"/>
      <path class="cls-1" d="M81.76,37.81c-.08,.4-.32,.67-.97,.78-.05,2.35-.08,4.64-.3,6.83h6.83l1.75-2.21s1.97,1.51,3.19,2.56c-.05,.3-.35,.43-.76,.43h-10.69c.97,5.05,3.99,10.23,11.74,13.52l-.05,.3c-1.35,.22-2.21,.94-2.48,2.46-6.78-3.94-8.88-10.47-9.64-15.87-.81,6.37-3.4,11.9-12.96,15.84l-.3-.43c7.72-4.4,9.91-9.72,10.53-15.82h-10.01l-.24-.78h10.31c.22-2.54,.19-5.18,.19-7.96l3.86,.35Z"/>
      <path class="cls-1" d="M102.77,62.43h-.43v-24.67l2.75,1.21h16.33l1.32-1.46,2.67,2.13c-.19,.24-.59,.43-1.13,.54v21.16c-.03,.24-1.24,.89-2.19,.89h-.4v-1.89h-16.82v1.08c0,.35-.97,1-2.11,1Zm2.11-22.67v19.81h16.82v-19.81h-16.82Zm2.86,13.09h-.32v-5.96l2.32,.97h6.78l1.05-1.08,2.19,1.65c-.14,.16-.43,.35-.81,.41v3.05s-.03,.05-.13,.11l1.81,1.65c-.16,.19-.41,.24-.89,.05-.57,.27-1.46,.62-2.29,.95,4.24,2.16,2.86,4.8,1.16,3.86-.81-1.27-3.05-3.35-5.91-4.99l.19-.41c1.46,.32,2.67,.7,3.64,1.11,.59-.62,1.27-1.35,1.78-1.97-.38,.13-.84,.24-1.21,.24h-.35v-.54h-3.16c-.67,.7-1.48,1.32-2.43,1.89v2.78l3.67-1.05,.11,.41c-1,.57-2.97,1.75-5.02,2.86-.13,.27-.32,.46-.49,.54l-1.3-1.81c.78-.54,.92-.76,.92-1.11v-1.57c-1.19,.54-2.48,.97-3.83,1.32l-.24-.43c2.38-.97,4.48-2.32,5.97-3.83h-1.32v.27c0,.19-1,.65-1.86,.65Zm6.45-11.53v1.46h2.43l1.21-1.48s1.35,1.05,2.24,1.84c-.08,.3-.32,.43-.7,.43h-5.18v1.89h3.56l1.27-1.54s1.4,1.08,2.29,1.89c-.08,.3-.32,.43-.7,.43h-14.95l-.22-.78h6.4v-1.89h-5.02l-.22-.78h5.24v-2.38l3.1,.3c-.03,.32-.22,.54-.76,.62Zm-4.59,7.31v2.51h7.13v-2.51h-7.13Z"/>
      <path class="cls-1" d="M157.88,39.56c-.08,.3-.32,.43-.7,.43h-19v18.06c0,1.19,.62,1.59,3.16,1.59h6.75c2.65,0,4.89-.05,5.72-.11,.51-.03,1.03-.11,1.4-.16,.32-.03,.84-.16,1.32-.32h.3l.16,.03c1.24,.24,1.57,.57,1.57,1.03,0,1.29-1.73,1.54-10.69,1.51h-6.26c-4.13,0-5.8-.46-5.8-3.24v-18.38h-1.03l-.22-.78h19.22l1.46-1.89s1.65,1.32,2.65,2.24Zm-17.57,19.08h-.3v-8.96l2.27,.95h2.46l1.08-1.11,2.24,1.7c-.14,.19-.49,.38-.89,.43v5.8c-.03,.19-1.11,.62-1.84,.62h-.35v-1.38h-2.81v1.24c0,.22-.94,.7-1.86,.7Zm4.67-7.23h-2.81v4.51h2.81v-4.51Zm-2.19-2.13h-.35v-8.23l2.56,1.05h5.75l1.19-1.27,2.54,1.92c-.16,.19-.51,.4-1,.49v4.99c-.03,.19-1.27,.65-2.08,.65h-.41v-1.19h-6.13v.84c0,.22-1.08,.76-2.08,.76Zm8.21-6.4h-6.13v4.02h6.13v-4.02Zm-1.65,15.36h-.32v-8.56l2.32,.95h2.48l1.08-1.16,2.35,1.78c-.16,.19-.51,.38-.97,.46v5.64c-.03,.16-1.13,.62-1.86,.62h-.35v-1.27h-2.86v.86c0,.22-.94,.67-1.86,.67Zm4.72-6.83h-2.86v4.51h2.86v-4.51Z"/>
      <path class="cls-1" d="M181.18,43.85c.92-1.67,1.75-4.05,2.19-6.48l3.21,.92c-.11,.3-.46,.54-1.03,.54-.3,.7-.65,1.38-1.03,2h4.21l1.38-1.78s1.54,1.21,2.48,2.13c-.08,.3-.35,.43-.73,.43h-1.46c-.57,2-1.54,3.64-2.94,4.97,1.4,.84,3.16,1.4,5.29,1.78l-.05,.3c-.89,.32-1.4,.97-1.57,2.08-2.24-.67-3.86-1.67-5.13-2.97-1.32,.89-2.92,1.62-4.78,2.19l-.16-.38c1.67-.81,3.02-1.75,4.05-2.86-.84-1.13-1.48-2.43-2-3.89-.49,.57-1.03,1.05-1.57,1.48l.35,.41c-.05,.3-.3,.43-.65,.43h-2.13c-.08,.92-.19,1.67-.3,2.29h.4l.86-1.16s.94,.86,1.54,1.51c-.05,.3-.3,.43-.65,.43h-2.38c-.19,.7-.43,1.19-.73,1.54,.73-.46,1.38-.86,1.81-1.19l1.78,2.11c-.19,.16-.62,.24-1.13-.11-1.3,.57-3.37,1.27-5.43,1.75l5.56-.13c1.86-.89,3.51-1.78,4.56-2.48l2.35,1.92c-.19,.22-.62,.35-1.24,.08-2.65,1.24-7.48,2.86-11.93,3.97,3.19-.14,7.69-.35,12.5-.62-.67-.73-1.46-1.4-2.11-1.92l.27-.24c7.07,1.38,5.97,5.78,3.67,4.62-.3-.59-.78-1.24-1.32-1.89l-5.34,.76v3.4c0,1.62-.4,2.51-3.27,2.75-.03-.62-.13-1.13-.46-1.46-.3-.3-.84-.54-1.92-.67v-.38s2.13,.13,2.62,.13c.4,0,.51-.16,.51-.43v-3l-4.91,.62,2.78,1.35c-.13,.24-.35,.38-.97,.27-1.73,1.32-5.07,2.73-8.04,3.35l-.24-.35c2.43-1.13,5.13-3.1,6.42-4.62l-2.08,.24c-.16,.27-.32,.46-.51,.54l-1.27-2.51s.67-.05,1-.16c2.11-.49,4.56-1.35,6.83-2.35-1.4,.22-3.05,.43-4.7,.62-.14,.24-.27,.38-.43,.43l-1.05-2.08s.46-.05,.67-.11c1.19-.27,2.56-.89,3.81-1.54-.43,.08-.92,.11-1.43,.08,0-.4-.08-.62-.32-.84-.27-.24-.78-.38-1.4-.46v-.46c.65,.03,1.62,.11,2.08,.11,.38,0,.57-.05,.76-.22,.11-.08,.19-.22,.3-.43h-4.94l-.92,1.03-2.19-1.54c.3-.22,.7-.43,1.11-.57l.4-2h-2.02l-.22-.78h2.4c.22-1.13,.41-2.29,.51-3.21-.86,.78-1.84,1.51-2.81,2.02l-.3-.24c1.3-1.4,2.65-3.81,3.32-5.7l3.21,.86c-.08,.3-.3,.4-.97,.35l-.78,.97h5.21l1.24-1.54s1.43,1.08,2.27,1.89c-.05,.3-.3,.43-.67,.43h-8.75l-.46,.46,2.08,.84h3.91l1.03-1.08,2.05,1.7c-.19,.22-.54,.35-1.05,.41l-.11,1.83h.32l.84-1.32,.81,.81Zm-4.26,3.59c.13-.57,.27-1.32,.38-2.29h-5.16l-.49,2.29h5.26Zm-.89-4.35c.46,.41,.35,1.03-.03,1.27h1.38l.14-2.08h-4.8l-.41,2.08h2.97l-.24-.13c-.35-.43-1.03-1-1.73-1.21l.11-.35c1.03-.13,2.02-.05,2.62,.43Zm-.3,2.94c.67,.7-.22,1.94-1.13,1.08-.3-.49-.94-1.08-1.65-1.32l.11-.35c1.08-.11,2.11,.03,2.67,.59Zm13.9,16.03c-.92-1.11-3.21-2.86-6.15-4.02l.11-.38c9.53,.13,8.53,5.26,6.05,4.4Zm-6.1-19.76c.62,1.29,1.43,2.38,2.51,3.27,.81-1.19,1.38-2.51,1.67-3.97h-3.67l-.51,.7Z"/>
      <path class="cls-1" d="M213.69,40.64c-.05,.3-.32,.43-.7,.43h-4.08v1.94c0,.22-1.19,.65-2.13,.65h-.49v-2.59h-4.99l-.22-.78h5.21v-2.92l3.37,.32c-.05,.3-.22,.51-.76,.57v2.03h1.05l1.32-1.78s1.51,1.24,2.4,2.13Zm11.5,16.76c-.08,.3-.35,.43-.73,.43h-9.53v3.86c-.03,.16-.81,.7-2.13,.7h-.43v-4.56h-9.2l-.24-.78h9.45v-3.1h-10.31l-.24-.78h10.55v-8.34h-9.66l-.24-.78h18.65l1.38-1.62s1.57,1.13,2.54,1.97c-.08,.3-.35,.43-.73,.43h-9.37v8.34h6.86l1.43-1.78s1.62,1.24,2.62,2.13c-.08,.3-.35,.43-.73,.43h-10.18v3.1h5.78l1.59-1.94s1.81,1.32,2.89,2.29Zm-16.98-11.04v2.24h.76l1.19-1.59s1.38,1.11,2.19,1.94c-.08,.3-.32,.43-.7,.43h-3.43v2.51c0,.19-1.03,.62-1.86,.62h-.46v-3.13h-3.86l-.22-.78h4.08v-3.19l3.16,.3c-.05,.32-.24,.57-.84,.65Zm18.08-5.72c-.08,.3-.35,.43-.73,.43h-5.45v1.92c0,.22-1.19,.65-2.13,.65h-.49v-2.56h-2.97l-.22-.78h3.19v-2.94l3.37,.32c-.05,.3-.22,.51-.76,.57v2.05h2.43l1.35-1.78s1.48,1.24,2.4,2.13Zm-5.75,5.72v2.02h1.67l1.21-1.62s1.38,1.13,2.21,1.97c-.05,.3-.32,.43-.7,.43h-4.4v2.54c0,.19-1.03,.59-1.89,.59h-.43v-3.13h-2.48l-.22-.78h2.7v-2.97l3.13,.3c-.03,.32-.24,.57-.81,.65Z"/>
      <path class="cls-1" d="M245.01,45.55h4c.46-1.29,.92-2.92,1.21-4.13h-14.66l-.24-.78h11.58c-.16-.05-.3-.13-.46-.24-.19-1.08-.97-2.32-1.65-3.05l.24-.16c4.43,.49,4.29,2.92,3,3.46h6.75l1.65-2.05s1.89,1.4,3.05,2.4c-.05,.3-.35,.43-.76,.43h-8.26l3.37,.78c-.11,.35-.4,.57-1.03,.57-.65,.84-1.62,1.86-2.56,2.78h4.86l1.21-1.4,2.73,2.08c-.16,.19-.59,.43-1.13,.54v12.5c0,1.78-.4,2.86-3.48,3.13-.08-.78-.19-1.38-.57-1.75-.41-.41-1-.7-2.24-.89v-.24c-.38,.19-1.11,.4-1.65,.4h-.38v-1.54h-4.59v1.29c0,.22-1.03,.73-1.97,.73h-.35v-8.8l2.43,1.03h4.24l1.11-1.19,2.35,1.78c-.14,.19-.49,.38-.89,.43v5.64s-.03,.05-.13,.08c.57,.05,2.48,.19,3,.19,.46,0,.59-.19,.59-.57v-8.31c-.3,.46-1.21,.65-3.29,.65h-1.51c-1.75,0-1.97-.46-1.97-1.75v-3.24h-2.62c-.27,2.65-1.21,4.83-6.61,6.26v8.93c0,.3-1.03,.92-2.13,.92h-.4v-18.08l2.75,1.19h3.94l-.3-.19c-.16-1.3-.94-2.81-1.67-3.75l.27-.16c4.21,1,4.29,3.37,3.19,4.1Zm-1.43,.78h-4.21v5.72c3.7-1.62,4.1-3.54,4.21-5.72Zm6.02,7.07h-4.59v4.18h4.59v-4.18Zm1.11-4.29c0,.3,.08,.41,.54,.41h1.11c.4,0,.84,0,1.03-.03,.13,0,.35,0,.46-.03,.16,0,.38-.05,.54-.11h.24l.11,.05c.32,.08,.54,.22,.65,.38v-3.46h-4.67v2.78Z"/>
      <path class="cls-1" d="M270.07,62.4h-.46v-24.67l2.78,1.19h16.33l1.32-1.46,2.67,2.13c-.19,.24-.59,.43-1.13,.57v21.16c-.03,.22-1.24,.86-2.19,.86h-.4v-1.84h-16.84v1.05c0,.32-.94,1-2.08,1Zm2.08-22.7v19.87h16.84v-19.87h-16.84Zm15.68,5.53c-.08,.3-.32,.43-.7,.43h-6.75c-.38,.76-.81,1.48-1.3,2.21h6.4l1.19-1.46s1.32,1.03,2.16,1.81c-.05,.3-.32,.43-.7,.43h-3.75c5.29,1.92,4.4,5.26,2.51,4.35-.73-1.35-2.54-3.18-3.94-4.35h-4.43c-.41,.51-.84,1-1.32,1.48l1.27,.54h3.62l1-1.03,2.05,1.65c-.19,.19-.49,.3-1,.38-.03,2.11-.22,3-.94,3.48-.51,.32-1.13,.46-1.97,.43,0-.43-.05-.84-.32-1.11-.22-.24-.7-.38-1.21-.49v-.43c.54,.03,1.4,.08,1.78,.08,.3,0,.43-.03,.57-.14,.16-.16,.24-.78,.3-2.05h-4.21v4.7c0,.38,.11,.46,1.03,.46h2.56c1.05,0,1.97,0,2.29-.03,.32-.03,.46-.05,.59-.27,.22-.32,.51-1.27,.84-2.35h.32l.08,2.4c.62,.24,.81,.46,.81,.84,0,.92-.92,1.21-5.13,1.21h-2.81c-2.29,0-2.7-.43-2.7-1.89v-5.34c-.97,.81-2.11,1.51-3.4,2.13l-.24-.3c1.78-1.21,3.16-2.73,4.24-4.37h-3.67l-.22-.78h4.37c.4-.73,.78-1.46,1.08-2.21h-4.4l-.22-.78h4.94c.59-1.62,.97-3.29,1.21-4.89l3.27,.67c-.11,.38-.43,.59-1.03,.59-.3,1.21-.7,2.43-1.21,3.62h3.7l1.19-1.35s1.35,.95,2.21,1.7Zm-12.01-1.21c-.11-1.08-.78-2.46-1.46-3.24l.3-.19c4.94,1.46,2.94,4.91,1.16,3.43Zm10.04-1.75c-.89,.84-1.92,1.7-2.81,2.21l-.4-.24c.49-.84,1.08-2.21,1.62-3.54l2.62,1.16c-.14,.27-.49,.49-1.03,.4Z"/>
      <path class="cls-1" d="M304.7,52.76c1.67-.84,2.67-1.62,3.13-3.13-1.81-.78-2.51-1.59-2.51-2.59,0-1.11,.84-2.02,2.08-2.02,.7,0,1.21,.16,1.73,.65,.3,.67,.38,1.11,.38,1.86,0,3.08-1.73,5.1-4.45,6.02l-.35-.78Z"/>
      <path class="cls-1" d="M324.98,39.16h1.78l1.3-1.24,2.35,2.27c-.19,.22-.57,.3-1.16,.32-.76,1.65-2.19,4.72-3.21,6.37,1.3,1.16,2.16,2.38,2.65,3.62,.22-.11,.49-.22,.76-.3,.67-1.35,1.57-3.37,2.11-4.8h-2.7l-.24-.78h2.92l1-1.03,2.11,1.83c-.22,.22-.67,.35-1.21,.41-.54,1.27-1.48,3.32-2.19,4.75h.73l1.24-1.21,2.11,1.83c-.19,.24-.46,.32-1.05,.38-.46,1.92-1.19,3.89-2.24,5.72,1.46,2.16,3.64,2.48,7.4,2.48,1.65,0,5.67,0,7.45-.05v.38c-.76,.13-1.13,.94-1.13,1.89h-6.4c-3.94,0-6.15-.89-7.58-4.24-1.08,1.73-2.48,3.32-4.29,4.59l-.3-.35c2.65-2.75,4.29-6.86,4.94-10.64h-1.05l-.76,.67-1.43-1.11c.3,.84,.43,1.67,.43,2.48,0,2.67-.81,3.89-3.27,3.97,0-.65-.11-1.38-.3-1.67-.16-.19-.54-.35-1-.43v6.45c0,.16-.67,.73-1.75,.73h-.35v-24.29l2.38,1Zm-.27,15.68h1.35c.27,0,.4-.03,.57-.16,.32-.22,.51-.78,.51-1.78,0-1.97-.46-4-1.78-5.91,.49-1.73,1.16-4.91,1.57-7.04h-2.21v14.9Zm6.42-12.55c.05-1.4-.59-3.13-1.3-4.24l.32-.13c4.97,2.38,2.7,6.1,.97,4.37Zm15.41-1.57c-.08,.3-.32,.43-.7,.43h-7.23c-.3,.65-.62,1.24-.97,1.81h4.32l1.08-1.27s1.19,.92,1.94,1.62c-.08,.3-.32,.43-.7,.43h-2.65v2.4h1.7l1.05-1.35s1.24,.95,2,1.7c-.05,.3-.32,.43-.67,.43h-10.1l-.22-.78h4.16v-2.4h-1.97l-.13-.46c-.89,1.4-1.92,2.59-3.08,3.54l-.38-.27c.97-1.4,1.86-3.29,2.54-5.4h-2.59l-.22-.78h3.02c.3-.97,.51-1.97,.7-3l3.1,.84c-.11,.32-.4,.57-1,.57-.19,.54-.38,1.08-.59,1.59h4.13l1.24-1.51s1.38,1.08,2.21,1.86Zm-10.55,6.61l2.51,1h3.97l1-1.19,2.48,1.84c-.16,.22-.62,.43-1.16,.54v7.02c0,1.38-.3,2.11-2.62,2.32-.08-.49-.13-.92-.4-1.16-.24-.22-.65-.43-1.54-.57v-.38s1.59,.11,2.02,.11c.38,0,.49-.16,.49-.49v-2.75c-1.03,.57-2.35,1.21-3.97,1.89-.11,.35-.32,.54-.57,.62l-.59-1.24c-.46,1.4-1.38,2.78-3.13,3.83l-.27-.32c1.67-2.13,1.78-4.72,1.78-7.1v-3.97Zm2.11,3.97c0,.78-.03,1.7-.22,2.62,1.27-.19,3.1-.54,4.86-.92v-3.89h-4.64v1.16c4.94-.49,4.78,2.38,3.19,2.13-.57-.43-1.75-.97-3.19-1.35v.24Z"/>
      <path class="cls-1" d="M380.19,55.52c-.05,.3-.35,.43-.73,.43h-10.66v3.19c0,1.92-.46,2.97-3.89,3.27-.11-.81-.27-1.4-.76-1.81-.49-.38-1.21-.67-2.73-.89v-.38s3.43,.22,4.05,.22c.46,0,.62-.13,.62-.51v-3.08h-10.9l-.22-.78h11.12v-2.46l2.59,.24c1.48-.54,3.13-1.24,4.4-1.86h-15.36l-.24-.78h16.71l1.59-1.4,2.46,2.35c-.22,.22-.54,.27-1.19,.3-1.89,.7-4.94,1.4-7.56,1.86-.14,.16-.38,.24-.7,.3v1.46h6.96l1.57-2.02s1.78,1.38,2.86,2.38Zm-11.9-14.5h7.1l1.57-2.08s1.81,1.43,2.89,2.43c-.08,.3-.38,.43-.76,.43h-23.51l-.22-.78h12.01c-.19-.05-.38-.13-.57-.27-.24-1.19-1.13-2.59-2-3.43l.24-.16c4.89,.51,4.7,3.37,3.24,3.86Zm-8.12,8.53h-.35v-6.99l2.75,1.11h9.8l1.24-1.38,2.78,2.05c-.19,.22-.59,.43-1.13,.57v3.64c-.03,.19-1.35,.65-2.19,.65h-.43v-1h-10.26v.57c0,.24-1.16,.78-2.21,.78Zm2.21-5.1v2.97h10.26v-2.97h-10.26Z"/>
      <path class="cls-1" d="M391,44.53c.54-2.86,.97-5.67,1.13-7.34l3.43,.59c-.08,.32-.24,.59-1.05,.65-.24,1.54-.65,3.67-1.13,5.99l2.89-.19c.05-1,.05-2,.05-3l3.67,.62c-.11,.46-.46,.67-1.05,.73l-.08,1.43,2.21-.22,.05,.4-2.35,.65c-.32,3.64-1.03,7.1-2.54,10.12,5.16,3.24,3.05,5.91,1.16,4.78-.57-.89-1.38-1.83-2.35-2.75-1.51,2.16-3.56,4.02-6.4,5.45l-.3-.24c2.43-1.75,4.13-3.97,5.34-6.42-1.46-1.27-3.08-2.43-4.48-3.29,.41-1.43,.89-3.56,1.35-5.83l-.92,.16c-.16,.35-.46,.54-.73,.59l-.73-2.81,2.81-.08Zm2,1.67c-.49,2.29-1.05,4.62-1.59,6.48,1.16,.43,2.19,.89,3.08,1.32,1-2.65,1.51-5.56,1.73-8.5l-3.21,.7Zm20.76,3.46c-.05,.3-.32,.43-.7,.43h-5.88v9.12c0,1.86-.38,2.97-3.46,3.24-.08-.78-.22-1.4-.59-1.81-.4-.41-1.03-.7-2.32-.89v-.4s2.75,.19,3.32,.19c.43,0,.57-.13,.57-.49v-8.96h-5.4l-.22-.78h5.61v-4.48l1.86,.19c.84-1.27,1.73-3.08,2.35-4.35h-8.75l-.24-.78h9.04l1.51-1.46,2.54,2.32c-.24,.22-.54,.27-1.13,.3-1.16,1.11-3,2.86-4.59,4.05l.86,.08c-.08,.38-.32,.62-.97,.7v3.43h2.54l1.43-1.92s1.65,1.32,2.62,2.27Z"/>
      <path class="cls-1" d="M431.04,39.48c-.11,.3-.46,.54-1.08,.54-.54,1.4-1.13,2.73-1.81,3.94h4.89v-6.51l3.78,.38c-.08,.38-.3,.65-1,.76v5.37h5.05l1.67-2.02s1.81,1.32,3.02,2.38c-.08,.3-.35,.43-.76,.43h-8.99v6.88h4.13l1.67-2.11s1.92,1.46,3.05,2.43c-.05,.3-.35,.43-.73,.43h-8.12v8.02h6.42l1.73-2.16s1.94,1.46,3.13,2.51c-.08,.3-.35,.43-.76,.43h-24.13l-.24-.78h11.07v-8.02h-7.69l-.22-.75h7.91v-6.88h-5.32c-1.59,2.67-3.48,4.83-5.61,6.45l-.35-.24c2.21-3.02,4.37-7.8,5.45-12.66l3.83,1.19Z"/>
      <path class="cls-1" d="M458.09,47.58c-.38-1.32-1.67-2.78-2.78-3.62l.22-.24c6.67,.49,5.05,5.32,2.56,3.86Zm-.38,6.56q.59-.97,5.61-11.36l.46,.11c-1.13,3.19-3.27,9.15-3.67,10.47-.24,.84-.43,1.75-.43,2.43,.05,1.32,1,2.38,.92,4.64-.05,1.3-.84,2.08-1.97,2.08-.57,0-1.08-.43-1.24-1.38,.46-2.78,.32-5.07-.3-5.48-.38-.27-.81-.35-1.38-.41v-.54h1.24c.35,0,.46-.03,.76-.57Zm2.59-12.23c-.46-1.38-1.84-2.97-3-3.89l.24-.22c6.86,.57,5.32,5.53,2.75,4.1Zm4.18,9.07l2.7,1.11h2.97v-5.26h-7.07l-.22-.78h7.29v-4.7c-2.24,.24-4.56,.43-6.75,.51l-.08-.43c4.67-.81,10.5-2.48,13.47-3.81l2.7,2.56c-.3,.24-.84,.24-1.62-.05-1.43,.3-3.19,.62-5.1,.86v5.05h3.62l1.54-2.05s1.75,1.4,2.81,2.4c-.08,.3-.35,.43-.73,.43h-7.23v5.26h2.92l1.27-1.4,2.7,2.05c-.19,.22-.57,.46-1.13,.57v8.15c-.03,.22-1.27,.78-2.13,.78h-.43v-2.11h-8.93v1.4c0,.27-1.11,.84-2.16,.84h-.38v-11.39Zm11.47,1.89h-8.93v6.48h8.93v-6.48Z"/>
      <path class="cls-1" d="M494.76,46.09c2.11,0,3.81,1.7,3.81,3.81s-1.7,3.83-3.81,3.83-3.83-1.73-3.83-3.83,1.73-3.81,3.83-3.81Zm0,6.67c1.57,0,2.83-1.29,2.83-2.86s-1.27-2.83-2.83-2.83-2.86,1.27-2.86,2.83,1.27,2.86,2.86,2.86Z"/>
    </g>
    <g>
      <path class="cls-1" d="M4.91,78.03c.7-1.29,1.24-2.54,1.62-3.62l3.16,1.62c-.14,.27-.38,.43-1.03,.32-.65,1.05-1.51,2.21-2.51,3.4,1.48,2.51,1.97,5.4,2.08,8.58,1.19-1.57,2.27-3.78,2.94-5.91-.32,.13-.73,.22-1.11,.22h-.32v-7.69l2.32,.97h9.8l1.05-1.11,2.27,1.7c-.13,.19-.46,.38-.89,.43v4.72c-.03,.19-1.11,.65-1.84,.65h-.38v-.81H11.9v.46l2.62,.89c-.08,.27-.43,.51-1,.49l-.43,.76h9.34l1.3-1.35,2.4,2.05c-.22,.22-.54,.38-1.11,.43-.08,8.88-.27,12.5-1.38,13.71-.73,.76-1.78,.92-3.05,.92,0-.59-.11-.97-.43-1.3-.41-.38-1.3-.59-2.27-.78v-.4c.97,.05,2.48,.16,3.05,.16,.46,0,.65-.05,.86-.27,.67-.73,.84-4.72,.92-12.39H12.58c-.51,.73-1.08,1.43-1.7,2.11l1.43,.59h2.19v-2.43l2.78,.3c-.05,.27-.24,.46-.73,.57v1.57h2l.97-1,2.05,1.54c-.11,.16-.43,.35-.84,.41v3.64c-.03,.19-1.03,.59-1.65,.59h-.32v-.57h-2.21v2.13l2.13-.19c-.27-.49-.57-.92-.86-1.27l.27-.19c5.29,1.59,3.19,5.37,1.32,3.78-.03-.54-.19-1.16-.46-1.75-1.86,.62-4.37,1.38-7.75,2.32-.16,.35-.4,.54-.67,.59l-1.24-2.7c1.08-.05,2.97-.19,5.21-.4v-2.32h-2.32v.38c0,.19-.84,.62-1.67,.62h-.3v-5.56c-.62,.57-1.27,1.08-1.94,1.51,.08,3.54-.24,7.23-1.51,9.07-.57,.84-1.62,1.19-3.05,1.19,0-.89-.16-1.48-.46-1.78-.32-.27-.89-.59-1.7-.78v-.41s1.73,.16,2.62,.16c.4,0,.59-.08,.78-.38,.73-1.05,.94-4.21,.94-7.21l-.03-1.4c-1.35,1.62-3.37,3.27-5.59,4.45l-.27-.3c2.38-2.11,4.4-5.18,5.51-8.1-.13-.86-.35-1.73-.62-2.54-1.16,1.16-2.46,2.29-3.86,3.19l-.3-.3c1.27-1.32,2.46-2.97,3.46-4.64-.65-1.32-1.51-2.56-2.67-3.75l.35-.3c1.24,.84,2.24,1.73,3.05,2.7Zm6.99-1.32v4.02h2.21v-4.02h-2.21Zm.27,11.63v3.08h2.32v-3.08h-2.32Zm3.81-11.63v4.02h2.08v-4.02h-2.08Zm.57,11.63v3.08h2.21v-3.08h-2.21Zm3.37-11.63v4.02h2.16v-4.02h-2.16Z"/>
      <path class="cls-1" d="M59.55,92.5c-.05,.3-.35,.43-.73,.43h-10.66v3.19c0,1.92-.46,2.97-3.89,3.27-.11-.81-.27-1.4-.76-1.81-.49-.38-1.21-.67-2.73-.89v-.38s3.43,.22,4.05,.22c.46,0,.62-.13,.62-.51v-3.08h-10.9l-.22-.78h11.12v-2.46l2.59,.24c1.48-.54,3.13-1.24,4.4-1.86h-15.36l-.24-.78h16.71l1.59-1.4,2.46,2.35c-.22,.22-.54,.27-1.19,.3-1.89,.7-4.94,1.4-7.56,1.86-.14,.16-.38,.24-.7,.3v1.46h6.96l1.57-2.02s1.78,1.38,2.86,2.38Zm-11.9-14.5h7.1l1.57-2.08s1.81,1.43,2.89,2.43c-.08,.3-.38,.43-.76,.43h-23.51l-.22-.78h12.01c-.19-.05-.38-.13-.57-.27-.24-1.19-1.13-2.59-2-3.43l.24-.16c4.89,.51,4.7,3.37,3.24,3.86Zm-8.12,8.53h-.35v-6.99l2.75,1.11h9.8l1.24-1.38,2.78,2.05c-.19,.22-.59,.43-1.13,.57v3.64c-.03,.19-1.35,.65-2.19,.65h-.43v-1h-10.26v.57c0,.24-1.16,.78-2.21,.78Zm2.21-5.1v2.97h10.26v-2.97h-10.26Z"/>
      <path class="cls-1" d="M69.25,74.93l2.62,1.16h16.95l1.27-1.43,2.62,2.08c-.19,.22-.62,.43-1.16,.57v21.08c-.03,.22-1.16,.86-2.08,.86h-.38v-1.81h-17.44v1.05c0,.32-.94,.94-2,.94h-.41v-24.51Zm19.84,1.92h-17.44v19.84h17.44v-19.84Zm-8.58,13.28l.08,.35c-1.38,.73-3.43,1.73-6.32,3-.11,.35-.32,.57-.59,.65l-1.4-2.67c1.48-.16,4.86-.7,8.23-1.32Zm2.75-12.25c-.05,.32-.32,.62-.89,.65l.05,2.4h2.75l.59-.76c-.16-.03-.3-.08-.46-.16-.3-.89-1.19-1.89-1.92-2.46l.24-.22c3.19,.22,3.7,1.75,3.13,2.46,.49,.38,1.21,1,1.73,1.48-.08,.3-.32,.43-.7,.43h-5.34c.13,2.13,.4,4.21,.97,6.05,.78-1.48,1.43-3.13,1.89-4.94l2.97,1.21c-.14,.32-.49,.54-1.08,.46-.78,2.13-1.75,3.94-2.92,5.45,.46,.94,1.05,1.78,1.78,2.48,.32,.35,.46,.35,.65-.08,.3-.57,.7-1.67,1.03-2.62l.32,.05-.41,3.59c.67,1.11,.78,1.62,.49,1.97-.81,.86-2.38,.05-3.27-.84-.84-.84-1.54-1.78-2.11-2.81-1.73,1.78-3.78,3.08-6.07,4.02l-.27-.35c2.08-1.27,4-3.05,5.59-5.29-1-2.43-1.51-5.26-1.73-8.37h-7.69l-.22-.78h7.85c-.05-1.16-.11-2.38-.11-3.62l3.13,.57Zm-9.69,5.02l1.97,.84h1.86l.92-.95,2.02,1.48c-.13,.16-.46,.35-.84,.41v4.05c-.03,.19-.97,.65-1.59,.65h-.3v-.84h-2.19v.78c0,.13-.84,.57-1.59,.57h-.27v-6.99Zm4.05,4.86v-3.24h-2.19v3.24h2.19Z"/>
      <path class="cls-1" d="M112.45,97.33v-10.07h-8.42l-.22-.78h8.64v-8.8h-9.5l-.22-.78h17.57l1.7-2.13s1.92,1.46,3.08,2.48c-.08,.3-.35,.43-.73,.43h-9.12v8.8h4.26l1.65-2.05s1.84,1.38,2.97,2.4c-.05,.3-.35,.43-.73,.43h-8.15v10.07h6.26l1.7-2.16s1.94,1.46,3.13,2.51c-.08,.3-.35,.4-.76,.4h-23.75l-.24-.76h10.88Z"/>
      <path class="cls-1" d="M147.33,77.95c-.05,.3-.32,.43-.67,.43h-3.32v2.32h.76l.97-1.24s1,.78,1.67,1.46c1.03-1.75,1.94-4.16,2.48-6.59l2.97,.94c-.11,.32-.43,.57-1,.54-.24,.57-.51,1.11-.78,1.65l.35,.13h2.97l-.32-.19c-.08-1.03-.81-2.24-1.57-2.92l.24-.19c3.78,.57,3.78,2.73,2.73,3.29h1.24l1.11-1.35s1.3,.97,2.08,1.7c-.05,.3-.3,.43-.67,.43h-3.64v2.35h.92l1.03-1.27s1.16,.92,1.86,1.62c-.05,.3-.32,.43-.67,.43h-3.13v2.4h.92l1.03-1.3s1.16,.95,1.86,1.65c-.05,.3-.3,.43-.67,.43h-3.13v2.32h1.48l1.16-1.46s1.35,1.03,2.13,1.81c-.08,.3-.32,.43-.67,.43h-8.58v.59c0,.16-.73,.73-1.86,.73h-.38v-8.56c-.51,.57-1.08,1.05-1.65,1.48l-.38-.27,.24-.35c-.05,.05-.11,.05-.19,.05h-2.89v2.38h.76l.97-1.27s1.13,.92,1.84,1.62c-.08,.3-.32,.43-.67,.43h-2.89v2.38h1.19l1.13-1.4s1.27,.97,2.08,1.75c-.08,.3-.32,.43-.7,.43h-7.94v.7c0,.19-.7,.73-1.81,.73h-.38v-8.69c-.59,.65-1.21,1.21-1.86,1.7l-.38-.27c1.35-1.84,2.67-4.72,3.46-7.64l2.92,1.05c-.11,.3-.46,.51-1.03,.49-.27,.57-.57,1.11-.86,1.62l.3,.11h2.75l-.3-.19c-.11-1.03-.84-2.24-1.59-2.92l.24-.19c3.75,.59,3.78,2.73,2.78,3.29h.81l1.11-1.35s1.27,.97,2.08,1.7Zm-6.53,12.74h-4.8l-.24-.78h16.55l1.7-1.43,2.4,2.35c-.22,.24-.51,.32-1.27,.32-1.38,1.54-3.05,2.86-4.97,3.94,3.08,.78,6.51,1.19,9.91,1.35v.35c-1.11,.3-1.81,1.16-2.05,2.43-3.91-.51-7.48-1.38-10.47-2.81-3.62,1.54-7.91,2.51-12.61,2.97l-.16-.43c3.97-.78,7.75-1.97,10.9-3.56-2-1.21-3.64-2.75-4.89-4.7Zm.46-12.31h-2.16v2.32h2.16v-2.32Zm0,3.1h-2.16v2.38h2.16v-2.38Zm0,3.16h-2.16v2.38h2.16v-2.38Zm10.77,6.05h-10.53c1.48,1.57,3.62,2.75,6.13,3.64,1.75-1.08,3.27-2.29,4.4-3.64Zm.76-12.31h-2.35v2.35h2.35v-2.35Zm0,3.13h-2.35v2.4h2.35v-2.4Zm0,3.19h-2.35v2.32h2.35v-2.32Z"/>
      <path class="cls-1" d="M179.38,97.41v-8.07h-7.91l-.22-.76h8.12v-6.94h-9.04l-.22-.78h17.38l1.67-2.11s1.92,1.43,3.05,2.46c-.08,.3-.35,.43-.73,.43h-9.31v6.94h4.35l1.62-2.05s1.84,1.38,2.97,2.38c-.05,.3-.35,.43-.76,.43h-8.18v8.07h6.4l1.7-2.13s1.92,1.43,3.13,2.48c-.08,.3-.38,.43-.76,.43h-24.13l-.22-.78h11.07Zm1.59-17.65c-.78-1.81-2.89-3.91-4.64-5.07l.22-.24c8.8,.97,7.4,6.86,4.43,5.32Z"/>
      <path class="cls-1" d="M205.82,76.63h6.42l1.51-2s1.73,1.38,2.75,2.35c-.05,.3-.35,.43-.73,.43h-5.1v4.99h2.19l1.16-1.21,2.19,1.89c-.16,.19-.51,.41-.97,.49v6.07c-.05,.11-1,.54-1.94,.54h-.49v-1.3h-2.13v5.99h1.38l1.4-1.97,1.73,1.57c3.05-5.24,2.73-11.88,2.73-20.14l3.51,.32c-.05,.41-.3,.67-.97,.78v.65c.35,10.5,1.67,16.74,6.94,20.27l-.05,.3c-1.21,.27-2,1.24-2.32,2.7-3.05-2.92-4.29-8.12-4.78-15.14-.46,6.45-2.16,11.61-8.77,15.25l-.32-.43c1.32-1.05,2.4-2.16,3.27-3.37h-8.8l-.81,1.3-2.65-1.62c.19-.22,.49-.46,.81-.67v-19.49l2.86,1.46Zm2.59,.78h-3v4.99h3v-4.99Zm4.4,5.78h-7.4v4.91h7.4v-4.91Zm-7.4,5.7v5.99h3v-5.99h-3Z"/>
      <path class="cls-1" d="M245.99,81.13c-.08,.3-.32,.43-.7,.43h-3.7v2.16c5.59,2.11,3.51,5.91,1.57,4.26-.16-1.16-.86-2.54-1.57-3.59v14.2c0,.3-1.03,.86-1.92,.86h-.49v-11.61c-1,2-2.29,3.81-3.86,5.4l-.35-.32c1.94-3.13,3.19-7.32,3.83-11.36h-3.37l-.22-.76h3.97v-6.56l3.37,.35c-.05,.41-.27,.65-.97,.76v5.45h.78l1.3-1.83s1.46,1.27,2.32,2.16Zm5.21-5.07c-.27,.59-.54,1.16-.84,1.73h4.86l1.48-1.38,2.38,2.16c-.22,.27-.49,.32-1.16,.38-.97,2-2.29,3.83-3.94,5.45,1.86,1.08,4.1,1.92,6.72,2.48l-.05,.27c-1.03,.35-1.62,1.08-1.81,2.27-.57-.22-1.13-.43-1.65-.65l1.51,1.16c-.19,.22-.46,.38-1.03,.49v8.12c0,.14-.84,.59-2.08,.59h-.43v-1.62h-6.02v1.24c0,.16-.73,.62-2,.62h-.4v-10.34c-1.05,.43-2.16,.81-3.35,1.13l-.22-.41c3.19-1.32,5.91-3.16,8.07-5.34-1.03-1.19-1.86-2.51-2.56-3.94-1.16,1.59-2.51,2.92-3.94,3.89l-.35-.24c1.81-2.29,3.54-5.91,4.43-9.74l3.43,1.19c-.13,.3-.46,.54-1.05,.49Zm1.3,9.64c-1.43,1.13-3.08,2.16-4.94,3l1.92,.76h5.59l1.05-1.21c-1.4-.73-2.59-1.59-3.62-2.54Zm-.22-2.43c1.24-1.46,2.21-3.02,2.92-4.7h-5.26c-.27,.46-.54,.92-.84,1.35,.84,1.27,1.89,2.38,3.19,3.35Zm2.89,13.47v-6.5h-6.02v6.5h6.02Z"/>
      <path class="cls-1" d="M272.21,75.25l3.02,1.13h11.9l1.24-1.38,2.73,2.02c-.19,.22-.57,.46-1.11,.57v5.08c-.03,.19-1.35,.65-2.16,.65h-.43v-1.48h-12.58v3.27h14.6l1.38-1.4,2.48,2.11c-.19,.22-.51,.41-1.05,.46-.16,7.34-.54,10.91-1.73,12.09-.76,.73-1.84,1.05-3.19,1.05,0-.78-.08-1.4-.46-1.78-.43-.38-1.4-.7-2.46-.92l.03-.41c1.03,.11,2.75,.24,3.32,.24,.46,0,.67-.08,.89-.3,.67-.65,.92-4.26,1.05-10.37h-14.9c-.16,4.62-1.08,9.85-5.75,13.5l-.32-.24c3.13-4.43,3.48-9.99,3.48-15.28v-8.61Zm15.2,5.83v-3.94h-12.58v3.94h12.58Zm-10.96,6.5l2.51,1.05h4.32l1.13-1.19,2.4,1.78c-.13,.19-.46,.38-.89,.46v5.21c-.03,.22-1.21,.73-2,.73h-.43v-1.3h-4.67v1.67c0,.22-1.05,.73-2.05,.73h-.32v-9.15Zm7.05,5.97v-4.13h-4.67v4.13h4.67Z"/>
      <path class="cls-1" d="M305.37,89.75c1.67-.84,2.67-1.62,3.13-3.13-1.81-.78-2.51-1.59-2.51-2.59,0-1.11,.84-2.02,2.08-2.02,.7,0,1.21,.16,1.73,.65,.3,.67,.38,1.11,.38,1.86,0,3.08-1.73,5.1-4.45,6.02l-.35-.78Z"/>
      <path class="cls-1" d="M337.23,75.03c-.08,.32-.38,.59-1,.62-.7,1.03-1.81,2.32-2.92,3.4h7.18l1.35-1.54,2.81,2.24c-.19,.22-.59,.46-1.19,.59v18.06c-.03,.24-1.32,.89-2.27,.89h-.43v-1.94h-11.74v1.03c0,.32-1.05,.97-2.21,.97h-.43v-21.51l2.86,1.21h3.05c.38-1.46,.67-3.35,.84-4.7l4.1,.67Zm-8.21,4.8v4.94h11.74v-4.94h-11.74Zm0,10.8h11.74v-5.1h-11.74v5.1Zm0,5.94h11.74v-5.18h-11.74v5.18Z"/>
      <path class="cls-1" d="M380.37,80.08c-.08,.3-.35,.43-.76,.43h-13.39c-.94,1.78-2.08,3.59-3.48,5.24l.94,.35c-.08,.27-.35,.43-.84,.51v12.01c-.03,.19-1.11,.76-2.11,.76h-.51v-10.99c-1.32,1.19-2.81,2.27-4.45,3.16l-.27-.27c3.51-2.83,6.1-6.78,7.83-10.77h-6.86l-.24-.78h7.45c.76-1.86,1.32-3.7,1.73-5.43l3.89,1.03c-.11,.32-.35,.51-1.05,.54-.43,1.24-.97,2.56-1.62,3.86h9.07l1.67-2.08s1.86,1.43,3,2.43Zm-1.43,8.29c-.05,.3-.32,.43-.7,.43h-5.67v8.23h3.67l1.59-2s1.78,1.38,2.92,2.35c-.08,.3-.35,.43-.76,.43h-16.36l-.22-.78h6.53v-8.23h-5.13l-.22-.78h5.34v-6.29l3.48,.32c-.03,.35-.24,.59-.86,.7v5.26h2.16l1.48-1.89s1.73,1.29,2.73,2.24Z"/>
      <path class="cls-1" d="M401.67,77.95c-.05,.3-.32,.43-.67,.43h-3.32v2.32h.76l.97-1.24s1,.78,1.67,1.46c1.03-1.75,1.94-4.16,2.48-6.59l2.97,.94c-.11,.32-.43,.57-1,.54-.24,.57-.51,1.11-.78,1.65l.35,.13h2.97l-.32-.19c-.08-1.03-.81-2.24-1.57-2.92l.24-.19c3.78,.57,3.78,2.73,2.73,3.29h1.24l1.11-1.35s1.3,.97,2.08,1.7c-.05,.3-.3,.43-.67,.43h-3.64v2.35h.92l1.03-1.27s1.16,.92,1.86,1.62c-.05,.3-.32,.43-.67,.43h-3.13v2.4h.92l1.03-1.3s1.16,.95,1.86,1.65c-.05,.3-.3,.43-.67,.43h-3.13v2.32h1.48l1.16-1.46s1.35,1.03,2.13,1.81c-.08,.3-.32,.43-.67,.43h-8.58v.59c0,.16-.73,.73-1.86,.73h-.38v-8.56c-.51,.57-1.08,1.05-1.65,1.48l-.38-.27,.24-.35c-.05,.05-.11,.05-.19,.05h-2.89v2.38h.76l.97-1.27s1.13,.92,1.84,1.62c-.08,.3-.32,.43-.67,.43h-2.89v2.38h1.19l1.13-1.4s1.27,.97,2.08,1.75c-.08,.3-.32,.43-.7,.43h-7.94v.7c0,.19-.7,.73-1.81,.73h-.38v-8.69c-.59,.65-1.21,1.21-1.86,1.7l-.38-.27c1.35-1.84,2.67-4.72,3.46-7.64l2.92,1.05c-.11,.3-.46,.51-1.03,.49-.27,.57-.57,1.11-.86,1.62l.3,.11h2.75l-.3-.19c-.11-1.03-.84-2.24-1.59-2.92l.24-.19c3.75,.59,3.78,2.73,2.78,3.29h.81l1.11-1.35s1.27,.97,2.08,1.7Zm-6.53,12.74h-4.8l-.24-.78h16.55l1.7-1.43,2.4,2.35c-.22,.24-.51,.32-1.27,.32-1.38,1.54-3.05,2.86-4.97,3.94,3.08,.78,6.51,1.19,9.91,1.35v.35c-1.11,.3-1.81,1.16-2.05,2.43-3.91-.51-7.48-1.38-10.47-2.81-3.62,1.54-7.91,2.51-12.61,2.97l-.16-.43c3.97-.78,7.75-1.97,10.9-3.56-2-1.21-3.64-2.75-4.89-4.7Zm.46-12.31h-2.16v2.32h2.16v-2.32Zm0,3.1h-2.16v2.38h2.16v-2.38Zm0,3.16h-2.16v2.38h2.16v-2.38Zm10.77,6.05h-10.53c1.48,1.57,3.62,2.75,6.13,3.64,1.75-1.08,3.27-2.29,4.4-3.64Zm.76-12.31h-2.35v2.35h2.35v-2.35Zm0,3.13h-2.35v2.4h2.35v-2.4Zm0,3.19h-2.35v2.32h2.35v-2.32Z"/>
      <path class="cls-1" d="M426.11,80.27l2.78,1.13h4.86v-2.73h-10.04l-.22-.78h10.26v-3.54l3.64,.35c-.08,.38-.27,.67-1,.78v2.4h5.8l1.65-2.02s1.92,1.38,3.08,2.38c-.08,.3-.38,.43-.76,.43h-9.77v2.73h4.94l1.3-1.4,2.7,2.08c-.19,.22-.57,.43-1.11,.54v8.4c-.03,.19-1.3,.76-2.19,.76h-.43v-1.13h-5.21v3.21h6.56l1.7-2.05s1.86,1.4,3.05,2.4c-.08,.3-.38,.43-.76,.43h-10.55v3.97c0,.27-1.11,.84-2.11,.84h-.54v-4.8h-10.82l-.24-.78h11.07v-3.21h-5.07v.92c0,.27-1.11,.86-2.19,.86h-.38v-12.15Zm2.56,1.92v3.35h5.07v-3.35h-5.07Zm5.07,4.13h-5.07v3.54h5.07v-3.54Zm2.65-.78h5.21v-3.35h-5.21v3.35Zm5.21,4.32v-3.54h-5.21v3.54h5.21Z"/>
      <path class="cls-1" d="M462.05,82.67v15.93c-.05,.24-1.11,.81-2.11,.81h-.49v-14.52c-1.08,1.38-2.24,2.59-3.48,3.62l-.32-.24c2.29-3.35,4.7-8.69,5.94-13.93l3.83,1.21c-.13,.32-.46,.54-1.08,.54-.78,2.02-1.7,3.91-2.73,5.62l1.24,.46c-.08,.24-.32,.43-.81,.51Zm19.35,14.66c-.08,.3-.38,.43-.76,.43h-17.68l-.22-.78h9.56c1.16-4.29,2.29-10.09,2.83-14.28l3.89,.92c-.11,.38-.4,.62-1.03,.65-1.05,3.54-3,8.67-5.13,12.71h3.94l1.65-2.11s1.81,1.43,2.94,2.46Zm-.59-16.28c-.08,.3-.35,.43-.73,.43h-16.36l-.22-.78h12.85l1.59-2.02s1.78,1.38,2.86,2.38Zm-12.98,13.66c-.11-2.89-.57-7.85-2.4-11.36l.35-.19c7.58,7.94,3.94,14.47,2.05,11.55Zm3.27-14.98c-.16-1.78-1.24-3.83-2.32-5.16l.27-.19c7.02,2.16,4.56,7.42,2.05,5.34Z"/>
      <path class="cls-1" d="M495.42,83.08c2.11,0,3.81,1.7,3.81,3.81s-1.7,3.83-3.81,3.83-3.83-1.73-3.83-3.83,1.73-3.81,3.83-3.81Zm0,6.67c1.57,0,2.83-1.29,2.83-2.86s-1.27-2.83-2.83-2.83-2.86,1.27-2.86,2.83,1.27,2.86,2.86,2.86Z"/>
    </g>
    <g>
      <path class="cls-1" d="M3.61,138.11l2.62,1.16H23.18l1.27-1.43,2.62,2.08c-.19,.22-.62,.43-1.16,.57v21.08c-.03,.22-1.16,.86-2.08,.86h-.38v-1.81H6.02v1.05c0,.32-.94,.94-2,.94h-.41v-24.51Zm19.84,1.92H6.02v19.84H23.45v-19.84Zm-8.58,13.28l.08,.35c-1.38,.73-3.43,1.73-6.32,3-.11,.35-.32,.57-.59,.65l-1.4-2.67c1.48-.16,4.86-.7,8.23-1.32Zm2.75-12.25c-.05,.32-.32,.62-.89,.65l.05,2.4h2.75l.59-.76c-.16-.03-.3-.08-.46-.16-.3-.89-1.19-1.89-1.92-2.46l.24-.22c3.19,.22,3.7,1.75,3.13,2.46,.49,.38,1.21,1,1.73,1.48-.08,.3-.32,.43-.7,.43h-5.34c.13,2.13,.4,4.21,.97,6.05,.78-1.48,1.43-3.13,1.89-4.94l2.97,1.21c-.14,.32-.49,.54-1.08,.46-.78,2.13-1.75,3.94-2.92,5.45,.46,.94,1.05,1.78,1.78,2.48,.32,.35,.46,.35,.65-.08,.3-.57,.7-1.67,1.03-2.62l.32,.05-.41,3.59c.67,1.11,.78,1.62,.49,1.97-.81,.86-2.38,.05-3.27-.84-.84-.84-1.54-1.78-2.11-2.81-1.73,1.78-3.78,3.08-6.07,4.02l-.27-.35c2.08-1.27,4-3.05,5.59-5.29-1-2.43-1.51-5.26-1.73-8.37H6.96l-.22-.78h7.85c-.05-1.16-.11-2.38-.11-3.62l3.13,.57Zm-9.69,5.02l1.97,.84h1.86l.92-.95,2.02,1.48c-.13,.16-.46,.35-.84,.41v4.05c-.03,.19-.97,.65-1.59,.65h-.3v-.84h-2.19v.78c0,.13-.84,.57-1.59,.57h-.27v-6.99Zm4.05,4.86v-3.24h-2.19v3.24h2.19Z"/>
      <path class="cls-1" d="M40.44,144.67h-4.4l-.24-.78h4.7l1.19-1.21,2.38,2.13c-.24,.27-.78,.4-1.43,.4-.73,1.32-2.02,3.43-2.97,4.91h1.78l1.38-1.4,2.4,2.11c-.19,.24-.43,.32-1.05,.35-.62,2-1.57,4.05-2.89,5.94,1.97,2.11,4.91,2.4,9.8,2.4,2.19,0,7.4,0,9.69-.05v.35c-.92,.22-1.35,1.03-1.4,2h-8.34c-5.24,0-8.15-.81-10.18-4.13-1.3,1.7-2.92,3.27-4.91,4.48l-.3-.32c2.97-2.78,5.02-7.04,5.91-10.93h-2.19l-.84,.78-2.02-1.57c.24-.19,.65-.38,1.03-.49,.94-1.38,2.16-3.51,2.92-4.97Zm-.97-2.48c-.3-1.43-1.46-3.1-2.54-4.1l.27-.19c6.67,1.05,4.72,5.94,2.27,4.29Zm20.89,.24c-.08,.3-.35,.43-.73,.43h-6.99c-.49,.81-1.11,1.81-1.7,2.59h4.26l1.21-1.32,2.59,1.97c-.19,.22-.57,.41-1.08,.51v10.85c-.03,.19-1.24,.7-2.05,.7h-.4v-1.38h-7.29v.76c0,.27-1.03,.84-2.05,.84h-.38v-14.04l2.56,1.11h1.27c.08-.81,.13-1.81,.16-2.59h-5.67l-.22-.78h8.66c.57-1.46,1.13-3.37,1.46-4.75l3.59,.92c-.11,.3-.4,.51-1.03,.51-.76,.97-1.97,2.27-3.16,3.32h2.75l1.48-1.94s1.7,1.32,2.73,2.29Zm-12.34-.76c-.13-1.35-1.03-2.94-1.86-3.89l.27-.19c6.1,1.35,3.83,5.78,1.59,4.08Zm7.45,7.23v-2.67h-7.29v2.67h7.29Zm0,3.54v-2.75h-7.29v2.75h7.29Zm0,3.56v-2.78h-7.29v2.78h7.29Z"/>
      <path class="cls-1" d="M83.61,150.07c0,1.05-.84,1.89-1.89,1.89s-1.89-.84-1.89-1.89,.84-1.89,1.89-1.89,1.89,.84,1.89,1.89Z"/>
      <path class="cls-1" d="M106.05,150.15v-5.53h-3.19l-.22-.78h3.4v-6.32l3.46,.35c-.05,.38-.32,.65-1,.76v5.21h.3l1.21-1.94s1.38,1.38,2.11,2.29c-.05,.3-.3,.43-.67,.43h-2.94v4.8l3.02-.89,.08,.32-3.1,1.97v8.61c0,1.83-.32,2.89-3.24,3.18-.05-.81-.19-1.43-.51-1.81-.35-.41-.86-.67-1.97-.84v-.41s2.24,.16,2.73,.16c.43,0,.54-.13,.54-.49v-6.94l-2.02,1.16c-.08,.35-.32,.62-.62,.7l-1.16-3.02c.78-.16,2.13-.54,3.81-1Zm9.64,3.1c-.08,.35-.38,.59-.97,.62-.16,.84-.38,1.62-.62,2.32,.78,1.32,1.78,2.13,3.08,2.62v-7.37h-4.94l-.24-.78h5.18v-2.83h-6.53l-.22-.78h6.75v-2.62h-4.72l-.24-.78h4.97v-2.27h-6.13l-.22-.78h6.34v-2.94l3.43,.32c-.05,.38-.24,.65-.92,.75v1.86h3.62l1.51-1.94s1.67,1.35,2.67,2.29c-.08,.3-.35,.43-.73,.43h-7.07v2.27h2.75l1.16-1.24,2.43,1.86c-.13,.16-.51,.38-.97,.49v2.29h.16l1.05-1.59s1.24,1.13,1.92,1.94c-.05,.3-.3,.43-.67,.43h-2.46v3.89c-.03,.19-1.19,.73-1.97,.73h-.4v-1h-3v3.29h2.43l1.43-1.86s1.62,1.3,2.59,2.21c-.08,.3-.35,.4-.73,.4h-5.72v3.86c.86,.11,1.84,.13,2.92,.13,1.24,0,4.1,0,5.53-.03v.35c-.78,.16-1.19,1.03-1.16,2.08h-4.51c-4.48,0-7.04-1.03-8.61-4.99-1.08,2.73-2.7,4.56-4.94,5.75l-.32-.3c2.11-2.29,3.43-5.56,3.59-9.72l3.51,.62Zm6.99-6.21v-2.62h-3v2.62h3Zm-3,3.62h3v-2.83h-3v2.83Z"/>
      <path class="cls-1" d="M140.56,145.02h-4.08l-.24-.78h4.4l1.11-1.13,2.27,2.02c-.24,.24-.73,.38-1.32,.41-.73,1.3-1.97,3.35-2.92,4.8h1.62l1.38-1.35,2.35,2.05c-.19,.27-.46,.32-1.05,.38-.54,1.89-1.38,3.83-2.54,5.67,1.97,2.27,4.94,2.62,9.93,2.62,2.19,0,7.42,0,9.72-.08v.35c-.92,.22-1.35,1-1.4,1.94h-8.37c-5.29,0-8.26-.81-10.26-4.24-1.21,1.78-2.75,3.43-4.67,4.75l-.3-.3c2.65-2.89,4.54-7.18,5.32-11.01h-2.02l-.86,.75-1.97-1.54c.24-.16,.65-.35,1.03-.46,.94-1.35,2.13-3.4,2.89-4.86Zm-.67-2.97c-.22-1.43-1.32-3.1-2.32-4.13l.27-.19c6.4,1.46,4.32,5.96,2.05,4.32Zm5.8,12.01h-.35v-9.23l2.43,1.03h2.73v-1.86h-5.7l-.22-.78h5.91v-2.59l3.32,.35c-.05,.38-.27,.65-.97,.76v1.48h2.7l1.35-1.65,.3,.22,.35-1.81h-11.04c.03,1.43-.59,2.43-1.32,2.83-.73,.38-1.78,.24-2.08-.54-.22-.78,.27-1.4,.97-1.73,.84-.43,1.67-1.57,1.57-2.78l.43-.03c.19,.51,.32,1,.38,1.46h10.93l1.32-1.32,2.38,2.27c-.22,.19-.51,.27-1.03,.3-.51,.57-1.38,1.32-2.13,1.89,.49,.38,1.05,.84,1.51,1.24-.08,.3-.35,.43-.7,.43h-5.88v1.86h2.59l1.19-1.27,2.51,1.92c-.16,.22-.59,.43-1.13,.54v5.91c-.03,.19-1.13,.7-1.92,.7h-.38v-.76h-2.86v2.38h3.56l1.43-1.75s1.62,1.19,2.62,2.11c-.05,.3-.35,.43-.73,.43h-6.88v2.56c0,.27-1.03,.78-1.92,.78h-.43v-3.35h-6.37l-.22-.78h6.59v-2.38h-2.86v.4c0,.22-1,.76-1.94,.76Zm1.94-7.42v2.35h2.86v-2.35h-2.86Zm0,3.13v2.35h2.86v-2.35h-2.86Zm5.21-.78h2.86v-2.35h-2.86v2.35Zm0,3.13h2.86v-2.35h-2.86v2.35Z"/>
      <path class="cls-1" d="M184.05,150.07c0,1.05-.84,1.89-1.89,1.89s-1.89-.84-1.89-1.89,.84-1.89,1.89-1.89,1.89,.84,1.89,1.89Z"/>
      <path class="cls-1" d="M211.7,144.45c-.08,.3-.32,.43-.7,.43h-2.46v1.78c4.56,2.51,2.78,5.8,1.16,4.37-.08-1.05-.59-2.35-1.16-3.4v14.06c0,.3-1,.89-1.86,.89h-.46v-11.17c-.81,1.75-1.84,3.37-3.05,4.83l-.38-.32c1.62-3.1,2.54-7.13,3.05-11.04h-2.51l-.22-.78h3.1v-6.64l3.29,.32c-.05,.41-.27,.65-.97,.76v5.4l1.08-1.51s1.3,1.19,2.08,2.02Zm16.57,7.75c-.05,.3-.32,.43-.7,.43h-6.37c.3,1.43,.67,2.67,1.21,3.75,.73-.97,1.38-2.05,1.94-3.24l2.7,1.57c-.16,.3-.46,.4-1.05,.24-.73,1.19-1.57,2.21-2.48,3.1,.54,.65,1.19,1.13,1.94,1.51,.46,.27,.59,.22,.84-.24,.32-.73,.81-2.08,1.16-3.27l.32,.05-.35,4.08c.81,.94,.92,1.38,.7,1.78-.62,1.08-2.21,.54-3.51-.11-1.13-.57-2.08-1.35-2.86-2.32-1.86,1.32-3.97,2.24-6.21,2.78l-.19-.4c1.94-.86,3.86-2.11,5.51-3.78-.86-1.51-1.43-3.37-1.84-5.51h-2.75c-.05,.7-.13,1.43-.3,2.16,4.64,1.11,2.94,4.64,.97,3.29-.16-.76-.62-1.59-1.21-2.29-.67,2.43-2.16,4.78-5.43,6.59l-.35-.38c3.27-2.92,3.67-6.34,3.78-9.37h-2.48l-.22-.78h7.85c-.38-2.54-.57-5.43-.62-8.61-.16,.08-.38,.11-.62,.05-1.03,1.48-2.73,3.51-4.35,4.97l3.02-.3c-.16-.67-.4-1.32-.65-1.84l.35-.13c3.83,2.43,1.86,5.34,.51,3.86,.03-.38-.03-.81-.08-1.21-.86,.4-2.13,.94-3.35,1.43-.13,.3-.3,.46-.49,.54l-1.19-2.27s.46-.14,.65-.24c.86-.78,1.86-2.29,2.67-3.75l-1.7,.78c-.16,.32-.35,.54-.57,.65l-1.24-2.46s.46-.11,.62-.22c1.03-1,2.21-3.75,2.62-5.13l2.81,1.27c-.13,.24-.43,.46-.97,.4-.84,1.19-2.19,2.7-3.4,3.78l2.38-.16c.32-.65,.59-1.24,.78-1.73l2.16,1.19-.03-5.05,3.29,.38c-.05,.35-.3,.65-.97,.76-.08,5.02-.08,9.5,.51,13.04h3.83l1.19-1.46s1.35,1.03,2.19,1.81Zm-2.16-2.81c.03-.46-.05-.97-.16-1.49l-2.94,1.21c3.37,.84,1.84,3.35,.46,2.27-.03-.67-.43-1.48-.86-2-.13,.27-.32,.43-.49,.51l-1.13-2.32s.46-.11,.62-.22c.7-.68,1.48-1.89,2.16-3.13l-1.4,.67c-.16,.38-.41,.62-.62,.73l-1.13-2.38s.41-.11,.57-.22c.86-.97,1.81-3.67,2.08-5.02l2.92,1.27c-.11,.22-.4,.46-.92,.41-.73,1.11-1.84,2.46-2.86,3.48l1.94-.11c.35-.7,.62-1.32,.78-1.84l2.59,1.57c-.11,.22-.46,.38-.94,.27-.94,1.35-2.46,3.13-3.89,4.4l2.86-.24c-.19-.54-.43-1.05-.67-1.46l.35-.16c4.13,2.13,2.16,5.26,.7,3.78Z"/>
      <path class="cls-1" d="M239.67,153.68v-7.99h-2.78l-.22-.78h3v-7.04l3.48,.35c-.05,.38-.27,.65-1,.73v5.96h.16l1.3-2.02s1.43,1.43,2.24,2.38c-.08,.3-.35,.43-.73,.43h-2.97v7.02l3.56-1.4,.11,.3c-1.62,1.27-4.08,3.19-7.45,5.48-.05,.32-.27,.65-.57,.78l-1.48-3c.7-.22,1.89-.65,3.35-1.19Zm17.98-4.51l1.51-1.89s1.7,1.29,2.75,2.24c-.08,.3-.35,.43-.73,.43h-10.28c-.4,.76-.84,1.46-1.35,2.13h8.4l1.32-1.3,2.46,2.02c-.22,.22-.54,.35-1.11,.43-.38,4.91-1.13,7.53-2.46,8.5-.78,.59-1.78,.84-2.94,.84,0-.7-.11-1.32-.46-1.67-.35-.35-1.08-.65-2-.81l.03-.41c.86,.05,2.32,.16,2.86,.16,.43,0,.65-.05,.92-.24,.65-.54,1.24-2.86,1.59-6.75h-1.3c-1.54,4.29-4.53,7.5-9.26,9.72l-.27-.41c3.48-2.29,5.72-5.53,6.91-9.31h-1.43c-1.89,3.48-5.1,6.21-9.23,8.1l-.3-.4c3.1-1.94,5.56-4.7,7.07-7.69h-1.46c-1.7,1.92-3.97,3.43-6.64,4.62l-.27-.38c2.67-1.81,4.72-4.43,5.97-7.15h-3.75l-.22-.78h13.66Zm-10.69-11.23l2.59,1.05h6.37l1.27-1.35,2.62,2.02c-.16,.19-.57,.43-1.08,.54v6.83c-.03,.22-1.21,.81-2.11,.81h-.43v-1.11h-6.77v.73c0,.22-1.08,.78-2.11,.78h-.35v-10.31Zm9.23,4.51v-2.67h-6.77v2.67h6.77Zm-6.77,3.54h6.77v-2.78h-6.77v2.78Z"/>
      <path class="cls-1" d="M273.21,152.93c1.67-.84,2.67-1.62,3.13-3.13-1.81-.78-2.51-1.59-2.51-2.59,0-1.11,.84-2.02,2.08-2.02,.7,0,1.21,.16,1.73,.65,.3,.67,.38,1.11,.38,1.86,0,3.08-1.73,5.1-4.45,6.02l-.35-.78Z"/>
      <path class="cls-1" d="M294.4,145.53l2.83,1.19h3.13l.27-3.21h-10.37l-.24-.78h14.41c.78-1.57,1.59-3.64,2.08-5.18l3.72,.95c-.11,.32-.4,.54-1.03,.54-.94,1.11-2.46,2.54-3.91,3.7h5.02l1.67-2.05s1.89,1.4,3.08,2.4c-.08,.3-.38,.43-.76,.43h-10.28c-.81,1.11-1.81,2.32-2.67,3.21h6.42l1.32-1.46,2.73,2.13c-.16,.22-.57,.43-1.11,.54v13.66c-.03,.22-1.32,.78-2.24,.78h-.43v-1.81h-11.04v1.03c0,.3-1.08,.95-2.21,.95h-.41v-17.01Zm3.48-3.29c-.27-1.54-1.35-3.29-2.35-4.43l.27-.16c6.78,1.48,4.53,6.37,2.08,4.59Zm-.86,5.24v3.51h11.04v-3.51h-11.04Zm11.04,7.85v-3.56h-11.04v3.56h11.04Zm0,4.45v-3.67h-11.04v3.67h11.04Z"/>
      <path class="cls-1" d="M338.79,139.94c-.19,.27-.46,.41-1.13,.3-1.05,2.02-2.46,4.21-4.21,6.29h1.4l1.32-1.78s1.51,1.24,2.43,2.13c-.08,.27-.35,.41-.7,.41h-5.1c-.89,1.03-1.89,2.02-2.97,2.97h3.4l1.21-1.32,2.56,1.97c-.16,.22-.57,.43-1.08,.54v9.91c-.03,.19-1.21,.7-2.05,.7h-.38v-2.08h-4.83v1.7c0,.19-.76,.76-1.94,.76h-.4v-9.53c-.94,.62-1.94,1.19-3,1.7l-.27-.32c1.13-.76,2.24-1.59,3.27-2.48v-2.54l1.86,.73c.86-.86,1.65-1.75,2.4-2.7h-7.05l-.22-.76h4.91v-3.91h-3.91l-.22-.78h4.13v-4.1l3.46,.3c-.05,.38-.3,.65-1,.76v3.05h.92l1.24-1.75,1.54,1.38c.54-1.03,1-2.02,1.38-3l3.02,1.48Zm-9.91,11.09l-.22,.19v3.48h4.83v-3.67h-4.62Zm-.22,8.18h4.83v-3.73h-4.83v3.73Zm2.02-12.69h.46c.97-1.3,1.84-2.59,2.59-3.91h-3.05v3.91Zm8.18-8.12l2.83,1.35h3.19l1.43-1.38,2.65,2.51c-.22,.24-.57,.32-1.21,.35-.97,1.78-2.75,4.91-4.1,6.69,3.24,2.08,4.48,4.7,4.48,6.94,.03,2.67-1.08,4.16-4.18,4.26,0-.76-.11-1.7-.35-2.02-.24-.27-.78-.46-1.48-.57v-.4h2.19c.3,0,.46-.03,.67-.16,.46-.27,.73-.78,.73-1.78,0-2-.76-4.16-2.73-6.18,.59-1.84,1.51-5.21,2.05-7.48h-3.67v21.22c0,.22-.78,.84-2.08,.84h-.4v-24.19Z"/>
      <path class="cls-1" d="M359.09,161.21c-.57,.7-1.75,.78-2.21,.08-.35-.67-.03-1.4,.62-1.86,.81-.76,1.73-2.65,1.67-4.4h.43c.92,3,.38,5.18-.51,6.18Zm6.37-7.58c-.03-.54-.13-1.11-.3-1.67-1.54,.54-3.73,1.3-6.1,2-.22,.35-.49,.57-.76,.67l-1.03-2.89s.62-.13,.89-.3c1.38-1.05,3.05-3.08,4.43-5.07-.97,.35-2.11,.73-3.29,1.08-.19,.32-.4,.51-.65,.62l-1.16-2.86s.51-.11,.73-.27c1.32-1.46,3.02-5.32,3.54-7.37l3.19,1.57c-.11,.24-.43,.46-.94,.41-1.11,1.75-3.02,4.18-4.75,5.78h4.05c.65-1.03,1.21-2,1.57-2.78l2.86,1.94c-.14,.24-.51,.41-1.03,.3-1.54,2-4.45,4.89-7.1,6.88l5.34-.38c-.32-.94-.76-1.86-1.16-2.59l.35-.16c5.18,2.92,3.13,6.78,1.32,5.1Zm-3.99,6.48c.3-1.73,.05-3.86-.3-5.32l.38-.11c4.05,3.62,1.54,7.42-.08,5.43Zm3.54-1.89c0-1.27-.62-2.86-1.24-3.83l.32-.16c4.7,2,2.62,5.59,.92,4Zm.35,4.43l-.4-.41c4.16-6.34,4.02-14.25,4.05-21.94h-2.27l-.24-.78h9.47l1.08-1.21,2.43,1.94c-.22,.22-.46,.3-.94,.35l-.92,6.48h.38l1.43-1.38,2.4,2.16c-.19,.27-.46,.35-1.08,.41-.81,3.05-2.02,5.88-3.94,8.29,1.59,1.62,3.48,2.86,5.59,3.78l-.05,.3c-1.08,.08-1.92,.81-2.4,1.97-1.84-1.21-3.35-2.65-4.59-4.43-1.89,1.83-4.35,3.35-7.56,4.43l-.24-.38c2.92-1.43,5.16-3.35,6.86-5.61-1.3-2.35-2.19-5.21-2.73-8.75h-.51c-.46,5.56-1.75,10.72-5.8,14.79Zm9.83-15.58l.92-6.77h-4.64c-.05,2.29-.08,4.56-.24,6.77h3.97Zm2.97,.78h-5.94c.62,2.86,1.75,5.24,3.24,7.15,1.3-2.16,2.16-4.56,2.7-7.15Z"/>
      <path class="cls-1" d="M409.04,150.12c-1.03,2.16-2.46,4.18-4.32,5.96,3.21,1.94,7.1,3.21,11.18,3.91l-.05,.32c-1.19,.19-2,1.03-2.4,2.27-3.99-1.08-7.48-2.73-10.26-5.18-3.13,2.46-7.26,4.29-12.58,5.18l-.16-.38c4.75-1.35,8.5-3.54,11.28-6.24-1.73-1.89-3.08-4.18-4-6.91l.41-.27c1.05,2.4,2.67,4.37,4.72,5.97,1.73-1.94,3-4.16,3.83-6.48l3.43,1.49c-.14,.3-.43,.43-1.08,.35Zm6.48-7.29c-.08,.3-.35,.43-.76,.43h-23.73l-.24-.78h20.22l1.62-2.27s1.81,1.57,2.89,2.62Zm-15.47,2.86c-1.73,2.27-4.7,4.78-8.29,6.15l-.22-.35c2.7-2,5.07-5.29,6.1-7.83l3.4,1.7c-.13,.27-.38,.41-1,.32Zm2.35-3.67c-.35-1.57-1.67-3.32-2.83-4.35l.24-.19c7.18,.92,5.24,6.21,2.59,4.54Zm9.26,8.88c-1-2.27-3.75-5.02-6.02-6.59l.24-.24c10.07,2.19,8.8,8.42,5.78,6.83Z"/>
      <path class="cls-1" d="M429,145.32h-4.51l-.24-.78h4.91l1.24-1.24,2.48,2.24c-.3,.3-.94,.41-1.7,.43-.89,1.35-2.38,3.43-3.46,4.89h1.89l1.38-1.38,2.38,2.08c-.19,.24-.43,.32-1.05,.35-.51,1.67-1.27,3.35-2.27,4.94,1.92,2.29,4.75,2.65,9.58,2.65,2.16,0,7.37,0,9.66-.05v.32c-.97,.22-1.43,1.16-1.46,2.24h-8.26c-5.18,0-8.04-.95-9.88-4.62-1.4,2.05-3.29,3.86-5.72,5.24l-.27-.35c3.08-2.65,5.1-6.72,6.02-10.63h-2.43l-.78,.67-1.97-1.59c.27-.16,.7-.38,1.11-.49,1.05-1.38,2.46-3.43,3.35-4.91Zm-.24-3.16c-.43-1.54-1.89-3.35-3.1-4.4l.24-.19c7.02,1.03,5.43,6.07,2.86,4.59Zm5.56,16.3h-.38v-15.09l2.51,1.05h3.46l-.13-.14c-.46-1.08-1.51-2.38-3.29-3.46l.22-.38c2.38,.43,3.78,1.08,4.56,1.75,.76-.78,1.62-1.73,2.24-2.51h-9.69l-.24-.78h10.18l1.43-1.35,2.4,2.27c-.24,.22-.54,.27-1.13,.3-1.11,.86-3.05,1.89-4.7,2.62,.43,.65,.32,1.27-.03,1.67h3l1.13-1.3,2.59,1.97c-.16,.22-.57,.43-1.13,.54v10.12c0,1.59-.3,2.48-2.83,2.73-.03-.62-.11-1.16-.35-1.48-.27-.3-.7-.57-1.54-.7v-.41s1.54,.13,1.94,.13c.38,0,.46-.13,.46-.49v-2.7h-3.21v4.53c-.03,.11-.7,.57-1.84,.57h-.38v-5.1h-3.27v4.78c0,.24-.97,.84-1.97,.84Zm5.24-13.25h-3.27v2.89h3.27v-2.89Zm0,3.67h-3.27v3.19h3.27v-3.19Zm5.43-3.67h-3.21v2.89h3.21v-2.89Zm0,3.67h-3.21v3.19h3.21v-3.19Z"/>
      <path class="cls-1" d="M459.67,160.81c-.51,.67-1.73,.81-2.16,.08-.38-.67-.03-1.4,.59-1.89,.67-.7,1.4-2.51,1.24-4.02h.43c.89,2.75,.62,4.86-.11,5.83Zm5.05-7.4c.03-.41-.03-.84-.08-1.3-1.43,.51-3.35,1.16-5.37,1.78-.19,.3-.43,.51-.67,.59l-1.08-2.83s.62-.13,.84-.3c1.19-1.03,2.62-2.92,3.81-4.83l-2.7,.94c-.19,.27-.4,.46-.62,.54l-1.13-2.81s.51-.11,.7-.27c1.32-1.46,2.97-5.29,3.51-7.34l3.1,1.51c-.11,.24-.4,.46-.92,.41-1.08,1.78-3,4.24-4.7,5.83h3.48c.67-1.16,1.21-2.27,1.57-3.13l2.81,1.89c-.14,.24-.49,.41-1.03,.3-1.4,2.13-4.16,5.21-6.67,7.26,1.32-.05,3.05-.16,4.91-.32-.22-.97-.57-1.92-.89-2.65l.32-.13c4.64,3,2.46,6.59,.81,4.86Zm-3.08,6.48c.3-1.67,.11-3.75-.19-5.18l.38-.08c3.64,3.59,1.3,7.1-.19,5.26Zm3.59-1.16c-.08-1.43-.89-3.29-1.67-4.45l.32-.14c4.99,2.38,3.1,6.15,1.35,4.59Zm14.12-12.74v-5.91h-9.85v21.73c0,.13-.7,.7-1.78,.7h-.35v-24.21l2.46,1h9.26l1.08-1.3,2.51,1.92c-.19,.22-.59,.43-1.13,.54v18.89c0,1.67-.35,2.67-3.18,2.92-.05-.67-.22-1.24-.57-1.57-.4-.35-1.03-.62-2.27-.81v-.41s2.67,.19,3.21,.19c.49,0,.62-.16,.62-.57v-12.42c-.08,.05-.19,.08-.32,.08h-9.07l-.22-.78h4.91c.46-1.51,1-3.64,1.32-5.16l2.83,.84c-.11,.32-.46,.54-1.03,.51-.59,1.08-1.59,2.59-2.51,3.81h1.21l1.11-1.51s.97,.81,1.75,1.51Zm-.03,4.83c-.03,.3-.3,.43-.65,.43h-5.37v4.45c0,.32,.08,.43,.59,.43h1.27c.49,0,.97-.03,1.19-.03,.16,0,.35-.03,.46-.03,.14-.03,.38-.05,.51-.11h.27l.11,.03c.57,.19,.78,.43,.78,.81,0,.84-.73,1.13-3.56,1.13h-1.65c-1.73,0-1.97-.46-1.97-1.75v-4.94h-1.21l-.22-.78h6.42l1.05-1.43s1.24,1.03,1.97,1.78Zm-7.48-5.48c-.08-1.32-.81-3-1.49-4.05l.32-.16c4.78,2.27,2.83,5.72,1.16,4.21Zm1.48,4.54c.03-.97-.41-2.16-.86-2.89l.3-.14c4.48,1.46,2.19,4.59,.57,3.02Z"/>
      <path class="cls-1" d="M496.74,146.26c2.11,0,3.81,1.7,3.81,3.81s-1.7,3.83-3.81,3.83-3.83-1.73-3.83-3.83,1.73-3.81,3.83-3.81Zm0,6.67c1.57,0,2.83-1.29,2.83-2.86s-1.27-2.83-2.83-2.83-2.86,1.27-2.86,2.83,1.27,2.86,2.86,2.86Z"/>
    </g>
  </g>
</svg>