<?xml version="1.0" encoding="UTF-8"?>
<svg id="_圖層_2" data-name="圖層 2" xmlns="http://www.w3.org/2000/svg" viewBox="0 0 358.52 122.51">
  <defs>
    <style>
      .cls-1 {
        fill: #fff;
      }
    </style>
  </defs>
  <g id="_圖層_1-2" data-name="圖層 1">
    <g>
      <g>
        <path class="cls-1" d="M15.96,15.19s1.4,1.05,2.25,1.8c-.06,.21-.25,.31-.54,.31H.33l-.17-.56h7.95v-5.76H2.56l-.16-.56h5.7V5.49h-3.84c-1.14,1.92-2.5,3.47-4.01,4.64L0,9.95C1.57,7.78,3.14,4.34,3.92,.85l2.73,.83c-.08,.23-.31,.41-.76,.39-.39,1.01-.83,1.96-1.32,2.85h3.53V.25l2.7,.27c-.04,.29-.19,.48-.7,.56v3.84h3.63l1.18-1.45s1.32,.95,2.19,1.71c-.06,.21-.25,.31-.54,.31h-6.46v4.93h2.97l1.2-1.47s1.36,1.01,2.19,1.73c-.04,.21-.25,.31-.52,.31h-5.84v5.76h4.62l1.24-1.55Z"/>
        <path class="cls-1" d="M24.26,4.75c4.77,.33,3.61,3.8,1.84,2.75-.29-.93-1.2-2-2-2.6l.16-.16Zm5.93-.62c-.83,2.31-2.37,6.59-2.62,7.54-.17,.62-.33,1.24-.33,1.75,.04,.95,.7,1.71,.64,3.34-.04,.93-.56,1.49-1.42,1.49-.41,0-.78-.33-.87-.97,.31-2.02,.21-3.67-.23-3.96-.27-.19-.56-.27-.97-.31v-.39h.87c.27,0,.35,0,.56-.37q.43-.72,4.03-8.18l.33,.06ZM25.69,.5c4.93,.41,3.82,3.96,2,2.95-.33-.99-1.34-2.13-2.15-2.79l.16-.16Zm14.66,4.44s1.26,1.03,2,1.73c-.04,.21-.25,.29-.52,.29h-5.18v3.8h2.08l.93-1.01,1.92,1.47c-.12,.16-.39,.33-.8,.41v5.88c-.02,.14-.91,.54-1.53,.54h-.31v-1.53h-6.44v1.05c0,.17-.78,.56-1.55,.56h-.27V9.95l1.94,.81h2.15v-3.8h-5.08l-.16-.54h5.24V3.03c-1.61,.19-3.28,.33-4.85,.39l-.06-.33c3.34-.58,7.54-1.76,9.68-2.72l1.94,1.82c-.19,.17-.6,.19-1.16-.02-1.03,.21-2.29,.43-3.66,.62v3.63h2.6l1.11-1.47Zm-7.85,6.38v4.64h6.44v-4.64h-6.44Z"/>
        <path class="cls-1" d="M56.04,8.82c-.7,.45-1.55,.97-2.62,1.59v7.1c0,.23-.76,.66-1.4,.66h-.35v-6.77c-.54,.31-1.11,.62-1.71,.93-.08,.25-.25,.45-.45,.52l-1.18-2.09c.68-.16,1.9-.48,3.34-.89V5.62h-1.43c-.41,1.55-.95,2.97-1.67,4.07l-.31-.16c.52-2.04,.85-4.87,.93-7.41l2.31,.37c-.06,.25-.25,.45-.7,.48-.12,.7-.27,1.4-.43,2.08h1.3V.23l2.44,.25c-.04,.27-.19,.47-.7,.54V5.06h.21l.93-1.38s1.07,.95,1.65,1.63c-.04,.21-.23,.31-.5,.31h-2.29v3.72c.83-.25,1.67-.48,2.54-.76l.08,.23Zm8.71,.14s1.14,.91,1.84,1.57c-.06,.21-.25,.31-.52,.31h-3.05v5.2c0,1.28-.35,2.02-2.71,2.21-.08-.52-.19-.91-.52-1.18-.39-.25-.91-.45-2-.6v-.25s2.48,.15,2.97,.15c.37,0,.47-.12,.47-.41v-5.12h-6.48l-.16-.56h6.63v-2.21l2.48,.23c-.06,.29-.23,.45-.68,.5v1.47h.74l.99-1.32Zm-9.75-5.43h4.25V.14l2.42,.23c-.02,.25-.17,.43-.64,.5V3.53h2.25l1.05-1.34s1.18,.91,1.92,1.59c-.06,.21-.25,.31-.54,.31h-4.67v2.99h1.88l1.03-1.3s1.12,.91,1.84,1.55c-.04,.21-.23,.31-.52,.31h-9.39l-.16-.56h3.53v-2.99h-4.07l-.17-.56Zm1.16,7.82c4.89,1.4,3.49,4.73,1.8,3.55-.29-1.14-1.24-2.54-2-3.43l.19-.12Z"/>
        <path class="cls-1" d="M88.7,15.79c.89,.15,1.12,.41,1.12,.74,0,.93-1.22,1.09-7.68,1.09h-4.5c-2.99,0-4.17-.35-4.17-2.35V2.06h-.74l-.16-.56h13.83l1.07-1.34s1.16,.93,1.9,1.59c-.06,.21-.25,.31-.52,.31h-13.69V15.05c0,.85,.45,1.14,2.29,1.14h4.85c1.9,0,3.53-.04,4.13-.08,.39-.02,.74-.08,1.01-.12,.23-.02,.58-.12,.93-.25h.23l.1,.04Zm-8.57-.68v-.93h-2.13v.83c0,.14-.68,.48-1.32,.48h-.23v-6.44l1.63,.68h1.88l.78-.8,1.59,1.22c-.1,.12-.33,.27-.64,.31v4.19c-.02,.14-.78,.45-1.3,.45h-.25Zm0-1.49v-3.32h-2.13v3.32h2.13Zm4.5-5.95h-4.46v.58c0,.16-.78,.52-1.49,.52h-.25V2.93l1.84,.76h4.17l.87-.93,1.8,1.38c-.12,.14-.37,.29-.72,.37v3.51c-.02,.14-.91,.48-1.47,.48h-.29v-.83Zm0-.56v-2.85h-4.46v2.85h4.46Zm2.06,7.93v-.85h-2.19v.56c0,.16-.7,.47-1.32,.47h-.23v-6.15l1.65,.68h1.92l.78-.83,1.67,1.28c-.1,.12-.37,.27-.68,.33v4.07c-.02,.12-.81,.45-1.34,.45h-.25Zm0-1.42v-3.32h-2.19v3.32h2.19Z"/>
        <path class="cls-1" d="M112.08,1.09s1.36,.99,2.19,1.71c-.06,.21-.25,.31-.54,.31h-17.01l-.16-.56h8.38c-.23-.87-1.07-1.82-1.8-2.37l.16-.14c3.39,.06,3.74,1.84,2.99,2.5h4.58l1.22-1.45Zm-.02,7.52l1.98,1.49c-.12,.14-.41,.31-.81,.39v5.53c0,1.24-.29,1.98-2.48,2.17-.06-.56-.14-.95-.41-1.22-.25-.27-.68-.48-1.55-.6v-.27s1.75,.12,2.19,.12c.33,0,.41-.14,.41-.39v-5.66h-11.79v7.41c0,.16-.79,.58-1.53,.58h-.29V8.8l1.98,.8h11.44l.87-.99Zm-3.68,.23v-.83h-5.9v.45c0,.15-.82,.56-1.55,.56h-.25V3.84l1.92,.78h5.59l.89-.97,1.96,1.45c-.14,.15-.43,.33-.81,.41v2.89c-.02,.12-.95,.45-1.53,.45h-.31Zm.56,6.69c-.02,.14-.87,.5-1.44,.5h-.29v-.95h-3.67v.7c0,.15-.78,.52-1.45,.52h-.25v-5.37l1.78,.74h3.41l.83-.85,1.78,1.3c-.12,.16-.37,.31-.72,.39v3.03Zm-.56-8.09v-2.27h-5.9v2.27h5.9Zm-1.16,7.08v-2.29h-3.67v2.29h3.67Z"/>
        <path class="cls-1" d="M122.12,12.74c.64,1.94,.45,3.43-.08,4.15-.37,.48-1.24,.58-1.55,.04-.25-.47-.04-1.01,.41-1.34,.49-.5,1.01-1.78,.89-2.85h.33Zm-1.65-2.46s.43-.08,.58-.21c.85-.74,1.88-2.08,2.73-3.43-.58,.21-1.26,.47-1.96,.68-.14,.19-.29,.33-.45,.41l-.83-2.02s.37-.1,.52-.21c.95-1.05,2.15-3.82,2.54-5.29l2.23,1.11c-.08,.17-.29,.33-.68,.29-.78,1.26-2.13,3.03-3.35,4.19,.7,.02,1.59,.02,2.48,0,.41-.72,.76-1.4,.97-1.94l2.02,1.36c-.1,.16-.37,.27-.72,.19-1.01,1.47-2.91,3.53-4.65,4.93,.97-.04,2.27-.14,3.66-.23-.15-.74-.39-1.45-.66-2.02l.23-.1c3.51,2.21,1.79,4.93,.54,3.57,.02-.29,0-.6-.04-.91-1.07,.37-2.5,.85-4.01,1.3-.14,.19-.29,.31-.47,.37l-.7-2.02Zm2.99,2.17c2.62,2.48,.91,4.96-.14,3.63,.21-1.14,.1-2.58-.14-3.57l.27-.06Zm7.82,.04c-.58,.66-1.45,1.71-2.71,2.99-.02,.25-.14,.48-.33,.56l-1.22-1.75c.21,1.09-.62,1.75-1.32,1.03,.06-1.05-.35-2.35-.78-3.18l.23-.1c1.12,.72,1.67,1.47,1.82,2.13,.78-.29,2.52-1.09,4.21-1.9l.1,.21Zm5.43-6.63s1.11,.93,1.76,1.61c-.06,.21-.25,.31-.52,.31h-4.64V15.92c0,1.18-.25,1.94-2.21,2.11-.02-.48-.1-.87-.33-1.09-.23-.25-.6-.43-1.38-.54v-.29s1.53,.12,1.88,.12c.31,0,.39-.1,.39-.33V7.78h-4.32l-.16-.56h5.74l.5-1.53h-3.55l-.78,.78-1.69-1.26c.21-.15,.54-.31,.85-.43,.62-1.34,1.43-3.49,1.75-4.54l2.33,.43c-.06,.25-.25,.45-.8,.45-.1,.31-.23,.66-.39,1.05h3.26l.8-.85,1.65,1.42c-.14,.16-.33,.21-.7,.23l-1.42,4.27h.99l.97-1.36Zm-8.51,2.79c4.01,1.2,2.5,4.03,1.11,2.87-.1-.93-.74-2.08-1.32-2.75l.21-.12Zm5.43-3.53l.8-2.4h-3.47c-.33,.83-.7,1.71-.99,2.4h3.66Zm4.38,4.52c-.1,.16-.29,.21-.68,.12-.74,.52-2.23,1.4-3.18,1.94l-.17-.19c.66-.89,1.59-2.4,2.09-3.26l1.94,1.4Zm-3.84,2.81c5.24,.74,4.31,4.64,2.58,3.49-.56-1.01-1.45-2.42-2.71-3.3l.14-.19Z"/>
        <path class="cls-1" d="M156.45,1.82v1.26h2.4l.83-.87,1.82,1.34c-.12,.14-.39,.29-.74,.35v2.08c-.02,.08-.35,.23-.74,.33,.35,.25,.93,.72,1.36,1.12-.06,.21-.23,.31-.5,.31h-7.82c-.16,.23-.33,.48-.52,.7l.68,.29h4.96l.83-.85,1.75,1.3c-.12,.12-.37,.27-.68,.33v2.83c-.02,.12-.58,.39-1.09,.48l1.55,1.4c-.16,.17-.37,.21-.85,.23-.6,.64-1.32,1.16-2.15,1.61,1.49,.23,3.08,.35,4.65,.39v.23c-.66,.19-1.07,.74-1.2,1.51-2.02-.23-3.9-.6-5.53-1.2-1.86,.66-4.03,1.05-6.38,1.18l-.1-.29c1.88-.31,3.65-.78,5.2-1.44-.72-.33-1.38-.74-1.96-1.2-.68,.41-1.43,.78-2.25,1.03l-.17-.23c.62-.39,1.22-.85,1.76-1.36-.35-.35-.66-.72-.95-1.11l.25-.21c.31,.33,.68,.62,1.11,.89,.52-.62,.97-1.24,1.26-1.78l2.23,.52c-.08,.19-.31,.29-.83,.31-.12,.12-.21,.25-.33,.37h3.59l1.01-.83c-.1,.02-.17,.02-.25,.02h-.29v-.48h-5.24v.04c0,.15-.78,.52-1.46,.52h-.25v-3.12c-.46,.47-.97,.89-1.47,1.22l-.23-.14c.25-.33,.5-.7,.74-1.12-.12,.04-.27,.04-.5,0-.33,.43-.74,.87-1.2,1.32l.68,.25c-.06,.17-.25,.31-.6,.37v5.97c-.02,.12-.76,.47-1.42,.47h-.33v-5.64c-.72,.52-1.49,1.01-2.31,1.42l-.19-.23c1.67-1.42,3.26-3.65,4-5.28l2.02,1.09c.62-1.14,1.11-2.5,1.38-3.63l2.42,.5c-.06,.19-.21,.29-.68,.27-.08,.17-.17,.35-.29,.52h5.41l.64-.76h-.45v-.62h-10.41l2,1.11c-.12,.19-.29,.27-.72,.19-1.09,1.12-2.93,2.4-4.89,3.14l-.17-.23c1.53-1.11,3.01-2.89,3.72-4.21h-.66v.33c0,.16-.79,.5-1.47,.5h-.25V2.33l1.88,.76h2.31V1.82h-5.62l-.17-.56h14.8l1.07-1.26s1.16,.85,1.92,1.51c-.06,.21-.25,.31-.52,.31h-5.37Zm-8.55,3.41h2.46v-1.59h-2.46v1.59Zm6.85-3.41h-2.7v1.26h2.7V1.82Zm-2.7,3.41h2.7v-1.59h-2.7v1.59Zm1.65,9c-.23,.19-.49,.37-.74,.56,.81,.39,1.75,.68,2.75,.91,.78-.41,1.42-.91,1.96-1.47h-3.98Zm-.56-4.95v.97h5.24v-.97h-5.24Zm5.24,2.52v-.99h-5.24v.99h5.24Zm-1.92-8.16v1.59h2.58v-1.59h-2.58Z"/>
        <path class="cls-1" d="M178.26,6.54c.68,3.63,2.85,7.35,8.44,9.72l-.04,.21c-.97,.17-1.57,.7-1.78,1.75-4.89-2.83-6.4-7.54-6.94-11.4-.56,4.6-2.42,8.57-9.29,11.4l-.21-.31c5.53-3.16,7.12-6.98,7.56-11.37h-7.2l-.17-.56h7.41c.16-1.82,.14-3.74,.14-5.74l2.75,.27c-.06,.29-.23,.48-.7,.56-.04,1.69-.06,3.34-.19,4.91h4.91l1.26-1.59s1.44,1.09,2.29,1.84c-.06,.21-.27,.31-.54,.31h-7.68Z"/>
        <path class="cls-1" d="M199.07,11.17c-1.07,.89-2.68,2.13-4.93,3.68-.06,.25-.21,.45-.41,.54l-1.24-2.09c.49-.14,1.24-.41,2.17-.74V5.64h-2l-.16-.56h2.15V.37l2.48,.23c-.06,.27-.21,.47-.72,.54v3.94h.41l.85-1.32s.97,.91,1.49,1.57c-.04,.21-.23,.31-.49,.31h-2.27v6.28c.81-.29,1.69-.62,2.56-.93l.08,.17Zm10.94,4.75c.45,.19,.54,.39,.54,.7,0,.64-.58,.95-2.87,.95h-1.34c-1.44,0-1.67-.35-1.67-1.44v-3.68h-1.05c-.35,2.27-1.36,4.34-6.94,5.7l-.21-.29c4.46-1.59,5.04-3.47,5.2-5.41h-.54v.39c0,.17-.78,.56-1.51,.56h-.25V7.04l1.88,.8h5.66l.83-.91,1.78,1.36c-.12,.14-.39,.29-.74,.35v4.11c-.02,.12-.85,.45-1.4,.45h-.29v-.74h-.72v3.34c0,.23,.06,.29,.45,.29h1.01c.39,0,.74,0,.91-.02,.17,0,.23-.04,.33-.19,.16-.27,.37-1.11,.64-2.04h.23l.06,2.09Zm-11.79-9.89h6.73c.37-.91,.74-2.11,.97-3.01l2.35,.89c-.08,.21-.33,.35-.72,.29-.52,.5-1.24,1.22-1.98,1.82h2.25l.97-1.26s1.11,.87,1.8,1.51c-.06,.21-.23,.31-.52,.31h-11.69l-.16-.56Zm.52-3.63h4.98c-.08-.04-.17-.1-.27-.17-.04-.72-.49-1.61-.89-2.11l.17-.12c2.85,.37,2.79,1.96,1.96,2.4h2.64l.99-1.32s1.14,.91,1.82,1.55c-.06,.21-.25,.31-.52,.31h-10.72l-.16-.54Zm1.78,.8c4.13,.68,2.48,3.65,.95,2.44-.06-.81-.6-1.76-1.12-2.33l.17-.12Zm.6,5.18v1.47h5.97v-1.47h-5.97Zm0,3.51h5.97v-1.47h-5.97v1.47Z"/>
        <path class="cls-1" d="M219.12,11.19c1.14-.66,1.67-1.49,1.92-2.5-1.01-.45-1.65-.93-1.65-1.76,0-.7,.49-1.3,1.34-1.3s1.47,.64,1.47,1.84c0,1.47-.7,3.36-2.75,4.34l-.33-.62Z"/>
        <path class="cls-1" d="M230.81,17.12c1.9-.85,4-2.4,5.41-4.34l2.15,1.4c-.12,.19-.35,.25-.74,.17-1.76,1.69-4.52,2.7-6.71,3.03l-.12-.25Zm16-6.96s1.28,.99,2.09,1.69c-.06,.21-.25,.31-.54,.31h-7.45v5.51c0,.17-.83,.52-1.59,.52h-.33v-6.03h-7.89l-.16-.56h8.05v-1.78l2.66,.25c-.04,.27-.19,.47-.74,.54v.99h4.75l1.14-1.44Zm-15.79-1.59s.35-.08,.5-.17c.78-.7,1.69-1.94,2.46-3.18-.54,.21-1.16,.48-1.76,.72-.12,.15-.23,.27-.37,.33l-.79-1.71s.31-.08,.43-.17c.83-.8,1.8-3.03,2.13-4.17l2.15,.97c-.1,.17-.29,.33-.7,.29-.66,.95-1.73,2.17-2.71,3.06,.6-.02,1.32-.06,2.09-.12,.39-.68,.7-1.28,.89-1.78l1.8,1.03V1.76l1.59,.68h.17c.08-.64,.16-1.59,.21-2.25l2.33,.33c-.06,.29-.29,.47-.7,.5-.31,.39-.8,.97-1.16,1.42h1.36l.78-.83,1.67,1.28c-.12,.14-.37,.27-.72,.35v6.09c-.02,.14-.78,.48-1.3,.48h-.25v-.78h-2.48v.52c0,.16-.64,.52-1.26,.52h-.23V3.94c-.14,.08-.33,.12-.58,.08-.91,1.36-2.62,3.22-4.15,4.5,.83-.08,1.92-.19,3.06-.29-.12-.66-.31-1.32-.52-1.82l.25-.08c2.97,2.09,1.43,4.54,.35,3.32,.02-.31,.02-.64-.02-.97-.87,.35-2.09,.83-3.35,1.24-.1,.17-.23,.31-.37,.37l-.79-1.71Zm7.62-5.57v2.4h2.48V3.01h-2.48Zm2.48,5.47v-2.5h-2.48v2.5h2.48Zm1.05,5.2c6.75-.5,7.2,4.17,4.87,3.49-1.09-1.14-2.85-2.52-4.95-3.26l.08-.23Zm.56-9.11s.31-.08,.45-.17c.79-.81,1.8-3.03,2.11-4.17l2.17,.97c-.1,.17-.31,.33-.7,.29-.66,.95-1.75,2.19-2.75,3.08,.58-.02,1.34-.06,2.11-.12,.37-.68,.66-1.3,.85-1.8l2,1.12c-.1,.17-.33,.33-.74,.25-.89,1.34-2.5,3.18-4.01,4.46,.82-.08,1.9-.17,3.01-.29-.12-.66-.31-1.3-.5-1.78l.27-.1c3.03,2.13,1.46,4.54,.37,3.3,.02-.31,0-.66-.04-.99-.85,.33-2.09,.81-3.38,1.26-.12,.19-.25,.33-.41,.41l-.76-1.71s.35-.08,.5-.17c.76-.7,1.65-1.94,2.39-3.16-.54,.23-1.18,.48-1.8,.72-.1,.16-.23,.27-.35,.33l-.8-1.73Z"/>
        <path class="cls-1" d="M255.01,4.75c4.77,.33,3.61,3.8,1.84,2.75-.29-.93-1.2-2-2-2.6l.16-.16Zm5.93-.62c-.83,2.31-2.37,6.59-2.62,7.54-.17,.62-.33,1.24-.33,1.75,.04,.95,.7,1.71,.64,3.34-.04,.93-.56,1.49-1.41,1.49-.41,0-.78-.33-.87-.97,.31-2.02,.21-3.67-.23-3.96-.27-.19-.56-.27-.97-.31v-.39h.87c.27,0,.35,0,.56-.37q.43-.72,4.03-8.18l.33,.06Zm-4.5-3.63c4.93,.41,3.82,3.96,2,2.95-.33-.99-1.34-2.13-2.15-2.79l.16-.16Zm14.66,4.44s1.26,1.03,2,1.73c-.04,.21-.25,.29-.52,.29h-5.18v3.8h2.08l.93-1.01,1.92,1.47c-.12,.16-.39,.33-.79,.41v5.88c-.02,.14-.91,.54-1.53,.54h-.31v-1.53h-6.44v1.05c0,.17-.78,.56-1.55,.56h-.27V9.95l1.94,.81h2.15v-3.8h-5.08l-.16-.54h5.24V3.03c-1.61,.19-3.28,.33-4.85,.39l-.06-.33c3.34-.58,7.54-1.76,9.68-2.72l1.94,1.82c-.19,.17-.6,.19-1.16-.02-1.03,.21-2.29,.43-3.66,.62v3.63h2.6l1.11-1.47Zm-7.85,6.38v4.64h6.44v-4.64h-6.44Z"/>
        <path class="cls-1" d="M284.33,11.73c4.36,.81,2.99,3.7,1.47,2.64-.19-.76-.85-1.69-1.47-2.29v5.55c0,.17-.76,.52-1.38,.52h-.33v-4.5c-.95,1.28-2.13,2.37-3.59,3.28l-.21-.29c1.53-1.44,2.64-3.43,3.3-5.47h-2.6l-.16-.56h3.26v-2.72l2.38,.23c-.04,.27-.21,.45-.68,.52v1.96h.89l.89-1.22s1.05,.85,1.67,1.47c-.06,.21-.25,.31-.5,.31h-2.95v.56Zm-4.75-3.69c2.54-1.2,4.67-3.01,6.01-4.95h-5.29l-.16-.56h6.83V.15l2.6,.25c-.06,.27-.21,.47-.72,.54v1.59h4.15l1.07-1.38s1.22,.95,1.96,1.63c-.04,.21-.25,.31-.52,.31h-6.65v.58c6.9,.83,6.83,4.4,4.85,3.9-1.01-1.11-3.12-2.54-4.85-3.43v4.13c0,.16-.83,.47-1.53,.47h-.35V4.19c-1.75,1.82-4.27,3.22-7.23,4.15l-.16-.29Zm13.38,3.12c.97,1.82,2.66,3.3,4.32,4.01l-.04,.17c-.66,.16-1.14,.7-1.38,1.59-1.47-1.2-2.56-3.03-3.24-5.41v6.13c0,.17-.78,.48-1.42,.48h-.35v-5c-1.14,1.59-2.71,2.87-4.65,3.9l-.19-.27c1.9-1.45,3.28-3.47,4.09-5.6h-2.17l-.14-.56h3.06v-2.68l2.42,.25c-.04,.25-.19,.45-.66,.5v1.92h1.36l.99-1.36s1.14,.93,1.8,1.61c-.02,.21-.21,.31-.48,.31h-3.34Z"/>
        <path class="cls-1" d="M319.48,8.82s1.2,.93,1.96,1.61c-.06,.21-.25,.31-.52,.31h-5.1v5.04c0,1.3-.33,2.23-2.68,2.4-.04-.56-.19-1.01-.52-1.28-.37-.29-.87-.5-1.98-.64v-.29s2.39,.17,2.91,.17c.37,0,.48-.15,.48-.43v-4.98h-5.04v2.58c-.04,.14-.85,.52-1.46,.52h-.27v-1.73h-1.88v2.17c0,.19-.66,.6-1.4,.6h-.25V2.02l1.73,.78h1.61l.87-.97,1.59,1.24-.04-.19c3.12-.52,6.96-1.67,8.9-2.6l1.92,1.84c-.17,.17-.6,.17-1.14-.04-.93,.21-2.09,.41-3.36,.58v7.52h2.58l1.09-1.36Zm-12.22,2.73V3.35h-1.88V11.56h1.88Zm6.77-1.38V2.89c-1.43,.14-2.93,.25-4.34,.29l.1,.08c-.14,.16-.43,.33-.79,.41v6.52h5.04Zm-3.78-5.88c4.25,2.73,2.37,6.24,.85,4.65,.06-1.49-.52-3.28-1.11-4.56l.25-.1Zm6.46,4.98c.48-1.34,1.05-3.47,1.44-5.33l2.54,.83c-.1,.23-.33,.41-.74,.39-.83,1.55-1.92,3.16-2.97,4.27l-.27-.16Z"/>
        <path class="cls-1" d="M329.41,11.67v2.39c0,.19-.62,.6-1.38,.6h-.23V1.55l1.71,.78h1.79l.85-.95,1.8,1.4c-.14,.17-.43,.33-.79,.41V12.82c-.02,.16-.8,.6-1.4,.6h-.27v-1.75h-2.08Zm0-8.79V11.11h2.08V2.89h-2.08Zm15.5,4.83c-.14,.19-.33,.25-.78,.29-.7,2.19-1.71,4.17-3.2,5.82,1.32,1.16,2.91,2.04,4.67,2.64l-.04,.21c-.8,.12-1.42,.64-1.75,1.49-1.61-.85-2.95-1.9-4.03-3.26-1.63,1.42-3.74,2.52-6.5,3.26l-.16-.27c2.5-.97,4.46-2.33,5.93-4.01-1.01-1.61-1.73-3.63-2.17-6.17h-.08c-.52,4-1.96,7.56-6.22,10.36l-.25-.29c4.95-4.4,4.98-9.93,5.02-15.65h-1.94l-.16-.56h7.04l.78-.87,1.76,1.4c-.16,.16-.33,.21-.7,.25l-.64,4.81h.66l1.05-.99,1.69,1.55Zm-7.78-5.59c-.04,1.73-.08,3.41-.25,5.02h2.79l.74-5.02h-3.28Zm.17,5.59c.52,2.08,1.44,3.76,2.62,5.12,1.09-1.51,1.86-3.24,2.35-5.12h-4.96Z"/>
        <path class="cls-1" d="M352.56,9.17c0-1.51,1.24-2.73,2.75-2.73s2.73,1.22,2.73,2.73-1.22,2.75-2.73,2.75-2.75-1.24-2.75-2.75Zm.7,0c0,1.12,.91,2.06,2.06,2.06s2.04-.93,2.04-2.06-.91-2.04-2.04-2.04-2.06,.91-2.06,2.04Z"/>
      </g>
      <g>
        <path class="cls-1" d="M6.98,44.59c-.14,.19-.31,.23-.72,.27-.47,1.38-1.38,2.89-2.66,4.05,.1,.04,.17,.1,.27,.17,1.61,1.45,3.86,1.73,7.85,1.73,2.25,0,4.13-.02,6.42-.14v.25c-.76,.16-1.18,.78-1.3,1.51h-5.72c-4.03,0-5.8-.7-7.5-2.73-.23-.31-.45-.27-.62,.04-.37,.58-1.05,1.67-1.53,2.58,.06,.16,0,.29-.14,.39L0,50.89c.89-.56,2.25-1.63,2.89-1.96,.72-1.18,1.26-2.81,1.51-4.21h-1.63l-.62,.56-1.49-1.18c.16-.12,.47-.25,.74-.33,.68-.89,1.55-2.25,2.11-3.24H.41l-.17-.56H3.57l.87-.87,1.76,1.57c-.19,.19-.6,.29-1.07,.31-.56,.87-1.45,2.21-2.11,3.18h1.26l.99-.97,1.71,1.4ZM1.09,35.2c4.95,.62,3.61,4.21,1.78,3.08-.25-1.03-1.16-2.25-1.96-2.95l.17-.14Zm4.93,14.35c1.55-2.54,1.65-5.68,1.65-8.48v-4.62l1.78,.56c1.86-.6,3.96-1.49,5.08-2.11l1.92,1.8c-.21,.17-.62,.17-1.14-.02-1.47,.33-3.74,.66-5.84,.83v3.61h4.83l1.09-1.42s1.26,.97,2.04,1.67c-.06,.21-.27,.31-.54,.31h-3.06v8.11c0,.1-.58,.47-1.51,.47h-.31v-8.57h-2.52c-.04,2.58-.43,5.88-3.22,8.09l-.23-.23Z"/>
        <path class="cls-1" d="M32.21,49.38c-1.63,.72-3.98,1.73-7.2,2.97-.1,.23-.27,.39-.48,.45l-.78-2.11c.31-.04,.7-.1,1.18-.19v-7.02l1.96,.19c-.02,.21-.17,.37-.52,.41v6.19l1.24-.23v-8.53h-1.01v.64c0,.12-.52,.5-1.38,.5h-.27v-7.04l1.9,.74h2.6l.83-.87,1.78,1.34c-.12,.14-.41,.29-.78,.37v4.75c-.02,.12-.85,.43-1.38,.43h-.27v-.85h-.37v3.63h.58l.85-1.24s1.01,.87,1.57,1.49c-.04,.21-.23,.31-.5,.31h-2.5v4.01c.93-.17,1.9-.37,2.87-.58l.06,.27Zm-5.6-8.46h3.04v-4.03h-3.04v4.03Zm13.85,9.21s1.24,.97,2,1.67c-.06,.21-.25,.31-.52,.31h-10.38l-.16-.56h1.53v-14.51h-.76l-.16-.56h7.1l1.07-1.34s1.18,.93,1.92,1.59c-.04,.21-.25,.31-.52,.31h-6.87v3.88h4.01l.89-.97,1.9,1.45c-.14,.16-.39,.31-.8,.39v5.47c-.02,.15-.89,.54-1.51,.54h-.29v-1.14h-4.21v4.89h4.63l1.11-1.42Zm-5.74-8.65v4.62h4.21v-4.62h-4.21Z"/>
        <path class="cls-1" d="M57.88,41.31c.68,3.63,2.85,7.35,8.44,9.72l-.04,.21c-.97,.17-1.57,.7-1.78,1.75-4.89-2.83-6.4-7.54-6.94-11.4-.56,4.6-2.42,8.57-9.29,11.4l-.21-.31c5.53-3.16,7.12-6.98,7.56-11.36h-7.2l-.17-.56h7.41c.16-1.82,.14-3.74,.14-5.74l2.75,.27c-.06,.29-.23,.48-.7,.56-.04,1.69-.06,3.34-.19,4.91h4.91l1.26-1.59s1.44,1.09,2.29,1.84c-.06,.21-.27,.31-.54,.31h-7.68Z"/>
        <path class="cls-1" d="M89.84,36.7c-.14,.17-.43,.31-.81,.41v15.07c-.02,.16-.89,.62-1.57,.62h-.27v-1.34h-12.12v.8c0,.23-.7,.7-1.49,.7h-.31v-17.61l1.98,.87h11.75l.95-1.07,1.9,1.55Zm-2.66,14.2v-14.12h-12.12v14.12h3.32l-.91-1.28c.56-.39,.66-.54,.66-.81v-1.18c-.85,.37-1.77,.7-2.74,.95l-.17-.33c1.67-.68,3.16-1.61,4.23-2.68h-1.01v.21c0,.14-.72,.47-1.32,.47h-.23v-4.29l1.65,.68h5.08l.76-.76,1.57,1.16c-.1,.12-.31,.25-.6,.29v2.19s-.02,.04-.04,.06l1.2,1.09c-.12,.12-.29,.15-.64,.04-.43,.19-1.09,.48-1.69,.74,3.12,1.59,2.27,3.37,1.11,2.75-.64-.89-2.33-2.41-4.42-3.55l.14-.29c1.03,.25,1.88,.52,2.56,.81,.45-.43,.91-.93,1.26-1.36-.25,.08-.54,.15-.78,.15h-.27v-.41h-2.42c-.46,.48-1.05,.91-1.71,1.28v2.11c.81-.21,1.71-.48,2.64-.78l.08,.27c-.72,.43-2.17,1.32-3.66,2.15-.08,.14-.17,.23-.27,.29h8.77Zm-1.98-11.09s1.05,.76,1.69,1.34c-.06,.21-.25,.31-.52,.31h-10.74l-.16-.56h4.79v-1.4h-3.68l-.16-.56h3.84v-1.71l2.21,.21c-.02,.23-.16,.39-.54,.45v1.05h1.67l.87-1.07s.97,.76,1.59,1.32c-.04,.21-.23,.31-.5,.31h-3.63v1.4h2.41l.87-1.09Zm-1.43,3.39h-5.33v1.8h5.33v-1.8Z"/>
        <path class="cls-1" d="M112.59,50.56c.89,.16,1.12,.41,1.12,.74,0,.93-1.22,1.09-7.68,1.09h-4.5c-2.99,0-4.17-.35-4.17-2.35v-13.21h-.74l-.16-.56h13.83l1.07-1.34s1.16,.93,1.9,1.59c-.06,.21-.25,.31-.52,.31h-13.69v12.99c0,.85,.45,1.14,2.29,1.14h4.85c1.9,0,3.53-.04,4.13-.08,.39-.02,.74-.08,1.01-.12,.23-.02,.58-.12,.93-.25h.23l.1,.04Zm-8.57-.68v-.93h-2.13v.83c0,.14-.68,.48-1.32,.48h-.23v-6.44l1.63,.68h1.88l.78-.8,1.59,1.22c-.1,.12-.33,.27-.64,.31v4.19c-.02,.14-.78,.45-1.3,.45h-.25Zm0-1.49v-3.32h-2.13v3.32h2.13Zm4.5-5.95h-4.46v.58c0,.15-.78,.52-1.49,.52h-.25v-5.84l1.84,.76h4.17l.87-.93,1.8,1.38c-.12,.14-.37,.29-.72,.37v3.51c-.02,.14-.91,.48-1.47,.48h-.29v-.83Zm0-.56v-2.85h-4.46v2.85h4.46Zm2.06,7.93v-.85h-2.19v.56c0,.16-.7,.47-1.32,.47h-.23v-6.15l1.65,.68h1.92l.78-.83,1.67,1.28c-.1,.12-.37,.27-.68,.33v4.07c-.02,.12-.81,.45-1.34,.45h-.25Zm0-1.42v-3.32h-2.19v3.32h2.19Z"/>
        <path class="cls-1" d="M133.12,46.22c4.52,1.05,3.53,4.01,1.98,3.08-.14-.39-.37-.79-.66-1.22-1.11,.17-2.48,.39-4.01,.6v2.35c0,1.18-.29,1.8-2.33,1.98-.04-.43-.12-.8-.35-1.03-.21-.21-.58-.39-1.38-.5v-.25s1.53,.1,1.88,.1c.31,0,.37-.12,.37-.31v-2.09c-1.53,.21-3.26,.43-5.04,.64-.12,.19-.25,.31-.39,.37l-.87-1.78s.47-.04,.7-.1c1.34-.31,2.85-.83,4.31-1.44-.85,.12-1.82,.25-2.79,.39-.08,.16-.19,.27-.31,.33l-.76-1.47s.31-.06,.46-.1c.89-.23,1.9-.74,2.79-1.28-.39,.14-.83,.14-1.3,.14,0-.31-.06-.47-.23-.62-.16-.17-.54-.27-.97-.35v-.33c.47,.04,1.14,.1,1.47,.1,.27,0,.41-.04,.54-.17,.06-.04,.12-.12,.16-.21h-3.34l-.66,.74-1.55-1.12c.19-.14,.5-.29,.78-.41,.12-.41,.23-.89,.33-1.42h-1.36l-.14-.56h1.59c.17-.87,.35-1.78,.45-2.48-.6,.52-1.24,.99-1.86,1.34l-.21-.19c.89-.97,1.84-2.68,2.33-4l2.35,.54c-.06,.19-.19,.27-.7,.25-.23,.31-.49,.62-.78,.93h4.15l.89-1.11s1.03,.78,1.65,1.36c-.06,.21-.25,.31-.5,.31h-6.71l-.33,.31,1.55,.64h2.6l.74-.78,1.49,1.22c-.14,.15-.39,.23-.76,.29-.02,.5-.06,.93-.08,1.36h.35l.68-1.01s.76,.74,1.2,1.26c-.04,.21-.21,.31-.46,.31h-1.82c-.06,.66-.14,1.2-.23,1.65h.25l.66-.85s.74,.6,1.2,1.11c-.04,.21-.23,.31-.48,.31h-1.78c-.16,.52-.35,.87-.56,1.09,.46-.29,.85-.58,1.12-.8l1.3,1.45c-.12,.12-.45,.17-.81-.06-.85,.39-2.15,.87-3.43,1.26,.99-.02,2.25-.06,3.55-.1,1.55-.72,2.93-1.45,3.76-2.02l1.69,1.38c-.12,.15-.45,.27-.89,.08-1.9,.89-5.43,2.08-8.67,2.89,2.33-.1,5.68-.29,9.25-.5-.39-.5-.83-.99-1.22-1.32l.17-.16Zm-5.76,4.11c-.12,.19-.25,.29-.68,.21-1.16,.85-3.47,1.82-5.41,2.23l-.19-.23c1.57-.8,3.39-2.13,4.27-3.14l2.02,.93Zm-.76-7.87c.12-.41,.21-.93,.31-1.65h-3.51c-.12,.58-.25,1.14-.37,1.65h3.57Zm-2.77-3.76c-.08,.47-.19,.99-.31,1.55h3.45c.04-.47,.08-.97,.12-1.55h-3.26Zm.1,2.29c.79-.1,1.51,0,1.94,.39,.5,.52-.16,1.44-.83,.8-.21-.33-.68-.78-1.18-.93l.08-.25Zm.27-2.04c.76-.12,1.47-.08,1.9,.29,.54,.48-.04,1.42-.78,.83-.23-.31-.72-.72-1.18-.87l.06-.25Zm12.35-.87c-.41,1.42-1.11,2.56-2.06,3.53,.97,.58,2.19,.97,3.68,1.24l-.04,.21c-.64,.23-.99,.68-1.11,1.49-1.55-.48-2.7-1.2-3.57-2.09-1.05,.76-2.31,1.34-3.84,1.78l-.1-.25c1.36-.66,2.42-1.42,3.26-2.31-.66-.87-1.11-1.88-1.51-3.03-.35,.41-.74,.74-1.12,1.01l-.27-.16c.66-1.12,1.26-2.85,1.55-4.56l2.27,.64c-.08,.23-.29,.41-.72,.41-.25,.52-.52,1.03-.83,1.51h3.14l.99-1.3s1.11,.89,1.78,1.55c-.06,.21-.25,.31-.52,.31h-.99Zm-4.98,.25c.43,1.01,1.05,1.84,1.86,2.54,.58-.83,.99-1.75,1.2-2.79h-2.87l-.19,.25Zm.5,11.36c6.13,.19,5.39,3.67,3.7,3.01-.54-.74-1.96-1.9-3.8-2.73l.1-.27Z"/>
        <path class="cls-1" d="M147.97,37.71h-3.59l-.16-.56h3.67l-.27-2.13,2.4,.19c-.02,.23-.16,.41-.54,.52l.17,1.42h.97l.97-1.26s1.09,.87,1.71,1.51c-.04,.21-.21,.31-.49,.31h-3.08l.19,1.38c-.25,.33-.91,.5-1.73,.48l-.23-1.86Zm-.25,6.21h-2.93l-.16-.56h3.08v-2.19l2.02,.21c-.04,.23-.17,.41-.6,.45v1.53h.68l.85-1.12s.99,.8,1.57,1.38c-.04,.21-.23,.31-.5,.31h-2.6v1.82c0,.16-.62,.43-1.14,.43h-.27v-2.25Zm12.37,1.57s1.11,.83,1.78,1.45c-.06,.21-.25,.31-.52,.31h-7.23v2.11h4.03l1.09-1.3s1.2,.89,1.98,1.55c-.06,.21-.27,.31-.54,.31h-6.55v2.5c0,.12-.56,.5-1.49,.5h-.31v-3.01h-6.5l-.17-.56h6.67v-2.11h-7.29l-.16-.56h7.45v-6.13h-6.81l-.17-.56h13.25l.95-1.16s1.12,.8,1.82,1.42c-.06,.21-.25,.31-.52,.31h-6.71v6.13h5.02l.95-1.2Zm.52-9.6s1.09,.87,1.73,1.51c-.06,.21-.23,.31-.5,.31h-4.11l-.25,1.53c-.33,.25-1.05,.37-1.78,.21l.27-1.75h-2.06l-.16-.56h2.31l.33-2.15,2.39,.47c-.06,.25-.25,.45-.74,.47l-.21,1.22h1.84l.95-1.26Zm-.16,6.32s1.01,.8,1.59,1.4c-.04,.21-.23,.31-.48,.31h-3.41v1.69c0,.14-.62,.41-1.14,.41h-.27v-2.09h-1.92l-.16-.56h2.08v-2.19l2.02,.21c-.04,.23-.17,.41-.6,.45v1.53h1.42l.89-1.14Z"/>
        <path class="cls-1" d="M183.85,35.82s1.36,1.01,2.17,1.73c-.06,.21-.25,.31-.52,.31h-16.66l-.17-.56h8.65c-.12-.04-.23-.12-.35-.19-.16-.78-.72-1.65-1.2-2.19l.16-.12c3.2,.37,3.06,2.11,2.15,2.5h4.6l1.18-1.47Zm-.64,4l1.96,1.49c-.12,.16-.43,.33-.81,.41v9c0,1.28-.29,2.04-2.5,2.25-.06-.56-.14-.99-.41-1.24-.29-.29-.74-.5-1.63-.64v-.27s1.84,.14,2.29,.14c.35,0,.43-.14,.43-.41v-5.86c-.31,.16-.89,.23-1.9,.21h-.93c-1.11,0-1.26-.31-1.26-1.16v-2.35h-1.94c-.19,1.8-.85,3.36-4.44,4.38v6.54c0,.21-.74,.66-1.51,.66h-.29v-12.97l1.96,.83h2.33c-.17-.04-.37-.12-.56-.27-.12-.85-.66-1.84-1.14-2.46l.19-.12c3.3,.68,2.97,2.64,1.9,2.85h3.82c.31-.87,.66-2.04,.85-2.89l2.6,.6c-.08,.23-.29,.39-.72,.39-.54,.58-1.28,1.32-2.02,1.9h2.87l.87-1.01Zm-11.15,5.49c2.35-1.12,2.64-2.44,2.71-3.92h-2.71v3.92Zm8.61,5.14c-.02,.12-.85,.43-1.4,.43h-.27v-.91h-3.36v.76c0,.16-.74,.5-1.4,.5h-.25v-6.15l1.73,.72h3.12l.79-.81,1.67,1.24c-.1,.12-.35,.27-.64,.31v3.92Zm-1.67-1.05v-3.04h-3.36v3.04h3.36Zm3.3-5.76c.1,.04,.17,.06,.23,.1v-2.35h-2.71v2.06c0,.19,.04,.27,.31,.27h.68c.25,0,.48,0,.62-.02h.27c.1-.02,.25-.04,.35-.06h.25Z"/>
        <path class="cls-1" d="M210.06,36.7c-.14,.17-.43,.31-.81,.41v15.07c-.02,.16-.89,.62-1.57,.62h-.27v-1.34h-12.12v.8c0,.23-.7,.7-1.49,.7h-.31v-17.61l1.98,.87h11.75l.95-1.07,1.9,1.55Zm-2.66,14.2v-14.12h-12.12v14.12h12.12Zm-9.37-6.03c-.74,.62-1.57,1.14-2.56,1.61l-.19-.21c1.3-.85,2.31-1.96,3.08-3.16h-2.7l-.16-.56h3.2c.29-.54,.56-1.07,.78-1.63h-3.18l-.15-.56h3.57c.41-1.12,.68-2.29,.85-3.41l2.33,.48c-.08,.29-.31,.43-.74,.45-.21,.81-.49,1.67-.83,2.48h2.64l.87-.95s.97,.66,1.57,1.2c-.06,.21-.21,.31-.48,.31h-4.83c-.27,.56-.58,1.11-.95,1.63h4.71l.83-.97s.93,.68,1.55,1.22c-.06,.21-.23,.31-.5,.31h-2.83c3.98,1.38,3.41,3.8,2.02,3.16-.58-.97-2.02-2.33-3.1-3.16h-3.08c-.29,.37-.62,.74-.95,1.07l1.01,.43h2.6l.74-.74,1.47,1.16c-.14,.16-.35,.21-.7,.27-.04,1.51-.19,2.15-.72,2.5-.35,.23-.83,.33-1.42,.33,0-.33-.04-.64-.23-.8-.17-.17-.48-.27-.87-.35v-.31c.39,.02,.99,.06,1.28,.06,.21,0,.31-.02,.39-.1,.14-.14,.21-.58,.23-1.47h-3.03v3.28c0,.27,.08,.33,.74,.33h1.84c.78,0,1.44,0,1.69-.02,.21-.02,.31-.06,.41-.19,.16-.23,.37-.91,.6-1.67h.23l.06,1.71c.46,.17,.6,.33,.6,.6,0,.66-.68,.87-3.72,.87h-2.02c-1.63,0-1.94-.31-1.94-1.36v-3.84Zm-1.11-7.47c3.45,.97,2.06,3.34,.81,2.33-.08-.74-.56-1.65-1.03-2.21l.21-.12Zm5.74,2.5c.37-.6,.81-1.59,1.18-2.54l1.88,.81c-.1,.21-.33,.35-.74,.29-.64,.6-1.4,1.24-2.04,1.65l-.29-.21Z"/>
        <path class="cls-1" d="M218.96,45.97c1.14-.66,1.67-1.49,1.92-2.5-1.01-.45-1.65-.93-1.65-1.76,0-.7,.49-1.3,1.34-1.3s1.47,.64,1.47,1.84c0,1.47-.7,3.36-2.75,4.34l-.33-.62Z"/>
        <path class="cls-1" d="M240.62,44.84c-.14,.17-.31,.23-.74,.25-.35,1.34-1.07,2.87-2.15,4.05,.12,.04,.21,.12,.35,.23,1.26,1.38,2.93,1.69,5.95,1.69,1.71,0,3.18,0,4.89-.08v.25c-.6,.12-.91,.68-.99,1.36h-4.3c-3.18,0-4.52-.7-5.84-2.64-.23-.33-.41-.25-.54,.04-.29,.58-.72,1.65-1.01,2.44,.06,.17,.04,.27-.1,.37l-1.3-1.61c.66-.5,1.61-1.49,2.17-1.92,.68-1.16,1.18-2.87,1.38-4.29h-.7l-.58,.54-1.11-.81c.19,.58,.29,1.18,.29,1.75,0,1.92-.58,2.79-2.33,2.85,0-.45-.08-.99-.21-1.18-.14-.14-.39-.25-.7-.33v4.6c0,.12-.5,.54-1.28,.54h-.27v-17.45l1.8,.74h1.2l.93-.89,1.69,1.63c-.16,.17-.41,.21-.85,.23-.54,1.18-1.55,3.37-2.31,4.58,.97,.85,1.59,1.76,1.94,2.7,.16-.1,.35-.19,.54-.27,.43-.95,.97-2.37,1.28-3.37h-2l-.17-.56h2.11l.72-.74,1.51,1.3c-.16,.17-.47,.27-.81,.31-.31,.89-.85,2.29-1.3,3.3h.47l.87-.83,1.49,1.24Zm-6.61,2.66c.19,0,.29-.02,.41-.1,.23-.17,.39-.58,.39-1.28,0-1.44-.33-2.91-1.3-4.27,.35-1.24,.83-3.55,1.12-5.06h-1.57v10.71h.95Zm2.79-11.79c3.47,1.71,1.98,4.25,.78,3.1,.02-.99-.49-2.21-1.01-2.99l.23-.12Zm2.6,1.45h2.08c.17-.74,.35-1.45,.49-2.21l2.25,.58c-.08,.25-.29,.43-.74,.43-.14,.39-.29,.81-.47,1.2h2.99l.85-1.09s1.01,.76,1.63,1.34c-.06,.21-.25,.31-.52,.31h-5.18c-.64,1.38-1.4,2.62-2.29,3.59h3.12v-1.73h-1.34l-.16-.56h3.32l.79-.95s.87,.68,1.42,1.2c-.04,.21-.23,.31-.49,.31h-2.08v1.73h1.16l.78-1.03s.93,.72,1.47,1.28c-.02,.21-.21,.31-.46,.31h-7.43l-.16-.52c-.17,.19-.39,.41-.56,.58l-.27-.17c.62-1.09,1.22-2.5,1.71-4.03h-1.76l-.16-.56Zm4.62,11.79s1.14,.1,1.47,.1c.27,0,.33-.12,.33-.33v-2.04c-.72,.41-1.61,.85-2.7,1.32-.08,.25-.23,.39-.43,.45l-.54-1.12c-.25,1.14-.81,2.29-2.15,3.14l-.17-.23c.99-1.47,1.01-3.28,1.01-4.95v-2.97l1.8,.74h2.99l.74-.87,1.76,1.32c-.12,.16-.45,.33-.83,.39v4.93c0,.99-.21,1.51-1.88,1.65-.04-.33-.1-.62-.29-.8-.19-.17-.49-.33-1.11-.43v-.29Zm-1.67-3.67c0,.48-.02,1.01-.1,1.55,.89-.12,2.25-.37,3.57-.64v-2.58h-3.47v.87c3.47-.29,3.36,1.71,2.25,1.53-.39-.29-1.24-.7-2.25-.97v.23Z"/>
        <path class="cls-1" d="M270.83,46.28s1.28,.99,2.08,1.69c-.06,.21-.27,.31-.54,.31h-7.66v2.31c0,1.36-.33,2.13-2.79,2.35-.08-.58-.19-1.01-.54-1.28-.35-.29-.87-.5-1.98-.66v-.27s2.5,.16,2.95,.16c.33,0,.45-.1,.45-.37v-2.23h-7.85l-.17-.56h8.03v-1.75l1.84,.17c1.09-.41,2.27-.89,3.2-1.36h-11.05l-.17-.56h11.99l1.14-.99,1.75,1.67c-.16,.16-.39,.19-.83,.21-1.36,.5-3.53,1.01-5.41,1.36-.1,.12-.27,.17-.52,.21v1.03h5l1.12-1.44Zm-15.81-8.71h8.65c-.14-.04-.25-.1-.39-.19-.17-.87-.83-1.86-1.43-2.46l.17-.14c3.47,.37,3.35,2.42,2.33,2.79h5.08l1.14-1.49s1.28,1.01,2.06,1.75c-.06,.21-.27,.31-.54,.31h-16.89l-.17-.56Zm12.43,5.88v-.74h-7.37v.43c0,.17-.85,.54-1.59,.54h-.25v-5l1.96,.78h7.06l.89-.97,2,1.47c-.14,.16-.43,.31-.81,.41v2.62c-.02,.14-.97,.47-1.57,.47h-.31Zm0-1.28v-2.15h-7.37v2.15h7.37Z"/>
        <path class="cls-1" d="M287.91,39.88c-.52,.16-1.11,.31-1.71,.47-.23,2.52-.72,4.98-1.75,7.12,3.49,2.29,2,4.11,.68,3.34-.37-.58-.91-1.22-1.53-1.84-1.09,1.61-2.6,2.97-4.67,4.03l-.21-.21c1.78-1.3,3.04-2.91,3.92-4.71-1.11-.95-2.33-1.86-3.38-2.5,.31-.95,.66-2.4,.99-3.92l-.58,.1c-.12,.25-.33,.39-.54,.43l-.52-2.02c.5,0,1.18,0,1.96-.04,.41-2.04,.76-4.05,.87-5.24l2.46,.45c-.08,.21-.19,.41-.78,.45-.17,1.07-.48,2.6-.83,4.23,.68-.04,1.4-.08,2.15-.14,.04-.7,.04-1.44,.04-2.13l2.6,.47c-.08,.29-.31,.47-.76,.5-.02,.35-.04,.68-.06,1.03,.54-.06,1.07-.1,1.61-.16l.04,.31Zm-4.71,6.85c.68-1.84,1.03-3.88,1.18-5.93-.74,.17-1.53,.35-2.41,.52-.35,1.53-.76,3.1-1.14,4.36,.93,.35,1.71,.7,2.37,1.05Zm11.91-4.58s1.18,.95,1.88,1.63c-.06,.21-.25,.31-.52,.31h-4.21v6.57c0,1.32-.27,2.11-2.48,2.33-.06-.58-.16-1.03-.45-1.32-.29-.29-.74-.5-1.65-.64v-.27s1.98,.14,2.39,.14c.31,0,.41-.1,.41-.35v-6.46h-3.88l-.16-.56h4.03v-3.22l1.34,.14c.6-.91,1.26-2.21,1.69-3.1h-6.3l-.17-.56h6.52l1.07-1.05,1.82,1.67c-.16,.15-.37,.19-.8,.21-.83,.8-2.15,2.04-3.32,2.89l.62,.06c-.04,.27-.23,.45-.68,.5v2.46h1.8l1.05-1.38Z"/>
        <path class="cls-1" d="M318.69,49.96s1.4,1.05,2.25,1.8c-.06,.21-.25,.31-.54,.31h-17.34l-.17-.56h7.95v-5.76h-5.55l-.16-.56h5.7v-4.93h-3.84c-1.14,1.92-2.5,3.47-4.01,4.64l-.25-.17c1.57-2.17,3.14-5.6,3.92-9.1l2.73,.83c-.08,.23-.31,.41-.76,.39-.39,1.01-.83,1.96-1.32,2.85h3.53v-4.67l2.7,.27c-.04,.29-.19,.48-.7,.56v3.84h3.63l1.18-1.45s1.32,.95,2.19,1.71c-.06,.21-.25,.31-.54,.31h-6.46v4.93h2.97l1.2-1.47s1.36,1.01,2.19,1.73c-.04,.21-.25,.31-.52,.31h-5.84v5.76h4.62l1.24-1.55Z"/>
        <path class="cls-1" d="M326.99,39.53c4.77,.33,3.61,3.8,1.84,2.75-.29-.93-1.2-2-2-2.6l.16-.16Zm5.93-.62c-.83,2.31-2.37,6.59-2.62,7.54-.17,.62-.33,1.24-.33,1.75,.04,.95,.7,1.71,.64,3.34-.04,.93-.56,1.49-1.41,1.49-.41,0-.78-.33-.87-.97,.31-2.02,.21-3.67-.23-3.96-.27-.19-.56-.27-.97-.31v-.39h.87c.27,0,.35,0,.56-.37q.43-.72,4.03-8.18l.33,.06Zm-4.5-3.63c4.93,.41,3.82,3.96,2,2.95-.33-.99-1.34-2.13-2.15-2.79l.16-.16Zm14.66,4.44s1.26,1.03,2,1.73c-.04,.21-.25,.29-.52,.29h-5.18v3.8h2.08l.93-1.01,1.92,1.47c-.12,.16-.39,.33-.79,.41v5.88c-.02,.14-.91,.54-1.53,.54h-.31v-1.53h-6.44v1.05c0,.17-.78,.56-1.55,.56h-.27v-8.18l1.94,.81h2.15v-3.8h-5.08l-.16-.54h5.24v-3.39c-1.61,.19-3.28,.33-4.85,.39l-.06-.33c3.34-.58,7.54-1.76,9.68-2.72l1.94,1.82c-.19,.17-.6,.19-1.16-.02-1.03,.21-2.29,.43-3.67,.62v3.63h2.6l1.11-1.47Zm-7.85,6.38v4.64h6.44v-4.64h-6.44Z"/>
        <path class="cls-1" d="M352.41,43.95c0-1.51,1.24-2.73,2.75-2.73s2.73,1.22,2.73,2.73-1.22,2.75-2.73,2.75-2.75-1.24-2.75-2.75Zm.7,0c0,1.12,.91,2.06,2.06,2.06s2.04-.93,2.04-2.06-.91-2.04-2.04-2.04-2.06,.91-2.06,2.04Z"/>
      </g>
      <g>
        <path class="cls-1" d="M18.76,77.12c-.14,.16-.37,.27-.8,.31-.04,6.34-.21,8.98-.97,9.81-.52,.56-1.28,.68-2.21,.68,0-.43-.08-.72-.31-.93-.31-.23-.91-.43-1.63-.54l.02-.31c.7,.06,1.78,.16,2.17,.16,.33,0,.48-.08,.62-.23,.5-.5,.62-3.37,.66-8.88h-7.29c-.35,.52-.78,1.03-1.22,1.49l1.05,.45h1.55v-1.75l2,.19c-.04,.19-.17,.35-.52,.41v1.14h1.45l.7-.72,1.47,1.11c-.1,.12-.33,.25-.62,.29v2.64c-.02,.12-.72,.43-1.16,.43h-.23v-.43h-1.61v1.55l1.55-.16c-.19-.35-.43-.68-.64-.93l.21-.12c3.76,1.14,2.29,3.86,.95,2.72-.02-.41-.14-.83-.33-1.26-1.36,.45-3.16,.99-5.59,1.67-.1,.25-.29,.39-.48,.43l-.89-1.92c.8-.04,2.13-.14,3.74-.29v-1.69h-1.67v.27c0,.14-.62,.45-1.2,.45h-.19v-4.01c-.45,.43-.93,.8-1.41,1.11,.06,2.54-.16,5.2-1.07,6.5-.43,.62-1.18,.85-2.21,.85,0-.62-.12-1.03-.33-1.26-.23-.19-.64-.43-1.22-.56v-.29s1.26,.12,1.9,.12c.27,0,.43-.06,.56-.27,.5-.76,.68-3.01,.68-5.16,0-.35,0-.7-.02-1.05-.99,1.16-2.42,2.37-4.01,3.22l-.19-.19c1.69-1.53,3.14-3.72,3.96-5.82-.12-.64-.25-1.24-.47-1.84-.81,.85-1.76,1.63-2.77,2.29l-.21-.21c.91-.93,1.76-2.13,2.48-3.36-.47-.91-1.09-1.82-1.92-2.68l.25-.21c.89,.6,1.63,1.26,2.19,1.96,.5-.93,.91-1.84,1.18-2.62l2.25,1.16c-.1,.19-.27,.31-.74,.23-.47,.76-1.09,1.61-1.8,2.44,1.05,1.82,1.4,3.92,1.47,6.21,.85-1.12,1.65-2.75,2.13-4.27-.23,.08-.52,.16-.8,.16h-.23v-5.55l1.67,.7h7.04l.78-.8,1.61,1.22c-.1,.14-.33,.27-.64,.33v3.39c-.02,.14-.79,.45-1.32,.45h-.25v-.58h-7.33v.35l1.86,.6c-.06,.21-.31,.39-.72,.37-.1,.17-.21,.37-.29,.54h6.71l.93-.95,1.73,1.45Zm-10.22-5.82v2.89h1.59v-2.89h-1.59Zm.19,8.36v2.21h1.67v-2.21h-1.67Zm4.23-5.47v-2.89h-1.49v2.89h1.49Zm-1.09,5.47v2.21h1.61v-2.21h-1.61Zm2.44-8.36v2.89h1.55v-2.89h-1.55Z"/>
        <path class="cls-1" d="M40.71,80.94s1.28,.99,2.08,1.69c-.06,.21-.27,.31-.54,.31h-7.66v2.31c0,1.36-.33,2.13-2.79,2.35-.08-.58-.19-1.01-.54-1.28-.35-.29-.87-.5-1.98-.66v-.27s2.5,.16,2.95,.16c.33,0,.45-.1,.45-.37v-2.23h-7.85l-.17-.56h8.03v-1.75l1.84,.17c1.09-.41,2.27-.89,3.2-1.36h-11.05l-.17-.56h11.99l1.14-.99,1.75,1.67c-.16,.16-.39,.19-.83,.21-1.36,.5-3.53,1.01-5.41,1.36-.1,.12-.27,.17-.52,.21v1.03h5l1.12-1.44Zm-15.81-8.71h8.65c-.14-.04-.25-.1-.39-.19-.17-.87-.83-1.86-1.43-2.46l.17-.14c3.47,.37,3.35,2.42,2.33,2.79h5.08l1.14-1.49s1.28,1.01,2.06,1.75c-.06,.21-.27,.31-.54,.31H25.07l-.17-.56Zm12.43,5.88v-.74h-7.37v.43c0,.17-.85,.54-1.59,.54h-.25v-5l1.96,.78h7.06l.89-.97,2,1.47c-.14,.16-.43,.31-.81,.41v2.62c-.02,.14-.97,.47-1.57,.47h-.31Zm0-1.28v-2.15h-7.37v2.15h7.37Z"/>
        <path class="cls-1" d="M66.55,71.32c-.14,.17-.43,.33-.8,.41v15.17c-.04,.17-.85,.6-1.51,.6h-.27v-1.28h-12.53v.76c0,.23-.68,.68-1.45,.68h-.29v-17.61l1.9,.81h12.18l.91-1.01,1.86,1.47Zm-2.58,14.33v-14.24h-12.53v14.24h12.53Zm-6.13-4.42c-.97,.5-2.46,1.22-4.52,2.13-.1,.25-.25,.41-.45,.47l-.99-1.92c1.05-.12,3.49-.5,5.91-.95l.04,.27Zm1.34-6.32c.1,1.53,.31,3.03,.72,4.36,.56-1.09,1.03-2.27,1.36-3.57l2.13,.87c-.12,.21-.33,.37-.78,.31-.56,1.53-1.28,2.83-2.11,3.94,.35,.68,.78,1.28,1.3,1.78,.23,.25,.33,.25,.47-.06,.21-.41,.52-1.2,.74-1.88l.21,.04-.27,2.58c.48,.8,.56,1.16,.33,1.4-.54,.64-1.69,.04-2.33-.58-.6-.6-1.11-1.28-1.51-2.02-1.26,1.28-2.71,2.21-4.36,2.89l-.17-.25c1.47-.91,2.85-2.19,4-3.8-.72-1.75-1.07-3.78-1.24-6.01h-5.53l-.16-.56h5.64c-.04-.85-.06-1.73-.08-2.62l2.25,.43c-.04,.23-.23,.43-.66,.47,0,.56,.02,1.14,.04,1.73h2l.43-.54c-.1-.02-.21-.08-.33-.14-.23-.6-.83-1.36-1.38-1.75l.17-.17c2.27,.15,2.66,1.26,2.27,1.78,.35,.27,.87,.7,1.22,1.07-.06,.21-.25,.31-.5,.31h-3.86Zm-3.47,5.51v-.6h-1.57v.56c0,.1-.58,.41-1.12,.41h-.21v-5.02l1.44,.58h1.34l.66-.66,1.45,1.05c-.1,.12-.33,.25-.6,.29v2.93c-.02,.14-.7,.47-1.16,.47h-.21Zm0-1.16v-2.35h-1.57v2.35h1.57Z"/>
        <path class="cls-1" d="M88.46,84.56s1.4,1.07,2.25,1.82c-.06,.21-.25,.31-.54,.31h-17.07l-.17-.56h7.82v-7.23h-6.07l-.16-.56h6.23v-6.34h-6.85l-.16-.56h12.64l1.22-1.51s1.38,1.03,2.21,1.76c-.04,.21-.25,.31-.52,.31h-6.55v6.34h3.06l1.2-1.49s1.3,1.01,2.11,1.75c-.04,.21-.25,.31-.52,.31h-5.86v7.23h4.5l1.22-1.57Z"/>
        <path class="cls-1" d="M98.18,74.13c-.41,.43-.83,.81-1.24,1.12l-.27-.19c.95-1.32,1.92-3.37,2.46-5.49l2.11,.76c-.08,.23-.33,.39-.74,.37-.23,.47-.48,.93-.78,1.38l.25,.1h3.49l.79-.97s.91,.7,1.47,1.22c-.04,.21-.21,.31-.48,.31h-2.39v1.67h.56l.7-.87s.66,.52,1.14,.99c.81-1.26,1.53-3.08,1.92-4.95l2.13,.7c-.06,.23-.29,.41-.72,.39-.21,.47-.45,.95-.7,1.4l.29,.12h3.9l.79-.97s.93,.7,1.51,1.22c-.06,.21-.23,.31-.5,.31h-2.62v1.67h.68l.7-.91s.85,.64,1.36,1.16c-.04,.21-.21,.31-.48,.31h-2.25v1.75h.68l.72-.91s.83,.64,1.36,1.16c-.06,.21-.23,.31-.5,.31h-2.25v1.71h1.09l.81-1.05s.97,.74,1.55,1.3c-.06,.21-.23,.31-.5,.31h-6.26v.21c0,.14-.52,.52-1.32,.52h-.27v-6.13c-.35,.37-.72,.7-1.11,.99l-.25-.17h-2.15v1.75h.56l.7-.89s.79,.64,1.3,1.14c-.06,.21-.23,.31-.48,.31h-2.08v1.71h.87l.79-1.01s.93,.7,1.49,1.26c-.06,.21-.23,.31-.5,.31h-5.78v.31c0,.12-.52,.5-1.3,.5h-.27v-6.23Zm14.31,7.31c-.16,.17-.39,.23-.91,.25-1.05,1.14-2.31,2.11-3.78,2.91,2.23,.58,4.69,.89,7.2,1.01l-.02,.25c-.81,.21-1.32,.83-1.51,1.75-2.83-.37-5.43-1.01-7.6-2.06-2.56,1.07-5.59,1.73-8.88,2.04l-.12-.31c2.77-.52,5.43-1.36,7.7-2.44-1.47-.89-2.7-2.06-3.61-3.49h-3.3l-.17-.56h12.06l1.2-1.03,1.75,1.69Zm-12.74-8.71v1.67h1.65v-1.67h-1.65Zm1.65,2.23h-1.65v1.75h1.65v-1.75Zm0,2.31h-1.65v1.71h1.65v-1.71Zm-.5-7.7c3.71,.58,2.33,3.28,.97,2.23-.08-.74-.62-1.61-1.14-2.09l.17-.14Zm.56,11.77c1.11,1.16,2.68,2.08,4.52,2.73,1.34-.8,2.5-1.73,3.37-2.73h-7.89Zm6.52-8.61v1.67h1.8v-1.67h-1.8Zm1.8,2.23h-1.8v1.75h1.8v-1.75Zm0,2.31h-1.8v1.71h1.8v-1.71Zm-.5-7.72c3.7,.58,2.31,3.3,.95,2.23-.06-.72-.6-1.59-1.14-2.09l.19-.14Z"/>
        <path class="cls-1" d="M136.65,84.64s1.4,1.05,2.23,1.8c-.06,.21-.25,.31-.54,.31h-17.32l-.16-.56h7.95v-5.8h-5.68l-.15-.56h5.84v-4.96h-6.5l-.17-.56h12.53l1.18-1.51s1.36,1.01,2.21,1.76c-.06,.21-.27,.31-.54,.31h-6.71v4.96h3.14l1.18-1.45s1.3,.99,2.11,1.71c-.04,.21-.25,.31-.54,.31h-5.9v5.8h4.62l1.22-1.55Zm-9.87-14.95c6.3,.7,5.31,4.91,3.18,3.82-.56-1.32-2.08-2.79-3.34-3.65l.16-.17Z"/>
        <path class="cls-1" d="M158.62,70.91c.23,7.49,1.12,11.97,4.62,14.51l-.04,.23c-.83,.19-1.4,.87-1.63,1.92-2-2.08-2.79-5.84-3.12-10.86-.37,4.44-1.57,8.2-5.99,10.92l-.23-.29c.91-.81,1.63-1.65,2.23-2.56h-6.73l-.6,.97-1.94-1.18c.14-.16,.35-.35,.56-.48v-13.96l2.13,1.09h4.52l1.09-1.45s1.22,1.01,1.96,1.71c-.06,.21-.25,.31-.52,.31h-3.43v3.43h1.38l.83-.89,1.59,1.38c-.14,.15-.39,.29-.7,.35v4.34c-.04,.08-.74,.39-1.42,.39h-.35v-.89h-1.34v4.34h.8l1.03-1.42s.83,.74,1.49,1.38c2.23-3.92,2-8.79,2.02-14.56l2.5,.25c-.04,.29-.21,.48-.7,.54v.5Zm-8.84,4.29v-3.43h-2.21v3.43h2.21Zm3.04,.56h-5.26v3.55h5.26v-3.55Zm-3.04,8.46v-4.34h-2.21v4.34h2.21Z"/>
        <path class="cls-1" d="M173.47,76.3c4.01,1.53,2.52,4.29,1.14,3.08-.12-.81-.62-1.82-1.14-2.58v10.22c0,.21-.74,.6-1.38,.6h-.35v-8.32c-.72,1.45-1.63,2.75-2.75,3.88l-.27-.23c1.42-2.25,2.27-5.24,2.75-8.16h-2.41l-.16-.56h2.83v-4.69l2.42,.25c-.04,.29-.19,.47-.7,.54v3.9h.56l.95-1.3s1.03,.91,1.65,1.55c-.04,.21-.23,.31-.5,.31h-2.66v1.51Zm12.59-3.67c-.16,.17-.37,.23-.83,.27-.72,1.42-1.65,2.75-2.83,3.9,1.34,.78,2.95,1.4,4.83,1.8l-.04,.21c-.76,.23-1.16,.74-1.3,1.61-.41-.16-.81-.31-1.18-.48l1.09,.83c-.14,.17-.33,.27-.74,.35v5.84c0,.1-.62,.45-1.49,.45h-.31v-1.16h-4.34v.89c0,.12-.54,.45-1.42,.45h-.29v-7.45c-.76,.33-1.57,.6-2.4,.83l-.16-.29c2.29-.95,4.25-2.27,5.8-3.84-.74-.83-1.34-1.78-1.86-2.83-.83,1.14-1.78,2.09-2.83,2.79l-.25-.19c1.3-1.63,2.56-4.25,3.18-6.98l2.46,.83c-.08,.23-.31,.41-.74,.37-.19,.41-.39,.83-.6,1.24h3.49l1.05-.99,1.73,1.55Zm-2.13,6.94c-1.01-.54-1.86-1.12-2.62-1.82-1.01,.83-2.19,1.53-3.53,2.13l1.36,.56h4.03l.76-.87Zm-4.42-6.96c-.21,.35-.43,.68-.64,.99,.62,.89,1.4,1.71,2.31,2.42,.89-1.07,1.61-2.21,2.13-3.41h-3.8Zm3.74,13.07v-4.67h-4.34v4.67h4.34Z"/>
        <path class="cls-1" d="M210.63,77.85c-.14,.15-.37,.29-.76,.33-.12,5.28-.39,7.84-1.24,8.69-.56,.5-1.3,.76-2.29,.76,0-.54-.06-.99-.33-1.26-.31-.29-1.01-.52-1.77-.68l.02-.29c.72,.08,1.98,.17,2.39,.17,.33,0,.48-.06,.64-.21,.47-.47,.66-3.06,.76-7.45h-10.72c-.12,3.32-.78,7.08-4.11,9.68l-.23-.16c2.25-3.18,2.5-7.18,2.5-11v-6.17l2.15,.8h8.57l.91-.97,1.94,1.45c-.14,.16-.43,.33-.81,.41v3.65c-.02,.14-.93,.47-1.53,.47h-.31v-1.07h-9.06v2.35h10.51l.99-1.03,1.78,1.53Zm-13.29-6.23v2.81h9.06v-2.81h-9.06Zm7.99,12.76c-.02,.16-.87,.52-1.44,.52h-.31v-.93h-3.37v1.18c0,.17-.76,.54-1.46,.54h-.23v-6.57l1.78,.76h3.12l.81-.85,1.71,1.28c-.1,.14-.33,.27-.62,.33v3.74Zm-1.75-.97v-2.97h-3.37v2.97h3.37Z"/>
        <path class="cls-1" d="M219.58,80.63c1.14-.66,1.67-1.49,1.92-2.5-1.01-.45-1.65-.93-1.65-1.76,0-.7,.49-1.3,1.34-1.3s1.47,.64,1.47,1.84c0,1.47-.7,3.36-2.75,4.34l-.33-.62Z"/>
        <path class="cls-1" d="M247.51,73.51c-.14,.14-.45,.31-.85,.41v13.01c-.04,.16-.93,.6-1.63,.6h-.31v-1.38h-8.46v.74c0,.23-.76,.7-1.57,.7h-.31v-15.46l2.04,.87h2.21c.27-1.05,.49-2.4,.6-3.39l2.93,.5c-.06,.25-.27,.43-.7,.45-.52,.74-1.3,1.67-2.09,2.44h5.16l.99-1.11,2,1.61Zm-11.25,.06v3.53h8.46v-3.53h-8.46Zm0,4.09v3.67h8.46v-3.67h-8.46Zm8.46,7.93v-3.74h-8.46v3.74h8.46Z"/>
        <path class="cls-1" d="M261.17,78.05c-.08,.19-.25,.31-.6,.37v8.63c-.04,.14-.81,.54-1.51,.54h-.35v-7.91c-.97,.87-2.02,1.63-3.24,2.29l-.19-.21c2.52-2.02,4.38-4.85,5.64-7.72h-4.93l-.17-.56h5.33c.56-1.34,.97-2.66,1.26-3.92l2.79,.76c-.08,.23-.25,.37-.76,.39-.31,.91-.7,1.82-1.16,2.77h6.54l1.2-1.47s1.32,1.01,2.13,1.73c-.04,.21-.25,.31-.52,.31h-9.62c-.68,1.28-1.51,2.58-2.52,3.76l.68,.25Zm10.18,6.44s1.26,.97,2.08,1.67c-.06,.21-.25,.31-.54,.31h-11.75l-.16-.56h4.71v-5.91h-3.7l-.15-.56h3.86v-4.54l2.48,.25c-.02,.25-.17,.43-.62,.5v3.78h1.55l1.09-1.36s1.22,.93,1.94,1.61c-.04,.21-.25,.31-.5,.31h-4.07v5.91h2.64l1.16-1.42Z"/>
        <path class="cls-1" d="M280.84,74.13c-.41,.43-.83,.81-1.24,1.12l-.27-.19c.95-1.32,1.92-3.37,2.46-5.49l2.11,.76c-.08,.23-.33,.39-.74,.37-.23,.47-.48,.93-.78,1.38l.25,.1h3.49l.79-.97s.91,.7,1.47,1.22c-.04,.21-.21,.31-.48,.31h-2.39v1.67h.56l.7-.87s.66,.52,1.14,.99c.81-1.26,1.53-3.08,1.92-4.95l2.13,.7c-.06,.23-.29,.41-.72,.39-.21,.47-.45,.95-.7,1.4l.29,.12h3.9l.8-.97s.93,.7,1.51,1.22c-.06,.21-.23,.31-.5,.31h-2.62v1.67h.68l.7-.91s.85,.64,1.36,1.16c-.04,.21-.21,.31-.48,.31h-2.25v1.75h.68l.72-.91s.83,.64,1.36,1.16c-.06,.21-.23,.31-.5,.31h-2.25v1.71h1.09l.81-1.05s.97,.74,1.55,1.3c-.06,.21-.23,.31-.5,.31h-6.26v.21c0,.14-.52,.52-1.32,.52h-.27v-6.13c-.35,.37-.72,.7-1.11,.99l-.25-.17h-2.15v1.75h.56l.7-.89s.8,.64,1.3,1.14c-.06,.21-.23,.31-.49,.31h-2.08v1.71h.87l.79-1.01s.93,.7,1.49,1.26c-.06,.21-.23,.31-.5,.31h-5.78v.31c0,.12-.52,.5-1.3,.5h-.27v-6.23Zm14.31,7.31c-.16,.17-.39,.23-.91,.25-1.05,1.14-2.31,2.11-3.78,2.91,2.23,.58,4.69,.89,7.2,1.01l-.02,.25c-.81,.21-1.32,.83-1.51,1.75-2.83-.37-5.43-1.01-7.6-2.06-2.56,1.07-5.58,1.73-8.88,2.04l-.12-.31c2.77-.52,5.43-1.36,7.7-2.44-1.47-.89-2.7-2.06-3.61-3.49h-3.3l-.17-.56h12.06l1.2-1.03,1.75,1.69Zm-12.74-8.71v1.67h1.65v-1.67h-1.65Zm1.65,2.23h-1.65v1.75h1.65v-1.75Zm0,2.31h-1.65v1.71h1.65v-1.71Zm-.5-7.7c3.71,.58,2.33,3.28,.97,2.23-.08-.74-.62-1.61-1.14-2.09l.17-.14Zm.56,11.77c1.11,1.16,2.68,2.08,4.52,2.73,1.34-.8,2.5-1.73,3.37-2.73h-7.89Zm6.52-8.61v1.67h1.8v-1.67h-1.8Zm1.8,2.23h-1.8v1.75h1.8v-1.75Zm0,2.31h-1.8v1.71h1.8v-1.71Zm-.5-7.72c3.7,.58,2.31,3.3,.95,2.23-.06-.72-.6-1.59-1.14-2.09l.19-.14Z"/>
        <path class="cls-1" d="M319.33,82.14s1.36,1.03,2.17,1.75c-.04,.21-.25,.31-.54,.31h-7.56v2.85c0,.19-.81,.58-1.51,.58h-.39v-3.43h-7.78l-.17-.56h7.95v-2.31h-3.66v.66c0,.17-.8,.6-1.55,.6h-.27v-8.73l1.98,.83h3.51v-1.96h-7.23l-.14-.56h7.37v-2.56l2.6,.27c-.04,.27-.19,.48-.7,.56v1.73h4.17l1.18-1.45s1.38,.99,2.21,1.71c-.06,.21-.25,.31-.54,.31h-7.02v1.96h3.55l.93-1.03,1.94,1.51c-.14,.16-.41,.31-.81,.39v6.03c-.02,.16-.93,.54-1.55,.54h-.31v-.81h-3.74v2.31h4.71l1.22-1.49Zm-11.5-6.88v2.4h3.66v-2.4h-3.66Zm3.66,5.51v-2.54h-3.66v2.54h3.66Zm1.9-5.51v2.4h3.74v-2.4h-3.74Zm3.74,5.51v-2.54h-3.74v2.54h3.74Z"/>
        <path class="cls-1" d="M332.4,75.24c-.06,.17-.23,.29-.58,.37v11.42c-.04,.16-.8,.58-1.51,.58h-.33v-10.43c-.78,.97-1.61,1.86-2.5,2.6l-.25-.17c1.65-2.39,3.39-6.24,4.29-9.99l2.74,.83c-.1,.25-.33,.41-.78,.41-.56,1.47-1.2,2.81-1.94,4.05l.87,.33Zm11.21,9.11s1.32,1.03,2.11,1.76c-.06,.21-.25,.31-.52,.31h-12.7l-.16-.56h6.87c.83-3.08,1.65-7.25,2.04-10.24l2.77,.64c-.06,.27-.27,.47-.74,.48-.76,2.52-2.13,6.21-3.68,9.11h2.85l1.16-1.51Zm-10.74-10.16h9.23l1.14-1.45s1.28,.99,2.04,1.71c-.06,.21-.25,.31-.52,.31h-11.75l-.14-.56Zm1.65,1.75c5.41,5.7,2.79,10.4,1.45,8.3-.08-2.06-.41-5.64-1.73-8.16l.27-.14Zm2.35-6.28c5.02,1.55,3.28,5.31,1.47,3.82-.12-1.26-.91-2.75-1.67-3.7l.19-.12Z"/>
        <path class="cls-1" d="M353.03,78.61c0-1.51,1.24-2.73,2.75-2.73s2.73,1.22,2.73,2.73-1.22,2.75-2.73,2.75-2.75-1.24-2.75-2.75Zm.7,0c0,1.12,.91,2.06,2.06,2.06s2.04-.93,2.04-2.06-.91-2.04-2.04-2.04-2.06,.91-2.06,2.04Z"/>
      </g>
      <g>
        <path class="cls-1" d="M16.85,106.18c-.14,.17-.43,.33-.8,.41v15.17c-.04,.17-.85,.6-1.51,.6h-.27v-1.28H1.75v.76c0,.23-.68,.68-1.45,.68h-.29v-17.61l1.9,.81H14.08l.91-1.01,1.86,1.47Zm-2.58,14.33v-14.24H1.75v14.24H14.27Zm-6.13-4.42c-.97,.5-2.46,1.22-4.52,2.13-.1,.25-.25,.41-.45,.47l-.99-1.92c1.05-.12,3.49-.5,5.92-.95l.04,.27Zm1.34-6.32c.1,1.53,.31,3.03,.72,4.36,.56-1.09,1.03-2.27,1.36-3.57l2.13,.87c-.12,.21-.33,.37-.78,.31-.56,1.53-1.28,2.83-2.11,3.94,.35,.68,.78,1.28,1.3,1.78,.23,.25,.33,.25,.47-.06,.21-.41,.52-1.2,.74-1.88l.21,.04-.27,2.58c.48,.8,.56,1.16,.33,1.4-.54,.64-1.69,.04-2.33-.58-.6-.6-1.11-1.28-1.51-2.02-1.26,1.28-2.71,2.21-4.36,2.89l-.17-.25c1.47-.91,2.85-2.19,4-3.8-.72-1.75-1.07-3.78-1.24-6.01H2.42l-.16-.56H7.91c-.04-.85-.06-1.73-.08-2.62l2.25,.43c-.04,.23-.23,.43-.66,.47,0,.56,.02,1.14,.04,1.73h2l.43-.54c-.1-.02-.21-.08-.33-.14-.23-.6-.83-1.36-1.38-1.75l.17-.17c2.27,.15,2.66,1.26,2.27,1.78,.35,.27,.87,.7,1.22,1.07-.06,.21-.25,.31-.5,.31h-3.86Zm-3.47,5.51v-.6h-1.57v.56c0,.1-.58,.41-1.12,.41h-.21v-5.02l1.44,.58h1.34l.66-.66,1.45,1.05c-.1,.12-.33,.25-.6,.29v2.93c-.02,.14-.7,.47-1.16,.47h-.21Zm0-1.16v-2.35h-1.57v2.35h1.57Z"/>
        <path class="cls-1" d="M29.88,114.1c-.14,.17-.33,.23-.74,.27-.45,1.38-1.36,2.91-2.64,4.07,.08,.04,.17,.1,.27,.17,1.59,1.44,3.86,1.71,7.93,1.71,2.27-.02,4.17-.02,6.46-.14v.25c-.78,.14-1.18,.78-1.28,1.49h-5.8c-4.09,0-5.88-.64-7.56-2.7-.27-.31-.47-.27-.64,.04-.35,.58-.97,1.65-1.4,2.54,.06,.17,.02,.29-.12,.39l-1.38-1.8c.93-.56,2.29-1.75,2.89-2,.7-1.14,1.24-2.77,1.47-4.17h-1.67l-.64,.56-1.44-1.14c.19-.12,.48-.25,.78-.33,.62-.93,1.47-2.27,2.02-3.26h-2.99l-.17-.56h3.2l.85-.85,1.69,1.53c-.17,.19-.56,.29-1.03,.31-.52,.87-1.38,2.21-2.04,3.18h1.34l.93-.93,1.69,1.36Zm-5.74-9.39c4.77,.78,3.39,4.29,1.63,3.1-.21-1.05-1.05-2.23-1.82-2.97l.19-.14Zm4.95,3.59l-.16-.56h6.3c.33-.99,.68-2.35,.89-3.32l2.58,.6c-.06,.21-.29,.39-.72,.39-.52,.68-1.4,1.59-2.21,2.33h1.88l1.07-1.38s1.22,.93,1.94,1.63c-.04,.21-.25,.31-.52,.31h-5.1c-.33,.6-.76,1.3-1.16,1.86h2.95l.87-.95,1.84,1.42c-.14,.16-.41,.31-.78,.39v7.91c-.02,.14-.87,.5-1.45,.5h-.29v-1.22h-5v.78c0,.19-.72,.58-1.45,.58h-.27v-10.18l1.82,.78h.78c.06-.58,.1-1.3,.12-1.86h-3.92Zm1.71-3.84c4.29,.97,2.6,4.07,1.05,2.83-.08-.93-.7-2.04-1.26-2.7l.21-.14Zm1.22,6.26v1.9h5v-1.9h-5Zm0,4.4h5v-1.94h-5v1.94Zm5,2.52v-1.96h-5v1.96h5Z"/>
        <path class="cls-1" d="M56.12,112.12c.76,0,1.36,.6,1.36,1.36s-.6,1.36-1.36,1.36-1.36-.6-1.36-1.36,.6-1.36,1.36-1.36Z"/>
        <path class="cls-1" d="M77.56,112.62c-.58,.39-1.32,.87-2.21,1.42v6.19c0,1.34-.25,2.08-2.33,2.29-.04-.56-.14-1.01-.37-1.28-.25-.31-.64-.5-1.42-.62v-.29s1.61,.12,1.96,.12c.31,0,.39-.1,.39-.35v-4.98c-.46,.27-.95,.54-1.47,.83-.06,.25-.21,.45-.43,.52l-.83-2.19c.54-.14,1.53-.39,2.73-.72v-4h-2.29l-.16-.56h2.44v-4.52l2.48,.25c-.06,.27-.25,.47-.72,.54v3.72h.19l.89-1.38s.97,.97,1.51,1.63c-.06,.21-.23,.31-.5,.31h-2.09v3.47c.7-.19,1.43-.41,2.15-.64l.06,.23Zm5.8,7.54c.64,.08,1.34,.1,2.11,.1,.89,0,2.95,0,3.98-.02v.25c-.58,.12-.85,.74-.85,1.49h-3.22c-3.22,0-5.06-.74-6.21-3.57-.76,1.94-1.94,3.26-3.53,4.09l-.25-.21c1.53-1.65,2.46-3.98,2.6-6.96l2.5,.45c-.06,.25-.27,.43-.68,.47-.12,.58-.27,1.14-.45,1.65,.56,.95,1.28,1.53,2.21,1.88v-5.29h-3.55l-.17-.54h3.72v-2.06h-4.69l-.15-.56h4.85v-1.9h-3.41l-.17-.56h3.59v-1.61h-4.4l-.16-.56h4.56v-2.13l2.46,.25c-.04,.27-.19,.47-.68,.54v1.34h2.62l1.09-1.4s1.2,.95,1.92,1.65c-.06,.21-.25,.31-.52,.31h-5.1v1.61h2l.83-.85,1.75,1.3c-.1,.14-.37,.29-.7,.35v1.67h.12l.78-1.14s.85,.83,1.36,1.4c-.04,.21-.23,.31-.48,.31h-1.77v2.79c-.02,.14-.85,.52-1.43,.52h-.25v-.72h-2.19v2.35h1.77l1.01-1.32s1.18,.93,1.88,1.57c-.06,.21-.25,.31-.52,.31h-4.13v2.77Zm0-8.84h2.19v-1.9h-2.19v1.9Zm0,2.62h2.19v-2.06h-2.19v2.06Z"/>
        <path class="cls-1" d="M101.61,114.08c-.16,.17-.35,.21-.76,.23-.37,1.4-1.18,2.99-2.35,4.17,.1,.04,.19,.1,.31,.19,1.63,1.47,3.9,1.75,7.95,1.73,2.31,0,4.21,0,6.54-.12v.23c-.78,.16-1.2,.78-1.3,1.51h-5.82c-4.11,0-5.88-.68-7.6-2.72-.27-.33-.48-.29-.64,.02-.33,.58-.97,1.69-1.42,2.58,.06,.16,.02,.29-.12,.39l-1.36-1.8c.87-.56,2.21-1.67,2.79-1.98,.66-1.22,1.16-2.89,1.36-4.31h-1.47l-.62,.54-1.42-1.12c.19-.12,.49-.27,.78-.35,.66-.91,1.51-2.23,2.08-3.22h-2.97l-.17-.56h3.22l.79-.83,1.61,1.47c-.16,.17-.5,.27-.93,.29-.52,.87-1.44,2.23-2.13,3.22h1.12l.93-.89,1.59,1.32Zm-5.2-9.44c4.58,1.03,3.1,4.25,1.47,3.06-.16-1.01-.95-2.21-1.67-2.95l.19-.12Zm6.13,1.65c-.02,.97-.45,1.65-.99,1.92-.54,.27-1.28,.15-1.47-.43-.16-.58,.21-.99,.7-1.22,.6-.29,1.2-1.07,1.14-1.88l.31-.02c.14,.39,.23,.74,.27,1.07h7.89l.95-.97,1.69,1.63c-.14,.16-.35,.19-.74,.23-.35,.39-.91,.91-1.44,1.32,.35,.27,.76,.58,1.07,.87-.06,.21-.25,.31-.52,.31h-4.21v1.44h1.86l.85-.93,1.8,1.4c-.14,.16-.43,.33-.81,.41v4.31c-.02,.14-.83,.5-1.38,.5h-.27v-.62h-2.06v1.63h2.52l1.01-1.24s1.16,.85,1.86,1.49c-.04,.21-.23,.31-.5,.31h-4.89v1.84c0,.19-.74,.56-1.38,.56h-.31v-2.4h-4.5l-.16-.56h4.65v-1.63h-2.08v.37c0,.16-.72,.5-1.38,.5h-.25v-6.67l1.75,.74h1.96v-1.44h-4.09l-.16-.56h4.25v-1.86l2.39,.25c-.04,.27-.19,.47-.7,.54v1.07h1.94l.97-1.16,.25,.17c.06-.39,.12-.87,.17-1.28h-7.99Zm.89,4.83v1.67h2.08v-1.67h-2.08Zm2.08,3.94v-1.71h-2.08v1.71h2.08Zm1.69-3.94v1.67h2.06v-1.67h-2.06Zm2.06,3.94v-1.71h-2.06v1.71h2.06Z"/>
        <path class="cls-1" d="M128.25,112.12c.76,0,1.36,.6,1.36,1.36s-.6,1.36-1.36,1.36-1.36-.6-1.36-1.36,.6-1.36,1.36-1.36Z"/>
        <path class="cls-1" d="M147.2,111.03c3.28,1.8,2,4.17,.83,3.12-.08-.74-.43-1.67-.83-2.42v10.12c0,.19-.72,.62-1.32,.62h-.33v-8.07c-.58,1.28-1.32,2.46-2.21,3.51l-.27-.21c1.16-2.25,1.84-5.14,2.21-7.97h-1.8l-.16-.56h2.23v-4.77l2.33,.25c-.04,.29-.19,.47-.68,.54v3.9l.76-1.11s.95,.83,1.49,1.43c-.04,.21-.23,.31-.48,.31h-1.76v1.3Zm13.59,9.68c.6,.66,.68,.95,.52,1.24-.45,.8-1.57,.41-2.52-.08-.82-.41-1.49-.93-2.02-1.63-1.42,1.05-3.03,1.73-4.73,2.13l-.14-.29c1.49-.66,2.95-1.57,4.19-2.85-.62-1.09-1.05-2.39-1.32-3.92h-2.19c-.04,.5-.12,1.03-.21,1.55,3.34,.8,2.09,3.34,.7,2.37-.1-.54-.47-1.14-.87-1.65-.5,1.78-1.59,3.51-4.05,4.85l-.27-.29c2.5-2.11,2.83-4.6,2.91-6.83h-1.63l-.15-.56h5.68c-.29-1.8-.41-3.88-.46-6.17-.12,.04-.23,.04-.39,.02-.76,1.07-2.04,2.52-3.2,3.59,.62-.06,1.4-.14,2.19-.21-.14-.5-.31-.97-.49-1.34l.25-.1c2.75,1.76,1.36,3.84,.37,2.77,.02-.27,0-.58-.06-.87-.62,.27-1.51,.66-2.4,1.03-.1,.21-.23,.35-.37,.41l-.85-1.63s.35-.08,.46-.17c.66-.58,1.4-1.69,2-2.75-.39,.17-.83,.39-1.28,.58-.12,.25-.25,.41-.41,.48l-.89-1.75s.33-.1,.45-.16c.78-.74,1.69-2.7,2-3.7l1.98,.93c-.08,.16-.29,.33-.68,.29-.62,.83-1.61,1.92-2.5,2.7,.5-.02,1.12-.06,1.73-.12,.25-.47,.45-.91,.58-1.26l1.49,.83c-.02-1.16-.02-2.35-.02-3.61l2.35,.29c-.02,.25-.21,.47-.7,.56-.06,3.59-.04,6.83,.39,9.35h2.75l.85-1.05s.95,.72,1.57,1.3c-.06,.21-.23,.31-.5,.31h-4.56c.19,1.01,.49,1.9,.85,2.66,.5-.68,.99-1.44,1.38-2.27l1.92,1.18c-.12,.19-.31,.25-.76,.16-.5,.8-1.09,1.51-1.73,2.15,.39,.45,.85,.8,1.4,1.07,.33,.17,.43,.16,.58-.19,.25-.5,.6-1.51,.85-2.33l.23,.02-.27,2.95Zm-4.98-12.06s.29-.08,.41-.16c.62-.72,1.34-2.68,1.55-3.67l2.09,.93c-.08,.16-.27,.31-.66,.29-.56,.81-1.4,1.8-2.17,2.58,.45-.02,.97-.06,1.51-.1,.25-.52,.45-1.03,.58-1.42l1.86,1.14c-.1,.16-.35,.29-.7,.21-.68,.97-1.76,2.23-2.81,3.16,.6-.04,1.34-.1,2.09-.17-.14-.39-.31-.78-.5-1.07l.25-.12c2.97,1.55,1.55,3.76,.52,2.72,.02-.33-.04-.7-.14-1.07-.56,.25-1.34,.56-2.13,.89,2.6,.62,1.28,2.48,.25,1.59-.02-.48-.23-1.05-.52-1.4-.1,.17-.23,.29-.37,.35l-.8-1.65s.33-.1,.45-.17c.48-.47,1.07-1.32,1.55-2.21l-1.09,.48c-.12,.29-.25,.47-.43,.54l-.81-1.71Z"/>
        <path class="cls-1" d="M173.97,114.6c-1.16,.91-2.95,2.29-5.37,3.94-.04,.23-.19,.47-.41,.56l-1.05-2.17c.5-.16,1.38-.47,2.42-.85v-5.72h-2.02l-.15-.56h2.17v-5.06l2.46,.25c-.04,.27-.17,.47-.72,.52v4.29h.14l.91-1.44s1.05,1.01,1.61,1.69c-.06,.21-.25,.31-.5,.31h-2.15v5.04c.81-.33,1.69-.68,2.56-1.03l.1,.23Zm3.63-1.18c-.29,.54-.6,1.05-.97,1.53h6.05l.95-.95,1.75,1.47c-.14,.16-.39,.25-.78,.31-.25,3.53-.81,5.41-1.76,6.11-.58,.41-1.26,.6-2.11,.6,0-.48-.08-.93-.33-1.18-.25-.27-.79-.48-1.42-.6v-.29c.62,.04,1.67,.12,2.06,.12,.31,0,.48-.04,.66-.17,.47-.39,.89-2.06,1.14-4.85h-.95c-1.09,3.08-3.24,5.39-6.63,6.96l-.19-.27c2.5-1.65,4.09-3.98,4.95-6.69h-1.03c-1.34,2.5-3.65,4.46-6.63,5.82l-.21-.29c2.25-1.42,4-3.37,5.1-5.53h-1.07c-1.22,1.38-2.85,2.46-4.77,3.32l-.19-.27c1.94-1.32,3.41-3.18,4.31-5.14h-2.68l-.16-.56h9.79l1.09-1.38s1.2,.95,1.98,1.63c-.06,.21-.25,.31-.54,.31h-7.39Zm-1.07-1.8c0,.17-.76,.58-1.49,.58h-.25v-7.41l1.84,.78h4.6l.89-.99,1.9,1.44c-.12,.16-.41,.31-.78,.39v4.91c-.02,.15-.89,.6-1.51,.6h-.31v-.78h-4.89v.48Zm0-5.53v1.94h4.89v-1.94h-4.89Zm4.89,4.48v-2h-4.89v2h4.89Z"/>
        <path class="cls-1" d="M193.93,115.49c1.14-.66,1.67-1.49,1.92-2.5-1.01-.45-1.65-.93-1.65-1.76,0-.7,.49-1.3,1.34-1.3s1.47,.64,1.47,1.84c0,1.47-.7,3.36-2.75,4.34l-.33-.62Z"/>
        <path class="cls-1" d="M221.5,106.74s1.38,1.01,2.19,1.71c-.04,.21-.25,.31-.52,.31h-7.37c-.6,.81-1.32,1.71-1.96,2.33h4.64l.95-1.05,1.96,1.51c-.14,.16-.41,.33-.81,.41v9.83c-.02,.14-.93,.54-1.59,.54h-.31v-1.3h-7.93v.76c0,.21-.78,.64-1.59,.64h-.29v-12.2l2.02,.85h2.27c.08-.66,.14-1.57,.19-2.33h-7.45l-.17-.54h10.36c.56-1.11,1.16-2.64,1.47-3.72l2.7,.7c-.06,.21-.29,.39-.74,.37-.68,.8-1.78,1.84-2.81,2.66h3.59l1.22-1.47Zm-11.66-2.19c4.87,1.11,3.26,4.6,1.51,3.32-.19-1.11-.99-2.37-1.69-3.18l.17-.14Zm.89,7.08v2.5h7.93v-2.5h-7.93Zm0,5.62h7.93v-2.56h-7.93v2.56Zm7.93,3.22v-2.66h-7.93v2.66h7.93Z"/>
        <path class="cls-1" d="M236.47,106.32s.56,.48,1.11,.99c.39-.74,.72-1.45,.99-2.15l2.17,1.05c-.14,.21-.33,.31-.81,.21-.76,1.47-1.76,3.03-3.03,4.54h1.01l.93-1.28s1.11,.89,1.76,1.51c-.06,.21-.25,.31-.52,.31h-3.65c-.66,.74-1.38,1.45-2.17,2.13h2.48l.87-.95,1.84,1.42c-.12,.14-.41,.31-.78,.39v7.14c-.02,.12-.87,.48-1.47,.48h-.27v-1.49h-3.47v1.22c0,.16-.54,.52-1.4,.52h-.29v-6.85c-.68,.45-1.4,.85-2.15,1.22l-.19-.21c.82-.54,1.61-1.14,2.35-1.8v-1.8l1.34,.52c.6-.62,1.18-1.26,1.71-1.94h-5.04l-.16-.54h3.55v-2.81h-2.83l-.16-.56h2.99v-2.97l2.46,.23c-.04,.27-.21,.47-.72,.54v2.19h.66l.89-1.26Zm-2.85,7.85l-.16,.12v2.52h3.47v-2.64h-3.32Zm3.32,5.88v-2.68h-3.47v2.68h3.47Zm-1.69-9.1c.7-.93,1.32-1.86,1.86-2.81h-2.19v2.81h.33Zm12.8-4.05c-.15,.17-.43,.23-.89,.23-.68,1.3-1.96,3.55-2.93,4.83,2.33,1.49,3.22,3.37,3.22,4.96,0,1.94-.78,2.99-3.01,3.06,0-.54-.1-1.2-.25-1.44-.17-.19-.58-.33-1.07-.41v-.29h1.57c.21,0,.33-.02,.48-.12,.33-.19,.52-.56,.52-1.26,0-1.45-.54-3.01-1.96-4.48,.43-1.3,1.09-3.72,1.47-5.35h-2.66v15.26c0,.14-.56,.56-1.45,.56h-.31v-17.36l2.02,.97h2.31l1.03-.99,1.9,1.8Z"/>
        <path class="cls-1" d="M255.47,117.1c.68,2.02,.47,3.55-.06,4.31-.37,.5-1.24,.62-1.59,.1-.25-.47-.04-.99,.39-1.34,.5-.56,1.07-1.9,.95-3.06h.31Zm-1.49-2.46s.45-.1,.62-.21c.95-.74,2.11-2.15,3.06-3.57-.7,.25-1.55,.54-2.4,.81-.14,.19-.29,.33-.45,.39l-.85-2.06s.39-.08,.54-.19c1.03-1.07,2.31-3.84,2.73-5.31l2.27,1.14c-.1,.17-.31,.31-.7,.27-.79,1.26-2.27,3.03-3.55,4.19,.79,0,1.84,0,2.93-.02,.45-.76,.83-1.45,1.09-2.02l2.06,1.4c-.1,.16-.37,.27-.74,.19-1.07,1.47-3.16,3.57-5.06,4.98,1.03-.06,2.42-.16,3.84-.25-.21-.7-.52-1.4-.8-1.9l.23-.1c3.61,1.96,2.11,4.67,.85,3.49-.02-.31-.06-.66-.16-.99-1.09,.39-2.62,.91-4.27,1.4-.16,.21-.33,.35-.52,.41l-.74-2.06Zm3.16,2.13c2.85,2.48,1.05,5.1-.08,3.7,.19-1.18,.04-2.64-.19-3.63l.27-.08Zm1.88-.35c3.39,1.45,1.9,4.05,.68,2.93,0-.95-.45-2.09-.91-2.81l.23-.12Zm12.66-4.6c-.14,.19-.35,.25-.79,.31-.56,2.23-1.43,4.27-2.85,6.03,1.14,1.14,2.52,2.06,4.03,2.72l-.06,.21c-.76,.06-1.36,.56-1.71,1.4-1.34-.87-2.42-1.9-3.33-3.2-1.36,1.32-3.12,2.39-5.39,3.16l-.16-.27c2.06-1.01,3.66-2.37,4.87-3.96-.93-1.73-1.59-3.82-1.98-6.4h-.29c-.31,4.03-1.22,7.74-4.11,10.67l-.31-.27c2.95-4.54,2.87-10.24,2.89-15.77h-1.44l-.17-.56h6.61l.78-.87,1.75,1.4c-.16,.16-.33,.21-.68,.25l-.66,4.6h.25l1.03-.99,1.73,1.55Zm-7.47-5.37c-.02,1.63-.04,3.24-.16,4.81h2.89l.66-4.81h-3.39Zm.48,5.37c.47,2.09,1.26,3.84,2.37,5.24,.97-1.57,1.59-3.36,1.98-5.24h-4.34Z"/>
        <path class="cls-1" d="M291.97,113.28c-.12,.19-.31,.29-.8,.23-.74,1.55-1.75,3.01-3.1,4.29,2.31,1.42,5.1,2.33,8.03,2.83l-.04,.23c-.85,.14-1.44,.74-1.71,1.63-2.89-.78-5.39-1.98-7.39-3.72-2.23,1.76-5.22,3.08-9.02,3.72l-.12-.29c3.41-.97,6.11-2.54,8.09-4.48-1.24-1.36-2.19-2.99-2.85-4.95l.27-.19c.76,1.71,1.92,3.14,3.39,4.29,1.24-1.42,2.15-3.01,2.77-4.67l2.46,1.09Zm-13.73-4.69l-.16-.54h14.53l1.16-1.65s1.28,1.12,2.06,1.88c-.06,.21-.25,.31-.54,.31h-17.05Zm.39,5.93c1.94-1.43,3.63-3.8,4.38-5.64l2.42,1.24c-.1,.19-.27,.29-.72,.23-1.22,1.61-3.37,3.41-5.93,4.4l-.16-.23Zm5.92-10.1c5.14,.68,3.76,4.48,1.88,3.28-.25-1.11-1.2-2.39-2.06-3.14l.17-.14Zm4.38,4.75c7.21,1.59,6.3,6.07,4.15,4.93-.74-1.65-2.72-3.61-4.33-4.75l.17-.17Z"/>
        <path class="cls-1" d="M308.84,114.11c-.14,.17-.33,.23-.74,.25-.47,1.38-1.34,2.91-2.58,4.07,.08,.04,.16,.1,.25,.17,1.61,1.45,3.86,1.73,7.85,1.73,2.25,0,4.13-.02,6.44-.14v.25c-.78,.16-1.2,.78-1.32,1.51h-5.72c-4.03,0-5.8-.7-7.5-2.73-.25-.31-.47-.27-.64,.04-.35,.58-1.03,1.67-1.51,2.58,.06,.15,0,.29-.14,.39l-1.34-1.82c.91-.56,2.31-1.67,2.91-1.98,.7-1.2,1.22-2.83,1.44-4.21h-1.55l-.64,.58-1.51-1.18c.17-.12,.49-.25,.76-.33,.68-.89,1.53-2.23,2.09-3.22h-3.1l-.17-.56h3.35l.87-.89,1.75,1.59c-.19,.19-.6,.29-1.05,.31-.56,.85-1.44,2.19-2.11,3.14h1.22l.97-.95,1.73,1.4Zm-5.86-9.41c4.93,.64,3.61,4.25,1.76,3.1-.23-1.05-1.14-2.25-1.94-2.97l.17-.14Zm5.76,1.32l-.17-.56h7.43l1.05-1.01,1.76,1.69c-.17,.16-.37,.19-.79,.21-.87,.56-2.4,1.22-3.68,1.69,.89,.54,.83,1.16,.43,1.49h1.67l.81-.95,1.86,1.44c-.12,.14-.43,.31-.81,.39v7.27c0,1.16-.23,1.78-2.06,1.96-.02-.45-.08-.83-.25-1.07-.17-.21-.47-.41-1.09-.5v-.29s1.09,.1,1.4,.1c.27,0,.33-.1,.33-.35v-1.8h-2.21v3.12c-.02,.1-.5,.41-1.32,.41h-.25v-3.53h-2.29v3.32c0,.16-.7,.56-1.41,.56h-.27v-10.84l1.8,.78h2.79c-.06-.04-.1-.08-.14-.12-.54-.7-1.55-1.47-3.06-2.06l.1-.29c1.65,.14,2.77,.39,3.47,.7,.64-.5,1.38-1.18,1.9-1.75h-6.98Zm1.8,4.07v2.21h2.29v-2.21h-2.29Zm2.29,5.06v-2.29h-2.29v2.29h2.29Zm1.57-5.06v2.21h2.21v-2.21h-2.21Zm2.21,5.06v-2.29h-2.21v2.29h2.21Z"/>
        <path class="cls-1" d="M327.68,117.04c.64,1.94,.45,3.45-.08,4.17-.37,.47-1.24,.56-1.55,.04-.25-.47-.04-1.01,.41-1.34,.49-.52,1.01-1.8,.89-2.87h.33Zm3.71-11.44c-.08,.17-.29,.33-.68,.29-.76,1.26-2.13,3.03-3.35,4.19,.74,.02,1.69,.02,2.64,0,.41-.72,.76-1.4,.99-1.94l2,1.36c-.1,.16-.35,.29-.74,.21-1.01,1.45-2.95,3.51-4.71,4.91,.95-.06,2.21-.14,3.53-.23-.17-.7-.43-1.38-.68-1.88l.23-.1c3.38,2.07,1.82,4.67,.66,3.47,0-.29-.04-.62-.1-.95-1.03,.37-2.42,.85-3.9,1.28-.16,.21-.35,.35-.52,.41l-.7-2.02s.43-.1,.6-.21c.87-.74,1.94-2.11,2.83-3.51-.62,.23-1.38,.5-2.13,.74-.12,.19-.27,.33-.43,.41l-.83-2.02s.37-.1,.52-.21c.93-1.05,2.13-3.82,2.52-5.29l2.25,1.11Zm-2.27,11.15c2.58,2.48,.89,4.96-.14,3.63,.19-1.14,.08-2.58-.14-3.57l.27-.06Zm1.59-.31c3.39,1.78,1.94,4.44,.72,3.28,.02-1.05-.46-2.35-.93-3.18l.21-.1Zm13.6-10.26c-.14,.16-.45,.33-.81,.39v13.58c0,1.16-.25,1.88-2.27,2.08-.06-.48-.16-.89-.43-1.11-.27-.25-.72-.45-1.61-.58v-.29s1.9,.14,2.31,.14c.35,0,.45-.12,.45-.41v-9.08c-.08,.16-.23,.21-.45,.21h-6.36l-.15-.56h3.59c.33-1.09,.74-2.62,.97-3.7l2.04,.58c-.1,.23-.33,.41-.74,.37-.43,.8-1.14,1.86-1.8,2.75h.83l.76-.99s.79,.68,1.32,1.2v-4.46h-7.23v15.55c0,.12-.5,.52-1.24,.52h-.25v-17.36l1.75,.72h6.79l.76-.93,1.8,1.38Zm-3.63,11.64c.41,.14,.54,.25,.54,.52,0,.56-.48,.74-2.52,.74h-1.2c-1.2,0-1.4-.31-1.4-1.18v-3.57h-.83l-.14-.56h4.44l.74-.97s.81,.7,1.32,1.22c-.04,.21-.23,.31-.48,.31h-3.7v3.28c0,.23,.06,.29,.45,.29h1.86c.1,0,.23-.02,.31-.02,.1-.02,.25-.04,.37-.08h.17l.08,.02Zm-5.06-10.84c3.47,1.67,2.04,4.17,.83,3.05-.04-.95-.58-2.17-1.07-2.93l.23-.12Zm1.55,4.19c3.2,1.05,1.53,3.3,.41,2.17,0-.72-.31-1.55-.62-2.08l.21-.1Z"/>
        <path class="cls-1" d="M351.42,113.47c0-1.51,1.24-2.73,2.75-2.73s2.73,1.22,2.73,2.73-1.22,2.75-2.73,2.75-2.75-1.24-2.75-2.75Zm.7,0c0,1.12,.91,2.06,2.06,2.06s2.04-.93,2.04-2.06-.91-2.04-2.04-2.04-2.06,.91-2.06,2.04Z"/>
      </g>
    </g>
  </g>
</svg>