<?xml version="1.0" encoding="UTF-8"?>
<svg id="_圖層_2" data-name="圖層 2" xmlns="http://www.w3.org/2000/svg" viewBox="0 0 801.35 236.74">
  <defs>
    <style>
      .cls-1 {
        fill: #113a58;
      }

      .cls-2 {
        fill: #e60012;
      }
    </style>
  </defs>
  <g id="_圖層_1-2" data-name="圖層 1">
    <g>
      <path class="cls-2" d="M28.6,27.2s2.84,2.17,4.59,3.64c-.1,.39-.49,.56-1.02,.56H.6l-.28-1.02H14.35v-10.5H4.73l-.28-1.02H14.35V9.91h-6.2c-2.17,3.61-4.76,6.48-7.77,8.58l-.39-.31C2.7,14.18,5.29,7.84,6.51,1.51l5.88,1.75c-.11,.42-.56,.74-1.36,.74-.7,1.79-1.43,3.43-2.31,4.94h5.64V.45l5.81,.56c-.1,.53-.35,.88-1.3,1.02v6.9h5.53l2.42-2.98s2.7,1.96,4.41,3.4c-.1,.38-.49,.56-1.05,.56h-11.31v8.96h4.38l2.45-3.05s2.8,2.07,4.48,3.5c-.1,.38-.46,.56-.95,.56h-10.36v10.5h7.21l2.52-3.19Z"/>
      <path class="cls-2" d="M36.98,8.58c9.45,.42,6.76,7.56,3.08,5.32-.46-1.85-2-3.85-3.36-5.04l.28-.28Zm10.99-.84c-1.44,3.99-4.03,11.48-4.52,13.23-.32,1.16-.6,2.38-.6,3.29,.07,1.82,1.5,3.01,1.4,6.06-.07,1.79-1.26,2.91-3.01,2.91-.84,0-1.61-.53-1.93-1.79,.66-3.68,.53-6.79-.32-7.35-.49-.35-1.08-.52-1.85-.59v-.63h1.64c.52,0,.7-.03,1.12-.73q.81-1.3,7.53-14.56l.52,.17ZM39.6,.91c9.77,.42,7.28,7.7,3.4,5.6-.6-1.89-2.31-4.06-3.68-5.32l.28-.28Zm26.46,7.91s2.49,2.06,3.96,3.47c-.1,.38-.49,.56-.98,.56h-9.1v6.72h2.94l1.93-2.1,3.96,3.05c-.25,.28-.74,.6-1.44,.74v10.47c-.03,.28-2,1.16-3.39,1.16h-.7v-2.87h-10.61v1.79c0,.38-1.75,1.26-3.47,1.26h-.53v-15.16l4.2,1.68h2.94v-6.72h-8.86l-.28-1.02h9.14V5.88c-2.84,.28-5.81,.49-8.54,.56l-.07-.52c5.92-1.19,13.44-3.54,17.29-5.32l4.06,3.92c-.42,.31-1.23,.35-2.31-.07-1.75,.35-3.92,.7-6.27,.98v6.41h3.89l2.24-3.01Zm-13.44,11.76v8.4h10.61v-8.4h-10.61Z"/>
      <path class="cls-2" d="M87.78,15.79c-1.19,.81-2.62,1.86-4.45,3.01v12.92c0,.42-1.68,1.37-3.12,1.37h-.74v-11.87c-.77,.49-1.61,.98-2.52,1.51-.1,.45-.46,.77-.84,.91l-2.59-4.41c1.26-.28,3.4-.81,5.95-1.51v-7.42h-2.17c-.77,2.8-1.86,5.39-3.22,7.35l-.52-.25c.81-3.71,1.26-8.89,1.33-13.48l4.59,.7V.42l5.15,.52c-.1,.49-.35,.84-1.29,.98v7.21l1.65-2.7s2.03,2,3.12,3.29c-.07,.39-.42,.56-.91,.56h-3.85v6.34c1.44-.39,2.87-.77,4.34-1.23l.11,.38Zm-8.3-6.48V5.04c-.21,.28-.52,.46-1.08,.53-.21,1.26-.49,2.52-.81,3.75h1.89Zm23.63,6.65s2.24,1.82,3.61,3.08c-.1,.39-.45,.56-.94,.56h-5.43v9.03c0,2.73-.7,4.2-5.57,4.62-.14-1.19-.35-2.03-1.05-2.62-.7-.56-1.61-.98-3.71-1.3v-.45s4.66,.28,5.5,.28c.63,0,.81-.21,.81-.7v-8.86h-10.85l-.28-.98h11.13v-4.17l5.25,.46c-.1,.53-.42,.81-1.23,.91v2.8h.73l2.03-2.66Zm-17.19-9.45h7.18V.28l5.11,.46c-.04,.46-.32,.77-1.12,.91V6.51h3.08l2.1-2.73s2.42,1.86,3.89,3.19c-.1,.39-.46,.56-.98,.56h-8.09v5.36h2.41l2.03-2.62s2.35,1.79,3.75,3.08c-.07,.39-.46,.56-.98,.56h-16.87l-.28-1.02h5.95V7.53h-6.86l-.32-1.02Zm1.68,13.79c9.66,2.17,6.62,9.1,3.01,6.55-.49-2.14-2.03-4.66-3.33-6.34l.31-.21Z"/>
      <path class="cls-2" d="M139.67,28.25c1.96,.35,2.42,.91,2.42,1.61,0,1.93-2.35,2.27-14.14,2.27h-7.74c-5.67,0-8.19-.59-8.19-4.59V3.78h-1.23l-.31-.98h24.75l2.1-2.8s2.35,1.93,3.78,3.22c-.11,.38-.49,.56-.98,.56h-24.33V27.02c0,1.58,.95,2.07,3.99,2.07h8.47c3.01,0,5.71-.07,6.76-.18,.66-.03,1.5-.14,2.06-.21,.49-.07,1.23-.25,2-.49h.38l.21,.04Zm-15.65-.94v-1.72h-2.91v1.47c0,.28-1.47,1.05-2.87,1.05h-.49v-11.87l3.5,1.4h2.45l1.58-1.65,3.29,2.48c-.17,.21-.59,.49-1.15,.56v7.35c-.04,.25-1.72,.91-2.84,.91h-.56Zm7.91-13.55h-6.97v.98c0,.35-1.75,1.19-3.33,1.19h-.56V5.08l4.06,1.58h6.48l1.79-1.93,3.75,2.84c-.21,.25-.63,.52-1.26,.66v6.16c-.04,.25-2.03,.94-3.26,.94h-.7v-1.57Zm-7.91,10.82v-5.92h-2.91v5.92h2.91Zm7.91-11.83V7.67h-6.97v5.08h6.97Zm3.85,14.42v-1.58h-3.01v.91c0,.31-1.51,1.05-2.91,1.05h-.49v-11.31l3.54,1.4h2.56l1.61-1.68,3.36,2.56c-.17,.21-.59,.45-1.15,.56v7.18c-.04,.21-1.79,.91-2.91,.91h-.6Zm0-2.59v-5.92h-3.01v5.92h3.01Z"/>
      <path class="cls-2" d="M167.03,4.69c-.84,2.03-1.89,4.06-3.15,6.02l2.17,.81c-.11,.31-.42,.56-1.09,.66v20.06c-.04,.24-1.89,.91-3.43,.91h-.77V15.02c-3.78,4.62-8.61,8.75-14.14,11.62l-.28-.28c7.04-5.67,13.02-14.32,15.19-21.67h-14.42l-.28-.98h25.24l2.52-3.22s2.87,2.17,4.59,3.64c-.1,.39-.49,.56-1.02,.56h-11.13Zm-.63,8.86c15.86,3.43,14.11,12.88,9.42,10.57-1.89-3.54-6.27-7.74-9.73-10.26l.31-.32Z"/>
      <path class="cls-2" d="M195.26,1.96c-.11,.46-.56,.77-1.37,.73-1.02,2.66-2.17,5.08-3.5,7.28l1.93,.7c-.1,.32-.42,.56-1.09,.67V31.92c-.07,.35-1.75,1.23-3.36,1.23h-.77V14.6c-1.3,1.51-2.66,2.84-4.13,3.99l-.46-.28c2.87-4.38,5.71-11.27,7.11-18.03l5.64,1.68Zm17.08,26.22s2.56,2.03,4.13,3.43c-.1,.39-.49,.56-.98,.56h-22.51l-.28-1.02h9.42v-3.78h-6.9l-.25-1.02h7.14v-3.36h-7.77l-.28-.98h8.05v-3.33h-3.47v.6c0,.31-1.86,1.19-3.47,1.19h-.56V10.96l4.24,1.68h3.26v-2.77h-.39v.28c0,.25-1.58,.81-3.05,.81h-.63V5.85h-4.2l-.28-.98h4.48V.28l5.01,.46c-.07,.49-.35,.84-1.33,.98v3.15h4.8V.28l4.97,.46c-.07,.49-.31,.84-1.3,.98v3.15h1.12l1.79-2.63s2.03,1.82,3.22,3.05c-.1,.39-.46,.56-.95,.56h-5.18v3.85c0,.25-1.58,.81-3.04,.81h-.63v-.63h-.35v2.77h3.33l1.85-1.96,3.82,2.87c-.17,.25-.63,.53-1.26,.67v4.31c-.03,.21-1.23,.73-2.42,.95,.6,.45,2.45,1.89,3.64,2.98-.07,.39-.46,.56-.94,.56h-8.02v3.36h2.42l2.06-2.56s2.24,1.75,3.68,3.01c-.11,.39-.49,.56-.98,.56h-7.18v3.78h3.85l2.31-2.98Zm-10.22-10.47v-4.06h-3.47v4.06h3.47Zm-.39-8.86h4.8v-3.01h-4.8v3.01Zm4.45,4.8v4.06h3.68v-4.06h-3.68Zm0,8.37h3.01l1.96-2.49c-.21,.04-.42,.04-.6,.04h-.7v-.88h-3.68v3.33Z"/>
      <path class="cls-2" d="M238.57,28.88c.66,.03,1.36,.03,2.1,.03,2.66,0,9.1,0,11.9-.07v.42c-1.3,.28-1.93,1.68-1.93,3.22h-10.05c-6.23,0-9.66-1.36-11.66-6.9-1.79,2.97-4.69,5.71-9.35,7.53l-.28-.35c4.97-3.68,6.72-9.17,7.18-13.69l5.71,1.09c-.14,.49-.45,.81-1.33,.81-.35,1.3-.81,2.56-1.47,3.82,1.19,1.96,2.73,3.01,4.8,3.57v-10.85h-14.14l-.28-.98h26.5l2.24-2.98s2.45,2.03,3.96,3.4c-.11,.39-.49,.56-.98,.56h-12.92v4.83h4.24l2.35-3.15s2.7,2.14,4.27,3.61c-.1,.38-.45,.56-.98,.56h-9.87v5.53Zm-8.65-14.67c0,.42-1.93,1.37-3.71,1.37h-.63V.91l4.59,1.82h11.94l1.96-2.17,4.16,3.12c-.21,.28-.7,.63-1.4,.77V14c-.04,.21-2.24,.98-3.64,.98h-.73v-1.79h-12.53v1.01Zm0-10.5v3.71h12.53V3.71h-12.53Zm12.53,8.47v-3.78h-12.53v3.78h12.53Z"/>
      <path class="cls-2" d="M285,10.29s2.42,1.82,3.92,3.12c-.11,.38-.49,.56-1.01,.56h-31.08l-.31-.98h13.97v-3.33h-9.59l-.28-.98h9.87v-3.12h-11.59l-.25-.98h11.83V.28l5.43,.46c-.07,.49-.35,.84-1.3,.98v2.87h6.62l2.17-2.7s2.41,1.82,3.85,3.12c-.11,.38-.42,.56-.94,.56h-11.69v3.12h4.66l2.07-2.52s2.31,1.72,3.75,2.94c-.1,.39-.49,.56-.98,.56h-9.49v3.33h8.23l2.17-2.7Zm-5.01,3.99l4.03,3.08c-.21,.25-.67,.56-1.4,.7v10.64c0,2.52-.7,3.99-5.46,4.38-.11-1.16-.31-2.03-.88-2.59-.59-.49-1.37-.94-3.29-1.26v-.46s3.85,.28,4.76,.28c.56,0,.74-.25,.74-.7v-2.77h-11.73c-.73,2.84-2.59,5.74-7.21,7.7l-.28-.35c3.47-3.33,3.82-7.63,3.82-11.48v-6.76l4.76,1.68h10.29l1.86-2.1Zm-1.5,10.33v-3.15h-11.27c0,.98-.04,2.06-.25,3.15h11.52Zm-11.27-7.21v3.08h11.27v-3.08h-11.27Z"/>
      <path class="cls-2" d="M316.34,7.11v4.17h3.47l1.89-2.21,4.06,3.15c-.25,.31-.77,.67-1.54,.81v15.37c0,2.77-.53,4.27-4.62,4.62-.07-1.26-.18-2.24-.49-2.84-.31-.56-.84-1.02-2-1.23v-.49s1.93,.14,2.49,.14c.46,0,.6-.25,.6-.63v-3.96h-3.85v7.21c0,.42-1.75,1.4-3.12,1.4h-.81v-8.61h-3.68v7.91c0,.28-1.23,1.23-3.22,1.23h-.7v-13.06c-2.14,1.58-5.39,3.89-9.87,6.65-.18,.46-.52,.84-.95,.98l-1.82-4.76c.91-.21,2.52-.59,4.45-1.12V11.1h-3.43l-.28-1.02h3.71V.88l5.29,.45c-.07,.49-.35,.84-1.3,1.02v7.74h.35l1.75-2.91s1.15,1.19,2.17,2.35l4.31,1.75h3.22V7.11h-8.51l-.28-.98h8.79V.49l4.97,.49c-.04,.42-.28,.7-1.05,.84V6.13h3.75l.56-.74c-.32-.07-.67-.21-1.02-.46-.14-1.33-1.05-2.83-1.96-3.61l.28-.24c3.89,.07,5.08,1.61,4.87,2.84,.81,.63,2.21,1.79,3.22,2.63-.1,.38-.45,.56-.94,.56h-8.75Zm-15.72,13.62c1.37-.38,2.8-.8,4.2-1.23V11.1h-4.2v9.63Zm8.12-8.47v4.8h3.68v-4.8h-3.68Zm3.68,10.78v-4.97h-3.68v4.97h3.68Zm3.92-10.78v4.8h3.85v-4.8h-3.85Zm3.85,10.78v-4.97h-3.85v4.97h3.85Z"/>
      <path class="cls-2" d="M357.98,4.13s2.73,2.1,4.31,3.5c-.1,.39-.49,.56-.94,.56h-31.71l-.28-.98h18.73c.95-2.07,2-4.87,2.56-6.86l5.78,1.43c-.14,.46-.56,.74-1.37,.74-1.4,1.33-3.71,3.22-5.85,4.69h6.41l2.38-3.08Zm-15.65,5.67l3.89,3.01c-.21,.28-.7,.6-1.44,.7v15.16c0,2.59-.52,4.06-4.55,4.38-.04-1.15-.17-2.03-.52-2.62-.35-.53-.84-.95-2.07-1.19v-.46s2.03,.14,2.66,.14c.49,0,.6-.25,.6-.63v-4.55h-4.8c-.35,3.47-1.61,7-5.81,9.56l-.31-.31c2.31-3.5,2.38-8.05,2.38-12.57V10.26l4.52,1.61h3.68l1.79-2.07Zm-1.44,12.92v-4.62h-4.66v2.31c0,.77,0,1.54-.07,2.31h4.73Zm-4.66-9.84v4.2h4.66v-4.2h-4.66Zm.59-12.39c9.94,.88,6.62,8.47,2.7,5.81-.35-2.03-1.68-4.2-2.98-5.57l.28-.25Zm14.7,25.17c0,.31-1.61,.91-3.05,.91h-.7V11.1l5.04,.45c-.07,.49-.32,.84-1.3,.98v13.13Zm3.22-15.65l5.15,.49c-.07,.49-.42,.8-1.23,.91V28.53c0,2.73-.63,4.24-5.22,4.62-.07-1.19-.28-2.06-.84-2.7-.56-.56-1.36-.98-3.19-1.29v-.46s3.85,.21,4.59,.21c.56,0,.73-.14,.73-.59V10.01Z"/>
      <path class="cls-2" d="M378.92,2.28s2.28,1.89,3.57,3.22c-.11,.39-.46,.56-.94,.56h-5.67l.39,3.08c-.6,.77-2.1,1.09-3.92,1.05l-.49-4.13h-5.88l-.28-1.02h6.06l-.52-4.59,5.15,.35c-.04,.42-.32,.81-1.02,.98l.39,3.26h1.23l1.96-2.77Zm-12.88,20.86c3.26-2.8,6.93-7.7,9.1-12.95l5.36,2.31c-.17,.42-.66,.7-1.44,.59-.98,1.4-2.03,2.63-3.12,3.75l1.54,.6c-.11,.31-.42,.56-1.09,.66v14c-.04,.28-1.72,1.02-3.26,1.02h-.74v-13.13c-1.96,1.47-4.03,2.59-6.06,3.5l-.31-.35Zm30.77,4.76c1.12,.46,1.44,.91,1.44,1.68,0,1.79-1.65,2.52-7.6,2.52h-3.6c-3.64,0-4.59-.77-4.59-3.68V10.75l5.22,.49c-.04,.46-.35,.81-1.19,.91v6.41h4.8l2.14-2.98s2.42,2.03,3.85,3.43c-.1,.38-.49,.56-1.02,.56h-9.77v7.77c0,.66,.28,.91,1.47,.91h3.12c1.15,0,2.14,0,2.66-.07,.38-.04,.66-.14,.91-.49,.42-.63,1.02-2.49,1.65-4.69h.39l.14,4.9Zm-1.4-25.62s2.31,1.89,3.61,3.22c-.07,.39-.42,.56-.91,.56h-7.25l-.52,3.36c-.73,.56-2.31,.81-4.03,.46l.6-3.82h-3.29l-.28-1.02h3.71l.7-4.59,5.04,.98c-.1,.42-.42,.77-1.36,.84l-.42,2.77h2.49l1.93-2.77Z"/>
      <path class="cls-2" d="M434.81,3.78c-.25,.32-.74,.59-1.44,.77V31.61c-.03,.31-1.96,1.33-3.5,1.33h-.63v-2.66h-20.93v1.33c0,.52-1.61,1.54-3.36,1.54h-.7V1.05l4.41,1.82h20.23l2-2.24,3.92,3.15Zm-5.57,25.52V3.85h-20.93V29.3h5.71l-1.79-2.7c1.08-.7,1.26-.98,1.26-1.54v-1.65c-1.47,.63-3.05,1.16-4.69,1.61l-.28-.6c2.8-1.23,5.32-2.98,7-4.87h-1.09v.14c0,.28-1.54,.95-2.87,.95h-.49v-7.74l3.5,1.4h8.3l1.54-1.58,3.22,2.38c-.18,.21-.53,.42-1.02,.53v3.75c0,.07-.14,.14-.32,.25l2.27,2.03c-.21,.28-.52,.35-1.12,.11-.73,.32-1.82,.7-2.91,1.05,5.67,2.87,3.78,6.51,1.47,5.25-1.02-1.65-3.85-4.45-7.49-6.69l.25-.49c1.75,.38,3.22,.84,4.45,1.33,.63-.7,1.33-1.51,1.93-2.17-.49,.11-.98,.21-1.4,.21h-.59v-.7h-3.57c-.81,.8-1.75,1.5-2.8,2.17v1.89h-.03v1.75c1.33-.39,2.87-.81,4.38-1.26l.1,.46c-1.26,.84-3.89,2.59-6.58,4.27-.14,.21-.32,.35-.46,.46h15.05Zm-3.4-20.3s2.03,1.54,3.25,2.63c-.1,.38-.45,.56-.94,.56h-19.11l-.28-.98h8.12v-2.56h-6.3l-.28-.98h6.58v-3.08l4.66,.42c-.04,.42-.28,.7-.98,.8v1.86h2.38l1.71-2.03s1.96,1.4,3.15,2.45c-.07,.39-.42,.56-.91,.56h-6.34v2.56h3.5l1.79-2.2Zm-2.7,6.34h-8.72v3.26h8.72v-3.26Z"/>
      <path class="cls-2" d="M452.43,20.79c2.24-1.19,3.26-2.8,3.75-4.76-1.96-.77-3.47-1.68-3.47-3.43,0-1.43,1.08-2.66,2.77-2.66s2.98,1.26,2.98,3.57c0,2.94-1.44,6.58-5.43,8.4l-.59-1.12Z"/>
      <path class="cls-1" d="M485.84,15.61c-.11,.35-.46,.56-1.09,.66v15.72c-.03,.21-1.23,.81-2.27,.81h-.56v-14.67c-1.75,1.68-3.71,3.15-5.92,4.41l-.39-.42c4.59-3.54,8.02-8.54,10.36-13.65h-9.07l-.28-1.02h9.77c.98-2.35,1.75-4.69,2.31-6.9l4.38,1.19c-.14,.46-.42,.63-1.37,.63-.56,1.65-1.26,3.36-2.07,5.08h12.5l1.93-2.42s2.17,1.68,3.5,2.87c-.07,.38-.46,.56-.95,.56h-17.5c-1.23,2.31-2.7,4.59-4.45,6.72l1.16,.42Zm18.83,11.9s2.1,1.65,3.43,2.8c-.1,.38-.46,.56-.95,.56h-21.25l-.28-1.02h8.89v-10.68h-6.9l-.28-1.05h7.18V10.08l3.96,.39c-.07,.46-.35,.77-1.12,.91v6.76h3.36l1.79-2.17s2,1.5,3.26,2.66c-.1,.39-.46,.56-.95,.56h-7.46v10.68h5.43l1.89-2.35Z"/>
      <path class="cls-1" d="M537.54,16.21c-.21,.38-.56,.56-1.44,.42-1.3,2.91-3.22,5.57-5.67,7.91,4.13,2.7,9.24,4.48,14.7,5.46l-.07,.42c-1.33,.17-2.24,1.05-2.66,2.45-5.39-1.43-10.01-3.61-13.69-6.83-4.03,3.22-9.38,5.64-16.17,6.83l-.21-.52c6.13-1.72,11.03-4.45,14.7-7.95-2.31-2.45-4.13-5.39-5.36-8.93l.56-.38c1.37,3.15,3.47,5.78,6.13,7.95,2.35-2.56,4.06-5.46,5.22-8.54l3.96,1.72Zm-24.47-8.23l-.28-1.05h26.57l1.86-2.66s2.14,1.86,3.4,3.15c-.07,.39-.42,.56-.95,.56h-30.59Zm.77,10.47c3.47-2.49,6.58-6.58,7.98-9.77l3.89,1.93c-.17,.35-.49,.52-1.29,.38-2.1,2.84-5.88,6.06-10.26,7.91l-.32-.46Zm10.75-17.92c8.54,1.54,6.44,7.67,3.43,5.74-.46-1.89-2.24-4.17-3.75-5.46l.31-.28Zm7.81,8.58c12.36,3.33,11.03,10.5,7.56,8.68-1.26-2.84-4.94-6.34-7.84-8.33l.28-.35Z"/>
      <path class="cls-1" d="M561.11,17.89c-.25,.31-.6,.38-1.33,.42-.74,2.52-2.17,5.29-4.31,7.42,.18,.07,.32,.17,.53,.35,2.94,2.83,6.9,3.33,13.9,3.29,4.06,0,7.46,0,11.62-.21v.45c-1.19,.25-1.82,1.16-2,2.28h-10.5c-7.14,0-10.4-1.12-13.48-4.76-.46-.56-.84-.49-1.12,0-.74,1.02-2.1,3.05-3.01,4.59,.14,.28,.03,.53-.21,.74l-2.17-2.87c1.61-1.09,4.1-3.15,5.22-3.78,1.33-2.14,2.35-5.11,2.7-7.67h-3.4l-1.05,.95-2.35-2c.35-.21,.88-.42,1.4-.56,1.23-1.68,2.84-4.13,3.89-5.95h-5.74l-.31-1.02h6.2l1.4-1.43,2.98,2.59c-.35,.38-1.12,.56-2.03,.56-1.01,1.58-2.62,4.1-3.92,5.85h2.77l1.58-1.54,2.77,2.31Zm-10.05-16.87c8.23,1.54,6.16,7.32,3.33,5.53-.46-1.86-2.17-4.03-3.68-5.32l.35-.21Zm10.26,2.31l-.31-1.02h13.79l1.71-1.61,2.91,2.73c-.31,.28-.73,.35-1.5,.38-1.54,1.05-4.34,2.31-6.65,3.22,1.54,.94,1.54,1.96,.98,2.52h3.26l1.26-1.51,3.12,2.35c-.21,.24-.77,.56-1.47,.7v13.51c0,1.92-.38,2.98-3.43,3.29-.04-.66-.14-1.29-.49-1.68-.38-.35-.94-.66-2.13-.84v-.53s2.24,.18,2.83,.18c.53,0,.67-.18,.67-.63v-3.54h-4.59v5.67c0,.14-.81,.7-2.07,.7h-.38v-6.37h-4.69v6.13c0,.28-1.05,.91-2.17,.91h-.42V8.33l2.8,1.23h5.71l-.07-.11c-1.09-1.29-3.11-2.7-6.06-3.82l.17-.56c2.98,.32,5.01,.88,6.3,1.47,1.29-.95,2.84-2.14,3.88-3.22h-12.95Zm2.8,7.28v4.03h4.69v-4.03h-4.69Zm4.69,9.24v-4.17h-4.69v4.17h4.69Zm2.45-9.24v4.03h4.59v-4.03h-4.59Zm4.59,9.24v-4.17h-4.59v4.17h4.59Z"/>
      <path class="cls-1" d="M614.29,5.25s2.24,1.68,3.57,2.91c-.11,.38-.46,.56-.91,.56h-17.26c-.14,2.06-.31,4.06-.63,5.92h9.91l1.61-1.65,2.97,2.52c-.25,.25-.7,.46-1.47,.56-.42,8.23-1.37,13.76-3.12,15.37-1.05,.91-2.42,1.37-4.24,1.37,0-.84-.18-1.58-.7-1.96-.6-.49-2.21-.95-3.75-1.19l.04-.56c1.65,.14,4.48,.38,5.29,.38,.7,0,1.01-.07,1.4-.42,1.12-1.02,1.89-6.23,2.28-13.41h-10.36c-1.33,7.53-4.45,13.37-12.32,17.36l-.32-.42c7.91-5.99,9.8-13.93,10.08-23.87h-10.33l-.32-1.02h26.64l1.92-2.45Zm-15.82-4.9c8.82,2.17,6.54,8.4,3.57,6.34-.46-2.07-2.28-4.55-3.92-6.09l.35-.25Z"/>
      <path class="cls-1" d="M650.91,1.05s2.28,1.68,3.61,2.87c-.11,.39-.46,.56-.91,.56h-13.79c-1.05,1.75-2.38,3.75-3.46,5.18h12.5l1.47-1.75,3.01,2.38c-.25,.32-.67,.53-1.44,.67V31.64c0,.21-1.05,.84-2.42,.84h-.46v-2.52h-21.46v1.96c0,.21-.91,.84-2.31,.84h-.45V8.37l3.19,1.29h7.21c.28-1.44,.63-3.54,.84-5.18h-13.34l-.32-.98h26.57l1.96-2.45Zm-23.35,27.9h5.11V10.71h-5.11V28.95Zm13.58-18.24h-5.85v5.29h5.85v-5.29Zm0,6.3h-5.85v5.43h5.85v-5.43Zm-5.85,11.94h5.85v-5.5h-5.85v5.5Zm8.51-18.24V28.95h5.22V10.71h-5.22Z"/>
      <path class="cls-1" d="M672.09,20.09c1.92-1.19,2.87-2.63,3.29-4.34-1.75-.84-2.66-1.75-2.66-3.01,0-1.12,.77-2.14,2.2-2.14s2.42,1.09,2.42,3.19c0,2.45-1.12,5.71-4.66,7.42l-.59-1.12Z"/>
      <path class="cls-1" d="M725.13,26.88s1.58,1.37,2.45,2.38c-.07,.39-.35,.56-.84,.56h-9.8v1.96c0,.21-.81,.84-1.96,.84h-.38v-14.39c-.21,.31-.56,.49-1.16,.52-.98,5.32-3.4,10.99-9.66,14.28l-.35-.38c3.82-2.73,5.92-6.83,6.93-10.99-1.12,.49-2.59,1.12-3.99,1.68-.25,.35-.53,.56-.81,.67l-1.15-3.15s.7-.14,.91-.32c1.22-1.12,2.55-3.12,3.75-5.15-.81,.28-1.68,.6-2.52,.84-.25,.45-.53,.74-.84,.84l-.77-1.79c-.73,.52-1.61,1.19-2.7,1.93v11.83c0,2.14-.38,3.4-3.54,3.71-.07-.88-.21-1.61-.59-2.03-.35-.49-1.02-.77-2.24-.98v-.56s2.52,.21,3.08,.21c.53,0,.66-.18,.66-.63v-9.66c-.77,.49-1.58,1.05-2.41,1.61-.11,.46-.35,.84-.7,.98l-1.4-3.29c.91-.28,2.56-.88,4.52-1.61v-7.28h-3.89l-.28-1.05h4.16V.56l3.89,.42c-.07,.49-.42,.84-1.26,.94v6.55h.28l1.44-2.07s1.68,1.47,2.62,2.56c-.11,.39-.42,.56-.91,.56h-3.43v6.3c.84-.31,1.68-.66,2.52-1.02l-.35-.81s.59-.11,.8-.24c1.37-1.4,2.98-5.11,3.54-6.97l3.4,1.58c-.14,.31-.53,.63-1.26,.52-1.05,1.64-2.8,3.71-4.34,5.25h3.22c.73-1.37,1.29-2.62,1.68-3.64l2.94,1.89c.63-1.79,1.16-3.75,1.5-5.67l3.68,1.02c-.14,.39-.56,.74-1.33,.7-.46,1.23-.98,2.41-1.54,3.54l.67,.28h5.99l1.3-1.75s1.54,1.26,2.45,2.21c-.07,.38-.42,.56-.88,.56h-3.92v4.31h.95l1.19-1.71s1.37,1.26,2.21,2.21c-.1,.39-.42,.56-.88,.56h-3.46v4.41h.95l1.19-1.72s1.37,1.23,2.21,2.17c-.1,.38-.42,.56-.88,.56h-3.46v4.76h1.5l1.33-1.93Zm-.42-23.8s2,1.54,3.25,2.7c-.1,.38-.46,.56-.94,.56h-21.42l-.28-1.05h17.61l1.79-2.21Zm-10.12,14.81v-2.49c-.53,.67-1.09,1.33-1.65,1.89l-.49-.35c.63-1.16,1.26-2.59,1.82-4.17-.25,.14-.6,.18-1.02,.11-1.47,2.38-4.17,5.74-6.65,8.05,1.12-.07,2.55-.21,4.03-.38,.21-1.08,.38-2.21,.49-3.33l3.46,.67Zm-1.22-17.57c7.07,1.09,4.9,6.27,2.27,4.48-.28-1.47-1.54-3.26-2.62-4.24l.35-.24Zm3.57,12.95v4.31h3.15v-4.31h-3.15Zm3.15,5.36h-3.15v4.41h3.15v-4.41Zm-3.15,10.19h3.15v-4.76h-3.15v4.76Zm2.76-21.95c5.43,2.38,2.91,6.23,1.02,4.38,0-1.4-.7-3.12-1.44-4.2l.42-.18Z"/>
      <path class="cls-1" d="M760.39,3.89s2.13,1.61,3.47,2.84c-.07,.39-.46,.56-.95,.56h-17.15c-.8,1.54-1.75,3.15-2.87,4.66l.74,.28h11.8l1.47-1.71,3.39,2.56c-.28,.35-.88,.66-1.64,.81v15.23c0,2.1-.46,3.4-4.2,3.75-.14-.91-.32-1.61-.81-2.07-.52-.46-1.4-.81-3.08-1.05v-.52s3.68,.25,4.45,.25c.66,0,.8-.21,.8-.74v-4.66h-13.06c-.56,3.15-1.82,6.41-4.94,8.89l-.42-.38c2.7-4.13,2.91-9.21,2.91-13.9v-3.47c-2.17,2.38-4.83,4.55-7.88,6.27l-.35-.42c4.66-3.57,8.19-8.68,10.54-13.76h-9.73l-.28-1.02h10.47c.84-1.96,1.54-3.92,2.03-5.78l4.27,1.26c-.14,.38-.46,.63-1.4,.59-.49,1.3-1.05,2.63-1.68,3.92h12.15l1.96-2.38Zm-4.59,19.15v-4.41h-12.67v.04c0,1.33-.04,2.87-.25,4.38h12.92Zm-12.67-9.8v4.38h12.67v-4.38h-12.67Z"/>
      <path class="cls-1" d="M775.41,12.46c5.71,3.19,3.71,7.18,1.72,5.53-.18-1.3-.91-2.91-1.72-4.27V31.82c0,.35-1.12,1.02-2.03,1.02h-.52v-15.3c-1.09,2.59-2.45,4.97-4.2,7.14l-.52-.46c2.24-3.99,3.5-9.14,4.24-14.25h-3.5l-.28-1.02h4.27V.45l3.78,.42c-.07,.53-.35,.84-1.23,.98v7.07l1.4-1.96s1.65,1.43,2.66,2.45c-.1,.39-.42,.56-.91,.56h-3.15v2.49Zm24.47,17.61c1.05,1.05,1.16,1.47,.91,1.96-.66,1.26-2.62,.63-4.24-.24-1.5-.7-2.77-1.75-3.78-3.05-2.56,1.93-5.46,3.19-8.51,3.96l-.25-.52c2.7-1.12,5.39-2.8,7.67-5.08-1.12-1.96-1.89-4.34-2.35-7.07h-4.52c-.07,.91-.17,1.82-.35,2.73,5.85,1.54,4.03,5.74,1.68,4.27-.28-1.02-1.05-2.17-1.92-3.08-.81,3.22-2.62,6.37-6.86,8.82l-.53-.52c4.45-3.78,5.04-8.26,5.18-12.22h-3.01l-.28-1.02h10.43c-.56-3.29-.77-7.07-.88-11.31-.25,.14-.56,.24-.98,.17-1.29,1.96-3.61,4.66-5.74,6.62,1.19-.11,2.62-.25,4.16-.39-.25-.91-.59-1.79-.95-2.41l.46-.17c4.8,3.15,2.49,6.76,.84,5.01,0-.52-.04-1.05-.18-1.64-1.15,.49-2.83,1.09-4.51,1.68-.21,.38-.46,.66-.7,.77l-1.44-2.77s.56-.14,.77-.28c1.22-1.09,2.59-3.01,3.67-4.94-.7,.28-1.58,.63-2.42,.91-.21,.46-.46,.73-.74,.88l-1.47-2.94s.56-.14,.77-.25c1.47-1.4,3.19-4.97,3.78-6.79l3.25,1.54c-.14,.28-.53,.6-1.23,.53-1.08,1.58-2.83,3.6-4.48,5.08,.95-.03,2.1-.11,3.22-.21,.49-.88,.91-1.68,1.19-2.35l2.7,1.47c-.07-2.07-.07-4.24-.07-6.51l3.85,.45c-.07,.46-.38,.88-1.26,1.02-.11,6.44-.07,12.25,.7,16.84h5.15l1.51-1.82s1.68,1.29,2.76,2.28c-.07,.38-.42,.56-.91,.56h-8.3c.39,1.96,.95,3.71,1.65,5.15,1.05-1.23,1.96-2.66,2.7-4.2l3.12,1.93c-.25,.35-.56,.46-1.33,.28-.95,1.51-2.03,2.8-3.19,3.96,.81,.91,1.68,1.64,2.8,2.17,.59,.31,.77,.28,1.05-.35,.42-.95,.98-2.66,1.4-4.17l.42,.04-.46,5.25Zm-8.96-21.84s.49-.14,.7-.28c1.19-1.33,2.59-4.87,3.04-6.69l3.36,1.54c-.14,.28-.52,.6-1.22,.53-.95,1.47-2.42,3.4-3.78,4.83,.88-.04,1.89-.11,2.87-.18,.56-1.02,.98-1.93,1.26-2.66l3.01,1.96c-.17,.28-.6,.49-1.23,.35-1.22,1.75-3.25,4.13-5.18,5.88,1.16-.11,2.59-.21,4.1-.39-.28-.7-.63-1.37-.98-1.89l.42-.17c5.15,2.73,2.87,6.62,1.12,4.83,0-.63-.11-1.33-.32-1.96-1.16,.39-2.84,.98-4.55,1.54l-.07,.18,.31-.21c4.8,1.12,2.66,4.45,.91,2.98-.07-.98-.63-2.07-1.26-2.7-.21,.31-.42,.56-.66,.66l-1.33-2.8s.59-.14,.77-.28c.95-.88,2.07-2.42,3.01-4.03-.7,.28-1.47,.56-2.21,.84-.21,.46-.46,.77-.74,.91l-1.37-2.8Z"/>
      <path class="cls-1" d="M12.43,69.91c-2.21,1.58-5.43,3.96-9.77,6.72-.07,.42-.35,.81-.7,.98l-1.68-3.39c.91-.32,2.52-.91,4.48-1.68v-10.5H1.02l-.28-.98H4.76v-9.1l4.03,.42c-.07,.49-.39,.84-1.26,.94v7.74h.49l1.54-2.38s1.79,1.68,2.77,2.84c-.1,.35-.45,.52-.88,.52h-3.92v9.38c1.5-.6,3.12-1.26,4.73-1.96l.17,.46Zm6.3-2.31c-.52,.98-1.12,1.92-1.79,2.8h11.59l1.51-1.51,2.87,2.38c-.28,.28-.67,.46-1.4,.56-.46,6.2-1.51,9.66-3.08,10.89-.98,.73-2.21,1.09-3.6,1.09,0-.77-.14-1.47-.56-1.86-.46-.42-1.51-.77-2.59-.94v-.6c1.15,.1,3.12,.25,3.78,.25,.6,0,.88-.07,1.23-.31,.88-.74,1.72-3.82,2.14-8.89h-2.21c-1.93,5.39-5.64,9.45-11.52,12.29l-.32-.53c4.45-2.94,7.32-7,8.89-11.76h-2.35c-2.45,4.45-6.55,8.02-11.83,10.47l-.38-.56c4.13-2.52,7.42-6.02,9.42-9.91h-2.45c-2.1,2.31-4.8,4.2-8.02,5.67l-.35-.49c3.47-2.31,6.16-5.57,7.81-9.03h-5.11l-.28-1.02H28.14l1.79-2.24s2.03,1.54,3.29,2.7c-.1,.38-.46,.56-.91,.56h-13.58Zm-2-3.15c0,.28-1.19,.84-2.28,.84h-.42v-13.16l2.87,1.23h8.93l1.47-1.58,3.12,2.41c-.25,.25-.77,.56-1.47,.66v9.07c-.04,.28-1.33,.98-2.31,.98h-.45v-1.47h-9.45v1.02Zm0-10.05v3.47h9.45v-3.47h-9.45Zm9.45,8.02v-3.57h-9.45v3.57h9.45Z"/>
      <path class="cls-1" d="M47.85,66.45c-1.09,.66-2.42,1.43-3.99,2.35v11.27c0,2.17-.38,3.4-3.78,3.75-.07-.88-.25-1.58-.67-2-.49-.46-1.23-.77-2.56-.98v-.52s2.94,.21,3.57,.21c.56,0,.73-.17,.73-.67v-9.52c-.94,.53-2,1.09-3.08,1.68-.1,.42-.39,.77-.77,.91l-1.37-3.43c1.05-.25,2.94-.77,5.22-1.47v-7.39h-4.38l-.28-1.02h4.66v-8.12l3.96,.42c-.07,.52-.42,.88-1.26,.98v6.72h.56l1.51-2.24s1.68,1.58,2.66,2.7c-.11,.38-.42,.56-.91,.56h-3.82v6.55c1.26-.38,2.56-.8,3.85-1.23l.14,.49Zm10.29,13.51c1.15,.14,2.45,.18,3.89,.18,1.65,0,5.39,0,7.25-.04v.46c-.94,.21-1.36,1.12-1.36,2.24h-6.06c-5.78,0-9.1-1.26-11.17-6.3-1.33,3.43-3.36,5.81-6.13,7.35l-.46-.42c2.8-2.83,4.59-7,4.94-12.32l4.03,.74c-.1,.46-.49,.77-1.29,.81-.21,1.05-.46,2.03-.77,2.91,1.09,2,2.52,3.15,4.41,3.82v-9.84h-6.72l-.31-1.02h7.04v-3.64h-8.75l-.28-1.02h9.03v-3.4h-6.37l-.31-1.02h6.69v-2.98h-8.23l-.28-1.02h8.51v-3.82l3.92,.42c-.07,.49-.35,.84-1.19,.95v2.45h5.36l1.75-2.31s2.03,1.61,3.22,2.77c-.1,.39-.38,.56-.88,.56h-9.45v2.98h4.17l1.36-1.44,2.87,2.17c-.21,.25-.7,.52-1.3,.63v3.05h.32l1.33-1.96s1.54,1.4,2.42,2.41c-.07,.39-.39,.56-.88,.56h-3.19v5.15c-.03,.21-1.29,.84-2.17,.84h-.42v-1.33h-4.52v4.27h3.64l1.72-2.1s1.93,1.47,3.15,2.59c-.11,.38-.46,.56-.95,.56h-7.56v5.11Zm0-16.1h4.52v-3.4h-4.52v3.4Zm0,4.66h4.52v-3.64h-4.52v3.64Z"/>
      <path class="cls-1" d="M83.48,68.79c-.28,.28-.63,.39-1.33,.42-.67,2.49-1.96,5.39-3.92,7.56,.17,.07,.35,.21,.56,.38,2.98,2.87,7,3.36,14.11,3.36,4.17,0,7.63-.03,11.9-.21v.46c-1.23,.21-1.93,1.16-2.07,2.24h-10.68c-7.28,0-10.57-1.08-13.72-4.8-.49-.52-.84-.46-1.12,.04-.66,1.05-1.89,3.08-2.73,4.59,.14,.28,.07,.52-.17,.7l-2.2-2.8c1.54-1.08,3.92-3.33,5.04-3.89,1.19-2.21,2.06-5.25,2.41-7.81h-3.08l-1.05,.91-2.24-1.93c.35-.21,.91-.42,1.4-.56,1.19-1.64,2.84-4.17,3.92-5.95h-5.46l-.31-1.02h5.92l1.3-1.37,2.66,2.42c-.28,.31-.91,.49-1.64,.56-1.05,1.58-2.73,4.13-4.06,5.92h2.45l1.51-1.47,2.62,2.24Zm-8.86-16.98c7.77,2.1,5.53,7.39,2.94,5.53-.35-1.79-1.93-3.99-3.29-5.25l.35-.28Zm10.75,2.94c-.07,1.68-.84,2.84-1.75,3.36-.91,.49-2.14,.39-2.49-.56-.28-.88,.32-1.58,1.12-2,1.09-.52,2.17-2.03,2.07-3.61h.59c.21,.6,.35,1.19,.42,1.75h14.7l1.51-1.54,2.8,2.66c-.25,.28-.63,.35-1.3,.38-.59,.77-1.61,1.93-2.48,2.66,.56,.46,1.19,.98,1.68,1.44-.07,.38-.42,.56-.88,.56h-7.77v2.66h3.92l1.4-1.47,2.98,2.28c-.21,.28-.77,.56-1.47,.7v7.88c-.04,.25-1.3,.84-2.17,.84h-.38v-1.12h-4.27v2.94h5.08l1.72-2.14s1.93,1.47,3.15,2.59c-.07,.39-.46,.56-.95,.56h-9v3.54c0,.35-1.12,.91-2.1,.91h-.49v-4.45h-8.33l-.25-1.02h8.58v-2.94h-4.27v.67c0,.28-1.12,.84-2.14,.84h-.38v-11.8l2.73,1.19h4.06v-2.66h-7.42l-.28-1.02h7.7v-3.4l3.89,.42c-.11,.49-.38,.84-1.29,.98v2h4.03l1.61-2,.67,.49c.14-.73,.28-1.75,.38-2.59h-14.91Zm1.37,8.79v2.98h4.27v-2.98h-4.27Zm4.27,7.04v-3.05h-4.27v3.05h4.27Zm2.59-7.04v2.98h4.27v-2.98h-4.27Zm4.27,7.04v-3.05h-4.27v3.05h4.27Z"/>
      <path class="cls-1" d="M121.62,71.04c1.93-1.19,2.87-2.63,3.29-4.34-1.75-.84-2.66-1.75-2.66-3.01,0-1.12,.77-2.14,2.21-2.14s2.41,1.08,2.41,3.18c0,2.45-1.12,5.71-4.66,7.42l-.6-1.12Z"/>
      <path class="cls-1" d="M174.58,71.63s1.64,1.5,2.59,2.59c-.07,.38-.42,.56-.88,.56h-31.99l-.28-1.05h3.82l-.53-20.23,3.01,1.12c1.37-1.12,2.73-2.42,3.43-3.19l2.62,2.38c-.24,.21-.59,.25-1.09,.03-1.12,.56-3.26,1.44-5.29,2.03l.14,4.87h1.72l1.19-1.64s1.4,1.19,2.24,2.1c-.1,.38-.42,.56-.88,.56h-4.24l.14,5.57h1.79l1.23-1.75s1.47,1.26,2.35,2.21c-.07,.39-.42,.56-.88,.56h-4.45l.14,5.39h19.64l.14-5.39h-4.13l-.31-1.02h4.45l.14-5.57h-3.82l-.28-1.02h4.13l.1-5.43h-4.52l-.32-1.05h4.52l1.33-1.58,2.87,2.42c-.25,.28-.56,.42-1.23,.49l-.42,18.13h.31l1.47-2.1Zm-30.07,11.69c4.06-1.93,8.26-5.36,10.15-7.91l3.96,1.82c-.21,.38-.73,.52-1.71,.42-2.63,2.28-7.39,4.83-12.15,6.16l-.25-.49Zm15.75-18.94c-.1,.42-.46,.74-1.23,.81-.74,2.87-1.93,5.74-3.43,7.67l-.59-.28c.84-2.38,1.5-5.74,1.79-8.93l3.47,.73Zm-4.8-3.08c.31-.25,.8-.49,1.26-.7,.39-2.59,.81-6.79,.84-8.89l3.61,.63c-.1,.42-.42,.81-1.26,.81-.07,.7-.14,1.54-.21,2.41h2.73l1.3-1.68s1.47,1.26,2.35,2.17c-.07,.38-.42,.56-.88,.56h-5.6c-.18,1.5-.35,3.05-.53,4.34h3.29l1.33-1.4,2.63,2.17c-.25,.28-.67,.42-1.37,.52-.18,6.27-.7,8.93-1.86,9.91-.77,.67-1.82,.95-2.91,.95,0-.67-.11-1.3-.46-1.58-.35-.35-1.12-.6-1.92-.74l.03-.6c.84,.07,2.24,.18,2.77,.18,.49,0,.73-.07,.98-.28,.56-.56,.94-2.98,1.08-8.12h-3.4l-1.15,1.29-2.66-1.96Zm8.47,14.7c16.21,3.15,11.62,9.8,8.86,7.11-1.51-2.06-4.48-4.55-9.07-6.58l.21-.52Z"/>
      <path class="cls-1" d="M212.03,54.48c-.21,.28-.77,.52-1.47,.7v27.41c-.03,.21-1.33,.94-2.27,.94h-.42v-2.17h-23.21v1.4c0,.35-.98,1.09-2.17,1.09h-.49v-31.5l2.91,1.33h22.61l1.44-1.64,3.08,2.45Zm-4.17,25.87v-25.66h-23.21v25.66h23.21Zm-11.2-7.81c-1.92,.88-4.76,2.1-8.68,3.57-.14,.46-.39,.7-.74,.8l-1.68-3.01c2-.24,6.48-1.02,10.99-1.85l.1,.49Zm2.1-11.52c.17,2.91,.63,5.74,1.47,8.23,1.09-2,2.03-4.2,2.7-6.65l3.47,1.43c-.17,.39-.63,.67-1.4,.56-1.02,2.73-2.28,5.08-3.78,7.07,.7,1.37,1.54,2.56,2.62,3.54,.42,.46,.6,.42,.88-.1,.32-.74,.81-2.17,1.19-3.36l.46,.07-.53,4.55c.88,1.3,1.02,1.89,.67,2.28-.88,1.02-2.77,.07-3.96-1.08-1.19-1.16-2.17-2.45-3.01-3.92-2.21,2.38-4.83,4.17-7.74,5.43l-.39-.49c2.7-1.61,5.18-3.89,7.25-6.79-1.33-3.12-2-6.76-2.31-10.75h-10.33l-.28-1.02h10.54c-.11-1.54-.18-3.15-.18-4.8l3.71,.74c-.11,.42-.42,.77-1.19,.8,0,1.09,.03,2.17,.07,3.26h4.2l.88-1.08c-.31,.07-.67,0-1.02-.21-.45-1.08-1.68-2.38-2.73-3.08l.35-.32c3.75,.32,4.59,2.07,4.13,3.01,.46,.35,1.68,1.33,2.49,2.14-.11,.39-.46,.56-.94,.56h-7.28Zm-5.88,9.98v-1.12h-3.26v1.12c0,.18-.98,.7-1.85,.7h-.28v-9.03l2.28,1.02h2.87l1.12-1.16,2.42,1.85c-.18,.21-.6,.46-1.12,.53v5.32c0,.25-1.09,.77-1.82,.77h-.35Zm0-2.14v-4.13h-3.26v4.13h3.26Z"/>
      <path class="cls-1" d="M227.95,68.83c-.25,.32-.6,.38-1.33,.42-.73,2.52-2.27,5.32-4.45,7.42,.18,.07,.31,.17,.52,.35,2.94,2.83,6.97,3.33,14.07,3.33,4.1-.04,7.53-.04,11.73-.28v.46c-1.19,.25-1.89,1.16-2.03,2.31h-10.61c-7.28,0-10.54-1.05-13.62-4.76-.49-.56-.84-.49-1.12,0-.67,1.05-1.96,3.05-2.77,4.55,.1,.32,.07,.52-.17,.73l-2.24-2.8c1.61-1.12,4.06-3.36,5.15-3.89,1.33-2.07,2.35-5.04,2.8-7.6h-3.54l-1.09,.91-2.24-1.92c.31-.21,.91-.46,1.44-.6,1.16-1.64,2.73-4.13,3.78-5.92h-5.6l-.32-1.05h6.02l1.4-1.4,2.8,2.52c-.32,.39-1.05,.56-1.89,.56-.98,1.61-2.59,4.1-3.85,5.88h2.87l1.58-1.51,2.7,2.28Zm-9.87-16.87c7.95,1.75,5.81,7.42,3.05,5.53-.39-1.82-2-3.99-3.4-5.29l.35-.25Zm8.72,6.41l-.28-1.02h11.45c.7-1.72,1.47-4.17,1.86-5.88l4.16,1.05c-.14,.35-.56,.67-1.29,.67-.95,1.23-2.38,2.87-3.78,4.17h3.54l1.75-2.28s2.03,1.58,3.29,2.73c-.07,.39-.46,.56-.94,.56h-9.45c-.52,1.12-1.16,2.38-1.79,3.4h5.74l1.44-1.58,3.05,2.38c-.25,.28-.77,.56-1.44,.7v14.53c-.07,.21-1.36,.84-2.27,.84h-.42v-2.1h-9.73v1.4c0,.32-1.08,.95-2.24,.95h-.42v-18.38l2.84,1.26h1.86c.1-1.09,.21-2.35,.28-3.4h-7.18Zm3.05-6.79c7.18,1.89,4.62,7,2.1,5.04-.18-1.68-1.37-3.64-2.45-4.8l.35-.25Zm1.82,11.2v3.5h9.73v-3.5h-9.73Zm0,8.09h9.73v-3.57h-9.73v3.57Zm9.73,4.66v-3.64h-9.73v3.64h9.73Z"/>
      <path class="cls-1" d="M263.27,63.75c3.54,1.16,6.02,2.77,7.28,4.73,.49,.73,.81,1.68,.7,2.52-.07,.7-.53,1.33-1.37,1.33-.7,0-1.16-.49-1.65-1.58-1.09-2.2-2.73-4.34-5.36-6.48l.39-.52Z"/>
      <path class="cls-1" d="M294.73,63.4c5.71,3.19,3.71,7.18,1.71,5.53-.17-1.3-.91-2.91-1.71-4.27v18.1c0,.35-1.12,1.02-2.03,1.02h-.53v-15.3c-1.08,2.59-2.45,4.97-4.2,7.14l-.52-.46c2.24-3.99,3.5-9.14,4.24-14.25h-3.5l-.28-1.02h4.27v-8.51l3.78,.42c-.07,.52-.35,.84-1.23,.98v7.07l1.4-1.96s1.64,1.43,2.66,2.45c-.1,.39-.42,.56-.91,.56h-3.15v2.49Zm24.47,17.61c1.05,1.05,1.16,1.47,.91,1.96-.66,1.26-2.63,.63-4.24-.24-1.51-.7-2.77-1.75-3.78-3.05-2.56,1.93-5.46,3.19-8.51,3.96l-.25-.52c2.7-1.12,5.39-2.8,7.67-5.08-1.12-1.96-1.89-4.34-2.35-7.07h-4.52c-.07,.91-.17,1.82-.35,2.73,5.85,1.54,4.03,5.74,1.68,4.27-.28-1.02-1.05-2.17-1.93-3.08-.81,3.22-2.63,6.37-6.86,8.82l-.52-.52c4.45-3.78,5.04-8.26,5.18-12.22h-3.01l-.28-1.02h10.43c-.56-3.29-.77-7.07-.88-11.31-.25,.14-.56,.24-.98,.17-1.3,1.96-3.61,4.66-5.74,6.62,1.19-.1,2.62-.25,4.17-.39-.24-.91-.59-1.79-.94-2.42l.45-.17c4.8,3.15,2.49,6.76,.84,5.01,0-.52-.03-1.05-.17-1.64-1.16,.49-2.84,1.08-4.52,1.68-.21,.38-.45,.66-.7,.77l-1.43-2.77s.56-.14,.77-.28c1.23-1.09,2.59-3.01,3.68-4.94-.7,.28-1.57,.63-2.41,.91-.21,.46-.46,.73-.73,.88l-1.47-2.94s.56-.14,.77-.25c1.47-1.4,3.19-4.97,3.78-6.79l3.26,1.54c-.14,.28-.52,.6-1.23,.53-1.09,1.58-2.84,3.61-4.48,5.08,.95-.03,2.1-.1,3.22-.21,.49-.88,.91-1.68,1.19-2.35l2.7,1.47c-.07-2.07-.07-4.24-.07-6.51l3.85,.46c-.07,.46-.39,.88-1.26,1.02-.1,6.44-.07,12.25,.7,16.84h5.15l1.5-1.82s1.68,1.3,2.77,2.28c-.07,.38-.42,.56-.91,.56h-8.3c.39,1.96,.94,3.71,1.65,5.15,1.05-1.23,1.96-2.66,2.7-4.2l3.12,1.93c-.24,.35-.56,.46-1.33,.28-.94,1.51-2.03,2.8-3.19,3.96,.81,.91,1.68,1.65,2.8,2.17,.59,.31,.77,.28,1.05-.35,.42-.95,.98-2.66,1.4-4.17l.42,.04-.46,5.25Zm-8.96-21.84s.49-.14,.7-.28c1.19-1.33,2.59-4.87,3.05-6.69l3.36,1.54c-.14,.28-.53,.6-1.23,.53-.95,1.47-2.42,3.39-3.78,4.83,.88-.04,1.89-.11,2.87-.18,.56-1.02,.98-1.93,1.26-2.66l3.01,1.96c-.18,.28-.6,.49-1.23,.35-1.23,1.75-3.26,4.13-5.18,5.88,1.15-.11,2.59-.21,4.1-.39-.28-.7-.63-1.37-.98-1.89l.42-.17c5.15,2.73,2.87,6.62,1.12,4.83,0-.63-.11-1.33-.32-1.96-1.16,.39-2.84,.98-4.55,1.54l-.07,.18,.32-.21c4.8,1.12,2.66,4.45,.91,2.98-.07-.98-.63-2.07-1.26-2.7-.21,.32-.42,.56-.67,.67l-1.33-2.8s.6-.14,.77-.28c.94-.88,2.06-2.42,3.01-4.03-.7,.28-1.47,.56-2.21,.84-.21,.46-.45,.77-.73,.91l-1.37-2.8Z"/>
      <path class="cls-1" d="M335.61,69.91c-2.21,1.58-5.43,3.96-9.77,6.72-.07,.42-.35,.81-.7,.98l-1.68-3.39c.91-.32,2.52-.91,4.48-1.68v-10.5h-3.75l-.28-.98h4.03v-9.1l4.03,.42c-.07,.49-.39,.84-1.26,.94v7.74h.49l1.54-2.38s1.79,1.68,2.77,2.84c-.11,.35-.46,.52-.88,.52h-3.92v9.38c1.5-.6,3.12-1.26,4.73-1.96l.17,.46Zm6.3-2.31c-.52,.98-1.12,1.92-1.79,2.8h11.59l1.51-1.51,2.87,2.38c-.28,.28-.66,.46-1.4,.56-.45,6.2-1.51,9.66-3.08,10.89-.98,.73-2.21,1.09-3.61,1.09,0-.77-.14-1.47-.56-1.86-.45-.42-1.51-.77-2.59-.94v-.6c1.15,.1,3.12,.25,3.78,.25,.6,0,.88-.07,1.23-.31,.88-.74,1.72-3.82,2.14-8.89h-2.21c-1.93,5.39-5.64,9.45-11.52,12.29l-.31-.53c4.45-2.94,7.32-7,8.89-11.76h-2.35c-2.45,4.45-6.55,8.02-11.83,10.47l-.38-.56c4.13-2.52,7.42-6.02,9.42-9.91h-2.45c-2.1,2.31-4.8,4.2-8.02,5.67l-.35-.49c3.47-2.31,6.16-5.57,7.81-9.03h-5.11l-.28-1.02h18.03l1.79-2.24s2.03,1.54,3.29,2.7c-.11,.38-.46,.56-.91,.56h-13.58Zm-2-3.15c0,.28-1.19,.84-2.28,.84h-.42v-13.16l2.87,1.23h8.93l1.47-1.58,3.12,2.41c-.25,.25-.77,.56-1.47,.66v9.07c-.04,.28-1.33,.98-2.31,.98h-.46v-1.47h-9.45v1.02Zm0-10.05v3.47h9.45v-3.47h-9.45Zm9.45,8.02v-3.57h-9.45v3.57h9.45Z"/>
      <path class="cls-1" d="M388.5,68.41s2.24,1.68,3.54,2.91c-.1,.39-.46,.56-.94,.56h-31.05l-.28-1.01h8.89v-9.7h-7.49l-.31-1.02h7.81v-8.33l4.1,.42c-.11,.49-.38,.84-1.3,.98v6.93h8.54v-8.33l4.13,.42c-.11,.49-.42,.84-1.3,.98v6.93h3.12l1.79-2.31s2.03,1.58,3.29,2.77c-.1,.39-.45,.56-.94,.56h-7.25v9.7h3.78l1.89-2.45Zm-28.28,14.98c4.1-2.52,8.12-6.69,10.08-9.91l3.64,2.14c-.21,.31-.53,.45-1.33,.28-2.56,2.84-7.14,6.09-12.11,7.91l-.28-.42Zm11.24-12.53h8.54v-9.7h-8.54v9.7Zm7.81,3.33c13.34,3.75,12.18,11.03,8.65,9.21-1.58-2.94-5.81-6.72-8.96-8.86l.31-.35Z"/>
      <path class="cls-1" d="M403.09,63.86c6.93,2.91,4.73,7.46,2.45,5.6-.31-1.54-1.47-3.47-2.45-4.9v18.27c0,.35-1.09,.94-2.1,.94h-.56v-15.26c-1.19,2.7-2.77,5.15-4.76,7.32l-.49-.46c2.45-3.99,3.92-9.21,4.73-14.39h-4.1l-.28-1.05h4.9v-8.37l3.92,.42c-.07,.52-.35,.84-1.26,.98v6.97h.91l1.58-2.14s1.79,1.51,2.87,2.63c-.11,.38-.46,.56-.91,.56h-4.45v2.87Zm23.03,10.22s1.47,1.44,2.35,2.38c-.07,.38-.38,.56-.88,.56h-2.73v3.43c0,1.89-.42,3.01-3.68,3.33-.07-.77-.21-1.37-.67-1.75-.38-.39-1.12-.7-2.52-.88v-.53s2.91,.21,3.57,.21c.56,0,.73-.21,.73-.7v-3.12h-11.45v5.85c0,.28-1.02,.88-2.07,.88h-.42v-6.72h-2.87l-.28-1.02h3.15v-10.43l2.7,1.23h4.17v-2.56h-8.72l-.28-1.02h5.36v-3.05h-3.12l-.28-1.02h3.4v-2.84h-4.38l-.28-1.02h4.66v-3.61l3.68,.39c-.07,.46-.42,.81-1.19,.91v2.31h4.41v-3.61l3.68,.39c-.04,.49-.39,.81-1.19,.95v2.27h2.1l1.54-1.93s1.79,1.4,2.84,2.38c-.1,.39-.42,.56-.91,.56h-5.57v2.84h1.65l1.4-1.82s1.65,1.3,2.66,2.28c-.07,.38-.42,.56-.88,.56h-4.83v3.05h2.66l1.51-1.93s1.75,1.33,2.8,2.38c-.07,.38-.42,.56-.88,.56h-9.31v2.56h4.2l1.26-1.51,3.08,2.31c-.21,.24-.77,.52-1.44,.67v7.63l1.26-1.82Zm-15.26-6.27v3.43h4.38v-3.43h-4.38Zm0,8.19h4.38v-3.78h-4.38v3.78Zm3.22-16.84h4.41v-2.84h-4.41v2.84Zm0,4.06h4.41v-3.05h-4.41v3.05Zm3.68,4.59v3.43h4.55v-3.43h-4.55Zm4.55,8.19v-3.78h-4.55v3.78h4.55Z"/>
      <path class="cls-1" d="M432.56,65.26c.32-.25,.88-.49,1.4-.67,.17-.73,.39-1.61,.56-2.52h-2.52l-.28-1.02h3.01c.35-1.72,.66-3.54,.84-4.8-1.09,1.02-2.28,1.96-3.43,2.66l-.42-.35c1.64-1.75,3.36-4.73,4.2-7.07l3.71,.88c-.1,.38-.38,.52-1.19,.49-.39,.49-.81,1.09-1.3,1.64h7.84l1.51-1.85s1.68,1.29,2.73,2.31c-.07,.39-.42,.56-.88,.56h-12.11c-.21,.21-.42,.42-.6,.63l2.8,1.05h5.15l1.16-1.23,2.48,2c-.21,.28-.67,.42-1.33,.52-.03,.94-.11,1.79-.17,2.56h.81l1.15-1.68s1.33,1.23,2.14,2.14c-.07,.39-.42,.56-.88,.56h-3.29c-.11,1.16-.28,2.1-.42,2.91h.6l1.12-1.47s1.29,1.09,2.1,1.93c-.07,.39-.38,.56-.84,.56h-3.26c-.32,1.09-.7,1.72-1.19,2.1-.77,.66-1.82,.7-2.91,.7,0-.49-.11-.77-.42-1.02-.28-.28-.98-.42-1.72-.56v-.6c.84,.07,2.07,.18,2.66,.18,.49,0,.73-.07,.98-.32,.14-.11,.25-.28,.31-.49h-6.48l-1.12,1.23-2.52-1.96Zm11.38,13.97c-.21,.35-.49,.49-1.26,.35-2,1.44-5.95,3.12-9.31,3.92l-.35-.45c2.8-1.37,6.13-3.64,7.74-5.39l3.19,1.58Zm10.75-7.53c7.81,2.28,6.27,7.11,3.82,5.6-.28-.63-.7-1.43-1.3-2.2-2.17,.31-4.8,.66-7.81,1.05v4.52c0,1.89-.46,2.94-3.75,3.22-.04-.66-.21-1.23-.6-1.61-.39-.32-1.08-.6-2.49-.77v-.53s2.77,.18,3.43,.18c.56,0,.67-.18,.67-.56v-4.1c-2.87,.31-6.02,.66-9.38,1.02-.17,.35-.38,.56-.63,.66l-1.54-2.94s.8-.07,1.23-.17c2.52-.6,5.39-1.61,8.16-2.7-1.68,.25-3.5,.49-5.43,.7-.17,.31-.38,.49-.59,.6l-1.26-2.52s.52-.11,.77-.17c2.94-.77,6.58-3.15,8.12-4.38l2.21,2.45c-.25,.21-.77,.31-1.43-.07-1.54,.74-3.92,1.65-6.27,2.38,1.89-.07,4.31-.14,6.79-.25,2.77-1.26,5.22-2.48,6.76-3.5l2.73,2.24c-.25,.28-.84,.49-1.64,.11-3.57,1.71-9.98,3.92-15.89,5.43,4.27-.17,10.57-.56,17.29-.98-.77-.95-1.61-1.79-2.31-2.42l.35-.28Zm-17.85-9.63c-.24,1.05-.46,2.03-.67,2.91h6.9c.17-.73,.35-1.65,.49-2.91h-6.72Zm.74-3.82c-.14,.88-.35,1.82-.53,2.8h6.62c.07-.84,.14-1.75,.21-2.8h-6.3Zm.42,4.1c1.44-.14,2.73,.07,3.5,.74,.94,.91-.07,2.49-1.26,1.47-.46-.63-1.37-1.43-2.35-1.75l.1-.45Zm.42-3.64c1.37-.17,2.63-.07,3.43,.49,.98,.8,.14,2.41-1.16,1.5-.46-.56-1.47-1.29-2.42-1.5l.14-.49Zm22.26-1.64c-.77,2.56-2.03,4.69-3.75,6.44,1.75,1.16,4.03,2,6.79,2.52l-.07,.38c-1.02,.28-1.65,.98-1.86,2.21-2.77-.91-4.83-2.17-6.48-3.75-1.85,1.4-4.16,2.52-6.97,3.36l-.24-.52c2.56-1.16,4.55-2.49,6.09-4.1-1.26-1.58-2.21-3.43-2.98-5.53-.63,.73-1.33,1.4-2.07,1.92l-.49-.35c1.33-1.96,2.52-5.01,3.15-8.09l3.64,1.05c-.14,.42-.56,.74-1.26,.7-.42,.95-.91,1.86-1.47,2.7h6.13l1.61-2.07s1.82,1.44,2.98,2.56c-.11,.38-.46,.56-.91,.56h-1.86Zm-8.93,.35c.88,1.92,2.03,3.57,3.54,4.9,1.15-1.54,1.96-3.29,2.45-5.25h-5.71l-.28,.35Zm1.09,20.62c10.47,.91,9.31,6.41,6.69,5.32-.98-1.29-3.54-3.36-6.9-4.8l.21-.53Z"/>
      <path class="cls-1" d="M474.31,56.51h-6.65l-.28-1.02h6.79l-.49-3.85,3.82,.31c-.04,.39-.31,.74-1.02,.95l.35,2.59h2.17l1.61-2.1s1.82,1.47,2.87,2.56c-.03,.38-.38,.56-.88,.56h-5.64l.39,2.56c-.39,.49-1.4,.73-2.63,.73l-.42-3.29Zm-.63,11.13h-5.32l-.28-1.02h5.6v-3.96l3.36,.35c-.07,.42-.35,.73-1.12,.84v2.77h1.47l1.47-1.89s1.68,1.33,2.7,2.35c-.11,.39-.46,.56-.91,.56h-4.73v3.22c0,.28-.98,.7-1.79,.7h-.45v-3.92Zm22.16,2.94s1.82,1.4,3.01,2.45c-.1,.39-.45,.56-.94,.56h-13.06v3.85h7.84l1.79-2.17s2.03,1.51,3.29,2.63c-.1,.38-.46,.56-.91,.56h-12.01v4.48c0,.17-.91,.77-2.31,.77h-.46v-5.25h-11.94l-.31-1.02h12.25v-3.85h-13.3l-.28-1.05h13.58v-10.99h-12.46l-.31-1.05h23.98l1.61-1.93s1.89,1.37,3.05,2.42c-.1,.38-.46,.56-.91,.56h-12.18v10.99h9.35l1.65-1.96Zm1.02-17.19s1.79,1.47,2.91,2.56c-.11,.38-.42,.56-.91,.56h-7.56l-.46,2.83c-.53,.35-1.61,.53-2.7,.28l.49-3.12h-3.99l-.28-1.02h4.41l.63-3.92,3.78,.77c-.1,.46-.46,.81-1.33,.84l-.42,2.31h3.82l1.61-2.1Zm-.42,11.31s1.68,1.33,2.7,2.38c-.11,.39-.42,.56-.88,.56h-6.09v3.05c0,.25-1.02,.74-1.82,.74h-.42v-3.78h-3.71l-.25-1.02h3.96v-3.96l3.33,.35c-.07,.42-.35,.73-1.08,.84v2.77h2.77l1.51-1.92Z"/>
      <path class="cls-1" d="M509.52,56.3h-5.99l-.28-1.05h6.13l-.42-3.54,3.81,.32c-.07,.42-.31,.77-1.02,.98l.28,2.24h2.94l1.58-2.03s1.75,1.44,2.83,2.52c-.07,.38-.46,.56-.91,.56h-6.27l.35,2.62c-.42,.56-1.4,.81-2.62,.81l-.42-3.43Zm25.59,6.2l-.11,.46c-.98,.28-1.61,.95-1.79,1.89-4.9-.88-9.98-3.01-13.34-5.85-2.87,2-6.9,4.06-11.41,5.5l2.28,.95h17.54l1.26-1.29,2.66,2.03c-.14,.21-.56,.42-1.05,.49v5.85c-.03,.21-1.29,.77-2.17,.77h-.42v-.88h-18.24v.21c0,.11-.1,.25-.31,.42l2.87,1.19h12.95l1.4-1.4,2.87,2.17c-.18,.21-.63,.46-1.16,.56v7.21c-.04,.25-1.4,.88-2.35,.88h-.46v-1.57h-13.48v.88c0,.28-1.26,.84-2.38,.84h-.39v-10.71c-.39,.25-.98,.49-1.75,.49h-.42v-8.86c-1.12,.35-2.24,.63-3.43,.88l-.32-.56c6.13-1.96,12.29-5.78,15.05-8.82l3.29,1.79c-.17,.38-.63,.56-1.64,.45,3.47,2.24,9.84,3.68,14.42,4.06Zm-24.78,3.96v4.9h7.91v-4.9h-7.91Zm2.1,.25c5.64,1.75,3.5,5.71,1.57,4.13-.14-1.33-1.09-2.94-1.96-3.89l.39-.25Zm.24,8.54v2.31h13.48v-2.31h-13.48Zm13.48,5.81v-2.49h-13.48v2.49h13.48Zm-5.04-18.31l1.3-1.51s1.47,1.09,2.35,2c-.1,.38-.39,.56-.84,.56h-9.66l-.25-1.05h7.11Zm12.04-9.52s1.79,1.44,2.87,2.52c-.1,.38-.42,.56-.91,.56h-6.76l-.46,2.62c-.49,.39-1.54,.56-2.7,.28l.49-2.91h-4.87l-.28-1.05h5.29l.6-3.57,3.78,.73c-.1,.46-.42,.81-1.33,.84l-.35,2h3.05l1.58-2.03Zm-12.46,13.23v4.9h7.88v-4.9h-7.88Zm1.93,4.83c.59-1.26,1.29-3.22,1.71-4.62l3.33,1.09c-.14,.42-.6,.66-1.33,.6-.77,.91-1.89,2.03-2.98,2.94h-.73Z"/>
      <path class="cls-1" d="M568.29,72.79s2.1,1.58,3.36,2.77c-.11,.38-.45,.56-.95,.56h-14v6.93c0,.28-1.23,.81-2.28,.81h-.52v-7.74h-14.32l-.32-1.02h14.63v-3.15l3.96,.38c-.07,.42-.35,.74-1.16,.88v1.89h9.77l1.82-2.31Zm-28.88-17.43h6.41l-.49-3.75,3.82,.28c-.03,.42-.31,.77-.98,.98l.35,2.49h2.38l1.58-2.1s1.82,1.47,2.91,2.56c-.07,.38-.42,.56-.91,.56h-5.81l.31,2.52c-.31,.53-1.33,.77-2.56,.77l-.46-3.29h-6.27l-.28-1.02Zm26.29,4.31s2.03,1.57,3.26,2.73c-.11,.39-.42,.56-.91,.56h-26.6l-.28-1.02h13.97c-.21-.07-.39-.17-.6-.31-.17-1.44-1.23-3.12-2.31-4.06l.35-.25c5.22,.88,5.04,4.06,3.54,4.62h7.84l1.75-2.27Zm-14.35,4.97c-.18,.39-.46,.6-1.3,.52-.28,.6-.63,1.23-.98,1.86,6.55,1.4,4.66,6.06,2.24,4.41-.35-1.26-1.51-2.73-2.66-3.75-1.54,2.38-3.61,4.73-6.3,6.27l-.39-.42c2.87-2.7,4.87-6.93,5.71-10.22l3.68,1.33Zm13.2,.1c-.18,.35-.42,.56-1.26,.49-.38,.77-.91,1.58-1.47,2.35,7.11,1.86,5.32,6.69,2.8,5.04-.46-1.51-1.96-3.15-3.36-4.34-1.3,1.47-2.91,2.8-4.87,3.68l-.28-.49c2.42-2,4.06-5.36,4.73-8.09l3.71,1.37Zm-8.3-9.38h4.45l.63-3.82,3.78,.77c-.1,.45-.46,.81-1.37,.84l-.35,2.21h3.47l1.61-2.1s1.82,1.47,2.94,2.56c-.11,.38-.45,.56-.95,.56h-7.25l-.46,2.73c-.56,.35-1.58,.49-2.73,.24l.49-2.98h-3.99l-.28-1.02Z"/>
      <path class="cls-1" d="M588.45,71.04c1.92-1.19,2.87-2.63,3.29-4.34-1.75-.84-2.66-1.75-2.66-3.01,0-1.12,.77-2.14,2.21-2.14s2.41,1.08,2.41,3.18c0,2.45-1.12,5.71-4.66,7.42l-.59-1.12Z"/>
      <path class="cls-1" d="M617.92,63.4c5.71,3.19,3.71,7.18,1.72,5.53-.18-1.3-.91-2.91-1.72-4.27v18.1c0,.35-1.12,1.02-2.03,1.02h-.52v-15.3c-1.09,2.59-2.45,4.97-4.2,7.14l-.52-.46c2.24-3.99,3.5-9.14,4.24-14.25h-3.5l-.28-1.02h4.27v-8.51l3.78,.42c-.07,.52-.35,.84-1.23,.98v7.07l1.4-1.96s1.65,1.43,2.66,2.45c-.1,.39-.42,.56-.91,.56h-3.15v2.49Zm24.47,17.61c1.05,1.05,1.16,1.47,.91,1.96-.66,1.26-2.62,.63-4.24-.24-1.5-.7-2.77-1.75-3.78-3.05-2.56,1.93-5.46,3.19-8.51,3.96l-.25-.52c2.7-1.12,5.39-2.8,7.67-5.08-1.12-1.96-1.89-4.34-2.35-7.07h-4.52c-.07,.91-.17,1.82-.35,2.73,5.85,1.54,4.03,5.74,1.68,4.27-.28-1.02-1.05-2.17-1.92-3.08-.81,3.22-2.62,6.37-6.86,8.82l-.53-.52c4.45-3.78,5.04-8.26,5.18-12.22h-3.01l-.28-1.02h10.43c-.56-3.29-.77-7.07-.88-11.31-.25,.14-.56,.24-.98,.17-1.29,1.96-3.61,4.66-5.74,6.62,1.19-.1,2.62-.25,4.16-.39-.25-.91-.59-1.79-.95-2.42l.46-.17c4.8,3.15,2.49,6.76,.84,5.01,0-.52-.04-1.05-.18-1.64-1.15,.49-2.83,1.08-4.51,1.68-.21,.38-.46,.66-.7,.77l-1.44-2.77s.56-.14,.77-.28c1.22-1.09,2.59-3.01,3.67-4.94-.7,.28-1.58,.63-2.42,.91-.21,.46-.45,.73-.74,.88l-1.47-2.94s.56-.14,.77-.25c1.47-1.4,3.19-4.97,3.78-6.79l3.25,1.54c-.14,.28-.53,.6-1.23,.53-1.08,1.58-2.83,3.61-4.48,5.08,.95-.03,2.1-.1,3.22-.21,.49-.88,.91-1.68,1.19-2.35l2.7,1.47c-.07-2.07-.07-4.24-.07-6.51l3.85,.46c-.07,.46-.38,.88-1.26,1.02-.11,6.44-.07,12.25,.7,16.84h5.15l1.51-1.82s1.68,1.3,2.76,2.28c-.07,.38-.42,.56-.91,.56h-8.3c.39,1.96,.95,3.71,1.65,5.15,1.05-1.23,1.96-2.66,2.7-4.2l3.12,1.93c-.25,.35-.56,.46-1.33,.28-.95,1.51-2.03,2.8-3.19,3.96,.81,.91,1.68,1.65,2.8,2.17,.59,.31,.77,.28,1.05-.35,.42-.95,.98-2.66,1.4-4.17l.42,.04-.46,5.25Zm-8.96-21.84s.49-.14,.7-.28c1.19-1.33,2.59-4.87,3.04-6.69l3.36,1.54c-.14,.28-.52,.6-1.22,.53-.95,1.47-2.42,3.39-3.78,4.83,.88-.04,1.89-.11,2.87-.18,.56-1.02,.98-1.93,1.26-2.66l3.01,1.96c-.17,.28-.6,.49-1.23,.35-1.22,1.75-3.25,4.13-5.18,5.88,1.16-.11,2.59-.21,4.1-.39-.28-.7-.63-1.37-.98-1.89l.42-.17c5.15,2.73,2.87,6.62,1.12,4.83,0-.63-.11-1.33-.32-1.96-1.16,.39-2.83,.98-4.55,1.54l-.07,.18,.31-.21c4.8,1.12,2.66,4.45,.91,2.98-.07-.98-.63-2.07-1.26-2.7-.21,.32-.42,.56-.66,.67l-1.33-2.8s.59-.14,.77-.28c.95-.88,2.07-2.42,3.01-4.03-.7,.28-1.47,.56-2.21,.84-.21,.46-.46,.77-.74,.91l-1.37-2.8Z"/>
      <path class="cls-1" d="M658.8,69.91c-2.21,1.58-5.43,3.96-9.77,6.72-.07,.42-.35,.81-.7,.98l-1.68-3.39c.91-.32,2.52-.91,4.48-1.68v-10.5h-3.75l-.28-.98h4.03v-9.1l4.03,.42c-.07,.49-.38,.84-1.26,.94v7.74h.49l1.54-2.38s1.79,1.68,2.77,2.84c-.11,.35-.46,.52-.88,.52h-3.92v9.38c1.5-.6,3.12-1.26,4.73-1.96l.17,.46Zm6.3-2.31c-.53,.98-1.12,1.92-1.79,2.8h11.59l1.5-1.51,2.87,2.38c-.28,.28-.66,.46-1.4,.56-.46,6.2-1.5,9.66-3.08,10.89-.98,.73-2.21,1.09-3.61,1.09,0-.77-.14-1.47-.56-1.86-.46-.42-1.5-.77-2.59-.94v-.6c1.16,.1,3.12,.25,3.78,.25,.59,0,.88-.07,1.23-.31,.88-.74,1.71-3.82,2.13-8.89h-2.21c-1.93,5.39-5.64,9.45-11.52,12.29l-.31-.53c4.45-2.94,7.32-7,8.89-11.76h-2.35c-2.45,4.45-6.54,8.02-11.83,10.47l-.38-.56c4.13-2.52,7.42-6.02,9.42-9.91h-2.45c-2.1,2.31-4.8,4.2-8.02,5.67l-.35-.49c3.47-2.31,6.16-5.57,7.81-9.03h-5.11l-.28-1.02h18.03l1.79-2.24s2.03,1.54,3.29,2.7c-.1,.38-.45,.56-.91,.56h-13.58Zm-2-3.15c0,.28-1.19,.84-2.28,.84h-.42v-13.16l2.87,1.23h8.93l1.47-1.58,3.12,2.41c-.25,.25-.77,.56-1.47,.66v9.07c-.03,.28-1.33,.98-2.31,.98h-.46v-1.47h-9.45v1.02Zm0-10.05v3.47h9.45v-3.47h-9.45Zm9.45,8.02v-3.57h-9.45v3.57h9.45Z"/>
      <path class="cls-1" d="M694.18,55.07v28c0,.21-.8,.81-2.03,.81h-.42v-8.58c-1.82,.98-4.13,2.24-6.97,3.57-.14,.42-.46,.73-.84,.84l-1.19-3.25c.56-.11,1.26-.25,2.21-.46v-20.93h-1.93l-.28-1.01h9.77l1.71-2.14s1.96,1.47,3.15,2.59c-.07,.39-.42,.56-.91,.56h-2.28Zm-2.45,0h-4.41v5.78h4.41v-5.78Zm0,6.79h-4.41v6.13h4.41v-6.13Zm-4.41,13.58c1.37-.32,2.84-.7,4.41-1.09v-5.36h-4.41v6.44Zm14.35-7.91l3.47,.39c-.07,.46-.32,.77-1.16,.88v4.45c-.07,4.03-1.33,8.19-8.12,10.64l-.38-.46c3.96-2,5.5-4.73,5.99-7.56h-2.77l-.91,1.33-2.55-1.75c.21-.25,.59-.53,.98-.77v-6.44l3.68,.32c-.07,.42-.35,.74-1.44,.88v5.43h3.15c.04-.56,.07-1.12,.07-1.64v-5.67Zm-6.3-8.72s.49-.14,.7-.28c1.47-1.51,3.25-5.36,3.89-7.32l3.18,1.54c-.14,.32-.52,.63-1.19,.56-1.16,1.68-2.98,3.96-4.66,5.6,1.01,.04,2.24,.04,3.46,0,.88-1.44,1.65-2.77,2.07-3.82l2.87,2.07c-.17,.28-.67,.49-1.33,.31-1.5,2.21-4.27,5.36-6.86,7.56,1.43-.07,3.29-.17,5.18-.32-.28-1.08-.73-2.17-1.15-2.94l.46-.17c5,3.29,2.83,7.11,1.08,5.43,0-.49-.07-1.02-.17-1.54-1.58,.45-3.96,1.19-6.23,1.72-.14,.11-.28,.21-.42,.25l-.88-2.52s.59-.11,.81-.28c1.19-1.05,2.55-2.73,3.75-4.52-.95,.28-2.03,.56-3.05,.84-.14,.14-.28,.24-.46,.32l-1.05-2.49Zm16.1,2.73c5.39,3.22,3.33,7.14,1.51,5.46-.04-.49-.14-1.05-.32-1.58-1.58,.46-4.1,1.19-6.41,1.75-.11,.11-.25,.18-.39,.21l-.88-2.48s.56-.14,.77-.28c1.19-1.09,2.45-2.84,3.64-4.66-1.01,.28-2.21,.59-3.36,.88-.17,.17-.35,.31-.52,.38l-1.02-2.48s.42-.14,.63-.28c1.47-1.47,3.12-5.36,3.71-7.32l3.25,1.54c-.14,.28-.56,.59-1.26,.52-1.05,1.68-2.8,3.92-4.38,5.57,1.01,.04,2.31,.04,3.64,0,.81-1.36,1.47-2.66,1.86-3.64l2.87,2c-.17,.28-.63,.49-1.26,.35-1.44,2.21-4.06,5.29-6.48,7.49,1.4-.04,3.33-.17,5.36-.32-.38-1.08-.95-2.14-1.44-2.91l.45-.21Zm3.61,7.39c-.1,.46-.38,.77-1.22,.88v7.11c0,.28-.98,.7-1.79,.7h-.42v-1.75h-3.22v7.18c0,.28-1.02,.77-1.89,.77h-.46v-16.31l3.64,.38c-.07,.49-.38,.84-1.29,.98v5.99h3.22v-6.27l3.43,.35Z"/>
      <path class="cls-1" d="M721.9,74.22c1.09,3.54,.56,6.2-.35,7.42-.63,.81-2,1.05-2.56,.25-.42-.73-.07-1.61,.59-2.21,.98-.95,1.89-3.36,1.72-5.46h.59Zm-2.8-4.34s.7-.14,1.02-.35c1.71-1.44,3.75-3.99,5.5-6.55-1.3,.42-2.8,.88-4.41,1.33-.25,.32-.53,.52-.8,.63l-1.33-3.36s.63-.14,.91-.35c1.92-1.96,4.3-6.97,5.11-9.63l3.67,1.82c-.17,.31-.56,.6-1.26,.52-1.44,2.35-3.96,5.64-6.27,7.81,1.44,.03,3.29,.03,5.18,0,.98-1.54,1.79-2.98,2.31-4.13l3.36,2.27c-.18,.25-.66,.49-1.33,.35-1.92,2.8-5.71,6.9-9.14,9.66,1.96-.11,4.62-.31,7.46-.52-.35-1.33-.91-2.59-1.44-3.57l.46-.21c5.81,3.78,3.47,8.33,1.4,6.37,0-.6-.07-1.19-.21-1.86-2.03,.63-4.97,1.58-8.12,2.42-.28,.38-.56,.63-.91,.73l-1.16-3.4Zm5.95,3.75c4.48,4.52,1.58,8.89-.21,6.62,.35-2.1,.1-4.73-.32-6.48l.53-.14Zm3.46-.66c5.85,3.39,3.43,7.98,1.37,5.99,.04-1.86-.88-4.31-1.75-5.78l.38-.21Zm21.04-16.14c-.25,.31-.63,.38-1.47,.46-1.19,2.59-2.77,5.01-4.9,7.14,2.38,1.58,5.18,2.84,8.54,3.71l-.07,.38c-1.16,.32-1.86,1.05-2.07,2.35-3.25-1.33-5.88-2.98-7.91-5.01-1.89,1.61-4.06,3.01-6.58,4.13l2.21,.95h7.74l1.37-1.58,2.8,2.17c-.25,.31-.59,.49-1.33,.59v10.64c0,.18-.98,.7-2.24,.7h-.49v-2.1h-8.26v1.64c0,.21-.84,.74-2.13,.74h-.46v-13.41c-.7,.32-1.44,.6-2.14,.84l-.31-.53c3.36-1.54,6.23-3.71,8.51-6.16-1.37-1.58-2.42-3.29-3.36-5.18-1.37,2.14-2.94,3.89-4.62,5.29l-.49-.35c2.21-3.01,4.34-7.77,5.46-12.71l3.92,1.29c-.14,.42-.56,.74-1.33,.7-.32,.77-.67,1.58-.98,2.35h6.16l1.68-1.58,2.77,2.52Zm-12.67,15.12v8.37h8.26v-8.37h-8.26Zm1.54-15.02c-.31,.56-.59,1.08-.95,1.61,1.09,1.68,2.42,3.25,4.03,4.59,1.54-1.89,2.73-4.03,3.61-6.2h-6.69Z"/>
      <path class="cls-1" d="M766.59,68.83c-.25,.32-.6,.38-1.33,.42-.74,2.52-2.28,5.32-4.45,7.42,.17,.07,.31,.17,.52,.35,2.94,2.83,6.97,3.33,14.07,3.33,4.1-.04,7.53-.04,11.73-.28v.46c-1.19,.25-1.89,1.16-2.03,2.31h-10.61c-7.28,0-10.54-1.05-13.62-4.76-.49-.56-.84-.49-1.12,0-.66,1.05-1.96,3.05-2.76,4.55,.1,.32,.07,.52-.18,.73l-2.24-2.8c1.61-1.12,4.06-3.36,5.15-3.89,1.33-2.07,2.35-5.04,2.8-7.6h-3.54l-1.09,.91-2.24-1.92c.31-.21,.91-.46,1.43-.6,1.16-1.64,2.73-4.13,3.78-5.92h-5.6l-.31-1.05h6.02l1.4-1.4,2.8,2.52c-.32,.39-1.05,.56-1.89,.56-.98,1.61-2.59,4.1-3.85,5.88h2.87l1.58-1.51,2.7,2.28Zm-9.87-16.87c7.95,1.75,5.81,7.42,3.04,5.53-.38-1.82-2-3.99-3.4-5.29l.35-.25Zm8.72,6.41l-.28-1.02h11.45c.7-1.72,1.47-4.17,1.86-5.88l4.16,1.05c-.14,.35-.56,.67-1.29,.67-.95,1.23-2.38,2.87-3.78,4.17h3.54l1.75-2.28s2.03,1.58,3.29,2.73c-.07,.39-.46,.56-.95,.56h-9.45c-.53,1.12-1.16,2.38-1.79,3.4h5.74l1.44-1.58,3.04,2.38c-.25,.28-.77,.56-1.43,.7v14.53c-.07,.21-1.37,.84-2.28,.84h-.42v-2.1h-9.73v1.4c0,.32-1.08,.95-2.24,.95h-.42v-18.38l2.83,1.26h1.86c.11-1.09,.21-2.35,.28-3.4h-7.18Zm3.04-6.79c7.18,1.89,4.62,7,2.1,5.04-.17-1.68-1.37-3.64-2.45-4.8l.35-.25Zm1.82,11.2v3.5h9.73v-3.5h-9.73Zm0,8.09h9.73v-3.57h-9.73v3.57Zm9.73,4.66v-3.64h-9.73v3.64h9.73Z"/>
      <path class="cls-1" d="M801.17,87.7l-.81,.63c-5.42-5.08-8.02-10.92-8.02-17.99s2.59-12.92,8.02-18.03l.81,.66c-4.59,6.51-5.92,11.1-5.92,17.36s1.37,10.89,5.92,17.36Z"/>
      <path class="cls-1" d="M13.3,131.53c0,1.86-.38,2.87-3.36,3.15-.03-.63-.21-1.23-.59-1.58-.39-.35-1.05-.6-2.28-.77v-.56s2.56,.21,3.15,.21c.56,0,.7-.21,.7-.67v-12.53c-1.75,.42-3.64,.81-5.74,1.19-.07,5.08-.56,10.75-4.2,14.77l-.56-.35c2.1-3.96,2.38-8.96,2.42-13.97l-.95,.18c-.17,.42-.56,.7-.88,.77l-.77-2.87c.7-.03,1.58-.07,2.59-.14v-12.22l2.77,1.19h.52c.25-1.37,.53-3.47,.7-4.9l3.92,.77c-.1,.49-.52,.77-1.29,.81-.6,.98-1.43,2.31-2.17,3.33h3.33l1.19-1.47,2.87,2.24c-.25,.21-.73,.49-1.37,.63v8.51l2.31-.32,.07,.6c-.73,.21-1.54,.42-2.38,.66v13.34Zm-8.12-13.37c1.75-.18,3.71-.39,5.74-.63v-9.17H5.18v9.8Zm1.26-8.4c5.15,4.1,2.52,8.26,1.15,6.37-.11-1.47-.46-4.2-1.65-6.09l.49-.28Zm.31,10.68c5.04,4.73,2.21,8.86,.94,6.9-.07-1.58-.35-4.62-1.47-6.65l.52-.25Zm25.17,10.71c.74,.31,.84,.56,.84,1.05,0,.98-.95,1.54-3.71,1.54h-1.47c-1.96,0-2.28-.7-2.28-2.27v-16.1h-5.53v5.74c0,4.55-.56,10.12-6.3,13.83l-.42-.39c3.68-3.85,4.16-8.65,4.16-13.44v-8.02l3.01,1.26h4.76l1.37-1.54,2.8,2.42c-.21,.25-.63,.46-1.33,.52v15.02c0,.46,.07,.6,.49,.6h1.61c.17-.04,.31-.07,.42-.42,.21-.52,.66-3.01,1.02-4.97h.46l.1,5.18Zm-17.4-21.7h13.27l1.82-2.42s2.03,1.68,3.26,2.87c-.07,.39-.42,.56-.91,.56H14.81l-.28-1.02Zm4.9-6.9c7.91,2.38,5.67,8.05,3.01,6.02-.31-1.96-1.89-4.34-3.4-5.78l.39-.25Z"/>
      <path class="cls-1" d="M70.81,131.43c.91,1.72,1.05,2.49,.56,2.91-1.15,.98-3.33-.45-4.41-1.93-1.19-1.47-2.14-3.19-2.94-5.01-2.45,3.01-5.53,5.32-9.52,7.14l-.35-.59c3.85-2.35,6.76-5.15,9-8.86-1.4-4.24-2.07-9.21-2.35-14.6h-7.84v5.53h3.54l1.33-1.47,2.73,2.21c-.17,.28-.63,.49-1.29,.56-.14,6.55-.35,9.7-1.54,10.82-.66,.56-1.54,.84-2.56,.84,0-.56-.17-1.19-.52-1.54-.35-.31-1.26-.66-2.17-.84v-.49c.91,.07,2.42,.14,2.91,.14,.31,0,.46-.03,.6-.21,.52-.66,.7-3.47,.84-9.03h-3.85v.49c0,5.71-.81,12.67-7.95,17.19l-.42-.42c3.61-3.4,5.01-7.53,5.46-11.83-2,1.33-4.87,3.33-8.79,5.67-.11,.46-.38,.81-.73,.94l-1.79-3.39c.91-.25,2.45-.74,4.31-1.37v-10.82h-3.68l-.28-1.02h3.96v-9.28l3.92,.42c-.07,.49-.38,.84-1.26,.98v7.88h.49l1.51-2.24s1.61,1.51,2.59,2.59v-4.59l3.12,1.26h7.32c-.11-2.14-.14-4.38-.14-6.62l4.03,.46c0,.21-.11,.39-.25,.56,4.69,.39,5.29,2.8,4.38,3.78,.6,.46,1.89,1.47,2.77,2.28-.1,.39-.46,.56-.91,.56h-7.14c.14,3.96,.56,7.88,1.4,11.27,1.09-2.38,1.96-5.15,2.69-8.3l3.75,1.23c-.14,.42-.46,.63-1.37,.6-1.08,3.75-2.41,6.9-4.1,9.56,.7,1.89,1.65,3.57,2.8,4.94,.46,.59,.63,.59,.94-.11,.42-.84,1.05-2.49,1.44-3.89l.46,.07-.67,5.57Zm-20.69-9.42c.14-1.47,.18-2.98,.18-4.48v-4.38c-.14,.21-.39,.31-.77,.31h-3.82v9.94c1.4-.49,2.87-1.02,4.34-1.54l.07,.14Zm13.9-17.89c-.17,.11-.39,.14-.63,.17-.04,1.72-.04,3.47,.03,5.18h3.26l1.19-1.44c-.32,0-.67-.07-1.02-.28-.42-1.29-1.75-2.8-2.87-3.6l.04-.04Z"/>
      <path class="cls-1" d="M86.03,128.8c1.75-.42,3.64-.88,5.53-1.37l.14,.49c-2.98,1.37-7,3.19-12.53,5.36-.14,.42-.49,.73-.84,.84l-1.3-3.33c.52-.11,1.26-.25,2.14-.42v-12.39l3.29,.35c-.07,.39-.35,.66-.98,.77v10.75l2.03-.46v-15.02h-1.85v.84c0,.21-.81,.81-2.14,.81h-.39v-12.32l2.94,1.23h4.83l1.33-1.47,3.01,2.27c-.25,.25-.77,.53-1.44,.67v8.44c-.07,.21-1.33,.7-2.14,.7h-.42v-1.16h-1.23v5.5h1.12l1.54-2.17s1.79,1.58,2.84,2.66c-.11,.38-.42,.56-.91,.56h-4.59v7.88Zm-4.38-15.44h5.6v-7.42h-5.6v7.42Zm25.59-5.74c-.25,.32-.63,.42-1.44,.49-1.15,2.63-2.73,5.08-4.73,7.25,2.38,1.89,5.43,3.33,9.21,4.27l-.11,.35c-1.09,.31-1.82,1.05-2.06,2.42-1.26-.49-2.42-1.02-3.47-1.61l2.66,2.07c-.25,.24-.56,.42-1.3,.56v10.5c0,.14-.98,.73-2.31,.73h-.49v-2.38h-7.88v1.71c0,.21-.88,.74-2.24,.74h-.46v-13.13c-1.26,.6-2.59,1.16-3.99,1.65l-.28-.49c3.99-1.86,7.35-4.48,9.94-7.53-1.09-1.47-1.96-3.08-2.73-4.8-1.51,1.96-3.22,3.6-5.08,4.83l-.46-.35c2.59-2.84,5.08-7.46,6.34-12.5l3.92,1.33c-.17,.42-.59,.74-1.36,.66-.32,.81-.67,1.54-1.05,2.28h4.9l1.68-1.58,2.77,2.52Zm-2.8,13.06c-1.89-1.12-3.47-2.42-4.8-3.85-1.82,1.68-3.89,3.15-6.3,4.41l2.35,.98h7.42l1.33-1.54Zm-1.23,10.57v-8.02h-7.88v8.02h7.88Zm-5.85-23.56c-.39,.66-.81,1.33-1.23,1.96,.88,1.54,1.92,2.98,3.22,4.24,1.47-1.93,2.59-4.03,3.43-6.2h-5.43Z"/>
      <path class="cls-1" d="M141.93,128.59l2.21-2.87s2.48,1.96,3.99,3.33c-.11,.39-.42,.56-.95,.56h-30.59l-.28-1.02h25.62Zm-3.29-19.53l2.14-2.77s2.45,1.89,3.89,3.19c-.1,.39-.46,.56-.95,.56h-23.8l-.28-.98h19.01Z"/>
      <path class="cls-1" d="M169.16,123.76c-2.24,.94-5.08,2.24-8.86,3.81v6.3c-.04,.25-.77,.91-2.31,.91h-.35v-6.2l-1.23,.49c-.14,.42-.46,.73-.77,.88l-1.71-3.4c.88-.14,2.13-.39,3.71-.74v-20.97l2.94,1.37c1.79-1.08,3.75-2.38,5.25-3.64l3.36,2.52c-.25,.31-.56,.35-1.26,.18-2.21,.8-5.15,1.65-7.63,2.17v4.83h3.36l1.61-2.07s1.82,1.47,2.98,2.52c-.1,.39-.42,.56-.95,.56h-7v5.5h3.43l1.64-2.14s1.89,1.47,3.01,2.59c-.07,.38-.42,.56-.91,.56h-7.18v5.43c2.59-.56,5.64-1.26,8.75-2l.11,.53Zm15.61-4.62c-.25,.31-.63,.38-1.43,.46-1.3,3.05-3.01,5.74-5.36,8.09,2.56,2.03,5.74,3.47,9.31,4.38l-.07,.39c-1.15,.17-2.06,1.02-2.49,2.35-3.47-1.33-6.27-3.15-8.44-5.6-3.12,2.49-7.04,4.41-12.08,5.64l-.28-.49c4.55-1.61,8.26-3.89,11.06-6.72-1.65-2.31-2.84-5.08-3.64-8.44h-2.31l-.31-1.05h11.48l1.72-1.61,2.83,2.63Zm-17.19-2.03c3.15-2.73,3.57-5.99,3.57-9.07v-4.48l3.12,1.29h4.41l1.43-1.54,2.84,2.38c-.24,.25-.7,.42-1.33,.52v6.23c0,.39,.1,.49,.56,.49h1.89c.14,0,.39,0,.53-.04,.17,0,.46-.07,.63-.14h.31l.14,.07c.74,.28,1.02,.49,1.02,1.05,0,1.05-.91,1.54-3.89,1.54h-1.54c-2.03,0-2.27-.63-2.27-2.24v-7.32h-5.22v2.17c0,2.91-.59,7-5.85,9.45l-.35-.38Zm4.52,2.06c.88,2.77,2.35,5.11,4.2,6.97,1.71-2.06,3.05-4.41,3.96-6.97h-8.16Z"/>
      <path class="cls-1" d="M192.61,103.92l.8-.67c5.39,5.11,7.98,10.92,7.98,18.03s-2.59,12.92-7.98,17.99l-.8-.63c4.55-6.55,5.88-11.13,5.88-17.36s-1.37-10.89-5.88-17.36Z"/>
      <path class="cls-1" d="M239.2,130.06c1.4,.42,1.82,.63,1.82,1.23,0,1.37-1.58,2.28-8.02,2.28h-12.99c-4.52,0-6.79-1.02-6.79-4.52v-18.38l3.92,.39c-.07,.49-.31,.81-1.08,.91v4.1h17.43v-9.52h-22.02l-.31-.98h21.95l1.5-1.75,3.36,2.56c-.25,.31-.84,.66-1.61,.81v11.83c-.04,.25-1.47,.88-2.42,.88h-.46v-2.84h-17.43v12.08c0,1.44,1.23,1.79,3.78,1.79h12.99c2.52,0,3.57-.18,4.13-1.19,.53-.94,1.33-3.85,1.79-6.02h.42l.03,6.37Z"/>
      <path class="cls-1" d="M263.28,116.55c-.28,.28-.7,.49-1.44,.6-.28,10.15-1.05,14.53-2.56,16-.94,.91-2.17,1.29-3.57,1.29,0-.81-.1-1.5-.49-1.89-.42-.38-1.33-.73-2.31-.91v-.56c1.02,.07,2.66,.21,3.29,.21,.56,0,.84-.1,1.12-.42,1.02-.91,1.61-5.25,1.89-14.11h-4.34c-.6,7-2.24,13.2-7.07,18.06l-.42-.39c4.31-6.86,4.9-15.12,4.76-23.98h-4.13l-.28-1.05h12.11l1.72-2.21s2,1.54,3.19,2.7c-.11,.39-.46,.56-.95,.56h-8.61c-.04,1.82-.1,3.54-.25,5.29h3.96l1.5-1.61,2.87,2.42Zm-10.29-14.04c7.98,2.35,5.39,8.26,2.66,6.09-.21-2-1.68-4.41-3.01-5.85l.35-.25Zm27.62,13.2l-.1,.42c-1.12,.35-1.96,1.05-2.2,2.06-3.01-3.01-5.25-7.84-6.55-12.78-1.72,4.69-4.69,9.98-8.86,13.3l-.46-.32c3.47-4.24,5.99-10.96,6.86-16l4.27,.91c-.07,.42-.42,.63-1.33,.77,1.4,4.76,4.87,9.14,8.37,11.62Zm-16,9.66c14.7,3.05,14.14,10.57,10.4,9.03-2.03-3.01-7-6.69-10.68-8.65l.28-.39Zm3.19-9.21c9.31,1.58,7.95,7.39,4.87,5.95-.91-1.85-3.36-4.24-5.22-5.67l.35-.28Z"/>
      <path class="cls-1" d="M302.55,128.94v2.98h-15.75v-2.38c2.1-2.1,4.13-4.31,5.81-6.06,3.89-4.06,5.5-7.04,5.5-10.12s-1.82-5.22-4.69-5.22c-.56,0-1.29,.07-2.06,.25l-.77,2.8c-.46,1.75-1.12,2.42-2.1,2.42-.81,0-1.47-.42-1.86-1.16,.52-3.92,3.89-5.81,7.7-5.81,4.94,0,7.14,2.7,7.14,6.55,0,3.29-1.79,5.92-7.67,11.48-1.09,1.05-2.73,2.63-4.48,4.27h13.23Z"/>
      <path class="cls-1" d="M325.23,119.56c0,9.45-3.96,12.85-7.98,12.85s-8.05-3.4-8.05-12.85,3.92-12.92,8.05-12.92,7.98,3.5,7.98,12.92Zm-7.98,11.38c2.35,0,4.55-2.38,4.55-11.38s-2.21-11.41-4.55-11.41-4.66,2.38-4.66,11.41,2.21,11.38,4.66,11.38Z"/>
      <path class="cls-1" d="M347.91,128.94v2.98h-15.75v-2.38c2.1-2.1,4.13-4.31,5.81-6.06,3.89-4.06,5.5-7.04,5.5-10.12s-1.82-5.22-4.69-5.22c-.56,0-1.29,.07-2.07,.25l-.77,2.8c-.46,1.75-1.12,2.42-2.1,2.42-.81,0-1.47-.42-1.85-1.16,.52-3.92,3.89-5.81,7.7-5.81,4.94,0,7.14,2.7,7.14,6.55,0,3.29-1.79,5.92-7.67,11.48-1.09,1.05-2.73,2.63-4.48,4.27h13.23Z"/>
      <path class="cls-1" d="M370.59,128.94v2.98h-15.75v-2.38c2.1-2.1,4.13-4.31,5.81-6.06,3.89-4.06,5.5-7.04,5.5-10.12s-1.82-5.22-4.69-5.22c-.56,0-1.29,.07-2.07,.25l-.77,2.8c-.46,1.75-1.12,2.42-2.1,2.42-.81,0-1.47-.42-1.85-1.16,.52-3.92,3.89-5.81,7.7-5.81,4.94,0,7.14,2.7,7.14,6.55,0,3.29-1.79,5.92-7.67,11.48-1.09,1.05-2.73,2.63-4.48,4.27h13.23Z"/>
      <path class="cls-1" d="M405.66,122.15s2.28,1.68,3.61,2.91c-.07,.39-.46,.56-.91,.56h-12.04v8.23c0,.21-.94,.88-2.45,.88h-.52v-9.1h-16l-.28-1.02h6.06v-10.61l3.36,1.37h6.86v-6.62h-7.6c-2.49,3.47-5.39,6.27-8.44,8.19l-.46-.38c3.29-3.26,6.79-8.79,8.86-14.6l4.24,1.65c-.17,.38-.63,.7-1.43,.59-.63,1.23-1.33,2.42-2.07,3.54h16.1l1.96-2.42s2.17,1.58,3.61,2.87c-.11,.38-.46,.56-.98,.56h-10.82v6.62h5.46l1.82-2.31s2.07,1.61,3.36,2.77c-.07,.35-.45,.53-.94,.53h-9.7v8.26h7.39l1.96-2.45Zm-12.32,2.45v-8.26h-7.28v8.26h7.28Z"/>
      <path class="cls-1" d="M431.11,130.73v1.19h-14.14v-1.19l5.46-.77c.03-2.03,.07-4.1,.07-6.13v-14.14l-5.11,.49v-1.33l7.88-2.03,.53,.38-.14,5.5v11.13c0,2.03,.04,4.1,.07,6.13l5.39,.77Z"/>
      <path class="cls-1" d="M453.79,130.73v1.19h-14.14v-1.19l5.46-.77c.03-2.03,.07-4.1,.07-6.13v-14.14l-5.11,.49v-1.33l7.88-2.03,.53,.38-.14,5.5v11.13c0,2.03,.04,4.1,.07,6.13l5.39,.77Z"/>
      <path class="cls-1" d="M488.27,106.12c-.21,.28-.77,.6-1.47,.7v24.01c0,2.17-.49,3.54-4.52,3.92-.1-.94-.35-1.65-.91-2.1-.63-.46-1.65-.84-3.54-1.12v-.52s4.34,.31,5.15,.31c.73,0,.95-.28,.95-.84v-8.26h-13.44c-.81,4.8-3.05,9.28-9,12.53l-.39-.38c5.95-4.83,6.97-11.06,6.97-18.13v-12.25l3.36,1.37h12.15l1.4-1.75,3.29,2.52Zm-4.34,15.05v-7h-13.02v2.03c0,1.64-.07,3.33-.28,4.97h13.3Zm-13.02-14.84v6.79h13.02v-6.79h-13.02Z"/>
      <path class="cls-1" d="M511.37,119.77c-.25,.31-.6,.39-1.33,.42-.74,2.52-2.17,5.29-4.31,7.42,.18,.07,.32,.18,.53,.35,2.94,2.84,6.9,3.33,13.9,3.29,4.06,0,7.46,0,11.62-.21v.45c-1.19,.25-1.82,1.16-2,2.28h-10.5c-7.14,0-10.4-1.12-13.48-4.76-.45-.56-.84-.49-1.12,0-.74,1.02-2.1,3.05-3.01,4.59,.14,.28,.03,.52-.21,.73l-2.17-2.87c1.61-1.09,4.1-3.15,5.22-3.78,1.33-2.14,2.35-5.11,2.7-7.67h-3.4l-1.05,.95-2.35-2c.35-.21,.88-.42,1.4-.56,1.23-1.68,2.84-4.13,3.89-5.95h-5.74l-.31-1.01h6.2l1.4-1.44,2.98,2.59c-.35,.39-1.12,.56-2.03,.56-1.01,1.58-2.62,4.1-3.92,5.85h2.77l1.58-1.54,2.77,2.31Zm-10.05-16.87c8.23,1.54,6.16,7.32,3.33,5.53-.46-1.86-2.17-4.03-3.68-5.32l.35-.21Zm10.26,2.31l-.31-1.02h13.79l1.71-1.61,2.91,2.73c-.32,.28-.74,.35-1.51,.39-1.54,1.05-4.34,2.31-6.65,3.22,1.54,.95,1.54,1.96,.98,2.52h3.26l1.26-1.51,3.12,2.35c-.21,.25-.77,.56-1.47,.7v13.51c0,1.93-.39,2.98-3.43,3.29-.03-.67-.14-1.3-.49-1.68-.39-.35-.95-.67-2.14-.84v-.52s2.24,.17,2.84,.17c.53,0,.66-.17,.66-.63v-3.54h-4.59v5.67c0,.14-.8,.7-2.06,.7h-.39v-6.37h-4.69v6.13c0,.28-1.05,.91-2.17,.91h-.42v-19.57l2.8,1.23h5.71l-.07-.11c-1.08-1.29-3.12-2.69-6.06-3.81l.17-.56c2.98,.31,5.01,.88,6.3,1.47,1.3-.94,2.84-2.14,3.89-3.22h-12.95Zm2.8,7.28v4.03h4.69v-4.03h-4.69Zm4.69,9.24v-4.17h-4.69v4.17h4.69Zm2.45-9.24v4.03h4.59v-4.03h-4.59Zm4.59,9.24v-4.17h-4.59v4.17h4.59Z"/>
      <path class="cls-1" d="M566.39,125.23s2.28,1.65,3.61,2.91c-.07,.39-.46,.56-.91,.56h-13.86v5.08c0,.35-1.23,.98-2.31,.98h-.59v-6.06h-14.18l-.31-1.05h14.49v-4.17h-7.14v1.33c0,.28-1.19,.91-2.35,.91h-.45v-15.44l3.01,1.33h6.93v-3.54h-13.23l-.28-1.02h13.51v-4.62l4.13,.45c-.07,.49-.35,.88-1.23,1.02v3.15h8.16l2-2.38s2.24,1.61,3.68,2.84c-.1,.38-.49,.56-.98,.56h-12.85v3.54h7l1.47-1.65,3.15,2.45c-.25,.28-.77,.56-1.43,.7v11.03c-.04,.25-1.44,.91-2.42,.91h-.42v-1.58h-7.35v4.17h9.21l1.96-2.42Zm-21.21-12.6v4.27h7.14v-4.27h-7.14Zm7.14,9.87v-4.59h-7.14v4.59h7.14Zm2.91-9.87v4.27h7.35v-4.27h-7.35Zm7.35,9.87v-4.59h-7.35v4.59h7.35Z"/>
      <path class="cls-1" d="M589.52,121.98c1.92-1.19,2.87-2.62,3.29-4.34-1.75-.84-2.66-1.75-2.66-3.01,0-1.12,.77-2.14,2.21-2.14s2.41,1.08,2.41,3.19c0,2.45-1.12,5.71-4.66,7.42l-.59-1.12Z"/>
      <path class="cls-1" d="M635.02,104.72c-.38,.42-1.29,.66-2.49,.73,2.52,3.5,8.75,7.35,15.02,9.28l-.04,.42c-1.26,.28-2.34,1.3-2.7,2.52-5.42-2.87-10.78-7.39-13.3-12.25-3.61,5.71-9.91,10.61-16.77,13.55l-.32-.45c5.53-3.26,10.71-8.33,13.3-13.16h-6.93l-.32-1.02h10.01l1.23-1.86,3.29,2.24Zm7.91,25.52s2.1,1.68,3.43,2.91c-.1,.38-.45,.52-.94,.52h-29.16l-.28-1.02h13.3v-7.49h-9.52l-.28-1.02h9.8v-6.58h-8.44l-.28-1.02h15.75l1.75-2.07s1.92,1.47,3.18,2.52c-.1,.38-.45,.56-.94,.56h-8.12v6.58h5.95l1.79-2.17s2.03,1.51,3.26,2.63c-.07,.39-.39,.56-.88,.56h-10.12v7.49h8.82l1.93-2.42Z"/>
      <path class="cls-1" d="M656.2,124.92c1.05,3.5,.6,6.16-.31,7.39-.6,.81-2,1.05-2.52,.25-.45-.73-.07-1.58,.59-2.17,.91-.98,1.82-3.4,1.61-5.46h.63Zm-2.7-4.2s.7-.18,.98-.39c1.65-1.4,3.54-3.92,5.15-6.37-1.12,.35-2.45,.77-3.82,1.16-.28,.42-.59,.7-.91,.84l-1.33-3.33s.66-.14,.91-.35c1.89-2,4.27-6.97,5.08-9.63l3.64,1.79c-.17,.31-.59,.6-1.26,.49-1.4,2.38-3.89,5.6-6.13,7.77,1.3,0,2.94,0,4.62-.03,.81-1.33,1.47-2.56,1.86-3.57l3.29,2.24c-.14,.28-.63,.49-1.3,.35-1.82,2.66-5.25,6.48-8.37,9.07,1.75-.07,4.13-.24,6.65-.42-.42-1.33-.98-2.66-1.54-3.64l.42-.21c5.81,3.75,3.54,8.19,1.54,6.3,0-.49-.07-1.05-.21-1.58-1.86,.56-4.52,1.37-7.25,2.1-.25,.38-.56,.59-.88,.7l-1.16-3.29Zm5.64,3.61c4.41,4.52,1.54,8.86-.21,6.62,.38-2.06,.17-4.73-.28-6.48l.49-.14Zm3.15-.6c5.5,3.12,3.19,7.39,1.26,5.57,0-1.75-.88-3.96-1.68-5.36l.42-.21Zm22.26-2.03c-.17,.28-.7,.49-1.33,.21-.95,.74-2.63,1.82-4.24,2.7,1.89,2.49,4.24,4.13,6.51,5.25l-.07,.35c-.98,.17-1.75,1.05-2.1,2.28-3.33-2.63-5.74-5.95-7.18-11.73v10.33c0,1.96-.45,3.36-3.75,3.68-.07-.8-.25-1.5-.63-1.89-.49-.42-1.26-.73-2.8-.94v-.53s3.19,.25,3.85,.25c.59,0,.77-.21,.77-.63v-8.72c-.21,.07-.53,.14-.98,.17-1.22,4.27-3.92,8.33-8.72,10.89l-.35-.49c3.47-2.62,5.53-6.58,6.48-10.64h-4.24l-.31-1.05h4.41l1.51-1.44,2.21,1.93v-4.17h-3.89v1.12c0,.18-.8,.67-2.07,.67h-.42v-13.69l2.91,1.23h2.14c.28-1.23,.59-3.19,.8-4.48l4.24,.73c-.14,.53-.59,.81-1.33,.84-.7,.84-1.75,2.03-2.56,2.91h6.23l1.29-1.47,2.7,2.07c-.25,.28-.6,.49-1.3,.63v10.19c0,.17-.95,.7-2.14,.7h-.42v-1.44h-3.64v1.33c.56,2.03,1.4,3.71,2.35,5.11,1.19-1.47,2.49-3.47,3.01-4.62l3.05,2.38Zm-14.84-13.86v3.78h10.08v-3.78h-10.08Zm10.08,8.61v-3.82h-10.08v3.82h10.08Z"/>
      <path class="cls-1" d="M707.09,116.52c-.25,.28-.63,.35-1.29,.39-.95,1.58-2.66,3.96-3.92,5.39l-.42-.25c.42-1.51,1.01-3.89,1.4-5.64h-3.22v14.53c0,2.03-.46,3.5-3.78,3.78-.04-.81-.21-1.51-.63-1.93-.42-.46-1.23-.77-2.7-1.02v-.49s3.12,.21,3.71,.21,.74-.21,.74-.63v-14.46h-5.15l-.32-1.02h11.13l1.61-1.61,2.84,2.73Zm13.83-13.58s2.1,1.65,3.36,2.8c-.1,.35-.46,.53-.91,.53h-7.04c-.81,1.4-1.82,2.91-2.73,3.99h5.08l1.33-1.47,2.94,2.28c-.21,.21-.66,.46-1.22,.56v15.72c-.04,.21-1.37,.84-2.31,.84h-.42v-1.44h-9v.84c0,.32-1.09,.98-2.28,.98h-.46v-19.57l2.91,1.26h2.38c.18-1.08,.39-2.66,.53-3.99h-7.04l.03,.03c-.21,.28-.67,.32-1.4,.35-1.23,1.26-3.36,2.8-5.22,3.99,2.84,2.27,1.58,5.08-.56,3.92-.77-2.07-3.29-4.52-5.42-5.78l.31-.35c2.14,.35,3.71,.95,4.87,1.65,.95-1.23,2.03-2.7,2.77-3.89h-8.86l-.32-.98h9.35l1.65-1.65,2.59,2.52-.21-.8h13.48l1.82-2.35Zm-17.89,31.36c2.98-1.54,6.37-4.27,7.95-6.48l3.5,2.14c-.17,.28-.56,.31-1.16,.14-2.13,1.82-6.41,3.75-9.98,4.69l-.32-.49Zm6.97-23v4.06h9v-4.06h-9Zm0,9.21h9v-4.17h-9v4.17Zm9,5.25v-4.24h-9v4.24h9Zm-3.4,2.2c9.84,1.82,8.68,7.98,5.6,6.51-1.05-2.1-3.82-4.69-5.92-6.16l.32-.35Z"/>
      <path class="cls-1" d="M744.33,106.75s1.93,1.51,3.12,2.59c-.07,.39-.46,.56-.94,.56h-16.21l-.28-1.02h12.64l1.68-2.14Zm-3.25,6.62l1.61-2s1.82,1.4,2.94,2.45c-.11,.39-.46,.56-.91,.56h-12.67l-.28-1.02h9.31Zm1.61,2.49s1.82,1.4,2.94,2.49c-.11,.39-.46,.56-.91,.56h-12.67l-.28-1.02h9.31l1.61-2.03Zm.07,5.18l3.05,2.28c-.25,.28-.77,.56-1.47,.7v8.3c-.04,.21-1.33,.81-2.21,.81h-.42v-1.82h-6.65v2.1c0,.28-1.12,.88-2.17,.88h-.38v-12.92l2.73,1.16h6.13l1.4-1.47Zm-1.05,9.21v-6.69h-6.65v6.69h6.65Zm-6.13-27.76c7.42,1.64,4.9,7.32,2.17,5.29-.18-1.75-1.4-3.82-2.52-5.04l.35-.24Zm23.98,10.43s1.96,1.54,3.15,2.66c-.1,.38-.46,.56-.94,.56h-7.21v17.47c0,.38-1.23,1.08-2.24,1.08h-.53v-18.55h-6.23l-.28-1.02h6.51v-12.57l4.03,.46c-.1,.49-.35,.84-1.26,.98v11.13h3.25l1.75-2.21Z"/>
      <path class="cls-1" d="M784.02,116.55c-.28,.28-.7,.49-1.44,.6-.28,10.15-1.05,14.53-2.55,16-.95,.91-2.17,1.29-3.57,1.29,0-.81-.11-1.5-.49-1.89-.42-.38-1.33-.73-2.31-.91v-.56c1.02,.07,2.66,.21,3.29,.21,.56,0,.84-.1,1.12-.42,1.02-.91,1.61-5.25,1.89-14.11h-4.34c-.59,7-2.24,13.2-7.07,18.06l-.42-.39c4.31-6.86,4.9-15.12,4.76-23.98h-4.13l-.28-1.05h12.11l1.71-2.21s2,1.54,3.19,2.7c-.1,.39-.45,.56-.95,.56h-8.61c-.04,1.82-.11,3.54-.25,5.29h3.95l1.51-1.61,2.87,2.42Zm-10.29-14.04c7.98,2.35,5.39,8.26,2.66,6.09-.21-2-1.68-4.41-3.01-5.85l.35-.25Zm27.62,13.2l-.11,.42c-1.12,.35-1.96,1.05-2.21,2.06-3.01-3.01-5.25-7.84-6.55-12.78-1.71,4.69-4.69,9.98-8.86,13.3l-.46-.32c3.46-4.24,5.99-10.96,6.86-16l4.27,.91c-.07,.42-.42,.63-1.33,.77,1.4,4.76,4.87,9.14,8.37,11.62Zm-16,9.66c14.7,3.05,14.14,10.57,10.4,9.03-2.03-3.01-7-6.69-10.68-8.65l.28-.39Zm3.19-9.21c9.31,1.58,7.95,7.39,4.87,5.95-.91-1.85-3.36-4.24-5.22-5.67l.35-.28Z"/>
      <path class="cls-1" d="M16.87,179.89v2.98H1.12v-2.38c2.1-2.1,4.13-4.31,5.81-6.06,3.89-4.06,5.5-7.04,5.5-10.12s-1.82-5.22-4.69-5.22c-.56,0-1.29,.07-2.07,.25l-.77,2.8c-.45,1.75-1.12,2.41-2.1,2.41-.81,0-1.47-.42-1.85-1.16,.52-3.92,3.89-5.81,7.7-5.81,4.94,0,7.14,2.7,7.14,6.55,0,3.29-1.79,5.92-7.67,11.48-1.09,1.05-2.73,2.63-4.48,4.27h13.23Z"/>
      <path class="cls-1" d="M36.57,170.51c0,9.45-3.96,12.85-7.98,12.85s-8.05-3.39-8.05-12.85,3.92-12.92,8.05-12.92,7.98,3.5,7.98,12.92Zm-7.98,11.38c2.35,0,4.55-2.38,4.55-11.38s-2.21-11.41-4.55-11.41-4.66,2.38-4.66,11.41,2.21,11.38,4.66,11.38Z"/>
      <path class="cls-1" d="M56.27,179.89v2.98h-15.75v-2.38c2.1-2.1,4.13-4.31,5.81-6.06,3.89-4.06,5.5-7.04,5.5-10.12s-1.82-5.22-4.69-5.22c-.56,0-1.29,.07-2.07,.25l-.77,2.8c-.45,1.75-1.12,2.41-2.1,2.41-.81,0-1.47-.42-1.85-1.16,.52-3.92,3.89-5.81,7.7-5.81,4.94,0,7.14,2.7,7.14,6.55,0,3.29-1.79,5.92-7.67,11.48-1.09,1.05-2.73,2.63-4.48,4.27h13.23Z"/>
      <path class="cls-1" d="M64.66,161.54c-.42,1.54-.94,2.28-2.17,2.28-.81,0-1.44-.35-1.79-1.3,.7-3.36,3.64-4.94,7.18-4.94,4.45,0,7.25,2.45,7.25,5.99,0,2.84-1.89,5.15-5.29,6.23,4.17,.77,6.09,3.12,6.09,6.27,0,4.24-3.47,7.28-8.58,7.28-3.82,0-6.65-1.61-7.35-5.32,.42-.84,1.05-1.23,1.86-1.23,1.19,0,1.65,.77,2.1,2.52l.63,2.28c.77,.21,1.51,.28,2.21,.28,3.82,0,5.78-2.13,5.78-5.64s-2-5.57-5.95-5.57h-1.82v-1.68h1.51c3.43,0,5.6-1.89,5.6-5.32,0-2.94-1.75-4.59-4.76-4.59-.52,0-1.15,.04-1.86,.21l-.63,2.24Z"/>
      <path class="cls-1" d="M108.05,173.1s2.28,1.68,3.61,2.91c-.07,.39-.46,.56-.91,.56h-12.04v8.23c0,.21-.94,.88-2.45,.88h-.52v-9.1h-16l-.28-1.02h6.06v-10.61l3.36,1.37h6.86v-6.62h-7.6c-2.49,3.47-5.39,6.27-8.44,8.19l-.45-.38c3.29-3.26,6.79-8.79,8.86-14.6l4.24,1.65c-.17,.38-.63,.7-1.44,.59-.63,1.23-1.33,2.42-2.07,3.54h16.1l1.96-2.42s2.17,1.58,3.61,2.87c-.1,.38-.46,.56-.98,.56h-10.82v6.62h5.46l1.82-2.31s2.07,1.61,3.36,2.77c-.07,.35-.46,.53-.94,.53h-9.7v8.26h7.39l1.96-2.45Zm-12.32,2.45v-8.26h-7.28v8.26h7.28Z"/>
      <path class="cls-1" d="M130.94,176.84c0,3.89-3.33,6.51-7.84,6.51s-7.88-2.14-7.88-6.09c0-2.84,1.96-4.8,5.57-6.55-3.33-1.79-4.76-4.1-4.76-6.76,0-3.95,3.18-6.37,7.18-6.37s6.58,2.45,6.58,5.88c0,1.89-1.09,4.13-4.62,6.09,3.92,1.93,5.78,3.92,5.78,7.28Zm-3.08,.39c0-2.28-1.43-3.78-5.88-5.92-2.48,1.58-3.71,2.98-3.71,5.57,0,3.05,2,5.04,4.94,5.04s4.66-1.96,4.66-4.69Zm-3.85-8.23c2.21-1.71,3.05-3.25,3.05-5.43,0-2.49-1.44-4.48-3.92-4.48-2.24,0-4.2,1.54-4.2,4.03,0,2.07,1.05,3.96,5.08,5.88Z"/>
      <path class="cls-1" d="M162.01,157.06c-.21,.28-.77,.6-1.47,.7v24.01c0,2.17-.49,3.54-4.52,3.92-.11-.94-.35-1.64-.91-2.1-.63-.45-1.65-.84-3.54-1.12v-.52s4.34,.31,5.15,.31c.73,0,.95-.28,.95-.84v-8.26h-13.44c-.81,4.8-3.05,9.28-9,12.53l-.39-.38c5.95-4.83,6.97-11.06,6.97-18.13v-12.25l3.36,1.37h12.15l1.4-1.75,3.29,2.52Zm-4.34,15.05v-7h-13.02v2.03c0,1.64-.07,3.33-.28,4.97h13.3Zm-13.02-14.84v6.79h13.02v-6.79h-13.02Z"/>
      <path class="cls-1" d="M177.5,163.47c-.1,.28-.42,.49-1.05,.6v20.65c-.07,.25-1.23,.91-2.28,.91h-.52v-18.13c-1.09,1.58-2.17,2.98-3.4,4.17l-.52-.31c2.66-4.41,5.36-11.27,6.83-17.92l4.34,1.26c-.1,.42-.52,.74-1.33,.7-.95,2.7-2,5.25-3.22,7.63l1.15,.46Zm10.01-6.3c-.18,.42-.6,.7-1.33,.67-1.93,5.53-5.01,9.63-8.82,12.18l-.45-.35c2.94-3.19,5.46-8.16,6.65-13.83l3.96,1.33Zm8.44,9.14l2.87,2.38c-.25,.28-.66,.46-1.4,.56-.28,9.14-1.02,13.65-2.48,15.09-.95,.91-2.24,1.29-3.68,1.29,0-.81-.11-1.47-.56-1.85-.49-.39-1.61-.74-2.8-.95l.04-.56c1.23,.07,3.22,.25,3.89,.25,.6,0,.88-.07,1.19-.35,.98-.91,1.54-5.32,1.79-13.3h-6.44c-.46,5.74-1.75,12.11-9.77,16.8l-.49-.56c6.34-5.04,7.07-11.13,7.25-16.24h-4.48l-.32-1.02h13.93l1.47-1.54Zm.35-10.61c-.38,.42-1.33,.7-2.48,.77,1.4,3.75,4.76,7.42,9.03,9.49l-.11,.42c-1.08,.28-2.07,1.23-2.41,2.31-3.82-2.94-6.3-7.28-7.46-12.36h-3.75l-.32-1.05h3.26l1.12-1.72,3.12,2.14Z"/>
      <path class="cls-1" d="M237,181.81c.88,.31,1.12,.66,1.12,1.23,0,1.19-1.23,1.72-6.97,1.72h-3.82c-3.08,0-3.71-.6-3.71-2.66v-10.43h-4.62c-.7,6.23-2.24,11.17-13.23,14.11l-.35-.49c8.68-3.64,10.05-8.33,10.43-13.62h-8.58l-.28-1.02h24.68l1.86-2.21s2.06,1.54,3.4,2.66c-.11,.38-.46,.56-.95,.56h-9.56v9.8c0,.56,.14,.7,1.44,.7h3.47c1.44,0,2.66,0,3.19-.04,.39-.03,.52-.14,.7-.49,.31-.63,.77-2.49,1.26-4.66h.46l.07,4.83Zm-26.32-21.74c.1,2.38-.81,3.96-1.93,4.66-.98,.7-2.49,.56-2.98-.49-.32-.95,.28-1.82,1.19-2.31,1.33-.74,2.73-2.63,2.56-4.73l.6-.04c.21,.67,.38,1.3,.46,1.89h22.47l1.72-1.71,3.08,2.94c-.24,.25-.63,.32-1.36,.35-1.09,1.26-2.98,2.91-4.52,3.89l-.39-.28c.53-1.09,1.16-2.8,1.58-4.17h-22.47Zm15.86,4.73l1.75-2.1s2,1.47,3.22,2.59c-.04,.38-.42,.56-.91,.56h-18.52l-.28-1.05h14.74Zm-7.32-11.38c7.84,1.12,5.15,7.07,2.24,4.9-.14-1.65-1.33-3.61-2.56-4.66l.32-.24Z"/>
      <path class="cls-1" d="M269.68,179.22s2.35,1.75,3.71,3.01c-.11,.39-.46,.56-.91,.56h-31.12l-.32-1.02h14.53v-22.05h-11.87l-.28-1.02h22.02l2-2.52s2.28,1.72,3.68,2.98c-.1,.39-.46,.56-.98,.56h-11.52v22.05h9.07l2-2.56Z"/>
      <path class="cls-1" d="M289.62,185.28c2.66-1.33,3.5-3.43,3.6-4.87-1.36-.49-3.19-1.12-3.19-3.05,0-1.19,.88-2.28,2.41-2.28s2.7,1.33,2.7,3.26c0,2.77-1.26,6.23-4.97,7.88l-.56-.95Zm3.01-25.48c1.4,0,2.49,1.15,2.49,2.52s-1.09,2.52-2.49,2.52-2.56-1.12-2.56-2.52,1.12-2.52,2.56-2.52Z"/>
      <path class="cls-1" d="M319.4,165.64c6.72,3.01,4.41,7.56,2.17,5.67-.25-1.47-1.23-3.29-2.17-4.73v18.2c0,.35-1.12,.98-2.03,.98h-.56v-15.58c-1.19,2.7-2.7,5.22-4.59,7.39l-.53-.42c2.42-4.03,3.82-9.24,4.59-14.42h-4.16l-.28-1.02h4.97v-8.44l3.89,.42c-.1,.52-.39,.84-1.29,.98v7.04h.32l1.5-2.06s1.75,1.47,2.8,2.52c-.1,.39-.45,.56-.91,.56h-3.71v2.91Zm9.21-12.08l3.71,.39c-.07,.49-.35,.84-1.26,.98v15.44c-.03,7.18-2.31,12.15-9.63,15.37l-.38-.46c5.57-3.36,7.49-7.91,7.56-14.56-1.05,1.33-2.38,2.94-3.99,4.8,0,.42-.17,.84-.49,1.05l-2.06-2.8c1.15-.66,3.85-2.31,6.55-4.17v-16.03Zm-4.76,5.74c6.76,3.96,4.41,9,2.14,6.86-.14-2.14-1.44-4.9-2.56-6.65l.42-.21Zm19.5,22.65c.77,.31,1.02,.6,1.02,1.12,0,1.05-1.12,1.5-5.01,1.5h-2.24c-2.38,0-2.94-.77-2.94-2.59v-28.39l3.75,.42c-.03,.49-.35,.84-1.23,.98v9.45c1.3-2,2.66-4.31,3.29-5.67l3.36,2.17c-.18,.32-.66,.6-1.37,.35-1.16,1.16-3.26,3.08-5.29,4.55v2.94c8.05,3.29,6.09,8.61,3.43,6.72-.46-1.82-1.96-3.99-3.43-5.64v11.34c0,.7,.14,.95,1.05,.95h1.72c.77,0,1.4,0,1.75-.04,.25,0,.38-.07,.56-.31,.25-.38,.66-2.28,.98-3.82h.46l.14,3.96Z"/>
      <path class="cls-1" d="M364.69,175.37h-4.06v7.49h-3.08v-7.49h-10.4v-1.86l11.34-15.72h2.14v15.33h4.06v2.24Zm-7.14-2.24v-11.8l-8.47,11.8h8.47Z"/>
      <path class="cls-1" d="M383.44,179.89v2.98h-15.75v-2.38c2.1-2.1,4.13-4.31,5.81-6.06,3.89-4.06,5.5-7.04,5.5-10.12s-1.82-5.22-4.69-5.22c-.56,0-1.29,.07-2.07,.25l-.77,2.8c-.46,1.75-1.12,2.41-2.1,2.41-.81,0-1.47-.42-1.85-1.16,.52-3.92,3.89-5.81,7.7-5.81,4.94,0,7.14,2.7,7.14,6.55,0,3.29-1.79,5.92-7.67,11.48-1.09,1.05-2.73,2.63-4.48,4.27h13.23Z"/>
      <path class="cls-1" d="M389.9,175.86c1.05,3.5,.59,6.16-.32,7.39-.59,.81-2,1.05-2.52,.25-.46-.73-.07-1.58,.6-2.17,.91-.98,1.82-3.4,1.61-5.46h.63Zm-2.7-4.2s.7-.18,.98-.39c1.64-1.4,3.54-3.92,5.15-6.37-1.12,.35-2.45,.77-3.82,1.16-.28,.42-.6,.7-.91,.84l-1.33-3.33s.66-.14,.91-.35c1.89-2,4.27-6.97,5.08-9.63l3.64,1.79c-.17,.31-.6,.6-1.26,.49-1.4,2.38-3.89,5.6-6.13,7.77,1.3,0,2.94,0,4.62-.03,.81-1.33,1.47-2.56,1.86-3.57l3.29,2.24c-.14,.28-.63,.49-1.3,.35-1.82,2.66-5.25,6.48-8.37,9.07,1.75-.07,4.13-.24,6.65-.42-.42-1.33-.98-2.66-1.54-3.64l.42-.21c5.81,3.75,3.54,8.19,1.54,6.3,0-.49-.07-1.05-.21-1.58-1.86,.56-4.52,1.37-7.25,2.1-.25,.38-.56,.59-.88,.7l-1.15-3.29Zm5.64,3.61c4.41,4.52,1.54,8.86-.21,6.62,.39-2.06,.18-4.73-.28-6.48l.49-.14Zm3.15-.6c5.5,3.12,3.19,7.39,1.26,5.57,0-1.75-.88-3.96-1.68-5.36l.42-.21Zm22.26-2.03c-.17,.28-.7,.49-1.33,.21-.94,.74-2.62,1.82-4.24,2.7,1.89,2.49,4.24,4.13,6.51,5.25l-.07,.35c-.98,.17-1.75,1.05-2.1,2.28-3.33-2.63-5.74-5.95-7.18-11.73v10.33c0,1.96-.46,3.36-3.75,3.68-.07-.8-.25-1.5-.63-1.89-.49-.42-1.26-.73-2.8-.94v-.53s3.19,.25,3.85,.25c.6,0,.77-.21,.77-.63v-8.72c-.21,.07-.52,.14-.98,.17-1.23,4.27-3.92,8.33-8.72,10.89l-.35-.49c3.47-2.62,5.53-6.58,6.48-10.64h-4.24l-.32-1.05h4.41l1.51-1.44,2.2,1.93v-4.17h-3.89v1.12c0,.18-.81,.67-2.07,.67h-.42v-13.69l2.91,1.23h2.14c.28-1.23,.6-3.19,.81-4.48l4.24,.73c-.14,.53-.6,.81-1.33,.84-.7,.84-1.75,2.03-2.56,2.91h6.23l1.3-1.47,2.7,2.06c-.25,.28-.6,.49-1.3,.63v10.19c0,.17-.94,.7-2.14,.7h-.42v-1.44h-3.64v1.33c.56,2.03,1.4,3.71,2.35,5.11,1.19-1.47,2.48-3.47,3.01-4.62l3.04,2.38Zm-14.84-13.86v3.78h10.08v-3.78h-10.08Zm10.08,8.61v-3.82h-10.08v3.82h10.08Z"/>
      <path class="cls-1" d="M432.91,189.58l-.8,.63c-5.43-5.08-8.02-10.92-8.02-17.99s2.59-12.92,8.02-18.03l.8,.67c-4.59,6.51-5.92,11.1-5.92,17.36s1.37,10.89,5.92,17.36Z"/>
      <path class="cls-1" d="M463.22,157.06c-.21,.28-.77,.6-1.47,.7v24.01c0,2.17-.49,3.54-4.52,3.92-.1-.94-.35-1.64-.91-2.1-.63-.45-1.65-.84-3.54-1.12v-.52s4.34,.31,5.15,.31c.73,0,.95-.28,.95-.84v-8.26h-13.44c-.81,4.8-3.05,9.28-9,12.53l-.39-.38c5.95-4.83,6.97-11.06,6.97-18.13v-12.25l3.36,1.37h12.15l1.4-1.75,3.29,2.52Zm-4.34,15.05v-7h-13.02v2.03c0,1.64-.07,3.33-.28,4.97h13.3Zm-13.02-14.84v6.79h13.02v-6.79h-13.02Z"/>
      <path class="cls-1" d="M478.68,165.64c6.72,3.01,4.41,7.56,2.17,5.67-.25-1.47-1.23-3.29-2.17-4.73v18.2c0,.35-1.12,.98-2.03,.98h-.56v-15.58c-1.19,2.7-2.7,5.22-4.59,7.39l-.53-.42c2.42-4.03,3.82-9.24,4.59-14.42h-4.17l-.28-1.02h4.97v-8.44l3.89,.42c-.11,.52-.39,.84-1.29,.98v7.04h.31l1.5-2.06s1.75,1.47,2.8,2.52c-.1,.39-.46,.56-.91,.56h-3.71v2.91Zm9.21-12.08l3.71,.39c-.07,.49-.35,.84-1.26,.98v15.44c-.03,7.18-2.31,12.15-9.63,15.37l-.38-.46c5.57-3.36,7.49-7.91,7.56-14.56-1.05,1.33-2.38,2.94-3.99,4.8,0,.42-.17,.84-.49,1.05l-2.07-2.8c1.15-.66,3.85-2.31,6.55-4.17v-16.03Zm-4.76,5.74c6.76,3.96,4.41,9,2.14,6.86-.14-2.14-1.44-4.9-2.56-6.65l.42-.21Zm19.5,22.65c.77,.31,1.02,.6,1.02,1.12,0,1.05-1.12,1.5-5.01,1.5h-2.24c-2.38,0-2.94-.77-2.94-2.59v-28.39l3.75,.42c-.03,.49-.35,.84-1.23,.98v9.45c1.3-2,2.66-4.31,3.29-5.67l3.36,2.17c-.18,.32-.67,.6-1.37,.35-1.16,1.16-3.26,3.08-5.29,4.55v2.94c8.05,3.29,6.09,8.61,3.43,6.72-.45-1.82-1.96-3.99-3.43-5.64v11.34c0,.7,.14,.95,1.05,.95h1.72c.77,0,1.4,0,1.75-.04,.25,0,.38-.07,.56-.31,.25-.38,.66-2.28,.98-3.82h.46l.14,3.96Z"/>
      <path class="cls-1" d="M515.25,179.75c1.75-.42,3.64-.88,5.53-1.37l.14,.49c-2.98,1.37-7,3.19-12.53,5.36-.14,.42-.49,.73-.84,.84l-1.3-3.33c.52-.11,1.26-.25,2.14-.42v-12.39l3.29,.35c-.07,.39-.35,.67-.98,.77v10.75l2.03-.45v-15.02h-1.85v.84c0,.21-.81,.81-2.14,.81h-.39v-12.32l2.94,1.23h4.83l1.33-1.47,3.01,2.27c-.25,.25-.77,.53-1.44,.67v8.44c-.07,.21-1.33,.7-2.14,.7h-.42v-1.16h-1.23v5.5h1.12l1.54-2.17s1.79,1.58,2.84,2.66c-.1,.38-.42,.56-.91,.56h-4.59v7.88Zm-4.38-15.44h5.6v-7.42h-5.6v7.42Zm25.59-5.74c-.25,.31-.63,.42-1.44,.49-1.15,2.63-2.73,5.08-4.73,7.25,2.38,1.89,5.43,3.33,9.21,4.27l-.1,.35c-1.09,.31-1.82,1.05-2.06,2.42-1.26-.49-2.42-1.02-3.47-1.61l2.66,2.07c-.25,.24-.56,.42-1.3,.56v10.5c0,.14-.98,.73-2.31,.73h-.49v-2.38h-7.88v1.71c0,.21-.88,.74-2.24,.74h-.46v-13.13c-1.26,.6-2.59,1.16-3.99,1.65l-.28-.49c3.99-1.86,7.35-4.48,9.94-7.53-1.09-1.47-1.96-3.08-2.73-4.8-1.51,1.96-3.22,3.6-5.08,4.83l-.45-.35c2.59-2.84,5.08-7.46,6.34-12.5l3.92,1.33c-.17,.42-.59,.74-1.36,.66-.32,.81-.67,1.54-1.05,2.28h4.9l1.68-1.58,2.77,2.52Zm-2.8,13.06c-1.89-1.12-3.47-2.41-4.8-3.85-1.82,1.68-3.89,3.15-6.3,4.41l2.35,.98h7.42l1.33-1.54Zm-1.23,10.57v-8.02h-7.88v8.02h7.88Zm-5.85-23.56c-.39,.67-.81,1.33-1.23,1.96,.88,1.54,1.92,2.98,3.22,4.24,1.47-1.93,2.59-4.03,3.43-6.2h-5.43Z"/>
      <path class="cls-1" d="M541.91,154.86l.8-.67c5.39,5.11,7.98,10.92,7.98,18.03s-2.59,12.92-7.98,17.99l-.8-.63c4.55-6.55,5.88-11.13,5.88-17.36s-1.37-10.89-5.88-17.36Z"/>
      <path class="cls-1" d="M568.4,168.06c-1.4,.81-3.12,1.79-5.18,2.87v11.03c0,2.17-.38,3.36-3.75,3.71-.07-.84-.25-1.54-.67-1.96-.49-.46-1.23-.77-2.59-.98v-.52s2.98,.21,3.61,.21c.56,0,.73-.18,.73-.66v-9.42c-1.05,.56-2.17,1.12-3.4,1.71-.11,.46-.42,.81-.77,.95l-1.26-3.54c1.09-.25,3.05-.77,5.43-1.47v-7.46h-4.62l-.28-1.02h4.9v-8.12l3.96,.42c-.07,.52-.42,.88-1.3,.98v6.72h.77l1.58-2.17s1.75,1.5,2.77,2.62c-.1,.39-.42,.56-.91,.56h-4.2v6.65c1.65-.49,3.36-1.02,5.08-1.58l.11,.45Zm8.93-10.19c-.88,3.5-2.21,6.97-4.03,10.19l.81,.35h8.58l1.47-1.65,3.25,2.49c-.25,.28-.8,.6-1.54,.74v14.56c-.04,.25-1.44,.88-2.38,.88h-.42v-2.98h-9.42v2.35c0,.21-.84,.91-2.24,.91h-.49v-13.86c-1.89,2.59-4.1,4.97-6.65,6.93l-.42-.42c5.14-5.46,8.79-13.3,10.05-20.48h-7.35l-.28-1.02h16.66l1.86-2.45s2.17,1.71,3.43,2.91c-.11,.38-.45,.56-.91,.56h-9.98Zm-3.67,11.55v11.97h9.42v-11.97h-9.42Z"/>
      <path class="cls-1" d="M623.66,158.29c-.25,.28-.66,.32-1.33,.35-.81,.77-2.24,1.75-3.33,2.31l-.18-.1c.53,.42,1.16,.98,1.65,1.44-.11,.39-.42,.56-.88,.56h-7.46v1.75c0,.17-1.16,.56-2.03,.56h-.56v-6.37l3.64,.38c-.07,.42-.28,.7-1.05,.81v1.86h4.13l1.47-1.82s.35,.25,.84,.66c.28-.66,.6-1.61,.84-2.49h-23.7c.04,1.65-.63,2.73-1.47,3.26-.84,.46-2.1,.35-2.45-.6-.28-.88,.28-1.61,1.05-1.96,1.05-.53,1.93-1.89,1.75-3.26l.6-.04c.21,.52,.35,1.09,.42,1.58h23.66l1.54-1.54,2.84,2.66Zm-1.68,24.19c.84,.32,1.05,.6,1.05,1.09,0,1.09-1.09,1.4-6.93,1.4h-3.89c-3.01,0-3.57-.52-3.57-2.31v-5.39h-3.26c-.88,3.96-2.87,6.93-13.13,8.79l-.35-.56c8.16-2.14,9.98-5.01,10.61-8.23h-3.4v.73c0,.25-1.19,.91-2.31,.91h-.42v-14.42l2.94,1.23h15.02l1.4-1.47,3.01,2.24c-.21,.25-.74,.56-1.33,.67v10.15c-.04,.25-1.4,.81-2.31,.81h-.46v-.84h-3.33v5.04c0,.42,.14,.52,1.4,.52h3.54c1.47,0,2.73,0,3.22-.04,.46-.03,.6-.1,.77-.46,.32-.56,.7-2.06,1.16-3.89h.46l.1,4.03Zm-20.02-17.43v-2.42h-6.37l-.32-1.05h6.69v-2.87l3.61,.39c-.11,.42-.32,.7-1.05,.81v4.73c0,.14-1.12,.42-2,.42h-.56Zm-2.84,1.71v2.49h15.54v-2.49h-15.54Zm15.54,3.5h-15.54v2.31h15.54v-2.31Zm-15.54,5.99h15.54v-2.63h-15.54v2.63Zm5.88-23.31c6.55,.88,3.78,5.67,1.33,3.75-.07-1.26-.88-2.69-1.65-3.5l.32-.25Zm8.54,25.73c6.58,0,5.46,4.69,3.04,3.54-.52-1.19-2.06-2.52-3.36-3.22l.32-.31Z"/>
      <path class="cls-1" d="M640.87,157.69s1.93,1.51,3.12,2.59c-.07,.39-.46,.56-.94,.56h-16.21l-.28-1.02h12.64l1.68-2.14Zm-3.25,6.62l1.61-2s1.82,1.4,2.94,2.45c-.11,.39-.45,.56-.91,.56h-12.67l-.28-1.02h9.31Zm1.61,2.49s1.82,1.4,2.94,2.49c-.11,.39-.45,.56-.91,.56h-12.67l-.28-1.02h9.31l1.61-2.03Zm.07,5.18l3.05,2.28c-.25,.28-.77,.56-1.47,.7v8.3c-.04,.21-1.33,.81-2.2,.81h-.42v-1.82h-6.65v2.1c0,.28-1.12,.88-2.17,.88h-.38v-12.92l2.73,1.16h6.13l1.4-1.47Zm-1.05,9.21v-6.69h-6.65v6.69h6.65Zm-6.13-27.76c7.42,1.64,4.9,7.32,2.17,5.29-.18-1.75-1.4-3.82-2.52-5.04l.35-.24Zm23.98,10.43s1.96,1.54,3.15,2.66c-.1,.38-.46,.56-.95,.56h-7.21v17.47c0,.38-1.23,1.08-2.24,1.08h-.53v-18.55h-6.23l-.28-1.02h6.51v-12.57l4.03,.46c-.1,.49-.35,.84-1.26,.98v11.13h3.25l1.75-2.21Z"/>
      <path class="cls-1" d="M681.46,157.69s1.5,1.26,2.34,2.17c-.07,.35-.38,.52-.84,.52h-3.33v3.29c0,.25-1.26,.84-2.1,.84h-.38v-.66h-4.24v2.21h4.69l1.4-1.72s1.54,1.26,2.52,2.21c-.07,.39-.42,.56-.88,.56h-7.74v2.17h5.11l1.5-1.89s1.68,1.33,2.8,2.35c-.11,.38-.46,.56-.95,.56h-19.04l-.28-1.02h8.3v-2.17h-7.04l-.28-1.05h7.32v-2.21h-6.41l-.32-.98h6.72v-2.49h-8.05l-.28-.98h8.33v-2.45h-6.13l-.31-.98h6.44v-2.52l3.68,.39c-.07,.46-.39,.77-1.12,.91v1.23h3.88l1.33-1.4,2.8,2.14c-.21,.25-.74,.49-1.29,.63v2.06h.52l1.3-1.72Zm-19.36,24.57c3.54-.07,11.59-.42,20.09-.91l.04,.6c-4.03,.84-9.66,1.82-17.68,3.05-.25,.42-.59,.67-.98,.73l-1.47-3.47Zm15.05-1.54v-.91h-10.57v.56c0,.17-.8,.73-2.07,.73h-.42v-10.22l2.91,1.23h9.8l1.37-1.44,2.91,2.21c-.21,.25-.77,.52-1.37,.67v6.41c-.04,.24-1.29,.77-2.13,.77h-.42Zm-10.57-7.6v2.27h3.96v-2.27h-3.96Zm0,5.67h3.96v-2.38h-3.96v2.38Zm6.34-19.39h4.24v-2.45h-4.24v2.45Zm4.24,.98h-4.24v2.49h4.24v-2.49Zm-4.17,12.74v2.27h4.17v-2.27h-4.17Zm4.17,5.67v-2.38h-4.17v2.38h4.17Zm9.56-1.61c0,.32-1.12,.84-2.07,.84h-.49v-21.42l3.75,.39c-.07,.49-.39,.8-1.19,.94v19.25Zm7.35-22.72c-.1,.49-.42,.84-1.26,.95v26.57c0,2.1-.42,3.36-3.96,3.71-.07-.88-.28-1.5-.77-1.96-.53-.46-1.33-.77-2.94-.98v-.56s3.54,.28,4.27,.28c.59,0,.77-.21,.77-.73v-27.69l3.88,.42Z"/>
      <path class="cls-1" d="M703.82,158.22c-1.75,2.45-3.85,4.52-5.91,5.88l-.46-.38c2.13-2.42,4.38-6.41,5.71-10.57l3.89,1.4c-.17,.38-.6,.67-1.37,.59-.35,.74-.74,1.4-1.19,2.07h5.46l1.47-1.93s1.72,1.33,2.77,2.38c-.11,.38-.42,.56-.88,.56h-9.49Zm22.4,14.74l2.87,2.35c-.25,.28-.66,.42-1.37,.53-.35,3.81-1.15,6.23-2.52,7.14-.88,.59-2.1,.88-3.5,.88,0-.73-.1-1.47-.59-1.86-.49-.39-1.61-.74-2.83-.91l.03-.56c1.26,.07,3.4,.24,4.1,.24,.56,0,.84-.03,1.08-.28,.6-.46,1.12-2.24,1.47-5.04h-9.66v9.49c-.04,.21-.95,.81-2.38,.81h-.46v-8.4c-3.5,3.36-8.47,5.99-14.14,7.63l-.32-.52c5.11-2.14,9.63-5.46,12.46-9h-6.48l-1.19,1.29-2.77-1.96c.32-.28,.84-.52,1.33-.74,.46-1.85,.95-4.73,1.16-6.37l3.22,1.51h6.72v-4.2h-11.76l-.32-1.02h22.47l1.4-1.47,3.01,2.21c-.21,.25-.7,.56-1.33,.66v5.39c-.04,.25-1.37,.88-2.31,.88h-.45v-1.4h-7.88v4.2h9.38l1.54-1.47Zm-13.76,1.47v-4.2h-7.56c-.25,1.29-.59,2.91-.91,4.2h8.47Zm-6.9-15.54c5.99,1.02,3.96,5.29,1.82,3.71-.21-1.23-1.26-2.66-2.17-3.4l.35-.31Zm21.28-3.82s1.89,1.47,3.05,2.56c-.11,.39-.46,.56-.91,.56h-11.38c-1.4,1.89-3.05,3.47-4.69,4.59l-.46-.35c1.72-2.17,3.43-5.67,4.48-9.24l3.85,1.47c-.14,.42-.59,.7-1.33,.63-.35,.66-.73,1.26-1.16,1.89h6.86l1.68-2.1Zm-11.55,14.11h7.88v-4.2h-7.88v4.2Zm4.2-10.22c6.34,.7,4.34,5.22,2.03,3.68-.25-1.23-1.33-2.66-2.35-3.36l.32-.31Z"/>
      <path class="cls-1" d="M759.01,179.54l2.21-2.87s2.49,1.96,3.99,3.33c-.1,.39-.42,.56-.94,.56h-30.59l-.28-1.02h25.62Zm-3.29-19.53l2.13-2.77s2.45,1.89,3.89,3.19c-.11,.39-.46,.56-.95,.56h-23.8l-.28-.98h19.01Z"/>
      <path class="cls-1" d="M775.55,165.5c6.41,3.05,4.16,7.32,2.06,5.5-.21-1.44-1.19-3.29-2.06-4.66v18.31c0,.35-1.12,1.02-2.03,1.02h-.53v-15.44c-1.12,2.66-2.52,5.08-4.31,7.25l-.52-.46c2.27-3.96,3.57-9.14,4.3-14.21h-3.64l-.28-1.02h4.45v-8.51l3.82,.42c-.11,.52-.38,.84-1.26,.98v7.11h.52l1.54-2.1s1.72,1.5,2.73,2.56c-.07,.38-.42,.56-.91,.56h-3.88v2.7Zm2.97,18.66c2.24-1.96,4.31-5.15,5.25-7.42l3.57,1.79c-.17,.35-.49,.53-1.29,.35-1.54,2-4.2,4.34-7.18,5.74l-.35-.46Zm1.23-27.48l-.28-1.01h16.45l1.75-2.17s1.92,1.5,3.12,2.62c-.07,.39-.42,.56-.91,.56h-6.37v3.61h2.55l1.37-1.43,2.98,2.21c-.25,.28-.81,.6-1.51,.74v6.23c-.03,.21-1.26,.74-2.1,.74h-.38v-1.19h-13.02v1.23c0,.25-1.08,.77-2.07,.77h-.35v-10.43l2.63,1.15h2.7v-3.61h-6.55Zm18.13,15.89s1.96,1.43,3.15,2.56c-.11,.38-.42,.56-.91,.56h-8.79v9.28c0,.14-.91,.7-2.28,.7h-.45v-9.98h-8.75l-.28-1.05h16.63l1.68-2.06Zm-2.1-4.06s1.89,1.44,3.08,2.49c-.11,.38-.42,.56-.91,.56h-15.96l-.28-1.02h12.36l1.71-2.03Zm-12.39-1.96h2.91v-5.25h-2.91v5.25Zm7.95-9.87h-2.83v3.61h2.83v-3.61Zm-2.83,9.87h2.83v-5.25h-2.83v5.25Zm4.87,10.85c9.28,2.52,7.6,8.47,4.69,6.69-.7-2.21-3.12-4.8-5-6.34l.31-.35Zm.14-16.1v5.25h2.91v-5.25h-2.91Z"/>
      <path class="cls-1" d="M30.45,231.95c1.4,.42,1.82,.63,1.82,1.23,0,1.37-1.58,2.28-8.02,2.28H11.27c-4.52,0-6.79-1.02-6.79-4.52v-18.38l3.92,.39c-.07,.49-.31,.81-1.08,.91v4.1H24.75v-9.52H2.73l-.31-.98H24.36l1.5-1.75,3.36,2.56c-.25,.32-.84,.67-1.61,.81v11.83c-.04,.25-1.47,.88-2.42,.88h-.46v-2.83H7.32v12.08c0,1.43,1.23,1.79,3.78,1.79h12.99c2.52,0,3.57-.18,4.13-1.19,.53-.94,1.33-3.85,1.79-6.02h.42l.03,6.37Z"/>
      <path class="cls-1" d="M51.24,218.44c-.28,.28-.7,.49-1.44,.6-.28,10.15-1.05,14.53-2.56,16-.94,.91-2.17,1.3-3.57,1.3,0-.81-.1-1.5-.49-1.89-.42-.38-1.33-.73-2.31-.91v-.56c1.02,.07,2.66,.21,3.29,.21,.56,0,.84-.1,1.12-.42,1.02-.91,1.61-5.25,1.89-14.11h-4.34c-.6,7-2.24,13.2-7.07,18.06l-.42-.39c4.31-6.86,4.9-15.12,4.76-23.98h-4.13l-.28-1.05h12.11l1.72-2.21s2,1.54,3.19,2.7c-.11,.39-.46,.56-.95,.56h-8.61c-.04,1.82-.1,3.54-.25,5.29h3.96l1.5-1.61,2.87,2.42Zm-10.29-14.04c7.98,2.35,5.39,8.26,2.66,6.09-.21-2-1.68-4.41-3.01-5.85l.35-.25Zm27.62,13.2l-.11,.42c-1.12,.35-1.96,1.05-2.21,2.06-3.01-3.01-5.25-7.84-6.55-12.78-1.72,4.69-4.69,9.98-8.86,13.3l-.46-.32c3.47-4.24,5.99-10.96,6.86-16l4.27,.91c-.07,.42-.42,.63-1.33,.77,1.4,4.76,4.87,9.14,8.37,11.62Zm-16,9.66c14.7,3.05,14.14,10.57,10.4,9.03-2.03-3.01-7-6.69-10.68-8.65l.28-.39Zm3.19-9.21c9.31,1.58,7.95,7.39,4.87,5.95-.91-1.85-3.36-4.24-5.22-5.67l.35-.28Z"/>
      <path class="cls-1" d="M87.22,230.83v2.98h-15.75v-2.38c2.1-2.1,4.13-4.31,5.81-6.06,3.89-4.06,5.5-7.04,5.5-10.12s-1.82-5.22-4.69-5.22c-.56,0-1.29,.07-2.07,.25l-.77,2.8c-.45,1.75-1.12,2.41-2.1,2.41-.81,0-1.47-.42-1.85-1.16,.52-3.92,3.89-5.81,7.7-5.81,4.94,0,7.14,2.7,7.14,6.55,0,3.29-1.79,5.92-7.67,11.48-1.09,1.05-2.73,2.63-4.48,4.27h13.23Z"/>
      <path class="cls-1" d="M106.61,221.45c0,9.45-3.96,12.85-7.98,12.85s-8.05-3.39-8.05-12.85,3.92-12.92,8.05-12.92,7.98,3.5,7.98,12.92Zm-7.98,11.38c2.35,0,4.55-2.38,4.55-11.38s-2.21-11.41-4.55-11.41-4.66,2.38-4.66,11.41,2.21,11.38,4.66,11.38Z"/>
      <path class="cls-1" d="M126,230.83v2.98h-15.75v-2.38c2.1-2.1,4.13-4.31,5.81-6.06,3.89-4.06,5.5-7.04,5.5-10.12s-1.82-5.22-4.69-5.22c-.56,0-1.29,.07-2.07,.25l-.77,2.8c-.46,1.75-1.12,2.41-2.1,2.41-.81,0-1.47-.42-1.85-1.16,.52-3.92,3.89-5.81,7.7-5.81,4.94,0,7.14,2.7,7.14,6.55,0,3.29-1.79,5.92-7.67,11.48-1.09,1.05-2.73,2.63-4.48,4.27h13.23Z"/>
      <path class="cls-1" d="M145.39,230.83v2.98h-15.75v-2.38c2.1-2.1,4.13-4.31,5.81-6.06,3.89-4.06,5.5-7.04,5.5-10.12s-1.82-5.22-4.69-5.22c-.56,0-1.29,.07-2.07,.25l-.77,2.8c-.46,1.75-1.12,2.41-2.1,2.41-.81,0-1.47-.42-1.86-1.16,.52-3.92,3.89-5.81,7.7-5.81,4.94,0,7.14,2.7,7.14,6.55,0,3.29-1.79,5.92-7.67,11.48-1.09,1.05-2.73,2.63-4.48,4.27h13.23Z"/>
      <path class="cls-1" d="M177.17,224.04s2.28,1.68,3.61,2.91c-.07,.39-.46,.56-.91,.56h-12.04v8.23c0,.21-.94,.88-2.45,.88h-.52v-9.1h-16l-.28-1.02h6.06v-10.61l3.36,1.37h6.86v-6.62h-7.6c-2.49,3.47-5.39,6.27-8.44,8.19l-.46-.38c3.29-3.26,6.79-8.79,8.86-14.6l4.24,1.65c-.17,.38-.63,.7-1.44,.59-.63,1.23-1.33,2.42-2.07,3.54h16.1l1.96-2.42s2.17,1.58,3.61,2.87c-.1,.38-.46,.56-.98,.56h-10.82v6.62h5.46l1.82-2.31s2.07,1.61,3.36,2.77c-.07,.35-.45,.53-.94,.53h-9.7v8.26h7.39l1.96-2.45Zm-12.32,2.45v-8.26h-7.28v8.26h7.28Z"/>
      <path class="cls-1" d="M187.64,218.93c1.26-.39,2.48-.56,3.89-.56,4.97,0,8.37,2.77,8.37,7.74s-3.54,8.19-8.96,8.19c-3.89,0-6.37-1.79-7.14-5.32,.31-.81,.98-1.23,1.82-1.23,1.12,0,1.61,.56,2.07,2.41l.63,2.31c.8,.24,1.54,.35,2.35,.35,3.82,0,5.88-2.48,5.88-6.34s-2.28-6.09-5.99-6.09c-1.23,0-2.49,.14-3.71,.49l-.98-.28,.81-11.55h12.53v2.98h-11.06l-.49,6.9Z"/>
      <path class="cls-1" d="M230.51,208.01c-.21,.28-.77,.6-1.47,.7v24.01c0,2.17-.49,3.54-4.52,3.92-.1-.94-.35-1.64-.91-2.1-.63-.46-1.65-.84-3.54-1.12v-.52s4.34,.31,5.15,.31c.73,0,.95-.28,.95-.84v-8.26h-13.44c-.81,4.8-3.05,9.28-9,12.53l-.39-.38c5.95-4.83,6.97-11.06,6.97-18.13v-12.25l3.36,1.37h12.15l1.4-1.75,3.29,2.52Zm-4.34,15.05v-7h-13.02v2.03c0,1.64-.07,3.33-.28,4.97h13.3Zm-13.02-14.84v6.79h13.02v-6.79h-13.02Z"/>
      <path class="cls-1" d="M245.7,214.41c-.1,.28-.42,.49-1.05,.6v20.65c-.07,.25-1.23,.91-2.28,.91h-.52v-18.13c-1.09,1.58-2.17,2.98-3.4,4.17l-.52-.32c2.66-4.41,5.36-11.27,6.83-17.92l4.34,1.26c-.11,.42-.52,.74-1.33,.7-.95,2.7-2,5.25-3.22,7.63l1.15,.46Zm10.01-6.3c-.18,.42-.6,.7-1.33,.67-1.93,5.53-5.01,9.63-8.82,12.18l-.45-.35c2.94-3.19,5.46-8.16,6.65-13.83l3.96,1.33Zm8.44,9.14l2.87,2.38c-.25,.28-.66,.46-1.4,.56-.28,9.14-1.02,13.65-2.48,15.09-.95,.91-2.24,1.29-3.68,1.29,0-.81-.11-1.47-.56-1.85-.49-.39-1.61-.74-2.8-.95l.04-.56c1.23,.07,3.22,.25,3.89,.25,.6,0,.88-.07,1.19-.35,.98-.91,1.54-5.32,1.79-13.3h-6.44c-.46,5.74-1.75,12.11-9.77,16.8l-.49-.56c6.34-5.04,7.07-11.13,7.25-16.24h-4.48l-.31-1.02h13.93l1.47-1.54Zm.35-10.61c-.38,.42-1.33,.7-2.48,.77,1.4,3.75,4.76,7.42,9.03,9.49l-.1,.42c-1.08,.28-2.07,1.23-2.41,2.31-3.82-2.94-6.3-7.28-7.46-12.36h-3.75l-.32-1.05h3.26l1.12-1.72,3.12,2.14Z"/>
      <path class="cls-1" d="M290.96,231.07c-3.54,1.12-8.4,2.63-15.23,4.38-.17,.45-.56,.73-.91,.81l-1.36-3.57c1.57-.1,4.27-.42,7.53-.84v-3.47h-6.79l-.25-1.02h7.04v-3.29h-3.75v.77c0,.17-.84,.67-2.07,.67h-.42v-12.15l2.84,1.19h3.39v-2.73h-7.28l-.28-.98h7.56v-2.84c-2.41,.21-4.9,.39-7.25,.42l-.14-.63c4.97-.7,11.24-2.28,14.49-3.5l2.84,2.8c-.35,.32-1.05,.28-1.89-.07-1.58,.25-3.47,.49-5.5,.73v3.08h3.71l1.65-2.07s1.89,1.44,3.01,2.49c-.1,.39-.42,.56-.91,.56h-7.46v2.73h3.81l1.19-1.47,2.7,2.03c-.21,.28-.56,.49-1.26,.59v8.51c0,.14-.95,.7-2.14,.7h-.42v-.84h-3.89v3.29h2.94l1.51-1.93s1.79,1.37,2.91,2.38c-.11,.39-.46,.56-.91,.56h-6.44v3.15c2.31-.31,4.8-.67,7.32-1.02l.11,.56Zm-13.72-15.51v3.22h3.75v-3.22h-3.75Zm3.75,7.49v-3.26h-3.75v3.26h3.75Zm2.56-7.49v3.22h3.89v-3.22h-3.89Zm3.89,7.49v-3.26h-3.89v3.26h3.89Zm18.59-9.31c-.25,.32-.67,.52-1.4,.63-.21,12.92-.7,18.62-2.27,20.44-.95,1.05-2.35,1.54-3.82,1.54,0-.91-.1-1.58-.49-2-.46-.42-1.58-.77-2.73-1.02v-.6c1.23,.14,3.05,.28,3.75,.28,.63,0,.88-.1,1.23-.42,1.09-1.08,1.44-7.18,1.65-18.66h-4.31c-.21,10.29-1.4,17.75-9.87,22.79l-.46-.59c6.51-5.22,7.53-12.36,7.63-22.19h-3.71l-.31-1.02h4.03c.04-2.56,0-5.29,0-8.19l3.99,.42c-.1,.53-.46,.88-1.23,.98-.03,2.38-.03,4.66-.07,6.79h3.96l1.54-1.72,2.91,2.52Z"/>
      <path class="cls-1" d="M337.26,230.16s2.35,1.75,3.71,3.01c-.11,.39-.46,.56-.91,.56h-31.12l-.32-1.02h14.53v-22.05h-11.87l-.28-1.02h22.02l2-2.52s2.28,1.72,3.68,2.98c-.1,.39-.46,.56-.98,.56h-11.52v22.05h9.07l2-2.56Z"/>
      <path class="cls-1" d="M357.07,223.86c1.93-1.19,2.87-2.62,3.29-4.34-1.75-.84-2.66-1.75-2.66-3.01,0-1.12,.77-2.14,2.21-2.14s2.41,1.09,2.41,3.19c0,2.45-1.12,5.71-4.66,7.42l-.6-1.12Z"/>
      <path class="cls-1" d="M399.28,206.61c-.38,.42-1.29,.67-2.49,.73,2.52,3.5,8.75,7.35,15.02,9.28l-.03,.42c-1.26,.28-2.35,1.3-2.7,2.52-5.43-2.87-10.78-7.39-13.3-12.25-3.6,5.71-9.91,10.61-16.77,13.55l-.31-.46c5.53-3.26,10.71-8.33,13.3-13.16h-6.93l-.32-1.02h10.01l1.23-1.85,3.29,2.24Zm7.91,25.52s2.1,1.68,3.43,2.91c-.1,.38-.46,.52-.95,.52h-29.16l-.28-1.02h13.3v-7.49h-9.52l-.28-1.02h9.8v-6.58h-8.44l-.28-1.02h15.75l1.75-2.07s1.93,1.47,3.19,2.52c-.11,.38-.46,.56-.95,.56h-8.12v6.58h5.95l1.79-2.17s2.03,1.51,3.25,2.63c-.07,.39-.38,.56-.88,.56h-10.12v7.49h8.82l1.93-2.41Z"/>
      <path class="cls-1" d="M417.17,226.8c1.05,3.5,.59,6.16-.32,7.39-.59,.81-2,1.05-2.52,.25-.45-.73-.07-1.58,.6-2.17,.91-.98,1.82-3.39,1.61-5.46h.63Zm-2.7-4.2s.7-.18,.98-.39c1.64-1.4,3.54-3.92,5.15-6.37-1.12,.35-2.45,.77-3.82,1.16-.28,.42-.6,.7-.91,.84l-1.33-3.33s.66-.14,.91-.35c1.89-2,4.27-6.97,5.08-9.63l3.64,1.79c-.17,.31-.6,.6-1.26,.49-1.4,2.38-3.89,5.6-6.13,7.77,1.3,0,2.94,0,4.62-.03,.81-1.33,1.47-2.56,1.86-3.57l3.29,2.24c-.14,.28-.63,.49-1.3,.35-1.82,2.66-5.25,6.48-8.37,9.07,1.75-.07,4.13-.24,6.65-.42-.42-1.33-.98-2.66-1.54-3.64l.42-.21c5.81,3.75,3.54,8.19,1.54,6.3,0-.49-.07-1.05-.21-1.58-1.86,.56-4.52,1.37-7.25,2.1-.25,.38-.56,.59-.88,.7l-1.15-3.29Zm5.64,3.61c4.41,4.52,1.54,8.86-.21,6.62,.39-2.06,.18-4.73-.28-6.48l.49-.14Zm3.15-.6c5.5,3.12,3.19,7.39,1.26,5.57,0-1.75-.88-3.96-1.68-5.36l.42-.21Zm22.26-2.03c-.18,.28-.7,.49-1.33,.21-.94,.74-2.62,1.82-4.24,2.7,1.89,2.49,4.24,4.13,6.51,5.25l-.07,.35c-.98,.17-1.75,1.05-2.1,2.28-3.33-2.63-5.74-5.95-7.18-11.73v10.33c0,1.96-.45,3.36-3.75,3.68-.07-.8-.25-1.5-.63-1.89-.49-.42-1.26-.73-2.8-.94v-.53s3.19,.25,3.85,.25c.6,0,.77-.21,.77-.63v-8.72c-.21,.07-.52,.14-.98,.17-1.23,4.27-3.92,8.33-8.72,10.89l-.35-.49c3.47-2.62,5.53-6.58,6.48-10.64h-4.24l-.31-1.05h4.41l1.51-1.44,2.21,1.93v-4.17h-3.89v1.12c0,.18-.81,.67-2.07,.67h-.42v-13.69l2.91,1.23h2.14c.28-1.23,.6-3.19,.81-4.48l4.24,.73c-.14,.53-.59,.81-1.33,.84-.7,.84-1.75,2.03-2.56,2.91h6.23l1.3-1.47,2.7,2.06c-.25,.28-.6,.49-1.3,.63v10.19c0,.17-.94,.7-2.14,.7h-.42v-1.44h-3.64v1.33c.56,2.03,1.4,3.71,2.35,5.11,1.19-1.47,2.48-3.47,3.01-4.62l3.05,2.38Zm-14.84-13.86v3.78h10.08v-3.78h-10.08Zm10.08,8.61v-3.82h-10.08v3.82h10.08Z"/>
      <path class="cls-1" d="M479.12,212.8s1.82,1.47,2.91,2.49c-.11,.39-.46,.56-.91,.56h-18.87c-.17,.17-.46,.25-.77,.25h-4.27v3.4c7.04,2.73,4.87,7.25,2.59,5.46-.35-1.51-1.5-3.36-2.59-4.73v15.54c0,.21-.88,.84-2.17,.84h-.42v-13.93c-1.44,2.84-3.29,5.43-5.57,7.63l-.46-.46c2.63-3.82,4.48-8.82,5.46-13.76h-4.34l-.28-1.02h5.18v-5.85c-1.71,.42-3.54,.81-5.25,1.05l-.17-.53c3.39-1.23,7.6-3.47,9.63-5.04l3.36,2.7c-.31,.32-.98,.39-1.89,.1-.88,.32-1.93,.67-3.08,1.02v6.55h.81l1.58-2.1s1.09,.94,2.07,1.86h8.54v-2.73h-6.62l-.28-.98h6.9v-2.49h-7.46l-.28-.98h7.74v-3.01l3.92,.39c-.07,.49-.42,.84-1.3,.98v1.65h4.34l1.54-2.1s1.82,1.47,2.91,2.52c-.11,.39-.46,.56-.91,.56h-7.88v2.49h3.61l1.47-1.71s1.68,1.23,2.73,2.13c-.07,.39-.38,.56-.88,.56h-6.93v2.73h4.73l1.58-2.03Zm-19.71,23.21c3.08-1.19,6.44-3.08,8.93-5.25l3.18,2.1c-.28,.31-.59,.39-1.26,.21-3.05,1.61-6.93,2.84-10.5,3.54l-.35-.6Zm17.15-5.04v-1.02h-9.8v.7c0,.28-1.12,.88-2.21,.88h-.39v-14.81l2.77,1.23h9.28l1.36-1.54,3.01,2.28c-.21,.25-.73,.52-1.36,.66v10.82c-.04,.25-1.4,.81-2.24,.81h-.42Zm-9.8-12.04v2.59h9.8v-2.59h-9.8Zm9.8,3.64h-9.8v2.59h9.8v-2.59Zm0,6.37v-2.77h-9.8v2.77h9.8Zm-3.47,2.14c12.74,2.24,7.98,7.21,5.78,4.97-1.12-1.37-3.19-3.05-5.99-4.45l.21-.52Z"/>
      <path class="cls-1" d="M491.47,216.55c5.78,3.57,3.57,7.77,1.58,5.95-.11-1.47-.84-3.29-1.58-4.73v17.85c0,.35-1.12,.98-2.03,.98h-.52v-15.4c-1.12,2.63-2.52,5.04-4.31,7.25l-.53-.46c2.28-3.99,3.57-9.14,4.31-14.25h-3.64l-.28-1.02h4.45v-8.51l3.82,.42c-.1,.52-.38,.84-1.26,.98v7.11h.53l1.54-2.1s1.72,1.5,2.73,2.56c-.07,.38-.42,.56-.91,.56h-3.89v2.8Zm22.09,15.58s2.03,1.5,3.29,2.66c-.11,.39-.46,.56-.95,.56h-22.26l-.28-1.05h18.41l1.79-2.17Zm-18.13-23.98l-.28-1.05h16.03l1.68-2.17s1.96,1.54,3.15,2.66c-.11,.38-.42,.56-.94,.56h-11.34c-.49,1.3-1.16,3.05-1.72,4.38h2.63l1.4-1.51,2.77,2.31c-.25,.24-.66,.45-1.4,.56-.17,11.66-.7,16.56-2.06,18.13-.91,.98-2.17,1.4-3.54,1.4,0-.77-.07-1.47-.49-1.79-.35-.38-1.37-.7-2.38-.91v-.59c1.09,.1,2.73,.24,3.36,.24s.84-.11,1.15-.38c.98-.98,1.33-6.06,1.54-16.45h-3.12l-1.23,1.26-2.69-2.1c.42-.25,.98-.52,1.54-.7,.52-1.23,1.08-2.73,1.47-3.85h-5.53Zm4.76,19.64v-1.44h-2.45v1.89c0,.21-.91,.7-1.71,.7h-.35v-13.34l2.2,1.05h2l1.12-1.19,2.42,1.89c-.18,.21-.66,.46-1.16,.56v9.17c-.04,.17-1.08,.7-1.75,.7h-.31Zm0-2.45v-7.67h-2.45v7.67h2.45Zm16.07-10.08c-.25,.32-.56,.42-1.29,.46-.35,2.24-.81,4.55-1.65,6.79,3.89,4.9,2.28,8.68,.18,6.9-.18-1.37-.67-2.8-1.37-4.31-1.12,2.1-2.66,3.99-4.73,5.57l-.38-.42c1.89-2.07,3.15-4.59,3.99-7.32-1.02-1.79-2.14-3.47-3.22-4.76l.49-.28c1.3,.94,2.42,1.82,3.36,2.73,.35-1.68,.63-3.47,.77-5.15h-4.2l-.52-1.01h4.83v-.04h-.32l1.44-1.47,2.62,2.31Z"/>
      <path class="cls-1" d="M537.18,231.07c-3.54,1.12-8.4,2.63-15.23,4.38-.17,.45-.56,.73-.91,.81l-1.37-3.57c1.58-.1,4.27-.42,7.53-.84v-3.47h-6.79l-.25-1.02h7.04v-3.29h-3.75v.77c0,.17-.84,.67-2.07,.67h-.42v-12.15l2.84,1.19h3.4v-2.73h-7.28l-.28-.98h7.56v-2.84c-2.41,.21-4.9,.39-7.25,.42l-.14-.63c4.97-.7,11.24-2.28,14.49-3.5l2.84,2.8c-.35,.32-1.05,.28-1.89-.07-1.57,.25-3.47,.49-5.5,.73v3.08h3.71l1.65-2.07s1.89,1.44,3.01,2.49c-.11,.39-.42,.56-.91,.56h-7.46v2.73h3.82l1.19-1.47,2.7,2.03c-.21,.28-.56,.49-1.26,.59v8.51c0,.14-.95,.7-2.14,.7h-.42v-.84h-3.89v3.29h2.94l1.51-1.93s1.79,1.37,2.91,2.38c-.1,.39-.46,.56-.91,.56h-6.44v3.15c2.31-.31,4.8-.67,7.32-1.02l.11,.56Zm-13.72-15.51v3.22h3.75v-3.22h-3.75Zm3.75,7.49v-3.26h-3.75v3.26h3.75Zm2.56-7.49v3.22h3.89v-3.22h-3.89Zm3.89,7.49v-3.26h-3.89v3.26h3.89Zm18.59-9.31c-.25,.32-.67,.52-1.4,.63-.21,12.92-.7,18.62-2.27,20.44-.95,1.05-2.35,1.54-3.82,1.54,0-.91-.1-1.58-.49-2-.46-.42-1.58-.77-2.73-1.02v-.6c1.23,.14,3.04,.28,3.75,.28,.63,0,.88-.1,1.23-.42,1.09-1.08,1.44-7.18,1.65-18.66h-4.31c-.21,10.29-1.4,17.75-9.87,22.79l-.46-.59c6.51-5.22,7.53-12.36,7.63-22.19h-3.71l-.31-1.02h4.03c.04-2.56,0-5.29,0-8.19l3.99,.42c-.11,.53-.46,.88-1.23,.98-.03,2.38-.03,4.66-.07,6.79h3.96l1.54-1.72,2.91,2.52Z"/>
      <path class="cls-1" d="M583.49,230.16s2.35,1.75,3.71,3.01c-.11,.39-.46,.56-.91,.56h-31.12l-.32-1.02h14.53v-22.05h-11.87l-.28-1.02h22.02l2-2.52s2.28,1.72,3.68,2.98c-.1,.39-.46,.56-.98,.56h-11.52v22.05h9.07l2-2.56Z"/>
      <path class="cls-1" d="M621.43,212.63c-.21,.28-.77,.59-1.47,.73v11.83c-.04,.24-1.47,.84-2.45,.84h-.49v-2.91h-9.52v12.39c0,.39-1.26,1.12-2.35,1.12h-.56v-13.51h-9.52v2.38c0,.28-1.22,.98-2.42,.98h-.45v-16.07l3.15,1.37h9.24v-7.46l4.2,.46c-.11,.49-.38,.88-1.29,1.02v5.99h9.17l1.54-1.61,3.22,2.45Zm-16.84,9.49v-9.31h-9.52v9.31h9.52Zm12.43,0v-9.31h-9.52v9.31h9.52Z"/>
      <path class="cls-1" d="M636.41,220.5c0-2.73,2.21-4.9,4.94-4.9s4.9,2.17,4.9,4.9-2.17,4.94-4.9,4.94-4.94-2.2-4.94-4.94Zm1.19,0c0,2.03,1.68,3.75,3.75,3.75s3.71-1.72,3.71-3.75-1.68-3.71-3.71-3.71-3.75,1.68-3.75,3.71Z"/>
    </g>
  </g>
</svg>