<?xml version="1.0" encoding="UTF-8"?>
<svg id="_圖層_2" data-name="圖層 2" xmlns="http://www.w3.org/2000/svg" xmlns:xlink="http://www.w3.org/1999/xlink" viewBox="0 0 364.76 134.75">
  <defs>
    <style>
      .cls-1 {
        filter: url(#drop-shadow-1);
      }

      .cls-2 {
        fill: #fff000;
      }
    </style>
    <filter id="drop-shadow-1" filterUnits="userSpaceOnUse">
      <feOffset dx="0" dy="0"/>
      <feGaussianBlur result="blur" stdDeviation="6.75"/>
      <feFlood flood-color="#231815" flood-opacity=".95"/>
      <feComposite in2="blur" operator="in"/>
      <feComposite in="SourceGraphic"/>
    </filter>
  </defs>
  <g id="_圖層_1-2" data-name="圖層 1">
    <g class="cls-1">
      <path class="cls-2" d="M23.16,25.17c-.34,.63-.86,.86-2.12,1.03-.8,5.56-2.18,10.89-4.93,15.65,6.31,2.87,14.79,3.5,26.37,3.5,2.81,0,9.52,0,13.01-.06v.63c-3.1,.69-4.59,3.67-4.76,6.88h-8.83c-13.36,0-22.53-1.32-28.84-6.59-2.87,3.33-6.71,6.19-11.87,8.37l-.4-.63c4.07-3.04,6.88-6.94,8.83-11.35-2.75-3.61-4.82-8.43-6.36-14.79l.52-.23c1.83,4.93,4.24,8.48,7.28,11.06,1.32-4.24,2.06-8.83,2.41-13.53h-1.89l-2.24,2.41-6.76-4.01c.52-.46,1.26-.92,2.01-1.32,2.06-3.84,4.93-10.32,6.36-14.27H1.83l-.52-1.6H10.78l3.27-3.27,6.42,5.85c-.4,.46-1.2,.75-2.18,.92-1.49,3.5-4.36,9.75-6.25,13.7h.92l3.61-3.84,6.59,5.5ZM51.42,8.94s3.38,3.5,5.1,5.68c-.17,.63-.75,.92-1.55,.92h-6.54v7.74c-.06,.23-1.09,.75-2.52,1.09,1.26,1.03,4.18,3.38,6.02,5.1-.17,.63-.75,.92-1.61,.92h-12.78v5.96h4.99l4.07-5.22s4.7,3.5,7.51,5.9c-.17,.63-.86,.92-1.66,.92h-14.91v4.93c0,.57-3.27,1.95-6.31,1.95h-1.55v-6.88h-10.43l-.46-1.61h10.89v-5.96h-8.03l-.46-1.6h8.48v-5.85h-7.45l-.52-1.6h7.97v-5.79h-11.41l-.46-1.6h11.87v-5.68h-8.31l-.52-1.6h8.83V.17l9.97,.92c-.11,.86-.52,1.43-2.12,1.66v3.9h2.81l3.32-3.61,6.94,5.22c-.34,.4-1.09,.92-2.18,1.15v4.53h.06l2.92-4.99Zm-13.87,4.99h3.38v-5.68h-3.38v5.68Zm3.38,1.6h-3.38v5.79h3.38v-5.79Zm3.84,9.12c-.86,.23-1.78,.34-2.58,.34h-1.26v-2.06h-3.38v5.85h4.18l3.04-4.13Z"/>
      <path class="cls-2" d="M82.78,7.4s3.5,2.87,5.62,4.82c-.11,.63-.75,.92-1.55,.92h-23.5l-.46-1.6h16.74l3.15-4.13Zm13.41,1.43c0,4.7-1.15,12.61-11.18,17.14,.46,.4,.86,.75,1.2,1.09-.17,.63-.75,.92-1.55,.92h-18.98l-.46-1.6h12.44l3.04-3.96s1.66,1.26,3.33,2.69c4.36-5.1,4.82-11.35,4.82-16.28V1.49l8.48,2.92h3.27l3.55-3.84,6.36,5.1c-.34,.4-1.03,.69-2.06,.86V14.73c0,.57,.17,.8,.8,.8h2.29c.34,0,1.03-.06,1.38-.06,.4-.06,1.03-.17,1.49-.29h.52l.29,.11c1.61,.8,2.12,1.55,2.12,2.87,0,2.75-2.41,4.3-8.03,4.3h-2.69c-4.87,0-5.39-1.43-5.39-5.85V6.02h-5.04v2.81Zm-18.52,10.03l3.04-3.96s3.44,2.69,5.5,4.64c-.17,.63-.75,.92-1.55,.92h-18.98l-.46-1.6h12.44Zm.17,32.68v-3.27h-4.82v3.44c0,.69-3.04,2.24-6.02,2.24h-1.03V31.07l7.28,2.87h4.07l3.15-3.38,6.54,4.93c-.29,.4-.97,.8-2.01,1.03v13.07c-.06,.46-3.5,1.95-5.9,1.95h-1.26ZM68.68,1.2c17.14-.57,10.66,12.84,3.44,8.14-.4-2.92-2.12-6.02-3.78-7.85l.34-.29Zm9.17,45.46v-11.12h-4.82v11.12h4.82Zm36.17-17.94c-.4,.63-.97,.86-2.35,.97-1.89,4.7-4.53,8.94-8.08,12.5,4.07,1.95,8.66,3.21,13.47,4.13l-.06,.69c-3.27,.75-5.56,3.27-6.59,7.05-4.76-1.95-8.77-4.24-11.98-7.45-5.1,3.55-11.47,6.25-19.43,7.85l-.34-.69c6.76-2.69,12.27-6.54,16.4-11.18-2.47-3.67-4.36-8.31-5.56-14.33h-2.29l-.52-1.6h16.11l4.3-4.13,6.94,6.19Zm-23.62-.46c1.66,4.53,4.3,7.91,7.62,10.55,2.24-3.21,3.9-6.76,5.04-10.55h-12.67Z"/>
      <path class="cls-2" d="M178.91,25.85c-.46,.46-.97,.63-2.18,.69-2.18,1.32-5.79,3.27-8.37,4.47l4.18,3.15c-.4,.57-1.32,1.26-2.81,1.55v7.22c0,4.53-1.15,7.05-9.34,7.68-.06-2.24-.23-3.9-.86-4.87-.63-.92-1.32-1.72-3.44-2.18v8.94c-.06,.46-2.52,2.18-6.65,2.18h-1.49v-20.69h-5.79v14.1c0,.69-3.61,2.46-6.88,2.46h-1.15V29.12l8.54,3.27h5.27v-7.57h-14.05c.63,3.61-.46,6.54-3.67,7.68-5.04,1.78-8.08-4.82-2.52-7.34,1.61-.57,3.21-1.95,3.61-4.13-1.43,.63-3.1,1.15-5.04,1.6l-.34-.52c5.27-3.15,6.71-7.4,6.99-11.64h-7.05l-.46-1.6h7.57V.4l9.29,.86c-.11,.75-.52,1.26-1.83,1.49v6.13h2.29V.97l8.89,.8c-.11,.69-.52,1.2-1.89,1.43v5.68h2.64V.97l8.89,.8c-.11,.69-.52,1.2-1.89,1.43v5.68h2.35V.46l8.94,.69c-.11,.8-.63,1.32-1.78,1.49v6.25h1.72l3.04-5.22s3.44,3.61,5.22,5.9c-.17,.63-.75,.92-1.49,.92h-8.48v2.98c0,.57,.11,.8,.75,.8h2.18c.29,0,1.03-.06,1.38-.11,.4,0,1.03-.11,1.43-.23h.52l.34,.11c1.55,.8,2.06,1.49,2.06,2.69,0,2.01-1.38,3.15-4.41,3.55l5.79,5.56Zm-38.58-15.36c-.46,3.78-2.41,7.45-7.91,10.09,.46,.86,.8,1.78,1.09,2.64h34.22l2.75-2.69h-3.44c-4.82,0-5.33-1.43-5.33-5.56v-4.47h-2.35v9.06c0,.46-3.1,1.55-5.73,1.55h-1.26v-2.41h-2.64v1.38c0,.46-3.1,1.6-5.73,1.6h-1.26V10.49h-2.41Zm9.4,0v6.59h2.64v-6.59h-2.64Zm17.83,19.95c.23-1.61,.46-3.84,.63-5.62h-12.1v7.57h4.64l3.73-4.3,3.1,2.35Zm-11.47,12.38c.86,.06,3.55,.23,4.41,.23,.75,0,.92-.34,.92-.97v-8.08h-5.33v8.83Z"/>
      <path class="cls-2" d="M241.05,16.74c-.4,.52-1.2,.97-2.47,1.15-.4,23.91-1.03,30.27-4.24,33.36-2.01,2.01-4.59,2.81-7.8,2.81,.06-2.52-.11-4.24-.8-5.27-.75-1.15-1.95-1.95-3.96-2.52v-.69c1.49,.11,3.78,.23,4.87,.23,.8,0,1.32-.23,1.83-.69,1.72-1.61,2.24-9.46,2.58-28.55h-3.78c-.4,17.37-2.47,29.7-17.94,38.01l-.57-.75c2.92-2.98,5.1-6.19,6.65-9.63-5.04,2.24-12.55,5.04-23.79,8.6-.4,.75-1.09,1.2-1.83,1.32l-3.27-9.34c2.35-.06,6.19-.23,10.95-.46v-4.13h-9.86l-.46-1.61h10.32v-5.16h-2.75v.75c0,.52-2.18,1.6-5.79,1.6h-1.26V14.68l7.62,2.87h2.18v-3.96h-10.78l-.46-1.6h11.24V7.74c-3.84,.17-7.74,.23-11.29,.23l-.11-.8c7.97-1.72,18.52-4.87,23.91-7.17l6.65,6.88c-.75,.57-2.12,.52-3.9-.23-2.35,.29-5.16,.52-8.2,.75v4.59h3.04l3.61-4.53s4.13,3.04,6.59,5.22c-.11,.63-.75,.92-1.61,.92h-11.64v3.96h2.81l3.38-3.84,6.36,4.82c-.34,.52-.86,.86-2.18,1.09v13.59c0,.23-1.61,1.15-4.36,1.43,.92,.69,3.96,2.98,5.96,4.64-.17,.63-.75,.92-1.61,.92h-10.38v3.73c3.61-.23,7.45-.46,11.35-.75,3.1-7.4,3.67-16.11,3.73-26.6h-4.3l-.52-1.6h4.82c0-4.36-.06-9.06-.06-14.1l9.97,.92c-.17,.92-.8,1.43-2.12,1.61-.06,4.07-.06,7.91-.11,11.58h3.1l4.07-4.07,6.59,5.85Zm-46.32,2.41v5.5h2.75v-5.5h-2.75Zm2.75,12.67v-5.56h-2.75v5.56h2.75Zm7.05-12.67v5.5h2.98v-5.5h-2.98Zm2.98,7.11h-2.98v5.56h2.98v-5.56Zm-2.98,12.33h2.35l3.21-3.96c-.4,.06-.8,.06-1.26,.06h-1.32v-1.26h-2.98v5.16Z"/>
      <path class="cls-2" d="M301.19,12.04c-.29,.34-.86,.75-1.72,.92v15.76c-.06,.4-3.55,1.66-6.02,1.78l4.87,3.67c-.34,.46-1.09,.97-2.29,1.2v17.08c-.06,.4-4.01,1.78-6.59,1.78h-1.32v-3.67h-10.89v1.61c0,.75-3.32,2.41-6.59,2.41h-1.09V31.53c-.46,.06-.92,.11-1.38,.11h-1.09v-12.9h-6.31v16.22c2.41-.46,4.99-.92,7.51-1.43l.11,.46c-3.04,2.58-7.97,6.31-15.54,11.06-.29,.75-.92,1.38-1.66,1.55l-4.01-9.4c1.32-.17,3.38-.46,5.85-.92V18.75h-5.16l-.46-1.61h5.62V.97l9.86,.86c-.11,.8-.52,1.38-2.12,1.6v13.07l2.52-4.53s2.12,2.35,3.78,4.41V7.45l7.8,3.04h10.43c.75-3.15,1.61-7.45,2.06-10.38l10.72,2.52c-.23,.75-.86,1.2-2.18,1.2-2.24,1.83-5.9,4.59-9.12,6.65h4.47l3.27-3.44,6.65,4.99ZM271.49,.46c16.28,.86,10.26,13.24,3.67,8.83-.52-3.1-2.41-6.42-4.13-8.54l.46-.29Zm20.29,28.78v-1.49h-17.31v1.61c0,.34-.69,.8-1.72,1.26l4.82,1.89h9.97l3.5-3.84,.75,.57Zm-17.31-17.14v2.69l.23-.11c3.1,1.32,4.76,2.98,5.45,4.47v-7.05h-5.68Zm5.68,10.43c-.8,1.32-2.64,1.78-4.24,.23,.06-2.18-.63-4.76-1.43-6.76v10.15h5.68v-3.61Zm7.97,18.12v-6.54h-10.89v6.54h10.89Zm0,8.31v-6.71h-10.89v6.71h10.89Zm-1.66-36.86v14.04h5.33v-8.66h-.11c-1.15,2.01-2.58,4.3-4.18,5.96l-.97-.34c.52-2.35,1.03-5.85,1.38-9l3.9,1.55v-3.55h-5.33Z"/>
      <path class="cls-2" d="M325.32,17.37c-.17,.57-.63,.92-1.78,1.15V52.23c-.11,.63-3.44,2.29-6.65,2.29h-1.55V25.97c-1.78,1.89-3.67,3.55-5.68,5.1l-.63-.34c4.07-7.62,8.08-19.49,9.75-30.67l11.41,3.21c-.23,.75-.97,1.26-2.35,1.26-1.55,4.36-3.32,8.31-5.39,11.81l2.87,1.03Zm34.4,29.06s3.27,3.1,5.04,5.16c-.17,.63-.75,.92-1.49,.92h-38.81l-.46-1.6h5.45V13.64l8.26,3.1h.06c.06-1.66,.11-3.61,.17-5.73h-10.78l-.46-1.61h11.24c.06-3.15,.11-6.42,.11-9.29l10.89,.97c-.17,.97-.92,1.6-2.29,1.83-.23,1.83-.52,4.13-.86,6.48h4.87l4.24-5.56s4.76,3.73,7.62,6.25c-.17,.63-.8,.92-1.66,.92h-15.31c-.29,2.06-.57,4.13-.8,5.73h4.18l3.32-4.3,7.97,5.5c-.4,.57-1.09,.92-2.58,1.2v30.5l2.06-3.21Zm-22.53-28.09v6.76h12.33v-6.76h-12.33Zm12.33,8.37h-12.33v6.65h12.33v-6.65Zm-12.33,8.26v6.59h12.33v-6.59h-12.33Zm0,15.94h12.33v-7.74h-12.33v7.74Z"/>
      <path class="cls-2" d="M15.65,132.23c-.11,.63-3.5,2.35-6.76,2.35h-1.55v-29.81c-2.06,2.12-4.3,4.07-6.71,5.73l-.63-.4c4.53-7.34,9.06-18.86,11.06-30.04l11.01,3.27c-.29,.75-1.03,1.26-2.35,1.2-1.66,4.41-3.61,8.31-5.85,11.81l3.55,1.32c-.17,.52-.63,.92-1.78,1.15v33.42Zm24.42-20.35c-.17,4.3-.86,8.2-2.92,11.58,5.79,1.38,12.67,1.83,19.55,1.55v.69c-3.27,1.03-5.85,4.18-6.42,8.37-7.57-.97-13.41-2.69-17.89-5.62-3.73,2.69-9.17,4.82-17.26,6.31l-.29-.52c6.76-2.69,10.89-5.68,13.41-9.34-2.24-2.41-3.96-5.39-5.27-9l.57-.29c1.55,2.24,3.84,4.01,6.65,5.39,1.03-2.64,1.43-5.68,1.55-9.11h-4.24v1.38c0,.8-3.55,2.52-6.88,2.52h-1.15v-25.74l8.43,3.21h3.9v-6.25h-11.75l-.46-1.6h24.25l4.36-5.73s4.93,3.84,7.85,6.42c-.11,.63-.8,.92-1.66,.92h-14.27v6.25h4.07l3.61-4.01,7.51,5.68c-.34,.46-1.03,1.03-2.24,1.26v17.2c-.06,.4-4.18,1.83-6.88,1.83h-1.43v-3.32h-4.7Zm-12.55-17.03v6.88h4.3v-6.88h-4.3Zm4.3,15.42v-6.94h-4.3v6.94h4.3Zm8.31-15.42v6.88h4.64v-6.88h-4.64Zm4.64,15.42v-6.94h-4.64v6.94h4.64Z"/>
      <path class="cls-2" d="M76.53,125.8c0,5.33-1.03,8.14-9.12,8.89-.11-2.58-.34-4.41-1.03-5.56-.75-1.2-1.66-2.01-4.13-2.52v-.75s4.41,.29,5.45,.29c.8,0,1.03-.23,1.03-.86v-11.75l-2.01,1.32c-.23,.8-.86,1.43-1.61,1.66l-3.04-9.12c1.38-.29,3.78-.75,6.65-1.43v-10.43h-5.45l-.46-1.6h5.9v-13.87l9.92,.92c-.11,.86-.69,1.43-2.12,1.66v10.43l2.52-4.7s3.38,3.9,4.99,6.25c-.11,.63-.69,.92-1.49,.92h-6.02v8.6c2.12-.52,4.36-1.03,6.54-1.6l.11,.52c-1.66,1.38-3.84,3.1-6.65,5.16v17.6Zm24.54,0c1.78,.11,3.67,.17,5.85,.17,2.52,0,8.37,0,11.29-.06v.69c-2.24,.52-3.27,3.44-3.21,6.76h-8.43c-9.8,0-15.36-2.41-18.34-11.24-2.47,6.31-6.25,10.09-11.75,12.55l-.63-.52c4.18-5.56,6.48-12.9,6.13-21.96l10.32,1.66c-.17,.8-.8,1.32-2.12,1.43-.4,1.89-.8,3.55-1.32,5.16,1.15,1.55,2.52,2.64,4.18,3.5v-13.99h-8.71l-.52-1.6h9.23v-6.19h-12.1l-.46-1.6h12.55v-5.79h-8.71l-.52-1.61h9.23v-4.59h-11.47l-.46-1.61h11.92v-6.54l10.15,.97c-.11,.8-.52,1.43-2.12,1.66v3.9h4.59l3.9-5.39s4.41,3.61,6.99,6.08c-.17,.63-.8,.92-1.61,.92h-13.87v4.59h2.75l3.32-3.5,6.71,5.04c-.29,.4-.97,.86-2.01,1.09v4.59l2.35-4.07s2.81,2.98,4.24,4.93c-.11,.63-.69,.92-1.43,.92h-5.16v7.57c-.06,.34-2.12,1.32-4.18,1.78,.69,.57,4.36,3.73,6.59,5.9-.17,.63-.8,.92-1.61,.92h-11.58v7.45Zm0-25.22h3.32v-5.79h-3.32v5.79Zm0,7.8h3.32v-6.19h-3.32v6.19Zm0,1.6v6.76h2.69l3.67-5.16c-.63,.11-1.2,.17-1.78,.17h-1.26v-1.78h-3.32Z"/>
      <path class="cls-2" d="M178.51,85.85c-.4,.52-1.15,.97-2.29,1.26v44.6c-.11,.57-3.67,2.41-6.59,2.41h-1.2v-3.84h-33.88v1.49c0,.97-3.1,2.87-6.36,2.87h-1.26v-53.66l8.26,3.27h32.68l3.61-4.01,7.05,5.62Zm-10.09,42.82v-42.82h-33.88v42.82h33.88Zm-4.07-10.72c-.06,.4-2.92,1.49-5.1,1.72,15.08,2.24,4.7,11.01,.17,6.25-1.09-2.01-3.33-4.41-7.22-6.08l.23-.69c1.89,0,3.55,.11,5.04,.29v-1.89h-11.92l7.62,4.36c-.46,.63-1.43,.92-3.21,.63-3.21,2.06-8.66,3.9-14.22,4.76l-.29-.69c3.15-1.78,6.31-4.64,8.43-7.22-1.15,.52-2.69,.97-4.24,.97h-.97v-22.82l2.01,.8v-11.18l6.94,2.64h7.57l2.92-3.1,6.19,4.53c-.29,.4-.92,.8-1.83,.97v5.04c0,.17-.57,.46-1.38,.69l5.1,3.84c-.29,.4-.92,.8-1.83,.97v15.19Zm-17.03-20.29c0,.4-1.83,1.38-3.96,1.78l2.35,.92h11.24l1.66-1.78c-.57,.11-1.2,.17-1.72,.17h-1.2v-2.01h-8.37v.92Zm10.15,4.3h-12.04v3.5h12.04v-3.5Zm-12.04,8.71h12.04v-3.61h-12.04v3.61Zm12.04,5.27v-3.67h-12.04v3.67h12.04Zm-10.15-24.54v3.73h8.37v-3.73h-8.37Z"/>
      <path class="cls-2" d="M186.48,93.3c15.94,2.29,9.11,14.33,2.87,9.34-.17-3.21-1.66-6.76-3.32-9.06l.46-.29Zm16.22-.92c-1.78,6.36-4.76,18.06-5.39,21.04-.4,1.89-.8,3.96-.75,5.45,.17,3.27,2.75,5.16,2.58,10.49-.11,3.04-2.35,5.1-5.39,5.1-1.38,0-2.98-.8-3.55-3.04,1.2-6.08,.97-11.87-.4-12.78-.8-.57-1.72-.86-2.98-.97v-1.03h2.58c.92,0,1.15,0,1.83-1.15q1.26-2.12,10.61-23.27l.86,.17Zm-12.33-11.69c16.68,2.35,10.03,14.79,3.44,9.86-.46-3.38-2.29-7.05-3.9-9.57l.46-.29Zm50.39,22.3c-.29,.4-.92,.8-1.89,1.03v22.07c0,4.99-1.03,7.74-8.77,8.43-.11-2.41-.34-4.24-1.03-5.33-.69-1.15-1.66-1.89-4.01-2.41v-.75s4.36,.23,5.33,.23c.8,0,1.03-.34,1.03-1.03v-5.62c-.46,1.09-.75,2.29-.86,3.44-1.49-1.6-2.69-4.82-3.21-7.34-.8,2.06-2.29,4.36-4.13,6.13v10.61c0,.4-2.12,1.83-5.73,1.83h-1.32v-14.1c-.34,.92-.57,1.95-.69,2.87-1.26-1.55-2.24-4.59-2.64-7.11-.69,2.29-2.24,4.76-4.07,6.48v9.8c0,.8-2.92,2.46-5.96,2.46h-1.09v-36.23l7.51,2.98h6.94v-6.25h-.97v1.89c0,.46-3.15,1.55-6.02,1.55h-1.26v-10.2h-6.36l-.46-1.61h6.82v-6.76l9.4,.8c-.11,.8-.57,1.38-2.12,1.6v4.36h9.06v-6.82l9.46,.8c-.11,.8-.52,1.38-2.12,1.6v4.41h.17l3.21-4.76s3.61,3.27,5.62,5.45c-.17,.63-.75,.92-1.55,.92h-7.45v8.08c0,.46-3.21,1.55-6.08,1.55h-1.26v-2.87h-1.03v6.25h7.68l3.15-3.55,6.71,5.1Zm-27.63,6.76c.4,2.58,1.43,4.47,3.04,6.02v-12.73h-7.4v17.71c1.43-3.04,2.69-7.45,3.04-11.06v-.63h-2.64l-.29-1.61h2.18l1.32-2.01,3.38,2.52c-.4,.52-1.32,.97-2.64,1.15v.63Zm11.12-16.17v-5.16h-9.06v5.16h9.06Zm3.33,16.05c.57,2.64,1.89,4.47,3.84,6.13v-12.73h-8.2v4.41h2.24l1.32-2.06,3.55,2.58c-.46,.52-1.43,.97-2.75,1.15v.52Zm-1.38-.57h-2.98v10.38c1.32-2.98,2.52-6.76,2.98-9.86v-.52Z"/>
      <path class="cls-2" d="M293.5,123.86s5.33,4.01,8.54,6.71c-.17,.63-.8,.92-1.72,.92h-52.23l-.46-1.61h22.41v-17.54h-14.96l-.46-1.6h15.42v-14.73h-8.71c-3.73,6.19-8.31,10.89-13.76,14.39l-.57-.4c4.07-6.82,8.03-17.48,9.57-27.86l11.58,3.32c-.23,.75-.97,1.26-2.35,1.26-1.09,2.75-2.24,5.33-3.55,7.68h7.8v-13.87l11.29,1.03c-.11,.86-.52,1.43-2.12,1.66v11.18h6.99l4.53-5.56s4.99,3.55,8.2,6.25c-.17,.63-.8,.92-1.72,.92h-18v14.73h5.27l4.59-5.73s5.22,3.84,8.37,6.42c-.17,.63-.8,.92-1.66,.92h-16.57v17.54h9.52l4.76-6.02Z"/>
      <path class="cls-2" d="M309.38,93.82c17.26,.29,11.64,13.7,4.59,9.29-.69-3.27-2.92-6.76-4.99-8.94l.4-.34Zm47.7,.17s4.59,3.78,7.22,6.31c-.11,.63-.8,.92-1.61,.92h-14.39v10.89h3.04l3.73-4.01,7.45,5.68c-.4,.46-1.09,1.03-2.29,1.26v16.85c-.06,.52-4.01,2.18-6.82,2.18h-1.43v-4.93h-15.31v2.75c0,.75-3.55,2.52-6.99,2.52h-1.15v-25.57l8.48,3.27h2.81v-10.89h-13.82l-.4-1.43c-1.95,5.79-3.9,12.04-4.47,14.1-.52,1.89-1.03,4.07-.97,5.56,.11,3.27,2.87,4.87,2.69,10.03-.11,3.1-2.52,5.16-5.85,5.16-1.49,0-3.21-.75-3.84-2.98,1.2-6.02,.97-11.58-.4-12.5-.86-.57-1.89-.92-3.1-1.03v-.97h2.69c.97,0,1.26,0,2.01-1.15q1.55-2.18,12.84-23.45l.8,.23c-.69,1.89-1.49,4.3-2.35,6.82h14.16v-9.4c-4.53,.34-9.23,.57-13.53,.63l-.11-.75c9.52-2.24,21.78-6.42,27.98-9.52l7.85,7.57c-.75,.57-2.18,.63-4.18-.11-2.69,.46-5.96,.92-9.52,1.38v10.2h4.7l4.07-5.62Zm-43.4-12.73c17.89,.06,12.78,13.76,5.39,9.63-1.03-3.33-3.61-6.99-5.79-9.29l.4-.34Zm22.99,32.45v13.82h15.31v-13.82h-15.31Z"/>
    </g>
  </g>
</svg>