<?xml version="1.0" encoding="UTF-8"?>
<svg id="_圖層_2" data-name="圖層 2" xmlns="http://www.w3.org/2000/svg" viewBox="0 0 451.87 320.29">
  <defs>
    <style>
      .cls-1 {
        fill: #e50012;
      }

      .cls-2 {
        fill: #113a57;
      }
    </style>
  </defs>
  <g id="_圖層_1-2" data-name="圖層 1">
    <g>
      <path class="cls-1" d="M9.94,2.6c-.11,.34-.45,.59-1.12,.56-.53,1.43-1.15,2.74-1.82,3.98h4.51V.36l4.62,.45c-.06,.39-.25,.67-1.01,.78V7.14h4.4l1.96-2.41s2.13,1.54,3.53,2.74c-.08,.31-.39,.45-.81,.45H15.12v7.17h3.5l1.96-2.46s2.24,1.68,3.58,2.8c-.06,.31-.36,.45-.78,.45H15.12v8.43h5.74l2.04-2.55s2.27,1.71,3.67,2.88c-.08,.31-.39,.45-.81,.45H.5l-.22-.78H11.51V15.88H3.84l-.22-.78h7.9V7.92H6.55c-1.71,2.88-3.81,5.15-6.22,6.83l-.34-.22C2.16,11.31,4.26,6.24,5.21,1.2l4.73,1.4Z"/>
      <path class="cls-1" d="M33.19,11.09c-.39-1.46-1.62-3.05-2.72-4.03l.22-.2c7.59,.34,5.43,6.05,2.49,4.23Zm-.14,6.61q.67-1.04,6.02-11.68l.45,.14c-1.18,3.22-3.22,9.18-3.61,10.61-.25,.9-.48,1.88-.45,2.6,.03,1.46,1.18,2.41,1.09,4.84-.06,1.43-1.01,2.32-2.41,2.32-.64,0-1.32-.42-1.54-1.43,.5-2.91,.39-5.43-.28-5.88-.39-.28-.87-.42-1.46-.48v-.5h1.29c.45,0,.56,0,.9-.56Zm2.49-12.52c-.48-1.51-1.82-3.22-2.97-4.26l.22-.2c7.84,.34,5.85,6.16,2.74,4.45Zm4.48,9.13l3.39,1.34h2.32v-5.4h-7.06l-.22-.78h7.28V4.7c-2.27,.2-4.62,.36-6.8,.42l-.08-.39c4.76-.95,10.78-2.83,13.83-4.28l3.28,3.14c-.34,.25-.98,.28-1.85-.03-1.4,.28-3.14,.53-5.01,.76v5.15h3.11l1.76-2.41s2.02,1.62,3.19,2.74c-.08,.31-.39,.45-.78,.45h-7.28v5.4h2.32l1.57-1.68,3.16,2.41c-.2,.22-.56,.5-1.15,.62v8.34c-.03,.22-1.62,.92-2.72,.92h-.56v-2.3h-8.48v1.43c0,.31-1.4,1.01-2.74,1.01h-.48V14.31Zm11.7,2.13h-8.48v6.75h8.48v-6.75Z"/>
      <path class="cls-1" d="M68.93,1.51V7.03l1.18-1.9s1.65,1.57,2.52,2.63c-.08,.31-.34,.45-.73,.45h-2.97v5.07l3.36-1.15,.08,.31c-.9,.7-2.02,1.57-3.44,2.6v10.3c0,.36-1.34,1.12-2.49,1.12h-.59v-9.3l-1.85,1.2c-.08,.36-.31,.67-.64,.78l-2.18-3.44c.98-.25,2.66-.76,4.68-1.43v-6.08h-1.74c-.64,2.27-1.48,4.31-2.58,5.91l-.45-.2c.67-3,1.04-7.14,1.06-10.81l3.7,.59V.31l4.09,.42c-.06,.39-.25,.67-1.01,.78Zm-3.08,5.91v-3.39c-.14,.2-.42,.36-.87,.39-.2,1.01-.39,2.02-.64,3h1.51Zm21.81,7.36c-.08,.31-.36,.45-.76,.45h-4.26v7.64c0,2.18-.56,3.36-4.48,3.7-.11-.95-.28-1.62-.81-2.07-.56-.48-1.29-.78-2.97-1.06v-.36s3.72,.22,4.42,.22c.48,0,.64-.14,.64-.53v-7.53h-8.71l-.22-.81h8.93v-2.88l4.17,.39c-.06,.39-.34,.62-.98,.7v1.79h.48l1.62-2.13s1.82,1.46,2.91,2.49Zm-.39-9.52c-.06,.31-.36,.45-.78,.45h-6.36v4.26h1.79l1.62-2.16s1.88,1.48,3,2.49c-.06,.31-.36,.45-.78,.45h-13.36l-.22-.78h4.76V5.71h-5.4l-.22-.78h5.63V.2l4.12,.36c-.06,.36-.25,.62-.92,.7v3.67h2.32l1.71-2.21s1.96,1.48,3.11,2.55Zm-13.08,15.9c-.34-1.62-1.48-3.5-2.44-4.73l.25-.17c7.48,1.51,4.98,6.89,2.18,4.9Z"/>
      <path class="cls-1" d="M116.23,2.58c-.08,.31-.36,.45-.76,.45h-19.46V21.62c0,1.23,.73,1.62,3.19,1.62h6.78c2.38,0,4.54-.06,5.4-.11,.53-.03,1.18-.11,1.62-.17,.42-.06,1.01-.2,1.62-.42h.28l.17,.06c1.57,.25,1.93,.73,1.93,1.26,0,1.54-1.85,1.82-11.28,1.82h-6.19c-4.56,0-6.55-.48-6.55-3.64V3.02h-1.01l-.22-.81h19.77l1.68-2.21s1.88,1.51,3.02,2.58Zm-18.23,19.85h-.39V12.96l2.8,1.12h1.9l1.26-1.32,2.6,1.96c-.14,.2-.45,.39-.9,.48v5.88c-.03,.2-1.4,.7-2.27,.7h-.48v-1.4h-2.24v1.23c0,.22-1.18,.81-2.3,.81Zm2.52-9.74h-.45V3.95l3.25,1.26h5.18l1.43-1.51,3,2.24c-.17,.2-.5,.42-1.04,.5v5.04c-.03,.17-1.6,.76-2.58,.76h-.56v-1.29h-5.57v.78c0,.28-1.4,.95-2.66,.95Zm2.02,2.21h-2.24v4.68h2.24v-4.68Zm6.22-8.88h-5.57v4.12h5.57V6.02Zm-1.46,15.99h-.39V12.96l2.86,1.12h1.93l1.29-1.34,2.69,2.02c-.14,.2-.48,.39-.92,.48v5.71c-.03,.2-1.43,.73-2.32,.73h-.48v-1.29h-2.32v.78c0,.25-1.2,.84-2.32,.84Zm4.65-7.11h-2.32v4.68h2.32v-4.68Z"/>
      <path class="cls-1" d="M142.14,3.14l2.02-2.55s2.3,1.74,3.67,2.91c-.06,.31-.39,.45-.78,.45h-7.98c-.81,1.46-1.79,2.86-2.94,4.2l1.2,.45c-.08,.25-.31,.42-.84,.5V25.7c-.06,.2-1.54,.76-2.74,.76h-.62V11.23c-3.22,2.88-7.11,5.35-11.28,7.06l-.17-.28c5.6-3.56,10.72-9.13,12.74-14.06h-12.26l-.22-.81h20.22Zm2.66,14.28c-1.51-2.58-4.9-5.63-7.59-7.42l.22-.25c12.29,1.99,11.12,9.3,7.36,7.67Z"/>
      <path class="cls-1" d="M161.84,1.57c-.14,.36-.5,.62-1.12,.59-.81,2.13-1.74,4.06-2.8,5.82l1.51,.53c-.08,.25-.31,.45-.84,.56V25.54c-.06,.25-1.4,.95-2.69,.95h-.62V11.62c-1.04,1.23-2.16,2.3-3.33,3.22l-.34-.22c2.27-3.5,4.56-9.02,5.68-14.42l4.54,1.37Zm12.96-.98c-.06,.39-.28,.64-1.04,.76V3.86h.9l1.43-2.07s1.65,1.43,2.58,2.44c-.08,.28-.36,.42-.76,.42h-4.14v3.11c0,.2-1.26,.64-2.44,.64h-.53v-.5h-.22v2.18h2.6l1.48-1.57,3.08,2.32c-.14,.2-.48,.42-1.01,.5v3.47c-.03,.17-1.01,.59-1.93,.76,.48,.36,1.96,1.51,2.91,2.38-.06,.31-.36,.45-.76,.45h-6.38v2.69h1.9l1.62-2.07s1.85,1.4,2.97,2.41c-.08,.31-.36,.45-.76,.45h-5.74v3.05h3.02l1.85-2.41s2.07,1.62,3.33,2.74c-.08,.31-.36,.45-.78,.45h-18l-.22-.78h7.53v-3.05h-5.52l-.22-.78h5.74v-2.69h-6.24l-.22-.81h6.47v-2.63h-2.77v.48c0,.22-1.48,.95-2.8,.95h-.45v-7.62l3.42,1.32h2.6v-2.18h-.31v.22c0,.2-1.26,.64-2.44,.64h-.5V4.65h-3.36l-.22-.78h3.58V.22l3.98,.36c-.06,.39-.25,.64-1.04,.76V3.86h3.81V.22l4,.36Zm-7.5,10.3h-2.77v3.25h2.77v-3.25Zm3.5-3.81v-2.44h-3.81v2.44h3.81Zm2.66,7.06v-3.25h-2.88v3.25h2.88Zm-2.88,3.44h2.38l1.54-1.96-.45,.03h-.59v-.7h-2.88v2.63Z"/>
      <path class="cls-1" d="M192.48,16.1c-.08,.42-.39,.67-1.06,.67-.28,1.01-.64,2.04-1.18,3.02,.95,1.57,2.18,2.41,3.84,2.86V14h-11.31l-.25-.81h21.22l1.76-2.38s1.99,1.62,3.19,2.74c-.08,.31-.36,.45-.78,.45h-10.33v3.84h3.39l1.88-2.52s2.16,1.71,3.42,2.88c-.08,.31-.39,.45-.78,.45h-7.9v4.42l1.71,.03c2.1,0,7.25,0,9.49-.06v.34c-1.04,.25-1.54,1.34-1.54,2.58h-8.04c-4.98,0-7.73-1.09-9.32-5.49-1.43,2.38-3.75,4.54-7.5,5.99l-.2-.28c3.98-2.94,5.38-7.31,5.74-10.92l4.56,.84Zm-5.29-15.37l3.67,1.43h9.55l1.57-1.74,3.33,2.52c-.2,.2-.56,.48-1.15,.59v7.64c-.03,.2-1.76,.78-2.88,.78h-.59v-1.43h-10.05v.84c0,.31-1.51,1.06-2.94,1.06h-.5V.73Zm13.5,2.24h-10.05v2.94h10.05V2.97Zm-10.05,3.75v3.02h10.05v-3.02h-10.05Z"/>
      <path class="cls-1" d="M227.52,1.34V3.64h5.29l1.71-2.16s1.96,1.48,3.11,2.49c-.06,.31-.36,.45-.76,.45h-9.35v2.41h3.72l1.65-2.02s1.85,1.37,2.97,2.38c-.08,.31-.36,.45-.76,.45h-7.59v2.52h6.58l1.71-2.18s1.96,1.48,3.16,2.55c-.08,.31-.36,.45-.78,.45h-24.89l-.25-.81h11.17v-2.52h-7.67l-.22-.81h7.9v-2.41h-9.24l-.22-.78h9.46V.17l4.31,.36c-.06,.39-.25,.67-1.01,.81Zm-9.38,10.25l3.81,1.37h8.4l1.48-1.68,3.22,2.44c-.17,.22-.53,.48-1.12,.56v8.57c0,2.02-.56,3.19-4.37,3.5-.08-.92-.25-1.62-.7-2.07-.5-.39-1.12-.76-2.63-.98v-.39s3.08,.22,3.81,.22c.45,0,.59-.2,.59-.56v-2.24h-9.55c-.62,2.3-2.16,4.65-6.02,6.19l-.22-.28c2.97-2.66,3.3-6.1,3.3-9.21v-5.43Zm12.49,7.92v-2.52h-9.18c0,.78-.03,1.65-.2,2.52h9.38Zm-9.18-3.3h9.18v-2.46h-9.18v2.46Z"/>
      <path class="cls-1" d="M246.26,17.44V8.85h-2.74l-.22-.78h2.97V.67l4.23,.39c-.06,.39-.28,.67-1.04,.78v6.22h.28l1.4-2.38s.92,.98,1.74,1.9l3.44,1.4h2.58v-3.33h-6.8l-.22-.78h7.03V.39l3.98,.39c-.03,.31-.22,.56-.84,.67v3.42h3l.48-.59c-.28-.06-.59-.17-.87-.36-.08-1.06-.81-2.24-1.54-2.88l.22-.2c3.14,.08,4.06,1.32,3.89,2.3,.62,.48,1.76,1.37,2.58,2.07-.08,.31-.36,.45-.76,.45h-7v3.33h2.74l1.51-1.74,3.28,2.52c-.2,.22-.62,.5-1.23,.62v12.32c0,2.18-.42,3.39-3.72,3.7-.03-1.04-.11-1.82-.36-2.27-.28-.48-.67-.84-1.62-1.01v-.39s1.57,.11,1.99,.11c.39,0,.48-.17,.48-.5v-3.14h-3.05v5.74c0,.34-1.37,1.12-2.52,1.12h-.62v-6.86h-2.94v6.33c0,.2-.98,.95-2.58,.95h-.59v-10.44c-1.71,1.29-4.31,3.16-7.9,5.32-.11,.39-.39,.7-.73,.81l-1.46-3.84c.73-.17,2.02-.48,3.56-.9Zm6.52-8.6h-3.33v7.73l3.33-.98v-6.75Zm3.16,.95v3.84h2.94v-3.84h-2.94Zm0,4.65v3.95h2.94v-3.95h-2.94Zm6.08-.81h3.05v-3.84h-3.05v3.84Zm0,4.76h3.05v-3.95h-3.05v3.95Z"/>
      <path class="cls-1" d="M299.89,6.08c-.08,.31-.36,.45-.78,.45h-25.34l-.25-.78h15.01c.76-1.65,1.57-3.89,2.02-5.49l4.62,1.15c-.08,.34-.42,.56-1.06,.56-1.12,1.12-2.97,2.6-4.68,3.78h5.12l1.9-2.44s2.16,1.65,3.44,2.77Zm-24.08,2.04l3.61,1.29h3l1.43-1.62,3.11,2.38c-.2,.22-.59,.45-1.18,.56v12.15c0,2.07-.42,3.22-3.64,3.5-.03-.92-.11-1.62-.39-2.1-.28-.42-.7-.76-1.68-.95v-.36s1.65,.11,2.16,.11c.39,0,.48-.2,.48-.5v-3.64h-3.89c-.31,2.77-1.34,5.52-4.79,7.53l-.28-.25c1.99-2.74,2.07-6.36,2.07-9.97V8.12Zm6.89,10v-3.7h-3.78v1.82c0,.62,0,1.23-.06,1.88h3.84Zm-3.78-4.51h3.78v-3.39h-3.78v3.39Zm2.77-8.6c-.28-1.62-1.37-3.36-2.38-4.48l.2-.17c8.01,.7,5.29,6.78,2.18,4.65Zm9.63,5.01v10.53c0,.22-1.29,.73-2.44,.73h-.56V8.85l4.03,.39c-.06,.36-.28,.67-1.04,.78Zm5.88-.92v13.69c0,2.18-.5,3.39-4.17,3.7-.08-.95-.25-1.65-.7-2.13-.45-.48-1.09-.81-2.52-1.04v-.39s3.05,.2,3.64,.2c.48,0,.62-.14,.62-.5V7.98l4.12,.39c-.06,.39-.34,.64-.98,.73Z"/>
      <path class="cls-1" d="M312.37,14.56v11.12c-.06,.2-1.43,.81-2.69,.81h-.62V15.85c-1.6,1.18-3.3,2.13-5.01,2.88l-.25-.31c2.69-2.24,5.71-6.13,7.53-10.39l4.23,1.85c-.14,.31-.53,.56-1.18,.45-.81,1.15-1.68,2.21-2.6,3.14l1.46,.53c-.08,.28-.36,.45-.87,.56Zm5.12-10.39c-.08,.31-.39,.45-.76,.45h-4.48v2.8c0,.22-1.48,.76-2.69,.76h-.59v-3.56h-4.79l-.22-.81h5.01V.45l4,.36c-.03,.28-.2,.5-.73,.56V3.81h.78l1.57-2.21s1.82,1.51,2.88,2.58Zm3.02,5.38v4.82h3.64l1.76-2.49s2.04,1.68,3.22,2.83c-.08,.31-.36,.45-.78,.45h-7.84v6.66c0,.53,.2,.7,1.15,.7h2.55c.95,0,1.76,0,2.16-.03,.36-.03,.59-.11,.78-.39,.31-.5,.81-2.04,1.32-3.78h.31l.11,3.92c.9,.39,1.15,.76,1.15,1.37,0,1.4-1.32,2.02-6.13,2.02h-2.91c-2.94,0-3.72-.62-3.72-2.97V8.43l4.17,.42c-.03,.36-.28,.64-.92,.7Zm9.94-5.38c-.06,.31-.36,.45-.76,.45h-5.35v2.83c0,.22-1.51,.76-2.69,.76h-.62v-3.58h-3.02l-.22-.81h3.25V.48l4.03,.36c-.03,.28-.2,.48-.73,.56V3.81h1.62l1.6-2.21s1.82,1.51,2.88,2.58Z"/>
      <path class="cls-1" d="M336.4,26.46h-.56V.53l3.53,1.48h16.18l1.6-1.79,3.14,2.52c-.2,.25-.56,.48-1.15,.59V25.23c-.03,.28-1.57,1.06-2.77,1.06h-.53v-2.1h-16.74v1.01c0,.45-1.29,1.26-2.69,1.26Zm2.69-3.08h16.74V2.8h-16.74V23.38Zm2.66-7.06h-.39v-6.24l2.83,1.12h6.22l1.2-1.26,2.58,1.88c-.14,.17-.42,.36-.81,.42v3.02c0,.06-.14,.17-.36,.25l2.07,1.88c-.17,.2-.42,.25-.92,.06-.53,.22-1.37,.48-2.21,.7,4.34,2.27,2.6,5.32,.62,4.17-.73-1.29-2.86-3.53-5.63-5.32l.2-.36c1.43,.25,2.6,.59,3.58,.98,.56-.59,1.15-1.29,1.62-1.85-.42,.11-.87,.2-1.23,.2h-.48v-.53h-2.58c-.64,.7-1.43,1.32-2.32,1.85v2.77l3.5-.92,.11,.36c-1.01,.64-3.02,1.96-5.18,3.22-.17,.28-.39,.5-.59,.62l-1.46-2.18c.87-.56,1.01-.78,1.01-1.2v-1.32c-1.18,.5-2.46,.92-3.78,1.26l-.25-.42c2.32-1.01,4.34-2.44,5.71-4.03h-.76v.08c0,.22-1.23,.81-2.3,.81Zm6.83-11.79v1.48h2.07l1.37-1.65s1.54,1.15,2.52,2.02c-.08,.31-.34,.45-.73,.45h-5.24v1.9h3.14l1.4-1.74s1.62,1.2,2.63,2.1c-.08,.31-.34,.45-.73,.45h-15.32l-.22-.81h6.19v-1.9h-4.9l-.22-.81h5.12V3.56l3.7,.34c-.03,.31-.2,.53-.78,.64Zm-4.54,7.48v2.6h6.58v-2.6h-6.58Z"/>
      <path class="cls-1" d="M375.02,16.72c1.76-.87,2.86-1.74,3.39-3.3-2.1-.87-3-1.82-3-3.02,0-1.34,1.04-2.41,2.46-2.41,.84,0,1.46,.17,2.07,.7,.34,.84,.42,1.34,.42,2.21,0,3.42-1.93,5.74-4.98,6.64l-.36-.81Z"/>
      <path class="cls-2" d="M420.59,6.3c-.06,.31-.34,.45-.76,.45h-14c-.98,1.85-2.13,3.67-3.56,5.38l.92,.34c-.11,.28-.36,.45-.87,.53v12.54c-.03,.17-.95,.7-1.85,.7h-.42V14.5c-1.4,1.32-2.97,2.49-4.76,3.5l-.28-.31c3.67-2.86,6.41-6.86,8.26-10.95h-7.22l-.25-.81h7.84c.81-1.88,1.43-3.75,1.85-5.54l3.53,.98c-.11,.34-.36,.5-1.12,.5-.45,1.32-1.01,2.69-1.68,4.06h10l1.57-1.93s1.74,1.34,2.8,2.3Zm-1.46,8.57c-.08,.31-.34,.45-.73,.45h-5.99v8.54h4.37l1.48-1.88s1.71,1.32,2.77,2.24c-.08,.31-.36,.45-.76,.45h-17.02l-.22-.81h7.11V15.32h-5.49l-.22-.81h5.71v-6.47l3.16,.31c-.03,.36-.25,.62-.9,.7v5.46h2.69l1.43-1.76s1.62,1.23,2.6,2.13Z"/>
      <path class="cls-2" d="M444.56,13.27c-1.06,2.3-2.58,4.45-4.56,6.33,3.3,2.16,7.39,3.58,11.79,4.34l-.06,.34c-1.06,.17-1.82,.9-2.16,1.99-4.31-1.12-8.04-2.88-10.95-5.46-3.22,2.55-7.48,4.51-12.91,5.46l-.17-.42c4.9-1.37,8.82-3.56,11.73-6.33-1.82-1.99-3.28-4.34-4.26-7.17l.45-.31c1.06,2.55,2.77,4.65,4.9,6.36,1.88-2.04,3.25-4.34,4.17-6.83l3.16,1.34c-.17,.31-.45,.48-1.15,.36Zm6.83-7.39c-.08,.31-.36,.45-.78,.45h-24.47l-.25-.81h21.25l1.51-2.16s1.74,1.51,2.74,2.52Zm-16.18,2.88c-1.68,2.27-4.7,4.84-8.23,6.3l-.25-.36c2.77-1.99,5.29-5.26,6.41-7.81l3.11,1.54c-.14,.28-.39,.42-1.04,.34Zm2.86-3.78c-.34-1.54-1.76-3.33-3-4.4l.28-.2c6.83,1.2,5.15,6.13,2.72,4.59Zm9.58,9.18c-1.04-2.24-3.98-5.07-6.3-6.66l.25-.28c9.86,2.63,8.85,8.43,6.05,6.94Z"/>
      <path class="cls-2" d="M5.82,50.43H1.01l-.25-.81H5.99l1.15-1.18,2.38,2.1c-.31,.31-.98,.45-1.74,.45-.95,1.4-2.58,3.61-3.72,5.12h2.38l1.32-1.26,2.21,1.96c-.2,.25-.48,.34-1.09,.36-.53,1.76-1.29,3.5-2.3,5.15,2.04,2.66,5.15,3.05,10.42,3.05,2.16,0,7.36,0,9.69-.06v.36c-.9,.17-1.34,.98-1.37,1.93h-8.4c-5.54,0-8.62-.92-10.7-4.73-1.4,2.1-3.28,3.98-5.71,5.4l-.28-.36c3.25-2.74,5.38-6.92,6.33-10.98H3.56l-.7,.59-1.76-1.57c.28-.17,.7-.34,1.12-.45,1.12-1.4,2.63-3.53,3.61-5.1Zm-.31-3.25c-.45-1.54-1.99-3.44-3.28-4.51l.28-.22c6.66,1.48,5.26,6.08,3,4.73Zm5.57,17.02h-.34v-15.68l2.24,1.01h4.09l-.08-.08c-.5-1.15-1.68-2.49-3.58-3.64l.22-.39c2.38,.53,3.78,1.23,4.56,1.93,.9-.81,1.93-1.85,2.66-2.72H10.61l-.25-.81h10.78l1.34-1.26,2.27,2.16c-.22,.2-.56,.22-1.15,.25-1.18,.98-3.22,2.1-4.96,2.91,.48,.67,.39,1.26,.11,1.65h3.42l1.04-1.26,2.49,1.9c-.17,.22-.62,.45-1.18,.53v10.86c0,1.54-.31,2.41-2.72,2.63-.06-.56-.14-1.06-.42-1.37-.28-.25-.78-.5-1.71-.64v-.45s1.82,.17,2.27,.17c.42,0,.5-.14,.5-.53v-2.97h-3.78v4.7c0,.11-.62,.56-1.65,.56h-.31v-5.26h-3.86v5.04c0,.22-.84,.76-1.76,.76Zm5.63-13.86h-3.86v3.08h3.86v-3.08Zm0,3.92h-3.86v3.33h3.86v-3.33Zm5.74-3.92h-3.78v3.08h3.78v-3.08Zm0,3.92h-3.78v3.33h3.78v-3.33Z"/>
      <path class="cls-2" d="M56.66,48.5c-.08,.31-.34,.45-.73,.45h-13.83c-.11,1.65-.25,3.22-.48,4.73h7.9l1.32-1.32,2.38,2.02c-.22,.22-.59,.39-1.18,.45-.31,6.61-1.09,11.03-2.49,12.32-.84,.73-1.96,1.09-3.42,1.09,.03-.67-.11-1.26-.56-1.6-.48-.39-1.76-.76-3-.95l.03-.45c1.34,.11,3.61,.31,4.26,.31,.53,0,.78-.06,1.12-.34,.87-.78,1.51-4.93,1.82-10.7h-8.32c-1.06,5.99-3.58,10.7-9.88,13.89l-.22-.31c6.36-4.82,7.87-11.2,8.09-19.15h-8.29l-.25-.81h21.34l1.57-1.96s1.76,1.37,2.83,2.32Zm-12.66-1.18c-.36-1.65-1.85-3.67-3.14-4.84l.28-.22c7.06,1.74,5.24,6.72,2.86,5.07Z"/>
      <path class="cls-2" d="M63.28,48.66l2.55,1.04h5.8c.22-1.15,.48-2.83,.64-4.14h-10.7l-.22-.78h21.25l1.6-1.99s1.79,1.37,2.91,2.32c-.08,.31-.36,.45-.76,.45h-11.03c-.87,1.4-1.93,3-2.8,4.14h10l1.18-1.4,2.44,1.9c-.2,.22-.53,.42-1.15,.53v16.55c0,.17-.84,.7-1.96,.7h-.36v-2.04h-17.14v1.57c0,.17-.73,.67-1.88,.67h-.36v-19.52Zm6.3,16.46v-14.62h-4.06v14.62h4.06Zm2.13-10.36h4.68v-4.26h-4.68v4.26Zm0,5.15h4.68v-4.34h-4.68v4.34Zm0,5.21h4.68v-4.4h-4.68v4.4Zm10.95-14.62h-4.14v14.62h4.14v-14.62Z"/>
      <path class="cls-2" d="M101.73,58.07c1.74-.87,2.74-1.68,3.19-3.22-1.74-.81-2.32-1.57-2.32-2.46,0-1.04,.76-1.85,1.9-1.85,.64,0,1.15,.14,1.62,.59,.28,.64,.36,1.06,.36,1.79,0,3.02-1.71,4.93-4.4,5.94l-.36-.78Z"/>
      <path class="cls-2" d="M138,67.98h-.34v-11.2c-.17,.14-.42,.2-.76,.22-.67,4.37-2.52,8.82-8.09,11.31l-.25-.34c3.42-2.07,5.12-5.21,5.91-8.54-1.04,.42-2.35,.95-3.64,1.43-.2,.31-.39,.48-.62,.53l-.92-2.49s.56-.14,.73-.25c.98-1.01,2.13-2.72,3.11-4.45l-2.24,.73c-.2,.36-.42,.62-.67,.7l-.59-1.48-2.21,1.62v9.46c0,1.71-.31,2.72-2.83,2.94-.06-.64-.14-1.26-.45-1.62-.31-.39-.84-.62-1.79-.78v-.45s2.02,.17,2.44,.17,.53-.14,.53-.48v-7.78l-1.93,1.32c-.08,.34-.31,.64-.56,.76l-1.12-2.6c.73-.22,2.04-.7,3.61-1.29v-5.82h-3.11l-.22-.81h3.33v-6.36l3.14,.36c-.08,.39-.36,.64-1.04,.73v5.26h.39l1.18-1.68s1.32,1.2,2.07,2.04c-.06,.31-.31,.45-.67,.45h-2.97v5.01l2.04-.81-.25-.64s.48-.08,.64-.22c1.09-1.12,2.35-4.17,2.8-5.68l2.72,1.26c-.11,.25-.42,.48-.98,.42-.87,1.34-2.27,3.11-3.56,4.37h2.8c.59-1.12,1.06-2.18,1.37-3l2.41,1.57c.5-1.43,.95-2.97,1.29-4.51l2.52,.73-.28-.42,.34-.17c4.4,1.88,2.41,4.96,.84,3.5,0-.81-.34-1.79-.73-2.6-.14,.22-.42,.36-.87,.36-.36,.92-.76,1.82-1.2,2.66l.62,.25h4.4l1.06-1.4s1.2,1.01,1.93,1.79c-.06,.31-.34,.45-.67,.45h-3.14v3.47h.7l.92-1.37s1.12,1.01,1.74,1.74c-.06,.31-.31,.45-.67,.45h-2.69v3.53h.7l.92-1.37s1.12,1.01,1.74,1.74c-.06,.31-.31,.45-.67,.45h-2.69v3.81h1.15l1.09-1.54s1.26,1.09,1.99,1.9c-.06,.31-.34,.45-.73,.45h-7.45v1.6c0,.14-.62,.64-1.57,.64Zm9.83-21.39c-.06,.31-.34,.45-.76,.45h-16.94l-.22-.81h8.57l-.34-.17c-.22-1.18-1.2-2.6-2.1-3.42l.28-.2c4.31,.67,4.37,3.19,3.22,3.78h4.28l1.43-1.79s1.6,1.26,2.58,2.16Zm-16.74,12.32l3.58-.36c.17-.9,.28-1.79,.34-2.69l2.66,.45v-2.21c-.5,.73-1.06,1.34-1.62,1.9l-.42-.25c.59-1.01,1.18-2.3,1.71-3.67-.2,.11-.48,.2-.87,.08-1.2,1.99-3.36,4.82-5.38,6.75Zm10.72-6.41h-2.24v3.47h2.24v-3.47Zm0,4.28h-2.24v3.53h2.24v-3.53Zm0,4.34h-2.24v3.81h2.24v-3.81Z"/>
      <path class="cls-2" d="M177.86,47.35c-.08,.31-.39,.45-.81,.45h-13.69c-.64,1.32-1.4,2.66-2.3,3.98l.59,.17h9.44l1.15-1.37,2.74,2.04c-.22,.28-.7,.53-1.32,.64v11.98c0,1.68-.36,2.74-3.36,3.02-.08-.7-.25-1.32-.67-1.68-.42-.36-1.09-.64-2.44-.84v-.42s2.94,.2,3.53,.2c.53,0,.67-.17,.67-.59v-3.72h-10.42c-.42,2.58-1.46,5.24-3.98,7.28l-.34-.28c2.16-3.3,2.3-7.39,2.3-11.14v-2.52c-1.71,2.02-3.75,3.81-6.16,5.24l-.31-.31c3.78-3.02,6.55-7.36,8.37-11.68h-7.81l-.22-.81h8.34c.64-1.6,1.12-3.16,1.48-4.65l3.47,.98c-.14,.31-.36,.5-1.12,.5-.36,1.04-.78,2.1-1.26,3.16h9.74l1.54-1.9s1.74,1.32,2.83,2.27Zm-6.47,13.05v-3.5h-10.14v.17c0,1.04-.03,2.16-.17,3.33h10.3Zm-10.14-4.31h10.14v-3.33h-10.14v3.33Z"/>
      <path class="cls-2" d="M191.45,49.5c-.08,.31-.34,.45-.73,.45h-2.58v1.99c4.59,2.58,3,5.77,1.4,4.42-.14-1.06-.76-2.38-1.4-3.44v14.53c0,.25-.87,.78-1.62,.78h-.42v-12.24c-.84,2.07-1.96,3.98-3.36,5.68l-.39-.34c1.76-3.22,2.77-7.31,3.36-11.4h-2.77l-.22-.81h3.39v-6.78l3.05,.31c-.06,.42-.28,.67-1.01,.78v5.68l1.18-1.62s1.32,1.18,2.13,1.99Zm17.16,8.06c-.08,.31-.34,.45-.73,.45h-6.69c.31,1.6,.76,2.97,1.34,4.14,.84-1.04,1.57-2.16,2.18-3.44l2.49,1.51c-.17,.28-.45,.39-1.04,.22-.76,1.23-1.65,2.32-2.63,3.25,.62,.76,1.37,1.34,2.24,1.76,.48,.28,.62,.22,.84-.25,.34-.76,.78-2.13,1.15-3.33l.34,.03-.36,4.17c.81,.87,.9,1.23,.73,1.62-.53,1.01-2.13,.48-3.42-.2-1.23-.59-2.24-1.43-3.05-2.49-1.96,1.46-4.2,2.44-6.55,3.02l-.2-.42c2.1-.9,4.14-2.18,5.88-3.92-.87-1.57-1.46-3.47-1.88-5.68h-3.22c-.06,.7-.14,1.43-.28,2.16,4.68,1.23,3.22,4.65,1.32,3.42-.2-.81-.81-1.74-1.51-2.46-.64,2.55-2.1,5.01-5.4,6.97l-.36-.42c3.39-2.97,3.86-6.52,3.98-9.66h-2.72l-.22-.84h8.29c-.42-2.66-.59-5.71-.67-9.1-.17,.17-.45,.25-.87,.2-1.04,1.57-2.86,3.72-4.54,5.29l3.39-.31c-.2-.73-.48-1.43-.76-1.96l.36-.14c3.84,2.52,2.02,5.43,.64,4.03,0-.42-.03-.87-.11-1.32-.95,.36-2.32,.9-3.64,1.37-.14,.28-.34,.48-.5,.56l-1.15-2.21s.45-.14,.64-.22c.92-.84,1.96-2.38,2.8-3.89l-1.88,.73c-.14,.34-.34,.56-.56,.64l-1.18-2.32s.45-.11,.62-.22c1.09-1.06,2.38-3.98,2.83-5.4l2.66,1.2c-.14,.25-.45,.48-1.04,.42-.81,1.29-2.18,2.91-3.44,4.12l2.52-.17c.36-.7,.7-1.37,.9-1.9l2.3,1.26-.03-5.26,3.08,.36c-.03,.36-.31,.67-1.01,.78-.08,5.15-.06,9.77,.56,13.47h4.12l1.2-1.46s1.37,1.04,2.24,1.85Zm-2.04-2.88c0-.5-.08-1.04-.25-1.6-.9,.34-2.27,.84-3.58,1.26l-.08,.17,.25-.17c3.67,.84,2.18,3.44,.81,2.41-.08-.78-.62-1.68-1.09-2.18-.17,.25-.34,.42-.5,.5l-1.09-2.27s.45-.11,.62-.2c.78-.73,1.68-2.02,2.44-3.3l-1.68,.64c-.17,.39-.36,.62-.59,.73l-1.09-2.21s.39-.14,.53-.22c.95-1.04,1.99-3.86,2.32-5.26l2.72,1.2c-.11,.25-.42,.5-.98,.45-.73,1.15-1.82,2.6-2.86,3.72l2.18-.14c.39-.73,.7-1.43,.92-1.96l2.44,1.54c-.14,.22-.5,.39-1.04,.28-.98,1.43-2.6,3.3-4.12,4.68l3.28-.28c-.22-.56-.5-1.09-.78-1.51l.36-.17c4.12,2.21,2.3,5.32,.87,3.89Z"/>
      <path class="cls-2" d="M216.39,59.25v-8.37h-3.02l-.22-.81h3.25v-7.28l3.19,.34c-.06,.39-.28,.67-1.01,.76v6.19h.36l1.29-1.9s1.4,1.34,2.24,2.27c-.08,.31-.36,.45-.76,.45h-3.14v7.48l3.81-1.54,.14,.31c-1.76,1.29-4.34,3.19-7.81,5.4-.06,.34-.28,.67-.56,.78l-1.37-2.72c.76-.25,2.04-.73,3.61-1.34Zm18.68-4.76l1.46-1.79s1.62,1.23,2.63,2.16c-.08,.31-.34,.45-.76,.45h-10.84c-.42,.78-.9,1.54-1.43,2.24h9.24l1.23-1.2,2.3,1.9c-.2,.22-.56,.34-1.12,.42-.39,4.96-1.2,7.78-2.49,8.74-.76,.62-1.76,.87-2.88,.87,0-.62-.08-1.18-.45-1.51-.36-.34-1.18-.59-2.07-.73v-.45c.95,.06,2.49,.2,3.05,.2,.48,0,.7-.06,.98-.28,.67-.59,1.34-3.02,1.71-7.14h-1.79c-1.54,4.34-4.51,7.59-9.18,9.88l-.28-.42c3.58-2.38,5.91-5.66,7.11-9.46h-1.85c-1.96,3.61-5.24,6.44-9.46,8.37l-.31-.42c3.33-2.02,5.91-4.82,7.53-7.95h-1.96c-1.65,1.88-3.84,3.39-6.44,4.59l-.31-.42c2.8-1.85,4.96-4.45,6.27-7.22h-4.06l-.22-.81h14.39Zm-11.26-11.56l2.3,.98h7.14l1.18-1.26,2.49,1.9c-.2,.2-.62,.45-1.18,.56v7.25c-.03,.2-1.09,.76-1.85,.76h-.36v-1.15h-7.56v.81c0,.2-.95,.7-1.85,.7h-.31v-10.56Zm9.72,4.56v-2.77h-7.56v2.77h7.56Zm-7.56,3.67h7.56v-2.86h-7.56v2.86Z"/>
      <path class="cls-2" d="M247.11,55.64v-5.91h-3.5l-.22-.81h3.72v-6.47l3.19,.31c-.06,.42-.34,.7-1.04,.78v5.38h.48l1.18-1.82s1.37,1.29,2.13,2.18c-.06,.31-.31,.45-.7,.45h-3.08v5.24l3.11-.98,.11,.39-3.22,1.9v9.02c0,1.71-.31,2.69-3,3-.08-.73-.22-1.29-.56-1.62-.36-.39-.95-.62-2.07-.78v-.42s2.41,.17,2.88,.17,.59-.14,.59-.53v-7.59l-2.44,1.32c-.08,.36-.31,.62-.62,.73l-1.09-2.74c.81-.2,2.32-.62,4.14-1.18Zm9.55,3.05c-.08,.36-.39,.62-1.04,.64-.17,.84-.36,1.62-.62,2.35,.87,1.57,2.02,2.49,3.53,3.02v-7.87h-5.38l-.25-.81h5.63v-2.91h-7.03l-.22-.84h7.25v-2.69h-5.1l-.25-.81h5.35v-2.38h-6.61l-.22-.81h6.83v-3.02l3.14,.31c-.06,.39-.28,.64-.95,.76v1.96h4.26l1.43-1.85s1.6,1.29,2.6,2.21c-.08,.31-.36,.45-.76,.45h-7.53v2.38h3.33l1.09-1.15,2.3,1.74c-.17,.2-.56,.42-1.01,.5v2.41h.22l1.06-1.51s1.23,1.09,1.93,1.9c-.06,.31-.31,.45-.67,.45h-2.55v4.09c-.03,.2-1.06,.7-1.79,.7h-.31v-1.06h-3.61v3.44h2.88l1.4-1.71s1.54,1.18,2.52,2.07c-.08,.31-.36,.42-.76,.42h-6.05v4.12c.92,.11,1.96,.14,3.11,.14,1.32,0,4.31,0,5.8-.03v.39c-.73,.14-1.09,.87-1.12,1.79h-4.82c-4.62,0-7.25-1.01-8.96-5.04-1.06,2.72-2.69,4.62-4.9,5.85l-.34-.31c2.21-2.3,3.64-5.6,3.95-9.88l3.22,.59Zm7.67-6.41v-2.69h-3.61v2.69h3.61Zm-3.61,3.75h3.61v-2.91h-3.61v2.91Z"/>
      <path class="cls-2" d="M278.46,50.15h-4.31l-.25-.84h4.65l1.06-1.06,2.16,1.9c-.25,.25-.78,.39-1.37,.42-.78,1.37-2.16,3.58-3.16,5.12h1.99l1.29-1.29,2.18,1.96c-.2,.25-.48,.34-1.12,.36-.53,1.96-1.34,4-2.49,5.91,2.07,2.58,5.18,2.97,10.42,2.97,2.27,0,7.67,0,10.05-.06v.36c-.81,.17-1.23,.84-1.29,1.65h-8.82c-5.52,0-8.54-.78-10.7-4.37-1.2,1.85-2.72,3.56-4.62,4.93l-.31-.34c2.8-2.94,4.7-7.31,5.52-11.28h-2.44l-.78,.7-1.82-1.51c.25-.17,.7-.34,1.09-.45,.98-1.4,2.27-3.56,3.08-5.1Zm-.56-3.05c-.28-1.46-1.54-3.19-2.66-4.23l.31-.22c6.22,1.71,4.42,5.94,2.35,4.45Zm5.63,12.38h-.31v-9.35l2.18,.95h3.28v-1.96h-5.96l-.22-.84h6.19v-2.69l3.08,.34c-.06,.39-.28,.67-1.01,.78v1.57h3.19l1.29-1.57,.31,.22c.17-.59,.36-1.32,.5-1.96h-11.7c-.03,1.4-.64,2.35-1.37,2.77-.7,.39-1.71,.36-1.99-.36-.25-.7,.22-1.32,.84-1.62,.9-.48,1.76-1.71,1.68-3.02h.45c.17,.5,.28,.95,.34,1.4h11.62l1.26-1.26,2.24,2.18c-.2,.17-.53,.25-1.04,.28-.56,.62-1.43,1.46-2.18,2.07,.48,.39,1.04,.84,1.48,1.26-.06,.31-.36,.45-.7,.45h-6.22v1.96h3.11l1.12-1.2,2.41,1.85c-.2,.22-.64,.45-1.2,.56v6.22c-.03,.17-1.04,.67-1.71,.67h-.34v-.81h-3.39v2.44h4.12l1.37-1.68s1.54,1.18,2.52,2.07c-.06,.31-.34,.45-.76,.45h-7.25v2.86c0,.25-.9,.73-1.68,.73h-.39v-3.58h-6.75l-.22-.84h6.97v-2.44h-3.42v.45c0,.2-.9,.67-1.74,.67Zm1.74-7.59v2.38h3.42v-2.38h-3.42Zm0,3.22v2.41h3.42v-2.41h-3.42Zm5.49-.84h3.39v-2.38h-3.39v2.38Zm0,3.25h3.39v-2.41h-3.39v2.41Z"/>
      <path class="cls-2" d="M314.28,58.07c1.74-.87,2.74-1.68,3.19-3.22-1.74-.81-2.32-1.57-2.32-2.46,0-1.04,.76-1.85,1.9-1.85,.64,0,1.15,.14,1.62,.59,.28,.64,.36,1.06,.36,1.79,0,3.02-1.71,4.93-4.4,5.94l-.36-.78Z"/>
      <path class="cls-2" d="M343.5,50.18c-.06,.31-.31,.45-.67,.45h-3.33l.11,4.45h1.37l.98-1.4s1.2,1.01,1.88,1.76c-.08,.31-.34,.45-.7,.45h-3.5l.11,4.23h15.15l.11-4.34h-3.25l-.25-.81h3.53l.08-4.42h-3l-.25-.84h3.28l.08-4.26h-3.61l-.25-.81h3.64l1.04-1.29,2.32,1.96c-.22,.22-.48,.34-1.01,.39l-.31,14.42h.28l1.15-1.71s1.34,1.23,2.1,2.07c-.08,.31-.34,.45-.7,.45h-25.17l-.25-.81h3.16l-.42-16.1,2.46,.9c1.09-.9,2.18-1.96,2.74-2.58l2.07,1.9c-.17,.2-.45,.22-.84,.06-.92,.45-2.63,1.12-4.26,1.62l.11,3.89h1.29l.98-1.32s1.09,.95,1.74,1.68Zm.76,13.22c-2.04,1.76-5.71,3.72-9.44,4.82l-.2-.39c3.11-1.54,6.3-4.28,7.7-6.3l3.3,1.48c-.2,.34-.59,.45-1.37,.39Zm2.35-10.19c-.64,2.55-1.74,4.82-3.19,6.3l-.45-.25c.98-1.85,1.6-4.54,1.82-7.25l2.83,.56c-.11,.36-.39,.62-1.01,.64Zm4.96-7.14c-.06,.31-.31,.45-.7,.45h-4.03l-.34,3.44h2.21l1.06-1.09,2.1,1.74c-.2,.22-.5,.34-1.06,.39-.17,4.96-.56,7.06-1.51,7.84-.59,.53-1.4,.73-2.3,.73,0-.5-.06-1.01-.36-1.29-.28-.22-.87-.45-1.51-.56v-.48c.67,.06,1.76,.14,2.24,.14,.36,0,.56-.06,.73-.22,.48-.45,.76-2.32,.87-6.36h-2.35l-.9,1.01-2.16-1.51c.28-.2,.64-.39,1.01-.56,.28-2.07,.59-5.46,.62-7.17l2.91,.53c-.11,.34-.39,.62-1.04,.64l-.14,1.96h1.76l1.04-1.4s1.18,1.01,1.85,1.76Zm5.49,21.53c-1.2-1.65-3.58-3.64-7.31-5.21l.17-.42c13.19,2.35,9.41,7.78,7.14,5.63Z"/>
      <path class="cls-2" d="M366.36,43.09l2.35,1.06h18.06l1.15-1.34,2.49,1.96c-.2,.25-.64,.48-1.2,.59v21.9c-.03,.22-1.04,.81-1.85,.81h-.31v-1.74h-18.56v1.09c0,.31-.81,.87-1.76,.87h-.36v-25.2Zm20.69,1.88h-18.56v20.52h18.56v-20.52Zm-9.04,13.89l.08,.39c-1.54,.7-3.81,1.68-6.94,2.86-.11,.36-.34,.59-.59,.67l-1.34-2.44c1.57-.2,5.18-.81,8.79-1.48Zm2.58-12.88c-.06,.34-.34,.62-.92,.64l.06,2.58h3.33l.64-.84c-.2,.03-.48-.03-.73-.17-.36-.87-1.37-1.9-2.18-2.46l.25-.25c3.02,.28,3.7,1.65,3.36,2.41,.34,.28,1.32,1.06,1.93,1.71-.08,.31-.34,.45-.73,.45h-5.82c.17,2.3,.5,4.56,1.15,6.55,.9-1.57,1.62-3.36,2.18-5.29l2.77,1.12c-.14,.34-.5,.56-1.12,.48-.81,2.18-1.82,4.06-3.02,5.66,.53,1.09,1.23,2.04,2.07,2.83,.36,.36,.5,.36,.7-.11,.28-.56,.67-1.71,.98-2.69l.36,.08-.42,3.64c.7,1.04,.81,1.48,.5,1.82-.7,.81-2.21,.06-3.16-.87-.95-.9-1.74-1.96-2.38-3.14-1.76,1.9-3.86,3.33-6.19,4.34l-.31-.39c2.13-1.32,4.12-3.14,5.77-5.46-1.04-2.49-1.6-5.38-1.85-8.57h-8.26l-.22-.84h8.43c-.08-1.23-.11-2.49-.14-3.81l2.97,.59Zm-9.86,5.38l1.85,.81h2.27l.9-.92,1.96,1.48c-.14,.17-.48,.36-.9,.42v4.26c0,.2-.9,.62-1.48,.62h-.25v-.87h-2.63v.87c0,.14-.76,.56-1.46,.56h-.25v-7.22Zm4.34,4.96v-3.33h-2.63v3.33h2.63Z"/>
      <path class="cls-2" d="M400.28,49.7h-4.76l-.25-.81h5.07l1.12-1.15,2.27,2.04c-.25,.25-.84,.39-1.51,.42-.78,1.4-2.18,3.61-3.19,5.18h2.27l1.29-1.29,2.21,1.99c-.2,.22-.48,.31-1.09,.34-.64,2.1-1.6,4.26-2.94,6.22,2.07,2.44,5.15,2.77,10.28,2.77,2.27,0,7.64,0,10.02-.06v.36c-.84,.17-1.23,.84-1.29,1.71h-8.79c-5.43,0-8.43-.78-10.58-4.23-1.29,1.74-2.91,3.33-4.93,4.59l-.31-.34c3.14-2.86,5.29-7.2,6.24-11.26h-2.72l-.81,.73-1.85-1.51c.25-.17,.67-.36,1.06-.45,1.01-1.46,2.35-3.7,3.19-5.26Zm-.98-2.49c-.31-1.46-1.6-3.22-2.72-4.23l.28-.22c6.36,1.43,4.65,5.94,2.44,4.45Zm21.2,.25c-.08,.31-.36,.45-.73,.45h-7.45c-.45,.84-1.01,1.88-1.51,2.66h4.7l1.15-1.23,2.44,1.88c-.2,.22-.62,.42-1.15,.53v11.51c-.03,.17-1.09,.67-1.82,.67h-.34v-1.37h-8.04v.84c0,.22-.9,.73-1.82,.73h-.34v-14.56l2.3,1.01h1.62c.08-.84,.17-1.88,.2-2.66h-5.91l-.22-.81h9.02c.64-1.46,1.32-3.42,1.71-4.87l3.33,.92c-.11,.28-.45,.53-1.06,.5-.76,1.01-1.99,2.35-3.14,3.44h3l1.43-1.85s1.65,1.26,2.63,2.21Zm-12.46-.78c-.17-1.34-1.15-3-2.07-3.95l.28-.2c5.85,1.51,3.86,5.71,1.79,4.14Zm7.76,7.56v-2.83h-8.04v2.83h8.04Zm0,3.72v-2.91h-8.04v2.91h8.04Zm0,3.78v-2.94h-8.04v2.94h8.04Z"/>
      <path class="cls-2" d="M440.47,56c.39,.59,.64,1.34,.56,2.02-.06,.56-.42,1.06-1.09,1.06-.56,0-.92-.39-1.32-1.26-.87-1.76-2.18-3.47-4.28-5.18l.31-.42c2.83,.92,4.82,2.21,5.82,3.78Z"/>
      <path class="cls-2" d="M9.27,91.5c-.08,.31-.34,.45-.73,.45h-2.58v1.99c4.59,2.58,3,5.77,1.4,4.42-.14-1.06-.76-2.38-1.4-3.44v14.53c0,.25-.87,.78-1.62,.78h-.42v-12.24c-.84,2.07-1.96,3.98-3.36,5.68l-.39-.34c1.76-3.22,2.77-7.31,3.36-11.4H.76l-.22-.81H3.92v-6.78l3.05,.31c-.06,.42-.28,.67-1.01,.78v5.68l1.18-1.62s1.32,1.18,2.13,1.99Zm17.16,8.06c-.08,.31-.34,.45-.73,.45h-6.69c.31,1.6,.76,2.97,1.34,4.14,.84-1.04,1.57-2.16,2.18-3.44l2.49,1.51c-.17,.28-.45,.39-1.04,.22-.76,1.23-1.65,2.32-2.63,3.25,.62,.76,1.37,1.34,2.24,1.76,.48,.28,.62,.22,.84-.25,.34-.76,.78-2.13,1.15-3.33l.34,.03-.36,4.17c.81,.87,.9,1.23,.73,1.62-.53,1.01-2.13,.48-3.42-.2-1.23-.59-2.24-1.43-3.05-2.49-1.96,1.46-4.2,2.44-6.55,3.02l-.2-.42c2.1-.9,4.14-2.18,5.88-3.92-.87-1.57-1.46-3.47-1.88-5.68h-3.22c-.06,.7-.14,1.43-.28,2.16,4.68,1.23,3.22,4.65,1.32,3.42-.2-.81-.81-1.74-1.51-2.46-.64,2.55-2.1,5.01-5.4,6.97l-.36-.42c3.39-2.97,3.86-6.52,3.98-9.66h-2.72l-.22-.84h8.29c-.42-2.66-.59-5.71-.67-9.1-.17,.17-.45,.25-.87,.2-1.04,1.57-2.86,3.72-4.54,5.29l3.39-.31c-.2-.73-.48-1.43-.76-1.96l.36-.14c3.84,2.52,2.02,5.43,.64,4.03,0-.42-.03-.87-.11-1.32-.95,.36-2.32,.9-3.64,1.37-.14,.28-.34,.48-.5,.56l-1.15-2.21s.45-.14,.64-.22c.92-.84,1.96-2.38,2.8-3.89l-1.88,.73c-.14,.34-.34,.56-.56,.64l-1.18-2.32s.45-.11,.62-.22c1.09-1.06,2.38-3.98,2.83-5.4l2.66,1.2c-.14,.25-.45,.48-1.04,.42-.81,1.29-2.18,2.91-3.44,4.12l2.52-.17c.36-.7,.7-1.37,.9-1.9l2.3,1.26-.03-5.26,3.08,.36c-.03,.36-.31,.67-1.01,.78-.08,5.15-.06,9.77,.56,13.47h4.12l1.2-1.46s1.37,1.04,2.24,1.85Zm-2.04-2.88c0-.5-.08-1.04-.25-1.6-.9,.34-2.27,.84-3.58,1.26l-.08,.17,.25-.17c3.67,.84,2.18,3.44,.81,2.41-.08-.78-.62-1.68-1.09-2.18-.17,.25-.34,.42-.5,.5l-1.09-2.27s.45-.11,.62-.2c.78-.73,1.68-2.02,2.44-3.3l-1.68,.64c-.17,.39-.36,.62-.59,.73l-1.09-2.21s.39-.14,.53-.22c.95-1.04,1.99-3.86,2.32-5.26l2.72,1.2c-.11,.25-.42,.5-.98,.45-.73,1.15-1.82,2.6-2.86,3.72l2.18-.14c.39-.73,.7-1.43,.92-1.96l2.44,1.54c-.14,.22-.5,.39-1.04,.28-.98,1.43-2.6,3.3-4.12,4.68l3.28-.28c-.22-.56-.5-1.09-.78-1.51l.36-.17c4.12,2.21,2.3,5.32,.87,3.89Z"/>
      <path class="cls-2" d="M33.34,101.25v-8.37h-3.02l-.22-.81h3.25v-7.28l3.19,.34c-.06,.39-.28,.67-1.01,.76v6.19h.36l1.29-1.9s1.4,1.34,2.24,2.27c-.08,.31-.36,.45-.76,.45h-3.14v7.48l3.81-1.54,.14,.31c-1.76,1.29-4.34,3.19-7.81,5.4-.06,.34-.28,.67-.56,.78l-1.37-2.72c.76-.25,2.04-.73,3.61-1.34Zm18.68-4.76l1.46-1.79s1.62,1.23,2.63,2.16c-.08,.31-.34,.45-.76,.45h-10.84c-.42,.78-.9,1.54-1.43,2.24h9.24l1.23-1.2,2.3,1.9c-.2,.22-.56,.34-1.12,.42-.39,4.96-1.2,7.78-2.49,8.74-.76,.62-1.76,.87-2.88,.87,0-.62-.08-1.18-.45-1.51-.36-.34-1.18-.59-2.07-.73v-.45c.95,.06,2.49,.2,3.05,.2,.48,0,.7-.06,.98-.28,.67-.59,1.34-3.02,1.71-7.14h-1.79c-1.54,4.34-4.51,7.59-9.18,9.88l-.28-.42c3.58-2.38,5.91-5.66,7.11-9.46h-1.85c-1.96,3.61-5.24,6.44-9.46,8.37l-.31-.42c3.33-2.02,5.91-4.82,7.53-7.95h-1.96c-1.65,1.88-3.84,3.39-6.44,4.59l-.31-.42c2.8-1.85,4.96-4.45,6.27-7.22h-4.06l-.22-.81h14.39Zm-11.26-11.56l2.3,.98h7.14l1.18-1.26,2.49,1.9c-.2,.2-.62,.45-1.18,.56v7.25c-.03,.2-1.09,.76-1.85,.76h-.36v-1.15h-7.56v.81c0,.2-.95,.7-1.85,.7h-.31v-10.56Zm9.72,4.56v-2.77h-7.56v2.77h7.56Zm-7.56,3.67h7.56v-2.86h-7.56v2.86Z"/>
      <path class="cls-2" d="M79.04,84.98c-.08,.42-.31,.7-1.01,.81v5.54h2.49l1.4-1.88s1.65,1.29,2.63,2.24c-.08,.31-.34,.45-.73,.45h-5.8v7.76h3.02l1.51-1.96s1.76,1.37,2.86,2.32c-.08,.31-.36,.45-.78,.45h-24.86l-.22-.81h7.14v-7.76h-6.02l-.22-.81h6.24v-6.66l3.28,.31c-.08,.42-.31,.7-1.01,.81v5.54h6.78v-6.66l3.3,.31Zm-8.12,18.7c-.2,.28-.42,.39-1.06,.25-2.07,2.27-5.74,4.87-9.69,6.36l-.25-.36c3.28-2.02,6.52-5.35,8.06-7.92l2.94,1.68Zm4.82-3.78v-7.76h-6.78v7.76h6.78Zm6.33,10.02c-1.26-2.35-4.62-5.38-7.14-7.08l.25-.28c10.67,2.97,9.77,8.82,6.89,7.36Z"/>
      <path class="cls-2" d="M96.03,84.81c-.06,.42-.28,.67-1.01,.78v5.57h.7l1.29-1.71s1.43,1.2,2.3,2.1c-.08,.31-.36,.45-.73,.45h-3.56v2.3c5.57,2.32,3.75,5.94,1.93,4.48-.25-1.2-1.12-2.74-1.93-3.89v14.62c0,.28-.87,.73-1.68,.73h-.45v-12.24c-.95,2.16-2.24,4.12-3.84,5.88l-.36-.36c1.96-3.19,3.14-7.34,3.78-11.51h-3.33l-.22-.84h3.98v-6.69l3.14,.34Zm3.19,10.86l2.18,.98h3.3v-2.07h-6.97l-.22-.78h4.28v-2.44h-2.46l-.22-.81h2.69v-2.24h-3.5l-.2-.84h3.7v-2.86l2.94,.28c-.06,.36-.31,.64-.9,.73v1.85h3.47v-2.86l2.97,.28c-.03,.39-.31,.64-.92,.76v1.82h1.65l1.23-1.54s1.4,1.09,2.27,1.93c-.08,.31-.34,.45-.73,.45h-4.42v2.24h1.26l1.15-1.46s1.32,1.04,2.13,1.82c-.06,.31-.34,.45-.7,.45h-3.84v2.44h2.07l1.23-1.57s1.4,1.12,2.24,1.9c-.06,.31-.34,.45-.7,.45h-7.45v2.07h3.33l1.01-1.2,2.49,1.85c-.2,.2-.59,.42-1.15,.53v6.1l1.01-1.46s1.2,1.12,1.88,1.93c-.06,.31-.31,.45-.7,.45h-2.18v2.72c0,1.51-.34,2.41-2.94,2.66-.06-.59-.17-1.12-.53-1.43-.34-.28-.92-.53-2.02-.67v-.42s2.32,.17,2.86,.17c.45,0,.56-.17,.56-.56v-2.46h-9.13v4.65c0,.22-.84,.73-1.68,.73h-.34v-5.38h-2.3l-.22-.84h2.52v-8.34Zm5.49,1.79h-3.47v2.74h3.47v-2.74Zm0,3.56h-3.47v3h3.47v-3Zm-.87-10.47h3.47v-2.24h-3.47v2.24Zm0,3.25h3.47v-2.44h-3.47v2.44Zm6.52,6.41v-2.74h-3.61v2.74h3.61Zm0,3.81v-3h-3.61v3h3.61Z"/>
      <path class="cls-2" d="M132.34,91.17c1.04-1.68,2.04-4.12,2.55-6.69l2.94,.87c-.11,.31-.45,.56-1.04,.56-.31,.7-.64,1.4-1.01,2.04h4.7l1.32-1.65s1.46,1.15,2.38,2.04c-.08,.31-.36,.45-.73,.45h-1.62c-.59,2.07-1.6,3.78-3.05,5.15,1.46,.95,3.3,1.65,5.6,2.1l-.06,.31c-.78,.25-1.29,.78-1.46,1.76-2.32-.73-4.03-1.76-5.38-3.11-1.34,.98-3,1.76-4.93,2.38l-.2-.42c1.76-.81,3.19-1.79,4.28-2.91-.95-1.2-1.65-2.58-2.24-4.14-.53,.64-1.12,1.2-1.71,1.68l.39,.45c-.06,.31-.31,.45-.67,.45h-2.24c-.08,.92-.2,1.71-.34,2.35h.53l.87-1.15s.98,.84,1.57,1.51c-.06,.31-.31,.45-.67,.45h-2.49c-.28,.9-.59,1.46-.98,1.76-.62,.53-1.46,.59-2.32,.56,0-.36-.08-.59-.34-.81-.25-.2-.78-.34-1.4-.42v-.48c.67,.03,1.68,.11,2.16,.11,.39,0,.56-.06,.78-.22,.11-.11,.2-.25,.31-.5h-5.38l-.92,.98-2.04-1.57c.28-.2,.73-.39,1.15-.53l.42-2.04h-2.13l-.22-.84h2.52c.22-1.32,.45-2.63,.56-3.64-.9,.92-1.9,1.76-2.94,2.35l-.34-.28c1.37-1.37,2.74-3.81,3.44-5.74l2.94,.81c-.11,.28-.34,.39-1.01,.34l-.78,1.04h5.85l1.18-1.48s1.37,1.04,2.21,1.85c-.08,.31-.34,.45-.73,.45h-9.18l-.48,.5,2.18,.84h4.34l.95-1.04,1.99,1.65c-.2,.22-.53,.34-1.06,.39l-.11,1.96h.42l.84-1.26,.81,.78Zm-5.15,15.51c-1.74,1.34-5.1,2.77-8.06,3.44l-.28-.36c2.52-1.12,5.4-3.11,6.78-4.65l2.58,1.32c-.17,.25-.39,.36-1.01,.25Zm13.13-1.37c-.31-.62-.87-1.32-1.48-2.02l-5.94,.76v3.7c0,1.51-.39,2.38-3.02,2.6,0-.53-.14-1.01-.45-1.32-.34-.25-.92-.48-2.02-.62v-.39s2.24,.14,2.74,.14c.45,0,.53-.14,.53-.45v-3.39c-2.3,.28-4.79,.56-7.45,.81-.14,.31-.34,.5-.53,.59l-1.23-2.38s.64-.03,.98-.14c2.32-.56,5.04-1.54,7.56-2.6-1.57,.2-3.36,.45-5.21,.64-.11,.22-.28,.36-.42,.45l-1.06-2.04s.45-.08,.67-.11c2.46-.62,5.57-2.52,6.92-3.5l1.76,1.99c-.2,.17-.62,.25-1.18-.08-1.32,.62-3.42,1.37-5.49,1.93l6.02-.2c1.88-.87,3.47-1.74,4.54-2.44l2.18,1.82c-.2,.22-.64,.36-1.26,.08-2.83,1.32-7.84,3.08-12.49,4.26,3.33-.14,8.15-.39,13.3-.67-.76-.78-1.57-1.48-2.24-1.99l.28-.25c7.03,1.79,6.08,5.88,3.98,4.82Zm-12.18-10.47c.14-.59,.25-1.37,.36-2.35h-5.57l-.5,2.35h5.71Zm-1.09-4.48c.53,.39,.39,1.12-.08,1.29h1.62l.17-2.13h-5.26l-.39,2.13h3.28l-.22-.11c-.39-.48-1.18-1.04-1.93-1.23l.08-.39c1.04-.14,2.1-.06,2.74,.45Zm-.28,3.05c.73,.67-.06,1.9-1.01,1.12-.34-.5-1.06-1.12-1.85-1.37l.08-.36c1.12-.08,2.16,.06,2.77,.62Zm8.06-4.06c.67,1.43,1.57,2.66,2.72,3.67,.92-1.23,1.54-2.63,1.93-4.23h-4.23l-.42,.56Zm6.44,20.55c-.95-1.18-3.33-2.94-6.38-4.14l.14-.42c9.35,.62,8.51,5.38,6.24,4.56Z"/>
      <path class="cls-2" d="M160.9,87.78c-.06,.31-.34,.45-.7,.45h-4.37v2.07c0,.2-1.01,.62-1.85,.62h-.45v-2.69h-5.32l-.22-.81h5.54v-2.94l3.14,.31c-.06,.31-.28,.53-.84,.62v2.02h1.48l1.26-1.71s1.46,1.2,2.32,2.07Zm11.87,17.33c-.08,.31-.36,.45-.73,.45h-10v4c-.03,.17-.73,.67-1.88,.67h-.36v-4.68h-9.63l-.22-.84h9.86v-3.19h-10.78l-.25-.84h11.03v-8.54h-10.19l-.22-.84h19.52l1.32-1.54s1.48,1.09,2.44,1.93c-.08,.31-.36,.45-.76,.45h-9.86v8.54h7.59l1.34-1.68s1.54,1.2,2.49,2.07c-.06,.31-.34,.45-.73,.45h-10.7v3.19h6.47l1.51-1.82s1.71,1.26,2.74,2.21Zm-17.58-11.4v2.27h1.01l1.18-1.54s1.34,1.09,2.16,1.9c-.08,.31-.34,.45-.73,.45h-3.61v2.63c0,.22-.9,.62-1.65,.62h-.39v-3.25h-4.12l-.22-.81h4.34v-3.25l2.91,.31c-.03,.34-.25,.59-.87,.67Zm18.79-5.94c-.08,.31-.36,.45-.76,.45h-5.77v2.02c0,.22-1.01,.62-1.85,.62h-.42v-2.63h-3.36l-.22-.81h3.58v-3l3.11,.31c-.06,.34-.25,.56-.84,.62v2.07h2.88l1.29-1.71s1.43,1.2,2.35,2.07Zm-6.19,5.94v2.13h2.07l1.18-1.54s1.34,1.06,2.18,1.9c-.08,.31-.36,.45-.73,.45h-4.7v2.66c0,.2-.9,.56-1.65,.56h-.39v-3.22h-2.72l-.22-.81h2.94v-3.11l2.91,.31c-.06,.34-.25,.59-.87,.67Z"/>
      <path class="cls-2" d="M190.41,87.78c-.03,.17-.14,.31-.31,.36l2.72,1.46c-.17,.28-.5,.45-1.29,.36,3,1.79,8.32,2.83,12.18,2.94l-.03,.36c-.92,.36-1.43,1.01-1.6,1.88-4.14-.67-8.43-2.35-11.26-4.73-2.32,1.62-5.54,3.28-9.18,4.42l1.68,.67h14.42l1.04-1.06,2.16,1.62c-.11,.17-.45,.36-.81,.39v4.76c-.03,.2-1.12,.64-1.82,.64h-.36v-.78h-14.98v.17c0,.22-.7,.81-1.79,.81h-.36v-6.97c-1.06,.31-2.16,.59-3.25,.78l-.22-.42c5.01-1.6,10.14-4.7,12.49-7.22h-4.23v2.1c0,.2-.98,.62-1.76,.62h-.42v-2.72h-5.71l-.22-.84h5.94v-2.97l3.02,.31c-.06,.31-.25,.53-.84,.62v2.04h1.29l1.23-1.65s1.43,1.18,2.3,2.04Zm-7.25,22.46h-.34v-8.65l2.38,1.01h10.28l1.09-1.15,2.32,1.76c-.14,.17-.5,.36-.92,.42v5.77c-.03,.22-1.12,.73-1.88,.73h-.36v-1.2h-10.67v.62c0,.22-.98,.7-1.9,.7Zm-.2-9.97h6.5v-3.95h-6.5v3.95Zm3.05-.48c-.11-1.04-.84-2.35-1.54-3.11l.31-.2c4.48,1.46,2.8,4.56,1.23,3.3Zm-.95,3.61v1.88h10.67v-1.88h-10.67Zm0,4.68h10.67v-1.99h-10.67v1.99Zm9.66-14.31c-.08,.31-.31,.45-.7,.45h-7.59l-.22-.81h5.6l1.01-1.23s1.18,.9,1.9,1.6Zm9.02-5.99c-.08,.31-.34,.45-.73,.45h-5.74v1.85c0,.2-.98,.62-1.76,.62h-.45v-2.46h-3.5l-.22-.84h3.72v-2.94l3.05,.31c-.08,.31-.28,.56-.84,.62v2.02h2.91l1.26-1.65s1.43,1.18,2.3,2.04Zm-7.78,10.19c-.56,.73-1.34,1.57-2.16,2.3h4.14v-3.95h-6.47v3.95h1.51c.5-1.06,1.09-2.58,1.46-3.64l2.6,.9c-.17,.34-.5,.53-1.09,.45Z"/>
      <path class="cls-2" d="M219.97,87.86c-.08,.31-.34,.45-.73,.45h-4v1.96c0,.22-1.01,.62-1.82,.62h-.42v-2.58h-5.6l-.22-.81h5.82v-3.05l3.05,.31c-.06,.31-.25,.56-.81,.62v2.13h1.12l1.26-1.68s1.48,1.18,2.35,2.04Zm12.8,15.79c-.08,.31-.36,.45-.76,.45h-10.98v5.54c0,.25-.98,.67-1.85,.67h-.42v-6.22h-11.17l-.25-.81h11.42v-2.74l3.16,.31c-.06,.34-.28,.59-.9,.67v1.76h7.56l1.48-1.85s1.65,1.29,2.69,2.21Zm-1.99-10.72c-.08,.31-.34,.45-.73,.45h-21.2l-.25-.84h10.7l-.14-.08c-.08-1.09-.9-2.44-1.74-3.14l.25-.17c3.89,.5,4.09,2.66,3.14,3.39h5.94l1.46-1.79s1.6,1.26,2.58,2.18Zm-14.9,2.16c-.22,.42-.45,.87-.73,1.32,5.4,1.2,3.89,5.04,1.9,3.72-.28-1.12-1.26-2.35-2.27-3.16-1.23,1.88-2.97,3.81-5.15,5.07l-.28-.36c2.24-2.13,3.92-5.54,4.65-8.12l2.91,1.18c-.11,.28-.36,.42-1.04,.36Zm10.11,.2c-.22,.42-.5,.84-.81,1.29,6.16,1.26,4.84,5.43,2.69,4.14-.45-1.26-1.79-2.72-3.02-3.67-1.01,1.34-2.38,2.69-3.95,3.58l-.28-.34c1.62-1.76,2.88-4.54,3.42-6.55l2.97,1.18c-.11,.25-.36,.42-1.01,.36Zm6.8-7.42c-.08,.31-.36,.45-.76,.45h-5.6v1.85c0,.2-.98,.62-1.82,.62h-.42v-2.46h-3.3l-.22-.81h3.53v-3.05l3.08,.31c-.06,.31-.28,.56-.84,.62v2.13h2.72l1.29-1.68s1.46,1.18,2.35,2.04Z"/>
      <path class="cls-2" d="M246.71,100.07c1.74-.87,2.74-1.68,3.19-3.22-1.74-.81-2.32-1.57-2.32-2.46,0-1.04,.76-1.85,1.9-1.85,.64,0,1.15,.14,1.62,.59,.28,.64,.36,1.06,.36,1.79,0,3.02-1.71,4.93-4.4,5.94l-.36-.78Z"/>
      <path class="cls-2" d="M274.85,91.5c-.08,.31-.34,.45-.73,.45h-2.58v1.99c4.59,2.58,3,5.77,1.4,4.42-.14-1.06-.76-2.38-1.4-3.44v14.53c0,.25-.87,.78-1.62,.78h-.42v-12.24c-.84,2.07-1.96,3.98-3.36,5.68l-.39-.34c1.76-3.22,2.77-7.31,3.36-11.4h-2.77l-.22-.81h3.39v-6.78l3.05,.31c-.06,.42-.28,.67-1.01,.78v5.68l1.18-1.62s1.32,1.18,2.13,1.99Zm17.16,8.06c-.08,.31-.34,.45-.73,.45h-6.69c.31,1.6,.76,2.97,1.34,4.14,.84-1.04,1.57-2.16,2.18-3.44l2.49,1.51c-.17,.28-.45,.39-1.04,.22-.76,1.23-1.65,2.32-2.63,3.25,.62,.76,1.37,1.34,2.24,1.76,.48,.28,.62,.22,.84-.25,.34-.76,.78-2.13,1.15-3.33l.34,.03-.36,4.17c.81,.87,.9,1.23,.73,1.62-.53,1.01-2.13,.48-3.42-.2-1.23-.59-2.24-1.43-3.05-2.49-1.96,1.46-4.2,2.44-6.55,3.02l-.2-.42c2.1-.9,4.14-2.18,5.88-3.92-.87-1.57-1.46-3.47-1.88-5.68h-3.22c-.06,.7-.14,1.43-.28,2.16,4.68,1.23,3.22,4.65,1.32,3.42-.2-.81-.81-1.74-1.51-2.46-.64,2.55-2.1,5.01-5.4,6.97l-.36-.42c3.39-2.97,3.86-6.52,3.98-9.66h-2.72l-.22-.84h8.29c-.42-2.66-.59-5.71-.67-9.1-.17,.17-.45,.25-.87,.2-1.04,1.57-2.86,3.72-4.54,5.29l3.39-.31c-.2-.73-.48-1.43-.76-1.96l.36-.14c3.84,2.52,2.02,5.43,.64,4.03,0-.42-.03-.87-.11-1.32-.95,.36-2.32,.9-3.64,1.37-.14,.28-.34,.48-.5,.56l-1.15-2.21s.45-.14,.64-.22c.92-.84,1.96-2.38,2.8-3.89l-1.88,.73c-.14,.34-.34,.56-.56,.64l-1.18-2.32s.45-.11,.62-.22c1.09-1.06,2.38-3.98,2.83-5.4l2.66,1.2c-.14,.25-.45,.48-1.04,.42-.81,1.29-2.18,2.91-3.44,4.12l2.52-.17c.36-.7,.7-1.37,.9-1.9l2.3,1.26-.03-5.26,3.08,.36c-.03,.36-.31,.67-1.01,.78-.08,5.15-.06,9.77,.56,13.47h4.12l1.2-1.46s1.37,1.04,2.24,1.85Zm-2.04-2.88c0-.5-.08-1.04-.25-1.6-.9,.34-2.27,.84-3.58,1.26l-.08,.17,.25-.17c3.67,.84,2.18,3.44,.81,2.41-.08-.78-.62-1.68-1.09-2.18-.17,.25-.34,.42-.5,.5l-1.09-2.27s.45-.11,.62-.2c.78-.73,1.68-2.02,2.44-3.3l-1.68,.64c-.17,.39-.36,.62-.59,.73l-1.09-2.21s.39-.14,.53-.22c.95-1.04,1.99-3.86,2.32-5.26l2.72,1.2c-.11,.25-.42,.5-.98,.45-.73,1.15-1.82,2.6-2.86,3.72l2.18-.14c.39-.73,.7-1.43,.92-1.96l2.44,1.54c-.14,.22-.5,.39-1.04,.28-.98,1.43-2.6,3.3-4.12,4.68l3.28-.28c-.22-.56-.5-1.09-.78-1.51l.36-.17c4.12,2.21,2.3,5.32,.87,3.89Z"/>
      <path class="cls-2" d="M298.92,101.25v-8.37h-3.02l-.22-.81h3.25v-7.28l3.19,.34c-.06,.39-.28,.67-1.01,.76v6.19h.36l1.29-1.9s1.4,1.34,2.24,2.27c-.08,.31-.36,.45-.76,.45h-3.14v7.48l3.81-1.54,.14,.31c-1.76,1.29-4.34,3.19-7.81,5.4-.06,.34-.28,.67-.56,.78l-1.37-2.72c.76-.25,2.04-.73,3.61-1.34Zm18.68-4.76l1.46-1.79s1.62,1.23,2.63,2.16c-.08,.31-.34,.45-.76,.45h-10.84c-.42,.78-.9,1.54-1.43,2.24h9.24l1.23-1.2,2.3,1.9c-.2,.22-.56,.34-1.12,.42-.39,4.96-1.2,7.78-2.49,8.74-.76,.62-1.76,.87-2.88,.87,0-.62-.08-1.18-.45-1.51-.36-.34-1.18-.59-2.07-.73v-.45c.95,.06,2.49,.2,3.05,.2,.48,0,.7-.06,.98-.28,.67-.59,1.34-3.02,1.71-7.14h-1.79c-1.54,4.34-4.51,7.59-9.18,9.88l-.28-.42c3.58-2.38,5.91-5.66,7.11-9.46h-1.85c-1.96,3.61-5.24,6.44-9.46,8.37l-.31-.42c3.33-2.02,5.91-4.82,7.53-7.95h-1.96c-1.65,1.88-3.84,3.39-6.44,4.59l-.31-.42c2.8-1.85,4.96-4.45,6.27-7.22h-4.06l-.22-.81h14.39Zm-11.26-11.56l2.3,.98h7.14l1.18-1.26,2.49,1.9c-.2,.2-.62,.45-1.18,.56v7.25c-.03,.2-1.09,.76-1.85,.76h-.36v-1.15h-7.56v.81c0,.2-.95,.7-1.85,.7h-.31v-10.56Zm9.72,4.56v-2.77h-7.56v2.77h7.56Zm-7.56,3.67h7.56v-2.86h-7.56v2.86Z"/>
      <path class="cls-2" d="M326.78,103.82v-16.55h-1.57l-.22-.84h7.78l1.37-1.68s1.54,1.18,2.49,2.07c-.08,.31-.34,.45-.73,.45h-1.9v22.43c-.03,.14-.64,.62-1.68,.62h-.31v-6.92c-1.43,.76-3.25,1.68-5.43,2.72-.08,.34-.34,.62-.62,.7l-.98-2.63,1.79-.36Zm5.24-16.55h-3.33v4.59h3.33v-4.59Zm0,5.43h-3.33v4.76h3.33v-4.76Zm-3.33,5.57v5.1l3.33-.81v-4.28h-3.33Zm13.16-.25v4.42c-.06,3.19-1.2,6.13-6.75,7.87l-.31-.36c3.16-1.37,4.48-3.16,4.96-5.24h-1.96l-.7,1.09-2.1-1.43c.2-.2,.5-.42,.81-.59v-5.88l2.94,.25c-.06,.34-.31,.56-1.15,.7v5.04h2.32c.06-.48,.08-.98,.08-1.48v-5.38l2.77,.28c-.06,.36-.25,.62-.92,.7Zm-.56-1.48c0-.45-.08-.92-.2-1.43-1.2,.39-3.08,1.01-4.9,1.51-.14,.17-.31,.25-.45,.31l-.7-1.99s.48-.11,.64-.22c1.01-.81,2.13-2.18,3.11-3.61l-2.3,.62c-.11,.14-.25,.22-.36,.28l-.84-1.96s.36-.11,.53-.22c1.12-1.18,2.46-4.12,2.91-5.63l2.6,1.2c-.14,.25-.45,.5-1.01,.45-.84,1.32-2.21,3.05-3.5,4.26h2.66c.67-1.06,1.26-2.07,1.6-2.86l2.27,1.65c-.14,.22-.5,.39-1.04,.22-1.2,1.71-3.33,4.06-5.4,5.77,1.12-.08,2.55-.22,4-.36-.22-.84-.59-1.62-.92-2.24l.36-.14c4.12,2.69,2.35,5.82,.92,4.4Zm7.9,.17c-.03-.5-.11-1.04-.28-1.6-1.2,.39-2.97,.95-4.68,1.46-.14,.17-.31,.25-.45,.31l-.7-2.02s.45-.08,.62-.22c.87-.78,1.88-2.13,2.72-3.53l-2.3,.59c-.11,.2-.28,.34-.42,.39l-.84-1.99s.36-.11,.5-.22c1.04-1.15,2.18-4.14,2.58-5.66l2.6,1.2c-.11,.25-.42,.5-1.01,.45-.76,1.32-1.99,3.05-3.19,4.28l2.69-.03c.62-1.06,1.12-2.1,1.43-2.86l2.32,1.6c-.14,.22-.5,.39-1.04,.28-1.09,1.65-3.08,4-4.93,5.68l3.89-.34c-.28-.84-.67-1.65-1.04-2.3l.39-.14c4.28,2.86,2.6,6.1,1.12,4.65Zm-3.58,1.34v5.85h2.44v-5.71l2.77,.28c-.06,.36-.31,.62-.95,.7v6.69c0,.22-.78,.62-1.46,.62h-.36v-1.76h-2.44v4.84c0,.25-.81,.64-1.54,.64h-.36v-13.22l2.94,.34c-.06,.36-.34,.64-1.04,.73Z"/>
      <path class="cls-2" d="M356.82,108.72c-.53,.67-1.65,.87-2.1,.2-.36-.56-.06-1.26,.53-1.74,.81-.81,1.65-2.83,1.54-4.65h.5c.78,2.97,.31,5.18-.48,6.19Zm7.84-9.55c2.41-1.12,4.54-2.55,6.27-4.23-1.06-1.18-1.96-2.49-2.72-3.92-1.15,1.54-2.46,2.8-3.95,3.75l-.36-.31c2.1-2.27,3.95-5.85,4.82-9.91l3.19,.98c-.11,.31-.45,.56-1.06,.53-.28,.73-.59,1.43-.9,2.1h5.21l1.37-1.29,2.18,2.02c-.2,.25-.5,.34-1.18,.36-1.04,2.1-2.44,4.03-4.28,5.68,2.07,1.32,4.56,2.35,7.59,3.02l-.06,.28c-.92,.28-1.48,.9-1.71,1.93-1.01-.36-1.96-.76-2.83-1.2l1.99,1.57c-.17,.2-.45,.36-1.04,.48v8.18c0,.11-.78,.56-1.82,.56h-.36v-1.96h-5.99v1.6c0,.17-.67,.62-1.76,.62h-.34v-10.95l2.41,.98h5.6l1.04-1.2c-1.54-.81-2.86-1.76-4-2.83-1.96,1.51-4.37,2.77-7.2,3.7,.2,1.57-.84,2.44-1.82,1.48,0-.56-.08-1.15-.22-1.79-1.57,.5-3.78,1.2-6.13,1.82-.2,.31-.45,.5-.7,.59l-.98-2.74s.62-.11,.84-.31c1.29-1.12,2.86-3.11,4.17-5.12-.98,.31-2.16,.67-3.36,.98-.17,.28-.39,.48-.62,.56l-1.06-2.72s.5-.11,.7-.25c1.48-1.6,3.39-5.6,4.06-7.73l2.94,1.46c-.14,.28-.48,.48-1.01,.42-1.15,1.9-3.16,4.51-5.01,6.24h4.03c.84-1.32,1.51-2.6,1.93-3.58l2.72,1.79c-.14,.25-.53,.42-1.06,.31-1.54,2.32-4.59,5.74-7.31,8.01,1.48-.08,3.53-.22,5.68-.39-.28-1.09-.7-2.16-1.12-2.97l.36-.14c1.71,1.2,2.55,2.49,2.86,3.56Zm-5.38,8.88c.31-1.82,.08-4.14-.28-5.68l.39-.08c3.72,3.92,1.37,7.64-.11,5.77Zm4-1.23c-.03-1.6-.95-3.72-1.79-5.04l.36-.14c5.04,2.91,3.16,6.78,1.43,5.18Zm8.62-12.85c1.37-1.51,2.46-3.19,3.25-4.98h-5.66c-.25,.5-.56,.98-.87,1.46,.87,1.32,1.96,2.49,3.28,3.53Zm3.11,13.02v-6.1h-5.99v6.1h5.99Z"/>
      <path class="cls-2" d="M389.16,91.7h-4.76l-.25-.81h5.07l1.12-1.15,2.27,2.04c-.25,.25-.84,.39-1.51,.42-.78,1.4-2.18,3.61-3.19,5.18h2.27l1.29-1.29,2.21,1.99c-.2,.22-.48,.31-1.09,.34-.64,2.1-1.6,4.26-2.94,6.22,2.07,2.44,5.15,2.77,10.28,2.77,2.27,0,7.64,0,10.02-.06v.36c-.84,.17-1.23,.84-1.29,1.71h-8.79c-5.43,0-8.43-.78-10.58-4.23-1.29,1.74-2.91,3.33-4.93,4.59l-.31-.34c3.14-2.86,5.29-7.2,6.24-11.26h-2.72l-.81,.73-1.85-1.51c.25-.17,.67-.36,1.06-.45,1.01-1.46,2.35-3.7,3.19-5.26Zm-.98-2.49c-.31-1.46-1.6-3.22-2.72-4.23l.28-.22c6.36,1.43,4.65,5.94,2.44,4.45Zm21.2,.25c-.08,.31-.36,.45-.73,.45h-7.45c-.45,.84-1.01,1.88-1.51,2.66h4.7l1.15-1.23,2.44,1.88c-.2,.22-.62,.42-1.15,.53v11.51c-.03,.17-1.09,.67-1.82,.67h-.34v-1.37h-8.04v.84c0,.22-.9,.73-1.82,.73h-.34v-14.56l2.3,1.01h1.62c.08-.84,.17-1.88,.2-2.66h-5.91l-.22-.81h9.02c.64-1.46,1.32-3.42,1.71-4.87l3.33,.92c-.11,.28-.45,.53-1.06,.5-.76,1.01-1.99,2.35-3.14,3.44h3l1.43-1.85s1.65,1.26,2.63,2.21Zm-12.46-.78c-.17-1.34-1.15-3-2.07-3.95l.28-.2c5.85,1.51,3.86,5.71,1.79,4.14Zm7.76,7.56v-2.83h-8.04v2.83h8.04Zm0,3.72v-2.91h-8.04v2.91h8.04Zm0,3.78v-2.94h-8.04v2.94h8.04Z"/>
      <path class="cls-2" d="M422.14,113.4l-.56,.5c-4.37-4.28-6.5-8.76-6.5-14.45s2.13-10.16,6.5-14.45l.56,.5c-3.75,5.04-4.82,8.71-4.82,13.94s1.18,8.96,4.82,13.94Z"/>
      <path class="cls-2" d="M427.4,87.36l2.3,.98h.34c.2-1.09,.42-2.74,.56-3.89l3.14,.59c-.08,.39-.42,.62-1.04,.64-.45,.78-1.15,1.85-1.74,2.66h2.58l.95-1.18,2.32,1.79c-.17,.2-.56,.39-1.06,.48v6.86l1.9-.25,.06,.45-1.96,.53v10.58c0,1.51-.31,2.35-2.74,2.58-.03-.53-.17-1.01-.45-1.29-.34-.31-.87-.5-1.85-.64v-.45s2.07,.17,2.52,.17c.42,0,.56-.17,.56-.56v-9.88c-1.34,.34-2.83,.64-4.45,.95-.06,4.03-.42,8.57-3.44,11.82l-.42-.25c1.68-3.22,1.9-7.22,1.93-11.23l-.78,.14c-.14,.34-.39,.56-.67,.62l-.62-2.3,2.07-.11v-9.8Zm6.38,1.79h-4.45v7.84l4.45-.48v-7.36Zm-2.6,6.22c-.08-1.18-.36-3.39-1.32-4.87l.39-.22c4.03,3.3,2.02,6.61,.92,5.1Zm.06,8.96c-.03-1.26-.22-3.67-1.12-5.29l.42-.22c3.92,3.78,1.74,7.06,.7,5.52Zm7.84-11.4l2.46,1.01h3.44l1.15-1.26,2.27,1.96c-.17,.2-.5,.34-1.06,.42v12.04c0,.31,.06,.45,.42,.45h.76c.28,0,.56,0,.7-.03,.14,0,.22-.06,.34-.31,.17-.42,.53-2.38,.81-3.98h.34l.11,4.14c.56,.25,.67,.48,.67,.87,0,.84-.78,1.29-3.11,1.29h-1.23c-1.6,0-1.88-.56-1.88-1.9v-12.88h-4.12v4.59c0,3.67-.45,8.15-5.35,11.09l-.31-.34c3.14-3.05,3.58-6.89,3.58-10.72v-6.44Zm12.35-2.8c-.08,.31-.36,.45-.73,.45h-13.83l-.22-.81h10.72l1.46-1.9s1.65,1.32,2.6,2.27Zm-8.85-1.04c-.14-1.54-1.18-3.42-2.21-4.51l.31-.2c5.94,1.93,3.98,6.33,1.9,4.7Z"/>
      <path class="cls-2" d="M26.32,136.22c-.14,.34-.39,.48-1.15,.45-.87,3-1.93,5.52-3.25,7.67,.56,1.51,1.32,2.86,2.24,3.92,.34,.5,.48,.5,.73-.08,.34-.64,.84-1.96,1.2-3.08l.34,.06-.53,4.45c.73,1.37,.84,2.02,.45,2.32-.95,.81-2.63-.34-3.56-1.54s-1.71-2.55-2.32-4c-1.96,2.41-4.42,4.28-7.62,5.74l-.28-.5c3.08-1.88,5.4-4.12,7.2-7.08-1.12-3.39-1.65-7.36-1.88-11.68h-6.3v4.4h2.83l1.09-1.15,2.18,1.79c-.17,.2-.5,.36-1.04,.42-.11,5.26-.31,7.76-1.23,8.65-.53,.45-1.26,.67-2.04,.67,0-.42-.14-.92-.42-1.2-.28-.28-1.04-.53-1.76-.67v-.45c.73,.06,1.93,.14,2.32,.14,.25,0,.36-.06,.48-.2,.42-.5,.56-2.72,.67-7.2h-3.08v.39c0,4.56-.62,10.16-6.33,13.78l-.36-.34c2.88-2.74,3.98-6.02,4.37-9.46-1.6,1.06-3.89,2.63-7,4.51-.08,.36-.34,.64-.59,.76l-1.46-2.74c.73-.2,1.93-.56,3.42-1.04v-8.68H.73l-.22-.81H3.64v-7.42l3.19,.34c-.06,.39-.31,.67-1.01,.76v6.33h.36l1.23-1.79s1.23,1.12,2.04,2.02v-3.61l2.52,1.01h5.85c-.08-1.71-.11-3.47-.11-5.29l3.25,.36c0,.17-.08,.34-.22,.45,3.75,.31,4.23,2.24,3.47,2.97,.48,.36,1.51,1.23,2.24,1.88-.08,.31-.36,.45-.73,.45h-5.74c.14,3.16,.45,6.3,1.15,9.04,.87-1.93,1.57-4.14,2.16-6.66l3.02,.98Zm-20.5,6.94l3.47-1.2,.03,.06c.11-1.18,.14-2.35,.14-3.53v-3.5c-.11,.17-.34,.25-.59,.25h-3.05v7.92Zm16.88-12.52c-.31-1.01-1.37-2.21-2.24-2.86l.08-.08c-.14,.08-.34,.17-.59,.2-.03,1.37-.03,2.74,0,4.14h2.63l.95-1.18c-.25,.03-.53-.06-.84-.22Z"/>
      <path class="cls-2" d="M32.18,127.43l2.35,.98h3.84l1.09-1.18,2.38,1.79c-.17,.22-.59,.45-1.15,.56v6.75c-.03,.17-1.06,.56-1.71,.56h-.34v-.92h-.95v4.42h.9l1.23-1.76s1.43,1.23,2.27,2.13c-.08,.31-.34,.45-.73,.45h-3.67v6.3l4.42-1.06,.08,.36c-2.32,1.09-5.57,2.55-10,4.28-.11,.34-.39,.62-.67,.7l-1.06-2.69,1.74-.34v-9.91l2.6,.28c-.03,.28-.25,.53-.78,.59v8.65l1.62-.39v-12.01h-1.46v.67c0,.14-.67,.64-1.71,.64h-.31v-9.86Zm2.02,1.79v5.94h4.45v-5.94h-4.45Zm14.92-1.76c-.14,.34-.48,.59-1.06,.53-.25,.64-.56,1.23-.84,1.82h3.86l1.37-1.29,2.21,2.04c-.2,.25-.5,.34-1.15,.36-.92,2.1-2.18,4.09-3.78,5.82,1.93,1.51,4.34,2.63,7.36,3.39l-.08,.31c-.87,.25-1.48,.84-1.68,1.93-.98-.39-1.9-.81-2.72-1.29l2.13,1.62c-.2,.22-.48,.39-1.06,.5v8.37c0,.14-.78,.59-1.85,.59h-.39v-1.9h-6.33v1.37c0,.17-.67,.62-1.76,.62h-.36v-10.5c-1.01,.48-2.07,.92-3.19,1.32l-.25-.42c3.19-1.51,5.91-3.58,7.98-6.05-.87-1.15-1.6-2.44-2.18-3.81-1.2,1.57-2.58,2.88-4.06,3.86l-.39-.31c2.1-2.24,4.06-5.96,5.1-9.97l3.14,1.06Zm-5.57,14.03l1.9,.76h5.91l1.06-1.23c-1.51-.9-2.77-1.93-3.84-3.08-1.43,1.34-3.11,2.55-5.04,3.56Zm7.9,7.98v-6.41h-6.33v6.41h6.33Zm-4.68-18.84c-.34,.56-.64,1.09-1.01,1.57,.7,1.26,1.57,2.38,2.6,3.39,1.15-1.54,2.07-3.22,2.74-4.96h-4.34Z"/>
      <path class="cls-2" d="M82.02,147.34l1.76-2.3s1.99,1.57,3.22,2.66c-.08,.31-.39,.45-.78,.45h-24.47l-.25-.81h20.52Zm-2.63-15.65l1.68-2.18s1.96,1.51,3.14,2.58c-.08,.28-.39,.42-.76,.42h-19.07l-.22-.81h15.23Z"/>
      <path class="cls-2" d="M102.69,134.65c-.08,.31-.36,.45-.76,.45h-5.6v4.4h2.74l1.32-1.74s1.48,1.2,2.41,2.1c-.08,.31-.36,.45-.76,.45h-5.71v4.34l6.97-1.62,.11,.42c-1.76,.81-4.06,1.82-7.08,3.05v5.07c-.03,.2-.59,.73-1.85,.73h-.28v-4.96l-.98,.39c-.11,.34-.36,.59-.64,.7l-1.37-2.74c.7-.11,1.74-.31,3-.59v-16.74l2.38,1.06c1.43-.84,2.97-1.9,4.17-2.88l2.69,2.02c-.22,.25-.48,.28-.98,.14-1.76,.62-4.14,1.29-6.13,1.74v3.86h2.69l1.29-1.68s1.46,1.18,2.38,2.04Zm2.49,5.15h-1.88l-.25-.84h9.18l1.4-1.32,2.27,2.13c-.2,.25-.5,.31-1.18,.34-1.01,2.44-2.41,4.62-4.28,6.47,2.07,1.65,4.59,2.77,7.48,3.53l-.06,.28c-.95,.14-1.65,.84-2.02,1.88-2.74-1.06-5.01-2.49-6.75-4.45-2.46,1.99-5.63,3.53-9.66,4.54l-.22-.45c3.67-1.26,6.61-3.11,8.85-5.38-1.29-1.82-2.27-4.03-2.88-6.72Zm-.17-12.49l2.49,1.01h3.5l1.18-1.2,2.27,1.9c-.2,.2-.56,.31-1.06,.39v4.98c0,.31,.08,.39,.42,.39h1.54c.11,0,.31,0,.42-.03,.14,0,.36-.03,.5-.08h.25l.11,.03c.59,.22,.81,.42,.81,.87,0,.84-.76,1.26-3.11,1.26h-1.23c-1.62,0-1.85-.5-1.85-1.85v-5.82h-4.12v1.76c0,2.27-.48,5.57-4.7,7.56l-.28-.36c2.52-2.13,2.86-4.82,2.86-7.2v-3.61Zm7.25,12.49h-6.52c.73,2.21,1.88,4.06,3.36,5.57,1.37-1.65,2.44-3.53,3.16-5.57Z"/>
      <path class="cls-2" d="M121.85,127.51l.56-.5c4.34,4.28,6.5,8.76,6.5,14.45s-2.16,10.16-6.5,14.45l-.56-.5c3.72-5.01,4.82-8.71,4.82-13.94s-1.18-8.96-4.82-13.94Z"/>
      <path class="cls-2" d="M153.91,128.88l1.2-1.37,2.69,2.07c-.2,.25-.67,.5-1.29,.62v9.44c-.03,.2-1.18,.73-1.96,.73h-.34v-2.27h-13.97v9.66c0,1.15,1.01,1.43,3.02,1.43h10.39c2.04,0,2.86-.14,3.3-.95,.42-.76,1.09-3.11,1.46-4.82h.34l.03,5.1c1.09,.34,1.46,.5,1.46,.98,0,1.09-1.26,1.85-6.44,1.85h-10.39c-3.61,0-5.43-.84-5.43-3.64v-14.7l3.19,.31c-.08,.39-.28,.64-.92,.7v3.28h13.97v-7.59h-17.61l-.25-.81h17.56Z"/>
      <path class="cls-2" d="M178.87,132.38c-.08,.31-.36,.45-.76,.45h-6.92c-.03,1.43-.08,2.83-.2,4.2h3.16l1.2-1.26,2.3,1.93c-.2,.22-.53,.39-1.12,.45-.25,8.18-.81,11.65-2.07,12.85-.76,.73-1.74,1.04-2.83,1.04,0-.64-.08-1.2-.42-1.54-.31-.31-1.04-.56-1.82-.73v-.45c.78,.06,2.1,.17,2.6,.17,.45,0,.67-.06,.92-.31,.78-.73,1.29-4.2,1.48-11.31h-3.47c-.48,5.6-1.76,10.58-5.66,14.45l-.34-.28c3.42-5.49,3.92-12.15,3.84-19.21h-3.3l-.22-.81h9.69l1.37-1.79s1.57,1.26,2.55,2.16Zm-7.31-1.04c-.17-1.6-1.34-3.53-2.44-4.68l.31-.2c6.38,1.9,4.34,6.64,2.13,4.87Zm13.3-3.58c1.09,3.81,3.89,7.25,6.69,9.24l-.06,.31c-.92,.31-1.57,.87-1.76,1.68-2.41-2.41-4.23-6.24-5.26-10.16-1.37,3.72-3.75,7.95-7.08,10.61l-.36-.25c2.74-3.39,4.79-8.79,5.46-12.8l3.44,.73c-.08,.34-.34,.5-1.06,.59v.06Zm2.18,24.22c-1.62-2.38-5.57-5.32-8.51-6.92l.22-.31c11.76,2.41,11.31,8.46,8.29,7.22Zm-1.85-9.86c-.76-1.48-2.72-3.39-4.17-4.51l.25-.25c7.45,1.26,6.36,5.94,3.92,4.76Z"/>
      <path class="cls-2" d="M196.12,148.32c1.82-1.99,3.61-3.98,4.98-5.46,3.08-3.39,4.26-5.35,4.26-7.81s-1.43-4.34-3.89-4.34c-.62,0-1.2,.11-1.85,.31l-.78,2.38c-.28,1.23-.84,1.62-1.48,1.62-.56,0-1.04-.34-1.29-.87,.53-2.77,3.16-4.34,6.24-4.34,3.89,0,5.85,2.13,5.85,5.29,0,2.58-1.74,4.76-6.27,8.71-.84,.78-2.44,2.32-4.06,3.95h11.09v2.24h-12.8v-1.68Z"/>
      <path class="cls-2" d="M226.98,140.17c0,7.28-3.11,10.25-6.47,10.25s-6.5-2.97-6.5-10.25,3.08-10.36,6.5-10.36,6.47,3.05,6.47,10.36Zm-6.47,9.35c1.93,0,3.81-2.18,3.81-9.35s-1.88-9.46-3.81-9.46-3.81,2.21-3.81,9.46,1.82,9.35,3.81,9.35Z"/>
      <path class="cls-2" d="M232.25,148.32c1.82-1.99,3.61-3.98,4.98-5.46,3.08-3.39,4.26-5.35,4.26-7.81s-1.43-4.34-3.89-4.34c-.62,0-1.2,.11-1.85,.31l-.78,2.38c-.28,1.23-.84,1.62-1.48,1.62-.56,0-1.04-.34-1.29-.87,.53-2.77,3.16-4.34,6.24-4.34,3.89,0,5.85,2.13,5.85,5.29,0,2.58-1.74,4.76-6.27,8.71-.84,.78-2.44,2.32-4.06,3.95h11.09v2.24h-12.8v-1.68Z"/>
      <path class="cls-2" d="M250.32,148.32c1.82-1.99,3.61-3.98,4.98-5.46,3.08-3.39,4.26-5.35,4.26-7.81s-1.43-4.34-3.89-4.34c-.62,0-1.2,.11-1.85,.31l-.78,2.38c-.28,1.23-.84,1.62-1.48,1.62-.56,0-1.04-.34-1.29-.87,.53-2.77,3.16-4.34,6.24-4.34,3.89,0,5.85,2.13,5.85,5.29,0,2.58-1.74,4.76-6.27,8.71-.84,.78-2.44,2.32-4.06,3.95h11.09v2.24h-12.8v-1.68Z"/>
      <path class="cls-2" d="M278.26,127.34c-.14,.31-.48,.53-1.12,.48-.5,.98-1.06,1.9-1.62,2.8h12.82l1.57-1.93s1.76,1.32,2.88,2.32c-.08,.31-.36,.45-.73,.45h-8.65v5.29h4.31l1.48-1.82s1.65,1.26,2.69,2.18c-.06,.31-.34,.45-.76,.45h-7.73v6.58h5.85l1.6-1.96s1.79,1.37,2.91,2.32c-.06,.31-.36,.45-.78,.45h-9.58v6.58c-.03,.17-.78,.73-2.02,.73h-.42v-7.31h-12.8l-.25-.81h4.9v-8.48l2.69,1.09h5.46v-5.29h-6.05c-1.99,2.77-4.31,5.01-6.78,6.58l-.34-.31c2.6-2.63,5.4-7.06,7.08-11.73l3.36,1.34Zm2.72,10.22h-5.82v6.58h5.82v-6.58Z"/>
      <path class="cls-2" d="M306.44,129.95l.42,.31-.11,4.45v8.82c0,1.71,.03,3.5,.08,5.26l4.14,.42v.78h-11.37v-.78l4.37-.42,.06-5.26v-11.7l-3.95,.59v-.9l6.36-1.57Z"/>
      <path class="cls-2" d="M324.5,129.95l.42,.31-.11,4.45v8.82c0,1.71,.03,3.5,.08,5.26l4.14,.42v.78h-11.37v-.78l4.37-.42,.06-5.26v-11.7l-3.95,.59v-.9l6.36-1.57Z"/>
      <path class="cls-2" d="M340.21,127.65l2.69,1.06h9.72l1.15-1.37,2.63,2.02c-.17,.22-.62,.48-1.2,.59v19.18c0,1.74-.36,2.83-3.58,3.14-.11-.73-.31-1.32-.76-1.68-.48-.39-1.32-.67-2.8-.9v-.42s3.44,.25,4.12,.25c.59,0,.73-.2,.73-.67v-6.64h-10.75c-.62,3.84-2.41,7.48-7.17,10.08l-.34-.34c4.79-3.86,5.57-8.82,5.57-14.48v-9.83Zm2.27,8.15v1.65c0,1.32-.06,2.66-.22,3.98h10.64v-5.63h-10.42Zm0-6.27v5.46h10.42v-5.46h-10.42Z"/>
      <path class="cls-2" d="M370.15,134.43h-4.82l-.25-.81h5.24l1.15-1.18,2.38,2.1c-.31,.31-.98,.45-1.74,.45-.95,1.4-2.58,3.61-3.72,5.12h2.38l1.32-1.26,2.21,1.96c-.2,.25-.48,.34-1.09,.36-.53,1.76-1.29,3.5-2.3,5.15,2.04,2.66,5.15,3.05,10.42,3.05,2.16,0,7.36,0,9.69-.06v.36c-.9,.17-1.34,.98-1.37,1.93h-8.4c-5.54,0-8.62-.92-10.7-4.73-1.4,2.1-3.28,3.98-5.71,5.4l-.28-.36c3.25-2.74,5.38-6.92,6.33-10.98h-3l-.7,.59-1.76-1.57c.28-.17,.7-.34,1.12-.45,1.12-1.4,2.63-3.53,3.61-5.1Zm-.31-3.25c-.45-1.54-1.99-3.44-3.28-4.51l.28-.22c6.66,1.48,5.26,6.08,3,4.73Zm5.57,17.02h-.34v-15.68l2.24,1.01h4.09l-.08-.08c-.5-1.15-1.68-2.49-3.58-3.64l.22-.39c2.38,.53,3.78,1.23,4.56,1.93,.9-.81,1.93-1.85,2.66-2.72h-10.25l-.25-.81h10.78l1.34-1.26,2.27,2.16c-.22,.2-.56,.22-1.15,.25-1.18,.98-3.22,2.1-4.96,2.91,.48,.67,.39,1.26,.11,1.65h3.42l1.04-1.26,2.49,1.9c-.17,.22-.62,.45-1.18,.53v10.86c0,1.54-.31,2.41-2.72,2.63-.06-.56-.14-1.06-.42-1.37-.28-.25-.78-.5-1.71-.64v-.45s1.82,.17,2.27,.17c.42,0,.5-.14,.5-.53v-2.97h-3.78v4.7c0,.11-.62,.56-1.65,.56h-.31v-5.26h-3.86v5.04c0,.22-.84,.76-1.76,.76Zm5.63-13.86h-3.86v3.08h3.86v-3.08Zm0,3.92h-3.86v3.33h3.86v-3.33Zm5.74-3.92h-3.78v3.08h3.78v-3.08Zm0,3.92h-3.78v3.33h3.78v-3.33Z"/>
      <path class="cls-2" d="M398.89,132.69l2.46,1.06h5.52v-2.83h-10.58l-.25-.81h10.84v-3.67l3.33,.34c-.08,.39-.31,.67-1.04,.78v2.55h6.55l1.57-1.93s1.85,1.32,2.94,2.3c-.08,.31-.36,.45-.78,.45h-10.28v2.83h5.6l1.18-1.32,2.55,1.96c-.2,.22-.62,.45-1.18,.56v8.82c-.03,.2-1.12,.73-1.9,.73h-.36v-1.23h-5.88v3.33h7.36l1.6-1.96s1.79,1.34,2.91,2.32c-.08,.31-.36,.45-.78,.45h-11.09v4.06c0,.28-.95,.81-1.82,.81h-.48v-4.87h-11.37l-.25-.81h11.62v-3.33h-5.71v1.04c0,.22-.98,.76-1.9,.76h-.36v-12.38Zm2.27,1.85v3.44h5.71v-3.44h-5.71Zm5.71,4.26h-5.71v3.67h5.71v-3.67Zm2.3-.81h5.88v-3.44h-5.88v3.44Zm5.88,4.48v-3.67h-5.88v3.67h5.88Z"/>
      <path class="cls-2" d="M435.74,142.07c1.74-.87,2.74-1.68,3.19-3.22-1.74-.81-2.32-1.57-2.32-2.46,0-1.04,.76-1.85,1.9-1.85,.64,0,1.15,.14,1.62,.59,.28,.64,.36,1.06,.36,1.79,0,3.02-1.71,4.93-4.4,5.94l-.36-.78Z"/>
      <path class="cls-2" d="M13.16,169.9l.95-1.46,2.66,1.76c-.31,.36-1.06,.53-2.02,.59,2.04,2.8,7.03,5.91,12.04,7.42l-.03,.34c-1.04,.22-1.88,1.06-2.18,2.04-4.34-2.3-8.62-5.91-10.61-9.83-2.88,4.59-7.95,8.51-13.44,10.86l-.22-.36c4.42-2.6,8.57-6.66,10.61-10.56H5.4l-.25-.81H13.16Zm-.98,22.68v-5.99H4.56l-.22-.81h7.84v-5.26H5.43l-.22-.81h12.6l1.37-1.68s1.57,1.18,2.58,2.04c-.08,.31-.36,.45-.76,.45h-6.5v5.26h4.76l1.4-1.76s1.62,1.26,2.66,2.13c-.08,.31-.36,.45-.73,.45H14.5v5.99h7.06l1.51-1.9s1.71,1.32,2.77,2.27c-.08,.31-.36,.45-.78,.45H1.76l-.25-.81H12.18Z"/>
      <path class="cls-2" d="M32.85,192.7c-.53,.67-1.68,.9-2.13,.22-.36-.59-.03-1.23,.53-1.71,.92-.84,1.88-2.91,1.88-4.9l.48,.03c.73,3.08,.08,5.35-.76,6.36Zm7.64-9.88h4.17l-.28-.03,1.2-1.15,1.74,1.51v-2.88h-3.11v1.12c0,.17-.62,.59-1.65,.59h-.34v-10.98l2.32,.95h1.65c.2-.95,.45-2.52,.59-3.56l3.36,.84c-.14,.39-.5,.59-1.12,.59-.5,.62-1.29,1.48-1.9,2.13h5.15l1.04-1.2,2.18,1.68c-.2,.22-.48,.39-1.04,.5v8.18s-.08,.11-.28,.22l2.3,1.82c-.14,.2-.62,.36-1.09,.14-.9,.67-2.52,1.74-4,2.55,1.6,2.3,3.67,3.7,5.77,4.68l-.03,.31c-.84,.14-1.46,.84-1.74,1.82-2.8-2.1-4.82-4.65-5.96-9.3v7.76c0,1.57-.39,2.72-3.11,2.97-.03-.64-.17-1.2-.56-1.54-.42-.34-1.06-.59-2.32-.78v-.39s2.74,.2,3.28,.2c.48,0,.62-.14,.62-.5v-7.34c-.17,.06-.39,.08-.73,.11-1.23,3.95-3.75,7.34-8.54,9.3l-.25-.39c3.67-2.07,5.71-5.38,6.66-9.1h-3.81c.08,1.32-.87,2.04-1.76,1.2-.03-.5-.11-1.04-.25-1.6-1.51,.5-3.61,1.2-5.8,1.85-.25,.42-.53,.64-.84,.76l-.95-2.72s.62-.11,.84-.28c1.29-1.18,2.86-3.16,4.17-5.21-.92,.31-2.02,.64-3.14,.95-.2,.28-.39,.45-.62,.53l-1.06-2.66s.5-.11,.7-.25c1.43-1.6,3.22-5.57,3.84-7.7l2.91,1.4c-.11,.28-.45,.5-.98,.45-1.12,1.9-3.08,4.51-4.82,6.24h3.84c.84-1.37,1.57-2.69,1.99-3.72l2.69,1.71c-.14,.22-.53,.42-1.06,.31-1.54,2.35-4.45,5.77-7.14,8.12l5.24-.48c-.34-1.06-.81-2.13-1.26-2.91l.39-.14c1.71,1.12,2.58,2.32,2.91,3.33Zm-5.04,8.85c.34-1.85,.08-4.2-.34-5.77l.42-.11c3.58,3.98,1.4,7.73-.08,5.88Zm3.5-2.02c-.08-1.43-.92-3.3-1.71-4.42l.36-.14c4.73,2.46,2.97,6.02,1.34,4.56Zm13.41-13.94v-2.94h-8.15v2.94h8.15Zm0,3.75v-2.91h-8.15v2.91h8.15Zm-1.29,5.91c1.01-1.23,2.18-2.88,2.83-3.92-.31,.11-.73,.22-1.18,.22h-.36v-1.4h-2.94v1.2c.42,1.51,.98,2.8,1.65,3.89Z"/>
      <path class="cls-2" d="M70.16,178.78l1.29-1.29,2.27,2.21c-.2,.2-.5,.28-1.06,.31-.73,1.23-2.1,3.14-3.14,4.28l-.34-.2c.34-1.18,.84-3.11,1.12-4.51h-2.55v11.62c0,1.6-.36,2.8-3.05,3.05-.03-.67-.14-1.23-.5-1.6-.34-.36-.95-.59-2.13-.78v-.39s2.44,.17,2.97,.17c.45,0,.56-.17,.56-.5v-11.56h-4.12l-.25-.81h8.93Zm3.7-5.12l2.32,1.01h1.88c.14-.84,.34-2.1,.45-3.16h-5.6c-.2,.22-.53,.25-1.12,.31-.98,.95-2.72,2.21-4.2,3.16,2.3,1.82,1.26,4.03-.45,3.11-.62-1.65-2.63-3.58-4.31-4.62l.22-.25c1.74,.28,3,.76,3.92,1.32,.76-.95,1.6-2.16,2.18-3.11h-7.06l-.25-.81h7.45l1.32-1.32,2.07,1.99-.17-.62h10.78l1.48-1.85s1.65,1.32,2.69,2.24c-.08,.31-.36,.45-.76,.45h-5.63c-.64,1.12-1.46,2.32-2.16,3.16h4.03l1.12-1.18,2.32,1.82c-.17,.17-.53,.36-.98,.45v12.57c-.03,.2-1.09,.7-1.88,.7h-.34v-1.15h-7.17v.67c0,.25-.9,.73-1.85,.73h-.34v-15.62Zm5.77,16.77c-.14,.22-.45,.28-.92,.14-1.74,1.43-5.12,2.97-8.01,3.75l-.22-.39c2.35-1.26,5.07-3.44,6.36-5.21l2.8,1.71Zm3.58-11.7v-3.22h-7.17v3.22h7.17Zm-7.17,4.14h7.17v-3.3h-7.17v3.3Zm0,4.2h7.17v-3.39h-7.17v3.39Zm8.93,7c-.81-1.71-3.02-3.78-4.73-4.96l.28-.25c7.87,1.43,6.92,6.36,4.45,5.21Z"/>
      <path class="cls-2" d="M105.54,173.77c-.08,.31-.36,.45-.76,.45h-12.71l-.22-.84h9.83l1.34-1.71s1.54,1.2,2.52,2.1Zm-1.4,3.64c-.06,.31-.34,.45-.7,.45h-10.11l-.22-.81h7.39l1.26-1.62s1.48,1.15,2.38,1.99Zm0,3.67c-.06,.31-.34,.45-.7,.45h-10.11l-.22-.81h7.39l1.26-1.62s1.48,1.15,2.38,1.99Zm-10.39,12.77h-.31v-10.33l2.21,.95h4.98l1.12-1.23,2.44,1.88c-.2,.22-.62,.42-1.18,.53v6.64c-.03,.2-1.06,.64-1.76,.64h-.34v-1.46h-5.4v1.71c0,.2-.87,.67-1.76,.67Zm7.17-8.57h-5.4v5.38h5.4v-5.38Zm-3.16-12.54c-.14-1.43-1.09-3.08-1.99-4.06l.28-.17c5.99,1.29,3.92,5.82,1.71,4.23Zm13.44-3.08v8.74h2.32l1.37-1.79s1.57,1.26,2.55,2.16c-.08,.31-.36,.45-.76,.45h-5.49v14.14c0,.31-.92,.84-1.79,.84h-.42v-14.98h-4.62l-.22-.81h4.84v-9.86l3.25,.34c-.08,.39-.31,.67-1.04,.78Z"/>
      <path class="cls-2" d="M135.76,174.38c-.08,.31-.36,.45-.76,.45h-6.92c-.03,1.43-.08,2.83-.2,4.2h3.16l1.2-1.26,2.3,1.93c-.2,.22-.53,.39-1.12,.45-.25,8.18-.81,11.65-2.07,12.85-.76,.73-1.74,1.04-2.83,1.04,0-.64-.08-1.2-.42-1.54-.31-.31-1.04-.56-1.82-.73v-.45c.78,.06,2.1,.17,2.6,.17,.45,0,.67-.06,.92-.31,.78-.73,1.29-4.2,1.48-11.31h-3.47c-.48,5.6-1.76,10.58-5.66,14.45l-.34-.28c3.42-5.49,3.92-12.15,3.84-19.21h-3.3l-.22-.81h9.69l1.37-1.79s1.57,1.26,2.55,2.16Zm-7.31-1.04c-.17-1.6-1.34-3.53-2.44-4.68l.31-.2c6.38,1.9,4.34,6.64,2.13,4.87Zm13.3-3.58c1.09,3.81,3.89,7.25,6.69,9.24l-.06,.31c-.92,.31-1.57,.87-1.76,1.68-2.41-2.41-4.23-6.24-5.26-10.16-1.37,3.72-3.75,7.95-7.08,10.61l-.36-.25c2.74-3.39,4.79-8.79,5.46-12.8l3.44,.73c-.08,.34-.34,.5-1.06,.59v.06Zm2.18,24.22c-1.62-2.38-5.57-5.32-8.51-6.92l.22-.31c11.76,2.41,11.31,8.46,8.29,7.22Zm-1.85-9.86c-.76-1.48-2.72-3.39-4.17-4.51l.25-.25c7.45,1.26,6.36,5.94,3.92,4.76Z"/>
      <path class="cls-2" d="M153.05,190.32c1.82-1.99,3.61-3.98,4.98-5.46,3.08-3.39,4.26-5.35,4.26-7.81s-1.43-4.34-3.89-4.34c-.62,0-1.2,.11-1.85,.31l-.78,2.38c-.28,1.23-.84,1.62-1.48,1.62-.56,0-1.04-.34-1.29-.87,.53-2.77,3.16-4.34,6.24-4.34,3.89,0,5.85,2.13,5.85,5.29,0,2.58-1.74,4.76-6.27,8.71-.84,.78-2.44,2.32-4.06,3.95h11.09v2.24h-12.8v-1.68Z"/>
      <path class="cls-2" d="M183.94,182.17c0,7.28-3.11,10.25-6.47,10.25s-6.5-2.97-6.5-10.25,3.08-10.36,6.5-10.36,6.47,3.05,6.47,10.36Zm-6.47,9.35c1.93,0,3.81-2.18,3.81-9.35s-1.88-9.46-3.81-9.46-3.81,2.21-3.81,9.46,1.82,9.35,3.81,9.35Z"/>
      <path class="cls-2" d="M189.24,190.32c1.82-1.99,3.61-3.98,4.98-5.46,3.08-3.39,4.26-5.35,4.26-7.81s-1.43-4.34-3.89-4.34c-.62,0-1.2,.11-1.85,.31l-.78,2.38c-.28,1.23-.84,1.62-1.48,1.62-.56,0-1.04-.34-1.29-.87,.53-2.77,3.16-4.34,6.24-4.34,3.89,0,5.85,2.13,5.85,5.29,0,2.58-1.74,4.76-6.27,8.71-.84,.78-2.44,2.32-4.06,3.95h11.09v2.24h-12.8v-1.68Z"/>
      <path class="cls-2" d="M212.1,181.19c2.69,0,4.56-1.54,4.56-4.45,0-2.55-1.34-4.03-3.75-4.03-.59,0-1.18,.08-1.79,.28l-.64,2.27c-.28,1.01-.78,1.37-1.51,1.37-.5,0-.95-.22-1.15-.76,.42-2.83,2.97-4.06,5.77-4.06,3.72,0,5.8,2.02,5.8,4.87,0,2.3-1.51,4.2-4.7,4.93,3.7,.5,5.32,2.44,5.32,5.21,0,3.33-2.74,5.6-6.83,5.6-3.39,0-5.49-1.43-6.02-4.14,.2-.64,.7-.95,1.26-.95,.76,0,1.2,.42,1.46,1.62l.64,2.27c.56,.2,1.18,.31,1.88,.31,3.11,0,4.82-1.76,4.82-4.68s-1.68-4.68-4.96-4.68h-1.23v-.98h1.09Z"/>
      <path class="cls-2" d="M235.32,169.34c-.14,.31-.48,.53-1.12,.48-.5,.98-1.06,1.9-1.62,2.8h12.82l1.57-1.93s1.76,1.32,2.88,2.32c-.08,.31-.36,.45-.73,.45h-8.65v5.29h4.31l1.48-1.82s1.65,1.26,2.69,2.18c-.06,.31-.34,.45-.76,.45h-7.73v6.58h5.85l1.6-1.96s1.79,1.37,2.91,2.32c-.06,.31-.36,.45-.78,.45h-9.58v6.58c-.03,.17-.78,.73-2.02,.73h-.42v-7.31h-12.8l-.25-.81h4.9v-8.48l2.69,1.09h5.46v-5.29h-6.05c-1.99,2.77-4.31,5.01-6.78,6.58l-.34-.31c2.6-2.63,5.4-7.06,7.08-11.73l3.36,1.34Zm2.72,10.22h-5.82v6.58h5.82v-6.58Z"/>
      <path class="cls-2" d="M260.42,182.45c-2.83-1.4-4.09-3.28-4.09-5.52,0-3.11,2.58-5.12,5.91-5.12,3.53,0,5.52,1.96,5.52,4.59,0,1.76-1.09,3.5-4.09,4.87,3.44,1.6,4.9,3.42,4.9,5.94,0,3.14-2.55,5.21-6.61,5.21s-6.19-1.88-6.19-4.68c0-2.35,1.62-3.98,4.65-5.29Zm-2.32,4.93c0,2.63,1.51,4.14,4.03,4.14s3.98-1.43,3.98-3.67c0-1.96-1.26-3.44-5.04-5.1-2.02,1.37-2.97,2.63-2.97,4.62Zm7.45-10.92c0-2.07-1.2-3.75-3.36-3.75-1.85,0-3.53,1.34-3.53,3.44,0,1.76,.95,3.3,4.37,4.84,1.76-1.32,2.52-2.72,2.52-4.54Z"/>
      <path class="cls-2" d="M279.28,169.65l2.69,1.06h9.72l1.15-1.37,2.63,2.02c-.17,.22-.62,.48-1.2,.59v19.18c0,1.74-.36,2.83-3.58,3.14-.11-.73-.31-1.32-.76-1.68-.48-.39-1.32-.67-2.8-.9v-.42s3.44,.25,4.12,.25c.59,0,.73-.2,.73-.67v-6.64h-10.75c-.62,3.84-2.41,7.48-7.17,10.08l-.34-.34c4.79-3.86,5.57-8.82,5.57-14.48v-9.83Zm2.27,8.15v1.65c0,1.32-.06,2.66-.22,3.98h10.64v-5.63h-10.42Zm0-6.27v5.46h10.42v-5.46h-10.42Z"/>
      <path class="cls-2" d="M309.02,176.96v16.55c-.03,.2-.95,.73-1.82,.73h-.42v-14.45c-.87,1.2-1.82,2.32-2.8,3.28l-.39-.28c2.21-3.47,4.51-8.99,5.71-14.34l3.5,1.04c-.11,.34-.45,.59-1.09,.56-.76,2.16-1.65,4.23-2.66,6.1l.81,.31c-.08,.25-.34,.45-.84,.5Zm7.92-4.98c-1.54,4.56-4,8.04-7.14,10.19l-.36-.28c2.41-2.66,4.51-6.86,5.49-11.59l3.14,1.18c-.14,.34-.48,.56-1.12,.5Zm7.76,6.83l2.32,1.9c-.22,.22-.56,.36-1.15,.45-.22,7.31-.78,10.89-1.99,12.04-.73,.73-1.76,1.04-2.94,1.04,0-.64-.08-1.15-.45-1.48-.36-.34-1.26-.59-2.18-.76v-.45c.98,.06,2.58,.2,3.08,.2s.73-.08,.98-.28c.76-.73,1.2-4.26,1.4-10.58h-5.04c-.31,5.01-1.32,9.97-8.4,13.47l-.34-.42c5.66-3.86,6.19-8.57,6.33-13.05h-3.61l-.25-.81h11.06l1.18-1.26Zm-2.35-10.25l2.49,1.71c-.31,.36-1.09,.56-1.99,.62,1.09,3.14,3.78,6.27,7.25,7.98l-.06,.34c-.92,.22-1.71,.98-1.99,1.85-3.08-2.44-5.1-6.08-5.96-10.28h-3.11l-.25-.84h2.72l.9-1.37Z"/>
      <path class="cls-2" d="M359.43,182.59c-.06,.31-.34,.45-.73,.45h-7.67v7.84c0,.42,.14,.56,1.15,.56h2.77c1.18,0,2.16-.03,2.55-.06,.34-.03,.45-.11,.59-.39,.25-.5,.62-2.02,1.01-3.72h.34l.06,3.86c.73,.25,.9,.53,.9,.98,0,.95-.95,1.4-5.54,1.4h-3.08c-2.44,0-2.97-.48-2.97-2.16v-8.32h-3.7c-.5,4.96-1.76,8.9-10.56,11.28l-.28-.42c6.92-2.88,8.04-6.64,8.34-10.86h-6.86l-.22-.81h19.74l1.48-1.76s1.65,1.23,2.69,2.13Zm-21.06-9.63h17.98l1.37-1.4,2.49,2.38c-.22,.2-.53,.25-1.09,.28-.87,.98-2.44,2.3-3.61,3.11l-.34-.22c.42-.9,.92-2.27,1.26-3.33h-17.98c.08,1.9-.67,3.19-1.54,3.75-.78,.56-2.02,.45-2.35-.42-.28-.78,.2-1.46,.92-1.85,1.06-.59,2.18-2.1,2.07-3.81l.45-.03c.17,.56,.31,1.06,.36,1.54Zm16.77,4.96c-.08,.31-.36,.45-.76,.45h-14.84l-.22-.81h11.79l1.43-1.68s1.6,1.15,2.6,2.04Zm-8.06-5.54c-.11-1.32-1.04-2.88-2.07-3.75l.28-.2c6.3,.92,4.14,5.68,1.79,3.95Z"/>
      <path class="cls-2" d="M376.41,191.16v-17.67h-9.52l-.22-.81h17.58l1.65-2.04s1.82,1.4,2.94,2.41c-.08,.31-.36,.45-.78,.45h-9.24v17.67h7.25l1.62-2.07s1.85,1.43,2.97,2.44c-.08,.31-.34,.45-.76,.45h-24.89l-.25-.81h11.65Z"/>
      <path class="cls-2" d="M408.57,190.04c-1.09-.39-2.55-.9-2.55-2.44,0-.95,.7-1.82,1.93-1.82s2.16,1.06,2.16,2.6c0,2.21-1.01,4.98-3.98,6.3l-.45-.76c2.13-1.06,2.8-2.74,2.88-3.89Zm-.48-12.46c-1.15,0-2.04-.9-2.04-2.02s.9-2.02,2.04-2.02,1.99,.92,1.99,2.02-.87,2.02-1.99,2.02Z"/>
      <path class="cls-2" d="M435.24,175.45c-.08,.31-.34,.45-.73,.45h-2.94v2.3c5.32,2.44,3.47,6.08,1.68,4.56-.2-1.18-.92-2.66-1.68-3.78v14.53c0,.28-.9,.81-1.65,.81h-.45v-12.43c-.92,2.16-2.16,4.12-3.67,5.88l-.42-.36c1.9-3.19,3.05-7.39,3.7-11.51h-3.33l-.22-.81h3.95v-6.75l3.11,.34c-.06,.42-.28,.67-1.01,.78v5.63h.25l1.18-1.65s1.4,1.15,2.24,2.02Zm5.66-5.8v12.35c-.06,5.74-1.88,9.72-7.73,12.29l-.31-.36c4.51-2.72,5.99-6.33,6.05-11.65-.81,1.04-1.9,2.35-3.19,3.84,.03,.31-.14,.67-.39,.84l-1.65-2.27c.95-.5,3.08-1.85,5.24-3.3v-12.82l2.97,.31c-.06,.39-.28,.67-.98,.78Zm-4.09,8.99c-.14-1.71-1.15-3.92-2.04-5.35l.36-.17c5.4,3.19,3.5,7.2,1.68,5.52Zm8.57-8.93v7.56c1.04-1.57,2.13-3.44,2.66-4.54l2.66,1.74c-.14,.25-.53,.48-1.09,.28-.9,.95-2.6,2.44-4.23,3.64v2.32c6.44,2.6,4.87,6.94,2.74,5.38-.36-1.46-1.57-3.16-2.74-4.51v9.1c0,.56,.14,.78,.84,.78h1.37c.62,0,1.12,0,1.4-.03,.2-.03,.31-.08,.45-.28,.2-.31,.56-1.82,.78-3.05h.34l.11,3.14c.64,.31,.84,.5,.84,.92,0,.87-.9,1.23-4,1.23l-1.79-.03c-1.9,0-2.35-.59-2.35-2.1v-22.68l3.02,.36c-.06,.36-.31,.64-1.01,.76Z"/>
      <path class="cls-2" d="M11.23,228.31v5.68h-2.46v-5.68H.36v-1.51l9.02-12.74h1.85v12.35h3.28v1.9h-3.28Zm-2.46-1.9v-10l-7.06,10h7.06Z"/>
      <path class="cls-2" d="M18.93,232.32c1.82-1.99,3.61-3.98,4.98-5.46,3.08-3.39,4.26-5.35,4.26-7.81s-1.43-4.34-3.89-4.34c-.62,0-1.2,.11-1.85,.31l-.78,2.38c-.28,1.23-.84,1.62-1.48,1.62-.56,0-1.04-.34-1.29-.87,.53-2.77,3.16-4.34,6.24-4.34,3.89,0,5.85,2.13,5.85,5.29,0,2.58-1.74,4.76-6.27,8.71-.84,.78-2.44,2.32-4.06,3.95h11.09v2.24h-12.8v-1.68Z"/>
      <path class="cls-2" d="M38.4,234.7c-.53,.67-1.68,.9-2.13,.22-.36-.59-.03-1.23,.53-1.71,.92-.84,1.88-2.91,1.88-4.9l.48,.03c.73,3.08,.08,5.35-.76,6.36Zm7.64-9.88h4.17l-.28-.03,1.2-1.15,1.74,1.51v-2.88h-3.11v1.12c0,.17-.62,.59-1.65,.59h-.34v-10.98l2.32,.95h1.65c.2-.95,.45-2.52,.59-3.56l3.36,.84c-.14,.39-.5,.59-1.12,.59-.5,.62-1.29,1.48-1.9,2.13h5.15l1.04-1.2,2.18,1.68c-.2,.22-.48,.39-1.04,.5v8.18s-.08,.11-.28,.22l2.3,1.82c-.14,.2-.62,.36-1.09,.14-.9,.67-2.52,1.74-4,2.55,1.6,2.3,3.67,3.7,5.77,4.68l-.03,.31c-.84,.14-1.46,.84-1.74,1.82-2.8-2.1-4.82-4.65-5.96-9.3v7.76c0,1.57-.39,2.72-3.11,2.97-.03-.64-.17-1.2-.56-1.54-.42-.34-1.06-.59-2.32-.78v-.39s2.74,.2,3.28,.2c.48,0,.62-.14,.62-.5v-7.34c-.17,.06-.39,.08-.73,.11-1.23,3.95-3.75,7.34-8.54,9.3l-.25-.39c3.67-2.07,5.71-5.38,6.66-9.1h-3.81c.08,1.32-.87,2.04-1.76,1.2-.03-.5-.11-1.04-.25-1.6-1.51,.5-3.61,1.2-5.8,1.85-.25,.42-.53,.64-.84,.76l-.95-2.72s.62-.11,.84-.28c1.29-1.18,2.86-3.16,4.17-5.21-.92,.31-2.02,.64-3.14,.95-.2,.28-.39,.45-.62,.53l-1.06-2.66s.5-.11,.7-.25c1.43-1.6,3.22-5.57,3.84-7.7l2.91,1.4c-.11,.28-.45,.5-.98,.45-1.12,1.9-3.08,4.51-4.82,6.24h3.84c.84-1.37,1.57-2.69,1.99-3.72l2.69,1.71c-.14,.22-.53,.42-1.06,.31-1.54,2.35-4.45,5.77-7.14,8.12l5.24-.48c-.34-1.06-.81-2.13-1.26-2.91l.39-.14c1.71,1.12,2.58,2.32,2.91,3.33Zm-5.04,8.85c.34-1.85,.08-4.2-.34-5.77l.42-.11c3.58,3.98,1.4,7.73-.08,5.88Zm3.5-2.02c-.08-1.43-.92-3.3-1.71-4.42l.36-.14c4.73,2.46,2.97,6.02,1.34,4.56Zm13.41-13.94v-2.94h-8.15v2.94h8.15Zm0,3.75v-2.91h-8.15v2.91h8.15Zm-1.29,5.91c1.01-1.23,2.18-2.88,2.83-3.92-.31,.11-.73,.22-1.18,.22h-.36v-1.4h-2.94v1.2c.42,1.51,.98,2.8,1.65,3.89Z"/>
      <path class="cls-2" d="M75.27,239.4l-.56,.5c-4.37-4.28-6.5-8.76-6.5-14.45s2.13-10.16,6.5-14.45l.56,.5c-3.75,5.04-4.82,8.71-4.82,13.94s1.18,8.96,4.82,13.94Z"/>
      <path class="cls-2" d="M85.3,211.65l2.69,1.06h9.72l1.15-1.37,2.63,2.02c-.17,.22-.62,.48-1.2,.59v19.18c0,1.74-.36,2.83-3.58,3.14-.11-.73-.31-1.32-.76-1.68-.48-.39-1.32-.67-2.8-.9v-.42s3.44,.25,4.12,.25c.59,0,.73-.2,.73-.67v-6.64h-10.75c-.62,3.84-2.41,7.48-7.17,10.08l-.34-.34c4.79-3.86,5.57-8.82,5.57-14.48v-9.83Zm2.27,8.15v1.65c0,1.32-.06,2.66-.22,3.98h10.64v-5.63h-10.42Zm0-6.27v5.46h10.42v-5.46h-10.42Z"/>
      <path class="cls-2" d="M119.47,217.45c-.08,.31-.34,.45-.73,.45h-2.94v2.3c5.32,2.44,3.47,6.08,1.68,4.56-.2-1.18-.92-2.66-1.68-3.78v14.53c0,.28-.9,.81-1.65,.81h-.45v-12.43c-.92,2.16-2.16,4.12-3.67,5.88l-.42-.36c1.9-3.19,3.05-7.39,3.7-11.51h-3.33l-.22-.81h3.95v-6.75l3.11,.34c-.06,.42-.28,.67-1.01,.78v5.63h.25l1.18-1.65s1.4,1.15,2.24,2.02Zm5.66-5.8v12.35c-.06,5.74-1.88,9.72-7.73,12.29l-.31-.36c4.51-2.72,5.99-6.33,6.05-11.65-.81,1.04-1.9,2.35-3.19,3.84,.03,.31-.14,.67-.39,.84l-1.65-2.27c.95-.5,3.08-1.85,5.24-3.3v-12.82l2.97,.31c-.06,.39-.28,.67-.98,.78Zm-4.09,8.99c-.14-1.71-1.15-3.92-2.04-5.35l.36-.17c5.4,3.19,3.5,7.2,1.68,5.52Zm8.57-8.93v7.56c1.04-1.57,2.13-3.44,2.66-4.54l2.66,1.74c-.14,.25-.53,.48-1.09,.28-.9,.95-2.6,2.44-4.23,3.64v2.32c6.44,2.6,4.87,6.94,2.74,5.38-.36-1.46-1.57-3.16-2.74-4.51v9.1c0,.56,.14,.78,.84,.78h1.37c.62,0,1.12,0,1.4-.03,.2-.03,.31-.08,.45-.28,.2-.31,.56-1.82,.78-3.05h.34l.11,3.14c.64,.31,.84,.5,.84,.92,0,.87-.9,1.23-4,1.23l-1.79-.03c-1.9,0-2.35-.59-2.35-2.1v-22.68l3.02,.36c-.06,.36-.31,.64-1.01,.76Z"/>
      <path class="cls-2" d="M141.42,211.43l2.35,.98h3.84l1.09-1.18,2.38,1.79c-.17,.22-.59,.45-1.15,.56v6.75c-.03,.17-1.06,.56-1.71,.56h-.34v-.92h-.95v4.42h.9l1.23-1.76s1.43,1.23,2.27,2.13c-.08,.31-.34,.45-.73,.45h-3.67v6.3l4.42-1.06,.08,.36c-2.32,1.09-5.57,2.55-10,4.28-.11,.34-.39,.62-.67,.7l-1.06-2.69,1.74-.34v-9.91l2.6,.28c-.03,.28-.25,.53-.78,.59v8.65l1.62-.39v-12.01h-1.46v.67c0,.14-.67,.64-1.71,.64h-.31v-9.86Zm2.02,1.79v5.94h4.45v-5.94h-4.45Zm14.92-1.76c-.14,.34-.48,.59-1.06,.53-.25,.64-.56,1.23-.84,1.82h3.86l1.37-1.29,2.21,2.04c-.2,.25-.5,.34-1.15,.36-.92,2.1-2.18,4.09-3.78,5.82,1.93,1.51,4.34,2.63,7.36,3.39l-.08,.31c-.87,.25-1.48,.84-1.68,1.93-.98-.39-1.9-.81-2.72-1.29l2.13,1.62c-.2,.22-.48,.39-1.06,.5v8.37c0,.14-.78,.59-1.85,.59h-.39v-1.9h-6.33v1.37c0,.17-.67,.62-1.76,.62h-.36v-10.5c-1.01,.48-2.07,.92-3.19,1.32l-.25-.42c3.19-1.51,5.91-3.58,7.98-6.05-.87-1.15-1.6-2.44-2.18-3.81-1.2,1.57-2.58,2.88-4.06,3.86l-.39-.31c2.1-2.24,4.06-5.96,5.1-9.97l3.14,1.06Zm-5.57,14.03l1.9,.76h5.91l1.06-1.23c-1.51-.9-2.77-1.93-3.84-3.08-1.43,1.34-3.11,2.55-5.04,3.56Zm7.9,7.98v-6.41h-6.33v6.41h6.33Zm-4.68-18.84c-.34,.56-.64,1.09-1.01,1.57,.7,1.26,1.57,2.38,2.6,3.39,1.15-1.54,2.07-3.22,2.74-4.96h-4.34Z"/>
      <path class="cls-2" d="M170.24,211.51l.56-.5c4.34,4.28,6.5,8.76,6.5,14.45s-2.16,10.16-6.5,14.45l-.56-.5c3.72-5.01,4.82-8.71,4.82-13.94s-1.18-8.96-4.82-13.94Z"/>
      <path class="cls-2" d="M187.1,223.69v-5.96h-3.7l-.22-.84h3.92v-6.44l3.19,.31c-.06,.42-.34,.7-1.04,.78v5.35h.62l1.23-1.74s1.43,1.23,2.24,2.13c-.08,.31-.36,.45-.73,.45h-3.36v5.29l4.03-1.23,.11,.36-4.14,2.3v8.85c0,1.68-.31,2.69-3.02,2.97-.06-.7-.2-1.26-.53-1.62-.39-.36-.95-.59-2.07-.76v-.42s2.41,.17,2.88,.17,.59-.14,.59-.53v-7.5l-2.69,1.37c-.08,.34-.34,.62-.62,.73l-1.01-2.83c.87-.2,2.41-.64,4.31-1.18Zm17.89-10.5l1.51-1.96s1.71,1.37,2.74,2.32c-.06,.31-.34,.45-.76,.45h-7.95c-.7,2.8-1.76,5.57-3.22,8.18l.64,.25h6.86l1.2-1.34,2.58,2.02c-.2,.22-.64,.48-1.23,.59v11.68c-.03,.17-1.15,.67-1.93,.67h-.34v-2.38h-7.5v1.9c0,.17-.7,.73-1.79,.73h-.39v-11.12c-1.51,2.07-3.28,3.98-5.32,5.54l-.34-.31c4.09-4.4,7.03-10.64,8.01-16.41h-5.88l-.22-.81h13.33Zm.11,10.05h-7.5v9.6h7.5v-9.6Z"/>
      <path class="cls-2" d="M217.12,213.42h18.93l1.23-1.23,2.24,2.16c-.2,.17-.53,.22-1.06,.25-.62,.62-1.76,1.43-2.63,1.85l-.14-.08,1.32,1.15c-.08,.31-.34,.45-.73,.45h-5.96v1.4c0,.14-.9,.45-1.62,.45h-.45v-5.07l2.94,.31c-.06,.31-.28,.56-.87,.62v1.48h3.33l1.18-1.48,.67,.56c.22-.53,.48-1.29,.67-1.96h-18.96c.03,1.29-.5,2.18-1.18,2.58-.7,.39-1.68,.28-1.96-.48-.22-.7,.22-1.29,.87-1.6,.81-.39,1.51-1.48,1.37-2.6h.48c.17,.45,.28,.87,.34,1.26Zm1.23,17.39h-.34v-11.54l2.38,1.04h11.68l1.12-1.23,2.41,1.85c-.17,.2-.56,.42-1.04,.5v8.15c-.03,.17-1.15,.64-1.88,.64h-.36v-.78h-2.66v4.09c0,.36,.11,.45,1.12,.45h2.86c1.15,0,2.16,0,2.55-.03,.36-.03,.48-.11,.62-.36,.25-.42,.56-1.65,.92-3.11h.36l.08,3.22c.67,.22,.84,.48,.84,.84,0,.9-.87,1.18-5.52,1.18h-3.14c-2.44,0-2.88-.42-2.88-1.88v-4.4h-2.58c-.67,3.22-2.27,5.6-10.5,7.08l-.28-.42c6.61-1.76,7.98-4.06,8.46-6.66h-2.38v.67c0,.2-.92,.7-1.85,.7Zm5.99-15.2v3.78c0,.14-.87,.36-1.6,.36h-.45v-1.93h-5.54l-.25-.84h5.8v-2.3l2.91,.31c-.08,.34-.28,.56-.87,.62Zm-4.14,5.52v1.96h12.12v-1.96h-12.12Zm0,4.73h12.12v-1.96h-12.12v1.96Zm0,2.74h12.12v-1.9h-12.12v1.9Zm5.46-15.54c-.06-1.01-.7-2.16-1.34-2.83l.28-.17c5.26,.67,3.05,4.54,1.06,3Zm8.04,20.36c-.42-.92-1.65-2.02-2.66-2.58l.25-.25c5.24,.03,4.34,3.75,2.41,2.83Z"/>
      <path class="cls-2" d="M257.58,215.77c-.08,.31-.36,.45-.76,.45h-12.71l-.22-.84h9.83l1.34-1.71s1.54,1.2,2.52,2.1Zm-1.4,3.64c-.06,.31-.34,.45-.7,.45h-10.11l-.22-.81h7.39l1.26-1.62s1.48,1.15,2.38,1.99Zm0,3.67c-.06,.31-.34,.45-.7,.45h-10.11l-.22-.81h7.39l1.26-1.62s1.48,1.15,2.38,1.99Zm-10.39,12.77h-.31v-10.33l2.21,.95h4.98l1.12-1.23,2.44,1.88c-.2,.22-.62,.42-1.18,.53v6.64c-.03,.2-1.06,.64-1.76,.64h-.34v-1.46h-5.4v1.71c0,.2-.87,.67-1.76,.67Zm7.17-8.57h-5.4v5.38h5.4v-5.38Zm-3.16-12.54c-.14-1.43-1.09-3.08-1.99-4.06l.28-.17c5.99,1.29,3.92,5.82,1.71,4.23Zm13.44-3.08v8.74h2.32l1.37-1.79s1.57,1.26,2.55,2.16c-.08,.31-.36,.45-.76,.45h-5.49v14.14c0,.31-.92,.84-1.79,.84h-.42v-14.98h-4.62l-.22-.81h4.84v-9.86l3.25,.34c-.08,.39-.31,.67-1.04,.78Z"/>
      <path class="cls-2" d="M280.68,217.98v-1.93h-6.44l-.22-.81h6.66v-1.93h-4.9l-.22-.81h5.12v-2.02l2.97,.31c-.08,.36-.31,.62-.92,.73v.98h3.14l1.04-1.12,2.27,1.71c-.17,.2-.56,.39-1.04,.5v1.65h.42l1.04-1.37s1.18,.98,1.88,1.74c-.06,.31-.34,.45-.7,.45h-2.63v2.6c-.03,.2-1.04,.7-1.71,.7h-.28v-.56h-3.42v1.76h3.78l1.09-1.34s1.26,.95,2.04,1.71c-.06,.31-.34,.45-.7,.45h-6.22v1.76h4.09l1.2-1.51s1.37,1.06,2.24,1.88c-.08,.28-.34,.42-.73,.42h-15.26l-.22-.78h6.64v-1.76h-5.63l-.22-.81h5.85v-1.76h-5.1l-.25-.81h5.35Zm9.49,14.81l.03,.48c-3.22,.67-7.73,1.46-14.17,2.44-.17,.36-.45,.53-.76,.59l-1.2-2.77c2.83-.03,9.27-.34,16.1-.73Zm-14.48-8.37l2.32,.98h7.84l1.06-1.15,2.32,1.76c-.17,.2-.59,.42-1.06,.53v5.12c-.03,.2-1.06,.62-1.74,.62h-.31v-.73h-8.46v.42c0,.17-.64,.64-1.68,.64h-.31v-8.2Zm1.99,1.79v1.82h3.16v-1.82h-3.16Zm0,2.63v1.9h3.16v-1.9h-3.16Zm8.46-13.61v-1.93h-3.42v1.93h3.42Zm-3.42,2.74h3.42v-1.93h-3.42v1.93Zm.06,10.05h3.36v-1.82h-3.36v1.82Zm0,2.72h3.36v-1.9h-3.36v1.9Zm11.96-17.44c-.08,.39-.28,.64-.98,.76v15.4c0,.22-.87,.7-1.65,.7h-.36v-17.16l3,.31Zm4.96-2.02c-.08,.39-.36,.67-1.04,.76v21.25c0,1.68-.36,2.69-3.16,2.97-.06-.67-.22-1.2-.64-1.57-.39-.36-1.09-.62-2.35-.78v-.45s2.86,.22,3.42,.22c.5,0,.64-.17,.64-.59v-22.15l3.14,.34Z"/>
      <path class="cls-2" d="M316.67,236.29h-.36v-6.86c-2.94,2.63-7.11,4.59-11.87,5.85l-.2-.45c4.45-1.71,8.37-4.37,10.78-7.25h-5.32l-.95,1.06-2.27-1.62c.28-.2,.7-.39,1.09-.56,.34-1.46,.73-3.67,.87-4.96l2.55,1.2h5.32v-3.25h-9.49l-.25-.81h17.98l1.09-1.18,2.44,1.79c-.17,.2-.56,.42-1.06,.5v4.17c-.03,.2-1.12,.67-1.85,.67h-.36v-1.06h-6.22v3.22h7.42l1.2-1.2,2.32,1.9c-.2,.22-.53,.34-1.09,.42-.28,2.88-.87,4.68-1.96,5.4-.67,.42-1.62,.64-2.74,.64,0-.59-.08-1.15-.48-1.48-.36-.34-1.2-.56-2.16-.73v-.45c.95,.08,2.63,.2,3.16,.2,.45,0,.64-.03,.87-.2,.42-.34,.81-1.65,1.06-3.7h-7.62v8.06c0,.14-.73,.64-1.9,.64Zm-5.77-24.47c-.25,.53-.53,1.04-.84,1.54h4.23l1.2-1.54s1.37,1.09,2.21,1.9c-.08,.31-.36,.45-.7,.45h-7.45c-1.43,2.07-3.14,3.72-4.96,4.82l-.34-.28c1.82-1.9,3.58-5.04,4.56-8.46l3.14,1.06c-.11,.28-.45,.53-1.06,.5Zm5.4,14.95v-3.22h-5.99l-.64,3.22h6.64Zm-3.95-8.96c-.2-1.01-1.15-2.21-2.02-2.86l.28-.22c5.1,.64,3.58,4.31,1.74,3.08Zm9.58-5.94c-.25,.5-.53,.98-.84,1.46h5.38l1.34-1.68s1.51,1.18,2.44,2.07c-.06,.31-.31,.45-.7,.45h-8.99c-1.12,1.57-2.41,2.88-3.72,3.81l-.39-.28c1.32-1.76,2.66-4.56,3.44-7.45l3.11,1.15c-.14,.28-.48,.53-1.06,.48Zm2.86,10.84v-3.25h-6.22v3.25h6.22Zm-1.06-5.04c-.22-.98-1.18-2.13-2.04-2.72l.25-.22c5.15,.36,3.75,4.14,1.79,2.94Z"/>
      <path class="cls-2" d="M355.45,231.34l1.76-2.3s1.99,1.57,3.22,2.66c-.08,.31-.39,.45-.78,.45h-24.47l-.25-.81h20.52Zm-2.63-15.65l1.68-2.18s1.96,1.51,3.14,2.58c-.08,.28-.39,.42-.76,.42h-19.07l-.22-.81h15.23Z"/>
      <path class="cls-2" d="M374.47,217.5c-.08,.31-.34,.45-.73,.45h-3.14v2.16c5.18,2.38,3.44,5.85,1.74,4.42-.2-1.18-.98-2.69-1.74-3.78v14.7c0,.25-.9,.78-1.62,.78h-.42v-12.32c-.87,2.13-2.02,4.06-3.44,5.8l-.42-.36c1.82-3.19,2.88-7.31,3.47-11.4h-2.91l-.22-.81h3.53v-6.78l3.05,.31c-.06,.42-.28,.67-1.01,.78v5.68h.45l1.2-1.68s1.4,1.2,2.21,2.04Zm4.51,13.33c-1.2,1.62-3.33,3.47-5.68,4.59l-.31-.36c1.79-1.6,3.42-4.14,4.17-5.96l2.86,1.43c-.14,.28-.39,.42-1.04,.31Zm11.82-18.23c-.06,.31-.34,.45-.76,.45h-5.29v2.88h2.04l1.09-1.18,2.41,1.82c-.2,.22-.64,.42-1.2,.53v5.04c-.03,.17-1.04,.56-1.68,.56h-.34v-.92h-10.39v.98c0,.2-.87,.62-1.65,.62h-.31v-8.37l2.13,.92h2.13v-2.88h-5.04l-.22-.81h13.19l1.37-1.74s1.57,1.2,2.52,2.1Zm.2,15.2c-.08,.31-.36,.45-.76,.45h-7.03v7.45c0,.11-.7,.56-1.82,.56h-.36v-8.01h-6.94l-.22-.81h13.24l1.34-1.68s1.57,1.18,2.55,2.04Zm-1.71-3.28c-.08,.31-.36,.45-.76,.45h-12.8l-.22-.81h9.91l1.34-1.62s1.54,1.15,2.52,1.99Zm-12.6-7.78v4.23h2.3v-4.23h-2.3Zm6.3-3.7h-2.24v2.88h2.24v-2.88Zm-2.24,3.7v4.23h2.24v-4.23h-2.24Zm7.92,18c-.64-1.71-2.72-3.75-4.31-4.93l.28-.25c7.62,1.76,6.38,6.52,4.03,5.18Zm-3.92-13.78h2.32v-4.23h-2.32v4.23Z"/>
      <path class="cls-2" d="M414.32,212.88l1.2-1.37,2.69,2.07c-.2,.25-.67,.5-1.29,.62v9.44c-.03,.2-1.18,.73-1.96,.73h-.34v-2.27h-13.97v9.66c0,1.15,1.01,1.43,3.02,1.43h10.39c2.04,0,2.86-.14,3.3-.95,.42-.76,1.09-3.11,1.46-4.82h.34l.03,5.1c1.09,.34,1.46,.5,1.46,.98,0,1.09-1.26,1.85-6.44,1.85h-10.39c-3.61,0-5.43-.84-5.43-3.64v-14.7l3.19,.31c-.08,.39-.28,.64-.92,.7v3.28h13.97v-7.59h-17.61l-.25-.81h17.56Z"/>
      <path class="cls-2" d="M439.18,216.38c-.08,.31-.36,.45-.76,.45h-6.92c-.03,1.43-.08,2.83-.2,4.2h3.16l1.2-1.26,2.3,1.93c-.2,.22-.53,.39-1.12,.45-.25,8.18-.81,11.65-2.07,12.85-.76,.73-1.74,1.04-2.83,1.04,0-.64-.08-1.2-.42-1.54-.31-.31-1.04-.56-1.82-.73v-.45c.78,.06,2.1,.17,2.6,.17,.45,0,.67-.06,.92-.31,.78-.73,1.29-4.2,1.48-11.31h-3.47c-.48,5.6-1.76,10.58-5.66,14.45l-.34-.28c3.42-5.49,3.92-12.15,3.84-19.21h-3.3l-.22-.81h9.69l1.37-1.79s1.57,1.26,2.55,2.16Zm-7.31-1.04c-.17-1.6-1.34-3.53-2.44-4.68l.31-.2c6.38,1.9,4.34,6.64,2.13,4.87Zm13.3-3.58c1.09,3.81,3.89,7.25,6.69,9.24l-.06,.31c-.92,.31-1.57,.87-1.76,1.68-2.41-2.41-4.23-6.24-5.26-10.16-1.37,3.72-3.75,7.95-7.08,10.61l-.36-.25c2.74-3.39,4.79-8.79,5.46-12.8l3.44,.73c-.08,.34-.34,.5-1.06,.59v.06Zm2.18,24.22c-1.62-2.38-5.57-5.32-8.51-6.92l.22-.31c11.76,2.41,11.31,8.46,8.29,7.22Zm-1.85-9.86c-.76-1.48-2.72-3.39-4.17-4.51l.25-.25c7.45,1.26,6.36,5.94,3.92,4.76Z"/>
      <path class="cls-2" d="M.95,274.32c1.82-1.99,3.61-3.98,4.98-5.46,3.08-3.39,4.26-5.35,4.26-7.81s-1.43-4.34-3.89-4.34c-.62,0-1.2,.11-1.85,.31l-.78,2.38c-.28,1.23-.84,1.62-1.48,1.62-.56,0-1.04-.34-1.29-.87,.53-2.77,3.16-4.34,6.24-4.34,3.89,0,5.85,2.13,5.85,5.29,0,2.58-1.74,4.76-6.27,8.71-.84,.78-2.44,2.32-4.06,3.95H13.75v2.24H.95v-1.68Z"/>
      <path class="cls-2" d="M31.85,266.17c0,7.28-3.11,10.25-6.47,10.25s-6.5-2.97-6.5-10.25,3.08-10.36,6.5-10.36,6.47,3.05,6.47,10.36Zm-6.47,9.35c1.93,0,3.81-2.18,3.81-9.35s-1.88-9.46-3.81-9.46-3.81,2.21-3.81,9.46,1.82,9.35,3.81,9.35Z"/>
      <path class="cls-2" d="M37.15,274.32c1.82-1.99,3.61-3.98,4.98-5.46,3.08-3.39,4.26-5.35,4.26-7.81s-1.43-4.34-3.89-4.34c-.62,0-1.2,.11-1.85,.31l-.78,2.38c-.28,1.23-.84,1.62-1.48,1.62-.56,0-1.04-.34-1.29-.87,.53-2.77,3.16-4.34,6.24-4.34,3.89,0,5.85,2.13,5.85,5.29,0,2.58-1.74,4.76-6.27,8.71-.84,.78-2.44,2.32-4.06,3.95h11.09v2.24h-12.8v-1.68Z"/>
      <path class="cls-2" d="M55.25,274.32c1.82-1.99,3.61-3.98,4.98-5.46,3.08-3.39,4.26-5.35,4.26-7.81s-1.43-4.34-3.89-4.34c-.62,0-1.2,.11-1.85,.31l-.78,2.38c-.28,1.23-.84,1.62-1.48,1.62-.56,0-1.04-.34-1.29-.87,.53-2.77,3.16-4.34,6.24-4.34,3.89,0,5.85,2.13,5.85,5.29,0,2.58-1.74,4.76-6.27,8.71-.84,.78-2.44,2.32-4.06,3.95h11.09v2.24h-12.8v-1.68Z"/>
      <path class="cls-2" d="M83.23,253.34c-.14,.31-.48,.53-1.12,.48-.5,.98-1.06,1.9-1.62,2.8h12.82l1.57-1.93s1.76,1.32,2.88,2.32c-.08,.31-.36,.45-.73,.45h-8.65v5.29h4.31l1.48-1.82s1.65,1.26,2.69,2.18c-.06,.31-.34,.45-.76,.45h-7.73v6.58h5.85l1.6-1.96s1.79,1.37,2.91,2.32c-.06,.31-.36,.45-.78,.45h-9.58v6.58c-.03,.17-.78,.73-2.02,.73h-.42v-7.31h-12.8l-.25-.81h4.9v-8.48l2.69,1.09h5.46v-5.29h-6.05c-1.99,2.77-4.31,5.01-6.78,6.58l-.34-.31c2.6-2.63,5.4-7.06,7.08-11.73l3.36,1.34Zm2.72,10.22h-5.82v6.58h5.82v-6.58Z"/>
      <path class="cls-2" d="M106.26,264.4c1.15-.39,2.27-.56,3.53-.56,4.14,0,6.78,2.24,6.78,6.05s-2.91,6.52-7.34,6.52c-3.22,0-5.35-1.51-5.82-4.17,.22-.59,.73-.9,1.29-.9,.78,0,1.18,.42,1.43,1.54l.59,2.27c.64,.25,1.29,.36,2.13,.36,3.05,0,4.9-2.02,4.9-5.29,0-3.47-1.82-5.18-4.59-5.18-1.23,0-2.32,.17-3.36,.62l-.7-.25,.64-9.16h10.25v2.24h-9.3l-.42,5.91Z"/>
      <path class="cls-2" d="M127.18,253.65l2.69,1.06h9.72l1.15-1.37,2.63,2.02c-.17,.22-.62,.48-1.2,.59v19.18c0,1.74-.36,2.83-3.58,3.14-.11-.73-.31-1.32-.76-1.68-.48-.39-1.32-.67-2.8-.9v-.42s3.44,.25,4.12,.25c.59,0,.73-.2,.73-.67v-6.64h-10.75c-.62,3.84-2.41,7.48-7.17,10.08l-.34-.34c4.79-3.86,5.57-8.82,5.57-14.48v-9.83Zm2.27,8.15v1.65c0,1.32-.06,2.66-.22,3.98h10.64v-5.63h-10.42Zm0-6.27v5.46h10.42v-5.46h-10.42Z"/>
      <path class="cls-2" d="M156.93,260.96v16.55c-.03,.2-.95,.73-1.82,.73h-.42v-14.45c-.87,1.2-1.82,2.32-2.8,3.28l-.39-.28c2.21-3.47,4.51-8.99,5.71-14.34l3.5,1.04c-.11,.34-.45,.59-1.09,.56-.76,2.16-1.65,4.23-2.66,6.1l.81,.31c-.08,.25-.34,.45-.84,.5Zm7.92-4.98c-1.54,4.56-4,8.04-7.14,10.19l-.36-.28c2.41-2.66,4.51-6.86,5.49-11.59l3.14,1.18c-.14,.34-.48,.56-1.12,.5Zm7.76,6.83l2.32,1.9c-.22,.22-.56,.36-1.15,.45-.22,7.31-.78,10.89-1.99,12.04-.73,.73-1.76,1.04-2.94,1.04,0-.64-.08-1.15-.45-1.48-.36-.34-1.26-.59-2.18-.76v-.45c.98,.06,2.58,.2,3.08,.2s.73-.08,.98-.28c.76-.73,1.2-4.26,1.4-10.58h-5.04c-.31,5.01-1.32,9.97-8.4,13.47l-.34-.42c5.66-3.86,6.19-8.57,6.33-13.05h-3.61l-.25-.81h11.06l1.18-1.26Zm-2.35-10.25l2.49,1.71c-.31,.36-1.09,.56-1.99,.62,1.09,3.14,3.78,6.27,7.25,7.98l-.06,.34c-.92,.22-1.71,.98-1.99,1.85-3.08-2.44-5.1-6.08-5.96-10.28h-3.11l-.25-.84h2.72l.9-1.37Z"/>
      <path class="cls-2" d="M183.32,259.64l2.27,.95h2.69v-2.16h-5.82l-.22-.81h6.05v-2.27c-1.93,.17-3.92,.31-5.8,.34l-.11-.5c3.98-.56,8.99-1.82,11.62-2.8l2.24,2.24c-.28,.22-.81,.22-1.48-.06-1.26,.2-2.77,.39-4.42,.59v2.46h2.97l1.34-1.65s1.48,1.15,2.41,2.02c-.06,.31-.34,.45-.73,.45h-5.99v2.16h3.05l.98-1.18,2.16,1.65c-.17,.2-.45,.36-1.04,.48v6.78c0,.11-.73,.56-1.68,.56h-.36v-.67h-3.11v2.63h2.35l1.23-1.54s1.4,1.09,2.3,1.9c-.08,.31-.34,.45-.73,.45h-5.15v2.49l5.85-.78,.08,.45c-2.8,.92-6.69,2.1-12.15,3.53-.17,.34-.45,.56-.73,.64l-1.15-2.88c1.26-.08,3.42-.34,6.05-.67v-2.77h-5.4l-.22-.81h5.63v-2.63h-3v.59c0,.17-.64,.59-1.62,.59h-.34v-9.74Zm4.96,1.76h-3v2.58h3v-2.58Zm-3,3.39v2.6h3v-2.6h-3Zm8.15-.81v-2.58h-3.11v2.58h3.11Zm-3.11,3.42h3.11v-2.6h-3.11v2.6Zm12.32-14.31c-.08,.42-.34,.7-1.01,.78l-.06,5.43h3.19l1.23-1.34,2.32,1.99c-.17,.25-.53,.42-1.15,.48-.17,10.36-.56,14.92-1.79,16.38-.78,.87-1.88,1.23-3.05,1.23,0-.7-.08-1.26-.42-1.6-.36-.34-1.23-.62-2.16-.81v-.45c.95,.08,2.44,.2,2.97,.2,.5,0,.73-.08,1.01-.34,.84-.87,1.18-5.71,1.34-14.92h-3.5c-.17,8.26-1.12,14.2-7.9,18.26l-.36-.48c5.24-4.2,6.05-9.91,6.13-17.78h-3l-.25-.81h3.25v-6.55l3.19,.34Z"/>
      <path class="cls-2" d="M224.32,275.16v-17.67h-9.52l-.22-.81h17.58l1.65-2.04s1.82,1.4,2.94,2.41c-.08,.31-.36,.45-.78,.45h-9.24v17.67h7.25l1.62-2.07s1.85,1.43,2.97,2.44c-.08,.31-.34,.45-.76,.45h-24.89l-.25-.81h11.65Z"/>
      <path class="cls-2" d="M253.23,268.07c1.74-.87,2.74-1.68,3.19-3.22-1.74-.81-2.32-1.57-2.32-2.46,0-1.04,.76-1.85,1.9-1.85,.64,0,1.15,.14,1.62,.59,.28,.64,.36,1.06,.36,1.79,0,3.02-1.71,4.93-4.4,5.94l-.36-.78Z"/>
      <path class="cls-2" d="M286.17,253.9l.95-1.46,2.66,1.76c-.31,.36-1.06,.53-2.02,.59,2.04,2.8,7.03,5.91,12.04,7.42l-.03,.34c-1.04,.22-1.88,1.06-2.18,2.04-4.34-2.3-8.62-5.91-10.61-9.83-2.88,4.59-7.95,8.51-13.44,10.86l-.22-.36c4.42-2.6,8.57-6.66,10.61-10.56h-5.52l-.25-.81h8.01Zm-.98,22.68v-5.99h-7.62l-.22-.81h7.84v-5.26h-6.75l-.22-.81h12.6l1.37-1.68s1.57,1.18,2.58,2.04c-.08,.31-.36,.45-.76,.45h-6.5v5.26h4.76l1.4-1.76s1.62,1.26,2.66,2.13c-.08,.31-.36,.45-.73,.45h-8.09v5.99h7.06l1.51-1.9s1.71,1.32,2.77,2.27c-.08,.31-.36,.45-.78,.45h-23.3l-.25-.81h10.67Z"/>
      <path class="cls-2" d="M305.86,276.7c-.53,.67-1.68,.9-2.13,.22-.36-.59-.03-1.23,.53-1.71,.92-.84,1.88-2.91,1.88-4.9l.48,.03c.73,3.08,.08,5.35-.76,6.36Zm7.64-9.88h4.17l-.28-.03,1.2-1.15,1.74,1.51v-2.88h-3.11v1.12c0,.17-.62,.59-1.65,.59h-.34v-10.98l2.32,.95h1.65c.2-.95,.45-2.52,.59-3.56l3.36,.84c-.14,.39-.5,.59-1.12,.59-.5,.62-1.29,1.48-1.9,2.13h5.15l1.04-1.2,2.18,1.68c-.2,.22-.48,.39-1.04,.5v8.18s-.08,.11-.28,.22l2.3,1.82c-.14,.2-.62,.36-1.09,.14-.9,.67-2.52,1.74-4,2.55,1.6,2.3,3.67,3.7,5.77,4.68l-.03,.31c-.84,.14-1.46,.84-1.74,1.82-2.8-2.1-4.82-4.65-5.96-9.3v7.76c0,1.57-.39,2.72-3.11,2.97-.03-.64-.17-1.2-.56-1.54-.42-.34-1.06-.59-2.32-.78v-.39s2.74,.2,3.28,.2c.48,0,.62-.14,.62-.5v-7.34c-.17,.06-.39,.08-.73,.11-1.23,3.95-3.75,7.34-8.54,9.3l-.25-.39c3.67-2.07,5.71-5.38,6.66-9.1h-3.81c.08,1.32-.87,2.04-1.76,1.2-.03-.5-.11-1.04-.25-1.6-1.51,.5-3.61,1.2-5.8,1.85-.25,.42-.53,.64-.84,.76l-.95-2.72s.62-.11,.84-.28c1.29-1.18,2.86-3.16,4.17-5.21-.92,.31-2.02,.64-3.14,.95-.2,.28-.39,.45-.62,.53l-1.06-2.66s.5-.11,.7-.25c1.43-1.6,3.22-5.57,3.84-7.7l2.91,1.4c-.11,.28-.45,.5-.98,.45-1.12,1.9-3.08,4.51-4.82,6.24h3.84c.84-1.37,1.57-2.69,1.99-3.72l2.69,1.71c-.14,.22-.53,.42-1.06,.31-1.54,2.35-4.45,5.77-7.14,8.12l5.24-.48c-.34-1.06-.81-2.13-1.26-2.91l.39-.14c1.71,1.12,2.58,2.32,2.91,3.33Zm-5.04,8.85c.34-1.85,.08-4.2-.34-5.77l.42-.11c3.58,3.98,1.4,7.73-.08,5.88Zm3.5-2.02c-.08-1.43-.92-3.3-1.71-4.42l.36-.14c4.73,2.46,2.97,6.02,1.34,4.56Zm13.41-13.94v-2.94h-8.15v2.94h8.15Zm0,3.75v-2.91h-8.15v2.91h8.15Zm-1.29,5.91c1.01-1.23,2.18-2.88,2.83-3.92-.31,.11-.73,.22-1.18,.22h-.36v-1.4h-2.94v1.2c.42,1.51,.98,2.8,1.65,3.89Z"/>
      <path class="cls-2" d="M344.65,254.88c-.28,.28-.76,.34-1.51,.08-.7,.25-1.54,.53-2.46,.81v5.24h.64l1.23-1.68s.9,.76,1.68,1.48h6.8v-2.18h-5.29l-.22-.78h5.52v-1.99h-5.94l-.22-.81h6.16v-2.35l3.14,.28c-.06,.39-.31,.67-1.01,.78v1.29h3.44l1.26-1.65s1.46,1.18,2.32,2.02c-.08,.31-.34,.45-.73,.45h-6.3v1.99h2.88l1.18-1.4s1.32,.98,2.18,1.76c-.06,.28-.34,.42-.73,.42h-5.52v2.18h3.75l1.26-1.62s1.46,1.15,2.32,1.99c-.06,.31-.31,.45-.7,.45h-15.15c-.11,.17-.31,.22-.56,.22h-3.42v2.69c5.66,2.18,3.89,5.8,2.04,4.37-.25-1.2-1.2-2.69-2.04-3.78v12.46c0,.17-.7,.67-1.74,.67h-.36v-11.12c-1.15,2.27-2.63,4.28-4.42,6.05l-.39-.36c2.13-3,3.58-7.03,4.37-10.98h-3.47l-.22-.84h4.14v-4.68c-1.37,.34-2.83,.62-4.2,.81l-.14-.39c2.72-.98,6.05-2.77,7.7-4.03l2.72,2.16Zm7.48,20.38c-.22,.22-.48,.28-1.01,.14-2.44,1.32-5.54,2.27-8.4,2.83l-.31-.48c2.49-.95,5.15-2.46,7.17-4.2l2.55,1.71Zm-5.88-12.96l2.18,.98h7.42l1.12-1.2,2.38,1.82c-.17,.2-.56,.42-1.04,.53v8.65c-.06,.2-1.15,.64-1.85,.64h-.34v-.81h-7.84v.56c0,.2-.87,.7-1.74,.7h-.31v-11.87Zm2.04,1.79v2.1h7.84v-2.1h-7.84Zm0,5.01h7.84v-2.1h-7.84v2.1Zm0,3h7.84v-2.21h-7.84v2.21Zm9.69,5.68c-.84-1.06-2.52-2.44-4.79-3.56l.2-.42c10.19,1.79,6.38,5.77,4.59,3.98Z"/>
      <path class="cls-2" d="M374.23,259.5c-.08,.31-.34,.45-.73,.45h-3.14v2.27c4.65,2.83,2.86,6.22,1.26,4.7-.11-1.15-.67-2.63-1.26-3.78v14.31c0,.25-.9,.78-1.62,.78h-.42v-12.32c-.87,2.13-2.02,4.06-3.44,5.8l-.42-.36c1.82-3.19,2.88-7.31,3.47-11.4h-2.91l-.22-.81h3.53v-6.78l3.05,.31c-.06,.42-.28,.67-1.01,.78v5.68h.45l1.2-1.68s1.4,1.2,2.21,2.04Zm16.44,17.08c-.06,.31-.36,.45-.76,.45h-17.81l-.22-.84h14.76l1.4-1.74s1.62,1.2,2.63,2.13Zm-.7-21.5c-.08,.31-.34,.45-.73,.45h-8.99c-.39,1.06-.98,2.58-1.46,3.72h2.07l1.15-1.23,2.21,1.88c-.2,.2-.53,.36-1.12,.45-.14,8.99-.5,12.77-1.65,14-.67,.78-1.68,1.12-2.74,1.12,0-.64-.06-1.18-.39-1.46-.34-.31-1.12-.56-1.93-.73l.03-.45c.84,.06,2.16,.17,2.66,.17s.67-.08,.92-.28c.73-.78,1.01-4.68,1.15-12.66h-2.44l-1.01,1.01-2.18-1.68c.34-.2,.81-.42,1.26-.56,.45-1.04,.95-2.38,1.23-3.3h-4.51l-.22-.81h12.85l1.34-1.76s1.57,1.23,2.49,2.13Zm-16.02,17.05h-.25v-10.56l1.74,.81h1.65l.9-.95,1.9,1.48c-.17,.17-.53,.36-.95,.45v7.25c-.03,.17-.81,.56-1.34,.56h-.25v-1.15h-2.04v1.54c0,.2-.64,.56-1.34,.56Zm1.34-8.93v5.99h2.04v-5.99h-2.04Zm11.2,2.27c.34-1.37,.53-2.77,.67-4.14h-3.42l-.42-.81h3.64l1.15-1.18,2.1,1.82c-.2,.25-.45,.34-1.04,.36-.25,1.79-.67,3.64-1.34,5.43,3.11,3.95,1.85,6.94,.17,5.49-.14-1.06-.53-2.24-1.09-3.44-.9,1.71-2.13,3.25-3.81,4.51l-.28-.36c1.48-1.62,2.52-3.67,3.19-5.85-.81-1.43-1.74-2.77-2.58-3.84l.36-.2c1.06,.73,1.96,1.48,2.69,2.21Z"/>
      <path class="cls-2" d="M396.25,259.64l2.27,.95h2.69v-2.16h-5.82l-.22-.81h6.05v-2.27c-1.93,.17-3.92,.31-5.8,.34l-.11-.5c3.98-.56,8.99-1.82,11.62-2.8l2.24,2.24c-.28,.22-.81,.22-1.48-.06-1.26,.2-2.77,.39-4.42,.59v2.46h2.97l1.34-1.65s1.48,1.15,2.41,2.02c-.06,.31-.34,.45-.73,.45h-5.99v2.16h3.05l.98-1.18,2.16,1.65c-.17,.2-.45,.36-1.04,.48v6.78c0,.11-.73,.56-1.68,.56h-.36v-.67h-3.11v2.63h2.35l1.23-1.54s1.4,1.09,2.3,1.9c-.08,.31-.34,.45-.73,.45h-5.15v2.49l5.85-.78,.08,.45c-2.8,.92-6.69,2.1-12.15,3.53-.17,.34-.45,.56-.73,.64l-1.15-2.88c1.26-.08,3.42-.34,6.05-.67v-2.77h-5.4l-.22-.81h5.63v-2.63h-3v.59c0,.17-.64,.59-1.62,.59h-.34v-9.74Zm4.96,1.76h-3v2.58h3v-2.58Zm-3,3.39v2.6h3v-2.6h-3Zm8.15-.81v-2.58h-3.11v2.58h3.11Zm-3.11,3.42h3.11v-2.6h-3.11v2.6Zm12.32-14.31c-.08,.42-.34,.7-1.01,.78l-.06,5.43h3.19l1.23-1.34,2.32,1.99c-.17,.25-.53,.42-1.15,.48-.17,10.36-.56,14.92-1.79,16.38-.78,.87-1.88,1.23-3.05,1.23,0-.7-.08-1.26-.42-1.6-.36-.34-1.23-.62-2.16-.81v-.45c.95,.08,2.44,.2,2.97,.2,.5,0,.73-.08,1.01-.34,.84-.87,1.18-5.71,1.34-14.92h-3.5c-.17,8.26-1.12,14.2-7.9,18.26l-.36-.48c5.24-4.2,6.05-9.91,6.13-17.78h-3l-.25-.81h3.25v-6.55l3.19,.34Z"/>
      <path class="cls-2" d="M437.25,275.16v-17.67h-9.52l-.22-.81h17.58l1.65-2.04s1.82,1.4,2.94,2.41c-.08,.31-.36,.45-.78,.45h-9.24v17.67h7.25l1.62-2.07s1.85,1.43,2.97,2.44c-.08,.31-.34,.45-.76,.45h-24.89l-.25-.81h11.65Z"/>
      <path class="cls-2" d="M14.5,295.57v4.84h7.34l1.2-1.34,2.6,2.02c-.17,.22-.62,.45-1.18,.56v9.49c-.03,.2-1.2,.67-1.96,.67h-.39v-2.35h-7.62v9.94c0,.31-.98,.9-1.9,.9h-.45v-10.84H4.56v1.9c0,.25-.98,.78-1.93,.78h-.39v-12.82l2.55,1.09h7.36v-5.96l3.39,.36c-.08,.39-.31,.64-1.04,.76Zm-2.35,13.08v-7.42H4.56v7.42h7.59Zm9.97-7.42h-7.62v7.42h7.62v-7.42Z"/>
      <path class="cls-2" d="M42.84,303.44c2.18,0,3.92,1.74,3.92,3.92s-1.74,3.95-3.92,3.95-3.95-1.76-3.95-3.95,1.76-3.92,3.95-3.92Zm0,6.92c1.62,0,2.97-1.37,2.97-3s-1.34-2.97-2.97-2.97-3,1.34-3,2.97,1.34,3,3,3Z"/>
    </g>
  </g>
</svg>