<?xml version="1.0" encoding="utf-8"?>
<!-- Generator: Adobe Illustrator 27.0.0, SVG Export Plug-In . SVG Version: 6.00 Build 0)  -->
<svg version="1.1" id="圖層_1" xmlns="http://www.w3.org/2000/svg" xmlns:xlink="http://www.w3.org/1999/xlink" x="0px" y="0px"
	 viewBox="0 0 637.2 274.1" style="enable-background:new 0 0 637.2 274.1;" xml:space="preserve">
<style type="text/css">
	.st0{fill:#FFF100;}
</style>
<g>
	<g id="_圖層_2">
		<g id="_圖層_1-2">
			<g>
				<g>
					<path class="st0" d="M60.5,64.1c-0.6,1.1-1.5,1.5-3.7,1.8c-1.4,9.7-3.8,18.9-8.6,27.2c11,5,25.7,6.1,45.8,6.1
						c4.9,0,16.5,0,22.6-0.1v1.1c-5.4,1.2-8,6.4-8.3,11.9H93.1c-23.2,0-39.2-2.3-50.1-11.5c-5,5.8-11.6,10.8-20.6,14.5l-0.7-1.1
						c7.1-5.3,11.9-12.1,15.3-19.7c-4.8-6.3-8.4-14.6-11.1-25.7l0.9-0.4c3.2,8.6,7.4,14.7,12.6,19.2c2.3-7.4,3.6-15.3,4.2-23.5h-3.3
						l-3.9,4.2l-11.8-7c0.9-0.8,2.2-1.6,3.5-2.3c3.6-6.7,8.6-17.9,11.1-24.8H23.5l-0.9-2.8H39l5.7-5.7l11.2,10.2
						c-0.7,0.8-2.1,1.3-3.8,1.6c-2.6,6.1-7.6,16.9-10.9,23.8h1.6l6.3-6.7L60.5,64.1L60.5,64.1z M109.6,35.9c0,0,5.9,6.1,8.9,9.9
						c-0.3,1.1-1.3,1.6-2.7,1.6h-11.4v13.5c-0.1,0.4-1.9,1.3-4.4,1.9c2.2,1.8,7.3,5.9,10.5,8.9c-0.3,1.1-1.3,1.6-2.8,1.6H85.5v10.4
						h8.7l7.1-9.1c0,0,8.2,6.1,13.1,10.3c-0.3,1.1-1.5,1.6-2.9,1.6H85.5v8.6c0,1-5.7,3.4-11,3.4h-2.7V86.4H53.8L53,83.6h18.9V73.2
						h-14l-0.8-2.8h14.7V60.3h-13L58,57.5h13.9V47.4H52.1l-0.8-2.8h20.6v-9.9H57.4L56.5,32h15.3V20.7l17.3,1.6
						c-0.2,1.5-0.9,2.5-3.7,2.9V32h4.9l5.8-6.3l12.1,9.1c-0.6,0.7-1.9,1.6-3.8,2v7.9h0.1L109.6,35.9L109.6,35.9z M85.5,44.6h5.9
						v-9.9h-5.9V44.6z M91.4,47.4h-5.9v10.1h5.9V47.4z M98.1,63.2c-1.5,0.4-3.1,0.6-4.5,0.6h-2.2v-3.6h-5.9v10.2h7.3
						C92.8,70.4,98.1,63.2,98.1,63.2z"/>
					<path class="st0" d="M156.6,33.3c0,0,6.1,5,9.8,8.4c-0.2,1.1-1.3,1.6-2.7,1.6h-40.8l-0.8-2.8h29.1L156.6,33.3L156.6,33.3z
						 M179.9,35.8c0,8.2-2,21.9-19.4,29.8c0.8,0.7,1.5,1.3,2.1,1.9c-0.3,1.1-1.3,1.6-2.7,1.6h-33l-0.8-2.8h21.6l5.3-6.9
						c0,0,2.9,2.2,5.8,4.7c7.6-8.9,8.4-19.7,8.4-28.3V23l14.7,5.1h5.7l6.2-6.7l11.1,8.9c-0.6,0.7-1.8,1.2-3.6,1.5V46
						c0,1,0.3,1.4,1.4,1.4h4c0.6,0,1.8-0.1,2.4-0.1c0.7-0.1,1.8-0.3,2.6-0.5h0.9L213,47c2.8,1.4,3.7,2.7,3.7,5
						c0,4.8-4.2,7.5-13.9,7.5h-4.7c-8.5,0-9.4-2.5-9.4-10.2V30.9H180L179.9,35.8L179.9,35.8z M147.8,53.2l5.3-6.9c0,0,6,4.7,9.6,8.1
						c-0.3,1.1-1.3,1.6-2.7,1.6h-33l-0.8-2.8H147.8L147.8,53.2z M148.1,110v-5.7h-8.4v6c0,1.2-5.3,3.9-10.5,3.9h-1.8V74.4l12.7,5
						h7.1l5.5-5.9l11.4,8.6c-0.5,0.7-1.7,1.4-3.5,1.8v22.7c-0.1,0.8-6.1,3.4-10.3,3.4H148.1z M132.1,22.5c29.8-1,18.5,22.3,6,14.1
						c-0.7-5.1-3.7-10.5-6.6-13.6L132.1,22.5L132.1,22.5z M148.1,101.5V82.2h-8.4v19.3H148.1z M210.9,70.3c-0.7,1.1-1.7,1.5-4.1,1.7
						c-3.3,8.2-7.9,15.5-14,21.7c7.1,3.4,15,5.6,23.4,7.2l-0.1,1.2c-5.7,1.3-9.7,5.7-11.5,12.2c-8.3-3.4-15.2-7.4-20.8-12.9
						c-8.9,6.2-19.9,10.9-33.8,13.7l-0.6-1.2c11.8-4.7,21.3-11.4,28.5-19.4c-4.3-6.4-7.6-14.4-9.7-24.9h-4l-0.9-2.8h28l7.5-7.2
						L210.9,70.3L210.9,70.3z M169.9,69.5c2.9,7.9,7.5,13.8,13.2,18.3c3.9-5.6,6.8-11.8,8.8-18.3H169.9L169.9,69.5z"/>
					<path class="st0" d="M316.2,65.3c-0.8,0.8-1.7,1.1-3.8,1.2c-3.8,2.3-10.1,5.7-14.5,7.8l7.3,5.5c-0.7,1-2.3,2.2-4.9,2.7V95
						c0,7.9-2,12.2-16.2,13.3c-0.1-3.9-0.4-6.8-1.5-8.5c-1.1-1.6-2.3-3-6-3.8v15.5c-0.1,0.8-4.4,3.8-11.5,3.8h-2.6v-36h-10.1V104
						c0,1.2-6.3,4.3-11.9,4.3h-2V71l14.8,5.7h9.2V63.5H238c1.1,6.3-0.8,11.4-6.4,13.3c-8.8,3.1-14-8.4-4.4-12.8
						c2.8-1,5.6-3.4,6.3-7.2c-2.5,1.1-5.4,2-8.8,2.8l-0.6-0.9c9.2-5.5,11.6-12.8,12.1-20.2h-12.2l-0.8-2.8h13.1V21.1l16.1,1.5
						c-0.2,1.3-0.9,2.2-3.2,2.6v10.7h4V22.1l15.4,1.4c-0.2,1.2-0.9,2.1-3.3,2.5v9.9h4.6V22.1l15.4,1.4c-0.2,1.2-0.9,2.1-3.3,2.5v9.9
						h4.1V21.2l15.5,1.2c-0.2,1.4-1.1,2.3-3.1,2.6v10.9h3l5.3-9.1c0,0,6,6.3,9.1,10.3c-0.3,1.1-1.3,1.6-2.6,1.6h-14.7v5.2
						c0,1,0.2,1.4,1.3,1.4h3.8c0.5,0,1.8-0.1,2.4-0.2c0.7,0,1.8-0.2,2.5-0.4h0.9l0.6,0.2c2.7,1.4,3.6,2.6,3.6,4.7
						c0,3.5-2.4,5.5-7.7,6.2L316.2,65.3L316.2,65.3z M249.2,38.6c-0.8,6.6-4.2,13-13.8,17.5c0.8,1.5,1.4,3.1,1.9,4.6h59.5l4.8-4.7
						h-6c-8.4,0-9.3-2.5-9.3-9.7v-7.8h-4.1v15.7c0,0.8-5.4,2.7-10,2.7h-2.2v-4.2h-4.6v2.4c0,0.8-5.4,2.8-10,2.8h-2.2V38.6
						L249.2,38.6L249.2,38.6z M265.5,38.6v11.5h4.6V38.6H265.5z M296.5,73.3c0.4-2.8,0.8-6.7,1.1-9.8h-21v13.2h8.1l6.5-7.5
						L296.5,73.3L296.5,73.3z M276.6,94.8c1.5,0.1,6.2,0.4,7.7,0.4c1.3,0,1.6-0.6,1.6-1.7v-14h-9.3V94.8L276.6,94.8z"/>
					<path class="st0" d="M416.7,49.5c-0.7,0.9-2.1,1.7-4.3,2c-0.7,41.5-1.8,52.6-7.4,58c-3.5,3.5-8,4.9-13.5,4.9
						c0.1-4.4-0.2-7.4-1.4-9.2c-1.3-2-3.4-3.4-6.9-4.4v-1.2c2.6,0.2,6.6,0.4,8.5,0.4c1.4,0,2.3-0.4,3.2-1.2c3-2.8,3.9-16.4,4.5-49.6
						h-6.6c-0.7,30.2-4.3,51.6-31.2,66l-1-1.3c5.1-5.2,8.9-10.8,11.5-16.7c-8.8,3.9-21.8,8.8-41.3,14.9c-0.7,1.3-1.9,2.1-3.2,2.3
						L322,98.2c4.1-0.1,10.8-0.4,19-0.8v-7.2h-17.1l-0.8-2.8H341v-9h-4.8v1.3c0,0.9-3.8,2.8-10.1,2.8H324V45.9l13.2,5h3.8V44h-18.7
						l-0.8-2.8H341v-7.4c-6.7,0.3-13.5,0.4-19.6,0.4l-0.2-1.4c13.9-3,32.2-8.5,41.5-12.5l11.5,12c-1.3,1-3.7,0.9-6.8-0.4
						c-4.1,0.5-9,0.9-14.2,1.3v8h5.3l6.3-7.9c0,0,7.2,5.3,11.5,9.1c-0.2,1.1-1.3,1.6-2.8,1.6h-20.2v6.9h4.9l5.9-6.7l11.1,8.4
						c-0.6,0.9-1.5,1.5-3.8,1.9v23.6c0,0.4-2.8,2-7.6,2.5c1.6,1.2,6.9,5.2,10.4,8.1c-0.3,1.1-1.3,1.6-2.8,1.6h-18v6.5
						c6.3-0.4,13-0.8,19.7-1.3c5.4-12.8,6.4-28,6.5-46.2H372l-0.9-2.8h8.4c0-7.6-0.1-15.7-0.1-24.5l17.3,1.6
						c-0.3,1.6-1.4,2.5-3.7,2.8c-0.1,7.1-0.1,13.8-0.2,20.1h5.4l7.1-7.1L416.7,49.5L416.7,49.5z M336.2,53.7v9.6h4.8v-9.6H336.2z
						 M341,75.7V66h-4.8v9.7H341z M353.3,53.7v9.6h5.2v-9.6H353.3z M358.5,66h-5.2v9.7h5.2V66z M353.3,87.4h4.1l5.6-6.9
						c-0.7,0.1-1.4,0.1-2.2,0.1h-2.3v-2.2h-5.2L353.3,87.4L353.3,87.4z"/>
					<path class="st0" d="M513.8,41.3c-0.5,0.6-1.5,1.3-3,1.6v27.4c-0.1,0.7-6.2,2.9-10.5,3.1l8.5,6.4c-0.6,0.8-1.9,1.7-4,2.1v29.7
						c-0.1,0.7-7,3.1-11.5,3.1H491v-6.4h-18.9v2.8c0,1.3-5.8,4.2-11.5,4.2h-1.9v-40c-0.8,0.1-1.6,0.2-2.4,0.2h-1.9V53h-11v28.2
						c4.2-0.8,8.7-1.6,13-2.5l0.2,0.8c-5.3,4.5-13.9,11-27,19.2c-0.5,1.3-1.6,2.4-2.9,2.7l-7-16.3c2.3-0.3,5.9-0.8,10.2-1.6V53h-9
						l-0.8-2.8h9.8V22.1l17.1,1.5c-0.2,1.4-0.9,2.4-3.7,2.8v22.7l4.4-7.9c0,0,3.7,4.1,6.6,7.7V33.3l13.5,5.3h18.1
						c1.3-5.5,2.8-13,3.6-18l18.6,4.4c-0.4,1.3-1.5,2.1-3.8,2.1c-3.9,3.2-10.3,8-15.8,11.5h7.8l5.7-6L513.8,41.3L513.8,41.3z
						 M462.1,21.2c28.3,1.5,17.8,23,6.4,15.3c-0.9-5.4-4.2-11.2-7.2-14.8L462.1,21.2L462.1,21.2z M497.4,71.2v-2.6h-30.1v2.8
						c0,0.6-1.2,1.4-3,2.2l8.4,3.3H490l6.1-6.7L497.4,71.2L497.4,71.2z M467.3,41.4v4.7l0.4-0.2c5.4,2.3,8.3,5.2,9.5,7.8V41.4H467.3
						z M477.2,59.6c-1.4,2.3-4.6,3.1-7.4,0.4c0.1-3.8-1.1-8.3-2.5-11.8v17.6h9.9V59.6z M491,91V79.7h-18.9V91H491z M491,105.5V93.8
						h-18.9v11.7H491z M488.1,41.4v24.4h9.3v-15h-0.2c-2,3.5-4.5,7.5-7.3,10.4l-1.7-0.6c0.9-4.1,1.8-10.2,2.4-15.6l6.8,2.7v-6.2
						L488.1,41.4L488.1,41.4z"/>
					<path class="st0" d="M548.2,50.6c-0.3,1-1.1,1.6-3.1,2v58.6c-0.2,1.1-6,4-11.5,4h-2.7V65.5c-3.1,3.3-6.4,6.2-9.9,8.9l-1.1-0.6
						c7.1-13.2,14-33.9,16.9-53.3l19.8,5.6c-0.4,1.3-1.7,2.2-4.1,2.2c-2.7,7.6-5.8,14.4-9.4,20.5L548.2,50.6L548.2,50.6z M608,101.1
						c0,0,5.7,5.4,8.8,9c-0.3,1.1-1.3,1.6-2.6,1.6h-67.4l-0.8-2.8h9.5V44.1l14.3,5.4h0.1c0.1-2.9,0.2-6.3,0.3-10h-18.7l-0.8-2.8
						h19.5c0.1-5.5,0.2-11.2,0.2-16.1l18.9,1.7c-0.3,1.7-1.6,2.8-4,3.2c-0.4,3.2-0.9,7.2-1.5,11.3h8.5l7.4-9.7
						c0,0,8.3,6.5,13.2,10.9c-0.3,1.1-1.4,1.6-2.9,1.6h-26.6c-0.5,3.6-1,7.2-1.4,10h7.3L595,42l13.8,9.6c-0.7,1-1.9,1.6-4.5,2.1v53
						L608,101.1L608,101.1z M568.8,52.3V64h21.4V52.3C590.2,52.3,568.8,52.3,568.8,52.3z M590.2,66.8h-21.4v11.6h21.4V66.8z
						 M568.8,81.2v11.5h21.4V81.2H568.8z M568.8,108.8h21.4V95.4h-21.4V108.8z"/>
					<path class="st0" d="M47.5,249.3c-0.2,1.1-6.1,4.1-11.8,4.1H33v-51.8c-3.6,3.7-7.5,7.1-11.6,10l-1.1-0.7
						c7.9-12.8,15.7-32.8,19.2-52.2l19.1,5.7c-0.5,1.3-1.8,2.2-4.1,2.1c-2.9,7.7-6.3,14.4-10.2,20.5l6.2,2.3c-0.3,0.9-1.1,1.6-3.1,2
						V249.3L47.5,249.3z M89.9,213.9c-0.3,7.5-1.5,14.2-5.1,20.1c10.1,2.4,22,3.2,34,2.7v1.2c-5.7,1.8-10.2,7.3-11.2,14.5
						c-13.2-1.7-23.3-4.7-31.1-9.8c-6.5,4.7-15.9,8.4-30,11l-0.5-0.9c11.8-4.7,18.9-9.9,23.3-16.2c-3.9-4.2-6.9-9.4-9.2-15.6l1-0.5
						c2.7,3.9,6.7,7,11.5,9.4c1.8-4.6,2.5-9.9,2.7-15.8h-7.4v2.4c0,1.4-6.2,4.4-12,4.4h-2V176l14.6,5.6h6.8v-10.9H55.1l-0.8-2.8
						h42.1l7.6-10c0,0,8.6,6.7,13.7,11.2c-0.2,1.1-1.4,1.6-2.9,1.6H90v10.9h7.1l6.3-7l13.1,9.9c-0.6,0.8-1.8,1.8-3.9,2.2v29.9
						c-0.1,0.7-7.3,3.2-11.9,3.2h-2.5v-5.8L89.9,213.9L89.9,213.9z M68.1,184.3v11.9h7.5v-11.9H68.1z M75.6,211.1v-12.1h-7.5v12.1
						H75.6z M90,184.3v11.9h8.1v-11.9H90z M98.1,211.1v-12.1H90v12.1H98.1z"/>
					<path class="st0" d="M145.8,238.1c0,9.3-1.8,14.1-15.8,15.4c-0.2-4.5-0.6-7.7-1.8-9.7c-1.3-2.1-2.9-3.5-7.2-4.4v-1.3
						c0,0,7.7,0.5,9.5,0.5c1.4,0,1.8-0.4,1.8-1.5v-20.4l-3.5,2.3c-0.4,1.4-1.5,2.5-2.8,2.9l-5.3-15.8c2.4-0.5,6.6-1.3,11.5-2.5
						v-18.1h-9.5l-0.8-2.8h10.3v-24.1l17.2,1.6c-0.2,1.5-1.2,2.5-3.7,2.9v18.1l4.4-8.2c0,0,5.9,6.8,8.7,10.9
						c-0.2,1.1-1.2,1.6-2.6,1.6h-10.5v14.9c3.7-0.9,7.6-1.8,11.4-2.8l0.2,0.9c-2.9,2.4-6.7,5.4-11.6,9L145.8,238.1L145.8,238.1z
						 M188.4,238.1c3.1,0.2,6.4,0.3,10.2,0.3c4.4,0,14.5,0,19.6-0.1v1.2c-3.9,0.9-5.7,6-5.6,11.8H198c-17,0-26.7-4.2-31.9-19.5
						c-4.3,11-10.9,17.5-20.4,21.8l-1.1-0.9c7.3-9.7,11.3-22.4,10.7-38.2l17.9,2.9c-0.3,1.4-1.4,2.3-3.7,2.5c-0.7,3.3-1.4,6.2-2.3,9
						c2,2.7,4.4,4.6,7.3,6.1v-24.3h-15.1l-0.9-2.8h16v-10.8h-21l-0.8-2.8h21.8v-10.1h-15.1l-0.9-2.8h16v-8h-19.9l-0.8-2.8h20.7
						v-11.4l17.6,1.7c-0.2,1.4-0.9,2.5-3.7,2.9v6.8h8l6.8-9.4c0,0,7.7,6.3,12.1,10.6c-0.3,1.1-1.4,1.6-2.8,1.6h-24.1v8h4.8l5.8-6.1
						l11.6,8.8c-0.5,0.7-1.7,1.5-3.5,1.9v8l4.1-7.1c0,0,4.9,5.2,7.4,8.6c-0.2,1.1-1.2,1.6-2.5,1.6h-9v13.1c-0.1,0.6-3.7,2.3-7.3,3.1
						c1.2,1,7.6,6.5,11.5,10.3c-0.3,1.1-1.4,1.6-2.8,1.6h-20.1L188.4,238.1L188.4,238.1z M188.4,194.3h5.8v-10.1h-5.8V194.3z
						 M188.4,207.9h5.8v-10.8h-5.8V207.9z M188.4,210.6v11.8h4.7l6.4-9c-1.1,0.2-2.1,0.3-3.1,0.3h-2.2v-3.1H188.4z"/>
					<path class="st0" d="M315.5,168.7c-0.7,0.9-2,1.7-4,2.2v77.5c-0.2,1-6.4,4.2-11.5,4.2H298v-6.7h-58.9v2.6c0,1.7-5.4,5-11.1,5
						h-2.2v-93.2l14.3,5.7H297l6.3-7L315.5,168.7L315.5,168.7z M298,243.1v-74.4h-58.9v74.4H298z M290.9,224.5
						c-0.1,0.7-5.1,2.6-8.9,3c26.2,3.9,8.2,19.1,0.3,10.9c-1.9-3.5-5.8-7.7-12.5-10.6l0.4-1.2c3.3,0,6.2,0.2,8.8,0.5v-3.3h-20.7
						l13.2,7.6c-0.8,1.1-2.5,1.6-5.6,1.1c-5.6,3.6-15,6.8-24.7,8.3l-0.5-1.2c5.5-3.1,11-8.1,14.6-12.6c-2,0.9-4.7,1.7-7.4,1.7h-1.7
						V189l3.5,1.4V171l12.1,4.6H275l5.1-5.4l10.8,7.9c-0.5,0.7-1.6,1.4-3.2,1.7v8.8c0,0.3-1,0.8-2.4,1.2l8.9,6.7
						c-0.5,0.7-1.6,1.4-3.2,1.7L290.9,224.5L290.9,224.5z M261.3,189.2c0,0.7-3.2,2.4-6.9,3.1l4.1,1.6h19.5l2.9-3.1
						c-1,0.2-2.1,0.3-3,0.3h-2.1v-3.5h-14.5V189.2L261.3,189.2z M279,196.7H258v6.1H279V196.7z M258,211.8H279v-6.3H258V211.8z
						 M279,221v-6.4H258v6.4H279z M261.3,178.4v6.5h14.5v-6.5H261.3z"/>
					<path class="st0" d="M321.9,181.6c27.7,4,15.8,24.9,5,16.2c-0.3-5.6-2.9-11.8-5.8-15.7L321.9,181.6z M350.1,180.1
						c-3.1,11.1-8.3,31.4-9.4,36.6c-0.7,3.3-1.4,6.9-1.3,9.5c0.3,5.7,4.8,9,4.5,18.2c-0.2,5.3-4.1,8.9-9.4,8.9
						c-2.4,0-5.2-1.4-6.2-5.3c2.1-10.6,1.7-20.6-0.7-22.2c-1.4-1-3-1.5-5.2-1.7v-1.8h4.5c1.6,0,2,0,3.2-2
						c1.5-2.5,7.6-15.9,18.4-40.4L350.1,180.1L350.1,180.1z M328.7,159.7c29,4.1,17.4,25.7,6,17.1c-0.8-5.9-4-12.2-6.8-16.6
						L328.7,159.7L328.7,159.7z M416.2,198.5c-0.5,0.7-1.6,1.4-3.3,1.8v38.3c0,8.7-1.8,13.4-15.2,14.6c-0.2-4.2-0.6-7.4-1.8-9.3
						c-1.2-2-2.9-3.3-7-4.2v-1.3c0,0,7.6,0.4,9.3,0.4c1.4,0,1.8-0.6,1.8-1.8v-9.8c-0.8,1.9-1.3,4-1.5,6c-2.6-2.8-4.7-8.4-5.6-12.8
						c-1.4,3.6-4,7.6-7.2,10.7v18.4c0,0.7-3.7,3.2-10,3.2h-2.3v-24.5c-0.6,1.6-1,3.4-1.2,5c-2.2-2.7-3.9-8-4.6-12.4
						c-1.2,4-3.9,8.3-7.1,11.3v17c0,1.4-5.1,4.3-10.4,4.3h-1.9v-62.9l13,5.2h12V185h-1.7v3.3c0,0.8-5.5,2.7-10.5,2.7h-2.2v-17.7
						h-11.1l-0.8-2.8h11.9v-11.8l16.3,1.4c-0.2,1.4-1,2.4-3.7,2.8v7.6h15.7v-11.9L404,160c-0.2,1.4-0.9,2.4-3.7,2.8v7.7h0.3l5.6-8.3
						c0,0,6.3,5.7,9.8,9.5c-0.3,1.1-1.3,1.6-2.7,1.6h-13v14c0,0.8-5.6,2.7-10.6,2.7h-2.2v-5h-1.8v10.9h13.4l5.5-6.2L416.2,198.5
						L416.2,198.5z M368.2,210.2c0.7,4.5,2.5,7.8,5.3,10.5v-22.1h-12.9v30.8c2.5-5.3,4.7-12.9,5.3-19.2V209h-4.6l-0.5-2.8h3.8
						l2.3-3.5l5.9,4.4c-0.7,0.9-2.3,1.7-4.6,2L368.2,210.2L368.2,210.2z M387.5,182.1v-9h-15.7v9H387.5z M393.3,210
						c1,4.6,3.3,7.8,6.7,10.7v-22.1h-14.2v7.7h3.9l2.3-3.6l6.2,4.5c-0.8,0.9-2.5,1.7-4.8,2L393.3,210L393.3,210z M390.9,209h-5.2v18
						c2.3-5.2,4.4-11.8,5.2-17.1V209z"/>
					<path class="st0" d="M500.4,234.7c0,0,9.3,7,14.8,11.6c-0.3,1.1-1.4,1.6-3,1.6h-90.7l-0.8-2.8h39v-30.5h-26l-0.8-2.8h26.8
						v-25.6h-15.1c-6.5,10.8-14.4,18.9-23.9,25l-1-0.7c7.1-11.9,14-30.4,16.6-48.4l20.1,5.8c-0.4,1.3-1.7,2.2-4.1,2.2
						c-1.9,4.8-3.9,9.3-6.2,13.4h13.5v-24.1l19.6,1.8c-0.2,1.5-0.9,2.5-3.7,2.9v19.4h12.1l7.9-9.7c0,0,8.7,6.2,14.2,10.9
						c-0.3,1.1-1.4,1.6-3,1.6h-31.3v25.6h9.2l8-10c0,0,9.1,6.7,14.5,11.2c-0.3,1.1-1.4,1.6-2.9,1.6h-28.8v30.5h16.5L500.4,234.7
						L500.4,234.7z"/>
					<path class="st0" d="M520.5,182.5c30,0.5,20.2,23.8,8,16.1c-1.2-5.7-5.1-11.8-8.7-15.5L520.5,182.5z M603.4,182.8
						c0,0,8,6.6,12.5,11c-0.2,1.1-1.4,1.6-2.8,1.6h-25v18.9h5.3l6.5-7l13,9.9c-0.7,0.8-1.9,1.8-4,2.2v29.3c-0.1,0.9-7,3.8-11.8,3.8
						h-2.5v-8.6h-26.6v4.8c0,1.3-6.2,4.4-12.2,4.4h-2v-44.4l14.7,5.7h4.9v-18.9h-24l-0.7-2.5c-3.4,10.1-6.8,20.9-7.8,24.5
						c-0.9,3.3-1.8,7.1-1.7,9.7c0.2,5.7,5,8.5,4.7,17.4c-0.2,5.4-4.4,9-10.2,9c-2.6,0-5.6-1.3-6.7-5.2c2.1-10.5,1.7-20.1-0.7-21.7
						c-1.5-1-3.3-1.6-5.4-1.8v-1.7h4.7c1.7,0,2.2,0,3.5-2c1.8-2.5,9.2-16.1,22.3-40.7l1.4,0.4c-1.2,3.3-2.6,7.5-4.1,11.9h24.6v-16.3
						c-7.9,0.6-16,1-23.5,1.1l-0.2-1.3c16.5-3.9,37.8-11.2,48.6-16.5l13.7,13.1c-1.3,1-3.8,1.1-7.3-0.2c-4.7,0.8-10.4,1.6-16.5,2.4
						v17.7h8.2L603.4,182.8L603.4,182.8z M528,160.7c31.1,0.1,22.2,23.9,9.4,16.7c-1.8-5.8-6.3-12.1-10.1-16.1L528,160.7L528,160.7z
						 M567.9,217.1v24h26.6v-24H567.9z"/>
				</g>
			</g>
		</g>
	</g>
</g>
</svg>
