<?xml version="1.0" encoding="utf-8"?>
<!-- Generator: Adobe Illustrator 27.0.0, SVG Export Plug-In . SVG Version: 6.00 Build 0)  -->
<svg version="1.1" id="圖層_1" xmlns="http://www.w3.org/2000/svg" xmlns:xlink="http://www.w3.org/1999/xlink" x="0px" y="0px"
	 viewBox="0 0 1315 109.7" style="enable-background:new 0 0 1315 109.7;" xml:space="preserve">
<style type="text/css">
	.st0{fill:#FFF100;}
</style>
<g>
	<g id="_圖層_2">
		<g id="_圖層_1-2">
			<g>
				<g>
					<path class="st0" d="M47.8,80.8c0,6.2-1.2,9.4-10.4,10.2c-0.1-2.7-0.4-4.9-1.2-6.2c-0.9-1.3-2.1-2.2-4.9-2.8v-1.1
						c0,0,5.1,0.4,6.3,0.4c1.1,0,1.3-0.5,1.3-1.4v-25c-3,0.9-6.3,1.8-9.9,2.8c-0.2,11.7-1.5,24.4-12.5,33.6l-0.9-0.6
						c4.3-8.7,4.8-19.7,4.9-30.7L20.1,60c-0.5,1-1.4,1.7-2.4,1.8l-2.3-10c1.3,0,3.1,0,5.1-0.1V24.5l7.7,2.8c0.2-3.3,0.4-8,0.5-11.2
						l13.2,2.5c-0.3,1.3-1.3,1.9-3.2,2.1c-1.9,2.1-4.8,5.2-7.1,7.5h6.7l3.9-4.4l8.2,6.4c-0.4,0.5-1.3,1-2.6,1.4v18.4l4.3-0.5
						l0.1,1.1c-1.3,0.5-2.8,1-4.4,1.5L47.8,80.8L47.8,80.8z M29.1,51.4c3.1-0.2,6.4-0.5,9.9-0.8V30.3h-9.9
						C29.1,30.3,29.1,51.4,29.1,51.4z M30.3,32.8c14.8,8.9,4.8,20.1,1.1,13.9c0.3-3.2,0.1-9.2-2.1-13.3L30.3,32.8L30.3,32.8z
						 M30.9,57.8c14.3,10.5,3.6,21.2,0.2,14.8c0.5-3.4,0.6-9.8-1.4-14.3L30.9,57.8z M88.6,78.4c2.1,1.1,2.5,2.1,2.5,4
						c0,3.6-3.2,5.7-9.6,5.7h-2.8c-6,0-6.7-2.1-6.7-7.8V46.3h-8.2v13.8c0,10.3-1.3,23.3-17.3,31.3l-0.6-0.7c7.4-8.7,8-20,8-30.6v-20
						l11.4,4H71l4.7-5.3l8.6,7.1c-0.5,0.5-1.3,1-2.8,1.3v30.2c0,0.9,0.1,1.3,0.6,1.3h1c0.4,0,0.7-0.2,1.1-0.9
						c0.7-1.3,2.1-6.1,3.2-10.4h0.8L88.6,78.4L88.6,78.4z M48.4,32.4h27.6l5.5-7.8c0,0,6.3,5.3,9.9,8.8c-0.2,0.9-1.1,1.3-2.2,1.3H49
						L48.4,32.4L48.4,32.4z M58.9,16.2c23.7,2.5,14.2,20.8,4.8,13.5c-0.3-4.7-2.7-9.8-5.5-13.1L58.9,16.2L58.9,16.2z"/>
					<path class="st0" d="M153.4,40.4c0.5-2.8,1-6.9,1.3-10.1h-6.8v9.6c0,2.1,0.1,2.1,2,2.1h9.6c0.6,0,1.7,0,2.8-0.3h0.7l0.4,0.1
						c3.2,1.3,3.8,2.1,3.8,3.7c0,4.4-2.3,6.3-11.1,6.3h-4.5c2.1,1.7,4.9,4.3,6.9,6.3c-0.2,0.9-1,1.3-2.2,1.3h-17.6v25.5h13.2
						l5.5-7.7c0,0,6.3,5.2,9.9,8.6c-0.2,0.9-1.1,1.3-2.3,1.3H99.3l-0.6-2.2h28V59.3h-18.9l-0.6-2.2H144l3.8-5.3
						c-10.2,0-11.2-1.5-11.2-11.8v-9.7h-15.4l13.4,6.4c-0.3,1.1-1.3,1.9-4,1.9c-6.1,8.8-15.8,15.2-31.6,17l-0.4-0.7
						c13.4-6.8,19.5-15.8,21.6-24.5h-11c1.2,6.4-0.9,11-4.1,12.8c-3.2,1.8-7.2,0.5-8.4-3.1c-1-3.5,1.1-6.1,4.1-7.4
						c2.4-1.6,5.2-5.6,4.5-10.1l0.9-0.1c1,2,1.8,3.9,2.4,5.7h20.9c-0.8-0.3-1.7-0.9-2.4-1.5c0.2-4-1.3-7.9-3-10.5l0.4-0.3
						c18.1,0.2,17.2,9.7,11.3,12.4H154l5.9-6l10.3,9.7c-0.6,0.8-1.4,1-3.2,1.1c-3.2,2.7-8.8,6.2-13.2,8.1L153.4,40.4L153.4,40.4z"/>
					<path class="st0" d="M248.1,79.3c2.2,5.8,2.8,9.3,0.9,10.5c-5,3.1-11.4-1.8-13.7-5.6c-1.6-2.7-3-5.5-4.2-8.4
						c-5.7,6-12.7,10.7-21.4,14.3l-0.6-1.1c8.2-5.5,14.5-12.2,19.4-20.8c-1.7-5.5-2.7-11.5-3.4-17.6c-0.5,0.2-1.1,0.5-1.8,0.5
						c-0.3,15.8-0.9,22.6-4.4,25.3c-2.1,1.6-4.7,2.1-7.8,2.1c0-2.1-0.2-4.2-1-5.4c-0.7-1.1-2-2.2-3.8-2.9c-2.8,7.7-8.2,15-18.4,20.4
						l-0.6-0.6c7.3-8.2,10.1-18.1,11.1-27.8c-4,3.6-9.7,8.4-17.4,14c-0.3,1.1-1.2,2.1-2.2,2.4l-5.3-12.7c1.7-0.4,4.6-1,8-1.9V40.7
						h-6.2l-0.6-2.2h6.8V17.3l13.6,1.2c-0.2,1.1-0.7,1.9-2.9,2.2v15.9l3-5.5c0,0,1.8,2.1,3.8,4.4v-6.4l12,4.1h13.1
						c-0.2-5.2-0.2-10.6-0.2-16.2l13.2,1.4c0,0.4-0.2,0.8-0.5,1.2c14.4-0.2,13.1,8.5,8,10.1c1.7,1.4,3.8,3,5.4,4.4
						c-0.2,0.9-1,1.3-2.2,1.3h-13.6c0.1,5.9,0.4,11.6,1.2,17c1-3.2,2-6.7,2.8-10.3l12,4.1c-0.4,1-1.2,1.5-3.2,1.4
						c-2.4,7-5.1,13.2-8.3,18.5c1.1,3,2.5,5.9,4.2,8.3c0.8,1.3,1.3,1.3,2.1-0.1c1.2-2.1,3.1-6,4.5-9.4l0.8,0.2L248.1,79.3
						L248.1,79.3z M192.1,61.4c2.1-0.6,4.3-1.2,6.5-1.8c0.2-3.3,0.3-6.6,0.3-9.8v-9.1h-6.8L192.1,61.4L192.1,61.4z M209.2,49.8
						c0,5.9-0.3,12.8-2.6,19.5c1.7,0.1,3.4,0.2,4.2,0.2c0.6,0,0.9-0.1,1.2-0.5c1.1-1.4,1.5-7,1.7-19.3h-4.4
						C209.2,49.6,209.2,49.8,209.2,49.8z M224.8,48.5c-0.4-4.2-0.7-8.5-0.9-13.1h-14.7v12h3.7l4.8-4.7L224.8,48.5L224.8,48.5z
						 M239,28.9c-0.6-3-2.4-6.3-4-8.5c-0.3,0.2-0.6,0.2-1,0.2c-0.1,4.1-0.2,8.4-0.2,12.6h2l3.3-4.3L239,28.9L239,28.9z"/>
					<path class="st0" d="M259.9,42.7c-1.8,1.5-3.7,2.8-5.6,4l-0.6-0.5c5.6-8.2,10.1-22.1,11.3-30.5l14.2,4.4
						c-0.3,1.1-1.1,1.7-3.3,1.9c-0.2,0.5-0.5,1-0.7,1.5c20.8,4.4,14.7,20.4,5.9,15.1c-1.4-4.1-4.4-8.7-7.4-12.4
						c-3.1,5.4-7.4,10.9-12.7,15.5h11.3l4.2-5.8c0,0,4.8,4,7.6,6.7c-0.2,0.9-1,1.3-2.1,1.3h-21.8L259.9,42.7L259.9,42.7z
						 M288.8,58.5c-0.6,0.7-1.5,1-3.2,1.1c-2.5,4.4-6.6,9.7-11.2,13.7c11.6,8.1,5,20-3.3,14.4c-1.7-6.7-6.3-14.2-10.9-19.2l0.6-0.5
						c4.7,0.9,8.4,2.3,11.3,3.9c1.3-4.8,2.3-10.2,2.8-14.6h-17.6l-0.7-2.2h17.5l5.3-5.4L288.8,58.5L288.8,58.5z M315,74.3
						c20,3.9,13.9,20.3,4.2,15.1c-2.1-5.5-6.7-11.5-10.7-15.4l0.6-0.5c1.7,0.1,3.2,0.2,4.6,0.5v-2.8h-12.9v0.9
						c0,0.4-0.5,0.9-1.4,1.4l9.4,5.2c-0.4,0.6-1.2,0.8-2.5,0.6c-4.8,4.7-14.9,9.5-23.7,11.4l-0.5-0.9c5.3-3.5,10.7-9.5,13.9-14.7
						c-1.2,0.3-2.5,0.6-3.9,0.6h-1.6V29.1l9.7,3.9c0.1-2.3,0.1-5.5,0.1-8.2h-12.7l-0.6-2.2h26.1l5.5-7.2c0,0,6.3,4.8,10.1,8.2
						c-0.2,0.9-1.1,1.3-2.3,1.3h-14.7c-2.9,3.1-6.3,6.4-9.3,8.5h10.9l4.7-5l9.3,7.1c-0.4,0.5-1.3,1.1-2.6,1.4v34.7
						c-0.1,0.6-5.2,2.7-8.8,2.7L315,74.3L315,74.3z M300.9,35.6v9.6h12.9v-9.6C313.8,35.6,300.9,35.6,300.9,35.6z M313.8,47.4h-12.9
						v9.7h12.9V47.4z M313.8,69.1v-9.7h-12.9v9.7H313.8z"/>
					<path class="st0" d="M364.5,80.8c0,6.2-1.2,9.4-10.4,10.2c-0.1-2.7-0.4-4.9-1.2-6.2c-0.9-1.3-2.1-2.2-4.9-2.8v-1.1
						c0,0,5.1,0.4,6.3,0.4c1.1,0,1.4-0.5,1.4-1.4v-25c-3,0.9-6.3,1.8-9.9,2.8c-0.2,11.7-1.5,24.4-12.5,33.6l-1-0.6
						c4.3-8.7,4.8-19.7,4.9-30.7l-0.4,0.1c-0.5,1-1.4,1.7-2.4,1.8l-2.3-10c1.4,0,3.1,0,5.1-0.1V24.5l7.7,2.8c0.2-3.3,0.4-8,0.5-11.2
						l13.2,2.5c-0.3,1.3-1.4,1.9-3.2,2.1c-1.9,2.1-4.8,5.2-7.1,7.5h6.6l3.9-4.4l8.2,6.4c-0.4,0.5-1.4,1-2.6,1.4v18.4l4.3-0.5
						l0.1,1.1c-1.4,0.5-2.9,1-4.4,1.5L364.5,80.8L364.5,80.8z M345.9,51.4c3.1-0.2,6.4-0.5,9.9-0.8V30.3h-9.9
						C345.9,30.3,345.9,51.4,345.9,51.4z M347.1,32.8c14.8,8.9,4.8,20.1,1.1,13.9c0.3-3.2,0.1-9.2-2.1-13.3L347.1,32.8L347.1,32.8z
						 M347.7,57.8c14.3,10.5,3.6,21.2,0.2,14.8c0.5-3.4,0.6-9.8-1.4-14.3L347.7,57.8L347.7,57.8z M405.4,78.4c2.1,1.1,2.5,2.1,2.5,4
						c0,3.6-3.2,5.7-9.6,5.7h-2.9c-6,0-6.7-2.1-6.7-7.8V46.3h-8.2v13.8c0,10.3-1.4,23.3-17.3,31.3l-0.6-0.7c7.4-8.7,8-20,8-30.6v-20
						l11.4,4h5.9l4.7-5.3l8.6,7.1c-0.5,0.5-1.3,1-2.8,1.3v30.2c0,0.9,0.1,1.3,0.6,1.3h1c0.4,0,0.7-0.2,1.1-0.9
						c0.7-1.3,2.1-6.1,3.2-10.4h0.8L405.4,78.4L405.4,78.4z M365.2,32.4h27.6l5.5-7.8c0,0,6.3,5.3,9.9,8.8c-0.2,0.9-1.1,1.3-2.2,1.3
						h-40.1L365.2,32.4z M375.7,16.2c23.7,2.5,14.2,20.8,4.8,13.5c-0.3-4.7-2.7-9.8-5.5-13.1L375.7,16.2L375.7,16.2z"/>
					<path class="st0" d="M438.8,78.2c4.6,0.7,10.1,0.9,16.6,0.9c7,0,24.5,0,32.1-0.2v0.9c-4,0.9-5.9,4.8-6,8.9h-26.4
						c-17,0-26.5-2.9-32.2-14.7c-2.1,7.4-5.5,14.6-10.9,20l-0.9-0.6c4.8-11.5,6-28.4,5.5-40.6l11.8,2.2v-6.9l12.8,1.3
						c-0.2,1-0.6,1.7-2.5,1.9v10.4h0.1l4.5-6.8c0,0,5.1,4.7,8,7.8c-0.2,0.9-1,1.3-2.1,1.3h-10.5L438.8,78.2L438.8,78.2z M462,73.5
						c-8.4,0-10.6-1.8-10.6-9.1V46.6c-0.3,0.5-1.1,0.8-2,0.8h-36.5l-0.6-2.2h13.8V32.5h-10.5l-0.6-2.2h11.2V16l13.2,1.1
						c-0.1,1-0.5,1.7-2.4,1.9v9.8l3.6-4.9c0,0,5.5,4.4,8.6,7.4c-0.2,0.9-1,1.3-2.1,1.3h-10.1v12.7h0.7l5-6.7c0,0,5.5,4.4,8.8,7.5
						V20.7L463,25h7.2l4.8-5.4l10.1,7.7c-0.5,0.7-1.7,1.5-3.4,1.8v19.6c-0.1,0.5-5.5,2.3-8.9,2.3h-1.8v-4.8H462v15.5
						c0,1.4,0.5,1.9,2.6,1.9h5.9c1.9,0,3.6-0.1,4.7-0.1c1-0.1,1.5-0.3,2.1-1.3c1-1.6,2.5-6.2,4.1-11.5h0.8l0.3,12.1
						c2.7,1.2,3.4,2.5,3.4,4.2c0,4.4-4.1,6.3-16.6,6.3L462,73.5L462,73.5z M428.5,56.3c-0.5,0.5-1.3,0.8-2.5,0.9
						c-0.4,4.1-1,8.5-2.1,12.9c1.4,1.7,2.9,3.1,4.5,4.3V56.3z M462,27.2V44h9.1V27.2H462z"/>
					<path class="st0" d="M564.3,81.5c2.5,3.1,3.2,5.4,2,7.3c-2.3,3.7-7.7,2.6-11.6,0.4c-12.4-5.9-16.5-19-17.7-34h-5.2v32.5
						c0,0.9-4.9,3.5-9,3.5h-2.1v-36h-6.4c-0.2,13.5-3.8,28.7-22.6,36.1l-0.5-0.6c10.7-9.6,12.3-23.3,12.3-35.5h-11.6l-0.7-2.2h12.4
						V40.8c-3.8,1.3-7.9,2.3-12,3.1l-0.3-0.8c7.6-4.3,15.9-11.5,19.8-16.6l9.7,5.6v-5.5l13.7,1.3c-0.2,1-0.7,1.7-2.6,2.1v23h4.1
						l4.8-5.2l9.6,7c-0.5,0.5-1.7,1.1-3.1,1.3c0.1,2.2,0.3,4.6,0.8,6.9c1.3-0.1,2.6-0.1,3.7,0c0.9-3.1,1.7-7,2.2-9.3l10.5,5.5
						c-0.3,0.7-1,1.1-2.9,0.9c-1.3,1-3.6,2.2-5.9,3.4c11.2,2.9,7.4,13.5,0.2,10.5c-1.3-3.2-4.5-6.8-7.4-9.3
						c1.5,6.6,4.8,12.6,10.7,14.8c1.2,0.5,1.7,0.4,2.1-0.5c1-1.8,1.9-4.4,2.8-7.1l0.8,0.1L564.3,81.5L564.3,81.5z M496.7,24.9
						l-0.7-2.2h39.6l4.7-5.1l9.6,6.8c-0.5,0.5-1.7,1-3,1.3c0.1,1.4,0.2,2.7,0.5,4c1.4-0.2,2.7-0.2,3.8-0.2c1.3-2.7,2.8-6.6,3.6-8.8
						l9.1,6.5c-0.4,0.6-1.1,1-2.8,0.5c-1.3,0.6-3.5,1.4-5.6,2.2c10.3,2.2,6.7,12.5-0.3,9.7c-1.3-3.1-4.6-6.7-7.4-8.8
						c1.4,5.9,4.8,11.5,11,13.3c1.2,0.4,1.6,0.2,2.1-0.5c1-1.7,1.9-4.1,2.7-6.7l0.8,0.2l-0.4,8.6c2.5,2.7,3.2,4.8,2.2,6.9
						c-2.1,3.8-7.4,3.1-11.6,1.1c-12.2-5-16.5-15.8-17.8-28.9L496.7,24.9L496.7,24.9z M520.7,53V34.7c-0.6,0.1-1.4,0-2.4-0.2
						c-2.5,1.5-5.7,3-9.3,4.4l8,0.7c-0.2,1-0.8,1.9-2.8,2.1V53L520.7,53L520.7,53z"/>
					<path class="st0" d="M625.2,51.3l9.6,8.1c-0.6,0.7-1.7,1.3-3.4,1.5c-1.3,15.2-3.8,24.5-8.6,27.9c-3,2.1-6.3,3-12.6,3
						c0.1-3.1-0.4-5.7-2.1-7.3c-1.8-1.7-5.7-3.2-10.1-4.1v-0.9c5,0.4,12.3,0.8,14.2,0.8c1.4,0,2.1-0.2,2.9-0.7c2.2-1.7,4-9.6,5-20.7
						h-15.8l-3.5,4.4l-9.6-5.2c0.6-0.7,1.6-1.3,2.5-2c1-5.7,2.1-15.8,2.4-20.8l12.2,4.6h11V24.7h-26.6l-0.7-2.2h26.5l4.8-5.1
						l9.8,7.4c-0.4,0.5-1.3,1.2-2.8,1.5v17.5c-0.1,0.6-5.6,2.5-9.2,2.5h-1.9v-4H606c-0.5,4.2-1.3,10.2-2,14.5h15.4L625.2,51.3
						L625.2,51.3z M659.8,18.1c-0.2,1.1-0.7,2-2.9,2.3v66.7c0,1.2-5.1,4-9.6,4h-2.2V16.7L659.8,18.1z"/>
					<path class="st0" d="M675.4,42.7c-1.8,1.5-3.7,2.8-5.6,4l-0.6-0.5c5.6-8.2,10.1-22.1,11.3-30.5l14.2,4.4
						c-0.3,1.1-1.1,1.7-3.3,1.9c-0.2,0.5-0.5,1-0.7,1.5c20.8,4.4,14.7,20.4,5.9,15.1c-1.3-4.1-4.4-8.7-7.4-12.4
						c-3.1,5.4-7.4,10.9-12.7,15.5h11.3l4.2-5.8c0,0,4.8,4,7.6,6.7c-0.2,0.9-1,1.3-2.1,1.3h-21.8L675.4,42.7L675.4,42.7z
						 M704.4,58.5c-0.6,0.7-1.5,1-3.2,1.1c-2.5,4.4-6.6,9.7-11.2,13.7c11.6,8.1,5,20-3.3,14.4c-1.7-6.7-6.3-14.2-10.8-19.2l0.6-0.5
						c4.7,0.9,8.4,2.3,11.3,3.9c1.3-4.8,2.3-10.2,2.8-14.6H673l-0.7-2.2h17.5l5.3-5.4L704.4,58.5L704.4,58.5z M730.6,74.3
						c20,3.9,13.9,20.3,4.2,15.1c-2.1-5.5-6.7-11.5-10.7-15.4l0.6-0.5c1.7,0.1,3.2,0.2,4.6,0.5v-2.8h-12.9v0.9
						c0,0.4-0.5,0.9-1.4,1.4l9.4,5.2c-0.4,0.6-1.2,0.8-2.5,0.6c-4.8,4.7-14.9,9.5-23.7,11.4l-0.5-0.9c5.3-3.5,10.7-9.5,13.9-14.7
						c-1.2,0.3-2.5,0.6-3.9,0.6H706V29.1l9.7,3.9c0.1-2.3,0.1-5.5,0.1-8.2h-12.7l-0.6-2.2h26.1l5.5-7.2c0,0,6.3,4.8,10.1,8.2
						c-0.2,0.9-1.1,1.3-2.3,1.3h-14.7c-2.8,3.1-6.3,6.4-9.3,8.5h10.8l4.7-5l9.3,7.1c-0.4,0.5-1.3,1.1-2.6,1.4v34.7
						c-0.1,0.6-5.2,2.7-8.8,2.7L730.6,74.3L730.6,74.3z M716.4,35.6v9.6h12.9v-9.6C729.3,35.6,716.4,35.6,716.4,35.6z M729.3,47.4
						h-12.9v9.7h12.9V47.4z M729.3,69.1v-9.7h-12.9v9.7H729.3z"/>
					<path class="st0" d="M794.9,27.8c35.2,6.7,28.1,31.2,16,23.9c-1-2.8-2.6-5.7-4.4-8.6c-11.2,2.7-27.6,5.9-47.9,9.3
						c-1,1-2,1.7-3,2l-3.3-13c0,0,2.5-0.5,3.6-1.1c7.5-3.5,19-16.9,22.3-24.5l15.6,5.9c-0.3,0.9-1.3,1.6-3.1,1.5
						c-6.2,6.2-17.7,13.6-27.8,18.3c10.4,0,25.8-0.2,42-0.6c-3.2-4.6-7-9-10.7-12.4L794.9,27.8L794.9,27.8z M804.2,52.3l11.3,8.7
						c-0.5,0.7-1.7,1.6-3.6,2v25c-0.2,0.6-6.2,2.5-10.1,2.5h-2.1v-7h-27v3.6c0,1.2-5.4,3.9-10.4,3.9h-1.7V53.7l12.8,4.8h25.4
						L804.2,52.3L804.2,52.3z M799.7,81.3V60.7h-27v20.6H799.7z"/>
					<path class="st0" d="M827.5,35.5c21.1,4.4,11.2,20,3.1,12.9c-0.1-4.4-1.9-9.2-3.8-12.5L827.5,35.5L827.5,35.5z M844.3,41.5
						c-1.5,7.6-3.6,18.1-4,21.1c-0.3,2.3-0.6,4.9-0.5,6.9c0.2,4.4,3.6,7.4,3.2,14.9c-0.2,4.1-3,6.8-6.8,6.8c-1.8,0-3.8-1.1-4.4-4.2
						c1.6-8.5,1.3-16.6-0.4-17.8c-1.1-0.8-2.3-1.1-4-1.3v-1.5h3.3c1.1,0,1.4,0,2.3-1.6c1-1.7,4.5-10.8,10.8-27.2L845,38l-0.5,2.9
						c0.4-0.2,1.2-0.4,1.6-0.6c1.9-1.3,4-3.6,5.9-6.3l-2.7,1.1c-0.5,0.9-1.1,1.5-1.8,1.8l-3.2-7.4c-1.7,2.5-5.5,3.5-9.1,0.5
						c-0.2-4.6-2.1-9.4-3.9-12.9l0.6-0.4c11.6,2.4,14.3,8,12.9,11.7c0.4-0.2,0.8-0.2,1-0.4c2.7-2.1,5.9-9.1,6.9-12.5l9.3,4.1
						c-0.3,0.7-1.2,1.4-2.8,1.2c-2.7,2.9-6.7,6.3-10.4,8.7h6c1.1-1.9,2.1-3.6,2.6-5l8.2,5.4c-0.4,0.6-1.3,1.1-2.8,0.8
						c-1.3,1.4-3.1,3.1-5.1,4.7l0.5-0.2c11.6,5.6,5.2,13.9,1,9.6c0-0.7,0-1.5-0.1-2.3c-2.8,1.3-6.7,2.8-10.4,4.4
						c-0.5,0.6-1,1.1-1.6,1.3L844.3,41.5L844.3,41.5z M903.3,76.9c-0.6,0.7-1.5,1.2-3.1,1.3c-1.3,6-3.1,9.7-6.7,11.6
						c-2.5,1.3-6,1.7-10.8,1.7c0-2.6-0.3-4.5-1.8-5.9c-1.5-1.6-4.5-2.6-8.3-3.3v-0.9c3.8,0.3,9.8,0.6,11.5,0.6
						c1.3,0,1.9-0.1,2.5-0.4c1-0.5,1.8-2.5,2.5-5.2h-29.3l-3.4,4l-9.4-5.3c0.7-0.7,1.7-1.3,2.8-1.9c1.3-3.6,2.7-9.1,3.2-12l11.6,5.5
						h22.3v-5.5h-36.4l-0.6-2c-2.6,2.3-7.3-0.7-3.8-5.2c1.6-1,2.5-3.3,2.6-6.1h1.1c2.4,6.1,1.7,9.5,0.3,11.1h36l3.1-3.3l-0.2-0.2
						c0.6-2.9,0.4-6.5-0.1-8.9l1-0.2c5.7,4,5.5,8.1,3.6,9.7l7,5.2c-0.4,0.5-1.3,1.2-2.8,1.5v5.9c0,0.2-1.3,0.8-3.2,1.3L903.3,76.9
						L903.3,76.9z M857.5,35.8c-2.1,1.7-4.4,3.5-6.7,5c2.4-0.2,5.2-0.3,8.1-0.5C858.4,38.6,858,37,857.5,35.8L857.5,35.8z
						 M853.8,47.2c9.4,7,2.6,14.2-1,9.7c0.6-3.1,0.4-6.9-0.2-9.4C852.7,47.4,853.8,47.2,853.8,47.2z M858.2,45.7
						c11.1,5.4,5.5,13.4,1.4,9.4c0.1-2.9-1.2-6.7-2.4-9L858.2,45.7L858.2,45.7z M888.7,74.2l4.6-4.1c-1.6,0.4-3.2,0.6-4.6,0.6h-1.9
						v-1.7h-25c-0.5,1.7-1.2,3.6-1.8,5.2H888.7L888.7,74.2z M873.9,25.2l3.2-4.1c0,0,3.6,2.9,5.9,5.1c-0.2,0.9-1,1.3-2.1,1.3h-18.5
						l-0.6-2.2L873.9,25.2L873.9,25.2z M879.7,28.9c0,0,1.3-0.3,2-0.6c3-2.1,6.7-9.1,7.8-12.6l9.3,4.1c-0.3,0.7-1.2,1.4-2.8,1.3
						c-2.8,2.9-7.2,6.3-11,8.6h6.4c1.2-1.9,2.1-3.6,2.7-5l8.2,5.5c-0.4,0.6-1.4,1.1-3,0.7c-3.1,3.3-8.2,7.5-13,10.6
						c2.8-0.2,6-0.4,9.4-0.6c-0.5-1.7-1.3-3.2-2-4.4l1-0.4c12.8,4.8,6.7,13.8,1.9,9.5c0-0.8-0.2-1.7-0.3-2.5
						c-2.9,1.2-6.9,2.8-11,4.3h0.2c6.7,16.2-9.5,12.9-3.6,5.4c1.3-0.8,2.2-2.5,2.5-4.7c-0.3,0.4-0.7,0.7-1.1,0.9l-1.6-3.6
						c-0.3,0.2-0.7,0.4-1.2,0.5v9.5c-0.1,0.6-3.1,1.8-5,1.8h-1v-2.3h-3.6v1.4c0,0.4-1.8,1.8-4.7,1.8h-1V40.6l6.6,2.8h2.1l2.7-2.6
						l4.4,3.3l-1.1-2.5c0,0,1.3-0.3,2-0.7c2.1-1.4,4.5-4,6.7-7l-3.6,1.6c-0.5,0.9-1.1,1.4-1.7,1.7l-1.8-4.2c-0.2,0.6-1,0.9-1.8,0.9
						h-3c1,0.8,3.4,2.7,5,4.2c-0.2,0.9-0.9,1.3-2,1.3h-14.5l-0.6-2.2h8.7l2.6-3.2h-10.7l-0.6-2.2h8.7l2.9-3.6c0,0,2.8,2.2,4.9,4.1
						L879.7,28.9L879.7,28.9z M865.6,15.7c15,1.6,8.2,12.6,2.3,8.1c-0.2-2.7-1.6-5.9-3.1-7.6L865.6,15.7L865.6,15.7z M874.4,52.5v-7
						h-3.6v7H874.4z M894.6,45.2c11.2,5.3,5.5,13.5,1.4,9.4c0.1-2.9-1.2-6.7-2.4-9L894.6,45.2L894.6,45.2z"/>
					<path class="st0" d="M970.8,38.7c0,0,6.7,4.8,10.8,8.2c-0.2,0.9-1.2,1.3-2.3,1.3h-54.1v6.9c0,10-1.5,26.8-18.2,36.1l-0.5-0.6
						c6.9-11,7.4-25,7.4-35.6V41.6l7.8,2.7c6.2-1.9,12.8-4.4,18.8-7.2c-4.7-2-9.9-4-15.3-5.6l0.2-1c10.2,0.1,18,1,23.7,2.4
						c2.7-1.4,5.2-2.9,7.2-4.4h-45.4l-0.6-2.2h33.4c-0.5-0.2-1-0.4-1.6-0.7c-0.5-3.6-2.9-7.3-5.3-9.3l0.5-0.4
						c18-2.9,17.3,8.1,11.2,10.4h15.7l5.9-7.2c0,0,6.7,4.8,10.7,8.2c-0.2,0.9-1.1,1.3-2.3,1.3h-18.1l8.2,4.7
						c-0.5,0.8-1.3,1.2-3.1,0.9c-1.7,1-3.9,1.9-6.2,2.8c5.9,3.8,5.1,8,1.9,9.1h3.7L970.8,38.7L970.8,38.7z M969.8,78.7
						c0,0,6.7,4.9,10.8,8.3c-0.2,0.9-1.2,1.3-2.3,1.3h-58.1l-0.6-2.2h25.1V74.7h-14.2l-0.6-2.2h14.8v-9.3h-8.9
						c-2.8,3.6-6.2,6.6-9.7,8.7l-1-0.6c2.5-5.3,4.6-13.4,5.5-21.1l13.1,3.7c-0.3,1-1.3,1.7-3.1,1.7c-1,1.8-2,3.6-3.1,5.2h7.2V49.6
						l13.9,1.2c-0.2,1-0.6,1.7-2.6,2.1v8h3.6l5.5-6.7c0,0,5.9,4.3,9.8,7.6c-0.2,0.9-1.1,1.3-2.3,1.3h-16.5v9.3h3l5.2-6.3
						c0,0,5.8,4.3,9.3,7.3c-0.2,0.9-1,1.3-2.2,1.3h-15.3v11.4h7.9L969.8,78.7L969.8,78.7z M957.8,46c-2.2-1.5-5.6-3.4-9.7-5.5
						c-7.5,2.1-15.8,3.7-23.7,4.6l2.5,0.9H957.8L957.8,46z"/>
					<path class="st0" d="M1050.7,25.9c0,0,6,4.1,9.8,7.1c-0.2,0.9-1.1,1.3-2.3,1.3h-26.5l13.2,3.4c-0.2,1-1.2,1.6-2.9,1.5
						c-2.3,2.1-5.9,4.6-9.4,6.7h8.8l5.5-6.5c0,0,6.1,4.4,9.9,7.4c-0.2,0.9-1.1,1.3-2.2,1.3h-25.5V55h7.8l5.2-6.2
						c0,0,5.9,4.1,9.6,7.1c-0.2,0.9-1.1,1.3-2.3,1.3h-20.3v7.7h15l5.6-6.8c0,0,6.3,4.5,10.1,7.8c-0.2,0.9-1.1,1.3-2.2,1.3h-28.5
						v21.6c-0.1,0.6-3.5,2.5-9.3,2.5h-2.1V76.6c-0.5,0.1-1.3,0.1-2.1-0.1c-8,7-20.3,10.7-29.5,11.8l-0.3-0.8
						c7.2-4,15.6-11.6,21.4-20l10.5,7v-7.4h-29.4l-0.6-2.2h30v-7.7h-21.7l-0.6-2.2h22.3v-6.9h-25.7l-0.6-2.2h20.9
						c-1.2-0.2-2.4-0.7-3.5-1.7c0.1-3.3-1.3-7-2.8-9.1l0.6-0.4c15.8,1,13.2,10.2,7.5,11.2h14.4c1.3-3.6,2.4-8.2,3-11.6h-43.6
						l-0.6-2.2h14.4c-0.8-0.2-1.6-0.7-2.4-1.4c0.1-4.4-1.8-9-4.4-12l0.6-0.4c16.4,1.7,15.3,11.7,10,13.7h6.2V15.9l12.3,1
						c-0.1,1-0.6,1.7-2.5,2V32h4V15.9l12.4,1c-0.2,1-0.6,1.7-2.5,2V32h2.1c1.5-4.2,2.8-10.1,3.5-14.4l13.2,3.9c-0.3,1-1.2,1.6-3,1.4
						c-2.8,2.9-7.6,6.4-12,9.1h6.3L1050.7,25.9L1050.7,25.9z M1030.2,71.5c45.8,3.8,26,23.4,17.2,14.9c-2.8-3.9-8.6-9.7-17.6-14
						L1030.2,71.5L1030.2,71.5z"/>
					<path class="st0" d="M1130.8,36.4c0,0,6.5,5.4,10.2,9c-0.2,0.9-1.1,1.3-2.2,1.3h-5.5v41.5c-0.1,0.6-3.4,3-9.2,3h-2.1V46.6h-5.3
						v3.1c0,14.3-1.4,31.1-21.2,41.4l-0.7-0.8c10-11.6,10.9-26.5,10.9-40.9v-1.9c-0.3,0.1-0.7,0.2-1.1,0.2h-14.5v9.3h1.9l4.4-6.3
						c0,0,5,4.3,7.9,7.2c-0.2,0.9-1,1.3-2.1,1.3h-12.1v3.2l0.2-0.1c19.3,7.3,10,22.3,2.7,15.2c0.2-4.6-1.1-9.7-2.9-13.6v24.7
						c0,0.6-3.2,2.5-8.9,2.5h-2V70.5c-3.1,5.2-7.4,10.9-13,14.9l-0.8-0.8c3.6-6.7,5.8-16.7,6.5-23.2l7.3,3.2v-5.5h-12l-0.6-2.2h12.6
						v-9.3h-13.6l-0.6-2.2h11.9c-0.9-0.3-1.9-0.9-2.8-1.8c0.2-4.4-1-9.4-2.3-13.1h-4.9l-0.6-2.2h15.1c-0.6-0.3-1.1-0.6-1.7-1.1
						c0-4-1.7-8.2-3.5-10.9l0.6-0.4c15.5,1.4,15.1,9.8,10.4,12.4h4.1l4.5-6.3c0,0,5.2,4.3,8.2,7.2c-0.2,0.9-1,1.3-2.1,1.3h-10.5
						l10.4,3.2c-0.3,1-1.2,1.6-2.9,1.4c-2.5,3-6.3,7-10.1,10.3h5l4.7-6.6c0,0,4.3,3.6,7.4,6.6v-23l10.7,3.3c4.7-3.1,9.3-7.1,12-9.9
						l11.5,9.1c-0.9,0.9-2.6,1.1-5.3,0.3c-4.4,1.4-11.2,2.8-17.8,3.6v15.5h8.4L1130.8,36.4L1130.8,36.4z M1073.4,30.5
						c12.6,5.2,10.8,13.5,6.3,14.9h6.5c1.3-4.5,2.3-10.5,2.9-14.9H1073.4z"/>
					<path class="st0" d="M1152.9,68.3c3.6,8.6,3.5,15.1,0.9,18.4c-2,2.5-7.1,2.1-8.6-1.3c-1.3-3.1,0.1-5.9,2.7-7.6
						c1.8-1.7,4.5-5.9,4-9.5H1152.9z M1179.5,38.4c-0.5,0.6-1.6,1.1-3.2,0.8c-4.8,5.5-14.1,13.3-22.5,18.5c4.2-0.2,9.4-0.5,14.8-0.9
						c-0.7-2.5-1.6-4.9-2.5-6.9l0.8-0.4c19.2,6.6,10.1,20.9,2.9,14.2c-0.1-1.3-0.2-2.8-0.6-4.2c-4.5,2.2-10.8,5.1-18.1,7.9
						c-0.6,0.9-1.4,1.5-2.2,1.8l-4.1-11.3c0,0,2.3-0.5,3.2-1.1c3.6-2.4,8.2-7.5,12.2-13.1c-2.5,1.2-5.5,2.5-8.6,3.7
						c-0.6,1.2-1.5,2-2.4,2.4l-4.7-11.2c0,0,1.9-0.5,2.7-1c3.9-3.5,9.3-15.2,10.8-21.6l12.7,6.6c-0.3,0.7-1.2,1.2-2.7,1
						c-3.7,4.8-10.1,10.9-15.9,15c3.3,0,7.4-0.1,11.5-0.2c1.8-2.9,3.3-5.7,4.2-8L1179.5,38.4L1179.5,38.4z M1159.3,67.2
						c16.4,10.2,5.3,23.5-1,15.4c1.1-5.1,0.9-10.8,0.2-15.1L1159.3,67.2L1159.3,67.2z M1167.7,66c19.3,5.9,10.2,20.7,2.9,13.8
						c0.2-4.6-1.6-9.8-3.7-13.4L1167.7,66L1167.7,66z M1215.8,77c3,1.2,3.8,2.4,3.8,4.3c0,4.5-4.3,6.2-19.2,6.2h-8.9
						c-9.4,0-12-1.7-12-9.1V42.6l12,4.4h11.6V25.1h-24.8l-0.7-2.2h24.6l5.2-5.9l10.8,8.3c-0.6,0.8-1.9,1.7-4,2.1v26.6
						c-0.1,0.6-5.6,2.5-9.2,2.5h-1.8v-7.4h-12.7v26.9c0,1.4,0.6,1.8,3.2,1.8h8.1c2.5,0,4.9,0,6.1-0.1s1.9-0.3,2.6-1.2
						c1-1.4,2.5-4.9,4.3-9.7h0.8L1215.8,77L1215.8,77z"/>
					<path class="st0" d="M1296.1,77c2.9,1.3,3.6,2.6,3.6,4.9c0,4.6-3.8,6.9-16.8,6.9h-7c-8.9,0-11.1-2-11.1-9.7V46.2h-8.3
						c-1.3,20.8-7.8,37.6-33.3,45l-0.3-0.7c17.1-10.8,20.4-26.5,20.6-44.3h-18.8l-0.6-2.2h56.9l6.2-8.1c0,0,7.1,5.4,11.2,9
						c-0.2,0.9-1.2,1.3-2.4,1.3h-19.5V76c0,1.3,0.5,1.7,2.4,1.7h5.4c1.6,0,3.1,0,4.1-0.1c1,0,1.5-0.2,2.1-1.3
						c1.1-1.7,2.7-6.3,4.6-12h0.8L1296.1,77L1296.1,77z M1232.8,26.3l-0.6-2.2h42.8l6-7.6c0,0,6.8,5.1,10.8,8.5
						c-0.2,0.9-1.1,1.3-2.3,1.3H1232.8z"/>
				</g>
			</g>
		</g>
	</g>
</g>
</svg>
