<?xml version="1.0" encoding="UTF-8"?>
<svg id="_圖層_2" data-name="圖層 2" xmlns="http://www.w3.org/2000/svg" viewBox="0 0 1465.04 124.43">
  <defs>
    <style>
      .cls-1 {
        fill: #fff;
      }

      .cls-2 {
        fill: #231815;
      }
    </style>
  </defs>
  <g id="_圖層_1-2" data-name="圖層 1">
    <rect class="cls-1" x="0" y="0" width="1465.04" height="124.43" rx="62.22" ry="62.22"/>
    <g>
      <path class="cls-2" d="M81.04,39.26c1.09,3.54,.56,6.2-.35,7.42-.63,.81-2,1.05-2.56,.25-.42-.74-.07-1.61,.6-2.21,.98-.95,1.89-3.4,1.71-5.46h.6Zm-2.8-4.38s.7-.17,.98-.38c1.72-1.44,3.75-3.96,5.5-6.44-1.29,.39-2.8,.88-4.38,1.26-.25,.35-.52,.56-.77,.67l-1.37-3.36s.67-.14,.95-.35c1.89-1.96,4.27-6.97,5.08-9.63l3.68,1.82c-.18,.31-.56,.6-1.23,.52-1.47,2.35-3.99,5.64-6.3,7.81,1.44,.03,3.26,.03,5.15,0,.88-1.4,1.58-2.7,2.07-3.75l3.36,2.28c-.18,.28-.67,.49-1.33,.35-1.92,2.73-5.6,6.62-8.89,9.24,1.89-.1,4.48-.28,7.25-.52-.42-1.26-1.02-2.59-1.54-3.54l.42-.21c5.99,3.75,3.68,8.3,1.61,6.34-.04-.56-.1-1.12-.28-1.75-2,.63-4.87,1.51-7.91,2.31-.25,.39-.52,.63-.84,.74l-1.19-3.4Zm5.88,3.75c4.52,4.48,1.61,8.75-.18,6.51,.35-2.07,.1-4.62-.32-6.37l.49-.14Zm3.36-.7c5.25,2.56,2.77,6.48,.91,4.62,.07-1.47-.63-3.29-1.29-4.41l.39-.21Zm5.04,.81c1.02,3.36,.32,5.81-.67,6.9-.7,.7-2.03,.84-2.52,0-.35-.77,.07-1.51,.77-2.03,1.02-.84,1.96-2.98,1.82-4.9l.59,.03Zm1.72-4.13v1.36c0,.21-.77,.74-2.03,.74h-.38V19.62l2.84,1.19h2.52c.42-1.26,.91-3.05,1.26-4.27l3.85,.91c-.11,.49-.59,.77-1.33,.74-.67,.77-1.65,1.79-2.45,2.63h7.46l1.3-1.54,2.73,2.14c-.25,.32-.6,.49-1.37,.63v13.34c0,.18-.91,.7-2.1,.7h-.39v-1.47h-11.9Zm0-12.78v11.73h11.9v-11.73h-11.9Zm11.69,23.38c.81,.28,.94,.56,.94,1.05,0,1.08-1.12,1.54-5.95,1.54h-3.22c-2.66,0-3.12-.56-3.12-2.35v-8.19l3.57,.39c-.07,.42-.42,.74-1.05,.84v6.48c0,.46,.14,.56,1.19,.56h2.77c1.19,0,2.24,0,2.56-.04,.42-.03,.53-.07,.67-.42,.28-.49,.66-2.14,1.08-3.96h.46l.11,4.1Zm-10.99-16.49c.7-.7,1.44-1.58,2.1-2.66-.73-.59-1.44-1.15-2.07-1.61l.35-.39c.84,.35,1.57,.7,2.27,1.02,.52-.95,.98-1.93,1.37-3.01l3.05,1.19c-.18,.39-.6,.63-1.33,.53-.46,.77-.95,1.51-1.44,2.17,.77,.46,1.47,.91,2.07,1.33,.6-.88,1.12-1.79,1.58-2.8l2.94,1.58c-.18,.32-.66,.6-1.43,.42-.46,.74-.98,1.4-1.54,2.07,2.8,2.7,2,4.62,.39,3.75-.42-.7-1.05-1.47-1.82-2.31-1.65,1.44-3.4,2.49-5.25,3.19l-.42-.52c1.54-.91,3.12-2.21,4.45-3.85-.6-.63-1.26-1.19-1.96-1.75-.88,.84-1.86,1.58-2.87,2.14l-.42-.46Zm4.17,7.21c6.79,3.05,4.17,8.12,1.89,5.99,.04-1.93-1.12-4.27-2.28-5.74l.39-.25Zm6.62,2.21c6.97,3.54,4.52,8.75,2.17,6.65-.11-2.1-1.36-4.73-2.59-6.44l.42-.21Z"/>
      <path class="cls-2" d="M125.46,29.53c-1.16,.95-2.56,2.14-4.31,3.54v11.76c0,2.24-.42,3.61-4.1,3.99-.07-.98-.28-1.72-.73-2.17-.53-.53-1.4-.88-2.98-1.12v-.53s3.5,.25,4.24,.25c.63,0,.81-.17,.81-.7v-9.35c-.88,.7-1.79,1.4-2.8,2.14-.04,.42-.25,.81-.6,1.02l-1.82-3.22c1.02-.39,2.94-1.33,5.22-2.49v-6.97h-4.83l-.28-1.02h5.11v-8.12l4.03,.42c-.07,.49-.42,.84-1.26,.98v6.72h.98l1.58-2.17s1.82,1.51,2.87,2.63c-.07,.39-.42,.56-.91,.56h-4.52v5.57c1.33-.7,2.66-1.4,4.03-2.14l.28,.42Zm18.1,4.1c-.28,.32-.66,.39-1.5,.46-1.37,3.12-3.26,5.88-5.85,8.19,2.73,1.79,6.06,3.01,9.77,3.78l-.04,.42c-1.19,.18-2.06,1.02-2.49,2.31-3.68-1.16-6.69-2.73-9.1-4.97-3.08,2.24-6.97,3.96-11.76,5.08l-.28-.56c4.31-1.4,7.84-3.43,10.68-5.92-2-2.31-3.43-5.15-4.41-8.75h-2.62l-.32-1.02h13.41l1.71-1.61,2.8,2.59Zm-19.11-1.93c3.82-2.94,4.38-6.65,4.38-9.91v-4.13l3.08,1.26h5.39l1.4-1.51,2.77,2.35c-.25,.24-.66,.42-1.29,.52v6.86c0,.39,.07,.53,.59,.53h1.19c.46,0,.91,0,1.15-.04h.53c.21-.03,.49-.1,.67-.14h.31l.14,.03c.7,.28,.98,.49,.98,1.05,0,1.02-.88,1.54-4.03,1.54h-1.72c-2.1,0-2.38-.6-2.38-2.24v-7.95h-6.2v1.86c0,3.08-.66,7.6-6.62,10.33l-.35-.42Zm4.87,1.96c1.09,3.01,2.87,5.43,5.18,7.28,2-2.14,3.54-4.59,4.59-7.28h-9.77Z"/>
      <path class="cls-2" d="M158.71,25.12s1.96,1.61,3.18,2.8c-.07,.39-.46,.56-.94,.56h-11.9l-.25-1.02h8.09l1.82-2.35Zm-9.28,23.28c4.17-1.23,8.79-3.57,11.03-5.43l3.33,2.38c-.31,.31-.91,.39-1.79,.14-2.94,1.44-7.77,2.84-12.36,3.43l-.21-.52Zm.77-27.44l-.28-1.02h5.67l1.71-2.28s1.96,1.58,3.15,2.73c-.07,.39-.42,.56-.91,.56h-9.35Zm22.79,22.79v-1.05h-16v.95c0,.25-.91,.77-2.38,.77h-.49v-14.25l3.26,1.3h15.47l1.47-1.68,2.98,2.28c-.21,.28-.56,.49-1.3,.63v10.29c0,.18-1.09,.77-2.52,.77h-.49Zm-16-11.27v2.42h16v-2.42h-16Zm16,3.47h-16v2.35h16v-2.35Zm0,5.74v-2.35h-16v2.35h16Zm-.77-19.22c-.07,.39-.46,.77-1.19,.88-.1,.45-.21,.91-.39,1.33,1.54,1.54,4.62,2.91,10.26,3.68l-.04,.46c-1.3,.24-2.03,.66-2.17,2.1-4.83-1.12-7.25-3.15-8.51-5.22-1.15,1.96-3.78,3.78-10.5,5.15l-.31-.67c7.56-2.35,8.68-4.94,8.96-8.12l3.89,.42Zm-12.32,2.35c2.17-2,3.96-5.46,4.8-8.47l4.2,.81c-.1,.39-.35,.56-1.23,.52-.46,.81-.95,1.58-1.54,2.38h10.22l1.51-1.58,2.87,2.7c-.28,.28-.66,.31-1.37,.39-.94,1.02-2.62,2.56-3.92,3.4l-.46-.24c.46-.91,1.02-2.45,1.44-3.64h-11.1c-1.44,1.61-3.12,3.08-5.01,4.1l-.42-.35Zm7.42,18.87c16.49,1.02,11.87,6.83,8.96,4.66-1.75-1.37-4.76-3.01-9.1-4.13l.14-.52Z"/>
      <path class="cls-2" d="M203.41,17.52c-.11,.46-.56,.63-1.47,.7,3.15,4.34,9.21,7.63,15.09,9.77l-.07,.56c-1.3,.28-2.24,1.44-2.52,2.49-5.5-2.8-10.71-7.25-13.16-12.36-3.4,5.04-10.47,10.71-17.12,13.62l-.25-.46c5.88-3.47,12.88-10.54,14.7-15.47l4.8,1.16Zm9.14,26.71s2.24,1.72,3.6,2.98c-.1,.39-.46,.52-.94,.52h-30.07l-.28-.98h13.9v-10.75h-11.94l-.28-1.05h12.22v-5.43h-6.83l-.25-1.05h12.18l1.75-2.07s1.93,1.43,3.19,2.56c-.1,.39-.46,.56-.95,.56h-6.2v5.43h7.74l1.86-2.28s2.1,1.58,3.4,2.77c-.1,.39-.46,.56-.95,.56h-12.04v10.75h8.93l1.96-2.52Zm-21.84-6.86c7.67,4.1,4.66,9.84,2.1,7.28-.07-2.31-1.33-5.15-2.52-7.07l.42-.21Zm13.3,7.91c1.05-1.96,2.35-5.18,3.36-8.09l3.99,1.58c-.14,.38-.59,.67-1.33,.6-1.64,2.28-3.75,4.69-5.53,6.23l-.49-.32Z"/>
      <path class="cls-2" d="M233.86,46.79c-.04,.21-1.3,.77-2.1,.77h-.42v-2.45h-6.44v2.49c0,.21-.81,.84-2,.84h-.45v-11.73c-1.05,.49-2.1,.95-3.19,1.33l-.35-.45c3.22-1.61,6.34-3.85,8.79-6.37-1.19-.8-2.35-1.54-3.4-2.14-1.29,1.72-2.73,3.12-4.17,4.2l-.49-.39c1.96-2.38,3.99-6.23,5.15-10.26l3.54,1.29c-.17,.39-.56,.7-1.33,.63-.25,.49-.49,.94-.73,1.44h4.62l1.65-1.54,.38,.35c.21-.7,.49-1.79,.66-2.66h-10.96c.14,1.4-.25,2.56-1.16,3.19-1.65,1.16-3.22-.88-1.33-2.28,.63-.53,1.3-2,1.23-3.85l.53-.04c.28,.7,.46,1.33,.59,1.96h10.89l1.47-1.47,2.66,2.59c-.24,.25-.66,.32-1.29,.35-.7,.77-1.96,1.86-2.87,2.49l-.32-.14,2.24,2.1c-.31,.28-.77,.35-1.61,.39-.74,1.19-1.68,2.38-2.8,3.5,5.64,3.12,5.04,6.48,2.73,5.6-.88-1.26-2.48-2.77-4.31-4.17-1.86,1.54-3.96,2.94-6.23,4.03l2.28,.94h5.67l1.36-1.43,2.91,2.2c-.21,.28-.77,.53-1.4,.63v8.05Zm-8.19-19.74c-.32,.52-.67,1.02-.98,1.47,1.58,.46,2.91,.91,4.1,1.44,.81-.98,1.44-1.93,1.96-2.91h-5.08Zm5.67,17.05v-5.74h-6.44v5.74h6.44Zm-5.64-27.72c6.86,1.12,4.66,5.92,2.24,4.2-.28-1.4-1.47-3.01-2.59-3.96l.35-.25Zm7.18,32.1c2.84-1.65,6.06-4.34,7.63-6.58l3.26,1.89c-.17,.31-.59,.39-1.19,.18-2,1.86-5.95,3.92-9.38,4.94l-.31-.42Zm16.17-31.43s2.03,1.57,3.26,2.73c-.1,.38-.46,.56-.91,.56h-6.23c-.67,1.33-1.51,2.77-2.24,3.85h4.2l1.4-1.51,2.84,2.28c-.21,.25-.67,.49-1.26,.63v15.37c-.04,.21-1.33,.84-2.24,.84h-.42v-1.3h-7.88v.74c0,.31-1.05,.91-2.17,.91h-.42V22.92l2.77,1.26h1.93c.14-1.12,.28-2.59,.39-3.85h-6.06l-.28-1.05h11.59l1.75-2.24Zm-9.49,8.16v4.03h7.88v-4.03h-7.88Zm7.88,5.04h-7.88v4.06h7.88v-4.06Zm0,9.21v-4.1h-7.88v4.1h7.88Zm-2.59,2.59c9.24,2.28,7.67,8.19,4.73,6.55-.81-2.14-3.22-4.73-5.08-6.27l.35-.28Z"/>
      <path class="cls-2" d="M265.61,44.2c2.17,.77,4.94,.95,8.4,.95,3.12,0,10.5-.04,13.76-.1v.45c-1.05,.25-1.61,1.16-1.68,2.21h-12.18c-7.81,0-11.9-1.4-14.46-8.37-.73,3.5-2.03,6.97-4.27,9.45l-.42-.39c2.35-4.31,3.15-11.2,3.15-16.66l3.78,.77c-.14,.53-.52,.81-1.33,.84-.14,1.54-.35,3.22-.67,4.83,.91,2.1,1.96,3.61,3.33,4.66v-12.99l3.71,.42c-.1,.42-.35,.74-1.12,.84v4.1h1.54l1.58-2.14s1.79,1.54,2.8,2.59c-.1,.38-.42,.56-.91,.56h-5.01v7.98Zm-3.22-16.28v-4.97h-5.6l-.28-1.02h5.88v-5.36l3.92,.39c-.07,.45-.39,.8-1.23,.91v4.06h1.82l1.61-2.1s1.89,1.47,2.98,2.56c-.07,.39-.42,.56-.91,.56h-5.5v4.97h2.27l1.68-2.21s1.89,1.54,3.08,2.66c-.11,.39-.46,.56-.95,.56h-15.4l-.28-1.02h6.9Zm8.3-8.33l-.28-1.02h12.88l1.47-1.47,2.84,2.31c-.25,.28-.67,.46-1.33,.53-.25,5.11-.81,7.95-2.07,8.93-.84,.63-2.03,.95-3.4,.95,0-.74-.11-1.44-.59-1.82-.45-.38-1.65-.7-2.77-.91v-.56c1.19,.1,3.33,.25,3.92,.25,.56,0,.81-.07,1.05-.25,.63-.56,.98-2.94,1.19-6.93h-4.97c-.49,4.1-2.03,8.58-8.68,11.76l-.46-.49c5.08-3.57,5.92-7.67,6.16-11.27h-4.97Zm11.9,23.94v-2.35h-7.81v1.93c0,.28-1.19,.91-2.28,.91h-.42v-13.27l2.87,1.23h7.28l1.47-1.54,3.12,2.35c-.25,.28-.77,.56-1.47,.7v9.14c-.04,.24-1.37,.91-2.31,.91h-.46Zm0-3.36v-7.18h-7.81v7.18h7.81Z"/>
      <path class="cls-2" d="M301.07,33.91c-.28,.32-.63,.39-1.33,.42-.63,2.42-1.93,5.18-3.85,7.35,.25,.03,.42,.14,.66,.35,3.01,2.84,7.11,3.26,14.42,3.26,4.27,0,7.74,0,12.11-.21v.45c-1.23,.24-1.89,1.16-2.06,2.28h-10.96c-7.49,0-10.85-1.02-13.93-4.69-.46-.56-.77-.49-1.05,0-.56,1.08-1.57,2.98-2.27,4.45,.14,.28,.1,.49-.14,.74l-2.24-2.77c1.23-.91,3.05-2.73,4.17-3.54,1.23-2.17,2.14-5.18,2.52-7.81h-2.35l-1.02,.91-2.31-1.82c.31-.21,.81-.42,1.26-.6,.98-1.68,2.27-4.27,3.08-6.06h-4.55l-.31-1.02h4.87l1.26-1.33,2.62,2.35c-.28,.28-.8,.46-1.47,.53-.77,1.58-2.1,4.13-3.12,5.99h1.82l1.54-1.51,2.63,2.28Zm-8.19-16.84c7.35,2.21,4.94,7.49,2.42,5.53-.21-1.79-1.61-3.99-2.8-5.29l.38-.24Zm11.48,25.66c0,.28-1.09,.88-2.14,.88h-.39v-15.96l2.77,1.19h.21v-11.31l2.83,1.23h7.39l1.33-1.68,3.22,2.31c-.28,.39-.74,.56-1.61,.7v8.75h.81l.91-1.33,2.27,2.42c-.24,.24-.77,.52-1.33,.63v10.5c0,1.82-.46,2.87-3.33,3.05,0-.77-.14-1.19-.46-1.61-.31-.42-1.02-.7-2.1-.88v-.49s1.71,.11,2.73,.11c.42,0,.56-.07,.56-.39v-10.99h-13.69v12.88Zm9.03-2.1v-1.23h-4.45v1.23c0,.18-1.02,.74-1.93,.74h-.35v-9.73l2.42,1.09h4.03l1.16-1.23,2.49,1.93c-.17,.21-.6,.46-1.12,.53v5.95c-.04,.21-1.12,.74-1.89,.74h-.35Zm-6.13-11.8h2.66v-7l2.63,1.12h2.91v-3.19h-8.19v9.07Zm6.13,9.52v-4.62h-4.45v4.62h4.45Zm2.07-9.52v-4.87h-3.36v4.87h3.36Z"/>
      <path class="cls-2" d="M330.09,31.14c1.26-.39,2.49-.56,3.89-.56,4.97,0,8.37,2.77,8.37,7.74s-3.54,8.19-8.96,8.19c-3.89,0-6.37-1.79-7.14-5.32,.32-.81,.98-1.23,1.82-1.23,1.12,0,1.61,.56,2.07,2.42l.63,2.31c.8,.24,1.54,.35,2.35,.35,3.82,0,5.88-2.49,5.88-6.34s-2.28-6.09-5.99-6.09c-1.23,0-2.49,.14-3.71,.49l-.98-.28,.81-11.55h12.53v2.98h-11.06l-.49,6.9Z"/>
      <path class="cls-2" d="M362.08,33.66c0,9.45-3.96,12.85-7.98,12.85s-8.05-3.4-8.05-12.85,3.92-12.92,8.05-12.92,7.98,3.5,7.98,12.92Zm-7.98,11.38c2.35,0,4.55-2.38,4.55-11.38s-2.21-11.41-4.55-11.41-4.66,2.38-4.66,11.41,2.21,11.38,4.66,11.38Z"/>
      <path class="cls-2" d="M381.75,33.66c0,9.45-3.96,12.85-7.98,12.85s-8.05-3.4-8.05-12.85,3.92-12.92,8.05-12.92,7.98,3.5,7.98,12.92Zm-7.98,11.38c2.35,0,4.55-2.38,4.55-11.38s-2.2-11.41-4.55-11.41-4.66,2.38-4.66,11.41,2.21,11.38,4.66,11.38Z"/>
      <path class="cls-2" d="M401.43,33.66c0,9.45-3.96,12.85-7.98,12.85s-8.05-3.4-8.05-12.85,3.92-12.92,8.05-12.92,7.98,3.5,7.98,12.92Zm-7.98,11.38c2.35,0,4.55-2.38,4.55-11.38s-2.21-11.41-4.55-11.41-4.66,2.38-4.66,11.41,2.21,11.38,4.66,11.38Z"/>
      <path class="cls-2" d="M415.18,17.77c-.14,.46-.56,.77-1.29,.74-.88,2.59-1.89,5.11-3.05,7.39l1.4,.53c-.14,.31-.45,.56-1.09,.66v20.83c-.03,.25-1.15,.88-2.14,.88h-.49V29.92c-1.16,1.79-2.38,3.36-3.71,4.69l-.53-.28c2.73-4.38,5.39-11.13,6.83-17.78l4.06,1.23Zm.91,22.44c1.19,3.36,.18,5.71-1.15,6.44-.88,.52-2.07,.45-2.42-.38-.28-.88,.25-1.58,1.05-2,1.05-.63,2.1-2.28,1.92-3.99l.6-.07Zm17.64-15.86s2.07,1.58,3.36,2.73c-.11,.39-.46,.56-.95,.56h-23.1l-.24-1.02h7.39c-.25-.07-.45-.21-.7-.39-.18-1.33-1.12-2.91-1.93-3.92l.39-.21c4.94,1.23,4.59,4.03,3.15,4.52h5.67c.49-1.36,1.12-3.22,1.5-4.55l4.17,1.01c-.14,.39-.56,.67-1.33,.67-.84,.88-2.1,1.96-3.22,2.87h4.06l1.79-2.28Zm-19.29-3.4h16.28l1.79-2.28s2.03,1.61,3.29,2.77c-.11,.39-.46,.56-.91,.56h-20.16l-.28-1.05Zm3.75,17.54c0,.21-.84,.77-2.2,.77l-.46-.04v-10.68l3.05,1.23h11.94l1.33-1.51,2.8,2.1c-.21,.28-.53,.46-1.26,.56v7.32c0,.14-.98,.7-2.31,.7h-.45v-1.02h-12.43v.56Zm12.95,6.83c.84,.28,1.05,.53,1.05,1.02,0,1.12-1.15,1.58-6.72,1.58h-3.92c-2.91,0-3.39-.52-3.39-2.31v-5.81l3.54,.39c-.07,.42-.38,.74-1.02,.84v4.1c0,.42,.11,.53,1.37,.53h3.54c1.54,0,2.84,0,3.26-.03,.42-.04,.6-.07,.77-.32,.28-.39,.63-1.44,1.02-2.73h.42l.1,2.77Zm-12.95-14.53v2.63h12.43v-2.63h-12.43Zm12.43,6.13v-2.49h-12.43v2.49h12.43Zm-8.79-20.76c7.07,1.05,4.73,6.13,2.14,4.27-.18-1.44-1.37-3.12-2.45-4.06l.32-.21Zm.56,22.19c7.77,1.75,5.74,7.25,3.08,5.43-.35-1.75-1.96-3.92-3.43-5.15l.35-.28Zm8.61,1.36c8.26,2.52,5.74,8.51,2.98,6.3-.21-2.07-1.79-4.55-3.33-6.02l.35-.28Z"/>
      <path class="cls-2" d="M455.47,23.76c-.25,.28-.81,.56-1.5,.73v21.25c-.04,.25-1.33,.91-2.28,.91h-.39v-2.7h-6.79v2.8c0,.31-1.02,.98-2.14,.98h-.49V21.66l2.8,1.3h.91c.35-1.79,.84-4.45,1.16-6.3l4.24,.98c-.14,.49-.6,.77-1.33,.77-.77,1.33-1.85,3.12-2.8,4.55h4.1l1.44-1.65,3.08,2.45Zm-10.96,.21v8.72h6.79v-8.72h-6.79Zm6.79,18.97v-9.24h-6.79v9.24h6.79Zm21.21-19.18c-.28,.31-.7,.49-1.51,.6-.24,13.27-.84,20.65-2.52,22.68-1.05,1.23-2.49,1.75-4.38,1.75,0-.91-.14-1.68-.7-2.1-.56-.49-2-.91-3.54-1.19l.04-.6c1.65,.18,4.1,.39,4.97,.39,.7,0,.98-.11,1.3-.49,1.33-1.23,1.82-8.93,2.03-20.86h-7.95c-1.5,2.91-3.33,5.46-5.32,7.35l-.49-.32c2.14-3.5,4.27-8.96,5.36-14.32l4.13,1.16c-.14,.42-.56,.74-1.3,.74-.56,1.54-1.19,2.98-1.86,4.38h7.07l1.65-1.79,3.01,2.63Zm-14.67,6.34c8.89,3.57,6.41,9.8,3.54,7.49-.35-2.38-2.21-5.39-3.89-7.25l.35-.25Z"/>
      <path class="cls-2" d="M488.45,45.63c0,1.86-.38,2.87-3.36,3.15-.03-.63-.21-1.23-.59-1.58-.39-.35-1.05-.6-2.28-.77v-.56s2.56,.21,3.15,.21c.56,0,.7-.21,.7-.66v-12.53c-1.75,.42-3.64,.81-5.74,1.19-.07,5.08-.56,10.75-4.2,14.77l-.56-.35c2.1-3.96,2.38-8.96,2.42-13.97l-.95,.18c-.17,.42-.56,.7-.88,.77l-.77-2.87c.7-.03,1.58-.07,2.59-.14v-12.22l2.77,1.19h.52c.25-1.37,.53-3.47,.7-4.9l3.92,.77c-.1,.49-.52,.77-1.29,.81-.6,.98-1.44,2.31-2.17,3.33h3.33l1.19-1.47,2.87,2.24c-.25,.21-.73,.49-1.37,.63v8.51l2.31-.31,.07,.6c-.73,.21-1.54,.42-2.38,.66v13.34Zm-8.12-13.37c1.75-.18,3.71-.39,5.74-.63v-9.17h-5.74v9.8Zm1.26-8.4c5.15,4.1,2.52,8.26,1.15,6.37-.11-1.47-.46-4.2-1.65-6.09l.49-.28Zm.31,10.68c5.04,4.73,2.21,8.86,.94,6.9-.07-1.58-.35-4.62-1.47-6.65l.52-.25Zm25.17,10.71c.74,.32,.84,.56,.84,1.05,0,.98-.95,1.54-3.71,1.54h-1.47c-1.96,0-2.28-.7-2.28-2.28V29.46h-5.53v5.74c0,4.55-.56,10.12-6.3,13.83l-.42-.39c3.68-3.85,4.16-8.65,4.16-13.44v-8.02l3.01,1.26h4.76l1.37-1.54,2.8,2.42c-.21,.25-.63,.46-1.33,.53v15.02c0,.45,.07,.59,.49,.59h1.61c.17-.03,.31-.07,.42-.42,.21-.53,.66-3.01,1.02-4.97h.46l.11,5.18Zm-17.4-21.7h13.27l1.82-2.42s2.03,1.68,3.26,2.87c-.07,.39-.42,.56-.91,.56h-17.15l-.28-1.02Zm4.9-6.9c7.91,2.38,5.67,8.05,3.01,6.02-.31-1.96-1.89-4.34-3.4-5.78l.39-.25Z"/>
      <path class="cls-2" d="M543.44,22.99c-.25,.28-.63,.35-1.33,.39-.98,1.23-2.77,2.94-4.2,3.96l-.35-.25c.39-1.16,.88-2.91,1.19-4.27h-6.27v5.11c0,.91,.04,.91,1.12,.91h5.92c.21,0,.52,0,.95-.1h.28l.21,.03c1.02,.31,1.16,.49,1.16,.95,0,1.05-.66,1.51-3.75,1.51h-5.04c-3.26,0-3.57-.31-3.57-3.29v-5.11h-13.23c.21,2.49-.73,4.17-1.85,4.87-.98,.7-2.31,.63-2.77-.35-.35-.88,.24-1.68,1.05-2.14,1.37-.84,2.56-3.01,2.28-5.39l.56-.03c.28,.74,.46,1.36,.6,2h22.23l1.75-1.75,3.08,2.98Zm-17.05,2c-.14,.42-.52,.67-1.5,.63-2.28,3.68-5.6,6.44-12.01,7.53l-.28-.46c5.88-2.28,8.68-5.53,10.01-9.59l3.78,1.89Zm12.46,18.8s2.14,1.68,3.4,2.91c-.1,.38-.46,.56-.98,.56h-28.14l-.32-1.02h12.92v-10.82h-8.65l-.28-1.01h16.84l1.71-2.21s2.03,1.54,3.22,2.66c-.1,.39-.45,.56-.91,.56h-9.07v10.82h8.4l1.85-2.45Zm-14.14-27.58c7.53,1.75,4.52,7.28,1.79,5.01-.11-1.65-1.12-3.64-2.1-4.8l.32-.21Z"/>
      <path class="cls-2" d="M578.4,45.53c.91,1.72,1.05,2.49,.56,2.91-1.15,.98-3.33-.46-4.41-1.93-1.19-1.47-2.14-3.19-2.94-5.01-2.45,3.01-5.53,5.32-9.52,7.14l-.35-.59c3.85-2.35,6.76-5.15,9-8.86-1.4-4.24-2.07-9.21-2.35-14.6h-7.84v5.53h3.54l1.33-1.47,2.73,2.21c-.18,.28-.63,.49-1.3,.56-.14,6.55-.35,9.7-1.54,10.82-.67,.56-1.54,.84-2.56,.84,0-.56-.17-1.19-.52-1.54-.35-.31-1.26-.67-2.17-.84v-.49c.91,.07,2.42,.14,2.91,.14,.31,0,.45-.03,.6-.21,.52-.66,.7-3.47,.84-9.03h-3.85v.49c0,5.71-.81,12.67-7.95,17.19l-.42-.42c3.61-3.4,5.01-7.53,5.46-11.83-2,1.33-4.87,3.33-8.79,5.67-.1,.46-.38,.81-.73,.95l-1.79-3.4c.91-.25,2.45-.74,4.31-1.37v-10.82h-3.68l-.28-1.01h3.96v-9.28l3.92,.42c-.07,.49-.38,.84-1.26,.98v7.88h.49l1.51-2.24s1.61,1.51,2.59,2.59v-4.59l3.12,1.26h7.32c-.11-2.14-.14-4.38-.14-6.62l4.03,.45c0,.21-.11,.38-.25,.56,4.69,.39,5.29,2.8,4.38,3.78,.59,.45,1.89,1.47,2.77,2.28-.1,.39-.46,.56-.91,.56h-7.14c.14,3.96,.56,7.88,1.4,11.27,1.09-2.38,1.96-5.15,2.7-8.3l3.75,1.23c-.14,.42-.46,.63-1.37,.59-1.09,3.75-2.42,6.9-4.1,9.56,.7,1.89,1.65,3.57,2.8,4.94,.45,.6,.63,.6,.94-.11,.42-.84,1.05-2.49,1.44-3.89l.45,.07-.66,5.57Zm-20.69-9.42c.14-1.47,.17-2.98,.17-4.48v-4.38c-.14,.21-.38,.31-.77,.31h-3.82v9.94c1.4-.49,2.87-1.02,4.34-1.54l.07,.14Zm13.9-17.89c-.17,.1-.39,.14-.63,.18-.04,1.72-.04,3.47,.03,5.18h3.26l1.19-1.44c-.32,0-.66-.07-1.02-.28-.42-1.3-1.75-2.8-2.87-3.61l.04-.04Z"/>
      <path class="cls-2" d="M596.36,20.85s1.92,1.51,3.12,2.59c-.07,.39-.45,.56-.95,.56h-16.21l-.28-1.02h12.64l1.68-2.14Zm-3.26,6.62l1.61-2s1.82,1.4,2.94,2.45c-.1,.39-.45,.56-.91,.56h-12.67l-.28-1.02h9.31Zm1.61,2.49s1.82,1.4,2.94,2.49c-.1,.39-.45,.56-.91,.56h-12.67l-.28-1.01h9.31l1.61-2.03Zm.07,5.18l3.05,2.28c-.25,.28-.77,.56-1.47,.7v8.3c-.04,.21-1.33,.81-2.21,.81h-.42v-1.82h-6.65v2.1c0,.28-1.12,.88-2.17,.88h-.39v-12.92l2.73,1.15h6.13l1.4-1.47Zm-1.05,9.21v-6.69h-6.65v6.69h6.65Zm-6.13-27.76c7.42,1.65,4.9,7.32,2.17,5.29-.17-1.75-1.4-3.82-2.52-5.04l.35-.24Zm23.98,10.43s1.96,1.54,3.15,2.66c-.11,.38-.46,.56-.95,.56h-7.21v17.47c0,.39-1.23,1.09-2.24,1.09h-.52V30.23h-6.23l-.28-1.02h6.51v-12.57l4.03,.46c-.1,.49-.35,.84-1.26,.98v11.13h3.26l1.75-2.21Z"/>
      <path class="cls-2" d="M646.42,44.55s2.17,1.61,3.47,2.77c-.07,.35-.45,.53-.91,.53h-31.12l-.31-.98h27.02l1.86-2.31Zm-14.56-11.52v-2.45h-10.36l-.31-.98h10.68v-2.45h-9.42l-.32-.98h9.73v-2.31h-13.86l-.32-.98h14.18v-2.31h-9.31l-.31-1.02h9.63v-3.08l3.92,.39c-.07,.49-.31,.8-1.12,.91v1.79h6.2l1.4-1.47,3.01,2.24c-.21,.24-.7,.52-1.33,.63v1.93h1.4l1.65-2.14s1.89,1.51,3.01,2.59c-.07,.35-.42,.53-.88,.53h-5.18v3.29c0,.14-.45,.39-.98,.6,.42,.32,1.96,1.44,3.01,2.31-.1,.35-.42,.53-.91,.53h-10.4v2.45h10.33l1.68-2.14s1.96,1.51,3.15,2.59c-.1,.35-.42,.52-.91,.52h-30.98l-.31-.98h14.25Zm9.66,12.46v-1.12h-15.79v.81c0,.28-1.19,.88-2.38,.88h-.38v-11.1l2.98,1.29h15.26l1.37-1.51,3.05,2.31c-.18,.21-.7,.49-1.3,.6v6.97c-.04,.21-1.43,.88-2.35,.88h-.46Zm-15.79-8.26v2.56h6.48v-2.56h-6.48Zm0,6.16h6.48v-2.63h-6.48v2.63Zm8.93-20.51h6.55v-2.31h-6.55v2.31Zm0,3.29h6.55v-2.31h-6.55v2.31Zm0,3.43h6.51l1.51-1.79c-.35,.1-.74,.18-1.05,.18h-.42v-.84h-6.55v2.45Zm.25,7.63v2.56h6.62v-2.56h-6.62Zm6.62,6.16v-2.63h-6.62v2.63h6.62Z"/>
      <path class="cls-2" d="M657.58,36.08c1.93-1.19,2.87-2.63,3.29-4.34-1.75-.84-2.66-1.75-2.66-3.01,0-1.12,.77-2.14,2.21-2.14s2.41,1.09,2.41,3.19c0,2.45-1.12,5.71-4.66,7.42l-.6-1.12Z"/>
      <path class="cls-2" d="M700.85,44.16c1.4,.42,1.82,.63,1.82,1.23,0,1.37-1.58,2.28-8.02,2.28h-12.99c-4.52,0-6.79-1.02-6.79-4.52V24.77l3.92,.39c-.07,.49-.31,.81-1.09,.91v4.1h17.43v-9.52h-22.02l-.32-.98h21.95l1.5-1.75,3.36,2.56c-.25,.32-.84,.66-1.61,.81v11.83c-.04,.24-1.47,.88-2.42,.88h-.46v-2.84h-17.43v12.08c0,1.44,1.23,1.79,3.78,1.79h12.99c2.52,0,3.57-.17,4.13-1.19,.53-.95,1.33-3.85,1.79-6.02h.42l.03,6.37Z"/>
      <path class="cls-2" d="M718.35,33.87c-.28,.31-.63,.39-1.33,.46-.8,2.49-2.31,5.18-4.45,7.32,.25,.07,.42,.18,.7,.42,2.94,2.87,6.9,3.36,13.86,3.33,4.1,0,7.49,0,11.66-.21v.46c-1.19,.24-1.86,1.16-2.03,2.28h-10.5c-7.11,0-10.36-1.12-13.48-4.8-.46-.56-.81-.49-1.12,0-.63,1.05-2,3.08-2.87,4.59,.1,.32,.04,.56-.21,.77l-2.17-2.84c1.33-.91,3.26-2.59,4.55-3.47,1.5-2.24,2.69-5.36,3.22-8.05h-3.26l-1.09,.95-2.31-1.96c.31-.21,.88-.42,1.37-.6,1.19-1.65,2.77-4.17,3.78-5.95h-5.57l-.32-1.02h6.06l1.47-1.47,2.91,2.63c-.35,.39-1.16,.56-2.07,.56-.95,1.58-2.59,4.1-3.82,5.85h2.66l1.58-1.54,2.77,2.31Zm-9.87-16.91c8.23,1.54,6.16,7.35,3.33,5.53-.46-1.82-2.17-4.03-3.68-5.29l.35-.24Zm7.04,13.2c2.14-3.33,4.38-8.58,5.67-13.65l4.17,1.36c-.14,.39-.6,.7-1.33,.67-.6,1.47-1.3,2.87-2.03,4.17l.07,.04h10.85l1.71-2.14s2,1.47,3.22,2.59c-.11,.39-.42,.56-.91,.56h-7.53v4.8h3.01l1.68-2.14s1.89,1.51,3.08,2.59c-.07,.39-.45,.56-.91,.56h-6.86v4.8h3.01l1.68-2.1s1.89,1.47,3.08,2.56c-.07,.39-.45,.56-.91,.56h-6.86v5.11h3.99l1.79-2.28s2.07,1.58,3.29,2.73c-.07,.38-.42,.56-.91,.56h-15.93v1.3c0,.21-.91,.91-2.28,.91h-.49V27.36c-.95,1.15-1.86,2.21-2.87,3.12l-.49-.32Zm6.13-6.41v4.8h5.08v-4.8h-5.08Zm5.08,5.81h-5.08v4.8h5.08v-4.8Zm0,5.81h-5.08v5.11h5.08v-5.11Zm-.77-18.97c6.79,2.84,4.17,7.95,1.79,5.81-.04-1.89-1.12-4.17-2.14-5.6l.35-.21Z"/>
      <path class="cls-2" d="M757.52,17.24l4.17,3.05c-.59,.7-1.93,1.09-3.82,1.26v1.58c1.16,10.85,6.58,18.73,16.52,22.82l-.14,.42c-1.44,.11-2.35,.98-2.94,2.52-5.53-3.08-11.45-9.8-13.06-18.27-2.35,8.4-8.05,14.74-16,18.24l-.35-.49c7.74-4.2,13.83-13.16,14.88-25.2v-2.49h-8.02l-.25-1.01h7.49l1.5-2.42Z"/>
      <path class="cls-2" d="M781.88,21.03c.1,1.96-.67,3.33-1.61,3.89-.88,.53-2.1,.49-2.49-.42-.31-.8,.25-1.54,.98-1.96,1.19-.6,2.17-2.28,1.96-4.03h.59c.21,.53,.32,1.02,.42,1.51h11.73c-.28-.07-.63-.21-.95-.49,.14-1.02-.38-2.31-1.09-2.98l.35-.21c4.66,.42,3.99,3.36,2.31,3.68h11.34l1.54-1.58,2.87,2.73c-.25,.24-.63,.31-1.33,.39-.74,.91-2.14,2.21-3.19,2.98l-.46-.25c.28-.88,.56-2.2,.77-3.26h-23.77Zm24.68,3.61s1.82,1.23,2.94,2.24c-.07,.38-.42,.56-.91,.56h-5.39c-.07,1.23-.14,2.52-.21,3.64-.6,.35-1.37,.49-2.59,.31l.07-.67h-14.39l-1.02,1.16-2.77-1.85c.31-.25,.77-.53,1.23-.7,.07-.56,.17-1.19,.25-1.89h-5.67l-.31-1.02h6.13c.18-1.61,.32-3.33,.39-4.48l3.15,1.23h13.06l1.19-1.4,3.08,2.28c-.25,.28-.81,.53-1.47,.63,0,.49-.04,1.05-.07,1.75h1.75l1.58-1.79Zm-17.01,18.83l2.94,2.14c-.28,.31-.88,.38-1.75,.14-2.94,1.44-7.77,2.7-12.46,3.08l-.14-.59c4.17-.95,8.65-2.98,10.96-4.76h-3.82v.24c0,.28-1.23,.88-2.35,.88h-.42v-13.06l2.98,1.26h15.89l1.37-1.44,2.83,2.21c-.17,.21-.59,.46-1.12,.56v9.24c-.04,.24-1.4,.8-2.31,.8h-.46v-.7h-12.15Zm-4.27-9.66v2.17h16.42v-2.17h-16.42Zm16.42,3.19h-16.42v2.21h16.42v-2.21Zm-16.42,5.46h16.42v-2.24h-16.42v2.24Zm6.58-12.74c.07-.67,.18-1.44,.21-2.28h-5.78c-.14,.81-.25,1.58-.35,2.28h5.92Zm-5.18-5.53c-.07,.7-.18,1.43-.28,2.24h5.78c.03-.81,.1-1.54,.14-2.24h-5.64Zm13.86,5.53c.04-.77,.11-1.51,.14-2.28h-6.09c-.07,.84-.14,1.61-.21,2.28h6.16Zm-5.71-5.53c-.04,.7-.1,1.47-.18,2.24h6.06l.1-2.24h-5.99Zm.77,19.95c17.29,.74,12.74,6.27,9.77,4.34-1.96-1.33-5.36-2.77-9.91-3.75l.14-.6Z"/>
      <path class="cls-2" d="M818.67,23.13c-.21,2.28-1.23,5.08-5.29,6.86l-.31-.49c2.8-2.35,3.12-5.11,3.12-7.56v-3.96l3.19,1.05c2.49-.74,5.18-1.72,6.72-2.45l2.59,2.63c-.35,.31-.98,.28-1.75-.1-2.1,.39-5.32,.74-8.23,.91v2.1h6.72l1.54-1.93s1.75,1.37,2.84,2.38c-.07,.39-.42,.56-.91,.56h-3.99v4.52c0,.14-.84,.7-2.17,.7h-.42v-5.22h-3.64Zm-5.01,25.13c4.27-1.12,9.14-3.4,11.48-5.15l3.25,2.42c-.28,.35-.91,.39-1.75,.1-3.08,1.36-8.16,2.7-12.81,3.19l-.17-.56Zm28.07-28.21s1.89,1.43,3.01,2.52c-.07,.39-.38,.56-.88,.56h-4.79v4.48c-.04,.1-.49,.42-1.3,.56l2.69,2.1c-.21,.21-.7,.49-1.29,.6v12.01c-.04,.21-1.47,.84-2.34,.84h-.45v-1.47h-14.42v1.08c0,.28-1.19,.88-2.31,.88h-.45V28.17l2.98,1.3h13.9l1.09-1.19h-.73v-5.15h-3.64c-.32,1.96-1.54,4.24-5.46,5.74l-.28-.52c2.98-2.07,3.33-4.59,3.33-6.83v-3.64l2.94,.98c2.62-.7,5.42-1.61,7.07-2.28l2.62,2.66c-.38,.31-1.01,.28-1.82-.11-2.13,.32-5.32,.63-8.26,.77v2.21h7.21l1.61-2.07Zm-19.78,10.43v2.87h14.42v-2.87h-14.42Zm0,3.85v2.91h14.42v-2.91h-14.42Zm14.42,6.86v-2.94h-14.42v2.94h14.42Zm-5.32,2.7c17.19,.77,12.18,6.55,9.14,4.45-1.82-1.3-4.94-2.84-9.24-3.92l.11-.53Z"/>
      <path class="cls-2" d="M861.62,30.41c-.25,.28-.67,.45-1.4,.56-.25,10.78-.95,14.88-2.31,16.31-.91,.95-2.07,1.29-3.36,1.29,0-.77-.07-1.43-.46-1.79-.35-.39-1.09-.67-1.96-.81l.04-.6c.88,.07,2.21,.18,2.8,.18,.56,0,.84-.07,1.12-.39,.88-.91,1.4-5.08,1.65-14.56h-3.36c-.6,6.58-2.07,12.95-5.57,17.99l-.49-.32c2.97-7.04,3.82-16,3.61-24.15h-3.33l-.28-1.02h9.14l1.61-2.24s1.89,1.58,3.01,2.7c-.1,.39-.42,.56-.91,.56h-6.44c-.04,1.79-.1,3.64-.25,5.46h2.91l1.47-1.51,2.76,2.31Zm-9.59-13.76c7,2.35,4.59,7.46,2.2,5.46-.14-1.79-1.43-3.96-2.59-5.22l.38-.25Zm8.47,11.69c1.79-2.87,3.43-7.32,4.27-11.73l4.13,1.12c-.14,.42-.56,.74-1.33,.7-.53,1.47-1.16,2.8-1.86,4.1h9.94l1.79-2.35s2.1,1.65,3.4,2.8c-.11,.39-.46,.56-.95,.56h-14.74c-1.19,2.03-2.59,3.82-4.13,5.15l-.53-.35Zm18.94,16.7c.98,.31,1.26,.63,1.26,1.12,0,1.26-1.43,1.72-8.23,1.72h-4.69c-3.36,0-4.27-.6-4.27-2.87v-10.01l-1.92,.74-.7-.81,2.62-1.05v-6.34l3.71,.38c-.07,.46-.38,.81-1.15,.91v4.03l3.71-1.44v-6.76l3.75,.42c-.1,.49-.38,.84-1.29,.95v4.38l4.06-1.61,1.43-1.51,2.59,2.73c-.25,.24-.67,.35-1.37,.39-.74,3.29-2.17,7.91-3.89,11.06l-.46-.28c.77-3.26,1.44-7.98,1.72-11.31l-4.1,1.65v11.06c0,.28-1.05,.81-1.96,.81h-.49v-10.92l-3.71,1.47v10.47c0,.8,.28,1.05,2.03,1.05h4.52c2,0,3.57-.03,4.2-.1,.42-.04,.66-.14,.88-.42,.31-.52,.77-2.13,1.22-4.03h.46l.07,4.13Z"/>
      <path class="cls-2" d="M912.41,42.38s2.34,1.75,3.71,3.01c-.1,.39-.46,.56-.91,.56h-31.12l-.31-1.02h14.53V22.88h-11.87l-.28-1.02h22.02l2-2.52s2.28,1.72,3.68,2.98c-.11,.39-.46,.56-.98,.56h-11.52v22.05h9.07l2-2.56Z"/>
      <path class="cls-2" d="M931.76,20.15c-.28,.28-.74,.39-1.58,.39-1.08,2.17-3.12,6.13-4.59,8.26,3.47,2.63,4.87,5.67,4.87,8.47,0,3.4-1.19,5.08-4.66,5.18,0-.84-.14-1.79-.42-2.17-.28-.28-.91-.49-1.68-.63v-.53h2.41c.32,0,.53-.07,.77-.21,.52-.32,.84-1.05,.84-2.28,0-2.56-.84-5.22-3.01-7.74,.74-2.21,1.82-6.34,2.45-9.1h-3.99v28.14c0,.17-.84,.88-2.13,.88h-.46V17.52l3.04,1.26h3.4l1.65-1.65,3.08,3.01Zm8.26,7.74c-1.33,.91-3.89,2.63-6.72,4.34-.25,.46-.59,.77-.91,.91l-1.4-2.98c.88-.45,1.02-.7,1.02-1.33v-12.15l4.03,.39c-.07,.39-.39,.7-1.44,.88v4.76h2.21l1.4-1.86s1.58,1.3,2.52,2.31c-.07,.38-.42,.56-.91,.56h-5.22v5.5c1.58-.53,3.43-1.12,5.25-1.75l.17,.42Zm6.79,5.43l2.97,2.28c-.21,.25-.7,.53-1.33,.63v11.55c-.04,.21-1.37,.77-2.24,.77h-.46v-1.68h-10.29v1.09c0,.24-1.16,.88-2.24,.88h-.46v-15.26l2.87,1.26h2.31c.35-1.23,.77-3.08,1.02-4.34l3.85,1.16c-.17,.49-.63,.7-1.36,.66-.6,.74-1.4,1.72-2.14,2.52h6.13l1.37-1.51Zm-11.34,2.52v4.27h10.29v-4.27h-10.29Zm10.29,10.01v-4.73h-10.29v4.73h10.29Zm4.9-16.84c.77,.31,.98,.6,.98,1.09,0,1.02-1.09,1.37-4.87,1.37h-2.31c-2.31,0-2.73-.63-2.73-2.31v-12.43l3.64,.39c-.07,.42-.38,.74-1.05,.88v4.73h2.66l1.33-1.89s1.61,1.33,2.59,2.35c-.07,.38-.42,.56-.91,.56h-5.67v4.94c0,.46,.07,.63,.84,.63h1.79c.74,0,1.37,0,1.68-.04,.24,0,.38-.07,.52-.28,.28-.39,.63-1.79,.98-3.15h.42l.1,3.19Z"/>
      <path class="cls-2" d="M969.36,37.86c-2.24,.95-5.08,2.24-8.86,3.82v6.3c-.04,.25-.77,.91-2.31,.91h-.35v-6.2l-1.23,.49c-.14,.42-.46,.74-.77,.88l-1.72-3.4c.88-.14,2.14-.39,3.71-.74V18.96l2.94,1.37c1.79-1.09,3.75-2.38,5.25-3.64l3.36,2.52c-.25,.31-.56,.35-1.26,.18-2.21,.81-5.15,1.65-7.63,2.17v4.83h3.36l1.61-2.07s1.82,1.47,2.97,2.52c-.1,.39-.42,.56-.94,.56h-7v5.5h3.43l1.65-2.14s1.89,1.47,3.01,2.59c-.07,.39-.42,.56-.91,.56h-7.18v5.43c2.59-.56,5.64-1.26,8.75-2l.1,.53Zm15.61-4.62c-.25,.31-.63,.39-1.44,.45-1.29,3.05-3.01,5.74-5.36,8.09,2.56,2.03,5.74,3.47,9.31,4.38l-.07,.39c-1.16,.18-2.07,1.01-2.49,2.35-3.47-1.33-6.27-3.15-8.44-5.6-3.12,2.49-7.04,4.41-12.08,5.64l-.28-.49c4.55-1.61,8.26-3.89,11.06-6.72-1.64-2.31-2.83-5.08-3.64-8.44h-2.31l-.32-1.05h11.48l1.71-1.61,2.84,2.63Zm-17.19-2.03c3.15-2.73,3.57-5.99,3.57-9.07v-4.48l3.12,1.3h4.41l1.43-1.54,2.84,2.38c-.25,.25-.7,.42-1.33,.53v6.23c0,.39,.1,.49,.56,.49h1.89c.14,0,.38,0,.52-.04,.18,0,.46-.07,.63-.14h.31l.14,.07c.73,.28,1.01,.49,1.01,1.05,0,1.05-.91,1.54-3.89,1.54h-1.54c-2.03,0-2.28-.63-2.28-2.24v-7.32h-5.21v2.17c0,2.91-.6,7-5.85,9.45l-.35-.39Zm4.52,2.07c.88,2.77,2.35,5.11,4.2,6.97,1.72-2.07,3.05-4.41,3.96-6.97h-8.16Z"/>
      <path class="cls-2" d="M994.67,36.08c1.92-1.19,2.87-2.63,3.29-4.34-1.75-.84-2.66-1.75-2.66-3.01,0-1.12,.77-2.14,2.21-2.14s2.41,1.09,2.41,3.19c0,2.45-1.12,5.71-4.66,7.42l-.59-1.12Z"/>
      <path class="cls-2" d="M1026.41,31.42c3.08,5.39,8.86,9.87,14.25,11.83l-.07,.42c-1.16,.18-2.14,1.02-2.56,2.42-5.29-2.87-9.84-8.02-12.43-14.67h-.07v16.35c0,.35-1.23,1.08-2.31,1.08h-.56v-14.91c-3.29,5.11-8.3,9.49-14.49,12.5l-.38-.52c5.5-3.61,10.15-9.07,12.81-14.49h-11.97l-.28-1.02h14.32v-6.34h-11.31l-.28-1.02h11.59v-6.51l4.13,.46c-.1,.49-.38,.84-1.26,.98v5.08h6.65l1.89-2.38s2.17,1.65,3.5,2.84c-.1,.39-.49,.56-.98,.56h-11.06v6.34h8.96l2-2.45s2.24,1.72,3.61,2.91c-.07,.39-.42,.56-.91,.56h-12.78Z"/>
      <path class="cls-2" d="M1070.59,25.47c-.14,.42-.53,.77-1.33,.77-.32,1.09-.7,2.1-1.16,3.05,7.67,2.73,5.85,7.95,3.15,6.2-.53-1.68-2.1-3.75-3.61-5.29-1.16,2.14-2.66,3.89-4.41,5.15,3.19,4.17,7.95,7.42,12.78,8.89l-.07,.39c-1.08,.21-2.07,1.12-2.41,2.49-5.53-2.63-9.91-7.28-12.53-13.62v14.28c0,.39-1.26,1.08-2.31,1.08h-.56v-12.08c-3.5,4.17-8.79,8.05-14.42,10.4l-.31-.52c6.09-3.29,12.01-9.24,14.74-15.68v-7.63h-13.86l-.28-1.02h14.14v-5.71l4.09,.45c-.1,.49-.35,.84-1.22,.98v4.27h8.93l1.93-2.42s2.21,1.65,3.54,2.87c-.11,.39-.42,.56-.91,.56h-13.48v8.4c.49,1.02,1.09,2.03,1.79,2.98,1.86-2.56,3.22-6.13,3.78-10.22l4.03,.98Zm-15.86,.21c-.14,.42-.53,.74-1.29,.7-.35,.98-.77,1.89-1.19,2.77,5.92,2.42,3.78,6.72,1.47,4.94-.24-1.26-1.09-2.73-2.03-3.92-1.65,2.91-3.75,5.15-6.16,6.69l-.46-.39c2.56-2.73,4.76-7.04,5.81-11.97l3.85,1.19Z"/>
      <path class="cls-2" d="M1083.54,36.08c1.92-1.19,2.87-2.63,3.29-4.34-1.75-.84-2.66-1.75-2.66-3.01,0-1.12,.77-2.14,2.21-2.14s2.41,1.09,2.41,3.19c0,2.45-1.12,5.71-4.66,7.42l-.59-1.12Z"/>
      <path class="cls-2" d="M1096.98,48.43c5.88-5.74,8.68-15.23,9.17-25.1l4.45,.88c-.14,.42-.42,.63-1.37,.6-1.22,9.66-4.38,18.41-11.8,24.01l-.46-.39Zm23.52-28.11c-.53,.56-1.54,.88-2.98,.98,1.26,10.36,4.16,19.88,12.04,24.64l-.17,.42c-1.26,.32-2.31,1.36-2.77,2.49-6.96-5.81-9.14-15.23-10.12-28.18h-4.24l-.31-1.05h3.61l1.33-1.96,3.61,2.66Z"/>
      <path class="cls-2" d="M1149.84,27.96c1.23,6.58,5.04,13.48,15.26,17.99l-.04,.42c-1.5,.21-2.49,.91-2.83,2.52-9.24-5.22-12.01-13.62-13.02-20.62-1.02,8.19-4.31,15.4-16.45,20.58l-.42-.56c10.12-5.6,13.02-12.46,13.9-20.34h-13.27l-.25-1.01h13.62c.28-3.26,.25-6.72,.25-10.29l4.34,.46c-.1,.53-.38,.88-1.19,.98-.07,3.05-.11,5.99-.39,8.86h9.45l2.07-2.59s2.41,1.82,3.82,3.05c-.07,.39-.46,.56-.91,.56h-13.93Z"/>
      <path class="cls-2" d="M1181.72,32.26c-1.37,.77-3.01,1.68-4.94,2.73v12.81c0,.35-1.16,1.02-2.13,1.02h-.53v-12.36c-1.09,.52-2.28,1.12-3.5,1.75-.11,.42-.42,.77-.77,.91l-1.82-3.33c1.26-.28,3.43-.91,6.09-1.72v-7.7h-2.91c-.7,2.73-1.65,5.25-2.84,7.25l-.56-.28c1.02-3.61,1.68-8.65,1.89-13.23l3.78,.6c-.11,.42-.49,.81-1.26,.84-.21,1.3-.46,2.59-.77,3.82h2.66v-8.68l3.96,.46c-.1,.49-.38,.84-1.3,.98v7.25h.74l1.61-2.31s1.85,1.61,2.91,2.77c-.07,.39-.42,.56-.91,.56h-4.34v6.93c1.54-.49,3.15-.98,4.8-1.51l.14,.46Zm16,.31s1.85,1.51,3.01,2.63c-.07,.39-.42,.56-.91,.56h-5.53v9.63c0,2.07-.53,3.26-4.41,3.57-.11-.77-.32-1.37-.88-1.75-.66-.42-1.68-.74-3.57-.98v-.49s4.38,.28,5.25,.28c.67,0,.88-.21,.88-.74v-9.52h-12.22l-.28-1.05h12.5v-3.82l3.96,.42c-.07,.49-.42,.77-1.22,.91v2.49h1.75l1.68-2.14Zm-17.92-10.05h7.98v-5.99l3.85,.35c-.07,.46-.35,.77-1.16,.91v4.73h4.73l1.71-2.17s1.96,1.51,3.15,2.63c-.1,.39-.46,.56-.91,.56h-8.68v5.43h4.06l1.64-2.14s1.93,1.51,3.12,2.59c-.07,.39-.42,.56-.91,.56h-16.98l-.28-1.02h6.65v-5.43h-7.7l-.28-1.02Zm2.41,14.28c8.16,2.77,6.06,8.16,3.4,6.3-.56-2-2.35-4.52-3.75-6.06l.35-.25Z"/>
      <path class="cls-2" d="M1232.83,44.9c1.4,.25,1.75,.63,1.75,1.15,0,1.51-2.13,1.75-13.65,1.75h-8.4c-5.11,0-7.04-.63-7.04-3.99V19.94h-1.37l-.28-1.02h25.06l1.71-2.24s2,1.58,3.19,2.7c-.11,.39-.42,.56-.88,.56h-24.89v23.56c0,1.54,.74,2.1,4.2,2.1h8.93c3.75,0,6.83-.07,7.91-.18,.67-.04,1.22-.11,1.65-.18,.35-.07,.94-.21,1.5-.38h.42l.17,.03Zm-15.4-1.44v-1.65h-4.45v1.51c0,.25-1.05,.81-2.07,.81h-.35v-11.48l2.55,1.15h4.03l1.26-1.3,2.62,2c-.17,.24-.63,.49-1.16,.59v7.63c-.04,.24-1.26,.74-2.07,.74h-.38Zm0-2.66v-5.99h-4.45v5.99h4.45Zm8.26-10.68h-8.65v1.09c0,.21-1.19,.81-2.28,.81h-.38v-10.33l2.83,1.23h8.16l1.4-1.44,2.98,2.21c-.21,.24-.74,.52-1.33,.66v6.41c-.04,.25-1.4,.77-2.28,.77h-.46v-1.4Zm0-1.05v-5.11h-8.65v5.11h8.65Zm3.61,14.28v-1.54h-4.52v1.05c0,.25-1.09,.77-2.1,.77h-.35v-10.99l2.59,1.15h4.06l1.3-1.4,2.76,2.14c-.21,.25-.7,.53-1.26,.63v7.42c-.04,.21-1.29,.77-2.1,.77h-.38Zm0-2.56v-5.99h-4.52v5.99h4.52Z"/>
      <path class="cls-2" d="M1252.64,20.05c-.14,.39-.42,.6-1.29,.52-2.24,4.31-6.44,9.38-12.29,12.29l-.32-.42c4.73-3.54,8.3-9.31,9.84-14.04l4.06,1.65Zm9.91,9l2.94,2.49c-.25,.28-.67,.49-1.4,.56-.38,8.19-1.23,13.62-2.87,15.16-1.05,.95-2.41,1.37-4.24,1.37,0-.81-.18-1.58-.74-2-.59-.45-2.2-.88-3.71-1.12l.04-.6c1.68,.18,4.48,.39,5.29,.39,.7,0,1.01-.07,1.37-.39,1.05-.98,1.71-6.06,2.06-13.2h-7.84c-.63,5.74-2.52,12.22-13.2,17.05l-.42-.56c8.96-5.22,10.19-11.41,10.5-16.49h-5.53l-.32-1.05h16.45l1.61-1.61Zm-.25-10.26c-.38,.42-1.33,.67-2.45,.77,1.64,3.89,5.88,7.77,11.2,9.73l-.07,.42c-1.12,.28-2.07,1.23-2.38,2.31-4.8-2.91-8.23-7.35-9.73-12.64h-3.92l-.32-1.02h3.4l1.16-1.75,3.12,2.17Z"/>
      <path class="cls-2" d="M1286.14,33.87c-.28,.31-.63,.39-1.33,.46-.81,2.49-2.31,5.18-4.45,7.32,.24,.07,.42,.18,.7,.42,2.94,2.87,6.9,3.36,13.86,3.33,4.09,0,7.49,0,11.66-.21v.46c-1.19,.24-1.86,1.16-2.03,2.28h-10.5c-7.11,0-10.36-1.12-13.48-4.8-.46-.56-.81-.49-1.12,0-.63,1.05-2,3.08-2.87,4.59,.11,.32,.04,.56-.21,.77l-2.17-2.84c1.33-.91,3.26-2.59,4.55-3.47,1.5-2.24,2.7-5.36,3.22-8.05h-3.25l-1.08,.95-2.31-1.96c.32-.21,.88-.42,1.37-.6,1.19-1.65,2.77-4.17,3.78-5.95h-5.57l-.32-1.02h6.06l1.47-1.47,2.91,2.63c-.35,.39-1.16,.56-2.07,.56-.95,1.58-2.59,4.1-3.82,5.85h2.66l1.58-1.54,2.77,2.31Zm-9.87-16.91c8.23,1.54,6.16,7.35,3.33,5.53-.46-1.82-2.17-4.03-3.68-5.29l.35-.24Zm7.04,13.2c2.14-3.33,4.38-8.58,5.67-13.65l4.17,1.36c-.14,.39-.6,.7-1.33,.67-.59,1.47-1.29,2.87-2.03,4.17l.07,.04h10.85l1.71-2.14s2,1.47,3.22,2.59c-.11,.39-.42,.56-.91,.56h-7.53v4.8h3.01l1.68-2.14s1.89,1.51,3.08,2.59c-.07,.39-.46,.56-.91,.56h-6.86v4.8h3.01l1.68-2.1s1.89,1.47,3.08,2.56c-.07,.39-.46,.56-.91,.56h-6.86v5.11h3.99l1.79-2.28s2.06,1.58,3.29,2.73c-.07,.38-.42,.56-.91,.56h-15.93v1.3c0,.21-.91,.91-2.28,.91h-.49V27.36c-.94,1.15-1.85,2.21-2.87,3.12l-.49-.32Zm6.13-6.41v4.8h5.08v-4.8h-5.08Zm5.08,5.81h-5.08v4.8h5.08v-4.8Zm0,5.81h-5.08v5.11h5.08v-5.11Zm-.77-18.97c6.79,2.84,4.17,7.95,1.79,5.81-.04-1.89-1.12-4.17-2.14-5.6l.35-.21Z"/>
      <path class="cls-2" d="M1328.77,17.52c-.11,.42-.56,.6-1.47,.67,3.12,4.41,9.03,7.81,14.98,9.98l-.03,.49c-1.26,.31-2.17,1.37-2.42,2.42-5.63-2.8-10.78-7.25-13.16-12.43-3.25,5.11-10.19,10.82-16.94,13.72l-.25-.49c5.95-3.4,12.85-10.47,14.63-15.47l4.66,1.12Zm5.57,16.63l3.25,2.52c-.25,.28-.8,.56-1.5,.7v10.33c-.04,.21-1.54,.81-2.45,.81h-.46v-2.38h-14.6v1.75c0,.24-1.26,.91-2.45,.91h-.46v-14.32l3.12,1.37h14l1.54-1.68Zm-3.36-7.07s2.07,1.61,3.36,2.8c-.11,.39-.46,.53-.95,.53h-15.51l-.28-.98h11.52l1.86-2.35Zm2.2,18.03v-8.26h-14.6v8.26h14.6Z"/>
      <path class="cls-2" d="M1374.35,40.63s2,1.44,3.25,2.56c-.1,.39-.46,.56-.95,.56h-13.9v1.57c0,2-.52,3.22-4.09,3.57-.07-.81-.28-1.44-.7-1.82-.49-.38-1.37-.74-3.05-.95v-.49s3.54,.24,4.31,.24c.63,0,.77-.21,.77-.63v-1.51h-14.49l-.31-1.02h14.81v-2.14h-12.22l-.28-1.05h12.5v-2.21c-3.85,.18-7.91,.25-11.66,.18l-.11-.67c7.25-.45,16.42-1.68,21.39-2.8l2.52,2.7c-.35,.28-.98,.28-1.85-.18-2.24,.24-4.8,.46-7.53,.59v2.38h6.58l1.75-2.03s1.93,1.43,3.15,2.52c-.1,.39-.45,.56-.95,.56h-10.54v2.14h9.84l1.75-2.1Zm-21.18-13.13h-3.33v.39c0,.21-1.05,.66-1.96,.66h-.35v-7.6l2.49,1.09h3.15v-1.58h-6.93l-.28-1.05h7.21v-3.05l3.64,.42c-.11,.46-.35,.77-1.12,.88v1.75h3.22l1.37-1.72s1.58,1.23,2.59,2.2c-.11,.39-.46,.56-.91,.56h-6.27v1.58h2.73l1.22-1.26,2.63,1.96c-.18,.21-.63,.46-1.16,.56v4.24c-.04,.21-1.23,.74-2,.74h-.39v-.77h-3.04v1.26h5.18l1.16-1.44s1.26,1.05,2.06,1.89c-.1,.39-.42,.56-.88,.56h-7.53v2.98h3.4v-2.52l3.54,.35c-.07,.46-.38,.77-1.23,.88v2.7c0,.25-1.05,.7-1.85,.7h-.46v-1.08h-9.38l-.91,1.02-2.63-1.47c.25-.25,.63-.53,1.02-.77v-2.35l3.54,.39c-.07,.49-.42,.84-1.26,.95v1.23h3.71v-2.98h-7.63l-.28-1.02h7.91v-1.26Zm-3.33-4.48v1.23h3.33v-1.23h-3.33Zm3.33,3.47v-1.23h-3.33v1.23h3.33Zm2.52-3.47v1.23h3.04v-1.23h-3.04Zm3.04,3.47v-1.23h-3.04v1.23h3.04Zm2.94-1.37c2.38-1.75,2.66-3.85,2.66-5.6v-2.35l2.77,1.15h3.46l1.26-1.26,2.49,2.14c-.25,.28-.74,.39-1.23,.46v2.42c0,.31,.07,.45,.39,.45h1.4c.11,0,.32-.03,.42-.03,.14-.03,.39-.07,.56-.11h.31l.11,.03c.66,.21,.95,.35,.95,.84,0,.84-.74,1.12-3.19,1.12l2.17,1.89c-.28,.28-.63,.39-1.37,.42-.94,1.65-2.27,3.08-3.88,4.27,1.92,.77,4.16,1.3,6.58,1.61l-.03,.38c-.91,.21-1.58,.95-1.82,2.03-2.63-.63-4.87-1.54-6.76-2.8-1.86,1.02-4.06,1.75-6.62,2.28l-.25-.52c2.14-.7,3.99-1.61,5.6-2.73-1.54-1.23-2.73-2.8-3.64-4.73h-1.16l-.28-1.02h9.42l1.16-1.09h-.38c-1.68,0-1.93-.52-1.93-1.79v-3.22h-4.2v.14c0,1.72-.49,4.48-4.66,6.13l-.32-.53Zm3.22,1.37c1.01,1.47,2.45,2.7,4.17,3.61,1.23-1.05,2.17-2.28,2.87-3.61h-7.04Z"/>
      <path class="cls-2" d="M1385.17,36.08c1.92-1.19,2.87-2.63,3.29-4.34-1.75-.84-2.66-1.75-2.66-3.01,0-1.12,.77-2.14,2.21-2.14s2.41,1.09,2.41,3.19c0,2.45-1.12,5.71-4.66,7.42l-.59-1.12Z"/>
      <path class="cls-2" d="M334.01,76.32c-.91,2.14-2.7,3.64-6.69,4.45l-.42-.52c2.59-.81,3.78-2.21,4.27-3.92h-3.82l-.28-1.02h7v-2.66h-5.78l-.28-1.02h6.06v-3.12l3.61,.35c-.03,.42-.31,.7-.98,.8v1.96h2.35l1.47-1.72s1.72,1.19,2.8,2.17c-.1,.39-.42,.56-.91,.56h-5.71v2.66h3.36l1.51-1.75s1.75,1.23,2.87,2.21c-.1,.39-.42,.56-.91,.56h-3.92v1.47c0,.35,.07,.45,.42,.45h1.44c.07,0,.31,0,.42-.03,.14-.04,.38-.07,.6-.11h.28l.14,.03c.66,.21,.94,.39,.94,.84,0,.88-.77,1.19-3.36,1.19h-1.26c-1.79,0-2-.56-2-1.93v-1.93h-3.22Zm24.5,9.66c.6,.88,.81,1.51,.46,2.03-.67,.95-2.17,.49-3.12-.42-2.28-2.31-2.7-7.6-2.7-13.09h-2.83c-.18,1.96-.46,3.82-1.09,5.46,4.41,2.94,3.33,6.27,1.09,5.15-.46-.95-1.23-1.96-2.1-2.98-1.29,2.07-3.36,3.89-6.62,5.36l4.1,.63c-.14,.56-.56,.8-1.3,.84-.1,.56-.25,1.16-.42,1.72h8.65l1.54-1.54,2.87,2.42c-.28,.24-.67,.45-1.4,.52-.56,3.82-1.61,6.79-3.19,7.81-.94,.63-2.31,.98-3.95,.98,0-.77-.18-1.47-.77-1.86-.56-.45-2.14-.88-3.68-1.08v-.56c1.65,.14,4.66,.39,5.43,.39,.67,0,1.02-.07,1.33-.31,.81-.56,1.58-2.84,2.03-5.74h-9.24c-1.72,4.31-5.81,7.56-15.93,9.17l-.18-.49c7.95-1.89,11.48-4.94,13.02-8.68h-10.78l-.31-1.02h11.45c.31-1.02,.49-2.03,.6-3.12l-.11,.03-.42-.56c3.01-1.86,4.69-4.03,5.64-6.51-1.05-1.01-2.21-1.85-3.19-2.56l.35-.35c1.3,.35,2.42,.77,3.36,1.23,.35-1.36,.49-2.84,.6-4.34h-3.78l-.31-1.02h4.13c.07-1.54,.07-3.15,.07-4.9l3.85,.35c-.07,.46-.39,.81-1.16,.91-.04,1.23-.07,2.45-.14,3.64h2.45l1.47-1.51,2.8,2.31c-.21,.21-.73,.42-1.33,.52-.17,3.68,.18,8.79,1.3,10.22,.21,.21,.31,.18,.45-.17,.32-.81,.67-1.79,.98-2.77l.42,.07-.39,3.82Zm-21.84-2.87v2.52c1.75-.24,3.54-.49,5.39-.74l.11,.56c-2.91,.91-6.9,2.07-12.46,3.5-.18,.46-.49,.7-.81,.81l-1.4-3.08c1.4-.11,3.75-.35,6.58-.73v-2.84h-5.08l-.28-1.02h5.36v-2.56l3.54,.35c-.07,.35-.28,.63-.95,.74v1.47h1.86l1.37-1.54s1.58,1.12,2.59,2c-.11,.38-.42,.56-.91,.56h-4.9Z"/>
      <path class="cls-2" d="M387.74,96.09c.98,.32,1.29,.67,1.29,1.26,0,1.4-1.54,1.93-8.79,1.93h-4.87c-3.61,0-4.69-.7-4.69-3.26v-.66c-2.52,1.72-5.36,3.22-8.47,4.52l-.35-.49c3.26-1.68,6.2-3.71,8.82-5.95v-18.41l4.03,.42c-.04,.46-.38,.81-1.19,.95v14.39c5.88-5.95,9.87-13.06,12.15-19.88l4.24,1.58c-.18,.46-.56,.63-1.51,.53-2.84,7.14-7.6,14.53-14.88,20.3v2.03c0,.91,.31,1.23,2.21,1.23h4.69c2.1,0,3.61-.03,4.31-.11,.56-.03,.81-.21,.98-.59,.35-.74,.91-2.98,1.51-5.74h.42l.1,5.99Zm-20.72-15.96c1.68,5.18,.42,8.79-1.02,10.43-.95,1.09-2.49,1.37-3.15,.49-.6-.84-.21-1.79,.6-2.49,1.54-1.33,3.12-4.8,2.98-8.44h.6Zm8.44-10.78c8.4,4.2,5.57,10.82,2.77,8.3,0-2.73-1.61-5.99-3.19-8.05l.42-.25Zm11.76,11.2c9.63,5.22,6.69,12.67,3.64,9.8-.1-3.15-2.1-7-4.1-9.56l.46-.25Z"/>
      <path class="cls-2" d="M429.46,88.78c-.28,.25-.7,.42-1.4,.49-.52,5.74-1.68,9.31-3.29,10.54-.98,.74-2.31,1.09-3.75,1.09,0-.77-.17-1.44-.63-1.86-.46-.42-1.64-.77-2.87-.98v-.56c1.26,.14,3.54,.28,4.24,.28,.59,0,.91-.07,1.29-.31,.95-.74,1.86-3.89,2.31-8.54h-21.7c-1.96,2-4.24,3.82-6.79,5.36l-.39-.38c5.6-4.31,9.66-10.47,12.32-16.7h-9.66l-.32-1.02h10.4c1.08-2.66,1.89-5.29,2.48-7.81l4.13,1.16c-.14,.46-.46,.67-1.4,.63-.63,1.96-1.37,3.99-2.28,6.02h6.3l1.19-1.26,2.56,2.14c-.25,.25-.56,.35-1.12,.39l-1.02,4.55h1.58l1.19-1.26,2.52,2.07c-.28,.28-.52,.35-1.12,.42l-.8,4.69h1.65l1.54-1.51,2.84,2.38Zm-25.94,2.7c1.19,4.17-.39,6.83-1.96,7.77-1.02,.63-2.35,.6-2.77-.28-.35-.88,.21-1.61,1.02-2.1,1.54-.74,3.12-2.84,3.12-5.36l.6-.03Zm-1.26-22.72c7.88,2.31,5.5,7.88,2.8,5.88-.35-1.93-1.82-4.24-3.15-5.64l.35-.25Zm6.2,14.21c-1.12,1.72-2.38,3.36-3.82,4.94h16.28l.88-4.94h-13.34Zm-1.12,8.33c5.15,4.59,1.82,9.21-.17,6.62,.46-2.07,.17-4.69-.28-6.48l.45-.14Zm4.38-14.11c-.77,1.61-1.64,3.22-2.62,4.8h8.4l1.08-4.8h-6.86Zm.04,13.76c6.62,2.7,4.06,7.63,1.75,5.57-.07-1.75-1.12-3.96-2.17-5.36l.42-.21Zm4.9-.59c6.97,1.02,5.32,5.88,2.84,4.45-.42-1.47-1.89-3.19-3.19-4.17l.35-.28Z"/>
      <path class="cls-2" d="M461.28,96.9c1.4,.25,1.75,.63,1.75,1.15,0,1.51-2.14,1.75-13.65,1.75h-8.4c-5.11,0-7.04-.63-7.04-3.99v-23.87h-1.36l-.28-1.02h25.06l1.72-2.24s2,1.58,3.19,2.7c-.1,.39-.42,.56-.88,.56h-24.89v23.56c0,1.54,.73,2.1,4.2,2.1h8.93c3.75,0,6.83-.07,7.91-.18,.67-.04,1.23-.11,1.65-.18,.35-.07,.95-.21,1.51-.38h.42l.17,.03Zm-15.4-1.44v-1.65h-4.45v1.51c0,.25-1.05,.81-2.07,.81h-.35v-11.48l2.56,1.15h4.03l1.26-1.3,2.63,2c-.18,.24-.63,.49-1.16,.59v7.63c-.04,.24-1.26,.74-2.07,.74h-.38Zm0-2.66v-5.99h-4.45v5.99h4.45Zm8.26-10.68h-8.65v1.09c0,.21-1.19,.81-2.27,.81h-.39v-10.33l2.84,1.23h8.16l1.4-1.44,2.98,2.21c-.21,.24-.74,.52-1.33,.66v6.41c-.04,.25-1.4,.77-2.28,.77h-.46v-1.4Zm0-1.05v-5.11h-8.65v5.11h8.65Zm3.61,14.28v-1.54h-4.52v1.05c0,.25-1.09,.77-2.1,.77h-.35v-10.99l2.59,1.15h4.06l1.29-1.4,2.77,2.14c-.21,.25-.7,.53-1.26,.63v7.42c-.04,.21-1.3,.77-2.1,.77h-.38Zm0-2.56v-5.99h-4.52v5.99h4.52Z"/>
      <path class="cls-2" d="M477.97,89.69c-2.07,1.54-5.04,3.75-9.14,6.41-.07,.42-.35,.81-.7,.95l-1.79-3.36c.91-.28,2.52-.88,4.45-1.61v-12.43h-3.82l-.28-.98h4.1v-9.45l3.99,.42c-.11,.49-.38,.84-1.26,.98v8.05h.52l1.54-2.24s1.54,1.4,2.56,2.45v-.04l2.59,1.09h3.5l1.16-1.15,2.45,1.86c-.14,.18-.56,.42-1.05,.52v7.81c-.04,.25-1.19,.74-1.96,.74h-.35v-1.79h-4.06v1.96c0,.21-.74,.8-1.89,.8h-.39v-11.24c-.17,.14-.38,.21-.66,.21h-3.96v11.34c1.36-.53,2.8-1.12,4.24-1.72l.21,.42Zm10.54,1.47c-2.63,1.26-6.34,2.98-11.27,5.04-.14,.42-.46,.77-.77,.88l-1.58-3.01c2.35-.46,7.84-1.89,13.48-3.43l.14,.52Zm10.22,6.58c.7,1.15,.91,2.21,.49,2.59-1.05,.95-2.8-.1-4.17-1.61-1.47-1.58-2.66-3.5-3.61-5.74-2.91,3.36-6.58,5.67-11.34,7.46l-.28-.63c4.55-2.31,8.09-5.08,10.78-9.14-1.33-4.17-2-9.14-2.28-14.63h-11.2l-.28-1.01h11.45c-.11-1.96-.14-3.96-.14-6.02l3.89,.45c-.07,.42-.38,.84-1.19,.98-.04,1.51-.04,3.05,0,4.59h4.03l.81-1.05c-.42,.18-.95,.14-1.47-.24-.21-1.23-1.19-2.66-2.17-3.47l.35-.28c3.26,.49,4.2,1.96,4.06,3.01v-.03s1.82,1.47,2.91,2.52c-.1,.39-.42,.56-.88,.56h-7.6c.14,4.13,.56,8.16,1.44,11.62,1.26-2.49,2.27-5.39,3.12-8.86l3.75,1.23c-.17,.46-.49,.63-1.4,.6-1.23,4.06-2.7,7.35-4.55,10.05,.84,2.24,1.92,4.1,3.33,5.36,.42,.39,.7,.49,.98-.11,.42-.88,1.02-2.56,1.4-3.96l.42,.07-.63,5.71Zm-18.31-16.77v5.92h4.06v-5.92h-4.06Z"/>
      <path class="cls-2" d="M530.86,80.8l2.91,2.8c-.21,.28-.59,.31-1.26,.35-.94,.98-2.52,2.45-3.71,3.22l-.42-.21c.32-.88,.74-2.35,1.02-3.5h-10.05v4.38h5.85l1.4-1.68,3.36,2.52c-.25,.28-.84,.63-1.61,.77v6.06c0,1.82-.46,2.94-3.89,3.26-.07-.77-.24-1.4-.67-1.72-.45-.39-1.19-.7-2.59-.88v-.56s2.91,.25,3.64,.25c.56,0,.7-.21,.7-.7v-6.3h-6.2v11.17c0,.21-.95,.84-2.31,.84h-.46v-12.01h-5.92v9.24c0,.24-1.23,.91-2.31,.91h-.42v-12.46l2.98,1.3h5.67v-4.38h-9.87c.03,2.03-.7,3.54-2.07,4.24-2.1,1.09-3.61-1.23-1.26-2.56,.91-.53,2.31-2.1,2.38-4.62l.53,.04c.17,.67,.31,1.3,.35,1.86h22.58l1.64-1.61Zm.32-9.45s1.75,1.58,2.8,2.73c-.07,.38-.42,.56-.91,.56h-5.53v2.94c0,.42,.07,.53,.67,.53h2.59c.17,0,.38,0,.56-.04,.17,0,.46-.07,.66-.14h.31l.14,.07c.7,.24,.98,.49,.98,.98,0,1.02-.98,1.4-4.24,1.4h-1.79c-2.14,0-2.45-.63-2.45-2.24v-3.5h-2.87v5.71c0,.28-1.12,.73-2.03,.73h-.49v-1.51h-3.68v1.09c0,.28-1.12,.77-2.03,.77h-.49v-6.79h-3.15c-.35,2.73-2.03,5.46-7.63,7.04l-.35-.46c3.89-1.65,5.15-4.1,5.39-6.58h-5.08l-.32-1.05h5.46v-4.69l3.75,.39c-.07,.46-.31,.77-1.15,.91v3.4h3.08v-4.69l3.75,.42c-.07,.46-.39,.77-1.23,.91v3.36h3.68v-4.69l3.75,.42c-.07,.46-.38,.77-1.23,.91v3.36h2.87v-4.69l3.57,.39c-.04,.42-.39,.74-1.02,.84v3.47h2.03l1.61-2.24Zm-11.59,3.29h-3.68v3.92h3.68v-3.92Z"/>
      <path class="cls-2" d="M563.83,77.47c-.14,.42-.52,.77-1.33,.77-.32,1.09-.7,2.1-1.16,3.05,7.67,2.73,5.85,7.95,3.15,6.2-.52-1.68-2.1-3.75-3.61-5.29-1.15,2.14-2.66,3.89-4.41,5.15,3.19,4.17,7.95,7.42,12.78,8.89l-.07,.39c-1.08,.21-2.06,1.12-2.41,2.49-5.53-2.63-9.91-7.28-12.53-13.62v14.28c0,.39-1.26,1.08-2.31,1.08h-.56v-12.08c-3.5,4.17-8.79,8.05-14.42,10.4l-.32-.52c6.09-3.29,12.01-9.24,14.74-15.68v-7.63h-13.86l-.28-1.02h14.14v-5.71l4.1,.45c-.1,.49-.35,.84-1.23,.98v4.27h8.93l1.93-2.42s2.21,1.65,3.54,2.87c-.1,.39-.42,.56-.91,.56h-13.48v8.4c.49,1.02,1.08,2.03,1.79,2.98,1.86-2.56,3.22-6.13,3.78-10.22l4.03,.98Zm-15.86,.21c-.14,.42-.53,.74-1.3,.7-.35,.98-.77,1.89-1.19,2.77,5.92,2.42,3.78,6.72,1.47,4.94-.25-1.26-1.09-2.73-2.03-3.92-1.64,2.91-3.75,5.15-6.16,6.69l-.46-.39c2.56-2.73,4.76-7.04,5.81-11.97l3.85,1.19Z"/>
      <path class="cls-2" d="M582.16,96.2c2.17,.77,4.94,.95,8.4,.95,3.12,0,10.5-.04,13.76-.1v.45c-1.05,.25-1.61,1.16-1.68,2.21h-12.18c-7.81,0-11.9-1.4-14.46-8.37-.73,3.5-2.03,6.97-4.27,9.45l-.42-.39c2.35-4.31,3.15-11.2,3.15-16.66l3.78,.77c-.14,.53-.52,.81-1.33,.84-.14,1.54-.35,3.22-.67,4.83,.91,2.1,1.96,3.61,3.33,4.66v-12.99l3.71,.42c-.11,.42-.35,.74-1.12,.84v4.1h1.54l1.58-2.14s1.79,1.54,2.8,2.59c-.11,.38-.42,.56-.91,.56h-5.01v7.98Zm-3.22-16.28v-4.97h-5.6l-.28-1.02h5.88v-5.36l3.92,.39c-.07,.45-.39,.8-1.23,.91v4.06h1.82l1.61-2.1s1.89,1.47,2.98,2.56c-.07,.39-.42,.56-.91,.56h-5.5v4.97h2.27l1.68-2.21s1.89,1.54,3.08,2.66c-.11,.39-.46,.56-.95,.56h-15.4l-.28-1.02h6.9Zm8.3-8.33l-.28-1.02h12.88l1.47-1.47,2.84,2.31c-.25,.28-.67,.46-1.33,.53-.25,5.11-.81,7.95-2.07,8.93-.84,.63-2.03,.95-3.4,.95,0-.74-.1-1.44-.59-1.82-.46-.38-1.65-.7-2.77-.91v-.56c1.19,.1,3.33,.25,3.92,.25,.56,0,.81-.07,1.05-.25,.63-.56,.98-2.94,1.19-6.93h-4.97c-.49,4.1-2.03,8.58-8.68,11.76l-.46-.49c5.08-3.57,5.92-7.67,6.16-11.27h-4.97Zm11.9,23.94v-2.35h-7.81v1.93c0,.28-1.19,.91-2.28,.91h-.42v-13.27l2.87,1.23h7.28l1.47-1.54,3.12,2.35c-.25,.28-.77,.56-1.47,.7v9.14c-.04,.24-1.37,.91-2.31,.91h-.46Zm0-3.36v-7.18h-7.81v7.18h7.81Z"/>
      <path class="cls-2" d="M616.29,96.3c2.27,.88,5.22,1.09,8.96,1.09,3.22,0,10.78,0,14.11-.1v.49c-1.12,.21-1.68,1.12-1.75,2.17h-12.5c-7.7,0-11.9-1.33-14.53-7.91-.67,3.26-1.82,6.37-3.64,8.72l-.46-.39c2-4.41,2.7-11.52,2.63-16.98l3.78,.77c-.1,.45-.49,.77-1.29,.8-.14,1.82-.39,3.85-.77,5.85,.84,1.82,1.79,3.12,2.98,4.06v-13.02l3.61,.38c-.11,.46-.39,.77-1.12,.88v4.1h1.3l1.47-2.03s1.72,1.44,2.77,2.49c-.11,.38-.42,.56-.91,.56h-4.62v8.09Zm-3.12-16.31v-5.22h-4.87l-.28-1.02h5.15v-5.18l3.78,.39c-.04,.45-.39,.8-1.19,.91v3.89h1.33l1.5-1.93s1.79,1.36,2.8,2.38c-.07,.39-.42,.56-.88,.56h-4.76v5.22h1.89l1.61-2.03s1.79,1.4,2.91,2.49c-.11,.39-.42,.56-.91,.56h-13.93l-.28-1.02h6.13Zm7.46,11.34c1.37-.88,1.61-1.15,1.61-1.75v-16.35l3.05,1.68h3.22c-.18-2.14-.25-4.24-.32-6.3l3.89,.42c-.04,.42-.35,.81-1.19,.95,.04,1.57,.07,3.22,.18,4.94h3.4l.94-1.15c-.38,.07-.81,0-1.26-.32-.21-1.23-1.26-2.77-2.14-3.64l.35-.25c3.4,.74,4.17,2.42,3.89,3.43,.38,.32,1.86,1.47,2.84,2.42-.07,.38-.42,.56-.94,.56h-7c.21,3.26,.66,6.58,1.44,9.42,1.05-2.28,1.86-4.76,2.41-7.46l3.64,1.05c-.14,.39-.56,.74-1.36,.7-.88,3.12-2.14,5.92-3.82,8.33,.66,1.58,1.54,2.8,2.59,3.57,.42,.39,.59,.35,.84-.07,.39-.7,.95-2.28,1.3-3.4l.45,.1-.63,4.69c.73,.95,1.12,1.89,.66,2.35-.84,.88-2.52,.14-3.82-.95-1.29-.91-2.31-2.31-3.15-4.06-2.1,2.38-4.66,4.27-7.7,5.57l-.42-.45c2.91-1.61,5.39-4.03,7.32-6.97-1.26-3.54-1.96-7.95-2.31-12.43h-3.89v13.41c1.37-.66,2.94-1.51,4.52-2.35l.24,.42c-1.26,1.12-3.78,3.4-6.44,5.6-.18,.31-.39,.52-.56,.66l-1.82-2.38Z"/>
      <path class="cls-2" d="M662.63,73.73c12.32,4.66,10.85,12.29,7.56,10.22-.35-1.15-1.05-2.38-1.93-3.64-5.43,.91-13.16,1.93-22.4,2.91-.21,.32-.49,.49-.73,.6l-1.33-3.4s.77-.14,1.12-.35c3.92-2.38,9.24-8.26,11.24-11.55l3.99,1.82c-.14,.35-.6,.63-1.37,.53-2.66,2.91-7.63,6.9-12.08,9.59,4.73-.07,12.71-.46,21-.91-1.61-2.07-3.68-4.1-5.46-5.46l.39-.35Zm4.2,11.03l3.29,2.56c-.25,.28-.81,.6-1.54,.77v11.55c-.07,.21-1.5,.81-2.48,.81h-.46v-2.7h-15.33v2.03c0,.31-1.26,.98-2.45,.98h-.45v-15.65l3.12,1.33h14.77l1.54-1.68Zm-1.19,11.97v-9.24h-15.33v9.24h15.33Z"/>
      <path class="cls-2" d="M706.59,77.02s1.82,1.47,2.91,2.49c-.1,.39-.46,.56-.91,.56h-18.87c-.17,.18-.46,.24-.77,.24h-4.27v3.4c7.04,2.73,4.87,7.25,2.59,5.46-.35-1.51-1.5-3.36-2.59-4.73v15.54c0,.21-.88,.84-2.17,.84h-.42v-13.93c-1.44,2.84-3.29,5.43-5.57,7.63l-.45-.45c2.63-3.82,4.48-8.82,5.46-13.76h-4.34l-.28-1.02h5.18v-5.85c-1.71,.42-3.54,.81-5.25,1.05l-.17-.53c3.4-1.23,7.6-3.47,9.63-5.04l3.36,2.7c-.31,.32-.98,.39-1.89,.11-.88,.32-1.93,.67-3.08,1.02v6.55h.81l1.58-2.1s1.08,.95,2.07,1.86h8.54v-2.73h-6.62l-.28-.98h6.9v-2.49h-7.46l-.28-.98h7.74v-3.01l3.92,.39c-.07,.49-.42,.84-1.29,.98v1.65h4.34l1.54-2.1s1.82,1.47,2.91,2.52c-.1,.39-.46,.56-.91,.56h-7.88v2.49h3.61l1.47-1.72s1.68,1.23,2.73,2.14c-.07,.39-.38,.56-.88,.56h-6.93v2.73h4.73l1.58-2.03Zm-19.71,23.21c3.08-1.19,6.44-3.08,8.93-5.25l3.19,2.1c-.28,.31-.59,.38-1.26,.21-3.05,1.61-6.93,2.84-10.5,3.54l-.35-.59Zm17.15-5.04v-1.02h-9.8v.7c0,.28-1.12,.88-2.21,.88h-.39v-14.81l2.77,1.23h9.28l1.36-1.54,3.01,2.28c-.21,.25-.73,.53-1.36,.66v10.82c-.04,.25-1.4,.81-2.24,.81h-.42Zm-9.8-12.04v2.59h9.8v-2.59h-9.8Zm9.8,3.64h-9.8v2.59h9.8v-2.59Zm0,6.37v-2.77h-9.8v2.77h9.8Zm-3.47,2.14c12.74,2.24,7.98,7.21,5.78,4.97-1.12-1.37-3.19-3.05-5.99-4.45l.21-.52Z"/>
      <path class="cls-2" d="M716.6,75.41c.07,2.07-.88,3.43-1.89,4.03-.95,.52-2.17,.42-2.49-.49-.31-.84,.28-1.58,1.09-1.96,1.23-.6,2.35-2.24,2.17-4.1l.56-.04c.21,.53,.35,1.05,.42,1.54h9.84v-2.63h-9.91l-.28-1.02h19.04l1.75-2.1s1.96,1.47,3.19,2.56c-.11,.39-.46,.56-.95,.56h-10.08v2.63h10.61l1.61-1.65,2.91,2.8c-.24,.28-.59,.32-1.29,.35-.88,1.09-2.45,2.59-3.64,3.4l-.45-.24c.35-.95,.77-2.45,1.05-3.64h-10.78v7.74c0,.17-.91,.73-2.31,.73h-.46v-8.47h-9.7Zm25.87,21.88c1.15,.46,1.29,.56,1.29,1.05,0,1.02-1.02,1.68-4.55,1.68h-8.61c-3.54,0-4.31-.56-4.31-3.71v-2.42h-7v1.68c0,.21-1.23,.88-2.35,.88h-.39v-13.09l.73,.32-1.12-2.49c1.65-.14,5.32-.6,8.93-1.09l.07,.53c-1.58,.63-3.85,1.54-6.97,2.59-.1,.32-.28,.53-.46,.66l1.75,.77h16.52l.98-1.09c-1.75-.91-4.73-2.14-6.9-2.7l.21-.59c7.98-.32,9.28,2.84,7.88,3.43l2.28,1.75c-.21,.25-.74,.53-1.37,.67v8.37c-.04,.25-1.4,.91-2.31,.91h-.46v-1.51h-7.32v2.59c0,1.15,.14,1.26,1.65,1.26h8.68c.88,0,1.26,0,1.54-.39,.25-.39,.59-1.54,1.05-3.29h.46l.07,3.22Zm-25.38-20.62c7.88-.91,8.37,3.19,6.13,3.01-1.44-.88-4.24-2.03-6.34-2.45l.21-.56Zm2.21,9v3.01h7v-3.01h-7Zm7,7.18v-3.12h-7v3.12h7Zm2.73-7.18v3.01h7.32v-3.01h-7.32Zm7.32,7.18v-3.12h-7.32v3.12h7.32Zm-6.13-13.83c2-.88,5.11-2.56,6.37-3.36l1.72,2.56c-.25,.18-.56,.1-.95-.14-1.36,.39-4.59,1.09-7,1.4l-.14-.46Z"/>
      <path class="cls-2" d="M758.84,81.53c-1.16,.95-2.56,2.14-4.31,3.54v11.76c0,2.24-.42,3.61-4.1,3.99-.07-.98-.28-1.72-.73-2.17-.53-.53-1.4-.88-2.98-1.12v-.53s3.5,.25,4.24,.25c.63,0,.81-.17,.81-.7v-9.35c-.88,.7-1.79,1.4-2.8,2.14-.04,.42-.25,.81-.6,1.02l-1.82-3.22c1.02-.39,2.94-1.33,5.22-2.49v-6.97h-4.83l-.28-1.02h5.11v-8.12l4.03,.42c-.07,.49-.42,.84-1.26,.98v6.72h.98l1.58-2.17s1.82,1.51,2.87,2.63c-.07,.39-.42,.56-.91,.56h-4.52v5.57c1.33-.7,2.66-1.4,4.03-2.14l.28,.42Zm18.1,4.1c-.28,.32-.66,.39-1.5,.46-1.37,3.12-3.26,5.88-5.85,8.19,2.73,1.79,6.06,3.01,9.77,3.78l-.04,.42c-1.19,.18-2.06,1.02-2.49,2.31-3.68-1.16-6.69-2.73-9.1-4.97-3.08,2.24-6.97,3.96-11.76,5.08l-.28-.56c4.31-1.4,7.84-3.43,10.68-5.92-2-2.31-3.43-5.15-4.41-8.75h-2.62l-.32-1.02h13.41l1.71-1.61,2.8,2.59Zm-19.11-1.93c3.82-2.94,4.38-6.65,4.38-9.91v-4.13l3.08,1.26h5.39l1.4-1.51,2.77,2.35c-.25,.24-.66,.42-1.29,.52v6.86c0,.39,.07,.53,.59,.53h1.19c.46,0,.91,0,1.15-.04h.53c.21-.03,.49-.1,.67-.14h.31l.14,.03c.7,.28,.98,.49,.98,1.05,0,1.02-.88,1.54-4.03,1.54h-1.72c-2.1,0-2.38-.6-2.38-2.24v-7.95h-6.2v1.86c0,3.08-.66,7.6-6.62,10.33l-.35-.42Zm4.87,1.96c1.09,3.01,2.87,5.43,5.18,7.28,2-2.14,3.54-4.59,4.59-7.28h-9.77Z"/>
      <path class="cls-2" d="M791.64,77.12s1.96,1.61,3.19,2.8c-.07,.39-.46,.56-.94,.56h-11.9l-.25-1.02h8.09l1.82-2.35Zm-9.28,23.28c4.17-1.23,8.79-3.57,11.03-5.43l3.33,2.38c-.31,.31-.91,.39-1.79,.14-2.94,1.44-7.77,2.84-12.36,3.43l-.21-.52Zm.77-27.44l-.28-1.02h5.67l1.71-2.28s1.96,1.58,3.15,2.73c-.07,.39-.42,.56-.91,.56h-9.35Zm22.79,22.79v-1.05h-16v.95c0,.25-.91,.77-2.38,.77h-.49v-14.25l3.26,1.3h15.47l1.47-1.68,2.98,2.28c-.21,.28-.56,.49-1.3,.63v10.29c0,.18-1.09,.77-2.52,.77h-.49Zm-16-11.27v2.42h16v-2.42h-16Zm16,3.47h-16v2.35h16v-2.35Zm0,5.74v-2.35h-16v2.35h16Zm-.77-19.22c-.07,.39-.46,.77-1.19,.88-.11,.45-.21,.91-.38,1.33,1.54,1.54,4.62,2.91,10.26,3.68l-.04,.46c-1.3,.24-2.03,.66-2.17,2.1-4.83-1.12-7.25-3.15-8.51-5.22-1.16,1.96-3.78,3.78-10.5,5.15l-.31-.67c7.56-2.35,8.68-4.94,8.96-8.12l3.89,.42Zm-12.32,2.35c2.17-2,3.96-5.46,4.8-8.47l4.2,.81c-.1,.39-.35,.56-1.22,.52-.46,.81-.95,1.58-1.54,2.38h10.22l1.5-1.58,2.87,2.7c-.28,.28-.66,.31-1.37,.39-.95,1.02-2.63,2.56-3.92,3.4l-.46-.24c.46-.91,1.02-2.45,1.44-3.64h-11.1c-1.43,1.61-3.12,3.08-5.01,4.1l-.42-.35Zm7.42,18.87c16.49,1.02,11.87,6.83,8.96,4.66-1.75-1.37-4.76-3.01-9.1-4.13l.14-.52Z"/>
      <path class="cls-2" d="M827.06,77.79v22.16c0,.21-.91,.84-2.42,.84h-.42v-23h-1.65c-1.58,2.98-3.47,5.5-5.6,7.42l-.49-.32c2.66-3.96,5.08-10.01,6.23-16.35l4.17,1.12c-.14,.46-.53,.77-1.33,.74-.7,2.28-1.51,4.41-2.49,6.37h5.5l1.72-2.24s1.96,1.58,3.12,2.7c-.11,.38-.42,.56-.91,.56h-5.43Zm19.11-3.33s2.03,1.57,3.22,2.77c-.07,.38-.42,.56-.88,.56h-5.36v19.04c0,2.14-.53,3.64-4.24,3.99-.04-.91-.25-1.61-.74-2.07-.52-.49-1.4-.84-3.15-1.09v-.49s3.71,.25,4.48,.25c.63,0,.81-.21,.81-.7v-18.94h-4.13c-1.71,2.91-3.75,5.36-6.02,7.21l-.46-.39c2.87-3.78,5.46-9.77,6.76-16.1l4.34,1.3c-.14,.42-.56,.74-1.37,.7-.74,2.24-1.65,4.34-2.66,6.27h7.6l1.79-2.31Z"/>
      <path class="cls-2" d="M860.9,82.37c7.46,2.8,5.36,7.53,2.98,5.78-.46-1.58-1.75-3.43-2.98-4.87v16.7c0,.21-.95,.88-2.28,.88h-.46v-14.7c-1.68,3.05-3.85,5.74-6.44,8.02l-.49-.46c2.98-3.71,5.15-8.75,6.41-13.62h-5.36l-.28-1.02h6.16v-5.92c-1.96,.39-4.06,.74-6.02,.91l-.17-.53c3.96-1.16,8.75-3.26,11.17-4.87l3.29,2.87c-.28,.32-.94,.32-1.85,.04-1.05,.31-2.31,.66-3.68,1.02v6.48h1.44l1.61-2.17s1.82,1.54,2.87,2.63c-.07,.38-.42,.56-.88,.56h-5.04v2.28Zm20.93,3.57s1.89,1.33,3.08,2.28c0,.39-.35,.66-.77,.74l-4.94,.95v9.84c0,.35-1.15,1.02-2.2,1.02h-.52v-10.33l-11.83,2.28-.46-.91,12.29-2.38v-20.13l3.99,.42c-.11,.49-.39,.88-1.26,1.02v18.17l1.23-.24,1.4-2.7Zm-14.7-5.32c8.82,1.54,6.93,7.32,4.03,5.53-.59-1.79-2.62-3.99-4.34-5.22l.31-.31Zm.81-8.37c8.65,1.75,6.72,7.49,3.88,5.67-.59-1.86-2.55-4.1-4.24-5.39l.35-.28Z"/>
      <path class="cls-2" d="M901.96,75.76c-.25,.28-.8,.56-1.5,.73v21.25c-.04,.25-1.33,.91-2.28,.91h-.38v-2.7h-6.79v2.8c0,.31-1.01,.98-2.13,.98h-.49v-26.08l2.8,1.3h.91c.35-1.79,.84-4.45,1.16-6.3l4.24,.98c-.14,.49-.59,.77-1.33,.77-.77,1.33-1.86,3.12-2.8,4.55h4.09l1.44-1.65,3.08,2.45Zm-10.96,.21v8.72h6.79v-8.72h-6.79Zm6.79,18.97v-9.24h-6.79v9.24h6.79Zm21.21-19.18c-.28,.31-.7,.49-1.5,.6-.25,13.27-.84,20.65-2.52,22.68-1.05,1.23-2.49,1.75-4.38,1.75,0-.91-.14-1.68-.7-2.1-.56-.49-2-.91-3.54-1.19l.04-.6c1.65,.18,4.1,.39,4.97,.39,.7,0,.98-.11,1.29-.49,1.33-1.23,1.82-8.93,2.03-20.86h-7.95c-1.51,2.91-3.33,5.46-5.32,7.35l-.49-.32c2.13-3.5,4.27-8.96,5.36-14.32l4.13,1.16c-.14,.42-.56,.74-1.3,.74-.56,1.54-1.19,2.98-1.86,4.38h7.07l1.64-1.79,3.01,2.63Zm-14.67,6.34c8.89,3.57,6.41,9.8,3.54,7.49-.35-2.38-2.21-5.39-3.89-7.25l.35-.25Z"/>
      <path class="cls-2" d="M934.44,86.92c-.25,.25-.66,.46-1.4,.53-.32,6.51-1.16,10.57-2.63,11.87-.91,.8-2.21,1.16-3.82,1.16,.04-.74-.1-1.44-.63-1.82-.53-.42-1.96-.77-3.33-1.02v-.56c1.5,.14,4.03,.31,4.8,.31,.63,0,.94-.07,1.26-.31,.84-.74,1.47-4.45,1.79-9.98h-5.15l-1.09,1.26-2.7-1.93c.35-.25,.8-.49,1.29-.67,.32-2.31,.67-6.09,.7-8.19l3.04,1.19h3.75v-6.97h-7.91l-.32-1.02h7.84l1.4-1.51,3.04,2.31c-.24,.28-.8,.6-1.54,.74v8.26c-.03,.21-1.3,.74-2.13,.74h-.38v-1.54h-4.48c-.18,1.89-.42,4.45-.67,6.3h4.97l1.44-1.47,2.83,2.31Zm13.16,5.04c8.79,4.45,6.54,10.54,3.75,8.3-.21-1.12-.7-2.35-1.29-3.57-3.47,.8-7.98,1.75-14.07,2.87-.17,.42-.56,.67-.91,.77l-1.58-3.36c1.82-.07,4.87-.25,8.58-.53v-6.16h-4.3v1.58c0,.18-1.09,.74-2.14,.74h-.35v-11.31l2.66,1.19h4.13v-4.48c-1.75,.31-3.61,.63-5.53,.91-.21,.35-.49,.6-.74,.7l-1.47-3.33s.66-.1,.95-.25c2.55-1.51,5.84-5.53,7.11-7.67l3.61,1.96c-.17,.28-.63,.56-1.33,.42-1.79,1.79-4.9,4.1-7.74,5.74,2.91-.11,7.35-.39,12.08-.7-.91-1.23-2.1-2.38-3.15-3.22l.32-.24c9.14,2.24,7.35,8.68,4.48,6.76-.17-.81-.56-1.65-1.09-2.49-1.4,.28-3.08,.63-4.9,.98v4.9h4.09l1.33-1.44,2.87,2.21c-.18,.21-.7,.49-1.3,.63v7.35c-.03,.25-1.33,.74-2.17,.74h-.42v-1.68h-4.41v5.99l4.97-.38c-.74-1.33-1.65-2.63-2.42-3.68l.39-.25Zm-5.53-2.73v-5.74h-4.3v5.74h4.3Zm2.59-5.74v5.74h4.41v-5.74h-4.41Z"/>
      <path class="cls-2" d="M975.14,94.27c-3.71,1.3-8.79,2.94-15.96,5.08-.21,.38-.56,.67-.91,.77l-1.54-3.57c1.58-.18,4.24-.56,7.49-1.05v-7.07h-6.9l-.28-1.02h13.34l1.37-1.72c-.21-.07-.46-.14-.66-.31-.32-1.61-1.5-4.13-3.33-5.88,.98-1.65,2.62-4.73,3.12-5.85l3.22,1.12c-.11,.31-.46,.49-1.02,.39-.84,.88-3.01,3.05-4.38,4.27,5.36,2.56,5.08,5.57,3.78,6.16,.63,.49,1.85,1.47,2.7,2.28-.11,.39-.46,.56-.91,.56h-7.28v6.62c2.52-.39,5.29-.84,8.05-1.33l.11,.56Zm-17.85-21.42l-.28-.98h13.27l1.75-2.28s2.07,1.61,3.25,2.7c-.07,.39-.46,.56-.91,.56h-17.08Zm5.95,1.75c-.11,.31-.45,.49-1.01,.39-.81,.91-2.8,3.19-4.03,4.45,6.58,3.61,3.85,7.67,1.96,6.13-.21-1.57-1.23-4.2-2.84-6.02,.84-1.68,2.28-4.87,2.63-5.99l3.29,1.05Zm5.22,.04c-.11,.32-.46,.49-.98,.39-.8,.88-2.94,3.15-4.2,4.38,6.76,3.47,4.06,7.56,2.1,6.02-.24-1.58-1.29-4.13-3.04-5.95,.95-1.65,2.45-4.8,2.87-5.92l3.26,1.09Zm20.65,3.68c-.25,.28-.66,.49-1.44,.6-.25,12.78-.84,18.52-2.49,20.3-.95,1.09-2.35,1.54-3.82,1.54,0-.88-.1-1.54-.53-1.96-.49-.46-1.58-.81-2.73-1.05v-.56c1.19,.11,3.12,.28,3.78,.28,.63,0,.88-.14,1.22-.46,1.16-1.09,1.65-7.18,1.89-18.48h-4.31c-.28,9.35-1.65,16.98-9.52,22.33l-.46-.59c5.92-5.53,7.07-12.78,7.28-21.74h-3.75l-.32-1.02h4.1c.04-2.7,0-5.57,0-8.58l4.03,.42c-.11,.49-.42,.84-1.23,.98-.03,2.49-.03,4.87-.1,7.18h3.92l1.51-1.72,2.94,2.52Z"/>
      <path class="cls-2" d="M1005.87,91.02c-.25,.28-.66,.46-1.37,.53-.32,4.8-1.09,7.53-2.38,8.54-.88,.63-2,.95-3.43,.95,0-.7-.11-1.4-.59-1.75-.49-.42-1.65-.74-2.84-.91v-.6c1.3,.1,3.47,.28,4.13,.28,.56,0,.8-.07,1.09-.28,.63-.52,1.16-2.84,1.47-6.58h-4.72l-1.19,1.37-2.66-2.03c.35-.25,.91-.53,1.43-.7,.32-1.68,.7-4.2,.81-5.67l3.01,1.29h3.12v-4.34h-4.24c-1.75,1.02-3.75,1.93-5.88,2.66l-.32-.49c2.87-1.36,5.46-3.29,7.6-5.43-.42,.14-.95,.11-1.5-.25-.35-1.4-1.79-3.01-3.08-3.85l.28-.28c4.45,.25,5.5,2.28,5.11,3.5,1.44-1.58,2.63-3.33,3.43-5.08h-9.24l-.31-1.02h9.63l1.79-1.61,2.84,2.52c-.28,.31-.63,.42-1.47,.45-1.61,2.98-4.06,5.67-7.25,7.84h2.98l1.16-1.33,2.38,2.24c-.25,.24-.74,.52-1.29,.6v5.39c-.07,.1-1.12,.63-2.07,.63h-.53v-1.16h-3.95c-.17,1.19-.42,2.56-.67,3.71h4.55l1.4-1.44,2.8,2.28Zm12.11-3.08l2.84,2.49c-.28,.31-.67,.39-1.5,.42-.91,1.43-2.07,2.73-3.43,3.96,5.92,3.15,5.18,6.37,2.7,5.57-1.08-1.16-2.8-2.59-4.76-3.99-2.7,1.93-5.99,3.43-9.73,4.45l-.32-.53c3.12-1.23,5.99-3.05,8.37-5.11-1.65-1.12-3.33-2.14-4.76-2.87l.32-.42c2.31,.56,4.31,1.19,5.92,1.86,.95-1.05,1.79-2.1,2.42-3.22h-9.38l-.31-1.02h9.91l1.75-1.58Zm5.25-13.62c-.24,.32-.52,.46-1.26,.25-1.16,.81-2.87,1.79-4.52,2.56,2.17,1.3,4.62,2.28,7.07,2.98l-.07,.39c-1.19,.18-2.07,1.05-2.49,2.38-1.26-.53-2.45-1.16-3.54-1.82-.28,.18-.66,.32-1.16,.39v3.75c0,.35,.07,.46,.49,.46h1.89c.14,0,.39,0,.49-.03,.17-.04,.46-.07,.63-.11h.32l.14,.03c.7,.25,.98,.46,.98,.95,0,1.02-.88,1.33-3.78,1.33h-1.5c-1.96,0-2.24-.59-2.24-2.07v-4.62h-4.13v1.08c0,2.14-.56,5.22-5.29,7.04l-.32-.49c2.7-1.96,3.01-4.38,3.01-6.51v-3.36l3.04,1.23h3.36l1.16-1.12c-3.08-2.59-5.5-5.95-6.83-10.19l.53-.31c.8,1.85,2,3.54,3.43,5.01,1.4-1.37,2.97-3.26,3.71-4.41l3.15,1.96c-.25,.35-.53,.49-1.3,.28-1.23,.84-3.08,1.93-4.9,2.8,.98,.94,2.1,1.79,3.22,2.49,1.37-1.33,2.8-3.15,3.54-4.27l3.15,2Z"/>
      <path class="cls-2" d="M1056.91,91.47c-.25,.31-.59,.42-1.33,.18-1.47,.81-3.71,1.89-5.85,2.77,2.59,1.82,5.88,2.91,9.63,3.54l-.07,.42c-1.16,.24-1.96,1.16-2.35,2.49-6.55-2-10.71-5.43-12.74-12.08h-4.06v8.37c1.72-.49,3.75-1.12,5.78-1.82l.14,.49c-1.44,.95-4.2,2.7-7.25,4.48-.17,.32-.42,.56-.67,.7l-2-3.12c1.12-.7,1.29-.95,1.29-1.47v-7.63h-4.41l-.07-.21c-.77,4.34-2.45,8.72-5.99,12.22l-.53-.32c3.96-6.41,4.38-14.18,4.38-21.32v-9.77l3.33,1.3h19.01l1.44-1.54,3.15,2.35c-.25,.28-.81,.56-1.51,.74v5.74c-.03,.21-1.4,.74-2.27,.74h-.46v-1.33h-19.85v1.75c0,2.63-.07,5.6-.56,8.65h6.06v-4.73h-4.87l-.28-1.02h5.15v-3.99l3.78,.31c-.07,.46-.35,.74-1.08,.91v2.77h5.84v-3.96l3.75,.35c-.04,.46-.32,.74-1.09,.91v2.7h1.82l1.68-2.17s1.89,1.51,3.04,2.63c-.07,.39-.42,.56-.91,.56h-5.63v4.73h3.67l1.75-2.35s2.03,1.61,3.22,2.8c-.07,.39-.42,.56-.91,.56h-13.16c.95,2.07,2.34,3.75,4.03,5.08,1.71-1.47,3.67-3.47,4.76-4.62l3.18,2.24Zm-23.24-19.78v4.66h19.85v-4.66h-19.85Zm8.19,16.07h5.84v-4.73h-5.84v4.73Z"/>
      <path class="cls-2" d="M1079.3,95.29c-3.54,1.12-8.4,2.63-15.23,4.38-.18,.45-.56,.74-.91,.8l-1.37-3.57c1.58-.11,4.27-.42,7.53-.84v-3.47h-6.79l-.24-1.02h7.04v-3.29h-3.75v.77c0,.18-.84,.66-2.07,.66h-.42v-12.15l2.84,1.19h3.4v-2.73h-7.28l-.28-.98h7.56v-2.84c-2.41,.21-4.9,.38-7.25,.42l-.14-.63c4.97-.7,11.24-2.28,14.49-3.5l2.84,2.8c-.35,.31-1.05,.28-1.89-.07-1.58,.25-3.46,.49-5.5,.74v3.08h3.71l1.65-2.07s1.89,1.44,3.01,2.49c-.1,.39-.42,.56-.91,.56h-7.45v2.73h3.82l1.19-1.47,2.7,2.03c-.21,.28-.56,.49-1.26,.59v8.51c0,.14-.95,.7-2.13,.7h-.42v-.84h-3.88v3.29h2.94l1.5-1.93s1.79,1.37,2.91,2.38c-.11,.39-.46,.56-.91,.56h-6.44v3.15c2.31-.32,4.79-.67,7.32-1.02l.11,.56Zm-13.72-15.51v3.22h3.75v-3.22h-3.75Zm3.75,7.49v-3.26h-3.75v3.26h3.75Zm2.56-7.49v3.22h3.88v-3.22h-3.88Zm3.88,7.49v-3.26h-3.88v3.26h3.88Zm18.59-9.31c-.24,.31-.66,.53-1.4,.63-.21,12.92-.7,18.62-2.28,20.44-.95,1.05-2.35,1.54-3.82,1.54,0-.91-.11-1.58-.49-2-.46-.42-1.58-.77-2.73-1.02v-.6c1.23,.14,3.05,.28,3.75,.28,.63,0,.88-.1,1.22-.42,1.09-1.09,1.44-7.18,1.65-18.66h-4.31c-.21,10.29-1.4,17.75-9.87,22.79l-.46-.6c6.51-5.22,7.53-12.36,7.63-22.19h-3.71l-.32-1.02h4.03c.04-2.56,0-5.29,0-8.19l3.99,.42c-.1,.53-.46,.88-1.22,.98-.04,2.38-.04,4.66-.07,6.79h3.96l1.54-1.72,2.91,2.52Z"/>
      <path class="cls-2" d="M1109.19,80.48l3.15,2.42c-.21,.25-.77,.56-1.47,.66v13.65c0,2.07-.38,3.26-3.5,3.57-.07-.84-.21-1.51-.6-1.96-.35-.42-.98-.74-2.21-.91v-.56s2.42,.21,3.01,.21c.52,0,.66-.21,.66-.63v-4.83c-1.58,.98-3.4,1.93-5.53,2.8-.1,.46-.38,.73-.73,.88l-.84-1.82c-.52,2.56-1.61,5.15-4.06,7.11l-.42-.39c2.24-3.54,2.35-7.95,2.35-12.15v-7.77l3.04,1.26h5.88l1.26-1.54Zm-1.89-7.39c8.26,2.98,5.95,8.96,3.33,6.83-.07-.8-.38-1.65-.8-2.49-2.66,.66-6.48,1.54-10.68,2.35-.25,.35-.52,.59-.8,.7l-1.29-3.33s.59-.1,.88-.28c2.21-1.68,4.97-6.06,5.95-8.37l3.82,1.61c-.14,.31-.56,.6-1.26,.53-1.61,2.03-4.27,4.66-6.72,6.48,2.45-.1,5.99-.31,9.7-.56-.73-1.19-1.64-2.35-2.52-3.22l.42-.25Zm-5.74,15.44c0,1.33-.04,2.77-.21,4.24,1.89-.35,4.48-.94,6.9-1.68v-8.02h-6.69v3.15c6.27-1.47,7.7,3.43,5.08,3.08-1.23-.88-2.91-1.72-5.08-2.1v1.33Zm16.31-5.04c-2.94,0-3.5-.59-3.5-2.59v-12.04l3.85,.42c-.07,.42-.38,.74-1.09,.88v4.03h5.39l1.54-1.96s1.68,1.36,2.77,2.42c-.11,.39-.46,.56-.91,.56h-8.79v5.11c0,.53,.14,.7,1.37,.7h3.15c1.22,0,2.45,0,2.91-.04,.31-.03,.63-.03,.8-.07,.25-.04,.63-.1,.88-.18h.35l.14,.03c.88,.31,1.23,.56,1.23,1.12,0,1.19-1.26,1.61-6.58,1.61h-3.5Zm9.24,13.69c.91,.32,1.16,.63,1.16,1.16,0,1.23-1.29,1.68-6.72,1.68h-3.57c-2.97,0-3.61-.63-3.61-2.66v-12.92l3.89,.42c-.07,.45-.38,.77-1.08,.88v3.47h5.81l1.54-1.96s1.68,1.4,2.73,2.45c-.11,.38-.42,.56-.91,.56h-9.17v6.51c0,.56,.17,.74,1.4,.74h3.18c1.37,0,2.49-.03,2.94-.03,.38-.03,.56-.14,.77-.38,.28-.46,.74-1.93,1.12-3.57h.42l.1,3.68Z"/>
      <path class="cls-2" d="M1134.25,84.72c0-2.73,2.21-4.9,4.94-4.9s4.9,2.17,4.9,4.9-2.17,4.94-4.9,4.94-4.94-2.21-4.94-4.94Zm1.19,0c0,2.03,1.68,3.75,3.75,3.75s3.71-1.72,3.71-3.75-1.68-3.71-3.71-3.71-3.75,1.68-3.75,3.71Z"/>
    </g>
  </g>
</svg>