<?xml version="1.0" encoding="UTF-8"?>
<svg id="_圖層_2" data-name="圖層 2" xmlns="http://www.w3.org/2000/svg" xmlns:xlink="http://www.w3.org/1999/xlink" viewBox="0 0 400.9 90.77">
  <defs>
    <style>
      .cls-1 {
        filter: url(#drop-shadow-1);
      }

      .cls-2 {
        fill: #fff000;
      }
    </style>
    <filter id="drop-shadow-1" filterUnits="userSpaceOnUse">
      <feOffset dx="0" dy="0"/>
      <feGaussianBlur result="blur" stdDeviation="5.08"/>
      <feFlood flood-color="#231815" flood-opacity=".95"/>
      <feComposite in2="blur" operator="in"/>
      <feComposite in="SourceGraphic"/>
    </filter>
  </defs>
  <g id="_圖層_1-2" data-name="圖層 1">
    <g class="cls-1">
      <path class="cls-2" d="M40.11,4.62l4.16,1.47c.08-1.76,.17-4.16,.17-5.88l7.02,1.3c-.17,.67-.71,1.01-1.68,1.09-1.01,1.13-2.6,2.77-3.78,3.99h3.23l2.14-2.44,4.49,3.49c-.21,.29-.67,.59-1.34,.71v9.75l2.31-.25,.04,.59-2.35,.84v14.91c0,3.36-.67,5.17-5.76,5.59-.04-1.51-.21-2.73-.63-3.4-.46-.71-1.09-1.22-2.65-1.55v-.55s2.73,.17,3.4,.17c.59,0,.71-.25,.71-.76v-12.81l-4.66,1.34c-.08,6.26-.84,13.02-6.97,17.85l-.46-.29c2.27-4.62,2.56-10.46,2.6-16.3l-.21,.04c-.29,.5-.76,.88-1.26,.97l-1.22-5.29,2.69-.04V4.62Zm5.76,11.89c.17-1.64,.04-4.58-.92-6.76v9.16l4.66-.34V7.77h-4.66v1.55l.38-.21c7.48,4.79,2.44,10.54,.55,7.39Zm-.17,13.69c.29-1.81,.34-5.21-.67-7.6l.59-.25c7.18,5.59,1.81,11.13,.08,7.86Zm12.27-17.26l6.18,2.14h2.56l2.56-2.9,4.7,3.82c-.25,.34-.67,.59-1.51,.71v16.05c0,.46,.08,.67,.42,.67h.29c.13,0,.25,0,.38-.04,.21,0,.42-.04,.67-.46,.38-.71,1.05-3.23,1.68-5.55h.46l.13,5.88c1.13,.59,1.34,1.18,1.34,2.14,0,1.97-1.72,3.15-5.29,3.15h-1.64c-3.28,0-3.7-1.13-3.7-4.28V16.26h-3.86v7.31c0,5.5-.8,12.39-9.7,16.59l-.34-.38c4.24-4.62,4.66-10.59,4.66-16.21V12.94Zm19.74-3.57c-.13,.46-.59,.67-1.18,.67h-21.3l-.34-1.18h14.62l2.94-4.16s3.36,2.81,5.25,4.66Zm-14.66-1.89c-.17-2.48-1.43-5.21-2.9-6.97l.34-.21c12.56,1.3,7.56,11.01,2.56,7.18Z"/>
      <path class="cls-2" d="M90.01,6.59h11.13c-.46-.17-.92-.42-1.34-.8,.08-2.1-.67-4.2-1.6-5.59l.21-.17c9.66,.08,9.12,5.17,6.01,6.55h9.62l3.15-3.19,5.46,5.12c-.34,.42-.76,.55-1.68,.59-1.72,1.43-4.66,3.28-7.02,4.28l-.21-.25c.25-1.51,.55-3.65,.67-5.38h-3.61v5.25c0,1.13,.04,1.13,1.05,1.13h5.12c.34,0,.88,0,1.43-.17h.38l.25,.04c1.64,.67,1.97,.97,1.97,1.76,0,2.14-1.18,2.98-5.88,2.98h-4.28c-5.54,0-6.01-.63-6.01-5.75V7.77h-8.15l7.1,3.4c-.17,.59-.67,1.01-2.14,1.01-3.23,4.66-8.36,8.07-16.76,8.99l-.21-.38c7.1-3.61,10.33-8.36,11.47-13.02h-5.84c.63,3.4-.46,5.84-2.18,6.76-1.68,.97-3.82,.29-4.45-1.64-.55-1.85,.59-3.23,2.18-3.95,1.3-.84,2.73-2.98,2.39-5.33l.5-.04c.55,1.05,.97,2.06,1.26,3.02Zm32.22,30.16c-.13,.46-.59,.67-1.22,.67h-36.59l-.34-1.18h15.25v-12.01h-10.59l-.34-1.18h21.89l2.77-3.86s3.11,2.6,4.87,4.37c-.08,.46-.55,.67-1.18,.67h-11.13v12.01h8.4l2.94-4.07s3.32,2.73,5.25,4.58Z"/>
      <path class="cls-2" d="M168.09,16.26c-.21,.55-.63,.8-1.72,.76-1.26,3.74-2.69,6.97-4.41,9.79,.59,1.6,1.34,3.11,2.23,4.41,.42,.71,.67,.67,1.09-.04,.63-1.09,1.64-3.19,2.39-5l.42,.08-1.01,7.52c1.18,3.07,1.47,4.96,.5,5.59-2.65,1.64-6.05-.97-7.27-2.98-.84-1.43-1.6-2.94-2.23-4.49-3.02,3.23-6.72,5.71-11.34,7.65l-.34-.59c4.33-2.94,7.69-6.47,10.29-11.05-.88-2.94-1.43-6.09-1.81-9.33-.25,.13-.59,.25-.97,.29-.17,8.36-.5,11.97-2.31,13.44-1.09,.84-2.48,1.09-4.16,1.13,0-1.09-.13-2.23-.55-2.86-.38-.59-1.05-1.18-2.02-1.55-1.47,4.07-4.33,7.98-9.75,10.84l-.34-.34c3.86-4.37,5.33-9.58,5.88-14.74-2.14,1.93-5.17,4.45-9.24,7.44-.17,.59-.63,1.09-1.18,1.26l-2.81-6.72,4.24-1.01V13.27h-3.28l-.34-1.18h3.61V.88l7.23,.63c-.08,.59-.38,1.01-1.55,1.18V11.13l1.6-2.9,2.02,2.31v-3.4l6.34,2.18h6.93c-.08-2.77-.13-5.63-.13-8.57l7.02,.71c0,.21-.08,.42-.25,.63,7.65-.08,6.97,4.54,4.24,5.38,.92,.71,2.02,1.6,2.86,2.35-.13,.46-.55,.67-1.18,.67h-7.23c.04,3.11,.21,6.18,.63,9.03,.55-1.68,1.05-3.53,1.47-5.46l6.39,2.18Zm-30.71,8.02l3.44-.97c.13-1.76,.17-3.49,.17-5.21v-4.83h-3.61v11.01Zm9.12-6.18c0,3.15-.17,6.76-1.39,10.33l2.23,.08c.29,0,.46-.04,.63-.25,.59-.76,.8-3.74,.88-10.25h-2.35v.08Zm1.97-1.26l2.56-2.48,3.74,3.07c-.21-2.23-.38-4.54-.46-6.93h-7.81v6.34h1.97Zm13.82-9.83c-.29-1.6-1.26-3.36-2.1-4.49l-.55,.13c-.04,2.18-.08,4.45-.08,6.68h1.05l1.76-2.27-.08-.04Z"/>
      <path class="cls-2" d="M184.68,3.91c11.26,3.11,7.6,11.68,2.98,8.57-.63-2.39-2.18-5.08-3.65-7.23-1.6,3.02-3.95,6.22-6.85,8.86h5.38l2.23-3.07s2.52,2.1,3.99,3.57c-.08,.46-.55,.67-1.09,.67h-10.59l-.25-.84c-1.18,1.05-2.44,1.97-3.74,2.81l-.34-.29c3.23-4.54,5.76-12.22,6.43-16.93l7.52,2.31c-.17,.59-.59,.92-1.76,1.01l-.25,.55Zm-2.48,25.04c.92-2.44,1.68-5.04,2.1-7.23h-10.21l-.38-1.18h10.25l2.81-2.86,4.96,4.62c-.38,.38-.8,.5-1.72,.59-1.39,2.31-3.61,4.91-6.09,6.97,6.55,4.16,3.57,10.59-1.01,8.02-1.43-3.74-4.79-7.9-7.77-10.54l.34-.29c2.77,.42,5,1.05,6.72,1.89Zm31-24.62c-.13,.46-.59,.67-1.22,.67h-7.1c-1.55,1.72-3.53,3.65-5.29,4.96h5.12l2.48-2.65,4.91,3.78c-.21,.29-.67,.59-1.39,.76V29.87c-.04,.29-1.81,1.09-3.49,1.34,9.12,2.56,6.09,10.46,1.13,7.94-1.26-2.98-3.99-6.26-6.22-8.4l.29-.25c.97,.04,1.85,.13,2.65,.25v-1.72h-6.85v.88c0,.13-.13,.29-.34,.46l5.25,2.9c-.17,.34-.59,.42-1.34,.29-2.73,2.65-8.44,5.33-13.48,6.3l-.25-.46c2.98-1.93,5.97-5.17,7.77-7.98-.71,.21-1.47,.34-2.27,.34h-.84V7.69l5.5,2.18,.04-4.87h-6.85l-.34-1.18h13.86l2.9-3.82s3.32,2.56,5.33,4.33Zm-14.95,6.81v4.54h6.85v-4.54h-6.85Zm6.85,10.67v-4.96h-6.85v4.96h6.85Zm0,6.05v-4.87h-6.85v4.87h6.85Z"/>
      <path class="cls-2" d="M220.71,4.62l4.16,1.47c.08-1.76,.17-4.16,.17-5.88l7.02,1.3c-.17,.67-.71,1.01-1.68,1.09-1.01,1.13-2.6,2.77-3.78,3.99h3.23l2.14-2.44,4.49,3.49c-.21,.29-.67,.59-1.34,.71v9.75l2.31-.25,.04,.59-2.35,.84v14.91c0,3.36-.67,5.17-5.75,5.59-.04-1.51-.21-2.73-.63-3.4-.46-.71-1.09-1.22-2.65-1.55v-.55s2.73,.17,3.4,.17c.59,0,.71-.25,.71-.76v-12.81l-4.66,1.34c-.08,6.26-.84,13.02-6.97,17.85l-.46-.29c2.27-4.62,2.56-10.46,2.6-16.3l-.21,.04c-.29,.5-.76,.88-1.26,.97l-1.22-5.29,2.69-.04V4.62Zm5.76,11.89c.17-1.64,.04-4.58-.92-6.76v9.16l4.66-.34V7.77h-4.66v1.55l.38-.21c7.48,4.79,2.44,10.54,.55,7.39Zm-.17,13.69c.29-1.81,.34-5.21-.67-7.6l.59-.25c7.18,5.59,1.81,11.13,.08,7.86Zm12.27-17.26l6.18,2.14h2.56l2.56-2.9,4.7,3.82c-.25,.34-.67,.59-1.51,.71v16.05c0,.46,.08,.67,.42,.67h.29c.13,0,.25,0,.38-.04,.21,0,.42-.04,.67-.46,.38-.71,1.05-3.23,1.68-5.55h.46l.13,5.88c1.13,.59,1.34,1.18,1.34,2.14,0,1.97-1.72,3.15-5.29,3.15h-1.64c-3.28,0-3.7-1.13-3.7-4.28V16.26h-3.86v7.31c0,5.5-.8,12.39-9.7,16.59l-.34-.38c4.24-4.62,4.66-10.59,4.66-16.21V12.94Zm19.74-3.57c-.13,.46-.59,.67-1.18,.67h-21.3l-.34-1.18h14.62l2.94-4.16s3.36,2.81,5.25,4.66Zm-14.66-1.89c-.17-2.48-1.43-5.21-2.9-6.97l.34-.21c12.56,1.3,7.56,11.01,2.56,7.18Z"/>
      <path class="cls-2" d="M279.68,16.89c-.08,.55-.42,1.01-1.55,1.18v5.63l2.44-3.7s2.94,2.69,4.58,4.45c-.08,.46-.55,.67-1.13,.67h-5.88v8.23c1.72,.25,3.74,.34,6.09,.34,4.33,0,15.12,0,19.62-.13v.5c-2.1,.5-3.07,2.56-3.11,4.75h-16.55c-7.94,0-12.22-1.85-14.49-8.95-1.05,3.86-2.9,7.52-6.26,10.25l-.42-.42c2.9-5.88,3.32-14.66,2.77-21.13l6.89,1.26v-3.65l7.02,.71Zm-8.19-2.18v-6.43h-6.05l-.34-1.18h6.39V.17l7.02,.59c-.04,.5-.29,.84-1.26,1.01V7.1h.34l2.56-3.49s2.94,2.35,4.7,3.99c-.13,.46-.59,.67-1.18,.67h-6.43v6.43h.84l2.65-3.65s2.77,2.31,4.54,3.95V1.64l6.05,2.27h3.36l2.65-2.94,5.59,4.2c-.29,.34-.88,.76-1.81,.97v10.96c-.08,.34-3.02,1.3-4.96,1.3h-1.01v-2.56h-4.41v8.99c0,.76,.29,1.01,1.39,1.01h2.86c.97,0,1.85-.04,2.35-.04,.46-.04,.84-.17,1.13-.55,.5-.67,1.26-2.69,2.02-4.96h.42l.17,5.17c1.43,.63,1.81,1.3,1.81,2.27,0,2.23-2.1,3.44-8.49,3.44h-3.65c-4.37,0-5.46-1.01-5.46-4.83V15.46c-.17,.29-.55,.42-.97,.42h-20.33l-.34-1.18h7.86Zm1.18,16.51v-11.3c-.17,.59-.63,.97-1.6,1.01-.17,2.27-.42,4.66-.92,7.02,.76,1.39,1.55,2.44,2.52,3.28Zm22.47-26.13h-4.41V14.66h4.41V5.08Z"/>
      <path class="cls-2" d="M347.43,23.15c-.17,.38-.55,.59-1.55,.46-.71,.5-1.93,1.18-3.11,1.81,5.97,1.51,3.91,7.18,.13,5.55-.71-1.68-2.39-3.61-3.95-4.96,.8,3.49,2.52,6.68,5.67,7.86,.63,.25,.88,.21,1.13-.25,.5-.97,1.01-2.35,1.47-3.78l.42,.04-.25,5.08c1.34,1.64,1.68,2.86,1.05,3.86-1.22,1.97-4.07,1.39-6.18,.21-6.59-3.11-8.78-10.08-9.37-18.06h-2.73v17.26c0,.5-2.6,1.85-4.75,1.85h-1.13V20.96h-3.4c-.08,7.14-2.02,15.21-11.97,19.16l-.29-.34c5.67-5.08,6.51-12.35,6.51-18.82h-6.18l-.38-1.18h6.55v-6.43c-2.02,.67-4.2,1.22-6.34,1.64l-.17-.42c4.03-2.27,8.44-6.09,10.5-8.82l5.17,2.98v-2.94l7.27,.67c-.08,.55-.38,.92-1.39,1.09v12.22h2.18l2.52-2.77,5.08,3.74c-.25,.29-.88,.59-1.64,.71,.04,1.18,.17,2.44,.42,3.65,.71-.04,1.39-.04,1.97,0,.46-1.64,.92-3.74,1.18-4.91l5.54,2.94Zm-.29-17.01c-.21,.34-.59,.5-1.51,.29-.71,.34-1.89,.76-3.02,1.18,5.5,1.18,3.57,6.64-.13,5.17-.71-1.64-2.44-3.53-3.95-4.66,.76,3.15,2.52,6.09,5.84,7.06,.63,.21,.84,.13,1.09-.29,.5-.88,1.01-2.18,1.43-3.53l.42,.08-.21,4.58c1.34,1.43,1.72,2.56,1.18,3.65-1.09,2.02-3.95,1.64-6.13,.59-6.47-2.65-8.78-8.4-9.45-15.33h-21.17l-.38-1.18h21l2.48-2.69,5.08,3.61c-.25,.29-.88,.55-1.6,.67,.04,.71,.13,1.43,.29,2.14,.76-.08,1.43-.13,2.02-.13,.67-1.43,1.51-3.49,1.89-4.66l4.83,3.44Zm-22.85,13.65V10.08c-.34,.04-.76,0-1.26-.08-1.34,.8-3.02,1.6-4.91,2.35l4.24,.38c-.08,.55-.42,1.01-1.47,1.13v5.92h3.4Z"/>
      <path class="cls-2" d="M2.56,60.86l6.34,2.44h5.96v-8.07H.76l-.38-1.18H14.45l2.56-2.73,5.21,3.91c-.21,.29-.71,.63-1.47,.8v9.28c-.04,.34-2.98,1.3-4.87,1.3h-1.01v-2.14H7.86c-.25,2.23-.67,5.46-1.01,7.69H14.95l3.07-2.86,5.08,4.28c-.34,.38-.88,.67-1.81,.8-.71,8.07-2.02,13.02-4.58,14.79-1.6,1.09-3.36,1.6-6.68,1.6,.04-1.64-.21-3.02-1.13-3.86-.97-.92-3.02-1.72-5.38-2.18v-.46c2.65,.21,6.51,.42,7.56,.42,.76,0,1.13-.08,1.55-.38,1.18-.88,2.1-5.08,2.69-10.96H6.89l-1.81,2.35-5.08-2.73c.34-.34,.8-.71,1.34-1.01,.5-3.07,1.09-8.4,1.22-11.09Zm32.26-7.94v35.37c0,.63-2.69,2.14-5.08,2.14h-1.18V50.95l7.81,.76c-.08,.59-.38,1.05-1.55,1.22Z"/>
      <path class="cls-2" d="M55.99,54.31c11.26,3.11,7.6,11.68,2.98,8.57-.63-2.39-2.18-5.08-3.65-7.23-1.6,3.02-3.95,6.22-6.85,8.86h5.38l2.23-3.07s2.52,2.1,3.99,3.57c-.08,.46-.55,.67-1.09,.67h-10.59l-.25-.84c-1.18,1.05-2.44,1.97-3.74,2.81l-.34-.29c3.23-4.54,5.76-12.22,6.43-16.93l7.52,2.31c-.17,.59-.59,.92-1.76,1.01l-.25,.55Zm-2.48,25.04c.92-2.44,1.68-5.04,2.1-7.23h-10.21l-.38-1.18h10.25l2.81-2.86,4.96,4.62c-.38,.38-.8,.5-1.72,.59-1.39,2.31-3.61,4.91-6.09,6.97,6.55,4.16,3.57,10.59-1.01,8.02-1.43-3.74-4.79-7.9-7.77-10.54l.34-.29c2.77,.42,5,1.05,6.72,1.89Zm31-24.62c-.13,.46-.59,.67-1.22,.67h-7.1c-1.55,1.72-3.53,3.65-5.29,4.96h5.12l2.48-2.65,4.91,3.78c-.21,.29-.67,.59-1.39,.76v18.02c-.04,.29-1.81,1.09-3.49,1.34,9.12,2.56,6.09,10.46,1.13,7.94-1.26-2.98-3.99-6.26-6.22-8.4l.29-.25c.97,.04,1.85,.13,2.65,.25v-1.72h-6.85v.88c0,.13-.13,.29-.34,.46l5.25,2.9c-.17,.34-.59,.42-1.34,.29-2.73,2.65-8.44,5.33-13.48,6.3l-.25-.46c2.98-1.93,5.97-5.17,7.77-7.98-.71,.21-1.47,.34-2.27,.34h-.84v-24.07l5.5,2.18,.04-4.87h-6.85l-.34-1.18h13.86l2.9-3.82s3.32,2.56,5.33,4.33Zm-14.95,6.81v4.54h6.85v-4.54h-6.85Zm6.85,10.67v-4.96h-6.85v4.96h6.85Zm0,6.05v-4.87h-6.85v4.87h6.85Z"/>
      <path class="cls-2" d="M122.81,69.51c-.55-1.51-1.39-3.02-2.31-4.58-5.97,1.43-14.66,3.11-25.41,4.91-.46,.55-1.01,.84-1.55,1.01l-1.76-6.89s1.26-.21,1.93-.59c3.99-1.81,10.04-8.95,11.8-12.98l8.28,3.11c-.17,.5-.71,.88-1.64,.84-3.23,3.28-9.37,7.18-14.79,9.66,5.5,0,13.69-.13,22.31-.34-1.72-2.44-3.74-4.75-5.67-6.55l.34-.29c18.65,3.53,14.91,16.55,8.49,12.69Zm-25.79,20.84h-.92v-19.79l6.76,2.56h13.48l2.9-3.28,6.01,4.62c-.29,.38-.88,.84-1.93,1.05v13.23c-.08,.29-3.28,1.34-5.38,1.34h-1.09v-3.7h-14.32v1.89c0,.63-2.86,2.06-5.5,2.06Zm19.83-16.05h-14.32v10.92h14.32v-10.92Z"/>
      <path class="cls-2" d="M136.37,67.75c-.04-2.35-1.01-4.87-2.02-6.64l.38-.21c11.17,2.31,5.97,10.59,1.64,6.85Zm15.25-1.89l-.04-1.18c-1.51,.67-3.53,1.51-5.5,2.27-.21,.38-.5,.59-.8,.71l-1.64-3.61c-.8,4.03-1.89,9.7-2.14,11.3-.17,1.22-.34,2.6-.29,3.65,.13,2.35,1.89,3.95,1.72,7.9-.08,2.18-1.6,3.61-3.61,3.61-.97,0-2.02-.59-2.35-2.23,.84-4.49,.67-8.82-.21-9.45-.59-.42-1.22-.59-2.1-.67v-.8h1.76c.59,0,.76,0,1.22-.84q.76-1.39,5.71-14.41l.67,.13-.29,1.51c.21-.04,.63-.17,.88-.34,.97-.67,2.1-1.89,3.11-3.28l-1.43,.59c-.25,.46-.59,.76-.92,.92l-1.72-3.91c-.92,1.39-2.94,1.93-4.83,.29-.13-2.44-1.13-5-2.06-6.85l.34-.21c6.18,1.26,7.6,4.24,6.85,6.22l.55-.21c1.43-1.18,3.15-4.83,3.65-6.64l4.96,2.18c-.17,.38-.63,.71-1.47,.63-1.43,1.51-3.61,3.36-5.5,4.62h3.19c.59-1.01,1.09-1.93,1.39-2.65l4.37,2.86c-.21,.34-.71,.59-1.51,.42-.71,.76-1.64,1.6-2.65,2.48l.21-.08c6.13,2.98,2.77,7.35,.5,5.04Zm-7.06,4.37c.8-.42,1.26-1.51,1.34-2.73h.59c3.4,8.36-4.96,6.64-1.93,2.73Zm21.63,7.27v-2.94h-19.32l-.38-1.18h19.28l1.85-1.97-.38-.38c.34-1.39,.25-3.11,.04-4.24l.55-.13c3.19,2.1,2.77,4.28,1.6,4.96l4.03,2.94c-.21,.29-.71,.63-1.51,.8v3.11c0,.13-.97,.5-2.1,.76l4.54,3.61c-.29,.38-.76,.63-1.55,.76-.38,3.28-.97,5.08-2.73,6.05-1.26,.67-2.9,.88-5.67,.88,0-1.43-.17-2.31-1.01-3.11-.84-.8-2.52-1.34-4.49-1.72v-.46c2.02,.17,5.29,.34,6.05,.34,.63,0,.92-.04,1.18-.21,.34-.25,.63-1.26,.8-2.73h-15.12l-1.81,2.14-5-2.81c.38-.38,.92-.71,1.47-1.01,.67-1.93,1.43-4.83,1.72-6.39l6.13,2.94h11.85Zm-14.87-14.03c-.17-.88-.42-1.72-.67-2.35-1.13,.92-2.35,1.85-3.57,2.6l4.24-.25Zm-3.15,8.4c.34-1.51,.25-3.4,0-4.62l.55-.13c4.92,3.49,1.3,7.14-.55,4.75Zm3.49-.88c.04-1.47-.55-3.28-1.13-4.41l.5-.21c5.71,2.6,2.73,6.68,.63,4.62Zm15,10.46l2.27-2.02c-.59,.08-1.22,.17-1.72,.17h-1.01v-.92h-13.27l-.97,2.77h14.7Zm-2.48-25.46c-.13,.46-.5,.67-1.09,.67h-9.79l-.34-1.18h6.39l1.68-2.18s1.93,1.55,3.15,2.69Zm-1.13,2.77l-.59-1.34s.76-.17,1.05-.34c1.6-1.13,3.53-4.83,4.12-6.64l4.87,2.18c-.21,.34-.67,.71-1.55,.63-1.43,1.47-3.65,3.28-5.67,4.54l3.4-.04c.59-.92,1.09-1.81,1.39-2.52l4.28,2.86c-.21,.34-.71,.59-1.55,.38-1.64,1.76-4.37,4.03-6.93,5.67l5.04-.34c-.29-.88-.67-1.72-1.01-2.35l.5-.21c6.76,2.52,3.53,7.31,1.01,5.04-.04-.42-.08-.88-.21-1.34-1.51,.67-3.61,1.47-5.8,2.27h.08c3.57,7.65-4.7,5.92-1.55,1.97,.55-.25,.84-.97,.92-1.68-.17,.21-.34,.34-.55,.42l-.84-1.85c-.13,.13-.38,.25-.67,.29v5.04c-.04,.29-1.64,.97-2.65,.97h-.5v-1.22h-1.89v.76c0,.21-.97,.97-2.48,.97h-.5v-9.24l3.49,1.47h1.13l1.43-1.39,2.44,1.85-.67-1.47s.71-.17,1.05-.34c1.13-.76,2.44-2.27,3.61-3.86l-2.02,.92c-.25,.42-.55,.71-.88,.88l-1.05-2.39c-.13,.34-.46,.46-.92,.46h-7.69l-.34-1.18h4.62l1.55-1.93s1.43,1.09,2.52,2.1Zm.38,3.53c-.08,.46-.46,.67-1.05,.67h-7.69l-.34-1.18h4.62l1.55-1.93s1.81,1.39,2.9,2.44Zm-7.23-7.56c-.08-1.43-.84-3.11-1.64-4.03l.42-.25c7.98,.84,4.37,6.68,1.22,4.28Zm3.44,11.55h-1.89v3.7h1.89v-3.7Zm11.3,4.33c0-1.43-.59-3.23-1.13-4.33l.5-.21c5.76,2.52,2.73,6.64,.63,4.54Z"/>
      <path class="cls-2" d="M219.83,66.99c-.13,.46-.63,.67-1.22,.67h-29.41v3.65c0,5.29-.76,14.16-9.49,19.16l-.29-.29c3.65-5.84,3.95-13.27,3.95-18.86v-7.1l6.72,2.27h20.88l3.11-3.86s3.57,2.56,5.75,4.37Zm-9.49-6.97c-.84,.5-1.85,.97-2.94,1.43,4.07,2.6,2.23,5.38-.42,4.58-1.13-.76-2.77-1.72-4.79-2.73-3.91,1.18-8.28,2.14-12.22,2.56l-.29-.55c2.9-.97,5.97-2.35,8.74-3.78-2.56-1.18-5.46-2.31-8.44-3.32l.17-.59c5.25,.29,9.2,.92,12.14,1.72,1.39-.84,2.6-1.68,3.61-2.48h-23.31l-.34-1.18h16.84l-.34-.17c-.29-1.85-1.55-3.82-2.77-4.87l.25-.21c8.82-1.26,8.86,3.78,6.18,5.25h8.23l3.07-3.82s3.53,2.56,5.67,4.33c-.13,.46-.59,.67-1.22,.67h-11.22l5,2.65c-.25,.42-.63,.63-1.6,.5Zm5.38,21.3c-.13,.46-.55,.67-1.18,.67h-8.23v5.76h4.33l3.15-3.91s3.57,2.6,5.76,4.41c-.13,.46-.63,.67-1.22,.67h-30.83l-.34-1.18h13.32v-5.76h-7.52l-.34-1.18h7.86v-5.25h-5c-1.51,1.93-3.28,3.49-5.17,4.62l-.5-.29c1.3-2.81,2.44-7.1,2.9-11.17l6.93,1.97c-.17,.55-.71,.92-1.64,.92-.5,.97-1.05,1.89-1.64,2.77h4.12v-5.92l7.23,.59c-.08,.55-.34,.92-1.39,1.09v4.24h2.02l2.9-3.53s3.15,2.27,5.21,4.03c-.13,.46-.59,.67-1.22,.67h-8.91v5.25h1.72l2.73-3.36s3.07,2.27,4.96,3.86Z"/>
      <path class="cls-2" d="M264.65,60.06c-.13,.46-.59,.67-1.22,.67h-14.07l6.97,1.76c-.13,.55-.63,.88-1.55,.84-1.3,1.05-3.36,2.31-5.38,3.32h5.38l2.86-3.44s3.23,2.31,5.25,3.95c-.13,.46-.59,.67-1.18,.67h-13.82v3.78h5.42l2.77-3.28s3.11,2.18,5.04,3.78c-.13,.46-.59,.67-1.18,.67h-12.06v3.74h8.53l2.94-3.61s3.36,2.39,5.42,4.12c-.13,.46-.59,.67-1.18,.67h-15.71v11.47c-.04,.29-1.85,1.34-4.96,1.34h-1.13v-7.65c-.34,.21-.8,.21-1.51,.08-4.07,3.53-10.42,5.42-15.04,5.97l-.21-.46c3.65-2.06,7.9-5.97,10.8-10.21l5.97,3.95v-4.49h-15.79l-.34-1.18h16.13v-3.74h-11.8l-.34-1.18h12.14v-3.78h-13.9l-.34-1.18h10.54c-.34-.13-.67-.34-1.01-.63,.04-1.76-.67-3.7-1.47-4.83l.34-.21c7.65,.5,7.18,4.58,4.75,5.67h6.97c.67-1.81,1.22-4.2,1.51-5.92h-23.15l-.34-1.18h12.9v-9.03l6.51,.55c-.04,.5-.34,.88-1.3,1.05v7.44h2.39v-9.03l6.6,.55c-.08,.5-.34,.88-1.3,1.05v7.44h.97c.88-2.39,1.76-5.71,2.18-8.11l6.97,2.14c-.17,.5-.63,.84-1.6,.76-1.6,1.55-4.16,3.65-6.64,5.21h3.23l2.81-3.28s3.19,2.18,5.21,3.78Zm-33.02-1.51c.04-2.35-1.01-4.91-2.39-6.51l.34-.21c11.8,1.34,6.68,10.5,2.06,6.72Zm24.91,28.99c-1.22-1.93-3.78-4.96-7.86-7.18l.17-.42c23.86,1.68,12.35,12.52,7.69,7.6Z"/>
      <path class="cls-2" d="M291.4,57.63c-.13,.46-.55,.67-1.13,.67h-5.63l5.5,1.68c-.17,.5-.63,.84-1.55,.76-1.3,1.6-3.32,3.7-5.33,5.46h2.69l2.48-3.49s2.39,2.02,4.03,3.57v-11.68l5.21,1.6c2.39-1.6,4.75-3.61,6.09-5.08l6.09,4.83c-.5,.46-1.39,.59-2.81,.17-2.18,.71-5.42,1.39-8.74,1.81v8.65h3.57l3.02-4.24s3.44,2.86,5.42,4.75c-.08,.46-.59,.67-1.18,.67h-2.77v21.17c-.04,.29-1.81,1.51-4.87,1.51h-1.09v-22.68h-2.1v1.09c0,7.39-.63,16.17-10.5,21.68l-.38-.46c4.66-6.13,5.04-13.9,5.04-21.34v-1.51c-.17,.13-.42,.17-.71,.17h-7.98v4.92h1.3l2.35-3.32s2.65,2.27,4.2,3.82c-.13,.46-.55,.67-1.13,.67h-6.72v1.72l.13-.04c10.75,3.36,6.22,11.59,2.18,8.02-.08-2.44-1.13-5.25-2.31-7.31v13.23c0,.29-1.72,1.3-4.7,1.3h-1.05v-10.92c-1.64,2.73-3.95,5.8-6.89,7.9l-.42-.42c1.89-3.53,3.07-8.86,3.44-12.31l3.86,1.72v-2.9h-6.64l-.34-1.18h6.97v-4.92h-7.52l-.34-1.18h6.34c-.5-.17-1.01-.46-1.51-.97,.13-2.35-.55-5-1.22-6.93h-2.6l-.34-1.18h8.02c-.34-.13-.63-.34-.92-.59,0-2.1-.88-4.33-1.85-5.75l.29-.21c8.28,.71,8.02,5.25,5.5,6.55h2.81l2.39-3.32s2.73,2.27,4.33,3.82Zm-7.9,.67h-8.91c6.72,2.73,5.76,7.18,3.32,7.9h4.03c.67-2.39,1.22-5.55,1.55-7.9Z"/>
      <path class="cls-2" d="M319.87,88.46c-1.05,1.34-3.74,1.18-4.62-.59-.71-1.6,0-3.11,1.39-3.99,1.09-1.01,2.69-3.4,2.56-5.54h.55c1.85,4.75,1.6,8.28,.13,10.12Zm8.95-12.14c0-1.01-.13-2.1-.29-3.15-2.35,1.18-5.67,2.81-9.45,4.41-.38,.55-.84,.92-1.3,1.09l-2.18-6.01s1.22-.25,1.72-.59c1.93-1.26,4.37-3.99,6.47-6.93-1.39,.63-2.9,1.3-4.58,2.02-.34,.59-.76,.97-1.22,1.18l-2.48-5.92s1.01-.21,1.43-.55c2.1-1.85,4.96-8.07,5.71-11.43l6.72,3.53c-.17,.38-.63,.63-1.43,.55-1.97,2.56-5.38,5.84-8.44,7.94l6.09-.04c.97-1.55,1.76-3.07,2.23-4.28l6.13,4.2c-.25,.34-.84,.59-1.68,.42-2.48,2.94-7.35,6.97-11.76,9.7l7.69-.59c-.29-1.26-.71-2.44-1.13-3.44l.42-.17c10.17,4.07,5.21,11.85,1.34,8.07Zm-6.51,10.04c.67-2.86,.71-6.01,.38-8.49l.5-.13c8.49,5.92,2.48,13.11-.88,8.61Zm6.6-1.47c.21-2.56-.67-5.54-1.76-7.56l.42-.21c10.25,3.61,5.25,11.59,1.34,7.77Zm5.67-20.21l6.34,2.35h5.59v-11.59h-12.73l-.38-1.18h12.6l2.73-3.11,5.76,4.41c-.34,.42-1.01,.92-2.14,1.13v14.11c-.04,.34-2.98,1.3-4.87,1.3h-.97v-3.91h-6.18v14.24c0,.76,.34,.97,1.68,.97h4.16c1.3,0,2.56,0,3.19-.04s1.01-.17,1.34-.63c.55-.76,1.34-2.6,2.27-5.17h.42l.17,5.38c1.6,.63,2.02,1.26,2.02,2.27,0,2.39-2.27,3.28-10.04,3.28h-4.66c-4.96,0-6.3-.92-6.3-4.83v-18.99Z"/>
      <path class="cls-2" d="M390.98,65.44l3.28-4.28s3.74,2.86,5.96,4.79c-.13,.46-.63,.67-1.26,.67h-10.33v15.79c0,.67,.25,.88,1.26,.88h2.86c.84,0,1.64,0,2.18-.04,.55,0,.8-.13,1.09-.67,.59-.92,1.43-3.32,2.44-6.34h.42l.13,6.72c1.55,.67,1.89,1.39,1.89,2.6,0,2.44-2.02,3.65-8.91,3.65h-3.7c-4.75,0-5.88-1.05-5.88-5.17v-17.43h-4.41c-.67,11.05-4.12,19.95-17.64,23.86l-.17-.38c9.07-5.75,10.84-14.07,10.92-23.48h-9.96l-.34-1.18h30.16Zm-3.19-10.59l3.19-4.03s3.61,2.69,5.75,4.54c-.13,.46-.59,.67-1.22,.67h-30.08l-.34-1.18h22.68Z"/>
    </g>
  </g>
</svg>