<?xml version="1.0" encoding="UTF-8"?>
<svg id="_圖層_2" data-name="圖層 2" xmlns="http://www.w3.org/2000/svg" viewBox="0 0 506.84 105.59">
  <defs>
    <style>
      .cls-1 {
        fill: #fff;
      }
    </style>
  </defs>
  <g id="_圖層_1-2" data-name="圖層 1">
    <path class="cls-1" d="M2.86,25.51V.08H12.12v.46c-4.26,1.97-7.1,6.21-7.1,12.25s2.83,10.28,7.1,12.25v.46H2.86Z"/>
    <path class="cls-1" d="M19.28,6.91l3.43,1.38h2.29c.16-1.32,.35-3.24,.46-4.8H15.93l-.22-.76h18.89l1.86-2.32s2.13,1.57,3.43,2.64c-.08,.3-.38,.43-.78,.43h-9.74c-.97,1.73-2.19,3.54-3.35,4.8h6.88l1.51-1.7,3.1,2.46c-.16,.22-.51,.43-1.08,.54v14.66c-.03,.22-1.59,.92-2.75,.92h-.51v-2.24h-10.69v1.24c0,.38-1.32,1.13-2.7,1.13h-.51V6.91Zm3.21,2.16v5.86h10.69v-5.86h-10.69Zm10.69,6.64h-10.69v6.45h10.69v-6.45Z"/>
    <path class="cls-1" d="M46.95,22.92V3.48h-2.7l-.22-.78h18.19l1.94-2.4s2.21,1.62,3.56,2.75c-.08,.3-.4,.43-.78,.43h-16.71v5.02h9.99l1.57-1.78,3.35,2.54c-.22,.27-.65,.54-1.3,.67v8.21c-.03,.16-1.67,.73-2.75,.73h-.54v-2.4h-10.31v6.45h12.88l2-2.51s2.27,1.67,3.67,2.83c-.08,.3-.38,.43-.78,.43h-24l-.22-.76h3.16Zm3.29-13.66v6.45h10.31v-6.45h-10.31Z"/>
    <path class="cls-1" d="M86.72,1.24c-.35,.59-.73,1.19-1.16,1.78h2.38l1.59-1.59,2.78,2.43c-.22,.22-.51,.3-1.05,.32-.84,.76-2,1.78-3.13,2.56h3.27l1.27-1.32,2.67,2c-.16,.19-.54,.41-1.05,.51v5.08c-.03,.16-1.35,.65-2.19,.65h-.43v-.7h-1.46v5.05c0,.32,.08,.43,.67,.43h1.59c.59,0,1.13-.03,1.4-.03,.24-.03,.4-.08,.54-.24,.22-.32,.54-1.24,.92-2.35h.3l.11,2.38c.67,.3,.84,.59,.84,1.08,0,1.03-.89,1.49-4.37,1.49h-2.05c-2.19,0-2.56-.54-2.56-2.21v-3.32c-1.43,2.54-3.83,4.4-7.77,5.7,1.67,.81,3.94,.97,7.18,.97,2.32,0,7.94,0,10.34-.08v.32c-1.13,.27-1.67,1.46-1.7,2.73h-8.66c-4.91,0-7.67-.95-9.34-4.48-1.43,2-3.29,3.75-5.7,5.1l-.24-.32c2.86-2.7,4.7-6.88,5.51-10.74h-1.59l-.92,.84-2.4-1.7c.27-.19,.67-.38,1.05-.51,.97-1.4,2.29-3.54,3.08-4.99h-3.99l-.24-.78h4.16l1.4-1.4,2.05,1.86c1.62-1.97,3.05-5.02,3.67-7.61l4.26,.7c-.11,.3-.3,.43-1,.43Zm-10.23,3.64c-.46-1.62-1.84-3.4-3.05-4.48l.22-.19c7.88,.46,5.91,6.4,2.83,4.67Zm5.29,9.47h-.38V7.23c-.4,.3-.81,.57-1.24,.81l.38,.35c-.27,.3-.86,.41-1.54,.46-.81,1.3-2.13,3.37-3.08,4.8h1.13l1.59-1.62,2.73,2.35c-.19,.27-.43,.35-1.03,.41-.51,1.67-1.24,3.32-2.27,4.89,.49,.51,1.03,.92,1.65,1.21l-.11-.3c3.67-2.02,5.45-4.51,6.26-7.64h-1.73v.54c0,.24-1.21,.86-2.38,.86Zm.97-8.21l1.54,.59h2.7c.4-.89,.78-2.05,1.05-2.94h-3.1c-.65,.84-1.4,1.62-2.19,2.35Zm1.4,1.38v4.64h1.89c.3-1.4,.43-2.94,.46-4.64h-2.35Zm4.62,4.64h2.89V7.53h-2.24c-.08,1.7-.27,3.24-.65,4.64Zm3.51,4.89c-.16-.97-.92-2.19-1.57-2.86l.27-.19c4.99,.78,3.16,4.4,1.3,3.05Z"/>
    <path class="cls-1" d="M101.55,12.58l3.16,1.27h3.51l1.46-1.57,2.97,2.27c-.16,.22-.54,.46-1.08,.57v8.72c-.03,.22-1.51,.89-2.56,.89h-.51v-2.24h-3.91v1.75c0,.27-1.3,.97-2.56,.97h-.46V12.58Zm3.02,2.02v7.13h3.91v-7.13h-3.91Zm1.19-13.85l3.32,1.32h7.37l1.48-1.62,3.08,2.32c-.16,.22-.57,.49-1.11,.59v7.69c-.03,.22-1.57,.86-2.65,.86h-.54v-2.16h-7.77v1.4c0,.3-1.4,1-2.73,1h-.46V.76Zm3.19,2.08v6.15h7.77V2.83h-7.77Zm5.02,9.74l3.19,1.27h3.7l1.46-1.59,3.05,2.29c-.16,.22-.57,.46-1.11,.59v8.96c-.03,.19-1.57,.76-2.62,.76h-.51v-2.38h-4.1v1.78c0,.27-1.3,.97-2.59,.97h-.46V12.58Zm3.05,2.02v7.13h4.1v-7.13h-4.1Z"/>
    <path class="cls-1" d="M128.49,.54V.08h9.26V25.51h-9.26v-.46c4.26-1.97,7.1-6.21,7.1-12.25s-2.83-10.29-7.1-12.25Z"/>
    <path class="cls-1" d="M154.03,10.5c-.05,.3-.32,.43-.7,.43h-3.29v13.66c0,.27-1.16,.81-2.19,.81h-.57V14.66c-1.05,2.46-2.35,4.86-3.78,6.61l-.4-.19c.78-2.35,1.62-6.02,2.11-9.18l2.08,.67v-1.65h-3.75l-.22-.78h3.97V.08l3.75,.4c-.08,.38-.27,.65-1,.76V10.15h.32l1.32-1.78s1.48,1.24,2.35,2.13Zm-9.18-2.11c.05-2-.62-4.45-1.3-6.18l.38-.11c5.18,3.91,2.89,8.31,.92,6.29Zm6.78,10.31c-.03-2-.81-4.45-1.57-6.21l.35-.14c5.88,3.78,3.4,8.56,1.21,6.34Zm2.29-15.52c-.97,1.81-2.19,3.97-3.27,5.48l-.43-.19c.38-1.73,.92-4.59,1.32-6.91l3.4,1.05c-.11,.32-.43,.57-1.03,.57Zm1.54,7.77l3.4,1.24h4.7l1.3-1.51,2.94,2.21c-.19,.22-.57,.43-1.13,.54v8.53c0,1.94-.41,3.08-3.62,3.35-.08-.89-.19-1.57-.57-2-.35-.4-.89-.73-2.08-.92v-.38s2.4,.13,2.89,.13c.43,0,.54-.16,.54-.51v-2.65h-5.51c-.3,2.43-1.35,4.91-5.18,6.59l-.24-.27c2.35-2.27,2.56-5.18,2.56-8.12v-6.24Zm12.96-7.37c-.05,.3-.35,.43-.73,.43h-5.4v2.21h1.4l1.43-1.84s1.62,1.27,2.59,2.19c-.05,.3-.35,.43-.73,.43h-4.7v2.51h2.32l1.54-2s1.78,1.38,2.83,2.35c-.08,.3-.35,.43-.73,.43h-14.28l-.22-.78h5.53v-2.51h-4.02l-.22-.78h4.24v-2.21h-4.64l-.22-.76h4.86V.11l3.89,.35c-.05,.35-.24,.59-.89,.67V3.27h1.81l1.54-2s1.73,1.38,2.78,2.32Zm-4.59,14.63v-2.32h-5.43v1.27l-.03,1.05h5.45Zm-5.43-3.08h5.43v-2.19h-5.43v2.19Z"/>
    <path class="cls-1" d="M181.3,6.8c-.05,.3-.32,.43-.67,.43h-2.54v4.24l3.05-.94,.08,.32c-.81,.59-1.86,1.35-3.13,2.21v8.61c0,2.19-.4,3.46-3.67,3.75-.05-1.03-.19-1.78-.54-2.29-.32-.54-.86-.84-1.97-1.05v-.41s2.21,.16,2.73,.16c.41,0,.54-.13,.54-.46v-6.4l-1.86,1.16c-.08,.35-.35,.67-.67,.78l-1.16-3.54c.76-.19,2.08-.54,3.7-1.03V7.23h-3.24l-.22-.76h3.46V.13l3.91,.38c-.05,.41-.32,.67-1,.76V6.48l1.16-1.84s1.32,1.3,2.05,2.16Zm5.75-5.42V13.69c-.05,5.8-2.32,9.61-8.93,11.8l-.22-.32c4.64-2.54,6.4-5.99,6.45-11.23-.67,1-1.57,2.24-2.62,3.62-.03,.35-.22,.7-.51,.86l-1.92-3.16c.89-.38,2.94-1.4,5.05-2.56v-3.35c-.19,1.24-1.3,1.81-2.29,.78,.03-1.78-.67-3.97-1.35-5.48l.32-.11c2.21,1.32,3.16,2.81,3.32,3.99V.24l3.67,.35c-.08,.38-.27,.67-.97,.78Zm4.45,.05v7.58c.84-1.73,1.7-3.75,2.08-4.86l3.21,2.13c-.14,.22-.51,.41-1.05,.24-.89,.97-2.62,2.59-4.24,3.86v1.13c6.78,2.56,4.43,7.53,1.89,5.48-.24-1.43-1.05-3.05-1.89-4.37v8.61c0,.49,.14,.67,.7,.67h1.08c.46,0,.86,0,1.08-.03,.19-.03,.38-.05,.54-.24,.27-.35,.65-1.75,.94-2.94h.3l.11,3.05c.7,.35,.97,.67,.97,1.21,0,1.13-1.05,1.65-4.18,1.65h-1.65c-2.13,0-2.67-.67-2.67-2.54V.24l3.75,.4c-.05,.38-.3,.67-.97,.78Z"/>
    <path class="cls-1" d="M210.11,8.21V4l3.91,.4c-.03,.35-.3,.65-.94,.73v4.29l2.32-1.03V.11l3.89,.38c-.05,.38-.27,.65-1,.76V7.13l2.67-1.16,.08-.03,1.38-1.4,2.56,2.67c-.22,.24-.51,.32-1.08,.38-.62,2.65-1.81,6.5-3.27,9.1l-.3-.16c.35-2.97,.57-6.96,.59-9.66l-2.65,1.13v10.77c0,.27-1.24,.89-2.35,.89h-.54V9.23l-2.32,1.03v10.55c0,.76,.35,1,1.7,1h3.64c1.38,0,2.48-.03,3.02-.05,.43-.03,.73-.13,.94-.43,.35-.51,.84-1.86,1.4-3.72h.3l.11,3.86c.97,.35,1.27,.67,1.27,1.21,0,1.43-1.4,1.92-7.32,1.92h-3.7c-3.21,0-4.35-.57-4.35-3.05V11.53l-2.35,1.03-.51-.59,2.86-1.24v-2.38c-.05,.24-.32,.35-.62,.35h-3.32v8.37l3.67-.97,.08,.3c-1.57,1.19-4,2.92-7.58,5.05-.11,.38-.35,.65-.67,.76l-1.78-3.62c.73-.14,1.86-.41,3.27-.73V8.69h-2.86l-.22-.76h3.08V.7l4.02,.38c-.08,.38-.27,.65-1,.75V7.94h.46l1.27-2.16s1.46,1.46,2.21,2.43Z"/>
    <path class="cls-1" d="M239.68,8.42c-.08,.3-.35,.43-.76,.43h-4.89v4.02h1.51l1.51-2.08s1.75,1.43,2.75,2.4c-.05,.3-.35,.43-.73,.43h-5.05v3.54l6.24-1.38,.08,.32c-1.51,.86-3.56,1.97-6.32,3.32v5.13c-.03,.22-.84,.89-2.59,.89h-.4v-4.62l-.57,.27c-.14,.32-.4,.59-.7,.7l-1.73-3.48,3-.54V1.94l2.92,1.32c1.11-.92,2.21-2,3.16-3.05l3.4,2.65c-.22,.27-.46,.27-1,.16-1.62,.49-3.73,.97-5.48,1.32v3.75h1.43l1.48-2.02s1.7,1.4,2.73,2.35Zm2.02,4.86h-1.59l-.24-.76h7.94l1.7-1.67,2.83,2.54c-.19,.3-.46,.38-1.11,.4-.89,2.27-2.13,4.29-3.81,5.99,1.94,1.24,4.26,2.08,6.72,2.65l-.03,.3c-1.32,.27-2.27,1.24-2.73,2.75-2.38-1.03-4.35-2.27-5.88-4-2.4,1.83-5.51,3.21-9.47,4.02l-.16-.35c3.51-1.27,6.29-3.08,8.34-5.34-1.11-1.73-1.94-3.86-2.51-6.53Zm-.46-12.31l3.4,1.24h2.21l1.46-1.57,2.73,2.19c-.16,.16-.51,.32-.97,.38V7.4c0,.3,.05,.41,.32,.41h.92c.11,0,.41-.03,.54-.05,.16,0,.43-.03,.59-.08h.24l.14,.03c.65,.35,.86,.62,.86,1.16,0,1.13-.97,1.67-3.29,1.67h-1.08c-2,0-2.19-.65-2.19-2.38V2.97h-2.94v1.54c0,2.16-.54,5.59-4.99,7.48l-.22-.27c2.08-2.19,2.27-4.94,2.27-7.21V.97Zm6.67,12.31h-5.7c.7,2.05,1.84,3.7,3.24,4.99,1.08-1.51,1.89-3.19,2.46-4.99Z"/>
    <path class="cls-1" d="M260.03,16.03c1.7-.84,2.75-1.67,3.27-3.18-2.02-.84-2.89-1.75-2.89-2.92,0-1.3,1-2.32,2.38-2.32,.81,0,1.4,.16,2,.67,.32,.81,.41,1.29,.41,2.13,0,3.29-1.86,5.53-4.8,6.4l-.35-.78Z"/>
    <path class="cls-1" d="M273.24,2.97l2.62,.97c.14-1.11,.24-2.67,.3-3.81l3.89,.73c-.11,.43-.43,.65-1.05,.67-.54,.76-1.4,1.78-2.11,2.56h2.24l1.19-1.38,2.62,2.02c-.14,.19-.49,.38-.94,.46v6.4l1.65-.19,.03,.41-1.67,.54v9.83c0,1.86-.38,2.86-3.24,3.13-.03-.78-.14-1.43-.43-1.78-.3-.41-.76-.67-1.73-.86v-.38s1.86,.13,2.29,.13c.4,0,.49-.16,.49-.51V13.12c-1.08,.3-2.27,.62-3.54,.92-.05,3.97-.49,8.31-3.99,11.42l-.35-.19c1.54-3.02,1.73-6.83,1.75-10.64l-.38,.08c-.16,.32-.46,.54-.76,.59l-.7-2.89,1.84-.05V2.97Zm6.13,1.92h-3.54v7.29l3.54-.3V4.89Zm-2.43,5.75c.03-1.11-.14-3.18-.94-4.62l.35-.19c4.43,3.13,1.73,6.59,.59,4.8Zm-.05,8.75c.11-1.19,.03-3.43-.7-4.99l.38-.16c4.26,3.62,1.38,6.99,.32,5.16Zm7.75-11.07l3.29,1.21h2.35l1.43-1.59,2.67,2.24c-.16,.19-.46,.35-1,.41v10.88c0,.3,.05,.43,.32,.43h.4c.19,0,.32,0,.43-.03,.14,0,.27-.05,.4-.3,.19-.43,.59-2.19,.94-3.67h.3l.11,3.86c.65,.32,.76,.62,.76,1.16,0,1.05-.94,1.67-3.21,1.67h-1.11c-1.89,0-2.13-.65-2.13-2.35V10.31h-3.13v4.56c0,3.54-.46,7.94-5.78,10.69l-.24-.27c2.86-2.97,3.19-6.75,3.19-10.39v-6.59Zm12.36-2.46c-.08,.3-.38,.43-.73,.43h-13.55l-.22-.76h9.8l1.67-2.32s1.92,1.59,3.02,2.65Zm-9.04-1.13c-.14-1.54-1.03-3.29-2-4.4l.27-.16c7.07,1.27,4.43,6.67,1.73,4.56Z"/>
    <path class="cls-1" d="M304.29,4.16h7.56c-.24-.08-.46-.22-.67-.41,0-1.3-.62-2.73-1.3-3.59l.19-.13c5.4,.4,5.16,3.35,3.51,4.13h6.91l1.75-1.78,3.02,2.89c-.22,.24-.49,.3-1.05,.32-.97,.94-2.65,2.19-3.97,2.89l-.22-.19c.24-.92,.51-2.29,.67-3.37h-3.4v3.7c0,.73,.03,.73,.76,.73h3.83c.19,0,.49,0,.84-.11h.22l.16,.03c.94,.35,1.11,.49,1.11,.94,0,1.11-.65,1.57-3.4,1.57h-3.24c-3.1,0-3.37-.32-3.37-3.16v-3.7h-9.74c.32,2.1-.38,3.59-1.38,4.16-.94,.59-2.19,.32-2.56-.7-.32-1,.3-1.78,1.16-2.19,.92-.57,1.84-2.08,1.62-3.73l.38-.03c.27,.62,.49,1.19,.62,1.73Zm20.73,19.33c-.08,.3-.35,.43-.76,.43h-23.24l-.24-.78h10.07v-7.72h-6.94l-.22-.78h14.01l1.62-2.13s1.78,1.46,2.83,2.48c-.05,.3-.32,.43-.73,.43h-7.32v7.72h6.15l1.7-2.29s1.92,1.57,3.05,2.65Zm-23.7-10.15l-.16-.3c4.64-2.13,6.72-4.99,7.56-8.12l4.05,1.97c-.11,.35-.4,.57-1.27,.57-1.94,3-4.91,5.18-10.18,5.88Z"/>
    <path class="cls-1" d="M353.72,10.09c-.14,.32-.41,.49-1.11,.46-.81,2.59-1.78,4.8-2.94,6.72,.46,1.21,1.03,2.32,1.73,3.27,.3,.46,.43,.43,.7-.05,.38-.67,.94-2,1.38-3.1l.3,.05-.59,4.59c.73,1.7,.89,2.67,.38,3.02-1.38,.95-3.35-.49-4.16-1.73-.7-1.03-1.27-2.13-1.75-3.29-1.92,2.19-4.32,3.83-7.31,5.16l-.24-.41c2.86-1.86,5.05-4.08,6.75-6.99-1.03-3.35-1.46-7.13-1.65-11.2h-5.48v4.13h1.89l1.38-1.38,2.56,2.11c-.16,.19-.49,.38-1,.46-.11,5.24-.32,7.61-1.38,8.5-.62,.51-1.43,.67-2.38,.7,0-.57-.08-1.21-.35-1.54-.3-.38-.92-.73-1.65-.92v-.19c-.89,2.56-2.59,5.05-5.88,6.91l-.24-.27c2.62-2.75,3.59-6.02,3.94-9.37-1.43,1.16-3.48,2.75-6.29,4.64-.08,.35-.35,.65-.67,.78l-1.62-3.62c.65-.13,1.7-.43,2.97-.78V8.58h-2.4l-.22-.78h2.62V.62l3.97,.38c-.05,.38-.27,.65-1,.76V7.72l1.24-2.08s.84,.86,1.59,1.7v-2.75l3.37,1.21h4.97c-.05-1.73-.08-3.51-.08-5.32l3.91,.41c0,.13-.05,.3-.19,.41,4.4,.11,4.35,2.59,3.02,3.27,.59,.46,1.38,1.08,1.94,1.59-.08,.3-.35,.43-.73,.43h-5.02c.08,2.48,.27,4.94,.7,7.18,.54-1.49,1.03-3.1,1.43-4.89l3.59,1.21Zm-19.76,5.8l2.73-.84c.08-1.13,.11-2.27,.11-3.37v-3.1h-2.83v7.31Zm5.75-4.21c0,2.02-.11,4.35-.86,6.61l1.97,.11c.22,0,.32-.05,.43-.19,.38-.49,.51-2.48,.59-6.72h-2.13v.19Zm10.39-7.29c-.24-1.05-1.03-2.16-1.7-2.83l-.41,.08c-.03,1.38-.05,2.78-.03,4.16h1.46l.97-1.24-.3-.16Z"/>
    <path class="cls-1" d="M359.18,23.81c-.59,.76-2,.78-2.48-.11-.4-.81-.03-1.59,.7-2.11,.76-.7,1.7-2.38,1.67-3.89h.4c.92,2.89,.57,5.05-.3,6.1Zm4.8-7.67c.03-.43-.03-.86-.08-1.3-1.4,.57-3.29,1.32-5.29,2.02-.22,.3-.46,.49-.73,.57l-1.05-3.19s.65-.13,.92-.35c1.08-.95,2.4-2.7,3.54-4.56l-2.4,.97c-.19,.3-.41,.49-.65,.59l-1.32-3.16s.57-.11,.78-.3c1.21-1.35,2.81-5.18,3.27-7.26l3.59,1.73c-.11,.24-.41,.46-.89,.41-1.13,1.75-3.1,4.05-4.83,5.56h3.35c.73-1.32,1.35-2.59,1.7-3.59l3.21,2.19c-.14,.22-.51,.38-1.03,.27-1.46,2.19-4.37,5.37-6.99,7.5l4.67-.3c-.22-.97-.54-1.92-.86-2.7l.3-.11c5.67,2.81,2.89,7.1,.81,4.99Zm-3.02,6.69c.24-1.75,0-3.86-.35-5.37l.38-.11c4.16,3.67,1.62,7.53-.03,5.48Zm5.1-3.16c1.32-.59,3.29-1.48,5.24-2.43l.11,.24c-.76,1.03-1.97,2.67-3.7,4.72-.03,.38-.22,.7-.49,.84l-1.4-1.94c-.38,.49-1.08,.57-1.73,0-.05-1.35-.81-3.05-1.54-4.1l.32-.16c2.05,.81,2.94,1.89,3.19,2.83Zm15.93-9.18c-.08,.3-.32,.43-.7,.43h-6.18v11.15c0,1.92-.43,3.13-3.56,3.4-.03-.86-.13-1.51-.43-1.89-.32-.41-.81-.73-1.89-.89v-.38s2,.16,2.48,.16c.4,0,.49-.19,.49-.49V10.93h-6.21l-.22-.76h8.04l.76-2.21h-4.35l-1.13,1.24-2.67-1.92c.27-.22,.7-.43,1.13-.59,.86-1.89,2.02-4.97,2.46-6.42l3.73,.65c-.08,.32-.38,.67-1.11,.67l-.54,1.4h3.89l1.27-1.38,2.7,2.24c-.22,.22-.49,.3-1.03,.35l-2,5.96h.97l1.46-2.16s1.7,1.48,2.65,2.48Zm-13.17,5.56c-.3-1.35-1.43-2.94-2.48-3.86l.24-.19c6.69,.76,4.75,5.67,2.24,4.05Zm6.02-8.88l1.16-3.4h-4.21c-.49,1.16-1,2.43-1.43,3.4h4.48Zm4.18,15.33c-.73-1.51-1.89-3.62-3.46-5.07l.19-.24c7.96,1.38,5.91,7.32,3.27,5.32Zm1.7-8.66c-1.11,.75-3.4,1.92-4.8,2.62l-.22-.24c.89-1.32,2.16-3.59,2.83-4.8l3.16,2.29c-.14,.22-.43,.3-.97,.14Z"/>
    <path class="cls-1" d="M384.91,12.88l-.16-.3c4.59-2.97,9.66-8.69,10.82-12.58l4.94,1.3c-.08,.38-.46,.51-1.35,.59,2.48,3.32,7.48,5.24,11.58,6.4l-.03,.43c-1.43,.38-2.4,1.86-2.65,3.13-3.99-2.11-7.69-5.26-9.34-9.61-2.7,4.16-8.48,8.5-13.82,10.63Zm10.82,10.85V15.25h-8.69l-.22-.76h8.91v-4.02h-4.51l-.22-.75h8.53l1.59-2.03s1.81,1.38,2.94,2.35c-.08,.3-.35,.43-.73,.43h-4.32v4.02h4.83l1.73-2.24s2,1.51,3.16,2.56c-.08,.3-.35,.43-.73,.43h-8.99v8.48h5.67l1.89-2.43s2.13,1.65,3.43,2.78c-.08,.3-.38,.43-.78,.43h-23.51l-.24-.78h10.26Zm-4.97-1.81c.05-1.89-.59-3.94-1.3-5.51l.27-.13c7.1,2.92,3.64,8.31,1.03,5.64Zm15.87-4.26c-.14,.32-.49,.54-1.08,.51-1.46,1.73-3.24,3.48-4.8,4.67l-.35-.22c.59-1.59,1.4-4.21,2.02-6.51l4.21,1.54Z"/>
    <path class="cls-1" d="M422.68,2.43c-.11,.32-.43,.57-1.08,.54-.51,1.38-1.11,2.65-1.75,3.83h4.35V.27l4.45,.43c-.05,.38-.24,.65-.97,.76V6.8h4.24l1.89-2.32s2.05,1.48,3.4,2.65c-.08,.3-.38,.43-.78,.43h-8.75v6.91h3.37l1.89-2.38s2.16,1.62,3.46,2.7c-.05,.3-.35,.43-.76,.43h-7.96v8.12h5.53l1.97-2.46s2.19,1.65,3.54,2.78c-.08,.3-.38,.43-.78,.43h-24.35l-.22-.76h10.82V15.22h-7.4l-.22-.76h7.61V7.56h-4.78c-1.65,2.78-3.67,4.97-5.99,6.59l-.32-.22c2.08-3.1,4.1-7.99,5.02-12.85l4.56,1.35Z"/>
    <path class="cls-1" d="M444.18,10.61c-.38-1.4-1.57-2.94-2.62-3.89l.22-.19c7.31,.32,5.24,5.83,2.4,4.08Zm-.14,6.37q.65-1,5.8-11.26l.43,.13c-1.13,3.1-3.1,8.85-3.48,10.23-.24,.86-.46,1.81-.43,2.51,.03,1.4,1.13,2.32,1.05,4.67-.05,1.38-.97,2.24-2.32,2.24-.62,0-1.27-.4-1.48-1.38,.49-2.81,.38-5.24-.27-5.67-.38-.27-.84-.41-1.4-.46v-.49h1.24c.43,0,.54,0,.86-.54Zm2.4-12.07c-.46-1.46-1.75-3.1-2.86-4.1l.22-.19c7.56,.32,5.64,5.94,2.65,4.29Zm4.32,8.8l3.27,1.3h2.24v-5.21h-6.8l-.22-.75h7.02V4.45c-2.19,.19-4.45,.35-6.56,.4l-.08-.38c4.59-.92,10.39-2.73,13.33-4.13l3.16,3.02c-.32,.24-.94,.27-1.78-.03-1.35,.27-3.02,.51-4.83,.73v4.97h3l1.7-2.32s1.94,1.57,3.08,2.65c-.08,.3-.38,.43-.76,.43h-7.02v5.21h2.24l1.51-1.62,3.05,2.32c-.19,.22-.54,.49-1.11,.59v8.04c-.03,.22-1.57,.89-2.62,.89h-.54v-2.21h-8.18v1.38c0,.3-1.35,.97-2.65,.97h-.46V13.71Zm11.28,2.05h-8.18v6.5h8.18v-6.5Z"/>
    <path class="cls-1" d="M471.96,25.37h-.51V.38l3.37,1.4h15.6l1.54-1.7,3.02,2.43c-.19,.24-.54,.43-1.11,.57V24.19c-.03,.24-1.48,1.03-2.67,1.03h-.51v-1.97h-16.14v.92c0,.43-1.21,1.21-2.59,1.21Zm2.59-22.81V22.46h16.14V2.56h-16.14Zm15.28,5.59c-.05,.3-.32,.43-.7,.43h-6.51c-.35,.73-.76,1.46-1.24,2.16h5.61l1.3-1.65s1.46,1.16,2.38,1.97c-.11,.3-.35,.43-.73,.43h-3.51c5.29,1.65,4.24,5.24,2.16,4.24-.7-1.35-2.46-3.13-3.78-4.24h-4c-.4,.51-.86,1-1.35,1.48l1.43,.57h2.92l1.16-1.11,2.24,1.75c-.19,.22-.49,.32-1,.4,0,2.11-.19,2.94-.94,3.43-.54,.35-1.16,.46-2.08,.46,0-.54-.05-1-.32-1.3-.24-.27-.62-.41-1.13-.51v-.43c.46,.03,1.21,.05,1.57,.05,.3,0,.43-.03,.54-.11,.14-.13,.22-.7,.24-1.86h-3.51v4.56c0,.35,.11,.43,.92,.43h2.35c.92,0,1.73,0,2.05-.03,.32,0,.49-.05,.62-.24,.24-.32,.59-1.21,.94-2.29h.3l.08,2.32c.73,.27,.92,.54,.92,1,0,1.03-1.03,1.38-5.16,1.38h-2.67c-2.43,0-2.86-.49-2.86-2.13v-5.16c-.94,.7-2.02,1.35-3.24,1.89l-.24-.27c1.7-1.21,3.02-2.67,4.02-4.29h-3.51l-.22-.76h4.16c.38-.7,.73-1.43,1-2.16h-4.24l-.22-.76h4.72c.59-1.67,.92-3.4,1.11-4.99l3.78,.7c-.11,.38-.43,.62-1.05,.62-.27,1.24-.65,2.46-1.16,3.67h3.1l1.32-1.49s1.48,1.03,2.43,1.81Zm-12.2-1.19c-.05-1.16-.65-2.56-1.27-3.4l.27-.13c5.45,1.35,3.02,5.29,1,3.54Zm10.26-1.73c-.92,.81-2,1.62-2.89,2.13l-.41-.24c.41-.84,.89-2.21,1.32-3.54l3,1.21c-.14,.3-.46,.49-1.03,.43Z"/>
    <path class="cls-1" d="M501.68,16.03c1.7-.84,2.75-1.67,3.27-3.18-2.02-.84-2.89-1.75-2.89-2.92,0-1.3,1-2.32,2.38-2.32,.81,0,1.4,.16,2,.67,.32,.81,.41,1.29,.41,2.13,0,3.29-1.86,5.53-4.8,6.4l-.35-.78Z"/>
    <path class="cls-1" d="M4.86,48.04H.86l-.24-.78H4.86l1.4-1.4,2.81,2.54c-.27,.3-.89,.43-1.62,.46-.81,1.3-2.13,3.37-3.08,4.8h1.13l1.59-1.62,2.73,2.35c-.19,.27-.43,.35-1.03,.41-.51,1.67-1.24,3.32-2.27,4.89,1.81,1.92,4.43,2.21,8.91,2.21,2.32,0,7.94,0,10.34-.08v.32c-1.13,.27-1.67,1.46-1.7,2.73H15.41c-4.91,0-7.67-.95-9.34-4.48-1.43,2-3.29,3.75-5.7,5.1l-.24-.32c2.86-2.7,4.7-6.88,5.51-10.74h-1.59l-.92,.84-2.4-1.7c.27-.19,.67-.38,1.05-.51,.97-1.4,2.29-3.54,3.08-4.99Zm.08-3.16c-.46-1.62-1.84-3.4-3.05-4.48l.22-.19c7.88,.46,5.91,6.4,2.83,4.67Zm10.96,6.4h-.51v-2.83c-1.73,1.51-4.02,2.7-6.53,3.56l-.22-.35c2.21-1.35,4.02-3.32,5.13-5.32h-4.89l-.22-.75h6.72v-2.29c-1.84,.11-3.72,.13-5.48,.11l-.08-.41c3.83-.62,8.64-1.94,11.12-3l2.75,2.62c-.27,.24-.84,.27-1.62-.03-1.08,.19-2.38,.35-3.78,.49v2.51h2.4l1.54-1.94s1.78,1.32,2.86,2.27c-.08,.3-.35,.43-.73,.43h-6.07v.38c8.8,1.3,6.86,6.21,4.35,4.91-.65-1-2.27-2.65-4.35-4.08v3.1c0,.13-.92,.62-2.4,.62Zm2.56,1.54h-2.48c-.59,4.08-2.78,6.72-7.18,8.26l-.16-.38c3.05-1.97,4.05-4.56,4.29-7.88h-2.62l-.24-.76h8.31l1.11-1.29,2.65,2.02c-.19,.22-.57,.38-1.08,.49l-.73,1.84h1.05l1.4-1.3,2.54,2.05c-.19,.22-.49,.35-1.03,.43-.3,2.32-.89,3.81-2,4.45-.7,.4-1.67,.65-2.92,.62,0-.67-.11-1.35-.51-1.75-.43-.38-1.3-.67-2.35-.86v-.38c1.05,.08,2.81,.19,3.32,.19,.4,0,.62-.03,.84-.16,.35-.22,.67-1.13,.86-2.51h-1.32l-1.08,1.11-2.51-1.75c.3-.22,.73-.43,1.19-.57l.65-1.86Z"/>
    <path class="cls-1" d="M37.58,60.97h-.4v-7.13c-.16,.05-.35,.08-.65,.11-.49,1.86-1.27,3.75-2.35,5.53,1.97,2.05,4.94,2.32,9.96,2.32,2.19,0,7.48,0,9.8-.05v.35c-1.05,.24-1.57,1.27-1.62,2.43h-8.26c-5.37,0-8.37-.89-10.34-4.37-1.21,1.78-2.78,3.43-4.75,4.72l-.27-.32c2.48-2.86,4.1-7.15,4.75-10.96h-.92l-.92,.92-2.43-1.62c.24-.19,.62-.4,1-.54,.76-1.43,1.75-3.56,2.38-5.02h-3.51l-.24-.78h3.7l1.21-1.24,2.46,2.21c-.19,.22-.57,.32-1,.4-.59,1.3-1.65,3.43-2.46,4.91h.57l1.54-1.57,2.35,1.94v-4.89l2.16,.89v-8.53l2.92,1.16h4.75l1.24-1.59,3.05,2.13c-.19,.27-.51,.41-1.21,.51v6.61h.46l.86-1.3,1.89,2.48c-.22,.19-.59,.38-1.05,.46v7.42c0,1.73-.46,2.73-3.32,2.89,0-.89-.11-1.24-.32-1.7-.24-.43-.76-.75-1.65-.92v-.35s1.3,.11,2.05,.11c.27,0,.4-.08,.4-.32v-7.99h-9.47v9.77c0,.27-1.19,.89-2.35,.89Zm-5.59-15.87c-.3-1.48-1.4-3.19-2.4-4.16l.22-.19c7.21,.65,4.99,6.13,2.19,4.35Zm9.72,13.79h-.32v-7.5l2.43,1h1.62l1.08-1.11,2.27,1.7c-.11,.13-.43,.32-.81,.38v4.24c-.03,.19-1.16,.73-1.92,.73h-.4v-1.05h-1.94v.89c0,.19-1.03,.73-2,.73Zm4.37-14.01h1.21v-2.24h-5.32v6.88h1.51v-5.7l2.59,1.05Zm-.43,8.29h-1.94v3.35h1.94v-3.35Zm.08-3.64h1.57v-3.89h-1.57v3.89Z"/>
    <path class="cls-1" d="M59.59,48.23c-.86,.62-1.78,1.19-2.75,1.65l-.22-.22c2.81-2.59,5.16-6.78,6.1-9.66l4.37,.89c-.11,.35-.38,.54-1.16,.59,9.37,1.65,6.13,7.21,3.67,5.37-.43-1.57-1.78-3.62-3.86-5.08-.89,1.4-2.11,2.92-3.56,4.32h3.21l1.38-1.73s1.57,1.19,2.48,2.05c-.05,.3-.32,.43-.7,.43h-6.64l-.11-.41c-.51,.46-1.05,.92-1.59,1.32l2.7,1h4.91l1.35-1.51,2.97,2.21c-.16,.22-.57,.43-1.11,.57v5.4c-.05,.16-1.51,.67-2.46,.67h-.49v-.78h-5.8c-.05,.54-.13,1.08-.24,1.62l1.84,.7h4.18l1.35-1.48,2.94,2.19c-.16,.19-.54,.46-1.08,.54v5.43c-.03,.16-1.54,.67-2.46,.67h-.51v-1.65h-4.78v1.21c0,.19-.86,.81-2.32,.81h-.49v-4.7c-.78,1.46-1.92,2.83-3.56,3.97l-.27-.24c2.46-3.7,2.7-8.31,2.7-12.07v-4.1Zm2.86,4.21c0,.65-.03,1.38-.08,2.13h5.72v-2.13h-5.64Zm0-2.92v2.16h5.64v-2.16h-5.64Zm1.08,13.06h4.78v-4.18h-4.78v4.18Zm13.47-19.89c-.05,.38-.24,.62-.89,.73v15.36c0,.3-1.19,.84-2.21,.84h-.51v-17.28l3.62,.35Zm5.18-1.75c-.05,.41-.32,.67-.97,.76v20.19c0,2.08-.46,3.27-3.86,3.59-.05-.95-.22-1.65-.62-2.13-.4-.46-.97-.78-2.27-1v-.38s2.67,.16,3.24,.16c.43,0,.57-.13,.57-.49v-21.08l3.91,.38Z"/>
    <path class="cls-1" d="M98.76,44.54c-.08,.3-.32,.43-.7,.43h-3.7l3.35,1.05c-.11,.3-.43,.51-1.03,.49-.73,1.03-1.89,2.38-3.08,3.54h1.89l1.48-2s1.59,1.35,2.56,2.29v-7.61l2.94,.92c1.75-.97,3.56-2.21,4.56-3.1l3.32,2.62c-.3,.3-.84,.35-1.65,.08-1.54,.54-3.83,1.03-6.13,1.35v5.56h3.43l1.73-2.35s1.94,1.59,3.08,2.67c-.05,.3-.35,.43-.73,.43h-2.24v13.71c-.03,.16-.94,.84-2.56,.84h-.57v-14.55h-2.13v.81c0,4.7-.4,10.23-6.1,13.77l-.3-.3c3.05-3.86,3.35-8.75,3.35-13.52v-1.19c-.08,.24-.32,.35-.65,.35h-5.37v3.21h1.51l1.4-1.92s1.54,1.32,2.48,2.24c-.08,.3-.35,.43-.73,.43h-4.67v9.91c0,.16-.92,.73-2.48,.73h-.54v-7.88h-.14c-1,1.92-2.56,4.35-4.64,5.97l-.3-.3c1.27-2.16,2.13-5.45,2.43-7.61l2.65,1.16v-1.97h-4.59l-.22-.76h4.8v-3.21h-5.1l-.22-.78h7.61c.49-1.54,.94-3.56,1.19-5.07h-8.15l-.22-.76h5.8c-.24-.08-.49-.22-.73-.41-.08-1.27-.76-2.7-1.43-3.59l.22-.13c4.97,.7,4.62,3.56,3.05,4.13h2.27l1.4-1.92s1.62,1.32,2.56,2.24Zm-10.18,4.94c.03-1.46-.51-3.13-1.03-4.32l.27-.13c5.64,2.4,2.81,6.53,.76,4.45Zm6.99,11.55c-.08-1.65-.94-3.62-1.84-4.94l.27-.13c6.29,2.32,3.83,7.07,1.57,5.07Z"/>
    <path class="cls-1" d="M124.36,42.54c-.05,.3-.35,.43-.7,.43h-1.59v21.73c0,.19-.81,.78-2.13,.78h-.43v-6.24c-1.11,.73-2.51,1.62-4.18,2.64-.11,.35-.38,.62-.7,.67l-1.24-3.4,1.75-.3v-15.9h-1.38l-.22-.76h6.56l1.51-1.92s1.73,1.32,2.75,2.24Zm-4.86,.43h-1.94v4.54h1.94v-4.54Zm0,5.32h-1.94v4.59h1.94v-4.59Zm0,5.34h-1.94v4.78l1.94-.38v-4.4Zm12.12-9.77v-3.64l3.59,.43c-.03,.35-.27,.65-.97,.76-.05,2.94-.11,5.75-.08,8.31h.97l1.48-1.97s1.67,1.35,2.67,2.32c-.08,.3-.35,.43-.73,.43h-4.37c.05,2,.19,3.86,.46,5.48,.59-1.59,1.03-3.21,1.3-4.8l3.32,.97c-.11,.3-.35,.49-1.05,.49-.62,2.13-1.51,4.32-2.83,6.32,.35,.92,.76,1.7,1.3,2.32,.3,.35,.41,.32,.62-.16,.35-.67,.84-2.02,1.16-3.13l.32,.05-.46,4.29c.67,1.29,.81,2,.46,2.38-.94,1-2.56,.05-3.43-.89-.67-.76-1.24-1.65-1.67-2.65-1.57,1.7-3.54,3.16-6.02,4.21l-.27-.35c2.43-1.46,4.24-3.43,5.61-5.67-.76-2.46-1.11-5.45-1.24-8.85h-9.18l-.22-.78h5.02c.43-1.46,.76-3.35,.89-4.78l3.35,.89c-.08,.32-.4,.54-.97,.54-.57,1.03-1.46,2.27-2.48,3.35h3.54c-.05-1.54-.05-3.13-.08-4.8h-8.85l-.22-.78h4.1c-.32-.05-.65-.22-.97-.49,.03-1.11-.46-2.4-1.03-3.18l.24-.13c4.62,.78,3.86,3.59,2.21,3.81h1.7l1.24-1.75,1.57,1.49Zm-7.96,19.16h-.35v-11.71l2.48,1.05h2.16l1.16-1.21,2.35,1.84c-.11,.16-.43,.35-.86,.43v7.96c-.03,.19-1.21,.67-2.02,.67h-.38v-1h-2.51v1.16c0,.24-1,.81-2.02,.81Zm.67-13.96c.05-1.27-.3-2.83-.67-3.89l.32-.11c4.7,2.4,2.05,5.86,.35,4Zm1.35,4.08v3.02h2.51v-3.02h-2.51Zm2.51,3.81h-2.51v3.35h2.51v-3.35Zm7.94-10.04c-.11-1.43-.81-3.16-1.43-4.32l.32-.13c5.45,2.29,3.08,6.26,1.11,4.45Z"/>
    <path class="cls-1" d="M167.5,61.81l-.03,.32c-1.65,.3-2.67,1.4-3.05,3.16-6.78-3.56-8.8-9.91-9.47-18.49-.51,6.88-2.48,13.79-12.58,18.62l-.3-.38c9.88-7.21,9.61-15.9,9.64-24.48l4.43,.43c-.05,.4-.27,.65-.97,.76,.57,10.37,3.1,16.65,12.34,20.06Z"/>
    <path class="cls-1" d="M173.26,58.73v-7.56h-2.7l-.22-.76h2.92v-6.69h-2.75l-.22-.76h5.78l1.62-2.21s1.3,1.05,2.32,2v-1.81l3.24,1.32h7.83l1.48-1.62,3,2.32c-.16,.22-.54,.46-1.08,.59v10.55c-.03,.24-1.51,.94-2.59,.94h-.54v-1.16h-2.65v4.24h2l1.59-2.24s1.81,1.51,2.86,2.56c-.05,.3-.35,.43-.76,.43h-5.7v4.83h2.81l1.7-2.43s1.94,1.65,3.05,2.75c-.05,.3-.35,.43-.73,.43h-17.87l-.22-.76h8.15v-4.83h-5.51l-.22-.76h5.72v-4.24h-2.51v.76c0,.3-1.3,1-2.59,1h-.49v-4.78c-.08,.22-.3,.3-.62,.3h-3.02v6.67l3.7-1.11,.11,.3c-1.73,1.24-4.35,3.1-8.1,5.34-.08,.32-.38,.62-.67,.73l-1.4-3.56c.7-.13,1.86-.43,3.27-.81Zm6.59-15.01h-3.48v6.69h.08l1.32-2.11s1.43,1.4,2.24,2.38v-6.99l-.16,.03Zm5.75-.7h-2.51v4.67h2.51v-4.67Zm-2.51,5.42v4.67h2.51v-4.67h-2.51Zm8.26-.76v-4.67h-2.65v4.67h2.65Zm-2.65,5.43h2.65v-4.67h-2.65v4.67Z"/>
    <path class="cls-1" d="M199.1,50.12l-.13-.3c4.62-2.29,8.61-6.42,10.12-9.93l4.56,1.32c-.11,.35-.41,.54-1.32,.62,2.59,2.19,7.05,3.7,11.71,4.18l-.03,.43c-1.3,.51-1.84,1.92-2.05,3.16-4.45-1.43-7.94-4-10.01-7.48-2.21,2.94-7.07,6.48-12.85,7.99Zm2.97,12.93c-.92,.57-2.11,.38-2.48-.57-.32-.89,.22-1.62,1.05-2.05,1-.59,2.08-2.13,2.02-3.89l.38-.03c1.32,3.37,.32,5.72-.97,6.53Zm15.04-14.06l2.89,2c-.16,.27-.43,.35-1,.38-1.03,1.65-3,3.35-5.1,4.43l-.24-.32c.7-1.16,1.46-2.86,1.84-4.29h-12.01l-.24-.76h12.2l1.67-1.43Zm-8.88,7.91v4.7c0,.38,.14,.49,1.13,.49h3.27c1.13,0,2.16,0,2.62-.03,.43-.03,.59-.11,.81-.38,.32-.46,.73-1.51,1.32-3.05h.27l.08,3.16c.94,.32,1.19,.65,1.19,1.21,0,1.35-1.32,1.73-6.64,1.73h-3.43c-3.08,0-3.78-.51-3.78-2.59v-6.26l4.02,.32c-.05,.38-.32,.59-.86,.7Zm7.91-9.31c-.08,.3-.35,.43-.73,.43h-8.69l-.22-.78h5.83l1.35-1.84s1.54,1.27,2.46,2.19Zm-3.99,12.09c-.24-1.73-1.48-3.64-2.62-4.83l.24-.22c7.45,1.48,5.1,7.04,2.38,5.05Zm8.5,2.4c-.24-1.97-1.54-4.21-2.92-5.59l.24-.19c8.15,1.83,5.61,8.02,2.67,5.78Z"/>
    <path class="cls-1" d="M228.99,40.67l3.08,1.16h3.75l1.24-1.29,2.59,1.94c-.14,.19-.46,.38-.92,.46v3.29c-.03,.13-.73,.43-1.46,.57l2.4,1.78c-.14,.16-.43,.35-.84,.43v3.46c-.03,.19-1.32,.67-2.16,.67h-.46v-.95h-2.73v.7c0,.16-.84,.76-2.16,.76h-.46v-4.64c-.59,1.57-1.62,3.13-3.43,4.32l-.27-.27c1.73-2.78,1.81-6.18,1.81-8.88v-3.51Zm21.27,16.76c-.08,.24-.27,.38-.62,.4,.43,.3,1.86,1.35,2.81,2.16-.05,.3-.32,.43-.73,.43h-10.23v1.67c0,1.94-.51,3.13-4.05,3.37-.08-.86-.22-1.49-.62-1.89-.41-.41-.97-.7-2.38-.92v-.35s2.78,.19,3.35,.19c.46,0,.57-.19,.57-.49v-1.59h-10.93l-.22-.78h11.15v-1.78h-8.58l-.22-.76h8.8v-1.75c-2.89,.08-5.88,.05-8.69-.08l-.05-.49c5.86-.3,13.23-1.32,17.11-2.35l2.29,2.43c-.27,.24-.81,.22-1.57-.11-1.73,.19-3.78,.35-5.97,.46v1.89h4.32l1.57-1.83s1.75,1.24,2.89,2.16Zm-16.65-9.45h2.4l1.08-1.13-.57,.05h-.46v-1.03h-4.51l-.16,1.24,2.21,.86Zm2.46-2.89v-2.48h-4.43v1.57l-.03,.92h4.45Zm.16,6.34v-2.7h-2.73v2.7h2.73Zm15.63-8.02c-.05,.3-.35,.43-.7,.43h-3.54l2.86,.78c-.11,.3-.43,.51-1.03,.51-.65,.57-1.65,1.27-2.59,1.84h2.24l1.13-1.46s1.32,1.03,2.11,1.81c-.05,.3-.32,.43-.67,.43h-5.1v1.89h1.46l1.19-1.57s1.38,1.11,2.19,1.92c-.05,.3-.32,.43-.7,.43h-4.13v1.59c0,.08-.86,.51-2.29,.51h-.49v-2.11h-3.43l-.22-.78h3.64v-1.89h-4.24l-.22-.78h3.27c-.16-.05-.32-.13-.49-.24-.05-.92-.65-1.97-1.21-2.54l.22-.16c4.1,.05,3.89,2.4,2.56,2.94h2.29c.32-.92,.65-2.19,.89-3.13h-6.99l-.22-.78h5.16c-.22-.05-.43-.13-.65-.27-.13-.92-.78-2-1.38-2.56l.24-.16c4.59-.16,4.13,2.65,2.51,3h2.54l1.35-1.78s1.51,1.24,2.43,2.13Zm-10.37,16.22h6.45l1.51-1.78h-7.96v1.78Z"/>
    <path class="cls-1" d="M275.61,63.81l1.81-2.19s2.08,1.48,3.35,2.51c-.08,.3-.38,.43-.78,.43h-24.37l-.22-.76h20.22Zm-9.77-16.06v-1.81h-10.07l-.22-.78h10.28v-1.78h-6.59l-.24-.78h6.83v-2.51l4.05,.35c-.05,.35-.24,.59-.89,.7v1.46h3.83l1.4-1.48,2.97,2.19c-.16,.19-.51,.41-1,.51v1.35h.57l1.48-1.94s1.67,1.32,2.67,2.29c-.08,.3-.35,.43-.73,.43h-3.99v2.4c0,.11-.41,.3-.94,.49,.54,.41,1.73,1.27,2.56,1.97-.08,.3-.35,.43-.73,.43h-8.1v1.92h7.23l1.57-1.94s1.78,1.32,2.89,2.27c-.05,.3-.35,.43-.73,.43h-24.29l-.22-.76h10.39v-1.92h-7.45l-.22-.76h7.67v-1.97h-6.61l-.24-.76h6.86Zm-6.32,6.59l3.35,1.3h10.2l1.46-1.51,2.97,2.24c-.14,.19-.51,.41-.97,.51v4.99c-.03,.22-1.59,.86-2.62,.86h-.57v-.84h-10.69v.49c0,.3-1.4,.94-2.67,.94h-.46v-8.99Zm6.88,4.02v-1.94h-3.75v1.94h3.75Zm-3.75,2.78h3.75v-2.03h-3.75v2.03Zm10.42-15.98v-1.78h-4.08v1.78h4.08Zm-4.08,2.59h4.08v-1.81h-4.08v1.81Zm4.4,2.73l1.21-1.46c-.35,.08-.7,.13-1,.13h-.54v-.65h-4.08v1.97h4.4Zm-.05,5.94h-3.94v1.94h3.94v-1.94Zm-3.94,2.7v2.03h3.94v-2.03h-3.94Z"/>
    <path class="cls-1" d="M290.44,46.67v8.69c-.05,.24-1.32,.86-2.59,.86h-.59v-7.37c-1.08,1.03-2.21,1.89-3.4,2.62l-.3-.22c2.02-2.62,4.24-6.88,5.48-11.15l4.26,1.67c-.14,.3-.49,.51-1.11,.46-.65,1.24-1.38,2.4-2.16,3.46l1.24,.46c-.08,.24-.38,.43-.84,.51Zm-3.35,16.38c-.92,.57-2.11,.38-2.48-.57-.3-.89,.24-1.62,1.05-2.05,1-.59,2.11-2.13,2.05-3.89l.38-.03c1.32,3.37,.32,5.72-1,6.53Zm6.48-6.1v4.7c0,.4,.13,.51,1.13,.51h3.21c1.11,0,2.13-.03,2.59-.05,.43-.03,.59-.11,.81-.38,.32-.43,.76-1.51,1.32-3.05h.27l.08,3.16c.94,.3,1.19,.67,1.19,1.21,0,1.35-1.32,1.73-6.59,1.73h-3.43c-3.05,0-3.78-.51-3.78-2.59v-6.26l4.02,.35c-.03,.35-.3,.57-.84,.67Zm4.45-15.01c-.24,.54-.51,1.08-.81,1.59h7.26l1.65-1.65,2.86,2.7c-.22,.24-.49,.3-1.05,.35-.97,.86-2.62,2-3.89,2.62l-.24-.16c.3-.84,.62-2.08,.84-3.08h-7.88c-1.38,2.21-3.05,4-4.91,5.24l-.32-.22c1.35-2.24,2.65-5.78,3.29-9.29l4.29,1.32c-.11,.35-.46,.57-1.08,.57Zm-.27,7.32c-1.46,2.56-3.51,4.35-5.72,5.42l-.3-.24c1.35-1.65,2.62-4.27,3.27-7.05l3.81,1.35c-.11,.32-.46,.54-1.05,.51Zm-.24,10.39c-.3-1.51-1.46-3.27-2.48-4.37l.22-.19c7.32,1.35,4.91,6.5,2.27,4.56Zm4.4-12.88v8.61c0,.19-1.24,.59-2.4,.59h-.54v-10.31l3.94,.38c-.05,.38-.27,.62-1,.73Zm3.86,7.26c-.3-1.94-1.62-4.24-2.83-5.75l.24-.19c8.04,2.38,5.43,8.21,2.59,5.94Zm-.24,8.21c-.05-2.05-1.19-4.4-2.46-5.94l.24-.16c7.96,2.46,5.07,8.61,2.21,6.1Z"/>
    <path class="cls-1" d="M320.3,41.92c-.7,.97-1.78,2.35-2.65,3.4h2.35l1.46-1.59,2.92,2.29c-.19,.24-.57,.43-1.11,.57v16.09c-.03,.22-1.46,.86-2.51,.86h-.49v-2.11h-4.1v1.97c0,.35-1.11,1.05-2.4,1.05h-.49v-20.41l3,1.27h.16c.22-1.43,.46-3.59,.57-5.1l4.4,1.05c-.14,.46-.49,.65-1.11,.65Zm-4.13,4.18v6.69h4.1v-6.69h-4.1Zm0,14.58h4.1v-7.1h-4.1v7.1Zm14.01-18.71c-.46,1.16-.94,2.24-1.48,3.27h4.26l1.7-1.75,2.86,2.54c-.22,.24-.54,.43-1.19,.51-.19,10.88-.57,15.82-2.05,17.44-.94,1-2.13,1.43-3.91,1.43,0-1.03-.14-1.78-.59-2.24-.49-.49-1.54-.92-2.83-1.19l.03-.38c1.27,.11,3.16,.24,3.83,.24,.49,0,.73-.08,1-.35,1-.92,1.27-6.29,1.46-15.47h-4.99c-1.32,2.29-2.86,4.21-4.59,5.7l-.32-.22c1.46-2.81,2.94-7.18,3.64-11.31l4.24,1.24c-.11,.32-.43,.57-1.05,.54Zm-2.48,14.52c-.14-1.92-1.19-4.1-2.29-5.59l.24-.16c7.85,2.29,4.91,8.15,2.05,5.75Z"/>
    <path class="cls-1" d="M349.7,53.93h5.32c.51-1.54,.97-3.62,1.24-5.1h-15.57l-.24-.78h10.99v-3.54h-7.91l-.22-.78h8.12v-3.59l4.21,.35c-.05,.35-.24,.59-.86,.67v2.56h3.35l1.78-2.24s2.05,1.51,3.29,2.59c-.08,.3-.35,.43-.76,.43h-7.67v3.54h5.86l1.84-2.27s2.08,1.54,3.37,2.62c-.08,.3-.38,.43-.78,.43h-8.39l4.02,.84c-.11,.32-.38,.57-1.03,.59-.89,1.08-2.38,2.51-3.81,3.67h2.89l1.78-2.21s2,1.51,3.24,2.54c-.08,.3-.38,.43-.76,.43h-8.23v4.24h5.16l1.84-2.27s2.05,1.51,3.32,2.59c-.08,.3-.38,.43-.76,.43h-9.56v5.1c-.03,.16-1.03,.73-2.73,.73h-.62v-5.83h-9.83l-.22-.76h10.04v-4.24h-8.31l-.22-.76h5.75c-.32-.11-.65-.3-.97-.59,.03-1.51-.54-3.13-1.16-4.29l.24-.14c5.26,1.35,4.67,4.48,2.94,5.02Z"/>
    <path class="cls-1" d="M372.92,65.37h-.51v-10.53c-1.19,1-2.46,1.92-3.78,2.65l-.24-.24c3.02-2.83,5.64-7.02,6.78-10.53h-5.91l-.24-.78h6.07l1.7-1.62,2.78,2.67c-.24,.27-.57,.32-1.21,.38-.73,1.48-1.73,3.02-2.97,4.48,5.45,2.19,3.19,6.1,1.19,4.35-.14-1.11-.65-2.32-1.19-3.37v11.58c0,.24-.97,.97-2.46,.97Zm.19-21.08c-.14-1.4-.89-2.97-1.59-4.02l.22-.13c7.07,1.35,3.99,6.37,1.38,4.16Zm21.03-1.62c-.08,.3-.38,.43-.76,.43h-14.5l-.22-.76h10.82l1.65-2.13s1.86,1.46,3,2.46Zm-14.66,22.75h-.43v-13.04l3.02,1.21h7.67l1.43-1.54,2.94,2.27c-.16,.22-.57,.43-1.11,.54v9.61c-.03,.16-1.51,.76-2.48,.76h-.49v-1.67h-8.12v.92c0,.3-1.21,.94-2.43,.94Zm1.3-13.28h-.41v-7.72l3,1.19h5.24l1.4-1.54,3,2.24c-.16,.22-.57,.46-1.11,.57v4.21c-.03,.16-1.57,.67-2.51,.67h-.51v-.97h-5.61v.49c0,.24-1.3,.86-2.48,.86Zm1.13,2.24v3.67h2.83v-3.67h-2.83Zm2.83,8.42v-3.97h-2.83v3.97h2.83Zm-1.48-16.44v3.64h5.61v-3.64h-5.61Zm4.05,11.69h2.73v-3.67h-2.73v3.67Zm2.73,4.75v-3.97h-2.73v3.97h2.73Z"/>
    <path class="cls-1" d="M417.9,47.21c.11-.73,.24-1.78,.3-2.62h-16.74c.16,1.89-.51,3.18-1.43,3.78-.86,.54-2.13,.35-2.51-.65-.32-.94,.24-1.7,1.05-2.11,.97-.49,2.02-1.83,1.97-3.29h.38c.19,.54,.35,1.03,.43,1.51h8.04c-.16-.05-.32-.13-.49-.24-.14-1.21-.97-2.54-1.89-3.24l.22-.16c5.45-.32,5.26,2.94,3.54,3.64h7.18l1.59-1.62,2.83,2.67c-.22,.22-.49,.27-1.05,.3-.76,.73-2.08,1.7-3.13,2.27l.67,.59c-.05,.3-.35,.43-.73,.43h-7.07c-.84,.84-1.86,1.59-3,2.32,1.11,.86,2,1.92,2.7,3,2.46-1.46,5.16-3.54,6.59-4.91l3.29,2.67c-.19,.24-.43,.35-1.05,.16-1.59,.7-3.86,1.48-6.21,2.11,1.75,3.64,5.34,5.7,9.04,6.88l-.03,.3c-1.24,.24-2.13,1.19-2.56,2.67-3.46-2.08-5.8-4.94-7.02-9.69l-1.7,.4c2.05,3.81,1.84,8.18,.43,9.91-.7,.86-2.05,1.19-3.97,1.19-.03-.92-.24-1.54-.65-2-.32-.35-1.21-.7-2.27-.97l-.03-.32c1.13,.08,2.92,.19,3.56,.19,.38,0,.65-.03,.78-.27,.38-.59,.59-1.7,.62-3.08-3.19,2.08-7.56,3.86-11.85,4.72l-.19-.41c4.51-1.62,9.07-4.78,11.61-8.12l-.19-.67c-2.75,1.81-6.8,3.59-10.53,4.59l-.16-.35c3.48-1.62,7.29-4.64,9.37-7.32l-.19-.32c-2.54,1.46-5.61,2.65-8.77,3.46l-.22-.35c3.21-1.46,6.21-3.7,8.21-5.78h-5.18l-.22-.78h12.93l1.65-2.08,2.02,1.59Z"/>
    <path class="cls-1" d="M427.57,65.43h-.54v-25l3.4,1.43h15.6l1.54-1.73,3.02,2.43c-.19,.24-.54,.46-1.11,.57v21.11c-.03,.27-1.51,1.03-2.67,1.03h-.51v-2.03h-16.14v.97c0,.43-1.24,1.21-2.59,1.21Zm2.59-2.97h16.14v-19.84h-16.14v19.84Zm2.56-6.8h-.38v-6.02l2.73,1.08h5.99l1.16-1.21,2.48,1.81c-.13,.16-.4,.35-.78,.41v2.92c0,.05-.14,.16-.35,.24l2,1.81c-.16,.19-.4,.24-.89,.05-.51,.22-1.32,.46-2.13,.67,4.18,2.19,2.51,5.13,.59,4.02-.7-1.24-2.75-3.4-5.43-5.13l.19-.35c1.38,.24,2.51,.57,3.46,.94,.54-.57,1.11-1.24,1.57-1.78-.4,.11-.84,.19-1.19,.19h-.46v-.51h-2.48c-.62,.67-1.38,1.27-2.24,1.78v2.67l3.37-.89,.11,.35c-.97,.62-2.92,1.89-4.99,3.1-.16,.27-.38,.49-.57,.59l-1.4-2.11c.84-.54,.97-.76,.97-1.16v-1.27c-1.13,.49-2.38,.89-3.64,1.21l-.24-.41c2.24-.97,4.18-2.35,5.51-3.89h-.73v.08c0,.22-1.19,.78-2.21,.78Zm6.59-11.36v1.43h2l1.32-1.59s1.48,1.11,2.43,1.94c-.08,.3-.32,.43-.7,.43h-5.05v1.84h3.02l1.35-1.67s1.57,1.16,2.54,2.02c-.08,.3-.32,.43-.7,.43h-14.76l-.22-.78h5.97v-1.84h-4.72l-.22-.78h4.94v-2.38l3.56,.32c-.03,.3-.19,.51-.76,.62Zm-4.37,7.21v2.51h6.34v-2.51h-6.34Z"/>
    <path class="cls-1" d="M457.13,56.03c1.7-.84,2.75-1.67,3.27-3.18-2.02-.84-2.89-1.75-2.89-2.92,0-1.3,1-2.32,2.38-2.32,.81,0,1.4,.16,2,.67,.32,.81,.41,1.29,.41,2.13,0,3.29-1.86,5.53-4.8,6.4l-.35-.78Z"/>
    <path class="cls-1" d="M2.81,84.37l3.67,1.32h7.02c-.11-1.81-.16-3.64-.16-5.53l4.1,.4c-.03,.35-.27,.67-.94,.78-.03,1.46,0,2.92,.08,4.35h3.99l1-1.27c-.32,.05-.67,0-1.05-.19-.46-1.16-1.7-2.48-2.73-3.21l.19-.19c4.35-.27,5.26,1.73,4.67,2.86,.62,.49,1.97,1.54,2.89,2.32-.08,.3-.38,.43-.78,.43h-8.15c.22,2.89,.67,5.67,1.57,8.12,.94-1.97,1.59-3.97,2.05-5.91l4.21,1.38c-.11,.35-.35,.54-1.05,.51-.86,2.35-2.08,4.75-3.75,6.96,.76,1.19,1.67,2.24,2.81,3.08,.43,.4,.65,.4,.92-.11,.43-.67,1.19-2.13,1.7-3.29l.3,.05-.65,4.56c.97,1.59,1.11,2.43,.67,2.83-1.24,1.19-3.54,.05-4.8-1.05-1.21-1.08-2.24-2.27-3.1-3.59-2.16,2.13-4.89,3.97-8.37,5.21l-.22-.32c3.16-1.81,5.59-4.27,7.4-6.99-1.62-3.32-2.38-7.21-2.7-11.45H5.99v4.29h3.19l1.51-1.48,2.73,2.24c-.19,.22-.51,.38-1.05,.46-.16,5.8-.51,7.88-1.67,8.83-.73,.57-1.7,.86-2.94,.86,0-.86-.08-1.59-.38-2-.32-.4-.89-.7-1.67-.89v-.38c.62,.08,1.73,.13,2.16,.13,.38,0,.57-.05,.76-.22,.46-.43,.67-2.46,.81-6.8h-3.43c0,4.35-.38,10.31-5.75,14.09l-.24-.24c2.59-4.1,2.81-9.31,2.81-13.87v-7.1Z"/>
    <path class="cls-1" d="M33.48,105.45c-.03-.89-.11-1.62-.43-2.05-.3-.43-.76-.76-1.86-.92v-.38s2,.13,2.46,.13c.38,0,.49-.16,.49-.46v-4.72c-.16,.08-.35,.11-.59,.11-1.24,2.38-2.94,4.18-4.86,5.37l-.32-.24c1.05-1.67,2-4.26,2.51-6.88l3.27,1.05v-3.1h-1.05v.46c0,.24-1.24,.86-2.4,.86h-.4v-8.15l2.94,1.19h4.53l1.38-1.48,2.92,2.16c-.16,.22-.54,.46-1.08,.57v4.72c-.03,.16-1.51,.67-2.43,.67h-.51v-1h-.92v8.5c0,2-.43,3.32-3.62,3.59Zm9.74-20.41c-.08,.3-.38,.43-.76,.43h-13.55l-.22-.78h9.91l1.62-2.21s1.89,1.51,3,2.56Zm-8.29-1c-.27-1.32-1.21-2.83-2.02-3.72l.22-.16c6.91,.46,4.56,5.64,1.81,3.89Zm-1.86,4.43v4.1h4.94v-4.1h-4.94Zm5.83,11.82c.03-1.54-.57-3.29-1.21-4.51l.3-.14c6.07,2.35,3.1,6.83,.92,4.64Zm12.42-14.39c.27,.22,1.89,1.46,2.86,2.38-.05,.3-.35,.43-.73,.43h-3.94v12.58c0,.35,.08,.51,.49,.51h.76c.35,0,.59-.03,.76-.05,.19,0,.3-.05,.46-.32,.24-.46,.67-2.24,1.03-3.83h.3l.11,4.02c.7,.38,.84,.73,.84,1.27,0,1.16-.94,1.75-3.75,1.75h-1.46c-2.11,0-2.43-.65-2.43-2.51v-9.31c-.65,5.21-2.43,9.47-7.42,12.66l-.3-.41c4.02-4.35,4.86-9.72,5.02-16.36h-1.78l-.08-.32-.14-.46h2c.05-2.43,0-5.02,0-7.8l4.13,.38c-.11,.43-.35,.67-1,.78-.03,2.35-.03,4.56-.08,6.64h2.73l1.54-2c-.49,.13-1.08,0-1.62-.49-.05-1.38-.78-2.92-1.43-3.97l.27-.13c4.78,1.21,4.37,4.05,2.89,4.56Z"/>
    <path class="cls-1" d="M67.04,81.54c-.11,.32-.46,.57-1.11,.54-.81,2.02-1.73,3.86-2.78,5.51l1.62,.59c-.11,.24-.35,.41-.86,.49v15.87c-.03,.24-1.32,.92-2.54,.92h-.59v-14.63c-1.19,1.38-2.48,2.56-3.86,3.59l-.32-.22c2.35-3.37,4.72-8.77,5.88-14.09l4.56,1.43Zm7.18-.49c-.05,.32-.3,.65-.97,.76-.03,2.4,.03,4.78,.27,7.04l3.46-.41,1.59-2.51s2.24,1.27,3.64,2.19c-.03,.32-.32,.51-.7,.57l-7.88,.92c.62,4.72,2.16,8.85,5.56,11.28,.43,.4,.65,.4,.92-.05,.46-.73,1.24-2.21,1.75-3.37l.27,.05-.62,4.53c1,1.57,1.13,2.38,.67,2.83-1.16,1.24-3.43,.16-4.78-.89-4.16-3.37-6.05-8.29-6.86-14.04l-5.51,.62-.27-.7,5.7-.67c-.35-2.73-.46-5.64-.46-8.66l4.21,.51Zm3.37,4c-.4-1.35-1.59-2.89-2.56-3.83l.22-.16c7.21,.32,5.18,5.67,2.35,4Z"/>
    <path class="cls-1" d="M95.39,81.54c-.11,.32-.46,.57-1.11,.54-.81,2.02-1.73,3.86-2.78,5.51l1.62,.59c-.11,.24-.35,.41-.86,.49v15.87c-.03,.24-1.32,.92-2.54,.92h-.59v-14.63c-1.19,1.38-2.48,2.56-3.86,3.59l-.32-.22c2.35-3.37,4.72-8.77,5.88-14.09l4.56,1.43Zm7.18-.49c-.05,.32-.3,.65-.97,.76-.03,2.4,.03,4.78,.27,7.04l3.46-.41,1.59-2.51s2.24,1.27,3.64,2.19c-.03,.32-.32,.51-.7,.57l-7.88,.92c.62,4.72,2.16,8.85,5.56,11.28,.43,.4,.65,.4,.92-.05,.46-.73,1.24-2.21,1.75-3.37l.27,.05-.62,4.53c1,1.57,1.13,2.38,.67,2.83-1.16,1.24-3.43,.16-4.78-.89-4.16-3.37-6.05-8.29-6.86-14.04l-5.51,.62-.27-.7,5.7-.67c-.35-2.73-.46-5.64-.46-8.66l4.21,.51Zm3.37,4c-.4-1.35-1.59-2.89-2.56-3.83l.22-.16c7.21,.32,5.18,5.67,2.35,4Z"/>
    <path class="cls-1" d="M115.53,90.53c-.16-1.38-1.03-2.92-1.92-3.86l.24-.16c6.78,.92,4.24,5.94,1.67,4.02Zm.49,6.24q.57-.97,4.89-11.04l.43,.11c-.89,3.05-2.51,8.72-2.81,10.07-.22,.86-.38,1.78-.35,2.46,.05,1.43,1.11,2.43,1,4.83-.05,1.35-.89,2.21-2.13,2.21-.59,0-1.19-.43-1.4-1.4,.51-2.81,.38-5.32-.24-5.75-.35-.27-.78-.38-1.38-.43v-.51h1.21c.38,0,.49,0,.78-.54Zm1.62-12.04c-.3-1.46-1.32-3.05-2.21-4.13l.24-.16c7.1,1.05,4.67,6.18,1.97,4.29Zm3.32,4.05l2.94,1.21h4.05v-2.86h-.97v.94c0,.22-1.24,.67-2.35,.67h-.49v-4.86h-3.46l-.22-.78h3.67v-3l3.81,.32c-.05,.41-.27,.65-.97,.76v1.92h4.7v-3.02l3.86,.35c-.05,.38-.27,.65-1,.76v1.92h.7l1.4-2s1.59,1.38,2.48,2.35c-.08,.3-.35,.43-.73,.43h-3.86v3.94c0,.19-1.24,.65-2.35,.65h-.51v-1.35h-.97v2.86h4.24l1.27-1.48,2.83,2.16c-.14,.19-.49,.38-.97,.49v10.82c0,2.02-.4,3.16-3.59,3.46-.05-.92-.16-1.65-.49-2.08-.35-.46-.86-.76-1.94-.97v-.38s2.16,.13,2.62,.13c.4,0,.51-.16,.51-.51v-2.92c-.24,.46-.4,1.03-.46,1.54-.78-.73-1.46-2.21-1.73-3.54-.43,1.16-1.27,2.38-2.29,3.19v4.59c0,.16-.86,.76-2.27,.76h-.49v-6.53c-.24,.43-.41,1.03-.49,1.54-.7-.7-1.24-2.11-1.46-3.4-.4,1.27-1.27,2.54-2.29,3.29v4.37c0,.32-1.13,.97-2.32,.97h-.43v-16.71Zm4.83,3.27l1.57,1.19c-.19,.24-.62,.43-1.21,.51v.35c.22,1.49,.81,2.54,1.81,3.32v-6.67h-4.24v8.83c.84-1.32,1.59-3.54,1.78-5.48v-.38h-1.32l-.14-.76h1.13l.62-.92Zm5.88-5.7v-2.46h-4.7v2.46h4.7Zm1.05,5.67l1.65,1.21c-.19,.24-.65,.43-1.27,.51v.3c.27,1.43,1.03,2.48,2.08,3.29v-6.59h-4.48v8.31c.78-1.35,1.51-3.35,1.75-5.02v-.32h-1.48l-.13-.76h1.3l.59-.94Z"/>
    <path class="cls-1" d="M144.8,104.05c-.94,.49-2.13,.24-2.46-.73-.24-.92,.32-1.65,1.16-2,1.08-.49,2.32-1.78,2.38-3.35h.38c1.08,3.21-.05,5.4-1.46,6.07Zm20.68-20.73c-.08,.3-.38,.43-.76,.43h-6.21l3.21,.89c-.11,.32-.46,.54-1.03,.51-.84,.67-2.08,1.57-3.24,2.27h4.97l1.67-2.08s1.89,1.4,3.08,2.4c-.08,.3-.38,.43-.78,.43h-23.75l-.24-.76h8.42c-.27-.05-.57-.19-.84-.41-.05-1.08-.7-2.35-1.3-3.08l.22-.13c4.97,.32,4.37,3.24,2.67,3.62h5.05c.35-1.08,.73-2.56,.97-3.67h-13.17l-.22-.76h9.64c-.43-1.11-1.43-2.21-2.32-2.83l.19-.22c4.72-.49,5.32,2.02,4.26,3.05h4.75l1.67-2.08s1.89,1.4,3.08,2.4Zm-18.57,14.71h-.46v-9.45l3.27,1.29h9.74l1.43-1.59,3.08,2.29c-.19,.22-.57,.46-1.11,.59v5.7c-.03,.22-1.57,.86-2.59,.86h-.54v-1h-10.2v.35c0,.27-1.35,.95-2.62,.95Zm4.56,.92v2.86c0,.32,.08,.43,1.11,.43h3.32c1.19,0,2.27,0,2.7-.03,.43-.03,.59-.11,.78-.38,.3-.4,.67-1.38,1.19-2.75h.3l.08,2.83c.86,.3,1.11,.65,1.11,1.16,0,1.27-1.21,1.73-6.48,1.73h-3.48c-2.94,0-3.56-.46-3.56-2.43v-4.4l3.75,.32c-.05,.35-.3,.59-.81,.65Zm-1.94-8.31v2.29h10.2v-2.29h-10.2Zm10.2,5.34v-2.29h-10.2v2.29h10.2Zm-4.64,5.1c-.19-1.35-1.13-2.83-2.05-3.7l.24-.16c6.51,.73,4.29,5.59,1.81,3.86Zm9.07,2.13c-.19-1.75-1.38-3.78-2.62-5.05l.24-.19c7.5,1.7,5.1,7.31,2.38,5.24Z"/>
    <path class="cls-1" d="M178.55,81.92c-.7,.97-1.78,2.35-2.65,3.4h2.35l1.46-1.59,2.92,2.29c-.19,.24-.57,.43-1.11,.57v16.09c-.03,.22-1.46,.86-2.51,.86h-.49v-2.11h-4.1v1.97c0,.35-1.11,1.05-2.4,1.05h-.49v-20.41l3,1.27h.16c.22-1.43,.46-3.59,.57-5.1l4.4,1.05c-.14,.46-.49,.65-1.11,.65Zm-4.13,4.18v6.69h4.1v-6.69h-4.1Zm0,14.58h4.1v-7.1h-4.1v7.1Zm14.01-18.71c-.46,1.16-.94,2.24-1.48,3.27h4.26l1.7-1.75,2.86,2.54c-.22,.24-.54,.43-1.19,.51-.19,10.88-.57,15.82-2.05,17.44-.94,1-2.13,1.43-3.91,1.43,0-1.03-.14-1.78-.59-2.24-.49-.49-1.54-.92-2.83-1.19l.03-.38c1.27,.11,3.16,.24,3.83,.24,.49,0,.73-.08,1-.35,1-.92,1.27-6.29,1.46-15.47h-4.99c-1.32,2.29-2.86,4.21-4.59,5.7l-.32-.22c1.46-2.81,2.94-7.18,3.64-11.31l4.24,1.24c-.11,.32-.43,.57-1.05,.54Zm-2.48,14.52c-.14-1.92-1.19-4.1-2.29-5.59l.24-.16c7.85,2.29,4.91,8.15,2.05,5.75Z"/>
    <path class="cls-1" d="M224.2,103.19c-.08,.3-.4,.43-.78,.43h-24.56l-.22-.78h13.66c1.38-4.32,2.78-10.31,3.51-14.44l4.67,1.19c-.11,.35-.43,.62-1.08,.62-1.32,3.46-3.75,8.64-6.29,12.63h5.61l1.92-2.46s2.21,1.67,3.56,2.81Zm-.97-16.6c-.08,.3-.35,.43-.76,.43h-22.54l-.22-.78h18.17l1.92-2.4s2.13,1.62,3.43,2.75Zm-17.03,14.2c-.11-3.86-1.54-8.39-2.89-11.98l.38-.11c8.48,7.15,5.99,15.47,2.51,12.09Zm4.29-15.39c-.3-1.78-1.43-3.78-2.48-5.13l.24-.16c8.07,1.54,5.32,7.53,2.24,5.29Z"/>
    <path class="cls-1" d="M252.36,86.13c-.08,.3-.38,.43-.76,.43h-13.04c-.11,1.59-.24,3.16-.49,4.64h6.45l1.7-1.67,2.89,2.48c-.22,.22-.57,.41-1.16,.49-.38,6.8-1.08,10.5-2.62,11.77-.94,.78-2.05,1.13-3.81,1.13,.03-.95-.11-1.73-.57-2.16-.49-.49-1.57-.92-2.83-1.16l.03-.35c1.27,.08,3.29,.24,3.91,.24,.49,0,.73-.08,1-.3,.84-.7,1.4-4.26,1.73-9.72h-6.86c-1.11,5.88-3.72,10.72-10.45,13.6l-.19-.24c6.18-4.75,7.53-11.36,7.67-18.76h-7.61l-.22-.78h20l1.84-2.35s2.11,1.59,3.37,2.7Zm-13.04-1.08c-.35-1.73-1.57-3.62-2.73-4.83l.24-.16c8.18,.95,5.61,7.1,2.48,4.99Z"/>
    <path class="cls-1" d="M264.73,82.43c-.11,.32-.43,.57-1.08,.54-.51,1.38-1.11,2.65-1.75,3.83h4.35v-6.53l4.45,.43c-.05,.38-.24,.65-.97,.76v5.34h4.24l1.89-2.32s2.05,1.48,3.4,2.65c-.08,.3-.38,.43-.78,.43h-8.75v6.91h3.37l1.89-2.38s2.16,1.62,3.46,2.7c-.05,.3-.35,.43-.76,.43h-7.96v8.12h5.53l1.97-2.46s2.19,1.65,3.54,2.78c-.08,.3-.38,.43-.78,.43h-24.35l-.22-.76h10.82v-8.12h-7.4l-.22-.76h7.61v-6.91h-4.78c-1.65,2.78-3.67,4.97-5.99,6.59l-.32-.22c2.08-3.1,4.1-7.99,5.02-12.85l4.56,1.35Z"/>
    <path class="cls-1" d="M286.23,90.61c-.38-1.4-1.57-2.94-2.62-3.89l.22-.19c7.31,.32,5.24,5.83,2.4,4.08Zm-.14,6.37q.65-1,5.8-11.26l.43,.13c-1.13,3.1-3.1,8.85-3.48,10.23-.24,.86-.46,1.81-.43,2.51,.03,1.4,1.13,2.32,1.05,4.67-.05,1.38-.97,2.24-2.32,2.24-.62,0-1.27-.4-1.48-1.38,.49-2.81,.38-5.24-.27-5.67-.38-.27-.84-.41-1.4-.46v-.49h1.24c.43,0,.54,0,.86-.54Zm2.4-12.07c-.46-1.46-1.75-3.1-2.86-4.1l.22-.19c7.56,.32,5.64,5.94,2.65,4.29Zm4.32,8.8l3.27,1.3h2.24v-5.21h-6.8l-.22-.75h7.02v-4.59c-2.19,.19-4.45,.35-6.56,.4l-.08-.38c4.59-.92,10.39-2.73,13.33-4.13l3.16,3.02c-.32,.24-.94,.27-1.78-.03-1.35,.27-3.02,.51-4.83,.73v4.97h3l1.7-2.32s1.94,1.57,3.08,2.65c-.08,.3-.38,.43-.76,.43h-7.02v5.21h2.24l1.51-1.62,3.05,2.32c-.19,.22-.54,.49-1.11,.59v8.04c-.03,.22-1.57,.89-2.62,.89h-.54v-2.21h-8.18v1.38c0,.3-1.35,.97-2.65,.97h-.46v-11.66Zm11.28,2.05h-8.18v6.5h8.18v-6.5Z"/>
    <path class="cls-1" d="M318.06,88.99c2.11,0,3.81,1.7,3.81,3.81s-1.7,3.83-3.81,3.83-3.83-1.73-3.83-3.83,1.73-3.81,3.83-3.81Zm0,6.67c1.57,0,2.83-1.29,2.83-2.86s-1.27-2.83-2.83-2.83-2.86,1.27-2.86,2.83,1.27,2.86,2.86,2.86Z"/>
  </g>
</svg>