<?xml version="1.0" encoding="UTF-8"?>
<svg id="_圖層_2" data-name="圖層 2" xmlns="http://www.w3.org/2000/svg" xmlns:xlink="http://www.w3.org/1999/xlink" viewBox="0 0 575.05 52.22">
  <defs>
    <style>
      .cls-1 {
        fill: #fff;
      }

      .cls-2 {
        filter: url(#drop-shadow-1);
      }
    </style>
    <filter id="drop-shadow-1" filterUnits="userSpaceOnUse">
      <feOffset dx="0" dy="0"/>
      <feGaussianBlur result="blur" stdDeviation="4.03"/>
      <feFlood flood-color="#231815" flood-opacity=".95"/>
      <feComposite in2="blur" operator="in"/>
      <feComposite in="SourceGraphic"/>
    </filter>
  </defs>
  <g id="_圖層_1-2" data-name="圖層 1">
    <g class="cls-2">
      <path class="cls-1" d="M43.79,42.01s5.02,3.78,8.05,6.32c-.16,.59-.76,.86-1.62,.86H1.03l-.43-1.51H21.71V31.16H7.61l-.43-1.51h14.53V15.77H13.5c-3.51,5.83-7.83,10.26-12.96,13.55l-.54-.38C3.83,22.52,7.56,12.47,9.02,2.7l10.91,3.13c-.22,.7-.92,1.19-2.21,1.19-1.03,2.59-2.11,5.02-3.35,7.24h7.34V1.19l10.64,.97c-.11,.81-.49,1.35-2,1.57V14.26h6.59l4.27-5.24s4.7,3.35,7.72,5.89c-.16,.59-.76,.86-1.62,.86H30.35v13.88h4.97l4.32-5.4s4.91,3.62,7.88,6.05c-.16,.59-.76,.86-1.57,.86h-15.61v16.52h8.96l4.48-5.67Z"/>
      <path class="cls-1" d="M58.75,13.72c16.25,.27,10.96,12.91,4.32,8.75-.65-3.08-2.75-6.37-4.7-8.42l.38-.32Zm44.93,.16s4.32,3.56,6.8,5.94c-.11,.59-.76,.86-1.51,.86h-13.55v10.26h2.86l3.51-3.78,7.02,5.35c-.38,.43-1.03,.97-2.16,1.19v15.88c-.05,.49-3.78,2.05-6.43,2.05h-1.35v-4.64h-14.42v2.59c0,.7-3.35,2.38-6.59,2.38h-1.08V27.86l7.99,3.08h2.65v-10.26h-13.01l-.38-1.35c-1.84,5.45-3.67,11.34-4.21,13.28-.49,1.78-.97,3.83-.92,5.24,.11,3.08,2.7,4.59,2.54,9.45-.11,2.92-2.38,4.86-5.51,4.86-1.4,0-3.02-.7-3.62-2.81,1.13-5.67,.92-10.91-.38-11.77-.81-.54-1.78-.86-2.92-.97v-.92h2.54c.92,0,1.19,0,1.89-1.08q1.46-2.05,12.1-22.09l.76,.22c-.65,1.78-1.4,4.05-2.21,6.43h13.34V10.31c-4.27,.32-8.69,.54-12.74,.59l-.11-.7c8.96-2.11,20.52-6.05,26.35-8.96l7.4,7.13c-.7,.54-2.05,.59-3.94-.11-2.54,.43-5.62,.86-8.96,1.3v9.61h4.43l3.83-5.29ZM62.8,1.89c16.85,.05,12.04,12.96,5.08,9.07-.97-3.13-3.4-6.59-5.45-8.75l.38-.32Zm21.65,30.56v13.01h14.42v-13.01h-14.42Z"/>
      <path class="cls-1" d="M139.43,24.46c-1.62,1.4-3.67,3.08-6.37,5.02v19.98c0,.76-3.13,2.54-5.83,2.54h-1.4v-17.55c-.92,.59-1.84,1.19-2.81,1.84-.22,.7-.76,1.3-1.4,1.51l-4.81-8.1c1.89-.38,5.13-1.19,9.02-2.16v-11.12h-2.54c-1.35,4.43-3.13,8.48-5.4,11.56l-.81-.38c1.03-5.89,1.51-14.09,1.4-21.11l7.34,1.19V.97l9.23,.92c-.11,.76-.49,1.3-2,1.51V12.96l1.78-3.08s3.4,3.46,5.08,5.67c-.11,.59-.65,.86-1.4,.86h-5.45v9.29c2.05-.59,4.16-1.13,6.26-1.73l.11,.49Zm-13.61-9.56v-5.83c-.22,.05-.49,.11-.81,.16-.38,1.94-.81,3.83-1.3,5.67h2.11Zm36.4,9.67s3.94,3.19,6.26,5.35c-.11,.59-.7,.86-1.46,.86h-8.26v13.18c0,4.97-1.3,7.56-9.99,8.26-.22-2.27-.54-3.83-1.67-4.91-1.13-1.08-2.43-1.84-5.89-2.43v-.65s7.45,.43,8.8,.43c.86,0,1.13-.27,1.13-.97v-12.91h-15.34l-.43-1.51h15.77v-6.86l9.45,.81c-.11,.81-.65,1.24-1.84,1.4v4.59l3.46-4.64Zm-25.54-13.88h10.15V.76l9.29,.76c-.05,.7-.43,1.19-1.73,1.4v7.78h2.86l3.73-4.91s4.27,3.29,6.8,5.56c-.16,.59-.76,.86-1.57,.86h-11.83v8.26h1.89l3.56-4.7s4.05,3.19,6.48,5.35c-.11,.59-.7,.86-1.51,.86h-25.92l-.43-1.51h8.37V12.2h-9.72l-.43-1.51Zm1.73,20.74c16.63,2.65,10.75,15.07,4.21,10.42-.7-3.56-2.81-7.4-4.64-10.15l.43-.27Z"/>
      <path class="cls-1" d="M220.64,43.58c3.62,.59,4.48,1.73,4.48,2.92,0,3.46-3.78,4.1-22.25,4.1h-11.23c-9.45,0-13.93-.86-13.93-7.67V6.37h-1.78l-.43-1.51h37.75l3.62-4.86s4.05,3.29,6.48,5.51c-.16,.59-.76,.86-1.51,.86h-36.94V41.9c0,2.43,1.62,3.08,5.94,3.08h12.58c3.73,0,7.4-.11,9.07-.22,1.08-.05,2.65-.27,3.62-.38,.92-.11,2.27-.43,3.67-.92h.54l.32,.11Zm-24.35-.97v-2.7h-2.75v2.21c0,.54-2.75,1.89-5.35,1.89h-.86V25.27l6.37,2.54h2.11l2.81-2.92,5.72,4.27c-.27,.32-.86,.76-1.73,.92v11.02c-.05,.38-3.19,1.51-5.24,1.51h-1.08Zm11.88-21.11h-8.96v1.4c0,.65-3.29,2.21-6.26,2.21h-1.03V7.78l7.56,2.86h8.15l3.24-3.46,6.64,4.97c-.32,.38-.92,.81-1.94,1.03v9.29c-.05,.38-3.78,1.62-6.1,1.62h-1.3v-2.59Zm-11.88,16.9v-9.07h-2.75v9.07h2.75Zm11.88-18.41v-7.83h-8.96v7.83h8.96Zm6.16,22.41v-2.48h-2.97v1.3c0,.59-2.81,1.94-5.4,1.94h-.92V25.27l6.53,2.54h2.27l2.86-2.97,5.83,4.37c-.27,.32-.86,.7-1.73,.86v10.75c-.05,.38-3.29,1.57-5.35,1.57h-1.13Zm0-4v-9.07h-2.97v9.07h2.97Z"/>
      <path class="cls-1" d="M251.26,29.54h15.71v3.94h-15.71v-3.94Z"/>
      <path class="cls-1" d="M297.65,36.18c2.43,5.67,2.38,9.99,.7,12.26-1.24,1.62-4.54,1.4-5.62-.81-.92-1.94,.05-3.83,1.73-4.97,1.13-1.19,2.86-4.1,2.48-6.48h.7Zm40.18-20.47s3.73,3.35,5.78,5.56c-.16,.59-.7,.86-1.51,.86h-12.26v21.76c0,4.32-.97,7.02-7.99,7.56-.05-2-.22-3.46-.81-4.37-.54-.92-1.35-1.62-3.56-2v-.7s3.62,.22,4.54,.22c.76,0,.92-.32,.92-.86V22.14h-11.02l-.43-1.51h14.53l1.35-3.83h-6.8l-2.54,2.86-5.29-3.35c-.32,.32-1.03,.59-1.94,.38-2.86,3.78-8.37,8.96-13.23,12.37,2.48-.11,5.72-.27,9.13-.54-.16-1.84-.54-3.62-.97-5.08l.59-.22c12.2,5.78,4.91,15.12,.32,9.88,.11-.81,.16-1.62,.16-2.48-2.81,1.4-6.53,3.13-10.64,4.81-.38,.43-.86,.7-1.3,.86l-2.32-7.29s1.4-.27,1.94-.7c2.05-1.57,4.54-4.86,6.7-8.32-1.24,.59-2.54,1.19-3.89,1.78-.43,.7-.92,1.13-1.51,1.4l-3.02-7.18s1.19-.32,1.73-.7c2.27-2.38,5.29-10.15,6.05-14.31l8.32,4c-.22,.49-.76,.86-1.78,.81-2.32,3.29-6.32,7.61-9.83,10.37,1.78,0,3.89,0,6.1-.05,.92-1.78,1.67-3.51,2.16-4.91l6.26,4.21c.49-.38,1.24-.81,1.94-1.13,1.78-3.89,4.21-10.37,4.97-13.18l8.96,1.46c-.16,.7-.76,1.4-2.27,1.4l-1.08,2.81h6.05l2.92-3.19,6.32,5.08c-.43,.49-.97,.65-2.11,.76l-3.94,11.23h1.08l3.24-4.91Zm-37.1,19.93c9.77,6.8,3.29,14.96-.49,10.15,.59-3.29,.38-7.13-.16-9.99l.65-.16Zm21.71-1.08c-1.19,2.11-3.19,5.51-6.21,9.83-.05,.76-.49,1.46-1.13,1.73l-3.51-5.18c.38,3.19-2.65,5.24-5.08,2.7,.32-3.02-.54-6.59-1.62-8.96l.59-.27c2.75,1.3,4.43,2.86,5.35,4.32,2.32-.81,6.97-2.7,11.45-4.59l.16,.43Zm-8.53-10.15c13.39,2.32,7.02,12.42,1.89,7.88,.11-2.7-.97-5.72-2.38-7.61l.49-.27Zm13.99-9.13l2.48-7.02h-6.7c-.97,2.43-2.05,5.02-2.92,7.02h7.13Zm3.24,19.66c17.55,.92,11.83,14.85,5.45,9.94-1.19-2.86-3.29-6.8-5.78-9.56l.32-.38Zm-.05-1.89c1.51-2.81,3.62-7.72,4.64-10.26l7.56,5.35c-.27,.43-.81,.65-2.05,.38-2.16,1.46-6.91,3.62-9.72,5.02l-.43-.49Z"/>
      <path class="cls-1" d="M402.46,17.06c-3.51,1.03-5.78,4.81-6.32,7.99-7.61-4.16-14.53-10.1-17.5-19.33-3.35,5.29-9.07,10.53-15.55,14.8h15.44l3.62-4.59s4.05,3.08,6.53,5.24c-.16,.59-.76,.86-1.51,.86h-7.94v7.72h8.05l3.89-5.13s4.48,3.46,7.13,5.78c-.16,.59-.76,.86-1.57,.86h-17.5v17.28h9.56l4.32-5.62s4.91,3.73,7.83,6.26c-.16,.59-.81,.86-1.62,.86h-47.57l-.43-1.51h19.76V31.27h-16.58l-.43-1.51h17.01v-7.72h-7.88l-.38-1.35c-4.1,2.7-8.48,4.97-12.69,6.53l-.32-.54c9.23-6.37,18.9-18.14,20.9-26.03l11.72,3.08c-.22,.81-.97,1.13-2.97,1.35,4.97,6.64,15.44,9.5,23.06,11.12l-.05,.86Zm-42.98,16.2c15.93,5.51,7.34,17.71,1.19,11.29,.27-3.89-.54-7.83-1.67-11.07l.49-.22Zm21.92,13.01c.92-3.24,2.21-8.69,3.19-13.39l10.04,3.56c-.22,.7-.97,1.13-2.21,1.08-3.19,3.46-7.02,6.86-10.42,9.13l-.59-.38Z"/>
      <path class="cls-1" d="M451.55,42.01s5.02,3.78,8.05,6.32c-.16,.59-.76,.86-1.62,.86h-49.19l-.43-1.51h21.11V31.16h-14.09l-.43-1.51h14.53V15.77h-8.21c-3.51,5.83-7.83,10.26-12.96,13.55l-.54-.38c3.83-6.43,7.56-16.47,9.02-26.24l10.91,3.13c-.22,.7-.92,1.19-2.21,1.19-1.03,2.59-2.11,5.02-3.35,7.24h7.34V1.19l10.64,.97c-.11,.81-.49,1.35-2,1.57V14.26h6.59l4.27-5.24s4.7,3.35,7.72,5.89c-.16,.59-.76,.86-1.62,.86h-16.96v13.88h4.97l4.32-5.4s4.91,3.62,7.88,6.05c-.16,.59-.76,.86-1.57,.86h-15.61v16.52h8.96l4.48-5.67Z"/>
      <path class="cls-1" d="M466.5,13.72c16.25,.27,10.96,12.91,4.32,8.75-.65-3.08-2.75-6.37-4.7-8.42l.38-.32Zm44.93,.16s4.32,3.56,6.8,5.94c-.11,.59-.76,.86-1.51,.86h-13.55v10.26h2.86l3.51-3.78,7.02,5.35c-.38,.43-1.03,.97-2.16,1.19v15.88c-.05,.49-3.78,2.05-6.43,2.05h-1.35v-4.64h-14.42v2.59c0,.7-3.35,2.38-6.59,2.38h-1.08V27.86l7.99,3.08h2.65v-10.26h-13.01l-.38-1.35c-1.84,5.45-3.67,11.34-4.21,13.28-.49,1.78-.97,3.83-.92,5.24,.11,3.08,2.7,4.59,2.54,9.45-.11,2.92-2.38,4.86-5.51,4.86-1.4,0-3.02-.7-3.62-2.81,1.13-5.67,.92-10.91-.38-11.77-.81-.54-1.78-.86-2.92-.97v-.92h2.54c.92,0,1.19,0,1.89-1.08q1.46-2.05,12.1-22.09l.76,.22c-.65,1.78-1.4,4.05-2.21,6.43h13.34V10.31c-4.27,.32-8.69,.54-12.74,.59l-.11-.7c8.96-2.11,20.52-6.05,26.35-8.96l7.4,7.13c-.7,.54-2.05,.59-3.94-.11-2.54,.43-5.62,.86-8.96,1.3v9.61h4.43l3.83-5.29ZM470.55,1.89c16.85,.05,12.04,12.96,5.08,9.07-.97-3.13-3.4-6.59-5.45-8.75l.38-.32Zm21.65,30.56v13.01h14.42v-13.01h-14.42Z"/>
      <path class="cls-1" d="M575.05,6.75c-.38,.49-1.03,.92-2.16,1.19V49.36c-.05,.54-3.67,2.38-6.59,2.38h-1.24v-4.43h-30.62v1.84c0,.97-3.08,2.86-6.37,2.86h-1.3V1.89l8.32,3.29h29.43l3.62-4,6.91,5.56Zm-40.61,25.81c3.13-2.38,5.45-5.24,7.24-8.32h-6.8l-.43-1.51h8.05c.7-1.4,1.3-2.81,1.78-4.27h-8.21l-.43-1.51h9.13c1.03-3.35,1.51-6.7,1.73-9.88l8.69,1.51c-.16,.81-.76,1.3-2.05,1.35-.49,2.38-1.13,4.7-2.05,7.02h4.64l2.92-3.35s3.35,2.27,5.45,4c-.16,.59-.7,.86-1.46,.86h-12.2c-.7,1.46-1.51,2.92-2.43,4.27h9.83l2.81-3.24s2.43,1.73,4.43,3.29V6.7h-30.62v25.87Zm30.62,13.23V24.14c-.22,.05-.43,.11-.7,.11h-6.21c9.45,2.7,7.24,9.94,2.65,7.99-1.46-2.59-4.7-5.89-7.29-7.99h-6.64c-.81,1.03-1.73,2-2.7,2.97l3.13,1.19h4.1l2.59-2.48,4.97,3.89c-.38,.43-.97,.65-1.89,.81-.05,4.21-.38,5.78-1.94,6.75-1.13,.7-2.43,.92-4.54,.92,0-1.3-.05-2.27-.59-2.92-.43-.59-1.03-.97-2.05-1.24v-.76c.76,.05,2,.11,2.7,.11,.54,0,.76-.05,.92-.27,.22-.22,.32-1.19,.38-3.29h-5.35v8.37c0,.65,.22,.86,1.62,.86h4.21c1.46,0,2.86,0,3.51-.05,.59-.05,.97-.16,1.3-.54,.54-.59,1.3-2.16,2.11-4.27h.59l.16,4.37c1.62,.65,2.05,1.24,2.05,2.27,0,2.43-2.32,3.19-10.42,3.19h-4.97c-5.18,0-6.16-1.08-6.16-4.81v-9.23c-1.78,1.19-3.78,2.32-6.05,3.29l-.11-.16v12.58h30.62Zm-27.49-37.42c11.56,2.32,5.78,10.69,1.35,6.8,.11-2.32-.81-4.91-1.89-6.53l.54-.27Zm15.88,7.13c.59-1.73,1.3-4.54,1.94-7.18l6.86,2.59c-.27,.65-.92,1.08-2.05,1.03-1.89,1.46-4.1,3.02-5.99,4l-.76-.43Z"/>
    </g>
  </g>
</svg>