<?xml version="1.0" encoding="utf-8"?>
<!-- Generator: Adobe Illustrator 27.0.0, SVG Export Plug-In . SVG Version: 6.00 Build 0)  -->
<svg version="1.1" id="圖層_1" xmlns="http://www.w3.org/2000/svg" xmlns:xlink="http://www.w3.org/1999/xlink" x="0px" y="0px"
	 viewBox="0 0 1340.2 91.4" style="enable-background:new 0 0 1340.2 91.4;" xml:space="preserve">
<style type="text/css">
	.st0{fill:#FFFFFF;}
</style>
<g>
	<g id="_圖層_2">
		<g id="_圖層_1-2">
			<g>
				<g>
					<g>
						<path class="st0" d="M61.3,65.5c0,0,5.6,4.2,9,7.1c-0.2,0.7-0.8,1-1.8,1H13.4l-0.5-1.7h23.6V53.4H20.8l-0.5-1.7h16.3V36.1
							h-9.2c-3.9,6.5-8.8,11.5-14.5,15.2l-0.6-0.4c4.3-7.2,8.5-18.4,10.1-29.4L34.6,25c-0.2,0.8-1,1.3-2.5,1.3
							c-1.1,2.9-2.4,5.6-3.8,8.1h8.2V19.8l11.9,1.1c-0.1,0.9-0.5,1.5-2.2,1.8v11.8h7.4l4.8-5.9c0,0,5.3,3.8,8.7,6.6
							c-0.2,0.7-0.8,1-1.8,1h-19v15.5h5.6l4.8-6c0,0,5.5,4,8.8,6.8c-0.2,0.7-0.8,1-1.8,1H46.3v18.5h10L61.3,65.5L61.3,65.5z"/>
						<path class="st0" d="M73.5,33.8c18.2,0.3,12.3,14.5,4.8,9.8c-0.7-3.5-3.1-7.1-5.3-9.4L73.5,33.8L73.5,33.8z M123.9,34
							c0,0,4.8,4,7.6,6.7c-0.1,0.7-0.9,1-1.7,1h-15.2v11.5h3.2l3.9-4.2l7.9,6c-0.4,0.5-1.1,1.1-2.4,1.3V74c-0.1,0.5-4.2,2.3-7.2,2.3
							h-1.5v-5.2h-16.2V74c0,0.8-3.8,2.7-7.4,2.7h-1.2v-27l8.9,3.5h3V41.6H91.1l-0.4-1.5c-2.1,6.1-4.1,12.7-4.7,14.9
							c-0.5,2-1.1,4.3-1,5.9c0.1,3.5,3,5.1,2.8,10.6c-0.1,3.3-2.7,5.4-6.2,5.4c-1.6,0-3.4-0.8-4.1-3.1c1.3-6.3,1-12.2-0.4-13.2
							c-0.9-0.6-2-1-3.3-1.1v-1h2.8c1,0,1.3,0,2.1-1.2c1.1-1.5,5.6-9.8,13.6-24.7l0.8,0.2c-0.7,2-1.6,4.5-2.5,7.2h14.9V30
							c-4.8,0.4-9.7,0.6-14.3,0.7l-0.1-0.8c10-2.4,23-6.8,29.5-10l8.3,8c-0.8,0.6-2.3,0.7-4.4-0.1c-2.8,0.5-6.3,1-10,1.5V40h5
							L123.9,34L123.9,34z M78.1,20.6c18.9,0.1,13.5,14.5,5.7,10.2c-1.1-3.5-3.8-7.4-6.1-9.8L78.1,20.6L78.1,20.6z M102.3,54.8v14.6
							h16.2V54.8H102.3z"/>
						<path class="st0" d="M159.4,45.9c-1.8,1.6-4.1,3.5-7.1,5.6v22.4c0,0.8-3.5,2.8-6.5,2.8h-1.6V57c-1,0.7-2.1,1.3-3.1,2.1
							c-0.2,0.8-0.9,1.5-1.6,1.7l-5.4-9.1c2.1-0.4,5.7-1.3,10.1-2.4V36.8h-2.8c-1.5,5-3.5,9.5-6.1,12.9l-0.9-0.4
							c1.1-6.6,1.7-15.8,1.6-23.6l8.2,1.3v-7.5l10.3,1c-0.1,0.9-0.5,1.5-2.2,1.7V33l2-3.5c0,0,3.8,3.9,5.7,6.3c-0.1,0.7-0.7,1-1.6,1
							h-6.1v10.4c2.3-0.7,4.7-1.3,7-1.9L159.4,45.9L159.4,45.9z M144.1,35.2v-6.5c-0.2,0.1-0.5,0.1-0.9,0.2
							c-0.4,2.2-0.9,4.3-1.4,6.4H144.1z M184.9,46c0,0,4.4,3.6,7,6c-0.1,0.7-0.8,1-1.6,1H181v14.8c0,5.6-1.4,8.5-11.2,9.2
							c-0.2-2.5-0.6-4.3-1.9-5.5s-2.7-2.1-6.6-2.7V68c0,0,8.3,0.5,9.9,0.5c1,0,1.3-0.3,1.3-1.1V52.9h-17.2l-0.5-1.7h17.7v-7.7
							l10.6,0.9c-0.1,0.9-0.7,1.4-2.1,1.6v5.1C181,51.2,184.9,46,184.9,46z M156.3,30.4h11.4V19.3l10.4,0.9
							c-0.1,0.8-0.5,1.3-1.9,1.6v8.7h3.2l4.2-5.5c0,0,4.8,3.7,7.6,6.2c-0.2,0.7-0.9,1-1.8,1h-13.2v9.2h2.1l4-5.3c0,0,4.5,3.6,7.3,6
							c-0.1,0.7-0.8,1-1.7,1h-29l-0.5-1.7h9.4v-9.2h-10.9L156.3,30.4L156.3,30.4z M158.2,53.7c18.6,3,12,16.9,4.7,11.7
							c-0.8-4-3.1-8.3-5.2-11.4L158.2,53.7z"/>
						<path class="st0" d="M245.8,67.3c4.1,0.7,5,1.9,5,3.3c0,3.9-4.2,4.6-24.9,4.6h-12.6c-10.6,0-15.6-1-15.6-8.6V25.6h-2l-0.5-1.7
							h42.3l4.1-5.4c0,0,4.5,3.7,7.3,6.2c-0.2,0.7-0.9,1-1.7,1h-41.4v39.8c0,2.7,1.8,3.4,6.6,3.4h14.1c4.2,0,8.3-0.1,10.2-0.2
							c1.2-0.1,3-0.3,4.1-0.4c1-0.1,2.5-0.5,4.1-1h0.6L245.8,67.3L245.8,67.3z M218.5,66.2v-3h-3.1v2.5c0,0.6-3.1,2.1-6,2.1h-1v-21
							l7.1,2.8h2.4l3.1-3.3l6.4,4.8c-0.3,0.4-1,0.8-1.9,1v12.3c-0.1,0.4-3.6,1.7-5.9,1.7L218.5,66.2L218.5,66.2z M231.8,42.5h-10
							v1.6c0,0.7-3.7,2.5-7,2.5h-1.1V27.2l8.5,3.2h9.1l3.6-3.9l7.4,5.6c-0.4,0.4-1,0.9-2.2,1.2v10.4c-0.1,0.4-4.2,1.8-6.8,1.8h-1.4
							L231.8,42.5L231.8,42.5z M218.5,61.5V51.3h-3.1v10.2H218.5z M231.8,40.8v-8.8h-10v8.8H231.8z M238.7,65.9v-2.8h-3.3v1.4
							c0,0.7-3.1,2.2-6.1,2.2h-1v-20l7.3,2.8h2.5l3.2-3.3l6.5,4.9c-0.3,0.4-1,0.8-1.9,1v12c-0.1,0.4-3.7,1.8-6,1.8L238.7,65.9
							L238.7,65.9z M238.7,61.5V51.3h-3.3v10.2H238.7z"/>
						<path class="st0" d="M271,51.5h17.6V56H271V51.5z"/>
						<path class="st0" d="M313.9,59c2.7,6.4,2.7,11.2,0.8,13.7c-1.4,1.8-5.1,1.6-6.3-0.9c-1-2.2,0.1-4.3,1.9-5.6
							c1.3-1.3,3.2-4.6,2.8-7.3L313.9,59L313.9,59z M358.9,36.1c0,0,4.2,3.8,6.5,6.2c-0.2,0.7-0.8,1-1.7,1h-13.7v24.4
							c0,4.8-1.1,7.9-9,8.5c-0.1-2.2-0.2-3.9-0.9-4.9c-0.6-1-1.5-1.8-4-2.2v-0.8c0,0,4,0.2,5.1,0.2c0.9,0,1-0.4,1-1V43.3h-12.3
							l-0.5-1.7h16.3l1.5-4.3h-7.6l-2.8,3.2l-5.9-3.8c-0.4,0.4-1.1,0.7-2.2,0.4c-3.2,4.2-9.4,10-14.8,13.9c2.8-0.1,6.4-0.3,10.2-0.6
							c-0.2-2.1-0.6-4-1.1-5.7l0.7-0.2c13.7,6.5,5.5,16.9,0.4,11.1c0.1-0.9,0.2-1.8,0.2-2.8c-3.1,1.6-7.3,3.5-11.9,5.4
							c-0.4,0.5-1,0.8-1.5,1l-2.6-8.2c0,0,1.6-0.3,2.2-0.8c2.3-1.8,5.1-5.4,7.5-9.3c-1.4,0.7-2.8,1.3-4.4,2c-0.5,0.8-1,1.3-1.7,1.6
							l-3.4-8c0,0,1.3-0.4,1.9-0.8c2.5-2.7,5.9-11.4,6.8-16l9.3,4.5c-0.2,0.5-0.9,1-2,0.9c-2.6,3.7-7.1,8.5-11,11.6
							c2,0,4.4,0,6.8-0.1c1-2,1.9-3.9,2.4-5.5l7,4.7c0.5-0.4,1.4-0.9,2.2-1.3c2-4.4,4.7-11.6,5.6-14.8l10,1.6
							c-0.2,0.8-0.9,1.6-2.5,1.6l-1.2,3.1h6.8l3.3-3.6l7.1,5.7c-0.5,0.5-1.1,0.7-2.4,0.9L354,41.6h1.2L358.9,36.1L358.9,36.1z
							 M317.3,58.4c11,7.6,3.7,16.8-0.5,11.4c0.7-3.7,0.4-8-0.2-11.2L317.3,58.4L317.3,58.4z M341.6,57.2c-1.3,2.4-3.6,6.2-7,11
							c-0.1,0.8-0.5,1.6-1.3,1.9l-3.9-5.8c0.4,3.6-3,5.9-5.7,3c0.4-3.4-0.6-7.4-1.8-10l0.7-0.3c3.1,1.5,5,3.2,6,4.8
							c2.6-0.9,7.8-3,12.8-5.1L341.6,57.2L341.6,57.2z M332.1,45.8c15,2.6,7.9,13.9,2.1,8.8c0.1-3-1.1-6.4-2.7-8.5L332.1,45.8z
							 M347.7,35.6l2.8-7.9H343c-1.1,2.7-2.3,5.6-3.3,7.9H347.7L347.7,35.6z M351.4,57.6c19.6,1,13.2,16.6,6.1,11.1
							c-1.3-3.2-3.7-7.6-6.5-10.7L351.4,57.6L351.4,57.6z M351.3,55.5c1.7-3.1,4-8.6,5.2-11.5l8.5,6c-0.3,0.5-0.9,0.7-2.3,0.4
							c-2.4,1.6-7.7,4-10.9,5.6L351.3,55.5L351.3,55.5z"/>
						<path class="st0" d="M426.7,37.6c-3.9,1.2-6.5,5.4-7.1,9c-8.5-4.7-16.3-11.3-19.6-21.6c-3.8,5.9-10.2,11.8-17.4,16.6h17.3
							l4-5.1c0,0,4.5,3.5,7.3,5.9c-0.2,0.7-0.9,1-1.7,1h-8.9v8.6h9l4.4-5.7c0,0,5,3.9,8,6.5c-0.2,0.7-0.9,1-1.8,1h-19.6v19.3h10.7
							l4.8-6.3c0,0,5.5,4.2,8.8,7c-0.2,0.7-0.9,1-1.8,1h-53.3l-0.5-1.7h22.1V53.5H373l-0.5-1.7h19v-8.6h-8.8l-0.4-1.5
							c-4.6,3-9.5,5.6-14.2,7.3l-0.4-0.6c10.3-7.1,21.2-20.3,23.4-29.1l13.1,3.5c-0.2,0.9-1.1,1.3-3.3,1.5
							c5.6,7.4,17.3,10.6,25.8,12.5L426.7,37.6L426.7,37.6z M378.6,55.7c17.8,6.2,8.2,19.8,1.3,12.6c0.3-4.3-0.6-8.8-1.9-12.4
							L378.6,55.7L378.6,55.7z M403.1,70.3c1-3.6,2.5-9.7,3.6-15l11.2,4c-0.2,0.8-1.1,1.3-2.5,1.2c-3.6,3.9-7.9,7.7-11.7,10.2
							L403.1,70.3L403.1,70.3z"/>
						<path class="st0" d="M477.1,65.5c0,0,5.6,4.2,9,7.1c-0.2,0.7-0.9,1-1.8,1h-55.1l-0.5-1.7h23.6V53.4h-15.8l-0.5-1.7h16.3V36.1
							h-9.2c-3.9,6.5-8.8,11.5-14.5,15.2l-0.6-0.4c4.3-7.2,8.5-18.4,10.1-29.4l12.2,3.5c-0.2,0.8-1,1.3-2.5,1.3
							c-1.1,2.9-2.4,5.6-3.8,8.1h8.2V19.8l11.9,1.1c-0.1,0.9-0.5,1.5-2.2,1.8v11.8h7.4l4.8-5.9c0,0,5.3,3.8,8.6,6.6
							c-0.2,0.7-0.9,1-1.8,1h-19v15.5h5.6l4.8-6c0,0,5.5,4,8.8,6.8c-0.2,0.7-0.9,1-1.8,1h-17.5v18.5h10L477.1,65.5L477.1,65.5z"/>
						<path class="st0" d="M489.4,33.8c18.2,0.3,12.3,14.5,4.8,9.8c-0.7-3.5-3.1-7.1-5.3-9.4L489.4,33.8L489.4,33.8z M539.7,34
							c0,0,4.8,4,7.6,6.7c-0.1,0.7-0.8,1-1.7,1h-15.2v11.5h3.2l3.9-4.2l7.9,6c-0.4,0.5-1.2,1.1-2.4,1.3V74c-0.1,0.5-4.2,2.3-7.2,2.3
							h-1.5v-5.2h-16.2V74c0,0.8-3.8,2.7-7.4,2.7h-1.2v-27l8.9,3.5h3V41.6h-14.6l-0.4-1.5c-2.1,6.1-4.1,12.7-4.7,14.9
							c-0.5,2-1.1,4.3-1,5.9c0.1,3.5,3,5.1,2.8,10.6c-0.1,3.3-2.7,5.4-6.2,5.4c-1.6,0-3.4-0.8-4-3.1c1.3-6.3,1-12.2-0.4-13.2
							c-0.9-0.6-2-1-3.3-1.1v-1h2.8c1,0,1.3,0,2.1-1.2c1.1-1.5,5.6-9.8,13.5-24.7l0.9,0.2c-0.7,2-1.6,4.5-2.5,7.2h14.9V30
							c-4.8,0.4-9.7,0.6-14.3,0.7l-0.1-0.8c10-2.4,23-6.8,29.5-10l8.3,8c-0.8,0.6-2.3,0.7-4.4-0.1c-2.8,0.5-6.3,1-10,1.5V40h5
							L539.7,34L539.7,34z M493.9,20.6c18.9,0.1,13.5,14.5,5.7,10.2c-1.1-3.5-3.8-7.4-6.1-9.8L493.9,20.6L493.9,20.6z M518.2,54.8
							v14.6h16.2V54.8H518.2z"/>
						<path class="st0" d="M606.4,26c-0.4,0.5-1.2,1-2.4,1.3v46.4c-0.1,0.6-4.1,2.7-7.4,2.7h-1.4v-5h-34.3v2.1
							c0,1.1-3.5,3.2-7.1,3.2h-1.5V20.6l9.3,3.7h33l4-4.5L606.4,26L606.4,26z M560.9,54.9c3.5-2.7,6.1-5.9,8.1-9.3h-7.6l-0.5-1.7h9
							c0.8-1.6,1.5-3.1,2-4.8h-9.2l-0.5-1.7h10.2c1.2-3.8,1.7-7.5,1.9-11.1l9.7,1.7c-0.2,0.9-0.8,1.5-2.3,1.5
							c-0.5,2.7-1.3,5.3-2.3,7.9h5.2l3.3-3.8c0,0,3.8,2.5,6.1,4.5c-0.2,0.7-0.8,1-1.6,1h-13.7c-0.8,1.6-1.7,3.3-2.7,4.8h11l3.1-3.6
							c0,0,2.7,1.9,5,3.7V26h-34.3L560.9,54.9L560.9,54.9z M595.2,69.8V45.5c-0.2,0.1-0.5,0.1-0.8,0.1h-7c10.6,3,8.1,11.1,3,9
							c-1.6-2.9-5.3-6.6-8.2-9h-7.4c-0.9,1.2-1.9,2.2-3,3.3l3.5,1.3h4.6l2.9-2.8l5.6,4.3c-0.4,0.5-1.1,0.7-2.1,0.9
							c-0.1,4.7-0.4,6.5-2.2,7.6c-1.3,0.8-2.7,1-5.1,1c0-1.5-0.1-2.5-0.7-3.3c-0.5-0.7-1.2-1.1-2.3-1.4v-0.8c0.8,0.1,2.2,0.1,3,0.1
							c0.6,0,0.8-0.1,1-0.3c0.2-0.2,0.4-1.3,0.4-3.7h-6v9.4c0,0.7,0.2,1,1.8,1h4.7c1.6,0,3.2,0,3.9-0.1c0.7-0.1,1.1-0.2,1.5-0.6
							c0.6-0.7,1.5-2.4,2.4-4.8h0.7l0.2,4.9c1.8,0.7,2.3,1.4,2.3,2.5c0,2.7-2.6,3.6-11.7,3.6h-5.6c-5.8,0-6.9-1.2-6.9-5.4V52.2
							c-2,1.3-4.2,2.6-6.8,3.7l-0.1-0.2v14.1H595.2z M564.4,27.9c12.9,2.6,6.5,12,1.5,7.6c0.1-2.6-0.9-5.5-2.1-7.3L564.4,27.9
							L564.4,27.9z M582.2,35.8c0.7-1.9,1.5-5.1,2.2-8l7.7,2.9c-0.3,0.7-1,1.2-2.3,1.1c-2.1,1.6-4.6,3.4-6.7,4.5L582.2,35.8z"/>
					</g>
				</g>
				<g>
					<g>
						<path class="st0" d="M664.8,38.7h-9.7V12.4h9.7v0.5c-4.5,2-7.4,6.4-7.4,12.6s3,10.6,7.4,12.7V38.7L664.8,38.7z"/>
						<path class="st0" d="M689.3,13c0,0,1.8,1.4,3,2.3c-0.1,0.3-0.4,0.4-0.8,0.4h-10.8c-0.8,1.7-1.8,3.7-2.7,5h7.9l1.2-1.4l2.5,2
							c-0.2,0.2-0.6,0.5-1.2,0.6v15.6c0,0.2-1.2,0.7-2,0.7h-0.4v-2.2h-12.8v1.5c0,0.3-0.9,0.8-1.9,0.8h-0.4V19.7l2.5,1.1h3.6
							c0.2-1.3,0.5-3.4,0.7-5h-10.3l-0.2-0.8h20.3L689.3,13L689.3,13z M673.4,21.6v6.1h12.8v-6.1H673.4z M686.2,35.3v-6.8h-12.8v6.8
							H686.2z"/>
						<path class="st0" d="M717.8,33.8c0,0,1.9,1.4,3.1,2.5c-0.1,0.3-0.3,0.5-0.7,0.5h-24.6l-0.2-0.8h3.5V15.7h-3l-0.2-0.8h19.7
							l1.6-2c0,0,1.8,1.4,3,2.4c-0.1,0.3-0.4,0.4-0.8,0.4h-18v5.2h11.9l1.3-1.4l2.8,2.1c-0.2,0.3-0.8,0.5-1.4,0.7v8.9
							c0,0.2-1.2,0.6-2,0.6h-0.4v-2.6H701v6.6h15.1L717.8,33.8L717.8,33.8z M701,21.8v6.7h12.2v-6.7H701z"/>
						<path class="st0" d="M732,26.5c-0.2,0.2-0.5,0.3-1.1,0.3c-0.5,2-1.6,4.3-3.2,6c0.1,0.1,0.2,0.1,0.3,0.2
							c2.4,2.3,5.7,2.6,11.6,2.6c3.4,0,6.2,0,9.7-0.2v0.4c-1,0.2-1.5,0.9-1.7,1.8h-8.7c-6,0-8.7-0.8-11.2-3.8
							c-0.4-0.4-0.7-0.4-0.9,0c-0.5,0.8-1.3,2.4-1.9,3.6c0.1,0.2,0.1,0.4-0.1,0.6l-1.8-2.2c1.2-0.9,3-2.7,3.8-3.1
							c1-1.8,1.8-4.1,2-6.1h-2.5l-0.8,0.7l-1.8-1.5c0.3-0.2,0.7-0.3,1.1-0.5c0.9-1.4,2.1-3.4,2.8-4.9h-4.1l-0.2-0.8h4.4l1-1.1
							l2.2,1.9c2-2,3.8-5.2,4.6-8l3.3,0.7c-0.1,0.3-0.3,0.4-1,0.4c-0.3,0.6-0.7,1.2-1,1.8h4.1l1.3-1.3l2.3,2.1
							c-0.2,0.2-0.6,0.2-1.1,0.3c-0.8,0.9-1.9,2-3,2.9h3.4l1.1-1.2l2.4,1.8c-0.2,0.2-0.6,0.5-1.2,0.6v5.5c0,0.2-1.1,0.6-1.8,0.6
							h-0.3v-0.9h-2.2v6c0,0.4,0.1,0.4,0.7,0.4h1.6c0.7,0,1.3,0,1.5,0c0.2,0,0.3-0.1,0.5-0.3c0.2-0.4,0.5-1.8,0.8-3.2h0.4l0.1,3.3
							c0.6,0.2,0.7,0.5,0.7,0.9c0,0.8-0.8,1.2-4,1.2h-2c-1.9,0-2.2-0.5-2.2-1.8v-6.4h-0.1c-1.2,3.9-3.7,6.7-8.5,8.6l-0.2-0.4
							c3.8-2.2,5.8-4.8,6.7-8.2h-2.9v0.6c0,0.2-0.9,0.6-1.8,0.6h-0.3v-7.1c-0.6,0.5-1.3,1-2,1.4l-0.3-0.3l0.1-0.1
							c-0.3,0.1-0.7,0.2-1.1,0.2c-0.7,1.3-2,3.4-2.9,4.8h2l1.2-1.2L732,26.5L732,26.5z M724.8,12.8c6,1.7,4.2,6,2.1,4.5
							c-0.2-1.5-1.3-3.2-2.3-4.3C724.5,13,724.8,12.8,724.8,12.8z M736.2,16.2c-0.7,0.9-1.5,1.8-2.3,2.6l1.2,0.5h4.5
							c0.5-0.9,1-2.2,1.3-3.2H736.2L736.2,16.2z M737.9,24.9c0.3-1.4,0.5-3,0.5-4.7h-3.6v4.7H737.9L737.9,24.9z M740.7,20.2
							c-0.1,1.7-0.3,3.3-0.7,4.7h4.1v-4.7H740.7z M742.2,26.7c4.9,1.6,3.4,5,1.7,3.8c-0.2-1.2-1.2-2.7-2-3.6L742.2,26.7L742.2,26.7z
							"/>
						<path class="st0" d="M761.4,25.4l2.5,1.9c-0.2,0.2-0.6,0.5-1.2,0.6v9.3c0,0.2-1.1,0.7-1.9,0.7h-0.3v-2.1H755v1.9
							c0,0.2-0.9,0.7-1.8,0.7h-0.3V25.7l2.3,1h5L761.4,25.4L761.4,25.4z M760.5,34.9v-7.5H755v7.5H760.5z M759.6,24
							c0,0.2-1,0.7-1.9,0.7h-0.3V13.2l2.4,1h9.2l1.2-1.3l2.5,2c-0.2,0.2-0.6,0.4-1.2,0.6v8.4c0,0.2-1.1,0.7-1.9,0.7h-0.4v-2.1h-9.6
							L759.6,24L759.6,24z M759.6,15.1v6.5h9.6v-6.5C769.2,15.1,759.6,15.1,759.6,15.1z M777.2,27.3c-0.2,0.2-0.6,0.5-1.2,0.6v9.5
							c0,0.2-1.2,0.6-1.9,0.6h-0.4v-2.3h-5.7v1.9c0,0.2-0.9,0.7-1.9,0.7h-0.3V25.7l2.3,1h5.2l1.2-1.3L777.2,27.3L777.2,27.3z
							 M773.8,34.9v-7.5h-5.7v7.5H773.8z"/>
						<path class="st0" d="M786.7,25.5c0-6.3-3-10.6-7.4-12.6v-0.5h9.7v26.2h-9.7v-0.5C783.7,36.1,786.7,31.8,786.7,25.5L786.7,25.5
							z"/>
						<path class="st0" d="M800.1,23.6v14.2c0,0.2-0.9,0.7-1.6,0.7h-0.4V26.2c-0.1,0-0.2,0-0.4,0c-1.1,2.5-2.5,5.6-3.8,7.7l-0.5-0.2
							c0.7-2.3,1.7-6,2.4-9l2.2,0.8v-1.9h-4.2l-0.2-0.9h4.4V12.5l3,0.3c-0.1,0.4-0.3,0.7-1,0.8v9.1h0.9l1.2-1.5c0,0,1.4,1.1,2.2,2
							c-0.1,0.3-0.3,0.5-0.7,0.5L800.1,23.6L800.1,23.6z M794.4,14.8c4.9,4.1,3,8.1,1.3,6.3c-0.1-2-1-4.5-1.7-6.2L794.4,14.8
							L794.4,14.8z M800.8,25.1c5.3,4.1,3.4,8.3,1.5,6.5c-0.1-2-1.1-4.6-1.9-6.3L800.8,25.1z M800.6,21.2c0.5-1.7,1.2-4.4,1.7-6.7
							l2.8,0.9c-0.1,0.3-0.5,0.6-1,0.5c-0.9,1.8-2,4-3,5.4L800.6,21.2z M816,24.1l2.5,1.9c-0.2,0.2-0.7,0.5-1.2,0.6v9
							c0,1.6-0.3,2.6-3,2.8c-0.1-0.7-0.2-1.2-0.6-1.5c-0.3-0.3-0.9-0.6-2-0.7v-0.5c0,0,2.4,0.2,2.9,0.2c0.4,0,0.6-0.1,0.6-0.5v-2.6
							H808c-0.3,2.2-1.2,4.5-4.3,6l-0.3-0.3c2.3-2.2,2.6-5,2.6-7.9v-6.2l2.5,1h6.4L816,24.1L816,24.1z M817.4,20.9
							c0,0,1.5,1.2,2.4,2.1c-0.1,0.3-0.3,0.5-0.8,0.5h-14.3l-0.2-0.9h5.9v-2.6h-4.1l-0.2-0.8h4.3v-2.5h-5.2l-0.2-0.8h5.5v-3.4
							l3.1,0.3c-0.1,0.4-0.3,0.6-0.9,0.7v2.3h2.7l1.3-1.7c0,0,1.5,1.2,2.4,2c-0.1,0.3-0.3,0.5-0.7,0.5h-5.7v2.5h2.2l1.2-1.5
							c0,0,1.4,1.1,2.3,1.9c-0.1,0.3-0.3,0.5-0.7,0.5h-4.9v2.6h3.5L817.4,20.9L817.4,20.9z M815.3,31.9v-2.4h-7.1v1
							c0,0.4,0,0.9,0,1.4L815.3,31.9L815.3,31.9z M808.2,26.2v2.5h7.1v-2.5H808.2z"/>
						<path class="st0" d="M831.5,23.9c-1,0.6-2.2,1.4-3.6,2.3v9.2c0,1.7-0.3,2.8-3.1,3c-0.1-0.7-0.2-1.3-0.6-1.7
							c-0.4-0.4-1-0.7-2.2-0.8v-0.5c0,0,2.5,0.2,3,0.2c0.5,0,0.6-0.1,0.6-0.6v-7.7c-0.7,0.5-1.5,0.9-2.3,1.4
							c-0.1,0.3-0.3,0.6-0.6,0.8l-1.1-2.7c0.8-0.2,2.3-0.7,4-1.4v-5.9h-3.6l-0.2-0.8h3.9v-6.4l3.2,0.3c-0.1,0.4-0.4,0.7-1,0.8v5.3
							h0.3l1.2-1.6c0,0,1.3,1.1,2,2c-0.1,0.3-0.3,0.5-0.7,0.5h-2.8v5.1c1.1-0.4,2.3-0.9,3.5-1.3L831.5,23.9L831.5,23.9z M835.1,12.7
							l3,0.3c-0.1,0.4-0.3,0.7-1,0.8v12.4c0,5.9-2.1,9.9-8.5,12.4l-0.3-0.4c5-2.6,6.7-6.3,6.8-11.7c-0.8,1-1.9,2.3-3.2,3.8
							c0,0.3-0.2,0.7-0.4,0.9l-1.8-2.3c0.9-0.5,3.2-1.8,5.4-3.2L835.1,12.7L835.1,12.7z M831.4,17.3c5.2,3.3,3.4,7.3,1.6,5.6
							c-0.1-1.8-1.1-4-1.9-5.5L831.4,17.3L831.4,17.3z M847.3,35.6c0.7,0.3,0.8,0.5,0.8,0.9c0,0.9-0.9,1.2-4.2,1.2h-1.9
							c-2,0-2.4-0.6-2.4-2.2v-23l3.1,0.3c-0.1,0.4-0.3,0.7-1,0.8v8.4c1.2-1.8,2.6-4.1,3.2-5.3l2.7,1.8c-0.1,0.2-0.5,0.5-1.1,0.2
							c-1,1.1-2.9,2.9-4.8,4.3v1.6c6.8,2.6,5.2,7,3,5.5c-0.4-1.5-1.8-3.4-3-4.7V35c0,0.6,0.1,0.8,0.9,0.8h1.5c0.7,0,1.2,0,1.5,0
							c0.2,0,0.3-0.1,0.5-0.2c0.2-0.3,0.5-1.9,0.8-3.1h0.3L847.3,35.6L847.3,35.6z"/>
						<path class="st0" d="M855.9,30.5c1.3-0.4,2.6-0.8,4-1.2l0.1,0.4c-1.7,1.1-4.3,2.6-7.8,4.5c-0.1,0.4-0.3,0.7-0.6,0.8l-1.5-2.8
							c0.8-0.2,2.2-0.5,3.7-1v-9.8h-3.4l-0.2-0.8h3.6v-7.4l3.2,0.3c-0.1,0.4-0.3,0.7-1,0.8v6.3h1.1l1.2-1.8c0,0,1.4,1.3,2.2,2.1
							c-0.1,0.3-0.3,0.5-0.7,0.5h-3.8L855.9,30.5L855.9,30.5z M875.2,35.2c0.8,0.2,1.1,0.5,1.1,0.9c0,1.1-1.3,1.4-7.4,1.4h-4.2
							c-2.9,0-3.9-0.5-3.9-2.6V24.1l-2.6,1.1l-0.6-0.7l3.2-1.4v-6.8l3.1,0.3c0,0.4-0.3,0.7-1,0.8v4.8l3.4-1.5v-8.4l3.1,0.4
							c-0.1,0.4-0.3,0.7-1,0.8v6.3l3.7-1.6l0.1,0l1.2-1.2l2.2,2.3c-0.2,0.2-0.5,0.3-1.1,0.3c-0.6,3.4-1.8,8.3-3.4,11.6l-0.4-0.2
							c0.7-3.5,1.3-8.4,1.5-11.9l-3.8,1.6v11.4c0,0.2-0.9,0.7-1.7,0.7h-0.4V21.7l-3.4,1.5v11.3c0,0.8,0.3,1.1,2,1.1h4.1
							c1.8,0,3.2,0,3.8-0.1c0.4,0,0.6-0.2,0.8-0.4c0.2-0.5,0.7-2,1.1-4h0.4L875.2,35.2L875.2,35.2z"/>
						<path class="st0" d="M890.2,29.7c-1.8,0.8-4.1,1.8-7.1,3.1v5.1c0,0.2-0.6,0.7-1.9,0.7h-0.3v-5l-1,0.4
							c-0.1,0.3-0.4,0.6-0.6,0.7l-1.4-2.7c0.7-0.1,1.7-0.3,3-0.6V14.4l2.4,1.1c1.4-0.9,3-1.9,4.2-2.9l2.7,2c-0.2,0.2-0.5,0.3-1,0.1
							c-1.8,0.6-4.2,1.3-6.2,1.8v3.9h2.7l1.3-1.7c0,0,1.5,1.2,2.4,2c-0.1,0.3-0.3,0.5-0.8,0.5h-5.7v4.4h2.8l1.3-1.7
							c0,0,1.5,1.2,2.4,2.1c-0.1,0.3-0.3,0.5-0.7,0.5h-5.8v4.4c2.1-0.5,4.5-1,7.1-1.6L890.2,29.7L890.2,29.7z M902.8,25.9
							c-0.2,0.2-0.5,0.3-1.2,0.4c-1,2.5-2.4,4.6-4.3,6.5c2.1,1.6,4.6,2.8,7.5,3.5l-0.1,0.3c-0.9,0.1-1.7,0.8-2,1.9
							c-2.8-1.1-5-2.5-6.8-4.5c-2.5,2-5.7,3.6-9.7,4.5l-0.2-0.4c3.7-1.3,6.7-3.1,8.9-5.4c-1.3-1.9-2.3-4.1-2.9-6.8h-1.9l-0.2-0.9
							h9.3l1.4-1.3L902.8,25.9L902.8,25.9z M889,24.3c2.5-2.2,2.9-4.8,2.9-7.3v-3.6l2.5,1h3.6l1.2-1.2l2.3,1.9
							c-0.2,0.2-0.6,0.3-1.1,0.4v5c0,0.3,0.1,0.4,0.5,0.4h1.5c0.1,0,0.3,0,0.4,0c0.1,0,0.4-0.1,0.5-0.1h0.2l0.1,0.1
							c0.6,0.2,0.8,0.4,0.8,0.9c0,0.9-0.7,1.2-3.1,1.2H900c-1.6,0-1.8-0.5-1.8-1.8v-5.9h-4.2V17c0,2.3-0.5,5.6-4.7,7.6L889,24.3
							L889,24.3z M892.6,26c0.7,2.2,1.9,4.1,3.4,5.6c1.4-1.7,2.5-3.6,3.2-5.6H892.6z"/>
						<path class="st0" d="M910.3,28.2c1.5-1,2.3-2.1,2.7-3.5c-1.4-0.7-2.2-1.4-2.2-2.4c0-0.9,0.6-1.7,1.8-1.7s2,0.9,2,2.6
							c0,2-0.9,4.6-3.8,6L910.3,28.2L910.3,28.2z"/>
						<path class="st0" d="M931,35.9c0,1.5-0.3,2.3-2.7,2.5c0-0.5-0.2-1-0.5-1.3s-0.8-0.5-1.8-0.6v-0.5c0,0,2.1,0.2,2.5,0.2
							c0.5,0,0.6-0.2,0.6-0.5V25.7c-1.4,0.3-2.9,0.6-4.6,1c-0.1,4.1-0.5,8.7-3.4,11.9l-0.5-0.3c1.7-3.2,1.9-7.2,2-11.3l-0.8,0.1
							c-0.1,0.3-0.5,0.6-0.7,0.6l-0.6-2.3c0.6,0,1.3-0.1,2.1-0.1v-9.9l2.2,1h0.4c0.2-1.1,0.4-2.8,0.6-3.9l3.2,0.6
							c-0.1,0.4-0.4,0.6-1,0.6c-0.5,0.8-1.2,1.9-1.8,2.7h2.7l1-1.2L932,17c-0.2,0.2-0.6,0.4-1.1,0.5v6.9l1.9-0.2l0.1,0.5
							c-0.6,0.2-1.2,0.3-1.9,0.5L931,35.9L931,35.9z M924.4,25.2c1.4-0.1,3-0.3,4.6-0.5v-7.4h-4.6V25.2L924.4,25.2z M925.4,18.4
							c4.2,3.3,2,6.7,0.9,5.1c-0.1-1.2-0.4-3.4-1.3-4.9L925.4,18.4z M925.7,27c4.1,3.8,1.8,7.1,0.8,5.6c-0.1-1.3-0.3-3.7-1.2-5.4
							L925.7,27L925.7,27z M946,35.6c0.6,0.2,0.7,0.5,0.7,0.8c0,0.8-0.8,1.2-3,1.2h-1.2c-1.6,0-1.8-0.6-1.8-1.8v-13h-4.5v4.6
							c0,3.7-0.5,8.2-5.1,11.1l-0.3-0.3c3-3.1,3.4-7,3.4-10.8v-6.5l2.4,1h3.8l1.1-1.2l2.3,2c-0.2,0.2-0.5,0.4-1.1,0.4v12.1
							c0,0.4,0.1,0.5,0.4,0.5h1.3c0.1,0,0.2-0.1,0.3-0.3c0.2-0.4,0.5-2.4,0.8-4h0.4L946,35.6L946,35.6z M931.9,18.1h10.7l1.5-2
							c0,0,1.6,1.4,2.6,2.3c-0.1,0.3-0.3,0.5-0.7,0.5h-13.8L931.9,18.1L931.9,18.1z M935.9,12.6c6.4,1.9,4.6,6.5,2.4,4.9
							c-0.2-1.6-1.5-3.5-2.7-4.7C935.6,12.8,935.9,12.6,935.9,12.6z"/>
						<path class="st0" d="M974.9,17.7c-0.2,0.2-0.5,0.3-1.1,0.3c-0.8,1-2.2,2.4-3.4,3.2l-0.3-0.2c0.3-0.9,0.7-2.3,1-3.4h-5v4.1
							c0,0.7,0,0.7,0.9,0.7h4.8c0.2,0,0.4,0,0.8-0.1h0.2l0.2,0c0.8,0.2,0.9,0.4,0.9,0.8c0,0.9-0.5,1.2-3,1.2h-4.1
							c-2.6,0-2.9-0.2-2.9-2.6v-4.1h-10.7c0.2,2-0.6,3.4-1.5,3.9c-0.8,0.6-1.9,0.5-2.2-0.3c-0.3-0.7,0.2-1.4,0.8-1.7
							c1.1-0.7,2.1-2.4,1.8-4.4l0.5,0c0.2,0.6,0.4,1.1,0.5,1.6H971l1.4-1.4L974.9,17.7L974.9,17.7z M961.2,19.3
							c-0.1,0.3-0.4,0.5-1.2,0.5c-1.8,3-4.5,5.2-9.7,6.1l-0.2-0.4c4.7-1.8,7-4.5,8.1-7.7L961.2,19.3z M971.2,34.5
							c0,0,1.7,1.3,2.7,2.3c-0.1,0.3-0.4,0.5-0.8,0.5h-22.7l-0.2-0.8h10.4v-8.7h-7l-0.2-0.8H967l1.4-1.8c0,0,1.6,1.2,2.6,2.1
							c-0.1,0.3-0.4,0.5-0.7,0.5H963v8.7h6.8L971.2,34.5L971.2,34.5z M959.8,12.2c6.1,1.4,3.6,5.9,1.4,4c-0.1-1.3-0.9-2.9-1.7-3.9
							C959.6,12.4,959.8,12.2,959.8,12.2z"/>
						<path class="st0" d="M1002.8,35.9c0.7,1.4,0.8,2,0.5,2.3c-0.9,0.8-2.7-0.4-3.6-1.5c-1-1.2-1.7-2.6-2.4-4
							c-2,2.4-4.5,4.3-7.7,5.8l-0.3-0.5c3.1-1.9,5.5-4.2,7.2-7.1c-1.1-3.4-1.7-7.4-1.9-11.8h-6.3v4.5h2.8l1.1-1.2l2.2,1.8
							c-0.1,0.2-0.5,0.4-1,0.5c-0.1,5.3-0.3,7.8-1.2,8.7c-0.5,0.5-1.2,0.7-2.1,0.7c0-0.5-0.1-1-0.4-1.2c-0.3-0.2-1-0.5-1.8-0.7v-0.4
							c0.7,0.1,2,0.1,2.3,0.1c0.2,0,0.4,0,0.5-0.2c0.4-0.5,0.6-2.8,0.7-7.3h-3.1v0.4c0,4.6-0.7,10.2-6.4,13.9l-0.3-0.3
							c2.9-2.7,4-6.1,4.4-9.5c-1.6,1.1-3.9,2.7-7.1,4.6c-0.1,0.4-0.3,0.7-0.6,0.8l-1.4-2.7c0.7-0.2,2-0.6,3.5-1.1v-8.7h-3l-0.2-0.8
							h3.2v-7.5l3.2,0.3c-0.1,0.4-0.3,0.7-1,0.8v6.3h0.4l1.2-1.8c0,0,1.3,1.2,2.1,2.1v-3.7l2.5,1h5.9c-0.1-1.7-0.1-3.5-0.1-5.3
							l3.2,0.4c0,0.2-0.1,0.3-0.2,0.4c3.8,0.3,4.3,2.3,3.5,3c0.5,0.4,1.5,1.2,2.2,1.8c-0.1,0.3-0.4,0.5-0.7,0.5h-5.8
							c0.1,3.2,0.5,6.4,1.1,9.1c0.9-1.9,1.6-4.1,2.2-6.7l3,1c-0.1,0.3-0.4,0.5-1.1,0.5c-0.9,3-2,5.6-3.3,7.7c0.6,1.5,1.3,2.9,2.3,4
							c0.4,0.5,0.5,0.5,0.8-0.1c0.3-0.7,0.8-2,1.2-3.1l0.4,0.1L1002.8,35.9L1002.8,35.9z M986.1,28.3c0.1-1.2,0.1-2.4,0.1-3.6v-3.5
							c-0.1,0.2-0.3,0.2-0.6,0.2h-3.1v8c1.1-0.4,2.3-0.8,3.5-1.2L986.1,28.3z M997.3,13.9c-0.1,0.1-0.3,0.1-0.5,0.1
							c0,1.4,0,2.8,0,4.2h2.6l1-1.2c-0.2,0-0.5-0.1-0.8-0.2C999.2,15.7,998.2,14.5,997.3,13.9L997.3,13.9L997.3,13.9z"/>
						<path class="st0" d="M1007.8,30.7c0.8,2.8,0.5,5-0.2,6c-0.5,0.7-1.6,0.8-2,0.2c-0.4-0.6-0.1-1.3,0.5-1.8
							c0.7-0.8,1.5-2.7,1.3-4.4L1007.8,30.7L1007.8,30.7z M1005.5,27.2c0,0,0.6-0.1,0.8-0.3c1.3-1.1,2.8-3.1,4.1-5.1
							c-0.9,0.3-2,0.6-3,0.9c-0.2,0.3-0.4,0.5-0.6,0.6l-1.1-2.7c0,0,0.5-0.1,0.7-0.3c1.4-1.6,3.2-5.6,3.8-7.8l2.9,1.4
							c-0.1,0.3-0.5,0.5-1,0.4c-1.1,1.9-3,4.5-4.8,6.3c1,0,2.4,0,3.8,0c0.6-1.1,1.2-2.1,1.5-2.9l2.7,1.8c-0.1,0.2-0.5,0.4-1.1,0.3
							c-1.5,2.2-4.2,5.2-6.7,7.3c1.4-0.1,3.4-0.2,5.5-0.3c-0.2-1.1-0.7-2.2-1.1-3l0.4-0.1c4.7,3.2,2.5,6.9,0.9,5.2
							c0-0.4,0-0.9-0.1-1.3c-1.5,0.5-3.7,1.2-5.9,1.8c-0.2,0.3-0.5,0.5-0.7,0.5L1005.5,27.2L1005.5,27.2z M1009.9,30.2
							c3.4,3.7,1.2,7.1-0.2,5.3c0.3-1.7,0.1-3.8-0.2-5.2L1009.9,30.2L1009.9,30.2z M1012.3,29.7c4.3,2.9,2.3,6.3,0.9,4.7
							c0.1-1.5-0.6-3.4-1.2-4.6L1012.3,29.7L1012.3,29.7z M1021.3,30.5c-0.9,0.9-2.3,2.4-4.2,4.1c0,0.3-0.2,0.7-0.5,0.8l-1.7-2.4
							c1.1-0.4,3.7-1.6,6.2-2.9C1021.1,30.2,1021.3,30.5,1021.3,30.5z M1029.1,20.9c0,0,1.6,1.3,2.4,2.2c-0.1,0.3-0.3,0.5-0.7,0.5
							h-6.9v12c0,1.5-0.3,2.6-2.9,2.8c0-0.6-0.2-1.1-0.5-1.3c-0.4-0.3-1-0.6-2.1-0.7v-0.5c0,0,2.4,0.2,2.9,0.2
							c0.5,0,0.6-0.1,0.6-0.5V23.6h-6.5l-0.2-0.8h8.6l0.8-2.3h-5.7l-1,1l-2.2-1.8c0.3-0.2,0.8-0.4,1.3-0.6c0.9-2,2.1-5,2.5-6.6
							l3,0.6c-0.1,0.3-0.4,0.7-1.1,0.6c-0.2,0.4-0.4,1-0.6,1.5h5.2l1.1-1.1l2.1,1.9c-0.2,0.2-0.4,0.3-1,0.3l-2.1,6.3h1.7
							L1029.1,20.9L1029.1,20.9z M1016.7,24.8c5.5,2,3.6,5.7,1.8,4.2c-0.2-1.3-1.2-3-2.1-4L1016.7,24.8L1016.7,24.8z M1024.9,19.6
							l1.1-3.4h-5.6c-0.5,1.2-1,2.4-1.4,3.4H1024.9z M1030.7,26.2c-0.1,0.2-0.4,0.3-1,0.1c-1.1,0.8-3.1,2.1-4.5,2.9l-0.3-0.3
							c1-1.2,2.5-3.4,3.2-4.5L1030.7,26.2L1030.7,26.2z M1025.4,30.4c7.1,1.3,6.3,6.4,4,5c-0.9-1.4-2.2-3.5-4.2-4.7L1025.4,30.4z"/>
						<path class="st0" d="M1049,13.3c-0.1,0.4-0.4,0.5-1.2,0.6c2.5,3.5,7.4,6.2,12.2,7.9l-0.1,0.5c-1.1,0.2-1.8,1.2-2,2
							c-4.4-2.3-8.6-5.8-10.6-10c-2.7,4.1-8.4,8.6-13.8,11l-0.2-0.4c4.7-2.8,10.4-8.5,11.9-12.5L1049,13.3L1049,13.3z M1056.4,34.8
							c0,0,1.8,1.4,2.9,2.4c-0.1,0.3-0.4,0.4-0.8,0.4h-24.2l-0.2-0.8h11.2v-8.7h-9.6l-0.2-0.9h9.8v-4.4h-5.5l-0.2-0.9h9.8l1.4-1.7
							c0,0,1.6,1.2,2.6,2.1c-0.1,0.3-0.4,0.5-0.8,0.5h-5v4.4h6.2l1.5-1.8c0,0,1.7,1.3,2.7,2.2c-0.1,0.3-0.4,0.5-0.8,0.5h-9.7v8.7
							h7.2L1056.4,34.8L1056.4,34.8z M1038.8,29.3c6.2,3.3,3.8,7.9,1.7,5.9c-0.1-1.9-1.1-4.1-2-5.7L1038.8,29.3L1038.8,29.3z
							 M1049.5,35.7c0.8-1.6,1.9-4.2,2.7-6.5l3.2,1.3c-0.1,0.3-0.5,0.5-1.1,0.5c-1.3,1.8-3,3.8-4.5,5L1049.5,35.7L1049.5,35.7z"/>
						<path class="st0" d="M1084.9,34.4c0,0,1.9,1.4,3,2.4c-0.1,0.3-0.3,0.5-0.7,0.5h-25.1l-0.2-0.8h11.7v-8.3h-8.3l-0.2-0.8h8.5
							v-7.1h-6c-1.6,2.7-3.5,5-5.6,6.6l-0.4-0.2c2.4-3.1,4.7-8,6-13.1l3.4,1.1c-0.1,0.3-0.4,0.6-1.1,0.6c-0.6,1.5-1.2,2.9-1.9,4.2
							h5.5v-6.8l3.4,0.4c-0.1,0.4-0.3,0.7-1,0.8v5.7h5.8l1.6-1.9c0,0,1.7,1.3,2.9,2.3c-0.1,0.3-0.4,0.5-0.8,0.5h-9.5v7.1h4.8l1.6-2
							c0,0,1.8,1.4,2.9,2.3c-0.1,0.3-0.4,0.5-0.7,0.5h-8.6v8.3h7.3L1084.9,34.4L1084.9,34.4z"/>
						<path class="st0" d="M1090.2,19.1c6.5,0.6,5.1,5.1,2.8,3.8c-0.4-1.3-1.9-2.8-3.1-3.6L1090.2,19.1L1090.2,19.1z M1098.6,18.1
							c-1.2,3.4-3.6,9.8-3.9,11.1c-0.2,0.9-0.5,1.8-0.5,2.5c0.1,1.3,1,2.5,0.8,4.8c-0.1,1.2-0.7,2-1.8,2c-0.5,0-1-0.5-1.1-1.4
							c0.4-2.9,0.3-5.2-0.3-5.6c-0.4-0.3-0.8-0.4-1.4-0.4v-0.6h1.3c0.4,0,0.4,0,0.8-0.6c0.4-0.7,2.3-4.7,5.7-12L1098.6,18.1z
							 M1092.2,12.9c6.7,0.7,5.3,5.4,2.9,4.1c-0.5-1.4-1.9-3-3.2-3.9L1092.2,12.9z M1113.5,19.5c0,0,1.7,1.3,2.7,2.3
							c-0.1,0.3-0.4,0.5-0.7,0.5h-7.7v5.5h3.5l1.2-1.3l2.5,2c-0.2,0.2-0.7,0.5-1.2,0.6v8.6c0,0.2-1.1,0.7-1.9,0.7h-0.4v-2.2h-9.9
							v1.5c0,0.2-0.9,0.7-1.9,0.7h-0.3V26.7l2.4,1h3.7v-5.5h-7.5l-0.2-0.9h7.8v-5c-2.3,0.3-4.8,0.5-7.1,0.6l-0.1-0.5
							c4.9-0.8,11-2.4,14.2-3.8l2.5,2.4c-0.3,0.2-0.8,0.2-1.6-0.1c-1.6,0.3-3.4,0.7-5.5,1v5.3h4.3L1113.5,19.5L1113.5,19.5z
							 M1101.7,28.6v6.8h9.9v-6.8H1101.7z"/>
						<path class="st0" d="M1143.8,14.9c-0.2,0.2-0.7,0.4-1.2,0.6v22c0,0.2-1.1,0.8-1.9,0.8h-0.3v-1.9h-18.1v1.2
							c0,0.3-0.8,0.9-1.8,0.9h-0.4V13.1l2.5,1.1h17.6l1.2-1.4L1143.8,14.9L1143.8,14.9z M1140.3,35.6V15.1h-18.1v20.6H1140.3z
							 M1137.8,22.1c0,0,1.3,0.9,2.2,1.7c-0.1,0.3-0.4,0.5-0.7,0.5h-4.3c5.9,2.3,5.2,5.7,3.2,4.8c-0.8-1.4-3-3.5-4.6-4.8h-4.9
							c-0.4,0.5-0.9,1.1-1.4,1.5l1.4,0.6h4.3l1-1l1.9,1.6c-0.2,0.2-0.5,0.3-1,0.4c-0.1,2.2-0.3,3.2-1,3.7c-0.5,0.3-1.2,0.5-2,0.5
							c0-0.4-0.1-0.9-0.4-1.1c-0.2-0.2-0.8-0.4-1.3-0.5v-0.5c0.6,0,1.6,0.1,2,0.1c0.3,0,0.5-0.1,0.6-0.2c0.2-0.2,0.3-0.9,0.4-2.3
							h-4.9v4.9c0,0.4,0.1,0.5,1.1,0.5h2.8c1.2,0,2.2,0,2.6-0.1c0.3,0,0.4-0.1,0.6-0.3c0.2-0.3,0.5-1.4,0.8-2.5h0.4l0.1,2.5
							c0.6,0.2,0.8,0.5,0.8,0.8c0,0.8-0.9,1.1-5.4,1.1h-3.1c-2.3,0-2.7-0.4-2.7-1.8v-5.9c-1.1,1-2.4,1.8-3.9,2.6l-0.3-0.3
							c1.9-1.2,3.5-2.9,4.7-4.7h-4.1l-0.2-0.9h4.8c0.4-0.8,0.9-1.6,1.2-2.4h-4.8l-0.2-0.8h5.3c0.7-1.7,1.1-3.3,1.4-5l3,0.7
							c-0.1,0.4-0.4,0.6-1.1,0.6c-0.3,1.2-0.7,2.5-1.2,3.7h4.3l1.1-1.3c0,0,1.3,0.9,2.2,1.7c-0.1,0.3-0.3,0.5-0.7,0.5h-7.2
							c-0.4,0.8-0.8,1.6-1.4,2.4h7.3L1137.8,22.1L1137.8,22.1z M1124.9,15.9c4.7,1.5,2.9,4.7,1.3,3.4c-0.2-1-1-2.4-1.7-3.2
							L1124.9,15.9L1124.9,15.9z M1133.2,19.6c0.6-0.9,1.3-2.3,1.9-3.7l2.5,1.1c-0.1,0.3-0.5,0.5-1.1,0.4c-0.9,0.9-2,1.8-2.9,2.4
							L1133.2,19.6z"/>
						<path class="st0" d="M1150.2,28.2c1.6-1,2.3-2.1,2.7-3.5c-1.4-0.7-2.2-1.4-2.2-2.4c0-0.9,0.6-1.7,1.8-1.7s1.9,0.9,1.9,2.6
							c0,2-0.9,4.6-3.8,6L1150.2,28.2z"/>
						<path class="st0" d="M1170.2,26.5c-0.2,0.2-0.5,0.3-1.1,0.3c-0.6,2.1-1.8,4.4-3.6,6.1c0.1,0.1,0.2,0.1,0.4,0.2
							c2.4,2.3,5.6,2.7,11.3,2.7c3.3,0,6.1,0,9.5-0.2V36c-1,0.2-1.5,0.9-1.6,1.8h-8.6c-5.8,0-8.5-0.8-11-3.8c-0.4-0.4-0.7-0.4-0.9,0
							c-0.5,0.8-1.5,2.4-2.2,3.6c0.1,0.2,0,0.4-0.2,0.6l-1.8-2.3c1.3-0.9,3.4-2.8,4.2-3.1c1.1-1.7,1.9-4.1,2.2-6.1h-2.9l-0.8,0.7
							l-1.8-1.5c0.3-0.2,0.7-0.3,1.1-0.5c1-1.3,2.2-3.3,3-4.8h-4.4l-0.2-0.9h4.8l1.1-1.1l2.3,2c-0.2,0.3-0.9,0.4-1.6,0.5
							c-0.8,1.3-2.1,3.3-3.1,4.7h2.4l1.3-1.2L1170.2,26.5L1170.2,26.5z M1162.3,12.8c6.4,1.4,4.7,6,2.5,4.5
							c-0.3-1.5-1.6-3.2-2.7-4.3L1162.3,12.8z M1176.1,15.4c-1.8,0.2-3.7,0.3-5.5,0.3l-0.1-0.5c3.9-0.6,8.8-1.8,11.4-2.9l2.2,2.1
							c-0.2,0.2-0.8,0.2-1.5-0.1c-1.2,0.2-2.8,0.5-4.4,0.7v3.1h3.8l1.4-1.7c0,0,1.6,1.2,2.5,2.1c-0.1,0.3-0.3,0.5-0.7,0.5h-7v0.4
							c9.5,1.8,8.4,5.8,6.2,4.9c-1-1-3.4-2.8-6.2-4.3v3.6c0,0.1-0.7,0.5-1.8,0.5h-0.3v-3.5c-1.7,1.8-4,3.2-6.7,4.4l-0.3-0.5
							c2.4-1.4,4.4-3.4,5.7-5.6h-5.5l-0.2-0.8h7L1176.1,15.4L1176.1,15.4z M1177,32.4c1,0.1,2.9,0.2,3.4,0.2c0.5,0,0.7,0,0.9-0.2
							c0.4-0.3,0.8-1.6,1.1-3.4h-2.4l-1,1l-2.1-1.7c0.3-0.2,0.8-0.4,1.2-0.5c0.2-0.6,0.5-1.4,0.8-2h-2.9c-0.7,4.2-2.7,7.1-6.7,8.9
							l-0.2-0.4c3.1-2.2,4.3-4.9,4.6-8.5h-3.2l-0.2-0.8h8.4l1-1.1l2.3,1.8c-0.2,0.2-0.7,0.4-1.2,0.5c-0.2,0.6-0.5,1.4-0.8,2.1h2.1
							l1.1-1.1l2.1,1.8c-0.2,0.2-0.5,0.3-1.1,0.4c-0.3,2.6-1,4.3-2,5c-0.7,0.4-1.6,0.7-2.7,0.7c0-0.5-0.1-1-0.5-1.3
							c-0.4-0.3-1.4-0.5-2.3-0.7L1177,32.4L1177,32.4z"/>
						<path class="st0" d="M1197.2,26.5c-0.2,0.2-0.5,0.3-1.1,0.3c-0.5,2-1.6,4.2-3.1,5.9c0.2,0,0.3,0.1,0.5,0.3
							c2.4,2.3,5.7,2.6,11.6,2.6c3.4,0,6.2,0,9.8-0.2v0.4c-1,0.2-1.5,0.9-1.7,1.8h-8.8c-6,0-8.8-0.8-11.2-3.8
							c-0.4-0.5-0.6-0.4-0.8,0c-0.4,0.9-1.3,2.4-1.8,3.6c0.1,0.2,0.1,0.4-0.1,0.6l-1.8-2.2c1-0.7,2.5-2.2,3.4-2.8
							c1-1.8,1.7-4.2,2-6.3h-1.9l-0.8,0.7l-1.9-1.5c0.2-0.2,0.7-0.3,1-0.5c0.8-1.4,1.8-3.4,2.5-4.9h-3.7l-0.2-0.8h3.9l1-1.1l2.1,1.9
							c-0.2,0.2-0.7,0.4-1.2,0.4c-0.6,1.3-1.7,3.3-2.5,4.8h1.5l1.2-1.2L1197.2,26.5L1197.2,26.5z M1190.6,12.9c5.9,1.8,4,6,1.9,4.5
							c-0.2-1.4-1.3-3.2-2.3-4.3C1190.3,13.1,1190.6,12.9,1190.6,12.9z M1199.8,33.6c0,0.2-0.9,0.7-1.7,0.7h-0.3V21.4l2.2,1h0.2
							v-9.1l2.3,1h6l1.1-1.4l2.6,1.9c-0.2,0.3-0.6,0.4-1.3,0.6v7.1h0.7l0.7-1.1l1.8,2c-0.2,0.2-0.6,0.4-1.1,0.5v8.5
							c0,1.5-0.4,2.3-2.7,2.5c0-0.6-0.1-1-0.4-1.3s-0.8-0.6-1.7-0.7v-0.4c0,0,1.4,0.1,2.2,0.1c0.3,0,0.4-0.1,0.4-0.3v-8.9h-11
							L1199.8,33.6L1199.8,33.6z M1207.1,31.9v-1h-3.6v1c0,0.1-0.8,0.6-1.6,0.6h-0.3v-7.9l1.9,0.9h3.2l0.9-1l2,1.5
							c-0.1,0.2-0.5,0.4-0.9,0.4v4.8c0,0.2-0.9,0.6-1.5,0.6L1207.1,31.9L1207.1,31.9z M1202.2,22.4h2.2v-5.6l2.1,0.9h2.3v-2.6h-6.6
							V22.4L1202.2,22.4z M1207.1,30.1v-3.7h-3.6v3.7H1207.1z M1208.8,22.4v-3.9h-2.7v3.9H1208.8z"/>
						<path class="st0" d="M1222,18.7c-1.5,1.4-3.2,2.6-5,3.6l-0.3-0.3c3.1-2.4,6-6.6,7.2-9.5l3.4,0.9c-0.1,0.3-0.4,0.5-1.1,0.5
							c9,2.2,6.9,6.9,4.9,5.5c-0.7-1.6-2.6-3.7-5.1-5.2c-1,1.4-2.2,3-3.7,4.4h4.6l1.2-1.5c0,0,1.4,1.1,2.3,1.9
							c-0.1,0.3-0.4,0.5-0.8,0.5h-7.3L1222,18.7L1222,18.7z M1230.5,29.4l2.4,1.8c-0.2,0.2-0.6,0.5-1.1,0.5v5.7
							c0,0.1-1.1,0.6-1.8,0.6h-0.3v-1.7h-6.6v1.3c0,0.2-0.7,0.7-1.8,0.7h-0.3v-5.9c-0.7,1.8-1.9,3.6-3.8,5l-0.3-0.3
							c2.8-3.7,3.2-8.2,3.2-12v-4.9l2.5,1h6.8l1.1-1.2l2.5,1.9c-0.2,0.2-0.7,0.5-1.2,0.6v5.9c0,0.2-1.1,0.6-1.8,0.6h-0.3v-0.9h-7.6
							c-0.1,0.5-0.1,1.1-0.2,1.7l1.7,0.7h6L1230.5,29.4L1230.5,29.4z M1229.5,27.4v-2.2h-7.4v0c0,0.7,0,1.4-0.1,2.2H1229.5
							L1229.5,27.4z M1222.1,22.2v2.2h7.4v-2.2H1222.1z M1229.6,35.6v-4.1h-6.6v4.1H1229.6z M1236.7,32c0,0.3-0.9,0.7-1.6,0.7h-0.4
							V15l3,0.3c-0.1,0.4-0.3,0.6-1,0.8L1236.7,32L1236.7,32z M1242.8,13.4c-0.1,0.4-0.3,0.7-1,0.8v21.4c0,1.7-0.3,2.7-3.1,3
							c-0.1-0.7-0.2-1.2-0.6-1.6c-0.4-0.3-1-0.6-2.3-0.8v-0.4c0,0,2.7,0.2,3.2,0.2c0.5,0,0.6-0.2,0.6-0.6V13
							C1239.7,13,1242.8,13.4,1242.8,13.4z"/>
						<path class="st0" d="M1253,27.8v10.1c0,0.1-0.7,0.6-1.8,0.6h-0.4v-8.3c-0.1,0.2-0.4,0.2-0.9,0.2c-0.8,1.9-2.4,4.5-4.4,6.2
							l-0.3-0.3c1.4-2.1,2.4-5.3,2.8-7.5l2.8,1.2v-2.2h-5l-0.2-0.8h5.2v-3.4h-5.4l-0.2-0.8h7.5c0.6-1.6,1.2-3.8,1.6-5.4h-8.5
							l-0.2-0.8h9.2l1.3-1.7c0,0,1.5,1.2,2.4,2c-0.1,0.3-0.3,0.5-0.7,0.5h-3.4l3,1c-0.1,0.3-0.4,0.5-1,0.5c-0.7,1.2-1.8,2.6-2.8,3.9
							h2.2l1.3-1.8c0,0,1.6,1.2,2.5,2.1c-0.1,0.3-0.4,0.5-0.8,0.5h-5.7v3.4h2.3l1.3-1.7c0,0,1.4,1.2,2.3,2c-0.1,0.3-0.4,0.5-0.8,0.5
							L1253,27.8L1253,27.8z M1247.9,17.4c5.1,2.7,3,6.4,1.2,4.7c-0.1-1.4-0.9-3.3-1.6-4.5L1247.9,17.4L1247.9,17.4z M1249.9,12.4
							c5.6,1.4,3.5,5.4,1.6,3.8c-0.2-1.2-1.1-2.7-1.8-3.6L1249.9,12.4L1249.9,12.4z M1253.9,29.1c5.5,2.8,3.4,6.9,1.6,5.2
							c0-1.7-1-3.8-1.9-5.1L1253.9,29.1L1253.9,29.1z M1268.9,20.4c0,0,1.7,1.3,2.7,2.3c-0.1,0.3-0.4,0.5-0.8,0.5h-3v14.7
							c0,0.2-0.7,0.7-1.9,0.7h-0.4V23.2h-3.8v0.9c0,4.9-0.4,10.6-5.7,14.4l-0.4-0.3c3.4-3.9,3.8-9,3.8-14.1v-9.3l2.5,0.9
							c2.3-0.9,4.7-2.2,6.1-3.1l2.6,2.1c-0.2,0.2-0.7,0.3-1.5,0.1c-1.9,0.6-4.8,1.3-7.5,1.7v6h5.6L1268.9,20.4L1268.9,20.4z"/>
						<path class="st0" d="M1281.8,15.3v22.6c0,0.2-0.6,0.7-1.6,0.7h-0.3V32c-1.4,0.7-3.1,1.7-5.3,2.7c-0.1,0.3-0.4,0.6-0.7,0.7
							l-0.8-2.7c0.4-0.1,1.1-0.2,1.9-0.4V15.3h-1.5l-0.2-0.8h7.3l1.3-1.7c0,0,1.6,1.2,2.5,2.1c-0.1,0.3-0.3,0.4-0.7,0.4L1281.8,15.3
							L1281.8,15.3z M1279.9,15.3h-3V20h3V15.3z M1279.9,20.8h-3v5h3V20.8z M1277,32c0.9-0.2,1.9-0.5,3-0.7v-4.6h-3V32z
							 M1298.9,36.2c0.7,1.1,0.8,1.7,0.5,2c-0.8,0.8-2.3-0.1-3.1-1.2c-0.8-0.9-1.4-2-1.9-3.3c-1.4,1.9-3.3,3.5-5.7,4.7l-0.3-0.4
							c2.3-1.5,4.1-3.7,5.4-6c-0.7-2.5-1-5.4-1.2-8.7h-10.1l-0.2-0.8h5.6c0.5-1.4,1-3.4,1.2-4.9l2.9,0.7c-0.1,0.3-0.4,0.6-1,0.6
							c-0.5,1.2-1.4,2.5-2.4,3.7h4c-0.1-3-0.1-6.4-0.1-9.9l3,0.4c0,0.3-0.3,0.6-1,0.8c-0.1,3.1-0.1,6,0,8.8h1.4l1.4-1.7
							c0,0,1.5,1.2,2.5,2.1c-0.1,0.3-0.3,0.5-0.7,0.5h-4.5c0.1,2.2,0.3,4.3,0.7,6.1c0.7-1.8,1.2-3.5,1.5-5.2l2.8,0.7
							c-0.1,0.4-0.3,0.5-1.1,0.5c-0.6,2.1-1.4,4.3-2.7,6.3c0.4,1.3,0.9,2.4,1.7,3.2c0.3,0.5,0.4,0.4,0.7-0.1c0.3-0.7,0.7-2,1-3.2
							l0.3,0.1L1298.9,36.2L1298.9,36.2z M1282.8,16.6h6.1l1.1-1.5c0,0,1.3,1.1,2.1,1.9c-0.1,0.3-0.3,0.5-0.7,0.5h-8.4L1282.8,16.6z
							 M1285.5,34.1v1.5c0,0.2-0.8,0.7-1.6,0.7h-0.3V24.4l2,0.9h3.2l1-1l2.1,1.6c-0.1,0.2-0.5,0.4-1,0.5v8.2c0,0.2-0.9,0.6-1.6,0.6
							h-0.3v-1L1285.5,34.1L1285.5,34.1z M1284.4,17.6c3.9,2.7,1.8,5.7,0.4,4.1c0.1-1.3-0.4-2.9-0.7-4L1284.4,17.6L1284.4,17.6z
							 M1285.7,12.6c4.9,1.3,2.7,5,0.9,3.3c0-1.1-0.5-2.4-1.2-3.1L1285.7,12.6L1285.7,12.6z M1285.5,26.1v3h3.5v-3H1285.5z
							 M1289,33.3v-3.3h-3.5v3.3H1289z M1295.2,14.7c4.8,2.6,2.8,6.1,1.2,4.5c-0.1-1.4-0.9-3.2-1.5-4.4L1295.2,14.7L1295.2,14.7z"/>
						<path class="st0" d="M1316.1,13.4c-0.1,0.4-0.3,0.7-1,0.8c0.6,10.5,3.2,17.6,12.9,21.9l-0.1,0.3c-1.2,0.2-2,0.8-2.3,2.1
							c-7.4-4.1-9.9-10.6-10.7-19.2c-0.5,6.9-2.6,14.1-12.7,19.3l-0.4-0.5c10.9-7.1,10.8-16.3,10.9-25L1316.1,13.4L1316.1,13.4z"/>
						<path class="st0" d="M660.1,54c0,0,1.6,1.3,2.6,2.2c-0.1,0.3-0.3,0.5-0.7,0.5h-3.6v6.9h0.6l1.2-1.8c0,0,1.4,1.3,2.2,2.2
							c-0.1,0.3-0.3,0.4-0.7,0.4h-3.2v7.2c1.3-0.4,2.7-0.9,4.1-1.4l0.1,0.4c-2,1.2-4.9,2.8-8.6,4.8c-0.1,0.3-0.3,0.7-0.6,0.8l-1-2.7
							c0.8-0.2,2.1-0.6,3.8-1.1v-8h-3.1l-0.2-0.8h3.4v-6.9h-3.2l-0.2-0.8h6.1L660.1,54L660.1,54z M676.6,75.2c0,0,1.7,1.3,2.7,2.3
							c-0.1,0.3-0.4,0.4-0.8,0.4h-18.4l-0.2-0.8h8.8v-5h-5.9l-0.2-0.8h6.2v-4.4h-3.8v1c0,0.2-0.9,0.8-1.8,0.8h-0.4V53.9L665,55h9.7
							l1.2-1.3l2.5,2c-0.2,0.2-0.6,0.5-1.2,0.6v11.2c0,0.2-1.1,0.8-1.9,0.8H675v-1.2h-4.1v4.4h3.2l1.4-1.9c0,0,1.6,1.3,2.6,2.2
							c-0.1,0.3-0.4,0.4-0.8,0.4h-6.4v5h4.2L676.6,75.2L676.6,75.2z M664.9,55.8v4.8h3.8v-4.8H664.9z M668.7,66.2v-4.8h-3.8v4.8
							H668.7z M670.9,55.8v4.8h4.1v-4.8H670.9z M675,66.2v-4.8h-4.1v4.8H675z"/>
						<path class="st0" d="M695.8,53.6c-0.1,0.3-0.4,0.5-1.2,0.6c2.7,2.7,7.3,4.9,12.3,5.9l0,0.4c-1,0.3-1.5,1.3-1.8,2.2
							c-4.8-1.7-8.8-4.5-11-8.1c-2.5,3.2-7.5,6.9-13.3,8.7l-0.1-0.4c5-2.3,9.7-6.5,11.5-10.1L695.8,53.6L695.8,53.6z M685.4,70.2
							c0.9,3.4-0.4,5.6-1.6,6.4c-0.7,0.5-1.8,0.6-2.2-0.1c-0.3-0.6,0.1-1.2,0.8-1.6c1.2-0.7,2.5-2.6,2.5-4.7
							C684.9,70.2,685.4,70.2,685.4,70.2z M685.4,63.5h13l1.4-1.2l2.3,1.8c-0.2,0.2-0.5,0.3-1.1,0.3c-0.9,1.7-2.6,3.6-4.4,4.8
							l-0.3-0.4c0.8-1.2,1.7-3.1,2.2-4.6h-12.8L685.4,63.5L685.4,63.5z M700.5,75.9c0.8,0.2,0.9,0.5,0.9,0.9c0,1-1.1,1.3-6.7,1.3
							h-3.9c-2.8,0-3.4-0.4-3.4-2.1v-6.8l3.1,0.3c-0.1,0.4-0.3,0.6-0.9,0.7v5.4c0,0.4,0.1,0.5,1.4,0.5h3.8c1.6,0,2.9,0,3.4,0
							c0.4,0,0.5-0.1,0.7-0.4c0.2-0.5,0.6-1.6,1-3.1h0.3L700.5,75.9L700.5,75.9z M696.6,58.7c0,0,1.4,1.1,2.2,1.9
							c-0.1,0.3-0.3,0.5-0.7,0.5h-8.9l-0.2-0.8h6.5L696.6,58.7L696.6,58.7z M692.6,68.5c6,2.1,4.2,6.6,2.1,5
							c-0.1-1.7-1.3-3.6-2.4-4.8L692.6,68.5L692.6,68.5z M701.1,70.2c7.2,2.5,5.4,7.6,3,5.8c-0.3-1.9-1.9-4.3-3.3-5.6L701.1,70.2
							L701.1,70.2z"/>
						<path class="st0" d="M712.8,60.6c-0.4,2-1.4,4-3.4,5.7l-0.3-0.4c1.9-2.7,2.1-6,2.1-8.8v-3.4l2.4,1h4.9l1-1.1l2.3,1.7
							c-0.2,0.2-0.6,0.4-1.1,0.5v3.3c0,0.2-1,0.6-1.7,0.6h-0.3v-0.9H713c-0.1,0.5-0.1,0.9-0.2,1.4l2.1,0.9h3.7l1-1l2.2,1.6
							c-0.1,0.2-0.5,0.4-1,0.5v3.5c0,0.2-1,0.6-1.6,0.6h-0.3v-0.9h-4.1v0.9c0,0.1-0.7,0.6-1.6,0.6h-0.3L712.8,60.6L712.8,60.6z
							 M732.5,71.6c0,0,1.6,1.2,2.6,2.1c-0.1,0.3-0.3,0.4-0.7,0.4h-11.1v2c0,1.6-0.4,2.7-3.4,2.9c0-0.7-0.2-1.2-0.6-1.5
							c-0.4-0.3-1.2-0.6-2.5-0.8l0-0.4c0,0,3,0.2,3.6,0.2c0.5,0,0.7-0.2,0.7-0.5v-1.9h-11.7l-0.2-0.8h12v-2h-9.3l-0.2-0.8h9.5v-2
							c-3,0.1-6.1,0.2-9,0.1L712,68c6-0.2,13.5-1.2,17.6-2.1l1.9,2c-0.3,0.2-0.8,0.2-1.5-0.1c-2,0.2-4.2,0.4-6.7,0.5v2.1h5.5
							l1.4-1.7c0,0,1.5,1.2,2.5,2c-0.1,0.3-0.3,0.4-0.7,0.4h-8.7v2h7.8L732.5,71.6L732.5,71.6z M713.1,55.5v1.6c0,0.3,0,0.6,0,0.9
							h5.6v-2.5H713.1L713.1,55.5z M714.7,61.9v2.6h4.1v-2.6C718.8,61.9,714.7,61.9,714.7,61.9z M722.2,56.8l-0.2-0.8h9l1.2-1.5
							c0,0,1.3,1.1,2.2,1.9c-0.1,0.3-0.3,0.5-0.7,0.5h-3.4l2.5,0.7c-0.1,0.3-0.5,0.6-1.1,0.5c-0.6,0.6-1.3,1.2-2.1,1.8h2.2l1.1-1.3
							c0,0,1.3,1,2,1.7c-0.1,0.3-0.3,0.5-0.7,0.5h-5.7v2h2.3l1.1-1.4c0,0,1.3,1,2,1.8c-0.1,0.3-0.3,0.5-0.7,0.5h-4.7v1.8
							c0,0.1-0.7,0.5-1.7,0.5h-0.3v-2.3h-4l-0.2-0.8h4.2v-2h-4.8l-0.2-0.8h4c-0.2,0-0.4-0.1-0.6-0.2c-0.1-0.8-0.8-1.9-1.3-2.5
							l0.3-0.2c3.6,0.5,3.2,2.7,2.1,2.9h2.7c0.5-0.9,0.9-2.1,1.2-3L722.2,56.8L722.2,56.8z M725.7,52.8c4.8,0.5,3.1,4.1,1.2,2.8
							c-0.1-0.9-0.9-2.1-1.5-2.7L725.7,52.8L725.7,52.8z"/>
						<path class="st0" d="M760.5,75.5c0,0,1.8,1.3,2.8,2.2c-0.1,0.3-0.4,0.4-0.7,0.4h-25.1l-0.2-0.8H759L760.5,75.5L760.5,75.5z
							 M748.8,66.2v-2h-8.4l-0.2-0.8h8.6v-2h-7.6l-0.2-0.8h7.8v-1.9h-11.2l-0.2-0.8h11.4v-1.9h-7.5l-0.2-0.8h7.8v-2.5l3.2,0.3
							c-0.1,0.4-0.2,0.7-0.9,0.7v1.4h5l1.1-1.2l2.4,1.8c-0.2,0.2-0.6,0.4-1.1,0.5V58h1.1l1.3-1.7c0,0,1.5,1.2,2.4,2.1
							c-0.1,0.3-0.3,0.4-0.7,0.4h-4.2v2.7c0,0.1-0.4,0.3-0.8,0.5c0.3,0.2,1.6,1.2,2.4,1.9c-0.1,0.3-0.3,0.4-0.7,0.4h-8.4v2h8.3
							l1.3-1.7c0,0,1.6,1.2,2.5,2.1c-0.1,0.3-0.3,0.4-0.7,0.4h-25l-0.2-0.8L748.8,66.2L748.8,66.2z M756.6,76.2v-0.9h-12.7V76
							c0,0.2-1,0.7-1.9,0.7h-0.3v-8.9l2.4,1h12.3l1.1-1.2l2.5,1.9c-0.1,0.2-0.6,0.4-1,0.5v5.6c0,0.2-1.2,0.7-1.9,0.7L756.6,76.2
							L756.6,76.2z M743.8,69.6v2.1h5.2v-2.1H743.8z M743.8,74.6h5.2v-2.1h-5.2V74.6z M751,58h5.3v-1.9H751V58z M751,60.7h5.3v-1.9
							H751V60.7z M751,63.4h5.2l1.2-1.4c-0.3,0.1-0.6,0.1-0.8,0.1h-0.3v-0.7H751L751,63.4L751,63.4z M751.2,69.6v2.1h5.3v-2.1H751.2
							z M756.6,74.6v-2.1h-5.3v2.1H756.6z"/>
						<path class="st0" d="M774.4,54.1c-0.1,0.3-0.5,0.6-1.1,0.5c-0.6,1.4-1.3,2.7-2.1,4l1.1,0.4c-0.1,0.2-0.4,0.5-0.8,0.5v9.4
							c-0.1,0.2-1,0.7-1.9,0.7h-0.4v-8c-1.1,1.3-2.2,2.5-3.4,3.4l-0.4-0.3c2.1-2.8,4.3-7.3,5.6-11.9L774.4,54.1L774.4,54.1z
							 M769.9,70.2c0.9,3.4-0.4,5.6-1.6,6.4c-0.7,0.5-1.8,0.6-2.2-0.1c-0.3-0.6,0.1-1.2,0.8-1.6c1.2-0.7,2.5-2.6,2.5-4.7
							C769.4,70.2,769.9,70.2,769.9,70.2z M785.3,76c0.8,0.2,1,0.5,1,0.9c0,1-1.1,1.3-6.6,1.3h-3.9c-2.8,0-3.4-0.4-3.4-2.1v-6.7
							l3.1,0.3c-0.1,0.3-0.3,0.6-0.9,0.7v5.3c0,0.4,0.1,0.5,1.4,0.5h3.7c1.6,0,2.9,0,3.4,0c0.4,0,0.5-0.1,0.7-0.4
							c0.3-0.5,0.6-1.6,1-3.1h0.3C785.3,72.8,785.3,76,785.3,76z M772.8,62.3c1.7-2.2,3.3-5.7,4.2-9.4l3.3,1.1
							c-0.1,0.3-0.4,0.6-1,0.5c-0.3,0.7-0.6,1.3-0.9,1.9h9.4l1.3-1.3l2.3,2.3c-0.2,0.2-0.5,0.2-1.1,0.3c-0.8,0.9-2.3,2.1-3.5,2.8
							l-0.3-0.2c0.4-0.8,1-2,1.3-3h-9.9c-1.3,2.3-2.9,4.1-4.7,5.4L772.8,62.3L772.8,62.3z M780.5,61.6c-0.1,0.3-0.5,0.5-1.1,0.5
							c-1.4,2.6-3.4,4.6-5.5,5.8l-0.4-0.3c1.5-1.6,3.1-4.3,4-7.1L780.5,61.6L780.5,61.6z M777.3,68.4c6.3,2.4,4.5,6.3,2.6,4.8
							c-0.3-1.5-1.8-3.4-2.8-4.6L777.3,68.4L777.3,68.4z M783.6,68.8c0,0.2-0.9,0.6-1.7,0.6h-0.4V58.6l3.2,0.3
							c-0.1,0.4-0.3,0.7-1,0.8L783.6,68.8L783.6,68.8z M785.8,61.2c7.2,3.1,5.5,7.9,3.3,6.2c-0.5-1.9-2.2-4.4-3.6-6L785.8,61.2
							L785.8,61.2z M786.1,69.8c7,2.9,4.9,8,2.7,6.1c-0.1-2-1.6-4.4-3-5.9L786.1,69.8z"/>
						<path class="st0" d="M806,58.7c-0.2,0.2-0.7,0.5-1.2,0.6v17.1c0,0.2-1.1,0.7-1.8,0.7h-0.3V75h-5.5v2.3c0,0.2-0.8,0.8-1.7,0.8
							H795V57l2.3,1h0.7c0.3-1.4,0.7-3.6,0.9-5.1l3.4,0.8c-0.1,0.4-0.5,0.6-1.1,0.6c-0.6,1.1-1.5,2.5-2.3,3.7h3.3l1.2-1.3L806,58.7
							L806,58.7z M797.1,58.9v7h5.5v-7H797.1z M802.6,74.2v-7.4h-5.5v7.4H802.6z M819.7,58.7c-0.2,0.2-0.6,0.4-1.2,0.5
							c-0.2,10.7-0.7,16.6-2,18.3c-0.8,1-2,1.4-3.5,1.4c0-0.7-0.1-1.3-0.6-1.7c-0.5-0.4-1.6-0.7-2.8-1l0-0.5c1.3,0.1,3.3,0.3,4,0.3
							c0.6,0,0.8-0.1,1-0.4c1.1-1,1.5-7.2,1.6-16.8h-6.4c-1.2,2.3-2.7,4.4-4.3,5.9l-0.4-0.2c1.7-2.8,3.4-7.2,4.3-11.5l3.3,0.9
							c-0.1,0.3-0.5,0.6-1,0.6c-0.5,1.2-1,2.4-1.5,3.5h5.7l1.3-1.4L819.7,58.7L819.7,58.7z M807.9,63.8c7.2,2.9,5.2,7.9,2.8,6
							c-0.3-1.9-1.8-4.3-3.1-5.8C807.6,64,807.9,63.8,807.9,63.8z"/>
						<path class="st0" d="M845.2,59.1c0,0,1.8,1.3,2.9,2.3c-0.1,0.3-0.4,0.5-0.8,0.5h-25.2l-0.2-0.8h11.9v-3.8H825l-0.2-0.8h9v-3.5
							l3.2,0.3c-0.1,0.4-0.3,0.6-0.9,0.7v2.5h4.8l1.5-1.9c0,0,1.8,1.3,2.8,2.3c-0.1,0.3-0.4,0.5-0.8,0.5h-8.4V61h7.5L845.2,59.1
							L845.2,59.1z M844.5,70.4c0,0,1.8,1.3,2.8,2.3c-0.1,0.3-0.4,0.4-0.8,0.4h-10.4v5.2c0,0.1-0.8,0.6-2,0.6h-0.4v-5.8h-10.8
							l-0.2-0.8h11.1v-4.5h-9.2l-0.2-0.8h13c0.7-1.6,1.4-3.6,1.8-5.1l3.5,0.8c-0.1,0.3-0.5,0.6-1.1,0.6c-0.8,1.2-2.2,2.6-3.4,3.8
							h3.5l1.5-1.9c0,0,1.8,1.3,2.8,2.3c-0.1,0.3-0.3,0.4-0.7,0.4h-9.2v4.5h6.8L844.5,70.4L844.5,70.4z M828.5,62
							c6.1,2,3.5,6.4,1.4,4.5c-0.1-1.5-0.9-3.2-1.7-4.3L828.5,62z"/>
						<path class="st0" d="M856.4,65.3c5.5,2.2,3.9,5.7,2.1,4.4c-0.2-1.2-1.2-2.6-2.1-3.7v12.1c0,0.2-0.8,0.8-1.8,0.8h-0.4V67.5
							c-1.3,1.3-2.7,2.4-4.2,3.3l-0.3-0.2c3.1-2.8,6.1-7.2,7.5-10.8h-6.7l-0.2-0.8h6.9l1.4-1.3l2.3,2.3c-0.2,0.2-0.6,0.2-1.3,0.3
							c-0.8,1.6-1.8,3.3-3.2,4.9L856.4,65.3L856.4,65.3z M853.4,53c6.1,1.8,4.1,5.9,2,4.3c-0.2-1.4-1.3-3.1-2.3-4.1L853.4,53z
							 M873.5,53.3c0,0,1.6,1.2,2.6,2.2c-0.1,0.3-0.4,0.5-0.8,0.5h-14.9l-0.2-0.8h11.9L873.5,53.3L873.5,53.3z M873.5,65.6l2.5,1.9
							c-0.2,0.2-0.6,0.4-1.2,0.6v10c0,0.2-1.1,0.7-1.8,0.7h-0.4v-1.6h-9.9v1c0,0.2-0.9,0.7-1.8,0.7h-0.3v-13l2.3,1h9.5L873.5,65.6
							L873.5,65.6z M871.3,64.9v-1h-7.1v0.6c0,0.2-1,0.7-1.8,0.7h-0.3v-7.6l2.2,1h6.7l1.2-1.2l2.5,1.9c-0.2,0.2-0.7,0.5-1.2,0.6v4.5
							c0,0.2-1.1,0.6-1.8,0.6H871.3L871.3,64.9z M862.8,67.8v3.7h4v-3.7H862.8z M862.8,76.4h4v-4.1h-4V76.4z M871.3,63.1v-3.7h-7.1
							v3.7H871.3z M868.8,67.8v3.7h3.9v-3.7H868.8z M872.7,76.4v-4.1h-3.9v4.1H872.7z"/>
						<path class="st0" d="M882.3,57.5c0.1,1.8-0.7,3-1.5,3.6c-0.7,0.5-1.8,0.5-2.2-0.3c-0.3-0.7,0.1-1.3,0.8-1.7
							c1.1-0.6,2.1-2.1,2-3.8h0.5c0.2,0.5,0.2,0.9,0.3,1.3h18.3l1.3-1.3l2.4,2.3c-0.2,0.2-0.5,0.2-1,0.3c-0.7,0.8-1.9,1.9-2.8,2.6
							l-0.3-0.2c0.2-0.8,0.5-1.9,0.7-2.8L882.3,57.5L882.3,57.5z M902.2,64.6c-0.2,0.2-0.5,0.3-1.1,0.1c-1.5,0.9-3.9,1.9-6.3,2.7
							c1.8,3.8,5.5,6.2,9.5,7.5l-0.1,0.3c-0.9,0.1-1.6,0.8-2,1.9c-3.9-2-6.7-5-8.1-9.6c-0.6,0.2-1.1,0.4-1.7,0.5
							c1.9,3.9,1.5,8.1,0.1,9.8c-0.6,0.7-1.7,1-3.4,1c0-0.7-0.2-1.2-0.6-1.4s-1.3-0.6-2.4-0.8l0-0.4c1.2,0.1,3.2,0.2,3.8,0.2
							c0.4,0,0.6-0.1,0.8-0.3c0.7-0.8,1-2.6,0.8-4.7c-3.2,2.5-8,4.8-12.6,6l-0.2-0.4c4.6-1.7,9.5-4.9,12.2-8.4
							c-0.1-0.4-0.3-0.9-0.5-1.3c-2.8,2-7,4.1-10.9,5.2l-0.2-0.4c3.6-1.6,7.7-4.3,10-6.9c-0.2-0.4-0.5-0.7-0.8-1
							c-2.5,1.5-5.5,2.7-8.6,3.6l-0.2-0.4c3.5-1.4,6.9-3.6,9.2-5.8h-6.3l-0.2-0.8h14.2l1.4-1.8c0,0,1.6,1.2,2.6,2.1
							c-0.1,0.3-0.4,0.5-0.8,0.5h-7.7c-0.9,0.8-2,1.6-3.1,2.3c1.4,1.1,2.4,2.4,3.2,3.8c2.7-1.4,5.7-3.6,7.2-5L902.2,64.6L902.2,64.6
							z M889.2,52.9c5.9,0.4,4.2,4.9,1.9,3.4c-0.2-1.1-1.2-2.5-2.2-3.2L889.2,52.9L889.2,52.9z"/>
						<path class="st0" d="M932.1,55.3c-0.2,0.2-0.7,0.5-1.2,0.6v22c0,0.2-1.1,0.8-1.9,0.8h-0.3v-1.9h-18.1v1.2
							c0,0.3-0.8,0.9-1.8,0.9h-0.4V53.6l2.5,1.1h17.6l1.2-1.3L932.1,55.3L932.1,55.3z M928.7,55.5h-18.1V76h18.1
							C928.7,76,928.7,55.5,928.7,55.5z M921.3,72.7c-1.1,0.6-3.2,1.8-5.3,2.9c-0.1,0.2-0.3,0.4-0.4,0.4l-1.3-1.7
							c0.8-0.5,0.9-0.7,0.9-1.1v-1.9c-1.3,0.6-2.7,1-4.1,1.4l-0.2-0.5c2.5-1,4.8-2.3,6.5-3.9h-1.9v0.4c0,0.2-0.9,0.6-1.7,0.6h-0.3
							v-6.2l2.1,0.9h7.9l1-1l2.1,1.5c-0.1,0.2-0.5,0.4-0.9,0.4v3.2l1.7,1.6c-0.1,0.2-0.4,0.2-0.9,0c-0.7,0.4-1.6,0.9-2.5,1.3
							c4.5,2.3,3.4,4.7,1.9,3.9c-1-1.3-3.5-3.4-6.7-5.1l0.2-0.4c1.5,0.4,2.8,0.8,3.9,1.3c0.7-0.7,1.5-1.5,2.1-2.2
							c-0.4,0.2-0.8,0.3-1.2,0.3h-0.3v-0.6h-4c-0.7,0.7-1.6,1.3-2.6,1.9v3.2c1.2-0.3,2.6-0.8,4-1.2L921.3,72.7L921.3,72.7z
							 M925.8,60c0,0,1.4,1,2.3,1.9c-0.1,0.3-0.3,0.5-0.7,0.5h-15.8l-0.2-0.8h7.2v-2.1h-5.6l-0.2-0.8h5.8v-2.4l2.9,0.3
							c-0.1,0.3-0.2,0.6-0.8,0.7v1.5h2.8l1.2-1.4c0,0,1.3,1,2.2,1.8c-0.1,0.3-0.3,0.5-0.7,0.5h-5.5v2.1h4L925.8,60L925.8,60z
							 M915.4,67.5h8.3v-2.6h-8.3V67.5z"/>
						<path class="st0" d="M938.5,68.7c1.5-1,2.3-2.1,2.7-3.5c-1.4-0.7-2.2-1.4-2.2-2.4c0-0.9,0.6-1.7,1.8-1.7s2,0.9,2,2.6
							c0,2-0.9,4.6-3.8,6L938.5,68.7L938.5,68.7z"/>
						<path class="st0" d="M974.1,76.2c0.9,1.2,1,1.8,0.7,2.1c-0.8,1-2.7,0.1-4.1-0.9c-1.7-1.2-3-2.6-4.1-4.3
							c-2.2,2.3-5,4.4-8.6,5.8l-0.2-0.4c3.3-1.8,6-4.2,7.9-7c-1.7-3.4-2.5-7.5-2.9-12H954V64h4.4l1.2-1.2l2.3,1.9
							c-0.2,0.2-0.5,0.4-1.1,0.4c-0.2,5.8-0.6,8.3-1.6,9.2c-0.7,0.6-1.5,0.8-2.6,0.8c0-0.6-0.1-1.1-0.4-1.5c-0.3-0.3-1-0.6-1.8-0.7
							l0-0.4c0.7,0.1,2.1,0.2,2.6,0.2c0.4,0,0.6-0.1,0.8-0.2c0.5-0.5,0.8-2.8,0.9-7.6H954c0,4.4-0.4,10.3-5,14.2l-0.4-0.3
							c2.8-4.2,3.1-9.3,3.1-14.1v-7.1l2.7,1h8.4c-0.1-1.8-0.2-3.7-0.2-5.7l3.3,0.4c-0.1,0.4-0.3,0.7-1,0.8c0,1.5,0,3,0.1,4.5h5.7
							l1.5-1.9c0,0,1.7,1.3,2.7,2.2c-0.1,0.3-0.4,0.5-0.7,0.5H965c0.2,3.6,0.9,6.9,2.1,9.8c1.3-2.3,2.2-4.8,2.8-7.2l3.4,1.1
							c-0.1,0.4-0.4,0.5-1.1,0.5c-0.9,2.6-2.2,5.3-4,7.7c1,1.6,2.2,2.9,3.8,3.9c0.5,0.4,0.7,0.4,1-0.1c0.4-0.7,1-2.2,1.4-3.3
							l0.3,0.1L974.1,76.2L974.1,76.2z M966.8,53.6c6.3,0.2,5.4,4.5,3.2,3.4c-0.6-1.2-2.2-2.5-3.4-3.2L966.8,53.6z"/>
						<path class="st0" d="M982.7,70c-0.1,0.3-0.4,0.6-1,0.6c-1.1,2.3-2.6,4.3-4.2,5.6l-0.4-0.2c1.1-1.7,2.2-4.2,2.7-6.8L982.7,70
							L982.7,70z M977.4,58.4l-0.2-0.8h10.8l1.4-1.9c0,0,1.6,1.3,2.7,2.2c-0.1,0.3-0.4,0.5-0.8,0.5H977.4z M985.2,66.9V76
							c0,1.6-0.4,2.7-2.9,3c-0.1-0.7-0.2-1.2-0.5-1.5c-0.3-0.4-0.9-0.6-2-0.8v-0.4c0,0,2.2,0.2,2.7,0.2c0.5,0,0.6-0.1,0.6-0.5v-9.1
							h-2.1v0.7c0,0.2-0.9,0.7-1.8,0.7H979v-8.3l2.2,1h5.8l1.1-1.2l2.4,1.8c-0.2,0.2-0.6,0.5-1.1,0.6v5.3c0,0.2-1.1,0.6-1.8,0.6
							h-0.3v-1H985.2L985.2,66.9z M981,66h6.2v-4.4H981V66z M981.9,53c5.8,1.2,4,5.3,1.9,3.9c-0.2-1.2-1.3-2.8-2.2-3.7L981.9,53
							L981.9,53z M986.6,69.2c5.5,2.5,3.4,6.5,1.5,4.8c-0.1-1.6-1-3.5-1.9-4.6C986.2,69.4,986.6,69.2,986.6,69.2z M1002.8,76
							c0.6,0.2,0.8,0.5,0.8,1c0,0.8-0.8,1.3-3.8,1.3l-1.7,0c-1.8,0-2.2-0.6-2.2-2V61.8h-0.4c-0.3,7.2-1.6,13-7.8,17.2l-0.4-0.5
							c4.7-4.3,5.8-9.9,6-16.8h-2.6l-0.2-0.8h2.8c0.1-2.5,0-5.1,0-8l3.3,0.3c-0.1,0.4-0.3,0.7-1,0.8c0,2.4,0,4.7-0.1,6.8h3.8
							l1.4-1.8c0,0,1.6,1.2,2.6,2.2c-0.1,0.3-0.4,0.5-0.8,0.5H998v13.9c0,0.4,0.1,0.6,0.7,0.6h1.2c0.5,0,1,0,1.2,0
							c0.2,0,0.3-0.1,0.5-0.3c0.2-0.5,0.6-2.6,0.9-4.3h0.4L1002.8,76L1002.8,76z M997.6,54.4c5.7,1.8,3.7,5.7,1.8,4.1
							c-0.2-1.3-1.2-2.9-2.1-3.9L997.6,54.4z"/>
						<path class="st0" d="M1015.2,54.1c-0.1,0.3-0.5,0.6-1.1,0.6c-0.8,2.1-1.8,4-2.8,5.8l1.4,0.5c-0.1,0.2-0.4,0.4-0.9,0.5v16.7
							c0,0.2-0.9,0.7-1.8,0.7h-0.5V63.2c-1.2,1.7-2.6,3.2-4,4.5l-0.4-0.2c2.5-3.4,5.1-9,6.5-14.5L1015.2,54.1L1015.2,54.1z
							 M1030.7,76.3c0.9,1.2,1,1.8,0.7,2.2c-0.8,1-2.8,0.1-4.1-0.9c-4.4-3.2-6.6-8.4-7.6-14.6l-6.4,0.7l-0.3-0.8l6.6-0.8
							c-0.4-2.8-0.6-5.8-0.6-8.9l3.4,0.4c-0.1,0.3-0.3,0.7-1,0.8c0,2.5,0.1,5,0.4,7.4l5.2-0.6l1.3-2c0,0,1.9,1.1,3,1.9
							c0,0.3-0.3,0.5-0.7,0.5l-8.7,1c0.8,5.3,2.7,10,6.5,12.6c0.5,0.4,0.7,0.4,1-0.1c0.4-0.7,1-2.2,1.5-3.3l0.3,0.1L1030.7,76.3
							L1030.7,76.3z M1023.9,53.9c6.5,0.9,5,5.2,2.8,4c-0.5-1.3-1.9-2.8-3-3.8L1023.9,53.9L1023.9,53.9z"/>
						<path class="st0" d="M1043.4,54.1c-0.1,0.3-0.4,0.6-1.1,0.6c-0.8,2.1-1.8,4-2.8,5.8l1.4,0.5c-0.1,0.2-0.4,0.4-0.9,0.5v16.7
							c0,0.2-0.9,0.7-1.8,0.7h-0.4V63.2c-1.2,1.7-2.6,3.2-4,4.5l-0.4-0.2c2.5-3.4,5.1-9,6.6-14.5L1043.4,54.1L1043.4,54.1z
							 M1059,76.3c0.9,1.2,1,1.8,0.7,2.2c-0.8,1-2.8,0.1-4.1-0.9c-4.4-3.2-6.6-8.4-7.6-14.6l-6.4,0.7l-0.3-0.8l6.6-0.8
							c-0.4-2.8-0.6-5.8-0.6-8.9l3.4,0.4c-0.1,0.3-0.3,0.7-1,0.8c0,2.5,0.1,5,0.4,7.4l5.2-0.6l1.3-2c0,0,1.9,1.1,3,1.9
							c0,0.3-0.3,0.5-0.7,0.5l-8.7,1c0.8,5.3,2.7,10,6.5,12.6c0.5,0.4,0.7,0.4,1-0.1c0.4-0.7,1.1-2.2,1.5-3.3l0.3,0.1L1059,76.3
							L1059,76.3z M1052.1,53.9c6.5,0.9,5,5.2,2.8,4c-0.5-1.3-1.9-2.8-3-3.8L1052.1,53.9z"/>
						<path class="st0" d="M1062,59.8c6,0.8,4.4,5.1,2.2,3.7c-0.3-1.2-1.4-2.7-2.5-3.4L1062,59.8L1062,59.8z M1069.6,58.8
							c-1,3.3-3,9.5-3.4,10.8c-0.2,0.8-0.4,1.7-0.4,2.5c0,1.3,0.9,2.5,0.8,4.9c-0.1,1.2-0.7,2-1.7,2c-0.6,0-1-0.5-1.1-1.4
							c0.4-2.8,0.2-5.2-0.4-5.6c-0.4-0.3-0.8-0.4-1.4-0.4v-0.6h1.2c0.3,0,0.4,0,0.7-0.6c0.3-0.6,2-4.5,4.9-11.6L1069.6,58.8
							L1069.6,58.8z M1063.8,53.3c6.4,1,4.8,5.3,2.6,4c-0.4-1.3-1.7-2.8-2.8-3.8L1063.8,53.3z M1080.7,61.5v-1.4h-1.8V63h5.4l1-1.2
							l2.5,1.9c-0.2,0.2-0.6,0.4-1.1,0.5v11.9c0,1.6-0.3,2.6-3,2.9c-0.1-0.7-0.2-1.2-0.5-1.6c-0.4-0.4-1-0.6-2-0.8v-0.4
							c0,0,2.4,0.2,2.9,0.2c0.4,0,0.6-0.2,0.6-0.6v-3.4c-0.3,0.4-0.5,0.9-0.6,1.4c-1-0.8-1.8-2.3-2.1-3.8c-0.5,1.5-1.7,2.9-2.9,3.7
							V78c0,0.1-0.7,0.6-1.7,0.6h-0.4v-6.3c-0.4,0.3-0.6,1-0.7,1.6c-0.9-0.7-1.6-2.2-1.9-3.7c-0.5,1.6-1.6,2.9-2.8,3.7l-0.2-0.2v4.6
							c0,0.2-0.8,0.7-1.7,0.7h-0.3V62l2.2,1h5.4v-2.9h-1.8v1.1c0,0.2-0.9,0.6-1.7,0.6h-0.4v-5.2h-4.3l-0.2-0.8h4.5v-2.9l3.1,0.3
							c-0.1,0.4-0.3,0.7-1,0.8v1.8h5.6v-2.9l3.1,0.3c-0.1,0.4-0.3,0.7-1,0.8v1.8h1.6l1.3-1.8c0,0,1.5,1.3,2.3,2.1
							c-0.1,0.3-0.3,0.5-0.7,0.5h-4.6V61c0,0.2-0.9,0.6-1.7,0.6L1080.7,61.5L1080.7,61.5z M1074.4,67.5c0.2,1.9,1.1,3.3,2.5,4.2
							v-7.9h-5.5v9.7c1.1-1.2,2.2-3.6,2.4-5.9V67h-1.5l-0.2-0.8h1.4l0.6-0.9l1.6,1.2c-0.2,0.2-0.6,0.4-1.3,0.5L1074.4,67.5
							L1074.4,67.5z M1080.7,56.6h-5.6v2.7h5.6V56.6z M1078.9,63.8v9.3c1-1.3,2.1-3.5,2.4-5.6V67h-1.7l-0.1-0.8h1.5l0.6-0.9l1.7,1.3
							c-0.2,0.2-0.7,0.4-1.3,0.5l0,0.4c0.3,1.9,1.3,3.2,2.6,4.1v-7.8H1078.9L1078.9,63.8z"/>
						<path class="st0" d="M1094.3,71.8c0.7,3.1-0.6,5.1-1.8,5.8c-0.8,0.5-1.8,0.5-2.1-0.2c-0.2-0.6,0.2-1.2,0.8-1.6
							c1.2-0.6,2.5-2.2,2.7-4.1L1094.3,71.8z M1113.2,58.5c0,0,1.7,1.2,2.7,2.2c-0.1,0.3-0.4,0.5-0.7,0.5h-24.5l-0.2-0.8h14.9
							c0.5-1.1,1.1-2.7,1.5-3.8h-14.2l-0.2-0.8h10.4c-0.5-1-1.7-2.2-2.7-2.8l0.2-0.2c4.2,0,4.9,2.2,4,3h5.4l1.5-1.8
							c0,0,1.7,1.2,2.7,2.2c-0.1,0.3-0.3,0.5-0.7,0.5h-6.1l3,0.9c-0.1,0.3-0.5,0.6-1.1,0.5c-0.7,0.7-1.8,1.7-2.8,2.4h5.5
							L1113.2,58.5L1113.2,58.5z M1097,70.7c0,0.2-1,0.7-1.9,0.7h-0.3V62l2.4,1h11.6l1.2-1.3l2.5,1.9c-0.2,0.2-0.6,0.4-1.2,0.6v6.3
							c0,0.2-1.1,0.7-1.9,0.7h-0.4v-0.9H1097L1097,70.7L1097,70.7z M1097,63.8v2.4h12.1v-2.4H1097z M1109,69.4V67H1097v2.4H1109z
							 M1109.7,76.1c0.7,0.2,0.9,0.5,0.9,0.9c0,1-1,1.3-6.5,1.3h-3.9c-2.7,0-3.2-0.4-3.2-1.9v-4.7l3,0.3c-0.1,0.4-0.3,0.6-0.8,0.7
							v3.4c0,0.4,0.1,0.5,1.4,0.5h3.7c1.6,0,2.9,0,3.4-0.1c0.4,0,0.6-0.1,0.7-0.4c0.2-0.4,0.6-1.5,0.9-2.9h0.4L1109.7,76.1
							L1109.7,76.1z M1097.3,56.6c5.3,1,3.3,4.9,1.4,3.4c-0.1-1.1-0.9-2.4-1.6-3.2L1097.3,56.6z M1101.6,70.8
							c5.9,1.4,4.3,5.5,2.4,4.2c-0.2-1.4-1.5-3-2.6-3.9L1101.6,70.8z M1110.6,71.6c6.7,2.2,5.1,6.8,2.9,5.2c-0.3-1.7-1.8-3.8-3.2-5
							L1110.6,71.6L1110.6,71.6z"/>
						<path class="st0" d="M1130.5,58.7c-0.2,0.2-0.7,0.5-1.2,0.6v17.1c0,0.2-1.1,0.7-1.8,0.7h-0.3V75h-5.5v2.3
							c0,0.2-0.8,0.8-1.7,0.8h-0.4V57l2.3,1h0.7c0.3-1.4,0.7-3.6,0.9-5.1l3.4,0.8c-0.1,0.4-0.5,0.6-1.1,0.6
							c-0.6,1.1-1.5,2.5-2.3,3.7h3.3l1.2-1.3L1130.5,58.7L1130.5,58.7z M1121.7,58.9v7h5.5v-7H1121.7z M1127.2,74.2v-7.4h-5.5v7.4
							H1127.2z M1144.3,58.7c-0.2,0.2-0.6,0.4-1.2,0.5c-0.2,10.7-0.7,16.6-2,18.3c-0.8,1-2,1.4-3.5,1.4c0-0.7-0.1-1.3-0.6-1.7
							c-0.4-0.4-1.6-0.7-2.8-1l0-0.5c1.3,0.1,3.3,0.3,4,0.3c0.6,0,0.8-0.1,1-0.4c1.1-1,1.5-7.2,1.6-16.8h-6.4
							c-1.2,2.3-2.7,4.4-4.3,5.9l-0.4-0.2c1.7-2.8,3.4-7.2,4.3-11.5l3.3,0.9c-0.1,0.3-0.4,0.6-1,0.6c-0.4,1.2-1,2.4-1.5,3.5h5.7
							l1.3-1.4L1144.3,58.7L1144.3,58.7z M1132.4,63.8c7.2,2.9,5.2,7.9,2.8,6c-0.3-1.9-1.8-4.3-3.1-5.8
							C1132.2,64,1132.4,63.8,1132.4,63.8z"/>
						<path class="st0" d="M1169.7,74.2c0,0,1.8,1.4,3,2.4c-0.1,0.3-0.4,0.4-0.8,0.4h-25.2l-0.2-0.8h14.3c1.6-4.3,3.2-10.3,4.2-14.6
							l3.6,1c-0.1,0.4-0.4,0.6-1.1,0.6c-1.2,3.6-3.5,9-5.9,13h6.6L1169.7,74.2L1169.7,74.2z M1147.8,60l-0.2-0.8h19.5l1.6-2
							c0,0,1.8,1.3,2.9,2.3c-0.1,0.3-0.3,0.5-0.8,0.5L1147.8,60L1147.8,60z M1151.9,61.9c7.1,7.8,5.3,15,2.7,12.3
							c0-3.8-1.7-8.7-3.1-12.2L1151.9,61.9L1151.9,61.9z M1156.4,52.9c6.9,2.4,4.9,7.2,2.6,5.5c-0.4-1.8-1.8-3.9-2.9-5.3
							L1156.4,52.9z"/>
						<path class="st0" d="M1197.8,56.7c0,0,1.8,1.3,2.9,2.3c-0.1,0.3-0.4,0.5-0.7,0.5H1186c-0.1,1.7-0.2,3.3-0.5,4.8h8l1.3-1.3
							l2.4,2c-0.2,0.2-0.6,0.4-1.2,0.4c-0.3,6.6-1.1,11.1-2.5,12.4c-0.8,0.7-1.9,1.1-3.4,1.1c0-0.7-0.1-1.3-0.6-1.6
							c-0.5-0.4-1.8-0.8-3-1l0-0.4c1.3,0.1,3.6,0.3,4.3,0.3c0.6,0,0.8-0.1,1.1-0.3c0.9-0.8,1.5-5,1.8-10.8h-8.4
							c-1.1,6.1-3.6,10.8-9.9,14l-0.2-0.3c6.4-4.8,7.9-11.2,8.1-19.2h-8.3l-0.2-0.8h21.5L1197.8,56.7L1197.8,56.7z M1185.1,52.7
							c7.1,1.8,5.3,6.8,2.9,5.1c-0.4-1.7-1.8-3.7-3.2-4.9L1185.1,52.7z"/>
						<path class="st0" d="M1226,74.9c0,0,1.9,1.4,3,2.4c-0.1,0.3-0.3,0.4-0.7,0.4h-25.1l-0.2-0.8h11.7v-8.3h-8.3l-0.2-0.8h8.5v-7.1
							h-6c-1.6,2.7-3.5,5-5.6,6.6l-0.4-0.2c2.4-3.1,4.7-8,6-13.1l3.4,1.1c-0.1,0.3-0.4,0.6-1.1,0.6c-0.6,1.5-1.2,2.9-1.9,4.2h5.5V53
							l3.4,0.4c-0.1,0.4-0.3,0.7-1,0.8v5.7h5.8l1.6-1.9c0,0,1.7,1.3,2.9,2.3c-0.1,0.3-0.4,0.5-0.8,0.5h-9.5v7.1h4.8l1.6-2
							c0,0,1.8,1.4,2.9,2.3c-0.1,0.3-0.4,0.4-0.7,0.4h-8.6v8.3h7.3L1226,74.9L1226,74.9z"/>
						<path class="st0" d="M1231.3,59.6c6.5,0.6,5.1,5.1,2.8,3.8c-0.4-1.3-1.9-2.8-3.1-3.6L1231.3,59.6L1231.3,59.6z M1239.7,58.5
							c-1.2,3.4-3.6,9.8-3.9,11.1c-0.2,0.9-0.5,1.8-0.5,2.5c0.1,1.3,1,2.5,0.8,4.8c-0.1,1.2-0.7,2-1.8,2c-0.5,0-1-0.5-1.1-1.4
							c0.4-2.9,0.3-5.2-0.3-5.6c-0.4-0.3-0.8-0.4-1.4-0.4V71h1.3c0.4,0,0.4,0,0.8-0.6c0.4-0.7,2.3-4.7,5.7-12
							C1239.2,58.4,1239.7,58.5,1239.7,58.5z M1233.3,53.4c6.7,0.7,5.3,5.4,2.9,4.2c-0.5-1.4-1.9-3-3.2-3.9
							C1233.1,53.6,1233.3,53.4,1233.3,53.4z M1254.6,59.9c0,0,1.7,1.3,2.7,2.3c-0.1,0.3-0.4,0.5-0.7,0.5h-7.7v5.5h3.5l1.2-1.3
							l2.5,1.9c-0.2,0.2-0.7,0.5-1.2,0.6V78c0,0.2-1.1,0.7-1.9,0.7h-0.4v-2.2h-9.9v1.5c0,0.2-0.9,0.7-1.9,0.7h-0.3V67.1l2.4,1h3.7
							v-5.5h-7.5l-0.2-0.8h7.8v-5c-2.3,0.3-4.8,0.5-7.1,0.6l-0.1-0.5c4.9-0.8,11-2.4,14.2-3.8l2.5,2.4c-0.3,0.2-0.8,0.2-1.6-0.1
							c-1.6,0.3-3.4,0.7-5.5,1v5.3h4.3L1254.6,59.9L1254.6,59.9z M1242.8,69v6.8h9.9V69H1242.8z"/>
						<path class="st0" d="M1261.4,65.9c0-2.2,1.8-4,4-4s3.9,1.8,3.9,4c0,2.2-1.8,4-3.9,4S1261.4,68.1,1261.4,65.9z M1262.3,65.9
							c0,1.6,1.4,3,3,3s3-1.4,3-3s-1.3-3-3-3S1262.3,64.3,1262.3,65.9z"/>
					</g>
				</g>
			</g>
		</g>
	</g>
</g>
</svg>
