<?xml version="1.0" encoding="UTF-8"?>
<svg id="_圖層_2" data-name="圖層 2" xmlns="http://www.w3.org/2000/svg" viewBox="0 0 579.26 194.6">
  <defs>
    <style>
      .cls-1 {
        fill: #231815;
      }
    </style>
  </defs>
  <g id="_圖層_1-2" data-name="圖層 1">
    <g>
      <path class="cls-1" d="M1.9,3.28l2.72,1.01c.14-1.15,.25-2.77,.31-3.95l4.03,.76c-.11,.45-.45,.67-1.09,.7-.56,.78-1.46,1.85-2.18,2.66h2.32l1.23-1.43,2.72,2.1c-.14,.2-.5,.39-.98,.48v6.64l1.71-.2,.03,.42-1.74,.56v10.19c0,1.93-.39,2.97-3.36,3.25-.03-.81-.14-1.48-.45-1.85-.31-.42-.78-.7-1.79-.9v-.39s1.93,.14,2.38,.14c.42,0,.5-.17,.5-.53V13.8c-1.12,.31-2.35,.64-3.67,.95-.06,4.12-.5,8.62-4.14,11.84l-.36-.2c1.6-3.14,1.79-7.08,1.82-11.03l-.39,.08c-.17,.34-.48,.56-.78,.62l-.73-3,1.9-.06V3.28Zm6.36,1.99h-3.67v7.56l3.67-.31V5.26Zm-2.52,5.96c.03-1.15-.14-3.3-.98-4.79l.36-.2c4.59,3.25,1.79,6.83,.62,4.98Zm-.06,9.07c.11-1.23,.03-3.56-.73-5.18l.39-.17c4.42,3.75,1.43,7.25,.34,5.35ZM13.72,8.82l3.42,1.26h2.44l1.48-1.65,2.77,2.32c-.17,.2-.48,.36-1.04,.42v11.28c0,.31,.06,.45,.34,.45h.42c.2,0,.34,0,.45-.03,.14,0,.28-.06,.42-.31,.2-.45,.62-2.27,.98-3.81h.31l.11,4c.67,.34,.78,.64,.78,1.2,0,1.09-.98,1.74-3.33,1.74h-1.15c-1.96,0-2.21-.67-2.21-2.44V10.89h-3.25v4.73c0,3.67-.48,8.23-5.99,11.09l-.25-.28c2.97-3.08,3.3-7,3.3-10.78v-6.83Zm12.82-2.55c-.08,.31-.39,.45-.76,.45H11.73l-.22-.78h10.16l1.74-2.41s1.99,1.65,3.14,2.74Zm-9.38-1.18c-.14-1.6-1.06-3.42-2.07-4.56l.28-.17c7.34,1.32,4.59,6.92,1.79,4.73Z"/>
      <path class="cls-1" d="M34.1,4.51h7.84c-.25-.08-.48-.22-.7-.42,0-1.34-.64-2.83-1.34-3.72l.2-.14c5.6,.42,5.35,3.47,3.64,4.28h7.17l1.82-1.85,3.14,3c-.22,.25-.5,.31-1.09,.34-1.01,.98-2.74,2.27-4.12,3l-.22-.2c.25-.95,.53-2.38,.7-3.5h-3.53v3.84c0,.76,.03,.76,.78,.76h3.98c.2,0,.5,0,.87-.11h.22l.17,.03c.98,.36,1.15,.5,1.15,.98,0,1.15-.67,1.62-3.53,1.62h-3.36c-3.22,0-3.5-.34-3.5-3.28v-3.84h-10.11c.34,2.18-.39,3.72-1.43,4.31-.98,.62-2.27,.34-2.66-.73-.34-1.04,.31-1.85,1.2-2.27,.95-.59,1.9-2.16,1.68-3.86l.39-.03c.28,.64,.5,1.23,.64,1.79Zm21.5,20.05c-.08,.31-.36,.45-.78,.45H30.72l-.25-.81h10.44v-8.01h-7.2l-.22-.81h14.53l1.68-2.21s1.85,1.51,2.94,2.58c-.06,.31-.34,.45-.76,.45h-7.59v8.01h6.38l1.76-2.38s1.99,1.62,3.16,2.74ZM31.02,14.03l-.17-.31c4.82-2.21,6.97-5.18,7.84-8.43l4.2,2.04c-.11,.36-.42,.59-1.32,.59-2.02,3.11-5.1,5.38-10.56,6.1Z"/>
      <path class="cls-1" d="M85.37,10.67c-.14,.34-.42,.5-1.15,.48-.84,2.69-1.85,4.98-3.05,6.97,.48,1.26,1.06,2.41,1.79,3.39,.31,.48,.45,.45,.73-.06,.39-.7,.98-2.07,1.43-3.22l.31,.06-.62,4.76c.76,1.76,.92,2.77,.39,3.14-1.43,.98-3.47-.5-4.31-1.79-.73-1.06-1.32-2.21-1.82-3.42-1.99,2.27-4.48,3.98-7.59,5.35l-.25-.42c2.97-1.93,5.24-4.23,7-7.25-1.06-3.47-1.51-7.39-1.71-11.62h-5.68v4.28h1.96l1.43-1.43,2.66,2.18c-.17,.2-.5,.39-1.04,.48-.11,5.43-.34,7.9-1.43,8.82-.64,.53-1.48,.7-2.46,.73,0-.59-.08-1.26-.36-1.6-.31-.39-.95-.76-1.71-.95v-.2c-.92,2.66-2.69,5.24-6.1,7.17l-.25-.28c2.72-2.86,3.72-6.24,4.09-9.72-1.48,1.2-3.61,2.86-6.52,4.82-.08,.36-.36,.67-.7,.81l-1.68-3.75c.67-.14,1.76-.45,3.08-.81V9.1h-2.49l-.22-.81h2.72V.84l4.12,.39c-.06,.39-.28,.67-1.04,.78v6.19l1.29-2.16s.87,.9,1.65,1.76v-2.86l3.5,1.26h5.15c-.06-1.79-.08-3.64-.08-5.52l4.06,.42c0,.14-.06,.31-.2,.42,4.56,.11,4.51,2.69,3.14,3.39,.62,.48,1.43,1.12,2.02,1.65-.08,.31-.36,.45-.76,.45h-5.21c.08,2.58,.28,5.12,.73,7.45,.56-1.54,1.06-3.22,1.48-5.07l3.72,1.26Zm-20.5,6.02l2.83-.87c.08-1.18,.11-2.35,.11-3.5v-3.22h-2.94v7.59Zm5.96-4.37c0,2.1-.11,4.51-.9,6.86l2.04,.11c.22,0,.34-.06,.45-.2,.39-.5,.53-2.58,.62-6.97h-2.21v.2Zm10.78-7.56c-.25-1.09-1.06-2.24-1.76-2.94l-.42,.08c-.03,1.43-.06,2.88-.03,4.31h1.51l1.01-1.29-.31-.17Z"/>
      <path class="cls-1" d="M102.73,5.94c-.08,.31-.36,.45-.78,.45h-13.08l-.22-.78h9.63l1.57-2.04s1.79,1.4,2.88,2.38Zm-1.34,3.64c-.06,.31-.36,.45-.76,.45h-10.58l-.22-.78h7.22l1.54-1.99s1.76,1.37,2.8,2.32Zm0,3.64c-.06,.31-.36,.45-.76,.45h-10.58l-.22-.78h7.22l1.54-1.99s1.76,1.34,2.8,2.32Zm-10.75,12.99h-.42V15.48l3.02,1.23h3.81l1.4-1.54,2.97,2.27c-.17,.2-.56,.45-1.12,.56v6.38c-.03,.2-1.46,.81-2.49,.81h-.48v-1.57h-4.2v1.62c0,.28-1.29,.95-2.49,.95Zm3.47-21.42c-.17-1.48-1.06-3.08-1.96-4.03l.22-.17c7.53,.39,4.76,6.24,1.74,4.2Zm3.22,12.74h-4.2v5.29h4.2v-5.29ZM108.84,1.68V10.58h1.2l1.62-2.18s1.88,1.51,2.97,2.52c-.06,.31-.36,.45-.76,.45h-5.04v14c0,.34-1.37,1.15-2.6,1.15h-.62V11.37h-4.34l-.22-.78h4.56V.48l4.26,.42c-.06,.39-.28,.67-1.04,.78Z"/>
      <path class="cls-1" d="M138.77,24.89l1.88-2.27s2.16,1.54,3.47,2.6c-.08,.31-.39,.45-.81,.45h-25.28l-.22-.78h20.97Zm-10.14-16.66v-1.88h-10.44l-.22-.81h10.67v-1.85h-6.83l-.25-.81h7.08V.28l4.2,.36c-.06,.36-.25,.62-.92,.73v1.51h3.98l1.46-1.54,3.08,2.27c-.17,.2-.53,.42-1.04,.53v1.4h.59l1.54-2.02s1.74,1.37,2.77,2.38c-.08,.31-.36,.45-.76,.45h-4.14v2.49c0,.11-.42,.31-.98,.5,.56,.42,1.79,1.32,2.66,2.04-.08,.31-.36,.45-.76,.45h-8.4v1.99h7.5l1.62-2.02s1.85,1.37,3,2.35c-.06,.31-.36,.45-.76,.45h-25.2l-.22-.78h10.78v-1.99h-7.73l-.22-.78h7.95v-2.04h-6.86l-.25-.78h7.11Zm-6.55,6.83l3.47,1.34h10.58l1.51-1.57,3.08,2.32c-.14,.2-.53,.42-1.01,.53v5.18c-.03,.22-1.65,.9-2.72,.9h-.59v-.87h-11.09v.5c0,.31-1.46,.98-2.77,.98h-.48V15.06Zm7.14,4.17v-2.02h-3.89v2.02h3.89Zm-3.89,2.88h3.89v-2.1h-3.89v2.1Zm10.81-16.58v-1.85h-4.23v1.85h4.23Zm-4.23,2.69h4.23v-1.88h-4.23v1.88Zm4.56,2.83l1.26-1.51c-.36,.08-.73,.14-1.04,.14h-.56v-.67h-4.23v2.04h4.56Zm-.06,6.16h-4.09v2.02h4.09v-2.02Zm-4.09,2.8v2.1h4.09v-2.1h-4.09Z"/>
      <path class="cls-1" d="M162.06,1.6V6.5h6.05l1.57-1.74,3.3,2.52c-.17,.22-.56,.48-1.12,.59v9.24c-.03,.2-1.76,.81-2.91,.81h-.59v-2.32h-6.3v9.77c0,.39-1.51,1.23-2.83,1.23h-.67V15.6h-6.24v1.62c0,.36-1.51,1.15-2.94,1.15h-.5V5.04l3.72,1.46h5.96V.34l4.54,.45c-.06,.39-.28,.7-1.04,.81Zm-3.5,13.19V7.31h-6.24v7.48h6.24Zm9.8-7.48h-6.3v7.48h6.3V7.31Z"/>
      <path class="cls-1" d="M185.11,2.18c-.73,1.01-1.85,2.44-2.74,3.53h2.44l1.51-1.65,3.02,2.38c-.2,.25-.59,.45-1.15,.59V23.72c-.03,.22-1.51,.9-2.6,.9h-.5v-2.18h-4.26v2.04c0,.36-1.15,1.09-2.49,1.09h-.5V4.4l3.11,1.32h.17c.22-1.48,.48-3.72,.59-5.29l4.56,1.09c-.14,.48-.5,.67-1.15,.67Zm-4.28,4.34v6.94h4.26V6.52h-4.26Zm0,15.12h4.26v-7.36h-4.26v7.36Zm14.53-19.4c-.48,1.2-.98,2.32-1.54,3.39h4.42l1.76-1.82,2.97,2.63c-.22,.25-.56,.45-1.23,.53-.2,11.28-.59,16.41-2.13,18.09-.98,1.04-2.21,1.48-4.06,1.48,0-1.06-.14-1.85-.62-2.32-.5-.5-1.6-.95-2.94-1.23l.03-.39c1.32,.11,3.28,.25,3.98,.25,.5,0,.76-.08,1.04-.36,1.04-.95,1.32-6.52,1.51-16.04h-5.18c-1.37,2.38-2.97,4.37-4.76,5.91l-.34-.22c1.51-2.91,3.05-7.45,3.78-11.73l4.4,1.29c-.11,.34-.45,.59-1.09,.56Zm-2.58,15.06c-.14-1.99-1.23-4.26-2.38-5.8l.25-.17c8.15,2.38,5.1,8.46,2.13,5.96Z"/>
      <path class="cls-1" d="M218.32,.28V1.37h-7.87V18.2h-1.15V.28h9.02Z"/>
      <path class="cls-1" d="M223.22,11.34c-.25-1.4-1.18-3-2.07-3.98l.25-.2c7.25,.9,4.59,6.22,1.82,4.17Zm.39,6.19q.5-1.01,4.68-12.32l.48,.08c-.81,3.42-2.32,9.74-2.6,11.26-.17,.92-.34,1.9-.31,2.63,.06,1.48,1.18,2.58,1.06,5.1-.06,1.37-.92,2.3-2.18,2.3-.64,0-1.26-.39-1.46-1.46,.53-2.91,.39-5.57-.22-6.02-.39-.25-.81-.39-1.4-.45v-.53h1.2c.39,0,.48,0,.76-.59Zm1.46-12.66c-.28-1.51-1.29-3.14-2.18-4.17l.22-.17c7.59,.9,4.84,6.41,1.96,4.34Zm19.15,4.73c-1.74,1.01-3.98,1.99-6.5,2.8h4.06l1.51-1.71,2.88,2.21c-.2,.22-.45,.39-1.06,.5v7.95c0,.17-1.04,.7-2.66,.7h-.56v-.73h-7.7v.59c0,.2-.95,.73-2.52,.73h-.53V14.03c-1.2,.2-2.41,.39-3.64,.5l-.11-.42c1.26-.28,2.52-.62,3.75-1.01v-1.57c-.92,.34-1.93,.64-2.94,.84l-.17-.36c1.99-1.06,4-3,4.9-4.37l3.3,1.71c-.2,.31-.62,.42-1.4,.31-.78,.59-1.9,1.18-3.14,1.68l2.16,.81c.9-.34,1.76-.7,2.6-1.09v-3.75h-4.42l-.11-.45c-1.15,1.82-4.14,.45-2.32-1.76,.87-.39,1.57-1.34,1.74-2.83h.36c.2,.53,.34,1.01,.45,1.46h5.43c-.22-.08-.48-.2-.7-.39,0-1.15-.62-2.44-1.29-3.16l.22-.17c5.01,.25,4.65,3.14,3.02,3.72h4.82l1.51-1.54,2.66,2.58c-.22,.22-.5,.28-1.06,.31-.59,.5-1.57,1.23-2.32,1.76l.06,.03c-.06,.31-.34,.45-.73,.45h-1.06l3.08,2.13c-.22,.28-.73,.39-1.57,.17Zm-7.06,14.48c-2.13,1.12-5.57,2.1-9.04,2.41l-.11-.36c2.91-1.04,5.94-3,7.39-4.59l3.33,2.38c-.22,.28-.76,.36-1.57,.17Zm6.61-17.84l.14-1.71h-11.65c.11,.84,.03,1.51-.17,1.99h8.4l1.4-1.82,1.88,1.54Zm-9.58,8.9h7.7v-1.93h-7l-.7,.17v1.76Zm7.7,2.69v-1.88h-7.7v1.88h7.7Zm0,2.69v-1.9h-7.7v1.9h7.7Zm1.96,5.32c-.9-1.12-2.63-2.41-5.29-3.33l.11-.36c12.82,.5,7.7,5.91,5.18,3.7Zm-1.2-18.54h-3.25v2.24c1.29-.73,2.41-1.48,3.25-2.24Z"/>
      <path class="cls-1" d="M252.76,11.03c-.25-1.37-1.23-2.83-2.1-3.72l.22-.2c7.17,.53,4.65,5.8,1.88,3.92Zm.48,6.55q.53-1.06,5.26-12.74l.45,.11c-.98,3.53-2.72,10.02-3.02,11.59-.22,.95-.42,1.96-.39,2.69,.06,1.51,1.18,2.55,1.09,5.07-.06,1.37-.92,2.32-2.27,2.32-.64,0-1.26-.39-1.48-1.46,.53-2.94,.39-5.6-.25-6.02-.39-.28-.81-.39-1.43-.45v-.53h1.23c.42,0,.53-.03,.81-.59Zm1.68-12.71c-.31-1.48-1.37-3.05-2.27-4.09l.22-.17c7.59,.73,4.98,6.27,2.04,4.26Zm22.06-.48c-.06,.31-.36,.45-.76,.45h-12.63c-.36,.59-.76,1.18-1.2,1.76l2.27,1.09h6.24l1.68-1.71,2.8,2.46c-.2,.25-.59,.45-1.2,.53l-.17,5.12,1.23-2.04s1.51,1.54,2.32,2.55c-.08,.31-.34,.45-.73,.45h-2.88c-.11,2.32-.25,4.14-.45,5.6l1.26-2.02s1.46,1.43,2.24,2.38c-.08,.31-.34,.45-.7,.45h-2.91c-.34,2.1-.81,3.28-1.48,3.95-.92,.95-2.16,1.2-3.61,1.2,0-.81-.06-1.46-.39-1.88-.39-.48-1.09-.76-2.07-.98v-.39c.87,.06,2.18,.14,2.74,.14,.45,0,.73-.08,.98-.34,.28-.25,.53-.81,.73-1.71h-8.12l-1.09,1.37-2.94-1.74c.22-.22,.59-.45,.98-.64,.28-1.43,.59-3.36,.9-5.4h-2.77l-.22-.81h3.11c.25-1.96,.5-4,.67-5.74-.9,.95-1.88,1.82-2.91,2.52l-.28-.22c1.93-2.49,3.53-6.86,4.2-10.44l4.4,1.26c-.11,.28-.34,.42-1.04,.34-.31,.67-.67,1.37-1.06,2.07h8.12l1.71-2.3s1.93,1.57,3.05,2.66Zm-5.99,10.67h-7.98c-.28,2.02-.62,4.03-.9,5.6h8.34c.22-1.32,.39-3.16,.53-5.6Zm.22-6.58h-7.31c-.2,1.57-.45,3.64-.76,5.77h7.87c.08-1.68,.14-3.58,.2-5.77Zm-4.79,11.12c-.11-1.32-.98-2.91-1.79-3.86l.25-.17c6.19,1.43,3.81,5.82,1.54,4.03Zm.5-6.36c-.28-1.23-1.2-2.74-1.96-3.64l.28-.17c5.99,1.2,3.86,5.38,1.68,3.81Z"/>
      <path class="cls-1" d="M290.08,1.68c-.11,.36-.48,.62-1.12,.59-.87,2.3-1.88,4.37-3.05,6.24l2.07,.76c-.11,.25-.36,.45-.9,.56v15.79c-.03,.25-1.37,.92-2.66,.92h-.62V11.42c-1.15,1.4-2.38,2.6-3.7,3.64l-.34-.22c2.3-3.53,4.65-9.07,5.77-14.53l4.54,1.37Zm9.21-.5c-.06,.39-.25,.67-1.04,.78V7.81h3l1.82-2.41s2.1,1.62,3.36,2.74c-.08,.31-.36,.45-.78,.45h-6.89c1.46,4.82,4.73,8.15,8.15,10.08l-.06,.39c-1.48,.84-2.38,2.1-2.6,3.61-3.11-3.11-5.04-8.15-5.99-13.66V25.34c0,.36-1.43,1.15-2.66,1.15h-.62V14.39c-1.76,3.28-4.28,6.1-7.53,8.37l-.31-.28c3.22-3.61,5.4-8.88,6.47-13.89h-5.46l-.22-.78h7.06V.73l4.31,.45Z"/>
      <path class="cls-1" d="M311.14,.98l3.33,1.43h3.61l1.4-1.51,2.91,2.18c-.14,.2-.5,.45-1.01,.53v6.94c-.03,.25-1.48,.87-2.52,.87h-.5v-1.51h-4.03v15.46c0,.42-1.18,1.23-2.66,1.23h-.53V.98Zm3.19,2.21v2.49h4.03V3.19h-4.03Zm0,5.91h4.03v-2.6h-4.03v2.6Zm3.58,2.86l3.16,1.2h3.47l1.29-1.51,2.94,2.21c-.17,.22-.59,.48-1.18,.56v7.53c0,1.9-.42,3-3.5,3.28-.06-.84-.17-1.48-.5-1.9-.34-.39-.84-.73-1.93-.9v-.39s2.04,.14,2.66,.14c.39,0,.5-.17,.5-.5v-1.79h-4.48c-.45,1.9-1.54,3.86-4.09,5.24l-.25-.28c1.79-2.32,1.9-5.32,1.9-7.98v-4.9Zm2.6,7.11h4.31v-2.21h-4.17c0,.67-.03,1.43-.14,2.21Zm.14-3.02h4.17v-2.1h-4.17v2.1Zm3.11-14.92l3.19,1.29h3.81l1.48-1.74,3.19,2.46c-.2,.22-.59,.48-1.15,.59V22.76c0,2.27-.45,3.53-3.98,3.84-.06-1.06-.2-1.88-.53-2.35-.36-.48-.9-.84-2.07-1.06v-.36s2.27,.14,2.8,.14c.42,0,.53-.2,.53-.56V9.91h-4.2v.45c0,.31-1.37,.98-2.66,.98h-.42V1.12Zm3.08,2.07v2.49h4.2V3.19h-4.2Zm0,5.91h4.2v-2.6h-4.2v2.6Z"/>
      <path class="cls-1" d="M363.89,2.69c-.08,.31-.36,.45-.76,.45h-19.46V21.73c0,1.23,.73,1.62,3.19,1.62h6.78c2.38,0,4.54-.06,5.4-.11,.53-.03,1.18-.11,1.62-.17,.42-.06,1.01-.2,1.62-.42h.28l.17,.06c1.57,.25,1.93,.73,1.93,1.26,0,1.54-1.85,1.82-11.28,1.82h-6.19c-4.56,0-6.55-.48-6.55-3.64V3.14h-1.01l-.22-.81h19.77l1.68-2.21s1.88,1.51,3.02,2.58Zm-18.23,19.85h-.39V13.08l2.8,1.12h1.9l1.26-1.32,2.6,1.96c-.14,.2-.45,.39-.9,.48v5.88c-.03,.2-1.4,.7-2.27,.7h-.48v-1.4h-2.24v1.23c0,.22-1.18,.81-2.3,.81Zm2.52-9.74h-.45V4.06l3.25,1.26h5.18l1.43-1.51,3,2.24c-.17,.2-.5,.42-1.04,.5v5.04c-.03,.17-1.6,.76-2.58,.76h-.56v-1.29h-5.57v.78c0,.28-1.4,.95-2.66,.95Zm2.02,2.21h-2.24v4.68h2.24v-4.68Zm6.22-8.88h-5.57v4.12h5.57V6.13Zm-1.46,15.99h-.39V13.08l2.86,1.12h1.93l1.29-1.34,2.69,2.02c-.14,.2-.48,.39-.92,.48v5.71c-.03,.2-1.43,.73-2.32,.73h-.48v-1.29h-2.32v.78c0,.25-1.2,.84-2.32,.84Zm4.65-7.11h-2.32v4.68h2.32v-4.68Z"/>
      <path class="cls-1" d="M368.4,26.66v-1.09h7.87V8.74h1.15V26.66h-9.02Z"/>
      <path class="cls-1" d="M387.21,16.83c1.76-.87,2.86-1.74,3.39-3.3-2.1-.87-3-1.82-3-3.02,0-1.34,1.04-2.41,2.46-2.41,.84,0,1.46,.17,2.07,.7,.34,.84,.42,1.34,.42,2.21,0,3.42-1.93,5.74-4.98,6.64l-.36-.81Z"/>
      <path class="cls-1" d="M409.98,2.13V20.69l2.91-.5,.06,.31c-2.27,1.29-5.77,3.05-11,5.26-.14,.39-.45,.64-.78,.76l-1.68-4.17c1.4-.17,4.09-.56,7.28-1.09V10.22h-6.38l-.25-.81h6.64V.92l4.26,.42c-.06,.39-.28,.67-1.04,.78Zm7.31,.03v7.28h3.14l1.76-2.88s1.99,1.99,3.02,3.25c-.06,.31-.36,.45-.76,.45h-7.17v11.06c0,.62,.22,.87,1.06,.87h1.96c.73,0,1.34-.03,1.68-.03,.31-.06,.53-.14,.76-.42,.34-.5,.81-2.21,1.29-3.95h.31l.08,4.14c.9,.39,1.18,.78,1.18,1.37,0,1.4-1.29,2.02-5.6,2.02h-2.41c-2.77,0-3.58-.64-3.58-3.05V.92l4.26,.45c-.03,.36-.28,.67-.98,.78Z"/>
      <path class="cls-1" d="M438.96,11.34c-.08,.36-.31,.67-1.04,.78v3.95h.59l1.54-2.3s1.76,1.57,2.77,2.63c-.06,.31-.36,.45-.76,.45h-4.14v5.8c1.29,.25,2.83,.31,4.65,.31,2.83,0,9.74,0,12.66-.08v.34c-1.18,.28-1.74,1.37-1.76,2.58h-10.92c-5.43,0-8.34-1.18-10-6.05-.64,2.58-1.82,5.04-3.95,6.89l-.28-.28c2.02-3.7,2.41-9.38,2.13-13.72l4,.7c-.08,.42-.42,.67-1.06,.73-.11,1.48-.25,3.02-.59,4.56,.59,1.23,1.29,2.13,2.13,2.77V10.92l4.03,.42Zm-4.7-1.4V5.63h-4.28l-.22-.81h4.51V.34l4.03,.36c-.03,.34-.22,.59-.9,.7v3.42h.76l1.54-2.04s1.79,1.4,2.86,2.41c-.08,.31-.36,.45-.76,.45h-4.4v4.31h1.2l1.57-2.16s1.79,1.46,2.88,2.49c-.08,.31-.39,.45-.78,.45h-13.33l-.22-.78h5.54Zm8.9-8.54l3.36,1.32h3.25l1.51-1.68,3.25,2.44c-.2,.22-.62,.5-1.2,.62v7.64c-.06,.2-1.65,.76-2.72,.76h-.53v-1.76h-3.95v6.58c0,.5,.2,.7,1.06,.7h2.18c.84,0,1.57-.03,1.9-.06,.31-.03,.53-.11,.7-.34,.31-.45,.73-1.88,1.18-3.42h.31l.11,3.53c.84,.36,1.06,.73,1.06,1.26,0,1.29-1.26,1.93-5.54,1.93h-2.6c-2.69,0-3.33-.62-3.33-2.83V1.4Zm6.92,2.1h-3.95v6.44h3.95V3.5Z"/>
      <path class="cls-1" d="M470.6,5.99c-.06,.31-.36,.45-.76,.45h-11.37l-.22-.81h8.2l1.46-1.9s1.68,1.32,2.69,2.27Zm-1.34,3.61c-.06,.31-.36,.45-.73,.45h-9.02l-.22-.78h5.99l1.4-1.82s1.6,1.26,2.58,2.16Zm0,3.7c-.06,.31-.36,.45-.73,.45h-9.02l-.22-.81h5.99l1.4-1.82s1.6,1.26,2.58,2.18Zm-9.13,12.99h-.42V15.46l3,1.2h2.94l1.37-1.51,2.91,2.21c-.17,.2-.53,.42-1.09,.53v6.41c-.03,.22-1.43,.84-2.44,.84h-.48v-1.46h-3.33v1.68c0,.28-1.26,.92-2.46,.92Zm3.05-21.59c-.2-1.4-1.09-2.97-1.96-3.89l.2-.14c7.42,.36,4.73,6.05,1.76,4.03Zm2.74,12.74h-3.33v5.43h3.33v-5.43Zm18.4-2.8c-.08,.31-.34,.45-.73,.45h-5.63v10.47c0,.25-.95,1.06-2.66,1.06h-.56V15.09h-5.77l-.22-.81h5.99V6.05h-1.15c-1.18,2.24-2.63,4.09-4.37,5.43l-.34-.2c1.26-2.77,2.3-6.94,2.69-10.92l4.73,1.23c-.11,.34-.45,.59-1.12,.59-.36,1.09-.76,2.1-1.2,3.05h4.93l1.68-2.18s1.9,1.51,3.02,2.55c-.06,.31-.36,.45-.76,.45h-4.9V14.28h1.96l1.6-2.32s1.79,1.62,2.8,2.69Z"/>
      <path class="cls-1" d="M489.78,.9l3.7,1.57h15.04l1.85-2.32s2.1,1.57,3.39,2.66c-.08,.31-.42,.45-.81,.45h-19.96v6.08c0,5.18-.22,12.52-5.29,17.3l-.31-.2c2.3-5.15,2.41-11.59,2.41-17.08V.9Zm18.56,3.08c-.06,.36-.25,.62-.92,.73v2.74h.84l1.54-2.21s1.74,1.54,2.74,2.58c-.08,.31-.36,.45-.76,.45h-4.37v4.03h1.85l1.54-2.27s1.79,1.6,2.8,2.63c-.06,.31-.36,.45-.76,.45h-19.38l-.22-.81h4.4v-4.03h-3.61l-.22-.81h3.84V3.64l4.09,.34c-.06,.36-.25,.62-.92,.73v2.74h3.42V3.64l4.12,.34Zm-12.38,10l3.44,1.37h6.61l1.54-1.71,3.19,2.46c-.17,.22-.56,.48-1.12,.59v8.9c-.03,.2-1.68,.81-2.77,.81h-.56v-1.6h-7.06v.78c0,.34-1.43,1.06-2.8,1.06h-.48V13.97Zm10.33,2.16h-7.06v3.47h7.06v-3.47Zm-7.06,4.26v3.64h7.06v-3.64h-7.06Zm4.98-8.09v-4.03h-3.42v4.03h3.42Z"/>
      <path class="cls-1" d="M518.78,10.89c-.2-1.46-1.15-3.08-2.1-4.09l.22-.17c7.14,1.04,4.54,6.24,1.88,4.26Zm.31,6.69q.56-.98,5.01-10.95l.45,.08-.92,3.08h4.23v-3.95h-3.61l-.22-.81h3.84V.56l4.03,.34c-.06,.42-.31,.7-1.04,.81v3.33h3.22V.56l4.17,.36c-.06,.39-.28,.67-1.04,.78v3.33h1.09l1.6-2.21s1.85,1.51,2.94,2.58c-.08,.31-.39,.45-.78,.45h-4.84v3.95h1.4l1.68-2.3s1.9,1.57,3.02,2.63c-.06,.31-.36,.45-.76,.45h-6.44c1.71,2.16,4.62,3.72,7.39,4.45l-.06,.31c-1.18,.28-2.07,1.34-2.46,3-1.37-.84-2.52-1.96-3.44-3.3v4.62c-.03,.17-1.57,.59-2.49,.59h-.5v-1.32h-4.56v3.61c0,.5,.17,.62,1.34,.62h3.53c1.29,0,2.41,0,2.94-.03,.42-.03,.67-.11,.87-.39,.34-.48,.78-1.68,1.29-3.3h.31l.11,3.39c.95,.36,1.2,.7,1.2,1.26,0,1.4-1.34,1.93-7.03,1.93h-3.7c-3.16,0-4-.53-4-2.77v-7.17c-1.37,1.09-2.91,2.04-4.65,2.83l-.25-.36c2.07-1.6,3.72-3.72,4.9-5.99,.34-.64,.64-1.32,.9-1.96h-3.95l-.2-.67c-.81,2.8-1.71,5.88-1.93,6.83-.2,.87-.39,1.82-.36,2.52,.08,1.48,1.15,2.55,1.06,5.01-.06,1.4-.95,2.3-2.24,2.3-.64,0-1.23-.42-1.46-1.46,.53-2.94,.39-5.54-.25-5.96-.36-.28-.78-.39-1.4-.45v-.56h1.23c.39,0,.5,0,.84-.56Zm1.93-12.49c-.28-1.54-1.37-3.25-2.3-4.34l.22-.2c7.42,1.15,4.87,6.55,2.07,4.54Zm14.62,7.39l.78,.59c-.36-.78-.67-1.6-.95-2.49h-4.14c-.5,1.06-1.15,2.04-1.88,2.97l.9,.34h3.95l1.34-1.4Zm-1.09,2.21h-4.56v3.42h4.56v-3.42Zm-.48-4.9v-3.95h-3.22v3.95h3.22Z"/>
      <path class="cls-1" d="M548.16,11.03c-.25-1.37-1.23-2.83-2.1-3.72l.22-.2c7.17,.53,4.65,5.8,1.88,3.92Zm.48,6.52q.53-1.04,5.15-12.71l.45,.11c-.95,3.53-2.63,10.02-2.94,11.56-.2,.98-.39,1.99-.36,2.72,.06,1.51,1.18,2.55,1.09,5.07-.06,1.37-.95,2.32-2.27,2.32-.64,0-1.26-.39-1.48-1.46,.53-2.91,.39-5.6-.25-6.02-.36-.28-.81-.39-1.43-.45v-.53h1.23c.42,0,.53-.03,.81-.62Zm1.68-12.68c-.31-1.48-1.37-3.05-2.27-4.09l.22-.17c7.59,.73,4.98,6.27,2.04,4.26Zm5.32,21.62c-.84,.48-2.07,.28-2.38-.67-.31-.92,.25-1.65,1.09-2.04,.84-.5,1.79-1.82,1.71-3.16h.39c1.18,2.97,.39,5.12-.81,5.88Zm3.05-24.39h8.34l1.46-1.65,2.83,2.13c-.17,.25-.45,.42-1.04,.5v6.22c0,.14-1.01,.64-2.58,.64h-.22l1.99,.95c-.11,.25-.45,.48-1.01,.36-.92,.78-2.3,1.71-3.61,2.38l2.86-.08c.53-.64,.95-1.26,1.23-1.76l3.11,1.62c-.14,.25-.48,.48-1.06,.36-1.43,1.34-3.84,3.05-6.08,4.28l4.62-.17c-.28-.78-.64-1.48-1.01-2.04l.31-.14c5.43,2.04,3.05,6.1,1.09,4.28,0-.48-.08-.98-.22-1.51-1.32,.48-3.36,1.18-5.49,1.79-.14,.22-.31,.39-.48,.48l-1.32-2.69s.53-.11,.76-.25c1.09-.59,2.38-1.79,3.5-3.02l-2.44,.84c-.17,.34-.39,.53-.62,.64l-1.18-2.38-.39-.06c-.73,.67-1.71,1.46-2.77,2.21-1.09,.76-2.27,1.48-3.39,2.07l4.23-.14c-.22-.73-.53-1.4-.84-1.93l.31-.14c4.87,1.9,2.58,5.6,.78,3.92,.03-.36-.03-.76-.08-1.15-1.32,.48-3.19,1.12-5.15,1.71-.14,.2-.28,.34-.45,.42l-1.29-2.69s.5-.11,.76-.22c1.12-.62,2.44-1.79,3.56-3.05l-2.38,.81c-.14,.31-.34,.5-.56,.59l-1.29-2.6s.45-.11,.64-.2c1.06-.56,2.32-2.18,3.05-3.36-.34,.08-.76,.14-1.23,.14h-.53V.81l3.28,1.29Zm.98,9.18c-.95,.78-2.38,1.71-3.72,2.38l2.83-.06c.53-.64,.98-1.26,1.26-1.76l2.97,1.57c1.29-.7,2.8-2.91,3.33-4.03l.81,.39v-.7h-8.74v.42c0,.06-.06,.11-.2,.2l2.49,1.2c-.11,.25-.45,.48-1.04,.39Zm7.48-6.02V2.91h-8.74v2.35h8.74Zm0,3.02v-2.21h-8.74v2.21h8.74Zm-7.73,17.36c.22-1.6-.06-3.5-.48-4.82l.34-.11c5.18,3.08,2.04,7.2,.14,4.93Zm4.68-.11c.2-1.62-.36-3.5-1.12-4.73l.28-.17c6.3,2.44,3.14,7.28,.84,4.9Zm5.4,.45c-.08-1.82-1.15-3.95-2.24-5.32l.25-.17c7.59,2.1,4.73,7.81,1.99,5.49Z"/>
      <path class="cls-1" d="M10.64,50.71v-4.37l4.06,.42c-.03,.36-.31,.67-.98,.76v4.45l2.41-1.06v-8.6l4.03,.39c-.06,.39-.28,.67-1.04,.78v6.1l2.77-1.2,.08-.03,1.43-1.46,2.66,2.77c-.22,.25-.53,.34-1.12,.39-.64,2.74-1.88,6.75-3.39,9.44l-.31-.17c.36-3.08,.59-7.22,.62-10.02l-2.74,1.18v11.17c0,.28-1.29,.92-2.44,.92h-.56v-10.81l-2.41,1.06v10.95c0,.78,.36,1.04,1.76,1.04h3.78c1.43,0,2.58-.03,3.14-.06,.45-.03,.76-.14,.98-.45,.36-.53,.87-1.93,1.46-3.86h.31l.11,4c1.01,.36,1.32,.7,1.32,1.26,0,1.48-1.46,1.99-7.59,1.99h-3.84c-3.33,0-4.51-.59-4.51-3.16v-10.39l-2.44,1.06-.53-.62,2.97-1.29v-2.46c-.06,.25-.34,.36-.64,.36h-3.44v8.68l3.81-1.01,.08,.31c-1.62,1.23-4.14,3.02-7.87,5.24-.11,.39-.36,.67-.7,.78L.03,61.46c.76-.14,1.93-.42,3.39-.76v-9.49H.45l-.22-.78H3.42v-7.5l4.17,.39c-.08,.39-.28,.67-1.04,.78v6.33h.48l1.32-2.24s1.51,1.51,2.3,2.52Z"/>
      <path class="cls-1" d="M40.29,46.2c-2.63,5.43-6.27,8.9-10.67,11.14l-.31-.25c3.02-2.91,6.1-7.84,7.64-13.19l4.51,1.82c-.14,.34-.5,.56-1.18,.48Zm10.08,21.64c-.22-1.23-.67-2.55-1.23-3.81-3.5,1.15-8.23,2.46-14.08,3.72-.28,.42-.62,.7-.98,.81l-1.43-4.28s.87-.2,1.18-.48c2.1-2.02,5.26-8.2,6.16-11.7l4.79,1.76c-.14,.34-.48,.56-1.09,.53-1.85,3.16-5.46,7.39-8.57,10,3.3-.17,8.43-.62,13.61-1.23-.92-1.88-2.16-3.7-3.39-5.15l.31-.17c11.31,4.51,8.57,13.02,4.73,10Zm-4.26-25.79l2.91,1.99c-.36,.42-1.32,.64-2.49,.73,1.32,4.03,4.76,7.53,9.66,9.16l-.08,.34c-1.43,.5-2.58,1.85-2.94,3.22-4.12-2.77-6.47-7.14-7.36-12.91h-3.25l-.25-.81h2.74l1.06-1.71Z"/>
      <path class="cls-1" d="M61.15,68.57h-.56v-25.93l3.53,1.48h16.18l1.6-1.79,3.14,2.52c-.2,.25-.56,.48-1.15,.59v21.9c-.03,.28-1.57,1.06-2.77,1.06h-.53v-2.1h-16.74v1.01c0,.45-1.29,1.26-2.69,1.26Zm2.69-3.08h16.74v-20.58h-16.74v20.58Zm2.66-7.06h-.39v-6.24l2.83,1.12h6.22l1.2-1.26,2.58,1.88c-.14,.17-.42,.36-.81,.42v3.02c0,.06-.14,.17-.36,.25l2.07,1.88c-.17,.2-.42,.25-.92,.06-.53,.22-1.37,.48-2.21,.7,4.34,2.27,2.6,5.32,.62,4.17-.73-1.29-2.86-3.53-5.63-5.32l.2-.36c1.43,.25,2.6,.59,3.58,.98,.56-.59,1.15-1.29,1.62-1.85-.42,.11-.87,.2-1.23,.2h-.48v-.53h-2.58c-.64,.7-1.43,1.32-2.32,1.85v2.77l3.5-.92,.11,.36c-1.01,.64-3.02,1.96-5.18,3.22-.17,.28-.39,.5-.59,.62l-1.46-2.18c.87-.56,1.01-.78,1.01-1.2v-1.32c-1.18,.5-2.46,.92-3.78,1.26l-.25-.42c2.32-1.01,4.34-2.44,5.71-4.03h-.76v.08c0,.22-1.23,.81-2.3,.81Zm6.83-11.79v1.48h2.07l1.37-1.65s1.54,1.15,2.52,2.02c-.08,.31-.34,.45-.73,.45h-5.24v1.9h3.14l1.4-1.74s1.62,1.2,2.63,2.1c-.08,.31-.34,.45-.73,.45h-15.32l-.22-.81h6.19v-1.9h-4.9l-.22-.81h5.12v-2.46l3.7,.34c-.03,.31-.2,.53-.78,.64Zm-4.54,7.48v2.6h6.58v-2.6h-6.58Z"/>
      <path class="cls-1" d="M91.81,58.83c1.76-.87,2.86-1.74,3.39-3.3-2.1-.87-3-1.82-3-3.02,0-1.34,1.04-2.41,2.46-2.41,.84,0,1.46,.17,2.07,.7,.34,.84,.42,1.34,.42,2.21,0,3.42-1.93,5.74-4.98,6.64l-.36-.81Z"/>
      <path class="cls-1" d="M118.64,43.43v2.97h5.8l1.93-2.44s2.21,1.62,3.58,2.77c-.08,.31-.42,.45-.84,.45h-10.47v3.7h5.68l1.54-1.71,3.25,2.49c-.2,.2-.56,.45-1.15,.56v12.66c0,2.18-.53,3.47-4.4,3.81-.06-1.04-.22-1.79-.67-2.27-.48-.48-1.09-.9-2.58-1.09v-.42s2.94,.22,3.67,.22c.48,0,.62-.22,.62-.59v-12.85h-14.9v15.76c0,.39-1.43,1.18-2.83,1.18h-.53v-19.21l3.61,1.46h5.35v-3.7h-10.98l-.25-.78h11.23v-4.12l4.34,.36c-.06,.39-.25,.67-1.01,.78Zm5.21,13.78c-.06,.31-.34,.45-.73,.45h-4.62v3.39h1.29l1.48-1.88s1.74,1.29,2.8,2.21c-.08,.31-.36,.45-.76,.45h-4.82v5.24c-.03,.14-.98,.7-2.63,.7h-.56v-5.94h-4.79l-.22-.78h5.01v-3.39h-4.17l-.22-.78h6.66c.45-1.46,.95-3.44,1.23-4.87l3.72,1.06c-.11,.31-.45,.53-1.06,.5-.78,.95-1.96,2.27-3.11,3.3h1.6l1.37-1.62s1.54,1.12,2.52,1.96Zm-10.7-1.01c0-1.34-.67-2.91-1.34-3.89l.25-.14c6.38,1.4,3.5,6.1,1.09,4.03Z"/>
      <path class="cls-1" d="M157.3,59.53c-.08,.31-.42,.45-.81,.45h-8.51v6.36h5.77l2.02-2.58s2.3,1.74,3.67,2.91c-.08,.31-.39,.45-.81,.45h-25.06l-.22-.78h11.17v-6.36h-8.32l-.22-.81h8.54v-4.76l4.48,.36c-.06,.39-.28,.67-1.01,.81v3.58h3.78l1.96-2.49s2.21,1.68,3.58,2.86Zm1.43-14.25c-.08,.31-.39,.45-.78,.45h-13.1l3.36,1.71c-.14,.25-.5,.45-1.12,.36-1.82,1.4-5.1,3.14-8.06,4.31,3.39-.14,8.29-.45,13.5-.84-1.15-1.32-2.46-2.55-3.61-3.47l.25-.22c11.09,2.3,9.49,9.38,5.96,7.5-.45-.98-1.15-2.02-1.96-3.05-3.75,.92-9.07,2.02-15.51,3.22-.22,.31-.48,.5-.73,.62l-1.51-3.7s.73-.11,1.06-.28c2.49-1.01,5.96-4.17,7.42-6.16h-9.6l-.22-.78h19.12l1.96-2.44s2.21,1.62,3.58,2.77Z"/>
      <path class="cls-1" d="M167.52,60.62h-.48v-11.9l3.39,1.34h10.42l1.46-1.57,3.05,2.3c-.14,.2-.5,.42-1.01,.53v7.81c-.03,.25-1.6,.95-2.69,.95h-.56v-1.29h-3.75v3.42h6.64l1.76-2.3s1.99,1.54,3.19,2.66c-.08,.31-.36,.45-.78,.45h-10.81v4.76c-.03,.17-1.04,.81-2.83,.81h-.62v-5.57h-10.89l-.22-.81h11.12v-3.42h-3.67v.81c0,.31-1.4,1.01-2.72,1.01Zm8.99-14.87c-.08,.31-.36,.45-.76,.45h-3.89v1.9c0,.2-1.48,.7-2.63,.7h-.59v-2.6h-5.43l-.22-.81h5.66v-3.11l3.98,.36c-.06,.28-.22,.48-.76,.56v2.18h.7l1.4-2.07s1.62,1.46,2.55,2.44Zm-6.27,5.12v3.16h10.86v-3.16h-10.86Zm10.86,7.14v-3.16h-10.86v3.16h10.86Zm7.92-12.26c-.08,.31-.36,.45-.76,.45h-5.49v1.79c0,.2-1.48,.7-2.66,.7h-.59v-2.49h-2.74l-.22-.81h2.97v-3.11l4,.36c-.06,.28-.22,.5-.76,.56v2.18h1.82l1.6-2.18s1.79,1.48,2.83,2.55Z"/>
      <path class="cls-1" d="M194.21,53.31c-.31-1.46-1.34-3.05-2.32-4.03l.22-.2c7.42,.67,5.01,6.16,2.1,4.23Zm.34,6.24q.59-1.01,5.54-12.18l.42,.11c-1.04,3.39-2.91,9.63-3.25,11.14-.25,.92-.42,1.9-.39,2.63,.03,1.48,1.15,2.52,1.06,5.04-.06,1.4-.95,2.32-2.27,2.32-.67,0-1.29-.42-1.51-1.46,.53-2.97,.39-5.6-.25-6.02-.42-.28-.87-.39-1.46-.45v-.56h1.26c.42,0,.5,0,.84-.59Zm1.9-12.46c-.36-1.54-1.48-3.22-2.44-4.28l.2-.17c7.78,.78,5.21,6.5,2.24,4.45Zm8.01-3.02h8.57l1.51-1.71,2.88,2.18c-.17,.25-.45,.42-1.06,.53v7.08c0,.14-1.01,.67-2.66,.67h-.56v-.98h-4.51l2.04,1.46c-.14,.22-.56,.42-1.2,.17-1.32,.56-3.33,1.23-5.35,1.71l5.85-.17c1.01-.64,1.85-1.23,2.44-1.74l3.33,1.82c-.2,.28-.59,.5-1.29,.31-2.41,1.26-6.55,2.8-10.42,3.92,2.63-.11,6.1-.28,9.74-.45-.5-.73-1.04-1.4-1.51-1.96l.25-.17c7.73,1.6,5.52,6.97,2.74,5.07-.2-.73-.59-1.51-1.06-2.27l-3.86,.76v5.07c0,1.96-.45,3.05-3.72,3.28-.03-.78-.11-1.43-.42-1.82-.31-.34-.76-.64-1.88-.81v-.36s1.96,.11,2.44,.11c.39,0,.48-.17,.48-.45v-4.42l-3.47,.59,3,1.96c-.2,.25-.45,.39-1.06,.22-1.62,1.23-4.2,2.94-6.58,4.14l-.31-.34c1.65-1.71,3.7-4.34,4.73-5.96l-1.82,.28c-.14,.2-.28,.34-.42,.42l-1.57-2.77s.64-.08,1.04-.22c2.27-.56,5.07-1.85,7.48-3.19-1.76,.36-3.89,.78-6.13,1.18-.11,.22-.28,.42-.45,.5l-1.43-2.6s.5-.08,.78-.17c2.04-.48,4.68-1.99,6.19-3.08h-3.02v.62c0,.22-.95,.76-2.55,.76h-.56v-10.44l3.39,1.29Zm2.66,.81h-2.94v2.77h2.94v-2.77Zm0,3.56h-2.94v2.63h2.94v-2.63Zm6.02-.78v-2.77h-3v2.77h3Zm0,3.42v-2.63h-3v2.63h3Zm2.3,16.21c-.48-1.2-2.04-3.47-4.28-5.29l.25-.39c9.41,2.21,6.58,7.5,4.03,5.68Z"/>
      <path class="cls-1" d="M223.97,53.79c-.36-1.46-1.6-3.08-2.69-4.03l.22-.2c7.59,.34,5.43,6.02,2.46,4.23Zm.2,5.85q.7-1.09,6.69-12.6l.42,.14c-1.32,3.47-3.78,9.94-4.2,11.45-.28,.9-.5,1.9-.5,2.6,.03,1.4,1.2,2.32,1.09,4.62-.06,1.34-.98,2.21-2.38,2.21-.64,0-1.32-.36-1.54-1.37,.5-2.77,.36-5.1-.31-5.54-.42-.25-.9-.39-1.48-.45v-.5h1.34c.42,0,.56-.03,.87-.56Zm2.63-12.04c-.5-1.51-1.88-3.25-3.02-4.28l.22-.2c7.9,.36,5.88,6.22,2.8,4.48Zm19.35,9.97c-3.95,7.11-10.3,10.14-17.86,11l-.11-.39c6.52-1.96,12.26-6.08,15.18-13.19l4,2.3c-.2,.28-.5,.42-1.2,.28Zm-10.22-8.34c-1.51,3.7-3.61,6.64-6.16,8.62l-.34-.25c1.34-2.55,2.63-6.47,3.28-10.19l4.31,1.23c-.11,.36-.48,.59-1.09,.59Zm4.51-5.68v14.5c0,.42-1.51,1.32-2.74,1.32h-.48v-16.97l4.26,.39c-.06,.39-.28,.67-1.04,.76Zm4.28,10.92c-.34-2.44-1.96-5.18-3.61-6.97l.25-.2c9.38,2.63,6.69,9.72,3.36,7.17Z"/>
      <path class="cls-1" d="M277.4,65.8c-.08,.31-.39,.45-.78,.45h-25.56l-.22-.81h4.84v-20.3l3.75,1.18c4.31-1.01,9.02-2.58,11.62-3.84l3.5,3.39c-.36,.31-1.01,.34-1.93-.03-3.5,.64-8.76,1.18-13.58,1.26v6.16h11.17l1.93-2.49s2.21,1.68,3.53,2.86c-.08,.31-.39,.45-.78,.45h-5.96v11.37h2.83l1.99-2.55s2.3,1.71,3.67,2.91Zm-18.37-.36h6.5v-11.37h-6.5v11.37Z"/>
      <path class="cls-1" d="M290.64,50.71v-4.37l4.06,.42c-.03,.36-.31,.67-.98,.76v4.45l2.41-1.06v-8.6l4.03,.39c-.06,.39-.28,.67-1.04,.78v6.1l2.77-1.2,.08-.03,1.43-1.46,2.66,2.77c-.22,.25-.53,.34-1.12,.39-.64,2.74-1.88,6.75-3.39,9.44l-.31-.17c.36-3.08,.59-7.22,.62-10.02l-2.74,1.18v11.17c0,.28-1.29,.92-2.44,.92h-.56v-10.81l-2.41,1.06v10.95c0,.78,.36,1.04,1.76,1.04h3.78c1.43,0,2.58-.03,3.14-.06,.45-.03,.76-.14,.98-.45,.36-.53,.87-1.93,1.46-3.86h.31l.11,4c1.01,.36,1.32,.7,1.32,1.26,0,1.48-1.46,1.99-7.59,1.99h-3.84c-3.33,0-4.51-.59-4.51-3.16v-10.39l-2.44,1.06-.53-.62,2.97-1.29v-2.46c-.06,.25-.34,.36-.64,.36h-3.44v8.68l3.81-1.01,.08,.31c-1.62,1.23-4.14,3.02-7.87,5.24-.11,.39-.36,.67-.7,.78l-1.85-3.75c.76-.14,1.93-.42,3.39-.76v-9.49h-2.97l-.22-.78h3.19v-7.5l4.17,.39c-.08,.39-.28,.67-1.04,.78v6.33h.48l1.32-2.24s1.51,1.51,2.3,2.52Z"/>
      <path class="cls-1" d="M322.7,44.91c-.34,.25-.87,.22-1.6-.08-1.54,.22-3.86,.48-6.02,.56v1.62h4.48l1.46-1.76s1.62,1.23,2.6,2.13c-.06,.31-.34,.45-.73,.45h-2.83v3.58c0,.11-.9,.64-2.44,.64h-.5v-4.23h-2.1c-.2,1.82-1.15,4.2-4.98,5.54l-.22-.36c2.16-1.85,2.35-4.17,2.35-6.1v-3.33l3.19,.9c1.79-.67,3.7-1.54,4.79-2.16l2.55,2.6Zm.45,21.06c-.28,.31-.78,.39-1.65,.14-2.63,1.2-6.97,2.18-11,2.49l-.08-.39c3.53-1.04,7.42-3.11,9.3-4.73l3.44,2.49Zm-8.43-14.31l3.42,1.34h9.6l.98-1.04h-.28v-4.14h-1.99c-.31,1.62-1.46,3.61-5.24,4.76l-.2-.36c2.38-1.71,2.63-3.81,2.63-5.6v-3.11l2.94,.84c1.9-.67,3.84-1.48,5.01-2.04l2.6,2.63c-.34,.25-.9,.22-1.62-.08-1.57,.22-3.84,.42-6.02,.53v1.62h4.84l1.51-1.88s1.71,1.29,2.77,2.24c-.06,.31-.36,.45-.76,.45h-3.44v3.5c0,.08-.59,.45-1.6,.59l2.44,1.85c-.17,.2-.53,.42-1.01,.5v9.04c-.03,.22-1.68,.84-2.74,.84h-.56v-1.18h-10.08v.76c0,.31-1.4,1.04-2.74,1.04h-.48v-13.1Zm13.3,2.16h-10.08v2.18h10.08v-2.18Zm-10.08,3v2.27h10.08v-2.27h-10.08Zm0,3.05v2.3h10.08v-2.3h-10.08Zm12.91,8.18c-1.26-1.06-3.61-2.46-6.94-3.39l.08-.36c15.71,.14,9.86,5.99,6.86,3.75Z"/>
      <path class="cls-1" d="M349.69,46.2c-2.63,5.43-6.27,8.9-10.67,11.14l-.31-.25c3.02-2.91,6.1-7.84,7.64-13.19l4.51,1.82c-.14,.34-.5,.56-1.18,.48Zm10.08,21.64c-.22-1.23-.67-2.55-1.23-3.81-3.5,1.15-8.23,2.46-14.08,3.72-.28,.42-.62,.7-.98,.81l-1.43-4.28s.87-.2,1.18-.48c2.1-2.02,5.26-8.2,6.16-11.7l4.79,1.76c-.14,.34-.48,.56-1.09,.53-1.85,3.16-5.46,7.39-8.57,10,3.3-.17,8.43-.62,13.61-1.23-.92-1.88-2.16-3.7-3.39-5.15l.31-.17c11.31,4.51,8.57,13.02,4.73,10Zm-4.26-25.79l2.91,1.99c-.36,.42-1.32,.64-2.49,.73,1.32,4.03,4.76,7.53,9.66,9.16l-.08,.34c-1.43,.5-2.58,1.85-2.94,3.22-4.12-2.77-6.47-7.14-7.36-12.91h-3.25l-.25-.81h2.74l1.06-1.71Z"/>
      <path class="cls-1" d="M370.55,68.57h-.56v-25.93l3.53,1.48h16.18l1.6-1.79,3.14,2.52c-.2,.25-.56,.48-1.15,.59v21.9c-.03,.28-1.57,1.06-2.77,1.06h-.53v-2.1h-16.74v1.01c0,.45-1.29,1.26-2.69,1.26Zm2.69-3.08h16.74v-20.58h-16.74v20.58Zm2.66-7.06h-.39v-6.24l2.83,1.12h6.22l1.2-1.26,2.58,1.88c-.14,.17-.42,.36-.81,.42v3.02c0,.06-.14,.17-.36,.25l2.07,1.88c-.17,.2-.42,.25-.92,.06-.53,.22-1.37,.48-2.21,.7,4.34,2.27,2.6,5.32,.62,4.17-.73-1.29-2.86-3.53-5.63-5.32l.2-.36c1.43,.25,2.6,.59,3.58,.98,.56-.59,1.15-1.29,1.62-1.85-.42,.11-.87,.2-1.23,.2h-.48v-.53h-2.58c-.64,.7-1.43,1.32-2.32,1.85v2.77l3.5-.92,.11,.36c-1.01,.64-3.02,1.96-5.18,3.22-.17,.28-.39,.5-.59,.62l-1.46-2.18c.87-.56,1.01-.78,1.01-1.2v-1.32c-1.18,.5-2.46,.92-3.78,1.26l-.25-.42c2.32-1.01,4.34-2.44,5.71-4.03h-.76v.08c0,.22-1.23,.81-2.3,.81Zm6.83-11.79v1.48h2.07l1.37-1.65s1.54,1.15,2.52,2.02c-.08,.31-.34,.45-.73,.45h-5.24v1.9h3.14l1.4-1.74s1.62,1.2,2.63,2.1c-.08,.31-.34,.45-.73,.45h-15.32l-.22-.81h6.19v-1.9h-4.9l-.22-.81h5.12v-2.46l3.7,.34c-.03,.31-.2,.53-.78,.64Zm-4.54,7.48v2.6h6.58v-2.6h-6.58Z"/>
      <path class="cls-1" d="M406.48,56.05c.39,.64,.56,1.46,.39,2.13-.14,.62-.62,1.2-1.48,1.2-.67,0-1.2-.34-1.6-1.26-.7-1.57-2.1-3.67-4.28-5.54l.22-.36c3.05,.7,5.74,2.13,6.75,3.84Z"/>
      <path class="cls-1" d="M428.71,42.87c-.08,.45-.36,.7-1.04,.81-.06,2.46-.08,4.84-.28,7.11h6.33l2.04-2.58s2.3,1.74,3.7,2.91c-.08,.31-.39,.45-.81,.45h-11c.98,5.21,4.23,10.33,12.07,13.5l-.06,.31c-1.71,.34-2.72,1.34-3.02,3.25-6.52-3.95-8.62-10.72-9.41-16.35-.84,6.66-3.64,12.38-13.8,16.35l-.25-.42c7.81-4.7,10-10.25,10.61-16.63h-10.11l-.22-.78h10.39c.2-2.63,.17-5.43,.17-8.34l4.7,.42Z"/>
      <path class="cls-1" d="M444.44,52.78c-.14-1.4-1.01-2.94-1.88-3.92l.22-.17c6.94,1.04,4.28,6.1,1.65,4.09Zm.31,6.72q.59-1.04,5.18-12.43l.45,.14c-.98,3.44-2.66,9.8-2.97,11.31-.22,.92-.36,1.93-.36,2.63,.06,1.51,1.15,2.58,1.06,5.1-.06,1.4-.92,2.32-2.24,2.32-.64,0-1.26-.42-1.43-1.46,.5-2.94,.36-5.6-.28-6.05-.36-.28-.81-.39-1.4-.45v-.53h1.23c.36,0,.5,0,.76-.59Zm1.57-12.4c-.31-1.46-1.37-3.11-2.3-4.14l.25-.17c7.34,.92,4.84,6.22,2.04,4.31Zm5.46,6.3l-.59,.06h-.42v-7.39l3.16,1.23h1.6v-2.18h-5.24l-.22-.78h14.11l1.68-2.07s1.9,1.4,3.08,2.41c-.08,.31-.36,.45-.76,.45h-5.71v2.18h1.68l1.37-1.51,3.05,2.24c-.2,.22-.59,.48-1.15,.59v3.61c-.03,.17-1.43,.62-2.35,.67l2.44,1.79c-.14,.22-.53,.45-1.04,.56v5.68c-.03,.2-1.6,.76-2.58,.76h-.53v-1.01h-2.74v2.72h3.78l1.74-2.16s1.99,1.46,3.16,2.52c-.06,.31-.36,.45-.76,.45h-7.92v3.72c-.03,.14-.95,.64-2.58,.64h-.53v-4.37h-7.78l-.22-.81h8.01v-2.72h-2.66v.56c0,.31-1.37,.95-2.66,.95h-.42v-8.79Zm1.96-1.37v.56c0,.11-.36,.34-.9,.53l2.18,.87h8.06l1.34-1.48v-.48h-10.7Zm1.79-3.92h-1.79v3.11h1.79v-3.11Zm7.84,6.66h-8.51v2.18h8.51v-2.18Zm-8.51,2.97v2.13h8.51v-2.13h-8.51Zm3.16-10.44h1.9v-2.18h-1.9v2.18Zm1.9,3.92v-3.11h-1.9v3.11h1.9Zm4.51-3.11h-1.96v3.11h1.96v-3.11Z"/>
      <path class="cls-1" d="M473.82,53.34c-.25-1.4-1.18-3-2.07-3.98l.25-.2c7.25,.9,4.59,6.22,1.82,4.17Zm.39,6.19q.5-1.01,4.68-12.32l.48,.08c-.81,3.42-2.32,9.74-2.6,11.26-.17,.92-.34,1.9-.31,2.63,.06,1.48,1.18,2.58,1.06,5.1-.06,1.37-.92,2.3-2.18,2.3-.64,0-1.26-.39-1.46-1.46,.53-2.91,.39-5.57-.22-6.02-.39-.25-.81-.39-1.4-.45v-.53h1.2c.39,0,.48,0,.76-.59Zm1.46-12.66c-.28-1.51-1.29-3.14-2.18-4.17l.22-.17c7.59,.9,4.84,6.41,1.96,4.34Zm19.15,4.73c-1.74,1.01-3.98,1.99-6.5,2.8h4.06l1.51-1.71,2.88,2.21c-.2,.22-.45,.39-1.06,.5v7.95c0,.17-1.04,.7-2.66,.7h-.56v-.73h-7.7v.59c0,.2-.95,.73-2.52,.73h-.53v-8.62c-1.2,.2-2.41,.39-3.64,.5l-.11-.42c1.26-.28,2.52-.62,3.75-1.01v-1.57c-.92,.34-1.93,.64-2.94,.84l-.17-.36c1.99-1.06,4-3,4.9-4.37l3.3,1.71c-.2,.31-.62,.42-1.4,.31-.78,.59-1.9,1.18-3.14,1.68l2.16,.81c.9-.34,1.76-.7,2.6-1.09v-3.75h-4.42l-.11-.45c-1.15,1.82-4.14,.45-2.32-1.76,.87-.39,1.57-1.34,1.74-2.83h.36c.2,.53,.34,1.01,.45,1.46h5.43c-.22-.08-.48-.2-.7-.39,0-1.15-.62-2.44-1.29-3.16l.22-.17c5.01,.25,4.65,3.14,3.02,3.72h4.82l1.51-1.54,2.66,2.58c-.22,.22-.5,.28-1.06,.31-.59,.5-1.57,1.23-2.32,1.76l.06,.03c-.06,.31-.34,.45-.73,.45h-1.06l3.08,2.13c-.22,.28-.73,.39-1.57,.17Zm-7.06,14.48c-2.13,1.12-5.57,2.1-9.04,2.41l-.11-.36c2.91-1.04,5.94-3,7.39-4.59l3.33,2.38c-.22,.28-.76,.36-1.57,.17Zm6.61-17.84l.14-1.71h-11.65c.11,.84,.03,1.51-.17,1.99h8.4l1.4-1.82,1.88,1.54Zm-9.58,8.9h7.7v-1.93h-7l-.7,.17v1.76Zm7.7,2.69v-1.88h-7.7v1.88h7.7Zm0,2.69v-1.9h-7.7v1.9h7.7Zm1.96,5.32c-.9-1.12-2.63-2.41-5.29-3.33l.11-.36c12.82,.5,7.7,5.91,5.18,3.7Zm-1.2-18.54h-3.25v2.24c1.29-.73,2.41-1.48,3.25-2.24Z"/>
      <path class="cls-1" d="M503.36,53.03c-.25-1.37-1.23-2.83-2.1-3.72l.22-.2c7.17,.53,4.65,5.8,1.88,3.92Zm.48,6.55q.53-1.06,5.26-12.74l.45,.11c-.98,3.53-2.72,10.02-3.02,11.59-.22,.95-.42,1.96-.39,2.69,.06,1.51,1.18,2.55,1.09,5.07-.06,1.37-.92,2.32-2.27,2.32-.64,0-1.26-.39-1.48-1.46,.53-2.94,.39-5.6-.25-6.02-.39-.28-.81-.39-1.43-.45v-.53h1.23c.42,0,.53-.03,.81-.59Zm1.68-12.71c-.31-1.48-1.37-3.05-2.27-4.09l.22-.17c7.59,.73,4.98,6.27,2.04,4.26Zm22.06-.48c-.06,.31-.36,.45-.76,.45h-12.63c-.36,.59-.76,1.18-1.2,1.76l2.27,1.09h6.24l1.68-1.71,2.8,2.46c-.2,.25-.59,.45-1.2,.53l-.17,5.12,1.23-2.04s1.51,1.54,2.32,2.55c-.08,.31-.34,.45-.73,.45h-2.88c-.11,2.32-.25,4.14-.45,5.6l1.26-2.02s1.46,1.43,2.24,2.38c-.08,.31-.34,.45-.7,.45h-2.91c-.34,2.1-.81,3.28-1.48,3.95-.92,.95-2.16,1.2-3.61,1.2,0-.81-.06-1.46-.39-1.88-.39-.48-1.09-.76-2.07-.98v-.39c.87,.06,2.18,.14,2.74,.14,.45,0,.73-.08,.98-.34,.28-.25,.53-.81,.73-1.71h-8.12l-1.09,1.37-2.94-1.74c.22-.22,.59-.45,.98-.64,.28-1.43,.59-3.36,.9-5.4h-2.77l-.22-.81h3.11c.25-1.96,.5-4,.67-5.74-.9,.95-1.88,1.82-2.91,2.52l-.28-.22c1.93-2.49,3.53-6.86,4.2-10.44l4.4,1.26c-.11,.28-.34,.42-1.04,.34-.31,.67-.67,1.37-1.06,2.07h8.12l1.71-2.3s1.93,1.57,3.05,2.66Zm-5.99,10.67h-7.98c-.28,2.02-.62,4.03-.9,5.6h8.34c.22-1.32,.39-3.16,.53-5.6Zm.22-6.58h-7.31c-.2,1.57-.45,3.64-.76,5.77h7.87c.08-1.68,.14-3.58,.2-5.77Zm-4.79,11.12c-.11-1.32-.98-2.91-1.79-3.86l.25-.17c6.19,1.43,3.81,5.82,1.54,4.03Zm.5-6.36c-.28-1.23-1.2-2.74-1.96-3.64l.28-.17c5.99,1.2,3.86,5.38,1.68,3.81Z"/>
      <path class="cls-1" d="M556.98,53.81c-.06,.31-.36,.45-.78,.45h-24.86l-.25-.81h11.96c-.2-.87-.95-1.79-1.57-2.24l.2-.2c4.28-.76,4.4,1.68,3.11,2.44h7.56l1.65-2.13s1.88,1.46,3,2.49Zm-19.1,8.15l3.11,1.46c-.14,.28-.39,.45-1.04,.36-1.76,1.74-5.07,3.44-8.37,4.2l-.2-.34c2.18-1.37,4.28-3.64,5.43-5.49h-.7v-7.39l3.47,1.34h8.74l1.48-1.65,3.25,2.44c-.17,.2-.56,.45-1.12,.56v3.7c-.03,.17-1.74,.7-2.77,.7h-.56v-.98h-2.97v4.03c0,2.13-.53,3.42-4.06,3.7-.06-.95-.17-1.68-.53-2.1-.36-.42-.9-.78-2.18-.98v-.36s2.41,.14,2.97,.14c.39,0,.5-.14,.5-.42v-4h-2.91v.31c0,.2-.7,.56-1.54,.78Zm-1.96-9.44h-.45v-9.86l3.42,1.34h10.19l1.51-1.65,3.19,2.41c-.17,.22-.56,.48-1.12,.59v5.85c-.03,.2-1.68,.73-2.74,.73h-.56v-1.12h-10.67v.7c0,.31-1.46,1.01-2.77,1.01Zm2.77-7.7v2.18h10.67v-2.18h-10.67Zm10.67,5.18v-2.21h-10.67v2.21h10.67Zm-9.94,6.92v3.14h9.18v-3.14h-9.18Zm13.1,10.86c-.67-1.32-2.63-3.5-5.4-5.07l.14-.34c11,.31,8.46,7.14,5.26,5.4Z"/>
      <path class="cls-1" d="M18.14,85.93h3.56l1.48-1.74,2.8,2.24c-.2,.22-.5,.45-1.15,.53v13.66c0,.14-.76,.59-1.9,.73v5.57c0,.31,.06,.39,.34,.39h.98c.2-.03,.31-.06,.42-.28,.22-.36,.56-1.62,.95-2.97h.31l.08,3.08c.67,.34,.78,.64,.78,1.15,0,1.01-.9,1.51-3.36,1.51h-1.15c-1.96,0-2.18-.62-2.18-2.27v-6.92h-.87c-.28,5.1-1.93,8.15-7.2,9.97l-.17-.39c.92-.59,1.65-1.2,2.24-1.85H5.07v1.29c0,.22-.84,.84-2.24,.84h-.5v-8.43c-.59,.67-1.18,1.29-1.82,1.79l-.39-.25c1.15-1.93,2.21-4.9,2.91-7.78-.28,.17-.78,.34-1.43,.34h-.36v-6.38l2.49,1.01h.9l1.01-1.06,2.18,1.62c-.14,.17-.45,.36-.84,.42v3.44s-.03,.08-.11,.11l.06-.03c.42,.06,.78,.14,1.09,.22v-5.77l2.52,1.04h.87l1.01-1.06,2.21,1.65c-.11,.17-.45,.34-.84,.39v3.33c-.03,.2-1.12,.62-1.82,.62h-.36v-.78h-1.43v.31c0,.11-.45,.5-1.26,.62,1.62,.81,1.37,2.04,.5,2.52h1.48l1.29-1.6s1.48,1.12,2.41,1.96c-.08,.31-.34,.45-.73,.45h-3.89v2.18h.5l1.23-1.51s1.4,1.06,2.24,1.85c-.03,.31-.31,.45-.7,.45h-3.28v2.27h.5l1.23-1.51s1.4,1.06,2.27,1.88c-.06,.31-.34,.45-.73,.45h-3.28v2.35h1.06l1.37-1.71s1.32,1.01,2.24,1.82c1.2-1.62,1.6-3.53,1.71-5.88-.28,.06-.59,.08-.92,.08h-.5v-14.17l-.17,.03h-3.56v1.29c0,.2-1.26,.64-2.32,.64h-.53v-5.52l3.7,.34c-.06,.34-.25,.56-.84,.64v1.79h.95l1.18-1.65s.84,.73,1.6,1.46v-2.07l3.22,1.26Zm-11.56-.78v4c0,.2-1.26,.62-2.3,.62h-.5v-2.02H.39l-.25-.81H3.78v-2.74l3.64,.34c-.06,.31-.25,.53-.84,.62Zm-1.18,12.01l-.5,1.01,.53,.2h2.46c-.14-.06-.28-.17-.42-.28-.03-.95-.45-1.99-.78-2.63-.39,.17-1.04,.36-1.51,.36h-.36v-.9h-1.46v.59l-.06,.08,3.19,1.04c-.11,.31-.45,.56-1.09,.53Zm-.59-5.6h-1.46v2.55h1.46v-2.55Zm2.46,7.62h-2.21v2.18h2.21v-2.18Zm0,2.97h-2.21v2.27h2.21v-2.27Zm0,3.08h-2.21v2.35h2.21v-2.35Zm4.31-13.66h-1.43v2.55h1.43v-2.55Zm10.25-.64v-4.2h-4.03v4.2h4.03Zm0,4.42v-3.64h-4.03v3.64h4.03Zm0,4.51v-3.7h-4.03v3.7h4.03Z"/>
      <path class="cls-1" d="M33.01,100.83c1.76-.87,2.86-1.74,3.39-3.3-2.1-.87-3-1.82-3-3.02,0-1.34,1.04-2.41,2.46-2.41,.84,0,1.46,.17,2.07,.7,.34,.84,.42,1.34,.42,2.21,0,3.42-1.93,5.74-4.98,6.64l-.36-.81Z"/>
      <path class="cls-1" d="M47.74,109.06c-.64,.78-2.1,.78-2.6-.14-.45-.87-.03-1.71,.73-2.27,.7-.67,1.62-2.46,1.48-3.98h.42c1.06,3.02,.84,5.26-.03,6.38Zm6.1-7.73c-.03-.62-.14-1.26-.31-1.9-1.57,.7-3.84,1.62-6.38,2.52-.22,.28-.48,.48-.73,.56l-1.18-3.36s.7-.17,.98-.36c1.26-.95,2.83-2.86,4.17-4.82-.92,.36-1.96,.78-3.05,1.18-.22,.36-.48,.59-.76,.7l-1.37-3.36s.59-.14,.84-.31c1.37-1.4,3.16-5.4,3.7-7.56l3.78,1.9c-.11,.22-.45,.42-.98,.36-1.2,1.76-3.3,4.12-5.18,5.66h3.95c.64-1.09,1.2-2.16,1.54-3l3.39,2.32c-.14,.25-.5,.42-1.04,.28-1.6,2.04-4.68,5.01-7.45,6.97,1.51-.08,3.5-.22,5.57-.39-.31-.95-.7-1.85-1.06-2.55l.31-.17c5.96,2.83,3.42,7.34,1.26,5.32Zm-4.09,6.72c.34-1.82,.22-3.98-.11-5.57l.36-.08c4.9,3.78,1.68,8.12-.25,5.66Zm4.23-1.06c0-1.65-.76-3.64-1.54-4.9l.31-.17c5.94,2.49,3.39,7.08,1.23,5.07Zm17.67-17.19c-.08,.31-.39,.45-.78,.45h-6.33v4.98h2.07l1.6-2.1s1.85,1.43,2.97,2.44c-.08,.31-.36,.45-.78,.45h-14.08l-.22-.78h5.18v-4.98h-5.99l-.22-.81h6.22v-4.87l4.28,.34c-.06,.39-.28,.67-1.01,.81v3.72h2.44l1.65-2.13s1.88,1.46,3.02,2.49Zm-10.72,9.52h5.18l1.51-1.74,2.88,2.24c-.2,.22-.48,.42-1.09,.5v8.96c0,.14-1.01,.7-2.63,.7h-.56v-2.27h-5.6v1.74c0,.2-.95,.73-2.52,.73h-.53v-12.18l3.36,1.32Zm5.29,7.62v-6.83h-5.6v6.83h5.6Z"/>
      <path class="cls-1" d="M74.54,97.21l-.17-.34c4.82-2.91,9.91-8.65,11.09-12.66l4.93,1.2c-.14,.39-.48,.56-1.37,.64,2.52,3.42,7.5,5.4,11.82,6.61v.42c-1.43,.42-2.32,1.82-2.58,3.02-4.28-2.07-8.01-5.32-9.69-9.72-2.63,4.28-8.4,8.65-14.03,10.81Zm4.56,1.43l3.64,1.43h9.72l1.6-1.76,3.36,2.58c-.2,.22-.59,.48-1.18,.62v8.01c-.03,.2-1.79,.78-2.91,.78h-.59v-2.04h-10.19v1.26c0,.31-1.51,1.06-2.94,1.06h-.5v-11.93Zm9.97-3.5l1.85-2.41s2.1,1.62,3.36,2.77c-.08,.31-.39,.45-.78,.45h-12.21l-.22-.81h8.01Zm-6.52,5.74v6.55h10.19v-6.55h-10.19Z"/>
      <path class="cls-1" d="M126.22,96.82c-.34-.98-.9-1.99-1.57-3-4.09,.81-10.05,1.85-17.33,2.88-.28,.31-.56,.5-.87,.59l-1.12-3.81s.76-.14,1.15-.36c2.83-1.48,6.97-6.22,8.32-8.88l4.56,1.82c-.14,.28-.5,.53-1.12,.48-2.13,2.27-6.22,5.12-9.77,6.97,3.72-.06,9.58-.22,15.68-.42-1.2-1.65-2.66-3.22-4-4.4l.25-.22c11.34,2.94,9.41,10.53,5.82,8.34Zm-17.5,13.69h-.5v-12.91l3.67,1.46h10.16l1.65-1.85,3.42,2.66c-.2,.22-.59,.5-1.26,.64v9.02c-.06,.17-1.76,.78-2.91,.78h-.56v-2.32h-10.7v1.4c0,.36-1.54,1.12-2.97,1.12Zm13.66-10.67h-10.7v7.34h10.7v-7.34Z"/>
      <path class="cls-1" d="M153.41,105.5l2.13-2.83s2.38,1.9,3.84,3.19c-.08,.31-.42,.45-.81,.45h-24.81l-.25-.81h19.91Zm-2.69-15.76l2.07-2.74s2.35,1.85,3.72,3.08c-.08,.31-.39,.45-.81,.45h-19.24l-.22-.78h14.48Z"/>
      <path class="cls-1" d="M165.12,108.92c-.62,.81-2.07,.84-2.58-.11-.45-.84-.03-1.65,.73-2.18,.78-.73,1.79-2.49,1.74-4.09l.42,.03c.98,3.02,.59,5.29-.31,6.36Zm7.76-9.94h3.19l-.31-.03,1.51-1.48,1.71,1.46v-2.74h-2.27v1.09c0,.2-.84,.7-2.32,.7h-.48v-11.17l3.14,1.2h1.12c.14-1.04,.28-2.63,.36-3.72l4.4,.95c-.11,.42-.5,.64-1.12,.64l-2.41,2.13h4.34l1.4-1.6,2.72,2.07c-.17,.25-.45,.45-1.06,.53v7.84c0,.06-.25,.22-.7,.36l2.83,2.21c-.14,.2-.59,.36-1.09,.14-.84,.56-2.32,1.43-3.72,2.13,1.46,2.02,3.33,3.3,5.12,4.17l-.08,.28c-1.18,.28-2.02,1.34-2.41,2.77-2.41-2.38-3.92-5.1-4.82-9.77v7.7c0,1.99-.48,3.28-3.86,3.56-.06-.87-.17-1.54-.59-1.96-.39-.42-1.01-.76-2.35-.98v-.36s2.72,.2,3.3,.2c.45,0,.56-.17,.56-.5v-6.78l-.17,.03c-1.23,3.84-3.92,7.17-8.57,9.1l-.22-.36c3.19-2.13,5.04-5.46,5.88-8.99h-2.91c-.03,1.37-1.2,2.1-2.32,1.09-.03-.48-.08-.95-.2-1.46-1.46,.62-3.39,1.37-5.49,2.13-.25,.42-.59,.7-.92,.81l-1.12-3.39s.7-.14,.95-.34c1.18-.98,2.58-2.83,3.81-4.76l-2.69,1.09c-.2,.25-.42,.45-.64,.53l-1.34-3.28s.56-.14,.81-.31c1.26-1.4,2.94-5.4,3.42-7.53l3.72,1.79c-.11,.28-.42,.45-.95,.42-1.18,1.79-3.19,4.2-4.98,5.74h3.61c.73-1.29,1.32-2.52,1.68-3.47l3.42,2.02c-.14,.25-.5,.48-1.06,.36-1.54,2.27-4.54,5.43-7.22,7.62l4.76-.34c-.31-1.04-.76-2.04-1.18-2.86l.34-.14c2.16,1.06,3.19,2.35,3.5,3.44Zm-5.8,8.74c.36-1.88,.17-4.14-.22-5.74l.36-.11c4.62,3.84,1.71,8.15-.14,5.85Zm3.58-2.16c-.06-1.43-.81-3.16-1.57-4.23l.31-.17c5.63,1.93,3.33,6.16,1.26,4.4Zm13.16-13.86v-2.88h-7.11v2.88h7.11Zm0,3.67v-2.88h-7.11v2.88h7.11Zm-.17,5.71c.7-1.2,1.48-2.72,1.93-3.72-.36,.08-.76,.14-1.23,.14h-.53v-1.32h-1.9v.9c.42,1.57,1.04,2.88,1.74,4Z"/>
      <path class="cls-1" d="M193.82,95.34c-.25-1.4-1.18-3-2.07-3.98l.25-.2c7.25,.9,4.59,6.22,1.82,4.17Zm.39,6.19q.5-1.01,4.68-12.32l.48,.08c-.81,3.42-2.32,9.74-2.6,11.26-.17,.92-.34,1.9-.31,2.63,.06,1.48,1.18,2.58,1.06,5.1-.06,1.37-.92,2.3-2.18,2.3-.64,0-1.26-.39-1.46-1.46,.53-2.91,.39-5.57-.22-6.02-.39-.25-.81-.39-1.4-.45v-.53h1.2c.39,0,.48,0,.76-.59Zm1.46-12.66c-.28-1.51-1.29-3.14-2.18-4.17l.22-.17c7.59,.9,4.84,6.41,1.96,4.34Zm19.15,4.73c-1.74,1.01-3.98,1.99-6.5,2.8h4.06l1.51-1.71,2.88,2.21c-.2,.22-.45,.39-1.06,.5v7.95c0,.17-1.04,.7-2.66,.7h-.56v-.73h-7.7v.59c0,.2-.95,.73-2.52,.73h-.53v-8.62c-1.2,.2-2.41,.39-3.64,.5l-.11-.42c1.26-.28,2.52-.62,3.75-1.01v-1.57c-.92,.34-1.93,.64-2.94,.84l-.17-.36c1.99-1.06,4-3,4.9-4.37l3.3,1.71c-.2,.31-.62,.42-1.4,.31-.78,.59-1.9,1.18-3.14,1.68l2.16,.81c.9-.34,1.76-.7,2.6-1.09v-3.75h-4.42l-.11-.45c-1.15,1.82-4.14,.45-2.32-1.76,.87-.39,1.57-1.34,1.74-2.83h.36c.2,.53,.34,1.01,.45,1.46h5.43c-.22-.08-.48-.2-.7-.39,0-1.15-.62-2.44-1.29-3.16l.22-.17c5.01,.25,4.65,3.14,3.02,3.72h4.82l1.51-1.54,2.66,2.58c-.22,.22-.5,.28-1.06,.31-.59,.5-1.57,1.23-2.32,1.76l.06,.03c-.06,.31-.34,.45-.73,.45h-1.06l3.08,2.13c-.22,.28-.73,.39-1.57,.17Zm-7.06,14.48c-2.13,1.12-5.57,2.1-9.04,2.41l-.11-.36c2.91-1.04,5.94-3,7.39-4.59l3.33,2.38c-.22,.28-.76,.36-1.57,.17Zm6.61-17.84l.14-1.71h-11.65c.11,.84,.03,1.51-.17,1.99h8.4l1.4-1.82,1.88,1.54Zm-9.58,8.9h7.7v-1.93h-7l-.7,.17v1.76Zm7.7,2.69v-1.88h-7.7v1.88h7.7Zm0,2.69v-1.9h-7.7v1.9h7.7Zm1.96,5.32c-.9-1.12-2.63-2.41-5.29-3.33l.11-.36c12.82,.5,7.7,5.91,5.18,3.7Zm-1.2-18.54h-3.25v2.24c1.29-.73,2.41-1.48,3.25-2.24Z"/>
      <path class="cls-1" d="M223.36,95.03c-.25-1.37-1.23-2.83-2.1-3.72l.22-.2c7.17,.53,4.65,5.8,1.88,3.92Zm.48,6.55q.53-1.06,5.26-12.74l.45,.11c-.98,3.53-2.72,10.02-3.02,11.59-.22,.95-.42,1.96-.39,2.69,.06,1.51,1.18,2.55,1.09,5.07-.06,1.37-.92,2.32-2.27,2.32-.64,0-1.26-.39-1.48-1.46,.53-2.94,.39-5.6-.25-6.02-.39-.28-.81-.39-1.43-.45v-.53h1.23c.42,0,.53-.03,.81-.59Zm1.68-12.71c-.31-1.48-1.37-3.05-2.27-4.09l.22-.17c7.59,.73,4.98,6.27,2.04,4.26Zm22.06-.48c-.06,.31-.36,.45-.76,.45h-12.63c-.36,.59-.76,1.18-1.2,1.76l2.27,1.09h6.24l1.68-1.71,2.8,2.46c-.2,.25-.59,.45-1.2,.53l-.17,5.12,1.23-2.04s1.51,1.54,2.32,2.55c-.08,.31-.34,.45-.73,.45h-2.88c-.11,2.32-.25,4.14-.45,5.6l1.26-2.02s1.46,1.43,2.24,2.38c-.08,.31-.34,.45-.7,.45h-2.91c-.34,2.1-.81,3.28-1.48,3.95-.92,.95-2.16,1.2-3.61,1.2,0-.81-.06-1.46-.39-1.88-.39-.48-1.09-.76-2.07-.98v-.39c.87,.06,2.18,.14,2.74,.14,.45,0,.73-.08,.98-.34,.28-.25,.53-.81,.73-1.71h-8.12l-1.09,1.37-2.94-1.74c.22-.22,.59-.45,.98-.64,.28-1.43,.59-3.36,.9-5.4h-2.77l-.22-.81h3.11c.25-1.96,.5-4,.67-5.74-.9,.95-1.88,1.82-2.91,2.52l-.28-.22c1.93-2.49,3.53-6.86,4.2-10.44l4.4,1.26c-.11,.28-.34,.42-1.04,.34-.31,.67-.67,1.37-1.06,2.07h8.12l1.71-2.3s1.93,1.57,3.05,2.66Zm-5.99,10.67h-7.98c-.28,2.02-.62,4.03-.9,5.6h8.34c.22-1.32,.39-3.16,.53-5.6Zm.22-6.58h-7.31c-.2,1.57-.45,3.64-.76,5.77h7.87c.08-1.68,.14-3.58,.2-5.77Zm-4.79,11.12c-.11-1.32-.98-2.91-1.79-3.86l.25-.17c6.19,1.43,3.81,5.82,1.54,4.03Zm.5-6.36c-.28-1.23-1.2-2.74-1.96-3.64l.28-.17c5.99,1.2,3.86,5.38,1.68,3.81Z"/>
      <path class="cls-1" d="M261.49,88.2c-2.63,5.43-6.27,8.9-10.67,11.14l-.31-.25c3.02-2.91,6.1-7.84,7.64-13.19l4.51,1.82c-.14,.34-.5,.56-1.18,.48Zm10.08,21.64c-.22-1.23-.67-2.55-1.23-3.81-3.5,1.15-8.23,2.46-14.08,3.72-.28,.42-.62,.7-.98,.81l-1.43-4.28s.87-.2,1.18-.48c2.1-2.02,5.26-8.2,6.16-11.7l4.79,1.76c-.14,.34-.48,.56-1.09,.53-1.85,3.16-5.46,7.39-8.57,10,3.3-.17,8.43-.62,13.61-1.23-.92-1.88-2.16-3.7-3.39-5.15l.31-.17c11.31,4.51,8.57,13.02,4.73,10Zm-4.26-25.79l2.91,1.99c-.36,.42-1.32,.64-2.49,.73,1.32,4.03,4.76,7.53,9.66,9.16l-.08,.34c-1.43,.5-2.58,1.85-2.94,3.22-4.12-2.77-6.47-7.14-7.36-12.91h-3.25l-.25-.81h2.74l1.06-1.71Z"/>
      <path class="cls-1" d="M281.43,85.15l3.19,1.26h2.94l1.34-1.48,2.88,2.16c-.17,.22-.53,.45-1.06,.56v6.41c-.03,.17-1.48,.7-2.41,.7h-.48v3.72h.36l1.43-2.18s1.62,1.51,2.49,2.55c-.08,.31-.34,.45-.73,.45h-3.56v5.94l4.31-.98,.08,.34c-2.27,1.23-5.6,2.94-10.36,5.01-.11,.34-.39,.64-.73,.73l-1.37-3.47,1.6-.28v-10l3.11,.28c-.06,.25-.22,.48-.67,.53v8.71l1.2-.25v-11.93h-.73v.39c0,.2-.92,.84-2.35,.84h-.5v-10Zm2.86,2.04v5.94h3.56v-5.94h-3.56Zm15.12-1.54c-.14,.34-.48,.59-1.12,.56-.28,.64-.59,1.26-.9,1.85h2.94l1.71-1.68,2.83,2.55c-.2,.28-.48,.36-1.15,.42-.9,1.99-2.1,3.84-3.61,5.49,1.85,1.09,4.12,1.93,6.78,2.46l-.06,.31c-1.29,.45-1.99,1.4-2.21,2.94-.64-.22-1.23-.5-1.79-.78l1.79,1.37c-.2,.25-.45,.42-1.06,.5v8.18c0,.14-1.04,.7-2.69,.7h-.56v-1.99h-4.96v1.34c0,.2-.95,.73-2.55,.73h-.53v-10.5c-.87,.36-1.79,.67-2.77,.95l-.2-.36c3.11-1.48,5.71-3.53,7.7-5.94-.73-1.04-1.34-2.16-1.88-3.39-1.26,1.48-2.72,2.66-4.31,3.58l-.31-.25c2.04-2.41,3.89-6.27,4.76-10.39l4.14,1.34Zm-6.22,14.06l2.46,.92h4.54l1.37-1.54c-1.23-.76-2.3-1.62-3.19-2.6-1.48,1.23-3.19,2.32-5.18,3.22Zm7.11,8.01v-6.27h-4.96v6.27h4.96Zm-3.36-18.87c-.39,.67-.84,1.29-1.29,1.88,.64,.98,1.46,1.88,2.38,2.66,.98-1.43,1.76-2.94,2.35-4.54h-3.44Z"/>
      <path class="cls-1" d="M313.01,100.83c1.76-.87,2.86-1.74,3.39-3.3-2.1-.87-3-1.82-3-3.02,0-1.34,1.04-2.41,2.46-2.41,.84,0,1.46,.17,2.07,.7,.34,.84,.42,1.34,.42,2.21,0,3.42-1.93,5.74-4.98,6.64l-.36-.81Z"/>
      <path class="cls-1" d="M341.1,85.15c-.08,.36-.39,.62-1.04,.64-.87,1.06-2.16,2.44-3.47,3.56h7.14l1.65-1.85,3.33,2.63c-.2,.25-.59,.53-1.2,.64v18.62c-.06,.28-1.71,1.04-2.97,1.04h-.53v-2.1h-11.37v.95c0,.42-1.4,1.26-2.86,1.26h-.56v-22.68l3.67,1.48h2.52c.31-1.54,.56-3.58,.67-5.01l5.01,.81Zm-8.46,5.01v5.12h11.37v-5.12h-11.37Zm0,11.2h11.37v-5.29h-11.37v5.29Zm0,6.19h11.37v-5.4h-11.37v5.4Z"/>
      <path class="cls-1" d="M379.96,91.08c-.08,.31-.39,.45-.78,.45h-9.55c2.38,5.07,6.83,9.1,11.17,11.03l-.08,.28c-1.34,.25-2.46,1.32-3,2.94-4.09-2.97-6.89-7.73-8.57-14.11v11.62h.78l1.74-2.46s1.93,1.68,3.02,2.83c-.08,.31-.36,.45-.76,.45h-4.79v5.46c0,.31-1.37,.98-2.74,.98h-.64v-6.44h-5.18l-.22-.81h5.4v-7.03c-2.49,4.23-6.24,7.76-11.2,10.25l-.28-.28c4.54-3.64,7.9-9.35,9.49-14.7h-8.15l-.25-.78h10.39v-6.47l4.56,.48c-.06,.45-.31,.76-1.18,.9v5.1h5.38l1.93-2.66s2.21,1.79,3.5,3Z"/>
      <path class="cls-1" d="M393.46,104.97c-2.55,2.63-5.91,4.06-9.13,4.84l-.2-.36c2.46-1.43,5.21-4.06,7-7.2l3.58,2.52c-.2,.22-.64,.42-1.26,.2Zm-5.52-17.56h8.32l-.45-.28c.08-1.04-.48-2.21-1.2-2.8l.2-.17c4.84-.11,4.73,2.46,3.3,3.25h7.36l1.62-1.62,2.83,2.69c-.22,.2-.53,.28-1.09,.31-.62,.42-1.46,.87-2.32,1.26,.11,.08,1.82,1.32,2.88,2.27-.08,.31-.36,.45-.78,.45h-5.57c-.48,.98-1.15,1.9-2.1,2.69,8.29,1.37,4.98,4.65,2.27,3.72-1.32-.67-3.11-1.34-5.29-1.93-2.77,1.18-6.8,2.02-12.66,2.46l-.08-.39c4.59-.67,7.81-1.6,10.08-2.74-2.04-.45-4.34-.81-6.78-1.09,.62-.67,1.43-1.65,2.24-2.72h-5.38l-.22-.81h6.19c1.06-1.46,2.04-2.91,2.52-3.75l4.26,1.6c-.14,.31-.42,.56-1.37,.45l-1.43,1.71h4.51c.25-.73,.42-1.51,.5-2.32l4.42,.76c-.11,.45-.48,.64-1.09,.64l-.28,.92h1.57l1.54-1.88c-.48,.2-.95,.36-1.37,.5l-.31-.17c.28-.59,.59-1.46,.81-2.21h-17.53c.06,1.48-.56,2.55-1.4,2.94-.81,.39-2.04,.11-2.32-.92-.25-.95,.36-1.65,1.23-2.02,.78-.34,1.62-1.32,1.54-2.3h.39c.22,.53,.36,1.04,.45,1.51Zm21.87,14.06c-.06,.31-.34,.45-.76,.45h-10.42v7.84c0,.22-1.51,.84-2.88,.84h-.59v-8.68h-10.5l-.22-.81h10.72v-2.91l4.51,.39c-.06,.39-.28,.67-1.04,.78v1.74h6.52l1.68-2.21s1.88,1.51,2.97,2.58Zm-10.39-8.71h-4.84l-1.9,2.13c1.88,0,3.5,.06,4.9,.17,.84-.7,1.43-1.48,1.85-2.3Zm6.89,16.69c-1.46-1.9-4.42-4.34-6.61-5.77l.22-.22c10.75,.67,9.94,7.14,6.38,5.99Z"/>
      <path class="cls-1" d="M437.44,99.68v9.86c0,.25-1.4,.78-2.6,.78h-.59v-2.35h-15.65l-.98,1.65-3.28-1.96c.22-.25,.56-.56,.9-.81v-8.34l4.2,.42c-.06,.31-.31,.53-1.04,.64v7.62h6.13v-11.09h-4.62l-.98,1.6-3.22-1.9c.22-.28,.56-.59,.9-.81v-7.87l4.14,.42c-.06,.31-.31,.53-1.04,.64v7.11h4.82v-10.75l4.34,.42c-.06,.42-.28,.67-1.01,.78v9.55h5.04v-8.15l4.12,.39c-.03,.34-.25,.59-.92,.7v8.68c0,.22-1.4,.76-2.63,.76h-.56v-1.57h-5.04v11.09h6.38v-8.6l4.14,.36c-.06,.36-.25,.62-.95,.73Z"/>
      <path class="cls-1" d="M449.23,90.89c.92-1.2,1.65-2.49,2.18-3.84h-7.03l-.25-.81h7.22l1.82-1.71,2.97,2.55c-.2,.28-.48,.36-1.12,.42-1.23,2.49-3.16,4.65-5.74,6.33h1.74l1.26-1.4,2.32,2.3c-.2,.2-.56,.39-1.01,.48v4.31c-.03,.08-1.32,.53-2.49,.53h-.59v-1.04h-2.66c-.11,.9-.31,1.99-.48,2.86h3.14l1.54-1.46,2.72,2.24c-.2,.22-.53,.36-1.09,.45-.34,3.72-1.04,5.88-2.3,6.75-.81,.5-1.88,.78-3.3,.78,0-.78-.11-1.51-.53-1.9-.45-.45-1.4-.78-2.52-1.01l.03-.39c1.12,.11,2.97,.22,3.5,.22,.48,0,.7-.06,.92-.22,.5-.39,.98-2.07,1.23-4.68h-3.25l-1.2,1.4-2.69-1.82c.28-.22,.67-.45,1.09-.62,.28-1.4,.59-3.56,.67-4.73l3.28,1.32h1.9v-3.58h-2.55c-1.57,.87-3.36,1.57-5.35,2.1l-.17-.36c2.44-1.18,4.48-2.77,6.1-4.62-.59,.34-1.4,.36-2.18-.25-.06-1.12-.76-2.41-1.54-3.11l.2-.17c3.64,.14,4.56,1.62,4.2,2.69Zm10.16-2.86c.9-1.09,1.88-2.55,2.35-3.44l3.11,2.13c-.17,.28-.42,.39-1.06,.22-.98,.53-2.38,1.18-3.72,1.65,.92,.76,1.96,1.4,3.05,1.96,.81-1.04,1.71-2.41,2.13-3.28l3.14,2.13c-.17,.25-.42,.39-1.06,.22-.9,.48-2.1,.98-3.3,1.37,1.65,.73,3.42,1.32,5.15,1.74l-.06,.31c-1.32,.25-2.27,1.32-2.72,2.88-.84-.36-1.62-.78-2.38-1.23l-.34,.06v2.6c0,.25,.06,.36,.34,.36h.92c.11,0,.36-.03,.53-.06,.14,0,.42-.06,.59-.08h.25l.14,.03c.64,.31,.87,.56,.87,1.04,0,1.09-.87,1.4-2.91,1.43l2.41,2.04c-.22,.28-.5,.36-1.12,.42-.62,1.18-1.43,2.21-2.41,3.16,4,2.3,3.16,5.26,.76,4.62-.73-.87-1.79-1.85-3.02-2.77-2.16,1.43-4.82,2.49-7.98,3.14l-.17-.39c2.55-.98,4.7-2.38,6.36-4.09-1.34-.95-2.74-1.79-3.98-2.41l.22-.31c2.04,.22,3.75,.62,5.15,1.06,.56-.78,1.04-1.6,1.4-2.46h-7.28l-.25-.81h7.53l1.26-1.2h-.36c-1.99,0-2.16-.64-2.16-2.24v-3.3h-2.07v.92c0,1.68-.56,4.34-4.9,5.74l-.22-.31c1.99-1.65,2.16-3.7,2.16-5.4v-3.19l3.42,1.43h1.32l.92-.92c-2.35-2.04-4.12-4.73-5.18-8.4l.36-.2c.64,1.48,1.62,2.74,2.83,3.84Z"/>
      <path class="cls-1" d="M475.41,100.83c1.76-.87,2.86-1.74,3.39-3.3-2.1-.87-3-1.82-3-3.02,0-1.34,1.04-2.41,2.46-2.41,.84,0,1.46,.17,2.07,.7,.34,.84,.42,1.34,.42,2.21,0,3.42-1.93,5.74-4.98,6.64l-.36-.81Z"/>
      <path class="cls-1" d="M490.31,109.45c-.67,.78-2.21,.73-2.72-.28-.42-.9,.03-1.79,.84-2.32,.78-.67,1.88-2.32,1.85-3.81l.39,.03c1.01,3.02,.62,5.29-.36,6.38Zm6.69-8.32c-.03-.53-.11-1.06-.28-1.62-1.74,.73-4.2,1.68-6.97,2.6-.22,.34-.48,.53-.76,.64l-1.34-3.58s.73-.14,1.06-.34c1.48-1.01,3.36-3.11,4.93-5.24-1.12,.45-2.44,.95-3.86,1.43-.22,.34-.48,.59-.76,.7l-1.46-3.53s.64-.14,.92-.31c1.57-1.37,3.72-5.49,4.37-7.73l3.89,2.07c-.11,.25-.48,.45-1.01,.39-1.34,1.76-3.72,4.12-5.82,5.66l4.68-.06c.7-1.06,1.26-2.07,1.62-2.88l3.64,2.44c-.14,.22-.53,.42-1.09,.31-1.71,2.1-5.18,5.1-8.29,7.03,1.62-.08,3.78-.22,6.02-.39-.34-.98-.81-1.93-1.23-2.72l.31-.14c6.5,2.69,3.78,7.39,1.43,5.26Zm-4.2,6.89c.36-1.79,.25-3.84-.06-5.38l.34-.08c5.12,3.7,1.71,8.01-.28,5.46Zm4.68-1.01c-.03-1.62-.84-3.53-1.68-4.79l.28-.14c6.41,2.07,3.81,7,1.4,4.93Zm8.01-20.86c-.45,1.26-.95,2.44-1.51,3.56h5.32l1.74-1.79,2.91,2.58c-.25,.25-.64,.45-1.29,.53-.36,11.28-1.09,16.41-2.8,18.12-1.04,1.06-2.3,1.46-4,1.46,0-1.01-.14-1.76-.53-2.21-.48-.5-1.46-.9-2.66-1.18l.03-.39c1.18,.08,2.94,.22,3.64,.22,.5,0,.81-.08,1.12-.39,1.2-1.04,1.82-6.52,2.16-16.16h-6.05c-1.37,2.55-3.02,4.7-4.93,6.33l-.36-.2c1.6-3.08,3.14-7.81,3.86-12.32l4.45,1.23c-.11,.34-.45,.59-1.09,.62Zm-1.43,14.95c-.03-2.18-1.04-4.76-2.04-6.58l.31-.17c7.56,3.42,4.54,9.38,1.74,6.75Z"/>
      <path class="cls-1" d="M526.04,87.83l.42,.31-.11,4.51v8.88c0,1.74,.03,3.53,.06,5.29l3.95,.45v.84h-12.01v-.84l4.14-.45,.06-5.29v-11.48l-3.56,.42v-.95l7.06-1.68Z"/>
      <path class="cls-1" d="M535.42,105.95c1.65-1.82,3.36-3.58,4.73-5.04,3.16-3.33,4.37-5.24,4.37-7.98,0-2.58-1.34-4.28-3.64-4.28-.45,0-.92,.06-1.4,.17l-.67,2.63c-.31,1.6-1.09,2.04-1.85,2.04s-1.32-.42-1.6-1.06c.36-3.05,3.3-4.7,6.78-4.7,4.2,0,6.19,2.24,6.19,5.38,0,2.77-2.1,5.18-7.08,8.88-.95,.73-2.32,1.93-3.75,3.19h11.45v2.94h-13.52v-2.16Z"/>
      <path class="cls-1" d="M563.58,87.83c-1.96,3.81-5.57,8.12-10.84,10.44l-.22-.28c3.89-3.19,6.61-8.34,7.73-12.32l4.4,1.71c-.11,.31-.36,.48-1.06,.45Zm6.72,8.32l1.76-1.71,2.97,2.55c-.22,.22-.56,.42-1.18,.48-.31,6.83-.95,10.61-2.46,11.87-.92,.78-2.07,1.12-3.92,1.12,.03-.95-.14-1.76-.64-2.21-.53-.53-1.74-.95-3.08-1.2l.03-.36c1.4,.11,3.61,.25,4.26,.25,.48,0,.73-.08,1.01-.28,.81-.7,1.26-4.28,1.54-9.72h-5.12c-.62,4.51-2.44,9.88-11.62,13.69l-.28-.36c7.08-4.54,8.01-9.52,8.26-13.33h-4.31l-.25-.78h13.05Zm-1.29-11.9l2.8,1.85c-.31,.39-1.26,.64-2.38,.7,1.54,2.94,5.32,5.71,9.83,6.89l-.06,.36c-1.34,.45-2.44,1.71-2.8,3.02-3.75-2.35-6.5-6.02-7.7-10.39h-3.05l-.25-.81h2.58l1.04-1.62Z"/>
      <path class="cls-1" d="M19.12,129.61h2.55l1.6-2.1s1.82,1.46,2.91,2.46c-.08,.31-.39,.45-.78,.45h-4.93l3.39,.84c-.08,.34-.42,.59-1.04,.56-.67,.67-1.68,1.6-2.63,2.41h1.82l1.6-1.9s1.76,1.32,2.88,2.27c-.06,.31-.34,.45-.73,.45h-2.66l2.69,2.04c-.17,.25-.42,.42-1.04,.5v6.58c0,.14-.95,.64-2.46,.64h-.5v-1.01h-2.13v3.08h1.82l1.51-1.82s1.71,1.26,2.77,2.18c-.06,.31-.34,.45-.73,.45h-5.38v3h2.52l1.6-2.1s1.79,1.43,2.88,2.44c-.08,.31-.39,.45-.78,.45H10.14l-.22-.78h6.78v-3h-4.9l-.17-.59c-1.85,1.12-4.54,2.66-8.6,4.65-.14,.36-.39,.62-.7,.7l-1.96-3.47c.9-.14,2.3-.39,4.03-.73v-8.68H.84l-.22-.78h3.78v-3.56h-1.82l-.08-.28c-.62,.62-1.26,1.2-1.93,1.68l-.31-.2c1.79-2.63,3.3-7.17,3.78-10l4.03,1.18c-.08,.34-.36,.59-1.06,.64,7.06,1.9,3.98,6.16,1.85,4.48-.34-1.01-1.12-2.44-2.18-3.75-.84,1.82-2.13,3.78-3.67,5.46h3.84l1.43-1.99s1.62,1.37,2.55,2.32c-.08,.31-.34,.45-.73,.45h-3v3.56h.59l1.4-2.07s1.6,1.43,2.52,2.41c-.08,.31-.36,.45-.76,.45h-3.75v8.15l4.54-.98,.03,.14h5.04v-3.08h-2.04v.81c0,.2-.9,.7-2.35,.7h-.5v-9.91l3.14,1.2h6.78l1.34-1.57H11.2l-.22-.81h8.29l.73-3.81h-5.4c5.43,1.51,1.96,5.24-.14,3.05,.11-1.09-.2-2.3-.53-3.05h-2.3l-.22-.81h5.77l-.31-.2c-.03-1.09-.62-2.27-1.26-2.94l.22-.17c4.54,.11,4.56,2.46,3.3,3.3ZM1.48,146.61c.25-1.79-.03-3.98-.42-5.54l.39-.08c4.59,3.75,1.79,7.84,.03,5.63Zm9.02-4.4c-.73,1.43-1.65,3.08-2.52,4.23l-.48-.17c.28-1.46,.56-3.72,.76-5.63l3.28,.98c-.14,.34-.45,.59-1.04,.59Zm6.19-4.79h-2.04v2.44h2.04v-2.44Zm-2.04,3.22v2.38h2.04v-2.38h-2.04Zm7.14-.78v-2.44h-2.13v2.44h2.13Zm-2.13,3.16h2.13v-2.38h-2.13v2.38Z"/>
      <path class="cls-1" d="M33.04,132.3l3.53,1.4h4.37v-2.86h-10.14l-.22-.78h10.36v-3.72l4.42,.45c-.06,.39-.28,.7-1.04,.81v2.46h5.24l1.93-2.38s2.21,1.6,3.56,2.72c-.08,.31-.39,.45-.81,.45h-9.91v2.86h4.45l1.54-1.71,3.22,2.46c-.2,.22-.56,.48-1.15,.59v8.46c-.03,.22-1.62,.95-2.77,.95h-.56v-1.12h-4.73v3.36h6.02l1.96-2.41s2.18,1.6,3.56,2.74c-.08,.31-.39,.45-.81,.45h-10.72v4.14c0,.31-1.43,.98-2.72,.98h-.67v-5.12h-11.03l-.22-.78h11.26v-3.36h-4.59v.84c0,.34-1.43,1.06-2.8,1.06h-.5v-12.94Zm3.3,2.18v3.53h4.59v-3.53h-4.59Zm4.59,4.34h-4.59v3.7h4.59v-3.7Zm3.39-.81h4.73v-3.53h-4.73v3.53Zm4.73,4.51v-3.7h-4.73v3.7h4.73Z"/>
      <path class="cls-1" d="M70.76,127.43l3.19,1.26h5.85l1.48-1.6,3.08,2.32c-.17,.22-.53,.48-1.09,.59v6.47c-.03,.17-1.23,.67-2.24,.81l3.19,3.02c-.36,.31-1.01,.31-1.9-.03-1.06,.22-2.35,.42-3.75,.62v4.14h1.74l1.65-2.18s1.9,1.48,3.02,2.52c-.06,.31-.36,.45-.76,.45h-5.66v5.12h2.46l1.74-2.24s1.9,1.54,3.08,2.6c-.08,.31-.39,.45-.78,.45h-16.69l-.22-.81h7.11v-5.12h-5.43l-.22-.78h5.66v-3.78c-1.68,.17-3.42,.25-5.01,.31-.17,1.23-1.48,1.9-2.69,.81-.06-1.32-.64-2.83-1.32-4.03v13.33c-.03,.2-1.06,.95-2.63,.95h-.59v-10.25c-1.15,1.6-2.49,3.05-4.06,4.34l-.34-.34c2.02-2.88,3.33-6.86,4.09-10.64h-3.53l-.22-.78h4.06v-4.23c-1.37,.2-2.77,.39-4.12,.5l-.08-.36c2.88-1.12,6.36-3.14,8.06-4.54l3.7,3.08c-.34,.28-.95,.36-1.85,.08-.73,.22-1.57,.42-2.49,.64v4.82h.31l1.43-2.04s1.62,1.43,2.58,2.38c-.08,.31-.36,.45-.76,.45h-3.56v1.76c2.8,1.01,3.89,2.46,4,3.61,3.42-.95,7.56-2.55,10-3.81h-.17v-1.18h-6.27v.76c0,.28-1.34,.95-2.6,.95h-.45v-10.42Zm9.32,7.9v-5.82h-6.27v5.82h6.27Z"/>
      <path class="cls-1" d="M91.81,142.83c1.76-.87,2.86-1.74,3.39-3.3-2.1-.87-3-1.82-3-3.02,0-1.34,1.04-2.41,2.46-2.41,.84,0,1.46,.17,2.07,.7,.34,.84,.42,1.34,.42,2.21,0,3.42-1.93,5.74-4.98,6.64l-.36-.81Z"/>
      <path class="cls-1" d="M114.41,149.66c0-1.26-.28-2.6-.7-3.92-1.46,1.29-3.47,3.02-5.88,4.82-.22,.53-.59,.9-.9,1.06l-2.04-3.58c.78-.53,.9-.78,.9-1.48v-19.26l3.44,1.34h4.12l1.48-1.62,3.08,2.38c-.2,.22-.59,.45-1.15,.56v10.42c-.06,.2-1.57,.81-2.6,.81h-.53v-1.65h-4.79v7.22l4.56-1.9c-.48-1.2-1.04-2.35-1.65-3.33l.31-.17c8.18,4.4,5.26,11.12,2.35,8.32Zm-5.57-16.04h4.79v-4.17h-4.79v4.17Zm4.79,5.1v-4.28h-4.79v4.28h4.79Zm5.57,13.89h-.53v-25.31l3.22,1.4h3.56l1.4-1.62,3.05,2.35c-.17,.22-.56,.42-1.09,.53v14.03c0,2.21-.42,3.47-3.78,3.81-.06-1.06-.17-1.88-.5-2.32-.34-.53-.84-.87-1.96-1.09v-.39s2.13,.14,2.6,.14c.45,0,.56-.17,.56-.53v-14.11h-3.98v21.98c0,.39-1.12,1.15-2.55,1.15Z"/>
      <path class="cls-1" d="M154.06,128.71l1.96-2.46s2.24,1.65,3.58,2.83c-.06,.31-.39,.45-.78,.45h-3.47v18.93c0,2.24-.64,3.86-4.93,4.14-.08-1.06-.36-1.9-1.04-2.38-.67-.5-1.54-.87-3.58-1.18v-.39s4.56,.28,5.46,.28c.56,0,.76-.2,.76-.64v-18.76h-18.62l-.22-.81h20.89Zm-17.64,4.2l3.28,1.32h4.4l1.48-1.62,3.14,2.38c-.2,.22-.56,.48-1.15,.59v9.3c-.03,.22-1.62,.81-2.66,.81h-.53v-2.32h-4.82v2.44c0,.31-1.32,1.01-2.66,1.01h-.48v-13.89Zm3.14,2.13v7.53h4.82v-7.53h-4.82Z"/>
      <path class="cls-1" d="M189,145.32c-.08,.31-.39,.45-.81,.45h-10.84v2.94c0,2.32-.59,3.56-4.65,3.89-.11-1.04-.28-1.76-.81-2.27-.5-.48-1.2-.84-2.86-1.09v-.39s3.61,.25,4.26,.25c.42,0,.56-.14,.56-.5v-2.83h-11.03l-.25-.81h11.28v-2.74l3.36,.28c1.37-.53,2.83-1.18,3.98-1.76h-15.79l-.25-.81h17.16l1.9-1.68,2.94,2.8c-.25,.25-.56,.31-1.2,.34-2.07,.67-5.26,1.32-8.06,1.76-.11,.08-.31,.14-.53,.17v1.65h6.5l1.82-2.38s2.07,1.62,3.33,2.74Zm-12.29-15.09h6.78l1.85-2.49s2.07,1.68,3.3,2.83c-.08,.31-.39,.45-.78,.45h-24.64l-.25-.78h12.07l-.45-.25c-.17-1.29-1.04-2.77-1.9-3.64l.22-.17c5.46,.17,5.4,3.28,3.81,4.06Zm-8.65,9.02h-.48v-7.64l3.5,1.37h9.13l1.51-1.68,3.28,2.44c-.17,.22-.53,.45-1.12,.59v3.72c-.03,.2-1.74,.73-2.8,.73h-.59v-1.06h-9.6v.56c0,.28-1.48,.98-2.83,.98Zm2.83-5.49v3.14h9.6v-3.14h-9.6Z"/>
      <path class="cls-1" d="M215.82,131.43c-.14,.34-.45,.56-1.09,.5-1.15,1.12-2.97,2.63-4.73,3.84h3.89l1.71-1.74,3,2.86c-.2,.25-.5,.31-1.06,.36-1.09,.84-2.94,2.02-4.34,2.66l-.2-.2c.31-.84,.7-2.16,1.01-3.16h-17.58c.31,2.1-.48,3.58-1.54,4.14-.98,.53-2.21,.22-2.58-.84-.31-1.04,.34-1.79,1.23-2.21,.98-.53,1.9-2.02,1.68-3.64l.39-.03c.31,.64,.5,1.23,.64,1.79h12.82c.87-1.76,1.74-4.12,2.24-5.82l4.51,1.48Zm-6.83,8.68l1.99-1.76,3,2.8c-.22,.31-.5,.39-1.26,.45-1.23,2.07-2.83,3.86-4.76,5.4,3.11,1.15,6.72,1.79,10.42,2.1l-.06,.34c-1.48,.36-2.44,1.51-2.86,3.19-3.92-.78-7.31-1.99-10.08-3.92-3.44,2.02-7.76,3.3-12.96,3.92l-.14-.39c4.42-1.12,8.26-2.8,11.26-5.04-1.74-1.65-3.14-3.7-4.12-6.3h-3l-.25-.78h12.82Zm6.61-10.81c-.31,.28-.92,.28-1.82-.11-2.86,.42-6.58,.78-10.47,1.04,6.66,2.02,3.33,7,.78,4.59,.03-1.57-.59-3.33-1.26-4.51l.08-.06c-3.11,.2-6.33,.34-9.3,.34l-.06-.5c6.47-.73,14.76-2.38,19.07-3.78l2.97,3Zm-17.42,5.74c-.03-1.48-.73-3.16-1.48-4.26l.25-.17c7.08,1.57,3.89,6.75,1.23,4.42Zm1.82,5.85c1.23,2.1,3.05,3.67,5.26,4.87,1.57-1.43,2.8-3.05,3.72-4.87h-8.99Z"/>
      <path class="cls-1" d="M224.45,134.34c.64-3.11,1.15-6.16,1.32-7.87l4.2,.56c-.08,.34-.25,.64-1.12,.73-.28,1.62-.76,3.98-1.34,6.52l2.55-.06c.03-.95,.06-1.9,.03-2.86l4.31,.73c-.08,.48-.45,.7-1.09,.76l-.08,1.26,1.9-.06,.03,.42-2.02,.5c-.31,3.61-1.01,7.03-2.6,10,6.05,3.58,2.94,6.8,.62,5.35-.53-.95-1.32-1.93-2.27-2.88-1.65,2.07-3.95,3.81-7.08,5.15l-.28-.28c2.66-1.76,4.51-3.92,5.82-6.36-1.54-1.37-3.25-2.6-4.79-3.5,.42-1.37,.9-3.36,1.37-5.49l-1.06,.2c-.2,.36-.5,.59-.84,.62l-.9-3.42,3.33-.03Zm2.58,1.99c-.53,2.24-1.12,4.51-1.68,6.36,1.12,.39,2.1,.76,2.94,1.15,1.01-2.55,1.51-5.32,1.71-8.12l-2.97,.62Zm9.02,15.12h-.53v-22.2l3.3,1.4h3.64l1.62-1.76,3.19,2.52c-.2,.25-.62,.48-1.18,.62v17.53c-.06,.28-1.57,1.15-2.8,1.15h-.53v-2.8h-4.06v2.41c0,.39-1.23,1.15-2.66,1.15Zm2.66-19.99v15.65h4.06v-15.65h-4.06Z"/>
      <path class="cls-1" d="M275.04,141.68v9.86c0,.25-1.4,.78-2.6,.78h-.59v-2.35h-15.65l-.98,1.65-3.28-1.96c.22-.25,.56-.56,.9-.81v-8.34l4.2,.42c-.06,.31-.31,.53-1.04,.64v7.62h6.13v-11.09h-4.62l-.98,1.6-3.22-1.9c.22-.28,.56-.59,.9-.81v-7.87l4.14,.42c-.06,.31-.31,.53-1.04,.64v7.11h4.82v-10.75l4.34,.42c-.06,.42-.28,.67-1.01,.78v9.55h5.04v-8.15l4.12,.39c-.03,.34-.25,.59-.92,.7v8.68c0,.22-1.4,.76-2.63,.76h-.56v-1.57h-5.04v11.09h6.38v-8.6l4.14,.36c-.06,.36-.25,.62-.95,.73Z"/>
      <path class="cls-1" d="M281.54,126.89l3.33,1.37h16.91l1.51-1.71,3.02,2.44c-.2,.22-.59,.45-1.15,.59v21.84c-.06,.25-1.48,1.01-2.63,1.01h-.48v-2.02h-17.47v1.04c0,.39-1.2,1.18-2.55,1.18h-.5v-25.73Zm20.52,2.16h-17.47v20.58h17.47v-20.58Zm-8.74,13.58l.06,.34c-1.26,.81-3.19,1.96-5.96,3.42-.14,.36-.39,.62-.7,.7l-1.57-3.25c1.46-.14,4.82-.64,8.18-1.2Zm-7.08-7.56l2.35,.98h1.4l1.06-1.09,2.18,1.65c-.08-.84-.17-1.71-.22-2.58h-7.56l-.22-.78h7.76c-.08-1.2-.11-2.46-.11-3.72l3.7,.64c-.06,.34-.34,.64-.95,.67l.03,2.41h2.21l.64-.84-.14-.06c-.25-.95-1.06-2.04-1.74-2.63l.25-.22c3.7,.17,4.03,2.04,3.19,2.8,.48,.39,1.04,.87,1.46,1.29-.08,.31-.34,.45-.73,.45h-5.12c.11,2.04,.34,4,.78,5.8,.7-1.46,1.26-3.08,1.68-4.82l3.53,1.46c-.17,.34-.5,.56-1.15,.48-.81,2.24-1.82,4.12-3.02,5.71,.42,.81,.9,1.54,1.51,2.16,.31,.36,.45,.34,.67-.08,.31-.59,.78-1.76,1.15-2.77l.31,.08-.45,3.81c.76,1.29,.87,1.96,.5,2.38-1.01,1.01-2.8,.06-3.7-.87-.73-.78-1.34-1.65-1.88-2.6-1.82,1.76-3.98,3.02-6.41,3.98l-.28-.34c2.16-1.37,4.17-3.22,5.8-5.54-.76-1.88-1.2-3.95-1.46-6.19-.11,.14-.42,.31-.78,.36v4.14c-.03,.22-1.12,.76-1.9,.76h-.39v-.84h-1.74v.67c0,.17-.98,.67-1.9,.67h-.31v-7.36Zm3.95,5.24v-3.47h-1.74v3.47h1.74Z"/>
      <path class="cls-1" d="M325.44,129.27c-.08,.31-.39,.45-.78,.45h-8.88l3.7,.98c-.11,.31-.39,.56-.98,.56-1.4,1.48-3.67,3.22-5.63,4.37,2.04-.06,5.15-.22,8.46-.45-.53-1.23-1.32-2.38-2.1-3.22l.28-.2c8.04,2.3,5.35,8.4,2.49,6.08-.03-.64-.17-1.32-.42-1.96-1.51,.5-3.47,1.12-5.74,1.76l3.98,.34c-.03,.39-.22,.64-.92,.76v3.05h1.37l1.65-2.3s1.88,1.57,2.94,2.63c-.08,.31-.36,.45-.76,.45h-5.21v4.31l6.41-.98,.06,.36c-2.77,1.29-6.94,2.94-13.16,5.07-.2,.34-.48,.59-.81,.67l-1.6-3.95c1.23-.11,3.33-.36,5.91-.73v-4.76h-5.18l-.22-.78h5.4v-4.09l-3,.81c-.2,.34-.45,.56-.7,.67l-1.54-3.67s.62-.14,.87-.28c1.43-.95,3.22-3.86,3.86-5.52h-4.98l-.22-.78h10.72l1.68-2.3s1.9,1.57,3.05,2.63Zm3.7,.62v15.62c0,.28-1.32,.87-2.44,.87h-.56v-17.64l4,.36c-.06,.39-.28,.67-1.01,.78Zm5.6-2.04v21.03c0,2.21-.5,3.47-4.17,3.81-.11-1.01-.25-1.76-.7-2.27-.48-.48-1.12-.84-2.55-1.06v-.39s3.02,.2,3.67,.2c.48,0,.62-.17,.62-.53v-21.95l4.14,.39c-.03,.42-.31,.7-1.01,.78Z"/>
      <path class="cls-1" d="M340.96,137c-.22-1.37-1.18-2.91-2.1-3.84l.25-.2c7.03,.73,4.54,5.94,1.85,4.03Zm.17,6.55q.56-.98,4.7-10.84l.48,.11c-.81,3-2.32,8.54-2.63,9.88-.17,.84-.34,1.79-.34,2.49,.08,1.48,1.18,2.55,1.06,5.07-.06,1.4-.95,2.3-2.24,2.3-.59,0-1.23-.42-1.4-1.46,.5-2.94,.39-5.57-.25-6.02-.36-.28-.78-.39-1.4-.45v-.53h1.23c.36,0,.5,0,.78-.56Zm1.79-12.4c-.42-1.48-1.6-3.11-2.6-4.17l.25-.17c7.5,.67,5.26,6.16,2.35,4.34Zm11.28,10.89h-.36v-3.11c-1.01,1.09-2.27,1.99-3.75,2.74l-.31-.45c1.34-1.18,2.27-2.66,2.88-4.28h-2.58l-.22-.81h3.98v-3.28c-1.2,.08-2.46,.11-3.64,.08l-.11-.5c2.49-.36,5.52-1.2,7.31-1.93h-7.73v12.01c0,.34-1.32,1.06-2.6,1.06h-.48v-15.2l3.28,1.34h2.38c.34-.98,.81-2.44,1.12-3.42l4.14,.98c-.14,.42-.53,.62-1.15,.59-.7,.53-1.76,1.26-2.63,1.85h6.38l1.37-1.57,3.05,2.27c-.17,.2-.5,.42-1.01,.53v9.24c0,1.18-.2,1.93-1.29,2.38,.5,.42,2.02,1.65,2.97,2.58-.08,.31-.36,.45-.78,.45h-8.68c-1.23,3.11-4.12,5.66-10.81,7.06l-.17-.36c4.51-1.68,6.55-4.09,7.45-6.69h-6.8l-.22-.81h7.25c.22-.84,.34-1.71,.36-2.58l4.59,.64c-.08,.42-.42,.67-1.06,.7-.08,.42-.17,.84-.31,1.23h4.23l1.51-2.04c-.5,.14-1.15,.25-1.99,.31-.06-.67-.11-1.26-.45-1.57-.28-.25-.7-.56-1.82-.7v-.39s1.9,.14,2.41,.14c.39,0,.48-.17,.48-.5v-3.5c-.08,.31-.34,.42-.67,.42h-3.72v.11c5.12,.59,3.64,4.12,1.65,3-.28-.76-1.01-1.68-1.65-2.35v3.72c0,.17-.7,.62-1.79,.62Zm-2.6-6.44c-.06-.78-.5-1.74-.98-2.24l.31-.2c3.84,.92,2.13,3.61,.67,2.44Zm8.79,.87v-5.96h-2.44l1.88,1.93c-.28,.22-.78,.2-1.4-.08-.7,.11-1.54,.22-2.44,.34v3.44h1.4l1.09-1.34s1.18,.92,1.9,1.68Zm-1.93-2.27c-.59,.59-1.32,1.26-1.93,1.68l-.45-.28c.36-.67,.81-1.82,1.2-2.91l2.21,1.15c-.14,.25-.53,.45-1.04,.36Zm4.03,18.23c-1.23-2.1-4.14-4.59-6.41-5.96l.2-.25c10.67,.95,9.66,7.62,6.22,6.22Z"/>
      <path class="cls-1" d="M370.5,137.34c-.31-1.46-1.32-3.02-2.27-4.03l.25-.2c7.36,.73,4.87,6.16,2.02,4.23Zm.42,6.22q.53-1.01,4.9-12.1l.48,.11c-.9,3.36-2.46,9.55-2.74,11-.2,.92-.36,1.93-.36,2.63,.08,1.54,1.2,2.55,1.12,5.07-.06,1.4-.98,2.32-2.3,2.32-.64,0-1.26-.42-1.46-1.46,.5-2.91,.39-5.57-.25-6.02-.36-.25-.81-.39-1.4-.45v-.53h1.2c.39,0,.53,0,.81-.59Zm1.65-12.54c-.31-1.51-1.4-3.16-2.32-4.23l.22-.17c7.67,.84,5.04,6.44,2.1,4.4Zm9.07-3.3v7.34l.28-.11c4.48,3.7,2.35,7.56,.7,5.8,.14-1.74-.42-3.89-.98-5.43v4.17c-.03,5.68-1.54,10.28-6.58,13.24l-.31-.28c2.94-3.14,3.89-7.11,4-11.96-.34,1.12-1.37,1.54-2.27,.56,.2-1.93-.34-4.34-.92-6.02l.36-.11c1.74,1.32,2.55,2.72,2.83,3.89v-12.24l3.89,.39c-.06,.39-.28,.67-1.01,.76Zm11.76-.06v23.77c0,.34-1.29,1.06-2.35,1.06h-.59v-12.43c-.17,1.18-1.09,1.68-1.93,.81,.06-1.62-.48-3.61-1.06-5.15v14.48c0,.34-1.23,.98-2.24,.98h-.56v-23.6l3.64,.36c-.06,.34-.25,.56-.84,.67v6.33l.11-.03c1.9,1.51,2.72,3.08,2.88,4.28v-12.6l3.81,.39c-.06,.34-.25,.59-.87,.67Z"/>
      <path class="cls-1" d="M409.02,149.71c-2.49,1.43-6.69,2.55-10.78,2.97l-.11-.36c3.44-1.2,7-3.5,8.71-5.35l3.86,2.49c-.28,.31-.78,.45-1.68,.25Zm15.09-13.8c-.08,.31-.39,.45-.81,.45h-24.89l-.22-.78h20.66l1.85-2.32s2.1,1.57,3.42,2.66Zm-.84-6.02c-.08,.31-.36,.45-.78,.45h-5.43v3.86c0,.22-1.43,.7-2.74,.7h-.56v-1.23h-5.54v.73c0,.25-1.4,.7-2.69,.7h-.56v-4.76h-5.46l-.22-.81h5.68v-3.22l4.28,.39c-.06,.36-.28,.67-1.04,.78v2.04h5.54v-3.19l4.31,.36c-.06,.39-.25,.67-1.01,.78v2.04h1.18l1.76-2.21s2.04,1.51,3.28,2.58Zm-20.86,18.26h-.5v-11.26l3.5,1.37h11.31l1.54-1.68,3.25,2.44c-.2,.22-.59,.48-1.15,.59v7.22c-.03,.2-1.71,.78-2.8,.78h-.56v-1.04h-11.79v.53c0,.31-1.46,1.04-2.8,1.04Zm7.03-9.1h-4.23v2.91h4.23v-2.91Zm-4.23,3.72v3h4.23v-3h-4.23Zm8.54-12.43h-5.54v2.52h5.54v-2.52Zm5.54,21.7c-1.18-1.26-3.39-2.86-6.86-3.95l.08-.36c15.82,.42,9.86,6.83,6.78,4.31Zm-2.3-10.08v-2.91h-4.34v2.91h4.34Zm-4.34,3.81h4.34v-3h-4.34v3Z"/>
      <path class="cls-1" d="M427.11,139.55l-.17-.31c4.76-3.08,10.02-9.02,11.23-13.05l5.12,1.34c-.08,.39-.48,.53-1.4,.62,2.58,3.44,7.76,5.43,12.01,6.64l-.03,.45c-1.48,.39-2.49,1.93-2.74,3.25-4.14-2.18-7.98-5.46-9.69-9.97-2.8,4.31-8.79,8.82-14.34,11.03Zm11.23,11.26v-8.79h-9.02l-.22-.78h9.24v-4.17h-4.68l-.22-.78h8.85l1.65-2.1s1.88,1.43,3.05,2.44c-.08,.31-.36,.45-.76,.45h-4.48v4.17h5.01l1.79-2.32s2.07,1.57,3.28,2.66c-.08,.31-.36,.45-.76,.45h-9.32v8.79h5.88l1.96-2.52s2.21,1.71,3.56,2.88c-.08,.31-.39,.45-.81,.45h-24.39l-.25-.81h10.64Zm-5.15-1.88c.06-1.96-.62-4.09-1.34-5.71l.28-.14c7.36,3.02,3.78,8.62,1.06,5.85Zm16.46-4.42c-.14,.34-.5,.56-1.12,.53-1.51,1.79-3.36,3.61-4.98,4.84l-.36-.22c.62-1.65,1.46-4.37,2.1-6.75l4.37,1.6Z"/>
      <path class="cls-1" d="M458.56,137.03c-.25-1.37-1.23-2.83-2.1-3.72l.22-.2c7.17,.53,4.65,5.8,1.88,3.92Zm.48,6.55q.53-1.06,5.26-12.74l.45,.11c-.98,3.53-2.72,10.02-3.02,11.59-.22,.95-.42,1.96-.39,2.69,.06,1.51,1.18,2.55,1.09,5.07-.06,1.37-.92,2.32-2.27,2.32-.64,0-1.26-.39-1.48-1.46,.53-2.94,.39-5.6-.25-6.02-.39-.28-.81-.39-1.43-.45v-.53h1.23c.42,0,.53-.03,.81-.59Zm1.68-12.71c-.31-1.48-1.37-3.05-2.27-4.09l.22-.17c7.59,.73,4.98,6.27,2.04,4.26Zm22.06-.48c-.06,.31-.36,.45-.76,.45h-12.63c-.36,.59-.76,1.18-1.2,1.76l2.27,1.09h6.24l1.68-1.71,2.8,2.46c-.2,.25-.59,.45-1.2,.53l-.17,5.12,1.23-2.04s1.51,1.54,2.32,2.55c-.08,.31-.34,.45-.73,.45h-2.88c-.11,2.32-.25,4.14-.45,5.6l1.26-2.02s1.46,1.43,2.24,2.38c-.08,.31-.34,.45-.7,.45h-2.91c-.34,2.1-.81,3.28-1.48,3.95-.92,.95-2.16,1.2-3.61,1.2,0-.81-.06-1.46-.39-1.88-.39-.48-1.09-.76-2.07-.98v-.39c.87,.06,2.18,.14,2.74,.14,.45,0,.73-.08,.98-.34,.28-.25,.53-.81,.73-1.71h-8.12l-1.09,1.37-2.94-1.74c.22-.22,.59-.45,.98-.64,.28-1.43,.59-3.36,.9-5.4h-2.77l-.22-.81h3.11c.25-1.96,.5-4,.67-5.74-.9,.95-1.88,1.82-2.91,2.52l-.28-.22c1.93-2.49,3.53-6.86,4.2-10.44l4.4,1.26c-.11,.28-.34,.42-1.04,.34-.31,.67-.67,1.37-1.06,2.07h8.12l1.71-2.3s1.93,1.57,3.05,2.66Zm-5.99,10.67h-7.98c-.28,2.02-.62,4.03-.9,5.6h8.34c.22-1.32,.39-3.16,.53-5.6Zm.22-6.58h-7.31c-.2,1.57-.45,3.64-.76,5.77h7.87c.08-1.68,.14-3.58,.2-5.77Zm-4.79,11.12c-.11-1.32-.98-2.91-1.79-3.86l.25-.17c6.19,1.43,3.81,5.82,1.54,4.03Zm.5-6.36c-.28-1.23-1.2-2.74-1.96-3.64l.28-.17c5.99,1.2,3.86,5.38,1.68,3.81Z"/>
      <path class="cls-1" d="M500.98,127.45v5.07h5.1v-5.04l4.34,.39c-.06,.36-.28,.67-1.04,.78v5.18s-.03,.06-.11,.08c.59,.48,1.88,1.54,2.72,2.32-.08,.31-.39,.45-.78,.45h-18.98v4.14c0,3.64-.5,8.6-5.99,11.62l-.22-.22c2.6-3.36,2.86-7.62,2.86-11.4v-6.3l3.86,1.37h14.56l1.23-1.65c-.5,.14-1.2,.25-1.88,.25h-.56v-1.2h-13.27l-1.04,1.48-3.42-1.76c.25-.31,.64-.64,1.04-.9v-4.68l4.28,.42c-.06,.42-.31,.7-1.04,.81v3.84h5.07v-6.19l4.28,.34c-.06,.39-.28,.67-1.01,.78Zm9.18,12.4c-.08,.31-.39,.45-.78,.45h-6.55v4.48h4.28l1.68-2.24s1.85,1.54,3,2.58c-.08,.31-.39,.45-.78,.45h-8.18v6.27c0,.17-1.04,.76-2.77,.76h-.62v-7.03h-6.86l-.22-.78h7.08v-4.48h-5.57l-.22-.78h12.01l1.57-2.16s1.85,1.46,2.94,2.49Z"/>
      <path class="cls-1" d="M541.8,138.74c-.08,.31-.42,.45-.9,.45h-25.09l-.28-.9h19.8l2.32-3.25s2.6,2.24,4.14,3.7Z"/>
      <path class="cls-1" d="M546.76,129.25l3.22,1.23c.2-1.26,.36-2.94,.39-4.14l4.03,.76c-.08,.36-.39,.59-1.01,.62-.62,.84-1.6,1.9-2.58,2.77h2.55l1.23-1.43,2.72,2.07c-.14,.2-.48,.36-.9,.45v6.44l.87-.11c1.68-2.16,1.82-4.76,1.82-6.97v-3.67l3.28,1.23h2.07l1.43-1.51,2.63,2.16c-.17,.2-.53,.34-1.01,.39v4.59c0,.31,.06,.42,.36,.42h1.15c.11,0,.39-.03,.5-.06,.17,0,.45-.06,.59-.11h.28l.11,.06c.67,.31,.9,.56,.9,1.09,0,1.09-.92,1.6-3.33,1.6h-1.18c-1.96,0-2.16-.59-2.16-2.27v-5.57h-2.8v1.65c0,2.13-.42,5.29-4.03,7.31l-.08,.06-.67,.34-.08-.11-.64,.22v9.86c0,1.93-.42,3-3.53,3.28-.06-.84-.17-1.51-.5-1.88-.36-.42-.87-.7-1.96-.9v-.42s2.16,.17,2.66,.17c.42,0,.53-.17,.53-.53v-8.74l-4.03,1.15c-.08,4.14-.67,8.65-4.51,11.87l-.31-.22c1.65-3.11,1.93-7,1.99-10.89l-.53,.14c-.14,.36-.45,.62-.78,.67l-.87-3.22,2.18-.14v-9.69Zm6.86,2.02h-4.03v7.42l4.03-.39v-7.03Zm-2.63,5.96c-.03-1.6-.64-3.61-1.2-4.96l.36-.14c4.68,3.19,2.55,6.86,.84,5.1Zm.03,8.76c0-1.62-.64-3.7-1.2-5.07l.36-.14c4.87,3.28,2.6,7.03,.84,5.21Zm8.15-6.1h-1.34l-.25-.78h7.62l1.79-1.79,3.05,2.66c-.2,.28-.45,.36-1.12,.45-.76,2.46-1.85,4.68-3.47,6.58,1.76,1.04,3.84,1.74,6.05,2.27l-.06,.31c-1.34,.28-2.32,1.29-2.8,2.86-2.1-.92-3.84-2.02-5.24-3.47-2.04,1.6-4.62,2.86-7.95,3.67l-.17-.36c2.88-1.23,5.07-2.94,6.72-5.01-1.32-1.88-2.24-4.26-2.83-7.36Zm6.19,0h-5.68c.76,2.35,1.99,4.14,3.56,5.54,1.01-1.68,1.68-3.56,2.13-5.54Z"/>
      <path class="cls-1" d="M8.71,170.18c-.73,1.01-1.85,2.44-2.74,3.53h2.44l1.51-1.65,3.02,2.38c-.2,.25-.59,.45-1.15,.59v16.69c-.03,.22-1.51,.9-2.6,.9h-.5v-2.18H4.42v2.04c0,.36-1.15,1.09-2.49,1.09h-.5v-21.17l3.11,1.32h.17c.22-1.48,.48-3.72,.59-5.29l4.56,1.09c-.14,.48-.5,.67-1.15,.67Zm-4.28,4.34v6.94h4.26v-6.94H4.42Zm0,15.12h4.26v-7.36H4.42v7.36Zm14.53-19.4c-.48,1.2-.98,2.32-1.54,3.39h4.42l1.76-1.82,2.97,2.63c-.22,.25-.56,.45-1.23,.53-.2,11.28-.59,16.41-2.13,18.09-.98,1.04-2.21,1.48-4.06,1.48,0-1.06-.14-1.85-.62-2.32-.5-.5-1.6-.95-2.94-1.23l.03-.39c1.32,.11,3.28,.25,3.98,.25,.5,0,.76-.08,1.04-.36,1.04-.95,1.32-6.52,1.51-16.04h-5.18c-1.37,2.38-2.97,4.37-4.76,5.91l-.34-.22c1.51-2.91,3.05-7.45,3.78-11.73l4.4,1.29c-.11,.34-.45,.59-1.09,.56Zm-2.58,15.06c-.14-1.99-1.23-4.26-2.38-5.8l.25-.17c8.15,2.38,5.1,8.46,2.13,5.96Z"/>
      <path class="cls-1" d="M33.18,181.05v-7.67l3.19,1.26h12.66l1.43-1.51,3.02,2.24c-.17,.2-.53,.42-1.06,.53v3.95c-.03,.22-1.54,.87-2.58,.87h-.53v-.9h-13.13v.39c0,.25-1.34,.92-2.58,.92h-.39l.17,.67h18.12l1.65-1.65,2.83,2.72c-.22,.22-.48,.28-1.06,.34-.95,.84-2.63,2.02-3.81,2.69l-.28-.17c.25-.84,.62-2.13,.84-3.14h-11.56l3.36,.73c-.11,.34-.45,.53-1.32,.56-.34,.36-.67,.73-1.06,1.09h5.15l1.65-1.6,3.14,2.55c-.22,.28-.64,.36-1.34,.42-3.67,4.76-9.13,7.36-18.45,8.23l-.17-.39c3.89-.92,7.17-2.13,9.83-3.78-.36,.11-.84,.08-1.32-.17-.34-.9-1.15-1.88-1.99-2.58-1.71,1.09-3.7,2.02-5.82,2.66l-.22-.28c3.22-1.96,5.96-4.98,7.28-7.45h-5.29c.2,1.82-.42,3.14-1.32,3.7-.84,.56-2.18,.34-2.58-.73-.31-.98,.31-1.79,1.18-2.18,.84-.53,1.79-1.82,1.68-3.16h.39l.31,.84Zm7.9-11.9v4.23c0,.2-1.2,.62-2.21,.62h-.5v-2.27h-8.32l-.25-.81h8.57v-2.72l3.56,.34c-.06,.28-.25,.53-.84,.62Zm-4.9,6.3v3.56h2.46v-3.56h-2.46Zm5.43,14.48c1.74-1.15,3.16-2.52,4.31-4.14h-5.77c-.45,.39-.92,.76-1.43,1.12,3.14,.31,3.61,2.13,2.88,3.02Zm-.25-14.48v3.56h2.6v-3.56h-2.6Zm5.68-6.3v1.76h4.37l1.62-2.24s1.85,1.54,2.91,2.6c-.08,.31-.36,.45-.76,.45h-8.15v1.46c0,.2-1.2,.62-2.21,.62h-.53v-5.63l3.58,.34c-.03,.31-.22,.56-.84,.64Zm-.34,9.86h2.6v-3.56h-2.6v3.56Z"/>
      <path class="cls-1" d="M70.11,192.08c.06-.87,.03-1.76-.11-2.69-2.13,.84-5.07,1.93-8.48,3.02-.2,.28-.42,.48-.67,.59l-1.74-3.78s.87-.2,1.23-.53c1.76-1.62,4.14-5.01,6.13-8.4-1.37,.5-3.05,1.12-4.87,1.71-.14,.22-.34,.39-.53,.5l-1.68-3.58s.64-.17,.92-.42c1.62-1.82,3.98-7.11,4.62-10.02l4.45,1.4c-.11,.31-.42,.56-.98,.56-1.6,2.74-4.48,6.33-6.92,8.57,1.46,0,3.53,0,5.74-.06,1.01-1.85,1.85-3.64,2.32-5.1l4.28,2.18c-.14,.31-.56,.53-1.2,.48-2.21,3.81-6.97,9.35-11,12.74,2.04-.17,5.04-.42,8.2-.73-.31-1.48-.81-2.91-1.43-4.12l.31-.14c7.76,4.17,4.37,10.89,1.4,7.81Zm12.21-22.43l3.02,2.72c-.22,.25-.64,.42-1.29,.53-.31,13.61-.81,18.31-2.55,20.1-1.04,1.15-2.35,1.6-3.89,1.6,0-1.15-.08-1.93-.42-2.35-.39-.56-1.15-.95-2.21-1.23l.03-.36c.9,.08,2.24,.14,2.83,.14,.48,0,.76-.08,1.09-.36,1.15-1.12,1.62-6.64,1.88-18.09h-10.58l-.25-.81h10.53l1.82-1.88Z"/>
      <path class="cls-1" d="M114.3,185.69c-.08,.31-.39,.45-.78,.45h-10.98c-.95,3.75-3.58,6.64-13.55,8.43l-.17-.42c6.86-2.3,9.16-4.84,10.02-8.01h-9.16l-.22-.81h9.55c.2-.98,.25-1.99,.31-3.08l4.73,.42c-.08,.39-.36,.7-1.04,.76-.08,.64-.17,1.29-.28,1.9h6.36l1.82-2.32s2.1,1.6,3.39,2.69Zm.2-4.37c-.08,.31-.42,.45-.81,.45h-24.39l-.25-.78h10.53v-3.19h-7.62l-.22-.81h7.84v-3.11h-9.07l-.25-.81h6.83c-.22-.08-.48-.2-.73-.39-.17-1.46-1.04-3.05-1.96-4.03l.22-.17c5.8,.5,5.52,3.95,3.72,4.59h4.98c.59-1.43,1.15-3.36,1.51-4.7l4.42,.98c-.11,.34-.42,.59-1.06,.56-.95,.95-2.52,2.18-3.98,3.16h4.28l1.79-2.24s2.02,1.51,3.25,2.6c-.08,.31-.39,.45-.78,.45h-9.63v3.11h3.75l1.71-2.07s1.9,1.4,3.08,2.44c-.08,.31-.39,.45-.78,.45h-7.76v3.19h6.24l1.79-2.35s2.07,1.6,3.33,2.69Zm-3.33,12.96c-1.74-2.24-5.35-4.9-8.06-6.3l.2-.28c12.12,.45,11.73,7.64,7.87,6.58Z"/>
      <path class="cls-1" d="M143.98,179.81c-.06,.31-.36,.45-.78,.45h-24.86l-.25-.81h11.96c-.2-.87-.95-1.79-1.57-2.24l.2-.2c4.28-.76,4.4,1.68,3.11,2.44h7.56l1.65-2.13s1.88,1.46,3,2.49Zm-19.1,8.15l3.11,1.46c-.14,.28-.39,.45-1.04,.36-1.76,1.74-5.07,3.44-8.37,4.2l-.2-.34c2.18-1.37,4.28-3.64,5.43-5.49h-.7v-7.39l3.47,1.34h8.74l1.48-1.65,3.25,2.44c-.17,.2-.56,.45-1.12,.56v3.7c-.03,.17-1.74,.7-2.77,.7h-.56v-.98h-2.97v4.03c0,2.13-.53,3.42-4.06,3.7-.06-.95-.17-1.68-.53-2.1-.36-.42-.9-.78-2.18-.98v-.36s2.41,.14,2.97,.14c.39,0,.5-.14,.5-.42v-4h-2.91v.31c0,.2-.7,.56-1.54,.78Zm-1.96-9.44h-.45v-9.86l3.42,1.34h10.19l1.51-1.65,3.19,2.41c-.17,.22-.56,.48-1.12,.59v5.85c-.03,.2-1.68,.73-2.74,.73h-.56v-1.12h-10.67v.7c0,.31-1.46,1.01-2.77,1.01Zm2.77-7.7v2.18h10.67v-2.18h-10.67Zm10.67,5.18v-2.21h-10.67v2.21h10.67Zm-9.94,6.92v3.14h9.18v-3.14h-9.18Zm13.1,10.86c-.67-1.32-2.63-3.5-5.4-5.07l.14-.34c11,.31,8.46,7.14,5.26,5.4Z"/>
      <path class="cls-1" d="M153.38,177.52c2.18,0,3.95,1.76,3.95,3.95s-1.76,3.98-3.95,3.98-3.98-1.79-3.98-3.98,1.79-3.95,3.98-3.95Zm0,6.92c1.62,0,2.94-1.34,2.94-2.97s-1.32-2.94-2.94-2.94-2.97,1.32-2.97,2.94,1.32,2.97,2.97,2.97Z"/>
    </g>
  </g>
</svg>