<?xml version="1.0" encoding="utf-8"?>
<!-- Generator: Adobe Illustrator 27.0.0, SVG Export Plug-In . SVG Version: 6.00 Build 0)  -->
<svg version="1.1" id="圖層_1" xmlns="http://www.w3.org/2000/svg" xmlns:xlink="http://www.w3.org/1999/xlink" x="0px" y="0px"
	 viewBox="0 0 928.1 203.5" style="enable-background:new 0 0 928.1 203.5;" xml:space="preserve">
<style type="text/css">
	.st0{fill:#FFF100;}
</style>
<g>
	<g id="_圖層_2">
		<g id="_圖層_1-2">
			<g>
				<g>
					<path class="st0" d="M36.8,29.5c-2,9.9-5.4,28.2-6.2,32.8c-0.4,2.8-0.8,5.8-0.7,7.9c0.2,4.6,3.8,7.4,3.6,15
						c-0.2,4.2-3.1,7.1-7.3,7.1c-2,0-4.2-1-5-4.2c1.7-8.4,1.4-16.7-0.5-18c-1.1-0.8-2.4-1.2-4.1-1.4v-1.4h3.4c1.2,0,1.5,0,2.3-1.7
						c1-2.2,1.4-2.9,6.2-16.8c-1.8,2.2-5.4,3-8.8,0.2c-0.4-4.5-2.6-9.4-4.8-12.6l0.6-0.4c10.4,1.3,14.1,5.5,14.2,9.1l5.5-15.8
						C35.5,29.3,36.8,29.5,36.8,29.5z M20.8,17c24,2.7,13.9,20.6,4.3,13.4c-0.6-4.7-2.8-9.6-4.9-13C20.2,17.4,20.8,17,20.8,17z
						 M55.7,76.7l11,7.9c-0.7,0.8-2.3,1.1-5,0.5c-6.4,3.2-16.6,5.7-27,6.4l-0.2-1c6.6-2.6,13.4-6.8,17.9-10.9
						c-1.5,0.5-3.7,0.9-6.3,0.9h-1.9V56.1c-3.5,0.6-7.1,1-10.7,1.4l-0.3-1.1c3.7-0.9,7.4-1.9,11-3.1v-4.2c-2.9,1-5.9,1.8-9,2.3
						l-0.4-0.9c5.5-3.3,11-9.1,13.5-13.3l10.5,5.4v-5.8h-12l-0.2-0.7c-3.8,4.4-12.9-0.2-6.7-7.4c2.5-0.8,4.6-3,5.1-6.6h1
						c0.7,1.7,1.2,3.2,1.6,4.6h14.3c-0.7-0.3-1.5-0.7-2.2-1.3c0.1-3.5-1.5-7.4-3.4-9.6l0.6-0.4c16.4,0.1,15.3,9.1,9.9,11.3H79l5-5
						l8.6,8.3c-0.6,0.6-1.4,0.9-3,1c-1.8,1.2-4.6,2.9-7.1,4.2l0.6,0.6c-0.2,0.9-1,1.3-2.2,1.3h-3.3l9,6.2c-0.7,0.9-2.2,1.2-4.9,0.6
						c-5.1,3-11.7,5.8-19,8.1h10.9l5.2-5.8l9.5,7.2c-0.6,0.7-1.3,1.2-3.1,1.5v21.8c0,0.5-3.4,2.2-9.3,2.2h-2v-2.1H55.7L55.7,76.7z
						 M51.8,50.3c2.4-1,4.7-2,6.9-3v-3.8c-0.7,0.6-1.9,0.7-3.8,0.5c-2.2,1.5-5.2,3-8.6,4.3L51.8,50.3z M47.9,28.9
						c0.3,2.5,0.2,4.4-0.5,5.8h22.8l4.4-5.8H47.9z M54.8,54v5.4h19.2V54C74.1,54,54.9,54,54.8,54z M54.8,66.8h19.2v-5.2H54.9
						C54.9,61.6,54.9,66.8,54.8,66.8z M74.1,74.4v-5.4H54.9v5.4H74.1z M64.7,79.2c40.2-0.1,22.3,17.9,14.1,10.4
						c-2.3-3.1-6.8-7-14.3-9.4L64.7,79.2z M68.9,36.9v4.7c2.4-1.5,4.6-3.1,6.4-4.7H68.9z M75,28.9c0.6,0.5,2.6,2.1,4.6,3.8l0.2-3.8
						C79.8,28.9,75,28.9,75,28.9z"/>
					<path class="st0" d="M96,35.8c22.6,1.4,13.4,18.4,4.2,11.8c-0.5-4.2-2.7-8.6-4.8-11.4C95.4,36.2,96,35.8,96,35.8z M119.8,28.6
						c-2.6,10.2-7,28.9-7.9,33.6c-0.6,2.9-1.1,5.9-1,8.1c0.2,4.6,3.8,7.3,3.6,14.8c-0.1,4.2-3.1,7.2-7.5,7.2c-2,0-4.2-1-5-4.2
						c1.7-8.5,1.4-16.7-0.6-18c-1.1-0.8-2.5-1.2-4.2-1.4v-1.4h3.6c1.3,0,1.6,0,2.5-1.7c1.1-2.1,6.3-14.5,15.4-37.3
						C118.6,28.3,119.8,28.6,119.8,28.6z M101.8,17.1c24,1.9,14.3,20,4.6,13c-0.6-4.6-3-9.3-5.2-12.6
						C101.2,17.5,101.8,17.1,101.8,17.1z M163,58.6c-0.2,5.8-0.6,10.6-1,14.4l3-5.2c0,0,4.4,4.6,6.7,7.4c-0.2,0.9-1,1.3-2.1,1.3
						h-8.1c-1,6.7-2.6,10.1-4.8,12.2c-2.9,2.8-6.6,3.4-11.3,3.5c0.1-2.9-0.2-4.9-1.1-6.2c-1.1-1.6-2.7-2.6-5.6-3.3v-1
						c2.2,0.2,5.5,0.3,7.1,0.3c1.2,0,2-0.2,2.7-1c0.8-0.7,1.4-2.2,2-4.6H130l-3.6,4.6l-9.8-5.4c0.6-0.6,1.6-1.4,2.6-1.9
						c0.9-4,1.8-9.4,2.6-15.3h-7l-0.6-2.2h7.8c0.7-5.1,1.4-10.4,1.8-15.1c-2.4,2.2-4.9,4.1-7.6,5.8l-0.6-0.6
						c5.2-7.1,9.5-19.8,11.2-30l14.7,4c-0.3,0.9-1,1.3-3,1c-0.9,1.8-1.8,3.5-3,5.3H156l5.4-7.5c0,0,6.2,5,9.8,8.5
						c-0.2,0.9-1.1,1.3-2.2,1.3h-34.8c-1.1,1.7-2.3,3.4-3.6,5l6.6,3.2h15.3l5.5-5.6l9.2,8.1c-0.6,0.7-1.8,1.3-3.6,1.6
						c-0.1,4.7-0.2,9-0.4,12.9l2.8-4.8c0,0,4.6,4.9,7,8c-0.2,0.9-1,1.3-2.1,1.3L163,58.6L163,58.6z M151.1,74.2
						c0.6-3.7,1.1-8.8,1.5-15.7h-20.3c-0.9,5.7-1.7,11.4-2.5,15.7H151.1L151.1,74.2z M134.8,39.4c-0.5,4.5-1.3,10.6-2.2,17h20.2
						c0.2-4.8,0.4-10.5,0.6-17H134.8z M136.6,59.8c19.3,3.3,10.8,17.7,3.4,11.6c-0.1-3.9-2-8.4-4.1-11.2
						C135.9,60.2,136.6,59.8,136.6,59.8z M137.3,42.2c18.6,2.7,11.3,16.4,3.9,11c-0.6-3.7-2.7-7.9-4.6-10.6L137.3,42.2z"/>
					<path class="st0" d="M230.5,40.4c4.2,13.8,13,22,22.5,27l-0.2,1.2c-5.3,3.2-8.4,7.8-9.1,13.2c-8.1-9.1-12.4-23.6-14.6-39.4V88
						c0,1.1-5,3.9-9.4,3.9h-2.2V60.8c-5,8.1-11.7,15-20.2,20.6l-0.3-0.3v7.8c-0.2,0.9-4.9,3.2-9.4,3.2h-2.2V49.8
						c-3.1,3.4-6.5,6.3-10.2,8.9l-0.9-0.6c6.3-10.2,12.6-26.3,15.4-41.9l15.4,4.6c-0.4,1-1.4,1.8-3.3,1.7c-2.6,6.7-5.6,12.6-9,17.9
						l6.6,2.4c-0.2,0.7-1,1.3-2.5,1.6v35.8c8.3-10.4,13.8-25.7,16.3-39.8h-14.3l-0.6-2.2h19.1V17.5l14.6,1.4c-0.2,1.2-0.7,2-3,2.3
						v17h5.8l6-7.9c0,0,6.8,5.3,10.9,8.9c-0.2,0.9-1.1,1.3-2.3,1.3H230.5L230.5,40.4z"/>
					<path class="st0" d="M271.3,43.8V88c0,1.4-4.2,4.2-9.4,4.2h-1.8V17.8l11.5,4.8h7.8l4.6-5l9.5,7.1c-0.4,0.6-1.4,1.3-2.9,1.5
						v19.4c-0.1,0.7-5.1,2.9-8.6,2.9h-1.8v-4.6C280.2,43.9,271.3,43.9,271.3,43.8z M271.3,24.8v7.1h8.9v-7.1H271.3z M280.2,41.6
						v-7.4h-8.9v7.4H280.2z M330.5,24.9c-0.6,0.6-1.5,1.4-3.2,1.7v53c0,7.6-1.5,11.7-13,12.6c-0.2-3.7-0.6-6.5-1.5-8.1
						c-0.9-1.5-2-2.6-4.8-3.4c-0.6,4.2-3,6.6-11.2,7.4c-0.2-3-0.4-5.1-1.4-6.5c-1-1.4-2.2-2.5-5.4-3v-1c0,0,5.6,0.4,7.4,0.4
						c1,0,1.4-0.5,1.4-1.4v-4.3h-10.4c-1.4,5.6-4.9,11.4-13.1,15.4l-0.6-0.7c5-6.8,5.2-15.6,5.2-23.1v-14l10.9,3.8h7.3l4.3-4.9
						l9.4,7c-0.5,0.6-1.6,1.4-3.3,1.7v20c0,0.8,0,1.5-0.1,2.2c1.8,0.1,5.4,0.2,6.4,0.2c1.2,0,1.4-0.6,1.4-1.5V43.8h-9.3v1
						c0,1-4.7,3.4-9.2,3.4H296V18.3l11,4.2h8.2l5-5.8C320.2,16.8,330.5,24.9,330.5,24.9z M298.6,69.8v-6.1h-9.5
						c0,1.8-0.1,3.9-0.5,6.1H298.6z M289.1,55.8v5.8h9.5v-5.8H289.1z M306.7,24.8v7.1h9.3v-7.1H306.7z M316,41.6v-7.4h-9.3v7.4H316z
						"/>
					<path class="st0" d="M403.9,79.6c5.4,0.9,6.6,2.6,6.6,4.3c0,5.1-5.6,6.1-33,6.1h-16.6c-14,0-20.6-1.3-20.6-11.4V24.5h-2.6
						l-0.6-2.2h55.9l5.4-7.2c0,0,6,4.9,9.6,8.2c-0.2,0.9-1.1,1.3-2.2,1.3h-54.7v52.6c0,3.6,2.4,4.6,8.8,4.6h18.6
						c5.5,0,11-0.2,13.4-0.3c1.6-0.1,3.9-0.4,5.4-0.6c1.4-0.2,3.4-0.6,5.4-1.4h0.8L403.9,79.6L403.9,79.6z M367.8,78.2v-4h-4.1v3.3
						c0,0.8-4.1,2.8-7.9,2.8h-1.3V52.5l9.4,3.8h3.1l4.2-4.3l8.5,6.3c-0.4,0.5-1.3,1.1-2.6,1.4v16.3c-0.1,0.6-4.7,2.2-7.8,2.2
						C369.4,78.2,367.8,78.2,367.8,78.2z M385.4,46.9h-13.3V49c0,1-4.9,3.3-9.3,3.3h-1.5V26.6l11.2,4.2h12.1l4.8-5.1l9.8,7.4
						c-0.5,0.6-1.4,1.2-2.9,1.5v13.8c-0.1,0.6-5.6,2.4-9,2.4h-1.9L385.4,46.9L385.4,46.9z M367.8,71.9V58.5h-4.1v13.4H367.8z
						 M385.4,44.7V33.1h-13.3v11.6H385.4z M394.5,77.9v-3.7h-4.4v1.9c0,0.9-4.2,2.9-8,2.9h-1.4V52.5l9.7,3.8h3.4l4.2-4.4l8.6,6.5
						c-0.4,0.5-1.3,1-2.6,1.3v15.9c-0.1,0.6-4.9,2.3-7.9,2.3C396.2,77.8,394.5,77.8,394.5,77.9z M394.5,71.9V58.5h-4.4v13.4H394.5z"
						/>
					<path class="st0" d="M500.9,35c0,0,6.8,5,11,8.5c-0.2,0.9-1.2,1.3-2.4,1.3h-73l-0.6-2.2h58.9C494.8,42.6,500.9,35,500.9,35z
						 M436.3,91.3c9.4-3.9,19.8-10.9,24.6-16.2l12.9,8.6c-0.8,1-2.5,1.4-5.4,0.8c-7.5,3.7-20.2,6.6-31.9,7.6L436.3,91.3z
						 M440.4,26.7h14.8V16.3l14.3,1.2c-0.2,1-0.7,1.9-3,2.2v7H480V16.3l14.5,1.2c-0.1,1-0.6,1.9-2.9,2.2v7h1.3l5.8-7.2
						c0,0,6.6,4.8,10.6,8.2c-0.2,0.9-1.1,1.3-2.3,1.3h-15.3v9.6c0,0.6-5.1,2.2-9.7,2.2H480v-3.6h-13.5v2.2c0,0.6-5,2.2-9.4,2.2h-1.9
						V28.9H441L440.4,26.7L440.4,26.7z M487.6,50.4l5.1-5.6l10.6,8c-0.6,0.6-1.5,1.4-3.2,1.7v20.1c-0.1,0.6-6,2.5-9.8,2.5h-2v-2.7
						h-29.8v1c0,1-5.2,3.6-9.9,3.6H447V45.8l12.2,4.6L487.6,50.4L487.6,50.4z M458.6,52.7V61h9v-8.3H458.6z M458.6,72.1h9v-8.9h-9
						V72.1z M466.5,28.9v5.9h13.5v-5.9C480.1,28.9,466.5,28.9,466.5,28.9z M477.8,78.2c49.8,0.2,28.8,20.2,18.9,12.3
						c-3.2-3.3-9.6-8.2-19.1-11.4L477.8,78.2z M488.4,52.6h-9.4V61h9.4V52.6z M488.4,72.1v-8.9h-9.4v8.9H488.4z"/>
					<path class="st0" d="M592.9,40.3c-5.2,1.5-8.6,7.1-9.4,11.8c-11.3-6.2-21.5-15-25.9-28.6c-5,7.8-13.4,15.6-23,21.9h22.9
						l5.4-6.8c0,0,6,4.6,9.7,7.8c-0.2,0.9-1.1,1.3-2.2,1.3h-11.8v11.4h11.9l5.8-7.6c0,0,6.6,5.1,10.6,8.6c-0.2,0.9-1.1,1.3-2.3,1.3
						h-25.9V87h14.2l6.4-8.3c0,0,7.3,5.5,11.6,9.3c-0.2,0.9-1.2,1.3-2.4,1.3h-70.5l-0.6-2.2h29.3V61.4h-24.6l-0.6-2.2h25.2V47.7
						h-11.7l-0.6-2c-6.1,4-12.6,7.4-18.8,9.7l-0.5-0.8c13.7-9.4,28-26.9,31-38.6l17.4,4.6c-0.3,1.2-1.4,1.7-4.4,2
						c7.4,9.8,22.9,14.1,34.2,16.5L592.9,40.3z M529.2,64.3c23.6,8.2,10.9,26.2,1.8,16.7c0.4-5.8-0.8-11.6-2.5-16.4L529.2,64.3z
						 M561.7,83.6c1.4-4.8,3.3-12.9,4.7-19.8l14.9,5.3c-0.3,1-1.4,1.7-3.3,1.6c-4.7,5.1-10.4,10.2-15.4,13.5L561.7,83.6L561.7,83.6z
						"/>
					<path class="st0" d="M595.7,35.8c22.6,1.4,13.4,18.4,4.2,11.8c-0.5-4.2-2.7-8.6-4.8-11.4L595.7,35.8z M619.6,28.6
						c-2.6,10.2-7,28.9-7.9,33.6c-0.6,2.9-1.1,5.9-1,8.1c0.2,4.6,3.8,7.3,3.6,14.8c-0.1,4.2-3.1,7.2-7.5,7.2c-2,0-4.2-1-5-4.2
						c1.7-8.5,1.4-16.7-0.6-18c-1.1-0.8-2.5-1.2-4.2-1.4v-1.4h3.6c1.3,0,1.6,0,2.5-1.7c1.1-2.1,6.3-14.5,15.4-37.3
						C618.4,28.3,619.6,28.6,619.6,28.6z M601.6,17.1c24,1.9,14.3,20,4.6,13c-0.6-4.6-3-9.3-5.2-12.6
						C601,17.5,601.6,17.1,601.6,17.1z M662.8,58.6c-0.2,5.8-0.6,10.6-1,14.4l3-5.2c0,0,4.4,4.6,6.7,7.4c-0.2,0.9-1,1.3-2.1,1.3
						h-8.1c-1,6.7-2.6,10.1-4.8,12.2c-2.9,2.8-6.6,3.4-11.3,3.5c0.1-2.9-0.2-4.9-1.1-6.2c-1.1-1.6-2.7-2.6-5.6-3.3v-1
						c2.2,0.2,5.5,0.3,7.1,0.3c1.2,0,2-0.2,2.7-1c0.8-0.7,1.4-2.2,2-4.6h-20.6l-3.6,4.6l-9.8-5.4c0.6-0.6,1.6-1.4,2.6-1.9
						c0.9-4,1.8-9.4,2.6-15.3h-7l-0.6-2.2h7.8c0.7-5.1,1.4-10.4,1.8-15.1c-2.4,2.2-4.9,4.1-7.6,5.8l-0.6-0.6
						c5.2-7.1,9.5-19.8,11.2-30l14.7,4c-0.3,0.9-1,1.3-3,1c-0.9,1.8-1.8,3.5-3,5.3h20.5l5.4-7.5c0,0,6.2,5,9.8,8.5
						c-0.2,0.9-1.1,1.3-2.2,1.3H634c-1.1,1.7-2.3,3.4-3.6,5l6.6,3.2h15.3l5.5-5.6l9.2,8.1c-0.6,0.7-1.8,1.3-3.6,1.6
						c-0.1,4.7-0.2,9-0.4,12.9l2.8-4.8c0,0,4.6,4.9,7,8c-0.2,0.9-1,1.3-2.1,1.3C670.6,58.6,662.8,58.6,662.8,58.6z M650.9,74.2
						c0.6-3.7,1.1-8.8,1.5-15.7h-20.3c-0.9,5.7-1.7,11.4-2.5,15.7H650.9L650.9,74.2z M634.5,39.4c-0.5,4.5-1.3,10.6-2.2,17h20.2
						c0.2-4.8,0.4-10.5,0.6-17H634.5z M636.4,59.8c19.3,3.3,10.8,17.7,3.4,11.6c-0.1-3.9-2-8.4-4.1-11.2L636.4,59.8L636.4,59.8z
						 M637.1,42.2c18.6,2.7,11.3,16.4,3.9,11c-0.6-3.7-2.7-7.9-4.6-10.6L637.1,42.2L637.1,42.2z"/>
					<path class="st0" d="M695.5,58.4c0,10.5-1.6,25-19.4,33.4l-0.5-0.6c7.4-9.6,8.1-22.1,8.1-32.8V39.6l13.5,4.5h38.6l3.4-4.6
						c-1.6,0.2-3.4,0.5-5.1,0.5h-1.9v-3.5h-35.2l-3.4,4.9l-11.4-5.6c0.8-1,1.9-2,3-2.8V19.5l14.3,1.4c-0.2,1.2-0.8,2-3,2.3v11.1h12
						v-18l14.4,1c-0.2,1.1-0.7,1.9-2.9,2.3v14.6h12.1V19.6l14.6,1.2c-0.2,1-0.7,1.9-3,2.2v14.9c0,0.2-0.2,0.3-0.6,0.5
						c2.1,1.8,5.4,4.5,7.6,6.6c-0.2,0.9-1.1,1.3-2.2,1.3h-53C695.5,46.3,695.5,58.4,695.5,58.4z M741.3,62.2c0,0,6,5,9.5,8.3
						c-0.2,0.9-1.1,1.3-2.2,1.3H726v17.9c0,0.6-3.6,2.5-9.8,2.5H714V71.8h-17.9l-0.6-2.2H714v-13h-14.6l-0.6-2.2h33.1l5.1-7.1
						c0,0,5.9,4.8,9.4,8.1c-0.2,0.9-1.1,1.3-2.2,1.3H726v13h10L741.3,62.2L741.3,62.2z"/>
					<path class="st0" d="M832.8,63.8c-0.6,0.6-1.6,1.2-3.3,1.4c-1.2,14.8-3.4,21.5-7.8,24.5c-2.7,1.8-6,2.6-10.4,2.6
						c0-3-0.2-5.5-1.3-6.9c-1.2-1.6-3-2.6-5.9-3.4v-1c2.4,0.2,6.3,0.4,7.8,0.4c1.2,0,1.8-0.2,2.6-0.6c1.8-1.4,3.3-7.2,4.2-17.5H774
						c-5.3,5.2-11.4,9.9-18.6,13.8l-0.7-0.7C767,66,775.9,51.3,781.6,37h-19.8l-0.7-2.2h21.5c2.6-6.6,4.4-13.1,5.8-19l14.3,4.3
						c-0.3,1-1,1.6-3.2,1.6c-1.5,4.2-3.3,8.6-5.4,13.1h9.3l3.9-4.3l9.3,6.8c-0.6,0.7-1.4,1-2.9,1.2l-2.1,8.6l3.1-3.5l9,6.6
						c-0.6,0.7-1.3,1-2.8,1.2l-1.7,9l4.4-4.2L832.8,63.8L832.8,63.8z M771,67.8c5.5,11.2,2.6,19.2-2.2,21.8
						c-3.3,1.8-7.4,0.6-8.6-2.9c-1-3.4,1-6,3.9-7.4c3.1-1.7,6.3-6.2,5.8-11.4L771,67.8L771,67.8z M766,17c25.2,2.2,15.2,21.5,5.1,14
						c-0.5-5-3-10.2-5.7-13.6L766,17z M785.2,50c-2.6,3.8-5.6,7.6-9,11.2h32.8l2.2-11.2H785.2L785.2,50z M779.7,67.9
						c18.1,11.1,4.7,25.8-2.2,16.2c1.7-5.4,2-11.2,1.3-15.9L779.7,67.9L779.7,67.9z M792.9,37c-1.8,3.6-3.8,7.2-6.2,10.8h14.1
						l2.7-10.8H792.9z M789.5,67.2c21.4,5.1,11.6,21.4,3.4,14c0-4.7-1.9-10-4.1-13.6L789.5,67.2L789.5,67.2z M800.5,65.8
						c21-0.6,14.4,16.1,5.7,10.9c-0.7-3.8-3.5-8.1-6.2-10.4C800,66.2,800.5,65.8,800.5,65.8z"/>
					<path class="st0" d="M913,27.8c-0.6,0.8-1.7,1.1-3.5,1.1c-2.6,5.3-6.9,13.8-11,19.4c9.2,5.5,12.9,14.2,12.9,21
						c0,8.4-3.3,13.4-12.8,13.5c0-2.8-0.4-7.2-1.1-8.6c-0.6-1-1.6-1.8-3.3-2.3v17.3c0,0.7-3.1,3.1-8.2,3.1H884V78
						c-0.2,0.1-0.6,0.2-1,0.2h-7v11.5c0,0.6-3.7,2.2-6.6,2.2h-1.7V78.2h-3.5l-2.1,2.3l-7.2-3.8c0.5-0.5,1.2-1,1.9-1.5
						c0.9-4,1.9-9.9,2.3-13.6c-0.3,0.1-0.7,0.1-1.2,0.2c-2.3,12.4-7.9,23.8-21.8,30.4l-0.6-1c5.4-4.1,9-9.4,11.3-15.4
						c-1,0.2-2.2,0.1-3.4-0.6c-0.4-1.9-1.6-4-3.1-5.6c-1.4,1.5-2.8,3-4.3,4.2l-1.1-0.6c3.1-6.2,5.6-15,6.4-23.9l10.7,2.6
						c-0.2,1-1.2,1.8-3,1.8c-0.6,1.8-1.3,3.5-2,5.1h2.6l4-4.2l5.4,4.5h8.8v-8.3l10.2,1c-0.2,0.8-0.6,1.4-2,1.6v4.6l2.1-3
						c0,0,3.3,3,5.1,5.1c-0.2,0.9-1,1.3-2,1.3H876v14.8h0.5l3-4.6c0,0,2.5,2.3,4.5,4.5V19.7l11.1,4.2h2.6l5.2-5.1L913,27.8L913,27.8
						z M855,39.5v-4.8h-16.2l-0.6-2.2H855V17.1l12.7,1.1c-0.2,1-0.7,1.8-2.9,2.2v12.1h6.8l4.3-5.4c0,0,4.8,3.7,7.8,6.3
						c-0.2,0.9-1,1.3-2.1,1.3h-16.8v3.2c20.9-3.5,19.4,14.9,10.4,11.1c-2.5-3-6.2-7-10.4-9.7v11.4c0,0.8-4.3,2.6-8.2,2.6H855V41.7
						c-4.5,3.1-11,6.4-17,8.2l-0.6-0.6c2.9-3.4,6.3-9.2,7.9-13.8C845.3,35.6,855,39.5,855,39.5z M841.6,19.4
						c19.5,1.7,10.6,16.2,3,10.2c-0.2-3.5-1.8-7.4-3.6-9.8L841.6,19.4L841.6,19.4z M846,60.8c-1.1,2.2-2.3,4.2-3.7,6.2
						c3.3,0.2,5.4,1.2,6.5,2.4c0.6-2.8,1.1-5.7,1.4-8.6C850.2,60.8,846,60.8,846,60.8z M867.8,75.9V61.1h-0.9
						c-0.6,3.9-1.7,10.3-2.6,14.8H867.8z M865.7,29.9c1-2.7,2.5-7.3,3.8-11.5l11.2,4.9c-0.4,1-1.5,1.6-3.2,1.4
						c-3.4,2.2-7.4,4.5-10.8,5.9C866.7,30.6,865.7,29.9,865.7,29.9z M898.7,71c0.6,0,1-0.1,1.4-0.4c0.9-0.7,1.4-1.9,1.4-4.4
						c0-5.9-1.3-12.4-5.1-17.7c1-5.6,1.9-15.8,2.2-22.4h-4.5V71H898.7z"/>
					<path class="st0" d="M62,139.6c-0.2,0.7-0.9,1.3-2.5,1.5v44.7c-0.2,0.6-5.4,2.4-9.6,2.4h-2.2v-39.2
						c-8.6,9.7-19.3,18.2-31.5,24.1l-0.5-0.6c15.9-13.1,29.1-33.3,33.2-49.8H17.3l-0.6-2.2h56.2l6.6-8.4c0,0,7.4,5.6,11.9,9.4
						c-0.2,0.9-1.1,1.3-2.4,1.3H64.2c-2,5-4.6,10-7.8,14.8L62,139.6L62,139.6z M62,143.1c37.9,5.4,32.4,30.1,19.8,23.9
						c-4.2-8.2-13-17.5-20.5-23.4C61.3,143.7,62,143.1,62,143.1z"/>
					<path class="st0" d="M155.6,171.7c3.4,1.4,4.4,2.8,4.4,5c0,5.2-4.6,7.5-21,7.5h-9.3c-9.2,0-12.9-1.4-13.6-8
						c-5.6,3.2-11.8,6-18.8,8.3l-0.6-0.9c7.3-3.8,13.7-8.4,19.4-13.4v-42.6l14.5,1.4c-0.1,1-0.8,1.9-2.7,2.2v26.6
						c10.3-13,16.9-27.4,20.6-40.6l14.9,5.2c-0.4,1-1.2,1.6-3.4,1.5c-6.2,15.7-15.9,32-32.2,44.6v1.9c0,1.8,0.9,2.4,3.8,2.4h8.6
						c2.6,0,5,0,6.4-0.1c1.3-0.1,2.2-0.4,3-1.3c1.2-1.5,2.9-5.4,4.8-10.5h0.8L155.6,171.7L155.6,171.7z M108.5,138.8
						c6.6,12.6,5.4,21.8,1.4,26.6c-3,3.6-8.3,3-10.6-0.6c-1.9-3.4-0.6-6.6,2.2-8.8c3-2.7,6.6-9.7,6.2-17.2L108.5,138.8z
						 M127.2,113.8c25.8,7,14.9,27.2,4.8,18.3c-0.2-6.3-2.6-13-5.4-17.9L127.2,113.8z M154.6,140.8c27.7,10.2,15.4,33.3,4.3,22.5
						c0.2-7.6-1.9-15.6-5-22.1L154.6,140.8L154.6,140.8z"/>
					<path class="st0" d="M248.7,154.6c-0.1,1-0.6,1.7-2.6,2v28.2c0,0.7-5,2.6-9.2,2.6h-2v-7h-41.8l-3.2,5.4l-11.1-6.2
						c0.7-0.8,1.7-1.8,2.6-2.6v-23.7l13.9,1.4c-0.2,0.9-0.9,1.5-2.8,1.8v21.7h14.9v-32.1h-10.6l-3.2,5.4l-10.9-6.2
						c0.6-0.8,1.7-1.8,2.6-2.6v-22.3l13.7,1.4c-0.2,0.9-0.9,1.5-2.8,1.8v20.2h11.2v-31l14.6,1.4c-0.2,1.2-0.7,2-2.9,2.3v27.4h11.8
						v-23.4l13.8,1.2c-0.1,1-0.6,1.7-2.6,2v24.7c0,0.6-5,2.4-9.2,2.4h-2v-4.7h-11.8v32.1h15.7v-24.8L248.7,154.6L248.7,154.6z"/>
					<path class="st0" d="M331.6,120.5c-0.6,0.7-1.6,1.4-3.2,1.8v62.2c-0.2,0.8-5.1,3.4-9.2,3.4h-1.7v-6.3H270v2.7
						c0,1.4-4.3,4-8.9,4h-1.8v-74.6l11.5,4.6h45.9l5-5.6L331.6,120.5L331.6,120.5z M317.6,179.3v-37c-0.6,0.5-1.5,0.7-2.8,0.6
						c-2.3,6.5-5.3,11.9-8.6,16.5c0.9,1.8,1.9,3.4,3.1,4.7c0.8,1,1.2,1,1.8-0.2c1-1.8,2.6-5.2,3.7-8.1l0.8,0.2l-1.4,11.2
						c2.2,4.2,2.6,6.6,1.4,7.9c-3.4,3.4-9.1,0.3-11.6-2.5c-1.7-2-3.1-4.1-4.4-6.3c-5.3,4.7-11.5,8.2-18.7,10.6l-0.7-0.9
						c6.2-3.9,12-9.3,16.6-16c-2-5.4-3.2-11.4-3.8-17.7c-0.4,0.2-0.8,0.3-1.3,0.4v11.6c0,0.6-3.7,2.4-6.3,2.4H284v-2.3h-3.1v1.4
						c0,0.6-3.3,2.2-6.3,2.2h-1v-21.4l7.7,3.1h2.2l3.4-3.4l5.9,4.4c-0.2-2.1-0.4-4.2-0.5-6.4H272l-0.6-2.2h20.8
						c-0.2-3.4-0.2-6.9-0.2-10.5l12.1,2c-0.2,1-1,1.8-2.8,2v6.5h4l2.5-3.3c-0.7-2.6-2.4-5.4-3.8-7l0.7-0.5
						c11.9,0.2,12.1,6.6,8.6,8.7c1.2,1,2.4,2,3.4,3c-0.2,0.9-1,1.3-2.2,1.3h-13.1c0.2,5,0.6,9.9,1.4,14.4c1.6-3.8,2.9-7.9,3.8-12.3
						l11.1,4.7v-20.9H270v58.8L317.6,179.3L317.6,179.3z M293.4,159.4c-3,2.6-7.9,6.2-15,11c-0.4,1.1-1.2,1.8-2.2,2.1l-5-11
						c3.9-0.3,13.1-1.5,22.2-2.9L293.4,159.4L293.4,159.4z M284,142.2h-3.1v10.1h3.1V142.2z"/>
					<path class="st0" d="M425.7,173.4c4.4,1.4,5.8,2.8,5.8,5c0,6.2-5.5,8.1-30.2,8.1h-14.2c-13.4,0-19.8-1.3-19.8-12.1v-30.3
						l-10.7,3l-1.4-2l12.1-3.4v-22.5l14.8,1.5c-0.1,1-0.9,1.9-2.9,2.2v15.4l9.6-2.7v-23.4l14.6,1.4c-0.2,1.1-0.7,1.9-3,2.2v16.6
						l9.1-2.6h-0.2l6.6-6.7l10.5,10.9c-0.7,0.8-1.5,1.1-3.4,1.4c-2.6,8.6-7.7,21.2-13.9,29.1l-0.6-0.4c1-10.3,1.4-23,1.2-31.8
						l-9.2,2.6v33.4c0,1-5,3.4-9.5,3.4h-2.1V138l-9.6,2.7v30.6c0,3.1,2.2,3.9,7.3,3.9h15.8c4.6,0,8.6-0.1,11.1-0.2
						c2.2-0.2,3.4-0.6,4.5-1.8c1.6-2,3.6-5.6,6.7-13.2h0.7L425.7,173.4L425.7,173.4z"/>
					<path class="st0" d="M460,123.1c23.2,4.1,15.8,21.2,6.9,16.6l7,5.3c-0.6,0.6-1.6,1.4-3.3,1.7v28.9c0,6.9-1.4,10.8-11.9,11.7
						c-0.1-3.4-0.4-5.8-1.2-7.4c-0.9-1.6-2-2.8-5-3.4v-1c0,0,4.7,0.3,6.2,0.3c1.1,0,1.4-0.5,1.4-1.4V167c-2.2,1.8-4.6,3.8-7.5,5.8
						c-0.3,1-1.1,1.8-2.1,2.1l-1.6-3.8c-1.5,6.4-5,12.7-12.6,17.4l-0.6-0.6c4.4-8.4,4.4-19.3,4.4-29V140l-3.8-9.1c0,0,1.7-0.4,2.6-1
						c4.2-2.7,10.2-12.8,11.8-18.2l14.6,5c-0.3,0.8-1.1,1.4-2.7,1.4c-4.2,4.2-11,9.2-17.1,12.5c5,0.1,11.3,0.1,17.9,0
						c-1-2.6-2.4-5.1-3.9-7.1L460,123.1L460,123.1z M465.3,138.6c-0.2-1.7-0.5-3.4-1-5c-5.2,1.8-12.3,4.2-20.6,6.6l7.8,2.7h7.8
						l4.6-5.3L465.3,138.6z M450,158.8c0,1.8,0,3.8-0.2,5.8c3-0.4,6.6-1.1,10.2-2v-4.9c-0.8,1.2-2.2,1.9-4.4,1.6
						c-1.4-1.3-3.4-2.6-5.7-3.5V158.8L450,158.8z M460.1,145.1H450v6.2c5.4-2.6,8.7-1.1,10.1,1.3V145.1z M485.9,147.7
						c-8.6,0-10.3-1.9-10.3-9v-25.3l13.9,1.1c-0.2,1-0.9,1.8-2.6,2.1v9.3h5.6l5.2-7.1c0,0,5.8,4.8,9.3,8.1c-0.2,0.9-1,1.3-2.2,1.3
						h-17.8v7.9c0,1,0.3,1.4,2.1,1.4h5c1.4,0,3.2-0.1,4.2-0.1c0.7-0.1,2.1-0.2,2.7-0.2c0.7-0.1,1.9-0.3,2.7-0.6h0.7l0.5,0.2
						c2.8,1.3,3.8,2.5,3.8,4.5c0,4.5-3.9,6.5-16,6.5H485.9L485.9,147.7z M506,174.5c2.9,1.3,3.6,2.6,3.6,4.6c0,4.6-4.1,6.6-16.4,6.6
						h-6.9c-8.8,0-10.6-2-10.6-9.3v-27.9l14,1.1c-0.1,1.1-0.8,1.8-2.6,2.1v9.6h6.2l5.2-7.1c0,0,5.8,4.8,9.3,8.1
						c-0.2,0.9-1,1.3-2.2,1.3h-18.5v10.2c0,1.1,0.4,1.5,2.2,1.5h5.3c1.6,0,3.3-0.1,4.2-0.1c1-0.1,1.7-0.2,2.3-0.8c1-1,2.3-3.7,3.8-7
						h0.8L506,174.5L506,174.5z"/>
					<path class="st0" d="M516.3,130.6c22.2,3.2,12.7,20,4,13c-0.2-4.5-2.3-9.4-4.6-12.6L516.3,130.6z M538.9,129.4
						c-2.5,8.9-6.6,25.2-7.5,29.4c-0.6,2.6-1.1,5.5-1,7.6c0.2,4.6,3.8,7.2,3.6,14.6c-0.2,4.2-3.3,7.1-7.5,7.1c-1.9,0-4.2-1.1-5-4.2
						c1.7-8.5,1.4-16.6-0.6-17.8c-1.1-0.8-2.4-1.2-4.2-1.4v-1.4h3.6c1.3,0,1.6,0,2.6-1.6c1.2-2,6.1-12.8,14.8-32.5L538.9,129.4
						L538.9,129.4z M521.7,113c23.3,3.3,14,20.6,4.8,13.8c-0.6-4.7-3.2-9.8-5.4-13.4L521.7,113z M592,144.2
						c-0.4,0.6-1.3,1.1-2.6,1.4v30.8c0,7-1.4,10.8-12.2,11.8c-0.2-3.4-0.5-5.9-1.4-7.4c-1-1.6-2.3-2.6-5.6-3.4v-1
						c0,0,6.1,0.3,7.4,0.3c1.1,0,1.4-0.5,1.4-1.4v-7.8c-0.6,1.5-1,3.2-1.2,4.8c-2.1-2.2-3.8-6.7-4.5-10.2c-1.1,2.9-3.2,6.1-5.8,8.6
						v14.8c0,0.6-3,2.6-8,2.6h-1.8v-19.7c-0.5,1.3-0.8,2.7-1,4c-1.8-2.2-3.1-6.4-3.7-9.9c-1,3.2-3.1,6.6-5.7,9V185
						c0,1.1-4.1,3.4-8.3,3.4h-1.5v-50.6L548,142h9.7v-8.7h-1.4v2.6c0,0.6-4.4,2.2-8.4,2.2h-1.8v-14.2h-8.9l-0.6-2.2h9.5v-9.4
						l13.1,1.1c-0.2,1.1-0.8,1.9-3,2.2v6.1H569v-9.5l13.2,1.1c-0.2,1.1-0.7,1.9-3,2.2v6.2h0.2l4.5-6.6c0,0,5,4.6,7.8,7.6
						c-0.2,0.9-1,1.3-2.2,1.3h-10.4v11.3c0,0.6-4.5,2.2-8.5,2.2H569v-4h-1.4v8.7h10.7l4.4-5L592,144.2L592,144.2z M553.5,153.6
						c0.6,3.6,2,6.2,4.2,8.4v-17.8h-10.3V169c2-4.2,3.8-10.4,4.2-15.4v-0.9H548l-0.4-2.2h3l1.8-2.8l4.7,3.5
						c-0.6,0.7-1.8,1.4-3.7,1.6L553.5,153.6L553.5,153.6z M569,131.1v-7.2h-12.6v7.2H569z M573.7,153.4c0.8,3.7,2.6,6.2,5.4,8.6
						v-17.8h-11.4v6.2h3.1l1.8-2.9l5,3.6c-0.6,0.7-2,1.4-3.8,1.6V153.4L573.7,153.4z M571.7,152.6h-4.2v14.5
						c1.8-4.2,3.5-9.4,4.2-13.8V152.6z"/>
					<path class="st0" d="M639.9,175.7c3.4,0.3,7.1,0.4,11.3,0.4c4.4,0,15.1,0,20.2-0.1v0.9c-3.6,0.9-5.4,5-5.4,9.6h-15.3
						c-18,0-27.8-3.7-33.1-18.7c-3.6,8.1-9.8,15.4-20.7,20.5l-0.6-0.7c10.4-10.1,13.1-24.9,13.3-36.4l14.8,2.2
						c-0.2,1.1-1.1,1.9-3.1,2c-0.6,3.4-1.4,6.7-2.6,10c2.4,3.8,5.5,6.2,9.5,7.8v-32.1h-8.9v3.1c0,1.1-5.1,3.6-9.8,3.6h-1.7v-33.5
						L620,119h27.4l5.1-5.6l10.6,8c-0.5,0.6-1.4,1.4-3.1,1.7v20.2c-0.1,0.7-5.8,3-9.8,3h-2v-5.1h-8.3v15.8h9.1l6.3-7.9
						c0,0,7.2,5.3,11.5,8.9c-0.2,0.9-1.2,1.3-2.4,1.3h-24.6V175.7z M648.2,138.9v-17.7h-29v17.7H648.2z"/>
					<path class="st0" d="M751.9,154.5c-0.6,0.7-1.4,0.9-3,1c-3,2.3-7.8,5.4-11.5,7.4l0.4,0.3c-0.7,0.8-1.9,1.1-4,1.3
						c-10.1,13.6-25.7,21.4-53.3,23.6l-0.4-1c10.6-2.8,19.6-6.4,26.9-11.1c-1.3,0.2-2.6,0-4.2-0.8c-0.6-2.6-2.2-5.2-4-7.2
						c-5.2,3-11.2,5.4-17.7,7l-0.5-0.7c9-5.5,16.6-14.2,20.2-21.1h-13.2c1,5.8-0.7,9.9-3.6,11.7s-7.3,0.6-8.4-3c-1-3.4,1-6.1,4-7.4
						c2.2-1.4,5.1-4.9,4.7-8.4h1l0.3,0.7v-20.5l11,4.2h32.7l4.7-5l9.8,7.2c-0.5,0.6-1.4,1.2-2.9,1.5v10.3c-0.1,0.7-5.3,2.8-8.9,2.8
						h-1.9v-2.7H696v1.3c0,0.9-4.7,3.1-9,3.1h-0.5c0.2,0.6,0.4,1.3,0.6,1.8h50.1l5.4-5.4L751.9,154.5L751.9,154.5z M676.1,119.9h24
						v-8.1l11.8,1c-0.2,0.8-0.6,1.5-2.2,1.8v12.3c0,0.6-4.3,1.9-7.8,1.9h-1.7v-6.7h-23.3C676.8,122.1,676.1,119.9,676.1,119.9z
						 M696,132.9v9.7h5.1v-9.7L696,132.9L696,132.9z M707,162.5c-1.4,1.1-2.8,2.2-4.3,3.2c8,0.3,9.7,4.6,8.2,7.6
						c4-3.2,7.4-6.7,10.1-10.8H707z M736.2,162.1c0.6-2.6,1.2-6,1.6-8.8h-32.7l11.4,2.6c-0.3,1-1.4,1.7-4.1,1.8
						c-0.8,0.9-1.8,1.8-2.7,2.6h11.9l5.5-5.4L736.2,162.1L736.2,162.1z M710.5,132.9v9.7h5.1v-9.7H710.5z M726.8,126.2
						c0,0.6-4.3,1.9-7.8,1.9h-1.8v-16.3l11.8,1c-0.1,0.8-0.6,1.5-2.2,1.8v5.3h10.9l5-7.2c0,0,5.8,4.9,9,8.2
						c-0.2,0.9-1.1,1.3-2.2,1.3h-22.7V126.2z M725,132.9v9.7h5.1v-9.7H725z"/>
					<path class="st0" d="M786.9,117.3c-0.3,0.8-1.2,1.6-2.9,1.7c-4.6,7.6-13,17.2-20.2,23c3.9,0.1,9.4,0.1,15.2,0
						c2.6-5,4.6-9.9,5.8-13.9l14.5,7.3c-0.4,0.9-1.6,1.6-3.5,1.4c-6.3,10.7-20.2,25.8-31.8,34.6c5.6-0.2,13.4-0.7,21.7-1.4
						c-0.6-4.2-1.9-8.2-3.5-11.8l0.8-0.4c24.9,11.4,13.1,33,3.1,22.6c0.2-2.4,0.2-4.8,0.1-7.2c-5.8,2.6-13.5,5.8-22.7,9
						c-0.6,0.8-1.2,1.4-2,1.8l-5.8-12.8c0,0,2.8-0.7,4-1.8c4.5-3.8,11-12.9,16.4-22.3c-3.6,1.6-7.8,3.4-12.2,5.1
						c-0.5,0.6-1,1.1-1.7,1.4l-5.5-12c0,0,2.1-0.6,3-1.3c4.2-4.3,10.6-19.3,12.1-27.6L786.9,117.3L786.9,117.3z M831.8,124.4
						c-0.6,0.8-1.8,1.4-3.8,1.7c-1,41.4-2.2,52.2-7.6,57.5c-3.4,3.4-7.4,4.6-12.2,4.6c0-4.1-0.2-6.6-1.1-8.1
						c-1.1-1.9-2.8-3.2-5.9-4.1l0.1-0.9c2.2,0.2,5.4,0.3,7.1,0.3c1.1,0,2.1-0.3,3-1.1c3.4-3,4.5-17,5.3-50.4h-28.6l-0.7-2.2h28.3
						l6.2-6.3L831.8,124.4L831.8,124.4z"/>
					<path class="st0" d="M909,176.2c2.5,6,3,9.6,1.2,10.9c-5,3.5-12.1-1.2-14.8-5c-4.7-6.6-7.9-13.9-10-21.9
						c-3.4,1.7-6.9,3-10.6,4.2l-0.6-0.8c3.5-2.2,7-5.1,10.1-8.5c-1.3-6.3-2.1-13-2.5-20c-0.4,0.2-1,0.4-1.6,0.4h-27.9l-0.6-2.2h16.6
						l5-6.4c0,0,5,3.8,8.4,6.8c-0.2-2.7-0.2-5.5-0.3-8.4h-30.8v14.6c0,13.9-0.5,34.8-14.3,48.3l-0.8-0.6c5-14.6,5-33,5-47.8v-21
						l11.7,4.1h29.2c-0.1-3.5-0.1-7.1-0.1-10.8l12.7,1.3c-0.1-0.4-0.2-0.8-0.4-1.1l0.8-0.3c6.4,1.4,8.3,4,7.9,6l1.2-1.7
						c0,0,5.2,4.6,8.2,7.6c-0.2,0.9-1,1.3-2.2,1.3h-17.2c0,5.8,0.2,11.7,0.7,17.2c1.9-3.8,3.4-7.8,4.5-12.2l13.4,5.3
						c-0.5,1-1.5,1.7-3.4,1.4c-3.4,7.4-7.6,12.9-12.6,17.1c1.6,6.8,4.2,12.9,8.1,17.5c0.9,1.3,1.4,1.3,2.2-0.1
						c1.3-2.2,3.5-6.4,5.1-9.9l0.8,0.2L909,176.2L909,176.2z M851.2,165.1c3.4,7.8,3,13.8,0.6,16.6c-1.8,1.9-5.7,1.8-7-1
						c-1.1-2.6,0.2-4.9,2.5-6.3c1.6-1.7,3.4-5.9,2.8-9.3L851.2,165.1L851.2,165.1z M863.2,157.7c0,0.8-4.4,3-8.5,3h-1.4v-23.8
						l10.2,3.9h5.4l4.3-4.6l9,6.6c-0.3,0.5-1.2,1.1-2.5,1.4v11.8c-0.1,0.6-5.1,2.2-8.3,2.2h-1.8v-3.4h-6.4V157.7L863.2,157.7z
						 M877.9,177.1c2.1,0.9,2.5,1.9,2.5,3.4c0,3.4-3,5.3-12.4,5.3h-5.4c-6.6,0-7.6-1.7-7.6-7v-17l10.6,0.9c-0.2,1-0.9,1.8-2.4,2
						v11.9c0,0.9,0.2,1.1,1.8,1.1h3.8c1.6,0,2.8,0,3.4-0.1c0.8,0,1-0.2,1.5-0.9c0.7-1.2,1.8-4.6,3-8.8h0.9L877.9,177.1L877.9,177.1z
						 M863.2,143.1v9.6h6.4v-9.6H863.2z M865.5,158.8c16.4,6.9,7,19.4,1,12.7c0.6-4.2-0.4-9-1.8-12.3L865.5,158.8z M878.7,163.6
						c17.2,9,8.8,22.6,2.3,16c0.2-5.2-1.5-11.3-3.3-15.7L878.7,163.6L878.7,163.6z M900.8,120.2c-1.7,1-4.2,1.1-6.2-1
						c0.2-1.4,0.1-2.8-0.2-4.1c-0.5,0.2-1.1,0.5-2,0.6c-0.1,2.4-0.1,4.7-0.2,7.1h6.6L900.8,120.2L900.8,120.2z"/>
				</g>
			</g>
		</g>
	</g>
</g>
</svg>
