<?xml version="1.0" encoding="UTF-8"?>
<svg id="_圖層_2" data-name="圖層 2" xmlns="http://www.w3.org/2000/svg" viewBox="0 0 857.74 275.48">
  <defs>
    <style>
      .cls-1 {
        fill: #fff;
        opacity: .61;
      }

      .cls-2 {
        fill: #231815;
      }
    </style>
  </defs>
  <g id="_圖層_1-2" data-name="圖層 1">
    <rect class="cls-1" width="857.74" height="275.48" rx="30" ry="30"/>
    <g>
      <path class="cls-2" d="M32.03,69.83c0,2.34-.46,3.61-4.06,3.92-.07-.94-.21-1.75-.56-2.24-.42-.46-.98-.8-2.21-1.01v-.53s2.35,.17,2.94,.17c.49,0,.63-.21,.63-.63v-11.73c-1.51,.42-3.12,.84-4.94,1.26-.07,5.15-.63,10.78-5.01,14.84l-.45-.32c1.96-3.92,2.24-8.86,2.27-13.79l-.49,.1c-.25,.42-.63,.74-1.02,.81l-.91-3.78c.67,0,1.47-.04,2.42-.07v-12.15l3.36,1.29c.14-1.47,.32-3.57,.42-4.97l5.01,.88c-.14,.56-.56,.84-1.37,.88-.7,.98-1.82,2.34-2.73,3.36h3.12l1.47-1.75,3.33,2.55c-.18,.25-.63,.49-1.23,.63v8.26l2.1-.24,.04,.56c-.66,.21-1.4,.46-2.14,.67v13.02Zm-8.19-13.2c1.54-.14,3.19-.28,4.94-.46v-9.07h-4.94v9.52Zm.81-8.26c5.99,3.99,2.31,8.61,.77,6.2,.07-1.44-.18-4.1-1.19-5.95l.42-.25Zm.28,10.89c5.81,4.66,1.86,9.17,.46,6.69,.14-1.54,.04-4.45-.95-6.44l.49-.25Zm25.38,9.77c.84,.38,.98,.77,.98,1.43,0,1.37-1.23,2.14-3.99,2.14h-1.36c-2.38,0-2.7-.81-2.7-2.98v-15.47h-4.41v5.95c0,4.55-.56,10.22-7.07,13.86l-.35-.38c3.43-3.85,3.82-8.75,3.82-13.48v-8.47l4.2,1.54h3.47l1.79-2.03,3.36,2.87c-.18,.24-.56,.42-1.23,.52v14.07c0,.42,.03,.6,.35,.6h.49c.18,0,.35,0,.46-.04,.18,0,.28-.07,.45-.38,.28-.6,.81-2.87,1.23-4.76h.39l.14,5.01Zm-17.61-20.93h12.64l2.21-3.01s2.45,2.07,3.89,3.47c-.11,.38-.49,.56-.98,.56h-17.47l-.28-1.01Zm4.76-7.04c9.42,1.65,6.06,8.72,2.49,6.02-.21-2.03-1.47-4.34-2.8-5.81l.31-.21Z"/>
      <path class="cls-2" d="M79.56,51.63c.31-1.22,.66-2.98,.84-4.38h-4.41v4.62c0,.91,.03,.91,.98,.91h4.94c.25,0,.7,0,1.12-.11h.31l.18,.04c1.26,.45,1.47,.74,1.47,1.33,0,1.61-.88,2.28-4.41,2.28h-2.91c.49,.42,2.38,1.96,3.57,3.12-.07,.39-.46,.56-.95,.56h-8.33v11.06h6.93l2.2-3.01s2.52,2.03,3.96,3.46c-.07,.39-.46,.56-.98,.56h-28.67l-.28-1.02h12.57v-11.06h-8.47l-.28-1.02h16.56l2-2.66h-1.09c-4.06,0-4.45-.52-4.45-4.45v-4.62h-12.64c.42,2.73-.52,4.59-1.82,5.32-1.19,.77-2.8,.38-3.29-.95-.39-1.26,.39-2.24,1.47-2.76,1.23-.77,2.42-2.73,2.14-4.9l.49-.03c.39,.84,.67,1.61,.84,2.34h10.15c-.38-.14-.73-.32-1.12-.63,0-1.71-.8-3.54-1.71-4.73l.25-.14c7.25,.59,6.65,4.66,4.31,5.5h9.14l2.24-2.31,3.92,3.75c-.28,.31-.67,.42-1.36,.45-1.23,1.19-3.4,2.8-5.15,3.71l-.25-.25Zm-24.54,6.06c5.92-2.73,8.65-6.44,9.7-10.43l5.29,2.59c-.14,.46-.56,.74-1.68,.7-2.52,3.82-6.34,6.65-13.09,7.53l-.21-.38Z"/>
      <path class="cls-2" d="M120.76,69.37c.94,2.2,1.15,3.46,.49,3.92-1.79,1.23-4.31-.63-5.39-2.24-.91-1.33-1.65-2.76-2.27-4.27-2.49,2.84-5.6,4.97-9.49,6.69l-.31-.53c3.68-2.42,6.55-5.29,8.75-9.1-1.33-4.34-1.89-9.24-2.14-14.53h-7.11v5.39h2.45l1.82-1.79,3.29,2.7c-.21,.28-.67,.53-1.33,.63-.14,6.79-.35,9.87-1.72,11.03-.84,.63-1.89,.88-3.12,.88,0-.73-.1-1.54-.46-1.96-.39-.49-1.19-.95-2.14-1.19v-.31c-1.16,3.36-3.36,6.58-7.63,9.03l-.35-.35c3.43-3.61,4.73-7.88,5.18-12.18-1.86,1.51-4.55,3.57-8.16,6.02-.14,.49-.49,.88-.88,1.01l-2.14-4.66c.84-.17,2.2-.56,3.85-1.02v-10.64h-3.12l-.28-.98h3.4v-9.31l5.15,.46c-.07,.49-.35,.84-1.29,.98v7.81l1.64-2.73s1.09,1.12,2.07,2.24v-3.61l4.34,1.58h6.44c-.07-2.24-.1-4.55-.1-6.93l5.08,.52c0,.21-.07,.39-.25,.56,5.71,.1,5.64,3.36,3.92,4.2,.77,.6,1.79,1.44,2.52,2.1-.11,.35-.46,.52-.95,.52h-6.51c.11,3.26,.35,6.44,.91,9.35,.7-1.93,1.33-4.03,1.86-6.37l4.66,1.58c-.17,.46-.52,.67-1.44,.63-1.05,3.36-2.31,6.23-3.82,8.72,.6,1.58,1.33,3.01,2.24,4.24,.39,.59,.56,.56,.91-.07,.46-.88,1.23-2.56,1.79-4.03l.39,.07-.77,5.95Zm-24.92-7.98c1.16-.35,2.35-.7,3.57-1.09,.1-1.47,.14-2.91,.14-4.34v-4.06h-3.71v9.49Zm7.46-5.67v.25c0,2.62-.17,5.64-1.15,8.58,.91,.07,2.14,.14,2.59,.14,.28,0,.42-.07,.56-.25,.49-.63,.67-3.22,.77-8.72h-2.77Zm13.9-9.03c-.14-.04-.28-.1-.42-.21-.32-1.33-1.33-2.8-2.17-3.67-.17,.03-.35,.07-.56,.1-.04,1.79-.07,3.61-.04,5.43h1.89l1.29-1.65Z"/>
      <path class="cls-2" d="M138.12,45.08s2.24,1.75,3.61,3.01c-.07,.38-.46,.56-.95,.56h-17.05l-.28-1.01h12.67l2-2.56Zm-3.71,7.11l1.96-2.49s2.21,1.68,3.5,2.91c-.1,.38-.46,.56-.94,.56h-13.37l-.28-.98h9.14Zm1.96,2.06s2.21,1.68,3.5,2.91c-.1,.39-.46,.56-.94,.56h-13.37l-.28-1.02h9.14l1.96-2.45Zm.07,5.32l3.71,2.8c-.21,.25-.7,.56-1.4,.7v7.95c-.03,.28-1.85,1.05-3.12,1.05h-.63v-2h-5.39v2.07c0,.35-1.61,1.19-3.15,1.19h-.52v-13.41l3.82,1.54h4.9l1.79-1.89Zm-7.74-18.38c9.42,.49,5.99,7.81,2.21,5.21-.24-1.85-1.36-3.82-2.48-5.04l.28-.17Zm6.3,27.9v-6.65h-5.39v6.65h5.39Zm18.1-17.96s2.31,1.89,3.71,3.19c-.1,.38-.49,.56-.98,.56h-6.44v17.36c0,.46-1.75,1.44-3.29,1.44h-.77v-18.8h-5.6l-.28-1.02h5.88v-12.71l5.36,.53c-.11,.49-.35,.88-1.3,1.01v11.17h1.68l2.03-2.73Z"/>
      <path class="cls-2" d="M187.08,68.85s2.66,1.89,4.31,3.26c-.1,.38-.49,.56-1.02,.56h-31.57l-.28-.98h26.22l2.35-2.84Zm1.05-23.87s2.17,1.71,3.47,2.98c-.1,.38-.46,.56-.95,.56h-5.18v3.08c0,.14-.53,.42-1.23,.67,.73,.53,2.31,1.65,3.36,2.56-.11,.38-.49,.56-.98,.56h-10.47v2.45h9.35l2.03-2.49s2.31,1.71,3.75,2.94c-.07,.39-.46,.56-.95,.56h-31.47l-.28-1.01h13.44v-2.45h-9.66l-.28-1.01h9.94v-2.52h-8.58l-.32-1.01h8.89v-2.31h-13.06l-.28-1.01h13.34v-2.35h-8.54l-.31-.98h8.86v-3.29l5.25,.46c-.07,.46-.31,.77-1.12,.91v1.92h4.94l1.82-1.96,3.85,2.84c-.21,.28-.63,.56-1.29,.7v1.75h.77l1.89-2.52Zm-6.37,25.27v-1.05h-13.86v.59c0,.38-1.82,1.26-3.47,1.26h-.59v-11.66l4.34,1.68h13.23l1.89-1.96,3.85,2.87c-.18,.25-.63,.53-1.26,.67v6.51c-.04,.28-2.03,1.09-3.4,1.09h-.73Zm-13.86-8.16v2.52h4.9v-2.52h-4.9Zm0,6.09h4.9v-2.59h-4.9v2.59Zm8.26-20.69h5.25v-2.35h-5.25v2.35Zm5.25,1.01h-5.25v2.31h5.25v-2.31Zm1.96,3.99c-.42,.11-.88,.17-1.26,.17h-.7v-.84h-5.25v2.52h5.67l1.54-1.86Zm-6.72,9.59v2.52h5.11v-2.52h-5.11Zm5.11,6.09v-2.59h-5.11v2.59h5.11Z"/>
      <path class="cls-2" d="M225.76,49.67c-.25,.28-.7,.63-1.44,.77v11.52c-.03,.28-2.21,1.05-3.64,1.05h-.74v-2.94h-7.88v12.25c0,.46-1.89,1.5-3.57,1.5h-.81v-13.76h-7.81v2.06c0,.42-1.92,1.4-3.71,1.4h-.63v-16.66l4.66,1.82h7.49v-7.67l5.67,.53c-.07,.49-.35,.88-1.29,1.02v6.12h7.56l1.96-2.17,4.17,3.15Zm-18.06,9.38v-9.35h-7.81v9.35h7.81Zm12.25,0v-9.35h-7.88v9.35h7.88Z"/>
      <path class="cls-2" d="M244.41,48.62c-.24,.31-.77,.59-1.47,.73v20.86c-.04,.28-1.89,1.16-3.26,1.16h-.6v-2.77h-5.32v2.59c0,.46-1.47,1.33-3.15,1.33h-.63v-26.46l3.92,1.65h.21c.25-1.93,.56-4.66,.74-6.62l5.67,1.37c-.14,.59-.63,.84-1.44,.84-.91,1.23-2.28,3.05-3.4,4.41h3.05l1.86-2.1,3.81,3.01Zm-10.64,.1v8.68h5.32v-8.68h-5.32Zm5.32,18.9v-9.21h-5.32v9.21h5.32Zm22.4-19.01c-.28,.31-.73,.56-1.54,.67-.25,14.11-.74,20.51-2.66,22.58-1.26,1.33-2.8,1.89-5.11,1.89,0-1.33-.17-2.31-.77-2.87-.63-.66-2-1.22-3.71-1.54l.04-.49c1.68,.14,4.1,.32,5.01,.32,.63,0,.95-.14,1.3-.46,1.29-1.19,1.65-8.16,1.89-20.09h-6.51c-1.68,2.97-3.68,5.46-5.92,7.35l-.46-.28c1.92-3.57,3.82-9.28,4.73-14.63l5.53,1.61c-.14,.46-.56,.7-1.37,.7-.59,1.5-1.23,2.91-1.96,4.24h5.57l2.21-2.28,3.75,3.29Zm-15.47,6.12c10.22,3.01,6.41,10.57,2.7,7.46-.17-2.49-1.58-5.32-2.98-7.25l.28-.21Z"/>
      <path class="cls-2" d="M267.62,40.92h11.27v1.37h-9.84v21.04h-1.44v-22.4Z"/>
      <path class="cls-2" d="M280.95,49.53c9.1,1.12,5.78,7.77,2.28,5.21-.28-1.75-1.47-3.71-2.56-4.97l.28-.24Zm9.42-3.12c-1.08,4.52-3.08,12.81-3.43,14.77-.21,1.16-.42,2.42-.38,3.36,.07,1.89,1.47,3.18,1.37,6.37-.07,1.71-1.16,2.87-2.77,2.87-.8,0-1.58-.49-1.82-1.82,.66-3.64,.49-6.97-.32-7.53-.49-.35-1.02-.49-1.75-.56v-.67h1.51c.49,0,.63,0,.98-.73q.6-1.33,6.02-16.21l.6,.14Zm-7.25-5.18c9.45,1.12,6.06,8.02,2.42,5.42-.35-1.89-1.61-3.88-2.7-5.18l.28-.24Zm10.22,16.84c-1.61,.28-3.26,.53-4.87,.7l-.14-.52c1.64-.39,3.36-.84,5.01-1.37v-1.93c-1.26,.46-2.62,.88-3.96,1.16l-.25-.46c2.56-1.37,5.15-3.78,6.3-5.53l4.1,2.13c-.21,.42-.77,.56-1.75,.42-.95,.7-2.28,1.37-3.78,2l2.66,1.05c1.09-.42,2.14-.88,3.15-1.33v-4.69h-5.5l-.21-.77c-1.43,2.1-5.11,.38-2.87-2.34,1.05-.42,1.96-1.54,2.17-3.15h.46c.24,.66,.42,1.26,.56,1.82h6.83c-.31-.11-.6-.25-.91-.49-.04-1.44-.81-3.08-1.61-3.96l.28-.21c6.34,.35,5.85,3.92,3.75,4.66h6.06l1.93-1.93,3.33,3.22c-.28,.28-.63,.35-1.33,.38-.77,.56-2.03,1.44-3.05,2.03l.21,.17c-.11,.39-.46,.56-.95,.56h-1.33l3.89,2.66c-.31,.38-.91,.49-2,.25-2.17,1.26-5.01,2.45-8.12,3.46h5.29l1.89-2.1,3.64,2.7c-.25,.31-.6,.52-1.37,.66v9.94c0,.21-1.29,.88-3.33,.88h-.7v-.91h-9.63v.74c0,.25-1.19,.91-3.19,.91h-.67v-10.82Zm-4.1,15.05c3.64-1.29,7.39-3.78,9.14-5.78l4.17,2.98c-.28,.35-.91,.46-1.93,.21-2.62,1.4-6.9,2.66-11.24,3.08l-.14-.49Zm15.61-24.4l1.75-2.24s1.19,.91,2.31,1.82l.21-2.07h-14.53c.1,1.12-.04,1.89-.35,2.49h10.61Zm-6.86,8.33c-.28,.07-.53,.14-.81,.21v2.21h9.63v-2.41h-8.82Zm-.81,5.78h9.63v-2.34h-9.63v2.34Zm9.63,3.4v-2.38h-9.63v2.38h9.63Zm-4.24,2.03c16.03,.67,9.59,7.39,6.51,4.66-1.16-1.4-3.29-3.04-6.65-4.16l.14-.49Zm.94-15.72c1.61-.95,3.01-1.89,4.06-2.83h-4.06v2.83Z"/>
      <path class="cls-2" d="M316.06,49.46c9,.66,5.85,7.25,2.35,4.87-.31-1.65-1.54-3.5-2.62-4.62l.28-.25Zm10.08-2.73c-1.19,4.45-3.36,12.57-3.78,14.53-.25,1.19-.49,2.41-.46,3.33,.03,1.89,1.44,3.19,1.33,6.34-.04,1.75-1.16,2.94-2.84,2.94-.77,0-1.58-.49-1.82-1.86,.67-3.64,.49-6.97-.31-7.49-.49-.35-1.05-.49-1.82-.56v-.7h1.58c.49,0,.63,0,.98-.73q.7-1.33,6.62-15.89l.52,.1Zm-7.6-5.39c9.49,.88,6.27,7.81,2.59,5.32-.39-1.85-1.72-3.85-2.87-5.11l.28-.21Zm26.43,18.03c-.14,2.91-.31,5.18-.56,7l1.54-2.52s1.82,1.79,2.84,2.97c-.11,.39-.46,.56-.91,.56h-3.64c-.42,2.62-1.02,4.1-1.86,4.94-1.16,1.19-2.7,1.5-4.52,1.5,.04-1.05-.07-1.82-.52-2.31-.42-.59-1.29-.98-2.56-1.26l.04-.53c1.09,.14,2.69,.21,3.39,.21,.56,0,.91-.1,1.23-.42,.35-.31,.67-1.01,.91-2.13h-10.12l-1.44,1.75-3.68-2.2c.32-.25,.77-.56,1.23-.81,.35-1.79,.77-4.16,1.12-6.75h-3.43l-.28-.98h3.85c.35-2.49,.66-5.04,.88-7.25-1.12,1.23-2.35,2.31-3.68,3.19l-.35-.28c2.41-3.12,4.45-8.58,5.29-12.99l5.5,1.51c-.14,.38-.42,.56-1.3,.42-.38,.88-.84,1.75-1.36,2.62h10.22l2.14-2.87s2.42,1.96,3.82,3.29c-.07,.38-.46,.56-.94,.56h-15.82c-.45,.77-.98,1.5-1.51,2.2l2.84,1.37h7.84l2.03-2.1,3.57,3.08c-.28,.28-.73,.53-1.54,.63-.07,2.42-.1,4.51-.21,6.44l1.57-2.59s1.89,1.93,2.87,3.19c-.07,.38-.42,.56-.91,.56h-3.57Zm-4.41,7c.28-1.68,.49-3.96,.67-7h-9.98c-.38,2.55-.77,5.04-1.12,7h10.43Zm-8.19-15.23c-.24,1.96-.59,4.55-.98,7.25h9.87c.11-2.1,.17-4.48,.25-7.25h-9.14Zm1.19,8.86c7.77,1.79,4.76,7.28,1.96,5.04-.17-1.64-1.26-3.61-2.27-4.83l.31-.21Zm.49-7.67c7.49,1.54,4.87,6.72,2.07,4.76-.31-1.54-1.47-3.4-2.41-4.55l.35-.21Z"/>
      <path class="cls-2" d="M360.72,52.15c-.14,.31-.46,.52-1.09,.66v19.74c-.07,.35-1.75,1.19-3.36,1.19h-.77v-18.9c-1.44,1.71-2.98,3.22-4.62,4.52l-.42-.28c2.91-4.38,5.81-11.31,7.25-18.17l5.64,1.71c-.17,.46-.59,.77-1.36,.74-1.09,2.87-2.38,5.5-3.85,7.84l2.59,.95Zm13.48-.88c1.82,6.06,5.92,10.22,10.22,12.64l-.11,.49c-1.85,1.05-2.98,2.59-3.26,4.48-3.82-3.82-6.27-10.08-7.49-16.87v20.23c0,.46-1.75,1.44-3.33,1.44h-.77v-15.16c-2.21,4.13-5.36,7.67-9.38,10.47l-.42-.35c4.03-4.48,6.79-11.06,8.09-17.36h-6.79l-.28-.98h8.79v-8.82l5.39,.53c-.07,.53-.35,.88-1.29,1.02v7.28h3.75l2.31-2.98s2.59,2,4.17,3.4c-.11,.39-.46,.56-.98,.56h-8.61Z"/>
      <path class="cls-2" d="M391.9,52.92v19.36c0,.53-1.47,1.54-3.29,1.54h-.67V41.76l4.1,1.79h4.59l1.71-1.85,3.64,2.73c-.18,.25-.63,.56-1.26,.67v8.68c-.04,.28-1.89,1.09-3.12,1.09h-.63v-1.93h-5.08Zm0-8.37v3.12h5.08v-3.12h-5.08Zm5.08,7.39v-3.26h-5.08v3.26h5.08Zm12.99,5.92c-.21,.28-.74,.6-1.47,.7v9.42c0,2.42-.53,3.78-4.38,4.13-.07-1.08-.18-1.89-.63-2.38-.42-.49-1.05-.91-2.41-1.15v-.46s2.59,.17,3.33,.17c.49,0,.63-.21,.63-.63v-2.24h-5.64c-.52,2.38-1.89,4.79-5.08,6.54l-.31-.35c2.24-2.94,2.38-6.65,2.38-9.98v-6.12l3.96,1.5h4.34l1.64-1.89,3.64,2.73Zm-4.94,6.55v-2.8h-5.25v.03c0,.84-.03,1.79-.17,2.77h5.43Zm-5.25-6.44v2.66h5.25v-2.66h-5.25Zm18.52-13.48c-.25,.28-.73,.59-1.47,.7v23.8c0,2.87-.56,4.45-4.94,4.79-.07-1.29-.24-2.31-.66-2.91-.46-.59-1.12-1.05-2.59-1.33v-.49s2.84,.21,3.5,.21c.56,0,.7-.24,.7-.7v-15.65h-5.32v.6c0,.35-1.65,1.22-3.26,1.22h-.56v-12.78l3.99,1.58h4.8l1.85-2.17,3.96,3.12Zm-10.78,.07v3.12h5.32v-3.12h-5.32Zm5.32,7.39v-3.26h-5.32v3.26h5.32Z"/>
      <path class="cls-2" d="M450.7,68.92c1.96,.35,2.42,.91,2.42,1.61,0,1.92-2.35,2.28-14.14,2.28h-7.74c-5.67,0-8.19-.6-8.19-4.59v-23.77h-1.23l-.31-.98h24.75l2.1-2.8s2.35,1.92,3.78,3.22c-.11,.38-.49,.56-.98,.56h-24.33v23.24c0,1.58,.95,2.07,3.99,2.07h8.47c3.01,0,5.71-.07,6.76-.17,.66-.04,1.5-.14,2.06-.21,.49-.07,1.23-.25,2-.49h.38l.21,.04Zm-15.65-.95v-1.71h-2.91v1.47c0,.28-1.47,1.05-2.87,1.05h-.49v-11.87l3.5,1.4h2.45l1.58-1.64,3.29,2.49c-.17,.21-.59,.49-1.15,.56v7.35c-.04,.25-1.72,.91-2.84,.91h-.56Zm7.91-13.55h-6.97v.98c0,.35-1.75,1.19-3.33,1.19h-.56v-10.85l4.06,1.58h6.48l1.79-1.92,3.75,2.84c-.21,.25-.63,.53-1.26,.66v6.16c-.04,.25-2.03,.95-3.26,.95h-.7v-1.58Zm-7.91,10.82v-5.91h-2.91v5.91h2.91Zm7.91-11.83v-5.08h-6.97v5.08h6.97Zm3.85,14.42v-1.58h-3.01v.91c0,.31-1.51,1.05-2.91,1.05h-.49v-11.31l3.54,1.4h2.56l1.61-1.68,3.36,2.55c-.17,.21-.59,.46-1.15,.56v7.18c-.04,.21-1.79,.91-2.91,.91h-.6Zm0-2.59v-5.91h-3.01v5.91h3.01Z"/>
      <path class="cls-2" d="M467.26,73.89h-11.27v-1.37h9.84v-21.04h1.44v22.4Z"/>
      <path class="cls-2" d="M478.18,61.46c2.24-1.19,3.26-2.8,3.75-4.76-1.96-.77-3.47-1.68-3.47-3.43,0-1.44,1.08-2.66,2.77-2.66s2.98,1.26,2.98,3.57c0,2.94-1.44,6.58-5.43,8.4l-.59-1.12Z"/>
      <path class="cls-2" d="M507.86,65.91l.07,.35c-2.73,1.58-6.93,3.71-13.16,6.44-.21,.45-.6,.81-1.02,.91l-2.03-5.25c1.75-.17,5.15-.66,9.17-1.29v-13.72h-7.98l-.32-.98h8.3v-10.64l5.32,.53c-.07,.49-.32,.84-1.26,.98v23.17l2.91-.49Zm14.74,2.38c1.12,.49,1.44,.98,1.44,1.71,0,1.79-1.61,2.56-7.11,2.56h-3.12c-3.5,0-4.55-.84-4.55-3.89v-26.92l5.32,.6c-.04,.46-.35,.84-1.23,.98v9.07h4.73l1.82-3.22s2.06,2.24,3.12,3.64c-.1,.38-.42,.56-.91,.56h-8.75v14.11c0,.84,.31,1.09,1.4,1.09h2.52c.98,0,1.79,0,2.24-.04,.39-.04,.63-.11,.91-.46,.42-.66,1.02-2.8,1.65-5.01h.35l.17,5.22Z"/>
      <path class="cls-2" d="M537.36,68.71c2.14,.49,4.73,.59,7.95,.59,3.05,0,10.5,0,13.79-.1v.42c-1.47,.35-2.21,1.71-2.28,3.25h-11.66c-7.6,0-11.87-1.33-14.42-6.86-.88,3.25-2.35,6.44-4.69,8.79l-.42-.32c2.31-4.69,3.01-11.8,2.94-17.12l4.73,.88c-.14,.49-.49,.8-1.29,.88-.18,1.75-.46,3.64-.88,5.5,.7,1.12,1.54,1.93,2.49,2.59v-11.97l4.83,.53c-.07,.42-.31,.73-1.09,.84v4.31h.84l1.82-2.66s2.07,1.85,3.22,3.12c-.11,.38-.42,.56-.91,.56h-4.97v6.79Zm-4.69-15.05v-5.53h-5.01l-.28-1.02h5.29v-6.09l5.04,.46c-.07,.46-.31,.77-1.12,.88v4.76h.25l1.93-2.52s2.13,1.75,3.43,2.97c-.07,.39-.42,.56-.91,.56h-4.69v5.53h1.19l2-2.66s2.21,1.82,3.57,3.08c-.11,.38-.46,.56-.95,.56h-15.93l-.28-.98h6.48Zm15.26,12.71c-3.4,0-4.27-.77-4.27-3.54v-19.67l4.27,1.61h4.2l1.82-2.03,3.92,2.98c-.25,.31-.73,.63-1.51,.77v8.89c-.03,.21-2,.91-3.22,.91h-.67v-1.96h-5.01v7.6c0,.66,.21,.88,1.33,.88h2.84c1.08,0,2-.04,2.45-.04,.38-.03,.63-.14,.84-.56,.39-.67,.98-2.87,1.61-5.25h.38l.14,5.53c1.05,.42,1.33,.88,1.33,1.54,0,1.64-1.61,2.34-7.11,2.34h-3.36Zm-.45-20.58v7.56h5.01v-7.56h-5.01Z"/>
      <path class="cls-2" d="M573.31,45.33s2.1,1.65,3.33,2.84c-.1,.38-.46,.56-.95,.56h-14.39l-.28-.98h10.43l1.86-2.41Zm-3.22,6.9l1.79-2.27s2,1.58,3.22,2.73c-.07,.39-.46,.56-.95,.56h-11.27l-.28-1.02h7.49Zm1.79,2.28s2,1.54,3.22,2.7c-.07,.39-.46,.56-.95,.56h-11.27l-.28-1.02h7.49l1.79-2.24Zm.49,5.04l3.64,2.7c-.21,.28-.67,.56-1.33,.7v8.02c-.03,.25-1.82,1.01-3.08,1.01h-.6v-1.82h-4.27v2.14c0,.35-1.61,1.16-3.12,1.16h-.52v-13.55l3.75,1.47h3.82l1.72-1.82Zm-7.11-18.13c9.28,.46,5.92,7.53,2.21,5.04-.25-1.75-1.4-3.67-2.49-4.87l.28-.17Zm5.74,27.76v-6.79h-4.27v6.79h4.27Zm20.02-14.18s2.27,2.03,3.54,3.36c-.1,.38-.46,.56-.95,.56h-7.35v13.62c0,.31-1.23,1.33-3.33,1.33h-.74v-14.95h-7.35l-.28-1.02h7.63v-9.38h-1.93c-1.4,2.62-3.19,4.76-5.22,6.41l-.46-.28c1.61-3.43,2.91-8.65,3.36-13.62l5.92,1.54c-.17,.45-.59,.73-1.4,.73-.49,1.51-1.05,2.91-1.72,4.2h7.07l2.1-2.77s2.35,1.92,3.78,3.22c-.1,.38-.49,.56-.98,.56h-6.48v9.38h2.8l1.96-2.91Z"/>
      <path class="cls-2" d="M602.95,44.63v7.6c0,6.44-.28,15.61-6.58,21.63l-.42-.28c2.87-6.41,3.01-14.49,3.01-21.35v-10.57l4.62,1.96h18.83l2.31-2.91s2.59,2,4.17,3.36c-.1,.38-.49,.56-.98,.56h-24.96Zm22.33,8.47s2.21,1.96,3.47,3.29c-.07,.38-.46,.56-.94,.56h-24.22l-.28-1.01h5.5v-5.08h-4.52l-.28-.98h4.8v-4.8l5.11,.46c-.07,.45-.32,.77-1.16,.91v3.43h4.24v-4.8l5.18,.46c-.07,.45-.31,.77-1.16,.91v3.43h1.05l1.93-2.8s2.17,1.93,3.39,3.22c-.1,.38-.42,.56-.91,.56h-5.46v5.08h2.31l1.96-2.84Zm-4.1,4.51l4.03,3.08c-.21,.28-.7,.56-1.4,.7v11.17c-.07,.25-2.14,1.01-3.5,1.01h-.7v-2h-8.82v.98c0,.42-1.79,1.33-3.47,1.33h-.63v-15.89l4.31,1.71h8.26l1.93-2.1Zm-10.4,3.12v4.34h8.82v-4.34h-8.82Zm8.82,9.84v-4.48h-8.82v4.48h8.82Zm-6.86-14.63h4.24v-5.08h-4.24v5.08Z"/>
      <path class="cls-2" d="M631.16,48.83c8.89,1.29,5.64,7.84,2.31,5.32-.24-1.82-1.43-3.85-2.62-5.11l.32-.21Zm23.98,4.97c2.14,2.7,5.81,4.66,9.24,5.53l-.07,.38c-1.5,.38-2.59,1.68-3.08,3.78-1.72-1.05-3.15-2.45-4.31-4.16v5.81c-.04,.21-1.96,.74-3.12,.74h-.63v-1.68h-5.71v4.55c0,.59,.21,.77,1.68,.77h4.38c1.65,0,3.08,0,3.71-.07,.56-.04,.84-.14,1.09-.49,.42-.6,.98-2.1,1.64-4.1h.38l.1,4.24c1.16,.42,1.51,.88,1.51,1.58,0,1.71-1.64,2.41-8.79,2.41h-4.62c-3.96,0-5.01-.66-5.01-3.5v-8.96c-1.71,1.37-3.68,2.56-5.85,3.57l-.28-.46c3.33-2.59,5.78-6.23,7.25-9.94h-4.94l-.25-.88c-1.02,3.54-2.14,7.39-2.42,8.58-.25,1.08-.49,2.28-.46,3.15,.07,1.82,1.44,3.15,1.33,6.27-.07,1.71-1.23,2.87-2.84,2.87-.74,0-1.51-.52-1.75-1.82,.67-3.71,.49-6.93-.31-7.46-.49-.35-1.02-.53-1.79-.6v-.66h1.58c.49,0,.63,0,1.02-.7q.7-1.22,6.27-13.72l.56,.1c-.32,1.08-.73,2.45-1.12,3.85h5.25v-4.9h-4.52l-.28-1.02h4.8v-5.63l5.04,.42c-.07,.52-.35,.88-1.3,1.01v4.2h4.03v-5.63l5.22,.46c-.07,.49-.35,.84-1.3,.98v4.2h1.37l2.03-2.76s2.27,1.89,3.64,3.22c-.11,.39-.49,.56-.98,.56h-6.06v4.9h1.79l2.1-2.87s2.35,1.96,3.75,3.33c-.07,.38-.46,.56-.98,.56h-8.02Zm-21.42-12.53c9.28,1.44,6.06,8.16,2.56,5.67-.35-1.92-1.75-4.06-2.87-5.46l.31-.21Zm21.81,15.61c-.46-.95-.84-2-1.19-3.08h-5.18c-.63,1.3-1.44,2.52-2.35,3.68l1.12,.42h4.94l1.68-1.71,.98,.7Zm-2.35,6.33v-4.3h-5.71v4.3h5.71Zm-4.62-10.43h4.03v-4.9h-4.03v4.9Z"/>
      <path class="cls-2" d="M666.06,49.46c9,.66,5.85,7.25,2.35,4.87-.31-1.65-1.54-3.5-2.62-4.62l.28-.25Zm9.94-2.7c-1.15,4.41-3.26,12.53-3.64,14.46-.25,1.23-.49,2.45-.46,3.4,.03,1.89,1.44,3.19,1.33,6.34-.04,1.71-1.16,2.91-2.84,2.91-.77,0-1.58-.49-1.82-1.86,.63-3.64,.49-6.97-.31-7.49-.49-.35-1.05-.49-1.82-.56v-.7h1.58c.49,0,.63,0,.98-.73q.7-1.33,6.48-15.89l.52,.14Zm-7.46-5.43c9.49,.91,6.27,7.84,2.59,5.32-.39-1.82-1.72-3.82-2.87-5.11l.28-.21Zm10.5,24.99c1.44,3.64,.42,6.27-1.12,7.14-1.05,.59-2.56,.28-2.94-.95-.35-1.16,.35-2.07,1.37-2.56,1.09-.56,2.28-2.07,2.21-3.64h.49Zm3.68-5.92c6.06,2.42,3.22,7.04,.98,4.9,.03-.46-.04-.91-.11-1.4-1.65,.6-3.99,1.4-6.44,2.14-.17,.28-.39,.45-.6,.56l-1.65-3.36s.67-.14,.98-.31c1.4-.77,3.08-2.24,4.48-3.82-.94,.31-2,.7-3.05,1.05-.21,.42-.49,.66-.77,.8l-1.61-3.29s.56-.14,.84-.25c1.44-.74,3.19-2.8,4.13-4.27-.46,.11-1.05,.21-1.75,.21h-.66v-11.76l4.1,1.61h10.43l1.82-2.07,3.54,2.66c-.21,.28-.56,.49-1.29,.63v7.77c0,.14-1.26,.81-3.22,.81h-.21l2.42,1.19c-.14,.31-.56,.59-1.3,.46-1.16,.91-2.87,2-4.52,2.87,1.09-.04,2.31-.07,3.61-.11,.63-.8,1.15-1.54,1.5-2.17l3.92,2.07c-.17,.31-.6,.59-1.33,.46-1.79,1.68-4.83,3.82-7.6,5.36,1.61-.07,3.64-.14,5.74-.25-.32-.95-.81-1.86-1.26-2.52l.38-.17c6.83,2.55,3.85,7.63,1.4,5.36,0-.59-.1-1.23-.28-1.89-1.65,.6-4.2,1.47-6.9,2.24-.17,.28-.39,.49-.63,.6l-1.61-3.36s.63-.14,.95-.28c1.44-.77,3.08-2.31,4.48-3.92-.98,.35-2.1,.74-3.26,1.09-.25,.45-.53,.7-.81,.84l-1.43-2.94c-.11,0-.25-.04-.35-.04-.91,.84-2.17,1.82-3.5,2.77l.42-.25Zm.67,2.62c-.28-.91-.67-1.79-1.08-2.41-1.33,.95-2.77,1.82-4.17,2.59,1.47-.03,3.33-.1,5.25-.17Zm.95-8.72c-.18,.28-.6,.56-1.33,.42-1.19,.95-3.01,2.07-4.73,2.91,1.02,0,2.21-.04,3.43-.07,.66-.81,1.23-1.58,1.58-2.21l3.61,1.93c1.61-.88,3.57-3.61,4.27-5.01l1.02,.49v-.88h-10.96v.56c0,.07-.07,.14-.21,.25l3.33,1.61Zm-3.12-10.12v2.94h10.96v-2.94h-10.96Zm0,6.72h10.96v-2.8h-10.96v2.8Zm1.4,15.58c6.27,4.17,2.1,9.24-.25,6.23,.42-2.03,.21-4.38-.21-6.09l.45-.14Zm4.73-.14c7.91,3.19,3.99,9.42,1.12,6.41,.21-2.1-.52-4.59-1.51-6.2l.39-.21Zm5.29-.17c9.49,2.66,5.92,9.77,2.45,6.86-.11-2.31-1.4-4.94-2.77-6.65l.31-.21Z"/>
      <path class="cls-2" d="M732.31,68.6c1.26,.46,1.65,.91,1.65,1.61,0,1.86-1.82,2.45-9.49,2.45h-4.83c-4.17,0-5.6-.7-5.6-3.92v-12.99l-3.01,1.33-.7-.77,3.71-1.61v-2.8c-.17,.14-.42,.21-.7,.21h-4.45v10.85c1.54-.42,3.15-.84,4.76-1.3l.11,.39c-2.03,1.54-5.15,3.78-9.8,6.54-.14,.46-.49,.84-.91,.98l-2.31-4.69c.91-.17,2.42-.53,4.24-.95v-11.83h-3.82l-.28-1.01h4.1v-9.35l5.22,.46c-.07,.49-.31,.88-1.29,1.02v7.88h.77l1.68-2.8s1.64,1.71,2.7,3.01v-5.32l5.08,.56c-.04,.42-.39,.8-1.23,.91v5.57l2.98-1.29v-10.78l5.08,.49c-.07,.49-.35,.84-1.3,.98v7.67l3.54-1.58,1.79-1.82,3.36,3.5c-.28,.31-.63,.42-1.4,.49-.88,3.99-2.59,9.8-4.73,13.62l-.42-.25c.67-4.34,1.19-10.29,1.3-14.35l-3.43,1.47v13.97c0,.38-1.65,1.12-3.08,1.12h-.7v-13.44l-2.98,1.33v13.62c0,1.02,.46,1.33,2.21,1.33h4.69c1.82,0,3.26-.04,3.96-.1,.56-.04,.91-.18,1.23-.53,.46-.66,1.05-2.41,1.82-4.83h.38l.14,4.97Z"/>
      <path class="cls-2" d="M750.86,45.12c-.18,.42-.63,.7-1.47,.63-3.08,6.69-7.42,11.13-12.71,14l-.35-.32c3.54-3.71,7.07-9.87,8.86-16.45l5.67,2.13Zm6.13,15.09c13.48,6.09,9.77,16.66,5.04,12.67-.17-1.4-.52-2.87-1.05-4.34-4.59,1.37-10.89,2.94-18.62,4.38-.35,.49-.77,.81-1.23,.95l-1.75-5.36s1.05-.25,1.47-.6c2.77-2.52,6.93-10.29,8.12-14.7l5.95,2.28c-.18,.38-.6,.7-1.37,.66-2.35,3.92-7.04,9.28-11.06,12.53,4.41-.14,11.2-.56,18.06-1.19-1.05-2.55-2.49-5.04-3.95-7.07l.38-.21Zm3.29-17.08c-.45,.56-1.68,.84-3.12,.95,1.57,5.01,5.78,9.38,11.66,11.45l-.07,.42c-1.79,.63-3.22,2.28-3.71,3.99-4.94-3.5-7.67-9-8.79-16.14h-4.06l-.31-.98h3.43l1.37-2.17,3.61,2.49Z"/>
      <path class="cls-2" d="M803.36,44.45c-.25,.32-.74,.6-1.44,.77v27.06c-.03,.32-1.96,1.33-3.5,1.33h-.63v-2.66h-20.93v1.33c0,.53-1.61,1.54-3.36,1.54h-.7V41.72l4.41,1.82h20.23l2-2.24,3.92,3.15Zm-5.57,25.52v-25.45h-20.93v25.45h5.71l-1.79-2.7c1.08-.7,1.26-.98,1.26-1.54v-1.64c-1.47,.63-3.05,1.15-4.69,1.61l-.28-.59c2.8-1.23,5.32-2.98,7-4.87h-1.09v.14c0,.28-1.54,.95-2.87,.95h-.49v-7.74l3.5,1.4h8.3l1.54-1.58,3.22,2.38c-.18,.21-.53,.42-1.02,.52v3.75c0,.07-.14,.14-.32,.24l2.28,2.03c-.21,.28-.52,.35-1.12,.11-.73,.31-1.82,.7-2.91,1.05,5.67,2.87,3.78,6.51,1.47,5.25-1.02-1.65-3.85-4.45-7.49-6.69l.25-.49c1.75,.38,3.22,.84,4.45,1.33,.63-.7,1.33-1.5,1.93-2.17-.49,.1-.98,.21-1.4,.21h-.59v-.7h-3.57c-.8,.8-1.75,1.5-2.8,2.17v1.89h-.04v1.75c1.33-.39,2.87-.81,4.38-1.26l.1,.46c-1.26,.84-3.89,2.59-6.58,4.27-.14,.21-.32,.35-.46,.46h15.05Zm-3.4-20.3s2.03,1.54,3.26,2.62c-.11,.38-.46,.56-.95,.56h-19.11l-.28-.98h8.12v-2.56h-6.3l-.28-.98h6.58v-3.08l4.66,.42c-.04,.42-.28,.7-.98,.8v1.86h2.38l1.72-2.03s1.96,1.4,3.15,2.45c-.07,.38-.42,.56-.91,.56h-6.34v2.56h3.5l1.79-2.21Zm-2.7,6.34h-8.72v3.25h8.72v-3.25Z"/>
      <path class="cls-2" d="M810.68,61.46c2.24-1.19,3.26-2.8,3.75-4.76-1.96-.77-3.47-1.68-3.47-3.43,0-1.44,1.08-2.66,2.77-2.66s2.98,1.26,2.98,3.57c0,2.94-1.44,6.58-5.43,8.4l-.59-1.12Z"/>
      <path class="cls-2" d="M46.73,97.4s2.73,2.07,4.45,3.5c-.1,.38-.49,.56-1.02,.56h-13.13v4.62h7.11l1.92-2.17,4.06,3.12c-.21,.28-.7,.59-1.4,.74v15.86c0,2.7-.7,4.27-5.5,4.73-.11-1.3-.31-2.21-.88-2.84-.59-.59-1.36-1.08-3.19-1.37v-.49s3.64,.28,4.59,.28c.6,0,.73-.28,.73-.73v-16.14H25.87v19.78c0,.46-1.79,1.44-3.54,1.44h-.67v-24.01l4.48,1.82h6.72v-4.62h-13.76l-.31-.98h14.07v-5.15l5.46,.46c-.07,.49-.35,.84-1.29,.98v3.71h7.25l2.45-3.08Zm-9.87,22.37v6.55c-.04,.17-1.23,.84-3.29,.84h-.7v-7.39h-5.99l-.28-.98h6.27v-4.24h-5.22l-.28-1.01h8.33c.6-1.82,1.23-4.31,1.58-6.09l4.62,1.33c-.14,.42-.56,.7-1.3,.66-.98,1.16-2.45,2.77-3.89,4.1h2l1.72-2.03s1.89,1.4,3.12,2.49c-.07,.38-.42,.56-.91,.56h-5.78v4.24h1.61l1.89-2.34s2.14,1.61,3.47,2.76c-.1,.39-.46,.56-.94,.56h-6.02Zm-8.02-12.11c7.95,1.79,4.34,7.63,1.33,5.04-.03-1.71-.84-3.6-1.71-4.83l.38-.21Z"/>
      <path class="cls-2" d="M81.73,122.18s2.84,2.14,4.55,3.64c-.11,.38-.49,.56-1.02,.56h-31.33l-.28-1.01h13.97v-7.95h-10.4l-.28-.98h10.68v-5.95l5.6,.46c-.07,.49-.32,.84-1.26,1.02v4.48h4.73l2.49-3.08s2.77,2.07,4.45,3.5c-.07,.38-.49,.56-1.02,.56h-10.64v7.95h7.21l2.56-3.19Zm-26.92-22.58l-.28-.98h23.94l2.49-3.04s2.77,2.07,4.45,3.46c-.11,.39-.46,.56-.98,.56h-16.42l4.24,2.13c-.17,.35-.63,.6-1.37,.49-2.31,1.75-6.34,3.89-10.01,5.39,4.24-.21,10.33-.59,16.77-1.08-1.4-1.61-3.05-3.15-4.48-4.31l.32-.28c13.83,2.87,11.83,11.73,7.46,9.38-.56-1.23-1.44-2.56-2.49-3.85-4.66,1.16-11.31,2.55-19.43,4.06-.25,.38-.56,.63-.88,.77l-1.89-4.62s.88-.14,1.29-.35c3.19-1.26,7.49-5.25,9.35-7.74h-12.08Z"/>
      <path class="cls-2" d="M95.17,100.03h-6.41l-.28-1.01h6.55l-.42-3.61,5.15,.38c-.04,.42-.32,.74-1.02,.95l.32,2.28h.95l1.86-2.63s2.17,1.82,3.43,3.08c-.1,.38-.46,.56-.95,.56h-5.18l.35,2.45c-.56,.74-2.1,1.09-3.92,1.05l-.42-3.5Zm21.46,17.43s2.52,1.93,3.99,3.29c-.11,.38-.49,.56-.98,.56h-12.71v5.92c-.04,.21-1.3,1.01-3.4,1.01h-.73v-6.93h-13.06l-.24-.98h13.3v-4.09h-4.8v.98c0,.42-1.79,1.23-3.43,1.23h-.59v-15.02l4.27,1.71h13.02l1.86-2,3.82,2.87c-.21,.25-.63,.56-1.26,.66v9.98c-.04,.31-2,1.19-3.36,1.19h-.7v-1.61h-4.69v4.09h7.49l2.2-2.87Zm-18.62-11.34v3.99h13.62v-3.99h-13.62Zm13.62,9.1v-4.13h-13.62v4.13h13.62Zm6.48-18.83s2.14,1.82,3.4,3.08c-.11,.38-.46,.56-.95,.56h-6.44l-.46,2.66c-.77,.6-2.35,.84-4.03,.49l.49-3.15h-3.96l-.28-1.01h4.38l.56-3.71,5.11,.91c-.1,.42-.42,.8-1.33,.88l-.35,1.93h1.96l1.89-2.63Z"/>
      <path class="cls-2" d="M123.59,103.84c9.28,.84,6.27,7.67,2.7,5.29-.39-1.82-1.75-3.82-2.98-5.04l.28-.25Zm10.54-2c-1.33,4.24-3.64,12.08-4.1,13.9-.28,1.16-.52,2.41-.49,3.33,.07,1.86,1.47,3.15,1.36,6.3-.07,1.79-1.23,2.91-2.87,2.91-.81,0-1.61-.49-1.85-1.82,.63-3.71,.49-7-.35-7.53-.49-.35-1.05-.53-1.82-.6v-.66h1.58c.52,0,.66,0,1.05-.73q.77-1.3,6.93-15.23l.56,.14Zm-7.88-6.06c9.7,1.01,6.51,8.12,2.8,5.53-.46-1.85-1.86-3.96-3.08-5.29l.28-.25Zm22.89,17.61c9.66,2,6.9,8.75,3.39,6.41-.25-.91-.7-1.93-1.29-2.87-1.37,.28-3.01,.59-4.83,.94v6.37c0,2.45-.56,3.78-4.69,4.1-.04-.98-.14-1.79-.52-2.28-.39-.46-.95-.84-2.35-1.05v-.46s2.45,.18,3.05,.18c.49,0,.63-.25,.63-.56v-5.6c-1.4,.25-2.84,.49-4.34,.77l3.75,2.45c-.21,.31-.56,.49-1.33,.31-2.03,1.51-5.29,3.64-8.26,5.15l-.35-.42c2.07-2.13,4.62-5.42,5.92-7.46l-2.31,.35c-.14,.25-.32,.42-.49,.53l-2-3.5s.8-.1,1.26-.25c2.87-.7,6.44-2.31,9.45-3.99-2.21,.46-4.87,.98-7.7,1.47-.18,.28-.35,.49-.6,.59l-1.79-3.22s.63-.1,.98-.21c2.59-.59,5.88-2.49,7.77-3.82h-3.82v.77c0,.25-1.19,.88-3.15,.88h-.7v-13.02l4.24,1.61h10.71l1.89-2.1,3.61,2.7c-.21,.32-.52,.56-1.3,.67v8.89c0,.17-1.3,.8-3.33,.8h-.73v-1.19h-5.6l2.56,1.79c-.21,.28-.7,.53-1.51,.21-1.68,.74-4.27,1.54-6.83,2.14,2.1-.04,4.73-.14,7.46-.25,1.26-.77,2.31-1.5,3.05-2.13l4.13,2.27c-.21,.35-.74,.63-1.61,.42-3.01,1.57-8.12,3.46-12.95,4.83,3.29-.11,7.6-.35,12.11-.56-.59-.91-1.29-1.75-1.89-2.42l.32-.25Zm-10.47-14.81v3.47h3.75v-3.47h-3.75Zm0,7.74h3.75v-3.29h-3.75v3.29Zm7.53-7.74v3.47h3.71v-3.47h-3.71Zm3.71,7.74v-3.29h-3.71v3.29h3.71Zm-2.17,13.16c11.76,2.77,8.23,9.38,5.04,7.11-.6-1.54-2.56-4.3-5.36-6.62l.31-.49Z"/>
      <path class="cls-2" d="M158.63,104.44c9.49,.42,6.79,7.53,3.12,5.29-.49-1.82-2.03-3.82-3.4-5.04l.28-.25Zm2.24,13.27c.56,0,.7,0,1.12-.7q.88-1.37,8.33-15.75l.56,.17c-1.64,4.34-4.73,12.43-5.25,14.32-.39,1.16-.66,2.38-.66,3.29,.07,1.75,1.5,2.91,1.37,5.74-.07,1.68-1.23,2.8-2.94,2.8-.84,0-1.68-.49-1.96-1.75,.63-3.43,.46-6.37-.38-6.9-.49-.32-1.09-.49-1.82-.56v-.66h1.65Zm.88-21.32c9.84,.46,7.39,7.77,3.5,5.6-.63-1.89-2.31-4.06-3.78-5.36l.28-.25Zm29.19,17.71c-.25,.32-.63,.53-1.54,.32-4.9,8.89-12.88,12.71-22.3,13.76l-.14-.46c8.16-2.45,15.33-7.6,18.97-16.49l5.01,2.87Zm-12.95-10.82c-.14,.45-.6,.73-1.37,.73-1.89,4.59-4.52,8.3-7.67,10.75l-.42-.31c1.68-3.15,3.29-8.02,4.06-12.74l5.39,1.58Zm5.57-7.32c-.07,.49-.31,.84-1.3,.98v18.1c0,.49-1.85,1.61-3.4,1.61h-.6v-21.18l5.29,.49Zm-.1,5.64c11.76,3.29,8.37,12.15,4.24,8.96-.42-3.01-2.45-6.48-4.55-8.72l.32-.25Z"/>
      <path class="cls-2" d="M222.19,121.1s2.87,2.17,4.59,3.64c-.1,.38-.49,.56-1.01,.56h-31.96l-.28-.98h6.06v-25.45l4.69,1.5c5.36-1.26,11.34-3.22,14.56-4.79l4.34,4.24c-.42,.35-1.26,.42-2.42-.07-4.34,.84-10.96,1.51-16.98,1.65v7.67h14l2.42-3.12s2.73,2.1,4.38,3.54c-.07,.38-.46,.56-.98,.56h-7.42v14.28h3.54l2.48-3.22Zm-18.41,3.22h8.12v-14.28h-8.12v14.28Z"/>
      <path class="cls-2" d="M259.81,123.02c1.26,.46,1.65,.91,1.65,1.61,0,1.86-1.82,2.45-9.49,2.45h-4.83c-4.17,0-5.6-.7-5.6-3.92v-12.99l-3.01,1.33-.7-.77,3.71-1.61v-2.8c-.17,.14-.42,.21-.7,.21h-4.45v10.85c1.54-.42,3.15-.84,4.76-1.3l.11,.39c-2.03,1.54-5.15,3.78-9.8,6.54-.14,.46-.49,.84-.91,.98l-2.31-4.69c.91-.17,2.42-.53,4.24-.95v-11.83h-3.82l-.28-1.01h4.1v-9.35l5.22,.46c-.07,.49-.31,.88-1.29,1.02v7.88h.77l1.68-2.8s1.64,1.71,2.7,3.01v-5.32l5.08,.56c-.04,.42-.39,.8-1.23,.91v5.57l2.98-1.29v-10.78l5.08,.49c-.07,.49-.35,.84-1.3,.98v7.67l3.54-1.58,1.79-1.82,3.36,3.5c-.28,.31-.63,.42-1.4,.49-.88,3.99-2.59,9.8-4.73,13.62l-.42-.25c.67-4.34,1.19-10.29,1.3-14.35l-3.43,1.47v13.97c0,.38-1.65,1.12-3.08,1.12h-.7v-13.44l-2.98,1.33v13.62c0,1.02,.46,1.33,2.21,1.33h4.69c1.82,0,3.26-.04,3.96-.1,.56-.04,.91-.18,1.23-.53,.46-.67,1.05-2.42,1.82-4.83h.38l.14,4.97Z"/>
      <path class="cls-2" d="M292.68,98.91s2.1,1.61,3.43,2.8c-.07,.38-.46,.56-.94,.56h-4.27v4.34c-.04,.1-.77,.56-2.07,.73l3.08,2.31c-.21,.25-.63,.53-1.26,.66v11.31c-.04,.25-2.1,1.01-3.43,1.01h-.7v-1.47h-12.6v.94c0,.39-1.75,1.3-3.43,1.3h-.6v-16.38l4.31,1.71h11.97l1.26-1.33h-.35v-5.15h-2.56c-.35,2.07-1.75,4.52-6.51,5.92l-.25-.46c2.52-1.79,3.15-3.96,3.26-5.92-.14,.32-.46,.45-.91,.45h-3.54v4.45c-.04,.17-1.12,.81-3.01,.81h-.66v-5.25h-2.66c-.24,2.31-1.4,5.25-6.16,6.93l-.28-.46c2.7-2.31,2.94-5.25,2.94-7.63v-4.2l3.96,1.16c2.24-.88,4.62-1.96,5.99-2.73l3.18,3.25c-.42,.32-1.08,.28-2-.1-1.89,.28-4.83,.59-7.56,.7v2.07h5.64l1.82-2.21s2,1.51,3.26,2.63c.04-.32,.04-.6,.04-.91v-3.89l3.68,1.02c2.38-.81,4.87-1.86,6.3-2.56l3.22,3.29c-.42,.35-1.16,.32-2-.1-1.96,.28-4.87,.52-7.6,.67v2.07h6.09l1.93-2.35Zm-28.18,28.84c4.41-1.3,9.31-3.88,11.62-5.95l4.31,3.15c-.35,.35-1.02,.45-2.07,.17-3.26,1.5-8.72,2.73-13.72,3.12l-.14-.49Zm9.42-18.03v2.76h12.6v-2.76h-12.6Zm0,3.75v2.84h12.6v-2.84h-12.6Zm12.6,6.76v-2.91h-12.6v2.91h12.6Zm-5.01,2.59c19.6,.18,12.29,7.49,8.58,4.73-1.61-1.33-4.52-3.08-8.68-4.27l.11-.46Z"/>
      <path class="cls-2" d="M313.36,99.54c-.18,.42-.63,.7-1.47,.63-3.08,6.69-7.42,11.13-12.71,14l-.35-.32c3.54-3.71,7.07-9.87,8.86-16.45l5.67,2.13Zm6.13,15.09c13.48,6.09,9.77,16.66,5.04,12.67-.17-1.4-.52-2.87-1.05-4.34-4.59,1.37-10.89,2.94-18.62,4.38-.35,.49-.77,.81-1.23,.95l-1.75-5.36s1.05-.25,1.47-.6c2.77-2.52,6.93-10.29,8.12-14.7l5.95,2.28c-.18,.38-.6,.7-1.37,.66-2.35,3.92-7.04,9.28-11.06,12.53,4.41-.14,11.2-.56,18.06-1.19-1.05-2.55-2.49-5.04-3.95-7.07l.38-.21Zm3.29-17.08c-.45,.56-1.68,.84-3.12,.95,1.57,5.01,5.78,9.38,11.66,11.45l-.07,.42c-1.79,.63-3.22,2.28-3.71,3.99-4.94-3.5-7.67-9-8.79-16.14h-4.06l-.31-.98h3.43l1.37-2.17,3.61,2.49Z"/>
      <path class="cls-2" d="M365.86,98.87c-.25,.32-.74,.6-1.44,.77v27.06c-.03,.32-1.96,1.33-3.5,1.33h-.63v-2.66h-20.93v1.33c0,.53-1.61,1.54-3.36,1.54h-.7v-32.1l4.41,1.82h20.23l2-2.24,3.92,3.15Zm-5.57,25.52v-25.45h-20.93v25.45h5.71l-1.79-2.7c1.08-.7,1.26-.98,1.26-1.54v-1.64c-1.47,.63-3.05,1.15-4.69,1.61l-.28-.59c2.8-1.23,5.32-2.98,7-4.87h-1.09v.14c0,.28-1.54,.95-2.87,.95h-.49v-7.74l3.5,1.4h8.3l1.54-1.58,3.22,2.38c-.18,.21-.53,.42-1.02,.52v3.75c0,.07-.14,.14-.32,.24l2.28,2.03c-.21,.28-.52,.35-1.12,.11-.73,.31-1.82,.7-2.91,1.05,5.67,2.87,3.78,6.51,1.47,5.25-1.02-1.65-3.85-4.45-7.49-6.69l.25-.49c1.75,.38,3.22,.84,4.45,1.33,.63-.7,1.33-1.5,1.93-2.17-.49,.1-.98,.21-1.4,.21h-.59v-.7h-3.57c-.8,.8-1.75,1.5-2.8,2.17v1.89h-.04v1.75c1.33-.39,2.87-.81,4.38-1.26l.1,.46c-1.26,.84-3.89,2.59-6.58,4.27-.14,.21-.32,.35-.46,.46h15.05Zm-3.4-20.3s2.03,1.54,3.26,2.62c-.11,.38-.46,.56-.95,.56h-19.11l-.28-.98h8.12v-2.56h-6.3l-.28-.98h6.58v-3.08l4.66,.42c-.04,.42-.28,.7-.98,.8v1.86h2.38l1.72-2.03s1.96,1.4,3.15,2.45c-.07,.38-.42,.56-.91,.56h-6.34v2.56h3.5l1.79-2.2Zm-2.7,6.34h-8.72v3.25h8.72v-3.25Z"/>
      <path class="cls-2" d="M370.9,107.76c3.82,.88,7.18,2.66,8.44,4.8,.49,.8,.7,1.82,.49,2.66-.17,.77-.77,1.51-1.85,1.51-.84,0-1.51-.42-2-1.58-.88-1.96-2.63-4.59-5.36-6.93l.28-.45Z"/>
      <path class="cls-2" d="M404.05,106.96c1.23,6.48,5.29,12.92,15.09,16.87l-.07,.38c-2.14,.38-3.39,1.68-3.78,4.06-8.16-4.97-10.78-13.48-11.73-20.48-1.05,8.33-4.55,15.47-17.26,20.48l-.31-.53c9.73-5.88,12.46-12.81,13.23-20.79h-12.64l-.28-1.01h12.99c.25-3.29,.21-6.79,.21-10.43l5.88,.56c-.1,.52-.42,.88-1.26,1.01-.07,3.05-.1,6.02-.35,8.86h7.88l2.59-3.19s2.84,2.13,4.59,3.64c-.11,.38-.49,.56-1.01,.56h-13.76Z"/>
      <path class="cls-2" d="M421.27,103.32c8.68,1.3,5.32,7.67,2.07,5.15-.18-1.75-1.3-3.67-2.38-4.9l.31-.25Zm9.45-1.82c-1.23,4.27-3.33,12.25-3.71,14.14-.28,1.16-.49,2.42-.49,3.29,.07,1.85,1.47,3.18,1.37,6.37-.07,1.75-1.16,2.87-2.8,2.87-.77,0-1.54-.49-1.79-1.82,.67-3.68,.49-6.97-.31-7.53-.49-.35-1.05-.49-1.79-.56v-.67h1.54c.49,0,.63-.04,.98-.74q.67-1.33,6.44-15.54l.56,.17Zm-7.63-5.57c9.17,1.19,6.06,7.77,2.56,5.43-.38-1.86-1.68-3.89-2.84-5.22l.28-.21Zm27.37,23.1s2.45,1.82,3.92,3.12c-.07,.39-.46,.56-.95,.56h-9.91v4.69c-.03,.17-1.23,.8-3.19,.8h-.7v-5.5h-9.73l-.28-1.02h10.01v-3.4h-3.36v.77c0,.35-1.72,1.16-3.26,1.16h-.56v-10.99c-.25,.04-.46,.07-.7,.07h-.52v-9.24l3.92,1.54h2v-2.73h-6.51l-.28-1.01h17.61l2.14-2.59s2.35,1.79,3.82,3.05c-.11,.38-.49,.56-.98,.56h-7.11v2.73h2.1l1.75-1.89,3.75,2.8c-.21,.28-.7,.59-1.43,.74v4.52c-.04,.21-1.72,.77-2.87,.84l3.01,2.24c-.21,.28-.67,.56-1.33,.7v7.11c-.03,.25-1.92,.95-3.19,.95h-.67v-1.3h-3.43v3.4h4.76l2.17-2.66Zm-15.58-10.85c0,.17-.42,.45-1.05,.7l2.7,1.09h10.08l1.68-1.82v-.66h-13.41v.7Zm0-5.57v3.85h2.27v-3.85h-2.27Zm12.08,8.33h-10.68v2.7h10.68v-2.7Zm-10.68,6.37h10.68v-2.7h-10.68v2.7Zm4.03-15.72h2.35v-2.73h-2.35v2.73Zm2.35,4.87v-3.85h-2.35v3.85h2.35Zm3.19-3.85v3.85h2.45v-3.85h-2.45Z"/>
      <path class="cls-2" d="M455.95,103.95c9.1,1.12,5.78,7.77,2.28,5.21-.28-1.75-1.47-3.71-2.56-4.97l.28-.24Zm9.42-3.12c-1.08,4.52-3.08,12.81-3.43,14.77-.21,1.16-.42,2.42-.38,3.36,.07,1.89,1.47,3.18,1.37,6.37-.07,1.71-1.16,2.87-2.77,2.87-.8,0-1.58-.49-1.82-1.82,.66-3.64,.49-6.97-.32-7.53-.49-.35-1.02-.49-1.75-.56v-.67h1.51c.49,0,.63,0,.98-.73q.6-1.33,6.02-16.21l.6,.14Zm-7.25-5.18c9.45,1.12,6.06,8.02,2.42,5.42-.35-1.89-1.61-3.88-2.7-5.18l.28-.24Zm10.22,16.84c-1.61,.28-3.26,.53-4.87,.7l-.14-.52c1.64-.39,3.36-.84,5.01-1.37v-1.93c-1.26,.46-2.62,.88-3.96,1.16l-.25-.46c2.56-1.37,5.15-3.78,6.3-5.53l4.1,2.13c-.21,.42-.77,.56-1.75,.42-.95,.7-2.28,1.37-3.78,2l2.66,1.05c1.09-.42,2.14-.88,3.15-1.33v-4.69h-5.5l-.21-.77c-1.43,2.1-5.11,.38-2.87-2.34,1.05-.42,1.96-1.54,2.17-3.15h.46c.24,.66,.42,1.26,.56,1.82h6.83c-.31-.11-.6-.25-.91-.49-.04-1.44-.81-3.08-1.61-3.96l.28-.21c6.34,.35,5.85,3.92,3.75,4.66h6.06l1.93-1.93,3.33,3.22c-.28,.28-.63,.35-1.33,.38-.77,.56-2.03,1.44-3.05,2.03l.21,.17c-.11,.39-.46,.56-.95,.56h-1.33l3.89,2.66c-.31,.38-.91,.49-2,.25-2.17,1.26-5.01,2.45-8.12,3.46h5.29l1.89-2.1,3.64,2.7c-.25,.31-.6,.52-1.37,.67v9.94c0,.21-1.29,.88-3.33,.88h-.7v-.91h-9.63v.74c0,.25-1.19,.91-3.19,.91h-.67v-10.82Zm-4.1,15.05c3.64-1.29,7.39-3.78,9.14-5.78l4.17,2.98c-.28,.35-.91,.46-1.93,.21-2.62,1.4-6.9,2.66-11.24,3.08l-.14-.49Zm15.61-24.4l1.75-2.24s1.19,.91,2.31,1.82l.21-2.07h-14.53c.1,1.12-.04,1.89-.35,2.49h10.61Zm-6.86,8.33c-.28,.07-.53,.14-.81,.21v2.2h9.63v-2.41h-8.82Zm-.81,5.78h9.63v-2.34h-9.63v2.34Zm9.63,3.4v-2.38h-9.63v2.38h9.63Zm-4.24,2.03c16.03,.66,9.59,7.39,6.51,4.66-1.16-1.4-3.29-3.04-6.65-4.16l.14-.49Zm.94-15.72c1.61-.95,3.01-1.89,4.06-2.84h-4.06v2.84Z"/>
      <path class="cls-2" d="M491.06,103.88c9,.67,5.85,7.25,2.35,4.87-.31-1.65-1.54-3.5-2.62-4.62l.28-.25Zm10.08-2.73c-1.19,4.45-3.36,12.57-3.78,14.53-.25,1.19-.49,2.41-.46,3.33,.03,1.89,1.44,3.19,1.33,6.34-.04,1.75-1.16,2.94-2.84,2.94-.77,0-1.58-.49-1.82-1.86,.67-3.64,.49-6.97-.31-7.49-.49-.35-1.05-.49-1.82-.56v-.7h1.58c.49,0,.63,0,.98-.73q.7-1.33,6.62-15.89l.52,.1Zm-7.6-5.39c9.49,.88,6.27,7.81,2.59,5.32-.39-1.85-1.72-3.85-2.87-5.11l.28-.21Zm26.43,18.03c-.14,2.91-.31,5.18-.56,7l1.54-2.52s1.82,1.79,2.84,2.97c-.11,.39-.46,.56-.91,.56h-3.64c-.42,2.62-1.02,4.1-1.86,4.94-1.16,1.19-2.7,1.5-4.52,1.5,.04-1.05-.07-1.82-.52-2.31-.42-.59-1.29-.98-2.56-1.26l.04-.53c1.09,.14,2.69,.21,3.39,.21,.56,0,.91-.1,1.23-.42,.35-.31,.67-1.01,.91-2.13h-10.12l-1.44,1.75-3.68-2.21c.32-.25,.77-.56,1.23-.81,.35-1.79,.77-4.16,1.12-6.75h-3.43l-.28-.98h3.85c.35-2.49,.66-5.04,.88-7.25-1.12,1.23-2.35,2.31-3.68,3.19l-.35-.28c2.41-3.12,4.45-8.58,5.29-12.99l5.5,1.51c-.14,.38-.42,.56-1.3,.42-.38,.88-.84,1.75-1.36,2.62h10.22l2.14-2.87s2.42,1.96,3.82,3.29c-.07,.38-.46,.56-.94,.56h-15.82c-.45,.77-.98,1.5-1.51,2.21l2.84,1.37h7.84l2.03-2.1,3.57,3.08c-.28,.28-.73,.53-1.54,.63-.07,2.42-.1,4.51-.21,6.44l1.57-2.59s1.89,1.93,2.87,3.19c-.07,.38-.42,.56-.91,.56h-3.57Zm-4.41,7c.28-1.68,.49-3.95,.67-7h-9.98c-.38,2.55-.77,5.04-1.12,7h10.43Zm-8.19-15.23c-.24,1.96-.59,4.55-.98,7.25h9.87c.11-2.1,.17-4.48,.25-7.25h-9.14Zm1.19,8.86c7.77,1.79,4.76,7.28,1.96,5.04-.17-1.64-1.26-3.61-2.27-4.83l.31-.21Zm.49-7.67c7.49,1.54,4.87,6.72,2.07,4.76-.31-1.54-1.47-3.4-2.41-4.55l.35-.21Z"/>
      <path class="cls-2" d="M554.97,106.68s2.35,1.82,3.75,3.08c-.1,.38-.45,.56-.98,.56h-31.08l-.28-.98h14.91c-.25-1.09-1.19-2.27-2-2.84l.25-.25c5.39-.91,5.53,2.1,3.95,3.08h9.42l2.07-2.66Zm-10.43,11.9v5.08c0,2.66-.66,4.27-5.11,4.62-.04-1.19-.18-2.1-.67-2.62-.39-.53-1.05-1.02-2.7-1.23v-.49s3.01,.21,3.71,.21c.49,0,.63-.21,.63-.56v-5.01h-3.64v.42c0,.25-.88,.7-1.92,.98l3.85,1.79c-.1,.35-.42,.56-1.26,.46-2.21,2.21-6.34,4.34-10.47,5.25l-.25-.42c2.73-1.71,5.36-4.51,6.79-6.83h-.88v-9.24l4.34,1.68h10.89l1.89-2.07,4.06,3.04c-.21,.25-.7,.56-1.4,.7v4.59c-.04,.25-2.17,.91-3.47,.91h-.74v-1.26h-3.68Zm-8.68-11.62c0,.38-1.82,1.19-3.47,1.19h-.59v-12.32l4.31,1.71h12.74l1.89-2.07,4.03,2.98c-.25,.28-.7,.63-1.43,.77v7.35c-.04,.21-2.1,.91-3.43,.91h-.7v-1.44h-13.34v.91Zm0-8.44v2.73h13.34v-2.73h-13.34Zm13.34,6.51v-2.77h-13.34v2.77h13.34Zm-12.43,12.57h11.45v-3.92h-11.45v3.92Zm9.8,2.87c13.76,.42,10.61,8.96,6.58,6.79-.84-1.64-3.29-4.38-6.72-6.33l.14-.46Z"/>
      <path class="cls-2" d="M593.29,123.76c.84,.42,.95,.84,.95,1.5,0,1.37-1.12,2.14-4.13,2.14h-1.51c-2.45,0-2.73-.77-2.73-2.98v-8.61h-1.12c-.21,6.09-1.96,9.87-8.02,12.22l-.17-.45c1.02-.74,1.79-1.47,2.42-2.28-.14,.07-.32,.11-.52,.11h-11.59v1.16c0,.24-1.05,1.05-2.84,1.05h-.59v-10.43c-.7,.7-1.4,1.3-2.14,1.82l-.46-.28c1.37-2.21,2.77-5.53,3.61-8.93-.39,.21-.98,.42-1.75,.42l-.42-.04v-7.98l3.15,1.26h1.08l1.26-1.33,2.73,2.03c-.18,.21-.56,.45-1.05,.52v4.31c0,.21-1.37,.77-2.24,.77h-.45v-1.16h-1.79v.73s-.04,.07-.07,.14l3.92,1.37c-.18,.38-.6,.7-1.37,.67-.21,.45-.46,.88-.7,1.33l.6,.21h6.97l1.65-2s1.82,1.4,2.98,2.45c-.1,.38-.42,.56-.91,.56h-4.83v2.7h.88l1.54-1.89s1.72,1.29,2.84,2.31c-.1,.39-.46,.56-.91,.56h-4.34v2.84h.88l1.58-1.92s1.71,1.37,2.8,2.34c-.1,.39-.42,.56-.91,.56h-4.34v2.87h1.36l1.72-2.1s1.85,1.4,3.05,2.49c1.5-2.1,1.85-4.58,1.89-7.6-.35,.07-.73,.11-1.19,.11h-.63v-17.68h-4.62v1.64c0,.25-1.61,.81-2.94,.81h-.63v-6.86l4.59,.42c-.03,.38-.28,.66-1.02,.77v2.24h1.19l1.44-2.03s1.05,.91,2,1.75v-2.52l4.03,1.54h4.45l1.85-2.14,3.5,2.77c-.25,.32-.6,.56-1.4,.7v17.05c0,.14-.94,.77-2.42,.91v6.79c0,.39,.07,.53,.46,.53h1.23c.21-.04,.31-.07,.46-.38,.28-.49,.73-2.21,1.26-4.03h.38l.11,4.17Zm-32.31-25.1h4.48v-3.43l4.55,.42c-.07,.38-.31,.7-1.05,.8v4.97c0,.25-1.58,.77-2.87,.77h-.63v-2.55h-4.2l-.28-.98Zm3.99,5.78v3.19h1.79v-3.19h-1.79Zm1.89,9.63v2.7h2.98v-2.7h-2.98Zm2.98,3.68h-2.98v2.84h2.98v-2.84Zm-2.98,6.69h2.98v-2.87h-2.98v2.87Zm2.8-15.19c.39,.07,.77,.14,1.09,.21v-7.28l3.15,1.3h1.05l1.29-1.33,2.77,2.06c-.14,.21-.56,.42-1.05,.49v4.13c-.04,.25-1.4,.8-2.28,.8h-.45v-1.01h-1.79v.38c0,.17-.63,.67-1.64,.8,3.47,1.47,.56,4.52-1.58,2.63,0-1.09-.49-2.31-.91-3.05l.35-.14Zm3.78-4.8v3.19h1.79v-3.19h-1.79Zm9.56-6.02v5.22h5.04v-5.22h-5.04Zm5.04,10.75v-4.55h-5.04v4.55h5.04Zm-5.04,1.02v4.62h5.04v-4.62h-5.04Z"/>
      <path class="cls-2" d="M600.68,115.88c2.24-1.19,3.26-2.8,3.75-4.76-1.96-.77-3.47-1.68-3.47-3.43,0-1.44,1.08-2.66,2.77-2.66s2.98,1.26,2.98,3.57c0,2.94-1.44,6.58-5.43,8.4l-.59-1.12Z"/>
      <path class="cls-2" d="M616.95,118.33c1.36,3.64,1.12,6.37,.11,7.74-.77,.95-2.63,.98-3.26-.25-.52-1.05-.04-2.14,.94-2.8,.84-.84,1.89-2.97,1.68-4.69h.53Zm-3.19-4.52s.88-.21,1.23-.46c1.65-1.22,3.64-3.64,5.36-6.12-1.19,.49-2.52,1.01-3.96,1.54-.25,.38-.56,.63-.88,.77l-1.75-4.2s.74-.17,1.05-.38c1.75-1.75,4.03-6.79,4.69-9.49l4.69,2.38c-.14,.31-.56,.56-1.16,.49-1.54,2.24-4.27,5.21-6.69,7.18,1.44,0,3.22,0,5.11-.04,.77-1.3,1.44-2.56,1.82-3.54l4.24,2.91c-.17,.28-.66,.49-1.37,.35-1.96,2.52-5.78,6.16-9.21,8.58,1.82-.11,4.2-.28,6.62-.42-.32-1.19-.81-2.34-1.26-3.18l.38-.21c7.25,3.25,4.03,8.72,1.37,6.2,0-.59-.11-1.19-.25-1.82-1.92,.84-4.62,1.93-7.63,2.98-.28,.38-.63,.63-.95,.7l-1.47-4.2Zm6.06,3.99c5.92,4.48,2,9.59-.31,6.62,.42-2.13,.21-4.69-.14-6.51l.46-.1Zm3.47-.6c7.21,2.91,3.96,8.51,1.3,6.02,.03-1.96-.81-4.34-1.68-5.81l.38-.21Zm14.81-13.83v6.27h2.31l2.03-2.62s2.28,1.79,3.68,3.04c-.11,.38-.46,.56-.94,.56h-17.19l-.28-.98h6.41v-6.27h-6.86l-.28-.98h7.14v-6.83l5.29,.46c-.07,.49-.35,.84-1.29,.98v5.39h2.73l2.1-2.66s2.35,1.82,3.75,3.08c-.07,.38-.46,.56-.94,.56h-7.63Zm3.82,9.17l3.61,2.73c-.25,.31-.56,.53-1.37,.67v11.2c0,.21-1.26,.91-3.29,.91h-.7v-2.77h-7.39v2.07c0,.28-1.19,.95-3.12,.95h-.7v-15.26l4.24,1.61h6.83l1.89-2.1Zm-1.75,11.73v-8.61h-7.39v8.61h7.39Z"/>
      <path class="cls-2" d="M668.47,96.77c-.14,.46-.6,.67-1.72,.77,3.12,4.31,9.42,6.79,14.81,8.26l-.03,.56c-1.79,.49-2.91,2.24-3.22,3.78-5.32-2.62-9.98-6.69-12.11-12.18-3.33,5.32-10.5,10.85-17.54,13.55l-.21-.42c6.02-3.68,12.39-10.82,13.86-15.86l6.16,1.54Zm4.59,16.07l4.2,3.22c-.25,.28-.74,.63-1.47,.77v10.05c-.04,.25-2.21,.98-3.64,.98h-.73v-2.56h-12.74v1.58c0,.38-1.89,1.33-3.68,1.33h-.63v-14.95l4.59,1.82h12.11l2-2.24Zm-3.89-6.93s2.59,2.03,4.17,3.46c-.1,.39-.46,.56-.98,.56h-15.26l-.28-1.02h10.05l2.31-3.01Zm2.24,18.38v-8.19h-12.74v8.19h12.74Z"/>
      <path class="cls-2" d="M704.21,100.62c14.21,3.64,11.8,13.13,7.32,10.4-.42-1.19-1.12-2.49-1.96-3.75-5.15,1.05-12.64,2.31-21.74,3.61-.31,.38-.66,.63-1.05,.73l-1.4-4.73s.98-.17,1.4-.42c3.61-1.92,8.82-7.81,10.47-11.17l5.71,2.28c-.14,.38-.6,.66-1.4,.59-2.7,2.84-7.77,6.41-12.25,8.75,4.69-.07,12.01-.28,19.64-.56-1.5-2.07-3.33-4.03-5.04-5.5l.32-.25Zm4.17,10.89l4.31,3.33c-.25,.32-.77,.67-1.61,.84v11.27c-.03,.21-2.21,.98-3.64,.98h-.7v-2.94h-13.37v1.79c0,.42-1.93,1.4-3.71,1.4h-.63v-16.14l4.59,1.79h12.71l2.06-2.31Zm-1.64,12.5v-9.17h-13.37v9.17h13.37Z"/>
      <path class="cls-2" d="M743.76,121.83l2.66-3.5s2.98,2.35,4.8,3.96c-.1,.38-.52,.56-1.02,.56h-31.01l-.28-1.01h24.85Zm-3.36-19.67l2.59-3.43s2.94,2.31,4.69,3.85c-.1,.38-.52,.56-1.02,.56h-24.08l-.28-.98h18.1Z"/>
      <path class="cls-2" d="M756.81,117.91c1.33,3.61,1.12,6.3,.1,7.7-.7,.95-2.52,.98-3.15-.21-.56-1.05-.04-2.1,.91-2.77,.81-.84,1.82-2.98,1.61-4.73h.52Zm29.33-2.87c-.21,.25-.7,.46-1.37,.17-.94,.6-2.7,1.54-4.27,2.28,1.79,2.31,4.06,3.78,6.2,4.76l-.1,.38c-1.44,.35-2.52,1.68-2.98,3.47-3.05-3.01-4.94-6.51-6.06-12.57v10.26c0,2.45-.6,4.1-4.69,4.45-.03-1.09-.17-1.96-.63-2.49-.46-.52-1.12-.95-2.7-1.19v-.49s3.01,.25,3.68,.25c.53,0,.66-.25,.66-.63v-8.37h-.07c-1.37,4.52-4.38,8.79-9.66,11.34l-.28-.46c3.47-2.8,5.46-7.04,6.34-11.27h-3.92l-.03-.14c-.07,1.54-1.58,2.41-2.91,1.16-.04-.49-.11-1.02-.21-1.54-1.79,.74-4.24,1.71-6.86,2.66-.28,.35-.63,.59-.98,.7l-1.36-4.1s.84-.17,1.19-.42c1.54-1.23,3.4-3.64,4.9-6.13-1.05,.46-2.24,.95-3.5,1.44-.28,.49-.63,.8-.98,.95l-1.68-4.13s.74-.17,1.02-.38c1.72-1.79,3.92-6.76,4.55-9.45l4.69,2.28c-.14,.31-.56,.56-1.26,.49-1.51,2.24-4.1,5.18-6.41,7.14,1.33,.04,2.91,.04,4.59,0,.7-1.26,1.26-2.42,1.64-3.36l4.13,2.8c-.18,.28-.67,.53-1.33,.35-1.85,2.52-5.43,6.09-8.65,8.47,1.68-.07,3.82-.21,6.06-.38-.39-1.23-.88-2.38-1.37-3.33l.42-.18c2.63,1.26,3.85,2.8,4.17,4.1h3.92l1.86-1.86,2,1.72v-3.26h-2.59v.74c0,.25-1.09,.88-2.91,.88h-.63v-13.79l3.92,1.5h1.37c.17-1.33,.35-3.36,.45-4.69l5.6,.84c-.11,.56-.56,.84-1.37,.91-.81,.8-2.21,2.03-3.22,2.94h5.29l1.71-2,3.43,2.59c-.25,.32-.6,.53-1.33,.67v9.59c0,.21-1.19,.88-3.05,.88h-.63v-1.05h-2.38v1.08c.56,2,1.36,3.68,2.31,5.08,.91-1.61,1.93-3.68,2.38-4.8l3.89,3.15Zm-26.57,2.45c5.81,4.38,1.96,9.45-.28,6.58,.46-2.14,.25-4.66-.21-6.48l.49-.11Zm3.22-.56c6.69,2.42,3.64,7.42,1.19,5.18,0-1.68-.77-3.71-1.58-5l.38-.17Zm8.51-16.07v3.82h8.65v-3.82h-8.65Zm8.65,8.68v-3.85h-8.65v3.85h8.65Z"/>
      <path class="cls-2" d="M788.45,103.95c9.1,1.12,5.78,7.77,2.28,5.21-.28-1.75-1.47-3.71-2.56-4.97l.28-.24Zm9.42-3.12c-1.08,4.52-3.08,12.81-3.43,14.77-.21,1.16-.42,2.42-.38,3.36,.07,1.89,1.47,3.18,1.37,6.37-.07,1.71-1.16,2.87-2.77,2.87-.8,0-1.58-.49-1.82-1.82,.66-3.64,.49-6.97-.32-7.53-.49-.35-1.02-.49-1.75-.56v-.67h1.51c.49,0,.63,0,.98-.73q.6-1.33,6.02-16.21l.6,.14Zm-7.25-5.18c9.45,1.12,6.06,8.02,2.42,5.42-.35-1.89-1.61-3.88-2.7-5.18l.28-.24Zm10.22,16.84c-1.61,.28-3.26,.53-4.87,.7l-.14-.52c1.64-.39,3.36-.84,5.01-1.37v-1.93c-1.26,.46-2.62,.88-3.96,1.16l-.25-.46c2.56-1.37,5.15-3.78,6.3-5.53l4.1,2.13c-.21,.42-.77,.56-1.75,.42-.95,.7-2.28,1.37-3.78,2l2.66,1.05c1.09-.42,2.14-.88,3.15-1.33v-4.69h-5.5l-.21-.77c-1.43,2.1-5.11,.38-2.87-2.34,1.05-.42,1.96-1.54,2.17-3.15h.46c.24,.66,.42,1.26,.56,1.82h6.83c-.31-.11-.6-.25-.91-.49-.04-1.44-.81-3.08-1.61-3.96l.28-.21c6.34,.35,5.85,3.92,3.75,4.66h6.06l1.93-1.93,3.33,3.22c-.28,.28-.63,.35-1.33,.38-.77,.56-2.03,1.44-3.05,2.03l.21,.17c-.11,.39-.46,.56-.95,.56h-1.33l3.89,2.66c-.31,.38-.91,.49-2,.25-2.17,1.26-5.01,2.45-8.12,3.46h5.29l1.89-2.1,3.64,2.7c-.25,.31-.6,.52-1.37,.67v9.94c0,.21-1.29,.88-3.33,.88h-.7v-.91h-9.63v.74c0,.25-1.19,.91-3.19,.91h-.67v-10.82Zm-4.1,15.05c3.64-1.29,7.39-3.78,9.14-5.78l4.17,2.98c-.28,.35-.91,.46-1.93,.21-2.62,1.4-6.9,2.66-11.24,3.08l-.14-.49Zm15.61-24.4l1.75-2.24s1.19,.91,2.31,1.82l.21-2.07h-14.53c.1,1.12-.04,1.89-.35,2.49h10.61Zm-6.86,8.33c-.28,.07-.53,.14-.81,.21v2.2h9.63v-2.41h-8.82Zm-.81,5.78h9.63v-2.34h-9.63v2.34Zm9.63,3.4v-2.38h-9.63v2.38h9.63Zm-4.24,2.03c16.03,.66,9.59,7.39,6.51,4.66-1.16-1.4-3.29-3.04-6.65-4.16l.14-.49Zm.94-15.72c1.61-.95,3.01-1.89,4.06-2.84h-4.06v2.84Z"/>
      <path class="cls-2" d="M18.56,158.3c9,.67,5.85,7.25,2.35,4.87-.31-1.65-1.54-3.5-2.62-4.62l.28-.25Zm10.08-2.73c-1.19,4.45-3.36,12.57-3.78,14.53-.25,1.19-.49,2.42-.46,3.33,.03,1.89,1.44,3.19,1.33,6.34-.04,1.75-1.16,2.94-2.84,2.94-.77,0-1.58-.49-1.82-1.86,.67-3.64,.49-6.97-.31-7.49-.49-.35-1.05-.49-1.82-.56v-.7h1.58c.49,0,.63,0,.98-.73q.7-1.33,6.62-15.89l.52,.1Zm-7.6-5.39c9.49,.88,6.27,7.81,2.59,5.32-.39-1.85-1.72-3.85-2.87-5.11l.28-.21Zm26.43,18.03c-.14,2.91-.31,5.18-.56,7l1.54-2.52s1.82,1.79,2.84,2.97c-.11,.39-.46,.56-.91,.56h-3.64c-.42,2.62-1.02,4.1-1.86,4.94-1.16,1.19-2.7,1.5-4.52,1.5,.04-1.05-.07-1.82-.52-2.31-.42-.59-1.29-.98-2.56-1.26l.04-.53c1.09,.14,2.69,.21,3.39,.21,.56,0,.91-.1,1.23-.42,.35-.31,.67-1.01,.91-2.13h-10.12l-1.44,1.75-3.68-2.21c.32-.25,.77-.56,1.23-.81,.35-1.79,.77-4.16,1.12-6.75h-3.43l-.28-.98h3.85c.35-2.49,.66-5.04,.88-7.25-1.12,1.23-2.35,2.31-3.68,3.19l-.35-.28c2.41-3.12,4.45-8.58,5.29-12.99l5.5,1.51c-.14,.38-.42,.56-1.3,.42-.38,.88-.84,1.75-1.36,2.62h10.22l2.14-2.87s2.42,1.96,3.82,3.29c-.07,.38-.46,.56-.94,.56h-15.82c-.45,.77-.98,1.5-1.51,2.21l2.84,1.37h7.84l2.03-2.1,3.57,3.08c-.28,.28-.73,.53-1.54,.63-.07,2.41-.1,4.51-.21,6.44l1.57-2.59s1.89,1.93,2.87,3.19c-.07,.38-.42,.56-.91,.56h-3.57Zm-4.41,7c.28-1.68,.49-3.96,.67-7h-9.98c-.38,2.55-.77,5.04-1.12,7h10.43Zm-8.19-15.23c-.24,1.96-.59,4.55-.98,7.25h9.87c.11-2.1,.17-4.48,.25-7.25h-9.14Zm1.19,8.86c7.77,1.79,4.76,7.28,1.96,5.04-.17-1.64-1.26-3.61-2.27-4.83l.31-.21Zm.49-7.67c7.49,1.54,4.87,6.72,2.07,4.76-.31-1.54-1.47-3.4-2.41-4.55l.35-.21Z"/>
      <path class="cls-2" d="M68.36,153.96c-.18,.42-.63,.7-1.47,.63-3.08,6.69-7.42,11.13-12.71,14l-.35-.32c3.54-3.71,7.07-9.87,8.86-16.45l5.67,2.13Zm6.13,15.09c13.48,6.09,9.77,16.66,5.04,12.67-.17-1.4-.52-2.87-1.05-4.34-4.59,1.37-10.89,2.94-18.62,4.38-.35,.49-.77,.81-1.23,.95l-1.75-5.36s1.05-.25,1.47-.6c2.77-2.52,6.93-10.29,8.12-14.7l5.95,2.28c-.18,.38-.6,.7-1.37,.67-2.35,3.92-7.04,9.28-11.06,12.53,4.41-.14,11.2-.56,18.06-1.19-1.05-2.55-2.49-5.04-3.95-7.07l.38-.21Zm3.29-17.08c-.45,.56-1.68,.84-3.12,.95,1.57,5.01,5.78,9.38,11.66,11.45l-.07,.42c-1.79,.63-3.22,2.28-3.71,3.99-4.94-3.5-7.67-9-8.79-16.14h-4.06l-.31-.98h3.43l1.37-2.17,3.61,2.49Z"/>
      <path class="cls-2" d="M98.08,175.9c1.72-.38,3.54-.77,5.32-1.19l.14,.38c-2.87,1.54-7,3.67-12.92,6.3-.18,.42-.53,.8-.91,.91l-1.75-4.34c.53-.07,1.19-.21,2-.35v-12.5l3.85,.35c-.04,.31-.25,.59-.81,.66v10.89l1.51-.31v-14.91h-.95v.49c0,.25-1.12,1.01-2.91,1.01h-.63v-12.5l3.99,1.58h3.68l1.72-1.85,3.57,2.73c-.21,.25-.67,.53-1.33,.66v8.02c-.07,.25-1.82,.88-2.98,.88h-.6v4.69h.46l1.75-2.73s2,1.89,3.12,3.15c-.11,.38-.45,.56-.94,.56h-4.38v7.42Zm-4.52-15.12h4.48v-7.42h-4.48v7.42Zm25.76-5.25c-.25,.38-.63,.49-1.44,.56-1.12,2.49-2.62,4.8-4.55,6.86,2.35,1.37,5.18,2.41,8.51,3.08l-.07,.35c-1.65,.59-2.48,1.75-2.77,3.71-.81-.31-1.58-.63-2.28-.98l2.28,1.71c-.25,.28-.56,.49-1.29,.63v10.19c0,.21-1.3,.88-3.36,.88h-.74v-2.49h-6.2v1.68c0,.28-1.19,.95-3.19,.95h-.66v-13.13c-1.09,.46-2.24,.84-3.43,1.19l-.28-.46c3.89-1.85,7.14-4.41,9.63-7.42-.91-1.3-1.64-2.73-2.31-4.27-1.61,1.85-3.43,3.33-5.43,4.48l-.38-.32c2.56-3.01,4.87-7.81,5.95-12.99l5.18,1.68c-.17,.46-.59,.77-1.4,.7-.35,.81-.7,1.58-1.09,2.31h3.64l2.17-2.07,3.5,3.15Zm-4.13,12.71c-1.54-.94-2.87-2.03-3.99-3.25-1.86,1.58-3.99,2.94-6.48,4.06l3.08,1.16h5.67l1.72-1.96Zm-1.58,10.82v-7.84h-6.2v7.84h6.2Zm-4.2-23.59c-.49,.84-1.02,1.61-1.61,2.34,.81,1.23,1.82,2.35,2.98,3.33,1.23-1.79,2.21-3.67,2.91-5.67h-4.27Z"/>
      <path class="cls-2" d="M128.18,170.3c2.24-1.19,3.26-2.8,3.75-4.76-1.96-.77-3.47-1.68-3.47-3.43,0-1.44,1.08-2.66,2.77-2.66s2.98,1.26,2.98,3.57c0,2.94-1.44,6.58-5.43,8.4l-.59-1.12Z"/>
      <path class="cls-2" d="M170.63,157.07c-.25,.32-.73,.63-1.51,.77v23.31c-.07,.31-2.1,1.3-3.68,1.3h-.7v-2.62h-14.21v1.19c0,.53-1.71,1.54-3.57,1.54h-.7v-28.32l4.59,1.86h3.15c.39-1.93,.7-4.48,.84-6.3l6.27,1.01c-.1,.46-.46,.77-1.29,.81-1.09,1.33-2.7,3.08-4.34,4.48h8.93l2.1-2.35,4.13,3.33Zm-20.09,.04v6.37h14.21v-6.37h-14.21Zm0,7.39v6.62h14.21v-6.62h-14.21Zm14.21,14.35v-6.76h-14.21v6.76h14.21Z"/>
      <path class="cls-2" d="M195.03,158.82c2.98,6.34,8.58,11.34,13.97,13.76l-.11,.38c-1.64,.32-3.05,1.65-3.71,3.68-5.15-3.71-8.65-9.66-10.75-17.64v14.53h1.02l2.14-3.12s2.38,2.13,3.78,3.54c-.11,.38-.46,.56-.94,.56h-5.99v6.86c0,.38-1.72,1.22-3.43,1.22h-.81v-8.09h-6.48l-.28-.98h6.76v-8.82c-3.15,5.29-7.81,9.7-14,12.85l-.35-.35c5.67-4.55,9.91-11.69,11.87-18.38h-10.22l-.28-.98h12.99v-8.09l5.74,.59c-.11,.56-.39,.95-1.51,1.12v6.37h6.72l2.45-3.33s2.77,2.24,4.31,3.75c-.11,.38-.42,.56-.95,.56h-11.94Z"/>
      <path class="cls-2" d="M215.75,154.66c.07,1.89-.7,3.19-1.75,3.68-1.05,.45-2.52,.1-2.91-1.19-.28-1.16,.49-2.03,1.5-2.49,1.02-.42,2.07-1.65,1.93-2.87h.52c.28,.63,.46,1.26,.56,1.86h11.27c-.25-.11-.53-.25-.81-.45,.07-1.26-.66-2.66-1.58-3.33l.25-.24c6.37-.25,5.99,3.22,3.92,4.03h10.08l2-1.96,3.5,3.29c-.28,.28-.63,.38-1.33,.42-.84,.56-2.1,1.22-3.29,1.68,.63,.49,2.28,1.72,3.33,2.7-.11,.39-.42,.56-.91,.56h-7c-.6,1.26-1.4,2.38-2.63,3.4,10.33,1.75,6.2,5.85,2.84,4.69-1.61-.84-3.89-1.68-6.65-2.45-3.47,1.47-8.51,2.52-15.79,3.08l-.14-.49c5.78-.84,9.8-2,12.64-3.4-2.59-.59-5.39-1.09-8.47-1.43,.81-.81,1.82-2.07,2.84-3.4h-6.79l-.28-1.02h7.77c1.33-1.79,2.56-3.57,3.12-4.66h-7.74Zm-3.82,26.39c2.87-1.75,6.16-5.04,8.26-8.82l4.45,2.97c-.21,.35-.77,.56-1.54,.32-3.05,3.22-7.04,4.97-10.92,5.99l-.25-.45Zm27.37-12.99s2.35,1.89,3.71,3.15c-.07,.38-.42,.56-.91,.56h-12.57v9.84c0,.28-1.89,1.01-3.61,1.01h-.73v-10.85h-12.81l-.28-.98h13.09v-3.64l5.64,.53c-.07,.49-.35,.8-1.29,.95v2.17h7.7l2.07-2.73Zm-14.84-7.74c-.81,.95-1.65,1.86-2.41,2.7,2.35,0,4.41,.07,6.2,.21,1.05-.88,1.79-1.86,2.31-2.91h-6.09Zm-.84-5.67l5.22,1.96c-.14,.39-.52,.7-1.71,.53-.53,.63-1.16,1.37-1.82,2.17h5.71c.31-.91,.52-1.89,.63-2.87l5.5,.91c-.14,.56-.59,.8-1.37,.8-.11,.39-.21,.77-.35,1.16h1.96l1.61-1.96c-.25,.11-.53,.21-.77,.28l-.35-.21c.31-.74,.7-1.82,.98-2.77h-15.23Zm7.7,18.66c13.27,1.37,11.97,9.42,7.63,7.77-1.72-2.45-5.25-5.6-7.91-7.49l.28-.28Z"/>
      <path class="cls-2" d="M277.49,168.13c-.03,.42-.31,.74-1.15,.88v12.36c0,.28-1.79,.98-3.29,.98h-.7v-2.94h-19.6l-1.26,2.03-4.1-2.42c.28-.31,.7-.73,1.12-1.01v-10.47l5.29,.52c-.07,.39-.39,.67-1.29,.81v9.52h7.67v-13.9h-5.78l-1.23,2.03-4.03-2.38c.24-.32,.66-.74,1.08-1.05v-9.8l5.22,.49c-.07,.38-.38,.7-1.3,.84v8.89h6.02v-13.44l5.43,.52c-.07,.53-.32,.88-1.26,1.02v11.9h6.3v-10.19l5.15,.46c-.04,.46-.32,.77-1.16,.91v10.85c0,.28-1.75,.95-3.29,.95h-.7v-2h-6.3v13.9h8.02v-10.75l5.15,.49Z"/>
      <path class="cls-2" d="M296.11,173c-.21,.28-.63,.49-1.33,.56-.31,4.59-1.05,7.18-2.56,8.23-.98,.63-2.24,.95-4.06,.95,0-.98-.11-1.89-.67-2.38-.56-.56-1.68-.98-3.08-1.22v-.49c1.4,.11,3.64,.25,4.31,.25,.56,0,.84-.04,1.09-.25,.56-.46,1.02-2.42,1.29-5.64h-3.78l-1.4,1.72-3.29-2.24c.39-.28,.91-.56,1.43-.77,.35-1.82,.77-4.55,.88-6.06l3.85,1.58h2.03v-4.55h-3.82c-1.79,.91-3.78,1.65-5.95,2.24l-.25-.42c2.87-1.37,5.36-3.25,7.32-5.43-.63,.21-1.4,.18-2.17-.35-.21-1.4-1.29-3.01-2.42-3.82l.25-.25c4.45-.25,5.85,1.47,5.67,2.83,1.02-1.33,1.82-2.76,2.45-4.24h-8.82l-.32-.98h9.1l2.28-2.17,3.68,3.19c-.24,.35-.59,.46-1.4,.56-1.61,3.08-4.2,5.74-7.6,7.81h2.59l1.51-1.68,2.87,2.8c-.24,.25-.7,.49-1.26,.59v5.39c-.07,.11-1.61,.7-3.01,.7h-.7v-1.26h-2.94c-.17,1.19-.42,2.66-.67,3.82h3.61l1.89-1.82,3.4,2.8Zm17.22-16.87c-.21,.31-.52,.45-1.3,.31-1.08,.56-2.59,1.23-4.1,1.79,2.03,.88,4.17,1.54,6.3,2.07l-.07,.38c-1.65,.35-2.8,1.65-3.36,3.61-.98-.46-1.92-.91-2.83-1.43-.14,.03-.35,.07-.56,.1v3.15c0,.35,.07,.46,.42,.46h1.16c.14,0,.49,0,.66-.04,.17-.04,.52-.07,.73-.1h.31l.18,.03c.84,.39,1.09,.7,1.09,1.3,0,1.4-1.19,1.75-4.13,1.75h-.25l3.33,2.8c-.24,.35-.59,.42-1.4,.49-.73,1.26-1.64,2.42-2.73,3.5,5.36,2.94,4.27,6.93,1.16,5.99-.95-1.19-2.35-2.52-3.92-3.78-2.77,1.89-6.2,3.25-10.15,4.09l-.25-.46c3.19-1.26,5.99-3.12,8.12-5.29-1.68-1.16-3.43-2.21-5.01-2.94l.28-.38c2.56,.28,4.66,.74,6.37,1.29,.59-.8,1.12-1.68,1.54-2.56h-8.75l-.28-1.01h9.03l1.93-1.75h-.39c-2.49,0-2.73-.77-2.73-2.77v-4.06h-2.73v1.16c0,2.1-.7,5.39-6.13,7.07l-.25-.35c2.45-2.03,2.66-4.59,2.66-6.72v-3.71l4.31,1.54h1.79l1.19-1.23c-2.94-2.55-5.22-5.95-6.51-10.57l.46-.24c.84,1.89,2.07,3.5,3.61,4.87,1.08-1.4,2.31-3.19,2.91-4.34l3.92,2.59c-.21,.35-.49,.49-1.33,.31-1.19,.7-2.98,1.54-4.66,2.17,1.12,.94,2.42,1.71,3.75,2.42,1.05-1.33,2.17-3.05,2.7-4.13l3.92,2.63Z"/>
      <path class="cls-2" d="M320.68,170.3c2.24-1.19,3.26-2.8,3.75-4.76-1.96-.77-3.47-1.68-3.47-3.43,0-1.44,1.08-2.66,2.77-2.66s2.98,1.26,2.98,3.57c0,2.94-1.44,6.58-5.43,8.4l-.59-1.12Z"/>
      <path class="cls-2" d="M333.77,168.41s.91-.21,1.33-.46c1.79-1.23,4.06-3.64,5.95-6.2-1.33,.53-2.91,1.09-4.62,1.68-.28,.46-.59,.74-.94,.88l-1.82-4.38s.77-.18,1.12-.42c2-1.71,4.69-6.86,5.53-9.7l4.83,2.62c-.14,.32-.53,.56-1.23,.49-1.68,2.21-4.66,5.11-7.32,7.07,1.61,0,3.64-.04,5.74-.07,.94-1.4,1.71-2.77,2.21-3.85l4.52,3.05c-.18,.28-.67,.53-1.37,.38-2.21,2.63-6.51,6.34-10.36,8.79,2.1-.1,4.87-.28,7.7-.49-.38-1.26-.98-2.45-1.5-3.36l.38-.17c8.12,3.33,4.69,9.17,1.82,6.58-.03-.7-.17-1.4-.38-2.14-2.21,.88-5.36,2.14-8.93,3.36-.28,.39-.63,.67-.98,.77l-1.68-4.45Zm3.54,4.55c1.4,3.75,1.09,6.55-.04,7.95-.81,.98-2.73,.95-3.4-.32-.52-1.16,.04-2.24,1.02-2.94,.91-.8,2.07-2.91,1.93-4.69h.49Zm3.54-.63c6.37,4.59,2.1,9.98-.39,6.76,.46-2.17,.32-4.76-.07-6.65l.46-.11Zm4.03-.66c7.74,2.87,4.2,8.86,1.37,6.13,.04-2.03-.81-4.38-1.72-5.95l.35-.17Zm21.74-14.14c-.31,.32-.81,.56-1.61,.66-.46,14.18-1.36,20.51-3.54,22.65-1.29,1.29-2.8,1.82-4.94,1.82,0-1.26-.17-2.21-.66-2.73-.6-.66-1.82-1.16-3.29-1.47v-.49c1.47,.11,3.68,.28,4.55,.28,.63,0,.98-.14,1.36-.49,1.47-1.29,2.24-8.12,2.7-20.23h-7.32c-1.54,3.33-3.5,6.16-5.74,8.33l-.49-.25c1.82-4.06,3.5-10.33,4.27-16.03l5.6,1.4c-.14,.42-.56,.77-1.33,.77-.56,1.65-1.16,3.29-1.85,4.8h6.48l2.14-2.24,3.68,3.22Zm-13.79,5.11c9.49,4.24,5.74,11.66,2.21,8.4-.07-2.73-1.33-5.95-2.59-8.26l.38-.14Z"/>
      <path class="cls-2" d="M385.39,178.46v1.09h-15.02v-1.09l5.18-.63c.07-2.17,.11-4.34,.11-6.51v-14.21l-4.55,.46v-1.3l8.82-2.1,.49,.39-.14,5.63v11.13c0,2.17,.04,4.34,.1,6.51l5.01,.63Z"/>
      <path class="cls-2" d="M406.67,175.83v3.71h-16.8v-2.73c2.03-2.21,4.06-4.34,5.78-6.09,3.96-4.13,5.53-6.69,5.53-10.12,0-3.22-1.68-5.32-4.52-5.32-.53,0-1.09,.07-1.65,.21l-.84,3.22c-.39,2.07-1.33,2.66-2.35,2.66-.95,0-1.68-.53-2.07-1.33,.42-3.92,4.1-6.02,8.4-6.02,5.29,0,7.7,2.8,7.7,6.76,0,3.46-2.52,6.41-8.82,11.27-1.12,.88-2.77,2.31-4.48,3.78h14.11Z"/>
      <path class="cls-2" d="M424.7,153.71c-.18,.39-.49,.66-1.37,.6-2.56,4.51-7.11,9.56-13.62,12.22l-.28-.35c4.87-3.78,8.33-9.87,9.77-14.67l5.5,2.21Zm8.37,8.23l3.75,3.18c-.28,.28-.7,.53-1.44,.63-.42,8.68-1.23,13.51-3.15,15.09-1.19,.98-2.63,1.44-4.94,1.44,0-1.19-.18-2.21-.77-2.77-.7-.63-2.17-1.19-3.85-1.47v-.49c1.79,.17,4.48,.35,5.32,.35,.63,0,.95-.1,1.26-.38,1.05-.88,1.65-5.5,2-12.46h-5.92c-.67,6.06-2.7,12.67-14.21,17.36l-.35-.46c8.79-5.53,9.77-11.69,10.01-16.91h-5.08l-.31-.98h15.51l2.17-2.13Zm.35-9.84c-.42,.46-1.58,.74-2.87,.84,1.82,3.5,6.34,6.83,11.73,8.3l-.07,.42c-1.57,.56-2.87,2.03-3.29,3.61-4.55-2.84-7.88-7.25-9.31-12.5h-3.82l-.31-.98h3.26l1.23-2.03,3.47,2.34Z"/>
      <path class="cls-2" d="M473.94,177.65s2.24,1.79,3.57,3.05c-.07,.38-.42,.56-.91,.56h-19.85l-.28-.98h8.72v-3.68h-6.3l-.25-.84c-2.41,1.43-5.88,3.36-11.06,5.85-.18,.46-.49,.8-.88,.91l-2.45-4.31c1.15-.21,3.04-.56,5.36-1.02v-10.75h-4.52l-.28-1.01h4.8v-4.27h-2.28l-.21-.84c-.98,.98-1.96,1.82-3.05,2.55l-.38-.28c2.56-3.33,4.8-9.14,5.53-12.74l5.04,1.58c-.14,.42-.49,.66-1.33,.77,8.79,2.21,5.04,7.53,2.35,5.43-.46-1.23-1.47-2.98-2.87-4.59-1.19,2.38-2.98,4.94-5.11,7.11h5.39l1.79-2.49s1.96,1.71,3.15,2.94c-.11,.38-.46,.56-.94,.56h-3.68v4.27h.74l1.75-2.56s2,1.79,3.12,3.01c-.07,.38-.42,.56-.91,.56h-4.69v10.05c1.86-.42,3.78-.84,5.74-1.26l.11,.39h6.34v-3.5h-2.63v.98c0,.25-1.12,.88-2.98,.88h-.63v-12.39l3.96,1.5h8.65l1.75-2,3.4,2.59c-.21,.31-.52,.52-1.3,.67v8.23c0,.14-1.19,.77-3.12,.77h-.63v-1.23h-2.77v3.5h2.24l1.89-2.28s2.17,1.58,3.5,2.7c-.11,.38-.46,.56-.94,.56h-6.69v3.68h3.08l1.96-2.63Zm-28-9.73c5.78,4.69,2.27,9.8,.03,7.07,.35-2.28,0-4.97-.49-6.97l.45-.1Zm7.53,6.86c.35-1.79,.74-4.58,.98-7l4.13,1.23c-.18,.42-.6,.74-1.33,.74-.91,1.79-2.07,3.82-3.19,5.29l-.6-.25Zm5.22-19.43l-.28-.98h12.95l2-2.66s2.24,1.82,3.61,3.08c-.1,.39-.49,.56-.98,.56h-6.3l4.38,1.05c-.1,.42-.53,.74-1.3,.74-.81,.8-1.93,1.82-3.05,2.77h2.17l1.96-2.42s2.21,1.68,3.64,2.87c-.1,.38-.45,.56-.98,.56h-18.27l-.28-1.01h5.43c-.35-.14-.7-.35-1.05-.7,.11-1.4-.28-2.87-.7-3.82l.07-.04h-3.01Zm9.66,4.55c.28-1.44,.63-3.22,.84-4.55h-6.72c4.73,1.33,4.1,3.96,2.38,4.55h3.5Zm-5.78,4.2v3.04h2.63v-3.04h-2.63Zm2.63,7v-2.94h-2.63v2.94h2.63Zm-1.23-21.32c8.3,.25,4.59,6.41,1.29,3.85,0-1.33-.77-2.8-1.58-3.64l.28-.21Zm4.94,14.32v3.04h2.77v-3.04h-2.77Zm2.77,7v-2.94h-2.77v2.94h2.77Z"/>
      <path class="cls-2" d="M507.79,172.23s2.7,2.03,4.41,3.43c-.11,.39-.49,.56-1.01,.56h-13.37v5.22c0,.38-1.82,1.22-3.43,1.22h-.84v-6.44h-13.76l-.28-.98h14.04v-4.2h-5.74v1.09c0,.42-1.82,1.33-3.5,1.33h-.63v-16.17l4.41,1.72h5.46v-3.54h-12.67l-.28-1.02h12.95v-4.62l5.53,.52c-.07,.49-.32,.88-1.26,1.02v3.08h6.55l2.42-2.94s2.73,2,4.41,3.4c-.11,.38-.49,.56-1.02,.56h-12.36v3.54h5.53l1.96-2.1,3.99,3.08c-.24,.28-.7,.56-1.4,.7v10.61c-.04,.28-2.07,1.16-3.5,1.16h-.7v-1.4h-5.88v4.2h7.53l2.45-3.01Zm-19.99-12.22v4.41h5.74v-4.41h-5.74Zm5.74,10.05v-4.62h-5.74v4.62h5.74Zm4.27-10.05v4.41h5.88v-4.41h-5.88Zm5.88,10.05v-4.62h-5.88v4.62h5.88Z"/>
      <path class="cls-2" d="M544.05,177.76s2.41,1.92,3.89,3.29c-.1,.39-.49,.56-.98,.56h-20.83l-.28-1.02h8.86v-6.41h-6.83l-.28-.98h7.11v-4.76c-2.1,.21-4.24,.31-6.27,.38-.17,1.54-1.82,2.38-3.33,1.01-.1-1.64-.84-3.5-1.68-5.04v16.7c-.04,.25-1.33,1.16-3.29,1.16h-.73v-12.81c-1.44,2.03-3.12,3.85-5.08,5.43l-.39-.35c2.49-3.64,4.13-8.61,5.08-13.34h-4.41l-.28-1.01h5.08v-5.25c-1.68,.25-3.43,.46-5.11,.59l-.14-.42c3.61-1.4,7.95-3.92,10.12-5.71l4.59,3.85c-.46,.38-1.19,.46-2.31,.1-.88,.28-1.96,.56-3.12,.81v6.02h.38l1.82-2.52s2,1.75,3.19,2.98c-.1,.38-.46,.56-.95,.56h-4.45v2.17c3.5,1.26,4.83,3.05,5.01,4.48,4.31-1.15,9.49-3.12,12.5-4.69h-.21v-1.5h-7.84v.95c0,.35-1.68,1.22-3.26,1.22h-.56v-13.06l3.99,1.61h7.35l1.82-2.03,3.85,2.94c-.21,.28-.66,.56-1.36,.74v8.05c-.04,.25-1.51,.88-2.8,1.05l3.96,3.75c-.42,.38-1.23,.38-2.31-.04-1.37,.28-2.98,.53-4.76,.77v5.21h2.2l2.1-2.73s2.35,1.86,3.75,3.15c-.07,.39-.46,.56-.95,.56h-7.11v6.41h3.15l2.1-2.83Zm-3.33-16.7v-7.32h-7.84v7.32h7.84Z"/>
      <path class="cls-2" d="M554.06,170.3c2.24-1.19,3.26-2.8,3.75-4.76-1.96-.77-3.47-1.68-3.47-3.43,0-1.44,1.09-2.66,2.77-2.66s2.98,1.26,2.98,3.57c0,2.94-1.44,6.58-5.43,8.4l-.59-1.12Z"/>
      <path class="cls-2" d="M580.66,150.67l3.82,2.94c-.21,.28-.7,.59-1.4,.73v13.02c-.07,.25-2,1.02-3.26,1.02h-.66v-2.1h-5.99v9.07c1.72-.67,3.64-1.51,5.67-2.38-.56-1.54-1.3-2.97-2.07-4.16l.39-.21c10.22,5.5,6.62,13.9,2.98,10.4,0-1.57-.35-3.25-.88-4.9-1.86,1.61-4.34,3.75-7.35,6.02-.32,.63-.77,1.08-1.16,1.3l-2.52-4.48c.95-.63,1.12-.95,1.12-1.82v-24.12l4.27,1.68h5.18l1.85-2Zm-1.5,8.26v-5.25h-5.99v5.25h5.99Zm0,6.37v-5.36h-5.99v5.36h5.99Zm20.34-11.66c-.24,.28-.7,.56-1.36,.7v17.54c0,2.77-.56,4.38-4.76,4.76-.07-1.33-.21-2.35-.6-2.91-.46-.66-1.05-1.08-2.45-1.37v-.49s2.63,.17,3.26,.17c.52,0,.66-.21,.66-.67v-17.64h-4.94v27.48c0,.49-1.44,1.47-3.22,1.47h-.66v-31.71l4.03,1.75h4.45l1.75-2.03,3.85,2.94Z"/>
      <path class="cls-2" d="M630.43,149.68s2.77,2.1,4.45,3.57c-.07,.39-.49,.56-1.02,.56h-4.27v23.63c0,2.84-.84,4.87-6.23,5.22-.07-1.33-.42-2.38-1.23-2.98-.84-.63-1.93-1.12-4.48-1.5v-.45s5.67,.35,6.79,.35c.7,0,.95-.28,.95-.81v-23.45h-23.24l-.28-1.02h26.08l2.49-3.12Zm-10.61,23.31c-.03,.28-2.03,1.02-3.33,1.02h-.66v-2.91h-6.02v3.05c0,.38-1.65,1.26-3.33,1.26h-.59v-17.4l4.1,1.68h5.5l1.86-2.03,3.92,2.94c-.24,.28-.7,.59-1.44,.73v11.66Zm-3.99-2.87v-9.45h-6.02v9.45h6.02Z"/>
      <path class="cls-2" d="M665.71,170.13s2.59,2.03,4.13,3.4c-.07,.38-.46,.56-.98,.56h-13.55v3.68c0,2.91-.73,4.45-5.81,4.87-.14-1.26-.35-2.17-.98-2.84-.63-.56-1.51-1.02-3.57-1.37v-.46s4.48,.28,5.29,.28c.53,0,.7-.14,.7-.6v-3.57h-13.79l-.28-.98h14.07v-3.4l4.17,.35c1.72-.7,3.54-1.5,5.01-2.24h-19.78l-.32-1.01h21.49l2.38-2.1,3.71,3.5c-.31,.31-.7,.38-1.54,.42-2.59,.88-6.58,1.68-10.08,2.21-.14,.07-.39,.14-.67,.21v2.07h8.12l2.28-2.98Zm-28.35-15.44h15.05c-.18-.07-.39-.17-.56-.32-.21-1.64-1.3-3.5-2.38-4.55l.28-.21c6.86,.21,6.76,4.09,4.73,5.08h8.54l2.28-3.12s2.59,2.1,4.13,3.54c-.11,.38-.49,.56-.98,.56h-30.8l-.28-.98Zm21.88,10.68v-1.37h-12.01v.74c0,.35-1.86,1.23-3.54,1.23h-.6v-9.56l4.41,1.72h11.38l1.89-2.1,4.1,3.04c-.21,.28-.67,.6-1.4,.77v4.62c-.04,.25-2.21,.91-3.5,.91h-.73Zm0-2.34v-3.92h-12.01v3.92h12.01Z"/>
      <path class="cls-2" d="M705.15,163.02c-.28,.31-.66,.38-1.36,.42-1.37,1.09-3.68,2.55-5.39,3.33l-.28-.25c.42-1.05,.91-2.66,1.26-3.92h-21.98c.39,2.62-.59,4.45-1.93,5.11-1.19,.7-2.77,.31-3.22-1.02-.35-1.26,.46-2.21,1.58-2.73,1.23-.7,2.31-2.52,2.03-4.55l.49-.04c.38,.8,.67,1.54,.84,2.24h16.03c1.09-2.21,2.21-5.15,2.84-7.32l5.6,1.85c-.18,.42-.56,.7-1.33,.63-1.47,1.4-3.75,3.29-5.99,4.83h4.9l2.17-2.17,3.75,3.57Zm-5.81,5.32c-.28,.38-.63,.49-1.58,.56-1.58,2.59-3.57,4.83-5.99,6.72,3.89,1.47,8.4,2.24,13.02,2.62l-.04,.45c-1.89,.46-3.05,1.89-3.54,3.99-4.9-1.02-9.17-2.49-12.64-4.94-4.31,2.52-9.7,4.17-16.21,4.94l-.18-.49c5.57-1.4,10.33-3.5,14.11-6.3-2.21-2.07-3.92-4.62-5.15-7.88h-3.78l-.31-1.01h16.03l2.49-2.17,3.75,3.5Zm-13.86-13.62c-3.85,.25-7.88,.38-11.55,.38l-.07-.59c8.05-.91,18.45-3.01,23.84-4.76l3.71,3.75c-.42,.35-1.19,.35-2.28-.1-3.61,.52-8.26,.98-13.16,1.29,8.37,2.52,4.24,8.72,1.02,5.74,.03-2-.74-4.17-1.58-5.67l.07-.04Zm-7.42,.46c8.82,2,4.87,8.44,1.58,5.5-.03-1.86-.94-3.92-1.89-5.29l.31-.21Zm3.85,12.85c1.5,2.63,3.78,4.59,6.55,6.09,1.92-1.79,3.5-3.82,4.62-6.09h-11.17Z"/>
      <path class="cls-2" d="M724.05,160.01c-.77,.21-1.61,.42-2.52,.63-.42,4.52-1.3,8.79-3.29,12.46,7.53,4.45,3.68,8.4,.77,6.65-.66-1.16-1.65-2.38-2.8-3.57-2.1,2.62-4.94,4.83-8.89,6.48l-.35-.35c3.33-2.17,5.67-4.94,7.28-7.98-1.93-1.71-4.13-3.25-6.13-4.41,.53-1.71,1.16-4.13,1.79-6.76l-1.23,.25c-.24,.45-.67,.7-1.09,.77l-1.12-4.31c.98,0,2.42,0,4.17-.04,.81-3.89,1.47-7.7,1.72-9.8l5.18,.7c-.1,.38-.28,.77-1.37,.88-.38,2.03-1.01,4.97-1.75,8.16l3.22-.07c.04-1.19,.07-2.38,.04-3.57l5.43,.91c-.1,.6-.56,.88-1.37,.95-.04,.53-.07,1.05-.1,1.58l2.38-.07,.04,.52Zm-6.48,1.54c-1.16,.25-2.42,.53-3.78,.81-.63,2.76-1.37,5.6-2.1,7.91,1.44,.46,2.66,.98,3.75,1.47,1.26-3.22,1.89-6.65,2.14-10.19Zm21.88-5.39c-.25,.32-.74,.6-1.47,.77v21.53c-.07,.31-1.96,1.4-3.5,1.4h-.66v-3.15h-5.5v2.66c0,.49-1.54,1.47-3.36,1.47h-.63v-27.41l4.13,1.79h4.97l2.03-2.24,3.99,3.18Zm-5.64,19.53v-19.5h-5.5v19.5h5.5Z"/>
      <path class="cls-2" d="M773.37,168.13c-.03,.42-.32,.74-1.15,.88v12.36c0,.28-1.79,.98-3.29,.98h-.7v-2.94h-19.6l-1.26,2.03-4.1-2.42c.28-.31,.7-.73,1.12-1.01v-10.47l5.29,.52c-.07,.39-.39,.67-1.29,.81v9.52h7.67v-13.9h-5.78l-1.23,2.03-4.03-2.38c.24-.32,.67-.74,1.09-1.05v-9.8l5.22,.49c-.07,.38-.38,.7-1.29,.84v8.89h6.02v-13.44l5.43,.52c-.07,.53-.32,.88-1.26,1.02v11.9h6.3v-10.19l5.15,.46c-.04,.46-.32,.77-1.16,.91v10.85c0,.28-1.75,.95-3.29,.95h-.7v-2h-6.3v13.9h8.02v-10.75l5.15,.49Z"/>
      <path class="cls-2" d="M809.52,153.12c-.25,.32-.73,.59-1.44,.77v27.3c-.07,.31-1.82,1.26-3.29,1.26h-.59v-2.52h-21.84v1.3c0,.49-1.54,1.44-3.15,1.44h-.63v-32.17l4.1,1.71h21.18l1.89-2.1,3.78,3.01Zm-5.32,25.8v-25.69h-21.84v25.69h21.84Zm-10.85-8.33c-1.58,1.01-4.03,2.49-7.46,4.31-.17,.42-.49,.74-.88,.84l-2-4.03c1.86-.17,6.06-.8,10.26-1.54l.07,.42Zm10.36-8.09c-.17,.42-.63,.67-1.44,.56-1.02,2.8-2.28,5.15-3.78,7.14,.53,1.01,1.12,1.96,1.89,2.73,.38,.46,.56,.42,.84-.11,.42-.74,1.02-2.24,1.43-3.47l.39,.07-.56,4.8c.94,1.58,1.12,2.42,.63,2.94-1.23,1.26-3.5,.1-4.62-1.09-.91-.98-1.68-2.06-2.35-3.25-2.27,2.21-4.97,3.78-8.02,4.97l-.31-.42c2.7-1.68,5.18-3.99,7.21-6.93-.91-2.35-1.47-4.94-1.82-7.7-.14,.17-.53,.38-.98,.46v5.18c-.03,.25-1.4,.95-2.42,.95h-.46v-1.09h-2.14v.84c0,.21-1.26,.88-2.38,.88h-.42v-9.21l2.94,1.22h1.75l1.33-1.36,2.77,2.06c-.14-1.05-.21-2.13-.28-3.22h-9.49l-.28-1.02h9.7c-.07-1.5-.1-3.08-.14-4.66l4.66,.8c-.1,.42-.42,.81-1.23,.88,0,.98,0,2,.04,2.97h2.77l.77-1.01-.14-.07c-.35-1.19-1.33-2.56-2.17-3.33l.32-.25c4.66,.21,5.04,2.52,3.99,3.5,.59,.49,1.33,1.09,1.86,1.61-.11,.38-.46,.56-.94,.56h-6.37c.11,2.52,.39,5,.95,7.21,.88-1.86,1.61-3.85,2.1-6.02l4.41,1.86Zm-14.35,4.76v-4.31h-2.14v4.31h2.14Z"/>
      <path class="cls-2" d="M34.48,204.63s2.38,1.96,3.82,3.29c-.1,.39-.46,.56-.98,.56h-11.1l4.62,1.22c-.11,.39-.49,.7-1.23,.7-1.75,1.82-4.59,3.99-7.04,5.46,2.56-.11,6.48-.32,10.54-.6-.63-1.5-1.58-2.94-2.56-3.99l.35-.25c10.01,2.87,6.65,10.5,3.08,7.56-.03-.81-.21-1.61-.52-2.42-1.86,.6-4.38,1.4-7.21,2.21l5.04,.42c-.07,.49-.31,.8-1.19,.94v3.82h1.75l2.03-2.87s2.35,1.96,3.64,3.33c-.07,.39-.46,.56-.91,.56h-6.51v5.36c2.52-.38,5.25-.8,7.98-1.23l.11,.46c-3.47,1.61-8.68,3.68-16.45,6.34-.21,.46-.6,.77-1.02,.88l-2-4.94c1.58-.14,4.17-.49,7.39-.95v-5.92h-6.44l-.28-1.02h6.72v-5.15c-1.19,.35-2.45,.7-3.78,1.05-.25,.42-.52,.73-.84,.88l-1.96-4.62s.81-.14,1.12-.35c1.75-1.19,4.03-4.83,4.83-6.9h-6.2l-.28-1.02h13.37l2.1-2.84Zm8.44,23.59c0,.35-1.65,1.08-3.05,1.08h-.7v-22.09l5.01,.49c-.07,.49-.35,.84-1.26,.98v19.53Zm8.3-23.07c-.07,.52-.42,.88-1.26,1.01v26.25c0,2.73-.63,4.34-5.25,4.73-.11-1.23-.32-2.17-.88-2.77-.59-.63-1.4-1.05-3.19-1.37v-.49s3.82,.25,4.62,.25c.59,0,.77-.21,.77-.67v-27.44l5.18,.49Z"/>
      <path class="cls-2" d="M53.7,212.54c8.82,.91,5.74,7.42,2.35,5.04-.28-1.75-1.47-3.64-2.63-4.8l.28-.25Zm9.07-.18c-1.05,3.71-2.94,10.71-3.29,12.36-.25,1.05-.46,2.24-.42,3.12,.07,1.86,1.44,3.22,1.33,6.34-.07,1.75-1.19,2.83-2.8,2.83-.77,0-1.54-.49-1.79-1.82,.63-3.68,.49-6.93-.31-7.49-.46-.35-.98-.49-1.75-.56v-.66h1.54c.46,0,.63,0,.98-.73q.7-1.19,5.92-13.51l.6,.14Zm-7.21-7.56c9.42,.84,6.62,7.74,2.98,5.46-.53-1.86-2.03-3.92-3.29-5.22l.31-.25Zm19.15,23.49c-1.54,3.92-5.11,7.07-13.51,8.86l-.21-.46c5.67-2.1,8.26-5.11,9.31-8.4h-8.47l-.28-.98h9.03c.28-1.08,.42-2.17,.46-3.22l5.74,.8c-.11,.53-.53,.84-1.33,.88-.1,.52-.21,1.05-.39,1.54h4.97l1.82-2.49c-.56,.14-1.23,.21-2.06,.28-.07-.81-.18-1.51-.56-1.89-.39-.35-.91-.74-2.31-.91v-.46s2.42,.14,3.01,.14c.49,0,.59-.21,.59-.63v-11.9h-3.04l2.35,2.42c-.35,.25-.98,.25-1.79-.11-.88,.14-1.89,.28-2.98,.42v4.31h1.65l1.33-1.71s1.5,1.22,2.41,2.13c-.07,.38-.39,.56-.88,.56h-4.52v.17c6.2,.95,4.1,5.15,1.75,3.67-.28-.91-1.02-2-1.75-2.8v4.55c0,.21-.91,.84-2.35,.84h-.52v-3.47c-1.19,1.3-2.66,2.38-4.38,3.33l-.35-.56c1.65-1.58,2.73-3.61,3.43-5.74h-3.33l-.28-.98h4.9v-4.1c-1.47,.11-2.98,.14-4.41,.11l-.14-.63c3.08-.46,6.83-1.51,9.03-2.42h-9.56v15.05c0,.38-1.61,1.26-3.26,1.26h-.6v-19.01l4.13,1.68h2.94c.42-1.23,1.05-3.01,1.4-4.27l5.18,1.23c-.18,.52-.7,.8-1.4,.77-.91,.63-2.21,1.58-3.29,2.28h7.98l1.72-1.93,3.82,2.84c-.21,.25-.67,.53-1.3,.66v11.55c0,1.54-.28,2.56-1.85,3.08,.77,.59,2.52,2.03,3.64,3.08-.1,.38-.49,.56-.98,.56h-10.54Zm-6.02-15.51c4.83,1.12,2.66,4.51,.84,3.01-.07-.95-.66-2.1-1.23-2.77l.39-.24Zm6.41,3.05c.46-.88,.98-2.28,1.5-3.64l2.8,1.4c-.17,.32-.66,.56-1.29,.46-.77,.77-1.68,1.58-2.45,2.13l-.56-.35Zm.28,13.27c13.34,1.22,12.08,9.52,7.81,7.77-1.58-2.62-5.22-5.71-8.09-7.46l.28-.31Z"/>
      <path class="cls-2" d="M88.56,212.72c9.21,.91,6.09,7.7,2.52,5.29-.31-1.82-1.61-3.78-2.8-5.04l.28-.25Zm17.33-7.7c-.07,.49-.35,.84-1.26,.98v14.67c-.04,7.07-1.96,12.85-8.23,16.56l-.39-.35c3.61-3.92,4.8-8.79,4.94-14.77-.46,1.29-1.68,1.75-2.77,.56,.25-2.38-.39-5.25-1.09-7.35-.95,3.82-1.96,7.98-2.21,9.28-.24,1.12-.45,2.34-.42,3.25,.07,1.93,1.47,3.22,1.37,6.34-.07,1.75-1.19,2.91-2.87,2.91-.77,0-1.58-.53-1.82-1.82,.67-3.64,.49-6.97-.28-7.53-.49-.35-1.05-.49-1.79-.56v-.67h1.54c.45,0,.63,0,.98-.73q.66-1.26,6.06-15.12l.52,.14-1.05,4.31,.39-.14c2.03,1.61,3.08,3.22,3.47,4.66v-15.09l4.9,.49Zm-14.84-.42c9.59,1.05,6.37,8.05,2.66,5.46-.42-1.86-1.75-3.92-2.94-5.25l.28-.21Zm14.11,10.43c5.46,4.62,2.77,9.49,.73,7.25,.21-2.31-.49-5.15-1.23-7.11l.49-.14Zm15.47-9.98c-.07,.42-.32,.74-1.09,.84v29.72c0,.42-1.61,1.33-2.94,1.33h-.74v-15.51c-.21,1.47-1.37,2.1-2.41,.98,.07-2.14-.67-4.73-1.4-6.69v18.34c0,.38-1.54,1.22-2.8,1.22h-.7v-29.51l4.52,.45c-.07,.46-.31,.73-1.02,.84v7.95l.21-.07c2.38,1.92,3.4,3.89,3.61,5.39v-15.79l4.76,.49Z"/>
      <path class="cls-2" d="M152.22,212.86s2.63,1.96,4.24,3.33c-.11,.39-.49,.56-.98,.56h-31.57l-.31-1.02h26.29l2.35-2.87Zm-28.53,23.84c4.13-1.61,8.75-4.48,10.99-6.65l4.73,3.22c-.31,.38-1.02,.56-2.14,.28-3.15,1.58-8.54,2.98-13.44,3.57l-.14-.42Zm1.75-28.14h6.79v-4.3l5.36,.46c-.07,.46-.35,.84-1.3,.98v2.87h7v-4.3l5.43,.46c-.07,.46-.35,.84-1.3,.98v2.87h1.54l2.21-2.76s2.52,1.86,4.1,3.19c-.1,.38-.49,.56-1.02,.56h-6.83v4.31c0,.28-1.82,.88-3.43,.88h-.7v-1.47h-7v.88c0,.25-1.79,.88-3.36,.88h-.7v-5.46h-6.51l-.28-.98Zm21.77,22.26v-1.29h-14.7v.66c0,.38-1.82,1.29-3.5,1.29h-.63v-14l4.41,1.75h14.07l1.93-2.1,4.06,3.05c-.24,.28-.7,.59-1.44,.73v8.93c-.03,.25-2.14,.98-3.5,.98h-.7Zm-14.7-10.61v3.54h5.25v-3.54h-5.25Zm0,8.33h5.25v-3.78h-5.25v3.78Zm3.78-19.01v2.7h7v-2.7h-7Zm5.5,10.68v3.54h5.43v-3.54h-5.43Zm5.43,8.33v-3.78h-5.43v3.78h5.43Zm-5.08,2.59c19.81,.67,12.5,8.26,8.72,5.32-1.54-1.47-4.55-3.5-8.82-4.87l.11-.46Z"/>
      <path class="cls-2" d="M178.65,205.72c-.14,.49-.6,.7-1.75,.8,3.15,4.31,9.66,6.76,14.98,8.3l-.04,.56c-1.86,.49-3.12,2.38-3.43,4.06-5.18-2.77-9.94-6.86-12.11-12.5-3.5,5.39-10.99,11.06-17.89,13.83l-.25-.38c5.92-3.89,12.5-11.27,14.04-16.35l6.44,1.68Zm7.84,25.97s2.77,2.14,4.45,3.61c-.1,.38-.49,.56-1.02,.56h-30.49l-.28-1.02h13.27v-11.03h-11.24l-.28-.98h11.52v-5.18h-5.85l-.28-1.02h11.1l2.03-2.59s2.35,1.75,3.82,3.04c-.11,.39-.46,.56-.95,.56h-5.6v5.18h6.3l2.24-2.87s2.56,1.93,4.06,3.29c-.11,.38-.46,.56-.98,.56h-11.62v11.03h7.35l2.45-3.15Zm-21.84-6.51c9.21,3.82,4.76,10.78,1.33,7.28,.07-2.45-.77-5.11-1.68-7.11l.35-.17Zm13.86,8.19c.77-2.03,1.79-5.43,2.59-8.44l5.46,2.03c-.14,.42-.63,.7-1.4,.63-1.89,2.24-4.2,4.55-6.23,6.06l-.42-.28Z"/>
      <path class="cls-2" d="M193.56,212.72c9,.67,5.85,7.25,2.35,4.87-.31-1.65-1.54-3.5-2.62-4.62l.28-.25Zm10.08-2.73c-1.19,4.45-3.36,12.57-3.78,14.53-.25,1.19-.49,2.42-.46,3.33,.03,1.89,1.44,3.19,1.33,6.34-.04,1.75-1.16,2.94-2.84,2.94-.77,0-1.58-.49-1.82-1.86,.67-3.64,.49-6.97-.31-7.49-.49-.35-1.05-.49-1.82-.56v-.7h1.58c.49,0,.63,0,.98-.73q.7-1.33,6.62-15.89l.52,.1Zm-7.6-5.39c9.49,.88,6.27,7.81,2.59,5.32-.39-1.85-1.72-3.85-2.87-5.11l.28-.21Zm26.43,18.03c-.14,2.91-.31,5.18-.56,7l1.54-2.52s1.82,1.79,2.84,2.97c-.11,.39-.46,.56-.91,.56h-3.64c-.42,2.62-1.02,4.1-1.86,4.94-1.16,1.19-2.7,1.5-4.52,1.5,.04-1.05-.07-1.82-.52-2.31-.42-.59-1.29-.98-2.56-1.26l.04-.53c1.09,.14,2.69,.21,3.39,.21,.56,0,.91-.1,1.23-.42,.35-.31,.67-1.01,.91-2.13h-10.12l-1.44,1.75-3.68-2.21c.32-.25,.77-.56,1.23-.81,.35-1.79,.77-4.17,1.12-6.75h-3.43l-.28-.98h3.85c.35-2.49,.66-5.04,.88-7.25-1.12,1.23-2.35,2.31-3.68,3.19l-.35-.28c2.41-3.12,4.45-8.58,5.29-12.99l5.5,1.51c-.14,.38-.42,.56-1.3,.42-.38,.88-.84,1.75-1.36,2.62h10.22l2.14-2.87s2.42,1.96,3.82,3.29c-.07,.38-.46,.56-.94,.56h-15.82c-.45,.77-.98,1.5-1.51,2.21l2.84,1.37h7.84l2.03-2.1,3.57,3.08c-.28,.28-.73,.53-1.54,.63-.07,2.41-.1,4.51-.21,6.44l1.57-2.59s1.89,1.93,2.87,3.19c-.07,.38-.42,.56-.91,.56h-3.57Zm-4.41,7c.28-1.68,.49-3.96,.67-7h-9.98c-.38,2.55-.77,5.04-1.12,7h10.43Zm-8.19-15.23c-.24,1.96-.59,4.55-.98,7.25h9.87c.11-2.1,.17-4.48,.25-7.25h-9.14Zm1.19,8.86c7.77,1.79,4.76,7.28,1.96,5.04-.17-1.64-1.26-3.61-2.27-4.83l.31-.21Zm.49-7.67c7.49,1.54,4.87,6.72,2.07,4.76-.31-1.54-1.47-3.4-2.41-4.55l.35-.21Z"/>
      <path class="cls-2" d="M257.71,213.63s-.04,.07-.1,.14c.73,.6,2.31,1.93,3.36,2.91-.1,.38-.46,.56-.95,.56h-23.77v5.18c0,4.51-.63,10.71-7.53,14.49l-.28-.28c3.29-4.2,3.61-9.52,3.61-14.21v-7.88l4.83,1.68h18.24l1.54-2.07c-.66,.18-1.54,.32-2.38,.32h-.7v-1.5h-16.59l-1.33,1.85-4.27-2.2c.32-.38,.84-.84,1.33-1.12v-5.81l5.36,.53c-.07,.53-.39,.84-1.29,.98v4.79h6.34v-7.74l5.36,.42c-.07,.49-.35,.84-1.26,1.01v6.3h6.37v-6.27l5.46,.45c-.11,.49-.35,.84-1.33,.98v6.48Zm-.74,10.89s2.35,1.89,3.75,3.22c-.1,.38-.46,.56-.95,.56h-10.26v7.84c0,.21-1.3,.95-3.47,.95h-.77v-8.79h-8.58l-.28-.98h8.86v-5.6h-6.97l-.28-.98h15.02l2-2.7s2.28,1.82,3.64,3.12c-.11,.38-.46,.56-.95,.56h-8.23v5.6h5.36l2.1-2.8Z"/>
      <path class="cls-2" d="M288.41,219.19l2.91-4.06s3.22,2.8,5.15,4.62c-.11,.39-.49,.56-1.08,.56h-31.36l-.32-1.12h24.71Z"/>
      <path class="cls-2" d="M313.08,232.04c0,2.41-.52,3.78-4.41,4.09-.07-1.05-.21-1.85-.63-2.34-.42-.49-1.08-.88-2.41-1.12v-.49s2.7,.21,3.29,.21c.56,0,.7-.25,.7-.7v-10.92c-1.54,.46-3.22,.98-5.15,1.5-.11,5.15-.84,10.78-5.71,14.81l-.42-.28c2.14-3.88,2.52-8.72,2.59-13.55l-.6,.14c-.17,.42-.6,.74-.98,.81l-1.12-4.03c.67-.04,1.61-.11,2.7-.18v-12.11l4.03,1.47c.28-1.58,.45-3.64,.52-5.11l5.04,.91c-.14,.46-.52,.77-1.26,.8-.8,1.05-1.96,2.31-3.19,3.43h3.22l1.51-1.75,3.39,2.55c-.17,.25-.59,.49-1.12,.59v8.02l1.26-.14c1.96-2.28,2.03-5.18,2.03-7.88v-5.36l4.1,1.51h2.59l1.79-1.89,3.33,2.7c-.25,.25-.67,.46-1.3,.53v5.71c0,.39,.07,.53,.45,.53h1.44c.18,0,.53-.04,.66-.04,.21,0,.49-.07,.7-.14h.35l.14,.04c.84,.38,1.12,.7,1.12,1.43,0,1.37-1.16,2.21-4.17,2.21h-1.47c-2.45,0-2.7-.77-2.7-2.94v-7.11h-3.5v2.8c0,2.66-.52,6.2-5.22,8.26v.14l-1.61,.53v12.36Zm-8.61-12.36c1.58-.17,3.33-.32,5.15-.53v-8.75h-5.15v9.28Zm.7-8.09c6.23,3.88,3.29,8.68,1.05,6.37,0-2.03-.81-4.51-1.47-6.23l.42-.14Zm.14,10.75c6.09,4.03,3.29,8.79,1.05,6.48,0-2.03-.81-4.59-1.5-6.34l.46-.14Zm24.43-1.08c-.21,.35-.53,.49-1.3,.52-.94,3.08-2.28,5.81-4.27,8.16,2.28,1.44,4.9,2.49,7.67,3.22l-.07,.38c-1.61,.31-2.8,1.43-3.36,3.33-2.59-1.23-4.8-2.66-6.58-4.55-2.49,2.07-5.78,3.71-9.98,4.8l-.21-.42c3.68-1.61,6.48-3.78,8.54-6.44-1.68-2.38-2.91-5.32-3.75-9.07h-1.68l-.31-.98h9.59l2.13-2.13,3.57,3.19Zm-12.64-.07c1.02,2.84,2.59,5.04,4.52,6.83,1.23-2.07,2.07-4.34,2.63-6.83h-7.14Z"/>
      <path class="cls-2" d="M349.41,211.88c-.24,.31-.77,.59-1.47,.73v20.86c-.04,.28-1.89,1.16-3.26,1.16h-.6v-2.77h-5.32v2.59c0,.46-1.47,1.33-3.15,1.33h-.63v-26.46l3.92,1.65h.21c.25-1.93,.56-4.66,.74-6.62l5.67,1.37c-.14,.59-.63,.84-1.44,.84-.91,1.23-2.28,3.05-3.4,4.41h3.05l1.86-2.1,3.81,3.01Zm-10.64,.1v8.68h5.32v-8.68h-5.32Zm5.32,18.9v-9.21h-5.32v9.21h5.32Zm22.4-19.01c-.28,.31-.73,.56-1.54,.67-.25,14.11-.74,20.51-2.66,22.58-1.26,1.33-2.8,1.89-5.11,1.89,0-1.33-.17-2.31-.77-2.87-.63-.67-2-1.22-3.71-1.54l.04-.49c1.68,.14,4.1,.32,5.01,.32,.63,0,.95-.14,1.3-.46,1.29-1.19,1.65-8.16,1.89-20.09h-6.51c-1.68,2.97-3.68,5.46-5.92,7.35l-.46-.28c1.92-3.57,3.82-9.28,4.73-14.63l5.53,1.61c-.14,.46-.56,.7-1.37,.7-.59,1.5-1.23,2.91-1.96,4.24h5.57l2.21-2.28,3.75,3.29Zm-15.47,6.12c10.22,3.01,6.41,10.57,2.7,7.46-.17-2.49-1.58-5.32-2.98-7.25l.28-.21Z"/>
      <path class="cls-2" d="M401.46,222.41c-.28,.31-.59,.35-1.29,.42-1.23,1.05-3.29,2.52-4.8,3.36l-.35-.25c.35-1.05,.81-2.62,1.08-3.89h-14.21l4.1,.95c-.14,.42-.59,.63-1.71,.67-.42,.46-.91,.91-1.44,1.37h6.44l2.07-2,3.92,3.19c-.28,.31-.81,.45-1.68,.49-4.62,5.95-11.41,9.21-23.07,10.33l-.21-.49c4.87-1.19,9-2.7,12.32-4.76-.49,.14-1.05,.1-1.68-.21-.46-1.19-1.54-2.42-2.62-3.33-2.24,1.26-4.76,2.35-7.46,3.05l-.24-.35c4.13-2.24,7.77-5.95,9.52-8.89h-6.79c.28,2.28-.49,3.92-1.58,4.62-1.12,.7-2.8,.42-3.22-.91-.39-1.26,.31-2.21,1.4-2.73,1.05-.66,2.28-2.28,2.1-3.96h.49c.28,.7,.49,1.37,.63,2h22.72l2.03-2.07,3.54,3.4Zm-32.73-14.95h10.68v-3.4l4.48,.42c-.07,.38-.31,.67-1.05,.8v5.25c0,.24-1.54,.77-2.8,.77h-.63v-2.87h-10.36l-.32-.98Zm25.59,2.77l3.75,2.8c-.21,.25-.66,.53-1.33,.67v4.83c-.03,.28-1.92,1.08-3.22,1.08h-.66v-1.22h-16.14v.7c0,.32-1.68,1.12-3.22,1.12h-.52v-9.66l3.99,1.58h15.54l1.82-1.89Zm-17.61,7.14h3.05v-4.24h-3.05v4.24Zm4.94,8.65c-.63,.49-1.29,.95-2,1.4,4.2,.35,4.8,2.7,3.85,3.82,2.17-1.43,3.99-3.15,5.43-5.22h-7.28Zm1.54-12.88v4.24h3.12v-4.24h-3.12Zm7.14-2.84c0,.25-1.54,.77-2.8,.77h-.63v-7l4.48,.42c-.07,.35-.28,.67-1.05,.77v2.21h5.46l2-2.76s2.35,1.89,3.64,3.18c-.11,.39-.42,.56-.91,.56h-10.19v1.86Zm-.56,2.84v4.24h3.08v-4.24h-3.08Z"/>
      <path class="cls-2" d="M416.44,206.17c-.14,.38-.52,.7-1.26,.7-1.93,3.4-5.5,7.91-8.54,10.71,1.82,0,4.41-.04,7.11-.1,1.29-2.31,2.35-4.55,2.94-6.34l5.36,2.73c-.21,.35-.73,.67-1.54,.56-2.77,4.8-8.72,11.69-13.79,15.93,2.59-.17,6.34-.49,10.33-.88-.39-1.86-1.05-3.68-1.82-5.15l.42-.21c9.73,5.25,5.46,13.65,1.75,9.8,.07-1.08,.03-2.24-.14-3.4-2.66,1.05-6.37,2.42-10.71,3.82-.21,.35-.49,.6-.8,.74l-2.14-4.76s1.05-.21,1.5-.63c2.21-2.03,5.25-6.3,7.74-10.54-1.71,.66-3.82,1.44-6.09,2.17-.21,.32-.45,.53-.74,.63l-2.07-4.48s.8-.21,1.15-.49c2.07-2.31,5.01-8.93,5.81-12.6l5.53,1.79Zm19.99,3.08c-.28,.35-.77,.56-1.61,.7-.35,17.01-1.02,22.89-3.15,25.17-1.33,1.4-3.01,1.92-4.9,1.92,0-1.43-.11-2.34-.53-2.91-.45-.7-1.4-1.19-2.73-1.54l.04-.46c1.09,.07,2.77,.21,3.5,.21,.6,0,.95-.14,1.37-.52,1.47-1.37,2.03-8.3,2.38-22.58h-13.27l-.31-1.01h13.16l2.27-2.38,3.78,3.4Z"/>
      <path class="cls-2" d="M466.63,222.9s2.63,1.96,4.17,3.33c-.07,.38-.46,.56-.94,.56h-13.69c-1.16,4.87-4.34,8.26-17.05,10.33l-.21-.56c8.82-2.66,11.66-5.7,12.67-9.77h-11.24l-.28-1.01h11.73c.21-1.26,.28-2.59,.35-4.1l5.81,.42c-.07,.49-.42,.88-1.23,.98-.11,.94-.21,1.82-.35,2.7h7.95l2.31-2.87Zm-14.11-2.59v-4.16h-9.63l-.28-1.02h9.91v-3.96h-11.52l-.32-1.02h8.86c-.39-.1-.77-.28-1.16-.56-.17-1.82-1.26-3.75-2.35-4.97l.28-.21c7.39,.63,6.76,5.11,4.34,5.74h6.48c.73-1.75,1.47-4.13,1.93-5.88l5.5,1.23c-.14,.46-.52,.74-1.33,.7-1.19,1.16-3.15,2.73-4.97,3.96h5.46l2.24-2.8s2.56,1.89,4.06,3.25c-.1,.38-.46,.56-.98,.56h-12.08v3.96h4.8l2.1-2.59s2.42,1.75,3.89,3.05c-.1,.38-.49,.56-.98,.56h-9.8v4.16h7.49l2.27-2.91s2.59,1.96,4.06,3.36c-.07,.38-.46,.56-.91,.56h-30.45l-.28-1.01h13.37Zm4.87,7.63c15.54,1.29,14.77,10.33,10.01,8.79-2.21-2.98-6.79-6.48-10.29-8.44l.28-.35Z"/>
      <path class="cls-2" d="M502.47,215.52s2.35,1.82,3.75,3.08c-.1,.38-.45,.56-.98,.56h-31.08l-.28-.98h14.91c-.25-1.09-1.19-2.27-2-2.84l.25-.25c5.39-.91,5.53,2.1,3.95,3.08h9.42l2.07-2.66Zm-10.43,11.9v5.08c0,2.66-.66,4.27-5.11,4.62-.04-1.19-.18-2.1-.67-2.62-.39-.53-1.05-1.02-2.7-1.23v-.49s3.01,.21,3.71,.21c.49,0,.63-.21,.63-.56v-5.01h-3.64v.42c0,.25-.88,.7-1.92,.98l3.85,1.79c-.1,.35-.42,.56-1.26,.46-2.21,2.21-6.34,4.34-10.47,5.25l-.25-.42c2.73-1.71,5.36-4.51,6.79-6.83h-.88v-9.24l4.34,1.68h10.89l1.89-2.07,4.06,3.05c-.21,.25-.7,.56-1.4,.7v4.59c-.04,.25-2.17,.91-3.47,.91h-.74v-1.26h-3.68Zm-8.68-11.62c0,.38-1.82,1.19-3.47,1.19h-.59v-12.32l4.31,1.71h12.74l1.89-2.07,4.03,2.98c-.25,.28-.7,.63-1.43,.77v7.35c-.04,.21-2.1,.91-3.43,.91h-.7v-1.44h-13.34v.91Zm0-8.44v2.73h13.34v-2.73h-13.34Zm13.34,6.51v-2.77h-13.34v2.77h13.34Zm-12.43,12.57h11.45v-3.92h-11.45v3.92Zm9.8,2.87c13.76,.42,10.61,8.96,6.58,6.79-.84-1.64-3.29-4.38-6.72-6.33l.14-.46Z"/>
      <path class="cls-2" d="M511.25,220.66c0-2.73,2.24-4.94,4.97-4.94s4.94,2.21,4.94,4.94-2.2,4.97-4.94,4.97-4.97-2.24-4.97-4.97Zm1.26,0c0,2.03,1.65,3.71,3.71,3.71s3.68-1.68,3.68-3.71-1.65-3.67-3.68-3.67-3.71,1.64-3.71,3.67Z"/>
    </g>
  </g>
</svg>