<?xml version="1.0" encoding="UTF-8"?>
<svg id="_圖層_2" data-name="圖層 2" xmlns="http://www.w3.org/2000/svg" viewBox="0 0 518.15 57.23">
  <defs>
    <style>
      .cls-1 {
        fill: #fff100;
      }
    </style>
  </defs>
  <g id="_圖層_1-2" data-name="圖層 1">
    <g>
      <path class="cls-1" d="M44.78,49.46l4.49-5.7s4.98,3.82,8.07,6.43c-.18,.67-.85,.97-1.76,.97H.49l-.49-1.7H44.78Zm-2.97-41.99l4.37-5.52s4.92,3.76,7.89,6.31c-.18,.67-.91,.97-1.76,.97H3.76l-.49-1.76H41.81Zm-4.61,19.97l4.25-5.28s4.79,3.58,7.71,6.07c-.18,.67-.85,.97-1.76,.97H7.83l-.49-1.76h29.86Z"/>
      <path class="cls-1" d="M78.1,18.14c-.24,.55-.79,.97-1.94,1.15V54.98c-.06,.55-2.97,2.06-5.7,2.06h-1.34V24.15c-2.67,3.1-5.58,5.77-8.68,8.01l-.73-.49c5.28-7.52,10.62-19.66,13.29-31.68l10.13,3.22c-.24,.79-.97,1.34-2.37,1.27-1.82,4.55-3.94,8.62-6.25,12.32l3.58,1.33Zm37.62,31.25c2.25,3.52,2.55,5.28,1.58,6.31-2.67,2.85-7.77,.42-10.8-1.94-9.29-7.59-13.53-18.63-15.35-31.62l-12.38,1.46-.67-1.64,12.8-1.52c-.79-6.13-1.03-12.68-1.03-19.48l9.47,1.15c-.12,.79-.67,1.52-2.18,1.76-.12,5.34,.06,10.68,.61,15.78l7.83-.91,3.58-5.52s4.98,2.73,8.13,4.85c-.12,.67-.73,1.09-1.58,1.21l-17.78,2.06c1.46,10.62,4.92,19.9,12.62,25.43,.97,.85,1.4,.85,2-.18,1.03-1.58,2.73-4.85,3.88-7.52l.67,.12-1.4,10.19ZM101.59,2.12c16.26,.73,11.71,12.74,5.34,9.04-.91-3.03-3.52-6.55-5.83-8.62l.49-.42Z"/>
      <path class="cls-1" d="M176.72,6.68c-.42,.49-1.21,1.03-2.49,1.27V49.09c0,4.67-1.27,7.34-9.89,8.13-.3-2.12-.73-3.64-1.88-4.67-1.33-.97-2.97-1.82-6.68-2.31v-.85s8.13,.55,9.89,.55c1.21,0,1.58-.55,1.58-1.46V6.8h-35.14V54.43c0,.91-2.79,2.67-5.7,2.67h-1.21V1.94l7.46,3.1h33.98l3.28-3.76,6.8,5.4Zm-18.39,3.34s4.25,3.22,6.8,5.34c-.18,.67-.85,.97-1.76,.97h-27.85l-.49-1.7h19.66l3.64-4.61Zm2.73,32.47c-.06,.49-3.4,1.88-5.58,1.88h-1.15v-5.64h-9.71v5.04c0,.55-2.79,2-5.58,2h-.97V21.06l6.86,2.73h8.8l3.09-3.34,6.43,4.92c-.36,.42-1.15,.91-2.18,1.09v16.02Zm-6.74-5.46v-11.47h-9.71v11.47h9.71Z"/>
      <path class="cls-1" d="M238.99,15.05c-.49,.55-1.09,.67-2.37,.73-2.25,1.64-5.76,3.7-8.74,5.04l1.58,1.15c-.3,.42-1.09,.97-2.18,1.15v10.68c-.06,.42-3.52,1.64-5.7,1.64h-1.21v-2.31h-6.49v8.44h8.38l3.7-4.92s4.25,3.34,6.74,5.64c-.18,.67-.79,.97-1.64,.97h-17.17v9.77h13.84l3.76-5.04s4.25,3.46,6.8,5.83c-.18,.67-.79,.97-1.64,.97h-52.61l-.49-1.76h23.3v-9.77h-16.99l-.49-1.7h17.48v-8.44h-6.37v1.27c0,.61-3.03,2.06-5.76,2.06h-.97V17.6l7.1,2.79h18.93l3.09-3.34,4.07,3.03c.61-1.7,1.27-4.01,1.76-5.83h-37.2c.55,4.31-1.09,7.34-3.34,8.5-2.06,1.09-4.79,.42-5.52-1.94-.61-2.31,.85-3.94,2.85-4.79,2-1.15,3.88-4.07,3.4-7.4l.85-.06c.67,1.46,1.15,2.79,1.46,4.07h15.47V0l9.41,.79c-.12,.73-.55,1.27-2.06,1.58V12.62h3.58c1.46-3.4,3.03-8.13,3.88-11.47l10.07,2.73c-.3,.73-1.03,1.21-2.37,1.15-2.49,2.18-6.43,5.28-10.07,7.59h9.35l3.88-3.88,6.68,6.31ZM192.08,1.34c16.14,2.49,10.38,14.5,4.19,10.01-.42-3.46-2.67-7.22-4.73-9.65l.55-.36Zm28.28,30.04v-9.22h-19.9v9.22h19.9Z"/>
      <path class="cls-1" d="M258.95,23.79c2.67,0,4.79,2.12,4.79,4.79s-2.12,4.79-4.79,4.79-4.79-2.12-4.79-4.79,2.12-4.79,4.79-4.79Z"/>
      <path class="cls-1" d="M302.89,1.58l6.61,5.1c-.36,.49-1.21,1.03-2.43,1.27V30.52c-.12,.42-3.46,1.76-5.64,1.76h-1.15v-3.64h-10.38v15.72c2.97-1.15,6.31-2.61,9.83-4.13-.97-2.67-2.25-5.16-3.58-7.22l.67-.36c17.72,9.53,11.47,24.09,5.16,18.02,0-2.73-.61-5.64-1.52-8.5-3.22,2.79-7.52,6.49-12.74,10.44-.55,1.09-1.33,1.88-2,2.25l-4.37-7.77c1.64-1.09,1.94-1.64,1.94-3.16V2.12l7.4,2.91h8.98l3.22-3.46Zm-2.61,14.32V6.8h-10.38V15.9h10.38Zm0,11.04v-9.28h-10.38v9.28h10.38Zm35.26-20.21c-.42,.49-1.21,.97-2.37,1.21v30.4c0,4.79-.97,7.59-8.25,8.25-.12-2.31-.36-4.07-1.03-5.04-.79-1.15-1.82-1.88-4.25-2.37v-.85s4.55,.3,5.64,.3c.91,0,1.15-.36,1.15-1.15V6.92h-8.56V54.56c0,.85-2.49,2.55-5.58,2.55h-1.15V2.12l6.98,3.03h7.71l3.03-3.52,6.67,5.1Z"/>
      <path class="cls-1" d="M361.94,1.21c-.12,.85-.55,1.46-2.18,1.7V54.56c0,.79-2.91,2.43-5.46,2.43h-1.27V31.31h-2.97c-.3,10.07-1.58,19.05-9.89,25.18l-.73-.85c4.25-6.92,4.25-15.35,4.25-24.33h-3.82l-.55-1.7h13.71v-8.25h-4.25l-1.76,2.25-6.37-3.03c.36-.42,.91-.97,1.46-1.46V2.79l8.62,.91c-.12,.67-.67,1.15-2.31,1.4v14.5h4.61V.24l8.92,.97Zm11.83,15.6c-1.88,1.52-4.79,3.82-8.74,6.55-.24,.85-.67,1.34-1.33,1.52l-3.22-6.01c2.43-.42,7.89-1.58,13.11-2.79l.18,.73Zm18.39,8.92s3.52,3.58,5.46,5.95c-.18,.67-.79,.97-1.64,.97h-8.01v16.08c0,4.73-1.15,7.46-9.41,8.19-.24-2.18-.67-3.7-1.64-4.67-1.09-1.03-2.61-1.82-6.13-2.31v-.91s7.53,.49,8.92,.49c1.09,0,1.4-.3,1.4-1.15v-15.72h-19.9l-.49-1.7h20.39v-8.62l8.92,.85c-.12,.91-.73,1.4-2.06,1.58v6.19h1.03l3.16-5.22Zm-31.25-9.83c4.19-3.64,8.74-10.32,10.86-15.84l9.34,2.37c-.24,.67-.73,.97-2.43,.79-.85,1.09-1.82,2.18-2.91,3.28h10.98l3.4-3.4,6.68,5.46c-.49,.55-1.4,.79-2.91,.91-6.55,9.53-16.57,16.63-32.47,20.21l-.49-.79c6.86-2.91,12.68-6.49,17.36-10.92-.73,.3-1.7,.3-2.79-.24-.85-2.25-3.03-4.73-5.22-6.43-2.79,2.12-5.89,3.94-8.92,5.22l-.49-.61Zm4.19,18.33c15.9,3.34,10.2,15.05,4.37,10.5-.36-3.52-2.67-7.52-4.85-10.13l.49-.36Zm8.86-25.97c-.67,.67-1.4,1.27-2.18,1.88,7.28,.55,9.04,4.07,8.19,6.37,2.43-2.55,4.55-5.28,6.37-8.25h-12.38Z"/>
      <path class="cls-1" d="M455.28,48.18c1.94,.79,2.37,1.64,2.37,2.97,0,2.91-2.49,4.25-12.62,4.25h-6.07c-6.25,0-7.53-1.27-7.53-6.07v-17.23h-6.55c-1.03,11.35-3.76,20.27-24.15,25l-.42-.79c14.62-6.61,16.45-14.87,16.93-24.21h-13.9l-.55-1.76h42.48l3.76-4.61s4.25,3.16,6.86,5.4c-.18,.67-.79,.97-1.64,.97h-15.72v15.54c0,.91,.3,1.15,2.06,1.15h5.22c1.82,0,3.52,0,4.37-.06,.73-.06,1.03-.24,1.46-.85,.67-1.09,1.58-4.07,2.79-7.83h.67l.18,8.13Zm-45.03-36.11c.55,4.49-.97,7.65-3.22,9.04-2.06,1.4-5.46,.67-6.43-1.94-.61-2.49,.79-4.37,2.85-5.4,2.12-1.09,4.73-3.94,4.61-7.04h.79c.49,1.27,.85,2.49,1.09,3.64h37.08l3.76-3.82,6.61,6.25c-.49,.55-1.09,.67-2.37,.73-2.25,2.18-5.95,4.85-8.98,6.43l-.49-.36c.67-2.06,1.4-5.1,1.82-7.52h-37.14Zm29.07,3.94s4.07,2.97,6.62,5.16c-.12,.67-.79,.97-1.64,.97h-32.04l-.49-1.7h23.91l3.64-4.43ZM423.48,.18c17.72,.24,10.8,14.2,3.64,8.92-.06-3.1-1.76-6.55-4.07-8.56l.42-.36Z"/>
      <path class="cls-1" d="M510.26,44.72s4.92,3.76,7.89,6.37c-.18,.67-.79,.97-1.76,.97h-54.68l-.49-1.7h24.33V11.41h-19.84l-.49-1.76h36.96l4.37-5.58s4.92,3.76,7.89,6.37c-.18,.67-.91,.97-1.76,.97h-19.3V50.37h12.44l4.43-5.64Z"/>
    </g>
  </g>
</svg>