<?xml version="1.0" encoding="UTF-8"?>
<svg id="_圖層_2" data-name="圖層 2" xmlns="http://www.w3.org/2000/svg" viewBox="0 0 772.43 124.43">
  <defs>
    <style>
      .cls-1 {
        fill: #fff;
        opacity: .7;
      }

      .cls-2 {
        fill: #231815;
      }
    </style>
  </defs>
  <g id="_圖層_1-2" data-name="圖層 1">
    <rect class="cls-1" width="772.43" height="124.43" rx="30" ry="30"/>
    <g>
      <path class="cls-2" d="M26.39,44.87s2.14,1.89,3.33,3.22c-.07,.39-.42,.56-.91,.56h-12.46l-.28-1.02h8.44l1.89-2.76Zm-9.42-11.03l-.28-1.02h6.06l1.82-2.59s2.03,1.82,3.15,3.05c-.1,.39-.46,.56-.91,.56h-9.84Zm22.19,3.92c-.11,.46-.52,.81-1.37,.81-.03,.35-.07,.7-.1,1.08,.88,6.72,3.68,12.01,11.1,15.19l-.03,.42c-1.75,.35-2.77,1.33-3.08,3.4-5.53-3.4-7.56-9.59-8.37-16.28-1.05,6.2-3.71,12.04-14.81,16.35l-.39-.56c10.78-6.27,11.9-13.44,12.22-21.53l4.83,1.12Zm-13.3,4.27c2.38-3.85,4.45-9.77,5.22-15.82l4.97,1.16c-.1,.46-.52,.8-1.33,.8-.52,1.86-1.16,3.54-1.86,5.11h10.71l1.93-1.96,3.43,3.29c-.28,.28-.66,.38-1.43,.42-1.16,2.38-3.33,5.67-5.29,7.7l-.39-.25c.77-2.27,1.58-5.74,2-8.19h-11.41c-1.61,3.33-3.64,6.06-6.09,8.05l-.46-.32Z"/>
      <path class="cls-2" d="M77.28,28.6c.42,13.51,2.03,21.6,8.33,26.18l-.07,.42c-1.51,.35-2.52,1.58-2.94,3.46-3.61-3.75-5.04-10.54-5.64-19.6-.66,8.02-2.84,14.81-10.82,19.71l-.42-.53c1.65-1.47,2.94-2.98,4.03-4.62h-12.15l-1.09,1.75-3.5-2.14c.25-.28,.63-.63,1.02-.88V27.16l3.85,1.96h8.16l1.96-2.62s2.2,1.82,3.54,3.08c-.11,.38-.46,.56-.95,.56h-6.2v6.2h2.49l1.5-1.61,2.87,2.49c-.25,.28-.7,.53-1.26,.63v7.84c-.07,.14-1.33,.7-2.56,.7h-.63v-1.61h-2.41v7.84h1.44l1.85-2.55s1.5,1.33,2.7,2.49c4.03-7.07,3.61-15.86,3.64-26.29l4.52,.46c-.07,.53-.39,.88-1.26,.98v.91Zm-15.96,7.74v-6.2h-3.99v6.2h3.99Zm5.5,1.01h-9.49v6.41h9.49v-6.41Zm-5.5,15.26v-7.84h-3.99v7.84h3.99Z"/>
      <path class="cls-2" d="M117.35,53.66s2.34,1.79,3.81,3.04c-.1,.38-.46,.56-.98,.56h-30.66l-.32-1.01h14.14v-5.22h-10.22l-.28-1.01h10.5v-4.97l4.69,.38c-.04,.53-.32,.84-1.19,.98v3.61h5.22l2-2.45s2.24,1.68,3.68,2.91c-.11,.38-.46,.56-.95,.56h-9.94v5.22h8.4l2.1-2.59Zm-23.1-21.74c.14,2.34-.74,3.96-1.86,4.69-.98,.67-2.45,.52-2.87-.56-.39-1.01,.25-1.89,1.12-2.34,1.29-.67,2.55-2.56,2.45-4.59l.52-.04c.25,.63,.39,1.26,.49,1.82h11.34c-.32-.04-.63-.17-.95-.38-.25-1.5-1.4-3.19-2.59-4.1l.28-.25c6.65,.07,6.13,4.34,3.92,4.73h10.12l1.82-1.86,3.22,3.12c-.28,.28-.63,.39-1.33,.42-.88,1.08-2.31,2.59-3.5,3.43l-.39-.21c.17-1.05,.39-2.62,.49-3.88h-22.3Zm-.98,11.13s.74-.11,1.09-.28c2.62-1.05,6.06-4.03,7.81-6.02h-8.02l-.28-1.01h17.15l1.89-2.24s2.14,1.54,3.47,2.7c-.07,.38-.46,.56-.91,.56h-11.31l2.73,1.44c-.17,.31-.63,.56-1.37,.42-2.06,1.47-5.57,3.33-8.79,4.58,3.88-.04,9.84-.17,16.1-.42-1.09-1.29-2.31-2.49-3.36-3.36l.35-.28c10.47,2.35,8.79,9.07,5.36,7.25-.38-.91-1.01-1.89-1.75-2.87-4.24,.7-10.4,1.61-17.64,2.45-.28,.49-.63,.8-.98,.95l-1.54-3.85Z"/>
      <path class="cls-2" d="M142.41,47.36c-3.36,2-8.02,4.66-14.67,7.7-.14,.42-.46,.81-.84,.95l-1.92-3.95c1.16-.25,2.91-.7,4.97-1.3l-.35-22.61,4.62,.35c-.04,.49-.32,.88-1.26,1.01l.32,20.27c2.8-.88,5.95-1.86,9-2.87l.14,.45Zm13.23-18.62c-.07,.52-.49,.95-1.33,1.01-.32,7.46-.84,13.76-4.48,18.83,10.75,4.62,8.61,11.66,4.9,9.35-1.01-2.62-3.43-5.81-5.67-8.29-3.04,3.67-7.88,6.72-15.75,9.14l-.32-.6c16.38-7.35,17.4-16.38,17.68-29.93l4.97,.49Zm-18.38,3.43c10.82,3.57,8.26,10.71,4.73,8.23-.74-2.63-3.15-5.88-5.08-8.02l.35-.21Z"/>
      <path class="cls-2" d="M168.06,43.33v14.35c0,.35-1.19,1.12-2.56,1.12h-.49v-24.5c-.95,.7-1.93,1.29-2.87,1.79l-.42-.38c2.21-2.17,4.55-5.81,5.88-9.77l4.38,1.61c-.14,.38-.6,.7-1.37,.63-.28,.46-.56,.88-.88,1.3h4.45l1.54-2.07s1.82,1.47,2.94,2.52c-.07,.39-.46,.56-.95,.56h-8.75c-1.09,1.37-2.31,2.52-3.57,3.5l2.83,1.26h5.67l1.4-1.54,2.76,2.45c-.24,.25-.7,.52-1.26,.63v7.07c-.07,.14-1.22,.84-2.49,.84h-.59v-1.37h-5.67Zm0-7.07v2.49h5.67v-2.49h-5.67Zm5.67,6.06v-2.55h-5.67v2.55h5.67Zm-3.75-11.2c6.13,.46,3.78,4.76,1.47,3.12-.14-1.05-.98-2.24-1.79-2.91l.31-.21Zm15.33,15.72c-.21,.25-.7,.56-1.33,.67v8.19c-.04,.25-1.47,.84-2.41,.84h-.49v-1.89h-5.92v1.44c0,.28-1.26,.91-2.41,.91h-.42v-12.22l3.01,1.29h5.42l1.44-1.58,3.12,2.35Zm-10.15,.25v2.73h5.92v-2.73h-5.92Zm5.92,6.55v-2.8h-5.92v2.8h5.92Zm9.7-26.36s2.03,1.51,3.22,2.66c-.07,.39-.42,.56-.88,.56h-10.92c-1.47,1.79-3.22,3.12-4.97,4.06l-.45-.32c1.58-1.92,3.19-5.04,4.13-8.26l4.27,1.71c-.14,.39-.6,.66-1.37,.56-.25,.42-.53,.84-.81,1.23h6.06l1.72-2.21Zm-.98,6.34l2.91,2.7c-.28,.25-.8,.53-1.33,.63v18.24c0,2.21-.66,3.4-3.99,3.61,0-.88-.17-1.47-.49-1.96-.35-.49-1.12-.94-2.34-1.15v-.45s1.92,.1,3.05,.1c.49,0,.63-.1,.63-.45v-11.52h-5.74v.25c0,.24-1.37,.94-2.63,.94h-.42v-10.64l3.22,1.37h5.99l1.16-1.65Zm-7.32,2.66v2.49h5.74v-2.49h-5.74Zm5.74,6.06v-2.55h-5.74v2.55h5.74Zm-4.48-11.34c6.44,.28,4.06,4.94,1.61,3.22-.17-1.05-1.05-2.31-1.93-2.94l.32-.28Z"/>
      <path class="cls-2" d="M226.9,48.65s2.42,1.79,3.92,3.12c-.1,.38-.46,.56-.98,.56h-13.83v5.6c0,.21-1.09,.84-2.84,.84h-.59v-6.44h-14.32l-.32-1.01h14.63v-3.47h-6.23v.84c0,.31-1.47,1.05-2.8,1.05h-.49v-13.65c-.38,.11-.8,.17-1.19,.17h-.46v-9.35l3.29,1.37h4.73l1.54-1.68,3.36,2.49c-.21,.25-.74,.53-1.4,.67v5.01c-.04,.25-1.58,.88-2.62,.88h-.53v-1.26h-5.21v.91c0,.17-.46,.46-1.12,.7l3.18,1.3h15.26l1.68-1.75,3.43,2.63c-.21,.21-.7,.49-1.4,.63v9.42c-.04,.25-1.65,1.01-2.8,1.01h-.56v-1.37h-6.23v3.47h8.75l2.14-2.66Zm-22.33-19.39v4.13h5.21v-4.13h-5.21Zm1.79,9.03v3.71h6.23v-3.71h-6.23Zm6.23,8.54v-3.82h-6.23v3.82h6.23Zm6.55-11.87c0,.28-1.44,.98-2.77,.98h-.46v-9.07l3.4,1.4h4.69l1.5-1.72,3.43,2.52c-.25,.25-.77,.56-1.44,.7v5.04c-.04,.24-1.61,.91-2.66,.91h-.53v-1.37h-5.18v.59Zm-3.12,3.33v3.71h6.23v-3.71h-6.23Zm6.23,8.54v-3.82h-6.23v3.82h6.23Zm-3.12-17.57v4.13h5.18v-4.13h-5.18Z"/>
      <path class="cls-2" d="M241.71,36.33c-.1,.31-.42,.56-1.05,.67v20.83c-.04,.21-1.33,.88-2.52,.88h-.56v-18.52c-.95,1.54-1.96,2.91-3.05,4.09l-.49-.28c2.24-4.48,4.38-11.27,5.46-17.75l4.52,1.4c-.14,.42-.56,.73-1.37,.73-.74,2.56-1.65,5.01-2.66,7.28l1.71,.67Zm11.45-1.16s1.93,1.65,3.01,2.8c-.11,.38-.42,.52-.88,.52h-4.76v2.28c7.18,2.91,4.41,8.05,1.89,5.85-.14-1.61-1.02-3.47-1.89-4.9v16.14c0,.25-1.02,.91-2.49,.91h-.53v-13.69c-1.54,2.84-3.6,5.39-6.2,7.56l-.42-.46c2.94-3.68,4.83-8.72,5.88-13.69h-4.62l-.28-.98h5.63v-6.16c-1.68,.32-3.43,.59-5.08,.77l-.17-.53c3.54-1.16,7.77-3.29,9.84-4.9l3.61,2.91c-.32,.31-.98,.38-1.93,.07-.91,.35-2.03,.67-3.25,.98v6.86h.91l1.71-2.35Zm6.09,14.88c0,.31-1.29,.94-2.38,.94h-.6V29.58l4.13,.46c-.11,.42-.35,.74-1.16,.84v19.18Zm7.56-22.82c-.07,.52-.42,.84-1.26,.98v26.36c0,2.42-.46,3.82-4.34,4.2-.1-1.02-.28-1.82-.73-2.38-.53-.56-1.33-.91-2.91-1.16v-.56s3.39,.25,4.13,.25c.59,0,.77-.17,.77-.67V26.78l4.34,.46Z"/>
      <path class="cls-2" d="M278.25,31.54h-7.18l-.28-1.01h7.32l-.63-4.2,4.34,.24c-.04,.45-.28,.81-.98,.98l.46,2.98h.98l1.75-2.38s2.07,1.68,3.25,2.84c-.1,.38-.42,.56-.91,.56h-4.9l.46,2.91c-.46,.67-1.64,.95-3.12,.95l-.56-3.85Zm-6.3,7.98c7.98,.77,5.81,6.41,2.84,4.62-.46-1.5-1.92-3.33-3.15-4.34l.32-.28Zm10.43-1.33c-1.37,3.08-4.17,9.1-4.66,10.4-.32,.95-.63,1.96-.59,2.73,.04,1.44,1.19,2.56,1.08,5.04-.07,1.43-.98,2.34-2.49,2.34-.7,0-1.33-.49-1.54-1.54,.49-3.15,.31-5.46-.46-5.95-.46-.28-.98-.42-1.68-.45v-.73h1.65c.49,0,.63,0,1.05-.63q.81-1.09,7.07-11.38l.56,.18Zm-8.3-3.92c8.4,.67,6.58,6.3,3.47,4.8-.77-1.47-2.49-3.4-3.78-4.55l.31-.25Zm25.76,3.43c-.28,.35-.67,.46-1.54,.49-1.33,1.85-3.01,3.57-5,5.04,2.97,1.19,6.3,1.96,9.56,2.38v.42c-1.29,.31-2.1,1.26-2.41,2.76-1.23-.31-2.42-.7-3.57-1.12l2.34,1.75c-.17,.25-.59,.49-1.16,.6v7.67c-.04,.24-1.64,.84-2.66,.84h-.56v-1.96h-7.98v1.19c0,.25-1.05,1.02-2.66,1.02h-.56v-10.47c-1.4,.49-2.87,.91-4.34,1.26l-.28-.53c3.78-1.4,7.35-3.36,10.29-5.71-1.22-1.05-2.31-2.28-3.18-3.68-1.54,1.71-3.36,3.26-5.32,4.31l-.38-.35c2.59-2.38,4.97-6.58,6.06-10.15l4.34,1.33c-.14,.35-.46,.49-1.33,.38-.28,.49-.63,.98-.98,1.5h6.27l1.96-1.75,3.12,2.77Zm-3.99,9.56c-1.71-.67-3.29-1.5-4.73-2.49-1.82,1.16-3.85,2.17-6.02,3.01l2.2,.88h7.21l1.33-1.4Zm-8.09-9.56c-.31,.46-.7,.91-1.09,1.33,1.12,1.16,2.52,2.21,4.1,3.04,1.5-1.37,2.76-2.83,3.78-4.38h-6.79Zm7.07,17.85v-5.88h-7.98v5.88h7.98Zm5.67-27.41s1.96,1.68,3.22,2.84c-.11,.38-.46,.56-.95,.56h-7.77l-.53,3.22c-.59,.45-1.89,.63-3.25,.35l.56-3.57h-3.43l-.28-1.01h3.85l.67-4.24,4.3,.91c-.1,.46-.46,.8-1.33,.8l-.38,2.52h3.5l1.82-2.38Z"/>
      <path class="cls-2" d="M322.77,33.6c-.24,.28-.77,.56-1.47,.74v21.11c-.04,.28-1.58,.98-2.66,.98h-.49v-2.7h-6.2v2.7c0,.35-1.19,1.12-2.52,1.12h-.53V31.29l3.22,1.47h.63c.32-1.86,.74-4.55,.98-6.48l4.83,1.16c-.17,.56-.63,.8-1.4,.8-.84,1.33-2.06,3.12-3.04,4.52h3.68l1.61-1.82,3.36,2.66Zm-10.82,.17v8.72h6.2v-8.72h-6.2Zm6.2,18.94v-9.21h-6.2v9.21h6.2Zm21.7-19.11c-.28,.32-.7,.53-1.5,.63-.25,13.58-.8,20.62-2.59,22.65-1.12,1.3-2.63,1.82-4.66,1.82,0-1.09-.17-1.92-.73-2.42-.6-.56-2-1.05-3.61-1.33l.04-.56c1.64,.17,4.09,.35,4.93,.35,.7,0,.98-.11,1.37-.46,1.3-1.26,1.72-8.61,1.96-20.58h-7.35c-1.61,2.91-3.5,5.46-5.6,7.35l-.49-.32c2.06-3.54,4.09-9.1,5.15-14.46l4.66,1.37c-.14,.42-.56,.73-1.33,.73-.53,1.51-1.16,2.94-1.86,4.31h6.44l1.89-2,3.29,2.91Zm-14.98,6.27c9.45,3.33,6.37,10.12,3.19,7.46-.28-2.42-1.96-5.36-3.5-7.25l.31-.21Z"/>
      <path class="cls-2" d="M346.88,48.72c1.16,3.54,.81,6.2-.14,7.53-.66,.84-2.24,1.01-2.8,.04-.46-.84-.07-1.79,.74-2.42,.88-.88,1.82-3.19,1.61-5.15h.59Zm-2.8-4.2s.77-.17,1.08-.38c1.58-1.37,3.5-3.89,5.04-6.37-1.05,.42-2.34,.88-3.67,1.33-.28,.45-.59,.73-.95,.88l-1.5-3.68s.7-.14,.98-.35c1.82-1.93,4.17-6.93,4.9-9.59l4.03,2.03c-.14,.32-.56,.53-1.26,.49-1.43,2.28-3.96,5.39-6.27,7.49,1.33,.04,2.98,.04,4.62,0,.77-1.3,1.4-2.52,1.79-3.5l3.6,2.45c-.17,.28-.63,.53-1.29,.39-1.82,2.62-5.29,6.33-8.47,8.86,1.75-.1,3.99-.25,6.41-.42-.39-1.29-.95-2.56-1.51-3.54l.46-.17c6.3,3.54,3.71,8.33,1.47,6.23,0-.49-.07-1.05-.21-1.58-1.86,.67-4.38,1.54-7.11,2.34-.25,.35-.56,.6-.88,.7l-1.26-3.61Zm5.64,3.68c4.97,4.45,1.71,9.07-.25,6.58,.42-2.1,.21-4.69-.25-6.44l.49-.14Zm3.18-.59c5.99,2.83,3.4,7.39,1.23,5.42,0-1.71-.84-3.88-1.65-5.21l.42-.21Zm22.68-2c-.17,.28-.7,.49-1.29,.21-.98,.66-2.7,1.68-4.31,2.55,1.89,2.38,4.24,3.96,6.41,5.01l-.07,.38c-1.19,.25-2.07,1.29-2.45,2.77-3.22-2.8-5.43-6.16-6.72-11.94v10.15c0,2.17-.53,3.67-4.13,3.99-.07-.91-.21-1.68-.66-2.1-.49-.46-1.19-.84-2.73-1.05v-.53s3.12,.25,3.78,.25c.56,0,.73-.21,.73-.63v-8.58c-.17,.04-.38,.07-.63,.07-1.29,4.38-4.1,8.58-9.1,11.1l-.32-.46c3.47-2.73,5.53-6.83,6.41-10.92h-4.1l-.32-1.01h4.27l1.61-1.65,2.17,1.82v-3.75h-3.36v.94c0,.25-.91,.81-2.38,.81h-.53v-13.76l3.29,1.33h1.85c.21-1.29,.49-3.22,.66-4.58l4.76,.8c-.14,.53-.59,.81-1.37,.88-.7,.84-1.89,2-2.8,2.91h5.85l1.47-1.71,2.98,2.31c-.21,.28-.56,.49-1.3,.63v9.98c0,.18-1.05,.77-2.49,.77h-.53v-1.29h-3.12v1.29c.56,2,1.37,3.67,2.34,5.08,1.05-1.54,2.24-3.57,2.73-4.73l3.36,2.66Zm-14.81-13.97v3.78h9.49v-3.78h-9.49Zm9.49,8.65v-3.85h-9.49v3.85h9.49Z"/>
      <path class="cls-2" d="M390.28,27.65c-.14,.42-.56,.7-1.37,.7-.84,2.77-1.89,5.43-3.04,7.81l1.79,.67c-.11,.35-.46,.56-1.09,.67v20.37c-.04,.25-1.33,.91-2.49,.91h-.56v-18.41c-.98,1.54-2.07,2.94-3.19,4.13l-.49-.24c2.38-4.55,4.69-11.41,5.85-18.03l4.59,1.44Zm19.11,4.13c-.95,2.31-2.38,4.24-4.17,5.88,2.17,.77,4.66,1.33,7.56,1.68l-.07,.39c-1.26,.46-2,1.4-2.21,2.94-3.15-.74-5.67-1.82-7.63-3.22-2.66,1.68-5.88,2.83-9.66,3.71l-.21-.49c3.36-1.12,6.16-2.63,8.3-4.45-1.5-1.33-2.7-2.87-3.71-4.66-1.61,1.86-3.36,3.33-5.25,4.48l-.35-.31v14.11c0,.28-1.29,.91-2.41,.91h-.56V31.82l4.13,.38c-.07,.46-.35,.77-1.16,.91v4.48c2.28-2.62,4.69-6.93,6.09-11.41l4.31,1.72c-.17,.38-.59,.67-1.37,.59-.42,.8-.88,1.54-1.37,2.28h7.49l1.85-2.49s2.14,1.71,3.36,2.94c-.1,.38-.45,.56-.94,.56h-2.03Zm-18.8,24.85c2.52-2.34,4.66-6.06,5.6-8.75l4.06,1.79c-.18,.39-.49,.56-1.3,.49-1.64,2.45-4.62,5.25-8.02,6.9l-.35-.42Zm13.23-10.12v11.31c0,.32-1.4,.91-2.63,.91h-.56v-12.22h-7.04l-.28-1.01h7.32v-3.85l4.48,.42c-.07,.49-.38,.84-1.3,.98v2.45h3.01l1.82-2.28s2.1,1.58,3.36,2.73c-.1,.38-.46,.56-.91,.56h-7.28Zm-4.87-14.74c-.28,.38-.52,.74-.8,1.08,1.19,1.51,2.8,2.77,4.76,3.78,1.33-1.43,2.34-3.04,2.97-4.87h-6.93Zm5.74,16.77c10.15,2.87,7.81,9.84,4.52,7.53-.63-2.49-2.91-5.46-4.87-7.25l.35-.28Z"/>
      <path class="cls-2" d="M428.64,30.8s1.89,1.47,3.01,2.55c-.07,.38-.42,.56-.88,.56h-14.07l-.28-1.02h10.61l1.61-2.1Zm7.14,.67c0,2.94-.63,7.53-6.33,10.29,.25,.17,.46,.38,.63,.56-.11,.38-.42,.56-.91,.56h-10.96l-.28-1.02h7.74l1.58-2s1.12,.91,2.17,1.82l-.28-.35c3.22-3.01,3.64-6.72,3.64-9.87v-4.2l3.54,1.37h3.82l1.61-1.68,3.01,2.52c-.21,.24-.67,.42-1.29,.52v6.41c0,.38,.11,.52,.6,.52h1.12c.42,0,.84,0,1.05-.04h.63c.21-.03,.49-.1,.74-.14h.31l.14,.04c.8,.31,1.08,.59,1.08,1.19,0,1.19-1.05,1.82-4.31,1.82h-1.75c-2.28,0-2.59-.66-2.59-2.55v-7.6h-4.69v1.82Zm-10.12,5.88l1.58-1.96s1.75,1.37,2.84,2.41c-.11,.39-.42,.56-.91,.56h-10.96l-.28-1.02h7.74Zm3.39,18.83c-.03,.25-1.47,.91-2.45,.91h-.49v-1.79h-4.76v2.03c0,.32-1.29,.98-2.52,.98h-.42v-13.23l3.08,1.33h4.27l1.5-1.61,3.19,2.45c-.21,.25-.74,.53-1.4,.66v8.26Zm-8.65-29.58c8.16,1.12,5.43,7.14,2.31,5.01-.32-1.65-1.54-3.64-2.63-4.8l.32-.21Zm5.71,27.69v-6.86h-4.76v6.86h4.76Zm20.9-10.92c-.28,.35-.63,.46-1.43,.49-1.26,2.98-2.98,5.64-5.29,7.88,2.63,1.65,5.71,2.73,9.17,3.47l-.04,.38c-1.4,.21-2.38,1.22-2.84,2.8-3.36-1.19-6.13-2.7-8.4-4.83-2.91,2.24-6.62,3.99-11.27,5.15l-.28-.53c4.1-1.54,7.42-3.64,10.05-6.27-1.82-2.24-3.18-5.04-4.06-8.58h-1.86l-.32-1.02h11.48l1.96-1.82,3.12,2.87Zm-13.72-.03c1.08,2.84,2.76,5.11,4.9,6.93,1.68-2.1,2.97-4.45,3.85-6.93h-8.75Z"/>
      <path class="cls-2" d="M467.32,30.45s2.07,1.58,3.33,2.77c-.07,.38-.46,.56-.94,.56h-16.59l-.25-1.01h12.67l1.79-2.31Zm-3.43,6.79l1.75-2.21s1.96,1.5,3.15,2.66c-.11,.38-.46,.56-.91,.56h-12.95l-.28-1.01h9.24Zm1.75,2.31s1.96,1.51,3.15,2.66c-.11,.38-.46,.56-.91,.56h-12.95l-.28-1.01h9.24l1.75-2.21Zm.07,5.25l3.29,2.49c-.21,.28-.74,.56-1.44,.7v8.16c-.04,.25-1.5,.91-2.56,.91h-.49v-1.92h-6.16v2.1c0,.28-1.33,.98-2.59,.98h-.42v-13.09l3.15,1.33h5.67l1.54-1.65Zm-7.42-18.48c8.23,1.15,5.32,7.49,2.17,5.25-.17-1.79-1.37-3.85-2.49-5.08l.31-.17Zm6.23,27.83v-6.69h-6.16v6.69h6.16Zm17.92-17.61s2.13,1.71,3.36,2.91c-.11,.38-.42,.56-.91,.56h-6.93v17.4c0,.38-1.44,1.22-2.63,1.22h-.66v-18.62h-5.99l-.28-1.01h6.27v-12.64l4.55,.46c-.07,.49-.35,.88-1.26,1.02v11.17h2.59l1.89-2.45Z"/>
      <path class="cls-2" d="M493.92,46.13c2.07-1.19,3.01-2.7,3.46-4.52-1.82-.8-2.97-1.68-2.97-3.18,0-1.26,.88-2.35,2.42-2.35s2.66,1.16,2.66,3.33c0,2.66-1.26,6.06-4.97,7.84l-.59-1.12Z"/>
      <path class="cls-2" d="M528.18,30.52c-.8,1.89-1.82,3.78-2.97,5.64l1.96,.73c-.11,.32-.42,.56-1.09,.67v20.41c-.04,.21-1.51,.81-2.73,.81h-.63v-19.01c-3.82,4.97-8.79,9.45-14.42,12.67l-.35-.38c7.14-5.57,13.3-14.07,15.75-21.53h-14.95l-.28-1.02h25.69l2.27-2.8s2.49,1.89,4.06,3.25c-.1,.39-.45,.56-.98,.56h-11.34Zm-.35,8.79c15.3,4.27,14.04,12.64,9.98,10.64-1.89-3.46-6.72-7.77-10.33-10.29l.35-.35Z"/>
      <path class="cls-2" d="M575.05,45.26c-.25,.32-.7,.49-1.44,.59-.59,6.13-1.82,10.36-3.64,11.76-1.16,.84-2.59,1.22-4.48,1.22,0-.94-.14-1.79-.73-2.24-.63-.56-2.14-1.01-3.71-1.3v-.52c1.68,.14,4.52,.38,5.32,.38,.66,0,.98-.11,1.4-.38,1.05-.77,1.96-4.48,2.49-9.45h-9.07c-1.68,6.12-5.74,10.96-16.03,13.48l-.28-.42c8.05-3.01,11.45-7.63,12.78-13.06h-11.8l-.32-1.02h12.32c.35-1.71,.49-3.46,.53-5.29l4.94,.63c-.11,.59-.56,.88-1.29,.95-.14,1.26-.32,2.52-.6,3.71h8.54l1.79-1.75,3.29,2.7Zm-21.63-4.8c0,.25-1.05,.88-2.77,.88h-.59v-14.46l3.75,1.5h14.35l1.68-1.92,3.29,2.49c-.25,.31-.59,.53-1.33,.63v10.33c0,.17-1.12,.84-2.91,.84h-.59v-2.03h-14.88v1.75Zm0-11.1v8.37h14.88v-8.37h-14.88Z"/>
      <path class="cls-2" d="M596.82,30.56l3.29,3.04c-.25,.35-.59,.49-1.4,.56-1.64,10.29-5.18,19.71-17.4,24.61l-.35-.46c5.64-3.26,9.21-7.95,11.45-13.48-.56,.59-1.58,.7-2.59-.07-.35-1.79-1.64-3.82-3.01-5.32-1.54,2.38-3.29,4.41-5.36,6.06l-.46-.32c3.29-4.55,5.95-11.45,6.96-18.9l4.83,1.12c-.14,.46-.53,.77-1.33,.77-.38,1.54-.84,2.98-1.33,4.34h4.8l1.89-1.96Zm-7.07,2.97c-.7,1.86-1.5,3.54-2.45,5.11,4.2,1.19,5.64,3.25,5.64,4.83,1.12-3.12,1.82-6.48,2.24-9.94h-5.43Zm15.4,3.89c11.52,3.33,9.35,10.75,5.6,8.4-.91-2.49-3.4-5.36-5.6-7.46v19.39c0,.35-1.44,1.08-2.7,1.08h-.66V26.53l4.66,.49c-.11,.49-.35,.84-1.3,.98v9.42Z"/>
      <path class="cls-2" d="M631.68,32.03l3.25,2.8c-.28,.31-.73,.52-1.47,.67-.28,13.16-.84,19.08-2.62,21-1.12,1.19-2.59,1.71-4.31,1.71,0-1.12-.14-1.92-.6-2.41-.52-.56-1.68-.95-3.01-1.23l.04-.56c1.26,.14,3.29,.32,4.03,.32,.67,0,.95-.14,1.3-.46,1.19-1.16,1.68-7.49,1.92-18.94h-4.06c-.35,8.44-1.75,17.22-8.75,23.8l-.53-.49c4.79-6.93,5.81-15.16,6.02-23.31h-4.83l-.32-1.01h5.15c.07-2.52,.04-5.01,.04-7.46l4.66,.46c-.1,.53-.38,.84-1.26,.98-.04,1.96-.04,3.99-.11,6.02h3.61l1.86-1.89Zm18.06,1.09c-.25,.28-.8,.56-1.5,.74v22.4c-.07,.32-1.65,1.22-2.87,1.22h-.53v-3.33h-5.22v2.66c0,.42-1.22,1.23-2.66,1.23h-.56V30.7l3.36,1.54h4.69l1.75-1.96,3.54,2.84Zm-4.9,20.06v-19.92h-5.22v19.92h5.22Z"/>
      <path class="cls-2" d="M683.44,48.51c-.25,.35-.56,.53-1.33,.32-1.43,.81-3.57,1.75-5.71,2.49,2.91,1.86,6.48,3.08,10.22,3.82l-.04,.42c-1.37,.28-2.34,1.29-2.77,2.91-6.27-2.17-10.85-5.74-13.2-12.22-1.22,1.12-2.62,2.13-4.27,3.01v5.15c1.72-.59,3.71-1.26,5.71-2l.17,.46c-1.58,1.12-4.59,3.36-8.05,5.6-.17,.35-.42,.59-.66,.74l-2.21-3.08c1.54-.91,1.79-1.23,1.79-1.82v-3.5c-2.8,1.12-5.92,2-9.21,2.63l-.25-.49c5.15-1.65,9.66-4.24,12.6-7.14h-12.08l-.28-1.02h16.1c-.31-.04-.63-.17-.98-.38-.21-.98-.91-2.17-1.61-3.01v.39c0,.31-1.4,.88-2.63,.88h-.56v-6.02h-3.71c-.35,2.76-1.51,5.42-5.67,7.25l-.46-.49c2.55-2.03,3.01-4.41,3.15-6.75h-2.7l-.32-1.02h9.7v-2.87h-4.48l-1.12,1.44-3.33-1.86c.31-.32,.84-.7,1.33-.95v-4.52l3.99,.42c-.07,.45-.38,.77-1.16,.88v3.57h4.76v-5.53l4.48,.46c-.07,.49-.38,.84-1.29,.95v12.95c5.71,.46,5.04,3.96,3.08,4.24h10.4l1.96-2.52s2.17,1.72,3.46,2.98c-.1,.38-.46,.56-.91,.56h-14.21c1.05,1.92,2.52,3.54,4.27,4.87,1.64-1.44,3.43-3.29,4.38-4.55l3.61,2.41Zm-8.68-16.66v-5.67l4.59,.42c-.07,.53-.35,.88-1.26,1.02v4.24h2.87l1.93-2.38s2.17,1.64,3.46,2.83c-.07,.38-.42,.56-.91,.56h-7.35v6.62h2.59l1.89-2.35s2.14,1.65,3.4,2.8c-.07,.38-.42,.56-.91,.56h-15.58l-.28-1.01h5.57v-6.62h-6.23l-.28-1.01h6.51Z"/>
      <path class="cls-2" d="M701.01,43.72c-.25,.31-.59,.38-1.33,.42-.67,2.42-2.07,5.11-4.1,7.25,.25,.04,.42,.14,.66,.35,2.87,2.59,7.04,3.01,14.63,3.01,4.24-.04,7.67-.04,11.97-.25v.45c-1.4,.25-2.17,1.4-2.38,2.7h-10.68c-7.74,0-10.96-1.08-13.93-4.76-.52-.59-.84-.49-1.12,.07-.56,1.05-1.43,2.87-2.1,4.45,.1,.28,.07,.49-.18,.7l-2.49-3.22c1.26-.84,3.08-2.45,4.2-3.19,1.19-2.21,2.06-5.21,2.38-7.77h-1.86l-1.12,1.05-2.62-1.96c.32-.25,.8-.49,1.26-.63,.98-1.71,2.21-4.2,2.98-5.99h-4.34l-.32-1.02h4.66l1.33-1.47,2.91,2.59c-.28,.25-.8,.42-1.43,.49-.77,1.61-2.03,4.13-3.01,5.95h1.37l1.68-1.68,2.97,2.45Zm-8.65-16.94c8.02,1.96,5.22,7.88,2.34,5.6-.21-1.86-1.5-4.03-2.66-5.39l.32-.21Zm11.97,25.41c0,.32-1.26,1.02-2.48,1.02h-.46v-16.03l2.87,1.23v-11.27l3.22,1.33h7.11l1.37-1.82,3.5,2.52c-.25,.35-.7,.56-1.58,.67v8.72h.46l1.01-1.5,2.35,2.76c-.25,.25-.77,.53-1.33,.63v10.05c0,1.96-.53,3.12-3.71,3.25,0-.88-.14-1.33-.45-1.82-.31-.45-.98-.8-2.1-.98v-.49s1.68,.1,2.7,.1c.38,0,.56-.07,.56-.38v-10.61h-13.02v12.64Zm8.33-2v-1.33h-3.71v1.22c0,.21-1.12,.81-2.17,.81h-.38v-9.7l2.73,1.16h3.25l1.26-1.29,2.66,2c-.14,.21-.56,.45-1.08,.53v5.74c-.04,.25-1.3,.88-2.14,.88h-.42Zm-5.53-20.72v9.07h2.38v-7.07l2.91,1.19h2.52v-3.18h-7.81Zm5.53,18.38v-4.48h-3.71v4.48h3.71Zm-.7-9.31h2.98v-4.87h-2.98v4.87Z"/>
      <path class="cls-2" d="M758.8,44c-.28,.35-.84,.46-1.75,.49-5.71,8.47-14.42,12.67-28.98,14.21l-.17-.53c11.87-2.7,20.06-6.62,25.13-14.39h-8.68c-1.33,.88-2.73,1.75-4.24,2.55,7.6,.98,6.09,6.79,2.84,5.25-.63-1.68-2.49-3.43-4.2-4.55-2.73,1.33-5.71,2.49-8.86,3.29l-.21-.45c6.65-2.8,12.57-7.46,15.58-11.34-4.66,2.91-10.54,4.94-17.96,6.09l-.28-.53c9.7-2.76,16.94-6.72,21.67-12.78h-8.3c-1.05,.74-2.17,1.44-3.36,2.1,6.51,.49,5.5,5.39,2.56,4.34-.7-1.26-2.35-2.7-3.89-3.64-2.35,1.22-4.94,2.28-7.63,3.04l-.25-.42c5.57-2.7,10.78-7.18,13.2-10.61l5.15,1.33c-.17,.42-.63,.67-1.75,.63-.77,.73-1.65,1.47-2.62,2.21h7.32l1.92-1.82,3.5,3.01c-.28,.32-.84,.42-1.75,.49-1.96,2.38-4.27,4.48-7.04,6.23l5.04,1.23c-.18,.42-.66,.67-1.75,.63-.98,.91-2.1,1.82-3.33,2.73h7.6l1.96-1.86,3.54,3.05Z"/>
      <path class="cls-2" d="M39.37,90.81c8.16,1.89,6.37,7.25,3.57,5.57-.24-.7-.67-1.43-1.19-2.21-2,.32-4.48,.7-7.25,1.08v4.24c0,2.14-.53,3.26-4.2,3.57-.07-.77-.21-1.43-.63-1.85-.39-.39-1.05-.7-2.49-.91v-.46s2.77,.17,3.4,.17c.56,0,.67-.21,.67-.56v-3.78c-2.77,.39-5.88,.77-9.1,1.16-.21,.35-.46,.56-.7,.67l-1.58-3.22s.84-.07,1.26-.18c2.42-.56,5.15-1.5,7.77-2.59-1.54,.21-3.29,.46-5.04,.7-.14,.28-.35,.49-.56,.59l-1.37-2.66s.56-.1,.84-.17c1.61-.42,3.43-1.33,5.04-2.31-.7,.25-1.5,.25-2.35,.25,0-.56-.11-.84-.42-1.12-.28-.32-.98-.49-1.75-.63v-.59c.84,.07,2.06,.17,2.66,.17,.49,0,.73-.07,.98-.32,.1-.07,.21-.21,.28-.38h-6.02l-1.19,1.33-2.8-2.03c.35-.25,.91-.53,1.4-.74,.21-.73,.42-1.61,.59-2.55h-2.45l-.25-1.02h2.87c.31-1.58,.63-3.22,.8-4.48-1.08,.95-2.24,1.79-3.36,2.41l-.38-.35c1.61-1.75,3.33-4.83,4.2-7.21l4.24,.98c-.1,.35-.35,.49-1.26,.45-.42,.56-.88,1.12-1.4,1.68h7.49l1.61-2s1.86,1.4,2.98,2.45c-.1,.39-.46,.56-.91,.56h-12.11l-.6,.56,2.8,1.16h4.69l1.33-1.4,2.7,2.21c-.24,.28-.7,.42-1.36,.53-.04,.91-.11,1.68-.14,2.45h.63l1.23-1.82s1.37,1.33,2.17,2.28c-.07,.38-.39,.56-.84,.56h-3.29c-.1,1.19-.25,2.17-.42,2.97h.46l1.19-1.54s1.33,1.08,2.17,2c-.07,.39-.42,.56-.88,.56h-3.22c-.28,.95-.63,1.58-1.02,1.96,.84-.53,1.54-1.05,2.03-1.43l2.35,2.62c-.21,.21-.81,.31-1.47-.11-1.54,.7-3.89,1.58-6.2,2.28,1.79-.04,4.06-.1,6.41-.17,2.8-1.29,5.29-2.62,6.79-3.64l3.05,2.49c-.21,.28-.8,.49-1.61,.14-3.43,1.61-9.8,3.75-15.65,5.22,4.2-.17,10.26-.52,16.7-.91-.7-.91-1.5-1.79-2.21-2.38l.32-.28Zm-10.4,7.42c-.21,.35-.46,.53-1.23,.38-2.1,1.54-6.27,3.29-9.77,4.03l-.35-.42c2.84-1.43,6.13-3.85,7.7-5.67l3.64,1.68Zm-1.37-14.21c.21-.73,.39-1.68,.56-2.97h-6.34c-.21,1.05-.45,2.06-.66,2.97h6.44Zm-5.01-6.79c-.14,.84-.35,1.79-.56,2.8h6.23c.07-.84,.14-1.75,.21-2.8h-5.88Zm.17,4.13c1.44-.17,2.73,0,3.5,.7,.91,.95-.28,2.59-1.5,1.44-.39-.6-1.23-1.4-2.14-1.68l.14-.45Zm.49-3.67c1.37-.21,2.66-.14,3.43,.52,.98,.88-.07,2.56-1.4,1.51-.42-.56-1.3-1.3-2.14-1.58l.11-.46Zm22.3-1.58c-.74,2.55-2,4.62-3.71,6.37,1.75,1.05,3.96,1.75,6.65,2.24l-.07,.39c-1.15,.42-1.79,1.22-2,2.7-2.8-.88-4.87-2.17-6.44-3.78-1.89,1.37-4.17,2.42-6.93,3.22l-.18-.46c2.45-1.19,4.38-2.56,5.88-4.17-1.19-1.58-2-3.4-2.73-5.46-.63,.74-1.33,1.33-2.03,1.82l-.49-.28c1.19-2.03,2.28-5.15,2.8-8.23l4.1,1.16c-.14,.42-.52,.73-1.3,.73-.45,.95-.94,1.86-1.5,2.73h5.67l1.79-2.34s2,1.61,3.22,2.8c-.11,.39-.45,.56-.95,.56h-1.79Zm-9,.45c.77,1.82,1.89,3.33,3.36,4.58,1.05-1.5,1.79-3.15,2.17-5.04h-5.18l-.35,.45Zm.91,20.51c11.06,.35,9.73,6.62,6.69,5.43-.98-1.33-3.54-3.43-6.86-4.94l.17-.49Z"/>
      <path class="cls-2" d="M66.39,84.61c-.25,.31-.77,.52-1.4,.28-.84,.84-1.82,1.68-2.83,2.31,5.18,2.62,2.98,6.55,.63,4.8-.31-1.51-1.4-3.33-2.49-4.69v14.63c0,.25-1.02,1.02-2.48,1.02h-.53v-14.04c-1.37,1.36-2.83,2.59-4.34,3.6l-.39-.31c3.43-3.54,6.62-8.75,8.05-13.06h-7.63l-.32-1.01h7.84l1.82-1.75,3.01,2.94c-.28,.28-.7,.35-1.51,.42-.84,1.86-2.06,3.89-3.54,5.74v.98c.35,.11,.7,.25,1.02,.35,.74-1.09,1.47-2.62,2.1-4.17l2.98,1.96Zm-10.92-13.93c8.37,1.08,5.81,7.25,2.62,5.18-.38-1.75-1.79-3.75-2.94-4.97l.32-.21Zm28.25,21.04c-.25,.32-.63,.42-1.47,.46-1.33,2.13-3.01,3.99-5.11,5.53,2.56,.95,5.36,1.61,8.19,2.03l-.03,.42c-1.37,.25-2.28,1.3-2.66,2.84-3.12-.84-5.95-1.96-8.37-3.5-3.15,1.68-6.9,2.87-11.27,3.57l-.21-.52c3.71-1.02,6.97-2.45,9.7-4.24-1.29-.98-2.45-2.1-3.43-3.4-1.26,1.33-2.66,2.52-4.1,3.4l-.42-.35c1.19-1.19,2.35-2.87,3.4-4.62-.66-1.05-1.26-2.2-1.75-3.47l.53-.35c.49,.98,1.12,1.86,1.82,2.66,.7-1.33,1.23-2.7,1.68-3.96-.49,.28-1.23,.49-1.96,.49h-.46v-9.2c-.91,1.01-1.86,1.89-2.84,2.66l-.46-.35c1.79-2.73,3.54-7.11,4.45-11.45l4.48,1.44c-.14,.46-.56,.74-1.33,.7-.28,.66-.63,1.33-.95,2h8.23l1.92-2.56s2.28,1.75,3.61,3.01c-.1,.38-.46,.56-.94,.56h-13.37c-.42,.7-.84,1.4-1.29,2.03l1.68,.7h8.08l1.54-1.64,3.22,2.48c-.21,.25-.74,.56-1.4,.7v7.67c-.03,.25-1.5,.91-2.52,.91h-.49v-1.19h-8.61v.28l4.03,.88c-.1,.38-.38,.56-1.3,.53-.31,.56-.7,1.19-1.12,1.82h6.3l1.96-1.75,3.05,2.8Zm-11.94-.04c-.53,.7-1.08,1.4-1.65,2.07,1.29,1.12,2.8,2.07,4.48,2.91,1.68-1.47,3.05-3.12,3.99-4.97h-6.83Zm-.98-12.43v2.87h8.61v-2.87h-8.61Zm8.61,6.9v-3.01h-8.61v3.01h8.61Z"/>
      <path class="cls-2" d="M104.37,77.82c-.24,.28-.77,.56-1.47,.74v21.11c-.04,.28-1.58,.98-2.66,.98h-.49v-2.7h-6.2v2.7c0,.35-1.19,1.12-2.52,1.12h-.53v-26.25l3.22,1.47h.63c.32-1.86,.74-4.55,.98-6.48l4.83,1.16c-.17,.56-.63,.8-1.4,.8-.84,1.33-2.06,3.12-3.04,4.52h3.68l1.61-1.82,3.36,2.66Zm-10.82,.17v8.72h6.2v-8.72h-6.2Zm6.2,18.94v-9.21h-6.2v9.21h6.2Zm21.7-19.11c-.28,.32-.7,.53-1.5,.63-.25,13.58-.8,20.62-2.59,22.65-1.12,1.3-2.63,1.82-4.66,1.82,0-1.09-.17-1.92-.73-2.42-.6-.56-2-1.05-3.61-1.33l.04-.56c1.64,.17,4.09,.35,4.93,.35,.7,0,.98-.11,1.37-.46,1.3-1.26,1.72-8.61,1.96-20.58h-7.35c-1.61,2.91-3.5,5.46-5.6,7.35l-.49-.32c2.06-3.54,4.09-9.1,5.15-14.46l4.66,1.37c-.14,.42-.56,.73-1.33,.73-.53,1.51-1.16,2.94-1.86,4.31h6.44l1.89-2,3.29,2.91Zm-14.98,6.27c9.45,3.33,6.37,10.12,3.19,7.46-.28-2.42-1.96-5.36-3.5-7.25l.31-.21Z"/>
      <path class="cls-2" d="M154.94,92.73c-.25,.35-.56,.53-1.33,.32-1.43,.81-3.57,1.75-5.71,2.49,2.91,1.86,6.48,3.08,10.22,3.82l-.04,.42c-1.37,.28-2.34,1.29-2.77,2.91-6.27-2.17-10.85-5.74-13.2-12.22-1.22,1.12-2.62,2.13-4.27,3.01v5.15c1.72-.59,3.71-1.26,5.71-2l.17,.45c-1.58,1.12-4.59,3.36-8.05,5.6-.17,.35-.42,.59-.66,.74l-2.21-3.08c1.54-.91,1.79-1.23,1.79-1.82v-3.5c-2.8,1.12-5.92,2-9.21,2.63l-.25-.49c5.15-1.65,9.66-4.24,12.6-7.14h-12.08l-.28-1.02h16.1c-.31-.04-.63-.17-.98-.38-.21-.98-.91-2.17-1.61-3.01v.39c0,.31-1.4,.88-2.63,.88h-.56v-6.02h-3.71c-.35,2.76-1.51,5.42-5.67,7.25l-.46-.49c2.55-2.03,3.01-4.41,3.15-6.75h-2.7l-.32-1.02h9.7v-2.87h-4.48l-1.12,1.44-3.33-1.86c.31-.32,.84-.7,1.33-.95v-4.52l3.99,.42c-.07,.45-.38,.77-1.16,.88v3.57h4.76v-5.53l4.48,.46c-.07,.49-.38,.84-1.29,.95v12.95c5.71,.45,5.04,3.95,3.08,4.24h10.4l1.96-2.52s2.17,1.72,3.46,2.98c-.1,.38-.46,.56-.91,.56h-14.21c1.05,1.92,2.52,3.54,4.27,4.87,1.64-1.44,3.43-3.29,4.38-4.55l3.61,2.41Zm-8.68-16.66v-5.67l4.59,.42c-.07,.53-.35,.88-1.26,1.02v4.24h2.87l1.93-2.38s2.17,1.64,3.46,2.83c-.07,.38-.42,.56-.91,.56h-7.35v6.62h2.59l1.89-2.35s2.14,1.65,3.4,2.8c-.07,.38-.42,.56-.91,.56h-15.58l-.28-1.01h5.57v-6.62h-6.23l-.28-1.01h6.51Z"/>
      <path class="cls-2" d="M173.38,80.69l2.98,2.28c-.17,.21-.59,.46-1.16,.56v7.98c-.04,.28-1.5,.91-2.49,.91h-.49v-1.02h-5.36v6.62c1.47-.49,3.15-1.12,4.94-1.79-.49-1.16-1.05-2.24-1.61-3.08l.38-.18c8.02,3.71,5.04,9.56,2.28,7.04-.07-.95-.35-1.89-.7-2.91-1.75,1.19-4.17,2.87-6.79,4.55-.25,.52-.63,.84-.95,1.01l-1.71-3.36c1.01-.59,1.19-.84,1.19-1.54v-16.84c-.74,.74-1.51,1.4-2.24,2l-.39-.31c2.35-3.29,4.45-8.96,5.18-12.57l5.01,1.08c-.11,.46-.45,.7-1.37,.8,9.91,3.12,6.06,8.51,3.57,6.37-.53-1.61-1.89-3.95-3.82-5.85-.88,1.89-2.21,4.06-3.82,6.06h3.57l1.54-2s1.75,1.4,2.84,2.45c-.07,.38-.42,.56-.91,.56h-7.21l-.17-.59c-.53,.7-1.16,1.37-1.79,1.96l3.12,1.3h4.9l1.47-1.51Zm-6.51,5.46h5.36v-3.01h-5.36v3.01Zm5.36,4.24v-3.22h-5.36v3.22h5.36Zm14.39-13.06v4.83h2.91l1.44-1.61,3.25,2.41c-.21,.28-.73,.56-1.37,.7v11.48c0,2.21-.38,3.43-3.5,3.75,0-.91-.1-1.68-.38-2.17-.28-.45-.74-.77-1.68-.95v-.56s1.58,.14,2.07,.14c.42,0,.53-.17,.53-.56v-11.62h-3.26v18.8c0,.25-1.01,.98-2.41,.98h-.49v-19.78h-3.04v15.09c0,.21-.91,.91-2.31,.91h-.49v-17.75l.32-.46,2.91,1.19h2.62v-4.83h-2.94c-1.26,2.1-2.73,3.82-4.45,5.15l-.46-.35c1.75-2.84,3.29-7.21,3.92-11.66l4.62,1.33c-.17,.42-.59,.74-1.37,.74-.49,1.33-1.05,2.59-1.68,3.78h7.39l2.07-2.7s2.27,1.82,3.67,3.15c-.1,.38-.46,.56-.98,.56h-6.9Z"/>
      <path class="cls-2" d="M202.72,90.35c2.07-1.19,3.01-2.7,3.46-4.52-1.82-.8-2.97-1.68-2.97-3.18,0-1.26,.88-2.35,2.42-2.35s2.66,1.16,2.66,3.33c0,2.66-1.26,6.06-4.97,7.84l-.59-1.12Z"/>
      <path class="cls-2" d="M239.05,92.94v-1.05h-4.94c-.7,.88-1.47,1.82-2.24,2.59h9.1l1.65-1.68,3.4,2.52c-.21,.28-.74,.56-1.4,.7v5.74c-.04,.25-1.64,.95-2.73,.95h-.56v-1.61h-16.42v.84c0,.28-1.47,.98-2.73,.98h-.46v-9.8l3.43,1.37h4.97c.25-.84,.46-1.79,.63-2.59h-3.22v.56c0,.25-1.47,.91-2.76,.91h-.46v-8.47l3.43,1.36h10.99l1.51-1.61,3.12,2.31c.35-.91,.7-2.17,.98-3.22h-21.84c.07,2.17-.84,3.71-1.89,4.41-1.01,.63-2.41,.53-2.87-.56-.35-.98,.28-1.82,1.19-2.27,1.09-.6,2.24-2.03,2.49-3.64-.7,.28-1.5,.56-2.38,.84l-.35-.53c6.09-2.73,6.02-6.44,6.09-11.38l3.96,.35c-.07,.42-.35,.77-1.09,.88-.07,1.19-.14,2.28-.35,3.36,1.05-.91,2.21-2.1,3.25-3.43l2.87,2.56c-.28,.25-.84,.42-1.54,.07-1.58,.88-3.36,1.65-4.9,2.1-.07,.21-.14,.42-.21,.63,7.14,.6,6.16,5.67,3.36,4.59-.7-1.26-2.35-2.77-3.82-3.78-.77,1.26-2.07,2.41-4.16,3.43,.14,.49,.21,.95,.28,1.37h21.74l.63-.67c-.17,0-.35-.04-.52-.1-.77-1.26-2.52-2.77-4.1-3.78-1.16,1.79-3.33,3.33-7.42,4.51l-.38-.49c6.3-2.84,6.23-6.65,6.3-11.69l4.1,.35c-.07,.42-.35,.77-1.09,.88-.07,1.26-.14,2.45-.38,3.57,1.02-.91,2.14-2.06,3.15-3.33l2.87,2.52c-.28,.25-.84,.42-1.54,.1-1.54,.88-3.36,1.61-4.87,2.1-.07,.17-.14,.38-.25,.56,4.52,.46,5.92,2.48,5.64,3.78l3.12,2.97c-.28,.28-.67,.32-1.37,.39-1.09,.91-2.98,2.21-4.34,2.91l-.25-.14c-.21,.21-.63,.42-1.15,.53v4.41c-.04,.21-1.65,.84-2.7,.84h-.56Zm-19.92-20.3c7.11,.88,5.15,5.85,2.59,4.24-.38-1.4-1.79-3.08-2.91-3.99l.32-.25Zm5.78,22.86v4.59h16.42v-4.59h-16.42Zm14.14-4.62v-3.61h-11.52v3.61h11.52Zm-6.02-18.06c6.9,1.02,4.87,5.92,2.31,4.27-.35-1.4-1.61-3.08-2.63-3.99l.32-.28Z"/>
      <path class="cls-2" d="M265.89,87.87c-.25,.32-.6,.42-1.33,.46-.88,2.59-2.63,5.32-5.01,7.42,.17,.07,.35,.17,.56,.35,2.91,2.62,7.04,3.12,14.32,3.12,4.09,0,7.49-.04,11.69-.25v.46c-1.36,.28-2.17,1.4-2.34,2.73h-10.43c-7.35,0-10.57-1.22-13.65-4.94-.49-.56-.84-.49-1.12,.04-.63,1.09-1.75,3.05-2.55,4.66,.1,.31,.04,.52-.21,.73l-2.45-3.29c1.4-.88,3.46-2.62,4.69-3.36,1.47-2.21,2.66-5.25,3.25-7.91h-2.84l-1.16,1.02-2.7-2.07c.32-.21,.88-.45,1.37-.59,1.19-1.65,2.73-4.1,3.71-5.88h-5.57l-.31-1.02h6.16l1.54-1.58,3.12,2.8c-.35,.38-1.12,.56-2.03,.56-.98,1.58-2.52,3.99-3.71,5.74h2.24l1.75-1.68,3.01,2.49Zm-10.54-16.98c8.89,1.16,6.51,7.63,3.22,5.6-.46-1.89-2.1-4.06-3.54-5.36l.32-.25Zm13.69,6.37c-1.05,1.85-2.31,3.5-3.75,4.69l-.52-.28c1.29-2.59,2.41-6.44,2.94-10.15l4.38,1.23c-.14,.42-.56,.73-1.29,.73-.35,.95-.77,1.89-1.23,2.77h3.61v-5.81l4.45,.42c-.07,.49-.38,.84-1.26,.98v4.41h2.1l1.85-2.38s2.1,1.61,3.4,2.83c-.1,.38-.46,.56-.95,.56h-6.41v5.29h3.64l1.89-2.45s2.21,1.71,3.5,2.91c-.11,.38-.46,.56-.91,.56h-19.95l-.28-1.01h8.93v-5.29h-4.13Zm10.15,20.13v-2.24h-9.35v1.64c0,.28-1.43,.98-2.73,.98h-.49v-12.36l3.4,1.4h8.86l1.54-1.68,3.33,2.52c-.21,.25-.74,.56-1.4,.7v8.09c-.04,.28-1.58,.95-2.62,.95h-.53Zm0-3.26v-6.3h-9.35v6.3h9.35Z"/>
      <path class="cls-2" d="M320.95,88.57c-.03,.46-.35,.77-1.19,.91v12.29c0,.28-1.44,.84-2.66,.84h-.6v-2.83h-20.65l-1.09,1.79-3.46-2.21c.28-.28,.66-.66,1.08-.91v-10.47l4.58,.46c-.07,.38-.38,.7-1.36,.84v9.49h8.65v-13.76h-6.72l-1.09,1.75-3.4-2.13c.25-.28,.63-.63,1.05-.91v-9.91l4.55,.46c-.07,.38-.38,.7-1.37,.84v8.89h6.97v-13.34l4.62,.49c-.1,.49-.35,.84-1.26,.98v11.87h7.18v-10.15l4.45,.45c-.07,.46-.35,.77-1.22,.91v10.89c0,.28-1.44,.88-2.63,.88h-.59v-1.96h-7.18v13.76h8.89v-10.64l4.45,.46Z"/>
      <path class="cls-2" d="M343.87,81.95c1.22,6.54,5.15,13.27,15.23,17.54l-.07,.39c-1.75,.31-2.83,1.26-3.22,3.15-8.82-5.11-11.55-13.62-12.53-20.58-1.01,8.3-4.38,15.47-16.77,20.58l-.38-.56c9.98-5.71,12.85-12.6,13.65-20.51h-12.99l-.32-1.02h13.37c.28-3.29,.25-6.76,.25-10.36l4.97,.49c-.1,.53-.42,.88-1.26,1.02-.07,3.04-.11,6.02-.35,8.86h8.86l2.28-2.87s2.59,1.96,4.13,3.33c-.1,.38-.49,.56-.98,.56h-13.86Z"/>
      <path class="cls-2" d="M391.23,74.98s2.38,1.82,3.88,3.12c-.1,.38-.49,.56-.98,.56h-17.15c-.14,2.07-.31,4.06-.63,5.95h9.35l1.86-1.82,3.29,2.77c-.28,.28-.73,.49-1.5,.59-.42,8.51-1.37,13.76-3.19,15.37-1.15,.95-2.59,1.4-4.55,1.4,0-1.01-.14-1.86-.7-2.28-.63-.56-2.17-1.05-3.75-1.33l.03-.53c1.68,.14,4.38,.35,5.18,.35,.7,0,1.02-.07,1.4-.38,1.12-.98,1.86-5.95,2.24-13.13h-9.8c-1.33,7.56-4.62,13.65-12.81,17.5l-.28-.38c7.95-6.06,9.8-14.25,10.05-24.08h-10.19l-.28-1.01h26.39l2.14-2.66Zm-15.86-4.73c9.59,1.82,6.86,8.75,3.47,6.41-.46-2.13-2.21-4.62-3.75-6.16l.28-.25Z"/>
      <path class="cls-2" d="M428.26,75.79c-.28,.38-.7,.49-1.61,.59-1.82,5.92-4.58,11.38-8.82,15.93,4.03,3.47,8.75,6.02,13.86,7.7l-.14,.42c-1.68,.04-3.04,.98-3.78,2.56-4.66-2.07-8.75-4.87-12.11-8.54-4.13,3.71-9.45,6.65-16.35,8.61l-.31-.49c6.02-2.52,10.96-6.06,14.81-10.33-3.43-4.45-5.92-9.98-7.28-16.7h-5.32l-.32-.98h21.7l2.14-2.14,3.54,3.36Zm-21.04-.25c1.64,5.85,4.55,10.71,8.33,14.6,3.36-4.31,5.74-9.24,7.21-14.6h-15.54Z"/>
      <path class="cls-2" d="M455.38,74.74c-.8,1.89-1.82,3.78-2.97,5.64l1.96,.73c-.11,.32-.42,.56-1.09,.67v20.41c-.04,.21-1.51,.81-2.73,.81h-.63v-19.01c-3.82,4.97-8.79,9.45-14.42,12.67l-.35-.38c7.14-5.57,13.3-14.07,15.75-21.53h-14.95l-.28-1.02h25.69l2.27-2.8s2.49,1.89,4.06,3.25c-.1,.39-.45,.56-.98,.56h-11.34Zm-.35,8.79c15.3,4.27,14.04,12.64,9.98,10.64-1.89-3.46-6.72-7.77-10.33-10.29l.35-.35Z"/>
      <path class="cls-2" d="M489.82,87.59c1.4,4.59,5.5,9.1,14.91,11.83l-.07,.45c-1.75,.31-2.87,1.19-3.12,3.15-8.51-3.64-11.31-10.05-12.39-15.44h-.25c-1.5,6.93-5.57,11.97-16.94,15.37l-.32-.56c9-3.78,12.5-8.51,13.83-14.81h-12.92l-.32-.98h13.41c.42-2.31,.56-4.8,.63-7.53h-6.72c-1.47,2.63-3.33,4.73-5.46,6.34l-.46-.31c2.28-3.33,4.17-8.37,4.87-13.69l4.83,1.26c-.14,.42-.53,.74-1.33,.74-.53,1.68-1.19,3.22-1.89,4.66h6.16c.04-2.31,0-4.76,0-7.39l4.87,.45c-.1,.53-.42,.88-1.3,1.01-.04,2.07-.04,4.03-.07,5.92h5.36l2.14-2.62s2.38,1.82,3.88,3.08c-.1,.38-.46,.56-.98,.56h-10.43c-.07,2.73-.21,5.22-.63,7.53h9.1l2.17-2.73s2.45,1.86,3.92,3.19c-.1,.38-.46,.52-.98,.52h-13.51Z"/>
      <path class="cls-2" d="M514.42,77.15c-.21,2.28-1.29,5.15-5.67,6.9l-.32-.49c2.77-2.31,3.05-5.15,3.05-7.56v-4.06l3.5,1.08c2.41-.8,4.97-1.82,6.44-2.55l2.87,2.83c-.39,.32-1.05,.28-1.89-.07-2.03,.35-5.11,.7-7.91,.84v2.07h6.23l1.64-2.03s1.89,1.43,3.01,2.49c-.07,.38-.42,.56-.91,.56h-3.78v4.52c-.04,.17-.98,.74-2.52,.74h-.53v-5.25h-3.22Zm-5.32,25.27c4.34-1.16,9.21-3.57,11.55-5.43l3.68,2.7c-.32,.35-.95,.42-1.89,.14-3.15,1.4-8.37,2.7-13.16,3.12l-.18-.53Zm28.11-28.46s2,1.51,3.19,2.63c-.07,.38-.42,.56-.91,.56h-4.59v4.45c-.04,.11-.59,.49-1.58,.66l2.84,2.14c-.21,.25-.7,.52-1.3,.63v11.73c-.03,.24-1.68,.88-2.76,.88h-.56v-1.44h-13.69v1.05c0,.28-1.43,1.05-2.8,1.05h-.53v-16.17l3.54,1.43h13.13l1.16-1.22h-.56v-5.18h-3.19c-.35,2-1.64,4.38-5.88,5.81l-.32-.46c2.98-2.13,3.33-4.69,3.33-6.9v-3.75l3.26,.98c2.52-.73,5.18-1.68,6.76-2.38l2.87,2.91c-.39,.32-1.05,.28-1.89-.11-2.03,.28-5.11,.6-7.98,.74v2.14h6.72l1.75-2.17Zm-19.36,10.61v2.83h13.69v-2.83h-13.69Zm0,3.82v2.87h13.69v-2.87h-13.69Zm13.69,6.79v-2.91h-13.69v2.91h13.69Zm-5.18,2.66c18.13,.52,12.22,6.93,8.89,4.58-1.72-1.33-4.8-2.98-9.03-4.09l.14-.49Z"/>
      <path class="cls-2" d="M576.1,99.1c1.01,1.92,1.19,2.94,.63,3.36-1.4,1.16-3.85-.38-5.11-1.96-2.31-2.8-3.92-6.23-5.01-10.15-1.54,1.09-3.29,1.93-5.11,2.59l-.35-.46c1.75-1.05,3.46-2.42,5-4.06-.84-3.82-1.29-7.95-1.47-12.29h-14.49v6.58c0,5.71-.25,14-5.32,19.6l-.46-.32c2.63-5.85,2.8-13.09,2.8-19.29v-9l3.5,1.4h13.9c-.04-1.58-.07-3.15-.07-4.8l4.55,.49-.07-.07,.35-.25c5.95,1.16,3.46,5,1.37,3.33-.17-1.05-.91-2.21-1.61-2.94-.07,.42-.38,.77-1.26,.91-.04,1.12-.04,2.21,0,3.33h4.66l1.65-2.24s1.85,1.58,2.97,2.7c-.1,.38-.45,.56-.91,.56h-8.37c.07,3.04,.31,6.12,.8,9,1.3-2,2.38-4.3,3.12-6.86l4.24,1.68c-.17,.42-.59,.7-1.37,.59-1.43,3.22-3.22,5.74-5.36,7.74,.91,3.61,2.31,6.76,4.45,9.1,.49,.59,.7,.59,1.02-.11,.45-.88,1.19-2.55,1.71-4.03l.42,.07-.8,5.78Zm-25.06-5.81c1.09,3.33,.67,5.95-.21,7.11-.63,.7-1.96,.91-2.49,.14-.42-.77-.04-1.61,.7-2.17,.84-.91,1.61-3.15,1.37-5.08h.63Zm10.5-16.14s1.89,1.47,3.12,2.59c-.11,.39-.46,.56-.95,.56h-12.36l-.28-1.02h8.72l1.75-2.13Zm-6.65,13.16c0,.25-1.33,.91-2.52,.91h-.42v-9.84l3.08,1.26h4.76l1.47-1.54,3.15,2.38c-.17,.25-.7,.52-1.29,.63v5.43c-.04,.25-1.54,.8-2.49,.8h-.53v-1.33h-5.21v1.29Zm8.12,8.96c.77,.28,.95,.63,.95,1.12,0,1.09-1.09,1.65-5.43,1.65h-2.7c-2.52,0-2.94-.59-2.94-2.35v-7.63l3.61,.35c-.03,.46-.38,.77-1.01,.88v5.74c0,.42,.1,.53,.98,.53h2.24c1.05,0,1.82,0,2.13-.04,.32,0,.42-.07,.59-.38,.28-.49,.63-2.03,1.05-3.75h.42l.1,3.88Zm-8.12-15.61v4.34h5.21v-4.34h-5.21Zm1.92,7.14c6.3,3.22,3.54,7.84,1.4,5.71,.04-1.79-.91-4.06-1.82-5.46l.42-.25Zm6.55,2.07c6.65,3.89,4.03,8.96,1.71,6.79-.04-2.17-1.12-4.83-2.17-6.58l.45-.21Z"/>
      <path class="cls-2" d="M596.47,77.82c-.24,.28-.77,.56-1.47,.74v21.11c-.04,.28-1.58,.98-2.66,.98h-.49v-2.7h-6.2v2.7c0,.35-1.19,1.12-2.52,1.12h-.53v-26.25l3.22,1.47h.63c.32-1.86,.74-4.55,.98-6.48l4.83,1.16c-.17,.56-.63,.8-1.4,.8-.84,1.33-2.06,3.12-3.04,4.52h3.68l1.61-1.82,3.36,2.66Zm-10.82,.17v8.72h6.2v-8.72h-6.2Zm6.2,18.94v-9.21h-6.2v9.21h6.2Zm21.7-19.11c-.28,.32-.7,.53-1.5,.63-.25,13.58-.8,20.62-2.59,22.65-1.12,1.3-2.62,1.82-4.66,1.82,0-1.09-.17-1.92-.73-2.42-.6-.56-2-1.05-3.61-1.33l.03-.56c1.65,.17,4.1,.35,4.94,.35,.7,0,.98-.11,1.37-.46,1.3-1.26,1.72-8.61,1.96-20.58h-7.35c-1.61,2.91-3.5,5.46-5.6,7.35l-.49-.32c2.06-3.54,4.09-9.1,5.15-14.46l4.66,1.37c-.14,.42-.56,.73-1.33,.73-.53,1.51-1.16,2.94-1.86,4.31h6.44l1.89-2,3.29,2.91Zm-14.98,6.27c9.45,3.33,6.37,10.12,3.19,7.46-.28-2.42-1.96-5.36-3.5-7.25l.32-.21Z"/>
      <path class="cls-2" d="M649.91,76.98c-.25,.31-.63,.38-1.37,.42-1.09,1.22-3.01,2.91-4.55,3.85l-.35-.25c.35-1.19,.81-2.91,1.08-4.31h-5.53v4.9c0,.95,.04,.95,1.08,.95h5.5c.25,0,.59,0,.98-.14h.32l.17,.03c1.16,.42,1.33,.63,1.33,1.12,0,1.26-.77,1.82-4.03,1.82h-4.69c-3.57,0-3.92-.38-3.92-3.75v-4.94h-13.02c.28,2.59-.63,4.34-1.82,5.08-1.09,.7-2.52,.53-2.98-.59-.38-1.05,.28-1.92,1.19-2.42,1.33-.81,2.52-2.91,2.24-5.18l.53-.04c.31,.74,.52,1.47,.7,2.14h10.85c-.35-.07-.77-.28-1.16-.6-.07-1.68-.98-3.61-1.96-4.79l.32-.18c6.62,1.09,5.81,5.11,3.6,5.57h10.12l1.93-1.96,3.43,3.26Zm-16.77,2.07c-.14,.42-.52,.66-1.58,.66-2.34,3.75-5.88,6.51-12.43,7.53l-.25-.42c5.85-2.49,8.65-5.92,9.87-9.94l4.38,2.17Zm11.94,18.59s2.28,1.79,3.61,3.12c-.11,.38-.46,.56-.98,.56h-28.35l-.32-1.01h12.78v-10.92h-8.58l-.28-1.02h16.7l1.93-2.45s2.1,1.68,3.36,2.91c-.07,.38-.46,.56-.95,.56h-8.75v10.92h7.81l2.03-2.66Z"/>
      <path class="cls-2" d="M658.97,82.76v18.97c0,.46-1.19,1.26-2.73,1.26h-.56v-31.5l3.43,1.51h5.67l1.47-1.61,3.25,2.41c-.21,.25-.7,.53-1.33,.63v9.28c-.04,.21-1.58,.88-2.59,.88h-.49v-1.82h-6.13Zm0-8.75v3.36h6.13v-3.36h-6.13Zm6.13,7.77v-3.46h-6.13v3.46h6.13Zm11.48,16.77c-.04,.28-1.58,.98-2.62,.98h-.49v-2h-7.11v1.4c0,.31-1.29,.98-2.59,.98h-.46v-14.46l3.19,1.37h6.62l1.54-1.65,3.22,2.41c-.21,.28-.7,.56-1.29,.67v10.29Zm-10.22-10.75v3.78h7.11v-3.78h-7.11Zm7.11,8.75v-3.99h-7.11v3.99h7.11Zm12.32-22.72c-.25,.28-.77,.59-1.44,.74v24.22c0,2.42-.49,3.82-4.45,4.17-.11-1.02-.28-1.86-.7-2.38-.53-.49-1.26-.88-2.83-1.16v-.53s3.22,.25,3.88,.25,.77-.25,.77-.74v-15.65h-6.37v.7c0,.31-1.36,1.05-2.7,1.05h-.46v-12.88l3.33,1.37h5.85l1.58-1.86,3.54,2.7Zm-11.13,.17v3.36h6.37v-3.36h-6.37Zm6.37,7.77v-3.46h-6.37v3.46h6.37Z"/>
      <path class="cls-2" d="M721.7,99.1c1.01,1.92,1.19,2.94,.63,3.36-1.4,1.16-3.85-.38-5.11-1.96-2.31-2.8-3.92-6.23-5.01-10.15-1.54,1.09-3.29,1.93-5.11,2.59l-.35-.46c1.75-1.05,3.46-2.42,5-4.06-.84-3.82-1.29-7.95-1.47-12.29h-14.49v6.58c0,5.71-.25,14-5.32,19.6l-.46-.32c2.63-5.85,2.8-13.09,2.8-19.29v-9l3.5,1.4h13.9c-.04-1.58-.07-3.15-.07-4.8l4.55,.49-.07-.07,.35-.25c5.95,1.16,3.46,5,1.37,3.33-.17-1.05-.91-2.21-1.61-2.94-.07,.42-.38,.77-1.26,.91-.04,1.12-.04,2.21,0,3.33h4.66l1.65-2.24s1.85,1.58,2.97,2.7c-.1,.38-.46,.56-.91,.56h-8.37c.07,3.04,.31,6.12,.8,9,1.29-2,2.38-4.3,3.12-6.86l4.24,1.68c-.17,.42-.59,.7-1.37,.59-1.43,3.22-3.22,5.74-5.36,7.74,.91,3.61,2.31,6.76,4.45,9.1,.49,.59,.7,.59,1.02-.11,.46-.88,1.19-2.55,1.71-4.03l.42,.07-.8,5.78Zm-25.06-5.81c1.08,3.33,.67,5.95-.21,7.11-.63,.7-1.96,.91-2.49,.14-.42-.77-.04-1.61,.7-2.17,.84-.91,1.61-3.15,1.37-5.08h.63Zm10.5-16.14s1.89,1.47,3.12,2.59c-.11,.39-.46,.56-.95,.56h-12.36l-.28-1.02h8.72l1.75-2.13Zm-6.65,13.16c0,.25-1.33,.91-2.52,.91h-.42v-9.84l3.08,1.26h4.76l1.47-1.54,3.15,2.38c-.17,.25-.7,.52-1.29,.63v5.43c-.04,.25-1.54,.8-2.49,.8h-.53v-1.33h-5.21v1.29Zm8.12,8.96c.77,.28,.95,.63,.95,1.12,0,1.09-1.09,1.65-5.43,1.65h-2.7c-2.52,0-2.94-.59-2.94-2.35v-7.63l3.61,.35c-.03,.46-.38,.77-1.01,.88v5.74c0,.42,.1,.53,.98,.53h2.24c1.05,0,1.82,0,2.13-.04,.32,0,.42-.07,.59-.38,.28-.49,.63-2.03,1.05-3.75h.42l.1,3.88Zm-8.12-15.61v4.34h5.21v-4.34h-5.21Zm1.92,7.14c6.3,3.22,3.54,7.84,1.4,5.71,.04-1.79-.91-4.06-1.82-5.46l.42-.25Zm6.55,2.07c6.65,3.89,4.03,8.96,1.71,6.79-.04-2.17-1.12-4.83-2.17-6.58l.45-.21Z"/>
      <path class="cls-2" d="M739.48,86.71c0-2.73,2.24-4.94,4.97-4.94s4.94,2.21,4.94,4.94-2.21,4.97-4.94,4.97-4.97-2.24-4.97-4.97Zm1.26,0c0,2.03,1.65,3.71,3.71,3.71s3.67-1.68,3.67-3.71-1.64-3.67-3.67-3.67-3.71,1.64-3.71,3.67Z"/>
    </g>
  </g>
</svg>