<?xml version="1.0" encoding="UTF-8"?>
<svg id="_圖層_2" data-name="圖層 2" xmlns="http://www.w3.org/2000/svg" viewBox="0 0 565.83 234.78">
  <defs>
    <style>
      .cls-1 {
        fill: #fff;
        opacity: .7;
      }

      .cls-2 {
        fill: #231815;
      }
    </style>
  </defs>
  <g id="_圖層_1-2" data-name="圖層 1">
    <rect class="cls-1" width="565.83" height="234.78" rx="30" ry="30"/>
    <g>
      <path class="cls-2" d="M116.93,31.47c-.14,.45-.6,.74-1.4,.74-.98,2.7-2.13,5.18-3.39,7.46l1.71,.63c-.11,.35-.42,.56-1.05,.67v20.51c-.07,.32-1.71,1.16-3.29,1.16h-.74v-17.89c-1.12,1.4-2.31,2.7-3.57,3.82l-.45-.28c2.52-4.55,5.08-11.73,6.41-18.48l5.78,1.68Zm18.87,13.44c-.04,.18-1.75,.77-2.97,.88,5.67,.84,5.29,4.9,2.97,5.08,.8,.63,2,1.58,2.84,2.31-.11,.39-.49,.56-.98,.56h-5.95v4.48c0,2.73-.6,4.13-4.94,4.52-.07-1.16-.21-2.03-.66-2.59-.39-.52-1.05-.94-2.52-1.19v-.49s2.91,.21,3.5,.21c.49,0,.63-.14,.63-.53v-4.41h-13.09l-.28-.98h13.37v-3.25l5.18,.46c-.07,.52-.42,.77-1.19,.88v1.92h1.12l1.75-2.28c-.42-.8-1.16-1.68-1.96-2.48-3.61,.84-8.51,1.85-15.3,3.08-.21,.42-.63,.7-.98,.77l-1.54-4.09c1.89,.03,5.21-.07,9.24-.21v-2.7h-3.5v.67c0,.38-1.79,1.22-3.43,1.22h-.56v-11.59l4.23,1.68h3.26v-2.24h-8.58l-.28-1.01h8.86v-3.75l5.32,.49c-.07,.49-.35,.88-1.29,.98v2.28h3.85l2.24-2.87s2.48,1.96,4.03,3.33c-.11,.38-.53,.56-1.02,.56h-9.1v2.24h3.29l1.86-2,3.85,2.87c-.17,.24-.63,.52-1.26,.67v6.54Zm-17.78,9.1c8.86,1.3,5.11,7.67,1.75,4.97-.18-1.68-1.12-3.57-2.03-4.76l.28-.21Zm2.52-16.24v2.56h3.5v-2.56h-3.5Zm3.5,6.06v-2.52h-3.5v2.52h3.5Zm4.03-6.06v2.56h3.64v-2.56h-3.64Zm3.64,3.54h-3.64v2.52h3.64v-2.52Zm.14,5.95c-.6-.53-1.19-.98-1.75-1.37l.28-.28c.46,0,.91,0,1.33,.04v-.8h-3.64v2.55l3.78-.14Z"/>
      <path class="cls-2" d="M165.54,32.35c2.13,2.77,5.95,4.87,9.13,5.95l-.07,.49c-1.3,.8-2.1,1.85-2.31,3.18-3.01-1.92-5.64-5.25-7.32-8.68-1.68,2.59-3.68,4.69-5.88,6.37h5.46l1.68-2.1s1.96,1.47,3.15,2.56c-.07,.38-.46,.56-.91,.56h-9.28l-.24-.91c-1.3,.98-2.66,1.79-4.06,2.45l-.32-.31v8.82c0,.25-1.44,1.05-2.52,1.05h-.49v-1.47h-1.19v4.13h.42l1.75-2.35s2.06,1.61,3.29,2.77c-.1,.38-.46,.56-.94,.56h-4.52v6.23c0,.21-1.09,1.01-2.91,1.01h-.66v-7.25h-5.11l-.28-.98h5.39v-4.13h-1.29v.88c0,.32-1.26,1.02-2.52,1.02h-.46v-14.67l3.15,1.33h1.09v-3.01h-5.04l-.28-1.02h5.32v-5l4.69,.42c-.04,.45-.31,.77-1.12,.91v3.67h.95l1.79-2.31s2.03,1.61,3.25,2.76c-.1,.39-.46,.56-.91,.56h-5.07v3.01h.95l1.43-1.5,2.91,2.24c-.18,.21-.56,.42-1.05,.53v1.64c3.01-2.7,6.16-7.14,7.88-12.22l4.58,2.07c-.17,.38-.63,.66-1.4,.56l-.11,.17Zm-20.02,7.49v4.27h1.71v-4.27h-1.71Zm0,9.49h1.71v-4.24h-1.71v4.24Zm4.48-9.49v4.27h1.57v-4.27h-1.57Zm1.57,9.49v-4.24h-1.57v4.24h1.57Zm10.89-7.18l3.04,2.28c-.18,.24-.63,.49-1.22,.59v13.69c0,2.07-.32,3.12-3.12,3.43,0-.8-.07-1.47-.32-1.89-.24-.35-.59-.63-1.37-.81v-.49s1.19,.07,1.54,.07c.38,0,.45-.14,.45-.52v-4.2h-2.62c-.38,2.98-1.44,6.09-4.17,8.47l-.38-.39c1.86-3.71,1.82-8.33,1.82-12.46v-7.63l3.46,1.37h1.58l1.29-1.5Zm-.98,11.17v-3.96h-2.38v.53c0,1.08-.04,2.21-.14,3.43h2.52Zm-2.38-8.65v3.68h2.38v-3.68h-2.38Zm9.24,11.48c0,.28-1.16,.81-2.03,.81h-.49v-13.41l3.54,.35c-.07,.38-.31,.7-1.01,.8v11.45Zm1.5-13.65l4.1,.46c-.11,.49-.42,.77-1.26,.91v14.95c0,2.24-.42,3.5-3.78,3.82-.07-.91-.21-1.64-.63-2.1-.42-.46-1.09-.77-2.38-.98v-.53s2.73,.21,3.33,.21c.49,0,.63-.17,.63-.63v-16.1Z"/>
      <path class="cls-2" d="M190.25,45.58l3.89,2.94c-.21,.28-.7,.56-1.4,.7v11.34c-.04,.28-1.96,1.16-3.29,1.16h-.66v-2.91h-5.11v2.24c0,.39-1.68,1.3-3.29,1.3h-.59v-16.38l4.06,1.61h4.58l1.82-2Zm-1.47,12.22v-9.21h-5.11v9.21h5.11Zm.56-13.65c0,.38-1.79,1.3-3.5,1.3h-.63v-14.84l4.34,1.72h9.52l1.92-2.1,3.99,3.04c-.21,.28-.7,.6-1.44,.74v10.01c-.04,.28-2.03,1.12-3.43,1.12h-.7v-2.83h-10.08v1.86Zm0-10.82v7.98h10.08v-7.98h-10.08Zm21.28,15.19c-.25,.28-.73,.56-1.44,.74v11.62c-.04,.28-2.03,1.02-3.36,1.02h-.67v-3.08h-5.39v2.28c0,.38-1.64,1.3-3.29,1.3h-.6v-16.42l4.06,1.61h4.87l1.89-2.03,3.92,2.98Zm-5.46,9.28v-9.21h-5.39v9.21h5.39Z"/>
      <path class="cls-2" d="M243.52,33.33s2.1,1.61,3.43,2.8c-.07,.38-.45,.56-.95,.56h-4.27v4.34c-.04,.1-.77,.56-2.07,.73l3.08,2.31c-.21,.25-.63,.53-1.26,.67v11.31c-.04,.25-2.1,1.01-3.43,1.01h-.7v-1.47h-12.6v.94c0,.39-1.75,1.3-3.43,1.3h-.59v-16.38l4.3,1.71h11.97l1.26-1.33h-.35v-5.15h-2.55c-.35,2.07-1.75,4.52-6.51,5.92l-.24-.46c2.52-1.79,3.15-3.96,3.26-5.92-.14,.32-.46,.46-.91,.46h-3.54v4.45c-.04,.17-1.12,.81-3.01,.81h-.66v-5.25h-2.66c-.25,2.31-1.4,5.25-6.16,6.93l-.28-.46c2.7-2.31,2.94-5.25,2.94-7.63v-4.2l3.95,1.16c2.24-.88,4.62-1.96,5.98-2.73l3.19,3.25c-.42,.32-1.08,.28-1.99-.1-1.89,.28-4.83,.59-7.56,.7v2.07h5.63l1.82-2.21s2,1.51,3.26,2.63c.04-.32,.04-.6,.04-.91v-3.89l3.67,1.02c2.38-.81,4.87-1.86,6.3-2.56l3.22,3.29c-.42,.35-1.15,.32-1.99-.1-1.96,.28-4.87,.52-7.6,.66v2.07h6.09l1.93-2.35Zm-28.18,28.84c4.41-1.29,9.31-3.88,11.62-5.95l4.3,3.15c-.35,.35-1.02,.46-2.06,.17-3.26,1.5-8.72,2.73-13.72,3.12l-.14-.49Zm9.42-18.03v2.76h12.6v-2.76h-12.6Zm0,3.75v2.83h12.6v-2.83h-12.6Zm12.6,6.76v-2.91h-12.6v2.91h12.6Zm-5.01,2.59c19.6,.18,12.29,7.49,8.58,4.73-1.61-1.33-4.52-3.08-8.68-4.27l.11-.46Z"/>
      <path class="cls-2" d="M279.01,31.23s2.8,2.03,4.48,3.47c-.1,.38-.49,.56-.98,.56h-31.12l-.31-.98h14.88c-.38-1.61-1.71-3.33-2.94-4.31l.24-.21c6.69-.35,7.25,3.19,5.67,4.52h7.67l2.41-3.05Zm.07,13.72l4.06,3.01c-.21,.28-.7,.59-1.44,.73v9.52c0,2.62-.59,4.13-5.14,4.48-.11-1.19-.25-2.1-.74-2.66-.49-.56-1.15-1.02-2.8-1.29v-.46s3.08,.21,3.88,.21c.53,0,.66-.25,.66-.66v-9.84h-20.44v13.34c0,.42-1.79,1.33-3.46,1.33h-.6v-17.36l4.38,1.71h19.78l1.86-2.07Zm-6.93,.74v-1.58h-9.66v.77c0,.32-1.82,1.19-3.5,1.19h-.56v-9.73l4.27,1.68h9.1l1.86-2.07,3.99,3.01c-.21,.28-.66,.59-1.37,.74v5.15c-.04,.21-2.13,.84-3.43,.84h-.7Zm1.57,11.9c-.04,.25-1.86,1.01-3.15,1.01h-.63v-1.71h-5.5v1.12c0,.31-1.71,1.12-3.22,1.12h-.53v-9.91l3.88,1.54h5.01l1.75-1.82,3.68,2.7c-.21,.28-.63,.56-1.29,.7v5.25Zm-1.57-14.46v-4.09h-9.66v4.09h9.66Zm-2.21,12.78v-4.13h-5.5v4.13h5.5Z"/>
      <path class="cls-2" d="M291.82,50.3c2.24-1.19,3.26-2.8,3.75-4.76-1.96-.77-3.46-1.68-3.46-3.43,0-1.44,1.08-2.66,2.77-2.66s2.97,1.26,2.97,3.57c0,2.94-1.44,6.58-5.43,8.4l-.6-1.12Z"/>
      <path class="cls-2" d="M335.64,57.13s2.52,1.96,4.03,3.33c-.1,.38-.46,.56-.98,.56h-19.01l-.28-1.01h2.83v-26.36h-1.29l-.07-.25c-.24,.21-.63,.42-1.19,.52v8.3c-.04,.25-1.82,.88-2.97,.88h-.53v5.15h.73l1.64-2.48s1.89,1.75,2.94,2.94c-.11,.39-.42,.56-.91,.56h-4.41v6.9c1.64-.28,3.32-.63,5.04-.95l.07,.46c-2.9,1.44-7.21,3.43-13.27,5.85-.21,.45-.56,.81-.98,.91l-1.54-4.45c.52-.07,1.22-.17,2.06-.32v-12.6l3.85,.35c-.04,.32-.24,.59-.84,.67v11.1l1.96-.35v-15.19h-1.33v.95c0,.28-1.12,1.05-2.91,1.05h-.63v-12.81l3.99,1.58h4.06l1.71-1.85,3.33,2.55-.11-.42h12.43l2.13-2.77s2.35,1.89,3.82,3.19c-.11,.38-.46,.56-.95,.56h-11.87v7h6.16l1.89-2.03,3.89,2.98c-.25,.28-.7,.6-1.44,.74v9.7c-.04,.28-1.93,1.12-3.29,1.12h-.7v-2.1h-6.51v8.96h7.21l2.21-2.87Zm-24.43-16.49h4.87v-7.28h-4.87v7.28Zm15.02,1.02v8.37h6.51v-8.37h-6.51Z"/>
      <path class="cls-2" d="M357.1,46.52l3.36,2.49c-.18,.21-.63,.46-1.19,.56v8.68c0,2.38-.49,3.75-4.16,4.06-.07-1.02-.18-1.86-.6-2.38-.38-.49-1.02-.84-2.28-1.05v-.53s2.48,.18,3.12,.18c.49,0,.6-.21,.6-.63v-8.72h-4.31c-.59,1.4-1.22,2.8-1.85,4.1,.98-.04,2.03-.11,3.12-.17-.25-1.05-.63-2.07-1.02-2.8l.38-.21c5.78,3.29,2.9,7.7,.84,5.53,.04-.46,0-.91-.04-1.4-1.08,.63-2.45,1.37-4.17,2.28-.21,.46-.52,.7-.91,.77l-1.33-3.04v7.25c0,.21-.98,.95-2.62,.95h-.56v-13.23h-.74l-.56-1.01h1.3v-1.4l3.64,1.4h2.07c.11-1.12,.17-2.17,.24-3.08h-1.99l-1.05,1.64-3.22-2.07c.21-.28,.63-.63,1.05-.88v-7.84l4.27,.46c-.1,.49-.42,.81-1.29,.95v1.29h-.04v5.43h8.47v-6.86c-.21,.31-.63,.52-1.29,.38-.35,.53-.7,1.01-1.08,1.47,2.52,1.93,1.33,4.45-.7,3.5-.24-.49-.59-1.05-1.05-1.65-1.19,1.09-2.49,1.89-3.78,2.49l-.42-.38c.95-.91,1.93-2.14,2.77-3.57-.77-.74-1.61-1.4-2.38-1.89l.31-.31c1.16,.14,2.14,.35,2.94,.63,.35-.81,.7-1.65,1.02-2.49l3.67,1.64v-1.26l3.92,.38c-.07,.35-.28,.6-.91,.74v8.44c0,.28-1.37,.84-2.45,.84h-.56v-1.08h-2.41c-.31,.91-.74,2-1.19,3.08h3.57l1.5-1.65Zm-14.6-12.57h7.77c-.24-.1-.45-.21-.66-.38-.04-1.37-.73-2.91-1.4-3.71l.28-.21c5.64,.39,5.39,3.47,3.61,4.31h2.7l2-2.52s2.31,1.75,3.68,2.98c-.11,.38-.45,.56-.95,.56h-16.73l-.28-1.02Zm4.16,19.46c.53-.03,1.23-.03,2-.07,.14-1.33,.31-2.77,.46-4.17h-2.45v4.24Zm26.11,3.54s1.86,1.71,2.94,2.83c-.07,.38-.42,.56-.88,.56h-10.12v1.12c0,.25-1.12,1.09-2.94,1.09h-.63v-20.62c-.53,.8-1.08,1.58-1.68,2.24l-.53-.28c1.4-3.61,2.59-9,3.04-13.93l4.38,1.02-.21-.6,.35-.14c7.7,2.76,3.5,8.3,.67,5.36,.07-1.37-.21-2.83-.63-4.1-.21,.25-.56,.38-1.08,.42-.46,1.68-1.02,3.33-1.68,4.9l1.37,.53h5.46l1.68-2.21s1.86,1.54,3.01,2.66c-.11,.38-.45,.56-.95,.56h-3.92v5.84h.32l1.47-2.17s1.68,1.54,2.66,2.59c-.1,.38-.42,.56-.91,.56h-3.54v6.09h.49l1.51-2.14s1.71,1.54,2.66,2.59c-.07,.38-.42,.56-.88,.56h-3.78v7.07h.67l1.68-2.41Zm-8.05-18.59v5.84h2.38v-5.84h-2.38Zm2.38,6.83h-2.38v6.09h2.38v-6.09Zm-2.38,14.18h2.38v-7.07h-2.38v7.07Z"/>
      <path class="cls-2" d="M407.39,29.69s2.77,2.1,4.45,3.57c-.07,.39-.49,.56-1.01,.56h-4.27v23.63c0,2.84-.84,4.87-6.23,5.22-.07-1.33-.42-2.38-1.22-2.98-.84-.63-1.93-1.12-4.48-1.5v-.46s5.67,.35,6.79,.35c.7,0,.94-.28,.94-.81v-23.45h-23.24l-.28-1.02h26.08l2.48-3.12Zm-10.61,23.31c-.04,.28-2.03,1.02-3.33,1.02h-.66v-2.91h-6.02v3.04c0,.38-1.64,1.26-3.32,1.26h-.6v-17.4l4.1,1.68h5.5l1.85-2.03,3.92,2.94c-.25,.28-.7,.59-1.44,.73v11.66Zm-3.99-2.87v-9.45h-6.02v9.45h6.02Z"/>
      <path class="cls-2" d="M427.3,47.26c-.21,.35-.56,.46-1.29,.49-.84,2.52-2.55,5.29-4.87,7.46,.28,.07,.49,.21,.77,.42,2.77,2.21,6.97,2.66,14.74,2.66,4.09,0,7.45,0,11.55-.28v.45c-1.61,.35-2.55,1.82-2.77,3.43h-10.19c-7.7,0-10.78-1.37-13.76-5.01-.49-.63-.91-.56-1.19,.07-.6,1.05-1.47,2.87-2.17,4.62,.07,.35-.04,.53-.28,.74l-2.84-3.99c1.37-.7,3.19-1.96,4.38-2.66,1.26-2.34,2.24-5.53,2.66-8.19h-1.75l-1.22,1.16-3.12-2.21c.35-.25,.88-.53,1.4-.7,1.08-1.72,2.52-4.24,3.46-6.02h-4.83l-.32-1.02h5.18l1.71-1.71,3.43,3.08c-.31,.35-1.01,.53-1.82,.59-.91,1.54-2.38,4.06-3.46,5.81h1.12l1.99-1.96,3.46,2.77Zm-10.39-16.87c9.7,.81,6.58,8.12,2.76,5.6-.35-1.92-1.75-4.06-3.04-5.39l.28-.21Zm16.8,7.56v-3.25h-6.65l-.28-1.02h6.93v-3.88l5.04,.42c-.04,.38-.28,.67-.98,.8v2.66h2.24l2-2.45s2.28,1.68,3.71,2.91c-.1,.39-.46,.56-.98,.56h-6.97v3.25h4.45l2.03-2.52s2.34,1.71,3.78,2.97c-.07,.39-.42,.56-.95,.56h-7.25l3.89,1.12c-.14,.46-.56,.7-1.29,.67-.95,.8-2.38,1.82-3.78,2.7h2.52l1.92-2.35s2.28,1.58,3.68,2.77c-.11,.38-.49,.56-.98,.56h-8.02v3.22h2.62l1.89-2.34s2.21,1.61,3.54,2.76c-.07,.39-.42,.56-.91,.56h-7.14v3.29h4.17l1.99-2.42s2.28,1.65,3.68,2.87c-.07,.38-.45,.56-.95,.56h-8.89v3.88c0,.21-1.26,1.05-3.32,1.05h-.74v-4.94h-8.37l-.28-1.02h8.65v-3.29h-6.51l-.28-.98h6.79v-3.22h-7.74l-.28-.98h5.29c-.17-.11-.38-.25-.56-.42,0-1.44-.6-3.05-1.33-4.06h-4.23l-.28-1.02h9.13Zm3.71,5.5c.46-1.37,.95-3.12,1.19-4.48h-8.05c4.1,1.19,3.92,3.64,2.55,4.48h4.31Z"/>
      <path class="cls-2" d="M469.38,55.83v3.71h-16.8v-2.73c2.03-2.21,4.06-4.34,5.78-6.09,3.96-4.13,5.53-6.69,5.53-10.12,0-3.22-1.68-5.32-4.52-5.32-.53,0-1.08,.07-1.64,.21l-.84,3.22c-.38,2.07-1.33,2.66-2.35,2.66-.95,0-1.68-.53-2.06-1.33,.42-3.92,4.09-6.02,8.4-6.02,5.29,0,7.7,2.8,7.7,6.76,0,3.46-2.52,6.41-8.82,11.27-1.12,.88-2.77,2.31-4.48,3.78h14.11Z"/>
      <path class="cls-2" d="M491.32,47.12c0,9.17-4.17,12.99-8.65,12.99s-8.64-3.82-8.64-12.99,4.1-13.09,8.64-13.09,8.65,3.82,8.65,13.09Zm-8.65,11.69c2.17,0,4.17-2.52,4.17-11.69s-1.99-11.83-4.17-11.83-4.2,2.52-4.2,11.83,1.96,11.69,4.2,11.69Z"/>
      <path class="cls-2" d="M521.14,58.32v1.23h-10.71v-1.23l2.8-.28-6.23-11.66-3.08,3.75c0,2.38,0,5.08,.07,7.88l3.08,.31v1.23h-11.24v-1.23l3.32-.31c.07-3.47,.07-7,.07-10.57v-1.71c0-3.5,0-7.04-.07-10.57l-3.32-.32v-1.26h11.52v1.26l-3.36,.35c-.07,3.46-.07,7-.07,10.54v2.49l10.22-12.88-3.36-.49v-1.26h9v1.26l-3.64,.49-6.09,7.35,8.47,15.4,2.62,.24Z"/>
      <path class="cls-2" d="M552.68,35.15c-.04,3.54-.04,7.07-.04,10.57v1.71c0,3.54,0,7.07,.04,10.57l3.36,.31v1.23h-11.55v-1.23l3.22-.31c.11-3.47,.04-6.97,.11-10.01l.07-11.03-8.54,22.58h-1.71l-8.79-22.44c.11,3.5,.18,8.16,.18,9.63v11.17l3.68,.42v1.23h-9.1v-1.23l3.71-.42,.14-22.61-3.67-.46v-1.26h8.54l7.77,19.74,7.56-19.74h8.4v1.26l-3.36,.32Z"/>
      <path class="cls-2" d="M63.34,95.58c-.21,.35-.56,.42-1.3,.49-.91,2.59-2.73,5.36-5.21,7.49,.1,.07,.21,.14,.31,.21,2.73,2.2,7,2.7,14.7,2.7,4.1-.04,7.42-.04,11.55-.25v.45c-1.68,.31-2.62,1.82-2.8,3.36h-10.19c-7.63,0-10.75-1.33-13.69-4.97-.49-.67-.88-.59-1.15,.04-.6,1.05-1.47,2.91-2.24,4.66,.1,.32,0,.53-.25,.7l-2.84-3.96c1.86-.98,4.59-2.98,5.46-3.15,1.12-2.17,2.03-5.08,2.42-7.56h-2.35l-1.26,1.12-3.12-2.24c.35-.21,.88-.49,1.4-.66,1.12-1.61,2.59-3.99,3.5-5.71h-5.08l-.31-.98h5.46l1.71-1.75,3.43,3.12c-.31,.35-1.02,.53-1.86,.56-.88,1.54-2.38,3.88-3.5,5.57h1.71l2-2,3.46,2.76Zm-11.06-17.01c9.66,.81,6.54,8.16,2.8,5.64-.39-1.92-1.79-4.1-3.12-5.43l.31-.21Zm17.12,3.64c-2.24,.14-4.48,.17-6.58,.14l-.14-.52c4.9-.81,11.03-2.52,14.14-3.92l3.57,3.4c-.35,.32-1.08,.38-2.1-.04-1.44,.28-3.19,.49-5.11,.66v3.47h3.46l1.96-2.52s2.35,1.71,3.75,2.98c-.11,.38-.49,.56-.98,.56h-8.19v.39c12.29,1.22,10.19,7.77,6.83,6.3-1.05-1.33-3.61-3.57-6.83-5.42v4.45c0,.17-1.19,.8-3.12,.8h-.66v-3.61c-2.1,1.82-4.76,3.26-7.77,4.38l-.31-.49c2.7-1.75,4.83-4.2,6.23-6.79h-6.27l-.28-1.01h8.4v-3.19Zm1.4,19.81c1.4,.1,3.78,.28,4.45,.28,.56,0,.84-.07,1.08-.25,.49-.31,.95-1.64,1.22-3.57h-1.99l-1.47,1.51-3.26-2.35c.39-.28,.95-.56,1.51-.74,.28-.77,.63-1.64,.88-2.41h-2.52c-.91,5.01-3.54,8.61-8.47,10.89l-.21-.46c3.26-2.77,4.45-6.34,4.73-10.43h-3.43l-.31-.98h10.08l1.44-1.68,3.4,2.62c-.21,.28-.67,.49-1.26,.63-.28,.7-.63,1.61-.94,2.42h1.64l1.71-1.68,3.26,2.66c-.25,.25-.63,.42-1.33,.53-.42,3.12-1.22,5.11-2.66,5.99-.84,.53-2.1,.84-3.75,.84,0-.88-.14-1.72-.7-2.21-.53-.49-1.75-.88-3.12-1.12l.04-.49Z"/>
      <path class="cls-2" d="M98.1,95.86c-.25,.25-.56,.28-1.19,.32-.77,2.42-2.34,5.04-4.45,7.11,.21,.04,.42,.14,.67,.32,2.66,2.17,7,2.59,14.91,2.59,4.23-.04,7.56-.04,11.76-.28v.46c-1.64,.32-2.62,1.82-2.8,3.4h-10.4c-7.98,0-11.03-1.19-13.9-4.87-.53-.67-.88-.56-1.19,.07-.49,1.05-1.16,2.77-1.79,4.48,.1,.32,0,.53-.25,.7l-2.84-3.92c1.29-.7,3.12-2.03,4.27-2.66,1.08-2.21,1.89-5.15,2.17-7.67h-1.19l-1.19,1.19-3.15-2.1c.32-.28,.81-.53,1.29-.7,.88-1.68,2.07-4.13,2.77-5.88h-4.03l-.31-1.01h4.3l1.58-1.61,3.15,2.87c-.25,.28-.74,.46-1.33,.53-.7,1.54-1.89,3.99-2.8,5.74h.7l1.89-1.92,3.33,2.62v-6.76l2.7,1.09v-11.06l3.78,1.5h6.58l1.57-2.07,3.96,2.77c-.24,.35-.7,.56-1.57,.67v8.61l1.12-1.65,2.42,3.22c-.24,.25-.77,.49-1.33,.59v9.28c0,2.24-.63,3.54-4.34,3.71,0-1.12-.11-1.61-.42-2.17-.32-.56-.98-.98-2.14-1.19v-.46s1.65,.11,2.66,.11c.39,0,.53-.07,.53-.39v-10.01h-11.94v12.32c0,.35-1.54,1.19-3.04,1.19h-.53v-9.07Zm-9.14-17.15c9,1.58,5.57,8.3,2.17,5.67-.17-1.89-1.37-4.09-2.48-5.46l.31-.21Zm19.95,23.07v-1.3h-2.59v1.12c0,.21-1.33,.91-2.59,.91h-.42v-9.7l3.19,1.33h2.13l1.4-1.47,2.94,2.21c-.18,.21-.56,.45-1.05,.52v5.46c-.04,.25-1.51,.91-2.52,.91h-.49Zm-4.66-20.37v9h1.96v-7.11l3.36,1.33h1.96v-3.22h-7.28Zm4.66,18.06v-4.34h-2.59v4.34h2.59Zm.21-9.07h2.42v-4.76h-2.42v4.76Z"/>
      <path class="cls-2" d="M153.75,104.33c1.75,.67,2.21,.91,2.21,1.79,0,2.28-3.29,3.01-11.34,3.01h-7.7c-7.98,0-11.45-1.89-11.9-5.64-.6-4.38,5.67-9.1,19.85-20.62h-18.69l-.31-.98h19.78l2.07-2.1,4.17,3.99c-.42,.35-1.16,.56-2.38,.63-14.74,11.06-20.23,16.21-19.85,18.52,.31,1.71,2.62,2.13,6.86,2.13h8.51c4.45,0,5.32-.28,5.78-.74,1.02-1.01,1.82-3.12,2.73-6.44l.35,.04-.11,6.41Z"/>
      <path class="cls-2" d="M177.41,88.4c1.26,6.79,5.43,13.76,15.37,18.06l-.04,.42c-2.14,.35-3.4,1.65-3.85,3.96-8.02-5.08-10.78-13.55-11.83-20.69-.53,3.64-1.54,7.14-3.61,10.4,9.66,3.36,5.46,10.75,1.64,7.32-.11-2.17-1.09-4.59-2.21-6.51-2.55,3.64-6.62,6.9-12.95,9.59l-.35-.53c9.87-6.44,12.53-13.93,13.23-22.02h-12.29l-.31-.98h12.71c.21-3.01,.17-6.09,.17-9.24l5.85,.59c-.07,.49-.38,.84-1.26,.98-.07,2.59-.14,5.15-.35,7.67h7.56l2.55-3.22s2.87,2.17,4.55,3.64c-.11,.38-.49,.56-1.02,.56h-13.58Z"/>
      <path class="cls-2" d="M199.35,100.83c1.37,3.61,1.15,6.34,.14,7.74-.73,.95-2.55,.98-3.19-.21-.52-1.05,0-2.1,.91-2.76,.81-.88,1.86-3.01,1.61-4.76h.53Zm7-20.44c-.14,.35-.53,.56-1.19,.53-1.47,2.24-4.03,5.22-6.27,7.18,1.33,.04,2.97,.04,4.69,0,.7-1.26,1.26-2.41,1.64-3.36l4.1,2.8c-.17,.28-.66,.53-1.33,.39-1.86,2.52-5.43,6.06-8.64,8.4,1.61-.07,3.71-.21,5.95-.38-.28-1.16-.66-2.24-1.05-3.12l.42-.17c6.65,3.57,3.36,8.65,.95,6.12,.04-.53-.04-1.08-.11-1.68-1.82,.73-4.2,1.71-6.83,2.66-.28,.35-.6,.59-.95,.7l-1.37-4.13s.84-.14,1.19-.42c1.54-1.19,3.43-3.64,4.97-6.06-1.05,.42-2.24,.91-3.54,1.4-.24,.42-.56,.7-.91,.8l-1.68-4.06s.7-.21,1.02-.42c1.61-1.75,3.68-6.76,4.27-9.42l4.66,2.24Zm-4.62,19.99c5.46,4.48,1.86,9.31-.28,6.62,.38-2.13,.21-4.69-.18-6.51l.45-.1Zm2.84-.53c6.93,2.98,3.88,8.37,1.33,5.95,.04-1.93-.8-4.27-1.71-5.78l.38-.18Zm24.96-18.52c-.24,.28-.73,.56-1.44,.7v24.08c0,2.45-.52,3.85-4.55,4.2-.07-1.05-.25-1.89-.77-2.42-.53-.49-1.22-.88-2.83-1.15v-.49s3.32,.21,4.03,.21c.59,0,.77-.21,.77-.74v-15.68c-.14,.07-.31,.11-.53,.11h-11.1l-.25-.98h6.13c.56-2,1.12-4.8,1.44-6.76l4.06,1.12c-.17,.42-.56,.74-1.33,.67-.84,1.44-2.1,3.36-3.39,4.97h1.37l1.4-1.92s1.22,1.05,2.21,1.96v-7.74h-12.18v28.11c0,.25-1.02,1.05-2.66,1.05h-.56v-31.61l3.68,1.44h11.38l1.57-1.89,3.57,2.77Zm-6.72,20.58c.77,.28,1.05,.56,1.05,1.09,0,1.12-.95,1.54-4.48,1.54h-2c-2.31,0-2.62-.66-2.62-2.38v-6.16h-1.37l-.28-1.01h7.38l1.33-1.82s1.54,1.29,2.49,2.28c-.07,.38-.42,.56-.88,.56h-5.92v5.57c0,.38,.11,.49,.7,.49h2.8c.18,0,.49-.03,.6-.03,.21-.04,.49-.07,.7-.14h.32l.17,.04Zm-8.93-19.25c6.69,2.83,3.64,7.74,1.26,5.5-.04-1.79-.88-3.92-1.68-5.32l.42-.17Zm2.49,7.63c6.55,1.71,2.94,6.2,.56,3.85,.07-1.29-.38-2.77-.91-3.71l.35-.14Z"/>
      <path class="cls-2" d="M242.05,104.12c1.71-.38,3.54-.77,5.32-1.19l.14,.38c-2.87,1.54-7,3.67-12.92,6.3-.17,.42-.53,.8-.91,.91l-1.75-4.34c.53-.07,1.19-.21,2-.35v-12.5l3.85,.35c-.04,.31-.24,.59-.8,.67v10.89l1.5-.31v-14.91h-.94v.49c0,.25-1.12,1.01-2.91,1.01h-.63v-12.5l3.99,1.58h3.67l1.72-1.85,3.57,2.73c-.21,.25-.67,.53-1.33,.67v8.02c-.07,.25-1.82,.88-2.98,.88h-.59v4.69h.45l1.75-2.73s1.99,1.89,3.12,3.15c-.11,.38-.46,.56-.95,.56h-4.38v7.42Zm-4.52-15.12h4.48v-7.42h-4.48v7.42Zm25.76-5.25c-.24,.38-.63,.49-1.44,.56-1.12,2.49-2.62,4.79-4.55,6.86,2.35,1.37,5.18,2.41,8.51,3.08l-.07,.35c-1.65,.59-2.49,1.75-2.77,3.71-.8-.31-1.58-.63-2.28-.98l2.28,1.71c-.25,.28-.56,.49-1.29,.63v10.19c0,.21-1.29,.88-3.36,.88h-.73v-2.49h-6.2v1.68c0,.28-1.19,.95-3.19,.95h-.67v-13.13c-1.08,.45-2.24,.84-3.43,1.19l-.28-.46c3.88-1.85,7.14-4.41,9.62-7.42-.91-1.3-1.64-2.73-2.31-4.27-1.61,1.85-3.43,3.33-5.43,4.48l-.38-.32c2.55-3.01,4.87-7.81,5.95-12.99l5.18,1.68c-.17,.46-.59,.77-1.4,.7-.35,.81-.7,1.58-1.08,2.31h3.64l2.17-2.07,3.5,3.15Zm-4.13,12.71c-1.54-.94-2.87-2.03-3.99-3.25-1.86,1.58-3.99,2.94-6.47,4.06l3.08,1.16h5.67l1.71-1.96Zm-1.57,10.82v-7.84h-6.2v7.84h6.2Zm-4.2-23.59c-.49,.84-1.02,1.61-1.61,2.34,.8,1.23,1.82,2.35,2.97,3.33,1.22-1.79,2.21-3.67,2.91-5.67h-4.27Z"/>
      <path class="cls-2" d="M297.42,77.9s2.77,2.1,4.45,3.57c-.07,.39-.49,.56-1.01,.56h-4.27v23.63c0,2.84-.84,4.87-6.23,5.22-.07-1.33-.42-2.38-1.22-2.98-.84-.63-1.93-1.12-4.48-1.5v-.46s5.67,.35,6.79,.35c.7,0,.94-.28,.94-.81v-23.45h-23.24l-.28-1.02h26.08l2.48-3.12Zm-10.61,23.31c-.04,.28-2.03,1.02-3.33,1.02h-.66v-2.91h-6.02v3.04c0,.38-1.64,1.26-3.32,1.26h-.6v-17.4l4.1,1.68h5.5l1.85-2.03,3.92,2.94c-.25,.28-.7,.59-1.44,.73v11.66Zm-3.99-2.87v-9.45h-6.02v9.45h6.02Z"/>
      <path class="cls-2" d="M317.72,95.79c-.21,.18-.53,.25-1.05,.28-.88,2.52-2.66,5.22-5.01,7.39,.07,.04,.14,.11,.25,.17,2.73,2.17,7,2.63,14.77,2.63,4.09,0,7.53-.04,11.59-.25v.42c-1.65,.32-2.59,1.82-2.8,3.4h-10.19c-7.77,0-10.85-1.29-13.76-4.94-.52-.63-.91-.56-1.22,.07-.56,1.02-1.37,2.84-2.1,4.59,.11,.32,0,.53-.25,.7l-2.8-3.96c1.75-.91,4.41-2.87,5.29-3.08,1.15-2.17,2.03-4.97,2.41-7.39h-2.27l-1.26,1.16-3.15-2.31c.35-.24,.88-.49,1.44-.66,1.19-1.61,2.7-3.99,3.68-5.67h-5.11l-.31-.98h5.53l1.75-1.75,3.39,3.12c-.31,.35-1.01,.53-1.86,.59-.94,1.51-2.48,3.85-3.64,5.53h1.61l1.93-1.96,3.15,2.56v-10.75l4.03,1.58h2.66v-2.94h-8.54l-.28-.98h8.82v-4.34l5.11,.49c-.1,.49-.35,.88-1.29,1.01v2.83h2.8l2.17-2.7s2.45,1.79,3.99,3.12c-.11,.38-.49,.56-.98,.56h-7.98v2.94h2.42l1.86-2,3.85,2.94c-.24,.28-.73,.59-1.44,.73v8.89c-.04,.14-.53,.42-1.19,.7,.6,.42,2.59,1.89,3.85,3.01-.07,.38-.46,.56-.95,.56h-8.4v3.43c0,.39-1.68,1.23-3.12,1.23h-.7v-4.66h-8.47l-.28-1.02h8.75v-3.46h-2.91v.8c0,.35-1.64,1.19-3.22,1.19h-.56v-2.84Zm-10.68-17.22c9.52,1.02,6.3,8.19,2.63,5.64-.32-1.92-1.68-4.1-2.94-5.43l.31-.21Zm14.46,8.72v3.57h2.91v-3.57h-2.91Zm2.91,8.33v-3.78h-2.91v3.78h2.91Zm3.81-8.33v3.57h2.77v-3.57h-2.77Zm2.77,4.55h-2.77v3.78h2.77v-3.78Zm2.35,5.81c-.56,.17-1.16,.32-1.68,.32h-.67v-1.33h-2.77v3.46h3.12l2-2.45Z"/>
      <path class="cls-2" d="M354.19,93.41c-1.05,.74-2.48,1.61-4.27,2.66v9.8c0,2.87-.56,4.52-4.9,4.94-.11-1.37-.28-2.38-.73-3.01-.49-.7-1.19-1.12-2.66-1.4v-.53s3.01,.21,3.71,.21c.56,0,.7-.18,.7-.6v-7.21l-1.68,.88c-.17,.49-.56,.84-.94,.91l-1.89-4.76c.95-.14,2.55-.39,4.52-.74v-7.28h-3.99l-.28-1.01h4.27v-8.23l5.18,.49c-.11,.53-.46,.88-1.3,.98v6.76h.18l1.71-2.7s1.99,1.89,3.04,3.15c-.07,.38-.42,.56-.91,.56h-4.03v6.55c1.37-.25,2.8-.56,4.2-.84l.07,.42Zm17.26,1.71s1.86,1.47,2.94,2.52c-.07,.38-.42,.56-.91,.56h-5c-.63,2.27-1.61,4.34-3.26,6.16,10.54,3.54,5.67,7.98,2.48,5.95-1.19-1.16-2.94-2.42-5.11-3.68-2.59,1.79-6.27,3.25-11.31,4.24l-.25-.46c4.24-1.33,7.21-3.01,9.31-5.01-1.96-1.01-4.17-2-6.62-2.83,.63-1.01,1.4-2.66,2.14-4.38h-4.59l-.28-.98h5.25c.88-2.07,1.61-4.1,1.96-5.29l5.08,1.12c-.11,.38-.38,.77-1.44,.8-.38,.91-.84,2.1-1.4,3.36h4.2c.21-1.19,.31-2.42,.35-3.64l5.36,.77c-.07,.56-.52,.84-1.33,.88-.1,.67-.21,1.33-.35,2h1.12l1.64-2.1Zm-1.33-6.79s2.35,1.79,3.71,3.05c-.07,.38-.42,.56-.91,.56h-20.72l-.28-1.02h12.18c.77-2.07,1.51-4.76,1.93-6.76l5.04,1.26c-.18,.42-.56,.73-1.33,.7-1.09,1.43-2.84,3.29-4.59,4.79h2.94l2.03-2.59Zm-16.45-4.31l-.28-1.02h13.93l1.96-2.59s2.28,1.79,3.61,3.04c-.11,.39-.45,.56-.98,.56h-18.24Zm2.24,.25c8.26,2.34,4.97,8.4,1.85,5.92-.21-1.92-1.26-4.2-2.21-5.71l.35-.21Zm4.13,13.93c-.73,1.61-1.47,3.22-2.13,4.38,1.54,.28,2.94,.56,4.17,.88,1.19-1.61,1.93-3.4,2.38-5.25h-4.41Zm-.46-20.41c8.54,.84,4.9,7.18,1.58,4.55-.07-1.54-.95-3.33-1.86-4.34l.28-.21Z"/>
      <path class="cls-2" d="M406.2,84.03c-.31,.38-.66,.49-1.64,.56-1.68,2.38-3.71,4.55-6.13,6.41,3.99,1.71,8.61,2.76,13.09,3.33l-.04,.38c-1.79,.42-2.9,1.75-3.43,3.75-1.68-.42-3.29-.91-4.83-1.51l3.08,2.35c-.21,.31-.73,.63-1.47,.8v9.49c-.07,.25-2.17,.98-3.57,.98h-.7v-2.59h-11.2v1.54c0,.38-1.86,1.29-3.57,1.29h-.63v-13.23c-2.28,.66-4.66,1.23-7.18,1.61l-.21-.46c5.81-1.89,11.13-4.66,15.29-8.09-1.5-1.5-2.76-3.25-3.78-5.25-2.8,2.87-6.16,5.46-9.7,7.11l-.28-.35c4.1-3.26,8.23-9.21,10.15-14.35l5.74,1.4c-.18,.38-.46,.56-1.44,.52-.6,.95-1.29,1.93-2.03,2.87h7.67l2.77-2.41,4.03,3.85Zm-4.3,12.39c-2.28-.95-4.34-2.1-6.23-3.5-2.66,1.68-5.71,3.12-9.07,4.2l3.01,1.19h10.61l1.68-1.89Zm-1.33,10.54v-7.63h-11.2v7.63h11.2Zm-9.66-23.35c-.35,.38-.7,.8-1.05,1.19,1.26,1.68,2.97,3.12,4.97,4.34,1.82-1.71,3.33-3.57,4.52-5.53h-8.44Z"/>
      <path class="cls-2" d="M442.78,104.93s2.83,2.17,4.58,3.64c-.1,.39-.49,.56-1.01,.56h-31.57l-.28-1.02h14.04v-10.5h-9.63l-.28-1.01h9.91v-8.96h-6.2c-2.17,3.61-4.76,6.48-7.77,8.58l-.38-.32c2.7-3.99,5.29-10.33,6.51-16.66l5.88,1.75c-.11,.42-.56,.73-1.37,.73-.7,1.79-1.44,3.43-2.31,4.94h5.64v-8.47l5.81,.56c-.11,.52-.35,.88-1.3,1.01v6.9h5.53l2.42-2.97s2.7,1.96,4.41,3.39c-.11,.39-.49,.56-1.05,.56h-11.31v8.96h4.38l2.45-3.05s2.8,2.07,4.48,3.5c-.11,.38-.46,.56-.95,.56h-10.36v10.5h7.21l2.52-3.18Z"/>
      <path class="cls-2" d="M451,86.3c9.45,.42,6.76,7.56,3.08,5.32-.46-1.86-2-3.85-3.36-5.04l.28-.28Zm10.99-.84c-1.44,3.99-4.03,11.48-4.52,13.23-.31,1.16-.6,2.38-.6,3.29,.07,1.82,1.51,3.01,1.4,6.06-.07,1.79-1.26,2.91-3.01,2.91-.84,0-1.61-.53-1.93-1.79,.67-3.68,.53-6.79-.31-7.35-.49-.35-1.09-.53-1.86-.6v-.63h1.65c.52,0,.7-.04,1.12-.74q.8-1.29,7.53-14.56l.53,.18Zm-8.37-6.83c9.77,.42,7.28,7.7,3.39,5.6-.6-1.89-2.31-4.06-3.68-5.32l.28-.28Zm26.46,7.91s2.48,2.06,3.96,3.46c-.11,.39-.49,.56-.98,.56h-9.1v6.72h2.94l1.92-2.1,3.96,3.04c-.25,.28-.74,.6-1.44,.74v10.47c-.04,.28-2,1.16-3.4,1.16h-.7v-2.87h-10.61v1.79c0,.38-1.75,1.26-3.47,1.26h-.52v-15.16l4.2,1.68h2.94v-6.72h-8.86l-.28-1.02h9.14v-5.95c-2.84,.28-5.81,.49-8.54,.56l-.07-.52c5.92-1.19,13.44-3.54,17.29-5.32l4.06,3.92c-.42,.31-1.22,.35-2.31-.07-1.75,.35-3.92,.7-6.27,.98v6.41h3.89l2.24-3.01Zm-13.44,11.76v8.4h10.61v-8.4h-10.61Z"/>
      <path class="cls-2" d="M513.34,88.68c.32-1.22,.67-2.98,.84-4.38h-4.41v4.62c0,.91,.04,.91,.98,.91h4.94c.24,0,.7,0,1.12-.11h.32l.17,.04c1.26,.46,1.47,.74,1.47,1.33,0,1.61-.88,2.28-4.41,2.28h-2.91c.49,.42,2.38,1.96,3.57,3.12-.07,.39-.45,.56-.94,.56h-8.33v11.06h6.93l2.21-3.01s2.52,2.03,3.95,3.46c-.07,.39-.45,.56-.98,.56h-28.67l-.28-1.02h12.57v-11.06h-8.47l-.28-1.02h16.56l2-2.66h-1.09c-4.06,0-4.45-.52-4.45-4.45v-4.62h-12.64c.42,2.73-.52,4.58-1.82,5.32-1.19,.77-2.8,.38-3.29-.95-.38-1.26,.38-2.24,1.47-2.76,1.23-.77,2.42-2.73,2.14-4.9l.49-.03c.38,.84,.66,1.61,.84,2.34h10.15c-.38-.14-.73-.32-1.12-.63,0-1.71-.81-3.54-1.72-4.73l.25-.14c7.25,.59,6.65,4.66,4.3,5.5h9.14l2.24-2.31,3.92,3.75c-.28,.31-.66,.42-1.37,.46-1.22,1.19-3.39,2.8-5.14,3.71l-.25-.25Zm-24.54,6.06c5.92-2.73,8.65-6.44,9.7-10.43l5.29,2.59c-.14,.46-.56,.74-1.68,.7-2.52,3.82-6.34,6.65-13.09,7.53l-.21-.38Z"/>
      <path class="cls-2" d="M529.54,90.4v18.94c0,.53-1.5,1.54-3.32,1.54h-.67v-31.96l4.13,1.79h4.79l1.71-1.89,3.64,2.77c-.21,.25-.63,.56-1.26,.66v9.14c-.04,.25-1.93,.95-3.12,.95h-.63v-1.92h-5.29Zm0-8.68v3.33h5.29v-3.33h-5.29Zm5.29,7.7v-3.43h-5.29v3.43h5.29Zm21.18-7.77c-.24,.28-.7,.59-1.44,.7v23.7c0,2.8-.56,4.41-5,4.79-.07-1.33-.25-2.31-.67-2.91-.49-.59-1.15-1.05-2.7-1.33v-.1c-.63,.31-1.75,.7-2.59,.7h-.67v-2.03h-6.05v1.33c0,.35-1.58,1.15-3.15,1.15h-.53v-14.63l3.82,1.58h5.6l1.75-1.93,3.64,2.77c-.21,.25-.66,.53-1.29,.63v10.05c.88,.07,2.62,.21,3.12,.21,.56,0,.7-.28,.7-.73v-15.19h-5.46v.67c0,.35-1.68,1.22-3.29,1.22h-.53v-13.16l3.96,1.58h4.97l1.86-2.17,3.96,3.12Zm-19.11,13.9v3.75h6.05v-3.75h-6.05Zm6.05,8.65v-3.89h-6.05v3.89h6.05Zm2.14-22.47v3.33h5.46v-3.33h-5.46Zm5.46,7.7v-3.43h-5.46v3.43h5.46Z"/>
      <path class="cls-2" d="M160.72,126.37s2.55,2,4.06,3.36c-.11,.38-.46,.56-.98,.56h-6.06c-1.05,1.4-2.24,2.91-3.36,3.99h4.06l1.75-1.93,3.61,2.8c-.18,.25-.6,.49-1.23,.59v15.47c-.03,.25-1.89,1.05-3.18,1.05h-.63v-1.33h-6.02v.6c0,.1-.07,.21-.21,.35l3.78,2.24c-.17,.28-.52,.35-1.08,.18-2.28,1.96-6.83,3.99-10.68,4.83l-.28-.46c2.56-1.47,5.32-3.96,7-6.16-.53,.18-1.12,.28-1.72,.28h-.56v-8.89c-.21,.14-.56,.17-1.12,.14-3.36,8.19-8.02,12.36-15.72,14.91l-.17-.56c3.68-2,6.51-4.48,8.71-7.98-.42,.1-.88,.17-1.33,.17h-.63v-6.37c-.21,.14-.53,.21-.91,.21-1.47,3.12-3.5,5.67-5.88,7.28l-.46-.32c1.37-2.24,2.55-5.63,3.08-9.07l4.17,1.22v-3.85l4.76,.46c-.07,.46-.35,.8-1.29,.98v6.55c.84-1.79,1.57-3.78,2.21-6.02l4.59,1.71v-10.75l3.92,1.65h.31c.11-1.08,.21-2.66,.28-3.99h-5.67l-.28-1.02h10.89l2.28-2.91Zm-29.23,11.83h2.59v-8.93l4.06,.39c-.07,.42-.35,.73-1.12,.84v7.7h1.86v-11.69l4.62,.42c-.04,.46-.31,.77-1.12,.91v4.69h.77l1.79-2.49s2.03,1.71,3.19,2.94c-.07,.38-.42,.56-.88,.56h-4.87v4.66h1.22l1.89-2.52s2.1,1.75,3.36,2.97c-.11,.39-.42,.56-.91,.56h-16.17l-.28-1.02Zm21.25-2.94v4.1h6.02v-4.1h-6.02Zm0,9.38h6.02v-4.27h-6.02v4.27Zm6.02,5.29v-4.27h-6.02v4.27h6.02Zm-2.49,1.92c10.54,1.54,8.26,8.96,4.48,6.83-.8-2.28-3.01-4.94-4.76-6.58l.28-.25Z"/>
      <path class="cls-2" d="M201.04,131.51c-.25,.28-.6,.35-1.33,.39-.84,.7-2.24,1.54-3.36,2.03,.56,.46,1.16,.98,1.65,1.44-.11,.38-.46,.56-.95,.56h-7v1.61c0,.21-1.68,.7-3.01,.7h-.77v-6.48l4.69,.46c-.04,.35-.24,.59-.91,.7v2h2.91l1.79-2.28s.42,.35,1.02,.84c.14-.67,.28-1.5,.31-2.24h-22.89c.11,1.96-.67,3.33-1.75,3.89-1.05,.53-2.62,.17-3.01-1.12-.32-1.22,.46-2.13,1.54-2.59,1.02-.49,2.13-1.72,2-3.01h.53c.24,.63,.46,1.26,.56,1.82h10.64c-.28-.11-.53-.25-.81-.46-.04-1.33-.7-2.77-1.33-3.57l.25-.17c6.09,.14,5.67,3.4,3.71,4.2h10.29l1.89-1.92,3.36,3.22Zm-2.13,23.35c1.08,.42,1.37,.84,1.37,1.47,0,1.44-1.33,1.86-7.39,1.86h-3.71c-3.57,0-4.27-.67-4.27-3.04v-5.01h-1.82c-.95,4.24-3.19,7.42-13.9,9.21l-.31-.49c7.95-2.38,9.62-5.43,10.22-8.72h-2.17v.59c0,.39-1.75,1.26-3.4,1.26h-.59v-14.91l4.27,1.65h13.86v-.04h-.35l1.86-1.92,3.81,2.83c-.21,.25-.66,.53-1.29,.63v9.63c-.04,.25-2.06,.98-3.32,.98h-.7v-.7h-2.21v4.55c0,.42,.11,.52,1.15,.52h6.02c.46-.03,.67-.14,.84-.46,.38-.52,.91-1.82,1.54-3.6h.38l.11,3.71Zm-20.23-16.7v-2.45h-5.95l-.31-.98h6.27v-3.05l4.65,.46c-.1,.35-.28,.63-.95,.74v4.73c0,.17-1.61,.53-2.9,.53l-.8,.04Zm-1.75,1.54v2.59h14.14v-2.59h-14.14Zm14.14,3.61h-14.14v2.31h14.14v-2.31Zm-14.14,5.84h14.14v-2.55h-14.14v2.55Zm13.44,2.14c7.21-.74,5.49,4.94,2.52,3.5-.42-1.19-1.71-2.55-2.77-3.22l.25-.28Z"/>
      <path class="cls-2" d="M221.44,158.18c0,.25-1.22,.98-3.26,.98h-.7v-5.67c-2.42,.84-5.46,1.79-9.38,2.98-.18,.46-.56,.74-.95,.8l-1.93-4.34c.8-.04,1.93-.11,3.29-.18v-11.73h-3.46l-.28-.98h26.15l2.24-3.04s2.48,2.06,3.96,3.46c-.11,.39-.46,.56-.98,.56h-14.7v17.15Zm-7.67-20.16c0,.38-1.82,1.23-3.46,1.23h-.6v-12.43l4.31,1.68h13.76l1.89-2.07,3.99,3.01c-.21,.28-.67,.6-1.4,.74v7.56c-.04,.21-2.1,.91-3.43,.91h-.7v-9.14h-14.35v8.51Zm-1.37,3.01v3.08h5.08v-3.08h-5.08Zm0,7.21h5.08v-3.15h-5.08v3.15Zm0,4.2c1.58-.11,3.29-.25,5.08-.42v-2.8h-5.08v3.22Zm12.29-21.81s1.57,1.16,2.66,2.1c-.11,.38-.42,.56-.91,.56h-11.17l-.28-1.01h8.3l1.4-1.65Zm-.04,3.68s1.61,1.16,2.66,2.1c-.11,.39-.42,.56-.88,.56h-11.17l-.28-1.02h8.26l1.4-1.64Zm11.59,10.75c-.24,.35-.53,.49-1.33,.56-.84,2.59-2.1,5.01-3.96,7.14,2.1,1.05,4.41,1.79,6.93,2.31v.38c-1.68,.35-2.87,1.68-3.36,3.68-2.45-1.05-4.48-2.28-6.16-3.85-1.89,1.47-4.13,2.77-6.86,3.75l-.25-.42c2.24-1.43,4.06-3.22,5.46-5.29-1.5-2.1-2.59-4.76-3.29-8.26h-1.54l-.31-1.02h8.54l2.28-2.24,3.85,3.26Zm-12.18,0c.91,2.52,2.28,4.41,4.1,5.88,.98-1.89,1.68-3.85,2.17-5.88h-6.27Z"/>
      <path class="cls-2" d="M269.14,127.66s2.8,2.03,4.48,3.47c-.11,.38-.49,.56-.98,.56h-31.12l-.31-.98h14.88c-.38-1.61-1.71-3.33-2.94-4.31l.25-.21c6.69-.35,7.25,3.19,5.67,4.52h7.67l2.42-3.05Zm.07,13.72l4.06,3.01c-.21,.28-.7,.59-1.44,.73v9.52c0,2.62-.6,4.13-5.15,4.48-.11-1.19-.24-2.1-.73-2.66-.49-.56-1.16-1.02-2.8-1.29v-.46s3.08,.21,3.88,.21c.53,0,.67-.25,.67-.66v-9.84h-20.44v13.34c0,.42-1.79,1.33-3.47,1.33h-.59v-17.36l4.38,1.71h19.78l1.86-2.07Zm-6.93,.74v-1.58h-9.66v.77c0,.32-1.82,1.19-3.5,1.19h-.56v-9.73l4.27,1.68h9.1l1.86-2.07,3.99,3.01c-.21,.28-.67,.59-1.37,.74v5.15c-.04,.21-2.13,.84-3.43,.84h-.7Zm1.58,11.9c-.04,.25-1.86,1.01-3.15,1.01h-.63v-1.71h-5.5v1.12c0,.31-1.71,1.12-3.22,1.12h-.52v-9.91l3.88,1.54h5.01l1.75-1.82,3.68,2.7c-.21,.28-.63,.56-1.29,.7v5.25Zm-1.58-14.46v-4.09h-9.66v4.09h9.66Zm-2.21,12.78v-4.13h-5.5v4.13h5.5Z"/>
      <path class="cls-2" d="M305.82,126.12s2.76,2.1,4.45,3.57c-.07,.39-.49,.56-1.02,.56h-4.27v23.63c0,2.84-.84,4.87-6.23,5.22-.07-1.33-.42-2.38-1.22-2.98-.84-.63-1.93-1.12-4.48-1.5v-.46s5.67,.35,6.79,.35c.7,0,.95-.28,.95-.81v-23.45h-23.24l-.28-1.02h26.08l2.49-3.12Zm-10.61,23.31c-.04,.28-2.03,1.02-3.32,1.02h-.67v-2.91h-6.02v3.04c0,.38-1.65,1.26-3.33,1.26h-.6v-17.4l4.1,1.68h5.5l1.86-2.03,3.92,2.94c-.24,.28-.7,.59-1.44,.73v11.66Zm-3.99-2.87v-9.45h-6.02v9.45h6.02Z"/>
      <path class="cls-2" d="M325.74,143.69c-.21,.35-.56,.45-1.29,.49-.84,2.52-2.55,5.29-4.87,7.46,.28,.07,.49,.21,.77,.42,2.77,2.21,6.97,2.66,14.74,2.66,4.09,0,7.46,0,11.55-.28v.45c-1.61,.35-2.55,1.82-2.77,3.43h-10.19c-7.7,0-10.78-1.37-13.76-5.01-.49-.63-.91-.56-1.19,.07-.6,1.05-1.47,2.87-2.17,4.62,.07,.35-.04,.53-.28,.74l-2.84-3.99c1.37-.7,3.19-1.96,4.38-2.66,1.26-2.34,2.24-5.53,2.66-8.19h-1.75l-1.22,1.16-3.12-2.21c.35-.25,.88-.53,1.4-.7,1.08-1.72,2.52-4.24,3.46-6.02h-4.83l-.32-1.02h5.18l1.71-1.71,3.43,3.08c-.31,.35-1.01,.53-1.82,.59-.91,1.54-2.38,4.06-3.46,5.81h1.12l1.99-1.96,3.46,2.77Zm-10.39-16.87c9.7,.81,6.58,8.12,2.76,5.6-.35-1.92-1.75-4.06-3.04-5.39l.28-.21Zm16.8,7.56v-3.25h-6.65l-.28-1.02h6.93v-3.88l5.04,.42c-.04,.38-.28,.67-.98,.8v2.66h2.24l2-2.45s2.28,1.68,3.71,2.91c-.1,.39-.46,.56-.98,.56h-6.97v3.25h4.45l2.03-2.52s2.34,1.71,3.78,2.97c-.07,.39-.42,.56-.95,.56h-7.25l3.89,1.12c-.14,.46-.56,.7-1.29,.66-.95,.8-2.38,1.82-3.78,2.7h2.52l1.92-2.35s2.28,1.58,3.68,2.77c-.11,.38-.49,.56-.98,.56h-8.02v3.22h2.62l1.89-2.34s2.2,1.61,3.54,2.76c-.07,.39-.42,.56-.91,.56h-7.14v3.29h4.17l1.99-2.41s2.28,1.65,3.68,2.87c-.07,.38-.46,.56-.95,.56h-8.89v3.88c0,.21-1.26,1.05-3.32,1.05h-.74v-4.94h-8.37l-.28-1.02h8.65v-3.29h-6.51l-.28-.98h6.79v-3.22h-7.74l-.28-.98h5.29c-.17-.11-.38-.25-.56-.42,0-1.44-.6-3.05-1.33-4.06h-4.23l-.28-1.02h9.13Zm3.71,5.5c.46-1.37,.95-3.12,1.19-4.48h-8.05c4.1,1.19,3.92,3.64,2.55,4.48h4.31Z"/>
      <path class="cls-2" d="M366.97,154.89v1.08h-15.02v-1.08l5.18-.63c.07-2.17,.1-4.34,.1-6.51v-14.21l-4.55,.46v-1.29l8.82-2.1,.49,.39-.14,5.63v11.13c0,2.17,.04,4.34,.11,6.51l5.01,.63Z"/>
      <path class="cls-2" d="M389.75,143.55c0,9.17-4.17,12.99-8.65,12.99s-8.65-3.82-8.65-12.99,4.1-13.09,8.65-13.09,8.65,3.82,8.65,13.09Zm-8.65,11.69c2.17,0,4.17-2.52,4.17-11.69s-2-11.83-4.17-11.83-4.2,2.52-4.2,11.83,1.96,11.69,4.2,11.69Z"/>
      <path class="cls-2" d="M411.59,143.55c0,9.17-4.17,12.99-8.65,12.99s-8.64-3.82-8.64-12.99,4.1-13.09,8.64-13.09,8.65,3.82,8.65,13.09Zm-8.65,11.69c2.17,0,4.17-2.52,4.17-11.69s-1.99-11.83-4.17-11.83-4.2,2.52-4.2,11.83,1.96,11.69,4.2,11.69Z"/>
      <path class="cls-2" d="M433.43,143.55c0,9.17-4.17,12.99-8.65,12.99s-8.64-3.82-8.64-12.99,4.1-13.09,8.64-13.09,8.65,3.82,8.65,13.09Zm-8.65,11.69c2.17,0,4.17-2.52,4.17-11.69s-1.99-11.83-4.17-11.83-4.2,2.52-4.2,11.83,1.96,11.69,4.2,11.69Z"/>
      <path class="cls-2" d="M466.51,131.58c-.03,3.54-.03,7.07-.03,10.57v1.71c0,3.54,0,7.07,.03,10.57l3.36,.31v1.23h-11.55v-1.23l3.22-.31c.1-3.47,.04-6.97,.1-10.01l.07-11.03-8.54,22.58h-1.71l-8.79-22.44c.1,3.5,.17,8.16,.17,9.63v11.17l3.68,.42v1.23h-9.1v-1.23l3.71-.42,.14-22.61-3.68-.46v-1.26h8.54l7.77,19.74,7.56-19.74h8.4v1.26l-3.36,.32Z"/>
      <path class="cls-2" d="M481.24,139.35c1.75-1.86,3.81-2.66,5.92-2.66,4.3,0,7.6,3.54,7.6,9.8,0,5.81-3.22,10.05-7.98,10.05-2,0-3.99-.7-5.6-2.59l-.56,2.45-6.47-.42v-1.08l2.55-.28c.04-2.03,.07-4.94,.07-6.86v-17.71l-2.84-.25v-.98l6.93-1.5,.53,.32-.14,5.57v6.16Zm.07,13.44c1.19,1.08,2.38,1.51,3.64,1.51,2.62,0,4.9-1.75,4.9-7.77,0-5.36-2-7.67-4.76-7.67-1.19,0-2.31,.25-3.78,1.54v12.39Z"/>
      <path class="cls-2" d="M508.58,154.89v1.08h-9.62v-1.08l2.55-.32c.04-2,.07-4.9,.07-6.83v-2.49c0-2.24-.04-3.57-.11-5.32l-2.84-.28v-.95l7.11-2,.49,.32-.07,5.46v5.25c0,1.92,.04,4.87,.07,6.86l2.35,.28Zm-7.6-24.68c0-1.58,1.26-2.62,2.77-2.62s2.77,1.05,2.77,2.62-1.26,2.59-2.77,2.59-2.77-1.08-2.77-2.59Z"/>
      <path class="cls-2" d="M524.57,154.05c-1.02,1.58-2.66,2.49-5.04,2.49-3.22,0-5.01-1.58-5.01-5.15,0-1.12,.04-2.1,.04-3.5v-9.17h-3.01v-1.16l3.25-.35,1.51-5.5h3.01l-.1,5.53h4.62v1.47h-4.65v12.95c0,1.96,.88,2.77,2.28,2.77,.91,0,1.54-.35,2.48-1.05l.63,.66Z"/>
      <path class="cls-2" d="M536.93,128.22h2.55l-10.43,34.02h-2.62l10.5-34.02Z"/>
      <path class="cls-2" d="M551.14,144.74c3.68,1.23,5.18,3.08,5.18,5.78,0,3.57-2.87,6.02-8.02,6.02-2.52,0-4.48-.56-6.48-1.61l.14-4.55h2.03l.98,4.24c.91,.38,1.89,.56,3.04,.56,2.8,0,4.27-1.09,4.27-3.01,0-1.54-.8-2.52-3.54-3.43l-1.93-.63c-3.01-.95-4.87-2.62-4.87-5.46,0-3.36,2.62-5.95,7.42-5.95,2.24,0,3.96,.56,5.88,1.58l-.24,4.2h-1.79l-1.09-3.78c-.84-.42-1.64-.63-2.66-.63-2.31,0-3.64,1.12-3.64,2.84,0,1.47,.77,2.42,3.46,3.29l1.82,.56Z"/>
      <path class="cls-2" d="M279.29,194.5s2.17,2.03,3.4,3.36c-.11,.39-.46,.56-.95,.56h-31.08l-.31-.98h5.39v-7.39h-3.85l-.28-.98h4.13v-5.84c-1.61,1.4-3.33,2.55-5.01,3.43l-.38-.31c2.31-2.73,4.9-7.32,6.48-11.87l5.53,2.1c-.14,.39-.63,.67-1.44,.63-.52,.84-1.12,1.65-1.71,2.42h16.28l2.13-2.91s2.42,1.96,3.82,3.33c-.11,.38-.42,.56-.91,.56h-22.16c-.53,.6-1.08,1.16-1.64,1.72l3.99,.38c-.07,.46-.31,.84-1.26,.98v5.39h2.28v-6.79l4.79,.45c-.07,.49-.35,.8-1.29,.95v5.39h2.28v-6.69l4.79,.45c-.07,.49-.35,.84-1.26,.98v5.25h2.1v-6.75l5.01,.46c-.07,.49-.35,.88-1.29,1.01v5.08l1.86-2.55s2.28,1.89,3.57,3.19c-.11,.38-.49,.56-.98,.56h-4.45v7.39h.49l1.96-2.94Zm-22.58,4.69c1.26,4.27-.35,7.11-2.28,8.05-1.3,.66-3.05,.28-3.46-1.12-.35-1.29,.49-2.27,1.57-2.8,1.58-.59,3.5-2.14,3.68-4.17l.49,.03Zm2.73-1.75h2.28v-7.39h-2.28v7.39Zm1.64,2.07c7,4.2,2.35,9.91-.31,6.51,.49-2.17,.31-4.55-.11-6.37l.42-.14Zm4.13-9.45v7.39h2.28v-7.39h-2.28Zm1.96,9.31c9.17,2.84,5.6,9.87,2.21,6.96-.11-2.34-1.3-4.97-2.52-6.79l.31-.17Zm3.85-9.31v7.39h2.1v-7.39h-2.1Zm3.46,9.07c10.71,2.49,7.46,10.5,3.57,7.63-.42-2.59-2.13-5.5-3.88-7.39l.31-.25Z"/>
      <path class="cls-2" d="M319.44,181.86c-.28,.31-.63,.38-1.33,.42-1.09,1.12-2.94,2.59-4.41,3.4l-.35-.21,.14-.63c-.24,.14-.56,.11-.98-.21-1.4,.32-4.55,.7-6.93,.81l-.18-.39c1.82-.88,4.55-2.62,5.71-3.54h-6.44v7.88c0,.17-1.26,.84-3.33,.84h-.73v-8.72h-8.71c.07,.49,.07,.91,0,1.33,7.98-1.89,8.75,3.22,5.85,3.15-1.33-.91-3.96-2.03-5.92-2.55-.28,1.26-.98,2.13-1.82,2.55-1.16,.53-2.59,.17-2.98-1.05-.28-1.23,.49-2.1,1.54-2.56,1.12-.52,2.2-2,2-3.67l.52-.04c.28,.63,.49,1.26,.63,1.82h8.89v-2.63h-9.38l-.28-.98h18.31l2.06-2.59s2.35,1.75,3.78,3.01c-.11,.38-.46,.56-.95,.56h-9.49v2.63h9.14l1.99-2.07,3.64,3.43Zm-2.06,20.79c1.5,.63,1.64,.74,1.64,1.4,0,1.47-1.19,2.38-5.32,2.38h-7.98c-4.27,0-5.18-.8-5.18-4.73v-1.75h-5.43v1.47c0,.32-1.82,1.19-3.43,1.19h-.6v-13.44l1.02,.42-1.02-2.59c1.58-.11,5.22-.53,8.75-.95l.07,.46c-1.4,.8-3.54,1.92-6.48,3.33-.04,.07-.07,.14-.11,.21l2.03,.81h14.67l1.22-1.33c-1.75-1.01-4.23-2.13-6.05-2.7l.21-.49c8.05-1.16,9.59,2.66,7.98,3.61l2.38,1.82c-.21,.28-.66,.6-1.37,.74v7.74c-.04,.31-1.99,1.12-3.36,1.12h-.7v-1.4h-5.81v1.96c0,1.16,.14,1.23,1.47,1.23h7.91c.98,0,1.47,0,1.75-.35,.31-.35,.7-1.37,1.26-3.22h.42l.04,3.08Zm-22.26-10.78v3.01h5.43v-3.01h-5.43Zm5.43,7.11v-3.12h-5.43v3.12h5.43Zm3.99-7.11v3.01h5.81v-3.01h-5.81Zm5.81,7.11v-3.12h-5.81v3.12h5.81Zm3.15-14.21c.21-1.02,.39-2.24,.53-3.26h-2.77l2.24,3.26Z"/>
      <path class="cls-2" d="M335.47,189.25c-.21,.21-.63,.46-1.22,.59v13.2c-.04,.25-1.68,.88-2.77,.88h-.56v-2.38h-2.55v2.94c0,.25-1.02,1.01-2.66,1.01h-.56v-11.8c-.66,1.16-1.37,2.24-2.1,3.25l-.53-.35c1.93-4.76,3.36-11.62,4.24-17.26h-3.78l-.28-.98h8.68l1.96-2.49s2.21,1.72,3.57,2.91c-.11,.39-.46,.56-.95,.56h-5.39c-.6,3.08-1.47,6.02-2.62,8.72l.88,.35h1.79l1.57-1.68,3.29,2.52Zm-4.55,11.27v-11.1h-2.55v11.1h2.55Zm21.56-16.38c-.14,.35-.53,.63-1.22,.59-1.26,2.38-3.36,5.57-5.29,7.7,1.05,0,2.34,0,3.67-.04,.7-2.07,1.3-4.06,1.61-5.6l4.52,2.31c-.18,.39-.63,.63-1.33,.56-1.75,3.88-5.11,9.49-8.16,13.06,1.51-.07,3.46-.21,5.53-.35-.32-1.75-.84-3.5-1.37-4.9l.49-.14c6.75,5.6,3.74,11.73,1.19,8.96,.04-.91,0-1.86-.14-2.84-1.54,.67-3.57,1.51-5.7,2.35-.28,.38-.6,.63-.95,.74l-1.33-3.96s.84-.28,1.15-.56c1.19-1.68,2.66-4.8,3.89-8.05-.88,.46-1.93,.98-3.01,1.47-.17,.35-.46,.59-.77,.74l-1.61-3.82s.66-.17,.91-.42c1.29-1.82,2.9-6.86,3.32-9.59h-13.76l-.28-.98h12.08c.56-2.1,1.29-4.97,1.71-7l5.29,1.54c-.14,.42-.56,.67-1.37,.67-1.22,1.29-3.04,3.22-4.72,4.8h3.22l2.03-2.7s2.31,1.86,3.71,3.12c-.11,.38-.46,.56-.95,.56h-6.86l4.48,1.79Zm-11.48,13.27c5.18,5.92,2.59,11.31,.46,8.86,.1-.91,.1-1.82,.04-2.8-1.33,.67-3.19,1.51-5.08,2.38-.25,.31-.53,.52-.84,.63l-1.29-3.78s.84-.21,1.08-.49c1.23-1.71,2.73-4.83,3.99-7.98-.8,.35-1.64,.73-2.48,1.12-.25,.31-.49,.52-.77,.67l-1.61-3.85s.67-.17,.91-.39c1.22-1.79,2.73-6.75,3.08-9.38l4.62,1.79c-.14,.32-.53,.6-1.15,.6-1.3,2.34-3.36,5.46-5.25,7.56,.98,0,2.14,0,3.36-.04,.73-2,1.29-3.96,1.61-5.46l4.24,2.24c-.18,.35-.6,.6-1.26,.53-1.72,3.85-5.01,9.49-8.05,13.16,1.37-.07,3.08-.17,4.83-.31-.18-1.75-.56-3.5-.91-4.9l.49-.14Zm-3.68-22.86c8.96,1.96,5.85,8.61,2.45,6.09-.28-2.03-1.61-4.34-2.76-5.88l.31-.21Z"/>
      <path class="cls-2" d="M359.3,182.63c8.89,1.16,5.64,7.77,2.28,5.25-.21-1.79-1.4-3.78-2.59-5.01l.31-.25Zm10.61-2.73c-1.33,4.48-3.71,12.78-4.2,14.77-.28,1.19-.53,2.45-.49,3.39,.04,1.86,1.47,3.15,1.37,6.3-.07,1.75-1.19,2.94-2.91,2.94-.77,0-1.54-.49-1.82-1.86,.63-3.67,.49-6.93-.35-7.53-.49-.35-1.08-.49-1.82-.56v-.66h1.58c.53,0,.66,0,1.05-.73q.7-1.37,7.04-16.21l.56,.14Zm-8.12-5.04c9.48,.77,6.65,7.74,2.97,5.5-.53-1.85-2.03-3.96-3.22-5.25l.25-.25Zm28.88,14.63c-.24,.38-.6,.49-1.47,.56-1.19,3.47-2.9,6.58-5.32,9.24,2.56,1.89,5.57,3.25,8.75,4.24l-.07,.38c-1.71,.25-3.01,1.47-3.68,3.36-2.94-1.5-5.43-3.33-7.42-5.71-3.08,2.55-7.04,4.52-12.11,5.78l-.25-.46c4.52-1.86,8.05-4.41,10.71-7.6-1.64-2.62-2.87-5.88-3.67-9.98h-1.44c-.14,5.78-1.19,13.16-7.49,18.06l-.38-.28c3.71-5.95,4.03-13.3,4.03-19.6v-8.75l4.48,1.64h3.33v-5.78l5.39,.46c-.07,.56-.38,.95-1.51,1.12v4.2h3.85l2.06-2.07,3.57,3.43c-.28,.28-.63,.38-1.37,.42-1.12,1.09-3.08,2.84-4.41,3.85l-.35-.21c.21-1.16,.53-3.04,.73-4.45h-4.1v6.97h2.28l2.24-2.17,3.61,3.33Zm-15.93-1.16h3.92v-6.97h-3.92v6.97Zm2.06,.98c.98,3.22,2.59,5.78,4.62,7.84,1.61-2.38,2.8-5,3.57-7.84h-8.19Z"/>
      <path class="cls-2" d="M400.25,194.96c2.24-1.19,3.26-2.8,3.75-4.76-1.96-.77-3.47-1.68-3.47-3.43,0-1.44,1.09-2.66,2.77-2.66s2.97,1.26,2.97,3.57c0,2.94-1.43,6.58-5.42,8.4l-.6-1.12Z"/>
      <path class="cls-2" d="M434.97,178.85c-.84,2.03-1.89,4.06-3.15,6.02l2.17,.81c-.1,.31-.42,.56-1.08,.66v20.06c-.04,.25-1.89,.91-3.43,.91h-.77v-18.13c-3.78,4.62-8.61,8.75-14.14,11.62l-.28-.28c7.04-5.67,13.02-14.32,15.19-21.67h-14.42l-.28-.98h25.24l2.52-3.22s2.87,2.17,4.59,3.64c-.11,.38-.49,.56-1.02,.56h-11.13Zm-.63,8.86c15.86,3.43,14.11,12.88,9.42,10.57-1.89-3.54-6.27-7.74-9.73-10.26l.32-.31Z"/>
      <path class="cls-2" d="M484.15,187.67c-.28,.31-.67,.38-1.37,.42-1.37,1.09-3.68,2.55-5.39,3.33l-.28-.25c.42-1.05,.91-2.66,1.26-3.92h-21.98c.38,2.62-.6,4.45-1.93,5.11-1.19,.7-2.77,.31-3.22-1.02-.35-1.26,.45-2.21,1.58-2.73,1.22-.7,2.31-2.52,2.03-4.55l.49-.04c.38,.8,.66,1.54,.84,2.24h16.03c1.09-2.21,2.2-5.15,2.84-7.32l5.6,1.85c-.17,.42-.56,.7-1.33,.63-1.47,1.4-3.74,3.29-5.98,4.83h4.9l2.17-2.17,3.75,3.57Zm-5.81,5.32c-.28,.38-.63,.49-1.58,.56-1.57,2.59-3.57,4.83-5.99,6.72,3.89,1.47,8.4,2.24,13.02,2.63l-.04,.45c-1.89,.46-3.04,1.89-3.54,3.99-4.9-1.02-9.17-2.49-12.63-4.94-4.31,2.52-9.7,4.17-16.21,4.94l-.18-.49c5.57-1.4,10.33-3.5,14.11-6.3-2.21-2.07-3.92-4.62-5.15-7.88h-3.78l-.32-1.01h16.03l2.49-2.17,3.75,3.5Zm-13.86-13.62c-3.85,.25-7.88,.38-11.55,.38l-.07-.59c8.05-.91,18.45-3.01,23.84-4.76l3.71,3.75c-.42,.35-1.19,.35-2.28-.1-3.61,.52-8.26,.98-13.16,1.29,8.37,2.52,4.24,8.72,1.02,5.74,.04-2-.73-4.17-1.57-5.67l.07-.04Zm-7.42,.46c8.82,2,4.87,8.44,1.58,5.5-.04-1.85-.95-3.92-1.89-5.29l.31-.21Zm3.85,12.85c1.51,2.63,3.78,4.59,6.55,6.09,1.93-1.79,3.5-3.82,4.62-6.09h-11.17Z"/>
      <path class="cls-2" d="M515.61,185.92s2.84,2.17,4.55,3.64c-.11,.39-.49,.56-1.02,.56h-13.34v16.03c0,.28-1.33,1.23-3.61,1.23h-.77v-17.26h-13.79l-.28-.98h14.07v-10.05h-11.73l-.28-.98h21.81l2.48-3.15s2.84,2.14,4.48,3.57c-.1,.38-.49,.56-.98,.56h-11.41v10.05h7.25l2.55-3.22Z"/>
      <path class="cls-2" d="M534.3,187.81c-.77,.74-1.79,1.65-3.01,2.73v11.87c0,2.73-.49,4.31-4.48,4.69-.1-1.26-.24-2.2-.63-2.83-.42-.67-1.05-1.05-2.38-1.3v-.52s2.62,.17,3.22,.17c.49,0,.63-.17,.63-.56v-8.44c-.49,.42-1.02,.81-1.58,1.23-.11,.46-.42,.91-.77,1.05l-1.86-4.31c.84-.28,2.38-.84,4.2-1.54v-6.41h-3.71l-.28-.98h3.99v-8.19l4.93,.46c-.07,.52-.42,.88-1.29,1.01v6.2l1.26-2.06s1.85,1.82,2.83,3.01c-.11,.39-.46,.56-.91,.56h-3.19v5c.95-.38,1.93-.8,2.84-1.19l.18,.35Zm19.71,10.57c-.28,.35-.63,.42-1.47,.46-1.15,1.58-2.55,2.91-4.24,3.99,2.42,.38,5.11,.56,8.23,.59l-.04,.42c-1.4,.52-2.21,1.61-2.41,3.36-4.2-.42-7.42-1.12-9.98-2.28-3.29,1.26-7.21,2.03-11.73,2.42l-.18-.46c3.61-.7,6.9-1.75,9.66-3.19-1.26-.84-2.35-1.82-3.29-2.98-1.54,1.12-3.26,2.14-5.11,2.84l-.32-.32c1.51-1.26,2.87-2.87,3.99-4.48-.42-.74-.84-1.47-1.26-2.28l.35-.56c.42,.74,.91,1.4,1.47,2,.63-1.01,1.12-2.03,1.47-2.94l5.11,.95c-.1,.42-.52,.63-1.54,.7-.14,.21-.31,.42-.49,.63h6.23l2.17-1.96,3.36,3.08Zm2.87-9.63c-.24,.28-.63,.35-1.33,.38-.63,.49-1.61,1.26-2.45,1.82,2.8,2.1,.95,5.15-1.19,3.68-.28-1.75-1.64-3.75-2.94-4.9l.35-.25c1.12,.21,2.03,.52,2.77,.88,.14-.56,.28-1.23,.38-1.79h-16.24c.18,1.61-.21,2.76-.95,3.36-.7,.56-2.1,.46-2.55-.49-.31-.98,.21-1.82,1.09-2.31,.7-.59,1.4-2.07,1.19-3.25h.56c.24,.59,.42,1.16,.56,1.68h.73v-9.31l4.06,1.54h1.02c.07-.66,.1-1.44,.14-2.14h-7.49l-.28-1.01h15.44l2.03-2.35s2.31,1.61,3.78,2.8c-.07,.38-.42,.56-.95,.56h-8.79c-.77,.77-1.68,1.54-2.48,2.14h5.14l1.75-1.79,3.46,2.59c-.17,.25-.63,.53-1.29,.67v6.2l1.58-1.58,2.9,2.87Zm-18.97,.7c.77,2.84,0,4.9-1.12,5.74-.73,.56-2.1,.56-2.52-.35-.35-.84,.17-1.65,.95-2.1,.91-.53,2.06-2,2.1-3.33l.6,.04Zm5.04,.07c-.04,.46-.38,.74-.98,.84v2.17c0,.38,.07,.46,.94,.46h4.55c.32,0,.53-.07,.7-.25,.24-.31,.63-1.05,.98-2h.38l.1,2.03c.84,.28,1.05,.56,1.05,.98,0,1.19-1.15,1.43-5.63,1.43h-2.87c-2.7,0-3.12-.59-3.12-2.38v-3.68l3.88,.38Zm-1.57,8.72c-.49,.52-1.02,1.01-1.61,1.5,1.37,.98,2.94,1.71,4.8,2.28,1.5-1.12,2.77-2.35,3.74-3.78h-6.93Zm-.91-17.47v1.61h8.37v-1.61h-8.37Zm8.37,2.62h-8.37v1.61h8.37v-1.61Zm-8.37,4.17h8.37v-1.54h-8.37v1.54Zm3.15,1.16c6.05,1.16,3.43,5.43,1.19,3.61-.11-1.19-.88-2.59-1.54-3.4l.35-.21Z"/>
    </g>
  </g>
</svg>