<?xml version="1.0" encoding="utf-8"?>
<!-- Generator: Adobe Illustrator 27.0.0, SVG Export Plug-In . SVG Version: 6.00 Build 0)  -->
<svg version="1.1" id="圖層_1" xmlns="http://www.w3.org/2000/svg" xmlns:xlink="http://www.w3.org/1999/xlink" x="0px" y="0px"
	 viewBox="0 0 571 161.5" style="enable-background:new 0 0 571 161.5;" xml:space="preserve">
<style type="text/css">
	.st0{fill:#FFF100;}
</style>
<g>
	<g id="_圖層_2">
		<g id="_圖層_1-2">
			<g>
				<g>
					<path class="st0" d="M39.6,37.3c-2,1.9-4.7,4.3-8.2,7.3v19c0,5.7-1.1,8.7-9.7,9.4c-0.2-2.7-0.4-4.6-1.2-5.9
						c-0.8-1.2-1.8-2.1-4.5-2.7v-0.8c0,0,5,0.3,6.1,0.3c0.8,0,1-0.2,1-0.8V51l-1.9,1.4c-0.2,0.8-0.8,1.6-1.5,1.9l-4.7-9.2
						c1.8-0.5,4.6-1.4,8.1-2.6V31.7l4.3,0.4c1-3,2.2-7,2.9-9.8H15.8l-0.5-1.7h14.9l4.3-4.2l7.2,6.4c-0.5,0.5-1.1,0.7-2.4,0.8
						c-2.5,2.5-6,6.1-9.4,8.7l3.8,0.4c-0.1,0.9-0.7,1.5-2.1,1.6v5.4c2.6-0.9,5.3-1.9,8-2.9C39.5,36.8,39.6,37.3,39.6,37.3z M34,72.7
						c12.3-6.1,22.4-14.8,29.7-29.5l9.8,5.3c-0.5,0.7-1.2,1-2.7,0.7c-3,4.1-6.2,7.6-9.6,10.6c17.5,3,11.7,16.9,4.1,12.1
						c-1.2-3.6-3.5-7.6-5.8-10.6c-7.3,5.9-15.5,9.7-25.1,12.2L34,72.7L34,72.7z M53.6,26.3c-0.8-0.2-1.7-0.5-2.5-1.2
						c-0.2-3.3-1.8-6.8-3.5-9.1l0.4-0.3c14.3,0.9,12.7,9.5,7.7,10.6h6.8l4-5.5c0,0,4.5,3.8,7.2,6.2c-0.2,0.7-0.8,1-1.7,1H49.5
						l9.2,2.8c-0.2,0.6-0.8,1.1-2.1,1.1c-3.1,2.8-7.9,6.1-12.3,8.2c3,0.1,6.8,0.1,10.8,0c1.4-2.2,2.7-4.7,3.9-7.2l9.5,5
						c-0.4,0.7-1.2,0.9-2.6,0.7c-8.3,11.2-18.3,18.1-30.9,22.4l-0.4-0.8c7.1-4.3,13.1-9.7,18.2-16.8c-3,1-6.4,2.2-10.2,3.4
						c-0.7,1-1.5,1.6-2.2,1.8l-2.6-8.8c0,0,1.4-0.3,2-0.7c2.9-1.7,6.7-7.8,8-11.3H37.7l-0.5-1.7L53.6,26.3L53.6,26.3z"/>
					<path class="st0" d="M123.9,37.2c0,0,5.6,4.2,8.9,7c-0.2,0.7-0.9,1-1.8,1h-21.8V63c0,6-1.6,9.3-12.3,10.2c-0.4-3-0.8-5-2.3-6.3
						c-1.4-1.4-3.1-2.4-7.4-3.1V63c0,0,9.6,0.5,11.4,0.5c1,0,1.4-0.4,1.4-1.2V45.2H76.9l-0.5-1.7H100V32.7l7.5,0.7
						c2.8-3,5.9-6.9,7.9-9.8H83.2l-0.5-1.7h33.1l5-4.7l8.1,7c-0.5,0.6-1.2,0.8-2.5,0.9c-4.5,2.8-10.4,6.1-16,8.5l1,0.1
						c-0.1,0.9-0.7,1.4-2.1,1.6v8.2h9.7L123.9,37.2L123.9,37.2z"/>
					<path class="st0" d="M166.9,71.5c0,0.4-2.5,1.9-6.8,1.9h-1.5v-9.7c-4,1.5-8.9,3.3-15.2,5.3c-0.4,0.8-1.1,1.3-1.8,1.4l-3.9-8.8
						c1.3-0.1,3.1-0.1,5.3-0.2V41.5h-5.8l-0.5-1.7h44.5l2.7-3.8c-1.4,0.5-4.3,1.2-6.3,1.2h-1.5V21.7h-22.5V36c0,0.8-3.9,2.6-7.4,2.6
						h-1.2V16.5l9.1,3.5h21.4l3.8-4.2l7.9,5.9c-0.4,0.5-1.1,1.1-2.4,1.3v11.7l0.7-0.9c0,0,4.9,4,7.7,6.7c-0.2,0.7-0.9,1-1.8,1h-24.8
						L166.9,71.5L166.9,71.5z M151.3,41.5v5.2h7.3v-5.2H151.3z M151.3,53.8h7.3v-5.4h-7.3V53.8z M151.3,60.8
						c2.3-0.1,4.8-0.3,7.3-0.5v-4.8h-7.3V60.8z M170.4,23.3c0,0,3,2.2,5,3.9c-0.2,0.7-0.7,1-1.6,1h-18l-0.5-1.7h12.3L170.4,23.3
						L170.4,23.3z M155.4,32.7h12.3l2.7-3.1c0,0,3,2.2,5,3.9c-0.2,0.7-0.7,1-1.6,1h-18L155.4,32.7L155.4,32.7z M192.3,48.6
						c-0.4,0.7-0.9,0.9-2.2,1.1c-1.3,4.3-3.3,8.3-6.2,11.9c3.4,1.4,7.1,2.4,10.9,3.1v0.7c-3.5,0.9-5.9,3.7-7,7.9
						c-3.8-1.8-6.9-3.7-9.5-6.2c-3.2,2.5-7.1,4.6-11.7,6.2l-0.4-0.6c3.6-2.6,6.5-5.9,8.7-9.6c-2.5-3.7-4.2-8.3-5.4-14.7h-2.1
						l-0.5-1.7H180l4.5-4.6L192.3,48.6L192.3,48.6z M170.6,48.4c1.6,4.1,4,7.2,7,9.5c1.3-3.1,2.2-6.3,2.8-9.5H170.6z"/>
					<path class="st0" d="M255,35.3c-0.5,0.5-1.1,0.7-2.3,0.7c-1.6,1.3-4.2,2.9-6.5,4c5,4.8-0.2,11.3-5.4,7.3
						c-0.3-3.8-2.3-8-4.5-10.8l0.5-0.3c3.3,0.5,5.8,1.4,7.6,2.5c0.2-1.3,0.2-2.8,0.4-4.2h-39.6c0.9,3.9-0.2,6.8-2.1,8
						c-1.9,1.2-4.8,0.4-5.6-2c-0.7-2.4,0.8-4.2,2.8-5.1c1.3-1.1,2.7-3.6,2-6l0.8-0.1c0.7,1.3,1.2,2.4,1.6,3.6h26.7
						c1.6-3,3.1-6.9,4-10c-9.6,0.6-21.4,0.9-31.5,0.4l-0.1-1c12.6-1.2,28.8-4.2,37.2-6.8l6.6,7c-0.7,0.5-2.1,0.5-4.1-0.3
						c-1.9,0.2-3.9,0.4-6,0.5l7.9,2.9c-0.3,0.7-1,1.1-2.4,1c-2.4,1.9-6.2,4.4-9.8,6.3h10.9l3.9-4L255,35.3L255,35.3z M245,56.3
						c-0.5,0.7-1.1,0.8-2.7,1c-1.9,2.3-4.1,4.3-6.5,6.1c5.4,0.6,11.1,0.8,16.6,0.8v0.8c-3.7,1.2-5.7,4.1-6.4,8.3
						c-7.5-0.8-14.3-2.2-20.3-4.5c-7.7,2.9-17,4.3-27.2,4.5l-0.2-0.8c8.1-1.4,15.5-3.5,21.6-6.5c-2.4-1.4-4.6-3-6.6-4.8
						c-3.8,2-7.9,3.6-12,4.4l-0.4-0.7c3.1-1.9,6.3-4.5,8.9-7.4c-1.3-1.7-2.5-3.6-3.5-5.7l0.6-0.5c1.3,1.7,2.8,3.1,4.5,4.4
						c1.9-2.3,3.6-4.6,4.6-6.7c-3-0.5-3.7-2-3.7-5.4v-8.1l8.8,0.7c-0.1,0.8-0.7,1.3-1.8,1.5V42c0,0.7,0.2,0.8,1.9,0.8h5.3
						c1.9,0,3.6,0,4.4-0.1c0.7,0,1.3-0.1,1.6-0.5c0.6-0.6,1.4-2,2.4-4h0.6l0.2,4c1.9,0.7,2.4,1.5,2.4,2.8c0,2.8-2.7,4.2-12.5,4.2
						h-7.1l8,2.2c-0.2,0.6-0.9,1-2,1c-0.4,0.5-0.8,0.9-1.3,1.4h9.5l4.8-4.1L245,56.3L245,56.3z M210.4,36.2
						c2.5,6.5,0.5,11.1-2.5,12.4c-2.1,0.9-5,0.1-5.7-2.4c-0.6-2.4,1-4,3-4.9c2-0.7,4.4-2.8,4.4-5.1H210.4L210.4,36.2z M208.1,23.8
						c15.2,1.5,7.7,12.6,1.8,7.6c0.1-2.7-1-5.6-2.2-7.3L208.1,23.8L208.1,23.8z M221.9,55.5c-1.3,1.2-2.8,2.3-4.5,3.4
						c2.9,1.3,6.1,2.2,9.5,3c2.5-1.9,4.5-4,6.2-6.4H221.9L221.9,55.5z M219.6,23.4c15.2,1.9,7.6,13.1,1.6,7.9
						c0.1-2.7-0.9-5.7-2.1-7.6L219.6,23.4L219.6,23.4z M222.2,34.7c15-0.4,9.1,11.2,2.9,7.1c-0.4-2.5-1.9-5.3-3.4-6.8L222.2,34.7
						L222.2,34.7z"/>
					<path class="st0" d="M315.1,29.5c-0.5,0.6-1.3,1-2.7,1.3c-0.4,25.4-1.1,35.2-4.7,38.9c-2.4,2.4-5.1,3.4-9.7,3.4
						c0-2.8-0.4-4.8-1.5-6.1c-1.1-1.3-3.4-2.4-6.5-3.1l0.1-0.7c2.9,0.2,7,0.5,8.6,0.5c1,0,1.6-0.2,2.2-0.8
						c2.2-1.9,2.7-13.1,3.1-33.6h-9.3c-3.1,5.2-6.8,9.4-11.1,12.8l-0.4-0.2v24.5c-0.1,0.6-4,2.2-6.8,2.2h-1.3v-4.8h-7.4v4.2
						c0,0.9-3.1,2.8-6.6,2.8h-1.3V24.5l7.6,3.1c0.3-3.4,0.5-8.2,0.7-11.6l11.7,2.8c-0.3,1.1-1.1,1.5-2.6,1.5
						c-1.8,2.1-4.5,5.1-6.7,7.5h4l3.8-4.2l7.4,5.9c-0.4,0.5-1.2,1-2.4,1.3V41c2.8-6.4,5.8-16.1,7.1-25l11.2,3.3
						c-0.2,0.8-1,1.3-2.4,1.3c-1,2.5-2.2,4.9-3.5,7.1h7.6l4.5-4.6L315.1,29.5L315.1,29.5z M267.6,29.5v15h7.4v-15H267.6z
						 M275.1,62.1V46.2h-7.4v15.8H275.1z M287.6,39.9c19.1,4.4,11,19.2,3.5,12.8c-0.1-4.3-1.9-9.1-4-12.5L287.6,39.9L287.6,39.9z"/>
					<path class="st0" d="M372.7,63c2.2,0.9,2.7,1.9,2.7,3.6c0,3.4-2.8,5.1-13.2,5.1h-5.9c-6.8,0-8.4-1.4-8.4-7.1V46.8h-2.5
						c-1.6,13.7-8.8,22.7-27.1,26.5l-0.2-0.7c13-5.9,17.2-14.5,17.9-25.8h-2.3v1.8c-0.1,0.6-2.6,2.7-7.2,2.7l-1.3,0.1V18.9l7.9,2.5
						c2.2-2.1,4.5-4.5,5.8-6.1l8.2,6.9c-0.9,0.7-2.2,0.7-4.1,0.1c-2.4,0.4-5.9,1-9.4,1.3v9.9h1.5l3.5-4.7c0,0,3.9,3.2,6.2,5.4
						c-0.1,0.7-0.8,1-1.6,1h-9.5v9.8H359v-9.8h-9.3l-0.5-1.7h9.9v-10h-10.3l-0.5-1.7h10.2l3.9-4.3l7.9,6c-0.4,0.5-1.1,1.1-2.4,1.3
						v23.6c-0.1,0.5-4.4,2.1-7.3,2.1H359v-3.9h-2.5v15.6c0,0.9,0.3,1.2,1.9,1.2h4.8c1.5,0,2.9,0,3.7-0.1c0.9-0.1,1.2-0.2,1.7-0.9
						c0.8-1.2,1.9-4,3.3-7.9h0.6L372.7,63L372.7,63z"/>
					<path class="st0" d="M420.5,42.2l5.6-8c0,0,6.3,5.5,9.9,9c-0.2,0.7-0.9,1-1.9,1h-55l-0.5-1.9L420.5,42.2L420.5,42.2z"/>
					<path class="st0" d="M466.5,23.4c-0.3,0.7-1.1,1.2-2.6,1.1c-5.9,12.1-13.9,19.5-23.8,24.5l-0.5-0.5c6-6.8,12.3-17.9,15.2-29.5
						L466.5,23.4z M474.8,49.1c26.2,9.2,18.2,30.5,8.4,22.1c-0.2-2.4-0.9-4.9-1.6-7.3c-7.6,2.5-18,5.3-31,7.9
						c-0.7,0.9-1.5,1.5-2.4,1.8l-3.6-11.2c0,0,2.2-0.5,3-1.2c4.5-3.5,11.5-16.6,13.4-24.2l12.3,4.4c-0.3,0.7-1,1.2-2.4,1.3
						c-4.3,6.7-12.7,15.1-19.8,20.1c7.4-0.1,18.5-0.4,29.6-1.3c-1.6-4.3-3.9-8.6-6.5-12.1L474.8,49.1L474.8,49.1z M481.7,19.6
						c-0.9,1-3.2,1.6-6,1.8c2.9,8.5,10.5,15.5,20.6,18.5l-0.1,0.7c-3.8,1.5-6.8,5.2-7.7,8.9c-8-6.2-12.5-15.9-14.1-28.6h-7.4
						l-0.5-1.7h6.2l2.5-4.1L481.7,19.6L481.7,19.6z"/>
					<path class="st0" d="M555.9,22.4c-0.4,0.5-1.2,1-2.4,1.3v46.4c-0.1,0.6-4.1,2.7-7.4,2.7h-1.4v-5h-34.3v2.1
						c0,1.1-3.5,3.2-7.1,3.2h-1.5V17l9.3,3.7h33l4-4.5L555.9,22.4L555.9,22.4z M510.4,66.1h9.4l-3.3-5.3c2-1.3,2.3-1.8,2.3-2.8v-1.9
						c-2.4,1-5,1.9-7.7,2.5l-0.5-0.9c4.5-2.1,8.3-5.2,10.9-8.5H521c-0.7,0.7-3.5,1.8-5.8,1.8h-1V37.3l7.3,2.8h12.4l3-3.1l6.2,4.5
						c-0.2,0.4-0.8,0.7-1.6,0.9v6.2c0,0.2-0.5,0.4-1.1,0.7l4.3,3.8V36.3c-0.3,0.2-0.6,0.2-1,0.2H511l-0.5-1.7h13.2v-4.3h-10.2
						l-0.5-1.7h10.6v-5.4l9.4,0.8c-0.1,0.7-0.4,1.1-1.7,1.4v3.2h2.7l3.3-3.9c0,0,3.7,2.7,6,4.7c-0.1,0.7-0.7,1-1.6,1h-10.4v4.3h4.2
						l3.4-4.2c0,0,3.3,2.4,5.7,4.4V22.4h-34.3L510.4,66.1L510.4,66.1z M544.7,66.1V53.3c-0.3,0.4-0.9,0.5-2,0.1
						c-1.1,0.4-2.7,0.8-4.4,1.3c9.7,5,5.8,12,1.3,9.4c-1.5-2.8-5.9-7.9-11.8-11.8l0.4-0.8c2.7,0.5,5.1,1.2,7,1.9
						c1-1,1.9-2.2,2.7-3.3c-0.8,0.2-1.6,0.3-2.3,0.3h-1.3v-1.2h-4.7c-1.2,1.3-2.5,2.4-4.1,3.5v5.9c2.1-0.5,4.3-1.2,6.7-1.9l0.2,0.7
						c-2.1,1.6-6.7,5-11.4,8.2c-0.2,0.2-0.4,0.4-0.6,0.6L544.7,66.1L544.7,66.1z M534.3,41.8h-13.2v5.7h13.2V41.8z"/>
					<path class="st0" d="M64.2,114.9c0,0,5.4,4,8.8,6.7c-0.2,0.7-0.9,1-1.8,1H48.4v20.7c0,0.5-2.7,2.4-7.4,2.4h-1.7v-23.1H15.9
						l-0.5-1.7h23.8V95.3H18.4l-0.5-1.7H57l4.8-5.8c0,0,5.4,3.9,8.8,6.5c-0.2,0.7-0.8,1-1.8,1H48.4v25.6h11.1L64.2,114.9L64.2,114.9
						z M23.2,98.5c19.7,7.9,10.9,24.1,3,16.4c-0.1-5.6-1.6-11.3-3.5-16.2L23.2,98.5L23.2,98.5z M51.4,117.5
						c1.9-4.7,4.2-12.5,5.7-19.2l11.1,4c-0.2,0.7-1.1,1.3-2.5,1.2c-4,5.8-8.8,10.9-13.7,14.5L51.4,117.5L51.4,117.5z"/>
					<path class="st0" d="M99.7,122.4c-3.7,3.3-9.7,8.1-18.7,14c-0.2,0.8-0.8,1.5-1.6,1.8l-4.3-9.6c1.6-0.4,4.2-1,7.4-1.9v-19.7
						h-5.9l-0.5-1.7h6.4v-16l10.7,0.9c-0.1,0.8-0.5,1.5-2.2,1.8v13.2l3.2-5.8c0,0,3.7,4.1,5.5,6.6V90.4l8.9,3.6h10.6l4-4.3l7.7,6.1
						c-0.4,0.6-1.1,1-2.4,1.3v33.3c-0.1,0.8-3.9,3.3-7.3,3.3h-1.4v-5.3h-11.6v3.6c0,1-3.5,3-7.3,3h-1.3L99.7,122.4L99.7,122.4z
						 M99.7,122.2v-15.8c-0.2,0.5-0.8,0.7-1.5,0.7H91v17.3c2.8-0.8,5.7-1.7,8.6-2.6C99.6,121.8,99.7,122.2,99.7,122.2z M126,134.2
						c0,0,5.5,4.6,8.6,7.6c-0.2,0.7-0.9,1-1.8,1H92.1l-0.5-1.7h29.5L126,134.2L126,134.2z M108.3,95.7v14.6h11.6V95.7H108.3z
						 M119.8,126.6v-14.7h-11.6v14.7H119.8z"/>
					<path class="st0" d="M147.6,109.8v32.8c0,1.1-3.1,3.1-6.9,3.1h-1.4v-56l8.6,3.6h5.9l3.5-3.8l7.1,5.4c-0.4,0.4-1,0.9-2.2,1.2
						v14.4c-0.1,0.5-3.8,2.2-6.5,2.2h-1.4v-2.9L147.6,109.8L147.6,109.8z M147.6,95.1v5.6h6.8v-5.6H147.6z M154.4,108.1v-5.7h-6.8
						v5.7H154.4z M173.6,128.1V141c-0.1,0.3-2.2,1.5-5.9,1.5h-1.3v-14.3h-4.1c-0.6,5.4-3,11.3-12.4,15.1l-0.5-0.5
						c4.5-4.2,5.6-9.4,5.9-14.5h-6.6l-0.5-1.7h7.1v-8.8h-5.2l-0.5-1.7h21l3.5-4.6c0,0,4,3.1,6.4,5.3c-0.2,0.7-0.8,1-1.6,1h-5.4v7.6
						l2.4-3.4c0,0,3.6,3.1,5.7,5.3c-0.2,0.7-0.8,1-1.6,1L173.6,128.1L173.6,128.1z M166.4,126.4v-8.8h-3.9v7.1c0,0.5,0,1.1-0.1,1.6
						C162.5,126.4,166.4,126.4,166.4,126.4z M193.1,95.1c-0.4,0.5-1.2,1-2.4,1.3v40c0,5.6-1.1,8.6-9.7,9.4c-0.1-2.8-0.4-4.8-1.1-6
						c-0.8-1.3-1.7-2.2-4.2-2.7v-0.7c0,0,4.4,0.2,5.5,0.2c0.9,0,1.1-0.4,1.1-1.1v-25.7h-7.1c0,0.7-3.5,2.4-6.8,2.4h-1.1V90.2
						l8.2,3.2h6.2l3.8-4.3L193.1,95.1L193.1,95.1z M175.1,95.1v5.6h7.1v-5.6H175.1z M182.2,108.1v-5.7h-7.1v5.7H182.2z"/>
					<path class="st0" d="M208.1,107.6v35c0,1.1-3.1,3.1-6.9,3.1h-1.4V89.5l8.6,3.6h6.6l3.5-3.7l7.1,5.3c-0.3,0.4-1,0.9-2.1,1.2
						v12.9c-0.1,0.5-3.9,2.1-6.5,2.1h-1.4v-3.3L208.1,107.6L208.1,107.6z M208.1,94.8v4.6h7.6v-4.6H208.1z M215.7,105.9v-4.8h-7.6
						v4.8C208.1,105.9,215.7,105.9,215.7,105.9z M208.9,118.8c13.1-0.4,7.9,9.8,2.4,6.2c-0.2-2.1-1.5-4.5-2.9-5.8L208.9,118.8
						L208.9,118.8z M253.5,94.9c-0.4,0.5-1.2,1-2.4,1.3v40.3c0,5.6-1.1,8.6-9.7,9.3c-0.1-2.7-0.4-4.7-1.1-5.9
						c-0.4-0.7-0.8-1.2-1.5-1.7v1.8c-0.1,0.4-3.3,1.6-5.3,1.6h-1.1v-2.7h-5v1.7c0,0.5-2.9,2-5.6,2h-0.9v-16.4l5.6,2.2v-5.1h-6.5
						c-0.9,2.7-1.9,5.6-2.2,6.5c-0.4,1.1-0.7,2.5-0.6,3.5c0,1.8,2.1,2.9,1.9,5.8c-0.1,1.8-1.4,3.1-4.5,3.1c-1.1,0-2.2-0.7-2.5-2
						c0.5-3.6,0.4-6.1-0.7-6.6c-0.7-0.4-1.3-0.5-2.4-0.7v-1.1h2.7c0.9,0,1,0,1.7-0.9c0.7-1,3-4.8,7.1-11.4l0.9,0.2l-0.6,1.8h5.9
						v-4.8c-2.2,0.2-4.5,0.2-6.6,0.2c-1,1.4-3.1,2.1-5.3,0.7c-0.2-2.1-1.5-4.5-2.9-5.8l0.5-0.4c6.6-0.2,8.6,2.3,8.2,4.4
						c5-1.5,10.9-4.1,14-5.9l5.8,5.9c-0.7,0.5-1.9,0.5-3.5-0.2c-1.1,0.2-2.4,0.4-3.7,0.5v5.4h1.1l3.1-3.9c0,0,3.4,2.7,5.5,4.7
						c-0.2,0.7-0.8,1-1.6,1h-8.1v4.5l1.8-1.9l5.7,4.3c-0.2,0.4-0.8,0.7-1.6,0.9v5.4c1.1,0.1,2.3,0.1,2.8,0.1c0.9,0,1.1-0.4,1.1-1.1
						v-27.9h-7.8v0.7c0,0.7-3.5,2.4-6.8,2.4h-1.1V89.9l8.2,3.1h6.9l3.8-4.3L253.5,94.9L253.5,94.9z M232.3,137.2v-6.7h-5v6.7H232.3z
						 M234.8,94.8v4.6h7.8v-4.6H234.8z M242.6,105.9v-4.8h-7.8v4.8C234.8,105.9,242.6,105.9,242.6,105.9z"/>
					<path class="st0" d="M280.5,106.4c5.5,11.2,4.2,18.9,1.1,23.4c-2.2,3.4-6.2,3.4-8.3,1c-1.7-2.1-1.2-4.7,0.6-6.6
						c3-2.7,6.1-9.7,6-17.8L280.5,106.4L280.5,106.4z M298,100.4c-0.1,0.8-0.6,1.4-2.1,1.6v30.1c0,1.4,0.8,1.9,3.1,1.9h6.8
						c2.1,0,3.9-0.1,5.1-0.1c1-0.1,1.7-0.3,2.2-1c1-1.3,2.2-4.5,3.8-9h0.6l0.2,9.4c2.5,1,3.3,2.1,3.3,3.8c0,4-3.5,5.9-16.1,5.9h-7.3
						c-7.9,0-10.5-1.3-10.5-8V99.4L298,100.4L298,100.4z M304.6,106.7c-1-5.9-4.4-12.3-8-16.9l0.5-0.4
						C320.5,95.4,313.4,113.4,304.6,106.7z M321,131c-0.1-6.2-1.3-15.7-6-22.6l0.5-0.4C340.7,121.9,327.6,140.2,321,131L321,131z"/>
					<path class="st0" d="M384,90.9c0,0,4,3.1,6.5,5.4c-0.2,0.7-0.9,1-1.7,1h-28.1v16.5c0,10.7-0.5,23.8-12.1,32.6l-0.7-0.5
						c5.2-9.2,5.4-21,5.4-32.1V96.8c-0.5,0.5-1.3,0.9-2.3,1.1V133c-0.1,0.5-3.3,2-5.7,2h-1.1v-5.2h-2.7v6.2c0,0.5-2.2,2.2-5.9,2.2
						h-1.3V91.9l8,3.2h1.3l3.3-3.6l6.5,5.1v-3.9l8.5,3h10c-0.5-0.2-1-0.4-1.5-0.8c-0.2-2.5-1.6-5.1-2.9-6.7l0.4-0.3
						c12-0.5,11.2,6.3,7.1,7.7h5.4L384,90.9L384,90.9z M341.6,96.8v14.4h2.7V96.8H341.6z M344.3,128.1v-15.2h-2.7v15.2H344.3z
						 M361.2,114.3l-0.5-1.7h21.6l2.8-3.6c0,0,3.1,2.5,5.1,4.3c-0.2,0.7-0.8,1-1.6,1h-5.6l5.9,4.4c-0.3,0.4-1.1,0.9-2.2,1.2v12.7
						c-0.1,0.4-3.6,1.6-5.8,1.6h-1.2v-1h-11.4v0.5c0,0.1-0.2,0.3-0.4,0.5l8,4.9c-0.5,0.7-1.6,1-3.5,0.6c-3.9,2.4-10.5,4.5-17,5.4
						l-0.2-0.7c4.7-2.4,9.5-6.6,12.1-9.9c-1.1,0.5-2.9,1.1-4.6,1.1h-1v-21.4l6.9,2.7h10.5l2.7-2.8L361.2,114.3L361.2,114.3z
						 M374.9,111.3v-1.1h-3.6v0.4c0,0.3-2.7,1-5.1,1h-1.3v-6.4h-2.9l-0.5-1.7h3.4v-5.4l8.2,0.8c-0.1,0.7-0.5,1.2-1.8,1.3v3.3h3.6
						v-5.4l8.2,0.8c-0.1,0.7-0.5,1.2-1.8,1.3v3.3h0.1l3-3.9c0,0,3.3,2.7,5.4,4.6c-0.2,0.7-0.8,1-1.6,1h-6.8v5.1c0,0.3-2.7,1-5.1,1
						L374.9,111.3L374.9,111.3z M368.4,118.8v5.1h2.6v-5.1H368.4z M368.4,131.5h2.6v-5.9h-2.6V131.5z M374.9,108.5v-3.3h-3.6v3.3
						H374.9z M374.8,135.2c25.6,1,12.5,14.3,7.3,8c-1-2.4-3.3-5.3-7.6-7.3L374.8,135.2L374.8,135.2z M377.3,118.8v5.1h2.5v-5.1
						H377.3z M379.8,131.5v-5.9h-2.5v5.9H379.8z"/>
					<path class="st0" d="M451,102.9c-0.4,0.5-1.1,1-2.4,1.3v23.5c-0.1,0.5-3.9,2.3-6.6,2.3h-1.3v-4.1h-4v17.2
						c0,0.9-3.5,2.8-6.5,2.8h-1.6v-20.1h-4v1.9c0,0.8-3.5,2.6-6.8,2.6h-1.2v-7.8c-1,1.8-3.5,2.7-5.9,0.7c-0.1-1.8-0.7-3.8-1.5-5.6
						v25.6c0,0.5-2.6,2.4-6.6,2.4h-1.5v-22.9c-2.5,2.1-5.2,4.1-8,5.6l-0.5-0.5c6.6-7,11.9-16.6,14-24.7h-12.8l-0.5-1.7h12.9l4.4-4.2
						l5.9,5.8v-5.1l8.5,3.3h3.6v-13l10.3,1c-0.1,0.8-0.5,1.4-2.2,1.7v10.3h3.4l3.6-4L451,102.9L451,102.9z M399.3,88.2
						c17.7,2.2,8.9,15,2.1,9.1c-0.1-3.3-1.3-6.5-2.5-8.9L399.3,88.2z M409.2,114.6c4.3,1.2,6.5,2.9,7.3,4.7V105
						c-0.4,0.1-0.9,0.1-1.4,0.2C413.6,108.2,411.6,111.4,409.2,114.6C409.2,114.5,409.2,114.6,409.2,114.6z M424.6,102.9v9.3h4v-9.3
						H424.6z M428.6,124.2v-10.2h-4v10.2H428.6z M436.7,102.9v9.3h4v-9.3H436.7z M440.6,124.2v-10.2h-4v10.2H440.6z"/>
					<path class="st0" d="M469.8,98.7c14.3,1.5,7.7,12.8,1.5,8.1c-0.1-1.7-0.7-3.5-1.5-5.1v41.7c0,0.7-3.6,2.3-6.8,2.3h-1.7v-34.6
						c-0.2,1.9-0.7,3.4-1.5,4.5c-1.5,2.1-4.7,2.1-6-0.1c-1.1-1.9-0.2-3.9,1.5-5.3c1.5-1.8,3.3-6.3,2.8-10.4h0.9
						c1.5,3.2,2.2,6.1,2.4,8.6V88.4l10.7,1c-0.1,0.8-0.5,1.5-2.2,1.8L469.8,98.7L469.8,98.7z M502.5,116.4l7.2,5.5
						c-0.4,0.5-1,1-2.4,1.2V143c0,0.3-2.6,1.8-6.9,1.8h-1.5v-4.8h-13.2v3.7c0,0.5-2.5,1.9-6.6,1.9h-1.5v-27.9l0.5,0.2l-2.8-9.3
						c0,0,1.7-0.4,2.4-1c3.6-2.8,9-13.3,10.3-19.2L500,92c-0.2,0.7-0.9,1.2-2.1,1.3c-3.8,5.2-10.5,11.4-16.4,15.4
						c4.8,0.1,11.7,0,18.9-0.1c-1.4-3.1-3.2-6.1-5.2-8.5l0.5-0.4c22.5,5,15.3,22.3,6.8,15.8c-0.2-1.6-0.7-3.3-1.3-5
						c-5.1,1.8-12.4,4.1-21.3,6.3c-0.4,0.4-0.9,0.8-1.3,1l7.6,2.8h12.4L502.5,116.4L502.5,116.4z M498.8,138.2v-15.7h-13.2v15.7
						H498.8z"/>
				</g>
			</g>
		</g>
	</g>
</g>
</svg>
