<?xml version="1.0" encoding="utf-8"?>
<!-- Generator: Adobe Illustrator 27.0.0, SVG Export Plug-In . SVG Version: 6.00 Build 0)  -->
<svg version="1.1" id="圖層_1" xmlns="http://www.w3.org/2000/svg" xmlns:xlink="http://www.w3.org/1999/xlink" x="0px" y="0px"
	 viewBox="0 0 535 187.7" style="enable-background:new 0 0 535 187.7;" xml:space="preserve">
<style type="text/css">
	.st0{fill:#FFF100;}
</style>
<g>
	<g id="_圖層_2">
		<g id="_圖層_1-2">
			<g>
				<g>
					<path class="st0" d="M66.2,72.6l5.8-7.3c0,0,6.5,4.9,10.4,8.2c-0.2,0.8-1.1,1.1-2.1,1.1H16.2l-0.6-2
						C15.6,72.6,66.2,72.6,66.2,72.6z M62.6,24l5.7-7.2c0,0,6.4,4.8,10.3,8c-0.2,0.8-1.1,1.1-2.1,1.1H19.8l-0.6-2H62.6z M58,47.2
						l5.5-6.9c0,0,6.2,4.6,9.9,7.8c-0.2,0.8-1.1,1.1-2.1,1.1h-47l-0.6-2H58z"/>
					<path class="st0" d="M149.6,58.1c0,0,3.9,3.1,6.2,5.2c-0.2,0.8-0.9,1.1-1.8,1.1h-9.3c-0.7,2.2-1.7,4.3-3.4,6.2
						c19.7,4,8.5,13.9,0.5,10.5c-2.1-1.6-5.2-3.3-8.9-5c-5.3,2.2-13,4.1-24.3,5.5l-0.3-1.1c8.5-2.2,14.4-4.4,18.5-6.8
						c-3.9-1.3-8.3-2.5-13-3.4l0.1-0.1c1.1-1.5,2.4-3.6,3.6-5.9h-7.8l-0.6-2h9.5c0.8-1.5,1.5-2.9,2.2-4.3c-1.1,0.9-4.3,2.2-7.3,2.2
						h-1.2V42.7l1.8,0.6v-9.5h-2.2l0.1,0.2c-0.1,0.8-0.8,1.1-1.8,1.1h-6.2v3.4c13.2,6.3,6.2,16.6,1.3,11.5c0.3-2.9-0.3-6.4-1.3-9.2
						v37.9c0,0.9-3.7,3-6.9,3h-1.6V56.2c-1.9,3.2-4.1,6.2-6.7,9l-0.8-0.8c3.8-8.1,5.8-19,6.9-29.3h-6.1l-0.6-2h7.2v-18l11.1,1.1
						c-0.1,1-0.7,1.7-2.6,2v14.6l2.7-4.4c0,0,2,1.9,3.6,3.8l-0.1-0.4h3.8V21.7l9.1,3.5h3.6v-9.5l11.8,1c-0.1,1-0.6,1.7-2.5,2v6.4
						h3.3l3.7-3.9l7.6,5.6c-0.3,0.4-1,0.8-2,1v3l2.2-3.2c0,0,3.2,2.9,5,5c-0.2,0.8-0.8,1.1-1.8,1.1h-5.5v7.1c0,0.3-1,0.9-2.3,1.4
						L154,48c-0.4,0.4-1.1,0.9-2.2,1.2v6.4c-0.1,0.6-4.4,2.4-7.4,2.4h-1.6v-2h-16l7.1,1.3c-0.2,0.8-0.8,1.6-3.2,1.8
						c-0.6,1-1.2,2.2-2,3.4h6.4c0.4-1.5,0.5-3,0.6-4.6l12,0.9c-0.1,0.9-0.8,1.7-2.4,1.9c-0.1,0.6-0.2,1.2-0.4,1.8h1L149.6,58.1
						L149.6,58.1z M122.7,41.8c0,0.6-2.9,2.2-5.9,2.5l4.7,1.8h5.2v-5.6h-3.9C122.7,40.6,122.7,41.8,122.7,41.8z M126.7,54.1v-6H121
						v6H126.7z M121,57.7l0.7-1.6H121V57.7z M122.7,31.9h3.9v-4.8h-3.9V31.9z M122.7,33.9v4.8h3.9v-4.8
						C126.7,33.9,122.7,33.9,122.7,33.9z M127.8,64.5c-1.1,1.6-2,3.3-3,4.7c2.7,0.1,5,0.2,7.2,0.3c1.4-1.6,2.2-3.3,2.9-5H127.8z
						 M136,27.1v4.8h3.9v-4.8H136z M139.8,33.9H136v4.8h3.9C139.8,38.6,139.8,33.9,139.8,33.9z M145.8,42.5c-1.4,0.5-3,0.9-4.3,0.9
						h-1.6v-2.9H136v5.6h6.3L145.8,42.5z M142.9,54.1v-6H136v6H142.9z"/>
					<path class="st0" d="M174.3,47.2c-3.9,2.9-8.4,5.2-13.4,7.1l-0.6-1c5.5-3.8,9.7-9.1,12.4-14.6h-1.4c0,0.6-3.5,2.2-6.6,2.2h-1.1
						V25l8.1,3.1h2.7v-4.1h-11.8l-0.6-2h12.4v-6.9l10.8,1c-0.1,0.8-0.6,1.5-2.2,1.7v4.2h3.4l4.1-5c0,0,4.6,3.4,7.4,5.9
						c-0.2,0.8-0.9,1.1-1.9,1.1h-12.9v4.1h2.9l3.4-3.4l6.9,5.1c-0.3,0.4-1,0.8-2,1v6.9c0,0.6-3.8,2.2-6.4,2.2h-1.4v-1.3h-3.4v2.5
						l0.4-0.3c18-0.7,12.5,13.2,4.9,9.1c-0.9-3.1-3.3-6.5-5.3-8.5v11c0,0.7-3.9,2.3-7,2.3h-1.6C174.3,54.8,174.3,47.2,174.3,47.2z
						 M218.2,71.5c0,0,5.5,4.1,8.8,7c-0.2,0.8-1,1.1-2,1.1h-62.9l-0.6-2h11.4V62.4l11.9,0.9c-0.1,0.9-0.6,1.5-2.3,1.8v12.5h6.7V58.7
						h-23l-0.6-2h43.1l4.5-5.6c0,0,5,3.8,8.1,6.4c-0.2,0.8-1,1.1-2,1.1H199v7.9h7.7l4.6-5.9c0,0,5.2,4,8.4,6.7c-0.2,0.8-1,1.1-2,1.1
						H199v9h14.4L218.2,71.5L218.2,71.5z M174.3,36.7v-6.6h-3v6.6H174.3z M182.9,30.1v6.6h3.4v-6.6H182.9z M222.2,28.6
						c-1.4,4.8-3.7,8.9-6.9,12.4c3.6,1.6,8,2.7,12.9,3.4l-0.1,0.8c-3.7,1.5-5.3,4.4-5.7,9c-5.5-1.9-9.5-4.7-12.7-8.3
						c-4.8,3.4-10.7,6-17.9,7.8l-0.3-0.8c6.5-3.2,11.4-7.1,14.8-11.8c-1.6-2.8-2.9-6-3.9-9.4c-2,2-4.1,3.7-6.4,5l-0.8-0.6
						c2.9-5.2,5.2-13,5.9-20.7l11.7,3.2c-0.3,0.9-1.1,1.5-2.7,1.5c-1,2.3-2.2,4.4-3.4,6.3h7.8l4.5-6.1c0,0,5,4.1,8.1,6.9
						c-0.2,0.8-1,1.1-2,1.1C225,28.6,222.2,28.6,222.2,28.6z M205.2,28.6c-0.6,0.8-1.2,1.5-1.8,2.2c1.3,2.4,3.1,4.6,5.4,6.4
						c1.4-2.7,2.4-5.6,3-8.6H205.2z"/>
					<path class="st0" d="M297.7,41.8c-0.5,0.5-1.4,0.9-2.5,1.1v11.8c-0.1,0.3-3.2,2-7,2H287l7.2,5.4c-0.4,0.6-1.3,1.2-2.8,1.5V79
						c-0.1,0.5-4.9,2-7.9,2h-1.7v-3.2h-18.2v1.1c0,0.8-4.1,2.8-7.9,2.8h-1.3V58.3c-0.5,0-1,0.1-1.5,0.1h-1.2V35.9l9,3.4h2.1
						c-0.6-2.9-2.3-6.1-3.9-8l0.5-0.4c11.9-0.3,12.7,5.7,9.7,8.3h7.8c0.6-2.7,1.3-6.2,1.7-8.7h-28.4v9c0,13.4-0.8,30.9-16.3,42.1
						l-0.6-0.4c6.9-12.3,7.4-27.9,7.4-41.7v-23l10.9,3.7h33l4.1-4.6l8.9,6.6c-0.4,0.6-1.3,1.2-2.8,1.5v7.9c-0.1,0.4-2.4,1.1-4.8,1.5
						l0.2,0.1c-0.2,0.9-1,1.5-2.6,1.4c-2.1,1.3-5.1,3.1-8,4.5h8.6l3.4-3.8L297.7,41.8L297.7,41.8z M250.2,28.7h35.1v-6.4h-35.1
						L250.2,28.7L250.2,28.7z M286.6,56.5v-1.3h-26.5v0.6c0,0.4-1.2,1.1-2.8,1.7l6.7,2.6h17.1l4.2-4.6
						C285.3,55.5,286.6,56.5,286.6,56.5z M260.1,41.3v1.5l0.4-0.3c13.4,3.1,7.8,12.7,2.7,8.8c-0.3-2.7-1.8-5.8-3.1-7.9v9.9h9.1v-12
						H260.1L260.1,41.3z M281.8,62.1h-18.2V68h18.2C281.8,68,281.8,62.1,281.8,62.1z M281.8,75.9v-5.9h-18.2v5.9H281.8z M286.6,41.3
						h-9.4v12h9.4V47c-0.5,0.2-1,0.2-1.8,0.1c-1.9,1.8-4.1,3.7-6.4,5.1l-1-0.6c0.9-2.3,1.9-6,2.7-9.4l6.6,3.3V41.3z M279.1,30.7
						l6.2,1.5v-1.5H279.1z"/>
					<path class="st0" d="M343.5,38.8c2.4,12.8,10.9,25.1,29.8,32.1l-0.1,0.8c-5.2,1.1-8.2,4.4-9,10.3
						c-14.7-9.4-19.7-26.6-21.6-40.6c-2.2,16.9-9.5,31-35.6,40.6l-0.6-0.9c19-12.2,24.1-26.2,25.5-42.3h-24.4l-0.6-2h25.1
						c0.4-6.6,0.4-13.6,0.4-21.1l13.9,1.3c-0.2,1.1-0.9,1.8-2.6,2c-0.1,6.2-0.2,12.1-0.7,17.8h13.5l5.8-7.4c0,0,6.5,4.9,10.4,8.2
						c-0.2,0.8-1,1.1-2.1,1.1C370.8,38.8,343.5,38.8,343.5,38.8z"/>
					<path class="st0" d="M435.4,69.2c0,0,6.4,4.8,10.4,8.1c-0.2,0.8-1,1.1-2.1,1.1H380l-0.6-2h27.3V55h-19l-0.6-2h19.6V35.2h-22.1
						l-0.6-2h43.3l5.5-7.1c0,0,6.3,4.7,10.1,7.9c-0.2,0.8-1,1.1-2.1,1.1h-23v17.8h7.4l5.4-6.9c0,0,6.1,4.5,9.7,7.7
						c-0.1,0.8-1,1.1-2,1.1h-20.4v21.4h11.7C429.6,76.4,435.4,69.2,435.4,69.2z M400.3,16c26.8,0.1,20.3,20.7,9.6,14.8
						c-1.8-5.3-6-10.9-10-14.4L400.3,16z"/>
					<path class="st0" d="M504,21.5c0.9,25.1,4.4,39.8,15.8,47.9l-0.1,0.8c-4.3,1.2-7.3,5.6-8.3,11.3c-5.2-7-7.4-20.5-8.1-38.2
						c-1.5,16.6-6.6,29.5-25,38.6l-0.7-1c3.6-3.2,6.5-6.6,8.8-10.2h-20.9l-2.9,4.8l-10-5.5c0.6-0.8,1.4-1.6,2.2-2.3V17.1l11.1,5
						h12.5l5-6.9c0,0,5.6,4.6,8.9,7.7c-0.2,0.8-1,1.1-2,1.1h-11.5v12.1h1.6l4.2-4.3l7.7,6.4c-0.5,0.6-1.3,1-2.5,1.3v14.5
						c-0.2,0.3-4,1.6-7.8,1.6h-1.8V53h-1.5v15.8h0.1l4.6-7c0,0,2.6,2.4,5.1,4.8c6.5-13.7,5.5-30.5,5.5-51.5l12.5,1.1
						c-0.1,1.1-0.9,1.8-2.6,2L504,21.5L504,21.5z M469.6,36.2V24.1h-4.7v12.1H469.6z M480.2,38.2h-15.3v12.9h15.3V38.2z M469.6,68.9
						V53h-4.7v15.8H469.6z"/>
					<path class="st0" d="M76.7,150.8c-0.4,0.6-1.1,1.1-2.7,0.7c-3,1.4-7.1,2.8-11.2,3.9c5.6,3.3,12.5,5,19.5,6.2l-0.1,0.8
						c-4,1-6.7,4.2-7.8,9c-11.5-4.7-19.2-11.2-23-25.4c-2.4,2-5.2,3.9-8.4,5.4v8.6c3.3-0.8,6.9-1.6,10.4-2.5l0.1,0.7
						c-3,2.7-9.1,7.6-16.7,12.7c-0.6,0.8-1.1,1.3-1.8,1.7l-6-9.1c3.5-2,4.1-2.8,4.1-4.3v-4c-5.4,1.7-11.4,2.9-17.8,3.9l-0.3-0.8
						c9.9-3.2,18.3-8.3,23.6-13.7H16.4l-0.6-2h31.1c-0.5-0.2-1-0.4-1.5-0.8c-0.1-1.7-0.8-3.4-1.7-4.9c-1.5,0.6-4,1.2-6.3,1.2h-1.7
						v-12.3h-5c-0.8,5.9-3.9,11.5-13.3,15.2l-0.8-0.9c4.6-4.5,5.2-9.4,5.4-14.3h-4.4l-0.6-2h18.8v-5.5h-6.4l-2.7,3.7l-8.8-4.4
						c0.6-0.8,1.7-1.6,2.7-2.3v-8.3l10.3,1c-0.1,0.8-0.6,1.4-2,1.6v6.7h6.9v-10.8l12.2,1.1c-0.1,1-0.6,1.7-2.6,2v25.3
						c1.2,0,2.2,0.1,3.1,0.3l-0.4-1.6h8.8v-13.1H46.5l-0.6-2h10.9v-12l12.7,1c-0.1,1.1-0.6,1.8-2.5,2v9h1.4l4.8-6
						c0,0,5.3,4.1,8.5,6.9c-0.1,0.8-0.9,1.1-2,1.1H66.9v13.1h0.8l4.6-5.8c0,0,5.2,3.9,8.3,6.6c-0.1,0.8-0.9,1.1-2,1.1H49.9
						c5.7,1.8,4.4,6.8,0.8,8.1h17.3l4.8-6.6c0,0,5.5,4.4,8.6,7.4c-0.2,0.8-1,1.1-2,1.1h-12L76.7,150.8L76.7,150.8z M52.5,144.9
						c1.8,3.5,4.3,6.3,7.3,8.5c2.8-2.9,5.5-6.4,7.1-8.9H53C53,144.4,52.5,144.9,52.5,144.9z"/>
					<path class="st0" d="M88.3,122.1c20.4,0.9,12.8,16.7,4.5,10.9c-0.5-3.9-2.7-8-5-10.6L88.3,122.1z M110.8,117.9
						c-2.5,8.5-6.9,24.2-7.7,28.2c-0.6,2.4-1.1,5.1-1.1,6.9c0.1,4.1,3.5,6.1,3.3,12.5c-0.1,3.7-2.9,6.3-6.9,6.3
						c-1.8,0-3.9-0.8-4.7-3.6c1.5-7.2,1.3-14.1-0.5-15.3c-1-0.6-2.2-1.1-3.7-1.1v-1.3h3.2c1.1,0,1.5,0,2.3-1.5
						c1.1-1.8,6-12.3,14.7-31.4C109.8,117.6,110.8,117.9,110.8,117.9z M93.4,106.9c21.3-0.3,15,16.2,6.1,11.2
						c-1.1-3.9-4.1-8.2-6.6-10.8C92.9,107.4,93.4,106.9,93.4,106.9z M132.3,162.7c-0.5,0.8-1.8,1.3-4.1,1.1
						c-5,3.6-13.7,6.8-22.5,8.3l-0.3-0.7c5.9-3.4,11.8-9,14.8-13.4c-1.1,0.6-3.3,1.1-6.2,1.1h-1.5v-27.7l9.4,3.6h17.9l4.2-4.8
						l7.8,5.9c-0.4,0.6-1.1,1.1-2.7,1.4V156c0,0.4-2.9,1.9-7.5,1.9h-1.6v-2.4h-18.9v1.6L132.3,162.7L132.3,162.7z M147.9,122.2
						c0,0,4.5,3.6,7.1,6.2c-0.2,0.8-0.9,1.1-1.9,1.1h-43.1l-0.6-2H144L147.9,122.2z M111.2,113.7h6.7v-8.1l11.2,1
						c-0.1,0.9-0.7,1.7-2.6,2v5.2h7.6v-8.1l11.2,1c-0.1,0.9-0.7,1.7-2.6,2v5.2h0.1l3.9-5.5c0,0,4.4,3.8,6.9,6.4
						c-0.1,0.8-0.9,1.1-1.8,1.1h-9v8.9c0,0.6-3.8,1.8-7.1,1.8h-1.5v-3.8h-7.6v2c0,0.6-3.8,1.8-7.1,1.8h-1.5v-10.6h-6.2
						C111.8,115.7,111.2,113.7,111.2,113.7z M121.2,136.9v7.4h5.1v-7.4H121.2z M126.3,153.6v-7.4h-5.1v7.4H126.3z M126.5,115.7v4.9
						h7.6v-4.9H126.5z M132.4,158.7c25.8-2.5,24.4,15.4,14.6,13.1c-3.5-4.3-10.1-9.7-15.1-12.5L132.4,158.7z M134.9,136.9v7.4h5.2
						v-7.4H134.9z M140.1,153.6v-7.4h-5.2v7.4H140.1z"/>
					<path class="st0" d="M185.4,114.3c0,0,4.3,3.5,6.9,5.9c-0.1,0.8-0.9,1.1-1.9,1.1h-28.7l-0.6-2h20.4L185.4,114.3L185.4,114.3z
						 M201.8,116c0,5.7-1.4,15.4-13.6,20.9c0.6,0.5,1.1,0.9,1.5,1.3c-0.2,0.8-0.9,1.1-1.9,1.1h-23.2l-0.6-2h15.2l3.7-4.8
						c0,0,2,1.5,4.1,3.3c5.3-6.2,5.9-13.9,5.9-19.9v-9l10.4,3.6h4l4.3-4.7l7.8,6.2c-0.4,0.5-1.3,0.8-2.5,1.1v10c0,0.7,0.2,1,1,1h2.8
						c0.4,0,1.3-0.1,1.7-0.1c0.5-0.1,1.3-0.2,1.8-0.3h0.6l0.4,0.1c2,1,2.6,1.9,2.6,3.5c0,3.4-2.9,5.2-9.8,5.2h-3.3
						c-5.9,0-6.6-1.8-6.6-7.1v-12.9h-6.2L201.8,116L201.8,116z M179.2,128.3l3.7-4.8c0,0,4.2,3.3,6.7,5.7c-0.2,0.8-0.9,1.1-1.9,1.1
						h-23.2l-0.6-2L179.2,128.3L179.2,128.3z M179.4,168.2v-4h-5.9v4.2c0,0.8-3.7,2.7-7.4,2.7h-1.3v-27.9l8.9,3.5h5l3.9-4.1l8,6
						c-0.4,0.5-1.2,1-2.4,1.3v16c-0.1,0.6-4.3,2.4-7.2,2.4L179.4,168.2L179.4,168.2z M168.2,106.7c20.9-0.7,13,15.7,4.2,9.9
						c-0.5-3.6-2.6-7.3-4.6-9.6C167.8,107,168.2,106.7,168.2,106.7z M179.4,162.2v-13.6h-5.9v13.6H179.4z M223.5,140.3
						c-0.5,0.8-1.2,1.1-2.9,1.2c-2.3,5.7-5.5,10.9-9.9,15.3c5,2.4,10.6,3.9,16.4,5l-0.1,0.8c-4,0.9-6.8,4-8.1,8.6
						c-5.8-2.4-10.7-5.2-14.6-9.1c-6.2,4.3-14,7.6-23.7,9.6l-0.4-0.8c8.3-3.3,15-8,20-13.6c-3-4.5-5.3-10.1-6.8-17.5h-2.8l-0.6-2
						h19.7l5.2-5L223.5,140.3L223.5,140.3z M194.7,139.7c2,5.5,5.2,9.7,9.3,12.9c2.7-3.9,4.8-8.3,6.2-12.9H194.7z"/>
					<path class="st0" d="M263.5,113.4c0,0,4.9,3.8,7.8,6.5c-0.1,0.8-0.9,1.1-1.9,1.1h-35.1l-0.6-2h25.3
						C259.1,119.1,263.5,113.4,263.5,113.4z M255.5,128.2l4.3-5.6c0,0,4.9,3.8,7.8,6.4c-0.2,0.8-0.9,1.1-1.9,1.1H238l-0.6-2
						L255.5,128.2L255.5,128.2z M259.9,131.8c0,0,4.9,3.8,7.8,6.4c-0.2,0.8-0.9,1.1-1.9,1.1H238l-0.6-2h18.1L259.9,131.8
						L259.9,131.8z M259.9,142.6l8.4,6.4c-0.4,0.5-1.3,1.1-2.7,1.4v15.5c-0.1,0.6-4.5,2.4-7.6,2.4h-1.5v-4.1h-9v4
						c0,0.8-3.9,2.8-7.6,2.8h-1.3v-27.4l9.2,3.6h8L259.9,142.6L259.9,142.6z M243.7,106.1c21.6-0.6,13.5,16.4,4.5,10.4
						c-0.6-3.8-2.7-7.7-4.9-10.1L243.7,106.1z M256.6,162.2V149h-9v13.2H256.6z M293.1,125.4c0,0,5.2,4.2,8.2,7
						c-0.2,0.8-1,1.1-2,1.1h-11.8v34.6c0,1-4.3,3.4-8,3.4h-1.9v-38.1h-10.3l-0.6-2h10.9v-25.8l12.5,1.2c-0.1,1-0.6,1.8-2.6,2v22.5h1
						L293.1,125.4L293.1,125.4z"/>
					<path class="st0" d="M347.5,136c-0.5,0.6-1.3,0.9-2.8,0.6c7.4,2.8,18.9,4,29.1,3.6l-0.1,0.8c-3.6,1.1-6.4,4.6-7.1,9.3
						c-11.3-2-19.2-5.7-24.6-12.1l-1.3,0.9l8.8,6.3c-0.1,0.2-0.4,0.4-0.6,0.4l8.7,7.4c-0.4,0.5-1.3,0.6-2.5,0.2
						c-9.2,5.5-27,10.3-42.6,10.3l-0.3-0.9c13.5-2.9,29-10.2,36.2-16.9c-0.4,0-0.8-0.1-1.3-0.2c-7.3,5-21.6,9.8-34,10.9l-0.4-0.9
						c9.4-3.1,19.9-9.5,25.8-15.2c-9.6,5.9-19.7,8.8-31.4,10.3l-0.3-0.9c10.1-3.6,18.5-8.7,25.8-16.4c-0.6-0.2-1.3-0.5-2-1
						c-0.1-0.4-0.1-0.7-0.2-1.1c-3.9,2.2-10.1,5.3-17.5,8.4c-0.4,0.5-0.8,0.8-1.3,1.1l-3.8-9.2c0,0,1.5-0.3,2.2-0.6
						c2.8-1.4,6.4-6.1,8.3-9.3l-2.3-5.8c0,0,1.6-0.2,2.6-0.6c6.1-1.5,14.6-8,17.3-11.3l11.8,5.3c-0.3,0.7-1.2,1.2-2.8,1
						c-4.1,2.1-10.6,4.2-16.9,5.8c6.9-0.2,15.8-0.5,25-0.8c-1.9-2-3.9-3.8-5.7-5.2l0.5-0.5c23.2-0.3,20,16.3,10.9,12.9
						c-1-1.9-2.7-3.9-4.4-5.9l-3.5,1l7.9,5c-0.3,0.5-1.1,0.9-2.4,0.6c-2.5,1.4-6,3.1-9.3,4.2c3.5,0.1,7.8,0,12.3,0
						c-0.4-1.3-1-2.6-1.5-3.6l0.7-0.3c15.8,4.7,8,16.2,2.1,10.7c-0.1-1.5-0.3-2.9-0.7-4.4c-3.8,1.3-9,3.1-14.7,4.8L347.5,136
						L347.5,136z M309.6,169.5c18.6-1.5,39.7-8.8,49.1-16.7l8.6,8.8c-0.5,0.5-1.3,0.6-2.6,0.1c-11.8,6.6-34.5,11-55,8.8L309.6,169.5
						z M328.2,127.5c-0.4,0.5-1.3,0.8-2.6,0.3c-1.9,1.1-4.5,2.4-7.4,3.5c3.6-0.4,7.7-0.8,11.9-1.3c-0.7-2.2-1.8-4.4-2.9-5.9l0.6-0.3
						c6.9,0.8,9.5,3.6,9.7,6l3.5,2.2l-2.4-4.8c0,0,1.3-0.3,2-0.6c2.3-1.2,5.1-5,6.8-8c-6.3,1.6-14.3,3.5-23.6,5.5
						C323.9,123.9,328.2,127.5,328.2,127.5z"/>
					<path class="st0" d="M436.9,120.4c0,0,5.2,4.3,8.3,7.3c-0.2,0.8-1,1.1-2,1.1h-21.8c-5,3.5-10.5,6.8-16.5,9.8h21l4.6-6.3
						c0,0,5.2,4.3,8.3,7.1c-0.1,0.8-0.9,1.1-2,1.1h-22.7c-0.8,2.6-2,6.2-2.9,8.8h12.3l4.8-4.4l8.3,6.8c-0.6,0.6-1.3,1.1-2.8,1.3
						c-1.1,9-3.1,14.5-6.9,16.7c-2.4,1.5-5.2,2.1-9.9,2.1c0-2.5-0.3-4.8-1.7-6.1c-1.4-1.5-4.2-2.6-7.6-3.3v-0.8
						c3.6,0.3,9.1,0.6,10.6,0.6c1.1,0,1.8-0.1,2.4-0.5c1.3-0.9,2.5-4.8,3.2-10.4h-13l-3.4,4.1l-9-5c0.6-0.6,1.6-1.3,2.6-1.8
						c0.8-2.4,1.8-5.7,2.5-8.1h-2.9c-6.9,3.2-14.4,5.9-22.2,7.9l-0.4-0.8c10.9-4.9,21.3-11.6,30.1-18.8h-27.6l-0.6-2h21.2v-9.4
						h-15.4l-0.6-2h16v-9.9l12.7,1c-0.1,0.9-0.5,1.5-2.2,1.8v7.1h0.9l4.3-5.9c0,0,3.3,2.8,6,5.3c2.5-2.7,4.6-5.4,6.4-7.9l11.5,6.6
						c-0.4,0.7-1.2,1.1-2.9,0.8c-3.7,4.1-8.5,8.3-14,12.5h8L436.9,120.4L436.9,120.4z M412,117.4v8.4c3.2-2.8,6.2-5.6,8.8-8.4H412z"
						/>
				</g>
			</g>
		</g>
	</g>
</g>
</svg>
