<?xml version="1.0" encoding="UTF-8"?>
<svg id="_圖層_2" data-name="圖層 2" xmlns="http://www.w3.org/2000/svg" viewBox="0 0 857.74 275.48">
  <defs>
    <style>
      .cls-1 {
        fill: #fff;
        opacity: .61;
      }

      .cls-2 {
        fill: #231815;
      }
    </style>
  </defs>
  <g id="_圖層_1-2" data-name="圖層 1">
    <rect class="cls-1" width="857.74" height="275.48" rx="30" ry="30"/>
    <g>
      <path class="cls-2" d="M35.39,57.1v1.08h-15.02v-1.08l5.18-.63c.07-2.17,.1-4.34,.1-6.51v-14.21l-4.55,.46v-1.29l8.82-2.1,.49,.39-.14,5.63v11.13c0,2.17,.04,4.34,.11,6.51l5.01,.63Z"/>
      <path class="cls-2" d="M48.8,30.42h2.55l-10.43,34.02h-2.63l10.5-34.02Z"/>
      <path class="cls-2" d="M56.32,51.39c1.37,3.64,1.12,6.37,.11,7.74-.77,.95-2.63,.98-3.26-.25-.52-1.05-.04-2.14,.95-2.8,.84-.84,1.89-2.97,1.68-4.69h.53Zm-3.19-4.52s.88-.21,1.23-.46c1.65-1.22,3.64-3.64,5.36-6.12-1.19,.49-2.52,1.01-3.96,1.54-.25,.38-.56,.63-.88,.77l-1.75-4.2s.74-.17,1.05-.38c1.75-1.75,4.03-6.79,4.69-9.49l4.69,2.38c-.14,.31-.56,.56-1.16,.49-1.54,2.24-4.27,5.21-6.69,7.18,1.43,0,3.22,0,5.11-.04,.77-1.3,1.44-2.56,1.82-3.54l4.24,2.91c-.17,.28-.67,.49-1.37,.35-1.96,2.52-5.78,6.16-9.21,8.58,1.82-.11,4.2-.28,6.62-.42-.32-1.19-.81-2.34-1.26-3.18l.38-.21c7.25,3.25,4.03,8.72,1.37,6.2,0-.59-.1-1.19-.25-1.82-1.92,.84-4.62,1.93-7.63,2.98-.28,.38-.63,.63-.95,.7l-1.47-4.2Zm6.06,3.99c5.92,4.48,2,9.59-.31,6.62,.42-2.13,.21-4.69-.14-6.51l.46-.1Zm3.47-.6c7.21,2.91,3.96,8.51,1.29,6.02,.04-1.96-.8-4.34-1.68-5.81l.38-.21Zm14.81-13.83v6.27h2.31l2.03-2.62s2.28,1.79,3.68,3.05c-.11,.38-.46,.56-.95,.56h-17.19l-.28-.98h6.41v-6.27h-6.86l-.28-.98h7.14v-6.83l5.29,.45c-.07,.49-.35,.84-1.29,.98v5.39h2.73l2.1-2.66s2.35,1.82,3.75,3.08c-.07,.38-.46,.56-.94,.56h-7.63Zm3.82,9.17l3.61,2.73c-.25,.31-.56,.53-1.37,.67v11.2c0,.21-1.26,.91-3.29,.91h-.7v-2.77h-7.39v2.07c0,.28-1.19,.95-3.12,.95h-.7v-15.26l4.24,1.61h6.83l1.89-2.1Zm-1.75,11.73v-8.61h-7.39v8.61h7.39Z"/>
      <path class="cls-2" d="M107.84,29.83c-.14,.46-.59,.66-1.71,.77,3.12,4.31,9.42,6.79,14.81,8.26l-.04,.56c-1.79,.49-2.91,2.24-3.22,3.78-5.32-2.62-9.98-6.69-12.11-12.18-3.33,5.32-10.5,10.85-17.54,13.55l-.21-.42c6.02-3.68,12.39-10.82,13.86-15.86l6.16,1.54Zm4.59,16.07l4.2,3.22c-.25,.28-.74,.63-1.47,.77v10.05c-.04,.25-2.21,.98-3.64,.98h-.74v-2.56h-12.74v1.58c0,.38-1.89,1.33-3.67,1.33h-.63v-14.95l4.59,1.82h12.11l2-2.24Zm-3.89-6.93s2.59,2.03,4.17,3.46c-.11,.39-.46,.56-.98,.56h-15.26l-.28-1.02h10.05l2.31-3.01Zm2.24,18.38v-8.19h-12.74v8.19h12.74Z"/>
      <path class="cls-2" d="M137.1,39.77c-.25,.35-.59,.49-1.37,.56-1.61,6.86-5.15,13.62-12.88,17.61l-.32-.38c5.11-4.34,7.88-11.2,9-17.82h-7.84l-.32-1.01h7.91l2.1-2.17,3.71,3.22Zm18.06-2.31c-.21,.35-.56,.56-1.4,.42-2.14,1.82-5.39,4.24-8.68,6.12,2.94,4.9,6.93,7.81,10.89,9.73l-.17,.38c-1.72,.32-3.01,1.79-3.57,3.71-5.57-4.55-9.14-10.33-10.85-21.77v20.16c0,2.97-.67,4.62-5.67,5.04-.14-1.37-.38-2.31-.98-2.97-.67-.67-1.54-1.12-3.57-1.47v-.49s4.3,.28,5.18,.28c.63,0,.84-.21,.84-.67V28.46l5.46,.56c-.1,.49-.35,.81-1.26,.95v3.61c.7,3.82,1.82,6.93,3.22,9.56,2.24-2.8,4.58-6.48,5.74-8.72l4.83,3.05Z"/>
      <path class="cls-2" d="M167.9,35.39s2,2.03,3.01,3.36c-.07,.38-.46,.56-.91,.56h-4.09v9.91c1.5-.46,3.08-.91,4.62-1.4l.11,.39c-2.1,1.64-5.5,4.09-10.29,7-.14,.49-.49,.88-.88,1.02l-2.06-4.69c.94-.21,2.55-.63,4.48-1.16v-11.06h-3.75l-.28-1.01h4.03v-9.35l5.32,.46c-.11,.49-.35,.88-1.29,1.02v7.88h.25l1.75-2.91Zm8.19-5.53c-.07,.49-.35,.88-1.22,1.02v14.07c-.07,7.07-2.1,12.85-8.89,16.38l-.31-.32c4.13-4.2,5.25-9.56,5.25-16.1v-15.54l5.18,.49Zm1.79,.95l4.94,.49c-.04,.42-.28,.74-1.12,.88v23.42c0,.38-1.71,1.22-3.08,1.22h-.74V30.81Zm12.36-1.05c-.1,.46-.32,.8-1.16,.95v29.16c0,.42-1.75,1.44-3.29,1.44h-.81V29.23l5.25,.53Z"/>
      <path class="cls-2" d="M205.04,32.98s2,1.58,3.22,2.73c-.07,.39-.46,.56-.95,.56h-14.14l-.28-1.02h10.4l1.75-2.28Zm7.63,.77c0,2.87-.63,7.6-6.51,10.33,.21,.21,.46,.42,.67,.63-.1,.38-.46,.56-.95,.56h-11.27l-.28-1.02h7.7l1.68-2.13s.98,.77,1.96,1.58c2.94-3.05,3.33-6.86,3.33-9.94v-4.34l4.3,1.58h2.98l1.86-2,3.4,2.8c-.21,.25-.63,.42-1.26,.52v5.78c0,.35,.11,.49,.56,.49h1.82c.21,0,.56-.04,.73-.04,.21-.04,.56-.11,.81-.14h.31l.14,.04c.84,.42,1.16,.77,1.16,1.47,0,1.4-1.19,2.17-4.55,2.17h-1.68c-2.62,0-2.94-.74-2.94-3.01v-7.11h-3.96v1.79Zm-10.64,5.99l1.68-2.21s1.89,1.54,3.08,2.66c-.1,.39-.46,.56-.94,.56h-11.2l-.28-1.02h7.67Zm.28,19.81v-1.89h-3.96v2.1c0,.35-1.54,1.16-3.04,1.16h-.53v-13.58l3.71,1.51h3.5l1.68-1.79,3.57,2.66c-.21,.25-.67,.52-1.33,.67v8.12c-.04,.28-1.79,1.05-3.01,1.05h-.6Zm-5.67-30.59c9.24,.46,5.92,7.46,2.21,5.01-.25-1.75-1.4-3.64-2.45-4.8l.25-.21Zm5.67,27.72v-6.86h-3.96v6.86h3.96Zm21.46-10.92c-.25,.35-.63,.45-1.47,.53-1.22,2.98-2.91,5.57-5.15,7.81,2.56,1.44,5.57,2.38,8.75,3.01l-.04,.38c-1.61,.35-2.8,1.58-3.33,3.47-3.15-1.19-5.81-2.63-7.95-4.69-2.98,2.24-6.83,3.88-11.55,4.97l-.21-.45c4.1-1.61,7.46-3.78,10.01-6.51-1.68-2.24-2.94-5.04-3.75-8.65h-1.68l-.32-1.01h10.78l2.24-2.14,3.64,3.29Zm-14.04-.14c1.05,2.83,2.66,5.01,4.76,6.69,1.54-2.03,2.7-4.24,3.5-6.69h-8.26Z"/>
      <path class="cls-2" d="M242.49,32.56s2.24,1.75,3.61,3.01c-.07,.38-.46,.56-.95,.56h-17.05l-.28-1.01h12.67l2-2.56Zm-3.71,7.11l1.96-2.49s2.21,1.68,3.5,2.91c-.1,.38-.46,.56-.94,.56h-13.37l-.28-.98h9.14Zm1.96,2.06s2.21,1.68,3.5,2.91c-.1,.39-.46,.56-.94,.56h-13.37l-.28-1.02h9.14l1.96-2.45Zm.07,5.32l3.71,2.8c-.21,.25-.7,.56-1.4,.7v7.95c-.03,.28-1.85,1.05-3.12,1.05h-.63v-2h-5.39v2.07c0,.35-1.61,1.19-3.15,1.19h-.52v-13.41l3.82,1.54h4.9l1.79-1.89Zm-7.74-18.38c9.42,.49,5.99,7.81,2.21,5.21-.24-1.85-1.36-3.82-2.48-5.04l.28-.17Zm6.3,27.9v-6.65h-5.39v6.65h5.39Zm18.1-17.96s2.31,1.89,3.71,3.19c-.11,.38-.49,.56-.98,.56h-6.44v17.36c0,.45-1.75,1.44-3.29,1.44h-.77v-18.8h-5.6l-.28-1.02h5.88v-12.71l5.36,.53c-.1,.49-.35,.88-1.29,1.01v11.17h1.68l2.03-2.73Z"/>
      <path class="cls-2" d="M278.78,36.09c-.24,.31-.77,.59-1.47,.73v20.86c-.04,.28-1.89,1.16-3.25,1.16h-.6v-2.77h-5.32v2.59c0,.45-1.47,1.33-3.15,1.33h-.63v-26.46l3.92,1.65h.21c.25-1.93,.56-4.66,.74-6.62l5.67,1.37c-.14,.59-.63,.84-1.44,.84-.91,1.23-2.28,3.05-3.4,4.41h3.05l1.86-2.1,3.81,3.01Zm-10.64,.1v8.68h5.32v-8.68h-5.32Zm5.32,18.9v-9.21h-5.32v9.21h5.32Zm22.4-19.01c-.28,.31-.73,.56-1.54,.67-.25,14.11-.74,20.51-2.66,22.58-1.26,1.33-2.8,1.89-5.11,1.89,0-1.33-.17-2.31-.77-2.87-.63-.67-2-1.22-3.71-1.54l.04-.49c1.68,.14,4.09,.32,5,.32,.63,0,.95-.14,1.3-.46,1.29-1.19,1.64-8.16,1.89-20.09h-6.51c-1.68,2.97-3.67,5.46-5.92,7.35l-.46-.28c1.92-3.57,3.82-9.28,4.72-14.63l5.53,1.61c-.14,.46-.56,.7-1.37,.7-.59,1.5-1.23,2.91-1.96,4.24h5.57l2.21-2.28,3.75,3.29Zm-15.47,6.12c10.22,3.01,6.41,10.57,2.7,7.46-.17-2.49-1.58-5.32-2.97-7.25l.28-.21Z"/>
      <path class="cls-2" d="M307.59,39.63c-.14,.31-.46,.52-1.08,.67v19.74c-.07,.35-1.75,1.19-3.36,1.19h-.77v-18.9c-1.43,1.71-2.97,3.22-4.62,4.52l-.42-.28c2.91-4.38,5.81-11.31,7.25-18.17l5.63,1.71c-.17,.46-.59,.77-1.36,.74-1.09,2.87-2.38,5.5-3.85,7.84l2.59,.95Zm13.48-.88c1.82,6.06,5.92,10.22,10.22,12.64l-.1,.49c-1.86,1.05-2.98,2.59-3.26,4.48-3.82-3.82-6.27-10.08-7.49-16.87v20.23c0,.45-1.75,1.44-3.33,1.44h-.77v-15.16c-2.21,4.13-5.36,7.67-9.38,10.47l-.42-.35c4.03-4.48,6.79-11.06,8.09-17.36h-6.79l-.28-.98h8.79v-8.82l5.39,.53c-.07,.53-.35,.88-1.29,1.02v7.28h3.75l2.31-2.98s2.59,2,4.16,3.4c-.1,.39-.46,.56-.98,.56h-8.61Z"/>
      <path class="cls-2" d="M338.98,48.1v1.26c0,.32-1.64,1.12-3.15,1.12h-.52v-11.06l3.85,1.54h.6v-3.75h-6.16l-.28-1.02h6.44v-4.45h-5.04l-.28-.98h9.24l1.86-2.38s2.13,1.61,3.4,2.8c-.11,.39-.46,.56-.95,.56h-4.48v4.45h1.61l1.86-2.34s2.1,1.61,3.36,2.8c-.07,.38-.42,.56-.91,.56h-5.92v3.75h.63l1.72-1.82,3.61,2.7c-.21,.25-.67,.53-1.3,.67v6.02c-.04,.25-1.89,.91-3.08,.91h-.63v-1.33h-5.46Zm-.77,3.29c1.47,3.99,.25,6.76-1.4,7.67-1.12,.67-2.62,.38-3.04-.8-.35-1.12,.38-2.03,1.4-2.52,1.23-.67,2.59-2.42,2.52-4.31l.53-.04Zm.77-9.42v5.15h5.46v-5.15h-5.46Zm18.97,14.74c1.22,.38,1.58,.8,1.58,1.5,0,1.79-1.72,2.1-9.03,2.1h-4.8c-4.13,0-5.08-.63-5.08-3.25v-6.51l5.25,.42c-.07,.42-.38,.77-1.12,.88v4.66c0,.45,.18,.59,1.54,.59h4.62c1.61,0,3.12,0,3.75-.04,.6-.04,.81-.14,1.08-.49,.42-.52,.98-1.75,1.72-3.67h.38l.11,3.82Zm-10.05-6.86c8.86,1.08,5.64,7.53,2.35,5.11-.28-1.71-1.47-3.71-2.62-4.87l.28-.25Zm17.29-15.96c-.17,.25-.63,.53-1.26,.63v14.04c-.07,.28-1.96,1.05-3.26,1.05h-.66v-1.75h-5.88v.77c0,.38-1.58,1.26-3.22,1.26h-.59V31.33l3.99,1.64h.31c.14-1.29,.28-3.18,.35-4.48l5.85,.81c-.11,.59-.6,.88-1.33,.95-.84,.77-2.21,1.89-3.22,2.73h3.43l1.79-1.96,3.71,2.87Zm-11.06,.07v3.61h5.88v-3.61h-5.88Zm0,4.62v3.6h5.88v-3.6h-5.88Zm5.88,8.26v-3.68h-5.88v3.68h5.88Zm-2.1,4.24c10.15,1.82,7.14,9.45,3.4,6.83-.32-2.34-1.96-4.97-3.71-6.58l.32-.25Z"/>
      <path class="cls-2" d="M382.73,32.59c-.17,.42-.63,.7-1.47,.63-3.08,6.69-7.42,11.13-12.71,14l-.35-.32c3.54-3.71,7.07-9.87,8.86-16.45l5.67,2.13Zm6.13,15.09c13.48,6.09,9.77,16.66,5.04,12.67-.17-1.4-.52-2.87-1.05-4.34-4.59,1.37-10.89,2.94-18.62,4.38-.35,.49-.77,.81-1.22,.95l-1.75-5.36s1.05-.25,1.47-.6c2.77-2.52,6.93-10.29,8.12-14.7l5.95,2.28c-.17,.38-.59,.7-1.37,.67-2.34,3.92-7.04,9.28-11.06,12.53,4.41-.14,11.2-.56,18.06-1.19-1.05-2.55-2.49-5.04-3.96-7.07l.38-.21Zm3.29-17.08c-.46,.56-1.68,.84-3.12,.95,1.58,5.01,5.78,9.38,11.66,11.45l-.07,.42c-1.79,.63-3.22,2.28-3.71,3.99-4.94-3.5-7.67-9-8.79-16.14h-4.06l-.31-.98h3.43l1.37-2.17,3.61,2.49Z"/>
      <path class="cls-2" d="M435.23,31.93c-.25,.32-.74,.6-1.44,.77v27.06c-.03,.32-1.96,1.33-3.5,1.33h-.63v-2.66h-20.93v1.33c0,.53-1.61,1.54-3.36,1.54h-.7V29.2l4.41,1.82h20.23l2-2.24,3.92,3.15Zm-5.57,25.52V32h-20.93v25.45h5.71l-1.79-2.7c1.08-.7,1.26-.98,1.26-1.54v-1.64c-1.47,.63-3.04,1.15-4.69,1.61l-.28-.59c2.8-1.23,5.32-2.98,7-4.87h-1.08v.14c0,.28-1.54,.95-2.87,.95h-.49v-7.74l3.5,1.4h8.3l1.54-1.58,3.22,2.38c-.17,.21-.53,.42-1.01,.52v3.75c0,.07-.14,.14-.32,.24l2.28,2.03c-.21,.28-.53,.35-1.12,.11-.74,.31-1.82,.7-2.91,1.05,5.67,2.87,3.78,6.51,1.47,5.25-1.01-1.65-3.85-4.45-7.49-6.69l.25-.49c1.75,.38,3.22,.84,4.45,1.33,.63-.7,1.33-1.5,1.92-2.17-.49,.1-.98,.21-1.4,.21h-.59v-.7h-3.57c-.8,.8-1.75,1.5-2.8,2.17v1.89h-.04v1.75c1.33-.39,2.87-.81,4.38-1.26l.11,.46c-1.26,.84-3.89,2.59-6.58,4.27-.14,.21-.32,.35-.46,.46h15.05Zm-3.4-20.3s2.03,1.54,3.26,2.62c-.11,.38-.46,.56-.95,.56h-19.11l-.28-.98h8.12v-2.56h-6.3l-.28-.98h6.58v-3.08l4.66,.42c-.04,.42-.28,.7-.98,.8v1.86h2.38l1.71-2.03s1.96,1.4,3.15,2.45c-.07,.38-.42,.56-.91,.56h-6.33v2.56h3.5l1.79-2.21Zm-2.7,6.34h-8.72v3.25h8.72v-3.25Z"/>
      <path class="cls-2" d="M36.23,108.89v3.71H19.43v-2.73c2.03-2.21,4.06-4.34,5.78-6.09,3.96-4.13,5.53-6.69,5.53-10.12,0-3.22-1.68-5.32-4.51-5.32-.53,0-1.09,.07-1.65,.21l-.84,3.22c-.39,2.07-1.33,2.66-2.35,2.66-.95,0-1.68-.53-2.07-1.33,.42-3.92,4.1-6.02,8.4-6.02,5.29,0,7.7,2.8,7.7,6.76,0,3.46-2.52,6.41-8.82,11.27-1.12,.88-2.77,2.31-4.48,3.78h14.11Z"/>
      <path class="cls-2" d="M48.8,84.84h2.55l-10.43,34.02h-2.63l10.5-34.02Z"/>
      <path class="cls-2" d="M65.74,100.42c-.21,.35-.56,.42-1.29,.49-.91,2.59-2.73,5.36-5.22,7.49,.11,.07,.21,.14,.32,.21,2.73,2.21,7,2.7,14.7,2.7,4.1-.04,7.42-.04,11.55-.25v.46c-1.68,.31-2.63,1.82-2.8,3.36h-10.19c-7.63,0-10.75-1.33-13.69-4.97-.49-.66-.88-.59-1.16,.04-.6,1.05-1.47,2.91-2.24,4.66,.1,.32,0,.53-.25,.7l-2.84-3.96c1.85-.98,4.59-2.98,5.46-3.15,1.12-2.17,2.03-5.08,2.41-7.56h-2.34l-1.26,1.12-3.12-2.24c.35-.21,.88-.49,1.4-.67,1.12-1.61,2.59-3.99,3.5-5.71h-5.08l-.31-.98h5.46l1.72-1.75,3.43,3.12c-.31,.35-1.01,.53-1.86,.56-.88,1.54-2.38,3.88-3.5,5.57h1.71l2-2,3.46,2.76Zm-11.06-17.01c9.66,.81,6.55,8.16,2.8,5.64-.38-1.92-1.79-4.1-3.12-5.43l.31-.21Zm17.12,3.64c-2.24,.14-4.48,.17-6.58,.14l-.14-.52c4.9-.81,11.03-2.52,14.14-3.92l3.57,3.4c-.35,.32-1.09,.38-2.1-.04-1.43,.28-3.18,.49-5.11,.66v3.47h3.47l1.96-2.52s2.34,1.71,3.75,2.98c-.1,.38-.49,.56-.98,.56h-8.19v.39c12.29,1.22,10.19,7.77,6.83,6.3-1.05-1.33-3.61-3.57-6.83-5.42v4.45c0,.17-1.19,.8-3.12,.8h-.66v-3.61c-2.1,1.82-4.76,3.26-7.77,4.38l-.32-.49c2.7-1.75,4.83-4.2,6.23-6.79h-6.27l-.28-1.01h8.4v-3.19Zm1.4,19.81c1.4,.1,3.78,.28,4.45,.28,.56,0,.84-.07,1.08-.25,.49-.31,.95-1.64,1.23-3.57h-2l-1.47,1.51-3.25-2.35c.38-.28,.94-.56,1.5-.74,.28-.77,.63-1.64,.88-2.42h-2.52c-.91,5.01-3.54,8.61-8.47,10.89l-.21-.46c3.25-2.77,4.45-6.34,4.73-10.43h-3.43l-.31-.98h10.08l1.43-1.68,3.4,2.62c-.21,.28-.67,.49-1.26,.63-.28,.7-.63,1.61-.95,2.42h1.65l1.71-1.68,3.25,2.66c-.25,.25-.63,.42-1.33,.53-.42,3.12-1.22,5.11-2.66,5.99-.84,.53-2.1,.84-3.75,.84,0-.88-.14-1.72-.7-2.21-.53-.49-1.75-.88-3.12-1.12l.04-.49Z"/>
      <path class="cls-2" d="M99.09,100.7c-.24,.25-.56,.28-1.19,.32-.77,2.41-2.35,5.04-4.45,7.11,.21,.04,.42,.14,.67,.32,2.66,2.17,7,2.59,14.91,2.59,4.24-.04,7.56-.04,11.76-.28v.46c-1.65,.32-2.63,1.82-2.8,3.4h-10.4c-7.98,0-11.03-1.19-13.9-4.87-.52-.67-.88-.56-1.19,.07-.49,1.05-1.16,2.77-1.79,4.48,.1,.32,0,.53-.25,.7l-2.84-3.92c1.29-.7,3.12-2.03,4.27-2.66,1.09-2.21,1.89-5.15,2.17-7.67h-1.19l-1.19,1.19-3.15-2.1c.32-.28,.81-.53,1.3-.7,.88-1.68,2.06-4.13,2.76-5.88h-4.03l-.31-1.01h4.3l1.58-1.61,3.15,2.87c-.25,.28-.73,.46-1.33,.53-.7,1.54-1.89,3.99-2.8,5.74h.7l1.89-1.92,3.33,2.62v-6.76l2.7,1.09v-11.06l3.78,1.5h6.58l1.58-2.07,3.96,2.77c-.24,.35-.7,.56-1.58,.66v8.61l1.12-1.65,2.42,3.22c-.25,.25-.77,.49-1.33,.59v9.28c0,2.24-.63,3.54-4.34,3.71,0-1.12-.11-1.61-.42-2.17-.32-.56-.98-.98-2.14-1.19v-.46s1.65,.11,2.66,.11c.38,0,.52-.07,.52-.39v-10.01h-11.94v12.32c0,.35-1.54,1.19-3.04,1.19h-.53v-9.07Zm-9.14-17.15c9,1.58,5.57,8.3,2.17,5.67-.18-1.89-1.37-4.09-2.49-5.46l.31-.21Zm19.95,23.07v-1.3h-2.59v1.12c0,.21-1.33,.91-2.59,.91h-.42v-9.7l3.19,1.33h2.13l1.4-1.47,2.94,2.21c-.17,.21-.56,.45-1.05,.52v5.46c-.04,.25-1.51,.91-2.52,.91h-.49Zm-4.66-20.37v9h1.96v-7.11l3.36,1.33h1.96v-3.22h-7.28Zm4.66,18.06v-4.34h-2.59v4.34h2.59Zm.21-9.07h2.42v-4.76h-2.42v4.76Z"/>
      <path class="cls-2" d="M143.37,87.26c-.84,2.03-1.89,4.06-3.15,6.02l2.17,.81c-.1,.31-.42,.56-1.09,.67v20.06c-.04,.25-1.89,.91-3.43,.91h-.77v-18.13c-3.78,4.62-8.61,8.75-14.14,11.62l-.28-.28c7.04-5.67,13.02-14.32,15.19-21.67h-14.42l-.28-.98h25.24l2.52-3.22s2.87,2.17,4.59,3.64c-.11,.38-.49,.56-1.02,.56h-11.13Zm-.63,8.86c15.86,3.43,14.11,12.88,9.42,10.57-1.89-3.54-6.27-7.74-9.73-10.26l.32-.31Z"/>
      <path class="cls-2" d="M189.88,86.66c-.25,.28-.7,.59-1.44,.73v23.73c0,2.7-.74,4.24-5.71,4.69-.17-1.23-.42-2.1-1.08-2.7-.77-.56-1.71-1.05-3.85-1.33v-.49s4.69,.31,5.71,.31c.7,0,.91-.31,.91-.84v-24.05h-20.27v27.48c0,.52-1.61,1.54-3.29,1.54h-.7v-31.82l4.31,1.79h19.6l1.89-2.17,3.92,3.12Zm-10.61,1.92s2.45,1.86,3.92,3.08c-.1,.39-.49,.56-1.01,.56h-16.07l-.28-.98h11.34l2.1-2.66Zm1.58,18.73c-.04,.28-1.96,1.09-3.22,1.09h-.67v-3.26h-5.6v2.91c0,.32-1.61,1.16-3.22,1.16h-.56v-14.25l3.96,1.58h5.08l1.79-1.93,3.71,2.84c-.21,.25-.67,.52-1.26,.63v9.24Zm-3.89-3.15v-6.62h-5.6v6.62h5.6Z"/>
      <path class="cls-2" d="M221.14,83.48s2.84,2.17,4.59,3.64c-.07,.38-.49,.56-1.02,.56h-15.72c-1.19,3.47-3.05,6.97-5.46,10.12l1.58,.63h12.67l2-2.28,4.17,3.26c-.28,.28-.84,.63-1.58,.8v14.18c-.07,.28-2.14,1.09-3.54,1.09h-.66v-3.22h-13.48v2.24c0,.28-1.26,1.19-3.36,1.19h-.77v-14.42c-2.24,2.31-4.83,4.38-7.7,6.02l-.32-.32c5.53-5.11,9.8-12.67,11.27-19.29h-10.22l-.28-1.01h25.27l2.55-3.19Zm-16.45,15.93v11.83h13.48v-11.83h-13.48Z"/>
      <path class="cls-2" d="M237.87,95.31c8.82,2.62,5.18,8.96,2,6.16-.11-1.82-1.01-3.89-2-5.43v18.52c0,.35-1.68,1.16-3.19,1.16h-.8v-14.32c-1.58,2.45-3.57,4.66-5.92,6.55l-.46-.39c3.08-4.09,5.01-9.8,5.99-15.33h-4.9l-.28-.98h5.57v-8.37l5.29,.52c-.07,.53-.35,.88-1.29,1.02v6.83h.8l1.86-2.66s2.2,1.86,3.43,3.08c-.11,.39-.46,.56-.95,.56h-5.15v3.08Zm20.16-6.83s2.03,1.96,3.12,3.22c-.11,.39-.45,.56-.91,.56h-4.31v18.76c0,2.73-.7,4.24-5.5,4.66-.14-1.19-.35-2.07-.98-2.62-.66-.59-1.47-1.02-3.46-1.33v-.45s4.24,.28,5.08,.28c.63,0,.84-.21,.84-.7v-12.15c-2.94,4.34-7,8.02-11.97,10.78l-.35-.38c4.97-4.27,8.86-10.85,10.92-16.84h-6.27l-.28-1.02h7.95v-8.4l5.32,.52c-.1,.49-.42,.84-1.29,.98v6.9h.39l1.71-2.76Z"/>
      <path class="cls-2" d="M278.5,96.46c-1.54,.95-3.5,2.13-5.95,3.54v10.54c0,2.98-.59,4.69-5.29,5.18-.11-1.47-.32-2.49-.84-3.19-.53-.73-1.37-1.19-3.12-1.5v-.49s3.67,.25,4.48,.25c.59,0,.77-.21,.77-.66v-7.91c-1.12,.6-2.31,1.23-3.57,1.86-.14,.42-.53,.84-.91,.98l-1.65-4.8c1.23-.25,3.43-.77,6.13-1.47v-6.65h-5.29l-.28-1.01h5.57v-8.26l5.29,.49c-.07,.52-.42,.88-1.3,1.01v6.76h.84l1.82-2.73s2.1,1.89,3.29,3.19c-.11,.38-.45,.56-.95,.56h-5.01v5.6c1.89-.52,3.85-1.08,5.81-1.64l.14,.38Zm13.55-12.39s2.56,2.1,4.06,3.54c-.1,.38-.49,.56-.98,.56h-5.64v21.95c0,2.83-.81,4.9-6.13,5.29-.07-1.4-.42-2.45-1.23-3.08-.8-.67-1.82-1.12-4.3-1.5v-.46s5.46,.35,6.54,.35c.63,0,.88-.31,.88-.77v-21.77h-9.77l-.28-1.01h14.56l2.28-3.08Z"/>
      <path class="cls-2" d="M310.91,100.45c-.25,.32-.56,.42-1.33,.46-.98,2.56-2.83,5.22-5.36,7.28,.17,.07,.32,.17,.53,.31,2.76,2.28,7,2.77,14.63,2.77,4.1,0,7.46-.04,11.59-.28v.42c-1.65,.39-2.59,1.86-2.8,3.43h-10.19c-7.56,0-10.68-1.4-13.65-5.04-.49-.67-.91-.59-1.19,.04-.59,1.09-1.5,2.98-2.28,4.73,.11,.35-.04,.56-.28,.74l-2.76-3.99c1.4-.77,3.46-2.21,4.69-2.87,1.4-2.21,2.52-5.22,3.08-7.81h-2.07l-1.26,1.16-3.22-2.28c.35-.24,.88-.49,1.4-.67,1.16-1.61,2.62-4.03,3.57-5.71h-5.39l-.31-1.02h5.88l1.75-1.75,3.43,3.15c-.31,.35-1.05,.53-1.89,.56-.88,1.47-2.38,3.85-3.54,5.53h1.51l1.96-1.96,3.5,2.8Zm-11.27-17.01c9.98,.46,7.04,8.05,3.08,5.6-.42-1.92-1.96-4.1-3.36-5.39l.28-.21Zm14.21,6.41c-1.12,1.89-2.45,3.5-3.96,4.66l-.49-.25c1.12-2.59,2.03-6.48,2.42-10.12l5.08,1.4c-.14,.46-.53,.74-1.3,.74-.35,.88-.73,1.75-1.19,2.55h3.15v-5.99l5.18,.46c-.07,.49-.35,.84-1.26,.98v4.55h1.47l2.03-2.59s2.28,1.75,3.71,3.04c-.11,.38-.49,.56-.98,.56h-6.23v5.21h2.7l2.14-2.73s2.45,1.86,3.88,3.19c-.1,.39-.45,.56-.98,.56h-20.02l-.28-1.02h8.65v-5.21h-3.71Zm9.52,19.85v-2.31h-8.19v1.61c0,.35-1.75,1.19-3.43,1.19h-.56v-12.53l4.17,1.64h7.67l1.79-2,3.82,2.91c-.21,.25-.7,.56-1.37,.7v7.74c-.04,.31-1.92,1.05-3.25,1.05h-.63Zm0-3.29v-6.13h-8.19v6.13h8.19Z"/>
      <path class="cls-2" d="M347.24,98.35c-1.19,.8-2.62,1.85-4.45,3.01v12.92c0,.42-1.68,1.37-3.12,1.37h-.74v-11.87c-.77,.49-1.61,.98-2.52,1.51-.11,.46-.46,.77-.84,.91l-2.59-4.41c1.26-.28,3.4-.8,5.95-1.5v-7.42h-2.17c-.77,2.8-1.86,5.39-3.22,7.35l-.52-.25c.8-3.71,1.26-8.89,1.33-13.48l4.59,.7v-4.2l5.15,.53c-.1,.49-.35,.84-1.29,.98v7.21l1.65-2.7s2.03,2,3.12,3.29c-.07,.38-.42,.56-.91,.56h-3.85v6.34c1.44-.38,2.87-.77,4.34-1.23l.1,.39Zm-8.3-6.48v-4.27c-.21,.28-.52,.45-1.09,.52-.21,1.26-.49,2.52-.8,3.75h1.89Zm23.63,6.65s2.24,1.82,3.61,3.08c-.11,.38-.46,.56-.95,.56h-5.43v9.03c0,2.73-.7,4.2-5.57,4.62-.14-1.19-.35-2.03-1.05-2.63-.7-.56-1.61-.98-3.71-1.29v-.46s4.66,.28,5.5,.28c.63,0,.8-.21,.8-.7v-8.86h-10.85l-.28-.98h11.13v-4.16l5.25,.46c-.11,.52-.42,.8-1.23,.91v2.8h.74l2.03-2.66Zm-17.19-9.45h7.18v-6.23l5.11,.46c-.04,.46-.32,.77-1.12,.91v4.87h3.08l2.1-2.73s2.41,1.86,3.88,3.19c-.1,.38-.46,.56-.98,.56h-8.09v5.36h2.42l2.03-2.63s2.34,1.79,3.75,3.08c-.07,.38-.46,.56-.98,.56h-16.87l-.28-1.01h5.95v-5.36h-6.86l-.31-1.01Zm1.68,13.79c9.66,2.17,6.62,9.1,3.01,6.55-.49-2.13-2.03-4.66-3.33-6.34l.31-.21Z"/>
      <path class="cls-2" d="M398.34,110.22c1.79,.52,2.38,.77,2.38,1.64,0,1.86-1.54,3.05-8.47,3.05h-12.39c-5.22,0-7.6-1.3-7.6-5.64v-14.18c-1.4,1.12-2.91,2.14-4.41,2.94l-.32-.32c3.85-3.5,7.67-9.8,9.42-15.05l5.74,1.4c-.14,.42-.42,.56-1.37,.53-.45,.8-.98,1.61-1.54,2.42h5.95l2.17-2.21,3.82,3.29c-.25,.32-.67,.42-1.4,.49-1.5,1.4-3.75,3.22-5.88,4.41h7.6l1.92-2.14,4.1,3.12c-.25,.28-.74,.63-1.51,.77v9.1c-.03,.28-2.06,1.08-3.46,1.08h-.67v-2.31h-16.1v6.75c0,1.3,.98,1.68,3.36,1.68h12.18c2.14,0,3.12-.14,3.85-.95,.63-.77,1.58-2.94,2.2-4.83h.39l.03,4.94Zm-19.29-22.19c-1.12,1.5-2.42,3.01-3.82,4.38l1.54,.6h6.72c.88-1.4,1.75-3.47,2.31-4.97h-6.75Zm-2.73,13.58h5.95v-7.6h-5.95v7.6Zm9.91-7.6v7.6h6.2v-7.6h-6.2Z"/>
      <path class="cls-2" d="M434.18,110.5c1.26,.45,1.64,.91,1.64,1.61,0,1.86-1.82,2.45-9.49,2.45h-4.83c-4.17,0-5.6-.7-5.6-3.92v-12.99l-3.01,1.33-.7-.77,3.71-1.61v-2.8c-.17,.14-.42,.21-.7,.21h-4.45v10.85c1.54-.42,3.15-.84,4.76-1.3l.11,.39c-2.03,1.54-5.15,3.78-9.8,6.55-.14,.45-.49,.84-.91,.98l-2.31-4.69c.91-.17,2.42-.53,4.24-.95v-11.83h-3.82l-.28-1.01h4.1v-9.35l5.21,.46c-.07,.49-.31,.88-1.29,1.02v7.88h.77l1.68-2.8s1.65,1.71,2.7,3.01v-5.32l5.08,.56c-.04,.42-.39,.8-1.23,.91v5.57l2.98-1.29v-10.78l5.08,.49c-.07,.49-.35,.84-1.29,.98v7.67l3.54-1.58,1.79-1.82,3.36,3.5c-.28,.31-.63,.42-1.4,.49-.88,3.99-2.59,9.8-4.72,13.62l-.42-.25c.67-4.34,1.19-10.29,1.3-14.35l-3.43,1.47v13.97c0,.38-1.65,1.12-3.08,1.12h-.7v-13.44l-2.98,1.33v13.62c0,1.02,.46,1.33,2.21,1.33h4.69c1.82,0,3.26-.04,3.96-.1,.56-.04,.91-.18,1.22-.53,.46-.67,1.05-2.42,1.82-4.83h.38l.14,4.97Z"/>
      <path class="cls-2" d="M445.52,94.68c6.86,3.04,3.71,8.05,1.3,5.67,0-1.54-.6-3.36-1.3-4.76v18.8c0,.42-1.54,1.33-2.91,1.33h-.7v-13.76c-1.05,2-2.34,3.81-3.82,5.5l-.45-.42c2-4.03,3.18-9.38,3.81-14.46h-3.29l-.28-1.01h4.03v-8.75l4.9,.49c-.07,.49-.35,.84-1.3,.98v7.18l1.61-2.45s1.89,1.82,2.94,3.01c-.1,.38-.42,.56-.91,.56h-3.64v2.1Zm2.49,19.53c2.14-2.28,3.92-5.85,4.69-8.37l4.52,2.31c-.14,.35-.49,.56-1.29,.46-1.68,2.13-4.38,4.58-7.56,5.99l-.35-.38Zm1.33-27.83l-.28-1.01h15.89l2.06-2.66s2.35,1.82,3.75,3.12c-.07,.38-.42,.56-.95,.56h-6.44v3.54h1.54l1.68-1.79,3.68,2.66c-.25,.28-.77,.6-1.47,.74v6.09c-.03,.17-1.43,.67-2.55,.77,.8,.6,2,1.51,2.87,2.24-.1,.39-.46,.56-.95,.56h-16.84l-.28-1.02h12.29l1.92-2.27v-.7h-11.45v1.19c0,.32-1.5,1.05-2.91,1.05h-.49v-10.99l3.61,1.47h1.68v-3.54h-6.37Zm17.75,15.23s2.35,1.71,3.82,2.98c-.1,.38-.49,.56-.98,.56h-8.3v9.66c0,.14-1.22,.77-3.25,.77h-.74v-10.43h-8.23l-.28-.98h15.93l2.03-2.56Zm-13.27-5.39h1.89v-5.29h-1.89v5.29Zm6.69-9.84h-1.89v3.54h1.89v-3.54Zm-1.89,9.84h1.89v-5.29h-1.89v5.29Zm4.27,10.54c10.57,2.1,7.84,9.56,4.03,7.11-.63-2.42-2.62-5.08-4.31-6.83l.28-.28Zm.49-15.82v5.29h1.89v-5.29h-1.89Z"/>
      <path class="cls-2" d="M24.26,145.91c-.28,1.65-1.16,2.28-2.34,2.28-.81,0-1.51-.42-1.86-1.16,.35-3.85,3.75-5.53,7.67-5.53,5.11,0,7.77,2.52,7.77,6.13,0,2.94-1.82,5.25-6.09,6.23,4.94,.77,6.86,3.19,6.86,6.51,0,4.24-3.54,7.21-9.14,7.21-4.72,0-7.56-2-8.02-5.85,.39-.98,1.19-1.4,2-1.4,1.3,0,2,.67,2.35,2.73l.63,3.01c.56,.14,1.12,.21,1.71,.21,3.75,0,5.71-2.03,5.71-5.81s-1.96-5.78-5.71-5.78h-1.54v-1.4h1.3c3.25,0,5.39-1.85,5.39-5.57,0-3.22-1.61-4.97-4.45-4.97-.49,0-.98,.07-1.5,.18l-.74,2.97Z"/>
      <path class="cls-2" d="M48.8,139.26h2.55l-10.43,34.02h-2.63l10.5-34.02Z"/>
      <path class="cls-2" d="M81.87,160.44s2.45,1.79,3.99,3.05c-.1,.38-.49,.56-.98,.56h-13.55v5.18c0,.28-1.89,.91-3.46,.91h-.74v-6.09h-13.93l-.32-1.01h14.25v-2.62l2.17,.17c2.03-1.65,3.5-4.24,4.17-6.48h-11.59l3.47,1.64c-.17,.35-.46,.56-1.3,.46-.28,.39-.6,.77-.95,1.12,6.48,.56,3.75,5.6,.77,3.71-.21-.95-.88-2.03-1.58-2.84-1.92,1.89-4.51,3.61-7.46,4.59l-.32-.42c2.87-2.1,5.15-5.46,6.2-8.26h-5.67l-.32-1.02h13.41c-.1-.1-.21-.21-.31-.31-.07-.63-.28-1.58-.7-2.38-.7,.49-1.86,.84-3.85,.98-.07-.84-.17-1.5-.59-1.89-.42-.35-.95-.7-2.42-.91v-.46s2.59,.18,3.22,.18c.53,0,.63-.21,.63-.63v-2.24c-1.92,1.09-4.41,2.49-7.56,4.06-.14,.45-.46,.77-.88,.88l-1.5-3.82c1.75-.28,5.71-1.15,9.94-2.17v-4.27h-10.22l-.32-1.01h10.19l1.75-2.03,3.95,2.97c-.21,.28-.7,.6-1.43,.7v7.18c0,.56-.04,1.08-.21,1.51,3.92,.59,3.92,2.73,2.8,3.67h7.14l1.68-1.92c-.38,.07-.77,.1-1.23,.14-.1-.84-.17-1.5-.56-1.89-.38-.35-.91-.74-2.31-.91v-.49s2.42,.17,3.01,.17c.49,0,.63-.21,.63-.63v-2.49c-1.96,1.12-4.41,2.49-7.53,4.03-.14,.42-.46,.77-.88,.88l-1.43-3.85c1.71-.28,5.67-1.16,9.84-2.1v-3.92h-9.24l-.31-1.01h9.21l1.75-2.03,3.99,2.97c-.25,.28-.7,.6-1.44,.7v7.07c0,1.64-.35,2.7-2.52,3.19,.77,.56,2.35,1.68,3.47,2.55-.11,.38-.49,.56-.98,.56h-8.33l3.6,1.61c-.17,.35-.49,.6-1.26,.49-.21,.28-.46,.6-.7,.88,6.9,.14,5.29,5.46,2.14,4.1-.6-1.09-1.86-2.31-2.98-3.22-1.19,1.16-2.73,2.1-4.48,2.8l1.4,.11c-.07,.38-.28,.67-.98,.8v1.37h8.33l2.2-2.59Zm-26.18-19.29c6.72-1.36,6.44,4.62,3.54,3.5-.88-.98-2.17-2.28-3.75-3.12l.21-.39Zm14.7,.04c6.44-1.43,6.13,4.41,3.33,3.29-.77-.91-1.96-2.17-3.5-2.87l.17-.42Z"/>
      <path class="cls-2" d="M91.15,160.09c1.37,3.61,1.16,6.34,.14,7.74-.73,.95-2.55,.98-3.19-.21-.52-1.05,0-2.1,.91-2.76,.81-.88,1.86-3.01,1.61-4.76h.53Zm-3.12-4.55s.84-.17,1.16-.42c1.47-1.19,3.22-3.5,4.69-5.85-.91,.39-1.96,.81-3.08,1.23-.24,.38-.56,.67-.91,.8l-1.68-4.06s.7-.21,1.01-.42c1.61-1.75,3.68-6.76,4.24-9.42l4.69,2.24c-.14,.35-.53,.56-1.19,.53-1.47,2.24-3.99,5.22-6.23,7.18,1.22,.04,2.7,.04,4.27,0,.67-1.26,1.22-2.41,1.58-3.36l4.17,2.8c-.17,.28-.63,.49-1.29,.35-1.89,2.55-5.43,6.09-8.54,8.47,1.71-.11,3.92-.25,6.3-.42-.17-1.26-.53-2.49-.91-3.47l.42-.14c7.07,3.85,3.22,9.28,.63,6.41,.04-.52,.04-1.08,0-1.64-1.85,.77-4.38,1.79-7.07,2.73-.25,.32-.53,.49-.84,.6l-1.4-4.13Zm5.39,4.1c5.46,4.48,1.85,9.31-.28,6.62,.35-2.13,.17-4.69-.17-6.51l.46-.1Zm14.07-.28c-.88,1.26-2.38,3.33-4.48,5.85-.04,.49-.32,.91-.7,1.08l-2.21-3.25c.28,2-1.37,3.29-2.77,1.82,.14-1.93-.52-4.27-1.26-5.81l.42-.18c1.92,1.05,2.98,2.28,3.4,3.36,1.47-.56,4.52-1.85,7.49-3.18l.11,.31Zm9.87-12.08s2.2,1.93,3.46,3.22c-.1,.38-.46,.56-.98,.56h-8.16v14.46c0,2.41-.56,3.96-4.55,4.31-.03-1.05-.17-1.89-.56-2.38-.38-.53-1.01-.91-2.45-1.12v-.49s2.62,.18,3.22,.18c.52,0,.67-.18,.67-.6v-14.35h-7.53l-.28-.98h9.98l.91-2.66h-5.53l-1.51,1.61-3.61-2.45c.39-.28,.95-.59,1.51-.8,1.15-2.45,2.66-6.48,3.18-8.33l4.9,.84c-.11,.46-.45,.84-1.44,.84-.21,.56-.46,1.19-.7,1.89h5.01l1.64-1.79,3.47,2.87c-.28,.32-.59,.39-1.33,.46l-2.52,7.53h1.29l1.89-2.8Zm-15.44,5.32c7.88,1.89,4.55,7.6,1.68,5.15-.07-1.68-1.01-3.71-2-4.94l.32-.21Zm9.52-6.2l1.51-4.41h-5.43c-.56,1.54-1.26,3.15-1.82,4.41h5.74Zm1.47,13.02c10.29,1.01,7.7,8.96,4.13,6.41-.91-1.85-2.38-4.41-4.38-6.09l.25-.31Zm-.21-1.5c1.09-1.65,2.62-4.62,3.39-6.2l4.17,2.94c-.17,.28-.53,.42-1.29,.25-1.37,.95-4.2,2.45-5.99,3.36l-.28-.35Z"/>
      <path class="cls-2" d="M140.92,148.85c1.22,6.48,5.29,12.92,15.09,16.87l-.07,.38c-2.14,.38-3.4,1.68-3.78,4.06-8.16-4.97-10.78-13.48-11.73-20.48-1.05,8.33-4.55,15.47-17.26,20.48l-.31-.53c9.73-5.88,12.46-12.81,13.23-20.79h-12.64l-.28-1.01h12.99c.25-3.29,.21-6.79,.21-10.43l5.88,.56c-.11,.52-.42,.88-1.26,1.01-.07,3.05-.11,6.02-.35,8.86h7.88l2.59-3.19s2.84,2.13,4.59,3.64c-.11,.38-.49,.56-1.01,.56h-13.76Z"/>
      <path class="cls-2" d="M169.79,157.29c-1.79,1.65-4.59,3.96-8.68,6.9-.1,.49-.45,.84-.84,1.01l-2.52-4.52c.8-.21,2.14-.59,3.71-1.08v-12.18h-3.36l-.28-1.02h3.64v-8.58l5.22,.46c-.07,.49-.31,.84-1.3,.98v7.14h.35l1.65-2.77s1.86,1.93,2.87,3.22c-.1,.38-.46,.56-.91,.56h-3.96v10.96c1.4-.42,2.83-.91,4.31-1.4l.1,.31Zm19.88,8.23c.91,.38,1.08,.8,1.08,1.47,0,1.37-1.19,2.03-5.36,2.03h-2.35c-2.91,0-3.33-.7-3.33-3.01v-6.44h-1.29c-.63,4.27-2.59,8.09-13.16,10.54l-.35-.49c7.49-2.8,8.82-5.95,9.17-9.28-.42,.42-1.89,1.01-3.29,1.01h-.53v-11.69l4.13,1.64h9.21l1.71-1.86,3.68,2.73c-.21,.25-.67,.53-1.3,.63v7.21c-.04,.25-1.92,.91-3.12,.91h-.63v-1.37h-.49v5.67c0,.38,.11,.53,.74,.53h3.01c.32-.04,.46-.11,.63-.42,.31-.46,.73-1.93,1.33-3.71h.38l.11,3.89Zm-21.46-17.5h12.08c.49-1.68,1.05-3.92,1.4-5.53l4.94,1.75c-.14,.38-.59,.63-1.33,.56-1.01,.84-2.45,2.14-3.85,3.22h3.82l1.96-2.56s2.21,1.75,3.57,3.01c-.11,.38-.45,.56-.95,.56h-21.35l-.28-1.01Zm.84-6.55h8.89c-.21-.1-.38-.21-.56-.35-.03-1.37-.73-2.94-1.5-3.85l.28-.21c5.88,.28,5.78,3.43,4.03,4.41h4.31l2-2.7s2.24,1.86,3.61,3.12c-.11,.38-.49,.56-.95,.56h-19.81l-.28-.98Zm3.22,1.33c8.44,.91,4.69,7.07,1.44,4.45-.04-1.5-.88-3.19-1.75-4.24l.31-.21Zm1.93,9.49v2.62h9.77v-2.62h-9.77Zm9.77,6.27v-2.62h-9.77v2.62h9.77Z"/>
      <path class="cls-2" d="M223.73,157.43s1.82,1.71,2.8,2.87c-.1,.38-.42,.56-.91,.56h-32.66l-.31-.98h3.75l-.49-20.69,3.71,1.08c1.05-1.12,2.1-2.41,2.63-3.15l3.25,3.36c-.25,.25-.63,.25-1.16,0-.98,.35-2.83,.88-4.62,1.26l.14,5.04h.84l1.36-2s1.44,1.4,2.31,2.38c.28-.21,.63-.42,.98-.6,.38-2.59,.8-6.93,.88-8.96l4.52,.56c-.07,.42-.39,.84-1.26,.95-.03,.73-.1,1.64-.21,2.62h1.89l1.54-2.17s1.71,1.54,2.7,2.59c-.07,.38-.42,.56-.88,.56h-5.36c-.14,1.47-.32,2.94-.49,4.17h2.31l1.64-1.65,3.12,2.56c-.25,.28-.67,.42-1.37,.52-.24,6.37-.8,8.89-2.21,9.94-.84,.66-1.92,.98-3.25,.98,0-.88-.07-1.68-.46-2.1-.35-.42-.98-.74-1.86-.91v-.53c.77,.07,2.03,.14,2.59,.14,.49,0,.7-.07,.94-.28,.6-.53,.98-2.77,1.16-7.67h-2.49l-1.29,1.54-3.15-2c-.17,.25-.46,.35-.8,.35h-3.68l.14,5.67h.84l1.4-2.06s1.58,1.47,2.41,2.52c-.04,.39-.35,.56-.84,.56h-3.78l.14,5.39h18.06l.14-5.39h-3.19l-.32-1.02h3.5l.14-5.67h-2.8l-.31-1.02h3.15l.1-5.6h-3.78l-.31-.98h3.78l1.64-2.1,3.82,3.12c-.25,.32-.56,.46-1.33,.56l-.42,18.1h.07l1.58-2.45Zm-30.56,12.29c4.03-2.17,7.98-5.85,9.73-8.68l5.39,2.42c-.25,.45-.81,.67-1.96,.59-2.8,2.38-7.74,4.76-12.99,6.06l-.17-.38Zm16.45-19.22c-.11,.38-.49,.73-1.26,.77-.91,2.91-2.24,5.71-3.85,7.56l-.56-.25c.7-2.42,1.23-5.88,1.37-9l4.31,.91Zm3.12,11.41c18.52,2.13,11.66,10.92,8.09,7.18-1.29-2.07-3.78-4.73-8.26-6.76l.17-.42Z"/>
      <path class="cls-2" d="M242.1,148.61c-.25,.35-.59,.49-1.37,.56-1.61,6.86-5.15,13.62-12.88,17.61l-.32-.38c5.11-4.34,7.88-11.2,9-17.82h-7.84l-.32-1.01h7.91l2.1-2.17,3.71,3.22Zm18.06-2.31c-.21,.35-.56,.56-1.4,.42-2.14,1.82-5.39,4.24-8.68,6.12,2.94,4.9,6.93,7.81,10.89,9.73l-.17,.38c-1.72,.32-3.01,1.79-3.57,3.71-5.57-4.55-9.14-10.33-10.85-21.77v20.16c0,2.97-.67,4.62-5.67,5.04-.14-1.37-.38-2.31-.98-2.97-.67-.67-1.54-1.12-3.57-1.47v-.49s4.3,.28,5.18,.28c.63,0,.84-.21,.84-.67v-27.48l5.46,.56c-.1,.49-.35,.81-1.26,.95v3.61c.7,3.82,1.82,6.93,3.22,9.56,2.24-2.8,4.58-6.48,5.74-8.72l4.83,3.04Z"/>
      <path class="cls-2" d="M272.9,144.23s2,2.03,3.01,3.36c-.07,.38-.46,.56-.91,.56h-4.09v9.91c1.5-.45,3.08-.91,4.62-1.4l.11,.39c-2.1,1.64-5.5,4.09-10.29,7-.14,.49-.49,.88-.88,1.02l-2.06-4.69c.94-.21,2.55-.63,4.48-1.16v-11.06h-3.75l-.28-1.01h4.03v-9.35l5.32,.45c-.11,.49-.35,.88-1.29,1.02v7.88h.25l1.75-2.91Zm8.19-5.53c-.07,.49-.35,.88-1.22,1.02v14.07c-.07,7.07-2.1,12.85-8.89,16.38l-.31-.32c4.13-4.2,5.25-9.56,5.25-16.1v-15.54l5.18,.49Zm1.79,.95l4.94,.49c-.04,.42-.28,.74-1.12,.88v23.42c0,.38-1.71,1.22-3.08,1.22h-.74v-26.01Zm12.36-1.05c-.1,.46-.32,.8-1.16,.95v29.16c0,.42-1.75,1.44-3.29,1.44h-.81v-32.06l5.25,.53Z"/>
      <path class="cls-2" d="M326.87,137.34s2.52,2,4.06,3.36c-.11,.38-.49,.56-1.02,.56h-6.16c-1.09,1.37-2.35,2.83-3.47,3.82h4.17l1.79-1.89,3.57,2.73c-.21,.25-.63,.53-1.26,.63v15.4c-.04,.25-1.82,.98-3.12,.98h-.66v-1.16h-6.06v.49c0,.11-.14,.25-.38,.42l4.13,2.35c-.17,.32-.56,.38-1.16,.21-2.21,2-6.65,4.03-10.47,4.87l-.28-.45c2.77-1.61,5.71-4.41,7.25-6.65-.6,.28-1.4,.49-2.21,.49h-.59v-18.24c-.21,.07-.49,.07-.84,.11-1.02,1.19-2.77,2.94-4.03,3.96l-.35-.25c.21-1.12,.56-2.94,.77-4.34h-2.14v6.72h.42l2-2.03,3.5,3.01c-.25,.35-.59,.49-1.37,.53-.53,2.17-1.22,4.31-2.21,6.3,4.24,4.06,2.17,8.23-.8,6.27-.28-.91-.7-1.86-1.26-2.8-2,2.84-4.76,5.29-8.51,7.11l-.31-.42c3.18-2.49,5.5-5.78,7.04-9.45-1.22-1.65-2.62-3.22-3.96-4.45-.21,4.73-1.12,10.15-4.9,14.14l-.46-.31c2.03-5.25,2-11.83,2-17.5v-9.63l3.99,1.5h1.37v-5.95l4.76,.42c-.07,.52-.35,.84-1.3,1.01v4.52h1.89l1.89-1.89,2.8,2.7v-1.05l3.89,1.61h.38c.07-1.02,.17-2.52,.25-3.82h-5.99l-.28-1.01h11.38l2.24-2.91Zm-23.84,15.09c0,.91,0,1.89-.07,2.87l.25-.17c1.89,.63,3.43,1.33,4.73,2.07,.52-1.58,.88-3.15,1.15-4.76h-6.06Zm1.93-7.7h-1.93v6.72h1.93v-6.72Zm13.76,1.33v4.09h6.06v-4.09h-6.06Zm0,9.42h6.06v-4.31h-6.06v4.31Zm6.06,5.32v-4.34h-6.06v4.34h6.06Zm-2.34,2c11.06,1.26,8.65,9.1,4.62,6.9-.88-2.31-3.08-4.97-4.9-6.65l.28-.25Z"/>
      <path class="cls-2" d="M360.96,140.28s2.73,2.03,4.38,3.47c-.11,.38-.49,.56-.98,.56h-16.77c-.81,1.51-1.72,2.98-2.8,4.41l1.16,.42h9.7l1.92-2.28,4.2,3.22c-.25,.35-.77,.7-1.58,.84v14.32c0,2.77-.63,4.38-5.43,4.83-.14-1.37-.32-2.31-.88-2.97-.56-.63-1.33-1.09-3.12-1.4v-.46s3.71,.21,4.48,.21c.59,0,.77-.25,.77-.7v-3.99h-11.06c-.6,3.4-2.17,6.9-6.37,9.42l-.28-.32c2.62-3.95,2.77-9.03,2.77-13.72v-3.12c-2.17,2.14-4.69,4.03-7.67,5.5l-.28-.35c4.45-3.64,7.77-8.79,9.94-13.86h-9.21l-.32-1.01h9.94c.84-2.14,1.5-4.17,1.96-6.13l5.71,1.65c-.14,.42-.46,.66-1.37,.66-.49,1.26-1.05,2.52-1.68,3.82h10.4l2.45-3.01Zm-4.94,19.46v-4.34h-10.75v.74c0,1.15-.04,2.34-.17,3.6h10.92Zm-10.75-9.63v4.27h10.75v-4.27h-10.75Z"/>
      <path class="cls-2" d="M381.61,146.86c-.07,.45-.35,.77-1.19,.91v21.32c0,.31-1.64,1.05-3.12,1.05h-.73v-10.36h-2.14c-.28,3.85-1.43,7.67-5.88,10.26l-.42-.46c2.35-3.01,2.56-6.44,2.63-9.8h-2.17l-.31-.98h8.3v-3.92h-2.77l-1.26,1.75-3.99-2.13c.32-.35,.84-.77,1.33-1.05v-6.58l4.76,.45c-.07,.46-.38,.77-1.09,.88v5.67h3.01v-7.49l5.04,.49Zm-13.41-5.22h5.36l-.49-4.24,5.15,.38c-.04,.39-.28,.77-.98,.98l.35,2.87h1.79l1.93-2.76s2.24,1.92,3.54,3.18c-.11,.39-.46,.56-.95,.56h-6.16l.31,2.49c-.56,.8-2.07,1.12-3.92,1.08l-.42-3.57h-5.21l-.28-.98Zm28.14,10.12s2.49,2.1,3.99,3.47c-.11,.38-.49,.56-.98,.56h-7.35v11.38h2.03l2.13-2.91s2.42,1.96,3.85,3.36c-.11,.39-.49,.56-.98,.56h-17.12l-.28-1.02h6.3v-11.38h-6.86l-.28-.98h7.14v-8.37l5.15,.46c-.07,.46-.28,.74-1.08,.88v7.04h2.13l2.2-3.05Zm-11.06-10.12h3.57l.63-4.24,5.11,.98c-.14,.42-.42,.8-1.37,.84l-.38,2.41h2.13l1.96-2.76s2.24,1.92,3.54,3.18c-.07,.39-.46,.56-.95,.56h-6.83l-.46,2.73c-.74,.56-2.35,.8-4.03,.49l.49-3.22h-3.15l-.28-.98Z"/>
      <path class="cls-2" d="M435.23,140.77c-.25,.32-.74,.6-1.44,.77v27.06c-.03,.32-1.96,1.33-3.5,1.33h-.63v-2.66h-20.93v1.33c0,.53-1.61,1.54-3.36,1.54h-.7v-32.1l4.41,1.82h20.23l2-2.24,3.92,3.15Zm-5.57,25.52v-25.45h-20.93v25.45h5.71l-1.79-2.7c1.08-.7,1.26-.98,1.26-1.54v-1.64c-1.47,.63-3.04,1.15-4.69,1.61l-.28-.59c2.8-1.23,5.32-2.98,7-4.87h-1.08v.14c0,.28-1.54,.95-2.87,.95h-.49v-7.74l3.5,1.4h8.3l1.54-1.58,3.22,2.38c-.17,.21-.53,.42-1.01,.52v3.75c0,.07-.14,.14-.32,.24l2.28,2.03c-.21,.28-.53,.35-1.12,.11-.74,.31-1.82,.7-2.91,1.05,5.67,2.87,3.78,6.51,1.47,5.25-1.01-1.65-3.85-4.45-7.49-6.69l.25-.49c1.75,.38,3.22,.84,4.45,1.33,.63-.7,1.33-1.5,1.92-2.17-.49,.1-.98,.21-1.4,.21h-.59v-.7h-3.57c-.8,.8-1.75,1.5-2.8,2.17v1.89h-.04v1.75c1.33-.39,2.87-.81,4.38-1.26l.11,.45c-1.26,.84-3.89,2.59-6.58,4.27-.14,.21-.32,.35-.46,.46h15.05Zm-3.4-20.3s2.03,1.54,3.26,2.62c-.11,.38-.46,.56-.95,.56h-19.11l-.28-.98h8.12v-2.56h-6.3l-.28-.98h6.58v-3.08l4.66,.42c-.04,.42-.28,.7-.98,.8v1.86h2.38l1.71-2.03s1.96,1.4,3.15,2.45c-.07,.38-.42,.56-.91,.56h-6.33v2.56h3.5l1.79-2.2Zm-2.7,6.34h-8.72v3.25h8.72v-3.25Z"/>
      <path class="cls-2" d="M443.35,160.48c1.44,4.13-.07,6.97-1.86,7.84-1.22,.63-2.76,.32-3.15-.91-.35-1.19,.39-2.13,1.44-2.62,1.4-.59,3.01-2.24,3.08-4.31h.49Zm23.17-16.45s2.49,1.85,3.96,3.15c-.11,.38-.46,.56-.98,.56h-30.8l-.32-1.01h10.82c-.35-.11-.67-.25-.98-.49-.1-1.44-.91-3.08-1.68-3.99l.28-.21c6.3,.46,5.71,4.06,3.64,4.69h6.37c.46-1.4,.95-3.29,1.26-4.73h-17.08l-.28-1.02h12.5c-.49-1.43-1.82-2.87-2.98-3.67l.25-.25c6.09-.6,6.86,2.55,5.5,3.92h6.16l2.17-2.66s2.42,1.82,3.96,3.12c-.11,.38-.49,.56-.98,.56h-7.95l4.06,1.16c-.14,.42-.56,.7-1.33,.66-1.05,.8-2.62,1.96-4.09,2.91h6.37l2.17-2.7Zm-18.87,15.3c0,.35-1.82,1.23-3.43,1.23h-.59v-12.25l4.24,1.64h12.64l1.89-2.07,3.95,2.98c-.21,.28-.7,.6-1.43,.77v7.42c-.04,.28-2.03,1.12-3.36,1.12h-.7v-1.3h-13.2v.46Zm14.77,6.27c1.12,.39,1.43,.81,1.43,1.51,0,1.64-1.57,2.21-8.37,2.21h-4.55c-3.78,0-4.62-.56-4.62-3.12v-5.74l4.9,.42c-.07,.45-.38,.73-1.08,.84v3.71c0,.46,.14,.56,1.47,.56h4.27c1.58,0,2.98,0,3.5-.04,.56-.04,.77-.14,1.02-.49,.38-.53,.88-1.75,1.54-3.57h.38l.11,3.71Zm-14.77-14.67v2.98h13.2v-2.98h-13.2Zm13.2,6.93v-2.98h-13.2v2.98h13.2Zm-8.37,1.61c8.44,.98,5.57,7.28,2.35,5-.25-1.71-1.47-3.6-2.66-4.76l.31-.25Zm11.03,.98c9.73,2.21,6.58,9.52,3.04,6.83-.21-2.31-1.79-4.94-3.36-6.58l.32-.25Z"/>
      <path class="cls-2" d="M501.8,155.08c-.25,.32-.59,.46-1.37,.21-1.61,.63-3.85,1.33-6.12,1.93,2.13,4.38,6.62,6.72,11.27,8.02l-.07,.38c-1.58,.35-2.7,1.65-3.22,3.54-4.34-2.52-7.21-5.91-8.68-11.76-.53,.14-1.05,.25-1.58,.38,1.92,4.34,1.33,8.96-.77,10.99-.98,1.02-2.73,1.33-5.21,1.33,0-1.16-.28-2-.7-2.52-.46-.49-1.5-.91-2.87-1.26v-.42c1.43,.11,3.88,.25,4.76,.25,.42,0,.77-.04,1.02-.28,.56-.59,.98-1.79,1.12-3.29-4.34,2.49-10.26,4.58-16.03,5.5l-.17-.56c6.13-1.82,12.43-5.46,15.96-9.45l-.11-.42c-3.96,2.24-9.66,4.38-14.95,5.39l-.17-.53c5.18-1.79,10.85-5.18,13.93-8.44l-.11-.21c-3.64,2-8.4,3.43-13.48,4.31l-.21-.49c4.52-1.47,8.68-3.78,11.45-6.16h-4.06v.63c0,.28-1.19,1.19-3.25,1.19h-.74v-6.44c-1.4,.8-2.83,1.5-4.34,2.1l-.28-.31c4.31-3.01,8.3-7.95,10.05-11.48l5.71,1.12c-.14,.42-.56,.67-1.68,.7-.53,.63-1.12,1.3-1.79,1.96h7l2-2.03,3.5,3.08c-.28,.31-.67,.38-1.37,.42-1.58,.91-3.67,2.03-5.67,2.76h6.48l1.82-1.96,3.92,2.87c-.25,.28-.67,.56-1.33,.7v4.87c-.04,.21-1.5,.84-2.77,1.02l3.12,2.38Zm-12.57-9.87c.91-.91,1.89-2.17,2.63-3.22h-7.77c-1.01,.95-2.17,1.89-3.36,2.76l1.19,.46h7.32Zm-1.85,5.32v-4.31h-5.95v4.31h5.95Zm3.78,.98c-.7,.6-1.5,1.16-2.38,1.72,1.19,1.12,2.1,2.34,2.8,3.64,2.1-1.4,4.38-3.15,5.81-4.45v-.91h-6.23Zm.1-5.29v4.31h6.13v-4.31h-6.13Z"/>
      <path class="cls-2" d="M37.04,214.86h-3.96v6.58h-4.16v-6.58h-10.29v-2.49l11.27-16.07h3.19v15.47h3.96v3.08Zm-8.12-3.08v-11.87l-8.37,11.87h8.37Z"/>
      <path class="cls-2" d="M48.8,193.68h2.55l-10.43,34.02h-2.63l10.5-34.02Z"/>
      <path class="cls-2" d="M81.28,208.84s2.76,2.07,4.48,3.54c-.11,.39-.49,.56-.98,.56h-13.41v10.12c0,.46-1.86,1.5-3.5,1.5h-.84v-11.62h-13.79l-.32-.98h14.11v-6.93h-11.55l-.32-.98h11.87v-12.32l5.64,.56c-.1,.49-.35,.84-1.29,.98v10.78h6.13l2.31-2.94s2.66,2,4.31,3.36c-.1,.38-.49,.56-1.01,.56h-11.73v6.93h7.39l2.52-3.12Zm-24.33-15.51c10.75,3.64,7.04,11.8,3.08,8.51-.28-2.8-1.86-6.06-3.4-8.33l.31-.18Zm25.9,1.79c-.18,.38-.63,.67-1.44,.59-2.17,2.83-4.87,5.32-7.39,7.07l-.42-.31c1.19-2.31,2.73-6.13,3.82-9.59l5.43,2.24Z"/>
      <path class="cls-2" d="M120.44,194.98c-.25,.32-.77,.59-1.47,.74v27.27c-.04,.32-1.79,1.26-3.26,1.26h-.59v-2.14h-21.77v1.01c0,.49-1.5,1.47-3.12,1.47h-.66v-32.24l4.13,1.71h21.07l1.89-2.13,3.78,3.04Zm-5.32,26.11v-26.01h-21.77v26.01h21.77Zm-20.9-1.33c2.62-1.23,5.32-3.5,6.55-5.18l4.06,2.38c-.25,.35-.84,.49-1.82,.32-1.96,1.22-5.25,2.41-8.58,2.97l-.21-.49Zm5.64-4.73c0,.31-1.5,1.09-2.91,1.09h-.53v-13.69l1.26,.52v-6.93l3.5,1.4h5.99l1.54-1.64,3.33,2.45c-.18,.24-.6,.49-1.16,.59v3.19c0,.1-.32,.25-.74,.42l3.08,2.28c-.17,.25-.59,.49-1.16,.59v9.52c-.03,.24-1.75,.94-2.87,.94h-.56v-1.26h-8.79v.53Zm1.16-12.78c0,.21-1.29,.91-2.59,1.01l1.58,.63h8.33l1.19-1.29c-.49,.14-1.02,.25-1.44,.25h-.59v-1.16h-6.48v.56Zm7.63,2.66h-8.79v2.17h8.79v-2.17Zm-8.79,5.36h8.79v-2.21h-8.79v2.21Zm8.79,3.25v-2.28h-8.79v2.28h8.79Zm-7.63-15.12v2.31h6.48v-2.31h-6.48Zm4.1,17.08c13.93,.52,7.88,6.75,5.08,4.06-.88-1.22-2.52-2.59-5.22-3.57l.14-.49Z"/>
      <path class="cls-2" d="M151.66,219.59s2.52,1.96,4.06,3.33c-.11,.39-.49,.56-1.02,.56h-31.5l-.28-1.02h14.21v-6.41h-10.78l-.25-1.01h11.03v-4.17c-.42,.28-1.47,.67-2.91,.67h-.67v-9.35h-2.84c-.35,3.61-1.82,7.63-7.74,10.19l-.28-.31c3.22-2.91,4.1-6.44,4.27-9.87h-3.75l-.28-1.02h4.1v-5.81h-3.12l-.28-.98h12.64l2.03-2.49s2.24,1.68,3.67,2.91c-.1,.38-.49,.56-.98,.56h-3.67v5.81h.04l1.96-2.7s2.13,1.79,3.4,3.08v-7.74l4.9,.46c-.07,.46-.32,.77-1.19,.91v10.96c0,.28-1.64,.91-3.01,.91h-.7v-5.21c-.14,.24-.49,.35-.88,.35h-4.52v7.67l5.25,.45c-.03,.52-.31,.88-1.26,1.01v3.71h5.29l2.17-2.8s2.45,1.92,3.92,3.26c-.1,.38-.46,.56-.94,.56h-10.43v6.41h8.09l2.24-2.87Zm-18.1-18.41v-5.81h-2.77v4.73c0,.35,0,.7-.04,1.08h2.8Zm12.36,6.65s2.91,.25,3.54,.25c.49,0,.63-.18,.63-.56v-15.19l5.04,.42c-.07,.53-.42,.81-1.19,.95v14c0,2.7-.56,4.13-4.8,4.52-.07-1.19-.21-2.07-.67-2.66-.45-.56-1.12-.98-2.55-1.26v-.46Z"/>
      <path class="cls-2" d="M164.54,205.23c0,6.06-.28,13.93-6.48,19.22l-.39-.28c2.77-5.57,2.87-12.64,2.87-18.94v-11.2l4.62,1.65h9.42l-.07-.04c-.31-1.43-1.43-3.01-2.38-3.85l.25-.21c6.37-.42,6.65,2.91,4.94,4.1h7.81l2.13-2.87s2.38,1.96,3.78,3.33c-.07,.38-.46,.56-.94,.56h-25.55v8.54Zm-2.07,18.83c3.82-1.33,8.16-3.82,10.26-5.74l4.03,3.01c-.35,.35-.95,.42-1.96,.18-2.94,1.26-7.7,2.52-12.18,3.01l-.14-.46Zm24.78-20.16s2.28,1.75,3.64,3.01c-.1,.38-.46,.56-.95,.56h-5.25l3.64,2.66c-.17,.25-.56,.49-1.12,.6v7.67c-.03,.28-2.03,1.01-3.33,1.01h-.67v-1.16h-12.5v.56c0,.35-1.71,1.19-3.25,1.19h-.56v-12.32l4.06,1.61h11.94l1.71-1.82h-19.67l-.28-.98h20.62l1.96-2.59Zm-7.98,1.96v-1.33h-5.99v.88c0,.21-1.54,.63-2.8,.63h-.74v-4.83h-3.82l-.28-.98h4.09v-3.05l4.62,.42c-.07,.39-.32,.7-1.08,.81v1.82h5.99v-3.05l4.58,.42c-.07,.39-.28,.7-1.05,.81v1.82h1.09l1.93-2.42s2.17,1.65,3.46,2.84c-.07,.38-.46,.56-.95,.56h-5.53v4.03c0,.21-1.5,.63-2.8,.63h-.74Zm-8.54,4.41v2.87h4.27v-2.87h-4.27Zm0,6.97h4.27v-3.12h-4.27v3.12Zm8.54-13.69v-2.35h-5.99v2.35h5.99Zm-1.75,15.96c19.18,.56,11.55,7.04,8.02,4.55-1.54-1.19-4.52-2.91-8.16-4.09l.14-.46Zm1.47-9.24v2.87h4.24v-2.87h-4.24Zm4.24,6.97v-3.12h-4.24v3.12h4.24Z"/>
      <path class="cls-2" d="M205.11,209.75c-1.96,1.75-5.11,4.45-9.52,7.63-.07,.49-.38,.91-.8,1.08l-2.21-4.55c.88-.28,2.31-.77,4.1-1.4v-10.15h-3.33l-.28-1.01h3.61v-9.17l5.25,.49c-.07,.49-.31,.84-1.29,.95v7.46l1.58-2.66s2.03,2.03,3.04,3.4c-.1,.38-.42,.56-.91,.56h-3.71v8.72c1.4-.52,2.87-1.12,4.34-1.68l.14,.35Zm17.22-1.08l3.57,2.98c-.28,.31-.7,.49-1.44,.59-.52,6.62-1.5,9.87-3.33,11.17-1.12,.81-2.45,1.12-4.17,1.12,0-1.09-.14-2.03-.59-2.55-.46-.56-1.37-.98-2.59-1.26v-.45c-1.89,1.68-4.2,3.12-6.93,4.31l-.28-.46c4.59-3.08,7.49-7.46,8.93-12.5h-1.08c-2.42,4.55-6.76,8.09-12.22,10.54l-.38-.49c3.92-2.56,7-6.2,8.86-10.05h-1.16c-2.34,2.66-5.57,4.79-9.38,6.37l-.32-.45c3.47-2.42,6.06-5.99,7.6-9.63h-4.45l-.28-1.01h17.22l2.17-2.77s2.45,1.89,3.96,3.22c-.1,.38-.46,.56-.98,.56h-12.99c-.49,.95-1.08,1.86-1.75,2.73h9.98l2.03-1.96Zm-12.04-4.1c0,.35-1.72,1.23-3.36,1.23h-.56v-13.65l4.1,1.61h7.28l1.89-2.03,3.82,2.94c-.21,.28-.66,.56-1.33,.7v8.54c-.04,.32-1.92,1.26-3.33,1.26h-.7v-1.4h-7.81v.8Zm0-9.84v3.47h7.81v-3.47h-7.81Zm7.81,8.02v-3.54h-7.81v3.54h7.81Zm1.5,8.86c-1.19,3.36-3.08,6.23-5.78,8.61,1.12,.11,2.87,.21,3.57,.21,.56,0,.84-.07,1.19-.28,.84-.7,1.54-3.54,2-8.54h-.98Z"/>
      <path class="cls-2" d="M256.42,191.58s2.77,2.1,4.45,3.57c-.07,.39-.49,.56-1.01,.56h-4.27v23.63c0,2.84-.84,4.87-6.23,5.22-.07-1.33-.42-2.38-1.23-2.98-.84-.63-1.92-1.12-4.48-1.5v-.46s5.67,.35,6.79,.35c.7,0,.95-.28,.95-.81v-23.45h-23.24l-.28-1.02h26.08l2.49-3.12Zm-10.61,23.31c-.03,.28-2.03,1.02-3.33,1.02h-.67v-2.91h-6.02v3.05c0,.38-1.65,1.26-3.33,1.26h-.59v-17.4l4.09,1.68h5.5l1.86-2.03,3.92,2.94c-.25,.28-.7,.59-1.44,.73v11.66Zm-3.99-2.87v-9.45h-6.02v9.45h6.02Z"/>
      <path class="cls-2" d="M272.17,202.92c-.14,.35-.46,.56-1.09,.7v19.71c-.07,.31-1.75,1.19-3.4,1.19h-.74v-18.17c-1.29,1.54-2.66,2.94-4.09,4.17l-.42-.28c2.73-4.52,5.6-11.73,7.11-18.59l5.67,1.79c-.14,.42-.52,.74-1.33,.7-1.15,2.91-2.45,5.57-3.95,7.98l2.24,.81Zm-.98,21.32c3.33-2.87,6.02-7.42,7.18-10.82l5.11,2.52c-.18,.35-.49,.56-1.33,.45-2.24,3.01-6.05,6.37-10.68,8.23l-.28-.38Zm21.42-16s2.34,2,3.75,3.36c-.1,.38-.49,.56-.98,.56h-23.31l-.28-1.01h4.76v-9.42h-3.57l-.28-1.02h3.85v-8.51l5.32,.49c-.11,.53-.35,.88-1.29,1.02v7h4.87v-8.47l5.39,.46c-.11,.53-.35,.88-1.29,1.02v7h.56l2-2.8s2.28,1.92,3.57,3.25c-.07,.39-.42,.56-.91,.56h-5.21v9.42h1.05l2.03-2.91Zm-12.04,2.91h4.87v-9.42h-4.87v9.42Zm4.55,2.98c13.51,3.43,10.78,12.64,6.27,9.8-1.12-3.29-4.06-7.07-6.58-9.56l.31-.25Z"/>
      <path class="cls-2" d="M308.01,211.4v11.48c0,.38-1.12,1.68-3.04,1.68h-.66v-10.05c-.17,.04-.42,.04-.74,0-.95,2.31-3.04,5.32-5.29,7.35l-.35-.42c1.4-2.62,2.24-6.44,2.56-9l3.82,1.54v-2.59h-6.09l-.28-1.02h6.37v-4.24h-4.87l-.28-1.01h7.53c.53-2.1,1.02-5.08,1.33-7.18l4.83,1.37c-.14,.42-.53,.73-1.3,.7-1.05,1.43-2.59,3.43-4.13,5.11h1.16l1.79-2.28s2.07,1.58,3.29,2.73c-.1,.38-.46,.56-.95,.56h-4.69v4.24h1.65l1.86-2.49s2.13,1.75,3.39,2.94c-.1,.39-.45,.56-.94,.56h-5.95Zm-9.28-13.62l-.28-.98h10.22l1.93-2.45s2.17,1.68,3.5,2.87c-.1,.38-.46,.56-.95,.56h-14.42Zm1.79,.42c7.53,2.91,3.96,8.58,1.12,5.92,.04-1.96-.74-4.2-1.51-5.74l.39-.17Zm2.38-6.65c8.19,1.02,4.48,6.9,1.33,4.38-.1-1.47-.88-3.19-1.61-4.17l.28-.21Zm5.78,21.32c8.12,3.19,4.45,9.17,1.47,6.34-.04-2.07-.95-4.48-1.86-6.16l.38-.18Zm21.21,7.35c.84,.39,.94,.81,.94,1.44,0,1.29-1.08,2.07-4.34,2.07h-1.68c-2.52,0-2.83-.74-2.83-2.87v-8.47h-.95c-.59,6.3-3.36,10.01-10.5,12.04l-.14-.49c4.62-2.45,6.27-5.53,6.72-9.87-.42,.07-.91,.14-1.47,.14h-.7v-21.42l4.24,1.65h5.18l1.93-2.28,3.67,2.91c-.28,.28-.63,.56-1.43,.67v16.91c0,.21-1.23,.95-3.12,.98v6.37c0,.38,.07,.49,.52,.49h1.72c.25-.03,.35-.1,.52-.38,.28-.53,.7-2.34,1.23-4.2h.38l.11,4.34Zm-11.13-24.82v4.59h5.78v-4.59h-5.78Zm5.78,10.22v-4.62h-5.78v4.62h5.78Zm-5.78,1.01v4.73h5.78v-4.73h-5.78Z"/>
      <path class="cls-2" d="M361,204.29s2.84,2.17,4.55,3.64c-.07,.35-.49,.53-1.02,.53h-12.95v10.99c0,2.94-.77,4.66-6.23,5.11-.17-1.4-.42-2.34-1.19-3.01-.8-.67-1.86-1.12-4.27-1.54v-.45s5.43,.35,6.44,.35c.67,0,.91-.25,.91-.74v-10.71h-13.79l-.28-.95h14.07v-6.12l3.57,.35c1.93-1.68,3.96-3.99,5.32-5.71h-19.08l-.32-.98h19.71l2.45-2.35,4.03,3.54c-.28,.35-.66,.42-1.43,.49-2.56,1.68-6.06,3.68-9.35,5.11l.63,.07c-.07,.53-.42,.81-1.19,.95v4.66h6.9l2.52-3.22Z"/>
      <path class="cls-2" d="M377.59,202.89c-.14,.31-.46,.52-1.08,.67v19.74c-.07,.35-1.75,1.19-3.36,1.19h-.77v-18.9c-1.43,1.71-2.97,3.22-4.62,4.52l-.42-.28c2.91-4.38,5.81-11.31,7.25-18.17l5.63,1.71c-.17,.46-.59,.77-1.36,.74-1.09,2.87-2.38,5.5-3.85,7.84l2.59,.95Zm13.48-.88c1.82,6.06,5.92,10.22,10.22,12.64l-.1,.49c-1.86,1.05-2.98,2.59-3.26,4.48-3.82-3.82-6.27-10.08-7.49-16.87v20.23c0,.46-1.75,1.44-3.33,1.44h-.77v-15.16c-2.21,4.13-5.36,7.67-9.38,10.47l-.42-.35c4.03-4.48,6.79-11.06,8.09-17.36h-6.79l-.28-.98h8.79v-8.82l5.39,.53c-.07,.53-.35,.88-1.29,1.02v7.28h3.75l2.31-2.98s2.59,2,4.16,3.4c-.1,.39-.46,.56-.98,.56h-8.61Z"/>
      <path class="cls-2" d="M408.98,211.36v1.26c0,.32-1.64,1.12-3.15,1.12h-.52v-11.06l3.85,1.54h.6v-3.75h-6.16l-.28-1.02h6.44v-4.45h-5.04l-.28-.98h9.24l1.86-2.38s2.13,1.61,3.4,2.8c-.11,.39-.46,.56-.95,.56h-4.48v4.45h1.61l1.86-2.34s2.1,1.61,3.36,2.8c-.07,.38-.42,.56-.91,.56h-5.92v3.75h.63l1.72-1.82,3.61,2.7c-.21,.25-.67,.53-1.3,.67v6.02c-.04,.25-1.89,.91-3.08,.91h-.63v-1.33h-5.46Zm-.77,3.29c1.47,3.99,.25,6.76-1.4,7.67-1.12,.67-2.62,.38-3.04-.8-.35-1.12,.38-2.03,1.4-2.52,1.23-.67,2.59-2.42,2.52-4.31l.53-.04Zm.77-9.42v5.15h5.46v-5.15h-5.46Zm18.97,14.74c1.22,.38,1.58,.8,1.58,1.5,0,1.79-1.72,2.1-9.03,2.1h-4.8c-4.13,0-5.08-.63-5.08-3.25v-6.51l5.25,.42c-.07,.42-.38,.77-1.12,.88v4.66c0,.45,.18,.59,1.54,.59h4.62c1.61,0,3.12,0,3.75-.04,.6-.04,.81-.14,1.08-.49,.42-.52,.98-1.75,1.72-3.67h.38l.11,3.82Zm-10.05-6.86c8.86,1.08,5.64,7.53,2.35,5.11-.28-1.71-1.47-3.71-2.62-4.87l.28-.25Zm17.29-15.96c-.17,.25-.63,.53-1.26,.63v14.04c-.07,.28-1.96,1.05-3.26,1.05h-.66v-1.75h-5.88v.77c0,.38-1.58,1.26-3.22,1.26h-.59v-18.55l3.99,1.64h.31c.14-1.3,.28-3.18,.35-4.48l5.85,.81c-.11,.59-.6,.88-1.33,.95-.84,.77-2.21,1.89-3.22,2.73h3.43l1.79-1.96,3.71,2.87Zm-11.06,.07v3.61h5.88v-3.61h-5.88Zm0,4.62v3.6h5.88v-3.6h-5.88Zm5.88,8.26v-3.68h-5.88v3.68h5.88Zm-2.1,4.24c10.15,1.82,7.14,9.45,3.4,6.83-.32-2.34-1.96-4.97-3.71-6.58l.32-.25Z"/>
    </g>
  </g>
</svg>