<?xml version="1.0" encoding="utf-8"?>
<!-- Generator: Adobe Illustrator 27.0.0, SVG Export Plug-In . SVG Version: 6.00 Build 0)  -->
<svg version="1.1" id="圖層_1" xmlns="http://www.w3.org/2000/svg" xmlns:xlink="http://www.w3.org/1999/xlink" x="0px" y="0px"
	 viewBox="0 0 633.4 161" style="enable-background:new 0 0 633.4 161;" xml:space="preserve">
<style type="text/css">
	.st0{fill:#FFF100;}
</style>
<g>
	<g id="_圖層_2">
		<g id="_圖層_1-2">
			<g>
				<g>
					<path class="st0" d="M73.3,35.2c-3.5,1.1-5.4,4-6.1,8.1c-2.4-0.4-4.7-0.8-6.8-1.3l4.5,3.3c-0.2,0.4-0.8,0.7-1.6,0.9v9.6
						c0,0.6-4.2,2.4-7.2,2.4h-1.6v-2.4H33.6v5.9c0,1.3,0.7,1.6,4,1.6h12.3c3.4,0,7,0,8.8-0.1c1.5-0.1,2.4-0.4,3.1-1
						c1.1-1,2.4-2.7,4.1-6.2h0.6l0.2,6.1c3.1,0.8,4.1,1.9,4.1,3.5c0,4.1-3.7,5.4-21.7,5.4H37.7c-9.4,0-12.9-0.9-12.9-7.4V42.2
						c-3,0.4-6.2,0.5-9.4,0.6L15.1,42c9.4-1.9,17.8-5.1,24.4-9.1c-2.5-2-4.6-4.4-6.3-7.3l0.6-0.5c2.3,2.2,5.5,4,9.3,5.4
						c3.3-2.5,6-5.3,8-8.2l9,6.1c-0.4,0.5-1.1,0.9-2.4,0.5c-1.5,1.4-3.1,2.8-5,4c6.6,1.2,13.8,1.6,20.5,1.6L73.3,35.2L73.3,35.2z
						 M41.3,21c-0.3,0.6-0.9,0.9-2.3,0.7c-5.1,4-13.4,7.4-22.1,8.8l-0.4-0.7c6.6-3.6,12.9-9.6,15.8-14.4L41.3,21L41.3,21z
						 M56.5,41.2c-4-1.1-7.7-2.5-11-4.3C40.6,39,35,40.7,28.8,41.7l5.7,2.1H54L56.5,41.2L56.5,41.2z M33.6,54.2h6v-8.8h-6V54.2z
						 M48,16.9C75.8,16.5,70.3,33.8,62.1,30c-1.9-3.2-7.1-8.6-14.3-12.4L48,16.9L48,16.9z M54.5,54.2v-8.8h-6.3v8.8H54.5z"/>
					<path class="st0" d="M134,49.1c-0.4,0.5-1.1,0.9-2.4,1.1c-0.6,12.5-1.6,18.1-4.6,20.4c-1.8,1.4-4.2,2.1-7.7,2.1
						c0-2.1-0.2-3.8-1.2-4.8c-1-1-2.9-1.9-5.4-2.4l0.1-0.7c2.3,0.2,6,0.4,7.2,0.4c1,0,1.4-0.1,1.9-0.5c0.8-0.7,1.4-3.1,1.8-7.3
						c-0.6,1.9-2.8,2.8-4.8,1c0.2-2.7-1-5.9-2.5-7.9l0.7-0.4c4.7,1.4,6.6,3.7,6.8,5.7c0.2-1.9,0.3-4.2,0.4-6.7h-15.2v0.5
						c0,0.5-2.4,2.2-6.3,2.2h-1.4V27.4c-0.4,0.5-1,0.7-1.9,0.8l-0.2,2.6l1.8-0.1v0.7l-1.9,0.7c-0.7,8.2-2.1,16.1-5.4,23.2
						c3.3,2.3,4.7,4.5,5,6.3c0.2-0.2,0.5-0.4,0.8-0.5c1.4-1.4,3.3-4.8,2.9-7.8h0.8c3,6.8,2.5,11.9,0.4,14.3c-1.6,1.8-5,1.4-6.2-1
						c-0.2-0.4-0.2-0.7-0.3-1c-1.5,1-3.7,1-5.6-0.2c-0.5-1.1-1.1-2.2-1.8-3.3c-3.2,4.4-7.5,8.1-13.2,11.1l-0.7-0.5
						c4.7-4.3,8-9.5,10.4-15.1c-2.8-3.1-6.1-6-9.2-8c0.8-2.8,1.7-6.7,2.5-10.9l-0.9,0.2c-0.4,0.8-1.2,1.3-1.9,1.4l-1.5-8.5
						c1.4,0.1,3.3,0.1,5.6,0c1.2-6.4,2.1-12.5,2.3-15.8l10.1,1.5c-0.2,0.7-0.5,1.4-2.4,1.6c-0.5,3.1-1.3,7.6-2.4,12.5l2.7-0.2
						c0.1-2.2,0.1-4.4,0-6.5l10.3,1.7v-9.4l8.6,3.2h11.8l3.8-4.6c0,0,4.2,3.1,6.8,5.3c-0.2,0.7-0.8,1-1.7,1h-10.1v7.6h0.1L124,25
						c0,0,3.9,3.1,6.1,5.3c-0.1,0.7-0.8,1-1.6,1h-8v7.3h0.1L124,34c0,0,3.9,3.1,6.1,5.3c-0.1,0.7-0.8,1-1.6,1h-8v7.1h3.2l3.8-3.6
						L134,49.1L134,49.1z M90.9,35.1c-1.1,0.4-2.2,0.8-3.5,1.2c-1.1,5-2.2,10-3.4,14.1c1.5,0.5,2.9,1.2,4.2,1.7
						C89.7,46.5,90.6,40.8,90.9,35.1L90.9,35.1z M106.7,53.4c10,7.4,3.3,15.8-0.6,10.8c0.7-3.5,0.4-7.7-0.2-10.6L106.7,53.4
						L106.7,53.4z M109.1,22v7.6h4.1V22H109.1z M113.3,31.2h-4.1v7.3h4.1V31.2z M109.1,47.3h4.1v-7.1h-4.1V47.3z M111.8,52
						c11.1,5.2,5,13.7,0.8,9.2c0.3-3-0.5-6.6-1.6-9L111.8,52L111.8,52z"/>
					<path class="st0" d="M166.9,71.5c0,0.4-2.5,1.9-6.8,1.9h-1.5v-9.7c-4,1.5-8.9,3.3-15.2,5.3c-0.4,0.8-1.1,1.3-1.8,1.4l-3.9-8.8
						c1.3-0.1,3.1-0.1,5.3-0.2V41.5h-5.8l-0.5-1.7h44.5l2.7-3.8c-1.4,0.5-4.3,1.2-6.3,1.2h-1.5V21.7h-22.5V36c0,0.8-3.9,2.6-7.4,2.6
						h-1.2V16.5l9.1,3.5h21.4l3.8-4.2l7.9,5.9c-0.4,0.5-1.1,1.1-2.4,1.3v11.7l0.7-0.9c0,0,4.9,4,7.7,6.7c-0.2,0.7-0.9,1-1.8,1h-24.8
						L166.9,71.5L166.9,71.5z M151.3,41.5v5.2h7.3v-5.2H151.3z M151.3,53.8h7.3v-5.4h-7.3V53.8z M151.3,60.8
						c2.3-0.1,4.8-0.3,7.3-0.5v-4.8h-7.3V60.8z M170.4,23.3c0,0,3,2.2,5,3.9c-0.2,0.7-0.7,1-1.6,1h-18l-0.5-1.7h12.3L170.4,23.3
						L170.4,23.3z M155.4,32.7h12.3l2.7-3.1c0,0,3,2.2,5,3.9c-0.2,0.7-0.7,1-1.6,1h-18L155.4,32.7L155.4,32.7z M192.3,48.6
						c-0.4,0.7-0.9,0.9-2.2,1.1c-1.3,4.3-3.3,8.3-6.2,11.9c3.4,1.4,7.1,2.4,10.9,3.1v0.7c-3.5,0.9-5.9,3.7-7,7.9
						c-3.8-1.8-6.9-3.7-9.5-6.2c-3.2,2.5-7.1,4.6-11.7,6.2l-0.4-0.6c3.6-2.6,6.5-5.9,8.7-9.6c-2.5-3.7-4.2-8.3-5.4-14.7h-2.1
						l-0.5-1.7h12.9l4.5-4.6L192.3,48.6L192.3,48.6z M170.6,48.4c1.6,4.1,4,7.2,6.9,9.5c1.3-3.1,2.2-6.3,2.8-9.5H170.6L170.6,48.4z"
						/>
					<path class="st0" d="M255,35.3c-0.5,0.5-1.1,0.7-2.3,0.7c-1.6,1.3-4.2,2.9-6.5,4c5,4.8-0.2,11.3-5.4,7.3
						c-0.3-3.8-2.3-8-4.5-10.8l0.5-0.3c3.3,0.5,5.8,1.4,7.6,2.5c0.2-1.3,0.2-2.8,0.4-4.2h-39.6c0.9,3.9-0.2,6.8-2.1,8
						c-1.9,1.2-4.8,0.4-5.6-2c-0.7-2.4,0.8-4.2,2.8-5.1c1.3-1.1,2.7-3.6,2-6l0.8-0.1c0.7,1.3,1.2,2.4,1.6,3.6h26.7
						c1.6-3,3.1-6.9,4-10c-9.6,0.6-21.4,0.9-31.5,0.4l-0.1-1c12.6-1.2,28.8-4.2,37.2-6.8l6.6,7c-0.7,0.5-2.1,0.5-4.1-0.3
						c-1.9,0.2-3.9,0.4-6,0.5l7.9,2.9c-0.3,0.7-1,1.1-2.4,1c-2.4,1.9-6.2,4.4-9.8,6.3h10.9l3.9-4L255,35.3L255,35.3z M245,56.3
						c-0.5,0.7-1.1,0.8-2.7,1c-1.9,2.3-4.1,4.3-6.5,6.1c5.4,0.6,11.1,0.8,16.6,0.8v0.8c-3.7,1.2-5.7,4.1-6.4,8.3
						c-7.5-0.8-14.3-2.2-20.3-4.5c-7.7,2.9-17,4.3-27.2,4.5l-0.2-0.8c8.1-1.4,15.5-3.5,21.6-6.5c-2.4-1.4-4.6-3-6.6-4.8
						c-3.8,2-7.9,3.6-12,4.4l-0.4-0.7c3.1-1.9,6.3-4.5,8.9-7.4c-1.3-1.7-2.5-3.6-3.5-5.7l0.6-0.5c1.3,1.7,2.8,3.1,4.5,4.4
						c1.9-2.3,3.6-4.6,4.6-6.7c-3-0.5-3.7-2-3.7-5.4v-8.1l8.8,0.7c-0.1,0.8-0.7,1.3-1.8,1.5V42c0,0.7,0.2,0.8,1.9,0.8h5.3
						c1.9,0,3.6,0,4.4-0.1c0.7,0,1.3-0.1,1.6-0.5c0.6-0.6,1.4-2,2.4-4h0.6l0.2,4c1.9,0.7,2.4,1.5,2.4,2.8c0,2.8-2.7,4.2-12.5,4.2
						h-7.1l8,2.2c-0.2,0.6-0.9,1-2,1c-0.4,0.5-0.8,0.9-1.3,1.4h9.5l4.8-4.1L245,56.3L245,56.3z M210.3,36.2
						c2.5,6.5,0.5,11.1-2.5,12.4c-2.1,0.9-5,0.1-5.7-2.4c-0.5-2.4,1-4,3-4.9c2-0.7,4.4-2.8,4.4-5.1H210.3L210.3,36.2z M208,23.8
						c15.2,1.5,7.7,12.6,1.8,7.6c0.1-2.7-1-5.6-2.2-7.3L208,23.8L208,23.8z M221.9,55.5c-1.3,1.2-2.8,2.3-4.5,3.4
						c2.9,1.3,6.1,2.2,9.5,3c2.5-1.9,4.5-4,6.2-6.4H221.9L221.9,55.5z M219.6,23.4c15.2,1.9,7.6,13.1,1.6,7.9
						c0.1-2.7-0.9-5.7-2.1-7.6L219.6,23.4L219.6,23.4z M222.1,34.7c15-0.4,9.1,11.2,2.9,7.1c-0.4-2.5-1.9-5.3-3.4-6.8L222.1,34.7
						L222.1,34.7z"/>
					<path class="st0" d="M327.1,63c2.2,0.9,2.7,1.9,2.7,3.6c0,3.4-2.8,5.1-13.2,5.1h-5.9c-6.8,0-8.4-1.4-8.4-7.1V46.8h-2.5
						c-1.6,13.7-8.8,22.7-27.1,26.5l-0.2-0.7c13-5.9,17.2-14.5,17.9-25.8H288v1.8c-0.1,0.6-2.6,2.7-7.2,2.7l-1.3,0.1V18.9l7.9,2.5
						c2.2-2.1,4.5-4.5,5.8-6.1l8.2,6.9c-0.9,0.7-2.2,0.7-4.1,0.1c-2.4,0.4-5.9,1-9.4,1.3v9.9h1.5l3.5-4.7c0,0,3.9,3.2,6.2,5.4
						c-0.1,0.7-0.8,1-1.6,1h-9.5v9.8h25.3v-9.8h-9.3l-0.5-1.7h9.9v-10h-10.3l-0.5-1.7h10.2l3.9-4.3l7.9,6c-0.4,0.5-1.1,1.1-2.4,1.3
						v23.6c-0.1,0.5-4.4,2.1-7.3,2.1h-1.5v-3.9h-2.5v15.6c0,0.9,0.3,1.2,1.9,1.2h4.8c1.5,0,2.9,0,3.7-0.1c0.9-0.1,1.2-0.2,1.7-0.9
						c0.8-1.2,1.9-4,3.3-7.9h0.6L327.1,63L327.1,63z"/>
					<path class="st0" d="M388.6,24.2c-0.4,0.5-1.1,1-2.4,1.3v43.8c-0.1,0.6-4,2.5-7.2,2.5h-1.4V64h-32.7v5.8c0,1-3.5,3.1-7.1,3.1
						h-1.4V18.8l9.1,3.6H377l3.9-4.4L388.6,24.2L388.6,24.2z M377.6,62.3v-9.7c-1.3,0.4-3,0.5-5.1,0.5h-2.9c-5.1,0-5.8-1.5-5.8-6.2
						V24.1h-4.7c-0.2,15.2-1.1,26.1-13.5,33.5l-0.7-0.8c6.5-8.5,6.1-19,6-32.7h-6.2v38.2H377.6L377.6,62.3z M371.3,24.1v20.6
						c0,0.7,0.2,1,0.9,1h1.3c0.4,0,0.9,0,1.3-0.1c0.3,0,1.1,0,1.4-0.1c0.4-0.1,0.9-0.1,1.3-0.2V24.1H371.3L371.3,24.1z"/>
					<path class="st0" d="M421,23.4c-0.3,0.7-1.1,1.2-2.6,1.1c-5.9,12.1-13.9,19.5-23.8,24.5l-0.5-0.5c6-6.8,12.3-17.9,15.2-29.5
						L421,23.4L421,23.4z M429.2,49.1c26.2,9.2,18.2,30.5,8.4,22.1c-0.2-2.4-0.9-4.9-1.6-7.3c-7.6,2.5-18,5.3-31,7.9
						c-0.7,0.9-1.5,1.5-2.4,1.8l-3.6-11.2c0,0,2.2-0.5,3-1.2c4.5-3.5,11.5-16.6,13.4-24.2l12.3,4.4c-0.3,0.7-1,1.2-2.4,1.3
						c-4.3,6.7-12.7,15.1-19.8,20.1c7.4-0.1,18.5-0.4,29.6-1.3c-1.6-4.3-3.9-8.6-6.5-12.1L429.2,49.1L429.2,49.1z M436.1,19.6
						c-0.9,1-3.2,1.6-6,1.8c2.9,8.5,10.5,15.5,20.6,18.5l-0.1,0.7c-3.8,1.5-6.8,5.2-7.7,8.9c-8-6.2-12.5-15.9-14.1-28.6h-7.4
						l-0.5-1.7h6.2l2.5-4.1L436.1,19.6L436.1,19.6z"/>
					<path class="st0" d="M510.3,22.4c-0.4,0.5-1.1,1-2.4,1.3v46.4c-0.1,0.6-4.1,2.7-7.4,2.7h-1.4v-5h-34.3v2.1
						c0,1.1-3.5,3.2-7.1,3.2h-1.5V17l9.3,3.7h33l4-4.5L510.3,22.4L510.3,22.4z M464.8,66.1h9.4l-3.3-5.3c2-1.3,2.3-1.8,2.3-2.8v-1.9
						c-2.4,1-5,1.9-7.7,2.5l-0.5-0.9c4.5-2.1,8.3-5.2,10.9-8.5h-0.5c-0.7,0.7-3.5,1.8-5.8,1.8h-1V37.3l7.3,2.8h12.4l3-3.1l6.2,4.5
						c-0.2,0.4-0.8,0.7-1.6,0.9v6.2c0,0.2-0.5,0.4-1.1,0.7l4.3,3.8V36.3c-0.3,0.2-0.6,0.2-1,0.2h-32.6l-0.5-1.7h13.2v-4.3H468
						l-0.5-1.7h10.6v-5.4l9.4,0.8c-0.1,0.7-0.4,1.1-1.7,1.4v3.2h2.7l3.3-3.9c0,0,3.7,2.7,6,4.7c-0.1,0.7-0.7,1-1.6,1h-10.4v4.3h4.2
						l3.4-4.2c0,0,3.3,2.4,5.7,4.4V22.4h-34.3L464.8,66.1L464.8,66.1z M499.1,66.1V53.3c-0.3,0.4-0.9,0.5-2,0.1
						c-1.1,0.4-2.7,0.8-4.4,1.3c9.7,5,5.8,12,1.3,9.4c-1.5-2.8-5.9-7.9-11.8-11.8l0.4-0.8c2.7,0.5,5.1,1.2,7,1.9
						c1-1,1.9-2.2,2.7-3.3c-0.8,0.2-1.6,0.3-2.3,0.3h-1.3v-1.2h-4.7c-1.1,1.3-2.5,2.4-4.1,3.5v5.9c2.1-0.5,4.4-1.2,6.6-1.9l0.2,0.7
						c-2.1,1.6-6.6,5-11.4,8.2c-0.2,0.2-0.4,0.4-0.6,0.6L499.1,66.1L499.1,66.1z M488.8,41.8h-13.2v5.7h13.2V41.8z"/>
					<path class="st0" d="M47,114.9c2.2,8.9,10,17.2,26.1,21.8l-0.1,0.7c-4.3,0.9-6.8,3.4-7.4,8.4c-12.5-6.5-17.3-18.4-19.2-28.4
						c-2.4,12.8-9.3,22.1-30.7,28.4l-0.4-0.9c16.1-8.2,20.7-17.8,22.1-30H17.6l-0.5-1.7h20.4c0.4-4.9,0.4-10.2,0.4-16H21l-0.5-1.7
						h17.4v-0.1h9.9v0.1h7.6l4.8-6c0,0,5.3,4,8.6,6.7c-0.2,0.7-0.9,1-1.8,1H47.9c-0.1,5.8-0.2,11.1-0.7,16h12l4.8-6.1
						c0,0,5.4,4.1,8.7,6.8c-0.2,0.7-0.9,1-1.8,1L47,114.9L47,114.9z"/>
					<path class="st0" d="M107.5,114.9c2.2,8.9,10,17.2,26.1,21.8l-0.1,0.7c-4.3,0.9-6.8,3.4-7.4,8.4c-12.5-6.5-17.3-18.4-19.2-28.4
						c-2.4,12.8-9.3,22.1-30.7,28.4l-0.4-0.9c16.2-8.2,20.7-17.8,22.1-30H78.1l-0.5-1.7H98c0.4-4.9,0.4-10.2,0.4-16H81.5L81,95.5
						h17.4v-0.1h9.9v0.1h7.6l4.8-6c0,0,5.3,4,8.6,6.7c-0.2,0.7-0.9,1-1.8,1h-19.2c-0.1,5.8-0.2,11.1-0.7,16h12l4.8-6.1
						c0,0,5.4,4.1,8.7,6.8c-0.2,0.7-0.9,1-1.8,1L107.5,114.9L107.5,114.9z"/>
					<path class="st0" d="M190.2,123.2c0,0,3.3,3.2,5,5.3c-0.2,0.7-0.7,1-1.6,1h-39.9l10.5,4.6c-0.4,0.8-1.4,1.3-3.6,1.1
						c-5.1,4.4-13.9,8.2-23.4,10.4l-0.2-0.6c6.8-4,13.1-10.5,16-15.6h-16.4l-0.5-1.7h6.3l-0.9-36.3l7.2,1.9c1.4-2,2.9-4.2,3.6-5.3
						l6.6,6.9c-0.5,0.5-1.2,0.5-2.2,0c-1.4,0.4-4.3,0.9-7.1,1.3l0.2,8.9h0.4l2.5-3.9c0,0,2.5,2.4,4.1,4.3c0.4-0.3,0.9-0.6,1.3-0.8
						c0.7-4.5,1.4-12.3,1.4-15.6l8.9,0.8c-0.1,0.8-0.7,1.5-2.2,1.7c-0.1,1.4-0.2,3.1-0.4,4.8h2.3l2.9-4.3c0,0,3.3,3,5.1,5
						c-0.1,0.7-0.7,1-1.5,1h-8.9c-0.2,2.4-0.5,4.9-0.8,6.9h2.8l3.3-3.1l5.4,4.5l-0.4-1.3h4.2l0.2-9.9h-5.6l-0.5-1.7h5.5l3.3-4.2
						l7.7,6.2c-0.5,0.6-1,0.8-2.4,1.1l-0.7,30.8L190.2,123.2L190.2,123.2z M149.8,106.9l0.2,10h0.2l2.5-4.1c0,0,2.7,2.7,4.3,4.6
						c0.3-2.5,0.5-5.1,0.5-7.6l8.4,1.8c-0.2,0.8-0.9,1.3-2.2,1.4c-0.9,2.4-1.9,4.8-3,6.9c1.2,0.1,2.8,0.1,3.6,0.1s1.1-0.1,1.6-0.4
						c1-0.9,1.7-4.6,2.1-12.8H165l-2.4,3.1l-6-3.4c-0.3,0.3-0.7,0.4-1.2,0.4L149.8,106.9L149.8,106.9z M150.3,127.8h29.2l0.2-9.2
						h-4.2l-0.5-1.7h4.7l0.2-10h-3.3c-0.4,0.4-1.1,0.7-2.3,0.9c-0.5,11.2-1.5,15.3-4.1,17.2c-1.6,1.2-3.6,1.8-6.1,1.8
						c0-1.8-0.1-3.3-0.8-4.2c-0.6-0.8-1.4-1.4-2.9-1.8c-1.1,1.9-2.4,3.6-3.8,5l-0.9-0.4c0.5-2.1,1-4.5,1.3-7.2
						c-0.3,0.3-0.7,0.4-1.3,0.4H150L150.3,127.8L150.3,127.8z M170.7,131c34.9,2.5,20.1,20.3,13,12.6c-1.9-3.6-5.6-8.5-13.2-11.9
						L170.7,131z"/>
					<path class="st0" d="M221,109.9c-2,1.9-4.7,4.3-8.2,7.3v19c0,5.7-1.1,8.6-9.7,9.4c-0.2-2.7-0.4-4.6-1.2-5.9
						c-0.8-1.2-1.8-2.1-4.5-2.7v-0.8c0,0,5,0.3,6.1,0.3c0.8,0,1-0.2,1-0.9v-12l-1.9,1.4c-0.2,0.8-0.8,1.6-1.5,1.9l-4.7-9.2
						c1.8-0.5,4.6-1.4,8.1-2.6v-10.8l4.3,0.4c1-3,2.2-7,2.9-9.8h-14.6l-0.5-1.7h14.9l4.3-4.2l7.2,6.3c-0.5,0.5-1.1,0.7-2.4,0.8
						c-2.5,2.5-6.1,6.1-9.4,8.7l3.8,0.4c-0.1,0.9-0.7,1.4-2.1,1.6v5.4c2.6-0.9,5.3-1.9,8-2.9L221,109.9L221,109.9z M215.4,145.2
						c12.3-6.1,22.4-14.8,29.7-29.5l9.8,5.3c-0.5,0.7-1.2,1-2.7,0.7c-3,4.1-6.2,7.6-9.6,10.6c17.5,3,11.7,16.9,4.1,12.1
						c-1.1-3.6-3.5-7.6-5.8-10.6c-7.3,5.9-15.5,9.7-25.1,12.2L215.4,145.2L215.4,145.2z M235,98.9c-0.9-0.2-1.7-0.5-2.5-1.2
						c-0.2-3.3-1.8-6.8-3.5-9.1l0.4-0.3c14.3,0.8,12.7,9.5,7.7,10.6h6.8l4-5.5c0,0,4.5,3.8,7.2,6.2c-0.2,0.7-0.9,1-1.7,1h-22.5
						l9.2,2.8c-0.2,0.6-0.9,1.2-2.1,1.2c-3.1,2.8-7.9,6.1-12.3,8.2c3,0.1,6.8,0.1,10.8,0c1.4-2.2,2.7-4.7,3.9-7.2l9.5,5
						c-0.4,0.7-1.1,0.9-2.6,0.7c-8.3,11.2-18.3,18.1-30.9,22.4l-0.4-0.8c7.1-4.3,13.1-9.7,18.2-16.8c-3,1-6.4,2.2-10.2,3.4
						c-0.7,1-1.4,1.6-2.2,1.8l-2.6-8.8c0,0,1.4-0.3,2.1-0.7c2.9-1.7,6.7-7.8,8-11.3h-10.3l-0.5-1.7L235,98.9L235,98.9z"/>
					<path class="st0" d="M305.3,109.7c0,0,5.6,4.2,9,7c-0.2,0.7-0.9,1-1.8,1h-21.8v17.8c0,6-1.6,9.3-12.3,10.2
						c-0.4-3-0.8-5-2.3-6.4c-1.5-1.4-3.1-2.4-7.4-3.1v-0.7c0,0,9.6,0.5,11.4,0.5c1,0,1.4-0.4,1.4-1.1v-17.2h-23.1l-0.5-1.7h23.6
						v-10.8l7.5,0.7c2.8-3,5.9-6.9,7.9-9.8h-32.2l-0.5-1.7h33.1l5-4.7l8.1,7c-0.5,0.6-1.1,0.8-2.5,0.9c-4.5,2.8-10.4,6.1-16,8.5
						l1,0.1c-0.1,0.9-0.7,1.4-2.1,1.6v8.2h9.7L305.3,109.7L305.3,109.7z"/>
					<path class="st0" d="M357.5,134.5c0,0.6-2.6,1.9-5.2,2.2h3.7c7,0,12.7-0.1,19.6-0.5v0.7c-3.5,0.8-5.4,4.1-5.9,7.4h-16.8
						c-13.5,0-18.6-2.8-23.6-9.1c-0.9-1.3-1.6-1.1-2.2,0.1c-0.9,1.9-2.1,5.1-3.3,8.4c0.1,0.6-0.2,1-0.6,1.2l-5.6-8.3
						c2.9-1.3,7-3.6,9-4.4c1.8-3.9,3.3-8.9,3.9-13.1h-2.3l-2.3,2.2l-6.2-4.2c0.6-0.5,1.6-1,2.5-1.3c1.9-2.7,4.2-6.7,5.8-9.5h-8.8
						l-0.5-1.7h9.4l3.3-3.3l6.4,5.9c-0.5,0.6-1.6,0.8-3,1c-1.5,2.5-4,6.4-5.9,9.2h1.2l3.8-3.7l5,3.9V104l7.9,3.1h2.9v-4h-12.3
						l-0.5-1.7h12.8v-5.6l10,0.9c-0.2,0.8-0.6,1.5-2.2,1.8v3h3.4l3.3-3.9c0.1-1.1,0.2-2.2,0.3-3.1h-22.2c0.2,3.4-1.3,5.9-3.3,6.7
						c-2.2,0.8-5-0.2-5.6-2.7c-0.5-2.5,1.1-4.2,3.3-5c1.7-0.7,3.6-2.5,3.3-4.5l0.8-0.1c0.7,1.4,1.1,2.8,1.3,4H364l3.9-3.9l6.8,6.3
						c-0.5,0.5-1.1,0.7-2.4,0.8c-1.2,0.9-3,2.1-4.7,3c1.3,1,2.9,2.2,4.2,3.2c-0.2,0.7-0.9,1-1.7,1h-12.5v4h2.9l3.5-3.8l7.1,5.4
						c-0.4,0.4-1.2,1-2.4,1.3v13.1c0,0.2-0.6,0.5-1.5,0.9c1.4,1,4.5,3.3,6.5,5.1c-0.1,0.7-0.8,1-1.7,1h-14.4L357.5,134.5
						L357.5,134.5z M321.3,88.8c17.4,2.1,10,15.2,3.2,9.9c-0.2-3.4-1.9-7.1-3.7-9.6L321.3,88.8L321.3,88.8z M339,119.6
						c-0.2,0-0.4,0.1-0.7,0.1c-1.6,4.3-4.9,8.9-9.1,12.6c0.2,0.1,0.5,0.2,0.9,0.4c3.8,2.7,9.7,3.8,19.7,4v-6.5H337l-0.5-1.7h13.2
						v-5.3h-3.3v1c0,0.7-3.3,2.4-6.4,2.4H339L339,119.6L339,119.6z M346.5,108.8v5.6h3.3v-5.6H346.5z M349.7,116h-3.3v5.4h3.3V116z
						 M357.5,108.8v5.6h3.5v-5.6H357.5z M357.5,121.5h3.5V116h-3.5V121.5z M365.4,124.6c-1,0.3-2.2,0.5-3.1,0.5H361v-2h-3.5v5.3h4.9
						L365.4,124.6L365.4,124.6z"/>
					<path class="st0" d="M436.3,105.9c-0.4,0.5-1.3,1-2.6,1.2c-0.4,25.2-1.1,31.9-4.5,35.2c-2.1,2.1-4.8,3-8.2,3
						c0.1-2.7-0.1-4.5-0.9-5.6c-0.8-1.2-2.1-2.1-4.2-2.7v-0.7c1.6,0.1,4,0.2,5.1,0.2c0.9,0,1.4-0.2,1.9-0.7c1.8-1.7,2.4-10,2.7-30.1
						h-4c-0.4,18.3-2.6,31.3-18.9,40.1l-0.6-0.8c3.1-3.1,5.4-6.5,7-10.2c-5.3,2.4-13.2,5.3-25.1,9.1c-0.4,0.8-1.1,1.3-1.9,1.4
						l-3.5-9.9c2.5-0.1,6.5-0.2,11.5-0.5v-4.4h-10.4l-0.5-1.7h10.9v-5.4h-2.9v0.8c0,0.5-2.3,1.7-6.1,1.7H380v-22.2l8,3h2.3v-4.2H379
						l-0.5-1.7h11.9v-4.5c-4,0.2-8.2,0.2-11.9,0.2l-0.1-0.8c8.4-1.8,19.5-5.1,25.2-7.6l7,7.3c-0.8,0.6-2.2,0.5-4.1-0.2
						c-2.5,0.3-5.4,0.5-8.6,0.8v4.8h3.2l3.8-4.8c0,0,4.4,3.2,7,5.5c-0.1,0.7-0.8,1-1.7,1h-12.3v4.2h3l3.6-4.1l6.7,5.1
						c-0.4,0.5-0.9,0.9-2.3,1.2v14.3c0,0.2-1.7,1.2-4.6,1.5c1,0.7,4.2,3.1,6.3,4.9c-0.2,0.7-0.8,1-1.7,1h-10.9v3.9
						c3.8-0.2,7.9-0.5,12-0.8c3.3-7.8,3.9-17,3.9-28.1h-4.5l-0.5-1.7h5.1c0-4.6-0.1-9.6-0.1-14.9l10.5,1c-0.2,1-0.9,1.5-2.2,1.7
						c-0.1,4.3-0.1,8.3-0.1,12.2h3.3l4.3-4.3L436.3,105.9L436.3,105.9z M387.4,108.4v5.8h2.9v-5.8H387.4z M390.3,121.8v-5.9h-2.9
						v5.9H390.3z M397.7,108.4v5.8h3.1v-5.8H397.7z M400.9,115.9h-3.1v5.9h3.1V115.9z M397.7,128.9h2.5l3.4-4.2
						c-0.4,0.1-0.9,0.1-1.3,0.1h-1.4v-1.3h-3.1L397.7,128.9L397.7,128.9z"/>
					<path class="st0" d="M457.2,124.6c15.4,2,8.2,13.4,2.1,8.4c-0.1-2.5-1-5.3-2.1-7.3v18c0,0.6-3.6,2.1-6.5,2.1h-1.5v-11.5
						c-2.9,2.9-6.4,5.4-10.3,7.6l-0.5-0.7c4.4-4.6,7.4-11.3,9.2-17.8h-6.3l-0.5-1.7h8.5v-8.5l10,0.9c-0.1,0.7-0.5,1.3-2,1.5v6.1h0.3
						l3.5-5c0,0,3.9,3.4,6.1,5.8c-0.2,0.7-0.8,1-1.6,1h-8.2L457.2,124.6L457.2,124.6z M441,113.5c7.2-3.9,12.8-9.9,16.1-16h-14
						l-0.5-1.7h19.9v-7.5l11.2,1c-0.1,0.8-0.5,1.4-2.2,1.7v4.8h9.2l4.3-5.7c0,0,4.9,3.8,7.8,6.4c-0.1,0.7-0.9,1-1.7,1h-19.6v2.1
						c21.8-0.1,20.6,14.5,12.6,12.5c-2.8-3.6-8-7.7-12.6-10.5v11.9c0,0.6-3.9,2-7.4,2h-1.5v-12c-5.3,4.8-12.5,8.3-21.1,10.8
						L441,113.5L441,113.5z M483.7,123.3c2.8,5,7.9,8.6,13.1,10.3l-0.1,0.7c-3,0.9-5.1,3.6-6.1,7.9c-4.1-3.8-6.2-8.9-7.6-15.9v17.3
						c0,0.6-3.6,2.1-6.7,2.1h-1.5v-13.6c-3.7,4-8.5,7.3-14.1,9.9l-0.5-0.7c5.4-4.6,9.3-11.2,11.5-17.8h-4.2l-0.5-1.7h7.7v-8.3
						l10.2,0.9c-0.1,0.7-0.5,1.3-1.9,1.5v5.9h1.1l3.9-5.6c0,0,4.4,3.8,6.9,6.3c-0.1,0.7-0.8,1-1.6,1L483.7,123.3L483.7,123.3z"/>
					<path class="st0" d="M549.7,114.9c0,0,4.8,3.6,7.6,6.1c-0.2,0.7-0.8,1-1.7,1h-14.5v13.6c0,5.6-1.5,9.6-11.2,10.2
						c-0.2-2.8-0.7-4.8-1.9-6.1c-1.3-1.3-2.8-2.2-6.8-2.8v-0.8c0,0,8.3,0.5,10.1,0.5c1,0,1.4-0.5,1.4-1.2V122h-13v6.9
						c-0.1,0.5-3.9,2.1-6.6,2.1h-1.3v-5.4h-2.8v6.4c0,0.9-3,2.7-6.4,2.7h-1.2V93.7l7.9,3.2h2l3.6-4l6.2,4.8
						c8.7-2.3,19.8-6.4,25.5-9.3l8.5,8.3c-0.8,0.6-2.4,0.7-4.5-0.2c-2.6,0.4-5.8,0.7-9.1,1.1v22.7h4.4L549.7,114.9L549.7,114.9z
						 M511.7,123.8V98.6h-2.8v25.3H511.7z M532.6,120.3V98.2c-3.6,0.2-7.2,0.4-10.6,0.4c-0.4,0.5-1.2,1-2.4,1.2v20.5H532.6z
						 M521.5,102.2c16.5,7.4,8,20.6,1.6,13.8c0.2-4.7-0.8-9.6-2.2-13.6L521.5,102.2L521.5,102.2z M542.2,117.8
						c1-4.1,2.3-10.8,3.1-16.6l10.9,3.8c-0.3,0.8-1.1,1.3-2.5,1.2c-3.2,4.5-7,8.9-10.8,12L542.2,117.8L542.2,117.8z"/>
					<path class="st0" d="M569.2,124.7v7.1c0,0.9-3,2.6-6.3,2.6h-1.2V92.9l7.7,3.1h2.7l3.5-3.9l7.1,5.5c-0.4,0.5-1.2,1-2.4,1.3v28.7
						c-0.1,0.6-3.6,2.5-6.3,2.5h-1.3v-5.4L569.2,124.7L569.2,124.7z M569.2,97.7v25.3h3.5V97.7C572.7,97.7,569.2,97.7,569.2,97.7z
						 M616.7,113.2c-0.4,0.7-1,0.9-2.5,1.1c-1.9,6.5-4.7,12.3-9,17.2c3.8,2.7,8.3,4.6,13,6.1l-0.1,0.7c-3.7,0.7-6.5,3.3-8,7.4
						c-4.2-2.6-7.6-5.4-10.3-9.2c-5.3,4.1-12.3,7.3-21.5,9.1l-0.4-0.7c8.2-3.1,14.5-7.6,19-13.2c-2.2-4.7-3.8-10.6-4.7-18.3
						c-1.6,12.7-6.2,23.6-20.3,31.9l-0.7-0.9c14-14,13.7-30.7,13.7-49.2h-4.8l-0.5-1.7h19.6l3.2-3.8l7.7,5.7c-0.5,0.5-1,0.8-2.3,1
						l-1.2,13.1l2.8-2.8L616.7,113.2L616.7,113.2z M593.3,95.3c-0.1,5.5-0.2,10.7-0.7,15.7h5.6l1.6-15.7H593.3L593.3,95.3z
						 M593.2,112.7c1.4,6.2,3.8,10.8,7,14.3c2.6-4.3,4.3-9.1,5.5-14.3H593.2L593.2,112.7z"/>
				</g>
			</g>
		</g>
	</g>
</g>
</svg>
