<?xml version="1.0" encoding="UTF-8"?>
<svg id="_圖層_2" data-name="圖層 2" xmlns="http://www.w3.org/2000/svg" viewBox="0 0 857.74 275.48">
  <defs>
    <style>
      .cls-1 {
        fill: #fff;
        opacity: .61;
      }

      .cls-2 {
        fill: #231815;
      }
    </style>
  </defs>
  <g id="_圖層_1-2" data-name="圖層 1">
    <rect class="cls-1" width="857.74" height="275.48" rx="30" ry="30"/>
    <g>
      <path class="cls-2" d="M35.39,57.1v1.08h-15.02v-1.08l5.18-.63c.07-2.17,.11-4.34,.11-6.51v-14.21l-4.55,.46v-1.29l8.82-2.1,.49,.39-.14,5.63v11.13c0,2.17,.04,4.34,.1,6.51l5.01,.63Z"/>
      <path class="cls-2" d="M48.8,30.42h2.56l-10.43,34.02h-2.62l10.5-34.02Z"/>
      <path class="cls-2" d="M85.23,46.56c-.28,.38-.84,.49-1.82,.56-5.6,8.33-14.42,12.74-29.44,14.11l-.17-.49c6.83-1.65,12.43-3.75,16.87-6.69-.6,.21-1.3,.18-2.1-.21-.53-1.54-1.96-3.18-3.4-4.34-2.8,1.4-5.92,2.55-9.24,3.36l-.21-.39c5.5-2.52,10.47-6.41,13.55-9.91-4.27,2.03-9.45,3.46-15.75,4.27l-.21-.46c9.56-2.8,16.87-6.83,21.39-12.74h-7.25c-1.05,.7-2.14,1.36-3.33,2.03,6.3,.25,4.87,5.71,1.5,4.41-.59-1.23-1.96-2.59-3.29-3.5-2.42,1.19-5.11,2.21-7.91,2.91l-.25-.35c5.53-2.77,10.57-7.32,12.85-10.82l6.16,1.54c-.17,.42-.67,.7-1.82,.7-.77,.7-1.61,1.4-2.55,2.1h6.23l2.31-2.17,4.17,3.54c-.32,.31-.88,.46-1.86,.52-2,2.42-4.38,4.55-7.28,6.3l4.8,1.12c-.17,.46-.67,.74-1.85,.74-.91,.84-1.93,1.65-3.01,2.49h6.41l2.31-2.21,4.2,3.57Zm-14.32-.38c-1.22,.84-2.55,1.64-3.96,2.41,5.01,.49,5.71,3.57,4.48,4.94,2.83-2.03,5.18-4.45,7.04-7.35h-7.56Z"/>
      <path class="cls-2" d="M101.37,48.1c-2.14,1.68-5.43,4.17-10.22,7.28-.1,.46-.42,.84-.8,1.02l-2.62-4.45c1.01-.28,2.7-.77,4.76-1.4v-15.54h-4.2l-.28-.98h7.84l2.17-2.87s2.41,1.96,3.88,3.29c-.1,.38-.49,.56-1.01,.56h-4.13v14.21c1.47-.49,2.98-.98,4.52-1.5l.11,.38Zm-5.29,12.78c3.78-1.61,8.05-4.73,10.05-7.21l4.2,2.7c-.17,.28-.6,.35-1.16,.14-2.73,2.1-8.23,4.13-12.85,4.83l-.25-.46Zm20.93-32.34s2.52,1.96,4.06,3.33c-.07,.38-.46,.56-.98,.56h-7.81c-1.01,1.33-2.24,2.73-3.33,3.78h4.83l1.89-2,3.75,2.87c-.17,.25-.63,.53-1.22,.63v15.4c-.04,.25-2,1.05-3.4,1.05h-.7v-1.33h-7.98v.56c0,.42-1.71,1.33-3.46,1.33h-.59v-20.23l4.24,1.71h1.37c.07-1.05,.14-2.52,.21-3.78h-7.77l-.25-1.01h14.95l2.21-2.87Zm-10.89,8.65v4.16h7.98v-4.16h-7.98Zm0,9.42h7.98v-4.24h-7.98v4.24Zm7.98,5.25v-4.27h-7.98v4.27h7.98Zm-3.36,2.28c12.04,.32,10.33,8.68,5.95,6.86-1.22-2.35-3.99-5.01-6.2-6.58l.25-.28Z"/>
      <path class="cls-2" d="M154.53,56.36c1.08,.46,1.33,.91,1.33,1.71,0,1.65-1.44,2.42-7.32,2.42h-3.61c-3.54,0-4.34-.74-4.34-3.5v-10.61h-2.56c-.95,7.88-4.83,12.71-14.88,14.98l-.18-.46c7.6-3.26,10.12-7.84,10.61-14.53h-2.49v1.16c-.04,.28-1.22,1.29-3.4,1.29h-.59V30.46l4.06,1.29c1.58-1.16,3.22-2.56,4.1-3.5l4.09,3.36c-.42,.35-1.12,.38-2.13,.07-1.54,.46-3.89,.95-6.13,1.33v5.57h2.1l1.79-2.42s2.1,1.65,3.33,2.84c-.07,.38-.46,.56-.95,.56h-6.27v5.81h16.21v-5.81h-6.09l-.32-.98h6.41v-5.81h-6.62l-.31-1.01h6.58l1.93-2.13,3.96,3.08c-.21,.28-.67,.63-1.4,.77v13.97c-.03,.28-2.06,1.05-3.46,1.05h-.66v-2.1h-2.73v9.63c0,.52,.17,.7,1.26,.7h3.12c1.09,0,2.1,0,2.56-.04,.49-.04,.67-.14,.88-.53,.38-.63,.95-2.34,1.65-4.52h.38l.11,4.73Z"/>
      <path class="cls-2" d="M186.56,56.15s2.49,1.96,3.89,3.33c-.07,.38-.42,.56-.91,.56h-31.05l-.28-.98h13.86v-3.43h-10.22l-.28-1.01h10.5v-3.43h-5.01v.6c0,.38-1.86,1.26-3.57,1.26h-.56v-12.64l4.38,1.72h13.86l1.92-2.1,4.1,3.08c-.25,.28-.74,.56-1.43,.7v7.6c-.04,.25-2.17,.98-3.5,.98h-.74v-1.19h-5.18v3.43h5.32l2.03-2.31s2.28,1.58,3.64,2.77c-.07,.38-.42,.56-.91,.56h-10.08v3.43h8.05l2.17-2.91Zm-28.25-17.33h10.89c-.35-.1-.73-.31-1.08-.63-.04-1.54-.67-3.19-1.33-4.31h-6.23l-.28-1.01h14.21c-.46-.07-.95-.25-1.4-.59-.07-1.4-.91-2.98-1.79-3.82l.25-.21c7.04,.17,5.99,4.3,3.54,4.62h7.42l2.17-2.73s2.45,1.86,3.99,3.19c-.11,.38-.49,.56-.98,.56h-8.12l4.06,.95c-.14,.42-.49,.7-1.29,.7-1.02,.98-2.45,2.24-3.85,3.29h5.71l2.21-2.87s2.49,1.93,3.96,3.33c-.1,.39-.46,.56-.95,.56h-30.84l-.25-1.02Zm8.75,4.31v3.08h5.01v-3.08h-5.01Zm5.01,7.07v-3.01h-5.01v3.01h5.01Zm-3.82-16.31c4.94,1.26,4.2,4.34,2.27,4.94h6.48c.52-1.47,1.05-3.43,1.33-4.94h-10.08Zm8.09,9.24v3.08h5.18v-3.08h-5.18Zm5.18,7.07v-3.01h-5.18v3.01h5.18Z"/>
      <path class="cls-2" d="M204.02,45.97c-.21,.31-.59,.38-1.33,.45-.74,2.42-2.28,5.08-4.34,7.25,.28,.04,.49,.14,.8,.35,2.66,2.13,7,2.55,14.95,2.55,4.2-.04,7.56-.04,11.73-.25v.45c-1.61,.32-2.59,1.82-2.8,3.36h-10.4c-7.98,0-11.03-1.19-13.93-4.83-.53-.66-.88-.56-1.19,.07-.49,1.02-1.16,2.73-1.79,4.45,.11,.31,0,.52-.25,.7l-2.83-3.92c1.3-.7,3.12-2,4.27-2.62,1.12-2.28,1.96-5.29,2.28-7.81h-1.54l-1.16,1.12-2.91-2.07c.31-.21,.77-.46,1.26-.63,.91-1.65,2.03-4.1,2.77-5.78h-4.03l-.32-1.01h4.31l1.58-1.61,3.19,2.87c-.32,.32-.95,.49-1.68,.56-.7,1.5-1.86,3.82-2.73,5.53h1.05l1.82-1.82,3.22,2.63Zm-9.38-16.94c9.03,1.54,5.57,8.26,2.14,5.64-.18-1.92-1.33-4.1-2.45-5.43l.32-.21Zm7.32,6.34l-.28-.98h7.98l1.5-2.21s1.72,1.5,2.73,2.59c.59-1.93,.98-4.1,1.19-6.23l4.66,1.16c-.14,.38-.53,.7-1.29,.74-.42,1.16-.91,2.28-1.47,3.29h3.29l1.79-2.38s2.07,1.64,3.25,2.8c-.1,.39-.45,.56-.88,.56h-8.02c-.7,1.09-1.47,2.03-2.28,2.87h5.6l1.75-1.79,3.19,2.8c-.25,.28-.67,.31-1.33,.38-1.05,.77-2.49,1.75-3.89,2.45l1.86,.17c-.07,.49-.42,.77-1.19,.88v2.87h.39l1.61-2.24s1.82,1.58,2.84,2.7c-.07,.39-.42,.56-.88,.56h-3.96v5.43c0,2.38-.46,3.6-3.99,3.92-.07-.91-.14-1.68-.53-2.17-.38-.49-.91-.81-2.06-1.02v-.52s2.28,.17,2.76,.17c.45,0,.56-.14,.56-.53v-5.29h-3.85l-.28-1.02h4.13v-4.16l1.47,.14c.53-.8,1.05-1.89,1.4-2.76h-5.32l-.32-.95c-.31,.31-.63,.59-.98,.88l-.53-.28c.46-.95,.88-2.03,1.26-3.19-.17,.25-.46,.35-.84,.35h-5.32c-.04,1.4-.07,2.8-.14,4.2h1.44l1.71-1.71,3.15,2.59c-.25,.28-.67,.49-1.37,.6-.17,8.58-.49,12.18-1.92,13.48-.77,.67-1.71,.91-2.77,.95,0-.67-.14-1.47-.46-1.86-.31-.42-.98-.84-1.82-1.05v-.52c.74,.07,1.82,.1,2.28,.1,.25,0,.39-.04,.53-.25,.59-.77,.84-3.99,1.01-11.31h-1.85c-.46,5.53-1.82,10.5-5.5,14.46l-.35-.38c2.84-5.67,2.91-12.43,2.62-19.29h-2.31Zm2.77-6.69c7.63,1.71,4.03,7.11,1.19,4.62-.11-1.54-.88-3.29-1.54-4.45l.35-.17Z"/>
      <path class="cls-2" d="M260.02,57.03c1.02,2.17,1.23,3.4,.6,3.85-1.72,1.33-4.41-.38-5.6-1.96-.98-1.19-1.82-2.52-2.52-3.96-2,2.21-4.41,4.13-7.25,5.64l-.31-.38c2.59-2.07,4.76-4.76,6.51-7.67-1.37-3.54-2.1-7.63-2.45-12.08l-2.49,.35-.39-.95,2.77-.39c-.07-1.15-.14-2.27-.17-3.46-.25,.14-.59,.17-1.16,.25-.84,.77-2.31,1.75-3.46,2.28l-.28-.18c-.14,.21-.38,.32-.7,.35l-4.48,.56v.7c0,.39,.07,.49,.77,.49h1.79c.7,0,1.36,0,1.68-.04,.21,0,.49,0,.66-.04,.21-.03,.53-.1,.74-.14h.31l.14,.04c.8,.28,1.12,.53,1.12,1.08,0,.67-.35,1.08-1.37,1.33,.45,.35,1.89,1.44,2.8,2.28-.07,.38-.42,.56-.91,.56h-12.92l-.28-.98h9.56l1.43-1.82c-.77,.14-1.82,.21-3.29,.21h-2.28c-2.45,0-2.8-.59-2.8-2.38v-.91l-2.42,.31-.38-.91,2.8-.35v-3.01l3.82,.35c-.04,.45-.39,.73-.98,.84v1.47l1.47-.17,1.12-1.79s1.54,.91,2.56,1.65c.17-.7,.35-1.61,.46-2.42h-11.34v6.12c0,5.53-.14,13.79-4.87,19.32l-.42-.25c1.86-5.88,1.82-13.06,1.82-19.04v-8.68l4.06,1.54h2.45v-6.23l5.04,.46c-.03,.46-.31,.77-1.15,.91v2.1h2.13l1.92-2.38s2.14,1.61,3.43,2.8c-.07,.39-.42,.56-.91,.56h-.63l2.94,2.84c-.11-2.34-.14-4.76-.14-7.25l5.18,.56c-.03,.46-.35,.88-1.26,1.02-.07,3.01-.07,6.02,.11,8.89l2.27-.32,1.72-2.83s2.55,1.4,4.16,2.41c-.04,.39-.38,.63-.84,.7l-7.25,1.05c.17,2.8,.56,5.46,1.19,7.84,.98-2.34,1.71-4.72,2.21-6.96l4.8,1.57c-.14,.42-.46,.67-1.37,.63-.98,2.76-2.42,5.74-4.34,8.54,.63,1.4,1.44,2.62,2.38,3.67,.42,.56,.63,.56,.98-.07,.49-.91,1.33-2.7,1.93-4.24l.35,.11-.77,5.99Zm-12.6-.91c-2.84,1.16-6.86,2.59-12.64,4.31-.17,.45-.49,.74-.88,.84l-1.68-3.85c1.05-.07,2.55-.21,4.41-.42-.25-.1-.53-.28-.77-.52,.14-1.05-.17-2.35-.59-3.19-.28,.04-.56,.07-.88,.07h-.56v-7.21l3.36,1.37h5.36l1.44-1.65,3.01,2.21c-.21,.28-.53,.46-1.26,.59v3.47c0,.14-1.01,.7-2.55,.7h-.53v-.91h-5.81v.66c0,.11-.25,.32-.7,.49,3.22,1.16,3.08,3.01,2.03,3.75l2.49-.31c.17-1.16,.28-2.66,.35-3.78l4.24,.91c-.1,.39-.49,.74-1.26,.74-.46,.63-1.12,1.33-1.86,1.96,1.72-.25,3.5-.49,5.25-.7l.04,.49Zm-10.57-7.63v2.42h5.81v-2.42h-5.81Zm7.14-13.83l1.71-1.79h-5.88v1.79h4.17Zm9.73-4.52c8.47,1.26,5.29,7.63,2.1,5.15-.14-1.75-1.26-3.71-2.42-4.9l.32-.25Z"/>
      <path class="cls-2" d="M275.04,32.98s2,1.58,3.22,2.73c-.07,.39-.46,.56-.94,.56h-14.14l-.28-1.02h10.4l1.75-2.28Zm7.63,.77c0,2.87-.63,7.6-6.51,10.33,.21,.21,.46,.42,.67,.63-.11,.38-.46,.56-.95,.56h-11.27l-.28-1.02h7.7l1.68-2.13s.98,.77,1.96,1.58c2.94-3.05,3.33-6.86,3.33-9.94v-4.34l4.31,1.58h2.98l1.85-2,3.4,2.8c-.21,.25-.63,.42-1.26,.52v5.78c0,.35,.1,.49,.56,.49h1.82c.21,0,.56-.04,.74-.04,.21-.04,.56-.11,.8-.14h.32l.14,.04c.84,.42,1.16,.77,1.16,1.47,0,1.4-1.19,2.17-4.55,2.17h-1.68c-2.62,0-2.94-.74-2.94-3.01v-7.11h-3.96v1.79Zm-10.64,5.99l1.68-2.21s1.89,1.54,3.08,2.66c-.11,.39-.45,.56-.95,.56h-11.2l-.28-1.02h7.67Zm.28,19.81v-1.89h-3.96v2.1c0,.35-1.54,1.16-3.05,1.16h-.53v-13.58l3.71,1.51h3.5l1.68-1.79,3.57,2.66c-.21,.25-.67,.52-1.33,.67v8.12c-.04,.28-1.79,1.05-3.01,1.05h-.59Zm-5.67-30.59c9.24,.46,5.92,7.46,2.21,5.01-.25-1.75-1.4-3.64-2.45-4.8l.25-.21Zm5.67,27.72v-6.86h-3.96v6.86h3.96Zm21.46-10.92c-.25,.35-.63,.45-1.47,.53-1.23,2.98-2.91,5.57-5.15,7.81,2.55,1.44,5.57,2.38,8.75,3.01l-.04,.38c-1.61,.35-2.8,1.58-3.33,3.47-3.15-1.19-5.81-2.63-7.95-4.69-2.98,2.24-6.83,3.88-11.55,4.97l-.21-.45c4.09-1.61,7.45-3.78,10.01-6.51-1.68-2.24-2.94-5.04-3.75-8.65h-1.68l-.32-1.01h10.78l2.24-2.14,3.64,3.29Zm-14.04-.14c1.05,2.83,2.66,5.01,4.76,6.69,1.54-2.03,2.7-4.24,3.5-6.69h-8.26Z"/>
      <path class="cls-2" d="M312.03,42.67c-.21,.28-.67,.49-1.4,.6-.28,11.27-.91,14.95-2.52,16.49-1.05,.98-2.38,1.4-3.92,1.4,0-1.08-.07-1.89-.45-2.38-.38-.52-1.05-.91-2.07-1.12l.04-.52c.8,.07,2.13,.17,2.73,.17,.49,0,.8-.11,1.05-.38,.95-.88,1.4-4.83,1.65-14.18h-2.35c-.63,6.79-2.34,13.44-6.65,18.45l-.38-.32c3.18-7.21,3.75-16.45,3.46-24.64h-3.05l-.28-1.02h9.07l1.89-2.73s2.17,1.89,3.36,3.18c-.07,.39-.38,.56-.88,.56h-6.16c-.03,1.82-.14,3.64-.28,5.5h1.89l1.89-1.92,3.36,2.87Zm-10.57-14.14c8.51,1.96,5.01,8.3,1.82,5.64-.07-1.92-1.12-4.06-2.17-5.43l.35-.21Zm25.48,3.05s2.56,2.03,4.06,3.43c-.1,.39-.49,.56-1.01,.56h-14.21c-1.4,2.17-3.01,3.99-4.8,5.39l-.46-.32c1.54-3.04,2.94-7.7,3.57-12.18l5.46,1.47c-.14,.42-.56,.74-1.37,.74-.52,1.4-1.12,2.7-1.82,3.88h8.4l2.17-2.97Zm2.38,24.75c1.15,.42,1.47,.88,1.47,1.54,0,1.68-1.58,2.35-8.51,2.35h-4.41c-3.78,0-4.87-.67-4.87-3.5v-10.01l-1.43,.56-.7-.81,2.13-.8v-6.13l4.76,.49c-.07,.46-.38,.81-1.19,.91v3.33l2.63-1.05v-6.55l4.69,.42c-.07,.49-.35,.84-1.26,.95v3.82l2.91-1.08,1.79-1.86,3.22,3.33c-.28,.32-.67,.39-1.37,.46-.95,3.19-2.62,7.7-4.58,10.68l-.39-.21c.63-3.39,1.12-8.05,1.3-11.34l-2.87,1.12v11.55c0,.28-1.47,.98-2.8,.98h-.63v-11.17l-2.63,1.05v10.43c0,.77,.32,.98,1.79,.98h4.24c1.64,0,3.01,0,3.6-.07,.49-.04,.81-.14,1.05-.45,.38-.56,.95-2.1,1.54-4.06h.38l.14,4.17Z"/>
      <path class="cls-2" d="M36.23,108.89v3.71H19.43v-2.73c2.03-2.21,4.06-4.34,5.78-6.09,3.95-4.13,5.53-6.69,5.53-10.12,0-3.22-1.68-5.32-4.52-5.32-.53,0-1.08,.07-1.65,.21l-.84,3.22c-.38,2.07-1.33,2.66-2.34,2.66-.95,0-1.68-.53-2.07-1.33,.42-3.92,4.1-6.02,8.4-6.02,5.29,0,7.7,2.8,7.7,6.76,0,3.46-2.52,6.41-8.82,11.27-1.12,.88-2.76,2.31-4.48,3.78h14.11Z"/>
      <path class="cls-2" d="M48.8,84.84h2.56l-10.43,34.02h-2.62l10.5-34.02Z"/>
      <path class="cls-2" d="M65.14,83.09l3.71,2.91c-.28,.31-.67,.56-1.47,.7v19.25c0,.21-1.33,1.05-3.29,1.05h-.67v-1.54h-4.9v1.29c0,.07-.11,.21-.28,.32l3.92,1.96c-.17,.35-.49,.56-1.33,.46-1.71,2.28-4.55,4.73-7.81,6.2l-.31-.38c1.96-2.07,3.54-5.22,4.38-7.7-.46,.14-1.05,.21-1.68,.21h-.67v-24.08l4.2,1.65h4.31l1.89-2.28Zm-6.62,3.25v5.32h4.9v-5.32h-4.9Zm0,11.69h4.9v-5.39h-4.9v5.39Zm4.9,6.41v-5.39h-4.9v5.39h4.9Zm-1.5,2.63c9.66,2.49,5.88,9.8,2.27,6.79-.17-2.31-1.36-4.9-2.59-6.62l.32-.17Zm16.49-14.56v7.53h1.71l1.89-2.13,3.54,2.73c-.21,.32-.56,.56-1.33,.67v12.88c0,.17-1.29,.91-3.25,.91h-.7v-2.56h-7.21v1.89c0,.28-1.16,.95-3.12,.95h-.67v-16.91l4.17,1.58h.91v-16.87l5.36,.45c-.1,.49-.35,.84-1.3,.98v6.93h2l2.03-3.04s2.42,2.13,3.75,3.46c-.1,.38-.45,.56-.98,.56h-6.79Zm-5.36,8.51v10.5h7.21v-10.5h-7.21Z"/>
      <path class="cls-2" d="M92.61,93.42c2.62,6.37,1.61,10.78-.04,13.13-1.12,1.71-3.12,1.92-4.2,.84-.81-1.01-.56-2.28,.31-3.25,1.79-1.65,3.54-5.99,3.47-10.68l.45-.03Zm9.35-3.68c-.04,.46-.35,.84-1.22,.95v18.13c0,.88,.42,1.16,2,1.16h4.27c1.58,0,2.87-.04,3.5-.07,.59-.07,.91-.21,1.19-.63,.46-.74,1.12-2.8,1.89-5.46h.38l.14,5.71c1.26,.49,1.58,.98,1.58,1.79,0,1.96-1.75,2.84-9.07,2.84h-4.48c-4.17,0-5.53-.74-5.53-4.1v-20.83l5.36,.53Zm4.73,3.43c-.67-3.26-2.83-7.04-4.94-9.59l.32-.21c12.22,4.06,8.89,13.06,4.62,9.8Zm10.01,13.86c-.21-3.4-1.16-8.79-3.96-12.57l.32-.28c12.71,7.67,6.96,17.22,3.64,12.85Z"/>
      <path class="cls-2" d="M135.04,87.4s2,1.58,3.22,2.73c-.07,.39-.46,.56-.94,.56h-14.14l-.28-1.02h10.4l1.75-2.28Zm7.63,.77c0,2.87-.63,7.6-6.51,10.33,.21,.21,.46,.42,.67,.63-.11,.38-.46,.56-.95,.56h-11.27l-.28-1.02h7.7l1.68-2.13s.98,.77,1.96,1.58c2.94-3.05,3.33-6.86,3.33-9.94v-4.34l4.31,1.58h2.98l1.85-2,3.4,2.8c-.21,.25-.63,.42-1.26,.52v5.78c0,.35,.1,.49,.56,.49h1.82c.21,0,.56-.04,.74-.04,.21-.04,.56-.11,.8-.14h.32l.14,.04c.84,.42,1.16,.77,1.16,1.47,0,1.4-1.19,2.17-4.55,2.17h-1.68c-2.62,0-2.94-.74-2.94-3.01v-7.11h-3.96v1.79Zm-10.64,5.99l1.68-2.21s1.89,1.54,3.08,2.66c-.11,.39-.45,.56-.95,.56h-11.2l-.28-1.02h7.67Zm.28,19.81v-1.89h-3.96v2.1c0,.35-1.54,1.16-3.05,1.16h-.53v-13.58l3.71,1.51h3.5l1.68-1.79,3.57,2.66c-.21,.25-.67,.52-1.33,.67v8.12c-.04,.28-1.79,1.05-3.01,1.05h-.59Zm-5.67-30.59c9.24,.46,5.92,7.46,2.21,5.01-.25-1.75-1.4-3.64-2.45-4.79l.25-.21Zm5.67,27.72v-6.86h-3.96v6.86h3.96Zm21.46-10.92c-.25,.35-.63,.46-1.47,.53-1.23,2.98-2.91,5.57-5.15,7.81,2.55,1.44,5.57,2.38,8.75,3.01l-.04,.38c-1.61,.35-2.8,1.58-3.33,3.47-3.15-1.19-5.81-2.63-7.95-4.69-2.98,2.24-6.83,3.88-11.55,4.97l-.21-.46c4.09-1.61,7.45-3.78,10.01-6.51-1.68-2.24-2.94-5.04-3.75-8.65h-1.68l-.32-1.01h10.78l2.24-2.14,3.64,3.29Zm-14.04-.14c1.05,2.83,2.66,5.01,4.76,6.69,1.54-2.03,2.7-4.24,3.5-6.69h-8.26Z"/>
      <path class="cls-2" d="M186.91,110.47s2.52,1.85,4.13,3.18c-.11,.39-.49,.56-.98,.56h-31.54l-.32-1.02h5.95v-17.29l4.41,1.68h2.98c.07-.8,.14-1.75,.21-2.7h-13.13l-.28-.98h13.51c.07-.98,.14-1.92,.17-2.73l5.71,.7c-.1,.6-.56,.91-1.37,1.02l-.42,1.01h8.16l1.16-1.4c-.25,.04-.49,.07-.7,.07h-.7v-1.54h-18.52v.84c0,.35-1.79,1.19-3.36,1.19h-.56v-9.7l4.24,1.65h17.85l1.85-1.96,3.85,2.91c-.17,.25-.67,.56-1.37,.7v4.9c0,.07-.25,.25-.63,.38,.88,.63,2.13,1.58,3.08,2.38-.1,.38-.45,.56-.95,.56h-13.79c-.42,.91-.84,1.89-1.19,2.7h5.78l1.79-2.31,4.38,3.01c-.25,.38-.67,.59-1.58,.74v14.04l2.17-2.59Zm-21.56-20.44h3.64v-3.99h-3.64v3.99Zm2.87,8.58v2.98h12.25v-2.98h-12.25Zm12.25,3.96h-12.25v2.8h12.25v-2.8Zm-12.25,3.82v2.76h12.25v-2.76h-12.25Zm0,6.83h12.25v-3.04h-12.25v3.04Zm4.38-27.16v3.99h3.82v-3.99h-3.82Zm11.27,3.99v-3.99h-3.82v3.99h3.82Z"/>
      <path class="cls-2" d="M196.14,105.67c1.37,3.61,1.16,6.34,.14,7.74-.74,.95-2.56,.98-3.19-.21-.53-1.05,0-2.1,.91-2.76,.8-.88,1.86-3.01,1.61-4.76h.52Zm-3.01-4.55s.84-.14,1.19-.42c1.54-1.19,3.43-3.61,5.01-6.02-1.08,.42-2.28,.91-3.57,1.4-.25,.38-.56,.67-.91,.8l-1.68-4.06s.7-.21,1.01-.42c1.61-1.75,3.68-6.76,4.27-9.42l4.66,2.24c-.14,.35-.52,.56-1.19,.53-1.44,2.24-3.99,5.22-6.23,7.18,1.33,.04,2.98,.04,4.69,0,.7-1.26,1.23-2.42,1.61-3.36l4.13,2.8c-.17,.28-.67,.53-1.33,.39-1.89,2.52-5.43,6.06-8.65,8.4,1.61-.07,3.71-.21,5.92-.38-.28-1.16-.63-2.24-1.02-3.12l.39-.17c6.69,3.54,3.36,8.65,.95,6.12,.03-.53-.04-1.08-.11-1.68-1.82,.73-4.24,1.71-6.83,2.66-.28,.35-.59,.59-.94,.7l-1.37-4.17Zm5.6,4.1c5.74,4.48,1.96,9.45-.28,6.62,.38-2.13,.21-4.69-.17-6.51l.46-.1Zm3.19-.53c6.58,2.49,3.46,7.46,1.05,5.15,0-1.68-.67-3.67-1.44-4.97l.39-.18Zm21.63-1.19c-.21,.38-.59,.45-1.4,.52-.98,2.07-2.28,3.85-3.88,5.39,2.27,1.16,4.9,1.93,7.63,2.41v.39c-1.47,.38-2.42,1.54-2.84,3.25-2.83-1.01-5.22-2.31-7.14-4.1-2.94,2.07-6.69,3.54-11.31,4.38l-.18-.49c4.06-1.37,7.35-3.33,9.8-5.81-1.05-1.37-1.93-2.94-2.59-4.87-1.75,4.52-4.73,8.3-9.8,10.99l-.25-.35c4.73-4.17,6.86-9.42,7.7-15.33h-4.62l-.28-.98h5.01c.14-1.12,.25-2.28,.28-3.43h-4.17l-.28-.98h11.48c.63-2.03,1.51-5.18,2.21-7.91l4.73,1.65c-.18,.42-.63,.73-1.37,.7-1.44,1.85-3.08,3.96-4.62,5.57h.84l1.96-2.49s2.2,1.71,3.54,2.91c-.07,.38-.42,.56-.95,.56h-9.42c-.1,1.16-.28,2.31-.46,3.43h7.18l2-2.66s2.28,1.82,3.64,3.08c-.1,.39-.49,.56-.98,.56h-12.04c-.17,.88-.38,1.71-.63,2.55h5.71l2.1-1.96,3.4,3.01Zm.21-17.15c-.38,.35-1.16,.35-2.21-.1-4.34,.63-11.17,1.09-16.98,.91l-.11-.56c5.43-.77,12.22-2.49,15.72-3.95l3.57,3.71Zm-17.36,1.54c7.67,2.45,4.62,7.98,1.82,5.64-.21-1.82-1.26-3.99-2.21-5.43l.39-.21Zm5.57-.56c7.39,2.87,3.85,8.23,1.16,5.64-.04-1.86-.84-3.99-1.54-5.5l.39-.14Zm3.67,20.51c1.02-1.33,1.86-2.8,2.45-4.38l-6.06,.04c.88,1.75,2.14,3.18,3.61,4.34Z"/>
      <path class="cls-2" d="M257.61,91.04s2.21,1.75,3.54,2.94c-.07,.38-.46,.56-.94,.56h-2.38v16.28c0,2.62-.59,4.48-4.9,4.83-.04-1.22-.21-2.17-.66-2.76-.53-.56-1.22-1.02-2.91-1.26v-.49s3.26,.21,3.99,.21c.56,0,.7-.21,.7-.63v-16.17h-2.41c-.21,.07-.38,.14-.63,.17v7.91c-.04,.24-1.54,.84-2.49,.84h-.49v-.91h-2.1v3.29h1.26l1.68-2.21s1.96,1.54,3.15,2.66c-.07,.38-.42,.56-.91,.56h-5.18v2.31c1.93-.21,3.96-.42,6.02-.67l.07,.46c-2.66,1.19-6.55,2.66-12.25,4.62-.25,.42-.59,.73-.95,.8l-2.17-4.38c1.3-.07,3.36-.25,5.85-.49v-2.66h-4.8l-.28-1.02h5.08v-3.29h-2v.56c0,.28-1.26,.95-2.52,.95h-.46v-10.68c-.14,0-.28,0-.45-.04-.8,1.16-1.79,2.45-2.91,3.75l1.96,.74c-.14,.32-.45,.53-1.12,.63v16.17c-.04,.28-1.58,1.05-3.04,1.05h-.7v-15.54c-1.12,1.05-2.31,2.06-3.61,2.97l-.35-.38c2.73-3.61,5.25-9.07,6.41-12.57l3.82,2.21v-.38l3.15,1.33h1.82v-2.31h-5.71l-.28-.98h5.99v-2.52c-1.86,.21-3.78,.38-5.57,.46l-.11-.49c3.75-1.08,8.44-3.15,10.78-4.62l3.96,3.4c-.42,.35-1.12,.42-2.13,.07-.98,.25-2.17,.49-3.5,.74v2.98h1.79l1.89-2.38s2.13,1.65,3.5,2.84c-.07,.35-.46,.52-.94,.52h-6.23v2.31h1.82l1.4-1.54,2.35,1.79h4.24l1.89-2.52Zm-19.64-5.81c-.17,.35-.49,.56-1.33,.46-1.93,2.28-5.15,5.29-8.44,7.25l-.35-.35c2.21-2.76,4.38-7.07,5.36-9.73l4.76,2.38Zm2.52,9.1v3.12h2v-3.12h-2Zm2,7.25v-3.15h-2v3.15h2Zm3.43-7.25v3.12h2.1v-3.12h-2.1Zm2.1,7.25v-3.15h-2.1v3.15h2.1Zm3.12-14.98h3.92l1.96-2.52s2.21,1.75,3.54,2.98c-.1,.38-.46,.56-.95,.56h-8.19l-.28-1.02Z"/>
      <path class="cls-2" d="M270.27,96.01c1.68-1.89,3.78-2.7,5.95-2.7,4.24,0,7.56,3.61,7.56,9.8s-3.68,10.05-8.3,10.05c-1.82,0-3.61-.63-5.15-2.42v2.42c0,2.1,.03,4.62,.07,7.14l3.01,.35v1.05h-10.33v-1.05l2.66-.32c.04-2.52,.07-5.04,.07-7.17v-11.27c0-2.28-.04-3.57-.11-5.25l-2.83-.28v-.88l6.65-2.13,.49,.35,.25,2.31Zm.14,13.62c1.08,.98,2.17,1.3,3.5,1.3,2.87,0,4.94-2,4.94-7.7s-1.79-7.74-4.69-7.74c-1.12,0-2.28,.28-3.75,1.61v12.53Z"/>
      <path class="cls-2" d="M307.48,111.55v1.05l-6.72,.38-.25-3.5c-1.68,2.13-4.03,3.68-6.62,3.68-3.36,0-5.46-1.86-5.39-7.11l.14-10.15-2.62-.49v-.98l6.93-.91,.38,.38-.21,5.6v6.79c0,3.08,1.08,4.1,3.01,4.1,1.58,0,3.05-.77,4.34-2.07l.07-12.46-2.49-.46v-.91l6.76-.98,.38,.38-.11,5.6v11.8l2.38,.25Z"/>
      <path class="cls-2" d="M316.37,100.63h-6.55l-.28-1.01h6.83v-2.8h-5.25l-.28-.98h3.71c-.11-.07-.25-.14-.35-.25-.04-1.33-.7-2.8-1.43-3.68l.31-.21c5.01,.56,5.04,3.19,3.68,4.13h2.59c.42-1.29,.88-2.98,1.08-4.24l4.55,1.12c-.14,.42-.56,.7-1.3,.7-.81,.73-1.96,1.64-3.15,2.41h1.89l1.64-1.79s1.86,1.22,3.08,2.21c-.07,.38-.42,.56-.91,.56h-6.2v2.8h2.84l1.68-1.79s1.61,1.08,2.8,2c.74-1.4,1.23-2.87,1.54-4.45-.91-1.12-1.96-2.21-3.12-3.29l.35-.42c1.19,.42,2.28,.88,3.15,1.3,.17-1.3,.25-2.63,.28-4.03h-3.15l-.32-.98h3.5c.04-1.65,.04-3.29,.04-5.04l4.87,.42c-.11,.49-.42,.84-1.19,.94-.04,1.26-.07,2.45-.14,3.68h1.96l1.75-1.86,3.4,2.7c-.17,.25-.7,.46-1.33,.53-.17,3.89,.25,9.38,1.58,10.89,.25,.25,.38,.21,.52-.14,.35-.84,.74-1.89,1.05-2.91l.35,.07-.35,4.17c.7,1.16,.94,2.07,.46,2.7-.98,1.19-2.73,.53-3.78-.53-2.73-2.66-3.26-8.65-3.29-14.63h-2.34c-.14,2-.39,3.92-.91,5.67,5.81,4.1,2.7,7.98,.1,5.99-.28-.7-.8-1.61-1.47-2.63-1.08,1.89-2.62,3.64-4.94,5.11l-.38-.49c.52-.63,.98-1.3,1.4-1.96h-6.9v5.01c0,.17-1.16,.77-3.01,.77h-.66v-5.78Zm0-10.12v-2.8h-5.11l-.28-.98h5.39v-4.03l4.72,.42c-.07,.42-.31,.7-.98,.8v2.8h.95l1.68-1.85s1.93,1.26,3.19,2.28c-.11,.38-.46,.56-.95,.56h-4.87v2.8h2.07l1.75-1.89s1.96,1.29,3.29,2.35c-.07,.38-.46,.56-.95,.56h-16.28l-.28-1.01h6.65Zm22.23,20.16s2.52,1.85,4.03,3.15c-.07,.38-.49,.56-.98,.56h-31.36l-.28-.98h13.9v-5h-10.33l-.28-.98h10.61v-4.27l5.46,.46c-.07,.49-.35,.84-1.26,.98v2.84h5.22l2.21-2.84s2.49,1.92,3.99,3.25c-.1,.39-.49,.56-.98,.56h-10.43v5h8.3l2.21-2.73Z"/>
      <path class="cls-2" d="M24.26,145.91c-.28,1.65-1.16,2.28-2.35,2.28-.8,0-1.5-.42-1.85-1.16,.35-3.85,3.75-5.53,7.67-5.53,5.11,0,7.77,2.52,7.77,6.13,0,2.94-1.82,5.25-6.09,6.23,4.94,.77,6.86,3.19,6.86,6.51,0,4.24-3.54,7.21-9.14,7.21-4.73,0-7.56-2-8.02-5.85,.38-.98,1.19-1.4,2-1.4,1.29,0,2,.67,2.34,2.73l.63,3.01c.56,.14,1.12,.21,1.71,.21,3.75,0,5.71-2.03,5.71-5.81s-1.96-5.78-5.71-5.78h-1.54v-1.4h1.29c3.25,0,5.39-1.85,5.39-5.57,0-3.22-1.61-4.97-4.45-4.97-.49,0-.98,.07-1.51,.18l-.73,2.97Z"/>
      <path class="cls-2" d="M48.8,139.26h2.56l-10.43,34.02h-2.62l10.5-34.02Z"/>
      <path class="cls-2" d="M63.01,163.87c1.22-2.66,1.71-5.74,1.89-8.89-.21,.21-.52,.25-1.16,.31-.77,2.45-2.34,5.15-4.55,7.28,.17,.07,.35,.17,.56,.31,2.8,2.24,6.97,2.77,14.63,2.73,4.1,0,7.53-.04,11.59-.25v.42c-1.64,.35-2.59,1.82-2.8,3.43h-10.15c-7.6,0-10.71-1.4-13.72-5.08-.49-.63-.91-.56-1.19,.07-.6,1.05-1.61,2.94-2.35,4.76,.07,.28-.07,.53-.32,.67l-2.8-3.96c1.68-.84,4.06-2.52,5.25-3.04,1.09-2.21,1.92-5.11,2.24-7.6h-1.79l-1.26,1.12-3.08-2.24c.35-.24,.88-.52,1.4-.7,1.12-1.61,2.66-3.96,3.61-5.67h-5.39l-.32-1.02h5.81l1.65-1.71,3.4,3.08c-.32,.32-.98,.49-1.79,.56-.91,1.5-2.42,3.85-3.61,5.57h1.15l1.86-1.86,3.15,2.56c.11-2.14,.11-4.27,.11-6.34v-10.36l4.17,1.54h10.01l1.68-1.96,3.75,2.87c-.25,.28-.77,.6-1.47,.74v19.53c0,2.35-.56,3.68-4.69,4.03-.11-.98-.28-1.79-.74-2.24-.53-.49-1.23-.88-2.8-1.12v-.49s3.15,.25,3.89,.25c.59,0,.74-.25,.74-.7v-10.43c-.14,.1-.35,.14-.56,.14h-10.22l-.17-.63c-.07,4.8-.6,10.57-5.18,14.6l-.42-.28Zm-7.7-26.04c9.38,1.75,5.95,8.65,2.41,5.88-.25-1.96-1.47-4.2-2.73-5.67l.31-.21Zm13.3,2.77v4.06h3.46v-3.61l4.1,.42c-.07,.38-.32,.67-1.01,.8v2.38h1.01l1.29-1.68s1.19,.98,2.1,1.86v-4.24h-10.96Zm3.46,8.61v-3.57h-3.29l-.17-.63v4.2h3.46Zm3.4,11.27v-1.05h-3.43v1.4c0,.25-1.19,.88-2.38,.88h-.38v-10.12l2.94,1.22h2.97l1.37-1.36,2.8,2.1c-.14,.25-.56,.46-1.05,.56v5.42c-.03,.28-1.4,.95-2.38,.95h-.46Zm0-2.03v-4.62h-3.43v4.62h3.43Zm1.89-11.1s1.26,1.05,2.21,1.96v-3.85c-.14,.14-.35,.17-.63,.17h-3.78v3.57h.8l1.4-1.86Z"/>
      <path class="cls-2" d="M99.34,154.91c-.25,.32-.6,.42-1.33,.46-.74,2.52-2.24,5.29-4.41,7.49,.21,.07,.39,.17,.63,.35,2.7,2.03,7.07,2.45,14.91,2.45,4.17,0,7.56,0,11.69-.25v.42c-1.65,.32-2.59,1.86-2.83,3.43h-10.29c-7.91,0-10.96-1.26-13.83-4.8-.56-.66-.95-.56-1.22,.07-.53,.98-1.23,2.7-1.89,4.38,.07,.35-.04,.52-.28,.73l-2.76-3.96c1.33-.7,3.29-2.03,4.41-2.62,1.12-2.31,1.96-5.36,2.31-7.95h-2.1l-1.22,1.05-2.91-2.21c.39-.25,.95-.49,1.47-.66,1.22-1.64,2.83-3.96,3.89-5.67h-4.87l-.31-1.02h5.29l1.61-1.61,3.22,2.91c-.32,.35-.98,.53-1.75,.56-.98,1.54-2.66,3.88-3.92,5.64h1.37l1.89-1.86,1.93,1.58c-.11-.14-.17-.28-.25-.46-.28-1.02,.35-1.71,1.22-2.14,.88-.38,1.75-1.43,1.68-2.42h.28v-10.01l3.67,1.5h1.05c.21-.95,.49-2.17,.63-2.98l4.62,.91c-.14,.53-.59,.81-1.37,.81-.56,.35-1.33,.84-2.03,1.26h5.88l1.68-1.82,3.57,2.7c-.18,.25-.67,.53-1.33,.67v6.76c0,.25-1.75,.98-2.94,.98h-.63v-1.23h-4.45c1.65,.53,1.51,1.47,.7,2h5.67l1.58-1.61,2.91,2.76c-.28,.28-.63,.35-1.33,.39-.98,.45-2.66,1.01-3.75,1.29l-.42-.21c.25-.42,.6-1.02,.91-1.61h-2.7v1.16c0,.88,0,.91,.6,.91h3.08c.14,0,.42-.04,.7-.11h.49c.91,.32,1.12,.38,1.12,.81,0,.73-.39,1.12-1.89,1.26,.66,.46,1.75,1.22,2.56,1.89-.07,.39-.42,.56-.91,.56h-4.38l3.01,2.45c-.25,.25-.63,.42-1.29,.53-.32,2.06-.81,3.18-1.96,3.85-.88,.49-2.1,.6-3.67,.6,0-.84-.11-1.3-.56-1.75-.49-.49-1.43-.74-2.59-.98v-.49c1.12,.11,3.01,.21,3.61,.21,.49,0,.73-.04,.94-.17,.32-.17,.56-.77,.74-1.79h-5.81c-1.47,2.31-4.13,3.71-7.7,4.55l-.18-.45c3.19-1.58,4.66-3.64,5.11-6.55h-4.83l-.28-.98h8.75c-.21-.07-.38-.21-.56-.35,.04-.84-.35-1.75-.81-2.21l.32-.21c4.41,.1,4.2,2.1,2.83,2.76h5.18l1.26-1.43h-2.84c-3.15,0-3.33-.18-3.33-2.94v-1.12h-1.68c-.91,3.04-3.75,4.38-7.53,4.97l-.14-.49c2.49-.98,3.61-2.42,3.96-4.48h-2.49c-.07,1.4-.67,2.38-1.47,2.8-.56,.28-1.26,.28-1.79,.04l.88,.7Zm-9.1-17.08c9,2.1,5.22,8.82,1.86,5.88-.1-1.96-1.12-4.2-2.21-5.67l.35-.21Zm17.5,12.53c-.14-.07-.28-.17-.42-.31,.11-.63-.07-1.29-.31-1.68h-2.56v.46c0,.32-1.5,1.05-2.91,1.09,.04,.18,.07,.32,.1,.46h6.09Zm-3.29-9.03v1.33h9.31v-1.33h-9.31Zm9.31,3.67v-1.37h-9.31v1.37h9.31Zm0,2.38v-1.37h-9.31v1.37h9.31Zm.11,10.47h-6.13c-.14,.53-.31,1.01-.52,1.47h5.08l1.58-1.47Z"/>
      <path class="cls-2" d="M151.17,164.19s2.83,2.17,4.58,3.64c-.1,.39-.49,.56-1.01,.56h-31.57l-.28-1.02h14.04v-10.5h-9.63l-.28-1.01h9.91v-8.96h-6.2c-2.17,3.61-4.76,6.48-7.77,8.58l-.39-.32c2.7-3.99,5.29-10.33,6.51-16.66l5.88,1.75c-.11,.42-.56,.73-1.37,.73-.7,1.79-1.44,3.43-2.31,4.94h5.64v-8.47l5.81,.56c-.1,.52-.35,.88-1.29,1.01v6.9h5.53l2.42-2.97s2.7,1.96,4.41,3.39c-.11,.39-.49,.56-1.05,.56h-11.31v8.96h4.38l2.45-3.05s2.8,2.07,4.48,3.5c-.11,.38-.46,.56-.95,.56h-10.36v10.5h7.21l2.52-3.18Z"/>
      <path class="cls-2" d="M163.35,160.48c1.43,4.13-.07,6.97-1.86,7.84-1.23,.63-2.77,.32-3.15-.91-.35-1.19,.38-2.13,1.43-2.62,1.4-.59,3.01-2.24,3.08-4.31h.49Zm23.17-16.45s2.49,1.85,3.96,3.15c-.1,.38-.46,.56-.98,.56h-30.8l-.31-1.01h10.82c-.35-.11-.66-.25-.98-.49-.11-1.44-.91-3.08-1.68-3.99l.28-.21c6.3,.46,5.71,4.06,3.64,4.69h6.37c.46-1.4,.95-3.29,1.26-4.73h-17.08l-.28-1.02h12.5c-.49-1.43-1.82-2.87-2.97-3.67l.25-.25c6.09-.6,6.86,2.55,5.5,3.92h6.16l2.17-2.66s2.41,1.82,3.96,3.12c-.1,.38-.49,.56-.98,.56h-7.95l4.06,1.16c-.14,.42-.56,.7-1.33,.66-1.05,.8-2.62,1.96-4.1,2.91h6.37l2.17-2.7Zm-18.87,15.3c0,.35-1.82,1.23-3.43,1.23h-.6v-12.25l4.24,1.64h12.64l1.89-2.07,3.96,2.98c-.21,.28-.7,.6-1.44,.77v7.42c-.04,.28-2.03,1.12-3.36,1.12h-.7v-1.3h-13.2v.46Zm14.77,6.27c1.12,.39,1.44,.81,1.44,1.51,0,1.64-1.58,2.21-8.37,2.21h-4.55c-3.78,0-4.62-.56-4.62-3.12v-5.74l4.9,.42c-.07,.45-.38,.73-1.09,.84v3.71c0,.46,.14,.56,1.47,.56h4.27c1.58,0,2.97,0,3.5-.04,.56-.04,.77-.14,1.01-.49,.39-.53,.88-1.75,1.54-3.57h.38l.1,3.71Zm-14.77-14.67v2.98h13.2v-2.98h-13.2Zm13.2,6.93v-2.98h-13.2v2.98h13.2Zm-8.37,1.61c8.44,.98,5.57,7.28,2.34,5-.25-1.71-1.47-3.6-2.66-4.76l.32-.25Zm11.03,.98c9.73,2.21,6.58,9.52,3.04,6.83-.21-2.31-1.79-4.94-3.36-6.58l.32-.25Z"/>
      <path class="cls-2" d="M222.61,165.06s2.07,1.96,3.12,3.25c-.1,.38-.42,.56-.88,.56h-31.57l-.28-1.02h4.87v-10.4c-1.44,.31-3.01,.63-4.73,.88l-.14-.46c7.11-1.82,10.75-4.31,12.5-7.28h-11.38l-.24-.98h4.62v-8.37l4.31,1.68h4.27v-5.53l5.25,.49c-.07,.49-.35,.84-1.19,.95v4.1h4.17l1.79-2.21,4.31,2.87c-.28,.35-.7,.56-1.61,.7v5.32h.59l1.82-2.56s2.07,1.75,3.29,2.98c-.1,.38-.42,.56-.91,.56h-15.02c-1.65,2.77-4.76,5.01-10.57,6.58l3.08,1.19h14.28l1.75-2.24,4.24,2.91c-.28,.35-.67,.56-1.61,.73v8.09h.1l1.79-2.8Zm-20.9,2.8h2.55v-8.51h-2.55v8.51Zm4.3-18.24c.81-1.75,1.05-3.61,1.05-5.6v-.11h-4.62v5.71h3.57Zm1.82,9.73v8.51h2.62v-8.51h-2.62Zm3.29-15.44v.17c-.03,1.96-.31,3.82-1.09,5.53h5.6v-5.71h-4.52Zm-.35,7.81c16.21-.63,15.23,7.28,11.38,6.23-1.85-1.68-6.2-4.2-11.48-5.74l.1-.49Zm3.26,7.63v8.51h2.66v-8.51h-2.66Z"/>
      <path class="cls-2" d="M233.59,161.18c1.02,4.2-.21,7.14-1.89,8.4-1.16,.91-3.08,.7-3.68-.67-.46-1.26,.21-2.35,1.29-2.98,1.44-.74,3.4-2.66,3.82-4.8l.45,.04Zm-4.87,.21c5.08-2.62,8.26-6.44,10.12-11.06-.46,.56-1.26,.73-2.21,.21-.38-1.26-1.44-2.73-2.52-3.82-1.58,1.96-3.4,3.5-5.36,4.73l-.38-.35c2.49-3.19,4.76-8.12,5.71-13.44l5.25,1.54c-.14,.46-.56,.74-1.33,.7-.46,1.12-.95,2.21-1.47,3.19h3.89l2.03-2,3.46,3.04c-.28,.35-.59,.46-1.4,.56-1.89,7.63-5.85,14-15.54,17.15l-.25-.46Zm8.54-9.91c-1.4,1.23-3.43,2.94-6.13,4.76-.1,.42-.42,.77-.8,.91l-1.65-3.82c1.82-.32,5.32-1.22,8.47-2.28l.11,.42Zm-1.33-7.39c-.35,.6-.74,1.19-1.12,1.72,3.4,.73,4.48,2.34,4.41,3.57,.63-1.68,1.08-3.43,1.4-5.29h-4.69Zm2.42,17.26c7.49,4.66,3.15,10.78,.28,7.35,.28-2.42-.11-5.11-.7-7.21l.42-.14Zm9.52-14.7c.07-.98,.1-1.92,.1-2.87v-6.3l5.18,.53c-.07,.46-.32,.8-1.19,.94v4.94c0,.91-.03,1.82-.14,2.77h3.25l1.75-2.31c-.67,.32-1.54,.28-2.42-.42-.1-1.58-1.01-3.4-1.89-4.52l.31-.17c5.71,.91,5.71,4.06,4.17,5.01,.35,.28,2.21,1.75,3.33,2.87-.1,.38-.46,.56-.95,.56h-7.7c-.04,.25-.07,.49-.11,.74,11.87,5.95,9.1,14.74,5.11,11.66-.59-3.43-2.91-7.46-5.36-10.47-1.16,4.59-4.1,8.96-11.34,11.34l-.28-.31c5.71-3.43,7.53-8.19,8.09-12.95h-3.5l-.28-1.01h3.85Zm-2.24,14.46c9.56,3.54,5.81,10.96,2.28,7.74-.07-2.56-1.3-5.46-2.63-7.56l.35-.18Zm7.21-.28c11.55,2.87,8.3,11.48,4.27,8.44-.46-2.87-2.48-6.13-4.59-8.19l.31-.25Z"/>
      <path class="cls-2" d="M37.04,214.86h-3.96v6.58h-4.17v-6.58h-10.29v-2.49l11.27-16.07h3.18v15.47h3.96v3.08Zm-8.12-3.08v-11.87l-8.37,11.87h8.37Z"/>
      <path class="cls-2" d="M48.8,193.68h2.56l-10.43,34.02h-2.62l10.5-34.02Z"/>
      <path class="cls-2" d="M64.13,209.19c-.21,.07-.49,.1-.84,.14-.88,2.62-2.62,5.53-5,7.81,.28,.07,.52,.17,.84,.39,2.7,2.13,7.04,2.55,14.98,2.55,4.24-.04,7.56-.04,11.73-.25v.42c-1.61,.35-2.59,1.82-2.8,3.4h-10.36c-8.02,0-11.06-1.22-13.97-4.83-.53-.66-.88-.6-1.19,.04-.49,1.05-1.16,2.73-1.79,4.48,.11,.31,0,.49-.25,.7l-2.8-3.92c1.22-.67,2.91-1.89,4.06-2.56,1.37-2.41,2.45-5.74,2.91-8.51h-1.86l-1.16,1.12-2.98-2.06c.35-.21,.81-.49,1.3-.67,.91-1.64,2.13-4.09,2.87-5.78h-4.1l-.31-1.01h4.41l1.54-1.61,3.22,2.91c-.28,.28-.88,.46-1.58,.53-.74,1.5-2,3.85-2.91,5.6h1.33l1.89-1.93,2.8,2.35v-8.68l3.67,1.58h1.44c-.32-.11-.59-.28-.91-.56,.07-1.33-.46-2.83-1.05-3.75l.31-.17c5.46,.84,4.94,3.81,3.19,4.48h4.24c.32-1.37,.59-3.19,.74-4.48l5.22,1.08c-.11,.38-.49,.73-1.26,.73-.91,.77-2.24,1.82-3.54,2.66h2.7l1.65-1.93,3.71,2.83c-.21,.25-.74,.6-1.47,.7v13.23c0,2-.49,2.98-4.17,3.26-.04-.74-.1-1.33-.42-1.68-.35-.28-.77-.63-2.03-.8v-.49s1.96,.14,2.49,.14c.49,0,.59-.21,.59-.59v-10.05c-.14,.32-.42,.45-.8,.45h-3.57v3.08h.14l1.3-1.37,2.52,2.21c-.25,.25-.66,.53-1.22,.6v4.41c-.07,.14-1.12,.74-2.21,.74h-.53v-1.12h-3.04v1.19c0,.25-1.23,.81-2.31,.81h-.38v-8.65l2.8,1.19h.14v-3.08h-3.6l-.28-1.02h3.88v-2.45l3.68,.35c-.04,.38-.28,.67-.88,.77v1.33h.53l1.36-1.75s1.54,1.23,2.49,2.17v-3.5h-11.62v15.75c0,.35-1.43,1.16-2.94,1.16h-.52v-10.08Zm-9.49-16.94c9.03,1.58,5.57,8.26,2.14,5.67-.18-1.92-1.33-4.1-2.45-5.46l.32-.21Zm7.6,3.54h9.7c-.14-.11-.28-.21-.42-.32,.04-1.4-.6-2.91-1.26-3.78l.28-.17c5.36,.59,5.43,3.25,3.99,4.27h4.34l2.13-2.63s2.42,1.79,3.89,3.05c-.1,.38-.46,.56-.98,.56h-21.39l-.28-.98Zm12.6,18.24v-3.5h-3.04v3.5h3.04Z"/>
      <path class="cls-2" d="M107.84,193.09c-.14,.45-.6,.66-1.72,.77,3.12,4.31,9.42,6.79,14.81,8.26l-.03,.56c-1.79,.49-2.91,2.24-3.22,3.78-5.32-2.62-9.98-6.69-12.11-12.18-3.33,5.32-10.5,10.85-17.54,13.55l-.21-.42c6.02-3.68,12.39-10.82,13.86-15.86l6.16,1.54Zm4.58,16.07l4.2,3.22c-.25,.28-.74,.63-1.47,.77v10.05c-.04,.25-2.2,.98-3.64,.98h-.73v-2.56h-12.74v1.58c0,.38-1.89,1.33-3.68,1.33h-.63v-14.95l4.58,1.82h12.11l2-2.24Zm-3.88-6.93s2.59,2.03,4.17,3.46c-.1,.39-.45,.56-.98,.56h-15.26l-.28-1.02h10.05l2.31-3.01Zm2.24,18.38v-8.19h-12.74v8.19h12.74Z"/>
      <path class="cls-2" d="M156.04,203.66c-1.68,.49-2.62,1.86-2.98,3.75-1.58-.25-3.12-.53-4.62-.88l2.76,2.06c-.14,.21-.52,.42-1.01,.53v5.92c0,.31-2,1.19-3.4,1.19h-.74v-1.33h-13.55v3.89c0,.8,.35,1.01,2.56,1.01h7.42c2.45,0,4.8,0,5.81-.07,.81-.07,1.26-.21,1.61-.56,.53-.56,1.16-1.64,2-3.57h.39l.1,3.57c1.58,.42,2.03,.91,2.03,1.68,0,2.03-1.92,2.62-12.29,2.62h-7c-5.08,0-6.79-.53-6.79-3.85v-12.71c-1.75,.25-3.61,.42-5.46,.52l-.14-.52c5.42-1.08,10.36-2.87,14.25-5.25-1.61-1.22-2.94-2.66-4.06-4.34l.42-.35c1.4,1.4,3.29,2.52,5.6,3.4,2-1.44,3.64-3.01,4.83-4.69l4.45,2.98c-.28,.31-.63,.46-1.4,.21-1.01,1.01-2.2,1.96-3.5,2.8,3.96,.98,8.47,1.44,12.71,1.54v.46Zm-18.83-9.31c-.21,.35-.56,.53-1.33,.35-2.7,2.28-7.25,4.45-11.97,5.5l-.25-.46c3.68-2.03,7.35-5.43,9.07-8.16l4.48,2.77Zm10.01,11.87c-2.62-.66-5.04-1.54-7.25-2.7-2.87,1.37-6.2,2.42-9.91,3.08l2.91,1.12h12.81l1.43-1.5Zm-14.7,7.67h4.73v-5.15h-4.73v5.15Zm13.55,0v-5.15h-4.79v5.15h4.79Zm-4.03-21.56c14.98,.8,12.43,9.38,8.37,7.49-1.12-1.86-4.24-4.9-8.51-7.07l.14-.42Z"/>
      <path class="cls-2" d="M191.04,203.66c-1.68,.49-2.62,1.86-2.98,3.75-1.58-.25-3.12-.53-4.62-.88l2.76,2.06c-.14,.21-.52,.42-1.01,.53v5.92c0,.31-2,1.19-3.4,1.19h-.74v-1.33h-13.55v3.89c0,.8,.35,1.01,2.56,1.01h7.42c2.45,0,4.8,0,5.81-.07,.81-.07,1.26-.21,1.61-.56,.53-.56,1.16-1.64,2-3.57h.39l.1,3.57c1.58,.42,2.03,.91,2.03,1.68,0,2.03-1.92,2.62-12.29,2.62h-7c-5.08,0-6.79-.53-6.79-3.85v-12.71c-1.75,.25-3.61,.42-5.46,.52l-.14-.52c5.42-1.08,10.36-2.87,14.25-5.25-1.61-1.22-2.94-2.66-4.06-4.34l.42-.35c1.4,1.4,3.29,2.52,5.6,3.4,2-1.44,3.64-3.01,4.83-4.69l4.45,2.98c-.28,.31-.63,.46-1.4,.21-1.01,1.01-2.2,1.96-3.5,2.8,3.96,.98,8.47,1.44,12.71,1.54v.46Zm-18.83-9.31c-.21,.35-.56,.53-1.33,.35-2.7,2.28-7.25,4.45-11.97,5.5l-.25-.46c3.68-2.03,7.35-5.43,9.07-8.16l4.48,2.77Zm10.01,11.87c-2.62-.66-5.04-1.54-7.25-2.7-2.87,1.37-6.2,2.42-9.91,3.08l2.91,1.12h12.81l1.43-1.5Zm-14.7,7.67h4.73v-5.15h-4.73v5.15Zm13.55,0v-5.15h-4.79v5.15h4.79Zm-4.03-21.56c14.98,.8,12.43,9.38,8.37,7.49-1.12-1.86-4.24-4.9-8.51-7.07l.14-.42Z"/>
      <path class="cls-2" d="M208.54,213.46c1.54,3.78,1.09,6.65-.1,7.95-.81,.95-2.56,.91-3.15-.28-.18-.38-.25-.77-.18-1.12-.67,.67-1.82,.77-2.84,.11-.38-.77-.91-1.58-1.5-2.35-1.79,2.66-4.24,5.01-7.56,6.86l-.42-.32c2.8-2.45,4.8-5.43,6.16-8.72-1.68-1.71-3.64-3.33-5.36-4.52,.49-1.71,1.05-4.13,1.58-6.79l-.74,.17c-.25,.46-.67,.73-1.05,.8l-.91-4.24c.84,.04,1.96,0,3.29-.04,.67-3.67,1.23-7.21,1.4-9.28l5.04,.8c-.1,.42-.35,.77-1.37,.88-.31,1.89-.84,4.55-1.43,7.46,.8-.04,1.61-.11,2.45-.14,.04-1.29,.07-2.59,.04-3.85l5.36,.88c-.14,.56-.53,.91-1.37,.95-.04,.56-.07,1.15-.11,1.71l1.4-.14,.04,.49-1.5,.53c-.39,4.62-1.19,9.21-3.08,13.23,2.38,1.68,3.12,3.29,2.98,4.41,.21-.21,.42-.42,.7-.59,.88-.84,1.96-2.98,1.75-4.87h.49Zm-8.58-.6c1.05-3.33,1.58-6.83,1.82-10.36-.91,.28-1.86,.56-2.91,.84-.63,2.87-1.29,5.78-1.92,8.12,1.12,.45,2.13,.94,3.01,1.4Zm25.97-2c-.25,.32-.63,.49-1.37,.6-.28,7.04-.88,10.47-2.45,11.73-.98,.81-2.27,1.19-4.03,1.16,0-.98-.1-1.86-.63-2.34-.52-.53-1.71-.95-3.08-1.23l.04-.46c1.33,.11,3.5,.21,4.2,.21,.59,0,.84-.04,1.08-.28,.74-.67,1.16-3.82,1.37-9.35h-9.87v.59c0,.25-1.16,1.12-3.01,1.12h-.67v-20.02l4.17,1.61h7.84l1.96-2.45s2.24,1.68,3.61,2.87c-.1,.38-.46,.56-.98,.56h-6.13v4.34h.91l1.79-2.35s2.1,1.61,3.29,2.8c-.07,.38-.42,.56-.91,.56h-5.08v4.2h.91l1.79-2.42s2.1,1.65,3.29,2.84c-.07,.38-.42,.56-.91,.56h-5.08v4.2h2.73l1.85-1.85,3.36,2.8Zm-15.3,2.62c5.25,4.27,1.82,8.89-.25,6.3,.38-2.03,.17-4.48-.25-6.2l.49-.11Zm.56-18.31v4.34h3.29v-4.34h-3.29Zm3.29,5.36h-3.29v4.2h3.29v-4.2Zm-3.29,9.38h3.29v-4.2h-3.29v4.2Zm2.49,2.84c5.95,3.12,2.83,7.77,.63,5.43,.17-1.75-.38-3.89-1.08-5.22l.46-.21Zm3.08-1.08c6.2,2.06,3.47,6.83,1.23,4.79,.1-1.58-.7-3.46-1.61-4.58l.38-.21Z"/>
      <path class="cls-2" d="M243.54,213.46c1.54,3.78,1.09,6.65-.1,7.95-.81,.95-2.56,.91-3.15-.28-.18-.38-.25-.77-.18-1.12-.67,.67-1.82,.77-2.84,.11-.38-.77-.91-1.58-1.5-2.35-1.79,2.66-4.24,5.01-7.56,6.86l-.42-.32c2.8-2.45,4.8-5.43,6.16-8.72-1.68-1.71-3.64-3.33-5.36-4.52,.49-1.71,1.05-4.13,1.58-6.79l-.74,.17c-.25,.46-.67,.73-1.05,.8l-.91-4.24c.84,.04,1.96,0,3.29-.04,.67-3.67,1.23-7.21,1.4-9.28l5.04,.8c-.1,.42-.35,.77-1.37,.88-.31,1.89-.84,4.55-1.43,7.46,.8-.04,1.61-.11,2.45-.14,.04-1.29,.07-2.59,.04-3.85l5.36,.88c-.14,.56-.53,.91-1.37,.95-.04,.56-.07,1.15-.11,1.71l1.4-.14,.04,.49-1.5,.53c-.39,4.62-1.19,9.21-3.08,13.23,2.38,1.68,3.12,3.29,2.98,4.41,.21-.21,.42-.42,.7-.59,.88-.84,1.96-2.98,1.75-4.87h.49Zm-8.58-.6c1.05-3.33,1.58-6.83,1.82-10.36-.91,.28-1.86,.56-2.91,.84-.63,2.87-1.29,5.78-1.92,8.12,1.12,.45,2.13,.94,3.01,1.4Zm25.97-2c-.25,.32-.63,.49-1.37,.6-.28,7.04-.88,10.47-2.45,11.73-.98,.81-2.27,1.19-4.03,1.16,0-.98-.1-1.86-.63-2.34-.52-.53-1.71-.95-3.08-1.23l.04-.46c1.33,.11,3.5,.21,4.2,.21,.59,0,.84-.04,1.08-.28,.74-.67,1.16-3.82,1.37-9.35h-9.87v.59c0,.25-1.16,1.12-3.01,1.12h-.67v-20.02l4.17,1.61h7.84l1.96-2.45s2.24,1.68,3.61,2.87c-.1,.38-.46,.56-.98,.56h-6.13v4.34h.91l1.79-2.35s2.1,1.61,3.29,2.8c-.07,.38-.42,.56-.91,.56h-5.08v4.2h.91l1.79-2.42s2.1,1.65,3.29,2.84c-.07,.38-.42,.56-.91,.56h-5.08v4.2h2.73l1.85-1.85,3.36,2.8Zm-15.3,2.62c5.25,4.27,1.82,8.89-.25,6.3,.38-2.03,.17-4.48-.25-6.2l.49-.11Zm.56-18.31v4.34h3.29v-4.34h-3.29Zm3.29,5.36h-3.29v4.2h3.29v-4.2Zm-3.29,9.38h3.29v-4.2h-3.29v4.2Zm2.49,2.84c5.95,3.12,2.83,7.77,.63,5.43,.17-1.75-.38-3.89-1.08-5.22l.46-.21Zm3.08-1.08c6.2,2.06,3.47,6.83,1.23,4.79,.1-1.58-.7-3.46-1.61-4.58l.38-.21Z"/>
      <path class="cls-2" d="M293.9,200.61c.81,.38,1.12,.74,1.12,1.37,0,1.12-.8,1.68-2.83,1.86l3.43,3.36c-.25,.24-.6,.35-1.26,.38-1.22,.91-3.29,2.24-4.72,3.01l-.28-.21c.21-.94,.45-2.45,.66-3.64h-8.51v4.51h4.06l1.92-2.24,4.27,3.22c-.25,.35-.8,.7-1.65,.88v5.11c0,2.38-.59,3.75-4.97,4.1-.04-1.12-.18-1.96-.56-2.45-.42-.53-.98-.95-2.42-1.16v-.49s2.52,.18,3.19,.18c.49,0,.63-.21,.63-.63v-5.5h-4.48v11.2c-.04,.25-1.29,1.12-3.33,1.12h-.74v-12.32h-4.55v8.89c0,.35-1.79,1.23-3.4,1.23h-.59v-12.85l4.31,1.71h4.24v-4.51h-9.14c.25,2.17-.45,3.82-2.17,4.51-2.62,1.09-4.34-2.24-1.43-3.64,1.01-.46,2.13-1.65,2.31-3.5-.88,.42-1.92,.77-3.15,1.08l-.25-.35c3.54-1.86,4.55-4.38,4.76-6.93h-4.66l-.25-.98h4.94v-4.97l4.87,.46c-.07,.46-.31,.77-1.12,.91v3.61h2.1v-4.76l4.73,.46c-.07,.42-.35,.73-1.19,.88v3.43h2.45v-4.76l4.73,.46c-.07,.42-.31,.73-1.19,.88v3.43h2.06v-4.97l4.66,.42c-.04,.45-.39,.77-1.05,.88v3.67h1.51l1.68-2.8s2,1.92,3.04,3.22c-.07,.38-.42,.56-.91,.56h-5.32v2.31c0,.38,.07,.52,.56,.52h1.86c.17,0,.56-.04,.7-.07,.21,0,.56-.07,.77-.14h.32l.24,.07Zm-2.17,3.25c-.38,.04-.8,.04-1.26,.04h-1.72c-2.59,0-2.91-.73-2.91-2.91v-3.08h-2.06v5.64c0,.28-1.54,.88-2.87,.88h-.66v-1.5h-2.45v.94c0,.28-1.58,.91-2.91,.91h-.63v-6.86h-2.17c-.28,2.21-1.4,4.38-4.55,5.99,.25,.63,.46,1.26,.59,1.86h21.63l1.96-1.89Zm-13.93-5.95v3.99h2.45v-3.99h-2.45Z"/>
      <path class="cls-2" d="M325.54,204.36s2.49,1.82,3.99,3.12c-.11,.39-.42,.56-.95,.56h-10.12c-1.75,1.19-3.71,2.31-5.78,3.36h7.81l1.86-2.07,3.99,3.01c-.25,.28-.74,.59-1.47,.73v10.22c-.03,.25-2.06,.98-3.36,.98h-.66v-2.31h-10.92v1.22c0,.38-1.75,1.29-3.43,1.29h-.56v-10.08c-2.52,.95-5.08,1.79-7.77,2.38l-.25-.46c2.76-1.05,5.43-2.31,8.02-3.71v-2.87l2.98,1.16c1.54-.91,3.01-1.89,4.38-2.87h-14.11l-.31-.98h10.57v-3.75h-6.9l-.28-1.02h7.18v-3.82l5.15,.46c-.03,.42-.31,.74-1.12,.88v2.48h1.19l2-2.42s1.93,1.44,3.33,2.63c1.47-1.37,2.7-2.73,3.75-4.06l4.34,2.76c-.25,.35-.63,.53-1.43,.28-1.79,1.86-4.06,3.78-6.69,5.57h3.43l2.17-2.7Zm-27.3-9h5.64l-.46-3.67,5.15,.38c0,.42-.28,.74-.98,.95l.28,2.34h1.61l1.86-2.59s2.1,1.79,3.33,3.01c-.07,.38-.46,.56-.95,.56h-5.7l.28,2.28c-.56,.74-2.03,1.09-3.88,1.01l-.42-3.29h-5.46l-.28-.98Zm12.43,17.05c-.25,.11-.49,.21-.74,.35v3.33h10.92v-3.68h-10.19Zm10.19,8.58v-3.89h-10.92v3.89h10.92Zm-6.23-13.93c1.65-1.22,3.15-2.49,4.52-3.75h-5.67v3.75h1.16Zm12.46-14.28s2.13,1.79,3.33,3.01c-.11,.38-.46,.56-.95,.56h-6.2l-.39,2.31c-.77,.56-2.38,.8-4.06,.46l.42-2.77h-3.75l-.28-.98h4.16l.59-3.78,5.08,.88c-.07,.42-.39,.81-1.33,.91l-.32,2h1.82l1.86-2.59Z"/>
      <path class="cls-2" d="M345.35,201.98c-.14,.42-.46,.67-1.37,.67-1.89,4.97-5.21,11.41-10.64,15.54l-.35-.32c3.47-5.08,5.67-12.74,6.51-17.92l5.85,2.03Zm7.81-9.24c-.1,.53-.42,.84-1.29,.98v25.66c0,2.94-.74,4.66-5.99,5.15-.14-1.43-.38-2.42-1.12-3.05-.7-.7-1.65-1.19-3.82-1.54v-.49s4.76,.28,5.71,.28c.67,0,.88-.21,.88-.7v-26.85l5.63,.56Zm7.98,23.28c-.56-5.04-3.36-10.85-6.16-15.16l.46-.21c14.25,8.16,10.68,19.78,5.71,15.37Z"/>
      <path class="cls-2" d="M381.51,204.22c-1.22,1.05-2.84,2.38-4.87,3.99v11.55c0,2.8-.56,4.3-4.87,4.72-.11-1.26-.25-2.21-.67-2.83-.46-.59-1.12-1.05-2.59-1.3v-.49s2.91,.17,3.57,.17c.49,0,.63-.14,.63-.52v-8.4c-.59,.42-1.22,.84-1.85,1.29-.11,.46-.39,.88-.77,1.05l-2.38-4.52c1.01-.32,2.83-.95,5-1.75v-6.41l2.1,.21c.74-1.68,1.47-3.96,2-5.53h-8.68l-.32-.98h8.86l2.17-2.1,3.61,3.25c-.28,.32-.63,.35-1.4,.42-1.33,1.44-3.25,3.5-5.11,5.04l1.92,.17c-.07,.49-.42,.8-1.22,.91v3.54c1.54-.59,3.12-1.26,4.69-1.86l.17,.35Zm-3.05,19.99c7.25-3.54,13.27-8.51,17.61-16.84l4.87,2.62c-.28,.42-.7,.56-1.58,.38-1.75,2.49-3.6,4.55-5.63,6.34,9.84,2.45,7.14,9.59,3.25,7.25-.74-2.17-2.52-4.62-4.13-6.51-4.09,3.4-8.79,5.64-14.18,7.25l-.21-.49Zm18.9-29.3s2.38,1.89,3.78,3.19c-.1,.38-.49,.56-.98,.56h-12.74l4.76,1.61c-.14,.35-.52,.63-1.22,.59-1.71,1.71-4.48,3.71-6.93,5.08,1.79-.04,4.24-.07,6.79-.17,.8-1.23,1.58-2.52,2.27-3.92l4.69,2.45c-.24,.42-.63,.52-1.43,.38-4.55,6.3-10.15,10.29-17.12,12.88l-.28-.52c4.17-2.45,7.77-5.57,10.78-9.7-1.82,.59-4.03,1.26-6.41,1.92-.35,.49-.74,.77-1.12,.91l-1.37-4.34s.74-.14,1.05-.32c1.89-1.16,4.24-4.8,5.04-6.86h-6.55l-.28-.98h15.23l2.03-2.77Zm-10.61-3.25c9.31,1.23,5.53,8.09,1.96,5.36-.21-1.79-1.26-3.85-2.28-5.18l.32-.17Z"/>
      <path class="cls-2" d="M418.85,192.11s2.38,1.96,3.82,3.29c-.11,.39-.46,.56-.98,.56h-11.1l4.62,1.22c-.11,.39-.49,.7-1.23,.7-1.75,1.82-4.58,3.99-7.04,5.46,2.55-.11,6.48-.32,10.54-.6-.63-1.5-1.58-2.94-2.56-3.99l.35-.25c10.01,2.87,6.65,10.5,3.08,7.56-.04-.81-.21-1.61-.53-2.42-1.86,.6-4.38,1.4-7.21,2.21l5.04,.42c-.07,.49-.32,.8-1.19,.94v3.82h1.75l2.03-2.87s2.35,1.96,3.64,3.33c-.07,.39-.46,.56-.91,.56h-6.51v5.36c2.52-.38,5.25-.8,7.98-1.23l.1,.46c-3.46,1.61-8.68,3.68-16.45,6.34-.21,.46-.6,.77-1.02,.88l-2-4.94c1.58-.14,4.17-.49,7.39-.95v-5.92h-6.44l-.28-1.02h6.72v-5.15c-1.19,.35-2.45,.7-3.78,1.05-.25,.42-.53,.73-.84,.88l-1.96-4.62s.81-.14,1.12-.35c1.75-1.19,4.03-4.83,4.83-6.9h-6.2l-.28-1.02h13.37l2.1-2.83Zm8.44,23.59c0,.35-1.65,1.08-3.04,1.08h-.7v-22.09l5,.49c-.07,.49-.35,.84-1.26,.98v19.53Zm8.3-23.07c-.07,.52-.42,.88-1.26,1.01v26.25c0,2.73-.63,4.34-5.25,4.73-.11-1.23-.32-2.17-.88-2.77-.59-.63-1.4-1.05-3.19-1.37v-.49s3.82,.25,4.62,.25c.59,0,.77-.21,.77-.67v-27.44l5.18,.49Z"/>
      <path class="cls-2" d="M453.47,200.96s2.1,2.07,3.22,3.43c-.11,.38-.45,.56-.95,.56h-4.69v12.18c1.61-.31,3.29-.7,4.97-1.05l.1,.42c-3.15,1.79-7.84,4.13-15.12,7.21-.21,.46-.53,.77-.95,.91l-2.7-4.9c.77-.11,1.79-.28,3.01-.53v-20.02l4.94,.46c-.07,.42-.32,.74-1.16,.88v17.99l2.94-.56v-25.83l5.25,.49c-.07,.49-.35,.88-1.29,1.01v10.33h.63l1.79-2.98Zm15.82,18.34c1.09,.52,1.4,1.01,1.4,1.79,0,1.75-1.57,2.55-6.58,2.55h-2.8c-3.29,0-4.24-.88-4.24-3.85v-27.76l5.32,.6c-.04,.46-.35,.84-1.26,.98v10.29h2.91l1.93-3.22s2.24,2.24,3.39,3.67c-.1,.39-.45,.56-.94,.56h-7.28v13.62c0,.77,.28,1.05,1.23,1.05h2.13c.81,0,1.44,0,1.86-.04,.31-.03,.63-.14,.84-.49,.42-.63,1.02-2.94,1.58-5.08h.38l.14,5.32Z"/>
      <path class="cls-2" d="M490.92,203.27c1.23,6.48,5.29,12.92,15.09,16.87l-.07,.38c-2.13,.38-3.39,1.68-3.78,4.06-8.16-4.97-10.78-13.48-11.73-20.48-1.05,8.33-4.55,15.47-17.26,20.48l-.32-.53c9.73-5.88,12.46-12.81,13.23-20.79h-12.64l-.28-1.01h12.99c.25-3.29,.21-6.79,.21-10.43l5.88,.56c-.1,.52-.42,.88-1.26,1.01-.07,3.05-.1,6.02-.35,8.86h7.88l2.59-3.19s2.83,2.13,4.58,3.64c-.1,.38-.49,.56-1.01,.56h-13.76Z"/>
      <path class="cls-2" d="M538.94,198.23c-.35,.38-.94,.8-1.92,1.01v22.09c-.07,.28-2.21,1.23-3.78,1.23h-.63v-3.96h-16.59v3.15c0,.52-1.82,1.58-3.64,1.58h-.74v-28.07l4.73,1.92h15.79l2.21-2.59,4.58,3.64Zm-6.33,19.39v-19.46h-16.59v19.46h16.59Z"/>
      <path class="cls-2" d="M553.01,212.65c8.3,1.33,5.04,7.14,1.96,4.8-.17-1.4-1.05-3.01-1.96-4.17v10.19c0,.32-1.68,1.08-3.08,1.08h-.73v-7.42c-1.68,2.03-3.82,3.75-6.23,5.18l-.35-.46c2.62-2.66,4.52-6.34,5.67-10.08h-4.24l-.28-1.01h5.43v-4.9l5,.46c-.07,.45-.35,.77-1.19,.91v3.54h.95l1.79-2.52s2.03,1.75,3.22,2.98c-.1,.38-.46,.56-.95,.56h-5v.88Zm-8.96-6.55c4.41-2.21,8.02-5.57,10.19-9.1h-8.93l-.28-.98h11.94v-4.3l5.53,.49c-.1,.49-.35,.84-1.29,.98v2.83h6.51l2.21-2.83s2.45,1.93,3.92,3.26c-.07,.38-.46,.56-.95,.56h-11.69v1.12c12.5,.84,12.15,8.16,8.09,7.14-1.75-2-5.22-4.55-8.09-6.16v7.21c0,.28-1.86,.98-3.5,.98h-.74v-7.67c-3.04,3.08-7.46,5.39-12.64,6.93l-.28-.45Zm24.43,5.67c1.64,3.12,4.66,5.5,7.7,6.65l-.07,.39c-1.47,.35-2.49,1.61-2.98,3.61-2.49-2.17-4.13-5.32-5.18-9.52v10.61c0,.35-1.71,1.01-3.19,1.01h-.73v-8.44c-2.1,2.55-4.9,4.69-8.3,6.37l-.32-.45c3.29-2.63,5.67-6.34,7.07-10.22h-3.25l-.28-1.01h5.08v-4.83l5.08,.49c-.07,.42-.32,.77-1.16,.88v3.47h1.65l2-2.8s2.28,1.93,3.57,3.26c-.07,.38-.42,.56-.91,.56h-5.78Z"/>
      <path class="cls-2" d="M607.4,207.23s2.42,1.86,3.92,3.15c-.11,.39-.49,.56-.98,.56h-8.82v8.58c0,2.73-.73,4.69-5.6,5.04-.07-1.29-.35-2.28-1.01-2.87-.7-.63-1.61-1.08-3.78-1.4v-.46s4.58,.28,5.53,.28c.67,0,.88-.28,.88-.74v-8.44h-8.4v4.41c-.07,.25-1.89,1.05-3.15,1.05h-.63v-3.15h-2.63v3.82c0,.38-1.43,1.29-3.01,1.29h-.6v-23.45l3.75,1.61h2.13l1.82-2,2.98,2.35c5.39-1.12,12.18-3.36,15.65-5.11l4.1,4.06c-.42,.32-1.26,.32-2.31-.1-1.61,.31-3.57,.59-5.71,.84v13.41h3.71l2.17-2.73Zm-22.05,5.01v-14.7h-2.63v14.7h2.63Zm12.18-2.28v-12.99c-2.38,.21-4.79,.35-7.11,.39l.1,.07c-.24,.28-.7,.6-1.4,.74v11.8h8.4Zm-6.69-10.5c8.51,4.59,4.48,11.52,1.26,8.19,.14-2.7-.73-5.78-1.64-8.09l.38-.11Zm11.83,8.96c.74-2.34,1.65-6.27,2.24-9.59l5.36,1.79c-.17,.46-.59,.74-1.4,.7-1.65,2.73-3.71,5.5-5.74,7.35l-.46-.25Z"/>
      <path class="cls-2" d="M617.68,212.59v4.27c0,.35-1.4,1.23-2.97,1.23h-.56v-23.84l3.68,1.58h2.49l1.79-1.92,3.61,2.84c-.25,.28-.74,.56-1.44,.74v17.05c-.04,.32-1.71,1.22-3.01,1.22h-.6v-3.15h-2.98Zm0-15.75v14.77h2.98v-14.77h-2.98Zm27.76,8.86c-.25,.35-.6,.46-1.47,.56-1.16,3.88-2.87,7.35-5.5,10.26,2.34,1.86,5.08,3.19,8.05,4.2l-.07,.39c-1.75,.28-3.12,1.47-3.82,3.43-2.7-1.5-4.9-3.29-6.65-5.6-3.05,2.45-6.97,4.38-12.08,5.6l-.25-.49c4.62-1.79,8.16-4.3,10.82-7.42-1.61-2.84-2.69-6.44-3.36-11.06h-.07c-.91,7.35-3.5,13.83-11.45,18.76l-.46-.52c8.54-8.02,8.51-17.82,8.54-28.32h-3.12l-.32-1.02h12.08l1.61-1.85,3.78,2.87c-.31,.32-.59,.42-1.29,.53l-.98,8.54h.32l2.13-2.1,3.54,3.25Zm-13.86-10.22c-.03,3.12-.1,6.16-.42,9.07h4.24l1.16-9.07h-4.97Zm.18,10.08c.91,3.68,2.45,6.55,4.45,8.79,1.75-2.59,2.98-5.57,3.75-8.79h-8.19Z"/>
    </g>
  </g>
</svg>