<?xml version="1.0" encoding="utf-8"?>
<!-- Generator: Adobe Illustrator 27.0.0, SVG Export Plug-In . SVG Version: 6.00 Build 0)  -->
<svg version="1.1" id="圖層_1" xmlns="http://www.w3.org/2000/svg" xmlns:xlink="http://www.w3.org/1999/xlink" x="0px" y="0px"
	 viewBox="0 0 460.3 188.2" style="enable-background:new 0 0 460.3 188.2;" xml:space="preserve">
<style type="text/css">
	.st0{fill:#FFF100;}
</style>
<g>
	<g id="_圖層_2">
		<g id="_圖層_1-2">
			<g>
				<g>
					<path class="st0" d="M218.5,16.1c0,0,5.7,4.3,9.2,7.4c-0.1,0.8-1,1.1-2,1.1h-13.4c-2.7,2.8-5.9,5.7-8.8,7.7h8.5l4.3-4.7
						l8.8,6.6c-0.4,0.5-1.1,1-2.3,1.3v29.6c-0.1,0.6-5,2.5-8.4,2.5h-1.1c17.9,2.8,13.3,18,3.9,14c-2.6-5-7.7-10.6-11.9-14l0.5-0.4
						c2.5-0.1,4.8,0.1,6.8,0.3v-3.2h-12.9v1.3c0,0.3-0.3,0.6-0.8,1.1l9.6,5.9c-0.4,0.6-1.1,0.7-2.2,0.4c-5.6,4.2-17,8.5-26.7,9.7
						l-0.4-0.8c6.2-3.1,13-8.9,16.9-13.8c-1.4,0.5-3.1,0.8-4.8,0.8h-1.5V28.2l10.3,4.1h1.5c0.1-2,0.1-5.1,0.1-7.7H190l1.3,1.2
						c-0.2,0.8-1,1.1-2,1.1h-8.4v42.1c0,6.6-1.6,11.3-12.2,12c-0.1-3.4-0.4-5.8-1.3-7.3c-0.9-1.5-2.2-2.7-5.7-3.3v-0.8
						c0,0,6,0.3,7.4,0.3c1.1,0,1.3-0.5,1.3-1.3V26.9h-8.9l-0.6-2H177l5.1-7.1c0,0,2.9,2.3,5.7,4.8h25.6
						C213.4,22.6,218.5,16.1,218.5,16.1z M199.6,34.2v7.9h12.9v-7.9H199.6z M199.6,52.1h12.9v-8h-12.9V52.1z M212.6,62.3v-8.3h-12.9
						v8.3H212.6z"/>
					<path class="st0" d="M295.2,58.6c0,0,3.9,3.1,6.2,5.2c-0.2,0.8-0.9,1.1-1.8,1.1h-9.3c-0.7,2.2-1.7,4.3-3.4,6.2
						c19.7,4,8.5,13.9,0.5,10.5c-2.1-1.6-5.2-3.3-8.9-5c-5.3,2.2-13,4.1-24.3,5.5l-0.4-1.1c8.5-2.2,14.4-4.4,18.5-6.8
						c-3.9-1.3-8.3-2.5-13-3.4l0.1-0.1c1-1.5,2.4-3.6,3.6-5.9h-7.8l-0.6-2h9.5c0.8-1.5,1.5-2.9,2.2-4.3c-1,0.9-4.3,2.2-7.3,2.2h-1.2
						V43.2l1.8,0.6v-9.5h-2.2l0.1,0.2c-0.1,0.8-0.8,1.1-1.8,1.1h-6.2v3.4c13.2,6.3,6.2,16.6,1.3,11.5c0.4-2.9-0.3-6.4-1.3-9.2v37.9
						c0,0.9-3.7,3-6.9,3H241V56.8c-1.9,3.2-4.1,6.2-6.6,9l-0.8-0.8c3.8-8.1,5.8-19,6.9-29.3h-6.1l-0.6-2h7.2v-18l11.1,1.1
						c-0.1,1-0.7,1.7-2.6,2v14.6l2.7-4.4c0,0,2,1.9,3.6,3.8l-0.1-0.3h3.8V22.2l9.1,3.5h3.6v-9.5l11.8,1c-0.1,1-0.6,1.7-2.5,2v6.4
						h3.3l3.7-3.9l7.6,5.6c-0.3,0.4-1,0.8-2,1v3l2.2-3.2c0,0,3.2,2.9,5,5c-0.2,0.8-0.8,1.1-1.8,1.1h-5.5v7.1c0,0.3-1,0.9-2.3,1.4
						l7.7,5.7c-0.4,0.4-1,0.9-2.2,1.2v6.4c-0.1,0.6-4.4,2.4-7.4,2.4h-1.6v-2h-16l7.1,1.3c-0.2,0.8-0.8,1.6-3.2,1.8
						c-0.6,1-1.2,2.2-2,3.4h6.4c0.4-1.5,0.5-3,0.6-4.6l12,0.9c-0.1,0.9-0.8,1.7-2.5,1.9c-0.1,0.6-0.2,1.2-0.4,1.8h1L295.2,58.6
						L295.2,58.6z M268.4,42.4c0,0.6-2.9,2.2-6,2.5l4.7,1.8h5.2v-5.6h-3.9L268.4,42.4L268.4,42.4z M272.3,54.7v-6h-5.7v6H272.3z
						 M266.6,58.2l0.7-1.6h-0.7V58.2z M268.4,32.5h3.9v-4.8h-3.9V32.5z M268.4,34.4v4.8h3.9v-4.8H268.4z M273.4,65
						c-1,1.6-2,3.3-3,4.7c2.7,0.1,5,0.2,7.2,0.3c1.4-1.6,2.2-3.3,2.9-5H273.4L273.4,65z M281.6,27.7v4.8h3.9v-4.8
						C285.5,27.7,281.6,27.7,281.6,27.7z M285.5,34.4h-3.9v4.8h3.9C285.5,39.2,285.5,34.4,285.5,34.4z M291.4,43.1
						c-1.4,0.5-3,0.9-4.3,0.9h-1.6v-2.9h-3.9v5.6h6.3L291.4,43.1z M288.5,54.6v-6h-6.9v6H288.5z"/>
					<path class="st0" d="M374.6,30c-0.6,0.6-1.3,0.8-2.7,0.9c-2.5,2.4-6.5,5.8-9.7,7.7l-0.6-0.4c0.1-0.8,0.2-1.7,0.3-2.6
						c-0.5,0.2-1.2,0.1-2-0.6c-2.7,0.4-9.1,0.8-13.9,0.6l-0.3-0.8c2.9-1.5,7.2-4.1,9.8-5.9h-11v13.4l9.3,1.5
						c-0.2,0.8-0.8,1.1-2.6,1.1c-0.6,0.9-1.2,1.8-1.8,2.7h7l2.9-2.7h-0.4c-3.1-2.3-9.3-5.5-13.7-6.9l0.4-0.9
						c15.4-2.9,18.9,4.6,16,7.1l6.4,5.6c-0.5,0.6-1.2,0.8-2.9,1c-1.7,2.2-3.7,4.2-6.1,6.1c3.9,0.7,8.1,1,12.2,1.2v0.8
						c-3,1-4.8,3.7-5.5,7.6c-1-0.2-2-0.5-2.9-0.8l2.9,2.1c-0.3,0.3-0.9,0.8-1.8,1v10.2c-0.1,0.6-4.5,2.1-7.3,2.1h-1.6v-2.5h-7.4v0.4
						c0,0.6-2.7,2.6-7.1,2.6h-1.6V66.4c-1.7,0.4-3.4,0.8-5.2,1.2l-0.5-0.9c5.5-2.2,10.7-5.2,15-8.7c-1.5-1.4-2.8-2.9-4-4.8
						c-2.5,2.4-5.4,4.5-8.4,6l-0.7-0.6c3.4-3.7,6.3-9.9,7.8-15.4c-1.4,0.5-3.6,1-6.6,1h-1.8V29h-19c1.1,5.1-0.5,8.9-3.1,10.1
						c-2.5,1.3-5.6,0.3-6.5-2.6c-0.7-2.9,1-4.8,3.5-5.9c1.8-1.3,3.6-4.4,2.9-7.6l0.9-0.1c0.8,1.4,1.3,2.8,1.8,4.1h19.5v-4.6h-18.3
						l-0.6-2h36.5l4.3-5.5c0,0,4.9,3.7,7.8,6.3c-0.1,0.8-0.9,1.1-1.9,1.1h-18V27h17l4.7-4.8L374.6,30L374.6,30z M328.6,71.3
						c3.2-0.3,6.6-0.8,10.1-1.2l0.1,0.8c-5,2.5-12.3,5.9-23.5,10.2c-0.4,0.9-1.2,1.5-2,1.7l-4.5-9.5c0.9-0.1,2-0.1,3.2-0.3v-12
						l7.9,0.7c-0.1,0.6-0.4,1-1.4,1.3v9.4l2.3-0.2v-15h-0.7c-0.8,0.8-3.9,2-6.6,2h-1V42.9l6.4,2.5l-2.9-7.5
						c2.3-0.1,6.8-0.6,11.8-1.2c-2.9-1.6-7.8-3.7-11.5-4.7l0.4-1c13.6-3.9,16.9,3,14.1,5.3l1.9-0.2l0.1,0.9c-2.5,1.6-6.5,4.1-12,7.1
						c-0.3,0.8-0.8,1.3-1.4,1.5l1.2,0.5h7l3.4-3.6l7.3,5.4c-0.4,0.4-1.1,0.9-2.2,1.1v7.7c-0.1,0.5-4.1,1.8-6.6,1.8h-1v4.4l3.3-4.3
						c0,0,3.9,3.2,6.2,5.4c-0.1,0.8-0.8,1.1-1.8,1.1h-7.7L328.6,71.3L328.6,71.3z M328.2,55.2V48h-7.8v7.2H328.2z M357.1,63.5
						c-1.6-0.7-3.1-1.5-4.5-2.4c-2.4,1.3-4.9,2.5-7.6,3.4l3.8,1.4h6L357.1,63.5L357.1,63.5z M347.9,49.6c-0.6,0.8-1.3,1.5-2,2.2
						c1.7,1.3,3.6,2.2,5.9,3.1c1.6-1.7,3.1-3.4,4.3-5.2H347.9z M355.2,76.6v-8.6h-7.4v8.6H355.2z M361.9,35.2c0.2-2,0.4-4.3,0.4-6.2
						h-4.5L361.9,35.2L361.9,35.2z"/>
					<path class="st0" d="M420.6,26.4c31.1,5.9,24.9,27.6,14.1,21.1c-0.9-2.5-2.3-5-3.9-7.6c-9.9,2.4-24.4,5.2-42.4,8.2
						c-0.8,0.9-1.8,1.5-2.7,1.8L383,38.3c0,0,2.2-0.4,3.2-1c6.6-3.1,16.8-14.9,19.7-21.7l13.8,5.2c-0.3,0.8-1.1,1.4-2.7,1.3
						c-5.5,5.5-15.6,12-24.6,16.2c9.2,0,22.8-0.2,37.1-0.6c-2.9-4.1-6.2-7.9-9.5-10.9L420.6,26.4L420.6,26.4z M428.8,48.1l10,7.7
						c-0.5,0.6-1.5,1.4-3.2,1.8v22c-0.1,0.5-5.5,2.2-9,2.2h-1.8v-6.2H401v3.2c0,1.1-4.8,3.4-9.2,3.4h-1.5v-33l11.3,4.3H424
						L428.8,48.1L428.8,48.1z M424.8,73.7V55.5H401v18.2H424.8z"/>
					<path class="st0" d="M76.7,151.3c-0.4,0.6-1.1,1.1-2.7,0.7c-3,1.4-7.1,2.8-11.2,3.9c5.6,3.3,12.5,5,19.5,6.2l-0.1,0.8
						c-4,1-6.7,4.2-7.8,9c-11.5-4.7-19.2-11.2-23-25.4c-2.4,2-5.2,3.9-8.4,5.4v8.6c3.3-0.8,6.9-1.6,10.4-2.5l0.1,0.7
						c-3,2.7-9.1,7.6-16.7,12.7c-0.6,0.8-1.1,1.3-1.8,1.7l-6-9.1c3.5-2,4.1-2.8,4.1-4.3v-4c-5.4,1.7-11.4,2.9-17.8,3.9l-0.3-0.8
						c9.9-3.2,18.3-8.3,23.6-13.7H16.4l-0.6-2H47c-0.5-0.2-1-0.4-1.5-0.8c-0.1-1.7-0.8-3.4-1.7-4.9c-1.5,0.6-4,1.2-6.3,1.2h-1.7
						v-12.3h-5c-0.8,5.9-3.9,11.5-13.3,15.2l-0.8-0.9c4.6-4.5,5.2-9.4,5.4-14.3h-4.4l-0.6-2h18.8v-5.5h-6.4l-2.7,3.7l-8.8-4.4
						c0.6-0.8,1.7-1.6,2.7-2.3v-8.3l10.3,1c-0.1,0.8-0.6,1.4-2,1.6v6.7h6.9v-10.8l12.2,1.1c-0.1,1-0.6,1.7-2.6,2v25.3
						c1.2,0,2.2,0.1,3.1,0.3L48,133h8.8v-13.1H46.5l-0.6-2h10.9v-12l12.7,1c-0.1,1.1-0.6,1.8-2.5,2v9h1.4l4.8-6c0,0,5.3,4.1,8.5,6.9
						c-0.1,0.8-0.9,1.1-2,1.1H67V133h0.8l4.6-5.8c0,0,5.2,3.9,8.3,6.6c-0.1,0.8-0.9,1.1-2,1.1H50c5.7,1.8,4.4,6.8,0.8,8.1h17.3
						l4.8-6.6c0,0,5.5,4.4,8.6,7.4c-0.2,0.8-1,1.1-2,1.1h-12L76.7,151.3L76.7,151.3z M52.6,145.4c1.8,3.5,4.3,6.3,7.3,8.5
						c2.8-2.9,5.5-6.4,7.1-8.9H53C53,145,52.6,145.4,52.6,145.4z"/>
					<path class="st0" d="M88.3,122.6c20.4,0.9,12.8,16.7,4.5,10.9c-0.5-3.9-2.7-8-5-10.6C87.8,123,88.3,122.6,88.3,122.6z
						 M110.9,118.5c-2.5,8.5-6.9,24.2-7.7,28.2c-0.6,2.4-1.1,5.1-1.1,6.9c0.1,4.1,3.5,6.1,3.3,12.5c-0.1,3.7-2.9,6.3-6.9,6.3
						c-1.8,0-3.9-0.8-4.7-3.6c1.5-7.2,1.3-14.1-0.5-15.3c-1-0.6-2.2-1.1-3.7-1.1V151h3.2c1.1,0,1.5,0,2.3-1.5
						c1.1-1.8,6-12.3,14.7-31.4L110.9,118.5z M93.4,107.5c21.3-0.3,15,16.2,6.1,11.2c-1.1-3.9-4.1-8.2-6.6-10.8L93.4,107.5z
						 M132.4,163.3c-0.5,0.8-1.8,1.3-4.1,1.1c-5,3.6-13.7,6.8-22.5,8.3l-0.3-0.7c5.9-3.4,11.8-9,14.8-13.4c-1.1,0.6-3.3,1.1-6.2,1.1
						h-1.5v-27.7l9.4,3.6h17.9l4.2-4.8l7.8,5.9c-0.4,0.6-1.1,1.1-2.7,1.4v18.5c0,0.4-2.9,1.9-7.5,1.9h-1.6v-2.4h-18.9v1.6
						L132.4,163.3L132.4,163.3z M148,122.8c0,0,4.5,3.6,7.1,6.2c-0.2,0.8-0.9,1.1-1.9,1.1h-43.1l-0.6-2H144
						C144,128.1,148,122.7,148,122.8z M111.2,114.3h6.7v-8.1l11.2,1c-0.1,0.9-0.7,1.7-2.6,2v5.2h7.6v-8.1l11.2,1
						c-0.1,0.9-0.7,1.7-2.6,2v5.2h0.1l3.9-5.5c0,0,4.4,3.8,6.9,6.4c-0.1,0.8-0.9,1.1-1.8,1.1h-9v8.9c0,0.6-3.8,1.8-7.1,1.8h-1.5
						v-3.8h-7.6v2c0,0.6-3.8,1.8-7.1,1.8h-1.5v-10.6h-6.2C111.8,116.2,111.2,114.3,111.2,114.3z M121.2,137.4v7.4h5.1v-7.4H121.2z
						 M126.3,154.1v-7.4h-5.1v7.4H126.3z M126.5,116.2v4.9h7.6v-4.9H126.5z M132.4,159.2c25.8-2.5,24.4,15.4,14.6,13.1
						c-3.5-4.3-10.1-9.7-15.1-12.5L132.4,159.2z M134.9,137.4v7.4h5.2v-7.4H134.9z M140.1,154.1v-7.4h-5.2v7.4H140.1z"/>
					<path class="st0" d="M185.4,114.8c0,0,4.3,3.5,6.9,5.9c-0.1,0.8-0.9,1.1-1.9,1.1h-28.7l-0.6-2h20.4L185.4,114.8L185.4,114.8z
						 M201.8,116.6c0,5.7-1.4,15.4-13.6,20.9c0.6,0.5,1.1,0.9,1.5,1.3c-0.2,0.8-0.9,1.1-1.9,1.1h-23.2l-0.6-2h15.2l3.7-4.8
						c0,0,2,1.5,4.1,3.3c5.3-6.2,5.9-13.9,5.9-19.9v-9l10.4,3.6h4l4.3-4.7l7.8,6.2c-0.4,0.5-1.3,0.8-2.5,1.1v10c0,0.7,0.2,1,1,1h2.8
						c0.4,0,1.3-0.1,1.7-0.1c0.5-0.1,1.3-0.2,1.8-0.3h0.6l0.4,0.1c2,1,2.6,1.9,2.6,3.5c0,3.4-2.9,5.2-9.8,5.2h-3.3
						c-5.9,0-6.6-1.8-6.6-7.1v-12.9h-6.2L201.8,116.6L201.8,116.6z M179.2,128.8l3.7-4.8c0,0,4.2,3.3,6.7,5.7
						c-0.2,0.8-0.9,1.1-1.9,1.1h-23.2l-0.6-2L179.2,128.8L179.2,128.8z M179.4,168.7v-4h-5.9v4.2c0,0.8-3.7,2.7-7.4,2.7h-1.3v-27.9
						l8.9,3.5h5l3.9-4.1l8,6c-0.4,0.5-1.2,1-2.4,1.3v16c-0.1,0.6-4.3,2.4-7.2,2.4L179.4,168.7L179.4,168.7z M168.2,107.3
						c20.9-0.7,13,15.7,4.2,9.9c-0.5-3.6-2.6-7.3-4.6-9.6C167.8,107.6,168.2,107.3,168.2,107.3z M179.4,162.8v-13.6h-5.9v13.6H179.4
						z M223.6,140.9c-0.5,0.8-1.2,1.1-2.9,1.2c-2.3,5.7-5.5,10.9-9.9,15.3c5,2.4,10.6,3.9,16.4,5l-0.1,0.8c-4,0.9-6.8,4-8.1,8.6
						c-5.8-2.4-10.7-5.2-14.6-9.1c-6.2,4.3-14,7.6-23.7,9.6l-0.4-0.8c8.3-3.3,15-8,20-13.6c-3-4.5-5.3-10.1-6.8-17.5h-2.8l-0.6-2
						h19.7l5.2-5L223.6,140.9L223.6,140.9z M194.7,140.3c2,5.5,5.2,9.7,9.3,12.9c2.7-3.9,4.8-8.3,6.2-12.9H194.7z"/>
					<path class="st0" d="M263.5,114c0,0,4.9,3.8,7.8,6.5c-0.1,0.8-0.9,1.1-1.9,1.1h-35.1l-0.6-2h25.3
						C259.1,119.7,263.5,114,263.5,114z M255.6,128.8l4.3-5.6c0,0,4.9,3.8,7.8,6.4c-0.2,0.8-0.9,1.1-1.9,1.1H238l-0.6-2L255.6,128.8
						L255.6,128.8z M259.9,132.3c0,0,4.9,3.8,7.8,6.4c-0.2,0.8-0.9,1.1-1.9,1.1H238l-0.6-2h18.1L259.9,132.3L259.9,132.3z
						 M260,143.2l8.4,6.4c-0.4,0.5-1.3,1.1-2.7,1.4v15.5c-0.1,0.6-4.5,2.4-7.6,2.4h-1.5v-4.1h-9v4c0,0.8-3.9,2.8-7.6,2.8h-1.3V144
						l9.2,3.6h8L260,143.2L260,143.2z M243.7,106.6c21.6-0.6,13.5,16.4,4.5,10.4c-0.6-3.8-2.7-7.7-4.9-10.1L243.7,106.6z
						 M256.6,162.7v-13.2h-9v13.2H256.6z M293.1,126c0,0,5.2,4.2,8.2,7c-0.2,0.8-1,1.1-2,1.1h-11.8v34.6c0,1-4.3,3.4-8,3.4h-1.9
						v-38.1h-10.3l-0.6-2h10.9v-25.8l12.5,1.2c-0.1,1-0.6,1.8-2.6,2v22.5h1L293.1,126L293.1,126z"/>
					<path class="st0" d="M347.5,136.5c-0.5,0.6-1.3,0.9-2.8,0.6c7.4,2.8,18.9,4,29.1,3.6l-0.1,0.8c-3.6,1.1-6.4,4.6-7.1,9.3
						c-11.3-2-19.2-5.7-24.6-12.1l-1.3,0.9l8.8,6.3c-0.1,0.2-0.4,0.4-0.6,0.4l8.7,7.4c-0.4,0.5-1.3,0.6-2.5,0.2
						c-9.2,5.5-27,10.3-42.6,10.3l-0.3-0.9c13.5-2.9,29-10.2,36.2-16.9c-0.4,0-0.8-0.1-1.3-0.2c-7.3,5-21.6,9.8-34,10.9l-0.4-0.9
						c9.4-3.1,19.9-9.5,25.8-15.2c-9.6,5.9-19.7,8.8-31.4,10.3l-0.3-0.9c10.1-3.6,18.5-8.7,25.8-16.4c-0.6-0.2-1.3-0.5-2-1
						c-0.1-0.4-0.1-0.7-0.2-1.1c-3.9,2.2-10.1,5.3-17.5,8.4c-0.4,0.5-0.8,0.8-1.3,1.1l-3.8-9.2c0,0,1.5-0.3,2.2-0.6
						c2.8-1.4,6.4-6.1,8.3-9.3l-2.3-5.8c0,0,1.6-0.2,2.6-0.6c6.1-1.5,14.6-8,17.3-11.3l11.8,5.3c-0.3,0.7-1.2,1.2-2.8,1
						c-4.1,2.1-10.6,4.2-16.9,5.8c6.9-0.2,15.8-0.5,25-0.8c-1.9-2-3.9-3.8-5.7-5.2l0.5-0.5c23.2-0.3,20,16.3,10.9,12.9
						c-1-1.9-2.7-3.9-4.4-5.9l-3.5,1l7.9,5c-0.3,0.5-1.1,0.9-2.4,0.6c-2.5,1.4-6,3.1-9.3,4.2c3.5,0.1,7.8,0,12.3,0
						c-0.4-1.3-1-2.6-1.5-3.6l0.7-0.3c15.8,4.7,8,16.2,2.1,10.7c-0.1-1.5-0.3-2.9-0.7-4.4c-3.8,1.3-9,3.1-14.7,4.8L347.5,136.5
						L347.5,136.5z M309.6,170.1c18.6-1.5,39.7-8.8,49.1-16.7l8.6,8.8c-0.5,0.5-1.3,0.6-2.6,0.1c-11.8,6.6-34.5,11-55,8.8
						L309.6,170.1L309.6,170.1z M328.2,128.1c-0.4,0.5-1.3,0.8-2.6,0.3c-1.9,1.1-4.5,2.4-7.4,3.5c3.6-0.4,7.7-0.8,11.9-1.3
						c-0.7-2.2-1.8-4.4-2.9-5.9l0.6-0.3c6.9,0.8,9.5,3.6,9.7,6l3.5,2.2l-2.4-4.8c0,0,1.3-0.3,2-0.6c2.3-1.2,5.1-5,6.8-8
						c-6.3,1.6-14.3,3.5-23.6,5.5L328.2,128.1L328.2,128.1z"/>
					<path class="st0" d="M436.9,120.9c0,0,5.2,4.3,8.3,7.3c-0.2,0.8-1,1.1-2,1.1h-21.8c-5,3.5-10.5,6.8-16.5,9.8h21l4.6-6.3
						c0,0,5.2,4.3,8.3,7.1c-0.1,0.8-0.9,1.1-2,1.1h-22.7c-0.8,2.6-2,6.2-2.9,8.8h12.3l4.8-4.4l8.3,6.8c-0.6,0.6-1.3,1.1-2.8,1.3
						c-1.1,9-3.1,14.5-6.9,16.7c-2.4,1.5-5.2,2.1-9.9,2.1c0-2.5-0.3-4.8-1.7-6.1c-1.4-1.5-4.2-2.6-7.6-3.3v-0.8
						c3.6,0.3,9.1,0.6,10.6,0.6c1.1,0,1.8-0.1,2.4-0.5c1.3-0.9,2.5-4.8,3.2-10.4h-13l-3.4,4.1l-9-5c0.6-0.6,1.6-1.3,2.6-1.8
						c0.8-2.4,1.8-5.7,2.5-8.1H401c-6.9,3.2-14.4,5.9-22.2,7.9l-0.4-0.8c10.9-4.9,21.3-11.6,30.1-18.8h-27.6l-0.6-2h21.2V118h-15.4
						l-0.6-2h16v-9.9l12.7,1c-0.1,0.9-0.5,1.5-2.2,1.8v7.1h0.9l4.3-5.9c0,0,3.3,2.8,6,5.3c2.5-2.7,4.6-5.4,6.4-7.9l11.5,6.6
						c-0.4,0.7-1.2,1.1-2.9,0.8c-3.7,4.1-8.5,8.3-14,12.5h8L436.9,120.9L436.9,120.9z M412,118v8.4c3.2-2.8,6.2-5.6,8.8-8.4H412z"/>
				</g>
			</g>
		</g>
	</g>
</g>
</svg>
