<?xml version="1.0" encoding="UTF-8"?>
<svg id="_圖層_2" data-name="圖層 2" xmlns="http://www.w3.org/2000/svg" viewBox="0 0 783.39 136.96">
  <defs>
    <style>
      .cls-1 {
        fill: #fff;
        opacity: .7;
      }

      .cls-2 {
        fill: #231815;
      }
    </style>
  </defs>
  <g id="_圖層_1-2" data-name="圖層 1">
    <rect class="cls-1" width="783.39" height="136.96" rx="30" ry="30"/>
    <g>
      <path class="cls-2" d="M41.49,53.38s2.52,1.89,4.03,3.25c-.11,.39-.46,.56-.98,.56H13.28l-.28-1.02h14.35v-10.47h-10.26l-.28-1.01h10.54v-8.96H15.62l-.32-1.02h22.61l2.13-2.73s2.45,1.82,3.99,3.19c-.11,.38-.49,.56-.98,.56h-12.11v8.96h5.67l2.13-2.63s2.35,1.79,3.82,3.08c-.07,.38-.45,.56-.98,.56h-10.64v10.47h8.33l2.21-2.8ZM23.67,26.39c11.38,1.26,9.59,8.86,5.74,6.9-1.02-2.38-3.75-5.04-6.02-6.58l.28-.32Z"/>
      <path class="cls-2" d="M74.15,28.6c.42,13.51,2.03,21.6,8.33,26.18l-.07,.42c-1.51,.35-2.52,1.58-2.94,3.46-3.61-3.75-5.04-10.54-5.63-19.6-.67,8.02-2.84,14.81-10.82,19.71l-.42-.53c1.64-1.47,2.94-2.98,4.03-4.62h-12.15l-1.09,1.75-3.5-2.14c.25-.28,.63-.63,1.02-.88V27.16l3.85,1.96h8.16l1.96-2.62s2.21,1.82,3.54,3.08c-.11,.38-.45,.56-.95,.56h-6.2v6.2h2.48l1.51-1.61,2.87,2.49c-.24,.28-.7,.53-1.26,.63v7.84c-.07,.14-1.33,.7-2.55,.7h-.63v-1.61h-2.41v7.84h1.43l1.86-2.55s1.51,1.33,2.7,2.49c4.03-7.07,3.61-15.86,3.64-26.29l4.52,.46c-.07,.53-.38,.88-1.26,.98v.91Zm-15.96,7.74v-6.2h-3.99v6.2h3.99Zm5.5,1.01h-9.49v6.41h9.49v-6.41Zm-5.5,15.26v-7.84h-3.99v7.84h3.99Z"/>
      <path class="cls-2" d="M93.01,39.03c0,6.2-.45,14.25-7,19.6l-.46-.31c3.78-5.64,4.2-12.71,4.2-19.29v-10.43l3.08,1.19c6.72-.77,14.91-2.24,19.36-3.54l3.26,3.33c-.38,.32-1.12,.32-2.13-.1-5.32,.63-13.34,1.08-20.3,1.05v2.42h18.13l1.58-1.71,3.46,2.55c-.21,.28-.7,.56-1.37,.7v4.94c-.04,.25-1.68,.91-2.8,.91h-.56v-1.37h-18.45v.07Zm20.97,2.49s2.06,1.58,3.36,2.76c-.11,.39-.49,.56-.95,.56h-13.16c-.11,1.19-.28,2.31-.56,3.46h7.56l1.75-1.64,3.19,2.62c-.21,.28-.66,.45-1.37,.53-.38,4.09-1.19,6.79-2.66,7.74-.98,.63-2.28,.98-3.92,.98,0-.91-.14-1.75-.63-2.21-.53-.49-1.79-.91-3.19-1.12v-.49c1.4,.1,3.74,.28,4.45,.28,.59,0,.91-.07,1.19-.25,.63-.49,1.15-2.52,1.47-5.43h-8.16c-1.15,3.61-3.96,6.93-10.92,9.42l-.35-.53c7.49-4.03,8.23-8.75,8.4-13.37h-5.53l-.28-1.02h11.27c-.28-.03-.59-.14-.91-.35-.31-1.29-1.33-2.8-2.13-3.68l.31-.21c5.95,.39,5.29,3.96,3.29,4.24h6.65l1.82-2.31Zm-20.97-7.56v3.99h18.45v-3.99h-18.45Z"/>
      <path class="cls-2" d="M139.28,47.36c-3.36,2-8.02,4.66-14.67,7.7-.14,.42-.46,.81-.84,.95l-1.92-3.96c1.15-.25,2.9-.7,4.97-1.3l-.35-22.61,4.62,.35c-.04,.49-.31,.88-1.26,1.01l.31,20.27c2.8-.88,5.95-1.86,9-2.87l.14,.45Zm13.23-18.62c-.07,.52-.49,.95-1.33,1.01-.31,7.46-.84,13.76-4.48,18.83,10.75,4.62,8.61,11.66,4.9,9.35-1.01-2.62-3.43-5.81-5.67-8.3-3.04,3.67-7.88,6.72-15.75,9.14l-.31-.6c16.38-7.35,17.4-16.38,17.68-29.93l4.97,.49Zm-18.38,3.43c10.82,3.57,8.26,10.71,4.73,8.23-.74-2.63-3.15-5.88-5.08-8.02l.35-.21Z"/>
      <path class="cls-2" d="M158.67,34.3c8.09,1.16,5.6,7,2.62,4.94-.31-1.65-1.64-3.57-2.94-4.69l.31-.25Zm10.12-1.75c-1.44,4.31-4.06,12.29-4.52,14.11-.32,1.12-.56,2.28-.53,3.15,.04,1.75,1.22,3.25,1.12,6.23-.07,1.65-.98,2.66-2.41,2.66-.7,0-1.33-.53-1.51-1.75,.56-3.68,.38-6.76-.42-7.28-.49-.35-.98-.49-1.75-.56v-.7h1.54c.49,0,.59-.04,.98-.7q.67-1.3,6.86-15.33l.63,.17Zm-7.7-6.06c8.51,1.4,6.02,7.32,2.97,5.29-.46-1.75-1.99-3.78-3.29-5.04l.31-.25Zm28.18,28.04s1.61,1.68,2.48,2.8c-.1,.38-.42,.56-.91,.56h-25.2l-.28-1.02h3.54v-13.34l3.36,1.37h12.36l1.44-1.89,3.64,2.56c-.24,.35-.7,.56-1.61,.7v10.22l1.19-1.96Zm-16.17-12.36c0,.25-1.02,.84-2.62,.84h-.53v-15.79l3.54,1.36h10.43l1.51-1.79,3.18,2.38c-.24,.31-.59,.52-1.36,.63v11.94c0,.17-1.09,.8-2.66,.8h-.56v-1.79h-10.92v1.4Zm-1.19,14.7h2.59v-10.96h-2.59v10.96Zm1.19-27.27v10.15h10.92v-10.15h-10.92Zm8.05,1.5c-.14,.35-.38,.6-1.22,.6-.28,.8-.67,1.61-1.12,2.41,5.99,1.4,4.52,5.36,2.31,4.13-.49-1.08-1.64-2.49-2.77-3.46-1.08,1.61-2.59,3.01-4.58,3.85l-.28-.49c2.42-1.89,3.61-5.18,3.96-8.12l3.71,1.08Zm-1.44,14.81h-2.62v10.96h2.62v-10.96Zm2.59,0v10.96h2.66v-10.96h-2.66Z"/>
      <path class="cls-2" d="M199.13,50.79v3.29c0,.25-.95,.98-2.41,.98h-.49V28.32l3.36,1.5h2.77l1.51-1.75,3.22,2.55c-.21,.28-.77,.6-1.47,.74v21.18c-.04,.24-1.44,.94-2.45,.94h-.46v-2.7h-3.57Zm0-19.99v9.03h3.57v-9.03h-3.57Zm3.57,18.97v-8.93h-3.57v8.93h3.57Zm22.51-3.19c-.28,.35-.63,.42-1.44,.49-1.05,2.17-2.48,4.1-4.23,5.78,2.38,1.23,5.21,2.07,8.22,2.62v.39c-1.29,.28-2.17,1.26-2.52,2.73-3.08-.98-5.67-2.31-7.77-4.13-2.83,2-6.44,3.46-10.88,4.34l-.25-.56c3.92-1.22,7.14-3.01,9.59-5.25-1.33-1.5-2.45-3.33-3.26-5.5-1.89,4.45-4.9,8.09-9.8,10.82l-.31-.39c4.9-4.03,7.38-9.24,8.51-15.12h-4.59l-.28-1.02h5.04c.18-1.15,.31-2.27,.38-3.46h-3.78l-.28-1.02h10.99c.73-1.92,1.68-4.87,2.38-7.46l4.06,1.43c-.17,.39-.59,.7-1.33,.63-1.29,1.85-2.8,3.85-4.13,5.39h1.33l1.79-2.27s2.03,1.58,3.25,2.73c-.1,.39-.45,.56-.91,.56h-10.04c-.14,1.19-.31,2.35-.56,3.46h8.26l1.86-2.38s2.06,1.65,3.32,2.83c-.11,.39-.42,.56-.95,.56h-12.71c-.25,.98-.49,1.89-.81,2.8h6.97l1.82-1.71,3.04,2.7Zm.18-17.33c-.32,.28-1.05,.32-2-.1-4.03,.7-10.29,1.22-15.82,1.12l-.07-.59c5.14-.66,11.48-2.31,14.74-3.64l3.15,3.22Zm-16.94,1.86c6.97,2.45,4.38,7.32,1.93,5.32-.21-1.68-1.33-3.75-2.31-5.11l.38-.21Zm4.66,15.51c1.05,1.96,2.48,3.57,4.27,4.87,1.26-1.47,2.27-3.08,2.97-4.87h-7.25Zm.63-16.17c6.65,2.91,3.71,7.7,1.37,5.5-.11-1.79-.98-3.89-1.79-5.32l.42-.17Z"/>
      <path class="cls-2" d="M236.09,30.8c.14,2.1-.63,3.5-1.61,4.09-.95,.56-2.31,.42-2.7-.63-.32-.98,.28-1.75,1.12-2.17,1.15-.6,2.17-2.24,2-3.92l.56-.04c.21,.6,.39,1.12,.49,1.65h11.55c-.24-.07-.49-.21-.77-.38-.07-1.16-.98-2.45-1.92-3.12l.28-.25c5.85-.17,5.5,3.15,3.61,3.75h10.5l1.75-1.79,3.12,3.01c-.25,.28-.63,.35-1.3,.38-.88,.95-2.41,2.21-3.64,2.91l-.39-.21c.25-.88,.49-2.2,.7-3.29h-23.35Zm25.1,14.11s1.93,1.61,3.08,2.76c-.11,.39-.46,.56-.95,.56h-3.95c.7,.52,2.1,1.61,3.08,2.49-.07,.38-.45,.56-.95,.56h-11.97v3.5c0,2.27-.63,3.71-4.69,4.03-.07-.98-.28-1.75-.73-2.21-.56-.49-1.4-.84-3.22-1.09l-.04-.46s3.82,.25,4.62,.25c.56,0,.73-.21,.73-.56v-3.47h-13.09l-.28-1.01h24.33l1.64-2.03h-26.67l-.28-1.02h4.31v-7.35l3.54,1.44h15.89l1.44-1.51,3.08,2.31c-.17,.17-.56,.42-1.08,.53v4.58h.42l1.75-2.31Zm-21.84-12.57c.8,3.29-.6,5.5-2.03,6.23-.98,.49-2.28,.38-2.62-.59-.28-.91,.31-1.65,1.16-2.07,1.26-.49,2.76-1.89,2.94-3.61l.56,.04Zm-.07,14.88h3.5v-4.9h-3.5v4.9Zm2.21-15.09l3.81,.46c-.07,.45-.38,.73-1.05,.84v3.04c0,.74,.04,.81,1.12,.81h5.99c.6,0,.95-.04,1.19-.25,.18-.28,.46-.91,.8-2h.42l.07,1.85c.98,.42,1.12,.53,1.12,1.02,0,1.16-.95,1.82-3.75,1.82h-6.12c-3.04,0-3.61-.63-3.61-3.33v-4.27Zm3.75-.67c7.35,.21,5.67,5.67,2.83,4.17-.42-1.4-1.89-3.01-3.15-3.89l.32-.28Zm.52,10.85v4.9h3.57v-4.9h-3.57Zm6.55,0v4.9h3.57v-4.9h-3.57Zm1.4-9.87c9.13,1.4,7.14,7.84,3.96,5.95-.56-2.03-2.52-4.34-4.27-5.67l.32-.28Z"/>
      <path class="cls-2" d="M273.43,38.54v-3.22h-4.1l-.28-1.01h4.38v-3.04h-4.97l-.28-1.02h5.25v-4.03l4.34,.42c-.07,.49-.38,.81-1.23,.95v2.66h1.72l1.57-2.07s1.86,1.44,3.01,2.52c-.1,.38-.46,.56-.91,.56h-5.39v3.04h1.51l1.44-1.86s1.64,1.3,2.66,2.31c-.11,.38-.42,.56-.91,.56h-4.69v3.22h2.38l1.61-2.07s1.86,1.44,3.01,2.52c-.11,.38-.46,.56-.95,.56h-14.88l-.28-1.01h5.98Zm25.06,2.73s1.37,1.29,2.17,2.24c-.11,.38-.42,.56-.88,.56h-2.49v6.27c-.04,.21-1.44,.84-2.38,.84h-.49v-1.82h-3.12v5.18c0,2.24-.52,3.85-4.16,4.2-.04-.98-.25-1.79-.67-2.24-.49-.56-1.29-.91-2.94-1.12v-.53s3.39,.25,4.1,.25c.63,0,.77-.21,.77-.67v-5.08h-4.66l-.31-1.02h4.97v-4.27h-5.71l-.21-.8c-.21,.25-.7,.53-1.37,.67v11.31c0,2.03-.42,3.15-3.74,3.47-.04-.77-.18-1.47-.56-1.89-.38-.38-.98-.7-2.17-.91v-.53s2.38,.17,2.94,.17c.53,0,.63-.17,.63-.63v-3.99h-6.09c-.31,2.73-1.3,5.7-4.16,7.77l-.39-.35c1.79-3.15,1.79-7.18,1.79-10.71v-6.62l3.47,1.37h5.04l1.4-1.61,3.22,2.49-.07-.21h5.99v-4.06h-4.34l-.32-1.01h10.36l1.44-1.51,2.97,2.28c-.17,.25-.63,.46-1.22,.59v3.71l1.19-1.79Zm-20.27,8.65v-2.73h-5.92v.45c0,.7,0,1.47-.07,2.28h5.99Zm-5.92-6.51v2.77h5.92v-2.77h-5.92Zm26.88-14.25c-.35,.32-1.05,.35-1.96,0-3.57,.59-9.35,1.01-14.11,.95l-.14-.6c4.48-.67,10.08-2.21,12.95-3.36l3.26,3.01Zm-15.4,2.13c6.09,2.77,3.36,7.25,1.19,5.22,0-1.68-.84-3.71-1.61-5.01l.42-.21Zm4.45-.38c6.13,2.8,3.36,7.56,1.19,5.46,.17-1.75-.67-3.96-1.61-5.29l.42-.17Zm3.08,12.15h3.12v-4.06h-3.12v4.06Zm3.12,1.01h-3.12v4.27h3.12v-4.27Zm-1.68-6.97c.84-1.75,1.86-4.51,2.62-7.04l3.99,1.54c-.14,.42-.59,.7-1.33,.63-1.43,1.93-3.18,3.89-4.79,5.15l-.49-.28Z"/>
      <path class="cls-2" d="M337.14,46.62c-.28,.25-.7,.46-1.43,.53-.49,5.92-1.61,9.35-3.33,10.61-1.02,.7-2.35,1.05-3.92,1.05,0-.84-.14-1.65-.6-2.1-.49-.49-1.57-.88-2.8-1.09v-.56c1.19,.14,3.33,.28,4.06,.28,.6,0,.91-.07,1.23-.32,.88-.7,1.75-3.67,2.21-8.33h-21.21c-2.06,2.06-4.41,3.96-7.11,5.53l-.38-.38c5.56-4.38,9.55-10.57,12.21-16.84h-9.45l-.32-1.02h10.19c1.08-2.7,1.92-5.39,2.52-7.95l4.62,1.33c-.18,.46-.49,.7-1.47,.67-.63,1.92-1.37,3.92-2.28,5.95h5.78l1.33-1.4,2.94,2.31c-.25,.28-.56,.39-1.19,.42l-1.02,4.41h1.19l1.29-1.37,2.84,2.28c-.25,.28-.56,.38-1.16,.46l-.8,4.58h1.22l1.71-1.68,3.12,2.62Zm-26.25,2.45c1.51,4.34-.04,7.21-1.68,8.19-1.12,.7-2.59,.56-3.01-.52-.38-.98,.25-1.86,1.19-2.35,1.5-.77,3.05-2.8,2.97-5.29l.53-.04Zm-1.44-22.58c8.61,1.92,5.78,8.23,2.66,5.92-.31-2-1.68-4.27-3.01-5.71l.35-.21Zm6.72,14.25c-1.15,1.72-2.41,3.36-3.85,4.94h15.82l.91-4.94h-12.88Zm-1.44,8.23c5.74,4.62,1.86,9.7-.35,6.72,.49-2.17,.31-4.72-.11-6.62l.46-.11Zm4.66-13.97c-.73,1.58-1.61,3.19-2.59,4.73h7.91l1.05-4.73h-6.37Zm-.28,13.62c7.28,2.59,4.3,8.05,1.68,5.71-.07-1.82-1.05-4.06-2.06-5.5l.38-.21Zm4.9-.56c7.49,.67,5.56,6.12,2.73,4.48-.39-1.51-1.79-3.29-3.05-4.27l.32-.21Z"/>
      <path class="cls-2" d="M352.71,30.8s1.89,1.47,3.01,2.55c-.07,.38-.42,.56-.88,.56h-14.07l-.28-1.02h10.61l1.61-2.1Zm7.14,.67c0,2.94-.63,7.53-6.33,10.29,.24,.17,.46,.38,.63,.56-.11,.38-.42,.56-.91,.56h-10.96l-.28-1.02h7.74l1.58-2s1.12,.91,2.17,1.82l-.28-.35c3.22-3.01,3.64-6.72,3.64-9.87v-4.2l3.54,1.37h3.82l1.61-1.68,3.01,2.52c-.21,.24-.66,.42-1.29,.52v6.41c0,.38,.11,.52,.6,.52h1.12c.42,0,.84,0,1.05-.04h.63c.21-.03,.49-.1,.73-.14h.31l.14,.04c.8,.31,1.09,.59,1.09,1.19,0,1.19-1.05,1.82-4.31,1.82h-1.75c-2.28,0-2.59-.67-2.59-2.55v-7.6h-4.69v1.82Zm-10.12,5.88l1.58-1.96s1.75,1.37,2.83,2.41c-.11,.39-.42,.56-.91,.56h-10.96l-.28-1.02h7.74Zm3.39,18.83c-.03,.25-1.47,.91-2.45,.91h-.49v-1.79h-4.76v2.03c0,.32-1.3,.98-2.52,.98h-.42v-13.23l3.08,1.33h4.27l1.5-1.61,3.19,2.45c-.21,.25-.73,.53-1.4,.67v8.26Zm-8.64-29.58c8.16,1.12,5.43,7.14,2.31,5.01-.32-1.65-1.54-3.64-2.63-4.8l.32-.21Zm5.7,27.69v-6.86h-4.76v6.86h4.76Zm20.9-10.92c-.28,.35-.63,.46-1.43,.49-1.26,2.98-2.98,5.64-5.29,7.88,2.63,1.65,5.71,2.73,9.17,3.47l-.04,.38c-1.4,.21-2.38,1.22-2.84,2.8-3.36-1.19-6.12-2.7-8.4-4.83-2.9,2.24-6.62,3.99-11.27,5.15l-.28-.53c4.1-1.54,7.42-3.64,10.04-6.27-1.82-2.24-3.18-5.04-4.06-8.58h-1.85l-.32-1.02h11.48l1.96-1.82,3.12,2.87Zm-13.72-.03c1.09,2.83,2.77,5.11,4.9,6.93,1.68-2.1,2.97-4.45,3.85-6.93h-8.75Z"/>
      <path class="cls-2" d="M391.38,30.45s2.07,1.58,3.33,2.77c-.07,.38-.46,.56-.95,.56h-16.59l-.24-1.01h12.67l1.79-2.31Zm-3.43,6.79l1.75-2.2s1.96,1.5,3.15,2.66c-.11,.38-.46,.56-.91,.56h-12.95l-.28-1.01h9.24Zm1.75,2.31s1.96,1.51,3.15,2.66c-.11,.38-.46,.56-.91,.56h-12.95l-.28-1.01h9.24l1.75-2.21Zm.07,5.25l3.29,2.49c-.21,.28-.74,.56-1.44,.7v8.16c-.04,.25-1.51,.91-2.56,.91h-.49v-1.92h-6.16v2.1c0,.28-1.33,.98-2.59,.98h-.42v-13.09l3.15,1.33h5.67l1.54-1.65Zm-7.42-18.48c8.23,1.15,5.32,7.49,2.17,5.25-.18-1.79-1.37-3.85-2.49-5.08l.31-.17Zm6.23,27.83v-6.69h-6.16v6.69h6.16Zm17.92-17.61s2.13,1.71,3.36,2.91c-.11,.38-.42,.56-.91,.56h-6.93v17.4c0,.38-1.44,1.22-2.63,1.22h-.66v-18.62h-5.99l-.28-1.01h6.27v-12.64l4.55,.46c-.07,.49-.35,.88-1.26,1.02v11.17h2.59l1.89-2.45Z"/>
      <path class="cls-2" d="M428.84,33.6c-.24,.28-.77,.56-1.47,.74v21.11c-.04,.28-1.57,.98-2.66,.98h-.49v-2.7h-6.2v2.7c0,.35-1.19,1.12-2.52,1.12h-.53V31.29l3.22,1.47h.63c.32-1.86,.74-4.55,.98-6.48l4.83,1.16c-.17,.56-.63,.8-1.4,.8-.84,1.33-2.06,3.12-3.05,4.52h3.68l1.61-1.82,3.36,2.66Zm-10.82,.17v8.72h6.2v-8.72h-6.2Zm6.2,18.94v-9.21h-6.2v9.21h6.2Zm21.7-19.11c-.28,.32-.7,.53-1.51,.63-.24,13.58-.8,20.62-2.59,22.65-1.12,1.29-2.62,1.82-4.66,1.82,0-1.09-.17-1.92-.73-2.42-.6-.56-2-1.05-3.61-1.33l.04-.56c1.64,.17,4.1,.35,4.94,.35,.7,0,.98-.11,1.37-.46,1.29-1.26,1.71-8.61,1.96-20.58h-7.35c-1.61,2.91-3.5,5.46-5.6,7.35l-.49-.32c2.06-3.54,4.09-9.1,5.14-14.46l4.66,1.37c-.14,.42-.56,.73-1.33,.73-.53,1.51-1.16,2.94-1.86,4.31h6.44l1.89-2,3.29,2.91Zm-14.98,6.27c9.45,3.33,6.37,10.12,3.19,7.46-.28-2.42-1.96-5.36-3.5-7.25l.31-.21Z"/>
      <path class="cls-2" d="M480.92,44.35c-.03,.46-.35,.77-1.19,.91v12.29c0,.28-1.44,.84-2.66,.84h-.6v-2.83h-20.65l-1.08,1.79-3.46-2.2c.28-.28,.66-.67,1.08-.91v-10.47l4.59,.46c-.07,.38-.38,.7-1.37,.84v9.49h8.65v-13.76h-6.72l-1.09,1.75-3.39-2.13c.24-.28,.63-.63,1.05-.91v-9.91l4.55,.46c-.07,.38-.38,.7-1.37,.84v8.89h6.97v-13.34l4.62,.49c-.1,.49-.35,.84-1.26,.98v11.87h7.18v-10.15l4.45,.46c-.07,.45-.35,.77-1.22,.91v10.89c0,.28-1.44,.88-2.62,.88h-.6v-1.96h-7.18v13.76h8.89v-10.64l4.45,.46Z"/>
      <path class="cls-2" d="M500.69,49c-.25,.28-.67,.46-1.37,.53-.32,4.73-1.09,7.42-2.49,8.44-.88,.63-2.1,.95-3.64,.95,0-.84-.1-1.61-.63-2-.53-.49-1.68-.84-2.94-1.05v-.53c1.33,.11,3.54,.25,4.2,.25,.53,0,.8-.07,1.08-.28,.6-.49,1.09-2.66,1.4-6.2h-4.34l-1.29,1.5-2.91-2.13c.39-.28,.88-.53,1.44-.74,.32-1.71,.7-4.34,.8-5.81l3.4,1.43h2.66v-4.45h-4.03c-1.82,1.02-3.78,1.86-5.95,2.49l-.28-.46c2.83-1.4,5.39-3.29,7.46-5.46-.49,.17-1.08,.14-1.75-.28-.28-1.4-1.61-3.01-2.84-3.85l.28-.25c4.48,.04,5.63,1.93,5.32,3.26,1.26-1.51,2.31-3.12,3.08-4.76h-9.07l-.31-1.02h9.42l1.93-1.82,3.22,2.8c-.24,.32-.59,.42-1.43,.49-1.65,3.01-4.13,5.67-7.42,7.84h2.84l1.29-1.5,2.55,2.48c-.24,.25-.7,.53-1.26,.6v5.43c-.07,.1-1.33,.63-2.45,.63h-.6v-1.16h-3.54c-.18,1.16-.42,2.56-.67,3.71h4.17l1.57-1.58,3.08,2.49Zm17.33-16.8c-.21,.32-.53,.46-1.3,.28-1.12,.7-2.77,1.58-4.38,2.24,2.17,1.12,4.48,2,6.82,2.62l-.07,.39c-1.4,.25-2.41,1.29-2.87,2.87-1.12-.49-2.17-1.05-3.19-1.65-.28,.14-.6,.25-.98,.28v3.5c0,.32,.07,.42,.46,.42h.84c.28,0,.56,.04,.77,0h.52c.18-.03,.49-.07,.67-.14h.31l.18,.04c.77,.31,1.05,.56,1.05,1.08,0,1.16-1.05,1.5-3.96,1.5h-.42l3.08,2.7c-.28,.35-.63,.42-1.4,.49-.84,1.37-1.93,2.62-3.19,3.75,5.67,3.08,4.79,6.62,2.06,5.74-1.02-1.16-2.59-2.52-4.38-3.89-2.73,1.93-6.09,3.36-9.98,4.31l-.28-.49c3.19-1.26,6.02-3.08,8.29-5.22-1.68-1.08-3.36-2.13-4.87-2.87l.28-.42c2.42,.46,4.48,1.05,6.16,1.68,.8-.98,1.5-1.96,2.06-3.01h-9.17l-.31-1.01h9.59l1.89-1.75h-.88c-2.17,0-2.42-.7-2.42-2.34v-4.38h-3.61v1.12c0,2.1-.6,5.25-5.63,7.04l-.28-.42c2.62-2.03,2.87-4.48,2.87-6.62v-3.54l3.57,1.4h2.77l1.15-1.19c-3.05-2.55-5.39-5.95-6.72-10.33l.49-.28c.8,1.86,1.99,3.54,3.5,4.94,1.33-1.4,2.73-3.22,3.4-4.41l3.46,2.24c-.21,.35-.53,.49-1.33,.28-1.19,.8-3.01,1.79-4.8,2.56,1.05,.91,2.24,1.75,3.47,2.48,1.22-1.37,2.55-3.15,3.19-4.24l3.46,2.24Z"/>
      <path class="cls-2" d="M525.5,50.4c1.12,3.43,.73,6.06-.25,7.32-.66,.88-2.24,1.02-2.8,0-.49-.84-.04-1.79,.77-2.45,.8-.8,1.86-3.01,1.71-4.9l.56,.04Zm10.71-4.31s1.86,1.44,3.04,2.52c-.11,.38-.42,.56-.91,.56h-15.65l-.28-1.02h6.93v-4.52h-5.78l-.28-1.01h6.05v-3.43h-2.9v.56c0,.28-1.19,.91-2.28,.91h-.42v-13.62l2.87,1.26h8.12l1.37-1.51,3.01,2.31c-.21,.25-.7,.53-1.33,.63v9.59c-.04,.25-1.4,.84-2.31,.84h-.42v-.98h-2.77v3.43h1.71l1.57-1.89s1.75,1.3,2.87,2.35c-.11,.38-.42,.56-.91,.56h-5.25v4.52h2.24l1.68-2.07Zm-6.48-7.91v-8.86h-3.29v8.86h3.29Zm-2.8-7.63c4.13,3.78,2.24,7.07,.73,5.5,0-1.71-.66-3.92-1.22-5.36l.49-.14Zm1.12,20.02c4.73,4.59,1.44,9.1-.42,6.62,.45-2.1,.31-4.69-.07-6.51l.49-.11Zm3.01-.21c6.12,3.78,3.25,8.68,1.05,6.37,.18-2.03-.63-4.52-1.5-6.16l.46-.21Zm.91-21.04v8.86h3.08v-5.92h-.04c-.53,1.12-1.51,2.91-2.42,4.34l-.46-.18c.38-1.71,.84-4.48,.98-5.85l1.93,.67v-1.93h-3.08Zm2.87,20.93c6.72,3.46,3.92,8.75,1.58,6.41,.1-2.07-.91-4.59-2-6.2l.42-.21Zm13.13-14.56v7.25h2.38l1.61-1.85,3.19,2.45c-.25,.31-.6,.52-1.37,.67v13.3c0,.18-1.16,.88-2.73,.88h-.56v-2.45h-7.63v1.89c0,.25-.98,.84-2.55,.84h-.56v-17.15l3.54,1.43h1.51V26.6l4.45,.42c-.07,.53-.38,.88-1.26,1.02v6.65h2.48l1.71-2.31s2.03,1.58,3.22,2.76c-.11,.38-.46,.56-.91,.56h-6.51Zm-5.11,8.26v10.96h7.63v-10.96h-7.63Z"/>
      <path class="cls-2" d="M561.55,42.49c0-2.73,2.24-4.94,4.97-4.94s4.94,2.21,4.94,4.94-2.21,4.97-4.94,4.97-4.97-2.24-4.97-4.97Zm1.26,0c0,2.03,1.65,3.71,3.71,3.71s3.68-1.68,3.68-3.71-1.64-3.67-3.68-3.67-3.71,1.64-3.71,3.67Z"/>
      <path class="cls-2" d="M598.55,28.53c-.38,.46-1.4,.73-2.7,.8,2.59,3.4,8.82,7.07,15.12,8.82l-.04,.38c-1.51,.35-2.7,1.68-3.12,3.08-5.29-2.91-10.43-7.35-12.92-12.25-3.57,5.74-9.97,10.68-16.98,13.58l-.28-.42c5.5-3.36,10.57-8.44,12.95-13.3h-6.47l-.32-.98h10.08l1.22-1.96,3.43,2.24Zm7.49,25.52s2.31,1.79,3.71,3.08c-.1,.38-.45,.56-.91,.56h-29.37l-.25-1.02h13.06v-7.53h-9.31l-.28-.98h9.59v-6.62h-8.12l-.28-1.02h15.3l1.86-2.28s2.13,1.54,3.43,2.73c-.11,.38-.42,.56-.91,.56h-7.77v6.62h5.46l1.93-2.42s2.17,1.68,3.54,2.84c-.11,.38-.46,.56-.95,.56h-9.97v7.53h8.19l2.07-2.62Z"/>
      <path class="cls-2" d="M642.72,53.66s2.35,1.79,3.82,3.05c-.11,.38-.46,.56-.98,.56h-30.66l-.32-1.01h14.14v-5.22h-10.22l-.28-1.01h10.5v-4.97l4.69,.38c-.04,.53-.31,.84-1.19,.98v3.61h5.21l2-2.45s2.24,1.68,3.68,2.91c-.11,.38-.46,.56-.95,.56h-9.94v5.22h8.4l2.1-2.59Zm-23.1-21.74c.14,2.34-.73,3.96-1.86,4.69-.98,.66-2.45,.52-2.87-.56-.39-1.01,.24-1.89,1.12-2.34,1.29-.67,2.55-2.56,2.45-4.59l.52-.04c.25,.63,.39,1.26,.49,1.82h11.34c-.31-.04-.63-.17-.95-.38-.24-1.5-1.4-3.19-2.59-4.1l.28-.25c6.65,.07,6.13,4.34,3.92,4.73h10.12l1.82-1.86,3.22,3.12c-.28,.28-.63,.39-1.33,.42-.88,1.08-2.31,2.59-3.5,3.43l-.39-.21c.18-1.05,.39-2.62,.49-3.88h-22.3Zm-.98,11.13s.74-.11,1.09-.28c2.62-1.05,6.05-4.03,7.8-6.02h-8.02l-.28-1.01h17.15l1.89-2.24s2.14,1.54,3.47,2.7c-.07,.38-.46,.56-.91,.56h-11.31l2.73,1.44c-.18,.31-.63,.56-1.37,.42-2.06,1.47-5.57,3.33-8.79,4.58,3.88-.04,9.84-.17,16.1-.42-1.09-1.29-2.31-2.49-3.36-3.36l.35-.28c10.47,2.35,8.79,9.07,5.36,7.25-.38-.91-1.01-1.89-1.75-2.87-4.23,.7-10.4,1.61-17.64,2.45-.28,.49-.63,.8-.98,.95l-1.54-3.85Z"/>
      <path class="cls-2" d="M667.78,47.36c-3.36,2-8.02,4.66-14.67,7.7-.14,.42-.46,.81-.84,.95l-1.92-3.96c1.15-.25,2.9-.7,4.97-1.3l-.35-22.61,4.62,.35c-.04,.49-.31,.88-1.26,1.01l.31,20.27c2.8-.88,5.95-1.86,9-2.87l.14,.45Zm13.23-18.62c-.07,.52-.49,.95-1.33,1.01-.31,7.46-.84,13.76-4.48,18.83,10.75,4.62,8.61,11.66,4.9,9.35-1.01-2.62-3.43-5.81-5.67-8.3-3.04,3.67-7.88,6.72-15.75,9.14l-.31-.6c16.38-7.35,17.4-16.38,17.68-29.93l4.97,.49Zm-18.38,3.43c10.82,3.57,8.26,10.71,4.73,8.23-.74-2.63-3.15-5.88-5.08-8.02l.35-.21Z"/>
      <path class="cls-2" d="M687.24,34.86c8.79,.49,6.62,6.93,3.29,5.01-.49-1.71-2.17-3.61-3.61-4.73l.31-.28Zm9.8,2c-1.15,3.15-3.54,9.14-3.99,10.5-.28,.94-.56,2.03-.53,2.87,.07,1.65,1.29,3.04,1.16,5.99-.07,1.61-1.09,2.66-2.52,2.66-.73,0-1.37-.59-1.54-1.79,.56-3.64,.38-6.55-.42-7.07-.46-.32-1.02-.49-1.75-.56v-.7h1.61c.49,0,.63,0,1.05-.63q.77-1.16,6.4-11.41l.53,.14Zm-7.77-10.01c9.06,.6,7,7.25,3.54,5.39-.6-1.86-2.35-3.89-3.85-5.11l.32-.28Zm12.14,8.47l4.45,.45c-.07,.46-.35,.81-1.19,.95v5.25c-.07,6.16-1.57,13.2-10.61,16.77l-.35-.42c6.72-4.2,7.7-10.61,7.7-16.42v-6.58Zm-.94-4.9c.17,2.31-.6,4.03-1.61,4.83-.98,.77-2.48,.7-3.01-.42-.42-1.02,.18-1.93,1.08-2.49,1.12-.81,2.38-2.87,2.31-5.01h.53c.28,.74,.46,1.4,.56,2.07h14.42l1.86-1.89,3.29,3.19c-.28,.28-.66,.32-1.37,.38-1.08,1.3-3.01,3.15-4.45,4.24l-.38-.25c.38-1.22,.91-3.15,1.22-4.66h-14.46Zm17.85,23.91c.84,.38,1.05,.77,1.05,1.36,0,1.23-1.19,1.89-4.97,1.89h-2.1c-2.52,0-3.01-.77-3.01-2.84v-19.39l4.23,.42c-.03,.49-.38,.84-1.15,.95v17.15c0,.52,.11,.7,.8,.7h1.47c.6,0,1.09,0,1.37-.03,.24,0,.42-.07,.56-.39,.28-.56,.8-2.73,1.19-4.66h.42l.14,4.83Z"/>
      <path class="cls-2" d="M731.13,40.22c6.37,3.22,3.78,7.88,1.51,5.78-.11-1.54-.77-3.33-1.51-4.73v16.56c-.04,.25-1.01,.98-2.48,.98h-.49v-12.6c-1.22,2.38-2.7,4.62-4.52,6.58l-.46-.42c2.21-3.85,3.54-8.96,4.34-13.83h-3.81l-.28-1.01h4.72v-6.76c-1.57,.28-3.15,.52-4.69,.66l-.18-.49c3.08-1.16,6.9-3.19,8.82-4.55l3.57,3.08c-.38,.35-1.05,.38-1.99,.03-.74,.21-1.65,.42-2.56,.66v7.35h.39l1.54-2.14s1.82,1.47,2.87,2.59c-.11,.38-.46,.56-.91,.56h-3.89v1.68Zm6.09,9.45c1.05,3.43,.35,5.88-.74,6.97-.73,.74-2.21,.84-2.73-.07-.42-.81,.03-1.68,.84-2.24,1.01-.77,2.13-2.77,2.03-4.66h.6Zm16.98-7.25s1.47,1.22,2.38,2.17c-.07,.38-.42,.56-.88,.56h-2.87v3.39c-.04,.21-1.4,.7-2.31,.7h-.46v-.98h-12.81l-.32-1.02h13.13v-2.1h-14.28l-.28-1.02h14.56v-2.07h-12.43l-.28-1.01h12.43l1.33-1.4,2.87,2.17c-.17,.21-.59,.46-1.15,.56v1.75h.04l1.33-1.71Zm-6.51-7.53c.6-1.47,1.19-3.57,1.51-5.64-3.88,.35-8.65,.56-12.85,.49l-.07-.63c5.29-.53,11.94-1.89,15.47-2.94l2.77,2.87c-.35,.32-1.05,.28-1.92-.1-.91,.1-1.93,.21-3.01,.31l3.64,1.16c-.14,.39-.56,.7-1.29,.7-.91,1.37-2.03,2.73-3.15,3.78h1.33l1.4-1.89s1.68,1.33,2.7,2.34c-.11,.39-.42,.56-.91,.56h-6.86v2.49h5.32l1.58-2.03s1.79,1.43,2.84,2.49c-.07,.38-.42,.56-.88,.56h-19.39l-.28-1.01h7.84v-2.49h-5.81l-.28-1.02h10.33Zm-10.26-4.58c6.37,1.4,3.26,5.6,1.02,3.61-.07-1.19-.73-2.59-1.37-3.4l.35-.21Zm13.76,24.64c.84,.31,1.08,.63,1.08,1.16,0,1.22-1.19,1.75-6.37,1.75h-3.36c-2.87,0-3.36-.56-3.36-2.52v-6.16l3.85,.38c-.04,.42-.38,.7-1.02,.8v4.38c0,.42,.11,.49,1.16,.49h5.7c.38-.03,.56-.1,.73-.31,.28-.38,.67-1.4,1.05-2.62h.38l.14,2.66Zm-8.82-25.03c6.55,1.23,3.75,5.85,1.37,3.89-.07-1.29-.88-2.77-1.71-3.64l.35-.25Zm1.89,18.83c6.58,1.93,4.06,6.58,1.75,4.69-.17-1.5-1.19-3.36-2.13-4.45l.38-.25Zm6.62,1.12c7.56,2.14,5.04,7.74,2.45,5.67-.14-1.89-1.47-4.13-2.77-5.39l.31-.28Z"/>
      <path class="cls-2" d="M44.29,79.99c-.17,.28-.74,.6-1.43,.7v18.1c0,2.45-.56,3.89-4.9,4.31-.18-1.08-.39-1.89-.98-2.42-.66-.56-1.61-1.01-3.54-1.26v-.53s4.2,.32,5.21,.32c.63,0,.8-.28,.8-.81v-7.32c-1.12,.38-2.13,1.4-2.48,2.45-3.82-2.56-6.06-6.13-7.39-10.85-1.44,4.06-4.1,8.16-9.94,11.03l-.38-.46c4.83-3.85,7-8.96,7.81-13.13h-8.09v21.67c0,.38-1.37,1.19-2.8,1.19h-.56v-25.38l3.67,1.5h9.45c-.31-1.79-.56-3.75-.73-5.81h-5.71l-.32-.98h5.18l1.26-1.86,3.29,2.38c-.45,.49-1.44,.77-2.73,.88,.28,1.89,.63,3.68,1.15,5.39h9l1.58-1.85,3.57,2.73Zm-13.79,.14c1.61,4.58,4.34,8.33,8.96,10.54v-10.54h-8.96Z"/>
      <path class="cls-2" d="M59.37,72.25c10.68,1.86,7.6,7.91,4.87,6.09-.7-1.72-2.59-4.06-5.11-5.74-2.07,3.43-5.67,7.42-9.84,9.77l-.35-.32c3.12-3.12,5.95-8.26,7-11.76l4.87,1.19c-.11,.42-.45,.66-1.44,.74v.04Zm-2.13,20.86c-.14,.42-.53,.74-1.3,.77-.17,.63-.38,1.23-.63,1.82,5.46,1.65,3.15,5.85,.98,4.03-.07-1.01-.67-2.21-1.37-3.12-1.23,2.77-2.98,4.94-5.08,6.37l-.49-.39c1.89-2.48,3.33-6.23,3.85-10.47l4.03,.98Zm-1.93-1.58v-1.26h-2.07v.95c0,.17-.77,.74-1.92,.74h-.35v-9.87l2.7,1.12h1.36l1.12-1.12,2.45,1.82c-.18,.17-.56,.38-1.05,.49v6.44c-.04,.25-1.22,.7-1.89,.7h-.35Zm0-2.28v-5.04h-2.07v5.04h2.07Zm6.27-12.01s2,1.47,3.26,2.62c-.11,.38-.46,.56-.95,.56h-9.98l-.28-1.01h6.23l1.71-2.17Zm3.68,15.68c-.11,.46-.49,.8-1.26,.84-.18,.74-.39,1.4-.63,2.03,5.92,1.68,3.61,6.3,1.19,4.45-.14-1.12-.8-2.38-1.61-3.36-1.19,2.7-2.98,4.58-5.29,5.78l-.42-.35c2.21-2.38,3.61-5.85,3.81-10.19l4.2,.81Zm-1.79-1.4v-1.26h-2.13v.88c0,.17-.74,.73-1.89,.73h-.38v-9.8l2.7,1.12h1.43l1.16-1.16,2.48,1.86c-.17,.21-.59,.42-1.08,.53v6.41c-.04,.25-1.19,.7-1.93,.7h-.35Zm0-2.28v-5.04h-2.13v5.04h2.13Zm16.24-10.01c-.6,5.46-1.79,10.43-4.31,14.6,1.82,2.52,4.17,4.62,7.11,6.2l-.1,.35c-1.54,.28-2.49,1.12-2.98,2.59-2.41-1.82-4.27-4.06-5.71-6.72-2.07,2.62-4.83,4.87-8.51,6.69l-.28-.38c3.43-2.56,5.85-5.57,7.56-8.96-1.29-3.15-2.1-6.72-2.63-10.61-.98,1.68-2.03,3.22-3.25,4.52l-.53-.28c1.99-4.31,3.57-10.61,4.17-16.7l4.83,1.12c-.14,.45-.53,.77-1.33,.8-.49,2.03-1.05,3.96-1.75,5.78h4.79l1.93-2.49s2.21,1.75,3.54,2.94c-.07,.38-.46,.56-.95,.56h-1.61Zm-8.09,0c-.35,.88-.74,1.75-1.16,2.55,.7,3.43,1.71,6.51,3.19,9.24,1.37-3.64,2.06-7.6,2.35-11.8h-4.38Z"/>
      <path class="cls-2" d="M101.23,77.82c-.24,.28-.77,.56-1.47,.74v21.11c-.04,.28-1.58,.98-2.66,.98h-.49v-2.7h-6.2v2.7c0,.35-1.19,1.12-2.52,1.12h-.53v-26.25l3.22,1.47h.63c.31-1.86,.73-4.55,.98-6.48l4.83,1.16c-.18,.56-.63,.8-1.4,.8-.84,1.33-2.06,3.12-3.04,4.52h3.68l1.61-1.82,3.36,2.66Zm-10.81,.17v8.72h6.2v-8.72h-6.2Zm6.2,18.94v-9.21h-6.2v9.21h6.2Zm21.7-19.11c-.28,.32-.7,.53-1.5,.63-.25,13.58-.8,20.62-2.59,22.65-1.12,1.29-2.62,1.82-4.65,1.82,0-1.09-.18-1.92-.73-2.42-.6-.56-2-1.05-3.61-1.33l.03-.56c1.65,.17,4.1,.35,4.94,.35,.7,0,.98-.11,1.37-.46,1.3-1.26,1.72-8.61,1.96-20.58h-7.35c-1.61,2.91-3.5,5.46-5.6,7.35l-.49-.32c2.06-3.54,4.1-9.1,5.15-14.46l4.65,1.37c-.14,.42-.56,.73-1.33,.73-.53,1.51-1.15,2.94-1.86,4.31h6.44l1.89-2,3.29,2.91Zm-14.98,6.27c9.45,3.33,6.37,10.12,3.19,7.46-.28-2.42-1.96-5.36-3.5-7.25l.32-.21Z"/>
      <path class="cls-2" d="M122.44,78.84c8.19,1.09,5.74,6.93,2.73,4.93-.38-1.68-1.82-3.57-3.04-4.69l.31-.24Zm32.27-4.59c-.21,.28-.59,.35-1.29,.38-1.01,.98-2.83,2.56-3.96,3.43l-.38-.21c.21-.95,.56-2.59,.84-3.85h-14.91c.53,5.57-3.22,5.88-3.92,4.24-.98,4.03-2.77,11.13-3.12,12.74-.21,1.08-.35,2.24-.35,3.12,.07,1.72,1.33,3.19,1.19,6.23-.07,1.64-1.05,2.7-2.48,2.7-.7,0-1.37-.56-1.54-1.79,.56-3.57,.42-6.72-.35-7.25-.45-.35-.98-.46-1.71-.53v-.74h1.5c.42,0,.6,0,.91-.73q.63-1.23,5.43-14.11l.46,.07c-.07-.42,.07-.98,.53-1.58,1.29-.8,2.21-2.48,2.35-5.42h.53c.21,.73,.35,1.4,.46,2.03h14.88l1.82-1.82,3.15,3.08Zm-29.93-3.4c8.51,1.65,5.74,7.53,2.73,5.29-.38-1.75-1.82-3.78-3.04-5.04l.31-.25Zm18.69,18.45c2.42,3.99,6.79,7.25,10.75,8.82l-.07,.39c-1.33,.25-2.35,1.29-2.8,2.97-3.57-2.42-6.41-6.3-8.26-11.24v11.76c0,.35-1.44,.98-2.62,.98h-.63v-9.87c-2.49,3.5-6.02,6.37-10.15,8.58l-.38-.49c3.85-3.05,7-7.53,8.79-11.9h-7.11l-.28-1.02h9.14v-4.52l4.48,.46c-.11,.46-.35,.81-1.23,.91v3.15h5.46l1.89-2.55s2.24,1.75,3.57,3.01c-.11,.39-.46,.56-.95,.56h-9.59Zm-1.89-13.93c-.07,.38-.35,.74-1.09,.84-.31,3.68-.8,7.21-8.47,9.56l-.42-.53c5.67-2.73,5.71-6.23,5.81-10.26l4.17,.38Zm6.51,.17c-.04,.42-.38,.7-.98,.81v4.66c0,.42,.07,.52,.74,.52h3.15c.21,0,.49-.03,.63-.07,.21,0,.53-.07,.74-.14h.31l.14,.04c.8,.32,1.08,.56,1.08,1.12,0,1.12-1.08,1.54-4.76,1.54h-2.17c-2.38,0-2.7-.63-2.7-2.41v-6.44l3.81,.38Z"/>
      <path class="cls-2" d="M189.02,98.26c1.5,.42,1.99,.63,1.99,1.33,0,1.58-1.47,2.59-7.98,2.59h-13.13c-4.69,0-6.89-1.12-6.89-4.9v-14.95c-1.44,1.22-2.94,2.31-4.48,3.19l-.35-.35c3.99-3.46,7.91-9.7,9.77-14.91l4.87,1.26c-.14,.38-.45,.56-1.37,.49-.46,.84-.98,1.68-1.54,2.52h6.76l1.93-1.89,3.32,2.94c-.28,.28-.7,.35-1.4,.42-1.4,1.4-3.54,3.4-5.53,4.66h8.05l1.68-1.85,3.57,2.73c-.24,.32-.8,.63-1.54,.77v9.35c-.04,.25-1.68,.91-2.77,.91h-.56v-2.31h-17.15v7.14c0,1.33,1.16,1.64,3.5,1.64h12.95c2.21,0,3.22-.14,3.85-.98,.6-.77,1.44-3.12,2-4.97h.42l.04,5.18Zm-19.85-22.72c-1.12,1.58-2.42,3.12-3.82,4.59l1.37,.52h7.39c.91-1.4,1.96-3.54,2.59-5.11h-7.53Zm-2.91,13.69h6.86v-7.56h-6.86v7.56Zm10.08-7.56v7.56h7.07v-7.56h-7.07Z"/>
      <path class="cls-2" d="M213.44,79.71c2.94,7.14,8.61,13.02,14.25,15.82l-.14,.38c-1.37,.18-2.56,1.23-3.12,2.87-5.29-3.78-9.28-10.19-11.59-18.66v21.6c0,.39-1.47,1.26-2.77,1.26h-.67v-18.24c-3.12,5.95-7.88,11.06-14.14,14.74l-.38-.42c5.85-4.83,10.39-12.32,12.6-19.36h-11.8l-.31-1.02h14.04v-8.26l4.69,.49c-.07,.49-.32,.84-1.26,.98v6.79h8.26l2.21-2.76s2.49,1.89,3.99,3.22c-.07,.38-.46,.56-.98,.56h-12.88Z"/>
      <path class="cls-2" d="M237.59,77.15c-.21,2.28-1.3,5.15-5.67,6.9l-.31-.49c2.77-2.31,3.04-5.15,3.04-7.56v-4.06l3.5,1.08c2.42-.8,4.97-1.82,6.44-2.55l2.87,2.83c-.39,.32-1.05,.28-1.89-.07-2.03,.35-5.11,.7-7.91,.84v2.07h6.23l1.64-2.03s1.89,1.43,3.01,2.49c-.07,.38-.42,.56-.91,.56h-3.78v4.52c-.04,.17-.98,.74-2.52,.74h-.53v-5.25h-3.22Zm-5.32,25.27c4.34-1.16,9.21-3.57,11.55-5.43l3.67,2.7c-.31,.35-.94,.42-1.89,.14-3.15,1.4-8.37,2.7-13.16,3.12l-.18-.53Zm28.11-28.46s1.99,1.51,3.19,2.63c-.07,.38-.42,.56-.91,.56h-4.59v4.45c-.04,.11-.6,.49-1.58,.66l2.84,2.14c-.21,.25-.7,.52-1.29,.63v11.73c-.04,.24-1.68,.88-2.77,.88h-.56v-1.44h-13.69v1.05c0,.28-1.44,1.05-2.8,1.05h-.53v-16.17l3.54,1.43h13.13l1.16-1.22h-.56v-5.18h-3.19c-.35,2-1.64,4.38-5.88,5.81l-.31-.46c2.97-2.13,3.32-4.69,3.32-6.9v-3.75l3.26,.98c2.52-.73,5.18-1.68,6.76-2.38l2.87,2.91c-.39,.32-1.05,.28-1.89-.11-2.03,.28-5.11,.6-7.98,.74v2.14h6.72l1.75-2.17Zm-19.36,10.61v2.83h13.69v-2.83h-13.69Zm0,3.82v2.87h13.69v-2.87h-13.69Zm13.69,6.79v-2.91h-13.69v2.91h13.69Zm-5.18,2.66c18.13,.52,12.22,6.93,8.89,4.58-1.71-1.33-4.8-2.98-9.03-4.09l.14-.49Z"/>
      <path class="cls-2" d="M277.98,75.26s1.79,1.37,2.91,2.42c-.11,.38-.42,.56-.95,.56h-11.97l-.28-1.01h8.75l1.54-1.96Zm-2.48,6.37l1.47-1.82s1.58,1.29,2.59,2.28c-.07,.38-.42,.56-.88,.56h-9.45l-.28-1.02h6.55Zm-6.27,5.53l-.28-1.01h6.55l1.47-1.82s1.58,1.29,2.59,2.28c-.07,.38-.42,.56-.88,.56h-9.45Zm9.52,13.16c-.03,.28-1.43,.94-2.45,.94h-.46v-1.64h-3.75v2.06c0,.28-1.26,.95-2.45,.95h-.46v-13.34l3.04,1.29h3.26l1.47-1.58,3.12,2.38c-.21,.25-.7,.53-1.33,.66v8.26Zm-8.02-29.26c8.02,1.02,5.39,6.86,2.35,4.8-.35-1.58-1.61-3.47-2.66-4.62l.31-.17Zm5.11,27.55v-7h-3.75v7h3.75Zm24.33-24.68c-.21,.25-.77,.56-1.51,.7v24.33c0,2.24-.42,3.61-4.17,3.99-.1-.98-.28-1.75-.73-2.24-.53-.49-1.22-.88-2.77-1.08v-.53s3.19,.25,3.92,.25c.6,0,.74-.25,.74-.74v-13.51h-11.38l-.14-.53v.45c0,5.95-.1,13.06-4.94,17.92l-.46-.32c2.52-4.94,2.56-11.38,2.56-17.57v-13.34l3.36,1.33h10.64l1.47-1.79,3.4,2.66Zm-16.03,.14v4.83h4.38v-4.31l3.71,.42c-.07,.42-.35,.73-1.12,.88v3.01h1.61l1.29-1.86s.84,.74,1.65,1.51v-4.48h-11.52Zm4.38,10.01v-4.16h-4.31l-.07-.25v4.41h4.38Zm-.46,11.24v1.33c0,.21-1.05,.74-2.1,.74h-.35v-10.92l2.62,1.12h2.91l1.26-1.36,2.8,2.13c-.21,.25-.7,.53-1.29,.63v7.18c-.04,.25-1.29,.77-2.07,.77h-.38v-1.61h-3.39Zm0-6.72v5.7h3.39v-5.7h-3.39Zm5.88-6.48s.88,.8,1.71,1.61v-3.82h-4.55v4.16h1.47l1.37-1.96Z"/>
      <path class="cls-2" d="M316.94,72.08c-.17,.42-.63,.66-1.43,.63-1.16,2.8-2.49,5.43-3.95,7.81l1.75,.67c-.11,.32-.42,.56-1.05,.67v20.16c-.07,.25-1.44,.98-2.73,.98h-.6v-18.83c-1.47,1.82-3.01,3.43-4.65,4.76l-.46-.32c3.15-4.31,6.55-11.24,8.37-18.13l4.76,1.61Zm9.28,6.69v6.41h3.92l1.89-2.49s2.21,1.72,3.5,2.94c-.11,.38-.42,.56-.95,.56h-8.37v6.51h4.2l2.07-2.59s2.31,1.79,3.71,3.05c-.11,.38-.49,.56-.95,.56h-9.03v8.33c0,.21-1.02,.91-2.8,.91h-.6v-24.19h-1.68c-2.13,3.29-4.55,6.09-7.25,8.19l-.42-.31c2.8-3.85,5.81-10.05,7.49-16.14l4.72,1.68c-.18,.42-.56,.67-1.37,.63-.77,1.75-1.64,3.4-2.55,4.94h9.42l2.1-2.59s2.28,1.79,3.71,3.04c-.11,.39-.49,.56-.98,.56h-9.8Z"/>
      <path class="cls-2" d="M373.54,90.84c-.28,.25-.7,.46-1.44,.53-.49,5.92-1.61,9.35-3.32,10.61-1.02,.7-2.35,1.05-3.92,1.05,0-.84-.14-1.65-.59-2.1-.49-.49-1.58-.88-2.8-1.08v-.56c1.19,.14,3.32,.28,4.06,.28,.59,0,.91-.07,1.22-.32,.88-.7,1.75-3.67,2.21-8.33h-21.21c-2.06,2.06-4.41,3.96-7.11,5.53l-.38-.38c5.57-4.38,9.56-10.57,12.22-16.84h-9.45l-.31-1.02h10.19c1.09-2.7,1.93-5.39,2.52-7.95l4.62,1.33c-.18,.46-.49,.7-1.47,.67-.63,1.92-1.37,3.92-2.28,5.95h5.78l1.33-1.4,2.94,2.31c-.24,.28-.56,.39-1.19,.42l-1.02,4.41h1.19l1.3-1.37,2.84,2.28c-.24,.28-.56,.38-1.15,.46l-.81,4.59h1.23l1.71-1.68,3.12,2.62Zm-26.25,2.45c1.5,4.34-.04,7.21-1.68,8.19-1.12,.7-2.59,.56-3.01-.52-.38-.98,.24-1.86,1.19-2.35,1.51-.77,3.05-2.8,2.98-5.29l.53-.04Zm-1.44-22.58c8.61,1.92,5.78,8.23,2.66,5.92-.32-2-1.68-4.27-3.01-5.71l.35-.21Zm6.72,14.25c-1.16,1.72-2.42,3.36-3.85,4.94h15.82l.91-4.94h-12.88Zm-1.44,8.23c5.74,4.62,1.86,9.7-.35,6.72,.49-2.17,.31-4.72-.11-6.62l.45-.11Zm4.66-13.97c-.74,1.58-1.61,3.19-2.59,4.73h7.91l1.05-4.73h-6.37Zm-.28,13.62c7.28,2.59,4.31,8.05,1.68,5.71-.07-1.82-1.05-4.06-2.06-5.5l.38-.21Zm4.9-.56c7.49,.67,5.57,6.12,2.73,4.48-.38-1.51-1.79-3.29-3.04-4.27l.31-.21Z"/>
      <path class="cls-2" d="M392.5,79.88s1.96,1.82,3.08,3.08c-.11,.38-.46,.56-.95,.56h-5.11v12.78c1.79-.35,3.61-.74,5.46-1.16l.11,.49c-3.33,1.61-8.12,3.75-15.3,6.51-.14,.42-.49,.77-.88,.88l-2.24-4.17c.73-.1,1.75-.31,2.97-.52v-20.37l4.24,.42c-.07,.45-.31,.8-1.15,.91v18.41c1.12-.21,2.31-.45,3.57-.7v-26.22l4.48,.46c-.07,.49-.35,.84-1.26,.98v10.29h1.23l1.75-2.62Zm15.68,18.69c1.02,.42,1.29,.81,1.29,1.47,0,1.4-1.47,2.07-6.44,2.07h-2.94c-3.01,0-3.85-.81-3.85-3.36v-28l4.55,.52c-.07,.46-.38,.84-1.26,.98v10.22h3.68l1.82-2.76s2.06,1.92,3.19,3.22c-.11,.39-.45,.56-.95,.56h-7.74v14.28c0,.8,.25,1.08,1.37,1.08h2.38c1.01,0,1.82,0,2.28-.07,.28,0,.53-.1,.73-.45,.31-.6,.88-2.98,1.37-5.22h.42l.11,5.46Z"/>
      <path class="cls-2" d="M445.88,76.98c-.25,.31-.63,.38-1.37,.42-1.09,1.22-3.01,2.91-4.55,3.85l-.35-.25c.35-1.19,.8-2.91,1.08-4.31h-5.53v4.9c0,.95,.04,.95,1.08,.95h5.5c.25,0,.6,0,.98-.14h.31l.18,.03c1.15,.42,1.33,.63,1.33,1.12,0,1.26-.77,1.82-4.03,1.82h-4.69c-3.57,0-3.92-.38-3.92-3.75v-4.94h-13.02c.28,2.59-.63,4.34-1.82,5.08-1.08,.7-2.52,.53-2.97-.59-.38-1.05,.28-1.92,1.19-2.42,1.33-.81,2.52-2.91,2.24-5.18l.53-.04c.31,.74,.53,1.47,.7,2.14h10.85c-.35-.07-.77-.28-1.15-.6-.07-1.68-.98-3.61-1.96-4.79l.32-.18c6.62,1.09,5.81,5.11,3.6,5.57h10.12l1.93-1.96,3.43,3.26Zm-16.77,2.07c-.14,.42-.52,.66-1.57,.66-2.35,3.75-5.88,6.51-12.43,7.53l-.25-.42c5.85-2.49,8.65-5.92,9.87-9.94l4.38,2.17Zm11.94,18.59s2.28,1.79,3.61,3.12c-.11,.38-.46,.56-.98,.56h-28.35l-.31-1.01h12.78v-10.92h-8.58l-.28-1.02h16.7l1.93-2.45s2.1,1.68,3.36,2.91c-.07,.38-.46,.56-.95,.56h-8.75v10.92h7.8l2.03-2.66Z"/>
      <path class="cls-2" d="M454.94,82.76v18.97c0,.46-1.19,1.26-2.73,1.26h-.56v-31.5l3.43,1.51h5.67l1.47-1.61,3.26,2.42c-.21,.25-.7,.53-1.33,.63v9.28c-.04,.21-1.58,.88-2.59,.88h-.49v-1.82h-6.13Zm0-8.75v3.36h6.13v-3.36h-6.13Zm6.13,7.77v-3.46h-6.13v3.46h6.13Zm11.48,16.77c-.04,.28-1.57,.98-2.62,.98h-.49v-2h-7.11v1.4c0,.31-1.3,.98-2.59,.98h-.46v-14.46l3.19,1.37h6.62l1.54-1.65,3.22,2.41c-.21,.28-.7,.56-1.29,.67v10.29Zm-10.22-10.75v3.78h7.11v-3.78h-7.11Zm7.11,8.75v-3.99h-7.11v3.99h7.11Zm12.32-22.72c-.25,.28-.77,.59-1.44,.74v24.22c0,2.42-.49,3.82-4.45,4.17-.11-1.02-.28-1.86-.7-2.38-.53-.49-1.26-.88-2.83-1.16v-.53s3.22,.25,3.88,.25c.63,0,.77-.25,.77-.74v-15.65h-6.37v.7c0,.31-1.37,1.05-2.7,1.05h-.46v-12.88l3.33,1.37h5.85l1.57-1.86,3.54,2.7Zm-11.13,.17v3.36h6.37v-3.36h-6.37Zm6.37,7.77v-3.46h-6.37v3.46h6.37Z"/>
      <path class="cls-2" d="M501.63,77.82c-.24,.28-.77,.56-1.47,.74v21.11c-.04,.28-1.58,.98-2.66,.98h-.49v-2.7h-6.2v2.7c0,.35-1.19,1.12-2.52,1.12h-.53v-26.25l3.22,1.47h.63c.31-1.86,.73-4.55,.98-6.48l4.83,1.16c-.18,.56-.63,.8-1.4,.8-.84,1.33-2.06,3.12-3.04,4.52h3.68l1.61-1.82,3.36,2.66Zm-10.81,.17v8.72h6.2v-8.72h-6.2Zm6.2,18.94v-9.21h-6.2v9.21h6.2Zm21.7-19.11c-.28,.32-.7,.53-1.5,.63-.25,13.58-.8,20.62-2.59,22.65-1.12,1.29-2.62,1.82-4.65,1.82,0-1.09-.18-1.92-.73-2.42-.6-.56-2-1.05-3.61-1.33l.03-.56c1.65,.17,4.1,.35,4.94,.35,.7,0,.98-.11,1.37-.46,1.3-1.26,1.72-8.61,1.96-20.58h-7.35c-1.61,2.91-3.5,5.46-5.6,7.35l-.49-.32c2.06-3.54,4.1-9.1,5.15-14.46l4.65,1.37c-.14,.42-.56,.73-1.33,.73-.53,1.51-1.15,2.94-1.86,4.31h6.44l1.89-2,3.29,2.91Zm-14.98,6.27c9.45,3.33,6.37,10.12,3.19,7.46-.28-2.42-1.96-5.36-3.5-7.25l.32-.21Z"/>
      <path class="cls-2" d="M551.09,97.6s2.52,1.89,4.03,3.25c-.11,.39-.46,.56-.98,.56h-31.26l-.28-1.02h14.35v-10.47h-10.26l-.28-1.01h10.54v-8.96h-11.72l-.32-1.02h22.61l2.13-2.73s2.45,1.82,3.99,3.19c-.11,.38-.49,.56-.98,.56h-12.11v8.96h5.67l2.13-2.63s2.35,1.79,3.81,3.08c-.07,.38-.46,.56-.98,.56h-10.64v10.47h8.33l2.21-2.8Zm-17.82-26.99c11.38,1.26,9.59,8.86,5.74,6.9-1.02-2.38-3.75-5.04-6.02-6.58l.28-.32Z"/>
      <path class="cls-2" d="M587.84,87.9s2.31,1.68,3.68,2.94c-.11,.38-.46,.56-.95,.56h-7.7c-.56,2.03-1.44,3.89-3.32,5.5,13.79,2.8,10.04,7.07,6.86,5.7-2.28-1.33-5.56-2.66-9.52-3.92-3.26,1.75-8.26,3.15-16.14,4.27l-.14-.66c6.23-1.37,10.5-2.84,13.34-4.45-2.62-.7-5.53-1.37-8.65-1.96,.91-1.08,2.14-2.73,3.29-4.48h-9.31l-.31-1.01h10.29c1.12-1.71,2.13-3.33,2.66-4.45h-5.81v.52c0,.28-1.47,1.02-2.8,1.02h-.46v-10.89l3.54,1.43h3.57v-4.24h-9.94l-.31-1.01h25.69l1.99-2.52s2.31,1.75,3.71,2.98c-.11,.38-.49,.56-.98,.56h-9.59v4.24h3.5l1.64-1.79,3.46,2.66c-.24,.28-.77,.56-1.47,.74v6.76c-.03,.25-1.68,.84-2.73,.84h-.56v-1.29h-11.41l3.61,1.29c-.14,.38-.49,.7-1.57,.59-.49,.66-1.09,1.58-1.75,2.56h6.33c.21-.91,.32-1.86,.39-2.8l4.69,.46c-.07,.42-.49,.81-1.29,.91-.07,.49-.18,.98-.24,1.44h2.76l1.96-2.49Zm-21.74-2.98h3.85v-5.88h-3.85v5.88Zm6.44,6.48c-.98,1.44-2.06,2.91-3.04,4.1,2.48,.21,4.72,.49,6.65,.81,1.75-1.47,2.66-3.08,3.15-4.9h-6.76Zm.6-13.37h4.17v-4.24h-4.17v4.24Zm4.17,6.9v-5.88h-4.17v5.88h4.17Zm3.22-5.88v5.88h3.85v-5.88h-3.85Z"/>
      <path class="cls-2" d="M603.76,75.33c-2.13,2.8-4.94,5.39-8.12,7.04l-.35-.35c3.08-2.7,5.81-7.46,7.04-11.62l4.97,.91c-.14,.42-.38,.56-1.33,.56-.42,.8-.95,1.64-1.51,2.45h16.63l2.03-2.52s2.24,1.65,3.71,2.98c-.1,.38-.46,.56-.98,.56h-22.09Zm3.61,9.87c-.18,.38-.49,.56-1.33,.45-1.82,2.7-5.25,5.74-9.21,7.53l-.35-.46c3.15-2.38,5.92-6.3,7.14-9.31l3.75,1.79Zm5.74,4.24l3.01,2.49c-.28,.28-.66,.45-1.37,.53-.28,5.78-.88,8.4-2.24,9.45-.88,.67-2.03,.98-3.36,.98,0-.84-.07-1.61-.49-2s-1.26-.74-2.24-.95v-.52c.95,.07,2.52,.17,3.12,.17,.49,0,.77-.04,1.02-.28,.63-.53,1.01-2.8,1.29-7.28h-4.45c-.53,4.24-2.17,8.16-10.4,10.89l-.42-.53c6.44-3.08,7.38-6.69,7.63-10.36h-3.4l-.28-.98h10.99l1.58-1.61Zm14.28,10.22c.8,1.33,.98,2.21,.49,2.73-1.09,1.05-2.91,.21-4.06-1.01-3.92-3.29-4.9-11.03-5.08-18.8h-20.16l-.31-1.02h20.09l1.68-1.85,3.36,2.73c-.21,.25-.73,.49-1.44,.6-.11,5.46,.73,13.02,3.57,15.26,.35,.28,.56,.25,.7-.18,.42-.98,.8-2.13,1.12-3.33l.42,.07-.38,4.8Zm-8.68-21.7l1.93-2.34s2.17,1.61,3.54,2.8c-.07,.39-.46,.56-.95,.56h-20.2l-.28-1.02h15.96Zm-8.51,5.67c10.68,3.85,9.17,10.05,6.06,8.23-1.09-2.52-4.17-5.92-6.44-7.91l.38-.32Z"/>
      <path class="cls-2" d="M663.41,73.62c-.24,.31-.77,.56-1.5,.74v27.2c-.04,.28-1.58,1.12-2.8,1.12h-.53v-2.41h-21.53v1.43c0,.42-1.26,1.26-2.7,1.26h-.56v-31.78l3.57,1.58h20.86l1.71-1.93,3.46,2.8Zm-4.83,25.62v-25.48h-21.53v25.48h21.53Zm-2.66-19.88s1.37,1.05,2.24,1.89c-.11,.38-.42,.56-.88,.56h-19.29l-.28-1.01h5.88c.21-.7,.46-1.58,.7-2.49h-4.34l-.32-1.02h4.94c.28-.98,.53-1.96,.74-2.83l3.81,.63c-.07,.46-.56,.81-1.29,.84l-.35,1.36h3.71l1.37-1.36,2.73,2.06c-.14,.21-.56,.42-1.09,.53v2.28h.53l1.19-1.44Zm-.66,13.34s1.61,1.26,2.59,2.24c-.11,.38-.42,.56-.88,.56h-7.49v2.35c0,.14-.91,.7-2.38,.7h-.49v-3.05h-4.06l-1.15,1.23-2.7-1.93c.35-.25,.84-.49,1.29-.67,.31-.95,.63-2,.84-2.83h-1.86l-.28-1.02h7.91v-2.38h-3.08v.53c0,.21-1.26,.8-2.38,.8h-.38v-6.93l2.94,1.23h8.44l1.36-1.37,2.84,2.1c-.17,.21-.6,.46-1.08,.56v3.04c-.04,.25-1.44,.81-2.35,.81h-.49v-.77h-2.94v2.38h3.08l1.29-1.61s1.54,1.15,2.45,2.06c-.07,.39-.38,.56-.88,.56h-5.95v3.19h4.38l1.4-1.79Zm-8.65,1.79v-3.19h-3.01c-.28,.98-.67,2.17-.98,3.19h3.99Zm-3.08-7.6h8.89v-2.35h-8.89v2.35Zm3.68-8.58c-.25,.91-.53,1.75-.74,2.49h5.01v-2.49h-4.27Z"/>
      <path class="cls-2" d="M696.52,98.3s2.28,1.82,3.68,3.12c-.11,.38-.45,.56-.98,.56h-30.1l-.31-1.01h13.86v-6.27h-10.12l-.28-1.02h10.4v-4.83c-3.75,.25-7.63,.35-11.27,.31l-.11-.59c7.88-.7,17.61-2.52,22.65-4.13l3.22,3.15c-.35,.32-1.08,.32-2.06-.1-2.55,.42-5.63,.8-8.96,1.08v5.11h5.85l1.93-2.55s2.2,1.75,3.54,3.01c-.07,.39-.46,.56-.95,.56h-10.36v6.27h8.37l2.03-2.66Zm-19.88-13.93c0,.31-1.51,1.01-2.84,1.01h-.49v-13.72l3.54,1.47h14.98l1.65-1.82,3.54,2.7c-.25,.28-.74,.59-1.47,.74v8.65c-.04,.25-1.71,.88-2.8,.88h-.56v-1.29h-15.54v1.4Zm0-10.22v7.81h15.54v-7.81h-15.54Z"/>
      <path class="cls-2" d="M717.65,91.93c-2.48,1.47-6.16,3.71-11.17,6.3-.11,.42-.42,.8-.77,.91l-1.54-3.85c1.02-.25,2.8-.7,5.01-1.33v-9.35h-3.92l-.28-1.02h4.2v-8.82h-4.2l-.28-1.02h8.12l1.89-2.52s2.13,1.75,3.43,2.98c-.11,.38-.46,.56-.95,.56h-4.79v8.82h.77l1.61-2.42s1.75,1.71,2.8,2.87c-.1,.39-.46,.56-.91,.56h-4.27v8.4c1.64-.49,3.39-1.01,5.11-1.54l.14,.46Zm18.94,7.07c.84,.38,.98,.77,.98,1.4,0,1.29-1.16,2-5.08,2h-2.24c-2.66,0-3.08-.73-3.08-2.87v-9h-1.93c-.91,7.11-4.69,10.75-13.69,12.46l-.14-.49c6.76-2.31,9.35-5.53,10.12-10.89-.39,.38-1.44,.88-2.59,.88h-.49v-21.04l3.4,1.43h9.03l1.71-1.86,3.54,2.73c-.24,.32-.77,.63-1.51,.77v16.49c-.07,.25-1.68,.95-2.83,.95h-.53v-1.44h-.77v8.19c0,.42,.07,.56,.7,.56h1.58c.66,0,1.22-.04,1.5-.04s.42-.07,.56-.42c.28-.59,.73-2.49,1.22-4.52h.42l.11,4.69Zm-14.91-25.1v4.41h9.59v-4.41h-9.59Zm9.59,9.94v-4.52h-9.59v4.52h9.59Zm0,5.67v-4.66h-9.59v4.66h9.59Z"/>
      <path class="cls-2" d="M743.55,86.71c0-2.73,2.24-4.94,4.97-4.94s4.94,2.21,4.94,4.94-2.21,4.97-4.94,4.97-4.97-2.24-4.97-4.97Zm1.26,0c0,2.03,1.65,3.71,3.71,3.71s3.68-1.68,3.68-3.71-1.64-3.67-3.68-3.67-3.71,1.64-3.71,3.67Z"/>
    </g>
  </g>
</svg>