<?xml version="1.0" encoding="UTF-8"?>
<svg id="_圖層_2" data-name="圖層 2" xmlns="http://www.w3.org/2000/svg" viewBox="0 0 725.01 177.76">
  <defs>
    <style>
      .cls-1 {
        fill: #e60012;
      }
    </style>
  </defs>
  <g id="_圖層_1-2" data-name="圖層 1">
    <g>
      <path class="cls-1" d="M4.83,12.11c-1.29,1.4-2.7,2.59-4.13,3.61l-.35-.28C2.8,11.76,5.43,5.92,6.9,.21l5.6,1.96c-.14,.42-.6,.74-1.44,.67-.77,1.65-1.65,3.22-2.56,4.66l1.54,.56c-.1,.31-.49,.56-1.08,.67v11.27c-.07,.28-1.72,1.08-3.36,1.08l-.77,.04V12.11Zm1.05,9.38c1.71,4.34,.42,7.42-1.3,8.47-1.16,.74-2.73,.49-3.22-.74-.35-1.16,.31-2.13,1.33-2.66,1.37-.77,2.77-2.76,2.7-5.04l.49-.04Zm19.39,6.9c1.23,.38,1.54,.84,1.54,1.58,0,1.75-1.72,2.24-8.61,2.24h-4.52c-3.99,0-4.9-.66-4.9-3.36v-8.12l5.22,.42c-.07,.49-.38,.77-1.09,.91v6.09c0,.49,.17,.63,1.47,.63h4.24c1.5,0,2.87,0,3.43-.04,.56-.03,.77-.14,1.05-.49,.42-.6,.98-2,1.72-3.96h.35l.11,4.1ZM10.26,12.15c1.75-2.87,3.47-7.49,4.31-12.01l5.46,1.68c-.14,.46-.56,.73-1.4,.73-.35,.74-.66,1.44-1.02,2.1h9.84l2.14-2.17,3.75,3.54c-.28,.28-.67,.38-1.37,.46-1.26,1.12-3.43,2.59-5.11,3.4l-.28-.21c.38-1.09,.81-2.73,1.09-4.03h-10.64c-1.75,2.87-3.89,5.18-6.34,6.83l-.42-.31Zm9.52-.74c-.14,.42-.6,.7-1.37,.63-1.89,3.36-4.52,5.67-7.42,7.04l-.39-.32c1.79-2.1,3.4-5.5,4.27-9.1l4.9,1.75Zm-4.27,7.98c8.86,2.66,5.08,8.93,1.93,6.06-.07-2-1.19-4.31-2.28-5.85l.35-.21Zm8.33,.63c0,.25-1.61,.81-3.12,.81h-.73V7.42l5.15,.49c-.07,.49-.35,.81-1.3,.95v11.17Zm1.93,.95c10.22,3.19,6.44,11.1,2.73,7.88-.04-2.66-1.47-5.64-3.08-7.67l.35-.21Zm0-10.47c10.4,3.12,6.97,10.68,3.26,7.77-.35-2.55-2.03-5.57-3.57-7.56l.31-.21Z"/>
      <path class="cls-1" d="M51.78,12.64s2.35,1.93,3.75,3.26c-.1,.38-.49,.56-.98,.56h-6.34c-.07,1.19-.25,2.42-.52,3.68,9.8,3.71,6.58,10.89,2.87,8.02-.42-2.24-1.79-4.79-3.15-6.86-1.16,4.34-3.78,8.75-9.52,11.87l-.35-.35c4.97-4.97,6.37-10.89,6.69-16.35h-6.16l-.28-.98h6.51c.04-.77,.04-1.54,.04-2.31V7.7h-1.16c-1.44,2.42-3.19,4.41-5.18,5.92l-.42-.28c1.75-3.29,3.29-8.16,3.89-13.06l5.53,1.47c-.14,.42-.56,.77-1.37,.77-.52,1.51-1.16,2.87-1.86,4.17h4.97l2.1-2.62s2.38,1.71,3.92,3.08c-.07,.38-.45,.56-.94,.56h-5.46v5.46c0,.74-.04,1.5-.07,2.31h1.44l2.06-2.84Zm18.66-6.75c-.24,.31-.73,.59-1.44,.73V30.1c-.03,.28-1.96,1.23-3.43,1.23h-.66v-3.15h-5.36v2.2c0,.49-1.54,1.5-3.36,1.5h-.67V3.15l4.17,1.79h4.87l2-2.17,3.89,3.12Zm-5.53,21.32V5.95h-5.36V27.2h5.36Z"/>
      <path class="cls-1" d="M87.77,17.78c-.21,.32-.52,.42-1.29,.49-.88,2.52-2.77,5.22-5.18,7.28,.14,.07,.28,.14,.46,.28,2.7,2.21,6.93,2.7,14.67,2.7,4.1-.03,7.46-.03,11.55-.24v.42c-1.65,.35-2.59,1.82-2.77,3.39h-10.19c-7.67,0-10.75-1.33-13.69-5-.52-.63-.91-.56-1.23,.07-.56,1.05-1.47,2.87-2.17,4.66,.1,.31,0,.52-.25,.7l-2.84-3.99c1.72-.88,4.2-2.7,5.25-3.05,1.16-2.13,2.07-5.01,2.45-7.49h-2.24l-1.26,1.16-3.08-2.24c.35-.25,.88-.49,1.37-.63,1.09-1.65,2.52-4.06,3.4-5.78h-5.01l-.32-.98h5.39l1.72-1.75,3.43,3.12c-.31,.35-1.02,.53-1.82,.56-.91,1.54-2.35,3.88-3.43,5.53h1.65l1.96-1.92,3.47,2.73ZM76.71,.8c9.66,.81,6.58,8.12,2.8,5.6-.35-1.92-1.79-4.06-3.12-5.39l.31-.21Zm9.28,6.48l-.28-1.01h11.31c.42-1.82,.95-4.31,1.19-6.13l5.46,1.16c-.1,.42-.52,.74-1.3,.74-1.09,1.22-2.77,2.91-4.38,4.24h3.22l2.17-2.84s2.45,1.93,3.89,3.29c-.07,.38-.45,.56-.95,.56h-9c-.7,1.08-1.61,2.31-2.45,3.29h4.62l1.82-2,3.75,2.91c-.21,.25-.67,.53-1.3,.67v13.97c-.07,.25-1.96,1.02-3.26,1.02h-.67v-2.35h-7.95v1.33c0,.38-1.61,1.26-3.26,1.26h-.6V8.93l4.03,1.65h.8c.07-1.05,.1-2.28,.1-3.29h-7ZM89.03,.25c8.58,1.5,4.94,7.77,1.68,5.15-.1-1.79-1.09-3.68-2-4.94l.31-.21Zm2.87,11.34v3.36h7.95v-3.36h-7.95Zm0,7.74h7.95v-3.4h-7.95v3.4Zm7.95,4.45v-3.47h-7.95v3.47h7.95Z"/>
      <path class="cls-1" d="M143.23,8.54c-.28,.31-.81,.7-1.64,.88V31.26c-.04,.35-2.07,1.51-3.75,1.51h-.67v-3.12h-16.87v1.72c0,.52-1.75,1.58-3.64,1.58h-.73V5.67l4.73,1.89h3.82c.52-2.21,1.09-5.32,1.36-7.53l6.13,1.47c-.14,.46-.53,.74-1.33,.74-1.3,1.5-3.15,3.67-5.04,5.32h11.17l2.17-2.45,4.31,3.43Zm-22.93-.04v9.42h16.87V8.51h-16.87Zm16.87,20.13v-9.7h-16.87v9.7h16.87Z"/>
      <path class="cls-1" d="M167.5,15.26c1.33,5.32,5.57,10.5,15.19,13.58l-.04,.42c-2.06,.38-3.29,1.5-3.61,3.82-8.02-4.03-10.89-10.99-12.01-16.87-1.26,7.46-5.08,13.02-17.19,16.87l-.28-.53c9.56-4.62,12.36-10.26,13.2-17.29h-11.97l-.28-1.02h12.36c.25-2.83,.25-5.85,.25-9.17h-10.29l-.28-1.01h20.83l2.42-3.05s2.73,2.07,4.41,3.5c-.1,.38-.52,.56-1.02,.56h-11.41c-.07,3.33-.14,6.37-.42,9.17h8.09l2.45-3.08s2.77,2.07,4.41,3.54c-.1,.38-.49,.56-1.02,.56h-13.79Z"/>
      <path class="cls-1" d="M202.83,7.88c-.25,.31-.77,.59-1.47,.73V29.47c-.04,.28-1.89,1.16-3.26,1.16h-.59v-2.77h-5.32v2.59c0,.46-1.47,1.33-3.15,1.33h-.63V5.32l3.92,1.65h.21c.25-1.93,.56-4.66,.74-6.62l5.67,1.37c-.14,.59-.63,.84-1.44,.84-.91,1.23-2.28,3.05-3.4,4.41h3.05l1.85-2.1,3.82,3.01Zm-10.64,.1v8.68h5.32V7.98h-5.32Zm5.32,18.9v-9.21h-5.32v9.21h5.32Zm22.4-19.01c-.28,.31-.74,.56-1.54,.67-.25,14.11-.74,20.51-2.66,22.58-1.26,1.33-2.8,1.89-5.11,1.89,0-1.33-.18-2.31-.77-2.87-.63-.66-2-1.22-3.71-1.54l.03-.49c1.68,.14,4.1,.32,5.01,.32,.63,0,.95-.14,1.29-.46,1.29-1.19,1.65-8.16,1.89-20.09h-6.51c-1.68,2.97-3.68,5.46-5.92,7.35l-.46-.28c1.93-3.57,3.82-9.28,4.73-14.63l5.53,1.61c-.14,.46-.56,.7-1.37,.7-.6,1.5-1.23,2.91-1.96,4.24h5.57l2.2-2.28,3.75,3.29Zm-15.47,6.12c10.22,3.01,6.41,10.57,2.7,7.46-.17-2.49-1.58-5.32-2.98-7.25l.28-.21Z"/>
      <path class="cls-1" d="M224.12,10.68c.74-.04,1.71-.1,2.83-.21V2.17l4.55,.42c-.07,.38-.28,.66-1.05,.81v6.79l1.96-.21V.35l5.11,.42c-.07,.49-.35,.84-1.29,.98v3.29h.94l1.72-2.49s1.92,1.72,3.04,2.94c-.1,.39-.42,.56-.91,.56h-4.79v3.57c1.75-.17,3.57-.35,5.42-.56l.07,.49c-3.08,1.19-7.7,2.66-14.53,4.62-.25,.42-.59,.7-.98,.77l-2.1-4.27Zm22.19,7.53c10.82,1.37,8.82,8.65,5.04,6.69-.49-1.08-1.33-2.31-2.31-3.43-1.61,.32-3.54,.67-5.71,1.05v6.51c0,2.56-.63,3.96-5.11,4.31-.07-1.08-.17-1.92-.6-2.42-.42-.49-1.05-.91-2.66-1.12v-.49s2.87,.21,3.54,.21c.52,0,.66-.21,.66-.56v-5.74c-1.65,.25-3.43,.53-5.32,.81l3.85,2.48c-.25,.32-.56,.49-1.33,.32-2.62,2-7.04,3.99-11.48,4.97l-.28-.42c3.33-1.82,6.79-4.83,8.61-7.25l-2.73,.38c-.21,.39-.49,.63-.8,.77l-2-4.31s1.01-.07,1.58-.21c2.94-.59,6.48-1.82,9.7-3.22-2.21,.42-4.83,.84-7.6,1.26-.24,.31-.49,.53-.73,.63l-1.79-3.71s.7-.07,1.08-.21c3.43-.7,7.98-3.36,9.66-4.83l4.2,2.62c-.17,.28-.67,.53-1.47,.28-2.24,.91-5.99,1.93-9.49,2.59,2.52,0,5.81-.07,9.38-.14,2.13-1.05,3.99-2.13,5.11-2.98l4.13,3.26c-.21,.32-.81,.49-1.65,.17-3.61,1.58-10.68,3.54-16.94,4.76,3.99-.11,9.59-.32,15.47-.56-.77-.84-1.61-1.61-2.35-2.2l.32-.28Zm9.14-9.07c1.05,.42,1.33,.84,1.33,1.5,0,1.65-1.5,2.14-7.07,2.14h-3.4c-3.5,0-4.2-.7-4.2-3.22V.1l5.04,.46c-.07,.46-.38,.74-1.12,.88v3.5h3.01l2-2.87s2.2,2,3.46,3.33c-.1,.38-.49,.56-.98,.56h-7.49v2.87c0,.49,.17,.63,1.19,.63h2.91c1.08,0,2.1,0,2.52-.04,.39,0,.67-.11,.88-.35,.35-.45,.87-1.68,1.4-3.22h.39l.14,3.29Zm-10.19,15.19c12.64,.56,11.03,9.07,6.58,7.25-1.44-2.45-4.48-5.29-6.83-7l.24-.25Z"/>
      <path class="cls-1" d="M277.26,4.31l3.85,3.5c-.25,.38-.59,.53-1.47,.63-1.54,10.47-5.01,19.99-17.89,24.68l-.31-.42c5.57-3.26,9.03-7.88,11.2-13.34-.77,.42-1.79,.39-2.84-.46-.17-1.79-1.05-3.71-2.13-5.25-1.61,2.45-3.5,4.48-5.67,6.12l-.42-.28c3.12-4.73,5.64-11.83,6.48-19.25l5.74,1.3c-.14,.45-.53,.77-1.37,.8-.39,1.54-.84,2.94-1.33,4.31h3.95l2.21-2.34Zm-6.51,3.33c-.73,1.82-1.54,3.5-2.42,5,3.29,.88,4.87,2.42,5.29,3.82,.88-2.8,1.4-5.74,1.75-8.82h-4.62Zm15.58,3.75c11.9,2.98,9,11.31,4.66,8.51-.77-2.52-2.77-5.29-4.66-7.42V31.89c0,.39-1.79,1.23-3.36,1.23h-.84V.46l5.46,.52c-.07,.49-.32,.84-1.26,.98V11.38Z"/>
      <path class="cls-1" d="M302.2,22.75c1.33,3.61,1.12,6.3,.11,7.7-.7,.95-2.52,.98-3.15-.21-.56-1.05-.04-2.1,.91-2.77,.8-.84,1.82-2.98,1.61-4.73h.52Zm29.33-2.87c-.21,.25-.7,.46-1.37,.17-.95,.6-2.7,1.54-4.27,2.28,1.79,2.31,4.06,3.78,6.2,4.76l-.1,.38c-1.44,.35-2.52,1.68-2.98,3.47-3.05-3.01-4.94-6.51-6.06-12.57v10.26c0,2.45-.6,4.1-4.69,4.45-.04-1.08-.17-1.96-.63-2.49-.45-.52-1.12-.95-2.7-1.19v-.49s3.01,.25,3.67,.25c.53,0,.67-.25,.67-.63v-8.37h-.07c-1.37,4.52-4.38,8.79-9.66,11.34l-.28-.45c3.46-2.8,5.46-7.04,6.34-11.27h-3.92l-.04-.14c-.07,1.54-1.58,2.42-2.91,1.16-.04-.49-.1-1.02-.21-1.54-1.79,.74-4.24,1.71-6.86,2.66-.28,.35-.63,.59-.98,.7l-1.37-4.1s.84-.17,1.19-.42c1.54-1.23,3.4-3.64,4.9-6.13-1.05,.46-2.24,.95-3.5,1.44-.28,.49-.63,.8-.98,.95l-1.68-4.13s.73-.17,1.01-.38c1.71-1.79,3.92-6.76,4.55-9.45l4.69,2.28c-.14,.31-.56,.56-1.26,.49-1.5,2.24-4.09,5.18-6.41,7.14,1.33,.04,2.91,.04,4.59,0,.7-1.26,1.26-2.42,1.64-3.36l4.13,2.8c-.17,.28-.67,.53-1.33,.35-1.86,2.52-5.43,6.09-8.65,8.47,1.68-.07,3.82-.21,6.06-.38-.38-1.23-.87-2.38-1.37-3.33l.42-.18c2.62,1.26,3.85,2.8,4.17,4.1h3.92l1.86-1.86,2,1.72v-3.26h-2.59v.74c0,.25-1.08,.88-2.91,.88h-.63V3.19l3.92,1.5h1.37c.17-1.33,.35-3.36,.46-4.69l5.6,.84c-.11,.56-.56,.84-1.37,.91-.8,.8-2.21,2.03-3.22,2.94h5.29l1.71-2,3.43,2.59c-.25,.32-.59,.53-1.33,.66V15.54c0,.21-1.19,.88-3.05,.88h-.63v-1.05h-2.38v1.09c.56,2,1.37,3.68,2.31,5.08,.91-1.61,1.92-3.68,2.38-4.8l3.89,3.15Zm-26.57,2.45c5.81,4.38,1.96,9.45-.28,6.58,.46-2.14,.25-4.66-.21-6.48l.49-.11Zm3.22-.56c6.69,2.41,3.64,7.42,1.19,5.18,0-1.68-.77-3.71-1.58-5l.39-.17Zm8.51-16.07v3.82h8.65v-3.82h-8.65Zm8.65,8.68v-3.85h-8.65v3.85h8.65Z"/>
      <path class="cls-1" d="M356.71,4.62c-.84,2.03-1.89,4.06-3.15,6.02l2.17,.81c-.1,.31-.42,.56-1.08,.66v20.06c-.04,.25-1.89,.91-3.43,.91h-.77V14.95c-3.78,4.62-8.61,8.75-14.14,11.62l-.28-.28c7.04-5.67,13.02-14.32,15.19-21.67h-14.42l-.28-.98h25.24l2.52-3.22s2.87,2.17,4.59,3.64c-.11,.38-.49,.56-1.02,.56h-11.13Zm-.63,8.86c15.86,3.43,14.11,12.88,9.42,10.57-1.89-3.54-6.27-7.74-9.73-10.26l.32-.31Z"/>
      <path class="cls-1" d="M373.17,32.8c4.55-3.15,8.86-8.16,10.85-11.94l5.15,2.73c-.21,.35-.52,.56-1.33,.46-3.04,3.33-8.44,7.14-14.42,9.1l-.25-.35Zm9.52-13.06c0,.46-1.89,1.43-3.67,1.43h-.66V1.85l4.62,1.82h14.18l2-2.21,4.1,3.15c-.18,.28-.63,.59-1.37,.77v14.11c-.04,.28-2.21,1.12-3.64,1.12h-.74v-2.28h-14.81v1.4Zm0-15.05v12.67h14.81V4.69h-14.81Zm10.4,16.94c15.58,3.4,13.44,13.2,8.68,10.64-1.64-3.61-5.64-7.77-9-10.36l.32-.28Z"/>
      <path class="cls-1" d="M430.76,1.58c-.1,.42-.52,.63-1.68,.77,3.22,2.98,9.7,4.76,14.67,5.53v.49c-1.71,.56-2.83,2.35-3.04,3.92-.87-.32-1.71-.67-2.56-1.08l1.68,1.26c-.11,.17-.46,.38-.87,.49v6.62c-.04,.28-1.89,1.02-3.08,1.02h-.63v-1.02h-16v.28c0,.14-.17,.35-.49,.59l3.57,1.4h9.73l1.79-1.82,3.61,2.66c-.14,.21-.49,.42-.95,.53v8.54c-.04,.32-2,1.26-3.43,1.26h-.7v-1.82h-10.26v.67c0,.38-1.82,1.3-3.5,1.3h-.56v-12.32c-.49,.21-1.08,.35-1.82,.35h-.63V11.66c-1.47,.63-2.94,1.16-4.37,1.61l-.21-.42c5.84-2.97,12.15-8.82,13.69-12.78l6.06,1.51Zm5.6,8.72c-3.33-1.93-6.2-4.52-7.84-7.56-2.27,2.87-6.48,5.84-11.06,8.05l2.24,.88h15.3l1.37-1.37Zm-17.12,8.26h6.23v-5.88h-6.23v5.88Zm1.29-5.53c6.41,2.27,3.08,6.83,.8,4.51,.07-1.47-.56-3.22-1.19-4.34l.38-.17Zm9.42-6.44s1.92,1.51,3.12,2.63c-.1,.38-.42,.56-.91,.56h-9.91l-.28-.98h6.23l1.75-2.21Zm-7.84,16.28v3.15h10.26v-3.15h-10.26Zm10.26,7.32v-3.19h-10.26v3.19h10.26Zm2.87-17.5h-6.3v5.88h.98c.56-1.65,1.19-3.89,1.54-5.53l3.78,1.26v-1.61Zm0,5.88v-3.71c-.21,.1-.52,.17-.94,.14-.87,1.08-2.17,2.41-3.4,3.57h4.34Z"/>
      <path class="cls-1" d="M460.21,1.92c-.14,.46-.6,.74-1.4,.74-.95,2.52-2.07,4.9-3.26,7.04l1.47,.56c-.11,.32-.42,.56-1.08,.67V31.89c-.07,.32-1.72,1.19-3.26,1.19h-.74V15.02c-1.15,1.43-2.41,2.73-3.71,3.88l-.46-.28c2.62-4.52,5.29-11.66,6.65-18.41l5.78,1.71Zm7.14,17.36c-.49,.73-1.08,1.4-1.75,2.06h9.94l1.96-1.85,3.54,2.91c-.25,.31-.66,.49-1.37,.59-.46,5.32-1.3,7.98-2.87,9.1-1.05,.74-2.42,.95-4.27,.95,0-1.01-.11-1.71-.63-2.24-.46-.56-1.47-.91-2.73-1.16v-.21c-1.82,1.44-4.03,2.63-6.58,3.64l-.32-.53c4.1-2.48,6.79-6.06,8.3-10.19h-1.09c-2.28,3.5-6.2,6.27-10.82,8.12l-.35-.49c3.08-2,5.67-4.73,7.28-7.63h-1.16c-1.93,1.61-4.31,2.91-6.9,3.92l-.35-.52c2.56-1.68,4.62-4.03,6.02-6.48h-5.18l-.28-.98h17.5l1.75-2.24c-.7,.38-1.89,.8-2.84,.8h-.7v-.91h-7.7v.07c0,.32-1.79,1.16-3.43,1.16h-.56V8.68c-1.19,1.01-2.42,1.86-3.71,2.56l-.38-.32c2.03-2.52,4.06-6.58,5.25-10.75l5.25,1.96c-.17,.38-.63,.7-1.44,.63-.28,.49-.59,.95-.91,1.4h8.26l2.31-3.01s2.59,2.03,4.17,3.46c-.11,.38-.46,.56-.98,.56h-14.49c-.39,.52-.84,1.05-1.26,1.54l2.14,.8h7.14l1.86-1.96,3.78,2.83c-.17,.28-.63,.56-1.23,.67v6.62c.53,.42,2.45,1.92,3.71,3.04-.07,.38-.46,.56-.95,.56h-12.95Zm-1.58-10.78v2.7h7.7v-2.7h-7.7Zm7.7,6.44v-2.77h-7.7v2.77h7.7Zm1.19,7.42c-1.16,2.66-2.87,4.94-5.18,6.83,1.19,.11,2.94,.18,3.54,.18,.53,0,.81-.07,1.09-.28,.7-.53,1.29-2.87,1.68-6.72h-1.12Z"/>
      <path class="cls-1" d="M518.85,5.88c-.24,.28-.63,.35-1.33,.42-1.19,1.05-3.25,2.49-4.83,3.25l-.35-.21c.35-1.01,.74-2.59,1.02-3.85h-22.33c.14,2.42-.81,4.1-2,4.87-1.05,.73-2.66,.45-3.15-.81-.39-1.12,.28-2.1,1.29-2.62,1.29-.7,2.7-2.49,2.66-4.48h.53c.28,.74,.46,1.43,.56,2.07h9.84c-.25-.11-.52-.21-.8-.42-.11-1.36-.95-2.91-1.75-3.75l.25-.17c6.48-.07,5.99,3.61,3.88,4.34h10.85l2.06-2.1,3.61,3.47Zm-5.25,10.99s2.28,1.68,3.67,2.91c-.1,.39-.46,.56-.94,.56h-28.91l-.28-1.01h12.67v-3.47h-10.43l-.28-.98h10.71v-3.08c-3.12,.11-6.41,.11-9.49-.07l-.11-.56c3.08-.25,6.44-.7,9.59-1.29v-3.5l5.11,.53c-.07,.38-.32,.74-1.05,.84v1.29c2.24-.49,4.24-1.05,5.74-1.54l3.39,3.47c-.35,.28-1.08,.31-2.1-.14-2.03,.32-4.48,.56-7.04,.74v3.33h5.01l1.92-2.31s2.17,1.58,3.5,2.73c-.11,.39-.42,.56-.91,.56h-9.52v3.47h7.7l2.03-2.45Zm-3.64,3.75l3.99,2.97c-.21,.28-.7,.6-1.43,.74v7.6c-.04,.25-2.07,.95-3.36,.95h-.7v-2.45h-13.16v1.4c0,.35-1.79,1.19-3.43,1.19h-.59v-12.01l4.27,1.65h12.57l1.86-2.03Zm-1.5,8.82v-5.78h-13.16v5.78h13.16Z"/>
      <path class="cls-1" d="M551.2,15.75c-.28,.39-.63,.49-1.54,.6-1.47,3.43-3.46,6.48-6.2,9,3.61,1.82,7.84,2.91,12.36,3.57l-.04,.42c-1.86,.38-3.12,1.71-3.64,3.71-4.51-1.19-8.37-2.87-11.41-5.46-3.61,2.55-8.12,4.41-13.9,5.53l-.21-.46c4.9-1.68,8.93-4.06,12.04-7.04-2.28-2.59-4.03-5.88-5.11-10.12h-2.17c-.04,5.74-.84,12.92-8.26,17.5l-.32-.28c4.03-5.18,4.45-11.73,4.45-17.75V5.11l4.76,1.68h5.57V.35l5.53,.49c-.07,.49-.39,.84-1.3,1.01V6.79h6.69l2.21-2.24,3.85,3.64c-.28,.32-.63,.38-1.37,.42-1.3,1.3-3.61,3.08-5.29,4.1l-.07-.04,3.36,3.08Zm-19.81-7.95v6.69h6.2V7.81h-6.2Zm2.83,7.7c1.37,3.46,3.57,6.12,6.34,8.08,2.03-2.38,3.57-5.11,4.59-8.08h-10.92Zm7.6-7.7v6.69h3.19l2.38-2.24,.25,.21c.35-1.3,.8-3.19,1.08-4.66h-6.9Z"/>
      <path class="cls-1" d="M593.08,6.83c-.28,.32-.66,.35-1.29,.39-1.19,.88-3.25,2.03-4.73,2.62l-.35-.21c.38-.81,.87-2.07,1.22-3.08h-4.79c.63,.42,1.96,1.33,2.87,2.03-.04,.39-.42,.63-.87,.67l-8.26,.6v.17c0,.42,.07,.53,1.29,.53h3.85c1.33,0,2.73,0,3.29-.04,.38,0,.87-.07,1.12-.11,.28-.03,.77-.14,1.05-.21h.35l.14,.04c1.12,.42,1.5,.67,1.5,1.26,0,.81-.42,1.19-1.79,1.4l2.8,2.07c-.17,.21-.59,.46-1.16,.59v4.8c-.04,.21-1.26,.67-2.38,.88l2.49,1.82c-.25,.28-.74,.59-1.47,.74v5.71c0,2.03-.59,3.22-4.79,3.54-.07-.88-.18-1.58-.67-1.96-.46-.38-1.08-.77-2.66-.98v-.46s3.01,.17,3.68,.17c.53,0,.66-.17,.66-.63v-1.44c-2.45,.66-5.53,1.54-9.35,2.52-.21,.46-.56,.7-.95,.77l-1.02-3.43c2.03-.07,6.44-.39,11.31-.81v-3.67h-11.03v1.22c10.64-1.65,10.61,2.62,8.19,2.62-1.54-.59-4.76-1.26-8.19-1.64-.07,2.52-.95,5.88-6.48,7.77l-.28-.35c2.77-2.31,3.05-5.18,3.05-7.7v-3.15c-.25,0-.46,.04-.7,.04h-.49V12.5l4.06,1.58h12.81l1.01-1.09c-1.12,.07-2.59,.07-4.52,.07h-4.16c-3.61,0-4.27-.59-4.27-2.69v-.25l-5.39,.42-.35-1.02,5.74-.42v-2.38l4.73,.35c-.07,.46-.38,.77-1.05,.84v.95l4.34-.31,1.37-2h-15.72v7.88c0,5.85-.35,13.55-6.48,18.55l-.38-.25c2.87-5.36,3.04-12.18,3.04-18.27V3.96l4.41,1.61h6.33V.14l5.25,.42c-.07,.49-.38,.84-1.29,.95v1.37h6.65l2.03-2.52s2.28,1.72,3.68,2.98c-.04,.17-.14,.28-.25,.38l3.22,3.12Zm-9.24,15.3l1.43-1.65h-13.16v.28c0,.11-.25,.32-.67,.53l2.31,.84h10.08Zm-11.73-7.04v1.68h4.73v-1.68h-4.73Zm4.73,4.38v-1.71h-4.73v1.71h4.73Zm11.03-13.9l1.75-1.75c-.14,.04-.28,.07-.46,.07h-11.41v1.68h10.12Zm-7.28,9.52v1.68h4.87v-1.68h-4.87Zm0,4.38h4.87v-1.71h-4.87v1.71Z"/>
      <path class="cls-1" d="M602.15,20.72c2.24-1.19,3.26-2.8,3.75-4.76-1.96-.77-3.47-1.68-3.47-3.43,0-1.44,1.08-2.66,2.77-2.66s2.97,1.26,2.97,3.57c0,2.94-1.43,6.58-5.42,8.4l-.6-1.12Z"/>
      <path class="cls-1" d="M635.63,20.06c-.35,2.38-1.08,4.55-2.62,6.44,4.66,1.75,10.71,2.28,16.94,2.24v.46c-1.72,.56-2.7,1.89-3.01,3.89-6.41-.66-11.8-1.92-15.82-4.76-2.7,2.14-6.86,3.78-13.3,4.83l-.17-.42c5.67-1.82,9.14-3.82,11.2-6.3-1.23-1.26-2.31-2.73-3.15-4.48l.38-.35c.98,1.37,2.24,2.52,3.78,3.43,.87-1.47,1.37-3.12,1.65-4.97h-5.36v.91c0,.38-1.79,1.29-3.47,1.29h-.59V6.65l4.31,1.68h5.32v-3.92h-13.27l-.28-1.01h24.43l2.45-2.98s2.73,2.03,4.41,3.43c-.11,.38-.49,.56-.98,.56h-12.64v3.92h5.43l1.89-2.07,3.95,3.01c-.21,.28-.63,.6-1.37,.74v11.03c-.04,.28-2.1,1.01-3.43,1.01h-.7v-2h-5.99Zm-9.49-10.71v4.27h5.57v-4.27h-5.57Zm5.46,9.73c.07-.88,.11-1.79,.11-2.77v-1.68h-5.57v4.45h5.46Zm10.01,0v-4.45h-5.78v1.58c0,.98-.03,1.96-.1,2.87h5.88Zm-5.78-9.73v4.27h5.78v-4.27h-5.78Z"/>
      <path class="cls-1" d="M674.53,1.58c-.1,.42-.52,.63-1.68,.77,3.22,2.98,9.7,4.76,14.67,5.53v.49c-1.71,.56-2.83,2.35-3.04,3.92-.87-.32-1.71-.67-2.56-1.08l1.68,1.26c-.11,.17-.46,.38-.87,.49v6.62c-.04,.28-1.89,1.02-3.08,1.02h-.63v-1.02h-16v.28c0,.14-.17,.35-.49,.59l3.57,1.4h9.73l1.79-1.82,3.61,2.66c-.14,.21-.49,.42-.95,.53v8.54c-.04,.32-2,1.26-3.43,1.26h-.7v-1.82h-10.26v.67c0,.38-1.82,1.3-3.5,1.3h-.56v-12.32c-.49,.21-1.09,.35-1.82,.35h-.63V11.66c-1.47,.63-2.94,1.16-4.37,1.61l-.21-.42c5.84-2.97,12.15-8.82,13.69-12.78l6.06,1.51Zm5.6,8.72c-3.33-1.93-6.2-4.52-7.84-7.56-2.27,2.87-6.48,5.84-11.06,8.05l2.24,.88h15.3l1.36-1.37Zm-17.12,8.26h6.23v-5.88h-6.23v5.88Zm1.29-5.53c6.41,2.27,3.08,6.83,.8,4.51,.07-1.47-.56-3.22-1.19-4.34l.38-.17Zm9.42-6.44s1.92,1.51,3.12,2.63c-.1,.38-.42,.56-.91,.56h-9.91l-.28-.98h6.23l1.75-2.21Zm-7.84,16.28v3.15h10.26v-3.15h-10.26Zm10.26,7.32v-3.19h-10.26v3.19h10.26Zm2.87-17.5h-6.3v5.88h.98c.56-1.65,1.19-3.89,1.54-5.53l3.78,1.26v-1.61Zm0,5.88v-3.71c-.21,.1-.52,.17-.94,.14-.87,1.08-2.17,2.41-3.4,3.57h4.34Z"/>
      <path class="cls-1" d="M703.97,1.92c-.14,.46-.6,.74-1.4,.74-.95,2.52-2.07,4.9-3.26,7.04l1.47,.56c-.11,.32-.42,.56-1.08,.67V31.89c-.07,.32-1.72,1.19-3.26,1.19h-.74V15.02c-1.15,1.43-2.41,2.73-3.71,3.88l-.46-.28c2.62-4.52,5.29-11.66,6.65-18.41l5.78,1.71Zm7.14,17.36c-.49,.73-1.08,1.4-1.75,2.06h9.94l1.96-1.85,3.54,2.91c-.25,.31-.66,.49-1.37,.59-.46,5.32-1.3,7.98-2.87,9.1-1.05,.74-2.42,.95-4.27,.95,0-1.01-.11-1.71-.63-2.24-.46-.56-1.47-.91-2.73-1.16v-.21c-1.82,1.44-4.03,2.63-6.58,3.64l-.32-.53c4.1-2.48,6.79-6.06,8.3-10.19h-1.08c-2.28,3.5-6.2,6.27-10.82,8.12l-.35-.49c3.08-2,5.67-4.73,7.28-7.63h-1.15c-1.93,1.61-4.31,2.91-6.9,3.92l-.35-.52c2.56-1.68,4.62-4.03,6.02-6.48h-5.18l-.28-.98h17.5l1.75-2.24c-.7,.38-1.89,.8-2.84,.8h-.7v-.91h-7.7v.07c0,.32-1.79,1.16-3.43,1.16h-.56V8.68c-1.19,1.01-2.42,1.86-3.71,2.56l-.38-.32c2.03-2.52,4.06-6.58,5.25-10.75l5.25,1.96c-.17,.38-.63,.7-1.44,.63-.28,.49-.59,.95-.91,1.4h8.26l2.31-3.01s2.59,2.03,4.17,3.46c-.11,.38-.46,.56-.98,.56h-14.49c-.39,.52-.84,1.05-1.26,1.54l2.14,.8h7.14l1.86-1.96,3.78,2.83c-.17,.28-.63,.56-1.23,.67v6.62c.53,.42,2.45,1.92,3.71,3.04-.07,.38-.46,.56-.95,.56h-12.95Zm-1.58-10.78v2.7h7.7v-2.7h-7.7Zm7.7,6.44v-2.77h-7.7v2.77h7.7Zm1.19,7.42c-1.16,2.66-2.87,4.94-5.18,6.83,1.19,.11,2.94,.18,3.54,.18,.53,0,.81-.07,1.09-.28,.7-.53,1.29-2.87,1.68-6.72h-1.12Z"/>
      <path class="cls-1" d="M33.64,54.1c-.25,.28-.63,.35-1.33,.42-1.19,1.05-3.26,2.49-4.83,3.25l-.35-.21c.35-1.01,.73-2.59,1.02-3.85H5.81c.14,2.42-.81,4.1-2,4.87-1.05,.73-2.66,.45-3.15-.81-.38-1.12,.28-2.1,1.3-2.62,1.29-.7,2.7-2.49,2.66-4.48h.52c.28,.74,.46,1.43,.56,2.07H15.54c-.24-.11-.52-.21-.8-.42-.11-1.36-.95-2.91-1.75-3.75l.25-.17c6.48-.07,5.99,3.61,3.89,4.34h10.85l2.07-2.1,3.61,3.47Zm-5.25,10.99s2.27,1.68,3.68,2.91c-.1,.39-.46,.56-.95,.56H2.21l-.28-1.01H14.6v-3.47H4.17l-.28-.98H14.6v-3.08c-3.12,.11-6.41,.11-9.49-.07l-.11-.56c3.08-.25,6.44-.7,9.59-1.29v-3.5l5.11,.53c-.07,.38-.31,.74-1.05,.84v1.29c2.24-.49,4.24-1.05,5.74-1.54l3.4,3.47c-.35,.28-1.09,.31-2.1-.14-2.03,.32-4.48,.56-7.04,.74v3.33h5.01l1.93-2.31s2.17,1.58,3.5,2.73c-.1,.39-.42,.56-.91,.56h-9.52v3.47h7.7l2.03-2.45Zm-3.64,3.75l3.99,2.97c-.21,.28-.7,.6-1.44,.74v7.6c-.03,.25-2.06,.95-3.36,.95h-.7v-2.45H10.08v1.4c0,.35-1.79,1.19-3.43,1.19h-.6v-12.01l4.27,1.65h12.57l1.85-2.03Zm-1.5,8.82v-5.78H10.08v5.78h13.16Z"/>
      <path class="cls-1" d="M41.81,60.33c-1.29,1.4-2.7,2.59-4.13,3.61l-.35-.28c2.45-3.68,5.08-9.52,6.55-15.23l5.6,1.96c-.14,.42-.6,.74-1.44,.67-.77,1.65-1.65,3.22-2.56,4.66l1.54,.56c-.1,.31-.49,.56-1.08,.66v11.27c-.07,.28-1.72,1.09-3.36,1.09l-.77,.04v-9Zm1.05,9.38c1.71,4.34,.42,7.42-1.3,8.47-1.15,.74-2.73,.49-3.22-.74-.35-1.16,.31-2.13,1.33-2.66,1.37-.77,2.77-2.76,2.7-5.04l.49-.04Zm19.39,6.9c1.23,.38,1.54,.84,1.54,1.58,0,1.75-1.72,2.24-8.61,2.24h-4.52c-3.99,0-4.9-.67-4.9-3.36v-8.12l5.22,.42c-.07,.49-.38,.77-1.09,.91v6.09c0,.49,.17,.63,1.47,.63h4.24c1.5,0,2.87,0,3.43-.04,.56-.03,.77-.14,1.05-.49,.42-.6,.98-2,1.72-3.96h.35l.11,4.1Zm-15.02-16.24c1.75-2.87,3.47-7.49,4.31-12.01l5.46,1.68c-.14,.46-.56,.73-1.4,.73-.35,.74-.66,1.44-1.02,2.1h9.84l2.14-2.17,3.75,3.54c-.28,.28-.67,.38-1.37,.46-1.26,1.12-3.43,2.59-5.11,3.4l-.28-.21c.39-1.09,.81-2.73,1.09-4.03h-10.64c-1.75,2.87-3.89,5.18-6.34,6.83l-.42-.31Zm9.52-.74c-.14,.42-.6,.7-1.37,.63-1.89,3.36-4.52,5.67-7.42,7.04l-.39-.32c1.79-2.1,3.4-5.5,4.27-9.1l4.9,1.75Zm-4.27,7.98c8.86,2.66,5.08,8.93,1.92,6.06-.07-2-1.19-4.31-2.27-5.85l.35-.21Zm8.33,.63c0,.25-1.61,.81-3.12,.81h-.73v-13.41l5.15,.49c-.07,.49-.35,.81-1.3,.95v11.17Zm1.93,.95c10.22,3.19,6.44,11.1,2.73,7.88-.04-2.66-1.47-5.64-3.08-7.67l.35-.21Zm0-10.47c10.4,3.12,6.97,10.68,3.26,7.77-.35-2.55-2.03-5.57-3.57-7.56l.31-.21Z"/>
      <path class="cls-1" d="M107.46,53.12c-.28,.25-.63,.35-1.33,.38-.77,.6-2.07,1.23-3.15,1.65l.25,.21c-.07,.38-.42,.56-.91,.56h-3.47v2h2.56l1.54-1.79s1.72,1.26,2.84,2.21c-.11,.38-.46,.56-.91,.56h-6.02v3.43h2.28v-2.66l3.96,.35c-.07,.35-.24,.59-.88,.7v2.98c0,.25-1.4,.77-2.52,.77h-.35l1.61,1.23c-.17,.21-.52,.46-1.09,.52v9.56c-.04,.25-1.58,.84-2.84,.98,11.62,1.23,6.02,6.23,2.8,4.03-1.71-1.22-4.83-2.8-9.14-3.78l.1-.49c1.89,0,3.57,.03,5.01,.14v-.7h-10.89l3.57,2.59c-.32,.35-.98,.46-2,.21-3.26,1.43-8.68,2.42-13.72,2.52l-.14-.49c4.34-.98,8.96-3.01,11.45-4.83h-2.28v.28c0,.35-1.79,1.22-3.43,1.22h-.6v-13.65l-1.37,.38c-.17,.45-.52,.67-.88,.77l-1.75-3.5c1.23-.04,3.22-.18,5.64-.35v-2.1h-3.15l-.28-1.02h3.43v-2h-3.12c-.28,.42-.63,.74-1.02,.95-1.08,.56-2.62,.25-2.98-1.02-.35-1.19,.42-2.1,1.43-2.52,1.09-.49,2.14-1.89,2-3.33h.53c.24,.63,.42,1.19,.52,1.75h10.57c-.1-.07-.25-.14-.35-.25,.14-1.12-.28-2.42-1.02-3.05l.25-.21c5.36-.25,5.43,2.45,3.92,3.5h10.05l1.89-1.93,3.36,3.22Zm-12.01,2.8h-2.8c-.77,.67-1.68,1.3-2.59,1.75l-.42-.25c.77-1.16,1.54-3.12,1.96-4.59h-12.64c.07,.84,0,1.54-.21,2.14h6.62l1.54-1.86s1.79,1.29,2.91,2.31c-.11,.38-.42,.56-.91,.56h-3.99v2h.53l1.36-1.58s1.26,.98,2.24,1.89l-.1-.39h6.51v-2Zm0,2.98l-6.23-.04-.07-.17c-.14,.21-.42,.32-.77,.32h-3.47v1.79c1.54-.14,3.12-.28,4.73-.42l.04,.52c-2.03,.74-4.87,1.58-8.79,2.66l3.15,1.26h7.91l-3.4-1.89c.28-.28,.77-.67,1.23-.91v-2.49l3.92,.39c-.07,.35-.28,.59-.84,.7v1.72h2.59v-3.43Zm-11.66,6.9v2.38h14v-2.38h-14Zm0,5.74h14v-2.35h-14v2.35Zm14,3.4v-2.38h-14v2.38h14Zm-5.74-10.12h5.46l1.37-1.47h-5.78l-1.05,1.47Zm8.37-11.62s.94,.67,1.86,1.4c.1-.52,.18-1.16,.21-1.75h-10.29l3.36,1.05c-.14,.32-.42,.46-1.23,.35-.21,.25-.42,.46-.67,.7h5.29l1.47-1.75Zm.7,10.15h-1.23l1.23,.95v-.95Z"/>
      <path class="cls-1" d="M140.21,56.86s2.42,1.79,3.92,3.05c-.1,.38-.45,.56-.98,.56h-31.57l-.28-1.01h14.28v-2.63h-5.08v.81c0,.31-1.75,1.12-3.29,1.12h-.52v-8.68l4.06,1.58h4.83v-3.25l5.29,.46c-.03,.49-.31,.84-1.26,.98v1.82h5.08l1.79-1.96,3.82,2.87c-.21,.25-.7,.6-1.4,.74v3.92c-.04,.28-1.89,1.12-3.22,1.12h-.67v-1.51h-5.39v2.63h8.44l2.17-2.59Zm-28.25,23.98c4.41-1.33,9.21-3.96,11.48-6.09l4.41,3.12c-.31,.35-1.02,.49-2.06,.21-3.22,1.58-8.61,2.84-13.72,3.26l-.1-.49Zm22.37-5.04v-1.16h-12.99v.59c0,.38-1.79,1.29-3.47,1.29h-.59v-15.65l4.31,1.72h12.43l1.86-2.03,3.85,2.94c-.21,.25-.63,.53-1.26,.67v10.61c-.04,.25-2.07,1.02-3.43,1.02h-.7Zm-8.75-19.95v-3.19h-5.08v3.19h5.08Zm-4.24,7.74v2.59h12.99v-2.59h-12.99Zm12.99,3.61h-12.99v2.7h12.99v-2.7Zm0,6.48v-2.8h-12.99v2.8h12.99Zm-4.97,2.31c19.81,.14,12.36,7.35,8.61,4.62-1.65-1.29-4.62-3.04-8.72-4.17l.11-.46Zm.25-23.31v3.19h5.39v-3.19h-5.39Z"/>
      <path class="cls-1" d="M164.14,56.09c-.24,.31-.77,.59-1.47,.73v20.86c-.04,.28-1.89,1.16-3.26,1.16h-.6v-2.77h-5.32v2.59c0,.46-1.47,1.33-3.15,1.33h-.63v-26.46l3.92,1.65h.21c.25-1.93,.56-4.66,.74-6.62l5.67,1.37c-.14,.59-.63,.84-1.44,.84-.91,1.23-2.28,3.05-3.4,4.41h3.05l1.86-2.1,3.81,3.01Zm-10.64,.1v8.68h5.32v-8.68h-5.32Zm5.32,18.9v-9.21h-5.32v9.21h5.32Zm22.4-19.01c-.28,.31-.73,.56-1.54,.66-.25,14.11-.74,20.51-2.66,22.58-1.26,1.33-2.8,1.89-5.11,1.89,0-1.33-.17-2.31-.77-2.87-.63-.67-2-1.22-3.71-1.54l.04-.49c1.68,.14,4.1,.32,5.01,.32,.63,0,.95-.14,1.3-.46,1.29-1.19,1.64-8.16,1.89-20.09h-6.51c-1.68,2.97-3.68,5.46-5.92,7.35l-.45-.28c1.92-3.57,3.82-9.28,4.73-14.63l5.53,1.61c-.14,.46-.56,.7-1.37,.7-.59,1.5-1.23,2.91-1.96,4.24h5.57l2.2-2.28,3.75,3.29Zm-15.47,6.12c10.22,3.01,6.41,10.57,2.7,7.46-.17-2.49-1.58-5.32-2.98-7.25l.28-.21Z"/>
      <path class="cls-1" d="M194.02,58.79c-.11,.31-.38,.56-1.08,.66v20.62c-.04,.31-1.72,1.19-3.33,1.19h-.77v-17.68c-1.12,1.26-2.34,2.38-3.61,3.36l-.42-.28c2.84-4.45,5.71-11.45,7.07-18.24l5.81,1.79c-.18,.42-.6,.7-1.4,.7-.98,2.73-2.17,5.18-3.54,7.42l1.26,.46Zm21.88,4.79c-.25,.28-.66,.32-1.26,.11-.91,.59-2.52,1.43-4.34,2.21,1.26,5.08,4.13,7.88,7.84,9.66l-.07,.38c-1.51,.28-2.7,1.47-3.26,3.33-3.12-3.01-4.52-6.72-5.11-13.13-.7,.28-1.4,.56-2.1,.77,2.63,4.83,2.42,10.54,.77,12.78-.84,1.12-2.56,1.54-5.01,1.54-.04-1.19-.31-2-.84-2.52-.42-.46-1.47-.91-2.8-1.23v-.42c1.37,.11,3.57,.25,4.38,.25,.46,0,.8-.07,.98-.38,.42-.77,.66-2.35,.66-4.24-3.19,2.34-7.49,4.58-11.97,5.63l-.21-.42c4.66-2.28,9-6.09,11.66-10.05l-.04-.14c-2.98,1.85-7.14,3.71-10.92,4.79l-.25-.42c3.57-1.92,7.53-5.5,9.63-8.54l-.21-.38c-2.35,1.61-5.11,2.91-7.95,3.92l-.28-.46c2.76-1.79,5.36-4.41,7.11-6.79h-5.46l-.25-.88c-.8,.07-1.61-.25-1.92-1.05-.38-1.12,.28-2.06,1.23-2.55,.91-.59,1.96-2.14,1.89-3.54h.49c.25,.63,.42,1.26,.53,1.82h6.12c-.31-.11-.63-.32-.91-.56,0-1.61-.77-3.4-1.58-4.48l.28-.21c6.34,.88,5.92,4.41,3.95,5.25h6.23l1.96-2,3.46,3.33c-.28,.28-.63,.35-1.33,.38-.87,.63-2.21,1.47-3.29,2.13,.66,.56,1.47,1.23,2.1,1.79-.11,.39-.42,.56-.91,.56h-7.56c-.91,1.01-2,1.96-3.18,2.84,1.19,1.02,2.17,2.17,2.94,3.43,1.96-1.79,4.13-4.27,5.11-5.6l3.67,3.08Zm-16.94-8.96c.14,1.93-.49,3.36-1.4,3.99-.1,.07-.25,.14-.38,.21h13.09l1.96-2.45,.42,.32c.17-.66,.35-1.4,.49-2.07h-14.18Z"/>
      <path class="cls-1" d="M251.37,68.13s2.59,2.31,4.1,3.85c-.11,.38-.46,.56-.98,.56h-31.99l-.28-1.01h7v-22.33l4.58,1.75h10.54l2.07-2.17,3.89,3.12c-.25,.28-.7,.6-1.44,.74v18.9h.21l2.31-3.4Zm-28.91,12.74c3.92-2.07,7.95-5.53,9.73-8.19l5.11,2.52c-.21,.42-.81,.63-1.89,.49-2.83,2.21-7.74,4.38-12.74,5.57l-.21-.38Zm10.89-28.91v4.17h11.34v-4.17h-11.34Zm11.34,5.18h-11.34v3.99h11.34v-3.99Zm-11.34,4.97v4.13h11.34v-4.13h-11.34Zm0,9.42h11.34v-4.31h-11.34v4.31Zm7.56,2.13c19.04,2.03,12.11,10.26,8.54,6.83-1.47-1.93-4.2-4.48-8.68-6.37l.14-.46Z"/>
      <path class="cls-1" d="M270.26,69.95c-.07,.25-1.89,1.01-3.15,1.01h-.63v-2.91h-2.45v3.4c0,.38-1.47,1.23-3.05,1.23h-.56v-21.28l3.75,1.57h1.96l1.79-2,3.75,2.91c-.25,.28-.7,.6-1.4,.74v15.33Zm-3.78-2.87v-13.09h-2.45v13.09h2.45Zm5.81,4.03c1.5,4.2,.28,7.21-1.29,8.3-1.12,.77-2.7,.59-3.22-.56-.38-1.12,.25-2.07,1.26-2.62,1.29-.81,2.73-2.84,2.73-5.15l.53,.04Zm20.09-2.98c-.25,.31-.66,.49-1.4,.59-.35,7-1.05,10.26-2.66,11.55-1.05,.77-2.34,1.15-4.03,1.12,0-1.02-.14-1.93-.59-2.45-.46-.49-1.44-.91-2.63-1.19v-.46c1.12,.07,2.98,.17,3.64,.17,.53,0,.81-.07,1.08-.28,.77-.66,1.3-3.61,1.61-9.03h-11.1v.94c0,.35-1.19,1.4-3.19,1.4h-.7v-20.62l4.34,1.65h8.61l2.07-2.66s2.31,1.82,3.71,3.12c-.11,.38-.46,.56-.95,.56h-6.72v4.13h1.4l1.89-2.45s2.17,1.71,3.43,2.91c-.07,.38-.42,.56-.91,.56h-5.81v4.2h1.58l1.89-2.49s2.14,1.71,3.43,2.94c-.11,.38-.46,.56-.91,.56h-5.99v4.24h3.57l1.89-1.85,3.43,2.83Zm-17.22,2.8c5.71,4.48,1.58,9.42-.59,6.37,.52-2.07,.49-4.48,.14-6.27l.45-.11Zm1.16-18.38v4.13h3.43v-4.13h-3.43Zm3.43,5.15h-3.43v4.2h3.43v-4.2Zm-3.43,9.45h3.43v-4.24h-3.43v4.24Zm2.52,3.33c6.69,2.8,3.19,7.95,.81,5.39,.25-1.75-.38-3.85-1.23-5.21l.42-.18Zm3.57-.88c6.93,1.44,4.34,6.69,1.75,4.66-.04-1.51-1.05-3.36-2.1-4.41l.35-.25Z"/>
      <path class="cls-1" d="M302.73,56.06c-.39,2.28-1.23,3.01-2.66,3.01-.87,0-1.61-.38-2.1-1.08,.25-4.27,3.89-6.69,8.72-6.69,5.6,0,8.44,2.49,8.44,6.13,0,2.76-1.36,4.55-4.93,6.72-2.73,1.68-3.61,2.31-3.82,4.16l-.18,2.14h-1.26c-.17-1.16-.42-2.63-.42-3.54,0-1.64,.87-2.55,3.12-4.48,2.13-1.79,3.12-3.05,3.12-5.36,0-3.01-2.1-4.48-5.25-4.48-.77,0-1.4,.07-2.1,.32l-.66,3.15Zm5.78,19.85c0,1.5-1.23,2.77-2.83,2.77s-2.8-1.26-2.8-2.77,1.19-2.8,2.8-2.8,2.83,1.26,2.83,2.8Z"/>
      <path class="cls-1" d="M349.86,48.78s2.73,2.03,4.41,3.47c-.11,.38-.49,.56-1.02,.56h-12.64c-1.3,2.24-2.84,4.59-4.38,6.23h8.96l2-2.21,4.03,3.15c-.25,.28-.7,.6-1.43,.74v19.01c-.04,.28-2.07,1.19-3.54,1.19h-.7v-2.91h-13.86v1.61c0,.49-1.72,1.47-3.54,1.47h-.66v-23.87l4.48,1.82h2.94c.25-1.71,.49-4.2,.59-6.23h-12.29l-.28-1.01h24.47l2.45-3.01Zm-18.17,11.24v7.63h13.86v-7.63h-13.86Zm13.86,16.98v-8.37h-13.86v8.37h13.86Z"/>
      <path class="cls-1" d="M387.23,74.71s2.91,2.21,4.73,3.71c-.11,.38-.49,.56-1.02,.56h-31.12l-.28-1.01h4.1v-25.2h-3.47l-.31-.98h23.63l2.52-3.15s2.8,2.13,4.59,3.57c-.11,.38-.53,.56-1.05,.56h-21.67v6.51h12.99l2.03-2.27,4.34,3.29c-.25,.31-.84,.7-1.68,.88v10.64c-.04,.25-2.17,.98-3.57,.98h-.7v-3.15h-13.41v8.33h16.73l2.63-3.26Zm-19.36-14.42v8.33h13.41v-8.33h-13.41Z"/>
      <path class="cls-1" d="M407.86,66.1c-.25,.35-.56,.46-1.3,.49-.7,2.49-2.27,5.15-4.48,7.25,.11,.07,.21,.14,.35,.25,2.73,2.14,7.04,2.56,14.91,2.56,4.17,0,7.56-.04,11.73-.25v.42c-1.65,.32-2.59,1.82-2.83,3.4h-10.36c-7.88,0-10.92-1.23-13.83-4.87-.53-.67-.91-.56-1.19,.07-.53,1.05-1.23,2.77-1.89,4.48,.11,.32-.04,.53-.28,.7l-2.8-3.92c1.58-.81,3.89-2.52,4.87-2.94,1.09-2.17,1.86-4.94,2.17-7.39h-2.1l-1.19,1.05-2.94-2.13c.32-.25,.84-.49,1.37-.67,1.09-1.65,2.49-4.06,3.36-5.81h-4.62l-.32-1.02h5.01l1.58-1.61,2.77,2.42c2.31-2.35,4.41-6.44,5.36-9.91l5.46,.95c-.1,.38-.35,.56-1.29,.56-.46,.77-1.01,1.54-1.58,2.31h3.75l2.06-2.14,3.71,3.26c-.32,.28-.7,.35-1.4,.38-1.16,1.05-2.7,2.38-4.24,3.4h3.64l1.71-1.82,3.68,2.73c-.25,.25-.7,.52-1.37,.66v6.41c-.04,.21-1.89,.88-3.05,.88h-.63v-1.19h-1.71v1.36l.28-.17c6.75,1.44,4.06,6.27,1.57,4.34-.14-1.4-1.01-3.01-1.85-4.06v4.94c0,.42,.1,.53,.8,.53h1.86c.7,0,1.29,0,1.61-.04,.31,0,.45-.07,.63-.38,.28-.49,.74-2.03,1.26-3.89h.42l.07,4.03c.87,.38,1.08,.77,1.08,1.4,0,1.29-1.19,1.92-5.43,1.92h-2.48c-2.8,0-3.26-.67-3.26-2.83v-4.66c-1.86,3.43-4.87,6.05-9.77,7.95l-.21-.42c4.34-2.7,6.62-5.99,7.74-10.01h-2.28v.63c0,.31-1.68,1.16-3.22,1.16h-.53v-9.21c-.7,.46-1.4,.88-2.1,1.22l.18,.17c-.32,.35-.95,.53-1.75,.56-.87,1.54-2.27,3.99-3.36,5.74h1.47l1.89-1.85,3.29,2.62Zm-10.01-17.12c9.14,1.4,5.78,8.23,2.28,5.67-.21-1.92-1.4-4.1-2.59-5.46l.31-.21Zm15.09,4.48c-.91,1.08-1.96,2.07-3.12,2.98l2.34,.95h4.1c.53-1.19,1.05-2.73,1.4-3.92h-4.73Zm1.54,10.57c.42-1.75,.63-3.61,.7-5.64h-3.19v5.64h2.49Zm4.52-5.64c-.21,2.07-.56,3.92-1.05,5.64h3.71v-5.64h-2.66Z"/>
      <path class="cls-1" d="M445.37,64.21l3.89,2.94c-.21,.28-.7,.56-1.4,.7v11.34c-.04,.28-1.96,1.16-3.29,1.16h-.66v-2.91h-5.11v2.24c0,.39-1.68,1.3-3.29,1.3h-.59v-16.38l4.06,1.61h4.58l1.82-2Zm-1.47,12.22v-9.21h-5.11v9.21h5.11Zm.56-13.65c0,.38-1.79,1.29-3.5,1.29h-.63v-14.84l4.34,1.72h9.52l1.92-2.1,3.99,3.04c-.21,.28-.7,.6-1.44,.74v10.01c-.04,.28-2.03,1.12-3.43,1.12h-.7v-2.83h-10.08v1.86Zm0-10.82v7.98h10.08v-7.98h-10.08Zm21.28,15.19c-.25,.28-.73,.56-1.43,.74v11.62c-.04,.28-2.03,1.02-3.36,1.02h-.66v-3.08h-5.39v2.28c0,.38-1.65,1.29-3.29,1.29h-.6v-16.42l4.06,1.61h4.87l1.89-2.03,3.92,2.98Zm-5.46,9.28v-9.21h-5.39v9.21h5.39Z"/>
      <path class="cls-1" d="M482.32,62.6c-1.12,.8-2.62,1.85-4.45,3.05v11.06c0,2.73-.56,4.2-4.66,4.62-.07-1.23-.21-2.14-.63-2.73-.46-.59-1.12-1.01-2.52-1.26v-.49s2.77,.21,3.36,.21c.53,0,.7-.17,.7-.59v-8.47c-.63,.42-1.29,.81-2,1.23-.11,.45-.46,.8-.87,.95l-1.68-4.66c.95-.18,2.56-.6,4.55-1.09v-6.72h-3.75l-.28-.98h4.03v-8.33l5.04,.53c-.07,.49-.42,.84-1.3,.94v6.86h.21l1.72-2.91s1.89,2.07,2.83,3.33c-.07,.38-.42,.56-.87,.56h-3.89v5.74c1.4-.38,2.87-.81,4.34-1.23l.1,.39Zm11.94,4.76c2.03,3.57,5.67,6.3,9.28,7.63l-.07,.38c-1.54,.35-2.66,1.65-3.19,3.64-3.22-2.49-5.36-6.23-6.65-11.31v12.5c0,.32-1.75,1.05-3.22,1.05h-.73v-9.21c-2.56,2.91-6.06,5.29-10.19,7.07l-.31-.46c3.99-2.84,7.07-7.04,8.75-11.31h-6.51l-.28-.98h8.54v-4.38l5.18,.46c-.07,.49-.35,.84-1.23,.98v2.94h3.61l2.13-2.87s2.38,1.93,3.85,3.29c-.1,.38-.49,.56-1.01,.56h-7.95Zm7.67-15.12c-.42,.35-1.19,.38-2.24-.04-4.45,.77-11.66,1.33-17.61,1.33l-.11-.53c5.46-.94,12.5-2.94,16.07-4.48l3.89,3.71Zm-18.9,2.73c8.26,2.94,4.24,9.14,1.19,6.12,.07-2.07-.67-4.38-1.54-5.95l.35-.17Zm6.23-.98c8.26,2.94,4.16,9.21,1.12,6.13,.1-2.03-.63-4.34-1.47-5.99l.35-.14Zm5.57,8.72c1.05-2.21,2.28-5.85,3.08-9.1l5.01,1.82c-.14,.42-.6,.73-1.4,.67-1.82,2.7-4.06,5.25-6.23,6.9l-.46-.28Z"/>
      <path class="cls-1" d="M538.21,52.14c-.25,.32-.77,.67-1.58,.84v23.17c0,2.8-.59,4.34-5.25,4.76-.11-1.26-.28-2.24-.77-2.84-.53-.59-1.29-1.05-2.98-1.36v-.49s3.43,.25,4.13,.25c.59,0,.77-.25,.77-.74v-6.93h-7.04v10.92c0,.25-1.23,1.12-3.33,1.12h-.74v-12.04h-6.69c-.67,4.48-2.52,8.93-7.35,12.22l-.39-.28c3.75-5.32,4.1-12.08,4.1-18.69v-12.53l4.69,1.68h16.35l1.96-2.31,4.1,3.25Zm-16.77,15.68v-7.46h-6.27v1.64c0,1.86-.04,3.85-.28,5.81h6.55Zm-6.27-15.65v7.18h6.27v-7.18h-6.27Zm10.33,0v7.18h7.04v-7.18h-7.04Zm7.04,15.65v-7.46h-7.04v7.46h7.04Z"/>
      <path class="cls-1" d="M572.35,75.17s2.83,2.21,4.58,3.68c-.1,.38-.49,.56-1.01,.56h-31.61l-.28-.98h13.02v-29.51l5.81,.56c-.1,.49-.35,.84-1.29,.98v11.73h5.74l2.52-3.22s2.8,2.13,4.48,3.64c-.11,.38-.46,.56-.95,.56h-11.8v15.26h8.23l2.56-3.26Z"/>
      <path class="cls-1" d="M609.62,51.26s2.77,2.07,4.38,3.54c-.07,.39-.42,.56-.95,.56h-13.44v4.69h5.36l1.86-2.14,4.1,3.08c-.25,.28-.7,.59-1.44,.73v10.36c0,2.7-.59,4.27-5.18,4.69-.07-1.29-.25-2.24-.7-2.87-.49-.56-1.12-1.05-2.66-1.29v-.49s2.84,.17,3.68,.17c.52,0,.7-.21,.7-.63v-10.64h-5.71v19.18c-.04,.28-1.33,1.16-3.54,1.16h-.8v-20.34h-5.74v14.07c0,.46-1.79,1.37-3.54,1.37h-.59v-18.2l4.41,1.79h5.46v-4.69h-13.93l-.28-.98h26.11l2.45-3.12Zm-16.14-2.87c10.19,.1,6.9,7.84,2.76,5.32-.42-1.89-1.82-3.85-3.01-5.11l.25-.21Z"/>
      <path class="cls-1" d="M632.84,52.59c-.17,.42-.63,.7-1.47,.63-3.08,6.69-7.42,11.13-12.71,14l-.35-.32c3.54-3.71,7.07-9.87,8.86-16.45l5.67,2.13Zm6.13,15.09c13.48,6.09,9.77,16.66,5.04,12.67-.17-1.4-.53-2.87-1.05-4.34-4.59,1.37-10.89,2.94-18.62,4.38-.35,.49-.77,.81-1.23,.95l-1.75-5.36s1.05-.25,1.47-.6c2.76-2.52,6.93-10.29,8.12-14.7l5.95,2.28c-.17,.38-.6,.7-1.37,.67-2.35,3.92-7.04,9.28-11.06,12.53,4.41-.14,11.2-.56,18.06-1.19-1.05-2.55-2.49-5.04-3.96-7.07l.39-.21Zm3.29-17.08c-.46,.56-1.68,.84-3.12,.95,1.58,5.01,5.78,9.38,11.66,11.45l-.07,.42c-1.79,.63-3.22,2.28-3.71,3.99-4.94-3.5-7.67-9-8.79-16.14h-4.06l-.32-.98h3.43l1.37-2.17,3.61,2.49Z"/>
      <path class="cls-1" d="M674.48,53.78s2.56,2,4.13,3.36c-.11,.38-.49,.56-1.02,.56h-21.7l-.28-1.01h16.56l2.31-2.91Zm11.83-1.92c-.25,.31-.73,.63-1.47,.77v23.66c0,2.87-.7,4.55-5.99,5.04-.21-1.37-.49-2.35-1.23-2.98-.8-.67-1.82-1.16-4.13-1.54v-.49s5.25,.35,6.23,.35c.73,0,.94-.28,.94-.84v-23.91h-23.66l-.32-1.01h23.59l1.96-2.24,4.06,3.19Zm-12.15,22.12c-.04,.28-1.96,1.12-3.33,1.12h-.7v-2.84h-7.56v3.01c0,.38-1.68,1.29-3.33,1.29h-.59v-16l4.09,1.64h7.04l1.89-2.07,3.92,2.98c-.25,.28-.7,.6-1.43,.74v10.12Zm-4.03-2.73v-8.05h-7.56v8.05h7.56Z"/>
      <path class="cls-1" d="M712.65,53.68c14.21,3.64,11.8,13.13,7.32,10.4-.42-1.19-1.12-2.49-1.96-3.75-5.15,1.05-12.64,2.31-21.74,3.61-.32,.38-.67,.63-1.05,.73l-1.4-4.73s.98-.17,1.4-.42c3.61-1.92,8.82-7.81,10.47-11.17l5.71,2.28c-.14,.38-.59,.67-1.4,.59-2.7,2.84-7.77,6.41-12.25,8.75,4.69-.07,12.01-.28,19.64-.56-1.51-2.07-3.33-4.03-5.04-5.5l.32-.25Zm4.17,10.89l4.31,3.33c-.25,.32-.77,.66-1.61,.84v11.27c-.04,.21-2.21,.98-3.64,.98h-.7v-2.94h-13.37v1.79c0,.42-1.92,1.4-3.71,1.4h-.63v-16.14l4.58,1.79h12.71l2.07-2.31Zm-1.64,12.5v-9.17h-13.37v9.17h13.37Z"/>
      <path class="cls-1" d="M31.75,112.15c-.25,.38-.56,.49-1.44,.56-1.12,3.4-2.8,6.48-5.15,9.1,2.42,1.75,5.36,2.94,8.58,3.78l-.07,.42c-1.75,.31-3.04,1.58-3.64,3.54-2.98-1.4-5.39-3.08-7.28-5.39-2.77,2.28-6.23,4.1-10.61,5.36l-.28-.42c3.89-1.86,6.93-4.31,9.28-7.25-1.47-2.52-2.48-5.71-3.15-9.8h-.91c-.07,5.85-1.09,12.99-8.96,17.47l-.35-.31c2.73-2.94,4.13-6.3,4.83-9.84-2.24,1.61-5.5,3.78-9.87,6.44-.14,.42-.49,.84-.88,.98l-1.86-4.62c.91-.17,2.42-.59,4.27-1.08v-9.77H.84l-.28-1.01h3.71v-8.65H.67l-.28-1.01h7.63l2.1-2.87s2.38,1.96,3.75,3.33c-.03,.1-.07,.21-.14,.28l3.99,1.43h2.77v-6.16l5.25,.46c-.03,.52-.32,.88-1.26,1.01v4.69h3.22l2.14-2.13,3.71,3.54c-.28,.28-.66,.35-1.37,.38-1.23,1.33-3.29,3.08-4.94,4.1l-.35-.21c.39-1.29,.81-3.19,1.05-4.66h-3.47v7.21h1.36l2.24-2.17,3.68,3.29Zm-23.49-1.86h.35l1.72-2.73s1.89,1.86,2.91,3.12v-9.07c-.11,.03-.21,.03-.35,.03h-4.62v8.65Zm0,9.66c1.44-.42,2.94-.88,4.48-1.33,.39-2.45,.49-4.9,.49-7.35v-.32c-.14,.25-.42,.35-.81,.35h-4.17v8.65Zm8.82-16.14v7.21h3.4v-7.21h-3.4Zm1.58,8.23c.84,3.19,2.24,5.67,4.06,7.63,1.47-2.35,2.56-4.9,3.29-7.63h-7.35Z"/>
      <path class="cls-1" d="M68.44,114.99c-.03,.42-.32,.74-1.15,.88v12.36c0,.28-1.79,.98-3.29,.98h-.7v-2.94h-19.6l-1.26,2.03-4.1-2.42c.28-.31,.7-.73,1.12-1.01v-10.47l5.29,.52c-.07,.39-.39,.66-1.3,.81v9.52h7.67v-13.9h-5.78l-1.23,2.03-4.03-2.38c.25-.32,.67-.74,1.09-1.05v-9.8l5.22,.49c-.07,.38-.38,.7-1.29,.84v8.89h6.02v-13.44l5.43,.52c-.07,.53-.32,.88-1.26,1.02v11.9h6.3v-10.19l5.15,.46c-.04,.46-.31,.77-1.16,.91v10.85c0,.28-1.75,.95-3.29,.95h-.7v-2h-6.3v13.9h8.02v-10.75l5.15,.49Z"/>
      <path class="cls-1" d="M85.91,112.43l3.89,2.94c-.21,.28-.7,.56-1.4,.7v11.34c-.03,.28-1.96,1.16-3.29,1.16h-.67v-2.91h-5.11v2.24c0,.39-1.68,1.3-3.29,1.3h-.6v-16.38l4.06,1.61h4.59l1.82-2Zm-1.47,12.22v-9.21h-5.11v9.21h5.11Zm.56-13.65c0,.38-1.79,1.3-3.5,1.3h-.63v-14.84l4.34,1.72h9.52l1.93-2.1,3.99,3.04c-.21,.28-.7,.6-1.44,.74v10.01c-.04,.28-2.03,1.12-3.43,1.12h-.7v-2.83h-10.08v1.86Zm0-10.82v7.98h10.08v-7.98h-10.08Zm21.28,15.19c-.25,.28-.74,.56-1.44,.74v11.62c-.04,.28-2.03,1.02-3.36,1.02h-.67v-3.08h-5.39v2.28c0,.38-1.65,1.3-3.29,1.3h-.6v-16.42l4.06,1.61h4.87l1.89-2.03,3.92,2.98Zm-5.46,9.28v-9.21h-5.39v9.21h5.39Z"/>
      <path class="cls-1" d="M114.72,111.73c1.4-.42,2.8-.63,4.41-.63,5.53,0,9.07,2.73,9.07,7.63,0,5.18-3.99,8.23-9.73,8.23-4.52,0-7.28-2.17-7.74-5.85,.35-.95,1.16-1.4,2.07-1.4,1.26,0,1.96,.7,2.27,2.62l.6,3.01c.63,.21,1.26,.31,2.07,.31,3.47,0,5.6-2.42,5.6-6.41s-2.07-6.23-5.43-6.23c-1.37,0-2.62,.14-3.92,.59l-1.02-.53,.84-11.66h13.55v3.71h-12.18l-.46,6.58Z"/>
      <path class="cls-1" d="M151.09,114.57h-8.26v8.79h-2v-8.79h-8.3v-1.89h8.3v-8.58h2v8.58h8.26v1.89Z"/>
      <path class="cls-1" d="M159.53,111.73c1.4-.42,2.8-.63,4.41-.63,5.53,0,9.07,2.73,9.07,7.63,0,5.18-3.99,8.23-9.73,8.23-4.52,0-7.28-2.17-7.74-5.85,.35-.95,1.16-1.4,2.07-1.4,1.26,0,1.96,.7,2.28,2.62l.59,3.01c.63,.21,1.26,.31,2.07,.31,3.47,0,5.6-2.42,5.6-6.41s-2.07-6.23-5.43-6.23c-1.37,0-2.62,.14-3.92,.59l-1.02-.53,.84-11.66h13.55v3.71h-12.18l-.46,6.58Z"/>
      <path class="cls-1" d="M200.25,111.24c2.41,1.82,6.97,3.04,10.15,3.54l-.1,.49c-1.23,.88-2,2.03-2.17,3.43-3.29-1.43-6.48-4.09-8.58-6.75-2.49,2.42-6.3,4.97-10.57,6.33l-.28-.35c3.12-2.07,6.09-5.5,7.81-8.26-.46,.1-.98,.21-1.64,.25-.04-.63-.04-1.16-.32-1.44-.25-.25-.53-.56-1.43-.7v-.46s1.19,.11,1.61,.11,.49-.25,.49-.56v-1.4c-1.01,.77-2.31,1.75-3.78,2.84-.07,.42-.35,.74-.7,.91l-1.68-3.22c1.16-.25,3.57-.95,6.16-1.75v-4.24h-5.43l-.07-.21c-.21,.28-.67,.49-1.26,.63v24.89c0,2.38-.46,3.67-4.13,4.03-.07-1.02-.21-1.82-.56-2.28-.42-.49-1.05-.88-2.38-1.08v-.53s2.59,.17,3.15,.17c.59,0,.7-.21,.7-.66v-11.1c-.45,.77-1.05,1.75-1.71,2.77-.04,.42-.25,.84-.63,1.01l-.94-1.96c-.31,4.83-1.3,9.94-4.55,13.9l-.49-.28c2.07-5.74,1.96-12.95,1.96-19.43v-12.36l3.75,1.43h2.35l1.47-1.79,3.26,2.56-.21-.7h5.43l1.43-1.68,3.43,2.49c-.21,.25-.67,.52-1.29,.67v6.48c0,.73-.07,1.29-.32,1.71l3.75,1.86c-.14,.42-.59,.66-1.61,.63l-.04,.07Zm-18.2-1.44c0,1.4,0,2.87-.07,4.38,.84-.39,2-.98,3.26-1.61v-3.92c-.31,.17-.73,.17-1.23,.04-.38-.59-1.15-1.26-1.96-1.82v2.94Zm0-9.84v5.53c1.58-.07,2.56,.25,3.19,.7v-6.23h-3.19Zm6.62,28.63c6.34-1.61,11.94-4.03,16.59-8.51l4.13,2.83c-.32,.39-.7,.46-1.5,.21-5.85,3.75-12.01,5.32-19.04,6.06l-.18-.6Zm1.09-27.58c6.51-.67,5.29,4.24,2.62,3.12-.53-1.01-1.86-2.27-2.91-2.8l.28-.32Zm.42,23.24c4.37-1.65,8.37-4.1,11.48-7.49l3.82,2.38c-.25,.35-.63,.42-1.36,.25-3.99,2.77-8.72,4.52-13.69,5.46l-.25-.59Zm12.57-8.65c-.21,.35-.53,.42-1.3,.28-2.94,2.31-6.79,3.99-10.68,5.01l-.32-.6c3.29-1.61,6.34-3.99,8.65-6.93l3.64,2.24Zm-2.66-15.61l-.31-.98h5.04l1.44-1.71,3.43,2.52c-.21,.25-.66,.52-1.26,.67v6.75c0,2.03-.42,2.91-3.64,3.19,0-.73-.07-1.29-.32-1.61-.25-.31-.56-.63-1.44-.77v-.49s1.16,.11,1.61,.11c.38,0,.49-.21,.49-.53v-1.89c-.98,.74-2.21,1.68-3.64,2.77-.1,.42-.35,.7-.66,.84l-1.89-2.94c1.19-.31,3.61-.98,6.2-1.79v-4.13h-5.04Zm-.52,1.12c6.3-.74,5.08,4.06,2.41,3.01-.49-.98-1.75-2.17-2.7-2.7l.28-.31Z"/>
      <path class="cls-1" d="M233.78,98.04c-.14,.45-.59,.66-1.71,.77,3.12,4.31,9.42,6.79,14.81,8.26l-.04,.56c-1.79,.49-2.91,2.24-3.22,3.78-5.32-2.62-9.98-6.69-12.11-12.18-3.33,5.32-10.5,10.85-17.54,13.55l-.21-.42c6.02-3.68,12.39-10.82,13.86-15.86l6.16,1.54Zm4.59,16.07l4.2,3.22c-.25,.28-.74,.63-1.47,.77v10.05c-.03,.25-2.2,.98-3.64,.98h-.74v-2.56h-12.74v1.58c0,.38-1.89,1.33-3.68,1.33h-.63v-14.95l4.59,1.82h12.11l2-2.24Zm-3.89-6.93s2.59,2.03,4.16,3.46c-.1,.39-.45,.56-.98,.56h-15.26l-.28-1.02h10.05l2.31-3.01Zm2.24,18.38v-8.19h-12.74v8.19h12.74Z"/>
      <path class="cls-1" d="M281.92,112.15c-.25,.38-.56,.49-1.44,.56-1.12,3.4-2.8,6.48-5.15,9.1,2.42,1.75,5.36,2.94,8.58,3.78l-.07,.42c-1.75,.31-3.04,1.58-3.64,3.54-2.97-1.4-5.39-3.08-7.28-5.39-2.77,2.28-6.23,4.1-10.61,5.36l-.28-.42c3.88-1.86,6.93-4.31,9.28-7.25-1.47-2.52-2.49-5.71-3.15-9.8h-.91c-.07,5.85-1.08,12.99-8.96,17.47l-.35-.31c2.73-2.94,4.13-6.3,4.83-9.84-2.24,1.61-5.5,3.78-9.87,6.44-.14,.42-.49,.84-.88,.98l-1.85-4.62c.91-.17,2.42-.59,4.27-1.08v-9.77h-3.43l-.28-1.01h3.71v-8.65h-3.61l-.28-1.01h7.63l2.1-2.87s2.38,1.96,3.75,3.33c-.04,.1-.07,.21-.14,.28l3.99,1.43h2.76v-6.16l5.25,.46c-.04,.52-.32,.88-1.26,1.01v4.69h3.22l2.13-2.13,3.71,3.54c-.28,.28-.66,.35-1.37,.38-1.23,1.33-3.29,3.08-4.94,4.1l-.35-.21c.38-1.29,.8-3.19,1.05-4.66h-3.47v7.21h1.37l2.24-2.17,3.68,3.29Zm-23.49-1.86h.35l1.71-2.73s1.89,1.86,2.91,3.12v-9.07c-.11,.03-.21,.03-.35,.03h-4.62v8.65Zm0,9.66c1.43-.42,2.94-.88,4.48-1.33,.38-2.45,.49-4.9,.49-7.35v-.32c-.14,.25-.42,.35-.81,.35h-4.16v8.65Zm8.82-16.14v7.21h3.4v-7.21h-3.4Zm1.58,8.23c.84,3.19,2.24,5.67,4.06,7.63,1.47-2.35,2.56-4.9,3.29-7.63h-7.35Z"/>
      <path class="cls-1" d="M294.66,120.1c1.33-.42,2.7-.84,4.06-1.29l.11,.35c-1.86,1.54-4.73,3.82-8.89,6.72-.07,.46-.42,.84-.81,.98l-2.31-4.55c.87-.21,2.27-.59,3.95-1.08v-9.91h-3.19l-.28-.98h3.47v-9.03h-3.47l-.28-1.01h6.86l2.03-2.73s2.24,1.85,3.61,3.19l-.04,.1h8.12c-.14-.07-.28-.14-.42-.25-.14-1.43-1.02-3.01-1.89-3.85l.28-.21c5.99,.04,5.95,3.29,4.2,4.31h4.55l2.1-2.7s2.31,1.86,3.75,3.15c-.11,.38-.49,.56-.98,.56h-20.27l-.17-.56h-4.09v8.96l1.54-2.49s1.75,1.82,2.7,2.98c-.11,.38-.42,.56-.91,.56h-3.33v8.79Zm25.69-3.67c-.21,.28-.7,.63-1.44,.73v7.88c0,2.49-.59,3.92-4.9,4.31-.1-1.12-.25-2-.74-2.52-.52-.49-1.22-.98-2.83-1.19v-.52s3.15,.25,3.99,.25c.56,0,.7-.25,.7-.67v-8.16h-6.16c-.66,1.37-1.4,2.7-2.1,3.92,1.33-.07,2.77-.18,4.24-.28-.42-.98-.95-1.93-1.43-2.66l.38-.21c7.21,3.15,4.41,8.51,1.89,6.27-.03-.81-.25-1.68-.52-2.52-1.44,.74-3.29,1.65-5.92,2.77-.17,.49-.53,.73-.87,.8l-1.86-4.03c.7,0,1.75-.04,2.98-.11,.21-1.26,.46-2.59,.63-3.96h-3.64v11.87c0,.25-1.15,1.09-3.04,1.09h-.63v-12.95h-.95l-.53-1.01h1.47v-1.86l3.89,1.86h3.6c.18-1.23,.32-2.42,.42-3.36h-3.08l-1.01,1.61-3.54-2.03c.21-.28,.52-.59,.84-.88v-8.26l4.87,.45c-.07,.38-.38,.7-1.37,.88v7.21h10.4v-8.3l4.66,.42c-.1,.42-.32,.7-1.08,.81v8.68c0,.28-1.58,.88-2.91,.88h-.67v-1.47h-3.05c-.42,.98-.98,2.13-1.58,3.36h5.36l1.71-1.96,3.82,2.87Zm-6.37-12.53c-.17,.35-.46,.56-1.29,.49-.42,.7-.91,1.37-1.5,2.03,3.04,2.03,2.03,4.69-.25,3.99-.46-.63-1.16-1.33-1.92-2.06-1.33,1.05-2.98,1.92-4.76,2.49l-.32-.49c1.37-.88,2.56-2.03,3.54-3.29-1.15-.88-2.31-1.68-3.33-2.27l.32-.35c1.68,.14,3.04,.46,4.13,.81,.56-.98,1.02-2.03,1.3-2.98l4.09,1.64Z"/>
      <path class="cls-1" d="M328.45,117.16c2.24-1.19,3.26-2.8,3.75-4.76-1.96-.77-3.47-1.68-3.47-3.43,0-1.44,1.08-2.66,2.77-2.66s2.97,1.26,2.97,3.57c0,2.94-1.43,6.58-5.42,8.4l-.6-1.12Z"/>
      <path class="cls-1" d="M363.42,101.05c-.84,2.03-1.89,4.06-3.15,6.02l2.17,.81c-.1,.31-.42,.56-1.08,.67v20.06c-.04,.25-1.89,.91-3.43,.91h-.77v-18.13c-3.78,4.62-8.61,8.75-14.14,11.62l-.28-.28c7.04-5.67,13.02-14.32,15.19-21.67h-14.42l-.28-.98h25.24l2.52-3.22s2.87,2.17,4.59,3.64c-.11,.38-.49,.56-1.02,.56h-11.13Zm-.63,8.86c15.86,3.43,14.11,12.88,9.42,10.57-1.89-3.54-6.27-7.74-9.73-10.26l.32-.31Z"/>
      <path class="cls-1" d="M379.21,129.23c4.55-3.15,8.86-8.16,10.85-11.94l5.15,2.73c-.21,.35-.52,.56-1.33,.46-3.04,3.33-8.44,7.14-14.42,9.1l-.25-.35Zm9.52-13.06c0,.46-1.89,1.43-3.67,1.43h-.67v-19.32l4.62,1.82h14.18l2-2.21,4.1,3.15c-.18,.28-.63,.59-1.37,.77v14.11c-.04,.28-2.21,1.12-3.64,1.12h-.74v-2.28h-14.81v1.4Zm0-15.05v12.67h14.81v-12.67h-14.81Zm10.4,16.94c15.58,3.4,13.44,13.2,8.68,10.64-1.64-3.61-5.64-7.77-9-10.36l.32-.28Z"/>
      <path class="cls-1" d="M419.68,119.57c1.37,3.68,1.12,6.41,.1,7.77-.77,.95-2.62,.98-3.25-.25-.53-1.05-.04-2.14,.95-2.8,.84-.84,1.89-2.97,1.68-4.73h.53Zm5.78-8.37c7.35,3.25,4.2,8.72,1.5,6.23-.03-.59-.14-1.23-.28-1.89-1.96,.84-4.69,1.96-7.77,3.05-.28,.38-.63,.63-.94,.74l-1.47-4.24s.87-.21,1.23-.46c1.64-1.22,3.64-3.64,5.32-6.12-1.16,.49-2.49,1.01-3.92,1.54-.25,.38-.56,.63-.87,.77l-1.75-4.2s.74-.17,1.05-.38c1.75-1.75,4.03-6.79,4.69-9.49l4.69,2.38c-.14,.31-.56,.56-1.19,.49-1.54,2.24-4.24,5.21-6.65,7.18,1.44,0,3.22,0,5.08-.04,.77-1.3,1.43-2.56,1.82-3.54l4.27,2.91c-.18,.28-.66,.49-1.37,.35-1.96,2.52-5.81,6.16-9.21,8.58,1.86-.11,4.24-.28,6.72-.46-.35-1.16-.87-2.31-1.37-3.15l.42-.25Zm-3.08,7.88c5.85,4.55,1.86,9.66-.46,6.65,.46-2.17,.35-4.66,0-6.55l.46-.1Zm3.4-.6c7,3.22,3.5,8.65,.94,6.02,.18-1.96-.52-4.27-1.29-5.81l.35-.21Zm13.86-19.53c1.92,4.03,6.09,7.42,9.73,9.28l-.07,.46c-1.44,.8-2.31,2-2.56,3.5-3.29-2.87-6.02-7.53-7.56-12.18-2.66,5.78-6.44,9.8-10.96,12.46l-.39-.35c3.22-3.64,6.37-9.45,7.95-15.65l5.29,1.79c-.17,.38-.59,.7-1.4,.63l-.04,.07Zm3.64,15.12l3.78,2.84c-.25,.28-.7,.6-1.4,.74v10.43c-.04,.28-1.93,.95-3.15,.95h-.66v-2.21h-7.28v1.44c0,.35-1.71,1.22-3.33,1.22h-.59v-15.09l4.1,1.64h6.75l1.79-1.96Zm-2-6.34s2.24,1.89,3.57,3.19c-.11,.38-.49,.56-.98,.56h-11.73l-.28-1.02h7.46l1.96-2.73Zm.56,18.1v-8.82h-7.28v8.82h7.28Z"/>
      <path class="cls-1" d="M457.42,108.54c-1.29,1.4-2.7,2.59-4.13,3.61l-.35-.28c2.45-3.68,5.08-9.52,6.55-15.23l5.6,1.96c-.14,.42-.6,.74-1.44,.67-.77,1.65-1.64,3.22-2.55,4.66l1.54,.56c-.11,.31-.49,.56-1.08,.67v11.27c-.07,.28-1.72,1.08-3.36,1.08l-.77,.04v-9Zm1.05,9.38c1.72,4.34,.42,7.42-1.29,8.47-1.16,.74-2.73,.49-3.22-.74-.35-1.16,.32-2.13,1.33-2.66,1.36-.77,2.76-2.76,2.7-5.04l.49-.04Zm19.39,6.9c1.22,.38,1.54,.84,1.54,1.58,0,1.75-1.71,2.24-8.61,2.24h-4.52c-3.99,0-4.9-.66-4.9-3.36v-8.12l5.22,.42c-.07,.49-.38,.77-1.08,.91v6.09c0,.49,.17,.63,1.47,.63h4.24c1.51,0,2.87,0,3.43-.04,.56-.03,.77-.14,1.05-.49,.42-.6,.98-2,1.72-3.96h.35l.11,4.1Zm-15.02-16.24c1.75-2.87,3.46-7.49,4.31-12.01l5.46,1.68c-.14,.46-.56,.73-1.4,.73-.35,.74-.67,1.44-1.01,2.1h9.84l2.14-2.17,3.75,3.54c-.28,.28-.66,.38-1.37,.46-1.26,1.12-3.43,2.59-5.11,3.4l-.28-.21c.38-1.09,.8-2.73,1.08-4.03h-10.64c-1.75,2.87-3.89,5.18-6.34,6.83l-.42-.31Zm9.52-.74c-.14,.42-.59,.7-1.37,.63-1.89,3.36-4.51,5.67-7.42,7.04l-.38-.32c1.79-2.1,3.4-5.5,4.27-9.1l4.9,1.75Zm-4.27,7.98c8.86,2.66,5.08,8.93,1.93,6.06-.07-2-1.19-4.31-2.28-5.85l.35-.21Zm8.33,.63c0,.25-1.61,.81-3.12,.81h-.74v-13.41l5.15,.49c-.07,.49-.35,.81-1.29,.95v11.17Zm1.93,.95c10.22,3.19,6.44,11.1,2.73,7.88-.03-2.66-1.47-5.64-3.08-7.67l.35-.21Zm0-10.47c10.4,3.12,6.96,10.68,3.25,7.77-.35-2.55-2.03-5.57-3.57-7.56l.32-.21Z"/>
      <path class="cls-1" d="M489.62,105.11c9.14,.67,6.09,7.35,2.52,5.01-.35-1.72-1.65-3.61-2.77-4.76l.25-.25Zm10.15-1.61c-1.19,4.17-3.33,11.76-3.75,13.58-.28,1.15-.52,2.34-.49,3.25,.11,1.86,1.51,3.15,1.37,6.27-.07,1.79-1.22,2.94-2.87,2.94-.8,0-1.61-.53-1.86-1.86,.66-3.67,.49-6.97-.31-7.49-.49-.35-1.05-.49-1.79-.56v-.7h1.54c.53,0,.66,0,1.05-.7q.74-1.3,6.58-14.88l.53,.14Zm-7.49-6.48c9.59,.91,6.41,7.95,2.7,5.43-.42-1.86-1.79-3.92-2.98-5.18l.28-.25Zm24.19,13.69l3.99,2.98c-.25,.28-.74,.59-1.47,.73v10.33c0,2.59-.56,4.06-4.9,4.45-.11-1.19-.25-2.14-.7-2.7-.45-.56-1.12-.98-2.63-1.23v-.49s2.98,.21,3.64,.21c.49,0,.66-.25,.66-.66v-2.62h-9.98c-.35,2.94-1.68,5.95-6.2,7.95l-.31-.31c2.55-2.73,2.7-6.34,2.7-9.94v-8.23l4.52,1.61h8.93l1.75-2.07Zm2.28-4.2s2.42,1.85,3.85,3.19c-.07,.38-.46,.56-.95,.56h-22.51l-.28-1.01h8.79v-3.26h-6.33l-.28-1.01h6.62v-3.12h-7.53l-.28-.98h7.81v-4.24l5.15,.46c-.07,.45-.28,.77-1.15,.91v2.87h3.99l2.1-2.73s2.42,1.86,3.82,3.15c-.07,.38-.42,.56-.94,.56h-8.96v3.12h3.33l2-2.52s2.2,1.75,3.57,2.98c-.11,.38-.49,.56-.98,.56h-7.91v3.26h4.97l2.14-2.73Zm-3.68,14.18v-2.94h-9.87v1.61c0,.45,0,.88-.04,1.33h9.91Zm-9.87-6.93v3.01h9.87v-3.01h-9.87Z"/>
      <path class="cls-1" d="M555.4,106.02s2.52,2.07,3.99,3.5c-.07,.39-.46,.56-.95,.56h-3.01v18.31c0,.25-1.23,1.09-3.33,1.09h-.7v-19.39h-3.36v1.26c0,6.27-.6,13.55-8.4,18.13l-.38-.38c4.34-5.04,4.83-11.45,4.83-17.82v-.98c-.17,.17-.46,.25-.77,.25h-6.65v4.16h1.65l1.82-2.49s2.03,1.72,3.22,2.91c-.11,.39-.42,.56-.91,.56h-5.78v12.88c0,.21-1.19,.88-3.22,.88h-.7v-10.15h-.11c-1.29,2.49-3.33,5.64-6.02,7.74l-.35-.38c1.64-2.8,2.7-7.07,3.12-9.87l3.36,1.47v-2.55h-5.67l-.28-.98h5.95v-4.16h-6.34l-.28-1.02h9.38c.63-2,1.26-4.62,1.58-6.58h-7.42c7.14,3.18,3.5,8.51,.87,5.81,.04-1.93-.74-4.17-1.44-5.74l.21-.07h-2.38l-.28-1.02h7.35c-.28-.1-.56-.28-.84-.49-.1-1.64-1.01-3.5-1.86-4.69l.28-.17c6.34,.91,6.02,4.52,4.1,5.36h2.24l1.79-2.49s2.1,1.72,3.36,2.94c-.11,.38-.46,.56-.95,.56h-4.45l4.2,1.29c-.14,.42-.56,.7-1.29,.63-1.02,1.37-2.52,3.15-4.1,4.66h2.42l1.93-2.59s1.96,1.65,3.25,2.87v-10.29l4.1,1.29c2.38-1.26,4.87-2.94,6.23-4.16l4.31,3.43c-.38,.35-1.08,.42-2.13,.1-2.14,.7-5.39,1.4-8.54,1.82v7.07h5.11l2.24-3.04Zm-18.24,11.2c7.81,3.29,4.34,9.35,1.51,6.62,.03-2.21-.88-4.73-1.86-6.44l.35-.17Z"/>
      <path class="cls-1" d="M579.73,105.6c-.95,.31-1.93,.59-3.01,.91-.46,4.55-1.33,8.89-3.19,12.71,6.58,4.17,3.12,7.88,.42,6.2-.6-.98-1.4-2-2.35-2.97-2,2.8-4.73,5.25-8.54,7.11l-.38-.35c3.15-2.45,5.39-5.46,6.9-8.75-1.89-1.72-4.06-3.29-5.99-4.45,.49-1.68,1.08-4.09,1.61-6.69l-.81,.17c-.25,.46-.63,.7-1.05,.77l-.87-4.24c.87,0,2.03,0,3.43-.04,.7-3.71,1.29-7.35,1.5-9.42l5.08,.84c-.1,.39-.28,.77-1.37,.88-.35,1.86-.87,4.59-1.5,7.53,.98-.04,2.07-.11,3.15-.17,.04-1.3,.07-2.59,.04-3.89l5.5,.95c-.14,.56-.56,.88-1.37,.95-.03,.56-.07,1.12-.1,1.71,.98-.11,1.89-.17,2.87-.28l.04,.53Zm-9.07,12.15c1.12-3.26,1.72-6.69,1.96-10.12-1.12,.28-2.35,.56-3.64,.88-.6,2.73-1.29,5.5-1.96,7.77,1.4,.49,2.59,.98,3.64,1.47Zm21.46-8.3s2.42,1.96,3.85,3.29c-.1,.38-.46,.56-.94,.56h-7.49v11.45c0,2.8-.56,4.38-5.11,4.76-.11-1.26-.28-2.2-.74-2.8-.53-.63-1.29-1.09-2.98-1.37v-.49s3.43,.25,4.17,.25c.52,0,.7-.17,.7-.6v-11.2h-6.55l-.28-.98h6.83v-5.85l2.8,.28c.91-1.75,1.93-4.13,2.59-5.78h-10.85l-.32-.98h11.13l2.24-2.21,3.71,3.39c-.31,.28-.7,.39-1.43,.42-1.54,1.47-3.89,3.67-6.02,5.21l1.37,.14c-.1,.49-.42,.8-1.26,.91v4.45h2.49l2.1-2.87Z"/>
      <path class="cls-1" d="M612.78,105.57c-.32,.32-.74,.42-1.54,.53-.81,1.75-1.89,3.61-3.22,5.39,7.32,2.55,4.27,7.88,1.4,5.53-.17-1.29-.8-2.73-1.5-3.95v15.12c0,.28-1.23,1.23-3.12,1.23h-.7v-13.48c-1.47,1.37-3.05,2.59-4.69,3.61l-.32-.32c3.61-3.85,6.72-9.45,8.05-14h-7.11l-.32-1.02h7.25l2.17-2.1,3.64,3.47Zm-9.59-8.75c8.89,1.61,4.66,7.77,1.4,4.9-.04-1.68-.91-3.54-1.68-4.73l.28-.17Zm28.53,27.9c.91,.45,1.09,.91,1.09,1.64,0,1.47-1.23,2.28-5.15,2.28h-2.07c-2.91,0-3.29-.84-3.29-3.29v-9.03h-1.22c-.49,5.08-2.03,9.94-10.82,13.23l-.38-.46c5.6-3.5,6.65-7.46,6.93-11.41-.63,.35-1.58,.63-2.56,.63h-.59v-20.62l4.13,1.68h7.84l1.82-2.07,3.85,3.01c-.25,.28-.73,.56-1.43,.7v15.82c-.07,.28-1.96,1.05-3.26,1.05h-.42v6.51c0,.42,.11,.56,.67,.56h2.41c.32,0,.42-.1,.63-.42,.28-.56,.73-2.31,1.33-4.3h.38l.1,4.48Zm-14.14-24.33v4.31h8.4v-4.31h-8.4Zm8.4,5.32h-8.4v4.13h8.4v-4.13Zm-8.4,9.63h8.4v-4.51h-8.4v4.51Z"/>
      <path class="cls-1" d="M669.77,111.42c-.28,.28-.66,.35-1.4,.42-1.19,1.68-3.29,4.03-5.04,5.46l-.35-.25c.46-1.68,1.02-4.17,1.33-6.02h-2.59v13.23c0,2.8-.7,4.83-5.36,5.21-.07-1.37-.28-2.42-.84-3.04-.6-.63-1.44-1.12-3.4-1.44v-.46s3.99,.25,4.79,.25c.56,0,.77-.21,.77-.63v-13.13h-4.94v1.19c-.04,.32-1.86,1.3-3.29,1.3h-.63v-1.47h-2.28v4.8h1.82l1.96-2.73s2.2,1.89,3.5,3.19c-.07,.38-.46,.56-.95,.56h-6.33v4.27c2.34-.38,4.87-.8,7.42-1.26l.1,.46c-3.19,1.5-7.88,3.61-14.98,6.23-.17,.49-.53,.8-.95,.91l-2.21-4.73c1.47-.17,3.92-.53,6.93-1.02v-4.87h-5.78l-.28-1.01h6.06v-4.8h-2.28v1.4c0,.35-1.43,1.16-2.91,1.16h-.52v-16.63l3.64,1.5h7.67l1.86-2,3.54,2.7-.21-.7h9.28l2.27-2.17,3.78,3.61c-.28,.28-.66,.38-1.44,.42-1.47,1.16-3.78,2.49-5.95,3.54,2.87,2.38,1.05,5.78-1.72,4.34-.8-2.24-3.04-4.69-5-6.06l.28-.28c2.31,.14,4.03,.59,5.25,1.23,.87-1.16,1.75-2.49,2.42-3.61h-8.72c-.21,.25-.7,.52-1.37,.67v8.86h11.27l2.07-2.1,3.67,3.5Zm-29.16-10.92v4.79h2.28v-4.79h-2.28Zm2.28,10.54v-4.76h-2.28v4.76h2.28Zm3.68-10.54v4.79h2.28v-4.79h-2.28Zm2.28,10.54v-4.76h-2.28v4.76h2.28Z"/>
      <path class="cls-1" d="M677.47,117.16c2.24-1.19,3.26-2.8,3.75-4.76-1.96-.77-3.47-1.68-3.47-3.43,0-1.44,1.08-2.66,2.77-2.66s2.97,1.26,2.97,3.57c0,2.94-1.43,6.58-5.42,8.4l-.6-1.12Z"/>
      <path class="cls-1" d="M710.27,116.49c-.35,2.38-1.08,4.55-2.62,6.44,4.66,1.75,10.71,2.28,16.94,2.24v.46c-1.72,.56-2.7,1.89-3.01,3.89-6.41-.66-11.8-1.92-15.82-4.76-2.7,2.14-6.86,3.78-13.3,4.83l-.17-.42c5.67-1.82,9.14-3.82,11.2-6.3-1.23-1.26-2.31-2.73-3.15-4.48l.38-.35c.98,1.37,2.24,2.52,3.78,3.43,.87-1.47,1.37-3.12,1.65-4.97h-5.36v.91c0,.38-1.79,1.29-3.47,1.29h-.59v-15.61l4.31,1.68h5.32v-3.92h-13.27l-.28-1.01h24.43l2.45-2.98s2.73,2.03,4.41,3.43c-.11,.38-.49,.56-.98,.56h-12.64v3.92h5.43l1.89-2.07,3.96,3.01c-.21,.28-.63,.6-1.37,.74v11.03c-.04,.28-2.1,1.01-3.43,1.01h-.7v-2h-5.99Zm-9.49-10.71v4.27h5.57v-4.27h-5.57Zm5.46,9.73c.07-.88,.11-1.79,.11-2.77v-1.68h-5.57v4.45h5.46Zm10.01,0v-4.45h-5.78v1.58c0,.98-.03,1.96-.1,2.87h5.88Zm-5.78-9.73v4.27h5.78v-4.27h-5.78Z"/>
      <path class="cls-1" d="M427.33,155.29c-.14,.32-.42,.56-1.08,.63v20.62c-.04,.32-1.75,1.19-3.29,1.19h-.77v-18.59c-1.3,1.5-2.7,2.87-4.2,4.06l-.42-.28c2.84-4.41,5.71-11.31,7.14-18.03l5.64,1.68c-.17,.46-.63,.77-1.43,.74-.98,2.7-2.17,5.11-3.5,7.28l1.93,.7Zm19.99,4.73s2.59,2.03,4.13,3.4c-.1,.38-.49,.56-.98,.56h-9.28v12.57c-.04,.28-1.3,1.16-3.4,1.16h-.74v-10.01c-.17,.04-.35,.04-.56,0-2.59,3.57-5.95,6.34-9.24,8.09l-.38-.32c2.03-2.49,4.48-6.62,6.02-10.64l4.16,1.89v-2.73h-9.35l-.28-.98h9.63v-5.39h-2.55v1.33c0,.25-1.19,.95-3.22,.95h-.7v-13.86l4.31,1.64h8.82l1.89-2.17,3.68,2.8c-.21,.28-.56,.49-1.33,.63v9.45c0,.17-1.3,.88-3.4,.88h-.74v-1.65h-2.62v5.39h3.82l2.31-2.98Zm-12.81-3.43h9.31v-7.91h-9.31v7.91Zm7.6,9.24c12.15,3.85,9.38,11.94,5.25,9.17-.98-2.94-3.57-6.48-5.6-8.96l.35-.21Z"/>
      <path class="cls-1" d="M464.92,149.66s1.86,1.47,3.01,2.56c-.11,.38-.46,.56-.95,.56h-12.01l-.28-.98h8.58l1.64-2.14Zm-2.49,6.58l1.54-2s1.71,1.4,2.8,2.42c-.1,.38-.42,.56-.91,.56h-9.66l-.28-.98h6.51Zm1.54,2.52s1.71,1.4,2.8,2.42c-.1,.38-.42,.56-.91,.56h-9.66l-.28-.98h6.51l1.54-2Zm2.1,16.07c-.04,.28-1.75,1.09-2.97,1.09h-.6v-1.75h-2.73v2.17c0,.32-1.5,1.12-3.01,1.12h-.53v-13.76l3.64,1.5h2.31l1.64-1.75,3.47,2.59c-.17,.21-.63,.49-1.23,.63v8.16Zm-8.54-29.23c9,.42,5.78,7.21,2.21,4.83-.31-1.68-1.47-3.54-2.52-4.66l.31-.17Zm4.97,27.58v-7h-2.73v7h2.73Zm24.15-4.9c-.28,.32-.63,.42-1.47,.49-1.12,1.61-2.52,2.94-4.17,4.1,2.17,.46,4.48,.74,6.79,.88v.42c-1.47,.42-2.38,1.65-2.7,3.47-2.94-.63-5.6-1.47-7.88-2.66-3.22,1.44-7.11,2.35-11.52,2.77l-.17-.53c3.6-.8,6.86-2,9.52-3.57-1.96-1.4-3.57-3.15-4.76-5.46h-2.87l-.31-1.02h14l1.96-1.79h-10.89v.21c0,.25-1.12,1.09-2.91,1.09h-.63v-8.54c-.74,.52-1.47,1.01-2.21,1.43l-.42-.35c1.54-2,3.26-5.29,4.38-8.54l1.26,.56v-2.03h-4.45l-.32-1.01h4.76v-3.25l4.55,.42c-.07,.35-.32,.66-1.05,.77v4.17l.07-.04c1.26,.04,2.17,.21,2.84,.49v-5.81l4.58,.42c-.07,.35-.28,.66-1.05,.77v2.07h1.68l1.51-2.03s1.68,1.44,2.7,2.49c-.11,.38-.46,.56-.91,.56h-4.97v1.47c0,.25-1.29,.67-2.49,.77,1.33,1.47-.87,3.64-2.87,2.14,0-1.05-.53-2.17-1.08-2.87-.07,.25-1.61,.73-2.84,.73h-.17l2.66,1.16c-.17,.39-.66,.66-1.4,.56-.25,.35-.52,.7-.77,1.05h9.52l1.58-1.96s1.79,1.4,2.91,2.42c-.07,.38-.42,.56-.91,.56h-6.37v2.34h2.28l1.47-1.79s1.61,1.26,2.7,2.24c-.1,.38-.45,.56-.91,.56h-5.53v2.34h2.28l1.47-1.75s1.65,1.26,2.7,2.2c-.1,.38-.42,.56-.87,.56h-5.57v2.42h3.29l1.71-2.1s2,1.44,3.22,2.56c-.07,.38-.46,.56-.95,.56h-3.18l3.18,2.91Zm-15.47-.1c1.54,1.71,3.75,2.94,6.34,3.82,1.4-1.12,2.56-2.42,3.43-3.82h-9.77Zm4.76-12.95h-3.75v2.34h3.75v-2.34Zm0,3.36h-3.75v2.34h3.75v-2.34Zm-3.75,5.78h3.75v-2.42h-3.75v2.42Z"/>
      <path class="cls-1" d="M495.58,156.76c-1.29,1.4-2.7,2.59-4.13,3.61l-.35-.28c2.45-3.68,5.08-9.52,6.55-15.23l5.6,1.96c-.14,.42-.6,.74-1.44,.66-.77,1.65-1.64,3.22-2.55,4.66l1.54,.56c-.11,.31-.49,.56-1.08,.67v11.27c-.07,.28-1.72,1.08-3.36,1.08l-.77,.04v-9Zm1.05,9.38c1.72,4.34,.42,7.42-1.29,8.47-1.16,.74-2.73,.49-3.22-.74-.35-1.16,.32-2.13,1.33-2.66,1.36-.77,2.76-2.77,2.7-5.04l.49-.04Zm19.39,6.9c1.22,.38,1.54,.84,1.54,1.58,0,1.75-1.71,2.24-8.61,2.24h-4.52c-3.99,0-4.9-.67-4.9-3.36v-8.12l5.22,.42c-.07,.49-.38,.77-1.08,.91v6.09c0,.49,.17,.63,1.47,.63h4.24c1.51,0,2.87,0,3.43-.04,.56-.03,.77-.14,1.05-.49,.42-.6,.98-2,1.72-3.96h.35l.11,4.1Zm-15.02-16.24c1.75-2.87,3.46-7.49,4.31-12.01l5.46,1.68c-.14,.46-.56,.73-1.4,.73-.35,.74-.67,1.44-1.01,2.1h9.84l2.14-2.17,3.75,3.54c-.28,.28-.66,.38-1.37,.46-1.26,1.12-3.43,2.59-5.11,3.4l-.28-.21c.38-1.09,.8-2.73,1.08-4.03h-10.64c-1.75,2.87-3.89,5.18-6.34,6.83l-.42-.31Zm9.52-.74c-.14,.42-.59,.7-1.37,.63-1.89,3.36-4.51,5.67-7.42,7.04l-.38-.32c1.79-2.1,3.4-5.5,4.27-9.1l4.9,1.75Zm-4.27,7.98c8.86,2.66,5.08,8.93,1.93,6.06-.07-2-1.19-4.31-2.28-5.85l.35-.21Zm8.33,.63c0,.25-1.61,.81-3.12,.81h-.74v-13.41l5.15,.49c-.07,.49-.35,.81-1.29,.95v11.17Zm1.93,.95c10.22,3.19,6.44,11.1,2.73,7.88-.03-2.66-1.47-5.64-3.08-7.67l.35-.21Zm0-10.47c10.4,3.12,6.96,10.68,3.25,7.77-.35-2.55-2.03-5.57-3.57-7.56l.32-.21Z"/>
      <path class="cls-1" d="M532.19,155.43c2.62,6.37,1.61,10.78-.04,13.13-1.12,1.71-3.12,1.92-4.2,.84-.8-1.01-.56-2.28,.32-3.25,1.79-1.65,3.54-5.99,3.46-10.68l.46-.03Zm9.35-3.68c-.03,.46-.35,.84-1.22,.95v18.13c0,.88,.42,1.16,2,1.16h4.27c1.58,0,2.87-.04,3.5-.07,.6-.07,.91-.21,1.19-.63,.45-.74,1.12-2.8,1.89-5.46h.39l.14,5.71c1.26,.49,1.58,.98,1.58,1.79,0,1.96-1.75,2.83-9.07,2.83h-4.48c-4.17,0-5.53-.74-5.53-4.1v-20.83l5.36,.53Zm4.73,3.43c-.66-3.26-2.83-7.04-4.94-9.59l.32-.21c12.22,4.06,8.89,13.06,4.62,9.8Zm10.01,13.86c-.21-3.4-1.16-8.79-3.96-12.57l.32-.28c12.71,7.67,6.97,17.22,3.64,12.85Z"/>
      <path class="cls-1" d="M568.38,155.4c.35,2.13-.25,3.71-1.23,4.31-.94,.67-2.42,.38-2.87-.77-.35-1.16,.35-2.07,1.37-2.56,.84-.67,1.61-2.31,1.29-3.85l.49-.04c.32,.67,.56,1.33,.7,1.92h16.21c1.05-1.79,2.07-4.24,2.7-6.02-5.67,.46-12.81,.7-19.11,.53l-.07-.6c7.42-.63,16.84-2.21,21.81-3.61l3.33,3.5c-.38,.28-1.16,.28-2.17-.17-1.09,.1-2.28,.24-3.54,.31l4.69,1.75c-.21,.42-.63,.63-1.4,.53-1.23,1.16-3.26,2.62-5.18,3.78h5.92l2-2.03,3.57,3.36c-.28,.28-.63,.35-1.33,.39-.91,.88-2.41,1.92-3.64,2.59,2.87,2.66,.32,6.2-2.28,4.16-.14-2.13-1.37-4.55-2.7-6.12l.32-.18c1.79,.39,3.08,.95,4.03,1.61,.14-.84,.25-1.89,.35-2.8h-23.24Zm22.96,12.46c-.28,.35-.59,.46-1.5,.53-1.29,1.61-2.87,3.01-4.66,4.17,3.36,.56,6.97,.81,10.57,.88v.42c-1.79,.53-2.8,1.89-3.15,3.89-4.48-.53-8.61-1.37-12.15-2.8-4.34,1.71-9.63,2.59-15.47,2.83l-.14-.53c4.76-.77,9.17-1.92,12.81-3.64-1.58-.84-2.98-1.82-4.24-2.98-2.13,1.26-4.51,2.34-6.86,2.98l-.25-.42c1.89-1.12,3.75-2.7,5.39-4.41-.8-.95-1.5-2.03-2.13-3.19l.42-.31c.7,.94,1.58,1.79,2.55,2.55,1.19-1.33,2.17-2.7,2.8-3.99-2-.21-2.38-.95-2.38-2.8v-4.83l4.41,.38c-.07,.42-.38,.74-1.05,.84v2.87c0,.42,.1,.49,1.26,.49h3.5c1.4,0,2.59,0,3.05-.04,.42,0,.7-.07,.87-.28,.31-.35,.74-1.19,1.22-2.34h.35l.14,2.34c1.02,.38,1.26,.74,1.26,1.37,0,1.44-1.37,2.07-7.21,2.07h-3.85c-.38,0-.7,0-1.02-.04l4.52,1.4c-.17,.31-.56,.52-1.19,.46-.25,.28-.46,.59-.74,.88h7.04l2.38-2.03,3.43,3.29Zm-20.13-11.17c1.26,3.5,.14,5.95-1.43,6.72-1.05,.49-2.56,.21-2.94-.95-.32-1.12,.42-2,1.43-2.45,1.16-.53,2.42-1.89,2.42-3.33h.52Zm-.94-7.35c7.77,1.16,4.3,6.76,1.33,4.34-.04-1.5-.84-3.18-1.65-4.17l.32-.17Zm7.18,18.27c-.7,.63-1.44,1.26-2.28,1.86,1.71,.91,3.71,1.65,5.88,2.2,1.75-1.16,3.19-2.52,4.31-4.06h-7.91Zm-.04-18.59c7.74,1.47,4.09,7.11,1.16,4.55,0-1.54-.74-3.29-1.47-4.38l.32-.17Zm1.01,6.69c7.84,.42,5.04,6.3,2,4.31-.25-1.47-1.33-3.15-2.31-4.1l.31-.21Z"/>
      <path class="cls-1" d="M616.16,152.53c-.25,.31-.77,.59-1.47,.73v20.86c-.04,.28-1.89,1.16-3.26,1.16h-.59v-2.77h-5.32v2.59c0,.46-1.47,1.33-3.15,1.33h-.63v-26.46l3.92,1.65h.21c.25-1.93,.56-4.66,.74-6.62l5.67,1.37c-.14,.59-.63,.84-1.44,.84-.91,1.23-2.28,3.05-3.4,4.41h3.05l1.85-2.1,3.82,3.01Zm-10.64,.1v8.68h5.32v-8.68h-5.32Zm5.32,18.9v-9.21h-5.32v9.21h5.32Zm22.4-19.01c-.28,.31-.74,.56-1.54,.66-.25,14.11-.74,20.51-2.66,22.58-1.26,1.33-2.8,1.89-5.11,1.89,0-1.33-.18-2.31-.77-2.87-.63-.67-2-1.22-3.71-1.54l.03-.49c1.68,.14,4.1,.32,5.01,.32,.63,0,.95-.14,1.29-.45,1.29-1.19,1.65-8.16,1.89-20.09h-6.51c-1.68,2.97-3.68,5.46-5.92,7.35l-.46-.28c1.93-3.57,3.82-9.28,4.73-14.63l5.53,1.61c-.14,.46-.56,.7-1.37,.7-.6,1.5-1.23,2.91-1.96,4.24h5.57l2.2-2.28,3.75,3.29Zm-15.47,6.12c10.22,3.01,6.41,10.57,2.7,7.46-.17-2.49-1.58-5.32-2.98-7.25l.28-.21Z"/>
      <path class="cls-1" d="M645.45,155.22c-.11,.31-.38,.56-1.08,.66v20.62c-.04,.31-1.72,1.19-3.33,1.19h-.77v-17.68c-1.12,1.26-2.34,2.38-3.61,3.36l-.42-.28c2.83-4.45,5.71-11.45,7.07-18.24l5.81,1.79c-.18,.42-.6,.7-1.4,.7-.98,2.73-2.17,5.18-3.54,7.42l1.26,.46Zm21.88,4.79c-.25,.28-.66,.32-1.26,.11-.91,.59-2.52,1.43-4.34,2.2,1.26,5.08,4.13,7.88,7.84,9.66l-.07,.38c-1.51,.28-2.7,1.47-3.26,3.33-3.12-3.01-4.52-6.72-5.11-13.13-.7,.28-1.4,.56-2.1,.77,2.63,4.83,2.42,10.54,.77,12.78-.84,1.12-2.56,1.54-5.01,1.54-.04-1.19-.31-2-.84-2.52-.42-.46-1.47-.91-2.8-1.23v-.42c1.37,.11,3.57,.25,4.38,.25,.46,0,.8-.07,.98-.38,.42-.77,.66-2.35,.66-4.24-3.19,2.34-7.49,4.58-11.97,5.63l-.21-.42c4.66-2.28,9-6.09,11.66-10.05l-.04-.14c-2.98,1.85-7.14,3.71-10.92,4.79l-.25-.42c3.57-1.92,7.53-5.5,9.63-8.54l-.21-.38c-2.35,1.61-5.11,2.91-7.95,3.92l-.28-.46c2.76-1.79,5.36-4.41,7.11-6.79h-5.46l-.25-.88c-.8,.07-1.61-.25-1.92-1.05-.38-1.12,.28-2.06,1.23-2.55,.91-.59,1.96-2.14,1.89-3.54h.49c.25,.63,.42,1.26,.53,1.82h6.12c-.31-.11-.63-.32-.91-.56,0-1.61-.77-3.4-1.58-4.48l.28-.21c6.34,.88,5.92,4.41,3.95,5.25h6.23l1.96-2,3.46,3.33c-.28,.28-.63,.35-1.33,.38-.87,.63-2.21,1.47-3.29,2.13,.66,.56,1.47,1.23,2.1,1.79-.11,.39-.42,.56-.91,.56h-7.56c-.91,1.01-2,1.96-3.18,2.83,1.19,1.02,2.17,2.17,2.94,3.43,1.96-1.79,4.13-4.27,5.11-5.6l3.67,3.08Zm-16.94-8.96c.14,1.93-.49,3.36-1.4,3.99-.1,.07-.25,.14-.38,.21h13.09l1.96-2.45,.42,.32c.17-.67,.35-1.4,.49-2.07h-14.18Z"/>
      <path class="cls-1" d="M702.23,164.57s2.59,2.31,4.1,3.85c-.11,.38-.45,.56-.98,.56h-31.99l-.28-1.01h7v-22.33l4.59,1.75h10.54l2.07-2.17,3.89,3.12c-.25,.28-.7,.6-1.44,.74v18.9h.21l2.31-3.4Zm-28.91,12.74c3.92-2.07,7.95-5.53,9.73-8.19l5.11,2.52c-.21,.42-.81,.63-1.89,.49-2.83,2.21-7.74,4.38-12.74,5.57l-.21-.38Zm10.89-28.91v4.16h11.34v-4.16h-11.34Zm11.34,5.18h-11.34v3.99h11.34v-3.99Zm-11.34,4.97v4.13h11.34v-4.13h-11.34Zm0,9.42h11.34v-4.31h-11.34v4.31Zm7.56,2.13c19.04,2.03,12.11,10.26,8.54,6.83-1.47-1.93-4.2-4.48-8.68-6.37l.14-.45Z"/>
      <path class="cls-1" d="M712.2,161.31c0-2.73,2.24-4.94,4.97-4.94s4.94,2.21,4.94,4.94-2.21,4.97-4.94,4.97-4.97-2.24-4.97-4.97Zm1.26,0c0,2.03,1.65,3.71,3.71,3.71s3.67-1.68,3.67-3.71-1.64-3.67-3.67-3.67-3.71,1.64-3.71,3.67Z"/>
    </g>
  </g>
</svg>