<?xml version="1.0" encoding="UTF-8"?>
<svg id="_圖層_2" data-name="圖層 2" xmlns="http://www.w3.org/2000/svg" viewBox="0 0 348.68 151.05">
  <defs>
    <style>
      .cls-1 {
        fill: #b47b5b;
      }
    </style>
  </defs>
  <g id="_圖層_1-2" data-name="圖層 1">
    <g>
      <path class="cls-1" d="M64.83,55.43c2.74,4.98,3.16,7.72,1.68,8.98-4.07,3.58-10.87,0-14.1-3.16-2.6-2.53-4.77-5.26-6.67-8.21-5.68,5.33-12.91,9.89-22.03,12.98l-.49-.77c8.07-4.91,14.31-11.51,18.94-18.66-4.21-8.98-6.1-19.08-6.95-29.89H17.26v10.95h6.31l4.7-4.49,8.07,6.74c-.49,.56-1.33,1.05-2.74,1.26-.42,15.58-1.26,20.42-4.63,22.94-2.1,1.54-4.7,2.32-8.42,2.32,0-2.74-.14-4.91-.98-6.17-.84-1.26-2.03-2.11-4.21-2.74v-.35c-2.03,7.37-6.24,14.66-14.87,20l-.49-.49c6.59-10.94,7.09-24.98,7.09-36.9V10.8l11.65,3.93h16.35c-.28-4.77-.42-9.61-.42-14.52l12.56,1.19c-.07,.91-.7,1.75-2.53,2.04-.07,3.72-.07,7.51,.14,11.3h7.72l2.39-3.02c-.49-.14-.98-.28-1.47-.56-.98-3.23-3.72-6.73-6.1-8.7l.49-.42c12.49-1.47,14.59,4.63,12.21,7.86,2.03,1.61,4.98,3.86,7.09,5.68-.21,.77-.98,1.12-2.03,1.12h-20.21c.42,6.46,1.33,12.77,3.23,18.45,1.82-4.35,3.16-8.84,4.14-13.12l12.84,4.35c-.28,.84-.91,1.4-2.74,1.33-2.32,5.89-5.4,11.86-9.54,17.47,1.61,2.46,3.51,4.63,5.75,6.59,.98,1.05,1.54,1.05,2.39-.14,1.26-1.82,3.58-5.82,5.12-8.98l.63,.21-1.89,12.56ZM17.26,29.61v.14c0,5.05-.21,11.01-1.75,16.91,1.4,.14,3.86,.21,4.98,.21,.91,0,1.4-.14,1.82-.49,1.12-1.05,1.61-5.82,1.89-16.77h-6.95Z"/>
      <path class="cls-1" d="M135.76,54.93c2.03,1.12,2.46,2.25,2.46,4,0,3.51-2.74,5.47-10.17,5.47h-3.44c-6.1,0-7.02-1.89-7.02-7.65v-15.29c-2.46,10.24-7.58,18.66-18.31,25.33l-.7-.98c9.54-11.72,11.37-25.68,11.65-43.15h-3.3l-.14-.49c-.49,.49-1.33,1.05-2.6,1.26v11.65c-.07,.49-4.77,1.96-7.72,1.96h-1.61v-2.67h-.56v21.61c0,6.1-1.33,10.03-10.87,10.74-.14-2.88-.28-5.05-1.12-6.38-.7-1.26-1.82-2.32-4.77-2.81v-.91s4.91,.35,6.1,.35c.91,0,1.19-.49,1.19-1.19v-10.94c-3.65,6.38-8.56,10.94-14.03,13.89l-.77-.56c2.67-4.56,5.12-11.58,6.31-18.59l8.49,2.81v-8h-1.05v.84c0,.77-3.93,2.67-7.58,2.67h-1.26V16.35l9.19,3.58h10.03l4.14-4.49,8.35,6.17-.28-.91h3.86c.07-6.38-.07-13.26-.07-20.63l12.49,1.12c-.21,1.12-.91,1.75-2.6,2.04-.07,6.17-.07,12-.21,17.47h5.4l3.72-4.91c-1.33,0-2.74-.49-4.07-1.75,.07-3.79-1.19-7.86-2.67-10.73l.63-.28c13.12,2.88,12.21,10.53,8.07,12.42,1.68,1.33,5.05,4.07,7.3,6.1-.14,.77-.91,1.12-1.96,1.12h-9.33v31.36c0,.91,.14,1.26,.98,1.26h1.26c.49,0,.91,0,1.26-.07,.49,0,.91-.14,1.33-.84,.7-1.26,1.89-5.47,3.02-9.4h.7l.28,9.96ZM71.77,14.31l-.56-1.96h25.12l4.7-6.53s5.4,4.42,8.56,7.37c-.21,.77-.98,1.12-2.03,1.12h-35.78ZM82.5,.21c20.56-.07,13.19,15.79,4.63,10.38-.7-3.65-3.02-7.58-5.12-10.03l.49-.35Zm12.35,32.2v-10.52h-11.09v10.52h11.09Zm1.05,8.07c17.26,5.96,7.86,18.8,1.33,12.07,.28-4.07-.77-8.56-2.03-11.79l.7-.28Z"/>
      <path class="cls-1" d="M181.43,24.13c-.21,.63-.77,1.12-2.17,1.33v39.22c-.14,.56-4.7,2.1-8.42,2.1h-1.96V32.41c-7.51,8.49-16.91,15.93-27.64,21.12l-.42-.56c13.96-11.51,25.54-29.19,29.12-43.64h-27.64l-.56-1.96h49.32l5.82-7.37s6.52,4.91,10.45,8.21c-.21,.77-.98,1.12-2.1,1.12h-21.82c-1.75,4.35-4.07,8.77-6.81,12.98l4.84,1.82Zm0,3.09c33.26,4.7,28.41,26.38,17.4,20.98-3.72-7.23-11.37-15.37-17.96-20.49l.56-.49Z"/>
      <path class="cls-1" d="M237.69,1.4c-.14,.98-.63,1.68-2.6,1.96V63.49c0,.98-4.07,3.3-7.65,3.3h-1.82v-30.31h-1.75c-.35,12.28-2.03,22.52-12.21,29.47l-.77-.91c4.35-8.07,4.21-17.68,4.14-28.55h-3.65l-.63-1.96h14.87v-9.26h-3.02l-2.1,2.81-8.42-3.65c.35-.56,.84-1.19,1.4-1.75V3.23l11.3,1.12c-.14,.77-.77,1.33-2.53,1.61V23.29h3.37V.21l12.07,1.19Zm12.77,17.89c-1.82,1.82-4.84,4.7-9.05,8.35-.28,.98-.91,1.61-1.68,1.82l-4.21-8.14c2.67-.42,8.84-1.54,14.8-2.81l.14,.77Zm21.75,9.54s4.49,4.77,6.81,7.79c-.21,.77-.91,1.12-1.89,1.12h-9.12v18.1c0,6.38-1.54,9.82-12.28,10.73-.28-3.02-.7-5.12-1.96-6.52-1.26-1.4-2.81-2.46-6.88-3.16v-.84s8.42,.49,10.03,.49c1.05,0,1.4-.35,1.4-1.19v-17.61h-21.82l-.56-1.96h22.38v-9.05c-5.89,3.37-13.05,5.96-21.68,7.65l-.49-.84c7.65-3.37,14.17-7.65,19.43-12.77-1.12,.49-2.53,.49-4.07-.28-.63-2.46-2.53-5.12-4.49-6.95-3.44,2.31-7.09,4.35-10.8,5.68l-.49-.56c4.7-4.28,9.82-12.14,12.14-18.52l12.77,3.16c-.28,.77-.84,1.12-2.81,.98-1.12,1.26-2.39,2.53-3.72,3.72h10.52l4.7-4.7,9.05,7.3c-.56,.7-1.61,.98-3.44,1.12-4,5.68-9.19,10.66-16,14.66l11.44,.98c-.14,1.05-.84,1.61-2.39,1.82v6.6h.28l3.93-6.95Zm-32.06,10.17c20.14,3.02,12.07,18.45,4.21,12.28-.28-4.21-2.39-8.84-4.77-11.93l.56-.35Zm11.72-29.05c-.84,.7-1.68,1.4-2.6,2.03,7.65,.07,9.54,3.86,8.56,6.53,2.46-2.67,4.63-5.54,6.38-8.56h-12.35Z"/>
      <path class="cls-1" d="M346.23,54.93c2.03,1.12,2.46,2.25,2.46,4,0,3.51-2.74,5.47-10.17,5.47h-3.44c-6.1,0-7.02-1.89-7.02-7.65v-15.29c-2.46,10.24-7.58,18.66-18.31,25.33l-.7-.98c9.54-11.72,11.37-25.68,11.65-43.15h-3.3l-.14-.49c-.49,.49-1.33,1.05-2.6,1.26v11.65c-.07,.49-4.77,1.96-7.72,1.96h-1.61v-2.67h-.56v21.61c0,6.1-1.33,10.03-10.87,10.74-.14-2.88-.28-5.05-1.12-6.38-.7-1.26-1.82-2.32-4.77-2.81v-.91s4.91,.35,6.1,.35c.91,0,1.19-.49,1.19-1.19v-10.94c-3.65,6.38-8.56,10.94-14.03,13.89l-.77-.56c2.67-4.56,5.12-11.58,6.31-18.59l8.49,2.81v-8h-1.05v.84c0,.77-3.93,2.67-7.58,2.67h-1.26V16.35l9.19,3.58h10.03l4.14-4.49,8.35,6.17-.28-.91h3.86c.07-6.38-.07-13.26-.07-20.63l12.49,1.12c-.21,1.12-.91,1.75-2.6,2.04-.07,6.17-.07,12-.21,17.47h5.4l3.72-4.91c-1.33,0-2.74-.49-4.07-1.75,.07-3.79-1.19-7.86-2.67-10.73l.63-.28c13.12,2.88,12.21,10.53,8.07,12.42,1.68,1.33,5.05,4.07,7.3,6.1-.14,.77-.91,1.12-1.96,1.12h-9.33v31.36c0,.91,.14,1.26,.98,1.26h1.26c.49,0,.91,0,1.26-.07,.49,0,.91-.14,1.33-.84,.7-1.26,1.89-5.47,3.02-9.4h.7l.28,9.96Zm-63.99-40.62l-.56-1.96h25.12l4.7-6.53s5.4,4.42,8.56,7.37c-.21,.77-.98,1.12-2.03,1.12h-35.78ZM292.97,.21c20.56-.07,13.19,15.79,4.63,10.38-.7-3.65-3.02-7.58-5.12-10.03l.49-.35Zm12.35,32.2v-10.52h-11.09v10.52h11.09Zm1.05,8.07c17.26,5.96,7.86,18.8,1.33,12.07,.28-4.07-.77-8.56-2.03-11.79l.7-.28Z"/>
      <path class="cls-1" d="M2.39,150.14c9.26-3.16,19.15-9.19,23.92-13.96l10.66,7.37c-.7,.77-2.17,1.12-4.63,.56-7.02,3.44-18.73,6.03-29.75,6.88l-.21-.84Zm61.39-59.63c-.35,.49-1.12,1.12-2.46,1.33v11.23c-.07,.49-5.05,2.03-8.07,2.03h-.63l5.89,4.49c-.42,.49-1.19,1.05-2.46,1.33v24.35c-.07,.56-5.05,2.38-8.42,2.38h-1.75v-2.24H22.59v1.05c0,.98-4.35,3.23-8.49,3.23h-1.47v-34.31c-1.19,.35-2.53,.56-3.79,.56h-1.33v-21.33l10.38,3.93H50.8l4.21-4.49,8.77,6.46Zm-12.28,13.75v-1.75H17.12v.56c0,.35-.77,.91-1.89,1.4l7.93,3.09h22.03l4.42-4.77,1.89,1.47Zm-34.38-13.75v10.03h5.05v-10.03h-5.05Zm28.77,19.01H22.59v6.52h23.29v-6.52Zm-23.29,15.16h23.29v-6.67H22.59v6.67Zm23.29,8.77v-6.81H22.59v6.81h23.29Zm-14.38-42.94v10.03h5.26v-10.03h-5.26Zm4.77,48.13c42.59-.21,24.42,17.68,15.79,10.52-2.67-2.95-7.79-7.16-16-9.75l.21-.77Zm9.96-48.13v10.03h5.26v-10.03h-5.26Z"/>
      <path class="cls-1" d="M94.5,137.02c4.49-.35,9.33-.84,14.1-1.33l.07,.84c-6.31,2.95-16.07,6.81-31.08,11.86-.49,.84-1.33,1.47-2.17,1.68l-4.42-11.22c2.95-.14,7.79-.49,13.68-.91v-9.05h-9.61l-.56-1.96h10.17v-8.49h-11.23l-.56-1.96h18.66c.77-3.58,1.47-8.63,1.82-12.28h-13.89c15.37,4.98,6.17,16.63-.14,10.31,.35-3.58-.63-7.51-1.82-10.31h-6.17l-.56-1.96h10.31v-3.72c-1.33,2.24-4.49,3.02-7.16,.35,.21-4.07-1.05-8.7-2.67-11.93l.7-.35c5.19,1.75,7.93,4.21,9.12,6.53v-8.7l9.05,.84c-.14,.7-.49,1.19-1.68,1.4v15.58h2.18v-17.82l9.33,.84c-.07,.77-.56,1.33-1.89,1.61v10.66c.98-3.23,2.18-7.44,3.16-11.23l10.87,4.35c-.35,.84-1.26,1.4-2.81,1.26-3.51,3.02-7.58,6.24-11.09,8.35l-.14-.07v2.04h2.39l4.14-5.4s4.7,3.65,7.51,6.24c-.21,.77-.91,1.12-1.89,1.12h-14.17l8.77,1.89c-.21,.84-1.05,1.47-2.6,1.54-2.18,2.53-5.75,6.1-9.05,8.84h4.14l3.93-4.98s4.42,3.44,7.16,5.82c-.21,.77-.91,1.12-1.89,1.12h-12v8.49h.84l4.21-5.54s4.77,3.79,7.65,6.38c-.21,.77-.91,1.12-1.89,1.12h-10.8v8.14Zm39.43-38.45s3.93,4.21,5.89,6.8c-.14,.77-.84,1.12-1.82,1.12h-7.02v33.54c0,6.52-1.4,10.03-11.93,10.94-.21-3.09-.56-5.33-1.75-6.8-1.12-1.47-2.6-2.53-6.24-3.16v-.91s7.3,.42,8.84,.42c1.12,0,1.47-.35,1.47-1.19v-32.83h-14.03l-.56-1.96h14.59v-19.43l12.21,1.12c-.14,1.05-.84,1.75-2.6,2.03v15.51l2.95-5.19Zm-25.12,12.42c20.14,7.58,10.1,23.57,2.25,15.58,.28-5.19-1.05-10.87-2.88-15.29l.63-.28Z"/>
      <path class="cls-1" d="M181.43,108.32c-.21,.63-.77,1.12-2.17,1.33v39.22c-.14,.56-4.7,2.1-8.42,2.1h-1.96v-34.38c-7.51,8.49-16.91,15.93-27.64,21.12l-.42-.56c13.96-11.51,25.54-29.19,29.12-43.64h-27.64l-.56-1.96h49.32l5.82-7.37s6.52,4.91,10.45,8.21c-.21,.77-.98,1.12-2.1,1.12h-21.82c-1.75,4.35-4.07,8.77-6.81,12.98l4.84,1.82Zm0,3.09c33.26,4.7,28.41,26.38,17.4,20.98-3.72-7.23-11.37-15.37-17.96-20.49l.56-.49Z"/>
      <path class="cls-1" d="M212.85,150.14c9.26-3.16,19.15-9.19,23.92-13.96l10.66,7.37c-.7,.77-2.17,1.12-4.63,.56-7.02,3.44-18.73,6.03-29.75,6.88l-.21-.84Zm61.39-59.63c-.35,.49-1.12,1.12-2.46,1.33v11.23c-.07,.49-5.05,2.03-8.07,2.03h-.63l5.89,4.49c-.42,.49-1.19,1.05-2.46,1.33v24.35c-.07,.56-5.05,2.38-8.42,2.38h-1.75v-2.24h-23.29v1.05c0,.98-4.35,3.23-8.49,3.23h-1.47v-34.31c-1.19,.35-2.53,.56-3.79,.56h-1.33v-21.33l10.38,3.93h32.9l4.21-4.49,8.77,6.46Zm-12.28,13.75v-1.75h-34.38v.56c0,.35-.77,.91-1.89,1.4l7.93,3.09h22.03l4.42-4.77,1.89,1.47Zm-34.38-13.75v10.03h5.05v-10.03h-5.05Zm28.77,19.01h-23.29v6.52h23.29v-6.52Zm-23.29,15.16h23.29v-6.67h-23.29v6.67Zm23.29,8.77v-6.81h-23.29v6.81h23.29Zm-14.38-42.94v10.03h5.26v-10.03h-5.26Zm4.77,48.13c42.59-.21,24.42,17.68,15.79,10.52-2.67-2.95-7.79-7.16-16-9.75l.21-.77Zm9.96-48.13v10.03h5.26v-10.03h-5.26Z"/>
      <path class="cls-1" d="M339.21,101.03s5.47,3.93,8.84,6.67c-.21,.77-.98,1.12-2.03,1.12h-14.87l8.28,6.24c-.42,.49-1.19,1.05-2.46,1.33v20.63c-.07,.56-5.12,2.31-8.42,2.31h-1.75v-2.24h-19.86l9.75,6.95c-.7,.77-2.17,1.12-4.49,.49-6.95,3.37-18.24,5.82-29.12,6.52l-.21-.84c8.98-2.95,18.52-8.56,23.36-13.12h-2.74v.98c0,.91-4.42,3.09-8.56,3.09h-1.4v-32.13l10.52,4h22.03l3.93-4.21h-48.06l-.56-1.96h28.2v-5.12h-8.07v1.33c0,.77-4.28,2.74-8.07,2.74h-1.26v-18.24l9.82,3.72h7.58v-7.09l12.35,.98c-.07,.98-.56,1.68-2.53,1.96v4.14h8.07l4.21-4.56,8.77,6.59c-.42,.49-1.33,1.19-2.81,1.47v7.51c-.07,.63-4.56,2.6-7.79,2.6h-1.68v-3.16h-8.77v5.12h14.94l4.84-5.82Zm-29.61-1.26v-6.52h-8.07v6.52h8.07Zm-6.1,15.23v5.26h23.29v-5.26h-23.29Zm0,7.23v5.4h23.29v-5.4h-23.29Zm23.29,12.91v-5.54h-23.29v5.54h23.29Zm-9.75,4.63c42.94-.84,24.7,16.14,16.07,9.54-2.81-2.67-8.21-6.45-16.28-8.77l.21-.77Zm2.39-46.52v6.52h8.77v-6.52h-8.77Z"/>
    </g>
  </g>
</svg>