<?xml version="1.0" encoding="UTF-8"?>
<svg id="_圖層_2" data-name="圖層 2" xmlns="http://www.w3.org/2000/svg" viewBox="0 0 648.78 136.57">
  <defs>
    <style>
      .cls-1 {
        fill: #fff;
        opacity: .7;
      }

      .cls-2 {
        fill: #231815;
      }
    </style>
  </defs>
  <g id="_圖層_1-2" data-name="圖層 1">
    <rect class="cls-1" width="648.78" height="136.57" rx="30" ry="30"/>
    <g>
      <path class="cls-2" d="M35,44.88s2.13,1.89,3.33,3.22c-.07,.39-.42,.56-.91,.56h-12.46l-.28-1.02h8.44l1.89-2.76Zm-9.42-11.03l-.28-1.01h6.06l1.82-2.59s2.03,1.82,3.15,3.04c-.11,.39-.46,.56-.91,.56h-9.84Zm22.19,3.92c-.11,.46-.53,.81-1.37,.81-.04,.35-.07,.7-.11,1.08,.88,6.72,3.68,12.01,11.1,15.19l-.04,.42c-1.75,.35-2.77,1.33-3.08,3.4-5.53-3.4-7.56-9.59-8.37-16.28-1.05,6.2-3.71,12.04-14.81,16.35l-.38-.56c10.78-6.27,11.9-13.44,12.22-21.53l4.83,1.12Zm-13.3,4.27c2.38-3.85,4.45-9.77,5.22-15.82l4.97,1.16c-.1,.46-.52,.8-1.33,.8-.52,1.86-1.15,3.54-1.85,5.11h10.71l1.92-1.96,3.43,3.29c-.28,.28-.67,.38-1.44,.42-1.15,2.38-3.33,5.67-5.29,7.7l-.38-.25c.77-2.27,1.58-5.74,2-8.19h-11.41c-1.61,3.33-3.64,6.06-6.09,8.05l-.46-.32Z"/>
      <path class="cls-2" d="M87.45,28.6c.42,13.51,2.03,21.6,8.33,26.18l-.07,.42c-1.5,.35-2.52,1.58-2.94,3.46-3.61-3.75-5.04-10.54-5.64-19.6-.66,8.02-2.83,14.81-10.82,19.71l-.42-.53c1.65-1.47,2.94-2.98,4.03-4.62h-12.15l-1.09,1.75-3.5-2.14c.25-.28,.63-.63,1.02-.88V27.16l3.85,1.96h8.16l1.96-2.62s2.21,1.82,3.54,3.08c-.11,.38-.45,.56-.95,.56h-6.2v6.2h2.49l1.51-1.61,2.87,2.49c-.25,.28-.7,.53-1.26,.63v7.84c-.07,.14-1.33,.7-2.55,.7h-.63v-1.61h-2.42v7.84h1.44l1.86-2.55s1.5,1.33,2.7,2.49c4.03-7.07,3.61-15.86,3.64-26.29l4.52,.46c-.07,.52-.38,.88-1.26,.98v.91Zm-15.96,7.74v-6.2h-3.99v6.2h3.99Zm5.5,1.01h-9.49v6.41h9.49v-6.41Zm-5.5,15.26v-7.84h-3.99v7.84h3.99Z"/>
      <path class="cls-2" d="M112.33,30c5.78,0,8.54,2.59,8.54,6.2,0,2.7-1.71,5.15-6.41,6.06,5.53,.66,7.81,3.19,7.81,6.48,0,3.5-2.73,7.07-10.57,7.07h-10.61v-1.26l3.47-.39c.07-3.46,.07-6.97,.07-10.54v-1.71c0-3.43,0-6.86-.07-10.26l-3.47-.38v-1.26h11.24Zm-3.64,1.44c-.04,3.36-.04,6.76-.04,10.26h1.89c4.38,0,6.41-1.79,6.41-5.36,0-3.36-1.82-4.9-5.81-4.9h-2.45Zm2.45,22.89c4.52,0,6.93-1.93,6.93-5.57s-2.24-5.63-7.32-5.63h-2.1c0,4.06,0,7.66,.04,11.2h2.45Z"/>
      <path class="cls-2" d="M156.5,53.38s2.52,1.89,4.03,3.25c-.1,.39-.46,.56-.98,.56h-31.26l-.28-1.02h14.35v-10.47h-10.26l-.28-1.01h10.54v-8.96h-11.73l-.32-1.02h22.61l2.14-2.73s2.45,1.82,3.99,3.19c-.11,.38-.49,.56-.98,.56h-12.11v8.96h5.67l2.13-2.63s2.35,1.79,3.82,3.08c-.07,.39-.46,.56-.98,.56h-10.64v10.47h8.33l2.21-2.8Zm-17.82-26.99c11.38,1.26,9.59,8.86,5.74,6.9-1.01-2.38-3.75-5.04-6.02-6.58l.28-.32Z"/>
      <path class="cls-2" d="M178.26,26.74c-.11,.49-.39,.84-1.3,.98v29.68c0,.46-1.37,1.37-2.52,1.37h-.6v-14h-2.45c-.14,5.74-.74,10.57-5.08,13.9l-.46-.52c2.45-3.64,2.49-8.19,2.49-13.37h-2.14l-.31-1.01h7.95v-5.64h-2.91l-1.12,1.47-3.43-1.89c.32-.28,.84-.67,1.33-.95v-8.68l4.27,.8c-.07,.38-.46,.63-1.33,.77v7.46h3.19v-10.85l4.41,.49Zm17.15,5.85c-.11,.42-.53,.73-1.26,.73-.21,.53-.42,1.02-.67,1.47,3.01,.98,3.39,2.84,2.73,3.75,.56,.42,1.86,1.44,2.77,2.24-.1,.38-.42,.56-.91,.56h-20.72l-.28-1.02h8.72v-9.17h-7.46l-.25-1.01h7.7v-3.99l4.24,.39c-.07,.52-.38,.88-1.29,1.01v2.59h4.27l1.71-2.21s2,1.54,3.22,2.66c-.11,.38-.46,.56-.95,.56h-8.26v9.17h5.64l1.05-1.29c-.38,.07-.8-.04-1.26-.38-.11-.91-.6-1.93-1.23-2.77-.91,1.61-2.07,2.94-3.4,3.89l-.52-.35c1.22-1.96,2.17-4.79,2.55-7.81l3.85,.98Zm-10.82-.11c-.14,.42-.52,.74-1.29,.74-.21,.59-.46,1.12-.7,1.64,4.8,2.17,2.35,5.78,.42,3.99,.04-.95-.38-2.1-.91-3.01-1.01,1.75-2.31,3.19-3.78,4.16l-.49-.35c1.4-2,2.49-4.97,2.91-8.19l3.85,1.01Zm9.98,9.59l2.97,2.28c-.24,.28-.59,.49-1.33,.59v12.53c0,.17-1.05,.8-2.45,.8h-.49v-1.79h-11.52v1.43c0,.21-.91,.77-2.35,.77h-.49v-16.24l3.22,1.26h10.99l1.44-1.65Zm-1.3,13.41v-10.75h-11.52v10.75h11.52Zm-.94-7.84c-.14,.21-.56,.42-1.02,.53v4.97c-.04,.25-1.16,.77-1.89,.77h-.35v-1.19h-3.22v.84c0,.17-.77,.74-1.93,.74h-.35v-8.37l2.45,1.05h2.76l1.12-1.12,2.42,1.79Zm-3.26,4.06v-3.71h-3.22v3.71h3.22Z"/>
      <path class="cls-2" d="M232.5,26.67s2.49,1.82,3.96,3.12c-.1,.38-.46,.56-.95,.56h-13.55c-1.23,1.75-2.73,3.75-3.96,5.18h12.18l1.72-2.03,3.36,2.66c-.25,.31-.63,.56-1.44,.7v20.55c0,.25-1.23,.95-2.91,.95h-.56v-2.52h-20.58v1.89c0,.25-1.01,.91-2.73,.91h-.56v-24.57l3.71,1.47h6.62c.21-1.43,.49-3.5,.7-5.18h-13.16l-.32-1.02h26.29l2.17-2.66Zm-22.72,28.14h4.55v-18.27h-4.55v18.27Zm12.85-18.27h-5.18v5.32h5.18v-5.32Zm-5.18,11.76h5.18v-5.42h-5.18v5.42Zm0,6.51h5.18v-5.5h-5.18v5.5Zm8.3-18.27v18.27h4.62v-18.27h-4.62Z"/>
      <path class="cls-2" d="M258.99,47.36c-3.36,2-8.02,4.66-14.67,7.7-.14,.42-.45,.81-.84,.95l-1.92-3.96c1.16-.25,2.91-.7,4.97-1.29l-.35-22.61,4.62,.35c-.04,.49-.32,.88-1.26,1.01l.32,20.27c2.8-.88,5.95-1.86,9-2.87l.14,.46Zm13.23-18.62c-.07,.52-.49,.95-1.33,1.01-.32,7.46-.84,13.76-4.48,18.83,10.75,4.62,8.61,11.66,4.9,9.35-1.01-2.62-3.43-5.81-5.67-8.3-3.04,3.68-7.88,6.72-15.75,9.14l-.32-.6c16.38-7.35,17.4-16.38,17.68-29.93l4.97,.49Zm-18.38,3.43c10.82,3.57,8.26,10.71,4.73,8.23-.74-2.63-3.15-5.88-5.08-8.02l.35-.21Z"/>
      <path class="cls-2" d="M280.12,34.62c8.37,.63,6.06,6.69,2.94,4.76-.46-1.64-1.96-3.43-3.25-4.52l.31-.24Zm10.36-.56c-1.4,3.92-3.99,11.13-4.48,12.81-.28,1.05-.56,2.21-.53,3.04,.07,1.72,1.26,3.19,1.16,6.16-.07,1.68-1.05,2.7-2.49,2.7-.7,0-1.37-.56-1.54-1.79,.6-3.68,.42-6.69-.42-7.21-.49-.35-1.05-.49-1.79-.56v-.7h1.58c.49,0,.66,0,1.05-.7q.74-1.23,6.86-13.86l.59,.11Zm-7.74-7.39c8.89,.95,6.48,7.21,3.25,5.22-.53-1.79-2.17-3.78-3.54-4.94l.28-.28Zm28.56,19.53c-.17,.31-.7,.56-1.4,.31-1.29,.98-3.88,2.52-6.2,3.57,1.71,2.38,4.41,4.17,8.61,5.43l-.04,.42c-1.54,.32-2.45,1.09-2.7,2.87-5.5-2.35-7.63-6.58-8.58-11.94-.77,5.11-3.25,9.14-12.95,11.9l-.32-.56c10.36-4.2,10.15-9.98,10.22-17.89l4.59,.42c-.07,.49-.38,.81-1.16,.91-.04,.77-.07,1.5-.1,2.24,.38,2.14,.98,4.03,2.03,5.6,1.43-1.79,3.15-4.34,3.96-5.74l4.03,2.45Zm-21.81-3.92c9.24-3.67,9-8.68,9.07-15.82l4.58,.38c-.07,.42-.42,.77-1.15,.88-.11,2.84-.21,5.32-1.09,7.56,.84,.14,1.61,.31,2.31,.52,1.47-2.07,3.19-4.97,3.96-6.58l4.13,2.31c-.17,.32-.67,.56-1.4,.39-1.22,1.05-3.64,2.8-5.92,4.13,8.58,2.66,7.49,7.88,4.27,6.65-1.51-2.21-4.9-5.04-7.63-6.79-1.37,2.87-4.34,5.18-10.78,6.9l-.35-.53Zm.6,1.65c7.95,3.71,4.09,9.21,2.07,6.51-.32-1.65-.95-4.38-2.45-6.23l.39-.28Zm.91-14.84c7.77,3.54,4.13,9.14,2.06,6.55-.35-1.68-.94-4.38-2.42-6.23l.35-.32Z"/>
      <path class="cls-2" d="M346.69,35.11s2.31,1.75,3.78,3.01c-.11,.38-.49,.56-.98,.56h-31.33l-.28-1.01h26.71l2.1-2.56Zm-28.77,23.17c4.13-1.44,8.86-4.2,11.13-6.2l4.1,2.73c-.32,.39-.95,.49-2,.25-3.08,1.54-8.3,3.05-13.06,3.71l-.17-.49Zm1.71-27.93h7.07v-4.17l4.58,.42c-.1,.49-.38,.84-1.33,.98v2.77h7.98v-4.17l4.62,.42c-.07,.49-.38,.84-1.29,.98v2.77h2.31l1.96-2.45s2.28,1.68,3.64,2.91c-.11,.38-.45,.56-.91,.56h-7v4.34c0,.25-1.47,.8-2.73,.8h-.59v-1.4h-7.98v.84c0,.24-1.43,.8-2.7,.8h-.56v-5.39h-6.79l-.28-1.01Zm22.47,22.4v-1.33h-16.14v.84c0,.31-1.47,1.05-2.8,1.05h-.53v-13.62l3.57,1.47h15.54l1.64-1.82,3.54,2.7c-.25,.28-.74,.6-1.47,.74v9.1c-.04,.25-1.71,.88-2.8,.88h-.56Zm-16.14-10.57v3.5h6.37v-3.5h-6.37Zm0,8.23h6.37v-3.71h-6.37v3.71Zm3.99-19.04v2.73h7.98v-2.73h-7.98Zm5.64,10.82v3.5h6.51v-3.5h-6.51Zm6.51,8.23v-3.71h-6.51v3.71h6.51Zm-5.5,2.52c18.2,1.12,12.36,7.81,9.1,5.32-1.68-1.54-4.8-3.46-9.24-4.83l.14-.49Z"/>
      <path class="cls-2" d="M386.23,54.05c1.5,.42,2,.63,2,1.33,0,1.58-1.47,2.59-7.98,2.59h-13.13c-4.69,0-6.9-1.12-6.9-4.9v-14.95c-1.44,1.22-2.94,2.31-4.48,3.19l-.35-.35c3.99-3.46,7.91-9.7,9.77-14.91l4.87,1.26c-.14,.38-.45,.56-1.37,.49-.46,.84-.98,1.68-1.54,2.52h6.76l1.92-1.89,3.33,2.94c-.28,.28-.7,.35-1.4,.42-1.4,1.4-3.54,3.4-5.53,4.66h8.05l1.68-1.85,3.57,2.73c-.25,.31-.81,.63-1.54,.77v9.35c-.04,.25-1.68,.91-2.77,.91h-.56v-2.31h-17.15v7.14c0,1.33,1.16,1.64,3.5,1.64h12.95c2.21,0,3.22-.14,3.85-.98,.59-.77,1.43-3.12,2-4.97h.42l.04,5.18Zm-19.85-22.72c-1.12,1.58-2.41,3.12-3.82,4.59l1.37,.52h7.39c.91-1.4,1.96-3.54,2.59-5.11h-7.53Zm-2.91,13.69h6.86v-7.56h-6.86v7.56Zm10.08-7.56v7.56h7.07v-7.56h-7.07Z"/>
      <path class="cls-2" d="M393.88,34.37c8.26,1.15,5.74,7.07,2.77,5.04-.35-1.71-1.79-3.67-3.08-4.76l.32-.28Zm10.05-.53c-1.26,3.96-3.54,11.31-3.96,12.95-.28,1.05-.53,2.24-.49,3.08,.07,1.72,1.29,3.19,1.16,6.2-.07,1.64-1.05,2.7-2.45,2.7-.74,0-1.37-.56-1.54-1.82,.56-3.61,.42-6.69-.39-7.21-.45-.35-1.01-.46-1.75-.53v-.73h1.54c.46,0,.63,0,.98-.7q.7-1.26,6.3-14.07l.59,.14Zm-7.63-7.28c8.89,1.26,6.69,7.49,3.43,5.53-.56-1.86-2.31-3.99-3.75-5.29l.31-.25Zm20.37,12.92c-.14,.42-.63,.63-1.68,.59,2.66,1.96,7.66,3.22,11.27,3.61l-.1,.46c-1.23,.67-1.93,1.61-2.14,2.8-3.71-1.12-7.35-3.54-9.73-6.3-3.12,2.55-7.91,5.39-12.95,6.9l-.28-.42c4.31-2.24,8.86-6.34,10.92-9.17v-3.22c-2.38,2.41-5.53,4.38-9.07,5.81l-.32-.49c3.33-2.17,6.16-5.25,7.88-8.37h-6.72l-.28-1.02h8.51v-4.41l4.55,.42c-.07,.49-.35,.84-1.29,.98v3.01h4.51l1.93-2.31s2.1,1.57,3.46,2.76c-.1,.38-.46,.56-.94,.56h-8.96v.8c11.38,1.86,10.43,8.54,6.86,7.14-1.37-2.13-4.38-4.73-6.86-6.41v4.34c0,.21-.91,.56-1.86,.7l3.29,1.23Zm5.92,8.33c-.21,.31-.77,.52-1.47,.28-1.29,.91-2.76,1.82-4.06,2.49,9.21,1.68,8.47,7.28,5.11,6.23-1.44-1.82-4.41-4.06-6.93-5.57v3.68c0,2.24-.46,3.46-4.31,3.78-.07-.88-.21-1.58-.7-2-.45-.38-1.23-.74-2.73-.98v-.49s3.26,.21,3.92,.21c.52,0,.66-.14,.66-.6v-3.75c-1.75,1.33-4.03,3.04-6.97,5.11-.07,.46-.32,.81-.63,.98l-2.28-3.19c1.71-.53,5.71-2.1,9.87-3.78v-6.48l4.37,.42c-.1,.49-.46,.77-1.22,.88v5.29l.38,.04c1.05-1.19,2.38-3.04,3.57-4.83l3.4,2.28Zm-17.22-1.68c7.49,.81,4.94,5.95,2.24,4.03-.32-1.33-1.47-2.87-2.56-3.75l.32-.28Z"/>
      <path class="cls-2" d="M460.31,26.67s2.49,1.82,3.96,3.12c-.1,.38-.46,.56-.95,.56h-13.55c-1.23,1.75-2.73,3.75-3.96,5.18h12.18l1.72-2.03,3.36,2.66c-.25,.31-.63,.56-1.44,.7v20.55c0,.25-1.23,.95-2.91,.95h-.56v-2.52h-20.58v1.89c0,.25-1.01,.91-2.73,.91h-.56v-24.57l3.71,1.47h6.62c.21-1.43,.49-3.5,.7-5.18h-13.16l-.31-1.02h26.29l2.17-2.66Zm-22.72,28.14h4.55v-18.27h-4.55v18.27Zm12.85-18.27h-5.18v5.32h5.18v-5.32Zm-5.18,11.76h5.18v-5.42h-5.18v5.42Zm0,6.51h5.18v-5.5h-5.18v5.5Zm8.3-18.27v18.27h4.62v-18.27h-4.62Z"/>
      <path class="cls-2" d="M502.65,46.63c-.28,.25-.7,.45-1.43,.53-.49,5.92-1.61,9.35-3.33,10.61-1.02,.7-2.35,1.05-3.92,1.05,0-.84-.14-1.65-.59-2.1-.49-.49-1.58-.88-2.8-1.08v-.56c1.19,.14,3.33,.28,4.06,.28,.59,0,.91-.07,1.23-.32,.87-.7,1.75-3.67,2.2-8.33h-21.21c-2.06,2.06-4.41,3.95-7.11,5.53l-.38-.38c5.57-4.38,9.56-10.57,12.22-16.84h-9.45l-.32-1.02h10.19c1.08-2.7,1.92-5.39,2.52-7.95l4.62,1.33c-.18,.46-.49,.7-1.47,.66-.63,1.92-1.37,3.92-2.28,5.95h5.78l1.33-1.4,2.94,2.31c-.25,.28-.56,.39-1.19,.42l-1.02,4.41h1.19l1.29-1.37,2.84,2.28c-.25,.28-.56,.38-1.16,.46l-.81,4.58h1.23l1.71-1.68,3.12,2.62Zm-26.25,2.45c1.5,4.34-.04,7.21-1.68,8.19-1.12,.7-2.59,.56-3.01-.52-.38-.98,.25-1.86,1.19-2.35,1.5-.77,3.05-2.8,2.98-5.29l.53-.04Zm-1.44-22.58c8.61,1.92,5.78,8.23,2.66,5.91-.32-2-1.68-4.27-3.01-5.7l.35-.21Zm6.72,14.25c-1.16,1.72-2.41,3.36-3.85,4.94h15.82l.91-4.94h-12.88Zm-1.44,8.23c5.74,4.62,1.86,9.7-.35,6.72,.49-2.17,.32-4.72-.11-6.62l.45-.11Zm4.66-13.97c-.74,1.58-1.61,3.19-2.59,4.73h7.91l1.05-4.73h-6.37Zm-.28,13.62c7.28,2.59,4.31,8.05,1.68,5.71-.07-1.82-1.05-4.06-2.06-5.5l.38-.21Zm4.9-.56c7.49,.66,5.57,6.12,2.73,4.48-.39-1.51-1.79-3.29-3.05-4.27l.32-.21Z"/>
      <path class="cls-2" d="M536.18,53.38s2.52,1.89,4.03,3.25c-.1,.39-.45,.56-.98,.56h-31.26l-.28-1.02h14.35v-10.47h-10.26l-.28-1.01h10.54v-8.96h-11.73l-.32-1.02h22.61l2.14-2.73s2.45,1.82,3.99,3.19c-.11,.38-.49,.56-.98,.56h-12.11v8.96h5.67l2.13-2.63s2.35,1.79,3.82,3.08c-.07,.39-.46,.56-.98,.56h-10.64v10.47h8.33l2.21-2.8Zm-17.82-26.99c11.38,1.26,9.59,8.86,5.74,6.9-1.01-2.38-3.75-5.04-6.02-6.58l.28-.32Z"/>
      <path class="cls-2" d="M550.24,46.13c2.07-1.19,3.01-2.7,3.46-4.52-1.82-.8-2.97-1.68-2.97-3.19,0-1.26,.87-2.34,2.41-2.34s2.66,1.16,2.66,3.33c0,2.66-1.26,6.06-4.97,7.84l-.59-1.12Z"/>
      <path class="cls-2" d="M599.06,46.63c-.28,.25-.7,.45-1.43,.53-.49,5.92-1.61,9.35-3.33,10.61-1.02,.7-2.35,1.05-3.92,1.05,0-.84-.14-1.65-.59-2.1-.49-.49-1.58-.88-2.8-1.08v-.56c1.19,.14,3.33,.28,4.06,.28,.59,0,.91-.07,1.23-.32,.88-.7,1.75-3.67,2.21-8.33h-21.21c-2.07,2.06-4.41,3.95-7.11,5.53l-.38-.38c5.57-4.38,9.56-10.57,12.22-16.84h-9.45l-.32-1.02h10.19c1.08-2.7,1.92-5.39,2.52-7.95l4.62,1.33c-.18,.46-.49,.7-1.47,.66-.63,1.92-1.37,3.92-2.28,5.95h5.78l1.33-1.4,2.94,2.31c-.25,.28-.56,.39-1.19,.42l-1.02,4.41h1.19l1.29-1.37,2.84,2.28c-.25,.28-.56,.38-1.16,.46l-.81,4.58h1.23l1.71-1.68,3.12,2.62Zm-26.25,2.45c1.5,4.34-.04,7.21-1.68,8.19-1.12,.7-2.59,.56-3.01-.52-.38-.98,.25-1.86,1.19-2.35,1.5-.77,3.05-2.8,2.98-5.29l.53-.04Zm-1.44-22.58c8.61,1.92,5.78,8.23,2.66,5.91-.32-2-1.68-4.27-3.01-5.7l.35-.21Zm6.72,14.25c-1.16,1.72-2.41,3.36-3.85,4.94h15.82l.91-4.94h-12.88Zm-1.44,8.23c5.74,4.62,1.86,9.7-.35,6.72,.49-2.17,.31-4.72-.11-6.62l.46-.11Zm4.66-13.97c-.74,1.58-1.61,3.19-2.59,4.73h7.91l1.05-4.73h-6.37Zm-.28,13.62c7.28,2.59,4.31,8.05,1.68,5.71-.07-1.82-1.05-4.06-2.06-5.5l.38-.21Zm4.9-.56c7.49,.66,5.57,6.12,2.73,4.48-.39-1.51-1.79-3.29-3.05-4.27l.32-.21Z"/>
      <path class="cls-2" d="M628.83,28.6c.42,13.51,2.03,21.6,8.33,26.18l-.07,.42c-1.5,.35-2.52,1.58-2.94,3.46-3.61-3.75-5.04-10.54-5.64-19.6-.66,8.02-2.83,14.81-10.82,19.71l-.42-.53c1.65-1.47,2.94-2.98,4.03-4.62h-12.15l-1.08,1.75-3.5-2.14c.25-.28,.63-.63,1.02-.88V27.16l3.85,1.96h8.16l1.96-2.62s2.2,1.82,3.54,3.08c-.11,.38-.46,.56-.95,.56h-6.2v6.2h2.49l1.51-1.61,2.87,2.49c-.25,.28-.7,.53-1.26,.63v7.84c-.07,.14-1.33,.7-2.55,.7h-.63v-1.61h-2.42v7.84h1.44l1.86-2.55s1.5,1.33,2.7,2.49c4.03-7.07,3.61-15.86,3.64-26.29l4.52,.46c-.07,.52-.38,.88-1.26,.98v.91Zm-15.96,7.74v-6.2h-3.99v6.2h3.99Zm5.5,1.01h-9.49v6.41h9.49v-6.41Zm-5.5,15.26v-7.84h-3.99v7.84h3.99Z"/>
      <path class="cls-2" d="M395.21,97.88s2.35,1.79,3.82,3.04c-.1,.38-.45,.56-.98,.56h-30.66l-.32-1.01h14.14v-5.22h-10.22l-.28-1.01h10.5v-4.97l4.69,.38c-.04,.53-.32,.84-1.19,.98v3.61h5.22l2-2.45s2.24,1.68,3.68,2.91c-.11,.38-.46,.56-.95,.56h-9.94v5.22h8.4l2.1-2.59Zm-23.1-21.74c.14,2.34-.74,3.96-1.86,4.69-.98,.67-2.45,.52-2.87-.56-.39-1.01,.25-1.89,1.12-2.34,1.29-.67,2.55-2.56,2.45-4.59l.52-.04c.25,.63,.39,1.26,.49,1.82h11.34c-.32-.04-.63-.17-.95-.38-.25-1.5-1.4-3.19-2.59-4.1l.28-.25c6.65,.07,6.13,4.34,3.92,4.73h10.12l1.82-1.86,3.22,3.12c-.28,.28-.63,.39-1.33,.42-.87,1.08-2.31,2.59-3.5,3.43l-.39-.21c.18-1.05,.39-2.62,.49-3.88h-22.3Zm-.98,11.13s.74-.11,1.08-.28c2.62-1.05,6.06-4.03,7.81-6.02h-8.02l-.28-1.01h17.15l1.89-2.24s2.14,1.54,3.47,2.69c-.07,.39-.46,.56-.91,.56h-11.31l2.73,1.44c-.17,.31-.63,.56-1.37,.42-2.06,1.47-5.57,3.33-8.79,4.59,3.88-.04,9.84-.17,16.1-.42-1.08-1.3-2.31-2.49-3.36-3.36l.35-.28c10.47,2.35,8.79,9.07,5.36,7.25-.38-.91-1.01-1.89-1.75-2.87-4.24,.7-10.4,1.61-17.64,2.45-.28,.49-.63,.8-.98,.95l-1.54-3.85Z"/>
      <path class="cls-2" d="M403.4,78.94c8.61,.59,6.51,6.86,3.33,4.97-.53-1.68-2.21-3.57-3.61-4.69l.28-.28Zm11.03-2.7c-1.5,4.52-4.31,12.88-4.79,14.74-.28,1.19-.53,2.38-.53,3.29,.04,1.75,1.26,3.12,1.16,6.06-.07,1.64-.98,2.66-2.52,2.66-.77,0-1.4-.56-1.61-1.75,.6-3.57,.42-6.55-.42-7.07-.46-.35-1.01-.49-1.75-.56v-.7h1.58c.49,0,.63-.04,.98-.7q.73-1.33,7.32-16.14l.59,.17Zm-8.51-5.08c8.93,.73,6.9,7.14,3.57,5.32-.56-1.79-2.38-3.85-3.85-5.04l.28-.28Zm26.5,26.78s2.24,1.82,3.61,3.12c-.11,.39-.46,.56-.98,.56h-22.82l-.28-1.02h10.05v-11.2h-7.81l-.28-1.01h8.08v-9.14h-7.87l-.28-1.02h16.21l1.96-2.52s2.21,1.79,3.5,2.98c-.07,.38-.46,.56-.95,.56h-9.17v9.14h3.99l1.86-2.42s2.17,1.68,3.4,2.87c-.07,.38-.42,.56-.91,.56h-8.33v11.2h5.04l2-2.66Zm-13.83-27.37c9.8,1.58,7.53,8.68,4.06,6.58-.59-2.28-2.62-4.8-4.37-6.34l.32-.25Z"/>
      <path class="cls-2" d="M455.34,71.1l4.38,3.19c-.63,.74-2.14,1.16-4.1,1.37v1.4c1.08,10.82,6.58,18.38,16.66,22.51l-.14,.42c-1.68,.14-2.77,1.19-3.43,3.05-5.18-2.94-10.85-9.56-12.53-17.5-2.45,7.88-8.3,14.11-16.31,17.47l-.31-.46c7.7-4.2,14-13.72,14.98-25.52v-2.35h-8.12l-.25-1.01h7.53l1.65-2.56Z"/>
      <path class="cls-2" d="M476.06,78.73c8.61,.59,6.51,6.86,3.33,4.97-.52-1.68-2.17-3.61-3.61-4.69l.28-.28Zm10.71-1.12c-1.5,4.17-4.27,11.9-4.73,13.62-.31,1.12-.59,2.24-.59,3.15,.07,1.71,1.26,3.08,1.16,6.02-.07,1.68-1.02,2.7-2.56,2.7-.73,0-1.4-.59-1.58-1.75,.56-3.64,.39-6.62-.42-7.14-.49-.35-1.01-.49-1.75-.56v-.7h1.58c.49,0,.63,0,1.01-.67q.77-1.3,7.28-14.77l.59,.11Zm-8.12-6.55c8.89,.74,6.9,7.14,3.61,5.32-.59-1.79-2.41-3.85-3.88-5.04l.28-.28Zm26.46,8.02s2.28,1.86,3.61,3.12c-.07,.38-.46,.52-.95,.52h-9.35v6.86h3.75l1.68-1.82,3.47,2.66c-.21,.28-.7,.59-1.44,.74v10.61c-.04,.25-1.65,.98-2.77,.98h-.56v-2.77h-11.62v1.89c0,.31-1.4,1.01-2.8,1.01h-.49v-14.77l3.5,1.47h3.88v-6.86h-9.17l-.28-.98h9.45v-6.13c-2.91,.35-5.91,.59-8.75,.7l-.1-.6c6.02-1.05,13.62-3.18,17.47-4.9l3.5,3.29c-.35,.31-1.08,.35-2.1-.04-1.86,.38-4.13,.77-6.62,1.12v6.55h4.69l2-2.66Zm-14.18,11.52v8.37h11.62v-8.37h-11.62Z"/>
      <path class="cls-2" d="M543.05,80.45c-.28,.32-.73,.53-1.54,.63-.35,10.89-1.15,17.99-3.04,19.95-1.19,1.19-2.7,1.68-5.01,1.68,0-1.01-.21-1.92-.87-2.49-.7-.56-2.49-1.12-4.31-1.44l.04-.52c2,.17,5.11,.42,6.06,.42,.7,0,1.05-.11,1.44-.46,1.33-1.16,1.96-8.23,2.31-17.71h-9.38c-.7,9.1-3.36,16.98-15.79,22.47l-.38-.56c9.77-5.99,12.04-13.37,12.6-21.91h-10.71l-.31-1.01h11.1c.14-2.87,.11-5.85,.11-8.96l4.94,.49c-.07,.53-.39,.88-1.26,.98-.04,2.56-.07,5.08-.21,7.49h8.93l1.93-2,3.39,2.94Z"/>
      <path class="cls-2" d="M558.83,75.72c-2.59,3.78-5.92,6.44-9.49,8.19l-.38-.35c3.29-2.87,6.54-7.7,8.3-13.2l4.66,2.07c-.17,.38-.6,.67-1.4,.53-.32,.59-.67,1.19-1.01,1.75h15.09l2.07-2.52s2.21,1.65,3.71,2.98c-.1,.38-.45,.56-.98,.56h-20.55Zm21.88,23.8c.87,1.29,1.05,2.17,.56,2.8-.98,1.16-2.8,.52-4.13-.56-2.66-1.82-4.06-5.36-4.76-9.59-.14,.25-.46,.38-.87,.38h-8.61v9.42c0,.35-1.4,.98-2.52,.98h-.63v-10.4h-9.42l-.28-1.01h9.7v-7.46l4.31,.46c-.07,.42-.35,.74-1.16,.88v6.13h4.59l1.75-2.14s1.89,1.4,3.12,2.52c-.42-2.66-.59-5.6-.66-8.54h-18.73l-.32-1.01h18.66l1.75-1.89,3.54,2.77c-.25,.25-.73,.49-1.43,.56-.11,5.36,.63,12.53,3.64,14.49,.42,.28,.6,.21,.77-.18,.38-.98,.8-2.13,1.12-3.36l.38,.07-.35,4.69Zm-30.17,1.72c1.68-1.65,3.57-4.45,4.9-7.35l3.88,2c-.21,.35-.7,.63-1.43,.46-1.96,2.38-4.55,4.24-7,5.29l-.35-.38Zm2.62-16.35c7.63,2.28,4.73,7.6,2.07,5.36-.25-1.72-1.44-3.82-2.42-5.15l.35-.21Zm19.18-6.41l1.89-2.34s2.21,1.61,3.54,2.8c-.11,.38-.42,.56-.91,.56h-19.53l-.28-1.02h15.3Zm-8.26,16.07c9.59,1.51,7.67,8.23,4.31,6.27-.7-2.1-2.87-4.55-4.62-5.99l.32-.28Zm6.51-8.12c-.17,.38-.59,.66-1.33,.52-1.54,1.44-3.33,2.94-4.76,3.96l-.49-.35c.77-1.43,1.79-3.75,2.66-5.92l3.92,1.79Z"/>
      <path class="cls-2" d="M590.44,92.8c1.22,4.1-.25,6.9-1.86,7.88-1.01,.67-2.38,.63-2.8-.38-.35-.91,.25-1.75,1.08-2.24,1.43-.77,2.98-2.87,3.01-5.29l.56,.04Zm3.99-2.28c0,.35-1.4,1.05-2.77,1.05h-.52v-18.62l3.5,1.47h4.06c.32-1.26,.7-2.98,.95-4.17l5.22,.95c-.14,.59-.63,.84-1.37,.88-.7,.67-1.82,1.61-2.73,2.34h7.32l1.65-1.85,3.46,2.73c-.21,.28-.73,.6-1.43,.74v14.35c-.07,.25-1.68,.91-2.8,.91h-.52v-2h-14v1.22Zm15.72,8.09c1.08,.35,1.37,.74,1.37,1.37,0,1.47-1.5,1.93-8.54,1.93h-4.83c-3.68,0-4.45-.56-4.45-2.91v-7.77l4.41,.38c-.07,.46-.42,.77-1.08,.88v5.88c0,.53,.14,.63,1.64,.63h4.62c1.85,0,3.36,0,3.95-.04,.53-.04,.74-.14,.98-.49,.35-.56,.84-1.93,1.43-3.78h.38l.11,3.92Zm-15.72-23.17v3.54h14v-3.54h-14Zm14,8.16v-3.61h-14v3.61h14Zm0,4.69v-3.67h-14v3.67h14Zm-8.79,2.52c8.05,2.38,5.22,8.16,2.52,5.85-.14-1.92-1.51-4.24-2.87-5.57l.35-.28Zm10.61,1.71c9.94,2.87,7.42,10.01,4.09,7.63-.42-2.55-2.49-5.57-4.45-7.39l.35-.25Z"/>
      <path class="cls-2" d="M624.14,86.71c0-2.73,2.24-4.94,4.97-4.94s4.94,2.21,4.94,4.94-2.21,4.97-4.94,4.97-4.97-2.24-4.97-4.97Zm1.26,0c0,2.03,1.65,3.71,3.71,3.71s3.67-1.68,3.67-3.71-1.64-3.67-3.67-3.67-3.71,1.64-3.71,3.67Z"/>
    </g>
  </g>
</svg>