<?xml version="1.0" encoding="UTF-8"?>
<svg id="_圖層_2" data-name="圖層 2" xmlns="http://www.w3.org/2000/svg" viewBox="0 0 251.05 136.88">
  <defs>
    <style>
      .cls-1 {
        fill: #b37a5c;
      }
    </style>
  </defs>
  <g id="_圖層_1-2" data-name="圖層 1">
    <g>
      <path class="cls-1" d="M48.61,44.88s5.22,4.26,8.22,7.08c-.18,.66-.84,.96-1.74,.96H12.37l-2.46,4.14L1.45,52.32c.48-.6,1.2-1.32,1.92-1.92V2.1l9.36,3.42h30.3l3.96-5.52s4.56,3.72,7.2,6.24c-.18,.66-.84,.96-1.68,.96H11.89V51.24H44.05l4.56-6.36Zm-15.96,3.78V25.92h-6.6c-.18,7.32-1.74,17.22-12.48,23.28l-.48-.66c4.62-7.32,4.86-16.62,4.86-24.3V11.58l7.86,2.52c6.12-1.68,12.84-4.26,16.56-6.3l7.98,7.8c-.78,.66-2.28,.78-4.26,0-5.16,.6-13.08,.66-20.04,.18v8.46h15.9l4.14-5.1s4.68,3.42,7.56,5.82c-.18,.66-.84,.96-1.68,.96h-11.1v20.76c0,.42-2.46,1.98-6.72,1.98h-1.5Z"/>
      <path class="cls-1" d="M72.43,17.82c5.46,11.1,4.2,18.78,1.08,23.22-2.16,3.36-6.12,3.36-8.28,1.02-1.68-2.1-1.2-4.68,.6-6.54,3-2.64,6.06-9.66,5.94-17.64l.66-.06Zm17.34-5.94c-.06,.78-.6,1.44-2.1,1.62v29.88c0,1.44,.78,1.86,3.06,1.86h6.78c2.04,0,3.9-.06,5.04-.12,1.02-.06,1.68-.3,2.22-1.02,.96-1.32,2.22-4.5,3.78-8.94h.6l.24,9.3c2.52,1.02,3.24,2.04,3.24,3.72,0,3.96-3.42,5.88-16.02,5.88h-7.2c-7.8,0-10.44-1.32-10.44-7.98V10.86l10.8,1.02Zm6.54,6.18c-1.02-5.88-4.38-12.24-7.92-16.8l.48-.36c23.22,5.94,16.14,23.82,7.44,17.16Zm16.32,24.12c-.06-6.18-1.32-15.54-5.94-22.44l.48-.42c24.96,13.86,12,31.98,5.46,22.86Z"/>
      <path class="cls-1" d="M181.51,29.16c-.72,5.34-2.22,10.26-4.74,14.58,2.64,1.92,5.82,3.48,9.54,4.62l-.12,.6c-3.54,1.32-5.16,3.78-5.76,7.86-3.3-1.98-5.82-4.56-7.8-7.62-2.88,3.06-6.6,5.64-11.34,7.68l-.42-.66c4.32-3.42,7.26-7.5,9.24-12-1.2-2.94-2.1-6.24-2.82-9.78-1.5,2.1-3.18,3.84-5.1,5.28l-.72-.48c.9-2.4,1.68-5.28,2.28-8.34h-3.06v24.12c-.06,.36-2.1,1.8-5.64,1.8h-1.26v-7.98c-2.88,1.26-6.48,2.7-11.04,4.44-.36,.78-.96,1.2-1.62,1.38l-3.54-7.2c1.2-.06,2.88-.12,4.92-.24V30.9h-1.86c-.24,8.22-1.98,18.96-11.58,25.8l-.48-.42c3.84-8.64,3.9-19.74,3.9-28.56V14.16l4.08,1.38V1.2l8.04,3.06h3.24l3.48-3.9,6.72,4.92c-.36,.54-.9,.84-2.22,1.08v7.32c0,.24-2.34,1.32-6.36,1.32h-1.44v-1.56h-4.02v.9c0,.48-2.28,1.56-6.12,1.56h-.3l4.38,1.5h32.04l2.34-2.82c-1.08,.24-2.46,.42-4.2,.42h-1.44v-1.56h-4.26v.84c0,.48-2.28,1.62-6.18,1.62h-1.38V1.2l8.16,3.06h3.48l3.54-3.96,6.78,4.98c-.36,.54-.84,.84-2.16,1.08v6.36c1.26,.9,4.8,3.48,7.2,5.4-.18,.66-.84,.96-1.74,.96h-18.96l9.84,1.92c-.24,.78-.9,1.32-2.28,1.44-.48,1.8-1.08,3.48-1.68,5.04h3.9l3.84-5.28s4.38,3.6,6.9,6c-.18,.66-.78,.96-1.68,.96h-2.52Zm-33.6,.06v-4.62h-6.06l-.48-1.68h11.94l2.94-3.84h-15.54v10.14h7.2Zm-3.9-23.28v5.82h4.02V5.94h-4.02Zm9.78,24.96h-4.5v4.14h4.5v-4.14Zm0,5.82h-4.5v4.26h4.5v-4.26Zm0,9.72v-3.78h-4.5v4.14l4.5-.36Zm1.62-17.22l3.48-4.62h-3.48v4.62Zm3.84-4.62c.66,.6,2.94,2.46,4.86,4.2,.48-3.18,.72-6.48,.78-9.72h-7.02c1.32,1.08,3.78,3,5.46,4.56-.18,.66-.84,.96-1.68,.96h-2.4Zm11.46-12.84V5.94h-4.26v5.82h4.26Zm-.36,17.4c-.6,1.32-1.26,2.52-1.98,3.66,.96,2.28,2.1,4.38,3.54,6.18,.84-3.12,1.32-6.42,1.56-9.84h-3.12Z"/>
      <path class="cls-1" d="M212.65,7.8s3.54,2.82,5.64,4.8c-.18,.66-.78,.96-1.62,.96h-22.8l-.48-1.68h16.14l3.12-4.08Zm-4.86,11.76l3-3.9s3.42,2.7,5.46,4.62c-.18,.66-.78,.96-1.62,.96h-18.54l-.48-1.68h12.18Zm3,3.9s3.42,2.7,5.46,4.62c-.18,.66-.78,.96-1.62,.96h-18.54l-.48-1.68h12.18l3-3.9Zm4.38,28.08c-.06,.48-3.6,2.04-6.12,2.04h-1.32v-3.24h-4.14v3.72c0,.66-3.18,2.28-6.24,2.28h-1.08v-24.12l7.56,2.94h3.36l3.3-3.48,6.72,5.04c-.3,.42-1.02,.9-2.04,1.08v13.74ZM198.61,1.2c17.7-.66,10.98,13.26,3.54,8.4-.42-3-2.16-6.18-3.9-8.1l.36-.3Zm9.12,47.46v-11.82h-4.14v11.82h4.14Zm36.48-1.74c.78,.66,4.56,3.9,6.84,6.18-.12,.66-.78,.96-1.62,.96h-34.68l-.48-1.68h13.44v-5.46h-9.78l-.48-1.68h10.26v-4.98h-10.26l-.48-1.68h10.74v-6.42h-3.72v1.68c0,.6-3.24,2.16-6.12,2.16h-1.02V19.2l7.5,2.88h3.36v-4.38c-1.08,.54-3.6,1.2-5.94,1.2h-1.32V9.42h-4.5l-.42-1.62h4.92V0l10.02,.84c-.12,.84-.54,1.44-2.22,1.68V7.8h6.42V0l10.08,.84c-.12,.84-.54,1.44-2.22,1.68V6.66l2.52-3.78s3.72,3.36,5.76,5.58c-.18,.66-.78,.96-1.56,.96h-6.72v7.32c0,.48-3.42,1.56-6.54,1.56h-.48v3.78h3.24l3.36-3.6,7.08,5.22c-.36,.42-1.08,.9-2.16,1.14v7.74c-.06,.3-1.74,.9-3.54,1.26,.84,.78,4.02,3.48,5.94,5.46-.18,.66-.78,.96-1.62,.96h-12.3v4.98h3.42l3.42-4.92s3.96,3.36,6.24,5.64c-.18,.66-.78,.96-1.62,.96h-2.76Zm-16.5-16.44v-6.72h-3.72v6.72h3.72Zm.54-21.06v6.12h6.42v-6.12h-6.42Zm7.26,14.34v6.72h3.84v-6.72h-3.84Zm0,14.82h4.32l3.24-4.62c-.84,.12-1.68,.24-2.4,.24h-1.32v-2.04h-3.84v6.42Zm4.68,13.8l3.84-5.46h-8.52v5.46h4.68Z"/>
      <path class="cls-1" d="M57.01,92.72c-.48,.54-1.08,.72-2.4,.78-2.52,2.22-6.9,5.1-10.32,6.72l-.36-.36c.66-2.28,1.32-5.58,1.74-8.16H9.01c.96,4.5-.06,7.8-2.04,9.42-1.98,1.62-5.64,.9-6.72-1.92-.84-2.64,.54-4.74,2.76-5.88,1.62-1.2,3.78-4.2,3.42-7.08h.72c.6,1.32,1.08,2.58,1.44,3.78H25.27c-.42-.24-.84-.54-1.2-.84,.36-3.24-.6-6.66-2.58-8.64l.3-.3c13.68,0,13.8,7.14,9.84,9.78h13.56l4.38-4.32,7.44,7.02Zm-8.88,9s4.92,3.6,7.92,6.12c-.18,.66-.84,.96-1.74,.96h-12.06c-1.26,5.46-3.3,10.26-6.9,14.34,23.52,6.06,12.54,16.68,5.28,12.84-2.76-2.28-6.72-4.86-11.76-7.38-6.18,3.9-14.94,6.72-27.42,8.28l-.3-.66c9.84-2.76,16.74-6.36,21.48-10.44-4.5-1.92-9.66-3.72-15.3-5.22,1.56-2.88,3.6-7.26,5.52-11.76H1.21l-.48-1.68H13.57c2.28-5.4,4.32-10.68,5.04-13.5l11.58,3.3c-.18,.66-.72,1.26-2.76,1.26-1.08,2.28-2.58,5.46-4.32,8.94h9.48c.36-2.46,.54-4.98,.6-7.5l12.36,2.16c-.18,.96-.9,1.5-2.34,1.5-.18,1.32-.36,2.58-.6,3.84h1.2l4.32-5.4Zm-25.8,7.08c-1.98,3.9-4.08,7.98-6.06,11.34,3.9,.36,7.38,.78,10.5,1.26,3-3.84,4.68-8.1,5.52-12.6h-9.96Z"/>
      <path class="cls-1" d="M72.43,97.82c5.46,11.1,4.2,18.78,1.08,23.22-2.16,3.36-6.12,3.36-8.28,1.02-1.68-2.1-1.2-4.68,.6-6.54,3-2.64,6.06-9.66,5.94-17.64l.66-.06Zm17.34-5.94c-.06,.78-.6,1.44-2.1,1.62v29.88c0,1.44,.78,1.86,3.06,1.86h6.78c2.04,0,3.9-.06,5.04-.12,1.02-.06,1.68-.3,2.22-1.02,.96-1.32,2.22-4.5,3.78-8.94h.6l.24,9.3c2.52,1.02,3.24,2.04,3.24,3.72,0,3.96-3.42,5.88-16.02,5.88h-7.2c-7.8,0-10.44-1.32-10.44-7.98v-35.22l10.8,1.02Zm6.54,6.18c-1.02-5.88-4.38-12.24-7.92-16.8l.48-.36c23.22,5.94,16.14,23.82,7.44,17.16Zm16.32,24.12c-.06-6.18-1.32-15.54-5.94-22.44l.48-.42c24.96,13.86,12,31.98,5.46,22.86Z"/>
      <path class="cls-1" d="M181.93,105.74c-.36,.48-.96,.78-2.34,.42-3.78,1.38-8.82,2.76-14.1,3.96,4.02,8.1,12.06,12.18,20.04,14.7l-.12,.66c-3.24,.72-5.64,3.36-6.84,7.38-7.32-5.04-11.94-11.28-14.4-22.44-1.32,.24-2.64,.54-3.96,.78,5.04,8.52,4.68,18.72,1.56,22.8-1.68,2.16-5.16,2.88-9.9,2.88-.06-2.4-.54-4.14-1.5-5.34-.78-.96-2.58-1.86-5.1-2.58v-.6c2.52,.24,6.3,.48,7.74,.48,.84,0,1.5-.12,1.8-.66,.48-.96,.9-2.64,1.02-4.68-7.14,4.02-16.5,7.44-25.92,9l-.36-.78c10.02-3.6,20.04-10.86,25.62-18.3l-.06-.42c-6.24,3.78-15.12,7.44-23.46,9.48l-.3-.66c7.38-3.66,15.3-10.44,19.92-16.44-5.64,3.06-12.36,5.46-19.26,7.14l-.36-.66c6.9-3.36,13.2-8.64,17.34-13.26h-10.26l-.48-1.68h27.6l4.2-5.34s2.34,1.8,4.74,3.72c.12-1.62,.12-3.66,.12-5.34h-35.88c.54,4.44-.96,7.56-3.18,8.94-2.1,1.32-5.34,.6-6.24-2.04-.78-2.52,.72-4.44,2.82-5.4,1.98-1.08,4.44-3.84,4.38-6.84h.72c.54,1.26,.9,2.52,1.2,3.66h16.08c-.24-.12-.42-.24-.66-.36-.24-2.88-1.92-5.82-3.9-7.44l.36-.3c13.2-1.62,13.2,5.82,9.24,8.1h14.4l4.08-4.14,7.14,6.72c-.48,.54-1.08,.72-2.34,.78-1.8,1.5-4.8,3.36-7.32,4.56,.66,.48,1.2,.96,1.74,1.44-.12,.66-.84,.96-1.68,.96h-15.12c-1.92,1.92-4.26,3.72-6.9,5.34,2.16,1.68,3.96,3.66,5.34,5.7,5.34-3.36,11.16-8.04,14.22-11.04l8.52,7.14Z"/>
      <path class="cls-1" d="M249.43,86.48c-.42,.54-1.14,1.02-2.4,1.32v46.02c-.06,.6-4.08,2.64-7.32,2.64h-1.38v-4.92h-34.02v2.04c0,1.08-3.42,3.18-7.08,3.18h-1.44v-55.68l9.24,3.66h32.7l4.02-4.44,7.68,6.18Zm-45.12,43.38h9.36l-3.24-5.22c1.98-1.26,2.28-1.74,2.28-2.82v-1.92c-2.4,1.02-4.98,1.86-7.68,2.52l-.48-.9c4.44-2.1,8.22-5.16,10.8-8.46h-.54c-.72,.66-3.42,1.74-5.76,1.74h-.96v-13.5l7.2,2.76h12.3l3-3.06,6.18,4.5c-.24,.36-.78,.72-1.62,.9v6.12c0,.18-.48,.42-1.08,.66l4.26,3.78v-16.74c-.3,.18-.6,.24-1.02,.24h-32.34l-.48-1.68h13.08v-4.26h-10.08l-.48-1.68h10.56v-5.34l9.3,.78c-.06,.66-.42,1.14-1.68,1.38v3.18h2.7l3.24-3.9s3.66,2.64,5.94,4.62c-.12,.66-.72,.96-1.56,.96h-10.32v4.26h4.14l3.36-4.14s3.24,2.4,5.64,4.38v-12.6h-34.02v43.44Zm34.02,0v-12.78c-.3,.42-.9,.54-1.98,.12-1.08,.42-2.7,.84-4.38,1.26,9.6,4.98,5.76,11.88,1.26,9.36-1.5-2.82-5.88-7.8-11.7-11.76l.42-.78c2.7,.54,5.04,1.14,6.96,1.86,.96-1.02,1.92-2.22,2.7-3.24-.78,.18-1.62,.3-2.28,.3h-1.26v-1.14h-4.62c-1.14,1.26-2.52,2.4-4.08,3.42v5.82c2.04-.54,4.32-1.2,6.6-1.86l.18,.72c-2.1,1.62-6.6,4.92-11.34,8.1-.18,.24-.42,.42-.6,.6h24.12Zm-10.26-24.12h-13.08v5.64h13.08v-5.64Z"/>
    </g>
  </g>
</svg>