<?xml version="1.0" encoding="utf-8"?>
<!-- Generator: Adobe Illustrator 27.0.0, SVG Export Plug-In . SVG Version: 6.00 Build 0)  -->
<svg version="1.1" id="圖層_1" xmlns="http://www.w3.org/2000/svg" xmlns:xlink="http://www.w3.org/1999/xlink" x="0px" y="0px"
	 viewBox="0 0 768 160.8" style="enable-background:new 0 0 768 160.8;" xml:space="preserve">
<style type="text/css">
	.st0{fill:#FFF100;}
</style>
<g>
	<g id="_圖層_2">
		<g id="_圖層_1-2">
			<g>
				<g>
					<path class="st0" d="M46,71c0,0.4-2.5,1.9-6.8,1.9h-1.5v-9.7c-4,1.5-9,3.3-15.2,5.3c-0.4,0.8-1.1,1.3-1.8,1.4L17,61
						c1.3-0.1,3.1-0.1,5.3-0.2V41h-5.8L16,39.4h44.5l2.7-3.8c-1.5,0.5-4.3,1.2-6.3,1.2h-1.5V21.2H32.9v14.3c0,0.8-3.9,2.6-7.4,2.6
						h-1.2V16.1l9.1,3.5h21.4l3.8-4.2l7.9,5.9c-0.4,0.5-1.1,1.1-2.4,1.3v11.7l0.7-0.9c0,0,4.9,4,7.7,6.7c-0.2,0.7-0.8,1-1.8,1H46
						C46,41,46,71,46,71z M30.4,41.1v5.2h7.3v-5.2C37.8,41.1,30.4,41.1,30.4,41.1z M30.4,53.3h7.3V48h-7.3
						C30.4,48,30.4,53.3,30.4,53.3z M30.4,60.3c2.3-0.1,4.8-0.3,7.3-0.5V55h-7.3C30.4,55,30.4,60.3,30.4,60.3z M49.5,22.8
						c0,0,3,2.2,5,3.9c-0.2,0.7-0.7,1-1.6,1H35L34.5,26h12.3L49.5,22.8L49.5,22.8z M34.5,32.2h12.3l2.7-3.1c0,0,3,2.2,5,3.9
						c-0.2,0.7-0.7,1-1.6,1H35L34.5,32.2L34.5,32.2z M71.4,48.1c-0.4,0.7-0.8,0.9-2.2,1.1c-1.3,4.3-3.3,8.3-6.2,11.9
						c3.4,1.4,7.1,2.4,10.9,3.1v0.7c-3.5,0.9-5.9,3.7-7,7.9c-3.8-1.8-6.9-3.7-9.5-6.2c-3.2,2.5-7.1,4.6-11.7,6.2l-0.4-0.6
						c3.6-2.6,6.5-5.9,8.7-9.6c-2.5-3.7-4.2-8.3-5.4-14.7h-2.1l-0.5-1.7H59l4.5-4.6L71.4,48.1L71.4,48.1z M49.7,47.9
						c1.6,4.1,4,7.2,7,9.5c1.3-3.1,2.2-6.3,2.8-9.5H49.7L49.7,47.9z"/>
					<path class="st0" d="M123.9,20.1c0,0,5.4,4,8.8,6.8c-0.2,0.7-0.9,1-1.8,1h-28.5c-1.3,2.5-2.9,5-4.7,7.4l2.5,0.8h14.2l4-4.5
						l8.2,6.3c-0.4,0.6-1.3,1.2-2.7,1.5v23.6c0,5.7-1.3,8.9-10.9,9.7c-0.2-2.9-0.5-5-1.6-6.3s-2.3-2.3-5.6-2.9v-0.7
						c0,0,6.5,0.4,7.9,0.4c1,0,1.2-0.4,1.2-1.2v-6H98.4c-1,6.2-4,12.6-12.7,17l-0.4-0.4c4.4-6.7,4.6-15.5,4.6-23.5v-5
						c-3.7,3.3-8,6.2-12.9,8.5l-0.5-0.5c7.5-6.4,12.9-15.3,16.5-24.1H77.6l-0.5-1.7h16.5c1.4-3.9,2.5-7.6,3.3-11.1l11.7,3.3
						c-0.2,0.7-0.7,1.2-2.3,1.3c-0.8,2.1-1.8,4.3-3,6.5h15.8L123.9,20.1L123.9,20.1z M115,54.1v-7.5H98.8v2.2c0,1.7-0.1,3.5-0.2,5.3
						H115z M98.8,37.7v7.2H115v-7.2H98.8z"/>
					<path class="st0" d="M186.9,31.9c0,0,4.7,3.6,7.4,6.1c-0.1,0.7-0.8,1-1.7,1h-35.7l-0.5-1.6c-1,0.3-2.2,0-3.4-1.2
						c0.1-2.5-0.5-5.5-1.4-7.9v42.2c0,0.7-3.4,2.3-6.6,2.3h-1.6V38c-0.2,1.6-0.6,3-1.2,3.9c-1.3,2-4.5,2.2-5.8,0.2
						c-1.1-1.8-0.4-3.8,1.3-5.1c1.4-1.8,3.1-6.4,2.6-10.4h0.9c1.4,3.1,2.1,5.9,2.3,8.3V15.3l10.5,1c-0.1,0.9-0.5,1.5-2.2,1.8v8.1
						c9,3.9,8,10,5,11h12.8v-5.7h-9.2l-0.5-1.7h9.7v-5.4h-11.1l-0.5-1.7h11.6v-7.4l10.4,0.9c-0.1,0.8-0.5,1.3-2,1.6v5h3.6l4.1-5.3
						c0,0,4.6,3.6,7.3,6c-0.2,0.7-0.9,1-1.7,1h-13.3v5.4h2.4l3.8-4.9c0,0,4.2,3.3,6.8,5.6c-0.2,0.7-0.8,1-1.7,1h-11.2v5.7h5
						L186.9,31.9L186.9,31.9z M183.2,39.3l7.7,5.8c-0.4,0.5-1.1,1-2.4,1.3v16.8c0,5.1-1.1,8-9.6,8.7c-0.2-2.5-0.4-4.3-1.2-5.5
						c-0.8-1.2-1.8-2-4.5-2.5v-0.8c0,0,4.9,0.3,6.1,0.3c0.9,0,1.1-0.4,1.1-1.1v-3.8h-12.3c-0.5,5.3-2.8,10.6-11.7,14.3l-0.4-0.5
						c4-4.7,4.2-11,4.2-17.2V40.1l9.4,3.2h10.3L183.2,39.3L183.2,39.3z M180.3,56.8v-5.1h-12.1V55c0,0.6,0,1.2-0.1,1.8L180.3,56.8
						L180.3,56.8z M168.1,45v5h12.1v-5H168.1z"/>
					<path class="st0" d="M252.3,63.7c1.9,4.5,2.3,7.3,0.9,8.2c-3.8,2.7-9.1-0.9-11.2-3.8c-3.6-5-6-10.5-7.6-16.6
						c-2.5,1.3-5.2,2.3-8,3.1L226,54c2.7-1.7,5.3-3.9,7.6-6.4c-1-4.8-1.6-9.9-1.9-15.1c-0.3,0.2-0.7,0.3-1.2,0.3h-21.1l-0.5-1.7
						h12.6l3.8-4.8c0,0,3.8,2.9,6.4,5.1c-0.1-2.1-0.2-4.2-0.2-6.4h-23.3v11.1c0,10.5-0.4,26.3-10.8,36.5l-0.6-0.4
						c3.8-11,3.8-24.9,3.8-36.1V20.3l8.8,3.1h22.1c-0.1-2.7-0.1-5.4-0.1-8.2l9.6,1c-0.1-0.3-0.2-0.6-0.3-0.9l0.6-0.2
						c4.8,1,6.3,3,6,4.5l0.9-1.3c0,0,3.9,3.5,6.2,5.7c-0.2,0.7-0.8,1-1.6,1h-13c0,4.4,0.1,8.8,0.5,13c1.4-2.8,2.6-5.9,3.4-9.2
						l10.1,4c-0.4,0.8-1.1,1.3-2.5,1.1c-2.6,5.6-5.8,9.7-9.5,12.9c1.2,5.1,3.1,9.7,6.1,13.2c0.7,1,1.1,1,1.7-0.1
						c1-1.6,2.7-4.8,3.9-7.5l0.6,0.1L252.3,63.7L252.3,63.7z M208.6,55.2c2.5,5.9,2.2,10.5,0.4,12.5c-1.3,1.4-4.3,1.3-5.3-0.7
						c-0.9-1.9,0.1-3.7,1.9-4.8c1.2-1.3,2.6-4.5,2.1-7H208.6L208.6,55.2z M217.7,49.6c0,0.6-3.3,2.2-6.4,2.2h-1v-18l7.7,3h4.1
						l3.3-3.5l6.8,5c-0.2,0.4-0.9,0.8-1.9,1v9c-0.1,0.4-3.9,1.7-6.3,1.7h-1.3v-2.6h-4.8L217.7,49.6L217.7,49.6z M228.8,64.3
						c1.6,0.7,1.9,1.4,1.9,2.6c0,2.5-2.3,4-9.4,4h-4.1c-5,0-5.7-1.3-5.7-5.3V52.7l8,0.7c-0.1,0.8-0.7,1.3-1.8,1.5v9
						c0,0.7,0.2,0.8,1.3,0.8h2.9c1.2,0,2.1,0,2.5-0.1c0.6,0,0.8-0.1,1.1-0.7c0.5-0.9,1.3-3.5,2.3-6.7h0.7L228.8,64.3L228.8,64.3z
						 M217.7,38.6v7.3h4.8v-7.3C222.5,38.6,217.7,38.6,217.7,38.6z M219.4,50.5c12.4,5.2,5.3,14.6,0.7,9.6c0.4-3.1-0.3-6.8-1.4-9.3
						L219.4,50.5L219.4,50.5z M229.4,54.1c13,6.8,6.6,17.1,1.8,12.1c0.1-3.9-1.1-8.5-2.5-11.8L229.4,54.1z M246.1,21.3
						c-1.3,0.8-3.2,0.9-4.7-0.7c0.1-1,0.1-2.1-0.1-3.1c-0.4,0.2-0.9,0.4-1.5,0.5c-0.1,1.8-0.1,3.6-0.1,5.4h5L246.1,21.3L246.1,21.3z
						"/>
					<path class="st0" d="M315.1,29.1c-0.5,0.6-1.3,1-2.7,1.3c-0.4,25.4-1.1,35.2-4.7,38.9c-2.4,2.4-5.1,3.4-9.7,3.4
						c0-2.8-0.4-4.8-1.5-6.1c-1.1-1.3-3.4-2.4-6.5-3.1l0.1-0.7c2.9,0.2,7,0.5,8.6,0.5c1,0,1.6-0.2,2.2-0.8
						c2.2-1.9,2.7-13.1,3.1-33.6h-9.3c-3.1,5.2-6.8,9.4-11.1,12.8l-0.4-0.2v24.5c-0.1,0.6-4,2.2-6.8,2.2h-1.3v-4.8h-7.4v4.2
						c0,0.9-3.1,2.8-6.6,2.8h-1.3V24l7.6,3.1c0.3-3.4,0.5-8.2,0.7-11.6l11.7,2.8c-0.3,1.1-1.1,1.5-2.6,1.5c-1.8,2.1-4.5,5.1-6.7,7.5
						h4l3.8-4.2l7.4,5.9c-0.4,0.5-1.2,1-2.4,1.3v10.1c2.8-6.4,5.8-16.1,7.1-25l11.2,3.3c-0.2,0.8-1,1.3-2.4,1.3
						c-1,2.5-2.2,4.9-3.5,7.1h7.6l4.5-4.6L315.1,29.1L315.1,29.1z M267.7,29.1v15h7.4v-15H267.7z M275.1,61.6V45.8h-7.4v15.8H275.1z
						 M287.6,39.4c19.1,4.4,11,19.2,3.5,12.8c-0.1-4.3-1.9-9.1-4-12.5L287.6,39.4L287.6,39.4z"/>
					<path class="st0" d="M338,42.8c-0.2,0.6-0.8,1-1.9,1.2v26.2c-0.1,0.6-3.8,2.3-7.2,2.3h-1.7V50.1c-2.8,2.2-5.9,4.1-9.2,5.8
						l-0.5-0.5c7.7-6.8,13.1-16.3,16.6-25.6h-14.7l-0.5-1.7h15.8c1.6-4.5,2.8-8.9,3.6-12.9l12.2,3.1c-0.2,0.7-0.7,1.3-2.3,1.4
						c-1,2.7-2.2,5.6-3.6,8.5h16.3l4.9-6.2c0,0,5.5,4.2,8.8,7c-0.2,0.7-0.9,1-1.8,1h-29.1c-2.2,4.2-4.8,8.3-8.1,12.2L338,42.8
						L338,42.8z M366.8,61.1c0,0,5.2,3.9,8.4,6.6c-0.2,0.7-0.9,1-1.8,1h-36.3l-0.5-1.7h12.3V48.4h-10.3l-0.5-1.7h10.8V32.3l10.8,0.9
						c-0.1,0.8-0.5,1.3-1.9,1.6v11.9h1.6l4.3-5.4c0,0,4.8,3.6,7.7,6.2c-0.1,0.7-0.9,1-1.7,1h-12v18.6h4.4L366.8,61.1L366.8,61.1z"/>
					<path class="st0" d="M432.6,62.4c2.5,1,3.3,1.9,3.3,3.3c0,3.8-3.5,5.1-16.8,5.1h-7.9c-7.8,0-10.6-1.3-10.6-7.6V51.9
						c-3.4,2.9-8.6,7-16.6,12.1c-0.3,0.9-0.9,1.5-1.7,1.8l-4.6-9.7c1.5-0.2,3.9-0.7,6.8-1.3V34.6h-6l-0.5-1.7h6.5V16.5l10.5,0.9
						c-0.1,0.9-0.5,1.5-2.2,1.8v13.8h0.6l3.1-5.6c0,0,2.2,2.4,4,4.7v-7.8l10.2,1c-0.1,0.8-0.7,1.5-2.1,1.6v9.2l3.6-1.6V15.3l10.2,1
						c-0.1,0.9-0.5,1.5-2.2,1.7V31l4.7-2.1l3.6-3.7l6.6,7c-0.5,0.5-1.1,0.8-2.5,0.9c-1.7,6.6-4.9,16.3-9,22.6l-0.6-0.4
						c1-7.7,1.5-17.6,1.5-24.4l-4.4,1.9v23.8c0,0.7-3.5,2.4-6.5,2.4h-1.5V36.3l-3.6,1.6v23.2c0,1.7,0.9,2.2,3.6,2.2h7.6
						c2.5,0,4.7-0.1,5.9-0.1c1-0.1,1.8-0.3,2.4-1c0.9-1.2,2.1-4.1,3.6-8.2h0.6L432.6,62.4L432.6,62.4z M392.9,52.8
						c2.5-0.6,5.1-1.2,7.7-1.9v-9.5l-5,2.2l-1.1-1.3l6.2-2.7v-5h-7.7L392.9,52.8L392.9,52.8z"/>
					<path class="st0" d="M486.1,40.9c-0.4,7.4-0.8,13.1-1.5,17.4h0.5l3.6-5.4c0,0,4.2,3.7,6.5,6.1c-0.2,0.7-0.8,1-1.6,1h-9.3
						c-0.9,4.8-2,7.8-3.7,9.5c-2.6,2.7-5.8,3.2-10.8,3.2c0-2.4-0.4-4-1.6-5.1c-1.3-1.3-3.6-2.3-7-3l0.1-0.7c3.2,0.2,7.6,0.5,9.4,0.5
						c1.1,0,1.8-0.3,2.6-1c0.7-0.5,1.2-1.7,1.6-3.4h-22.6l-2.8,3.7l-7.9-4.2c0.5-0.5,1.2-1,1.9-1.5c0.9-4.3,1.9-10.6,2.7-17.1h-7.4
						l-0.5-1.7h8.2c1-8.5,1.9-17.4,2.2-22.9l10,4.3h18.3l4.8-5l7.6,6.9c-0.5,0.6-1.4,1.1-3,1.3c-0.2,5.7-0.3,10.8-0.5,15.2h0.4
						l3.8-5.7c0,0,4.2,3.9,6.6,6.4c-0.1,0.7-0.8,1-1.6,1L486.1,40.9L486.1,40.9z M475.5,58.3c0.9-3.8,1.4-9.7,1.8-17.4h-22.4
						c-0.9,6.3-1.8,12.8-2.5,17.4H475.5z M457.2,22.4c-0.5,4.4-1.2,10.5-2.1,16.9h22.3c0.2-4.9,0.4-10.5,0.6-16.9L457.2,22.4
						L457.2,22.4z M460.1,42.6c19.6,3.3,12.2,18.6,4.7,12.6c-0.3-4.3-2.5-9.1-5.1-12.2L460.1,42.6L460.1,42.6z M460.5,24.2
						c19.5,2.2,12.8,17.4,5.1,11.9c-0.4-4.1-2.8-8.6-5.6-11.5L460.5,24.2L460.5,24.2z"/>
					<path class="st0" d="M542.1,30.2c21,4.4,15.1,20.2,7.1,15.3c-1.2,3.8-2.8,8.4-7.1,13.2c4.6,2.8,10,4.6,15.7,5.9l-0.1,0.7
						c-3.4,0.7-5.7,3.3-6.9,7.2c-5.4-2.4-9.7-5.3-13.2-9.5c-4.4,3.5-10.7,6.9-19.7,9.9l-0.5-0.8c8-4.7,13.3-9.5,16.8-14
						c-2.1-3.8-3.6-8.4-4.7-14.2c-2.6,2.7-5.5,4.8-8.7,6.5l-0.6-0.5c1.1-1.6,2.2-3.6,3.1-5.7c-1.3,1.4-3.7,1.8-5.9-0.1
						c-0.1-2-0.5-4.1-1.3-6v32.2c0,0.7-3.5,2.5-6.6,2.5h-1.6V49.5c-2.4,3.3-5.3,6.4-8.6,9.1l-0.7-0.6c4.4-7,7-16.8,8.2-26.1h-7.1
						l-0.5-1.7h8.6v-15l10.5,1c-0.1,0.9-0.5,1.5-2.2,1.8v11l2.4-3.6c0,0,3.8,3.3,5.9,5.6c-0.2,0.7-0.8,1-1.6,1h-6.7v3.3
						c6.4,1.5,8.5,4.5,8.3,6.8c1.6-3.8,3-8.1,3.9-12.5l10.4,4c-0.3,0.8-1.1,1.2-2.5,1.1c-1.9,3.6-4,6.6-6.6,9.1l0.7-0.3
						c1.3,4.5,3.6,8.1,6.3,11c3.1-5.2,4.1-10,4.5-14.2l6.8,2.2c-1.3-4.3-3.9-8.8-6.5-12L542.1,30.2L542.1,30.2z M522,27.1h15.1
						c-0.7-0.2-1.5-0.6-2.2-1.2c-0.1-3.7-1.8-7.6-3.6-10.2l0.4-0.3c14.2,1.6,13.1,10.1,8.4,11.7h4.8l4.2-5.7c0,0,4.8,3.8,7.7,6.4
						c-0.2,0.7-0.8,1-1.7,1h-32.8L522,27.1L522,27.1z"/>
					<path class="st0" d="M39.7,109.4c-2,1.9-4.7,4.3-8.2,7.3v19c0,5.7-1.1,8.6-9.7,9.4c-0.2-2.7-0.4-4.6-1.2-5.9
						c-0.8-1.2-1.8-2.1-4.5-2.7v-0.8c0,0,5,0.3,6.1,0.3c0.8,0,1-0.2,1-0.9v-12l-1.9,1.4c-0.2,0.8-0.8,1.6-1.5,1.9l-4.7-9.2
						c1.8-0.5,4.6-1.4,8.1-2.6v-10.8l4.3,0.4c1-3,2.2-7,2.9-9.8H15.8l-0.5-1.7h14.9l4.3-4.2l7.2,6.3c-0.5,0.5-1.1,0.7-2.4,0.8
						c-2.5,2.5-6,6.1-9.4,8.7l3.8,0.4c-0.1,0.9-0.7,1.4-2.1,1.6v5.4c2.6-0.9,5.3-1.9,8-2.9C39.5,108.8,39.7,109.4,39.7,109.4z
						 M34.1,144.8c12.3-6.1,22.4-14.8,29.7-29.5l9.8,5.3c-0.5,0.7-1.2,1-2.7,0.7c-3,4.1-6.2,7.6-9.6,10.6c17.5,3,11.7,16.9,4.1,12.1
						c-1.2-3.6-3.5-7.6-5.8-10.6c-7.3,5.9-15.5,9.7-25.1,12.2L34.1,144.8L34.1,144.8z M53.7,98.4c-0.8-0.2-1.7-0.5-2.5-1.2
						c-0.2-3.3-1.8-6.8-3.5-9.1l0.4-0.3c14.3,0.8,12.7,9.5,7.7,10.6h6.8l4-5.5c0,0,4.5,3.8,7.2,6.2c-0.2,0.7-0.8,1-1.7,1H49.5
						l9.2,2.8c-0.2,0.6-0.8,1.2-2.1,1.2c-3.1,2.8-7.9,6.1-12.3,8.2c3,0.1,6.8,0.1,10.8,0c1.4-2.2,2.7-4.7,3.9-7.2l9.5,5
						c-0.4,0.7-1.2,0.9-2.6,0.7c-8.3,11.2-18.3,18.1-30.9,22.4l-0.4-0.8c7.1-4.3,13.1-9.7,18.2-16.8c-3,1-6.4,2.2-10.2,3.4
						c-0.7,1-1.5,1.6-2.2,1.8L38,112c0,0,1.4-0.3,2.1-0.7c2.9-1.7,6.7-7.8,8-11.3H37.7l-0.5-1.7L53.7,98.4L53.7,98.4z"/>
					<path class="st0" d="M124,109.3c0,0,5.6,4.2,9,7c-0.2,0.7-0.9,1-1.8,1h-21.8v17.8c0,6-1.6,9.3-12.3,10.2c-0.4-3-0.8-5-2.3-6.4
						c-1.4-1.4-3.1-2.4-7.4-3.1v-0.7c0,0,9.6,0.5,11.4,0.5c1,0,1.4-0.4,1.4-1.1v-17.2H77l-0.5-1.7h23.6v-10.8l7.5,0.7
						c2.8-3,5.9-6.9,7.9-9.8H83.3L82.7,94h33.1l5-4.7l8.1,7c-0.5,0.6-1.2,0.8-2.5,0.9c-4.5,2.8-10.4,6.1-16,8.5l1,0.1
						c-0.1,0.9-0.7,1.4-2.1,1.6v8.2h9.7L124,109.3L124,109.3z"/>
					<path class="st0" d="M191.6,135.5c2.4,4.3,2.7,6.6,1.4,7.7c-3.5,3.1-9.4,0-12.2-2.7c-2.2-2.2-4.1-4.5-5.7-7.1
						c-4.9,4.6-11.1,8.5-19,11.2l-0.4-0.7c6.9-4.2,12.3-9.9,16.3-16.1c-3.6-7.7-5.3-16.4-6-25.8h-15.5v9.4h5.4l4.1-3.9l6.9,5.8
						c-0.4,0.5-1.1,0.9-2.4,1.1c-0.4,13.4-1.1,17.6-4,19.8c-1.8,1.3-4.1,2-7.3,2c0-2.4-0.1-4.2-0.9-5.3c-0.7-1.1-1.8-1.8-3.6-2.4
						v-0.3c-1.8,6.4-5.4,12.6-12.8,17.2l-0.4-0.4c5.7-9.4,6.1-21.5,6.1-31.8V97l10,3.4H166c-0.2-4.1-0.4-8.3-0.4-12.5l10.8,1
						c-0.1,0.8-0.6,1.5-2.2,1.8c-0.1,3.2-0.1,6.5,0.1,9.7h6.6l2.1-2.6c-0.4-0.1-0.9-0.2-1.3-0.5c-0.9-2.8-3.2-5.8-5.3-7.5l0.4-0.4
						c10.8-1.3,12.6,4,10.5,6.8c1.8,1.4,4.3,3.3,6.1,4.9c-0.2,0.7-0.9,1-1.8,1h-17.4c0.4,5.6,1.1,11,2.8,15.9
						c1.6-3.8,2.7-7.6,3.6-11.3l11.1,3.8c-0.2,0.7-0.8,1.2-2.4,1.2c-2,5.1-4.7,10.2-8.2,15.1c1.4,2.1,3,4,5,5.7
						c0.9,0.9,1.3,0.9,2.1-0.1c1.1-1.6,3.1-5,4.4-7.7l0.5,0.2L191.6,135.5L191.6,135.5z M150.6,113.3v0.1c0,4.3-0.2,9.5-1.5,14.6
						c1.2,0.1,3.3,0.2,4.3,0.2c0.8,0,1.2-0.1,1.6-0.4c1-0.9,1.4-5,1.6-14.4H150.6L150.6,113.3z"/>
					<path class="st0" d="M246.8,112.5c0,0,4.5,3.4,7.1,5.8c-0.2,0.7-0.9,1-1.7,1H225c1.8,3.8,4.4,6.9,7.7,9.4
						c2.5-3.3,5.1-7.1,6.6-9.4l8.6,5.6c-0.3,0.5-0.9,0.5-1.9,0.3c-2.5,1.4-6.8,3.5-10.8,5.2c5,3,11,4.7,17.5,5.4l-0.1,0.7
						c-3.2,1-5.8,4-6.5,8.3c-12.6-3.9-19-11.2-22.2-25.5h-7.4v16.6c3-0.5,6.4-1.1,9.8-1.7l0.1,0.6c-2.8,2.2-8.3,6.1-15.4,10.1
						c-0.3,0.4-0.7,0.6-1,0.8l-5-8.5c2.8-1.5,3.2-2.2,3.2-3.5v-14.4H198l-0.5-1.7h11.7V89.4l9.4,3.4h17.9l4.1-5c0,0,4.5,3.3,7.3,5.7
						c-0.2,0.7-0.9,1-1.7,1h-28.5v6.6h16.9l3.5-4.5c0,0,4,3,6.4,5.2c-0.1,0.7-0.8,1-1.6,1h-25.2v6.8h17.1l3.5-4.5c0,0,4,3,6.4,5.2
						c-0.1,0.7-0.8,1-1.6,1h-25.3v6.3h25.3L246.8,112.5L246.8,112.5z"/>
					<path class="st0" d="M315.1,101.6c-0.5,0.6-1.3,1-2.7,1.3c-0.4,25.4-1.1,35.2-4.7,38.9c-2.4,2.4-5.1,3.4-9.7,3.4
						c0-2.8-0.4-4.8-1.5-6.1c-1.1-1.3-3.4-2.4-6.5-3.1l0.1-0.7c2.9,0.2,7,0.5,8.6,0.5c1,0,1.6-0.2,2.2-0.8
						c2.2-1.9,2.7-13.1,3.1-33.6h-9.3c-3.1,5.2-6.8,9.4-11.1,12.8l-0.4-0.2v24.5c-0.1,0.5-4,2.2-6.8,2.2h-1.3v-4.8h-7.4v4.2
						c0,0.9-3.1,2.8-6.6,2.8h-1.3V96.6l7.6,3.1c0.3-3.4,0.5-8.2,0.7-11.6l11.7,2.8c-0.3,1.1-1.1,1.5-2.6,1.5
						c-1.8,2.1-4.5,5.1-6.7,7.5h4l3.8-4.2l7.4,5.9c-0.4,0.5-1.2,1-2.4,1.3v10.1c2.8-6.4,5.8-16.2,7.1-25l11.2,3.3
						c-0.2,0.8-1,1.3-2.4,1.3c-1,2.5-2.2,4.9-3.5,7.1h7.6l4.5-4.6L315.1,101.6L315.1,101.6z M267.7,101.6v15h7.4v-15H267.7z
						 M275.1,134.2v-15.8h-7.4v15.8H275.1z M287.6,112c19.1,4.4,11,19.2,3.5,12.8c-0.1-4.3-1.9-9.1-4-12.5L287.6,112L287.6,112z"/>
					<path class="st0" d="M368.7,90.3c0,0,4.2,3.3,6.8,5.6c-0.1,0.7-0.8,1-1.6,1h-18.6c-3.3,3.6-7.3,6.2-11.5,7.9l-0.6-0.5
						c1.6-2.1,3.1-4.8,4.4-7.9c-0.3,0.3-0.7,0.4-1.3,0.4h-14.8c-3.9,4.7-8.4,7.9-13.2,10.1l-0.6-0.5c3.4-4.5,6.7-11.6,8.4-18.9
						l11.1,3.4c-0.2,0.8-1,1.3-2.4,1.3c-0.6,1-1.3,2.1-1.9,3h5.6l3.4-4.7c0,0,3.8,3.1,6.1,5.3c1.1-2.6,2-5.5,2.7-8.4l10.6,4.1
						c-0.3,0.8-1.1,1.3-2.5,1.2c-0.6,0.9-1.2,1.8-1.8,2.5h8.1L368.7,90.3L368.7,90.3z M366.7,120.7l7.3,5.9
						c-0.5,0.5-1.1,0.9-2.4,1.1c-0.7,7-1.9,10.6-4.8,12.3c-1.9,1.1-4.2,1.7-7.9,1.7c0.1-2.3-0.2-4.4-1.1-5.5s-2.7-2.1-5.1-2.6V133
						c2.1,0.1,5.6,0.3,6.8,0.3c0.9,0,1.3-0.1,1.6-0.4c0.8-0.5,1.4-2.9,1.8-6.7h-11.7v17c-0.1,0.5-2.7,2.1-7.3,2.1h-1.7v-12.1
						c-5.9,4.8-14,8.2-24,10.3l-0.4-0.7c9-3.8,15.7-9.9,19.4-16.6h-5.6l-2.7,3.4l-7.4-4.1c0.5-0.5,1.2-1,2-1.5
						c0.9-3.6,1.9-9.5,2.2-12.6l9.4,4.2h7.1v-7.3H323l-0.5-1.7h37.2l1.5-1.5c-1.1,0.2-2.5-0.1-3.8-1c0-2.2-1-4.6-2.2-5.9l0.5-0.3
						c7.8-0.1,9.4,3,8.3,5.3l7.1,5.2c-0.3,0.4-1,1-2.1,1.2v8.7c-0.1,0.5-4.2,2.2-7.1,2.2h-1.5v-3.1h-9.1v7.1h11.2L366.7,120.7
						L366.7,120.7z M342.2,124.5v-7.1h-9c-0.4,2.2-1,5-1.5,7.1H342.2L342.2,124.5z M333.3,97.8c14.1,0.9,7.3,11.2,1.7,6.8
						c0-2.4-1.1-5-2.2-6.5L333.3,97.8L333.3,97.8z M351.2,115.7h9.1v-7.3h-9.1V115.7z"/>
					<path class="st0" d="M420.5,114.3l5.6-8c0,0,6.3,5.5,9.9,8.9c-0.2,0.7-0.9,1-1.9,1h-55l-0.5-1.9L420.5,114.3L420.5,114.3z"/>
					<path class="st0" d="M465.2,108.3c-0.2,0.8-0.9,1.4-2.4,1.4c-1.9,5.6-5,13.7-8.5,20.9c3-0.5,6.1-1.1,9.2-1.8l0.1,0.6
						c-3.9,2.7-10.1,6.6-19.4,11.6c-0.3,0.8-0.9,1.4-1.7,1.6l-4-9.2c2.6-0.4,7.6-1.3,13.4-2.4c1.1-8.2,2.1-18.3,2.7-25.5
						L465.2,108.3L465.2,108.3z M439.2,104.1l-0.5-1.7h17.4l3.9-6.2c0,0,4.4,4.2,6.8,6.9c-0.2,0.7-0.9,1-1.7,1L439.2,104.1
						L439.2,104.1z M442,106.6c17.7,14.8,5.4,28.2,1.1,20.1c0.4-5,0.5-13.4-1.9-19.8L442,106.6L442,106.6z M445.2,87.8
						c18.7,4.3,10,18.3,2.7,11.8c-0.2-4.1-1.7-8.3-3.2-11.6L445.2,87.8L445.2,87.8z M489.1,97.8c0,0,4.7,3.8,7.4,6.4
						c-0.1,0.7-0.8,1-1.7,1h-12.5v11.7h1l4.1-4.7l7.4,5.8c-0.4,0.5-1,1-2.4,1.3v23.5c0,0.4-2.7,1.9-7.2,1.9h-1.6v-5h-11.1v3.6
						c0,0.6-2.5,2-6.8,2h-1.5v-31.8l9,3.3h0.7v-29l10.6,0.9c-0.1,0.8-0.5,1.4-2.2,1.7v13h2.7L489.1,97.8L489.1,97.8z M472.4,118.5
						V138h11.1v-19.5C483.6,118.5,472.4,118.5,472.4,118.5z"/>
					<path class="st0" d="M514.3,102.1c16.2,3.1,9.1,15.3,2.8,10.1c-0.1-3.4-1.6-7.3-3.3-9.8L514.3,102.1L514.3,102.1z M529.4,102.5
						c-1.5,6.2-4,17.7-4.5,20.6c-0.4,1.9-0.7,4-0.6,5.4c0.2,3.5,2.9,5.6,2.7,11.3c-0.1,3.2-2.4,5.3-5.5,5.3c-1.4,0-3.1-0.8-3.6-3.2
						c1.2-6.5,1-12.6-0.4-13.6c-0.8-0.6-1.8-0.9-3.1-1v-1.1h2.6c0.9,0,1.2,0,1.8-1.2c0.8-1.4,4-9,9.6-22.7L529.4,102.5L529.4,102.5z
						 M517.6,88.3c17.3,2.7,10.5,15.6,3.7,10.5c-0.5-3.6-2.5-7.5-4.2-10.2L517.6,88.3z M571.6,94.4c-0.4,0.5-1.2,1-2.3,1.2v40.9
						c0,5.2-1,8-8.9,8.7c-0.1-2.5-0.4-4.4-1-5.4c-0.7-1.1-1.6-1.9-4-2.4v-0.8c0,0,4.2,0.2,5.2,0.2c0.9,0,1.1-0.4,1.1-1.1v-14.6h-3.6
						c-0.7,9.1-3.3,17.9-14.1,24.1l-0.6-0.5c3.2-3.7,5.1-7.9,6.3-12.3H543v10.9c-0.1,0.3-2.2,1.5-6,1.5h-1.3v-12.5h-8.6l-0.5-1.7
						h9.1V124c-1.1,0.6-2.9,1.2-4.7,1.2h-1v-22.7l5.8,2.3v-5.9h-6.3l-0.5-1.7h6.8v-8.7l9,0.8c-0.1,0.7-0.5,1.2-1.7,1.4v6.5h0.1
						l3.1-5c0,0,3,2.9,5,5.1v-7.4l8.1,2.9h1.7l3.5-3.9L571.6,94.4L571.6,94.4z M541.9,107h-5.3v6.6h5.3V107z M536.7,122h5.3v-6.7
						h-5.3V122z M546,125.6c0,0,2.3,2.3,4.2,4.3c0.9-4.8,1.1-10.1,1.1-15.5V98.6c-0.3,0.2-0.7,0.2-1.1,0.2H543v6.4l2.8-3.1l5.1,5.1
						c-0.4,0.5-1.3,0.8-2.2,1v14.6c-0.1,0.3-2.8,1.6-5.6,1.6H543v6.1L546,125.6L546,125.6z M561.7,119.5v-11.8h-3.5v6.8
						c0,1.7,0,3.4-0.1,5.1H561.7z M558.3,94.4v11.5h3.5V94.4H558.3z"/>
					<path class="st0" d="M623.4,104.9c0,0,5.2,4,8.3,6.7c-0.2,0.7-0.9,1-1.8,1h-54l-0.5-1.7h31.3c1.5-3.8,2.9-8.9,3.8-12.8h-19.9
						c16,4.5,7.6,17.1,0.7,10.9c-0.1-3.9-1.3-7.8-2.8-10.9h-9.9l-0.5-1.7h24.2c-0.7-0.2-1.4-0.5-2.1-1c-0.3-2.8-1.8-5.8-3.1-7.5
						l0.4-0.3c13.8-0.5,12.3,7.5,7.6,8.8h12l4.4-5.8c0,0,5,3.9,8,6.5c-0.2,0.7-0.8,1-1.8,1h-15.2l9.3,2.8c-0.2,0.7-0.9,1.2-2.3,1.1
						c-2.8,2.5-7.4,6.2-11.5,8.8h10.9C618.9,110.9,623.4,104.9,623.4,104.9z M615.9,114.2l8.3,6.4c-0.4,0.5-1.2,1.1-2.5,1.4V142
						c-0.1,0.7-4.3,2.8-7.7,2.8h-1.6v-4.4h-18.1v1.9c0,0.9-3.8,2.8-7.5,2.8h-1.3v-30.1l9.2,3.6h16.9L615.9,114.2L615.9,114.2z
						 M594.3,120.4v8.2h18.1v-8.2C612.4,120.4,594.3,120.4,594.3,120.4z M612.4,138.8v-8.5h-18.1v8.5H612.4z"/>
					<path class="st0" d="M692.4,94.1c-0.4,0.5-1.2,1-2.4,1.3v47.1c-0.1,0.6-3.9,2.5-7,2.5h-1.3v-4.8h-36v2.1c0,1-3.3,3-6.7,3h-1.3
						V88.9l8.7,3.4h34.7l3.8-4.2L692.4,94.1L692.4,94.1z M681.8,138.5v-27.9c-0.4,0.4-1.2,0.5-2.1,0.4c-1.8,4.9-4,9-6.5,12.5
						c0.7,1.3,1.5,2.5,2.4,3.6c0.6,0.8,0.9,0.7,1.4-0.1c0.8-1.3,1.9-3.9,2.8-6.1l0.6,0.2l-1,8.5c1.7,3.2,2,5,1,6
						c-2.6,2.5-6.9,0.2-8.8-1.9c-1.3-1.5-2.4-3.1-3.3-4.8c-4,3.6-8.7,6.2-14.2,8l-0.5-0.7c4.7-3,9.1-7,12.5-12.1
						c-1.5-4.1-2.4-8.6-2.9-13.4c-0.3,0.1-0.6,0.2-1,0.3v8.8c0,0.5-2.8,1.8-4.8,1.8h-1v-1.8H654v1.1c0,0.4-2.5,1.7-4.8,1.7h-0.8
						v-16.2l5.8,2.4h1.7l2.5-2.6l4.5,3.3c-0.2-1.6-0.3-3.2-0.4-4.8h-15.3l-0.5-1.7h15.7c-0.1-2.6-0.2-5.2-0.2-7.9l9.1,1.5
						c-0.1,0.7-0.7,1.4-2.1,1.5v4.9h3l1.9-2.5c-0.5-2-1.8-4.1-2.9-5.3l0.5-0.4c9,0.2,9.1,5,6.5,6.6c0.9,0.7,1.8,1.5,2.5,2.2
						c-0.2,0.7-0.8,1-1.6,1h-9.9c0.1,3.8,0.4,7.5,1.1,10.9c1.2-2.8,2.2-6,2.8-9.3l8.4,3.6V94.1h-36v44.5L681.8,138.5L681.8,138.5z
						 M663.5,123.5c-2.3,1.9-6,4.7-11.4,8.3c-0.3,0.9-0.9,1.4-1.6,1.6l-3.8-8.3c3-0.2,9.9-1.2,16.8-2.2L663.5,123.5L663.5,123.5z
						 M656.4,110.5H654v7.6h2.4V110.5z"/>
					<path class="st0" d="M718.6,106.1c-0.2,0.7-0.7,1.2-2.3,1.2c-3.6,8.8-9.6,19.7-19.9,26.5l-0.5-0.5c6-8.9,9.5-22.4,10.8-31.5
						L718.6,106.1L718.6,106.1z M731.8,89.8c-0.1,0.9-0.7,1.5-2.2,1.8V135c0,6.1-1.5,9.3-11.8,10.3c-0.2-3-0.7-5.1-2-6.5
						c-1.3-1.4-2.8-2.4-6.7-3.1V135c0,0,8.3,0.4,10,0.4c1,0,1.4-0.4,1.4-1.1V88.8L731.8,89.8z M743.4,129.8c-1-8.9-5-18.6-9.7-26.3
						l0.7-0.4C761.3,116.3,753.7,138.8,743.4,129.8L743.4,129.8z"/>
				</g>
			</g>
		</g>
	</g>
</g>
</svg>
