<?xml version="1.0" encoding="utf-8"?>
<!-- Generator: Adobe Illustrator 27.0.0, SVG Export Plug-In . SVG Version: 6.00 Build 0)  -->
<svg version="1.1" id="圖層_1" xmlns="http://www.w3.org/2000/svg" xmlns:xlink="http://www.w3.org/1999/xlink" x="0px" y="0px"
	 viewBox="0 0 460.3 187.4" style="enable-background:new 0 0 460.3 187.4;" xml:space="preserve">
<style type="text/css">
	.st0{fill:#FFF100;}
</style>
<g>
	<g id="_圖層_2">
		<g id="_圖層_1-2">
			<g>
				<g>
					<path class="st0" d="M137,45.7l6.5-9.2c0,0,7.3,6.4,11.5,10.4c-0.2,0.8-1.1,1.1-2.2,1.1H89l-0.6-2.2L137,45.7L137,45.7z"/>
					<path class="st0" d="M222.3,57.8c0,0,3.9,3.1,6.2,5.2c-0.2,0.8-0.9,1.1-1.8,1.1h-9.3c-0.7,2.2-1.7,4.3-3.4,6.2
						c19.7,4,8.5,13.9,0.5,10.5c-2.1-1.6-5.2-3.3-8.9-5c-5.3,2.2-13,4.1-24.3,5.5l-0.4-1.1c8.5-2.2,14.4-4.4,18.5-6.8
						c-3.9-1.3-8.3-2.5-13-3.4l0.1-0.1c1.1-1.5,2.4-3.6,3.6-5.9h-7.8l-0.6-2h9.5c0.8-1.5,1.5-2.9,2.2-4.3c-1.1,0.9-4.3,2.2-7.3,2.2
						H185V42.5l1.8,0.6v-9.5h-2.2l0.1,0.2c-0.1,0.8-0.8,1.1-1.8,1.1h-6.2v3.4c13.2,6.3,6.2,16.6,1.3,11.5c0.4-2.9-0.3-6.4-1.3-9.2
						v37.9c0,0.9-3.7,3-6.9,3h-1.6V56c-1.9,3.2-4.1,6.2-6.6,9l-0.8-0.8c3.8-8.1,5.8-19,6.9-29.3h-6.1l-0.6-2h7.2V15l11.1,1.1
						c-0.1,1-0.7,1.7-2.6,2v14.6l2.7-4.4c0,0,2,1.9,3.6,3.8l-0.1-0.4h3.8V21.4l9.1,3.5h3.6v-9.5l11.8,1c-0.1,1-0.6,1.7-2.5,2v6.4
						h3.3l3.7-3.9l7.6,5.6c-0.3,0.4-1,0.8-2,1v3l2.2-3.2c0,0,3.2,2.9,5,5c-0.2,0.8-0.8,1.1-1.8,1.1h-5.5v7.1c0,0.3-1,0.9-2.3,1.4
						l7.7,5.7c-0.4,0.4-1.1,0.9-2.2,1.2v6.4c-0.1,0.6-4.4,2.4-7.4,2.4h-1.6v-2h-16l7.1,1.3c-0.2,0.8-0.8,1.6-3.2,1.8
						c-0.6,1-1.2,2.2-2,3.4h6.4c0.4-1.5,0.5-3,0.6-4.6l12,0.9c-0.1,0.9-0.8,1.7-2.4,1.9c-0.1,0.6-0.2,1.2-0.4,1.8h1L222.3,57.8
						L222.3,57.8z M195.5,41.6c0,0.6-2.9,2.2-5.9,2.5l4.7,1.8h5.2v-5.6h-3.9V41.6z M199.4,53.9v-6h-5.7v6H199.4z M193.8,57.4
						l0.7-1.6h-0.7V57.4z M195.5,31.7h3.9v-4.8h-3.9V31.7z M195.5,33.6v4.8h3.9v-4.8C199.4,33.6,195.5,33.6,195.5,33.6z M200.6,64.2
						c-1.1,1.6-2,3.3-3,4.7c2.7,0.1,5,0.2,7.2,0.3c1.4-1.6,2.2-3.3,2.9-5H200.6z M208.7,26.9v4.8h3.9v-4.8H208.7z M212.6,33.6h-3.9
						v4.8h3.9C212.6,38.4,212.6,33.6,212.6,33.6z M218.5,42.3c-1.4,0.5-3,0.9-4.3,0.9h-1.6v-2.9h-3.9V46h6.3L218.5,42.3z
						 M215.7,53.9v-6h-6.9v6H215.7z"/>
					<path class="st0" d="M291.5,54.6c0,0,5.5,4.3,8.8,7.2c-0.1,0.8-0.9,1.1-2,1.1h-25v7.8c0,6.5-1.6,9.9-12.5,10.8
						c-0.2-3-0.6-5.1-1.8-6.6c-1.2-1.3-2.6-2.4-6.4-3.1v-0.8c0,0,7.8,0.5,9.2,0.5c0.9,0,1.2-0.3,1.2-1.1V63H237l-0.6-2h26.7v-6.9
						l8.5,0.7c1.7-1.9,3.6-4.3,5-6.4h-14.4c-8.6,4.4-18.2,8.1-28.6,10.6l-0.4-0.9c6.4-2.7,12.7-6,18.6-9.7h-3.9l-0.6-2h7.5
						c2.9-1.9,5.7-3.9,8.4-6h-29l-0.6-2h22.5V28.2h-16.3l-0.6-2h16.9V15.1l12.4,1c-0.1,0.9-0.6,1.5-2.2,1.8v8.3h2l4.8-6.2
						c0,0,3.7,2.8,6.8,5.4c2.5-2.7,4.6-5.3,6.4-7.8l10.1,7.8c-0.6,0.7-1.4,1-3,0.4c-4.1,4.2-9.1,8.5-14.9,12.7h7.4l4.9-6.4
						c0,0,5.5,4.3,8.9,7.2c-0.2,0.8-1,1.1-2,1.1h-22c-3.1,2-6.3,4.1-9.8,6h11.1l4.9-4.8l8.3,7.8c-0.6,0.6-1.3,0.8-2.9,0.9
						c-3.1,1.6-7.8,3.4-12.1,4.7h0.2c-0.1,1-0.8,1.5-2.3,1.8V61h13.4L291.5,54.6L291.5,54.6z M266.6,28.2V38c4-3.2,7.6-6.5,10.9-9.8
						H266.6z"/>
					<path class="st0" d="M370.8,71.4c1.8,0.9,2.1,1.9,2.1,3.4c0,3-2.5,4.8-9.2,4.8h-3.1c-5.6,0-6.2-1.7-6.2-6.7V56.5h-0.6
						c-1.2,13-7.4,20.9-22.8,24.9l-0.3-0.9c9.5-5.1,12.8-11.7,13.6-20.6c-0.6,0.1-1.3,0.1-2.1,0.1h-1.7v-5.4
						c-0.4,0.2-0.8,0.3-1.4,0.3h-11.3v2.6l0.6-0.2c17.7,6.4,8.7,19.8,1.9,13.1c0.1-4.3-1-9-2.5-12.5v19.5c0,0.9-2.7,4.1-7.4,4.1
						h-1.7V61.2h-0.1c-2,4.6-6.5,10.8-11.2,14.8l-0.7-0.8c2.6-5.5,4.1-13.5,4.5-18.7l7.5,3.1V55h-11.5l-0.6-2h12v-8.4h-9.2l-0.6-2
						h15c0.8-4.3,1.6-10.6,2-14.8l11.2,3.1c-0.3,0.8-1,1.5-2.6,1.4c-2.3,2.9-5.9,7.1-9.4,10.4h2.2l3.9-5.1c0,0,4.5,3.5,7.1,6
						c-0.2,0.8-0.9,1.1-1.9,1.1h-8.8v8.4h1.7l4.1-5.6c0,0,4.1,3.4,6.9,6V16.9l10.1,3.8h7.7l4.7-5.3l8.3,6.6
						c-0.5,0.6-1.2,1.2-2.9,1.5v33.3c0,0.4-2.3,1.8-6.1,2.2v11.8c0,0.8,0.1,1,0.9,1h2.5c0.6,0,0.8-0.1,1.1-0.8
						c0.6-1.1,1.6-4.4,2.8-8.3h0.8L370.8,71.4L370.8,71.4z M308.2,27.7l-0.6-2h19.8l4.3-5.4c0,0,4.8,3.6,7.7,6.2
						c-0.1,0.8-0.9,1.1-1.9,1.1C337.5,27.7,308.2,27.7,308.2,27.7z M311.5,28.5c17.3,5.5,8.8,18.3,2.2,12.1
						c0.1-4.1-1.4-8.5-2.9-11.8L311.5,28.5L311.5,28.5z M316.5,15c18.7,1,9.6,14.6,2.2,8.6c-0.1-3-1.4-6.3-2.7-8.3
						C316,15.4,316.5,15,316.5,15z M349.9,22.6v9.2h8.9v-9.2H349.9z M358.8,43.2v-9.3h-8.9v9.3H358.8z M349.9,45.1v9.5h8.9v-9.5
						H349.9z"/>
					<path class="st0" d="M396.5,41.8c0,12.5-0.8,29.2-16.6,39.6l-0.6-0.4c6.8-11.6,7.3-26.3,7.3-39.2V20.3l9.3,3.1
						c12.6-2,27.6-5.4,35.7-8.2l9,9.1c-0.9,0.7-2.7,0.8-5.1-0.2c-10,1-25.5,1.5-38.9,1v4.8h31.3l4.4-4.8l9.3,6.9
						c-0.4,0.6-1.3,1.2-2.7,1.5v8.3c-0.1,0.6-5.1,2.3-8.5,2.3h-1.8v-2.5L396.5,41.8L396.5,41.8L396.5,41.8z M435.6,45.4
						c0,0,5,3.8,8.1,6.6c-0.2,0.8-1,1.1-2,1.1h-23.7c-0.3,2.3-0.6,4.6-1.2,6.9h10.4l4.9-4.5l8.4,6.9c-0.5,0.6-1.3,1-2.7,1.3
						c-0.8,8.7-2.4,13.3-5.9,15.3c-2.2,1.3-5,2-9.1,2c0-2.7-0.2-5-1.3-6.3s-3-2.4-5.9-3v-0.8c2.5,0.2,6.4,0.4,7.7,0.4
						c1,0,1.5-0.1,2-0.4c1-0.8,1.8-3.8,2.4-8.9h-11.5c-2.7,7.8-9,14.6-25.4,19.5l-0.6-0.8c15.2-8.5,16-17.9,16.3-27.4h-8.8l-0.6-2
						h19c-0.2-0.1-0.4-0.2-0.6-0.3c-0.4-2.8-2.2-5.7-3.5-7.3l0.4-0.3c13.4-1.3,13.2,5.8,9.2,8h9.5L435.6,45.4z M396.5,32v7.8h32V32
						H396.5z"/>
					<path class="st0" d="M76.7,150.5c-0.4,0.6-1.1,1.1-2.7,0.7c-3,1.4-7.1,2.8-11.2,3.9c5.6,3.3,12.5,5,19.5,6.2l-0.1,0.8
						c-4,1-6.7,4.2-7.8,9c-11.5-4.7-19.2-11.2-23-25.4c-2.4,2-5.2,3.9-8.4,5.4v8.6c3.3-0.8,6.9-1.6,10.4-2.5l0.1,0.7
						c-3,2.7-9.1,7.6-16.7,12.7c-0.6,0.8-1.1,1.3-1.8,1.7l-6-9.1c3.5-2,4.1-2.8,4.1-4.3v-4c-5.4,1.7-11.4,2.9-17.8,3.9l-0.3-0.8
						c9.9-3.2,18.3-8.3,23.6-13.7H16.4l-0.6-2h31.1c-0.5-0.2-1-0.4-1.5-0.8c-0.1-1.7-0.8-3.4-1.7-4.9c-1.5,0.6-4,1.2-6.3,1.2h-1.7
						v-12.3h-5c-0.8,5.9-3.9,11.5-13.3,15.2l-0.8-0.9c4.6-4.5,5.2-9.4,5.4-14.3h-4.4l-0.6-2h18.8V118h-6.4l-2.7,3.7l-8.8-4.4
						c0.6-0.8,1.7-1.6,2.7-2.3v-8.3l10.3,1c-0.1,0.8-0.6,1.4-2,1.6v6.7h6.9v-10.8l12.2,1.1c-0.1,1-0.6,1.7-2.6,2v25.3
						c1.2,0,2.2,0.1,3.1,0.3l-0.4-1.6h8.8v-13.1H46.5l-0.6-2h10.9v-12l12.7,1c-0.1,1.1-0.6,1.8-2.5,2v9h1.4l4.8-6
						c0,0,5.3,4.1,8.5,6.9c-0.1,0.8-0.9,1.1-2,1.1H66.9v13.1h0.8l4.6-5.8c0,0,5.2,3.9,8.3,6.6c-0.1,0.8-0.9,1.1-2,1.1H49.9
						c5.7,1.8,4.4,6.8,0.8,8.1H68l4.8-6.6c0,0,5.5,4.4,8.6,7.4c-0.2,0.8-1,1.1-2,1.1h-12L76.7,150.5L76.7,150.5z M52.5,144.6
						c1.8,3.5,4.3,6.3,7.3,8.5c2.8-2.9,5.5-6.4,7.1-8.9H53C53,144.2,52.5,144.6,52.5,144.6z"/>
					<path class="st0" d="M88.3,121.8c20.4,0.9,12.8,16.7,4.5,10.9c-0.5-3.9-2.7-8-5-10.6L88.3,121.8z M110.8,117.7
						c-2.5,8.5-6.9,24.2-7.7,28.2c-0.6,2.4-1.1,5.1-1.1,6.9c0.1,4.1,3.5,6.1,3.3,12.5c-0.1,3.7-2.9,6.3-6.9,6.3
						c-1.8,0-3.9-0.8-4.7-3.6c1.5-7.2,1.3-14.1-0.5-15.3c-1-0.6-2.2-1.1-3.7-1.1v-1.3h3.2c1.1,0,1.5,0,2.3-1.5
						c1.1-1.8,6-12.3,14.7-31.4C109.8,117.4,110.8,117.7,110.8,117.7z M93.4,106.7c21.3-0.3,15,16.2,6.1,11.2
						c-1.1-3.9-4.1-8.2-6.6-10.8L93.4,106.7z M132.3,162.5c-0.5,0.8-1.8,1.3-4.1,1.1c-5,3.6-13.7,6.8-22.5,8.3l-0.3-0.7
						c5.9-3.4,11.8-9,14.8-13.4c-1.1,0.6-3.3,1.1-6.2,1.1h-1.5v-27.7l9.4,3.6h17.9l4.2-4.8l7.8,5.9c-0.4,0.6-1.1,1.1-2.7,1.4v18.5
						c0,0.4-2.9,1.9-7.5,1.9h-1.6v-2.4h-18.9v1.6L132.3,162.5L132.3,162.5z M147.9,122c0,0,4.5,3.6,7.1,6.2
						c-0.2,0.8-0.9,1.1-1.9,1.1H110l-0.6-2H144L147.9,122z M111.2,113.5h6.7v-8.1l11.2,1c-0.1,0.9-0.7,1.7-2.6,2v5.2h7.6v-8.1
						l11.2,1c-0.1,0.9-0.7,1.7-2.6,2v5.2h0.1l3.9-5.5c0,0,4.4,3.8,6.9,6.4c-0.1,0.8-0.9,1.1-1.8,1.1h-9v8.9c0,0.6-3.8,1.8-7.1,1.8
						H134v-3.8h-7.6v2c0,0.6-3.8,1.8-7.1,1.8h-1.5v-10.6h-6.2C111.7,115.5,111.2,113.5,111.2,113.5z M121.2,136.7v7.4h5.1v-7.4
						H121.2z M126.3,153.3V146h-5.1v7.4H126.3z M126.5,115.5v4.9h7.6v-4.9H126.5z M132.4,158.4c25.8-2.5,24.4,15.4,14.6,13.1
						c-3.5-4.3-10.1-9.7-15.1-12.5L132.4,158.4z M134.9,136.7v7.4h5.2v-7.4H134.9z M140.1,153.3V146h-5.2v7.4H140.1z"/>
					<path class="st0" d="M185.4,114c0,0,4.3,3.5,6.9,5.9c-0.1,0.8-0.9,1.1-1.9,1.1h-28.7l-0.6-2h20.4L185.4,114L185.4,114z
						 M201.7,115.8c0,5.7-1.4,15.4-13.6,20.9c0.6,0.5,1.1,0.9,1.5,1.3c-0.2,0.8-0.9,1.1-1.9,1.1h-23.2l-0.6-2h15.2l3.7-4.8
						c0,0,2,1.5,4.1,3.3c5.3-6.2,5.9-13.9,5.9-19.9v-9l10.4,3.6h4l4.3-4.7l7.8,6.2c-0.4,0.5-1.3,0.8-2.5,1.1v10c0,0.7,0.2,1,1,1h2.8
						c0.4,0,1.3-0.1,1.7-0.1c0.5-0.1,1.3-0.2,1.8-0.3h0.6l0.4,0.1c2,1,2.6,1.9,2.6,3.5c0,3.4-2.9,5.2-9.8,5.2h-3.3
						c-5.9,0-6.6-1.8-6.6-7.1v-12.9h-6.2L201.7,115.8L201.7,115.8z M179.1,128l3.7-4.8c0,0,4.2,3.3,6.7,5.7
						c-0.2,0.8-0.9,1.1-1.9,1.1h-23.2l-0.6-2L179.1,128L179.1,128z M179.3,167.9v-4h-5.9v4.2c0,0.8-3.7,2.7-7.4,2.7h-1.3v-27.9
						l8.9,3.5h5l3.9-4.1l8,6c-0.4,0.5-1.2,1-2.4,1.3v16c-0.1,0.6-4.3,2.4-7.2,2.4L179.3,167.9L179.3,167.9z M168.1,106.5
						c20.9-0.7,13,15.7,4.2,9.9c-0.5-3.6-2.6-7.3-4.6-9.6C167.7,106.8,168.1,106.5,168.1,106.5z M179.3,162v-13.6h-5.9V162H179.3z
						 M223.5,140.1c-0.5,0.8-1.2,1.1-2.9,1.2c-2.3,5.7-5.5,10.9-9.9,15.3c5,2.4,10.6,3.9,16.4,5l-0.1,0.8c-4,0.9-6.8,4-8.1,8.6
						c-5.8-2.4-10.7-5.2-14.6-9.1c-6.2,4.3-14,7.6-23.7,9.6l-0.4-0.8c8.3-3.3,15-8,20-13.6c-3-4.5-5.3-10.1-6.8-17.5h-2.8l-0.6-2
						h19.7l5.2-5L223.5,140.1L223.5,140.1z M194.7,139.5c2,5.5,5.2,9.7,9.3,12.9c2.7-3.9,4.8-8.3,6.2-12.9H194.7z"/>
					<path class="st0" d="M263.5,113.2c0,0,4.9,3.8,7.8,6.5c-0.1,0.8-0.9,1.1-1.9,1.1h-35.1l-0.6-2h25.3
						C259.1,118.9,263.5,113.2,263.5,113.2z M255.5,128l4.3-5.6c0,0,4.9,3.8,7.8,6.4c-0.2,0.8-0.9,1.1-1.9,1.1h-27.8l-0.6-2
						L255.5,128L255.5,128z M259.8,131.5c0,0,4.9,3.8,7.8,6.4c-0.2,0.8-0.9,1.1-1.9,1.1h-27.8l-0.6-2h18.1L259.8,131.5L259.8,131.5z
						 M259.9,142.4l8.4,6.4c-0.4,0.5-1.3,1.1-2.7,1.4v15.5c-0.1,0.6-4.5,2.4-7.6,2.4h-1.5v-4.1h-9v4c0,0.8-3.9,2.8-7.6,2.8h-1.3
						v-27.4l9.2,3.6h8L259.9,142.4L259.9,142.4z M243.7,105.8c21.6-0.6,13.5,16.4,4.5,10.4c-0.6-3.8-2.7-7.7-4.9-10.1L243.7,105.8z
						 M256.6,161.9v-13.2h-9v13.2H256.6z M293,125.2c0,0,5.2,4.2,8.2,7c-0.2,0.8-1,1.1-2,1.1h-11.8v34.6c0,1-4.3,3.4-8,3.4h-1.9
						v-38.1h-10.3l-0.6-2h10.9v-25.8l12.5,1.2c-0.1,1-0.6,1.8-2.6,2v22.5h1L293,125.2L293,125.2z"/>
					<path class="st0" d="M347.5,135.7c-0.5,0.6-1.3,0.9-2.8,0.6c7.4,2.8,18.9,4,29.1,3.6l-0.1,0.8c-3.6,1.1-6.4,4.6-7.1,9.3
						c-11.3-2-19.2-5.7-24.6-12.1l-1.3,0.9l8.8,6.3c-0.1,0.2-0.4,0.4-0.6,0.4l8.7,7.4c-0.4,0.5-1.3,0.6-2.5,0.2
						c-9.2,5.5-27,10.3-42.6,10.3l-0.3-0.9c13.5-2.9,29-10.2,36.2-16.9c-0.4,0-0.8-0.1-1.3-0.2c-7.3,5-21.6,9.8-34,10.9l-0.4-0.9
						c9.4-3.1,19.9-9.5,25.8-15.2c-9.6,5.9-19.7,8.8-31.4,10.3l-0.3-0.9c10.1-3.6,18.5-8.7,25.8-16.4c-0.6-0.2-1.3-0.5-2-1
						c-0.1-0.4-0.1-0.7-0.2-1.1c-3.9,2.2-10.1,5.3-17.5,8.4c-0.4,0.5-0.8,0.8-1.3,1.1l-3.8-9.2c0,0,1.5-0.3,2.2-0.6
						c2.8-1.4,6.4-6.1,8.3-9.3l-2.3-5.8c0,0,1.6-0.2,2.6-0.6c6.1-1.5,14.6-8,17.3-11.3l11.8,5.3c-0.3,0.7-1.2,1.2-2.8,1
						c-4.1,2.1-10.6,4.2-16.9,5.8c6.9-0.2,15.8-0.5,25-0.8c-1.9-2-3.9-3.8-5.7-5.2l0.5-0.5c23.2-0.3,20,16.3,10.9,12.9
						c-1-1.9-2.7-3.9-4.4-5.9l-3.5,1l7.9,5c-0.3,0.5-1.1,0.9-2.4,0.6c-2.5,1.4-6,3.1-9.3,4.2c3.5,0.1,7.8,0,12.3,0
						c-0.4-1.3-1-2.6-1.5-3.6l0.7-0.3c15.8,4.7,8,16.2,2.1,10.7c-0.1-1.5-0.3-2.9-0.7-4.4c-3.8,1.3-9,3.1-14.7,4.8L347.5,135.7
						L347.5,135.7z M309.5,169.3c18.6-1.5,39.7-8.8,49.1-16.7l8.6,8.8c-0.5,0.5-1.3,0.6-2.6,0.1c-11.8,6.6-34.5,11-55,8.8
						L309.5,169.3L309.5,169.3z M328.2,127.3c-0.4,0.5-1.3,0.8-2.6,0.3c-1.9,1.1-4.5,2.4-7.4,3.5c3.6-0.4,7.7-0.8,11.9-1.3
						c-0.7-2.2-1.8-4.4-2.9-5.9l0.6-0.3c6.9,0.8,9.5,3.6,9.7,6l3.5,2.2l-2.4-4.8c0,0,1.3-0.3,2-0.6c2.3-1.2,5.1-5,6.8-8
						c-6.3,1.6-14.3,3.5-23.6,5.5C323.9,123.7,328.2,127.3,328.2,127.3z"/>
					<path class="st0" d="M436.9,120.1c0,0,5.2,4.3,8.3,7.3c-0.2,0.8-1,1.1-2,1.1h-21.8c-5,3.5-10.5,6.8-16.5,9.8h21l4.6-6.3
						c0,0,5.2,4.3,8.3,7.1c-0.1,0.8-0.9,1.1-2,1.1h-22.7c-0.8,2.6-2,6.2-2.9,8.8h12.3l4.8-4.4l8.3,6.8c-0.6,0.6-1.3,1.1-2.8,1.3
						c-1.1,9-3.1,14.5-6.9,16.7c-2.4,1.5-5.2,2.1-9.9,2.1c0-2.5-0.3-4.8-1.7-6.1c-1.4-1.5-4.2-2.6-7.6-3.3v-0.8
						c3.6,0.3,9.1,0.6,10.6,0.6c1.1,0,1.8-0.1,2.4-0.5c1.3-0.9,2.5-4.8,3.2-10.4h-13l-3.4,4.1l-9-5c0.6-0.6,1.6-1.3,2.6-1.8
						c0.8-2.4,1.8-5.7,2.5-8.1h-2.9c-6.9,3.2-14.4,5.9-22.2,7.9l-0.4-0.8c10.9-4.9,21.3-11.6,30.1-18.8h-27.6l-0.6-2h21.2v-9.4
						h-15.4l-0.6-2h16v-9.9l12.7,1c-0.1,0.9-0.5,1.5-2.2,1.8v7.1h0.9l4.3-5.9c0,0,3.3,2.8,6,5.3c2.5-2.7,4.6-5.4,6.4-7.9l11.5,6.6
						c-0.4,0.7-1.2,1.1-2.9,0.8c-3.7,4.1-8.5,8.3-14,12.5h8L436.9,120.1L436.9,120.1z M412,117.2v8.4c3.2-2.8,6.2-5.6,8.8-8.4H412z"
						/>
				</g>
			</g>
		</g>
	</g>
</g>
</svg>
