<?xml version="1.0" encoding="UTF-8"?>
<svg id="_圖層_2" data-name="圖層 2" xmlns="http://www.w3.org/2000/svg" viewBox="0 0 595.7 142.83">
  <defs>
    <style>
      .cls-1 {
        fill: #fff;
        opacity: .7;
      }

      .cls-2 {
        fill: #231815;
      }
    </style>
  </defs>
  <g id="_圖層_1-2" data-name="圖層 1">
    <rect class="cls-1" x="0" width="595.7" height="142.83" rx="30" ry="30"/>
    <g>
      <path class="cls-2" d="M58.43,46.45c-.25,.35-.59,.42-1.44,.49-1.4,2.38-3.25,4.45-5.5,6.16,2.73,.98,5.81,1.68,8.93,2.1l-.04,.38c-1.5,.35-2.45,1.47-2.8,3.15-3.43-.88-6.48-2.07-9.1-3.75-3.15,1.75-7,3.01-11.48,3.75l-.21-.53c3.78-1.08,7.07-2.62,9.84-4.55-1.33-1.05-2.52-2.28-3.57-3.68-1.65,1.5-3.47,2.7-5.25,3.61l-.42-.42c1.47-1.29,3.04-3.08,4.45-5.15-.53-.91-1.01-1.93-1.4-3.01l.49-.31c.42,.84,.95,1.64,1.5,2.38,.81-1.33,1.54-2.73,2.14-4.17-1.26,.17-2.52,.38-3.89,.59-.28,.35-.59,.59-.95,.67l-1.4-4.03s.94-.11,1.4-.32c2.45-.98,5.32-2.76,8.02-4.69-1.93,.38-4.2,.88-6.58,1.29-.25,.46-.56,.74-.91,.88l-.77-1.89c-.21,.28-.53,.45-1.3,.35-.84,1.23-1.96,2.56-3.22,3.99l1.61,.59c-.14,.32-.46,.53-1.05,.63v16.66c-.04,.28-1.33,1.12-2.62,1.12h-.63v-16.28c-1.4,1.33-2.84,2.52-4.41,3.57l-.38-.38c3.15-3.57,6.34-9.03,7.74-12.64l4.2,2.21-.74-1.82s.74-.11,1.08-.28c2.87-1.3,6.62-5.11,8.02-7.18l3.96,2.38c-.17,.32-.63,.53-1.37,.39-2.03,1.58-5.6,3.71-8.79,5.04,2.07,0,4.94,0,7.95-.04,2.1-1.68,3.92-3.36,5-4.62l3.54,3.12c-.21,.25-.74,.42-1.44,.17-3.15,2.42-9.7,5.99-15.26,8.16,3.36-.04,8.65-.25,14.32-.49-.84-1.33-1.82-2.59-2.66-3.57l.38-.25c9.31,3.26,6.86,9.56,3.82,7.32-.17-.88-.59-1.75-1.08-2.7-2.52,.49-5.81,1.08-9.59,1.68l2.73,.91c-.17,.38-.6,.7-1.37,.67-.25,.38-.53,.8-.77,1.23h5.92l2.1-1.89,3.25,2.98Zm-19.71-17.85c-.17,.32-.53,.53-1.29,.35-2.1,2.2-5.57,5.08-9.21,6.9l-.35-.38c2.7-2.59,5.57-6.55,6.86-9.24l3.99,2.38Zm7.7,17.78c-.7,.95-1.44,1.79-2.21,2.56,1.33,1.15,2.87,2.17,4.55,3.01,1.79-1.64,3.26-3.5,4.27-5.57h-6.62Z"/>
      <path class="cls-2" d="M94.58,30.77s2.38,1.82,3.88,3.12c-.1,.38-.49,.56-.98,.56h-17.15c-.14,2.07-.31,4.06-.63,5.95h9.35l1.86-1.82,3.29,2.77c-.28,.28-.73,.49-1.5,.59-.42,8.51-1.37,13.76-3.19,15.37-1.15,.95-2.59,1.4-4.55,1.4,0-1.01-.14-1.86-.7-2.28-.63-.56-2.17-1.05-3.75-1.33l.03-.53c1.68,.14,4.38,.35,5.18,.35,.7,0,1.02-.07,1.4-.38,1.12-.98,1.86-5.95,2.24-13.13h-9.8c-1.33,7.56-4.62,13.65-12.81,17.5l-.28-.38c7.95-6.06,9.8-14.25,10.05-24.08h-10.19l-.28-1.01h26.39l2.14-2.66Zm-15.86-4.73c9.59,1.82,6.86,8.75,3.47,6.41-.46-2.13-2.21-4.62-3.75-6.16l.28-.25Z"/>
      <path class="cls-2" d="M116.38,26.74c-.11,.49-.39,.84-1.3,.98v29.68c0,.46-1.37,1.37-2.52,1.37h-.6v-14h-2.45c-.14,5.74-.74,10.57-5.08,13.9l-.45-.52c2.45-3.64,2.49-8.19,2.49-13.37h-2.14l-.31-1.01h7.95v-5.64h-2.91l-1.12,1.47-3.43-1.89c.31-.28,.84-.66,1.33-.95v-8.68l4.27,.8c-.07,.38-.45,.63-1.33,.77v7.45h3.19v-10.85l4.41,.49Zm17.15,5.85c-.11,.42-.53,.73-1.26,.73-.21,.53-.42,1.02-.67,1.47,3.01,.98,3.39,2.83,2.73,3.75,.56,.42,1.86,1.44,2.77,2.24-.11,.38-.42,.56-.91,.56h-20.72l-.28-1.02h8.72v-9.17h-7.46l-.25-1.01h7.7v-3.99l4.24,.39c-.07,.52-.38,.88-1.29,1.01v2.59h4.27l1.71-2.21s2,1.54,3.22,2.66c-.11,.39-.45,.56-.95,.56h-8.26v9.17h5.64l1.05-1.29c-.38,.07-.8-.04-1.26-.38-.11-.91-.6-1.93-1.23-2.77-.91,1.61-2.07,2.94-3.4,3.89l-.52-.35c1.22-1.96,2.17-4.79,2.55-7.81l3.85,.98Zm-10.82-.11c-.14,.42-.52,.74-1.29,.74-.21,.59-.46,1.12-.7,1.64,4.8,2.17,2.35,5.78,.42,3.99,.04-.95-.38-2.1-.91-3.01-1.01,1.75-2.31,3.19-3.78,4.17l-.49-.35c1.4-2,2.49-4.97,2.91-8.19l3.85,1.01Zm9.98,9.59l2.97,2.28c-.24,.28-.59,.49-1.33,.59v12.53c0,.18-1.05,.81-2.45,.81h-.49v-1.79h-11.52v1.43c0,.21-.91,.77-2.35,.77h-.49v-16.24l3.22,1.26h10.99l1.44-1.65Zm-1.29,13.41v-10.75h-11.52v10.75h11.52Zm-.95-7.84c-.14,.21-.56,.42-1.02,.53v4.97c-.04,.25-1.16,.77-1.89,.77h-.35v-1.19h-3.22v.84c0,.17-.77,.74-1.93,.74h-.35v-8.37l2.45,1.05h2.77l1.12-1.12,2.42,1.79Zm-3.26,4.06v-3.71h-3.22v3.71h3.22Z"/>
      <path class="cls-2" d="M170.77,26.67s2.49,1.82,3.96,3.12c-.1,.38-.46,.56-.95,.56h-13.55c-1.23,1.75-2.73,3.75-3.96,5.18h12.18l1.72-2.03,3.36,2.66c-.25,.31-.63,.56-1.44,.7v20.55c0,.25-1.23,.95-2.91,.95h-.56v-2.52h-20.58v1.89c0,.25-1.01,.91-2.73,.91h-.56v-24.57l3.71,1.47h6.62c.21-1.43,.49-3.5,.7-5.18h-13.16l-.32-1.02h26.29l2.17-2.66Zm-22.72,28.14h4.55v-18.27h-4.55v18.27Zm12.85-18.27h-5.18v5.32h5.18v-5.32Zm-5.18,11.76h5.18v-5.42h-5.18v5.42Zm0,6.51h5.18v-5.5h-5.18v5.5Zm8.3-18.27v18.27h4.62v-18.27h-4.62Z"/>
      <path class="cls-2" d="M197.4,47.36c-3.36,2-8.02,4.66-14.67,7.7-.14,.42-.46,.81-.84,.95l-1.92-3.96c1.16-.25,2.91-.7,4.97-1.3l-.35-22.61,4.62,.35c-.04,.49-.32,.88-1.26,1.01l.32,20.27c2.8-.88,5.95-1.86,9-2.87l.14,.46Zm13.23-18.62c-.07,.52-.49,.95-1.33,1.01-.32,7.46-.84,13.76-4.48,18.83,10.75,4.62,8.61,11.66,4.9,9.35-1.01-2.62-3.43-5.81-5.67-8.29-3.04,3.67-7.88,6.72-15.75,9.14l-.32-.6c16.38-7.35,17.4-16.38,17.68-29.93l4.97,.49Zm-18.38,3.43c10.82,3.57,8.26,10.71,4.73,8.23-.74-2.63-3.15-5.88-5.08-8.02l.35-.21Z"/>
      <path class="cls-2" d="M218.61,34.83c8.47,.77,6.16,6.86,3.04,4.9-.42-1.65-1.96-3.54-3.33-4.62l.28-.28Zm10.82-.7c-1.47,3.92-4.27,11.2-4.73,12.85-.31,1.05-.63,2.17-.59,3.05,.04,1.71,1.23,3.15,1.12,6.06-.07,1.68-1.05,2.66-2.52,2.66-.7,0-1.37-.53-1.54-1.75,.56-3.68,.38-6.62-.46-7.14-.46-.35-.98-.49-1.75-.56v-.7h1.58c.49,0,.63,0,1.05-.67q.81-1.26,7.25-13.97l.59,.17Zm-8.58-7.28c8.75,.63,6.69,6.93,3.43,5.11-.56-1.75-2.28-3.71-3.71-4.83l.28-.28Zm28.84,28.74c1.37,.98,1.47,1.4,1.22,2-.56,1.54-2.91,1.26-5.08,.63-2.56-.74-4.66-1.68-6.34-2.87-3.33,1.61-7.42,2.8-12.11,3.33l-.14-.49c4.03-.98,7.56-2.49,10.43-4.34-1.68-1.65-2.83-3.57-3.57-5.71l-6.41,.49-.38-.91,6.48-.53c-.53-1.89-.81-3.96-.91-6.12l4.48,.35c-.07,.42-.35,.81-1.08,.95,.1,1.58,.35,3.12,.84,4.55l8.4-.7,1.79-2.52s2.24,1.44,3.68,2.52c-.04,.38-.42,.63-.88,.67l-12.64,.98c.63,1.51,1.54,2.87,2.84,4.06,1.58-1.37,2.83-2.8,3.67-4.27l4.31,2.07c-.21,.38-.77,.6-1.79,.42-1.05,1.26-2.34,2.42-3.89,3.43,1.19,.66,2.59,1.23,4.2,1.65,.77,.21,1.08,.21,1.37-.28,.38-.63,1.08-2.03,1.47-3.26l.38,.07-.35,3.85Zm-21.56-23.35l5.81-.46c-.56-1.68-.84-3.54-.95-5.46l4.2,.35c-.04,.38-.35,.77-1.05,.91,.11,1.37,.39,2.7,.88,3.92l8.4-.67,1.71-2.41s2.21,1.4,3.54,2.41c-.03,.39-.42,.63-.88,.67l-12.36,.98c.59,1.19,1.4,2.28,2.48,3.22,1.51-1.08,2.77-2.2,3.68-3.33l3.95,2.34c-.21,.38-.8,.49-1.82,.28-.98,.8-2.14,1.61-3.47,2.34,1.19,.63,2.59,1.16,4.24,1.54,.74,.21,1.05,.18,1.3-.24,.39-.6,1.02-1.96,1.4-3.12l.35,.07-.28,3.64c1.22,.88,1.37,1.26,1.16,1.86-.53,1.43-2.7,1.19-4.8,.63-2.66-.74-4.8-1.72-6.51-2.91-3.15,1.29-6.9,2.31-10.89,2.8l-.18-.56c3.36-.84,6.58-2.17,9.28-3.71-1.37-1.33-2.38-2.87-3.04-4.58l-5.81,.46-.35-.98Zm10.33-5.29c7.04-.56,6.13,4.55,3.36,3.61-.7-1.19-2.38-2.56-3.64-3.29l.28-.31Zm.14,14.98c7.21-.7,6.41,4.69,3.57,3.71-.7-1.26-2.48-2.7-3.85-3.4l.28-.31Z"/>
      <path class="cls-2" d="M264.99,37.87c7.11,3.01,4.27,8.12,1.79,5.88-.11-1.61-.91-3.54-1.79-5.01v18.94c0,.38-1.33,1.12-2.45,1.12h-.63v-15.16c-1.36,2.66-3.04,5.01-5.18,7.14l-.46-.38c2.62-4.06,4.24-9.49,5.11-14.81h-4.52l-.28-1.01h5.32v-8.47l4.38,.46c-.11,.53-.35,.84-1.29,.98v7.04h.7l1.71-2.35s1.19,1.09,2.28,2.07c.14-.17,.31-.32,.52-.46,.81-.63,1.72-2.35,1.61-3.71h.56c.21,.63,.35,1.22,.42,1.79h11.97l1.61-1.68,3.01,2.87c-.28,.28-.66,.35-1.37,.39-.84,.91-2.41,2.38-3.47,3.15l-.46-.21c.28-.91,.6-2.38,.81-3.5h-11.97c.07,1.65-.31,2.91-.98,3.57-.66,.67-2.17,.7-2.66-.31-.07-.21-.14-.39-.18-.6h-4.13v2.28Zm3.15,18.38c1.54-2.24,3.18-5.74,4.13-9.31l3.99,1.4c-.14,.42-.59,.7-1.33,.63-1.64,3.19-3.96,5.92-6.37,7.63l-.42-.35Zm17.4-14.56s1.96,1.54,3.12,2.66c-.07,.38-.42,.56-.91,.56h-7.63v13.2c0,.21-.98,.8-2.49,.8h-.56v-14h-7.11l-.28-1.02h14.11l1.75-2.21Zm-2.49-5.74s1.89,1.47,3.08,2.59c-.1,.38-.46,.56-.94,.56h-13.27l-.28-1.02h9.73l1.68-2.13Zm-6.97-10.19c7.42,1.89,4.34,7.42,1.61,5.15-.04-1.71-.98-3.75-2-4.9l.38-.25Zm6.06,21.7c8.65,4.41,6.09,10.5,3.19,8.12-.38-2.56-2.14-5.74-3.61-7.91l.42-.21Z"/>
      <path class="cls-2" d="M325.08,54.05c1.5,.42,2,.63,2,1.33,0,1.58-1.47,2.59-7.98,2.59h-13.13c-4.69,0-6.9-1.12-6.9-4.9v-14.95c-1.44,1.22-2.94,2.31-4.48,3.19l-.35-.35c3.99-3.46,7.91-9.7,9.77-14.91l4.87,1.26c-.14,.38-.45,.56-1.37,.49-.46,.84-.98,1.68-1.54,2.52h6.76l1.92-1.89,3.33,2.94c-.28,.28-.7,.35-1.4,.42-1.4,1.4-3.54,3.4-5.53,4.66h8.05l1.68-1.85,3.57,2.73c-.25,.32-.81,.63-1.54,.77v9.35c-.04,.25-1.68,.91-2.77,.91h-.56v-2.31h-17.15v7.14c0,1.33,1.16,1.64,3.5,1.64h12.95c2.21,0,3.22-.14,3.85-.98,.59-.77,1.43-3.12,2-4.97h.42l.04,5.18Zm-19.85-22.72c-1.12,1.58-2.42,3.12-3.82,4.59l1.37,.52h7.39c.91-1.4,1.96-3.54,2.59-5.11h-7.53Zm-2.91,13.69h6.86v-7.56h-6.86v7.56Zm10.08-7.56v7.56h7.07v-7.56h-7.07Z"/>
      <path class="cls-2" d="M346.39,50.86c-.25,.32-.56,.49-1.3,.32-2.52,2.24-6.86,4.76-11.24,6.16l-.32-.42c3.54-2.2,7.25-5.74,9.03-8.37l3.82,2.31Zm10.15-10.71c9.07,3.88,6.27,10.47,3.26,7.91-.11-.95-.39-1.89-.77-2.87-2.07,.35-4.52,.77-7.35,1.23v8.33c0,2.28-.59,3.71-4.55,4.03-.07-.95-.21-1.72-.67-2.17-.45-.42-1.16-.8-2.8-1.05v-.49s3.15,.21,3.88,.21c.56,0,.7-.17,.7-.59v-7.74c-2.7,.42-5.64,.84-8.79,1.29-.25,.42-.53,.7-.84,.84l-1.79-3.75s.95-.11,1.44-.32c3.12-1.19,7-3.4,10.36-5.67-2.45,.56-5.39,1.23-8.58,1.86-.21,.32-.46,.56-.7,.67l-1.71-3.54s.73-.07,1.09-.25c3.57-1.37,8.33-5.18,10.22-7.28-4.1,1.29-8.93,2.55-13.37,3.29l-.17-.53c6.09-1.82,13.72-5.11,17.43-7.53l3.5,2.7c-.31,.38-.98,.42-1.96,.1-1.47,.63-3.33,1.26-5.29,1.93l3.6,2.17c-.21,.32-.67,.56-1.43,.35-2.28,1.58-6.3,3.71-10.05,5.15,2.52-.14,5.88-.35,9.49-.6,2.03-1.47,3.71-2.91,4.8-4.03l3.71,2.73c-.17,.32-.73,.53-1.54,.28-3.54,2.59-10.71,6.2-16.91,8.61,4.24-.17,10.85-.59,17.92-1.01-.7-1.5-1.61-2.94-2.52-4.03l.38-.25Zm-2.66,8.54c12.85,2.55,11.59,10.08,7.77,8.33-1.5-2.73-5.29-6.06-8.05-7.98l.28-.35Z"/>
      <path class="cls-2" d="M375.16,40.6c-.7,2.31-1.96,4.55-4.2,6.37l-.38-.38c2.42-4.03,2.55-9,2.55-13.13v-5.71l3.4,1.37h5.67l1.44-1.58,3.15,2.38c-.21,.25-.7,.49-1.29,.63v5.18c-.04,.21-1.54,.8-2.49,.8h-.49v-1.5h-6.54c0,.73-.07,1.54-.18,2.31l2.56,1.02h3.99l1.4-1.47,3.04,2.24c-.17,.25-.63,.49-1.19,.6v5.88c0,.21-1.51,.84-2.45,.84h-.53v-1.12h-4.52v1.19c0,.21-.95,.91-2.45,.91h-.49v-6.83Zm24.75,13.3s2.17,1.65,3.54,2.84c-.1,.38-.46,.56-.95,.56h-31.4l-.28-1.01h14.7v-4.76h-10.92l-.28-1.01h11.2v-4.76l4.34,.42c-.07,.42-.35,.74-1.12,.88v3.47h6.09l1.82-2.24s2.1,1.54,3.4,2.7c-.07,.38-.42,.56-.95,.56h-10.36v4.76h9.21l1.96-2.38Zm-23.91-23.77v3.88h6.51v-3.88h-6.51Zm2.1,9.24v4.94h4.52v-4.94h-4.52Zm17.54-1.47v3.78h2.1l1.54-1.96s1.79,1.37,2.87,2.42c-.07,.38-.42,.56-.88,.56h-5.64v4.38c-.04,.14-.98,.7-2.52,.7h-.52v-5.08h-4.9l-.28-1.01h5.18v-3.78h-6.09l-.28-1.02h8.72c.63-1.58,1.37-3.71,1.79-5.29l4.2,1.12c-.14,.42-.56,.7-1.33,.7-.91,1.05-2.28,2.38-3.61,3.46h2.87l1.61-2.03s1.82,1.44,2.91,2.49c-.07,.39-.38,.56-.88,.56h-6.86Zm-8.3-6.55l-.28-1.01h10.89l1.64-2.1s1.86,1.47,2.98,2.56c-.07,.38-.42,.56-.91,.56h-14.32Zm1.54,.32c6.93,1.33,4.1,6.54,1.47,4.41-.07-1.47-.95-3.15-1.86-4.2l.38-.21Zm2.38-5.57c6.86,.46,4.45,5.6,1.75,3.85-.25-1.29-1.19-2.76-2.1-3.61l.35-.25Z"/>
      <path class="cls-2" d="M412.26,49.04c1.19,3.57,.8,6.27-.17,7.56-.7,.84-2.28,1.02-2.87,.04-.42-.88-.03-1.82,.77-2.45,.91-.95,1.89-3.22,1.68-5.15h.6Zm-3.01-4.45s.81-.17,1.12-.38c1.68-1.33,3.71-3.85,5.43-6.41-1.22,.46-2.66,.95-4.2,1.44-.25,.35-.53,.59-.81,.7l-1.54-3.71s.7-.14,.98-.35c1.86-1.92,4.17-6.93,4.94-9.59l4.1,2.06c-.18,.32-.56,.56-1.26,.49-1.47,2.28-4.06,5.46-6.41,7.56,1.43,0,3.22,0,5.11-.04,.84-1.37,1.54-2.63,1.96-3.64l3.75,2.52c-.18,.28-.66,.49-1.3,.35-1.96,2.66-5.71,6.44-9.07,9,1.92-.11,4.58-.28,7.35-.49-.42-1.26-.98-2.49-1.5-3.4l.42-.17c6.65,3.64,3.96,8.61,1.64,6.41-.03-.67-.14-1.33-.31-2.03-2.03,.73-4.97,1.71-8.16,2.66-.28,.38-.59,.63-.91,.73l-1.33-3.71Zm5.85,3.85c4.9,4.69,1.47,9.28-.49,6.65,.45-2.13,.35-4.73,0-6.55l.49-.1Zm3.43-.7c6.02,3.19,3.01,7.84,.88,5.6,.14-1.82-.56-4.03-1.3-5.43l.42-.17Zm22.33,7.6c.84,1.61,1.05,2.49,.42,3.05-1.33,1.12-3.43-.1-4.62-1.54-3.22-3.71-4.8-9.14-5.53-15.19h-5.08v12.36c1.75-.63,3.82-1.47,5.88-2.31l.17,.42c-1.5,1.16-4.24,3.33-7.39,5.5-.17,.59-.56,1.01-.88,1.22l-2.03-3.22c1.05-.74,1.23-1.02,1.23-1.79V28.81l3.29,1.75c3.99-1.16,8.61-2.91,11.1-4.17l3.33,3.08c-.39,.35-1.08,.35-2.03-.04-1.44,.31-3.19,.66-5.11,1.01-.14,3.26-.07,6.79,.31,10.19h2.49l1.71-2.38s1.96,1.68,3.12,2.84c-.1,.38-.46,.56-.94,.56h-6.23c.7,5.04,2.1,9.59,4.55,12.11,.38,.45,.7,.45,.95-.14,.42-.84,1.05-2.38,1.5-3.71l.39,.07-.6,5.36Zm-9.87-14.7c-.31-3.12-.46-6.44-.49-9.77-1.5,.21-2.97,.39-4.45,.53v9.24h4.94Z"/>
      <path class="cls-2" d="M450.02,50.41c1.12,3.43,.74,6.06-.25,7.32-.67,.88-2.24,1.02-2.8,0-.49-.84-.04-1.79,.77-2.45,.8-.8,1.85-3.01,1.71-4.9l.56,.04Zm10.71-4.31s1.85,1.44,3.05,2.52c-.11,.38-.42,.56-.91,.56h-15.65l-.28-1.02h6.93v-4.52h-5.78l-.28-1.01h6.06v-3.43h-2.91v.56c0,.28-1.19,.91-2.28,.91h-.42v-13.62l2.87,1.26h8.12l1.37-1.51,3.01,2.31c-.21,.25-.7,.53-1.33,.63v9.59c-.04,.25-1.4,.84-2.31,.84h-.42v-.98h-2.77v3.43h1.71l1.58-1.89s1.75,1.29,2.87,2.35c-.11,.38-.42,.56-.91,.56h-5.25v4.52h2.24l1.68-2.07Zm-6.48-7.91v-8.86h-3.29v8.86h3.29Zm-2.8-7.63c4.13,3.78,2.24,7.07,.74,5.5,0-1.71-.66-3.92-1.23-5.36l.49-.14Zm1.12,20.02c4.73,4.59,1.44,9.1-.42,6.62,.45-2.1,.31-4.69-.07-6.51l.49-.11Zm3.01-.21c6.12,3.78,3.25,8.68,1.05,6.37,.17-2.03-.63-4.52-1.5-6.16l.45-.21Zm.91-21.04v8.86h3.08v-5.92h-.04c-.53,1.12-1.5,2.91-2.41,4.34l-.46-.18c.38-1.71,.84-4.48,.98-5.85l1.93,.67v-1.93h-3.08Zm2.87,20.93c6.72,3.46,3.92,8.75,1.58,6.41,.1-2.07-.91-4.58-2-6.2l.42-.21Zm13.13-14.56v7.25h2.38l1.61-1.85,3.19,2.45c-.25,.31-.59,.52-1.37,.67v13.3c0,.18-1.16,.88-2.73,.88h-.56v-2.45h-7.63v1.89c0,.25-.98,.84-2.56,.84h-.56v-17.15l3.54,1.43h1.5V26.6l4.45,.42c-.07,.53-.38,.88-1.26,1.02v6.65h2.49l1.71-2.31s2.03,1.58,3.22,2.76c-.11,.38-.46,.56-.91,.56h-6.51Zm-5.11,8.26v10.96h7.63v-10.96h-7.63Z"/>
      <path class="cls-2" d="M488.34,48.94c1.16,3.5,.81,6.23-.14,7.53-.67,.84-2.24,1.01-2.8,.07-.46-.84-.07-1.82,.73-2.42,.88-.95,1.82-3.22,1.61-5.18h.59Zm28.77-5.15c-.25,.31-.56,.42-1.33,.49-.74,2.87-1.86,5.57-3.61,7.88,1.61,1.58,3.5,2.8,5.71,3.68l-.07,.35c-1.23,.18-2.17,1.05-2.62,2.49-1.93-1.26-3.47-2.7-4.66-4.52-1.89,1.86-4.3,3.4-7.42,4.59l-.28-.49c2.83-1.61,5-3.68,6.55-6.09-1.09-2.24-1.82-4.97-2.28-8.26h-.46c-.25,.21-.56,.28-1.16,.35-.38,1.82-.95,3.6-1.71,5.32,3.54,3.57,1.92,6.93-.39,5.36-.25-.8-.63-1.68-1.12-2.56-1.64,2.49-3.92,4.69-7.18,6.34l-.31-.49c2.83-2.1,4.76-4.94,5.99-8.12-1.01-1.4-2.24-2.73-3.36-3.78-.35,.98-1.37,1.37-2.31,.46,0-.56-.1-1.12-.25-1.71-1.85,.67-4.48,1.58-7.21,2.42-.28,.35-.63,.6-.95,.7l-1.26-3.64s.77-.17,1.09-.38c1.61-1.33,3.5-3.82,5.11-6.34-1.08,.42-2.45,.91-3.82,1.33-.25,.35-.53,.6-.81,.74l-1.5-3.64s.67-.17,.95-.38c1.71-1.89,3.89-6.9,4.58-9.56l4.03,2c-.14,.31-.52,.59-1.22,.52-1.4,2.28-3.85,5.46-6.06,7.56,1.33,.04,3.04,.04,4.73,0,.77-1.3,1.4-2.52,1.82-3.5l3.61,2.45c-.18,.28-.63,.53-1.33,.39-1.82,2.62-5.32,6.34-8.51,8.86,1.75-.1,4.06-.25,6.54-.42-.38-1.26-.91-2.45-1.4-3.36l.38-.25c3.15,1.79,4.03,3.85,3.92,5.25,1.61,.59,2.94,1.26,3.99,2,.38-1.29,.63-2.56,.84-3.89h-4.52l-.32-1.01h4.62l1.68-1.68,1.93,1.68h6.58l1.75-1.75,3.01,2.66Zm-25.94,4.58c4.9,4.48,1.68,9.07-.25,6.58,.35-2.1,.14-4.66-.25-6.44l.49-.14Zm3.19-.53c6.12,3.22,3.5,8.02,1.29,5.92,.04-1.89-.84-4.24-1.72-5.78l.42-.14Zm2.38-18.13l-.32-1.01h6.2l1.64-1.65,2.7,2.28-.21-.63h5.95l1.79-1.71,3.04,2.59c-.25,.32-.59,.45-1.37,.49-.59,1.82-1.43,3.61-2.59,5.22,3.75,3.18,2.42,6.37,.07,5.11-.39-.91-1.05-1.93-1.86-2.98-1.54,1.65-3.5,3.01-5.92,4.1l-.28-.49c1.96-1.37,3.57-3.22,4.8-5.25-1.22-1.33-2.62-2.55-3.82-3.5l.38-.32c1.82,.56,3.29,1.19,4.45,1.86,.63-1.33,1.12-2.7,1.47-4.1h-5.78c-.25,.21-.6,.25-1.19,.32-.45,1.71-1.16,3.47-2.13,5.04,3.08,2.91,1.75,5.85-.42,4.62-.24-.7-.67-1.47-1.19-2.24-1.51,1.79-3.36,3.36-5.71,4.62l-.31-.49c1.96-1.58,3.54-3.67,4.62-5.95-1.12-1.29-2.45-2.56-3.64-3.5l.35-.28c1.71,.49,3.12,1.09,4.2,1.71,.49-1.26,.84-2.52,1.12-3.85h-6.06Zm11.06,14.18c.56,2.49,1.5,4.55,2.73,6.27,.91-1.96,1.58-4.03,2-6.27h-4.72Z"/>
      <path class="cls-2" d="M527.93,46.13c2.07-1.19,3.01-2.7,3.46-4.52-1.82-.8-2.97-1.68-2.97-3.18,0-1.26,.88-2.35,2.42-2.35s2.66,1.16,2.66,3.33c0,2.66-1.26,6.06-4.97,7.84l-.59-1.12Z"/>
      <path class="cls-2" d="M548.33,38.68c.07,1.72-.49,2.94-1.26,3.61-.77,.63-2.31,.6-2.8-.52-.38-.98,.17-1.86,1.08-2.38,.91-.56,2.03-2.03,2.03-3.29l.56,.04c.17,.52,.28,1.05,.35,1.54h14.98c.56-1.68,1.16-3.96,1.5-5.57l4.69,1.5c-.14,.42-.56,.7-1.29,.59-1.01,1.05-2.45,2.35-3.85,3.47h6.76l1.89-1.86,3.19,3.15c-.28,.25-.66,.32-1.33,.35-1.26,.8-3.43,2.1-4.76,2.76l-.42-.21c.38-.77,.94-2.1,1.4-3.19h-22.72Zm23.42,2.91s2.07,1.54,3.4,2.7c-.1,.39-.46,.56-.95,.56h-15.51c-.11,1.16-.28,2.24-.56,3.33h8.05l1.75-1.68,3.26,2.62c-.25,.28-.66,.46-1.37,.56-.32,4.62-1.05,7.35-2.49,8.37-.95,.63-2.21,.98-3.96,.98,0-.95-.14-1.75-.7-2.21-.49-.52-1.79-.91-3.15-1.15l.04-.53c1.4,.14,3.75,.28,4.45,.28,.56,0,.84-.04,1.08-.25,.63-.53,1.08-2.62,1.37-5.99h-8.65c-1.33,3.75-4.51,7.11-12.88,9.59l-.35-.53c9.1-3.99,9.98-8.72,10.22-13.41h-9.24l-.31-1.02h24.64l1.85-2.24Zm-26.15-9.52l-.32-1.02h24.33l2.03-2.55s2.31,1.75,3.67,3.01c-.1,.39-.46,.56-.91,.56h-28.81Zm7.04,.21c7.28,1.71,4.17,6.93,1.47,4.69-.1-1.58-1.01-3.36-1.82-4.48l.35-.21Zm4.66-6.06c7.81,.42,5.18,6.37,2.13,4.38-.21-1.5-1.37-3.18-2.45-4.13l.32-.25Zm.38,12.78c7.46,1.05,4.38,6.37,1.54,4.2-.14-1.4-1.08-3.01-1.85-3.99l.31-.21Z"/>
      <path class="cls-2" d="M172.08,87.9c-.25,.32-.56,.42-1.33,.46-.67,2.45-2.07,5.29-4.1,7.49,.21,.07,.39,.17,.56,.35,2.87,2.52,7.11,2.94,14.56,2.94,4.2,0,7.67-.04,11.94-.25v.46c-1.4,.25-2.21,1.4-2.38,2.7h-10.64c-7.67,0-10.82-1.09-13.83-4.69-.52-.59-.88-.49-1.15,.04-.56,1.05-1.51,2.83-2.21,4.41,.11,.32,.04,.49-.21,.7l-2.42-3.22c1.33-.91,3.33-2.59,4.45-3.25,1.23-2.24,2.1-5.29,2.49-7.88h-2.76l-1.12,.95-2.42-2.07c.35-.21,.91-.42,1.44-.56,1.26-1.68,2.94-4.13,4.03-5.88h-5.11l-.32-1.02h5.53l1.44-1.47,2.91,2.62c-.31,.32-.95,.49-1.75,.56-1.05,1.58-2.8,4.06-4.13,5.85h2.03l1.68-1.61,1.89,1.58c-.03-.07-.03-.11-.07-.18-.28-.8,.21-1.5,.94-1.89,.88-.42,1.65-1.61,1.54-2.66h.49v-10.29l3.08,1.29h1.54c.25-.91,.52-2,.7-2.77l4.06,.84c-.14,.52-.6,.77-1.37,.77-.46,.35-1.09,.74-1.68,1.16h6.55l1.5-1.61,3.19,2.45c-.21,.25-.7,.53-1.4,.67v7.39c0,.25-1.47,.88-2.45,.88h-.49v-1.33h-5.46c2,.53,1.89,1.61,1.12,2.14h6.16l1.44-1.44,2.59,2.52c-.28,.25-.63,.31-1.33,.35-.84,.49-2.34,1.12-3.33,1.44l-.42-.25c.25-.38,.59-1.01,.91-1.61h-3.15v1.19c0,.88,0,.91,.63,.91h3.19c.17,0,.38-.04,.66-.11h.53c.88,.28,1.05,.32,1.05,.7,0,.7-.38,1.02-1.89,1.12,.6,.42,1.72,1.23,2.52,1.93-.07,.38-.42,.56-.91,.56h-11.1c-.14,.56-.32,1.02-.53,1.5h5.92l1.5-1.4,2.87,2.27c-.25,.28-.66,.42-1.33,.53-.32,2.1-.77,3.26-1.92,3.92-.84,.46-1.96,.59-3.33,.63,0-.74-.1-1.19-.52-1.54-.46-.39-1.37-.63-2.45-.84v-.52c1.08,.1,2.94,.21,3.54,.21,.49,0,.77-.04,.98-.17,.31-.21,.63-.95,.84-2.07h-6.62c-1.4,2.28-3.85,3.67-7.18,4.55l-.17-.53c3.26-1.54,4.66-3.61,5.18-6.55h-5.11l-.28-1.01h9.07c-.14-.07-.32-.18-.42-.28-.07-.81-.56-1.75-1.12-2.24l.35-.21c3.99,.21,3.85,2.13,2.66,2.73h5.6l1.29-1.44h-3.33c-2.77,0-2.94-.14-2.94-2.7v-1.16h-2.31c-.88,2.87-3.57,4.13-7.21,4.66l-.17-.52c2.62-.91,3.85-2.21,4.24-4.13h-3.05c-.07,1.23-.59,2.07-1.26,2.52-.46,.25-1.05,.32-1.54,.14l.35,.28Zm-8.72-16.98c8.09,2.31,5.04,8.23,2.17,5.78-.14-1.89-1.33-4.13-2.49-5.53l.32-.25Zm13.58,11.45c0,.28-1.29,.95-2.48,.95h-.07c.07,.21,.1,.38,.1,.63h6.55c-.1-.07-.21-.14-.31-.25,0-.7-.35-1.5-.74-1.89h-3.05v.56Zm0-7.98v1.44h10.33v-1.44h-10.33Zm10.33,3.96v-1.51h-10.33v1.51h10.33Zm0,2.49v-1.47h-10.33v1.47h10.33Z"/>
      <path class="cls-2" d="M209.57,75.02s1.89,1.47,3.01,2.55c-.07,.38-.42,.56-.88,.56h-14.07l-.28-1.02h10.61l1.61-2.1Zm7.14,.67c0,2.94-.63,7.53-6.33,10.29,.25,.17,.45,.38,.63,.56-.11,.38-.42,.56-.91,.56h-10.96l-.28-1.02h7.74l1.58-2s1.12,.91,2.17,1.82l-.28-.35c3.22-3.01,3.64-6.72,3.64-9.87v-4.2l3.54,1.37h3.82l1.61-1.68,3.01,2.52c-.21,.24-.67,.42-1.3,.52v6.41c0,.38,.11,.52,.6,.52h1.12c.42,0,.84,0,1.05-.04h.63c.21-.03,.49-.1,.74-.14h.31l.14,.04c.8,.31,1.08,.59,1.08,1.19,0,1.19-1.05,1.82-4.31,1.82h-1.75c-2.28,0-2.59-.67-2.59-2.55v-7.6h-4.69v1.82Zm-10.12,5.88l1.58-1.96s1.75,1.37,2.83,2.41c-.11,.39-.42,.56-.91,.56h-10.96l-.28-1.02h7.74Zm3.39,18.83c-.03,.25-1.47,.91-2.45,.91h-.49v-1.79h-4.76v2.03c0,.32-1.29,.98-2.52,.98h-.42v-13.23l3.08,1.33h4.27l1.5-1.61,3.19,2.45c-.21,.25-.74,.53-1.4,.67v8.26Zm-8.65-29.58c8.16,1.12,5.43,7.14,2.31,5.01-.32-1.65-1.54-3.64-2.63-4.8l.32-.21Zm5.71,27.69v-6.86h-4.76v6.86h4.76Zm20.9-10.92c-.28,.35-.63,.45-1.43,.49-1.26,2.98-2.98,5.64-5.29,7.88,2.63,1.65,5.71,2.73,9.17,3.47l-.04,.38c-1.4,.21-2.38,1.22-2.84,2.8-3.36-1.19-6.13-2.7-8.4-4.83-2.91,2.24-6.62,3.99-11.27,5.15l-.28-.53c4.1-1.54,7.42-3.64,10.05-6.27-1.82-2.24-3.18-5.04-4.06-8.58h-1.86l-.32-1.02h11.48l1.96-1.82,3.12,2.87Zm-13.72-.03c1.08,2.83,2.76,5.11,4.9,6.93,1.68-2.1,2.97-4.45,3.85-6.93h-8.75Z"/>
      <path class="cls-2" d="M262.87,98.09s2.28,1.64,3.71,2.91c-.07,.38-.46,.56-.95,.56h-31.29l-.31-1.01h6.12v-16.94l3.61,1.47h3.68c.1-.77,.21-1.72,.31-2.66h-13.09l-.32-1.02h13.51l.25-2.52,4.87,.67c-.1,.49-.56,.81-1.33,.91l-.35,.95h9.07l1.23-1.43c-.32,.07-.66,.1-.95,.1h-.56v-1.5h-19.36v.95c0,.28-1.47,.98-2.73,.98h-.45v-9.42l3.46,1.44h18.73l1.61-1.72,3.4,2.56c-.21,.28-.74,.56-1.44,.7v5.15c0,.07-.14,.17-.38,.28,.77,.56,2.1,1.54,3.01,2.38-.1,.38-.46,.56-.91,.56h-14.11c-.38,.91-.8,1.85-1.16,2.66h6.97l1.58-2.03,3.78,2.73c-.24,.35-.67,.56-1.58,.7v14.07h.35l2.03-2.45Zm-22.16-20.55h4.34v-4.03h-4.34v4.03Zm2.73,8.54v2.94h13.62v-2.94h-13.62Zm13.62,3.96h-13.62v2.73h13.62v-2.73Zm-13.62,3.75v2.7h13.62v-2.7h-13.62Zm0,6.76h13.62v-3.05h-13.62v3.05Zm4.58-27.02v4.03h4.52v-4.03h-4.52Zm12.04,4.03v-4.03h-4.55v4.03h4.55Z"/>
      <path class="cls-2" d="M294.09,94.8c6.16,.63,7.14,2.59,6.48,3.64,.7,.56,1.68,1.4,2.42,2.1-.07,.38-.46,.56-.91,.56h-17.61l-1.23,1.65-3.57-2.03c.32-.32,.91-.74,1.47-1.02v-19.85c-.14,.07-.35,.11-.56,.11h-3.29v2.48c5.92,3.19,3.47,7.49,1.4,5.6-.07-1.43-.74-3.18-1.4-4.62v18.45c0,.35-1.23,1.08-2.28,1.08h-.59v-14.53c-1.05,2.31-2.35,4.38-3.89,6.3l-.49-.42c2.1-4.03,3.33-9.24,3.96-14.35h-3.43l-.28-1.02h4.13v-8.61l4.16,.46c-.1,.53-.38,.84-1.29,.98v7.18h.04l1.5-2.13s1.3,1.19,2.31,2.24v-7.56l3.5,1.44h12.43l1.75-2.31s2.03,1.58,3.22,2.73c-.1,.38-.45,.56-.91,.56h-16.91v26.18h13.86l.66-.91c-.31-.07-.66-.25-.95-.56-.63-1.05-1.96-2.34-3.92-3.33l.21-.49Zm5.88-14.07s-.11,.14-.25,.21c.59,.46,1.71,1.4,2.49,2.14-.07,.38-.42,.56-.91,.56h-16.35l-.28-1.01h7.14v-1.96h-2.83v.56c0,.21-1.16,.8-2.21,.8h-.39v-6.62l2.77,1.16h2.66v-2.45l3.85,.38c-.07,.46-.35,.77-1.16,.88v1.19h2.52l1.29-1.3,2.73,2.03c-.17,.21-.59,.42-1.08,.53v2.91Zm-15.23,18.06c2.17-1.05,4.55-2.97,5.7-4.3l3.4,2.24c-.32,.35-.84,.42-1.71,.21-1.68,.91-4.52,1.89-7.18,2.34l-.21-.49Zm12.46-3.6v-1.09h-8.16v.77c0,.25-1.26,.84-2.38,.84h-.42v-11.8l2.98,1.22h7.67l1.4-1.43,2.87,2.17c-.17,.25-.56,.49-1.12,.56v7.95c-.03,.21-1.43,.81-2.38,.81h-.46Zm-5.39-15.54v-2.07h-2.83v2.07h2.83Zm-2.77,6.51v1.65h8.16v-1.65h-8.16Zm8.16,2.66h-8.16v1.65h8.16v-1.65Zm0,4.27v-1.61h-8.16v1.61h8.16Zm-2.7-15.51v2.07h2.8v-2.07h-2.8Zm3.26,5.04l1.05-1.33c-.35,.1-.74,.17-1.05,.17h-.45v-.81h-2.8v1.96h3.26Z"/>
      <path class="cls-2" d="M309.42,83.14c.14,1.37-.17,2.42-.74,2.94-.59,.53-1.71,.56-2.13-.21-.32-.74,.07-1.47,.8-1.96,.6-.53,1.12-1.96,.91-3.05l.6,.04c.17,.42,.28,.84,.38,1.23h.49v-10.47l2.66,1.15h3.96l1.26-1.61,3.12,2.24c-.28,.35-.74,.56-1.61,.67v7.84l1.16-1.16,1.96,1.89v-9.49l2.98,1.22h1.5v-3.92l2.94,.35c-.07,.38-.35,.67-.98,.77v2.8h1.86v-3.92l3.01,.35c-.07,.42-.31,.7-1.01,.81v2.76h1.86l1.29-1.5,2.77,2.1c-.25,.28-.6,.49-1.3,.59v8.47c0,.11-.28,.28-.73,.45,.63,.49,1.71,1.33,2.52,2.03-.07,.38-.42,.56-.91,.56h-16.63l-.28-1.02h13.27l1.12-1.33c-.18,.04-.39,.04-.6,.04h-.42v-.7h-9.66v.42c0,.21-.84,.74-2.17,.74h-.42v-1.96c-.25,.07-.53,.1-.91,.14-.53,.7-1.4,1.75-1.96,2.34l-.56-.24c.11-.56,.25-1.58,.38-2.42h-9.77Zm11.06,3.89c-.21,.25-.74,.53-1.37,.67v11.76c0,1.93-.39,2.98-3.4,3.26-.07-.7-.17-1.29-.53-1.68-.38-.38-.98-.63-2.13-.8v-.56s2.31,.17,2.87,.17c.49,0,.63-.17,.63-.63v-5.22c-.74,.7-1.65,1.54-2.66,2.45-.07,.42-.32,.77-.67,.91l-1.23-2.38c-.35,2.84-1.43,5.78-4.8,7.91l-.42-.42c2.52-3.01,2.73-6.79,2.73-10.5v-7l3.15,1.33h3.57l1.22-1.5,3.01,2.24Zm-8.47-4.9h1.51v-6.27l2.24,1.01h1.01v-3.04h-4.76v8.3Zm.18,9.84c0,.77-.04,1.54-.11,2.38,1.02-.28,2.73-.84,4.48-1.47v-1.68c-.17,.49-.77,.81-1.54,.6-.63-.6-1.79-1.3-2.84-1.79v1.96Zm0-4.66v1.89c2.84-.28,4.09,.49,4.38,1.26v-3.15h-4.38Zm3.08-5.18h1.5v-4.24h-1.5v4.24Zm20.9,16.1s2.03,1.5,3.25,2.62c-.1,.39-.46,.56-.95,.56h-18.27l-.28-1.02h6.76c-.35-.07-.7-.25-1.01-.56-.04-1.12-.42-2.41-.88-3.43-.28,.07-.67,.11-1.05,.11h-.46v-8.75l3.19,1.3h6.23l1.37-1.58,2.87,2.17c-.21,.28-.52,.46-1.22,.6v5.15c0,.14-.88,.63-2.1,.7l2,.7c-.14,.39-.59,.67-1.33,.6-.7,.88-1.82,2-2.94,3.01h3.12l1.72-2.17Zm-11.34-22.79v3.25h1.89v-3.25h-1.89Zm1.89,4.27h-1.89v3.39h1.89v-3.39Zm-.63,16.03c0,.07-.11,.17-.28,.32,3.54,1.68,2.83,4.06,1.37,4.34h3.04c.63-1.5,1.33-3.43,1.72-4.9l.88,.32v-.7h-6.72v.63Zm0-5.67v4.03h6.72v-4.03h-6.72Zm2.59-14.63v3.25h1.86v-3.25h-1.86Zm0,7.66h1.86v-3.39h-1.86v3.39Zm3.85-7.66v3.25h1.96v-3.25h-1.96Zm1.96,7.66v-3.39h-1.96v3.39h1.96Z"/>
      <path class="cls-2" d="M350.02,92.31c1.54-.35,3.15-.73,4.76-1.15l.14,.42c-2.03,1.26-5.04,3.15-9.31,5.46-.14,.46-.45,.74-.84,.88l-1.89-4.06c.88-.14,2.28-.46,3.99-.84v-11.41h-3.61l-.28-1.01h3.88v-9.42l4.45,.46c-.1,.49-.38,.84-1.29,.94v8.02h.28l1.58-2.42s1.75,1.71,2.73,2.87c-.07,.38-.42,.56-.91,.56h-3.68v10.71Zm24.96-15.09c-.21,.21-.66,.49-1.26,.59v9.7c-.03,.25-1.57,.88-2.59,.88h-.56v-1.44h-12.78v1.08c0,.18-.35,.39-.88,.6l2.76,1.16h8.4l1.58-1.72,3.36,2.56c-.21,.28-.7,.56-1.4,.7v10.57c-.04,.24-1.61,.88-2.66,.88h-.53v-2.07h-8.96v1.19c0,.31-1.33,1.01-2.66,1.01h-.46v-14.11c-.35,.11-.74,.17-1.12,.17l-.49,.04v-14l3.26,1.36h8.12c.6-1.82,1.37-4.24,1.86-5.99l4.8,1.37c-.14,.42-.6,.7-1.37,.67-1.09,1.12-2.8,2.7-4.38,3.96h3.19l1.54-1.61,3.22,2.45Zm-17.47-6.62c7.88,1.47,5.32,7.21,2.38,5.18-.31-1.68-1.58-3.71-2.73-4.94l.35-.25Zm.28,15.33h5.08v-8.54h-5.08v8.54Zm.77-7.04c5.78,2.7,3.43,6.72,1.44,4.94-.07-1.5-1.02-3.5-1.86-4.73l.42-.21Zm.91,11.9v3.85h8.96v-3.85h-8.96Zm8.96,8.89v-4.03h-8.96v4.03h8.96Zm2.14-13.76v-5.46c-.21,.14-.53,.21-.88,.17-.8,1.26-1.75,2.73-2.62,3.75l-.63-.25c.42-1.37,.98-3.5,1.44-5.36l2.7,1.05v-2.45h-5.01v8.54h5.01Z"/>
      <path class="cls-2" d="M393.7,76.25l3.25,2.8c-.28,.31-.73,.52-1.47,.67-.28,13.16-.84,19.08-2.62,21-1.12,1.19-2.59,1.71-4.31,1.71,0-1.12-.14-1.92-.6-2.42-.52-.56-1.68-.95-3.01-1.23l.04-.56c1.26,.14,3.29,.32,4.03,.32,.67,0,.94-.14,1.29-.46,1.19-1.16,1.68-7.49,1.92-18.94h-4.06c-.35,8.44-1.75,17.22-8.75,23.8l-.53-.49c4.79-6.93,5.81-15.16,6.02-23.31h-4.83l-.32-1.01h5.15c.07-2.52,.04-5.01,.04-7.46l4.66,.46c-.1,.53-.38,.84-1.26,.98-.04,1.96-.04,3.99-.11,6.02h3.61l1.86-1.89Zm18.06,1.08c-.25,.28-.8,.56-1.5,.74v22.4c-.07,.32-1.65,1.22-2.87,1.22h-.53v-3.33h-5.22v2.66c0,.42-1.22,1.23-2.66,1.23h-.56v-27.34l3.36,1.54h4.69l1.75-1.96,3.54,2.83Zm-4.9,20.06v-19.92h-5.22v19.92h5.22Z"/>
      <path class="cls-2" d="M428,101.62c0,.42-1.43,1.33-2.62,1.33h-.59v-11.2c-1.65,1.01-3.78,2.34-6.06,3.67-.28,.46-.67,.74-.98,.88l-1.58-3.43c1.12-.59,1.29-.88,1.29-1.58v-17.29l4.31,.46c-.07,.49-.38,.8-1.19,.91v16.38c1.26-.35,2.73-.74,4.2-1.19v-20.06l4.45,.46c-.07,.49-.35,.84-1.23,.98v29.68Zm17.26-22.05c-.8,5.57-2.34,10.5-5.29,14.6,2.28,2.42,5.25,4.24,9,5.6l-.11,.35c-1.61,.35-2.62,1.26-3.04,2.83-3.29-1.61-5.78-3.85-7.7-6.55-2.49,2.66-5.78,4.94-10.05,6.62l-.28-.42c3.96-2.31,6.9-5.18,9-8.4-1.65-3.04-2.73-6.69-3.47-10.75-1.22,2.28-2.62,4.2-4.17,5.88l-.45-.28c2.28-4.73,4.2-11.76,4.94-18.62l5.04,1.08c-.14,.45-.52,.77-1.33,.84-.52,2.17-1.15,4.27-1.89,6.23h7.84l1.96-2.56s2.17,1.75,3.5,2.98c-.07,.38-.46,.56-.95,.56h-2.56Zm-10.15,0c-.38,.98-.77,1.93-1.22,2.77,.91,3.71,2.24,6.93,4.24,9.66,1.96-3.75,2.98-7.91,3.4-12.43h-6.41Z"/>
      <path class="cls-2" d="M455.51,93.26c1.19,3.57,.8,6.27-.17,7.56-.7,.84-2.28,1.02-2.87,.04-.42-.88-.03-1.82,.77-2.45,.91-.91,1.89-3.22,1.68-5.15h.6Zm-3.01-4.45s.81-.17,1.12-.38c1.68-1.33,3.71-3.85,5.43-6.41-1.22,.46-2.7,.95-4.2,1.44-.25,.35-.53,.59-.81,.7l-1.54-3.71s.7-.14,.98-.35c1.86-1.92,4.17-6.93,4.94-9.59l4.1,2.06c-.18,.32-.56,.56-1.26,.49-1.43,2.28-4.1,5.46-6.41,7.56,1.4,0,3.22,0,5.15-.04,.8-1.37,1.5-2.63,1.92-3.64l3.75,2.52c-.18,.28-.66,.49-1.33,.35-1.92,2.66-5.67,6.44-9.03,9,1.85-.07,4.38-.28,6.97-.46-.39-1.26-.95-2.52-1.44-3.43l.42-.17c6.51,3.54,3.82,8.44,1.54,6.3-.03-.56-.1-1.19-.28-1.79-2,.7-4.76,1.68-7.77,2.52-.28,.38-.59,.63-.91,.73l-1.33-3.71Zm5.99,3.85c5.08,4.52,1.75,9.21-.25,6.62,.38-2.1,.14-4.69-.25-6.51l.49-.1Zm3.39-.63c6.41,3.22,3.64,8.19,1.37,6.02,.04-1.93-.88-4.31-1.79-5.81l.42-.21Zm22.82-12.92c-.25,.28-.77,.56-1.44,.7v19.08c0,2.28-.45,3.61-4.2,3.99-.07-1.01-.25-1.82-.67-2.24-.49-.52-1.23-.88-2.7-1.12v-.52s3.08,.24,3.75,.24c.59,0,.74-.21,.74-.7v-6.58c-.91,.38-1.72,1.26-2.03,2.17-1.4-2.24-2.31-4.76-2.91-7.77-1.37,2.83-3.26,5.7-5.57,7.91v7.56c0,.38-1.16,1.09-2.42,1.09h-.49v-26.04l3.08,1.4h4.41c-.1-1.65-.17-3.33-.25-5.18h-3.25l-.32-1.01h2.77l1.19-1.79,3.19,2.38c-.42,.49-1.37,.77-2.62,.84,.14,1.65,.32,3.22,.56,4.76h4.31l1.47-1.75,3.4,2.59Zm-15.02,14.11c2.21-3.43,3.88-8.72,4.59-13.93h-4.59v13.93Zm5.99-13.93c.8,4.69,2.13,8.79,4.52,11.73v-11.73h-4.52Z"/>
      <path class="cls-2" d="M495.69,82.3c5.92,3.26,3.61,7.53,1.5,5.64-.14-1.33-.77-3.01-1.5-4.38v18.27c0,.35-1.29,1.12-2.38,1.12h-.6v-14.56c-1.05,2.31-2.38,4.45-3.99,6.34l-.49-.39c2.1-4.06,3.33-9.28,3.99-14.39h-3.25l-.28-1.02h4.03v-8.61l4.2,.46c-.07,.53-.35,.84-1.22,.98v7.04l1.37-2s1.71,1.5,2.7,2.59c-.07,.38-.42,.56-.88,.56h-3.19v2.34Zm24.54,17.47c1.09,1.19,1.23,1.71,.95,2.24-.8,1.44-2.83,.74-4.55-.14-1.47-.74-2.7-1.68-3.64-2.94-2.56,1.89-5.46,3.12-8.54,3.85l-.25-.53c2.7-1.19,5.32-2.84,7.56-5.15-1.12-1.96-1.89-4.31-2.38-7.07h-3.95c-.07,.91-.21,1.85-.39,2.8,6.02,1.44,3.78,6.02,1.26,4.27-.18-.98-.84-2.07-1.58-2.98-.91,3.22-2.87,6.34-7.32,8.75l-.49-.52c4.52-3.82,5.11-8.3,5.25-12.32h-2.94l-.28-1.02h10.26c-.53-3.25-.74-7-.84-11.13-.21,.07-.42,.07-.7,.04-1.37,1.92-3.68,4.55-5.78,6.48,1.12-.11,2.52-.25,3.96-.39-.25-.91-.56-1.75-.88-2.42l.46-.17c4.97,3.19,2.45,6.93,.67,5.01,.03-.49,0-1.05-.11-1.58-1.12,.49-2.73,1.19-4.34,1.85-.17,.39-.42,.63-.67,.74l-1.54-2.94s.63-.14,.84-.31c1.19-1.05,2.52-3.05,3.6-4.97-.7,.31-1.5,.7-2.31,1.05-.21,.46-.46,.74-.74,.88l-1.61-3.15s.6-.17,.81-.28c1.4-1.33,3.05-4.87,3.6-6.69l3.57,1.68c-.14,.28-.53,.59-1.23,.53-1.12,1.5-2.91,3.46-4.52,4.87,.91-.04,2.03-.11,3.12-.21,.46-.84,.81-1.65,1.05-2.28l2.7,1.5c-.04-2.1-.04-4.24-.04-6.51l4.24,.53c-.04,.46-.38,.84-1.26,1.01-.1,6.48-.07,12.32,.7,16.87h4.97l1.54-1.89s1.72,1.29,2.84,2.34c-.11,.38-.42,.56-.91,.56h-8.23c.35,1.82,.88,3.43,1.54,4.8,.91-1.22,1.79-2.59,2.48-4.1l3.47,2.14c-.21,.35-.56,.46-1.37,.28-.91,1.43-1.96,2.73-3.12,3.88,.7,.81,1.54,1.44,2.52,1.93,.59,.31,.77,.28,1.05-.35,.46-.91,1.09-2.73,1.54-4.2l.42,.04-.49,5.32Zm-9-21.77s.52-.14,.73-.28c1.12-1.3,2.42-4.83,2.8-6.62l3.78,1.68c-.14,.28-.49,.56-1.19,.52-1.01,1.47-2.52,3.26-3.92,4.66,.8-.03,1.75-.1,2.73-.17,.45-.95,.8-1.85,1.05-2.55l3.36,2.06c-.17,.28-.63,.53-1.26,.39-1.22,1.75-3.18,4.03-5.08,5.71,1.08-.07,2.41-.17,3.78-.31-.25-.7-.56-1.4-.91-1.93l.46-.21c5.36,2.8,2.8,6.79,.95,4.9,.04-.59-.07-1.26-.25-1.92-1.01,.46-2.42,1.01-3.85,1.61,4.69,1.12,2.31,4.48,.46,2.87-.04-.88-.42-1.89-.94-2.52-.18,.32-.42,.53-.67,.63l-1.44-2.97s.59-.18,.8-.32c.88-.84,1.93-2.38,2.8-3.99l-1.96,.88c-.21,.53-.46,.84-.77,.98l-1.47-3.08Z"/>
      <path class="cls-2" d="M537.48,82.13l3.43,2.62c-.25,.25-.77,.59-1.51,.7v13.44c0,2.28-.42,3.57-3.88,3.89-.04-.95-.18-1.72-.56-2.2-.38-.49-.98-.88-2.17-1.05v-.52s2.28,.17,2.91,.17c.53,0,.63-.21,.63-.63v-4.52c-1.44,.91-3.08,1.89-5.01,2.8-.1,.46-.42,.74-.77,.84l-.81-1.75c-.56,2.63-1.75,5.25-4.45,7.25l-.38-.38c2.21-3.57,2.31-8.09,2.31-12.29v-7.98l3.5,1.37h5.25l1.5-1.75Zm-1.89-7.11c8.82,2.73,6.09,9.21,3.12,6.79-.07-.77-.35-1.61-.7-2.45-2.59,.7-6.27,1.68-10.36,2.52-.25,.38-.56,.59-.84,.74l-1.51-3.68s.63-.14,.95-.32c2.14-1.58,4.87-5.95,5.81-8.3l4.41,1.79c-.17,.31-.56,.59-1.26,.56-1.68,1.92-4.45,4.45-6.97,6.2,2.38-.07,5.74-.21,9.31-.42-.63-1.19-1.51-2.31-2.31-3.19l.35-.24Zm-5.39,15.47c0,1.19-.03,2.52-.17,3.82,1.79-.31,4.06-.8,6.3-1.47v-7.95h-6.13v3.15c6.02-1.82,7.35,3.47,4.45,3.12-1.05-.81-2.56-1.58-4.45-2v1.33Zm16.14-4.97c-3.12,0-3.71-.66-3.71-2.94v-11.8l4.34,.42c-.04,.46-.39,.77-1.09,.88v4.03h4.73l1.72-2.21s1.89,1.54,3.05,2.66c-.1,.38-.42,.56-.91,.56h-8.58v4.76c0,.53,.14,.7,1.26,.7h2.94c1.12,0,2.24-.04,2.66-.04,.28-.04,.7-.07,.91-.11,.25,0,.67-.1,.95-.17h.31l.17,.04c.98,.38,1.33,.7,1.33,1.33,0,1.33-1.37,1.89-6.72,1.89h-3.36Zm9.17,13.23c.98,.35,1.23,.73,1.23,1.33,0,1.4-1.4,2-6.83,2h-3.43c-3.19,0-3.85-.7-3.85-3.01v-12.74l4.41,.42c-.07,.46-.38,.77-1.12,.88v3.64h5.11l1.68-2.2s1.92,1.54,3.08,2.66c-.1,.38-.42,.56-.91,.56h-8.96v6.06c0,.56,.17,.73,1.33,.73h2.98c1.23,0,2.28-.04,2.66-.04,.42-.03,.63-.14,.84-.38,.32-.46,.81-1.89,1.26-3.43h.38l.14,3.54Z"/>
      <path class="cls-2" d="M564.01,86.71c0-2.73,2.24-4.94,4.97-4.94s4.94,2.21,4.94,4.94-2.21,4.97-4.94,4.97-4.97-2.24-4.97-4.97Zm1.26,0c0,2.03,1.65,3.71,3.71,3.71s3.67-1.68,3.67-3.71-1.64-3.67-3.67-3.67-3.71,1.64-3.71,3.67Z"/>
    </g>
  </g>
</svg>