<?xml version="1.0" encoding="UTF-8"?>
<svg id="_圖層_2" data-name="圖層 2" xmlns="http://www.w3.org/2000/svg" viewBox="0 0 565.83 124.43">
  <defs>
    <style>
      .cls-1 {
        fill: #fff;
        opacity: .7;
      }

      .cls-2 {
        fill: #231815;
      }
    </style>
  </defs>
  <g id="_圖層_1-2" data-name="圖層 1">
    <rect class="cls-1" x="0" y="0" width="565.83" height="124.43" rx="30" ry="30"/>
    <g>
      <path class="cls-2" d="M66.29,25.36s2.38,1.79,3.89,3.08c-.1,.38-.49,.56-.98,.56h-16.98c-.84,1.54-1.79,3.04-2.87,4.58l.91,.32h10.96l1.68-1.93,3.71,2.84c-.28,.35-.84,.66-1.65,.8v14.88c0,2.38-.52,3.81-4.69,4.2-.1-1.09-.31-1.92-.84-2.42-.56-.53-1.37-.95-3.08-1.19v-.52s3.71,.24,4.48,.24c.63,0,.77-.21,.77-.73v-4.41h-12.25c-.6,3.25-2,6.62-5.53,9.14l-.35-.35c2.66-4.06,2.84-9.17,2.84-13.86v-3.33c-2.21,2.31-4.76,4.38-7.77,5.95l-.32-.38c4.59-3.61,8.02-8.72,10.26-13.83h-9.52l-.25-1.02h10.22c.84-2,1.51-4.03,2-5.95l4.87,1.47c-.18,.38-.46,.63-1.4,.63-.49,1.26-1.05,2.52-1.68,3.85h11.45l2.14-2.62Zm-4.69,19.29v-4.41h-11.9v.35c0,1.26-.03,2.62-.21,4.06h12.11Zm-11.9-9.73v4.31h11.9v-4.31h-11.9Z"/>
      <path class="cls-2" d="M103.06,48.99s2.35,1.89,3.75,3.19c-.11,.38-.46,.56-.95,.56h-25.76l-1.12,1.75-3.47-2.13c.25-.28,.63-.63,1.02-.88V23.68l3.75,1.47h19.99l1.86-2.45s2.07,1.68,3.33,2.9c-.11,.39-.46,.56-.95,.56h-24.68v25.55h21.18l2.07-2.73Zm-9.56,1.16v-13.13h-5.95c-.07,4.13-.8,9.66-6.06,13.27l-.39-.42c3.01-4.06,3.29-9.1,3.29-13.51v-7l3.12,1.02c4.2-.77,8.93-2.07,11.55-3.12l3.29,3.22c-.38,.35-1.12,.35-2.07-.04-3.29,.49-8.26,.84-12.74,.81v4.76h11.83l1.93-2.34s2.21,1.61,3.54,2.8c-.1,.38-.46,.56-.91,.56h-7.25v12.25c0,.17-1.02,.88-2.66,.88h-.52Z"/>
      <path class="cls-2" d="M115.29,32.78c2.14,6.27,.88,10.64-.63,12.81-.98,1.54-2.7,1.92-3.64,1.01-.74-.77-.49-1.92,.28-2.8,1.79-1.75,3.5-6.23,3.43-10.99l.56-.04Zm8.68-3.81c-.03,.45-.39,.84-1.23,.95v18.69c0,.91,.39,1.19,2.14,1.19h4.55c1.86,0,3.33-.04,3.99-.07,.56-.07,.84-.21,1.05-.63,.42-.74,1.02-2.91,1.68-5.67h.42l.11,5.92c1.12,.42,1.44,.8,1.44,1.47,0,1.65-1.68,2.31-8.93,2.31h-4.73c-3.85,0-5.04-.7-5.04-3.57V28.51l4.55,.46Zm5.46,3.33c-.67-3.15-3.12-6.93-5.22-9.49l.39-.25c11.1,4.62,8.47,12.46,4.83,9.73Zm10.5,13.69c-.38-3.29-1.51-8.61-4.45-12.25l.35-.28c11.27,7.35,7,16.1,4.1,12.53Z"/>
      <path class="cls-2" d="M175.4,48.04s2.56,1.89,4.06,3.26c-.11,.38-.46,.56-.98,.56h-31.29l-.32-1.02h14.35V28.62h-11.73l-.28-1.02h21.77l2.21-2.84s2.49,1.93,4.06,3.29c-.1,.38-.49,.56-1.02,.56h-11.41v22.23h8.33l2.24-2.8Z"/>
      <path class="cls-2" d="M183.43,30.54c8.51,.67,6.27,6.76,3.12,4.87-.49-1.65-2.1-3.54-3.4-4.62l.28-.25Zm10.92-3.29c-1.54,4.69-4.38,13.34-4.9,15.26-.32,1.19-.6,2.41-.56,3.36,.04,1.71,1.3,3.12,1.19,6.16-.07,1.65-1.02,2.69-2.49,2.69-.77,0-1.4-.56-1.61-1.79,.6-3.6,.42-6.69-.42-7.21-.49-.35-1.05-.49-1.79-.56v-.7h1.58c.49,0,.63-.04,.98-.77q.74-1.33,7.42-16.59l.59,.14Zm-8.12-4.62c8.96,.98,6.62,7.32,3.33,5.32-.56-1.79-2.21-3.81-3.64-5.04l.32-.28Zm26.25,12.71s2.31,1.79,3.71,3.08c-.07,.38-.45,.56-.95,.56h-13.13l4.06,1.96c-.18,.32-.59,.6-1.33,.53-2,2.59-5.78,6.09-9.07,8.44,3.43-.17,8.72-.53,14.35-.98-1.09-1.96-2.38-3.92-3.54-5.46l.42-.25c11.38,5.53,8.72,13.55,5.04,10.64-.28-1.29-.8-2.7-1.51-4.09-3.64,.94-8.89,2.2-15.19,3.47-.28,.38-.6,.63-.91,.77l-1.65-4.17s.81-.17,1.12-.42c2.59-1.96,6.06-7.28,7.39-10.43h-9l-.25-1.01h9.66v-7.39h-7l-.28-1.01h7.28v-7.32l4.62,.42c-.07,.49-.38,.84-1.3,.98v5.92h3.71l2.03-2.59s2.21,1.79,3.57,3.05c-.1,.39-.45,.56-.94,.56h-8.37v7.39h5.36l2.07-2.62Z"/>
      <path class="cls-2" d="M224.01,42.09c2.07-1.19,3.01-2.7,3.47-4.51-1.82-.81-2.98-1.68-2.98-3.19,0-1.26,.88-2.35,2.42-2.35s2.66,1.16,2.66,3.33c0,2.66-1.26,6.06-4.97,7.84l-.6-1.12Z"/>
      <path class="cls-2" d="M255.88,42.02c-.39,2.34-1.23,4.41-2.77,6.27,4.66,2.03,10.85,2.76,17.5,2.9v.42c-1.4,.42-2.28,1.51-2.56,3.12-6.72-.66-12.36-2.03-16.49-4.93-2.63,2.21-6.72,3.89-13.02,5.04l-.18-.49c5.6-1.79,9.14-3.71,11.31-6.12-1.3-1.23-2.38-2.66-3.29-4.38l.46-.39c.98,1.4,2.28,2.56,3.82,3.54,.98-1.47,1.58-3.12,1.89-4.97h-6.2v1.08c0,.32-1.44,1.05-2.77,1.05h-.49v-15.37l3.5,1.44h6.27v-3.99h-13.69l-.28-1.02h25.13l2.14-2.62s2.49,1.79,3.92,3.08c-.07,.38-.46,.56-.91,.56h-12.99v3.99h6.34l1.65-1.75,3.47,2.62c-.21,.28-.74,.6-1.44,.74v11.2c-.04,.25-1.72,.91-2.8,.91h-.53v-1.92h-7Zm-9.52-10.78v4.3h6.51v-4.3h-6.51Zm6.34,9.77c.14-1.02,.18-2.1,.18-3.26v-1.19h-6.51v4.45h6.34Zm10.19,0v-4.45h-6.69v1.08c0,1.16-.07,2.28-.18,3.36h6.86Zm-6.69-9.77v4.3h6.69v-4.3h-6.69Z"/>
      <path class="cls-2" d="M303.32,39.64s2.31,1.68,3.68,2.94c-.1,.38-.45,.56-.94,.56h-7.7c-.56,2.03-1.44,3.89-3.33,5.5,13.79,2.8,10.05,7.07,6.86,5.71-2.28-1.33-5.57-2.66-9.52-3.92-3.26,1.75-8.26,3.15-16.14,4.27l-.14-.67c6.23-1.37,10.5-2.84,13.34-4.45-2.63-.7-5.53-1.37-8.65-1.96,.91-1.08,2.14-2.73,3.29-4.48h-9.31l-.32-1.01h10.29c1.12-1.72,2.14-3.33,2.66-4.45h-5.81v.52c0,.28-1.47,1.02-2.8,1.02h-.45v-10.89l3.54,1.44h3.57v-4.24h-9.94l-.31-1.01h25.69l2-2.52s2.31,1.75,3.71,2.98c-.1,.38-.49,.56-.98,.56h-9.59v4.24h3.5l1.65-1.79,3.47,2.66c-.24,.28-.77,.56-1.47,.74v6.76c-.04,.25-1.68,.84-2.73,.84h-.56v-1.29h-11.41l3.61,1.29c-.14,.39-.49,.7-1.58,.59-.49,.67-1.09,1.58-1.75,2.56h6.34c.21-.91,.31-1.86,.39-2.8l4.69,.46c-.07,.42-.49,.8-1.29,.91-.07,.49-.18,.98-.25,1.43h2.77l1.96-2.49Zm-21.74-2.97h3.85v-5.88h-3.85v5.88Zm6.44,6.47c-.98,1.44-2.07,2.91-3.05,4.1,2.49,.21,4.73,.49,6.65,.8,1.75-1.47,2.66-3.08,3.15-4.9h-6.76Zm.6-13.37h4.17v-4.24h-4.17v4.24Zm4.17,6.9v-5.88h-4.17v5.88h4.17Zm3.22-5.88v5.88h3.85v-5.88h-3.85Z"/>
      <path class="cls-2" d="M339,25.36s2.38,1.79,3.89,3.08c-.11,.38-.49,.56-.98,.56h-16.98c-.84,1.54-1.79,3.04-2.87,4.58l.91,.32h10.96l1.68-1.93,3.71,2.84c-.28,.35-.84,.66-1.65,.8v14.88c0,2.38-.53,3.81-4.69,4.2-.11-1.09-.32-1.92-.84-2.42-.56-.53-1.37-.95-3.08-1.19v-.52s3.71,.24,4.48,.24c.63,0,.77-.21,.77-.73v-4.41h-12.25c-.6,3.25-2,6.62-5.53,9.14l-.35-.35c2.66-4.06,2.84-9.17,2.84-13.86v-3.33c-2.21,2.31-4.76,4.38-7.77,5.95l-.32-.38c4.59-3.61,8.02-8.72,10.26-13.83h-9.52l-.24-1.02h10.22c.84-2,1.51-4.03,2-5.95l4.87,1.47c-.18,.38-.45,.63-1.4,.63-.49,1.26-1.05,2.52-1.68,3.85h11.45l2.14-2.62Zm-4.69,19.29v-4.41h-11.9v.35c0,1.26-.03,2.62-.21,4.06h12.11Zm-11.9-9.73v4.31h11.9v-4.31h-11.9Z"/>
      <path class="cls-2" d="M355.64,44.89c6.9,3.78,3.96,9.07,1.54,6.65,0-.84-.17-1.72-.42-2.63-1.51,1.16-3.82,2.91-6.37,4.66-.21,.53-.6,.88-.95,1.02l-1.72-3.4c1.02-.56,1.19-.84,1.19-1.5v-16.59c-.63,.59-1.26,1.19-1.93,1.68l-.39-.28c2.35-3.25,4.45-8.93,5.18-12.46l4.87,1.05c-.11,.42-.46,.7-1.37,.77v.04c9.52,3.29,5.64,8.47,3.26,6.34-.45-1.58-1.68-3.85-3.5-5.78-.88,1.89-2.17,4.03-3.71,5.95h3.36l1.51-1.86s1.68,1.3,2.7,2.31c-.1,.38-.39,.56-.88,.56h-6.83l-.17-.63c-.6,.73-1.23,1.47-1.89,2.1l2.87,1.19h4.87l1.4-1.47,2.98,2.24c-.18,.24-.63,.49-1.16,.56v8.02c-.03,.28-1.47,.91-2.45,.91h-.49v-1.05h-5.29v6.69c1.44-.53,3.01-1.12,4.69-1.79-.39-1.16-.84-2.24-1.33-3.12l.42-.18Zm-3.78-6.86h5.29v-2.94h-5.29v2.94Zm5.29,4.24v-3.22h-5.29v3.22h5.29Zm8.54-15.86v7.11h8.3l1.82-1.86,3.26,2.87c-.25,.35-.6,.46-1.37,.56-.84,4.27-2.1,8.19-4.48,11.48,1.79,2,3.89,3.47,6.44,4.48l-.07,.46c-1.47,.53-2.52,1.61-2.77,3.05-2.24-1.44-4.06-3.33-5.46-5.71-2.28,2.38-5.39,4.41-9.52,5.85l-.28-.46c3.85-1.96,6.65-4.58,8.65-7.7-1.47-3.26-2.35-7.25-2.84-12.01h-1.68v.74c0,6.12-.35,14.11-6.09,19.46l-.49-.31c3.26-5.57,3.5-12.64,3.5-19.15v-11.27l3.57,1.4h8.37l1.86-2.49s2.14,1.71,3.43,2.94c-.1,.38-.46,.56-.95,.56h-13.2Zm2.45,8.12c.63,3.96,1.75,7.14,3.29,9.7,1.44-2.94,2.31-6.2,2.8-9.7h-6.09Z"/>
      <path class="cls-2" d="M412.32,25.36s2.21,1.75,3.57,3.04c-.11,.38-.46,.56-.95,.56h-24.82v7.63c0,5.71-.42,13.2-6.58,18.17l-.42-.31c3.36-5.22,3.68-11.76,3.68-17.85v-10.15l3.89,1.5h10.5c-.25-.07-.52-.17-.77-.35-.49-1.82-2.07-3.96-3.36-5.29l.28-.25c7.14,.98,7.04,5.22,4.97,5.88h8.02l2-2.59Zm-1.26,7.04s2.28,1.79,3.64,3.08c-.11,.39-.49,.56-.95,.56h-10.19v5.99h4.66l1.58-1.79,3.12,2.38c-.21,.28-.56,.49-1.33,.63v10.43c0,.17-1.08,.77-2.7,.77h-.53v-2.91h-12.85v2.31c0,.21-.98,.81-2.59,.81h-.56v-14.07l3.54,1.44h4.34v-12.64l4.59,.42c-.07,.49-.35,.84-1.26,.98v4.23h5.5l2-2.62Zm-15.54,10.64v7.49h12.85v-7.49h-12.85Z"/>
      <path class="cls-2" d="M422.55,45c1.23,3.64,.84,6.41-.1,7.77-.66,.91-2.24,1.12-2.87,.17-.46-.84-.07-1.79,.7-2.41,.91-1.02,1.93-3.43,1.72-5.53h.56Zm-2.7-4.45s.81-.17,1.12-.38c1.72-1.33,3.82-3.89,5.53-6.44-1.26,.46-2.8,.98-4.34,1.47-.24,.35-.52,.59-.8,.7l-1.54-3.71s.7-.14,.98-.35c1.86-1.92,4.17-6.93,4.94-9.59l4.1,2.06c-.17,.32-.56,.56-1.26,.49-1.44,2.28-4.1,5.46-6.41,7.56,1.44,0,3.33,0,5.29-.04,.81-1.36,1.51-2.62,1.96-3.64l3.71,2.52c-.18,.28-.67,.49-1.33,.35-1.93,2.66-5.71,6.44-9.14,9,1.86-.11,4.38-.28,6.93-.46-.38-1.26-.95-2.52-1.44-3.43l.42-.18c6.51,3.54,3.82,8.44,1.54,6.3-.03-.56-.11-1.19-.28-1.79-1.96,.7-4.73,1.64-7.7,2.52-.28,.39-.6,.63-.95,.74l-1.33-3.71Zm5.71,3.85c5.15,4.48,1.89,9.21-.14,6.69,.35-2.14,.07-4.76-.35-6.55l.49-.14Zm3.4-.63c6.13,2.62,3.43,7.32,1.23,5.29,0-1.71-.81-3.78-1.64-5.08l.42-.21Zm22.86-8.3c-.25,.35-.63,.46-1.44,.56-1.02,4.03-2.59,7.7-5.15,10.89,2.07,2.06,4.55,3.71,7.28,4.9l-.1,.38c-1.36,.11-2.45,1.02-3.08,2.52-2.42-1.57-4.38-3.43-6.02-5.78-2.45,2.38-5.64,4.31-9.73,5.71l-.28-.49c3.71-1.82,6.62-4.27,8.79-7.14-1.68-3.12-2.87-6.9-3.57-11.55h-.52c-.56,7.28-2.21,13.97-7.42,19.25l-.56-.49c5.32-8.19,5.18-18.48,5.22-28.46h-2.59l-.31-1.02h11.94l1.4-1.57,3.15,2.52c-.28,.28-.6,.38-1.23,.46l-1.19,8.3h.46l1.86-1.79,3.12,2.8Zm-13.48-9.7c-.03,2.94-.07,5.85-.28,8.68h5.22l1.19-8.68h-6.13Zm.88,9.7c.84,3.78,2.28,6.93,4.27,9.45,1.75-2.84,2.87-6.05,3.57-9.45h-7.84Z"/>
      <path class="cls-2" d="M468.11,36.77c-.25,.32-.56,.46-1.33,.52-.49,3.71-1.4,7.25-3.26,10.36,3.78,2.42,9.03,2.94,16.42,2.94,1.93,0,6.2,0,8.44-.03v.46c-1.37,.24-2,1.4-2.1,2.73h-6.62c-8.05,0-13.48-.88-17.29-4.41-1.58,2.1-3.71,3.92-6.58,5.36l-.28-.49c2.42-1.79,4.17-3.96,5.39-6.44-1.61-2.07-2.91-4.87-3.92-8.47l.46-.25c1.09,3.12,2.49,5.39,4.17,7.07,1.15-2.83,1.75-5.99,2.07-9.24h-2.87l-1.16,1.09-2.91-2c.31-.24,.8-.49,1.26-.66,1.33-2.35,3.15-6.16,4.13-8.65h-6.02l-.31-1.02h6.3l1.58-1.61,3.12,2.84c-.28,.32-.88,.49-1.61,.56-.98,2.24-2.8,5.99-4.1,8.44h2.31l1.68-1.72,3.05,2.63Zm17.99-8.54s1.79,1.68,2.8,2.8c-.11,.39-.45,.56-.95,.56h-3.85v4.94c-.03,.25-1.58,.88-2.59,.88h-.49v-1.19h-3.99v3.61h3.99l1.72-2.31s2.07,1.61,3.29,2.76c-.11,.39-.46,.56-.95,.56h-8.05v3.67h5.15l1.93-2.48s2.28,1.68,3.64,2.94c-.1,.38-.49,.56-.98,.56h-9.73v3.46c0,.32-1.33,.95-2.52,.95h-.66v-4.41h-7.74l-.28-1.02h8.02v-3.67h-6.02l-.28-1.01h6.3v-3.61h-5.6l-.31-1.02h5.92v-3.61h-8.3l-.28-1.02h8.58v-3.54h-5.81l-.32-1.01h6.13v-3.82l4.48,.46c-.11,.49-.35,.84-1.3,.98v2.38h3.64l1.54-1.68,3.33,2.56c-.24,.25-.77,.56-1.44,.7v2.97h.46l1.54-2.34Zm-9.07,2.34h3.99v-3.54h-3.99v3.54Zm3.99,1.02h-3.99v3.61h3.99v-3.61Z"/>
      <path class="cls-2" d="M501.58,34.74c8.33,2.8,5.46,8.54,2.59,6.16-.25-1.75-1.44-3.92-2.59-5.46v18.31c0,.32-1.37,1.01-2.59,1.01h-.63v-15.3c-1.61,2.91-3.68,5.5-6.23,7.7l-.45-.42c3.12-4.1,5.18-9.8,6.27-15.3h-5.18l-.28-.98h5.88v-8.23l4.52,.45c-.11,.53-.35,.88-1.3,1.01v6.76h1.37l1.72-2.38s2.07,1.64,3.22,2.8c-.11,.39-.42,.56-.91,.56h-5.39v3.29Zm20.41-6.76s1.86,1.71,2.94,2.94c-.11,.38-.45,.56-.91,.56h-4.55v19.11c0,2.34-.59,3.71-4.8,4.06-.14-.95-.35-1.65-.94-2.1-.6-.52-1.51-.88-3.43-1.15v-.49s4.2,.28,5.04,.28c.66,0,.88-.21,.88-.77v-13.41c-2.87,4.69-7,8.72-12.11,11.76l-.39-.42c5.15-4.31,9.14-10.82,11.27-16.87h-6.72l-.28-1.01h8.23v-8.26l4.55,.49c-.07,.49-.42,.84-1.3,.95v6.83h.84l1.68-2.49Z"/>
      <path class="cls-2" d="M532.99,42.09c2.07-1.19,3.01-2.7,3.47-4.51-1.82-.81-2.98-1.68-2.98-3.19,0-1.26,.88-2.35,2.41-2.35s2.66,1.16,2.66,3.33c0,2.66-1.26,6.06-4.97,7.84l-.6-1.12Z"/>
      <path class="cls-2" d="M123.74,79.79c-1.65,.91-3.68,2.06-6.16,3.39v10.85c0,2.52-.53,4.03-4.66,4.45-.1-1.12-.32-2-.84-2.55-.56-.6-1.47-.98-3.19-1.26v-.53s3.82,.25,4.62,.25c.63,0,.81-.21,.81-.7v-8.79c-1.3,.67-2.66,1.33-4.13,2.07-.14,.42-.45,.8-.81,.94l-1.51-3.99c1.3-.28,3.61-.91,6.44-1.75v-7h-5.53l-.28-1.02h5.81v-8.16l4.52,.46c-.07,.49-.42,.84-1.26,.98v6.72h1.33l1.65-2.38s1.96,1.65,3.05,2.83c-.07,.38-.42,.56-.91,.56h-5.11v6.02c1.93-.56,3.99-1.23,6.02-1.85l.14,.46Zm13.9-12.22s2.24,1.82,3.64,3.12c-.1,.38-.45,.56-.98,.56h-5.78v22.37c0,2.45-.66,4.23-5.29,4.58-.07-1.08-.38-1.96-1.09-2.52-.77-.56-1.82-.95-4.1-1.26v-.53s5.11,.35,6.13,.35c.7,0,.91-.25,.91-.77v-22.23h-10.15l-.28-1.02h14.95l2.03-2.66Z"/>
      <path class="cls-2" d="M155.87,83.39c-.24,.32-.6,.42-1.33,.45-.88,2.59-2.63,5.32-5.01,7.42,.18,.07,.35,.18,.56,.35,2.91,2.63,7.04,3.12,14.32,3.12,4.1,0,7.49-.03,11.69-.24v.46c-1.37,.28-2.17,1.4-2.35,2.73h-10.43c-7.35,0-10.57-1.23-13.65-4.94-.49-.56-.84-.49-1.12,.04-.63,1.08-1.75,3.04-2.56,4.65,.11,.32,.03,.53-.21,.74l-2.45-3.29c1.4-.88,3.47-2.62,4.69-3.36,1.47-2.21,2.66-5.25,3.26-7.91h-2.84l-1.16,1.02-2.7-2.07c.32-.21,.88-.46,1.37-.59,1.19-1.65,2.73-4.1,3.71-5.88h-5.57l-.31-1.02h6.16l1.54-1.57,3.12,2.8c-.35,.38-1.12,.56-2.03,.56-.98,1.58-2.52,3.99-3.71,5.74h2.24l1.75-1.68,3.01,2.49Zm-10.54-16.98c8.89,1.16,6.51,7.63,3.22,5.6-.45-1.89-2.1-4.06-3.54-5.36l.31-.25Zm13.69,6.37c-1.05,1.86-2.31,3.5-3.75,4.69l-.53-.28c1.3-2.59,2.42-6.44,2.94-10.15l4.38,1.22c-.14,.42-.56,.74-1.3,.74-.35,.94-.77,1.89-1.23,2.76h3.61v-5.81l4.45,.42c-.07,.49-.39,.84-1.26,.98v4.41h2.1l1.86-2.38s2.1,1.61,3.4,2.83c-.1,.39-.45,.56-.94,.56h-6.41v5.29h3.64l1.89-2.45s2.21,1.71,3.5,2.91c-.11,.38-.46,.56-.91,.56h-19.95l-.28-1.01h8.93v-5.29h-4.13Zm10.15,20.13v-2.24h-9.35v1.65c0,.28-1.44,.98-2.73,.98h-.49v-12.36l3.4,1.4h8.86l1.54-1.68,3.33,2.52c-.21,.25-.73,.56-1.4,.7v8.09c-.03,.28-1.58,.94-2.63,.94h-.53Zm0-3.25v-6.3h-9.35v6.3h9.35Z"/>
      <path class="cls-2" d="M199.06,68.27c-.38,.46-1.4,.74-2.7,.81,2.59,3.4,8.82,7.07,15.12,8.82l-.04,.38c-1.51,.35-2.7,1.68-3.12,3.08-5.29-2.91-10.43-7.35-12.92-12.25-3.57,5.74-9.98,10.68-16.98,13.58l-.28-.42c5.5-3.36,10.57-8.44,12.95-13.3h-6.48l-.31-.98h10.08l1.23-1.96,3.43,2.24Zm7.49,25.52s2.31,1.79,3.71,3.08c-.1,.39-.45,.56-.91,.56h-29.37l-.24-1.01h13.06v-7.53h-9.31l-.28-.98h9.59v-6.62h-8.12l-.28-1.01h15.3l1.86-2.27s2.14,1.54,3.43,2.73c-.1,.39-.42,.56-.91,.56h-7.77v6.62h5.46l1.93-2.41s2.17,1.68,3.54,2.83c-.1,.39-.45,.56-.94,.56h-9.98v7.53h8.19l2.07-2.62Z"/>
      <path class="cls-2" d="M218.59,71.67c.14,2.31-.77,3.92-1.89,4.66-1.02,.66-2.45,.52-2.91-.56-.35-1.02,.28-1.89,1.19-2.31,1.26-.7,2.59-2.52,2.49-4.59l.53-.04c.21,.63,.38,1.26,.49,1.82h11.45c-.32-.04-.67-.17-.98-.38-.25-1.51-1.4-3.19-2.56-4.1l.28-.25c6.62,.07,6.09,4.34,3.92,4.73h10.08l1.82-1.82,3.22,3.08c-.28,.28-.63,.35-1.3,.42-.95,.98-2.56,2.31-3.78,3.08l-.35-.25c.21-.95,.46-2.35,.63-3.5h-22.33Zm24.75,8.93c-.25,.28-.56,.42-1.33,.17-1.96,1.01-4.9,2.17-7.88,3.12,2.21,4.69,6.83,7.63,11.8,9.17l-.07,.38c-1.3,.21-2.28,1.26-2.8,2.84-4.66-2.59-7.95-6.27-9.66-12.18-.74,.21-1.47,.38-2.14,.6,2.45,4.9,2.07,10.36,.24,12.46-.8,.98-2.31,1.4-4.59,1.4-.03-.98-.28-1.65-.77-2.1-.46-.42-1.65-.84-3.01-1.12v-.49c1.44,.14,3.85,.28,4.69,.28,.49,0,.81-.07,1.02-.35,.66-.91,1.02-2.83,.91-5.11-4.06,2.98-9.87,5.6-15.58,6.93l-.25-.56c5.81-2.1,11.83-6.13,15.12-10.47-.11-.46-.24-.91-.42-1.33-3.5,2.41-8.75,4.9-13.65,6.27l-.17-.49c4.45-2.03,9.45-5.64,12.25-9-.18-.32-.42-.67-.66-.98-3.22,1.89-7.04,3.43-10.99,4.48l-.28-.49c4.27-1.82,8.33-4.66,11.1-7.32h-7.35l-.28-1.01h17.26l1.93-2.38s2.17,1.65,3.47,2.84c-.07,.38-.46,.56-.91,.56h-9.38c-1.12,1.05-2.42,2-3.85,2.91,1.61,1.29,2.87,2.8,3.78,4.41,3.26-1.86,6.9-4.52,8.82-6.34l3.64,2.91Z"/>
      <path class="cls-2" d="M266.36,67.15c-.07,.49-.35,.84-1.26,.98,.77,13.2,3.99,21.74,16.03,26.67l-.07,.38c-1.72,.32-2.87,1.37-3.33,3.19-9.1-4.9-11.94-13.09-12.88-24.01-.63,8.75-3.15,17.75-16.03,24.12l-.42-.53c13.3-9.07,13.06-20.37,13.09-31.29l4.87,.49Z"/>
      <path class="cls-2" d="M283.58,74.43c8.02,1.05,5.5,6.9,2.52,4.83-.31-1.65-1.58-3.5-2.84-4.59l.32-.25Zm9.59-1.16c-1.23,4.1-3.54,11.59-3.99,13.27-.24,1.08-.49,2.21-.45,3.08,.07,1.71,1.23,3.18,1.09,6.16-.07,1.64-.95,2.66-2.35,2.66-.74,0-1.33-.56-1.51-1.79,.56-3.61,.39-6.65-.39-7.18-.49-.35-.94-.46-1.72-.53v-.73h1.51c.45,0,.59,0,.94-.67q.7-1.26,6.27-14.42l.59,.14Zm-7.28-6.83c8.47,1.29,5.99,7.18,2.94,5.18-.46-1.75-2-3.71-3.26-4.94l.32-.25Zm20.9,10.29v-1.82h-1.89v3.64h6.23l1.43-1.65,3.29,2.49c-.21,.25-.7,.52-1.33,.67v14.46c0,2.31-.42,3.61-4.1,3.96-.07-.95-.25-1.75-.67-2.24-.39-.49-1.12-.84-2.49-1.09v-.52s2.87,.21,3.5,.21c.52,0,.7-.21,.7-.67v-4.06c-.35,.53-.59,1.26-.7,1.92-1.12-.98-2.07-2.9-2.45-4.69-.67,1.71-1.93,3.43-3.43,4.48v5.5c0,.17-.88,.81-2.38,.81h-.52v-8.16c-.38,.53-.67,1.33-.81,2.06-1.02-.94-1.79-2.76-2.1-4.51-.6,1.79-1.89,3.54-3.4,4.51l-.03-.03v5.5c0,.35-1.16,1.02-2.45,1.02h-.49v-21.28l3.19,1.33h6.09v-3.64h-1.86v1.37c0,.25-1.26,.81-2.45,.81h-.53v-6.41h-4.97l-.28-1.02h5.25v-3.71l4.27,.42c-.07,.49-.39,.84-1.3,.98v2.31h6.65v-3.71l4.34,.39c-.11,.52-.39,.84-1.33,.98v2.34h1.61l1.68-2.31s1.93,1.61,3.05,2.76c-.07,.38-.42,.56-.91,.56h-5.43v5.25c0,.28-1.3,.81-2.49,.81h-.53Zm-7.56,7.39c.31,2.24,1.26,3.78,2.77,4.83v-9.38h-6.34v11.87c1.26-1.54,2.45-4.48,2.77-7.28v-.63h-1.82l-.21-.94h1.61l.77-1.16,2,1.54c-.24,.28-.77,.53-1.54,.63v.53Zm7.56-13.44h-6.65v3.22h6.65v-3.22Zm-1.89,8.89v11.41c1.23-1.65,2.38-4.41,2.73-6.93v-.53h-2.03l-.17-.94h1.79l.77-1.19,2.1,1.58c-.28,.28-.81,.53-1.61,.63v.46c.38,2.13,1.47,3.64,3.01,4.73v-9.21h-6.58Z"/>
      <path class="cls-2" d="M323.8,89.27c1.09,3.96-.49,6.62-2.14,7.49-1.02,.59-2.41,.46-2.84-.56-.32-.95,.31-1.75,1.23-2.21,1.4-.67,3.08-2.55,3.19-4.73h.56Zm23.28-16.38s2.21,1.65,3.61,2.87c-.11,.38-.46,.56-.95,.56h-30.56l-.32-1.01h18.48c.56-1.44,1.19-3.33,1.58-4.76h-17.36l-.28-1.01h12.71c-.56-1.37-1.96-2.8-3.19-3.57l.28-.32c5.57-.24,6.34,2.7,5.18,3.89h6.51l2-2.45s2.24,1.68,3.61,2.91c-.11,.39-.46,.56-.95,.56h-7.74l3.82,1.16c-.14,.42-.56,.7-1.33,.63-.95,.84-2.38,2.03-3.71,2.98h6.62l2-2.42Zm-19.64,15.12c0,.32-1.47,1.02-2.77,1.02h-.49v-11.94l3.47,1.43h13.76l1.61-1.79,3.47,2.66c-.21,.28-.74,.56-1.47,.74v7.6c-.04,.25-1.65,.98-2.73,.98h-.52v-1.23h-14.32v.52Zm15.37,6.51c1.02,.31,1.3,.7,1.3,1.29,0,1.37-1.4,1.86-8.19,1.86h-4.73c-3.54,0-4.24-.53-4.24-2.7v-5.85l4.17,.38c-.07,.46-.39,.77-1.05,.84v3.99c0,.46,.1,.6,1.58,.6h4.52c1.82,0,3.36-.04,3.92-.07,.52-.04,.7-.11,.91-.46,.35-.56,.77-1.86,1.3-3.64h.42l.11,3.75Zm-15.47-23.91c7.25,1.02,4.34,6.3,1.61,4.2-.14-1.4-1.09-3.01-1.93-3.99l.31-.21Zm.1,8.93v2.94h14.32v-2.94h-14.32Zm14.32,6.93v-2.98h-14.32v2.98h14.32Zm-8.89,1.68c7.7,1.4,5.43,7.04,2.7,5.08-.28-1.72-1.72-3.71-3.01-4.83l.32-.25Zm11.1,1.05c8.93,2.48,6.44,8.86,3.43,6.62-.32-2.21-2.07-4.8-3.78-6.37l.35-.24Z"/>
      <path class="cls-2" d="M368.84,73.35c-.25,.28-.77,.56-1.47,.74v21.11c-.03,.28-1.58,.98-2.66,.98h-.49v-2.7h-6.2v2.7c0,.35-1.19,1.12-2.52,1.12h-.53v-26.25l3.22,1.47h.63c.31-1.86,.73-4.55,.98-6.48l4.83,1.16c-.18,.56-.63,.8-1.4,.8-.84,1.33-2.07,3.12-3.05,4.52h3.68l1.61-1.82,3.36,2.66Zm-10.82,.18v8.71h6.2v-8.71h-6.2Zm6.2,18.94v-9.21h-6.2v9.21h6.2Zm21.7-19.11c-.28,.31-.7,.53-1.51,.63-.25,13.58-.81,20.62-2.59,22.65-1.12,1.29-2.63,1.82-4.66,1.82,0-1.08-.18-1.93-.74-2.42-.6-.56-2-1.05-3.61-1.33l.03-.56c1.65,.17,4.1,.35,4.94,.35,.7,0,.98-.11,1.36-.46,1.3-1.26,1.72-8.61,1.96-20.58h-7.35c-1.61,2.9-3.5,5.46-5.6,7.35l-.49-.32c2.07-3.54,4.1-9.1,5.15-14.46l4.66,1.37c-.14,.42-.56,.74-1.33,.74-.52,1.5-1.16,2.94-1.86,4.3h6.44l1.89-2,3.29,2.91Zm-14.98,6.27c9.45,3.33,6.37,10.12,3.19,7.46-.28-2.42-1.96-5.36-3.5-7.25l.31-.21Z"/>
      <path class="cls-2" d="M417.11,73.52s2.38,1.79,3.92,3.08c-.1,.38-.49,.56-1.02,.56h-31.36l-.31-1.01h14.56v-4.66h-10.64l-.28-1.01h10.92v-4.52l4.62,.42c-.07,.45-.32,.77-1.12,.91v3.19h5.32l2.1-2.59s2.35,1.75,3.82,3.05c-.11,.38-.46,.56-.98,.56h-10.26v4.66h8.58l2.14-2.62Zm-.88,14.04s2.42,1.79,3.89,3.08c-.11,.38-.49,.56-.98,.56h-12.74v6.55c-.03,.17-1.12,.77-2.87,.77h-.63v-7.32h-13.13l-.28-1.01h13.41v-5.5h-11.17l-.28-1.02h15.93c.84-1.96,1.58-4.59,2-6.48l4.9,1.01c-.11,.42-.49,.74-1.26,.74-1.09,1.43-2.91,3.25-4.59,4.73h4.13l2.03-2.55s2.38,1.71,3.82,3.01c-.1,.38-.46,.56-.95,.56h-11.06v5.5h7.7l2.14-2.63Zm-19.71-10.22c8.26,2.45,4.48,8.37,1.54,5.6-.03-1.85-.95-3.99-1.89-5.42l.35-.18Z"/>
      <path class="cls-2" d="M431.42,81.29c6.9,2.8,4.59,7.42,2.24,5.53-.28-1.44-1.26-3.19-2.24-4.55v15.05c0,.28-1.05,1.08-2.59,1.08h-.53v-13.97c-1.61,1.51-3.33,2.8-5.11,3.89l-.35-.35c3.89-3.57,7.46-9.03,9.07-13.51h-8.02l-.32-1.01h8.23l1.93-1.82,3.15,3.04c-.31,.31-.74,.38-1.58,.46-.95,1.93-2.24,4.03-3.89,5.99v.17Zm-4.06-15.26c8.23,2,5.08,7.7,2.21,5.32-.28-1.72-1.47-3.82-2.49-5.15l.28-.18Zm8.93,3.75l-.28-1.02h14.46l1.93-2.45s2.17,1.68,3.5,2.9c-.1,.39-.45,.56-.94,.56h-18.66Zm16.14,11.87l3.36,2.59c-.21,.28-.77,.59-1.47,.73v12.39c-.04,.21-1.58,.88-2.63,.88h-.53v-2.03h-11.59v1.26c0,.32-1.33,.98-2.59,.98h-.49v-16.45l3.26,1.4h11.06l1.61-1.75Zm-2.84-.7v-1.26h-8.19v.73c0,.28-1.4,.98-2.63,.98h-.46v-9.73l3.22,1.33h7.7l1.58-1.71,3.43,2.59c-.25,.28-.77,.59-1.47,.73v5.53c-.03,.21-1.64,.8-2.66,.8h-.53Zm-10.01,3.46v4.69h4.45v-4.69h-4.45Zm0,10.78h4.45v-5.08h-4.45v5.08Zm10.01-16.52v-4.66h-8.19v4.66h8.19Zm-2.77,5.74v4.69h4.34v-4.69h-4.34Zm4.34,10.78v-5.08h-4.34v5.08h4.34Z"/>
      <path class="cls-2" d="M476.05,77.48c1.23,6.55,5.15,13.27,15.23,17.54l-.07,.38c-1.75,.31-2.84,1.26-3.22,3.15-8.82-5.11-11.55-13.62-12.53-20.58-1.02,8.29-4.38,15.47-16.77,20.58l-.39-.56c9.98-5.71,12.85-12.6,13.65-20.51h-12.99l-.32-1.02h13.37c.28-3.29,.25-6.76,.25-10.36l4.97,.49c-.11,.53-.42,.88-1.26,1.02-.07,3.05-.1,6.02-.35,8.86h8.86l2.28-2.87s2.59,1.96,4.13,3.33c-.1,.38-.49,.56-.98,.56h-13.86Z"/>
      <path class="cls-2" d="M524.42,94.21c.98,.38,1.26,.74,1.26,1.33,0,1.33-1.44,1.92-7.18,1.92h-3.68c-3.19,0-3.99-.66-3.99-3.05v-14.77c-.21,.28-.6,.35-1.3,.42-1.79,7.88-5.5,14.74-15.09,18.34l-.32-.49c7.42-3.95,10.78-10.68,12.11-18.34h-4.34c-.7,1.3-1.47,2.49-2.31,3.57,6.62,2.17,4.1,7,1.54,4.97-.17-1.4-1.16-2.97-2.24-4.13-1.29,1.51-2.73,2.77-4.31,3.78l-.46-.35c2.56-2.94,4.9-7.67,6.06-12.81l.28,.11-.42-3.46h-6.02l-.28-1.02h6.2l-.53-4.27,4.34,.35c-.04,.42-.32,.73-1.02,.94l.39,2.98h1.79l1.75-2.38s2.03,1.68,3.26,2.84c-.11,.38-.46,.56-.95,.56h-5.71l.39,2.76c-.45,.53-1.4,.81-2.7,.84l3.61,1.19c-.14,.42-.59,.74-1.36,.7-.25,.63-.53,1.23-.77,1.82h3.64l1.75-1.79,3.01,2.69v-3.71l3.54,1.43h4.66l1.47-1.75,3.5,2.63c-.21,.25-.77,.56-1.47,.7v7.63c0,2.21-.45,3.57-4.1,3.88-.07-.98-.21-1.71-.6-2.21-.42-.49-1.08-.88-2.42-1.05v-.52s2.59,.17,3.29,.17c.49,0,.66-.21,.66-.63v-7.84h-5.46v15.44c0,.7,.21,.91,1.51,.91h3.33c1.4,0,2.52,0,3.01-.07,.39,0,.63-.11,.88-.38,.31-.49,.77-2.14,1.23-3.85h.42l.14,3.96Zm-13.83-23.98h4.59l.7-4.31,4.31,.88c-.14,.45-.46,.8-1.36,.84l-.42,2.59h2.21l1.79-2.38s2.03,1.68,3.26,2.84c-.07,.38-.42,.56-.91,.56h-6.48l-.56,3.32c-.6,.46-1.86,.63-3.26,.35l.59-3.67h-4.17l-.28-1.02Z"/>
      <path class="cls-2" d="M530.96,82.24c0-2.73,2.24-4.94,4.97-4.94s4.94,2.21,4.94,4.94-2.21,4.97-4.94,4.97-4.97-2.24-4.97-4.97Zm1.26,0c0,2.03,1.65,3.71,3.71,3.71s3.68-1.68,3.68-3.71-1.65-3.67-3.68-3.67-3.71,1.65-3.71,3.67Z"/>
    </g>
  </g>
</svg>