<?xml version="1.0" encoding="UTF-8"?>
<svg id="_圖層_2" data-name="圖層 2" xmlns="http://www.w3.org/2000/svg" viewBox="0 0 783.39 135">
  <defs>
    <style>
      .cls-1 {
        fill: #fff;
        opacity: .7;
      }

      .cls-2 {
        fill: #231815;
      }
    </style>
  </defs>
  <g id="_圖層_1-2" data-name="圖層 1">
    <rect class="cls-1" width="783.39" height="135" rx="30" ry="30"/>
    <g>
      <path class="cls-2" d="M21.47,36.4c-.14,.35-.46,.56-1.08,.67v20.72c-.04,.25-1.33,.98-2.62,.98h-.59v-18.8c-1.3,1.68-2.66,3.18-4.13,4.45l-.49-.32c2.91-4.34,5.85-11.13,7.39-17.85l4.8,1.47c-.17,.42-.56,.7-1.37,.7-.98,2.66-2.14,5.15-3.43,7.39l1.54,.6Zm13.76,8.26c-.21,2.94-.95,5.46-2.45,7.53,3.57,1.79,8.19,2.66,13.2,2.83v.42c-1.37,.38-2.45,1.61-2.7,3.25-5.22-.74-9.21-2.17-12.22-4.62-2.24,2.03-5.53,3.61-10.12,4.69l-.25-.53c4.09-1.5,6.93-3.36,8.72-5.78-1.37-1.5-2.49-3.33-3.33-5.46l.49-.28c.91,1.61,2.24,2.98,3.85,4.13,.95-1.82,1.44-3.85,1.58-6.2h-4.97v1.09c0,.28-1.43,1.01-2.76,1.01h-.42v-12.01l3.36,1.4h4.83v-3.71h-8.86l-.28-1.01h9.14v-5.11l4.52,.46c-.07,.49-.35,.84-1.26,.98v3.68h4.45l2.1-2.7s2.31,1.82,3.75,3.15c-.11,.38-.46,.56-.95,.56h-9.35v3.71h4.55l1.65-1.79,3.43,2.62c-.25,.28-.77,.59-1.44,.77v7.77c-.04,.25-1.65,.95-2.73,.95h-.56v-1.82h-4.97Zm-3.19-1.02v-6.48h-5.01v6.48h5.01Zm3.26-6.48v6.48h4.9v-6.48h-4.9Z"/>
      <path class="cls-2" d="M80.2,29.79c-.28,.32-.84,.67-1.65,.81v23.77c0,2.38-.49,3.78-4.62,4.13-.11-.98-.32-1.82-.77-2.31-.56-.52-1.37-.91-3.01-1.16v-.52s3.54,.28,4.27,.28c.63,0,.8-.28,.8-.77v-7.49h-7.91v10.92c0,.21-1.01,.94-2.7,.94h-.56v-11.87h-7.6c-.67,4.41-2.38,8.79-6.72,12.08l-.45-.31c3.89-5.22,4.31-11.94,4.31-18.59v-12.22l3.82,1.4h17.43l1.64-1.92,3.71,2.83Zm-16.14,15.72v-7.39h-7.18v1.54c0,1.89-.04,3.85-.28,5.85h7.46Zm-7.18-15.61v7.21h7.18v-7.21h-7.18Zm10.43,0v7.21h7.91v-7.21h-7.91Zm7.91,15.61v-7.39h-7.91v7.39h7.91Z"/>
      <path class="cls-2" d="M98.26,43.65c-.25,.32-.6,.42-1.33,.46-.88,2.59-2.63,5.32-5.01,7.42,.17,.07,.35,.17,.56,.35,2.91,2.63,7.04,3.12,14.32,3.12,4.09,0,7.49-.04,11.69-.25v.45c-1.36,.28-2.17,1.4-2.34,2.73h-10.43c-7.35,0-10.57-1.22-13.65-4.93-.49-.56-.84-.49-1.12,.03-.63,1.08-1.75,3.05-2.55,4.66,.1,.31,.04,.52-.21,.73l-2.45-3.29c1.4-.88,3.46-2.62,4.69-3.36,1.47-2.21,2.66-5.25,3.25-7.91h-2.83l-1.16,1.02-2.7-2.07c.32-.21,.88-.45,1.37-.59,1.19-1.65,2.73-4.1,3.71-5.88h-5.57l-.31-1.02h6.16l1.54-1.58,3.12,2.8c-.35,.38-1.12,.56-2.03,.56-.98,1.58-2.52,3.99-3.71,5.74h2.24l1.75-1.68,3.01,2.49Zm-10.54-16.98c8.89,1.16,6.51,7.63,3.22,5.6-.45-1.89-2.1-4.06-3.54-5.36l.32-.25Zm13.69,6.37c-1.05,1.85-2.31,3.5-3.75,4.69l-.52-.28c1.3-2.59,2.42-6.44,2.94-10.15l4.38,1.23c-.14,.42-.56,.73-1.3,.73-.35,.95-.77,1.89-1.23,2.77h3.61v-5.81l4.45,.42c-.07,.49-.38,.84-1.26,.98v4.41h2.1l1.85-2.38s2.1,1.61,3.4,2.84c-.1,.38-.46,.56-.95,.56h-6.41v5.29h3.64l1.89-2.45s2.21,1.71,3.5,2.91c-.11,.38-.46,.56-.91,.56h-19.95l-.28-1.01h8.93v-5.29h-4.13Zm10.15,20.13v-2.24h-9.35v1.64c0,.28-1.44,.98-2.73,.98h-.49v-12.36l3.4,1.4h8.86l1.54-1.68,3.33,2.52c-.21,.25-.74,.56-1.4,.7v8.09c-.04,.28-1.58,.95-2.62,.95h-.53Zm0-3.26v-6.3h-9.35v6.3h9.35Z"/>
      <path class="cls-2" d="M121.99,46.1c3.36-2.76,4.38-6.16,4.66-9.45h-4.1l-.28-1.01h4.41c.04-.45,.04-.95,.04-1.4v-4.45h-3.36l-.28-1.01h12.88l1.82-2.21s2.03,1.54,3.33,2.66c-.11,.38-.49,.56-.98,.56h-3.78v5.85h.46l1.75-2.41s2.07,1.68,3.26,2.87c-.11,.38-.46,.56-.95,.56h-4.52v8.37c-.04,.17-1.01,.81-2.62,.81h-.49v-9.17h-3.57c-.38,3.5-1.89,7.28-7.32,9.84l-.35-.39Zm28.98,8.09s2.31,1.79,3.68,3.05c-.11,.38-.46,.56-.98,.56h-31.15l-.28-1.01h14.46v-6.44h-10.92l-.28-1.01h11.2v-4.97l4.66,.42c-.07,.49-.35,.84-1.29,.98v3.57h6.06l2-2.49s2.2,1.68,3.57,2.94c-.11,.38-.46,.56-.98,.56h-10.64v6.44h8.86l2.07-2.59Zm-21.21-19.95c0,.45,0,.91-.04,1.4h3.5v-5.85h-3.46v4.45Zm15.58,6.34c0,.28-1.37,.88-2.49,.88h-.56v-13.16l4.27,.38c-.07,.46-.35,.77-1.23,.91v10.99Zm.25,2.03s2.87,.21,3.5,.21c.49,0,.63-.17,.63-.59v-15.51l4.38,.42c-.07,.49-.42,.77-1.19,.91v14.35c0,2.34-.46,3.64-4.17,3.99-.11-.98-.25-1.75-.63-2.24-.46-.49-1.16-.8-2.52-1.05v-.49Z"/>
      <path class="cls-2" d="M164.9,40.6c0,5.7-.35,13.16-6.23,18.2l-.46-.28c3.12-5.25,3.36-11.87,3.36-17.92v-10.12l3.89,1.5h11.03c-.25-.07-.53-.17-.77-.35-.49-1.82-2.07-3.96-3.36-5.29l.28-.24c7.14,.98,7.04,5.21,4.97,5.88h8.05l1.96-2.59s2.24,1.75,3.61,3.04c-.11,.39-.46,.56-.95,.56h-25.38v7.6Zm14.81,.7c2.59,5.11,7.39,9.42,11.94,11.45l-.07,.35c-1.29,.25-2.34,1.26-2.83,2.91-4.2-2.94-7.49-7.74-9.56-14v15.68c0,.35-1.4,1.05-2.62,1.05h-.59v-12.81c-2.73,4.48-6.76,8.16-12.11,10.89l-.35-.46c5.15-3.71,8.89-9.28,10.78-15.05h-7.74l-.28-1.02h9.7v-6.48l4.58,.49c-.1,.53-.38,.88-1.37,1.01v4.97h6.27l1.79-2.45s2.13,1.68,3.39,2.91c-.1,.38-.46,.56-.94,.56h-9.98Z"/>
      <path class="cls-2" d="M210.44,51.46c-2.83,1.37-6.9,3.12-12.78,5.39-.17,.46-.52,.77-.88,.88l-1.92-3.88c1.61-.25,4.55-.74,8.05-1.4,.63-2.28,1.33-5.22,1.68-7.35l4.27,1.12c-.1,.38-.52,.74-1.3,.7-.84,1.5-2.13,3.54-3.5,5.32,2-.38,4.13-.8,6.3-1.26l.07,.49Zm13.76-25.13s2.24,1.79,3.64,3.01c-.11,.38-.46,.56-.98,.56h-6.55c-.91,1.47-2,3.08-2.97,4.24h4.62l1.58-1.68,3.22,2.49c-.18,.25-.63,.49-1.23,.63v15.44c-.04,.25-1.61,.98-2.73,.98h-.52v-1.47h-7.6v.91c0,.35-1.33,1.12-2.73,1.12h-.53v-19.85l3.43,1.44h1.26c.14-1.19,.32-2.84,.42-4.24h-6.02l.11,.1c-.11,.38-.45,.56-.95,.56h-14.39l-.28-1.02h10.29l1.89-2.45s1.68,1.33,2.94,2.45l-.17-.66h12.25l2-2.55Zm-18.73,18.31v-1.4h-5.95v.74c0,.28-1.22,.88-2.42,.88h-.42v-11.27l3.01,1.26h5.46l1.44-1.58,3.18,2.41c-.21,.21-.7,.52-1.33,.66v7.35c-.03,.25-1.5,.95-2.49,.95h-.49Zm-7.53,.7c6.55,3.54,3.12,8.51,.74,5.99,.14-1.92-.46-4.24-1.16-5.81l.42-.17Zm7.53-3.12v-6.37h-5.95v6.37h5.95Zm-.11,16.07c3.57-1.44,7.67-4.17,9.63-6.58l3.68,2.31c-.17,.28-.6,.35-1.19,.17-2.52,2-7.6,3.92-11.87,4.59l-.25-.49Zm9.31-23.14v4.06h7.6v-4.06h-7.6Zm0,9.21h7.6v-4.13h-7.6v4.13Zm7.6,5.15v-4.13h-7.6v4.13h7.6Zm-2.87,2.59c10.29,1.26,8.89,8.02,5.46,6.41-1.05-2.1-3.71-4.69-5.74-6.09l.28-.31Z"/>
      <path class="cls-2" d="M240.22,38.68c7.39,3.15,4.59,8.19,2.07,5.95-.17-1.58-1.12-3.57-2.07-5.11v18.24c0,.39-1.33,.98-2.49,.98h-.59v-15.26c-1.44,2.7-3.29,5.11-5.6,7.25l-.42-.46c2.76-3.96,4.51-9.28,5.46-14.56h-4.66l-.28-1.02h5.5v-8.37l4.34,.46c-.07,.52-.35,.84-1.26,.98v6.93h.7l1.71-2.31s1.86,1.57,3.01,2.76c-.07,.38-.42,.56-.91,.56h-4.52v2.97Zm22.86-.67c-.25,.35-.59,.46-1.4,.53-.91,4.2-2.31,8.12-4.73,11.52,2.17,2.13,4.76,3.67,7.7,4.76l-.07,.46c-1.71,.56-2.87,1.79-3.15,3.4-2.62-1.54-4.76-3.61-6.48-6.2-2.38,2.52-5.53,4.62-9.73,6.16l-.32-.42c3.82-2.07,6.65-4.76,8.79-7.91-1.72-3.33-2.83-7.39-3.47-12.25h-1.22c-.04,6.41-.74,14.98-7.18,20.72l-.42-.32c4.06-6.23,4.55-14,4.55-21.04v-9.63l3.57,1.37h9.03l1.86-2.45s2.13,1.71,3.4,2.91c-.11,.38-.46,.56-.95,.56h-13.86v6.86h1.71l.07-.04v.04h7.25l1.89-1.89,3.15,2.87Zm-12.08,.04c.8,4.06,2.2,7.28,4.1,9.84,1.58-2.97,2.59-6.33,3.18-9.84h-7.28Z"/>
      <path class="cls-2" d="M277.28,27.65c-.14,.42-.56,.73-1.37,.73-.77,2.59-1.68,5.11-2.73,7.46l1.79,.66c-.1,.32-.46,.56-1.05,.67v20.69c-.04,.25-1.33,.91-2.52,.91h-.56v-18.59c-.95,1.54-1.96,2.91-3.05,4.09l-.49-.28c2.24-4.48,4.38-11.27,5.46-17.75l4.52,1.4Zm20.93,7.14c-.49,5.46-1.47,10.36-3.71,14.53,1.58,2.55,3.64,4.62,6.3,6.2l-.11,.35c-1.61,.35-2.62,1.26-3.08,2.83-2.07-1.82-3.61-4.13-4.76-6.79-1.96,2.66-4.59,4.97-8.16,6.83l-.32-.38c3.47-2.7,5.81-5.81,7.42-9.31-1.01-3.19-1.58-6.72-1.96-10.54-.77,1.37-1.65,2.59-2.62,3.68l-.49-.28c.84-1.82,1.54-4.03,2.13-6.41h-5.5v7.25h.95l1.37-1.5,2.62,2.42c-.25,.28-.74,.53-1.29,.6v10.47c-.04,.17-1.16,.88-2.42,.88h-.56v-2.14h-4.55v2.45c0,.28-1.19,.98-2.41,.98h-.49v-15.44l3.08,1.29h.53v-7.25h-4.94l-.28-1.02h5.22v-7.98l4.31,.38c-.07,.49-.35,.8-1.12,.91v6.69h1.5l1.68-2.31s1.47,1.23,2.55,2.31c.6-2.59,1.02-5.39,1.23-8.19l4.66,1.01c-.14,.42-.53,.77-1.29,.81-.46,2-1.02,3.88-1.65,5.67h3.71l1.82-2.55s2.03,1.82,3.22,3.01c-.11,.39-.45,.56-.95,.56h-1.64Zm-14.18,8.93h-4.55v8.75h4.55v-8.75Zm7.6-8.93c-.35,.95-.77,1.85-1.23,2.7,.53,3.22,1.3,6.16,2.45,8.79,1.19-3.54,1.71-7.39,1.92-11.48h-3.15Z"/>
      <path class="cls-2" d="M316.84,40.04c-1.3,.84-2.87,1.89-4.8,3.08v11.34c0,2.38-.46,3.85-4.2,4.24-.07-1.08-.25-1.92-.7-2.45-.46-.56-1.16-.91-2.59-1.16v-.56s3.01,.25,3.67,.25c.56,0,.74-.18,.74-.67v-9.03c-.88,.52-1.82,1.09-2.8,1.64-.11,.45-.42,.84-.81,.98l-1.43-3.82c1.01-.28,2.8-.84,5.04-1.58v-6.83h-4.45l-.28-1.02h4.73v-8.26l4.38,.46c-.11,.49-.46,.84-1.3,.95v6.86h.7l1.58-2.34s1.82,1.64,2.84,2.8c-.11,.38-.46,.56-.91,.56h-4.2v5.81c1.51-.53,3.08-1.08,4.66-1.65l.14,.38Zm9.31-4.3c2.45,2.94,7.07,5.32,10.82,6.44l-.07,.38c-1.19,.25-2.03,1.19-2.38,2.7-3.46-1.89-6.76-5.01-8.75-8.93-2.62,3.67-6.65,7.56-11.87,9.73l-.31-.35c4.51-3.19,8.02-8.19,9.49-12.15l4.8,1.19c-.14,.42-.53,.63-1.51,.67l-.21,.32Zm-12.01-4.8h3.5l-.42-4.66,4.03,.77c-.1,.39-.38,.74-1.08,.88l.32,3.01h.67l1.43-1.89s1.61,1.33,2.59,2.35c-.11,.38-.42,.56-.91,.56h-3.68l.39,3.85c-.46,.56-1.51,.81-2.8,.77l-.42-4.62h-3.29l-.32-1.01Zm16.8,14.84l2.98,2.24c-.25,.28-.56,.52-1.3,.63v8.47c0,.17-1.05,.77-2.52,.77h-.53v-1.72h-9.52v1.58c0,.21-.95,.77-2.42,.77h-.52v-12.43l3.33,1.33h9.03l1.47-1.64Zm-2.87-4.52s1.96,1.54,3.12,2.66c-.11,.35-.42,.53-.91,.53h-10.92l-.28-.98h7.32l1.68-2.21Zm1.5,13.9v-6.72h-9.52v6.72h9.52Zm-4.13-24.22h3.22l.56-4.66,3.99,.94c-.07,.42-.38,.77-1.29,.77l-.35,2.94h.95l1.5-2.03s1.75,1.44,2.8,2.49c-.11,.38-.42,.56-.91,.56h-4.48l-.45,3.85c-.53,.45-1.68,.63-2.91,.38l.49-4.24h-2.84l-.28-1.01Z"/>
      <path class="cls-2" d="M354.7,26.5s2.07,1.61,3.26,2.8c-.11,.39-.38,.56-.91,.56h-5.18v5.04h.84l1.54-1.71,3.15,2.56c-.21,.28-.73,.56-1.43,.7v20.62c-.04,.28-1.44,.95-2.45,.95h-.45v-2.24h-8.47v1.86c0,.31-1.09,1.01-2.35,1.01h-.46v-25.06l2.98,1.33h.95v-5.04h-4.8l-.28-1.02h12.32l1.75-2.34Zm-1.64,28.25v-9.66c-.28,.04-.63,.04-1.02,.04h-.88c-1.43,0-1.68-.53-1.68-1.75v-7.46h-1.4v1.43c0,2.63-.25,6.58-3.47,9.28l-.03-.04v8.16h8.47Zm-8.47-18.83v9.63c1.58-2.73,1.61-5.78,1.61-8.19v-1.43h-1.61Zm5.7,11.1s1.33,1.12,2.17,2c-.1,.39-.42,.56-.88,.56h-5.95l-.28-1.02h3.75l1.19-1.54Zm-.8-17.15h-1.4v5.04h1.4v-5.04Zm1.96,6.06v6.76c0,.35,.07,.46,.32,.46h1.3v-7.21h-1.61Zm20.83,18.17c.98,.35,1.23,.73,1.23,1.33,0,1.37-1.44,2-7.18,2h-3.75c-3.19,0-3.96-.7-3.96-3.08v-17.12l3.54,1.4h5.67v-8.72h-8.93l-.32-1.02h8.86l1.64-1.82,3.54,2.7c-.25,.32-.88,.66-1.68,.84v11.41c-.04,.21-1.58,.84-2.59,.84h-.52v-3.22h-6.13v13.97c0,.63,.21,.88,1.5,.88h3.33c1.47,0,2.59-.04,3.04-.07,.46-.04,.63-.14,.8-.52,.35-.63,.84-2.7,1.37-5.01h.45l.07,5.22Z"/>
      <path class="cls-2" d="M381.59,46.13c2.07-1.19,3.01-2.7,3.46-4.52-1.82-.8-2.97-1.68-2.97-3.19,0-1.26,.88-2.34,2.41-2.34s2.66,1.16,2.66,3.33c0,2.66-1.26,6.06-4.97,7.84l-.59-1.12Z"/>
      <path class="cls-2" d="M412.98,47.36c-3.36,2-8.02,4.66-14.67,7.7-.14,.42-.45,.81-.84,.95l-1.92-3.96c1.16-.25,2.91-.7,4.97-1.29l-.35-22.61,4.62,.35c-.04,.49-.32,.88-1.26,1.01l.32,20.27c2.8-.88,5.95-1.86,9-2.87l.14,.46Zm13.23-18.62c-.07,.52-.49,.95-1.33,1.01-.32,7.46-.84,13.76-4.48,18.83,10.75,4.62,8.61,11.66,4.9,9.35-1.01-2.62-3.43-5.81-5.67-8.3-3.04,3.68-7.88,6.72-15.75,9.14l-.32-.6c16.38-7.35,17.4-16.38,17.68-29.93l4.97,.49Zm-18.38,3.43c10.82,3.57,8.26,10.71,4.73,8.23-.74-2.63-3.15-5.88-5.08-8.02l.35-.21Z"/>
      <path class="cls-2" d="M450.75,35.49c2.94,7.14,8.61,13.02,14.25,15.82l-.14,.38c-1.37,.17-2.56,1.23-3.12,2.87-5.29-3.78-9.28-10.19-11.59-18.66v21.6c0,.39-1.47,1.26-2.77,1.26h-.67v-18.24c-3.12,5.95-7.88,11.06-14.14,14.74l-.38-.42c5.85-4.83,10.4-12.32,12.6-19.36h-11.8l-.31-1.02h14.04v-8.26l4.69,.49c-.07,.49-.32,.84-1.26,.98v6.79h8.26l2.21-2.77s2.49,1.89,3.99,3.22c-.07,.38-.45,.56-.98,.56h-12.88Z"/>
      <path class="cls-2" d="M474.9,32.94c-.21,2.28-1.29,5.15-5.67,6.9l-.32-.49c2.77-2.31,3.05-5.15,3.05-7.56v-4.06l3.5,1.08c2.41-.8,4.97-1.82,6.44-2.55l2.87,2.83c-.39,.32-1.05,.28-1.89-.07-2.03,.35-5.11,.7-7.91,.84v2.07h6.23l1.64-2.03s1.89,1.43,3.01,2.49c-.07,.38-.42,.56-.91,.56h-3.78v4.52c-.04,.17-.98,.74-2.52,.74h-.53v-5.25h-3.22Zm-5.32,25.27c4.34-1.16,9.21-3.57,11.55-5.43l3.68,2.7c-.32,.35-.95,.42-1.89,.14-3.15,1.4-8.37,2.7-13.16,3.12l-.18-.53Zm28.11-28.46s2,1.51,3.19,2.63c-.07,.38-.42,.56-.91,.56h-4.59v4.45c-.04,.11-.59,.49-1.58,.67l2.84,2.14c-.21,.25-.7,.52-1.3,.63v11.73c-.03,.24-1.68,.88-2.76,.88h-.56v-1.44h-13.69v1.05c0,.28-1.43,1.05-2.8,1.05h-.53v-16.17l3.54,1.43h13.13l1.16-1.22h-.56v-5.18h-3.19c-.35,2-1.64,4.38-5.88,5.81l-.32-.46c2.98-2.13,3.33-4.69,3.33-6.9v-3.75l3.26,.98c2.52-.73,5.18-1.68,6.76-2.38l2.87,2.91c-.39,.31-1.05,.28-1.89-.11-2.03,.28-5.11,.6-7.98,.74v2.14h6.72l1.75-2.17Zm-19.36,10.61v2.84h13.69v-2.84h-13.69Zm0,3.82v2.87h13.69v-2.87h-13.69Zm13.69,6.79v-2.91h-13.69v2.91h13.69Zm-5.18,2.66c18.13,.52,12.22,6.93,8.89,4.58-1.72-1.33-4.8-2.97-9.03-4.1l.14-.49Z"/>
      <path class="cls-2" d="M520.53,33.6c-.24,.28-.77,.56-1.47,.74v21.11c-.04,.28-1.58,.98-2.66,.98h-.49v-2.7h-6.2v2.7c0,.35-1.19,1.12-2.52,1.12h-.53V31.29l3.22,1.47h.63c.32-1.86,.74-4.55,.98-6.48l4.83,1.16c-.17,.56-.63,.8-1.4,.8-.84,1.33-2.06,3.12-3.04,4.52h3.68l1.61-1.82,3.36,2.66Zm-10.82,.17v8.72h6.2v-8.72h-6.2Zm6.2,18.94v-9.21h-6.2v9.21h6.2Zm21.7-19.11c-.28,.32-.7,.53-1.5,.63-.25,13.58-.8,20.62-2.59,22.65-1.12,1.29-2.63,1.82-4.66,1.82,0-1.08-.17-1.92-.73-2.41-.6-.56-2-1.05-3.61-1.33l.04-.56c1.64,.17,4.09,.35,4.93,.35,.7,0,.98-.11,1.37-.46,1.3-1.26,1.72-8.61,1.96-20.58h-7.35c-1.61,2.91-3.5,5.46-5.6,7.35l-.49-.32c2.06-3.54,4.09-9.1,5.15-14.46l4.66,1.37c-.14,.42-.56,.73-1.33,.73-.53,1.51-1.16,2.94-1.86,4.31h6.44l1.89-2,3.29,2.91Zm-14.98,6.27c9.45,3.33,6.37,10.12,3.19,7.46-.28-2.42-1.96-5.36-3.5-7.25l.31-.21Z"/>
      <path class="cls-2" d="M549.86,31.12c-2.13,2.8-4.94,5.39-8.12,7.04l-.35-.35c3.08-2.7,5.81-7.46,7.04-11.62l4.97,.91c-.14,.42-.38,.56-1.33,.56-.42,.8-.95,1.64-1.5,2.45h16.63l2.03-2.52s2.24,1.65,3.71,2.98c-.1,.38-.45,.56-.98,.56h-22.09Zm3.61,9.87c-.17,.38-.49,.56-1.33,.46-1.82,2.7-5.25,5.74-9.21,7.53l-.35-.45c3.15-2.38,5.91-6.3,7.14-9.31l3.75,1.79Zm5.74,4.24l3.01,2.49c-.28,.28-.66,.46-1.37,.53-.28,5.78-.88,8.4-2.24,9.45-.88,.66-2.03,.98-3.36,.98,0-.84-.07-1.61-.49-2-.42-.38-1.26-.74-2.24-.95v-.52c.95,.07,2.52,.17,3.12,.17,.49,0,.77-.04,1.02-.28,.63-.53,1.01-2.8,1.29-7.28h-4.45c-.53,4.24-2.17,8.16-10.4,10.89l-.42-.53c6.44-3.08,7.39-6.69,7.63-10.36h-3.4l-.28-.98h10.99l1.58-1.61Zm14.28,10.22c.8,1.33,.98,2.21,.49,2.73-1.08,1.05-2.91,.21-4.06-1.01-3.92-3.29-4.9-11.03-5.08-18.8h-20.16l-.31-1.02h20.09l1.68-1.85,3.36,2.73c-.21,.25-.73,.49-1.43,.6-.11,5.46,.73,13.02,3.57,15.26,.35,.28,.56,.25,.7-.18,.42-.98,.8-2.13,1.12-3.33l.42,.07-.38,4.8Zm-8.68-21.7l1.93-2.34s2.17,1.61,3.54,2.8c-.07,.39-.46,.56-.95,.56h-20.2l-.28-1.02h15.96Zm-8.51,5.67c10.68,3.85,9.17,10.05,6.06,8.23-1.08-2.52-4.16-5.91-6.44-7.91l.38-.32Z"/>
      <path class="cls-2" d="M609.51,29.4c-.25,.31-.77,.56-1.5,.74v27.2c-.04,.28-1.58,1.12-2.8,1.12h-.52v-2.41h-21.53v1.44c0,.42-1.26,1.26-2.7,1.26h-.56V26.95l3.57,1.58h20.86l1.72-1.93,3.46,2.8Zm-4.83,25.62V29.54h-21.53v25.48h21.53Zm-2.66-19.88s1.37,1.05,2.24,1.89c-.11,.38-.42,.56-.88,.56h-19.29l-.28-1.01h5.88c.21-.7,.46-1.58,.7-2.49h-4.34l-.32-1.02h4.94c.28-.98,.53-1.96,.74-2.83l3.82,.63c-.07,.46-.56,.81-1.29,.84l-.35,1.37h3.71l1.37-1.37,2.73,2.07c-.14,.21-.56,.42-1.09,.53v2.28h.53l1.19-1.44Zm-.67,13.34s1.61,1.26,2.59,2.24c-.1,.38-.42,.56-.88,.56h-7.49v2.35c0,.14-.91,.7-2.38,.7h-.49v-3.05h-4.06l-1.15,1.23-2.7-1.93c.35-.25,.84-.49,1.29-.66,.31-.95,.63-2,.84-2.84h-1.86l-.28-1.02h7.91v-2.38h-3.08v.53c0,.21-1.26,.8-2.38,.8h-.39v-6.93l2.94,1.23h8.44l1.37-1.37,2.83,2.1c-.17,.21-.59,.46-1.08,.56v3.04c-.04,.25-1.44,.81-2.35,.81h-.49v-.77h-2.94v2.38h3.08l1.29-1.61s1.54,1.15,2.45,2.06c-.07,.39-.38,.56-.88,.56h-5.95v3.19h4.38l1.4-1.79Zm-8.65,1.79v-3.19h-3.01c-.28,.98-.67,2.17-.98,3.19h3.99Zm-3.08-7.6h8.89v-2.35h-8.89v2.35Zm3.68-8.58c-.25,.91-.53,1.75-.74,2.49h5.01v-2.49h-4.27Z"/>
      <path class="cls-2" d="M638.21,36.3c-.11,.32-.21,.63-.32,.95,9.91,2.38,8.47,8.86,5.15,7.18-.95-2.1-3.36-4.59-5.53-6.3-1.33,2.59-3.85,4.62-8.61,6.2l-.35-.52c4.03-1.96,5.78-4.41,6.58-7.49h-4.51l-.04-.14c-.17,.1-.39,.14-.67,.14h-5.67c-.11,.42-.21,.8-.32,1.19,7.88,1.08,6.13,6.69,3.19,5.08-.49-1.5-2.03-3.19-3.43-4.38-1.16,3.22-3.57,5.81-8.54,7.84l-.42-.56c4.2-2.49,5.88-5.46,6.58-9.17h-5.81l-.28-1.01h6.23c.17-1.16,.24-2.31,.31-3.57h-5.15l-.28-1.01h5.43c.04-1.37,.04-2.87,.04-4.45l4.31,.42c-.07,.46-.39,.8-1.16,.91-.04,1.08-.04,2.1-.11,3.12h.42l1.68-2.13s1.89,1.47,3.08,2.59c-.1,.38-.45,.56-.95,.56h-4.27c-.07,1.26-.17,2.42-.38,3.57h1.54l1.75-2.21s1.5,1.16,2.66,2.21h5c.21-1.12,.32-2.28,.39-3.57h-4.34l-.28-1.01h4.66v-4.45l4.41,.42c-.07,.46-.39,.8-1.16,.91-.04,1.08-.04,2.1-.11,3.12h.88l1.75-2.24s2,1.54,3.29,2.7c-.11,.38-.45,.56-.95,.56h-4.97c-.1,1.3-.21,2.45-.46,3.57h2.49l1.79-2.31s2.03,1.58,3.29,2.77c-.11,.38-.46,.56-.95,.56h-6.9Zm.35,6.44l3.47,2.7c-.21,.28-.74,.6-1.44,.74v11.41c-.04,.25-1.68,.88-2.8,.88h-.53v-2.1h-13.27v1.26c0,.31-1.44,1.05-2.77,1.05h-.52v-15.58l3.5,1.47h12.71l1.65-1.82Zm-14.56,2.84v4.3h13.27v-4.3h-13.27Zm13.27,9.8v-4.52h-13.27v4.52h13.27Z"/>
      <path class="cls-2" d="M657.91,39.03c0,6.2-.46,14.25-7,19.6l-.46-.31c3.78-5.64,4.2-12.71,4.2-19.29v-10.43l3.08,1.19c6.72-.77,14.91-2.24,19.36-3.54l3.25,3.33c-.38,.32-1.12,.32-2.13-.11-5.32,.63-13.34,1.09-20.3,1.05v2.42h18.13l1.58-1.71,3.47,2.55c-.21,.28-.7,.56-1.37,.7v4.94c-.04,.25-1.68,.91-2.8,.91h-.56v-1.37h-18.45v.07Zm20.97,2.49s2.06,1.58,3.36,2.76c-.11,.39-.49,.56-.95,.56h-13.16c-.11,1.19-.28,2.31-.56,3.46h7.56l1.75-1.64,3.19,2.62c-.21,.28-.66,.46-1.37,.53-.38,4.09-1.19,6.79-2.66,7.74-.98,.63-2.28,.98-3.92,.98,0-.91-.14-1.75-.63-2.21-.53-.49-1.79-.91-3.19-1.12v-.49c1.4,.1,3.75,.28,4.45,.28,.59,0,.91-.07,1.19-.25,.63-.49,1.15-2.52,1.47-5.43h-8.16c-1.15,3.61-3.96,6.93-10.92,9.42l-.35-.53c7.49-4.03,8.23-8.75,8.4-13.37h-5.53l-.28-1.02h11.27c-.28-.03-.59-.14-.91-.35-.32-1.3-1.33-2.8-2.13-3.68l.31-.21c5.95,.39,5.29,3.96,3.29,4.24h6.65l1.82-2.31Zm-20.97-7.56v3.99h18.45v-3.99h-18.45Z"/>
      <path class="cls-2" d="M692.24,38.54v18.97c0,.46-1.19,1.26-2.73,1.26h-.56V27.27l3.43,1.51h5.67l1.47-1.61,3.25,2.42c-.21,.25-.7,.53-1.33,.63v9.28c-.04,.21-1.58,.88-2.59,.88h-.49v-1.82h-6.13Zm0-8.75v3.36h6.13v-3.36h-6.13Zm6.13,7.77v-3.46h-6.13v3.46h6.13Zm11.48,16.77c-.04,.28-1.58,.98-2.62,.98h-.49v-2h-7.11v1.4c0,.31-1.29,.98-2.59,.98h-.46v-14.46l3.19,1.37h6.62l1.54-1.65,3.22,2.42c-.21,.28-.7,.56-1.29,.67v10.29Zm-10.22-10.75v3.78h7.11v-3.78h-7.11Zm7.11,8.75v-3.99h-7.11v3.99h7.11Zm12.32-22.72c-.25,.28-.77,.59-1.44,.74v24.22c0,2.42-.49,3.82-4.45,4.17-.11-1.02-.28-1.86-.7-2.38-.53-.49-1.26-.88-2.83-1.15v-.53s3.22,.25,3.88,.25c.63,0,.77-.25,.77-.74v-15.65h-6.37v.7c0,.32-1.36,1.05-2.7,1.05h-.46v-12.88l3.33,1.37h5.85l1.58-1.86,3.54,2.7Zm-11.13,.17v3.36h6.37v-3.36h-6.37Zm6.37,7.77v-3.46h-6.37v3.46h6.37Z"/>
      <path class="cls-2" d="M752.62,38.33l3.19,3.12c-.25,.25-.63,.32-1.29,.35-1.05,.98-2.84,2.34-4.1,3.15l-.38-.21c.28-.94,.63-2.38,.88-3.57h-9.42v4.45h5.15l1.61-1.89,3.71,2.8c-.25,.32-.8,.67-1.61,.81v5.7c0,2.07-.53,3.22-4.34,3.57-.07-.88-.21-1.58-.59-2.03-.46-.42-1.12-.77-2.56-.98v-.49s2.77,.21,3.46,.21c.56,0,.7-.21,.7-.67v-6.02h-5.53v11.2c-.04,.21-1.08,.98-2.73,.98h-.56v-12.18h-5.39v9.14c0,.28-1.44,1.02-2.73,1.02h-.49v-12.64l3.5,1.47h5.11v-4.45h-9.59c.14,2.1-.6,3.68-2.1,4.38-2.31,1.09-3.89-1.68-1.33-3.01,.98-.49,2.24-1.96,2.34-4.2-.91,.38-1.96,.77-3.15,1.12l-.28-.42c3.75-1.71,4.9-4.2,5.15-6.69h-4.94l-.28-1.02h5.25v-4.79l4.17,.42c-.07,.46-.32,.77-1.12,.88v3.5h2.7v-4.73l4.13,.42c-.07,.46-.35,.77-1.23,.91v3.4h3.22v-4.73l4.17,.42c-.07,.46-.38,.77-1.23,.91v3.4h2.56v-4.79l3.99,.38c-.07,.46-.38,.77-1.05,.84v3.57h1.86l1.61-2.45s1.89,1.72,2.94,2.91c-.1,.38-.45,.56-.91,.56h-5.5v2.7c0,.38,.07,.49,.63,.49h2.28c.17,0,.46,0,.63-.03,.21,0,.49-.07,.7-.14h.32l.17,.07c.8,.32,1.09,.59,1.09,1.16,0,1.12-1.16,1.58-4.38,1.58h-1.79c-2.28,0-2.59-.67-2.59-2.49v-3.33h-2.56v5.71c0,.25-1.3,.77-2.38,.77h-.56v-1.54h-3.22v1.08c0,.25-1.26,.77-2.35,.77h-.56v-6.79h-2.77c-.28,2.13-1.33,4.27-4.52,5.88h.28c.25,.66,.38,1.3,.49,1.93h22.23l1.89-1.82Zm-14.7-5.99v3.92h3.22v-3.92h-3.22Z"/>
      <path class="cls-2" d="M28.75,71.1l4.38,3.19c-.63,.74-2.13,1.16-4.09,1.37v1.4c1.08,10.82,6.58,18.38,16.66,22.51l-.14,.42c-1.68,.14-2.77,1.19-3.43,3.05-5.18-2.94-10.85-9.56-12.53-17.5-2.45,7.88-8.3,14.11-16.31,17.47l-.32-.46c7.7-4.2,14-13.72,14.98-25.52v-2.35h-8.12l-.25-1.01h7.53l1.65-2.56Z"/>
      <path class="cls-2" d="M77.96,86.12s2.49,1.82,3.96,3.15c-.07,.38-.46,.56-.98,.56h-13.69v12.18c0,.25-1.05,.98-2.8,.98h-.59v-13.16h-14.18l-.28-1.01h14.46v-14.53h-12.5l-.32-1.02h23.24l2.17-2.59s2.49,1.79,3.99,3.05c-.07,.39-.46,.56-.95,.56h-12.25v14.53h8.51l2.21-2.7Zm-23.49-9.77c9.14,5.29,5.81,12.53,2.56,9.42-.18-3.05-1.61-6.65-2.98-9.21l.42-.21Zm15.4,10.29c1.29-2.56,2.91-6.69,4.03-10.36l4.62,1.71c-.14,.39-.59,.7-1.37,.63-1.96,3.19-4.41,6.23-6.83,8.33l-.46-.31Z"/>
      <path class="cls-2" d="M91.43,82.76v-3.22h-4.1l-.28-1.01h4.38v-3.05h-4.97l-.28-1.02h5.25v-4.03l4.34,.42c-.07,.49-.38,.81-1.23,.95v2.66h1.72l1.58-2.07s1.85,1.44,3.01,2.52c-.1,.38-.46,.56-.91,.56h-5.39v3.05h1.51l1.43-1.86s1.65,1.29,2.66,2.31c-.1,.38-.42,.56-.91,.56h-4.69v3.22h2.38l1.61-2.07s1.86,1.44,3.01,2.52c-.1,.38-.46,.56-.95,.56h-14.88l-.28-1.02h5.99Zm25.06,2.73s1.37,1.29,2.17,2.24c-.11,.38-.42,.56-.88,.56h-2.49v6.27c-.04,.21-1.44,.84-2.38,.84h-.49v-1.82h-3.12v5.18c0,2.24-.52,3.85-4.17,4.2-.04-.98-.25-1.79-.67-2.24-.49-.56-1.29-.91-2.94-1.12v-.53s3.4,.25,4.1,.25c.63,0,.77-.21,.77-.67v-5.08h-4.66l-.31-1.02h4.97v-4.27h-5.7l-.21-.8c-.21,.25-.7,.53-1.37,.66v11.31c0,2.03-.42,3.15-3.75,3.46-.04-.77-.18-1.47-.56-1.89-.38-.38-.98-.7-2.17-.91v-.53s2.38,.17,2.94,.17c.52,0,.63-.17,.63-.63v-3.99h-6.09c-.32,2.73-1.29,5.71-4.17,7.77l-.39-.35c1.79-3.15,1.79-7.18,1.79-10.71v-6.62l3.47,1.37h5.04l1.4-1.61,3.22,2.49-.07-.21h5.99v-4.06h-4.34l-.32-1.01h10.36l1.43-1.51,2.98,2.28c-.17,.25-.63,.46-1.22,.59v3.71l1.19-1.79Zm-20.27,8.65v-2.73h-5.92v.46c0,.7,0,1.47-.07,2.28h5.99Zm-5.92-6.51v2.77h5.92v-2.77h-5.92Zm26.88-14.25c-.35,.31-1.05,.35-1.96,0-3.57,.59-9.35,1.01-14.11,.95l-.14-.6c4.48-.67,10.08-2.21,12.95-3.36l3.25,3.01Zm-15.4,2.13c6.09,2.77,3.36,7.25,1.19,5.22,0-1.68-.84-3.71-1.61-5.01l.42-.21Zm4.45-.38c6.13,2.8,3.36,7.56,1.19,5.46,.17-1.75-.67-3.96-1.61-5.29l.42-.17Zm3.08,12.15h3.12v-4.06h-3.12v4.06Zm3.12,1.01h-3.12v4.27h3.12v-4.27Zm-1.68-6.97c.84-1.75,1.86-4.51,2.62-7.04l3.99,1.54c-.14,.42-.59,.7-1.33,.63-1.43,1.93-3.18,3.89-4.79,5.15l-.49-.28Z"/>
      <path class="cls-2" d="M151.53,84.16c-.24,.38-.63,.46-1.47,.52-1.44,3.99-3.5,7.49-6.44,10.4,3.15,2.21,6.83,3.82,10.82,4.87l-.1,.39c-1.44,.17-2.52,1.15-3.08,2.66-3.78-1.47-7.04-3.43-9.7-6.09-3.5,2.77-8.05,4.8-13.97,6.02l-.28-.49c5.25-1.71,9.42-4.2,12.57-7.35-2.38-2.91-4.2-6.55-5.32-11.03h-1.92c-1.08,7.35-3.64,13.72-9.98,18.48l-.35-.32c6.44-7.7,7.6-17.43,7.56-28.07h-6.02l-.32-1.01h17.89l1.47-1.65,3.33,2.59c-.25,.31-.56,.42-1.22,.49l-1.16,8.47h2.42l2.03-1.89,3.25,3.01Zm-18.13-10.01c-.1,3.08-.25,6.06-.63,8.89h7.7l1.12-8.89h-8.19Zm1.86,9.91c1.29,3.78,3.47,6.86,6.2,9.31,2.28-2.7,3.89-5.81,4.94-9.31h-11.13Z"/>
      <path class="cls-2" d="M163.36,77.16c.32,2.35-.38,4.03-1.37,4.83-.95,.77-2.52,.67-3.01-.49-.42-1.05,.17-2,1.08-2.49,1.12-.81,2.21-2.8,1.92-4.83h.56c.28,.7,.49,1.33,.63,1.96h12.04c-.35-.07-.74-.28-1.16-.6-.1-1.75-1.22-3.78-2.52-4.94l.28-.25c7.21,.91,6.55,5.29,4.27,5.78h9.59l1.93-1.93,3.36,3.26c-.28,.28-.67,.35-1.33,.38-1.09,1.22-2.98,2.84-4.48,3.78l-.32-.21c.32-1.16,.77-2.87,1.05-4.27h-22.54Zm23.66,6.37s2.31,1.68,3.71,2.91c-.11,.38-.45,.56-.95,.56h-7.18c-.84,3.43-2.28,6.41-4.79,8.86,13.3,3.78,9,8.44,5.74,6.69-2.03-1.47-4.83-3.08-8.4-4.59-3.46,2.28-8.4,3.96-15.44,4.97l-.21-.46c5.88-1.44,10.08-3.29,13.06-5.6-2.77-1.09-5.88-2.1-9.24-3.01,.98-1.64,2.28-4.24,3.54-6.86h-7.25l-.25-1.01h7.95c1.4-2.98,2.63-5.95,3.15-7.63l4.83,1.54c-.17,.38-.46,.7-1.5,.63-.67,1.4-1.61,3.36-2.7,5.46h7.91c.28-1.37,.42-2.77,.53-4.27l5.11,1.05c-.17,.56-.63,.8-1.37,.8-.1,.81-.25,1.61-.42,2.42h2.14l2.03-2.45Zm-16.45,3.46c-1.16,2.35-2.49,4.73-3.68,6.65,2.98,.45,5.5,.88,7.7,1.37,2.21-2.31,3.5-5.04,4.2-8.02h-8.23Z"/>
      <path class="cls-2" d="M212.89,98.72c1.71,.21,3.6,.28,5.81,.28,2,0,6.65,0,8.93-.07v.46c-1.23,.28-1.82,1.47-1.86,2.83h-7.28c-8.09,0-12.6-1.54-15.26-8.12-1.58,3.43-4.1,6.65-8.12,8.89l-.35-.39c4.66-4.13,6.48-10.57,6.97-16l4.66,.88c-.11,.53-.53,.8-1.33,.84-.32,1.61-.81,3.22-1.4,4.8,1.4,2.62,3.29,4.06,5.92,4.9v-14.88h-9.91l-.28-1.01h18.76l1.96-2.31s.56,.42,1.33,1.02c.32-1.02,.74-2.45,1.02-3.61h-22.12c.14,2.42-.77,4.09-1.96,4.8-1.09,.7-2.76,.45-3.22-.84-.35-1.19,.35-2.1,1.43-2.62,1.26-.67,2.7-2.38,2.59-4.31h.49c.24,.66,.42,1.33,.52,1.96h22.09l1.89-1.96,3.4,3.25c-.32,.28-.66,.32-1.4,.39-1.01,1.08-2.84,2.45-4.27,3.29,.6,.46,1.26,.95,1.79,1.4-.1,.38-.49,.56-.98,.56h-9.8v6.55h5.18l1.93-2.45s2.21,1.68,3.5,2.91c-.07,.38-.42,.56-.95,.56h-9.66v8.02Zm-4.38-28.28c8.79,.77,5.6,7.56,2.2,5.04-.14-1.72-1.22-3.68-2.52-4.8l.32-.25Z"/>
      <path class="cls-2" d="M246.84,77.82c-.24,.28-.77,.56-1.47,.74v21.11c-.04,.28-1.58,.98-2.66,.98h-.49v-2.7h-6.2v2.7c0,.35-1.19,1.12-2.52,1.12h-.53v-26.25l3.22,1.47h.63c.32-1.86,.74-4.55,.98-6.48l4.83,1.16c-.17,.56-.63,.8-1.4,.8-.84,1.33-2.06,3.12-3.05,4.52h3.68l1.61-1.82,3.36,2.66Zm-10.82,.17v8.72h6.2v-8.72h-6.2Zm6.2,18.94v-9.21h-6.2v9.21h6.2Zm21.7-19.11c-.28,.32-.7,.53-1.5,.63-.25,13.58-.8,20.62-2.59,22.65-1.12,1.29-2.63,1.82-4.66,1.82,0-1.08-.17-1.92-.73-2.41-.6-.56-2-1.05-3.61-1.33l.04-.56c1.64,.17,4.09,.35,4.93,.35,.7,0,.98-.11,1.37-.45,1.3-1.26,1.72-8.61,1.96-20.58h-7.35c-1.61,2.91-3.5,5.46-5.6,7.35l-.49-.32c2.06-3.54,4.09-9.1,5.15-14.46l4.66,1.37c-.14,.42-.56,.73-1.33,.73-.53,1.51-1.16,2.94-1.86,4.31h6.44l1.89-2,3.29,2.91Zm-14.98,6.27c9.45,3.33,6.37,10.12,3.19,7.46-.28-2.42-1.96-5.36-3.5-7.25l.31-.21Z"/>
      <path class="cls-2" d="M299.27,99.1c1.01,1.92,1.19,2.94,.63,3.36-1.4,1.16-3.85-.38-5.11-1.96-2.31-2.8-3.92-6.23-5.01-10.15-1.54,1.09-3.29,1.93-5.11,2.59l-.35-.45c1.75-1.05,3.46-2.42,5-4.06-.84-3.82-1.29-7.95-1.47-12.29h-14.49v6.58c0,5.71-.25,14-5.32,19.6l-.46-.32c2.63-5.85,2.8-13.09,2.8-19.29v-9l3.5,1.4h13.9c-.04-1.58-.07-3.15-.07-4.8l4.55,.49-.07-.07,.35-.25c5.95,1.16,3.46,5,1.37,3.33-.17-1.05-.91-2.2-1.61-2.94-.07,.42-.38,.77-1.26,.91-.04,1.12-.04,2.2,0,3.33h4.66l1.65-2.24s1.85,1.58,2.97,2.7c-.1,.38-.46,.56-.91,.56h-8.37c.07,3.04,.31,6.12,.8,9,1.29-2,2.38-4.3,3.12-6.86l4.24,1.68c-.17,.42-.59,.7-1.37,.59-1.43,3.22-3.22,5.74-5.36,7.74,.91,3.61,2.31,6.76,4.45,9.1,.49,.59,.7,.59,1.02-.11,.46-.88,1.19-2.55,1.71-4.03l.42,.07-.8,5.78Zm-25.06-5.81c1.08,3.33,.66,5.95-.21,7.11-.63,.7-1.96,.91-2.49,.14-.42-.77-.04-1.61,.7-2.17,.84-.91,1.61-3.15,1.37-5.08h.63Zm10.5-16.14s1.89,1.47,3.12,2.59c-.11,.39-.46,.56-.95,.56h-12.36l-.28-1.01h8.72l1.75-2.14Zm-6.65,13.16c0,.25-1.33,.91-2.52,.91h-.42v-9.84l3.08,1.26h4.76l1.47-1.54,3.15,2.38c-.17,.25-.7,.52-1.29,.63v5.43c-.04,.25-1.54,.8-2.49,.8h-.53v-1.33h-5.21v1.3Zm8.12,8.96c.77,.28,.95,.63,.95,1.12,0,1.09-1.08,1.65-5.43,1.65h-2.7c-2.52,0-2.94-.59-2.94-2.35v-7.63l3.61,.35c-.03,.45-.38,.77-1.01,.88v5.74c0,.42,.1,.53,.98,.53h2.24c1.05,0,1.82,0,2.13-.04,.32,0,.42-.07,.59-.38,.28-.49,.63-2.03,1.05-3.75h.42l.1,3.88Zm-8.12-15.61v4.34h5.21v-4.34h-5.21Zm1.92,7.14c6.3,3.22,3.54,7.84,1.4,5.71,.04-1.79-.91-4.06-1.82-5.46l.42-.25Zm6.55,2.07c6.65,3.89,4.03,8.96,1.71,6.79-.04-2.17-1.12-4.83-2.17-6.58l.46-.21Z"/>
      <path class="cls-2" d="M309.31,83c.24,2.49-.7,4.2-1.89,4.83-1.08,.67-2.45,.42-2.87-.63-.35-1.08,.31-1.92,1.22-2.41,1.3-.7,2.42-2.62,2.17-4.76l.52-.04c.32,.7,.53,1.4,.67,2.03h16.24c1.22-2.13,2.52-5.11,3.25-7.28l4.76,1.58c-.14,.42-.56,.7-1.37,.63-1.33,1.54-3.5,3.54-5.64,5.08h5.53l1.89-1.89,3.33,3.15c-.28,.28-.67,.35-1.37,.38-1.19,1.12-3.25,2.62-4.83,3.5l-.35-.25c.46-1.05,1.05-2.66,1.43-3.92h-22.72Zm22.09,5.67c-.28,.35-.67,.46-1.54,.52-1.65,2.73-3.78,5.08-6.41,7.04,3.92,1.68,8.51,2.62,13.3,3.15l-.07,.42c-1.5,.35-2.52,1.5-2.97,3.22-4.97-1.02-9.35-2.59-12.88-5.04-4.31,2.49-9.66,4.16-16.1,5.01l-.17-.53c5.6-1.33,10.43-3.36,14.25-6.06-2.31-2.07-4.17-4.66-5.5-7.88h-3.89l-.31-.98h16.87l2.21-1.93,3.22,3.05Zm1.82-15.02c-.38,.35-1.12,.35-2.1-.11-6.44,.98-16.35,1.89-24.82,2.03l-.11-.66c8.12-.84,18.41-2.8,23.84-4.45l3.19,3.19Zm-23,2.06c7.88,2.21,4.69,7.88,1.82,5.46-.1-1.82-1.19-3.89-2.17-5.22l.35-.25Zm3.85,12.81c1.58,2.66,3.89,4.76,6.69,6.37,2.17-1.86,3.92-3.99,5.18-6.37h-11.87Zm3.89-13.41c7.63,2.7,4.2,8.33,1.47,5.81,0-1.96-.91-4.17-1.85-5.64l.38-.17Z"/>
      <path class="cls-2" d="M343.15,86.71c0-2.73,2.24-4.94,4.97-4.94s4.94,2.21,4.94,4.94-2.2,4.97-4.94,4.97-4.97-2.24-4.97-4.97Zm1.26,0c0,2.03,1.65,3.71,3.71,3.71s3.67-1.68,3.67-3.71-1.64-3.67-3.67-3.67-3.71,1.64-3.71,3.67Z"/>
    </g>
  </g>
</svg>