<?xml version="1.0" encoding="utf-8"?>
<!-- Generator: Adobe Illustrator 27.0.0, SVG Export Plug-In . SVG Version: 6.00 Build 0)  -->
<svg version="1.1" id="圖層_1" xmlns="http://www.w3.org/2000/svg" xmlns:xlink="http://www.w3.org/1999/xlink" x="0px" y="0px"
	 viewBox="0 0 680.4 187.2" style="enable-background:new 0 0 680.4 187.2;" xml:space="preserve">
<style type="text/css">
	.st0{fill:#FFF100;}
</style>
<g>
	<g id="_圖層_2">
		<g id="_圖層_1-2">
			<g>
				<g>
					<path class="st0" d="M58.8,72.5c-4.3,2.5-9.4,4.1-15.9,4.1c-15.5,0-27.9-9.1-27.9-27.6s13.2-27.5,28.4-27.5
						c6,0,10.3,1.5,14.8,4L58,38.2h-4.1l-3.8-13.4c-1.6-0.5-3.3-0.7-5.1-0.7c-9.8,0-17.5,7.7-17.5,24.9s7.6,24.8,17.8,24.8
						c2,0,3.7-0.3,5.5-0.9l3.7-13.1h4.1C58.5,59.9,58.8,72.5,58.8,72.5z"/>
					<path class="st0" d="M116.4,72.8v2.4H92.5v-2.4l6.2-0.7l-4.3-13.5H78.4l-3.8,13.3l6.6,0.9v2.4h-16v-2.4l5.8-0.8l15.8-49.3H94
						l16.8,49.5L116.4,72.8L116.4,72.8z M93.7,56.1l-7.6-23.9l-7,23.9C79.1,56.2,93.7,56.2,93.7,56.1z"/>
					<path class="st0" d="M145.8,44.1c10.4,4.7,14.3,8.9,14.3,16.8c0,9.3-7.1,15.7-20.2,15.7c-5.7,0-12.1-1.5-16.3-4.2l0.5-12h4.1
						l3.7,12.2c2.1,0.8,4.2,1.1,6.9,1.1c6.9,0,10.8-3.3,10.8-8.8c0-4.8-2-7.3-7.6-9.7l-3.4-1.5c-9.4-4.2-14.3-8.9-14.3-17.3
						c0-9.5,7.6-14.8,19-14.8c5.5,0,10.4,1.5,14.2,4l-0.6,11.4h-4.1l-3.6-11.6c-1.4-0.6-2.8-0.8-4.6-0.8c-6.1,0-10,3.1-10,8.3
						c0,4.8,2.7,7.4,7.6,9.7L145.8,44.1L145.8,44.1z"/>
					<path class="st0" d="M191.1,44.1c10.4,4.7,14.3,8.9,14.3,16.8c0,9.3-7.1,15.7-20.2,15.7c-5.7,0-12.1-1.5-16.3-4.2l0.5-12h4.1
						l3.7,12.2c2.1,0.8,4.2,1.1,6.9,1.1c6.9,0,10.8-3.3,10.8-8.8c0-4.8-2-7.3-7.6-9.7l-3.4-1.5c-9.4-4.2-14.4-8.9-14.4-17.3
						c0-9.5,7.6-14.8,19-14.8c5.5,0,10.4,1.5,14.2,4L202,36.9H198l-3.6-11.6c-1.4-0.6-2.8-0.8-4.6-0.8c-6.1,0-10,3.1-10,8.3
						c0,4.8,2.7,7.4,7.6,9.7C187.4,42.4,191.1,44.1,191.1,44.1z"/>
					<path class="st0" d="M232.3,25.8c-0.1,7.1-0.1,14.4-0.1,21.7v3c0,7.2,0,14.4,0.1,21.6l6.2,0.6v2.4h-24.7v-2.4l6.3-0.6
						c0.2-7.1,0.2-14.3,0.2-21.6v-3.1c0-7.3,0-14.5-0.2-21.7l-6.3-0.6v-2.4h24.7v2.4L232.3,25.8L232.3,25.8z"/>
					<path class="st0" d="M299.7,25.3l-6.4,0.9l-0.5,49.1h-6.2l-30.9-43.5l0.4,40l9.4,1.1v2.4h-19.5v-2.4l6.4-1l0.4-44l-1.3-2
						l-5-0.6v-2.4h16.9L290,59.6l-0.4-33.3l-9.3-1v-2.4h19.3L299.7,25.3L299.7,25.3z"/>
					<path class="st0" d="M353.4,72.8v2.4h-23.9v-2.4l6.2-0.7l-4.3-13.5h-16.1l-3.9,13.3l6.6,0.9v2.4h-16v-2.4l5.8-0.8l15.8-49.3
						h7.3l16.8,49.5L353.4,72.8L353.4,72.8z M330.7,56.1l-7.6-23.9l-7,23.9C316.1,56.2,330.7,56.2,330.7,56.1z"/>
					<path class="st0" d="M437.6,34.8c0,0,5.2,4,8.3,6.8c-0.2,0.8-0.9,1.1-2,1.1h-35.6c-0.3,0.7-0.9,1-1.9,1h-9.2v35.5
						c0,0.7-3.6,2.4-6.9,2.4h-1.8V55c-2.9,5.5-6.1,11.1-9.3,15.5l-1-0.4c1.3-6.3,3.4-16.6,5-24.8l5.2,1.9v-3.4h-9.3l-0.6-2h9.9v-5.7
						c-0.9,3.5-4.3,5-7.2,1.8c0.4-5.2-0.8-11.1-2.1-15.6l0.8-0.3c5.3,3.4,7.8,7.1,8.5,10.4V15.2l11.2,1.1c-0.2,1-0.7,1.8-2.6,2V38
						c0.8-4.3,1.9-11,2.9-16.6l8.2,2.9l-0.1-0.5h11v-8.6l11.8,1c-0.1,0.9-0.6,1.5-2.2,1.8v5.8h2.9L436,18c0,0,5.1,4,8.1,6.7
						c-0.2,0.8-0.9,1.1-2,1.1h-13.6v6.3h1.4l4.1-5.5c0,0,4.8,3.7,7.6,6.3c-0.2,0.8-0.9,1.1-1.9,1.1h-11.2v6.7h4.4L437.6,34.8
						L437.6,34.8z M401.3,36.5c0,0,3.8,3.2,6.4,5.6l-0.4-1.4h11.8v-6.7h-8l-0.6-2h8.5v-6.3h-9.9c-0.5,0.4-1.2,0.6-2.1,0.5
						c-2.7,4.2-6,9-9,12.5l-1-0.5v3.4h0.4C397.5,41.8,401.3,36.5,401.3,36.5z M398.1,47c16,9.9,8.2,23.5,1.8,16.8
						c0.3-5.5-1.1-11.8-2.7-16.5L398.1,47z M434.2,43.3l8.6,6.4c-0.5,0.6-1.4,1.2-2.9,1.5v19.8c0,5.8-1.3,9-10.6,9.9
						c-0.1-2.8-0.4-4.9-1.3-6.2c-0.8-1.3-2-2.2-4.9-2.8v-0.9c0,0,5.3,0.3,6.6,0.3c1,0,1.3-0.4,1.3-1.3v-4.7h-12.6
						c-0.6,6.1-3.4,12.3-13.6,16.5l-0.5-0.6c4.9-5.5,5.2-12.7,5.2-20V44.2l10.4,3.6h10.4C430.2,47.8,434.2,43.3,434.2,43.3z
						 M430.9,63.4v-5.9h-12.4v3.8c0,0.7,0,1.4-0.1,2.1L430.9,63.4L430.9,63.4z M418.5,49.8v5.8h12.4v-5.8H418.5z"/>
					<path class="st0" d="M476.2,46.5l8.8,6.8c-0.4,0.6-1.3,1.2-2.7,1.5v22.4c-0.1,0.6-4.7,2.7-8,2.7h-1.7v-6.2h-7.7V78
						c0,0.9-4.1,3.1-8.2,3.1h-1.4V47.4l9.9,3.8h6.6C471.8,51.2,476.2,46.5,476.2,46.5z M472.5,71.6V53.2h-7.7v18.4H472.5z
						 M476.1,44.1c0,0.9-4.5,3.2-8.7,3.2h-1.5V16.8l10.6,4.1h16.4l4.5-4.9l9.2,6.9c-0.4,0.6-1.3,1.3-2.8,1.5v19.4
						c-0.1,0.6-4.9,2.7-8.4,2.7h-1.8v-6h-17.5L476.1,44.1L476.1,44.1z M476.1,22.8v15.8h17.5V22.8C493.6,22.8,476.1,22.8,476.1,22.8
						z M517.8,53.3c-0.4,0.6-1.3,1.2-2.8,1.5v23c-0.1,0.6-5,2.2-8.3,2.2h-1.7v-6.5h-8.3V78c0,0.9-4.1,3.1-8.2,3.1h-1.4V47.4l9.9,3.8
						h7.2l4.4-4.8L517.8,53.3z M505.1,71.6V53.2h-8.3v18.4H505.1z"/>
					<path class="st0" d="M584,33.3c0,0,4.8,3.9,7.6,6.7c-0.2,0.8-0.9,1.1-1.9,1.1h-4.3v30.2c0,5.9-1.5,9.9-11.1,10.6
						c-0.1-2.8-0.4-5-1.5-6.3c-0.9-1.3-2.2-2.2-5.7-2.9v-0.8c0,0,6.4,0.3,7.8,0.3c1,0,1.3-0.4,1.3-1.2V41h-4.6l-0.1-0.6
						c-0.3,0.4-1,0.8-2.1,1v8.2c-0.1,0.5-3.9,1.8-6.5,1.9v4.9h0.7l3.4-4.8c0,0,3.7,3.4,5.9,5.6c-0.1,0.8-0.8,1.1-1.8,1.1H563v8.7h1
						l4.1-5.2c0,0,4.5,3.6,7.3,6.1c-0.2,0.8-0.9,1.1-1.9,1.1H563v10.8c0,0.4-2.7,1.9-7.2,1.9h-1.6V69.1h-3.6l-2.9,3.4l-7.1-4.3v11.2
						c-0.1,0.6-3.8,2.4-7.4,2.4h-1.7V51.7c-2,2-4.1,3.8-6.2,5.5l-0.7-0.6c5-8,9.6-20,11.5-27.3l8.4,4.1h3.3c0.3-2.2,0.8-4.9,1.2-7.8
						h-4.5l-0.6-2h5.3c0.4-2.8,0.8-5.7,1-8.2l10.6,1.2c-0.2,1.1-1.1,1.9-2.7,2.1l-0.7,4.9h2.4l4-4.2l8,6c-0.4,0.6-1.4,1.1-2.9,1.4
						v4.8l2.2-3.4c0,0,3.8,3.6,5.9,6c-0.1,0.8-0.8,1.1-1.8,1.1h-10.2l6.6,4.8l-0.3-1.1h8.7L584,33.3L584,33.3z M545.1,20.5
						c-0.3,0.7-0.9,1.2-2.7,1.1c-3.8,4.8-10.3,10.8-17,14.8l-0.6-0.6c3.9-6,7.6-15,9.2-20.5L545.1,20.5z M554.1,56.5v-6.2h-0.4
						c0,0.6-3.8,2.5-7.3,2.5h-1.2V35.7c-0.3,0-0.7,0.1-1.2,0c-1.5,2.4-3.4,5.1-5.5,7.8l4.1,1.5c-0.3,0.6-0.9,1.1-2.2,1.3v21.4
						c0.6-0.6,1.5-1.1,2.3-1.4c0.6-2.5,1.3-5.7,1.7-7.9h-2.7l-0.6-2C541.3,56.5,554.1,56.5,554.1,56.5z M563.6,35.4h-17.4l-0.3,0.1
						l8,3.1h6.5L563.6,35.4z M554.1,58.5h-1.7c-0.5,2.5-1.3,5.9-2,8.7h3.7V58.5z M561.1,48.4v-7.8h-7.4v7.8H561.1z M557.1,25.6
						c-0.4,2.8-0.8,5.7-1.2,7.8h4.5v-7.8H557.1z M571.5,24.4l-0.6-2h6.7l4.3-5.5c0,0,4.8,3.8,7.7,6.4c-0.1,0.8-0.9,1.1-1.9,1.1
						H571.5z"/>
					<path class="st0" d="M597.4,31.1c19.5,2.8,11.1,17.5,3.5,11.4c-0.2-3.9-2-8.3-4.1-11.1C596.8,31.4,597.4,31.1,597.4,31.1z
						 M618.1,26c-2.5,9-6.7,25.3-7.5,29.5c-0.6,2.5-1,5.2-1,7c0.2,4.1,3.4,6.4,3.2,12.9c-0.1,3.8-2.7,6.3-6.5,6.3
						c-1.8,0-3.7-0.9-4.3-3.7c1.4-7.4,1.1-14.6-0.6-15.8c-1-0.7-2.2-1-3.7-1.2v-1.3h3.2c1.1,0,1.4,0,2.2-1.5
						c1-1.8,5.7-12.7,14.1-32.6C617,25.7,618.1,26,618.1,26z M601.9,15.8c20.4,2.9,12.2,18.1,4.2,12c-0.6-4.1-2.8-8.6-4.8-11.7
						L601.9,15.8z M645.3,32c-0.3,0.9-1,1.4-3.3,1.6c4.8,7.7,15.3,12.9,23.2,15.1l-0.1,1c-4,1.3-6.5,5.4-7.1,9.2
						c-0.6-0.4-1.3-0.9-2-1.4l-0.6,0.1V79c0,0.3-3,2-8.2,2h-1.8v-5.5H631v4.1c0,0.6-2.9,2.2-7.8,2.2h-1.8v-27
						c-3.1,2-6.2,3.7-9.3,5.1l-0.4-0.6c9.2-7.6,18.3-21.3,20.1-30.4L645.3,32L645.3,32z M616,37.2c4.8-6.2,8.8-15.7,10.4-21.9
						l11.9,5.6c-0.3,0.7-0.9,1.3-2.6,1.1c-4.2,5.6-11.1,12-19.1,15.8L616,37.2z M649.2,50.7c-3.7-4.6-6.5-10.2-8.1-16.3
						c-3.2,6.7-9.3,13-16.2,18.1l6.9,2.5h13.6L649.2,50.7z M645.6,73.5V57H631v16.5H645.6z M641.6,16.4
						c27.4,3.9,21.8,23.1,11.8,17.6c-2.5-6-7.9-12.7-12.3-17.2L641.6,16.4z"/>
					<path class="st0" d="M224.2,162.7c2.4,2.3,3.4,4.5,2.6,6.3c-1.6,3.6-6.6,3.4-11.3,1.6c-4.6-1.5-8.2-3.9-11-6.8
						c-5.2,2.6-11.1,4.6-17.4,5.9l-0.5-0.8c5.4-2.4,10.4-5.7,14.5-9.4c-2.4-3.9-3.9-8.3-5-12.9h-10.2v3.7c3.1-0.4,6.2-0.8,9.3-1.3
						l0.1,1.1c-2.7,1.1-5.9,2.3-9.4,3.6v8.8c0,5.7-1.5,9-11.9,9.6c-0.1-2.5-0.4-4.4-1.5-5.6c-1-1.1-2.3-2-5.9-2.6V163
						c0,0,6.8,0.4,8.3,0.4c1.1,0,1.3-0.5,1.3-1.2v-5.3c-3,0.9-6.3,1.8-9.9,2.8c-0.4,0.9-1.1,1.5-1.8,1.7l-4.2-8.4
						c3.6-0.1,9.4-0.6,15.9-1.4v-4.9H161l-0.6-2h15.7v-4.3c-4.5,0.1-9.2,0.1-13.4-0.1l-0.2-1c8.4-1.5,18.6-5,23.9-7.7l8.1,7.4
						c-0.8,0.6-2.3,0.8-4.4,0.1c-1.3,0.2-2.7,0.4-4.2,0.6v5.1h9.9c-0.8-4.1-1.2-8.3-1.4-12.2l12.2,0.9v0.1c17.7-1.1,10.6,12.9,3,8
						c-0.3-2.7-1.8-5.5-3.3-7.3c-0.4,0.5-1,0.8-2,1.1c0.1,2.9,0.4,6.2,1.1,9.4h9.4l4.3-6.1c0,0,4.8,4.1,7.6,6.9
						c-0.2,0.8-0.9,1.1-1.9,1.1h-11.8l9.2,5.2c-0.4,0.7-1.1,1.1-2.7,0.8c-1.8,2-3.9,3.9-6.4,5.7c1.5,1.1,3.2,2,5.2,2.7
						c1.4,0.5,2.1,0.4,2.6-0.3c1-1.3,2.2-4.1,3.1-6.3l0.6,0.1L224.2,162.7L224.2,162.7z M188.5,129.4v-5.5h-20.8l-0.6-2h21.4v-5.2
						H164l-0.6-2h17.2c-1.2-3.2-3.6-6.5-5.6-8.6l0.5-0.3c13.3-0.9,14.9,5.9,12,9h9.3c1.3-2.9,2.6-6.7,3.3-9.4l12.2,3.4
						c-0.3,0.8-1.1,1.4-2.7,1.3c-2.3,1.5-5.9,3.3-9.4,4.8h11.1l4.8-5.8c0,0,5.3,3.9,8.6,6.7c-0.2,0.8-1,1.1-2,1.1h-24.1v5.2h10.2
						l4.6-5.2c0,0,5.1,3.5,8.4,6.1c-0.2,0.8-1,1.1-2,1.1h-2.2c1.5,1.1,5.8,4.1,8.5,6.4c-0.2,0.8-1,1.1-2,1.1h-61.8l-0.6-2
						L188.5,129.4L188.5,129.4z M198.7,129.4h13.6l4.6-5.5h-18.1V129.4z M206,146.6c0.5,2,1.2,3.8,2.2,5.5c1.5-1.8,2.7-3.7,3.8-5.5
						H206z"/>
					<path class="st0" d="M270.2,128.7c2.4,12.8,10.9,25.1,29.8,32.1l-0.1,0.8c-5.2,1.1-8.2,4.4-9,10.3
						c-14.7-9.4-19.7-26.6-21.6-40.6c-2.2,16.9-9.5,31-35.6,40.6l-0.6-0.9c19-12.2,24.1-26.2,25.5-42.3h-24.4l-0.6-2h25.1
						c0.4-6.7,0.4-13.7,0.4-21.1l13.9,1.3c-0.2,1.1-0.9,1.8-2.6,2c-0.1,6.2-0.2,12.1-0.7,17.8h13.5l5.8-7.3c0,0,6.5,4.9,10.4,8.2
						c-0.2,0.8-1,1.1-2.1,1.1L270.2,128.7L270.2,128.7z"/>
					<path class="st0" d="M354,153c0,0.8-4,2.6-7.5,2.6h-1.7V130c-0.4,0.3-0.9,0.4-1.5,0.4h-12.5v4.7c19.8,5.5,11.1,20.9,3.4,14.1
						c-0.1-4-1.5-8.3-3.4-11.8V169c0,0.6-3.1,2.7-8,2.7h-1.8v-24.9c-4.1,5.2-9.2,9.8-15.1,13.6l-0.7-0.7c6.6-7.6,11.3-19,13.9-29.3
						h-11.6l-0.6-2h14.1v-10.8c-4.8,0.4-9.8,0.7-14.5,0.8l-0.1-0.7c9.3-3.1,21-8.6,26.8-12.5l10.8,9.9c-1,0.8-2.8,0.9-5.4,0
						c-2.2,0.5-4.9,1-7.8,1.4v12h1.5l4.7-6.9c0,0,4.8,4.2,7.8,7.3V111l11.8,1.1c-0.1,1-0.7,1.8-2.6,2V153L354,153z M372.1,107.4
						c-0.1,1.1-0.8,1.8-2.5,2v50.7c0,6.6-1.5,10.1-12.2,11.1c-0.2-3.1-0.6-5.4-1.8-6.9c-1.3-1.5-2.7-2.6-6.5-3.3v-0.9
						c0,0,7.7,0.5,9.3,0.5c1.1,0,1.5-0.4,1.5-1.2v-53.1C359.9,106.2,372.1,107.4,372.1,107.4z"/>
					<path class="st0" d="M436.4,105.5c0,0,5.7,4.3,9.2,7.3c-0.1,0.8-1,1.1-2,1.1h-13.4c-2.7,2.8-6,5.7-8.8,7.7h8.5l4.3-4.7l8.8,6.7
						c-0.4,0.5-1.1,1.1-2.3,1.3v29.6c-0.1,0.6-5,2.5-8.4,2.5h-1c17.9,2.8,13.3,18,3.9,14c-2.6-5-7.7-10.6-11.9-14l0.5-0.4
						c2.5-0.1,4.8,0.1,6.8,0.4v-3.2h-13v1.3c0,0.3-0.3,0.6-0.8,1.1l9.6,5.9c-0.4,0.6-1,0.7-2.2,0.4c-5.6,4.2-17,8.5-26.7,9.7
						l-0.4-0.8c6.2-3.1,13-8.9,16.9-13.8c-1.4,0.5-3.1,0.8-4.8,0.8h-1.5v-40.7l10.3,4.1h1.5c0.1-2,0.1-5.1,0.1-7.7h-11.5l1.3,1.2
						c-0.2,0.8-1,1.1-2,1.1h-8.4v42.1c0,6.6-1.6,11.3-12.2,12c-0.1-3.4-0.4-5.8-1.3-7.4c-0.9-1.5-2.2-2.7-5.7-3.3v-0.8
						c0,0,6,0.4,7.4,0.4c1,0,1.3-0.5,1.3-1.3v-41.7h-8.9l-0.6-2h15.9l5.1-7.1c0,0,2.9,2.3,5.7,4.8h25.5L436.4,105.5L436.4,105.5z
						 M417.5,123.6v7.9h13v-7.9H417.5z M417.5,141.5h13v-8.1h-13V141.5z M430.5,151.8v-8.3h-13v8.3H430.5z"/>
					<path class="st0" d="M458,151.4c3.4,7.8,3.4,13.7,1.2,17c-1.6,2.3-6,2.2-7.5-0.6c-1.3-2.5-0.1-5,2-6.5c1.5-1.8,3.9-6.2,3.4-9.9
						H458z M452.2,142.2c0,0,1.9-0.4,2.7-1c3.1-2.1,6.9-6.6,10.1-11.5c-2.1,1-4.5,2.1-7,3.1c-0.5,0.8-1.1,1.4-1.8,1.7l-4.1-9.5
						c0,0,1.6-0.4,2.3-0.9c3.2-3.1,7.6-13.2,8.7-18.7l11,5.5c-0.3,0.6-1.1,1.1-2.4,1c-3.2,4.2-8.8,9.8-13.6,13.4
						c2.8,0,6.2,0,9.8-0.1c1.5-2.5,2.7-4.8,3.4-6.8l9.8,6.7c-0.4,0.6-1.3,1.1-2.7,0.7c-4,4.8-11.8,11.7-18.9,16.2
						c3.5-0.2,7.8-0.5,12.3-0.8c-0.6-2.1-1.4-4.1-2.2-5.8l0.7-0.4c16.2,5.8,8.6,17.9,2.5,12.2c0-1.2-0.1-2.4-0.4-3.6
						c-3.8,1.9-9,4.3-15,6.7c-0.6,0.7-1.3,1.3-2,1.5L452.2,142.2L452.2,142.2z M463.4,150.6c14.4,8.7,5.2,20.3-0.3,13.5
						c0.7-4.4,0.3-9.4-0.6-13.2L463.4,150.6z M518,132.6c-0.4,0.8-1.1,1.1-2.8,1.3c-2,7.6-5,14.8-9.7,20.9c4.1,3.5,8.7,6.1,13.6,8.3
						l-0.2,0.8c-4.1,0.6-7.4,3.4-9,8.1c-4.1-3.2-7.4-6.7-10.1-11c-5.2,4.6-11.9,8.4-20.5,11l-0.5-0.8c7.8-4.1,13.6-9.7,17.9-16.2
						c-2.5-5.9-4.1-13.2-5.1-22.6h-0.4c-1,15.5-4.5,29.1-16.3,39.6l-0.9-1c1.8-3.4,3.3-6.8,4.4-10.3c-1.4,1.1-3.5,1.2-5.5-0.6
						c0-3.4-1.5-7.5-3.3-10.1l0.7-0.4c6,1.5,8.7,4,9.4,6.4c3.3-13.2,2.9-27.6,2.9-42.9h-4l-0.6-2h21.3l3.6-4.2l8.8,6.4
						c-0.6,0.7-1.2,0.9-2.6,1.1l-1.7,13.4l2.5-2.4L518,132.6L518,132.6z M491.9,113c-0.1,5.9-0.1,11.7-0.4,17.2h6.4l1.9-17.2
						C499.8,113,491.9,113,491.9,113z M492.8,132.1c1.5,6.9,4,12.4,7.4,16.7c2.5-5.2,4.3-10.9,5.3-16.7H492.8z"/>
					<path class="st0" d="M549,136.5l8.8,6.8c-0.4,0.6-1.3,1.2-2.7,1.5v22.4c-0.1,0.6-4.7,2.7-8,2.7h-1.7v-6.2h-7.7v4.4
						c0,0.9-4.1,3.1-8.2,3.1H528v-33.7l9.9,3.9h6.7L549,136.5L549,136.5z M545.3,161.6v-18.4h-7.7v18.4H545.3z M548.9,134.1
						c0,0.9-4.5,3.1-8.7,3.1h-1.5v-30.4l10.6,4.1h16.4l4.5-4.9l9.2,6.9c-0.4,0.6-1.3,1.3-2.8,1.5v19.4c-0.1,0.6-4.9,2.7-8.4,2.7
						h-1.8v-5.9h-17.5V134.1L548.9,134.1z M548.9,112.8v15.8h17.5v-15.8H548.9z M590.6,143.3c-0.4,0.6-1.3,1.2-2.8,1.5v23
						c-0.1,0.6-5,2.2-8.3,2.2h-1.7v-6.5h-8.3v4.4c0,0.9-4.1,3.1-8.2,3.1H560v-33.7l9.9,3.9h7.2l4.4-4.8L590.6,143.3L590.6,143.3z
						 M577.9,161.6v-18.4h-8.3v18.4H577.9z"/>
					<path class="st0" d="M656.5,146c0,0,5.4,4.8,8.4,7.9c-0.2,0.8-1,1.1-2,1.1h-13.4v14.8c0,0.6-4.1,2.2-7.7,2.2h-1.7v-17h-18.5
						l-0.1-0.3V168c-0.1,0.7-4,2.9-7.1,2.9h-1.4v-29h-4.5c-0.3,12-3,22.3-11.1,29.7l-0.8-0.6c3.3-9,3.8-19.3,3.8-31.4v-32.4
						l10.6,1.1c-0.1,1-0.7,1.7-2.5,2v18.2h3.4v-21.8l10.5,0.9c-0.1,0.9-0.6,1.5-2.2,1.8v15.8c1.1,1.3,2.6,2.9,3.5,4.1
						c-0.2,0.8-0.8,1.1-1.8,1.1h-13.4v9.5h3.7l4-4.3l8,6.2c-0.4,0.6-1.4,1.2-2.8,1.5v9.7h18.5v-7.8c-3.2,2.9-7.8,5.5-14.6,7.4
						L625,152c6.6-3.9,9.9-8.5,11.6-13.2h-3.1v1.9c0,0.9-4,2.9-7.8,2.9h-1.3v-32.7l9.6,3.7h1.3c0.3-2.7,0.8-6.7,1-9.4l14.2,2.6
						c-0.3,1.3-1.3,1.8-2.9,2c-2,1.3-5.2,3.3-7.6,4.8h10.6l4.1-4.3l8.3,6.2c-0.4,0.5-1.2,1.1-2.5,1.3v20.9c-0.1,0.6-4.5,2.4-7.6,2.4
						h-1.6v-2.4h-6.4c-0.3,0.8-0.8,1.7-1.4,2.5l8.5,0.8c-0.1,0.9-0.6,1.5-2.5,1.8v9.2h2.2L656.5,146L656.5,146z M633.6,116.6v9h4.7
						v-9H633.6z M637.3,136.8c0.8-3,1-6.2,1-9.2v-0.1h-4.7v9.3H637.3z M651.3,136.8v-9.3H647v0.1c0,2.9-0.2,6.1-1.3,9.2H651.3z
						 M647,116.6v9h4.3v-9H647z"/>
				</g>
			</g>
		</g>
	</g>
</g>
</svg>
