<?xml version="1.0" encoding="UTF-8"?>
<svg id="_圖層_2" data-name="圖層 2" xmlns="http://www.w3.org/2000/svg" viewBox="0 0 857.74 275.48">
  <defs>
    <style>
      .cls-1 {
        fill: #fff;
        opacity: .61;
      }

      .cls-2 {
        fill: #231815;
      }
    </style>
  </defs>
  <g id="_圖層_1-2" data-name="圖層 1">
    <rect class="cls-1" width="857.74" height="275.48" rx="30" ry="30"/>
    <g>
      <path class="cls-2" d="M35.39,57.1v1.08h-15.02v-1.08l5.18-.63c.07-2.17,.11-4.34,.11-6.51v-14.21l-4.55,.46v-1.29l8.82-2.1,.49,.39-.14,5.63v11.13c0,2.17,.04,4.34,.1,6.51l5.01,.63Z"/>
      <path class="cls-2" d="M48.8,30.42h2.56l-10.43,34.02h-2.63l10.5-34.02Z"/>
      <path class="cls-2" d="M63.85,44c-.11,.35-.46,.56-1.09,.7v15.37c-.07,.31-1.79,1.15-3.39,1.15h-.81v-13.65c-1.68,1.44-3.54,2.66-5.57,3.75l-.32-.39c4.48-3.75,7.74-9.03,9.91-14.32h-8.72l-.28-1.01h9.42c.95-2.49,1.68-4.94,2.17-7.21l5.92,1.54c-.1,.42-.42,.7-1.37,.74-.56,1.58-1.26,3.25-2.07,4.94h10.75l2.45-3.12s2.76,2.13,4.45,3.57c-.11,.38-.46,.56-.98,.56h-17.19c-1.19,2.38-2.73,4.76-4.58,6.93l1.3,.46Zm17.61,11.13s2.63,2,4.27,3.39c-.11,.39-.49,.56-1.02,.56h-21.14l-.28-1.02h7.88v-10.71h-6.33l-.28-.98h6.62v-8.23l5.32,.49c-.04,.46-.32,.77-1.12,.91v6.83h1.96l2.21-2.77s2.45,1.89,3.96,3.19c-.11,.38-.49,.56-.98,.56h-7.14v10.71h3.78l2.31-2.94Z"/>
      <path class="cls-2" d="M116.87,51.6s2.45,1.79,3.99,3.05c-.1,.38-.49,.56-.98,.56h-13.55v5.18c0,.28-1.89,.91-3.46,.91h-.74v-6.09h-13.93l-.31-1.01h14.25v-2.62l2.17,.17c2.03-1.65,3.5-4.24,4.17-6.48h-11.59l3.46,1.64c-.17,.35-.46,.56-1.29,.46-.28,.39-.59,.77-.95,1.12,6.48,.56,3.75,5.6,.77,3.71-.21-.95-.88-2.03-1.58-2.84-1.93,1.89-4.52,3.61-7.46,4.59l-.32-.42c2.87-2.1,5.15-5.46,6.2-8.26h-5.67l-.31-1.02h13.41c-.11-.1-.21-.21-.31-.31-.07-.63-.28-1.58-.7-2.38-.7,.49-1.85,.84-3.85,.98-.07-.84-.18-1.5-.6-1.89-.42-.35-.95-.7-2.41-.91v-.46s2.59,.18,3.22,.18c.52,0,.63-.21,.63-.63v-2.24c-1.93,1.09-4.41,2.49-7.56,4.06-.14,.46-.46,.77-.88,.88l-1.51-3.82c1.75-.28,5.71-1.15,9.94-2.17v-4.27h-10.22l-.32-1.01h10.19l1.75-2.03,3.95,2.97c-.21,.28-.7,.6-1.44,.7v7.18c0,.56-.04,1.09-.21,1.51,3.92,.59,3.92,2.73,2.8,3.67h7.14l1.68-1.92c-.38,.07-.77,.1-1.23,.14-.1-.84-.17-1.5-.56-1.89-.38-.35-.91-.74-2.31-.91v-.49s2.42,.17,3.01,.17c.49,0,.63-.21,.63-.63v-2.49c-1.96,1.12-4.41,2.49-7.53,4.03-.14,.42-.46,.77-.88,.88l-1.43-3.85c1.71-.28,5.67-1.16,9.84-2.1v-3.92h-9.24l-.32-1.01h9.21l1.75-2.03,3.99,2.97c-.25,.28-.7,.6-1.44,.7v7.07c0,1.64-.35,2.7-2.52,3.19,.77,.56,2.34,1.68,3.47,2.55-.11,.38-.49,.56-.98,.56h-8.33l3.6,1.61c-.17,.35-.49,.6-1.26,.49-.21,.28-.46,.6-.7,.88,6.9,.14,5.29,5.46,2.13,4.1-.59-1.08-1.86-2.31-2.97-3.22-1.19,1.16-2.73,2.1-4.48,2.8l1.4,.11c-.07,.38-.28,.66-.98,.8v1.37h8.33l2.21-2.59Zm-26.18-19.29c6.72-1.36,6.44,4.62,3.54,3.5-.88-.98-2.17-2.28-3.75-3.12l.21-.39Zm14.7,.04c6.44-1.43,6.12,4.41,3.33,3.29-.77-.91-1.96-2.17-3.5-2.87l.17-.42Z"/>
      <path class="cls-2" d="M126.15,51.25c1.37,3.61,1.15,6.34,.14,7.74-.74,.95-2.56,.98-3.19-.21-.52-1.05,0-2.1,.91-2.76,.81-.88,1.86-3.01,1.61-4.76h.53Zm-3.12-4.55s.84-.17,1.15-.42c1.47-1.19,3.22-3.5,4.69-5.85-.91,.39-1.96,.81-3.08,1.23-.25,.38-.56,.67-.91,.8l-1.68-4.06s.7-.21,1.02-.42c1.61-1.75,3.68-6.76,4.24-9.42l4.69,2.24c-.14,.35-.53,.56-1.19,.53-1.47,2.24-3.99,5.22-6.23,7.18,1.22,.04,2.7,.04,4.27,0,.67-1.26,1.23-2.42,1.58-3.36l4.17,2.8c-.17,.28-.63,.49-1.3,.35-1.89,2.55-5.42,6.09-8.54,8.47,1.72-.11,3.92-.25,6.3-.42-.17-1.26-.52-2.49-.91-3.47l.42-.14c7.07,3.85,3.22,9.28,.63,6.41,.04-.52,.04-1.09,0-1.64-1.86,.77-4.38,1.79-7.07,2.73-.25,.32-.53,.49-.84,.6l-1.4-4.13Zm5.39,4.1c5.46,4.48,1.85,9.31-.28,6.62,.35-2.13,.18-4.69-.17-6.51l.46-.1Zm14.07-.28c-.88,1.26-2.38,3.33-4.48,5.85-.03,.49-.31,.91-.7,1.08l-2.21-3.25c.28,2-1.37,3.29-2.77,1.82,.14-1.93-.53-4.27-1.26-5.81l.42-.18c1.92,1.05,2.97,2.28,3.39,3.36,1.47-.56,4.52-1.85,7.49-3.18l.1,.31Zm9.87-12.08s2.21,1.93,3.47,3.22c-.1,.38-.46,.56-.98,.56h-8.16v14.46c0,2.42-.56,3.96-4.55,4.31-.04-1.05-.17-1.89-.56-2.38-.38-.53-1.01-.91-2.45-1.12v-.49s2.62,.18,3.22,.18c.52,0,.66-.18,.66-.6v-14.35h-7.53l-.28-.98h9.98l.91-2.66h-5.53l-1.51,1.61-3.61-2.45c.38-.28,.95-.59,1.51-.8,1.15-2.45,2.66-6.48,3.18-8.33l4.9,.84c-.11,.46-.45,.84-1.44,.84-.21,.56-.46,1.19-.7,1.89h5l1.65-1.79,3.47,2.87c-.28,.32-.6,.39-1.33,.46l-2.52,7.53h1.29l1.89-2.8Zm-15.44,5.32c7.88,1.89,4.55,7.6,1.68,5.15-.07-1.68-1.02-3.71-2-4.94l.32-.21Zm9.52-6.2l1.5-4.41h-5.43c-.56,1.54-1.26,3.15-1.82,4.41h5.74Zm1.47,13.02c10.29,1.01,7.7,8.96,4.13,6.41-.91-1.85-2.38-4.41-4.38-6.09l.24-.31Zm-.21-1.5c1.08-1.65,2.62-4.62,3.39-6.2l4.17,2.94c-.18,.28-.53,.42-1.29,.25-1.37,.95-4.2,2.45-5.99,3.36l-.28-.35Z"/>
      <path class="cls-2" d="M183.34,38.05c1.47,5.25,4.52,9.7,8.12,11.87l-.04,.38c-1.82,1.3-2.7,3.01-2.97,5.18-3.26-3.82-4.94-10.71-5.81-17.43v21.74c0,.42-1.75,1.43-3.22,1.43h-.73v-15.02c-2.17,3.75-5.18,6.97-9.07,9.56l-.42-.42c4.34-4.41,7.14-10.89,8.51-17.29h-4.27l-.04-.14c-.17,.11-.39,.18-.67,.18h-4.9v2.17c8.82,3.01,5.01,9.45,1.82,6.48-.04-1.86-.88-4.03-1.82-5.64v18.97c0,.35-1.68,1.19-3.19,1.19h-.8v-14c-1.58,2.42-3.5,4.58-5.78,6.48l-.42-.38c2.97-4.1,4.87-9.73,5.88-15.26h-5.08l-.28-1.02h5.67v-8.61l5.29,.52c-.07,.53-.31,.88-1.29,1.02v7.07h.53l1.89-2.66s1.68,1.47,2.94,2.66h5.5v-8.54l5.25,.53c-.11,.49-.35,.84-1.29,.98v7.04h2.59l2.03-2.76s2.24,1.92,3.61,3.18c-.1,.39-.46,.56-.95,.56h-6.58Z"/>
      <path class="cls-2" d="M211.79,37.74c2.83,7.18,8.4,12.78,14.07,15.44l-.14,.39c-1.61,.28-3.05,1.64-3.71,3.64-5.29-3.92-8.75-10.22-10.75-19.01v21.6c0,.46-1.82,1.5-3.43,1.5h-.81v-17.01c-3.15,5.5-7.77,10.12-13.86,13.48l-.35-.38c5.74-4.9,10.08-12.57,12.08-19.64h-11.27l-.32-.98h13.72v-8.3l5.53,.56c-.07,.49-.31,.88-1.29,1.02v6.72h7.28l2.48-3.19s2.84,2.13,4.52,3.61c-.1,.38-.53,.56-1.01,.56h-12.74Z"/>
      <path class="cls-2" d="M243.78,36.09c-.25,.31-.77,.59-1.47,.73v20.86c-.04,.28-1.89,1.16-3.26,1.16h-.59v-2.77h-5.32v2.59c0,.45-1.47,1.33-3.15,1.33h-.63v-26.46l3.92,1.65h.21c.25-1.93,.56-4.66,.74-6.62l5.67,1.37c-.14,.59-.63,.84-1.43,.84-.91,1.23-2.28,3.05-3.4,4.41h3.04l1.86-2.1,3.82,3.01Zm-10.64,.1v8.68h5.32v-8.68h-5.32Zm5.32,18.9v-9.21h-5.32v9.21h5.32Zm22.4-19.01c-.28,.31-.74,.56-1.54,.67-.25,14.11-.74,20.51-2.66,22.58-1.26,1.33-2.8,1.89-5.11,1.89,0-1.33-.17-2.31-.77-2.87-.63-.67-2-1.22-3.71-1.54l.04-.49c1.68,.14,4.1,.32,5.01,.32,.63,0,.95-.14,1.29-.46,1.29-1.19,1.65-8.16,1.89-20.09h-6.51c-1.68,2.97-3.67,5.46-5.92,7.35l-.46-.28c1.92-3.57,3.81-9.28,4.72-14.63l5.53,1.61c-.14,.46-.56,.7-1.37,.7-.6,1.5-1.23,2.91-1.96,4.24h5.57l2.21-2.28,3.75,3.29Zm-15.47,6.12c10.22,3.01,6.41,10.57,2.7,7.46-.17-2.49-1.58-5.32-2.97-7.25l.28-.21Z"/>
      <path class="cls-2" d="M293.48,37.56c0,.07-.18,.21-.46,.32,.59,.49,2.21,1.71,3.25,2.62-.1,.38-.49,.56-.98,.56h-21.53c.45,.49,.95,1.02,1.33,1.47-.11,.38-.42,.56-.91,.56h-3.75v8.72c1.47-.45,2.98-.94,4.48-1.43l.11,.38c-1.93,1.58-4.94,3.96-9.35,6.86-.07,.46-.42,.84-.8,.98l-2.28-4.52c.88-.21,2.24-.59,3.96-1.08v-9.91h-3.19l-.28-.98h3.47v-9.03h-3.47l-.28-1.01h6.83l2.03-2.73s2.1,1.75,3.47,3.04v-3.33l3.71,1.5h10.82l1.68-1.82,3.61,2.7c-.25,.28-.77,.6-1.47,.74v5.39Zm-20.37,2.52h17.78l1.54-1.96c-.56,.21-1.26,.38-1.82,.38h-.59v-.6h-11.38v.46c0,.32-1.58,1.09-3.01,1.09h-.49v-6.65c-.18,.17-.46,.28-.84,.28h-3.85v9.03h.38l1.54-2.56s.38,.38,.88,.91l-.14-.38Zm21.81,12.01c-.25,.35-.52,.38-1.23,.25-1.12,.63-2.7,1.29-4.16,1.89,1.92,1.37,4.16,2.31,6.54,2.83l-.04,.38c-1.37,.35-2.42,1.51-2.8,3.33-4.41-2.1-7.07-5.5-8.58-10.85-.77,.84-1.65,1.61-2.63,2.34v4.27c1.3-.38,2.73-.84,4.13-1.29l.14,.42c-1.26,.98-3.85,3.01-6.79,4.97-.28,.46-.63,.74-.95,.88l-1.75-3.54c1.51-.7,1.75-.98,1.75-1.58v-2.03c-2.06,1.05-4.38,1.89-6.79,2.62l-.24-.46c3.67-1.82,6.79-4.48,8.79-7.21h-.77v.38c0,.28-1.61,1.05-3.04,1.05h-.49v-9.07l3.75,1.54h8.65l1.75-1.93,3.78,2.84c-.21,.28-.74,.56-1.44,.7v4.06c-.04,.18-.49,.45-1.16,.7l3.57,2.49Zm-16.28-20.51v5.32h2.06v-5.32h-2.06Zm.91,16.77h9.21v-4.13h-9.21v4.13Zm5.81-11.45v-5.32h-1.93v5.32h1.93Zm-.21,12.43c.8,1.5,1.89,2.83,3.18,3.95,.95-1.08,1.93-2.38,2.73-3.57-.53,.17-1.15,.31-1.68,.31h-.63v-.7h-3.6Zm2.94-17.75v5.32h1.92v-5.32h-1.92Z"/>
      <path class="cls-2" d="M301.15,51.29c1.37,3.57,1.15,6.3,.14,7.7-.74,.95-2.56,.98-3.19-.21-.52-1.05,0-2.1,.91-2.76,.81-.88,1.86-2.98,1.61-4.73h.53Zm-3.15-4.55s.84-.17,1.15-.42c1.47-1.19,3.22-3.47,4.69-5.88-.95,.42-2,.81-3.08,1.23-.25,.42-.56,.7-.91,.84l-1.68-4.1s.7-.21,1.01-.42c1.61-1.75,3.68-6.76,4.27-9.42l4.69,2.24c-.14,.35-.53,.56-1.19,.53-1.47,2.24-4.03,5.22-6.27,7.18,1.22,.04,2.73,.04,4.27,0,.7-1.26,1.26-2.42,1.61-3.36l3.64,2.49-.17-.7h7.63v-3.36h-5.92l-.24-1.02h6.16v-4.03l5.11,.42c-.07,.49-.35,.84-1.26,1.02v2.59h2.21l1.85-2.34s2.1,1.61,3.36,2.8c-.11,.39-.46,.56-.95,.56h-6.48v3.36h3.61l1.96-2.59s2.28,1.79,3.64,3.05c-.07,.38-.46,.56-.95,.56h-19.08c-.17,.28-.59,.49-1.3,.35-1.85,2.55-5.36,6.09-8.51,8.51,1.54-.11,3.54-.21,5.6-.35-.14-1.26-.46-2.45-.74-3.43l.42-.14c6.2,3.82,2.7,8.61,.39,5.99,.04-.39,.04-.77,.04-1.16-1.75,.73-3.99,1.64-6.37,2.52-.25,.32-.53,.49-.84,.6l-1.4-4.1Zm5.6,4.1c5.74,4.45,1.96,9.42-.28,6.58,.38-2.13,.21-4.66-.18-6.48l.46-.1Zm2.94-.53c6.96,2.94,3.88,8.33,1.33,5.92,.04-1.93-.81-4.27-1.71-5.74l.38-.17Zm23.59,6.23c.91,.42,1.09,.88,1.09,1.58,0,1.44-1.23,2.21-5.11,2.21h-2.17c-2.84,0-3.22-.77-3.22-3.15v-6.55h-2.03c-.7,5.67-3.71,9-10.43,10.82l-.14-.45c4.83-2.52,6.3-5.74,6.62-10.36h-4.38l-.28-.98h15.26l1.86-2.42s2.13,1.68,3.46,2.83c-.11,.39-.49,.56-.98,.56h-5.18v5.67c0,.42,.07,.53,.66,.53h2.56c.32-.04,.42-.1,.59-.38,.28-.53,.77-2.07,1.33-3.89h.42l.07,3.99Zm-13.9-14.04v2.52c1.33-.21,2.77-.42,4.2-.67l.07,.49c-1.82,.91-4.51,2.1-8.37,3.67-.17,.49-.49,.74-.8,.84l-2-3.39c.84-.11,2.1-.25,3.64-.49v-2.98h-2.94l-.25-.98h3.19v-3.33l4.27,.35c-.04,.42-.28,.7-1.02,.8v2.17h.11l1.33-1.82s1.26,1.12,2.13,2.03l-.1-.31h2.83v-3.19l4.34,.38c-.07,.42-.32,.7-1.05,.84v1.96h.49l1.43-1.93s1.68,1.37,2.66,2.38c-.1,.38-.39,.56-.84,.56h-3.74v3.57h.84l1.61-2.21s1.89,1.54,2.94,2.62c-.11,.39-.42,.56-.91,.56h-11.62l-.28-.98h4.13v-3.57h-2.55l-.07-.28c-.18,.24-.42,.35-.8,.35h-2.87Z"/>
      <path class="cls-2" d="M361.28,28.57s2.9,2.21,4.69,3.75c-.1,.39-.52,.56-1.05,.56h-14.18v6.37c16.24,2.94,14.39,12.78,9.35,10.4-1.99-3.33-5.95-7.07-9.35-9.59v19.95c0,.31-1.4,1.26-3.57,1.26h-.8v-28.39h-13.2l-.28-1.01h25.83l2.56-3.29Z"/>
      <path class="cls-2" d="M372.55,48.94c2.24-1.19,3.26-2.8,3.75-4.76-1.96-.77-3.47-1.68-3.47-3.43,0-1.44,1.08-2.66,2.76-2.66s2.98,1.26,2.98,3.57c0,2.94-1.44,6.58-5.43,8.4l-.6-1.12Z"/>
      <path class="cls-2" d="M417.03,56.36c1.08,.46,1.33,.91,1.33,1.71,0,1.65-1.43,2.42-7.32,2.42h-3.61c-3.54,0-4.34-.74-4.34-3.5v-10.61h-2.56c-.95,7.88-4.83,12.71-14.88,14.98l-.17-.46c7.6-3.26,10.12-7.84,10.61-14.53h-2.48v1.16c-.04,.28-1.23,1.29-3.4,1.29h-.59V30.46l4.06,1.29c1.58-1.16,3.22-2.56,4.1-3.5l4.09,3.36c-.42,.35-1.12,.38-2.13,.07-1.54,.46-3.88,.95-6.12,1.33v5.57h2.1l1.79-2.42s2.1,1.65,3.33,2.84c-.07,.38-.45,.56-.95,.56h-6.27v5.81h16.21v-5.81h-6.09l-.31-.98h6.41v-5.81h-6.62l-.31-1.01h6.58l1.93-2.13,3.95,3.08c-.21,.28-.66,.63-1.4,.77v13.97c-.03,.28-2.06,1.05-3.46,1.05h-.67v-2.1h-2.73v9.63c0,.52,.17,.7,1.26,.7h3.12c1.08,0,2.1,0,2.55-.04,.49-.04,.67-.14,.88-.53,.38-.63,.95-2.34,1.65-4.52h.39l.1,4.73Z"/>
      <path class="cls-2" d="M449.06,56.15s2.49,1.96,3.89,3.33c-.07,.38-.42,.56-.91,.56h-31.05l-.28-.98h13.86v-3.43h-10.22l-.28-1.01h10.5v-3.43h-5.01v.6c0,.38-1.85,1.26-3.57,1.26h-.56v-12.64l4.38,1.72h13.86l1.93-2.1,4.1,3.08c-.25,.28-.74,.56-1.44,.7v7.6c-.04,.25-2.17,.98-3.5,.98h-.74v-1.19h-5.18v3.43h5.32l2.03-2.31s2.28,1.58,3.64,2.77c-.07,.38-.42,.56-.91,.56h-10.08v3.43h8.05l2.17-2.91Zm-28.25-17.33h10.89c-.35-.1-.74-.31-1.09-.63-.04-1.54-.66-3.19-1.33-4.31h-6.23l-.28-1.01h14.21c-.45-.07-.95-.25-1.4-.59-.07-1.4-.91-2.98-1.79-3.82l.25-.21c7.04,.17,5.99,4.3,3.54,4.62h7.42l2.17-2.73s2.45,1.86,3.99,3.19c-.1,.38-.49,.56-.98,.56h-8.12l4.06,.95c-.14,.42-.49,.7-1.3,.7-1.01,.98-2.45,2.24-3.85,3.29h5.71l2.21-2.87s2.49,1.93,3.96,3.33c-.11,.39-.46,.56-.95,.56h-30.84l-.25-1.02Zm8.75,4.31v3.08h5.01v-3.08h-5.01Zm5.01,7.07v-3.01h-5.01v3.01h5.01Zm-3.82-16.31c4.94,1.26,4.2,4.34,2.28,4.94h6.48c.52-1.47,1.05-3.43,1.33-4.94h-10.08Zm8.09,9.24v3.08h5.18v-3.08h-5.18Zm5.18,7.07v-3.01h-5.18v3.01h5.18Z"/>
      <path class="cls-2" d="M466.52,45.97c-.21,.31-.59,.38-1.33,.45-.73,2.42-2.28,5.08-4.34,7.25,.28,.04,.49,.14,.8,.35,2.66,2.13,7,2.55,14.95,2.55,4.2-.04,7.56-.04,11.73-.25v.45c-1.61,.32-2.59,1.82-2.8,3.36h-10.4c-7.98,0-11.03-1.19-13.93-4.83-.53-.66-.88-.56-1.19,.07-.49,1.02-1.16,2.73-1.79,4.45,.1,.31,0,.52-.25,.7l-2.83-3.92c1.29-.7,3.12-2,4.27-2.62,1.12-2.28,1.96-5.29,2.28-7.81h-1.54l-1.16,1.12-2.91-2.07c.32-.21,.77-.46,1.26-.63,.91-1.65,2.03-4.1,2.76-5.78h-4.03l-.32-1.01h4.31l1.58-1.61,3.19,2.87c-.31,.32-.95,.49-1.68,.56-.7,1.5-1.86,3.82-2.73,5.53h1.05l1.82-1.82,3.22,2.63Zm-9.38-16.94c9.03,1.54,5.57,8.26,2.14,5.64-.17-1.92-1.33-4.1-2.45-5.43l.31-.21Zm7.32,6.34l-.28-.98h7.98l1.5-2.21s1.72,1.5,2.73,2.59c.6-1.93,.98-4.1,1.19-6.23l4.66,1.16c-.14,.38-.53,.7-1.29,.74-.42,1.16-.91,2.28-1.47,3.29h3.29l1.79-2.38s2.07,1.64,3.26,2.8c-.11,.39-.46,.56-.88,.56h-8.02c-.7,1.09-1.47,2.03-2.27,2.87h5.6l1.75-1.79,3.19,2.8c-.24,.28-.66,.31-1.33,.38-1.05,.77-2.48,1.75-3.88,2.45l1.86,.17c-.07,.49-.42,.77-1.19,.88v2.87h.39l1.61-2.24s1.82,1.58,2.83,2.7c-.07,.39-.42,.56-.88,.56h-3.96v5.43c0,2.38-.46,3.6-3.99,3.92-.07-.91-.14-1.68-.53-2.17-.38-.49-.91-.81-2.06-1.02v-.52s2.28,.17,2.77,.17c.46,0,.56-.14,.56-.53v-5.29h-3.85l-.28-1.02h4.13v-4.16l1.47,.14c.53-.8,1.05-1.89,1.4-2.76h-5.32l-.31-.95c-.32,.31-.63,.59-.98,.88l-.53-.28c.45-.95,.88-2.03,1.26-3.19-.17,.25-.45,.35-.84,.35h-5.32c-.04,1.4-.07,2.8-.14,4.2h1.44l1.71-1.71,3.15,2.59c-.24,.28-.66,.49-1.37,.6-.17,8.58-.49,12.18-1.92,13.48-.77,.67-1.72,.91-2.77,.95,0-.67-.14-1.47-.45-1.86-.32-.42-.98-.84-1.82-1.05v-.52c.73,.07,1.82,.1,2.28,.1,.24,0,.38-.04,.53-.25,.59-.77,.84-3.99,1.01-11.31h-1.85c-.46,5.53-1.82,10.5-5.5,14.46l-.35-.38c2.84-5.67,2.91-12.43,2.63-19.29h-2.31Zm2.77-6.69c7.63,1.71,4.03,7.11,1.19,4.62-.11-1.54-.88-3.29-1.54-4.45l.35-.17Z"/>
      <path class="cls-2" d="M522.52,57.03c1.02,2.17,1.23,3.4,.6,3.85-1.71,1.33-4.41-.38-5.6-1.96-.98-1.19-1.82-2.52-2.52-3.96-2,2.21-4.41,4.13-7.25,5.64l-.31-.38c2.59-2.07,4.76-4.76,6.51-7.67-1.37-3.54-2.1-7.63-2.45-12.08l-2.49,.35-.39-.95,2.77-.39c-.07-1.15-.14-2.27-.17-3.46-.25,.14-.59,.17-1.16,.25-.84,.77-2.31,1.75-3.46,2.28l-.28-.18c-.14,.21-.38,.32-.7,.35l-4.48,.56v.7c0,.39,.07,.49,.77,.49h1.79c.7,0,1.36,0,1.68-.04,.21,0,.49,0,.66-.04,.21-.03,.53-.1,.74-.14h.32l.14,.04c.81,.28,1.12,.53,1.12,1.08,0,.67-.35,1.08-1.37,1.33,.46,.35,1.89,1.44,2.8,2.28-.07,.38-.42,.56-.91,.56h-12.92l-.28-.98h9.56l1.44-1.82c-.77,.14-1.82,.21-3.29,.21h-2.28c-2.45,0-2.8-.59-2.8-2.38v-.91l-2.42,.31-.38-.91,2.8-.35v-3.01l3.82,.35c-.04,.45-.38,.73-.98,.84v1.47l1.47-.17,1.12-1.79s1.54,.91,2.56,1.65c.17-.7,.35-1.61,.46-2.42h-11.34v6.12c0,5.53-.14,13.79-4.87,19.32l-.42-.25c1.85-5.88,1.82-13.06,1.82-19.04v-8.68l4.06,1.54h2.45v-6.23l5.04,.46c-.04,.46-.32,.77-1.16,.91v2.1h2.14l1.92-2.38s2.14,1.61,3.43,2.8c-.07,.39-.42,.56-.91,.56h-.63l2.94,2.84c-.1-2.34-.14-4.76-.14-7.25l5.18,.56c-.03,.46-.35,.88-1.26,1.02-.07,3.01-.07,6.02,.11,8.89l2.28-.32,1.71-2.83s2.55,1.4,4.17,2.41c-.04,.39-.39,.63-.84,.7l-7.25,1.05c.17,2.8,.56,5.46,1.19,7.84,.98-2.34,1.71-4.72,2.21-6.96l4.8,1.57c-.14,.42-.46,.67-1.37,.63-.98,2.76-2.41,5.74-4.34,8.54,.63,1.4,1.44,2.62,2.38,3.67,.42,.56,.63,.56,.98-.07,.49-.91,1.33-2.7,1.92-4.24l.35,.11-.77,5.99Zm-12.6-.91c-2.84,1.16-6.86,2.59-12.64,4.31-.18,.45-.49,.74-.88,.84l-1.68-3.85c1.05-.07,2.56-.21,4.41-.42-.25-.1-.52-.28-.77-.52,.14-1.05-.17-2.35-.59-3.19-.28,.04-.56,.07-.88,.07h-.56v-7.21l3.36,1.37h5.36l1.44-1.65,3.01,2.21c-.21,.28-.53,.46-1.26,.59v3.47c0,.14-1.01,.7-2.55,.7h-.53v-.91h-5.81v.66c0,.11-.24,.32-.7,.49,3.22,1.16,3.08,3.01,2.03,3.75l2.49-.31c.17-1.16,.28-2.66,.35-3.78l4.23,.91c-.1,.39-.49,.74-1.26,.74-.46,.63-1.12,1.33-1.86,1.96,1.72-.25,3.5-.49,5.25-.7l.04,.49Zm-10.57-7.63v2.42h5.81v-2.42h-5.81Zm7.14-13.83l1.71-1.79h-5.88v1.79h4.17Zm9.73-4.52c8.47,1.26,5.29,7.63,2.1,5.15-.14-1.75-1.26-3.71-2.42-4.9l.32-.25Z"/>
      <path class="cls-2" d="M555.07,56.4c1.96,.35,2.42,.91,2.42,1.61,0,1.92-2.34,2.28-14.14,2.28h-7.74c-5.67,0-8.19-.6-8.19-4.59V31.93h-1.23l-.31-.98h24.75l2.1-2.8s2.35,1.92,3.78,3.22c-.11,.38-.49,.56-.98,.56h-24.33v23.24c0,1.58,.95,2.07,3.99,2.07h8.47c3.01,0,5.71-.07,6.76-.17,.67-.04,1.51-.14,2.07-.21,.49-.07,1.23-.25,2-.49h.38l.21,.04Zm-15.65-.95v-1.71h-2.91v1.47c0,.28-1.47,1.05-2.87,1.05h-.49v-11.87l3.5,1.4h2.45l1.58-1.64,3.29,2.49c-.17,.21-.59,.49-1.16,.56v7.35c-.04,.25-1.71,.91-2.83,.91h-.56Zm7.91-13.55h-6.96v.98c0,.35-1.75,1.19-3.33,1.19h-.56v-10.85l4.06,1.58h6.48l1.79-1.92,3.75,2.84c-.21,.25-.63,.53-1.26,.66v6.16c-.04,.25-2.03,.95-3.25,.95h-.7v-1.58Zm-7.91,10.82v-5.92h-2.91v5.92h2.91Zm7.91-11.83v-5.08h-6.96v5.08h6.96Zm3.85,14.42v-1.58h-3.01v.91c0,.31-1.5,1.05-2.9,1.05h-.49v-11.31l3.54,1.4h2.55l1.61-1.68,3.36,2.55c-.17,.21-.59,.46-1.15,.56v7.18c-.04,.21-1.79,.91-2.91,.91h-.59Zm0-2.59v-5.92h-3.01v5.92h3.01Z"/>
      <path class="cls-2" d="M578.7,48.27c-.35,2.38-1.08,4.55-2.62,6.44,4.66,1.75,10.71,2.28,16.94,2.24v.46c-1.71,.56-2.7,1.89-3.01,3.89-6.41-.67-11.8-1.92-15.82-4.76-2.7,2.14-6.86,3.78-13.3,4.83l-.18-.42c5.67-1.82,9.14-3.82,11.2-6.3-1.22-1.26-2.31-2.73-3.15-4.48l.38-.35c.98,1.37,2.24,2.52,3.78,3.43,.88-1.47,1.37-3.12,1.65-4.97h-5.36v.91c0,.38-1.79,1.3-3.47,1.3h-.59v-15.61l4.31,1.68h5.32v-3.92h-13.27l-.28-1.01h24.43l2.45-2.98s2.73,2.03,4.41,3.43c-.1,.38-.49,.56-.98,.56h-12.64v3.92h5.43l1.89-2.07,3.96,3.01c-.21,.28-.63,.6-1.36,.74v11.03c-.04,.28-2.1,1.01-3.43,1.01h-.7v-2h-5.99Zm-9.49-10.71v4.27h5.57v-4.27h-5.57Zm5.46,9.73c.07-.88,.11-1.79,.11-2.77v-1.68h-5.57v4.45h5.46Zm10.01,0v-4.45h-5.78v1.58c0,.98-.04,1.96-.11,2.87h5.88Zm-5.78-9.73v4.27h5.78v-4.27h-5.78Z"/>
      <path class="cls-2" d="M624.62,28.5s2.42,1.89,3.85,3.22c-.07,.38-.46,.56-.98,.56h-5.5c-.95,1.37-2.07,2.83-3.12,3.88h3.85l1.71-1.85,3.47,2.7c-.21,.24-.63,.49-1.19,.59v15.58c-.04,.25-1.82,1.02-3.05,1.02h-.63v-1.29h-5.67v.59c0,.14-.17,.32-.42,.49l3.96,2.07c-.14,.31-.49,.38-1.08,.28-1.75,2-5.42,4.1-8.79,5.08l-.24-.46c2.24-1.68,4.48-4.38,5.6-6.69-.56,.24-1.26,.45-1.99,.45h-.56v-20.09l3.68,1.54h.17c.07-1.08,.14-2.59,.18-3.88h-4.9l-.28-.95c-.21,.1-.49,.21-.91,.28v8.02c0,.14-.91,.63-2.31,.74l1.82,.84c-.14,.31-.56,.59-1.26,.52-.95,.95-2.28,2.07-3.47,2.94l2.56-.07c.49-.81,.88-1.61,1.12-2.21l3.57,2.28c-.18,.28-.6,.53-1.29,.39-.63,.73-1.51,1.61-2.45,2.49l.32-.11c5.6,3.12,2.66,7.39,.66,5.22,.04-.46,.04-.98-.04-1.47-1.29,.46-2.9,.98-4.48,1.47-.21,.31-.42,.52-.66,.63l-1.51-3.22s.63-.14,.88-.28c.95-.74,2-2.07,2.91-3.5l-1.86,.66c-.21,.42-.46,.67-.74,.81l-.95-1.89c-.17,0-.38-.04-.59-.11-.6,.6-1.4,1.33-2.28,2.07h.04c5.14,3.15,2.42,7.04,.53,5.04,.03-.49,0-1.05-.07-1.58-1.26,.42-2.91,.98-4.52,1.5-.21,.28-.42,.49-.63,.59l-1.54-3.12s.63-.14,.88-.28c1.15-.77,2.48-2.28,3.61-3.85-.77,.31-1.61,.63-2.45,.95-.21,.42-.46,.67-.7,.8l-1.58-3.15s.53-.14,.77-.28c.98-.63,2.14-2.41,2.83-3.78-.31,.04-.66,.07-1.05,.07h-.59v-11.8l3.75,1.47h7.18l1.61-1.89,3.29,2.45c-.07,.11-.18,.21-.28,.28h9.73l2.1-2.77Zm-25.87,24.92c1.65,3.61,1.01,6.37-.32,7.35-.91,.7-2.38,.56-2.87-.52-.39-1.09,.24-2,1.19-2.56,.91-.7,1.75-2.52,1.47-4.27h.52Zm9.49-13.58v-.7h-7.6v.77s-.03,.07-.07,.14l2.66,1.22c-.14,.32-.52,.56-1.26,.49-1.01,.95-2.42,2.07-3.82,2.94,.88-.04,1.86-.04,2.87-.07,.49-.77,.91-1.47,1.16-2.03l2.03,1.92c.17-.04,.35-.11,.45-.17,1.12-.84,2.38-3.57,2.77-4.87l.81,.35Zm-6.9,8.3c-1.02,.77-2.1,1.58-3.19,2.24,1.12,0,2.48-.04,3.88-.11-.21-.8-.45-1.54-.7-2.13Zm-.7-16.7v2.94h7.6v-2.94h-7.6Zm0,6.72h7.6v-2.8h-7.6v2.8Zm.77,15.4c5.63,4.24,1.96,9.03-.21,6.3,.38-2.03,.18-4.41-.24-6.16l.46-.14Zm3.5-.07c6.69,3.25,3.36,8.54,.88,5.99,.21-1.96-.46-4.31-1.29-5.81l.42-.17Zm5.08-5.92c-1.05,.98-2.21,1.89-3.29,2.66,1.12,0,2.59-.07,4.13-.14-.21-.91-.53-1.79-.84-2.52Zm-1.05,5.32c6.9,2.41,3.78,7.6,1.29,5.25,.07-1.71-.74-3.78-1.61-5.04l.32-.21Zm8.44-15.75v4.24h5.67v-4.24h-5.67Zm0,9.45h5.67v-4.24h-5.67v4.24Zm5.67,5.29v-4.31h-5.67v4.31h5.67Zm-2.1,2.24c10.15,1.71,7.74,8.96,4.06,6.72-.73-2.24-2.77-4.9-4.38-6.48l.31-.25Z"/>
      <path class="cls-2" d="M630.5,36.72c9.45,.42,6.76,7.56,3.08,5.32-.46-1.86-2-3.85-3.36-5.04l.28-.28Zm10.99-.84c-1.43,3.99-4.03,11.48-4.51,13.23-.32,1.16-.59,2.38-.59,3.29,.07,1.82,1.5,3.01,1.4,6.06-.07,1.79-1.26,2.91-3.01,2.91-.84,0-1.61-.53-1.92-1.79,.67-3.68,.53-6.79-.32-7.35-.49-.35-1.08-.53-1.85-.6v-.63h1.65c.52,0,.7-.04,1.12-.74q.81-1.29,7.53-14.56l.52,.18Zm-8.37-6.83c9.77,.42,7.28,7.7,3.4,5.6-.59-1.89-2.31-4.06-3.68-5.32l.28-.28Zm26.46,7.91s2.48,2.06,3.96,3.46c-.11,.39-.49,.56-.98,.56h-9.1v6.72h2.94l1.93-2.1,3.96,3.04c-.25,.28-.74,.6-1.44,.74v10.47c-.04,.28-2,1.16-3.39,1.16h-.7v-2.87h-10.61v1.79c0,.38-1.75,1.26-3.46,1.26h-.53v-15.16l4.2,1.68h2.94v-6.72h-8.86l-.28-1.02h9.14v-5.95c-2.84,.28-5.81,.49-8.54,.56l-.07-.52c5.92-1.19,13.44-3.54,17.29-5.32l4.06,3.92c-.42,.31-1.23,.35-2.31-.07-1.75,.35-3.92,.7-6.27,.98v6.41h3.89l2.24-3.01Zm-13.44,11.76v8.4h10.61v-8.4h-10.61Z"/>
      <path class="cls-2" d="M696.51,38.58c-.28,.31-.74,.56-1.58,.67-.31,11.34-1.12,17.99-3.19,19.95-1.3,1.26-2.87,1.82-5.56,1.82,.03-1.33-.18-2.38-.91-3.01-.74-.7-2.49-1.33-4.48-1.68l.04-.46c2.13,.18,5.25,.39,6.23,.39,.66,0,1.05-.11,1.4-.49,1.33-1.12,1.96-7.77,2.28-17.26h-8.51c-.7,9.31-3.4,17.29-16.28,22.75l-.35-.49c9.52-6.27,11.69-13.69,12.22-22.26h-10.4l-.32-.98h10.75c.14-2.87,.11-5.88,.11-9l5.81,.53c-.07,.56-.38,.88-1.26,.98-.07,2.55-.07,5.08-.25,7.49h8.12l2.31-2.31,3.82,3.36Z"/>
      <path class="cls-2" d="M36.23,108.89v3.71H19.43v-2.73c2.03-2.21,4.06-4.34,5.78-6.09,3.96-4.13,5.53-6.69,5.53-10.12,0-3.22-1.68-5.32-4.51-5.32-.53,0-1.09,.07-1.65,.21l-.84,3.22c-.38,2.07-1.33,2.66-2.34,2.66-.95,0-1.68-.53-2.07-1.33,.42-3.92,4.1-6.02,8.4-6.02,5.29,0,7.7,2.8,7.7,6.76,0,3.46-2.52,6.41-8.82,11.27-1.12,.88-2.77,2.31-4.48,3.78h14.11Z"/>
      <path class="cls-2" d="M48.8,84.84h2.56l-10.43,34.02h-2.63l10.5-34.02Z"/>
      <path class="cls-2" d="M58.6,95.06v19.15c0,.52-1.47,1.5-3.22,1.5h-.66v-31.92l4.06,1.75h4.59l1.71-1.89,3.64,2.77c-.21,.25-.63,.53-1.29,.67v8.54c-.04,.28-1.82,1.08-3.05,1.08h-.67v-1.65h-5.11Zm0-8.51v3.22h5.11v-3.22h-5.11Zm5.11,7.53v-3.33h-5.11v3.33h5.11Zm10.33,11.59v7.49c-.04,.17-1.05,.8-2.8,.8h-.63v-8.3h-3.18c-.39,3.08-1.75,6.44-6.9,8.65l-.35-.38c2.9-2.41,3.71-5.39,3.92-8.26h-4.1l-.28-1.02h4.45v-5.04h-3.36l-.28-.98h12.67l1.82-2.38s2.1,1.65,3.32,2.83c-.07,.35-.42,.53-.91,.53h-3.39v5.04h.11l1.75-2.38s1.96,1.65,3.12,2.83c-.11,.39-.46,.56-.95,.56h-4.03Zm-3.43-1.02v-5.04h-3.08v3.96c0,.35,0,.7-.04,1.09h3.12Zm14.67-18.17c-.25,.28-.74,.59-1.44,.7v23.84c0,2.77-.56,4.31-4.79,4.69-.11-1.29-.25-2.28-.63-2.84-.46-.63-1.05-1.05-2.45-1.33v-.45s2.63,.14,3.25,.14c.53,0,.67-.21,.67-.67v-15.51h-5.32v.25c0,.35-1.65,1.16-3.22,1.16h-.56v-12.5l3.92,1.58h4.83l1.82-2.14,3.92,3.08Zm-10.71,.07v3.22h5.32v-3.22h-5.32Zm5.32,7.53v-3.33h-5.32v3.33h5.32Z"/>
      <path class="cls-2" d="M93.63,93.87v20.34c0,.52-1.47,1.5-3.22,1.5h-.7v-32.03l4.1,1.75h4.9l1.71-1.85,3.61,2.73c-.21,.25-.67,.53-1.26,.67v7.56c-.04,.28-1.89,1.08-3.08,1.08h-.63v-1.75h-5.43Zm0-7.42v2.66h5.43v-2.66h-5.43Zm5.43,6.44v-2.8h-5.43v2.8h5.43Zm-4.52,7.32c6.76,0,4.38,5.15,1.61,3.4-.18-1.16-1.09-2.49-1.93-3.15l.31-.25Zm25.73-13.83c-.25,.28-.77,.59-1.47,.7v23.98c0,2.77-.53,4.27-4.76,4.62-.07-1.22-.21-2.21-.6-2.76-.31-.42-.7-.81-1.4-1.05v.84c-.04,.24-1.61,.88-2.62,.88h-.53v-1.54h-4.1v1.02c0,.28-1.4,.98-2.73,.98h-.46v-9.42l3.36,1.37h.25v-3.29h-4.48v-.04c-.59,1.65-1.3,3.47-1.47,4.03-.21,.67-.42,1.47-.39,2.03,0,1.02,1.01,1.75,.95,3.4-.04,.98-.74,1.72-2.24,1.72-.56,0-1.12-.42-1.26-1.12,.32-2.21,.18-3.5-.46-3.85-.38-.21-.77-.32-1.37-.39v-.67h1.51c.42,0,.53,0,.88-.52q.56-.84,4.03-6.86l.56,.18-.38,1.08h4.13v-2.87c-1.4,.1-2.84,.21-4.2,.21l-.14-.56c3.12-.74,7.04-2.2,9-3.22l2.91,2.91c-.38,.31-1.05,.28-1.85-.07-.74,.14-1.61,.28-2.56,.38v3.22h1.3l1.65-2.07s1.82,1.47,2.94,2.52c-.1,.38-.42,.56-.91,.56h-4.97v3.29h.28l1.4-1.51,3.01,2.24c-.18,.21-.53,.46-1.02,.56v3.92c.77,.04,1.82,.11,2.17,.11,.53,0,.63-.25,.63-.63v-16.8h-5.64v.46c0,.35-1.61,1.15-3.22,1.15h-.53v-11.62l3.92,1.58h5.11l1.82-2.13,3.96,3.08Zm-23.91,9.59c6.76,.14,4.31,5.22,1.61,3.47-.21-1.16-1.09-2.49-1.92-3.22l.31-.25Zm12.53,15.09v-4.1h-4.1v4.1h4.1Zm.32-24.61v2.66h5.64v-2.66h-5.64Zm5.64,6.44v-2.8h-5.64v2.8h5.64Z"/>
      <path class="cls-2" d="M152.01,109.66s2.66,2.24,4.2,3.75c-.11,.39-.49,.56-.98,.56h-32.06l-.28-1.02h6.93v-28.63l4.45,1.72h9.91l1.82-2.38,4.45,3.12c-.25,.39-.7,.56-1.61,.7v25.48h.81l2.38-3.29Zm-18.06-22.65v7.77h10.57v-7.77h-10.57Zm10.57,8.79h-10.57v7.98h10.57v-7.98Zm-10.57,17.15h10.57v-8.16h-10.57v8.16Z"/>
      <path class="cls-2" d="M186.35,98.39s2.77,2.03,4.45,3.47c-.11,.38-.49,.56-1.02,.56h-13.44v12.11c0,.28-1.33,1.19-3.5,1.19h-.77v-13.3h-13.86l-.28-.98h14.14v-14.63h-12.29l-.32-1.01h22.96l2.49-2.98s2.73,2.03,4.45,3.43c-.11,.38-.49,.56-1.02,.56h-12.01v14.63h7.56l2.45-3.05Zm-23.63-9.63c10.15,4.94,6.06,13.13,2.21,9.45-.1-3.15-1.33-6.65-2.59-9.31l.38-.14Zm15.82,10.61c1.19-2.66,2.66-6.97,3.68-10.75l5.43,2c-.14,.38-.56,.7-1.37,.63-2.14,3.29-4.73,6.3-7.35,8.33l-.38-.21Z"/>
      <path class="cls-2" d="M206.54,102.8c-2.31,1.79-5.95,4.41-11.1,7.56-.14,.46-.45,.84-.84,1.01l-2.17-4.62c1.02-.25,2.7-.74,4.73-1.33v-11.73h-3.89l-.28-.98h4.17v-9.21l5.32,.45c-.11,.49-.35,.88-1.3,1.01v7.74h.46l1.79-2.94s1.96,2.03,3.01,3.36c-.07,.38-.42,.56-.91,.56h-4.34v10.47c1.68-.56,3.47-1.12,5.22-1.72l.14,.35Zm15.58,6.76s2.73,2.27,4.34,3.82c-.1,.38-.46,.56-.98,.56h-23.24l-.28-.98h17.71l2.45-3.39Zm-11.31-1.68c0,.42-1.64,1.4-3.43,1.4h-.63v-25.17l4.24,1.79h7.46l2-2.17,3.89,3.08c-.21,.32-.74,.59-1.44,.77v19.64c-.04,.38-1.86,1.47-3.43,1.47h-.67v-2.98h-7.98v2.17Zm0-21v8.37h7.98v-8.37h-7.98Zm7.98,17.82v-8.44h-7.98v8.44h7.98Z"/>
      <path class="cls-2" d="M243.78,90.51c-.25,.31-.77,.59-1.47,.73v20.86c-.04,.28-1.89,1.16-3.26,1.16h-.59v-2.77h-5.32v2.59c0,.46-1.47,1.33-3.15,1.33h-.63v-26.46l3.92,1.65h.21c.25-1.93,.56-4.66,.74-6.62l5.67,1.37c-.14,.59-.63,.84-1.43,.84-.91,1.23-2.28,3.05-3.4,4.41h3.04l1.86-2.1,3.82,3.01Zm-10.64,.1v8.68h5.32v-8.68h-5.32Zm5.32,18.9v-9.21h-5.32v9.21h5.32Zm22.4-19.01c-.28,.31-.74,.56-1.54,.67-.25,14.11-.74,20.51-2.66,22.58-1.26,1.33-2.8,1.89-5.11,1.89,0-1.33-.17-2.31-.77-2.87-.63-.67-2-1.22-3.71-1.54l.04-.49c1.68,.14,4.1,.32,5.01,.32,.63,0,.95-.14,1.29-.46,1.29-1.19,1.65-8.16,1.89-20.09h-6.51c-1.68,2.97-3.67,5.46-5.92,7.35l-.46-.28c1.92-3.57,3.81-9.28,4.72-14.63l5.53,1.61c-.14,.45-.56,.7-1.37,.7-.6,1.5-1.23,2.91-1.96,4.24h5.57l2.21-2.28,3.75,3.29Zm-15.47,6.12c10.22,3.01,6.41,10.57,2.7,7.46-.17-2.49-1.58-5.32-2.97-7.25l.28-.21Z"/>
      <path class="cls-2" d="M281.34,110.82c1.54,.17,3.29,.25,5.21,.25,2.14,0,7.04,0,9.31-.07v.42c-1.33,.32-1.96,1.75-2.03,3.4h-7.42c-7.95,0-12.22-1.64-14.63-8.51-1.61,3.61-4.23,7.04-8.61,9.38l-.32-.31c4.48-4.45,6.09-11.1,6.48-16.31l5.5,.91c-.1,.49-.49,.81-1.33,.84-.32,1.5-.7,3.05-1.3,4.55,1.19,2.28,2.8,3.71,4.97,4.55v-13.41l5.32,.49c-.07,.46-.31,.77-1.15,.91v4.38h4.83l2.38-2.94s2.73,1.96,4.38,3.36c-.11,.38-.49,.56-1.02,.56h-10.57v7.56Zm-4.24-15.65v-5.53h-10.15l-.28-1.01h10.43v-5.67l5.46,.46c-.07,.49-.35,.84-1.26,1.02v4.2h4.62l2.31-2.87s2.66,1.96,4.27,3.33c-.11,.38-.46,.56-.98,.56h-10.22v5.53h7.56l2.38-2.94s2.73,1.96,4.34,3.36c-.11,.38-.49,.56-1.02,.56h-30.91l-.28-.98h13.72Z"/>
      <path class="cls-2" d="M310.7,100.42c-.21,.32-.52,.42-1.3,.49-.88,2.52-2.76,5.22-5.18,7.28,.14,.07,.28,.14,.46,.28,2.7,2.21,6.93,2.7,14.67,2.7,4.1-.03,7.46-.03,11.55-.24v.42c-1.65,.35-2.59,1.82-2.77,3.39h-10.19c-7.67,0-10.75-1.33-13.69-5-.53-.63-.91-.56-1.23,.07-.56,1.05-1.47,2.87-2.17,4.66,.1,.31,0,.52-.25,.7l-2.84-3.99c1.72-.88,4.2-2.7,5.25-3.04,1.16-2.13,2.07-5.01,2.45-7.49h-2.24l-1.26,1.16-3.08-2.24c.35-.25,.88-.49,1.37-.63,1.08-1.65,2.52-4.06,3.39-5.78h-5.01l-.31-.98h5.39l1.71-1.75,3.43,3.12c-.32,.35-1.01,.53-1.82,.56-.91,1.54-2.34,3.88-3.43,5.53h1.65l1.96-1.92,3.47,2.73Zm-11.06-16.98c9.66,.81,6.58,8.12,2.8,5.6-.35-1.92-1.79-4.06-3.12-5.39l.31-.21Zm9.28,6.48l-.28-1.01h11.31c.42-1.82,.95-4.31,1.19-6.13l5.46,1.16c-.11,.42-.53,.74-1.3,.74-1.09,1.22-2.77,2.91-4.38,4.24h3.22l2.17-2.84s2.45,1.93,3.88,3.29c-.07,.38-.45,.56-.95,.56h-9c-.7,1.08-1.61,2.31-2.45,3.29h4.62l1.82-2,3.75,2.91c-.21,.25-.67,.53-1.3,.67v13.97c-.07,.25-1.96,1.02-3.26,1.02h-.67v-2.35h-7.95v1.33c0,.38-1.61,1.26-3.25,1.26h-.59v-18.45l4.03,1.65h.8c.07-1.05,.11-2.28,.11-3.29h-7Zm3.05-7.04c8.58,1.5,4.94,7.77,1.68,5.15-.11-1.79-1.09-3.68-2-4.94l.32-.21Zm2.87,11.34v3.36h7.95v-3.36h-7.95Zm0,7.74h7.95v-3.4h-7.95v3.4Zm7.95,4.45v-3.47h-7.95v3.47h7.95Z"/>
      <path class="cls-2" d="M337.55,103.36c2.24-1.19,3.26-2.8,3.75-4.76-1.96-.77-3.47-1.68-3.47-3.43,0-1.44,1.08-2.66,2.76-2.66s2.98,1.26,2.98,3.57c0,2.94-1.44,6.58-5.43,8.4l-.6-1.12Z"/>
      <path class="cls-2" d="M366.28,110.78c0,2.59-.49,4.06-4.51,4.38-.07-1.12-.21-2.07-.6-2.63-.38-.56-.98-.94-2.24-1.19v-.49s2.38,.14,2.97,.14c.49,0,.6-.17,.6-.59v-3.96c-1.44,.77-3.22,1.71-5.29,2.76-.18,.46-.49,.74-.84,.84l-.88-2.03c-.49,2.7-1.79,5.46-5.01,7.46l-.32-.31c1.96-3.26,2-7.42,2-11.31v-7.95l4.24,1.54h5.78l1.64-1.86,3.61,2.7c-.17,.25-.6,.53-1.16,.63v11.87Zm14.74-19.01c-.56,5.43-1.68,10.43-4.27,14.63,1.89,2.34,4.24,4.2,7.14,5.67l-.14,.35c-1.93,.38-3.08,1.47-3.61,3.25-2.28-1.71-4.1-3.88-5.46-6.48-2.21,2.56-5.08,4.73-8.96,6.37l-.28-.32c3.61-2.59,6.09-5.74,7.81-9.17-1.12-2.91-1.86-6.23-2.35-9.87-.91,1.68-2.03,3.19-3.25,4.48l-.46-.28c.67-1.71,1.26-3.71,1.79-5.88-.14,.07-.32,.1-.52,.1h-17.85l-.28-1.01h3.92v-4.9h-2.83l-.28-1.02h3.12v-4.83l4.66,.42c-.04,.42-.28,.7-1.02,.8v3.61h2.8v-4.83l4.76,.42c-.07,.42-.32,.74-1.05,.84v3.25l1.37-1.92s1.82,1.58,2.84,2.7c-.07,.38-.42,.56-.91,.56h-3.29v4.9h.35l1.64-2.35s1.65,1.47,2.73,2.56c.77-3.43,1.37-7.25,1.58-10.89l5.71,1.26c-.14,.45-.53,.77-1.33,.8-.46,2-1.02,3.92-1.68,5.74h4.13l2.2-2.84s2.45,1.96,3.92,3.29c-.11,.39-.49,.56-.98,.56h-1.64Zm-25.2,12.08c0,.84-.04,1.79-.11,2.77,1.54-.28,4.1-.74,6.79-1.26v-6.9h-6.69v2.59c7.28-.81,6.62,3.99,3.99,3.39-.67-.59-2.17-1.54-3.99-2.31v1.71Zm2.06-10.22h2.8v-4.9h-2.8v4.9Zm15.16-1.86c-.46,1.12-.94,2.21-1.47,3.25,.66,3.01,1.64,5.71,2.94,8.09,1.26-3.54,1.86-7.39,2.07-11.34h-3.54Z"/>
      <path class="cls-2" d="M413.99,92.72s2.7,1.96,4.27,3.36c-.07,.38-.49,.56-.98,.56h-31.47l-.28-.98h5.81v-10.15l5.08,.46c-.07,.42-.32,.74-1.16,.88v8.82h4.55v-12.78l5.46,.46c-.07,.49-.35,.84-1.26,.98v4.8h4.38l2.38-2.98s2.7,2,4.38,3.4c-.11,.38-.49,.56-1.02,.56h-10.12v5.57h7.6l2.38-2.94Zm-27.93,22.54c10.12-2.31,18.55-5.71,24.08-16.24l5.04,2.8c-.25,.42-.74,.53-1.65,.35-7.32,10.22-15.86,12.71-27.37,13.62l-.1-.53Zm12.11-14.46c-.21,.31-.49,.52-1.29,.42-2.24,2.8-5.99,6.02-10.33,7.88l-.28-.42c3.01-2.8,5.71-7.32,6.9-10.5l5,2.63Zm5.78,6.09c0,.49-2.07,1.54-3.71,1.54h-.42v-11.1l5.39,.38c-.04,.53-.28,.84-1.26,1.02v8.16Z"/>
      <path class="cls-2" d="M431.35,98.42c-.11,.35-.46,.56-1.09,.7v15.37c-.07,.31-1.79,1.15-3.39,1.15h-.81v-13.65c-1.68,1.44-3.54,2.66-5.57,3.75l-.32-.39c4.48-3.75,7.74-9.03,9.91-14.32h-8.72l-.28-1.01h9.42c.95-2.49,1.68-4.94,2.17-7.21l5.92,1.54c-.1,.42-.42,.7-1.37,.74-.56,1.58-1.26,3.25-2.07,4.94h10.75l2.45-3.12s2.76,2.13,4.45,3.57c-.11,.38-.46,.56-.98,.56h-17.19c-1.19,2.38-2.73,4.76-4.58,6.93l1.3,.46Zm17.61,11.13s2.63,2,4.27,3.39c-.11,.39-.49,.56-1.02,.56h-21.14l-.28-1.02h7.88v-10.71h-6.33l-.28-.98h6.62v-8.23l5.32,.49c-.04,.46-.32,.77-1.12,.91v6.83h1.96l2.21-2.77s2.45,1.89,3.96,3.19c-.11,.38-.49,.56-.98,.56h-7.14v10.71h3.78l2.31-2.94Z"/>
      <path class="cls-2" d="M483.71,109.59s2.84,2.21,4.59,3.68c-.11,.38-.49,.56-1.02,.56h-31.61l-.28-.98h13.02v-29.51l5.81,.56c-.11,.49-.35,.84-1.3,.98v11.73h5.74l2.52-3.22s2.8,2.13,4.48,3.64c-.1,.38-.46,.56-.95,.56h-11.8v15.26h8.23l2.56-3.26Z"/>
      <path class="cls-2" d="M495.05,103.36c2.24-1.19,3.26-2.8,3.75-4.76-1.96-.77-3.47-1.68-3.47-3.43,0-1.44,1.08-2.66,2.76-2.66s2.98,1.26,2.98,3.57c0,2.94-1.44,6.58-5.43,8.4l-.6-1.12Z"/>
      <path class="cls-2" d="M511.92,93.28c-1.15,.98-2.35,1.86-3.61,2.59l-.38-.32c2.45-2.94,5.01-7.81,6.41-12.74l5.25,2c-.18,.42-.67,.7-1.44,.63-.73,1.37-1.54,2.59-2.38,3.75l1.09,.42c-.11,.31-.46,.52-1.09,.63v12.88c-.04,.28-1.65,1.05-3.12,1.05h-.74v-10.89Zm1.19,11.8c1.58,4.09,.28,7-1.4,7.95-1.12,.66-2.66,.42-3.12-.77-.35-1.16,.35-2.1,1.4-2.56,1.26-.7,2.66-2.56,2.59-4.62h.53Zm20.09,6.09c1.26,.46,1.58,.88,1.58,1.58,0,1.79-1.68,2.14-9.1,2.14h-4.9c-4.16,0-5.14-.56-5.14-3.26v-7.14l5.21,.45c-.07,.46-.38,.74-1.09,.84v5.22c0,.49,.17,.63,1.58,.63h4.76c1.65,0,3.18,0,3.82-.07,.63-.04,.8-.11,1.08-.45,.42-.6,1.01-1.86,1.75-3.78h.35l.1,3.85Zm-15.19-24.33l4.73,.42c-.07,.46-.35,.77-1.16,.88v11.27c0,.32-1.58,.91-2.91,.91h-.67v-13.48Zm18.97-1.58s2.35,1.75,3.92,3.08c-.1,.39-.49,.56-.98,.56h-2.38c-.63,2.66-1.71,4.94-3.29,6.9,8.89,4.52,4.52,9.7,1.79,6.79-.8-1.4-2.03-3.01-3.85-4.62-2.52,2.21-5.95,3.82-10.33,4.9l-.21-.42c3.78-1.68,6.51-3.75,8.4-6.3-1.3-.94-2.73-1.85-4.41-2.73l.25-.49c2.03,.45,3.75,.98,5.21,1.54,.95-1.68,1.58-3.54,1.96-5.57h-4.55c-1.58,2.7-3.61,4.73-5.88,6.2l-.38-.28c1.82-2.91,3.43-7.39,4.06-11.97l5.39,1.43c-.14,.46-.56,.77-1.33,.74-.38,1.05-.84,2-1.29,2.91h5.74l2.17-2.66Zm-14,17.85c8.79,2.21,5.29,8.65,2.07,5.92-.04-1.96-1.23-4.24-2.38-5.67l.32-.25Zm9.94,1.61c10.26,2.03,7.07,9.77,3.33,7-.32-2.42-1.93-5.11-3.68-6.76l.35-.25Z"/>
      <path class="cls-2" d="M548.77,94.82v19.36c0,.53-1.47,1.54-3.29,1.54h-.66v-32.06l4.1,1.79h4.58l1.71-1.85,3.64,2.73c-.17,.25-.63,.56-1.26,.67v8.68c-.04,.28-1.89,1.08-3.12,1.08h-.63v-1.93h-5.08Zm0-8.37v3.12h5.08v-3.12h-5.08Zm5.08,7.39v-3.26h-5.08v3.26h5.08Zm12.99,5.92c-.21,.28-.74,.6-1.47,.7v9.42c0,2.41-.53,3.78-4.38,4.13-.07-1.08-.18-1.89-.63-2.38-.42-.49-1.05-.91-2.42-1.15v-.46s2.59,.17,3.33,.17c.49,0,.63-.21,.63-.63v-2.24h-5.64c-.52,2.38-1.89,4.79-5.08,6.54l-.32-.35c2.24-2.94,2.38-6.65,2.38-9.98v-6.12l3.96,1.5h4.34l1.65-1.89,3.64,2.73Zm-4.94,6.55v-2.8h-5.25v.03c0,.84-.03,1.79-.17,2.77h5.43Zm-5.25-6.44v2.66h5.25v-2.66h-5.25Zm18.52-13.48c-.25,.28-.73,.59-1.47,.7v23.8c0,2.87-.56,4.45-4.94,4.79-.07-1.29-.24-2.31-.66-2.91-.46-.59-1.12-1.05-2.59-1.33v-.49s2.84,.21,3.5,.21c.56,0,.7-.24,.7-.7v-15.65h-5.32v.6c0,.35-1.64,1.22-3.26,1.22h-.56v-12.78l3.99,1.58h4.79l1.86-2.17,3.96,3.12Zm-10.78,.07v3.12h5.32v-3.12h-5.32Zm5.32,7.39v-3.26h-5.32v3.26h5.32Z"/>
      <path class="cls-2" d="M607.5,90.13c-.25,.32-.73,.63-1.51,.77v23.31c-.07,.31-2.1,1.29-3.67,1.29h-.7v-2.62h-14.21v1.19c0,.53-1.71,1.54-3.57,1.54h-.7v-28.32l4.59,1.86h3.15c.38-1.93,.7-4.48,.84-6.3l6.27,1.01c-.1,.45-.45,.77-1.29,.81-1.08,1.33-2.7,3.08-4.34,4.48h8.93l2.1-2.35,4.13,3.33Zm-20.09,.04v6.37h14.21v-6.37h-14.21Zm0,7.39v6.62h14.21v-6.62h-14.21Zm14.21,14.35v-6.76h-14.21v6.76h14.21Z"/>
      <path class="cls-2" d="M624.97,92.47c-.17,.31-.49,.56-1.33,.46-.77,1.08-1.71,2.28-2.8,3.46l1.47,.56c-.14,.31-.46,.56-1.08,.7v16.84c-.04,.31-1.61,1.26-3.25,1.26h-.74v-15.75c-1.4,1.23-2.91,2.35-4.48,3.33l-.32-.35c3.19-3.71,6.2-9.42,7.53-13.13l5.01,2.62Zm-.63-6.97c-.17,.35-.46,.53-1.29,.42-2.34,2.31-6.34,5.32-10.15,7.18l-.31-.35c2.66-2.8,5.56-7.14,6.93-9.91l4.83,2.66Zm18.2,15.44s2.21,1.82,3.5,3.12c-.11,.38-.46,.56-.95,.56h-5.18v6.51c0,2.66-.63,4.34-5.18,4.69-.03-1.19-.21-2.1-.59-2.66-.46-.56-1.16-.98-2.77-1.26v-.42s2.97,.17,3.68,.17c.56,0,.7-.21,.7-.59v-6.44h-12.57l-.28-.98h12.85v-3.85h-10.92l-.28-.98h14.21l1.79-2.38c-.52,.14-1.22,.25-2.03,.25h-.7v-1.19h-7.74v.88c0,.28-1.19,.95-3.19,.95h-.7v-13.83l4.27,1.65h7.21l1.89-2.17,3.64,2.8c-.21,.28-.53,.49-1.3,.63v9.45c0,.07-.24,.21-.7,.38,.7,.56,2.41,1.96,3.54,3.01-.11,.38-.46,.56-.98,.56h-3.85v3.85h.66l1.96-2.7Zm-15.93,4.24c9.21,.88,6.06,7.6,2.49,5.22-.38-1.79-1.68-3.75-2.77-5.01l.28-.21Zm3.47-19.08v3.71h7.74v-3.71h-7.74Zm7.74,8.4v-3.71h-7.74v3.71h7.74Z"/>
      <path class="cls-2" d="M24.26,145.91c-.28,1.65-1.16,2.28-2.35,2.28-.8,0-1.5-.42-1.85-1.16,.35-3.85,3.75-5.53,7.67-5.53,5.11,0,7.77,2.52,7.77,6.13,0,2.94-1.82,5.25-6.09,6.23,4.94,.77,6.86,3.19,6.86,6.51,0,4.24-3.54,7.21-9.14,7.21-4.73,0-7.56-2-8.02-5.85,.39-.98,1.19-1.4,2-1.4,1.3,0,2,.67,2.35,2.73l.63,3.01c.56,.14,1.12,.21,1.71,.21,3.75,0,5.71-2.03,5.71-5.81s-1.96-5.78-5.71-5.78h-1.54v-1.4h1.3c3.26,0,5.39-1.85,5.39-5.57,0-3.22-1.61-4.97-4.45-4.97-.49,0-.98,.07-1.51,.18l-.73,2.97Z"/>
      <path class="cls-2" d="M48.8,139.26h2.56l-10.43,34.02h-2.63l10.5-34.02Z"/>
      <path class="cls-2" d="M70.92,148.85c1.22,6.48,5.29,12.92,15.09,16.87l-.07,.38c-2.13,.38-3.39,1.68-3.78,4.06-8.16-4.97-10.78-13.48-11.73-20.48-1.05,8.33-4.55,15.47-17.26,20.48l-.32-.53c9.73-5.88,12.46-12.81,13.23-20.79h-12.64l-.28-1.01h12.99c.25-3.29,.21-6.79,.21-10.43l5.88,.56c-.11,.52-.42,.88-1.26,1.01-.07,3.05-.11,6.02-.35,8.86h7.88l2.59-3.19s2.84,2.13,4.59,3.64c-.11,.38-.49,.56-1.02,.56h-13.76Z"/>
      <path class="cls-2" d="M116.66,165.17s2.52,1.96,4.06,3.33c-.11,.39-.49,.56-1.02,.56h-31.5l-.28-1.02h14.21v-6.41h-10.78l-.24-1.01h11.03v-4.17c-.42,.28-1.47,.67-2.9,.67h-.67v-9.35h-2.83c-.35,3.61-1.82,7.63-7.74,10.19l-.28-.31c3.22-2.91,4.09-6.44,4.27-9.87h-3.75l-.28-1.02h4.1v-5.81h-3.12l-.28-.98h12.64l2.03-2.49s2.24,1.68,3.67,2.91c-.1,.38-.49,.56-.98,.56h-3.67v5.81h.04l1.96-2.7s2.14,1.79,3.4,3.08v-7.74l4.9,.46c-.07,.46-.32,.77-1.19,.91v10.96c0,.28-1.65,.91-3.01,.91h-.7v-5.21c-.14,.24-.49,.35-.88,.35h-4.52v7.67l5.25,.46c-.04,.52-.31,.88-1.26,1.01v3.71h5.29l2.17-2.8s2.45,1.92,3.92,3.26c-.1,.38-.46,.56-.94,.56h-10.43v6.41h8.09l2.24-2.87Zm-18.1-18.41v-5.81h-2.76v4.73c0,.35,0,.7-.04,1.08h2.8Zm12.36,6.65s2.9,.25,3.54,.25c.49,0,.63-.18,.63-.56v-15.19l5.04,.42c-.07,.53-.42,.81-1.19,.95v14c0,2.7-.56,4.13-4.8,4.52-.07-1.19-.21-2.07-.67-2.66-.45-.56-1.12-.98-2.55-1.26v-.45Z"/>
      <path class="cls-2" d="M154.53,165.2c1.08,.45,1.33,.91,1.33,1.71,0,1.65-1.43,2.42-7.32,2.42h-3.61c-3.54,0-4.34-.74-4.34-3.5v-10.61h-2.56c-.95,7.88-4.83,12.71-14.88,14.98l-.17-.46c7.6-3.26,10.12-7.84,10.61-14.53h-2.48v1.16c-.04,.28-1.23,1.3-3.4,1.3h-.59v-18.38l4.06,1.29c1.58-1.16,3.22-2.56,4.1-3.5l4.09,3.36c-.42,.35-1.12,.38-2.13,.07-1.54,.46-3.88,.95-6.12,1.33v5.57h2.1l1.79-2.42s2.1,1.65,3.33,2.84c-.07,.38-.45,.56-.95,.56h-6.27v5.81h16.21v-5.81h-6.09l-.31-.98h6.41v-5.81h-6.62l-.31-1.01h6.58l1.93-2.13,3.95,3.08c-.21,.28-.66,.63-1.4,.77v13.97c-.03,.28-2.06,1.05-3.46,1.05h-.67v-2.1h-2.73v9.63c0,.52,.17,.7,1.26,.7h3.12c1.08,0,2.1,0,2.55-.04,.49-.04,.67-.14,.88-.53,.38-.63,.95-2.34,1.65-4.52h.39l.1,4.73Z"/>
      <path class="cls-2" d="M186.56,164.99s2.49,1.96,3.89,3.33c-.07,.38-.42,.56-.91,.56h-31.05l-.28-.98h13.86v-3.43h-10.22l-.28-1.01h10.5v-3.43h-5.01v.6c0,.38-1.85,1.26-3.57,1.26h-.56v-12.64l4.38,1.72h13.86l1.93-2.1,4.1,3.08c-.25,.28-.74,.56-1.44,.7v7.6c-.04,.25-2.17,.98-3.5,.98h-.74v-1.19h-5.18v3.43h5.32l2.03-2.31s2.28,1.58,3.64,2.77c-.07,.38-.42,.56-.91,.56h-10.08v3.43h8.05l2.17-2.91Zm-28.25-17.33h10.89c-.35-.1-.74-.31-1.09-.63-.04-1.54-.66-3.19-1.33-4.31h-6.23l-.28-1.01h14.21c-.45-.07-.95-.25-1.4-.59-.07-1.4-.91-2.98-1.79-3.82l.25-.21c7.04,.17,5.99,4.3,3.54,4.62h7.42l2.17-2.73s2.45,1.86,3.99,3.19c-.1,.38-.49,.56-.98,.56h-8.12l4.06,.95c-.14,.42-.49,.7-1.3,.7-1.01,.98-2.45,2.24-3.85,3.29h5.71l2.21-2.87s2.49,1.93,3.96,3.33c-.11,.39-.46,.56-.95,.56h-30.84l-.25-1.02Zm8.75,4.31v3.08h5.01v-3.08h-5.01Zm5.01,7.07v-3.01h-5.01v3.01h5.01Zm-3.82-16.31c4.94,1.26,4.2,4.34,2.28,4.94h6.48c.52-1.47,1.05-3.43,1.33-4.94h-10.08Zm8.09,9.24v3.08h5.18v-3.08h-5.18Zm5.18,7.07v-3.01h-5.18v3.01h5.18Z"/>
      <path class="cls-2" d="M204.02,154.81c-.21,.31-.59,.38-1.33,.45-.73,2.42-2.28,5.08-4.34,7.25,.28,.04,.49,.14,.8,.35,2.66,2.13,7,2.55,14.95,2.55,4.2-.04,7.56-.04,11.73-.25v.46c-1.61,.32-2.59,1.82-2.8,3.36h-10.4c-7.98,0-11.03-1.19-13.93-4.83-.53-.67-.88-.56-1.19,.07-.49,1.02-1.16,2.73-1.79,4.45,.1,.31,0,.52-.25,.7l-2.83-3.92c1.29-.7,3.12-2,4.27-2.62,1.12-2.28,1.96-5.29,2.28-7.81h-1.54l-1.16,1.12-2.91-2.07c.32-.21,.77-.46,1.26-.63,.91-1.65,2.03-4.1,2.76-5.78h-4.03l-.32-1.01h4.31l1.58-1.61,3.19,2.87c-.31,.32-.95,.49-1.68,.56-.7,1.5-1.86,3.82-2.73,5.53h1.05l1.82-1.82,3.22,2.63Zm-9.38-16.94c9.03,1.54,5.57,8.26,2.14,5.64-.17-1.92-1.33-4.1-2.45-5.43l.31-.21Zm7.32,6.34l-.28-.98h7.98l1.5-2.2s1.72,1.5,2.73,2.59c.6-1.93,.98-4.1,1.19-6.23l4.66,1.16c-.14,.38-.53,.7-1.29,.74-.42,1.16-.91,2.28-1.47,3.29h3.29l1.79-2.38s2.07,1.64,3.26,2.8c-.11,.39-.46,.56-.88,.56h-8.02c-.7,1.08-1.47,2.03-2.27,2.87h5.6l1.75-1.79,3.19,2.8c-.24,.28-.66,.31-1.33,.38-1.05,.77-2.48,1.75-3.88,2.45l1.86,.17c-.07,.49-.42,.77-1.19,.88v2.87h.39l1.61-2.24s1.82,1.58,2.83,2.7c-.07,.39-.42,.56-.88,.56h-3.96v5.43c0,2.38-.46,3.6-3.99,3.92-.07-.91-.14-1.68-.53-2.17-.38-.49-.91-.81-2.06-1.02v-.52s2.28,.17,2.77,.17c.46,0,.56-.14,.56-.53v-5.29h-3.85l-.28-1.02h4.13v-4.17l1.47,.14c.53-.8,1.05-1.89,1.4-2.76h-5.32l-.31-.95c-.32,.31-.63,.59-.98,.88l-.53-.28c.45-.95,.88-2.03,1.26-3.19-.17,.25-.45,.35-.84,.35h-5.32c-.04,1.4-.07,2.8-.14,4.2h1.44l1.71-1.71,3.15,2.59c-.24,.28-.66,.49-1.37,.6-.17,8.58-.49,12.18-1.92,13.48-.77,.67-1.72,.91-2.77,.95,0-.67-.14-1.47-.45-1.86-.32-.42-.98-.84-1.82-1.05v-.52c.73,.07,1.82,.1,2.28,.1,.24,0,.38-.04,.53-.25,.59-.77,.84-3.99,1.01-11.31h-1.85c-.46,5.53-1.82,10.5-5.5,14.46l-.35-.38c2.84-5.67,2.91-12.43,2.63-19.29h-2.31Zm2.77-6.69c7.63,1.71,4.03,7.11,1.19,4.62-.11-1.54-.88-3.29-1.54-4.45l.35-.17Z"/>
      <path class="cls-2" d="M260.02,165.87c1.02,2.17,1.23,3.4,.6,3.85-1.71,1.33-4.41-.38-5.6-1.96-.98-1.19-1.82-2.52-2.52-3.96-2,2.21-4.41,4.13-7.25,5.64l-.31-.38c2.59-2.07,4.76-4.76,6.51-7.67-1.37-3.54-2.1-7.63-2.45-12.08l-2.49,.35-.39-.95,2.77-.39c-.07-1.15-.14-2.27-.17-3.46-.25,.14-.59,.17-1.16,.25-.84,.77-2.31,1.75-3.46,2.28l-.28-.18c-.14,.21-.38,.32-.7,.35l-4.48,.56v.7c0,.39,.07,.49,.77,.49h1.79c.7,0,1.36,0,1.68-.04,.21,0,.49,0,.66-.04,.21-.03,.53-.1,.74-.14h.32l.14,.04c.81,.28,1.12,.53,1.12,1.08,0,.67-.35,1.09-1.37,1.33,.46,.35,1.89,1.44,2.8,2.28-.07,.38-.42,.56-.91,.56h-12.92l-.28-.98h9.56l1.44-1.82c-.77,.14-1.82,.21-3.29,.21h-2.28c-2.45,0-2.8-.59-2.8-2.38v-.91l-2.42,.31-.38-.91,2.8-.35v-3.01l3.82,.35c-.04,.46-.38,.73-.98,.84v1.47l1.47-.17,1.12-1.79s1.54,.91,2.56,1.65c.17-.7,.35-1.61,.46-2.42h-11.34v6.12c0,5.53-.14,13.79-4.87,19.32l-.42-.25c1.85-5.88,1.82-13.06,1.82-19.04v-8.68l4.06,1.54h2.45v-6.23l5.04,.46c-.04,.46-.32,.77-1.16,.91v2.1h2.14l1.92-2.38s2.14,1.61,3.43,2.8c-.07,.39-.42,.56-.91,.56h-.63l2.94,2.83c-.1-2.34-.14-4.76-.14-7.25l5.18,.56c-.03,.45-.35,.88-1.26,1.02-.07,3.01-.07,6.02,.11,8.89l2.28-.32,1.71-2.84s2.55,1.4,4.17,2.42c-.04,.39-.39,.63-.84,.7l-7.25,1.05c.17,2.8,.56,5.46,1.19,7.84,.98-2.34,1.71-4.72,2.21-6.96l4.8,1.57c-.14,.42-.46,.67-1.37,.63-.98,2.76-2.41,5.74-4.34,8.54,.63,1.4,1.44,2.62,2.38,3.67,.42,.56,.63,.56,.98-.07,.49-.91,1.33-2.7,1.92-4.24l.35,.11-.77,5.99Zm-12.6-.91c-2.84,1.16-6.86,2.59-12.64,4.31-.18,.46-.49,.74-.88,.84l-1.68-3.85c1.05-.07,2.56-.21,4.41-.42-.25-.1-.52-.28-.77-.52,.14-1.05-.17-2.35-.59-3.19-.28,.04-.56,.07-.88,.07h-.56v-7.21l3.36,1.37h5.36l1.44-1.65,3.01,2.21c-.21,.28-.53,.45-1.26,.59v3.47c0,.14-1.01,.7-2.55,.7h-.53v-.91h-5.81v.67c0,.11-.24,.32-.7,.49,3.22,1.16,3.08,3.01,2.03,3.75l2.49-.31c.17-1.16,.28-2.66,.35-3.78l4.23,.91c-.1,.39-.49,.74-1.26,.74-.46,.63-1.12,1.33-1.86,1.96,1.72-.25,3.5-.49,5.25-.7l.04,.49Zm-10.57-7.63v2.42h5.81v-2.42h-5.81Zm7.14-13.83l1.71-1.79h-5.88v1.79h4.17Zm9.73-4.52c8.47,1.26,5.29,7.63,2.1,5.15-.14-1.75-1.26-3.71-2.42-4.9l.32-.25Z"/>
      <path class="cls-2" d="M292.57,165.24c1.96,.35,2.42,.91,2.42,1.61,0,1.92-2.34,2.28-14.14,2.28h-7.74c-5.67,0-8.19-.6-8.19-4.59v-23.77h-1.23l-.31-.98h24.75l2.1-2.8s2.35,1.92,3.78,3.22c-.11,.38-.49,.56-.98,.56h-24.33v23.24c0,1.58,.95,2.07,3.99,2.07h8.47c3.01,0,5.71-.07,6.76-.17,.67-.04,1.51-.14,2.07-.21,.49-.07,1.23-.25,2-.49h.38l.21,.04Zm-15.65-.95v-1.71h-2.91v1.47c0,.28-1.47,1.05-2.87,1.05h-.49v-11.87l3.5,1.4h2.45l1.58-1.64,3.29,2.49c-.17,.21-.59,.49-1.16,.56v7.35c-.04,.25-1.71,.91-2.83,.91h-.56Zm7.91-13.55h-6.96v.98c0,.35-1.75,1.19-3.33,1.19h-.56v-10.85l4.06,1.58h6.48l1.79-1.92,3.75,2.83c-.21,.25-.63,.53-1.26,.67v6.16c-.04,.25-2.03,.95-3.25,.95h-.7v-1.58Zm-7.91,10.82v-5.91h-2.91v5.91h2.91Zm7.91-11.83v-5.08h-6.96v5.08h6.96Zm3.85,14.42v-1.58h-3.01v.91c0,.31-1.5,1.05-2.9,1.05h-.49v-11.31l3.54,1.4h2.55l1.61-1.68,3.36,2.55c-.17,.21-.59,.45-1.15,.56v7.18c-.04,.21-1.79,.91-2.91,.91h-.59Zm0-2.59v-5.91h-3.01v5.91h3.01Z"/>
      <path class="cls-2" d="M302.55,157.78c2.24-1.19,3.26-2.8,3.75-4.76-1.96-.77-3.47-1.68-3.47-3.43,0-1.44,1.08-2.66,2.76-2.66s2.98,1.26,2.98,3.57c0,2.94-1.44,6.58-5.43,8.4l-.6-1.12Z"/>
      <path class="cls-2" d="M325.65,142.06s1.82,1.47,2.98,2.56c-.1,.38-.46,.56-.94,.56h-11.97l-.28-.98h8.58l1.64-2.14Zm-2.48,6.58l1.54-2s1.68,1.4,2.77,2.41c-.11,.38-.42,.56-.91,.56h-9.62l-.28-.98h6.51Zm1.54,2.52s1.68,1.4,2.77,2.42c-.11,.38-.42,.56-.91,.56h-9.62l-.28-.98h6.51l1.54-2Zm22.09,10.61c-.14,.28-.49,.39-1.22,.18-.91,.38-2.59,.88-3.99,1.29,1.96,1.37,4.34,2.31,6.83,2.8l-.04,.39c-1.33,.31-2.34,1.5-2.7,3.33-4.31-1.89-6.83-5.04-8.3-10.05-.6,.56-1.22,1.09-1.96,1.58v4.24c1.16-.28,2.41-.63,3.64-.98l.11,.42c-1.12,.88-3.43,2.7-6.02,4.45-.28,.42-.63,.7-.95,.84l-1.71-3.68c1.36-.56,1.58-.88,1.58-1.5v-1.96c-1.51,.67-3.12,1.22-4.76,1.68l-.28-.53c2.42-1.22,4.52-2.91,5.99-4.73h-5.43l-.18-.67c-.17,.11-.38,.18-.59,.21v8.16c-.03,.28-1.75,1.08-2.98,1.08h-.59v-1.75h-2.73v2.17c0,.32-1.51,1.12-3.01,1.12h-.53v-13.76l3.64,1.5h2.31l1.65-1.79,3.43,2.62-.07,.07h4.03v-2.31h-3.39l-.28-1.01h3.68v-2.17h-4.1l-.28-.98h4.38v-2.42l4.34,.38c-.04,.38-.28,.67-.91,.77v1.26h3.01v-2.07h-.46v-7.07l2.87,1.22h2.24l1.3-1.4,2.87,2.14c-.17,.21-.63,.46-1.19,.56v3.54c-.04,.25-1.4,.77-2.24,.77h-.46v-.59h-2.66c0,.1-.39,.35-.91,.56l2.76,.28c-.04,.32-.21,.53-.7,.63v1.44h1.02l1.61-1.96s1.86,1.33,2.98,2.38c-.1,.38-.42,.56-.91,.56h-4.69v2.17h.38l1.47-1.89s1.71,1.33,2.77,2.35c-.11,.38-.42,.56-.91,.56h-3.71v2.31h1.79l1.68-2.1s1.96,1.47,3.15,2.56c-.07,.38-.46,.56-.91,.56h-3.74l3.01,2.24Zm-28.53-23.77c9,.42,5.78,7.21,2.21,4.83-.32-1.68-1.47-3.54-2.52-4.66l.32-.17Zm4.97,27.58v-7h-2.73v7h2.73Zm3.99-24.22h9.07c-.32-.07-.63-.25-.95-.45-.1-1.33-.91-2.87-1.75-3.68l.32-.21c6.2,.17,5.6,3.75,3.54,4.34h5.25l1.93-2.38s2.17,1.61,3.5,2.83c-.11,.39-.46,.56-.91,.56h-19.71l-.28-1.01Zm7.91,1.4l2.8,2.07c-.18,.25-.63,.49-1.19,.59v3.54c-.04,.25-1.37,.77-2.21,.77h-.46v-.59h-2.52v.35c0,.21-1.22,.81-2.31,.81h-.42v-7.39l2.87,1.22h2.1l1.33-1.37Zm-1.05,5.36v-3.01h-2.52v3.01h2.52Zm1.3,7.07h3.01v-2.17h-3.01v2.17Zm0,1.01v2.31h3.01v-2.31h-3.01Zm2.66,3.33c.7,1.12,1.58,2.14,2.63,3.01,.77-.95,1.64-2.13,2.24-3.01h-4.87Zm2.63-14.42v3.04h2.66v-3.04h-2.66Z"/>
      <path class="cls-2" d="M364.01,149.8c-1.23,1.05-2.84,2.38-4.87,3.99v11.55c0,2.8-.56,4.3-4.87,4.72-.1-1.26-.25-2.21-.67-2.83-.45-.59-1.12-1.05-2.59-1.29v-.49s2.9,.17,3.57,.17c.49,0,.63-.14,.63-.52v-8.4c-.59,.42-1.22,.84-1.85,1.29-.1,.46-.39,.88-.77,1.05l-2.38-4.52c1.01-.32,2.83-.95,5-1.75v-6.41l2.1,.21c.74-1.68,1.47-3.96,2-5.53h-8.68l-.32-.98h8.86l2.17-2.1,3.6,3.25c-.28,.32-.63,.35-1.4,.42-1.33,1.44-3.26,3.5-5.11,5.04l1.93,.17c-.07,.49-.42,.8-1.23,.91v3.54c1.54-.59,3.12-1.26,4.69-1.86l.18,.35Zm-3.05,19.99c7.25-3.54,13.27-8.51,17.61-16.84l4.87,2.62c-.28,.42-.7,.56-1.57,.38-1.75,2.49-3.61,4.55-5.64,6.34,9.84,2.45,7.14,9.59,3.25,7.25-.73-2.17-2.52-4.62-4.13-6.51-4.09,3.4-8.79,5.64-14.18,7.25l-.21-.49Zm18.9-29.3s2.38,1.89,3.78,3.19c-.11,.38-.49,.56-.98,.56h-12.74l4.76,1.61c-.14,.35-.53,.63-1.23,.59-1.71,1.71-4.48,3.71-6.93,5.08,1.79-.04,4.24-.07,6.79-.17,.8-1.23,1.58-2.52,2.28-3.92l4.69,2.45c-.24,.42-.63,.52-1.43,.38-4.55,6.3-10.15,10.29-17.12,12.88l-.28-.52c4.17-2.45,7.77-5.57,10.78-9.7-1.82,.59-4.03,1.26-6.4,1.92-.35,.49-.74,.77-1.12,.91l-1.37-4.34s.74-.14,1.05-.32c1.89-1.16,4.23-4.8,5.04-6.86h-6.55l-.28-.98h15.23l2.03-2.77Zm-10.61-3.25c9.31,1.23,5.53,8.09,1.96,5.36-.21-1.79-1.26-3.85-2.27-5.18l.31-.17Z"/>
      <path class="cls-2" d="M413.5,149.87s2.84,2.17,4.55,3.64c-.07,.35-.49,.53-1.01,.53h-12.95v10.99c0,2.94-.77,4.66-6.23,5.11-.17-1.4-.42-2.34-1.19-3.01-.8-.67-1.86-1.12-4.27-1.54v-.46s5.42,.35,6.44,.35c.67,0,.91-.25,.91-.74v-10.71h-13.79l-.28-.95h14.07v-6.12l3.57,.35c1.93-1.68,3.96-3.99,5.32-5.71h-19.08l-.32-.98h19.71l2.45-2.35,4.03,3.54c-.28,.35-.67,.42-1.44,.49-2.55,1.68-6.05,3.68-9.35,5.11l.63,.07c-.07,.53-.42,.81-1.19,.95v4.66h6.9l2.52-3.22Z"/>
      <path class="cls-2" d="M425.22,151.58c.32,2.03-.28,3.64-1.85,4.34-2.66,1.12-4.45-2.24-1.5-3.78,.98-.49,1.92-1.82,1.89-3.82l.42-.03c.38,.8,.66,1.58,.88,2.31h.49l-.35-11.8,3.19,.63c1.09-.77,2.17-1.65,2.77-2.21l2.8,2.13,.1-.1c1.05,.04,1.96,.17,2.7,.35,.53-.7,.95-1.43,1.26-2.1l3.22,1.64c-.14,.32-.49,.39-1.12,.25-.31,.42-.73,.81-1.19,1.23,1.75,1.4,.95,3.25-.7,2.7-.28-.38-.7-.84-1.15-1.26-1.16,.77-2.45,1.47-3.68,1.96l-.07-.11c-.1,.28-.42,.38-.8,.38h-3.57l.11,2.7h.8l1.29-1.71s1.47,1.23,2.38,2.17c-.11,.39-.42,.56-.88,.56h-3.61l.1,2.59h15.05l.11-2.59h-2.87l-.28-1.02h3.22l.1-2.7h-2.9l-.32-.98h3.29l.14-2.73h-3.47l-.28-1.02h3.43l1.54-1.82,3.68,2.8c-.28,.28-.56,.42-1.22,.49l-.46,9.21,1.79-1.75,3.64,3.5c-.28,.28-.63,.35-1.33,.38-1.33,.81-3.57,1.96-5.04,2.63l-.32-.25c.28-.81,.7-2.14,1.01-3.19h-22.44Zm23.24,6.09s2.45,2.03,3.89,3.4c-.11,.38-.46,.56-.98,.56h-12.46v3.64c0,2.87-.63,4.45-5.36,4.87-.11-1.29-.32-2.21-.88-2.87-.56-.63-1.37-1.09-3.22-1.37v-.49s3.96,.25,4.72,.25c.53,0,.7-.14,.7-.59v-3.43h-13.41l-.28-1.01h13.69v-2.8l3.12,.28c.88-.77,1.79-1.65,2.52-2.42h-12.5l-.31-1.02h13.37l2.21-2.1,3.78,3.33c-.32,.28-.66,.38-1.43,.42-1.54,.59-3.57,1.37-5.57,1.96-.07,.53-.42,.77-1.15,.88v1.47h7.35l2.21-2.94Zm-17.43-15.96s1.19,.91,2.07,1.75c.91-.7,1.82-1.61,2.62-2.55-.56-.42-1.16-.81-1.68-1.12-.21,.07-.52,.03-.88-.07-.98,.31-2.62,.67-4.34,.91l.07,2.7h.88l1.26-1.61Zm10.71,3.5c-.17,.35-.56,.42-1.12,.28-.35,.49-.84,.95-1.37,1.44,1.79,1.61,.84,3.64-.95,2.91-.24-.45-.59-.98-1.05-1.47-1.33,.84-2.84,1.54-4.31,2l-.28-.52c1.15-.74,2.31-1.68,3.29-2.73-.7-.59-1.47-1.16-2.13-1.58l.35-.35c1.19,.1,2.17,.28,2.98,.56,.56-.67,.98-1.4,1.33-2.07l3.25,1.54Z"/>
      <path class="cls-2" d="M475.27,138.63c-.11,.42-.53,.63-1.68,.77,3.22,2.98,9.7,4.76,14.67,5.53v.49c-1.72,.56-2.84,2.35-3.05,3.92-.88-.32-1.72-.66-2.56-1.08l1.68,1.26c-.1,.17-.46,.38-.88,.49v6.62c-.04,.28-1.89,1.02-3.08,1.02h-.63v-1.02h-16v.28c0,.14-.17,.35-.49,.59l3.57,1.4h9.73l1.79-1.82,3.61,2.66c-.14,.21-.49,.42-.95,.53v8.54c-.04,.32-2,1.26-3.43,1.26h-.7v-1.82h-10.26v.66c0,.38-1.82,1.29-3.5,1.29h-.56v-12.32c-.49,.21-1.08,.35-1.82,.35h-.63v-9.52c-1.47,.63-2.94,1.16-4.38,1.61l-.21-.42c5.85-2.97,12.15-8.82,13.69-12.78l6.06,1.51Zm5.6,8.72c-3.32-1.93-6.2-4.52-7.84-7.56-2.28,2.87-6.48,5.84-11.06,8.05l2.24,.88h15.3l1.37-1.37Zm-17.12,8.26h6.23v-5.88h-6.23v5.88Zm1.3-5.53c6.41,2.27,3.08,6.83,.81,4.51,.07-1.47-.56-3.22-1.19-4.34l.39-.17Zm9.42-6.44s1.92,1.51,3.12,2.63c-.1,.38-.42,.56-.91,.56h-9.91l-.28-.98h6.23l1.75-2.21Zm-7.84,16.28v3.15h10.26v-3.15h-10.26Zm10.26,7.32v-3.19h-10.26v3.19h10.26Zm2.87-17.5h-6.3v5.88h.98c.56-1.65,1.19-3.89,1.54-5.53l3.78,1.26v-1.61Zm0,5.88v-3.71c-.21,.1-.53,.17-.95,.14-.88,1.08-2.17,2.42-3.4,3.57h4.34Z"/>
      <path class="cls-2" d="M521.23,157.43s1.82,1.71,2.8,2.87c-.11,.38-.42,.56-.91,.56h-32.66l-.31-.98h3.74l-.49-20.69,3.71,1.08c1.05-1.12,2.1-2.41,2.62-3.15l3.26,3.36c-.25,.25-.63,.25-1.16,0-.98,.35-2.83,.88-4.62,1.26l.14,5.04h.84l1.36-2s1.44,1.4,2.31,2.38c.28-.21,.63-.42,.98-.6,.39-2.59,.81-6.93,.88-8.96l4.52,.56c-.07,.42-.38,.84-1.26,.95-.04,.73-.11,1.64-.21,2.62h1.89l1.54-2.17s1.71,1.54,2.7,2.59c-.07,.38-.42,.56-.88,.56h-5.36c-.14,1.47-.32,2.94-.49,4.17h2.31l1.64-1.65,3.12,2.56c-.25,.28-.67,.42-1.37,.52-.24,6.37-.8,8.89-2.21,9.94-.84,.66-1.93,.98-3.26,.98,0-.88-.07-1.68-.46-2.1-.35-.42-.98-.74-1.85-.91v-.53c.77,.07,2.03,.14,2.59,.14,.49,0,.7-.07,.94-.28,.59-.53,.98-2.77,1.16-7.67h-2.49l-1.29,1.54-3.15-2c-.17,.25-.46,.35-.81,.35h-3.67l.14,5.67h.84l1.4-2.06s1.58,1.47,2.42,2.52c-.04,.39-.35,.56-.84,.56h-3.78l.14,5.39h18.06l.14-5.39h-3.19l-.31-1.02h3.5l.14-5.67h-2.8l-.31-1.02h3.15l.1-5.6h-3.78l-.31-.98h3.78l1.65-2.1,3.82,3.12c-.25,.32-.56,.46-1.33,.56l-.42,18.1h.07l1.57-2.45Zm-30.56,12.29c4.03-2.17,7.98-5.85,9.73-8.68l5.39,2.42c-.25,.45-.81,.67-1.96,.59-2.8,2.38-7.74,4.76-12.99,6.06l-.17-.38Zm16.45-19.22c-.11,.38-.49,.73-1.26,.77-.91,2.91-2.24,5.71-3.85,7.56l-.56-.25c.7-2.42,1.23-5.88,1.36-9l4.31,.91Zm3.12,11.41c18.52,2.13,11.66,10.92,8.09,7.18-1.29-2.07-3.78-4.73-8.26-6.76l.18-.42Z"/>
      <path class="cls-2" d="M543.73,138.39c-.07,.52-.38,.88-1.29,.98,.74,13.48,4.03,21.63,16,26.04l-.07,.42c-2.1,.39-3.43,1.82-3.89,4.1-8.82-4.69-11.45-12.92-12.32-24.08-.63,9-3.15,17.96-16.31,24.26l-.38-.49c12.81-9.35,12.46-20.65,12.5-31.78l5.78,.56Z"/>
      <path class="cls-2" d="M589.06,153.9s2.66,2.1,4.27,3.5c-.1,.38-.49,.56-1.01,.56h-31.54l-.31-.98h8.4v-9.7h-6.86l-.28-1.01h7.14v-8.58l5.39,.45c-.11,.53-.35,.88-1.29,1.01v7.11h7.21v-8.58l5.46,.45c-.11,.53-.35,.88-1.29,1.01v7.11h1.82l2.14-2.84s2.41,1.93,3.85,3.29c-.1,.38-.49,.56-.98,.56h-6.83v9.7h2.38l2.35-3.08Zm-28.39,15.89c4.24-2.8,8.19-7.32,10.01-10.78l4.97,2.94c-.21,.35-.56,.56-1.37,.42-2.87,2.94-7.84,6.16-13.37,7.81l-.25-.38Zm12.29-12.81h7.21v-9.7h-7.21v9.7Zm6.72,3.08c15.12,2.31,13.02,11.97,8.16,9.56-1.65-3.29-5.32-7.04-8.44-9.28l.28-.28Z"/>
      <path class="cls-2" d="M606.52,154.81c-.21,.31-.59,.38-1.33,.45-.73,2.42-2.28,5.08-4.34,7.25,.28,.04,.49,.14,.8,.35,2.66,2.13,7,2.55,14.95,2.55,4.2-.04,7.56-.04,11.73-.25v.46c-1.61,.32-2.59,1.82-2.8,3.36h-10.4c-7.98,0-11.03-1.19-13.93-4.83-.53-.67-.88-.56-1.19,.07-.49,1.02-1.16,2.73-1.79,4.45,.1,.31,0,.52-.25,.7l-2.83-3.92c1.29-.7,3.12-2,4.27-2.62,1.12-2.28,1.96-5.29,2.28-7.81h-1.54l-1.16,1.12-2.91-2.07c.32-.21,.77-.46,1.26-.63,.91-1.65,2.03-4.1,2.76-5.78h-4.03l-.32-1.01h4.31l1.58-1.61,3.19,2.87c-.31,.32-.95,.49-1.68,.56-.7,1.5-1.86,3.82-2.73,5.53h1.05l1.82-1.82,3.22,2.63Zm-9.38-16.94c9.03,1.54,5.57,8.26,2.14,5.64-.17-1.92-1.33-4.1-2.45-5.43l.31-.21Zm7.32,6.34l-.28-.98h7.98l1.5-2.2s1.72,1.5,2.73,2.59c.6-1.93,.98-4.1,1.19-6.23l4.66,1.16c-.14,.38-.53,.7-1.29,.74-.42,1.16-.91,2.28-1.47,3.29h3.29l1.79-2.38s2.07,1.64,3.26,2.8c-.11,.39-.46,.56-.88,.56h-8.02c-.7,1.08-1.47,2.03-2.27,2.87h5.6l1.75-1.79,3.19,2.8c-.24,.28-.66,.31-1.33,.38-1.05,.77-2.48,1.75-3.88,2.45l1.86,.17c-.07,.49-.42,.77-1.19,.88v2.87h.39l1.61-2.24s1.82,1.58,2.83,2.7c-.07,.39-.42,.56-.88,.56h-3.96v5.43c0,2.38-.46,3.6-3.99,3.92-.07-.91-.14-1.68-.53-2.17-.38-.49-.91-.81-2.06-1.02v-.52s2.28,.17,2.77,.17c.46,0,.56-.14,.56-.53v-5.29h-3.85l-.28-1.02h4.13v-4.17l1.47,.14c.53-.8,1.05-1.89,1.4-2.76h-5.32l-.31-.95c-.32,.31-.63,.59-.98,.88l-.53-.28c.45-.95,.88-2.03,1.26-3.19-.17,.25-.45,.35-.84,.35h-5.32c-.04,1.4-.07,2.8-.14,4.2h1.44l1.71-1.71,3.15,2.59c-.24,.28-.66,.49-1.37,.6-.17,8.58-.49,12.18-1.92,13.48-.77,.67-1.72,.91-2.77,.95,0-.67-.14-1.47-.45-1.86-.32-.42-.98-.84-1.82-1.05v-.52c.73,.07,1.82,.1,2.28,.1,.24,0,.38-.04,.53-.25,.59-.77,.84-3.99,1.01-11.31h-1.85c-.46,5.53-1.82,10.5-5.5,14.46l-.35-.38c2.84-5.67,2.91-12.43,2.63-19.29h-2.31Zm2.77-6.69c7.63,1.71,4.03,7.11,1.19,4.62-.11-1.54-.88-3.29-1.54-4.45l.35-.17Z"/>
      <path class="cls-2" d="M37.04,214.86h-3.96v6.58h-4.16v-6.58h-10.29v-2.49l11.27-16.07h3.18v15.47h3.96v3.08Zm-8.12-3.08v-11.87l-8.37,11.87h8.37Z"/>
      <path class="cls-2" d="M48.8,193.68h2.56l-10.43,34.02h-2.63l10.5-34.02Z"/>
      <path class="cls-2" d="M64.02,209.23c-.21,.31-.59,.38-1.33,.45-.73,2.42-2.28,5.08-4.34,7.25,.28,.04,.49,.14,.8,.35,2.66,2.13,7,2.55,14.95,2.55,4.2-.04,7.56-.04,11.73-.25v.46c-1.61,.32-2.59,1.82-2.8,3.36h-10.4c-7.98,0-11.03-1.19-13.93-4.83-.53-.67-.88-.56-1.19,.07-.49,1.02-1.16,2.73-1.79,4.45,.1,.31,0,.52-.25,.7l-2.83-3.92c1.29-.7,3.12-2,4.27-2.62,1.12-2.28,1.96-5.29,2.28-7.81h-1.54l-1.16,1.12-2.91-2.07c.32-.21,.77-.46,1.26-.63,.91-1.65,2.03-4.1,2.76-5.78h-4.03l-.32-1.01h4.31l1.58-1.61,3.19,2.87c-.31,.32-.95,.49-1.68,.56-.7,1.5-1.86,3.82-2.73,5.53h1.05l1.82-1.82,3.22,2.63Zm-9.38-16.94c9.03,1.54,5.57,8.26,2.14,5.64-.17-1.92-1.33-4.1-2.45-5.43l.31-.21Zm7.32,6.34l-.28-.98h7.98l1.5-2.21s1.72,1.5,2.73,2.59c.6-1.93,.98-4.1,1.19-6.23l4.66,1.16c-.14,.38-.53,.7-1.29,.74-.42,1.16-.91,2.28-1.47,3.29h3.29l1.79-2.38s2.07,1.64,3.26,2.8c-.11,.39-.46,.56-.88,.56h-8.02c-.7,1.08-1.47,2.03-2.27,2.87h5.6l1.75-1.79,3.19,2.8c-.24,.28-.66,.31-1.33,.38-1.05,.77-2.48,1.75-3.88,2.45l1.86,.17c-.07,.49-.42,.77-1.19,.88v2.87h.39l1.61-2.24s1.82,1.58,2.83,2.7c-.07,.39-.42,.56-.88,.56h-3.96v5.43c0,2.38-.46,3.6-3.99,3.92-.07-.91-.14-1.68-.53-2.17-.38-.49-.91-.81-2.06-1.02v-.52s2.28,.17,2.77,.17c.46,0,.56-.14,.56-.53v-5.29h-3.85l-.28-1.02h4.13v-4.16l1.47,.14c.53-.8,1.05-1.89,1.4-2.76h-5.32l-.31-.95c-.32,.31-.63,.59-.98,.88l-.53-.28c.45-.95,.88-2.03,1.26-3.19-.17,.25-.45,.35-.84,.35h-5.32c-.04,1.4-.07,2.8-.14,4.2h1.44l1.71-1.71,3.15,2.59c-.24,.28-.66,.49-1.37,.6-.17,8.58-.49,12.18-1.92,13.48-.77,.66-1.72,.91-2.77,.95,0-.66-.14-1.47-.45-1.86-.32-.42-.98-.84-1.82-1.05v-.52c.73,.07,1.82,.1,2.28,.1,.24,0,.38-.04,.53-.25,.59-.77,.84-3.99,1.01-11.31h-1.85c-.46,5.53-1.82,10.5-5.5,14.46l-.35-.38c2.84-5.67,2.91-12.43,2.63-19.29h-2.31Zm2.77-6.69c7.63,1.71,4.03,7.11,1.19,4.62-.11-1.54-.88-3.29-1.54-4.45l.35-.17Z"/>
      <path class="cls-2" d="M120.02,220.29c1.02,2.17,1.23,3.4,.6,3.85-1.71,1.33-4.41-.38-5.6-1.96-.98-1.19-1.82-2.52-2.52-3.96-2,2.21-4.41,4.13-7.25,5.64l-.31-.38c2.59-2.07,4.76-4.76,6.51-7.67-1.37-3.54-2.1-7.63-2.45-12.08l-2.49,.35-.39-.95,2.77-.39c-.07-1.15-.14-2.27-.17-3.46-.25,.14-.59,.17-1.16,.25-.84,.77-2.31,1.75-3.46,2.28l-.28-.18c-.14,.21-.38,.32-.7,.35l-4.48,.56v.7c0,.39,.07,.49,.77,.49h1.79c.7,0,1.36,0,1.68-.04,.21,0,.49,0,.66-.04,.21-.03,.53-.1,.74-.14h.32l.14,.04c.81,.28,1.12,.53,1.12,1.08,0,.67-.35,1.08-1.37,1.33,.46,.35,1.89,1.44,2.8,2.28-.07,.38-.42,.56-.91,.56h-12.92l-.28-.98h9.56l1.44-1.82c-.77,.14-1.82,.21-3.29,.21h-2.28c-2.45,0-2.8-.59-2.8-2.38v-.91l-2.42,.31-.38-.91,2.8-.35v-3.01l3.82,.35c-.04,.46-.38,.73-.98,.84v1.47l1.47-.17,1.12-1.79s1.54,.91,2.56,1.65c.17-.7,.35-1.61,.46-2.41h-11.34v6.12c0,5.53-.14,13.79-4.87,19.32l-.42-.25c1.85-5.88,1.82-13.06,1.82-19.04v-8.68l4.06,1.54h2.45v-6.23l5.04,.45c-.04,.46-.32,.77-1.16,.91v2.1h2.14l1.92-2.38s2.14,1.61,3.43,2.8c-.07,.39-.42,.56-.91,.56h-.63l2.94,2.83c-.1-2.34-.14-4.76-.14-7.25l5.18,.56c-.03,.46-.35,.88-1.26,1.02-.07,3.01-.07,6.02,.11,8.89l2.28-.32,1.71-2.83s2.55,1.4,4.17,2.42c-.04,.39-.39,.63-.84,.7l-7.25,1.05c.17,2.8,.56,5.46,1.19,7.84,.98-2.34,1.71-4.72,2.21-6.96l4.8,1.57c-.14,.42-.46,.67-1.37,.63-.98,2.76-2.41,5.74-4.34,8.54,.63,1.4,1.44,2.62,2.38,3.67,.42,.56,.63,.56,.98-.07,.49-.91,1.33-2.7,1.92-4.24l.35,.11-.77,5.99Zm-12.6-.91c-2.84,1.16-6.86,2.59-12.64,4.31-.18,.46-.49,.74-.88,.84l-1.68-3.85c1.05-.07,2.56-.21,4.41-.42-.25-.1-.52-.28-.77-.52,.14-1.05-.17-2.35-.59-3.19-.28,.04-.56,.07-.88,.07h-.56v-7.21l3.36,1.37h5.36l1.44-1.65,3.01,2.21c-.21,.28-.53,.46-1.26,.59v3.47c0,.14-1.01,.7-2.55,.7h-.53v-.91h-5.81v.66c0,.11-.24,.32-.7,.49,3.22,1.16,3.08,3.01,2.03,3.75l2.49-.31c.17-1.16,.28-2.66,.35-3.78l4.23,.91c-.1,.39-.49,.74-1.26,.74-.46,.63-1.12,1.33-1.86,1.96,1.72-.25,3.5-.49,5.25-.7l.04,.49Zm-10.57-7.63v2.42h5.81v-2.42h-5.81Zm7.14-13.83l1.71-1.79h-5.88v1.79h4.17Zm9.73-4.52c8.47,1.26,5.29,7.63,2.1,5.15-.14-1.75-1.26-3.71-2.42-4.9l.32-.25Z"/>
      <path class="cls-2" d="M152.57,219.66c1.96,.35,2.42,.91,2.42,1.61,0,1.92-2.34,2.28-14.14,2.28h-7.74c-5.67,0-8.19-.6-8.19-4.59v-23.77h-1.23l-.31-.98h24.75l2.1-2.8s2.35,1.92,3.78,3.22c-.11,.38-.49,.56-.98,.56h-24.33v23.24c0,1.58,.95,2.07,3.99,2.07h8.47c3.01,0,5.71-.07,6.76-.17,.67-.04,1.51-.14,2.07-.21,.49-.07,1.23-.25,2-.49h.38l.21,.04Zm-15.65-.95v-1.71h-2.91v1.47c0,.28-1.47,1.05-2.87,1.05h-.49v-11.87l3.5,1.4h2.45l1.58-1.64,3.29,2.49c-.17,.21-.59,.49-1.16,.56v7.35c-.04,.25-1.71,.91-2.83,.91h-.56Zm7.91-13.55h-6.96v.98c0,.35-1.75,1.19-3.33,1.19h-.56v-10.85l4.06,1.58h6.48l1.79-1.92,3.75,2.83c-.21,.25-.63,.53-1.26,.67v6.16c-.04,.25-2.03,.95-3.25,.95h-.7v-1.58Zm-7.91,10.82v-5.92h-2.91v5.92h2.91Zm7.91-11.83v-5.08h-6.96v5.08h6.96Zm3.85,14.42v-1.58h-3.01v.91c0,.31-1.5,1.05-2.9,1.05h-.49v-11.31l3.54,1.4h2.55l1.61-1.68,3.36,2.55c-.17,.21-.59,.46-1.15,.56v7.18c-.04,.21-1.79,.91-2.91,.91h-.59Zm0-2.59v-5.92h-3.01v5.92h3.01Z"/>
      <path class="cls-2" d="M162.65,204.18c.14,1.86-.39,3.22-1.23,3.89-.88,.7-2.7,.52-3.19-.84-.42-1.19,.25-2.21,1.26-2.73,.88-.56,2.1-1.93,2.03-3.05l.53,.04c.21,.59,.35,1.19,.45,1.71h14.7c.49-1.68,.95-3.96,1.19-5.6h-18.87l-.28-1.01h15.26c-.38-.04-.8-.17-1.22-.46-.21-1.5-1.23-3.15-2.21-4.06l.28-.25c7.28-.25,6.37,4.45,3.75,4.76h8.22l2.24-2.91s2.59,1.96,4.13,3.36c-.11,.38-.46,.56-.98,.56h-9.84l5.08,1.54c-.14,.42-.56,.7-1.3,.59-1.12,1.01-2.77,2.34-4.41,3.46h6.41l2.14-2.1,3.64,3.5c-.28,.28-.66,.35-1.37,.38-1.43,.81-3.92,2.1-5.5,2.77l-.32-.21c.38-.8,.98-2.24,1.4-3.36h-22.02Zm23.1,2.62s2.31,1.75,3.71,2.98c-.1,.38-.49,.56-.94,.56h-15.23c-.14,1.15-.32,2.27-.56,3.36h7.07l2.14-2,3.71,3.05c-.21,.31-.67,.49-1.37,.63-.28,4.69-.98,7.28-2.55,8.37-1.02,.63-2.28,.98-4.31,.98,0-1.12-.1-2.1-.74-2.7-.59-.59-1.86-1.08-3.33-1.37l.04-.42c1.43,.11,3.85,.25,4.52,.25,.52,0,.8-.07,1.05-.25,.53-.46,.91-2.38,1.12-5.53h-7.66c-1.33,3.92-4.59,7.39-13.62,9.87l-.31-.49c9.21-4.13,9.84-8.79,10.01-13.76h-9.14l-.32-.98h24.68l2.03-2.56Zm-19.29-9.17c8.37,1.44,4.52,7.46,1.33,4.8-.07-1.65-.88-3.43-1.64-4.59l.31-.21Zm5.15,6.86c8.47,.52,4.66,6.72,1.29,4.13-.1-1.43-.88-3.01-1.58-3.92l.28-.21Z"/>
      <path class="cls-2" d="M206.65,192.56l3.82,2.94c-.21,.28-.7,.59-1.4,.73v13.02c-.07,.25-2,1.02-3.26,1.02h-.66v-2.1h-5.99v9.07c1.71-.67,3.64-1.51,5.67-2.38-.56-1.54-1.3-2.97-2.07-4.17l.38-.21c10.22,5.5,6.62,13.9,2.98,10.4,0-1.57-.35-3.25-.88-4.9-1.85,1.61-4.34,3.75-7.35,6.02-.32,.63-.77,1.09-1.16,1.3l-2.52-4.48c.95-.63,1.12-.95,1.12-1.82v-24.12l4.27,1.68h5.18l1.85-2Zm-1.5,8.26v-5.25h-5.99v5.25h5.99Zm0,6.37v-5.36h-5.99v5.36h5.99Zm20.34-11.66c-.24,.28-.7,.56-1.36,.7v17.54c0,2.77-.56,4.38-4.76,4.76-.07-1.33-.21-2.35-.6-2.91-.46-.67-1.05-1.08-2.45-1.37v-.49s2.62,.17,3.25,.17c.52,0,.67-.21,.67-.67v-17.64h-4.94v27.48c0,.49-1.44,1.47-3.22,1.47h-.66v-31.71l4.03,1.75h4.45l1.75-2.03,3.85,2.94Z"/>
      <path class="cls-2" d="M255.96,194.7s2.73,2.03,4.38,3.47c-.11,.38-.49,.56-.98,.56h-16.77c-.8,1.51-1.71,2.98-2.8,4.41l1.16,.42h9.7l1.93-2.28,4.2,3.22c-.25,.35-.77,.7-1.58,.84v14.32c0,2.77-.63,4.38-5.43,4.83-.14-1.37-.31-2.31-.88-2.97-.56-.63-1.33-1.08-3.12-1.4v-.46s3.71,.21,4.48,.21c.6,0,.77-.25,.77-.7v-3.99h-11.06c-.59,3.4-2.17,6.9-6.37,9.42l-.28-.32c2.62-3.96,2.77-9.03,2.77-13.72v-3.12c-2.17,2.14-4.69,4.03-7.67,5.5l-.28-.35c4.45-3.64,7.77-8.79,9.94-13.86h-9.21l-.32-1.01h9.94c.84-2.14,1.5-4.17,1.96-6.13l5.71,1.65c-.14,.42-.46,.66-1.37,.66-.49,1.26-1.05,2.52-1.68,3.82h10.4l2.45-3.01Zm-4.94,19.46v-4.34h-10.75v.74c0,1.15-.04,2.34-.17,3.6h10.92Zm-10.75-9.63v4.27h10.75v-4.27h-10.75Z"/>
      <path class="cls-2" d="M277.73,195.85c-.18,.42-.63,.7-1.47,.63-3.08,6.69-7.42,11.13-12.71,14l-.35-.32c3.54-3.71,7.07-9.87,8.86-16.45l5.67,2.13Zm6.12,15.09c13.48,6.09,9.77,16.66,5.04,12.67-.17-1.4-.53-2.87-1.05-4.34-4.58,1.37-10.88,2.94-18.62,4.38-.35,.49-.77,.81-1.22,.95l-1.75-5.36s1.05-.25,1.47-.6c2.77-2.52,6.93-10.29,8.12-14.7l5.95,2.28c-.18,.38-.6,.7-1.37,.67-2.35,3.92-7.04,9.28-11.06,12.53,4.41-.14,11.2-.56,18.06-1.19-1.05-2.55-2.48-5.04-3.95-7.07l.38-.21Zm3.29-17.08c-.46,.56-1.68,.84-3.12,.95,1.57,5.01,5.78,9.38,11.66,11.45l-.07,.42c-1.79,.63-3.22,2.28-3.71,3.99-4.94-3.5-7.67-9-8.79-16.14h-4.06l-.31-.98h3.43l1.37-2.17,3.61,2.49Z"/>
      <path class="cls-2" d="M330.23,195.19c-.25,.32-.74,.6-1.44,.77v27.06c-.04,.32-1.96,1.33-3.5,1.33h-.63v-2.66h-20.93v1.33c0,.53-1.61,1.54-3.36,1.54h-.7v-32.1l4.41,1.82h20.23l2-2.24,3.92,3.15Zm-5.57,25.52v-25.45h-20.93v25.45h5.71l-1.79-2.7c1.09-.7,1.26-.98,1.26-1.54v-1.64c-1.47,.63-3.05,1.15-4.69,1.61l-.28-.59c2.8-1.23,5.32-2.98,7-4.87h-1.09v.14c0,.28-1.54,.95-2.87,.95h-.49v-7.74l3.5,1.4h8.3l1.54-1.58,3.22,2.38c-.18,.21-.53,.42-1.02,.52v3.75c0,.07-.14,.14-.31,.24l2.28,2.03c-.21,.28-.53,.35-1.12,.11-.73,.31-1.82,.7-2.9,1.05,5.67,2.87,3.78,6.51,1.47,5.25-1.01-1.65-3.85-4.45-7.49-6.69l.25-.49c1.75,.38,3.22,.84,4.45,1.33,.63-.7,1.33-1.5,1.92-2.17-.49,.1-.98,.21-1.4,.21h-.59v-.7h-3.57c-.8,.8-1.75,1.5-2.8,2.17v1.89h-.04v1.75c1.33-.39,2.87-.81,4.38-1.26l.1,.46c-1.26,.84-3.88,2.59-6.58,4.27-.14,.21-.32,.35-.46,.45h15.05Zm-3.39-20.3s2.03,1.54,3.26,2.62c-.11,.38-.46,.56-.95,.56h-19.11l-.28-.98h8.12v-2.56h-6.3l-.28-.98h6.58v-3.08l4.66,.42c-.04,.42-.28,.7-.98,.8v1.86h2.38l1.72-2.03s1.96,1.4,3.15,2.45c-.07,.38-.42,.56-.91,.56h-6.33v2.56h3.5l1.79-2.21Zm-2.7,6.34h-8.72v3.25h8.72v-3.25Z"/>
      <path class="cls-2" d="M341.71,219.76c0,2.76-.56,4.27-4.87,4.69-.07-1.26-.24-2.17-.7-2.8-.49-.59-1.19-1.01-2.7-1.26v-.49s3.04,.17,3.71,.17c.52,0,.7-.14,.7-.56v-8.4c-.91,.53-1.86,1.05-2.84,1.61-.17,.42-.52,.84-.91,.98l-1.68-4.76c1.12-.25,3.04-.74,5.43-1.37v-6.62h-4.62l-.28-1.01h4.9v-8.26l5.15,.49c-.07,.52-.42,.88-1.29,.98v6.79h.38l1.86-2.91s2.14,2.03,3.29,3.36c-.11,.38-.46,.56-.95,.56h-4.58v5.53c1.68-.49,3.47-1.02,5.22-1.54l.14,.38c-1.33,.95-3.12,2.13-5.36,3.5v10.92Zm14.67-11.03c.8,4.55,3.74,8.72,9.94,11.13l-.04,.42c-2.03,.49-3.15,1.65-3.4,4.13-4.62-3.15-6.3-9.49-6.96-14.74-.95,6.69-4.48,12.08-14.07,14.84l-.24-.38c7.35-3.71,9.94-8.96,10.5-15.4h-7.14l-.28-.98h7.49c.04-.7,.07-1.4,.07-2.1v-5.39h-4.97l-.28-.95h5.25v-7.32l5.21,.53c-.07,.46-.35,.8-1.26,.95v5.85h3.01l2.1-2.87s2.38,1.96,3.81,3.25c-.11,.38-.46,.56-.98,.56h-7.95v5.42c0,.7-.04,1.4-.07,2.07h3.61l2.21-2.98s2.45,2.03,3.92,3.43c-.1,.35-.46,.53-.98,.53h-8.51Z"/>
      <path class="cls-2" d="M396.63,207.93s2.7,2,4.41,3.43c-.11,.38-.49,.56-1.02,.56h-13.3v7.25c0,2.94-.88,5.01-6.41,5.39-.1-1.44-.38-2.52-1.19-3.15-.84-.66-1.86-1.16-4.38-1.54v-.46s5.46,.35,6.58,.35c.63,0,.88-.28,.88-.77v-7.07h-14.21l-.28-1.01h14.49v-6.55h-12.29l-.28-1.01h12.57v-5.81c-4.06,.31-8.37,.49-12.36,.45l-.11-.56c8.23-1.01,18.2-3.46,23.28-5.71l4.3,4.17c-.38,.32-1.19,.38-2.41-.07-2.35,.49-5.15,.91-8.19,1.26v6.27h6.09l2.38-2.98s2.66,2.03,4.31,3.43c-.1,.38-.49,.56-1.01,.56h-11.76v6.55h7.46l2.45-2.98Z"/>
      <path class="cls-2" d="M411.71,205.02c7.84,2.87,4.31,8.47,1.5,5.85-.04-1.64-.73-3.61-1.54-5.04v17.5c0,.38-1.68,1.19-3.19,1.19h-.81v-13.86c-1.3,2.1-2.87,4.03-4.72,5.74l-.42-.42c2.52-3.99,3.99-9.35,4.8-14.6h-4.27l-.28-1.02h4.9v-8.65l5.29,.52c-.07,.53-.35,.88-1.29,1.02v7.11h.1l1.79-2.62s2.03,1.82,3.19,3.08c-.11,.38-.46,.56-.95,.56h-4.13v3.64h.04Zm14.42-7.95c-.14,.46-.35,.95-.59,1.4,5.91,.11,7.88,2.7,7.63,4.41,.74,.59,2.24,1.86,3.22,2.8-.1,.39-.46,.56-.98,.56h-2.56v13.48c0,2.66-.63,4.48-5.11,4.83-.07-1.22-.21-2.21-.7-2.77-.53-.56-1.22-1.05-2.94-1.29v-.49s3.29,.25,4.03,.25c.56,0,.7-.25,.7-.63v-13.37h-13.58l-.28-1.02h15.75l.66-.88c-.25-.04-.49-.07-.77-.14-1.15-1.68-3.54-3.64-5.63-4.9-1.51,2.03-4.31,3.78-9.73,5.15l-.28-.46c4.66-2.03,6.51-4.38,7.25-6.93h-6.86l-.28-1.02h7.39c.25-1.33,.28-2.73,.32-4.17l5.18,.42c-.07,.42-.35,.77-1.12,.88-.11,.98-.21,1.93-.42,2.87h3.19l2.07-2.76s2.31,1.89,3.71,3.22c-.1,.39-.49,.56-.98,.56h-8.26Zm.18,20.72c-.04,.25-1.68,.91-2.73,.91h-.6v-1.89h-2.8v1.58c0,.28-1.43,1.01-2.8,1.01h-.49v-11.59l3.43,1.37h2.31l1.61-1.72,3.43,2.56c-.21,.25-.7,.53-1.37,.66v7.11Zm-3.33-2v-5.64h-2.8v5.64h2.8Z"/>
      <path class="cls-2" d="M442.55,212.2c2.24-1.19,3.26-2.8,3.75-4.76-1.96-.77-3.47-1.68-3.47-3.43,0-1.44,1.08-2.66,2.76-2.66s2.98,1.26,2.98,3.57c0,2.94-1.44,6.58-5.43,8.4l-.6-1.12Z"/>
      <path class="cls-2" d="M488.54,203.66c-1.68,.49-2.62,1.86-2.97,3.75-1.58-.25-3.12-.53-4.62-.88l2.77,2.06c-.14,.21-.53,.42-1.02,.53v5.92c0,.31-2,1.19-3.39,1.19h-.74v-1.33h-13.55v3.89c0,.8,.35,1.01,2.56,1.01h7.42c2.45,0,4.8,0,5.81-.07,.81-.07,1.26-.21,1.61-.56,.52-.56,1.15-1.64,1.99-3.57h.39l.1,3.57c1.58,.42,2.03,.91,2.03,1.68,0,2.03-1.93,2.62-12.29,2.62h-7c-5.08,0-6.79-.53-6.79-3.85v-12.71c-1.75,.25-3.61,.42-5.46,.52l-.14-.52c5.42-1.08,10.36-2.87,14.25-5.25-1.61-1.22-2.94-2.66-4.06-4.34l.42-.35c1.4,1.4,3.29,2.52,5.6,3.4,2-1.44,3.64-3.01,4.83-4.69l4.45,2.98c-.28,.31-.63,.46-1.4,.21-1.02,1.01-2.21,1.96-3.5,2.8,3.96,.98,8.47,1.44,12.71,1.54v.46Zm-18.83-9.31c-.21,.35-.56,.53-1.33,.35-2.7,2.28-7.25,4.45-11.97,5.5l-.25-.46c3.68-2.03,7.35-5.43,9.07-8.16l4.48,2.77Zm10.01,11.87c-2.62-.66-5.04-1.54-7.25-2.7-2.87,1.37-6.2,2.42-9.91,3.08l2.91,1.12h12.81l1.44-1.5Zm-14.7,7.67h4.73v-5.15h-4.73v5.15Zm13.55,0v-5.15h-4.79v5.15h4.79Zm-4.03-21.56c14.98,.8,12.43,9.38,8.37,7.49-1.12-1.86-4.24-4.9-8.51-7.07l.14-.42Z"/>
      <path class="cls-2" d="M506.04,213.46c1.54,3.78,1.09,6.65-.1,7.95-.81,.95-2.56,.91-3.15-.28-.17-.38-.25-.77-.17-1.12-.67,.67-1.82,.77-2.84,.11-.38-.77-.91-1.58-1.5-2.35-1.79,2.66-4.24,5.01-7.56,6.86l-.42-.32c2.8-2.45,4.8-5.43,6.16-8.72-1.68-1.71-3.64-3.33-5.36-4.52,.49-1.71,1.05-4.13,1.58-6.79l-.73,.17c-.25,.46-.67,.73-1.05,.8l-.91-4.24c.84,.04,1.96,0,3.29-.04,.66-3.67,1.22-7.21,1.4-9.28l5.04,.8c-.1,.42-.35,.77-1.37,.88-.31,1.89-.84,4.55-1.43,7.46,.81-.04,1.61-.11,2.45-.14,.04-1.29,.07-2.59,.04-3.85l5.36,.88c-.14,.56-.53,.91-1.37,.95-.04,.56-.07,1.15-.11,1.71l1.4-.14,.04,.49-1.5,.53c-.39,4.62-1.19,9.21-3.08,13.23,2.38,1.68,3.12,3.29,2.98,4.41,.21-.21,.42-.42,.7-.59,.88-.84,1.96-2.98,1.75-4.87h.49Zm-8.58-.6c1.05-3.33,1.58-6.83,1.82-10.36-.91,.28-1.86,.56-2.9,.84-.63,2.87-1.3,5.78-1.93,8.12,1.12,.45,2.13,.94,3.01,1.4Zm25.97-2c-.24,.32-.63,.49-1.37,.6-.28,7.04-.88,10.47-2.45,11.73-.98,.81-2.28,1.19-4.03,1.16,0-.98-.11-1.86-.63-2.34-.52-.53-1.71-.95-3.08-1.23l.04-.46c1.33,.11,3.5,.21,4.2,.21,.59,0,.84-.04,1.08-.28,.74-.67,1.16-3.82,1.37-9.35h-9.87v.59c0,.25-1.15,1.12-3.01,1.12h-.66v-20.02l4.16,1.61h7.84l1.96-2.45s2.24,1.68,3.61,2.87c-.1,.38-.46,.56-.98,.56h-6.13v4.34h.91l1.79-2.35s2.1,1.61,3.29,2.8c-.07,.38-.42,.56-.91,.56h-5.08v4.2h.91l1.79-2.42s2.1,1.65,3.29,2.84c-.07,.38-.42,.56-.91,.56h-5.08v4.2h2.73l1.86-1.85,3.36,2.8Zm-15.3,2.62c5.25,4.27,1.82,8.89-.25,6.3,.38-2.03,.18-4.48-.25-6.2l.49-.11Zm.56-18.31v4.34h3.29v-4.34h-3.29Zm3.29,5.36h-3.29v4.2h3.29v-4.2Zm-3.29,9.38h3.29v-4.2h-3.29v4.2Zm2.49,2.84c5.95,3.12,2.83,7.77,.63,5.43,.18-1.75-.38-3.89-1.08-5.22l.46-.21Zm3.08-1.08c6.2,2.06,3.46,6.83,1.22,4.79,.11-1.58-.7-3.46-1.61-4.58l.38-.21Z"/>
      <path class="cls-2" d="M530.43,198.51c.42,2.49-.21,4.27-1.3,5.11-1.02,.84-2.84,.59-3.4-.74-.45-1.29,.25-2.35,1.3-2.94,1.05-.74,2.21-2.66,1.96-4.52h.49c.31,.74,.56,1.4,.73,2.07h10.92c-.28-.14-.6-.32-.88-.56,.07-1.79-.84-3.78-2.07-4.94l.25-.25c7.42,.49,7.21,4.62,5.04,5.74h8.75l2.17-2.17,3.82,3.6c-.28,.28-.63,.39-1.37,.42-1.26,1.26-3.47,2.91-5.15,3.85l-.28-.25c.35-1.19,.8-3.01,1.02-4.45h-22.02Zm23.28,6.09s2.55,1.89,4.13,3.26c-.11,.38-.49,.56-.98,.56h-7.11c-.81,3.33-2.14,6.2-4.48,8.65,13.55,3.67,8.26,9,4.55,7-1.82-1.4-4.41-2.94-7.67-4.45-3.54,2.28-8.54,3.92-15.68,4.9l-.21-.42c5.81-1.5,9.91-3.46,12.81-5.81-2.73-1.09-5.74-2.13-9.1-3.04,.95-1.65,2.21-4.2,3.39-6.83h-7l-.32-1.01h7.77c1.33-3.08,2.56-6.06,3.05-7.74l5.71,1.72c-.14,.38-.45,.73-1.58,.7-.66,1.33-1.57,3.26-2.59,5.32h6.83c.21-1.4,.35-2.84,.42-4.34l6.05,1.16c-.1,.56-.56,.84-1.37,.8-.1,.81-.24,1.61-.38,2.38h1.54l2.21-2.8Zm-15.82,3.82c-1.19,2.31-2.45,4.69-3.61,6.65,2.66,.32,4.97,.67,7.04,1.09,2-2.35,3.08-4.9,3.71-7.74h-7.14Z"/>
      <path class="cls-2" d="M565.12,202.26c2.63,6.37,1.61,10.78-.04,13.13-1.12,1.71-3.12,1.92-4.2,.84-.8-1.01-.56-2.28,.31-3.25,1.79-1.65,3.54-5.99,3.47-10.68l.46-.03Zm9.35-3.68c-.04,.45-.35,.84-1.23,.95v18.13c0,.88,.42,1.16,2,1.16h4.27c1.58,0,2.87-.04,3.5-.07,.59-.07,.91-.21,1.19-.63,.46-.74,1.12-2.8,1.89-5.46h.38l.14,5.71c1.26,.49,1.58,.98,1.58,1.79,0,1.96-1.75,2.83-9.07,2.83h-4.48c-4.16,0-5.53-.74-5.53-4.1v-20.83l5.36,.53Zm4.72,3.43c-.66-3.26-2.83-7.04-4.94-9.59l.32-.21c12.22,4.06,8.89,13.06,4.62,9.8Zm10.01,13.86c-.21-3.4-1.16-8.79-3.96-12.57l.32-.28c12.71,7.67,6.96,17.22,3.64,12.85Z"/>
      <path class="cls-2" d="M595.5,200.12c9.03,.88,5.85,7.53,2.38,5.11-.35-1.75-1.58-3.67-2.66-4.87l.28-.25Zm10.05-1.89c-1.16,4.17-3.15,11.94-3.5,13.79-.24,1.19-.45,2.41-.45,3.33,.07,1.89,1.47,3.15,1.4,6.3-.07,1.79-1.26,2.91-2.91,2.91-.77,0-1.61-.49-1.85-1.79,.63-3.68,.52-7-.32-7.53-.45-.35-1.01-.53-1.75-.6v-.67h1.54c.49,0,.63,0,.98-.73q.7-1.26,6.27-15.16l.59,.14Zm-7.81-6.16c9.73,1.02,6.51,8.12,2.8,5.57-.42-1.89-1.85-3.99-3.04-5.32l.25-.25Zm13.76,6.06c7,3.22,3.61,8.61,1.12,6.02,.03-.59,0-1.19-.11-1.82-1.09,1.19-2.59,2.8-4.24,4.41-.28,.56-.7,.94-1.08,1.12l-2-3.89c.84-.49,.95-.77,.95-1.44v-8.68l3.5,.35c1.09-.81,2.31-1.79,3.29-2.66l2.87,3.01c-.35,.25-.7,.28-1.37,0-1.43,.49-3.43,.8-4.94,.95v7.25c.88-.46,1.86-.88,2.8-1.36-.28-1.16-.73-2.21-1.22-3.05l.42-.21Zm16.94-2.38c-.24,.28-.63,.52-1.37,.59-.14,6.83-.56,9.56-1.96,10.71-.35,.25-.7,.49-1.12,.63l3.05,2.35c-.25,.32-.59,.53-1.37,.66v12.71c0,.17-1.26,.91-3.22,.91h-.67v-2.52h-11.55v1.79c0,.25-1.16,.95-3.08,.95h-.67v-16.66l4.13,1.58h11.03l1.29-1.44c-.46,.11-.94,.14-1.5,.14,0-1.05-.11-1.89-.56-2.38-.46-.53-1.33-.88-2.42-1.12v-.25c-1.23,1.75-3.08,3.29-5.88,4.62l-.42-.52c4.83-3.64,5.29-8.02,5.39-12.67h-2.21l-.32-1.01h8.19l1.86-1.79,3.36,2.73Zm-18.2,14.7v4.45h4.03v-4.45h-4.03Zm0,10.36h4.03v-4.9h-4.03v4.9Zm7.67-10.36v4.45h3.88v-4.45h-3.88Zm3.88,10.36v-4.9h-3.88v4.9h3.88Zm-.88-24.99c-.17,3.05-.63,5.85-2.31,8.33,1.02,.11,2.56,.17,3.12,.17,.49,0,.7-.07,.91-.28,.56-.53,.81-3.05,.91-8.23h-2.62Z"/>
      <path class="cls-2" d="M642.85,201.98c-.14,.42-.46,.67-1.37,.67-1.89,4.97-5.21,11.41-10.64,15.54l-.35-.32c3.46-5.08,5.67-12.74,6.51-17.92l5.85,2.03Zm7.81-9.24c-.11,.53-.42,.84-1.29,.98v25.66c0,2.94-.74,4.66-5.99,5.15-.14-1.43-.38-2.42-1.12-3.05-.7-.7-1.65-1.19-3.82-1.54v-.49s4.76,.28,5.71,.28c.67,0,.88-.21,.88-.7v-26.85l5.64,.56Zm7.98,23.28c-.56-5.04-3.36-10.85-6.16-15.16l.46-.21c14.25,8.16,10.68,19.78,5.71,15.37Z"/>
      <path class="cls-2" d="M679.01,204.22c-1.23,1.05-2.84,2.38-4.87,3.99v11.55c0,2.8-.56,4.3-4.87,4.72-.1-1.26-.25-2.21-.67-2.83-.45-.59-1.12-1.05-2.59-1.3v-.49s2.9,.17,3.57,.17c.49,0,.63-.14,.63-.52v-8.4c-.59,.42-1.22,.84-1.85,1.29-.1,.46-.39,.88-.77,1.05l-2.38-4.52c1.01-.32,2.83-.95,5-1.75v-6.41l2.1,.21c.74-1.68,1.47-3.96,2-5.53h-8.68l-.32-.98h8.86l2.17-2.1,3.6,3.25c-.28,.32-.63,.35-1.4,.42-1.33,1.44-3.26,3.5-5.11,5.04l1.93,.17c-.07,.49-.42,.8-1.23,.91v3.54c1.54-.59,3.12-1.26,4.69-1.86l.18,.35Zm-3.05,19.99c7.25-3.54,13.27-8.51,17.61-16.84l4.87,2.62c-.28,.42-.7,.56-1.57,.38-1.75,2.49-3.61,4.55-5.64,6.34,9.84,2.45,7.14,9.59,3.25,7.25-.73-2.17-2.52-4.62-4.13-6.51-4.09,3.4-8.79,5.64-14.18,7.25l-.21-.49Zm18.9-29.3s2.38,1.89,3.78,3.19c-.11,.38-.49,.56-.98,.56h-12.74l4.76,1.61c-.14,.35-.53,.63-1.23,.59-1.71,1.71-4.48,3.71-6.93,5.08,1.79-.04,4.24-.07,6.79-.17,.8-1.23,1.58-2.52,2.28-3.92l4.69,2.45c-.24,.42-.63,.52-1.43,.38-4.55,6.3-10.15,10.29-17.12,12.88l-.28-.52c4.17-2.45,7.77-5.57,10.78-9.7-1.82,.59-4.03,1.26-6.4,1.92-.35,.49-.74,.77-1.12,.91l-1.37-4.34s.74-.14,1.05-.32c1.89-1.16,4.23-4.8,5.04-6.86h-6.55l-.28-.98h15.23l2.03-2.77Zm-10.61-3.25c9.31,1.23,5.53,8.09,1.96,5.36-.21-1.79-1.26-3.85-2.27-5.18l.31-.17Z"/>
    </g>
  </g>
</svg>