<?xml version="1.0" encoding="utf-8"?>
<!-- Generator: Adobe Illustrator 27.0.0, SVG Export Plug-In . SVG Version: 6.00 Build 0)  -->
<svg version="1.1" id="圖層_1" xmlns="http://www.w3.org/2000/svg" xmlns:xlink="http://www.w3.org/1999/xlink" x="0px" y="0px"
	 viewBox="0 0 700.6 180.5" style="enable-background:new 0 0 700.6 180.5;" xml:space="preserve">
<style type="text/css">
	.st0{fill:#FFF100;}
</style>
<g>
	<g id="_圖層_2">
		<g id="_圖層_1-2">
			<g>
				<g>
					<path class="st0" d="M79.6,68.7c2.4,1.2,2.9,2.2,2.9,4.1c0,4-3.5,6-13,6h-5c-7.1,0-8.8-1.8-8.8-8.3V35.8H45.5
						C44.6,56,40.4,71.5,15.8,81.8l-0.6-0.9C31.3,68.6,34.4,54,34.9,35.8H18.8l-0.6-2H35c0.1-5.7,0-11.8,0-18.2l13.4,1.2
						c-0.1,1.1-0.9,1.8-2.6,2c-0.1,5.2-0.1,10.2-0.3,15h9.2l4.8-5.5l8.8,7.1c-0.5,0.6-1.2,1-2.7,1.3v31.1c0,1.1,0.3,1.5,1.8,1.5h3.3
						c1.1,0,2.1,0,2.7-0.1c0.7-0.1,1.1-0.2,1.6-1.1c0.9-1.6,2.3-6.2,3.8-11h0.7L79.6,68.7L79.6,68.7z"/>
					<path class="st0" d="M111.9,17.4c-0.1,1-0.7,1.8-2.6,2v25.8c-0.1,15.5-4.6,29.5-21,36.9l-0.5-0.6c8.3-8.2,11.1-18.8,11.8-30.6
						c-1.2,3.7-4.8,5.2-8.1,1.6c0.5-6-0.8-12.8-2.6-18.1l0.8-0.3c6.4,3.8,9.3,8.3,10.1,12.1V16.2C99.7,16.2,111.9,17.4,111.9,17.4z
						 M110.3,35.5c16.2,9.3,7.8,23,1.4,16c0.5-5.2-0.7-11.2-2.2-15.8C109.5,35.8,110.3,35.5,110.3,35.5z M130.1,35.5
						c17,8.8,8.3,22.8,1.8,15.8c0.4-5.1-0.8-10.9-2.4-15.3v41.6c0,0.9-4.1,3.2-7.8,3.2h-1.8V17.2l12.2,1.2c-0.1,1-0.6,1.7-2.6,2
						v15.4L130.1,35.5L130.1,35.5z M152.9,17.4c-0.1,1-0.6,1.8-2.6,2v59.2c0,1.1-4.3,3.4-8.1,3.4h-1.9V16.2L152.9,17.4z"/>
					<path class="st0" d="M237.4,17.6c0,0,6.3,4.6,10.1,7.7c-0.2,0.8-1,1.1-2,1.1h-63.2l-0.6-2h28.9c-0.6-3.4-2.7-6.7-4.9-8.7
						l0.4-0.4c14.6-1.7,15.7,5.9,12,9h13.8L237.4,17.6L237.4,17.6z M237.7,45.1l9.2,7c-0.4,0.6-1.3,1.2-2.7,1.5v18
						c0,6-1.5,9.4-12,10.3c-0.2-3-0.5-5.1-1.5-6.5c-1-1.3-2.2-2.4-5.5-3v-0.2c-1.5,0.5-3.5,1-5.1,1h-1.6v-3.4h-8.3v1.9
						c0,0.8-4.1,2.7-7.8,2.7h-1.3V53.9l9.4,3.6h7.4l4.1-4.3l8.4,6.2c-0.4,0.6-1.2,1.1-2.5,1.4v10c0,0.1-0.5,0.5-1.2,0.8
						c1.9,0.1,5,0.3,6.2,0.3c1,0,1.3-0.5,1.3-1.3V51.9h-39v26.6c0,1-4.3,3.2-8.5,3.2h-1.5V45.9l10.7,4.1h37.5L237.7,45.1L237.7,45.1
						z M223,47.5v-3.4h-17v1.4c0,0.8-4.5,2.9-8.6,2.9h-1.3V28l10.4,3.9h15.9l4.3-4.8l9.2,6.9c-0.4,0.5-1.3,1.2-2.7,1.5v10.1
						c-0.1,0.5-5.2,2-8.4,2L223,47.5L223,47.5z M223,42.1v-8.3h-17v8.3C206,42.1,223,42.1,223,42.1z M218.5,67.7v-8.3h-8.3v8.3
						H218.5z"/>
					<path class="st0" d="M294,36.3c-0.5,0.6-1.5,1.2-2.9,1.5v33.1c0,5.9-0.9,9.2-8.6,9.9c0-2.8-0.2-5-0.8-6.3
						c-0.6-1.3-1.4-2.2-3.2-2.7v-1c0,0,2.9,0.2,3.8,0.2c0.8,0,1-0.4,1-1.2V36.5H281v31.8c0,0.3-2,1.6-5,1.6h-1V36.5h-2.2v36.4
						c0,0.4-2,1.7-5,1.7h-1V36.5h-2.2v42c0,0.6-2.5,2.4-6.4,2.4h-1.4V31.2l8.7,3.3h3.4c0.1-2.8,0.1-6.5,0-9.2h-14.3l-0.6-2h27.6
						l4.9-6.5c0,0,5.5,4.4,8.8,7.4c-0.2,0.8-1,1.1-2,1.1h-14.3c-2.1,3-5,6.6-7.4,9.2h11.1l3.6-4.1L294,36.3z M315.2,25.6
						c0,0,3.9,4.4,5.7,7.1c-0.2,0.8-0.9,1.1-1.8,1.1h-6.5v37.2c0,6.4-1.3,9.9-11.3,10.8c-0.1-3.1-0.5-5.2-1.5-6.7
						c-1-1.4-2.2-2.4-5.5-3v-0.9c0,0,6.1,0.3,7.5,0.3c1,0,1.3-0.3,1.3-1.1V54.1c-0.7,4.3-4.8,6.4-8.4,2.7c0.4-5.7-1-12.1-2.9-17
						l0.8-0.3c7.1,3.7,10,8.3,10.6,12V33.9h-11.5l-0.6-2h12.1V16.3l12,1.1c-0.1,1-0.8,1.8-2.6,2v11.1L315.2,25.6L315.2,25.6z"/>
					<path class="st0" d="M347.3,19.2c-0.3,0.9-1.2,1.5-2.8,1.5c-1.6,5.5-3.5,10.4-5.7,15l4.4,1.6c-0.3,0.6-0.9,1.1-2.2,1.3v40.8
						c-0.1,0.6-3.9,2.4-7.4,2.4h-1.7V46.8c-1.7,2.2-3.4,4.1-5.4,5.9l-0.8-0.5c4.1-9.4,7.9-23.6,9.4-36.8L347.3,19.2L347.3,19.2z
						 M352.8,67.9c0,0.7-3.9,2.4-7.1,2.4H344v-43l11.1,1c-0.1,0.9-0.6,1.5-2.3,1.8V67.9L352.8,67.9z M387,27.6c0,0,4.5,4.5,6.9,7.3
						c-0.1,0.8-0.9,1.1-1.9,1.1h-30.3l9.4,2.7c-0.3,0.9-1.2,1.5-2.7,1.5c-0.8,1.8-1.8,3.4-2.7,4.8h11.5l4.8-6.1c0,0,5.3,4.1,8.6,6.9
						c-0.2,0.8-1,1.1-2,1.1h-12.2c-0.1,4.1-0.4,7.8-1,11.2h3.4l4.9-6.3c0,0,5.6,4.2,9,7.1c-0.2,0.8-1,1.1-2,1.1h-15.8
						c-2.3,9.4-8.5,16.5-26,21.5l-0.6-1c11.8-5.8,16-12.5,17.4-20.5h-11.1l-0.6-2h12c0.5-3.5,0.5-7.2,0.6-11.2h-2.2
						c-2.8,3.8-6.2,6.9-9.8,9l-0.8-0.5c2.5-5,4.7-12.2,5.7-19.5h-4.6l-0.6-2h18.3l1.5-11.9h-16.7l-0.6-2h16.9l3.4-3.9l8.2,5.9
						c-0.6,0.6-1.1,0.8-2.5,1l-1.4,10.7h1.8L387,27.6L387,27.6z M375.8,63.4c23.5,5.5,17.4,22.7,8.9,17c-1.3-5.7-5.6-12.2-9.5-16.6
						L375.8,63.4L375.8,63.4z"/>
					<path class="st0" d="M417.1,32.3c-5.1,4.7-10.9,8-17.2,10.5l-0.6-0.6c6.2-6.1,12.7-16.2,16.2-27.2l13.1,6
						c-0.4,0.8-1.4,1.4-3,1.1c-0.6,0.8-1.1,1.7-1.8,2.5h26l5-6.3c0,0,5.6,4.1,9.2,7.1c-0.2,0.8-1,1.1-2,1.1h-11.3
						c1.4,1,5.5,4.1,8.2,6.4c-0.2,0.8-1,1.1-2,1.1h-39.3L417.1,32.3L417.1,32.3z M464.5,71.5c2.2,3.8,2.6,6.6,1.1,8.3
						c-2.9,3.4-7.8,1.7-10.9-1c-5.5-3.9-8.6-10.8-10.2-19h-15.8v19.3c0,0.8-4.2,2.5-7.7,2.5h-1.8V67.7c-0.2,0-0.4,0-0.6-0.1
						c-4.5,5.2-10.4,8.8-16.2,10.9l-0.6-0.6c3.1-3.8,6.6-10.2,8.8-16.7l8.8,4.2v-5.5h-17.1l-0.6-2h17.6V42.8l11.8,1
						c-0.1,0.8-0.6,1.5-2.3,1.8v12.3h5.5l4.3-5.3c0,0,2.8,2,5.5,4.2c-0.4-2.6-0.7-5.2-0.8-8c-0.5,0.3-1.2,0.4-2.1,0.3
						c-3.4,2.7-7.4,5.5-10.7,7.4l-0.9-0.5c1-3,2.4-8.1,3.6-12.6l10.1,4.1c-0.1-1.9-0.2-3.8-0.3-5.8h-34.8l-0.6-2H442l4.8-5.4
						l9.5,7.2c-0.4,0.5-1.5,1-2.8,1.2c-0.4,9.2,1.1,22.2,6.6,25.6c0.8,0.6,1.3,0.4,1.8-0.3c0.8-1.8,1.8-4.3,2.5-6.9l0.6,0.1
						L464.5,71.5L464.5,71.5z M407.2,44.2c18.6,3.6,9.7,17.2,2.6,11c-0.1-3.8-1.7-7.8-3.2-10.6C406.6,44.6,407.2,44.2,407.2,44.2z
						 M422.3,26.7c-1.6,2-3.3,3.9-5.1,5.5h28.1l4.5-5.5C449.9,26.7,422.3,26.7,422.3,26.7z M429.7,63.8c22.7,0.4,16.5,17.7,7.2,12.5
						c-1.5-4.3-4.9-9-7.7-12.1L429.7,63.8L429.7,63.8z"/>
					<path class="st0" d="M538.5,28.1c-0.6,0.6-1.2,0.8-2.7,0.9c-2.4,2.2-6.2,5-9.4,6.5l-0.5-0.4c0.1-2.2,0.2-5.5,0.2-8h-41.9
						c0.6,5.2-1.1,8.8-3.7,10.4c-2.5,1.5-6.2,0.7-7.3-2.4c-0.9-2.9,0.8-5.2,3.3-6.3c2.3-1.3,5.2-4.5,5.1-8h0.8
						c0.6,1.5,1,2.9,1.4,4.3h18.8c-0.3-0.1-0.5-0.3-0.8-0.4c-0.3-3.4-2.2-6.8-4.5-8.7l0.4-0.4c15.4-1.9,15.4,6.8,10.8,9.5h16.8
						l4.8-4.8L538.5,28.1L538.5,28.1z M499.8,55.1c-2.7,0-4.7-0.1-6.2-0.6c-6.1,2.3-12.8,4.2-20.1,5.3l-0.4-1
						c6.2-2,11.8-4.5,17.1-7.4c-0.3-1-0.4-2.1-0.4-3.6V32l10.9,0.8c-0.1,1-0.8,1.5-2.2,1.8v11.5c7.8-5.6,13.9-12,17.7-18.5l9.7,6.2
						c-0.5,0.6-1.2,1-2.9,0.6c-3.7,4.5-8.6,8.8-14.6,12.7h1c2.7,0,5.2-0.1,6.4-0.1c1-0.1,1.7-0.2,2.2-0.8c0.8-0.9,2-2.9,3.3-6h0.7
						l0.3,6.1c2.5,0.9,3.2,1.9,3.2,3.5c0,3.8-3.4,5.3-17.1,5.3L499.8,55.1L499.8,55.1z M485.3,35.3c3.9,8.6,1.5,14.8-2.4,16.7
						c-2.7,1.4-6.3,0.3-7.2-2.9c-0.8-3,1.1-5.1,3.6-6.2c2.5-1.1,5.2-4.1,5.1-7.6H485.3z M520.4,59l12.7,1c-0.1,0.9-0.6,1.7-2.5,2
						v17.7c0,0.6-4.4,2-8.5,2h-1.7v-5h-29.5l-2.9,4.3l-10-4.8c0.7-0.8,1.7-1.8,2.7-2.5V59.2l12.5,1.2c-0.1,1-0.7,1.8-2.6,2v12.2h9.9
						V56.3l12.4,1c-0.1,0.9-0.6,1.5-2.2,1.8v15.6h9.8V59L520.4,59z M497.7,27.4c18.8-0.6,12,14.4,4.1,9.2c-0.3-3.3-2.4-6.9-4.6-8.8
						C497.2,27.8,497.7,27.4,497.7,27.4z M522.8,36.5c22,3.4,13.2,20.8,4.7,13.8c-0.1-4.8-2.3-10-5.2-13.4
						C522.2,36.9,522.8,36.5,522.8,36.5z"/>
					<path class="st0" d="M601.5,35.1c0,0,6,4.6,9.6,7.8c-0.2,0.8-1,1.1-2,1.1h-62.5l-0.6-2h36.3c1.7-4.3,3.4-10.4,4.3-14.8h-23
						c18.5,5.2,8.8,19.8,0.8,12.6c-0.1-4.5-1.5-9-3.3-12.6h-11.5l-0.6-2h28c-0.8-0.2-1.6-0.6-2.5-1.1c-0.3-3.3-2.1-6.6-3.6-8.7
						l0.4-0.4c16-0.6,14.3,8.7,8.8,10.1H594l5.1-6.6c0,0,5.8,4.5,9.2,7.5c-0.2,0.8-1,1.1-2,1.1h-17.6l10.8,3.3
						c-0.3,0.8-1,1.4-2.7,1.3c-3.2,2.9-8.5,7.1-13.3,10.2h12.6L601.5,35.1L601.5,35.1z M592.8,45.8l9.6,7.4
						c-0.5,0.6-1.4,1.3-2.9,1.6V78c-0.1,0.8-5,3.3-8.9,3.3h-1.8v-5.1h-20.9v2.2c0,1-4.4,3.2-8.7,3.2h-1.5V46.9l10.7,4.1H588
						L592.8,45.8L592.8,45.8z M567.8,53v9.5h20.9V53H567.8z M588.7,74.3v-9.8h-20.9v9.8H588.7z"/>
					<path class="st0" d="M685.5,26.6c-0.6,0.6-1.3,0.8-2.7,1c-3,1.8-8,3.9-11.8,5l-0.5-0.4c0.6-1.8,1.3-4.5,1.8-6.6h-7.1V32
						c0,0.8,0.1,1,1.5,1h3.9c1.1,0,2.5,0,3.3-0.1c0.6,0,1.8-0.1,2.2-0.1c0.6-0.1,1.5-0.3,2.2-0.4h0.6l0.4,0.1c2.5,0.8,3,2,3,3.4
						c0,2.8-1.8,4.1-8.5,4.4l6.9,5.4c-0.5,0.6-1.3,1.2-2.9,1.5v31.2c0,0.5-3.2,2.3-8.2,2.3H668v-4.2h-34v2.9c0,0.6-2.9,2.3-7.7,2.3
						h-1.8v-40c-1.5,0.3-2.9,0.5-4.5,0.6l-0.4-0.7c9.2-3.8,16.9-10.8,20.5-16.2h-11.6c0.8,5.2-1.1,9-4,10.1c-2.7,1.2-6,0-6.8-3.1
						c-0.7-3,1.3-5,3.8-6c2.2-1,4.5-3.8,4.1-7l0.8-0.1c0.7,1.4,1.3,2.8,1.6,4.1h19.5c0.3-3.1-0.8-6.3-2.8-8.1l0.4-0.4
						c12.8-0.6,13.9,5.4,10.8,8.4h15.8l5-5C676.9,18.5,685.5,26.6,685.5,26.6z M656.3,38.3c-0.7-1.1-0.9-2.7-0.9-5v-7.9H643l8.3,5.8
						c-0.4,0.9-1.5,1.5-3.9,1.3c-5,3.8-12.2,7.1-21,8.9l8.4,3.1h8c0.4-2.6,0.9-6.2,1.2-8.9L656.3,38.3L656.3,38.3z M668,74.5V55.1
						c-0.4,0.6-1,0.9-2.5,0.7c-1.3,1.7-2.7,3.4-4.4,5c8.5,7.6,3.5,14.6-1.9,11.3c-1-1.8-2.5-3.8-4.5-6.2c-5.3,3.5-11.8,6.2-19.3,7.6
						l-0.4-0.8c6.2-2.7,11.5-6.6,15.7-11c-1.1-1-2.3-2.1-3.6-3.2c-3.3,2.2-7.2,4.2-11.4,5.5l-0.6-0.8c3-2.1,5.7-4.9,8-7.8
						c-2.1-1.5-4.3-3-6.7-4.4l0.4-0.8c3.1,0.7,5.8,1.5,8.3,2.4c1.2-2,2.2-3.9,2.9-5.7l8.8,4.5c-0.3,0.7-1,1-2.6,0.8
						c-0.8,1-1.7,1.9-2.7,2.9c1.1,0.5,2.2,1,3.2,1.6c1.5-2.1,2.7-4.3,3.6-6.4l9.6,4.7v-8.3h-34v28.1H668L668,74.5z M663.8,40.5
						c-3.8,0-5.9-0.4-7.1-1.6c-0.3,0.9-1.3,1.3-2.7,1.3c-1.8,1.2-4.4,2.9-6.6,4.3h20.2l3.5-4H663.8z"/>
					<path class="st0" d="M210.1,113.8c-0.6,0.6-1.3,0.8-2.8,0.9c-2.9,2.6-8.1,5.9-12,7.8l-0.4-0.4c0.8-2.7,1.5-6.5,2-9.5h-42.8
						c1.1,5.2-0.1,9.1-2.4,11s-6.6,1.1-7.8-2.2c-1-3.1,0.6-5.5,3.2-6.9c1.9-1.4,4.4-4.9,4-8.3h0.8c0.7,1.5,1.3,3,1.7,4.4h19.5
						c-0.5-0.3-1-0.6-1.4-1c0.4-3.8-0.7-7.8-3-10.1l0.4-0.3c16,0,16.1,8.3,11.5,11.4h15.8l5.1-5L210.1,113.8L210.1,113.8z
						 M199.7,124.3c0,0,5.7,4.2,9.2,7.1c-0.2,0.8-1,1.1-2,1.1h-14.1c-1.5,6.4-3.9,12-8.1,16.7c27.4,7.1,14.6,19.5,6.2,15
						c-3.2-2.7-7.8-5.7-13.7-8.6c-7.2,4.6-17.4,7.8-32,9.7l-0.4-0.8c11.5-3.2,19.5-7.4,25.1-12.2c-5.2-2.2-11.3-4.3-17.9-6.1
						c1.8-3.4,4.2-8.5,6.4-13.7H145l-0.6-2h15c2.7-6.3,5-12.5,5.9-15.8l13.5,3.8c-0.2,0.8-0.8,1.5-3.2,1.5c-1.3,2.7-3,6.4-5,10.4
						h11.1c0.4-2.9,0.6-5.8,0.7-8.8l14.4,2.5c-0.2,1.1-1.1,1.8-2.7,1.8c-0.2,1.5-0.4,3-0.7,4.5h1.4L199.7,124.3L199.7,124.3z
						 M169.6,132.6c-2.3,4.6-4.8,9.3-7.1,13.2c4.6,0.4,8.6,0.9,12.2,1.5c3.5-4.5,5.5-9.4,6.4-14.7H169.6z"/>
					<path class="st0" d="M225.6,119.8c6.4,12.9,4.9,21.9,1.3,27.1c-2.5,3.9-7.1,3.9-9.7,1.2c-2-2.4-1.4-5.5,0.7-7.6
						c3.5-3.1,7.1-11.3,6.9-20.6L225.6,119.8L225.6,119.8z M245.9,112.8c-0.1,0.9-0.7,1.7-2.4,1.9v34.9c0,1.7,0.9,2.2,3.6,2.2h7.9
						c2.4,0,4.6-0.1,5.9-0.1c1.2-0.1,2-0.4,2.6-1.2c1.1-1.5,2.6-5.2,4.4-10.4h0.7l0.3,10.9c2.9,1.2,3.8,2.4,3.8,4.3
						c0,4.6-4,6.9-18.7,6.9h-8.4c-9.1,0-12.2-1.5-12.2-9.3v-41.1L245.9,112.8L245.9,112.8z M253.5,120.1c-1.2-6.9-5.1-14.3-9.2-19.6
						l0.6-0.4C271.9,107,263.6,127.8,253.5,120.1z M272.5,148.2c-0.1-7.2-1.5-18.1-6.9-26.2l0.6-0.5
						C295.3,137.7,280.2,158.8,272.5,148.2z"/>
					<path class="st0" d="M293.4,123.8c8,1.3,16,5,18.5,9.7c0.9,1.6,1.2,3.8,0.7,5.5c-0.5,1.6-1.9,3.4-4.5,3.4
						c-1.9,0-3.5-0.8-4.5-3.1c-1.5-3.6-5.1-9.5-10.8-14.6L293.4,123.8L293.4,123.8z"/>
					<path class="st0" d="M393.5,113.8c-0.6,0.6-1.3,0.8-2.8,0.9c-2.9,2.6-8,5.9-12,7.8l-0.4-0.4c0.8-2.7,1.5-6.5,2-9.5h-42.8
						c1.1,5.2-0.1,9.1-2.4,11s-6.6,1.1-7.8-2.2c-1-3.1,0.6-5.5,3.2-6.9c1.9-1.4,4.4-4.9,4-8.3h0.8c0.7,1.5,1.3,3,1.7,4.4h19.5
						c-0.5-0.3-1-0.6-1.4-1c0.4-3.8-0.7-7.8-3-10.1l0.4-0.3c16,0,16.1,8.3,11.5,11.4h15.8l5.1-5L393.5,113.8L393.5,113.8z
						 M383.1,124.3c0,0,5.7,4.2,9.2,7.1c-0.2,0.8-1,1.1-2,1.1h-14.1c-1.5,6.4-3.9,12-8,16.7c27.4,7.1,14.6,19.5,6.2,15
						c-3.2-2.7-7.8-5.7-13.7-8.6c-7.2,4.6-17.4,7.8-32,9.7l-0.4-0.8c11.5-3.2,19.5-7.4,25.1-12.2c-5.2-2.2-11.3-4.3-17.9-6.1
						c1.8-3.4,4.2-8.5,6.4-13.7h-13.6l-0.6-2h15c2.7-6.3,5-12.5,5.9-15.8l13.5,3.8c-0.2,0.8-0.8,1.5-3.2,1.5c-1.3,2.7-3,6.4-5,10.4
						H365c0.4-2.9,0.6-5.8,0.7-8.8l14.4,2.5c-0.2,1.1-1,1.8-2.7,1.8c-0.2,1.5-0.4,3-0.7,4.5h1.4L383.1,124.3L383.1,124.3z
						 M353,132.6c-2.3,4.6-4.8,9.3-7.1,13.2c4.5,0.4,8.6,0.9,12.2,1.5c3.5-4.5,5.5-9.4,6.4-14.7H353z"/>
					<path class="st0" d="M409.6,124.3v-6.6h-7.4l-0.6-2h7.9v-6.2h-9.2l-0.6-2h9.8v-8.8l11.7,1c-0.1,0.9-0.6,1.5-2.2,1.8v6h2.2
						l3.9-5.1c0,0,4.4,3.5,7.1,5.9c-0.2,0.8-0.9,1.1-1.9,1.1h-11.2v6.2h0.8l3.6-4.7c0,0,4.1,3.2,6.5,5.5c-0.1,0.8-0.8,1.1-1.8,1.1
						h-9v6.6h2.5l3.9-5.2c0,0,4.5,3.6,7.1,6c-0.2,0.8-0.9,1.1-1.9,1.1h-31.4l-0.6-2H409.6z M462,128.7c0,0,2.9,3.1,4.3,5.1
						c-0.2,0.8-0.8,1.1-1.8,1.1h-4.3v12.7c-0.1,0.5-4.2,2-6.9,2h-1.5v-3.7h-3.4v8.3c0,5.9-1.4,10.2-10.5,11
						c-0.1-2.9-0.4-5.2-1.3-6.5c-0.9-1.4-2.2-2.4-5.6-2.9v-1c0,0,6.2,0.4,7.6,0.4c1,0,1.3-0.4,1.3-1.2v-8.1h-7.6l-0.6-2h8.2v-9h-9
						l-0.3-1.1c-0.5,0.5-1.3,0.9-2.4,1.1v21.4c0,5.3-1.2,8.1-10,8.8c-0.1-2.3-0.3-4.1-1-5.2c-0.8-1.1-1.8-1.9-4.5-2.4v-0.9
						c0,0,4.5,0.3,5.7,0.3c1,0,1.2-0.4,1.2-1.2v-7.1h-8.8c-1,5.9-3.8,12.3-11,16.7l-0.6-0.6c3.5-7.2,3.4-16.4,3.4-23.9v-12.6l10,3.5
						h6.2l3.7-4.2l7.8,5.9l-0.1-0.6h9.6v-8.5h-7.1l-0.6-2h19.1l3.6-3.7l7.1,5.4c-0.3,0.4-0.9,0.8-1.8,1v6.7L462,128.7L462,128.7z
						 M419.5,146.7v-5.2h-8.2c0,1.6-0.1,3.4-0.3,5.2H419.5z M411.4,133.8v5.7h8.2v-5.7H411.4z M463.9,106.2
						c-0.8,0.7-2.5,0.8-4.6,0.1c-7.1,0.8-19.1,1.1-28.3,0.6l-0.2-1c8.3-1.8,19-5.2,24.6-7.6L463.9,106.2L463.9,106.2z M432.4,109.1
						c14.5,5,7.2,15.5,1.8,10.3c-0.1-3.4-1.3-7.3-2.6-9.9L432.4,109.1z M440.6,108.2c14.7,4.9,7.5,16.3,2,11c0.4-3.6-1-7.9-2.8-10.6
						L440.6,108.2z M448.4,132.9h3.4v-8.5h-3.4V132.9z M451.8,134.9h-3.4v9h3.4V134.9z M449.5,120.8c1.4-3.4,3.1-8.9,4.3-13.9
						l10.6,4.1c-0.4,0.8-1.3,1.4-2.8,1.3c-3.4,3.6-7.6,6.9-11.3,9L449.5,120.8L449.5,120.8z"/>
					<path class="st0" d="M530.4,151.9c0,0,6.1,5.2,9.5,8.5c-0.2,0.8-1,1.1-2,1.1h-65.1l-0.6-2h13.3v-58.1l10.7,4H514l4.3-5.5
						l10.2,7c-0.5,0.8-1.3,1.2-3.2,1.5v50.8L530.4,151.9L530.4,151.9z M495.7,107.5v15.8h19v-15.8H495.7z M514.7,125.2h-19v16.2h19
						C514.7,141.3,514.7,125.2,514.7,125.2z M495.7,159.6h19v-16.3h-19V159.6z"/>
					<path class="st0" d="M611.9,113.8c-0.6,0.6-1.3,0.8-2.8,0.9c-2.9,2.6-8,5.9-12,7.8l-0.4-0.4c0.8-2.7,1.5-6.5,2-9.5h-42.8
						c1.1,5.2-0.1,9.1-2.4,11s-6.6,1.1-7.8-2.2c-1-3.1,0.6-5.5,3.2-6.9c1.9-1.4,4.4-4.9,4-8.3h0.8c0.7,1.5,1.3,3,1.7,4.4h19.5
						c-0.5-0.3-1-0.6-1.4-1c0.4-3.8-0.7-7.8-3-10.1l0.3-0.3c16,0,16.1,8.3,11.5,11.4h15.8l5.1-5L611.9,113.8L611.9,113.8z
						 M601.5,124.3c0,0,5.7,4.2,9.2,7.1c-0.2,0.8-1,1.1-2,1.1h-14.1c-1.5,6.4-3.8,12-8,16.7c27.4,7.1,14.6,19.5,6.2,15
						c-3.2-2.7-7.8-5.7-13.7-8.6c-7.2,4.6-17.4,7.8-32,9.7l-0.3-0.8c11.5-3.2,19.5-7.4,25.1-12.2c-5.2-2.2-11.3-4.3-17.8-6.1
						c1.8-3.4,4.2-8.5,6.4-13.7h-13.6l-0.6-2h15c2.7-6.3,5-12.5,5.9-15.8l13.5,3.8c-0.2,0.8-0.8,1.5-3.2,1.5c-1.3,2.7-3,6.4-5,10.4
						h11.1c0.4-2.9,0.6-5.8,0.7-8.8l14.4,2.5c-0.2,1.1-1,1.8-2.7,1.8c-0.2,1.5-0.4,3-0.7,4.5h1.4L601.5,124.3L601.5,124.3z
						 M571.4,132.6c-2.3,4.6-4.8,9.3-7.1,13.2c4.5,0.4,8.6,0.9,12.2,1.5c3.5-4.5,5.5-9.4,6.4-14.7H571.4z"/>
					<path class="st0" d="M661.5,104c-0.8,1-3.4,1.6-6.5,1.8c5.3,5.9,18,12,30.6,14.2v0.9c-4.3,1.3-7.8,5.5-9,9.6
						c-9.5-5.7-18.7-14.6-23.1-24.3c-7.1,11.9-20.4,21.8-35.4,27.2l-0.3-0.6c10.5-6.9,19.7-17.6,23.4-27.3h-9.9l-0.6-2H651l2.8-4.6
						L661.5,104L661.5,104z M673.7,154.2c0,0,5.9,4.4,9.4,7.5c-0.2,0.8-1,1.1-2,1.1h-59.6l-0.6-2h24.6V146h-17.4l-0.6-2h17.9v-13.5
						h-14.3l-0.6-2h27.7l4.6-5.8c0,0,5.2,3.9,8.5,6.6c-0.2,0.8-1,1.1-2,1.1h-13.2V144h7.6l4.8-6.3c0,0,5.5,4.3,8.8,7.1
						c-0.1,0.8-0.9,1.1-2,1.1h-19.2v14.9h12.2L673.7,154.2L673.7,154.2z"/>
				</g>
			</g>
		</g>
	</g>
</g>
</svg>
