<?xml version="1.0" encoding="UTF-8"?>
<svg id="_圖層_2" data-name="圖層 2" xmlns="http://www.w3.org/2000/svg" viewBox="0 0 783.39 210.91">
  <defs>
    <style>
      .cls-1 {
        fill: #fff;
        opacity: .7;
      }

      .cls-2 {
        fill: #231815;
      }
    </style>
  </defs>
  <g id="_圖層_1-2" data-name="圖層 1">
    <rect class="cls-1" width="783.39" height="210.91" rx="30" ry="30"/>
    <g>
      <path class="cls-2" d="M49.74,36.86c-.35,.28-.84,.38-1.82,.45-1.47,1.89-3.54,3.68-5.91,5.29,4.1,1.82,9,2.83,13.9,3.36l-.04,.42c-1.44,.32-2.42,1.4-2.77,3.01-1.37-.28-2.62-.6-3.92-.95l.63,.46c-.21,.25-.67,.49-1.29,.63v8.05c-.04,.25-1.68,.88-2.77,.88h-.56v-2.17h-11.27v1.33c0,.25-1.05,1.01-2.66,1.01h-.6v-10.5c-2.38,.81-4.83,1.51-7.28,2l-.25-.46c5.36-1.64,10.54-4.24,14.6-7.25-1.33-1.23-2.52-2.66-3.5-4.27-2.73,2.55-5.85,4.38-8.93,5.6l-.35-.46c3.47-2.28,7.28-6.55,9.63-11.38h-6.13c.17,2.42-.74,4.06-1.89,4.79-.98,.67-2.45,.56-2.91-.52-.35-1.02,.28-1.89,1.19-2.38,1.26-.67,2.59-2.59,2.49-4.69l.52-.04c.21,.63,.38,1.26,.49,1.82h11.34c-.31-.04-.66-.17-.98-.38-.25-1.5-1.4-3.19-2.56-4.1l.28-.25c6.62,.07,6.09,4.34,3.92,4.73h10.12l1.79-1.86,3.26,3.12c-.28,.28-.67,.39-1.33,.42-1.01,1.15-2.7,2.83-4.03,3.82l-.38-.25c.32-1.16,.7-2.87,.95-4.24h-15.79l4.06,1.92c-.17,.38-.7,.63-1.47,.49-.32,.42-.63,.84-.91,1.22h7.39l2.31-2,3.43,3.29Zm-4.1,10.36c-2.17-.84-4.17-1.89-5.92-3.19-2.21,1.26-4.55,2.38-7.07,3.36l1.72,.66h10.47l.81-.84Zm-.46,8.05v-6.2h-11.27v6.2h11.27Zm-9.42-18.69c-.31,.35-.63,.66-.94,.98,1.23,1.4,2.73,2.66,4.48,3.71,1.85-1.54,3.36-3.08,4.48-4.69h-8.02Z"/>
      <path class="cls-2" d="M75.02,34.02v23.56c0,.17-.88,.8-2.21,.8h-.49v-13.72h-6.86l-.31-1.02h1.82v-9.63h-1.37l-.28-1.01h8.37l1.4-1.79h-10.19v8.4c0,5.81-.14,13.69-4.87,19.11l-.49-.32c2.34-5.57,2.38-12.57,2.38-18.8v-10.78l3.5,1.37h11.69c-.1-.04-.17-.07-.28-.14-.42-1.33-1.68-2.87-2.73-3.78l.31-.25c5.74,.14,5.92,3.36,4.31,4.16h8.12l1.89-2.52s2.21,1.75,3.47,2.98c-.11,.38-.38,.56-.91,.56h-16.07c.35,.28,1.68,1.4,2.52,2.24-.07,.38-.42,.56-.84,.56h-1.89Zm-10.22,13.58c1.86-.63,4.41-1.93,5.57-2.63l1.96,2.45c-.21,.18-.56,.18-.95-.07-.49,.1-1.19,.21-1.93,.31v2.52l.91-1.23s1.16,1.02,1.86,1.82c-.07,.35-.35,.53-.8,.53h-1.96v2.59l2.63-.35,.07,.53c-1.33,.66-3.39,1.64-6.23,2.8-.17,.45-.49,.7-.84,.77l-1.33-3.12c.77-.04,2.03-.18,3.5-.35v-2.87h-2.07l-.28-1.01h2.34v-2.38c-.77,.07-1.58,.14-2.31,.14l-.14-.45Zm7.53-13.58h-2.87v2.45h2.87v-2.45Zm0,3.47h-2.87v2.59h2.87v-2.59Zm0,6.16v-2.55h-2.87v2.55h2.87Zm5.6,5.92c1.12,2.94,.63,5.08-.35,5.95-.67,.6-1.89,.67-2.34-.17-.32-.77,.1-1.54,.88-2,.8-.63,1.47-2.35,1.22-3.78h.6Zm12.85-5.32c-.04,.14-.52,.38-1.12,.56,.56,.42,1.79,1.33,2.63,2.1-.07,.38-.42,.56-.88,.56h-15.68l-.28-1.01h12.32l1.29-1.47c-.17,.04-.35,.04-.49,.04h-.46v-.66h-8.89v.42c0,.21-1.09,.74-2.1,.74h-.35v-8.68l2.62,1.12h2.66v-2.38h-5.64l-.28-1.01h5.91v-3.05l4.1,.39c-.07,.49-.38,.8-1.23,.94v1.72h2.52l1.61-2.1s1.79,1.47,2.91,2.56c-.11,.38-.42,.56-.91,.56h-6.13v2.38h2.91l1.33-1.33,2.77,2.06c-.14,.25-.59,.49-1.16,.6v4.97Zm-2.34,10.92c.77,.25,.95,.52,.95,1.01,0,1.08-1.02,1.58-4.97,1.58h-2.52c-2.35,0-2.7-.56-2.7-2.24v-6.93l3.5,.38c-.07,.42-.42,.74-1.01,.84v5.11c0,.38,.1,.49,.88,.49h2.03c.88,0,1.61-.04,1.89-.04,.25,0,.42-.07,.56-.25,.25-.35,.59-1.4,.88-2.56h.42l.11,2.59Zm-9.21-11.83h1.61v-4.38h-1.61v4.38Zm3.5-4.38v4.38h1.86v-4.38h-1.86Zm.56,8.75c5.92,2.62,3.08,7.11,1.05,5.01,.14-1.61-.63-3.57-1.47-4.76l.42-.25Zm4.83-4.38v-4.38h-1.71v4.38h1.71Zm0,5.53c6.41,3.19,3.71,7.88,1.5,5.78-.03-1.86-.98-4.13-1.92-5.57l.42-.21Z"/>
      <path class="cls-2" d="M111.91,33.6c-.24,.28-.77,.56-1.47,.74v21.11c-.04,.28-1.58,.98-2.66,.98h-.49v-2.7h-6.2v2.7c0,.35-1.19,1.12-2.52,1.12h-.53V31.29l3.22,1.47h.63c.32-1.86,.74-4.55,.98-6.48l4.83,1.16c-.17,.56-.63,.8-1.4,.8-.84,1.33-2.06,3.12-3.04,4.52h3.68l1.61-1.82,3.36,2.66Zm-10.82,.17v8.72h6.2v-8.72h-6.2Zm6.2,18.94v-9.21h-6.2v9.21h6.2Zm21.7-19.11c-.28,.32-.7,.53-1.5,.63-.25,13.58-.8,20.62-2.59,22.65-1.12,1.29-2.62,1.82-4.66,1.82,0-1.09-.17-1.92-.73-2.42-.6-.56-2-1.05-3.61-1.33l.03-.56c1.65,.17,4.1,.35,4.94,.35,.7,0,.98-.11,1.37-.46,1.3-1.26,1.72-8.61,1.96-20.58h-7.35c-1.61,2.91-3.5,5.46-5.6,7.35l-.49-.32c2.06-3.54,4.09-9.1,5.15-14.46l4.66,1.37c-.14,.42-.56,.73-1.33,.73-.53,1.51-1.16,2.94-1.86,4.31h6.44l1.89-2,3.29,2.91Zm-14.98,6.27c9.45,3.33,6.37,10.12,3.19,7.46-.28-2.42-1.96-5.36-3.5-7.25l.32-.21Z"/>
      <path class="cls-2" d="M161.62,53.38s2.52,1.89,4.03,3.25c-.1,.39-.46,.56-.98,.56h-31.26l-.28-1.02h14.35v-10.47h-10.26l-.28-1.01h10.54v-8.96h-11.73l-.32-1.02h22.61l2.14-2.73s2.45,1.82,3.99,3.19c-.11,.38-.49,.56-.98,.56h-12.11v8.96h5.67l2.13-2.63s2.35,1.79,3.82,3.08c-.07,.38-.46,.56-.98,.56h-10.64v10.47h8.33l2.21-2.8Zm-17.82-26.99c11.38,1.26,9.59,8.86,5.74,6.9-1.01-2.38-3.75-5.04-6.02-6.58l.28-.32Z"/>
      <path class="cls-2" d="M182.59,34.93c-.31,.32-.74,.38-1.54,.46-.8,1.86-1.96,3.78-3.33,5.67,7.11,2.49,4.69,7.35,2.13,5.39-.28-1.37-1.22-2.94-2.17-4.2v15.4c0,.21-1.05,1.05-2.56,1.05h-.56v-13.93c-1.5,1.58-3.15,2.98-4.87,4.1l-.39-.35c3.61-3.71,6.93-9.28,8.33-13.79h-7.42l-.31-1.01h7.6l1.89-1.82,3.19,3.04Zm-9.1-8.58c7.95,1.96,4.69,7.39,1.92,5.01-.17-1.61-1.3-3.57-2.24-4.8l.32-.21Zm28.28,28.35c.8,.38,.94,.77,.94,1.37,0,1.22-1.09,1.89-5,1.89h-2.21c-2.59,0-2.98-.73-2.98-2.76v-9.38h-1.68c-.46,4.97-1.89,9.73-10.5,12.95l-.42-.53c6.58-3.71,7.28-8.09,7.46-12.43h-.28v.94c0,.35-1.33,1.09-2.7,1.09h-.49V27.3l3.36,1.47h8.79l1.61-1.82,3.36,2.66c-.25,.28-.77,.59-1.47,.74v16.21c-.03,.25-1.58,.95-2.62,.95h-.53v-1.68h-.73v8.61c0,.42,.1,.56,.77,.56h1.58c.63,0,1.16,0,1.44-.04,.28,0,.38-.07,.56-.39,.25-.56,.7-2.42,1.23-4.38h.42l.11,4.52Zm-14.67-24.92v4.34h9.31v-4.34h-9.31Zm0,9.49h9.31v-4.13h-9.31v4.13Zm0,5.53h9.31v-4.52h-9.31v4.52Z"/>
      <path class="cls-2" d="M210.66,38.85c.14,1.79-.38,3.22-1.71,3.85-2.13,1.02-3.67-1.61-1.29-2.97,.8-.42,1.79-1.75,1.82-3.54l.52-.04c.25,.59,.42,1.15,.53,1.71h.66l-.35-10.19,3.25,.67c1.23-.73,2.41-1.61,3.12-2.17l2.52,1.93,.07-.07c1.01,.07,1.82,.21,2.52,.42,.56-.66,1.02-1.33,1.37-2l2.73,1.37c-.17,.35-.56,.38-1.16,.25-.35,.42-.77,.84-1.22,1.22,1.09,.81,1.19,1.79,.73,2.28l2.45,1.19c-.18,.35-.6,.42-1.19,.28-.38,.49-.84,.98-1.4,1.47,1.86,1.5,1.02,3.4-.53,2.73-.24-.49-.63-.98-1.08-1.47-1.22,.81-2.62,1.54-3.99,2.03l-.31-.56c1.12-.66,2.24-1.54,3.22-2.49-.7-.56-1.47-1.08-2.13-1.44l.35-.38c1.16,.14,2.1,.35,2.83,.67,.49-.59,.95-1.19,1.3-1.79-.21,.04-.46,.04-.74-.07-.28-.38-.67-.84-1.12-1.26-1.05,.7-2.21,1.29-3.33,1.75l-.35-.52c.91-.6,1.79-1.33,2.56-2.14-.56-.46-1.19-.84-1.75-1.12-.17,.04-.38,0-.66-.07-1.12,.35-3.12,.84-5.04,1.12l.07,2.1h1.71l1.16-1.44s1.26,1.05,2.07,1.89c-.07,.38-.38,.56-.84,.56h-4.06l.1,2.17h1.68l1.19-1.47s1.3,1.05,2.1,1.93c-.07,.38-.42,.56-.88,.56h-4.06l.07,2.07h16.87l.07-2.07h-3.71l-.32-1.01h4.06l.07-2.17h-3.64l-.32-1.01h3.99l.1-2.21h-4.16l-.32-.98h4.2l1.37-1.61,3.22,2.45c-.25,.32-.53,.39-1.16,.49l-.35,8.05,1.79-1.79,3.25,3.08c-.28,.28-.67,.35-1.33,.38-.95,.8-2.66,1.96-3.82,2.59l-.38-.21c.21-.77,.46-2,.63-3.01h-23.63Zm26.64,16.35c.88,.35,1.12,.73,1.12,1.29,0,1.26-1.16,1.71-6.86,1.71h-3.71c-3.19,0-3.71-.52-3.71-2.59v-3.47h-2.59c-1.61,4.66-6.65,6.13-14.14,6.62l-.07-.53c5.95-1.01,9.38-2.56,10.54-6.09h-1.82v.39c0,.28-1.43,.98-2.73,.98h-.49v-13.76l3.43,1.43h12.57l1.58-1.71,3.36,2.55c-.21,.25-.7,.56-1.29,.66v9.49c-.04,.25-1.71,.88-2.77,.88h-.56v-.91h-1.79v2.94c0,.38,.1,.46,1.16,.46h6.23c.46-.04,.59-.1,.77-.42,.31-.46,.73-1.68,1.29-3.29h.38l.11,3.36Zm-21.25-12.99v2.34h13.09v-2.34h-13.09Zm13.09,3.36h-13.09v2.27h13.09v-2.27Zm-13.09,5.57h13.09v-2.31h-13.09v2.31Z"/>
      <path class="cls-2" d="M260.16,47.36c-3.36,2-8.02,4.66-14.67,7.7-.14,.42-.46,.81-.84,.95l-1.92-3.96c1.16-.25,2.91-.7,4.97-1.3l-.35-22.61,4.62,.35c-.04,.49-.32,.88-1.26,1.01l.32,20.27c2.8-.88,5.95-1.86,9-2.87l.14,.45Zm13.23-18.62c-.07,.52-.49,.95-1.33,1.01-.32,7.46-.84,13.76-4.48,18.83,10.75,4.62,8.61,11.66,4.9,9.35-1.01-2.62-3.43-5.81-5.67-8.3-3.04,3.67-7.87,6.72-15.75,9.14l-.32-.6c16.38-7.35,17.4-16.38,17.68-29.93l4.97,.49Zm-18.38,3.43c10.82,3.57,8.26,10.71,4.73,8.23-.74-2.63-3.15-5.88-5.08-8.02l.35-.21Z"/>
      <path class="cls-2" d="M312.39,34.3c-.25,.32-.63,.38-1.33,.42-.98,1.12-2.7,2.73-4.03,3.64l-.39-.21c.32-1.08,.66-2.77,.91-4.06h-10.15v9.35c0,.17-1.05,.81-2.7,.81h-.56v-10.15h-9.56c.14,2.24-.84,3.71-1.96,4.31-1.05,.52-2.34,.31-2.7-.77-.31-.95,.39-1.75,1.23-2.17,1.26-.6,2.41-2.17,2.24-3.99l.56-.04c.21,.56,.39,1.12,.49,1.64h9.7v-3.18h-9.66l-.28-1.02h18.45l2-2.45s2.24,1.68,3.64,2.91c-.07,.38-.49,.56-.98,.56h-9.91v3.18h9.94l1.82-1.85,3.22,3.08Zm-3.43,13.69s2,1.65,3.19,2.84c-.11,.38-.46,.56-.95,.56h-4.62v6.09c-.04,.25-1.68,.98-2.8,.98h-.53v-2h-19.74l-.31-1.01h20.06v-4.06h-21.49l-.28-1.02h21.77v-3.85h-18.83l-.31-1.01h18.8l1.65-1.82,3.46,2.7c-.21,.28-.74,.59-1.43,.74v3.25h.63l1.75-2.38Zm-24.92-7.07c1.65-.1,5.39-.56,9.1-1.05l.07,.49c-1.5,.74-3.78,1.86-6.86,3.12-.17,.49-.49,.74-.87,.84l-1.44-3.4Zm.98-5.08c8.05-1.54,8.72,3.47,5.95,3.26-1.37-1.02-4.17-2.24-6.16-2.77l.21-.49Zm13.51,4.1c9.38-.95,9.8,4.13,6.93,3.85-1.58-1.09-4.83-2.63-7.14-3.33l.21-.52Zm7.91-2.45c-.25,.17-.59,.14-1.01-.14-1.3,.42-4.41,1.19-6.76,1.44l-.17-.35c1.89-1.02,4.66-3.01,5.78-3.92l2.17,2.98Z"/>
      <path class="cls-2" d="M346.94,34.3c-.32,.32-.91,.67-1.75,.84v22.12c-.07,.32-1.72,1.23-3.01,1.23h-.56v-2.98h-17.96v1.86c0,.42-1.37,1.26-2.91,1.26h-.59V31.78l3.78,1.61h4.55c.63-2.13,1.3-5.15,1.65-7.25l5.18,1.23c-.14,.46-.53,.74-1.33,.74-1.12,1.5-2.77,3.64-4.41,5.29h11.62l1.85-2.13,3.89,3.04Zm-23.28,.07v9.38h17.96v-9.38h-17.96Zm17.96,20.13v-9.73h-17.96v9.73h17.96Z"/>
      <path class="cls-2" d="M383.45,54.05c1.5,.42,2,.63,2,1.33,0,1.58-1.47,2.59-7.98,2.59h-13.13c-4.69,0-6.9-1.12-6.9-4.9v-14.95c-1.44,1.22-2.94,2.31-4.48,3.19l-.35-.35c3.99-3.46,7.91-9.7,9.77-14.91l4.87,1.26c-.14,.38-.46,.56-1.37,.49-.46,.84-.98,1.68-1.54,2.52h6.76l1.92-1.89,3.33,2.94c-.28,.28-.7,.35-1.4,.42-1.4,1.4-3.54,3.4-5.53,4.66h8.05l1.68-1.85,3.57,2.73c-.25,.32-.81,.63-1.54,.77v9.35c-.04,.25-1.68,.91-2.77,.91h-.56v-2.31h-17.15v7.14c0,1.33,1.16,1.64,3.5,1.64h12.95c2.21,0,3.22-.14,3.85-.98,.59-.77,1.43-3.12,2-4.97h.42l.04,5.18Zm-19.85-22.72c-1.12,1.58-2.42,3.12-3.82,4.59l1.37,.52h7.39c.91-1.4,1.96-3.54,2.59-5.11h-7.53Zm-2.91,13.69h6.86v-7.56h-6.86v7.56Zm10.08-7.56v7.56h7.07v-7.56h-7.07Z"/>
      <path class="cls-2" d="M405.12,33.6c-.24,.28-.77,.56-1.47,.74v21.11c-.04,.28-1.58,.98-2.66,.98h-.49v-2.7h-6.2v2.7c0,.35-1.19,1.12-2.52,1.12h-.53V31.29l3.22,1.47h.63c.32-1.86,.74-4.55,.98-6.48l4.83,1.16c-.17,.56-.63,.8-1.4,.8-.84,1.33-2.06,3.12-3.04,4.52h3.68l1.61-1.82,3.36,2.66Zm-10.82,.17v8.72h6.2v-8.72h-6.2Zm6.2,18.94v-9.21h-6.2v9.21h6.2Zm21.7-19.11c-.28,.32-.7,.53-1.5,.63-.25,13.58-.8,20.62-2.59,22.65-1.12,1.29-2.62,1.82-4.66,1.82,0-1.09-.17-1.92-.73-2.42-.6-.56-2-1.05-3.61-1.33l.03-.56c1.65,.17,4.1,.35,4.94,.35,.7,0,.98-.11,1.37-.46,1.3-1.26,1.72-8.61,1.96-20.58h-7.35c-1.61,2.91-3.5,5.46-5.6,7.35l-.49-.32c2.06-3.54,4.09-9.1,5.15-14.46l4.66,1.37c-.14,.42-.56,.73-1.33,.73-.53,1.51-1.16,2.94-1.86,4.31h6.44l1.89-2,3.29,2.91Zm-14.98,6.27c9.45,3.33,6.37,10.12,3.19,7.46-.28-2.42-1.96-5.36-3.5-7.25l.32-.21Z"/>
      <path class="cls-2" d="M454.72,27.02s2.55,1.89,4.09,3.26c-.1,.38-.49,.56-.98,.56h-16c-1.19,3.5-3.01,6.93-5.36,10.08l1.4,.56h13.69l1.71-1.96,3.71,2.87c-.28,.31-.88,.63-1.65,.8v14.35c-.07,.28-1.75,.95-2.87,.95h-.53v-3.12h-14.49v2.38c0,.25-1.05,1.02-2.77,1.02h-.56v-14.98c-2.31,2.55-4.97,4.8-7.91,6.65l-.32-.35c5.57-5.08,9.98-12.57,11.62-19.25h-10.57l-.32-1.01h25.83l2.24-2.8Zm-17.26,15.47v11.87h14.49v-11.87h-14.49Z"/>
      <path class="cls-2" d="M472.44,38.78c8.33,2.8,5.46,8.54,2.59,6.16-.25-1.75-1.44-3.92-2.59-5.46v18.31c0,.32-1.37,1.02-2.59,1.02h-.63v-15.3c-1.61,2.91-3.68,5.5-6.23,7.7l-.46-.42c3.12-4.09,5.18-9.8,6.27-15.3h-5.18l-.28-.98h5.88v-8.23l4.51,.46c-.1,.52-.35,.88-1.29,1.01v6.76h1.37l1.71-2.38s2.07,1.64,3.22,2.8c-.1,.38-.42,.56-.91,.56h-5.39v3.29Zm20.41-6.76s1.86,1.71,2.94,2.94c-.11,.38-.45,.56-.91,.56h-4.55v19.11c0,2.35-.59,3.71-4.79,4.06-.14-.95-.35-1.65-.95-2.1-.59-.52-1.5-.88-3.43-1.15v-.49s4.2,.28,5.04,.28c.66,0,.87-.21,.87-.77v-13.41c-2.87,4.69-7,8.72-12.11,11.76l-.38-.42c5.15-4.31,9.14-10.82,11.27-16.87h-6.72l-.28-1.01h8.23v-8.26l4.55,.49c-.07,.49-.42,.84-1.3,.94v6.83h.84l1.68-2.49Z"/>
      <path class="cls-2" d="M508.46,38.68c7.39,3.15,4.59,8.19,2.07,5.95-.17-1.58-1.12-3.57-2.07-5.11v18.24c0,.39-1.33,.98-2.49,.98h-.59v-15.26c-1.44,2.7-3.29,5.11-5.6,7.25l-.42-.46c2.76-3.96,4.51-9.28,5.46-14.56h-4.66l-.28-1.02h5.5v-8.37l4.34,.46c-.07,.52-.35,.84-1.26,.98v6.93h.7l1.71-2.31s1.86,1.58,3.01,2.76c-.07,.38-.42,.56-.91,.56h-4.52v2.97Zm22.86-.66c-.25,.35-.59,.45-1.4,.53-.91,4.2-2.31,8.12-4.73,11.52,2.17,2.13,4.76,3.67,7.7,4.76l-.07,.46c-1.71,.56-2.87,1.79-3.15,3.4-2.62-1.54-4.76-3.61-6.48-6.2-2.38,2.52-5.53,4.62-9.73,6.16l-.32-.42c3.82-2.07,6.65-4.76,8.79-7.91-1.72-3.33-2.83-7.39-3.47-12.25h-1.22c-.04,6.41-.74,14.98-7.18,20.72l-.42-.32c4.06-6.23,4.55-14,4.55-21.04v-9.63l3.57,1.37h9.03l1.86-2.45s2.13,1.71,3.4,2.91c-.11,.38-.45,.56-.95,.56h-13.86v6.86h1.71l.07-.04v.04h7.25l1.89-1.89,3.15,2.87Zm-12.08,.04c.8,4.06,2.21,7.28,4.1,9.84,1.58-2.97,2.59-6.33,3.18-9.84h-7.28Z"/>
      <path class="cls-2" d="M541.36,33.18c.17,2.17-.77,3.61-1.89,4.2-1.01,.49-2.31,.32-2.66-.74-.28-.98,.38-1.79,1.23-2.2,1.22-.56,2.31-2.1,2.13-3.92l.56-.04c.24,.59,.38,1.16,.49,1.68h9.49v-2.62h-9.73l-.28-1.01h18.76l1.89-2.28s2.1,1.54,3.43,2.73c-.1,.38-.46,.56-.95,.56h-9.87v2.62h10.01l1.79-1.82,3.22,3.08c-.28,.25-.63,.28-1.33,.35-.98,1.08-2.66,2.59-3.95,3.43l-.42-.25c.31-1.01,.7-2.56,.91-3.78h-10.22v7.81c0,.17-1.05,.77-2.69,.77h-.56v-8.58h-9.35Zm25.73,21.56c1.29,.52,1.43,.63,1.43,1.19,0,1.19-1.08,1.96-4.87,1.96h-8.33c-3.85,0-4.66-.67-4.66-4.13v-2.13h-6.41v1.61c0,.25-1.47,.98-2.77,.98h-.49v-13.2l.87,.35-1.08-2.52c1.61-.14,5.25-.56,8.86-1.05l.07,.53c-1.47,.7-3.75,1.68-6.79,2.87-.07,.21-.21,.38-.28,.49l1.86,.8h15.79l1.08-1.19c-1.75-.95-4.52-2.14-6.58-2.73l.21-.53c7.98-.67,9.42,2.73,7.95,3.54l2.28,1.75c-.17,.25-.66,.56-1.33,.7v8.09c-.04,.28-1.65,.98-2.73,.98h-.56v-1.47h-6.72v2.34c0,1.16,.14,1.26,1.58,1.26h8.37c.91,0,1.37-.03,1.61-.38,.28-.35,.66-1.47,1.16-3.29h.42l.07,3.19Zm-25.48-20.27c7.98-1.33,8.58,3.19,6.09,3.05-1.43-.91-4.2-2.07-6.3-2.52l.21-.53Zm2.66,9.03v2.98h6.41v-2.98h-6.41Zm6.41,7.11v-3.12h-6.41v3.12h6.41Zm3.22-7.11v2.98h6.72v-2.98h-6.72Zm6.72,7.11v-3.12h-6.72v3.12h6.72Zm-5.67-13.9c1.96-.88,4.94-2.59,6.16-3.43l1.96,2.87c-.25,.17-.56,.1-.98-.18-1.37,.35-4.58,.98-7,1.19l-.14-.46Z"/>
      <path class="cls-2" d="M585.75,34.93c-.31,.32-.74,.38-1.54,.46-.8,1.86-1.96,3.78-3.33,5.67,7.11,2.49,4.69,7.35,2.13,5.39-.28-1.37-1.22-2.94-2.17-4.2v15.4c0,.21-1.05,1.05-2.56,1.05h-.56v-13.93c-1.5,1.58-3.15,2.98-4.87,4.1l-.39-.35c3.61-3.71,6.93-9.28,8.33-13.79h-7.42l-.31-1.01h7.6l1.89-1.82,3.19,3.04Zm-9.1-8.58c7.95,1.96,4.69,7.39,1.92,5.01-.17-1.61-1.29-3.57-2.24-4.8l.32-.21Zm28.28,28.35c.8,.38,.94,.77,.94,1.37,0,1.22-1.08,1.89-5,1.89h-2.21c-2.59,0-2.98-.73-2.98-2.76v-9.38h-1.68c-.46,4.97-1.89,9.73-10.5,12.95l-.42-.53c6.58-3.71,7.28-8.09,7.46-12.43h-.28v.94c0,.35-1.33,1.09-2.7,1.09h-.49V27.3l3.36,1.47h8.79l1.61-1.82,3.36,2.66c-.25,.28-.77,.59-1.47,.74v16.21c-.03,.25-1.58,.95-2.62,.95h-.53v-1.68h-.73v8.61c0,.42,.1,.56,.77,.56h1.58c.63,0,1.16,0,1.44-.04,.28,0,.38-.07,.56-.39,.25-.56,.7-2.42,1.23-4.38h.42l.11,4.52Zm-14.67-24.92v4.34h9.31v-4.34h-9.31Zm0,9.49h9.31v-4.13h-9.31v4.13Zm0,5.53h9.31v-4.52h-9.31v4.52Z"/>
      <path class="cls-2" d="M621.88,26.74c-.11,.49-.39,.84-1.3,.98v29.68c0,.46-1.37,1.37-2.52,1.37h-.6v-14h-2.45c-.14,5.74-.74,10.57-5.08,13.9l-.46-.52c2.45-3.64,2.49-8.19,2.49-13.37h-2.14l-.31-1.01h7.95v-5.64h-2.91l-1.12,1.47-3.43-1.89c.32-.28,.84-.67,1.33-.95v-8.68l4.27,.8c-.07,.38-.46,.63-1.33,.77v7.46h3.19v-10.85l4.41,.49Zm17.15,5.85c-.11,.42-.53,.73-1.26,.73-.21,.53-.42,1.02-.66,1.47,3.01,.98,3.39,2.83,2.73,3.75,.56,.42,1.86,1.44,2.77,2.24-.1,.38-.42,.56-.91,.56h-20.72l-.28-1.02h8.72v-9.17h-7.46l-.25-1.01h7.7v-3.99l4.24,.39c-.07,.52-.38,.88-1.29,1.01v2.59h4.27l1.71-2.21s2,1.54,3.22,2.66c-.11,.39-.46,.56-.95,.56h-8.26v9.17h5.64l1.05-1.29c-.38,.07-.8-.04-1.26-.38-.11-.91-.6-1.93-1.23-2.77-.91,1.61-2.07,2.94-3.4,3.89l-.52-.35c1.22-1.96,2.17-4.8,2.55-7.81l3.85,.98Zm-10.82-.11c-.14,.42-.52,.74-1.29,.74-.21,.59-.45,1.12-.7,1.64,4.8,2.17,2.35,5.78,.42,3.99,.04-.95-.38-2.1-.91-3.01-1.01,1.75-2.31,3.19-3.78,4.17l-.49-.35c1.4-2,2.49-4.97,2.91-8.19l3.85,1.01Zm9.98,9.59l2.97,2.28c-.24,.28-.59,.49-1.33,.59v12.53c0,.18-1.05,.81-2.45,.81h-.49v-1.79h-11.52v1.43c0,.21-.91,.77-2.35,.77h-.49v-16.24l3.22,1.26h10.99l1.44-1.65Zm-1.3,13.41v-10.75h-11.52v10.75h11.52Zm-.94-7.84c-.14,.21-.56,.42-1.02,.53v4.97c-.04,.25-1.16,.77-1.89,.77h-.35v-1.19h-3.22v.84c0,.17-.77,.74-1.93,.74h-.35v-8.37l2.45,1.05h2.76l1.12-1.12,2.41,1.79Zm-3.26,4.06v-3.71h-3.22v3.71h3.22Z"/>
      <path class="cls-2" d="M679.18,46.62c-.28,.25-.7,.46-1.43,.53-.49,5.92-1.61,9.35-3.33,10.61-1.02,.7-2.35,1.05-3.92,1.05,0-.84-.14-1.65-.59-2.1-.49-.49-1.58-.88-2.8-1.09v-.56c1.19,.14,3.33,.28,4.06,.28,.59,0,.91-.07,1.23-.32,.87-.7,1.75-3.67,2.21-8.33h-21.21c-2.07,2.06-4.41,3.96-7.11,5.53l-.38-.38c5.57-4.38,9.56-10.57,12.22-16.84h-9.45l-.32-1.02h10.19c1.08-2.7,1.92-5.39,2.52-7.95l4.62,1.33c-.18,.46-.49,.7-1.47,.67-.63,1.92-1.37,3.92-2.28,5.95h5.78l1.33-1.4,2.94,2.31c-.25,.28-.56,.39-1.19,.42l-1.02,4.41h1.19l1.29-1.37,2.84,2.28c-.25,.28-.56,.38-1.16,.46l-.81,4.58h1.23l1.71-1.68,3.12,2.62Zm-26.25,2.45c1.5,4.34-.04,7.21-1.68,8.19-1.12,.7-2.59,.56-3.01-.52-.38-.98,.25-1.86,1.19-2.35,1.5-.77,3.05-2.8,2.98-5.29l.53-.04Zm-1.44-22.58c8.61,1.92,5.78,8.23,2.66,5.92-.32-2-1.68-4.27-3.01-5.71l.35-.21Zm6.72,14.25c-1.16,1.72-2.41,3.36-3.85,4.94h15.82l.91-4.94h-12.88Zm-1.44,8.23c5.74,4.62,1.86,9.7-.35,6.72,.49-2.17,.31-4.72-.11-6.62l.46-.11Zm4.66-13.97c-.74,1.58-1.61,3.19-2.59,4.73h7.91l1.05-4.73h-6.37Zm-.28,13.62c7.28,2.59,4.31,8.05,1.68,5.71-.07-1.82-1.05-4.06-2.06-5.5l.38-.21Zm4.9-.56c7.49,.67,5.57,6.12,2.73,4.48-.39-1.51-1.79-3.29-3.05-4.27l.32-.21Z"/>
      <path class="cls-2" d="M711.39,53.38s2.52,1.89,4.03,3.25c-.1,.39-.46,.56-.98,.56h-31.26l-.28-1.02h14.35v-10.47h-10.26l-.28-1.01h10.54v-8.96h-11.73l-.32-1.02h22.61l2.14-2.73s2.45,1.82,3.99,3.19c-.11,.38-.49,.56-.98,.56h-12.11v8.96h5.67l2.13-2.63s2.35,1.79,3.82,3.08c-.07,.38-.46,.56-.98,.56h-10.64v10.47h8.33l2.21-2.8Zm-17.82-26.99c11.38,1.26,9.59,8.86,5.74,6.9-1.01-2.38-3.75-5.04-6.02-6.58l.28-.32Z"/>
      <path class="cls-2" d="M724.13,46.13c2.07-1.19,3.01-2.7,3.46-4.52-1.82-.8-2.97-1.68-2.97-3.18,0-1.26,.87-2.35,2.41-2.35s2.66,1.16,2.66,3.33c0,2.66-1.26,6.06-4.97,7.84l-.59-1.12Z"/>
      <path class="cls-2" d="M760.71,48.72v-1.05h-4.94c-.7,.88-1.47,1.82-2.24,2.59h9.1l1.65-1.68,3.4,2.52c-.21,.28-.74,.56-1.4,.7v5.74c-.04,.25-1.64,.95-2.73,.95h-.56v-1.61h-16.42v.84c0,.28-1.47,.98-2.73,.98h-.46v-9.8l3.43,1.37h4.97c.25-.84,.46-1.79,.63-2.59h-3.22v.56c0,.25-1.47,.91-2.76,.91h-.46v-8.47l3.43,1.36h10.99l1.51-1.61,3.12,2.31c.35-.91,.7-2.17,.98-3.22h-21.84c.07,2.17-.84,3.71-1.89,4.41-1.01,.63-2.41,.53-2.87-.56-.35-.98,.28-1.82,1.19-2.27,1.08-.6,2.24-2.03,2.49-3.64-.7,.28-1.5,.56-2.38,.84l-.35-.53c6.09-2.73,6.02-6.44,6.09-11.38l3.96,.35c-.07,.42-.35,.77-1.08,.88-.07,1.19-.14,2.28-.35,3.36,1.05-.91,2.21-2.1,3.25-3.43l2.87,2.56c-.28,.25-.84,.42-1.54,.07-1.58,.88-3.36,1.65-4.9,2.1-.07,.21-.14,.42-.21,.63,7.14,.6,6.16,5.67,3.36,4.59-.7-1.26-2.35-2.77-3.82-3.78-.77,1.26-2.07,2.41-4.17,3.43,.14,.49,.21,.95,.28,1.37h21.74l.63-.66c-.17,0-.35-.04-.52-.1-.77-1.26-2.52-2.77-4.1-3.78-1.16,1.79-3.33,3.33-7.42,4.51l-.38-.49c6.3-2.84,6.23-6.65,6.3-11.69l4.1,.35c-.07,.42-.35,.77-1.09,.88-.07,1.26-.14,2.45-.38,3.57,1.02-.91,2.14-2.06,3.15-3.33l2.87,2.52c-.28,.25-.84,.42-1.54,.1-1.54,.88-3.36,1.61-4.87,2.1-.07,.17-.14,.38-.25,.56,4.52,.46,5.92,2.48,5.64,3.78l3.12,2.97c-.28,.28-.66,.32-1.37,.39-1.09,.91-2.98,2.2-4.34,2.91l-.25-.14c-.21,.21-.63,.42-1.15,.53v4.41c-.04,.21-1.65,.84-2.7,.84h-.56Zm-19.92-20.3c7.11,.88,5.15,5.85,2.59,4.24-.38-1.4-1.79-3.08-2.91-3.99l.32-.25Zm5.78,22.86v4.59h16.42v-4.59h-16.42Zm14.14-4.62v-3.61h-11.52v3.61h11.52Zm-6.02-18.06c6.9,1.02,4.87,5.92,2.31,4.27-.35-1.4-1.61-3.08-2.63-3.99l.32-.28Z"/>
      <path class="cls-2" d="M35.63,87.87c-.24,.32-.59,.42-1.33,.46-.88,2.59-2.62,5.32-5.01,7.42,.18,.07,.35,.17,.56,.35,2.91,2.62,7.04,3.12,14.32,3.12,4.1,0,7.49-.04,11.69-.25v.46c-1.37,.28-2.17,1.4-2.35,2.73h-10.43c-7.35,0-10.57-1.22-13.65-4.94-.49-.56-.84-.49-1.12,.04-.63,1.09-1.75,3.05-2.56,4.66,.1,.31,.03,.52-.21,.73l-2.45-3.29c1.4-.88,3.47-2.62,4.69-3.36,1.47-2.21,2.66-5.25,3.26-7.91h-2.83l-1.16,1.02-2.7-2.07c.31-.21,.88-.46,1.37-.59,1.19-1.65,2.73-4.1,3.71-5.88h-5.57l-.32-1.02h6.16l1.54-1.58,3.12,2.8c-.35,.38-1.12,.56-2.03,.56-.98,1.58-2.52,3.99-3.71,5.74h2.24l1.75-1.68,3.01,2.49Zm-10.54-16.98c8.89,1.16,6.51,7.63,3.22,5.6-.45-1.89-2.1-4.06-3.54-5.36l.32-.25Zm13.69,6.37c-1.05,1.85-2.31,3.5-3.75,4.69l-.53-.28c1.3-2.59,2.42-6.44,2.94-10.15l4.38,1.23c-.14,.42-.56,.73-1.3,.73-.35,.95-.77,1.89-1.23,2.77h3.61v-5.81l4.45,.42c-.07,.49-.38,.84-1.26,.98v4.41h2.1l1.86-2.38s2.1,1.61,3.4,2.84c-.11,.38-.45,.56-.95,.56h-6.41v5.29h3.64l1.89-2.45s2.21,1.71,3.5,2.91c-.1,.38-.45,.56-.91,.56h-19.95l-.28-1.01h8.93v-5.29h-4.13Zm10.15,20.13v-2.24h-9.35v1.64c0,.28-1.43,.98-2.73,.98h-.49v-12.36l3.4,1.4h8.86l1.54-1.68,3.33,2.52c-.21,.25-.74,.56-1.4,.7v8.09c-.04,.28-1.58,.95-2.62,.95h-.53Zm0-3.26v-6.3h-9.35v6.3h9.35Z"/>
      <path class="cls-2" d="M90.94,88.57c-.03,.46-.35,.77-1.19,.91v12.29c0,.28-1.44,.84-2.66,.84h-.6v-2.83h-20.65l-1.09,1.79-3.46-2.2c.28-.28,.66-.67,1.09-.91v-10.47l4.59,.46c-.07,.38-.39,.7-1.37,.84v9.49h8.65v-13.76h-6.72l-1.09,1.75-3.4-2.13c.25-.28,.63-.63,1.05-.91v-9.91l4.55,.46c-.07,.38-.38,.7-1.37,.84v8.89h6.97v-13.34l4.62,.49c-.1,.49-.35,.84-1.26,.98v11.87h7.18v-10.15l4.45,.46c-.07,.45-.35,.77-1.22,.91v10.89c0,.28-1.44,.88-2.63,.88h-.59v-1.96h-7.18v13.76h8.89v-10.64l4.45,.46Z"/>
      <path class="cls-2" d="M101.24,75.3c.07,1.75-.63,2.98-1.58,3.5-.95,.49-2.28,.28-2.66-.81-.28-1.01,.35-1.82,1.23-2.24,1.05-.49,2.03-1.82,1.85-3.19h.56c.25,.6,.38,1.19,.49,1.72h11.38c-.35-.07-.7-.21-1.05-.49-.03-1.29-.77-2.7-1.54-3.54l.32-.21c5.74,.46,4.97,3.85,3.01,4.24h11.2l1.68-1.75,3.01,2.94c-.25,.24-.63,.31-1.33,.35-.81,.74-2.24,1.68-3.29,2.21,.49,.42,1.05,.91,1.51,1.37-.11,.38-.42,.56-.88,.56h-7.32v1.68c0,.21-1.33,.63-2.38,.63h-.66v-6.41l4.06,.42c-.04,.38-.28,.67-1.02,.77v1.89h3.64l1.64-2.03s.39,.32,.95,.77c.21-.67,.46-1.58,.63-2.38h-23.45Zm26.04,24.05c.95,.35,1.19,.7,1.19,1.23,0,1.22-1.16,1.61-7.07,1.61h-3.85c-3.25,0-3.85-.59-3.85-2.62v-5.25h-2.73c-.88,4.1-2.98,7.18-13.41,8.96l-.32-.52c8.05-2.21,9.8-5.15,10.43-8.44h-2.94v.67c0,.32-1.36,1.05-2.69,1.05h-.49v-14.63l3.46,1.4h14.42l1.61-1.68,3.29,2.52c-.21,.25-.67,.53-1.3,.63v9.94c-.04,.25-1.65,.88-2.7,.88h-.56v-.77h-2.91v4.87c0,.42,.14,.52,1.33,.52h3.43c1.33,0,2.52,0,3.04-.03,.42-.04,.6-.11,.77-.42,.35-.56,.77-2,1.29-3.82h.46l.07,3.92Zm-20.09-17.19v-2.38h-6.23l-.31-1.01h6.55v-2.98l3.99,.42c-.07,.39-.32,.66-.98,.77v4.73c0,.17-1.33,.49-2.34,.49l-.66-.04Zm-2.45,1.64v2.52h15.05v-2.52h-15.05Zm15.05,3.54h-15.05v2.34h15.05v-2.34Zm-15.05,5.95h15.05v-2.59h-15.05v2.59Zm14.11,2.31c6.83-.28,5.46,4.8,2.8,3.54-.46-1.19-1.89-2.56-3.08-3.22l.28-.31Z"/>
      <path class="cls-2" d="M134.39,72.85c7.88,2.8,4.59,8.65,1.82,6.09,.03-2.03-1.02-4.38-2.17-5.85l.35-.25Zm16.07,25.2c0,2.21-.42,3.43-3.85,3.78-.07-.88-.25-1.65-.66-2.1-.42-.49-1.12-.8-2.45-1.01v-.56s2.8,.21,3.43,.21c.52,0,.67-.17,.67-.67v-15.82h-10.29v20.02c0,.21-.91,.94-2.38,.94h-.46v-23.28l3.26,1.29h3.08v-10.43l4.45,.42c-.07,.49-.38,.84-1.29,.98v9.03h3.29l1.4-1.64,3.22,2.45c-.21,.28-.7,.56-1.4,.7v15.68Zm-9.24-4.2v2.17c0,.17-.7,.7-1.79,.7h-.31v-12.74l2.52,1.08h1.68l1.08-1.16,2.42,1.82c-.17,.25-.63,.46-1.12,.56v8.79c-.04,.21-1.12,.74-1.82,.74h-.31v-1.96h-2.35Zm0-7.77v6.76h2.35v-6.76h-2.35Zm10.92-11.97c-.18,.38-.63,.67-1.37,.59-1.51,2-3.26,4.06-4.97,5.39l-.53-.25c.88-1.89,1.89-4.8,2.66-7.49l4.2,1.75Zm11.45,5.15c-.52,5.67-1.61,10.75-4.17,14.95,1.79,2.42,4.06,4.45,7,5.95l-.11,.35c-1.47,.25-2.45,1.01-2.91,2.49-2.42-1.72-4.24-3.89-5.64-6.48-2.06,2.59-4.9,4.76-8.68,6.51l-.28-.39c3.57-2.49,6.06-5.43,7.77-8.72-1.26-3.12-2.03-6.69-2.56-10.54-.84,1.54-1.79,2.98-2.87,4.24l-.53-.31c1.89-4.34,3.33-10.71,3.85-16.8l4.76,1.05c-.14,.46-.53,.8-1.33,.84-.42,2.07-.98,3.99-1.61,5.85h4.45l1.86-2.49s2.17,1.72,3.46,2.94c-.07,.38-.42,.56-.94,.56h-1.54Zm-7.67,0c-.39,.98-.81,1.96-1.26,2.91,.67,3.4,1.65,6.55,3.05,9.24,1.43-3.67,2.06-7.74,2.31-12.15h-4.09Z"/>
      <path class="cls-2" d="M198.17,72.11s2.45,1.79,3.96,3.08c-.11,.38-.46,.56-.98,.56h-30.7l-.28-1.01h15.12c-.42-1.58-1.92-3.29-3.25-4.27l.28-.25c6.13,.1,6.76,3.33,5.39,4.52h8.26l2.21-2.62Zm-.04,13.58l3.57,2.7c-.21,.25-.74,.56-1.47,.7v9.98c0,2.24-.52,3.57-4.48,3.92-.1-1.02-.24-1.72-.73-2.21-.46-.49-1.23-.88-2.8-1.09v-.49s3.15,.21,3.96,.21c.59,0,.73-.25,.73-.7v-10.22h-21.28v13.37c0,.28-1.43,1.05-2.76,1.05h-.53v-16.87l3.57,1.44h20.65l1.58-1.79Zm-6.65,.42v-1.5h-10.64v.8c0,.28-1.47,1.02-2.8,1.02h-.45v-9.35l3.46,1.4h10.08l1.61-1.75,3.54,2.62c-.25,.28-.77,.6-1.47,.74v5.22c-.04,.21-1.72,.8-2.77,.8h-.56Zm1.02,12.08c-.04,.25-1.58,.91-2.59,.91h-.53v-1.71h-6.62v1.26c0,.28-1.4,.95-2.62,.95h-.45v-9.7l3.22,1.33h6.16l1.51-1.54,3.22,2.35c-.21,.28-.66,.56-1.29,.7v5.46Zm-1.02-14.6v-4.09h-10.64v4.09h10.64Zm-2.1,12.78v-4.13h-6.62v4.13h6.62Z"/>
      <path class="cls-2" d="M236.25,96.86s2,1.61,3.26,2.8c-.11,.38-.46,.56-.95,.56h-13.06v1.79c0,.21-.98,.95-2.49,.95h-.56v-19.78c-.28,.42-.6,.81-.91,1.19,.21,.21,.42,.38,.59,.56-.1,.39-.42,.56-.91,.56h-.59c-.21,.21-.42,.46-.59,.67l-.39-.35,.18-.31h-2.1v13.58c0,2.17-.53,3.61-4.24,3.92-.07-.88-.21-1.58-.67-2.03-.53-.46-1.26-.81-2.84-1.02v-.49s3.22,.25,3.92,.25c.59,0,.77-.21,.77-.73v-8.58c-1.89,3.96-4.55,7.39-7.88,10.22l-.42-.42c3.08-3.96,5.32-9.52,6.62-14.7h-2.49l-1.22,1.43-2.98-1.96c.31-.25,.74-.52,1.19-.74,.63-2.87,1.4-7.67,1.68-10.26h-2.24l-.25-1.01h7.98v-.04h2.24l1.64-2.14s1.89,1.54,3.08,2.63c-.1,.38-.45,.56-.91,.56h-3.01v10.54h.14l1.51-2s.59,.46,1.3,1.09c1.79-4.24,2.94-9.45,3.43-13.06l4.73,1.22c-.14,.38-.42,.67-1.29,.67-.46,1.5-1.05,3.15-1.82,4.94l.28,.11h8.05l1.71-2.28s2.03,1.58,3.22,2.73c-.1,.38-.46,.56-.95,.56h-5.71v6.13h1.5l1.61-2.24s1.92,1.54,3.05,2.7c-.1,.38-.46,.56-.95,.56h-5.21v6.13h1.58l1.61-2.28s1.92,1.58,3.04,2.73c-.07,.38-.42,.56-.91,.56h-5.32v6.44h2.13l1.79-2.35Zm-21.56-12.36v-10.54h-2.56c-.35,2.77-1.12,7.46-1.68,10.54h4.24Zm10.82-6.02v6.13h3.92v-6.13h-3.92Zm3.92,7.14h-3.92v6.13h3.92v-6.13Zm-3.92,13.58h3.92v-6.44h-3.92v6.44Zm3.54-28.56c7.6,2.42,4.17,7.98,1.51,5.43,.04-1.79-.88-3.89-1.86-5.22l.35-.21Z"/>
      <path class="cls-2" d="M258.52,77.82c-.24,.28-.77,.56-1.47,.74v21.11c-.04,.28-1.58,.98-2.66,.98h-.49v-2.7h-6.2v2.7c0,.35-1.19,1.12-2.52,1.12h-.53v-26.25l3.22,1.47h.63c.32-1.86,.74-4.55,.98-6.48l4.83,1.16c-.17,.56-.63,.8-1.4,.8-.84,1.33-2.06,3.12-3.04,4.52h3.68l1.61-1.82,3.36,2.66Zm-10.82,.17v8.72h6.2v-8.72h-6.2Zm6.2,18.94v-9.21h-6.2v9.21h6.2Zm21.7-19.11c-.28,.32-.7,.53-1.5,.63-.25,13.58-.8,20.62-2.59,22.65-1.12,1.29-2.63,1.82-4.66,1.82,0-1.09-.17-1.92-.73-2.42-.6-.56-2-1.05-3.61-1.33l.04-.56c1.64,.17,4.09,.35,4.93,.35,.7,0,.98-.11,1.37-.46,1.3-1.26,1.72-8.61,1.96-20.58h-7.35c-1.61,2.91-3.5,5.46-5.6,7.35l-.49-.32c2.06-3.54,4.09-9.1,5.15-14.46l4.66,1.37c-.14,.42-.56,.73-1.33,.73-.53,1.51-1.16,2.94-1.86,4.31h6.44l1.89-2,3.29,2.91Zm-14.98,6.27c9.45,3.33,6.37,10.12,3.19,7.46-.28-2.42-1.96-5.36-3.5-7.25l.31-.21Z"/>
      <path class="cls-2" d="M288.1,75.33c-2.13,2.8-4.94,5.39-8.12,7.04l-.35-.35c3.08-2.7,5.81-7.46,7.04-11.62l4.97,.91c-.14,.42-.38,.56-1.33,.56-.42,.8-.95,1.64-1.5,2.45h16.63l2.03-2.52s2.24,1.65,3.71,2.98c-.1,.38-.45,.56-.98,.56h-22.09Zm3.61,9.87c-.17,.38-.49,.56-1.33,.45-1.82,2.7-5.25,5.74-9.21,7.53l-.35-.46c3.15-2.38,5.91-6.3,7.14-9.31l3.75,1.79Zm5.74,4.24l3.01,2.49c-.28,.28-.66,.45-1.37,.53-.28,5.78-.87,8.4-2.24,9.45-.87,.67-2.03,.98-3.36,.98,0-.84-.07-1.61-.49-2-.42-.38-1.26-.74-2.24-.95v-.52c.95,.07,2.52,.17,3.12,.17,.49,0,.77-.04,1.02-.28,.63-.53,1.01-2.8,1.29-7.28h-4.45c-.53,4.24-2.17,8.16-10.4,10.89l-.42-.53c6.44-3.08,7.39-6.69,7.63-10.36h-3.4l-.28-.98h10.99l1.58-1.61Zm14.28,10.22c.8,1.33,.98,2.21,.49,2.73-1.08,1.05-2.91,.21-4.06-1.01-3.92-3.29-4.9-11.03-5.08-18.8h-20.16l-.31-1.02h20.09l1.68-1.85,3.36,2.73c-.21,.25-.73,.49-1.43,.6-.11,5.46,.74,13.02,3.57,15.26,.35,.28,.56,.25,.7-.18,.42-.98,.8-2.13,1.12-3.33l.42,.07-.38,4.8Zm-8.68-21.7l1.93-2.34s2.17,1.61,3.54,2.8c-.07,.39-.46,.56-.95,.56h-20.2l-.28-1.02h15.96Zm-8.51,5.67c10.68,3.85,9.17,10.05,6.06,8.23-1.08-2.52-4.16-5.92-6.44-7.91l.38-.32Z"/>
      <path class="cls-2" d="M347.99,73.62c-.25,.31-.77,.56-1.5,.74v27.2c-.04,.28-1.58,1.12-2.8,1.12h-.52v-2.41h-21.53v1.43c0,.42-1.26,1.26-2.7,1.26h-.56v-31.78l3.57,1.58h20.86l1.72-1.93,3.46,2.8Zm-4.83,25.62v-25.48h-21.53v25.48h21.53Zm-2.66-19.88s1.37,1.05,2.24,1.89c-.11,.38-.42,.56-.87,.56h-19.29l-.28-1.01h5.88c.21-.7,.46-1.58,.7-2.49h-4.34l-.32-1.02h4.94c.28-.98,.53-1.96,.74-2.83l3.82,.63c-.07,.46-.56,.81-1.3,.84l-.35,1.36h3.71l1.37-1.36,2.73,2.06c-.14,.21-.56,.42-1.09,.53v2.28h.53l1.19-1.44Zm-.67,13.34s1.61,1.26,2.59,2.24c-.1,.38-.42,.56-.87,.56h-7.49v2.35c0,.14-.91,.7-2.38,.7h-.49v-3.05h-4.06l-1.15,1.23-2.7-1.93c.35-.25,.84-.49,1.29-.67,.31-.95,.63-2,.84-2.83h-1.86l-.28-1.02h7.91v-2.38h-3.08v.53c0,.21-1.26,.8-2.38,.8h-.39v-6.93l2.94,1.23h8.44l1.37-1.37,2.83,2.1c-.17,.21-.59,.46-1.08,.56v3.04c-.04,.25-1.44,.81-2.35,.81h-.49v-.77h-2.94v2.38h3.08l1.29-1.61s1.54,1.15,2.45,2.06c-.07,.39-.38,.56-.87,.56h-5.95v3.19h4.38l1.4-1.79Zm-8.65,1.79v-3.19h-3.01c-.28,.98-.67,2.17-.98,3.19h3.99Zm-3.08-7.6h8.89v-2.35h-8.89v2.35Zm3.68-8.58c-.25,.91-.53,1.75-.74,2.49h5.01v-2.49h-4.27Z"/>
      <path class="cls-2" d="M355.59,86.71c0-2.73,2.24-4.94,4.97-4.94s4.94,2.21,4.94,4.94-2.21,4.97-4.94,4.97-4.97-2.24-4.97-4.97Zm1.26,0c0,2.03,1.65,3.71,3.71,3.71s3.67-1.68,3.67-3.71-1.64-3.67-3.67-3.67-3.71,1.64-3.71,3.67Z"/>
      <path class="cls-2" d="M400.64,71.55s2.52,1.82,3.99,3.15c-.07,.38-.46,.56-.95,.56h-13.44c-1.19,1.89-2.66,4.03-3.99,5.57h12.01l1.58-1.82,3.54,2.73c-.25,.24-.77,.59-1.5,.7v16.24c0,2.45-.46,3.89-4.1,4.24-.07-1.09-.21-1.92-.59-2.49-.38-.53-1.02-.95-2.24-1.12v-.53s2.34,.18,3.01,.18c.53,0,.66-.21,.66-.67v-16.45h-4.87v18.55c0,.21-.98,.88-2.55,.88h-.56v-19.43h-4.8v19.11c0,.21-.98,.84-2.55,.84h-.53v-19.95h-4.73v19.92c0,.35-1.33,1.12-2.7,1.12h-.52v-23.52l3.54,1.47h6.72c.28-1.58,.59-3.78,.8-5.57h-13.3l-.32-1.01h26.25l2.13-2.7Z"/>
      <path class="cls-2" d="M441.32,76.98c-.25,.31-.63,.38-1.37,.42-1.08,1.22-3.01,2.91-4.55,3.85l-.35-.25c.35-1.19,.81-2.91,1.08-4.31h-5.53v4.9c0,.95,.04,.95,1.08,.95h5.5c.25,0,.59,0,.98-.14h.32l.17,.03c1.16,.42,1.33,.63,1.33,1.12,0,1.26-.77,1.82-4.03,1.82h-4.69c-3.57,0-3.92-.38-3.92-3.75v-4.94h-13.02c.28,2.59-.63,4.34-1.82,5.08-1.08,.7-2.52,.53-2.98-.59-.38-1.05,.28-1.92,1.19-2.42,1.33-.81,2.52-2.91,2.24-5.18l.53-.04c.31,.74,.52,1.47,.7,2.14h10.85c-.35-.07-.77-.28-1.16-.6-.07-1.68-.98-3.61-1.96-4.79l.32-.18c6.62,1.09,5.81,5.11,3.6,5.57h10.12l1.93-1.96,3.43,3.26Zm-16.77,2.07c-.14,.42-.52,.66-1.58,.66-2.34,3.75-5.88,6.51-12.43,7.53l-.25-.42c5.85-2.49,8.65-5.92,9.87-9.94l4.37,2.17Zm11.94,18.59s2.28,1.79,3.61,3.12c-.11,.38-.46,.56-.98,.56h-28.35l-.32-1.01h12.78v-10.92h-8.58l-.28-1.02h16.7l1.93-2.45s2.1,1.68,3.36,2.91c-.07,.38-.46,.56-.95,.56h-8.75v10.92h7.81l2.03-2.66Z"/>
      <path class="cls-2" d="M450.63,82.76v18.97c0,.46-1.19,1.26-2.73,1.26h-.56v-31.5l3.43,1.51h5.67l1.47-1.61,3.25,2.42c-.21,.25-.7,.53-1.33,.63v9.28c-.04,.21-1.58,.88-2.59,.88h-.49v-1.82h-6.13Zm0-8.75v3.36h6.13v-3.36h-6.13Zm6.13,7.77v-3.46h-6.13v3.46h6.13Zm11.48,16.77c-.04,.28-1.58,.98-2.62,.98h-.49v-2h-7.11v1.4c0,.31-1.29,.98-2.59,.98h-.46v-14.46l3.19,1.37h6.62l1.54-1.65,3.22,2.41c-.21,.28-.7,.56-1.29,.67v10.29Zm-10.22-10.75v3.78h7.11v-3.78h-7.11Zm7.11,8.75v-3.99h-7.11v3.99h7.11Zm12.32-22.72c-.25,.28-.77,.59-1.44,.74v24.22c0,2.42-.49,3.82-4.45,4.17-.11-1.02-.28-1.86-.7-2.38-.53-.49-1.26-.88-2.83-1.16v-.53s3.22,.25,3.88,.25,.77-.25,.77-.74v-15.65h-6.37v.7c0,.31-1.37,1.05-2.7,1.05h-.45v-12.88l3.33,1.37h5.85l1.57-1.86,3.54,2.7Zm-11.13,.17v3.36h6.37v-3.36h-6.37Zm6.37,7.77v-3.46h-6.37v3.46h6.37Z"/>
      <path class="cls-2" d="M490.89,84.58c-.14,.32-.45,.53-1.08,.63v16.73c-.04,.28-1.33,1.05-2.62,1.05h-.59v-16.1c-1.37,1.26-2.87,2.49-4.41,3.5l-.35-.38c3.19-3.57,6.34-9,7.7-12.64l4.34,2.14c-.21,.35-.49,.56-1.33,.46-.84,1.22-1.92,2.62-3.19,4.03l1.54,.59Zm2.42-11.83c-.21,.31-.49,.52-1.37,.38-2.14,2.31-5.78,5.36-9.42,7.39l-.39-.38c2.7-2.73,5.64-6.97,6.97-9.66l4.2,2.28Zm12.01,26.04c1.37,.21,2.91,.32,4.62,.32,1.23,0,3.82,0,5.29-.04v.46c-1.05,.21-1.58,1.4-1.58,2.84h-3.96c-6.65,0-10.47-1.79-12.64-8.51-1.16,3.46-3.08,6.75-6.3,9.1l-.32-.35c3.47-4.51,4.55-11.48,4.55-17.08l4.76,.77c-.11,.53-.49,.84-1.29,.91-.21,1.79-.53,3.64-1.05,5.5,1.12,2.52,2.63,4.13,4.66,5.11v-14.14l-.07,.04-.35-.38c2.7-3.5,4.55-8.96,5.22-12.81l4.76,1.5c-.14,.38-.42,.63-1.26,.63-.49,1.19-1.12,2.45-1.89,3.75,8.47,2.21,6.34,8.09,3.22,6.2-.59-1.79-2.24-3.82-3.75-5.32-1.43,2.24-3.25,4.41-5.43,6.06l4.03,.45c-.1,.46-.38,.81-1.22,.95v5.04h3.43l1.89-2.35s2.14,1.61,3.4,2.8c-.11,.38-.45,.56-.91,.56h-7.81v8.02Zm-13.34-14.56c2.84-3.78,4.62-9.59,5.29-13.72l4.79,1.5c-.14,.38-.42,.63-1.29,.63-.42,1.12-.95,2.31-1.58,3.57,6.51,1.89,3.92,6.65,1.26,4.69-.25-1.22-1.02-2.55-1.86-3.64-1.54,2.73-3.61,5.42-6.27,7.35l-.35-.39Z"/>
      <path class="cls-2" d="M545.36,81.08c-.35,.28-.84,.38-1.82,.45-1.47,1.89-3.54,3.68-5.92,5.29,4.1,1.82,9,2.84,13.9,3.36l-.04,.42c-1.43,.32-2.41,1.4-2.76,3.01-1.37-.28-2.63-.6-3.92-.95l.63,.46c-.21,.25-.67,.49-1.29,.63v8.05c-.04,.25-1.68,.88-2.76,.88h-.56v-2.17h-11.27v1.33c0,.25-1.05,1.01-2.66,1.01h-.59v-10.5c-2.38,.81-4.83,1.51-7.28,2l-.24-.46c5.36-1.64,10.54-4.24,14.6-7.25-1.33-1.23-2.52-2.66-3.5-4.27-2.73,2.55-5.85,4.38-8.93,5.6l-.35-.46c3.47-2.28,7.28-6.55,9.63-11.38h-6.12c.17,2.42-.74,4.06-1.89,4.79-.98,.67-2.45,.56-2.91-.52-.35-1.02,.28-1.89,1.19-2.38,1.26-.67,2.59-2.59,2.49-4.69l.52-.04c.21,.63,.39,1.26,.49,1.82h11.34c-.32-.04-.66-.17-.98-.38-.25-1.5-1.4-3.19-2.56-4.1l.28-.25c6.62,.07,6.09,4.34,3.92,4.73h10.12l1.79-1.86,3.25,3.12c-.28,.28-.66,.39-1.33,.42-1.02,1.15-2.7,2.83-4.03,3.82l-.38-.25c.31-1.16,.7-2.87,.94-4.24h-15.79l4.06,1.92c-.17,.38-.7,.63-1.47,.49-.31,.42-.63,.84-.91,1.22h7.39l2.31-2,3.43,3.29Zm-4.1,10.36c-2.17-.84-4.16-1.89-5.92-3.19-2.21,1.26-4.55,2.38-7.07,3.36l1.71,.67h10.47l.8-.84Zm-.46,8.05v-6.2h-11.27v6.2h11.27Zm-9.42-18.69c-.31,.35-.63,.66-.95,.98,1.23,1.4,2.73,2.66,4.48,3.71,1.86-1.54,3.36-3.08,4.48-4.69h-8.02Z"/>
      <path class="cls-2" d="M570.63,78.24v23.56c0,.17-.88,.8-2.21,.8h-.49v-13.72h-6.86l-.31-1.02h1.82v-9.63h-1.37l-.28-1.01h8.37l1.4-1.79h-10.19v8.4c0,5.81-.14,13.69-4.87,19.11l-.49-.32c2.34-5.57,2.38-12.57,2.38-18.8v-10.78l3.5,1.37h11.69c-.1-.04-.17-.07-.28-.14-.42-1.33-1.68-2.87-2.73-3.78l.31-.25c5.74,.14,5.92,3.36,4.31,4.17h8.12l1.89-2.52s2.21,1.75,3.47,2.98c-.11,.38-.38,.56-.91,.56h-16.07c.35,.28,1.68,1.4,2.52,2.24-.07,.38-.42,.56-.84,.56h-1.89Zm-10.22,13.58c1.86-.63,4.41-1.93,5.57-2.63l1.96,2.45c-.21,.18-.56,.18-.95-.07-.49,.1-1.19,.21-1.93,.31v2.52l.91-1.23s1.16,1.02,1.86,1.82c-.07,.35-.35,.53-.8,.53h-1.96v2.59l2.63-.35,.07,.53c-1.33,.67-3.39,1.64-6.23,2.8-.17,.45-.49,.7-.84,.77l-1.33-3.12c.77-.04,2.03-.18,3.5-.35v-2.87h-2.07l-.28-1.01h2.34v-2.38c-.77,.07-1.58,.14-2.31,.14l-.14-.46Zm7.53-13.58h-2.87v2.45h2.87v-2.45Zm0,3.47h-2.87v2.59h2.87v-2.59Zm0,6.16v-2.55h-2.87v2.55h2.87Zm5.6,5.92c1.12,2.94,.63,5.08-.35,5.95-.66,.6-1.89,.67-2.34-.17-.32-.77,.1-1.54,.87-2,.8-.63,1.47-2.35,1.22-3.78h.6Zm12.85-5.32c-.04,.14-.52,.38-1.12,.56,.56,.42,1.79,1.33,2.63,2.1-.07,.38-.42,.56-.88,.56h-15.68l-.28-1.01h12.32l1.29-1.47c-.17,.04-.35,.04-.49,.04h-.46v-.67h-8.89v.42c0,.21-1.09,.74-2.1,.74h-.35v-8.68l2.62,1.12h2.66v-2.38h-5.64l-.28-1.01h5.92v-3.05l4.1,.39c-.07,.49-.38,.8-1.23,.94v1.72h2.52l1.61-2.1s1.79,1.47,2.91,2.56c-.11,.38-.42,.56-.91,.56h-6.13v2.38h2.91l1.33-1.33,2.77,2.06c-.14,.25-.59,.49-1.16,.6v4.97Zm-2.34,10.92c.77,.25,.95,.52,.95,1.01,0,1.08-1.02,1.58-4.97,1.58h-2.52c-2.35,0-2.7-.56-2.7-2.24v-6.93l3.5,.38c-.07,.42-.42,.74-1.01,.84v5.11c0,.38,.1,.49,.87,.49h2.03c.87,0,1.61-.04,1.89-.04,.25,0,.42-.07,.56-.25,.25-.35,.59-1.4,.87-2.56h.42l.11,2.59Zm-9.21-11.83h1.61v-4.38h-1.61v4.38Zm3.5-4.38v4.38h1.86v-4.38h-1.86Zm.56,8.75c5.91,2.62,3.08,7.11,1.05,5.01,.14-1.61-.63-3.57-1.47-4.76l.42-.25Zm4.83-4.38v-4.38h-1.71v4.38h1.71Zm0,5.53c6.41,3.19,3.71,7.88,1.5,5.78-.03-1.86-.98-4.13-1.92-5.57l.42-.21Z"/>
      <path class="cls-2" d="M617.33,85.1l2.59-3.54s2.94,2.45,4.73,4.13c-.1,.42-.53,.56-1.08,.56h-30.98l-.35-1.15h25.1Z"/>
      <path class="cls-2" d="M637.63,96.72c1.75-.39,3.61-.84,5.46-1.3l.11,.49c-2.87,1.4-7,3.33-12.67,5.71-.14,.42-.46,.77-.84,.84l-1.5-3.71c.53-.11,1.22-.21,2.07-.39v-12.46l3.57,.35c-.07,.39-.32,.67-.95,.74v10.82l1.82-.42v-14.95h-1.47v.67c0,.21-.94,.91-2.49,.91h-.49v-12.39l3.43,1.33h4.34l1.47-1.58,3.22,2.42c-.21,.25-.7,.53-1.4,.67v8.3c-.04,.21-1.5,.77-2.45,.77h-.49v-1.09h-.73v5.57h.87l1.61-2.38s1.89,1.68,2.94,2.84c-.1,.38-.42,.56-.91,.56h-4.52v7.7Zm-4.41-15.3h5.15v-7.46h-5.15v7.46Zm25.69-5.57c-.28,.35-.63,.46-1.47,.52-1.16,2.56-2.7,4.97-4.66,7.11,2.38,1.68,5.32,2.94,8.93,3.78l-.07,.35c-1.33,.42-2.1,1.33-2.34,2.94-1.05-.42-2.07-.84-2.98-1.33l2.49,1.89c-.25,.28-.56,.49-1.33,.59v10.4c0,.17-1.08,.77-2.7,.77h-.59v-2.42h-7.25v1.71c0,.25-.98,.81-2.59,.81h-.53v-13.13c-1.19,.56-2.45,1.05-3.82,1.47l-.25-.49c3.96-1.86,7.28-4.45,9.84-7.49-1.01-1.4-1.85-2.94-2.59-4.59-1.54,1.92-3.29,3.5-5.22,4.69l-.42-.35c2.59-2.91,4.97-7.6,6.2-12.67l4.41,1.47c-.18,.42-.6,.74-1.37,.7-.32,.81-.7,1.54-1.08,2.28h4.41l1.86-1.82,3.12,2.8Zm-3.36,12.92c-1.79-1.05-3.22-2.24-4.48-3.61-1.82,1.61-3.92,3.08-6.37,4.27l2.66,1.05h6.72l1.47-1.71Zm-1.37,10.68v-7.95h-7.25v7.95h7.25Zm-5.22-23.56c-.42,.73-.87,1.43-1.37,2.1,.84,1.44,1.89,2.73,3.15,3.89,1.37-1.89,2.45-3.89,3.22-5.99h-5.01Z"/>
      <path class="cls-2" d="M678.38,85c-.25,.32-.56,.46-1.33,.53-.59,3.64-1.61,7.21-3.57,10.4,3.78,2.21,8.93,2.66,16.1,2.66,1.89,0,6.2,0,8.44-.03v.45c-1.37,.24-2,1.4-2.1,2.73h-6.62c-7.88,0-13.23-.8-17.05-4.03-1.58,2-3.64,3.75-6.34,5.18l-.32-.49c2.24-1.71,3.96-3.78,5.22-6.16-1.79-2.1-3.19-4.9-4.27-8.72l.42-.21c1.19,3.25,2.7,5.57,4.62,7.25,1.29-2.91,2-6.16,2.38-9.45h-3.08l-1.12,1.12-2.87-2c.31-.24,.77-.46,1.26-.63,1.19-2.38,2.91-6.2,3.78-8.68h-5.91l-.32-1.01h6.2l1.54-1.58,3.12,2.8c-.25,.32-.88,.46-1.58,.53-.95,2.21-2.66,5.99-3.85,8.44h2.59l1.68-1.68,2.97,2.59Zm7.6-9.66c-2.77,.32-5.71,.6-8.51,.7l-.1-.56c5.67-.98,12.46-3.19,15.93-4.97l3.43,3.19c-.35,.31-1.02,.35-2.03-.04-1.58,.42-3.47,.8-5.53,1.19v7.95h2.31l1.75-2.62s2.1,1.82,3.26,3.08c-.07,.38-.45,.56-.95,.56h-6.37v10.36h3.43l1.82-2.52s2.07,1.75,3.19,2.98c-.07,.38-.42,.56-.91,.56h-20.2l-.28-1.02h2.8v-14.46l4.3,.46c-.1,.52-.42,.84-1.29,.98v13.02h3.96v-18.83Z"/>
      <path class="cls-2" d="M713.84,71.97c-.14,.42-.56,.66-1.33,.66-.95,2.45-2,4.76-3.15,6.9l1.4,.53c-.1,.35-.42,.56-1.08,.67v21.25c-.04,.25-1.4,1.02-2.7,1.02h-.63v-18.59c-1.33,1.82-2.73,3.43-4.24,4.83l-.45-.31c2.8-4.48,5.78-11.62,7.35-18.45l4.83,1.5Zm20.76,5.64c-.25,.25-.77,.56-1.44,.7v15.4c-.03,.28-1.64,1.09-2.83,1.09h-.53v-2.31h-5.25v9.24c0,.42-1.4,1.23-2.7,1.23h-.63v-10.47h-5.11v1.43c0,.38-1.37,1.16-2.8,1.16h-.46v-19.81l3.47,1.51h4.9v-6.09l4.62,.49c-.1,.49-.35,.84-1.29,.98v4.62h4.9l1.68-1.86,3.46,2.7Zm-18.48,.14v6.2h5.11v-6.2h-5.11Zm5.11,13.72v-6.51h-5.11v6.51h5.11Zm3.33-13.72v6.2h5.25v-6.2h-5.25Zm5.25,13.72v-6.51h-5.25v6.51h5.25Z"/>
      <path class="cls-2" d="M767.15,97.39s2.52,1.85,4.06,3.22c-.1,.39-.45,.56-.98,.56h-31.12l-.32-1.02h14.32v-7.91h-10.71l-.28-1.02h10.99v-5.85l4.73,.42c-.07,.49-.35,.84-1.26,1.02v4.41h5.6l2.17-2.7s2.45,1.82,3.96,3.15c-.07,.38-.46,.56-.98,.56h-10.75v7.91h8.33l2.24-2.76Zm-27.23-22.89l-.28-1.02h24.54l2.17-2.66s2.49,1.79,3.99,3.12c-.1,.39-.49,.56-.98,.56h-16.28l3.71,1.96c-.18,.32-.66,.56-1.4,.42-2.31,1.89-6.48,4.2-10.19,5.85,4.38-.17,10.99-.56,18.03-1.05-1.61-1.68-3.43-3.29-5.01-4.48l.35-.32c13.2,3.47,11.69,11.41,7.91,9.35-.56-1.19-1.47-2.49-2.52-3.71-4.9,.95-11.8,2.1-20.09,3.33-.28,.42-.59,.7-.91,.84l-1.64-3.99s.84-.14,1.22-.28c3.33-1.44,7.91-5.53,9.8-7.91h-12.43Z"/>
      <path class="cls-2" d="M28.95,128.55c0,5.88-.28,13.58-5.74,18.76l-.45-.28c2.98-5.43,3.19-12.22,3.19-18.48v-10.85l3.57,1.37h11.1c-.11-.04-.25-.1-.35-.17-.46-1.47-1.85-3.19-3.01-4.2l.32-.25c6.09,.38,6.2,3.82,4.59,4.62h7.95l1.92-2.52s2.17,1.75,3.47,2.97c-.07,.39-.46,.56-.95,.56H28.95v8.47Zm15.23,13.44c-2.87,1.08-7,2.41-12.99,4.2-.21,.46-.52,.7-.88,.81l-1.89-3.54c1.72-.14,4.8-.49,8.44-.98,.49-1.5,.98-3.54,1.26-4.97l3.78,1.12c-.14,.42-.56,.7-1.33,.67-.59,.91-1.54,2.03-2.52,3.01,1.93-.25,3.96-.53,6.02-.84l.1,.53Zm9.28-17.12s1.64,1.65,2.55,2.77c-.07,.38-.42,.56-.91,.56h-3.18v15.16c0,2.28-.46,3.57-4.27,3.92-.07-.91-.25-1.64-.81-2.1-.49-.49-1.29-.81-2.94-1.08v-.49s3.54,.25,4.27,.25c.6,0,.77-.18,.77-.67v-14.98h-5.53c-.07,.38-.38,.56-.91,.52h-12.36l-.28-1.01h4.66v-2.94h-4.76l-.28-1.02h5.04v-3.04l4.13,.38c-.07,.46-.32,.77-1.16,.91v1.75h1.96l1.58-1.96s1.82,1.4,2.94,2.41c-.1,.39-.42,.56-.91,.56h-5.57v2.94h1.54l1.51-2.03s1.65,1.3,2.7,2.34l-.21-.84h5.92v-6.2l4.24,.46c-.07,.49-.42,.8-1.26,.91v4.83h.1l1.44-2.31Zm-14.74,12.64v-1.12h-5.57v.53c0,.21-1.19,.8-2.21,.8h-.38v-7.77l2.77,1.19h5.08l1.37-1.47,2.98,2.24c-.21,.21-.66,.49-1.26,.59v4.24c-.03,.21-1.4,.77-2.31,.77h-.46Zm-6.93,.11c5.92,2.41,2.77,6.65,.7,4.45,.07-1.44-.49-3.15-1.12-4.27l.42-.17Zm6.93-2.24v-3.22h-5.57v3.22h5.57Zm4.66-5.32c6.93,4.52,3.85,9.84,1.37,7.28,0-2.28-.94-5.15-1.79-7.11l.42-.17Z"/>
      <path class="cls-2" d="M67.91,127.46c0,6.2-.45,14.25-7,19.6l-.46-.31c3.78-5.64,4.2-12.71,4.2-19.29v-10.43l3.08,1.19c6.72-.77,14.91-2.24,19.36-3.54l3.25,3.33c-.38,.32-1.12,.32-2.13-.1-5.32,.63-13.34,1.08-20.3,1.05v2.42h18.13l1.58-1.71,3.47,2.55c-.21,.28-.7,.56-1.37,.7v4.94c-.04,.25-1.68,.91-2.8,.91h-.56v-1.37h-18.45v.07Zm20.97,2.49s2.06,1.58,3.36,2.76c-.11,.39-.49,.56-.95,.56h-13.16c-.11,1.19-.28,2.31-.56,3.46h7.56l1.75-1.64,3.19,2.62c-.21,.28-.67,.46-1.37,.53-.38,4.09-1.19,6.79-2.66,7.74-.98,.63-2.28,.98-3.92,.98,0-.91-.14-1.75-.63-2.21-.53-.49-1.79-.91-3.19-1.12v-.49c1.4,.1,3.75,.28,4.45,.28,.59,0,.91-.07,1.19-.25,.63-.49,1.15-2.52,1.47-5.43h-8.16c-1.15,3.61-3.95,6.93-10.92,9.42l-.35-.53c7.49-4.03,8.23-8.75,8.4-13.37h-5.53l-.28-1.02h11.27c-.28-.03-.59-.14-.91-.35-.32-1.29-1.33-2.8-2.13-3.68l.31-.21c5.95,.39,5.29,3.96,3.29,4.24h6.65l1.82-2.31Zm-20.97-7.56v3.99h18.45v-3.99h-18.45Z"/>
      <path class="cls-2" d="M102.81,134.57c2.07-1.19,3.01-2.7,3.46-4.52-1.82-.8-2.97-1.68-2.97-3.18,0-1.26,.88-2.35,2.42-2.35s2.66,1.16,2.66,3.33c0,2.66-1.26,6.06-4.97,7.84l-.59-1.12Z"/>
      <path class="cls-2" d="M150.42,132.43c-.28,.35-.84,.46-1.75,.49-5.71,8.47-14.42,12.67-28.98,14.21l-.17-.53c11.87-2.7,20.06-6.62,25.13-14.39h-8.68c-1.33,.88-2.73,1.75-4.24,2.55,7.6,.98,6.09,6.79,2.84,5.25-.63-1.68-2.49-3.43-4.2-4.55-2.73,1.33-5.71,2.49-8.86,3.29l-.21-.46c6.65-2.8,12.57-7.46,15.58-11.34-4.66,2.91-10.54,4.94-17.96,6.09l-.28-.53c9.7-2.76,16.94-6.72,21.67-12.78h-8.3c-1.05,.74-2.17,1.44-3.36,2.1,6.51,.49,5.5,5.39,2.56,4.34-.7-1.26-2.35-2.7-3.89-3.64-2.35,1.22-4.94,2.28-7.63,3.04l-.25-.42c5.57-2.7,10.78-7.18,13.2-10.61l5.15,1.33c-.17,.42-.63,.67-1.75,.63-.77,.73-1.65,1.47-2.62,2.21h7.32l1.92-1.82,3.5,3.01c-.28,.32-.84,.42-1.75,.49-1.96,2.38-4.27,4.48-7.04,6.23l5.04,1.23c-.18,.42-.67,.66-1.75,.63-.98,.91-2.1,1.82-3.33,2.73h7.6l1.96-1.86,3.54,3.05Z"/>
      <path class="cls-2" d="M172.86,135.79c-3.36,2-8.02,4.66-14.67,7.7-.14,.42-.46,.81-.84,.95l-1.92-3.95c1.16-.25,2.91-.7,4.97-1.3l-.35-22.61,4.62,.35c-.04,.49-.32,.88-1.26,1.01l.32,20.27c2.8-.88,5.95-1.86,9-2.87l.14,.45Zm13.23-18.62c-.07,.52-.49,.95-1.33,1.01-.32,7.46-.84,13.76-4.48,18.83,10.75,4.62,8.61,11.66,4.9,9.35-1.01-2.62-3.43-5.81-5.67-8.3-3.04,3.67-7.88,6.72-15.75,9.14l-.32-.6c16.38-7.35,17.4-16.38,17.68-29.93l4.97,.49Zm-18.38,3.43c10.82,3.57,8.26,10.71,4.73,8.23-.74-2.63-3.15-5.88-5.08-8.02l.35-.21Z"/>
      <path class="cls-2" d="M193.55,123.05c8.19,1.09,5.74,6.93,2.73,4.93-.38-1.68-1.82-3.57-3.05-4.69l.31-.24Zm32.27-4.59c-.21,.28-.59,.35-1.29,.38-1.01,.98-2.83,2.56-3.96,3.43l-.39-.21c.21-.95,.56-2.59,.84-3.85h-14.91c.53,5.57-3.22,5.88-3.92,4.24-.98,4.03-2.77,11.13-3.12,12.74-.21,1.09-.35,2.24-.35,3.12,.07,1.72,1.33,3.19,1.19,6.23-.07,1.64-1.05,2.7-2.49,2.7-.7,0-1.37-.56-1.54-1.79,.56-3.57,.42-6.72-.35-7.25-.46-.35-.98-.46-1.71-.53v-.74h1.5c.42,0,.6,0,.91-.73q.63-1.23,5.43-14.11l.46,.07c-.07-.42,.07-.98,.53-1.58,1.29-.8,2.2-2.48,2.34-5.42h.53c.21,.73,.35,1.4,.46,2.03h14.88l1.82-1.82,3.15,3.08Zm-29.93-3.4c8.51,1.65,5.74,7.53,2.73,5.29-.39-1.75-1.82-3.78-3.05-5.04l.32-.25Zm18.69,18.45c2.42,3.99,6.79,7.25,10.75,8.82l-.07,.39c-1.33,.25-2.35,1.29-2.8,2.97-3.57-2.42-6.41-6.3-8.26-11.24v11.76c0,.35-1.43,.98-2.62,.98h-.63v-9.87c-2.49,3.5-6.02,6.37-10.15,8.58l-.38-.49c3.85-3.05,7-7.53,8.79-11.9h-7.11l-.28-1.02h9.14v-4.52l4.48,.46c-.11,.46-.35,.81-1.23,.91v3.15h5.46l1.89-2.55s2.24,1.75,3.57,3.01c-.1,.39-.45,.56-.94,.56h-9.59Zm-1.89-13.93c-.07,.38-.35,.74-1.09,.84-.32,3.68-.81,7.21-8.47,9.56l-.42-.53c5.67-2.73,5.71-6.23,5.81-10.26l4.17,.38Zm6.51,.17c-.04,.42-.39,.7-.98,.81v4.66c0,.42,.07,.52,.74,.52h3.15c.21,0,.49-.03,.63-.07,.21,0,.53-.07,.74-.14h.31l.14,.04c.8,.32,1.09,.56,1.09,1.12,0,1.12-1.09,1.54-4.76,1.54h-2.17c-2.38,0-2.7-.63-2.7-2.42v-6.44l3.82,.38Z"/>
      <path class="cls-2" d="M261.25,142.48c1.5,.42,2,.63,2,1.33,0,1.58-1.47,2.59-7.98,2.59h-13.13c-4.69,0-6.9-1.12-6.9-4.9v-14.95c-1.44,1.22-2.94,2.31-4.48,3.19l-.35-.35c3.99-3.46,7.91-9.7,9.77-14.91l4.87,1.26c-.14,.38-.46,.56-1.37,.49-.46,.84-.98,1.68-1.54,2.52h6.76l1.92-1.89,3.33,2.94c-.28,.28-.7,.35-1.4,.42-1.4,1.4-3.54,3.4-5.53,4.66h8.05l1.68-1.85,3.57,2.73c-.25,.32-.81,.63-1.54,.77v9.35c-.04,.25-1.68,.91-2.77,.91h-.56v-2.31h-17.15v7.14c0,1.33,1.16,1.64,3.5,1.64h12.95c2.21,0,3.22-.14,3.85-.98,.59-.77,1.43-3.12,2-4.97h.42l.04,5.18Zm-19.85-22.72c-1.12,1.58-2.42,3.12-3.82,4.59l1.37,.52h7.39c.91-1.4,1.96-3.54,2.59-5.11h-7.53Zm-2.91,13.69h6.86v-7.56h-6.86v7.56Zm10.08-7.56v7.56h7.07v-7.56h-7.07Z"/>
      <path class="cls-2" d="M278.54,119.48s1.79,1.37,2.91,2.42c-.11,.38-.42,.56-.95,.56h-11.97l-.28-1.01h8.75l1.54-1.96Zm-2.49,6.37l1.47-1.82s1.58,1.29,2.59,2.28c-.07,.38-.42,.56-.87,.56h-9.45l-.28-1.02h6.55Zm-6.27,5.53l-.28-1.01h6.55l1.47-1.82s1.58,1.3,2.59,2.28c-.07,.38-.42,.56-.87,.56h-9.45Zm9.52,13.16c-.03,.28-1.43,.94-2.45,.94h-.46v-1.64h-3.75v2.06c0,.28-1.26,.95-2.45,.95h-.46v-13.34l3.05,1.29h3.25l1.47-1.58,3.12,2.38c-.21,.25-.7,.53-1.33,.67v8.26Zm-8.02-29.26c8.02,1.02,5.39,6.86,2.35,4.8-.35-1.58-1.61-3.47-2.66-4.62l.31-.17Zm5.11,27.55v-7h-3.75v7h3.75Zm24.33-24.68c-.21,.25-.77,.56-1.5,.7v24.33c0,2.24-.42,3.61-4.17,3.99-.1-.98-.28-1.75-.74-2.24-.52-.49-1.22-.88-2.76-1.08v-.53s3.19,.25,3.92,.25c.6,0,.74-.25,.74-.74v-13.51h-11.38l-.14-.53v.45c0,5.95-.1,13.06-4.94,17.92l-.46-.32c2.52-4.94,2.56-11.38,2.56-17.57v-13.34l3.36,1.33h10.64l1.47-1.79,3.4,2.66Zm-16.03,.14v4.83h4.38v-4.31l3.71,.42c-.07,.42-.35,.73-1.12,.88v3.01h1.61l1.29-1.86s.84,.74,1.65,1.51v-4.48h-11.52Zm4.38,10.01v-4.16h-4.31l-.07-.25v4.41h4.38Zm-.46,11.24v1.33c0,.21-1.05,.74-2.1,.74h-.35v-10.92l2.62,1.12h2.91l1.26-1.36,2.8,2.13c-.21,.25-.7,.53-1.29,.63v7.18c-.04,.25-1.29,.77-2.07,.77h-.38v-1.61h-3.4Zm0-6.72v5.7h3.4v-5.7h-3.4Zm5.88-6.48s.87,.8,1.71,1.61v-3.82h-4.55v4.16h1.47l1.37-1.96Z"/>
      <path class="cls-2" d="M324.33,123.93c2.94,7.14,8.61,13.02,14.25,15.82l-.14,.38c-1.37,.18-2.56,1.23-3.12,2.87-5.29-3.78-9.28-10.19-11.59-18.66v21.6c0,.39-1.47,1.26-2.77,1.26h-.66v-18.24c-3.12,5.95-7.88,11.06-14.14,14.74l-.38-.42c5.85-4.83,10.4-12.32,12.6-19.36h-11.8l-.31-1.02h14.04v-8.26l4.69,.49c-.07,.49-.32,.84-1.26,.98v6.79h8.26l2.21-2.76s2.49,1.89,3.99,3.22c-.07,.38-.46,.56-.98,.56h-12.88Z"/>
      <path class="cls-2" d="M371.34,129.84c-.28,.35-.67,.45-1.54,.53-1.54,3.57-3.64,6.69-6.51,9.31,3.64,2.03,7.98,3.36,12.71,4.13l-.07,.38c-1.5,.28-2.55,1.37-3.04,2.98-4.69-1.23-8.68-3.01-11.87-5.64-3.54,2.56-8.05,4.48-13.76,5.64l-.25-.49c4.94-1.61,9.03-3.92,12.22-6.83-2.45-2.59-4.34-5.88-5.57-10.12h-2.45c-.07,5.67-.84,12.74-7.46,17.4l-.42-.35c4.06-5.11,4.55-11.62,4.55-17.71v-9.59l3.89,1.47h6.55v-6.16l4.66,.46c-.07,.49-.38,.84-1.29,.98v4.73h7.7l1.89-1.96,3.36,3.22c-.21,.28-.59,.39-1.33,.42-1.16,1.23-3.33,3.12-4.76,4.13l-.38-.21c.38-1.19,.98-3.15,1.37-4.62h-7.84v6.79h4.34l2.07-1.92,3.26,3.05Zm-20.13-7.91v6.79h7.11v-6.79h-7.11Zm3.18,7.81c1.4,3.54,3.68,6.3,6.58,8.44,2.28-2.49,3.96-5.32,5.11-8.44h-11.69Z"/>
      <path class="cls-2" d="M393.57,128.48c-1.29,.84-2.87,1.89-4.8,3.08v11.34c0,2.38-.46,3.85-4.2,4.24-.07-1.08-.25-1.92-.7-2.45-.46-.56-1.16-.91-2.59-1.16v-.56s3.01,.25,3.67,.25c.56,0,.74-.18,.74-.67v-9.03c-.87,.52-1.82,1.08-2.8,1.64-.11,.46-.42,.84-.81,.98l-1.43-3.82c1.01-.28,2.8-.84,5.04-1.58v-6.83h-4.45l-.28-1.02h4.73v-8.26l4.38,.45c-.11,.49-.46,.84-1.3,.95v6.86h.7l1.58-2.34s1.82,1.64,2.84,2.8c-.11,.38-.46,.56-.91,.56h-4.2v5.81c1.51-.53,3.08-1.08,4.66-1.65l.14,.38Zm9.31-4.3c2.45,2.94,7.07,5.32,10.82,6.44l-.07,.38c-1.19,.25-2.03,1.19-2.38,2.7-3.46-1.89-6.76-5.01-8.75-8.93-2.62,3.67-6.65,7.56-11.87,9.73l-.31-.35c4.51-3.19,8.02-8.19,9.49-12.15l4.8,1.19c-.14,.42-.53,.63-1.51,.67l-.21,.32Zm-12.01-4.8h3.5l-.42-4.66,4.03,.77c-.1,.39-.38,.74-1.08,.88l.32,3.01h.66l1.43-1.89s1.61,1.33,2.59,2.35c-.11,.38-.42,.56-.91,.56h-3.68l.39,3.85c-.45,.56-1.51,.81-2.8,.77l-.42-4.62h-3.29l-.32-1.01Zm16.8,14.84l2.98,2.24c-.25,.28-.56,.52-1.3,.63v8.47c0,.17-1.05,.77-2.52,.77h-.53v-1.72h-9.52v1.58c0,.21-.95,.77-2.42,.77h-.52v-12.43l3.33,1.33h9.03l1.47-1.64Zm-2.87-4.52s1.96,1.54,3.12,2.66c-.11,.35-.42,.53-.91,.53h-10.92l-.28-.98h7.32l1.68-2.21Zm1.5,13.9v-6.72h-9.52v6.72h9.52Zm-4.13-24.22h3.22l.56-4.66,3.99,.95c-.07,.42-.38,.77-1.29,.77l-.35,2.94h.95l1.5-2.03s1.75,1.44,2.8,2.49c-.11,.38-.42,.56-.91,.56h-4.48l-.46,3.85c-.53,.46-1.68,.63-2.91,.39l.49-4.24h-2.84l-.28-1.01Z"/>
      <path class="cls-2" d="M432.57,114.93s2.07,1.61,3.26,2.8c-.11,.39-.38,.56-.91,.56h-5.18v5.04h.84l1.54-1.71,3.15,2.56c-.21,.28-.73,.56-1.43,.7v20.62c-.04,.28-1.44,.95-2.45,.95h-.46v-2.24h-8.47v1.86c0,.31-1.09,1.01-2.35,1.01h-.45v-25.06l2.98,1.33h.95v-5.04h-4.8l-.28-1.02h12.32l1.75-2.34Zm-1.64,28.25v-9.66c-.28,.04-.63,.04-1.02,.04h-.87c-1.43,0-1.68-.53-1.68-1.75v-7.45h-1.4v1.43c0,2.63-.25,6.58-3.47,9.28l-.03-.04v8.16h8.47Zm-8.47-18.83v9.63c1.58-2.73,1.61-5.78,1.61-8.19v-1.43h-1.61Zm5.71,11.1s1.33,1.12,2.17,2c-.1,.39-.42,.56-.87,.56h-5.95l-.28-1.02h3.75l1.19-1.54Zm-.8-17.15h-1.4v5.04h1.4v-5.04Zm1.96,6.06v6.76c0,.35,.07,.46,.32,.46h1.29v-7.21h-1.61Zm20.83,18.17c.98,.35,1.23,.73,1.23,1.33,0,1.37-1.44,2-7.18,2h-3.75c-3.19,0-3.96-.7-3.96-3.08v-17.12l3.54,1.4h5.67v-8.72h-8.93l-.32-1.02h8.86l1.64-1.82,3.54,2.7c-.25,.32-.87,.67-1.68,.84v11.41c-.04,.21-1.58,.84-2.59,.84h-.52v-3.22h-6.13v13.97c0,.63,.21,.88,1.5,.88h3.33c1.47,0,2.59-.04,3.04-.07,.46-.04,.63-.14,.8-.52,.35-.63,.84-2.7,1.37-5.01h.45l.07,5.22Z"/>
      <path class="cls-2" d="M485.6,136.95c-.25,.35-.56,.53-1.33,.32-1.43,.81-3.57,1.75-5.71,2.49,2.91,1.86,6.48,3.08,10.22,3.82l-.04,.42c-1.37,.28-2.34,1.29-2.77,2.91-6.27-2.17-10.85-5.74-13.2-12.22-1.22,1.12-2.62,2.13-4.27,3.01v5.15c1.72-.59,3.71-1.26,5.71-2l.17,.46c-1.58,1.12-4.58,3.36-8.05,5.6-.17,.35-.42,.59-.66,.74l-2.21-3.08c1.54-.91,1.79-1.23,1.79-1.82v-3.5c-2.8,1.12-5.92,2-9.21,2.63l-.25-.49c5.15-1.65,9.66-4.24,12.6-7.14h-12.08l-.28-1.02h16.1c-.31-.04-.63-.17-.98-.38-.21-.98-.91-2.17-1.61-3.01v.39c0,.31-1.4,.88-2.63,.88h-.56v-6.02h-3.71c-.35,2.76-1.51,5.42-5.67,7.25l-.46-.49c2.55-2.03,3.01-4.41,3.15-6.75h-2.7l-.32-1.02h9.7v-2.87h-4.48l-1.12,1.44-3.33-1.86c.31-.32,.84-.7,1.33-.95v-4.52l3.99,.42c-.07,.45-.38,.77-1.16,.88v3.57h4.76v-5.53l4.48,.46c-.07,.49-.38,.84-1.29,.95v12.95c5.71,.45,5.04,3.95,3.08,4.24h10.4l1.96-2.52s2.17,1.72,3.46,2.98c-.1,.38-.46,.56-.91,.56h-14.21c1.05,1.92,2.52,3.54,4.27,4.87,1.64-1.44,3.43-3.29,4.37-4.55l3.61,2.41Zm-8.68-16.66v-5.67l4.58,.42c-.07,.53-.35,.88-1.26,1.02v4.24h2.87l1.93-2.38s2.17,1.64,3.46,2.83c-.07,.38-.42,.56-.91,.56h-7.35v6.62h2.59l1.89-2.35s2.14,1.65,3.4,2.8c-.07,.38-.42,.56-.91,.56h-15.58l-.28-1.01h5.57v-6.62h-6.23l-.28-1.01h6.51Z"/>
      <path class="cls-2" d="M505.17,124.91l2.98,2.28c-.17,.21-.59,.46-1.16,.56v7.98c-.04,.28-1.5,.91-2.49,.91h-.49v-1.02h-5.36v6.62c1.47-.49,3.15-1.12,4.94-1.79-.49-1.16-1.05-2.24-1.61-3.08l.38-.18c8.02,3.71,5.04,9.56,2.28,7.04-.07-.95-.35-1.89-.7-2.91-1.75,1.19-4.17,2.87-6.79,4.55-.25,.52-.63,.84-.95,1.01l-1.71-3.36c1.01-.59,1.19-.84,1.19-1.54v-16.84c-.74,.74-1.51,1.4-2.24,2l-.39-.31c2.35-3.29,4.45-8.96,5.18-12.57l5.01,1.09c-.11,.45-.46,.7-1.37,.8,9.91,3.12,6.06,8.51,3.57,6.37-.53-1.61-1.89-3.96-3.82-5.85-.87,1.89-2.21,4.06-3.82,6.06h3.57l1.54-2s1.75,1.4,2.84,2.45c-.07,.38-.42,.56-.91,.56h-7.21l-.17-.59c-.53,.7-1.16,1.37-1.79,1.96l3.12,1.3h4.9l1.47-1.51Zm-6.51,5.46h5.36v-3.01h-5.36v3.01Zm5.36,4.24v-3.22h-5.36v3.22h5.36Zm14.39-13.06v4.83h2.91l1.44-1.61,3.25,2.41c-.21,.28-.73,.56-1.37,.7v11.48c0,2.2-.38,3.43-3.5,3.75,0-.91-.1-1.68-.38-2.17-.28-.45-.74-.77-1.68-.95v-.56s1.58,.14,2.07,.14c.42,0,.53-.17,.53-.56v-11.62h-3.26v18.8c0,.25-1.01,.98-2.42,.98h-.49v-19.78h-3.04v15.09c0,.21-.91,.91-2.31,.91h-.49v-17.75l.32-.46,2.91,1.19h2.62v-4.83h-2.94c-1.26,2.1-2.73,3.82-4.45,5.15l-.45-.35c1.75-2.84,3.29-7.21,3.92-11.66l4.62,1.33c-.17,.42-.59,.74-1.37,.74-.49,1.33-1.05,2.59-1.68,3.78h7.39l2.07-2.7s2.27,1.82,3.67,3.15c-.1,.38-.45,.56-.98,.56h-6.9Z"/>
      <path class="cls-2" d="M535.63,134.57c2.07-1.19,3.01-2.7,3.46-4.52-1.82-.8-2.97-1.68-2.97-3.18,0-1.26,.87-2.35,2.41-2.35s2.66,1.16,2.66,3.33c0,2.66-1.26,6.06-4.97,7.84l-.59-1.12Z"/>
      <path class="cls-2" d="M567.48,135.65l3.33,2.45c-.21,.28-.7,.6-1.37,.7v7.07c-.03,.21-1.64,.77-2.62,.77h-.49v-2.07h-7.42v1.65c0,.25-.98,.91-2.49,.91h-.52v-6.79c-.95,2.1-2.42,4.1-4.66,5.78l-.39-.39c3.36-4.62,3.75-10.36,3.75-15.23v-5.74c-1.16,.84-2.38,1.61-3.68,2.24l-.35-.32c3.78-3.19,7.11-8.47,8.51-12.15l4.83,1.12c-.14,.42-.49,.63-1.44,.7,11.59,2.45,8.33,8.86,5.53,6.9-.77-2.03-2.87-4.66-5.85-6.51-1.16,1.79-2.73,3.71-4.59,5.5h5.01l1.65-2.03s1.85,1.44,3.01,2.49c-.1,.38-.46,.56-.95,.56h-8.89l-.17-.7c-.74,.7-1.5,1.33-2.31,1.96l3.26,1.26h7.6l1.5-1.71,3.43,2.56c-.25,.25-.81,.56-1.47,.7v7.25c-.07,.21-1.64,.81-2.59,.81h-.53v-1.09h-8.68c-.07,.7-.17,1.4-.32,2.14l2.24,.84h6.62l1.5-1.61Zm-1.37-2.38v-2.73h-8.51c0,.84,0,1.75-.07,2.73h8.58Zm-8.51-6.48v2.73h8.51v-2.73h-8.51Zm8.72,16.77v-5.29h-7.42v5.29h7.42Zm9.24-4.66c0,.35-1.26,.98-2.38,.98h-.56v-22.23l4.17,.42c-.07,.46-.35,.8-1.23,.91v19.92Zm7.74-23.14c-.1,.49-.45,.84-1.26,.95v26.43c0,2.34-.49,3.71-4.37,4.1-.07-.98-.25-1.75-.74-2.28-.49-.53-1.29-.91-2.87-1.12v-.53s3.36,.25,4.09,.25c.56,0,.74-.21,.74-.7v-27.55l4.41,.46Z"/>
      <path class="cls-2" d="M601.05,132.08c-.25,.32-.6,.42-1.33,.46-.87,2.59-2.63,5.32-5.01,7.42,.17,.07,.35,.17,.56,.35,2.91,2.62,7.04,3.12,14.32,3.12,4.09,0,7.49-.04,11.69-.25v.46c-1.36,.28-2.17,1.4-2.34,2.73h-10.43c-7.35,0-10.57-1.22-13.65-4.94-.49-.56-.84-.49-1.12,.04-.63,1.09-1.75,3.05-2.55,4.66,.1,.31,.04,.52-.21,.73l-2.45-3.29c1.4-.88,3.46-2.62,4.69-3.36,1.47-2.21,2.66-5.25,3.25-7.91h-2.83l-1.16,1.02-2.7-2.07c.32-.21,.87-.46,1.37-.59,1.19-1.65,2.73-4.1,3.71-5.88h-5.57l-.31-1.02h6.16l1.54-1.58,3.12,2.8c-.35,.38-1.12,.56-2.03,.56-.98,1.58-2.52,3.99-3.71,5.74h2.24l1.75-1.68,3.01,2.49Zm-10.54-16.98c8.89,1.16,6.51,7.63,3.22,5.6-.46-1.89-2.1-4.06-3.54-5.36l.32-.25Zm13.69,6.37c-1.05,1.85-2.31,3.5-3.75,4.69l-.52-.28c1.29-2.59,2.41-6.44,2.94-10.15l4.38,1.23c-.14,.42-.56,.73-1.29,.73-.35,.95-.77,1.89-1.23,2.77h3.61v-5.81l4.45,.42c-.07,.49-.38,.84-1.26,.98v4.41h2.1l1.85-2.38s2.1,1.61,3.4,2.84c-.1,.38-.46,.56-.95,.56h-6.41v5.29h3.64l1.89-2.45s2.21,1.71,3.5,2.91c-.11,.38-.46,.56-.91,.56h-19.95l-.28-1.01h8.93v-5.29h-4.13Zm10.15,20.13v-2.24h-9.35v1.64c0,.28-1.43,.98-2.73,.98h-.49v-12.36l3.4,1.4h8.86l1.54-1.68,3.33,2.52c-.21,.25-.74,.56-1.4,.7v8.09c-.04,.28-1.58,.95-2.62,.95h-.53Zm0-3.26v-6.3h-9.35v6.3h9.35Z"/>
      <path class="cls-2" d="M626.36,123.05c8.19,1.09,5.74,6.93,2.73,4.93-.38-1.68-1.82-3.57-3.04-4.69l.31-.24Zm32.27-4.59c-.21,.28-.59,.35-1.29,.38-1.01,.98-2.83,2.56-3.96,3.43l-.39-.21c.21-.95,.56-2.59,.84-3.85h-14.91c.53,5.57-3.22,5.88-3.92,4.24-.98,4.03-2.77,11.13-3.12,12.74-.21,1.09-.35,2.24-.35,3.12,.07,1.72,1.33,3.19,1.19,6.23-.07,1.64-1.05,2.7-2.49,2.7-.7,0-1.37-.56-1.54-1.79,.56-3.57,.42-6.72-.35-7.25-.46-.35-.98-.46-1.71-.53v-.74h1.5c.42,0,.6,0,.91-.73q.63-1.23,5.43-14.11l.46,.07c-.07-.42,.07-.98,.53-1.58,1.29-.8,2.2-2.48,2.34-5.42h.53c.21,.73,.35,1.4,.46,2.03h14.88l1.82-1.82,3.15,3.08Zm-29.93-3.4c8.51,1.65,5.74,7.53,2.73,5.29-.39-1.75-1.82-3.78-3.05-5.04l.32-.25Zm18.69,18.45c2.42,3.99,6.79,7.25,10.75,8.82l-.07,.39c-1.33,.25-2.35,1.29-2.8,2.97-3.57-2.42-6.41-6.3-8.26-11.24v11.76c0,.35-1.43,.98-2.62,.98h-.63v-9.87c-2.49,3.5-6.02,6.37-10.15,8.58l-.38-.49c3.85-3.05,7-7.53,8.79-11.9h-7.11l-.28-1.02h9.14v-4.52l4.48,.46c-.11,.46-.35,.81-1.23,.91v3.15h5.46l1.89-2.55s2.24,1.75,3.57,3.01c-.1,.39-.45,.56-.94,.56h-9.59Zm-1.89-13.93c-.07,.38-.35,.74-1.08,.84-.32,3.68-.81,7.21-8.47,9.56l-.42-.53c5.67-2.73,5.71-6.23,5.81-10.26l4.17,.38Zm6.51,.17c-.04,.42-.39,.7-.98,.81v4.66c0,.42,.07,.52,.74,.52h3.15c.21,0,.49-.03,.63-.07,.21,0,.53-.07,.74-.14h.31l.14,.04c.8,.32,1.08,.56,1.08,1.12,0,1.12-1.08,1.54-4.76,1.54h-2.17c-2.38,0-2.7-.63-2.7-2.42v-6.44l3.82,.38Z"/>
      <path class="cls-2" d="M663.78,123.3c8.79,.49,6.62,6.93,3.29,5.01-.49-1.71-2.17-3.61-3.61-4.73l.32-.28Zm9.8,2c-1.16,3.15-3.54,9.14-3.99,10.5-.28,.94-.56,2.03-.53,2.87,.07,1.65,1.29,3.04,1.16,5.99-.07,1.61-1.08,2.66-2.52,2.66-.73,0-1.37-.59-1.54-1.79,.56-3.64,.38-6.55-.42-7.07-.45-.32-1.01-.49-1.75-.56v-.7h1.61c.49,0,.63,0,1.05-.63q.77-1.16,6.41-11.41l.53,.14Zm-7.77-10.01c9.07,.6,7,7.25,3.54,5.39-.59-1.86-2.35-3.89-3.85-5.11l.32-.28Zm12.15,8.47l4.45,.46c-.07,.46-.35,.81-1.19,.95v5.25c-.07,6.16-1.58,13.2-10.61,16.77l-.35-.42c6.72-4.2,7.7-10.61,7.7-16.42v-6.58Zm-.94-4.9c.17,2.31-.6,4.03-1.61,4.83-.98,.77-2.49,.7-3.01-.42-.42-1.02,.18-1.93,1.08-2.49,1.12-.81,2.38-2.87,2.31-5.01h.53c.28,.74,.46,1.4,.56,2.07h14.42l1.86-1.89,3.29,3.19c-.28,.28-.67,.32-1.37,.38-1.08,1.3-3.01,3.15-4.45,4.24l-.38-.25c.38-1.22,.91-3.15,1.22-4.66h-14.46Zm17.85,23.91c.84,.38,1.05,.77,1.05,1.36,0,1.23-1.19,1.89-4.97,1.89h-2.1c-2.52,0-3.01-.77-3.01-2.83v-19.39l4.24,.42c-.03,.49-.38,.84-1.15,.95v17.15c0,.52,.1,.7,.8,.7h1.47c.6,0,1.09,0,1.37-.03,.25,0,.42-.07,.56-.39,.28-.56,.8-2.73,1.19-4.66h.42l.14,4.83Z"/>
      <path class="cls-2" d="M729.63,115.77s2.52,1.82,3.99,3.15c-.07,.38-.45,.56-.95,.56h-13.44c-1.19,1.89-2.66,4.03-3.99,5.57h12.01l1.58-1.82,3.54,2.73c-.25,.24-.77,.59-1.5,.7v16.24c0,2.45-.46,3.89-4.1,4.24-.07-1.08-.21-1.92-.59-2.49-.38-.53-1.02-.95-2.24-1.12v-.53s2.34,.18,3.01,.18c.53,0,.67-.21,.67-.67v-16.45h-4.87v18.55c0,.21-.98,.88-2.55,.88h-.56v-19.43h-4.8v19.11c0,.21-.98,.84-2.55,.84h-.53v-19.95h-4.73v19.92c0,.35-1.33,1.12-2.7,1.12h-.52v-23.52l3.54,1.47h6.72c.28-1.58,.59-3.78,.8-5.57h-13.3l-.32-1.01h26.25l2.13-2.7Z"/>
      <path class="cls-2" d="M758.65,118.96c-.8,1.89-1.82,3.78-2.97,5.64l1.96,.73c-.11,.32-.42,.56-1.08,.67v20.41c-.04,.21-1.51,.81-2.73,.81h-.63v-19.01c-3.82,4.97-8.79,9.45-14.42,12.67l-.35-.38c7.14-5.57,13.3-14.07,15.75-21.53h-14.95l-.28-1.02h25.69l2.27-2.8s2.49,1.89,4.06,3.25c-.1,.39-.46,.56-.98,.56h-11.34Zm-.35,8.79c15.3,4.27,14.04,12.64,9.98,10.64-1.89-3.46-6.72-7.77-10.33-10.29l.35-.35Z"/>
      <path class="cls-2" d="M501.54,167.51c8.79,.49,6.62,6.93,3.29,5.01-.49-1.71-2.17-3.61-3.61-4.73l.32-.28Zm9.8,2c-1.16,3.15-3.54,9.14-3.99,10.5-.28,.94-.56,2.03-.53,2.87,.07,1.64,1.29,3.05,1.16,5.99-.07,1.61-1.08,2.66-2.52,2.66-.73,0-1.37-.59-1.54-1.79,.56-3.64,.38-6.55-.42-7.07-.46-.32-1.01-.49-1.75-.56v-.7h1.61c.49,0,.63,0,1.05-.63q.77-1.16,6.41-11.41l.53,.14Zm-7.77-10.01c9.07,.6,7,7.25,3.54,5.39-.59-1.86-2.35-3.88-3.85-5.11l.32-.28Zm12.15,8.47l4.45,.46c-.07,.46-.35,.81-1.19,.95v5.25c-.07,6.16-1.58,13.2-10.61,16.77l-.35-.42c6.72-4.2,7.7-10.61,7.7-16.42v-6.58Zm-.94-4.9c.17,2.31-.6,4.03-1.61,4.83-.98,.77-2.49,.7-3.01-.42-.42-1.02,.18-1.93,1.08-2.49,1.12-.81,2.38-2.87,2.31-5.01h.53c.28,.74,.46,1.4,.56,2.07h14.42l1.86-1.89,3.29,3.19c-.28,.28-.66,.32-1.37,.38-1.08,1.3-3.01,3.15-4.45,4.24l-.38-.24c.38-1.23,.91-3.15,1.22-4.66h-14.46Zm17.85,23.91c.84,.38,1.05,.77,1.05,1.36,0,1.23-1.19,1.89-4.97,1.89h-2.1c-2.52,0-3.01-.77-3.01-2.83v-19.39l4.24,.42c-.03,.49-.38,.84-1.15,.95v17.15c0,.52,.1,.7,.8,.7h1.47c.6,0,1.09,0,1.37-.03,.25,0,.42-.07,.56-.39,.28-.56,.8-2.73,1.19-4.66h.42l.14,4.83Z"/>
      <path class="cls-2" d="M542.7,170.8v19.36c0,.42-1.16,1.23-2.59,1.23h-.53v-31.75l3.29,1.47h6.06l1.47-1.58,3.12,2.42c-.17,.25-.66,.53-1.29,.63v8.96c-.04,.21-1.5,.81-2.49,.81h-.49v-1.54h-6.54Zm0-8.68v3.43h6.54v-3.43h-6.54Zm6.54,7.67v-3.22h-6.54v3.22h6.54Zm-2.45,6.41c1.19,3.71,.39,6.44-.74,7.6-.77,.8-2.17,.95-2.66,.04-.42-.81,.04-1.68,.77-2.24,1.01-.95,2.13-3.22,2.03-5.43l.59,.04Zm12.64,7.7c.8,.32,.98,.63,.98,1.19,0,1.16-1.12,1.79-5.6,1.79h-2.87c-2.59,0-3.04-.63-3.04-2.56v-9.49l3.78,.38c-.04,.42-.35,.74-1.01,.84v7.56c0,.42,.1,.56,1.01,.56h2.34c1.05,0,1.86,0,2.17-.04,.31-.04,.49-.07,.66-.35,.25-.42,.67-1.89,1.05-3.4h.42l.11,3.5Zm-6.55-11.97c7.04,3.92,4.2,9.45,1.79,7.11,0-2.2-1.12-5.08-2.24-6.86l.46-.25Zm16.98-9.94c-.25,.28-.8,.59-1.5,.74v24.47c0,2.31-.53,3.75-4.66,4.13-.11-1.05-.35-1.86-.91-2.28-.6-.56-1.47-.91-3.29-1.19v-.53s4.03,.28,4.83,.28c.66,0,.87-.25,.87-.81v-16h-6.69v.52c0,.28-1.33,.98-2.59,.98h-.45v-12.53l3.22,1.33h6.16l1.54-1.82,3.46,2.7Zm-11.34,.14v3.43h6.69v-3.43h-6.69Zm6.69,7.67v-3.22h-6.69v3.22h6.69Zm-5.08,5.81c6.86,4.17,3.61,9.59,1.16,6.97,.1-2.21-.74-4.94-1.58-6.79l.42-.18Z"/>
      <path class="cls-2" d="M589.63,166.25c-.24,.28-.77,.56-1.47,.74v21.11c-.04,.28-1.58,.98-2.66,.98h-.49v-2.7h-6.2v2.7c0,.35-1.19,1.12-2.52,1.12h-.53v-26.25l3.22,1.47h.63c.32-1.86,.74-4.55,.98-6.48l4.83,1.16c-.17,.56-.63,.8-1.4,.8-.84,1.33-2.06,3.12-3.04,4.52h3.68l1.61-1.82,3.36,2.66Zm-10.82,.17v8.72h6.2v-8.72h-6.2Zm6.2,18.94v-9.21h-6.2v9.21h6.2Zm21.7-19.11c-.28,.32-.7,.53-1.5,.63-.25,13.58-.8,20.62-2.59,22.65-1.12,1.29-2.63,1.82-4.66,1.82,0-1.08-.17-1.92-.73-2.42-.6-.56-2-1.05-3.61-1.33l.04-.56c1.64,.17,4.09,.35,4.93,.35,.7,0,.98-.11,1.37-.46,1.3-1.26,1.72-8.61,1.96-20.58h-7.35c-1.61,2.91-3.5,5.46-5.6,7.35l-.49-.32c2.06-3.54,4.09-9.1,5.15-14.46l4.66,1.37c-.14,.42-.56,.73-1.33,.73-.53,1.51-1.16,2.94-1.86,4.31h6.44l1.89-2,3.29,2.91Zm-14.98,6.27c9.45,3.33,6.37,10.12,3.19,7.46-.28-2.42-1.96-5.36-3.5-7.25l.31-.21Z"/>
      <path class="cls-2" d="M639.09,186s2.52,1.89,4.06,3.25c-.1,.39-.46,.56-.98,.56h-31.29l-.31-1.02h14.35v-10.4h-10.01l-.28-1.02h10.29v-8.89h-6.93c-2.06,3.47-4.51,6.27-7.25,8.37l-.46-.32c2.83-3.92,5.67-10.12,7.07-16.42l4.94,1.51c-.14,.42-.56,.73-1.37,.7-.7,1.82-1.5,3.54-2.38,5.15h6.37v-8.44l4.87,.49c-.07,.53-.35,.88-1.26,1.02v6.93h6.55l2.14-2.63s2.38,1.72,3.96,3.08c-.11,.38-.46,.56-.98,.56h-11.66v8.89h5.36l2.17-2.66s2.45,1.82,3.96,3.12c-.07,.39-.46,.56-.95,.56h-10.54v10.4h8.33l2.24-2.8Z"/>
      <path class="cls-2" d="M647.06,167.16c8.61,.59,6.51,6.86,3.33,4.97-.52-1.68-2.17-3.61-3.61-4.69l.28-.28Zm10.71-1.12c-1.5,4.17-4.27,11.9-4.73,13.62-.31,1.12-.59,2.24-.59,3.15,.07,1.71,1.26,3.08,1.16,6.02-.07,1.68-1.02,2.7-2.56,2.7-.73,0-1.4-.59-1.58-1.75,.56-3.64,.39-6.62-.42-7.14-.49-.35-1.01-.49-1.75-.56v-.7h1.58c.49,0,.63,0,1.01-.67q.77-1.3,7.28-14.77l.59,.11Zm-8.12-6.55c8.89,.74,6.9,7.14,3.6,5.32-.59-1.79-2.41-3.85-3.88-5.04l.28-.28Zm26.46,8.02s2.28,1.86,3.61,3.12c-.07,.38-.45,.52-.94,.52h-9.35v6.86h3.75l1.68-1.82,3.47,2.66c-.21,.28-.7,.59-1.44,.74v10.61c-.04,.25-1.65,.98-2.77,.98h-.56v-2.77h-11.62v1.89c0,.31-1.4,1.01-2.8,1.01h-.49v-14.77l3.5,1.47h3.88v-6.86h-9.17l-.28-.98h9.45v-6.13c-2.91,.35-5.91,.59-8.75,.7l-.1-.6c6.02-1.05,13.62-3.18,17.47-4.9l3.5,3.29c-.35,.31-1.08,.35-2.1-.04-1.86,.38-4.13,.77-6.62,1.12v6.55h4.69l2-2.66Zm-14.18,11.52v8.37h11.62v-8.37h-11.62Z"/>
      <path class="cls-2" d="M689.59,165.59c-.21,2.28-1.29,5.15-5.67,6.9l-.32-.49c2.77-2.31,3.05-5.15,3.05-7.56v-4.06l3.5,1.09c2.41-.8,4.97-1.82,6.44-2.55l2.87,2.84c-.39,.32-1.05,.28-1.89-.07-2.03,.35-5.11,.7-7.91,.84v2.07h6.23l1.64-2.03s1.89,1.43,3.01,2.49c-.07,.38-.42,.56-.91,.56h-3.78v4.52c-.04,.17-.98,.74-2.52,.74h-.53v-5.25h-3.22Zm-5.32,25.27c4.34-1.16,9.21-3.57,11.55-5.43l3.68,2.7c-.32,.35-.95,.42-1.89,.14-3.15,1.4-8.37,2.7-13.16,3.12l-.18-.53Zm28.11-28.46s2,1.51,3.19,2.63c-.07,.38-.42,.56-.91,.56h-4.59v4.45c-.04,.11-.59,.49-1.58,.67l2.84,2.14c-.21,.25-.7,.52-1.3,.63v11.73c-.03,.24-1.68,.88-2.76,.88h-.56v-1.44h-13.69v1.05c0,.28-1.43,1.05-2.8,1.05h-.53v-16.17l3.54,1.43h13.13l1.16-1.22h-.56v-5.18h-3.19c-.35,2-1.64,4.38-5.88,5.81l-.32-.46c2.98-2.13,3.33-4.69,3.33-6.9v-3.75l3.26,.98c2.52-.73,5.18-1.68,6.76-2.38l2.87,2.91c-.39,.31-1.05,.28-1.89-.11-2.03,.28-5.11,.6-7.98,.74v2.14h6.72l1.75-2.17Zm-19.36,10.61v2.84h13.69v-2.84h-13.69Zm0,3.82v2.87h13.69v-2.87h-13.69Zm13.69,6.79v-2.91h-13.69v2.91h13.69Zm-5.18,2.66c18.13,.52,12.22,6.93,8.89,4.58-1.72-1.33-4.8-2.97-9.03-4.1l.14-.49Z"/>
      <path class="cls-2" d="M751.26,187.54c1.01,1.92,1.19,2.94,.63,3.36-1.4,1.16-3.85-.38-5.11-1.96-2.31-2.8-3.92-6.23-5.01-10.15-1.54,1.08-3.29,1.93-5.11,2.59l-.35-.45c1.75-1.05,3.46-2.42,5-4.06-.84-3.82-1.29-7.95-1.47-12.29h-14.49v6.58c0,5.71-.25,14-5.32,19.6l-.46-.32c2.63-5.85,2.8-13.09,2.8-19.29v-9l3.5,1.4h13.9c-.04-1.58-.07-3.15-.07-4.8l4.55,.49-.07-.07,.35-.25c5.95,1.16,3.46,5,1.37,3.33-.17-1.05-.91-2.2-1.61-2.94-.07,.42-.38,.77-1.26,.91-.04,1.12-.04,2.2,0,3.33h4.66l1.65-2.24s1.85,1.58,2.97,2.7c-.1,.38-.45,.56-.91,.56h-8.37c.07,3.04,.31,6.12,.8,9,1.29-2,2.38-4.3,3.12-6.86l4.24,1.68c-.17,.42-.59,.7-1.37,.59-1.43,3.22-3.22,5.74-5.36,7.74,.91,3.61,2.31,6.76,4.45,9.1,.49,.59,.7,.59,1.02-.11,.45-.88,1.19-2.55,1.71-4.03l.42,.07-.8,5.78Zm-25.06-5.81c1.08,3.33,.67,5.95-.21,7.11-.63,.7-1.96,.91-2.49,.14-.42-.77-.04-1.61,.7-2.17,.84-.91,1.61-3.15,1.37-5.08h.63Zm10.5-16.14s1.89,1.47,3.12,2.59c-.11,.39-.46,.56-.95,.56h-12.36l-.28-1.01h8.72l1.75-2.14Zm-6.65,13.16c0,.25-1.33,.91-2.52,.91h-.42v-9.84l3.08,1.26h4.76l1.47-1.54,3.15,2.38c-.17,.25-.7,.52-1.29,.63v5.43c-.04,.25-1.54,.8-2.49,.8h-.53v-1.33h-5.21v1.29Zm8.12,8.96c.77,.28,.95,.63,.95,1.12,0,1.09-1.08,1.65-5.43,1.65h-2.7c-2.52,0-2.94-.59-2.94-2.35v-7.63l3.61,.35c-.03,.45-.38,.77-1.01,.88v5.74c0,.42,.1,.53,.98,.53h2.24c1.05,0,1.82,0,2.13-.04,.32,0,.42-.07,.59-.38,.28-.49,.63-2.03,1.05-3.75h.42l.1,3.88Zm-8.12-15.61v4.34h5.21v-4.34h-5.21Zm1.92,7.14c6.3,3.22,3.54,7.84,1.4,5.71,.04-1.79-.91-4.06-1.82-5.46l.42-.25Zm6.55,2.07c6.65,3.89,4.03,8.96,1.71,6.79-.04-2.17-1.12-4.83-2.17-6.58l.45-.21Z"/>
      <path class="cls-2" d="M758.75,175.14c0-2.73,2.24-4.94,4.97-4.94s4.94,2.21,4.94,4.94-2.21,4.97-4.94,4.97-4.97-2.24-4.97-4.97Zm1.26,0c0,2.03,1.65,3.71,3.71,3.71s3.67-1.68,3.67-3.71-1.64-3.67-3.67-3.67-3.71,1.64-3.71,3.67Z"/>
    </g>
  </g>
</svg>