<?xml version="1.0" encoding="utf-8"?>
<!-- Generator: Adobe Illustrator 27.0.0, SVG Export Plug-In . SVG Version: 6.00 Build 0)  -->
<svg version="1.1" id="圖層_1" xmlns="http://www.w3.org/2000/svg" xmlns:xlink="http://www.w3.org/1999/xlink" x="0px" y="0px"
	 viewBox="0 0 460.8 186.7" style="enable-background:new 0 0 460.8 186.7;" xml:space="preserve">
<style type="text/css">
	.st0{fill:#FFF100;}
</style>
<g>
	<g id="_圖層_2">
		<g id="_圖層_1-2">
			<g>
				<g>
					<path class="st0" d="M123.7,57.8c-6.2,4.5-15.3,10.2-29.4,16.9c-0.3,0.9-1.1,1.7-2,2l-5.2-11.3c2.3-0.3,5.5-1,9.2-1.8
						l-0.7-44.3l12.9,0.9c-0.1,1-0.5,1.8-2.5,2l0.6,39.1c5.5-1.3,11.3-2.7,16.9-4.3L123.7,57.8L123.7,57.8z M150.1,20.7
						c-0.1,1.1-1,2-2.7,2.1c-0.6,15.4-1.3,28-7.7,37.9c22,7,15.3,24.4,5.3,18.1c-1.7-4.9-4.8-10-8-14.5
						c-6.3,7.3-16.8,13.1-34.3,17.3l-0.5-1.1c33.2-15.3,33.7-32.8,34-61.1L150.1,20.7L150.1,20.7z M111.9,27.5
						c24.9,5.7,16.5,24.6,6.9,17.4c-1.1-6-4.4-12.2-7.4-17L111.9,27.5z"/>
					<path class="st0" d="M181.2,43c17.4,5.2,9.2,18.3,2.4,12.3c-0.1-3.2-1.3-6.7-2.4-9.7V79c-0.1,0.6-3.1,2.7-8,2.7h-1.8V57.8
						c-3.1,3.8-6.8,7.3-10.9,10.3l-0.8-0.7c5.2-7.3,8.9-18,10.8-27.7h-8.8l-0.6-2h10.2V27.3c-3.6,0.4-7.3,0.6-10.8,0.6l-0.1-0.7
						c7.4-2.9,16.3-8.3,20.7-12l10.8,9.5c-0.9,0.8-2.7,1-5.2,0.1c-1.6,0.4-3.6,0.8-5.6,1.1v11.5l4-5.9c0,0,4.7,4.2,7.4,7
						c-0.2,0.8-1,1.1-2,1.1h-9.4C181.2,39.7,181.2,43.1,181.2,43z M221.1,49.2c0,0,4.5,3.6,7.2,6.1c0,0.7-0.7,1.3-1.5,1.4l-8.6,1.6
						v19.8c0,0.9-4.2,3.2-7.9,3.2h-1.9V60.1l-21.4,4l-0.9-1.8l22.3-4.1V17.1l12.4,1.2c-0.1,1-0.6,1.8-2.6,2v34.6L221.1,49.2z
						 M191.5,40.2c21.4,1.4,13.4,18.1,4.9,12c-0.4-4.2-2.7-8.8-5.4-11.5C191,40.7,191.5,40.3,191.5,40.2z M192.7,22.5
						c21.2,2.5,13,19,4.7,12.5c-0.3-4.3-2.5-9.1-5.2-12.1L192.7,22.5z"/>
					<path class="st0" d="M244,44.1c0.8,4.3-0.4,7.7-4,9.1c-6.1,2.4-10-5.8-3.2-9.2c2.1-0.9,3.8-3.4,3.6-7.1l0.8-0.1
						c1.1,1.8,1.9,3.6,2.4,5.4h0.1l-0.6-23.6l7.1,1.2c2-1.7,4-3.6,5-4.7l6,4.5c1.8-0.1,3.4,0.1,4.8,0.4c1-1.5,1.8-3,2.4-4.3l7.3,3.7
						c-0.4,0.6-1,0.8-2.3,0.5c-0.6,0.8-1.3,1.5-2.2,2.3c3.3,2.7,1.4,6.6-2.2,5.5c-0.6-0.7-1.3-1.5-2.1-2.3c-2.2,1.3-4.5,2.5-6.7,3.4
						c-0.2,0.6-0.8,0.9-1.7,0.9h-6.2l0.1,5.5h0.2l2.8-3.7c0,0,3.2,2.6,5,4.5c-0.1,0.8-0.8,1.1-1.8,1.1h-6.2l0.1,5.1h27.4l0.1-5.1
						h-4.5l-0.6-2h5.3l0.2-5.5h-4.5l-0.6-2h5.2l0.2-5.5H275l-0.6-2h5.6l3.5-4.2l8.5,6.3c-0.6,0.6-1.1,0.9-2.5,1.1l-0.6,16.7l2.9-2.8
						l8.3,8c-0.6,0.6-1.2,0.8-2.7,0.8c-3.1,1.5-8.2,3.8-11.5,5l-0.5-0.4c0.5-1.8,1.1-4.4,1.7-6.6L244,44.1L244,44.1z M289,55.5
						c0,0,5.5,4.5,8.8,7.6c-0.2,0.8-1,1.1-2,1.1h-24.1v6.2c0,6.7-1.5,10.2-12.3,11.2c-0.3-3.2-0.6-5.4-1.8-7
						c-1.3-1.5-2.7-2.5-6.6-3.2v-0.9c0,0,8.1,0.5,9.6,0.5c0.9,0,1.3-0.3,1.3-1.1v-5.7h-26l-0.6-2h26.6v-5.8l6.9,0.6
						c1.4-1.5,2.8-3.2,4-4.6h-23.4l-0.6-2h24.8l5.2-5l8.7,7.6c-0.6,0.6-1.3,0.8-2.8,0.9c-2.9,1-6.8,2.4-10.6,3.5
						c-0.2,1-0.9,1.5-2.3,1.7v3.1h12.5L289,55.5L289,55.5z M255.1,24.1c0,0,2.3,1.8,4.1,3.5c1.6-1.4,3.2-3.1,4.7-4.8
						c-1-0.7-1.9-1.4-2.8-2c-0.3,0-0.6-0.1-1-0.2c-1.9,0.5-5,1.2-8.2,1.6l0.1,5.4h0.3L255.1,24.1z M276.6,31.5
						c-0.4,0.7-1.1,0.8-2.3,0.6c-0.7,0.9-1.5,1.8-2.5,2.7c3.4,3.2,1.1,7.3-2.8,5.9c-0.5-0.8-1.1-1.7-1.9-2.6
						c-2.7,1.5-5.7,2.9-8.8,3.6l-0.6-1c2.3-1.4,4.5-3.4,6.5-5.4c-1.3-1.3-2.8-2.3-4.1-3.2l0.6-0.6c2.3,0,4.3,0.3,5.9,0.7
						c1-1.4,1.9-2.9,2.5-4.3L276.6,31.5L276.6,31.5z"/>
					<path class="st0" d="M362.2,66.5c0,0,6.6,5,10.4,8.3c-0.2,0.8-1,1.1-2.1,1.1h-63.8l-0.6-2h27.4V28.4h-22.3l-0.6-2h41.7l5.7-7.4
						c0,0,6.4,5,10.4,8.3c-0.2,0.8-1,1.1-2.1,1.1h-21.7V74h11.6L362.2,66.5L362.2,66.5z"/>
					<path class="st0" d="M381.7,48c4.5-1.9,6.4-5.2,7.2-9h-6.3l-0.6-2h10.7v-3.8h-7.6l-0.6-2h8.1V27h-0.4l-0.4-3.6h-11.6l-0.6-2
						h11.9l-0.7-5.8l12.2,0.8c0,0.8-0.6,1.6-2,2l0.4,3h1.3l3.5-4.6c0,0,4,3.1,6.4,5.4c-0.2,0.8-0.8,1.1-1.8,1.1h-9l0.1,1.1
						c-1,1.3-2.9,2.1-5.6,2.4l6.2,0.6c-0.1,0.7-0.5,1.2-1.7,1.4v2.5h1l3.1-4c0,0,3.6,2.8,5.9,4.8c-0.2,0.8-0.8,1.1-1.8,1.1h-0.8
						c0.5,0.3,2.7,2,4.8,3.5l-0.6-1.7h4.7v-6.8l10.6,0.9c-0.1,0.9-0.8,1.6-2.3,1.8c-0.1,1.4-0.1,2.7-0.1,4.1h2l3.9-3.9l7.2,5.5
						c-0.4,0.5-1.5,0.9-2.5,1c-0.4,5.1,0.2,11.3,1.5,13c0.4,0.3,0.6,0.2,0.9-0.3c0.7-1.3,1.4-3.2,2-5l0.7,0.1l-0.6,6.9
						c1.4,2,2,3.9,1,5.5c-1.8,3-6,2-8,0.1c-4.5-4.2-5.4-12.2-5.5-21h-2.9c-0.2,2.2-0.4,4.3-0.9,6.2c7.4,4,3.5,11.4-1.6,8.9
						c-0.3-0.6-0.7-1.4-1.3-2.2c-2.6,3.6-6.9,6.5-14.2,8.8l-0.6-1c6-3.6,8.6-7.9,9.7-13.2c-1.1-0.9-2.4-1.8-3.8-2.6l0.4-0.9
						c1.4,0,2.7,0.1,3.9,0.2c0.1-1.3,0.2-2.7,0.3-4.2h-3.7l1.1,0.9c-0.2,0.8-0.9,1.1-1.9,1.1H406v1.8c0,0.6,0.1,0.9,0.6,0.9h1.3
						c0.2,0,0.9-0.1,1.2-0.1c0.4-0.1,1-0.1,1.4-0.3h0.6l0.4,0.1c1.6,0.6,2.1,1.2,2.1,2.3c0,2-1.5,3-5.6,3.2c1.2,0.8,2.8,2,4.1,2.9
						c-0.1,0.8-0.8,1.1-1.8,1.1h-9.7v3c3.5-0.2,7.1-0.5,10.6-0.8l0.1,0.9c-5.4,2.2-12.6,4.8-23.2,7.8c-0.5,0.9-1.3,1.5-2,1.5
						l-3.6-8.9c2.4,0.1,6,0,10.1-0.1v-3.4h-6.8l-0.6-2h7.4v-4.5c-2.4,1.9-5.7,3.3-10.2,4.3L381.7,48L381.7,48z M434.9,60.5
						c0,0,5.2,3.7,8.5,6.3c-0.2,0.8-1,1.1-2,1.1h-33l4.8,1.5c-0.3,0.8-1.2,1.5-3.2,1.3c-3.1,1-7.6,1.8-12,2.4c7,0.1,16.2,0,26,0
						c-1.6-1.3-3.4-2.7-5.2-3.9l0.4-0.8c26.7,0,20.9,16.4,12.7,12.6c-1-1.5-2.9-3.6-5.3-5.8c-8.8,1.4-20.6,3.1-34.4,4.7
						c-0.6,0.8-1.4,1.4-2.2,1.6l-2.8-9.4c0,0,1.6-0.1,2.4-0.3c3.4-0.4,7.5-2.2,10.4-3.8h-17l-0.6-2h48L434.9,60.5L434.9,60.5z
						 M397.1,39.1c-1,2.1-2.3,3.9-4.1,5.4l6.4,0.6c-0.3-0.8-0.4-1.8-0.4-3.2v-2.8H397.1z M422.2,54.6c0,0,5.1,3.6,8.3,6.2
						c-0.1,0.8-0.9,1.1-2,1.1h-31.7l-0.6-2h21.4L422.2,54.6L422.2,54.6z M403.2,49.1l2-2h-1.1c-1.3,0-2.3-0.1-3.1-0.4l-0.3,0.1v2.4
						C400.7,49.1,403.2,49.1,403.2,49.1z M401.1,33.2v3.8h4.1l3.3-3.8H401.1z M438.1,15.7c0,0,4.6,3.9,7.3,6.6
						c-0.2,0.8-0.9,1.1-1.9,1.1h-13.4l-0.6,2.8c-1.9,1.4-5.9,2-10,1.2l0.7-4h-5.7l-0.6-2h6.6l1-6.1l12,1.9c-0.1,0.8-0.8,1.6-2.7,1.8
						l-0.5,2.4h3.6C434.1,21.4,438.1,15.7,438.1,15.7z"/>
					<path class="st0" d="M22.2,151.2c3.2,7.5,3.1,13.2,0.9,16.1c-1.7,2.1-6,1.8-7.4-1.1c-1.2-2.6,0-5,2.3-6.6
						c1.5-1.5,3.8-5.3,3.3-8.4L22.2,151.2L22.2,151.2z M62.7,110.2c3.9,7.9,12,14,19,17.4l-0.1,1c-3.4,2.2-5.4,5.3-5.9,9
						c-6.2-5.9-11.1-15.6-13.9-25.1c-5.4,12.2-13,20-22.6,25.3c8.6,6.1,2.2,14.3-3.1,9.4c0-1.2-0.1-2.4-0.4-3.6
						c-3.8,1.9-9,4.3-15,6.7c-0.6,0.7-1.3,1.3-2,1.5l-3.3-9.7c0,0,1.9-0.4,2.7-1c3.1-2.1,6.9-6.6,10.1-11.5c-2.1,1-4.5,2.1-7,3.1
						c-0.5,0.8-1.1,1.4-1.8,1.7l-4.1-9.5c0,0,1.6-0.4,2.3-0.9c3.2-3.1,7.6-13.2,8.7-18.7l11,5.5c-0.3,0.6-1.1,1.1-2.4,1
						c-3.2,4.2-8.8,9.8-13.6,13.4c2.8,0,6.2,0,9.8-0.1c1.5-2.5,2.7-4.8,3.4-6.8l9.8,6.7c-0.3,0.6-1.3,1.1-2.7,0.7
						c-4,4.8-11.8,11.7-18.9,16.2c3.5-0.2,7.8-0.5,12.3-0.8c-0.6-2.1-1.4-4.1-2.2-5.8l0.7-0.4c2.1,0.8,3.8,1.6,5.1,2.5l-0.3-0.4
						c6.3-7.6,12.2-19.6,14.6-32.5l12.6,4.1c-0.3,0.8-1.2,1.5-2.9,1.4C62.7,110.1,62.7,110.2,62.7,110.2z M27,150.3
						c13.8,9.1,4.2,20.4-1.1,13.4c1-4.4,0.9-9.3,0.3-13.2L27,150.3L27,150.3z M33.9,149.3c15.8,6,7.4,18.1,1.5,12
						c0.4-4-0.8-8.5-2.2-11.7L33.9,149.3L33.9,149.3z M68.8,140l8.7,6.5c-0.5,0.6-1.4,1.2-2.8,1.5v20.3c-0.1,0.6-4.7,2.1-7.7,2.1
						h-1.6v-4.4H53.1v2.5c0,0.8-4.2,2.9-8.1,2.9h-1.4v-30.8l9.9,3.9h11.2C64.7,144.6,68.8,140,68.8,140z M64.5,127.2
						c0,0,4.9,4.2,7.8,7c-0.2,0.8-1,1.1-2,1.1H47.1l-0.6-2h13.6L64.5,127.2L64.5,127.2z M65.4,164.1v-17.6H53.1v17.6L65.4,164.1
						L65.4,164.1z"/>
					<path class="st0" d="M96.5,130.5c-2.6,2.4-5.2,4.5-8.1,6.3l-0.7-0.5c4.8-7.6,9.9-19.7,12.5-31.2l13.4,4.7
						c-0.3,0.9-1.3,1.5-2.9,1.4c-1.6,3.2-3.3,6.2-5.2,8.8l3.4,1.3c-0.2,0.6-0.9,1.1-2.2,1.3v22c-0.1,0.7-4.2,2.6-8.3,2.6h-1.9V130.5
						z M99,147.4c4.3,9,2.1,15.5-1.6,17.7c-2.7,1.5-6.2,0.6-7.2-2.4c-0.8-2.9,0.8-5,3.3-6.2c2.4-1.3,5-5,4.7-9L99,147.4z
						 M138.1,160.8c2.9,1,3.6,2.1,3.6,3.9c0,4.1-3.9,5.2-17.8,5.2h-8.5c-8.8,0-10.9-1.5-10.9-7.8v-15.9l12.4,0.9
						c-0.1,1-0.8,1.5-2.2,1.8v11.4c0,1,0.3,1.3,2.6,1.3h7.9c2.2,0,4.6,0,5.8-0.1s1.7-0.3,2.3-1.1c1-1.2,2.2-3.9,4.1-8.1h0.6
						L138.1,160.8L138.1,160.8z M154.9,117.2c-0.6,0.6-1.3,0.8-2.7,1c-2.8,2.2-7.5,5.1-11.2,6.7l-0.4-0.4c0.6-2.4,1.1-5.7,1.3-8.4
						H123c-2,3-4.1,5.7-6.4,8l10.4,3.6v-8.1l12,1.1c-0.1,1-0.7,1.7-2.6,2v22.2c0,0.5-4,1.7-7.6,1.7H127v-17.4
						c-0.5,0.2-1.1,0.3-1.8,0.3c-3.9,6.9-9.4,11.3-15.6,13.9l-0.7-0.6c3.2-4.4,6-11.1,7.4-18.3c-2.1,2.1-4.4,3.9-6.8,5.5l-0.8-0.5
						c2.9-6.1,5.9-15.6,7.3-24.6l13.2,4.1c-0.3,0.9-1.2,1.5-2.9,1.5c-0.6,1.3-1.3,2.6-2,3.8h17l5-5
						C146.2,109.1,154.9,117.2,154.9,117.2z M118.8,143.3c19.2,4.9,9.4,19.5,2.1,12.3c0.3-4.2-1-8.8-2.7-12L118.8,143.3L118.8,143.3
						z M138.3,146.4c22.7,5.7,13.4,23.8,4.7,16.1c0.1-5.5-2.2-11.6-5.2-15.8L138.3,146.4z M139,125.8c22.7,5.2,14.1,22.8,5.3,15.6
						c-0.5-5.3-3.1-11.1-5.9-15.3C138.5,126.1,139,125.8,139,125.8z"/>
					<path class="st0" d="M227.3,120.1c-0.6,0.6-1.3,0.8-2.8,0.9c-2.9,2.6-8.1,5.9-12,7.8l-0.4-0.4c0.8-2.7,1.5-6.5,2-9.5h-42.8
						c1.1,5.2-0.1,9.1-2.4,11c-2.3,1.9-6.6,1.1-7.8-2.2c-1-3.1,0.6-5.5,3.2-6.9c1.9-1.4,4.4-4.9,4-8.3h0.8c0.7,1.5,1.3,3,1.7,4.4
						h19.5c-0.5-0.3-1-0.6-1.4-1c0.4-3.8-0.7-7.8-3-10.1l0.4-0.3c16,0,16.1,8.3,11.5,11.4h15.8l5.1-5L227.3,120.1L227.3,120.1z
						 M216.9,130.6c0,0,5.7,4.2,9.2,7.1c-0.2,0.8-1,1.1-2,1.1h-14.1c-1.5,6.4-3.9,12-8.1,16.7c27.4,7.1,14.6,19.5,6.2,15
						c-3.2-2.7-7.8-5.7-13.7-8.6c-7.2,4.6-17.4,7.8-32,9.7l-0.4-0.8c11.5-3.2,19.5-7.4,25.1-12.2c-5.2-2.2-11.3-4.3-17.9-6.1
						c1.8-3.4,4.2-8.5,6.4-13.7h-13.6l-0.6-2h15c2.7-6.3,5-12.5,5.9-15.8L196,125c-0.2,0.8-0.8,1.5-3.2,1.5c-1.3,2.7-3,6.4-5,10.4
						h11.1c0.4-2.9,0.6-5.8,0.7-8.8l14.4,2.5c-0.2,1.1-1.1,1.8-2.7,1.8c-0.2,1.5-0.4,3-0.7,4.5h1.4L216.9,130.6L216.9,130.6z
						 M186.8,138.8c-2.3,4.6-4.8,9.3-7.1,13.2c4.6,0.4,8.6,0.9,12.2,1.5c3.5-4.5,5.5-9.4,6.4-14.7H186.8z"/>
					<path class="st0" d="M242.8,126.1c6.4,12.9,4.9,21.9,1.3,27.1c-2.5,3.9-7.1,3.9-9.7,1.2c-2-2.4-1.4-5.5,0.7-7.6
						c3.5-3.1,7.1-11.3,6.9-20.6L242.8,126.1L242.8,126.1z M263.1,119.1c-0.1,0.9-0.7,1.7-2.5,1.9v34.9c0,1.7,0.9,2.2,3.6,2.2h7.9
						c2.4,0,4.5-0.1,5.9-0.1c1.2-0.1,2-0.4,2.6-1.2c1.1-1.5,2.6-5.2,4.4-10.4h0.7l0.3,10.9c2.9,1.2,3.8,2.4,3.8,4.3
						c0,4.6-4,6.9-18.7,6.9h-8.4c-9.1,0-12.2-1.5-12.2-9.3v-41.1L263.1,119.1L263.1,119.1z M270.7,126.3c-1.2-6.9-5.1-14.3-9.2-19.6
						l0.6-0.4C289.1,113.2,280.9,134.1,270.7,126.3z M289.7,154.5c-0.1-7.2-1.5-18.1-6.9-26.2l0.6-0.5
						C312.5,144,297.4,165.1,289.7,154.5L289.7,154.5z"/>
					<path class="st0" d="M366,115c-0.5,0.6-1.3,1.2-2.7,1.5v50.8c-0.1,0.8-5.2,3.2-9.3,3.2h-1.8V164h-25.1v3.4c0,1.3-4.3,3.9-9,3.9
						h-1.8v-62.9l11.3,4.5h23.7l5-5.5L366,115L366,115z M327.3,114.8V137h25.1v-22.1H327.3z M352.3,162v-23.1h-25.1V162H352.3z"/>
					<path class="st0" d="M445.6,122.1c-0.6,0.6-1.3,0.8-2.7,0.9c-2.7,1.6-7.2,3.6-10.7,4.7l1.8,1.3c-0.4,0.5-1.2,1.1-2.5,1.4v9.7
						c-0.1,0.5-5.1,2-8.2,2h-1.8v-2.6h-4.8v7.1h9.9l4.2-4.8l9.2,6.8c-0.4,0.6-1.3,1.3-2.8,1.5v8.7c0,5.9-1.3,9.2-11.1,10.1
						c-0.1-2.9-0.3-5-1-6.4c-0.7-1.3-1.7-2.3-4.3-2.9v-0.8c0,0,4.1,0.3,5.5,0.3c0.8,0,1.1-0.4,1.1-1.2v-9.3h-10.6v19.9
						c0,0.6-2.9,3.2-8,3.2h-1.8v-23.1H397V166c0,0.8-4.4,3-8.4,3h-1.4v-26.5l10.5,4h9.2v-7.1h-4.2v1.1c0,0.8-4.4,2.9-8.4,2.9h-1.3
						v-20.4l10.1,3.8h17.7l4.3-4.6l6.2,4.6c0.3-1.8,0.6-4.2,0.8-6.2h-41.4c0.6,5.2-1.3,8.8-4.1,10.1c-2.8,1.4-6.4,0.2-7.4-3.1
						c-0.8-3.2,1.2-5.4,3.9-6.4c2.3-1.1,4.9-4.1,4.6-7.3l0.8-0.1c0.8,1.8,1.4,3.4,1.8,4.9h16.6v-13.8l12.4,1
						c-0.1,0.8-0.5,1.5-2.2,1.8v11.1h3c1.2-3.8,2.4-9.2,2.9-12.9l13.4,4.1c-0.4,0.8-1.1,1.4-2.7,1.3c-2.8,2.2-7.3,5.2-11.5,7.5h9.3
						l5.2-5.2L445.6,122.1z M391,106.2c20.4,1.5,11.8,17.3,3.6,10.9c-0.1-3.8-2-8-4.1-10.6L391,106.2z M421.5,137.5V129h-18.8v8.5
						H421.5z"/>
				</g>
			</g>
		</g>
	</g>
</g>
</svg>
