<?xml version="1.0" encoding="UTF-8"?>
<svg id="_圖層_2" data-name="圖層 2" xmlns="http://www.w3.org/2000/svg" viewBox="0 0 497.42 131.88">
  <defs>
    <style>
      .cls-1 {
        fill: #b47b5b;
      }
    </style>
  </defs>
  <g id="_圖層_1-2" data-name="圖層 1">
    <g>
      <path class="cls-1" d="M28.91,27.3s1.96,1.54,3.12,2.66c-.1,.38-.42,.56-.88,.56H4.9l-.91,1.33-2.59-1.75c.21-.25,.6-.56,.98-.77V1.79l2.66,1.15H26.39l1.58-1.96s1.75,1.37,2.84,2.42c-.11,.38-.42,.56-.91,.56H4.62V29.47H27.23l1.68-2.17Zm-9.7,.56V14.84h-7.18c-.04,4.06-.63,9.42-5.32,13.09l-.46-.46c3.19-3.96,3.57-8.75,3.57-13.09V7.49l2.21,.77c4.59-.66,9.77-1.82,12.67-2.8l2.49,2.45c-.35,.31-.98,.28-1.75-.04-3.54,.53-8.68,1.05-13.41,1.23v4.69h13.37l1.61-2s1.86,1.4,3.01,2.49c-.1,.38-.42,.56-.91,.56h-7.7v12.32c0,.18-.74,.7-1.86,.7h-.35Z"/>
      <path class="cls-1" d="M40.44,10.89c1.51,6.13-.04,10.4-1.37,12.36-.81,1.22-2.17,1.89-2.91,1.22-.6-.49-.38-1.4,.21-2.17,1.86-1.86,3.5-6.55,3.43-11.38l.63-.03Zm7.81-4.03c-.03,.45-.39,.8-1.23,.94V27.23c0,.91,.35,1.26,2.31,1.26h4.94c2.31,0,3.96-.04,4.66-.11,.56-.07,.77-.24,.91-.63,.31-.7,.81-3.08,1.33-5.95h.46l.1,6.23c.91,.28,1.16,.56,1.16,1.05,0,1.22-1.47,1.64-8.68,1.64h-5.08c-3.36,0-4.38-.66-4.38-2.94V6.44l3.5,.42Zm6.44,3.08c-.7-2.91-3.43-6.79-5.57-9.21l.42-.28c9.7,5.32,7.91,11.59,5.15,9.49Zm11.06,13.48c-.56-3.08-1.93-8.26-5.01-11.69l.39-.32c9.28,6.86,7,14.56,4.62,12.01Z"/>
      <path class="cls-1" d="M79.17,21.28c2.24-.46,4.73-.98,7.21-1.5l.1,.53c-3.01,1.23-7.21,2.8-13.06,4.76-.18,.38-.49,.7-.84,.84l-1.51-3.26c1.26-.14,3.29-.46,5.78-.95V5.88h-5.08l-.28-1.01h9.07l1.58-2s1.82,1.4,2.91,2.45c-.07,.38-.42,.56-.91,.56h-4.97v15.4ZM100.52,1.37s1.89,1.5,3.05,2.59c-.1,.38-.42,.56-.88,.56h-10.19c-.77,2.63-2.17,6.83-3.19,9.66h9.28l1.4-1.47,2.7,2.28c-.25,.28-.7,.46-1.44,.53-.52,7.46-1.75,13.62-3.57,15.26-1.05,.95-2.52,1.37-4.31,1.37,0-.67-.21-1.29-.84-1.64-.63-.42-2.56-.84-4.24-1.09l.03-.63c1.93,.17,5.32,.49,6.2,.49,.74,0,1.09-.07,1.54-.42,1.33-1.05,2.31-6.89,2.84-13.62h-9.66l-1.12,1.15-2.45-2c.35-.25,.95-.49,1.51-.67,.98-2.62,2.31-6.76,2.91-9.21h-5.29l-.28-1.05h14.39l1.61-2.1Z"/>
      <path class="cls-1" d="M114.26,4.17h-6.37l-.28-1.01h6.48l-.39-2.84,3.29,.28c-.03,.42-.31,.74-1.02,.95l.24,1.61h3.08l1.37-1.72s1.58,1.23,2.52,2.17c-.07,.38-.39,.56-.88,.56h-5.88l.17,1.16c-.07,.1-.17,.21-.31,.31l2.52,.28c-.07,.38-.35,.67-1.02,.77v1.12h1.37l1.3-1.54s1.51,1.15,2.45,2.03c-.07,.38-.35,.56-.84,.56h-4.27v2h3.12l1.3-1.47s1.54,1.05,2.56,1.96c-.07,.38-.42,.56-.88,.56h-3.78v1.26c0,.32,.07,.42,.45,.42h2.17c.14-.04,.39-.07,.49-.14h.32l.14,.03c.6,.17,.88,.28,.88,.7,0,.7-.66,.95-3.22,.95h-1.33c-.91,0-1.37-.18-1.58-.6-.14,.25-.42,.46-.95,.53v1.65h1.68l1.26-1.33s1.4,.98,2.35,1.82c-.07,.39-.35,.56-.84,.56h-4.45v2.1c1.86-.25,3.85-.49,5.81-.77l.07,.6c-2.87,.88-6.65,1.86-11.73,2.87-.21,.45-.45,.67-.81,.77l-1.3-2.7c1.4-.07,3.5-.28,5.99-.56v-2.31h-4.48l-.28-1.05h4.76v-2.77l2.8,.32c-.07-.21-.07-.46-.07-.74v-1.61h-2.56c-.77,2.13-2.38,3.78-6.3,4.66l-.46-.56c2.84-.77,4.03-2.31,4.52-4.1h-3.54l-.28-1.05h6.16v-2h-4.62l-.28-1.05h4.9v-1.89c-.35,.07-.81,.1-1.3,.1l-.24-1.85Zm20.69,19.43s1.79,1.29,2.94,2.28c-.11,.38-.46,.56-.95,.56h-15.65l1.79,.91c-.18,.31-.66,.63-1.58,.38-1.65,.7-4.06,1.5-6.48,2.13,3.78-.14,9.35-.38,15.26-.7-.81-.67-1.75-1.29-2.7-1.89l.28-.53c9.03,2.1,7.53,6.41,5.36,5.32-.42-.59-1.16-1.33-2.1-2.17-4.41,.53-10.75,1.22-17.96,1.82-.25,.35-.49,.56-.77,.67l-1.05-2.77s.56-.07,.81-.14c2.42-.49,5.29-2,7.11-3.04h-10.43l-.28-1.05h24.82l1.58-1.79Zm-5.74-2.87s1.79,1.23,2.87,2.24c-.1,.38-.42,.56-.95,.56h-15.89l-.28-1.05h12.78l1.47-1.75Zm8.09-.88c.6,.7,.77,1.12,.49,1.54-.49,.77-1.86,.31-2.73-.38-2-1.93-2.38-5.92-2.45-10.29h-3.22c-.04,1.26-.18,2.42-.42,3.54,4.31,2.1,3.29,4.9,1.58,4.1-.42-.67-1.12-1.51-2.1-2.35-.91,2.35-2.73,4.31-6.3,5.81l-.45-.6c3.12-1.68,4.52-3.78,5.15-6.37-.84-.52-1.75-1.08-2.84-1.54l.24-.6c1.12,.21,2.03,.49,2.87,.77,.14-.88,.21-1.79,.25-2.76h-3.15l-.31-1.02h3.5c.04-.95,.04-1.96,.04-3.04l3.15,.31c-.04,.42-.39,.8-1.09,.91,0,.63-.04,1.23-.04,1.82h2.84l1.19-1.22,2.35,1.99c-.21,.21-.66,.42-1.3,.49-.11,3.12,.28,6.97,1.4,8.16,.18,.21,.28,.14,.42-.14,.28-.7,.6-1.61,.88-2.52l.46,.07-.39,3.33Zm-.63-18.52s1.65,1.29,2.59,2.28c-.11,.38-.39,.56-.88,.56h-6.69l-.39,2c-.38,.35-1.26,.46-2.21,.25l.42-2.24h-5.08l-.28-1.01h5.53l.53-2.94,3.26,.67c-.11,.46-.49,.8-1.33,.8l-.28,1.47h3.4l1.4-1.82Z"/>
      <path class="cls-1" d="M147.52,19.36c1.89-1.12,2.77-2.56,3.15-4.27-1.64-.73-2.52-1.54-2.52-2.73,0-1.09,.74-2,2.03-2,1.44,0,2.35,1.08,2.35,3.05,0,2.28-1.05,5.36-4.41,7l-.6-1.05Z"/>
      <path class="cls-1" d="M190.03,.73s2,1.51,3.26,2.66c-.11,.38-.42,.56-.91,.56h-14.11c-.88,1.71-2,3.71-2.91,5.15h12.78l1.23-1.47,2.7,2.1c-.25,.31-.66,.53-1.44,.63V31.19c0,.18-.88,.77-1.96,.77h-.35v-2.55h-22.33v2.03c0,.21-.73,.74-1.89,.74h-.35V7.98l2.66,1.12h7.88c.28-1.4,.7-3.5,.95-5.15h-13.62l-.28-1.05h26.92l1.79-2.17Zm-24.05,27.65h5.67V10.15h-5.67V28.39Zm14.39-18.24h-6.55v5.29h6.55v-5.29Zm0,6.27h-6.55v5.46h6.55v-5.46Zm-6.55,11.97h6.55v-5.53h-6.55v5.53Zm8.72-18.24V28.39h5.78V10.15h-5.78Z"/>
      <path class="cls-1" d="M225.75,.73s2,1.51,3.26,2.66c-.1,.38-.42,.56-.91,.56h-14.11c-.88,1.71-2,3.71-2.91,5.15h12.78l1.23-1.47,2.7,2.1c-.25,.31-.66,.53-1.44,.63V31.19c0,.18-.88,.77-1.96,.77h-.35v-2.55h-22.33v2.03c0,.21-.74,.74-1.89,.74h-.35V7.98l2.66,1.12h7.88c.28-1.4,.7-3.5,.94-5.15h-13.62l-.28-1.05h26.92l1.79-2.17Zm-24.05,27.65h5.67V10.15h-5.67V28.39Zm14.39-18.24h-6.55v5.29h6.55v-5.29Zm0,6.27h-6.55v5.46h6.55v-5.46Zm-6.55,11.97h6.55v-5.53h-6.55v5.53Zm8.72-18.24V28.39h5.78V10.15h-5.78Z"/>
      <path class="cls-1" d="M243.65,1.4c-.14,.39-.56,.67-1.36,.63-.95,2.62-2.07,5.11-3.33,7.42l1.4,.53c-.1,.32-.45,.56-1.05,.66V31.47c-.07,.21-.98,.77-1.86,.77h-.42V12.67c-1.33,2.03-2.77,3.82-4.27,5.32l-.53-.35c2.98-4.16,6.06-10.82,7.81-17.43l3.61,1.19Zm-3.12,30.35c2.7-1.65,5.95-4.52,8.26-7.81l2.87,2.21c-.28,.32-.63,.39-1.37,.14-2.77,2.8-6.3,4.9-9.49,5.99l-.28-.53Zm21.95-11.34s1.65,1.37,2.59,2.35c-.11,.38-.42,.56-.88,.56h-22.96l-.28-1.05h4.13V1.08l2.66,1.12h10.29l1.33-1.44,2.73,2.17c-.25,.28-.77,.56-1.47,.74V22.26h.46l1.4-1.86Zm-15.19-17.19v3.96h11.1V3.22h-11.1Zm11.1,4.97h-11.1v3.95h11.1v-3.95Zm-11.1,5v3.99h11.1v-3.99h-11.1Zm0,9.07h11.1v-4.03h-11.1v4.03Zm7.81,2.07c10.89,3.29,9.91,9.14,7,7.66-1.23-2.38-4.8-5.56-7.35-7.32l.35-.35Z"/>
      <path class="cls-1" d="M278.95,26.78c2.87-.53,6.02-1.12,9.21-1.71l.11,.59c-4.17,1.33-9.84,3.05-17.68,5.18-.18,.38-.49,.7-.84,.8l-1.43-3.12c1.75-.17,4.73-.7,8.4-1.37v-6.83h-7.14l-.24-1.01h7.39v-5l3.54,.35c-.11,.49-.42,.8-1.3,.95v3.71h3.64l1.58-2.07s1.85,1.44,2.94,2.52c-.07,.39-.42,.56-.91,.56h-7.25v6.44Zm-10.08-22.4l-.28-1.02h15.02l1.61-2.06s1.86,1.43,3.01,2.52c-.1,.38-.46,.56-.95,.56h-10.68l3.15,1.37c-.14,.31-.56,.56-1.29,.49-1.58,1.96-4.31,4.52-6.72,6.3,2.77-.14,7.32-.49,12.15-.95-.88-1.65-2.21-3.19-3.43-4.27l.38-.31c8.33,3.68,6.55,9.38,4.17,7.53-.11-.73-.35-1.47-.74-2.24-3.19,.67-7.67,1.54-12.57,2.42-.25,.38-.52,.67-.81,.8l-1.44-3.15s.63-.14,.88-.28c2.21-1.61,4.94-5.57,6.06-7.7h-7.53Zm23.24,19.71c0,.28-.95,.77-1.75,.77h-.42V3.57l3.43,.38c-.07,.49-.39,.84-1.26,.95V24.08Zm7.88-22.86c-.07,.49-.42,.84-1.26,.95V28.95c0,1.86-.39,3.04-3.61,3.36-.1-.74-.28-1.33-.77-1.68-.49-.38-1.37-.7-2.91-.91v-.52s3.5,.28,4.24,.28c.63,0,.81-.21,.81-.77V.84l3.5,.38Z"/>
      <path class="cls-1" d="M306.4,16.24c0-2.7,2.24-4.9,4.94-4.9s4.9,2.21,4.9,4.9-2.21,4.94-4.9,4.94-4.94-2.24-4.94-4.94Zm1.19,0c0,2.07,1.64,3.75,3.75,3.75s3.71-1.68,3.71-3.75-1.65-3.71-3.71-3.71-3.75,1.64-3.75,3.71Z"/>
      <path class="cls-1" d="M338.83,21.14c-3.5,1.82-8.26,4.34-14.67,7.25-.07,.42-.39,.81-.73,.95l-1.51-2.97c1.16-.28,2.98-.88,5.15-1.61l-.35-22.79,3.5,.28c-.03,.49-.31,.88-1.23,1.01l.35,20.72c2.8-.98,6.06-2.17,9.31-3.36l.17,.52Zm13.2-18.66c-.11,.53-.53,.91-1.3,1.02-.35,7.25-1.02,13.44-4.8,18.62,10.43,5.5,9.1,11.45,6.2,9.59-1.09-2.73-4.13-6.27-6.76-8.86-2.94,3.64-7.53,6.75-14.81,9.38l-.39-.67c16.21-7.18,17.75-16.38,18.06-29.54l3.78,.46Zm-17.92,3.4c9.84,4.06,8.3,9.8,5.53,8.02-.88-2.49-3.75-5.74-5.88-7.74l.35-.28Z"/>
      <path class="cls-1" d="M386.38,6.86c-.24,.28-.84,.56-1.54,.7V31.22c-.07,.28-1.16,.91-2,.91h-.35v-2.35h-16.63v1.51c0,.31-.88,.91-1.89,.91h-.42V4.87l2.56,1.19h5.08c.6-1.79,1.12-4.13,1.37-5.85l3.99,.7c-.11,.46-.49,.77-1.23,.8-.7,1.29-1.86,2.94-3.05,4.34h9.87l1.33-1.5,2.91,2.31Zm-20.51,.25v6.37h16.63V7.11h-16.63Zm0,7.38v6.55h16.63v-6.55h-16.63Zm16.63,14.28v-6.69h-16.63v6.69h16.63Z"/>
      <path class="cls-1" d="M405.23,1.37c-.18,.42-.63,.7-1.4,.66-1.15,3.19-2.63,6.2-4.24,8.89l2.07,.77c-.14,.32-.46,.56-1.08,.63V31.5c-.04,.17-.95,.77-1.86,.77h-.42V12.95c-1.4,2.06-2.91,3.88-4.48,5.39l-.52-.35c3.15-4.24,6.41-10.99,8.3-17.78l3.64,1.16Zm17.64,26.08s2.07,1.58,3.29,2.73c-.11,.39-.42,.56-.91,.56h-22.89l-.28-1.05h10.22v-10.57h-8.05l-.28-1.02h8.33V9.21h-9.14l-.28-1.01h17.61l1.72-2.14s1.93,1.51,3.15,2.59c-.1,.38-.46,.56-.94,.56h-9.73v8.89h5.22l1.61-2.03s1.89,1.43,3.01,2.48c-.07,.39-.42,.56-.91,.56h-8.93v10.57h6.44l1.75-2.24ZM409.36,.52c8.86,2.34,7.63,7.81,5.01,6.37-.8-2.06-3.36-4.62-5.39-6.05l.39-.32Z"/>
      <path class="cls-1" d="M461.84,20.23c-.24,.25-.67,.42-1.36,.49-.53,5.57-1.75,9.28-3.33,10.5-.95,.7-2.21,1.05-3.57,1.05,0-.63-.14-1.23-.59-1.54-.46-.38-1.72-.7-2.94-.88v-.63c1.33,.14,3.68,.32,4.45,.32,.63,0,.95-.07,1.3-.32,.98-.77,2-4.03,2.49-8.75h-22.23c-1.93,1.93-4.06,3.71-6.51,5.21l-.42-.42c5.71-4.23,9.8-10.29,12.5-16.56h-9.87l-.32-.98h10.61c1.05-2.59,1.89-5.22,2.49-7.74l3.64,.98c-.17,.49-.49,.7-1.44,.67-.59,1.96-1.36,4.03-2.28,6.09h6.86l1.09-1.16,2.21,1.93c-.25,.24-.56,.35-1.12,.38l-.98,4.62h2l1.05-1.12,2.21,1.89c-.24,.28-.56,.35-1.12,.38l-.84,4.76h2.2l1.3-1.29,2.56,2.1Zm-25.73,2.94c.98,4.03-.74,6.48-2.14,7.39-.95,.59-2.14,.67-2.52-.07-.31-.7,.14-1.37,.84-1.82,1.54-.74,3.19-2.91,3.22-5.46l.6-.04Zm-.98-22.82c7.14,2.59,5.22,7.49,2.94,5.78-.35-1.82-1.96-4.13-3.33-5.5l.39-.28Zm5.64,14.18c-1.12,1.72-2.35,3.36-3.75,4.9h16.7l.91-4.9h-13.86Zm-.81,8.44c4.52,4.48,1.75,8.72,.03,6.51,.35-2.03,0-4.62-.52-6.41l.49-.1Zm4.03-14.25c-.74,1.61-1.61,3.22-2.56,4.8h8.89l1.09-4.8h-7.42Zm.42,13.86c6.02,2.8,3.85,7.25,1.82,5.46-.07-1.71-1.19-3.88-2.24-5.21l.42-.25Zm4.94-.52c6.44,1.29,5.08,5.64,2.94,4.31-.46-1.37-2.03-3.12-3.29-4.06l.35-.25Z"/>
      <path class="cls-1" d="M471.86,12.43c6.2,3.04,4.38,7.04,2.38,5.46-.32-1.44-1.4-3.33-2.38-4.66V31.36c0,.31-.95,.84-1.68,.84h-.46V15.96c-1.09,2.98-2.56,5.74-4.48,8.16l-.52-.49c2.31-3.96,3.75-9.03,4.48-14.11h-3.75l-.28-1.05h4.55V.07l3.4,.42c-.1,.49-.39,.84-1.26,.98v7h.81l1.44-1.93s1.68,1.4,2.66,2.42c-.07,.38-.39,.56-.88,.56h-4.03v2.91Zm3.19,18.34c2.28-1.89,4.45-4.9,5.39-7.14l3.22,1.61c-.18,.35-.45,.53-1.26,.39-1.51,1.89-4.1,4.2-6.97,5.6l-.39-.46Zm1.19-27.37l-.28-1.05h16.63l1.61-1.96s1.79,1.37,2.87,2.45c-.07,.39-.42,.56-.88,.56h-6.34v3.61h2.94l1.23-1.29,2.73,2.03c-.25,.28-.81,.56-1.51,.7v6.34c-.04,.21-1.09,.7-1.79,.7h-.31v-1.15h-13.62v1.26c0,.21-.91,.63-1.72,.63h-.31V5.98l2.24,1.02h3.12V3.39h-6.62Zm18.24,16.14s1.79,1.37,2.94,2.38c-.11,.38-.46,.56-.95,.56h-9v9.21c0,.14-.77,.56-1.89,.56h-.35v-9.77h-8.82l-.28-1.01h16.8l1.54-1.93Zm-2.28-4.1s1.79,1.33,2.87,2.35c-.11,.38-.42,.56-.88,.56h-15.68l-.24-1.05h12.39l1.54-1.86Zm-12.67-2.17h3.33v-5.25h-3.33v5.25Zm8.4-9.87h-3.15v3.61h3.15V3.39Zm-3.15,9.87h3.15v-5.25h-3.15v5.25Zm5.04,11.03c8.75,2.62,7.49,7.98,4.94,6.48-.7-2.1-3.26-4.66-5.29-6.12l.35-.35Zm.03-16.28v5.25h3.29v-5.25h-3.29Z"/>
      <path class="cls-1" d="M.32,54.58c6.76,.74,5.36,5.32,3.05,4.09-.53-1.36-2.07-2.94-3.36-3.78l.32-.32Zm28.53,16.38s2,1.5,3.26,2.66c-.11,.38-.46,.56-.95,.56h-13.9v7.11c0,.28-1.05,.77-1.86,.77h-.46v-7.88H.52l-.31-1.05H14.95v-3.33l3.29,.35c-.07,.38-.31,.66-.98,.8v2.17h9.84l1.75-2.17ZM2.42,63.54c.42,0,.53,0,.95-.59q.74-.88,6.79-9.59l.63,.25c-1.44,2.52-4.62,7.91-5.18,8.96-.39,.8-.7,1.64-.7,2.31,.03,1.16,.84,2.49,.74,4.62-.07,1.26-.63,2-1.68,2-.56,0-.91-.53-.98-1.47,.35-3.05,.18-4.87-.6-5.25-.45-.28-.91-.39-1.61-.46v-.77h1.65Zm.84-13.41c6.9,.98,5.5,5.64,3.15,4.34-.53-1.37-2.14-3.12-3.5-4.03l.35-.32Zm4.1,11.45c2.24-2.77,4.41-7.21,5.64-11.8l3.43,1.16c-.18,.39-.6,.7-1.3,.66-.42,1.02-.88,1.93-1.4,2.87h7.42c-.18-.04-.39-.14-.56-.28-.28-1.4-1.51-3.15-2.56-4.09l.39-.28c4.97,1.19,4.8,4.24,3.4,4.66h5.29l1.61-1.96s1.82,1.37,2.98,2.45c-.1,.39-.45,.56-.94,.56h-8.61v3.15h4.06l1.51-1.85s1.68,1.33,2.77,2.34c-.11,.39-.42,.56-.91,.56h-7.42v3.33h4.2l1.47-1.89s1.72,1.33,2.77,2.34c-.1,.39-.42,.56-.91,.56h-7.53v3.4h5.5l1.61-2s1.79,1.44,2.94,2.49c-.1,.38-.42,.56-.91,.56H13.27v1.12c0,.17-.73,.77-1.86,.77h-.35v-11.8c-1.02,1.29-2.07,2.42-3.22,3.33l-.49-.35Zm12.57-6.06h-6.65v3.15h6.65v-3.15Zm0,4.2h-6.65v3.33h6.65v-3.33Zm0,4.34h-6.65v3.4h6.65v-3.4Z"/>
      <path class="cls-1" d="M40.37,69.14c1.89-1.12,2.77-2.55,3.15-4.27-1.65-.74-2.52-1.54-2.52-2.73,0-1.08,.74-2,2.03-2,1.44,0,2.35,1.09,2.35,3.04,0,2.28-1.05,5.36-4.41,7l-.6-1.05Z"/>
      <path class="cls-1" d="M68.99,64.03c-1.75,.88-3.89,1.96-6.41,3.18v11.24c0,1.96-.38,3.19-3.82,3.54-.14-.77-.35-1.4-.88-1.75-.56-.46-1.54-.73-3.26-.98v-.56s3.99,.31,4.8,.31c.66,0,.88-.21,.88-.8v-9.87c-1.47,.73-3.08,1.47-4.83,2.28-.11,.38-.39,.77-.7,.91l-1.26-2.94c1.33-.35,3.82-1.12,6.79-2.13v-7.42h-5.88l-.24-1.05h6.13v-8.02l3.54,.38c-.11,.53-.46,.88-1.26,.98v6.65h1.96l1.47-1.93s1.68,1.4,2.66,2.42c-.07,.38-.35,.56-.84,.56h-5.25v6.65c2-.67,4.1-1.4,6.23-2.17l.18,.53Zm14.39-12.04s1.89,1.51,3.05,2.63c-.11,.35-.42,.52-.88,.52h-6.02v22.93c0,1.89-.49,3.29-4.17,3.64-.07-.74-.39-1.37-.95-1.75-.67-.42-1.75-.74-3.75-.98v-.56s4.62,.35,5.57,.35c.77,0,.98-.21,.98-.81v-22.82h-10.75l-.28-1.01h15.54l1.65-2.14Z"/>
      <path class="cls-1" d="M101.41,67.22c-.21,.28-.6,.35-1.37,.39-.77,2.59-2.21,5.42-4.41,7.63,.18,.07,.35,.21,.53,.38,3.08,3.08,7.04,3.57,13.93,3.57,4.1,0,7.6-.03,11.9-.21v.46c-1.05,.17-1.61,.88-1.75,1.82h-10.85c-7.11,0-10.5-.98-13.69-4.66-.42-.49-.77-.42-1.05,0-.67,1.05-2,3.08-2.84,4.48,.1,.28,.07,.53-.18,.74l-1.96-2.35c1.3-1.02,3.29-3.01,4.48-3.89,1.68-2.21,3.01-5.36,3.61-8.08h-3.89l-.98,.8-1.96-1.82c.35-.18,.88-.38,1.4-.53,1.16-1.68,2.8-4.2,3.82-6.09h-5.88l-.31-1.02h6.65l1.3-1.29,2.66,2.34c-.42,.39-1.33,.56-2.28,.53-1.02,1.65-2.7,4.2-3.96,6.02h3.33l1.37-1.29,2.38,2.06Zm-9.56-16.91c7.49,2.03,5.85,7.07,3.43,5.53-.46-1.75-2.31-3.96-3.78-5.22l.35-.31Zm12.99,6.27c-.98,1.82-2.17,3.46-3.5,4.69l-.53-.32c1.54-2.52,2.94-6.3,3.64-10.15l3.47,1.02c-.14,.38-.53,.73-1.26,.7-.39,1.05-.81,2.03-1.26,3.01h4.17v-5.53l3.5,.35c-.07,.49-.42,.84-1.26,.98v4.2h2.98l1.61-2s1.82,1.4,2.98,2.48c-.07,.39-.42,.56-.91,.56h-6.65v5.39h4.9l1.61-2.1s1.86,1.5,3.01,2.59c-.11,.38-.42,.56-.95,.56h-19.81l-.28-1.05h9.28v-5.39h-4.73Zm11.1,20.44v-2.17h-10.92v1.68c0,.21-.98,.74-1.93,.74h-.32v-12.01l2.42,1.08h10.43l1.23-1.33,2.66,2.1c-.21,.25-.74,.52-1.37,.63v8.47c-.03,.25-1.12,.81-1.86,.81h-.35Zm0-3.19v-6.44h-10.92v6.44h10.92Z"/>
      <path class="cls-1" d="M151.17,64.24l2.21-2.91s2.56,2.07,4.1,3.54c-.1,.42-.49,.56-1.05,.56h-30.45l-.35-1.19h25.55Z"/>
      <path class="cls-1" d="M166.23,64.42c0,5.32-.25,12.6-4.55,17.71l-.52-.38c2.66-5.18,2.84-11.52,2.84-17.29v-8.96l2.66,1.12h8.58v-6.58l3.57,.38c-.07,.49-.42,.84-1.3,.95v1.96h7l1.72-2.1s1.93,1.47,3.12,2.59c-.07,.38-.42,.56-.91,.56h-10.92v2.24h11.69l1.37-1.4,2.56,2.49c-.21,.25-.63,.32-1.3,.35-.84,.91-2.38,2.31-3.43,3.08l-.49-.25c.38-.84,.91-2.14,1.33-3.22h-23v6.76Zm13.23,5.04c-.28,.28-.63,.39-1.37,.42-.98,2.73-2.35,5.11-4.38,7.11,2.45,1.96,5.71,2.41,10.29,2.41,2.17,0,6.97,0,9.24-.04v.49c-.77,.11-1.23,.77-1.26,1.61h-8.16c-5.08,0-8.58-.77-11.1-3.57-2.1,1.75-4.87,3.12-8.33,4.09l-.32-.59c3.26-1.16,5.78-2.77,7.7-4.73-.84-1.22-1.51-2.73-2.14-4.66-.95,1.47-2,2.8-3.22,3.85l-.49-.35c2.1-2.52,3.82-6.93,4.59-10.47l3.19,.63c-.14,.38-.39,.52-1.26,.52-.28,.81-.59,1.58-.98,2.42h4.34l1.33-1.3,2.31,2.13Zm-.84-3.29c-2.87,0-3.4-.45-3.4-2.1v-1.64l-7.25,.73-.35-1.01,7.6-.77v-3.29l3.19,.38c-.04,.38-.38,.7-.98,.8v1.89l4.8-.49,1.33-2.03s1.86,1.23,2.98,2.07c-.04,.38-.35,.63-.81,.66l-8.3,.84v1.58c0,.42,.11,.56,1.51,.56h4.13c1.65,0,3.26,0,3.75-.04,.31-.04,.63-.04,.8-.07,.25,0,.6-.07,.81-.14h.49c.77,.25,1.09,.39,1.09,.88,0,.98-1.05,1.19-7.11,1.19h-4.27Zm-7.63,3.5c-.28,.56-.56,1.15-.88,1.64,.67,1.96,1.47,3.4,2.45,4.55,1.51-1.79,2.59-3.88,3.33-6.2h-4.9Zm16.38,7.56c-1.72,0-1.96-.53-1.96-1.79v-6.16h-3.19v.7c0,2.24-.49,5.64-4.87,7.74l-.39-.49c2.84-2.28,3.19-4.9,3.19-7.25v-2.87l2.49,1.12h2.45l1.19-1.19,2.35,2.06c-.21,.25-.6,.38-1.19,.49v5.39c0,.35,.07,.42,.53,.42h1.96c.18-.04,.31-.04,.42-.25,.17-.25,.49-1.26,.7-2.24h.42l.1,2.28c.63,.25,.77,.46,.77,.84,0,.84-.77,1.19-3.47,1.19h-1.51Z"/>
      <path class="cls-1" d="M206.74,54.79s1.65,1.29,2.66,2.28c-.1,.38-.42,.56-.91,.56h-11.55l-.24-1.02h8.61l1.44-1.82Zm-2.38,6.23l1.33-1.64s1.47,1.22,2.45,2.13c-.1,.38-.42,.56-.91,.56h-8.89l-.28-1.05h6.3Zm1.33,2.84s1.47,1.19,2.45,2.1c-.1,.38-.42,.56-.91,.56h-8.89l-.28-1.02h6.3l1.33-1.64Zm2.8,6.79c-.21,.25-.77,.53-1.43,.67v8.47c-.04,.21-1.05,.74-1.79,.74h-.32v-1.54h-4.48v2c0,.21-.88,.74-1.75,.74h-.35v-12.81l2.28,1.01h3.96l1.23-1.29,2.66,2.03Zm-8.47-20.27c6.69,1.92,4.83,6.44,2.52,4.9-.42-1.54-1.82-3.46-2.91-4.66l.39-.24Zm4.94,27.58v-7.04h-4.48v7.04h4.48Zm21.77-8.4s1.51,1.16,2.45,2.07c-.07,.38-.42,.56-.91,.56h-9.77c.73,1.23,1.61,2.38,2.7,3.4,1.02-1.01,2.31-2.45,3.08-3.33l2.38,1.96c-.14,.28-.45,.35-1.12,.14-.88,.49-2.49,1.19-3.75,1.72,1.89,1.61,4.17,2.73,6.69,3.36v.38c-.84,.18-1.51,.8-1.72,1.82-4.41-1.68-7.42-4.79-9.1-9.45h-.35c-.7,.74-1.47,1.4-2.35,2v4.62c1.33-.42,2.87-.98,4.41-1.58l.21,.49c-1.12,.77-3.54,2.42-5.99,3.85-.21,.28-.49,.49-.7,.6l-1.19-2.49c1.05-.46,1.23-.67,1.23-1.16v-3.08c-1.58,.84-3.36,1.54-5.22,2.1l-.35-.59c2.8-1.19,5.25-2.87,7-4.76h-6.06l-.28-1.05h5.25v-2.52h-3.64l-.28-1.05h3.92v-2.17h-4.38l-.28-1.05h4.66v-2.17l3.15,.35c-.03,.42-.35,.73-1.08,.88v.95h4.48v-1.86c-.25,.07-.49,.1-.74,.1h-.32v-6.83l2.03,.95h3.12l1.05-1.05,2.31,1.71c-.18,.21-.67,.49-1.23,.56v3.78c-.03,.21-.95,.67-1.57,.67h-.28v-.7h-3.57v.35s-.1,.14-.24,.21l2.45,.28c-.03,.38-.31,.7-.98,.8v1.02h2.56l1.26-1.51s1.44,1.08,2.35,2c-.11,.39-.42,.56-.91,.56h-5.25v2.17h1.89l1.15-1.43s1.33,1.05,2.21,1.92c-.07,.38-.39,.56-.88,.56h-4.38v2.52h3.57l1.3-1.58Zm-18.27-15.79h9.66c-.21-.04-.42-.14-.66-.31-.21-1.22-1.26-2.84-2.14-3.68l.39-.28c4.62,1.15,4.31,3.96,2.94,4.27h6.02l1.47-1.82s1.68,1.26,2.73,2.31c-.07,.38-.42,.56-.88,.56h-19.29l-.24-1.05Zm6.83,8.61v-.7h-3.54v.53c0,.17-.81,.56-1.54,.56h-.28v-7l2,.95h3.08l1.05-1.05,2.28,1.71c-.18,.21-.67,.49-1.23,.56v3.78c-.03,.21-.91,.67-1.54,.67h-.28Zm0-1.71v-2.91h-3.54v2.91h3.54Zm.07,6.9h4.48v-2.17h-4.48v2.17Zm2.63,3.57h1.86v-2.52h-4.48v2.45h2.45v.07l.14-.07,.03,.07Zm2.66-13.37v2.91h3.57v-2.91h-3.57Z"/>
      <path class="cls-1" d="M252.61,52.13c-.39,.38-1.23,.63-2.38,.7,2.56,3.6,8.72,7.7,15.02,9.8l-.07,.39c-1.05,.21-1.96,1.01-2.28,1.99-5.64-2.83-11.1-7.32-13.72-12.29-3.61,5.67-9.87,10.57-16.56,13.55l-.28-.45c5.6-3.22,10.92-8.23,13.62-13.09h-7.39l-.28-1.01h9.98l1.12-1.71,3.22,2.13Zm8.3,25.66s1.93,1.54,3.15,2.66c-.1,.35-.42,.52-.95,.52h-28.98l-.31-.98h13.55v-7.53h-9.7l-.28-1.01h9.98v-6.55h-8.75l-.24-1.01h16.24l1.54-1.89s1.82,1.33,2.94,2.35c-.11,.38-.39,.56-.88,.56h-8.51v6.55h6.44l1.65-1.96s1.86,1.4,3.05,2.45c-.11,.35-.42,.52-.91,.52h-10.22v7.53h9.42l1.79-2.21Z"/>
      <path class="cls-1" d="M273.03,55.63c.04,2.21-.91,3.61-1.93,4.27-.84,.59-2.07,.63-2.45-.21-.31-.73,.14-1.37,.88-1.79,1.36-.77,2.63-2.7,2.45-4.9l.63-.04c.18,.56,.28,1.09,.35,1.61h23.1l1.4-1.47,2.73,2.55c-.28,.28-.67,.31-1.33,.38-.8,.98-2.14,2.42-3.22,3.26l-.46-.28c.35-.84,.74-2.27,1.02-3.4h-23.17Zm24.57,8.68c-.28,.31-.56,.42-1.33,.14-1.82,1.19-4.69,2.52-7.63,3.64,2.17,4.66,6.69,7.81,11.8,9.45l-.07,.39c-.91,.14-1.64,.8-2.03,1.92-4.9-2.31-8.58-6.09-10.43-11.52-.7,.24-1.4,.49-2.07,.7,2.21,4.73,1.72,9.87-.1,11.83-.7,.84-1.93,1.26-3.89,1.22-.03-.73-.32-1.19-.74-1.47-.46-.31-1.72-.7-2.98-.88l-.03-.59c1.44,.14,3.96,.28,4.8,.28,.49,0,.77-.07,.98-.35,.95-1.09,1.37-3.61,.95-6.51-3.96,3.33-9.91,6.3-15.65,7.95l-.28-.63c5.78-2.1,11.9-6.02,15.23-10.29-.24-.66-.49-1.29-.77-1.96-3.43,2.56-8.72,5.18-13.44,6.65l-.28-.59c4.52-1.82,9.56-5.11,12.46-8.23-.39-.56-.8-1.08-1.29-1.61-3.08,1.86-6.65,3.29-10.4,4.38l-.31-.56c4.45-1.82,8.72-4.41,11.69-7.07h-8.19l-.28-1.02h17.99l1.54-1.96s1.79,1.37,2.94,2.41c-.07,.39-.42,.56-.91,.56h-9.66c-1.12,1.05-2.38,1.96-3.78,2.87,1.82,1.43,3.15,3.15,4.1,4.93,3.33-1.71,7.21-4.31,9.21-6.2l2.87,2.1Zm-15.72-14.46c6.58,.91,4.8,5.74,2.42,4.2-.28-1.37-1.58-3.05-2.77-3.89l.35-.31Z"/>
      <path class="cls-1" d="M321.56,51.15c-.07,.49-.32,.8-1.19,.95,.77,12.88,3.85,21.98,15.96,27.58l-.07,.38c-1.23,.14-2.1,.63-2.52,1.92-9.38-5.18-12.53-13.27-13.65-23.66-.67,8.4-3.19,17.22-15.61,23.7l-.42-.59c13.9-8.68,13.79-20.02,13.83-30.7l3.68,.42Z"/>
      <path class="cls-1" d="M352.03,53.43s1.19,.91,2.21,1.82c.77-1.37,1.47-2.77,2.03-4.1l3.15,1.51c-.25,.42-.6,.56-1.47,.38-1.37,2.66-3.22,5.5-5.53,8.23h2.1l1.58-2s1.82,1.4,2.91,2.49c-.1,.38-.42,.56-.91,.56h-6.58c-1.26,1.37-2.63,2.73-4.1,3.99h5.53l1.3-1.37,2.73,2.14c-.21,.25-.8,.56-1.47,.7v12.71c-.04,.21-1.16,.73-1.86,.73h-.35v-2.41h-7.6v2.21c0,.21-.7,.77-1.79,.77h-.35v-12.53c-1.3,.88-2.66,1.68-4.1,2.41l-.35-.49c1.54-.95,3.05-2.03,4.45-3.22v-2.59l2,.84c1.33-1.23,2.56-2.56,3.68-3.89h-9.42l-.28-1.05h6.86v-4.87h-5.5l-.28-1.05h5.78v-5.15l3.5,.39c-.07,.49-.42,.84-1.3,.94v3.82h1.96l1.47-1.93Zm-5.92,13.93l-.42,.35v4.24h7.6v-4.59h-7.18Zm7.18,10.4v-4.76h-7.6v4.76h7.6Zm-3.19-16.49c1.3-1.58,2.42-3.22,3.43-4.87h-4.94v4.87h1.51Zm22.19-7.35c-.28,.31-.77,.38-1.61,.38-1.23,2.35-3.57,6.69-5.15,8.96,4.13,2.91,5.67,6.06,5.67,8.86,0,3.43-1.37,5.08-5.08,5.29,0-.77-.18-1.5-.46-1.79-.32-.25-1.19-.46-2.14-.52v-.56h3.29c.42,0,.63-.04,.98-.21,.7-.39,1.05-1.19,1.05-2.63,0-2.66-1.12-5.53-4.2-8.4,1.02-2.28,2.56-6.65,3.54-9.59h-6.09v27.51c0,.21-.74,.84-1.89,.84h-.31v-30.73l2.63,1.37h5.6l1.47-1.44,2.7,2.66Z"/>
      <path class="cls-1" d="M387.92,62.14l2.91,2.14c-.21,.24-.8,.59-1.51,.7v13.93c0,1.82-.32,2.87-3.12,3.19-.07-.7-.21-1.26-.6-1.64-.35-.35-1.02-.63-2.21-.81v-.56s2.49,.17,3.08,.17c.52,0,.66-.17,.66-.59v-5.11c-1.75,.98-3.75,1.93-6.06,2.77-.11,.42-.39,.73-.7,.84l-.88-1.82c-.49,2.52-1.51,5.04-3.75,7l-.46-.42c2.35-3.54,2.49-7.88,2.49-12.04v-7.53l2.56,1.12h6.48l1.08-1.33Zm-2-7.63c7.74,3.22,5.88,8.61,3.61,6.79-.11-.81-.42-1.68-.91-2.56-2.73,.67-6.69,1.51-10.99,2.24-.21,.35-.49,.56-.74,.67l-1.15-2.94s.59-.1,.8-.24c2.28-1.79,5.11-6.16,6.16-8.47l3.26,1.5c-.18,.25-.59,.56-1.3,.46-1.54,2.07-4.13,4.8-6.55,6.76,2.56-.14,6.27-.42,10.12-.73-.77-1.19-1.79-2.38-2.7-3.22l.39-.24Zm-5.99,15.33c0,1.43-.04,3.01-.28,4.62,2.07-.35,4.9-1.01,7.49-1.86v-8.09h-7.21v3.19c6.48-1.01,8.05,3.33,5.67,3.08-1.37-.98-3.22-1.82-5.67-2.21v1.26Zm16.42-5.01c-2.7,0-3.26-.52-3.26-2.31v-12.25l3.33,.35c-.03,.46-.39,.77-1.09,.88v4.03h6.13l1.33-1.72s1.51,1.26,2.45,2.17c-.1,.39-.42,.56-.91,.56h-9v5.5c0,.59,.14,.77,1.44,.77h3.43c1.36,0,2.7-.04,3.15-.04,.32-.04,.6-.07,.74-.1,.21,0,.56-.07,.8-.14h.32l.14,.04c.81,.24,1.12,.46,1.12,.91,0,1.01-1.12,1.36-6.48,1.36h-3.64Zm9.38,14.07c.77,.25,1.02,.49,1.02,.95,0,1.05-1.16,1.44-6.62,1.44h-3.68c-2.77,0-3.36-.56-3.36-2.35v-13.06l3.36,.39c-.07,.42-.39,.77-1.09,.88v3.33h6.51l1.36-1.71s1.51,1.22,2.45,2.17c-.1,.38-.42,.56-.88,.56h-9.45v6.96c0,.6,.18,.77,1.47,.77h3.4c1.54,0,2.77,0,3.22-.04,.42-.03,.56-.14,.7-.38,.28-.46,.67-2.03,1.02-3.64h.46l.1,3.75Z"/>
      <path class="cls-1" d="M442.89,56.68c-.21,.28-.63,.31-1.3,.35-.84,1.16-2.31,2.77-3.5,3.75l-.46-.25c.39-1.05,.84-2.62,1.16-3.92h-23.28c.18,2.17-.56,3.68-1.44,4.38-.84,.67-2.07,.77-2.52-.07-.35-.77,.11-1.5,.84-1.96,1.23-.84,2.17-3.01,1.86-5.18l.6-.04c.25,.63,.42,1.23,.53,1.82h23.24l1.51-1.54,2.77,2.66Zm-3.19,6.54s1.93,1.47,3.12,2.56c-.11,.38-.39,.56-.88,.56h-7.25c-.91,3.57-2.49,6.65-5.32,9.14,13.09,3.96,10.08,7.67,7.39,6.2-2.28-1.58-5.46-3.15-9.31-4.73-3.43,2.31-8.23,3.99-15.09,5.04l-.21-.52c5.95-1.29,10.26-3.05,13.34-5.25-2.84-1.08-6.02-2.1-9.45-3.01,1.02-1.65,2.42-4.2,3.75-6.86h-7.46l-.31-1.01h8.26c1.44-2.91,2.66-5.74,3.29-7.49l3.68,1.29c-.21,.35-.53,.67-1.47,.56-.66,1.44-1.68,3.5-2.8,5.64h9.35c.32-1.37,.49-2.76,.63-4.27l3.82,.91c-.21,.6-.7,.8-1.37,.77-.14,.91-.28,1.75-.46,2.59h3.05l1.72-2.1Zm-17.22,3.12c-1.26,2.31-2.59,4.69-3.75,6.58,3.29,.63,6.09,1.26,8.44,1.89,2.59-2.34,4.06-5.18,4.9-8.47h-9.59Zm2.14-16.63c7.46,1.86,5.29,7.04,2.77,5.15-.28-1.61-1.75-3.68-3.08-4.83l.32-.32Z"/>
      <path class="cls-1" d="M451.55,60.67c1.51,6.12-.04,10.4-1.37,12.36-.81,1.23-2.17,1.89-2.91,1.23-.6-.49-.39-1.4,.21-2.17,1.86-1.86,3.5-6.55,3.43-11.38l.63-.04Zm7.81-4.03c-.03,.45-.38,.8-1.23,.95v19.43c0,.91,.35,1.26,2.31,1.26h4.94c2.31,0,3.96-.03,4.66-.1,.56-.07,.77-.25,.91-.63,.32-.7,.81-3.08,1.33-5.95h.46l.1,6.23c.91,.28,1.16,.56,1.16,1.05,0,1.23-1.47,1.65-8.68,1.65h-5.08c-3.36,0-4.38-.66-4.38-2.94v-21.35l3.5,.42Zm6.44,3.08c-.7-2.91-3.43-6.79-5.57-9.21l.42-.28c9.7,5.32,7.91,11.59,5.15,9.49Zm11.06,13.48c-.56-3.08-1.93-8.26-5.01-11.69l.39-.31c9.28,6.86,7,14.56,4.62,12.01Z"/>
      <path class="cls-1" d="M485.23,62.14c3.4,1.3,5.57,2.87,6.83,4.69,.49,.77,.84,1.68,.77,2.52-.03,.67-.46,1.19-1.16,1.19-.63,0-1.02-.49-1.51-1.58-1.16-2.28-2.77-4.24-5.36-6.23l.42-.59Z"/>
      <path class="cls-1" d="M252.94,113.79c-.25,.31-.67,.49-1.44,.56-.28,10.04-1.09,14.6-2.52,16.07-.88,.91-2.1,1.26-3.36,1.26,0-.67-.07-1.26-.49-1.61-.39-.35-1.37-.63-2.28-.81v-.63c1.02,.1,2.7,.28,3.36,.28,.56,0,.84-.1,1.15-.42,1.02-.91,1.72-5.43,1.96-14.42h-5.25c-.53,6.83-1.89,12.81-6.2,17.78l-.39-.39c4.03-6.79,4.59-14.7,4.48-23.49h-4.2l-.25-1.05h12.36l1.61-1.99s1.79,1.4,2.91,2.48c-.11,.38-.42,.56-.91,.56h-9.17c-.04,1.71-.1,3.43-.18,5.08h4.87l1.3-1.4,2.63,2.13Zm-9.66-13.69c7,2.91,5.01,7.6,2.77,5.85-.42-1.79-1.93-4.13-3.15-5.6l.39-.25Zm23.77,8.58c-.88,5.39-2.42,10.08-5.18,14.04,2.03,2.91,4.69,5.32,8.23,7.07l-.1,.32c-1.05,.17-1.86,.7-2.17,1.79-3.15-1.96-5.43-4.55-7.14-7.56-2.49,3.01-5.85,5.53-10.26,7.49l-.31-.46c4.24-2.45,7.35-5.46,9.59-8.89-1.58-3.43-2.56-7.25-3.19-11.45-1.09,2.1-2.42,3.96-3.85,5.46l-.53-.31c2.49-4.06,4.48-10.05,5.36-16.35l3.78,.8c-.11,.42-.49,.77-1.3,.81-.52,2.17-1.19,4.27-1.93,6.2h7.28l1.61-2.07s1.89,1.47,3.05,2.56c-.07,.39-.46,.56-.95,.56h-2Zm-9.42,0c-.18,.42-.35,.8-.56,1.19,.77,3.99,1.86,7.7,3.64,10.85,1.93-3.54,3.08-7.6,3.68-12.04h-6.76Z"/>
      <path class="cls-1" d="M277.26,110.46c1.51,6.13-.04,10.4-1.37,12.36-.81,1.22-2.17,1.89-2.91,1.22-.6-.49-.39-1.4,.21-2.17,1.86-1.86,3.5-6.55,3.43-11.38l.63-.03Zm7.81-4.03c-.03,.45-.39,.8-1.23,.94v19.43c0,.91,.35,1.26,2.31,1.26h4.94c2.31,0,3.96-.04,4.66-.11,.56-.07,.77-.24,.91-.63,.32-.7,.81-3.08,1.33-5.95h.46l.1,6.23c.91,.28,1.15,.56,1.15,1.05,0,1.22-1.47,1.64-8.68,1.64h-5.08c-3.36,0-4.38-.67-4.38-2.94v-21.35l3.5,.42Zm6.44,3.08c-.7-2.91-3.43-6.79-5.57-9.21l.42-.28c9.7,5.32,7.91,11.59,5.15,9.49Zm11.06,13.48c-.56-3.08-1.93-8.26-5.01-11.69l.39-.32c9.28,6.86,7,14.56,4.62,12.01Z"/>
      <path class="cls-1" d="M322.45,106.75c-.18,.28-.77,.56-1.47,.7v21.46c-.03,.25-1.12,.84-1.86,.84h-.35v-2.7h-7.32v2.91c0,.24-.84,.8-1.79,.8h-.39v-25.94l2.35,1.16h1.16c.45-1.79,1.02-4.38,1.33-6.2l3.68,.88c-.18,.49-.6,.77-1.3,.77-.7,1.3-1.72,3.12-2.56,4.55h4.48l1.29-1.44,2.73,2.21Zm-10.99,.28v8.75h7.32v-8.75h-7.32Zm7.32,19.01v-9.24h-7.32v9.24h7.32Zm20.76-19.29c-.25,.28-.67,.49-1.44,.56-.24,12.95-.88,20.72-2.52,22.75-.98,1.19-2.35,1.71-4.06,1.71,0-.77-.14-1.44-.63-1.79-.56-.42-2.07-.81-3.5-1.05l.03-.63c1.58,.17,4.1,.39,4.94,.39,.74,0,.98-.07,1.36-.45,1.3-1.3,1.82-9.28,2.07-21.25h-8.54c-1.47,2.91-3.22,5.46-5.11,7.35l-.52-.32c2.28-3.43,4.45-8.86,5.64-14.25l3.57,1.09c-.14,.38-.52,.73-1.29,.7-.53,1.51-1.12,2.94-1.75,4.38h7.63l1.44-1.54,2.7,2.35Zm-14.32,6.44c8.4,3.82,6.37,9.49,3.85,7.49-.42-2.38-2.49-5.39-4.24-7.25l.39-.25Z"/>
      <path class="cls-1" d="M371.52,107.63s2.03,1.5,3.29,2.66c-.1,.38-.46,.56-.95,.56h-31.08l-.28-1.01h14.98v-4.73h-11.17l-.28-1.05h11.45v-4.27l3.5,.35c-.07,.45-.38,.77-1.16,.91v3.01h6.65l1.72-2.14s2,1.5,3.22,2.62c-.1,.39-.42,.56-.91,.56h-10.68v4.73h9.91l1.79-2.21Zm-.77,13.97s2,1.5,3.26,2.66c-.1,.39-.45,.56-.98,.56h-13.2v6.41c0,.14-.77,.63-1.96,.63h-.38v-7.04h-13.72l-.28-1.01h14v-5.57h-11.66l-.28-1.02h16.21c.98-1.82,1.96-4.34,2.45-6.2l3.85,.88c-.1,.46-.56,.77-1.26,.74-.94,1.4-2.52,3.19-4.03,4.58h4.59l1.79-2.17s2,1.51,3.22,2.62c-.11,.39-.46,.56-.95,.56h-11.59v5.57h9.14l1.79-2.21Zm-19.95-10.54c6.86,2.62,4.27,7.6,1.96,5.53-.11-1.79-1.3-3.96-2.35-5.32l.39-.21Z"/>
      <path class="cls-1" d="M385.1,115.26c6.65,2.66,5.11,6.75,3.12,5.36-.49-1.47-1.86-3.26-3.12-4.55v14.88c0,.24-.77,.88-1.86,.88h-.35v-14.56c-1.64,1.75-3.5,3.33-5.36,4.55l-.42-.35c3.82-3.36,7.67-8.82,9.42-13.27h-8.44l-.31-1.05h8.72l1.54-1.44,2.56,2.49c-.32,.28-.77,.32-1.54,.38-.95,2-2.31,4.13-3.96,6.16v.53Zm-3.26-15.37c6.97,2.35,4.94,6.97,2.73,5.25-.38-1.64-1.85-3.75-3.08-5l.35-.25Zm24.78,.49s1.86,1.44,3.01,2.52c-.11,.39-.42,.56-.91,.56h-18.41l-.28-1.05h15.02l1.58-2.03Zm.03,15.3l2.73,2.13c-.21,.28-.77,.56-1.47,.7v12.36c-.04,.21-1.12,.73-1.86,.73h-.35v-1.79h-12.95v1.23c0,.25-.91,.77-1.82,.77h-.35v-15.86l2.35,1.09h12.43l1.3-1.37Zm-2.59-1.19v-1.16h-9.38v.84c0,.18-.98,.66-1.86,.66h-.32v-9.17l2.31,1.05h8.89l1.26-1.37,2.77,2.13c-.21,.28-.81,.56-1.47,.7v5.64c-.03,.21-1.15,.66-1.89,.66h-.32Zm-11.31,3.57v4.66h5.46v-4.66h-5.46Zm0,10.71h5.46v-5.04h-5.46v5.04Zm11.31-16.49v-4.51h-9.38v4.51h9.38Zm-3.78,5.78v4.66h5.43v-4.66h-5.43Zm5.43,10.71v-5.04h-5.43v5.04h5.43Z"/>
      <path class="cls-1" d="M412.71,103.95h6.3l-.56-4.13,3.29,.28c-.04,.42-.28,.77-1.02,.95l.42,2.91h3.05l1.58-2s1.72,1.43,2.84,2.45c-.1,.38-.46,.56-.94,.56h-6.37l.42,2.8c-.31,.42-1.09,.63-2.1,.63l-.46-3.43h-6.16l-.28-1.02Zm12.6,5.01c-.1,.49-.42,.84-1.3,.95v21.18c0,.28-.95,.77-1.75,.77h-.42v-9.84h-3.96c-.21,3.61-.94,7.18-4.48,9.77l-.52-.53c2.45-2.77,2.77-6.06,2.84-9.24h-2.42l-.31-1.01h8.86v-3.99h-4.34l-1.02,1.26-2.73-1.71c.28-.25,.81-.56,1.3-.81v-6.72l3.36,.39c-.07,.52-.42,.84-1.23,.94v5.64h4.66v-7.42l3.47,.39Zm16.03,5.67s1.89,1.51,3.08,2.62c-.11,.39-.46,.56-.95,.56h-8.3v11.41h3.75l1.68-2.14s1.89,1.51,3.08,2.63c-.1,.38-.42,.56-.91,.56h-16.63l-.28-1.05h7.04v-11.41h-7.88l-.28-1.05h8.16v-8.16l3.33,.35c-.07,.42-.35,.7-1.05,.8v7h4.48l1.68-2.13Zm.59-12.67s1.75,1.43,2.8,2.45c-.07,.38-.42,.56-.91,.56h-7.63l-.49,2.73c-.39,.28-1.26,.39-2.14,.17l.49-2.9h-4.31l-.28-1.02h4.73l.66-4.17,3.29,.77c-.14,.46-.49,.77-1.36,.77l-.42,2.62h4.03l1.54-2Z"/>
      <path class="cls-1" d="M479.01,102.52c-.25,.32-.81,.56-1.51,.7v27.44c-.03,.21-1.12,.88-1.96,.88h-.31v-2.17h-23.07v1.54c0,.35-.84,.95-1.82,.95h-.42v-31.29l2.49,1.19h22.47l1.3-1.47,2.84,2.24Zm-3.78,25.83v-25.55h-23.07v25.55h23.07Zm-9.7-3.99c-1.33,.67-3.99,2.13-6.62,3.4-.14,.28-.32,.46-.49,.56l-1.51-1.89c.98-.67,1.16-.91,1.16-1.29v-2.77c-1.61,.77-3.4,1.4-5.22,1.89l-.35-.63c3.26-1.19,6.3-2.87,8.47-4.8h-2.84v.73c0,.18-.95,.6-1.72,.6h-.31v-7.6l2.21,.98h10.36l1.12-1.12,2.38,1.82c-.18,.21-.63,.46-1.12,.53v4.17c-.03,.21-1.09,.7-1.79,.7h-.32v-.8h-5.32c-.98,.94-2.17,1.75-3.5,2.52v1.58h-.03v2.52c1.51-.46,3.43-1.02,5.29-1.61l.14,.53Zm6.02-15.72s1.61,1.23,2.59,2.21c-.07,.39-.39,.56-.88,.56h-19.71l-.28-1.05h9.24v-2.59h-7.14l-.28-1.01h7.42v-3.05l3.15,.35c-.07,.42-.35,.7-1.02,.8v1.89h3.92l1.33-1.68s1.58,1.23,2.52,2.14c-.07,.38-.42,.56-.88,.56h-6.9v2.59h5.5l1.4-1.71Zm-13.41,9.17h10.82v-3.22h-10.82v3.22Zm4.94,2.52c2.03,.56,3.68,1.16,5.04,1.75,1.05-1.01,2.35-2.41,3.15-3.33l1.96,1.82c-.21,.28-.49,.31-1.09,.07-.81,.49-2.07,1.22-3.22,1.79,5.57,2.8,4.41,5.53,2.63,4.65-1.3-1.64-4.62-4.23-8.72-6.2l.24-.56Z"/>
      <path class="cls-1" d="M484.99,115.82c0-2.7,2.24-4.9,4.94-4.9s4.9,2.21,4.9,4.9-2.21,4.94-4.9,4.94-4.94-2.24-4.94-4.94Zm1.19,0c0,2.07,1.65,3.75,3.75,3.75s3.71-1.68,3.71-3.75-1.65-3.71-3.71-3.71-3.75,1.64-3.75,3.71Z"/>
    </g>
  </g>
</svg>