<?xml version="1.0" encoding="UTF-8"?>
<svg id="_圖層_2" data-name="圖層 2" xmlns="http://www.w3.org/2000/svg" viewBox="0 0 316.2 137.18">
  <defs>
    <style>
      .cls-1 {
        fill: #b37a5c;
      }
    </style>
  </defs>
  <g id="_圖層_1-2" data-name="圖層 1">
    <g>
      <path class="cls-1" d="M55.44,47.4c2.34,4.26,2.7,6.6,1.44,7.68-3.48,3.06-9.3,0-12.06-2.7-2.22-2.16-4.08-4.5-5.7-7.02-4.86,4.56-11.04,8.46-18.84,11.1l-.42-.66c6.9-4.2,12.24-9.84,16.2-15.96-3.6-7.68-5.22-16.32-5.94-25.56H14.76v9.36h5.4l4.02-3.84,6.9,5.76c-.42,.48-1.14,.9-2.34,1.08-.36,13.32-1.08,17.46-3.96,19.62-1.8,1.32-4.02,1.98-7.2,1.98,0-2.34-.12-4.2-.84-5.28-.72-1.08-1.74-1.8-3.6-2.34v-.3c-1.74,6.3-5.34,12.54-12.72,17.1l-.42-.42c5.64-9.36,6.06-21.36,6.06-31.56V9.24l9.96,3.36h13.98c-.24-4.08-.36-8.22-.36-12.42l10.74,1.02c-.06,.78-.6,1.5-2.16,1.74-.06,3.18-.06,6.42,.12,9.66h6.6l2.04-2.58c-.42-.12-.84-.24-1.26-.48-.84-2.76-3.18-5.76-5.22-7.44l.42-.36c10.68-1.26,12.48,3.96,10.44,6.72,1.74,1.38,4.26,3.3,6.06,4.86-.18,.66-.84,.96-1.74,.96h-17.28c.36,5.52,1.14,10.92,2.76,15.78,1.56-3.72,2.7-7.56,3.54-11.22l10.98,3.72c-.24,.72-.78,1.2-2.34,1.14-1.98,5.04-4.62,10.14-8.16,14.94,1.38,2.1,3,3.96,4.92,5.64,.84,.9,1.32,.9,2.04-.12,1.08-1.56,3.06-4.98,4.38-7.68l.54,.18-1.62,10.74ZM14.76,25.32v.12c0,4.32-.18,9.42-1.5,14.46,1.2,.12,3.3,.18,4.26,.18,.78,0,1.2-.12,1.56-.42,.96-.9,1.38-4.98,1.62-14.34h-5.94Z"/>
      <path class="cls-1" d="M120.6,46.98c1.74,.96,2.1,1.92,2.1,3.42,0,3-2.34,4.68-8.7,4.68h-2.94c-5.22,0-6-1.62-6-6.54v-13.08c-2.1,8.76-6.48,15.96-15.66,21.66l-.6-.84c8.16-10.02,9.72-21.96,9.96-36.9h-2.82l-.12-.42c-.42,.42-1.14,.9-2.22,1.08v9.96c-.06,.42-4.08,1.68-6.6,1.68h-1.38v-2.28h-.48v18.48c0,5.22-1.14,8.58-9.3,9.18-.12-2.46-.24-4.32-.96-5.46-.6-1.08-1.56-1.98-4.08-2.4v-.78s4.2,.3,5.22,.3c.78,0,1.02-.42,1.02-1.02v-9.36c-3.12,5.46-7.32,9.36-12,11.88l-.66-.48c2.28-3.9,4.38-9.9,5.4-15.9l7.26,2.4v-6.84h-.9v.72c0,.66-3.36,2.28-6.48,2.28h-1.08V13.98l7.86,3.06h8.58l3.54-3.84,7.14,5.28-.24-.78h3.3c.06-5.46-.06-11.34-.06-17.64l10.68,.96c-.18,.96-.78,1.5-2.22,1.74-.06,5.28-.06,10.26-.18,14.94h4.62l3.18-4.2c-1.14,0-2.34-.42-3.48-1.5,.06-3.24-1.02-6.72-2.28-9.18l.54-.24c11.22,2.46,10.44,9,6.9,10.62,1.44,1.14,4.32,3.48,6.24,5.22-.12,.66-.78,.96-1.68,.96h-7.98v26.82c0,.78,.12,1.08,.84,1.08h1.08c.42,0,.78,0,1.08-.06,.42,0,.78-.12,1.14-.72,.6-1.08,1.62-4.68,2.58-8.04h.6l.24,8.52ZM65.88,12.24l-.48-1.68h21.48l4.02-5.58s4.62,3.78,7.32,6.3c-.18,.66-.84,.96-1.74,.96h-30.6ZM75.06,.18c17.58-.06,11.28,13.5,3.96,8.88-.6-3.12-2.58-6.48-4.38-8.58l.42-.3Zm10.56,27.54v-9h-9.48v9h9.48Zm.9,6.9c14.76,5.1,6.72,16.08,1.14,10.32,.24-3.48-.66-7.32-1.74-10.08l.6-.24Z"/>
      <path class="cls-1" d="M164.16,20.64c-.18,.54-.66,.96-1.86,1.14V55.32c-.12,.48-4.02,1.8-7.2,1.8h-1.68V27.72c-6.42,7.26-14.46,13.62-23.64,18.06l-.36-.48c11.94-9.84,21.84-24.96,24.9-37.32h-23.64l-.48-1.68h42.18l4.98-6.3s5.58,4.2,8.94,7.02c-.18,.66-.84,.96-1.8,.96h-18.66c-1.5,3.72-3.48,7.5-5.82,11.1l4.14,1.56Zm0,2.64c28.44,4.02,24.3,22.56,14.88,17.94-3.18-6.18-9.72-13.14-15.36-17.52l.48-.42Z"/>
      <path class="cls-1" d="M216.78,1.2c-.12,.84-.54,1.44-2.22,1.68V54.3c0,.84-3.48,2.82-6.54,2.82h-1.56V31.2h-1.5c-.3,10.5-1.74,19.26-10.44,25.2l-.66-.78c3.72-6.9,3.6-15.12,3.54-24.42h-3.12l-.54-1.68h12.72v-7.92h-2.58l-1.8,2.4-7.2-3.12c.3-.48,.72-1.02,1.2-1.5V2.76l9.66,.96c-.12,.66-.66,1.14-2.16,1.38v14.82h2.88V.18l10.32,1.02Zm10.92,15.3c-1.56,1.56-4.14,4.02-7.74,7.14-.24,.84-.78,1.38-1.44,1.56l-3.6-6.96c2.28-.36,7.56-1.32,12.66-2.4l.12,.66Zm18.6,8.16s3.84,4.08,5.82,6.66c-.18,.66-.78,.96-1.62,.96h-7.8v15.48c0,5.46-1.32,8.4-10.5,9.18-.24-2.58-.6-4.38-1.68-5.58-1.08-1.2-2.4-2.1-5.88-2.7v-.72s7.2,.42,8.58,.42c.9,0,1.2-.3,1.2-1.02v-15.06h-18.66l-.48-1.68h19.14v-7.74c-5.04,2.88-11.16,5.1-18.54,6.54l-.42-.72c6.54-2.88,12.12-6.54,16.62-10.92-.96,.42-2.16,.42-3.48-.24-.54-2.1-2.16-4.38-3.84-5.94-2.94,1.98-6.06,3.72-9.24,4.86l-.42-.48c4.02-3.66,8.4-10.38,10.38-15.84l10.92,2.7c-.24,.66-.72,.96-2.4,.84-.96,1.08-2.04,2.16-3.18,3.18h9l4.02-4.02,7.74,6.24c-.48,.6-1.38,.84-2.94,.96-3.42,4.86-7.86,9.12-13.68,12.54l9.78,.84c-.12,.9-.72,1.38-2.04,1.56v5.64h.24l3.36-5.94Zm-27.42,8.7c17.22,2.58,10.32,15.78,3.6,10.5-.24-3.6-2.04-7.56-4.08-10.2l.48-.3Zm10.02-24.84c-.72,.6-1.44,1.2-2.22,1.74,6.54,.06,8.16,3.3,7.32,5.58,2.1-2.28,3.96-4.74,5.46-7.32h-10.56Z"/>
      <path class="cls-1" d="M314.1,46.98c1.74,.96,2.1,1.92,2.1,3.42,0,3-2.34,4.68-8.7,4.68h-2.94c-5.22,0-6-1.62-6-6.54v-13.08c-2.1,8.76-6.48,15.96-15.66,21.66l-.6-.84c8.16-10.02,9.72-21.96,9.96-36.9h-2.82l-.12-.42c-.42,.42-1.14,.9-2.22,1.08v9.96c-.06,.42-4.08,1.68-6.6,1.68h-1.38v-2.28h-.48v18.48c0,5.22-1.14,8.58-9.3,9.18-.12-2.46-.24-4.32-.96-5.46-.6-1.08-1.56-1.98-4.08-2.4v-.78s4.2,.3,5.22,.3c.78,0,1.02-.42,1.02-1.02v-9.36c-3.12,5.46-7.32,9.36-12,11.88l-.66-.48c2.28-3.9,4.38-9.9,5.4-15.9l7.26,2.4v-6.84h-.9v.72c0,.66-3.36,2.28-6.48,2.28h-1.08V13.98l7.86,3.06h8.58l3.54-3.84,7.14,5.28-.24-.78h3.3c.06-5.46-.06-11.34-.06-17.64l10.68,.96c-.18,.96-.78,1.5-2.22,1.74-.06,5.28-.06,10.26-.18,14.94h4.62l3.18-4.2c-1.14,0-2.34-.42-3.48-1.5,.06-3.24-1.02-6.72-2.28-9.18l.54-.24c11.22,2.46,10.44,9,6.9,10.62,1.44,1.14,4.32,3.48,6.24,5.22-.12,.66-.78,.96-1.68,.96h-7.98v26.82c0,.78,.12,1.08,.84,1.08h1.08c.42,0,.78,0,1.08-.06,.42,0,.78-.12,1.14-.72,.6-1.08,1.62-4.68,2.58-8.04h.6l.24,8.52Zm-54.72-34.74l-.48-1.68h21.48l4.02-5.58s4.62,3.78,7.32,6.3c-.18,.66-.84,.96-1.74,.96h-30.6ZM268.56,.18c17.58-.06,11.28,13.5,3.96,8.88-.6-3.12-2.58-6.48-4.38-8.58l.42-.3Zm10.56,27.54v-9h-9.48v9h9.48Zm.9,6.9c14.76,5.1,6.72,16.08,1.14,10.32,.24-3.48-.66-7.32-1.74-10.08l.6-.24Z"/>
      <path class="cls-1" d="M2.04,136.4c7.92-2.7,16.38-7.86,20.46-11.94l9.12,6.3c-.6,.66-1.86,.96-3.96,.48-6,2.94-16.02,5.16-25.44,5.88l-.18-.72Zm52.5-51c-.3,.42-.96,.96-2.1,1.14v9.6c-.06,.42-4.32,1.74-6.9,1.74h-.54l5.04,3.84c-.36,.42-1.02,.9-2.1,1.14v20.82c-.06,.48-4.32,2.04-7.2,2.04h-1.5v-1.92H19.32v.9c0,.84-3.72,2.76-7.26,2.76h-1.26v-29.34c-1.02,.3-2.16,.48-3.24,.48h-1.14v-18.24l8.88,3.36h28.14l3.6-3.84,7.5,5.52Zm-10.5,11.76v-1.5H14.64v.48c0,.3-.66,.78-1.62,1.2l6.78,2.64h18.84l3.78-4.08,1.62,1.26Zm-29.4-11.76v8.58h4.32v-8.58h-4.32Zm24.6,16.26H19.32v5.58h19.92v-5.58Zm-19.92,12.96h19.92v-5.7H19.32v5.7Zm19.92,7.5v-5.82H19.32v5.82h19.92Zm-12.3-36.72v8.58h4.5v-8.58h-4.5Zm4.08,41.16c36.42-.18,20.88,15.12,13.5,9-2.28-2.52-6.66-6.12-13.68-8.34l.18-.66Zm8.52-41.16v8.58h4.5v-8.58h-4.5Z"/>
      <path class="cls-1" d="M85.32,125.18c3.84-.3,7.98-.72,12.06-1.14l.06,.72c-5.4,2.52-13.74,5.82-26.58,10.14-.42,.72-1.14,1.26-1.86,1.44l-3.78-9.6c2.52-.12,6.66-.42,11.7-.78v-7.74h-8.22l-.48-1.68h8.7v-7.26h-9.6l-.48-1.68h15.96c.66-3.06,1.26-7.38,1.56-10.5h-11.88c13.14,4.26,5.28,14.22-.12,8.82,.3-3.06-.54-6.42-1.56-8.82h-5.28l-.48-1.68h8.82v-3.18c-1.14,1.92-3.84,2.58-6.12,.3,.18-3.48-.9-7.44-2.28-10.2l.6-.3c4.44,1.5,6.78,3.6,7.8,5.58v-7.44l7.74,.72c-.12,.6-.42,1.02-1.44,1.2v13.32h1.86v-15.24l7.98,.72c-.06,.66-.48,1.14-1.62,1.38v9.12c.84-2.76,1.86-6.36,2.7-9.6l9.3,3.72c-.3,.72-1.08,1.2-2.4,1.08-3,2.58-6.48,5.34-9.48,7.14l-.12-.06v1.74h2.04l3.54-4.62s4.02,3.12,6.42,5.34c-.18,.66-.78,.96-1.62,.96h-12.12l7.5,1.62c-.18,.72-.9,1.26-2.22,1.32-1.86,2.16-4.92,5.22-7.74,7.56h3.54l3.36-4.26s3.78,2.94,6.12,4.98c-.18,.66-.78,.96-1.62,.96h-10.26v7.26h.72l3.6-4.74s4.08,3.24,6.54,5.46c-.18,.66-.78,.96-1.62,.96h-9.24v6.96Zm33.72-32.88s3.36,3.6,5.04,5.82c-.12,.66-.72,.96-1.56,.96h-6v28.68c0,5.58-1.2,8.58-10.2,9.36-.18-2.64-.48-4.56-1.5-5.82-.96-1.26-2.22-2.16-5.34-2.7v-.78s6.24,.36,7.56,.36c.96,0,1.26-.3,1.26-1.02v-28.08h-12l-.48-1.68h12.48v-16.62l10.44,.96c-.12,.9-.72,1.5-2.22,1.74v13.26l2.52-4.44Zm-21.48,10.62c17.22,6.48,8.64,20.16,1.92,13.32,.24-4.44-.9-9.3-2.46-13.08l.54-.24Z"/>
      <path class="cls-1" d="M164.16,100.64c-.18,.54-.66,.96-1.86,1.14v33.54c-.12,.48-4.02,1.8-7.2,1.8h-1.68v-29.4c-6.42,7.26-14.46,13.62-23.64,18.06l-.36-.48c11.94-9.84,21.84-24.96,24.9-37.32h-23.64l-.48-1.68h42.18l4.98-6.3s5.58,4.2,8.94,7.02c-.18,.66-.84,.96-1.8,.96h-18.66c-1.5,3.72-3.48,7.5-5.82,11.1l4.14,1.56Zm0,2.64c28.44,4.02,24.3,22.56,14.88,17.94-3.18-6.18-9.72-13.14-15.36-17.52l.48-.42Z"/>
      <path class="cls-1" d="M195.54,136.4c7.92-2.7,16.38-7.86,20.46-11.94l9.12,6.3c-.6,.66-1.86,.96-3.96,.48-6,2.94-16.02,5.16-25.44,5.88l-.18-.72Zm52.5-51c-.3,.42-.96,.96-2.1,1.14v9.6c-.06,.42-4.32,1.74-6.9,1.74h-.54l5.04,3.84c-.36,.42-1.02,.9-2.1,1.14v20.82c-.06,.48-4.32,2.04-7.2,2.04h-1.5v-1.92h-19.92v.9c0,.84-3.72,2.76-7.26,2.76h-1.26v-29.34c-1.02,.3-2.16,.48-3.24,.48h-1.14v-18.24l8.88,3.36h28.14l3.6-3.84,7.5,5.52Zm-10.5,11.76v-1.5h-29.4v.48c0,.3-.66,.78-1.62,1.2l6.78,2.64h18.84l3.78-4.08,1.62,1.26Zm-29.4-11.76v8.58h4.32v-8.58h-4.32Zm24.6,16.26h-19.92v5.58h19.92v-5.58Zm-19.92,12.96h19.92v-5.7h-19.92v5.7Zm19.92,7.5v-5.82h-19.92v5.82h19.92Zm-12.3-36.72v8.58h4.5v-8.58h-4.5Zm4.08,41.16c36.42-.18,20.88,15.12,13.5,9-2.28-2.52-6.66-6.12-13.68-8.34l.18-.66Zm8.52-41.16v8.58h4.5v-8.58h-4.5Z"/>
      <path class="cls-1" d="M308.1,94.4s4.68,3.36,7.56,5.7c-.18,.66-.84,.96-1.74,.96h-12.72l7.08,5.34c-.36,.42-1.02,.9-2.1,1.14v17.64c-.06,.48-4.38,1.98-7.2,1.98h-1.5v-1.92h-16.98l8.34,5.94c-.6,.66-1.86,.96-3.84,.42-5.94,2.88-15.6,4.98-24.9,5.58l-.18-.72c7.68-2.52,15.84-7.32,19.98-11.22h-2.34v.84c0,.78-3.78,2.64-7.32,2.64h-1.2v-27.48l9,3.42h18.84l3.36-3.6h-41.1l-.48-1.68h24.12v-4.38h-6.9v1.14c0,.66-3.66,2.34-6.9,2.34h-1.08v-15.6l8.4,3.18h6.48v-6.06l10.56,.84c-.06,.84-.48,1.44-2.16,1.68v3.54h6.9l3.6-3.9,7.5,5.64c-.36,.42-1.14,1.02-2.4,1.26v6.42c-.06,.54-3.9,2.22-6.66,2.22h-1.44v-2.7h-7.5v4.38h12.78l4.14-4.98Zm-25.32-1.08v-5.58h-6.9v5.58h6.9Zm-5.22,13.02v4.5h19.92v-4.5h-19.92Zm0,6.18v4.62h19.92v-4.62h-19.92Zm19.92,11.04v-4.74h-19.92v4.74h19.92Zm-8.34,3.96c36.72-.72,21.12,13.8,13.74,8.16-2.4-2.28-7.02-5.52-13.92-7.5l.18-.66Zm2.04-39.78v5.58h7.5v-5.58h-7.5Z"/>
    </g>
  </g>
</svg>