<?xml version="1.0" encoding="utf-8"?>
<!-- Generator: Adobe Illustrator 27.0.0, SVG Export Plug-In . SVG Version: 6.00 Build 0)  -->
<svg version="1.1" id="圖層_1" xmlns="http://www.w3.org/2000/svg" xmlns:xlink="http://www.w3.org/1999/xlink" x="0px" y="0px"
	 viewBox="0 0 460.8 187.4" style="enable-background:new 0 0 460.8 187.4;" xml:space="preserve">
<style type="text/css">
	.st0{fill:#FFF100;}
</style>
<g>
	<g id="_圖層_2">
		<g id="_圖層_1-2">
			<g>
				<g>
					<path class="st0" d="M172.2,25c-0.5,0.6-1.3,1.2-2.8,1.5v50.7c-0.1,0.7-4.7,2.9-8.3,2.9h-1.6v-9h-37.9v6.7c0,1.2-4,3.6-8.2,3.6
						h-1.6V18.7l10.6,4.2h36.4l4.6-5.1C163.3,17.8,172.2,24.9,172.2,25z M159.4,69.1V57.9c-1.5,0.4-3.4,0.6-5.9,0.6h-3.4
						c-5.9,0-6.6-1.8-6.6-7.1V24.9h-5.4c-0.3,17.6-1.3,30.2-15.6,38.8l-0.8-0.9c7.5-9.8,7.1-22,7-37.9h-7.2v44.2L159.4,69.1
						L159.4,69.1z M152.1,24.9v23.9c0,0.8,0.2,1.2,1.1,1.2h1.5c0.4,0,1.1,0,1.5-0.1c0.4,0,1.3,0,1.6-0.1c0.5-0.1,1.1-0.1,1.5-0.3
						V24.9L152.1,24.9L152.1,24.9z"/>
					<path class="st0" d="M241.6,57.9c0,0,3.9,3.1,6.2,5.2c-0.2,0.8-0.9,1.1-1.8,1.1h-9.3c-0.7,2.2-1.7,4.3-3.4,6.2
						c19.7,4,8.5,13.9,0.5,10.5c-2.1-1.6-5.2-3.3-8.9-5c-5.3,2.2-13,4.1-24.3,5.5l-0.4-1.1c8.5-2.2,14.4-4.4,18.5-6.8
						c-3.9-1.3-8.3-2.5-13-3.4l0.1-0.1c1.1-1.5,2.4-3.6,3.6-5.9h-7.8l-0.6-2h9.5c0.8-1.5,1.5-2.9,2.2-4.3c-1.1,0.9-4.3,2.2-7.3,2.2
						h-1.2V42.5l1.8,0.6v-9.5h-2.2l0.1,0.2c-0.1,0.8-0.8,1.1-1.8,1.1H196v3.4c13.2,6.3,6.2,16.6,1.3,11.5c0.4-2.9-0.3-6.4-1.3-9.2
						v37.9c0,0.9-3.7,3-6.9,3h-1.6V56c-1.9,3.2-4.1,6.2-6.6,9l-0.8-0.8c3.8-8.1,5.8-19,6.9-29.3h-6.1l-0.6-2h7.2v-18l11.1,1.1
						c-0.1,1-0.7,1.7-2.6,2v14.6l2.7-4.4c0,0,2,1.9,3.6,3.8l-0.1-0.4h3.8V21.5l9.1,3.5h3.6v-9.5l11.8,1c-0.1,1-0.6,1.7-2.5,2V25h3.3
						l3.7-3.9l7.6,5.6c-0.3,0.4-1,0.8-2,1v3l2.2-3.2c0,0,3.2,2.9,5,5c-0.2,0.8-0.8,1.1-1.8,1.1h-5.5v7.1c0,0.3-1,0.9-2.3,1.4
						l7.7,5.7c-0.4,0.4-1.1,0.9-2.2,1.2v6.4c-0.1,0.6-4.4,2.4-7.4,2.4H235v-2h-16l7.1,1.3c-0.2,0.8-0.8,1.6-3.2,1.8
						c-0.6,1-1.2,2.2-2,3.4h6.4c0.4-1.5,0.5-3,0.6-4.6l12,0.9c-0.1,0.9-0.8,1.7-2.4,1.9c-0.1,0.6-0.2,1.2-0.4,1.8h1L241.6,57.9
						L241.6,57.9z M214.8,41.7c0,0.6-2.9,2.2-5.9,2.5l4.7,1.8h5.2v-5.6h-3.9V41.7z M218.7,53.9v-6H213v6H218.7z M213,57.5l0.7-1.6
						H213V57.5z M214.8,31.7h3.9V27h-3.9V31.7z M214.8,33.7v4.8h3.9v-4.8C218.7,33.7,214.8,33.7,214.8,33.7z M219.8,64.3
						c-1.1,1.6-2,3.3-3,4.7c2.7,0.1,5,0.2,7.2,0.3c1.4-1.6,2.2-3.3,2.9-5H219.8z M228,27v4.8h3.9V27H228z M231.9,33.7H228v4.8h3.9
						C231.9,38.5,231.9,33.7,231.9,33.7z M237.8,42.4c-1.4,0.5-3,0.9-4.3,0.9h-1.6v-2.9H228V46h6.3L237.8,42.4z M235,53.9v-6H228v6
						H235z"/>
					<path class="st0" d="M272.9,51.3c0,0,5.6,5.1,8.6,8.4c-0.2,0.8-1,1.1-2,1.1h-26.2l-0.6-2H268C268,58.8,272.9,51.3,272.9,51.3z
						 M254.4,32l-0.6-2h11.3l4.5-6.9c0,0,5.1,4.8,7.9,7.8c-0.2,0.8-1,1.1-2,1.1H254.4L254.4,32z M301.5,38.1c-0.2,1-1,1.7-2.8,1.7
						c-0.1,1-0.2,2.2-0.4,3.2c1.8,13,8,22,21.8,26.7v0.8c-5,1.3-7.9,4.8-8.6,11c-9.2-6.2-12.6-19.1-13.9-33.1
						c-2.2,12.9-7.8,25-31.5,33.2l-0.6-0.9c20.4-13.7,21.8-28.8,22.3-45.4L301.5,38.1L301.5,38.1z M320.4,33.2
						c-0.6,0.6-1.3,0.8-2.9,1c-2.9,4.7-8,11.2-12.5,15.2l-0.5-0.4c1-5,1.9-12.1,2.2-17.1h-18.3c-3.5,7.2-8,12.7-13.7,17l-0.8-0.5
						c3.9-8.5,7-21.1,7.8-33.2l14.1,3.1c-0.3,1-1.1,1.6-2.8,1.7c-1,3.6-2.2,6.9-3.6,10H306l5.3-5.3L320.4,33.2L320.4,33.2z"/>
					<path class="st0" d="M377.7,21.4c0.9,25.1,4.4,39.8,15.8,47.9l-0.1,0.8c-4.3,1.2-7.4,5.6-8.3,11.3c-5.2-7-7.4-20.5-8.1-38.2
						c-1.5,16.6-6.6,29.5-25,38.6l-0.7-1c3.6-3.2,6.5-6.6,8.8-10.2h-20.9l-2.9,4.8l-10-5.5c0.6-0.8,1.4-1.6,2.2-2.3V17l11.1,5H352
						l5-6.9c0,0,5.6,4.6,8.9,7.7c-0.2,0.8-1,1.1-2,1.1h-11.5v12.1h1.6l4.2-4.3l7.7,6.4c-0.5,0.6-1.3,1-2.5,1.3V54
						c-0.2,0.3-4,1.6-7.8,1.6h-1.8v-2.7h-1.5v15.8h0.1l4.6-7c0,0,2.6,2.4,5.1,4.8c6.5-13.7,5.5-30.5,5.5-51.5l12.5,1.1
						c-0.1,1.1-0.9,1.8-2.6,2V21.4L377.7,21.4z M343.2,36.1V24h-4.7v12.1H343.2z M353.9,38h-15.3v12.9h15.3V38z M343.2,68.7V52.9
						h-4.7v15.8H343.2z"/>
					<path class="st0" d="M424.4,22.8c13.4,0,18.3,5.2,18.3,12.2c0,5.3-3.4,10.2-14.6,12.1c12.6,1.3,17.7,6.1,17.7,13.4
						c0,6.9-4.9,14.6-23.8,14.6h-22.2v-2.4l6.3-0.6c0.2-7.3,0.2-14.9,0.2-22.5v-2.5c0-7.1,0-14.3-0.2-21.4l-6.3-0.6v-2.4
						C399.7,22.8,424.4,22.8,424.4,22.8z M418,25.4c-0.2,6.9-0.2,13.8-0.2,21h2.7c7.2,0,10.8-4.1,10.8-11c0-6.4-2.9-10-10-10
						C421.3,25.4,418,25.4,418,25.4z M421.6,72.5c7.6,0,12-4.1,12-11.8c0-8.1-4-11.8-12.5-11.8h-3.4c0,8.3,0,16,0.2,23.5L421.6,72.5
						L421.6,72.5z"/>
					<path class="st0" d="M76.8,150.6c-0.4,0.6-1.1,1.1-2.7,0.7c-3,1.4-7.1,2.8-11.2,3.9c5.6,3.3,12.5,5,19.5,6.2l-0.1,0.8
						c-4,1-6.7,4.2-7.8,9c-11.5-4.7-19.2-11.2-23-25.4c-2.4,2-5.2,3.9-8.4,5.4v8.6c3.3-0.8,6.9-1.6,10.4-2.5l0.1,0.7
						c-3,2.7-9.1,7.6-16.7,12.7c-0.6,0.8-1.1,1.3-1.8,1.7l-6-9.1c3.5-2,4.1-2.8,4.1-4.3v-4c-5.4,1.7-11.4,2.9-17.8,3.9l-0.3-0.8
						c9.9-3.2,18.3-8.3,23.6-13.7H16.5l-0.6-2h31.1c-0.5-0.2-1-0.4-1.5-0.8c-0.1-1.7-0.8-3.4-1.7-4.9c-1.5,0.6-4,1.2-6.3,1.2h-1.7
						v-12.3h-5c-0.8,5.9-3.9,11.5-13.3,15.2l-0.8-0.9c4.6-4.5,5.2-9.4,5.4-14.3h-4.4l-0.6-2h18.8V118h-6.4l-2.7,3.7l-8.8-4.4
						c0.6-0.8,1.7-1.6,2.7-2.3v-8.3l10.3,1c-0.1,0.8-0.6,1.4-2,1.6v6.7h6.9v-10.8l12.2,1.1c-0.1,1-0.6,1.7-2.6,2v25.3
						c1.2,0,2.2,0.1,3.1,0.3l-0.4-1.6h8.8v-13.1H46.7l-0.6-2h10.9v-12l12.7,1c-0.1,1.1-0.6,1.8-2.5,2v9h1.4l4.8-6
						c0,0,5.3,4.1,8.5,6.9c-0.1,0.8-0.9,1.1-2,1.1H67.1v13.1h0.8l4.6-5.8c0,0,5.2,3.9,8.3,6.6c-0.1,0.8-0.9,1.1-2,1.1H50.1
						c5.7,1.8,4.4,6.8,0.8,8.1h17.3l4.8-6.6c0,0,5.5,4.4,8.6,7.4c-0.2,0.8-1,1.1-2,1.1h-12L76.8,150.6L76.8,150.6z M52.7,144.7
						c1.8,3.5,4.3,6.3,7.3,8.5c2.8-2.9,5.5-6.4,7.1-8.9H53.2C53.2,144.3,52.7,144.7,52.7,144.7z"/>
					<path class="st0" d="M88.4,121.9c20.4,0.9,12.8,16.7,4.5,10.9c-0.5-3.9-2.7-8-5-10.6C88,122.2,88.4,121.9,88.4,121.9z
						 M111,117.8c-2.5,8.5-6.9,24.2-7.7,28.2c-0.6,2.4-1.1,5.1-1.1,6.9c0.1,4.1,3.5,6.1,3.3,12.5c-0.1,3.7-2.9,6.3-6.9,6.3
						c-1.8,0-3.9-0.8-4.7-3.6c1.5-7.2,1.3-14.1-0.5-15.3c-1-0.6-2.2-1.1-3.7-1.1v-1.3h3.2c1.1,0,1.5,0,2.3-1.5
						c1.1-1.8,6-12.3,14.7-31.4L111,117.8z M93.6,106.8c21.3-0.3,15,16.2,6.1,11.2c-1.1-3.9-4.1-8.2-6.6-10.8
						C93.1,107.2,93.5,106.8,93.6,106.8z M132.5,162.6c-0.5,0.8-1.8,1.3-4.1,1.1c-5,3.6-13.7,6.8-22.5,8.3l-0.3-0.7
						c5.9-3.4,11.8-9,14.8-13.4c-1.1,0.6-3.3,1.1-6.2,1.1h-1.5v-27.7l9.4,3.6H140l4.2-4.8l7.8,5.9c-0.4,0.6-1.1,1.1-2.7,1.4v18.5
						c0,0.4-2.9,1.9-7.5,1.9h-1.6v-2.4h-18.9v1.6L132.5,162.6L132.5,162.6z M148.1,122c0,0,4.5,3.6,7.1,6.2
						c-0.2,0.8-0.9,1.1-1.9,1.1h-43.1l-0.6-2h34.5L148.1,122z M111.3,113.6h6.7v-8.1l11.2,1c-0.1,0.9-0.7,1.7-2.6,2v5.2h7.6v-8.1
						l11.2,1c-0.1,0.9-0.7,1.7-2.6,2v5.2h0.1l3.9-5.5c0,0,4.4,3.8,6.9,6.4c-0.1,0.8-0.9,1.1-1.8,1.1h-9v8.9c0,0.6-3.8,1.8-7.1,1.8
						h-1.5v-3.8h-7.6v2c0,0.6-3.8,1.8-7.1,1.8h-1.5v-10.6h-6.2C111.9,115.5,111.3,113.6,111.3,113.6z M121.3,136.7v7.4h5.1v-7.4
						H121.3z M126.5,153.4V146h-5.1v7.4H126.5z M126.7,115.5v4.9h7.6v-4.9H126.7z M132.5,158.5c25.8-2.5,24.4,15.4,14.6,13.1
						c-3.5-4.3-10.1-9.7-15.1-12.5L132.5,158.5z M135.1,136.7v7.4h5.2v-7.4H135.1z M140.2,153.4V146h-5.2v7.4H140.2z"/>
					<path class="st0" d="M185.5,114.1c0,0,4.3,3.5,6.9,5.9c-0.1,0.8-0.9,1.1-1.9,1.1h-28.7l-0.6-2h20.4L185.5,114.1L185.5,114.1z
						 M201.9,115.9c0,5.7-1.4,15.4-13.6,20.9c0.6,0.5,1.1,0.9,1.5,1.3c-0.2,0.8-0.9,1.1-1.9,1.1h-23.2l-0.6-2h15.2l3.7-4.8
						c0,0,2,1.5,4.1,3.3c5.3-6.2,5.9-13.9,5.9-19.9v-9l10.4,3.6h4l4.3-4.7l7.8,6.2c-0.4,0.5-1.3,0.8-2.5,1.1v10c0,0.7,0.2,1,1,1h2.8
						c0.4,0,1.3-0.1,1.7-0.1c0.5-0.1,1.3-0.2,1.8-0.3h0.6l0.4,0.1c2,1,2.6,1.9,2.6,3.5c0,3.4-2.9,5.2-9.8,5.2h-3.3
						c-5.9,0-6.6-1.8-6.6-7.1v-12.9h-6.2L201.9,115.9L201.9,115.9z M179.3,128.1l3.7-4.8c0,0,4.2,3.3,6.7,5.7
						c-0.2,0.8-0.9,1.1-1.9,1.1h-23.2l-0.6-2L179.3,128.1L179.3,128.1z M179.5,168v-4h-5.9v4.2c0,0.8-3.7,2.7-7.4,2.7H165V143
						l8.9,3.5h5l3.9-4.1l8,6c-0.4,0.5-1.2,1-2.4,1.3v16c-0.1,0.6-4.3,2.4-7.2,2.4L179.5,168L179.5,168z M168.3,106.5
						c20.9-0.7,13,15.7,4.2,9.9c-0.5-3.6-2.6-7.3-4.6-9.6C167.9,106.9,168.3,106.5,168.3,106.5z M179.5,162.1v-13.6h-5.9v13.6H179.5
						z M223.7,140.2c-0.5,0.8-1.2,1.1-2.9,1.2c-2.3,5.7-5.5,10.9-9.9,15.3c5,2.4,10.6,3.9,16.4,5l-0.1,0.8c-4,0.9-6.8,4-8.1,8.6
						c-5.8-2.4-10.7-5.2-14.6-9.1c-6.2,4.3-14,7.6-23.7,9.6l-0.4-0.8c8.3-3.3,15-8,20-13.6c-3-4.5-5.3-10.1-6.8-17.5h-2.8l-0.6-2
						H210l5.2-5L223.7,140.2L223.7,140.2z M194.8,139.6c2,5.5,5.2,9.7,9.3,12.9c2.7-3.9,4.8-8.3,6.2-12.9H194.8z"/>
					<path class="st0" d="M263.6,113.3c0,0,4.9,3.8,7.8,6.5c-0.1,0.8-0.9,1.1-1.9,1.1h-35.1l-0.6-2h25.3
						C259.2,118.9,263.6,113.3,263.6,113.3z M255.7,128l4.3-5.6c0,0,4.9,3.8,7.8,6.4c-0.2,0.8-0.9,1.1-1.9,1.1h-27.8l-0.6-2
						L255.7,128L255.7,128z M260,131.6c0,0,4.9,3.8,7.8,6.4c-0.2,0.8-0.9,1.1-1.9,1.1h-27.8l-0.6-2h18.1L260,131.6L260,131.6z
						 M260.1,142.5l8.4,6.4c-0.4,0.5-1.3,1.1-2.7,1.4v15.5c-0.1,0.6-4.5,2.4-7.6,2.4h-1.5v-4.1h-9v4c0,0.8-3.9,2.8-7.6,2.8h-1.3
						v-27.4l9.2,3.6h8L260.1,142.5L260.1,142.5z M243.8,105.9c21.6-0.6,13.5,16.4,4.5,10.4c-0.6-3.8-2.7-7.7-4.9-10.1L243.8,105.9z
						 M256.7,162v-13.2h-9V162H256.7z M293.2,125.2c0,0,5.2,4.2,8.2,7c-0.2,0.8-1,1.1-2,1.1h-11.8V168c0,1-4.3,3.4-8,3.4h-1.9v-38.1
						h-10.3l-0.6-2h10.9v-25.8l12.5,1.2c-0.1,1-0.6,1.8-2.6,2v22.5h1L293.2,125.2L293.2,125.2z"/>
					<path class="st0" d="M347.6,135.8c-0.5,0.6-1.3,0.9-2.8,0.6c7.4,2.8,18.9,4,29.1,3.6l-0.1,0.8c-3.6,1.1-6.4,4.6-7.1,9.3
						c-11.3-2-19.2-5.7-24.6-12.1l-1.3,0.9l8.8,6.3c-0.1,0.2-0.4,0.4-0.6,0.4l8.7,7.4c-0.4,0.5-1.3,0.6-2.5,0.2
						c-9.2,5.5-27,10.3-42.6,10.3l-0.3-0.9c13.5-2.9,29-10.2,36.2-16.9c-0.4,0-0.8-0.1-1.3-0.2c-7.3,5-21.6,9.8-34,10.9l-0.4-0.9
						c9.4-3.1,19.9-9.5,25.8-15.2c-9.6,5.9-19.7,8.8-31.4,10.3l-0.3-0.9c10.1-3.6,18.5-8.7,25.8-16.4c-0.6-0.2-1.3-0.5-2-1
						c-0.1-0.4-0.1-0.7-0.2-1.1c-3.9,2.2-10.1,5.3-17.5,8.4c-0.4,0.5-0.8,0.8-1.3,1.1l-3.8-9.2c0,0,1.5-0.3,2.2-0.6
						c2.8-1.4,6.4-6.1,8.3-9.3l-2.3-5.8c0,0,1.6-0.2,2.6-0.6c6.1-1.5,14.6-8,17.3-11.3l11.8,5.3c-0.3,0.7-1.2,1.2-2.8,1
						c-4.1,2.1-10.6,4.2-16.9,5.8c6.9-0.2,15.8-0.5,25-0.8c-1.9-2-3.9-3.8-5.7-5.2l0.5-0.5c23.2-0.3,20,16.3,10.9,12.9
						c-1-1.9-2.7-3.9-4.4-5.9l-3.5,1l7.9,5c-0.3,0.5-1.1,0.9-2.4,0.6c-2.5,1.4-6,3.1-9.3,4.2c3.5,0.1,7.8,0,12.3,0
						c-0.4-1.3-1-2.6-1.5-3.6l0.7-0.3c15.8,4.7,8,16.2,2.1,10.7c-0.1-1.5-0.3-2.9-0.7-4.4c-3.8,1.3-9,3.1-14.7,4.8L347.6,135.8
						L347.6,135.8z M309.7,169.3c18.6-1.5,39.7-8.8,49.1-16.7l8.6,8.8c-0.5,0.5-1.3,0.6-2.6,0.1c-11.8,6.6-34.5,11-55,8.8
						L309.7,169.3L309.7,169.3z M328.3,127.3c-0.4,0.5-1.3,0.8-2.6,0.3c-1.9,1.1-4.5,2.4-7.4,3.5c3.6-0.4,7.7-0.8,11.9-1.3
						c-0.7-2.2-1.8-4.4-2.9-5.9l0.6-0.3c6.9,0.8,9.5,3.6,9.7,6l3.5,2.2l-2.4-4.8c0,0,1.3-0.3,2-0.6c2.3-1.2,5.1-5,6.8-8
						c-6.3,1.6-14.3,3.5-23.6,5.5C324.1,123.8,328.3,127.3,328.3,127.3z"/>
					<path class="st0" d="M437,120.2c0,0,5.2,4.3,8.3,7.3c-0.2,0.8-1,1.1-2,1.1h-21.8c-5,3.5-10.5,6.8-16.5,9.8h21l4.6-6.3
						c0,0,5.2,4.3,8.3,7.1c-0.1,0.8-0.9,1.1-2,1.1h-22.7c-0.8,2.6-2,6.2-2.9,8.8h12.3l4.8-4.4l8.3,6.8c-0.6,0.6-1.3,1.1-2.8,1.3
						c-1.1,9-3.1,14.5-6.9,16.7c-2.4,1.5-5.2,2.1-9.9,2.1c0-2.5-0.3-4.8-1.7-6.1c-1.4-1.5-4.2-2.6-7.6-3.3v-0.8
						c3.6,0.3,9.1,0.6,10.6,0.6c1.1,0,1.8-0.1,2.4-0.5c1.3-0.9,2.5-4.8,3.2-10.4h-13l-3.4,4.1l-9-5c0.6-0.6,1.6-1.3,2.6-1.8
						c0.8-2.4,1.8-5.7,2.5-8.1h-2.9c-6.9,3.2-14.4,5.9-22.2,7.9l-0.4-0.8c10.9-4.9,21.3-11.6,30.1-18.8H381l-0.6-2h21.2v-9.4h-15.4
						l-0.6-2h16v-9.9l12.7,1c-0.1,0.9-0.5,1.5-2.2,1.8v7.1h0.9l4.3-5.9c0,0,3.3,2.8,6,5.3c2.5-2.7,4.6-5.4,6.4-7.9l11.5,6.6
						c-0.4,0.7-1.2,1.1-2.9,0.8c-3.7,4.1-8.5,8.3-14,12.5h8L437,120.2L437,120.2z M412.1,117.3v8.4c3.2-2.8,6.2-5.6,8.8-8.4H412.1z"
						/>
				</g>
			</g>
		</g>
	</g>
</g>
</svg>
