<?xml version="1.0" encoding="UTF-8"?>
<svg id="_圖層_2" data-name="圖層 2" xmlns="http://www.w3.org/2000/svg" viewBox="0 0 783.39 133.43">
  <defs>
    <style>
      .cls-1 {
        fill: #fff;
        opacity: .7;
      }

      .cls-2 {
        fill: #231815;
      }
    </style>
  </defs>
  <g id="_圖層_1-2" data-name="圖層 1">
    <rect class="cls-1" width="783.39" height="133.43" rx="30" ry="30"/>
    <g>
      <path class="cls-2" d="M47.88,34.55c.35-.88,.74-2.21,1.02-3.29h-5.81v3.82c0,.38,.07,.52,1.08,.52h2.77c1.05,0,2.07,0,2.49-.04,.32,0,.7-.04,.88-.07,.25-.04,.63-.11,.91-.18h.28l.17,.04c.95,.28,1.19,.63,1.19,1.19,0,1.19-1.05,1.61-6.3,1.61h-3.22c-3.01,0-3.47-.63-3.47-2.63v-4.27h-6.16l2.91,2.03c-.18,.39-.63,.6-1.65,.49-2.84,2.66-7.11,4.83-12.95,5.67l-.21-.46c4.97-1.71,8.86-4.8,10.82-7.74h-7c.17,2.24-.77,3.82-1.89,4.41-1.05,.52-2.38,.31-2.77-.81-.31-1.01,.39-1.79,1.3-2.24,1.23-.59,2.35-2.21,2.14-4.06l.56-.04c.25,.59,.42,1.19,.52,1.71h11.31l-.14-.1c-.07-1.4-.98-2.98-2.03-3.85l.28-.25c5.32,.31,5.64,3.12,4.31,4.2h9.56l1.89-1.86,3.29,3.12c-.25,.28-.63,.35-1.33,.42-1.09,.94-2.94,2.13-4.34,2.87l-.39-.25Zm.42,4.03l3.22,2.52c-.25,.28-.63,.52-1.4,.66v15.72c0,.17-1.16,.84-2.73,.84h-.56v-1.96H27.68v1.51c0,.25-.98,.88-2.59,.88h-.53v-19.67l3.54,1.4h5.04c.38-1.22,.88-3.08,1.19-4.27l4.66,1.16c-.17,.49-.67,.74-1.4,.74-.77,.7-1.86,1.61-2.77,2.38h11.87l1.61-1.89Zm-1.47,16.77v-13.86H27.68v13.86h19.15Zm-1.15-10.12c-.21,.35-.53,.53-1.3,.38-.7,1.05-1.61,2.07-2.66,3.01,4.66,3.47,3.08,6.37,.88,5.15-.67-.95-1.68-2.1-3.08-3.33-2.59,1.86-5.78,3.33-9.35,4.2l-.25-.49c3.01-1.19,5.74-3.04,7.88-5.11-.88-.66-1.79-1.33-2.84-2-1.68,1.23-3.64,2.28-5.71,3.01l-.31-.49c1.54-.95,3.01-2.21,4.27-3.57-1.12-.63-2.28-1.26-3.5-1.82l.25-.53c1.51,.39,2.94,.81,4.2,1.26,.88-1.09,1.61-2.14,2.1-3.15l3.43,1.71c-.21,.35-.49,.53-1.3,.38-.53,.63-1.16,1.3-1.86,1.93,1.12,.49,2.1,.98,2.98,1.43,1.05-1.22,1.89-2.52,2.49-3.75l3.68,1.75Z"/>
      <path class="cls-2" d="M73.22,30.56l3.29,3.04c-.25,.35-.59,.49-1.4,.56-1.64,10.29-5.18,19.71-17.4,24.61l-.35-.45c5.64-3.26,9.21-7.95,11.45-13.48-.56,.59-1.58,.7-2.59-.07-.35-1.79-1.65-3.82-3.01-5.32-1.54,2.38-3.29,4.41-5.36,6.06l-.45-.32c3.29-4.55,5.95-11.45,6.97-18.9l4.83,1.12c-.14,.46-.53,.77-1.33,.77-.38,1.54-.84,2.98-1.33,4.34h4.79l1.89-1.96Zm-7.07,2.97c-.7,1.86-1.5,3.54-2.45,5.11,4.2,1.19,5.64,3.25,5.64,4.83,1.12-3.12,1.82-6.48,2.24-9.94h-5.43Zm15.4,3.89c11.52,3.33,9.35,10.75,5.6,8.4-.91-2.49-3.4-5.36-5.6-7.46v19.39c0,.35-1.44,1.08-2.7,1.08h-.67V26.53l4.66,.49c-.11,.49-.35,.84-1.29,.98v9.42Z"/>
      <path class="cls-2" d="M122.82,49.32s2.21,1.68,3.61,2.83c-.11,.39-.42,.56-.91,.56h-13.79v5.21c0,.28-1.51,.84-2.77,.84h-.63v-6.06h-14.21l-.28-1.02h14.49v-2.66l1.89,.17c2.14-1.61,3.75-4.2,4.52-6.41h-11.97l3.22,1.5c-.21,.35-.49,.56-1.29,.46-.28,.38-.59,.81-.95,1.16,6.27,.95,4.1,5.43,1.5,3.89-.35-.98-1.29-2.21-2.24-3.08-1.79,1.86-4.3,3.61-7.14,4.62l-.31-.42c2.87-2,5.32-5.36,6.44-8.12h-6.06l-.32-1.01h13.72c-.07-.07-.14-.14-.21-.21-.14-.73-.49-1.82-1.12-2.66-.56,.56-1.61,.95-3.54,1.05-.07-.7-.17-1.3-.59-1.61-.42-.32-1.02-.63-2.45-.81v-.49s2.7,.17,3.33,.17c.56,0,.7-.21,.7-.63v-2.45c-2.1,1.01-4.8,2.42-8.16,3.96-.14,.42-.42,.77-.8,.88l-1.4-3.29c1.85-.32,5.99-1.3,10.36-2.45v-4.34h-10.54l-.32-1.01h10.5l1.5-1.79,3.5,2.66c-.21,.25-.77,.56-1.47,.7v7.35c0,.52-.04,1.01-.17,1.4,3.85,.6,3.92,2.7,2.91,3.57h7.63l1.82-2.07c-.42,.07-.91,.14-1.44,.17-.07-.67-.17-1.26-.56-1.61-.42-.31-.98-.63-2.38-.8v-.49s2.56,.17,3.19,.17c.56,0,.66-.21,.66-.63v-2.77c-2.1,1.08-4.83,2.42-8.23,3.96-.14,.46-.46,.77-.8,.88l-1.33-3.33c1.79-.28,5.95-1.3,10.36-2.42v-3.96h-9.73l-.32-1.01h9.7l1.54-1.79,3.5,2.66c-.21,.25-.73,.59-1.47,.7v7.28c0,1.5-.32,2.49-2.38,2.94,.52,.35,2.2,1.58,3.36,2.55-.07,.39-.45,.56-.94,.56h-8.09l3.4,1.47c-.21,.35-.49,.56-1.26,.45-.25,.35-.52,.7-.84,1.05,6.86,.52,5.64,5.29,2.87,4.17-.7-1.12-2.28-2.38-3.71-3.33-1.12,1.05-2.52,1.96-4.13,2.7l.91,.07c-.07,.38-.28,.67-.98,.8v1.5h9.14l1.96-2.38Zm-26.04-19.32c6.34-.74,6.2,4.52,3.68,3.54-.91-.98-2.24-2.31-3.89-3.12l.21-.42Zm14.6,.04c6.16-.88,6.06,4.27,3.57,3.33-.84-.91-2.1-2.17-3.78-2.87l.21-.46Z"/>
      <path class="cls-2" d="M133.35,48.94c1.16,3.5,.81,6.2-.14,7.49-.66,.88-2.24,1.05-2.8,.07-.46-.84-.07-1.82,.73-2.42,.88-.91,1.82-3.22,1.61-5.15h.59Zm-2.97-4.45s.77-.14,1.05-.38c1.54-1.33,3.4-3.75,4.94-6.2-1.05,.38-2.28,.84-3.54,1.22-.25,.35-.53,.6-.81,.74l-1.5-3.64s.67-.17,.95-.38c1.71-1.89,3.89-6.9,4.59-9.56l4.03,2c-.14,.31-.52,.59-1.22,.52-1.4,2.28-3.85,5.46-6.06,7.56,1.26,.04,2.87,.04,4.48,0,.74-1.29,1.37-2.52,1.75-3.5l3.64,2.45c-.17,.28-.66,.49-1.29,.35-1.82,2.66-5.25,6.37-8.4,8.89,1.75-.07,4.1-.25,6.62-.42-.28-1.33-.7-2.62-1.19-3.64l.42-.17c6.34,3.99,3.22,8.89,.98,6.44,.04-.52,0-1.08-.07-1.64-1.92,.67-4.52,1.54-7.25,2.34-.25,.35-.52,.56-.84,.67l-1.26-3.64Zm5.39,3.92c4.73,4.48,1.64,8.96-.25,6.55,.38-2.07,.17-4.66-.25-6.44l.49-.11Zm14.11,.07c-1.05,1.19-2.63,3.08-4.9,5.39-.04,.45-.25,.88-.6,1.01l-2.2-3.15c.38,1.96-1.12,3.15-2.38,1.86,.1-1.89-.63-4.24-1.4-5.74l.42-.17c2.03,1.29,3.01,2.66,3.29,3.85,1.4-.53,4.55-1.96,7.6-3.43l.18,.39Zm9.8-11.97s2,1.68,3.19,2.91c-.11,.38-.46,.56-.95,.56h-8.37v14.7c0,2.13-.45,3.5-3.99,3.82-.04-.88-.17-1.58-.59-1.96-.42-.46-1.09-.77-2.49-.98v-.53s2.77,.21,3.4,.21c.56,0,.7-.18,.7-.6v-14.67h-7.81l-.28-1.02h10.36l.91-2.77h-6.41l-1.4,1.4-3.04-2.28c.38-.28,.98-.56,1.54-.77,1.12-2.42,2.59-6.3,3.15-8.19l4.2,.77c-.1,.46-.45,.8-1.43,.8-.18,.56-.42,1.19-.7,1.89h5.88l1.44-1.54,2.98,2.55c-.25,.28-.6,.39-1.26,.42l-2.55,7.7h1.79l1.75-2.45Zm-15.37,5.04c7.25,2.17,4.51,7.28,2,5.18-.18-1.68-1.33-3.75-2.38-4.97l.39-.21Zm9.8-6.37l1.43-4.34h-6.27c-.59,1.51-1.26,3.08-1.79,4.34h6.62Zm7.91,8.16c-.18,.28-.53,.38-1.23,.21-1.33,.94-4.03,2.52-5.74,3.5l-.32-.35c1.19-1.61,2.87-4.34,3.78-5.88l3.5,2.52Zm-6.93,5.08c9.45,1.33,7.77,8.37,4.66,6.3-1.02-1.82-2.63-4.38-4.9-5.95l.24-.35Z"/>
      <path class="cls-2" d="M169.68,33.01c1.37,3.88,.91,6.97-.07,8.4-.7,.95-2.2,1.19-2.83,.32-.49-.81-.14-1.75,.59-2.42,.95-1.12,1.89-3.85,1.71-6.3h.6Zm5.29-.77c7.21,1.86,4.38,7.18,1.68,5.11-.14-1.58-1.05-3.46-1.89-4.73v25.1c0,.35-1.37,1.02-2.55,1.02h-.67V26.22l4.52,.49c-.07,.49-.35,.84-1.3,.98v4.66l.21-.11Zm16.21,.32c10.89,3.85,8.19,11.69,4.66,9.03-.14-.91-.46-1.85-.91-2.83-3.36,.81-8.3,1.86-14.04,2.87-.25,.35-.53,.56-.81,.66l-1.54-3.95s.81-.21,1.12-.46c2.49-2.24,5.88-8.26,6.97-11.62l4.9,1.75c-.17,.38-.56,.66-1.26,.63-2.03,3.05-5.74,7.11-9,9.77,3.15-.04,8.05-.21,13.23-.46-.98-1.93-2.41-3.75-3.71-5.18l.38-.21Zm3.75,10.29l3.15,2.41c-.25,.32-.59,.53-1.37,.63v11.66c0,.14-1.08,.77-2.66,.77h-.56v-2.59h-10.26v2.14c0,.25-.98,.84-2.55,.84h-.53v-15.44l3.47,1.37h9.77l1.54-1.79Zm-1.43,11.87v-9.07h-10.26v9.07h10.26Z"/>
      <path class="cls-2" d="M220.99,27.41c-.07,.49-.35,.84-1.26,.98,.77,13.2,3.99,21.74,16.03,26.67l-.07,.39c-1.72,.31-2.87,1.36-3.33,3.18-9.1-4.9-11.94-13.09-12.88-24.01-.63,8.75-3.15,17.75-16.03,24.12l-.42-.53c13.3-9.07,13.06-20.37,13.09-31.29l4.87,.49Z"/>
      <path class="cls-2" d="M244.02,46.13c2.07-1.19,3.01-2.7,3.46-4.52-1.82-.8-2.97-1.68-2.97-3.19,0-1.26,.88-2.34,2.41-2.34s2.66,1.16,2.66,3.33c0,2.66-1.26,6.06-4.97,7.84l-.59-1.12Z"/>
      <path class="cls-2" d="M272.58,32.03l3.25,2.8c-.28,.31-.73,.52-1.47,.67-.28,13.16-.84,19.08-2.62,21-1.12,1.19-2.59,1.71-4.31,1.71,0-1.12-.14-1.92-.6-2.41-.52-.56-1.68-.95-3.01-1.23l.04-.56c1.26,.14,3.29,.32,4.03,.32,.66,0,.94-.14,1.29-.45,1.19-1.16,1.68-7.49,1.92-18.94h-4.06c-.35,8.44-1.75,17.22-8.75,23.8l-.53-.49c4.79-6.93,5.81-15.16,6.02-23.31h-4.83l-.32-1.01h5.15c.07-2.52,.04-5.01,.04-7.46l4.66,.46c-.1,.53-.38,.84-1.26,.98-.04,1.96-.04,3.99-.11,6.02h3.61l1.86-1.89Zm18.06,1.08c-.25,.28-.8,.56-1.5,.74v22.4c-.07,.32-1.65,1.23-2.87,1.23h-.53v-3.33h-5.22v2.66c0,.42-1.22,1.23-2.66,1.23h-.56V30.7l3.36,1.54h4.69l1.75-1.96,3.54,2.83Zm-4.9,20.06v-19.92h-5.22v19.92h5.22Z"/>
      <path class="cls-2" d="M323.19,53.14s2.56,1.89,4.1,3.25c-.1,.39-.49,.56-1.01,.56h-31.29l-.28-1.02h13.37V26.67l4.87,.53c-.07,.49-.35,.84-1.26,.98v11.52h6.72l2.24-2.77s2.45,1.86,3.95,3.22c-.1,.38-.45,.56-.95,.56h-11.97v15.23h9.31l2.2-2.8Z"/>
      <path class="cls-2" d="M335.02,31.89c.32,2.03-.35,3.5-1.29,4.09-.91,.56-2.17,.42-2.52-.59-.32-.95,.28-1.75,1.12-2.13,.98-.67,1.68-2.38,1.29-4.03l.56-.04c.28,.59,.49,1.16,.63,1.68h10.78v-1.89h-9.84l-.28-1.02h19.32l1.64-2.03s1.93,1.44,3.12,2.49c-.11,.38-.42,.56-.91,.56h-9.8v1.89h10.57l1.75-1.79,3.12,3.01c-.28,.28-.66,.35-1.33,.38-.91,.98-2.41,2.31-3.64,3.08l-.42-.25c.28-.91,.56-2.27,.74-3.43h-2.94l1.47,2.42c-.25,.17-.6,.1-.95-.21-1.4,.25-4.76,.63-7.28,.7l-.14-.46c1.86-.56,4.55-1.68,6.13-2.45h-7.07v6.06c0,.17-1.05,.73-2.7,.73h-.56v-6.79h-10.57Zm24.99,22.82s1.86,1.47,3.01,2.59c-.11,.39-.42,.56-.91,.56h-29.51l-.32-1.02h13.41v-8.09h-11.41l-.31-1.01h22.44l1.47-1.68v-.49h-2.83v.52c0,.21-1.12,.7-2.1,.7h-.38v-8.12l2.62,1.09h2.41l1.23-1.3,2.73,2.07c-.18,.21-.63,.46-1.19,.56v4.62c-.04,.17-.8,.53-1.5,.67,.66,.46,1.64,1.19,2.38,1.82-.07,.38-.46,.56-.95,.56h-6.44l3.64,1.26c-.14,.38-.6,.67-1.37,.56-.17,.42-.38,.81-.6,1.19,5.6,1.5,3.57,5.43,1.37,3.85-.25-1.02-1.01-2.17-1.89-3.05-1.37,1.93-3.12,3.29-5.04,4.13l-.42-.42c1.82-1.68,3.43-4.34,4.2-7.53h-4.9v8.09h9.52l1.64-2.13Zm-17.96-4.48c-.14,.38-.6,.67-1.3,.59-.17,.35-.38,.7-.59,1.02,6.37,1.37,4.48,5.81,2.07,4.3-.35-1.22-1.44-2.62-2.52-3.6-1.54,2.1-3.54,3.5-5.74,4.34l-.42-.46c2.17-1.58,3.99-4.27,4.87-7.63l3.64,1.44Zm-2.66-3.64v-1.01h-3.12v.73c0,.21-1.05,.74-2.06,.74h-.35v-8.37l2.56,1.09h2.7l1.22-1.23,2.59,1.96c-.14,.17-.56,.42-1.08,.53v4.83c-.04,.25-1.3,.74-2.07,.74h-.38Zm4.79-10.96c-1.47,.59-3.64,1.47-6.55,2.56-.17,.42-.46,.67-.8,.77l-1.23-2.83c1.58-.14,5.04-.56,8.51-1.05l.07,.56Zm-7.98-3.01c7.67-1.01,8.09,2.73,5.99,2.63-1.44-.74-4.13-1.65-6.16-2.03l.18-.6Zm3.19,11.94v-3.78h-3.12v3.78h3.12Zm9.31,1.96v-.94h-3.08v.52c0,.21-1.08,.74-2.07,.74h-.38v-8.16l2.59,1.09h2.66l1.23-1.23,2.62,1.96c-.17,.17-.59,.42-1.12,.53v4.76c-.04,.21-1.26,.73-2.07,.73h-.38Zm0-1.96v-3.78h-3.08v3.78h3.08Zm1.19-9.24c9.07-.46,9.45,3.61,7.11,3.4-1.61-.88-4.97-2.24-7.28-2.8l.18-.6Zm7.98,9.24v-3.78h-2.83v3.78h2.83Z"/>
      <path class="cls-2" d="M367.6,34.51c8.61,.59,6.51,6.86,3.33,4.97-.52-1.68-2.17-3.61-3.61-4.69l.28-.28Zm10.71-1.12c-1.5,4.17-4.27,11.9-4.73,13.62-.31,1.12-.59,2.24-.59,3.15,.07,1.71,1.26,3.08,1.16,6.02-.07,1.68-1.02,2.7-2.56,2.7-.73,0-1.4-.59-1.58-1.75,.56-3.64,.39-6.62-.42-7.14-.49-.35-1.01-.49-1.75-.56v-.7h1.58c.49,0,.63,0,1.01-.66q.77-1.3,7.28-14.77l.59,.11Zm-8.12-6.55c8.89,.74,6.9,7.14,3.61,5.32-.59-1.79-2.42-3.85-3.88-5.04l.28-.28Zm26.46,8.02s2.28,1.86,3.61,3.12c-.07,.38-.46,.52-.95,.52h-9.35v6.86h3.75l1.68-1.82,3.47,2.66c-.21,.28-.7,.59-1.44,.74v10.61c-.04,.25-1.65,.98-2.77,.98h-.56v-2.77h-11.62v1.89c0,.31-1.4,1.01-2.8,1.01h-.49v-14.77l3.5,1.47h3.88v-6.86h-9.17l-.28-.98h9.45v-6.13c-2.91,.35-5.91,.59-8.75,.7l-.1-.6c6.02-1.05,13.62-3.18,17.47-4.9l3.5,3.29c-.35,.31-1.09,.35-2.1-.04-1.86,.38-4.13,.77-6.62,1.12v6.55h4.69l2-2.66Zm-14.18,11.52v8.37h11.62v-8.37h-11.62Z"/>
      <path class="cls-2" d="M419.37,33.6c-.24,.28-.77,.56-1.47,.74v21.11c-.04,.28-1.58,.98-2.66,.98h-.49v-2.7h-6.2v2.7c0,.35-1.19,1.12-2.52,1.12h-.53V31.29l3.22,1.47h.63c.32-1.86,.74-4.55,.98-6.48l4.83,1.16c-.17,.56-.63,.8-1.4,.8-.84,1.33-2.06,3.12-3.04,4.52h3.68l1.61-1.82,3.36,2.66Zm-10.82,.17v8.72h6.2v-8.72h-6.2Zm6.2,18.94v-9.21h-6.2v9.21h6.2Zm21.7-19.11c-.28,.32-.7,.53-1.5,.63-.25,13.58-.8,20.62-2.59,22.65-1.12,1.29-2.63,1.82-4.66,1.82,0-1.08-.17-1.92-.73-2.41-.6-.56-2-1.05-3.61-1.33l.04-.56c1.64,.17,4.09,.35,4.93,.35,.7,0,.98-.11,1.37-.46,1.3-1.26,1.72-8.61,1.96-20.58h-7.35c-1.61,2.91-3.5,5.46-5.6,7.35l-.49-.32c2.06-3.54,4.09-9.1,5.15-14.46l4.66,1.37c-.14,.42-.56,.73-1.33,.73-.53,1.51-1.16,2.94-1.86,4.31h6.44l1.89-2,3.29,2.91Zm-14.98,6.27c9.45,3.33,6.37,10.12,3.19,7.46-.28-2.42-1.96-5.36-3.5-7.25l.31-.21Z"/>
      <path class="cls-2" d="M452.48,57.41c0,.42-1.43,1.33-2.62,1.33h-.59v-11.2c-1.65,1.01-3.78,2.34-6.06,3.67-.28,.46-.66,.74-.98,.88l-1.58-3.43c1.12-.59,1.29-.88,1.29-1.58V29.79l4.31,.46c-.07,.49-.38,.8-1.19,.91v16.38c1.26-.35,2.73-.74,4.2-1.19V26.29l4.45,.46c-.07,.49-.35,.84-1.23,.98v29.68Zm17.26-22.05c-.8,5.57-2.34,10.5-5.29,14.6,2.28,2.41,5.25,4.24,9,5.6l-.11,.35c-1.61,.35-2.62,1.26-3.04,2.83-3.29-1.61-5.78-3.85-7.7-6.55-2.49,2.66-5.78,4.94-10.05,6.62l-.28-.42c3.96-2.31,6.9-5.18,9-8.4-1.65-3.04-2.73-6.69-3.47-10.75-1.22,2.28-2.62,4.2-4.16,5.88l-.46-.28c2.28-4.73,4.2-11.76,4.94-18.62l5.04,1.08c-.14,.46-.53,.77-1.33,.84-.52,2.17-1.15,4.27-1.89,6.23h7.84l1.96-2.56s2.17,1.75,3.5,2.98c-.07,.38-.45,.56-.94,.56h-2.56Zm-10.15,0c-.38,.98-.77,1.93-1.22,2.77,.91,3.71,2.24,6.93,4.24,9.66,1.96-3.75,2.98-7.91,3.4-12.43h-6.41Z"/>
      <path class="cls-2" d="M479.99,49.04c1.19,3.57,.8,6.27-.17,7.56-.7,.84-2.28,1.02-2.87,.04-.42-.88-.03-1.82,.77-2.45,.91-.91,1.89-3.22,1.68-5.15h.59Zm-3.01-4.45s.81-.17,1.12-.38c1.68-1.33,3.71-3.85,5.43-6.41-1.22,.45-2.7,.95-4.2,1.44-.25,.35-.53,.59-.81,.7l-1.54-3.71s.7-.14,.98-.35c1.86-1.93,4.17-6.93,4.94-9.59l4.1,2.07c-.18,.31-.56,.56-1.26,.49-1.43,2.28-4.09,5.46-6.41,7.56,1.4,0,3.22,0,5.15-.04,.8-1.37,1.5-2.63,1.92-3.64l3.75,2.52c-.18,.28-.67,.49-1.33,.35-1.92,2.66-5.67,6.44-9.03,9,1.86-.07,4.38-.28,6.97-.46-.39-1.26-.95-2.52-1.44-3.43l.42-.17c6.51,3.54,3.82,8.44,1.54,6.3-.04-.56-.1-1.19-.28-1.79-2,.7-4.76,1.68-7.77,2.52-.28,.38-.59,.63-.91,.73l-1.33-3.71Zm5.99,3.85c5.08,4.52,1.75,9.21-.25,6.62,.38-2.1,.14-4.69-.25-6.51l.49-.1Zm3.39-.63c6.41,3.22,3.64,8.19,1.37,6.02,.04-1.93-.88-4.31-1.79-5.81l.42-.21Zm22.82-12.92c-.25,.28-.77,.56-1.44,.7v19.08c0,2.28-.46,3.61-4.2,3.99-.07-1.01-.25-1.82-.66-2.24-.49-.52-1.23-.88-2.7-1.12v-.52s3.08,.24,3.75,.24c.59,0,.74-.21,.74-.7v-6.58c-.91,.38-1.72,1.26-2.03,2.17-1.4-2.24-2.31-4.76-2.91-7.77-1.37,2.84-3.26,5.71-5.57,7.91v7.56c0,.38-1.16,1.08-2.42,1.08h-.49v-26.04l3.08,1.4h4.41c-.1-1.65-.17-3.33-.25-5.18h-3.25l-.32-1.01h2.77l1.19-1.79,3.19,2.38c-.42,.49-1.37,.77-2.62,.84,.14,1.65,.32,3.22,.56,4.76h4.31l1.47-1.75,3.4,2.59Zm-15.02,14.11c2.2-3.43,3.88-8.72,4.58-13.93h-4.58v13.93Zm5.99-13.93c.8,4.69,2.13,8.79,4.52,11.73v-11.73h-4.52Z"/>
      <path class="cls-2" d="M536.97,50.58c6.16,.63,7.14,2.59,6.48,3.64,.7,.56,1.68,1.4,2.42,2.1-.07,.38-.46,.56-.91,.56h-17.61l-1.23,1.65-3.57-2.03c.32-.32,.91-.74,1.47-1.02v-19.85c-.14,.07-.35,.11-.56,.11h-3.29v2.48c5.92,3.19,3.47,7.49,1.4,5.6-.07-1.43-.74-3.18-1.4-4.62v18.45c0,.35-1.23,1.08-2.28,1.08h-.59v-14.53c-1.05,2.31-2.35,4.38-3.89,6.3l-.49-.42c2.1-4.03,3.33-9.24,3.96-14.35h-3.43l-.28-1.02h4.13v-8.61l4.16,.45c-.1,.53-.38,.84-1.29,.98v7.18h.04l1.5-2.13s1.29,1.19,2.31,2.24v-7.56l3.5,1.44h12.43l1.75-2.31s2.03,1.58,3.22,2.73c-.1,.38-.45,.56-.91,.56h-16.91v26.18h13.86l.66-.91c-.31-.07-.66-.25-.95-.56-.63-1.05-1.96-2.34-3.92-3.33l.21-.49Zm5.88-14.07s-.11,.14-.25,.21c.59,.46,1.71,1.4,2.49,2.14-.07,.38-.42,.56-.91,.56h-16.35l-.28-1.01h7.14v-1.96h-2.84v.56c0,.21-1.16,.8-2.21,.8h-.39v-6.62l2.77,1.16h2.66v-2.45l3.85,.38c-.07,.46-.35,.77-1.16,.88v1.19h2.52l1.29-1.3,2.73,2.03c-.17,.21-.59,.42-1.09,.53v2.91Zm-15.23,18.06c2.17-1.05,4.55-2.97,5.71-4.3l3.4,2.24c-.32,.35-.84,.42-1.71,.21-1.68,.91-4.52,1.89-7.18,2.34l-.21-.49Zm12.46-3.6v-1.09h-8.16v.77c0,.25-1.26,.84-2.38,.84h-.42v-11.8l2.98,1.22h7.66l1.4-1.43,2.87,2.17c-.17,.25-.56,.49-1.12,.56v7.95c-.03,.21-1.43,.81-2.38,.81h-.46Zm-5.39-15.54v-2.07h-2.84v2.07h2.84Zm-2.77,6.51v1.65h8.16v-1.65h-8.16Zm8.16,2.66h-8.16v1.65h8.16v-1.65Zm0,4.27v-1.61h-8.16v1.61h8.16Zm-2.7-15.51v2.07h2.8v-2.07h-2.8Zm3.26,5.04l1.05-1.33c-.35,.1-.74,.17-1.05,.17h-.46v-.81h-2.8v1.96h3.26Z"/>
      <path class="cls-2" d="M554.12,46.13c2.07-1.19,3.01-2.7,3.46-4.52-1.82-.8-2.97-1.68-2.97-3.19,0-1.26,.88-2.34,2.41-2.34s2.66,1.16,2.66,3.33c0,2.66-1.26,6.06-4.97,7.84l-.59-1.12Z"/>
      <path class="cls-2" d="M588.39,30.52c-.8,1.89-1.82,3.78-2.97,5.64l1.96,.73c-.11,.32-.42,.56-1.08,.67v20.41c-.04,.21-1.51,.81-2.73,.81h-.63v-19.01c-3.82,4.97-8.79,9.45-14.42,12.67l-.35-.38c7.14-5.57,13.3-14.07,15.75-21.53h-14.95l-.28-1.02h25.69l2.27-2.8s2.49,1.89,4.06,3.25c-.1,.39-.46,.56-.98,.56h-11.34Zm-.35,8.79c15.3,4.27,14.04,12.64,9.98,10.64-1.89-3.46-6.72-7.77-10.33-10.29l.35-.35Z"/>
      <path class="cls-2" d="M604.45,58.39c4.55-2.97,8.93-7.81,11.03-11.45l4.34,2.27c-.24,.35-.56,.53-1.36,.39-2.87,3.29-8.05,7.11-13.69,9.21l-.32-.42Zm8.68-12.46c0,.35-1.47,1.16-2.91,1.16h-.56V28l3.71,1.54h15.51l1.71-1.89,3.57,2.76c-.24,.28-.73,.56-1.47,.74v14.46c-.04,.25-1.75,.98-2.91,.98h-.56v-2.28h-16.1v1.61Zm0-15.37v12.78h16.1v-12.78h-16.1Zm11.38,16.94c14.53,4.24,12.95,12.78,8.89,10.61-1.58-3.54-5.81-7.77-9.24-10.29l.35-.32Z"/>
      <path class="cls-2" d="M651.31,31.05s1.72,1.4,2.84,2.45c-.11,.38-.45,.56-.95,.56h-11.8l-.28-1.01h8.58l1.61-2Zm-2.45,6.41l1.44-1.86s1.65,1.33,2.66,2.31c-.1,.38-.42,.56-.91,.56h-9.31l-.28-1.01h6.41Zm1.44,2.66s1.65,1.29,2.66,2.28c-.1,.38-.42,.56-.91,.56h-9.31l-.28-1.01h6.41l1.44-1.82Zm20.83,5.43s1.71,1.37,2.8,2.34c-.07,.39-.42,.56-.88,.56h-3.92l2.8,2.17c-.14,.25-.46,.35-1.19,.14-.91,.45-2.56,1.01-3.89,1.5,1.89,1.43,4.24,2.49,6.76,3.01l-.04,.39c-1.09,.28-1.96,1.22-2.28,2.66-4.34-1.79-7.14-4.97-8.65-9.87-.66,.7-1.4,1.26-2.24,1.86v4.41c1.22-.38,2.59-.81,3.95-1.26l.14,.45c-1.12,.84-3.5,2.59-5.99,4.27-.25,.32-.56,.56-.84,.67l-1.47-3.15c1.23-.56,1.4-.8,1.4-1.4v-2.38c-1.54,.74-3.22,1.37-4.97,1.82l-.31-.52c2.62-1.23,4.87-2.91,6.48-4.76h-5.71l-.24-.88c-.21,.1-.49,.21-.77,.28v8.26c-.04,.28-1.44,.94-2.45,.94h-.46v-1.64h-3.5v2.07c0,.28-1.26,.94-2.49,.94h-.42v-13.3l3.05,1.26h3.01l1.47-1.54,3.12,2.34c-.07,.07-.17,.18-.28,.25h4.59v-2.38h-3.47l-.28-1.01h3.75v-2.17h-4.2l-.28-.98h4.48v-2.38l3.82,.38c-.04,.42-.32,.7-.98,.81v1.19h3.68l-.04-2c-.11,.04-.25,.04-.35,.04h-.35v-6.97l2.52,1.09h2.62l1.19-1.26,2.62,2c-.17,.21-.63,.46-1.19,.56v3.64c-.04,.24-1.22,.73-2,.73h-.35v-.63h-3.08v.14c0,.07-.25,.25-.6,.35l2.59,.28c-.04,.35-.28,.63-.81,.73v1.3h1.72l1.43-1.82s1.68,1.26,2.7,2.24c-.1,.38-.42,.56-.91,.56h-4.94v2.17h1.05l1.36-1.68s1.54,1.19,2.49,2.13c-.07,.39-.38,.56-.88,.56h-4.03v2.38h2.56l1.54-1.89Zm-26.95-18.69c8.05,1.05,5.39,6.9,2.35,4.83-.35-1.61-1.61-3.47-2.7-4.62l.35-.21Zm5.01,27.55v-7h-3.5v7h3.5Zm3.71-24.19h9.31c-.25-.07-.49-.21-.77-.38-.14-1.33-1.05-2.83-1.89-3.71l.31-.25c5.46,.59,5.04,3.82,3.29,4.34h5.57l1.75-2.13s2,1.47,3.19,2.59c-.11,.38-.46,.56-.88,.56h-19.57l-.32-1.02Zm6.9,8.51v-.67h-2.94v.46c0,.17-1.05,.7-2,.7h-.35v-7.25l2.49,1.09h2.52l1.22-1.23,2.56,1.92c-.17,.25-.59,.49-1.16,.6v3.64c-.04,.24-1.19,.73-1.96,.73h-.38Zm0-1.68v-2.98h-2.94v2.98h2.94Zm.77,7h3.68v-2.17h-3.68v2.17Zm0,1.01v2.34h2.56v.04h1.12v-2.38h-3.68Zm2.87,3.4c.7,1.19,1.61,2.24,2.66,3.19,.91-.98,1.96-2.28,2.66-3.19h-5.32Zm2.42-14.39v3.01h3.08v-3.01h-3.08Z"/>
      <path class="cls-2" d="M690.44,34.93c-.31,.32-.74,.38-1.54,.45-.8,1.86-1.96,3.78-3.33,5.67,7.11,2.49,4.69,7.35,2.13,5.39-.28-1.37-1.22-2.94-2.17-4.2v15.4c0,.21-1.05,1.05-2.56,1.05h-.56v-13.93c-1.5,1.58-3.15,2.98-4.87,4.1l-.39-.35c3.61-3.71,6.93-9.28,8.33-13.79h-7.42l-.31-1.01h7.6l1.89-1.82,3.19,3.05Zm-9.1-8.58c7.95,1.96,4.69,7.39,1.92,5.01-.17-1.61-1.29-3.57-2.24-4.8l.32-.21Zm28.28,28.35c.8,.38,.94,.77,.94,1.37,0,1.22-1.08,1.89-5,1.89h-2.2c-2.59,0-2.98-.73-2.98-2.76v-9.38h-1.68c-.46,4.97-1.89,9.73-10.5,12.95l-.42-.53c6.58-3.71,7.28-8.09,7.46-12.43h-.28v.94c0,.35-1.33,1.09-2.7,1.09h-.49V27.3l3.36,1.47h8.79l1.61-1.82,3.36,2.66c-.25,.28-.77,.59-1.47,.74v16.21c-.03,.25-1.58,.95-2.62,.95h-.53v-1.68h-.73v8.61c0,.42,.1,.56,.77,.56h1.58c.63,0,1.16,0,1.44-.04,.28,0,.38-.07,.56-.39,.25-.56,.7-2.42,1.23-4.38h.42l.11,4.52Zm-14.67-24.92v4.34h9.31v-4.34h-9.31Zm0,9.49h9.31v-4.13h-9.31v4.13Zm0,5.53h9.31v-4.52h-9.31v4.52Z"/>
      <path class="cls-2" d="M747.25,40.78c-.28,.28-.66,.35-1.37,.38-1.12,1.75-3.19,4.1-4.9,5.57l-.38-.28c.63-1.65,1.37-4.06,1.82-5.92h-3.26v13.72c0,2.42-.59,4.13-4.76,4.48-.07-1.05-.28-1.93-.84-2.45-.59-.56-1.5-.98-3.36-1.23v-.49s4.03,.25,4.87,.25c.6,0,.81-.17,.81-.67v-13.62h-5.81v1.37c-.04,.28-1.54,1.12-2.7,1.12h-.53v-1.54h-2.98v4.87h2.35l1.75-2.34s2,1.64,3.15,2.8c-.1,.38-.46,.56-.91,.56h-6.34v4.66c2.38-.42,4.97-.91,7.6-1.4l.1,.49c-3.29,1.44-8.05,3.29-14.98,5.71-.17,.46-.49,.74-.88,.88l-1.96-4.03c1.5-.18,4.03-.6,7.07-1.12v-5.18h-5.92l-.28-1.02h6.2v-4.87h-2.91v1.47c0,.32-1.23,.95-2.45,.95h-.42V27.65l3.04,1.29h8.4l1.61-1.72,3.29,2.52-.25-.84h10.05l2-1.86,3.29,3.15c-.28,.25-.7,.35-1.44,.39-1.44,1.22-3.82,2.73-5.95,3.88,2.91,2.35,1.44,5.46-.94,4.2-.84-2.24-3.43-4.76-5.6-6.06l.31-.31c2.35,.28,4.06,.84,5.29,1.54,1.01-1.23,2.1-2.7,2.87-3.92h-9.56v-.03c-.28,.25-.74,.49-1.4,.63v9h12.15l1.85-1.82,3.19,3.08Zm-29.33-10.82v4.8h2.91v-4.8h-2.91Zm2.91,10.5v-4.72h-2.91v4.72h2.91Zm3.04-10.5v4.8h2.98v-4.8h-2.98Zm2.98,10.5v-4.72h-2.98v4.72h2.98Z"/>
      <path class="cls-2" d="M779.45,46.34s2.03,1.79,3.19,3.05c-.11,.38-.45,.56-.95,.56h-30.63l-.28-1.01h5.5v-7.35h-3.99l-.31-1.01h4.3v-6.44c-1.61,1.5-3.25,2.8-5,3.82l-.42-.39c2.38-2.59,4.97-6.93,6.62-11.41l4.66,1.89c-.17,.38-.63,.67-1.4,.59-.59,.91-1.22,1.79-1.89,2.63h17.19l1.93-2.52s2.17,1.71,3.5,2.97c-.11,.39-.46,.56-.95,.56h-22.51c-.46,.56-.95,1.12-1.47,1.65l4.1,.42c-.07,.42-.38,.8-1.3,.95v5.29h2.87v-6.65l4.2,.42c-.07,.49-.38,.8-1.29,.95v5.29h2.91v-6.55l4.16,.42c-.07,.49-.35,.84-1.26,.98v5.15h2.83v-6.62l4.31,.46c-.07,.49-.38,.84-1.29,.98v5.18h.28l1.82-2.45s2.06,1.68,3.29,2.91c-.07,.38-.46,.56-.95,.56h-4.45v7.35h.95l1.75-2.59Zm-22.58,4.38c1.01,4.3-.74,6.97-2.52,7.88-1.16,.63-2.73,.46-3.15-.73-.35-1.05,.35-1.93,1.33-2.42,1.61-.63,3.61-2.42,3.78-4.76l.56,.04Zm2.45-1.79h2.87v-7.35h-2.87v7.35Zm2.06,2.13c5.95,4.31,2.03,9.52-.24,6.55,.46-2.14,.24-4.62-.18-6.41l.42-.14Zm3.71-9.49v7.35h2.91v-7.35h-2.91Zm2.56,9.31c8.09,3.29,5.15,9.52,2.27,7-.1-2.31-1.4-5.01-2.7-6.79l.42-.21Zm3.25-9.31v7.35h2.83v-7.35h-2.83Zm4.24,9.03c9.77,2.94,7.04,10.15,3.71,7.67-.39-2.56-2.31-5.57-4.06-7.42l.35-.25Z"/>
      <path class="cls-2" d="M325.85,74.25c-.28,.32-.77,.42-1.58,.45-1.23,2.17-3.43,5.99-5.11,8.16,3.92,2.48,5.5,5.74,5.5,8.58,.04,3.43-1.33,5.25-5.18,5.36,0-.94-.14-2.17-.42-2.59-.28-.32-.95-.59-1.82-.74v-.49h2.56c.35,0,.56-.07,.84-.21,.56-.31,.88-.98,.88-2.21,0-2.49-.91-5.15-3.22-7.63,.74-2.21,1.82-6.33,2.45-9.14h-3.92v28.11c0,.24-1.02,1.08-2.56,1.08h-.56v-31.64l3.54,1.44h3.29l1.86-1.82,3.47,3.29Zm17.92,15.3c-.21,.28-.56,.31-1.16,.1-1.29,.81-3.96,2.1-6.48,2.98,2.31,3.22,5.36,5.64,8.93,6.9l-.04,.38c-1.19,.28-2.17,1.23-2.52,2.77-5.6-3.04-8.65-8.47-10.19-16.49h-3.26v12.18c1.75-.45,3.85-1.05,5.88-1.68l.11,.45c-1.54,1.01-4.52,3.01-7.84,4.9-.28,.53-.7,.88-1.01,1.01l-1.68-3.54c1.19-.59,1.4-.88,1.4-1.75v-26.53l3.61,1.61h8.23l1.61-1.79,3.4,2.62c-.21,.28-.74,.56-1.43,.74v12.08c0,.14-.35,.35-.77,.56l3.22,2.49Zm-5.67-10.71v-4.97h-9.03v4.97h9.03Zm-9.03,6.34h9.03v-5.32h-9.03v5.32Zm3.96,1.02c.59,2.03,1.5,3.96,2.62,5.71,1.5-1.4,3.22-3.33,4.2-4.55-.38,.1-.84,.21-1.22,.21h-.53v-1.37h-5.08Z"/>
      <path class="cls-2" d="M361.62,85c-.25,.32-.56,.45-1.33,.53-.59,3.64-1.61,7.21-3.57,10.4,3.78,2.2,8.93,2.66,16.1,2.66,1.89,0,6.2,0,8.44-.03v.46c-1.37,.24-2,1.4-2.1,2.73h-6.62c-7.88,0-13.23-.8-17.05-4.03-1.58,2-3.64,3.75-6.34,5.18l-.32-.49c2.24-1.71,3.96-3.78,5.22-6.16-1.79-2.1-3.19-4.9-4.27-8.72l.42-.21c1.19,3.25,2.7,5.57,4.62,7.25,1.29-2.91,2-6.16,2.38-9.45h-3.08l-1.12,1.12-2.87-2c.31-.24,.77-.45,1.26-.63,1.19-2.38,2.91-6.2,3.78-8.68h-5.91l-.32-1.01h6.2l1.54-1.58,3.12,2.8c-.25,.32-.88,.45-1.58,.53-.95,2.21-2.66,5.99-3.85,8.44h2.59l1.68-1.68,2.97,2.59Zm7.6-9.66c-2.77,.32-5.71,.59-8.51,.7l-.1-.56c5.67-.98,12.46-3.19,15.93-4.97l3.43,3.18c-.35,.32-1.02,.35-2.03-.03-1.58,.42-3.47,.8-5.53,1.19v7.95h2.31l1.75-2.62s2.1,1.82,3.26,3.08c-.07,.38-.46,.56-.95,.56h-6.37v10.36h3.43l1.82-2.52s2.07,1.75,3.19,2.98c-.07,.38-.42,.56-.91,.56h-20.2l-.28-1.02h2.8v-14.46l4.3,.46c-.1,.52-.42,.84-1.29,.98v13.02h3.96v-18.83Z"/>
      <path class="cls-2" d="M396.83,71.97c-.14,.42-.56,.66-1.33,.66-.95,2.45-2,4.76-3.15,6.9l1.4,.53c-.1,.35-.42,.56-1.09,.66v21.25c-.04,.25-1.4,1.02-2.7,1.02h-.63v-18.59c-1.33,1.82-2.73,3.43-4.24,4.83l-.46-.31c2.8-4.48,5.78-11.62,7.35-18.45l4.83,1.5Zm20.76,5.64c-.25,.25-.77,.56-1.44,.7v15.4c-.03,.28-1.64,1.08-2.83,1.08h-.53v-2.31h-5.25v9.24c0,.42-1.4,1.23-2.7,1.23h-.63v-10.47h-5.11v1.43c0,.38-1.37,1.16-2.8,1.16h-.45v-19.81l3.47,1.51h4.9v-6.09l4.62,.49c-.1,.49-.35,.84-1.29,.98v4.62h4.9l1.68-1.86,3.46,2.7Zm-18.48,.14v6.2h5.11v-6.2h-5.11Zm5.11,13.72v-6.51h-5.11v6.51h5.11Zm3.33-13.72v6.2h5.25v-6.2h-5.25Zm5.25,13.72v-6.51h-5.25v6.51h5.25Z"/>
      <path class="cls-2" d="M426.02,90.35c2.07-1.19,3.01-2.7,3.46-4.52-1.82-.8-2.97-1.68-2.97-3.19,0-1.26,.88-2.34,2.41-2.34s2.66,1.16,2.66,3.33c0,2.66-1.26,6.06-4.97,7.84l-.59-1.12Z"/>
      <path class="cls-2" d="M472.82,76.98c-.25,.31-.63,.38-1.37,.42-1.08,1.22-3.01,2.91-4.55,3.85l-.35-.25c.35-1.19,.81-2.91,1.09-4.31h-5.53v4.9c0,.95,.04,.95,1.08,.95h5.5c.25,0,.59,0,.98-.14h.32l.17,.03c1.16,.42,1.33,.63,1.33,1.12,0,1.26-.77,1.82-4.03,1.82h-4.69c-3.57,0-3.92-.38-3.92-3.75v-4.94h-13.02c.28,2.59-.63,4.34-1.82,5.08-1.08,.7-2.52,.53-2.98-.59-.38-1.05,.28-1.92,1.19-2.42,1.33-.81,2.52-2.91,2.24-5.18l.53-.04c.31,.74,.52,1.47,.7,2.14h10.85c-.35-.07-.77-.28-1.16-.6-.07-1.68-.98-3.61-1.96-4.79l.32-.18c6.62,1.09,5.81,5.11,3.6,5.57h10.12l1.93-1.96,3.43,3.26Zm-16.77,2.07c-.14,.42-.52,.66-1.58,.66-2.34,3.75-5.88,6.51-12.43,7.53l-.25-.42c5.85-2.49,8.65-5.92,9.87-9.94l4.38,2.17Zm11.94,18.59s2.28,1.79,3.61,3.12c-.11,.38-.45,.56-.98,.56h-28.35l-.32-1.01h12.78v-10.92h-8.58l-.28-1.01h16.7l1.93-2.45s2.1,1.68,3.36,2.91c-.07,.38-.46,.56-.95,.56h-8.75v10.92h7.81l2.03-2.66Z"/>
      <path class="cls-2" d="M481.88,82.76v18.97c0,.46-1.19,1.26-2.73,1.26h-.56v-31.5l3.43,1.51h5.67l1.47-1.61,3.25,2.42c-.21,.25-.7,.53-1.33,.63v9.28c-.04,.21-1.58,.88-2.59,.88h-.49v-1.82h-6.13Zm0-8.75v3.36h6.13v-3.36h-6.13Zm6.13,7.77v-3.46h-6.13v3.46h6.13Zm11.48,16.77c-.04,.28-1.58,.98-2.62,.98h-.49v-2h-7.11v1.4c0,.31-1.29,.98-2.59,.98h-.45v-14.46l3.19,1.37h6.62l1.54-1.65,3.22,2.41c-.21,.28-.7,.56-1.29,.67v10.29Zm-10.22-10.75v3.78h7.11v-3.78h-7.11Zm7.11,8.75v-3.99h-7.11v3.99h7.11Zm12.32-22.72c-.25,.28-.77,.59-1.44,.74v24.22c0,2.42-.49,3.82-4.45,4.17-.11-1.02-.28-1.86-.7-2.38-.53-.49-1.26-.88-2.84-1.15v-.53s3.22,.25,3.88,.25c.63,0,.77-.25,.77-.74v-15.65h-6.37v.7c0,.32-1.37,1.05-2.7,1.05h-.46v-12.88l3.33,1.37h5.85l1.57-1.86,3.54,2.7Zm-11.13,.17v3.36h6.37v-3.36h-6.37Zm6.37,7.77v-3.46h-6.37v3.46h6.37Z"/>
      <path class="cls-2" d="M524.69,87.8c-.28,.31-.63,.38-1.37,.42-.67,2.52-2.14,5.39-4.24,7.53,.17,.07,.35,.17,.56,.35,2.94,2.66,7.04,3.15,14.35,3.12,4.17,0,7.6,0,11.8-.21v.42c-1.4,.28-2.17,1.4-2.35,2.73h-10.5c-7.42,0-10.61-1.22-13.72-4.9-.49-.59-.88-.52-1.16,.04-.59,1.05-1.75,3.05-2.55,4.66,.1,.28,.04,.53-.21,.7l-2.45-3.25c1.58-1.02,3.99-3.01,5.04-3.57,1.19-2.21,2.1-5.22,2.45-7.77h-2.66l-1.12,.98-2.56-2.03c.35-.21,.88-.49,1.4-.63,1.19-1.65,2.73-4.03,3.75-5.81h-5.36l-.31-1.02h5.81l1.43-1.5,2.91,2.66c-.28,.32-.91,.49-1.68,.53-.95,1.58-2.59,4.03-3.85,5.81h2.03l1.68-1.61,2.87,2.38Zm-9.38-17.05c8.26,1.85,5.6,7.66,2.66,5.53-.28-1.82-1.72-3.99-3.01-5.32l.35-.21Zm11.06,2.97c-.04,1.75-.8,2.98-1.79,3.47-.98,.49-2.31,.28-2.66-.77-.28-1.05,.38-1.79,1.26-2.21,1.09-.53,2.17-1.92,2.06-3.4l.56-.04c.25,.7,.42,1.33,.49,1.93h14.25l1.71-1.75,3.05,2.94c-.25,.28-.63,.35-1.33,.42-.63,.7-1.65,1.64-2.59,2.38,.63,.49,1.37,1.05,1.93,1.58-.11,.38-.46,.56-.95,.56h-7.6v2.59h3.36l1.54-1.68,3.25,2.52c-.24,.28-.77,.6-1.47,.74v7.77c-.04,.25-1.5,.91-2.49,.91h-.49v-1.12h-3.71v2.94h4.55l1.82-2.24s2.1,1.54,3.36,2.7c-.07,.38-.42,.56-.91,.56h-8.82v3.33c0,.35-1.33,1.01-2.49,1.01h-.56v-4.34h-8.12l-.28-1.02h8.4v-2.94h-3.75v.66c0,.28-1.29,.91-2.49,.91h-.46v-12.04l3.15,1.33h3.54v-2.59h-7.39l-.28-1.02h7.66v-3.36l4.31,.46c-.07,.49-.35,.84-1.26,.98v1.92h3.5l1.75-2.1,.46,.32c.11-.7,.21-1.58,.32-2.31h-14.42Zm1.61,8.72v3.01h3.75v-3.01h-3.75Zm3.75,7.11v-3.08h-3.75v3.08h3.75Zm3.05-7.11v3.01h3.71v-3.01h-3.71Zm3.71,7.11v-3.08h-3.71v3.08h3.71Z"/>
      <path class="cls-2" d="M580.34,74.01c-.28,.32-.84,.67-1.65,.81v23.77c0,2.38-.49,3.78-4.62,4.13-.11-.98-.32-1.82-.77-2.31-.56-.52-1.37-.91-3.01-1.16v-.52s3.54,.28,4.27,.28c.63,0,.8-.28,.8-.77v-7.49h-7.91v10.92c0,.21-1.01,.94-2.7,.94h-.56v-11.87h-7.6c-.66,4.41-2.38,8.79-6.72,12.08l-.45-.31c3.89-5.22,4.31-11.94,4.31-18.59v-12.22l3.82,1.4h17.43l1.64-1.92,3.71,2.83Zm-16.14,15.72v-7.39h-7.18v1.54c0,1.89-.04,3.85-.28,5.85h7.46Zm-7.18-15.61v7.21h7.18v-7.21h-7.18Zm10.43,0v7.21h7.91v-7.21h-7.91Zm7.91,15.61v-7.39h-7.91v7.39h7.91Z"/>
      <path class="cls-2" d="M616.56,98.12c1.43,.46,1.85,.81,1.85,1.54,0,1.92-2.13,2.38-12.71,2.38h-7.14c-5.08,0-7.07-.63-7.07-4.27v-13.79l-5.15,1.33-.59-.91,5.74-1.47v-9.17l4.66,.49c-.04,.45-.42,.84-1.26,.98v6.79l6.34-1.68v-9.87l4.62,.46c-.1,.49-.38,.84-1.29,.98v7.56l6.02-1.54h-.17l2.07-2.14,3.29,3.5c-.28,.28-.67,.42-1.43,.49-.91,4.1-2.73,9.94-5.04,13.83l-.42-.25c.88-4.34,1.47-10.26,1.68-14.39l-5.99,1.58v13.9c0,.35-1.47,1.05-2.7,1.05h-.63v-14.07l-6.34,1.65v13.93c0,1.4,.74,1.86,3.54,1.86h7.53c3.01,0,5.36-.07,6.44-.17,.84-.07,1.23-.28,1.54-.74,.53-.8,1.19-2.49,2.14-5.74h.42l.07,5.92Z"/>
      <path class="cls-2" d="M639.1,88.57v1.4c0,.25-.91,.8-2.35,.8h-.49v-16.94c-.17,.14-.42,.21-.74,.21h-2.06v28.07c0,.21-.91,.88-2.35,.88h-.46v-8.47c-1.68,.98-3.82,2.17-6.37,3.54-.14,.42-.46,.77-.84,.88l-1.4-3.82c.52-.07,1.26-.21,2.17-.38v-20.69h-1.79l-.28-1.02h9.14l1.79-2.27s2.1,1.58,3.4,2.73l-.04,.11,3.05,1.23h2.17c.38-1.3,.88-3.12,1.19-4.38l4.34,.95c-.14,.49-.63,.77-1.36,.77-.74,.74-1.86,1.79-2.7,2.66h7.11l1.47-1.72,2.98,2.35c-.25,.28-.63,.49-1.4,.63v13.27c0,.17-1.01,.8-2.41,.8h-.49v-1.58h-11.27Zm-8.44-14.53h-3.67v5.78h3.67v-5.78Zm0,6.79h-3.67v6.06h3.67v-6.06Zm-3.67,13.34c1.15-.25,2.38-.53,3.67-.8v-5.46h-3.67v6.27Zm10.12-1.54c1.12,3.4,.53,5.88-.45,6.97-.73,.74-2.21,.8-2.73-.17-.35-.88,.1-1.72,.88-2.28,.95-.77,1.92-2.73,1.75-4.52h.56Zm2-16.8v11.73h11.27v-7.42c-.21,.31-.66,.56-1.37,.38-.46,.74-.98,1.4-1.5,2.03,2.66,2.7,1.71,4.66,0,3.75-.35-.67-.91-1.43-1.58-2.17-1.61,1.37-3.4,2.42-5.18,3.12l-.42-.53c1.47-.94,3.01-2.27,4.31-3.99-.56-.56-1.16-1.16-1.75-1.68-.91,.91-1.89,1.64-2.87,2.21l-.46-.42c.74-.77,1.4-1.75,2.07-2.94-.67-.59-1.37-1.12-2-1.58l.38-.35c.77,.32,1.47,.63,2.14,.91,.42-.88,.84-1.85,1.16-2.87l3.36,1.26c-.17,.38-.6,.7-1.33,.59-.42,.74-.88,1.37-1.37,2,.7,.42,1.29,.8,1.86,1.23,.52-.84,.98-1.75,1.4-2.66l3.15,1.61v-4.2h-11.27Zm11.38,23.24c.84,.32,1.01,.7,1.01,1.26,0,1.22-1.22,1.79-5.95,1.79h-3.08c-2.84,0-3.33-.63-3.33-2.66v-8.16l4.03,.38c-.07,.46-.42,.77-1.05,.88v6.27c0,.42,.14,.56,1.09,.56h2.59c1.01,0,1.96,0,2.31-.04,.39-.04,.53-.07,.67-.42,.28-.49,.7-2.07,1.19-3.89h.42l.11,4.03Zm-6.97-9.24c7.32,3.01,4.24,8.54,1.75,6.09,.07-1.96-1.01-4.38-2.1-5.88l.35-.21Zm6.62,2.14c7.46,3.54,4.59,9.07,2,6.72-.07-2.17-1.26-4.8-2.38-6.51l.38-.21Z"/>
      <path class="cls-2" d="M663.25,92.28v3.43c0,.25-1.01,1.09-2.62,1.09h-.53v-24.64l3.57,1.4h4.59l1.61-1.79,3.33,2.62c-.21,.28-.77,.56-1.47,.74v18.94c-.03,.31-1.5,1.12-2.62,1.12h-.49v-2.91h-5.36Zm0-17.71v7.74h5.36v-7.74h-5.36Zm5.36,16.7v-7.98h-5.36v7.98h5.36Zm22.3-17.5c-.25,.32-.81,.6-1.47,.74v24.26c0,2.38-.52,3.82-4.83,4.24-.14-1.05-.38-1.82-.98-2.31-.66-.56-1.64-.95-3.61-1.22v-.53s4.41,.28,5.29,.28c.7,0,.91-.21,.91-.81v-8.37h-8.05c-.84,5-3.26,9.7-9.94,12.95l-.42-.35c6.51-4.97,7.6-11.2,7.6-18.52v-12.6l3.71,1.4h6.76l1.54-1.82,3.5,2.66Zm-4.69,15.26v-7.11h-7.63v2.17c0,1.65-.07,3.29-.28,4.94h7.91Zm-7.63-15.09v6.97h7.63v-6.97h-7.63Z"/>
      <path class="cls-2" d="M695.31,78.91c8.02,1.05,5.5,6.9,2.52,4.83-.31-1.65-1.58-3.5-2.83-4.59l.32-.25Zm9.59-1.16c-1.23,4.1-3.54,11.59-3.99,13.27-.25,1.08-.49,2.2-.46,3.08,.07,1.72,1.22,3.19,1.09,6.16-.07,1.65-.95,2.66-2.35,2.66-.73,0-1.33-.56-1.5-1.79,.56-3.61,.38-6.65-.38-7.18-.49-.35-.95-.46-1.72-.53v-.73h1.51c.45,0,.59,0,.94-.67q.7-1.26,6.27-14.42l.6,.14Zm-7.28-6.83c8.47,1.29,5.99,7.18,2.94,5.18-.46-1.75-2-3.71-3.25-4.94l.31-.25Zm20.9,10.29v-1.82h-1.89v3.64h6.23l1.43-1.65,3.29,2.49c-.21,.25-.7,.53-1.33,.67v14.46c0,2.31-.42,3.6-4.09,3.96-.07-.95-.25-1.75-.67-2.24-.39-.49-1.12-.84-2.49-1.08v-.53s2.87,.21,3.5,.21c.53,0,.7-.21,.7-.67v-4.06c-.35,.53-.59,1.26-.7,1.93-1.12-.98-2.07-2.91-2.45-4.69-.67,1.71-1.92,3.43-3.43,4.48v5.5c0,.17-.88,.8-2.38,.8h-.53v-8.16c-.38,.53-.66,1.33-.8,2.07-1.01-.95-1.79-2.77-2.1-4.52-.59,1.79-1.89,3.54-3.39,4.52l-.04-.04v5.5c0,.35-1.16,1.02-2.45,1.02h-.49v-21.28l3.19,1.33h6.09v-3.64h-1.85v1.37c0,.25-1.26,.8-2.45,.8h-.53v-6.41h-4.97l-.28-1.02h5.25v-3.71l4.27,.42c-.07,.49-.38,.84-1.29,.98v2.31h6.65v-3.71l4.34,.38c-.11,.53-.39,.84-1.33,.98v2.34h1.61l1.68-2.31s1.92,1.61,3.04,2.76c-.07,.39-.42,.56-.91,.56h-5.42v5.25c0,.28-1.3,.81-2.49,.81h-.53Zm-7.56,7.39c.31,2.24,1.26,3.78,2.76,4.83v-9.38h-6.33v11.87c1.26-1.54,2.45-4.48,2.76-7.28v-.63h-1.82l-.21-.95h1.61l.77-1.16,2,1.54c-.25,.28-.77,.53-1.54,.63v.53Zm7.56-13.44h-6.65v3.22h6.65v-3.22Zm-1.89,8.89v11.41c1.23-1.64,2.38-4.41,2.73-6.93v-.52h-2.03l-.17-.95h1.79l.77-1.19,2.1,1.58c-.28,.28-.8,.53-1.61,.63v.46c.38,2.14,1.47,3.64,3.01,4.73v-9.21h-6.58Z"/>
      <path class="cls-2" d="M745.99,74.11c-.17,.38-.46,.59-1.33,.52-2.38,4.38-6.72,9.49-12.85,12.29l-.31-.38c4.83-3.67,8.33-9.56,9.87-14.32l4.62,1.89Zm9.28,8.65l3.26,2.8c-.25,.28-.66,.49-1.44,.59-.38,8.44-1.19,13.58-2.94,15.12-1.12,.98-2.52,1.44-4.51,1.44,.03-.98-.18-1.86-.77-2.31-.63-.56-2.21-1.01-3.78-1.29l.04-.53c1.68,.14,4.48,.35,5.32,.35,.67,0,.95-.07,1.29-.38,1.05-.91,1.68-5.81,2.07-12.92h-7.11c-.6,5.88-2.52,12.46-13.58,17.22l-.38-.52c8.86-5.39,10.05-11.59,10.33-16.7h-5.39l-.32-1.01h16.1l1.82-1.86Zm0-10.08c-.38,.45-1.43,.7-2.62,.8,1.71,3.75,6.06,7.42,11.45,9.21l-.07,.39c-1.33,.38-2.41,1.54-2.8,2.84-4.66-2.91-8.05-7.32-9.56-12.6h-3.89l-.32-1.01h3.36l1.16-1.82,3.29,2.21Z"/>
      <path class="cls-2" d="M770.49,86.71c0-2.73,2.24-4.94,4.97-4.94s4.94,2.21,4.94,4.94-2.21,4.97-4.94,4.97-4.97-2.24-4.97-4.97Zm1.26,0c0,2.03,1.65,3.71,3.71,3.71s3.67-1.68,3.67-3.71-1.64-3.67-3.67-3.67-3.71,1.64-3.71,3.67Z"/>
    </g>
  </g>
</svg>