<?xml version="1.0" encoding="UTF-8"?>
<svg id="_圖層_2" data-name="圖層 2" xmlns="http://www.w3.org/2000/svg" viewBox="0 0 487.3 132.02">
  <defs>
    <style>
      .cls-1 {
        fill: #b47b5b;
      }
    </style>
  </defs>
  <g id="_圖層_1-2" data-name="圖層 1">
    <g>
      <path class="cls-1" d="M11.76,18.62c-.28,.25-.7,.39-1.4,.53-.39,7.04-1.37,10.89-2.84,12.15-.91,.77-2.03,1.12-3.33,1.12,0-.63-.1-1.23-.56-1.54-.39-.31-1.4-.6-2.42-.8l.04-.56c1.09,.07,2.98,.21,3.64,.21,.6,0,.88-.07,1.19-.32,.95-.84,1.75-4.38,2.17-10.54H3.54l-1.09,1.12-2.45-1.86c.35-.24,.88-.49,1.37-.63,.31-2.28,.63-5.88,.7-7.98l2.66,1.01h3.47V3.5H.98l-.32-1.05H7.84l1.23-1.33,2.77,2.1c-.25,.28-.81,.59-1.54,.73V12.36c-.04,.18-1.09,.67-1.79,.67h-.31v-1.47H4.03c-.17,1.86-.42,4.34-.67,6.27H7.98l1.19-1.33,2.59,2.13Zm18.34,5.04s1.75,1.37,2.87,2.42c-.11,.38-.42,.56-.91,.56h-9.31v5.18c0,.17-.7,.7-1.79,.7h-.35v-5.88H10.92l-.28-1.05h9.98v-3.64h-5.11v.88c0,.17-.7,.67-1.79,.67h-.31V10.85l2.52,1.09h12.01l1.12-1.29,2.45,1.89c-.25,.24-.6,.46-1.26,.56v9.56c0,.11-.88,.6-1.86,.6h-.35v-1.29h-5.29v3.64h5.81l1.54-1.93ZM14.39,9.38c0,.17-.66,.59-1.61,.59h-.31V1.19l2.35,1.02h4.06l.98-1.16,2.31,1.75c-.21,.25-.56,.46-1.23,.56v5.74c0,.14-.77,.59-1.65,.59h-.35v-1.19h-4.55v.88Zm0-6.13V7.46h4.55V3.25h-4.55Zm1.12,9.7v3.43h5.11v-3.43h-5.11Zm5.11,7.98v-3.5h-5.11v3.5h5.11Zm4.1-11.59c0,.14-.7,.6-1.65,.6h-.31V1.15l2.38,1.02h3.92l1.05-1.16,2.31,1.75c-.25,.24-.56,.42-1.26,.56v5.74c0,.14-.77,.59-1.68,.59h-.31v-1.15h-4.45v.84Zm-1.96,3.61v3.43h5.29v-3.43h-5.29Zm5.29,7.98v-3.5h-5.29v3.5h5.29ZM24.71,3.22V7.46h4.45V3.22h-4.45Z"/>
      <path class="cls-1" d="M41.3,7.53c.91,3.68,.24,6.55-.63,7.84-.59,.88-1.82,1.23-2.38,.59-.42-.59-.14-1.4,.42-2.03,.98-1.09,2.03-3.92,2-6.41h.6ZM46.79,.77c-.11,.49-.39,.84-1.3,.98V31.57c0,.35-.94,.88-1.75,.88h-.46V.35l3.5,.42Zm-.25,5.6c5.36,3.25,3.19,7.32,1.33,5.53-.03-1.68-.95-3.99-1.79-5.32l.46-.21Zm21.25,21.7s1.89,1.47,3.01,2.56c-.07,.35-.42,.52-.88,.52h-21.56l-.28-.98h9.98v-10.33h-6.97l-.28-1.01h7.25V10.36h-5.36c-1.05,2.59-2.31,4.87-3.82,6.65l-.56-.35c1.86-3.5,3.4-8.75,4.1-14l3.43,.88c-.14,.42-.46,.77-1.23,.77-.42,1.72-.95,3.4-1.54,5.01h4.97V.63l3.36,.35c-.07,.49-.28,.8-1.08,.91v7.42h4.83l1.65-2.06s1.82,1.47,2.98,2.55c-.11,.38-.42,.56-.91,.56h-8.54v8.47h3.92l1.61-2.1s1.86,1.5,2.94,2.59c-.07,.35-.42,.52-.91,.52h-7.56v10.33h5.81l1.65-2.1Z"/>
      <path class="cls-1" d="M92.92,11.73c1.26,6.62,4.97,13.69,15.37,18.45l-.07,.39c-1.23,.14-2.07,.59-2.42,1.92-9.73-5.36-12.53-13.72-13.55-20.72-.98,8.16-4.2,15.4-16.21,20.69l-.38-.63c10.22-5.46,13.23-12.29,14.14-20.09h-13.48l-.31-1.02h13.9c.28-3.26,.28-6.69,.28-10.26l3.75,.38c-.11,.53-.39,.88-1.19,1.02-.07,3.01-.11,5.98-.39,8.86h10.08l1.93-2.42s2.14,1.68,3.43,2.87c-.07,.38-.39,.56-.91,.56h-13.97Z"/>
      <path class="cls-1" d="M120.78,12.53c6.79,2.8,5.01,7.07,2.84,5.5-.42-1.47-1.64-3.33-2.84-4.69V31.61c0,.35-.91,.91-1.72,.91h-.46V16c-1.26,3.19-2.94,6.09-5.15,8.65l-.53-.46c2.59-4.1,4.24-9.38,5.11-14.63h-4.55l-.28-1.01h5.39V.21l3.47,.42c-.1,.52-.38,.84-1.3,.98v6.93h1.51l1.51-2s1.75,1.4,2.77,2.45c-.07,.38-.39,.56-.88,.56h-4.9v2.98Zm22.72-6.97c-.25,.28-.63,.38-1.51,.45-1.3,2.69-3.08,5.18-5.36,7.39,2.52,1.71,5.57,3.08,9.21,4.03l-.07,.38c-.95,.25-1.68,.8-1.89,1.89-3.5-1.33-6.3-3.01-8.61-5.04-1.86,1.58-4.03,2.98-6.48,4.13l1.82,.8h8.82l1.15-1.33,2.52,1.96c-.25,.28-.6,.45-1.3,.56v10.64c0,.17-.88,.66-1.89,.66h-.35v-2.1h-9.38v1.68c0,.21-.7,.7-1.82,.7h-.35v-13.2c-1.44,.63-2.91,1.19-4.55,1.68l-.31-.56c4.31-1.72,7.98-4.06,10.85-6.86-1.61-1.65-2.87-3.47-3.99-5.5-1.37,2.17-2.98,3.99-4.66,5.39l-.53-.35c2.38-2.94,4.69-7.63,5.95-12.6l3.43,1.16c-.14,.38-.52,.7-1.3,.66-.31,.84-.7,1.64-1.08,2.45h7.7l1.51-1.4,2.45,2.31Zm-13.3,15.09v8.29h9.38v-8.29h-9.38Zm1.15-14.95c-.28,.53-.56,1.02-.84,1.47,1.23,1.89,2.73,3.64,4.62,5.11,1.82-2,3.29-4.24,4.34-6.58h-8.12Z"/>
      <path class="cls-1" d="M182.16,15.05c-.25,.28-.67,.46-1.37,.53-.21,8.79-.77,14.07-2.14,15.54-.88,.91-2.17,1.33-3.68,1.33,0-.67-.1-1.3-.6-1.65-.49-.38-2-.73-3.29-.95l.04-.59c1.4,.1,3.92,.35,4.66,.35,.66,0,.95-.07,1.26-.39,.91-.91,1.3-6.13,1.51-13.93h-20.69c-.25,5.81-1.37,12.43-6.41,17.15l-.53-.35c4.1-5.71,4.62-12.78,4.62-19.67V1.64l2.77,1.16h16.94l1.3-1.4,2.84,2.17c-.24,.28-.8,.56-1.51,.7v6.9c-.03,.21-1.16,.7-1.93,.7h-.35v-1.85h-17.71v2.38c0,.63,0,1.26-.03,1.89h20.34l1.33-1.44,2.63,2.21Zm-24.26-11.24v5.15h17.71V3.81h-17.71Zm14.81,23.52c-.04,.24-1.16,.77-1.86,.77h-.35v-1.54h-7.67v2.1c0,.24-.91,.73-1.86,.73h-.31v-11.48l2.35,1.08h7.21l1.12-1.23,2.52,1.89c-.18,.21-.63,.46-1.16,.56v7.11Zm-2.21-1.82v-5.53h-7.67v5.53h7.67Z"/>
      <path class="cls-1" d="M193.18,19.53c1.89-1.12,2.77-2.55,3.15-4.27-1.64-.74-2.52-1.54-2.52-2.73,0-1.09,.74-2,2.03-2,1.44,0,2.35,1.09,2.35,3.05,0,2.28-1.05,5.36-4.41,7l-.6-1.05Z"/>
      <path class="cls-1" d="M212.32,5.92c.11,1.85-.56,3.15-1.36,3.67-.74,.52-1.82,.56-2.21-.14-.25-.7,.18-1.33,.84-1.72,1.05-.66,1.82-2.49,1.51-4.27l.63-.04c.21,.53,.35,.98,.42,1.44h11.27v-1.79h-10.15l-.28-1.05h19.67l1.44-1.75s1.65,1.26,2.73,2.24c-.1,.38-.42,.56-.91,.56h-10.26v1.79h11.8l1.33-1.37,2.56,2.45c-.24,.21-.67,.28-1.33,.32-.7,.91-1.93,2.2-2.91,2.97l-.49-.24c.32-.81,.7-2.07,.98-3.08h-3.29l1.23,2.13c-.21,.14-.53,.07-.88-.25-1.44,.32-4.87,.91-7.49,1.12l-.1-.53c2.24-.59,5.57-1.79,7.07-2.48h-8.47v6.16c0,.14-.77,.59-1.89,.59h-.35V5.92h-11.1Zm25.03,22.86s1.72,1.3,2.8,2.28c-.11,.39-.42,.56-.91,.56h-29.02l-.31-1.01h13.65v-7.88h-11.62l-.28-1.01h22.75l1.09-1.19v-.91h-3.71v.6c0,.17-.81,.56-1.51,.56h-.28v-7.91l1.96,.91h3.26l1.02-1.05,2.28,1.72c-.18,.21-.67,.49-1.23,.59v4.87c-.04,.14-.53,.42-1.02,.56,.53,.35,1.51,1.09,2.24,1.71-.07,.39-.42,.56-.88,.56h-11.87v7.88h10.08l1.51-1.82Zm-20.06-8.16v-1.02h-3.99v.77c0,.18-.81,.56-1.51,.56h-.25V12.85l1.93,.91h3.54l1.01-1.01,2.21,1.68c-.17,.21-.63,.46-1.15,.56v5.04c-.04,.21-.95,.6-1.51,.6h-.28Zm2.28,3.43c-.18,.35-.59,.63-1.33,.53-.18,.42-.38,.8-.6,1.16,6.23,1.4,5.11,5.32,3.08,4.2-.56-1.22-2.07-2.66-3.47-3.57-1.4,1.96-3.15,3.36-5.11,4.24l-.46-.49c2.1-1.44,3.99-3.99,4.94-7.21l2.94,1.15Zm2.17-14.28c-1.61,.53-3.96,1.26-7.04,2.17-.18,.42-.42,.67-.77,.74l-1.09-2.38c1.61-.14,5.25-.56,8.79-1.09l.1,.56Zm-4.45,8.79v-3.75h-3.99v3.75h3.99Zm-3.54-11.94c7.56-.49,7.88,2.73,6.06,2.49-1.44-.7-4.17-1.5-6.23-1.82l.18-.67Zm12.74,14v-1.02h-4.06v.63c0,.14-.81,.52-1.51,.52h-.25v-7.91l1.93,.91h3.61l1.02-1.01,2.21,1.68c-.18,.21-.63,.46-1.16,.56v5c-.03,.21-.95,.63-1.54,.63h-.25Zm0-2.07v-3.75h-4.06v3.75h4.06Zm7.74,5.53c-.14,.35-.6,.67-1.33,.53-.18,.38-.39,.73-.63,1.08,5.6,1.4,4.45,4.94,2.56,3.89-.42-1.09-1.72-2.38-2.98-3.26-1.37,1.93-3.19,3.33-5.04,4.17l-.46-.49c2.07-1.44,3.92-3.96,4.97-7.11l2.91,1.19Zm-7.07-14.67c9.24,.21,9.42,3.5,7.49,3.25-1.68-.77-5.22-2.07-7.7-2.59l.21-.66Zm8.33,9.14v-3.75h-3.71v3.75h3.71Z"/>
      <path class="cls-1" d="M246.48,8.54c7.46,.88,6.16,5.95,3.64,4.58-.6-1.54-2.42-3.29-3.96-4.24l.31-.35Zm10.29-1.37c-1.58,4.3-4.55,12.32-5.08,14-.32,1.08-.56,2.14-.56,3.01,.04,1.54,1.02,3.15,.88,5.99-.07,1.5-.73,2.38-1.96,2.38-.63,0-1.02-.63-1.09-1.71,.45-3.61,.28-6.3-.49-6.79-.49-.35-.98-.46-1.75-.53v-.77h1.58c.42,0,.56,0,.91-.67q.63-1.26,6.9-15.05l.67,.14Zm-7.7-6.27c7.67,1.15,6.3,6.37,3.71,4.97-.56-1.65-2.49-3.61-4.03-4.66l.31-.31Zm26.39,8.16s1.96,1.54,3.12,2.63c-.1,.38-.38,.56-.88,.56h-9.73v6.97h4.94l1.3-1.44,2.84,2.17c-.25,.28-.81,.56-1.51,.7v10.75c-.03,.24-1.15,.8-1.93,.8h-.35v-2.59h-12.99v1.96c0,.25-.95,.77-1.89,.77h-.35v-14.25l2.45,1.12h5.18v-6.97h-9.59l-.28-1.01h9.87V4.9c-2.94,.38-6.06,.7-9.03,.84l-.14-.63c6.2-.84,13.76-2.8,17.71-4.38l2.73,2.52c-.35,.28-1.02,.32-1.86-.03-2,.46-4.45,.94-7.11,1.33v6.69h5.81l1.68-2.17Zm-15.19,11.13v8.4h12.99v-8.4h-12.99Z"/>
      <path class="cls-1" d="M300.87,20.13c-.45,2.24-1.37,4.2-2.91,5.95,4.66,2.48,11.03,3.54,18.2,3.85l-.04,.38c-1.01,.25-1.72,.95-1.93,2.1-7.18-.74-13.09-2.17-17.33-5.22-2.59,2.28-6.58,4.1-12.67,5.43l-.21-.63c5.6-1.72,9.17-3.64,11.45-5.95-1.33-1.19-2.49-2.56-3.4-4.2l.49-.42c.98,1.44,2.24,2.66,3.75,3.68,1.16-1.47,1.89-3.12,2.28-4.97h-7.21v1.26c0,.25-.98,.77-1.89,.77h-.39V7.14l2.49,1.12h7.46V4.2h-14.18l-.28-1.05h26.04l1.79-2.17s2.03,1.54,3.26,2.66c-.07,.38-.42,.56-.91,.56h-13.41v4.06h7.53l1.26-1.4,2.87,2.17c-.25,.28-.81,.56-1.51,.7v11.45c-.03,.25-1.19,.77-1.93,.77h-.35v-1.82h-8.33Zm-9.52-10.82v4.31h7.67v-4.31h-7.67Zm7.42,9.8c.18-1.22,.25-2.52,.25-3.96v-.53h-7.67v4.48h7.42Zm10.43,0v-4.48h-7.88v.42c0,1.44-.07,2.77-.28,4.06h8.16Zm-7.88-9.8v4.31h7.88v-4.31h-7.88Z"/>
      <path class="cls-1" d="M321.76,9.03c6.97,.88,5.43,5.74,2.98,4.3-.39-1.47-1.96-3.12-3.29-3.99l.32-.31Zm9.38-1.44c-1.3,4.1-3.92,11.83-4.38,13.41-.28,1.05-.49,2.1-.49,2.97,.03,1.51,.98,3.19,.84,6.02-.07,1.44-.7,2.35-1.86,2.35-.6,0-.98-.67-1.02-1.72,.42-3.57,.28-6.27-.49-6.79-.45-.35-.94-.42-1.72-.49v-.77h1.54c.42,0,.56,0,.84-.7q.59-1.22,6.06-14.46l.66,.18Zm-7.11-6.72c7.39,1.19,5.92,6.09,3.47,4.66-.59-1.5-2.38-3.33-3.78-4.34l.31-.31Zm20.97,10.08v-1.82h-2.59v3.54h7.14l1.09-1.4,2.84,2.17c-.17,.24-.73,.49-1.4,.63v15.12c0,1.79-.35,2.9-3.33,3.22-.1-.7-.28-1.33-.7-1.65-.42-.38-1.19-.66-2.56-.88v-.53s3.01,.21,3.68,.21c.56,0,.74-.18,.74-.67v-4.27c-.39,.38-.63,.98-.77,1.61-1.26-.95-2.35-2.84-2.77-4.76-.77,1.96-2.21,3.75-3.96,4.72v5.01c0,.18-.66,.7-1.75,.7h-.35v-7.46c-.49,.28-.88,1.05-1.05,1.79-1.12-.91-2.03-2.7-2.42-4.59-.67,1.92-2.03,3.64-3.57,4.59l-.31-.38c1.47-1.33,2.94-4.24,3.22-7.28v-.73h-1.93l-.21-1.02h1.79l.7-1.08,2.03,1.54c-.25,.28-.81,.53-1.58,.63v.59c.35,2.63,1.54,4.41,3.33,5.43V13.69h-7.39V31.61c0,.25-.84,.81-1.79,.81h-.35V11.59l2.35,1.08h7.18v-3.54h-2.56v1.47c0,.21-.95,.7-1.75,.7h-.39V4.83h-5.6l-.28-1.02h5.88V.35l3.43,.35c-.07,.53-.42,.84-1.3,.98V3.81h7.25V.35l3.47,.35c-.07,.49-.42,.84-1.26,.98V3.81h2.45l1.51-1.99s1.82,1.4,2.84,2.45c-.07,.39-.42,.56-.88,.56h-5.92v5.46c0,.24-.94,.66-1.79,.66h-.42Zm0-6.12h-7.25v3.29h7.25v-3.29Zm-2.59,8.86v11.87c1.47-1.47,2.87-4.31,3.22-7.07v-.63h-2.1l-.18-1.02h1.93l.74-1.12,2.07,1.57c-.25,.28-.81,.53-1.61,.63l.04,.53c.38,2.41,1.61,4.2,3.4,5.29V13.69h-7.49Z"/>
      <path class="cls-1" d="M364.53,23.8c.67,3.74-1.05,6.12-2.42,7-.88,.6-2.03,.7-2.45,0-.25-.67,.17-1.33,.84-1.75,1.51-.73,3.22-2.84,3.43-5.29l.6,.04Zm23.35-16.42s1.96,1.47,3.15,2.59c-.1,.39-.39,.56-.91,.56h-30.17l-.32-1.05h18.55c.7-1.4,1.54-3.33,2.03-4.76h-17.78l-.28-1.05h13.06c-.63-1.26-2.2-2.59-3.54-3.33l.32-.35c4.94,.24,5.67,2.77,4.8,3.68h6.97l1.72-2.07s1.93,1.47,3.08,2.56c-.1,.39-.42,.56-.88,.56h-7.21l3.33,1.12c-.14,.38-.6,.63-1.33,.59-.84,.91-2.07,2.07-3.26,3.05h7l1.68-2.1Zm-20.55,14.42v.67c0,.21-.98,.7-1.89,.7h-.35V11.69l2.45,1.08h15.12l1.3-1.4,2.8,2.17c-.21,.28-.77,.56-1.51,.7v7.91c-.04,.25-1.12,.77-1.89,.77h-.35v-1.12h-15.68Zm0-8.02v2.98h15.68v-2.98h-15.68Zm15.68,7v-3.01h-15.68v3.01h15.68Zm-14.77-15.93c5.95,1.54,3.89,5.78,1.79,4.2-.21-1.33-1.26-3.01-2.17-3.99l.39-.21Zm15.26,24.4c.77,.25,1.02,.52,1.02,.95,0,1.05-1.16,1.4-7.95,1.4h-4.97c-3.15,0-3.71-.42-3.71-2.13v-5.99l3.22,.38c-.07,.39-.39,.74-1.05,.81v4.38c0,.49,.14,.6,1.79,.6h4.8c2.17,0,3.89-.04,4.48-.07,.49-.04,.63-.11,.77-.46,.32-.56,.67-1.93,1.05-3.64h.46l.1,3.78Zm-9.91-6.72c6.69,2,5.22,6.65,3.05,5.18-.28-1.75-1.96-3.78-3.43-4.9l.39-.28Zm11.13,1.09c7.81,2.84,6.13,8.02,3.78,6.37-.42-2.07-2.42-4.59-4.17-6.09l.39-.28Z"/>
      <path class="cls-1" d="M399.21,16.42c0-2.7,2.24-4.9,4.94-4.9s4.9,2.2,4.9,4.9-2.21,4.94-4.9,4.94-4.94-2.24-4.94-4.94Zm1.19,0c0,2.07,1.65,3.75,3.75,3.75s3.71-1.68,3.71-3.75-1.65-3.71-3.71-3.71-3.75,1.65-3.75,3.71Z"/>
      <path class="cls-1" d="M428.5,17.57c-.25,.28-.63,.35-1.4,.42-.66,2.52-2,5.36-4.1,7.53,.17,.07,.31,.17,.46,.35,3.05,3.08,7,3.57,13.9,3.57,4.1-.04,7.6-.04,11.83-.24v.46c-1.02,.17-1.58,.88-1.72,1.85h-10.85c-7.11,0-10.4-.94-13.55-4.66-.49-.49-.84-.42-1.12,0-.7,1.05-2.1,3.08-2.98,4.48,.1,.31,.07,.53-.18,.73l-1.96-2.34c1.54-1.23,4.03-3.64,5.11-4.17,1.4-2.1,2.49-5.11,2.94-7.7h-4.06l-.98,.8-1.96-1.82c.31-.17,.88-.38,1.37-.52,1.19-1.65,2.84-4.24,3.89-6.06h-5.64l-.32-1.02h6.09l1.23-1.26,2.59,2.28c-.35,.35-1.05,.53-1.89,.56-1.02,1.57-2.66,4.17-3.96,5.98h3.47l1.4-1.33,2.38,2.1ZM419.19,.7c7.21,2.2,5.5,7.14,3.15,5.5-.42-1.71-2.1-3.92-3.54-5.18l.39-.32Zm18.17,24.64c1.26,.11,3.5,.28,4.17,.28,.6,0,.91-.07,1.19-.25,.52-.42,1.09-2.06,1.4-4.55h-3.33l-1.15,1.12-2.35-2.03c.39-.24,1.01-.45,1.57-.63,.28-.81,.63-1.72,.91-2.52h-3.99c-.91,5.32-3.29,8.75-8.23,11.1l-.24-.53c3.99-2.66,5.57-6.02,6.13-10.57h-4.17l-.28-1.05h10.68l1.12-1.23,2.56,2.1c-.28,.31-.77,.49-1.44,.59-.28,.77-.66,1.75-1.02,2.62h2.98l1.23-1.26,2.45,2.03c-.25,.24-.63,.38-1.33,.49-.38,3.25-1.16,5.43-2.38,6.27-.77,.53-1.93,.84-3.12,.8,0-.56-.14-1.12-.63-1.44-.42-.31-1.61-.59-2.77-.77l.03-.6Zm-9.87-9.8c3.08-1.79,5.64-4.24,7.39-6.93h-7.07l-.28-1.05h8.79V3.81c-2.28,.28-4.66,.49-6.9,.56l-.14-.63c4.9-.67,10.92-2.21,14.07-3.4l2.45,2.31c-.25,.24-.88,.28-1.68-.07-1.58,.35-3.54,.63-5.64,.95V7.56h5.18l1.61-1.96s1.82,1.4,2.98,2.45c-.1,.38-.45,.56-.94,.56h-8.82v.49c11.62,2.59,10.4,6.97,8.09,5.99-1.26-1.29-4.38-3.43-8.09-5.21v4.52c0,.14-.74,.59-1.86,.59h-.31v-4.69c-2.14,2.41-5.08,4.34-8.47,5.85l-.35-.6Z"/>
      <path class="cls-1" d="M464.58,17.61c-.25,.28-.59,.35-1.37,.39-.56,2.45-1.72,5.25-3.57,7.46,.25,.04,.42,.18,.66,.38,3.12,3.08,7.14,3.5,14.21,3.5,4.27,0,7.81,0,12.22-.21l.04,.49c-1.05,.17-1.58,.88-1.75,1.79h-11.17c-7.35,0-10.75-.88-13.97-4.59-.46-.49-.77-.42-1.02,0-.63,1.05-1.75,3.01-2.45,4.41,.14,.25,.14,.46-.11,.7l-2-2.27c1.16-1.02,3.01-3.01,4.06-3.85,1.37-2.21,2.35-5.25,2.7-7.91h-2.8l-.95,.84-2-1.75c.32-.21,.84-.42,1.33-.56,1.02-1.71,2.31-4.3,3.15-6.12h-4.8l-.28-1.05h5.15l1.08-1.19,2.45,2.13c-.32,.28-.88,.49-1.54,.53-.8,1.61-2.21,4.24-3.29,6.12h2.28l1.4-1.33,2.31,2.1Zm-7.77-16.87c6.72,2.49,4.76,7.28,2.56,5.53-.25-1.71-1.68-3.96-2.94-5.25l.39-.28Zm11.03,25.97c0,.25-.91,.7-1.75,.7h-.39V11.52l2.31,1.05h.77V1.4l2.49,1.08h7.7l1.19-1.5,2.91,2.13c-.25,.38-.7,.56-1.58,.67V12.57h1.16l.81-1.19,2.17,2.14c-.18,.24-.74,.56-1.26,.63v11.06c0,1.61-.39,2.56-2.94,2.73,0-.63-.17-1.01-.46-1.37-.32-.35-.98-.59-2.07-.74v-.53s1.75,.14,2.73,.14c.42,0,.56-.11,.56-.46V13.62h-14.35v13.09Zm9.73-2.13v-1.22h-5.22v1.29c0,.14-.84,.63-1.64,.63h-.28V15.58l2.1,.98h4.76l1.09-1.12,2.31,1.79c-.18,.25-.63,.49-1.16,.56v6.09c-.03,.21-.98,.7-1.64,.7h-.32Zm-6.69-12.01h2.94V5.63l2.31,1.02h3.26V3.5h-8.51V12.57Zm6.69,9.73v-4.69h-5.22v4.69h5.22Zm1.82-9.73V7.67h-3.71v4.9h3.71Z"/>
      <path class="cls-1" d="M29.47,72.22c-.28,.35-.56,.45-1.33,.25-1.33,.91-3.54,1.99-5.67,2.83,2.91,2.03,6.58,3.43,10.43,4.27l-.07,.38c-1.02,.17-1.75,.84-2.07,2-6.55-2.1-11.59-5.81-14.21-11.9-1.26,1.19-2.73,2.24-4.34,3.19v5.78c1.72-.73,3.89-1.64,6.02-2.59l.24,.53c-1.61,1.01-4.69,3.12-7.88,5.14-.14,.32-.35,.53-.53,.63l-1.72-2.17c1.37-.84,1.61-1.09,1.61-1.61v-4.52c-2.8,1.37-6.02,2.42-9.42,3.15l-.28-.59c5.25-1.68,10.01-4.24,13.16-7.25H.74l-.32-1.05H28.04l1.61-2.03s1.86,1.43,3.01,2.52c-.1,.38-.46,.56-.95,.56h-14.49c1.09,1.92,2.66,3.64,4.48,5.01,1.79-1.3,3.82-3.15,4.87-4.38l2.91,1.85ZM1.02,67.22c2.7-1.96,3.22-4.27,3.36-6.51H1.44l-.32-1.05H11.03v-2.97H5.81l-.98,1.26-2.7-1.71c.32-.25,.81-.56,1.3-.77v-4.76l3.36,.39c-.07,.49-.45,.81-1.26,.94v3.64h5.5v-5.56l3.54,.38c-.07,.49-.42,.84-1.3,.98v14.42c0,.28-.98,.74-1.82,.74h-.42v-5.92H6.62c-.31,2.62-1.26,5.18-5.11,7.04l-.49-.52Zm12.85-2.73c6.02,1.12,4.13,5.32,1.93,3.85-.31-1.19-1.4-2.77-2.31-3.61l.39-.25Zm7.67-8.89v-5.49l3.57,.38c-.07,.49-.42,.84-1.3,.98v4.13h4.27l1.61-2.06s1.82,1.47,2.98,2.52c-.1,.39-.42,.56-.91,.56h-7.95v6.65h3.96l1.61-1.99s1.82,1.4,2.94,2.48c-.07,.38-.42,.56-.91,.56H15.58l-.28-1.05h6.23v-6.65h-6.83l-.25-1.02h7.07Z"/>
      <path class="cls-1" d="M36.8,59.27c7.39,.95,6.06,5.95,3.54,4.55-.53-1.54-2.31-3.26-3.85-4.2l.31-.35Zm10.19-2.55c-1.47,4.34-4.48,12.53-4.97,14.21-.32,1.09-.56,2.17-.56,3.01,.03,1.58,1.02,3.15,.91,6.02-.07,1.51-.77,2.42-1.93,2.42-.63,0-1.05-.63-1.12-1.79,.49-3.54,.28-6.23-.49-6.75-.49-.32-.95-.42-1.72-.49v-.77h1.54c.42,0,.52-.04,.88-.74q.67-1.22,6.79-15.33l.66,.21Zm-8.58-6.13c7.6,1.12,6.27,6.3,3.68,4.94-.56-1.65-2.42-3.57-3.96-4.58l.28-.35Zm6.13,31.12c3.08-1.4,6.3-3.96,7.81-5.85l3.33,1.71c-.21,.35-.77,.46-1.65,.32-2,1.61-5.64,3.43-9.21,4.31l-.28-.49Zm21.6-22.44s1.75,1.37,2.84,2.42c-.11,.38-.46,.56-.95,.56h-21.63l-.28-1.05h18.45l1.58-1.93Zm-19.01-5.18h4.9v-3.92l3.43,.38c-.1,.49-.46,.84-1.33,.98v2.56h5.6v-3.92l3.43,.38c-.11,.49-.42,.84-1.33,.98v2.56h1.58l1.51-1.96s1.75,1.4,2.8,2.45c-.11,.38-.42,.56-.91,.56h-4.97v4.13c0,.25-.91,.67-1.72,.67h-.38v-1.23h-5.6v.56c0,.25-.91,.67-1.72,.67h-.39v-4.8h-4.62l-.28-1.05Zm16.21,22.23v-.98h-12.67v.77c0,.17-.7,.63-1.79,.63h-.31v-12.92l2.49,1.08h12.18l1.09-1.29,2.45,1.89c-.21,.25-.56,.49-1.26,.6v9.59c0,.14-.84,.63-1.82,.63h-.35Zm-12.67-10.36v3.61h5.08v-3.61h-5.08Zm0,8.33h5.08v-3.71h-5.08v3.71Zm3.47-19.15v2.52h5.6v-2.52h-5.6Zm3.75,10.82v3.61h5.46v-3.61h-5.46Zm5.46,8.33v-3.71h-5.46v3.71h5.46Zm-4.03,1.82c10.26,1.5,9.91,6.86,7,5.99-1.47-1.82-4.87-4.3-7.28-5.63l.28-.35Z"/>
      <path class="cls-1" d="M85.12,54.76s1.68,1.33,2.77,2.38c-.07,.38-.45,.56-.91,.56h-13.79l-.28-1.05h10.75l1.47-1.89Zm-1.54,4.62s1.58,1.22,2.56,2.21c-.11,.38-.42,.56-.91,.56h-10.5l-.28-1.05h7.77l1.37-1.71Zm0,4.45s1.58,1.22,2.56,2.2c-.11,.38-.42,.56-.91,.56h-10.5l-.28-1.05h7.77l1.37-1.71Zm1.37,16.1c-.04,.21-1.05,.74-1.79,.74h-.31v-1.65h-5.81v2.07c0,.21-.91,.7-1.79,.7h-.35v-12.74l2.31,1.02h5.29l1.23-1.33,2.7,2.07c-.21,.28-.77,.56-1.47,.7v8.44Zm-7.77-29.58c6.72,2.03,4.69,6.72,2.35,5.08-.32-1.65-1.61-3.64-2.73-4.83l.39-.25Zm5.67,27.65v-6.93h-5.81v6.93h5.81Zm20.2-10.88c-.28,.28-.66,.38-1.51,.42-1.26,3.01-3.05,5.71-5.39,7.98,2.66,1.89,5.92,3.22,9.7,4.06l-.03,.35c-1.05,.14-1.79,.8-2.1,1.89-3.68-1.16-6.69-2.73-9.07-4.94-2.84,2.28-6.44,4.06-10.96,5.29l-.28-.56c4.06-1.43,7.42-3.46,10.05-5.95-2-2.24-3.43-5-4.45-8.44h-2.14l-.31-1.01h12.5l1.54-1.44,2.45,2.35Zm-17.33-2.24c3.33-2.91,3.78-6.41,3.78-9.56v-3.99l2.56,1.12h4.9l1.26-1.3,2.49,2.21c-.24,.25-.7,.42-1.33,.49v7.28c0,.35,.1,.49,.67,.49h2.66c.18,0,.35-.04,.49-.04l.56-.11h.46c.7,.25,.98,.42,.98,.91,0,.88-.8,1.33-3.99,1.33h-1.75c-1.89,0-2.21-.56-2.21-1.96v-8.26h-5.6v1.82c0,2.94-.52,7.25-5.5,9.98l-.42-.42Zm4.06,2.34c1.05,2.91,2.77,5.29,4.94,7.21,1.93-2.13,3.4-4.55,4.38-7.21h-9.31Z"/>
      <path class="cls-1" d="M123.46,54.48s1.82,1.4,2.94,2.45c-.07,.38-.46,.56-.95,.56h-15.93l-.28-1.01h12.67l1.54-2Zm-3.12,6.44l1.51-1.82s1.68,1.3,2.7,2.31c-.07,.38-.42,.56-.88,.56h-12.39l-.28-1.05h9.35Zm1.51,2.66s1.68,1.33,2.7,2.31c-.07,.38-.42,.56-.88,.56h-12.39l-.28-1.05h9.35l1.51-1.82Zm.1,5.11l2.7,2.1c-.18,.28-.74,.56-1.44,.7v8.37c-.03,.25-1.12,.77-1.86,.77h-.31v-1.79h-7.18v2.14c0,.24-.95,.73-1.82,.73h-.35v-12.71l2.31,1.05h6.69l1.26-1.37Zm-.91,9.1v-6.72h-7.18v6.72h7.18Zm-6.09-27.72c6.65,2.1,4.45,7.11,2.1,5.32-.14-1.75-1.4-3.85-2.49-5.08l.39-.24Zm23.8,10.61s1.79,1.44,2.94,2.52c-.11,.38-.42,.56-.91,.56h-7.56v17.5c0,.35-.98,.91-1.79,.91h-.46v-18.41h-6.48l-.28-1.05h6.76v-12.46l3.5,.39c-.07,.49-.35,.88-1.26,1.01v11.06h3.92l1.61-2.03Z"/>
      <path class="cls-1" d="M162.18,63.89c3.47,3.04,9.84,4.87,15.96,5.39v.38c-.88,.21-1.61,.88-1.82,1.86-6.09-1.02-11.48-3.4-14.67-7.14-4.41,4.09-9.7,6.47-15.89,7.91l-.28-.67c5.99-2,11.17-4.87,15.23-9.8l2.45,1.4-1.23-1.92s.52-.14,.74-.25c1.44-.98,3.19-3.81,3.82-5.18l3.05,1.57c-.14,.28-.52,.6-1.26,.49-1.02,1.05-2.49,2.35-3.92,3.4,1.89-.07,4.62-.21,7.46-.42-.53-.77-1.09-1.47-1.58-2.07l.46-.24c6.41,3.01,4.62,7.14,2.66,5.56-.18-.77-.63-1.68-1.15-2.52-1.96,.46-5.01,1.09-8.16,1.61-.14,.32-.31,.53-.49,.63l-.1-.14c-.18,.18-.53,.18-1.16,.04l-.1,.11Zm-6.72-4.9c5.6,2.28,3.75,6.02,1.89,4.58-.04-.21-.1-.45-.21-.66-2.03,.49-5.11,1.33-8.4,2.03-.18,.35-.35,.59-.56,.7l-1.54-2.59s.49-.11,.74-.25c1.93-.98,4.24-3.88,5.18-5.32l.32,.21-1.3-2.28s.6-.11,.88-.25c2.77-.98,6.27-3.99,7.74-5.56l3.19,1.64c-.14,.28-.63,.6-1.47,.42-1.72,1.19-4.48,2.7-7.11,3.78,3.36-.18,8.3-.49,13.41-.91-.95-.91-1.89-1.75-2.73-2.35l.35-.31c8.51,2.21,7.56,6.89,5.08,5.78-.46-.74-1.23-1.61-2.03-2.49-3.64,.7-9.03,1.68-15.23,2.56-.07,.1-.14,.21-.21,.28l1.82,1.09,.21-.1Zm-7.95,22.68c8.54-.91,18.34-4.2,23.21-8.68l2.52,2.28c-.25,.25-.7,.28-1.3,0-5.25,4.03-15.26,6.79-24.33,7l-.11-.6Zm1.09-7c4.87-1.89,10.57-5.32,13.44-8.47l2.73,1.85c-.21,.28-.66,.32-1.23,.14-3.19,2.73-9.28,5.6-14.67,7l-.28-.52Zm.63,3.36c6.06-1.64,13.23-4.94,16.84-8.47l2.56,2c-.21,.28-.63,.31-1.23,.07-3.89,3.12-11.38,5.92-17.92,7l-.24-.6Zm.24-15.05c2-.18,4.66-.42,7.42-.7-.46-1.01-1.12-2.03-1.68-2.8-.25,.14-.6,.24-1.12,.14-1.16,1.05-2.91,2.31-4.62,3.36Z"/>
      <path class="cls-1" d="M211.13,58.92s1.75,1.4,2.84,2.49c-.07,.38-.42,.56-.91,.56h-11.94c-2.14,1.54-4.45,3.04-6.97,4.41h12.6l1.65-2.03s1.79,1.44,2.94,2.52c-.11,.38-.45,.56-.91,.56h-13.3c-.39,1.19-.91,2.77-1.36,4.03h10.26l1.33-1.37,2.59,2.17c-.24,.25-.67,.42-1.4,.49-.53,4.1-1.79,7.46-3.33,8.54-.95,.66-2.31,1.02-3.85,1.02,0-.63-.14-1.26-.7-1.61-.56-.38-2.17-.73-3.68-.94l.03-.63c1.65,.17,4.66,.42,5.46,.42,.7,0,1.05-.07,1.4-.35,.91-.63,1.86-3.33,2.38-6.72h-10.57l-1.09,1.08-2.42-1.89c.39-.25,.91-.49,1.44-.63,.42-1.16,.88-2.56,1.16-3.61h-2.56c-3.29,1.68-6.83,3.12-10.5,4.24l-.28-.56c5.92-2.28,11.59-5.53,16.38-9.14h-15.54l-.28-1.01h12.08v-4.69h-8.68l-.28-1.05h8.96v-5l3.47,.35c-.07,.45-.35,.77-1.16,.91v3.75h4.06l1.47-1.99s1.75,1.43,2.77,2.48c-.07,.38-.42,.56-.88,.56h-7.42v4.69h2.77c3.92-3.12,7.25-6.51,9.52-9.8l3.08,2.1c-.28,.35-.67,.42-1.47,.1-2,2.59-4.66,5.15-7.81,7.6h7.07l1.58-2.03Z"/>
      <path class="cls-1" d="M222.73,69.32c1.89-1.12,2.77-2.56,3.15-4.27-1.65-.73-2.52-1.54-2.52-2.73,0-1.08,.74-1.99,2.03-1.99,1.43,0,2.35,1.08,2.35,3.04,0,2.28-1.05,5.36-4.41,7l-.6-1.05Z"/>
      <path class="cls-1" d="M268.07,79.23c.95,1.5,1.09,2.13,.7,2.48-.95,.95-2.98-.28-4.27-1.79-2.49-2.83-4.24-6.41-5.43-10.57-1.65,1.33-3.47,2.34-5.43,3.12l-.39-.49c1.96-1.05,3.78-2.49,5.39-4.27-.88-3.64-1.37-7.63-1.58-11.83h-15.09v6.69c0,5.53-.28,13.23-4.76,18.62l-.56-.35c2.91-5.5,3.15-12.22,3.15-18.27v-8.86l2.56,1.16h14.63c-.07-1.58-.1-3.22-.1-4.87l3.61,.42c-.04,.46-.35,.84-1.26,.98,0,1.15,0,2.28,.03,3.46h5.67l1.47-1.82s1.58,1.29,2.59,2.28c-.07,.38-.42,.56-.91,.56h-8.79c.1,3.29,.45,6.62,1.08,9.7,1.54-2.17,2.87-4.72,3.75-7.6l3.29,1.33c-.18,.38-.6,.67-1.37,.56-1.33,3.22-3.08,5.81-5.22,7.91,1.05,3.96,2.66,7.46,5.01,9.91,.52,.6,.67,.6,.98-.14,.42-.8,1.05-2.45,1.44-3.81l.42,.07-.63,5.43Zm-25.03-6.37c.88,3.29,.35,5.85-.45,6.93-.53,.7-1.61,1.12-2.07,.49-.39-.52-.1-1.22,.46-1.79,.88-.98,1.61-3.5,1.44-5.63h.63Zm11.03-15.79s1.65,1.29,2.66,2.28c-.1,.38-.42,.56-.91,.56h-12.5l-.28-1.05h9.63l1.4-1.79Zm-7.95,12.95c0,.18-.98,.67-1.82,.67h-.32v-9.45l2.28,.98h6.23l1.23-1.26,2.66,2.03c-.21,.24-.77,.53-1.44,.67v5.57c-.03,.25-1.09,.7-1.79,.7h-.35v-1.23h-6.69v1.33Zm9.1,9.24c.66,.21,.84,.49,.84,.88,0,.88-.95,1.26-5.32,1.26h-2.98c-2.28,0-2.66-.49-2.66-1.93v-7.74l2.94,.35c-.03,.42-.39,.74-.98,.84v6.09c0,.45,.11,.56,1.12,.56h2.59c1.23,0,2.14-.04,2.49-.07,.28,0,.39-.07,.53-.35,.24-.49,.56-2.03,.88-3.68h.46l.11,3.78Zm-9.1-16v4.38h6.69v-4.38h-6.69Zm2.49,7.25c5.71,3.36,3.78,7.46,2.03,5.78-.1-1.82-1.37-4.13-2.45-5.5l.42-.28Zm6.97,2.07c6.09,3.82,4.1,8.37,2.17,6.62-.07-2.07-1.44-4.76-2.63-6.41l.46-.21Zm5.5-22.19c5.64,.95,4.1,4.62,2.21,3.4-.35-1.12-1.54-2.42-2.56-3.12l.35-.28Z"/>
      <path class="cls-1" d="M277.85,62.35c.1,2.28-.81,3.78-1.82,4.41-.88,.59-2.1,.59-2.45-.25-.31-.73,.18-1.44,.88-1.86,1.4-.73,2.45-2.77,2.21-5.01l.6-.04c.21,.6,.35,1.16,.46,1.68h16.56c1.4-2.1,2.91-4.97,3.78-7.18l3.68,1.15c-.14,.42-.59,.7-1.36,.63-1.19,1.64-3.19,3.74-5.11,5.39h6.3l1.47-1.51,2.73,2.62c-.25,.25-.67,.32-1.3,.38-1.02,1.09-2.77,2.66-4.1,3.57l-.46-.24c.52-.98,1.23-2.52,1.68-3.78h-23.73Zm22.26,5.57c-.28,.31-.66,.42-1.54,.45-1.79,2.87-4.06,5.32-6.9,7.35,3.92,2,8.61,3.25,13.62,3.96l-.07,.39c-1.09,.21-1.89,.95-2.24,2.17-5.08-1.05-9.59-2.73-13.2-5.25-4.24,2.55-9.52,4.27-15.96,5.21l-.21-.56c5.71-1.26,10.68-3.19,14.63-5.81-2.59-2.1-4.62-4.69-6.06-7.88h-4.13l-.31-1.02h18.1l1.72-1.5,2.56,2.49Zm1.54-15.26c-.35,.31-1.02,.31-1.89-.11-6.34,1.09-15.89,2.14-24.26,2.38l-.14-.67c8.12-.73,18.31-2.52,23.73-4.09l2.56,2.49Zm-22.61,2.59c6.58,2.49,4.45,7.11,2.28,5.32-.25-1.68-1.54-3.81-2.7-5.08l.42-.25Zm3.96,12.71c1.61,2.76,3.96,4.97,6.83,6.72,2.49-1.93,4.48-4.17,5.92-6.72h-12.74Zm3.89-13.37c6.27,3.08,3.85,7.7,1.75,5.78-.03-1.86-1.12-4.17-2.14-5.57l.38-.21Z"/>
      <path class="cls-1" d="M313.88,54.83c0,1.47-.6,2.49-1.4,2.98-.74,.45-1.86,.42-2.21-.35-.24-.77,.21-1.43,.95-1.75,.98-.49,1.79-1.96,1.57-3.36l.63-.04c.18,.52,.31,1.01,.38,1.5h24.01l1.37-1.43,2.56,2.49c-.24,.25-.63,.31-1.33,.35-.7,.74-2.07,1.75-3.08,2.35l-.46-.25c.28-.67,.7-1.61,1.02-2.49h-24.01Zm26.43,24.54c.77,.25,.98,.49,.98,.91,0,.98-1.02,1.26-6.79,1.26h-3.96c-2.77,0-3.29-.46-3.29-2.07v-5.5h-3.85c-.84,3.89-2.77,6.72-12.81,8.58l-.32-.56c8.26-2.07,10.08-4.87,10.71-8.02h-3.85v.77c0,.21-.95,.77-1.89,.77h-.35v-14.21l2.45,1.12h15.89v-.04h-.35l1.23-1.29,2.7,2.03c-.21,.25-.74,.53-1.33,.63v10.4c-.03,.25-1.16,.73-1.89,.73h-.35v-.91h-3.75v5.22c0,.42,.14,.52,1.44,.52h3.68c1.58,0,2.94,0,3.43-.04,.42-.03,.56-.1,.7-.45,.28-.56,.63-2.17,1.02-3.96h.49l.07,4.09Zm-19.95-17.64v-2.45h-6.58l-.31-1.01h6.9v-2.87l3.22,.35c-.1,.42-.35,.74-1.12,.84v4.69c0,.14-.88,.42-1.61,.42l-.49,.04Zm-3.22,1.71v2.45h16.1v-2.45h-16.1Zm16.1,3.46h-16.1v2.38h16.1v-2.38Zm-16.1,6.02h16.1v-2.63h-16.1v2.63Zm6.3-23.31c5.74,1.12,3.54,5.39,1.4,3.71-.1-1.19-.95-2.7-1.79-3.47l.39-.24Zm7.81,6.23c-.07,.42-.35,.7-1.12,.8v1.82h4.62l1.36-1.71s1.51,1.22,2.52,2.17c-.11,.38-.46,.56-.91,.56h-7.6v1.79c0,.17-.95,.56-1.65,.56h-.49v-6.34l3.26,.35Zm.74,19.64c6.27,.31,5.36,4.59,3.15,3.54-.56-1.15-2.17-2.48-3.5-3.19l.35-.35Z"/>
      <path class="cls-1" d="M359.47,64.38c-.25,.28-.74,.46-1.33,.24-.91,.98-2.03,1.96-3.15,2.7,4.66,2.77,3.08,6.2,1.15,4.76-.39-1.54-1.75-3.47-3.05-4.83v14.14c0,.21-.81,.8-1.86,.8h-.35v-14.56c-1.61,1.68-3.4,3.22-5.15,4.41l-.42-.39c3.78-3.33,7.6-8.72,9.35-13.13h-8.44l-.31-1.02h8.72l1.51-1.44,2.52,2.45c-.32,.28-.74,.31-1.58,.38-.91,2-2.35,4.17-3.99,6.23v1.22c.42,.18,.8,.39,1.16,.56,.88-1.09,1.96-2.62,2.8-4.3l2.42,1.75Zm-9.87-14.07c7,2.24,5.08,6.93,2.77,5.32-.38-1.71-1.86-3.81-3.12-5.11l.35-.21Zm20.27,7.63c-.11,.35-.42,.63-1.37,.63,1.89,3.88,6.34,7.42,10.12,9.35l-.07,.38c-.98,.28-1.72,.84-1.96,1.75-3.54-2.42-6.72-6.44-8.51-10.57-1.51,3.04-3.75,6.3-6.69,8.86l1.82,.84h8.3l1.26-1.33,2.73,2.07c-.21,.28-.77,.56-1.44,.7v10.47c-.03,.21-1.12,.77-1.86,.77h-.35v-2.31h-8.82v1.82c0,.21-.91,.7-1.79,.7h-.39v-13.3c-.77,.7-1.65,1.29-2.52,1.86l-.38-.35c3.89-3.54,7-9.28,8.19-13.65l3.71,1.33Zm-11.2,1.75c1.82-2.17,3.64-5.63,4.8-9.24l3.33,1.29c-.18,.42-.59,.7-1.33,.63-1.61,3.19-3.89,5.95-6.3,7.67l-.49-.35Zm4.38,10.54v8.29h8.82v-8.29h-8.82Zm7.14-19.81c8.75,4.66,7.11,10.26,4.66,8.44-.56-2.62-3.08-6.02-5.08-8.16l.42-.28Z"/>
      <path class="cls-1" d="M411.11,77.48s2.03,1.58,3.22,2.73c-.11,.38-.42,.56-.91,.56h-31.15l-.28-1.05h7.53v-27.83l2.66,1.12h11.9l1.23-1.57,3.08,2.38c-.21,.32-.7,.49-1.58,.63v25.27h2.56l1.75-2.24Zm-19.32-23.42v7.53h12.71v-7.53h-12.71Zm12.71,8.58h-12.71v7.8h12.71v-7.8Zm-12.71,17.08h12.71v-8.23h-12.71v8.23Z"/>
      <path class="cls-1" d="M418.51,58.78c7.53,.81,6.23,5.99,3.64,4.59-.6-1.51-2.42-3.29-3.99-4.24l.35-.35Zm9.66,1.51c-1.33,3.36-4.06,9.73-4.55,11.03-.32,.95-.56,1.93-.56,2.77,.03,1.47,1.02,3.15,.88,5.92-.07,1.5-.8,2.38-1.93,2.38-.63,0-1.05-.63-1.09-1.75,.45-3.57,.24-6.23-.49-6.76-.46-.32-.98-.42-1.72-.49v-.77h1.58c.42,0,.56,0,.91-.66q.7-1.09,6.34-11.87l.63,.21Zm-7.49-9.56c7.74,1.05,6.37,6.37,3.75,4.97-.56-1.68-2.49-3.64-4.06-4.69l.31-.28Zm12.04,8.3l3.47,.35c-.1,.49-.38,.84-1.23,.95v5.32c-.07,6.06-1.4,12.85-9.98,16.59l-.35-.53c6.97-4.06,8.09-10.29,8.09-16.14v-6.55Zm-1.54-4.83c-.07,2.1-.88,3.64-1.72,4.34-.8,.66-2.07,.84-2.52,.04-.35-.74,.07-1.47,.77-2,1.16-.84,2.49-2.97,2.49-5.14h.63c.14,.59,.25,1.15,.31,1.71h15.12l1.51-1.54,2.73,2.66c-.25,.28-.66,.32-1.33,.35-.98,1.26-2.73,3.25-3.99,4.34l-.49-.25c.53-1.16,1.23-3.05,1.68-4.52h-15.19Zm17.96,24.47c.7,.28,.88,.56,.88,.98,0,.94-.98,1.37-4.66,1.37h-2.14c-2.14,0-2.59-.67-2.59-2.24v-19.74l3.33,.38c-.04,.46-.39,.8-1.16,.91v17.85c0,.56,.1,.77,.91,.77h1.68c.84,0,1.44-.04,1.72-.07,.21-.04,.35-.07,.49-.39,.21-.49,.6-2.8,.95-4.72h.46l.14,4.9Z"/>
      <path class="cls-1" d="M461.71,64.14c5.71,3.12,3.92,7.04,2.03,5.43-.25-1.37-1.12-3.08-2.03-4.45v16.38c-.03,.25-.8,.77-1.82,.77h-.32v-13.86c-1.23,2.87-2.84,5.46-4.83,7.8l-.49-.46c2.38-3.81,3.92-8.71,4.83-13.55h-4.34l-.28-1.05h5.11v-7.11c-1.65,.35-3.4,.7-5.01,.91l-.21-.56c3.15-.98,7.07-2.84,9.1-4.06l2.77,2.31c-.32,.31-.95,.35-1.72,.04-.8,.28-1.75,.56-2.8,.84v7.63h.88l1.4-1.82s1.64,1.29,2.63,2.31c-.1,.38-.42,.56-.91,.56h-3.99v1.92Zm6.44,9.56c.81,3.36-.21,5.64-1.26,6.58-.63,.63-1.82,.84-2.24,.18-.35-.6,0-1.29,.59-1.79,1.16-.77,2.31-2.91,2.28-4.97h.63Zm16.87-7.28s1.4,1.12,2.28,2.03c-.1,.38-.42,.56-.88,.56h-2.66v3.64c-.03,.18-1.09,.53-1.72,.53h-.31v-1.01h-13.76l-.31-1.01h14.07v-2.14h-15.4l-.28-1.05h15.68v-2h-13.37l-.32-1.01h13.41l1.09-1.12,2.42,1.79c-.18,.25-.67,.49-1.19,.6v1.75l1.26-1.54Zm-10.22-4.16v-2.66h-6.06l-.28-1.05h10.4c.66-1.44,1.37-3.57,1.79-5.57l3.22,1.02c-.14,.38-.56,.67-1.26,.67-.77,1.4-1.75,2.83-2.73,3.89h1.37l1.26-1.58s1.47,1.16,2.38,2.07c-.11,.38-.42,.56-.88,.56h-7.07v2.66h6.16l1.33-1.72s1.54,1.23,2.49,2.17c-.07,.39-.42,.56-.91,.56h-19.18l-.28-1.01h8.26Zm10.19-9.8c-.32,.28-.88,.25-1.65-.1-4.2,.56-10.47,1.12-16,1.12l-.1-.67c5.36-.45,12.04-1.58,15.61-2.56l2.14,2.21Zm-16.49,1.68c5.29,1.57,3.19,5.07,1.37,3.6-.18-1.12-.98-2.56-1.79-3.36l.42-.24Zm13.65,25.06c.7,.24,.94,.46,.94,.88,0,.95-1.02,1.3-6.2,1.3h-3.68c-2.56,0-3.01-.46-3.01-2v-6.27l3.05,.39c-.03,.38-.39,.7-.98,.81v4.69c0,.46,.14,.53,1.33,.53h3.36c1.47,0,2.7,0,3.15-.04,.31-.04,.45-.07,.59-.31,.24-.42,.56-1.54,.88-2.77h.42l.14,2.8Zm-8.75-25.62c5.57,1.57,3.68,5.43,1.75,3.92-.17-1.22-1.19-2.8-2.14-3.68l.39-.24Zm1.89,19.22c5.5,2.35,3.78,6.12,1.96,4.62-.25-1.44-1.4-3.29-2.42-4.41l.46-.21Zm6.72,1.19c6.62,2.42,4.87,7.14,2.8,5.5-.21-1.75-1.75-3.95-3.19-5.18l.39-.32Z"/>
      <path class="cls-1" d="M311.91,106.93c-.18,.28-.77,.56-1.47,.7v21.46c-.03,.25-1.12,.84-1.86,.84h-.35v-2.7h-7.32v2.91c0,.24-.84,.8-1.79,.8h-.39v-25.94l2.35,1.15h1.16c.46-1.79,1.02-4.38,1.33-6.2l3.68,.88c-.18,.49-.6,.77-1.3,.77-.7,1.3-1.72,3.12-2.56,4.55h4.48l1.3-1.44,2.73,2.21Zm-10.99,.28v8.75h7.32v-8.75h-7.32Zm7.32,19.01v-9.24h-7.32v9.24h7.32Zm20.76-19.29c-.25,.28-.67,.49-1.44,.56-.24,12.95-.88,20.72-2.52,22.75-.98,1.19-2.35,1.71-4.06,1.71,0-.77-.14-1.43-.63-1.79-.56-.42-2.07-.81-3.5-1.05l.03-.63c1.58,.18,4.1,.39,4.94,.39,.74,0,.98-.07,1.37-.46,1.29-1.3,1.82-9.28,2.07-21.25h-8.54c-1.47,2.91-3.22,5.46-5.11,7.35l-.52-.32c2.28-3.43,4.45-8.86,5.64-14.25l3.57,1.08c-.14,.39-.52,.74-1.3,.7-.52,1.51-1.12,2.94-1.75,4.38h7.63l1.44-1.54,2.7,2.34Zm-14.32,6.44c8.4,3.82,6.37,9.49,3.85,7.49-.42-2.38-2.49-5.39-4.24-7.25l.39-.25Z"/>
      <path class="cls-1" d="M360.98,107.8s2.03,1.5,3.29,2.66c-.1,.39-.46,.56-.95,.56h-31.08l-.28-1.01h14.98v-4.73h-11.17l-.28-1.05h11.45v-4.27l3.5,.35c-.07,.46-.39,.77-1.16,.91v3.01h6.65l1.72-2.14s2,1.51,3.22,2.62c-.11,.39-.42,.56-.91,.56h-10.68v4.73h9.91l1.79-2.21Zm-.77,13.97s2,1.51,3.26,2.66c-.1,.39-.46,.56-.98,.56h-13.2v6.41c0,.14-.77,.63-1.96,.63h-.38v-7.04h-13.72l-.28-1.02h14v-5.56h-11.66l-.28-1.02h16.21c.98-1.82,1.96-4.34,2.45-6.2l3.85,.88c-.11,.46-.56,.77-1.26,.73-.95,1.4-2.52,3.19-4.03,4.59h4.59l1.79-2.17s2,1.5,3.22,2.62c-.1,.38-.45,.56-.94,.56h-11.59v5.56h9.14l1.79-2.21Zm-19.95-10.54c6.86,2.62,4.27,7.6,1.96,5.53-.1-1.79-1.29-3.96-2.35-5.32l.39-.21Z"/>
      <path class="cls-1" d="M374.56,115.43c6.65,2.66,5.11,6.75,3.12,5.36-.49-1.47-1.85-3.25-3.12-4.55v14.88c0,.25-.77,.88-1.86,.88h-.35v-14.56c-1.64,1.75-3.5,3.33-5.36,4.55l-.42-.35c3.82-3.36,7.67-8.82,9.42-13.27h-8.44l-.31-1.05h8.72l1.54-1.43,2.56,2.48c-.31,.28-.77,.32-1.54,.38-.95,2-2.31,4.13-3.96,6.16v.53Zm-3.26-15.37c6.97,2.34,4.94,6.96,2.73,5.25-.38-1.64-1.86-3.75-3.08-5.01l.35-.24Zm24.78,.49s1.85,1.43,3.01,2.52c-.1,.38-.42,.56-.91,.56h-18.41l-.28-1.05h15.02l1.58-2.03Zm.03,15.3l2.73,2.14c-.21,.28-.77,.56-1.47,.7v12.36c-.03,.21-1.12,.74-1.86,.74h-.35v-1.79h-12.95v1.22c0,.25-.91,.77-1.82,.77h-.35v-15.86l2.35,1.08h12.43l1.3-1.37Zm-2.59-1.19v-1.15h-9.38v.84c0,.17-.98,.66-1.86,.66h-.32v-9.17l2.31,1.05h8.89l1.26-1.37,2.77,2.14c-.21,.28-.81,.56-1.47,.7v5.64c-.04,.21-1.16,.66-1.89,.66h-.32Zm-11.31,3.57v4.66h5.46v-4.66h-5.46Zm0,10.71h5.46v-5.04h-5.46v5.04Zm11.31-16.49v-4.52h-9.38v4.52h9.38Zm-3.78,5.78v4.66h5.43v-4.66h-5.43Zm5.43,10.71v-5.04h-5.43v5.04h5.43Z"/>
      <path class="cls-1" d="M430.21,104.2c-.24,.28-.8,.52-1.51,.67v25.8c-.03,.25-1.16,.91-2.03,.91h-.35v-2.94h-16.31v2.17c0,.35-.84,.95-1.93,.95h-.39v-29.54l2.52,1.22h15.75l1.36-1.54,2.87,2.31Zm-20.2,.25v10.85h16.31v-10.85h-16.31Zm16.31,23.17v-11.31h-16.31v11.31h16.31Z"/>
      <path class="cls-1" d="M469.17,107.49c-.25,.28-.63,.32-1.33,.35-.91,1.12-2.59,2.62-3.85,3.5l-.49-.28c.49-.95,1.09-2.42,1.51-3.61h-22.89c0,2.38-.98,3.99-1.96,4.69-.84,.66-2.1,.73-2.52-.07-.35-.74,.11-1.47,.84-1.89,1.4-.84,2.73-3.04,2.66-5.43h.63c.14,.6,.25,1.16,.32,1.68h9.84v-6.44l3.54,.38c-.07,.49-.42,.84-1.23,.95v5.11h2.91c1.12-1.82,2.49-4.31,3.33-6.13l3.5,1.44c-.17,.35-.7,.63-1.37,.49-1.12,1.26-2.8,2.91-4.48,4.2h6.86l1.47-1.54,2.73,2.59Zm-6.13,11.76l2.98,2.17c-.21,.25-.81,.53-1.54,.67v5.18c0,1.75-.39,2.91-3.68,3.22-.07-.7-.25-1.29-.7-1.65-.52-.35-1.4-.7-2.98-.88v-.52s3.47,.24,4.31,.24c.63,0,.8-.21,.8-.67v-5.36h-8.09v9.38c0,.17-.74,.91-1.93,.91h-.35v-10.29h-7.84v8.12c0,.21-.98,.74-1.89,.74h-.35v-11.03l2.45,1.12h7.63v-3.64h-5.15v1.02c0,.21-.98,.73-1.89,.73h-.35v-9.28l2.42,1.08h12.32l1.19-1.29,2.73,2.03c-.21,.24-.74,.52-1.33,.63v5.71c-.04,.21-1.23,.74-1.93,.74h-.35v-1.37h-5.39v3.64h7.74l1.16-1.37Zm-19.64-18.83c7,2.03,5.04,7.07,2.7,5.36-.17-1.75-1.64-3.92-3.08-5.08l.39-.28Zm3.33,15.58h12.81v-4.45h-12.81v4.45Z"/>
      <path class="cls-1" d="M474.45,115.99c0-2.7,2.24-4.9,4.94-4.9s4.9,2.21,4.9,4.9-2.21,4.94-4.9,4.94-4.94-2.24-4.94-4.94Zm1.19,0c0,2.07,1.65,3.75,3.75,3.75s3.71-1.68,3.71-3.75-1.65-3.71-3.71-3.71-3.75,1.65-3.75,3.71Z"/>
    </g>
  </g>
</svg>