<?xml version="1.0" encoding="UTF-8"?>
<svg id="_圖層_2" data-name="圖層 2" xmlns="http://www.w3.org/2000/svg" viewBox="0 0 689.48 91.17">
  <defs>
    <style>
      .cls-1 {
        fill: #fff;
        opacity: .7;
      }

      .cls-2 {
        fill: #231815;
      }
    </style>
  </defs>
  <g id="_圖層_1-2" data-name="圖層 1">
    <rect class="cls-1" width="689.48" height="91.17" rx="15" ry="15"/>
    <g>
      <path class="cls-2" d="M19.34,43.34v14.35c0,.35-1.19,1.12-2.56,1.12h-.49v-24.5c-.94,.7-1.92,1.29-2.87,1.79l-.42-.38c2.21-2.17,4.55-5.81,5.88-9.77l4.38,1.61c-.14,.38-.6,.7-1.37,.63-.28,.46-.56,.88-.88,1.29h4.45l1.54-2.06s1.82,1.47,2.94,2.52c-.07,.39-.46,.56-.95,.56h-8.75c-1.08,1.37-2.31,2.52-3.57,3.5l2.83,1.26h5.67l1.4-1.54,2.77,2.45c-.24,.25-.7,.52-1.26,.63v7.07c-.07,.14-1.22,.84-2.49,.84h-.59v-1.37h-5.67Zm0-7.07v2.49h5.67v-2.49h-5.67Zm5.67,6.06v-2.55h-5.67v2.55h5.67Zm-3.75-11.2c6.13,.46,3.78,4.76,1.47,3.12-.14-1.05-.98-2.24-1.79-2.91l.31-.21Zm15.33,15.72c-.21,.25-.7,.56-1.33,.67v8.19c-.04,.25-1.47,.84-2.41,.84h-.49v-1.89h-5.92v1.44c0,.28-1.26,.91-2.42,.91h-.42v-12.22l3.01,1.29h5.43l1.44-1.58,3.12,2.35Zm-10.15,.25v2.73h5.92v-2.73h-5.92Zm5.92,6.55v-2.8h-5.92v2.8h5.92Zm9.7-26.36s2.03,1.51,3.22,2.66c-.07,.39-.42,.56-.88,.56h-10.92c-1.47,1.79-3.22,3.12-4.97,4.06l-.45-.32c1.58-1.92,3.19-5.04,4.13-8.26l4.27,1.71c-.14,.39-.59,.67-1.36,.56-.25,.42-.53,.84-.81,1.22h6.06l1.71-2.21Zm-.98,6.34l2.91,2.7c-.28,.25-.81,.53-1.33,.63v18.24c0,2.21-.66,3.4-3.99,3.61,0-.88-.17-1.47-.49-1.96-.35-.49-1.12-.94-2.34-1.15v-.46s1.92,.1,3.04,.1c.49,0,.63-.1,.63-.46v-11.52h-5.74v.25c0,.24-1.36,.94-2.62,.94h-.42v-10.64l3.22,1.37h5.99l1.16-1.65Zm-7.32,2.66v2.49h5.74v-2.49h-5.74Zm5.74,6.06v-2.55h-5.74v2.55h5.74Zm-4.48-11.34c6.44,.28,4.06,4.94,1.61,3.22-.18-1.05-1.05-2.31-1.93-2.94l.32-.28Z"/>
      <path class="cls-2" d="M53.07,49.25c1.16,3.68,.67,6.41-.38,7.7-.73,.91-2.38,1.05-2.97,0-.45-.91,0-1.89,.84-2.52,.95-.95,2.1-3.19,1.96-5.18h.56Zm-3.32-4.48s.77-.17,1.15-.42c1.86-1.33,4.17-3.89,6.06-6.51-1.43,.49-3.12,1.02-4.94,1.54-.25,.42-.56,.7-.91,.84l-1.54-3.85s.7-.18,.98-.39c2.13-1.89,4.87-7,5.81-9.73l4.17,2.24c-.18,.31-.6,.53-1.26,.49-1.61,2.24-4.48,5.36-7.07,7.45,1.61,0,3.64,0,5.81-.03,.95-1.47,1.75-2.8,2.28-3.92l3.92,2.59c-.17,.28-.63,.52-1.33,.38-2.13,2.73-6.33,6.65-10.12,9.28,2.17-.14,5.15-.35,8.26-.63-.52-1.3-1.22-2.55-1.85-3.5l.42-.21c7.53,3.71,4.79,9.03,2.28,6.79-.07-.73-.28-1.5-.56-2.31-2.17,.8-5.57,1.96-9.21,3.04-.28,.38-.59,.63-.91,.74l-1.43-3.89Zm6.86,3.78c5.43,4.66,1.89,9.52-.24,6.76,.38-2.13,.17-4.76-.25-6.62l.49-.14Zm3.99-.73c6.83,3.18,3.89,8.54,1.44,6.2,.04-2.03-.88-4.45-1.82-6.02l.38-.17Zm21.39-14c-.32,.32-.77,.53-1.58,.63-.42,13.65-1.37,20.48-3.32,22.54-1.19,1.26-2.7,1.75-4.55,1.75,0-1.05-.14-1.86-.63-2.31-.56-.52-1.82-.98-3.26-1.26l.04-.56c1.47,.14,3.71,.35,4.52,.35,.67,0,.98-.14,1.4-.53,1.47-1.33,2.31-8.4,2.7-20.51h-8.19c-1.47,3.22-3.25,6.06-5.32,8.19l-.53-.25c1.93-3.99,3.75-10.12,4.62-15.82l4.8,1.22c-.14,.42-.49,.77-1.3,.77-.52,1.71-1.12,3.29-1.82,4.87h7.39l1.79-1.92,3.26,2.83Zm-13.34,5.25c8.79,4.45,5.64,11.17,2.59,8.37-.11-2.66-1.61-5.92-3.01-8.16l.42-.21Z"/>
      <path class="cls-2" d="M117.55,34.69c-.24,.28-.73,.6-1.47,.74v11.76c-.04,.25-1.75,.88-2.9,.88h-.6v-2.91h-8.86v12.36c0,.39-1.51,1.26-2.84,1.26h-.66v-13.62h-8.86v2.28c0,.32-1.51,1.12-2.91,1.12h-.53v-16.31l3.75,1.58h8.54v-7.6l4.79,.49c-.11,.49-.35,.88-1.29,1.01v6.09h8.51l1.71-1.89,3.61,2.76Zm-17.33,9.45v-9.31h-8.86v9.31h8.86Zm12.36,0v-9.31h-8.86v9.31h8.86Z"/>
      <path class="cls-2" d="M137.64,33.6c-.24,.28-.77,.56-1.47,.74v21.11c-.04,.28-1.58,.98-2.66,.98h-.49v-2.7h-6.2v2.7c0,.35-1.19,1.12-2.52,1.12h-.53V31.29l3.22,1.47h.63c.31-1.86,.73-4.55,.98-6.48l4.83,1.16c-.18,.56-.63,.8-1.4,.8-.84,1.33-2.06,3.12-3.04,4.52h3.68l1.61-1.82,3.36,2.66Zm-10.81,.17v8.72h6.2v-8.72h-6.2Zm6.2,18.94v-9.21h-6.2v9.21h6.2Zm21.7-19.11c-.28,.32-.7,.53-1.5,.63-.25,13.58-.8,20.62-2.59,22.65-1.12,1.29-2.62,1.82-4.65,1.82,0-1.08-.18-1.92-.73-2.41-.6-.56-2-1.05-3.61-1.33l.03-.56c1.65,.17,4.1,.35,4.94,.35,.7,0,.98-.11,1.37-.46,1.3-1.26,1.72-8.61,1.96-20.58h-7.35c-1.61,2.91-3.5,5.46-5.6,7.35l-.49-.32c2.06-3.54,4.1-9.1,5.15-14.46l4.65,1.37c-.14,.42-.56,.73-1.33,.73-.53,1.51-1.15,2.94-1.86,4.31h6.44l1.89-2,3.29,2.91Zm-14.98,6.27c9.45,3.33,6.37,10.12,3.19,7.46-.28-2.42-1.96-5.36-3.5-7.25l.32-.21Z"/>
      <path class="cls-2" d="M158.77,34.62c8.26,.7,5.92,6.65,2.84,4.76-.42-1.64-1.89-3.46-3.15-4.52l.31-.24Zm9.77-1.58c-1.26,4.16-3.57,11.9-4.03,13.65-.28,1.15-.49,2.27-.46,3.18,.04,1.72,1.26,3.19,1.16,6.16-.07,1.68-1.02,2.7-2.45,2.7-.73,0-1.4-.53-1.57-1.75,.59-3.61,.42-6.69-.38-7.21-.49-.35-1.02-.49-1.75-.56v-.7h1.54c.49,0,.63-.04,.98-.74q.66-1.26,6.37-14.91l.59,.18Zm-7.25-6.48c8.79,1.02,6.3,7.21,3.12,5.15-.49-1.75-2.06-3.75-3.43-4.87l.31-.28Zm24.19,13.93l3.54,2.59c-.25,.28-.77,.59-1.51,.73v10.75c0,2.28-.46,3.54-4.24,3.92-.07-.98-.24-1.75-.66-2.24-.46-.49-1.16-.84-2.62-1.05v-.53s2.97,.21,3.64,.21c.56,0,.7-.21,.7-.67v-2.94h-10.92c-.35,2.83-1.57,5.71-5.63,7.67l-.35-.38c2.73-2.7,2.97-6.2,2.97-9.84v-7.88l3.68,1.37h9.91l1.5-1.72Zm2.38-4.17s2.13,1.68,3.43,2.87c-.07,.38-.46,.56-.91,.56h-22.4l-.28-1.02h9.21v-3.25h-6.62l-.28-1.02h6.9v-3.08h-7.91l-.28-1.02h8.19v-4.2l4.38,.42c-.07,.46-.31,.77-1.16,.91v2.87h4.73l1.89-2.42s2.17,1.65,3.43,2.87c-.07,.39-.42,.56-.91,.56h-9.14v3.08h4.1l1.75-2.21s2,1.54,3.26,2.66c-.11,.38-.46,.56-.95,.56h-8.16v3.25h5.81l1.93-2.42Zm-3.54,13.93v-3.01h-10.78v1.44c0,.49,0,1.05-.04,1.58h10.82Zm-10.78-7.04v3.01h10.78v-3.01h-10.78Z"/>
      <path class="cls-2" d="M203.12,40.67c-.14,.28-.45,.53-1.08,.63v16.35c-.04,.28-1.29,1.08-2.62,1.08h-.6v-16.14c-1.12,1.22-2.31,2.38-3.5,3.4l-.42-.35c2.48-3.64,5.04-9,6.16-12.32l4.27,2.24c-.17,.32-.49,.53-1.37,.42-.73,1.16-1.75,2.49-2.87,3.92l2.03,.77Zm1.79-12.15c-.21,.31-.53,.49-1.37,.35-1.85,2.21-4.97,5.22-8.19,7.21l-.38-.38c2.34-2.73,4.8-6.86,5.88-9.49l4.06,2.31Zm10.64,26.32c0,1.93-.42,2.94-3.19,3.19-.07-.7-.14-1.29-.42-1.65-.32-.35-.77-.63-1.68-.77v-.53s1.61,.14,2.07,.14,.53-.21,.53-.6v-5.29c-.91,.7-2,1.54-3.22,2.45-.11,.46-.38,.77-.7,.91l-1.33-2.59c-.24,3.08-1.15,6.41-4.1,8.82l-.42-.42c1.96-3.33,1.96-7.46,1.96-11.38v-7.35l.38,.18-.98-3.19s.63-.17,.84-.38c.7-.98,1.47-2.56,2.14-4.31h-3.47l-.28-1.02h4.13c.66-1.82,1.22-3.64,1.5-4.94l4.1,1.44c-.14,.35-.52,.67-1.22,.67-.45,.84-1.02,1.82-1.61,2.83h2.7l1.57-2.13s1.75,1.5,2.8,2.59c-.11,.39-.42,.56-.91,.56h-6.79c-1.05,1.71-2.28,3.4-3.43,4.76,1.75-.14,4.16-.32,6.69-.53-.38-1.08-.91-2.1-1.4-2.91l.42-.21c6.65,2.97,3.88,7.84,1.57,5.71-.03-.56-.14-1.19-.31-1.79-1.79,.63-4.41,1.54-7.14,2.38-.21,.25-.42,.42-.63,.56l2.48,1.02h4.38l1.22-1.44,2.87,2.21c-.18,.17-.6,.42-1.12,.53v12.46Zm-7.84-7.67c0,.84,0,1.72-.07,2.66,1.05-.32,3.08-.95,5.22-1.65v-6.09h-5.15v2.21c5.99-.42,5.57,3.43,3.26,2.94-.7-.59-2.03-1.4-3.26-2.03v1.96Zm18.17-12.29c-.35,5.6-1.23,10.68-3.33,15.09,1.33,2.34,3.01,4.27,5.29,5.74l-.11,.32c-1.47,.31-2.41,1.12-2.83,2.59-1.68-1.54-2.94-3.57-3.89-5.95-1.47,2.21-3.39,4.24-5.85,5.99l-.35-.42c2.35-2.45,4.1-5.22,5.29-8.23-.94-3.43-1.43-7.42-1.68-11.73-.56,1.09-1.19,2.1-1.86,2.98l-.56-.28c1.37-3.89,2.31-9.38,2.55-14.56l4.48,.74c-.11,.49-.49,.84-1.26,.88-.38,2.07-.91,3.99-1.51,5.85h2.87l1.71-2.49s1.99,1.75,3.15,2.94c-.11,.38-.46,.56-.95,.56h-1.19Zm-5.95,0c-.28,.77-.6,1.51-.91,2.17,.38,3.71,1.05,7.04,2.13,9.94,1.12-3.75,1.58-7.81,1.68-12.11h-2.9Z"/>
      <path class="cls-2" d="M237.6,32.94c-.21,2.28-1.3,5.15-5.67,6.9l-.31-.49c2.77-2.31,3.04-5.15,3.04-7.56v-4.06l3.5,1.08c2.42-.8,4.97-1.82,6.44-2.55l2.87,2.83c-.39,.32-1.05,.28-1.89-.07-2.03,.35-5.11,.7-7.91,.84v2.07h6.23l1.64-2.03s1.89,1.43,3.01,2.49c-.07,.38-.42,.56-.91,.56h-3.78v4.52c-.04,.17-.98,.74-2.52,.74h-.53v-5.25h-3.22Zm-5.32,25.27c4.34-1.16,9.21-3.57,11.55-5.43l3.67,2.7c-.31,.35-.94,.42-1.89,.14-3.15,1.4-8.37,2.7-13.16,3.12l-.18-.53Zm28.11-28.46s1.99,1.51,3.19,2.63c-.07,.38-.42,.56-.91,.56h-4.59v4.45c-.04,.11-.6,.49-1.58,.67l2.84,2.14c-.21,.25-.7,.52-1.29,.63v11.73c-.04,.24-1.68,.88-2.77,.88h-.56v-1.44h-13.69v1.05c0,.28-1.44,1.05-2.8,1.05h-.53v-16.17l3.54,1.43h13.13l1.16-1.22h-.56v-5.18h-3.19c-.35,2-1.64,4.38-5.88,5.81l-.31-.46c2.97-2.13,3.32-4.69,3.32-6.9v-3.75l3.26,.98c2.52-.73,5.18-1.68,6.76-2.38l2.87,2.91c-.39,.31-1.05,.28-1.89-.11-2.03,.28-5.11,.6-7.98,.74v2.14h6.72l1.75-2.17Zm-19.36,10.61v2.84h13.69v-2.84h-13.69Zm0,3.82v2.87h13.69v-2.87h-13.69Zm13.69,6.79v-2.91h-13.69v2.91h13.69Zm-5.18,2.66c18.13,.52,12.22,6.93,8.89,4.58-1.71-1.33-4.8-2.97-9.03-4.1l.14-.49Z"/>
      <path class="cls-2" d="M299.27,54.89c1.01,1.92,1.19,2.94,.63,3.36-1.4,1.16-3.85-.38-5.11-1.96-2.31-2.8-3.92-6.23-5.01-10.15-1.54,1.09-3.29,1.93-5.11,2.59l-.35-.45c1.75-1.05,3.46-2.42,5.01-4.06-.84-3.82-1.3-7.95-1.47-12.29h-14.49v6.58c0,5.71-.25,14-5.32,19.6l-.46-.32c2.63-5.85,2.8-13.09,2.8-19.29v-9l3.5,1.4h13.9c-.04-1.58-.07-3.15-.07-4.79l4.55,.49-.07-.07,.35-.25c5.95,1.16,3.46,5,1.37,3.33-.18-1.05-.91-2.21-1.61-2.94-.07,.42-.38,.77-1.26,.91-.04,1.12-.04,2.2,0,3.33h4.66l1.64-2.24s1.86,1.58,2.97,2.7c-.1,.38-.46,.56-.91,.56h-8.37c.07,3.04,.31,6.12,.8,9,1.29-2,2.38-4.3,3.12-6.86l4.24,1.68c-.18,.42-.6,.7-1.37,.59-1.44,3.22-3.22,5.74-5.36,7.74,.91,3.61,2.31,6.76,4.45,9.1,.49,.59,.7,.59,1.02-.11,.46-.88,1.19-2.55,1.71-4.03l.42,.07-.8,5.78Zm-25.06-5.81c1.08,3.33,.66,5.95-.21,7.11-.63,.7-1.96,.91-2.48,.14-.42-.77-.04-1.61,.7-2.17,.84-.91,1.61-3.15,1.37-5.08h.63Zm10.5-16.14s1.89,1.47,3.12,2.59c-.11,.39-.46,.56-.95,.56h-12.36l-.28-1.01h8.71l1.75-2.14Zm-6.65,13.16c0,.25-1.33,.91-2.52,.91h-.42v-9.84l3.08,1.26h4.76l1.47-1.54,3.15,2.38c-.18,.25-.7,.52-1.3,.63v5.43c-.04,.25-1.54,.8-2.49,.8h-.53v-1.33h-5.21v1.3Zm8.12,8.96c.77,.28,.95,.63,.95,1.12,0,1.08-1.09,1.65-5.43,1.65h-2.7c-2.52,0-2.94-.59-2.94-2.35v-7.63l3.61,.35c-.03,.45-.38,.77-1.01,.88v5.74c0,.42,.1,.53,.98,.53h2.24c1.05,0,1.82,0,2.13-.04,.31,0,.42-.07,.59-.38,.28-.49,.63-2.03,1.05-3.75h.42l.11,3.88Zm-8.12-15.61v4.34h5.21v-4.34h-5.21Zm1.93,7.14c6.3,3.22,3.54,7.84,1.4,5.71,.04-1.79-.91-4.06-1.82-5.46l.42-.25Zm6.54,2.07c6.65,3.89,4.03,8.96,1.71,6.79-.04-2.17-1.12-4.83-2.17-6.58l.46-.21Z"/>
      <path class="cls-2" d="M308.79,46.13c2.07-1.19,3.01-2.7,3.46-4.52-1.82-.8-2.97-1.68-2.97-3.19,0-1.26,.88-2.34,2.42-2.34s2.66,1.16,2.66,3.33c0,2.66-1.26,6.06-4.97,7.84l-.6-1.12Z"/>
      <path class="cls-2" d="M339.8,45.26c2.45,6.2,8.09,8.75,15.3,9.94l-.04,.38c-1.44,.35-2.42,1.44-2.84,3.08-6.54-2-10.64-5.29-12.74-12.11-1.44,5.32-5.11,9.38-15.93,12.25l-.31-.56c8.82-3.61,11.8-7.7,12.92-12.99h-11.13l-.28-1.01h11.59c.28-1.82,.38-3.78,.46-5.92l4.94,.45c-.07,.49-.46,.88-1.26,.95-.11,1.61-.25,3.08-.49,4.52h8.54l2.03-2.7s2.28,1.82,3.64,3.15c-.07,.38-.42,.56-.95,.56h-13.44Zm15.47-12.95c-.25,.28-.63,.31-1.33,.38-1.19,1.02-3.19,2.35-4.69,3.15l-.35-.25c.38-.95,.95-2.38,1.29-3.57h-5.5v3.99c0,.42,.11,.56,1.16,.56h2.94c1.09,0,2.17,0,2.62-.04,.32,0,.7-.04,.88-.07,.25-.04,.63-.1,.91-.21h.32l.14,.07c.98,.28,1.26,.63,1.26,1.16,0,1.19-1.08,1.58-6.51,1.58h-3.36c-3.01,0-3.5-.6-3.5-2.59v-4.45h-12.88c.11,2.38-.95,3.96-2.17,4.62-1.16,.63-2.55,.39-2.98-.73-.31-1.12,.39-1.93,1.33-2.38,1.4-.7,2.73-2.55,2.55-4.76l.53-.04c.31,.8,.52,1.58,.63,2.28h21.53l1.89-1.89,3.29,3.19Zm-16.56,2.42c-.18,.38-.6,.59-1.61,.56-2.35,2.8-6.12,5.39-11.27,6.58l-.28-.46c4.48-2.24,7.91-6.06,9.21-9.17l3.96,2.49Zm-1.75-8.72c7.67,1.19,4.48,6.69,1.65,4.48-.14-1.54-1.09-3.26-2-4.27l.35-.21Zm5.6,13.58c7.74,.46,5.67,5.74,2.84,4.1-.49-1.37-1.96-2.94-3.15-3.85l.31-.25Z"/>
      <path class="cls-2" d="M359.57,48.17s.6-.14,.84-.28c1.23-.91,2.59-2.55,3.78-4.24-.84,.32-1.79,.63-2.7,.91-.21,.42-.45,.7-.7,.81l-1.51-2.91s.53-.11,.77-.25c1.09-.7,2.38-2.63,3.08-4.06-.35,.14-.8,.21-1.37,.21h-.49v-11.59l3.19,1.29h7.98l1.4-1.61,2.87,2.21c-.21,.32-.56,.49-1.29,.63v8.02c0,.14-.88,.67-2.13,.73l1.64,.77c-.14,.35-.56,.63-1.29,.52-.88,.98-2.17,2.1-3.36,3.01l2.84-.07c.46-.84,.88-1.61,1.09-2.2l3.22,1.93c-.14,.28-.59,.56-1.29,.42-1.33,1.71-3.57,4.03-5.67,5.67,1.19-.03,2.73-.14,4.3-.25-.24-.94-.63-1.89-.98-2.55l.42-.17c5.29,3.18,2.76,7.21,.91,5.25,.04-.52-.04-1.05-.14-1.58-1.29,.39-2.97,.91-4.62,1.4-.17,.32-.38,.53-.63,.63l-1.4-2.91s.59-.1,.8-.25c1.05-.88,2.21-2.42,3.19-4.03-.74,.25-1.51,.53-2.31,.77-.18,.42-.42,.66-.7,.8l-1.19-2.28-.17-.07c-1.4,1.61-3.68,3.78-5.92,5.36,1.15-.04,2.62-.14,4.1-.25-.25-.88-.53-1.71-.84-2.35l.49-.17c4.83,3.19,2.42,6.9,.7,5.08,0-.52-.04-1.09-.14-1.68-1.29,.46-3.01,1.01-4.65,1.5-.18,.32-.42,.53-.63,.63l-1.47-2.84Zm3.08,3.01c1.37,3.5,.7,6.09-.52,7.07-.81,.67-2.1,.67-2.56-.28-.35-.88,.14-1.71,.95-2.24,.98-.73,1.82-2.7,1.54-4.52l.59-.03Zm9.91-13.48v-.88h-8.47v.67l2.91,1.37c-.14,.31-.56,.56-1.29,.45-.98,1.01-2.45,2.24-3.82,3.15,.91,0,2.03-.04,3.19-.11,.53-.8,.98-1.61,1.26-2.21l2.24,1.92c1.22-.91,2.52-3.54,3.01-4.83l.98,.46Zm-8.47-8.61v2.98h8.47v-2.98h-8.47Zm8.47,3.99h-8.47v2.73h8.47v-2.73Zm-7.18,18.24c5.11,4.1,1.89,8.61-.04,6.16,.39-1.96,.07-4.38-.42-6.02l.46-.14Zm3.61-.17c6.06,3.33,3.19,8.05,1.02,5.81,.11-1.86-.63-4.13-1.47-5.6l.46-.21Zm3.95-.6c6.37,2.38,3.75,7.11,1.51,5.08,0-1.61-.95-3.64-1.89-4.83l.38-.25Zm1.89,7.81c2.42-1.68,4.8-4.48,5.88-6.79l3.82,1.96c-.18,.32-.53,.38-1.16,.25-1.64,1.96-5.04,4.06-8.22,5.08l-.32-.49Zm13.97-31.96s2.13,1.68,3.46,2.91c-.1,.39-.46,.56-.95,.56h-5.78c-.8,1.37-1.75,2.83-2.62,3.92h4.17l1.51-1.61,3.04,2.42c-.18,.25-.67,.49-1.23,.59v15.68c-.03,.25-1.5,.91-2.52,.91h-.49v-1.3h-6.62v.7c0,.31-1.19,1.01-2.42,1.01h-.49v-19.78l3.08,1.37h.77c.14-1.08,.24-2.62,.35-3.92h-5.21l-.28-1.02h10.29l1.93-2.45Zm-8.02,8.4v4.13h6.62v-4.13h-6.62Zm0,9.35h6.62v-4.2h-6.62v4.2Zm6.62,5.32v-4.31h-6.62v4.31h6.62Zm-2.38,2.31c9.45,2.17,7.49,8.51,4.27,6.65-.67-2.21-2.84-4.8-4.55-6.37l.28-.28Z"/>
      <path class="cls-2" d="M401.54,38.54v-3.22h-4.1l-.28-1.01h4.38v-3.05h-4.97l-.28-1.02h5.25v-4.03l4.34,.42c-.07,.49-.38,.81-1.22,.95v2.66h1.71l1.58-2.07s1.85,1.44,3.01,2.52c-.11,.38-.46,.56-.91,.56h-5.39v3.05h1.51l1.43-1.86s1.65,1.29,2.66,2.31c-.1,.38-.42,.56-.91,.56h-4.69v3.22h2.38l1.61-2.07s1.86,1.44,3.01,2.52c-.1,.38-.46,.56-.95,.56h-14.88l-.28-1.02h5.99Zm25.06,2.73s1.37,1.29,2.17,2.24c-.11,.38-.42,.56-.88,.56h-2.48v6.27c-.04,.21-1.44,.84-2.38,.84h-.49v-1.82h-3.12v5.18c0,2.24-.53,3.85-4.17,4.2-.04-.98-.24-1.79-.66-2.24-.49-.56-1.29-.91-2.94-1.12v-.53s3.4,.25,4.1,.25c.63,0,.77-.21,.77-.67v-5.08h-4.65l-.31-1.02h4.97v-4.27h-5.71l-.21-.8c-.21,.25-.7,.53-1.37,.67v11.31c0,2.03-.42,3.15-3.75,3.46-.04-.77-.18-1.47-.56-1.89-.38-.38-.98-.7-2.17-.91v-.53s2.38,.17,2.94,.17c.52,0,.63-.17,.63-.63v-3.99h-6.09c-.32,2.73-1.29,5.71-4.17,7.77l-.38-.35c1.79-3.15,1.79-7.18,1.79-10.71v-6.62l3.46,1.37h5.04l1.4-1.61,3.22,2.49-.07-.21h5.98v-4.06h-4.34l-.31-1.01h10.36l1.43-1.51,2.98,2.28c-.18,.25-.63,.46-1.22,.59v3.71l1.19-1.79Zm-20.27,8.65v-2.73h-5.92v.46c0,.7,0,1.47-.07,2.28h5.98Zm-5.92-6.51v2.77h5.92v-2.77h-5.92Zm26.88-14.25c-.35,.31-1.05,.35-1.96,0-3.57,.59-9.35,1.01-14.11,.95l-.14-.6c4.48-.67,10.08-2.21,12.95-3.36l3.25,3.01Zm-15.4,2.13c6.09,2.77,3.36,7.25,1.19,5.22,0-1.68-.84-3.71-1.61-5.01l.42-.21Zm4.45-.38c6.12,2.8,3.36,7.56,1.19,5.46,.18-1.75-.66-3.96-1.61-5.29l.42-.17Zm3.08,12.15h3.12v-4.06h-3.12v4.06Zm3.12,1.01h-3.12v4.27h3.12v-4.27Zm-1.68-6.97c.84-1.75,1.86-4.51,2.62-7.04l3.99,1.54c-.14,.42-.6,.7-1.33,.63-1.44,1.93-3.19,3.89-4.79,5.15l-.49-.28Z"/>
      <path class="cls-2" d="M442.38,31.01s1.72,1.4,2.84,2.45c-.11,.38-.45,.56-.95,.56h-11.79l-.28-1.01h8.58l1.61-2Zm-1.01,4.59s1.61,1.26,2.59,2.24c.14-.31,.35-.59,.63-.88,.7-.91,1.68-3.15,1.68-4.94l.63,.07c.67,2.98,.42,5.43-.28,6.72-.46,.84-1.89,1.16-2.52,.42-.25-.35-.28-.74-.21-1.12-.11,.21-.38,.31-.77,.31h-9.31l-.28-1.01h6.37l1.47-1.82Zm0,4.48s1.61,1.33,2.62,2.31c-.11,.38-.42,.56-.91,.56h-9.28l-.28-1.01h6.37l1.47-1.86Zm3.08,7.11c-.21,.25-.7,.53-1.33,.67v8.26c-.04,.28-1.44,.94-2.45,.94h-.46v-1.64h-3.46v2.07c0,.28-1.26,.94-2.48,.94h-.42v-13.34l3.05,1.29h2.97l1.47-1.58,3.12,2.38Zm-9.21-20.37c8.05,1.05,5.39,6.9,2.35,4.83-.35-1.61-1.61-3.5-2.7-4.62l.35-.21Zm4.97,27.58v-7h-3.46v7h3.46Zm2.56-10.22c2.1-1.16,4.16-2.52,6.05-4.06v-9.87l3.68,.38c-.04,.46-.38,.77-1.05,.88v6.34c3.46-3.25,6.27-6.97,7.95-10.36l3.82,1.93c-.25,.38-.56,.52-1.4,.35-2.28,3.57-5.85,7.35-10.36,10.47,0,.42,.18,.56,1.19,.56h2.83c1.19,0,2.21-.04,2.59-.07,.35,0,.53-.07,.7-.31,.24-.42,.66-1.82,1.05-3.33h.42l.1,3.39c.84,.32,1.05,.6,1.05,1.12,0,1.16-1.19,1.65-6.09,1.65h-3.22c-2.07,0-2.91-.35-3.15-1.4-1.82,1.08-3.78,2.03-5.85,2.84l-.31-.49Zm20.34,9.98s1.61,1.68,2.45,2.84c-.11,.38-.42,.56-.91,.56h-21.18l-.24-1.01h2.31v-12.22l3.05,1.26h10.19l1.37-1.75,3.36,2.42c-.24,.38-.7,.56-1.57,.7v9.24l1.19-2.03Zm-14.91,2.38h2.28v-9.94h-2.28v9.94Zm3.22-30.31c7.28,2.07,4.83,7.49,2.21,5.46-.17-1.75-1.43-3.92-2.55-5.22l.35-.25Zm3.33,20.37h-2.1v9.94h2.1v-9.94Zm2.24,0v9.94h2.17v-9.94h-2.17Zm3.01-13.44c7.18,2.73,4.45,7.95,2,5.74-.11-1.85-1.29-4.09-2.38-5.53l.38-.21Z"/>
      <path class="cls-2" d="M484.14,33.6c-.24,.28-.77,.56-1.47,.74v21.11c-.04,.28-1.58,.98-2.66,.98h-.49v-2.7h-6.2v2.7c0,.35-1.19,1.12-2.52,1.12h-.53V31.29l3.22,1.47h.63c.31-1.86,.73-4.55,.98-6.48l4.83,1.16c-.18,.56-.63,.8-1.4,.8-.84,1.33-2.06,3.12-3.04,4.52h3.68l1.61-1.82,3.36,2.66Zm-10.81,.17v8.72h6.2v-8.72h-6.2Zm6.2,18.94v-9.21h-6.2v9.21h6.2Zm21.7-19.11c-.28,.32-.7,.53-1.5,.63-.25,13.58-.8,20.62-2.59,22.65-1.12,1.29-2.62,1.82-4.65,1.82,0-1.08-.18-1.92-.73-2.41-.6-.56-2-1.05-3.61-1.33l.03-.56c1.65,.17,4.1,.35,4.94,.35,.7,0,.98-.11,1.37-.46,1.3-1.26,1.72-8.61,1.96-20.58h-7.35c-1.61,2.91-3.5,5.46-5.6,7.35l-.49-.32c2.06-3.54,4.1-9.1,5.15-14.46l4.65,1.37c-.14,.42-.56,.73-1.33,.73-.53,1.51-1.15,2.94-1.86,4.31h6.44l1.89-2,3.29,2.91Zm-14.98,6.27c9.45,3.33,6.37,10.12,3.19,7.46-.28-2.42-1.96-5.36-3.5-7.25l.32-.21Z"/>
      <path class="cls-2" d="M518.15,38.85s1.93,1.54,3.08,2.66c-.1,.38-.42,.56-.91,.56h-5.85v4.73h1.33l1.5-1.65,3.26,2.45c-.21,.24-.7,.52-1.37,.67v9.14c-.04,.25-1.58,.84-2.55,.84h-.49v-2.31h-6.3v1.79c0,.32-1.3,.98-2.59,.98h-.42v-13.27l3.18,1.37h1.37v-4.73h-5.98l-.28-1.01h6.27v-4.38h-3.67l-.04-.17c-.98,.81-1.96,1.54-3.01,2.17l-.38-.31c2.94-3.15,5.67-8.58,6.69-12.11l4.73,1.37c-.11,.42-.49,.67-1.44,.7,8.86,2.42,6.69,7.07,4.27,6.65,.45,.38,.95,.77,1.37,1.16-.1,.38-.46,.56-.91,.56h-4.52v4.38h2l1.68-2.2Zm-2.8-3.19l1.57-2.03,.53,.42c-.49-1.61-1.61-3.68-3.4-5.36-1.26,2.24-3.18,4.8-5.46,6.97h6.76Zm-5.5,12.11v7.14h6.3v-7.14h-6.3Zm28.46-7.98c-.28,.28-.66,.39-1.4,.42-1.29,1.54-3.71,3.75-5.49,5.04l-.38-.25c.73-1.43,1.71-3.71,2.34-5.43h-3.5v15.02c0,2.28-.53,3.82-4.3,4.13-.07-.95-.25-1.71-.74-2.21-.49-.49-1.26-.88-2.87-1.09v-.49s3.29,.21,4.03,.21c.53,0,.7-.21,.7-.67v-14.91h-6.79l-.31-1.01h13.72l1.86-1.79,3.15,3.01Zm-17.57-10.43l-.32-.95h11.94l1.85-1.82,3.12,2.98c-.28,.28-.7,.35-1.4,.42-1.44,1.47-3.89,3.29-6.06,4.52,2.35,2.21,.91,4.83-1.29,3.71-.84-2-3.15-4.41-5.01-5.74l.31-.32c2.45,.35,4.17,1.02,5.32,1.82,1.08-1.4,2.31-3.18,3.08-4.62h-11.55Z"/>
      <path class="cls-2" d="M550.85,27.58l3.12,2.52c-.21,.28-.74,.56-1.4,.7v23.45c-.04,.21-1.4,.95-2.45,.95h-.42v-2.7h-4.2v3.22c0,.35-1.09,1.12-2.35,1.12h-.53V27.9l3.01,1.4h3.71l1.51-1.71Zm-5.36,2.73v6.2h4.2v-6.2h-4.2Zm4.2,7.18h-4.2v6.41h4.2v-6.41Zm0,14v-6.58h-4.2v6.58h4.2Zm23.94,4.06c.84,1.19,1.05,1.86,.56,2.42-.91,1.23-2.9,.46-4.23-.59-3.96-2.94-5.78-7.77-6.62-13.34h-5.01v9.98c1.71-.63,3.74-1.37,5.78-2.14l.18,.42c-1.54,1.12-4.34,3.33-7.53,5.5-.24,.49-.63,.8-.95,.98l-1.79-3.36c1.12-.63,1.3-.91,1.3-1.75V26.99l3.46,1.37h9.66l1.54-1.68,3.29,2.56c-.21,.28-.77,.56-1.47,.7v7.49c-.04,.25-1.54,.8-2.52,.8h-.49v-1.4h-3.08c-.04,2.06,.07,4.13,.35,6.2h2.7l1.89-2.56s2.17,1.79,3.47,3.01c-.11,.38-.42,.56-.95,.56h-6.97c.77,4.48,2.38,8.51,5.15,10.47,.49,.35,.77,.28,1.02-.21,.35-.74,.91-2.14,1.3-3.33l.42,.07-.46,4.52Zm-15.3-19.74h10.46v-6.44h-10.46v6.44Zm4.87,7.21c-.24-2-.38-4.06-.42-6.2h-4.45v6.2h4.87Z"/>
      <path class="cls-2" d="M586.27,31.12c-2.13,2.8-4.94,5.39-8.12,7.04l-.35-.35c3.08-2.7,5.81-7.46,7.04-11.62l4.97,.91c-.14,.42-.38,.56-1.33,.56-.42,.8-.95,1.64-1.51,2.45h16.63l2.03-2.52s2.24,1.65,3.71,2.98c-.1,.38-.46,.56-.98,.56h-22.09Zm3.61,9.87c-.18,.38-.49,.56-1.33,.46-1.82,2.7-5.25,5.74-9.21,7.53l-.35-.45c3.15-2.38,5.92-6.3,7.14-9.31l3.75,1.79Zm5.74,4.24l3.01,2.49c-.28,.28-.66,.46-1.37,.53-.28,5.78-.88,8.4-2.24,9.45-.88,.66-2.03,.98-3.36,.98,0-.84-.07-1.61-.49-2-.42-.38-1.26-.74-2.24-.95v-.52c.95,.07,2.52,.17,3.12,.17,.49,0,.77-.04,1.02-.28,.63-.53,1.01-2.8,1.3-7.28h-4.45c-.53,4.24-2.17,8.16-10.4,10.89l-.42-.53c6.44-3.08,7.38-6.69,7.63-10.36h-3.4l-.28-.98h10.99l1.58-1.61Zm14.28,10.22c.8,1.33,.98,2.21,.49,2.73-1.09,1.05-2.91,.21-4.06-1.01-3.92-3.29-4.9-11.03-5.08-18.8h-20.16l-.31-1.02h20.09l1.68-1.85,3.36,2.73c-.21,.25-.73,.49-1.44,.6-.11,5.46,.73,13.02,3.57,15.26,.35,.28,.56,.25,.7-.18,.42-.98,.8-2.13,1.12-3.33l.42,.07-.38,4.8Zm-8.68-21.7l1.93-2.34s2.17,1.61,3.54,2.8c-.07,.39-.46,.56-.95,.56h-20.2l-.28-1.02h15.96Zm-8.51,5.67c10.68,3.85,9.17,10.05,6.06,8.23-1.09-2.52-4.17-5.91-6.44-7.91l.38-.32Z"/>
      <path class="cls-2" d="M645.91,29.4c-.24,.31-.77,.56-1.5,.74v27.2c-.04,.28-1.58,1.12-2.8,1.12h-.53v-2.41h-21.53v1.44c0,.42-1.26,1.26-2.7,1.26h-.56V26.95l3.57,1.58h20.86l1.71-1.93,3.46,2.8Zm-4.83,25.62V29.54h-21.53v25.48h21.53Zm-2.66-19.88s1.37,1.05,2.24,1.89c-.11,.38-.42,.56-.88,.56h-19.29l-.28-1.01h5.88c.21-.7,.46-1.58,.7-2.49h-4.34l-.32-1.02h4.94c.28-.98,.53-1.96,.74-2.83l3.81,.63c-.07,.46-.56,.81-1.29,.84l-.35,1.37h3.71l1.37-1.37,2.73,2.07c-.14,.21-.56,.42-1.09,.53v2.28h.53l1.19-1.44Zm-.66,13.34s1.61,1.26,2.59,2.24c-.11,.38-.42,.56-.88,.56h-7.49v2.35c0,.14-.91,.7-2.38,.7h-.49v-3.05h-4.06l-1.15,1.23-2.7-1.93c.35-.25,.84-.49,1.29-.66,.31-.95,.63-2,.84-2.84h-1.86l-.28-1.02h7.91v-2.38h-3.08v.53c0,.21-1.26,.8-2.38,.8h-.38v-6.93l2.94,1.23h8.44l1.36-1.37,2.84,2.1c-.17,.21-.6,.46-1.08,.56v3.04c-.04,.25-1.44,.81-2.35,.81h-.49v-.77h-2.94v2.38h3.08l1.3-1.61s1.54,1.15,2.45,2.06c-.07,.39-.38,.56-.88,.56h-5.95v3.19h4.38l1.4-1.79Zm-8.65,1.79v-3.19h-3.01c-.28,.98-.67,2.17-.98,3.19h3.99Zm-3.08-7.6h8.89v-2.35h-8.89v2.35Zm3.68-8.58c-.25,.91-.53,1.75-.74,2.49h5.01v-2.49h-4.27Z"/>
      <path class="cls-2" d="M653.26,42.49c0-2.73,2.24-4.94,4.97-4.94s4.94,2.21,4.94,4.94-2.21,4.97-4.94,4.97-4.97-2.24-4.97-4.97Zm1.26,0c0,2.03,1.64,3.71,3.71,3.71s3.67-1.68,3.67-3.71-1.64-3.67-3.67-3.67-3.71,1.64-3.71,3.67Z"/>
    </g>
  </g>
</svg>