<?xml version="1.0" encoding="UTF-8"?>
<svg id="_圖層_2" data-name="圖層 2" xmlns="http://www.w3.org/2000/svg" viewBox="0 0 857.74 275.48">
  <defs>
    <style>
      .cls-1 {
        fill: #fff;
        opacity: .61;
      }

      .cls-2 {
        fill: #231815;
      }
    </style>
  </defs>
  <g id="_圖層_1-2" data-name="圖層 1">
    <rect class="cls-1" width="857.74" height="275.48" rx="30" ry="30"/>
    <g>
      <path class="cls-2" d="M34.39,57.1v1.08h-15.02v-1.08l5.18-.63c.07-2.17,.1-4.34,.1-6.51v-14.21l-4.55,.46v-1.29l8.82-2.1,.49,.39-.14,5.63v11.13c0,2.17,.04,4.34,.1,6.51l5.01,.63Z"/>
      <path class="cls-2" d="M47.8,30.42h2.56l-10.43,34.02h-2.63l10.5-34.02Z"/>
      <path class="cls-2" d="M76.64,33.4l-.31,1.82,.39-.35,3.82,2.84c-.21,.25-.67,.53-1.33,.66v7.7c-.04,.32-1.93,1.23-3.29,1.23h-.7v-1.3h-4.94v2.91h7.46l1.75-2,3.99,2.98c-.21,.28-.7,.59-1.44,.74v6.48c0,2.41-.63,3.82-5.22,4.2-.11-1.12-.25-1.96-.77-2.49-.56-.49-1.26-.95-3.05-1.19v-.49s3.47,.25,4.34,.25c.52,0,.7-.25,.7-.7v-6.79h-7.77v3.33l3.08-.1c-.49-.88-1.05-1.68-1.68-2.24l.31-.25c8.37,1.5,5.43,7.74,2.35,5.39-.04-.6-.21-1.23-.46-1.86-2.84,.77-6.58,1.68-11.48,2.77-.21,.42-.63,.7-1.02,.73l-1.51-4.34c1.4,.04,3.71,.04,6.55-.04v-3.4h-7.63v10.26c0,.28-1.19,1.12-3.15,1.12h-.7v-11.38h-1.61l-.31-.98h1.93v-1.64l4.31,1.64h7.18v-2.91h-4.83v.56c0,.38-1.75,1.22-3.36,1.22h-.56v-12.64l1.33,.52-.28-2.27h-6.13l-.28-.98h6.3l-.49-3.82,5.15,.35c-.04,.39-.28,.77-.98,.98l.32,2.49h.91l1.85-2.66s2.17,1.82,3.43,3.08c-.07,.38-.46,.56-.94,.56h-5.11l.25,1.79c-.46,.59-1.44,.91-2.66,1.01l1.51,.59h13.02l1.33-1.36c-.8,.52-2.31,.66-3.85,.38l.38-2.41h-3.19l-.28-.98h3.57l.6-3.82,5.11,.84c-.11,.42-.42,.84-1.37,.88l-.35,2.1h2.24l1.89-2.66s2.17,1.82,3.4,3.08c-.07,.38-.46,.56-.91,.56h-6.79Zm-15.05,4.38v3.15h4.83v-3.15h-4.83Zm4.83,7.21v-3.05h-4.83v3.05h4.83Zm3.85-7.21v3.15h4.94v-3.15h-4.94Zm4.94,7.21v-3.05h-4.94v3.05h4.94Z"/>
      <path class="cls-2" d="M94.87,50.27c1.47-.46,3.01-.98,4.55-1.47l.14,.38c-2.14,1.68-5.43,4.17-10.08,7.21-.14,.45-.46,.84-.88,.98l-2.1-4.62c.91-.25,2.49-.67,4.38-1.26v-11.38h-3.68l-.28-1.02h3.96v-9.35l5.29,.46c-.07,.49-.35,.88-1.29,1.01v7.88h.21l1.75-2.94s2.03,2.07,3.04,3.4c-.11,.38-.46,.56-.91,.56h-4.1v10.15Zm21.35-6.58s2.59,2.03,4.1,3.46c-.11,.39-.49,.56-.98,.56h-9.07v12.74c0,.28-1.26,1.16-3.33,1.16h-.77v-13.9h-9.07l-.28-1.02h9.35v-13.93h-7.98l-.28-1.01h15.51l2.17-2.91s2.45,2,3.89,3.36c-.1,.38-.45,.56-.98,.56h-8.23v13.93h3.64l2.31-3.01Zm-16.35-8.89c8.33,5.46,4.48,12.6,1.19,9.17,.11-2.97-.74-6.44-1.61-9.03l.42-.14Zm11.45,9.98c.81-2.62,1.72-6.72,2.28-10.22l5.43,1.65c-.17,.42-.63,.74-1.4,.7-1.58,3.08-3.64,6.06-5.81,8.09l-.49-.21Z"/>
      <path class="cls-2" d="M150.87,51.6s2.45,1.79,3.99,3.05c-.1,.38-.49,.56-.98,.56h-13.55v5.18c0,.28-1.89,.91-3.47,.91h-.74v-6.09h-13.93l-.31-1.01h14.25v-2.62l2.17,.17c2.03-1.65,3.5-4.24,4.17-6.48h-11.59l3.47,1.64c-.17,.35-.46,.56-1.29,.46-.28,.39-.6,.77-.95,1.12,6.48,.56,3.75,5.6,.77,3.71-.21-.95-.88-2.03-1.58-2.84-1.93,1.89-4.52,3.61-7.46,4.59l-.31-.42c2.87-2.1,5.15-5.46,6.2-8.26h-5.67l-.31-1.02h13.41c-.1-.1-.21-.21-.31-.31-.07-.63-.28-1.58-.7-2.38-.7,.49-1.85,.84-3.85,.98-.07-.84-.17-1.5-.59-1.89-.42-.35-.95-.7-2.42-.91v-.46s2.59,.18,3.22,.18c.52,0,.63-.21,.63-.63v-2.24c-1.93,1.09-4.41,2.49-7.56,4.06-.14,.46-.45,.77-.88,.88l-1.5-3.82c1.75-.28,5.71-1.15,9.94-2.17v-4.27h-10.22l-.31-1.01h10.19l1.75-2.03,3.96,2.97c-.21,.28-.7,.6-1.44,.7v7.18c0,.56-.04,1.09-.21,1.51,3.92,.59,3.92,2.73,2.8,3.67h7.14l1.68-1.92c-.38,.07-.77,.1-1.23,.14-.1-.84-.17-1.5-.56-1.89-.38-.35-.91-.74-2.31-.91v-.49s2.42,.17,3.01,.17c.49,0,.63-.21,.63-.63v-2.49c-1.96,1.12-4.41,2.49-7.53,4.03-.14,.42-.46,.77-.88,.88l-1.44-3.85c1.72-.28,5.67-1.16,9.84-2.1v-3.92h-9.24l-.31-1.01h9.21l1.75-2.03,3.99,2.97c-.25,.28-.7,.6-1.44,.7v7.07c0,1.64-.35,2.7-2.52,3.19,.77,.56,2.35,1.68,3.47,2.55-.1,.38-.49,.56-.98,.56h-8.33l3.6,1.61c-.17,.35-.49,.6-1.26,.49-.21,.28-.46,.6-.7,.88,6.9,.14,5.29,5.46,2.14,4.1-.6-1.08-1.86-2.31-2.98-3.22-1.19,1.16-2.73,2.1-4.48,2.8l1.4,.11c-.07,.38-.28,.66-.98,.8v1.37h8.33l2.21-2.59Zm-26.18-19.29c6.72-1.36,6.44,4.62,3.54,3.5-.88-.98-2.17-2.28-3.75-3.12l.21-.39Zm14.7,.04c6.44-1.43,6.13,4.41,3.33,3.29-.77-.91-1.96-2.17-3.5-2.87l.17-.42Z"/>
      <path class="cls-2" d="M160.14,51.25c1.37,3.61,1.16,6.34,.14,7.74-.73,.95-2.56,.98-3.19-.21-.52-1.05,0-2.1,.91-2.76,.81-.88,1.86-3.01,1.61-4.76h.52Zm-3.12-4.55s.84-.17,1.16-.42c1.47-1.19,3.22-3.5,4.69-5.85-.91,.39-1.96,.81-3.08,1.23-.24,.38-.56,.67-.91,.8l-1.68-4.06s.7-.21,1.02-.42c1.61-1.75,3.68-6.76,4.24-9.42l4.69,2.24c-.14,.35-.53,.56-1.19,.53-1.47,2.24-3.99,5.22-6.23,7.18,1.23,.04,2.7,.04,4.27,0,.67-1.26,1.23-2.42,1.58-3.36l4.17,2.8c-.18,.28-.63,.49-1.3,.35-1.89,2.55-5.43,6.09-8.54,8.47,1.72-.11,3.92-.25,6.3-.42-.17-1.26-.52-2.49-.91-3.47l.42-.14c7.07,3.85,3.22,9.28,.63,6.41,.04-.52,.04-1.09,0-1.64-1.85,.77-4.38,1.79-7.07,2.73-.25,.32-.52,.49-.84,.6l-1.4-4.13Zm5.39,4.1c5.46,4.48,1.85,9.31-.28,6.62,.35-2.13,.18-4.69-.17-6.51l.46-.1Zm14.07-.28c-.88,1.26-2.38,3.33-4.48,5.85-.03,.49-.31,.91-.7,1.08l-2.21-3.25c.28,2-1.37,3.29-2.77,1.82,.14-1.93-.52-4.27-1.26-5.81l.42-.18c1.93,1.05,2.98,2.28,3.4,3.36,1.47-.56,4.52-1.85,7.49-3.18l.1,.31Zm9.87-12.08s2.21,1.93,3.47,3.22c-.1,.38-.45,.56-.98,.56h-8.16v14.46c0,2.42-.56,3.96-4.55,4.31-.03-1.05-.17-1.89-.56-2.38-.38-.53-1.01-.91-2.45-1.12v-.49s2.63,.18,3.22,.18c.52,0,.66-.18,.66-.6v-14.35h-7.53l-.28-.98h9.98l.91-2.66h-5.53l-1.51,1.61-3.61-2.45c.39-.28,.95-.59,1.51-.8,1.15-2.45,2.66-6.48,3.19-8.33l4.9,.84c-.11,.46-.46,.84-1.44,.84-.21,.56-.46,1.19-.7,1.89h5.01l1.64-1.79,3.47,2.87c-.28,.32-.59,.39-1.33,.46l-2.52,7.53h1.3l1.89-2.8Zm-15.44,5.32c7.88,1.89,4.55,7.6,1.68,5.15-.07-1.68-1.02-3.71-2-4.94l.32-.21Zm9.52-6.2l1.51-4.41h-5.43c-.56,1.54-1.26,3.15-1.82,4.41h5.74Zm1.47,13.02c10.29,1.01,7.7,8.96,4.13,6.41-.91-1.85-2.38-4.41-4.38-6.09l.25-.31Zm-.21-1.5c1.09-1.65,2.62-4.62,3.4-6.2l4.17,2.94c-.17,.28-.52,.42-1.29,.25-1.37,.95-4.2,2.45-5.99,3.36l-.28-.35Z"/>
      <path class="cls-2" d="M209.92,40.01c1.23,6.48,5.29,12.92,15.09,16.87l-.07,.38c-2.14,.38-3.4,1.68-3.78,4.06-8.16-4.97-10.78-13.48-11.73-20.48-1.05,8.33-4.55,15.47-17.26,20.48l-.31-.53c9.73-5.88,12.46-12.81,13.23-20.79h-12.64l-.28-1.01h12.99c.25-3.29,.21-6.79,.21-10.43l5.88,.56c-.1,.52-.42,.88-1.26,1.01-.07,3.05-.1,6.02-.35,8.86h7.88l2.59-3.19s2.84,2.13,4.59,3.64c-.11,.38-.49,.56-1.01,.56h-13.76Z"/>
      <path class="cls-2" d="M238.79,48.45c-1.79,1.65-4.59,3.96-8.68,6.9-.11,.49-.46,.84-.84,1.01l-2.52-4.52c.8-.21,2.14-.59,3.71-1.08v-12.18h-3.36l-.28-1.02h3.64v-8.58l5.22,.45c-.07,.49-.31,.84-1.3,.98v7.14h.35l1.65-2.77s1.85,1.93,2.87,3.22c-.11,.38-.46,.56-.91,.56h-3.96v10.96c1.4-.42,2.84-.91,4.31-1.4l.11,.31Zm19.88,8.23c.91,.38,1.09,.8,1.09,1.47,0,1.37-1.19,2.03-5.36,2.03h-2.35c-2.91,0-3.33-.7-3.33-3.01v-6.44h-1.29c-.63,4.27-2.59,8.09-13.16,10.54l-.35-.49c7.49-2.8,8.82-5.95,9.17-9.28-.42,.42-1.89,1.01-3.29,1.01h-.52v-11.69l4.13,1.64h9.21l1.71-1.86,3.68,2.73c-.21,.25-.67,.53-1.3,.63v7.21c-.04,.25-1.93,.91-3.12,.91h-.63v-1.37h-.49v5.67c0,.38,.1,.53,.73,.53h3.01c.32-.04,.45-.11,.63-.42,.31-.45,.73-1.93,1.33-3.71h.38l.11,3.89Zm-21.46-17.5h12.08c.49-1.68,1.05-3.92,1.4-5.53l4.94,1.75c-.14,.38-.6,.63-1.33,.56-1.02,.84-2.45,2.14-3.85,3.22h3.82l1.96-2.56s2.21,1.75,3.57,3.01c-.11,.38-.46,.56-.95,.56h-21.35l-.28-1.01Zm.84-6.55h8.89c-.21-.1-.38-.21-.56-.35-.03-1.37-.73-2.94-1.5-3.85l.28-.21c5.88,.28,5.78,3.43,4.03,4.41h4.31l2-2.7s2.24,1.86,3.61,3.12c-.1,.38-.49,.56-.95,.56h-19.81l-.28-.98Zm3.22,1.33c8.44,.91,4.69,7.07,1.44,4.45-.04-1.5-.88-3.19-1.75-4.24l.31-.21Zm1.93,9.49v2.62h9.77v-2.62h-9.77Zm9.77,6.27v-2.62h-9.77v2.62h9.77Z"/>
      <path class="cls-2" d="M266.55,48.94c2.24-1.19,3.26-2.8,3.75-4.76-1.96-.77-3.47-1.68-3.47-3.43,0-1.44,1.08-2.66,2.77-2.66s2.98,1.26,2.98,3.57c0,2.94-1.44,6.58-5.43,8.4l-.59-1.12Z"/>
      <path class="cls-2" d="M298.29,57.03c.66,.04,1.36,.04,2.1,.04,2.66,0,9.1,0,11.9-.07v.42c-1.3,.28-1.93,1.68-1.93,3.22h-10.05c-6.23,0-9.66-1.37-11.66-6.9-1.79,2.98-4.69,5.71-9.35,7.53l-.28-.35c4.97-3.68,6.72-9.17,7.18-13.69l5.71,1.08c-.14,.49-.45,.8-1.33,.8-.35,1.3-.81,2.56-1.47,3.82,1.19,1.96,2.73,3.01,4.8,3.57v-10.85h-14.14l-.28-.98h26.5l2.24-2.97s2.45,2.03,3.96,3.39c-.11,.39-.49,.56-.98,.56h-12.92v4.83h4.24l2.35-3.15s2.7,2.14,4.27,3.61c-.11,.39-.46,.56-.98,.56h-9.87v5.53Zm-8.65-14.67c0,.42-1.93,1.37-3.71,1.37h-.63v-14.67l4.59,1.82h11.94l1.96-2.17,4.16,3.12c-.21,.28-.7,.63-1.4,.77v9.56c-.04,.21-2.24,.98-3.64,.98h-.73v-1.79h-12.53v1.02Zm0-10.5v3.71h12.53v-3.71h-12.53Zm12.53,8.47v-3.78h-12.53v3.78h12.53Z"/>
      <path class="cls-2" d="M345.4,56.64c1.26,1.19,1.61,1.96,1.09,2.94-.95,1.68-3.68,1.19-5.92,.31-6.62-2.66-9.87-7.53-11.34-13.34h-7.56v9.07c2.63-.73,5.81-1.64,9.03-2.59l.11,.38c-2.28,1.54-6.27,4.13-11.31,6.9-.32,.53-.74,.84-1.09,1.05l-2.35-4.27c1.26-.77,1.47-1.12,1.47-2.07V29.34l4.62,1.75h15.44l1.93-2.1,4.03,3.05c-.21,.28-.7,.59-1.4,.73v7.67c-.04,.25-2.07,1.08-3.47,1.08h-.73v-1.85h-5.5c.04,2.06,.28,4.03,.77,5.92h6.27l2.35-2.94s2.66,1.96,4.27,3.36c-.1,.39-.45,.56-.98,.56h-11.62c1.33,4.24,4.03,7.7,8.75,9.42,.73,.25,1.12,.14,1.44-.38,.52-.74,1.29-2.31,1.85-3.64l.39,.07-.53,4.62Zm-23.73-17.99h16.28v-6.58h-16.28v6.58Zm7.35,6.93c-.39-1.89-.63-3.85-.7-5.92h-6.65v5.92h7.35Z"/>
      <path class="cls-2" d="M361.01,46.14c-.14,.46-.56,.77-1.33,.77-.38,1.16-.8,2.24-1.26,3.26,7.32,2.87,3.89,8.58,.81,5.88-.07-1.51-.7-3.19-1.47-4.59-2.03,3.82-4.76,6.51-8.16,8.3l-.38-.35c3.19-3.29,5.74-8.54,6.69-14.67l5.11,1.4Zm18.76-2.73c-.46,.32-1.3,.38-2.56-.17-2.77,.35-5.99,.63-9.45,.77v16.28c0,.21-1.26,.94-3.43,.94h-.74v-17.08c-4.41,.07-9.03-.07-13.27-.39l-.04-.56c8.58-.59,19.29-2.42,24.92-4.27v-.28h-18.9v1.12c0,.35-1.79,1.16-3.4,1.16h-.53v-11.83l4.27,1.64h18.2l1.85-2,3.92,2.94c-.21,.28-.7,.6-1.44,.74v6.62c-.04,.21-1.54,.77-2.77,.91l3.33,3.47Zm-23.45-5.74h3.78v-5.92h-3.78v5.92Zm7.39-5.92v5.92h3.92v-5.92h-3.92Zm13.79,14.49c-.1,.49-.52,.81-1.33,.81-.35,1.12-.77,2.2-1.23,3.22,1.58,2.42,4.13,4.2,6.9,5.01l-.04,.38c-1.33,.39-2.28,1.51-2.7,3.43-2.38-1.71-3.85-4.06-4.83-7.39-1.47,2.87-3.36,5.18-5.6,6.86l-.42-.31c1.89-3.29,3.4-8.26,3.92-13.3l5.32,1.29Zm-2.27-8.58v-5.92h-3.96v5.92h3.96Z"/>
      <path class="cls-2" d="M400.28,56.36c0,2.59-.49,4.06-4.52,4.38-.07-1.12-.21-2.07-.6-2.63-.39-.56-.98-.94-2.24-1.19v-.49s2.38,.14,2.98,.14c.49,0,.6-.17,.6-.59v-3.95c-1.44,.77-3.22,1.71-5.29,2.76-.17,.46-.49,.74-.84,.84l-.88-2.03c-.49,2.7-1.79,5.46-5.01,7.46l-.31-.31c1.96-3.26,2-7.42,2-11.31v-7.95l4.24,1.54h5.78l1.65-1.86,3.61,2.7c-.17,.25-.6,.53-1.16,.63v11.87Zm14.74-19.01c-.56,5.43-1.68,10.43-4.27,14.63,1.89,2.34,4.24,4.2,7.14,5.67l-.14,.35c-1.93,.38-3.08,1.47-3.61,3.25-2.28-1.71-4.1-3.88-5.46-6.48-2.2,2.56-5.08,4.73-8.96,6.37l-.28-.32c3.61-2.59,6.09-5.74,7.81-9.17-1.12-2.91-1.85-6.23-2.35-9.87-.91,1.68-2.03,3.19-3.26,4.48l-.46-.28c.67-1.71,1.26-3.71,1.79-5.88-.14,.07-.31,.1-.52,.1h-17.85l-.28-1.01h3.92v-4.9h-2.84l-.28-1.02h3.12v-4.83l4.66,.42c-.03,.42-.28,.7-1.02,.8v3.61h2.8v-4.83l4.76,.42c-.07,.42-.31,.74-1.05,.84v3.25l1.37-1.92s1.82,1.58,2.84,2.7c-.07,.38-.42,.56-.91,.56h-3.29v4.9h.35l1.64-2.35s1.65,1.47,2.73,2.56c.77-3.43,1.37-7.25,1.58-10.89l5.71,1.26c-.14,.46-.52,.77-1.33,.8-.46,2-1.02,3.92-1.68,5.74h4.13l2.21-2.84s2.45,1.96,3.92,3.29c-.11,.39-.49,.56-.98,.56h-1.64Zm-25.2,12.08c0,.84-.04,1.79-.1,2.77,1.54-.28,4.1-.74,6.79-1.26v-6.9h-6.69v2.59c7.28-.81,6.62,3.99,3.99,3.39-.67-.59-2.17-1.54-3.99-2.31v1.71Zm2.06-10.22h2.8v-4.9h-2.8v4.9Zm15.16-1.86c-.46,1.12-.94,2.21-1.47,3.25,.66,3.01,1.65,5.71,2.94,8.09,1.26-3.54,1.85-7.39,2.07-11.34h-3.54Z"/>
      <path class="cls-2" d="M447.99,38.3s2.7,1.96,4.27,3.36c-.07,.38-.49,.56-.98,.56h-31.47l-.28-.98h5.81v-10.15l5.08,.45c-.07,.42-.31,.74-1.16,.88v8.82h4.55v-12.78l5.46,.45c-.07,.49-.35,.84-1.26,.98v4.8h4.38l2.38-2.98s2.7,2,4.38,3.4c-.11,.38-.49,.56-1.02,.56h-10.12v5.57h7.6l2.38-2.94Zm-27.93,22.54c10.12-2.31,18.55-5.71,24.08-16.24l5.04,2.8c-.24,.42-.73,.53-1.65,.35-7.32,10.22-15.86,12.71-27.37,13.62l-.11-.53Zm12.11-14.46c-.21,.31-.49,.52-1.29,.42-2.24,2.8-5.99,6.02-10.33,7.88l-.28-.42c3.01-2.8,5.71-7.32,6.9-10.5l5.01,2.63Zm5.78,6.09c0,.49-2.07,1.54-3.71,1.54h-.42v-11.1l5.39,.38c-.03,.53-.28,.84-1.26,1.02v8.16Z"/>
      <path class="cls-2" d="M466.43,46.14c-.25,.17-.56,.21-1.12,.25-.84,2.49-2.45,5.29-4.69,7.42,.17,.07,.35,.17,.56,.31,2.77,2.24,6.97,2.77,14.63,2.73,4.1,0,7.46-.04,11.59-.25v.42c-1.65,.35-2.63,1.82-2.84,3.43h-10.15c-7.56,0-10.68-1.4-13.69-5.08-.49-.63-.88-.56-1.19,.07-.59,1.05-1.5,2.94-2.27,4.73,.1,.32-.04,.53-.28,.7l-2.8-3.99c1.65-.84,4.03-2.56,5.15-3.08,1.12-2.24,2.03-5.18,2.38-7.67h-2.1l-1.23,1.08-3.01-2.17c.35-.25,.91-.53,1.44-.7,1.12-1.58,2.59-3.92,3.57-5.64h-5.25l-.31-1.02h5.67l1.61-1.64,3.29,2.97c-.32,.32-.94,.49-1.72,.56-.94,1.5-2.48,3.89-3.64,5.57h1.47l1.85-1.86,3.08,2.45v-7.95l3.82,1.54h2.7v-2.49h-7.28l-.28-.98h7.56v-3.29l5.01,.49c-.1,.49-.39,.84-1.29,.98v1.82h2.83l1.93-2.35,.17,.14c.07-.63,.14-1.29,.21-1.89h-13.72c0,1.86-.81,3.15-1.89,3.64-1.12,.49-2.59,.1-2.94-1.16-.28-1.19,.49-2.07,1.58-2.49,1.05-.45,2.14-1.72,2-3.08h.53c.31,.73,.49,1.43,.59,2.1h13.58l1.93-2,3.47,3.29c-.28,.28-.63,.35-1.33,.42-.7,.63-1.75,1.4-2.73,2.06,.7,.53,1.54,1.19,2.21,1.72-.11,.38-.45,.56-.95,.56h-7.46v2.49h2.59l1.75-1.89,3.68,2.8c-.25,.25-.73,.56-1.44,.7v7.7c0,.11-.28,.28-.63,.46,.49,.39,2.42,1.82,3.64,2.91-.07,.38-.46,.56-.98,.56h-8.61v2.94c0,.35-1.61,1.12-3.01,1.12h-.7v-4.06h-7.81l-.28-1.01h8.09v-3.01h-2.91v.59c0,.39-1.58,1.16-3.08,1.16h-.52v-4.16Zm-9.94-17.43c9.07,1.58,5.71,8.19,2.31,5.6-.21-1.86-1.44-4.03-2.63-5.39l.32-.21Zm13.55,11.62v3.12h2.91v-3.12h-2.91Zm2.91,7.21v-3.12h-2.91v3.12h2.91Zm3.71-7.21v3.12h2.94v-3.12h-2.94Zm2.94,4.09h-2.94v3.12h2.94v-3.12Zm2.7,4.83c-.63,.25-1.44,.46-2.1,.46h-.6v-1.16h-2.94v3.01h3.75l1.89-2.31Z"/>
      <path class="cls-2" d="M507.49,55.14c-3.29,1.29-8.05,2.94-15.12,5.04-.25,.46-.63,.74-1.05,.81l-1.75-4.83c1.5-.07,4.03-.25,7.07-.49v-2.94h-6.34l-.28-.98h6.62v-3.22h-2.59v.56c0,.28-1.12,.88-2.87,.88h-.63v-12.6l3.89,1.54h2.21v-2.55h-6.9l-.28-.98h7.18v-2.66c-2.38,.14-4.83,.25-7.07,.25l-.07-.56c4.9-.91,11.27-2.7,14.53-4.03l3.54,3.61c-.38,.35-1.16,.32-2.17-.1-1.47,.21-3.25,.38-5.18,.56v2.94h2.62l1.96-2.45s2.24,1.68,3.61,2.91c-.07,.38-.42,.53-.95,.53h-7.25v2.55h2.56l1.72-2,3.4,2.59c-.21,.28-.52,.49-1.29,.63v8.37c0,.17-1.23,.84-3.05,.84h-.67v-.81h-2.66v3.22h2.03l1.86-2.31s2.1,1.61,3.43,2.73c-.1,.38-.45,.56-.94,.56h-6.37v2.63c2.27-.21,4.73-.42,7.21-.67l.07,.46Zm-13.44-15.26v3.33h2.59v-3.33h-2.59Zm2.59,7.63v-3.29h-2.59v3.29h2.59Zm3.57-7.63v3.33h2.66v-3.33h-2.66Zm2.66,7.63v-3.29h-2.66v3.29h2.66Zm19.71-9.24c-.25,.32-.73,.56-1.51,.67-.21,13.93-.63,18.55-2.42,20.41-1.08,1.19-2.59,1.65-4.38,1.65,.04-1.26-.07-2.14-.49-2.7-.46-.6-1.37-1.02-2.56-1.33v-.49c1.05,.1,2.63,.21,3.33,.21,.52,0,.84-.14,1.15-.42,1.09-1.05,1.4-6.37,1.61-17.96h-3.19c-.21,10.47-1.44,17.99-10.5,23.07l-.38-.53c6.09-5.6,6.97-12.78,7.07-22.54h-3.08l-.31-1.02h3.39c0-2.62-.03-5.39-.03-8.4l5.22,.49c-.1,.52-.46,.88-1.29,.98-.04,2.45-.04,4.76-.07,6.93h2.8l2.07-2.1,3.57,3.08Z"/>
      <path class="cls-2" d="M540.28,36.09c-.24,.31-.77,.59-1.47,.73v20.86c-.04,.28-1.89,1.16-3.26,1.16h-.6v-2.77h-5.32v2.59c0,.45-1.47,1.33-3.15,1.33h-.63v-26.46l3.92,1.65h.21c.25-1.93,.56-4.66,.74-6.62l5.67,1.37c-.14,.59-.63,.84-1.44,.84-.91,1.23-2.28,3.05-3.4,4.41h3.05l1.86-2.1,3.81,3.01Zm-10.64,.1v8.68h5.32v-8.68h-5.32Zm5.32,18.9v-9.21h-5.32v9.21h5.32Zm22.4-19.01c-.28,.31-.73,.56-1.54,.67-.25,14.11-.74,20.51-2.66,22.58-1.26,1.33-2.8,1.89-5.11,1.89,0-1.33-.17-2.31-.77-2.87-.63-.67-2-1.22-3.71-1.54l.04-.49c1.68,.14,4.1,.32,5.01,.32,.63,0,.95-.14,1.3-.46,1.29-1.19,1.65-8.16,1.89-20.09h-6.51c-1.68,2.97-3.68,5.46-5.92,7.35l-.46-.28c1.92-3.57,3.82-9.28,4.73-14.63l5.53,1.61c-.14,.46-.56,.7-1.37,.7-.59,1.5-1.23,2.91-1.96,4.24h5.57l2.21-2.28,3.75,3.29Zm-15.47,6.12c10.22,3.01,6.41,10.57,2.7,7.46-.17-2.49-1.58-5.32-2.98-7.25l.28-.21Z"/>
      <path class="cls-2" d="M576.26,37.39c-.95,.31-1.93,.59-3.01,.91-.46,4.55-1.33,8.89-3.19,12.71,6.58,4.17,3.12,7.88,.42,6.2-.59-.98-1.4-2-2.35-2.97-2,2.8-4.73,5.25-8.54,7.11l-.38-.35c3.15-2.45,5.39-5.46,6.9-8.75-1.89-1.72-4.06-3.29-5.99-4.45,.49-1.68,1.09-4.09,1.61-6.69l-.8,.17c-.25,.46-.63,.7-1.05,.77l-.88-4.24c.88,0,2.03,0,3.43-.04,.7-3.71,1.3-7.35,1.51-9.42l5.08,.84c-.1,.39-.28,.77-1.36,.88-.35,1.86-.88,4.59-1.51,7.53,.98-.04,2.07-.11,3.15-.17,.04-1.3,.07-2.59,.04-3.89l5.5,.95c-.14,.56-.56,.88-1.37,.95-.04,.56-.07,1.12-.1,1.71,.98-.11,1.89-.17,2.87-.28l.04,.53Zm-9.07,12.15c1.12-3.26,1.71-6.69,1.96-10.12-1.12,.28-2.35,.56-3.64,.88-.6,2.73-1.3,5.5-1.96,7.77,1.4,.49,2.59,.98,3.64,1.47Zm21.46-8.3s2.42,1.96,3.85,3.29c-.1,.38-.46,.56-.95,.56h-7.49v11.45c0,2.8-.56,4.38-5.11,4.76-.1-1.26-.28-2.21-.74-2.8-.52-.63-1.29-1.09-2.98-1.37v-.49s3.43,.25,4.17,.25c.52,0,.7-.17,.7-.6v-11.2h-6.55l-.28-.98h6.83v-5.85l2.8,.28c.91-1.75,1.93-4.13,2.59-5.78h-10.85l-.31-.98h11.13l2.24-2.2,3.71,3.39c-.31,.28-.7,.39-1.44,.42-1.54,1.47-3.89,3.67-6.02,5.21l1.37,.14c-.1,.49-.42,.8-1.26,.91v4.45h2.49l2.1-2.87Z"/>
      <path class="cls-2" d="M622.57,40.5s2.94,2.2,4.62,3.71c-.11,.39-.49,.56-1.01,.56h-17.22l4.62,1.82c-.17,.38-.6,.67-1.33,.63-2.41,2.7-7.07,6.23-10.99,8.51,4.31-.14,10.78-.45,17.71-.88-1.29-2.07-2.84-4.03-4.38-5.53l.31-.25c14.77,4.45,11.52,14.84,6.62,11.34-.38-1.47-1.09-3.05-1.96-4.59-4.41,1.26-10.96,2.8-19.22,4.45-.25,.31-.52,.52-.84,.67l-2.17-5.18s1.02-.17,1.43-.42c3.08-1.79,7.39-7.21,9.03-10.57h-12.71l-.31-1.02h13.65v-7.11h-10.89l-.31-.98h11.2v-7.25l5.74,.49c-.07,.49-.35,.84-1.3,.98v5.78h5.15l2.49-3.15s2.84,2.1,4.52,3.57c-.11,.38-.49,.56-1.02,.56h-11.13v7.11h7.18l2.52-3.25Z"/>
      <path class="cls-2" d="M662.4,36.41c-.28,.32-.63,.38-1.37,.42-1.16,.95-3.12,2.24-4.62,2.91l-.31-.21c.28-.91,.63-2.31,.84-3.46h-20.93v7.11c0,5.64-.31,13.23-6.41,18.24l-.38-.28c2.66-5.32,2.8-12.04,2.8-17.96v-9.7l4.62,1.61h6.69v-6.65l5.36,.42c-.07,.49-.35,.84-1.23,1.01v2.07h4.76l2.24-2.76s2.52,1.89,4.06,3.22c-.11,.38-.49,.56-.98,.56h-10.08v2.13h9.31l2.03-2.07,3.61,3.4Zm-13.9,11.94c-.25,.28-.56,.38-1.3,.46-.91,2.7-2.27,5.08-4.27,7.04,2.07,1.26,4.8,1.54,8.44,1.54,2.45,0,8.19,0,10.78-.04v.42c-1.26,.25-1.86,1.58-1.89,3.04h-9.03c-4.62,0-7.84-.77-10.05-3.46-2.1,1.61-4.83,2.83-8.26,3.67l-.25-.52c3.15-1.26,5.57-2.94,7.32-5.01-.46-1.01-.91-2.17-1.3-3.5-.91,1.29-1.96,2.52-3.19,3.54l-.42-.28c1.79-2.84,3.01-7.56,3.43-11.52l4.62,1.01c-.14,.35-.42,.56-1.26,.49-.21,.7-.45,1.4-.74,2.1h2.31l1.85-1.85,3.19,2.8v-2.87l3.95,1.5h1.26l1.72-1.82,3.12,2.63c-.25,.25-.6,.42-1.16,.52v4.27c0,.35,.04,.42,.31,.42h.7c.14-.03,.32-.03,.46-.21,.21-.25,.6-1.05,.91-1.96h.39l.11,2c.77,.38,.94,.7,.94,1.26,0,1.26-1.12,1.71-3.57,1.71h-1.16c-2.24,0-2.41-.74-2.41-2.62v-5.18h-2.14v.73c0,2.07-.66,5.64-5.74,7.6l-.31-.42c2.42-2.24,2.63-5,2.63-7.18v-.31Zm-.39-11.48c-.04,.42-.35,.74-.98,.84v1.58l3.19-.28,1.61-2.31s2.14,1.37,3.43,2.31c-.03,.38-.38,.63-.84,.67l-7.39,.67v1.05c0,.45,.1,.59,1.16,.59h3.47c1.19,0,2.48-.04,2.98-.04,.35-.03,.84-.07,1.09-.1,.28-.07,.74-.14,1.05-.21h.31l.21,.04c1.09,.42,1.4,.7,1.4,1.37,0,1.54-1.44,1.85-7.46,1.85h-3.82c-3.57,0-4.2-.67-4.2-3.01v-1.19l-5.95,.53-.35-.98,6.3-.59v-3.19l4.8,.42Zm-7.42,11.48c-.42,.98-.94,1.92-1.47,2.83,.49,1.23,1.08,2.21,1.75,3.01,1.23-1.75,2.1-3.68,2.62-5.85h-2.91Z"/>
      <path class="cls-2" d="M35.23,108.89v3.71H18.43v-2.73c2.03-2.21,4.06-4.34,5.78-6.09,3.95-4.13,5.53-6.69,5.53-10.12,0-3.22-1.68-5.32-4.52-5.32-.53,0-1.09,.07-1.65,.21l-.84,3.22c-.39,2.07-1.33,2.66-2.35,2.66-.95,0-1.68-.53-2.07-1.33,.42-3.92,4.1-6.02,8.4-6.02,5.29,0,7.7,2.8,7.7,6.76,0,3.46-2.52,6.41-8.82,11.27-1.12,.88-2.77,2.31-4.48,3.78h14.11Z"/>
      <path class="cls-2" d="M47.8,84.84h2.56l-10.43,34.02h-2.63l10.5-34.02Z"/>
      <path class="cls-2" d="M84.23,86.35c-.25,.32-.74,.6-1.44,.77v27.06c-.03,.32-1.96,1.33-3.5,1.33h-.63v-2.66h-20.93v1.33c0,.53-1.61,1.54-3.36,1.54h-.7v-32.1l4.41,1.82h20.23l2-2.24,3.92,3.15Zm-5.57,25.52v-25.45h-20.93v25.45h5.71l-1.79-2.7c1.08-.7,1.26-.98,1.26-1.54v-1.64c-1.47,.63-3.05,1.15-4.69,1.61l-.28-.59c2.8-1.23,5.32-2.98,7-4.87h-1.09v.14c0,.28-1.54,.95-2.87,.95h-.49v-7.74l3.5,1.4h8.3l1.54-1.58,3.22,2.38c-.18,.21-.53,.42-1.02,.52v3.75c0,.07-.14,.14-.32,.24l2.28,2.03c-.21,.28-.52,.35-1.12,.11-.73,.31-1.82,.7-2.91,1.05,5.67,2.87,3.78,6.51,1.47,5.25-1.02-1.65-3.85-4.45-7.49-6.69l.25-.49c1.75,.38,3.22,.84,4.45,1.33,.63-.7,1.33-1.5,1.93-2.17-.49,.1-.98,.21-1.4,.21h-.59v-.7h-3.57c-.8,.8-1.75,1.5-2.8,2.17v1.89h-.04v1.75c1.33-.39,2.87-.81,4.38-1.26l.1,.46c-1.26,.84-3.89,2.59-6.58,4.27-.14,.21-.32,.35-.46,.46h15.05Zm-3.4-20.3s2.03,1.54,3.26,2.62c-.11,.38-.45,.56-.95,.56h-19.11l-.28-.98h8.12v-2.56h-6.3l-.28-.98h6.58v-3.08l4.66,.42c-.04,.42-.28,.7-.98,.8v1.86h2.38l1.72-2.03s1.96,1.4,3.15,2.45c-.07,.38-.42,.56-.91,.56h-6.34v2.56h3.5l1.79-2.21Zm-2.7,6.34h-8.72v3.25h8.72v-3.25Z"/>
      <path class="cls-2" d="M118.53,92.61c-.25,.25-.74,.56-1.43,.7v17.57c0,2.84-.7,4.48-5.67,4.94-.14-1.33-.38-2.31-1.05-2.94-.67-.66-1.58-1.19-3.61-1.47v-.49s4.27,.28,5.36,.28c.63,0,.84-.28,.84-.77v-7.25c-1.15,.63-2.1,1.75-2.41,2.94-3.47-2.56-5.57-5.99-6.86-10.54-1.43,3.99-4.13,7.95-9.98,10.68l-.1-.1v8.09c0,.49-1.71,1.47-3.43,1.47h-.67v-25.83l4.41,1.75h8.89c-.31-1.79-.52-3.75-.7-5.81h-5.78l-.31-1.02h5.22l1.3-1.96,3.5,2.49c-.45,.52-1.58,.8-2.98,.91,.28,1.89,.7,3.71,1.3,5.39h8.26l1.89-2.14,4.03,3.12Zm-24.92,12.95c4.41-3.88,6.23-8.82,6.93-12.92h-6.93v12.92Zm11.1-12.92c1.61,4.13,4.24,7.49,8.26,9.59v-9.59h-8.26Z"/>
      <path class="cls-2" d="M134.04,87.4s2,1.58,3.22,2.73c-.07,.39-.46,.56-.94,.56h-14.14l-.28-1.02h10.4l1.75-2.28Zm7.63,.77c0,2.87-.63,7.6-6.51,10.33,.21,.21,.45,.42,.66,.63-.1,.38-.46,.56-.95,.56h-11.27l-.28-1.02h7.7l1.68-2.13s.98,.77,1.96,1.58c2.94-3.05,3.33-6.86,3.33-9.94v-4.34l4.31,1.58h2.98l1.85-2,3.4,2.8c-.21,.25-.63,.42-1.26,.52v5.78c0,.35,.1,.49,.56,.49h1.82c.21,0,.56-.04,.73-.04,.21-.04,.56-.11,.81-.14h.31l.14,.04c.84,.42,1.16,.77,1.16,1.47,0,1.4-1.19,2.17-4.55,2.17h-1.68c-2.62,0-2.94-.74-2.94-3.01v-7.11h-3.96v1.79Zm-10.64,5.99l1.68-2.21s1.89,1.54,3.08,2.66c-.1,.39-.45,.56-.94,.56h-11.2l-.28-1.02h7.67Zm.28,19.81v-1.89h-3.96v2.1c0,.35-1.54,1.16-3.05,1.16h-.53v-13.58l3.71,1.51h3.5l1.68-1.79,3.57,2.66c-.21,.25-.66,.52-1.33,.67v8.12c-.04,.28-1.79,1.05-3.01,1.05h-.6Zm-5.67-30.59c9.24,.46,5.92,7.46,2.2,5.01-.25-1.75-1.4-3.64-2.45-4.79l.25-.21Zm5.67,27.72v-6.86h-3.96v6.86h3.96Zm21.46-10.92c-.25,.35-.63,.46-1.47,.53-1.23,2.98-2.91,5.57-5.15,7.81,2.56,1.44,5.57,2.38,8.75,3.01l-.04,.38c-1.61,.35-2.8,1.58-3.33,3.47-3.15-1.19-5.81-2.63-7.95-4.69-2.98,2.24-6.83,3.88-11.55,4.97l-.21-.46c4.1-1.61,7.46-3.78,10.01-6.51-1.68-2.24-2.94-5.04-3.75-8.65h-1.68l-.32-1.01h10.78l2.24-2.14,3.64,3.29Zm-14.04-.14c1.05,2.83,2.66,5.01,4.76,6.69,1.54-2.03,2.7-4.24,3.5-6.69h-8.26Z"/>
      <path class="cls-2" d="M185.91,110.47s2.52,1.85,4.13,3.18c-.1,.39-.49,.56-.98,.56h-31.54l-.32-1.02h5.95v-17.29l4.41,1.68h2.98c.07-.8,.14-1.75,.21-2.7h-13.13l-.28-.98h13.51c.07-.98,.14-1.92,.17-2.73l5.71,.7c-.1,.6-.56,.91-1.37,1.02l-.42,1.01h8.16l1.16-1.4c-.25,.04-.49,.07-.7,.07h-.7v-1.54h-18.52v.84c0,.35-1.79,1.19-3.36,1.19h-.56v-9.7l4.24,1.65h17.85l1.85-1.96,3.85,2.91c-.18,.25-.67,.56-1.37,.7v4.9c0,.07-.25,.25-.63,.38,.88,.63,2.14,1.58,3.08,2.38-.1,.38-.45,.56-.95,.56h-13.79c-.42,.91-.84,1.89-1.19,2.7h5.78l1.79-2.31,4.38,3.01c-.25,.38-.66,.59-1.58,.74v14.04l2.17-2.59Zm-21.56-20.44h3.64v-3.99h-3.64v3.99Zm2.87,8.58v2.98h12.25v-2.98h-12.25Zm12.25,3.96h-12.25v2.8h12.25v-2.8Zm-12.25,3.82v2.76h12.25v-2.76h-12.25Zm0,6.83h12.25v-3.04h-12.25v3.04Zm4.38-27.16v3.99h3.82v-3.99h-3.82Zm11.27,3.99v-3.99h-3.81v3.99h3.81Z"/>
      <path class="cls-2" d="M219.96,85.86s2.73,2.03,4.38,3.47c-.1,.38-.49,.56-.98,.56h-16.77c-.81,1.51-1.72,2.98-2.8,4.41l1.16,.42h9.7l1.93-2.28,4.2,3.22c-.25,.35-.77,.7-1.58,.84v14.32c0,2.77-.63,4.38-5.43,4.83-.14-1.37-.31-2.31-.88-2.97-.56-.63-1.33-1.08-3.12-1.4v-.46s3.71,.21,4.48,.21c.59,0,.77-.25,.77-.7v-3.99h-11.06c-.6,3.4-2.17,6.9-6.37,9.42l-.28-.32c2.62-3.96,2.77-9.03,2.77-13.72v-3.12c-2.17,2.14-4.69,4.03-7.67,5.5l-.28-.35c4.45-3.64,7.77-8.79,9.94-13.86h-9.21l-.32-1.01h9.94c.84-2.14,1.5-4.16,1.96-6.13l5.71,1.65c-.14,.42-.45,.67-1.37,.67-.49,1.26-1.05,2.52-1.68,3.82h10.4l2.45-3.01Zm-4.94,19.46v-4.34h-10.75v.74c0,1.15-.04,2.34-.18,3.6h10.92Zm-10.75-9.63v4.27h10.75v-4.27h-10.75Z"/>
      <path class="cls-2" d="M258.53,110.78c1.09,.46,1.33,.91,1.33,1.71,0,1.65-1.44,2.42-7.32,2.42h-3.61c-3.54,0-4.34-.74-4.34-3.5v-10.61h-2.56c-.95,7.88-4.83,12.71-14.88,14.98l-.18-.46c7.6-3.26,10.12-7.84,10.61-14.53h-2.49v1.16c-.04,.28-1.23,1.29-3.4,1.29h-.59v-18.38l4.06,1.29c1.58-1.16,3.22-2.56,4.1-3.5l4.1,3.36c-.42,.35-1.12,.38-2.14,.07-1.54,.46-3.89,.95-6.13,1.33v5.57h2.1l1.79-2.42s2.1,1.65,3.33,2.84c-.07,.38-.46,.56-.95,.56h-6.27v5.81h16.21v-5.81h-6.09l-.32-.98h6.41v-5.81h-6.62l-.32-1.01h6.58l1.93-2.13,3.96,3.08c-.21,.28-.66,.63-1.4,.77v13.97c-.03,.28-2.06,1.05-3.47,1.05h-.66v-2.1h-2.73v9.63c0,.52,.17,.7,1.26,.7h3.12c1.09,0,2.1,0,2.56-.04,.49-.04,.66-.14,.88-.53,.38-.63,.94-2.34,1.64-4.52h.39l.1,4.73Z"/>
      <path class="cls-2" d="M290.56,110.57s2.49,1.96,3.89,3.33c-.07,.38-.42,.56-.91,.56h-31.05l-.28-.98h13.86v-3.43h-10.22l-.28-1.01h10.5v-3.43h-5.01v.6c0,.38-1.85,1.26-3.57,1.26h-.56v-12.64l4.38,1.72h13.86l1.92-2.1,4.1,3.08c-.25,.28-.74,.56-1.44,.7v7.6c-.04,.25-2.17,.98-3.5,.98h-.74v-1.19h-5.18v3.43h5.32l2.03-2.31s2.28,1.58,3.64,2.77c-.07,.38-.42,.56-.91,.56h-10.08v3.43h8.05l2.17-2.91Zm-28.25-17.33h10.89c-.35-.1-.73-.31-1.09-.63-.04-1.54-.66-3.19-1.33-4.31h-6.23l-.28-1.01h14.21c-.46-.07-.94-.25-1.4-.59-.07-1.4-.91-2.98-1.79-3.82l.24-.21c7.04,.17,5.99,4.3,3.54,4.62h7.42l2.17-2.73s2.45,1.86,3.99,3.19c-.1,.38-.49,.56-.98,.56h-8.12l4.06,.95c-.14,.42-.49,.7-1.3,.7-1.02,.98-2.45,2.24-3.85,3.29h5.71l2.21-2.87s2.49,1.93,3.96,3.33c-.1,.39-.46,.56-.95,.56h-30.84l-.24-1.02Zm8.75,4.31v3.08h5.01v-3.08h-5.01Zm5.01,7.07v-3.01h-5.01v3.01h5.01Zm-3.82-16.31c4.94,1.26,4.2,4.34,2.27,4.94h6.48c.52-1.47,1.05-3.43,1.33-4.94h-10.08Zm8.09,9.24v3.08h5.18v-3.08h-5.18Zm5.18,7.07v-3.01h-5.18v3.01h5.18Z"/>
      <path class="cls-2" d="M308.02,100.39c-.21,.31-.6,.38-1.33,.45-.74,2.42-2.28,5.08-4.34,7.25,.28,.04,.49,.14,.8,.35,2.66,2.13,7,2.55,14.95,2.55,4.2-.04,7.56-.04,11.73-.25v.46c-1.61,.32-2.59,1.82-2.8,3.36h-10.4c-7.98,0-11.03-1.19-13.93-4.83-.52-.67-.88-.56-1.19,.07-.49,1.02-1.16,2.73-1.79,4.45,.11,.31,0,.52-.25,.7l-2.84-3.92c1.3-.7,3.12-2,4.27-2.62,1.12-2.28,1.96-5.29,2.28-7.81h-1.54l-1.16,1.12-2.91-2.07c.31-.21,.77-.46,1.26-.63,.91-1.65,2.03-4.1,2.77-5.78h-4.03l-.31-1.01h4.31l1.58-1.61,3.19,2.87c-.31,.32-.95,.49-1.68,.56-.7,1.5-1.86,3.82-2.73,5.53h1.05l1.82-1.82,3.22,2.63Zm-9.38-16.94c9.03,1.54,5.57,8.26,2.14,5.64-.18-1.92-1.33-4.1-2.45-5.43l.32-.21Zm7.32,6.34l-.28-.98h7.98l1.5-2.21s1.72,1.5,2.73,2.59c.59-1.93,.98-4.1,1.19-6.23l4.66,1.16c-.14,.38-.53,.7-1.3,.74-.42,1.16-.91,2.28-1.47,3.29h3.29l1.79-2.38s2.07,1.64,3.26,2.8c-.1,.39-.45,.56-.88,.56h-8.02c-.7,1.08-1.47,2.03-2.27,2.87h5.6l1.75-1.79,3.19,2.8c-.25,.28-.66,.31-1.33,.38-1.05,.77-2.48,1.75-3.89,2.45l1.86,.17c-.07,.49-.42,.77-1.19,.88v2.87h.39l1.61-2.24s1.82,1.58,2.84,2.7c-.07,.39-.42,.56-.88,.56h-3.96v5.43c0,2.38-.46,3.6-3.99,3.92-.07-.91-.14-1.68-.53-2.17-.38-.49-.91-.81-2.06-1.02v-.52s2.28,.17,2.77,.17c.46,0,.56-.14,.56-.53v-5.29h-3.85l-.28-1.02h4.13v-4.17l1.47,.14c.52-.8,1.05-1.89,1.4-2.76h-5.32l-.31-.95c-.31,.31-.63,.59-.98,.88l-.53-.28c.46-.95,.88-2.03,1.26-3.19-.17,.25-.45,.35-.84,.35h-5.32c-.04,1.4-.07,2.8-.14,4.2h1.44l1.71-1.71,3.15,2.59c-.25,.28-.66,.49-1.37,.6-.17,8.58-.49,12.18-1.92,13.48-.77,.66-1.72,.91-2.77,.95,0-.67-.14-1.47-.46-1.86-.31-.42-.98-.84-1.82-1.05v-.52c.74,.07,1.82,.1,2.28,.1,.25,0,.39-.04,.53-.25,.59-.77,.84-3.99,1.01-11.31h-1.86c-.45,5.53-1.82,10.5-5.5,14.46l-.35-.38c2.84-5.67,2.91-12.43,2.63-19.29h-2.31Zm2.77-6.69c7.63,1.71,4.03,7.11,1.19,4.62-.1-1.54-.88-3.29-1.54-4.45l.35-.17Z"/>
      <path class="cls-2" d="M364.02,111.45c1.02,2.17,1.23,3.4,.6,3.85-1.72,1.33-4.41-.38-5.6-1.96-.98-1.19-1.82-2.52-2.52-3.96-2,2.21-4.41,4.13-7.25,5.64l-.32-.38c2.59-2.07,4.76-4.76,6.51-7.67-1.37-3.54-2.1-7.63-2.45-12.08l-2.49,.35-.39-.95,2.77-.39c-.07-1.15-.14-2.27-.18-3.46-.24,.14-.59,.17-1.15,.25-.84,.77-2.31,1.75-3.47,2.28l-.28-.18c-.14,.21-.38,.32-.7,.35l-4.48,.56v.7c0,.39,.07,.49,.77,.49h1.79c.7,0,1.36,0,1.68-.04,.21,0,.49,0,.66-.04,.21-.03,.52-.1,.73-.14h.31l.14,.04c.81,.28,1.12,.53,1.12,1.09,0,.66-.35,1.08-1.37,1.33,.45,.35,1.89,1.44,2.8,2.28-.07,.38-.42,.56-.91,.56h-12.92l-.28-.98h9.56l1.44-1.82c-.77,.14-1.82,.21-3.29,.21h-2.27c-2.45,0-2.8-.59-2.8-2.38v-.91l-2.42,.31-.38-.91,2.8-.35v-3.01l3.82,.35c-.04,.46-.39,.73-.98,.84v1.47l1.47-.17,1.12-1.79s1.54,.91,2.56,1.65c.18-.7,.35-1.61,.45-2.41h-11.34v6.12c0,5.53-.14,13.79-4.87,19.32l-.42-.25c1.85-5.88,1.82-13.06,1.82-19.04v-8.68l4.06,1.54h2.45v-6.23l5.04,.46c-.03,.46-.31,.77-1.15,.91v2.1h2.14l1.92-2.38s2.14,1.61,3.43,2.8c-.07,.39-.42,.56-.91,.56h-.63l2.94,2.83c-.11-2.34-.14-4.76-.14-7.25l5.18,.56c-.03,.46-.35,.88-1.26,1.02-.07,3.01-.07,6.02,.1,8.89l2.27-.32,1.72-2.84s2.56,1.4,4.17,2.42c-.04,.39-.39,.63-.84,.7l-7.25,1.05c.17,2.8,.56,5.46,1.19,7.84,.98-2.34,1.72-4.72,2.21-6.96l4.8,1.57c-.14,.42-.46,.67-1.37,.63-.98,2.76-2.42,5.74-4.34,8.54,.63,1.4,1.44,2.62,2.38,3.67,.42,.56,.63,.56,.98-.07,.49-.91,1.33-2.7,1.93-4.24l.35,.11-.77,5.99Zm-12.6-.91c-2.84,1.16-6.86,2.59-12.64,4.31-.18,.46-.49,.74-.88,.84l-1.68-3.85c1.05-.07,2.56-.21,4.41-.42-.25-.1-.52-.28-.77-.52,.14-1.05-.17-2.35-.6-3.19-.28,.04-.56,.07-.88,.07h-.56v-7.21l3.36,1.37h5.36l1.44-1.65,3.01,2.2c-.21,.28-.53,.46-1.26,.59v3.47c0,.14-1.02,.7-2.56,.7h-.53v-.91h-5.81v.67c0,.11-.24,.32-.7,.49,3.22,1.16,3.08,3.01,2.03,3.75l2.49-.31c.18-1.16,.28-2.66,.35-3.78l4.24,.91c-.11,.39-.49,.74-1.26,.74-.46,.63-1.12,1.33-1.86,1.96,1.72-.25,3.5-.49,5.25-.7l.04,.49Zm-10.57-7.63v2.41h5.81v-2.41h-5.81Zm7.14-13.83l1.71-1.79h-5.88v1.79h4.17Zm9.73-4.52c8.47,1.26,5.29,7.63,2.1,5.15-.14-1.75-1.26-3.71-2.42-4.9l.32-.25Z"/>
      <path class="cls-2" d="M396.57,110.82c1.96,.35,2.42,.91,2.42,1.61,0,1.92-2.35,2.28-14.14,2.28h-7.74c-5.67,0-8.19-.6-8.19-4.59v-23.77h-1.23l-.31-.98h24.75l2.1-2.8s2.35,1.92,3.78,3.22c-.11,.38-.49,.56-.98,.56h-24.33v23.24c0,1.58,.95,2.07,3.99,2.07h8.47c3.01,0,5.71-.07,6.76-.17,.66-.04,1.5-.14,2.06-.21,.49-.07,1.23-.25,2-.49h.38l.21,.04Zm-15.65-.95v-1.71h-2.91v1.47c0,.28-1.47,1.05-2.87,1.05h-.49v-11.87l3.5,1.4h2.45l1.58-1.64,3.29,2.49c-.17,.21-.59,.49-1.15,.56v7.35c-.04,.25-1.72,.91-2.84,.91h-.56Zm7.91-13.55h-6.97v.98c0,.35-1.75,1.19-3.33,1.19h-.56v-10.85l4.06,1.58h6.48l1.79-1.92,3.75,2.83c-.21,.25-.63,.53-1.26,.67v6.16c-.04,.25-2.03,.95-3.26,.95h-.7v-1.58Zm-7.91,10.82v-5.92h-2.91v5.92h2.91Zm7.91-11.83v-5.08h-6.97v5.08h6.97Zm3.85,14.42v-1.58h-3.01v.91c0,.31-1.51,1.05-2.91,1.05h-.49v-11.31l3.54,1.4h2.56l1.61-1.68,3.36,2.55c-.17,.21-.59,.46-1.15,.56v7.18c-.04,.21-1.79,.91-2.91,.91h-.6Zm0-2.59v-5.92h-3.01v5.92h3.01Z"/>
      <path class="cls-2" d="M404.27,95.24c3.82,.88,7.18,2.66,8.44,4.79,.49,.8,.7,1.82,.49,2.66-.17,.77-.77,1.51-1.85,1.51-.84,0-1.51-.42-2-1.58-.88-1.96-2.63-4.59-5.36-6.93l.28-.45Z"/>
      <path class="cls-2" d="M436.51,98.18c-.21,.35-.56,.45-1.26,.56-.31,3.46-.95,6.9-2.49,9.98,2.84,2,6.69,2.52,12.01,2.52,1.71,0,5.78,0,7.77-.04v.42c-1.33,.32-2.03,1.72-2.06,3.29h-5.99c-5.99,0-10.12-.91-12.99-4.13-1.29,1.89-3.05,3.57-5.5,4.94l-.31-.46c2.07-1.86,3.4-4.1,4.31-6.58-1.16-2.03-2-4.66-2.63-7.98l.42-.17c.77,2.59,1.65,4.55,2.84,6.06,.63-2.62,.91-5.43,1.05-8.3h-1.3l-1.15,1.16-2.98-2c.31-.25,.77-.53,1.23-.7,1.09-2.49,2.56-6.62,3.36-9.21h-3.12l-.25-.77c-.66,2.1-1.44,4.1-2.31,5.99l1.93,.7c-.14,.32-.45,.56-1.12,.66v20.55c-.04,.25-1.61,1.05-3.05,1.05h-.7v-17.85c-.91,1.33-1.89,2.52-2.98,3.61l-.46-.25c2.17-4.69,4.24-11.76,5.15-18.38l5.39,1.61c-.14,.42-.56,.73-1.37,.73-.14,.46-.28,.88-.42,1.33h3.15l1.58-1.58,3.19,2.84c-.28,.31-.84,.45-1.51,.56-.84,2.35-2.35,6.3-3.43,8.93h.81l1.82-1.89,3.36,2.8Zm-1.15-11.38h3.99v-3.75l4.62,.49c-.11,.42-.35,.77-1.16,.91v2.34h2.35l1.58-1.61,3.19,2.42c-.18,.21-.6,.45-1.16,.56v3.29h.28l1.26-2.24s1.47,1.65,2.24,2.7c-.07,.39-.38,.56-.84,.56h-2.94v4.76c-.04,.25-1.68,.88-2.73,.88h-.56v-.91h-2.66v3.75h2.7l1.68-2.35s1.86,1.65,2.94,2.77c-.07,.38-.42,.56-.91,.56h-6.41v3.46h3.92l1.72-2.45s1.96,1.71,3.08,2.91c-.07,.38-.42,.56-.88,.56h-7.84v3.15c0,.35-1.5,1.15-2.8,1.15h-.66v-4.3h-4.66l-.28-1.02h4.94v-3.46h-3.61l-.28-.98h3.89v-3.75h-3.22l-.28-.98h3.5v-3.75h-5.64l-.28-1.02h5.92v-3.67h-3.68l-.31-.98Zm7.46,.98v3.67h2.66v-3.67h-2.66Zm2.66,4.69h-2.66v3.75h2.66v-3.75Z"/>
      <path class="cls-2" d="M460.79,96.67c0,5.99-.31,13.76-6.37,18.94l-.39-.25c2.87-5.5,3.05-12.39,3.05-18.69v-10.99l4.31,1.58h10.47c-.42-.07-.88-.28-1.3-.59-.07-1.37-.84-2.84-1.51-3.68l.25-.17c6.69,.25,5.74,4.03,3.43,4.45h8.37l2.1-2.87s2.38,1.96,3.82,3.33c-.11,.38-.46,.56-.95,.56h-25.27v8.4Zm8.33,11.03c-1.51,1.37-3.78,3.46-7.04,5.99-.1,.46-.42,.84-.81,.98l-2.14-4.13c1.68-.42,5.81-1.75,9.84-3.19l.14,.35Zm15.37-13.72s1.71,1.5,2.69,2.56c-.07,.38-.42,.56-.88,.56h-3.36v3.99c-.03,.21-.98,.81-2.06,1.12l2.84,2.31c-.21,.25-.56,.35-1.3,.14-1.61,.77-5.01,1.75-7.07,2.42l-.28-.35c1.19-1.12,2.73-2.94,3.92-4.31h-.1v-.94h-4.76v9.8c0,2.77-.6,4.24-4.97,4.58-.07-1.19-.21-2.1-.63-2.66-.46-.52-1.05-.98-2.52-1.22v-.49s2.77,.21,3.36,.21c.52,0,.66-.14,.66-.53v-9.7h-7.21l-.31-1.02h7.53v-3.36h-8.79l-.28-1.01h9.07v-3.36h-7.18l-.32-.98h7.49v-3.19l5.32,.49c-.04,.53-.38,.84-1.23,.98v1.71h4.48l1.75-1.79,3.57,2.62c-.14,.21-.49,.42-.98,.53v2.98h.07l1.47-2.1Zm-22.51,8.37c9.28-.77,7.6,6.16,3.81,4.58-.73-1.54-2.59-3.33-4.06-4.34l.25-.25Zm12.15-6.27h4.76v-3.36h-4.76v3.36Zm4.76,1.01h-4.76v3.36h4.76v-3.36Zm-3.92,10.96c12.25-.07,11.69,7.49,7.53,6.37-1.65-2.07-5.22-4.66-7.77-6.06l.25-.32Z"/>
      <path class="cls-2" d="M501.71,84.56c-.14,.42-.56,.74-1.36,.7-.91,2.38-1.93,4.62-3.05,6.69l1.4,.53c-.11,.35-.42,.56-1.09,.7v21.32c-.07,.31-1.75,1.22-3.36,1.22h-.77v-17.96c-1.26,1.61-2.63,3.05-4.1,4.31l-.42-.32c2.73-4.58,5.53-11.97,7.04-18.94l5.71,1.75Zm20.65,5.81c-.21,.28-.7,.56-1.4,.7v15.23c-.03,.32-2,1.29-3.43,1.29h-.66v-2.38h-4.31v9c0,.42-1.79,1.47-3.33,1.47h-.77v-10.47h-4.17v1.23c0,.45-1.71,1.36-3.43,1.36h-.6v-20.09l4.24,1.71h3.96v-6.27l5.39,.53c-.07,.49-.35,.84-1.3,.98v4.76h3.96l1.93-2.13,3.92,3.08Zm-18.06,.07v6.2h4.17v-6.2h-4.17Zm4.17,13.79v-6.58h-4.17v6.58h4.17Zm4.1-13.79v6.2h4.31v-6.2h-4.31Zm4.31,13.79v-6.58h-4.31v6.58h4.31Z"/>
      <path class="cls-2" d="M555.12,106.41c-.21,.31-.56,.46-1.33,.25-1.51,.59-3.64,1.36-5.67,2.03,2.66,1.57,5.95,2.45,9.49,2.94l-.04,.42c-1.65,.42-2.77,1.75-3.26,3.75-6.16-2.17-10.01-5.36-11.9-12.46h-3.43v7.49c1.54-.38,3.22-.84,4.94-1.33l.1,.38c-1.4,1.12-4.03,3.26-7.25,5.39-.25,.32-.53,.56-.77,.7l-2.38-4.41c1.26-.7,1.47-1.05,1.47-1.72v-6.51h-3.15c-.91,4.45-2.94,8.93-7.42,12.32l-.35-.24c3.96-6.27,4.34-14.07,4.34-21.14v-10.75l4.8,1.68h16.87l1.86-2,3.96,2.94c-.21,.28-.73,.59-1.44,.74v5.39c-.04,.21-2.07,.88-3.33,.88h-.7v-1.33h-17.85v2.41c0,.77,0,1.58-.03,2.38h4.13v-4.17l4.9,.46c-.07,.38-.28,.7-1.02,.8v2.91h4.45v-4.06l4.87,.46c-.04,.38-.28,.67-1.02,.8v2.8h1.09l1.96-2.59s2.21,1.79,3.5,3.05c-.07,.39-.42,.56-.95,.56h-5.6v4.69h2.35l2.17-2.91s2.42,2,3.89,3.36c-.1,.38-.49,.56-.98,.56h-13.3c.95,1.93,2.28,3.43,3.92,4.62,1.44-1.54,3.05-3.47,3.89-4.62l4.24,3.08Zm-22.51-8.79c-.07,1.54-.21,3.08-.45,4.69h4.62v-4.69h-4.17Zm.07-11.41v4.58h17.85v-4.58h-17.85Zm7.98,11.41v4.69h4.45v-4.69h-4.45Z"/>
      <path class="cls-2" d="M589.07,110.82c1.96,.35,2.42,.91,2.42,1.61,0,1.92-2.35,2.28-14.14,2.28h-7.74c-5.67,0-8.19-.6-8.19-4.59v-23.77h-1.23l-.31-.98h24.75l2.1-2.8s2.35,1.92,3.78,3.22c-.11,.38-.49,.56-.98,.56h-24.33v23.24c0,1.58,.95,2.07,3.99,2.07h8.47c3.01,0,5.71-.07,6.76-.17,.66-.04,1.5-.14,2.06-.21,.49-.07,1.23-.25,2-.49h.38l.21,.04Zm-15.65-.95v-1.71h-2.91v1.47c0,.28-1.47,1.05-2.87,1.05h-.49v-11.87l3.5,1.4h2.45l1.58-1.64,3.29,2.49c-.17,.21-.59,.49-1.15,.56v7.35c-.04,.25-1.72,.91-2.84,.91h-.56Zm7.91-13.55h-6.97v.98c0,.35-1.75,1.19-3.33,1.19h-.56v-10.85l4.06,1.58h6.48l1.79-1.92,3.75,2.83c-.21,.25-.63,.53-1.26,.67v6.16c-.04,.25-2.03,.95-3.26,.95h-.7v-1.58Zm-7.91,10.82v-5.92h-2.91v5.92h2.91Zm7.91-11.83v-5.08h-6.97v5.08h6.97Zm3.85,14.42v-1.58h-3.01v.91c0,.31-1.51,1.05-2.91,1.05h-.49v-11.31l3.54,1.4h2.56l1.61-1.68,3.36,2.55c-.17,.21-.59,.46-1.15,.56v7.18c-.04,.21-1.79,.91-2.91,.91h-.6Zm0-2.59v-5.92h-3.01v5.92h3.01Z"/>
      <path class="cls-2" d="M596.77,95.24c3.82,.88,7.18,2.66,8.44,4.79,.49,.8,.7,1.82,.49,2.66-.17,.77-.77,1.51-1.85,1.51-.84,0-1.51-.42-2-1.58-.88-1.96-2.63-4.59-5.36-6.93l.28-.45Z"/>
      <path class="cls-2" d="M618.78,87.68c-1.89,2.31-4.17,3.99-6.44,5.18l-.38-.35c1.89-2.28,3.78-6.06,4.83-9.91l5.29,1.61c-.14,.42-.59,.73-1.36,.7-.35,.63-.74,1.19-1.16,1.75h4.66l1.75-2.35s1.96,1.65,3.15,2.8c-.07,.38-.42,.56-.91,.56h-9.42Zm22.51,22.96s1.75,1.82,2.7,2.97c-.1,.39-.42,.56-.91,.56h-29.75l-.28-.98h3.47v-8.23l-1.54-.74c.21-.28,.52-.59,.84-.88v-12.53l3.89,1.86h5.01l1.72-2.28s1.96,1.58,3.15,2.7c-.07,.38-.46,.56-.91,.56h-4.55v2.59h1.02l1.37-1.47,3.01,2.21c-.17,.21-.6,.46-1.12,.56v3.29c-.04,.25-1.54,.81-2.49,.81h-.49v-.67h-1.3v2.7h1.86l1.58-2.1s1.79,1.47,2.91,2.52c-.1,.38-.46,.56-.91,.56h-10.01l-.7,.95,1.89,.74h14.77l1.75-1.79,3.47,2.59c-.14,.21-.56,.42-1.09,.56v5.5h.14l1.54-2.55Zm-20.2-14.39v-2.59h-1.82v2.59h1.82Zm-1.82,.98v2.76h6.13v-2.76h-6.13Zm1.79,3.75h-1.79v2.7h1.79v-2.7Zm-.8,12.22h2.98v-5.88h-2.98v5.88Zm.38-24.92c7.04,.1,3.92,5.25,1.12,3.18-.07-1.12-.81-2.34-1.44-2.97l.31-.21Zm5.99,19.04v5.88h2.91v-5.88h-2.91Zm14.74-23.14s2.17,1.68,3.5,2.91c-.1,.38-.46,.56-.95,.56h-11.52c-1.19,1.44-2.56,2.63-3.99,3.47l-.45-.32c1.12-2.03,2.17-5.15,2.7-8.12l5.01,1.54c-.14,.45-.6,.73-1.37,.73-.35,.6-.73,1.16-1.12,1.68h6.27l1.93-2.45Zm-12.5,16c.88-2.38,1.61-5.99,1.96-9.24l4.41,1.12c-.14,.42-.56,.73-1.3,.73-.28,.84-.59,1.65-.98,2.42h4.24l1.75-2.52s2.03,1.75,3.15,2.98c-.11,.38-.42,.56-.91,.56h-8.72c-.91,1.68-1.93,3.15-3.08,4.27l-.52-.32Zm7.04,2.31l1.82-2.42s2.03,1.68,3.26,2.84c-.07,.39-.45,.56-.95,.56h-9.07l-.28-.98h5.22Zm-2.87,4.83v5.88h2.77v-5.88h-2.77Zm1.12-19.08c7.11-.21,4.73,5.18,1.82,3.43-.25-1.15-1.23-2.48-2.14-3.15l.32-.28Z"/>
      <path class="cls-2" d="M659.32,103.26c-2.14,1.96-5.43,4.73-9.94,7.88-.07,.46-.38,.88-.81,1.05l-2.06-4.45c.98-.28,2.49-.81,4.24-1.44v-8.96h-3.29l-.28-1.01h3.57v-8.65h-3.54l-.28-1.01h7.39l1.93-2.8s2.17,1.93,3.43,3.26c-.11,.38-.46,.56-.94,.56h-4.1v8.65h.28l1.64-2.59s1.86,1.82,2.87,3.05c-.07,.38-.42,.56-.91,.56h-3.89v7.46c1.51-.59,3.05-1.26,4.55-1.93l.14,.39Zm19.95-7.6c-.25,.31-.52,.38-1.23,.28-1.58,1.26-3.89,2.84-5.74,4.17,2,4.17,4.83,6.48,7.91,8.16l-.1,.35c-1.68,.42-2.98,1.96-3.54,3.99-3.99-4.03-5.99-8.79-6.93-18.31v16.8c0,2.73-.63,4.24-5.22,4.58-.11-1.16-.25-2.07-.81-2.62-.56-.56-1.29-.98-3.05-1.26v-.49s3.54,.25,4.27,.25c.6,0,.77-.18,.77-.63v-6.86c-1.68,1.86-3.89,4.2-6.76,6.9-.03,.49-.28,.95-.63,1.16l-3.01-4.24c1.79-.77,5.99-2.94,10.4-5.32v-11.34h-8.26l-.28-1.01h8.54v-7.21l5.25,.53c-.07,.49-.35,.8-1.23,.95v5.74h4.2l1.12-1.5c-.28-.07-.56-.17-.88-.35-.31-1.43-1.57-3.08-2.77-3.99l.28-.25c5.6-.07,6.3,2.77,5.15,4.03,.81,.67,2.03,1.72,2.94,2.52-.11,.38-.49,.56-.98,.56h-8.96c.46,3.08,1.16,5.64,2.03,7.77,1.12-2,2.24-4.34,3.15-6.34l4.34,3.01Zm-20.3-2.31c8.75,3.46,4.66,9.98,1.47,6.83,0-2.27-.91-4.83-1.82-6.69l.35-.14Z"/>
      <path class="cls-2" d="M694.11,100.91c-1.96,1.75-5.11,4.45-9.52,7.63-.07,.49-.38,.91-.81,1.08l-2.21-4.55c.88-.28,2.31-.77,4.1-1.4v-10.15h-3.33l-.28-1.01h3.61v-9.17l5.25,.49c-.07,.49-.31,.84-1.3,.95v7.46l1.58-2.66s2.03,2.03,3.05,3.4c-.11,.38-.42,.56-.91,.56h-3.71v8.72c1.4-.52,2.87-1.12,4.34-1.68l.14,.35Zm17.22-1.08l3.57,2.98c-.28,.31-.7,.49-1.44,.59-.52,6.62-1.5,9.87-3.33,11.17-1.12,.81-2.45,1.12-4.17,1.12,0-1.08-.14-2.03-.59-2.55-.46-.56-1.37-.98-2.59-1.26v-.46c-1.89,1.68-4.2,3.12-6.93,4.31l-.28-.46c4.59-3.08,7.49-7.46,8.93-12.5h-1.09c-2.41,4.55-6.76,8.09-12.22,10.54l-.38-.49c3.92-2.56,7-6.2,8.86-10.05h-1.16c-2.35,2.66-5.57,4.79-9.38,6.37l-.32-.45c3.47-2.42,6.06-5.99,7.6-9.63h-4.45l-.28-1.01h17.22l2.17-2.77s2.45,1.89,3.96,3.22c-.1,.38-.46,.56-.98,.56h-12.99c-.49,.95-1.09,1.86-1.75,2.73h9.98l2.03-1.96Zm-12.04-4.1c0,.35-1.72,1.23-3.36,1.23h-.56v-13.65l4.1,1.61h7.28l1.89-2.03,3.81,2.94c-.21,.28-.67,.56-1.33,.7v8.54c-.03,.32-1.92,1.26-3.33,1.26h-.7v-1.4h-7.81v.8Zm0-9.84v3.47h7.81v-3.47h-7.81Zm7.81,8.02v-3.54h-7.81v3.54h7.81Zm1.51,8.86c-1.19,3.36-3.08,6.23-5.78,8.61,1.12,.11,2.87,.21,3.57,.21,.56,0,.84-.07,1.19-.28,.84-.7,1.54-3.54,2-8.54h-.98Z"/>
      <path class="cls-2" d="M746.01,83.97s2.24,1.75,3.57,2.98c-.1,.38-.42,.56-.94,.56h-10.75c-1.58,1.61-3.4,2.84-5.29,3.68l-.39-.32c.74-.95,1.47-2.2,2.1-3.57-.18,.14-.42,.21-.7,.21h-9.24c-2,2.84-4.41,4.9-6.93,6.34l-.42-.32c1.93-2.52,3.89-6.65,4.97-10.82l5.32,1.54c-.11,.46-.52,.73-1.33,.7-.28,.56-.6,1.09-.95,1.58h4.52l1.75-2.41s2,1.65,3.22,2.8c.59-1.33,1.08-2.8,1.47-4.24l5.15,1.96c-.18,.42-.63,.7-1.44,.63-.25,.42-.56,.84-.88,1.23h5.25l1.93-2.52Zm-.28,17.64s2.31,1.82,3.64,3.08c-.07,.39-.46,.56-.94,.56h-8.02v5.78c0,2.8-.59,4.34-5.22,4.76-.1-1.29-.28-2.21-.81-2.8-.56-.59-1.33-1.05-3.01-1.33v-.45s3.57,.21,4.27,.21c.52,0,.7-.14,.7-.56v-5.6h-17.89l-.31-1.02h18.2v-3.4l5.25,.46c-.07,.53-.42,.81-1.19,.91v2.03h3.33l2-2.62Zm-25.8-7h11.27v-3.33l5.01,.45c-.07,.38-.25,.67-1.02,.81v2.06h7l1.86-2.42s2.14,1.68,3.43,2.87c-.1,.39-.46,.56-.94,.56h-11.34v3.75h5.36l1.96-2.56s2.27,1.79,3.57,3.01c-.07,.38-.46,.56-.95,.56h-23.45l-.28-1.02h9.8v-3.75h-11.03l-.25-1.02Zm4.34,11.17c9.52,.77,6.44,8.02,2.77,5.5-.25-1.86-1.65-4.03-3.05-5.29l.28-.21Zm1.26-17.61c7.32,.77,4.17,6.02,1.37,3.85-.1-1.29-.91-2.8-1.68-3.68l.32-.17Zm13.2-.04c7.67,.42,4.59,6.13,1.58,3.92-.1-1.33-1.02-2.87-1.89-3.68l.31-.25Z"/>
      <path class="cls-2" d="M23.26,145.91c-.28,1.65-1.16,2.28-2.35,2.28-.81,0-1.51-.42-1.85-1.16,.35-3.85,3.75-5.53,7.67-5.53,5.11,0,7.77,2.52,7.77,6.13,0,2.94-1.82,5.25-6.09,6.23,4.94,.77,6.86,3.19,6.86,6.51,0,4.24-3.54,7.21-9.14,7.21-4.73,0-7.56-2-8.02-5.85,.39-.98,1.19-1.4,2-1.4,1.3,0,2,.67,2.35,2.73l.63,3.01c.56,.14,1.12,.21,1.71,.21,3.75,0,5.71-2.03,5.71-5.81s-1.96-5.78-5.71-5.78h-1.54v-1.4h1.3c3.25,0,5.39-1.85,5.39-5.57,0-3.22-1.61-4.97-4.45-4.97-.49,0-.98,.07-1.51,.18l-.73,2.97Z"/>
      <path class="cls-2" d="M47.8,139.26h2.56l-10.43,34.02h-2.63l10.5-34.02Z"/>
      <path class="cls-2" d="M69.43,158.48c-3.26,2.14-7.84,4.83-14.67,8.05-.18,.42-.53,.81-.91,.95l-2.24-4.73c1.16-.21,2.8-.56,4.76-1.05l-.35-22.44,5.5,.38c-.03,.49-.28,.88-1.26,1.02l.31,19.92c2.77-.74,5.81-1.61,8.75-2.52l.11,.42Zm13.2-18.59c-.1,.56-.52,.98-1.33,1.05-.35,7.56-.77,13.86-4.2,18.9,10.85,4.06,8.16,11.9,3.89,9.21-.95-2.56-2.94-5.46-4.9-7.88-3.08,3.71-8.12,6.69-16.38,8.96l-.32-.56c16.49-7.46,17.15-16.38,17.36-30.21l5.88,.53Zm-18.69,3.43c11.52,3.25,8.26,11.41,4.13,8.44-.66-2.8-2.73-6.02-4.45-8.23l.32-.21Z"/>
      <path class="cls-2" d="M116.68,151.27c-.24,.39-.56,.49-1.44,.6-1.44,3.88-3.47,7.32-6.3,10.15,3.08,2.03,6.65,3.43,10.43,4.41l-.1,.42c-1.79,.25-3.01,1.43-3.64,3.33-3.57-1.5-6.69-3.4-9.21-5.95-3.57,2.66-8.12,4.66-14.07,5.85l-.25-.46c5.18-1.79,9.28-4.38,12.39-7.6-2.24-2.91-3.89-6.48-4.94-10.99h-1.82c-1.12,7.39-3.78,13.97-10.36,18.62l-.31-.28c6.2-7.81,7.21-17.99,7.14-28.28h-5.53l-.31-.98h17.4l1.65-1.96,3.99,3.01c-.28,.32-.6,.46-1.3,.53l-1.12,8.33h1.58l2.35-2.24,3.78,3.5Zm-18.17-10.19c-.07,3.04-.25,6.02-.63,8.93h7l1.09-8.93h-7.46Zm1.68,9.94c1.29,3.68,3.4,6.62,6.06,8.93,2.03-2.63,3.54-5.64,4.48-8.93h-10.54Z"/>
      <path class="cls-2" d="M153.04,140.98c-.25,.32-.77,.66-1.58,.84v23.17c0,2.8-.59,4.34-5.25,4.76-.11-1.26-.28-2.24-.77-2.84-.52-.59-1.29-1.05-2.98-1.36v-.49s3.43,.25,4.13,.25c.59,0,.77-.25,.77-.74v-6.93h-7.04v10.92c0,.25-1.23,1.12-3.33,1.12h-.73v-12.04h-6.69c-.67,4.48-2.52,8.93-7.35,12.22l-.38-.28c3.75-5.32,4.1-12.08,4.1-18.69v-12.53l4.69,1.68h16.35l1.96-2.31,4.1,3.25Zm-16.77,15.68v-7.46h-6.27v1.64c0,1.86-.04,3.85-.28,5.81h6.55Zm-6.27-15.65v7.18h6.27v-7.18h-6.27Zm10.33,0v7.18h7.04v-7.18h-7.04Zm7.04,15.65v-7.46h-7.04v7.46h7.04Z"/>
      <path class="cls-2" d="M185.14,137.9s2.84,2.17,4.59,3.64c-.07,.38-.49,.56-1.02,.56h-15.72c-1.19,3.47-3.05,6.97-5.46,10.12l1.58,.63h12.67l2-2.28,4.17,3.26c-.28,.28-.84,.63-1.58,.8v14.18c-.07,.28-2.14,1.09-3.54,1.09h-.66v-3.22h-13.48v2.24c0,.28-1.26,1.19-3.36,1.19h-.77v-14.42c-2.24,2.31-4.83,4.38-7.7,6.02l-.32-.32c5.53-5.11,9.8-12.67,11.27-19.29h-10.22l-.28-1.01h25.27l2.56-3.19Zm-16.45,15.93v11.83h13.48v-11.83h-13.48Z"/>
      <path class="cls-2" d="M201.86,149.73c8.82,2.62,5.18,8.96,2,6.16-.1-1.82-1.01-3.89-2-5.43v18.52c0,.35-1.68,1.16-3.19,1.16h-.81v-14.32c-1.58,2.45-3.57,4.66-5.92,6.55l-.46-.39c3.08-4.09,5.01-9.8,5.99-15.33h-4.9l-.28-.98h5.57v-8.37l5.29,.52c-.07,.53-.35,.88-1.3,1.02v6.83h.81l1.85-2.66s2.21,1.86,3.43,3.08c-.11,.39-.46,.56-.95,.56h-5.15v3.08Zm20.16-6.83s2.03,1.96,3.12,3.22c-.11,.39-.46,.56-.91,.56h-4.31v18.76c0,2.73-.7,4.24-5.5,4.66-.14-1.19-.35-2.07-.98-2.62-.67-.59-1.47-1.02-3.47-1.33v-.46s4.24,.28,5.08,.28c.63,0,.84-.21,.84-.7v-12.15c-2.94,4.34-7,8.02-11.97,10.78l-.35-.38c4.97-4.27,8.86-10.85,10.92-16.84h-6.27l-.28-1.02h7.95v-8.4l5.32,.52c-.11,.49-.42,.84-1.3,.98v6.9h.39l1.71-2.76Z"/>
      <path class="cls-2" d="M251.92,144.06v3.33h2.38l1.75-2,3.78,2.91c-.21,.28-.73,.59-1.43,.73v16.73c0,2.55-.46,3.92-4.17,4.27-.03-1.12-.1-2.03-.42-2.56-.25-.53-.66-.91-1.68-1.12v-.49s1.54,.14,2,.14,.53-.21,.53-.6v-5.08h-2.73v8.12c0,.42-1.61,1.37-3.05,1.37h-.7v-9.49h-2.56v8.4c0,.42-1.47,1.3-3.05,1.3h-.59v-16.87c-.18,.25-.46,.35-.84,.35h-4.83v4.59h.04l1.72-1.86,3.57,2.73c-.18,.21-.63,.49-1.23,.63v8.47c-.04,.25-1.89,.95-3.08,.95h-.63v-1.82h-4.55v1.72c0,.35-1.61,1.15-3.12,1.15h-.52v-13.51l3.78,1.54h.28v-4.59h-5.29l-.28-1.01h5.57v-4.59h-2.7c-1.02,.95-2.14,1.79-3.26,2.52l-.39-.28c2.91-3.4,5.46-9.24,6.37-12.95l4.97,1.68c-.11,.38-.39,.63-1.02,.73,3.5,.84,4.8,2.28,4.9,3.47h6.72v-5.81l5.04,.49c-.11,.52-.35,.88-1.29,1.01v4.31h2.8l.6-.81c-.18-.1-.39-.21-.56-.35-.07-1.26-.84-2.7-1.61-3.5l.31-.21c4.06,.28,4.94,2.03,4.38,3.18,.77,.63,1.72,1.44,2.42,2.1-.11,.38-.45,.56-.95,.56h-7.39Zm-3.75,0h-6.9c-.49,.95-1.82,1.44-2.94,.56-.45-1.08-1.37-2.7-2.62-4.16-1.16,2.13-2.84,4.45-4.83,6.48h5.5l1.75-2.35s2,1.61,3.19,2.77c-.07,.38-.45,.56-.91,.56h-4.1v4.59h.7l1.82-2.45s1.89,1.58,3.15,2.8v-7.07l3.85,1.61h2.35v-3.33Zm-16.03,15.02v7.11h4.55v-7.11h-4.55Zm16.03-5.81v-4.87h-2.56v4.87h2.56Zm0,6.06v-5.08h-2.56v5.08h2.56Zm3.75-10.92v4.87h2.73v-4.87h-2.73Zm2.73,10.92v-5.08h-2.73v5.08h2.73Z"/>
      <path class="cls-2" d="M274.04,141.82s2,1.58,3.22,2.73c-.07,.39-.46,.56-.94,.56h-14.14l-.28-1.02h10.4l1.75-2.28Zm7.63,.77c0,2.87-.63,7.6-6.51,10.33,.21,.21,.45,.42,.66,.63-.1,.38-.46,.56-.95,.56h-11.27l-.28-1.02h7.7l1.68-2.13s.98,.77,1.96,1.58c2.94-3.05,3.33-6.86,3.33-9.94v-4.34l4.31,1.58h2.98l1.85-2,3.4,2.8c-.21,.25-.63,.42-1.26,.52v5.78c0,.35,.1,.49,.56,.49h1.82c.21,0,.56-.04,.73-.04,.21-.04,.56-.11,.81-.14h.31l.14,.04c.84,.42,1.16,.77,1.16,1.47,0,1.4-1.19,2.17-4.55,2.17h-1.68c-2.62,0-2.94-.74-2.94-3.01v-7.11h-3.96v1.79Zm-10.64,5.99l1.68-2.21s1.89,1.54,3.08,2.66c-.1,.39-.45,.56-.94,.56h-11.2l-.28-1.02h7.67Zm.28,19.81v-1.89h-3.96v2.1c0,.35-1.54,1.16-3.05,1.16h-.53v-13.58l3.71,1.51h3.5l1.68-1.79,3.57,2.66c-.21,.25-.66,.52-1.33,.66v8.12c-.04,.28-1.79,1.05-3.01,1.05h-.6Zm-5.67-30.59c9.24,.45,5.92,7.46,2.2,5.01-.25-1.75-1.4-3.64-2.45-4.79l.25-.21Zm5.67,27.72v-6.86h-3.96v6.86h3.96Zm21.46-10.92c-.25,.35-.63,.46-1.47,.53-1.23,2.98-2.91,5.57-5.15,7.81,2.56,1.44,5.57,2.38,8.75,3.01l-.04,.38c-1.61,.35-2.8,1.58-3.33,3.47-3.15-1.19-5.81-2.63-7.95-4.69-2.98,2.24-6.83,3.88-11.55,4.97l-.21-.46c4.1-1.61,7.46-3.78,10.01-6.51-1.68-2.24-2.94-5.04-3.75-8.65h-1.68l-.32-1.01h10.78l2.24-2.14,3.64,3.29Zm-14.04-.14c1.05,2.83,2.66,5.01,4.76,6.69,1.54-2.03,2.7-4.24,3.5-6.69h-8.26Z"/>
      <path class="cls-2" d="M312.78,144.93c-.24,.31-.77,.59-1.47,.73v20.86c-.04,.28-1.89,1.16-3.26,1.16h-.6v-2.77h-5.32v2.59c0,.46-1.47,1.33-3.15,1.33h-.63v-26.46l3.92,1.65h.21c.25-1.93,.56-4.66,.74-6.62l5.67,1.37c-.14,.59-.63,.84-1.44,.84-.91,1.23-2.28,3.05-3.4,4.41h3.05l1.86-2.1,3.81,3.01Zm-10.64,.1v8.68h5.32v-8.68h-5.32Zm5.32,18.9v-9.21h-5.32v9.21h5.32Zm22.4-19.01c-.28,.31-.73,.56-1.54,.66-.25,14.11-.74,20.51-2.66,22.58-1.26,1.33-2.8,1.89-5.11,1.89,0-1.33-.17-2.31-.77-2.87-.63-.67-2-1.22-3.71-1.54l.04-.49c1.68,.14,4.1,.32,5.01,.32,.63,0,.95-.14,1.3-.45,1.29-1.19,1.65-8.16,1.89-20.09h-6.51c-1.68,2.97-3.68,5.46-5.92,7.35l-.46-.28c1.92-3.57,3.82-9.28,4.73-14.63l5.53,1.61c-.14,.46-.56,.7-1.37,.7-.59,1.5-1.23,2.91-1.96,4.24h5.57l2.21-2.28,3.75,3.29Zm-15.47,6.12c10.22,3.01,6.41,10.57,2.7,7.46-.17-2.49-1.58-5.32-2.98-7.25l.28-.21Z"/>
      <path class="cls-2" d="M338.78,152.56c-1.93,1.61-4.31,2.97-6.93,4.06l-.28-.52c2.8-1.89,5.01-4.52,6.41-7.25h-1.4v.17c0,.25-1.44,.95-2.77,.95h-.46v-7.74l3.4,1.37h2.03v-2.1h-6.2l-.28-.98h6.48v-3.36l4.73,.45c-.07,.46-.32,.77-1.16,.88v2.03h2.28l1.85-2.31s2.07,1.58,3.36,2.73c-.11,.39-.46,.56-.95,.56h-6.55v2.1h2.06l1.51-1.51,3.08,2.28c-.14,.21-.52,.46-1.01,.53v3.71c-.04,.28-1.61,.98-2.7,.98h-.6v-.74h-2.35v1.23l.14-.14c8.54,.07,6.44,6.2,3.15,4.48-.56-1.4-2.06-3.08-3.29-4.09v5.42c0,.35-1.58,1.02-2.87,1.02h-.7v-4.2Zm21.84,12.78s2.42,1.85,3.92,3.18c-.1,.39-.46,.56-.98,.56h-31.15l-.32-1.02h6.16v-7.35l5.08,.42c-.07,.46-.28,.77-1.16,.91v6.02h4.1v-9.28h-11.69l-.32-.98h21.88l2.03-2.52s2.27,1.72,3.64,2.94c-.11,.39-.46,.56-.94,.56h-10.57v3.82h4.62l2.06-2.59s2.35,1.82,3.78,3.05c-.11,.38-.49,.56-.98,.56h-9.49v4.45h8.19l2.14-2.73Zm-24.05-17.5h2.21v-3.22h-2.21v3.22Zm5.78-3.22v3.22h2.35v-3.22h-2.35Zm19.64-.95c-.77,2.52-2,4.69-3.71,6.55,1.89,1.05,4.17,1.86,6.86,2.38l-.07,.39c-1.51,.56-2.28,1.68-2.49,3.57-2.8-1.05-4.9-2.52-6.51-4.34-2.35,1.75-5.32,3.12-8.93,4.1l-.17-.42c3.33-1.51,5.85-3.43,7.63-5.67-.91-1.5-1.64-3.15-2.24-5.01-.98,1.16-2.06,2.1-3.25,2.87l-.46-.32c1.61-2.56,2.98-6.44,3.54-10.43l5.01,1.44c-.17,.42-.56,.74-1.36,.74-.49,1.16-1.02,2.21-1.61,3.19h4.87l2.03-2.7s2.21,1.82,3.57,3.12c-.11,.38-.45,.56-.94,.56h-1.75Zm-8.44,0c-.21,.32-.45,.63-.7,.95,.74,1.47,1.72,2.77,2.98,3.85,.88-1.47,1.5-3.08,1.89-4.8h-4.17Z"/>
      <path class="cls-2" d="M379.18,143.04c5.95,1.3,3.64,5.29,1.36,4.06-.21,.25-.59,.42-1.23,.53-.14,4.2-.52,5.88-1.68,6.69-.77,.49-1.71,.77-2.98,.77,0-.8-.04-1.58-.42-2-.28-.38-.74-.59-1.37-.77-1.26,2.27-3.12,4.09-5.81,5.46l-.21-.46c3.01-2.66,4.06-6.12,4.34-10.08h-2.73l-.31-1.01h7.84l1.61-1.54,2.52,2.03c-.03-1.23-.66-2.66-1.29-3.47l.35-.21Zm19.11,3.89c-.35,.31-1.02,.28-1.85-.07-.7,.17-1.58,.32-2.56,.45,1.23,2.98,3.68,4.8,6.41,5.88l-.03,.38c-1.33,.35-2.28,1.47-2.73,3.25-1.68-1.5-2.8-3.25-3.5-5.53-.91,.81-2.7,2.31-4.62,3.85l4.83,.45c-.07,.42-.28,.74-1.08,.84v12.6c0,.32-1.82,1.01-3.43,1.01h-.74v-5.91h-12.11c-1.12,2.52-3.64,4.76-8.93,6.09l-.25-.35c4.97-2.52,5.88-6.27,5.88-9.8v-4.94l5.25,.49c-.07,.46-.35,.77-1.12,.88v2h11.27v-2.91c-.25,.32-.52,.53-.77,.63l-1.54-3.29c.88-.46,1.02-.7,1.02-1.26v-5.5l2.94,.28c1.82-.77,3.64-1.79,4.69-2.52l2.98,2.98Zm-30.45-5.18h14.95c-.1-.07-.24-.14-.38-.21-.31-1.58-1.58-3.29-2.73-4.24l.25-.21c6.93-.25,7.04,3.61,5.04,4.66h7.04l2.52-2.98s2.8,2,4.52,3.4c-.11,.38-.49,.56-1.01,.56h-29.86l-.31-.98Zm6.79,5.5c-.31,1.68-.77,3.15-1.44,4.52,.6,.04,1.26,.07,1.65,.07,.42,0,.63-.07,.81-.21,.32-.32,.56-1.58,.67-4.38h-1.68Zm14.35,15.89v-3.61h-11.27v.63c-.04,.98-.14,2-.46,2.97h11.73Zm.42-18.83c-.03,.32-.49,.66-1.23,.6-.73,.8-2.07,2.03-3.4,3.15l1.26,.1c-.07,.38-.31,.66-1.02,.77v7.39c0,.28-1.57,.88-2.87,.88h-.63v-9.45l2.24,.21c.63-1.68,1.3-3.92,1.58-5.11l4.06,1.47Zm1.37,7.53c.98-.28,2.07-.63,3.12-.98-.31-1.01-.56-2.17-.73-3.46-.77,.1-1.58,.21-2.38,.25v4.2Z"/>
      <path class="cls-2" d="M430.49,147.14s2.7,1.96,4.27,3.36c-.07,.38-.49,.56-.98,.56h-31.47l-.28-.98h5.81v-10.15l5.08,.46c-.07,.42-.31,.74-1.16,.88v8.82h4.55v-12.78l5.46,.46c-.07,.49-.35,.84-1.26,.98v4.8h4.38l2.38-2.98s2.7,2,4.38,3.4c-.11,.38-.49,.56-1.02,.56h-10.12v5.57h7.6l2.38-2.94Zm-27.93,22.54c10.12-2.31,18.55-5.71,24.08-16.24l5.04,2.8c-.24,.42-.73,.53-1.65,.35-7.32,10.22-15.86,12.71-27.37,13.62l-.11-.53Zm12.11-14.46c-.21,.31-.49,.52-1.29,.42-2.24,2.8-5.99,6.02-10.33,7.88l-.28-.42c3.01-2.8,5.71-7.32,6.9-10.5l5.01,2.63Zm5.78,6.09c0,.49-2.07,1.54-3.71,1.54h-.42v-11.1l5.39,.38c-.03,.53-.28,.84-1.26,1.02v8.16Z"/>
      <path class="cls-2" d="M449.7,154.84c-.21,.32-.52,.42-1.3,.49-.88,2.52-2.77,5.22-5.18,7.28,.14,.07,.28,.14,.46,.28,2.7,2.21,6.93,2.7,14.67,2.7,4.1-.03,7.46-.03,11.55-.24v.42c-1.65,.35-2.59,1.82-2.77,3.39h-10.19c-7.67,0-10.75-1.33-13.69-5-.52-.63-.91-.56-1.23,.07-.56,1.05-1.47,2.87-2.17,4.66,.1,.31,0,.52-.25,.7l-2.84-3.99c1.72-.88,4.2-2.7,5.25-3.04,1.16-2.13,2.07-5.01,2.45-7.49h-2.24l-1.26,1.16-3.08-2.24c.35-.25,.88-.49,1.37-.63,1.09-1.65,2.52-4.06,3.4-5.78h-5.01l-.32-.98h5.39l1.72-1.75,3.43,3.12c-.32,.35-1.02,.53-1.82,.56-.91,1.54-2.35,3.88-3.43,5.53h1.64l1.96-1.92,3.47,2.73Zm-11.06-16.98c9.66,.81,6.58,8.12,2.8,5.6-.35-1.92-1.79-4.06-3.12-5.39l.32-.21Zm9.28,6.48l-.28-1.01h11.31c.42-1.82,.95-4.31,1.19-6.13l5.46,1.16c-.11,.42-.52,.74-1.29,.74-1.09,1.22-2.77,2.91-4.38,4.24h3.22l2.17-2.84s2.45,1.93,3.89,3.29c-.07,.38-.46,.56-.95,.56h-9c-.7,1.08-1.61,2.31-2.45,3.29h4.62l1.82-2,3.75,2.91c-.21,.25-.67,.53-1.3,.67v13.97c-.07,.25-1.96,1.02-3.26,1.02h-.66v-2.35h-7.95v1.33c0,.38-1.61,1.26-3.26,1.26h-.6v-18.45l4.03,1.65h.81c.07-1.05,.11-2.28,.11-3.29h-7Zm3.05-7.04c8.58,1.5,4.94,7.77,1.68,5.15-.1-1.79-1.09-3.68-2-4.94l.32-.21Zm2.87,11.34v3.36h7.95v-3.36h-7.95Zm0,7.74h7.95v-3.4h-7.95v3.4Zm7.95,4.45v-3.47h-7.95v3.47h7.95Z"/>
      <path class="cls-2" d="M502.73,157.43s1.82,1.71,2.8,2.87c-.1,.38-.42,.56-.91,.56h-32.66l-.31-.98h3.75l-.49-20.69,3.71,1.08c1.05-1.12,2.1-2.41,2.63-3.15l3.26,3.36c-.25,.25-.63,.25-1.16,0-.98,.35-2.84,.88-4.62,1.26l.14,5.04h.84l1.36-2s1.44,1.4,2.31,2.38c.28-.21,.63-.42,.98-.6,.39-2.59,.81-6.93,.88-8.96l4.52,.56c-.07,.42-.39,.84-1.26,.95-.03,.73-.1,1.64-.21,2.62h1.89l1.54-2.17s1.72,1.54,2.7,2.59c-.07,.38-.42,.56-.88,.56h-5.36c-.14,1.47-.31,2.94-.49,4.17h2.31l1.65-1.65,3.12,2.56c-.25,.28-.67,.42-1.37,.52-.24,6.37-.8,8.89-2.2,9.94-.84,.66-1.93,.98-3.26,.98,0-.88-.07-1.68-.46-2.1-.35-.42-.98-.74-1.86-.91v-.53c.77,.07,2.03,.14,2.59,.14,.49,0,.7-.07,.94-.28,.6-.53,.98-2.77,1.16-7.67h-2.49l-1.29,1.54-3.15-2c-.18,.25-.46,.35-.81,.35h-3.68l.14,5.67h.84l1.4-2.06s1.58,1.47,2.41,2.52c-.04,.39-.35,.56-.84,.56h-3.78l.14,5.39h18.06l.14-5.39h-3.19l-.32-1.02h3.5l.14-5.67h-2.8l-.31-1.02h3.15l.1-5.6h-3.78l-.31-.98h3.78l1.65-2.1,3.82,3.12c-.25,.32-.56,.46-1.33,.56l-.42,18.1h.07l1.58-2.45Zm-30.56,12.29c4.03-2.17,7.98-5.85,9.73-8.68l5.39,2.42c-.25,.45-.81,.67-1.96,.59-2.8,2.38-7.74,4.76-12.99,6.06l-.17-.38Zm16.45-19.22c-.11,.38-.49,.73-1.26,.77-.91,2.91-2.24,5.71-3.85,7.56l-.56-.25c.7-2.42,1.23-5.88,1.36-9l4.31,.91Zm3.12,11.41c18.52,2.13,11.66,10.92,8.09,7.18-1.3-2.07-3.78-4.73-8.26-6.76l.17-.42Z"/>
      <path class="cls-2" d="M513.54,150.81c0,6.06-.28,13.93-6.48,19.22l-.39-.28c2.77-5.57,2.87-12.64,2.87-18.94v-11.2l4.62,1.65h9.42l-.07-.04c-.31-1.43-1.43-3.01-2.38-3.85l.25-.21c6.37-.42,6.65,2.91,4.94,4.1h7.81l2.14-2.87s2.38,1.96,3.78,3.33c-.07,.38-.46,.56-.94,.56h-25.55v8.54Zm-2.07,18.83c3.82-1.33,8.16-3.82,10.26-5.74l4.03,3.01c-.35,.35-.95,.42-1.96,.18-2.94,1.26-7.7,2.52-12.18,3.01l-.14-.45Zm24.78-20.16s2.28,1.75,3.64,3.01c-.1,.38-.45,.56-.95,.56h-5.25l3.64,2.66c-.17,.25-.56,.49-1.12,.6v7.67c-.03,.28-2.03,1.01-3.33,1.01h-.67v-1.16h-12.5v.56c0,.35-1.72,1.19-3.26,1.19h-.56v-12.32l4.06,1.61h11.94l1.72-1.82h-19.67l-.28-.98h20.62l1.96-2.59Zm-7.98,1.96v-1.33h-5.99v.88c0,.21-1.54,.63-2.8,.63h-.74v-4.83h-3.82l-.28-.98h4.1v-3.05l4.62,.42c-.07,.39-.32,.7-1.09,.81v1.82h5.99v-3.05l4.59,.42c-.07,.39-.28,.7-1.05,.81v1.82h1.09l1.93-2.42s2.17,1.65,3.47,2.84c-.07,.38-.46,.56-.95,.56h-5.53v4.03c0,.21-1.51,.63-2.8,.63h-.74Zm-8.54,4.41v2.87h4.27v-2.87h-4.27Zm0,6.97h4.27v-3.12h-4.27v3.12Zm8.54-13.69v-2.35h-5.99v2.35h5.99Zm-1.75,15.96c19.18,.56,11.55,7.04,8.02,4.55-1.54-1.19-4.52-2.91-8.16-4.09l.14-.45Zm1.47-9.24v2.87h4.24v-2.87h-4.24Zm4.24,6.97v-3.12h-4.24v3.12h4.24Z"/>
      <path class="cls-2" d="M554.11,155.33c-1.96,1.75-5.11,4.45-9.52,7.63-.07,.49-.38,.91-.81,1.09l-2.21-4.55c.88-.28,2.31-.77,4.1-1.4v-10.15h-3.33l-.28-1.01h3.61v-9.17l5.25,.49c-.07,.49-.31,.84-1.3,.95v7.46l1.58-2.66s2.03,2.03,3.05,3.4c-.11,.38-.42,.56-.91,.56h-3.71v8.72c1.4-.52,2.87-1.12,4.34-1.68l.14,.35Zm17.22-1.08l3.57,2.98c-.28,.31-.7,.49-1.44,.59-.52,6.62-1.5,9.87-3.33,11.17-1.12,.81-2.45,1.12-4.17,1.12,0-1.08-.14-2.03-.59-2.55-.46-.56-1.37-.98-2.59-1.26v-.46c-1.89,1.68-4.2,3.12-6.93,4.31l-.28-.46c4.59-3.08,7.49-7.46,8.93-12.5h-1.09c-2.41,4.55-6.76,8.09-12.22,10.54l-.38-.49c3.92-2.56,7-6.2,8.86-10.05h-1.16c-2.35,2.66-5.57,4.8-9.38,6.37l-.32-.45c3.47-2.42,6.06-5.99,7.6-9.63h-4.45l-.28-1.01h17.22l2.17-2.77s2.45,1.89,3.96,3.22c-.1,.38-.46,.56-.98,.56h-12.99c-.49,.95-1.09,1.86-1.75,2.73h9.98l2.03-1.96Zm-12.04-4.1c0,.35-1.72,1.23-3.36,1.23h-.56v-13.65l4.1,1.61h7.28l1.89-2.03,3.81,2.94c-.21,.28-.67,.56-1.33,.7v8.54c-.03,.32-1.92,1.26-3.33,1.26h-.7v-1.4h-7.81v.8Zm0-9.84v3.47h7.81v-3.47h-7.81Zm7.81,8.02v-3.54h-7.81v3.54h7.81Zm1.51,8.86c-1.19,3.36-3.08,6.23-5.78,8.61,1.12,.11,2.87,.21,3.57,.21,.56,0,.84-.07,1.19-.28,.84-.7,1.54-3.54,2-8.54h-.98Z"/>
      <path class="cls-2" d="M36.04,214.86h-3.96v6.58h-4.17v-6.58h-10.29v-2.49l11.27-16.07h3.19v15.47h3.96v3.08Zm-8.12-3.08v-11.87l-8.37,11.87h8.37Z"/>
      <path class="cls-2" d="M47.8,193.68h2.56l-10.43,34.02h-2.63l10.5-34.02Z"/>
      <path class="cls-2" d="M63.13,209.19c-.21,.07-.49,.1-.84,.14-.88,2.62-2.62,5.53-5.01,7.81,.28,.07,.52,.17,.84,.39,2.7,2.13,7.04,2.55,14.98,2.55,4.24-.04,7.56-.04,11.73-.25v.42c-1.61,.35-2.59,1.82-2.8,3.4h-10.36c-8.02,0-11.06-1.22-13.97-4.83-.52-.66-.88-.6-1.19,.04-.49,1.05-1.16,2.73-1.79,4.48,.11,.31,0,.49-.25,.7l-2.8-3.92c1.23-.67,2.91-1.89,4.06-2.56,1.37-2.41,2.45-5.74,2.91-8.51h-1.85l-1.16,1.12-2.98-2.06c.35-.21,.81-.49,1.3-.67,.91-1.64,2.14-4.09,2.87-5.78h-4.1l-.32-1.01h4.41l1.54-1.61,3.22,2.91c-.28,.28-.88,.46-1.58,.53-.74,1.5-2,3.85-2.91,5.6h1.33l1.89-1.93,2.8,2.35v-8.68l3.68,1.58h1.43c-.31-.11-.59-.28-.91-.56,.07-1.33-.46-2.83-1.05-3.75l.31-.17c5.46,.84,4.94,3.81,3.19,4.48h4.24c.31-1.37,.59-3.19,.73-4.48l5.22,1.08c-.1,.38-.49,.73-1.26,.73-.91,.77-2.24,1.82-3.54,2.66h2.69l1.65-1.93,3.71,2.83c-.21,.25-.74,.6-1.47,.7v13.23c0,2-.49,2.98-4.17,3.26-.04-.74-.1-1.33-.42-1.68-.35-.28-.77-.63-2.03-.8v-.49s1.96,.14,2.49,.14c.49,0,.59-.21,.59-.59v-10.05c-.14,.32-.42,.45-.8,.45h-3.57v3.08h.14l1.3-1.37,2.52,2.21c-.25,.25-.67,.53-1.23,.6v4.41c-.07,.14-1.12,.74-2.21,.74h-.53v-1.12h-3.04v1.19c0,.25-1.23,.81-2.31,.81h-.38v-8.65l2.8,1.19h.14v-3.08h-3.6l-.28-1.02h3.89v-2.45l3.68,.35c-.04,.38-.28,.67-.88,.77v1.33h.53l1.36-1.75s1.54,1.23,2.49,2.17v-3.5h-11.62v15.75c0,.35-1.44,1.16-2.94,1.16h-.52v-10.08Zm-9.49-16.94c9.03,1.58,5.57,8.26,2.14,5.67-.18-1.92-1.33-4.1-2.45-5.46l.32-.21Zm7.6,3.54h9.7c-.14-.11-.28-.21-.42-.32,.04-1.4-.6-2.91-1.26-3.78l.28-.17c5.36,.59,5.43,3.25,3.99,4.27h4.34l2.14-2.63s2.42,1.79,3.89,3.05c-.11,.38-.46,.56-.98,.56h-21.39l-.28-.98Zm12.6,18.24v-3.5h-3.04v3.5h3.04Z"/>
      <path class="cls-2" d="M106.84,193.09c-.14,.45-.6,.66-1.72,.77,3.12,4.31,9.42,6.79,14.81,8.26l-.03,.56c-1.79,.49-2.91,2.24-3.22,3.78-5.32-2.62-9.98-6.69-12.11-12.18-3.33,5.32-10.5,10.85-17.54,13.55l-.21-.42c6.02-3.68,12.39-10.82,13.86-15.86l6.16,1.54Zm4.59,16.07l4.2,3.22c-.25,.28-.74,.63-1.47,.77v10.05c-.04,.25-2.21,.98-3.64,.98h-.73v-2.56h-12.74v1.58c0,.38-1.89,1.33-3.68,1.33h-.63v-14.95l4.59,1.82h12.11l2-2.24Zm-3.89-6.93s2.59,2.03,4.17,3.46c-.1,.39-.45,.56-.98,.56h-15.26l-.28-1.02h10.05l2.31-3.01Zm2.24,18.38v-8.19h-12.74v8.19h12.74Z"/>
      <path class="cls-2" d="M143.07,194.1c-.38,.46-1.5,.77-2.94,.84,2.59,3.22,8.93,6.58,15.19,8.05v.42c-1.82,.53-3.26,2.17-3.75,3.85-5.08-2.83-9.98-7.32-12.29-12.22-3.54,5.88-10.08,10.78-17.33,13.58l-.21-.35c5.32-3.36,10.22-8.58,12.36-13.44h-5.81l-.31-1.02h10.19l1.29-2.1,3.61,2.38Zm6.9,25.34s2.56,1.96,4.13,3.36c-.1,.38-.46,.56-.98,.56h-29.51l-.28-.98h12.74v-7.49h-9.03l-.28-.98h9.31v-6.69h-7.74l-.28-1.01h14.67l2.07-2.56s2.35,1.75,3.82,3.01c-.11,.38-.49,.56-.98,.56h-7.25v6.69h4.69l2.17-2.77s2.42,1.89,3.92,3.19c-.07,.38-.45,.56-.95,.56h-9.84v7.49h7.28l2.31-2.94Z"/>
      <path class="cls-2" d="M187.34,206.53c-.24,.28-.56,.45-1.33,.21-2.1,.91-5.01,1.92-8.05,2.73,2.28,4.73,6.9,7.39,11.76,8.89l-.07,.38c-1.58,.32-2.73,1.58-3.33,3.5-4.48-2.73-7.53-6.41-9.14-12.57-.73,.21-1.47,.39-2.21,.53,2.7,4.94,2.42,10.57,.56,12.85-.91,1.12-2.66,1.54-5.15,1.5-.04-1.16-.31-1.96-.84-2.55-.45-.45-1.58-.95-2.94-1.3l-.03-.42c1.44,.14,3.78,.28,4.62,.28,.49,0,.84-.07,1.01-.38,.49-.74,.81-2.21,.84-3.99-4.17,2.7-9.84,5.01-15.44,6.16l-.25-.53c5.85-2.1,11.76-6.23,15.09-10.57-.07-.28-.14-.56-.25-.88-3.57,2.35-8.79,4.69-13.69,5.99l-.21-.46c4.52-2.1,9.45-5.99,12.18-9.49l-.28-.42c-3.26,1.89-7.25,3.43-11.38,4.45l-.25-.42c4.17-1.89,8.09-4.83,10.68-7.49h-6.76l-.28-.98h16.77l2.17-2.73s1.33,1.05,2.63,2.1c.14-.98,.28-2.31,.39-3.43h-21.74c.21,2.45-.7,4.17-1.89,4.94-1.05,.7-2.73,.42-3.22-.88-.38-1.23,.35-2.17,1.37-2.7,1.23-.67,2.59-2.42,2.52-4.34h.49c.25,.7,.46,1.33,.56,1.96h10.47c-.21-.07-.42-.17-.63-.31-.17-1.58-1.29-3.29-2.45-4.17l.25-.21c7.07-.38,6.86,3.78,4.66,4.69h9.31l2.07-2.1,3.64,3.46c-.24,.32-.63,.39-1.33,.42-1.02,.95-2.73,2.24-4.1,2.98,.32,.25,.6,.49,.88,.74-.07,.38-.46,.56-.95,.56h-9.14c-1.09,1.09-2.45,2.07-3.96,3.01,1.47,1.16,2.63,2.49,3.54,3.89,3.19-1.89,6.72-4.59,8.58-6.34l4.24,3.43Z"/>
      <path class="cls-2" d="M209.92,203.27c1.23,6.48,5.29,12.92,15.09,16.87l-.07,.38c-2.14,.38-3.4,1.68-3.78,4.06-8.16-4.97-10.78-13.48-11.73-20.48-1.05,8.33-4.55,15.47-17.26,20.48l-.31-.53c9.73-5.88,12.46-12.81,13.23-20.79h-12.64l-.28-1.01h12.99c.25-3.29,.21-6.79,.21-10.43l5.88,.56c-.1,.52-.42,.88-1.26,1.01-.07,3.05-.1,6.02-.35,8.86h7.88l2.59-3.19s2.84,2.13,4.59,3.64c-.11,.38-.49,.56-1.01,.56h-13.76Z"/>
      <path class="cls-2" d="M239.35,201.98c-.14,.42-.46,.67-1.37,.67-1.89,4.97-5.22,11.41-10.64,15.54l-.35-.32c3.47-5.08,5.67-12.74,6.51-17.92l5.85,2.03Zm7.81-9.24c-.1,.53-.42,.84-1.29,.98v25.66c0,2.94-.74,4.66-5.99,5.15-.14-1.43-.38-2.42-1.12-3.05-.7-.7-1.65-1.19-3.82-1.54v-.49s4.76,.28,5.71,.28c.67,0,.88-.21,.88-.7v-26.85l5.64,.56Zm7.98,23.28c-.56-5.04-3.36-10.85-6.16-15.16l.45-.21c14.25,8.16,10.68,19.78,5.71,15.37Z"/>
      <path class="cls-2" d="M286.78,206.67l2.91-4.06s3.22,2.8,5.15,4.62c-.1,.39-.49,.56-1.08,.56h-31.36l-.31-1.12h24.71Z"/>
      <path class="cls-2" d="M308.23,219.45c2.14,.49,4.73,.59,7.95,.59,3.05,0,10.5,0,13.79-.1v.42c-1.47,.35-2.21,1.71-2.28,3.25h-11.66c-7.6,0-11.87-1.33-14.42-6.86-.88,3.25-2.35,6.44-4.69,8.79l-.42-.32c2.31-4.69,3.01-11.8,2.94-17.12l4.73,.88c-.14,.49-.49,.8-1.29,.88-.18,1.75-.46,3.64-.88,5.5,.7,1.12,1.54,1.93,2.49,2.59v-11.97l4.83,.53c-.07,.42-.31,.73-1.08,.84v4.31h.84l1.82-2.66s2.07,1.85,3.22,3.12c-.11,.38-.42,.56-.91,.56h-4.97v6.79Zm-4.69-15.05v-5.53h-5.01l-.28-1.02h5.29v-6.09l5.04,.46c-.07,.46-.32,.77-1.12,.88v4.76h.25l1.93-2.52s2.13,1.75,3.43,2.97c-.07,.39-.42,.56-.91,.56h-4.69v5.53h1.19l2-2.66s2.21,1.82,3.57,3.08c-.11,.38-.46,.56-.95,.56h-15.93l-.28-.98h6.48Zm15.26,12.71c-3.4,0-4.27-.77-4.27-3.54v-19.67l4.27,1.61h4.2l1.82-2.03,3.92,2.98c-.25,.31-.73,.63-1.51,.77v8.89c-.03,.21-2,.91-3.22,.91h-.67v-1.96h-5.01v7.6c0,.66,.21,.88,1.33,.88h2.84c1.09,0,2-.04,2.45-.04,.38-.03,.63-.14,.84-.56,.39-.66,.98-2.87,1.61-5.25h.38l.14,5.53c1.05,.42,1.33,.88,1.33,1.54,0,1.64-1.61,2.34-7.11,2.34h-3.36Zm-.46-20.58v7.56h5.01v-7.56h-5.01Z"/>
      <path class="cls-2" d="M337.28,204.18v-3.25h-3.96l-.28-.98h4.24v-3.08h-4.8l-.28-.98h5.08v-4.17l5.04,.46c-.07,.46-.35,.77-1.19,.91v2.8h1.43l1.75-2.28s2,1.58,3.22,2.7c-.1,.38-.42,.56-.91,.56h-5.5v3.08h.98l1.61-2.07s1.82,1.44,2.94,2.49c-.07,.38-.42,.56-.91,.56h-4.62v3.25h1.85l1.79-2.28s2.03,1.61,3.26,2.7c-.1,.38-.46,.56-.94,.56h-15.23l-.28-.98h5.71Zm25.59,2.52s1.4,1.4,2.14,2.38c-.1,.38-.39,.56-.84,.56h-2.35v6.27c-.04,.25-1.75,.91-2.91,.91h-.6v-1.82h-2.45v4.69c0,2.55-.59,4.45-4.66,4.79-.04-1.19-.25-2.13-.66-2.66-.49-.59-1.23-1.01-2.87-1.26v-.56s3.26,.25,3.96,.25c.56,0,.7-.21,.7-.63v-4.62h-4.24l-.32-1.02h4.55v-4.34h-5.15l-.18-.7c-.25,.25-.66,.49-1.29,.63v11.03c0,2.31-.49,3.57-4.34,3.88-.04-.94-.14-1.75-.53-2.24-.38-.46-.94-.8-2.21-1.01v-.49s2.31,.14,2.91,.14c.49,0,.63-.21,.63-.59v-3.78h-5.32c-.42,2.8-1.61,5.88-4.8,8.05l-.31-.35c1.79-3.36,1.75-7.6,1.75-11.24v-6.51l4.17,1.54h4.17l1.57-1.82,3.57,2.66-.07-.21h5.43v-4.17h-3.96l-.32-.98h9.98l1.61-1.68,3.25,2.49c-.17,.21-.56,.42-1.08,.52v3.57l1.05-1.68Zm-20.69,8.82v-2.7h-5.11v.14c0,.77-.04,1.64-.11,2.55h5.22Zm-5.11-6.51v2.8h5.11v-2.8h-5.11Zm26.64-14.07c-.38,.35-1.15,.39-2.14,.04-3.61,.53-9.45,.77-14.14,.66l-.14-.56c4.34-.77,9.84-2.38,12.71-3.61l3.71,3.46Zm-15.61,1.86c6.62,2.62,3.5,7.42,1.09,5.18,0-1.68-.77-3.68-1.47-4.97l.39-.21Zm4.31-.46c6.65,2.66,3.5,7.81,1.08,5.53,.18-1.82-.59-3.96-1.47-5.32l.38-.21Zm3.47,12.29h2.45v-4.17h-2.45v4.17Zm2.45,1.02h-2.45v4.34h2.45v-4.34Zm-1.44-6.97c.77-1.75,1.72-4.52,2.42-7.04l4.62,1.79c-.17,.42-.59,.7-1.36,.63-1.58,1.86-3.47,3.71-5.18,4.87l-.49-.25Z"/>
      <path class="cls-2" d="M395.7,212.02s2.59,2.03,4.13,3.4c-.07,.38-.45,.56-.98,.56h-13.55v3.68c0,2.91-.73,4.45-5.81,4.87-.14-1.26-.35-2.17-.98-2.84-.63-.56-1.51-1.02-3.57-1.37v-.46s4.48,.28,5.29,.28c.53,0,.7-.14,.7-.6v-3.57h-13.79l-.28-.98h14.07v-3.4l4.17,.35c1.72-.7,3.54-1.5,5.01-2.24h-19.78l-.31-1.01h21.49l2.38-2.1,3.71,3.5c-.31,.31-.7,.38-1.54,.42-2.59,.88-6.58,1.68-10.08,2.21-.14,.07-.39,.14-.66,.21v2.07h8.12l2.28-2.98Zm-28.35-15.44h15.05c-.18-.07-.39-.17-.56-.32-.21-1.64-1.3-3.5-2.38-4.55l.28-.21c6.86,.21,6.76,4.09,4.73,5.08h8.54l2.28-3.12s2.59,2.1,4.13,3.54c-.1,.38-.49,.56-.98,.56h-30.8l-.28-.98Zm21.88,10.68v-1.37h-12.01v.74c0,.35-1.85,1.23-3.54,1.23h-.6v-9.56l4.41,1.72h11.38l1.89-2.1,4.1,3.05c-.21,.28-.66,.6-1.4,.77v4.62c-.04,.25-2.2,.91-3.5,.91h-.73Zm0-2.34v-3.92h-12.01v3.92h12.01Z"/>
      <path class="cls-2" d="M401.92,200.19c9,.67,5.85,7.25,2.35,4.87-.31-1.65-1.54-3.5-2.62-4.62l.28-.25Zm9.98-2.7c-1.19,4.45-3.29,12.57-3.68,14.49-.25,1.23-.49,2.45-.46,3.4,.03,1.89,1.44,3.15,1.33,6.34-.04,1.71-1.16,2.91-2.84,2.91-.77,0-1.58-.49-1.82-1.89,.63-3.64,.49-6.97-.31-7.49-.49-.35-1.05-.49-1.82-.56v-.7h1.58c.49,0,.63,0,.98-.73q.7-1.33,6.48-15.89l.56,.14Zm-7.49-5.43c9.49,.91,6.27,7.84,2.59,5.32-.39-1.85-1.72-3.85-2.87-5.15l.28-.17Zm27.93,21.67c-.24,.35-.63,.46-1.5,.53-1.4,2.03-3.15,3.75-5.22,5.15,2.66,.63,5.6,.95,8.68,1.09v.42c-1.58,.49-2.56,1.79-2.98,3.64-3.68-.66-6.86-1.58-9.56-3.04-3.71,1.61-8.12,2.59-13.2,2.97l-.18-.46c4.2-.91,7.95-2.27,10.99-4.06-2.06-1.61-3.71-3.71-4.94-6.48h-2.94l-.31-1.01h14.95l2.2-1.96h-13.55v.25c0,.25-1.19,.91-3.12,.91h-.66v-9.56l4.1,1.61h13.41l1.65-1.82c-.52,.21-1.47,.49-2.73,.49h-.7v-7.74h-9.66v7.25c0,.28-1.16,.88-3.05,.88h-.66v-10.68l4.06,1.58h9.21l1.79-2.03,3.5,2.62c-.25,.28-.56,.49-1.3,.63v6.69s-.07,.1-.21,.17l3.47,2.55c-.21,.32-.53,.49-1.26,.63v5.57c0,.14-1.12,.7-2.98,.77l2.69,2.45Zm-17.54-4.2h2.63v-4.79h-2.63v4.79Zm.42,3.96c1.58,2.21,3.89,3.75,6.62,4.8,1.79-1.37,3.22-2.98,4.27-4.8h-10.89Zm8.61-18.13s1.44,1.37,2.21,2.31c-.11,.38-.35,.56-.84,.56h-7.14l-.28-.98h4.83l1.23-1.89Zm-6.06,5.46h4.83l1.23-1.89s1.44,1.37,2.21,2.31c-.11,.38-.35,.56-.84,.56h-7.14l-.28-.98Zm2.56,3.92v4.79h2.73v-4.79h-2.73Zm5.64,0v4.79h2.7v-4.79h-2.7Z"/>
      <path class="cls-2" d="M448.02,209.23c-.21,.31-.6,.38-1.33,.45-.74,2.42-2.28,5.08-4.34,7.25,.28,.04,.49,.14,.8,.35,2.66,2.13,7,2.55,14.95,2.55,4.2-.04,7.56-.04,11.73-.25v.46c-1.61,.32-2.59,1.82-2.8,3.36h-10.4c-7.98,0-11.03-1.19-13.93-4.83-.52-.67-.88-.56-1.19,.07-.49,1.02-1.16,2.73-1.79,4.45,.11,.31,0,.52-.25,.7l-2.84-3.92c1.3-.7,3.12-2,4.27-2.62,1.12-2.28,1.96-5.29,2.28-7.81h-1.54l-1.16,1.12-2.91-2.07c.31-.21,.77-.46,1.26-.63,.91-1.65,2.03-4.1,2.77-5.78h-4.03l-.31-1.01h4.31l1.58-1.61,3.19,2.87c-.31,.32-.95,.49-1.68,.56-.7,1.5-1.86,3.82-2.73,5.53h1.05l1.82-1.82,3.22,2.63Zm-9.38-16.94c9.03,1.54,5.57,8.26,2.14,5.64-.18-1.92-1.33-4.1-2.45-5.43l.32-.21Zm7.32,6.34l-.28-.98h7.98l1.5-2.21s1.72,1.5,2.73,2.59c.59-1.93,.98-4.1,1.19-6.23l4.66,1.16c-.14,.38-.53,.7-1.3,.74-.42,1.16-.91,2.28-1.47,3.29h3.29l1.79-2.38s2.07,1.64,3.26,2.8c-.1,.39-.45,.56-.88,.56h-8.02c-.7,1.08-1.47,2.03-2.27,2.87h5.6l1.75-1.79,3.19,2.8c-.25,.28-.66,.31-1.33,.38-1.05,.77-2.48,1.75-3.89,2.45l1.86,.17c-.07,.49-.42,.77-1.19,.88v2.87h.39l1.61-2.24s1.82,1.58,2.84,2.7c-.07,.39-.42,.56-.88,.56h-3.96v5.43c0,2.38-.46,3.6-3.99,3.92-.07-.91-.14-1.68-.53-2.17-.38-.49-.91-.81-2.06-1.02v-.52s2.28,.17,2.77,.17c.46,0,.56-.14,.56-.53v-5.29h-3.85l-.28-1.02h4.13v-4.16l1.47,.14c.52-.8,1.05-1.89,1.4-2.76h-5.32l-.31-.95c-.31,.31-.63,.59-.98,.88l-.53-.28c.46-.95,.88-2.03,1.26-3.19-.17,.25-.45,.35-.84,.35h-5.32c-.04,1.4-.07,2.8-.14,4.2h1.44l1.71-1.71,3.15,2.59c-.25,.28-.66,.49-1.37,.6-.17,8.58-.49,12.18-1.92,13.48-.77,.66-1.72,.91-2.77,.95,0-.66-.14-1.47-.46-1.86-.31-.42-.98-.84-1.82-1.05v-.52c.74,.07,1.82,.1,2.28,.1,.25,0,.39-.04,.53-.25,.59-.77,.84-3.99,1.01-11.31h-1.86c-.45,5.53-1.82,10.5-5.5,14.46l-.35-.38c2.84-5.67,2.91-12.43,2.63-19.29h-2.31Zm2.77-6.69c7.63,1.71,4.03,7.11,1.19,4.62-.1-1.54-.88-3.29-1.54-4.45l.35-.17Z"/>
      <path class="cls-2" d="M485.4,196.31c-.21,.28-.74,.6-1.44,.74v21.28c-.04,.28-1.82,1.08-3.12,1.08h-.59v-2.62h-3.57v3.15c0,.28-1.15,1.16-3.05,1.16h-.63v-27.51l4.13,1.86h2.77l1.79-2.03,3.71,2.91Zm-8.72,.11v9.03h3.57v-9.03h-3.57Zm3.57,19.36v-9.35h-3.57v9.35h3.57Zm4.06-17.75l-.28-.98h7.56v-5.04l5.25,.46c-.03,.49-.32,.84-1.26,.98v3.61h2.98l2.07-2.73s2.35,1.86,3.71,3.15c-.07,.38-.46,.56-.98,.56h-7.77v5.5h1.85l2.17-2.87s2.45,1.92,3.89,3.29c-.1,.38-.46,.56-.98,.56h-16.35l-.28-.98h5.71v-5.5h-7.28Zm17.71,8.33s2.1,1.86,3.29,3.12c-.07,.39-.46,.56-.95,.56h-4.73v9.66c0,2.8-.63,4.38-5.32,4.79-.1-1.26-.28-2.21-.84-2.8-.56-.63-1.36-1.08-3.18-1.37v-.49s3.89,.25,4.62,.25c.56,0,.73-.17,.73-.59v-9.45h-11.27l-.25-.98h11.52v-4.13l5.22,.49c-.1,.52-.46,.8-1.23,.91v2.73h.56l1.82-2.7Zm-15.54,4.52c9.63,2.31,5.74,9.35,2.14,6.34-.14-2.14-1.29-4.52-2.45-6.13l.31-.21Z"/>
      <path class="cls-2" d="M538.57,219.27c1.12,.45,1.37,.94,1.37,1.79,0,1.71-1.5,2.52-7.28,2.52h-3.47c-3.57,0-4.41-.77-4.41-3.67v-13.34h-3.71c-.66,8.79-3.75,14.95-14.14,17.96l-.17-.38c7.56-4.13,9.42-10.01,9.63-17.57h-9.24l-.28-1.01h14.21v-13.86l5.57,.49c-.07,.49-.35,.84-1.29,.98v12.39h7.84l2.38-2.98s2.63,2,4.24,3.43c-.11,.38-.49,.56-.98,.56h-9.87v12.29c0,.56,.21,.77,1.26,.77h2.87c1.05,0,1.92-.04,2.41-.07,.46-.03,.63-.14,.88-.52,.39-.74,.98-2.84,1.68-5.32h.39l.14,5.57Zm-28.25-25.31c11.24,3.95,7.39,12.57,3.26,9.07-.25-3.04-1.86-6.44-3.57-8.86l.31-.21Zm27.44,2.2c-.18,.38-.66,.67-1.44,.56-2.48,2.84-5.39,5.46-8.12,7.28l-.39-.28c1.3-2.42,3.05-6.48,4.34-10.08l5.6,2.52Z"/>
    </g>
  </g>
</svg>