<?xml version="1.0" encoding="UTF-8"?>
<svg id="_圖層_2" data-name="圖層 2" xmlns="http://www.w3.org/2000/svg" xmlns:xlink="http://www.w3.org/1999/xlink" viewBox="0 0 456.9 124">
  <defs>
    <style>
      .cls-1 {
        fill: #fff;
      }

      .cls-2 {
        filter: url(#drop-shadow-1);
      }
    </style>
    <filter id="drop-shadow-1" filterUnits="userSpaceOnUse">
      <feOffset dx="0" dy="0"/>
      <feGaussianBlur result="blur" stdDeviation="5"/>
      <feFlood flood-color="#231815" flood-opacity=".95"/>
      <feComposite in2="blur" operator="in"/>
      <feComposite in="SourceGraphic"/>
    </filter>
  </defs>
  <g id="_圖層_1-2" data-name="圖層 1">
    <g class="cls-2">
      <path class="cls-1" d="M37.64,24.19l5.02-7.13s5.62,4.91,8.86,7.99c-.16,.59-.81,.86-1.73,.86H.65l-.49-1.73H37.64Z"/>
      <path class="cls-1" d="M73.33,28.4s4.32,3.94,6.64,6.48c-.16,.59-.76,.86-1.51,.86h-20.2l-.43-1.51h11.72l3.78-5.83Zm-14.26-14.85l-.43-1.51h8.69l3.51-5.35s3.94,3.67,6.1,5.99c-.16,.59-.76,.86-1.51,.86h-16.36Zm36.29,4.7c-.16,.76-.81,1.3-2.16,1.3-.11,.81-.16,1.67-.27,2.48,1.4,10.04,6.16,16.96,16.79,20.57v.65c-3.89,.97-6.1,3.73-6.64,8.48-7.13-4.81-9.72-14.74-10.75-25.54-1.67,9.94-5.99,19.28-24.3,25.6l-.43-.7c15.71-10.58,16.79-22.25,17.17-34.99l10.58,2.16Zm14.58-3.78c-.43,.49-.97,.65-2.21,.76-2.21,3.62-6.16,8.64-9.67,11.72l-.38-.32c.76-3.83,1.46-9.34,1.73-13.23h-14.15c-2.7,5.56-6.21,9.83-10.58,13.12l-.59-.38c2.97-6.59,5.4-16.31,5.99-25.65l10.85,2.38c-.22,.76-.86,1.24-2.16,1.3-.81,2.81-1.73,5.35-2.81,7.72h12.91l4.1-4.1,6.97,6.7Z"/>
      <path class="cls-1" d="M162.76,41.53s3.02,2.97,4.59,4.91c-.11,.59-.65,.86-1.4,.86h-13.07v2.11c0,.43-1.89,1.84-5.02,1.84h-1.13V29.7h-.27c-1.4,8.8-5.35,17.39-17.5,22.19l-.43-.59c6.53-4.32,9.67-10.37,11.02-16.58-1.46,.92-3.13,2-4.86,2.97-.43,.54-.92,.92-1.4,1.08l-2.21-6.64s1.3-.27,1.73-.59c1.4-1.3,3.02-3.67,4.48-6.26l-2.27,1.24c-.43,.76-.92,1.24-1.46,1.46l-2.05-4.86c-.76,.7-1.62,1.46-2.59,2.27v17.77c0,5.02-.97,7.83-8.15,8.48-.11-2.43-.32-4.27-.92-5.45-.59-1.19-1.51-1.94-3.56-2.43v-.7s3.73,.22,4.7,.22c.7,0,.92-.27,.92-.81v-11.39c-.81,.59-1.62,1.19-2.48,1.84-.22,.7-.76,1.4-1.46,1.62l-2.48-8.32c1.3-.27,3.62-.86,6.43-1.57V15.07h-5.45l-.43-1.51h5.89V.59l8.96,.86c-.11,.81-.65,1.3-1.94,1.51V12.8l2.21-3.78s2.97,3.19,4.48,5.18c-.11,.59-.65,.86-1.35,.86h-5.35v7.61l2.11-.59-.22-.54s1.03-.22,1.46-.54c1.89-1.84,4.21-7.78,4.81-10.8l7.56,3.4c-.22,.54-.76,.92-1.78,.81-1.89,2.27-4.81,5.08-7.51,7.07h3.89c.86-1.89,1.57-3.73,2-5.13l5.45,3.29c.76-2.97,1.3-6.1,1.67-9.18l6.64,1.78c-.16-.59-.38-1.13-.59-1.62l.54-.27c11.02,3.78,4.37,11.77,.38,7.29,.22-1.24,.22-2.59,0-3.83-.22,.05-.49,.05-.76,.05-.76,1.84-1.57,3.56-2.48,5.18l1.51,.54h5.94l2.59-3.73s2.86,2.59,4.54,4.37c-.11,.59-.65,.86-1.4,.86h-4.59v5.89l1.62-2.75s2.59,2.7,3.89,4.48c-.11,.59-.65,.86-1.35,.86h-4.16v6.1l1.62-2.75s2.59,2.7,3.89,4.48c-.11,.59-.65,.86-1.35,.86h-4.16v6.7l2.11-3.46Zm-1.67-37.64s4.16,3.19,6.64,5.35c-.16,.59-.76,.86-1.57,.86h-33.16l-.43-1.51h15.44c-.7-.11-1.35-.43-2.05-.86-.22-2.54-1.67-5.24-3.19-6.8l.32-.27c12.58-.76,11.18,7.02,6.7,7.94h7.61l3.67-4.7Zm-21.01,27.76c.22-1.35,.32-2.7,.38-4-1.51,1.51-3.08,3.02-4.64,4.27,1.3-.05,2.75-.16,4.27-.27Zm6.64-3.56v-1.94c-.54,.54-1.08,1.03-1.67,1.51l-.76-.43c.7-1.73,1.4-3.83,2-6.1l-.27-.05c-1.3,1.84-3.13,4.05-5.18,6.16l5.89,.86Zm6.16-6.97v6.97h2.38v-6.97h-2.38Zm2.38,8.48h-2.38v7.18h2.38v-7.18Zm-2.38,16.2h2.38v-7.51h-2.38v7.51Z"/>
      <path class="cls-1" d="M222.64,43.04c2.27,.81,2.97,1.67,2.97,2.97,0,3.24-2.97,4.59-15.17,4.59h-7.45c-6.97,0-9.29-1.03-9.29-6.53V19.22c-1.13,.76-2.32,1.46-3.51,2.05l-.49-.43c1.19-1.62,2.38-3.56,3.51-5.72h-5.83v8.05c2.05-.49,4.16-1.03,6.21-1.57l.11,.49c-1.57,1.3-3.67,2.97-6.32,4.86v16.96c0,4.91-.97,7.56-8.48,8.26-.11-2.38-.32-4.1-.97-5.18-.7-1.08-1.57-1.84-3.83-2.32v-.7s4.1,.27,5.08,.27c.76,0,.97-.27,.97-.81v-11.56c-.76,.49-1.51,.97-2.32,1.46-.22,.76-.81,1.35-1.51,1.57l-2.86-8.59c1.4-.27,3.78-.76,6.7-1.4V15.12h-5.56l-.43-1.51h5.99V.54l9.23,.86c-.11,.81-.65,1.35-2,1.57V13.18l2.54-4.81s2.54,2.86,4.16,5.02c1.84-3.89,3.4-8.32,4.37-12.85l10.04,3.62c-.27,.65-.97,1.08-2.27,1.03-.86,1.67-1.78,3.19-2.81,4.59h11.99l3.73-3.67,6.21,5.4c-.38,.43-1.08,.81-2.27,1.03-.49,18.14-1.3,23.27-4.27,25.87-1.84,1.57-4.1,2.27-7.02,2.27,0-2.27-.11-3.89-.7-4.86-.7-1.03-1.62-1.73-3.4-2.27v-.65c1.24,.11,3.24,.22,4.16,.22,.76,0,1.24-.16,1.67-.54,1.46-1.3,2.05-7.18,2.43-21.28h-13.61c-1.4,1.78-2.92,3.4-4.54,4.81l3.73,1.4h2.97l2.97-3.08,5.99,4.48c-.27,.27-.7,.59-1.46,.76v11.12c-.05,.49-3.46,1.94-5.83,1.94h-1.24v-1.89h-4.1v11.39c0,1.24,.59,1.62,2.97,1.62h7.34c2.32,0,4.54-.05,5.67-.11,.92-.11,1.62-.27,2.16-.7,.76-.76,1.78-2.48,2.92-5.02h.54l.22,5.02Zm-21.82-24.03v10.31h4.1v-10.31h-4.1Z"/>
      <path class="cls-1" d="M282.1,8.1c-.38,.43-1.03,.92-2.16,1.13V48.33c-.05,.54-3.62,2.27-6.43,2.27h-1.24v-6.91h-29.21v5.13c0,.92-3.08,2.75-6.32,2.75h-1.24V3.29l8.15,3.24h28.08l3.51-3.94,6.86,5.51Zm-9.83,34.08v-8.64c-1.13,.32-2.65,.43-4.54,.43h-2.59c-4.54,0-5.13-1.35-5.13-5.51V8.05h-4.16c-.22,13.55-.97,23.33-12.04,29.92l-.59-.7c5.78-7.56,5.45-17.01,5.4-29.21h-5.56V42.17h29.21Zm-5.62-34.13V26.46c0,.65,.16,.92,.81,.92h1.19c.32,0,.81,0,1.19-.05,.27,0,.97,0,1.24-.05,.38-.05,.81-.11,1.19-.22V8.05h-5.62Z"/>
      <path class="cls-1" d="M301.97,23.87c0,8.96-.59,20.74-11.88,28.19l-.43-.32c4.32-8.15,4.48-18.63,4.48-27.86V7.13l8.96,3.02h13.39l-.43-.27c-.59-3.35-2.59-6.8-4.54-9.07l.32-.27c12.69,.22,13.18,7.29,9.72,9.61h9.67l3.73-5.13s4.21,3.46,6.64,5.78c-.16,.59-.76,.86-1.51,.86h-38.12v12.2Zm33.16,18.95s4.43,3.62,7.02,6.05c-.16,.59-.81,.86-1.57,.86h-42.12l-.43-1.51h17.87v-9.13h-12.53l-.43-1.51h12.96V11.77l9.4,.81c-.05,.7-.43,1.19-1.67,1.4v23.6h3.94l3.56-4.75s4.1,3.19,6.53,5.4c-.16,.59-.76,.86-1.57,.86h-12.47v9.13h7.61l3.89-5.4Zm-21.65-26.95c-.16,.7-.76,1.24-2,1.35-.43,1.84-.92,3.56-1.46,5.24,10.75,4.75,4.16,13.23-.32,8.53,.22-2.05-.05-4.27-.49-6.21-1.84,4.59-4.16,8.37-7.18,11.18l-.76-.38c2-5.78,3.24-13.77,3.35-21.33l8.86,1.62Zm23.38,.7c-.22,.76-.86,1.24-2.11,1.3-.59,1.84-1.3,3.56-2.05,5.18,12.53,4.32,6.75,14.42,1.46,9.88-.11-2.65-1.13-5.62-2.32-8.1-2,3.67-4.43,6.7-7.29,8.96l-.7-.43c1.89-4.91,3.29-12.1,3.62-18.85l9.4,2.05Z"/>
      <path class="cls-1" d="M373.09,7.45c-.27,.65-1.03,1.08-2.32,.97-5.24,10.8-12.37,17.44-21.22,21.87l-.49-.43c5.4-6.05,10.96-15.98,13.61-26.35l10.42,3.94Zm7.4,22.9c23.44,8.26,16.25,27.22,7.51,19.76-.22-2.16-.76-4.37-1.4-6.53-6.8,2.21-16.04,4.75-27.7,7.07-.59,.81-1.35,1.35-2.11,1.62l-3.19-9.99s1.94-.43,2.65-1.03c4-3.08,10.31-14.85,11.93-21.65l11.02,3.94c-.27,.59-.92,1.08-2.11,1.13-3.83,5.94-11.34,13.5-17.71,17.93,6.64-.05,16.52-.38,26.46-1.13-1.46-3.89-3.51-7.67-5.83-10.8l.49-.32Zm6.1-26.3c-.76,.92-2.86,1.4-5.4,1.57,2.59,7.61,9.34,13.82,18.36,16.52l-.11,.65c-3.35,1.35-6.05,4.64-6.91,7.94-7.18-5.56-11.12-14.2-12.64-25.54h-6.64l-.49-1.51h5.56l2.21-3.67,6.05,4.05Z"/>
      <path class="cls-1" d="M456.9,6.53c-.38,.49-1.03,.92-2.16,1.19V49.14c-.05,.54-3.67,2.38-6.59,2.38h-1.24v-4.43h-30.62v1.84c0,.97-3.08,2.86-6.37,2.86h-1.3V1.67l8.32,3.29h29.43l3.62-4,6.91,5.56Zm-40.61,39.04h8.42l-2.92-4.7c1.78-1.13,2.05-1.57,2.05-2.54v-1.73c-2.16,.92-4.48,1.67-6.91,2.27l-.43-.81c4-1.89,7.4-4.64,9.72-7.61h-.49c-.65,.59-3.08,1.57-5.18,1.57h-.86v-12.15l6.48,2.48h11.07l2.7-2.75,5.56,4.05c-.22,.32-.7,.65-1.46,.81v5.51c0,.16-.43,.38-.97,.59l3.83,3.4v-15.07c-.27,.16-.54,.22-.92,.22h-29.11l-.43-1.51h11.77v-3.83h-9.07l-.43-1.51h9.5V7.45l8.37,.7c-.05,.59-.38,1.03-1.51,1.24v2.86h2.43l2.92-3.51s3.29,2.38,5.35,4.16c-.11,.59-.65,.86-1.4,.86h-9.29v3.83h3.73l3.02-3.73s2.92,2.16,5.08,3.94V6.48h-30.62V45.58Zm30.62,0v-11.5c-.27,.38-.81,.49-1.78,.11-.97,.38-2.43,.76-3.94,1.13,8.64,4.48,5.18,10.69,1.13,8.42-1.35-2.54-5.29-7.02-10.53-10.58l.38-.7c2.43,.49,4.54,1.03,6.26,1.67,.86-.92,1.73-2,2.43-2.92-.7,.16-1.46,.27-2.05,.27h-1.13v-1.03h-4.16c-1.03,1.13-2.27,2.16-3.67,3.08v5.24c1.84-.49,3.89-1.08,5.94-1.67l.16,.65c-1.89,1.46-5.94,4.43-10.21,7.29-.16,.22-.38,.38-.54,.54h21.71Zm-9.23-21.71h-11.77v5.08h11.77v-5.08Z"/>
      <path class="cls-1" d="M44.55,108.45s4.21,2.97,6.86,5.08c-.16,.59-.76,.86-1.51,.86H29.43v7.94c0,.43-3.62,1.57-6.59,1.57h-1.4v-9.5H.43l-.43-1.51H21.44v-3.67c-1.13,1.13-3.24,1.67-5.29,.32-.05-1.3-.59-2.7-1.24-3.78-3.13,2.92-7.29,5.45-12.04,6.91l-.43-.59c4.27-3.35,7.56-8.69,9.18-13.12H3.46l-.43-1.51H23c-.27-.22-.49-.43-.7-.7,0-.86-.16-2-.49-3.13-1.24,.7-3.24,1.13-6.26,1.35-.11-1.57-.22-2.75-.86-3.46-.59-.59-1.3-1.24-3.62-1.62v-.59s3.78,.22,4.64,.22c.76,0,.92-.32,.92-.92v-2.97c-2.7,1.73-6.21,3.89-10.53,6.32-.27,.7-.81,1.24-1.46,1.4l-2.65-6.91c2.59-.38,8.42-1.46,14.63-2.75v-6.53H1.46l-.49-1.51h15.12l3.19-3.62,6.91,5.18c-.32,.43-1.03,.92-2.16,1.13v10.69c0,.97-.05,1.78-.32,2.48,6.16,.97,5.94,4.32,3.94,5.94h10.1l2.43-2.81c-.49,.05-1.03,.11-1.62,.16-.11-1.57-.16-2.75-.76-3.46-.54-.59-1.19-1.3-3.4-1.62v-.65s3.35,.22,4.21,.22c.7,0,.86-.32,.86-.92v-3.08c-2.65,1.67-6.05,3.67-10.15,5.99-.27,.7-.81,1.24-1.46,1.4l-2.48-6.97c2.48-.38,8.1-1.4,14.09-2.65v-5.94h-13.23l-.49-1.51h13.18l3.24-3.62,6.97,5.18c-.38,.43-1.03,.97-2.16,1.13v10.48c0,2.7-.59,4.48-4.05,5.35,1.46,1.03,3.73,2.65,5.4,3.94-.16,.59-.76,.86-1.57,.86h-13.34l6.16,2.75c-.27,.54-.76,.92-2,.81-.27,.32-.49,.65-.76,.97,10.69-.59,7.29,8.69,1.78,6.21-.59-1.62-1.94-3.46-3.19-4.75-1.94,1.84-4.43,3.4-7.34,4.48l2.86,.22c-.11,.59-.38,1.03-1.51,1.24v2h11.34l3.78-4.43ZM4.1,78.8c11.02-3.35,10.26,7.34,5.08,5.24-1.24-1.46-3.19-3.4-5.4-4.7l.32-.54Zm15.77,22.95c-.27,.54-.76,.92-2,.76-.43,.59-.92,1.13-1.4,1.67,5.83,.05,6.64,2.92,5.24,4.7l3.67,.32c2.92-2.7,4.86-6.75,5.78-10.26H14.09l5.78,2.81Zm7.02-22.95c10.48-3.35,9.56,7.02,4.59,4.97-1.03-1.4-2.75-3.35-4.86-4.37l.27-.59Z"/>
      <path class="cls-1" d="M63.4,107.96c2.43,5.67,2.38,9.99,.7,12.26-1.24,1.62-4.54,1.4-5.62-.81-.92-1.94,.05-3.83,1.73-4.97,1.13-1.19,2.86-4.1,2.48-6.48h.7Zm40.18-20.47s3.73,3.35,5.78,5.56c-.16,.59-.7,.86-1.51,.86h-12.26v21.76c0,4.32-.97,7.02-7.99,7.56-.05-2-.22-3.46-.81-4.37-.54-.92-1.35-1.62-3.56-2v-.7s3.62,.22,4.54,.22c.76,0,.92-.32,.92-.86v-21.6h-11.02l-.43-1.51h14.53l1.35-3.83h-6.8l-2.54,2.86-5.29-3.35c-.32,.32-1.03,.59-1.94,.38-2.86,3.78-8.37,8.96-13.23,12.37,2.48-.11,5.72-.27,9.13-.54-.16-1.84-.54-3.62-.97-5.08l.59-.22c12.2,5.78,4.91,15.12,.32,9.88,.11-.81,.16-1.62,.16-2.48-2.81,1.4-6.53,3.13-10.64,4.81-.38,.43-.86,.7-1.3,.86l-2.32-7.29s1.4-.27,1.94-.7c2.05-1.57,4.54-4.86,6.7-8.32-1.24,.59-2.54,1.19-3.89,1.78-.43,.7-.92,1.13-1.51,1.4l-3.02-7.18s1.19-.32,1.73-.7c2.27-2.38,5.29-10.15,6.05-14.31l8.32,4c-.22,.49-.76,.86-1.78,.81-2.32,3.29-6.32,7.61-9.83,10.37,1.78,0,3.89,0,6.1-.05,.92-1.78,1.67-3.51,2.16-4.91l6.26,4.21c.49-.38,1.24-.81,1.94-1.13,1.78-3.89,4.21-10.37,4.97-13.18l8.96,1.46c-.16,.7-.76,1.4-2.27,1.4l-1.08,2.81h6.05l2.92-3.19,6.32,5.08c-.43,.49-.97,.65-2.11,.76l-3.94,11.23h1.08l3.24-4.91Zm-37.1,19.93c9.77,6.8,3.29,14.96-.49,10.15,.59-3.29,.38-7.13-.16-9.99l.65-.16Zm21.71-1.08c-1.19,2.11-3.19,5.51-6.21,9.83-.05,.76-.49,1.46-1.13,1.73l-3.51-5.18c.38,3.19-2.65,5.24-5.08,2.7,.32-3.02-.54-6.59-1.62-8.96l.59-.27c2.75,1.3,4.43,2.86,5.35,4.32,2.32-.81,6.97-2.7,11.45-4.59l.16,.43Zm-8.53-10.15c13.39,2.32,7.02,12.42,1.89,7.88,.11-2.7-.97-5.72-2.38-7.61l.49-.27Zm13.99-9.13l2.48-7.02h-6.7c-.97,2.43-2.05,5.02-2.92,7.02h7.13Zm3.24,19.66c17.55,.92,11.83,14.85,5.45,9.94-1.19-2.86-3.29-6.8-5.78-9.56l.32-.38Zm-.05-1.89c1.51-2.81,3.62-7.72,4.64-10.26l7.56,5.35c-.27,.43-.81,.65-2.05,.38-2.16,1.46-6.91,3.62-9.72,5.02l-.43-.49Z"/>
      <path class="cls-1" d="M144.56,90.63c1.84,9.88,8.42,19.33,23,24.73l-.05,.65c-4,.81-6.32,3.4-6.97,7.94-11.34-7.29-15.23-20.52-16.63-31.32-1.73,13.01-7.29,23.92-27.49,31.32l-.43-.7c14.69-9.45,18.63-20.2,19.71-32.62h-18.79l-.43-1.51h19.33c.32-5.13,.27-10.53,.27-16.25l10.75,.97c-.16,.86-.7,1.35-2,1.57-.11,4.75-.16,9.34-.54,13.72h10.42l4.48-5.67s5.02,3.78,8.05,6.32c-.16,.59-.81,.86-1.62,.86h-21.06Z"/>
      <path class="cls-1" d="M192.73,103.75c-2.54,2.59-6.7,6.32-13.01,11.18-.22,.76-.81,1.35-1.46,1.57l-4.37-8.42c1.19-.22,3.02-.65,5.29-1.24v-18.25h-4.7l-.43-1.51h5.13v-13.39l9.4,.81c-.11,.76-.49,1.3-2,1.51v10.58l2.48-4.48s3.19,3.46,4.75,5.62c-.16,.59-.7,.86-1.4,.86h-5.83v16.36c1.94-.49,4-1.03,6.05-1.62l.11,.43Zm30.89,11.99c1.62,.76,1.89,1.51,1.89,2.75,0,2.48-2.11,3.73-8.69,3.73h-3.4c-5.02,0-5.72-1.3-5.72-5.51v-9.56h-.86c-1.03,7.02-4.1,12.96-21.55,16.69l-.43-.7c10.96-4.21,13.12-8.86,13.72-13.88-1.19,.43-2.7,.81-4.21,.81h-1.03v-18.52l7.78,2.97h12.26l3.08-3.29,6.43,4.75c-.32,.38-.92,.86-1.94,1.03v10.75c-.05,.38-3.56,1.57-5.78,1.57h-.43v5.99c0,.59,.16,.81,.97,.81h3.73c.54-.05,.76-.16,1.08-.65,.54-.76,1.35-2.92,2.43-5.83h.54l.16,6.1Zm-32.29-36.45h13.45c-.32-.16-.7-.38-1.03-.65,0-2.27-.97-4.7-2.05-6.05l.32-.27c10.58-.22,10.31,5.24,7.07,6.97h5.83l3.46-4.75s3.94,3.24,6.21,5.4c-.16,.59-.76,.86-1.51,.86h-12.47l8.42,2.81c-.22,.65-.86,1.03-2.05,.92-1.78,1.35-4.21,3.29-6.59,4.97h5.51l3.4-4.48s3.89,3.02,6.21,5.13c-.16,.59-.7,.86-1.51,.86h-33.32l-.43-1.51h18.41c.49-2.59,1.08-6.16,1.46-8.69h-18.36l-.43-1.51Zm4.86,1.89c14.8,.81,7.61,11.77,1.73,6.97,.05-2.43-.92-5.08-2.11-6.7l.38-.27Zm4.54,14.85v4.1h13.18v-4.1h-13.18Zm0,9.61h13.18v-4h-13.18v4Z"/>
      <path class="cls-1" d="M259.47,122.33c0,.38-2.21,1.67-6.05,1.67h-1.35v-8.69c-3.56,1.35-7.99,2.92-13.55,4.75-.32,.7-.97,1.13-1.57,1.24l-3.46-7.88c1.19-.05,2.81-.11,4.7-.16v-17.66h-5.13l-.43-1.51h39.74l2.43-3.35c-1.3,.49-3.83,1.08-5.62,1.08h-1.35v-13.93h-20.09v12.8c0,.7-3.46,2.32-6.59,2.32h-1.08v-19.71l8.1,3.08h19.12l3.4-3.73,7.07,5.29c-.32,.43-.97,.97-2.11,1.19v10.42l.59-.81s4.37,3.62,6.91,5.99c-.16,.59-.76,.86-1.57,.86h-22.14v26.73Zm-13.93-26.73v4.64h6.53v-4.64h-6.53Zm0,10.96h6.53v-4.81h-6.53v4.81Zm0,6.26c2.05-.11,4.27-.27,6.53-.43v-4.32h-6.53v4.75Zm17.06-33.48s2.7,1.94,4.48,3.46c-.16,.59-.65,.86-1.4,.86h-16.04l-.43-1.51h10.96l2.43-2.81Zm-13.39,8.37h10.96l2.43-2.81s2.7,1.94,4.48,3.46c-.16,.59-.65,.86-1.4,.86h-16.04l-.43-1.51Zm32.94,14.2c-.32,.59-.76,.81-2,.97-1.13,3.83-2.92,7.45-5.51,10.64,3.02,1.24,6.37,2.11,9.77,2.75v.59c-3.13,.81-5.29,3.29-6.26,7.07-3.35-1.57-6.16-3.29-8.48-5.51-2.86,2.21-6.32,4.1-10.42,5.56l-.32-.54c3.24-2.32,5.78-5.29,7.78-8.59-2.21-3.29-3.78-7.45-4.81-13.12h-1.89l-.49-1.51h11.56l4.05-4.1,7.02,5.78Zm-19.39-.16c1.4,3.67,3.56,6.43,6.21,8.53,1.13-2.75,1.94-5.62,2.48-8.53h-8.69Z"/>
      <path class="cls-1" d="M300.24,91.76v29.32c0,.97-2.81,2.81-6.16,2.81h-1.24v-50l7.67,3.19h5.29l3.13-3.35,6.37,4.81c-.32,.38-.92,.81-1.94,1.03v12.85c-.05,.49-3.4,1.94-5.78,1.94h-1.24v-2.59h-6.1Zm0-13.18v5.02h6.1v-5.02h-6.1Zm6.1,11.66v-5.13h-6.1v5.13h6.1Zm17.12,17.88v11.45c-.05,.27-2,1.35-5.24,1.35h-1.19v-12.8h-3.62c-.54,4.81-2.7,10.1-11.07,13.45l-.43-.49c4-3.78,5.02-8.42,5.29-12.96h-5.89l-.43-1.51h6.37v-7.83h-4.64l-.43-1.51h18.79l3.13-4.1s3.56,2.81,5.67,4.75c-.16,.59-.7,.86-1.46,.86h-4.86v6.75l2.16-3.02s3.24,2.81,5.13,4.75c-.16,.59-.7,.86-1.46,.86h-5.83Zm-6.43-1.51v-7.83h-3.46v6.37c0,.49,0,.97-.05,1.46h3.51Zm23.81-27.97c-.38,.43-1.08,.92-2.16,1.13v35.75c0,5.02-1.03,7.72-8.69,8.42-.11-2.48-.38-4.32-.97-5.35-.7-1.13-1.51-1.94-3.78-2.43v-.65s3.94,.22,4.91,.22c.81,0,.97-.38,.97-1.03v-22.95h-6.32c0,.65-3.13,2.16-6.1,2.16h-1.03v-19.71l7.34,2.86h5.56l3.35-3.83,6.91,5.4Zm-16.04-.05v5.02h6.32v-5.02h-6.32Zm6.32,11.66v-5.13h-6.32v5.13h6.32Z"/>
      <path class="cls-1" d="M358.34,89.82v31.27c0,.97-2.81,2.81-6.16,2.81h-1.24v-50.22l7.67,3.19h5.94l3.13-3.29,6.32,4.75c-.27,.38-.92,.81-1.89,1.03v11.56c-.05,.43-3.46,1.89-5.78,1.89h-1.24v-2.97h-6.75Zm0-11.45v4.1h6.75v-4.1h-6.75Zm6.75,9.94v-4.32h-6.75v4.32h6.75Zm-6.05,11.5c11.66-.38,7.07,8.75,2.16,5.51-.16-1.89-1.35-4.05-2.59-5.18l.43-.32Zm39.8-21.38c-.38,.43-1.08,.92-2.16,1.13v35.96c0,5.02-1.03,7.67-8.69,8.32-.11-2.38-.32-4.21-.97-5.24-.32-.59-.7-1.08-1.35-1.51v1.57c-.05,.38-2.92,1.46-4.75,1.46h-1.03v-2.38h-4.48v1.51c0,.49-2.59,1.78-5.02,1.78h-.81v-14.69l5.02,2v-4.59h-5.83c-.81,2.38-1.73,5.02-2,5.83-.32,.97-.59,2.21-.54,3.13,0,1.57,1.84,2.59,1.67,5.18-.05,1.57-1.24,2.81-4,2.81-.97,0-2-.65-2.27-1.78,.49-3.24,.32-5.4-.65-5.94-.65-.32-1.19-.49-2.16-.59v-1.03h2.38c.76,0,.92,0,1.51-.81q.92-1.3,6.32-10.15l.81,.22-.54,1.62h5.29v-4.32c-2,.16-4.05,.22-5.94,.22-.86,1.24-2.75,1.89-4.7,.59-.16-1.89-1.35-4.05-2.59-5.18l.43-.32c5.94-.22,7.67,2.05,7.29,3.94,4.43-1.35,9.77-3.67,12.53-5.29l5.18,5.24c-.65,.49-1.73,.43-3.13-.16-.97,.16-2.11,.32-3.29,.49v4.81h.97l2.75-3.51s3.02,2.43,4.91,4.16c-.16,.59-.7,.86-1.4,.86h-7.24v4.05l1.62-1.67,5.13,3.83c-.22,.32-.7,.65-1.46,.81v4.86c1.03,.05,2.05,.11,2.48,.11,.81,0,.97-.38,.97-.97v-24.95h-6.97v.65c0,.65-3.13,2.16-6.1,2.16h-.97v-18.58l7.34,2.81h6.16l3.35-3.83,6.91,5.4Zm-18.95,37.8v-5.99h-4.48v5.99h4.48Zm2.27-37.85v4.1h6.97v-4.1h-6.97Zm6.97,9.94v-4.32h-6.97v4.32h6.97Z"/>
    </g>
  </g>
</svg>