<?xml version="1.0" encoding="utf-8"?>
<!-- Generator: Adobe Illustrator 27.0.0, SVG Export Plug-In . SVG Version: 6.00 Build 0)  -->
<svg version="1.1" id="圖層_1" xmlns="http://www.w3.org/2000/svg" xmlns:xlink="http://www.w3.org/1999/xlink" x="0px" y="0px"
	 viewBox="0 0 510 161" style="enable-background:new 0 0 510 161;" xml:space="preserve">
<style type="text/css">
	.st0{fill:#FFFFFF;}
</style>
<g>
	<g id="_圖層_2">
		<g id="_圖層_1-2">
			<g>
				<g>
					<path class="st0" d="M57.1,42.3l5.6-8c0,0,6.3,5.5,9.9,9c-0.2,0.7-0.9,1-1.9,1h-55l-0.5-1.9L57.1,42.3L57.1,42.3z"/>
					<path class="st0" d="M92.6,47c0,0,4.8,4.4,7.4,7.3c-0.2,0.7-0.8,1-1.7,1H75.7l-0.5-1.7h13.1L92.6,47L92.6,47z M76.6,30.4
						l-0.5-1.7h9.7l3.9-6c0,0,4.4,4.1,6.8,6.7c-0.2,0.7-0.8,1-1.7,1H76.6L76.6,30.4z M117.2,35.6c-0.2,0.8-0.9,1.5-2.4,1.5
						c-0.1,0.9-0.2,1.9-0.3,2.8c1.6,11.2,6.9,19,18.8,23v0.7c-4.4,1.1-6.8,4.2-7.4,9.5c-8-5.4-10.9-16.5-12-28.6
						c-1.9,11.1-6.7,21.6-27.2,28.7l-0.5-0.8c17.6-11.8,18.8-24.9,19.2-39.2L117.2,35.6L117.2,35.6z M133.6,31.4
						c-0.5,0.5-1.1,0.7-2.5,0.8c-2.5,4-6.9,9.7-10.8,13.1l-0.4-0.4c0.8-4.3,1.6-10.5,1.9-14.8H106c-3,6.2-6.9,11-11.8,14.7l-0.7-0.4
						c3.3-7.4,6.1-18.3,6.7-28.7l12.2,2.7c-0.2,0.9-1,1.4-2.4,1.5c-0.9,3.1-1.9,6-3.1,8.6h14.4l4.6-4.6L133.6,31.4L133.6,31.4z"/>
					<path class="st0" d="M188.2,61.7c0,0,3.4,3.3,5.1,5.5c-0.1,0.7-0.7,1-1.6,1h-14.6v2.4c0,0.5-2.1,2.1-5.6,2.1h-1.3V48.5h-0.3
						c-1.6,9.9-6,19.5-19.6,24.8l-0.5-0.7c7.3-4.8,10.8-11.6,12.3-18.6c-1.6,1-3.5,2.2-5.4,3.3c-0.5,0.6-1,1-1.6,1.2l-2.5-7.4
						c0,0,1.4-0.3,1.9-0.7c1.6-1.5,3.4-4.1,5-7l-2.5,1.4c-0.5,0.8-1,1.4-1.6,1.6l-2.3-5.4c-0.9,0.8-1.8,1.6-2.9,2.5v19.9
						c0,5.6-1.1,8.8-9.1,9.5c-0.1-2.7-0.4-4.8-1-6.1s-1.7-2.2-4-2.7v-0.8c0,0,4.2,0.2,5.3,0.2c0.8,0,1-0.3,1-0.9V50
						c-0.9,0.7-1.8,1.3-2.8,2.1c-0.2,0.8-0.9,1.6-1.6,1.8l-2.8-9.3c1.4-0.3,4.1-1,7.2-1.8V32.1h-6.1l-0.5-1.7h6.6V15.9l10,1
						c-0.1,0.9-0.7,1.5-2.2,1.7v11l2.5-4.2c0,0,3.3,3.6,5,5.8c-0.1,0.7-0.7,1-1.5,1h-6v8.5l2.4-0.7l-0.2-0.6c0,0,1.1-0.2,1.6-0.6
						c2.1-2.1,4.7-8.7,5.4-12.1l8.5,3.8c-0.2,0.6-0.9,1-2,0.9c-2.1,2.5-5.4,5.7-8.4,7.9h4.4c1-2.1,1.8-4.2,2.2-5.8l6.1,3.7
						c0.9-3.3,1.4-6.8,1.9-10.3l7.4,2c-0.2-0.7-0.4-1.3-0.7-1.8l0.6-0.3c12.3,4.2,4.9,13.2,0.4,8.2c0.2-1.4,0.2-2.9,0-4.3
						c-0.2,0.1-0.5,0.1-0.9,0.1c-0.9,2.1-1.8,4-2.8,5.8l1.7,0.6h6.6l2.9-4.2c0,0,3.2,2.9,5.1,4.9c-0.1,0.7-0.7,1-1.6,1h-5.1v6.6
						l1.8-3.1c0,0,2.9,3,4.4,5c-0.1,0.7-0.7,1-1.5,1h-4.7v6.8l1.8-3.1c0,0,2.9,3,4.4,5c-0.1,0.7-0.7,1-1.5,1h-4.7v7.5L188.2,61.7
						L188.2,61.7z M186.3,19.6c0,0,4.7,3.6,7.4,6c-0.2,0.7-0.9,1-1.8,1h-37.1l-0.5-1.7h17.3c-0.8-0.1-1.5-0.5-2.3-1
						c-0.2-2.8-1.9-5.9-3.6-7.6l0.4-0.3c14.1-0.9,12.5,7.9,7.5,8.9h8.5L186.3,19.6L186.3,19.6z M162.8,50.6c0.2-1.5,0.4-3,0.4-4.5
						c-1.7,1.7-3.4,3.4-5.2,4.8C159.5,50.9,161.1,50.8,162.8,50.6L162.8,50.6z M170.2,46.6v-2.2c-0.6,0.6-1.2,1.2-1.9,1.7l-0.9-0.5
						c0.8-1.9,1.6-4.3,2.2-6.8l-0.3-0.1c-1.4,2.1-3.5,4.5-5.8,6.9L170.2,46.6z M177.1,38.8v7.8h2.7v-7.8H177.1z M179.8,48.3h-2.7v8
						h2.7V48.3z M177.1,66.5h2.7v-8.4h-2.7V66.5z"/>
					<path class="st0" d="M250.7,63.4c2.5,0.9,3.3,1.9,3.3,3.3c0,3.6-3.3,5.1-17,5.1h-8.3c-7.8,0-10.4-1.2-10.4-7.3V36.7
						c-1.3,0.8-2.6,1.6-3.9,2.3l-0.5-0.5c1.3-1.8,2.7-4,3.9-6.4h-6.5v9c2.3-0.5,4.7-1.2,6.9-1.8l0.1,0.5c-1.8,1.5-4.1,3.3-7.1,5.4
						v19c0,5.5-1.1,8.5-9.5,9.2c-0.1-2.7-0.4-4.6-1.1-5.8c-0.8-1.2-1.8-2.1-4.3-2.6v-0.8c0,0,4.6,0.3,5.7,0.3c0.9,0,1.1-0.3,1.1-0.9
						V50.9c-0.9,0.5-1.7,1.1-2.6,1.6c-0.2,0.8-0.9,1.5-1.7,1.8l-3.2-9.6c1.6-0.3,4.2-0.8,7.5-1.6v-11h-6.2l-0.5-1.7h6.7V15.8l10.3,1
						c-0.1,0.9-0.7,1.5-2.2,1.8V30l2.8-5.4c0,0,2.8,3.2,4.7,5.6c2.1-4.4,3.8-9.3,4.9-14.4l11.2,4.1c-0.3,0.7-1.1,1.2-2.5,1.1
						c-1,1.9-2,3.6-3.1,5.1h13.4l4.2-4.1l6.9,6.1c-0.4,0.5-1.2,0.9-2.5,1.1c-0.5,20.3-1.4,26.1-4.8,29c-2.1,1.8-4.6,2.5-7.9,2.5
						c0-2.5-0.1-4.3-0.8-5.4c-0.8-1.2-1.8-1.9-3.8-2.5V52c1.4,0.1,3.6,0.2,4.7,0.2c0.9,0,1.4-0.2,1.9-0.6c1.6-1.5,2.3-8,2.7-23.8
						H228c-1.6,2-3.3,3.8-5.1,5.4l4.2,1.6h3.3l3.3-3.5l6.7,5c-0.3,0.3-0.8,0.7-1.6,0.8v12.5c-0.1,0.5-3.9,2.2-6.5,2.2h-1.4v-2.1
						h-4.6v12.8c0,1.4,0.7,1.8,3.3,1.8h8.2c2.6,0,5.1-0.1,6.4-0.1c1-0.1,1.8-0.3,2.4-0.8c0.9-0.8,2-2.8,3.3-5.6h0.6L250.7,63.4
						L250.7,63.4z M226.3,36.5V48h4.6V36.5H226.3z"/>
					<path class="st0" d="M312.8,24.3c-0.4,0.5-1.1,1-2.4,1.3v43.8c-0.1,0.6-4,2.5-7.2,2.5h-1.4v-7.7H269v5.8c0,1-3.5,3.1-7.1,3.1
						h-1.4V18.9l9.1,3.6h31.4l3.9-4.4L312.8,24.3L312.8,24.3z M301.8,62.4v-9.7c-1.3,0.4-3,0.5-5.1,0.5h-2.9c-5.1,0-5.8-1.5-5.8-6.2
						V24.2h-4.7c-0.2,15.2-1.1,26.1-13.5,33.5l-0.7-0.8c6.5-8.5,6.1-19,6-32.7H269v38.2H301.8L301.8,62.4z M295.5,24.2v20.6
						c0,0.7,0.2,1,0.9,1h1.3c0.4,0,0.9,0,1.3-0.1c0.3,0,1.1,0,1.4-0.1c0.4-0.1,0.9-0.1,1.3-0.2V24.2H295.5L295.5,24.2z"/>
					<path class="st0" d="M330.5,41.9c0,10-0.7,23.2-13.3,31.6l-0.5-0.4c4.8-9.1,5-20.9,5-31.2V23.2l10,3.4h15l-0.5-0.3
						c-0.7-3.8-2.9-7.6-5.1-10.2l0.4-0.3c14.2,0.2,14.8,8.2,10.9,10.8h10.8l4.2-5.8c0,0,4.7,3.9,7.4,6.5c-0.2,0.7-0.9,1-1.7,1h-42.7
						L330.5,41.9L330.5,41.9z M367.6,63.2c0,0,5,4,7.9,6.8c-0.2,0.7-0.9,1-1.8,1h-47.2l-0.5-1.7h20V59h-14l-0.5-1.7h14.5V28.4
						l10.5,0.9c-0.1,0.8-0.5,1.3-1.9,1.6v26.4h4.4l4-5.3c0,0,4.6,3.6,7.3,6c-0.2,0.7-0.9,1-1.8,1h-14v10.2h8.5L367.6,63.2
						L367.6,63.2z M343.4,33c-0.2,0.8-0.9,1.4-2.2,1.5c-0.5,2.1-1,4-1.6,5.9c12,5.3,4.7,14.8-0.4,9.5c0.2-2.3-0.1-4.8-0.5-7
						c-2.1,5.1-4.7,9.4-8,12.5l-0.9-0.4c2.2-6.5,3.6-15.4,3.8-23.9L343.4,33L343.4,33z M369.5,33.8c-0.2,0.8-1,1.4-2.4,1.5
						c-0.7,2.1-1.5,4-2.3,5.8c14,4.8,7.6,16.2,1.6,11.1c-0.1-3-1.3-6.3-2.6-9.1c-2.2,4.1-5,7.5-8.2,10l-0.8-0.5
						c2.1-5.5,3.7-13.5,4-21.1L369.5,33.8L369.5,33.8z"/>
					<path class="st0" d="M405.6,23.5c-0.3,0.7-1.1,1.2-2.6,1.1c-5.9,12.1-13.9,19.5-23.8,24.5l-0.5-0.5c6-6.8,12.3-17.9,15.2-29.5
						C393.9,19.1,405.6,23.5,405.6,23.5z M413.9,49.2c26.2,9.2,18.2,30.5,8.4,22.1c-0.2-2.4-0.9-4.9-1.6-7.3c-7.6,2.5-18,5.3-31,7.9
						c-0.7,0.9-1.5,1.5-2.4,1.8l-3.6-11.2c0,0,2.2-0.5,3-1.2c4.5-3.5,11.5-16.6,13.4-24.2l12.3,4.4c-0.3,0.7-1,1.2-2.4,1.3
						c-4.3,6.7-12.7,15.1-19.8,20.1c7.4-0.1,18.5-0.4,29.6-1.3c-1.6-4.3-3.9-8.6-6.5-12.1L413.9,49.2L413.9,49.2z M420.7,19.7
						c-0.9,1-3.2,1.6-6,1.8C417.6,30,425.1,37,435.2,40l-0.1,0.7c-3.8,1.5-6.8,5.2-7.7,8.9c-8-6.2-12.5-15.9-14.1-28.6h-7.4
						l-0.5-1.7h6.2l2.5-4.1L420.7,19.7L420.7,19.7z"/>
					<path class="st0" d="M494.9,22.5c-0.4,0.5-1.1,1-2.4,1.3v46.4c-0.1,0.6-4.1,2.7-7.4,2.7h-1.4v-5h-34.3V70
						c0,1.1-3.5,3.2-7.1,3.2h-1.5V17.1l9.3,3.7h33l4-4.5L494.9,22.5L494.9,22.5z M449.5,66.2h9.4l-3.3-5.3c2-1.3,2.3-1.8,2.3-2.8
						v-1.9c-2.4,1-5,1.9-7.7,2.5l-0.5-0.9c4.5-2.1,8.3-5.2,10.9-8.5H460c-0.7,0.7-3.5,1.8-5.8,1.8h-1V37.5l7.3,2.8h12.4l3-3.1
						l6.2,4.5c-0.2,0.4-0.8,0.7-1.6,0.9v6.2c0,0.2-0.5,0.4-1.1,0.7l4.3,3.8V36.4c-0.3,0.2-0.6,0.2-1,0.2h-32.6l-0.5-1.7h13.2v-4.3
						h-10.2l-0.5-1.7h10.6v-5.4l9.4,0.8c-0.1,0.7-0.4,1.1-1.7,1.4V29h2.7l3.3-3.9c0,0,3.7,2.7,6,4.7c-0.1,0.7-0.7,1-1.6,1h-10.4V35
						h4.2l3.4-4.2c0,0,3.3,2.4,5.7,4.4V22.5h-34.3L449.5,66.2L449.5,66.2z M483.7,66.2V53.4c-0.3,0.4-0.9,0.5-2,0.1
						c-1.1,0.4-2.7,0.8-4.4,1.3c9.7,5,5.8,12,1.3,9.4c-1.5-2.8-5.9-7.9-11.8-11.8l0.4-0.8c2.7,0.5,5.1,1.2,7,1.9
						c1-1,1.9-2.2,2.7-3.3c-0.8,0.2-1.6,0.3-2.3,0.3h-1.3v-1.2h-4.7c-1.1,1.3-2.5,2.4-4.1,3.5v5.9c2.1-0.5,4.4-1.2,6.6-1.9l0.2,0.7
						c-2.1,1.6-6.6,5-11.4,8.2c-0.2,0.2-0.4,0.4-0.6,0.6L483.7,66.2L483.7,66.2z M473.4,41.9h-13.2v5.7h13.2V41.9z"/>
					<path class="st0" d="M125.3,128.6c0,0,4.7,3.3,7.7,5.7c-0.2,0.7-0.9,1-1.7,1h-22.9v8.9c0,0.5-4.1,1.8-7.4,1.8h-1.6v-10.6H75.9
						l-0.5-1.7h24v-4.1c-1.3,1.3-3.6,1.9-5.9,0.4c-0.1-1.4-0.7-3-1.4-4.2c-3.5,3.3-8.2,6.1-13.5,7.7l-0.5-0.7
						c4.8-3.8,8.5-9.7,10.3-14.7h-9.1l-0.5-1.7h22.4c-0.3-0.2-0.5-0.5-0.8-0.8c0-1-0.2-2.2-0.5-3.5c-1.4,0.8-3.6,1.3-7,1.5
						c-0.1-1.8-0.2-3.1-1-3.9c-0.7-0.7-1.4-1.4-4.1-1.8v-0.7c0,0,4.2,0.2,5.2,0.2c0.8,0,1-0.4,1-1V103c-3,1.9-6.9,4.3-11.8,7.1
						c-0.3,0.8-0.9,1.4-1.6,1.6l-3-7.7c2.9-0.4,9.4-1.6,16.4-3.1v-7.3h-17l-0.5-1.7h16.9l3.6-4.1l7.7,5.8c-0.4,0.5-1.2,1-2.4,1.3v12
						c0,1.1-0.1,2-0.4,2.8c6.9,1.1,6.7,4.8,4.4,6.7h11.3l2.7-3.1c-0.5,0.1-1.2,0.1-1.8,0.2c-0.1-1.8-0.2-3.1-0.8-3.9
						c-0.6-0.7-1.3-1.4-3.8-1.8v-0.7c0,0,3.8,0.2,4.7,0.2c0.8,0,1-0.4,1-1v-3.4c-3,1.9-6.8,4.1-11.4,6.7c-0.3,0.8-0.9,1.4-1.6,1.6
						l-2.8-7.8c2.8-0.4,9.1-1.6,15.8-3v-6.7h-14.8l-0.5-1.7h14.8l3.6-4.1l7.8,5.8c-0.4,0.5-1.1,1.1-2.4,1.3v11.7c0,3-0.7,5-4.5,6
						c1.6,1.2,4.2,3,6,4.4c-0.2,0.7-0.9,1-1.8,1h-14.9l6.9,3.1c-0.3,0.6-0.8,1-2.2,0.9c-0.3,0.4-0.5,0.7-0.8,1.1
						c12-0.7,8.2,9.7,2,6.9c-0.7-1.8-2.2-3.9-3.6-5.3c-2.2,2.1-5,3.8-8.2,5l3.2,0.2c-0.1,0.7-0.4,1.1-1.7,1.4v2.2h12.7L125.3,128.6
						L125.3,128.6z M80.1,95.4c12.3-3.8,11.5,8.2,5.7,5.9c-1.4-1.6-3.6-3.8-6.1-5.3L80.1,95.4L80.1,95.4z M97.7,121.1
						c-0.3,0.6-0.8,1-2.2,0.8c-0.5,0.7-1,1.3-1.6,1.9c6.5,0.1,7.4,3.3,5.9,5.3l4.1,0.4c3.3-3,5.4-7.6,6.5-11.5H91.3L97.7,121.1
						L97.7,121.1z M105.6,95.4c11.7-3.8,10.7,7.9,5.1,5.6c-1.2-1.6-3.1-3.8-5.4-4.9L105.6,95.4L105.6,95.4z"/>
					<path class="st0" d="M141.9,128.1c2.7,6.4,2.7,11.2,0.8,13.7c-1.4,1.8-5.1,1.6-6.3-0.9c-1-2.2,0.1-4.3,1.9-5.6
						c1.3-1.3,3.2-4.6,2.8-7.3H141.9L141.9,128.1z M186.9,105.1c0,0,4.2,3.8,6.5,6.2c-0.2,0.7-0.8,1-1.7,1H178v24.4
						c0,4.8-1.1,7.9-8.9,8.5c-0.1-2.2-0.2-3.9-0.9-4.9c-0.6-1-1.5-1.8-4-2.2v-0.8c0,0,4.1,0.2,5.1,0.2c0.9,0,1-0.4,1-1v-24.2h-12.3
						l-0.5-1.7h16.3l1.5-4.3h-7.6l-2.8,3.2l-5.9-3.8c-0.4,0.4-1.1,0.7-2.2,0.4c-3.2,4.2-9.4,10-14.8,13.8c2.8-0.1,6.4-0.3,10.2-0.6
						c-0.2-2.1-0.6-4.1-1.1-5.7l0.7-0.2c13.7,6.5,5.5,16.9,0.4,11.1c0.1-0.9,0.2-1.8,0.2-2.8c-3.1,1.6-7.3,3.5-11.9,5.4
						c-0.4,0.5-1,0.8-1.4,1l-2.6-8.2c0,0,1.6-0.3,2.2-0.8c2.3-1.8,5.1-5.4,7.5-9.3c-1.4,0.7-2.8,1.3-4.4,2c-0.5,0.8-1,1.3-1.7,1.6
						l-3.4-8c0,0,1.3-0.4,1.9-0.8c2.5-2.7,5.9-11.4,6.8-16l9.3,4.5c-0.2,0.5-0.9,1-2,0.9c-2.6,3.7-7.1,8.5-11,11.6
						c2,0,4.4,0,6.8-0.1c1-2,1.9-3.9,2.4-5.5l7,4.7c0.5-0.4,1.4-0.9,2.2-1.3c2-4.3,4.7-11.6,5.6-14.8l10,1.6
						c-0.2,0.8-0.9,1.6-2.5,1.6l-1.2,3.1h6.8l3.3-3.6l7.1,5.7c-0.5,0.6-1.1,0.7-2.4,0.8l-4.4,12.6h1.2L186.9,105.1L186.9,105.1z
						 M145.4,127.4c10.9,7.6,3.7,16.8-0.5,11.4c0.7-3.7,0.4-8-0.2-11.2L145.4,127.4L145.4,127.4z M169.7,126.2
						c-1.3,2.4-3.6,6.2-6.9,11c-0.1,0.9-0.5,1.6-1.3,1.9l-3.9-5.8c0.4,3.6-3,5.9-5.7,3c0.4-3.4-0.6-7.4-1.8-10l0.7-0.3
						c3.1,1.4,5,3.2,6,4.8c2.6-0.9,7.8-3,12.8-5.1L169.7,126.2L169.7,126.2z M160.1,114.9c15,2.6,7.9,13.9,2.1,8.8
						c0.1-3-1.1-6.4-2.7-8.5L160.1,114.9L160.1,114.9z M175.8,104.6l2.8-7.9h-7.5c-1.1,2.7-2.3,5.6-3.3,7.9H175.8L175.8,104.6z
						 M179.4,126.7c19.6,1,13.2,16.6,6.1,11.1c-1.3-3.2-3.7-7.6-6.5-10.7L179.4,126.7L179.4,126.7z M179.4,124.5
						c1.7-3.1,4.1-8.7,5.2-11.5l8.5,6c-0.3,0.5-0.9,0.7-2.3,0.4c-2.4,1.6-7.7,4.1-10.9,5.6L179.4,124.5L179.4,124.5z"/>
					<path class="st0" d="M228.3,108.6c2.1,11.1,9.4,21.6,25.8,27.7l-0.1,0.7c-4.5,0.9-7.1,3.8-7.8,8.9c-12.7-8.2-17.1-23-18.6-35.1
						c-1.9,14.6-8.2,26.8-30.8,35.1l-0.5-0.8c16.4-10.6,20.9-22.6,22.1-36.5h-21l-0.5-1.7h21.6c0.4-5.8,0.3-11.8,0.3-18.2l12,1.1
						c-0.2,1-0.8,1.5-2.2,1.8c-0.1,5.3-0.2,10.5-0.6,15.4h11.7l5-6.3c0,0,5.6,4.2,9,7.1c-0.2,0.7-0.9,1-1.8,1L228.3,108.6
						L228.3,108.6z"/>
					<path class="st0" d="M277.7,123.3c-2.8,2.9-7.5,7.1-14.6,12.5c-0.2,0.9-0.9,1.5-1.6,1.8l-4.9-9.4c1.3-0.2,3.4-0.7,5.9-1.4
						v-20.4h-5.3l-0.5-1.7h5.7v-15l10.5,0.9c-0.1,0.8-0.5,1.4-2.2,1.7v11.8l2.8-5c0,0,3.6,3.9,5.3,6.3c-0.2,0.7-0.8,1-1.6,1h-6.5
						v18.3c2.2-0.5,4.5-1.2,6.8-1.8L277.7,123.3L277.7,123.3z M312.3,136.8c1.8,0.9,2.1,1.7,2.1,3.1c0,2.8-2.4,4.2-9.7,4.2h-3.8
						c-5.6,0-6.4-1.4-6.4-6.2v-10.7h-1c-1.1,7.9-4.6,14.5-24.1,18.7l-0.5-0.8c12.3-4.7,14.7-9.9,15.4-15.5c-1.3,0.5-3,0.9-4.7,0.9
						h-1.1v-20.7l8.7,3.3h13.7l3.5-3.7l7.2,5.3c-0.4,0.4-1,1-2.2,1.2v12c-0.1,0.4-4,1.7-6.5,1.7h-0.5v6.7c0,0.7,0.2,0.9,1.1,0.9h4.2
						c0.6-0.1,0.9-0.2,1.2-0.7c0.6-0.9,1.5-3.3,2.7-6.5h0.6L312.3,136.8L312.3,136.8z M276.1,95.9h15.1c-0.4-0.2-0.8-0.4-1.1-0.7
						c0-2.5-1.1-5.3-2.3-6.8l0.4-0.3c11.9-0.2,11.5,5.9,7.9,7.8h6.5l3.9-5.3c0,0,4.4,3.6,7,6.1c-0.2,0.7-0.9,1-1.7,1h-14l9.4,3.1
						c-0.2,0.7-1,1.2-2.3,1c-2,1.5-4.7,3.7-7.4,5.6h6.2l3.8-5c0,0,4.4,3.4,7,5.7c-0.2,0.7-0.8,1-1.7,1h-37.3l-0.5-1.7h20.6
						c0.5-2.9,1.2-6.9,1.6-9.7h-20.6L276.1,95.9L276.1,95.9z M281.6,98.1c16.6,0.9,8.5,13.2,1.9,7.8c0.1-2.7-1-5.7-2.4-7.5
						L281.6,98.1L281.6,98.1z M286.6,114.7v4.6h14.8v-4.6H286.6z M286.6,125.4h14.8V121h-14.8V125.4z"/>
					<path class="st0" d="M347.9,144.1c0,0.4-2.5,1.9-6.8,1.9h-1.5v-9.7c-4,1.5-9,3.3-15.2,5.3c-0.4,0.8-1.1,1.3-1.8,1.4l-3.9-8.8
						c1.3-0.1,3.1-0.1,5.3-0.2v-19.8h-5.8l-0.5-1.7h44.5l2.7-3.8c-1.5,0.5-4.3,1.2-6.3,1.2h-1.5V94.4h-22.5v14.3
						c0,0.8-3.9,2.6-7.4,2.6h-1.2V89.2l9.1,3.4h21.4l3.8-4.2l7.9,5.9c-0.4,0.5-1.1,1.1-2.4,1.3v11.7l0.7-0.9c0,0,4.9,4.1,7.7,6.7
						c-0.2,0.7-0.9,1-1.8,1h-24.8L347.9,144.1L347.9,144.1z M332.3,114.2v5.2h7.3v-5.2H332.3z M332.3,126.5h7.3v-5.4h-7.3V126.5z
						 M332.3,133.5c2.3-0.1,4.8-0.3,7.3-0.5v-4.8h-7.3V133.5L332.3,133.5z M351.4,96c0,0,3,2.2,5,3.9c-0.2,0.7-0.7,1-1.6,1h-18
						l-0.5-1.7h12.3L351.4,96L351.4,96z M336.4,105.4h12.3l2.7-3.1c0,0,3,2.2,5,3.9c-0.2,0.7-0.7,1-1.6,1h-18L336.4,105.4
						L336.4,105.4z M373.3,121.3c-0.4,0.7-0.9,0.9-2.2,1.1c-1.3,4.3-3.3,8.3-6.2,11.9c3.4,1.4,7.1,2.4,11,3.1v0.7
						c-3.5,0.9-5.9,3.7-7,7.9c-3.8-1.8-6.9-3.7-9.5-6.2c-3.2,2.5-7.1,4.6-11.7,6.2l-0.4-0.6c3.6-2.6,6.5-5.9,8.7-9.6
						c-2.5-3.7-4.2-8.3-5.4-14.7h-2.1l-0.5-1.7h12.9l4.5-4.6L373.3,121.3L373.3,121.3z M351.6,121.1c1.6,4.1,4,7.2,7,9.5
						c1.3-3.1,2.2-6.3,2.8-9.6L351.6,121.1L351.6,121.1z"/>
					<path class="st0" d="M389,109.9v32.8c0,1.1-3.1,3.1-6.9,3.1h-1.4v-56l8.6,3.6h5.9l3.5-3.8l7.1,5.4c-0.4,0.4-1,0.9-2.2,1.2v14.4
						c-0.1,0.5-3.8,2.2-6.5,2.2h-1.4v-2.9L389,109.9L389,109.9z M389,95.2v5.6h6.8v-5.6H389z M395.9,108.2v-5.7H389v5.7H395.9z
						 M415,128.2v12.8c-0.1,0.3-2.2,1.5-5.9,1.5h-1.3v-14.3h-4c-0.6,5.4-3,11.3-12.4,15.1l-0.5-0.5c4.5-4.2,5.6-9.4,5.9-14.5h-6.6
						l-0.5-1.7h7.1v-8.8h-5.2l-0.5-1.7h21l3.5-4.6c0,0,4,3.1,6.4,5.3c-0.2,0.7-0.8,1-1.6,1h-5.4v7.6l2.4-3.4c0,0,3.6,3.1,5.7,5.3
						c-0.2,0.7-0.8,1-1.6,1L415,128.2L415,128.2z M407.8,126.6v-8.8H404v7.1c0,0.5,0,1.1-0.1,1.6
						C403.9,126.5,407.8,126.5,407.8,126.6z M434.5,95.2c-0.4,0.5-1.2,1-2.4,1.3v40c0,5.6-1.1,8.6-9.7,9.4c-0.1-2.8-0.4-4.8-1.1-6
						c-0.8-1.3-1.7-2.2-4.2-2.7v-0.7c0,0,4.4,0.2,5.5,0.2c0.9,0,1.1-0.4,1.1-1.1v-25.7h-7.1c0,0.7-3.5,2.4-6.8,2.4h-1.1V90.3
						l8.2,3.2h6.2l3.8-4.3L434.5,95.2L434.5,95.2z M416.5,95.2v5.6h7.1v-5.6H416.5z M423.6,108.2v-5.7h-7.1v5.7H423.6z"/>
					<path class="st0" d="M449.6,107.7v35c0,1.1-3.1,3.1-6.9,3.1h-1.4V89.6l8.6,3.6h6.6l3.5-3.7l7.1,5.3c-0.3,0.4-1,0.9-2.1,1.2
						v12.9c-0.1,0.5-3.9,2.1-6.5,2.1h-1.4v-3.3L449.6,107.7L449.6,107.7z M449.6,94.9v4.6h7.6v-4.6H449.6z M457.1,106v-4.8h-7.6v4.8
						C449.6,106,457.1,106,457.1,106z M450.4,118.9c13.1-0.4,7.9,9.8,2.4,6.2c-0.2-2.1-1.5-4.5-2.9-5.8L450.4,118.9L450.4,118.9z
						 M494.9,95c-0.4,0.5-1.2,1-2.4,1.3v40.3c0,5.6-1.1,8.6-9.7,9.3c-0.1-2.7-0.4-4.7-1.1-5.9c-0.4-0.7-0.8-1.2-1.5-1.7v1.8
						c-0.1,0.4-3.3,1.6-5.3,1.6h-1.1V139h-5v1.7c0,0.5-2.9,2-5.6,2h-0.9v-16.4l5.6,2.2v-5.1h-6.5c-0.9,2.7-1.9,5.6-2.2,6.5
						c-0.4,1.1-0.7,2.5-0.6,3.5c0,1.8,2.1,2.9,1.9,5.8c-0.1,1.8-1.4,3.1-4.5,3.1c-1.1,0-2.2-0.7-2.5-2c0.5-3.6,0.4-6.1-0.7-6.6
						c-0.7-0.4-1.3-0.5-2.4-0.7v-1.1h2.7c0.9,0,1,0,1.7-0.9c0.7-1,3-4.8,7.1-11.4l0.9,0.2l-0.6,1.8h5.9v-4.8
						c-2.2,0.2-4.5,0.2-6.6,0.2c-1,1.4-3.1,2.1-5.3,0.7c-0.2-2.1-1.5-4.5-2.9-5.8l0.5-0.4c6.6-0.2,8.6,2.3,8.2,4.4
						c5-1.5,10.9-4.1,14-5.9l5.8,5.9c-0.7,0.5-1.9,0.5-3.5-0.2c-1.1,0.2-2.4,0.4-3.7,0.5v5.4h1.1l3.1-3.9c0,0,3.4,2.7,5.5,4.7
						c-0.2,0.7-0.8,1-1.6,1h-8.1v4.5l1.8-1.9l5.8,4.3c-0.2,0.4-0.8,0.7-1.6,0.9v5.4c1.1,0.1,2.3,0.1,2.8,0.1c0.9,0,1.1-0.4,1.1-1.1
						v-27.9h-7.8v0.7c0,0.7-3.5,2.4-6.8,2.4h-1.1V90l8.2,3.1h6.9l3.8-4.3L494.9,95L494.9,95z M473.7,137.3v-6.7h-5v6.7H473.7z
						 M476.2,94.9v4.6h7.8v-4.6H476.2z M484,106v-4.8h-7.8v4.8C476.2,106,484,106,484,106z"/>
				</g>
			</g>
		</g>
	</g>
</g>
</svg>
