<?xml version="1.0" encoding="UTF-8"?>
<svg id="_圖層_2" data-name="圖層 2" xmlns="http://www.w3.org/2000/svg" viewBox="0 0 783.39 136.96">
  <defs>
    <style>
      .cls-1 {
        fill: #fff;
        opacity: .7;
      }

      .cls-2 {
        fill: #231815;
      }
    </style>
  </defs>
  <g id="_圖層_1-2" data-name="圖層 1">
    <rect class="cls-1" width="783.39" height="136.96" rx="30" ry="30"/>
    <g>
      <path class="cls-2" d="M13.14,34.86c8.79,.49,6.62,6.93,3.29,5.01-.49-1.71-2.17-3.61-3.61-4.73l.32-.28Zm9.8,2c-1.16,3.15-3.54,9.14-3.99,10.5-.28,.94-.56,2.03-.53,2.87,.07,1.65,1.3,3.04,1.16,5.99-.07,1.61-1.08,2.66-2.52,2.66-.74,0-1.36-.59-1.54-1.79,.56-3.64,.38-6.55-.42-7.07-.46-.32-1.02-.49-1.75-.56v-.7h1.61c.49,0,.63,0,1.05-.63q.77-1.16,6.41-11.41l.52,.14Zm-7.77-10.01c9.07,.6,7,7.25,3.54,5.39-.6-1.86-2.35-3.89-3.85-5.11l.32-.28Zm12.15,8.47l4.45,.45c-.07,.46-.35,.81-1.19,.95v5.25c-.07,6.16-1.58,13.2-10.61,16.77l-.35-.42c6.72-4.2,7.7-10.61,7.7-16.42v-6.58Zm-.95-4.9c.17,2.31-.6,4.03-1.61,4.83-.98,.77-2.49,.7-3.01-.42-.42-1.02,.18-1.93,1.09-2.49,1.12-.81,2.38-2.87,2.31-5.01h.53c.28,.74,.46,1.4,.56,2.07h14.42l1.86-1.89,3.29,3.19c-.28,.28-.67,.32-1.37,.38-1.09,1.3-3.01,3.15-4.45,4.24l-.39-.25c.39-1.22,.91-3.15,1.23-4.66h-14.46Zm17.85,23.91c.84,.38,1.05,.77,1.05,1.36,0,1.23-1.19,1.89-4.97,1.89h-2.1c-2.52,0-3.01-.77-3.01-2.84v-19.39l4.24,.42c-.04,.49-.39,.84-1.16,.95v17.15c0,.52,.11,.7,.81,.7h1.47c.6,0,1.09,0,1.37-.03,.25,0,.42-.07,.56-.39,.28-.56,.8-2.73,1.19-4.66h.42l.14,4.83Z"/>
      <path class="cls-2" d="M57.03,40.22c6.37,3.22,3.78,7.88,1.5,5.78-.11-1.54-.77-3.33-1.5-4.73v16.56c-.04,.25-1.01,.98-2.49,.98h-.49v-12.6c-1.22,2.38-2.7,4.62-4.52,6.58l-.45-.42c2.2-3.85,3.54-8.96,4.34-13.83h-3.82l-.28-1.01h4.73v-6.76c-1.58,.28-3.15,.52-4.69,.66l-.17-.49c3.08-1.16,6.9-3.19,8.82-4.55l3.57,3.08c-.39,.35-1.05,.38-2,.03-.74,.21-1.65,.42-2.56,.66v7.35h.38l1.54-2.14s1.82,1.47,2.87,2.59c-.1,.38-.46,.56-.91,.56h-3.88v1.68Zm6.09,9.45c1.05,3.43,.35,5.88-.74,6.97-.74,.74-2.21,.84-2.73-.07-.42-.81,.04-1.68,.84-2.24,1.02-.77,2.14-2.77,2.03-4.66h.6Zm16.98-7.25s1.47,1.22,2.38,2.17c-.07,.38-.42,.56-.88,.56h-2.87v3.39c-.04,.21-1.4,.7-2.31,.7h-.46v-.98h-12.81l-.31-1.02h13.13v-2.1h-14.28l-.28-1.02h14.56v-2.07h-12.43l-.28-1.01h12.43l1.33-1.4,2.87,2.17c-.17,.21-.6,.46-1.16,.56v1.75h.04l1.33-1.71Zm-6.51-7.53c.59-1.47,1.19-3.57,1.5-5.64-3.88,.35-8.65,.56-12.85,.49l-.07-.63c5.29-.53,11.94-1.89,15.47-2.94l2.76,2.87c-.35,.32-1.05,.28-1.92-.1-.91,.1-1.92,.21-3.01,.31l3.64,1.16c-.14,.39-.56,.7-1.3,.7-.91,1.37-2.03,2.73-3.15,3.78h1.33l1.4-1.89s1.68,1.33,2.7,2.34c-.11,.39-.42,.56-.91,.56h-6.86v2.49h5.32l1.58-2.03s1.79,1.43,2.84,2.49c-.07,.38-.42,.56-.88,.56h-19.39l-.28-1.01h7.84v-2.49h-5.81l-.28-1.02h10.33Zm-10.26-4.58c6.37,1.4,3.25,5.6,1.01,3.61-.07-1.19-.74-2.59-1.37-3.4l.35-.21Zm13.76,24.64c.84,.31,1.09,.63,1.09,1.16,0,1.22-1.19,1.75-6.37,1.75h-3.36c-2.87,0-3.36-.56-3.36-2.52v-6.16l3.85,.38c-.04,.42-.39,.7-1.02,.8v4.38c0,.42,.11,.49,1.16,.49h5.71c.38-.03,.56-.1,.73-.31,.28-.38,.67-1.4,1.05-2.62h.38l.14,2.66Zm-8.82-25.03c6.54,1.23,3.75,5.85,1.37,3.89-.07-1.29-.88-2.77-1.72-3.64l.35-.25Zm1.89,18.83c6.58,1.93,4.06,6.58,1.75,4.69-.17-1.5-1.19-3.36-2.13-4.45l.38-.25Zm6.62,1.12c7.56,2.14,5.04,7.74,2.45,5.67-.14-1.89-1.47-4.13-2.77-5.39l.32-.28Z"/>
      <path class="cls-2" d="M101.23,33.6c-.24,.28-.77,.56-1.47,.74v21.11c-.04,.28-1.58,.98-2.66,.98h-.49v-2.7h-6.2v2.7c0,.35-1.19,1.12-2.52,1.12h-.53V31.29l3.22,1.47h.63c.32-1.86,.74-4.55,.98-6.48l4.83,1.16c-.17,.56-.63,.8-1.4,.8-.84,1.33-2.06,3.12-3.04,4.52h3.68l1.61-1.82,3.36,2.66Zm-10.82,.17v8.72h6.2v-8.72h-6.2Zm6.2,18.94v-9.21h-6.2v9.21h6.2Zm21.7-19.11c-.28,.32-.7,.53-1.5,.63-.25,13.58-.8,20.62-2.59,22.65-1.12,1.29-2.62,1.82-4.66,1.82,0-1.09-.17-1.92-.73-2.42-.6-.56-2-1.05-3.61-1.33l.03-.56c1.65,.17,4.1,.35,4.94,.35,.7,0,.98-.11,1.37-.46,1.3-1.26,1.72-8.61,1.96-20.58h-7.35c-1.61,2.91-3.5,5.46-5.6,7.35l-.49-.32c2.06-3.54,4.09-9.1,5.15-14.46l4.66,1.37c-.14,.42-.56,.73-1.33,.73-.53,1.51-1.16,2.94-1.86,4.31h6.44l1.89-2,3.29,2.91Zm-14.98,6.27c9.45,3.33,6.37,10.12,3.19,7.46-.28-2.42-1.96-5.36-3.5-7.25l.32-.21Z"/>
      <path class="cls-2" d="M139.84,37.73c1.22,6.54,5.15,13.27,15.23,17.54l-.07,.39c-1.75,.31-2.83,1.26-3.22,3.15-8.82-5.11-11.55-13.62-12.53-20.58-1.01,8.3-4.38,15.47-16.77,20.58l-.38-.56c9.98-5.71,12.85-12.6,13.65-20.51h-12.99l-.32-1.02h13.37c.28-3.29,.25-6.76,.25-10.36l4.97,.49c-.1,.53-.42,.88-1.26,1.02-.07,3.04-.11,6.02-.35,8.86h8.86l2.28-2.87s2.59,1.96,4.13,3.33c-.1,.38-.49,.56-.98,.56h-13.86Z"/>
      <path class="cls-2" d="M166.05,48.44c1.58-.46,3.19-.95,4.83-1.44l.14,.46c-2.14,1.4-5.29,3.47-9.77,5.99-.14,.46-.42,.81-.8,.95l-2.03-3.96c.95-.21,2.52-.59,4.45-1.12v-12.04h-4.06l-.28-1.02h4.34v-9.24l4.48,.45c-.1,.49-.38,.84-1.29,.98v7.81h1.08l1.58-2.45s1.82,1.71,2.8,2.91c-.07,.38-.42,.56-.91,.56h-4.55v11.17Zm23.7,5.78c1.16,.38,1.47,.74,1.47,1.33,0,1.58-1.72,2.07-9.31,2.03h-5.04c-3.85,0-5.15-.67-5.15-3.5v-13.34l-3.12,1.37-.7-.8,3.82-1.65v-8.58l4.38,.49c-.07,.46-.42,.84-1.22,.95v5.78l3.75-1.65v-10.5l4.34,.45c-.11,.49-.39,.84-1.3,.98v7.74l4.1-1.75,.07-.04,1.64-1.68,2.98,3.08c-.28,.28-.67,.42-1.4,.46-.8,4.13-2.38,10.12-4.41,14.07l-.46-.25c.84-4.34,1.4-10.36,1.61-14.56l-4.13,1.79v14.11c0,.35-1.33,1.05-2.49,1.05h-.56v-13.83l-3.75,1.65v13.9c0,1.02,.42,1.37,2.31,1.37h4.94c2.1,0,3.64-.04,4.38-.11,.56-.03,.88-.17,1.16-.52,.38-.63,.94-2.45,1.58-4.9h.42l.1,5.08Z"/>
      <path class="cls-2" d="M209.1,26.5s2.07,1.61,3.26,2.8c-.11,.39-.38,.56-.91,.56h-5.18v5.04h.84l1.54-1.71,3.15,2.56c-.21,.28-.73,.56-1.43,.7v20.62c-.04,.28-1.44,.95-2.45,.95h-.46v-2.24h-8.47v1.86c0,.31-1.09,1.01-2.35,1.01h-.46v-25.06l2.98,1.33h.95v-5.04h-4.8l-.28-1.02h12.32l1.75-2.34Zm-1.64,28.25v-9.66c-.28,.04-.63,.04-1.02,.04h-.88c-1.43,0-1.68-.53-1.68-1.75v-7.45h-1.4v1.43c0,2.63-.25,6.58-3.47,9.28l-.03-.04v8.16h8.47Zm-8.47-18.83v9.63c1.58-2.73,1.61-5.78,1.61-8.19v-1.43h-1.61Zm5.71,11.1s1.33,1.12,2.17,2c-.1,.39-.42,.56-.88,.56h-5.95l-.28-1.02h3.75l1.19-1.54Zm-.8-17.15h-1.4v5.04h1.4v-5.04Zm1.96,6.06v6.76c0,.35,.07,.46,.32,.46h1.29v-7.21h-1.61Zm20.83,18.17c.98,.35,1.23,.73,1.23,1.33,0,1.37-1.44,2-7.18,2h-3.75c-3.19,0-3.96-.7-3.96-3.08v-17.12l3.54,1.4h5.67v-8.72h-8.93l-.32-1.02h8.86l1.64-1.82,3.54,2.7c-.25,.32-.88,.67-1.68,.84v11.41c-.04,.21-1.58,.84-2.59,.84h-.52v-3.22h-6.13v13.97c0,.63,.21,.88,1.5,.88h3.33c1.47,0,2.59-.04,3.04-.07s.63-.14,.8-.52c.35-.63,.84-2.7,1.37-5.01h.46l.07,5.22Z"/>
      <path class="cls-2" d="M261.82,54.05c1.5,.42,2,.63,2,1.33,0,1.58-1.47,2.59-7.98,2.59h-13.13c-4.69,0-6.9-1.12-6.9-4.9v-14.95c-1.44,1.22-2.94,2.31-4.48,3.19l-.35-.35c3.99-3.46,7.91-9.7,9.77-14.91l4.87,1.26c-.14,.38-.46,.56-1.37,.49-.46,.84-.98,1.68-1.54,2.52h6.76l1.92-1.89,3.33,2.94c-.28,.28-.7,.35-1.4,.42-1.4,1.4-3.54,3.4-5.53,4.66h8.05l1.68-1.85,3.57,2.73c-.25,.32-.81,.63-1.54,.77v9.35c-.04,.25-1.68,.91-2.77,.91h-.56v-2.31h-17.15v7.14c0,1.33,1.16,1.64,3.5,1.64h12.95c2.2,0,3.22-.14,3.85-.98,.59-.77,1.43-3.12,2-4.97h.42l.04,5.18Zm-19.85-22.72c-1.12,1.58-2.42,3.12-3.82,4.59l1.37,.52h7.39c.91-1.4,1.96-3.54,2.59-5.11h-7.53Zm-2.91,13.69h6.86v-7.56h-6.86v7.56Zm10.08-7.56v7.56h7.07v-7.56h-7.07Z"/>
      <path class="cls-2" d="M272.38,46.13c2.07-1.19,3.01-2.7,3.46-4.52-1.82-.8-2.97-1.68-2.97-3.18,0-1.26,.88-2.35,2.41-2.35s2.66,1.16,2.66,3.33c0,2.66-1.26,6.06-4.97,7.84l-.59-1.12Z"/>
      <path class="cls-2" d="M292.89,32.94c-.21,2.28-1.29,5.15-5.67,6.9l-.32-.49c2.77-2.31,3.05-5.15,3.05-7.56v-4.06l3.5,1.08c2.42-.8,4.97-1.82,6.44-2.55l2.87,2.83c-.39,.32-1.05,.28-1.89-.07-2.03,.35-5.11,.7-7.91,.84v2.07h6.23l1.64-2.03s1.89,1.43,3.01,2.49c-.07,.38-.42,.56-.91,.56h-3.78v4.52c-.04,.17-.98,.74-2.52,.74h-.53v-5.25h-3.22Zm-5.32,25.27c4.34-1.16,9.21-3.57,11.55-5.43l3.68,2.7c-.32,.35-.95,.42-1.89,.14-3.15,1.4-8.37,2.7-13.16,3.12l-.18-.53Zm28.11-28.46s2,1.51,3.19,2.63c-.07,.38-.42,.56-.91,.56h-4.59v4.45c-.04,.11-.59,.49-1.58,.67l2.84,2.14c-.21,.25-.7,.52-1.3,.63v11.73c-.03,.24-1.68,.88-2.76,.88h-.56v-1.44h-13.69v1.05c0,.28-1.43,1.05-2.8,1.05h-.53v-16.17l3.54,1.43h13.13l1.16-1.22h-.56v-5.18h-3.19c-.35,2-1.64,4.38-5.88,5.81l-.32-.46c2.98-2.13,3.33-4.69,3.33-6.9v-3.75l3.26,.98c2.52-.73,5.18-1.68,6.76-2.38l2.87,2.91c-.39,.32-1.05,.28-1.89-.11-2.03,.28-5.11,.6-7.98,.74v2.14h6.72l1.75-2.17Zm-19.36,10.61v2.83h13.69v-2.83h-13.69Zm0,3.82v2.87h13.69v-2.87h-13.69Zm13.69,6.79v-2.91h-13.69v2.91h13.69Zm-5.18,2.66c18.13,.52,12.22,6.93,8.89,4.58-1.72-1.33-4.8-2.98-9.03-4.09l.14-.49Z"/>
      <path class="cls-2" d="M354.57,54.88c1.01,1.92,1.19,2.94,.63,3.36-1.4,1.16-3.85-.38-5.11-1.96-2.31-2.8-3.92-6.23-5.01-10.15-1.54,1.08-3.29,1.93-5.11,2.59l-.35-.46c1.75-1.05,3.46-2.42,5-4.06-.84-3.82-1.3-7.95-1.47-12.29h-14.49v6.58c0,5.71-.25,14-5.32,19.6l-.46-.32c2.63-5.85,2.8-13.09,2.8-19.29v-9l3.5,1.4h13.9c-.04-1.58-.07-3.15-.07-4.8l4.55,.49-.07-.07,.35-.25c5.95,1.16,3.46,5,1.37,3.33-.17-1.05-.91-2.21-1.61-2.94-.07,.42-.38,.77-1.26,.91-.04,1.12-.04,2.21,0,3.33h4.66l1.64-2.24s1.86,1.58,2.98,2.7c-.1,.38-.46,.56-.91,.56h-8.37c.07,3.04,.31,6.12,.8,9,1.29-2,2.38-4.3,3.12-6.86l4.24,1.68c-.17,.42-.59,.7-1.37,.59-1.43,3.22-3.22,5.74-5.36,7.74,.91,3.61,2.31,6.76,4.45,9.1,.49,.59,.7,.59,1.02-.11,.46-.88,1.19-2.55,1.71-4.03l.42,.07-.8,5.78Zm-25.06-5.81c1.08,3.33,.66,5.95-.21,7.11-.63,.7-1.96,.91-2.49,.14-.42-.77-.04-1.61,.7-2.17,.84-.91,1.61-3.15,1.37-5.08h.63Zm10.5-16.14s1.89,1.47,3.12,2.59c-.11,.39-.46,.56-.95,.56h-12.36l-.28-1.02h8.72l1.75-2.13Zm-6.65,13.16c0,.25-1.33,.91-2.52,.91h-.42v-9.84l3.08,1.26h4.76l1.47-1.54,3.15,2.38c-.17,.25-.7,.52-1.3,.63v5.43c-.04,.25-1.54,.8-2.49,.8h-.53v-1.33h-5.21v1.29Zm8.12,8.96c.77,.28,.95,.63,.95,1.12,0,1.08-1.09,1.65-5.43,1.65h-2.7c-2.52,0-2.94-.59-2.94-2.35v-7.63l3.6,.35c-.03,.46-.38,.77-1.01,.88v5.74c0,.42,.1,.53,.98,.53h2.24c1.05,0,1.82,0,2.13-.04,.32,0,.42-.07,.59-.38,.28-.49,.63-2.03,1.05-3.75h.42l.1,3.88Zm-8.12-15.61v4.34h5.21v-4.34h-5.21Zm1.92,7.14c6.3,3.22,3.54,7.84,1.4,5.71,.04-1.79-.91-4.06-1.82-5.46l.42-.25Zm6.55,2.07c6.65,3.89,4.03,8.96,1.71,6.79-.04-2.17-1.12-4.83-2.17-6.58l.45-.21Z"/>
      <path class="cls-2" d="M377.17,46.06c-.38,2.35-1.22,4.41-2.76,6.27,4.66,2.03,10.85,2.77,17.5,2.91v.42c-1.4,.42-2.28,1.5-2.56,3.12-6.72-.67-12.36-2.03-16.49-4.94-2.63,2.21-6.72,3.88-13.02,5.04l-.17-.49c5.6-1.79,9.14-3.71,11.31-6.12-1.29-1.23-2.38-2.66-3.29-4.38l.46-.38c.98,1.4,2.28,2.56,3.82,3.54,.98-1.47,1.58-3.12,1.89-4.97h-6.2v1.09c0,.31-1.44,1.05-2.77,1.05h-.49v-15.37l3.5,1.44h6.27v-3.99h-13.69l-.28-1.02h25.13l2.14-2.62s2.48,1.79,3.92,3.08c-.07,.39-.46,.56-.91,.56h-12.99v3.99h6.34l1.64-1.75,3.47,2.62c-.21,.28-.74,.6-1.44,.74v11.2c-.03,.25-1.71,.91-2.8,.91h-.53v-1.93h-7Zm-9.52-10.78v4.3h6.51v-4.3h-6.51Zm6.34,9.77c.14-1.02,.17-2.1,.17-3.26v-1.19h-6.51v4.45h6.34Zm10.19,0v-4.45h-6.69v1.08c0,1.16-.07,2.28-.17,3.36h6.86Zm-6.69-9.77v4.3h6.69v-4.3h-6.69Z"/>
      <path class="cls-2" d="M424.81,38.36s2.28,1.82,3.71,3.15c-.11,.38-.46,.56-.98,.56h-7.53v15.47c0,.42-1.47,1.23-2.73,1.23h-.63v-16.7h-8.47c-.32,6.16-2.07,12.67-10.85,16.7l-.28-.39c6.09-4.62,7.56-10.29,7.81-16.31h-8.72l-.28-1.01h9.03v-9.31c-2.52,.53-5.15,.95-7.67,1.19l-.14-.53c5.15-1.37,11.38-3.92,14.49-5.85l3.54,2.94c-.32,.32-1.02,.35-2,.04-1.37,.49-3.05,.98-4.9,1.44v10.08h8.44v-14.49l4.62,.49c-.07,.49-.35,.84-1.26,.98v13.02h2.7l2.1-2.7Z"/>
      <path class="cls-2" d="M435.27,49.04c1.23,3.64,.84,6.41-.1,7.77-.66,.91-2.24,1.12-2.87,.18-.46-.84-.07-1.79,.7-2.42,.91-1.01,1.93-3.43,1.72-5.53h.56Zm-2.7-4.45s.81-.17,1.12-.38c1.71-1.33,3.82-3.89,5.53-6.44-1.26,.45-2.8,.98-4.34,1.47-.25,.35-.53,.59-.81,.7l-1.54-3.71s.7-.14,.98-.35c1.86-1.92,4.17-6.93,4.94-9.59l4.1,2.06c-.18,.32-.56,.56-1.26,.49-1.43,2.28-4.09,5.46-6.41,7.56,1.43,0,3.33,0,5.29-.04,.81-1.37,1.51-2.63,1.96-3.64l3.71,2.52c-.17,.28-.67,.49-1.33,.35-1.93,2.66-5.71,6.44-9.14,9,1.85-.11,4.38-.28,6.93-.46-.39-1.26-.95-2.52-1.44-3.43l.42-.17c6.51,3.54,3.82,8.44,1.54,6.3-.04-.56-.1-1.19-.28-1.79-1.96,.7-4.73,1.65-7.7,2.52-.28,.38-.59,.63-.95,.73l-1.33-3.71Zm5.71,3.85c5.15,4.48,1.89,9.21-.14,6.69,.35-2.14,.07-4.76-.35-6.55l.49-.14Zm3.4-.63c6.12,2.62,3.43,7.32,1.22,5.29,0-1.71-.8-3.78-1.65-5.08l.42-.21Zm22.86-8.3c-.24,.35-.63,.46-1.43,.56-1.02,4.03-2.59,7.7-5.15,10.89,2.07,2.06,4.55,3.71,7.28,4.9l-.1,.38c-1.37,.11-2.45,1.01-3.08,2.52-2.42-1.58-4.38-3.43-6.02-5.78-2.45,2.38-5.63,4.31-9.73,5.71l-.28-.49c3.71-1.82,6.62-4.27,8.79-7.14-1.68-3.12-2.87-6.9-3.57-11.55h-.53c-.56,7.28-2.21,13.97-7.42,19.25l-.56-.49c5.32-8.19,5.18-18.48,5.22-28.46h-2.59l-.32-1.02h11.94l1.4-1.57,3.15,2.52c-.28,.28-.59,.39-1.23,.46l-1.19,8.3h.46l1.85-1.79,3.12,2.8Zm-13.48-9.7c-.04,2.94-.07,5.85-.28,8.68h5.22l1.19-8.68h-6.12Zm.88,9.7c.84,3.78,2.28,6.93,4.27,9.45,1.75-2.83,2.87-6.05,3.57-9.45h-7.84Z"/>
      <path class="cls-2" d="M471.25,42.49c0-2.73,2.24-4.94,4.97-4.94s4.94,2.21,4.94,4.94-2.21,4.97-4.94,4.97-4.97-2.24-4.97-4.97Zm1.26,0c0,2.03,1.65,3.71,3.71,3.71s3.67-1.68,3.67-3.71-1.64-3.67-3.67-3.67-3.71,1.64-3.71,3.67Z"/>
      <path class="cls-2" d="M504.68,47.36c-3.36,2-8.02,4.66-14.67,7.7-.14,.42-.46,.81-.84,.95l-1.92-3.96c1.16-.25,2.91-.7,4.97-1.3l-.35-22.61,4.62,.35c-.04,.49-.32,.88-1.26,1.01l.32,20.27c2.8-.88,5.95-1.86,9-2.87l.14,.45Zm13.23-18.62c-.07,.52-.49,.95-1.33,1.01-.32,7.46-.84,13.76-4.48,18.83,10.75,4.62,8.61,11.66,4.9,9.35-1.01-2.62-3.43-5.81-5.67-8.3-3.04,3.67-7.88,6.72-15.75,9.14l-.32-.6c16.38-7.35,17.4-16.38,17.68-29.93l4.97,.49Zm-18.38,3.43c10.82,3.57,8.26,10.71,4.73,8.23-.74-2.63-3.15-5.88-5.08-8.02l.35-.21Z"/>
      <path class="cls-2" d="M524.24,34.62c8.19,1.09,5.74,6.93,2.73,4.93-.38-1.68-1.82-3.57-3.04-4.69l.31-.24Zm32.27-4.59c-.21,.28-.59,.35-1.3,.38-1.01,.98-2.83,2.56-3.95,3.43l-.39-.21c.21-.95,.56-2.59,.84-3.85h-14.91c.53,5.57-3.22,5.88-3.92,4.24-.98,4.03-2.77,11.13-3.12,12.74-.21,1.09-.35,2.24-.35,3.12,.07,1.72,1.33,3.19,1.19,6.23-.07,1.64-1.05,2.7-2.49,2.7-.7,0-1.37-.56-1.54-1.79,.56-3.57,.42-6.72-.35-7.25-.46-.35-.98-.46-1.71-.53v-.74h1.5c.42,0,.6,0,.91-.73q.63-1.23,5.43-14.11l.46,.07c-.07-.42,.07-.98,.53-1.58,1.29-.8,2.21-2.48,2.34-5.42h.53c.21,.73,.35,1.4,.46,2.03h14.88l1.82-1.82,3.15,3.08Zm-29.93-3.4c8.51,1.65,5.74,7.53,2.73,5.29-.39-1.75-1.82-3.78-3.05-5.04l.32-.25Zm18.69,18.45c2.42,3.99,6.79,7.25,10.75,8.82l-.07,.39c-1.33,.25-2.35,1.29-2.8,2.97-3.57-2.41-6.41-6.3-8.26-11.24v11.76c0,.35-1.43,.98-2.62,.98h-.63v-9.87c-2.49,3.5-6.02,6.37-10.15,8.58l-.38-.49c3.85-3.05,7-7.53,8.79-11.9h-7.11l-.28-1.02h9.14v-4.52l4.48,.46c-.11,.46-.35,.81-1.23,.91v3.15h5.46l1.89-2.55s2.24,1.75,3.57,3.01c-.1,.39-.46,.56-.94,.56h-9.59Zm-1.89-13.93c-.07,.38-.35,.74-1.08,.84-.32,3.68-.81,7.21-8.47,9.56l-.42-.53c5.67-2.73,5.71-6.23,5.81-10.26l4.17,.38Zm6.51,.17c-.04,.42-.39,.7-.98,.81v4.66c0,.42,.07,.52,.74,.52h3.15c.21,0,.49-.03,.63-.07,.21,0,.53-.07,.74-.14h.31l.14,.04c.8,.32,1.08,.56,1.08,1.12,0,1.12-1.08,1.54-4.76,1.54h-2.17c-2.38,0-2.7-.63-2.7-2.42v-6.44l3.82,.38Z"/>
      <path class="cls-2" d="M590.82,54.05c1.5,.42,2,.63,2,1.33,0,1.58-1.47,2.59-7.98,2.59h-13.13c-4.69,0-6.9-1.12-6.9-4.9v-14.95c-1.44,1.22-2.94,2.31-4.48,3.19l-.35-.35c3.99-3.46,7.91-9.7,9.77-14.91l4.87,1.26c-.14,.38-.46,.56-1.37,.49-.46,.84-.98,1.68-1.54,2.52h6.76l1.92-1.89,3.33,2.94c-.28,.28-.7,.35-1.4,.42-1.4,1.4-3.54,3.4-5.53,4.66h8.05l1.68-1.85,3.57,2.73c-.25,.32-.81,.63-1.54,.77v9.35c-.04,.25-1.68,.91-2.77,.91h-.56v-2.31h-17.15v7.14c0,1.33,1.16,1.64,3.5,1.64h12.95c2.2,0,3.22-.14,3.85-.98,.59-.77,1.43-3.12,2-4.97h.42l.04,5.18Zm-19.85-22.72c-1.12,1.58-2.42,3.12-3.82,4.59l1.37,.52h7.39c.91-1.4,1.96-3.54,2.59-5.11h-7.53Zm-2.91,13.69h6.86v-7.56h-6.86v7.56Zm10.08-7.56v7.56h7.07v-7.56h-7.07Z"/>
      <path class="cls-2" d="M627.91,41.41c-.28,.35-.63,.46-1.47,.53-1.19,3.46-2.87,6.62-5.32,9.31,2.45,2,5.46,3.36,8.82,4.34l-.07,.38c-1.44,.25-2.49,1.23-3.01,2.8-3.15-1.4-5.71-3.19-7.74-5.57-2.7,2.34-6.13,4.24-10.5,5.57l-.28-.46c3.92-1.75,7-4.13,9.42-7-1.68-2.59-2.87-5.81-3.57-9.91h-1.26c-.03,5.88-.91,12.88-8.23,17.29l-.38-.35c2.76-2.87,4.17-6.23,4.83-9.73-2.41,1.54-5.88,3.68-10.4,6.2-.11,.42-.45,.81-.77,.95l-1.58-3.88c.95-.21,2.59-.7,4.59-1.3v-9.84h-3.71l-.28-1.01h3.99v-8.58h-3.89l-.28-1.01h7.81l1.89-2.52s2.13,1.75,3.4,2.97c-.04,.11-.07,.18-.11,.25l3.61,1.4h3.71v-5.95l4.48,.42c-.04,.49-.35,.84-1.26,.98v4.55h4.17l1.89-1.89,3.26,3.12c-.25,.28-.63,.35-1.33,.38-1.05,1.3-2.87,3.05-4.31,4.1l-.42-.25c.42-1.23,.84-3.05,1.12-4.45h-4.38v7.14h2.38l1.92-1.89,3.25,2.91Zm-18.2-10.47c-.18,.14-.42,.21-.74,.21h-4.76v8.58h.81l1.61-2.38s1.79,1.68,2.8,2.84c-.11,.38-.42,.56-.91,.56h-4.31v8.86c1.61-.53,3.33-1.09,5.04-1.61,.35-2.28,.46-4.59,.46-6.93v-10.12Zm3.22,2.31v7.14h4.2v-7.14h-4.2Zm1.93,8.16c.91,3.29,2.38,5.92,4.31,8.02,1.68-2.42,2.91-5.11,3.71-8.02h-8.02Z"/>
      <path class="cls-2" d="M640.2,49.77c1.44-.46,2.94-.98,4.48-1.44l.14,.39c-2,1.4-5.01,3.5-9.17,6.06-.07,.45-.38,.8-.77,.94l-1.96-3.78c.91-.21,2.34-.63,4.13-1.19v-10.01h-3.36l-.28-1.01h3.64v-8.93h-3.64l-.28-1.02h6.97l1.82-2.42s2.07,1.68,3.29,2.87v.04h8.54c-.14-.07-.25-.14-.35-.21-.14-1.4-1.08-2.91-2.03-3.82l.32-.21c5.32,.38,5.36,3.36,3.89,4.24h5.08l1.89-2.38s2.07,1.64,3.36,2.84c-.1,.38-.42,.56-.91,.56h-20.13l-.14-.56c-.14,.04-.28,.07-.46,.07h-4.06v8.93h.28l1.47-2.24s1.68,1.58,2.63,2.7c-.11,.38-.42,.56-.91,.56h-3.47v9.03Zm25.87-3.99c-.21,.25-.74,.59-1.47,.7v8.37c0,2.14-.49,3.43-4.27,3.82-.1-.95-.28-1.71-.77-2.17s-1.23-.84-2.84-1.05v-.53s3.26,.25,4.06,.25c.6,0,.74-.25,.74-.7v-8.54h-6.9c-.67,1.44-1.33,2.87-2,4.13,1.43-.11,3.05-.25,4.66-.39-.49-1.01-1.05-1.96-1.58-2.73l.38-.21c6.9,3.33,4.52,8.26,2.21,6.23-.07-.77-.31-1.65-.67-2.52-1.64,.67-3.75,1.54-6.65,2.52-.17,.46-.49,.7-.84,.77l-1.65-3.43c.74,0,1.86-.07,3.12-.18,.28-1.29,.53-2.76,.77-4.2h-4.24v11.9c0,.17-.98,.91-2.52,.91h-.49v-12.81h-.98l-.56-1.01h1.54v-1.65l3.33,1.65h4.1c.21-1.26,.38-2.38,.49-3.36h-3.64l-.95,1.47-3.04-1.89c.17-.24,.52-.56,.88-.8v-8.12l4.27,.39c-.07,.42-.38,.73-1.4,.88v7.07h11.17v-8.05l4.06,.38c-.07,.45-.35,.77-1.16,.88v8.51c0,.25-1.29,.81-2.34,.81h-.56v-1.5h-3.78c-.42,.98-.91,2.13-1.47,3.36h6.09l1.43-1.72,3.47,2.59Zm-6.16-12.57c-.21,.35-.46,.56-1.29,.46-.49,.77-1.09,1.54-1.75,2.28,3.25,2.06,2.45,4.58,.42,3.88-.53-.7-1.33-1.47-2.24-2.28-1.47,1.12-3.19,2.1-5.08,2.7l-.28-.52c1.47-.84,2.8-2.03,3.88-3.26-1.19-.91-2.42-1.71-3.46-2.31l.31-.39c1.72,.28,3.19,.67,4.34,1.12,.7-1.01,1.23-2.07,1.61-3.08l3.54,1.4Z"/>
      <path class="cls-2" d="M699.24,52.54s2.13,1.68,3.36,2.91c-.07,.38-.46,.56-.88,.56h-15.23v1.71c0,.25-.98,.95-2.52,.95h-.56v-20.27c-.95,1.15-1.96,2.24-3.01,3.18l-.38-.35,.28-.42c-.81,.59-1.75,1.33-2.8,2.1v11.41c0,2.48-.45,3.95-4.38,4.38-.11-1.12-.32-2-.77-2.52-.53-.59-1.29-.95-2.87-1.22v-.53s3.36,.25,4.1,.25c.56,0,.73-.21,.73-.7v-8.79c-.77,.53-1.61,1.08-2.49,1.68-.03,.42-.35,.84-.7,.98l-1.79-3.78c1.02-.31,2.8-.94,4.97-1.79v-6.9h-4.48l-.28-1.01h4.76v-8.16l4.48,.45c-.07,.53-.42,.88-1.3,.98v6.72h.56l1.58-2.28s1.79,1.61,2.83,2.73c-.11,.38-.46,.56-.91,.56h-4.06v5.67c1.12-.46,2.31-.95,3.43-1.4,2.31-4.1,3.99-9.52,4.62-13.34l4.73,1.47c-.14,.38-.42,.63-1.29,.63-.53,1.47-1.26,3.08-2.17,4.76l.14,.07h9.94l1.82-2.38s2.1,1.65,3.33,2.84c-.11,.38-.42,.56-.91,.56h-6.79v6.13h1.82l1.68-2.35s2,1.61,3.19,2.8c-.1,.38-.42,.56-.95,.56h-5.74v6.13h1.82l1.68-2.38s2,1.64,3.19,2.83c-.1,.38-.42,.56-.95,.56h-5.74v6.44h3.01l1.89-2.45Zm-12.74-18.27v6.13h4.83v-6.13h-4.83Zm4.83,7.14h-4.83v6.13h4.83v-6.13Zm-4.83,13.58h4.83v-6.44h-4.83v6.44Zm3.82-28.95c7.95,2.73,4.45,8.72,1.61,5.99,.07-2-.91-4.27-1.96-5.78l.35-.21Z"/>
      <path class="cls-2" d="M718.25,27.2l3.25,2.45c-.21,.25-.7,.52-1.29,.63v10.85c-.07,.25-1.61,.91-2.62,.91h-.49v-2h-5.92v17.47c0,.46-1.22,1.26-2.73,1.26h-.59V27.3l3.47,1.54h5.42l1.51-1.64Zm-7.07,2.66v3.99h5.92v-3.99h-5.92Zm5.92,9.17v-4.17h-5.92v4.17h5.92Zm20.86-9.35c-.21,.31-.77,.59-1.44,.73v24.05c0,2.38-.56,3.85-5.11,4.27-.14-1.05-.42-1.86-1.08-2.38-.74-.53-1.75-.95-3.85-1.26v-.49s4.83,.32,5.74,.32c.74,0,.95-.28,.95-.84v-14.04h-6.13v.84c0,.28-1.36,1.01-2.73,1.01h-.46v-14.42l3.33,1.37h5.64l1.61-1.89,3.54,2.73Zm-10.92,.17v3.99h6.13v-3.99h-6.13Zm6.13,9.17v-4.17h-6.13v4.17h6.13Z"/>
      <path class="cls-2" d="M755.28,30.07c-.28,.31-.74,.38-1.54,.42-1.12,2.07-3.12,5.78-4.66,7.84,3.29,2.45,4.62,5.57,4.62,8.26,.04,3.36-1.16,5.08-4.59,5.18,0-.91-.14-2.03-.42-2.45-.25-.32-.8-.56-1.5-.7v-.53h1.96c.35,0,.56-.03,.81-.17,.46-.28,.7-.95,.7-2.13,0-2.38-.63-4.97-2.45-7.35,.67-2.17,1.65-6.13,2.17-8.79h-3.57v28.04c0,.28-.98,1.05-2.49,1.05h-.53V27.23l3.47,1.4h2.91l1.79-1.79,3.33,3.22Zm19.81,12.46c-.24,.25-.77,.56-1.5,.7v11.8c0,2.21-.42,3.47-3.82,3.78-.04-.95-.17-1.65-.52-2.1-.35-.46-.98-.84-2.14-1.02v-.49s2.24,.14,2.83,.14c.49,0,.63-.17,.63-.63v-5.39c-.14,.21-.39,.32-.77,.32h-4.62v7.11c0,.14-.95,.67-2.35,.67h-.49v-7.77h-4.06l-.28-1.02h6.54c.53-1.79,1.09-4.24,1.3-5.53l3.46,1.22c-.07,.32-.46,.7-1.19,.67-.6,.91-1.65,2.35-2.73,3.64h1.89l1.16-1.58s1.29,1.05,2.14,1.92v-6.3h-13.2v15.09c0,.17-.98,.95-2.56,.95h-.53v-18.48l3.54,1.43h12.39l1.44-1.68,3.43,2.55Zm-19.99-12.81l-.28-1.01h14.63l1.82-2.35s2.1,1.61,3.36,2.8c-.07,.38-.46,.56-.94,.56h-18.59Zm13.3,10.26v-1.44h-8.68v.91c0,.25-1.37,.95-2.56,.95h-.46v-9.07l3.19,1.33h8.19l1.47-1.58,3.19,2.38c-.21,.25-.7,.52-1.33,.63v5.08c-.04,.25-1.54,.81-2.52,.81h-.49Zm-8.72,3.25c5.43,2.21,3.01,6.2,1.02,4.41-.04-1.4-.77-3.12-1.47-4.2l.46-.21Zm8.72-5.67v-3.92h-8.68v3.92h8.68Z"/>
      <path class="cls-2" d="M44.12,88.57c-.04,.46-.35,.77-1.19,.91v12.29c0,.28-1.44,.84-2.66,.84h-.6v-2.83H19.02l-1.08,1.79-3.47-2.2c.28-.28,.67-.67,1.09-.91v-10.47l4.59,.46c-.07,.38-.39,.7-1.37,.84v9.49h8.65v-13.76h-6.72l-1.08,1.75-3.4-2.13c.25-.28,.63-.63,1.05-.91v-9.91l4.55,.46c-.07,.38-.38,.7-1.37,.84v8.89h6.97v-13.34l4.62,.49c-.1,.49-.35,.84-1.26,.98v11.87h7.18v-10.15l4.45,.46c-.07,.45-.35,.77-1.22,.91v10.89c0,.28-1.44,.88-2.62,.88h-.6v-1.96h-7.18v13.76h8.89v-10.64l4.45,.46Z"/>
      <path class="cls-2" d="M67.07,90.28c-.38,2.35-1.23,4.41-2.77,6.27,4.66,2.03,10.85,2.77,17.5,2.91v.42c-1.4,.42-2.28,1.5-2.55,3.12-6.72-.67-12.36-2.03-16.49-4.94-2.62,2.21-6.72,3.88-13.02,5.04l-.18-.49c5.6-1.79,9.14-3.71,11.31-6.12-1.29-1.23-2.38-2.66-3.29-4.38l.46-.38c.98,1.4,2.28,2.56,3.82,3.54,.98-1.47,1.58-3.12,1.89-4.97h-6.2v1.09c0,.31-1.43,1.05-2.76,1.05h-.49v-15.37l3.5,1.44h6.26v-3.99h-13.69l-.28-1.02h25.13l2.13-2.62s2.49,1.79,3.92,3.08c-.07,.39-.46,.56-.91,.56h-12.99v3.99h6.33l1.65-1.75,3.46,2.62c-.21,.28-.73,.6-1.43,.74v11.2c-.04,.25-1.71,.91-2.8,.91h-.52v-1.93h-7Zm-9.52-10.78v4.3h6.51v-4.3h-6.51Zm6.34,9.77c.14-1.02,.17-2.1,.17-3.26v-1.19h-6.51v4.45h6.34Zm10.19,0v-4.45h-6.69v1.08c0,1.16-.07,2.28-.18,3.36h6.86Zm-6.69-9.77v4.3h6.69v-4.3h-6.69Z"/>
      <path class="cls-2" d="M116.81,83.56c-.25,.32-.56,.49-1.37,.28-2.13,1.54-5.46,3.54-8.65,5.11,2.7,5.01,6.79,8.37,11.97,10.57l-.1,.35c-1.47,.1-2.66,1.01-3.33,2.49-7.21-4.31-11.03-10.96-12.36-22.75-1.47,2.1-3.33,4.1-5.5,5.88v12.36c2.38-.74,5.43-1.65,8.4-2.63l.14,.46c-2.13,1.37-6.02,3.85-10.54,6.34-.28,.56-.67,.91-1.01,1.08l-2.1-3.96c1.44-.77,1.68-1.12,1.68-1.79v-9.42c-2.48,1.54-5.18,2.91-8.12,3.96l-.28-.49c5.74-3.05,10.57-7.95,13.44-12.6h-12.81l-.28-1.02h26.11l2.1-2.59s2.42,1.75,3.85,3.04c-.07,.38-.45,.56-.98,.56h-13.55c.56,3.61,1.54,6.76,2.87,9.38,2.38-2.28,5.08-5.39,6.41-7.35l3.99,2.73Zm-17.85-12.99c8.72,2.07,5.67,8.54,2.52,6.06-.17-2.03-1.54-4.38-2.87-5.85l.35-.21Z"/>
      <path class="cls-2" d="M150.62,97.88s2.35,1.79,3.82,3.04c-.1,.38-.45,.56-.98,.56h-30.66l-.32-1.01h14.14v-5.22h-10.22l-.28-1.01h10.5v-4.97l4.69,.38c-.04,.53-.32,.84-1.19,.98v3.61h5.22l2-2.45s2.24,1.68,3.68,2.91c-.11,.38-.46,.56-.95,.56h-9.94v5.22h8.4l2.1-2.59Zm-23.1-21.74c.14,2.34-.74,3.96-1.86,4.69-.98,.66-2.45,.52-2.87-.56-.39-1.01,.25-1.89,1.12-2.34,1.29-.67,2.55-2.56,2.45-4.59l.52-.04c.25,.63,.39,1.26,.49,1.82h11.34c-.32-.04-.63-.17-.95-.38-.25-1.5-1.4-3.19-2.59-4.1l.28-.25c6.65,.07,6.13,4.34,3.92,4.73h10.12l1.82-1.86,3.22,3.12c-.28,.28-.63,.39-1.33,.42-.88,1.08-2.31,2.59-3.5,3.43l-.39-.21c.18-1.05,.39-2.62,.49-3.88h-22.3Zm-.98,11.13s.74-.11,1.09-.28c2.62-1.05,6.06-4.03,7.81-6.02h-8.02l-.28-1.01h17.15l1.89-2.24s2.14,1.54,3.47,2.7c-.07,.38-.46,.56-.91,.56h-11.31l2.73,1.44c-.17,.31-.63,.56-1.37,.42-2.06,1.47-5.57,3.33-8.79,4.58,3.88-.04,9.84-.17,16.1-.42-1.09-1.29-2.31-2.49-3.36-3.36l.35-.28c10.47,2.35,8.79,9.07,5.36,7.25-.38-.91-1.01-1.89-1.75-2.87-4.24,.7-10.4,1.61-17.64,2.45-.28,.49-.63,.8-.98,.95l-1.54-3.85Z"/>
      <path class="cls-2" d="M189.12,90.6s1.71,1.58,2.66,2.7c-.07,.38-.42,.56-.88,.56h-32.24l-.28-1.02h3.78l-.52-20.44,3.29,1.12c1.23-1.16,2.49-2.45,3.08-3.19l2.91,2.77c-.25,.25-.59,.28-1.12,.04-1.05,.46-3.08,1.23-5,1.71l.14,4.97h1.33l1.29-1.82s1.44,1.29,2.28,2.28c-.1,.38-.42,.56-.88,.56h-3.99l.14,5.63h1.4l1.33-1.92s1.47,1.4,2.35,2.38c-.07,.39-.42,.56-.88,.56h-4.17l.14,5.36h19.01l.14-5.36h-3.75l-.32-1.02h4.06l.14-5.63h-3.39l-.32-1.02h3.75l.11-5.53h-4.24l-.32-1.02h4.24l1.47-1.79,3.22,2.7c-.25,.32-.56,.42-1.26,.53l-.42,18.13h.21l1.5-2.24Zm-30.24,11.94c4.03-2,8.16-5.6,9.94-8.23l4.55,2.03c-.21,.42-.73,.6-1.79,.49-2.73,2.35-7.53,4.8-12.46,6.16l-.25-.46Zm16.03-19.08c-.11,.42-.49,.77-1.23,.8-.8,2.91-2.07,5.74-3.64,7.63l-.56-.28c.8-2.38,1.4-5.78,1.61-8.96l3.82,.8Zm-5.08-3.12c.32-.25,.81-.53,1.26-.74,.38-2.59,.8-6.86,.84-8.89l3.96,.59c-.07,.38-.38,.81-1.22,.88-.07,.74-.14,1.61-.25,2.49h2.41l1.4-1.89s1.54,1.4,2.45,2.34c-.07,.38-.42,.56-.88,.56h-5.5c-.14,1.47-.31,2.97-.49,4.24h2.91l1.44-1.47,2.8,2.31c-.25,.28-.67,.42-1.37,.53-.21,6.37-.74,8.96-1.96,9.98-.8,.67-1.85,.95-3.08,.95,0-.77-.07-1.44-.46-1.79-.35-.35-1.01-.63-1.86-.81v-.56c.84,.07,2.14,.14,2.7,.14,.49,0,.7-.04,.95-.25,.6-.56,.98-2.91,1.16-8.02h-3.04l-1.19,1.4-2.98-2Zm8.51,14.67c17.15,2.73,11.66,10.26,8.54,7.14-1.4-2.06-4.2-4.66-8.72-6.62l.17-.53Z"/>
      <path class="cls-2" d="M203.68,79.92c-.7,1.22-1.58,2.59-2.63,4.03l1.65,.59c-.14,.32-.46,.56-1.08,.67v16.87c-.04,.25-1.33,.91-2.49,.91h-.56v-15.89c-1.08,1.19-2.24,2.38-3.43,3.39l-.39-.38c2.63-3.64,5.11-9.1,6.2-12.64l3.5,1.68h2.35c.21-1.08,.42-2.45,.66-3.92h-2.91l-.32-1.02h3.36c.21-1.26,.38-2.52,.53-3.67l3.92,.46c-.07,.49-.49,.88-1.22,.94l-.35,2.28h2.38l1.54-1.65,3.19,2.42c-.25,.28-.81,.56-1.51,.7v3.46h.14l1.5-2.13s1.68,1.5,2.7,2.59c-.07,.38-.42,.56-.91,.56h-15.61l-.07-.25h-.14Zm.7-7.49c-.17,.38-.49,.56-1.3,.46-1.71,2.24-4.69,5.29-7.74,7.35l-.38-.38c2.13-2.7,4.38-6.79,5.36-9.38l4.06,1.96Zm8.44,24.5v5.21c0,.14-.98,.74-2.49,.74h-.53v-5.95h-2.97l-1.19,1.22-2.77-1.85c.32-.28,.81-.56,1.26-.74,.35-1.19,.7-2.73,.91-3.82h-1.79l-.28-1.02h6.83v-2.97h-1.82v.42c0,.21-1.33,.84-2.48,.84h-.42v-8.33l3.05,1.26h5.15l1.4-1.44,2.91,2.21c-.14,.25-.6,.49-1.16,.6v4.41c-.04,.21-1.44,.77-2.38,.77h-.46v-.73h-.77v2.97h1.54l1.44-1.92s1.64,1.4,2.62,2.38c-.07,.39-.38,.56-.88,.56h-4.73v4.17h2.21l1.61-2.06s1.89,1.43,3.01,2.52c-.1,.39-.46,.56-.88,.56h-5.95Zm-3.01-1.02v-4.17h-2.03c-.25,1.22-.67,2.87-.98,4.17h3.01Zm-1.82-9.17h5.6v-3.78h-5.6v3.78Zm2.35-11.52c-.21,1.4-.45,2.8-.63,3.92h3.5v-3.92h-2.87Zm14.18,3.95s2.03,1.65,3.22,2.8c-.1,.39-.42,.56-.88,.56h-2.45v16.31c0,2.24-.56,3.78-4.34,4.1-.03-.95-.24-1.71-.7-2.17-.53-.46-1.33-.84-2.98-1.09v-.49s3.43,.21,4.17,.21c.63,0,.77-.18,.77-.67v-16.21h-3.68l-.28-1.02h5.39l1.75-2.34Zm-6.51-4.45l-.28-.98h4.17l1.75-2.31s2.03,1.61,3.25,2.73c-.04,.39-.42,.56-.88,.56h-8.02Z"/>
      <path class="cls-2" d="M231.5,78.31c8.23,1.22,5.78,7.07,2.8,5.01-.38-1.65-1.79-3.61-3.12-4.73l.32-.28Zm10.05-1.96c-1.4,4.45-4.06,12.64-4.52,14.49-.31,1.19-.52,2.31-.52,3.22,.07,1.75,1.22,3.22,1.15,6.2-.07,1.68-.98,2.7-2.41,2.7-.74,0-1.37-.56-1.5-1.79,.56-3.64,.38-6.69-.42-7.25-.49-.35-1.02-.46-1.75-.52v-.74h1.54c.46,0,.59,0,.94-.7q.67-1.29,6.86-15.79l.63,.18Zm-7.6-5.57c8.58,1.44,6.06,7.42,2.98,5.39-.42-1.82-1.96-3.88-3.29-5.15l.32-.25Zm20.58,7.35c-.1,.42-.49,.63-1.43,.7,2.42,3.92,7.25,7.04,11.69,8.75l-.07,.49c-1.4,.39-2.31,1.68-2.56,2.94-.35-.21-.74-.46-1.08-.7-.25,.25-.59,.46-1.33,.6v11.03c0,.14-1.08,.77-2.7,.77h-.56v-2.62h-9.59v2.1c0,.25-.98,.81-2.62,.81h-.56v-14.11c-1.54,1.12-3.18,2.1-4.79,2.91l-.25-.42c4.58-3.36,9.63-9.87,10.85-14.39l5.01,1.16Zm-13.69,2.55c2.49-2.76,4.73-7.04,5.71-9.98l4.38,2.03c-.21,.35-.49,.56-1.33,.46-1.79,2.62-4.9,5.85-8.4,7.91l-.35-.42Zm18.17,7.98c-2.87-2.52-5.18-5.81-6.44-9.42-1.68,3.29-4.8,6.58-8.3,9.21l3.01,1.19h9.07l1.58-1.82,1.08,.84Zm-2.52,10.4v-8.4h-9.59v8.4h9.59Zm-2.66-27.97c11.73,3.04,9.94,10.54,6.27,8.44-1.16-2.73-4.2-6.12-6.62-8.16l.35-.28Z"/>
      <path class="cls-2" d="M300.28,76.98c-.25,.31-.63,.38-1.37,.42-1.09,1.22-3.01,2.91-4.55,3.85l-.35-.25c.35-1.19,.81-2.91,1.09-4.31h-5.53v4.9c0,.95,.04,.95,1.08,.95h5.5c.25,0,.59,0,.98-.14h.32l.17,.03c1.16,.42,1.33,.63,1.33,1.12,0,1.26-.77,1.82-4.03,1.82h-4.69c-3.57,0-3.92-.38-3.92-3.75v-4.94h-13.02c.28,2.59-.63,4.34-1.82,5.08-1.08,.7-2.52,.53-2.98-.59-.38-1.05,.28-1.92,1.19-2.42,1.33-.81,2.52-2.91,2.24-5.18l.53-.04c.31,.74,.52,1.47,.7,2.14h10.85c-.35-.07-.77-.28-1.16-.6-.07-1.68-.98-3.61-1.96-4.79l.32-.18c6.62,1.09,5.81,5.11,3.6,5.57h10.12l1.93-1.96,3.43,3.26Zm-16.77,2.07c-.14,.42-.52,.66-1.58,.66-2.34,3.75-5.88,6.51-12.43,7.53l-.25-.42c5.85-2.49,8.65-5.92,9.87-9.94l4.38,2.17Zm11.94,18.59s2.28,1.79,3.61,3.12c-.11,.38-.46,.56-.98,.56h-28.35l-.32-1.01h12.78v-10.92h-8.58l-.28-1.02h16.7l1.93-2.45s2.1,1.68,3.36,2.91c-.07,.38-.46,.56-.95,.56h-8.75v10.92h7.81l2.03-2.66Z"/>
      <path class="cls-2" d="M309.34,82.76v18.97c0,.46-1.19,1.26-2.73,1.26h-.56v-31.5l3.43,1.51h5.67l1.47-1.61,3.25,2.42c-.21,.25-.7,.53-1.33,.63v9.28c-.04,.21-1.58,.88-2.59,.88h-.49v-1.82h-6.13Zm0-8.75v3.36h6.13v-3.36h-6.13Zm6.13,7.77v-3.46h-6.13v3.46h6.13Zm11.48,16.77c-.04,.28-1.58,.98-2.62,.98h-.49v-2h-7.11v1.4c0,.31-1.29,.98-2.59,.98h-.46v-14.46l3.19,1.37h6.62l1.54-1.65,3.22,2.41c-.21,.28-.7,.56-1.29,.67v10.29Zm-10.22-10.75v3.78h7.11v-3.78h-7.11Zm7.11,8.75v-3.99h-7.11v3.99h7.11Zm12.32-22.72c-.25,.28-.77,.59-1.44,.74v24.22c0,2.42-.49,3.82-4.45,4.17-.11-1.02-.28-1.86-.7-2.38-.53-.49-1.26-.88-2.83-1.16v-.53s3.22,.25,3.88,.25,.77-.25,.77-.74v-15.65h-6.37v.7c0,.31-1.37,1.05-2.7,1.05h-.45v-12.88l3.33,1.37h5.85l1.57-1.86,3.54,2.7Zm-11.13,.17v3.36h6.37v-3.36h-6.37Zm6.37,7.77v-3.46h-6.37v3.46h6.37Z"/>
      <path class="cls-2" d="M345.18,90.35c2.07-1.19,3.01-2.7,3.46-4.52-1.82-.8-2.97-1.68-2.97-3.18,0-1.26,.88-2.35,2.41-2.35s2.66,1.16,2.66,3.33c0,2.66-1.26,6.06-4.97,7.84l-.59-1.12Z"/>
      <path class="cls-2" d="M364.54,82.55v19.22c0,.42-1.16,1.23-2.66,1.23h-.56v-31.5l3.4,1.51h5.53l1.47-1.61,3.22,2.42c-.21,.25-.67,.53-1.29,.63v8.72c-.04,.28-1.54,.98-2.59,.98h-.49v-1.58h-6.02Zm0-8.54v3.22h6.02v-3.22h-6.02Zm6.02,7.53v-3.33h-6.02v3.33h6.02Zm9.77,11.55v7.56c0,.17-.94,.74-2.38,.74h-.53v-8.3h-3.85c-.35,3.04-1.75,6.41-6.69,8.61l-.35-.42c3.08-2.42,4.03-5.36,4.27-8.19h-4.34l-.28-.98h4.66c.04-.38,.04-.8,.04-1.19v-3.82h-3.64l-.28-1.02h13.09l1.68-2.17s1.89,1.5,3.05,2.62c-.07,.38-.42,.56-.91,.56h-3.54v5h.56l1.61-2.17s1.82,1.5,2.94,2.59c-.11,.39-.46,.56-.95,.56h-4.17Zm-2.91-.98v-5h-3.71v3.82c0,.38,0,.77-.04,1.19h3.75Zm14.11-18.27c-.25,.28-.8,.59-1.47,.74v24.33c0,2.38-.46,3.71-4.2,4.1-.07-1.02-.21-1.86-.6-2.31-.46-.53-1.08-.91-2.45-1.16v-.49s2.73,.18,3.29,.18,.7-.21,.7-.66v-16h-6.27v.38c0,.28-1.36,.98-2.66,.98h-.46v-12.29l3.26,1.37h5.78l1.54-1.86,3.54,2.7Zm-10.99,.17v3.22h6.27v-3.22h-6.27Zm6.27,7.53v-3.33h-6.27v3.33h6.27Z"/>
      <path class="cls-2" d="M400.97,81.39v20.37c0,.42-1.19,1.23-2.66,1.23h-.56v-31.57l3.4,1.5h5.74l1.47-1.61,3.19,2.42c-.18,.25-.67,.53-1.3,.63v7.66c-.04,.28-1.54,.91-2.55,.91h-.53v-1.54h-6.2Zm0-7.46v2.66h6.2v-2.66h-6.2Zm6.2,6.44v-2.8h-6.2v2.8h6.2Zm-4.97,7.21c6.16,.21,4.2,4.76,1.82,3.26-.25-1.08-1.22-2.35-2.1-2.98l.28-.28Zm25.69-13.83c-.25,.28-.77,.6-1.44,.74v24.5c0,2.34-.46,3.64-4.13,3.96-.07-.95-.21-1.75-.56-2.24-.35-.42-.84-.77-1.82-.98v.6c-.04,.21-1.37,.77-2.24,.77h-.46v-1.47h-5.04v1.01c0,.21-1.16,.84-2.28,.84h-.39v-9.31l2.84,1.16h.98v-3.33h-4.87l-.07-.28c-.67,1.79-1.47,3.85-1.68,4.45-.25,.7-.46,1.5-.42,2.1,0,.98,.84,1.79,.8,3.33-.04,.98-.63,1.68-1.92,1.68-.53,0-.98-.42-1.08-1.09,.31-2.28,.14-3.5-.49-3.82-.38-.21-.77-.31-1.37-.38v-.74h1.5c.39,0,.46,0,.81-.56q.52-.81,3.96-7.04l.59,.17-.42,1.16h4.66v-2.98c-1.47,.14-3.01,.28-4.41,.32l-.17-.63c3.25-.67,7.32-2,9.35-2.98l2.56,2.52c-.35,.32-.95,.28-1.72-.07-.84,.17-1.82,.35-2.91,.49v3.33h1.86l1.54-1.89s1.68,1.37,2.73,2.34c-.1,.38-.42,.56-.88,.56h-5.25v3.33h.95l1.26-1.29,2.73,2.03c-.14,.21-.56,.42-1.05,.52v4.59c.74,.04,2.17,.14,2.59,.14,.53,0,.63-.21,.63-.66v-17.26h-6.48v.46c0,.32-1.33,.95-2.66,.95h-.42v-11.2l3.26,1.33h5.95l1.58-1.86,3.5,2.7Zm-23.84,9.63c6.16,.42,4.13,4.87,1.79,3.4-.25-1.12-1.19-2.42-2.1-3.12l.32-.28Zm13.2,15.23v-4.27h-5.04v4.27h5.04Zm-.56-24.68v2.66h6.48v-2.66h-6.48Zm6.48,6.44v-2.8h-6.48v2.8h6.48Z"/>
      <path class="cls-2" d="M464.05,78.9c-.25,.28-.74,.6-1.47,.74v11.76c-.04,.25-1.75,.88-2.91,.88h-.59v-2.91h-8.86v12.36c0,.39-1.5,1.26-2.83,1.26h-.67v-13.62h-8.86v2.27c0,.32-1.51,1.12-2.91,1.12h-.53v-16.31l3.75,1.58h8.54v-7.6l4.8,.49c-.11,.49-.35,.88-1.3,1.01v6.09h8.51l1.72-1.89,3.61,2.76Zm-17.33,9.45v-9.31h-8.86v9.31h8.86Zm12.36,0v-9.31h-8.86v9.31h8.86Z"/>
      <path class="cls-2" d="M486.37,90.28c-.38,2.35-1.22,4.41-2.76,6.27,4.66,2.03,10.85,2.77,17.5,2.91v.42c-1.4,.42-2.28,1.5-2.56,3.12-6.72-.67-12.36-2.03-16.49-4.94-2.63,2.21-6.72,3.88-13.02,5.04l-.17-.49c5.6-1.79,9.14-3.71,11.31-6.12-1.29-1.23-2.38-2.66-3.29-4.38l.46-.38c.98,1.4,2.28,2.56,3.82,3.54,.98-1.47,1.58-3.12,1.89-4.97h-6.2v1.09c0,.31-1.44,1.05-2.77,1.05h-.49v-15.37l3.5,1.44h6.27v-3.99h-13.69l-.28-1.02h25.13l2.14-2.62s2.48,1.79,3.92,3.08c-.07,.39-.46,.56-.91,.56h-12.99v3.99h6.34l1.64-1.75,3.47,2.62c-.21,.28-.74,.6-1.44,.74v11.2c-.03,.25-1.71,.91-2.8,.91h-.53v-1.93h-7Zm-9.52-10.78v4.3h6.51v-4.3h-6.51Zm6.34,9.77c.14-1.02,.17-2.1,.17-3.26v-1.19h-6.51v4.45h6.34Zm10.19,0v-4.45h-6.69v1.08c0,1.16-.07,2.28-.17,3.36h6.86Zm-6.69-9.77v4.3h6.69v-4.3h-6.69Z"/>
      <path class="cls-2" d="M505.17,92.38s.59-.14,.84-.28c1.23-.91,2.59-2.55,3.78-4.24-.84,.32-1.79,.63-2.7,.91-.21,.42-.45,.7-.7,.81l-1.51-2.91s.53-.11,.77-.25c1.08-.7,2.38-2.63,3.08-4.06-.35,.14-.8,.21-1.37,.21h-.49v-11.59l3.19,1.29h7.98l1.4-1.61,2.87,2.21c-.21,.32-.56,.49-1.3,.63v8.02c0,.14-.88,.67-2.13,.74l1.64,.77c-.14,.35-.56,.63-1.29,.52-.88,.98-2.17,2.1-3.36,3.01l2.84-.07c.46-.84,.88-1.61,1.09-2.21l3.22,1.93c-.14,.28-.59,.56-1.29,.42-1.33,1.71-3.57,4.03-5.67,5.67,1.19-.03,2.73-.14,4.31-.25-.25-.94-.63-1.89-.98-2.55l.42-.17c5.29,3.18,2.76,7.21,.91,5.25,.04-.52-.04-1.05-.14-1.58-1.29,.39-2.97,.91-4.62,1.4-.17,.32-.38,.53-.63,.63l-1.4-2.91s.59-.1,.8-.25c1.05-.88,2.21-2.41,3.19-4.03-.74,.25-1.5,.53-2.31,.77-.18,.42-.42,.67-.7,.8l-1.19-2.28-.17-.07c-1.4,1.61-3.68,3.78-5.92,5.36,1.16-.04,2.62-.14,4.1-.25-.25-.88-.53-1.72-.84-2.35l.49-.17c4.83,3.19,2.42,6.9,.7,5.08,0-.52-.04-1.08-.14-1.68-1.29,.46-3.01,1.01-4.66,1.5-.18,.32-.42,.53-.63,.63l-1.47-2.83Zm3.08,3.01c1.37,3.5,.7,6.09-.52,7.07-.81,.67-2.1,.67-2.56-.28-.35-.88,.14-1.71,.95-2.24,.98-.73,1.82-2.7,1.54-4.52l.59-.03Zm9.91-13.48v-.88h-8.47v.67l2.91,1.37c-.14,.31-.56,.56-1.29,.46-.98,1.01-2.45,2.24-3.82,3.15,.91,0,2.03-.04,3.19-.11,.52-.8,.98-1.61,1.26-2.21l2.24,1.92c1.22-.91,2.52-3.54,3.01-4.83l.98,.46Zm-8.47-8.61v2.98h8.47v-2.98h-8.47Zm8.47,3.99h-8.47v2.73h8.47v-2.73Zm-7.18,18.24c5.11,4.1,1.89,8.61-.04,6.16,.39-1.96,.07-4.38-.42-6.02l.46-.14Zm3.61-.17c6.06,3.33,3.19,8.05,1.02,5.81,.1-1.86-.63-4.13-1.47-5.6l.45-.21Zm3.96-.6c6.37,2.38,3.75,7.11,1.51,5.08,0-1.61-.95-3.64-1.89-4.83l.38-.25Zm1.89,7.81c2.42-1.68,4.8-4.48,5.88-6.79l3.82,1.96c-.18,.32-.53,.38-1.16,.25-1.65,1.96-5.04,4.06-8.23,5.08l-.32-.49Zm13.97-31.96s2.13,1.68,3.46,2.91c-.1,.39-.46,.56-.95,.56h-5.78c-.8,1.37-1.75,2.83-2.62,3.92h4.17l1.51-1.61,3.04,2.42c-.17,.25-.66,.49-1.23,.59v15.68c-.03,.25-1.5,.91-2.52,.91h-.49v-1.29h-6.62v.7c0,.31-1.19,1.01-2.42,1.01h-.49v-19.78l3.08,1.37h.77c.14-1.08,.25-2.62,.35-3.92h-5.22l-.28-1.02h10.29l1.93-2.45Zm-8.02,8.4v4.13h6.62v-4.13h-6.62Zm0,9.35h6.62v-4.2h-6.62v4.2Zm6.62,5.32v-4.3h-6.62v4.3h6.62Zm-2.38,2.31c9.45,2.17,7.49,8.51,4.27,6.65-.67-2.21-2.83-4.79-4.55-6.37l.28-.28Z"/>
      <path class="cls-2" d="M550.25,84.58c-.14,.32-.46,.53-1.09,.63v16.73c-.04,.28-1.33,1.05-2.62,1.05h-.59v-16.1c-1.37,1.26-2.87,2.49-4.41,3.5l-.35-.38c3.19-3.57,6.34-9,7.7-12.64l4.34,2.14c-.21,.35-.49,.56-1.33,.46-.84,1.22-1.92,2.62-3.19,4.03l1.54,.59Zm2.42-11.83c-.21,.31-.49,.52-1.37,.38-2.14,2.31-5.78,5.36-9.42,7.39l-.39-.38c2.7-2.73,5.64-6.97,6.97-9.66l4.2,2.28Zm12.01,26.04c1.37,.21,2.91,.32,4.62,.32,1.23,0,3.82,0,5.29-.04v.46c-1.05,.21-1.58,1.4-1.58,2.84h-3.96c-6.65,0-10.47-1.79-12.64-8.51-1.16,3.46-3.08,6.75-6.3,9.1l-.32-.35c3.47-4.51,4.55-11.48,4.55-17.08l4.76,.77c-.11,.53-.49,.84-1.29,.91-.21,1.79-.53,3.64-1.05,5.5,1.12,2.52,2.63,4.13,4.66,5.11v-14.14l-.07,.04-.35-.38c2.7-3.5,4.55-8.96,5.22-12.81l4.76,1.5c-.14,.38-.42,.63-1.26,.63-.49,1.19-1.12,2.45-1.89,3.75,8.47,2.21,6.34,8.09,3.22,6.2-.59-1.79-2.24-3.82-3.75-5.32-1.43,2.24-3.25,4.41-5.43,6.06l4.03,.45c-.1,.46-.38,.81-1.22,.95v5.04h3.43l1.89-2.35s2.14,1.61,3.4,2.8c-.11,.38-.46,.56-.91,.56h-7.81v8.02Zm-13.34-14.56c2.84-3.78,4.62-9.59,5.29-13.72l4.79,1.5c-.14,.38-.42,.63-1.29,.63-.42,1.12-.95,2.31-1.58,3.57,6.51,1.89,3.92,6.65,1.26,4.69-.25-1.22-1.02-2.55-1.86-3.64-1.54,2.73-3.61,5.42-6.27,7.35l-.35-.39Z"/>
      <path class="cls-2" d="M597.25,82.05c-.14,.45-.53,.63-1.54,.74,3.12,3.54,9.45,6.3,14.95,7.53l-.04,.56c-1.4,.38-2.34,1.75-2.55,2.98-5.67-2.17-10.64-6.09-12.99-10.64-1.89,2.59-5.11,5.32-8.86,7.53l2.31,.98h11.03l1.58-1.68,3.25,2.48c-.21,.25-.63,.49-1.22,.63v8.68c-.04,.25-1.65,.95-2.73,.95h-.56v-2.35h-11.55v1.54c0,.28-1.47,1.02-2.77,1.02h-.49v-11.59c-2.31,1.3-4.76,2.38-7.14,3.12l-.25-.46c6.16-2.91,12.78-8.89,14.39-13.23l5.18,1.22Zm-14.18-5.92c.17,2.45-.73,4.09-1.85,4.83-1.02,.66-2.49,.56-2.94-.53-.35-1.05,.28-1.85,1.16-2.34,1.33-.7,2.62-2.62,2.52-4.76l.53-.04c.21,.63,.38,1.26,.49,1.82h11.45c-.32-.04-.67-.17-.98-.38-.25-1.5-1.4-3.19-2.56-4.1l.28-.25c6.62,.07,6.09,4.34,3.92,4.73h10.12l1.82-1.86,3.22,3.12c-.28,.28-.67,.35-1.33,.42-.98,1.08-2.7,2.52-4.03,3.39l-.38-.24c.31-1.05,.7-2.56,.91-3.82h-22.33Zm-2.73,9.73c3.19-2.21,6.3-5.85,7.67-8.54l4.03,1.82c-.21,.35-.49,.53-1.26,.42-2.1,2.45-6.06,5.22-10.12,6.72l-.32-.42Zm7.98,6.86v6.72h11.55v-6.72h-11.55Zm8.58-14.56c11.62,1.08,10.71,8.4,7,6.93-1.37-2.35-4.69-5.15-7.28-6.62l.28-.31Z"/>
      <path class="cls-2" d="M616.85,86.71c0-2.73,2.24-4.94,4.97-4.94s4.94,2.21,4.94,4.94-2.21,4.97-4.94,4.97-4.97-2.24-4.97-4.97Zm1.26,0c0,2.03,1.65,3.71,3.71,3.71s3.67-1.68,3.67-3.71-1.64-3.67-3.67-3.67-3.71,1.64-3.71,3.67Z"/>
    </g>
  </g>
</svg>