<?xml version="1.0" encoding="UTF-8"?>
<svg id="_圖層_2" data-name="圖層 2" xmlns="http://www.w3.org/2000/svg" viewBox="0 0 595.7 207">
  <defs>
    <style>
      .cls-1 {
        fill: #fff;
        opacity: .7;
      }

      .cls-2 {
        fill: #231815;
      }
    </style>
  </defs>
  <g id="_圖層_1-2" data-name="圖層 1">
    <rect class="cls-1" x="0" width="595.7" height="207" rx="30" ry="30"/>
    <g>
      <path class="cls-2" d="M32.1,32.48c.28,2.2-.56,3.71-1.64,4.31-.98,.56-2.24,.42-2.62-.6-.32-.98,.31-1.71,1.19-2.17,1.08-.63,2.07-2.34,1.79-4.16l.56-.04c.25,.56,.42,1.12,.56,1.65h10.36v-2.21h-9.77l-.28-1.01h19.01l1.75-2.17s2.03,1.5,3.29,2.62c-.1,.38-.45,.56-.94,.56h-9.8v2.21h10.43l1.75-1.79,3.19,3.04c-.28,.28-.67,.35-1.33,.38-.95,1.12-2.52,2.63-3.78,3.5l-.39-.25c.28-1.05,.6-2.63,.81-3.89h-3.15l1.79,2.73c-.25,.14-.59,.1-.98-.21-1.37,.35-4.66,.84-7.14,.98l-.14-.46c1.96-.77,4.97-2.24,6.34-3.04h-7.39v6.76c0,.17-1.05,.74-2.7,.74h-.56v-7.49h-10.19Zm5.71,21.74c1.68-.25,3.43-.49,5.25-.77l.1,.53c-2.73,1.02-6.58,2.42-12.11,4.1-.17,.46-.52,.74-.88,.8l-1.75-3.5c.59-.04,1.37-.14,2.28-.25v-6.16l3.29,.32c-.04,.38-.28,.63-.88,.74v4.83l2-.31v-7.98h-1.44v.17c0,.21-1.26,.81-2.34,.81h-.38v-7.84l2.87,1.22h4.87l1.33-1.47,2.94,2.24c-.17,.21-.66,.49-1.22,.59v4.13c-.04,.25-1.44,.8-2.31,.8h-.46v-.67h-1.16v2.87h.67l1.47-1.79s1.61,1.26,2.59,2.24c-.07,.39-.38,.56-.88,.56h-3.85v3.78Zm-5.5-16.84c1.61-.14,5.18-.56,8.68-1.05l.07,.53c-1.47,.67-3.67,1.61-6.65,2.76-.14,.42-.46,.66-.8,.74l-1.29-2.98Zm.7-3.88c7.88-1.16,8.4,2.97,6.09,2.87-1.43-.84-4.2-1.89-6.27-2.31l.17-.56Zm5.95,12.04v-3.64h-5.29v3.64h5.29Zm18.8-3.22c-.25,.32-.63,.42-1.47,.46-1.01,1.4-2.24,2.62-3.75,3.78,2.17,.74,4.66,1.19,7.14,1.44l-.03,.38c-1.09,.32-1.75,1.19-2.03,2.49-.74-.17-1.44-.38-2.14-.59l1.4,1.05c-.14,.21-.56,.46-1.05,.53v5.57c-.04,.28-1.51,.88-2.49,.88h-.53v-1.26h-5.74v.49c0,.25-.95,1.02-2.42,1.02h-.52v-7.7c-.77,.25-1.58,.45-2.41,.66l-.25-.52c2.7-1.05,5.25-2.42,7.39-4.13-1.02-.84-1.93-1.86-2.66-2.94-1.19,1.37-2.59,2.62-4.1,3.54l-.42-.35c1.89-1.96,3.64-5.32,4.41-8.09l3.92,.77c-.07,.35-.35,.52-1.22,.49-.21,.39-.46,.81-.74,1.19h5.18l1.71-1.61,2.8,2.49Zm-4.2,7.28c-1.12-.45-2.17-.98-3.15-1.61-1.26,.8-2.66,1.5-4.17,2.07l1.3,.52h5l1.02-.98Zm-6.86-12.92c9.21-.63,9.59,3.78,7.11,3.54-1.61-.95-4.94-2.35-7.32-2.98l.21-.56Zm.67,5.78c-.21,.24-.42,.52-.63,.77,.95,.98,2.17,1.75,3.54,2.41,1.09-.98,2.03-2.06,2.77-3.18h-5.67Zm5.46,13.55v-4.41h-5.74v4.41h5.74Z"/>
      <path class="cls-2" d="M86.77,31.43c13.13,4.27,11.24,12.64,7.46,10.29-.38-1.19-1.09-2.42-1.92-3.68-5.32,.95-12.99,2.1-22.16,3.19-.28,.35-.56,.56-.88,.67l-1.33-3.92s.84-.18,1.19-.39c3.82-2.21,9.1-8.09,10.96-11.41l4.73,2.03c-.17,.35-.63,.67-1.43,.53-2.66,2.91-7.7,6.72-12.15,9.28,4.69-.07,12.43-.38,20.48-.77-1.54-2.1-3.54-4.06-5.29-5.5l.35-.31Zm4.2,10.96l3.67,2.87c-.25,.32-.77,.63-1.58,.8v11.45c-.03,.21-1.75,.84-2.91,.84h-.56v-2.77h-14.6v1.92c0,.35-1.54,1.12-2.94,1.12h-.52v-15.82l3.67,1.54h14l1.75-1.96Zm-1.37,12.18v-9.21h-14.6v9.21h14.6Z"/>
      <path class="cls-2" d="M115.65,43.58c-.28,.31-.63,.38-1.37,.42-.67,2.52-2.14,5.39-4.24,7.53,.17,.07,.35,.17,.56,.35,2.94,2.66,7.04,3.15,14.35,3.12,4.17,0,7.6,0,11.8-.21v.42c-1.4,.28-2.17,1.4-2.35,2.73h-10.5c-7.42,0-10.61-1.22-13.72-4.9-.49-.59-.88-.52-1.16,.04-.59,1.05-1.75,3.05-2.55,4.66,.1,.28,.04,.53-.21,.7l-2.45-3.25c1.58-1.02,3.99-3.01,5.04-3.57,1.19-2.21,2.1-5.22,2.45-7.77h-2.66l-1.12,.98-2.56-2.03c.35-.21,.88-.49,1.4-.63,1.19-1.65,2.73-4.03,3.75-5.81h-5.36l-.31-1.02h5.81l1.43-1.5,2.91,2.66c-.28,.32-.91,.49-1.68,.53-.95,1.58-2.59,4.03-3.85,5.81h2.03l1.68-1.61,2.87,2.38Zm-9.38-17.05c8.26,1.85,5.6,7.67,2.66,5.53-.28-1.82-1.72-3.99-3.01-5.32l.35-.21Zm11.06,2.97c-.04,1.75-.8,2.98-1.79,3.47-.98,.49-2.31,.28-2.66-.77-.28-1.05,.38-1.79,1.26-2.21,1.09-.53,2.17-1.92,2.06-3.4l.56-.04c.25,.7,.42,1.33,.49,1.93h14.25l1.71-1.75,3.05,2.94c-.25,.28-.63,.35-1.33,.42-.63,.7-1.65,1.64-2.59,2.38,.63,.49,1.37,1.05,1.93,1.58-.11,.38-.46,.56-.95,.56h-7.6v2.59h3.36l1.54-1.68,3.25,2.52c-.24,.28-.77,.6-1.47,.74v7.77c-.04,.25-1.5,.91-2.49,.91h-.49v-1.12h-3.71v2.94h4.55l1.82-2.24s2.1,1.54,3.36,2.7c-.07,.38-.42,.56-.91,.56h-8.82v3.33c0,.35-1.33,1.01-2.49,1.01h-.56v-4.34h-8.12l-.28-1.02h8.4v-2.94h-3.75v.66c0,.28-1.29,.91-2.49,.91h-.46v-12.04l3.15,1.33h3.54v-2.59h-7.39l-.28-1.02h7.67v-3.36l4.31,.46c-.07,.49-.35,.84-1.26,.98v1.92h3.5l1.75-2.1,.45,.32c.11-.7,.21-1.58,.32-2.31h-14.42Zm1.61,8.72v3.01h3.75v-3.01h-3.75Zm3.75,7.11v-3.08h-3.75v3.08h3.75Zm3.05-7.11v3.01h3.71v-3.01h-3.71Zm3.71,7.11v-3.08h-3.71v3.08h3.71Z"/>
      <path class="cls-2" d="M173.01,29.79c-.28,.32-.84,.67-1.65,.81v23.77c0,2.38-.49,3.78-4.62,4.13-.11-.98-.32-1.82-.77-2.31-.56-.52-1.37-.91-3.01-1.16v-.52s3.54,.28,4.27,.28c.63,0,.8-.28,.8-.77v-7.49h-7.91v10.92c0,.21-1.01,.94-2.7,.94h-.56v-11.87h-7.6c-.66,4.41-2.38,8.79-6.72,12.08l-.46-.31c3.88-5.22,4.31-11.94,4.31-18.59v-12.22l3.82,1.4h17.43l1.64-1.92,3.71,2.83Zm-16.14,15.72v-7.39h-7.18v1.54c0,1.89-.04,3.85-.28,5.85h7.46Zm-7.18-15.61v7.21h7.18v-7.21h-7.18Zm10.43,0v7.21h7.91v-7.21h-7.91Zm7.91,15.61v-7.39h-7.91v7.39h7.91Z"/>
      <path class="cls-2" d="M183.44,48.94c1.16,3.5,.81,6.2-.14,7.49-.67,.88-2.24,1.05-2.8,.07-.46-.84-.07-1.82,.73-2.42,.88-.91,1.82-3.22,1.61-5.15h.59Zm-2.97-4.45s.77-.14,1.05-.38c1.54-1.33,3.4-3.75,4.94-6.2-1.05,.38-2.28,.84-3.54,1.22-.25,.35-.53,.6-.81,.74l-1.5-3.64s.66-.17,.95-.38c1.71-1.89,3.89-6.9,4.58-9.56l4.03,2c-.14,.31-.52,.59-1.22,.52-1.4,2.28-3.85,5.46-6.06,7.56,1.26,.04,2.87,.04,4.48,0,.74-1.29,1.37-2.52,1.75-3.5l3.64,2.45c-.17,.28-.67,.49-1.3,.35-1.82,2.66-5.25,6.37-8.4,8.89,1.75-.07,4.1-.25,6.62-.42-.28-1.33-.7-2.62-1.19-3.64l.42-.17c6.34,3.99,3.22,8.89,.98,6.44,.04-.52,0-1.08-.07-1.64-1.92,.67-4.52,1.54-7.25,2.34-.25,.35-.52,.56-.84,.67l-1.26-3.64Zm5.39,3.92c4.73,4.48,1.64,8.96-.25,6.55,.38-2.07,.17-4.66-.25-6.44l.49-.11Zm14.11,.07c-1.05,1.19-2.63,3.08-4.9,5.39-.04,.45-.25,.88-.6,1.01l-2.21-3.15c.38,1.96-1.12,3.15-2.38,1.86,.1-1.89-.63-4.24-1.4-5.74l.42-.17c2.03,1.29,3.01,2.66,3.29,3.85,1.4-.53,4.55-1.96,7.6-3.43l.18,.39Zm9.8-11.97s2,1.68,3.19,2.91c-.11,.38-.45,.56-.95,.56h-8.37v14.7c0,2.13-.46,3.5-3.99,3.82-.04-.88-.17-1.58-.59-1.96-.42-.46-1.08-.77-2.49-.98v-.53s2.77,.21,3.4,.21c.56,0,.7-.18,.7-.6v-14.67h-7.81l-.28-1.02h10.36l.91-2.77h-6.41l-1.4,1.4-3.04-2.28c.38-.28,.98-.56,1.54-.77,1.12-2.42,2.59-6.3,3.15-8.19l4.2,.77c-.1,.46-.46,.8-1.43,.8-.18,.56-.42,1.19-.7,1.89h5.88l1.44-1.54,2.98,2.55c-.25,.28-.6,.39-1.26,.42l-2.55,7.7h1.79l1.75-2.45Zm-15.37,5.04c7.25,2.17,4.51,7.28,2,5.18-.18-1.68-1.33-3.75-2.38-4.97l.39-.21Zm9.8-6.37l1.43-4.34h-6.27c-.59,1.51-1.26,3.08-1.79,4.34h6.62Zm7.91,8.16c-.18,.28-.53,.38-1.23,.21-1.33,.94-4.03,2.52-5.74,3.5l-.32-.35c1.19-1.61,2.87-4.34,3.78-5.88l3.5,2.52Zm-6.93,5.08c9.45,1.33,7.77,8.37,4.66,6.3-1.02-1.82-2.63-4.38-4.9-5.95l.24-.35Z"/>
      <path class="cls-2" d="M248.85,54.05c1.5,.42,2,.63,2,1.33,0,1.58-1.47,2.59-7.98,2.59h-13.13c-4.69,0-6.9-1.12-6.9-4.9v-14.95c-1.44,1.22-2.94,2.31-4.48,3.19l-.35-.35c3.99-3.46,7.91-9.7,9.77-14.91l4.87,1.26c-.14,.38-.46,.56-1.37,.49-.46,.84-.98,1.68-1.54,2.52h6.76l1.92-1.89,3.33,2.94c-.28,.28-.7,.35-1.4,.42-1.4,1.4-3.54,3.4-5.53,4.66h8.05l1.68-1.85,3.57,2.73c-.25,.31-.81,.63-1.54,.77v9.35c-.04,.25-1.68,.91-2.77,.91h-.56v-2.31h-17.15v7.14c0,1.33,1.16,1.64,3.5,1.64h12.95c2.2,0,3.22-.14,3.85-.98,.59-.77,1.43-3.12,2-4.97h.42l.04,5.18Zm-19.85-22.72c-1.12,1.58-2.42,3.12-3.82,4.59l1.37,.52h7.39c.91-1.4,1.96-3.54,2.59-5.11h-7.53Zm-2.91,13.69h6.86v-7.56h-6.86v7.56Zm10.08-7.56v7.56h7.07v-7.56h-7.07Z"/>
      <path class="cls-2" d="M270.17,50.86c-.25,.32-.56,.49-1.3,.32-2.52,2.24-6.86,4.76-11.24,6.16l-.32-.42c3.54-2.21,7.25-5.74,9.03-8.37l3.82,2.31Zm10.15-10.71c9.07,3.89,6.27,10.47,3.26,7.91-.11-.95-.39-1.89-.77-2.87-2.07,.35-4.52,.77-7.35,1.23v8.33c0,2.28-.59,3.71-4.55,4.03-.07-.95-.21-1.72-.66-2.17-.46-.42-1.16-.8-2.8-1.05v-.49s3.15,.21,3.88,.21c.56,0,.7-.17,.7-.59v-7.74c-2.7,.42-5.64,.84-8.79,1.29-.25,.42-.53,.7-.84,.84l-1.79-3.75s.95-.11,1.44-.32c3.12-1.19,7-3.4,10.36-5.67-2.45,.56-5.39,1.23-8.58,1.86-.21,.32-.46,.56-.7,.67l-1.71-3.54s.73-.07,1.08-.25c3.57-1.37,8.33-5.18,10.22-7.28-4.1,1.29-8.93,2.55-13.37,3.29l-.17-.53c6.09-1.82,13.72-5.11,17.43-7.53l3.5,2.7c-.31,.38-.98,.42-1.96,.1-1.47,.63-3.33,1.26-5.29,1.93l3.6,2.17c-.21,.32-.66,.56-1.43,.35-2.28,1.58-6.3,3.71-10.05,5.15,2.52-.14,5.88-.35,9.49-.59,2.03-1.47,3.71-2.91,4.8-4.03l3.71,2.73c-.17,.32-.73,.53-1.54,.28-3.54,2.59-10.71,6.2-16.91,8.61,4.24-.17,10.85-.59,17.92-1.01-.7-1.51-1.61-2.94-2.52-4.03l.38-.25Zm-2.66,8.54c12.85,2.55,11.59,10.08,7.77,8.33-1.5-2.73-5.29-6.06-8.05-7.98l.28-.35Z"/>
      <path class="cls-2" d="M310.1,33.6c-.24,.28-.77,.56-1.47,.74v21.11c-.04,.28-1.58,.98-2.66,.98h-.49v-2.7h-6.2v2.7c0,.35-1.19,1.12-2.52,1.12h-.53V31.29l3.22,1.47h.63c.32-1.86,.74-4.55,.98-6.48l4.83,1.16c-.17,.56-.63,.8-1.4,.8-.84,1.33-2.06,3.12-3.05,4.52h3.68l1.61-1.82,3.36,2.66Zm-10.82,.17v8.72h6.2v-8.72h-6.2Zm6.2,18.94v-9.21h-6.2v9.21h6.2Zm21.7-19.11c-.28,.32-.7,.53-1.5,.63-.25,13.58-.8,20.62-2.59,22.65-1.12,1.29-2.63,1.82-4.66,1.82,0-1.08-.17-1.92-.73-2.41-.6-.56-2-1.05-3.61-1.33l.04-.56c1.64,.17,4.09,.35,4.93,.35,.7,0,.98-.11,1.37-.46,1.3-1.26,1.72-8.61,1.96-20.58h-7.35c-1.61,2.91-3.5,5.46-5.6,7.35l-.49-.32c2.06-3.54,4.09-9.1,5.15-14.46l4.66,1.37c-.14,.42-.56,.73-1.33,.73-.53,1.51-1.16,2.94-1.86,4.31h6.44l1.89-2,3.29,2.91Zm-14.98,6.27c9.45,3.33,6.37,10.12,3.19,7.46-.28-2.42-1.96-5.36-3.5-7.25l.31-.21Z"/>
      <path class="cls-2" d="M339.64,30.8h-6.65l-.28-1.02h6.79l-.46-3.57,4.34,.35c-.04,.42-.28,.74-.98,.95l.28,2.28h1.65l1.71-2.31s2,1.61,3.12,2.77c-.1,.38-.38,.56-.88,.56h-5.46l.35,2.52c-.46,.63-1.68,.91-3.12,.91l-.42-3.43Zm21.28,17.5s2.24,1.75,3.61,3.01c-.07,.38-.45,.56-.95,.56h-12.95v5.99c-.04,.21-1.05,.91-2.73,.91h-.59v-6.9h-13.3l-.28-1.01h13.58v-4.03h-5.71v1.01c0,.35-1.44,1.02-2.77,1.02h-.49v-14.56l3.46,1.47h14.11l1.61-1.71,3.29,2.56c-.17,.25-.67,.52-1.29,.63v10.12c-.04,.28-1.65,1.01-2.73,1.01h-.52v-1.54h-5.64v4.03h8.26l2.03-2.56Zm-19.32-11.52v3.92h14.67v-3.92h-14.67Zm14.67,9.03v-4.1h-14.67v4.1h14.67Zm5.99-18.34s2,1.61,3.15,2.77c-.11,.38-.42,.56-.91,.56h-6.62l-.46,2.76c-.63,.49-1.92,.67-3.29,.38l.53-3.15h-4.45l-.28-1.02h4.87l.59-3.64,4.31,.81c-.1,.42-.46,.8-1.33,.84l-.35,2h2.55l1.68-2.31Z"/>
      <path class="cls-2" d="M378.35,48.45c1.58-.46,3.19-.95,4.83-1.44l.14,.46c-2.14,1.4-5.29,3.47-9.77,5.99-.14,.45-.42,.81-.8,.95l-2.03-3.96c.95-.21,2.52-.59,4.45-1.12v-12.04h-4.06l-.28-1.02h4.34v-9.24l4.48,.46c-.1,.49-.38,.84-1.3,.98v7.81h1.09l1.58-2.45s1.82,1.71,2.8,2.91c-.07,.38-.42,.56-.91,.56h-4.55v11.17Zm23.7,5.78c1.16,.38,1.47,.74,1.47,1.33,0,1.58-1.72,2.07-9.31,2.03h-5.04c-3.85,0-5.15-.66-5.15-3.5v-13.34l-3.12,1.37-.7-.8,3.82-1.65v-8.58l4.38,.49c-.07,.46-.42,.84-1.22,.95v5.78l3.75-1.65v-10.5l4.34,.46c-.11,.49-.39,.84-1.3,.98v7.74l4.1-1.75,.07-.04,1.64-1.68,2.98,3.08c-.28,.28-.67,.42-1.4,.45-.8,4.13-2.38,10.12-4.41,14.07l-.46-.25c.84-4.34,1.4-10.36,1.61-14.56l-4.13,1.79v14.11c0,.35-1.33,1.05-2.49,1.05h-.56v-13.83l-3.75,1.65v13.9c0,1.02,.42,1.37,2.31,1.37h4.94c2.1,0,3.64-.04,4.38-.11,.56-.03,.88-.17,1.16-.52,.38-.63,.94-2.45,1.58-4.9h.42l.1,5.08Z"/>
      <path class="cls-2" d="M417.16,53.38c1.86-.38,3.89-.81,5.92-1.23l.1,.49c-2.56,1.23-6.16,2.98-11.41,5.22-.14,.42-.46,.7-.84,.84l-2.03-3.78c1.16-.17,3.12-.53,5.46-.98v-11.03h-4.79l-.28-1.01h5.08v-4.38h-2.55l-.28-.98c-.91,.98-1.89,1.86-2.91,2.59l-.42-.31c2.59-3.22,5.04-8.89,5.88-12.5l4.3,1.4c-.1,.42-.49,.67-1.36,.7,8.68,2.7,5.46,7.49,3.08,5.71-.56-1.37-1.82-3.29-3.47-4.97-1.19,2.42-2.94,5.11-5.08,7.35h5.71l1.64-2.2s1.82,1.58,2.94,2.66c-.1,.38-.46,.56-.95,.56h-3.75v4.38h1.22l1.61-2.31s1.86,1.65,2.94,2.77c-.1,.38-.42,.56-.91,.56h-4.87v10.47Zm-6.65-8.82c5.21,4.73,2.24,9.49,.25,7.07,.28-2.24-.18-5.01-.7-6.97l.45-.11Zm7.39,6.79c.38-1.82,.8-4.59,1.08-7l3.71,1.12c-.17,.38-.56,.7-1.29,.74-.8,1.82-1.86,3.88-2.91,5.39l-.59-.25Zm15.16-18.1v3.29h3.4l1.5-1.75,3.43,2.62c-.21,.28-.77,.63-1.47,.74v16.59c0,2.34-.38,3.67-3.67,3.95-.04-.98-.14-1.82-.42-2.31-.32-.52-.77-.84-1.75-1.05v-.53s1.68,.14,2.17,.14c.45,0,.56-.17,.56-.6v-4.79h-3.75v7.7c0,.39-1.29,1.12-2.42,1.12h-.56v-8.82h-3.67v8.12c0,.35-1.19,1.05-2.49,1.05h-.49v-23.56l3.15,1.37h3.5v-3.29h-7.04l-.28-1.02h7.32v-5.74l4.1,.46c-.07,.42-.32,.77-1.12,.88v4.41h3.5l1.02-1.26c-.32-.04-.66-.17-.98-.42-.21-1.26-1.19-2.59-2.03-3.4l.28-.25c4.66,.31,5.18,2.55,4.2,3.57,.74,.56,1.86,1.47,2.7,2.21-.07,.38-.46,.56-.95,.56h-7.74Zm-6.65,4.3v4.9h3.67v-4.9h-3.67Zm3.67,10.99v-5.11h-3.67v5.11h3.67Zm2.98-10.99v4.9h3.75v-4.9h-3.75Zm3.75,10.99v-5.11h-3.75v5.11h3.75Z"/>
      <path class="cls-2" d="M475.68,26.67s2.49,1.82,3.96,3.12c-.1,.38-.46,.56-.95,.56h-13.55c-1.23,1.75-2.73,3.75-3.96,5.18h12.18l1.72-2.03,3.36,2.66c-.25,.31-.63,.56-1.44,.7v20.55c0,.25-1.23,.95-2.91,.95h-.56v-2.52h-20.58v1.89c0,.25-1.01,.91-2.73,.91h-.56v-24.57l3.71,1.47h6.62c.21-1.43,.49-3.5,.7-5.18h-13.16l-.31-1.02h26.29l2.17-2.66Zm-22.72,28.14h4.55v-18.27h-4.55v18.27Zm12.85-18.27h-5.18v5.32h5.18v-5.32Zm-5.18,11.76h5.18v-5.42h-5.18v5.42Zm0,6.51h5.18v-5.5h-5.18v5.5Zm8.3-18.27v18.27h4.62v-18.27h-4.62Z"/>
      <path class="cls-2" d="M489.82,46.13c2.07-1.19,3.01-2.7,3.46-4.52-1.82-.8-2.97-1.68-2.97-3.19,0-1.26,.88-2.34,2.41-2.34s2.66,1.16,2.66,3.33c0,2.66-1.26,6.06-4.97,7.84l-.59-1.12Z"/>
      <path class="cls-2" d="M534.3,53.45s2.52,1.89,4.03,3.26c-.1,.38-.46,.56-.98,.56h-31.26l-.28-1.01h10.92v-20.55h-9.45l-.25-1.02h17.26c1.16-2.52,2.38-5.92,3.04-8.4l4.83,1.4c-.14,.42-.53,.7-1.33,.67-1.33,1.85-3.4,4.34-5.5,6.33h5.95l2.1-2.59s2.42,1.79,3.89,3.04c-.1,.38-.46,.56-.95,.56h-9.1v20.55h4.87l2.21-2.8Zm-24.4-14.49c7.84,7.25,4.87,14.81,1.75,11.59,.11-3.64-1.09-8.12-2.24-11.45l.49-.14Zm3.43-12.53c9.17,2.84,6.2,9.66,2.94,7.07-.28-2.31-1.86-5.08-3.29-6.86l.35-.21Zm6.72,29.82h3.82v-20.55h-3.82v20.55Zm8.47-4.48c1.02-3.4,2.24-8.75,3.05-13.27l4.76,1.33c-.1,.42-.56,.77-1.33,.77-1.64,4.06-3.75,8.37-5.95,11.41l-.53-.25Z"/>
      <path class="cls-2" d="M553.97,40.11c-.95,.74-2.14,1.68-3.57,2.77v11.8c0,2.35-.39,3.68-3.71,4.03-.04-1.01-.17-1.82-.52-2.35-.35-.52-.91-.84-2.07-1.05v-.52s2.24,.14,2.76,.14c.49,0,.6-.14,.6-.56v-9.28c-.53,.38-1.08,.77-1.68,1.16-.1,.46-.38,.84-.7,1.01l-1.47-3.67c.8-.25,2.17-.77,3.85-1.4v-6.97h-3.33l-.25-1.02h3.57v-7.98l4.24,.42c-.07,.53-.42,.88-1.29,.98v6.58h.38l1.4-2.21s1.64,1.58,2.55,2.66c-.07,.39-.38,.56-.88,.56h-3.46v5.85c1.12-.45,2.21-.91,3.36-1.37l.21,.42Zm7.88-2.35c6.23,2.8,3.75,7.04,1.64,5.15-.07-.59-.25-1.22-.49-1.89-1.89,.53-4.55,1.22-7.35,1.86-.17,.21-.31,.35-.49,.46l2.35,.98h4.62v-.04h-.21l1.05-1.22,2.59,1.89c-.11,.18-.42,.39-.84,.46v9.94c0,2.03-.35,3.19-3.19,3.43-.04-.77-.14-1.47-.46-1.89-.32-.38-.8-.7-1.71-.84v-.56s1.79,.14,2.24,.14c.42,0,.52-.17,.52-.56v-4.17c-.88,.67-2.03,1.5-3.4,2.49-.07,.42-.31,.67-.63,.8l-1.26-2.28c-.35,2.49-1.4,5.11-4.59,6.93l-.38-.38c2.38-2.7,2.56-6.06,2.56-9.28v-6.16l.56,.25-1.26-2.94s.59-.1,.84-.25c1.71-.98,3.85-3.99,4.66-5.5l3.4,2c-.14,.31-.56,.56-1.29,.42-1.23,1.05-3.08,2.41-4.83,3.43,1.68-.04,3.89-.11,6.2-.21-.39-.84-.84-1.61-1.23-2.24l.39-.21Zm-4.17-2.76c0,.25-1.33,.91-2.45,.91h-.42v-9.03l3.08,1.29h14.07l1.4-1.47,2.94,2.24c-.17,.25-.59,.49-1.16,.56v5.15c-.04,.21-1.47,.81-2.42,.81h-.49v-.98h-14.56v.53Zm-.67,10.33v1.58c5.81-.91,5.43,3.15,3.05,2.62-.67-.59-1.89-1.33-3.05-1.82v1.44c0,.77-.04,1.64-.14,2.52,1.08-.28,3.15-.94,5.25-1.61v-4.73h-5.11Zm.67-16.14v4.27h3.15v-4.27h-3.15Zm5.81,0v4.27h3.15v-4.27h-3.15Zm5.5,16.07c-2.24,0-2.59-.56-2.59-2.21v-7.63l3.54,.38c-.07,.42-.42,.74-1.01,.84v2.35h2.7l1.33-2.17s1.58,1.54,2.42,2.62c-.07,.38-.38,.56-.88,.56h-5.57v2.52c0,.42,.07,.56,.77,.56h1.75c.7,0,1.37,0,1.64-.04,.18,0,.46,0,.6-.04,.21-.04,.49-.07,.7-.14h.35l.14,.03c.74,.28,1.02,.46,1.02,.95,0,1.09-1.02,1.44-4.69,1.44l-2.21-.04Zm6.51,10.01c.77,.28,.94,.56,.94,1.05,0,1.09-1.05,1.5-4.9,1.5h-2.41c-2.31,0-2.7-.59-2.7-2.31v-9.17l3.57,.38c-.04,.45-.38,.77-1.01,.88v2.7h2.7l1.37-2.21s1.58,1.58,2.45,2.66c-.11,.38-.42,.56-.88,.56h-5.64v3.68c0,.42,.1,.52,.88,.52h3.61c.28-.04,.42-.07,.59-.31,.21-.35,.59-1.58,.91-2.84h.42l.11,2.91Zm-6.16-26.08v4.27h2.91v-4.27h-2.91Z"/>
      <path class="cls-2" d="M56.33,97.35s2.56,1.89,4.1,3.25c-.1,.39-.49,.56-1.01,.56H28.11l-.28-1.02h13.37v-29.26l4.87,.53c-.07,.49-.35,.84-1.26,.98v11.52h6.72l2.24-2.77s2.45,1.86,3.96,3.22c-.1,.38-.46,.56-.95,.56h-11.97v15.23h9.31l2.21-2.8Z"/>
      <path class="cls-2" d="M71.3,100.26v1.26c0,.21-.91,.91-2.35,.91h-.49v-10.64c-.7,.77-1.43,1.47-2.17,2.06l-.49-.31c1.5-2.28,3.01-5.78,3.89-9.31l3.75,1.3c-.17,.38-.59,.7-1.33,.67-.25,.49-.53,1.01-.8,1.5l.45,.17h7.7l1.5-1.82s1.65,1.3,2.73,2.28c-.1,.38-.42,.56-.91,.56h-5.11v2.73h1.47l1.4-1.75s1.54,1.23,2.56,2.21c-.11,.39-.42,.56-.91,.56h-4.52v2.77h1.47l1.4-1.68s1.58,1.19,2.56,2.14c-.07,.38-.42,.56-.88,.56h-4.55v2.83h1.96l1.58-1.92s1.75,1.33,2.87,2.38c-.11,.39-.42,.56-.91,.56h-11.87Zm-5.25-26.6h4.73v-3.36l3.99,.38c-.07,.42-.35,.7-1.12,.8v4.94c0,.21-1.29,.7-2.31,.7h-.56v-2.45h-4.45l-.28-1.01Zm6.72,3.46l2.52,1.93c-.17,.21-.63,.45-1.12,.56v4.34c0,.21-1.19,.7-1.96,.7h-.35v-1.12h-2.28v.8c0,.17-.73,.74-1.92,.74h-.38v-7.88l2.76,1.16h1.54l1.19-1.23Zm-.91,5.39v-3.15h-2.28v3.15h2.28Zm-.56,6.37v2.73h3.57v-2.73h-3.57Zm3.57,3.75h-3.57v2.77h3.57v-2.77Zm0,3.78h-3.57v2.83h3.57v-2.83Zm-.28-12.39c.42,.11,.8,.21,1.19,.35v-7.18l2.8,1.16h1.54l1.19-1.23,2.59,1.96c-.17,.21-.63,.46-1.15,.53v4.17c0,.24-1.23,.73-1.96,.73h-.38v-.98h-2.28v.42c0,.14-.59,.63-1.58,.73,2.98,1.58,.6,4.17-1.26,2.59-.07-1.05-.63-2.31-1.09-3.08l.38-.18Zm23.49,15.16c.77,.35,.88,.7,.88,1.26,0,1.12-.98,1.75-4.03,1.75h-1.61c-2.17,0-2.45-.7-2.45-2.52v-8.82h-1.37c-.25,6.06-1.92,9.66-7.74,11.94l-.17-.49c3.92-2.66,4.76-5.74,4.9-10.08-.42,.17-.98,.28-1.68,.28l-.46-.04v-17.89c-.14,.07-.31,.1-.52,.1h-4.69v1.65c0,.25-1.3,.7-2.35,.7h-.56v-6.76l3.99,.38c-.07,.42-.35,.74-1.08,.84v2.17h1.75l1.37-1.79s1.19,.94,2.1,1.85v-2.76l3.36,1.37h5.46l1.58-1.82,3.08,2.45c-.25,.31-.63,.52-1.43,.67v17.4c0,.17-1.09,.84-2.59,.84h-.04v7.04c0,.38,.07,.53,.53,.53h1.71c.25-.04,.32-.07,.46-.35,.25-.49,.67-2.24,1.08-3.95h.42l.1,4.06Zm-19.95-19.81v3.15h2.28v-3.15h-2.28Zm9.17-6.02v5.22h6.02v-5.22h-6.02Zm6.02,10.82v-4.59h-6.02v4.59h6.02Zm-6.02,1.01v4.66h6.02v-4.66h-6.02Z"/>
      <path class="cls-2" d="M111.41,74.88h-7.14l-.28-1.01h7.32l-.42-3.4,4.34,.31c-.04,.39-.28,.77-.98,.98l.28,2.1h1.19l1.64-2.28s1.93,1.58,3.01,2.73c-.07,.38-.42,.56-.91,.56h-4.87l.25,1.72c-.45,.59-1.64,.88-3.12,.88l-.31-2.59Zm21.18,4.24s2.03,1.58,3.29,2.73c-.11,.38-.46,.56-.95,.56h-5.92v3.92c0,.35-1.47,1.09-2.62,1.09h-.46v-1.22h-5.78v.8c0,.28-1.44,.88-2.63,.88h-.52v-5.46h-4.13v6.2h16.94l1.75-2.17s2.07,1.5,3.36,2.62c-.11,.38-.46,.56-.95,.56h-20.86l-1.16,1.58-3.54-2c.28-.31,.8-.66,1.29-.94v-5.85h-4.34l-.32-1.02h4.66v-3.67l4.34,.45c-.07,.46-.38,.77-1.19,.91v2.31h4.13v-3.85l4.38,.42c-.07,.46-.35,.77-1.22,.91v2.52h5.78v-3.57l4.2,.38c-.07,.42-.31,.74-1.12,.88v2.31h1.86l1.71-2.28Zm-.7,10.78s2.35,1.86,3.75,3.15c-.11,.38-.46,.56-.98,.56h-12.64v8.47c0,.31-1.5,.91-2.87,.91h-.63v-9.38h-12.99l-.32-1.02h13.3v-2.8l4.8,.49c-.07,.46-.35,.81-1.3,.91v1.4h7.84l2.03-2.7Zm-26.32,12.01c2.62-1.68,6.51-5.57,8.02-7.46l4.06,2.24c-.21,.38-.74,.59-1.71,.53-2.35,1.57-6.51,3.81-10.08,5.08l-.28-.38Zm20.37-19.5h-5.78v2.76h5.78v-2.76Zm7.7-10.78s1.96,1.54,3.04,2.7c-.11,.38-.38,.56-.88,.56h-7l-.35,2.07c-.6,.45-1.86,.66-3.22,.35l.38-2.42h-4.13l-.28-1.01h4.59l.56-3.4,4.27,.77c-.07,.46-.42,.77-1.33,.84l-.28,1.79h2.94l1.68-2.24Zm-9.52,23.59c11.73,1.44,11.2,7.88,7.74,6.76-1.64-2.13-5.36-4.9-8.05-6.41l.32-.35Z"/>
      <path class="cls-2" d="M145.32,93.15c1.16,3.5,.81,6.2-.14,7.49-.67,.88-2.24,1.05-2.8,.07-.46-.84-.07-1.82,.73-2.42,.88-.91,1.82-3.22,1.61-5.15h.59Zm-2.97-4.45s.77-.14,1.05-.38c1.54-1.33,3.4-3.75,4.94-6.2-1.05,.38-2.28,.84-3.54,1.22-.25,.35-.53,.6-.81,.74l-1.5-3.64s.66-.17,.95-.38c1.71-1.89,3.89-6.9,4.58-9.56l4.03,2c-.14,.31-.52,.59-1.22,.52-1.4,2.28-3.85,5.46-6.06,7.56,1.26,.04,2.87,.04,4.48,0,.74-1.29,1.37-2.52,1.75-3.5l3.64,2.45c-.17,.28-.67,.49-1.29,.35-1.82,2.66-5.25,6.37-8.4,8.89,1.75-.07,4.1-.25,6.62-.42-.28-1.33-.7-2.62-1.19-3.64l.42-.17c6.34,3.99,3.22,8.89,.98,6.44,.04-.52,0-1.09-.07-1.64-1.92,.67-4.52,1.54-7.25,2.34-.25,.35-.52,.56-.84,.66l-1.26-3.64Zm5.39,3.92c4.73,4.48,1.64,8.96-.25,6.55,.38-2.07,.17-4.66-.25-6.44l.49-.11Zm14.11,.07c-1.05,1.19-2.63,3.08-4.9,5.39-.04,.46-.25,.88-.6,1.01l-2.21-3.15c.38,1.96-1.12,3.15-2.38,1.86,.1-1.89-.63-4.24-1.4-5.74l.42-.17c2.03,1.29,3.01,2.66,3.29,3.85,1.4-.53,4.55-1.96,7.6-3.43l.18,.39Zm9.8-11.97s2,1.68,3.19,2.91c-.11,.38-.45,.56-.95,.56h-8.37v14.7c0,2.13-.46,3.5-3.99,3.82-.04-.88-.17-1.58-.59-1.96-.42-.46-1.08-.77-2.49-.98v-.53s2.77,.21,3.4,.21c.56,0,.7-.18,.7-.6v-14.67h-7.81l-.28-1.02h10.36l.91-2.77h-6.41l-1.4,1.4-3.04-2.28c.38-.28,.98-.56,1.54-.77,1.12-2.42,2.59-6.3,3.15-8.19l4.2,.77c-.1,.46-.46,.8-1.43,.8-.18,.56-.42,1.19-.7,1.89h5.88l1.44-1.54,2.98,2.55c-.25,.28-.6,.39-1.26,.42l-2.55,7.7h1.79l1.75-2.45Zm-15.37,5.04c7.25,2.17,4.51,7.28,2,5.18-.18-1.68-1.33-3.75-2.38-4.97l.39-.21Zm9.8-6.37l1.43-4.34h-6.27c-.59,1.51-1.26,3.08-1.79,4.34h6.62Zm7.91,8.16c-.18,.28-.53,.38-1.23,.21-1.33,.94-4.03,2.52-5.74,3.5l-.32-.35c1.19-1.61,2.87-4.34,3.78-5.88l3.5,2.52Zm-6.93,5.08c9.45,1.33,7.77,8.37,4.66,6.3-1.02-1.82-2.63-4.38-4.9-5.95l.24-.35Z"/>
      <path class="cls-2" d="M187.99,82.72c7.18,2.98,4.48,7.95,2.03,5.78-.14-1.54-1.08-3.5-2.03-4.94v18.34c0,.38-1.33,1.12-2.42,1.12h-.63v-14.98c-1.23,2.56-2.73,4.83-4.66,6.9l-.49-.42c2.45-4.03,3.85-9.42,4.62-14.63h-3.85l-.28-1.02h4.66v-8.54l4.31,.45c-.07,.53-.35,.84-1.26,.98v7.11h1.16l1.65-2.34s1.89,1.61,2.97,2.8c-.1,.39-.46,.56-.91,.56h-4.87v2.83Zm22.44,15.4s1.82,1.54,2.94,2.7c-.11,.39-.46,.56-.95,.56h-22.3l-.28-1.02h4.27v-21.63l3.36,1.37h2.24c.04-1.12,.1-2.49,.14-3.96h-7.49l-.28-1.02h7.77c.07-1.61,.11-3.25,.11-4.69l4.52,.38c-.07,.53-.49,.91-1.19,1.05-.11,.98-.21,2.1-.32,3.25h4.94l1.82-2.31s2.07,1.58,3.33,2.77c-.1,.38-.46,.56-.94,.56h-9.24c-.17,1.43-.32,2.8-.46,3.96h3.04l1.47-1.93,3.61,2.66c-.28,.35-.74,.56-1.61,.67v18.73l1.5-2.1Zm-13.3-17.01v3.85h8.68v-3.85h-8.68Zm8.68,4.87h-8.68v3.88h8.68v-3.88Zm-8.68,8.96h8.68v-4.06h-8.68v4.06Zm0,5.42h8.68v-4.41h-8.68v4.41Z"/>
      <path class="cls-2" d="M223.02,90.35c2.07-1.19,3.01-2.7,3.46-4.52-1.82-.8-2.97-1.68-2.97-3.19,0-1.26,.88-2.34,2.42-2.34s2.66,1.16,2.66,3.33c0,2.66-1.26,6.06-4.97,7.84l-.59-1.12Z"/>
      <path class="cls-2" d="M271.99,90.84c-.28,.25-.7,.45-1.43,.53-.49,5.92-1.61,9.35-3.33,10.61-1.02,.7-2.35,1.05-3.92,1.05,0-.84-.14-1.65-.59-2.1-.49-.49-1.58-.88-2.8-1.08v-.56c1.19,.14,3.33,.28,4.06,.28,.59,0,.91-.07,1.23-.32,.88-.7,1.75-3.67,2.21-8.33h-21.21c-2.06,2.06-4.41,3.95-7.11,5.53l-.38-.38c5.57-4.38,9.56-10.57,12.22-16.84h-9.45l-.32-1.02h10.19c1.08-2.7,1.92-5.39,2.52-7.95l4.62,1.33c-.18,.46-.49,.7-1.47,.67-.63,1.92-1.37,3.92-2.28,5.95h5.78l1.33-1.4,2.94,2.31c-.25,.28-.56,.39-1.19,.42l-1.02,4.41h1.19l1.3-1.37,2.84,2.28c-.25,.28-.56,.38-1.16,.46l-.81,4.58h1.23l1.71-1.68,3.12,2.62Zm-26.25,2.45c1.5,4.34-.04,7.21-1.68,8.19-1.12,.7-2.59,.56-3.01-.52-.38-.98,.25-1.86,1.19-2.35,1.5-.77,3.05-2.8,2.98-5.29l.53-.04Zm-1.44-22.58c8.61,1.92,5.78,8.23,2.66,5.92-.32-2-1.68-4.27-3.01-5.7l.35-.21Zm6.72,14.25c-1.16,1.72-2.41,3.36-3.85,4.94h15.82l.91-4.94h-12.88Zm-1.44,8.23c5.74,4.62,1.86,9.7-.35,6.72,.49-2.17,.32-4.72-.11-6.62l.46-.11Zm4.66-13.97c-.74,1.58-1.61,3.19-2.59,4.73h7.91l1.05-4.73h-6.37Zm-.28,13.62c7.28,2.59,4.31,8.05,1.68,5.71-.07-1.82-1.05-4.06-2.06-5.5l.38-.21Zm4.9-.56c7.49,.67,5.57,6.12,2.73,4.48-.39-1.51-1.79-3.29-3.05-4.27l.32-.21Z"/>
      <path class="cls-2" d="M309.65,76.98c-.25,.31-.63,.38-1.37,.42-1.09,1.22-3.01,2.91-4.55,3.85l-.35-.25c.35-1.19,.81-2.91,1.08-4.31h-5.53v4.9c0,.95,.04,.95,1.08,.95h5.5c.25,0,.59,0,.98-.14h.32l.17,.03c1.16,.42,1.33,.63,1.33,1.12,0,1.26-.77,1.82-4.03,1.82h-4.69c-3.57,0-3.92-.38-3.92-3.75v-4.94h-13.02c.28,2.59-.63,4.34-1.82,5.08-1.09,.7-2.52,.53-2.98-.59-.38-1.05,.28-1.92,1.19-2.42,1.33-.81,2.52-2.91,2.24-5.18l.53-.04c.31,.74,.52,1.47,.7,2.14h10.85c-.35-.07-.77-.28-1.16-.6-.07-1.68-.98-3.61-1.96-4.79l.32-.18c6.62,1.09,5.81,5.11,3.6,5.57h10.12l1.93-1.96,3.43,3.26Zm-16.77,2.07c-.14,.42-.52,.66-1.58,.66-2.34,3.75-5.88,6.51-12.43,7.53l-.25-.42c5.85-2.49,8.65-5.92,9.87-9.94l4.38,2.17Zm11.94,18.59s2.28,1.79,3.61,3.12c-.11,.38-.46,.56-.98,.56h-28.35l-.32-1.01h12.78v-10.92h-8.58l-.28-1.01h16.7l1.93-2.45s2.1,1.68,3.36,2.91c-.07,.38-.46,.56-.95,.56h-8.75v10.92h7.81l2.03-2.66Z"/>
      <path class="cls-2" d="M320.42,82.76v18.97c0,.46-1.19,1.26-2.73,1.26h-.56v-31.5l3.43,1.51h5.67l1.47-1.61,3.25,2.42c-.21,.25-.7,.53-1.33,.63v9.28c-.04,.21-1.58,.88-2.59,.88h-.49v-1.82h-6.13Zm0-8.75v3.36h6.13v-3.36h-6.13Zm6.13,7.77v-3.46h-6.13v3.46h6.13Zm11.48,16.77c-.04,.28-1.58,.98-2.62,.98h-.49v-2h-7.11v1.4c0,.31-1.3,.98-2.59,.98h-.46v-14.46l3.19,1.37h6.62l1.54-1.65,3.22,2.41c-.21,.28-.7,.56-1.3,.67v10.29Zm-10.22-10.75v3.78h7.11v-3.78h-7.11Zm7.11,8.75v-3.99h-7.11v3.99h7.11Zm12.32-22.72c-.25,.28-.77,.59-1.44,.74v24.22c0,2.42-.49,3.82-4.45,4.17-.11-1.02-.28-1.86-.7-2.38-.53-.49-1.26-.88-2.83-1.15v-.53s3.22,.25,3.88,.25,.77-.25,.77-.74v-15.65h-6.37v.7c0,.32-1.36,1.05-2.7,1.05h-.46v-12.88l3.33,1.37h5.85l1.58-1.86,3.54,2.7Zm-11.13,.17v3.36h6.37v-3.36h-6.37Zm6.37,7.77v-3.46h-6.37v3.46h6.37Z"/>
      <path class="cls-2" d="M382.51,82.55l3.19,3.12c-.25,.25-.63,.32-1.29,.35-1.05,.98-2.84,2.34-4.1,3.15l-.38-.21c.28-.94,.63-2.38,.88-3.57h-9.42v4.45h5.15l1.61-1.89,3.71,2.8c-.25,.32-.8,.67-1.61,.81v5.7c0,2.07-.53,3.22-4.34,3.57-.07-.88-.21-1.58-.59-2.03-.46-.42-1.12-.77-2.56-.98v-.49s2.77,.21,3.46,.21c.56,0,.7-.21,.7-.66v-6.02h-5.53v11.2c-.04,.21-1.08,.98-2.73,.98h-.56v-12.18h-5.39v9.14c0,.28-1.44,1.02-2.73,1.02h-.49v-12.64l3.5,1.47h5.11v-4.45h-9.59c.14,2.1-.6,3.68-2.1,4.38-2.31,1.08-3.89-1.68-1.33-3.01,.98-.49,2.24-1.96,2.34-4.2-.91,.38-1.96,.77-3.15,1.12l-.28-.42c3.75-1.71,4.9-4.2,5.15-6.69h-4.94l-.28-1.02h5.25v-4.79l4.16,.42c-.07,.46-.32,.77-1.12,.88v3.5h2.7v-4.73l4.13,.42c-.07,.46-.35,.77-1.23,.91v3.4h3.22v-4.73l4.16,.42c-.07,.46-.38,.77-1.23,.91v3.4h2.56v-4.79l3.99,.38c-.07,.46-.38,.77-1.05,.84v3.57h1.86l1.61-2.45s1.89,1.72,2.94,2.91c-.1,.38-.46,.56-.91,.56h-5.5v2.7c0,.38,.07,.49,.63,.49h2.28c.17,0,.46,0,.63-.03,.21,0,.49-.07,.7-.14h.32l.17,.07c.8,.32,1.09,.59,1.09,1.16,0,1.12-1.16,1.58-4.38,1.58h-1.79c-2.28,0-2.59-.67-2.59-2.49v-3.33h-2.56v5.71c0,.25-1.29,.77-2.38,.77h-.56v-1.54h-3.22v1.08c0,.25-1.26,.77-2.35,.77h-.56v-6.79h-2.77c-.28,2.13-1.33,4.27-4.52,5.88h.28c.25,.66,.38,1.3,.49,1.93h22.23l1.89-1.82Zm-14.7-5.99v3.92h3.22v-3.92h-3.22Z"/>
      <path class="cls-2" d="M418.88,79.5c-.1,.46-.52,.77-1.26,.77-.32,1.05-.7,2-1.12,2.91,7.81,2.59,5.6,8.19,2.59,6.2-.46-1.68-1.82-3.6-3.15-5.15-1.19,2.17-2.7,3.85-4.48,5.08,3.19,4.1,7.91,7.18,12.71,8.58l-.07,.38c-1.33,.28-2.38,1.33-2.8,2.94-5.53-2.66-9.63-7.32-12.04-13.86v14.42c0,.42-1.43,1.26-2.7,1.26h-.67v-11.48c-3.5,3.92-8.65,7.6-14.25,9.77l-.28-.52c6.09-3.29,11.87-9.35,14.53-15.86v-7.63h-13.65l-.32-1.01h13.97v-5.71l4.66,.49c-.1,.49-.35,.84-1.3,.98v4.24h8.33l2.13-2.62s2.38,1.79,3.85,3.08c-.1,.38-.45,.56-.95,.56h-13.37v8.47c.49,1.01,1.09,2,1.75,2.91,1.72-2.59,2.94-6.23,3.43-10.26l4.45,1.09Zm-16.03,.24c-.11,.42-.56,.74-1.3,.7-.35,.95-.77,1.86-1.19,2.73,6.02,2.38,3.4,6.86,.91,4.83-.17-1.16-.81-2.49-1.58-3.64-1.68,2.87-3.78,5.04-6.27,6.55l-.46-.35c2.49-2.84,4.62-7.21,5.5-12.11l4.38,1.29Z"/>
      <path class="cls-2" d="M459.16,98.33s1.93,1.72,3.01,2.94c-.1,.39-.42,.56-.91,.56h-31.26l-.32-1.02h4.94v-10.43c-1.44,.38-3.01,.7-4.8,.98l-.14-.53c7.11-1.71,10.85-4.24,12.74-7.14h-11.55l-.28-1.02h4.66v-8.23l3.57,1.44h5.36v-5.36l4.48,.42c-.07,.49-.35,.84-1.19,.94v3.99h5.08l1.54-1.93,3.78,2.59c-.28,.35-.73,.56-1.61,.7v5.42h.63l1.71-2.34s1.96,1.64,3.15,2.8c-.11,.39-.45,.56-.95,.56h-15.05c-1.68,2.7-4.8,4.97-10.54,6.55l2.91,1.15h15.3l1.54-1.89,3.71,2.55c-.28,.35-.7,.56-1.61,.7v8.05h.42l1.68-2.49Zm-21.42,2.49h3.4v-8.4h-3.4v8.4Zm5.25-18.13c.88-1.82,1.16-3.71,1.19-5.78h-5.74v5.78h4.55Zm1.08,9.73v8.4h3.36v-8.4h-3.36Zm3.4-15.51c-.04,2.03-.35,3.96-1.19,5.78h6.65v-5.78h-5.46Zm-.14,7.81c15.61,.53,14.84,7.35,11.59,6.41-1.89-1.75-6.3-4.31-11.73-5.88l.14-.53Zm3.05,7.7v8.4h3.43v-8.4h-3.43Z"/>
      <path class="cls-2" d="M473.19,94.38c.84,4.13-.56,6.86-2.13,8.02-1.02,.84-2.73,.77-3.29-.42-.42-1.01,.17-2,1.12-2.55,1.5-.77,3.43-2.77,3.78-5.04h.53Zm-4.48-.07c5.11-2.59,8.3-6.41,10.26-10.96-.35,.56-1.12,.77-1.96,.28-.56-1.33-1.96-2.94-3.29-4.06-1.54,2-3.29,3.64-5.18,4.9l-.42-.35c2.59-3.15,5-8.02,6.16-13.34l4.48,1.4c-.14,.42-.59,.74-1.37,.7-.46,1.12-.95,2.17-1.47,3.19h4.69l1.75-1.79,3.04,2.73c-.24,.35-.59,.46-1.36,.52-1.86,7.63-5.67,13.97-15.05,17.26l-.28-.49Zm8.37-9.63c-1.47,1.23-3.61,2.77-6.34,4.41-.11,.42-.38,.77-.7,.91l-1.47-3.29c1.85-.31,5.29-1.33,8.37-2.49l.14,.46Zm-1.72-7.6c-.35,.63-.73,1.23-1.12,1.75,4.03,.91,5.18,2.94,4.9,4.13,.74-1.86,1.3-3.85,1.65-5.88h-5.43Zm2.7,17.54c6.76,4.59,3.22,9.98,.74,7.14,.21-2.31-.46-5-1.16-6.97l.42-.17Zm9.98-14.84c.07-1.05,.1-2.03,.1-3.04v-6.06l4.48,.42c-.07,.49-.35,.84-1.19,.95v4.76c0,.98-.07,1.96-.18,2.97h3.78l1.72-2.24s1.96,1.58,3.15,2.7c-.07,.39-.42,.56-.91,.56h-7.88l-.11,.74c11.41,6.27,9.17,14.18,5.71,11.48-.63-3.36-3.33-7.49-5.92-10.47-1.08,4.55-3.99,8.86-11.1,11.34l-.32-.38c5.95-3.29,7.95-7.95,8.54-12.71h-4.06l-.28-1.02h4.45Zm-2.42,14.63c8.54,3.64,5.5,10.12,2.48,7.42-.17-2.42-1.54-5.25-2.87-7.21l.39-.21Zm7.07-21.84c7.28,1.57,4.48,6.62,1.86,4.58-.25-1.47-1.26-3.29-2.21-4.34l.35-.24Zm0,21.53c10.64,3.05,7.98,10.78,4.45,8.16-.46-2.77-2.7-5.95-4.8-7.95l.35-.21Z"/>
      <path class="cls-2" d="M534.93,90.42s2.38,2.03,3.75,3.4c-.11,.38-.46,.56-.98,.56h-31.61l-.28-1.01h7.11v-22.05l3.78,1.5h11.62l1.79-1.89,3.4,2.76c-.25,.28-.74,.6-1.47,.74v18.94h.84l2.07-2.94Zm-28.91,12.04c3.96-1.86,8.12-5.25,9.98-7.67l4.34,2.14c-.25,.38-.81,.56-1.82,.42-2.73,2.1-7.53,4.38-12.29,5.57l-.21-.46Zm10.22-28.63v4.13h12.43v-4.13h-12.43Zm12.43,5.15h-12.43v3.99h12.43v-3.99Zm-12.43,5.01v4.06h12.43v-4.06h-12.43Zm0,9.38h12.43v-4.31h-12.43v4.31Zm8.51,2.28c17.54,2.41,12.01,9.52,8.93,6.65-1.58-1.89-4.55-4.31-9.14-6.16l.21-.49Z"/>
      <path class="cls-2" d="M570.52,79.12c-.14,.42-.56,.67-1.3,.63-.84,.7-2.07,1.54-3.15,2.28h5.04l1.26-1.43,2.45,2.45c-.25,.25-.74,.49-1.3,.59v6.41c-.04,.17-1.12,.8-2.38,.8h-.53v-1.02h-15.79v.56c0,.17-.42,.42-1.02,.63l2.91,1.19h11.52l1.54-1.68,3.26,2.49c-.18,.28-.67,.56-1.3,.67v8.09c-.04,.25-1.61,.84-2.62,.84h-.56v-1.64h-11.97v.91c0,.28-1.4,.98-2.66,.98h-.46v-11.73c-.35,.07-.7,.14-1.05,.14h-.46v-10.54l3.12,1.3h3.5c-.14-.04-.32-.1-.45-.21-.38-1.26-1.54-2.7-2.52-3.5l.32-.28c5.53,.28,5.43,3.36,3.89,3.99h5.08c.46-1.22,1.01-2.91,1.37-4.09l4.03,1.05v-1.19h-19.99v5.95c0,6.37-.31,14.25-6.34,19.43l-.46-.32c3.36-5.46,3.64-12.43,3.64-19.11v-12.5l3.68,1.44h19.11l1.58-1.71,3.43,2.55c-.25,.28-.77,.6-1.47,.74v4.1c-.04,.21-1.65,.77-2.63,.77h-.31Zm-.25-2.34v-3.12h-19.99v3.12h19.99Zm-15.44,12.04h6.48v-5.78h-6.48v5.78Zm1.16-5.32c6.2,1.89,4.3,5.99,2.24,4.48-.32-1.4-1.61-3.15-2.63-4.2l.39-.28Zm.59,9.73v2.84h11.97v-2.84h-11.97Zm11.97,6.72v-2.87h-11.97v2.87h11.97Zm2.06-16.91h-6.51v5.78h6.51v-5.78Zm-5.7,4.94c.67-1.12,1.5-2.87,2.31-4.59l2.98,1.72c-.17,.31-.67,.56-1.37,.38-1.09,.98-2.34,2.1-3.4,2.87l-.52-.38Z"/>
      <path class="cls-2" d="M38.13,133.31s2.13,1.89,3.33,3.22c-.07,.39-.42,.56-.91,.56h-12.46l-.28-1.02h8.44l1.89-2.76Zm-9.42-11.03l-.28-1.01h6.06l1.82-2.59s2.03,1.82,3.15,3.04c-.11,.39-.46,.56-.91,.56h-9.84Zm22.19,3.92c-.11,.46-.53,.81-1.37,.81-.04,.35-.07,.7-.11,1.08,.88,6.72,3.68,12.01,11.1,15.19l-.04,.42c-1.75,.35-2.77,1.33-3.08,3.4-5.53-3.4-7.56-9.59-8.37-16.28-1.05,6.2-3.71,12.04-14.81,16.35l-.38-.56c10.78-6.27,11.9-13.44,12.22-21.53l4.83,1.12Zm-13.3,4.27c2.38-3.85,4.45-9.77,5.22-15.82l4.97,1.16c-.1,.46-.52,.8-1.33,.8-.52,1.86-1.15,3.54-1.85,5.11h10.71l1.92-1.96,3.43,3.29c-.28,.28-.67,.38-1.44,.42-1.15,2.38-3.33,5.67-5.29,7.7l-.38-.25c.77-2.27,1.58-5.74,2-8.19h-11.41c-1.61,3.33-3.64,6.06-6.09,8.05l-.46-.32Z"/>
      <path class="cls-2" d="M81.42,122.04c-.24,.28-.77,.56-1.47,.74v21.11c-.04,.28-1.58,.98-2.66,.98h-.49v-2.7h-6.2v2.7c0,.35-1.19,1.12-2.52,1.12h-.53v-26.25l3.22,1.47h.63c.32-1.86,.74-4.55,.98-6.48l4.83,1.16c-.17,.56-.63,.8-1.4,.8-.84,1.33-2.06,3.12-3.04,4.52h3.68l1.61-1.82,3.36,2.66Zm-10.82,.17v8.72h6.2v-8.72h-6.2Zm6.2,18.94v-9.21h-6.2v9.21h6.2Zm21.7-19.11c-.28,.32-.7,.53-1.5,.63-.25,13.58-.8,20.62-2.59,22.65-1.12,1.29-2.62,1.82-4.66,1.82,0-1.08-.17-1.92-.73-2.41-.6-.56-2-1.05-3.61-1.33l.03-.56c1.65,.17,4.1,.35,4.94,.35,.7,0,.98-.11,1.37-.45,1.3-1.26,1.72-8.61,1.96-20.58h-7.35c-1.61,2.91-3.5,5.46-5.6,7.35l-.49-.32c2.06-3.54,4.09-9.1,5.15-14.46l4.66,1.37c-.14,.42-.56,.73-1.33,.73-.53,1.51-1.16,2.94-1.86,4.31h6.44l1.89-2,3.29,2.91Zm-14.98,6.27c9.45,3.33,6.37,10.12,3.19,7.46-.28-2.41-1.96-5.36-3.5-7.25l.32-.21Z"/>
      <path class="cls-2" d="M107.21,137.37c1.16,3.5,.81,6.2-.14,7.49-.66,.88-2.24,1.05-2.8,.07-.46-.84-.07-1.82,.73-2.42,.88-.91,1.82-3.22,1.61-5.15h.59Zm-2.97-4.45s.77-.14,1.05-.38c1.54-1.33,3.4-3.75,4.94-6.2-1.05,.38-2.28,.84-3.54,1.22-.25,.35-.53,.6-.81,.74l-1.5-3.64s.67-.17,.95-.38c1.71-1.89,3.89-6.9,4.59-9.56l4.03,2c-.14,.31-.52,.59-1.22,.52-1.4,2.28-3.85,5.46-6.06,7.56,1.26,.04,2.87,.04,4.48,0,.74-1.29,1.37-2.52,1.75-3.5l3.64,2.45c-.17,.28-.66,.49-1.29,.35-1.82,2.66-5.25,6.37-8.4,8.89,1.75-.07,4.1-.25,6.62-.42-.28-1.33-.7-2.62-1.19-3.64l.42-.17c6.34,3.99,3.22,8.89,.98,6.44,.04-.52,0-1.08-.07-1.64-1.92,.67-4.52,1.54-7.25,2.34-.25,.35-.52,.56-.84,.67l-1.26-3.64Zm5.39,3.92c4.73,4.48,1.64,8.96-.25,6.55,.38-2.07,.17-4.66-.25-6.44l.49-.11Zm14.11,.07c-1.05,1.19-2.63,3.08-4.9,5.39-.04,.46-.25,.88-.6,1.01l-2.2-3.15c.38,1.96-1.12,3.15-2.38,1.86,.1-1.89-.63-4.24-1.4-5.74l.42-.17c2.03,1.29,3.01,2.66,3.29,3.85,1.4-.53,4.55-1.96,7.6-3.43l.18,.39Zm9.8-11.97s2,1.68,3.19,2.91c-.11,.38-.46,.56-.95,.56h-8.37v14.7c0,2.13-.46,3.5-3.99,3.82-.04-.88-.17-1.58-.59-1.96-.42-.46-1.08-.77-2.49-.98v-.53s2.77,.21,3.4,.21c.56,0,.7-.18,.7-.6v-14.67h-7.81l-.28-1.02h10.36l.91-2.77h-6.41l-1.4,1.4-3.04-2.28c.38-.28,.98-.56,1.54-.77,1.12-2.42,2.59-6.3,3.15-8.19l4.2,.77c-.1,.46-.46,.8-1.43,.8-.18,.56-.42,1.19-.7,1.89h5.88l1.44-1.54,2.98,2.55c-.25,.28-.6,.39-1.26,.42l-2.55,7.7h1.79l1.75-2.45Zm-15.37,5.04c7.25,2.17,4.51,7.28,2,5.18-.18-1.68-1.33-3.75-2.38-4.97l.39-.21Zm9.8-6.37l1.43-4.34h-6.27c-.59,1.51-1.26,3.08-1.79,4.34h6.62Zm7.91,8.16c-.18,.28-.53,.38-1.23,.21-1.33,.94-4.03,2.52-5.74,3.5l-.32-.35c1.19-1.61,2.87-4.34,3.78-5.88l3.5,2.52Zm-6.93,5.08c9.45,1.33,7.77,8.37,4.66,6.3-1.02-1.82-2.63-4.38-4.9-5.95l.24-.35Z"/>
      <path class="cls-2" d="M147.6,137.96c1.08,3.96-.49,6.62-2.13,7.49-1.02,.59-2.42,.46-2.83-.56-.32-.95,.31-1.75,1.22-2.21,1.4-.67,3.08-2.56,3.19-4.73h.56Zm23.28-16.38s2.21,1.65,3.61,2.87c-.1,.39-.46,.56-.94,.56h-30.56l-.32-1.02h18.48c.56-1.43,1.19-3.33,1.58-4.76h-17.36l-.28-1.02h12.71c-.56-1.37-1.96-2.8-3.19-3.57l.28-.32c5.57-.24,6.34,2.7,5.18,3.89h6.51l2-2.45s2.24,1.68,3.61,2.91c-.11,.38-.46,.56-.95,.56h-7.74l3.82,1.15c-.14,.42-.56,.7-1.33,.63-.94,.84-2.38,2.03-3.71,2.97h6.62l2-2.42Zm-19.64,15.12c0,.31-1.47,1.01-2.77,1.01h-.49v-11.94l3.46,1.44h13.76l1.61-1.79,3.46,2.66c-.21,.28-.74,.56-1.47,.74v7.6c-.04,.25-1.65,.98-2.73,.98h-.53v-1.22h-14.32v.53Zm15.37,6.51c1.02,.31,1.3,.7,1.3,1.29,0,1.37-1.4,1.85-8.19,1.85h-4.73c-3.54,0-4.24-.52-4.24-2.69v-5.85l4.17,.38c-.07,.46-.39,.77-1.05,.84v3.99c0,.46,.11,.6,1.58,.6h4.52c1.82,0,3.36-.04,3.92-.07,.52-.04,.7-.11,.91-.46,.35-.56,.77-1.86,1.29-3.64h.42l.1,3.75Zm-15.47-23.91c7.25,1.02,4.34,6.3,1.61,4.2-.14-1.4-1.09-3.01-1.92-3.99l.32-.21Zm.1,8.93v2.94h14.32v-2.94h-14.32Zm14.32,6.93v-2.97h-14.32v2.97h14.32Zm-8.89,1.68c7.7,1.4,5.43,7.04,2.7,5.08-.28-1.71-1.72-3.71-3.01-4.83l.32-.25Zm11.1,1.05c8.93,2.49,6.44,8.86,3.43,6.62-.32-2.21-2.07-4.8-3.78-6.37l.35-.25Z"/>
      <path class="cls-2" d="M184.91,134.57c2.07-1.19,3.01-2.7,3.46-4.52-1.82-.8-2.97-1.68-2.97-3.19,0-1.26,.88-2.34,2.42-2.34s2.66,1.16,2.66,3.33c0,2.66-1.26,6.06-4.97,7.84l-.59-1.12Z"/>
      <path class="cls-2" d="M209.41,124.84c-.14,.35-.46,.56-1.09,.67v20.72c-.03,.25-1.33,.98-2.62,.98h-.59v-18.8c-1.29,1.68-2.66,3.18-4.13,4.45l-.49-.32c2.91-4.34,5.85-11.13,7.39-17.85l4.8,1.47c-.17,.42-.56,.7-1.37,.7-.98,2.66-2.13,5.15-3.43,7.39l1.54,.6Zm13.76,8.26c-.21,2.94-.95,5.46-2.45,7.53,3.57,1.79,8.19,2.66,13.2,2.83v.42c-1.37,.38-2.45,1.61-2.7,3.25-5.21-.74-9.21-2.17-12.22-4.62-2.24,2.03-5.53,3.61-10.12,4.69l-.25-.53c4.1-1.5,6.93-3.36,8.72-5.78-1.37-1.5-2.49-3.33-3.33-5.46l.49-.28c.91,1.61,2.24,2.98,3.85,4.13,.94-1.82,1.43-3.85,1.58-6.2h-4.97v1.08c0,.28-1.44,1.01-2.77,1.01h-.42v-12.01l3.36,1.4h4.83v-3.71h-8.86l-.28-1.01h9.14v-5.11l4.52,.46c-.07,.49-.35,.84-1.26,.98v3.68h4.45l2.1-2.7s2.31,1.82,3.75,3.15c-.11,.38-.46,.56-.95,.56h-9.35v3.71h4.55l1.64-1.79,3.43,2.62c-.25,.28-.77,.59-1.44,.77v7.77c-.04,.25-1.64,.95-2.73,.95h-.56v-1.82h-4.97Zm-3.19-1.02v-6.48h-5v6.48h5Zm3.26-6.48v6.48h4.9v-6.48h-4.9Z"/>
      <path class="cls-2" d="M257.01,115.84c-.07,.49-.35,.84-1.26,.98,.77,13.2,3.99,21.74,16.03,26.67l-.07,.39c-1.72,.31-2.87,1.36-3.33,3.18-9.1-4.9-11.94-13.09-12.88-24.01-.63,8.75-3.15,17.75-16.03,24.12l-.42-.53c13.3-9.07,13.06-20.37,13.09-31.29l4.87,.49Z"/>
      <path class="cls-2" d="M287.52,129.91c-.14,.35-.46,.56-1.08,.67v15.58c-.07,.25-1.47,.98-2.73,.98h-.63v-14.28c-1.75,1.58-3.64,2.94-5.85,4.13l-.35-.38c4.55-3.64,7.91-8.75,10.19-13.93h-8.89l-.32-1.01h9.63c1.02-2.41,1.75-4.8,2.28-7.07l5.04,1.37c-.14,.42-.46,.67-1.37,.7-.56,1.65-1.26,3.29-2.1,5.01h11.8l2.17-2.66s2.38,1.82,3.85,3.12c-.07,.38-.46,.56-.95,.56h-17.36c-1.22,2.31-2.73,4.66-4.55,6.79l1.22,.45Zm18.38,11.62s2.28,1.75,3.75,3.01c-.1,.38-.46,.56-.98,.56h-21.21l-.28-1.01h8.51v-10.68h-6.69l-.28-1.01h6.97v-8.19l4.48,.46c-.04,.45-.32,.77-1.12,.91v6.83h2.8l1.96-2.45s2.21,1.68,3.5,2.91c-.07,.38-.46,.56-.91,.56h-7.35v10.68h4.76l2.1-2.56Z"/>
      <path class="cls-2" d="M319.51,120.92c.28,2.2-.56,3.71-1.64,4.31-.98,.56-2.24,.42-2.62-.6-.32-.98,.31-1.71,1.19-2.17,1.08-.63,2.07-2.34,1.79-4.16l.56-.04c.25,.56,.42,1.12,.56,1.65h10.36v-2.21h-9.77l-.28-1.01h19.01l1.75-2.17s2.03,1.5,3.29,2.62c-.11,.38-.45,.56-.95,.56h-9.8v2.21h10.43l1.75-1.79,3.19,3.05c-.28,.28-.67,.35-1.33,.38-.95,1.12-2.52,2.63-3.78,3.5l-.39-.25c.28-1.05,.6-2.63,.81-3.89h-3.15l1.79,2.73c-.25,.14-.59,.1-.98-.21-1.37,.35-4.66,.84-7.14,.98l-.14-.46c1.96-.77,4.97-2.24,6.34-3.04h-7.39v6.76c0,.17-1.05,.74-2.69,.74h-.56v-7.49h-10.19Zm5.71,21.74c1.68-.25,3.43-.49,5.25-.77l.1,.53c-2.73,1.02-6.58,2.42-12.11,4.1-.17,.46-.53,.74-.88,.8l-1.75-3.5c.59-.04,1.37-.14,2.28-.25v-6.16l3.29,.32c-.04,.38-.28,.63-.88,.74v4.83l2-.31v-7.98h-1.44v.17c0,.21-1.26,.81-2.34,.81h-.38v-7.84l2.87,1.22h4.87l1.33-1.47,2.94,2.24c-.17,.21-.67,.49-1.23,.59v4.13c-.03,.25-1.43,.8-2.31,.8h-.46v-.67h-1.16v2.87h.67l1.47-1.79s1.61,1.26,2.59,2.24c-.07,.39-.38,.56-.88,.56h-3.85v3.78Zm-5.5-16.84c1.61-.14,5.18-.56,8.68-1.05l.07,.53c-1.47,.67-3.67,1.61-6.65,2.76-.14,.42-.46,.67-.8,.74l-1.29-2.98Zm.7-3.88c7.88-1.16,8.4,2.97,6.09,2.87-1.43-.84-4.2-1.89-6.27-2.31l.17-.56Zm5.95,12.04v-3.64h-5.29v3.64h5.29Zm18.8-3.22c-.25,.32-.63,.42-1.47,.46-1.02,1.4-2.24,2.62-3.75,3.78,2.17,.74,4.66,1.19,7.14,1.44l-.04,.38c-1.08,.32-1.75,1.19-2.03,2.49-.74-.17-1.44-.38-2.14-.59l1.4,1.05c-.14,.21-.56,.46-1.05,.53v5.57c-.04,.28-1.51,.88-2.49,.88h-.53v-1.26h-5.74v.49c0,.25-.95,1.02-2.42,1.02h-.52v-7.7c-.77,.25-1.58,.46-2.42,.67l-.24-.52c2.7-1.05,5.25-2.42,7.39-4.13-1.02-.84-1.93-1.86-2.66-2.94-1.19,1.37-2.59,2.62-4.09,3.54l-.42-.35c1.89-1.96,3.64-5.32,4.41-8.09l3.92,.77c-.07,.35-.35,.52-1.22,.49-.21,.39-.46,.81-.74,1.19h5.18l1.71-1.61,2.8,2.49Zm-4.2,7.28c-1.12-.45-2.17-.98-3.15-1.61-1.26,.8-2.66,1.5-4.17,2.07l1.3,.52h5l1.02-.98Zm-6.86-12.92c9.21-.63,9.59,3.78,7.11,3.54-1.61-.95-4.94-2.35-7.32-2.98l.21-.56Zm.67,5.78c-.21,.24-.42,.52-.63,.77,.95,.98,2.17,1.75,3.54,2.42,1.09-.98,2.03-2.06,2.77-3.18h-5.67Zm5.46,13.55v-4.41h-5.74v4.41h5.74Z"/>
      <path class="cls-2" d="M385.77,131.77c-.21,.31-.6,.38-1.29,.42-1.09,.88-2.94,2.13-4.24,2.83l-.39-.21c.35-.84,.81-2.17,1.05-3.25h-22.51c-.04,2-.98,3.36-2.07,3.92-1.01,.53-2.34,.32-2.73-.77-.31-1.02,.35-1.79,1.26-2.21,1.22-.52,2.55-1.96,2.52-3.64h.56c.21,.59,.32,1.19,.38,1.68h22.47l1.82-1.82,3.15,3.05Zm-4.24,11.38s2.17,1.5,3.57,2.7c-.11,.38-.46,.56-.95,.56h-29.44l-.31-1.01h13.37v-2.94h-9.8l-.32-1.01h10.12v-2.52c-2.28,.25-4.69,.52-7.28,.77-.25,.39-.6,.63-.91,.7l-1.05-3.25s.53-.07,.84-.17c1.47-.35,3.22-1.47,4.48-2.42h-4.34l-.28-1.01h16.03l1.61-1.72s1.82,1.19,3.01,2.17c-.1,.38-.42,.56-.91,.56h-10.71c-1.79,.98-4.2,2.03-6.44,2.8,3.5-.04,8.68-.14,14.25-.32-.8-.56-1.79-1.12-2.8-1.58l.17-.52c9.28,.31,8.47,5.32,5.99,4.83,.7,.53,1.89,1.4,2.73,2.13-.11,.39-.46,.56-.95,.56h-9.94v2.94h8.3l1.96-2.24Zm-26.36-25.59h12.64v-2.98l4.8,.42c-.07,.49-.35,.84-1.3,.95v1.61h7.35l2-2.28s2.21,1.58,3.67,2.73c-.1,.38-.49,.56-.98,.56h-12.04v2.42h5.36l1.82-2.14s2.17,1.47,3.54,2.59c-.11,.38-.46,.56-.98,.56h-23.24l-.32-1.01h10.33v-2.42h-12.39l-.25-1.02Zm21.28,12.11v-1.16h-13.51v.42c0,.28-1.61,1.05-3.01,1.05h-.49v-7.35l3.71,1.44h12.95l1.68-1.75,3.54,2.62c-.21,.25-.67,.53-1.3,.67v3.19c-.03,.25-1.82,.88-2.94,.88h-.63Zm0-2.17v-2.42h-13.51v2.42h13.51Zm-4.03,11.69c-.07,.45-.31,.77-1.15,.91v1.33h5.78l1.75-2.07c-.38-.49-.98-.98-1.68-1.58-2.45,.31-5.5,.67-8.96,1.09l4.27,.32Z"/>
      <path class="cls-2" d="M422.13,142.34c1.43,.46,1.85,.81,1.85,1.54,0,1.92-2.13,2.38-12.71,2.38h-7.14c-5.08,0-7.07-.63-7.07-4.27v-13.79l-5.15,1.33-.59-.91,5.74-1.47v-9.17l4.66,.49c-.04,.45-.42,.84-1.26,.98v6.79l6.34-1.68v-9.87l4.62,.46c-.1,.49-.38,.84-1.3,.98v7.56l6.02-1.54h-.17l2.07-2.14,3.29,3.5c-.28,.28-.67,.42-1.43,.49-.91,4.1-2.73,9.94-5.04,13.83l-.42-.25c.88-4.34,1.47-10.26,1.68-14.39l-5.99,1.58v13.9c0,.35-1.47,1.05-2.7,1.05h-.63v-14.07l-6.34,1.65v13.93c0,1.4,.74,1.86,3.54,1.86h7.53c3.01,0,5.36-.07,6.44-.17,.84-.07,1.23-.28,1.54-.74,.53-.8,1.19-2.49,2.14-5.74h.42l.07,5.92Z"/>
      <path class="cls-2" d="M442.04,126.34l3.43,2.62c-.25,.25-.77,.59-1.51,.7v13.44c0,2.28-.42,3.57-3.88,3.89-.04-.95-.18-1.72-.56-2.21-.38-.49-.98-.88-2.17-1.05v-.52s2.28,.17,2.91,.17c.53,0,.63-.21,.63-.63v-4.52c-1.44,.91-3.08,1.89-5.01,2.8-.1,.46-.42,.74-.77,.84l-.81-1.75c-.56,2.63-1.75,5.25-4.45,7.25l-.38-.38c2.21-3.57,2.31-8.09,2.31-12.29v-7.98l3.5,1.37h5.25l1.5-1.75Zm-1.89-7.11c8.82,2.73,6.09,9.2,3.12,6.79-.07-.77-.35-1.61-.7-2.45-2.59,.7-6.27,1.68-10.36,2.52-.25,.38-.56,.59-.84,.74l-1.51-3.68s.63-.14,.95-.32c2.14-1.57,4.87-5.95,5.81-8.3l4.41,1.79c-.17,.31-.56,.59-1.26,.56-1.68,1.92-4.45,4.45-6.97,6.2,2.38-.07,5.74-.21,9.31-.42-.63-1.19-1.51-2.31-2.31-3.19l.35-.24Zm-5.39,15.47c0,1.19-.03,2.52-.17,3.81,1.79-.31,4.06-.8,6.3-1.47v-7.95h-6.13v3.15c6.02-1.82,7.35,3.47,4.45,3.12-1.05-.81-2.56-1.58-4.45-2v1.33Zm16.14-4.97c-3.12,0-3.71-.67-3.71-2.94v-11.8l4.34,.42c-.04,.46-.39,.77-1.09,.88v4.03h4.73l1.72-2.21s1.89,1.54,3.04,2.66c-.1,.38-.42,.56-.91,.56h-8.58v4.76c0,.53,.14,.7,1.26,.7h2.94c1.12,0,2.24-.04,2.66-.04,.28-.04,.7-.07,.91-.11,.25,0,.66-.1,.94-.17h.32l.17,.04c.98,.38,1.33,.7,1.33,1.33,0,1.33-1.37,1.89-6.72,1.89h-3.36Zm9.17,13.23c.98,.35,1.23,.73,1.23,1.33,0,1.4-1.4,2-6.83,2h-3.43c-3.19,0-3.85-.7-3.85-3.01v-12.74l4.41,.42c-.07,.46-.38,.77-1.12,.88v3.64h5.11l1.68-2.21s1.92,1.54,3.08,2.66c-.1,.38-.42,.56-.91,.56h-8.96v6.05c0,.56,.17,.74,1.33,.74h2.98c1.23,0,2.28-.04,2.66-.04,.42-.03,.63-.14,.84-.38,.32-.46,.81-1.89,1.26-3.43h.38l.14,3.54Z"/>
      <path class="cls-2" d="M499.2,143.32c1.01,1.92,1.19,2.94,.63,3.36-1.4,1.16-3.85-.38-5.11-1.96-2.31-2.8-3.92-6.23-5.01-10.15-1.54,1.08-3.29,1.93-5.11,2.59l-.35-.45c1.75-1.05,3.46-2.42,5-4.06-.84-3.82-1.29-7.95-1.47-12.29h-14.49v6.58c0,5.71-.25,14-5.32,19.6l-.46-.32c2.63-5.85,2.8-13.09,2.8-19.29v-9l3.5,1.4h13.9c-.04-1.58-.07-3.15-.07-4.8l4.55,.49-.07-.07,.35-.25c5.95,1.16,3.46,5,1.37,3.33-.17-1.05-.91-2.2-1.61-2.94-.07,.42-.38,.77-1.26,.91-.04,1.12-.04,2.2,0,3.33h4.66l1.64-2.24s1.86,1.58,2.98,2.7c-.1,.38-.46,.56-.91,.56h-8.37c.07,3.04,.31,6.12,.8,9,1.29-2,2.38-4.3,3.12-6.86l4.24,1.68c-.17,.42-.59,.7-1.37,.59-1.43,3.22-3.22,5.74-5.36,7.74,.91,3.61,2.31,6.76,4.45,9.1,.49,.59,.7,.59,1.02-.11,.46-.88,1.19-2.55,1.71-4.03l.42,.07-.8,5.78Zm-25.06-5.81c1.08,3.33,.67,5.95-.21,7.11-.63,.7-1.96,.91-2.49,.14-.42-.77-.04-1.61,.7-2.17,.84-.91,1.61-3.15,1.37-5.08h.63Zm10.5-16.14s1.89,1.47,3.12,2.59c-.11,.39-.46,.56-.95,.56h-12.36l-.28-1.01h8.72l1.75-2.14Zm-6.65,13.16c0,.25-1.33,.91-2.52,.91h-.42v-9.84l3.08,1.26h4.76l1.47-1.54,3.15,2.38c-.17,.25-.7,.52-1.29,.63v5.43c-.04,.25-1.54,.8-2.49,.8h-.53v-1.33h-5.21v1.29Zm8.12,8.96c.77,.28,.95,.63,.95,1.12,0,1.08-1.09,1.65-5.43,1.65h-2.7c-2.52,0-2.94-.59-2.94-2.35v-7.63l3.6,.35c-.03,.46-.38,.77-1.01,.88v5.74c0,.42,.1,.53,.98,.53h2.24c1.05,0,1.82,0,2.13-.04,.32,0,.42-.07,.59-.38,.28-.49,.63-2.03,1.05-3.75h.42l.1,3.88Zm-8.12-15.61v4.34h5.21v-4.34h-5.21Zm1.92,7.14c6.3,3.22,3.54,7.84,1.4,5.71,.04-1.79-.91-4.06-1.82-5.46l.42-.25Zm6.55,2.07c6.65,3.89,4.03,8.96,1.71,6.79-.04-2.17-1.12-4.83-2.17-6.58l.46-.21Z"/>
      <path class="cls-2" d="M510.95,127.22c.24,2.49-.7,4.2-1.89,4.83-1.08,.67-2.45,.42-2.87-.63-.35-1.08,.31-1.92,1.22-2.41,1.3-.7,2.42-2.62,2.17-4.76l.52-.04c.32,.7,.53,1.4,.67,2.03h16.24c1.22-2.13,2.52-5.11,3.25-7.28l4.76,1.58c-.14,.42-.56,.7-1.37,.63-1.33,1.54-3.5,3.54-5.64,5.08h5.53l1.89-1.89,3.33,3.15c-.28,.28-.67,.35-1.37,.38-1.19,1.12-3.25,2.62-4.83,3.5l-.35-.25c.45-1.05,1.05-2.66,1.43-3.92h-22.72Zm22.09,5.67c-.28,.35-.67,.46-1.54,.52-1.65,2.73-3.78,5.08-6.41,7.04,3.92,1.68,8.51,2.62,13.3,3.15l-.07,.42c-1.5,.35-2.52,1.5-2.97,3.22-4.97-1.02-9.35-2.59-12.88-5.04-4.31,2.49-9.66,4.17-16.1,5.01l-.17-.53c5.6-1.33,10.43-3.36,14.25-6.06-2.31-2.07-4.16-4.66-5.5-7.88h-3.89l-.32-.98h16.87l2.21-1.93,3.22,3.05Zm1.82-15.02c-.38,.35-1.12,.35-2.1-.11-6.44,.98-16.35,1.89-24.82,2.03l-.11-.66c8.12-.84,18.41-2.8,23.84-4.45l3.19,3.19Zm-23,2.06c7.88,2.21,4.69,7.88,1.82,5.46-.1-1.82-1.19-3.89-2.17-5.22l.35-.25Zm3.85,12.81c1.58,2.66,3.89,4.76,6.69,6.37,2.17-1.86,3.92-3.99,5.18-6.37h-11.87Zm3.89-13.41c7.63,2.7,4.2,8.33,1.47,5.81,0-1.96-.91-4.16-1.85-5.64l.38-.17Z"/>
      <path class="cls-2" d="M555.12,140.73c2.66-.46,5.6-.95,8.51-1.44l.1,.53c-3.75,1.5-9.17,3.4-16.98,5.85-.21,.46-.56,.73-.95,.84l-1.75-4.17c1.61-.14,4.41-.56,7.81-1.08v-6.37h-6.76l-.28-1.02h7.04v-5.08l4.48,.38c-.07,.49-.35,.81-1.22,.95v3.75h2.52l1.89-2.52s2.1,1.75,3.33,2.98c-.07,.39-.45,.56-.95,.56h-6.79v5.85Zm5.18-25.34s2.17,1.71,3.47,2.94c-.11,.38-.46,.56-.98,.56h-10.99l4.1,1.29c-.14,.35-.53,.63-1.26,.6-1.65,1.89-4.48,4.24-6.9,5.81,2.62-.14,6.79-.39,11.24-.74-.77-1.58-1.85-3.04-2.94-4.13l.35-.24c9.31,3.18,6.62,10.01,3.57,7.53-.07-.77-.32-1.54-.63-2.35-2.91,.77-7.07,1.86-11.73,2.91-.25,.42-.53,.7-.84,.84l-1.75-3.99s.73-.11,1.01-.28c2-1.37,4.45-5.18,5.39-7.25h-6.83l-.25-1.01h14.07l1.89-2.49Zm7.77,23.24c0,.32-1.33,.91-2.49,.91h-.56v-21.74l4.34,.46c-.11,.49-.38,.84-1.29,.95v19.43Zm8.12-23c-.07,.49-.42,.84-1.26,.98v26.5c0,2.35-.53,3.78-4.52,4.17-.14-1.05-.31-1.82-.84-2.31-.56-.53-1.4-.91-3.04-1.19v-.49s3.64,.25,4.41,.25c.63,0,.8-.21,.8-.7v-27.65l4.45,.46Z"/>
      <path class="cls-2" d="M426.04,165.94c-.25,.25-.81,.56-1.54,.74v23.49c-.07,.28-1.68,1.09-2.94,1.09h-.56v-2.49h-15.26v1.33c0,.42-1.37,1.26-2.83,1.26h-.56v-27.9l3.68,1.58h3.99c.49-1.89,.88-4.34,1.08-6.13l5.29,.91c-.11,.46-.49,.77-1.26,.8-.94,1.33-2.34,3.01-3.78,4.41h9.31l1.79-2,3.61,2.91Zm-20.3,.11v6.37h15.26v-6.37h-15.26Zm0,7.39v6.62h15.26v-6.62h-15.26Zm15.26,14.32v-6.76h-15.26v6.76h15.26Z"/>
      <path class="cls-2" d="M438.82,182.81c.84,4.13-.56,6.86-2.13,8.02-1.02,.84-2.73,.77-3.29-.42-.42-1.01,.17-2,1.12-2.55,1.5-.77,3.43-2.77,3.78-5.04h.53Zm-4.48-.07c5.11-2.59,8.3-6.41,10.26-10.96-.35,.56-1.12,.77-1.96,.28-.56-1.33-1.96-2.94-3.29-4.06-1.54,2-3.29,3.64-5.18,4.9l-.42-.35c2.59-3.15,5-8.02,6.16-13.34l4.48,1.4c-.14,.42-.59,.74-1.37,.7-.46,1.12-.95,2.17-1.47,3.19h4.69l1.75-1.79,3.04,2.73c-.24,.35-.59,.45-1.36,.52-1.86,7.63-5.67,13.97-15.05,17.26l-.28-.49Zm8.37-9.63c-1.47,1.23-3.61,2.77-6.34,4.41-.11,.42-.38,.77-.7,.91l-1.47-3.29c1.85-.31,5.29-1.33,8.37-2.49l.14,.46Zm-1.72-7.6c-.35,.63-.73,1.23-1.12,1.75,4.03,.91,5.18,2.94,4.9,4.13,.74-1.86,1.3-3.85,1.65-5.88h-5.43Zm2.7,17.54c6.76,4.59,3.22,9.98,.74,7.14,.21-2.31-.46-5-1.16-6.97l.42-.17Zm9.98-14.84c.07-1.05,.1-2.03,.1-3.04v-6.06l4.48,.42c-.07,.49-.35,.84-1.19,.95v4.76c0,.98-.07,1.96-.18,2.97h3.78l1.72-2.24s1.96,1.58,3.15,2.7c-.07,.39-.42,.56-.91,.56h-7.88l-.11,.73c11.41,6.27,9.17,14.18,5.71,11.48-.63-3.36-3.33-7.49-5.92-10.47-1.08,4.55-3.99,8.86-11.1,11.34l-.32-.38c5.95-3.29,7.95-7.95,8.54-12.71h-4.06l-.28-1.02h4.45Zm-2.41,14.63c8.54,3.64,5.5,10.12,2.48,7.42-.17-2.41-1.54-5.25-2.87-7.21l.39-.21Zm7.07-21.84c7.28,1.58,4.48,6.62,1.86,4.59-.25-1.47-1.26-3.29-2.21-4.34l.35-.25Zm0,21.53c10.64,3.05,7.98,10.78,4.45,8.16-.46-2.77-2.7-5.95-4.79-7.95l.35-.21Z"/>
      <path class="cls-2" d="M472.24,171.16c3.64,1.05,6.51,2.73,7.74,4.76,.49,.77,.73,1.75,.63,2.59-.14,.74-.63,1.4-1.58,1.4-.77,0-1.29-.49-1.79-1.58-1.02-2.1-2.7-4.45-5.36-6.65l.35-.53Z"/>
      <path class="cls-2" d="M501.71,171.51s1.92,1.54,3.08,2.66c-.1,.38-.42,.56-.91,.56h-5.84v4.73h1.33l1.5-1.64,3.25,2.45c-.21,.24-.7,.52-1.37,.66v9.14c-.03,.25-1.58,.84-2.55,.84h-.49v-2.31h-6.3v1.79c0,.32-1.29,.98-2.59,.98h-.42v-13.27l3.18,1.37h1.37v-4.73h-5.99l-.28-1.01h6.27v-4.38h-3.67l-.04-.17c-.98,.8-1.96,1.54-3.01,2.17l-.38-.31c2.94-3.15,5.67-8.58,6.69-12.11l4.73,1.37c-.11,.42-.49,.67-1.44,.7,8.86,2.41,6.69,7.07,4.27,6.65,.46,.38,.95,.77,1.37,1.16-.1,.38-.45,.56-.91,.56h-4.51v4.38h2l1.68-2.21Zm-2.8-3.19l1.58-2.03,.52,.42c-.49-1.61-1.61-3.68-3.4-5.36-1.26,2.24-3.18,4.8-5.46,6.97h6.76Zm-5.5,12.11v7.14h6.3v-7.14h-6.3Zm28.46-7.98c-.28,.28-.66,.39-1.4,.42-1.3,1.54-3.71,3.75-5.5,5.04l-.38-.25c.73-1.43,1.71-3.71,2.34-5.43h-3.5v15.02c0,2.28-.53,3.82-4.31,4.13-.07-.95-.25-1.71-.74-2.21s-1.26-.88-2.87-1.08v-.49s3.29,.21,4.03,.21c.53,0,.7-.21,.7-.67v-14.91h-6.79l-.31-1.01h13.72l1.86-1.79,3.15,3.01Zm-17.57-10.43l-.32-.95h11.94l1.85-1.82,3.12,2.98c-.28,.28-.7,.35-1.4,.42-1.44,1.47-3.89,3.29-6.06,4.52,2.34,2.21,.91,4.83-1.29,3.71-.84-2-3.15-4.41-5.01-5.74l.31-.32c2.45,.35,4.17,1.02,5.32,1.82,1.08-1.4,2.31-3.18,3.08-4.62h-11.55Z"/>
      <path class="cls-2" d="M536.19,176.06c-.21,.25-.56,.35-1.3,.39-.73,2.62-2.31,5.53-4.55,7.77,.28,.07,.46,.17,.74,.38,2.87,2.52,7.04,2.94,14.63,2.94,4.27,0,7.67,0,11.97-.25v.45c-1.4,.28-2.17,1.4-2.38,2.73h-10.68c-7.74,0-10.96-1.09-13.93-4.73-.52-.59-.84-.53-1.12,.04-.56,1.05-1.43,2.83-2.1,4.41,.1,.32,.07,.49-.18,.74l-2.49-3.22c1.23-.84,3.01-2.38,4.13-3.12,1.44-2.34,2.52-5.57,2.98-8.37h-2.52l-1.08,.98-2.52-1.92c.32-.21,.84-.46,1.29-.6,1.02-1.64,2.38-4.17,3.22-5.95h-4.55l-.31-1.02h4.87l1.37-1.4,2.83,2.55c-.25,.28-.88,.46-1.58,.53-.8,1.58-2.17,4.06-3.22,5.81h2l1.68-1.61,2.8,2.38v-8.82l3.08,1.37h2.07c-.25-.11-.49-.25-.74-.45,.04-1.33-.59-2.84-1.26-3.75l.35-.18c4.9,1.02,4.48,3.78,2.94,4.38h4.52c.42-1.33,.8-3.12,.98-4.41l4.55,.98c-.1,.42-.53,.74-1.26,.74-.77,.84-1.93,1.86-3.15,2.7h3.04l1.44-1.68,3.33,2.52c-.21,.25-.77,.59-1.5,.7v13.62c0,1.86-.42,2.84-3.71,3.12-.07-.67-.17-1.19-.49-1.54-.38-.28-.94-.59-2.24-.73v-.53s2.31,.17,2.91,.17c.49,0,.63-.21,.63-.63v-14h-12.6v16.03c0,.31-1.19,.98-2.42,.98h-.46v-10.5Zm-9.21-16.7c8.02,1.96,5.21,7.84,2.31,5.64-.21-1.89-1.47-4.06-2.62-5.39l.32-.25Zm7.35,3.54h9.87c-.11-.07-.25-.14-.35-.25-.1-1.33-.91-2.83-1.68-3.71l.32-.21c4.94,.77,5.04,3.29,3.75,4.16h5.04l1.93-2.31s2.17,1.58,3.54,2.77c-.11,.38-.46,.56-.95,.56h-21.21l-.25-1.02Zm12.85,20.65v-1.16h-3.85v1.26c0,.21-1.05,.77-2,.77h-.35v-8.82l2.52,1.09h.7v-3.08h-4.2l-.28-1.01h4.48v-2.52l3.36,.35c-.07,.39-.32,.67-.95,.77v1.4h1.16l1.29-1.72s1.5,1.23,2.42,2.17c-.1,.38-.42,.56-.88,.56h-3.99v3.08h.66l1.16-1.26,2.35,2.07c-.25,.25-.7,.53-1.26,.59v4.8c-.07,.14-.95,.66-1.89,.66h-.45Zm0-2.17v-3.68h-3.85v3.68h3.85Z"/>
      <path class="cls-2" d="M564.01,175.15c0-2.73,2.24-4.94,4.97-4.94s4.94,2.21,4.94,4.94-2.21,4.97-4.94,4.97-4.97-2.24-4.97-4.97Zm1.26,0c0,2.03,1.65,3.71,3.71,3.71s3.67-1.68,3.67-3.71-1.64-3.67-3.67-3.67-3.71,1.64-3.71,3.67Z"/>
    </g>
  </g>
</svg>