<?xml version="1.0" encoding="utf-8"?>
<!-- Generator: Adobe Illustrator 27.0.0, SVG Export Plug-In . SVG Version: 6.00 Build 0)  -->
<svg version="1.1" id="圖層_1" xmlns="http://www.w3.org/2000/svg" xmlns:xlink="http://www.w3.org/1999/xlink" x="0px" y="0px"
	 viewBox="0 0 1319.3 187.4" style="enable-background:new 0 0 1319.3 187.4;" xml:space="preserve">
<style type="text/css">
	.st0{fill:#FFF100;}
	.st1{fill:#E60012;}
</style>
<g>
	<g id="_圖層_2">
		<g id="_圖層_1-2">
			<g>
				<g>
					<path class="st0" d="M112.8,39.5l8.1,6.8c-0.5,0.6-1.4,1.1-2.8,1.3c-0.7,15.9-2,21.8-5.7,24.4c-2.3,1.8-5,2.5-9,2.5
						c0-2.8-0.2-5-1.1-6.2c-1-1.3-2.4-2.2-4.9-2.9v-0.8c1.9,0.1,5,0.3,6.3,0.3c1,0,1.5-0.1,2-0.6c1.5-1.3,2.4-6.9,2.9-18.3h-8.8
						C98.2,57.2,94.5,68.4,82,75.2l-0.7-0.8c8.7-9.4,9.6-24.6,9.8-38.2c-0.9,0.3-2,0.4-3.2,0.4h-1.7V9.6l9.9,3.7h10.3l4.2-4.6
						l8.8,6.7c-0.4,0.5-1.3,1.2-2.8,1.5v16.5c-0.1,0.6-4.8,2.1-7.8,2.1h-1.6v-2.9h-12v0.9c0,0.4-1,1.4-2.7,2.2l10.6,0.9
						c-0.1,1-0.8,1.7-2.4,1.9c-0.1,1.8-0.3,3.6-0.6,5.5h7.8L112.8,39.5L112.8,39.5z M95.3,15.3v15.3h12V15.3L95.3,15.3L95.3,15.3z
						 M130.2,55.5c0,0.7-4,2.5-7.6,2.5H121V14.4l11.8,1.1c-0.1,1-0.7,1.8-2.6,2C130.2,17.5,130.2,55.5,130.2,55.5z M147.4,10.7
						c-0.1,1.1-0.8,1.7-2.6,2v50.7c0,6.8-1.5,10.4-12.5,11.4c-0.3-3.3-0.6-5.6-1.9-7.1c-1.2-1.5-2.7-2.6-6.6-3.4v-0.9
						c0,0,7.8,0.5,9.4,0.5c1.1,0,1.5-0.3,1.5-1.2V9.5L147.4,10.7L147.4,10.7z"/>
					<path class="st0" d="M175.4,18.1c0,0,3.9,3.1,6.3,5.4c-0.2,0.8-0.9,1.1-1.9,1.1h-24.5l-0.6-2h17.1
						C171.9,22.7,175.4,18.1,175.4,18.1z M170.3,31.5l3.3-4.3c0,0,3.7,3,5.9,5.2c-0.1,0.8-0.8,1.1-1.8,1.1h-20.1l-0.6-2H170.3
						L170.3,31.5z M173.6,36.3c0,0,3.7,3,5.9,5.2c-0.1,0.8-0.8,1.1-1.8,1.1h-20.1l-0.6-2h13.2L173.6,36.3L173.6,36.3z M218.9,57.8
						c-0.3,0.6-1,0.8-2.5,0.4c-1.8,0.7-5.2,1.4-8.1,2c3.9,2.5,8.7,4.3,13.6,5l-0.1,0.8c-3.1,0.9-5.5,3.8-6.4,8.3
						c-8.4-4-13.1-10.2-15.8-20.4c-0.9,0.9-2,1.8-3.1,2.5v8.1c2-0.5,4.2-1,6.4-1.5l0.2,0.8c-2.2,2-6.7,5.8-12,9.6
						c-0.6,1-1.4,1.6-2.2,2l-4-8.6c3-1.3,3.5-2,3.5-3.4v-2.8c-2.9,1.1-5.9,2.1-9.1,2.9l-0.5-0.9c4.5-2.4,8.3-5.8,10.9-9.4h-10.1
						l-0.2-0.7c-0.3,0.1-0.6,0.1-0.8,0.2v16c-0.1,0.6-4.2,2.4-7.1,2.4H170v-3.6h-3.8v4.5c0,0.8-3.6,2.7-7.3,2.7h-1.2V46.2l8.7,3.4
						h2.9l3.8-4l7.4,5.5h7.3v-4.4h-6.4l-0.6-2h7v-4.3H180l-0.6-2h8.3v-5.1c-0.9,0.6-3,1.4-5,1.4h-0.9V19.6l6.6,2.7h3.3l2.9-3
						l5.7,4.2v-3.9l6.6,2.7h3.6l2.9-3.1l6.2,4.7c-0.4,0.4-1.2,0.9-2.3,1.1v6.9c-0.1,0.5-3.2,1.6-5.2,1.6H211v-1h-4.8
						c-0.4,0.3-1.3,0.8-2.4,1.1l5.9,0.6c-0.1,0.5-0.3,0.9-1.1,1v3.4h0.6l3.6-4.4c0,0,4.1,3,6.6,5.2c-0.2,0.8-0.9,1.1-1.9,1.1h-8.8
						v3.3l2.6-3.3c0,0,3.8,2.9,6.1,5.1c-0.2,0.8-0.8,1.1-1.8,1.1h-0.9c1.1,0.8,4.5,3.4,6.6,5.2c-0.1,0.8-0.9,1.1-1.8,1.1h-7
						L218.9,57.8L218.9,57.8z M159.9,10.3c20.4-0.8,12.6,15.3,4.1,9.6c-0.5-3.4-2.5-7.1-4.6-9.2L159.9,10.3z M170,65.5V51.6h-3.8
						v13.9H170z M178.4,17h17.4c-0.7-0.2-1.4-0.6-2.1-1.1c-0.1-2.8-1.5-5.7-2.9-7.4l0.5-0.4c13.9-0.6,12.6,7.3,7.8,8.8h9.7l4.3-5.3
						c0,0,4.8,3.6,7.8,6.2c-0.2,0.8-0.9,1.1-1.9,1.1H179L178.4,17L178.4,17z M197.7,34.3c-0.1,0.7-0.5,1.2-1.7,1.4v2.9h4.6V34h-0.4
						v-9.7c-0.4,0.3-1.1,0.6-1.8,0.7v6.9c-0.1,0.5-3.1,1.6-5.1,1.6h-1.1v-1.1h-4.1v0.6c0,0.1-0.1,0.3-0.4,0.4L197.7,34.3L197.7,34.3
						z M188.2,24.3v6.2h4.1v-6.2H188.2z M196,44.8h4.6v-4.3H196V44.8z M196,46.7v4.4h4.6v-4.4H196z M200.9,53.1
						c1.3,2.1,3.1,4,5.1,5.6c1.3-1.8,2.6-3.9,3.6-5.6H200.9z M206.6,24.3v6.2h4.5v-6.2H206.6z M208.8,46.7v4.4h1.8l3.6-4.4H208.8
						L208.8,46.7z"/>
					<path class="st0" d="M283.4,61.9c0,0,6.6,5,10.6,8.3c-0.2,0.8-1,1.1-2.1,1.1h-64l-0.6-2h25.3V9.7l13.8,1.3
						c-0.1,1.1-0.6,1.8-2.6,2v23.7h9.1l5.7-7.4c0,0,6.4,4.9,10.3,8.3c-0.2,0.8-1,1.1-2,1.1h-23.1v30.7h13.7L283.4,61.9L283.4,61.9z"
						/>
					<path class="st0" d="M356.5,8.2c0,0,6.6,5,10.6,8.4c-0.2,0.8-1,1.1-2.2,1.1h-27.6v12.1c34.8,5,29.4,28,17.4,22.2
						c-4-7.1-11-14.8-17.4-20.4v40.5c0,0.7-3.4,3-8.8,3h-2V17.7h-25.8l-0.6-2h50.5L356.5,8.2L356.5,8.2z"/>
					<path class="st0" d="M434.3,51.3c0,0,3.9,3.1,6.2,5.2c-0.2,0.8-0.9,1.1-1.8,1.1h-9.3c-0.7,2.2-1.7,4.3-3.4,6.2
						c19.7,4,8.5,13.9,0.5,10.5c-2.1-1.6-5.2-3.3-8.9-5c-5.3,2.2-13,4.1-24.3,5.5l-0.4-1.1c8.5-2.2,14.4-4.4,18.5-6.8
						c-3.9-1.3-8.3-2.5-13-3.4l0.1-0.1c1-1.5,2.4-3.6,3.6-5.9h-7.8l-0.6-2h9.5c0.8-1.5,1.5-2.9,2.2-4.3c-1,0.9-4.3,2.2-7.3,2.2H397
						V35.9l1.8,0.6v-9.5h-2.2l0.1,0.2c-0.1,0.8-0.8,1.1-1.8,1.1h-6.2v3.4c13.2,6.3,6.2,16.6,1.3,11.5c0.4-2.9-0.3-6.4-1.3-9.2v37.9
						c0,0.9-3.7,3-6.9,3h-1.6V49.4c-1.9,3.2-4.1,6.2-6.6,9l-0.8-0.8c3.8-8.1,5.8-19,6.9-29.3h-6.1l-0.6-2h7.2v-18l11.1,1.1
						c-0.1,1-0.7,1.7-2.6,2v14.6l2.7-4.4c0,0,2,1.9,3.6,3.8l-0.1-0.4h3.8V14.9l9.1,3.5h3.6V8.9l11.8,1.1c-0.1,1-0.6,1.7-2.5,2v6.4
						h3.3l3.7-3.9l7.6,5.6c-0.3,0.4-1,0.8-2,1v3l2.2-3.2c0,0,3.2,2.9,5,5c-0.2,0.8-0.8,1.1-1.8,1.1h-5.5v7.1c0,0.3-1,0.9-2.3,1.4
						l7.7,5.7c-0.4,0.4-1,0.9-2.2,1.2v6.4c-0.1,0.6-4.4,2.4-7.4,2.4h-1.6v-2h-16l7.1,1.3c-0.2,0.8-0.8,1.6-3.2,1.8
						c-0.6,1-1.2,2.2-2,3.4h6.4c0.4-1.5,0.5-3,0.6-4.6l12,0.9c-0.1,0.9-0.8,1.7-2.5,1.9c-0.1,0.6-0.2,1.2-0.4,1.8h1L434.3,51.3
						L434.3,51.3z M407.5,35.1c0,0.6-2.9,2.2-6,2.5l4.7,1.8h5.2v-5.6h-3.9L407.5,35.1L407.5,35.1z M411.4,47.3v-6h-5.7v6H411.4z
						 M405.7,50.9l0.7-1.6h-0.7V50.9z M407.5,25.1h3.9v-4.8h-3.9V25.1z M407.5,27.1v4.8h3.9v-4.8H407.5z M412.5,57.7
						c-1,1.6-2,3.3-3,4.7c2.7,0.1,5,0.2,7.2,0.3c1.4-1.6,2.2-3.3,2.9-5L412.5,57.7L412.5,57.7z M420.7,20.4v4.8h3.9v-4.8H420.7z
						 M424.6,27.1h-3.9v4.8h3.9V27.1z M430.5,35.8c-1.4,0.5-3,0.9-4.3,0.9h-1.6v-2.9h-3.9v5.6h6.3L430.5,35.8z M427.6,47.3v-6h-6.9
						v6H427.6z"/>
					<path class="st0" d="M509.7,63.8c2.7,5,3.2,7.7,1.7,9c-4.1,3.6-10.9,0-14.1-3.2c-2.6-2.5-4.8-5.2-6.6-8.2
						c-5.7,5.3-12.9,9.9-22,13l-0.5-0.8c8-4.9,14.3-11.5,18.9-18.6c-4.2-9-6.1-19-6.9-29.8h-17.9V36h6.3l4.7-4.5l8,6.7
						c-0.5,0.6-1.3,1-2.7,1.3c-0.4,15.5-1.3,20.4-4.6,22.9c-2.1,1.5-4.7,2.3-8.4,2.3c0-2.7-0.1-4.9-1-6.2s-2-2.1-4.2-2.7v-0.3
						c-2,7.3-6.2,14.6-14.8,20L445,75c6.6-10.9,7.1-24.9,7.1-36.8V19.2l11.6,3.9H480c-0.3-4.8-0.4-9.6-0.4-14.5l12.5,1.2
						c-0.1,0.9-0.7,1.8-2.5,2c-0.1,3.7-0.1,7.5,0.1,11.3h7.7l2.4-3c-0.5-0.1-1-0.3-1.5-0.6c-1-3.2-3.7-6.7-6.1-8.7l0.5-0.4
						c12.5-1.5,14.6,4.6,12.2,7.8c2,1.6,5,3.9,7.1,5.7c-0.2,0.8-1,1.1-2,1.1h-20.2c0.4,6.4,1.3,12.7,3.2,18.4
						c1.8-4.3,3.1-8.8,4.1-13.1l12.8,4.3c-0.3,0.8-0.9,1.4-2.7,1.3c-2.3,5.9-5.4,11.8-9.5,17.4c1.6,2.5,3.5,4.6,5.7,6.6
						c1,1,1.5,1,2.4-0.1c1.3-1.8,3.6-5.8,5.1-9l0.6,0.2L509.7,63.8L509.7,63.8z M462.2,38v0.1c0,5-0.2,11-1.8,16.9
						c1.4,0.1,3.9,0.2,5,0.2c0.9,0,1.4-0.1,1.8-0.5c1.1-1,1.6-5.8,1.9-16.7H462.2L462.2,38z"/>
					<path class="st0" d="M586,50.2c-0.6,0.6-1.4,1-2.9,1.3c-1,12.9-2.9,18.8-6.8,21.4c-2.4,1.6-5.2,2.3-9.1,2.3
						c0-2.6-0.2-4.8-1.1-6c-1-1.4-2.6-2.3-5.2-2.9v-0.8c2.1,0.2,5.5,0.3,6.9,0.3c1,0,1.6-0.1,2.2-0.6c1.5-1.2,2.9-6.3,3.7-15.3
						h-39.2c-4.6,4.5-9.9,8.7-16.2,12l-0.6-0.6c10.7-9.2,18.5-22,23.5-34.6h-17.4l-0.6-2h18.8c2.2-5.8,3.8-11.5,5-16.7l12.5,3.8
						c-0.3,0.8-0.9,1.4-2.8,1.4c-1.3,3.7-2.9,7.6-4.8,11.5h8.1l3.4-3.8l8.1,5.9c-0.6,0.6-1.2,0.9-2.5,1l-1.8,7.6l2.7-3.1l7.8,5.8
						c-0.6,0.6-1.1,0.8-2.5,1l-1.5,7.8l3.8-3.6L586,50.2L586,50.2z M531.9,53.7c4.8,9.8,2.2,16.8-1.9,19c-2.9,1.6-6.4,0.6-7.5-2.5
						c-0.9-3,0.9-5.2,3.4-6.4c2.7-1.5,5.5-5.4,5.1-10L531.9,53.7L531.9,53.7z M527.5,9.3c22,1.9,13.3,18.8,4.5,12.2
						c-0.4-4.3-2.6-8.9-5-11.9L527.5,9.3z M544.4,38.1c-2.3,3.4-4.9,6.7-7.8,9.8h28.7l1.9-9.8H544.4z M539.5,53.8
						c15.8,9.7,4.1,22.6-1.9,14.1c1.5-4.7,1.8-9.8,1.1-13.9C538.7,54,539.5,53.8,539.5,53.8z M551.1,26.7c-1.5,3.1-3.4,6.3-5.4,9.5
						H558l2.4-9.5H551.1z M548.1,53.2c18.8,4.5,10.2,18.7,2.9,12.2c0-4.1-1.7-8.8-3.6-11.9L548.1,53.2z M557.8,51.9
						c18.4-0.6,12.6,14.1,5,9.5c-0.6-3.4-3.1-7.1-5.5-9.1L557.8,51.9L557.8,51.9z"/>
					<path class="st0" d="M64.9,152c0,0,6.5,4.9,10.4,8.2c-0.2,0.8-1,1.1-2.1,1.1H9.4l-0.6-2h27.4v-21.4H18l-0.6-2h18.8v-18H25.6
						c-4.5,7.6-10.1,13.3-16.8,17.6l-0.7-0.5c5-8.3,9.8-21.3,11.7-34l14.1,4.1c-0.3,0.9-1.2,1.5-2.9,1.5c-1.3,3.4-2.7,6.5-4.3,9.4
						h9.5V99.1l13.8,1.3c-0.1,1.1-0.6,1.8-2.6,2V116H56l5.5-6.8c0,0,6.1,4.3,10,7.6c-0.2,0.8-1,1.1-2.1,1.1h-22v18h6.4l5.6-7
						c0,0,6.4,4.7,10.2,7.8c-0.2,0.8-1,1.1-2,1.1H47.5v21.4h11.6L64.9,152L64.9,152z"/>
					<path class="st0" d="M81.8,115.3c21.1,0.3,14.2,16.7,5.6,11.3c-0.8-4-3.6-8.3-6.1-10.9C81.3,115.7,81.8,115.3,81.8,115.3z
						 M140.1,115.5c0,0,5.6,4.6,8.8,7.7c-0.1,0.8-1,1.1-2,1.1h-17.6v13.3h3.7l4.6-4.9l9.1,6.9c-0.5,0.6-1.3,1.3-2.8,1.5v20.6
						c-0.1,0.6-4.9,2.7-8.3,2.7h-1.8v-6h-18.7v3.4c0,0.9-4.3,3.1-8.5,3.1h-1.4v-31.2l10.4,4h3.4v-13.3h-16.9l-0.5-1.8
						c-2.4,7.1-4.8,14.7-5.5,17.2c-0.6,2.3-1.3,5-1.2,6.8c0.1,4,3.5,5.9,3.3,12.2c-0.1,3.8-3.1,6.3-7.1,6.3c-1.8,0-3.9-0.9-4.7-3.6
						c1.5-7.4,1.2-14.1-0.5-15.3c-1.1-0.7-2.3-1.1-3.8-1.3v-1.2h3.3c1.2,0,1.5,0,2.4-1.4c1.3-1.8,6.5-11.3,15.7-28.6l1,0.3
						c-0.8,2.3-1.8,5.2-2.9,8.3H119v-11.5c-5.5,0.4-11.3,0.7-16.5,0.8l-0.1-0.9c11.6-2.7,26.6-7.8,34.2-11.6l9.6,9.2
						c-0.9,0.7-2.7,0.8-5.1-0.1c-3.3,0.6-7.3,1.1-11.6,1.7v12.5h5.7L140.1,115.5L140.1,115.5z M87.1,100
						c21.8,0.1,15.6,16.8,6.6,11.8c-1.3-4.1-4.4-8.5-7.1-11.3C86.6,100.4,87.1,100,87.1,100z M115.2,139.6v16.9h18.7v-16.9
						C133.8,139.6,115.1,139.6,115.2,139.6z"/>
					<path class="st0" d="M213.3,153c0,0,5.7,4.7,9,7.8c-0.2,0.8-1,1.1-2,1.1h-40.7l-0.6-2h16.4v-12.7h-11.9l-0.6-2h12.5v-12.3H192
						v3.1c0,0.9-3.8,2.9-7.6,2.9h-1.3v-10.5c-1.9,1.4-3.9,2.8-6.4,3.9c11.7,5.7,4.6,16-1.7,10.6c-0.2-3.1-1.4-6.6-2.7-9.5v29.1
						c0,0.6-2.9,2.7-7.5,2.7h-1.7v-26.9c-2.5,2-5.2,3.8-8,5.3l-0.6-0.6c7.1-7.4,12.9-17.6,15.4-26.2h-14.4l-0.6-2h14.6l4.8-4.7
						l8,7.6c-0.6,0.7-1.4,0.9-3.1,1.1c-1.8,3.5-4.1,7.1-7,10.6v1.4c0.8,0.2,1.5,0.4,2.1,0.7c1.3-2.4,2.7-5.7,3.6-9l5,3.5v-24.6
						l9.4,3.7h14.6l4.1-4.6l8.5,6.5c-0.4,0.6-1.4,1.2-2.8,1.5v26.5c-0.1,0.5-4.6,2.2-7.6,2.2h-1.5v-4.1h-3.5v12.3h1.8l4.8-6.6
						c0,0,5.4,4.4,8.5,7.4c-0.2,0.8-1,1.1-2,1.1h-13.2v12.7h4L213.3,153L213.3,153z M159.6,99.4c22-0.6,14.1,16.5,4.9,10.7
						c-0.8-3.8-3.1-7.8-5.3-10.4L159.6,99.4L159.6,99.4z M192,106.8v11.3h3.4v-11.3C195.4,106.8,192,106.8,192,106.8z M195.4,130.9
						v-10.8H192v10.8H195.4z M204.3,106.8v11.3h3.5v-11.3H204.3z M207.8,130.9v-10.8h-3.5v10.8H207.8z"/>
					<path class="st0" d="M294.2,114.5c-0.6,0.7-1.5,1.2-3.1,1.5c-0.5,29.4-1.3,40.7-5.5,45c-2.7,2.7-6,3.9-11.2,3.9
						c0-3.3-0.4-5.6-1.7-7c-1.3-1.5-3.9-2.8-7.6-3.6l0.1-0.8c3.4,0.3,8.1,0.6,9.9,0.6c1.2,0,1.9-0.3,2.6-0.9
						c2.5-2.2,3.1-15.1,3.6-38.9h-10.8c-3.6,6-7.9,10.9-12.8,14.8l-0.4-0.3v28.4c-0.1,0.6-4.6,2.6-7.9,2.6h-1.5v-5.5h-8.6v4.8
						c0,1.1-3.6,3.2-7.6,3.2h-1.5v-53.5l8.8,3.6c0.4-3.9,0.6-9.4,0.8-13.4l13.5,3.2c-0.4,1.3-1.3,1.8-3,1.8
						c-2.1,2.4-5.2,5.9-7.8,8.7h4.6l4.3-4.8l8.6,6.8c-0.5,0.6-1.4,1.2-2.8,1.5v11.7c3.3-7.4,6.6-18.7,8.2-29l13,3.8
						c-0.3,0.9-1.2,1.5-2.8,1.5c-1.2,2.9-2.5,5.7-4,8.3h8.8l5.2-5.3L294.2,114.5L294.2,114.5z M239.3,114.5v17.4h8.6v-17.4
						C247.9,114.5,239.3,114.5,239.3,114.5z M247.9,152.2v-18.3h-8.6v18.3H247.9z M262.4,126.5c22.1,5.1,12.7,22.3,4.1,14.8
						c-0.1-5-2.2-10.5-4.6-14.4C261.8,126.9,262.4,126.5,262.4,126.5z"/>
					<path class="st0" d="M318.6,120.2v11.6c0,10.6-1.5,25.1-18.3,33.5l-0.5-0.6c8-9.7,8.9-22.1,8.9-33v-10.3
						c-2.7,1.5-5.5,2.8-8.3,3.8l-0.4-0.6c7.8-5.7,15.5-16.6,18.8-26.2l13.9,3.4c-0.3,0.8-0.8,1.2-2.9,1.1c-1,1.4-2,2.7-3.1,4.1h10
						l5.2-5.1l8.8,7.6c-0.6,0.6-1.3,0.8-2.8,1c-3.6,2.6-8.7,5.7-13.4,7.8h16.3l5.2-7.1c0,0,6,4.8,9.5,8c-0.2,0.8-1,1.1-2,1.1
						L318.6,120.2L318.6,120.2z M324.9,108.9c-2.7,2.8-5.7,5.5-8.9,7.9l4.1,1.4h12.1c1.6-2.7,3.4-6.4,4.5-9.3
						C336.7,109,324.9,109,324.9,108.9z M362.6,154c3.1,1.1,4,2.2,4,3.9c0,4.3-4,5.9-20.7,5.9h-10.4c-9.5,0-12.6-1.3-12.6-8.5v-31.8
						l10.6,3.9h11.1l4.6-4.3l8,6.5c-0.5,0.6-1.3,1-2.7,1.2c-0.3,10.8-1,14.9-4.1,16.9c-2,1.3-4.4,2-8.3,2c0-2.6-0.1-4.8-1.1-6
						c-0.9-1.2-2.5-2.1-4.8-2.7v-0.8c1.8,0.1,4.9,0.3,6,0.3c0.9,0,1.3-0.1,1.7-0.4c0.8-0.7,1-4,1.3-10.8h-12.7v23.7
						c0,1.5,0.8,1.9,3.9,1.9h10.4c3.1,0,6.2,0,7.8-0.1c1.4-0.1,2.2-0.4,2.9-1c1-1.1,2.4-3.5,4.1-7.4h0.7L362.6,154L362.6,154z"/>
					<path class="st0" d="M400.8,107.5c-0.6,0.7-1.5,0.9-3.1,1c-2.3,4.3-6.4,11.3-10.1,15.7c6.9,4.5,10,11.6,10,17.3
						c0,6.9-2.5,11.2-10.3,11.3c0-2.4-0.3-6-0.8-7.1c-0.4-0.6-0.8-1.1-1.5-1.5v18.2c0,0.6-2.8,2.9-7.4,2.9h-1.7v-64.8l10.1,3.7h1.8
						l4.5-4.4L400.8,107.5z M386.8,142.8c0.6,0,1-0.1,1.3-0.4c0.8-0.5,1.2-1.6,1.2-3.6c0-4.8-0.8-10.1-3.4-14.5
						c1-4.6,2.2-12.8,2.6-18.3h-3.5v36.8L386.8,142.8L386.8,142.8z M433.7,146c-0.3,0.7-0.9,1.3-2.5,1.2c-0.8,1.7-1.8,3.4-2.9,5
						c16.2,2.4,11.5,15.8,4.2,11.7c-0.9-3.2-3.3-6.7-5.9-9.4c-3.5,4.3-8,8.1-13.9,10.4l-0.5-0.7c1.1-1.1,2.1-2.3,3-3.6
						c-1.3,0.8-3.3,0.9-5.2-0.5c-0.1-2.1-0.9-4.4-2-6.4c-3.6,4.7-8.5,8.9-15,11.3l-0.5-0.7c5.9-5.7,9-14.8,10.1-22.1
						c-1.2,0.4-2.6,0.7-3.9,0.7h-1v-20.4l7.8,3.1h1.7l3.4-3.5l7,5.2c-0.3,0.3-1,0.8-2,1v11.3c0,0.5-4,2-6.4,2h-1.4v-2h-2.5v1.1
						c0,0.3-0.7,0.8-1.8,1.3l11,4.1c-0.3,0.8-0.9,1.3-2.5,1.3c-0.6,1.3-1.4,2.6-2.2,3.9c5.5,1.3,7.4,4.1,7.1,6.5
						c2.6-4.8,4.2-10.3,5-15.1c-0.9,0.2-1.9,0.4-2.8,0.4h-1v-20.4l7.9,3.1h2l3.4-3.5l7.1,5.2c-0.3,0.4-0.9,0.8-1.9,1.1v11.2
						c-0.1,0.6-4.1,2-6.7,2h-1.5v-2.1h-2.7v1.1c0,0.4-0.9,0.9-2.2,1.5L433.7,146L433.7,146z M421.5,101.7c-0.3,0.9-1,1.3-3.2,1.6
						c4.9,5,14,8.6,22.5,9.4v0.9c-3.4,1.5-4.8,5.6-5.2,9.3c-7.9-3.7-14.4-10.5-18.1-19c-4.2,8.3-12,15.5-23.3,19.7l-0.4-0.8
						c8-5.9,13.5-16.7,15.3-24.6L421.5,101.7z M405.2,127.5v10h2.5v-10C407.7,127.5,405.2,127.5,405.2,127.5z M420.2,112.7
						c0,0,4.9,4,7.8,6.7c-0.2,0.8-0.9,1.1-2,1.1h-19.9l-0.6-2h10.3C415.9,118.5,420.2,112.7,420.2,112.7z M425.7,127.5v10h2.7v-10
						C428.4,127.5,425.7,127.5,425.7,127.5z"/>
					<path class="st0" d="M508.6,153.1c2.9,1.1,3.8,2.2,3.8,3.9c0,4.3-4,5.9-19.5,5.9h-9.1c-9,0-12.3-1.5-12.3-8.8v-13.1
						c-3.9,3.4-10,8.1-19.2,14c-0.4,1-1,1.8-2,2l-5.3-11.2c1.8-0.3,4.5-0.8,7.9-1.5V121h-7l-0.6-2h7.6v-19l12.2,1.1
						c-0.1,1-0.6,1.8-2.6,2v16h0.7l3.6-6.4c0,0,2.6,2.8,4.7,5.4v-9l11.8,1.2c-0.1,0.9-0.8,1.7-2.5,1.9v10.6l4.2-1.9V98.6l11.8,1.1
						c-0.1,1-0.6,1.7-2.6,2v15.1l5.4-2.4l4.1-4.3l7.7,8.1c-0.6,0.6-1.3,0.9-2.9,1.1c-2,7.6-5.7,18.9-10.4,26.2l-0.7-0.4
						c1.1-8.9,1.8-20.4,1.8-28.3l-5,2.2v27.6c0,0.8-4,2.7-7.5,2.7h-1.7V123l-4.2,1.8v26.8c0,2,1,2.5,4.1,2.5h8.8
						c2.9,0,5.4-0.1,6.8-0.1c1.2-0.1,2-0.4,2.7-1.1c1-1.4,2.5-4.8,4.2-9.5h0.7L508.6,153.1L508.6,153.1z M462.6,142.1
						c2.9-0.7,6-1.4,9-2.2v-11l-5.8,2.5l-1.3-1.5l7.1-3.2V121h-9L462.6,142.1L462.6,142.1z"/>
					<path class="st0" d="M585.3,114.8c-0.6,0.6-1.2,0.8-2.7,0.9c-2.5,2.2-6.7,5.2-10,6.8l-0.6-0.4l0.1-0.8
						c-0.3-0.1-0.6-0.2-0.8-0.4c-2.7,0.6-9,1.5-13.7,1.6l-0.3-0.7c3.2-2.1,7.9-5.9,10.2-8h-10.9v17c0,0.4-3,2-8.1,2h-1.8v-19h-15.8
						c0.1,0.9,0.1,1.8,0.1,2.6c17-4.6,15.7,8.3,8.9,7c-1.5-1.4-5-3.6-9.1-5.2c-0.6,2.6-2.1,4.4-4,5.2c-2.7,1.1-5.8,0-6.6-3
						c-0.6-2.9,1.3-4.8,3.7-5.8c2.2-1,4.5-3.6,4.2-6.7l0.9-0.1c0.7,1.4,1.2,2.8,1.5,4.1h16.1v-5.6h-18l-0.6-2h34.9l4.8-6
						c0,0,5.4,4.1,8.6,6.9c-0.2,0.8-1,1.1-2,1.1h-17.8v5.6h15.8l4.7-4.8L585.3,114.8L585.3,114.8z M569,130l9,6.9
						c-0.4,0.6-1.3,1.2-2.8,1.5v23.9c-0.1,0.6-5,2.3-8.3,2.3h-1.7v-4.3h-27.8v1.5c0,1-4.3,3.1-8.4,3.1h-1.4v-34.1l3,1.1l-2.7-7
						c3.2-0.2,10.5-0.9,17.7-1.8l0.1,0.8c-2.6,1.9-6.8,4.6-12.6,8c-0.1,0.3-0.3,0.6-0.4,0.8l5.3,2h26.5L569,130L569,130z
						 M537.5,136.8v9.5h9.2v-9.5H537.5z M537.5,158.3h9.2v-10h-9.2V158.3z M556.5,136.8v9.5h8.8v-9.5H556.5z M565.3,158.3v-10h-8.8
						v10H565.3z M557.5,123.7c21.7-4.6,20.5,8.9,13.5,7.6c-2.3-1.8-7.8-4.8-13.7-6.7L557.5,123.7L557.5,123.7z M572.4,119.5
						c0.3-1.9,0.4-4,0.6-5.7h-4.8L572.4,119.5z"/>
				</g>
			</g>
			<g>
				<path class="st1" d="M624.6,39.9c-0.1,0.4-0.5,0.7-1.4,0.7c-1.9,5-5.2,11.4-10.6,15.5l-0.3-0.3c3.5-5.1,5.7-12.7,6.5-17.9
					C618.7,37.8,624.6,39.9,624.6,39.9z M632.4,30.6c-0.1,0.5-0.4,0.8-1.3,1v25.7c0,2.9-0.7,4.7-6,5.2c-0.1-1.4-0.4-2.4-1.1-3
					c-0.7-0.7-1.6-1.2-3.8-1.5v-0.5c0,0,4.8,0.3,5.7,0.3c0.7,0,0.9-0.2,0.9-0.7V30.1L632.4,30.6L632.4,30.6z M640.4,53.9
					c-0.6-5-3.4-10.9-6.2-15.2l0.5-0.2C648.9,46.7,645.3,58.3,640.4,53.9L640.4,53.9z"/>
				<path class="st1" d="M661.8,44.1c-1,0.7-2.4,1.7-4.1,2.7v10.8c0,2.8-0.6,4.3-5.1,4.8c-0.1-1.3-0.2-2.2-0.7-2.8
					c-0.5-0.6-1.2-1-2.8-1.4v-0.5c0,0,3.3,0.2,3.9,0.2c0.5,0,0.7-0.1,0.7-0.6v-8c-0.8,0.5-1.8,1-2.7,1.6c-0.2,0.4-0.5,0.8-1,1
					l-1.8-4.8c1-0.2,3-0.6,5.4-1.2v-7.2l1.6,0.1c0.9-1.6,1.8-3.8,2.4-5.3h-8.7l-0.3-1h9l2.1-2.1l3.6,3.3c-0.3,0.3-0.6,0.4-1.4,0.5
					c-1.4,1.4-3.6,3.4-5.6,4.8L659,39c-0.1,0.5-0.4,0.8-1.2,0.9v4.8c1.3-0.3,2.7-0.7,4-1L661.8,44.1L661.8,44.1z M674.9,42.9
					c9.1,3.4,5.3,10.3,2.1,7.2c0-0.8-0.2-1.6-0.4-2.5c-1,0.3-2.1,0.6-3.3,0.9v9.5c0,2.5-0.7,4.1-5.1,4.4c-0.1-1.1-0.2-1.9-0.8-2.4
					c-0.5-0.5-1.2-1-2.9-1.2v-0.5c0,0,3.4,0.2,4.1,0.2c0.6,0,0.7-0.2,0.7-0.6v-8.5c-1.5,0.4-3.2,0.8-4.9,1.2L669,53
					c-0.2,0.3-0.5,0.6-1.3,0.5c-1.9,2.6-5,5.7-8.7,7.6l-0.3-0.3c2.5-2.8,4.7-7.1,5.7-10.1l-0.9,0.2c-0.2,0.3-0.5,0.5-0.8,0.5
					l-1.4-4.2c0,0,0.9-0.1,1.3-0.3c2.1-0.8,4.5-2.3,6.7-4c-1.6,0.5-3.3,1-5.2,1.4c-0.3,0.4-0.6,0.7-1,0.8l-1.4-4.3
					c0,0,0.8-0.1,1.2-0.3c2.2-0.9,4.9-3.6,6.5-5.5c-2.5,1-5.2,1.9-8,2.6l-0.2-0.5c4.1-2,8.7-5.4,10.8-7.9l4.6,2.7
					c-0.3,0.4-0.9,0.6-2,0.3c-1,0.6-2.2,1.3-3.6,1.9l3.6,1.9c-0.2,0.3-0.6,0.6-1.4,0.5c-1.9,1.4-5,3.2-7.9,4.4
					c1.8,0,4.1-0.1,6.6-0.2c1.6-1.4,3-2.7,3.9-3.8l4.1,2.7c-0.2,0.3-0.7,0.5-1.5,0.3c-2.9,2.2-8.7,5.4-13.7,7.4
					c2.9-0.1,7.1-0.3,11.5-0.6c-0.5-1.4-1.1-2.7-1.8-3.7L674.9,42.9L674.9,42.9z M674.4,50.6c10.3,4.6,6.7,12.5,2.9,9.2
					c-0.3-3-1.9-6.4-3.3-9L674.4,50.6z"/>
				<path class="st1" d="M713,42.2c0,0,2.8,2.2,4.5,3.6c-0.1,0.3-0.5,0.5-1,0.5h-13v11c0,2.9-0.8,4.7-6.2,5.1
					c-0.2-1.4-0.4-2.3-1.2-3c-0.8-0.7-1.9-1.1-4.3-1.5v-0.5c0,0,5.4,0.3,6.4,0.3c0.7,0,0.9-0.2,0.9-0.7V46.3h-13.8l-0.3-1h14.1v-6.1
					l3.6,0.3c1.9-1.7,4-4,5.3-5.7h-19.1l-0.3-1h19.7l2.5-2.4l4,3.5c-0.3,0.3-0.7,0.4-1.4,0.5c-2.6,1.7-6.1,3.7-9.3,5.1l0.6,0.1
					c-0.1,0.5-0.4,0.8-1.2,1v4.7h6.9L713,42.2L713,42.2z"/>
				<path class="st1" d="M738.7,30.6l3.2,2.4c-0.2,0.3-0.6,0.5-1.2,0.6v11.5c0,0.2-1.7,0.9-2.7,0.9h-0.6V44h-2.8v17
					c0,0.5-1.4,1.5-3.2,1.5h-0.7V31.7c-0.2,0.1-0.5,0.2-1,0.2c-0.8,2.7-1.7,5.2-2.8,7.5l2,0.7c-0.1,0.3-0.5,0.6-1.1,0.7v20.6
					c0,0.2-1.6,1-3,1h-0.7V44.3c-0.9,1.3-1.9,2.5-2.9,3.6l-0.5-0.3c2.2-4.5,4.2-11.5,5.1-18l4.8,1.5v-0.5l4,1.7h2.4L738.7,30.6
					L738.7,30.6z M734.6,33.3v4.2h2.8v-4.2H734.6z M737.4,43v-4.5h-2.8V43H737.4z M754,33.2c-0.2,0.3-0.7,0.6-1.4,0.7v23.8
					c0,2.8-0.6,4.3-5.2,4.8c-0.1-1.3-0.3-2.3-0.8-2.8c-0.6-0.6-1.3-1.1-3.1-1.4v-0.5c0,0,3.7,0.2,4.5,0.2c0.6,0,0.8-0.2,0.8-0.7V44
					h-2.9v0.9c0,0.3-1.4,1-2.8,1h-0.5v-15l3.4,1.4h2.5l1.9-2.1L754,33.2L754,33.2z M745.7,33.3v4.2h2.9v-4.2H745.7z M748.7,43v-4.5
					h-2.9V43H748.7z"/>
				<path class="st1" d="M789.8,57.5c0.9,0.5,1.1,0.9,1.1,1.7c0,1.5-1.2,2.3-4.9,2.3h-1.9c-2.7,0-3.2-0.8-3.2-3.3V46.2
					c-0.9,6.7-3.2,12.2-9.6,16.2l-0.4-0.5c5.2-5.6,6.3-12.6,6.5-21.2h-2.3l-0.1-0.4c-0.2,0.3-0.7,0.6-1.4,0.7v6.1
					c0,0.2-2,0.9-3.2,0.9h-0.6v-1.3h-1.2v11c0,2.6-0.6,4.3-4.7,4.7c-0.1-1.2-0.2-2.1-0.6-2.7s-1-1-2.5-1.2v-0.5c0,0,2.6,0.2,3.2,0.2
					c0.5,0,0.6-0.2,0.6-0.6v-6.1c-0.2,0.1-0.5,0.1-0.8,0.1c-1.6,3.1-3.8,5.5-6.3,7l-0.5-0.3c1.4-2.2,2.6-5.5,3.3-8.9l4.3,1.4v-4.1
					h-1.4v0.6c0,0.3-1.6,1.1-3.1,1.1h-0.5V37.9l3.8,1.5h5.9l1.8-1.9l3.8,2.8l-0.2-0.6h2.6c0-3.2,0-6.5,0-10.1l5.3,0.5
					c-0.1,0.5-0.4,0.8-1.3,1c0,3,0,5.9-0.1,8.6h3.6l2-2.6c-0.6,0.1-1.4,0-2.1-0.7c-0.1-1.8-1-3.8-1.9-5.1l0.3-0.2
					c6.2,1.6,5.7,5.2,3.8,5.9c0.4,0.3,2.5,1.9,3.7,3.1c-0.1,0.4-0.5,0.6-1,0.6h-5.1v16.3c0,0.5,0.1,0.6,0.7,0.6h1c0.5,0,0.8,0,1,0
					c0.2,0,0.5-0.1,0.6-0.5c0.3-0.6,0.8-2.9,1.3-4.9h0.4L789.8,57.5L789.8,57.5z M758.1,36.5l-0.3-1h12.9l2.1-2.8
					c0,0,2.5,1.9,3.9,3.3c-0.1,0.4-0.5,0.6-1,0.6L758.1,36.5L758.1,36.5z M763.6,29.6c8.9,0.6,5.9,7.3,2.3,5
					c-0.3-1.7-1.6-3.6-2.6-4.8L763.6,29.6L763.6,29.6z M769.9,45.7v-5.3h-6.4v5.3H769.9z M769.9,49.8c7.9,3,4.1,8.8,1.2,6
					c0-2-0.8-4.3-1.5-5.8C769.5,49.9,769.9,49.8,769.9,49.8z"/>
				<path class="st1" d="M798.6,40.1c0.3,2.1-0.2,3.7-1.2,4.3c-1,0.7-2.4,0.4-2.9-0.8c-0.3-1.2,0.3-2.1,1.4-2.6
					c0.8-0.7,1.6-2.3,1.3-3.8l0.5,0c0.3,0.7,0.6,1.3,0.7,1.9h16.2c1-1.8,2.1-4.2,2.7-6c-5.7,0.5-12.8,0.7-19.1,0.5l-0.1-0.6
					c7.4-0.6,16.8-2.2,21.8-3.6l3.3,3.5c-0.4,0.3-1.2,0.3-2.2-0.2c-1.1,0.1-2.3,0.2-3.5,0.3l4.7,1.8c-0.2,0.4-0.6,0.6-1.4,0.5
					c-1.2,1.2-3.2,2.6-5.2,3.8h5.9l2-2l3.6,3.4c-0.3,0.3-0.6,0.3-1.3,0.4c-0.9,0.9-2.4,1.9-3.6,2.6c2.9,2.7,0.3,6.2-2.3,4.2
					c-0.1-2.1-1.4-4.5-2.7-6.1l0.3-0.2c1.8,0.4,3.1,1,4,1.6c0.1-0.8,0.2-1.9,0.3-2.8L798.6,40.1L798.6,40.1z M821.6,52.6
					c-0.3,0.3-0.6,0.5-1.5,0.5c-1.3,1.6-2.9,3-4.7,4.2c3.4,0.6,7,0.8,10.6,0.9v0.4c-1.8,0.5-2.8,1.9-3.2,3.9
					c-4.5-0.5-8.6-1.4-12.2-2.8c-4.3,1.7-9.6,2.6-15.5,2.8l-0.1-0.5c4.8-0.8,9.2-1.9,12.8-3.6c-1.6-0.8-3-1.8-4.2-3
					c-2.1,1.3-4.5,2.3-6.9,3l-0.2-0.4c1.9-1.1,3.8-2.7,5.4-4.4c-0.8-1-1.5-2-2.1-3.2l0.4-0.3c0.7,1,1.6,1.8,2.6,2.5
					c1.2-1.3,2.2-2.7,2.8-4c-2-0.2-2.4-1-2.4-2.8v-4.8l4.4,0.4c-0.1,0.4-0.4,0.7-1,0.8V45c0,0.4,0.1,0.5,1.3,0.5h3.5
					c1.4,0,2.6,0,3,0c0.4,0,0.7-0.1,0.9-0.3c0.3-0.3,0.7-1.2,1.2-2.3h0.3l0.1,2.3c1,0.4,1.3,0.7,1.3,1.4c0,1.4-1.4,2.1-7.2,2.1h-3.8
					c-0.4,0-0.7,0-1,0l4.5,1.4c-0.2,0.3-0.6,0.5-1.2,0.5c-0.2,0.3-0.5,0.6-0.7,0.9h7l2.4-2L821.6,52.6L821.6,52.6z M801.5,41.4
					c1.3,3.5,0.1,6-1.4,6.7c-1,0.5-2.6,0.2-2.9-1c-0.3-1.1,0.4-2,1.4-2.5c1.2-0.5,2.4-1.9,2.4-3.3L801.5,41.4L801.5,41.4z
					 M800.5,34.1c7.8,1.2,4.3,6.8,1.3,4.3c0-1.5-0.8-3.2-1.7-4.2L800.5,34.1L800.5,34.1z M807.7,52.3c-0.7,0.6-1.4,1.3-2.3,1.9
					c1.7,0.9,3.7,1.7,5.9,2.2c1.8-1.2,3.2-2.5,4.3-4.1L807.7,52.3L807.7,52.3z M807.6,33.7c7.7,1.5,4.1,7.1,1.2,4.5
					c0-1.5-0.7-3.3-1.5-4.4L807.6,33.7z M808.7,40.4c7.8,0.4,5,6.3,2,4.3c-0.2-1.5-1.3-3.2-2.3-4.1L808.7,40.4L808.7,40.4z"/>
				<path class="st1" d="M841.5,45.2c-0.1,0.3-0.5,0.6-1.1,0.7v15.4c-0.1,0.3-1.8,1.2-3.4,1.2h-0.8V48.7c-1.7,1.4-3.5,2.7-5.6,3.8
					l-0.3-0.4c4.5-3.8,7.7-9,9.9-14.3h-8.7l-0.3-1h9.4c1-2.5,1.7-4.9,2.2-7.2l5.9,1.5c-0.1,0.4-0.4,0.7-1.4,0.7
					c-0.6,1.6-1.3,3.3-2.1,4.9H856l2.5-3.1c0,0,2.8,2.1,4.5,3.6c-0.1,0.4-0.5,0.6-1,0.6h-17.2c-1.2,2.4-2.7,4.8-4.6,6.9L841.5,45.2
					L841.5,45.2z M859.1,56.3c0,0,2.6,2,4.3,3.4c-0.1,0.4-0.5,0.6-1,0.6h-21.1l-0.3-1h7.9V48.5h-6.3l-0.3-1h6.6v-8.2l5.3,0.5
					c0,0.5-0.3,0.8-1.1,0.9v6.8h2l2.2-2.8c0,0,2.5,1.9,4,3.2c-0.1,0.4-0.5,0.6-1,0.6H853v10.7h3.8L859.1,56.3L859.1,56.3z"/>
				<path class="st1" d="M897.4,44.4c-0.2,0.3-0.6,0.5-1.3,0.2c-2.1,0.9-5,1.9-8,2.7c2.3,4.7,6.9,7.4,11.8,8.9l-0.1,0.4
					c-1.6,0.3-2.7,1.6-3.3,3.5c-4.5-2.7-7.5-6.4-9.1-12.6c-0.7,0.2-1.5,0.4-2.2,0.5c2.7,4.9,2.4,10.6,0.6,12.8
					c-0.9,1.1-2.7,1.5-5.2,1.5c0-1.2-0.3-2-0.8-2.5c-0.5-0.5-1.6-1-2.9-1.3l0-0.4c1.4,0.1,3.8,0.3,4.6,0.3c0.5,0,0.8-0.1,1-0.4
					c0.5-0.7,0.8-2.2,0.8-4c-4.2,2.7-9.8,5-15.4,6.2l-0.2-0.5c5.8-2.1,11.8-6.2,15.1-10.6c-0.1-0.3-0.1-0.6-0.2-0.9
					c-3.6,2.3-8.8,4.7-13.7,6l-0.2-0.5c4.5-2.1,9.5-6,12.2-9.5l-0.3-0.4c-3.3,1.9-7.2,3.4-11.4,4.5l-0.2-0.4
					c4.2-1.9,8.1-4.8,10.7-7.5h-6.8l-0.3-1H889l2.2-2.7c0,0,1.3,1,2.6,2.1c0.1-1,0.3-2.3,0.4-3.4h-21.7c0.2,2.5-0.7,4.2-1.9,4.9
					c-1,0.7-2.7,0.4-3.2-0.9c-0.4-1.2,0.3-2.2,1.4-2.7c1.2-0.7,2.6-2.4,2.5-4.3h0.5c0.2,0.7,0.5,1.3,0.6,2h10.5
					c-0.2-0.1-0.4-0.2-0.6-0.3c-0.2-1.6-1.3-3.3-2.5-4.2l0.2-0.2c7.1-0.4,6.9,3.8,4.7,4.7h9.3l2.1-2.1l3.6,3.5
					c-0.2,0.3-0.6,0.4-1.3,0.4c-1,1-2.7,2.2-4.1,3c0.3,0.2,0.6,0.5,0.9,0.7c-0.1,0.4-0.5,0.6-1,0.6h-9.1c-1.1,1.1-2.5,2.1-4,3
					c1.5,1.2,2.6,2.5,3.5,3.9c3.2-1.9,6.7-4.6,8.6-6.3L897.4,44.4L897.4,44.4z"/>
				<path class="st1" d="M932.7,56.9c0,0,2.5,2.1,4,3.5c-0.1,0.4-0.5,0.6-1,0.6h-20.4l-0.3-1h8.8v-6.2h-6.4l-0.3-1h6.7v-6h-2.7v1.6
					c0,0.4-1.6,1.2-3.2,1.2h-0.6v-5.2c-0.2,0-0.4,0-0.6-0.1c-0.9,0.8-1.9,1.5-3,2.1c5.6,2.8,2.8,7.2,0,5c-0.2-1.5-1.2-3.4-2.1-4.8
					v14.6c0,0.3-1.2,1.2-3.1,1.2h-0.7V48.7c-1.4,1.2-2.8,2.2-4.3,3.2l-0.3-0.3c3.6-3.5,6.8-8.8,8.2-13.1h-7.6l-0.3-1h7.7l2.1-2
					l3.5,3.3c-0.3,0.3-0.7,0.4-1.5,0.5c-0.9,1.9-2.1,3.8-3.6,5.6v0.8c0.4,0.1,0.7,0.2,1.1,0.4c0.7-1.2,1.5-2.7,2-4.4l2.6,1.8V31
					l3.9,1.6h8.6l1.8-2l3.8,2.9c-0.2,0.3-0.7,0.6-1.4,0.7v13.6c-0.1,0.2-1.9,1-3.2,1h-0.6v-2h-2.8v6h1.9l2.1-2.9c0,0,2.4,2,3.8,3.3
					c-0.1,0.4-0.5,0.6-1,0.6h-6.9v6.2h3.1L932.7,56.9L932.7,56.9z M906.2,29.9c9.6,0.5,6.4,7.7,2.6,5.3c-0.4-1.9-1.7-3.9-2.9-5.1
					L906.2,29.9L906.2,29.9z M921.1,33.6v5.7h2.7v-5.7C923.8,33.6,921.1,33.6,921.1,33.6z M923.8,45.8v-5.5h-2.7v5.5H923.8z
					 M927.4,33.6v5.7h2.8v-5.7C930.2,33.6,927.4,33.6,927.4,33.6z M930.2,45.8v-5.5h-2.8v5.5H930.2z"/>
				<path class="st1" d="M951.6,45.5c0,0,1.9,1.8,2.9,2.9c-0.1,0.4-0.4,0.6-0.9,0.6h-4.2v6.6c1.5-0.3,3.1-0.7,4.7-1l0.1,0.4
					c-2.7,1.5-6.8,3.6-12.5,6.2c-0.2,0.4-0.5,0.8-1,0.9l-1.6-4.4c0.5-0.1,1.2-0.2,1.9-0.3V44.8l3.8,0.3c0,0.3-0.2,0.6-0.8,0.7v10.9
					l1.7-0.3v-15h-1v0.7c0,0.2-1.1,1-2.9,1h-0.6V30.6l4,1.6h3.8l1.7-1.9l3.6,2.7c-0.2,0.2-0.7,0.5-1.3,0.7v8c-0.1,0.2-1.8,0.9-3,0.9
					h-0.6v5.4h0.5L951.6,45.5L951.6,45.5z M944.8,40.4h4.6v-7.2h-4.6V40.4z M971.1,57.5c1.1,0.4,1.5,0.8,1.5,1.5
					c0,1.6-1.6,2.4-8.2,2.4h-4.3c-3.7,0-4.7-0.7-4.7-3.5V42.2c-0.8,0.9-1.6,1.7-2.5,2.4l-0.5-0.3c2-3.7,3.8-9.2,4.4-14.8l5.5,1.3
					c-0.1,0.5-0.6,0.8-1.3,0.8c-0.3,1.1-0.7,2.1-1.1,3.1h7.3l1.9-2l3.4,2.9c-0.2,0.3-0.7,0.5-1.4,0.6c-0.1,11.9-0.5,16-2,17.6
					c-1,1-2.3,1.4-4,1.4c0-1.1-0.1-2-0.5-2.5c-0.5-0.5-1.3-0.9-2.4-1.2v-0.5c0.9,0.1,2.5,0.2,3.1,0.2c0.5,0,0.8-0.1,1-0.4
					c0.9-0.8,1.1-5.2,1.3-15.2h-8.2c-0.5,1.2-1.1,2.3-1.8,3.4l1.7,0.7h2.1l1.6-1.7l3.3,2.5c-0.2,0.2-0.6,0.5-1.2,0.6v8
					c0,0.2-1.7,0.9-2.8,0.9h-0.6v-1.5h-2.8v8.2c0,0.8,0.3,1,1.8,1h4c1.5,0,2.9,0,3.5,0c0.5,0,0.8-0.1,1.1-0.4
					c0.3-0.5,0.8-1.8,1.4-3.4h0.4L971.1,57.5L971.1,57.5z M958.9,40.8v6.9h2.8v-6.9H958.9z"/>
				<path class="st1" d="M988,45.5c0,0,1.9,1.8,2.9,2.9c-0.1,0.4-0.4,0.6-0.9,0.6h-4.2v6.6c1.5-0.3,3.1-0.7,4.7-1l0.1,0.4
					c-2.7,1.5-6.8,3.6-12.5,6.2c-0.2,0.4-0.5,0.8-1,0.9l-1.6-4.4c0.5-0.1,1.2-0.2,1.9-0.3V44.8l3.8,0.3c0,0.3-0.2,0.6-0.8,0.7v10.9
					l1.7-0.3v-15h-1v0.7c0,0.2-1.1,1-2.9,1h-0.6V30.6l4,1.6h3.8l1.7-1.9l3.6,2.7c-0.2,0.2-0.7,0.5-1.3,0.7v8c-0.1,0.2-1.8,0.9-3,0.9
					h-0.6v5.4h0.5L988,45.5L988,45.5z M981.2,40.4h4.6v-7.2h-4.6V40.4z M1007.5,57.5c1.1,0.4,1.5,0.8,1.5,1.5c0,1.6-1.6,2.4-8.2,2.4
					h-4.3c-3.7,0-4.7-0.7-4.7-3.5V42.2c-0.8,0.9-1.6,1.7-2.5,2.4l-0.5-0.3c2-3.7,3.8-9.2,4.4-14.8l5.5,1.3c-0.1,0.5-0.6,0.8-1.3,0.8
					c-0.3,1.1-0.7,2.1-1.1,3.1h7.3l1.9-2l3.4,2.9c-0.2,0.3-0.7,0.5-1.4,0.6c-0.1,11.9-0.5,16-2,17.6c-1,1-2.3,1.4-4,1.4
					c0-1.1-0.1-2-0.5-2.5c-0.5-0.5-1.3-0.9-2.4-1.2v-0.5c0.9,0.1,2.5,0.2,3.1,0.2c0.5,0,0.8-0.1,1-0.4c0.9-0.8,1.1-5.2,1.3-15.2
					h-8.2c-0.5,1.2-1.1,2.3-1.8,3.4l1.7,0.7h2.1l1.6-1.7l3.3,2.5c-0.2,0.2-0.6,0.5-1.2,0.6v8c0,0.2-1.7,0.9-2.8,0.9h-0.6v-1.5h-2.8
					v8.2c0,0.8,0.3,1,1.8,1h4c1.5,0,2.9,0,3.5,0c0.5,0,0.8-0.1,1.1-0.4c0.3-0.5,0.8-1.8,1.4-3.4h0.4L1007.5,57.5L1007.5,57.5z
					 M995.3,40.8v6.9h2.8v-6.9H995.3z"/>
				<path class="st1" d="M1029.7,30l4.8,0.5c-0.1,0.5-0.4,0.8-1.3,1v15c-0.1,7.5-2.6,12.9-10.8,16.1l-0.3-0.4
					c5.4-3.5,7.4-8,7.7-14.1c-0.8,1.2-1.8,2.8-3.1,4.6c0,0.5-0.2,0.9-0.6,1.1l-2.6-3.8c0.4-0.2,1-0.5,1.8-0.8h-3.8v6.9
					c1.4-0.3,2.9-0.6,4.4-0.9l0.1,0.4c-2.5,1.4-6.3,3.3-11.5,5.7c-0.2,0.5-0.6,0.8-1,0.9l-1.5-4.3c0.5-0.1,1.1-0.2,1.8-0.3V44.9
					l3.6,0.3c-0.1,0.3-0.3,0.6-0.9,0.7v10.9l1.6-0.3v-15h-1v0.7c0,0.2-1,1-2.7,1h-0.6V30.7l3.7,1.5h3.4l1.5-1.6l3.2,2.4
					c-0.2,0.2-0.6,0.5-1.2,0.6v8.3c0,0.2-1.6,0.9-2.7,0.9h-0.6v5.2h0.3l1.7-2.6c0,0,1.9,1.8,2.9,3l0,0.1c1.1-0.5,2.3-1.2,3.6-1.8
					v-3.8c-0.6,1-1.8,1.3-3,0.1c0.1-2.3-0.7-5-1.7-6.8l0.4-0.1c2.4,1.2,3.7,2.6,4.2,3.8L1029.7,30L1029.7,30z M1017.2,40.5h4.2v-7.3
					h-4.2V40.5z M1039.1,42.9v2.5c8.8,2.7,5.8,9.1,2.6,6.6c-0.3-1.8-1.5-3.8-2.6-5.4v10.6c0,0.6,0.1,0.8,0.7,0.8h1.1
					c0.5,0,0.8,0,1.1,0c0.2,0,0.5-0.1,0.7-0.3c0.3-0.4,0.8-2.1,1.2-3.4h0.4l0.2,3.6c0.9,0.5,1.2,0.9,1.2,1.6c0,1.5-1.3,2.3-5,2.3
					h-1.9c-2.7,0-3.3-0.8-3.3-3.4V30l5,0.6c0,0.5-0.3,0.8-1.3,1v10.6c0.9-2.2,2-5.3,2.4-6.9l4.2,3c-0.2,0.2-0.7,0.5-1.4,0.2
					C1043.4,39.6,1041.1,41.6,1039.1,42.9L1039.1,42.9L1039.1,42.9z"/>
				<path class="st1" d="M1066.1,30l4.8,0.5c-0.1,0.5-0.4,0.8-1.3,1v15c-0.1,7.5-2.6,12.9-10.8,16.1l-0.3-0.4
					c5.4-3.5,7.4-8,7.7-14.1c-0.8,1.2-1.8,2.8-3.1,4.6c0,0.5-0.2,0.9-0.6,1.1l-2.6-3.8c0.4-0.2,1-0.5,1.8-0.8h-3.8v6.9
					c1.4-0.3,2.9-0.6,4.4-0.9l0.1,0.4c-2.5,1.4-6.3,3.3-11.4,5.7c-0.2,0.5-0.6,0.8-0.9,0.9l-1.5-4.3c0.5-0.1,1.1-0.2,1.9-0.3V44.9
					l3.6,0.3c-0.1,0.3-0.3,0.6-0.9,0.7v10.9l1.6-0.3v-15h-0.9v0.7c0,0.2-1,1-2.7,1h-0.6V30.7l3.7,1.5h3.4l1.5-1.6l3.2,2.4
					c-0.2,0.2-0.6,0.5-1.2,0.6v8.3c0,0.2-1.6,0.9-2.7,0.9h-0.6v5.2h0.3l1.7-2.6c0,0,1.9,1.8,2.9,3l0,0.1c1.1-0.5,2.3-1.2,3.6-1.8
					v-3.8c-0.6,1-1.8,1.3-3,0.1c0.1-2.3-0.7-5-1.7-6.8l0.4-0.1c2.4,1.2,3.7,2.6,4.2,3.8L1066.1,30L1066.1,30z M1053.6,40.5h4.2v-7.3
					h-4.2V40.5z M1075.5,42.9v2.5c8.8,2.7,5.8,9.1,2.6,6.6c-0.3-1.8-1.5-3.8-2.6-5.4v10.6c0,0.6,0.1,0.8,0.7,0.8h1.1
					c0.5,0,0.8,0,1.1,0c0.2,0,0.4-0.1,0.7-0.3c0.3-0.4,0.8-2.1,1.2-3.4h0.4l0.2,3.6c0.9,0.5,1.2,0.9,1.2,1.6c0,1.5-1.3,2.3-5,2.3
					h-1.9c-2.7,0-3.3-0.8-3.3-3.4V30l5,0.6c0,0.5-0.3,0.8-1.3,1v10.6c0.9-2.2,2-5.3,2.4-6.9l4.2,3c-0.2,0.2-0.7,0.5-1.4,0.2
					C1079.8,39.6,1077.5,41.6,1075.5,42.9L1075.5,42.9L1075.5,42.9z"/>
				<path class="st1" d="M1101.2,37.2c-0.2,0.3-0.8,0.6-1.5,0.7v20.9c0,0.3-1.9,1.2-3.3,1.2h-0.6v-2.8h-5.3v2.6
					c0,0.5-1.5,1.3-3.2,1.3h-0.6V34.7l3.9,1.7h0.2c0.2-1.9,0.6-4.7,0.7-6.6l5.7,1.4c-0.1,0.6-0.6,0.8-1.4,0.8
					c-0.9,1.2-2.3,3.1-3.4,4.4h3.1l1.8-2.1L1101.2,37.2L1101.2,37.2z M1090.6,37.3V46h5.3v-8.7H1090.6z M1095.9,56.2V47h-5.3v9.2
					H1095.9z M1118.3,37.2c-0.3,0.3-0.7,0.6-1.5,0.7c-0.2,14.1-0.7,20.5-2.7,22.6c-1.3,1.3-2.8,1.9-5.1,1.9c0-1.3-0.2-2.3-0.8-2.9
					c-0.6-0.7-2-1.2-3.7-1.5l0-0.5c1.7,0.1,4.1,0.3,5,0.3c0.6,0,0.9-0.1,1.3-0.5c1.3-1.2,1.7-8.2,1.9-20.1h-6.5
					c-1.7,3-3.7,5.5-5.9,7.3l-0.5-0.3c1.9-3.6,3.8-9.3,4.7-14.6l5.5,1.6c-0.1,0.5-0.6,0.7-1.4,0.7c-0.6,1.5-1.2,2.9-2,4.2h5.6
					l2.2-2.3L1118.3,37.2L1118.3,37.2z M1102.8,43.4c10.2,3,6.4,10.6,2.7,7.5c-0.2-2.5-1.6-5.3-3-7.2L1102.8,43.4z"/>
				<path class="st1" d="M1126.4,50.1c2.2-1.2,3.3-2.8,3.8-4.8c-2-0.8-3.5-1.7-3.5-3.4c0-1.4,1.1-2.7,2.8-2.7s3,1.3,3,3.6
					c0,2.9-1.4,6.6-5.4,8.4C1127,51.2,1126.4,50.1,1126.4,50.1z"/>
				<path class="st1" d="M1173.8,41.5c-1.7,0.5-2.6,1.9-3,3.8c-1.6-0.2-3.1-0.5-4.6-0.9l2.8,2.1c-0.1,0.2-0.5,0.4-1,0.5v5.9
					c0,0.3-2,1.2-3.4,1.2h-0.7v-1.3h-13.6v3.9c0,0.8,0.3,1,2.6,1h7.4c2.4,0,4.8,0,5.8-0.1c0.8-0.1,1.3-0.2,1.6-0.6
					c0.5-0.6,1.2-1.6,2-3.6h0.4l0.1,3.6c1.6,0.4,2,0.9,2,1.7c0,2-1.9,2.6-12.3,2.6h-7c-5.1,0-6.8-0.5-6.8-3.8V44.8
					c-1.8,0.2-3.6,0.4-5.5,0.5l-0.1-0.5c5.4-1.1,10.4-2.9,14.2-5.2c-1.6-1.2-2.9-2.7-4.1-4.3l0.4-0.3c1.4,1.4,3.3,2.5,5.6,3.4
					c2-1.4,3.6-3,4.8-4.7l4.4,3c-0.3,0.3-0.6,0.5-1.4,0.2c-1,1-2.2,2-3.5,2.8c3.9,1,8.5,1.4,12.7,1.5L1173.8,41.5L1173.8,41.5z
					 M1154.9,32.2c-0.2,0.3-0.6,0.5-1.3,0.3c-2.7,2.3-7.2,4.5-12,5.5l-0.2-0.5c3.7-2,7.3-5.4,9.1-8.2L1154.9,32.2z M1164.9,44.1
					c-2.6-0.7-5-1.5-7.2-2.7c-2.9,1.4-6.2,2.4-9.9,3.1l2.9,1.1h12.8L1164.9,44.1z M1150.2,51.8h4.7v-5.2h-4.7V51.8z M1163.8,51.8
					v-5.2h-4.8v5.2H1163.8z M1159.8,30.2c15,0.8,12.4,9.4,8.4,7.5c-1.1-1.9-4.2-4.9-8.5-7.1L1159.8,30.2z"/>
				<path class="st1" d="M1192.7,51.4c1.5,3.8,1.1,6.7-0.1,8c-0.8,1-2.6,0.9-3.2-0.3c-0.2-0.4-0.2-0.8-0.2-1.1
					c-0.7,0.7-1.8,0.8-2.8,0.1c-0.4-0.8-0.9-1.6-1.5-2.3c-1.8,2.7-4.2,5-7.6,6.9l-0.4-0.3c2.8-2.5,4.8-5.4,6.2-8.7
					c-1.7-1.7-3.6-3.3-5.4-4.5c0.5-1.7,1.1-4.1,1.6-6.8l-0.7,0.2c-0.2,0.5-0.7,0.7-1.1,0.8l-0.9-4.2c0.8,0,2,0,3.3,0
					c0.7-3.7,1.2-7.2,1.4-9.3l5,0.8c-0.1,0.4-0.3,0.8-1.4,0.9c-0.3,1.9-0.8,4.6-1.4,7.5c0.8,0,1.6-0.1,2.4-0.1c0-1.3,0.1-2.6,0-3.8
					l5.4,0.9c-0.1,0.6-0.5,0.9-1.4,1c0,0.6-0.1,1.2-0.1,1.7l1.4-0.1l0,0.5l-1.5,0.5c-0.4,4.6-1.2,9.2-3.1,13.2
					c2.4,1.7,3.1,3.3,3,4.4c0.2-0.2,0.4-0.4,0.7-0.6c0.9-0.8,2-3,1.8-4.9L1192.7,51.4L1192.7,51.4z M1184.1,50.8
					c1.1-3.3,1.6-6.8,1.8-10.4c-0.9,0.3-1.8,0.6-2.9,0.8c-0.6,2.9-1.3,5.8-1.9,8.1C1182.2,49.8,1183.2,50.3,1184.1,50.8L1184.1,50.8
					z M1210,48.8c-0.2,0.3-0.6,0.5-1.4,0.6c-0.3,7-0.9,10.5-2.4,11.7c-1,0.8-2.3,1.2-4,1.2c0-1-0.1-1.9-0.6-2.3
					c-0.5-0.5-1.7-1-3.1-1.2l0-0.5c1.3,0.1,3.5,0.2,4.2,0.2c0.6,0,0.8,0,1.1-0.3c0.7-0.7,1.2-3.8,1.4-9.3h-9.9v0.6
					c0,0.2-1.2,1.1-3,1.1h-0.7v-20l4.2,1.6h7.8l2-2.5c0,0,2.2,1.7,3.6,2.9c-0.1,0.4-0.5,0.6-1,0.6h-6.1v4.3h0.9l1.8-2.3
					c0,0,2.1,1.6,3.3,2.8c-0.1,0.4-0.4,0.6-0.9,0.6h-5.1v4.2h0.9l1.8-2.4c0,0,2.1,1.7,3.3,2.8c-0.1,0.4-0.4,0.6-0.9,0.6h-5.1v4.2
					h2.7l1.9-1.8L1210,48.8L1210,48.8z M1194.7,51.4c5.2,4.3,1.8,8.9-0.2,6.3c0.4-2,0.2-4.5-0.2-6.2L1194.7,51.4L1194.7,51.4z
					 M1195.3,33.1v4.3h3.3v-4.3H1195.3z M1198.6,38.4h-3.3v4.2h3.3V38.4z M1195.3,47.8h3.3v-4.2h-3.3V47.8z M1197.8,50.7
					c5.9,3.1,2.8,7.8,0.6,5.4c0.2-1.8-0.4-3.9-1.1-5.2L1197.8,50.7z M1200.9,49.6c6.2,2.1,3.5,6.8,1.2,4.8c0.1-1.6-0.7-3.5-1.6-4.6
					L1200.9,49.6z"/>
				<path class="st1" d="M1241.9,45.1c0,0,2.8,2,4.4,3.5c-0.1,0.4-0.5,0.6-1,0.6h-13.4v12.1c0,0.3-1.3,1.2-3.5,1.2h-0.8V49.2h-13.9
					l-0.3-1h14.1V33.6h-12.3l-0.3-1h23l2.5-3c0,0,2.7,2,4.4,3.4c-0.1,0.4-0.5,0.6-1,0.6h-12v14.6h7.6L1241.9,45.1L1241.9,45.1z
					 M1218.2,35.5c10.2,4.9,6.1,13.1,2.2,9.5c-0.1-3.2-1.3-6.7-2.6-9.3L1218.2,35.5L1218.2,35.5z M1234,46.1c1.2-2.7,2.7-7,3.7-10.8
					l5.4,2c-0.1,0.4-0.6,0.7-1.4,0.6c-2.1,3.3-4.7,6.3-7.3,8.3L1234,46.1L1234,46.1z"/>
				<path class="st1" d="M1282.7,37.8c-0.3,0.3-0.6,0.4-1.3,0.4c-1.3,0.9-3.4,2.1-5,2.8l-0.3-0.2c0.3-0.9,0.6-2.3,0.8-3.4h-21.5
					c0.2,2.5-0.7,4.2-2,4.9c-1.2,0.7-2.8,0.3-3.2-1c-0.4-1.3,0.4-2.3,1.5-2.8c1.3-0.7,2.5-2.3,2.4-4.2l0.5,0
					c0.3,0.8,0.5,1.5,0.7,2.2h8.9v-6.8l5.3,0.5c0,0.4-0.3,0.7-1.2,0.9v5.4h2c0.8-1.9,1.7-4.5,2.1-6.4l5.6,1.9
					c-0.2,0.4-0.6,0.7-1.4,0.6c-1.3,1.2-3.4,2.7-5.4,3.9h5.5l2.2-2.2L1282.7,37.8L1282.7,37.8z M1275.7,48.3l4,3
					c-0.2,0.3-0.7,0.6-1.4,0.7v4.6c0,2.5-0.6,4-4.9,4.4c-0.1-1.2-0.2-2.1-0.6-2.7c-0.4-0.5-1-1-2.4-1.2v-0.5c0,0,2.5,0.2,3.3,0.2
					c0.5,0,0.6-0.2,0.6-0.6v-4.9h-6.2V61c0,0.3-1.2,1.4-3.3,1.4h-0.7V51.3h-5.9v8.5c0,0.3-1.8,1.3-3.4,1.3h-0.6V48.6l4.3,1.7h5.6
					v-3.6h-3.2v0.7c0,0.3-1.8,1.2-3.4,1.2h-0.5v-9.9l4.2,1.6h10l1.8-2l3.8,2.8c-0.2,0.2-0.7,0.6-1.3,0.7v5.1c0,0.2-2.1,0.9-3.4,0.9
					h-0.7v-1.3h-3.4v3.6h5.9L1275.7,48.3L1275.7,48.3z M1256,30.1c9.1,1.2,5.6,8.1,2.1,5.4c-0.1-1.8-1.2-4-2.4-5.2L1256,30.1
					L1256,30.1z M1260.9,45.8h10.6v-4.3h-10.6V45.8z"/>
				<path class="st1" d="M1314.5,56.3c0,0,2.8,2.2,4.6,3.7c-0.1,0.4-0.5,0.6-1,0.6h-31.6l-0.3-1h13V30.1l5.8,0.6
					c-0.1,0.5-0.3,0.8-1.3,1v11.7h5.7l2.5-3.2c0,0,2.8,2.1,4.5,3.6c-0.1,0.4-0.5,0.6-0.9,0.6h-11.8v15.3h8.2L1314.5,56.3
					L1314.5,56.3z"/>
				<path class="st1" d="M640.5,77.9c0,0,2.9,2.2,4.7,3.8c-0.1,0.4-0.5,0.6-1,0.6H630v6.4c16.2,2.9,14.4,12.8,9.3,10.4
					c-2-3.3-6-7.1-9.3-9.6v19.9c0,0.3-1.4,1.3-3.6,1.3h-0.8V82.3h-13.2l-0.3-1h25.8L640.5,77.9L640.5,77.9z"/>
				<path class="st1" d="M678.9,99.1c0,0,1.8,1.4,3,2.5c-0.1,0.4-0.5,0.6-0.9,0.6h-4.7c-0.4,1.3-1,2.4-2.1,3.5
					c9.7,2.1,5.1,6.3,1.6,4.8c-1.3-0.8-3-1.8-5.2-2.6c-2.6,1.1-6.4,2.1-12.2,2.8l-0.2-0.6c4.4-1,7.5-2.1,9.6-3.2
					c-2-0.7-4.3-1.2-6.7-1.7l0.1,0c0.5-0.7,1.2-1.8,1.8-2.9h-4.2l-0.3-1h5c0.6-1.2,1.2-2.3,1.5-3.1H664v0.9c0,0.3-1.6,1.1-3.1,1.1
					h-0.5v-8.4l0.9,0.3v-5H660l0,0c-0.1,0.4-0.4,0.6-0.9,0.6h-3.2v2.2c6.2,3.2,3.3,7.8,1,5.6c0.1-1.4-0.4-3.2-1-4.6v18.6
					c0,0.4-1.5,1.3-2.8,1.3h-0.7V96.8c-1,2-2.3,3.8-3.7,5.6l-0.5-0.4c2-4,3.2-9.4,3.8-14.5h-3.3l-0.3-1h3.9v-8.8l4.8,0.5
					c-0.1,0.5-0.3,0.8-1.3,1v7.3h0l1.4-2.2c0,0,1.2,1.1,2.1,2l-0.1-0.5h2v-5l3.8,1.5h2.8v-4.5l5.1,0.5c-0.1,0.5-0.4,0.8-1.3,1v3h2.6
					l1.6-1.6l3.4,2.4c-0.2,0.2-0.6,0.4-1,0.5v1.9l1.2-1.6c0,0,1.5,1.4,2.4,2.3c-0.1,0.4-0.4,0.6-0.8,0.6h-2.7v3.6
					c0,0.3-1.8,1.1-3,1.1h-0.6v-1.2h-2.9v2.7h4l1.6-1.7l3.5,2.6c-0.2,0.2-0.6,0.5-1.1,0.6V98c0,0.3-1.8,1-3,1h-0.6v-1h-8.7l3.3,0.7
					c-0.1,0.4-0.4,0.7-1.6,0.8c-0.3,0.5-0.6,1.1-1,1.7h4.5c0.2-0.7,0.2-1.4,0.3-2.2l5.2,0.4c-0.1,0.4-0.5,0.8-1.2,0.9
					c-0.1,0.3-0.1,0.6-0.2,0.8h0.7L678.9,99.1L678.9,99.1z M661.6,92.1l2.6,1h3.6v-2.7h-2.9V91c0,0.3-1.6,1.1-3.1,1.1L661.6,92.1
					L661.6,92.1z M664,97h3.8v-2.9H664V97z M664.9,85.9h2.9v-2.5h-2.9V85.9z M664.9,86.9v2.5h2.9v-2.5H664.9z M667.3,102.1
					c-0.5,0.8-1,1.7-1.5,2.4c1.7,0.1,3.3,0.2,4.6,0.4c0.9-0.9,1.5-1.8,1.8-2.8H667.3z M671.7,83.4v2.5h2.9v-2.5H671.7z M674.5,86.9
					h-2.9v2.5h2.9V86.9z M671.7,94.1V97h4.3v-2.9H671.7z"/>
				<path class="st1" d="M693.3,89.3c6.7,2.9,3.8,7.8,1.4,5.5c0-1.4-0.7-3.2-1.4-4.6v19.2c0,0.4-1.6,1.3-3,1.3h-0.7V96.4
					c-1.3,2.2-2.8,4.3-4.7,6.1l-0.5-0.4c2.4-4,3.9-9.4,4.7-14.7h-4l-0.3-1h4.7v-8.8l5,0.5c-0.1,0.5-0.4,0.8-1.3,1v7.2h0.4l1.7-2.6
					c0,0,2,1.8,3.1,3c-0.1,0.4-0.5,0.6-1,0.6h-4.2L693.3,89.3L693.3,89.3z M718.2,96.9c-0.2,0.3-0.7,0.4-1.3,0.6
					c-0.1,5.6-0.4,7.6-1.7,8.5c-0.8,0.7-2,0.9-3.5,0.9c0-1.1-0.1-1.9-0.5-2.4c-0.3-0.5-0.9-0.8-1.8-1.1v-0.5c0.7,0,1.8,0.1,2.4,0.1
					c0.4,0,0.7-0.1,0.8-0.2c0.4-0.4,0.5-2.2,0.6-6.1h-4.4v12.5c0,0.2-1.2,1-3.1,1H705v-8.8c-2.4,2.9-5.6,5.2-9.5,7.1l-0.3-0.5
					c3.8-2.9,6.7-7.1,8.2-11.4h-2l-1.3,1.6l-3.5-2.1c0.3-0.2,0.8-0.6,1.2-0.8c0.5-2.1,1-5.4,1.1-7.2l4.2,2h1.9v-5H698l-0.3-1H708
					c0.6-2,1.4-4.7,1.8-6.6l5.2,1.7c-0.1,0.4-0.6,0.7-1.3,0.6c-1.3,1.2-3.2,2.8-4.9,4.2h2.9l1.8-1.9l3.7,2.8
					c-0.2,0.3-0.7,0.6-1.3,0.7v5.9c0,0.2-1.9,0.9-3.1,0.9h-0.7v-1.3h-3.3v4.6h4l1.9-1.8L718.2,96.9L718.2,96.9z M700.1,77.9
					c8.7,1.9,5.2,8.4,1.9,5.7c-0.1-1.9-1.2-4.1-2.2-5.5L700.1,77.9L700.1,77.9z M705,95.9v-4.6h-2.8c-0.2,1.4-0.6,3.2-0.9,4.6H705
					L705,95.9z M708.8,90.4h3.3v-5h-3.3V90.4z"/>
				<path class="st1" d="M753.4,105.7c0.9,0.4,1.1,0.9,1.1,1.7c0,1.5-1.2,2.3-4.9,2.3h-1.9c-2.7,0-3.2-0.8-3.2-3.3V94.4
					c-0.9,6.7-3.2,12.2-9.6,16.2l-0.4-0.5c5.2-5.6,6.3-12.6,6.5-21.2h-2.3l-0.1-0.4c-0.2,0.3-0.7,0.6-1.4,0.7v6.1
					c0,0.2-2,0.9-3.2,0.9h-0.6V95h-1.2v11c0,2.6-0.6,4.3-4.7,4.7c-0.1-1.2-0.2-2.1-0.6-2.7c-0.4-0.6-1-1-2.5-1.2v-0.5
					c0,0,2.6,0.2,3.2,0.2c0.5,0,0.6-0.2,0.6-0.6v-6.1c-0.2,0.1-0.5,0.1-0.8,0.1c-1.6,3.1-3.8,5.5-6.3,7l-0.5-0.3
					c1.4-2.2,2.6-5.5,3.3-8.9l4.3,1.4V95H727v0.6c0,0.3-1.6,1.1-3.1,1.1h-0.5V86.1l3.8,1.5h5.9l1.8-1.9l3.8,2.8l-0.2-0.6h2.6
					c0-3.2,0-6.5,0-10.1l5.3,0.5c-0.1,0.5-0.4,0.8-1.3,1c0,3,0,5.9-0.1,8.6h3.6l2-2.6c-0.6,0.1-1.4,0-2.1-0.7
					c-0.1-1.8-1-3.8-1.9-5.2l0.3-0.2c6.2,1.6,5.7,5.2,3.8,5.9c0.4,0.3,2.5,1.9,3.7,3.1c-0.1,0.4-0.5,0.6-1,0.6h-5.1v16.3
					c0,0.5,0.1,0.6,0.7,0.6h0.9c0.5,0,0.8,0,1,0c0.2,0,0.5-0.1,0.6-0.4c0.3-0.6,0.8-2.9,1.3-4.9h0.4L753.4,105.7L753.4,105.7z
					 M721.7,84.8l-0.3-1h12.9l2.1-2.8c0,0,2.5,1.9,3.9,3.3c-0.1,0.4-0.5,0.6-1,0.6H721.7z M727.2,77.9c8.9,0.6,5.9,7.3,2.3,5
					c-0.3-1.7-1.6-3.6-2.6-4.8L727.2,77.9L727.2,77.9z M733.5,93.9v-5.3h-6.4v5.3H733.5z M733.5,98c7.9,3,4.1,8.8,1.2,6
					c0-2-0.8-4.3-1.5-5.8L733.5,98z"/>
				<path class="st1" d="M790.8,85.2c-0.2,0.3-0.7,0.6-1.5,0.7c-0.2,14.7-0.7,21-2.6,23.1c-1.2,1.3-2.7,1.7-4.9,1.7
					c0-1.2-0.1-2-0.7-2.5c-0.6-0.7-1.8-1.1-3.4-1.4l0-0.5c1.5,0.2,3.7,0.3,4.5,0.3c0.6,0,1-0.1,1.3-0.5c1.3-1.2,1.6-8.2,1.9-20.8
					h-8.7c-0.9,1.4-1.9,2.6-3,3.8l2.9,1.2h2.3l1.6-1.7L784,91c-0.2,0.2-0.7,0.5-1.3,0.6v9.9c0,0.2-1.7,0.9-2.7,0.9h-0.5v-1.8h-2.8
					v1.9c0,0.3-1.3,1-2.7,1h-0.5v-6.5c-0.2,0.1-0.6,0.1-1,0.2c-2.6,6.2-6.5,10.8-14.4,13.2l-0.3-0.5c2.9-1.7,5.3-3.8,7.1-6.3
					c-0.5,0-1-0.1-1.5-0.6c-0.1-1.3-0.7-2.7-1.5-3.7c-1.2,0.9-2.4,1.7-3.8,2.3l-0.3-0.4c2.6-2.3,4.7-5.7,6-8.7
					c-1.7,1.1-3.6,2-5.7,2.7l-0.2-0.5c2.8-1.5,5.2-3.6,7-6.1c-0.6,0.1-1.2,0-1.9-0.5c-0.1-0.9-0.6-2.1-1.2-2.8
					c-1.1,0.8-2.3,1.6-3.6,2.2l-0.3-0.4c2.6-2.6,4.8-6.6,5.7-9.6l4.6,1.4c-0.1,0.4-0.4,0.6-1.2,0.6c-0.4,0.7-0.9,1.4-1.5,2.1h2.9
					l2.1-2l3.2,3c-0.2,0.3-0.6,0.4-1.4,0.5c-1.4,3-3.5,5.7-6.4,7.9l3.3,1.3c-0.1,0.4-0.5,0.6-1.3,0.6c-0.5,0.8-1.1,1.7-1.9,2.5h2.5
					l1.8-1.9l3.2,2.5v-6.9c-0.7,0.8-1.5,1.5-2.3,2.1l-0.4-0.3c1.9-3.3,3.8-8.4,4.7-13.4l5.4,1.7c-0.1,0.5-0.6,0.8-1.4,0.7
					c-0.6,1.4-1.3,2.7-2,4h7.7l2.1-2.2L790.8,85.2L790.8,85.2z M764.5,82.9c-0.6,0.7-1.3,1.3-2,1.9c2.3,0.3,3.4,1.2,3.7,2
					c0.8-1.3,1.4-2.6,1.9-3.9L764.5,82.9L764.5,82.9z M765.1,96.7c-0.7,0.8-1.5,1.5-2.4,2.2c2.3,0.3,3.5,1.2,4,2.1
					c0.7-1.3,1.3-2.7,1.8-4.2H765.1L765.1,96.7z M776.7,91.2v8.5h2.8v-8.5H776.7z"/>
				<path class="st1" d="M812,85.7c-1.6,1.9-3.4,3.4-5.4,4.6l-0.1-0.1v11.8c0,0.3-2,1.1-3.4,1.1h-0.7v-3.4h-3.2v3.8
					c0,0.5-1.5,1.4-3.3,1.4h-0.6V80.8l4.1,1.7h2.7l1.9-2.1l3.9,3.1c-0.2,0.3-0.7,0.6-1.4,0.8v5.4c1.9-2.9,3.8-7.3,4.9-11.7l5.5,2
					c-0.2,0.4-0.6,0.7-1.4,0.7c-0.8,1.5-1.7,2.9-2.7,4.2h7.8l2.2-2.8c0,0,2.6,1.9,4.1,3.2c-0.1,0.4-0.5,0.6-1,0.6L812,85.7L812,85.7
					z M802.5,98.8V83.5h-3.2v15.3H802.5z M825.5,105.4c1.4,0.5,1.8,0.7,1.8,1.5c0,1.7-2.2,2.6-6.9,2.6h-5.8c-4.9,0-7-1.4-7.2-4.2
					c-0.4-3,3.8-6.4,10.7-13.8h-9l-0.3-1h9.8l1.8-1.9l3.8,3.2c-0.3,0.3-0.8,0.5-1.7,0.6c-7.7,7.3-11.1,11-10.9,12.5
					c0.1,0.9,1.3,1.2,3.4,1.2h5.6c2.3,0,2.9-0.1,3.2-0.6c0.6-0.9,1.1-2.4,1.6-4.4h0.4L825.5,105.4L825.5,105.4z"/>
				<path class="st1" d="M861.6,87.9c-0.3,0.3-0.7,0.6-1.6,0.7c-0.3,11.3-1.1,18-3.2,19.9c-1.3,1.3-2.9,1.8-5.6,1.8
					c0-1.3-0.2-2.4-0.9-3c-0.7-0.7-2.5-1.3-4.5-1.7l0-0.5c2.1,0.2,5.2,0.4,6.2,0.4c0.7,0,1-0.1,1.4-0.5c1.3-1.1,2-7.8,2.3-17.3h-8.5
					c-0.7,9.3-3.4,17.3-16.3,22.8l-0.3-0.5c9.5-6.3,11.7-13.7,12.2-22.3h-10.4l-0.3-1H843c0.1-2.9,0.1-5.9,0.1-9l5.8,0.5
					c-0.1,0.6-0.4,0.9-1.3,1c-0.1,2.6-0.1,5.1-0.2,7.5h8.1l2.3-2.3L861.6,87.9L861.6,87.9z"/>
				<path class="st1" d="M898.2,82.3c-0.3,0.3-0.7,0.4-1.5,0.5c-2.8,1.9-6.7,4.1-10.3,5.8l0.3,0c-0.1,0.5-0.4,0.8-1.2,0.9v15.9
					c0,3-0.8,4.6-6.2,5.1c-0.2-1.4-0.4-2.3-1.2-3c-0.8-0.7-1.9-1.2-4.3-1.5v-0.5c0,0,5.5,0.3,6.5,0.3c0.7,0,0.9-0.2,0.9-0.8V88.1
					l3.6,0.3c2.3-1.9,4.8-4.4,6.5-6.3h-21.6l-0.3-1h22.3l2.5-2.3L898.2,82.3L898.2,82.3z"/>
				<path class="st1" d="M906,94.2c0-2.7,2.2-4.9,5-4.9s4.9,2.2,4.9,4.9s-2.2,5-4.9,5S906,97,906,94.2z M907.3,94.2
					c0,2,1.7,3.7,3.7,3.7s3.7-1.7,3.7-3.7s-1.6-3.7-3.7-3.7S907.3,92.2,907.3,94.2z"/>
				<path class="st1" d="M947,82.8l-0.3,1.8l0.4-0.3l3.8,2.8c-0.2,0.2-0.7,0.5-1.3,0.7v7.7c0,0.3-1.9,1.2-3.3,1.2h-0.7v-1.3h-4.9
					v2.9h7.5l1.8-2l4,3c-0.2,0.3-0.7,0.6-1.4,0.7v6.5c0,2.4-0.6,3.8-5.2,4.2c-0.1-1.1-0.2-2-0.8-2.5c-0.6-0.5-1.3-0.9-3-1.2v-0.5
					c0,0,3.5,0.2,4.3,0.2c0.5,0,0.7-0.2,0.7-0.7v-6.8h-7.8v3.3l3.1-0.1c-0.5-0.9-1-1.7-1.7-2.2l0.3-0.2c8.4,1.5,5.4,7.7,2.3,5.4
					c0-0.6-0.2-1.2-0.5-1.9c-2.8,0.8-6.6,1.7-11.5,2.8c-0.2,0.4-0.6,0.7-1,0.7l-1.5-4.3c1.4,0,3.7,0,6.5,0v-3.4h-7.6v10.3
					c0,0.3-1.2,1.1-3.2,1.1h-0.7V99.3h-1.6l-0.3-1h1.9v-1.6l4.3,1.6h7.2v-2.9h-4.8v0.6c0,0.4-1.8,1.2-3.4,1.2H928V84.5l1.3,0.5
					l-0.3-2.3h-6.1l-0.3-1h6.3l-0.5-3.8l5.2,0.3c0,0.4-0.3,0.8-1,1l0.3,2.5h0.9l1.9-2.7c0,0,2.2,1.8,3.4,3.1c-0.1,0.4-0.5,0.6-1,0.6
					h-5.1l0.2,1.8c-0.5,0.6-1.4,0.9-2.7,1l1.5,0.6h13l1.3-1.4c-0.8,0.5-2.3,0.7-3.8,0.4l0.4-2.4h-3.2l-0.3-1h3.6l0.6-3.8l5.1,0.8
					c-0.1,0.4-0.4,0.8-1.4,0.9l-0.3,2.1h2.2l1.9-2.7c0,0,2.2,1.8,3.4,3.1c-0.1,0.4-0.5,0.6-0.9,0.6L947,82.8L947,82.8z M931.9,87.1
					v3.2h4.8v-3.2H931.9z M936.7,94.4v-3.1h-4.8v3.1H936.7z M940.6,87.1v3.2h4.9v-3.2H940.6z M945.5,94.4v-3.1h-4.9v3.1H945.5z"/>
				<path class="st1" d="M983.5,92.8l2.9-4.1c0,0,3.2,2.8,5.2,4.6c-0.1,0.4-0.5,0.6-1.1,0.6h-31.4l-0.3-1.1H983.5L983.5,92.8z"/>
				<path class="st1" d="M1007.5,88.1c-0.1,0.4-0.5,0.7-1.4,0.7c-1.9,5-5.2,11.4-10.6,15.5l-0.3-0.3c3.5-5.1,5.7-12.7,6.5-17.9
					L1007.5,88.1z M1015.3,78.8c-0.1,0.5-0.4,0.8-1.3,1v25.7c0,2.9-0.7,4.7-6,5.2c-0.1-1.4-0.4-2.4-1.1-3c-0.7-0.7-1.6-1.2-3.8-1.5
					v-0.5c0,0,4.8,0.3,5.7,0.3c0.7,0,0.9-0.2,0.9-0.7V78.3L1015.3,78.8L1015.3,78.8z M1023.3,102.1c-0.6-5-3.4-10.8-6.2-15.2
					l0.5-0.2C1031.8,94.9,1028.2,106.5,1023.3,102.1L1023.3,102.1z"/>
				<path class="st1" d="M1045,90.3c-1.2,1.1-2.8,2.4-4.9,4v11.6c0,2.8-0.6,4.3-4.9,4.7c-0.1-1.3-0.2-2.2-0.7-2.8
					c-0.5-0.6-1.1-1.1-2.6-1.3V106c0,0,2.9,0.2,3.6,0.2c0.5,0,0.6-0.1,0.6-0.5v-8.4c-0.6,0.4-1.2,0.8-1.9,1.3
					c-0.1,0.5-0.4,0.9-0.8,1.1l-2.4-4.5c1-0.3,2.8-0.9,5-1.8v-6.4l2.1,0.2c0.7-1.7,1.5-4,2-5.5h-8.7l-0.3-1h8.9l2.2-2.1l3.6,3.2
					c-0.3,0.3-0.6,0.3-1.4,0.4c-1.3,1.4-3.2,3.5-5.1,5l1.9,0.2c-0.1,0.5-0.4,0.8-1.2,0.9v3.5c1.5-0.6,3.1-1.3,4.7-1.9L1045,90.3
					L1045,90.3z M1042,110.3c7.2-3.5,13.3-8.5,17.6-16.8l4.9,2.6c-0.3,0.4-0.7,0.6-1.6,0.4c-1.8,2.5-3.6,4.6-5.6,6.3
					c9.8,2.4,7.1,9.6,3.2,7.2c-0.7-2.2-2.5-4.6-4.1-6.5c-4.1,3.4-8.8,5.6-14.2,7.2L1042,110.3L1042,110.3z M1060.9,81
					c0,0,2.4,1.9,3.8,3.2c-0.1,0.4-0.5,0.6-1,0.6h-12.7l4.8,1.6c-0.1,0.3-0.5,0.6-1.2,0.6c-1.7,1.7-4.5,3.7-6.9,5.1
					c1.8,0,4.2-0.1,6.8-0.2c0.8-1.2,1.6-2.5,2.3-3.9l4.7,2.4c-0.2,0.4-0.6,0.5-1.4,0.4c-4.6,6.3-10.2,10.3-17.1,12.9l-0.3-0.5
					c4.2-2.4,7.8-5.6,10.8-9.7c-1.8,0.6-4,1.3-6.4,1.9c-0.3,0.5-0.7,0.8-1.1,0.9l-1.4-4.3c0,0,0.7-0.1,1.1-0.3
					c1.9-1.2,4.2-4.8,5-6.9h-6.6l-0.3-1h15.2L1060.9,81L1060.9,81z M1050.3,77.8c9.3,1.2,5.5,8.1,2,5.4c-0.2-1.8-1.3-3.8-2.3-5.2
					L1050.3,77.8L1050.3,77.8z"/>
				<path class="st1" d="M1095.9,90.4c0,0,2.8,2.2,4.6,3.6c-0.1,0.3-0.5,0.5-1,0.5h-12.9v11c0,2.9-0.8,4.7-6.2,5.1
					c-0.2-1.4-0.4-2.3-1.2-3c-0.8-0.7-1.9-1.1-4.3-1.5v-0.5c0,0,5.4,0.3,6.4,0.3c0.7,0,0.9-0.2,0.9-0.7V94.6h-13.8l-0.3-0.9h14.1
					v-6.1l3.6,0.3c1.9-1.7,3.9-4,5.3-5.7H1072l-0.3-1h19.7l2.4-2.3l4,3.5c-0.3,0.3-0.7,0.4-1.4,0.5c-2.6,1.7-6.1,3.7-9.3,5.1
					l0.6,0.1c-0.1,0.5-0.4,0.8-1.2,0.9v4.7h6.9L1095.9,90.4L1095.9,90.4z"/>
				<path class="st1" d="M1115.2,93.4c-0.1,0.3-0.4,0.6-1.1,0.7v15.4c-0.1,0.3-1.8,1.2-3.4,1.2h-0.8V96.9c-1.7,1.4-3.5,2.7-5.6,3.8
					l-0.3-0.4c4.5-3.8,7.7-9,9.9-14.3h-8.7l-0.3-1h9.4c0.9-2.5,1.7-4.9,2.2-7.2l5.9,1.5c-0.1,0.4-0.4,0.7-1.4,0.7
					c-0.6,1.6-1.3,3.2-2.1,4.9h10.8l2.4-3.1c0,0,2.8,2.1,4.4,3.6c-0.1,0.4-0.5,0.6-1,0.6h-17.2c-1.2,2.4-2.7,4.8-4.6,6.9
					L1115.2,93.4L1115.2,93.4z M1132.8,104.5c0,0,2.6,2,4.3,3.4c-0.1,0.4-0.5,0.6-1,0.6h-21.1l-0.3-1h7.9V96.7h-6.3l-0.3-1h6.6v-8.2
					l5.3,0.5c0,0.5-0.3,0.8-1.1,0.9v6.8h2l2.2-2.8c0,0,2.4,1.9,4,3.2c-0.1,0.4-0.5,0.6-1,0.6h-7.1v10.7h3.8L1132.8,104.5
					L1132.8,104.5z"/>
				<path class="st1" d="M1171,99.1c0,0,1.8,1.4,3,2.5c-0.1,0.4-0.4,0.6-0.9,0.6h-4.7c-0.4,1.3-1,2.4-2.1,3.5
					c9.7,2.1,5.1,6.3,1.6,4.8c-1.3-0.8-3-1.8-5.2-2.6c-2.6,1.1-6.4,2.1-12.2,2.8l-0.2-0.6c4.4-1,7.5-2.1,9.6-3.2
					c-2-0.7-4.3-1.2-6.7-1.7l0.1,0c0.5-0.7,1.2-1.8,1.8-2.9h-4.2l-0.3-1h5c0.6-1.2,1.2-2.3,1.5-3.1h-1.2v0.9c0,0.3-1.7,1.1-3.1,1.1
					h-0.5v-8.4l0.9,0.3v-5h-1.3l0,0c-0.1,0.4-0.4,0.6-0.9,0.6h-3.2v2.2c6.2,3.2,3.3,7.8,1,5.6c0.1-1.4-0.4-3.2-1-4.6v18.6
					c0,0.4-1.5,1.3-2.8,1.3h-0.7V96.8c-1,2-2.3,3.8-3.7,5.6l-0.4-0.4c2-4,3.2-9.4,3.8-14.5h-3.3l-0.3-1h3.9v-8.8l4.8,0.5
					c-0.1,0.5-0.3,0.8-1.3,1v7.3h0l1.4-2.2c0,0,1.2,1.1,2.1,2l-0.1-0.5h2v-5l3.8,1.5h2.8v-4.5l5.1,0.5c-0.1,0.5-0.4,0.8-1.3,1v3h2.6
					l1.6-1.6l3.4,2.4c-0.2,0.2-0.6,0.4-1.1,0.5v1.9l1.2-1.6c0,0,1.5,1.4,2.4,2.3c-0.1,0.4-0.4,0.6-0.8,0.6h-2.7v3.6
					c0,0.3-1.8,1.1-3,1.1h-0.6v-1.2h-2.9v2.7h4l1.7-1.7l3.5,2.6c-0.2,0.2-0.6,0.5-1.1,0.6V98c0,0.3-1.8,1-3,1h-0.6v-1h-8.7l3.2,0.7
					c-0.1,0.4-0.4,0.7-1.6,0.8c-0.3,0.5-0.6,1.1-1,1.7h4.6c0.2-0.7,0.2-1.4,0.3-2.2l5.2,0.4c-0.1,0.4-0.5,0.8-1.2,0.9
					c-0.1,0.3-0.1,0.6-0.2,0.8h0.7L1171,99.1L1171,99.1z M1153.7,92.1l2.6,1h3.6v-2.7h-2.9V91c0,0.3-1.6,1.1-3.1,1.1
					C1153.9,92.1,1153.7,92.1,1153.7,92.1z M1156.1,97h3.8v-2.9h-3.8V97z M1157,85.9h2.9v-2.5h-2.9V85.9z M1157,86.9v2.5h2.9v-2.5
					H1157z M1159.4,102.1c-0.5,0.8-1,1.7-1.5,2.4c1.7,0.1,3.3,0.2,4.6,0.4c0.9-0.9,1.5-1.8,1.8-2.8H1159.4L1159.4,102.1z
					 M1163.8,83.4v2.5h2.9v-2.5H1163.8z M1166.7,86.9h-2.9v2.5h2.9V86.9z M1163.8,94.1V97h4.3v-2.9H1163.8z"/>
				<path class="st1" d="M1185.4,89.3c6.7,2.9,3.8,7.8,1.4,5.5c0-1.4-0.7-3.2-1.4-4.6v19.2c0,0.4-1.6,1.3-3,1.3h-0.7V96.4
					c-1.3,2.2-2.8,4.3-4.7,6.1l-0.4-0.4c2.4-4,3.9-9.4,4.7-14.7h-4l-0.3-1h4.7v-8.8l5,0.5c-0.1,0.5-0.4,0.8-1.3,1v7.2h0.4l1.7-2.6
					c0,0,2,1.8,3.1,3c-0.1,0.4-0.5,0.6-0.9,0.6h-4.2L1185.4,89.3L1185.4,89.3z M1210.3,96.9c-0.2,0.3-0.7,0.4-1.3,0.6
					c-0.1,5.6-0.4,7.6-1.7,8.5c-0.8,0.7-2,0.9-3.5,0.9c0-1.1-0.1-1.9-0.4-2.4c-0.3-0.5-0.9-0.8-1.8-1.1v-0.5c0.7,0,1.9,0.1,2.4,0.1
					c0.4,0,0.7-0.1,0.8-0.2c0.4-0.4,0.5-2.2,0.6-6.1h-4.4v12.5c0,0.2-1.2,1-3.1,1h-0.7v-8.8c-2.4,2.9-5.6,5.2-9.5,7.1l-0.3-0.5
					c3.8-2.9,6.7-7.1,8.2-11.4h-2l-1.3,1.6l-3.5-2.1c0.3-0.2,0.8-0.6,1.2-0.8c0.4-2.1,0.9-5.4,1.1-7.2l4.2,2h1.9v-5h-7.1l-0.3-1
					h10.4c0.6-2,1.4-4.7,1.8-6.6l5.2,1.7c-0.1,0.4-0.6,0.7-1.3,0.6c-1.3,1.2-3.2,2.8-4.9,4.2h2.9l1.8-1.9l3.7,2.8
					c-0.2,0.3-0.7,0.6-1.3,0.7v5.9c0,0.2-1.9,0.9-3.1,0.9h-0.7v-1.3h-3.3v4.6h4l1.9-1.8L1210.3,96.9L1210.3,96.9z M1192.2,77.9
					c8.7,1.9,5.2,8.4,1.9,5.7c-0.1-1.9-1.2-4.1-2.2-5.5L1192.2,77.9L1192.2,77.9z M1197.1,95.9v-4.6h-2.8c-0.2,1.4-0.6,3.2-0.9,4.6
					H1197.1z M1200.9,90.4h3.3v-5h-3.3V90.4z"/>
				<path class="st1" d="M1219.2,90.2v18.9c0,0.5-1.5,1.5-3.3,1.5h-0.7v-32l4.1,1.8h4.8l1.7-1.9l3.6,2.8c-0.2,0.2-0.6,0.6-1.3,0.7
					v9.1c0,0.2-1.9,0.9-3.1,0.9h-0.6v-1.9L1219.2,90.2L1219.2,90.2z M1219.2,81.5v3.3h5.3v-3.3H1219.2z M1224.5,89.2v-3.4h-5.3v3.4
					H1224.5z M1245.7,81.4c-0.2,0.3-0.7,0.6-1.4,0.7v23.7c0,2.8-0.6,4.4-5,4.8c-0.1-1.3-0.2-2.3-0.7-2.9c-0.5-0.6-1.2-1.1-2.7-1.3
					v-0.1c-0.6,0.3-1.8,0.7-2.6,0.7h-0.7v-2h-6.1v1.3c0,0.3-1.6,1.2-3.2,1.2h-0.5V92.8l3.8,1.6h5.6l1.8-1.9l3.6,2.8
					c-0.2,0.2-0.7,0.5-1.3,0.6v10.1c0.9,0.1,2.6,0.2,3.1,0.2c0.6,0,0.7-0.3,0.7-0.7V90.2h-5.5v0.7c0,0.3-1.7,1.2-3.3,1.2h-0.5V78.9
					l3.9,1.6h5l1.9-2.2L1245.7,81.4L1245.7,81.4z M1226.6,95.3v3.8h6.1v-3.8H1226.6z M1232.7,104v-3.9h-6.1v3.9H1232.7z
					 M1234.8,81.5v3.3h5.5v-3.3H1234.8z M1240.3,89.2v-3.4h-5.5v3.4H1240.3z"/>
				<path class="st1" d="M1263.6,87.1c-0.6,0.2-1.2,0.4-1.8,0.6c-0.3,4.3-1.1,8.5-2.6,12.3c6.6,4,3.3,7.7,0.6,6
					c-0.5-0.9-1.3-1.9-2.2-2.9c-1.8,3-4.2,5.6-7.6,7.7l-0.4-0.3c2.8-2.6,4.8-5.8,6.1-9.3c-1.7-1.5-3.5-2.9-5.1-4
					c0.4-1.7,0.9-4.1,1.3-6.7l-0.5,0.1c-0.2,0.4-0.6,0.7-1,0.8l-1-4.2c0.8,0,1.8,0,3,0c0.6-3.7,1.1-7.3,1.2-9.4l4.9,0.7
					c-0.1,0.4-0.3,0.8-1.4,0.9c-0.2,1.9-0.7,4.7-1.2,7.7c0.7,0,1.5-0.1,2.3-0.1c0-1.4,0.1-2.7,0-4l5,0.8c-0.1,0.6-0.5,0.9-1.3,1
					c0,0.6-0.1,1.3-0.1,1.9l1.7-0.2L1263.6,87.1L1263.6,87.1z M1256.5,98.6c0.9-3.2,1.4-6.4,1.6-9.7c-0.8,0.2-1.8,0.5-2.7,0.7
					c-0.5,2.8-1.1,5.6-1.7,7.9C1254.7,97.9,1255.7,98.3,1256.5,98.6L1256.5,98.6z M1279.3,96.5c0,0,2.2,1.6,3.5,2.7
					c-0.1,0.4-0.5,0.6-0.9,0.6h-20l-0.3-1h6.6c-0.3-0.1-0.7-0.2-1-0.5c0-1.1-0.4-2.4-1-3.3c-0.4,0.1-0.9,0.2-1.3,0.2h-0.5V87
					l3.8,1.5h7l1.7-1.8l3.5,2.6c-0.1,0.2-0.6,0.5-1.1,0.6v4.1c0,0.2-1.9,0.9-3.1,0.9l2.3,0.7c-0.1,0.4-0.6,0.7-1.3,0.6
					c-0.8,0.8-1.9,1.8-3.2,2.6h3.4L1279.3,96.5L1279.3,96.5z M1277.6,83.2c0,0,2.1,1.7,3.4,2.8c-0.1,0.4-0.5,0.6-0.9,0.6h-16.8
					l-0.3-1h6.7v-2.9h-7.6l-0.3-1h7.9v-3.8l5.1,0.4c0,0.5-0.3,0.8-1.1,0.9v2.4h3.2l1.9-2.5c0,0,2.2,1.7,3.5,2.9
					c-0.1,0.4-0.4,0.6-0.9,0.6h-7.8v2.9h2.1L1277.6,83.2L1277.6,83.2z M1275.6,101.6l1.7-1.8l3.6,2.7c-0.2,0.2-0.6,0.5-1.3,0.6v6.2
					c0,0.2-1.9,0.9-3.2,0.9h-0.6v-1.5h-8.1v0.8c0,0.3-1.7,1.1-3.1,1.1h-0.5v-10.5l3.8,1.5L1275.6,101.6L1275.6,101.6z M1268,94.1
					c0,0.1-0.2,0.3-0.6,0.5c4.1,1.1,3.4,3.8,1.7,4.2h3.8c0.5-1.4,0.8-3.2,1-4.6l1.5,0.4v-0.9h-7.5L1268,94.1L1268,94.1z
					 M1275.9,107.7v-5h-8.1v5H1275.9z M1268,89.5v3.3h7.5v-3.3H1268z"/>
				<path class="st1" d="M1318.3,106.4c1,2.2,1.2,3.4,0.6,3.8c-1.7,1.3-4.4-0.4-5.6-2c-1-1.2-1.8-2.5-2.5-4c-2,2.2-4.4,4.1-7.2,5.6
					l-0.3-0.4c2.6-2.1,4.8-4.8,6.5-7.7c-1.4-3.5-2.1-7.6-2.4-12.1l-2.5,0.3l-0.4-0.9l2.8-0.4c-0.1-1.2-0.1-2.3-0.2-3.5
					c-0.2,0.1-0.6,0.2-1.2,0.2c-0.8,0.8-2.3,1.8-3.5,2.3l-0.3-0.2c-0.1,0.2-0.4,0.3-0.7,0.3l-4.5,0.6v0.7c0,0.4,0.1,0.5,0.8,0.5h1.8
					c0.7,0,1.4,0,1.7,0c0.2,0,0.5,0,0.7,0c0.2,0,0.5-0.1,0.7-0.1h0.3l0.1,0c0.8,0.3,1.1,0.5,1.1,1.1c0,0.7-0.3,1.1-1.4,1.3
					c0.5,0.3,1.9,1.4,2.8,2.3c-0.1,0.4-0.4,0.6-0.9,0.6h-12.9l-0.3-1h9.6l1.4-1.8c-0.8,0.1-1.8,0.2-3.3,0.2h-2.3
					c-2.4,0-2.8-0.6-2.8-2.4V89l-2.4,0.3l-0.4-0.9l2.8-0.3v-3l3.8,0.3c0,0.4-0.4,0.7-1,0.8v1.5l1.5-0.2l1.1-1.8c0,0,1.5,0.9,2.6,1.7
					c0.2-0.7,0.3-1.6,0.5-2.4h-11.3v6.1c0,5.5-0.1,13.8-4.9,19.3l-0.4-0.2c1.9-5.9,1.8-13.1,1.8-19v-8.7l4.1,1.5h2.4v-6.2l5,0.5
					c0,0.5-0.3,0.8-1.2,0.9v2.1h2.1l1.9-2.4c0,0,2.1,1.6,3.4,2.8c-0.1,0.4-0.4,0.6-0.9,0.6h-0.6l2.9,2.8c-0.1-2.3-0.1-4.8-0.1-7.2
					l5.2,0.6c0,0.5-0.3,0.9-1.3,1c-0.1,3-0.1,6,0.1,8.9l2.3-0.3l1.7-2.8c0,0,2.6,1.4,4.2,2.4c0,0.4-0.4,0.6-0.8,0.7l-7.2,1.1
					c0.2,2.8,0.6,5.5,1.2,7.8c1-2.3,1.7-4.7,2.2-7l4.8,1.6c-0.1,0.4-0.5,0.7-1.4,0.6c-1,2.8-2.4,5.7-4.3,8.5
					c0.6,1.4,1.4,2.6,2.4,3.7c0.4,0.6,0.6,0.6,1-0.1c0.5-0.9,1.3-2.7,1.9-4.2l0.3,0.1L1318.3,106.4L1318.3,106.4z M1305.7,105.5
					c-2.8,1.2-6.9,2.6-12.6,4.3c-0.2,0.4-0.5,0.7-0.9,0.8l-1.7-3.8c1.1-0.1,2.6-0.2,4.4-0.4c-0.2-0.1-0.5-0.3-0.8-0.5
					c0.1-1.1-0.2-2.3-0.6-3.2c-0.3,0-0.6,0.1-0.9,0.1h-0.6v-7.2l3.4,1.4h5.4l1.4-1.7l3,2.2c-0.2,0.3-0.5,0.5-1.3,0.6v3.5
					c0,0.1-1,0.7-2.6,0.7h-0.5v-0.9h-5.8v0.7c0,0.1-0.2,0.3-0.7,0.5c3.2,1.2,3.1,3,2,3.8l2.5-0.3c0.2-1.2,0.3-2.7,0.3-3.8l4.2,0.9
					c-0.1,0.4-0.5,0.7-1.3,0.7c-0.5,0.6-1.1,1.3-1.8,2c1.7-0.2,3.5-0.5,5.2-0.7L1305.7,105.5L1305.7,105.5z M1295.2,97.9v2.4h5.8
					v-2.4H1295.2z M1302.3,84l1.7-1.8h-5.9V84H1302.3L1302.3,84z M1312,79.5c8.5,1.3,5.3,7.6,2.1,5.2c-0.1-1.8-1.3-3.7-2.4-4.9
					L1312,79.5L1312,79.5z"/>
				<path class="st1" d="M616.8,146.5c2.2-1.2,3.3-2.8,3.8-4.8c-2-0.8-3.5-1.7-3.5-3.4c0-1.4,1.1-2.7,2.8-2.7s3,1.3,3,3.6
					c0,2.9-1.4,6.6-5.4,8.4L616.8,146.5L616.8,146.5z"/>
				<path class="st1" d="M648.8,149.6c-3.2,1.4-7.7,3.4-14.5,5.9c-0.2,0.4-0.5,0.7-0.9,0.8l-2.4-4.3c3.1-0.4,10.3-1.6,17.8-2.9
					L648.8,149.6L648.8,149.6z M662.7,154.5c1.3,1.8,1.5,2.7,1,3.4c-1.4,1.8-4,0.7-6-0.5c-2.2-1.3-3.8-3.1-5.2-5.2
					c-3.2,2.8-7.2,5.1-12.4,6.6l-0.2-0.4c4.8-2.2,8.5-5.4,11.3-8.9c-1.8-4.3-2.5-9.6-2.7-15.6h-17.2l-0.3-1h17.5
					c-0.1-2.2-0.1-4.4-0.1-6.8l5.5,0.6c0,0.5-0.3,0.9-1.3,1c0,1.8,0,3.5,0,5.2h4.8l1-1.3c-0.2,0-0.4-0.1-0.7-0.2
					c-0.5-1.5-2-3.2-3.2-4.1l0.2-0.3c5.5-0.3,6.7,2.2,5.9,3.7c1,0.7,2.3,1.8,3.4,2.7c-0.1,0.4-0.5,0.6-1,0.6h-10.4
					c0.1,4.3,0.5,8.2,1.4,11.4c1.5-2.8,2.6-5.7,3.3-8.6l5.4,1.8c-0.2,0.4-0.5,0.6-1.4,0.6c-1.3,3.5-3.1,7-5.6,10.1
					c1,1.8,2.3,3.2,4.1,4.2c0.6,0.4,0.9,0.4,1.2-0.2c0.6-0.9,1.5-2.9,2.1-4.4l0.4,0.1L662.7,154.5L662.7,154.5z M642.3,148.2v-1.9
					h-4.5v1.6c0,0.3-1.7,1.2-3.2,1.2h-0.5v-12.9l3.9,1.6h4l1.7-1.8l3.6,2.7c-0.2,0.2-0.6,0.5-1.2,0.6v7.8c0,0.3-1.9,1.1-3.2,1.1
					L642.3,148.2L642.3,148.2z M642.3,145.3v-6.5h-4.5v6.5H642.3z"/>
				<path class="st1" d="M686.3,154.6c0.7,0,1.4,0,2.1,0c2.7,0,9.1,0,11.9-0.1v0.4c-1.3,0.3-1.9,1.7-1.9,3.2h-10
					c-6.2,0-9.7-1.4-11.7-6.9c-1.8,3-4.7,5.7-9.3,7.5l-0.3-0.4c5-3.7,6.7-9.2,7.2-13.7l5.7,1.1c-0.1,0.5-0.5,0.8-1.3,0.8
					c-0.3,1.3-0.8,2.6-1.5,3.8c1.2,2,2.7,3,4.8,3.6v-10.9h-14.1l-0.3-1H694l2.2-3c0,0,2.5,2,4,3.4c-0.1,0.4-0.5,0.6-1,0.6h-12.9v4.8
					h4.2l2.3-3.1c0,0,2.7,2.1,4.3,3.6c-0.1,0.4-0.5,0.6-1,0.6h-9.9L686.3,154.6L686.3,154.6z M677.7,139.9c0,0.4-1.9,1.4-3.7,1.4
					h-0.6v-14.7l4.6,1.8h11.9l2-2.2l4.2,3.1c-0.2,0.3-0.7,0.6-1.4,0.8v9.6c0,0.2-2.2,1-3.6,1h-0.7v-1.8h-12.5L677.7,139.9
					L677.7,139.9z M677.7,129.4v3.7h12.5v-3.7H677.7z M690.2,137.9v-3.8h-12.5v3.8H690.2z"/>
				<path class="st1" d="M737,138c-1.7,0.5-2.6,1.9-3,3.8c-1.6-0.2-3.1-0.5-4.6-0.9l2.8,2.1c-0.1,0.2-0.5,0.4-1,0.5v5.9
					c0,0.3-2,1.2-3.4,1.2H727v-1.3h-13.5v3.9c0,0.8,0.3,1,2.6,1h7.4c2.5,0,4.8,0,5.8-0.1c0.8-0.1,1.3-0.2,1.6-0.6
					c0.5-0.6,1.2-1.6,2-3.6h0.4l0.1,3.6c1.6,0.4,2,0.9,2,1.7c0,2-1.9,2.6-12.3,2.6h-7c-5.1,0-6.8-0.5-6.8-3.9v-12.7
					c-1.8,0.2-3.6,0.4-5.5,0.5l-0.1-0.5c5.4-1.1,10.4-2.9,14.2-5.2c-1.6-1.2-2.9-2.7-4.1-4.3l0.4-0.4c1.4,1.4,3.3,2.5,5.6,3.4
					c2-1.4,3.6-3,4.8-4.7l4.5,3c-0.3,0.3-0.6,0.5-1.4,0.2c-1,1-2.2,2-3.5,2.8c4,1,8.5,1.4,12.7,1.5L737,138L737,138z M718.1,128.7
					c-0.2,0.4-0.6,0.5-1.3,0.4c-2.7,2.3-7.2,4.4-12,5.5l-0.2-0.5c3.7-2,7.3-5.4,9.1-8.2L718.1,128.7z M728.1,140.6
					c-2.6-0.7-5-1.5-7.2-2.7c-2.9,1.4-6.2,2.4-9.9,3.1l2.9,1.1h12.8L728.1,140.6z M713.4,148.2h4.7v-5.1h-4.7V148.2z M727,148.2
					v-5.1h-4.8v5.1H727z M722.9,126.7c15,0.8,12.4,9.4,8.4,7.5c-1.1-1.9-4.2-4.9-8.5-7.1C722.8,127.1,722.9,126.7,722.9,126.7z"/>
				<path class="st1" d="M755.8,147.8c1.5,3.8,1.1,6.6-0.1,7.9c-0.8,0.9-2.6,0.9-3.2-0.3c-0.2-0.4-0.2-0.8-0.2-1.1
					c-0.7,0.7-1.8,0.8-2.8,0.1c-0.4-0.8-0.9-1.6-1.5-2.4c-1.8,2.7-4.2,5-7.6,6.9l-0.4-0.3c2.8-2.4,4.8-5.4,6.2-8.7
					c-1.7-1.7-3.6-3.3-5.4-4.5c0.5-1.7,1-4.1,1.6-6.8l-0.7,0.2c-0.2,0.4-0.7,0.7-1,0.8l-0.9-4.2c0.8,0,2,0,3.3,0
					c0.7-3.7,1.2-7.2,1.4-9.3l5,0.8c-0.1,0.4-0.3,0.8-1.4,0.9c-0.3,1.9-0.8,4.5-1.4,7.5c0.8,0,1.6-0.1,2.5-0.1c0-1.3,0.1-2.6,0-3.9
					l5.4,0.9c-0.1,0.6-0.5,0.9-1.4,0.9c0,0.6-0.1,1.1-0.1,1.7l1.4-0.1l0,0.5l-1.5,0.5c-0.4,4.6-1.2,9.2-3.1,13.2
					c2.4,1.7,3.1,3.3,3,4.4c0.2-0.2,0.4-0.4,0.7-0.6c0.9-0.8,2-3,1.8-4.9L755.8,147.8L755.8,147.8z M747.3,147.2
					c1-3.3,1.6-6.8,1.8-10.4c-0.9,0.3-1.8,0.6-2.9,0.8c-0.6,2.9-1.3,5.8-1.9,8.1C745.4,146.2,746.4,146.7,747.3,147.2L747.3,147.2z
					 M773.2,145.2c-0.2,0.3-0.6,0.5-1.4,0.6c-0.3,7-0.9,10.5-2.5,11.7c-1,0.8-2.3,1.2-4,1.2c0-1-0.1-1.9-0.6-2.3
					c-0.5-0.5-1.7-0.9-3.1-1.2l0-0.5c1.3,0.1,3.5,0.2,4.2,0.2c0.6,0,0.8,0,1.1-0.3c0.7-0.7,1.2-3.8,1.4-9.4h-9.9v0.6
					c0,0.2-1.2,1.1-3,1.1h-0.7v-20l4.2,1.6h7.8l2-2.4c0,0,2.2,1.7,3.6,2.9c-0.1,0.4-0.5,0.6-1,0.6h-6.1v4.3h0.9l1.8-2.4
					c0,0,2.1,1.6,3.3,2.8c-0.1,0.4-0.4,0.6-0.9,0.6h-5.1v4.2h0.9l1.8-2.4c0,0,2.1,1.6,3.3,2.8c-0.1,0.4-0.4,0.6-0.9,0.6h-5.1v4.2
					h2.7l1.9-1.9L773.2,145.2L773.2,145.2z M757.9,147.8c5.2,4.3,1.8,8.9-0.2,6.3c0.4-2,0.2-4.5-0.2-6.2L757.9,147.8L757.9,147.8z
					 M758.5,129.5v4.3h3.3v-4.3H758.5z M761.8,134.9h-3.3v4.2h3.3V134.9z M758.5,144.2h3.3V140h-3.3V144.2z M761,147.1
					c6,3.1,2.8,7.8,0.6,5.4c0.2-1.8-0.4-3.9-1.1-5.2L761,147.1L761,147.1z M764.1,146c6.2,2.1,3.5,6.8,1.2,4.8
					c0.1-1.6-0.7-3.5-1.6-4.6L764.1,146L764.1,146z"/>
				<path class="st1" d="M804.9,152.8c0,0,2.8,2.2,4.6,3.7c-0.1,0.4-0.5,0.6-1,0.6h-31.6l-0.3-1h13v-29.5l5.8,0.6
					c-0.1,0.5-0.3,0.8-1.3,1v11.7h5.7l2.5-3.2c0,0,2.8,2.1,4.5,3.6c-0.1,0.4-0.5,0.6-1,0.6h-11.8V156h8.2L804.9,152.8L804.9,152.8z"
					/>
				<path class="st1" d="M841.4,126.2c0,0,2.9,2.2,4.7,3.8c-0.1,0.4-0.5,0.6-1,0.6h-14.2v6.4c16.2,2.9,14.4,12.8,9.3,10.4
					c-2-3.3-6-7.1-9.3-9.6v19.9c0,0.3-1.4,1.3-3.6,1.3h-0.8v-28.4h-13.2l-0.3-1h25.8L841.4,126.2L841.4,126.2z"/>
				<path class="st1" d="M879.8,147.3c0,0,1.8,1.4,3,2.5c-0.1,0.4-0.5,0.6-0.9,0.6h-4.7c-0.4,1.3-1,2.4-2.1,3.5
					c9.7,2.1,5.1,6.3,1.6,4.8c-1.3-0.8-3-1.8-5.2-2.6c-2.6,1.1-6.4,2.1-12.2,2.8l-0.2-0.6c4.4-1,7.5-2.1,9.6-3.2
					c-2-0.7-4.3-1.2-6.7-1.7l0.1,0c0.5-0.7,1.2-1.8,1.8-2.9h-4.2l-0.3-1h5c0.6-1.2,1.2-2.3,1.5-3.1h-1.2v0.9c0,0.3-1.7,1.1-3.1,1.1
					h-0.5v-8.4l0.9,0.3v-5h-1.3l0,0c-0.1,0.4-0.4,0.6-0.9,0.6h-3.2v2.2c6.2,3.1,3.3,7.8,1,5.6c0.1-1.4-0.4-3.2-1-4.6v18.6
					c0,0.4-1.5,1.3-2.8,1.3h-0.7v-13.8c-1,2-2.3,3.9-3.7,5.6l-0.5-0.4c2-4,3.2-9.4,3.8-14.5h-3.3l-0.3-1h3.9V126l4.8,0.5
					c-0.1,0.5-0.3,0.8-1.3,1v7.3h0l1.4-2.2c0,0,1.2,1.1,2.1,2l-0.1-0.5h2v-5l3.8,1.5h2.8v-4.5l5.1,0.5c-0.1,0.5-0.4,0.8-1.3,1v3h2.6
					l1.6-1.6l3.4,2.4c-0.2,0.2-0.6,0.4-1,0.5v1.9l1.2-1.6c0,0,1.5,1.4,2.4,2.4c-0.1,0.4-0.4,0.6-0.8,0.6h-2.7v3.6
					c0,0.3-1.8,1.1-3,1.1h-0.6v-1.2h-2.9v2.7h4l1.7-1.7l3.5,2.6c-0.2,0.2-0.6,0.5-1.1,0.6v3.5c0,0.3-1.8,1-3,1h-0.6v-1h-8.7l3.2,0.7
					c-0.1,0.4-0.4,0.7-1.6,0.8c-0.3,0.5-0.6,1.1-1,1.7h4.5c0.2-0.7,0.2-1.4,0.3-2.2l5.2,0.4c-0.1,0.4-0.5,0.8-1.2,0.9
					c-0.1,0.3-0.1,0.6-0.2,0.8h0.7L879.8,147.3L879.8,147.3z M862.5,140.3l2.6,1h3.6v-2.7h-2.9v0.6c0,0.3-1.6,1.1-3.1,1.1H862.5
					L862.5,140.3z M864.9,145.2h3.8v-2.9h-3.8V145.2z M865.8,134.1h2.9v-2.5h-2.9V134.1z M865.8,135.1v2.5h2.9v-2.5H865.8z
					 M868.2,150.3c-0.5,0.8-1,1.7-1.5,2.4c1.7,0.1,3.3,0.2,4.6,0.4c0.9-0.9,1.5-1.8,1.8-2.8H868.2z M872.6,131.6v2.5h2.9v-2.5H872.6
					z M875.5,135.1h-2.9v2.5h2.9V135.1z M872.6,142.3v2.9h4.3v-2.9H872.6z"/>
				<path class="st1" d="M894.2,137.5c6.7,2.9,3.8,7.8,1.4,5.5c0-1.4-0.7-3.2-1.4-4.6v19.2c0,0.4-1.6,1.3-3,1.3h-0.7v-14.2
					c-1.3,2.2-2.8,4.3-4.7,6.1l-0.5-0.4c2.4-4,3.9-9.4,4.7-14.7h-4l-0.3-1h4.7v-8.8l5,0.5c-0.1,0.5-0.4,0.8-1.3,1v7.3h0.4l1.7-2.6
					c0,0,2,1.8,3.1,3c-0.1,0.4-0.5,0.6-1,0.6h-4.2L894.2,137.5L894.2,137.5z M919.1,145.1c-0.2,0.3-0.7,0.4-1.3,0.6
					c-0.1,5.6-0.4,7.6-1.7,8.5c-0.8,0.7-2,0.9-3.5,0.9c0-1.1-0.1-1.9-0.5-2.4c-0.3-0.5-0.9-0.8-1.8-1.1v-0.5c0.7,0,1.9,0.1,2.4,0.1
					c0.4,0,0.7-0.1,0.8-0.2c0.4-0.4,0.5-2.2,0.6-6.1h-4.4v12.5c0,0.2-1.2,1-3.1,1h-0.7v-8.8c-2.4,2.9-5.6,5.2-9.5,7.1l-0.3-0.5
					c3.8-2.9,6.7-7.1,8.2-11.4h-2l-1.3,1.6l-3.5-2.1c0.3-0.2,0.8-0.6,1.2-0.8c0.5-2.1,1-5.4,1.1-7.2l4.2,2h1.9v-5h-7.1l-0.3-1h10.4
					c0.6-2,1.4-4.7,1.8-6.6l5.2,1.7c-0.1,0.4-0.6,0.7-1.3,0.6c-1.3,1.2-3.2,2.8-4.9,4.2h2.9l1.8-1.9l3.7,2.8
					c-0.2,0.3-0.7,0.6-1.3,0.7v5.9c0,0.2-1.9,0.9-3.1,0.9H913v-1.3h-3.3v4.6h4l1.9-1.8L919.1,145.1L919.1,145.1z M901,126.2
					c8.7,1.9,5.2,8.4,1.9,5.7c-0.1-1.9-1.2-4.1-2.2-5.5L901,126.2L901,126.2z M905.9,144.2v-4.6h-2.8c-0.2,1.4-0.6,3.1-0.9,4.6
					H905.9z M909.7,138.6h3.3v-5h-3.3V138.6z"/>
				<path class="st1" d="M953.7,144.4c0,0.4-0.3,0.7-1.2,0.9v12.4c0,0.3-1.8,1-3.3,1h-0.7v-2.9h-19.6l-1.3,2l-4.1-2.4
					c0.3-0.3,0.7-0.7,1.1-1v-10.5l5.3,0.5c-0.1,0.4-0.4,0.7-1.3,0.8v9.5h7.7v-13.9h-5.8l-1.2,2l-4-2.4c0.2-0.3,0.7-0.7,1.1-1.1v-9.8
					l5.2,0.5c-0.1,0.4-0.4,0.7-1.3,0.8v8.9h6v-13.4l5.4,0.5c-0.1,0.5-0.3,0.9-1.3,1v11.9h6.3v-10.2l5.2,0.4c0,0.5-0.3,0.8-1.2,0.9
					v10.9c0,0.3-1.8,0.9-3.3,0.9h-0.7v-2h-6.3v13.9h8v-10.8L953.7,144.4L953.7,144.4z"/>
				<path class="st1" d="M989.9,130.6c-0.3,0.3-0.7,0.4-1.5,0.5c-2.8,1.9-6.7,4.1-10.3,5.8l0.3,0c-0.1,0.5-0.4,0.8-1.2,0.9v15.9
					c0,3-0.8,4.6-6.2,5.1c-0.2-1.4-0.4-2.3-1.2-3c-0.8-0.7-1.9-1.2-4.3-1.5v-0.5c0,0,5.5,0.4,6.5,0.4c0.7,0,0.9-0.2,0.9-0.8v-17.1
					l3.6,0.3c2.3-1.9,4.8-4.4,6.5-6.3h-21.6l-0.3-1h22.3l2.5-2.3L989.9,130.6L989.9,130.6z"/>
				<path class="st1" d="M1000.5,149.2c1.4,4.1-0.1,7-1.9,7.8c-1.2,0.6-2.8,0.3-3.2-0.9c-0.3-1.2,0.4-2.1,1.4-2.6
					c1.4-0.6,3-2.2,3.1-4.3H1000.5z M1023.6,132.8c0,0,2.5,1.9,4,3.1c-0.1,0.4-0.5,0.6-1,0.6h-30.8l-0.3-1h10.8
					c-0.3-0.1-0.7-0.2-1-0.5c-0.1-1.4-0.9-3.1-1.7-4l0.3-0.2c6.3,0.5,5.7,4.1,3.6,4.7h6.4c0.5-1.4,0.9-3.3,1.3-4.7h-17.1l-0.3-1
					h12.5c-0.5-1.4-1.8-2.9-3-3.7l0.2-0.2c6.1-0.6,6.9,2.6,5.5,3.9h6.2l2.2-2.7c0,0,2.4,1.8,4,3.1c-0.1,0.4-0.5,0.6-1,0.6h-8
					l4.1,1.2c-0.1,0.4-0.6,0.7-1.3,0.7c-1,0.8-2.6,2-4.1,2.9h6.4L1023.6,132.8L1023.6,132.8z M1004.8,148.1c0,0.4-1.8,1.2-3.4,1.2
					h-0.6v-12.2l4.2,1.6h12.6l1.9-2.1l4,3c-0.2,0.3-0.7,0.6-1.4,0.8v7.4c0,0.3-2,1.1-3.4,1.1h-0.7v-1.3h-13.2L1004.8,148.1
					L1004.8,148.1z M1019.5,154.3c1.1,0.4,1.4,0.8,1.4,1.5c0,1.6-1.6,2.2-8.4,2.2h-4.5c-3.8,0-4.6-0.6-4.6-3.1v-5.7l4.9,0.4
					c-0.1,0.4-0.4,0.7-1.1,0.8v3.7c0,0.5,0.1,0.6,1.5,0.6h4.3c1.6,0,3,0,3.5,0c0.6,0,0.8-0.1,1-0.5c0.4-0.5,0.9-1.8,1.5-3.6h0.4
					L1019.5,154.3L1019.5,154.3z M1004.8,139.7v3h13.2v-3H1004.8z M1018,146.6v-3h-13.2v3H1018z M1009.6,148.2c8.4,1,5.6,7.3,2.3,5
					c-0.2-1.7-1.5-3.6-2.7-4.8L1009.6,148.2L1009.6,148.2z M1020.6,149.2c9.7,2.2,6.6,9.5,3,6.8c-0.2-2.3-1.8-4.9-3.4-6.6
					L1020.6,149.2z"/>
				<path class="st1" d="M1047.1,130.1l3.8,3.5c-0.2,0.4-0.6,0.5-1.5,0.6c-1.5,10.5-5,20-17.9,24.7l-0.3-0.4
					c5.6-3.3,9-7.9,11.2-13.3c-0.8,0.4-1.8,0.4-2.8-0.5c-0.2-1.8-1.1-3.7-2.1-5.2c-1.6,2.4-3.5,4.5-5.7,6.1l-0.4-0.3
					c3.1-4.7,5.6-11.8,6.5-19.2l5.7,1.3c-0.1,0.5-0.5,0.8-1.4,0.8c-0.4,1.5-0.8,2.9-1.3,4.3h4L1047.1,130.1L1047.1,130.1z
					 M1040.6,133.4c-0.7,1.8-1.5,3.5-2.4,5c3.3,0.9,4.9,2.4,5.3,3.8c0.9-2.8,1.4-5.7,1.8-8.8H1040.6z M1056.2,137.2
					c11.9,3,9,11.3,4.7,8.5c-0.8-2.5-2.8-5.3-4.7-7.4v19.4c0,0.4-1.8,1.2-3.4,1.2h-0.8v-32.7l5.5,0.5c-0.1,0.5-0.3,0.8-1.3,1V137.2
					L1056.2,137.2z"/>
				<path class="st1" d="M1072.5,146.5c2.2-1.2,3.3-2.8,3.8-4.8c-2-0.8-3.5-1.7-3.5-3.4c0-1.4,1.1-2.7,2.8-2.7s3,1.3,3,3.6
					c0,2.9-1.4,6.6-5.4,8.4L1072.5,146.5L1072.5,146.5z"/>
				<path class="st1" d="M1101.8,126.8l3.8,3.4c-0.3,0.3-0.8,0.6-1.6,0.7c-0.2,18.1-0.4,23.7-2.4,26c-1.2,1.4-2.8,2-4.7,2
					c0-1.4-0.1-2.3-0.5-2.9c-0.5-0.7-1.4-1.1-2.7-1.4l0-0.5c1.1,0.1,2.7,0.2,3.4,0.2c0.6,0,0.9-0.1,1.2-0.5c0.7-0.7,1.1-3.2,1.4-7.9
					h-4.2c-1.2,5.2-3.6,9.6-8.7,13.2l-0.5-0.5c3.2-3.8,4.8-8,5.5-12.7h-4.3l-0.3-1h4.7c0.3-2.2,0.4-4.5,0.5-6.9h-4.7l-0.3-1h5
					c0-2.2,0-4.4,0-6.8h-4.8l-0.3-1h12.2L1101.8,126.8L1101.8,126.8z M1099.7,144.8c0.1-1.9,0.2-4.2,0.2-6.9h-3.5
					c-0.1,2.4-0.3,4.7-0.8,6.9H1099.7L1099.7,144.8z M1096.6,130.2c0,2.4-0.1,4.6-0.1,6.8h3.4c0-2.1,0.1-4.3,0.1-6.8H1096.6z
					 M1120.3,130.9c-0.3,0.4-0.7,0.5-1.6,0.5c-1.3,2.3-3.6,6.2-5.5,8.5c4.2,2.5,6,6.1,6,9.1c0,3.5-1.5,5.7-5.7,5.8
					c0-1.2-0.2-2.9-0.5-3.4c-0.2-0.4-0.9-0.7-1.8-0.9V150h2.5c0.3,0,0.5,0,0.8-0.2c0.6-0.3,0.8-0.9,0.8-2.1c0-2.5-0.8-5.4-3-7.8
					c0.7-2.4,1.6-6.8,2.1-9.8h-3.8v27.5c0,0.3-1.2,1.3-3.2,1.3h-0.7v-31.8l4.4,2.1h3l2.2-2.1L1120.3,130.9L1120.3,130.9z"/>
				<path class="st1" d="M1151.6,125.9c0,0,2.8,2.1,4.4,3.6c-0.1,0.4-0.5,0.6-1,0.6h-4.3v23.6c0,2.8-0.8,4.9-6.2,5.2
					c-0.1-1.3-0.4-2.4-1.2-3c-0.8-0.6-1.9-1.1-4.5-1.5V154c0,0,5.7,0.4,6.8,0.4c0.7,0,0.9-0.3,0.9-0.8V130h-23.2l-0.3-1h26.1
					L1151.6,125.9L1151.6,125.9z M1141,149.2c0,0.3-2,1-3.3,1h-0.7v-2.9h-6v3c0,0.4-1.7,1.3-3.3,1.3h-0.6v-17.4l4.1,1.7h5.5l1.8-2
					l3.9,2.9c-0.2,0.3-0.7,0.6-1.4,0.7L1141,149.2L1141,149.2z M1137,146.4v-9.4h-6v9.4H1137z"/>
				<path class="st1" d="M1188.2,147.3c0,0,2.6,2.1,4.2,3.6c-0.1,0.4-0.5,0.6-1,0.6h-31.3l-0.3-1h5.9v-17.6l4.4,1.7h3.4
					c0-0.9,0.1-2,0.2-3.3h-12.5l-0.3-1h12.8c0.1-1.5,0.1-3.1,0.1-4.4l5.5,0.5c-0.1,0.6-0.5,0.9-1.3,1.1c-0.1,0.8-0.2,1.8-0.4,2.8
					h6.6l2.3-2.9c0,0,2.6,2,4.2,3.3c-0.1,0.4-0.5,0.6-1,0.6h-12.2l-0.5,3.3h4.3l1.9-2.3l4.4,3c-0.2,0.4-0.7,0.6-1.6,0.7v14.1
					L1188.2,147.3L1188.2,147.3z M1159.9,158.6c3.9-1.7,8.3-4.7,10.3-6.9l4.7,3.1c-0.3,0.4-1,0.5-2.1,0.3c-3,1.7-7.9,3.3-12.7,4
					L1159.9,158.6L1159.9,158.6z M1169.9,135.5v3.1h12v-3.1H1169.9z M1181.9,139.6h-12v2.9h12V139.6z M1169.9,143.5v2.9h12v-2.9
					H1169.9z M1169.9,150.5h12v-3.1h-12V150.5z M1179,152.5c18.6,0.9,11.8,8.4,8.3,5.5c-1.4-1.6-4.2-3.6-8.4-5L1179,152.5
					L1179,152.5z"/>
				<path class="st1" d="M1224.7,143.3c0,0,2.5,1.9,4.1,3.2c-0.1,0.4-0.5,0.6-1,0.6h-7.5c-0.6,2-1.4,3.9-3.1,5.4
					c14.1,2.7,9.6,7.6,6,6.1c-2.2-1.3-5.3-2.7-9.2-3.9c-3.4,1.7-8.4,3.1-16.3,4.2l-0.2-0.6c6.1-1.5,10.2-3,13-4.7
					c-2.6-0.7-5.3-1.3-8.3-1.9c0.9-1.1,2.1-2.8,3.2-4.7h-9.2l-0.3-1h10.2c1-1.7,2-3.3,2.5-4.4h-4.8v0.4c0,0.4-1.8,1.2-3.4,1.2h-0.6
					V132l4.3,1.7h2.7v-4.2h-9.9l-0.3-1h25.4l2.3-2.9c0,0,2.6,2,4.2,3.3c-0.1,0.4-0.5,0.6-1,0.6h-9.5v4.2h2.7l1.9-2l4,3
					c-0.2,0.3-0.7,0.6-1.4,0.7v6.6c0,0.2-2.1,0.9-3.4,0.9h-0.7v-1.3h-10.9l3.9,1.4c-0.1,0.4-0.5,0.7-1.6,0.6
					c-0.4,0.7-0.9,1.5-1.5,2.4h5.4c0.2-0.9,0.3-1.8,0.3-2.8l5.5,0.5c-0.1,0.5-0.5,0.8-1.3,0.9c-0.1,0.5-0.2,0.9-0.2,1.4h1.9
					L1224.7,143.3L1224.7,143.3z M1203.8,140.6h3v-5.9h-3V140.6z M1210.2,147.1c-0.9,1.5-2,3-2.9,4.3c2.1,0.1,4.1,0.3,5.8,0.5
					c1.6-1.4,2.5-3,3-4.8L1210.2,147.1L1210.2,147.1z M1210.7,133.7h3.3v-4.2h-3.3V133.7z M1214,140.6v-5.9h-3.3v5.9H1214z
					 M1218,134.7v5.9h3.1v-5.9H1218z"/>
				<path class="st1" d="M1252.2,127.3c-0.1,0.5-0.6,0.7-1.7,0.8c3.2,3.7,9.7,5.9,15,6.9v0.6c-1.8,0.5-2.9,2.4-3.2,3.9
					c-5.5-2.2-10.2-6-12.4-11c-3.3,4.8-10.6,9.8-17.8,12l-0.2-0.4c6.2-3.3,12.6-9.8,14-14.3L1252.2,127.3L1252.2,127.3z
					 M1244.8,139.9l3.6,2.7c-0.2,0.2-0.6,0.5-1.2,0.6v10.7c0,0.3-1.9,1-3.1,1h-0.6V152h-4v3c0,0.4-1.6,1.2-3.1,1.2h-0.6v-16l3.8,1.6
					h3.5L1244.8,139.9L1244.8,139.9z M1243.5,151v-8.3h-4v8.3H1243.5z M1252,134.3c0,0,2.4,1.8,3.9,3c-0.1,0.4-0.5,0.6-1,0.6h-13.7
					l-0.3-1h8.9L1252,134.3L1252,134.3z M1259.2,139.6l3.8,2.9c-0.2,0.2-0.6,0.5-1.3,0.6v8c0,2.6-0.5,4-4.6,4.3
					c0-1.2-0.2-2.1-0.5-2.7c-0.3-0.5-0.9-0.9-2.1-1.2v-0.5c0,0,2.1,0.1,2.7,0.1c0.5,0,0.6-0.2,0.6-0.6v-8.2h-4.5v14.8
					c0,0.4-1.6,1.3-3.2,1.3h-0.6V140l4,1.6h4L1259.2,139.6L1259.2,139.6z"/>
				<path class="st1" d="M1271.4,142.5c0-2.7,2.2-4.9,5-4.9s4.9,2.2,4.9,4.9s-2.2,5-4.9,5S1271.4,145.2,1271.4,142.5z M1272.7,142.5
					c0,2,1.7,3.7,3.7,3.7s3.7-1.7,3.7-3.7s-1.6-3.7-3.7-3.7S1272.7,140.4,1272.7,142.5z"/>
			</g>
		</g>
	</g>
</g>
</svg>
