<?xml version="1.0" encoding="utf-8"?>
<!-- Generator: Adobe Illustrator 27.0.0, SVG Export Plug-In . SVG Version: 6.00 Build 0)  -->
<svg version="1.1" id="圖層_1" xmlns="http://www.w3.org/2000/svg" xmlns:xlink="http://www.w3.org/1999/xlink" x="0px" y="0px"
	 viewBox="0 0 767.5 161.8" style="enable-background:new 0 0 767.5 161.8;" xml:space="preserve">
<style type="text/css">
	.st0{fill:#FFF100;}
	.st1{fill:#E60012;}
</style>
<g>
	<g id="_圖層_2">
		<g id="_圖層_1-2">
			<g>
				<g>
					<path class="st0" d="M44.4,16.9l9.3,0.9c-0.1,0.9-0.6,1.5-2.2,1.7v28.3c-0.1,12.7-4.8,21.1-18.1,26.1L33,73.3
						c8.1-5.9,11.2-13.2,11.5-24c-1.2,1.9-2.5,4-4.2,6.4c0,0.8-0.5,1.7-1.2,2.1L34.4,50c1.8-0.8,5.8-2.8,10-5.1v-5.5
						c-1.2,1.3-3.3,1.5-5.1-0.4c0-2-0.3-4.1-0.8-6.2c-0.3,0.4-0.8,0.5-1.4,0.5h-6v3.1c13.8,5,6.8,15.4,1.6,10.3
						c0.2-2.8-0.5-6-1.6-8.5v33.1c0,0.7-3.3,2.5-6.3,2.5h-1.5V51.1c-2.1,3.1-4.6,6-7.4,8.6l-0.7-0.6c3.9-7,6.2-16.6,7.4-25.6h-5.9
						l-0.5-1.7h7.1V16.4l10,1c-0.1,0.9-0.6,1.5-2.2,1.8v11.6l2.3-3.6c0,0,3,2.8,4.9,4.9c-0.5-1.8-1.2-3.5-1.8-5l0.7-0.3
						c3.8,1.8,6,3.9,7.3,5.9L44.4,16.9L44.4,16.9z M70.9,64.7c1.8,1,2.4,1.8,2.4,3.1c0,2.9-2.5,4.3-9.4,4.3h-3.4
						c-5.1,0-6.3-1.6-6.3-6.3V17l9.5,1c-0.1,0.8-0.6,1.5-2.1,1.7v13.9c1.3-3.3,2.5-6.6,3.1-8.6l8.2,5.9c-0.3,0.5-1.2,0.9-2.4,0.5
						c-1.9,1.7-5.4,4.7-8.9,7.1v2.7c15.4,6,8.6,18.3,2.2,12.7c-0.2-3-1.2-6.1-2.2-9v18.7c0,1,0.2,1.4,1.3,1.4h1.8
						c0.7,0,1.3,0,1.8-0.1c0.4,0,0.9-0.1,1.3-0.6c0.7-0.8,1.6-3.9,2.3-6.5h0.7L70.9,64.7L70.9,64.7z"/>
					<path class="st0" d="M132.7,23.1c-0.4,0.5-1.1,1-2.4,1.3v46.4c-0.1,0.6-4.1,2.7-7.4,2.7h-1.4v-5H87.2v2.1
						c0,1.1-3.4,3.2-7.1,3.2h-1.4V17.7l9.3,3.7h33l4.1-4.5L132.7,23.1L132.7,23.1z M87.2,66.9h9.4l-3.3-5.3c2-1.3,2.3-1.8,2.3-2.8
						v-1.9c-2.4,1-5,1.9-7.7,2.5l-0.5-0.9c4.5-2.1,8.3-5.2,10.9-8.5h-0.5c-0.7,0.7-3.4,1.8-5.8,1.8h-1V38.1l7.3,2.8h12.4l3-3.1
						l6.2,4.5c-0.2,0.4-0.8,0.7-1.6,0.9v6.2c0,0.2-0.5,0.4-1.1,0.7l4.3,3.8V37c-0.3,0.2-0.6,0.2-1,0.2H87.9l-0.5-1.7h13.2v-4.3H90.4
						l-0.5-1.7h10.6v-5.4l9.4,0.8c-0.1,0.7-0.4,1.1-1.7,1.4v3.2h2.7l3.3-3.9c0,0,3.7,2.7,6,4.7c-0.1,0.7-0.7,1-1.6,1h-10.4v4.3h4.2
						l3.4-4.2c0,0,3.3,2.4,5.7,4.4V23.1H87.2V66.9L87.2,66.9z M121.5,66.9V54c-0.3,0.4-0.9,0.5-2,0.1c-1.1,0.4-2.7,0.8-4.4,1.3
						c9.7,5,5.8,12,1.3,9.4c-1.5-2.8-5.9-7.9-11.8-11.8l0.4-0.8c2.7,0.5,5.1,1.2,7,1.9c1-1,1.9-2.2,2.7-3.3
						c-0.8,0.2-1.6,0.3-2.3,0.3h-1.3v-1.2h-4.7c-1.2,1.3-2.5,2.4-4.1,3.5v5.9c2.1-0.5,4.3-1.2,6.7-1.9l0.2,0.7
						c-2.1,1.6-6.7,5-11.4,8.2c-0.2,0.2-0.4,0.4-0.6,0.6L121.5,66.9L121.5,66.9z M111.1,42.6H98v5.7h13.2V42.6z"/>
					<path class="st0" d="M185.6,20.8c0,0,5.4,4.1,8.6,6.8c-0.2,0.7-0.9,1-1.8,1h-22.7v8h7.3l3.8-4.3l8.1,6.1
						c-0.4,0.5-1.1,1-2.4,1.3v17.2c0,5.4-1.2,8.5-10.3,9.3c-0.1-2.8-0.4-4.7-1.1-6c-0.8-1.2-1.7-2.2-4.4-2.7v-0.7
						c0,0,4.5,0.2,5.9,0.2c0.9,0,1.1-0.4,1.1-1V38.2h-7.9v33.5c-0.1,0.6-2.8,2.4-7.5,2.4h-1.8V38.2h-8v24.4c0,0.9-3.8,2.8-7.5,2.8
						h-1.3V33l9.3,3.6h7.5v-8h-23.5l-0.5-1.7h44.3L185.6,20.8L185.6,20.8z M157.8,16.4c19.9-1.3,12.8,14.4,4.3,9.2
						c-0.7-3.4-2.8-6.8-4.7-8.9L157.8,16.4L157.8,16.4z"/>
					<path class="st0" d="M245.7,61.7c0,0,5.7,4.2,9.1,7.1c-0.2,0.7-0.9,1-1.8,1h-55.7l-0.5-1.7h30.6c2.8-10,5.7-23.8,7.1-33.1
						l12.4,3.1c-0.2,0.8-0.9,1.5-2.5,1.5c-3.2,7.6-9,19.5-15.1,28.6h11.4L245.7,61.7L245.7,61.7z M199.6,32.1l-0.5-1.7h40l4.8-6.2
						c0,0,5.5,4.1,8.8,6.9c-0.2,0.7-0.9,1-1.8,1H199.6L199.6,32.1z M207.8,35.6c21.6,15.6,14.9,36.5,5.6,27.6
						c-0.3-9-3.3-18.8-6.3-27.3C207.1,35.8,207.8,35.6,207.8,35.6z M218.4,16.5c20.5,2.1,12.9,17.9,4.7,11.9
						c-0.6-4.2-2.8-8.5-5.1-11.6L218.4,16.5z"/>
					<path class="st0" d="M257.4,33.8c4.3-2.1,6.5-5.6,6.6-7.4c-2.6-0.7-6.3-2.3-6.3-6.4c0-2.8,2.2-4.8,5.2-4.8s5.3,2.1,5.3,6.2
						c0,5.4-2.6,11.4-9.7,14.4L257.4,33.8L257.4,33.8z M271.6,33.8c4.3-2.1,6.5-5.6,6.6-7.4c-2.7-0.7-6.3-2.3-6.3-6.4
						c0-2.8,2.2-4.8,5.1-4.8s5.4,2.1,5.4,6.2c0,5.4-2.6,11.4-9.7,14.4L271.6,33.8L271.6,33.8z"/>
					<path class="st1" d="M310.4,25.2c-0.4,0.5-1.2,1-2.5,1.3v31.8c-0.1,0.6-3.5,2.4-6.2,2.4h-1.2v-5.1H297v6.3
						c0,0.8-2.8,2.6-6.1,2.6h-1.1V20.4l7.5,3.1h2.6l3.5-3.9L310.4,25.2L310.4,25.2z M300.4,53.9V25.2H297v28.7H300.4z M338.8,61.4
						c0,0,4.7,3.8,7.4,6.4c-0.2,0.7-0.9,1-1.7,1h-24.7v2.8c0,0.5-2.4,2.3-6.5,2.3h-1.5V41.5c-1,1.2-2.1,2.4-3.1,3.4l-0.5-0.4
						c3.3-8.3,5.1-20.4,5.6-28l10.7,2.8c-0.4-1-0.8-2-1.2-2.8l0.5-0.2c17.7,3.9,8.4,17.1,1.6,10.5c0.2-2.3-0.1-4.7-0.7-6.8
						c-0.3,0.4-0.9,0.8-2,0.9c-0.8,2.5-1.8,5.3-3.1,8l1.2,0.5h13.6l3.9-5.4c0,0,4.5,3.7,7.1,6.2c-0.2,0.7-0.9,1-1.7,1h-10.8v10.6
						h0.6l3.7-5.3c0,0,4.2,3.6,6.5,6c-0.1,0.7-0.8,1-1.6,1h-9.2v10.9h0.6l3.7-5.3c0,0,4.2,3.6,6.5,6c-0.1,0.7-0.8,1-1.6,1h-9.2v11.2
						h1.8L338.8,61.4L338.8,61.4z M319.8,31v10.6h5.3V31C325.1,31,319.8,31,319.8,31z M325.1,43.3h-5.3v10.9h5.3V43.3z M319.8,67.1
						h5.3V55.9h-5.3V67.1z"/>
					<path class="st1" d="M359.4,32c-0.5,3-2.4,4-4.5,4c-1.5,0-2.7-0.7-3.4-1.8c0.2-7.3,6.5-10.3,13.9-10.3
						c9.6,0,14.1,4.4,14.1,10.7c0,5.1-3.1,9.2-11.4,10.8c9.4,1.4,12.8,5.6,12.8,11.5c0,7.3-6.3,12.4-16.6,12.4
						c-9.2,0-14-4-14.6-10.8c0.6-1.9,2.2-2.7,3.8-2.7c2.4,0,3.9,1.2,4.5,5.2l1,5.9c0.7,0.2,1.4,0.2,2.2,0.2c6.3,0,9.7-3.4,9.7-10.2
						s-3.3-10.1-9.5-10.1h-2.4v-2.4h2.1c5.4,0,8.9-3,8.9-9.7c0-5.9-2.7-8.9-7.3-8.9c-0.6,0-1.3,0.1-2,0.2
						C360.5,26,359.4,32,359.4,32z"/>
					<path class="st0" d="M384.9,33.8c4.3-2.1,6.5-5.6,6.6-7.4c-2.6-0.7-6.3-2.3-6.3-6.4c0-2.8,2.2-4.8,5.2-4.8s5.3,2.1,5.3,6.2
						c0,5.4-2.6,11.4-9.7,14.4L384.9,33.8L384.9,33.8z M399.1,33.8c4.3-2.1,6.5-5.6,6.6-7.4c-2.7-0.7-6.3-2.3-6.3-6.4
						c0-2.8,2.2-4.8,5.1-4.8s5.4,2.1,5.4,6.2c0,5.4-2.6,11.4-9.7,14.4L399.1,33.8L399.1,33.8z"/>
					<path class="st0" d="M465,54.9c-0.4,0.7-1.1,0.8-2.8,1c-2.6,2.9-5.7,5.4-9.1,7.6c6.4,1,13.1,1.4,19.6,1.4v0.8
						c-3.7,1.2-5.7,4.1-6.5,8.3c-8.3-1.1-15.9-2.8-22.2-5.9c-8.2,3.3-17.9,5.2-28.3,5.8l-0.3-0.7c8.4-1.9,16.4-4.7,23.2-8.3
						c-4-2.8-7.3-6.3-9.8-10.9h-10.5l-0.5-1.7h35l4.7-3.9h-4.8v0.4c0,0.5-2.2,2.2-6,2.2h-1.3V31.8c-0.5,0.4-1.1,0.9-1.6,1.2
						c-0.2,0.6-0.7,0.9-1.5,0.9l-0.2,0.1l-0.2-0.1H436V39l2.5-3.2c0,0,3.1,2.5,5.1,4.3c-0.2,0.7-0.7,1-1.6,1h-6v5.6l3.2-4.2
						c0,0,3.8,2.8,6,4.9c-0.2,0.7-0.8,1-1.6,1h-17V49c0,0.5-2.2,2.1-5.9,2.1h-1.3V31.8c-1.3,1-2.6,1.9-3.9,2.7l-0.7-0.5
						c3-4.2,6-10.8,7.6-17.5l6.8,2.5c-0.4-0.7-0.7-1.2-1.1-1.7l0.5-0.3c14.1,0.7,7.6,11.4,2,6.9c0-1-0.2-2.2-0.6-3.2
						c-0.3,0.1-0.7,0.1-1.1,0.1c-0.9,1.5-1.7,2.8-2.7,4.1l1.4,0.5h8l3.1-3.8c0,0,3.6,2.6,5.8,4.5c-0.1,0.7-0.7,1-1.6,1H436v4.7
						l2.5-3.2c0,0,1.9,1.5,3.8,3.1c2.4-4.1,4.5-9.6,5.6-15.3l8.2,2.7c-0.4-0.9-0.9-1.6-1.4-2.2l0.5-0.3c14.1,0.7,7.6,11.4,2,7
						c0-1.2-0.3-2.4-0.7-3.6c-0.4,0.4-1,0.7-2,0.6c-0.8,1.5-1.6,3-2.5,4.2l1.5,0.6h8.7l3.2-3.8c0,0,3.6,2.6,5.9,4.5
						c-0.2,0.7-0.8,1-1.6,1h-7.2V32l2.8-3.6c0,0,3.3,2.6,5.3,4.5c-0.1,0.7-0.7,1-1.6,1h-6.6v5.3l2.8-3.6c0,0,3.3,2.6,5.3,4.5
						c-0.1,0.7-0.7,1-1.6,1h-6.6v5.6h0.7l3.4-4.3c0,0,3.9,3,6.2,5.1c-0.2,0.7-0.8,1-1.6,1h-12.7L465,54.9L465,54.9z M426.5,27.1v5.1
						h2.7v-5.1H426.5z M429.2,33.9h-2.7v5.5h2.7V33.9z M429.2,41.1h-2.7v5.6h2.7V41.1z M430.3,53.9c3.4,3.4,8.2,5.8,13.9,7.5
						c3.3-2.2,6.1-4.8,8.3-7.5H430.3z M452.5,27.1v5.1h2.8v-5.1C455.4,27.1,452.5,27.1,452.5,27.1z M455.4,33.9h-2.8v5.5h2.8V33.9z
						 M452.5,46.7h2.8v-5.6h-2.8V46.7z"/>
					<path class="st0" d="M495.5,24c0,0,3.9,3.1,6.2,5.3c-0.2,0.7-0.8,1-1.6,1h-23.8l-0.5-1.7h16.3L495.5,24L495.5,24z M529.2,41.1
						c0,0,3.4,3.1,5.3,5.2c-0.1,0.7-0.7,1-1.6,1h-35.2l-0.4-1.4h-18.8l-0.5-1.7h12.3l3-3.9c0,0,3.5,2.7,5.5,4.7
						c-0.1,0.3-0.2,0.5-0.5,0.7h5.6c0.7-3.2,1.5-7.5,2.2-11.8h-5.7l-0.5-1.7h6.5c0.5-3,1-6,1.3-8.5h-7.9l-0.5-1.7h21.9l3.8-5.3
						c0,0,4.3,3.6,6.9,6c-0.2,0.7-0.8,1-1.7,1h-14.5c-0.4,2.5-0.8,5.4-1.4,8.5h3.9l3.6-3.7l7,5.2c-0.3,0.5-1,0.9-2.2,1.2v10.1
						L529.2,41.1L529.2,41.1z M490.3,36.3l3-3.9c0,0,3.5,2.7,5.5,4.7c-0.2,0.7-0.8,1-1.6,1h-18.7l-0.5-1.7L490.3,36.3L490.3,36.3z
						 M493.1,48.5l6.8,5.1c-0.3,0.4-1,0.9-2.1,1.1v13.9c-0.1,0.5-3.6,2.1-6.2,2.1h-1.3v-3.3h-4.2v3.8c0,0.7-3.2,2.3-6.3,2.3h-1.1
						V49.1l7.6,3h3.4L493.1,48.5L493.1,48.5z M481.1,17.8c17.8-0.7,11.1,13.4,3.6,8.5c-0.4-3-2.2-6.2-3.9-8.2L481.1,17.8L481.1,17.8
						z M490.3,65.6V53.7h-4.2v11.9H490.3z M523.9,48.6l7.6,5.8c-0.4,0.5-1.2,1-2.4,1.3v15.5c-0.1,0.4-4.2,1.8-6.8,1.8h-1.4v-3.4
						h-11.1v1.3c0,0.7-3.6,2.5-7,2.5h-1.1V49.3l8.5,3.3h10.2L523.9,48.6L523.9,48.6z M520.9,67.9V54.3h-11.1v13.6H520.9z
						 M514.2,33.8c-0.7,4.3-1.6,8.7-2.3,11.8h7.1V33.8H514.2z"/>
					<path class="st0" d="M593.4,22.7c-0.4,0.5-1.2,1-2.4,1.3v47c-0.1,0.6-3.9,2.5-7,2.5h-1.3v-4.8h-36v2.1c0,1-3.3,3-6.7,3h-1.3
						V17.6l8.7,3.5h34.7l3.8-4.2L593.4,22.7L593.4,22.7z M582.7,67.2V39.2c-0.4,0.4-1.2,0.5-2.1,0.4c-1.8,4.9-4,9-6.5,12.5
						c0.7,1.3,1.5,2.5,2.4,3.6c0.6,0.8,0.9,0.7,1.4-0.1c0.8-1.3,1.9-3.9,2.8-6.1l0.6,0.2l-1,8.5c1.7,3.2,2,5,1,6
						c-2.6,2.5-6.9,0.2-8.8-1.9c-1.3-1.5-2.4-3.1-3.3-4.8c-4,3.6-8.7,6.2-14.2,8l-0.5-0.7c4.7-3,9.1-7,12.5-12.1
						c-1.5-4.1-2.4-8.6-2.9-13.4c-0.3,0.1-0.6,0.2-1,0.3v8.8c0,0.5-2.8,1.8-4.8,1.8h-1v-1.8H555v1.1c0,0.4-2.5,1.7-4.8,1.7h-0.8
						V35.1l5.8,2.4h1.7l2.5-2.6l4.5,3.3c-0.2-1.6-0.3-3.2-0.4-4.8h-15.3l-0.5-1.7h15.7c-0.1-2.6-0.2-5.2-0.2-7.9l9.1,1.5
						c-0.1,0.7-0.7,1.4-2.1,1.5v4.9h3l1.9-2.5c-0.5-2-1.8-4.1-2.9-5.3l0.5-0.4c9,0.2,9.1,5,6.5,6.6c0.9,0.7,1.8,1.5,2.5,2.2
						c-0.2,0.7-0.8,1-1.6,1h-9.9c0.1,3.8,0.4,7.5,1.1,10.9c1.2-2.8,2.2-6,2.8-9.3l8.4,3.6V22.7h-36v44.5L582.7,67.2L582.7,67.2z
						 M564.5,52.1c-2.3,1.9-6,4.7-11.4,8.3c-0.3,0.8-0.9,1.4-1.6,1.6l-3.8-8.3c3-0.2,9.9-1.2,16.8-2.2L564.5,52.1L564.5,52.1z
						 M557.3,39.2H555v7.6h2.4V39.2z"/>
					<path class="st0" d="M653.2,32c-0.4,0.5-1.1,1.1-2.4,1.3v19.5c-0.1,0.5-4.7,2.1-7.7,2.1h-1.6v-5.1H630v20.9
						c0,0.9-4,3.2-7.6,3.2h-1.8V49.8h-11.4V53c0,0.9-4.1,3-7.9,3H600V26.4l9.9,3.8h10.7V16.5l11.6,1.1c-0.1,0.9-0.5,1.5-2.2,1.8
						v10.8h11l4-4.4L653.2,32L653.2,32z M620.6,48.1V31.8h-11.4v16.3L620.6,48.1L620.6,48.1z M641.5,48.1V31.8H630v16.3L641.5,48.1
						L641.5,48.1z"/>
					<path class="st0" d="M27.3,133.4c4.5,3,12,3.8,26.2,3.8c7,0,12.8-0.1,19.7-0.5v0.7c-3.4,0.7-5.4,4-5.9,7.3h-17
						c-13.8,0-18.9-2.6-23.8-8.8c-0.9-1.3-1.6-1.1-2.2,0.1c-0.9,1.9-1.8,4.8-3,8.1c0.2,0.6-0.1,0.9-0.5,1.2l-5.6-8.3
						c3.1-1.3,7.6-4,9.2-4.3c1.7-3.8,3.1-8.6,3.6-12.6h-2.4l-2.4,2.3l-6.5-4.4c0.6-0.4,1.5-0.9,2.5-1.3c2-2.7,4.5-6.7,6.2-9.5H17
						l-0.5-1.7h9.1l3.5-3.4l6.7,6.2c-0.5,0.6-1.8,0.9-3.1,1c-1.6,2.5-4.2,6.4-6.1,9.1h1.2l3.9-3.9l5.4,4.2v-18.7l8.4,3.2h2.8v-4.8
						H34l-0.5-1.7h14.6V89l10.3,1c-0.1,0.8-0.5,1.5-2.2,1.8v5.1h2.9l4.2-5.3c0,0,4.8,3.5,7.7,6c-0.2,0.7-0.8,1-1.7,1H56.2v4.8h2.4
						l3.7-4l7.6,5.7c-0.4,0.5-1.2,1-2.4,1.3v14.9c-0.1,0.2-1.1,0.8-2.5,1.3c1.6,1.2,4.6,3.4,6.7,5.1c-0.1,0.7-0.8,1-1.7,1H56.2v5.7
						c0,0.8-3.5,2.5-6.5,2.5h-1.5v-8.2H34.5L34,127h14.2v-5.8H45v1.2c0,0.7-3.5,2.5-6.8,2.5h-1.2v-4.3c-0.2,0.1-0.5,0.1-0.8,0.1
						c-1.6,4.3-5,8.9-9.3,12.5L27.3,133.4L27.3,133.4z M18.3,90.2c18.6,0.7,11.7,15.1,4.2,9.9c-0.5-3.5-2.5-7.2-4.6-9.6L18.3,90.2
						L18.3,90.2z M45,105v6.2h3.2V105H45z M48.2,119.5v-6.6H45v6.6H48.2z M56.2,105v6.2h3V105H56.2z M59.2,112.9h-3v6.6h3
						C59.2,119.5,59.2,112.9,59.2,112.9z M62.6,123.2c-0.7,0.2-1.4,0.2-2.1,0.2h-1.4v-2.2h-3v5.8h3.3L62.6,123.2z"/>
					<path class="st0" d="M82.4,128.9c2.8,6.5,2.7,11.4,0.8,13.9c-1.4,1.8-5.2,1.6-6.4-1c-1-2.2,0-4.4,2-5.7
						c1.3-1.3,3.3-4.6,2.8-7.3L82.4,128.9L82.4,128.9z M76.5,120.9c0,0,1.6-0.4,2.4-0.8c2.7-1.8,6-5.8,8.8-9.9
						c-1.8,0.8-3.9,1.8-6.1,2.7c-0.4,0.7-1,1.2-1.6,1.4l-3.5-8.2c0,0,1.4-0.4,2-0.8c2.8-2.7,6.5-11.4,7.5-16.2l9.5,4.8
						c-0.2,0.6-1,0.9-2.1,0.8c-2.8,3.6-7.6,8.5-11.8,11.6c2.4,0,5.4,0,8.5-0.1c1.3-2.2,2.3-4.2,2.9-5.9l8.5,5.8
						c-0.3,0.5-1.1,0.9-2.3,0.6c-3.4,4.2-10.2,10.1-16.3,14c3-0.2,6.8-0.4,10.6-0.7c-0.5-1.8-1.2-3.6-1.9-5l0.6-0.3
						c14,5,7.4,15.5,2.1,10.5c0-1-0.1-2.1-0.4-3.1c-3.3,1.6-7.8,3.8-12.9,5.8c-0.5,0.6-1.1,1.1-1.7,1.3L76.5,120.9L76.5,120.9z
						 M87,128.1c12.1,7.7,4,17.5-0.7,11.6c0.8-3.8,0.5-8.1-0.1-11.4L87,128.1L87,128.1z M93.1,127.2c14.2,4.5,7.6,15.3,2.3,10.4
						c0.1-3.4-1.3-7.4-2.9-10.1C92.5,127.5,93.1,127.2,93.1,127.2z M119.7,103.1v10.8h2.2l3.9-5.1c0,0,4.4,3.4,6.9,5.8
						c-0.1,0.7-0.8,1-1.6,1h-29.5l-0.5-1.7h10.2v-10.8h-10.8l-0.5-1.7h11.3v-12l10.6,0.8c-0.1,0.8-0.5,1.4-2.2,1.8v9.4h3l4-5.2
						c0,0,4.5,3.5,7.2,5.9c-0.2,0.7-0.9,1-1.7,1L119.7,103.1L119.7,103.1z M124.9,118.2l7.2,5.5c-0.4,0.5-1,1-2.4,1.2v19.6
						c0,0.4-2.6,1.8-6.9,1.8h-1.5v-5.1H111v3.7c0,0.5-2.5,1.9-6.6,1.9h-1.4v-27.4l8.7,3.3h9.3L124.9,118.2L124.9,118.2z
						 M121.2,139.4v-15.2H111v15.2H121.2z"/>
					<path class="st0" d="M160.8,138.5c0,4.7-0.9,7.2-7.9,7.8c-0.1-2.1-0.3-3.8-0.9-4.7c-0.7-1-1.6-1.7-3.8-2.1v-0.9
						c0,0,3.9,0.3,4.8,0.3c0.9,0,1-0.4,1-1.1v-19.1c-2.3,0.7-4.8,1.4-7.6,2.2c-0.1,9-1.1,18.6-9.6,25.6l-0.7-0.5
						c3.3-6.6,3.7-15.1,3.8-23.5l-0.3,0.1c-0.4,0.7-1.1,1.3-1.8,1.4l-1.8-7.6c1,0,2.4,0,3.9-0.1V95.6l5.9,2.1
						c0.2-2.5,0.3-6.1,0.4-8.6l10.1,1.9c-0.2,1-1,1.4-2.4,1.6c-1.4,1.6-3.7,4-5.4,5.8h5.1l3-3.4l6.3,4.9c-0.3,0.4-1,0.8-2,1v14
						l3.3-0.4l0.1,0.8c-1,0.4-2.2,0.8-3.3,1.2L160.8,138.5L160.8,138.5z M146.5,116.1c2.4-0.2,4.9-0.4,7.6-0.6V100h-7.6V116.1
						L146.5,116.1z M147.5,101.9c11.3,6.8,3.7,15.4,0.9,10.6c0.2-2.5,0.1-7-1.6-10.2L147.5,101.9L147.5,101.9z M147.9,121
						c10.9,8,2.7,16.2,0.2,11.3c0.4-2.6,0.5-7.5-1-10.9L147.9,121z M192,136.7c1.6,0.9,1.9,1.6,1.9,3c0,2.7-2.4,4.4-7.3,4.4h-2.2
						c-4.6,0-5.1-1.6-5.1-6v-25.9h-6.3v10.5c0,7.9-1,17.8-13.2,23.9l-0.5-0.5c5.6-6.6,6.1-15.3,6.1-23.3v-15.2l8.7,3h4.5l3.6-4.1
						l6.6,5.4c-0.4,0.4-1,0.8-2.1,1V136c0,0.7,0.1,1,0.5,1h0.8c0.3,0,0.5-0.1,0.9-0.7c0.5-1,1.6-4.7,2.4-8h0.6L192,136.7L192,136.7z
						 M161.3,101.6h21l4.2-6c0,0,4.8,4.1,7.6,6.7c-0.2,0.7-0.9,1-1.7,1h-30.7L161.3,101.6z M169.3,89.2c18.1,1.9,10.9,15.8,3.7,10.3
						c-0.2-3.6-2.1-7.5-4.2-10C168.8,89.5,169.3,89.2,169.3,89.2z"/>
					<path class="st0" d="M241.5,107.7c0.4-2.2,0.8-5.3,1-7.7h-5.2v7.3c0,1.6,0.1,1.6,1.5,1.6h7.3c0.5,0,1.3,0,2.1-0.2h0.5l0.3,0.1
						c2.5,1,2.9,1.6,2.9,2.8c0,3.4-1.8,4.8-8.5,4.8H240c1.6,1.3,3.8,3.3,5.3,4.8c-0.1,0.7-0.8,1-1.7,1h-13.4v19.5h10.1l4.2-5.9
						c0,0,4.8,3.9,7.6,6.6c-0.2,0.7-0.9,1-1.8,1h-50.1l-0.5-1.7h21.4v-19.5h-14.4l-0.5-1.7h28.1l2.9-4.1c-7.8,0-8.5-1.2-8.5-9V100
						h-11.7l10.2,4.9c-0.2,0.8-1,1.4-3.1,1.4c-4.7,6.7-12,11.6-24.1,12.9l-0.3-0.5c10.2-5.2,14.9-12,16.5-18.8h-8.4
						c0.9,4.9-0.7,8.4-3.1,9.7c-2.4,1.4-5.5,0.4-6.4-2.4c-0.8-2.7,0.9-4.7,3.1-5.7c1.9-1.2,3.9-4.3,3.4-7.7l0.7-0.1
						c0.8,1.5,1.4,3,1.8,4.3h16c-0.6-0.2-1.3-0.7-1.9-1.2c0.1-3-1-6.1-2.3-8l0.3-0.2c13.9,0.1,13.1,7.4,8.6,9.4h13.9l4.5-4.6
						l7.9,7.4c-0.5,0.6-1.1,0.8-2.4,0.8c-2.5,2.1-6.7,4.7-10.1,6.2L241.5,107.7L241.5,107.7z"/>
					<path class="st0" d="M313.7,137.4c1.7,4.4,2.1,7.1,0.7,8c-3.8,2.4-8.7-1.4-10.5-4.3c-1.2-2.1-2.3-4.2-3.2-6.4
						c-4.4,4.6-9.7,8.2-16.3,10.9l-0.5-0.9c6.2-4.2,11.1-9.3,14.8-15.9c-1.3-4.2-2.1-8.8-2.6-13.4c-0.4,0.2-0.9,0.4-1.4,0.4
						c-0.2,12-0.7,17.2-3.3,19.4c-1.6,1.2-3.6,1.6-6,1.6c0-1.6-0.2-3.2-0.8-4.1c-0.5-0.9-1.5-1.7-2.9-2.2c-2.1,5.9-6.2,11.4-14,15.6
						l-0.5-0.5c5.6-6.3,7.7-13.8,8.5-21.2c-3.1,2.8-7.4,6.4-13.3,10.7c-0.2,0.9-0.9,1.6-1.7,1.8l-4-9.7c1.3-0.3,3.5-0.8,6.1-1.4v-18
						h-4.7l-0.5-1.7h5.2V90.1l10.4,0.9c-0.1,0.8-0.5,1.4-2.2,1.7v12.2l2.3-4.2c0,0,1.4,1.6,2.9,3.3v-4.9l9.1,3.1h10
						c-0.1-4-0.2-8.1-0.2-12.3l10.1,1c0,0.3-0.1,0.6-0.4,0.9c11-0.1,10,6.5,6.1,7.7c1.3,1,2.9,2.3,4.1,3.4c-0.2,0.7-0.8,1-1.7,1H303
						c0.1,4.5,0.3,8.9,0.9,13c0.8-2.4,1.5-5.1,2.1-7.9l9.2,3.1c-0.3,0.8-0.9,1.2-2.5,1.1c-1.8,5.4-3.9,10-6.4,14.1
						c0.9,2.3,1.9,4.5,3.2,6.4c0.6,1,1,1,1.6-0.1c0.9-1.6,2.4-4.6,3.5-7.2l0.6,0.1L313.7,137.4L313.7,137.4z M271,123.8
						c1.6-0.5,3.3-0.9,5-1.4c0.2-2.5,0.2-5,0.2-7.5v-6.9H271L271,123.8L271,123.8z M284.1,114.9c0,4.5-0.2,9.7-2,14.9
						c1.3,0.1,2.6,0.1,3.2,0.1c0.4,0,0.7-0.1,0.9-0.4c0.9-1.1,1.1-5.4,1.3-14.8h-3.4L284.1,114.9L284.1,114.9z M296,113.9
						c-0.3-3.2-0.5-6.5-0.7-10h-11.2v9.1h2.8l3.7-3.6L296,113.9L296,113.9z M306.8,98.9c-0.4-2.3-1.8-4.8-3-6.5
						c-0.2,0.1-0.5,0.1-0.8,0.2c-0.1,3.1-0.1,6.4-0.1,9.6h1.5L307,99L306.8,98.9L306.8,98.9z"/>
					<path class="st0" d="M367.3,100.6c0,0,4.7,3.4,7.6,5.9c-0.2,0.7-0.9,1-1.8,1h-12.7l7.4,5.5c-0.4,0.5-1.1,1-2.4,1.3v12.3
						c-0.1,0.5-4.2,2.2-7.1,2.2h-1.5v-2.4h-20.6v0.6c0,0.7-3.8,2.5-7.3,2.5h-1.2c2.8,7.1,0.4,12.2-3,13.7c-2.4,1.1-5.4,0.1-6.2-2.5
						c-0.6-2.5,1-4.4,3.1-5.3c2.4-0.9,5-3.4,5-6.6h0.7l0.2,0.6v-21.7l8.9,3.4h19.6l3.5-3.8h-40.3l-0.5-1.7h18
						c-0.5-0.2-1-0.5-1.5-0.8c-0.1-2.6-1.3-5.4-2.5-7l0.4-0.3c11.9,0.1,11.1,6.6,7.2,8.2h10.1c0.5-2.4,1.1-5.7,1.5-8.2h-28.9
						l-0.5-1.7h21.2c-0.9-2.6-2.9-5.2-4.8-6.7l0.4-0.4c11.7-1.8,13,4.3,10.2,7h9.9l4.2-5.1c0,0,4.7,3.4,7.6,5.9
						c-0.2,0.7-0.9,1-1.7,1h-14.3l7.5,2c-0.2,0.7-0.9,1.3-2.2,1.2c-2.1,1.4-5.1,3.4-8,5h10.5L367.3,100.6L367.3,100.6z M360.6,137.3
						c2.2,0.8,2.8,1.7,2.8,3.1c0,3.3-3.1,4.5-14.9,4.5h-7.4c-7.1,0-8.8-1.1-8.8-6.3v-9.6l9.9,0.7c-0.1,0.9-0.7,1.3-1.9,1.5v5.8
						c0,0.7,0.2,1,2.2,1h7c2.1,0,4.3,0,5.3-0.1s1.4-0.2,1.9-0.9c0.8-0.9,1.8-2.9,3.1-6.1h0.6L360.6,137.3L360.6,137.3z M336.2,112.8
						v5.1h20.6v-5.1H336.2z M356.9,124.7v-5.1h-20.6v5.1H356.9z M343.4,127.3c16.1,0.7,9.9,13.1,3.3,8.5c-0.4-3-2.1-6.2-3.8-8.2
						L343.4,127.3L343.4,127.3z M362.3,129c18.6,3.2,11.8,17.7,4.7,12.1c-0.2-4.2-2.5-8.8-5.1-11.7L362.3,129z"/>
					<path class="st0" d="M428.6,120.2c-0.4,0.5-1,0.8-2.4,0.5c-2.8,0.8-6.5,1.8-10.3,2.6c3.8,7.6,11.6,11.1,19.3,13.3l-0.1,0.7
						c-3.3,0.8-5.6,3.5-6.7,7.6c-7.1-4.7-11.5-10.5-13.7-21.3c-0.9,0.2-1.8,0.3-2.7,0.5c3.6,7.7,2.5,16.1-1.3,19.8
						c-2,2-5.6,2.5-10.3,2.5c0-2.5-0.5-4.2-1.4-5.4c-0.7-0.9-2.2-1.7-4.4-2.4c-5,1.6-10.3,2.9-15.7,3.6l-0.3-0.9
						c10.1-3,20.3-9.2,26.3-15.9c-6.9,3.5-16.1,6.5-24.7,7.9l-0.3-0.8c8-2.9,16.8-8.2,22.2-13.4c-6,2.7-13.3,4.7-21.2,5.9l-0.3-0.7
						c7.6-2.5,14.3-6.7,18.6-10.8h-4.6v0.9c0,0.5-2.5,2.4-6.9,2.4h-1.6v-10.5c-2.4,1.3-5,2.4-7.6,3.4l-0.4-0.5
						c7.4-5.4,14-14.2,16.8-20.3l11.8,2.3c-0.2,0.8-1,1.2-3,1.3c-0.9,1.1-1.9,2.2-3.1,3.3h10.2l4-4.1l7,6c-0.5,0.5-1.1,0.7-2.4,0.8
						c-3,1.6-6.8,3.2-10.4,4.3h10l3.7-3.9l7.7,5.6c-0.4,0.5-1,1-2.2,1.2v8c0,0.4-3,1.6-5.6,2L428.6,120.2L428.6,120.2z M398.9,97.6
						c-1.7,1.5-3.6,3-5.6,4.5l2.3,0.8h11.1c1.4-1.5,2.9-3.6,3.9-5.3H398.9L398.9,97.6z M394.7,111.9h8.3v-7.3h-8.3V111.9z
						 M404.2,137.8c0.7-0.7,1.3-2.1,1.6-3.8c-2.9,1.4-6.1,2.8-9.5,4.1c2.3,0.2,4.9,0.3,6,0.3C403.1,138.4,403.8,138.3,404.2,137.8
						L404.2,137.8z M411.1,113.6c-1.2,1.2-2.7,2.2-4.2,3.1c1.8,1.7,3.1,3.6,4.2,5.4c3.1-2.3,6.5-5.2,8.6-7.3v-1.3L411.1,113.6
						L411.1,113.6z M411.2,104.6v7.3h8.5v-7.3H411.2z"/>
					<path class="st0" d="M459.9,128.7c2.7,6.4,2.7,11.2,0.8,13.7c-1.4,1.8-5.1,1.6-6.3-0.9c-1-2.2,0.1-4.3,1.9-5.6
						c1.3-1.3,3.2-4.6,2.8-7.3H459.9L459.9,128.7z M504.8,105.8c0,0,4.2,3.8,6.5,6.2c-0.2,0.7-0.8,1-1.7,1h-13.7v24.4
						c0,4.8-1.1,7.9-9,8.5c-0.1-2.2-0.2-3.9-0.9-4.9c-0.6-1-1.5-1.8-4-2.2v-0.8c0,0,4,0.2,5.1,0.2c0.9,0,1-0.4,1-1v-24.2h-12.3
						l-0.5-1.7h16.3l1.5-4.3h-7.6l-2.8,3.2l-5.9-3.8c-0.4,0.4-1.1,0.7-2.2,0.4c-3.2,4.2-9.4,10-14.8,13.8c2.8-0.1,6.4-0.3,10.2-0.6
						c-0.2-2.1-0.6-4.1-1.1-5.7l0.7-0.2c13.7,6.5,5.5,16.9,0.4,11.1c0.1-0.9,0.2-1.8,0.2-2.8c-3.1,1.6-7.3,3.5-11.9,5.4
						c-0.4,0.5-1,0.8-1.5,1l-2.6-8.2c0,0,1.6-0.3,2.2-0.8c2.3-1.8,5.1-5.4,7.5-9.3c-1.4,0.7-2.8,1.3-4.4,2c-0.5,0.8-1,1.3-1.7,1.6
						l-3.4-8c0,0,1.3-0.4,1.9-0.8c2.5-2.7,5.9-11.4,6.8-16l9.3,4.5c-0.2,0.5-0.9,1-2,0.9c-2.6,3.7-7.1,8.5-11,11.6
						c2,0,4.4,0,6.8-0.1c1-2,1.9-3.9,2.4-5.5l7,4.7c0.5-0.4,1.4-0.9,2.2-1.3c2-4.3,4.7-11.6,5.6-14.8l10,1.6
						c-0.2,0.8-0.9,1.6-2.5,1.6l-1.2,3.1h6.8l3.3-3.6l7.1,5.7c-0.5,0.5-1.1,0.7-2.4,0.8l-4.4,12.6h1.2L504.8,105.8L504.8,105.8z
						 M463.3,128.1c10.9,7.6,3.7,16.8-0.5,11.4c0.7-3.7,0.4-8-0.2-11.2L463.3,128.1L463.3,128.1z M487.6,126.8
						c-1.3,2.4-3.6,6.2-7,11c-0.1,0.9-0.5,1.6-1.3,1.9l-3.9-5.8c0.4,3.6-3,5.9-5.7,3c0.4-3.4-0.6-7.4-1.8-10l0.7-0.3
						c3.1,1.5,5,3.2,6,4.8c2.6-0.9,7.8-3,12.8-5.1L487.6,126.8L487.6,126.8z M478.1,115.5c15,2.6,7.9,13.9,2.1,8.8
						c0.1-3-1.1-6.4-2.7-8.5L478.1,115.5z M493.7,105.3l2.8-7.9H489c-1.1,2.7-2.3,5.6-3.3,7.9H493.7L493.7,105.3z M497.4,127.3
						c19.6,1,13.2,16.6,6.1,11.1c-1.3-3.2-3.7-7.6-6.5-10.7L497.4,127.3L497.4,127.3z M497.3,125.1c1.7-3.1,4-8.7,5.2-11.5l8.5,6
						c-0.3,0.5-0.9,0.7-2.3,0.4c-2.4,1.6-7.7,4.1-10.9,5.6L497.3,125.1L497.3,125.1z"/>
					<path class="st0" d="M537.5,115.5c-0.4,0.7-0.9,0.9-2.2,1.1c-0.8,5.9-2.3,11.5-5.2,16.5c6.7,3,15.6,3.7,27.8,3.7
						c3,0,10,0,13.7-0.1v0.7c-3.3,0.7-4.8,3.9-5,7.3h-9.3c-14.1,0-23.8-1.4-30.4-6.9c-3,3.5-7.1,6.5-12.5,8.8l-0.4-0.7
						c4.3-3.2,7.3-7.3,9.3-12c-2.9-3.8-5.1-8.9-6.7-15.6l0.5-0.2c1.9,5.2,4.5,8.9,7.7,11.7c1.4-4.5,2.2-9.3,2.5-14.3h-2l-2.4,2.5
						l-7.1-4.2c0.5-0.5,1.3-1,2.1-1.4c2.2-4.1,5.2-10.9,6.7-15.1H515l-0.5-1.7h10l3.5-3.4l6.8,6.2c-0.4,0.5-1.3,0.8-2.3,1
						c-1.6,3.7-4.6,10.3-6.6,14.4h1l3.8-4.1L537.5,115.5L537.5,115.5z M567.3,98.4c0,0,3.6,3.7,5.4,6c-0.2,0.7-0.8,1-1.6,1h-6.9v8.2
						c-0.1,0.2-1.2,0.8-2.7,1.2c1.3,1.1,4.4,3.6,6.3,5.4c-0.2,0.7-0.8,1-1.7,1h-13.5v6.3h5.3l4.3-5.5c0,0,5,3.7,7.9,6.2
						c-0.2,0.7-0.9,1-1.8,1h-15.7v5.2c0,0.6-3.5,2.1-6.7,2.1h-1.6V129h-11l-0.5-1.7h11.5V121h-8.5l-0.5-1.7h9v-6.2h-7.9l-0.5-1.7
						h8.4v-6.1h-12l-0.5-1.7h12.5v-6h-8.8l-0.5-1.7h9.3v-6.8l10.5,1c-0.1,0.9-0.5,1.5-2.2,1.8V96h3l3.5-3.8l7.3,5.5
						c-0.4,0.4-1.2,1-2.3,1.2v4.8h0.1L567.3,98.4L567.3,98.4z M552.7,103.6h3.6v-6h-3.6V103.6z M556.2,105.3h-3.6v6.1h3.6V105.3z
						 M560.3,114.9c-0.9,0.2-1.9,0.4-2.7,0.4h-1.3v-2.2h-3.6v6.2h4.4L560.3,114.9z"/>
					<path class="st0" d="M589.8,96.9c-4.3,4.4-9.6,7-14.8,8.7l-0.5-0.6c3.9-3.6,7.8-9.7,9.9-16.4l10.8,4.1
						c-0.3,0.7-1.1,1.3-2.5,1.2c-0.4,0.5-0.8,1-1.2,1.5h4.5l3.4-4.6c0,0,3.8,3.1,6,5.3c-0.2,0.7-0.8,1-1.6,1L589.8,96.9L589.8,96.9z
						 M574.8,144c6.2-3.5,12-9.4,14.8-14l9.1,5.7c-0.3,0.6-0.9,0.9-2.3,0.7c-4.9,3.8-12.8,6.9-21.2,8.2L574.8,144L574.8,144z
						 M591.7,107.8v9.4c2.6-0.3,5.4-0.6,8.2-0.9l0.1,0.7c-4,2.1-10,4.8-18.9,8.3c-0.4,0.8-1,1.3-1.8,1.4l-3.4-8.2
						c1.8-0.1,4.5-0.3,7.9-0.6v-10.2h-6.3l-0.5-1.7h13.1l2.1-2.7c-0.5-1.9-2-4.1-3.2-5.1l0.4-0.4c10.5-1.6,10,4.7,6.4,6.1
						c1.1,0.9,2.4,1.9,3.4,2.8c-0.2,0.7-0.8,1-1.6,1L591.7,107.8L591.7,107.8z M623.6,122.3c0,0,5,4,7.9,6.6c-0.2,0.7-0.8,1-1.8,1
						H608v14.6c0,0.5-4,1.9-7.7,1.9h-1.6v-16.5h-21.2l-0.5-1.7h21.7v-5l11.5,1c-0.1,0.8-0.5,1.4-2.2,1.7v2.4h11.2L623.6,122.3
						L623.6,122.3z M629.7,115.4c1.5,0.7,1.8,1.4,1.8,2.7c0,2.4-2.2,3.9-6.7,3.9h-2.1c-4.2,0-4.6-1.4-4.6-5.3v-9.2H612v3
						c0,0.8-0.1,1.6-0.3,2.5c5.6,2.6,4.5,8.2,0,7.6c-0.8-0.8-1.9-1.7-3.1-2.6c-2.5,2.2-6.8,4.3-14,5.6l-0.3-0.6
						c5.7-2.3,8.3-5.1,9.4-7.8c-1.7-0.9-3.5-1.6-5-2.1l0.4-0.7c2-0.4,3.8-0.5,5.4-0.6c0.1-0.4,0.1-0.8,0.1-1.3v-3h-4.2l-0.5-1.7
						h17.7l3.1-3.4l5.7,4.7c-0.3,0.4-0.9,0.7-1.9,0.9v6.9c0,0.6,0.1,0.8,0.6,0.8h1.2c0.3,0,0.7-0.1,0.9-0.4c0.4-0.5,1.2-2.1,1.8-4.1
						h0.7L629.7,115.4L629.7,115.4z M625.3,90.5c0,0,4.2,3.2,6.7,5.4c-0.2,0.7-0.8,1-1.7,1h-17.2c-3.3,3.3-7.3,5.6-11.4,7l-0.6-0.5
						c2.8-3.5,5.4-9.1,6.8-15l10.4,4.2c-0.3,0.7-1.2,1.2-2.5,1c-0.4,0.5-0.8,1-1.2,1.5h6.9L625.3,90.5L625.3,90.5z M609.5,132
						c24.5-1.4,22.7,15.4,13.8,12.8c-3.1-4.5-9.2-9.6-14.2-12.3L609.5,132L609.5,132z M612.6,98.3c13.3-1.1,6.8,8.9,1.2,4.9
						c0.1-1.8-0.8-3.7-1.6-4.6L612.6,98.3z"/>
					<path class="st0" d="M678.1,104c21,4.4,15.1,20.2,7.1,15.3c-1.2,3.8-2.8,8.4-7.1,13.2c4.6,2.8,10,4.6,15.7,5.9l-0.1,0.7
						c-3.4,0.7-5.7,3.3-6.9,7.2c-5.4-2.4-9.7-5.3-13.2-9.5c-4.4,3.5-10.7,6.9-19.7,9.9l-0.5-0.8c8-4.7,13.3-9.5,16.8-14
						c-2.1-3.8-3.6-8.4-4.7-14.2c-2.6,2.7-5.5,4.8-8.7,6.5l-0.6-0.5c1.1-1.6,2.2-3.6,3.1-5.7c-1.3,1.4-3.7,1.8-5.9-0.1
						c-0.1-2-0.5-4.1-1.3-6v32.2c0,0.7-3.5,2.5-6.6,2.5h-1.6v-23.3c-2.4,3.3-5.3,6.4-8.6,9.1l-0.7-0.6c4.3-6.9,7-16.8,8.2-26.1h-7.1
						l-0.5-1.7h8.6V89l10.5,1c-0.1,0.9-0.5,1.5-2.2,1.8v11l2.4-3.6c0,0,3.8,3.3,5.9,5.6c-0.2,0.7-0.8,1-1.6,1h-6.7v3.3
						c6.4,1.4,8.5,4.5,8.3,6.8c1.6-3.8,3-8.1,3.9-12.5l10.4,4c-0.3,0.8-1.1,1.2-2.5,1.1c-1.9,3.6-4,6.6-6.6,9.1l0.7-0.3
						c1.3,4.5,3.6,8.1,6.3,11c3.1-5.2,4.1-10,4.5-14.2l6.8,2.2c-1.3-4.3-3.9-8.8-6.5-12L678.1,104L678.1,104z M658,100.9h15.1
						c-0.7-0.2-1.5-0.6-2.2-1.2c-0.1-3.7-1.8-7.6-3.6-10.2l0.4-0.3c14.2,1.6,13.1,10.1,8.4,11.7h4.8l4.2-5.7c0,0,4.8,3.8,7.7,6.4
						c-0.2,0.7-0.8,1-1.7,1h-32.8L658,100.9L658,100.9z"/>
					<path class="st0" d="M752.4,95.7c-0.4,0.6-1.2,1-2.4,1.3v46.4c-0.1,0.6-4.1,2.7-7.4,2.7h-1.4v-5h-34.3v2.1
						c0,1.1-3.5,3.2-7.1,3.2h-1.5V90.3l9.3,3.7h33l4-4.5L752.4,95.7L752.4,95.7z M706.9,139.4h9.4l-3.3-5.3c2-1.3,2.3-1.8,2.3-2.8
						v-1.9c-2.4,1-5,1.9-7.7,2.5l-0.5-0.9c4.5-2.1,8.3-5.2,10.9-8.5h-0.5c-0.7,0.7-3.5,1.8-5.8,1.8h-1v-13.6l7.3,2.8h12.4l3-3.1
						l6.2,4.5c-0.2,0.4-0.8,0.7-1.6,0.9v6.2c0,0.2-0.5,0.4-1.1,0.7l4.3,3.8v-16.9c-0.3,0.2-0.6,0.2-1,0.2h-32.6l-0.5-1.7h13.2v-4.3
						h-10.2l-0.5-1.7h10.6v-5.4l9.4,0.8c-0.1,0.7-0.4,1.2-1.7,1.4v3.2h2.7l3.3-3.9c0,0,3.7,2.7,6,4.7c-0.1,0.7-0.7,1-1.6,1H728v4.3
						h4.2l3.4-4.2c0,0,3.3,2.4,5.7,4.4V95.7h-34.3L706.9,139.4L706.9,139.4z M741.2,139.4v-12.9c-0.3,0.4-0.9,0.5-2,0.1
						c-1.1,0.4-2.7,0.8-4.4,1.3c9.7,5,5.8,12,1.3,9.4c-1.5-2.8-5.9-7.9-11.8-11.8l0.4-0.8c2.7,0.5,5.1,1.2,7,1.9
						c1-1,1.9-2.2,2.7-3.3c-0.8,0.2-1.6,0.3-2.3,0.3h-1.3v-1.2h-4.7c-1.2,1.3-2.5,2.4-4.1,3.4v5.9c2.1-0.5,4.3-1.2,6.7-1.9l0.2,0.7
						c-2.1,1.6-6.7,5-11.4,8.2c-0.2,0.2-0.4,0.4-0.6,0.6L741.2,139.4L741.2,139.4z M730.8,115.1h-13.2v5.7h13.2V115.1z"/>
				</g>
			</g>
		</g>
	</g>
</g>
</svg>
