<?xml version="1.0" encoding="UTF-8"?>
<svg id="_圖層_2" data-name="圖層 2" xmlns="http://www.w3.org/2000/svg" viewBox="0 0 432.81 217.14">
  <defs>
    <style>
      .cls-1 {
        fill: #b47b5b;
      }
    </style>
  </defs>
  <g id="_圖層_1-2" data-name="圖層 1">
    <g>
      <path class="cls-1" d="M3.29,31.57c0,.28-.17,.42-.53,.42H1.37c-.35,0-.53-.14-.53-.42V1.75c0-.25,.17-.38,.53-.38H10.68c.38,0,.66,.07,.88,.17,.6,.46,.91,.77,.91,.91L7.81,11.9c-.11,.21-.14,.38-.14,.52s.07,.32,.25,.49c1.09,1.05,2,2.31,2.76,3.78,.7,1.54,1.08,3.08,1.08,4.62,0,1.29-.25,2.42-.66,3.4-.49,1.05-1.19,1.75-2.1,2.13-.6,.42-1.58,.63-2.98,.63-.63,0-.91-.17-.91-.59-.14-.84-.32-1.44-.59-1.86,0-.28,.14-.42,.42-.42l1.64,.28c.98,0,1.68-.35,2.1-1.12,.42-.6,.63-1.4,.63-2.45s-.31-2.31-.88-3.68c-.77-1.5-1.89-2.98-3.36-4.41-.21-.14-.28-.25-.28-.38s.04-.32,.14-.56L9.63,3.4H3.29V31.57Zm13.27-4.1c1.47-.49,2.87-1.01,4.2-1.58,.07-.04,.11-.07,.17-.07,.18,0,.28,.14,.28,.42,0,1.26-.07,1.92-.14,2.03-2.63,1.05-5.29,2.03-7.95,2.87-.38,.63-.7,.98-.95,.98-.21,0-.67-1.01-1.36-3.01,.94-.21,2.03-.49,3.29-.88V1.89c0-.35,.17-.52,.53-.52h13.97c.35,0,.53,.14,.53,.38V15.16c0,.39-.17,.56-.53,.56h-6.37c.14,1.05,.35,1.96,.56,2.73,.35,1.47,.84,2.8,1.4,3.99,0,.07,.04,.14,.07,.14,.84-.49,1.54-.98,2.17-1.5,1.05-.77,2.1-1.86,3.15-3.22,.14-.14,.28-.21,.38-.21,1.44,1.19,2.17,1.89,2.17,2.03,0,.17-.14,.25-.42,.25-.49,0-.77,.07-.8,.17-1.75,1.89-3.54,3.43-5.36,4.62,.14,.21,.25,.35,.38,.49,.59,.91,1.4,1.72,2.38,2.42,.91,.73,2.07,1.37,3.47,1.92,.14,.07,.21,.14,.21,.25,0,.14-.07,.28-.17,.38-.42,.38-.88,.84-1.33,1.33-.17,.21-.32,.35-.39,.35s-.24-.11-.45-.28c-.7-.35-1.43-.8-2.21-1.33-.98-.74-1.85-1.5-2.66-2.41-.91-1.12-1.64-2.17-2.13-3.19-.7-1.26-1.23-2.56-1.54-3.89-.46-1.29-.84-2.97-1.16-5.04h-3.4v11.76Zm0-20.09h10.12V3.54h-10.12v3.85Zm0,6.13h10.12v-3.96h-10.12v3.96Z"/>
      <path class="cls-1" d="M42.74,2.62c.35,.14,.52,.32,.52,.53,0,.25-.14,.42-.42,.49-.35,0-.56,.21-.63,.56-.17,.49-.35,.98-.49,1.4h4.27V.53c0-.25,.17-.39,.53-.39,1.75,0,2.62,.14,2.62,.39,0,.31-.14,.49-.35,.52-.25,.04-.35,.28-.35,.7v3.85h6.83c.28,0,.42,.17,.42,.53v1.12c0,.35-.14,.52-.42,.52h-6.83v4.52h8.09c.25,0,.38,.21,.38,.56v1.09c0,.38-.14,.56-.38,.56h-8.09v3.82h6.3c.42,0,.66,.21,.66,.56v9.77c0,.38-.42,.7-1.19,.95-.77,.14-1.71,.28-2.91,.35-.28,0-.42-.14-.46-.42-.04-.49-.28-1.19-.77-2.17,0-.04,.07-.07,.21-.07,1.26,0,2.03-.04,2.24-.1,.28-.07,.42-.18,.42-.35v-6.3h-4.52v10.92c0,.28-.17,.42-.53,.42h-1.4c-.35,0-.53-.14-.53-.42v-10.92h-4.94v9.42c0,.28-.17,.42-.53,.42h-1.37c-.38,0-.56-.14-.56-.42v-11.06c0-.35,.17-.56,.56-.56h6.83v-3.82h-8.47c-.28,0-.42-.17-.42-.56v-1.09c0-.35,.14-.56,.42-.56h8.47V7.77h-5.15c-.49,1.05-.91,1.96-1.33,2.66-.25,.35-.42,.49-.49,.49-.17,0-.38-.07-.59-.21-.49-.21-.91-.38-1.33-.59-.21-.07-.28-.11-.28-.14,0-.07,.04-.21,.14-.35,.84-1.29,1.51-2.45,1.96-3.47,.63-1.26,1.09-2.52,1.4-3.82,.07-.38,.18-.59,.32-.59l2.1,.88Zm19.39,1.33c0,.32-.14,.49-.35,.53-.25,.04-.35,.28-.35,.7V24.47c0,.28-.17,.42-.53,.42h-1.36c-.39,0-.56-.14-.56-.42V3.95c0-.28,.17-.42,.56-.42,1.71,0,2.59,.14,2.59,.42Zm5.88-3.46c.25,.14,.38,.25,.38,.31,0,.21-.14,.32-.38,.32-.49,.21-.7,.74-.7,1.61V29.12c0,1.61-1.23,2.45-3.68,2.45h-2.34c-.21,0-.28-.21-.28-.59-.11-.46-.32-.98-.66-1.58,0-.21,.07-.28,.28-.28,.98,.17,1.89,.28,2.73,.28,.98,0,1.51-.42,1.51-1.26V2.59c0-.67-.07-1.19-.14-1.54-.1-.25-.14-.46-.14-.67,0-.14,.21-.25,.7-.25l2.73,.35Z"/>
      <path class="cls-1" d="M90.44,.66c0,.32-.1,.49-.32,.53-.24,.03-.35,.28-.35,.7v1.51h13.41c.35,0,.53,.14,.53,.42v5.32c0,.28-.17,.42-.53,.42h-1.37c-.38,0-.56-.14-.56-.42v-3.67h-7.95v4.51c0,.28,.07,.42,.28,.42h4.52c.28,0,.52-.8,.8-2.48l2.07,1.22c-.63,2.31-1.4,3.43-2.31,3.43h-5.88c-1.19,0-1.79-.49-1.79-1.5V5.46h-4.38c-.21,.91-.49,1.68-.77,2.24-.35,.7-.77,1.33-1.26,1.89-.56,.63-1.26,1.16-2.1,1.58-.95,.56-1.93,1.05-2.91,1.4-.67,.21-1.51,.45-2.56,.7-.35,0-.59-.11-.7-.32-.25-.38-.53-.77-.88-1.19-.14-.1-.17-.21-.17-.28s.04-.14,.14-.21c1.12-.14,2.14-.39,3.08-.74,1.12-.32,2.1-.74,2.94-1.26,.6-.35,1.12-.81,1.54-1.33,.42-.46,.77-1.05,1.05-1.79,.07-.21,.14-.42,.21-.7h-8.02v3.96c0,.28-.21,.42-.56,.42h-1.37c-.35,0-.53-.14-.53-.42V3.82c0-.28,.18-.42,.53-.42h12.99V.66c0-.28,.17-.42,.56-.42,1.71,0,2.59,.14,2.59,.42Zm-.7,10.54c.21,.14,.32,.28,.32,.42s-.14,.25-.39,.25c-.42,.04-.63,.14-.7,.28-.42,.77-.98,1.58-1.68,2.49h13.02c.35,0,.53,.14,.53,.38V31.15c0,.28-.18,.42-.53,.42h-22.86c-.35,0-.53-.14-.53-.42V15.02c0-.25,.18-.38,.53-.38h6.83c.63-.63,1.19-1.3,1.61-1.93,.53-.91,.95-1.75,1.3-2.52,.07-.14,.17-.21,.38-.21l2.17,1.23Zm8.65,5.46h-19.01v12.85h19.01v-12.85Zm-5.74,2.21c0,.21-.14,.28-.42,.28s-.49,.14-.7,.35c-.52,.49-1.22,1.08-2.1,1.75,.84,.63,1.64,1.26,2.42,1.89,0,0,.04,0,.07-.04,1.09-.88,2.03-1.82,2.87-2.87,.21-.18,.38-.28,.59-.28,1.26,.84,1.92,1.37,1.92,1.5,0,.21-.14,.28-.42,.28-.35,0-.63,.17-.88,.46-.7,.63-1.61,1.37-2.73,2.28,.88,.84,1.65,1.64,2.28,2.45,.07,.1,.11,.21,.11,.28,0,.14-.56,.56-1.65,1.22-.14,0-.28-.04-.35-.14-.77-.88-1.51-1.68-2.28-2.42-.91,.63-1.82,1.19-2.77,1.68-.98,.53-2.28,1.09-3.92,1.71-.28,0-.46-.1-.56-.31-.28-.32-.56-.63-.8-.95-.21-.07-.28-.14-.28-.25,0-.07,.07-.14,.21-.21,1.92-.59,3.54-1.23,4.8-1.92,.67-.35,1.29-.7,1.85-1.09-.07-.07-.14-.1-.21-.17-.73-.59-1.5-1.16-2.28-1.68-.63,.42-1.26,.77-1.89,1.08-.77,.42-1.82,.88-3.15,1.37-.28,0-.46-.07-.56-.28-.32-.32-.6-.63-.84-.95-.17-.07-.25-.14-.25-.28,0-.03,.04-.07,.14-.14,1.58-.49,2.87-1.01,3.92-1.58,.21-.1,.46-.25,.7-.38-.84-.46-1.71-.91-2.56-1.4-.1-.07-.14-.14-.14-.17,0-.07,.35-.56,1.12-1.5,.14-.07,.28-.14,.49-.14,1.05,.49,2.13,1.09,3.25,1.79,.07-.07,.18-.1,.25-.17,.88-.7,1.65-1.47,2.31-2.31,.14-.14,.32-.25,.49-.25,1.26,.84,1.92,1.37,1.92,1.51Z"/>
      <path class="cls-1" d="M136.75,2.52c-2.52,.7-5.36,1.22-8.47,1.54-3.57,.38-7.21,.56-10.99,.56v3.57h20.79c.35,0,.53,.14,.53,.42v12.71c0,.28-.18,.42-.53,.42h-1.37c-.38,0-.56-.14-.56-.42v-1.93h-18.9c-.14,2.28-.46,4.13-.95,5.6-.46,1.58-1.29,3.15-2.52,4.69-.66,.91-1.61,1.82-2.8,2.7-.17,0-.28-.03-.35-.07-.38-.35-.8-.67-1.26-.95-.14-.14-.17-.28-.17-.49,1.12-.77,2.17-1.82,3.08-3.15,.88-1.4,1.5-2.91,1.92-4.45,.42-1.61,.63-3.61,.63-5.92V3.01c0-.35,.17-.56,.52-.56h.28c4.83-.04,8.61-.21,11.34-.49,3.29-.28,6.23-.84,8.89-1.64,.31-.11,.59-.18,.84-.18,.11,0,.25,.07,.42,.18,1.16,.98,1.75,1.57,1.75,1.85,0,.49-.14,.7-.42,.7l-.8-.42c-.35,0-.63,.04-.91,.07Zm-19.46,14.7h18.87v-6.83h-18.87v6.83Z"/>
      <path class="cls-1" d="M159.29,1.37c.35,0,.56,.14,.56,.38V12.71c0,.38-.21,.56-.56,.56h-9.56V31.57c0,.28-.21,.42-.56,.42h-1.37c-.38,0-.56-.14-.56-.42V1.75c0-.25,.18-.38,.56-.38h11.48Zm-1.93,4.9V3.4h-7.63v2.87h7.63Zm0,4.94v-2.87h-7.63v2.87h7.63Zm11.76,4.8c.17,0,.28,.14,.28,.38v1.12c0,.35-.11,.52-.28,.52h-3.15v4.1h4.79c.18,0,.28,.14,.28,.42v1.08c0,.39-.1,.56-.28,.56h-4.79v6.97c0,.28-.17,.42-.53,.42h-1.37c-.28,0-.42-.14-.42-.42v-6.97h-4.38c-.11,.66-.25,1.29-.42,1.86-.42,1.37-1.19,2.55-2.38,3.57-.77,.7-1.79,1.4-3.08,2.1-.28,0-.49-.07-.63-.21-.32-.42-.63-.8-.91-1.12-.17-.17-.25-.31-.25-.46,2.52-1.26,4.16-2.8,4.94-4.59,.14-.35,.25-.74,.31-1.16h-4.55c-.21,0-.28-.17-.28-.56v-1.08c0-.28,.07-.42,.28-.42h4.87c0-.38,.04-.77,.04-1.12v-2.98h-3.26c-.21,0-.28-.17-.28-.52v-1.12c0-.25,.07-.38,.28-.38h15.16Zm-5.46,2.03h-4.1v2.94c0,.42-.03,.81-.03,1.16h4.13v-4.1ZM174.72,1.37c.46,0,.7,.14,.7,.38V28.32c0,1.09-.56,1.96-1.68,2.59-1.05,.45-2.38,.77-4.06,.95-.28,0-.42-.14-.45-.42-.03-.49-.28-1.23-.77-2.17,0-.14,.1-.21,.31-.21,2,0,3.19-.14,3.54-.42,.42-.28,.66-.7,.66-1.33V13.13h-9.31c-.38,0-.56-.17-.56-.56V1.75c0-.25,.17-.38,.56-.38h11.06Zm-1.75,4.9V3.4h-7.39v2.87h7.39Zm0,4.8v-2.73h-7.39v2.73h7.39Z"/>
      <path class="cls-1" d="M210.6,3.15c.42,0,.67,.14,.67,.38V30.87c0,.28-.25,.42-.67,.42h-1.37c-.38,0-.56-.14-.56-.42v-2.59h-21.74v2.59c0,.28-.25,.42-.7,.42h-1.37c-.35,0-.53-.14-.53-.42V3.54c0-.25,.18-.38,.53-.38h25.73Zm-1.92,22.82V5.46h-21.74V25.97h21.74Z"/>
      <path class="cls-1" d="M232.51,6.13c0,.35-.14,.52-.35,.52-.25,.07-.35,.32-.35,.74v4.62h5.08V6.13c0-.25,.18-.39,.53-.39,1.75,0,2.62,.14,2.62,.39,0,.35-.14,.52-.35,.52-.25,.07-.35,.32-.35,.74v.25h6.02c.18,0,.28,.14,.28,.42v1.09c0,.38-.1,.56-.28,.56h-6.02v2.31h5.18c.35,0,.56,.14,.56,.42v12.46c0,.28-.21,.38-.56,.38h-2.31c.7,.35,1.26,.67,1.71,.95,.59,.42,1.12,.8,1.58,1.12,0,.04-.07,.1-.17,.25-.6,.84-.91,1.26-.91,1.26-.7-.53-1.44-1.01-2.17-1.43-.63-.35-1.12-.6-1.54-.77,0-.11,.32-.53,.95-1.3l.07-.07h-3.19v3.71c0,.28,.07,.42,.25,.42h7.25c.7,0,1.4-.95,2.06-2.91l2.07,1.26c-.98,2.52-2.17,3.82-3.57,3.82h-8.61c-1.19,0-1.79-.53-1.79-1.5v-4.8h-4.2c-.14,.77-.35,1.44-.63,1.93-.38,.8-.95,1.54-1.68,2.17-.52,.42-1.22,.8-2.13,1.19-.91,.32-2.07,.6-3.46,.88-1.44,.28-2.63,.42-3.61,.42-.21,0-.39-.14-.46-.39-.21-.52-.45-1.01-.66-1.5-.18-.14-.25-.31-.25-.46l.94,.14c.7-.04,1.54-.11,2.52-.21,1.05-.14,1.96-.32,2.77-.53,.91-.21,1.65-.49,2.13-.84,.7-.42,1.23-.88,1.51-1.37,.28-.35,.49-.84,.67-1.44h-5.36c-.35,0-.53-.1-.53-.38V12.43c0-.28,.17-.42,.53-.42h5.08v-2.17h-6.02c-.21,0-.28-.17-.28-.56v-1.09c0-.28,.07-.42,.28-.42h6.02v-1.64c0-.25,.17-.39,.56-.39,1.72,0,2.59,.14,2.59,.39Zm3.25-5.74c0,.35-.1,.53-.31,.53-.25,.04-.35,.28-.35,.74v.8h13.55c.35,0,.52,.14,.52,.42v6.55c0,.28-.17,.42-.52,.42h-1.37c-.38,0-.56-.14-.56-.42V4.52h-24.75v4.9c0,.28-.21,.42-.56,.42h-1.37c-.35,0-.52-.14-.52-.42V2.87c0-.28,.17-.42,.52-.42h12.6V.38c0-.25,.17-.38,.53-.38,1.71,0,2.59,.14,2.59,.38Zm6.86,15.33v-1.65h-16.42v1.65h16.42Zm0,3.82v-1.79h-16.42v1.79h16.42Zm0,2.06h-16.42v1.65h16.42v-1.65Z"/>
      <path class="cls-1" d="M275.07,.66c0,.32-.14,.49-.35,.53-.25,.03-.35,.28-.35,.7v1.51h11.48c.28,0,.42,.21,.42,.56v1.08c0,.39-.14,.56-.42,.56h-25.69V14.35c0,3.78-.25,6.79-.67,9.03-.28,1.85-.84,3.71-1.65,5.53-.42,1.12-1.01,2.17-1.79,3.22-.17,0-.31-.03-.38-.07-.38-.38-.8-.7-1.26-.98-.11-.14-.14-.28-.14-.46,.67-.95,1.29-2.21,1.86-3.85,.53-1.68,.91-3.43,1.19-5.32,.21-1.96,.35-4.31,.35-7.11V3.95c0-.35,.17-.56,.56-.56h13.69V.66c0-.28,.18-.42,.53-.42,1.75,0,2.62,.14,2.62,.42Zm6.55,18.87c.25,0,.46,.07,.63,.17,.49,.49,.74,.8,.74,.95-.91,1.61-1.75,2.83-2.52,3.67-.94,1.12-1.92,2.07-2.91,2.77-.28,.21-.59,.42-.91,.63,.77,.28,1.68,.56,2.7,.77,1.61,.42,3.75,.8,6.34,1.16,.28,.03,.46,.07,.46,.14,0,.17-.07,.32-.17,.42-.49,.42-.98,.88-1.44,1.4-.21,.25-.35,.38-.46,.38s-.38-.07-.8-.21c-1.23-.21-2.56-.49-4.03-.84-1.75-.49-3.36-.98-4.83-1.54-.21-.11-.38-.18-.56-.25-.04,0-.07,.04-.07,.04-1.68,.73-3.54,1.36-5.57,1.89-1.37,.35-3.15,.7-5.32,1.05-.35,0-.6-.14-.74-.35-.28-.42-.56-.8-.84-1.23-.14-.14-.21-.28-.21-.35,0-.1,.07-.17,.28-.17,1.37-.17,2.7-.38,4.03-.63,2.31-.46,4.27-.98,5.81-1.61-.28-.14-.56-.32-.77-.49-1.26-.8-2.21-1.65-2.77-2.52-.8-.8-1.5-1.85-2.13-3.19h-2.24c-.28,0-.42-.17-.42-.56v-1.08c0-.28,.14-.42,.42-.42h18.31Zm-14.77-9.84v-2.17c0-.28,.17-.42,.56-.42,1.71,0,2.59,.14,2.59,.42,0,.32-.14,.49-.35,.49-.25,.07-.35,.32-.35,.74v.95h8.09v-2.17c0-.28,.17-.42,.56-.42,1.71,0,2.59,.14,2.59,.42,0,.32-.14,.49-.35,.49-.25,.07-.35,.32-.35,.74v.95h5.88c.17,0,.28,.14,.28,.42v1.08c0,.38-.11,.56-.28,.56h-5.88v4.62c0,.38-.17,.56-.53,.56h-11.9c-.39,0-.56-.17-.56-.56v-4.62h-5.18c-.21,0-.28-.17-.28-.56v-1.08c0-.28,.07-.42,.28-.42h5.18Zm2.28,13.27c.63,.91,1.5,1.68,2.59,2.38,.63,.49,1.37,.88,2.14,1.22,.7-.35,1.33-.7,1.89-1.08,1.05-.74,1.93-1.58,2.66-2.55,.35-.35,.67-.81,.98-1.33h-11.17c.25,.53,.56,.98,.91,1.37Zm8.26-11.2h-8.09v3.12h8.09v-3.12Z"/>
      <path class="cls-1" d="M308.39,18.48c-.56,.98-1.29,1.82-2.24,2.45l-.91-1.01c1.4-1.01,2.17-2.35,2.35-3.99h-2.59v-4.2h4.2v3.85c0,.98-.28,1.93-.81,2.91Z"/>
      <path class="cls-1" d="M339.36,1.5c.35,0,.56,.07,.67,.14,.46,.42,.7,.73,.7,.94l-5.25,7.6c.52,.63,1.01,1.19,1.43,1.72,0,.04-.07,.14-.17,.28-.07,.07-.07,.1-.07,.1h4.06c.32,0,.53,.07,.6,.17,.42,.42,.66,.7,.66,.91l-2.94,6.79c-.07,.14-.14,.21-.21,.21-1.3-.32-1.93-.59-1.93-.84l2.28-5.04h-4.06v15.02c0,1.75-1.43,2.62-4.24,2.62h-1.37c-.17,0-.25-.24-.25-.67-.07-.52-.25-1.12-.56-1.82v-.14c.7,.17,1.37,.28,2.03,.28,1.26,0,1.92-.42,1.92-1.23V14.49h-4.66c-.28,0-.42-.17-.42-.56v-1.09c0-.35,.14-.56,.42-.56h6.51c-.77-.88-1.58-1.71-2.35-2.49-1.01-.95-1.85-1.61-2.52-2.03,0-.1,.35-.63,1.08-1.54,.1-.14,.21-.21,.28-.21,1.12,.88,2.1,1.68,2.87,2.45l3.4-4.8h-8.72c-.28,0-.42-.17-.42-.52v-1.12c0-.35,.14-.53,.42-.53h10.78Zm19.57,0c.28,0,.42,.17,.42,.53v1.12c0,.35-.14,.52-.42,.52h-6.72c-.56,1.3-1.16,2.52-1.79,3.71h7.28c.35,0,.53,.14,.53,.38V25.97c0,.28-.17,.42-.53,.42h-3.43c.88,.88,1.68,1.58,2.45,2.1,.7,.49,1.75,1.01,3.15,1.61,.17,.14,.28,.24,.28,.38,0,.21-.53,.84-1.51,1.89-.07,0-.21-.03-.35-.07-2.66-1.54-4.62-2.94-5.88-4.27-.14-.14-.17-.21-.17-.28,0-.21,.38-.67,1.16-1.37h-5.67l1.37,1.02c.14,.21,.25,.35,.25,.49,0,.07-.11,.11-.25,.11-.32,.07-.53,.14-.67,.21-.74,.74-1.5,1.4-2.31,2-.98,.66-2.24,1.37-3.75,2.07-.28,0-.49-.11-.56-.28-.49-.38-.88-.7-1.22-.98-.17-.07-.25-.17-.25-.24s.04-.14,.14-.18c.7-.21,1.26-.45,1.75-.7,.98-.56,1.85-1.12,2.62-1.75,.56-.49,1.16-1.05,1.86-1.75h-2.84c-.35,0-.53-.14-.53-.42V7.77c0-.25,.18-.38,.53-.38h3.75c.53-.77,.95-1.44,1.23-2.03,.25-.45,.49-1.01,.77-1.68h-6.97c-.28,0-.42-.17-.42-.52v-1.12c0-.35,.14-.53,.42-.53h16.28Zm-3.15,11.2v-3.15h-9.98v3.15h9.98Zm0,5.6v-3.43h-9.98v3.43h9.98Zm0,2.21h-9.98v3.68h9.98v-3.68Z"/>
      <path class="cls-1" d="M367.57,31.57c0,.28-.21,.42-.56,.42h-1.37c-.35,0-.52-.14-.52-.42V1.75c0-.25,.17-.38,.52-.38h9.17c.35,0,.63,.07,.8,.17,.56,.46,.84,.77,.84,.91l-3.85,8.82c-.07,.21-.1,.35-.1,.49s.07,.28,.21,.46c1.01,1.09,1.89,2.38,2.59,3.85,.66,1.58,1.02,3.15,1.02,4.69,0,1.33-.25,2.52-.7,3.5-.53,1.05-1.26,1.75-2.21,2.17-.63,.42-1.65,.63-3.12,.63-.56,0-.84-.17-.84-.56-.1-.77-.28-1.37-.52-1.75,0-.17,.14-.28,.42-.28l1.5,.14c1.12,0,1.93-.38,2.42-1.19,.49-.63,.74-1.54,.74-2.66s-.28-2.34-.84-3.75c-.74-1.54-1.79-3.01-3.15-4.45-.21-.14-.28-.28-.28-.42,0-.11,.04-.28,.11-.49l3.99-8.26h-6.27V31.57ZM387.8,.8c0,.32-.14,.49-.35,.53-.21,.04-.31,.28-.31,.7v3.99h8.33c.28,0,.42,.17,.42,.53v1.08c0,.38-.14,.56-.42,.56h-11.8c-.04,.07-.04,.11-.04,.14-.04,1.89-.1,3.57-.17,5.04h10.22c.28,0,.42,.21,.42,.56-.07,4.83-.24,8.26-.49,10.36-.35,2.52-.77,4.38-1.3,5.6-.52,1.3-1.89,1.96-4.09,1.96-2.03,0-3.08-.32-3.15-.88-.14-.63-.56-1.4-1.23-2.28v-.28c1.58,.56,3.05,.84,4.38,.84,1.12,0,1.85-.46,2.21-1.37,.35-.73,.67-2.17,.91-4.3,.21-1.61,.38-4.31,.49-8.02h-8.54c-.14,1.33-.28,2.49-.46,3.47-.56,2.87-1.29,5.22-2.21,7.04-.98,1.96-2.28,3.75-3.89,5.36-.35,0-.59-.04-.74-.07-.49-.28-.95-.59-1.4-.88-.24-.04-.35-.14-.35-.28s.07-.25,.25-.38c1.79-1.47,3.22-3.36,4.27-5.71,.95-2.24,1.61-4.62,1.96-7.21,.32-2.03,.46-4.94,.46-8.72h-4.45c-.28,0-.42-.17-.42-.56v-1.08c0-.35,.14-.53,.42-.53h7.91V.8c0-.28,.17-.42,.56-.42,1.71,0,2.59,.14,2.59,.42Z"/>
      <path class="cls-1" d="M410.34,3.95c-1.19,.28-2.41,.42-3.64,.42v4.62h7.39c.28,0,.42,.21,.42,.56v1.09c0,.39-.14,.56-.42,.56h-7.39v5.32h19.71v-5.32h-7.53c-.28,0-.42-.17-.42-.56v-1.09c0-.35,.14-.56,.42-.56h7.53V3.95h-7.53c-.28,0-.42-.17-.42-.56v-1.09c0-.35,.14-.56,.42-.56h9.42c.35,0,.56,.14,.56,.42V19.67c0,.38-.21,.56-.56,.56h-1.37c-.35,0-.52-.18-.52-.56v-.95h-5.5v8.75c0,1.02,.63,1.51,1.93,1.51h4.24c.77,0,1.3-.25,1.61-.74,.35-.38,.56-1.61,.7-3.71,0-.31,.11-.49,.28-.49,.66,.42,1.37,.67,2.14,.67,.31,.03,.49,.17,.49,.42-.42,2.59-.98,4.27-1.64,5.18-.42,.63-1.16,.98-2.2,.98h-6.83c-2.1,0-3.15-.77-3.15-2.31v-10.26h-3.67c-.04,1.47-.11,2.7-.21,3.68-.25,1.26-.67,2.38-1.23,3.36-.53,1.01-1.33,1.96-2.45,2.83-1.16,.84-2.56,1.58-4.17,2.17-1.4,.42-2.98,.84-4.69,1.22-.24,0-.38-.14-.38-.42-.35-.46-.7-.95-.98-1.5-.11-.14-.14-.28-.14-.42,2.45-.35,4.41-.74,5.88-1.19,1.16-.35,2.1-.84,2.83-1.54,.67-.45,1.23-1.05,1.68-1.82,.49-.77,.84-1.65,1.09-2.7,.14-.84,.25-2.07,.28-3.68h-5.6v1.37c0,.28-.21,.42-.56,.42h-1.37c-.35,0-.52-.14-.52-.42V1.89c0-.24,.1-.38,.38-.38l1.68,.67c1.61-.04,2.77-.14,3.5-.31,1.43-.21,2.7-.7,3.75-1.47,.11-.07,.25-.14,.38-.14,.11,0,.25,.1,.46,.25,.88,.94,1.33,1.47,1.33,1.54,0,.38-.1,.56-.28,.56l-.95-.14c-1.08,.66-2.49,1.16-4.17,1.5Z"/>
      <path class="cls-1" d="M18.2,46.74c0,.31-.14,.49-.35,.52-.25,.04-.35,.28-.35,.7v1.26h10.96c.17,0,.28,.14,.28,.39v1.12c0,.35-.11,.52-.28,.52h-4.8l1.19,.49c.28,.14,.46,.32,.46,.49,0,.14-.11,.21-.32,.28-.28,0-.46,.14-.52,.35-.49,.98-.95,1.79-1.4,2.49h8.12c.17,0,.28,.14,.28,.42v1.08c0,.39-.1,.56-.28,.56H.56c-.21,0-.28-.17-.28-.56v-1.08c0-.28,.07-.42,.28-.42H8.96c-.07-.21-.14-.38-.21-.59-.32-.88-.74-1.75-1.23-2.66,0-.14,.35-.42,1.12-.84H3.29c-.21,0-.28-.17-.28-.52v-1.12c0-.25,.07-.39,.28-.39H15.05v-2.48c0-.25,.17-.39,.56-.39,1.71,0,2.59,.14,2.59,.39Zm9.56,12.46c.35,0,.56,.14,.56,.38v9.17c0,.28-.21,.42-.56,.42h-10.4v2.31h9.59c.18,0,.28,.14,.28,.42v1.09c0,.39-.1,.56-.28,.56h-9.59v2.07h13.13c.17,0,.28,.1,.28,.38v1.08c0,.35-.1,.56-.28,.56H1.26c-.21,0-.28-.21-.28-.56v-1.08c0-.28,.07-.38,.28-.38H14.91v-2.07H5.08c-.21,0-.28-.17-.28-.56v-1.09c0-.28,.07-.42,.28-.42H14.91v-2.31H4.94c-.39,0-.56-.14-.56-.42v-9.17c0-.25,.17-.38,.56-.38H27.76Zm-12.85,3.96v-1.92H6.86v1.92H14.91Zm0,2.07H6.86v1.89H14.91v-1.89Zm5.22-9.87c.59-.63,1.05-1.22,1.37-1.71,.56-.77,.95-1.54,1.19-2.31,0,0,.03-.04,.03-.07H9.66c.46,.88,.84,1.65,1.12,2.35,.25,.59,.46,1.19,.63,1.75h8.72Zm-2.77,7.81h8.51v-1.92h-8.51v1.92Zm8.51,2.07h-8.51v1.89h8.51v-1.89Z"/>
      <path class="cls-1" d="M50.89,70.96v-2.2c0-.28,.17-.42,.56-.42,1.71,0,2.59,.14,2.59,.42,0,.32-.1,.49-.32,.53-.24,.04-.35,.28-.35,.7v.98h9.56c.18,0,.28,.14,.28,.39v1.12c0,.35-.1,.52-.28,.52h-9.56v2.73h14.07c.17,0,.28,.14,.28,.42v1.08c0,.35-.11,.56-.28,.56h-30.21c-.21,0-.28-.21-.28-.56v-1.08c0-.28,.07-.42,.28-.42h13.65v-2.73h-9.14c-.21,0-.28-.17-.28-.52v-1.12c0-.25,.07-.39,.28-.39h9.14Zm-10.92-1.12c0,.28-.21,.42-.56,.42h-1.37c-.28,0-.38-.14-.38-.42v-21.6c0-.25,.11-.38,.38-.38h8.23c.52,0,.88,.07,1.05,.21,.46,.52,.7,.94,.7,1.29l-3.64,5.99c-.04,.11-.04,.21-.04,.28s.04,.14,.11,.21c.91,.98,1.58,1.96,2.03,2.91,.38,.91,.59,1.79,.59,2.62,0,1.86-.35,3.22-1.01,4.06-.77,1.12-2.03,1.68-3.78,1.68-.98,0-1.47-.18-1.51-.6-.07-.46-.21-.98-.38-1.58,0-.35,.04-.56,.14-.56l1.75,.28c1.05,0,1.68-.28,1.96-.91,.25-.63,.38-1.51,.38-2.66,0-.7-.25-1.43-.7-2.27-.49-.95-1.19-1.86-2.17-2.73-.11-.07-.14-.11-.14-.17s.03-.18,.14-.39l3.4-5.78h-5.18v20.09Zm14.7-20.27c.42,.63,.77,1.26,1.12,1.96h3.33c.77-.7,1.37-1.43,1.86-2.17,.49-.88,.88-1.68,1.19-2.42,.07-.14,.17-.21,.35-.21l1.96,1.15c.14,.14,.24,.25,.24,.35,0,.14-.14,.25-.35,.25-.38,.04-.59,.14-.67,.28-.46,.8-1.08,1.71-1.89,2.76h5.08c.17,0,.28,.14,.28,.42v1.08c0,.39-.1,.56-.28,.56h-9.07c-.38,.35-.77,.7-1.12,1.01,1.61,1.47,2.84,2.77,3.64,3.92,.56-.35,1.01-.74,1.44-1.08,.77-.74,1.36-1.44,1.82-2.07,.11-.11,.28-.17,.56-.17l2.17,1.26c.21,.14,.32,.28,.32,.38,0,.14-.17,.21-.53,.21-.56,.04-.88,.11-.98,.25-.84,.84-2.1,1.86-3.85,3.05,1.08,1.33,2,2.31,2.7,2.87,1.09,.98,2.41,1.86,4.03,2.66,0,.25-.11,.42-.25,.49-.32,.32-.74,.7-1.26,1.16-.1,0-.21-.04-.31-.11-.91-.46-1.82-1.05-2.66-1.82-.6-.49-1.19-1.12-1.82-1.85-.07,1.08-.17,1.92-.38,2.55-.28,.74-.66,1.26-1.16,1.54-.63,.42-1.54,.63-2.7,.63-1.4,0-2.1-.25-2.17-.77-.14-.42-.31-.91-.56-1.4,0-.17,.04-.28,.14-.28,1.05,.21,1.89,.28,2.59,.28s1.19-.25,1.47-.77c.28-.46,.46-1.26,.46-2.38,0-.38-.04-.73-.07-1.05-.77,.67-1.47,1.22-2.06,1.65-1.09,.77-2.24,1.47-3.47,2.1-1.43,.7-2.87,1.33-4.27,1.82-.21,0-.35-.04-.49-.17-.35-.35-.7-.7-1.05-1.05-.07-.11-.07-.21-.07-.28,1.33-.42,2.42-.81,3.26-1.16,1.26-.49,2.55-1.19,3.92-2.07,.84-.56,2.07-1.5,3.61-2.84-.07-.11-.14-.21-.17-.32-.21-.31-.42-.66-.7-1.05-.77,.67-1.4,1.19-1.96,1.58-.91,.63-1.86,1.22-2.84,1.75-1.19,.59-2.35,1.08-3.5,1.5-.21,0-.35-.07-.49-.21-.35-.35-.7-.66-1.05-1.01-.07-.11-.07-.21-.07-.28,1.05-.31,1.96-.63,2.66-.95,1.01-.42,2.06-.94,3.18-1.64,.66-.42,1.58-1.12,2.77-2.17-.42-.42-.91-.91-1.44-1.4-.8,.63-1.58,1.12-2.31,1.54-1.51,.84-2.91,1.5-4.2,2.03-.14,0-.28-.11-.35-.35-.25-.31-.49-.7-.77-1.16-.07-.1-.1-.24-.1-.42,1.33-.35,2.91-.95,4.73-1.85,.95-.53,1.96-1.23,3.01-2.1h-6.37c-.21,0-.28-.17-.28-.56v-1.08c0-.28,.07-.42,.28-.42h4.76c-.18-.28-.35-.56-.49-.84-.63-.98-1.4-2-2.35-2.98,0-.14,.56-.52,1.75-1.12,.91,1.09,1.68,2.07,2.28,2.98Z"/>
      <path class="cls-1" d="M81.69,49.37v-2.49c0-.28,.17-.42,.56-.42,1.71,0,2.59,.14,2.59,.42,0,.32-.14,.49-.35,.53-.21,.03-.32,.28-.32,.7v1.26h9.28v-2.62c0-.25,.17-.39,.56-.39,1.71,0,2.59,.14,2.59,.39,0,.31-.14,.49-.35,.52-.21,.04-.31,.28-.31,.7v1.4h7.91c.28,0,.42,.17,.42,.52v1.09c0,.38-.14,.56-.42,.56h-7.91v2.45c0,.28-.21,.42-.56,.42h-1.37c-.38,0-.56-.14-.56-.42v-2.45h-9.28v2.45c0,.28-.21,.42-.56,.42h-1.37c-.39,0-.56-.14-.56-.42v-2.45h-8.19c-.28,0-.42-.17-.42-.56v-1.09c0-.35,.14-.52,.42-.52h8.19Zm-4.13,11.66c.84,.52,1.61,1.01,2.24,1.47,0,.04-.07,.14-.18,.28-.7,.98-1.05,1.47-1.09,1.47-.98-.7-1.96-1.33-3.01-1.89-.88-.42-1.61-.77-2.17-.98,0-.1,.35-.63,1.08-1.54,.11-.14,.21-.25,.28-.25,1.12,.53,2.07,1.02,2.84,1.44Zm2.42,5c.49,1.12,.77,1.72,.77,1.79,0,.14-.07,.28-.14,.42-.91,2.17-1.79,4.03-2.59,5.57-.46,.88-.98,1.79-1.61,2.83-.14,.28-.18,.59-.18,1.02,0,.28-.1,.42-.28,.42-.14,0-.81-.67-1.96-1.96-.14-.07-.21-.21-.21-.38,0-.14,.04-.28,.14-.38,.56-.53,1.12-1.23,1.68-2.07,.77-1.12,1.54-2.42,2.31-3.85,.63-1.26,1.19-2.38,1.68-3.43,.07-.14,.14-.25,.21-.25s.14,.1,.17,.28Zm-.28-10.01c.88,.63,1.65,1.19,2.28,1.68,0,.04-.07,.14-.17,.28-.7,1.02-1.05,1.51-1.05,1.51-.98-.77-2.03-1.51-3.12-2.17-.91-.52-1.64-.91-2.21-1.12,0-.14,.35-.63,1.05-1.54,.11-.14,.21-.25,.32-.25,1.16,.6,2.13,1.12,2.91,1.61Zm11.41-1.47c.21,.17,.32,.31,.32,.42,0,.28-.21,.38-.56,.38-.28,0-.46,.14-.59,.35-.14,.24-.25,.46-.32,.63h9.8c.21,0,.42,.07,.56,.17,.42,.49,.66,.8,.66,.91-.77,1.54-1.5,2.77-2.17,3.61-.84,1.05-1.72,1.92-2.56,2.62-.28,.21-.53,.38-.74,.53,1.05,.56,2.14,.98,3.29,1.33,1.26,.42,2.84,.77,4.69,1.05,.31,0,.49,.11,.49,.32,0,.14-.07,.28-.21,.46-.35,.46-.63,.88-.88,1.29-.07,.21-.21,.28-.42,.28-2.49-.56-4.38-1.16-5.71-1.72-1.37-.49-2.52-1.05-3.47-1.68-.14,.07-.25,.14-.31,.17-1.47,.74-3.12,1.33-4.87,1.82-1.19,.38-2.76,.7-4.66,.98-.28,0-.49-.07-.59-.25-.28-.35-.53-.74-.74-1.09-.14-.1-.17-.21-.17-.28s.07-.14,.25-.17c1.19-.18,2.34-.39,3.5-.63,2.14-.46,3.92-1.01,5.32-1.71,.11-.04,.21-.11,.32-.17-.56-.42-1.01-.84-1.4-1.26-.7-.63-1.47-1.58-2.38-2.87-.07,.11-.14,.17-.17,.25-.53,.67-1.05,1.26-1.58,1.75-.53,.53-.95,.91-1.26,1.12-.21,0-.35-.1-.49-.31-.28-.42-.6-.81-.95-1.12-.21-.14-.32-.25-.32-.35,0-.04,0-.07,.07-.14,.7-.42,1.29-.88,1.79-1.33,.63-.63,1.29-1.4,1.96-2.38,.42-.59,.8-1.19,1.08-1.79,.32-.63,.6-1.29,.88-2.03,.07-.14,.14-.24,.21-.24l2.31,1.08Zm8.09,13.93c.35,0,.56,.14,.56,.42v8.89c0,.28-.21,.42-.56,.42h-1.37c-.35,0-.53-.14-.53-.42v-.8h-9.31v.8c0,.28-.21,.42-.56,.42h-1.36c-.35,0-.53-.14-.53-.42v-8.89c0-.28,.17-.42,.53-.42h13.13Zm-1.89,6.44v-4.38h-9.31v4.38h9.31Zm-6.37-14c.7,.7,1.54,1.4,2.55,2.07,.42-.25,.81-.49,1.16-.77,.91-.74,1.68-1.58,2.31-2.52,.28-.35,.59-.81,.88-1.33h-8.93c.7,1.09,1.4,1.92,2.03,2.55Z"/>
      <path class="cls-1" d="M115.12,71.14c.35,.14,.53,.31,.53,.49,0,.21-.14,.32-.35,.39-.32,0-.49,.14-.56,.38-.84,2-1.68,3.5-2.49,4.62-.21,.21-.35,.35-.42,.35-.17,0-.38-.07-.59-.21-.49-.21-.91-.42-1.33-.6-.21-.07-.28-.14-.28-.14,0-.07,.04-.17,.14-.28,.77-.98,1.33-1.82,1.72-2.55,.56-.98,.98-1.93,1.26-2.91,.07-.28,.17-.42,.32-.42l2.06,.88Zm11.73-24.54c0,.35-.1,.53-.32,.53-.24,.04-.35,.28-.35,.74v1.08h11.76c.17,0,.28,.14,.28,.42v1.08c0,.28-.1,.38-.28,.38h-4.69l.25,.11c.28,.14,.46,.28,.46,.46,0,.14-.1,.21-.25,.25-.24,0-.38,.1-.45,.31-.59,1.37-1.15,2.42-1.71,3.15h8.44c.18,0,.28,.14,.28,.39v1.12c0,.35-.1,.53-.28,.53h-29.79c-.21,0-.28-.17-.28-.53v-1.12c0-.25,.07-.39,.28-.39h9.17c-.94-1.4-1.82-2.59-2.62-3.57,0-.17,.25-.42,.77-.7h-5.29c-.17,0-.25-.1-.25-.38v-1.08c0-.28,.07-.42,.25-.42h11.48v-2.35c0-.25,.17-.38,.56-.38,1.71,0,2.59,.14,2.59,.38Zm9.03,12.6c.35,0,.56,.14,.56,.38v8.89c0,.28-.21,.42-.56,.42h-21.04c-.39,0-.56-.14-.56-.42v-8.89c0-.25,.17-.38,.56-.38h21.04Zm-1.93,4.1v-2.31h-17.22v2.31h17.22Zm0,1.79h-17.22v2.03h17.22v-2.03Zm-13.37,5.29c.25,.04,.38,.11,.38,.17,0,.25-.07,.39-.17,.42-.14,.04-.21,.18-.21,.39v2.62c0,1.01,.56,1.5,1.75,1.5h6.72c1.68,0,2.66-.14,3.01-.42,.38-.21,.88-1.01,1.5-2.45,.28,.42,.7,.84,1.33,1.19,.28,.1,.42,.25,.42,.42-.84,1.71-1.43,2.66-1.85,2.83-.46,.39-1.37,.6-2.77,.6h-8.61c-2.59,0-3.85-.77-3.85-2.31v-4.94c0-.17,.03-.28,.14-.28l2.21,.25Zm9.59-15.26c-.31-.14-.59-.28-.88-.42-.17-.07-.25-.1-.25-.14s0-.11,.07-.18c.59-.7,1.05-1.29,1.33-1.85,.35-.56,.63-1.12,.84-1.68h-12.53c1.05,1.05,2.03,2.14,2.91,3.29,0,.35-.1,.52-.25,.56-.28,.21-.49,.35-.66,.42h9.42Zm-2.84,16.28c.77,.56,1.43,1.05,2,1.47,0,.07-.07,.14-.17,.28-.7,.91-1.05,1.37-1.08,1.37-.84-.7-1.72-1.33-2.63-1.89-.77-.42-1.37-.77-1.85-.98,0-.1,.31-.56,.94-1.4,.07-.14,.18-.25,.28-.25,1.02,.52,1.86,.98,2.52,1.4Zm11.73,1.08c.88,.91,1.64,1.75,2.27,2.45,0,.04-.07,.14-.17,.28-.67,.98-1.01,1.5-1.05,1.5-.98-1.19-2.03-2.2-3.12-3.15-.91-.77-1.65-1.29-2.21-1.65,0-.1,.35-.63,1.08-1.54,.07-.14,.17-.25,.28-.25,1.19,.84,2.13,1.65,2.91,2.35Z"/>
      <path class="cls-1" d="M156.7,47.23c.28,.21,.42,.35,.42,.49,0,.28-.14,.46-.42,.53-.42,0-.7,.21-.77,.63-.39,1.16-.74,2.17-1.05,3.08h7.28c.25,0,.46,.07,.63,.21,.49,.63,.74,1.02,.74,1.16-.7,3.4-1.37,5.99-1.96,7.77-.74,2.35-1.47,4.27-2.24,5.78-.77,1.5-1.75,2.97-2.94,4.38-1.3,1.61-2.73,2.91-4.31,3.96-1.05,.8-2.45,1.54-4.13,2.17-.35,0-.59-.11-.73-.32-.28-.42-.56-.84-.84-1.22-.14-.14-.21-.28-.21-.35,0-.21,.07-.35,.21-.38,1.05-.35,2.07-.84,3.12-1.4,1.89-1.01,3.43-2.31,4.69-3.85,.66-.77,1.26-1.54,1.79-2.38-1.58-1.4-3.08-2.56-4.55-3.43-.14-.07-.17-.1-.17-.17,0-.14,.38-.67,1.19-1.64,.14-.18,.28-.28,.42-.28,1.61,1.08,3.08,2.2,4.45,3.36,.03-.07,.07-.14,.1-.21,.77-1.65,1.47-3.5,2.03-5.6,.42-1.33,.84-3.12,1.26-5.36h-6.62c-.25,.63-.46,1.15-.66,1.58-.84,1.68-1.71,3.29-2.62,4.79-.95,1.33-1.93,2.56-2.98,3.61-.32,0-.59-.04-.8-.14-.49-.21-.95-.39-1.44-.56-.14-.07-.21-.17-.21-.25,0-.17,.04-.31,.17-.42,1.68-1.54,3.15-3.46,4.45-5.78,.77-1.3,1.47-2.7,2.03-4.2,.63-1.54,1.23-3.57,1.82-6.02,.11-.25,.25-.39,.38-.39l2.49,.88Zm14.49-.21c0,.32-.14,.49-.35,.53-.25,.04-.35,.28-.35,.7v8.75c2.52,2.38,4.83,4.9,6.93,7.6,.21,.17,.31,.38,.31,.63,0,.11-.07,.17-.21,.25-.88,.84-1.4,1.26-1.54,1.26-.17,0-.35-.07-.49-.28-1.75-2.28-3.39-4.24-5-5.85v17.33c0,.28-.18,.42-.53,.42h-1.37c-.38,0-.56-.14-.56-.42v-30.91c0-.28,.17-.42,.56-.42,1.71,0,2.59,.14,2.59,.42Z"/>
      <path class="cls-1" d="M199.19,64.7c-.56,.98-1.29,1.82-2.24,2.45l-.91-1.01c1.4-1.01,2.17-2.35,2.35-3.99h-2.59v-4.2h4.2v3.85c0,.98-.28,1.93-.8,2.91Z"/>
      <path class="cls-1" d="M233.56,53.32c-.21-1.26-.31-2.62-.35-4.1h-5.36c-.28,0-.42-.17-.42-.56v-1.08c0-.35,.14-.56,.42-.56h6.97c.35,0,.56,.14,.56,.42,0,2.17,.14,4.13,.46,5.88h11.17c.42,0,.67,.17,.67,.53v21.39c0,.84-.52,1.54-1.5,2.07-.95,.35-2.17,.63-3.68,.77-.28,0-.42-.14-.46-.42-.03-.49-.28-1.23-.77-2.17,0-.14,.1-.17,.31-.17,1.75,0,2.77-.1,3.08-.32,.35-.21,.56-.52,.56-1.01v-6.27c-.07,.04-.1,.07-.14,.07-.42,.38-.84,.77-1.23,1.19-.17,.14-.42,.21-.7,.21-.91-.35-1.92-1.09-3.12-2.27-1.64-1.54-2.87-3.12-3.64-4.76-.7-1.19-1.26-2.45-1.68-3.82-.28,.59-.59,1.12-.88,1.58-.84,1.54-1.71,2.91-2.59,4.1-1.05,1.26-2.17,2.45-3.39,3.57-1.54,1.26-2.38,1.89-2.59,1.89s-.35-.14-.49-.49c-.38-.42-.8-.91-1.26-1.4-.07-.07-.14-.11-.17-.18v10.54c0,.28-.21,.42-.56,.42h-1.37c-.35,0-.52-.14-.52-.42v-24.08c0-.35,.17-.53,.52-.53h12.15Zm-6.13,10.92c1.16-1.05,2.31-2.41,3.5-4.06,.63-1.05,1.47-2.59,2.45-4.69h-10.05v11.55c1.61-.91,2.98-1.82,4.09-2.8Zm10.78-3.54c.81,1.54,1.93,2.91,3.4,4.13,.98,.88,2.14,1.61,3.4,2.21,.07,.07,.14,.1,.21,.14v-11.69h-8.93c.46,2.06,1.09,3.81,1.92,5.21Z"/>
      <path class="cls-1" d="M259.74,55.91v-8.33c0-.28,.17-.42,.56-.42,1.72,0,2.59,.14,2.59,.42,0,.31-.14,.49-.35,.49-.25,.07-.35,.31-.35,.73v7.11h4.24c.28,0,.42,.14,.42,.42v1.37c0,.35-.14,.52-.42,.52h-4.24v11.31c1.5-.56,2.94-1.16,4.31-1.79,.07-.04,.14-.07,.21-.07,.17,0,.28,.14,.28,.42,0,1.26-.07,1.93-.14,2.03-3.29,1.44-6.62,2.73-9.98,3.85-.42,.63-.74,.95-.95,.95-.25,0-.7-.98-1.37-3.01,1.47-.31,3.19-.8,5.18-1.5v-12.18h-4.24c-.28,0-.42-.17-.42-.52v-1.37c0-.28,.14-.42,.42-.42h4.24Zm17.36,1.54c.45,0,.7,.17,.7,.52,0,.42-.17,.63-.49,.67-.35,.07-.49,.28-.49,.7-.14,1.96-.28,3.64-.49,5.04,.42,1.54,.91,2.87,1.54,3.99,.7,1.4,1.58,2.62,2.7,3.68,1.19,1.33,2.55,2.31,4.13,3.01,.77,.38,1.51,.67,2.17,.84,.21,.07,.35,.18,.35,.25,0,.25-.07,.42-.21,.53-.42,.49-.77,.95-1.12,1.37-.1,.21-.25,.31-.46,.31-.14,0-.66-.21-1.54-.59-2.24-1.19-4.03-2.52-5.36-3.96-1.05-1.16-1.96-2.49-2.77-3.99-.17-.35-.35-.7-.49-1.09-.8,2.28-1.79,4.1-2.97,5.43-1.4,1.79-3.19,3.19-5.32,4.2-.28,0-.46-.07-.52-.17-.35-.31-.74-.59-1.19-.88-.25-.21-.35-.35-.35-.46,0-.21,.17-.38,.56-.49,1.93-1.12,3.4-2.27,4.41-3.5,1.12-1.16,2.03-2.59,2.66-4.27,1.05-2.45,1.61-5.95,1.61-10.54,0-.49,.21-.77,.63-.77l2.31,.17Zm-3.12-10.22c.25,.21,.38,.35,.38,.49,0,.21-.1,.32-.28,.38-.25,0-.39,.18-.42,.53-.28,1.4-.56,2.56-.81,3.47h12.18c.31,0,.52,.07,.63,.14,.49,.42,.74,.74,.74,.95l-3.68,10.36c-.1,.21-.21,.31-.31,.31-1.37-.38-2.03-.7-2.03-.98l3.12-8.47h-11.31c-.42,1.26-.88,2.42-1.29,3.54-.49,1.08-1.05,2.06-1.61,2.91-.28,0-.53-.04-.74-.14-.46-.17-.91-.35-1.37-.49-.14-.07-.21-.14-.21-.21,0-.14,.04-.25,.11-.31,.84-1.26,1.61-2.84,2.31-4.69,.42-1.05,.77-2.21,1.08-3.43,.31-1.26,.63-2.91,.95-4.94,.03-.17,.1-.28,.21-.28l2.34,.88Z"/>
      <path class="cls-1" d="M297.36,62.6c.35,0,.56,.14,.56,.42v7.95c0,.46,0,1.02,.07,1.72,.45,.98,1.09,1.79,1.85,2.45,.98,.67,2.41,1.01,4.34,1.01h9.59c.84,0,2.28-.1,4.31-.31,1.86-.17,3.29-.39,4.31-.6,.1-.03,.25-.03,.42-.03s.28,.07,.28,.28c-.42,.74-.77,1.4-1.01,2.03-.07,.46-.28,.7-.63,.7h-17.26c-2.45,0-4.45-.63-5.92-1.86-.7-.7-1.29-1.61-1.85-2.83-1.05,1.19-2,2.24-2.8,3.22-.53,.35-.8,.77-.8,1.26,0,.38-.11,.59-.25,.59-.11,0-.25-.1-.42-.28l-1.61-2.45c.52-.07,2-1.23,4.38-3.57,.35-.21,.53-.63,.53-1.33v-6.16h-3.4c-.28,0-.42-.17-.42-.56v-1.08c0-.35,.14-.56,.42-.56h5.32Zm-2.06-6.72c.91,.63,1.68,1.19,2.34,1.68,0,.04-.07,.14-.17,.28-.7,1.01-1.05,1.5-1.05,1.5-1.02-.77-2.07-1.5-3.19-2.17-.95-.53-1.72-.91-2.28-1.12,0-.11,.35-.63,1.05-1.54,.11-.14,.21-.25,.32-.25,1.19,.59,2.21,1.12,2.98,1.61Zm1.33-7.98c.91,.53,1.71,1.02,2.38,1.47,0,.04-.07,.14-.17,.28-.7,.98-1.05,1.47-1.05,1.47-1.05-.7-2.13-1.33-3.25-1.89-.95-.42-1.71-.77-2.35-.98,0-.11,.35-.63,1.05-1.54,.1-.14,.21-.25,.31-.25,1.23,.52,2.24,1.01,3.08,1.43Zm15.79,16.21c0,.28-.1,.46-.28,.49-.21,.04-.28,.25-.28,.63v1.37h10.4c.17,0,.28,.14,.28,.38v.84c0,.35-.11,.53-.28,.53h-14.28c-.07,.14-.07,.21-.07,.28-.04,.35-.07,.63-.07,.84h11.83c.42,0,.66,.14,.66,.38-.49,1.47-.98,2.7-1.47,3.71-.35,.74-.7,1.19-1.12,1.33-.52,.21-1.54,.32-3.01,.32s-2.14-.21-2.17-.67c-.1-.42-.28-.91-.56-1.54,0-.07,.07-.14,.28-.14,1.05,.11,1.89,.14,2.59,.14,.56,0,.98-.07,1.29-.21,.14-.07,.53-.56,1.12-1.54h-9.87c-.07,.17-.14,.32-.17,.42-.42,.91-.98,1.65-1.61,2.21-.7,.63-1.61,1.12-2.66,1.47-.21,0-.35-.07-.42-.14-.31-.25-.67-.49-1.05-.74-.21-.14-.28-.25-.28-.35,0-.07,.07-.14,.25-.17,.98-.42,1.75-.84,2.28-1.29,.59-.42,1.05-.91,1.37-1.54,.42-.7,.7-1.61,.8-2.77h-6.2c-.21,0-.28-.17-.28-.53v-.84c0-.25,.07-.38,.28-.38h9.84v-2.62c0-.14,.14-.25,.42-.25,1.61,0,2.45,.14,2.45,.38Zm-1.01-17.57c.28,.07,.45,.24,.45,.49,0,.35-.18,.49-.49,.49-.25,.11-.38,.25-.46,.46-.04,.07-.07,.14-.07,.14h9.49c.35,0,.56,.14,.56,.42v10.12c0,.28-.21,.42-.56,.42h-8.05v1.5h9.98c.35,0,.56,.14,.56,.42v3.54c0,.28-.21,.42-.56,.42h-1.37c-.28,0-.42-.14-.42-.42v-2.31h-5.04v.38c0,.84,.7,1.26,2.17,1.26h.17c.63,0,1.4-.07,2.31-.28,.07,0,.14,.07,.14,.14-.35,.46-.59,.88-.67,1.29-.04,.32-.17,.46-.46,.46h-2.03c-2.38,0-3.57-.56-3.57-1.75v-1.5h-6.09l.95,.7c.14,.18,.21,.32,.21,.39s-.07,.07-.14,.07c-.14,.04-.28,.07-.35,.11-.38,.46-.8,.84-1.22,1.19-.53,.42-1.19,.84-1.96,1.22-.25,0-.39-.07-.46-.21-.39-.28-.7-.56-.98-.8-.14-.07-.21-.14-.21-.21,0,0,0-.04,.07-.11,.35-.1,.67-.25,.91-.42,.52-.28,.98-.63,1.4-1.05,.25-.25,.49-.53,.77-.88h-4.52v2.31c0,.28-.21,.42-.56,.42h-1.37c-.28,0-.39-.14-.39-.42v-3.54c0-.28,.11-.42,.39-.42h9.87v-1.5h-6.86c-.35,0-.52-.14-.52-.42v-10.12c0-.28,.17-.42,.52-.42h5.18c.28-.49,.56-1.05,.84-1.75,.07-.17,.21-.28,.42-.28l2,.46Zm7.18,4.72v-1.5h-13.83v1.5h13.83Zm0,3.15v-1.5h-13.83v1.5h13.83Zm0,1.65h-13.83v1.37h13.83v-1.37Z"/>
      <path class="cls-1" d="M332.54,54.13v-6.97c0-.28,.17-.42,.56-.42,1.72,0,2.59,.14,2.59,.42,0,.31-.14,.49-.35,.52-.25,.04-.35,.28-.35,.7v5.74h3.29c.28,0,.42,.21,.42,.56v1.08c0,.39-.14,.56-.42,.56h-3.04c.52,1.54,1.01,2.73,1.43,3.57,.56,1.26,1.51,2.66,2.87,4.24,.14,.14,.24,.25,.24,.38,0,.07-.1,.17-.24,.28-.28,.35-.6,.74-1.02,1.08-.14,.21-.28,.28-.38,.28s-.25-.07-.42-.25c-.95-1.19-1.75-2.52-2.45-4.06-.11-.21-.21-.45-.28-.66v16.73c0,.28-.17,.42-.53,.42h-1.37c-.38,0-.56-.14-.56-.42v-15.05c-.39,.88-.77,1.68-1.16,2.41-.67,1.29-1.44,2.49-2.28,3.61-.25,0-.42-.04-.56-.18-.49-.24-.98-.49-1.47-.73-.21,0-.28-.04-.28-.18,1.16-1.4,2.1-2.8,2.8-4.13,.7-1.26,1.22-2.52,1.65-3.75,.31-.77,.67-2,1.09-3.61h-4.03c-.28,0-.42-.17-.42-.56v-1.08c0-.35,.14-.56,.42-.56h4.24Zm10.26,20.37h16.42c.25,0,.38,.21,.38,.56v1.08c0,.35-.14,.56-.38,.56h-16.42v1.22c0,.28-.21,.42-.56,.42h-1.37c-.35,0-.53-.14-.53-.42v-29.96c0-.35,.17-.53,.53-.53h18.06c.28,0,.42,.18,.42,.53v1.12c0,.35-.14,.53-.42,.53h-16.14v24.89Zm15.3-21.6c.28,0,.42,.21,.42,.56v1.08c0,.38-.14,.56-.42,.56h-5.6v5.99h5.21c.25,0,.39,.21,.39,.56v1.08c0,.38-.14,.56-.39,.56h-5.21v6.02h5.88c.28,0,.42,.17,.42,.52v1.12c0,.35-.14,.53-.42,.53h-13.79c-.28,0-.42-.17-.42-.53v-1.12c0-.35,.14-.52,.42-.52h5.46v-6.02h-4.8c-.28,0-.38-.18-.38-.56v-1.08c0-.35,.1-.56,.38-.56h4.8v-5.99h-5.46c-.28,0-.42-.17-.42-.56v-1.08c0-.35,.14-.56,.42-.56h13.51Z"/>
      <path class="cls-1" d="M395.05,47.86c.28,0,.42,.17,.42,.52v1.08c0,.39-.14,.56-.42,.56h-14.07v4.94h12.15c.46,0,.7,.17,.7,.53v19.92c0,.8-.49,1.43-1.47,1.92-.95,.35-2.13,.59-3.61,.74-.25,0-.38-.14-.42-.42-.07-.49-.31-1.23-.8-2.17,0-.14,.1-.17,.31-.17,1.68,0,2.66-.1,2.98-.28,.35-.17,.56-.49,.56-.91v-3.92c-.07,.07-.11,.14-.14,.14-.77,.7-1.29,1.02-1.5,1.02-1.16-1.51-2.03-3.08-2.62-4.69-.14-.28-.21-.6-.28-.95-.17,.42-.32,.8-.46,1.09-.46,.95-.91,1.82-1.4,2.62-.56,.88-1.12,1.61-1.68,2.21-.25,0-.42-.07-.56-.21-.42-.42-.84-.84-1.26-1.19-.07-.14-.11-.28-.11-.39,.53-.49,.95-.94,1.3-1.43,.49-.6,.98-1.44,1.54-2.52,.28-.56,.66-1.54,1.16-2.87h-2.35c-.28,0-.38-.17-.38-.53v-1.12c0-.35,.1-.52,.38-.52h5.22c.17,0,.28,.14,.28,.38,0,1.75,.28,3.4,.91,4.94,.56,1.33,1.19,2.49,1.96,3.46v-12.5h-10.4v20.37c0,.28-.21,.42-.56,.42h-1.37c-.39,0-.56-.14-.56-.42v-7c-.77,.67-1.26,.98-1.5,.98-1.19-1.5-2.07-3.08-2.7-4.69-.07-.21-.14-.46-.21-.67-.14,.32-.25,.56-.32,.74-.42,.94-.88,1.82-1.37,2.59-.56,.84-1.12,1.58-1.68,2.17-.25,0-.46-.07-.6-.21-.42-.42-.8-.84-1.22-1.19-.07-.14-.11-.28-.11-.39,.53-.49,.95-.94,1.3-1.4,.49-.6,.98-1.44,1.5-2.49,.28-.56,.66-1.5,1.16-2.8h-2.73c-.28,0-.38-.17-.38-.56v-1.08c0-.35,.1-.53,.38-.53h5.36c.14,0,.25,.14,.25,.38,0,1.75,.32,3.4,.98,4.94,.56,1.26,1.19,2.35,1.89,3.29v-12.46h-10.12v20.65c0,.28-.17,.42-.52,.42h-1.37c-.39,0-.56-.14-.56-.42v-22.3c0-.35,.17-.53,.56-.53h12.01v-4.94h-13.79c-.28,0-.42-.17-.42-.56v-1.08c0-.35,.14-.52,.42-.52h30.35Z"/>
      <path class="cls-1" d="M413.81,48.84c-.74,.42-1.54,.77-2.38,1.12-1.05,.42-2.21,.77-3.4,1.05-.77,.21-1.72,.42-2.84,.63v3.57h7.95c.25,0,.38,.21,.38,.56v1.08c0,.39-.14,.56-.38,.56h-7.95v4.94h7.95c.25,0,.38,.17,.38,.53v1.08c0,.38-.14,.56-.38,.56h-7.95v5.92c.53-.07,1.09-.17,1.65-.32,2.73-.49,5.29-1.01,7.7-1.58,.07-.04,.14-.07,.25-.07,.14,0,.25,.1,.25,.28,0,1.19-.07,1.82-.14,1.93-3.25,.7-6.48,1.29-9.7,1.85v5.39c0,.28-.21,.42-.56,.42h-1.37c-.35,0-.53-.14-.53-.42v-4.94c-.28,.07-.49,.14-.7,.14-.35,.67-.59,.98-.8,.98s-.66-.94-1.37-2.87c.88-.1,1.82-.25,2.87-.42v-21.74c0-.28,.14-.42,.42-.42l1.96,.77c.91-.18,1.79-.39,2.62-.63,1.12-.28,2.2-.7,3.22-1.22,.7-.35,1.37-.74,2-1.23h.17c.1,0,.21,.11,.35,.28,1.02,1.26,1.54,1.96,1.54,2.03,0,.21-.11,.28-.25,.28l-.84-.14c-.07,0-.1,.04-.14,.04Zm15.47,13.09c.17,0,.35,.07,.49,.21,.38,.63,.59,1.01,.59,1.16-.7,2.17-1.33,3.82-1.89,4.97-.74,1.47-1.47,2.7-2.21,3.64-.31,.38-.63,.74-.91,1.05,.7,.63,1.54,1.19,2.56,1.68,1.12,.63,2.56,1.19,4.34,1.68,.17,.07,.28,.14,.28,.24,0,.14-.07,.25-.17,.39-.42,.35-.8,.73-1.22,1.22-.18,.21-.28,.32-.35,.32s-.28-.11-.59-.25c-.84-.35-1.79-.74-2.77-1.19-1.22-.63-2.34-1.37-3.36-2.13-.17-.14-.31-.25-.42-.39-.1,.11-.17,.18-.21,.18-1.29,.98-2.7,1.82-4.24,2.52-1.05,.49-2.38,.95-4.03,1.37-.25,0-.42-.1-.53-.25-.25-.38-.46-.73-.67-1.08-.14-.14-.17-.21-.17-.28,0-.14,.07-.25,.25-.25,.98-.28,2-.56,3.01-.91,1.86-.67,3.4-1.47,4.62-2.45,.14-.11,.28-.21,.42-.35-.32-.31-.56-.63-.77-.91-.91-1.09-1.54-2.21-1.92-3.4-.63-1.19-1.16-2.73-1.58-4.62h-1.68c-.21,0-.28-.17-.28-.53v-1.09c0-.35,.07-.56,.28-.56h13.13Zm-2.62-14.21c.35,0,.56,.17,.56,.53v8.12c0,.28,.07,.49,.25,.56,.21,.14,.56,.21,.98,.21h.28c.53,0,.88-.1,1.05-.38,.21-.28,.42-.88,.63-1.79,0-.07,.1-.14,.38-.14,.07,0,.21,.07,.42,.14,.28,.14,.67,.28,1.12,.38,.32,.07,.49,.28,.49,.56-.35,1.26-.74,2.27-1.16,2.97-.31,.49-.98,.7-2,.7h-2.45c-.91,0-1.61-.14-2.07-.42-.28-.21-.38-.53-.38-1.01v-8.26h-4.8v1.58c0,1.47-.14,2.84-.38,4.03-.28,1.09-.74,2.03-1.4,2.87-.42,.56-1.01,1.09-1.79,1.64-.28,0-.49-.07-.63-.21-.31-.38-.63-.77-.91-1.12-.14-.14-.21-.28-.21-.46,1.33-.98,2.21-2.13,2.63-3.5,.24-.98,.38-2.1,.38-3.36v-3.12c0-.35,.1-.53,.38-.53h8.61Zm-5.71,18.9c.42,1.26,1.02,2.41,1.79,3.46,.35,.56,.7,1.02,1.08,1.4,.35-.38,.7-.77,1.02-1.16,.77-1.05,1.43-2.28,2-3.61,.31-.67,.67-1.54,1.01-2.62h-7.67c.21,.98,.49,1.82,.77,2.52Z"/>
      <path class="cls-1" d="M16.31,99.54c-.14-1.89-.17-3.88-.17-6.02,0-.46,.14-.7,.42-.7l2.31,.14c.35,.07,.56,.21,.56,.42,0,.35-.14,.52-.38,.52-.28,.14-.42,.42-.42,.84,0,1.68,.04,3.29,.14,4.79h12.29c.28,0,.42,.17,.42,.53v1.12c0,.35-.14,.53-.42,.53h-12.15c.07,.88,.14,1.71,.25,2.52,.35,2.91,.98,5.53,1.86,7.84,.77,2.21,1.68,4.06,2.73,5.53,.84,1.4,1.68,2.42,2.52,3.12,.56,.28,.91,.42,1.12,.42,.17,0,.38-.17,.63-.53,.28-.38,.88-1.79,1.71-4.2,.14-.38,.25-.59,.38-.59s.21,.07,.28,.21c.25,.42,.56,.8,.98,1.12,.14,.25,.25,.49,.25,.7-.98,2.42-1.79,4.17-2.42,5.29-.63,.77-1.19,1.16-1.68,1.16-.8,0-1.89-.67-3.29-1.93-1.19-1.12-2.38-2.73-3.57-4.83-1.02-1.75-1.93-4.13-2.73-7.21-.74-2.62-1.23-5.43-1.44-8.4v-.21H.56c-.28,0-.42-.18-.42-.53v-1.12c0-.35,.14-.53,.42-.53h15.75Zm-1.82,7.53c.28,0,.42,.17,.42,.52v1.12c0,.35-.14,.53-.42,.53h-5.04v9.35c2.03-.46,3.95-.95,5.78-1.47,.07-.04,.14-.07,.25-.07,.17,0,.28,.11,.28,.28,0,1.16-.07,1.79-.14,1.89-4.2,1.12-8.47,2.1-12.74,3.01-.35,.63-.59,.98-.8,.98s-.66-.98-1.37-2.87c1.75-.25,3.85-.63,6.3-1.19v-9.91H1.64c-.28,0-.38-.17-.38-.53v-1.12c0-.35,.11-.52,.38-.52H14.49Zm12.71-11.8c1.02,.7,1.89,1.37,2.63,1.93,0,.07-.07,.17-.18,.31-.77,1.08-1.19,1.61-1.19,1.61-1.12-.95-2.28-1.82-3.5-2.62-1.01-.63-1.85-1.05-2.52-1.33,0-.14,.35-.63,1.09-1.54,.1-.14,.21-.25,.28-.25,1.36,.7,2.48,1.33,3.39,1.89Z"/>
      <path class="cls-1" d="M50.09,93.8c.35,0,.56,.14,.56,.38v10.96c0,.38-.21,.56-.56,.56h-9.56v18.31c0,.28-.21,.42-.56,.42h-1.37c-.38,0-.56-.14-.56-.42v-29.82c0-.25,.18-.38,.56-.38h11.48Zm-1.93,4.9v-2.87h-7.63v2.87h7.63Zm0,4.94v-2.87h-7.63v2.87h7.63Zm11.76,4.8c.17,0,.28,.14,.28,.38v1.12c0,.35-.11,.52-.28,.52h-3.15v4.1h4.79c.18,0,.28,.14,.28,.42v1.08c0,.39-.1,.56-.28,.56h-4.79v6.97c0,.28-.17,.42-.53,.42h-1.37c-.28,0-.42-.14-.42-.42v-6.97h-4.38c-.11,.66-.25,1.29-.42,1.86-.42,1.37-1.19,2.55-2.38,3.57-.77,.7-1.79,1.4-3.08,2.1-.28,0-.49-.07-.63-.21-.32-.42-.63-.8-.91-1.12-.17-.17-.25-.31-.25-.46,2.52-1.26,4.16-2.8,4.94-4.59,.14-.35,.25-.74,.31-1.16h-4.55c-.21,0-.28-.17-.28-.56v-1.08c0-.28,.07-.42,.28-.42h4.87c0-.38,.04-.77,.04-1.12v-2.98h-3.26c-.21,0-.28-.17-.28-.52v-1.12c0-.25,.07-.38,.28-.38h15.16Zm-5.46,2.03h-4.1v2.94c0,.42-.03,.81-.03,1.16h4.13v-4.1Zm11.06-16.66c.46,0,.7,.14,.7,.38v26.57c0,1.09-.56,1.96-1.68,2.59-1.05,.45-2.38,.77-4.06,.95-.28,0-.42-.14-.46-.42-.03-.49-.28-1.23-.77-2.17,0-.14,.1-.21,.31-.21,2,0,3.19-.14,3.54-.42,.42-.28,.66-.7,.66-1.33v-14.18h-9.31c-.38,0-.56-.17-.56-.56v-10.82c0-.25,.17-.38,.56-.38h11.06Zm-1.75,4.9v-2.87h-7.39v2.87h7.39Zm0,4.8v-2.73h-7.39v2.73h7.39Z"/>
      <path class="cls-1" d="M86.77,93.8c.35,0,.53,.14,.53,.38v9.87c0,.35-.17,.53-.53,.53h-10.68v19.43c0,.28-.17,.42-.53,.42h-1.4c-.35,0-.53-.14-.53-.42v-29.82c0-.25,.17-.38,.53-.38h12.6Zm-1.92,4.38v-2.34h-8.75v2.34h8.75Zm0,4.38v-2.35h-8.75v2.35h8.75Zm-.14,3.36c.07,.21,.14,.31,.14,.31,0,.18-.17,.25-.46,.25-.42,0-.66,.11-.77,.32-.77,.84-1.47,1.58-2.14,2.24,.42,.35,.77,.7,1.12,1.01,.21-.21,.42-.42,.59-.63,1.05-1.05,1.89-2.03,2.59-2.91,1.37,1.16,2.07,1.79,2.07,1.93,0,.07-.11,.1-.32,.1-.42,0-.7,.07-.8,.14-1.47,1.47-2.91,2.84-4.34,4.06,.98-.07,2.13-.17,3.43-.28-.18-.42-.35-.88-.56-1.3,0-.14,.49-.46,1.5-.98,.42,.98,.81,1.85,1.09,2.62,.25,.74,.49,1.5,.7,2.31,0,.07-.6,.28-1.79,.56-.1-.52-.28-1.16-.49-1.92,0,0-.04-.04-.04-.07l-7.28,1.58c-.56,.56-.88,.8-.94,.8-.11,0-.28-.91-.56-2.73,0-.07,.7-.18,2.17-.35,.7-.7,1.37-1.33,1.96-1.89-.81-.56-1.4-.98-1.82-1.26-.74-.42-1.51-.8-2.31-1.12,0-.17,.35-.67,1.12-1.47,.07-.11,.14-.17,.25-.17,.42,.28,.84,.56,1.26,.84,.42-.42,.77-.88,1.08-1.29,.63-.84,1.09-1.47,1.37-1.89l2.17,1.19Zm-3.01,10.15c0,.28-.1,.46-.28,.49-.17,.04-.25,.25-.25,.63v1.75h3.64c0-.21,.04-.46,.04-.66v-2.07c0-.25,.04-.38,.14-.38,1.82,.21,2.73,.31,2.73,.38,0,.25-.1,.38-.28,.38-.28,.17-.38,.46-.38,.88v.81c0,.56-.07,1.19-.17,1.89-.11,.74-.32,1.37-.67,1.96-.32,.56-.7,1.09-1.19,1.58-.42,.39-1.01,.81-1.82,1.26-.14,0-.25-.11-.35-.25-.32-.32-.67-.59-1.01-.81-.21-.14-.28-.24-.28-.31,.84-.46,1.4-.81,1.71-1.08,.35-.35,.63-.7,.88-1.08,.07-.14,.17-.35,.28-.56h-3.26v.42c0,.28-.21,.42-.56,.42h-1.09c-.38,0-.56-.14-.56-.42v-5.22c0-.14,.18-.24,.56-.24,1.43,0,2.17,.1,2.17,.24Zm14.11-10.15c.07,.21,.14,.31,.14,.31,0,.18-.18,.25-.46,.25-.42,0-.7,.11-.81,.32-.8,.8-1.54,1.5-2.24,2.13,.46,.46,.91,.91,1.37,1.33,.25-.28,.46-.52,.67-.77,.98-1.12,1.86-2.17,2.56-3.12,1.33,1.16,2.03,1.79,2.03,1.92,0,.11-.11,.14-.28,.14-.42,0-.7,.07-.77,.14-1.4,1.58-2.8,3.01-4.16,4.34,1.05-.07,2.28-.18,3.64-.32-.25-.49-.49-.95-.74-1.44,0-.14,.49-.46,1.5-.98,.49,.98,.91,1.85,1.26,2.62,.28,.74,.56,1.5,.8,2.31,0,.07-.59,.28-1.79,.56-.11-.52-.28-1.16-.56-1.89l-6.96,1.61c-.18,.18-.32,.32-.45,.42h.03c1.47,0,2.21,.1,2.21,.24,0,.28-.11,.46-.28,.49-.21,.04-.28,.25-.28,.63v1.75h3.43v-2.73c0-.14,.17-.25,.52-.25,1.47,0,2.21,.1,2.21,.25,0,.28-.11,.46-.28,.49-.21,.03-.28,.25-.28,.63v3.67c0,.28-.17,.42-.53,.42h-1.12c-.35,0-.52-.14-.52-.42v-.14h-3.43v3.15c0,.28-.21,.42-.56,.42h-1.09c-.35,0-.52-.14-.52-.42v-7.81c-.11,0-.28-.91-.56-2.73,0-.07,.53-.14,1.61-.28,.63-.67,1.23-1.29,1.71-1.85-.84-.67-1.5-1.16-1.92-1.47-.7-.42-1.44-.8-2.21-1.16,0-.17,.35-.67,1.09-1.47,.07-.11,.17-.17,.28-.17,.31,.24,.67,.49,1.01,.73,.39-.42,.74-.8,1.05-1.19,.66-.84,1.15-1.47,1.47-1.89l2.21,1.19Zm7.11-12.11c.42,0,.67,.14,.67,.38v26.92c0,1.12-.38,2-1.15,2.62-.74,.49-1.68,.81-2.8,.98-.28,0-.42-.14-.46-.42-.04-.49-.28-1.23-.77-2.21,0-.14,.07-.21,.21-.21,1.19,0,1.89-.14,2.13-.39,.25-.28,.38-.7,.38-1.33v-15.58h-10.68c-.35,0-.53-.18-.53-.53v-9.87c0-.25,.18-.38,.53-.38h12.46Zm-1.79,4.38v-2.34h-8.75v2.34h8.75Zm0,4.38v-2.35h-8.75v2.35h8.75Z"/>
      <path class="cls-1" d="M121.66,98.45c.28,0,.42,.17,.42,.53v1.08c0,.38-.14,.56-.42,.56h-12.18c-.28,0-.42-.17-.42-.56v-1.08c0-.35,.14-.53,.42-.53h12.18Zm-.95,14.88c.35,0,.53,.14,.53,.42v10.12c0,.28-.17,.42-.53,.42h-1.4c-.35,0-.53-.14-.53-.42v-1.23h-6.44v1.37c0,.28-.17,.42-.53,.42h-1.37c-.38,0-.56-.14-.56-.42v-10.12c0-.35,.17-.56,.56-.56h10.26Zm-.42-5.04c.28,0,.42,.17,.42,.53v1.12c0,.35-.14,.52-.42,.52h-9.45c-.28,0-.38-.17-.38-.52v-1.12c0-.35,.11-.53,.38-.53h9.45Zm0-5.08c.28,0,.42,.21,.42,.56v1.08c0,.39-.14,.56-.42,.56h-9.31c-.28,0-.42-.17-.42-.56v-1.08c0-.35,.14-.56,.42-.56h9.31Zm0-9.56c.28,0,.42,.18,.42,.53v1.12c0,.35-.14,.53-.42,.53h-9.17c-.28,0-.42-.17-.42-.53v-1.12c0-.35,.14-.53,.42-.53h9.17Zm-1.5,26.78v-4.9h-6.44v4.9h6.44Zm18.45-12.99c.21,0,.42,.1,.56,.25,.42,.63,.67,.98,.67,1.12-.67,2.17-1.26,3.85-1.82,4.97-.7,1.47-1.4,2.7-2.1,3.67-.42,.53-.84,1.02-1.3,1.47,.88,.7,1.96,1.29,3.26,1.79,1.19,.56,2.73,1.05,4.66,1.47,.21,.04,.32,.11,.32,.17,0,.14-.07,.25-.17,.39-.42,.35-.81,.73-1.23,1.22-.17,.21-.32,.32-.38,.32s-.28-.07-.6-.21c-.91-.28-1.92-.63-3.01-1.02-1.33-.56-2.52-1.19-3.57-1.86-.39-.24-.74-.49-1.02-.73-1.16,.91-2.42,1.64-3.78,2.28-.98,.52-2.28,.98-3.89,1.4-.31,0-.52-.1-.63-.31-.28-.39-.56-.77-.8-1.16-.14-.14-.21-.25-.21-.32,0-.14,.07-.21,.21-.25,.98-.24,1.96-.52,2.94-.88,1.75-.63,3.22-1.43,4.38-2.34-.07-.07-.14-.11-.14-.14-.98-.94-1.65-1.92-2.07-2.97-.66-1.08-1.26-2.52-1.75-4.31v-.32c0-.1,.74-.25,2.21-.42,.25,1.23,.59,2.24,1.02,3.08,.49,1.12,1.15,2.1,1.92,2.98,.14,.21,.32,.42,.53,.6,.49-.49,.98-1.05,1.4-1.61,.74-1.05,1.37-2.21,1.89-3.54,.31-.67,.63-1.54,.95-2.59h-11.69c-.28,0-.38-.17-.38-.56v-1.09c0-.35,.1-.56,.38-.56h13.27Zm-2.45-14.07c.35,0,.52,.14,.52,.42v7.98c0,.28,.07,.49,.28,.56,.21,.14,.53,.21,.98,.21h1.22c.49,0,.84-.17,.98-.56,.21-.46,.38-1.33,.59-2.66,0-.14,.11-.21,.32-.21,.07,0,.25,.07,.45,.14,.28,.14,.67,.28,1.12,.42,.31,.07,.49,.24,.49,.52-.35,1.68-.7,2.98-1.08,3.89-.31,.63-.94,.91-1.92,.91h-3.43c-.91,0-1.58-.14-2.03-.42-.28-.21-.42-.53-.42-1.02v-8.26h-4.38v1.71c0,1.51-.18,2.87-.49,4.1-.28,1.12-.84,2.07-1.68,2.91-.56,.56-1.29,1.12-2.21,1.68-.28,0-.49-.07-.63-.25-.32-.39-.63-.77-.91-1.12-.17-.14-.25-.28-.25-.42,1.75-.98,2.87-2.17,3.4-3.57,.28-.98,.45-2.14,.45-3.4v-3.15c0-.28,.11-.42,.38-.42h8.23Z"/>
      <path class="cls-1" d="M160.23,98.45c.28,0,.42,.17,.42,.53v1.08c0,.38-.14,.56-.42,.56h-14.49c-.28,0-.38-.17-.38-.56v-1.08c0-.35,.1-.53,.38-.53h14.49Zm-1.89,14.74c.35,0,.53,.14,.53,.42v10.4c0,.28-.18,.42-.53,.42h-1.37c-.38,0-.56-.14-.56-.42v-1.65h-7.11v1.65c0,.28-.21,.42-.56,.42h-1.37c-.35,0-.53-.14-.53-.42v-10.26c0-.35,.17-.56,.53-.56h10.96Zm-.14-5.18c.24,0,.38,.21,.38,.56v1.08c0,.35-.14,.53-.38,.53h-10.54c-.28,0-.42-.18-.42-.53v-1.08c0-.35,.14-.56,.42-.56h10.54Zm0-4.79c.24,0,.38,.21,.38,.56v1.08c0,.39-.14,.56-.38,.56h-10.4c-.28,0-.42-.17-.42-.56v-1.08c0-.35,.14-.56,.42-.56h10.4Zm-.28-9.56c.28,0,.42,.18,.42,.53v1.12c0,.35-.14,.53-.42,.53h-9.98c-.28,0-.42-.17-.42-.53v-1.12c0-.35,.14-.53,.42-.53h9.98Zm-1.5,26.53v-4.8h-7.11v4.8h7.11Zm11.2-17.26v-9.56c0-.28,.17-.42,.56-.42,1.71,0,2.59,.14,2.59,.42,0,.31-.14,.49-.35,.52-.21,.04-.32,.28-.32,.7v8.33h6.83c.28,0,.42,.21,.42,.56v1.08c0,.38-.14,.56-.42,.56h-6.83v18.87c0,.28-.21,.42-.56,.42h-1.37c-.38,0-.56-.14-.56-.42v-18.87h-6.55c-.28,0-.42-.17-.42-.56v-1.08c0-.35,.14-.56,.42-.56h6.55Z"/>
      <path class="cls-1" d="M199.19,110.91c-.56,.98-1.29,1.82-2.24,2.45l-.91-1.01c1.4-1.01,2.17-2.35,2.35-3.99h-2.59v-4.2h4.2v3.85c0,.98-.28,1.93-.8,2.91Z"/>
      <path class="cls-1" d="M229.92,101.18c0,.21-.1,.28-.25,.28-.38,.07-.63,.17-.73,.38-.95,2.03-1.86,3.67-2.73,5.01v17.01c0,.28-.21,.42-.56,.42h-1.36c-.35,0-.53-.14-.53-.42v-13.97c-.81,.91-1.89,2-3.29,3.29-.25,0-.46-.07-.66-.28-.35-.28-.67-.53-1.02-.81-.17-.1-.25-.25-.25-.42,1.02-.91,2.03-1.92,3.05-2.98,1.33-1.33,2.45-2.87,3.43-4.55,.84-1.47,1.51-2.91,2-4.34,0-.17,.07-.28,.14-.28,1.82,.91,2.76,1.47,2.76,1.65Zm6.69-8.09c0,.32-.14,.49-.35,.53-.25,.03-.35,.28-.35,.7v2.35h13.55c.28,0,.42,.17,.42,.53v1.12c0,.35-.14,.52-.42,.52h-30.35c-.28,0-.42-.17-.42-.52v-1.12c0-.35,.14-.53,.42-.53h14.21v-3.57c0-.28,.17-.42,.56-.42,1.82,0,2.73,.14,2.73,.42Zm2.38,7.77c.21,.17,.35,.32,.35,.46,0,.28-.25,.39-.66,.39-.38,0-.67,.17-.8,.49-.21,.49-.42,.91-.63,1.3h8.54c.21,0,.38,.07,.56,.21,.42,.63,.66,1.01,.66,1.15-.77,2.77-1.43,4.87-2.07,6.34-.8,1.89-1.61,3.47-2.41,4.66-.46,.67-.95,1.33-1.5,1.96,.91,.66,1.92,1.26,2.98,1.79,1.96,1.01,4.13,1.75,6.54,2.28,.18,.07,.28,.14,.28,.21,0,.21-.1,.38-.31,.56-.42,.42-.84,.88-1.19,1.37-.14,.28-.32,.42-.53,.42s-.77-.25-1.75-.7c-3.15-1.26-5.71-2.62-7.74-4.16-1.37,1.22-2.84,2.24-4.45,3.08-1.15,.66-2.62,1.26-4.41,1.79-.32,0-.53-.1-.63-.31-.28-.39-.56-.77-.81-1.16-.14-.14-.21-.25-.21-.32,0-.17,.07-.28,.25-.32,1.12-.31,2.21-.7,3.33-1.12,2.03-.84,3.71-1.85,5.04-3.12,0,0,.04-.03,.07-.07-.95-.84-1.68-1.72-2.24-2.63-.7-.84-1.58-2.45-2.63-4.76-.28,.31-.52,.59-.73,.84-.7,.74-1.3,1.26-1.72,1.61-.21,0-.38-.11-.52-.35-.28-.46-.63-.88-1.02-1.22-.25-.14-.35-.25-.35-.35,0-.07,.04-.14,.1-.21,.98-.63,1.79-1.3,2.45-1.96,.88-.88,1.79-2,2.7-3.4,.56-.91,1.05-1.79,1.47-2.62,.42-.88,.8-1.86,1.16-2.94,.1-.21,.21-.35,.31-.35l2.52,1.19Zm-3.08,11.73c.77,1.19,1.64,2.28,2.62,3.22,.21,.21,.38,.38,.59,.52,.63-.7,1.19-1.4,1.72-2.17,.88-1.33,1.61-2.83,2.21-4.55,.42-.98,.8-2.31,1.22-3.92h-8.19c-.11,.17-.21,.31-.28,.45-.49,.91-1.09,1.82-1.79,2.73l-.04,.04c.56,1.4,1.19,2.63,1.93,3.68Zm3.78-3.75c.59,.67,1.12,1.26,1.58,1.75,0,.07-.07,.14-.17,.28-.7,1.01-1.05,1.5-1.05,1.5-.7-.81-1.43-1.54-2.17-2.24-.63-.56-1.12-.95-1.54-1.19,0-.1,.35-.63,1.08-1.54,.11-.14,.21-.21,.28-.21,.8,.59,1.47,1.16,2,1.65Z"/>
      <path class="cls-1" d="M268.49,93.8c.35,0,.56,.14,.56,.38v10.96c0,.38-.21,.56-.56,.56h-9.56v18.31c0,.28-.21,.42-.56,.42h-1.37c-.38,0-.56-.14-.56-.42v-29.82c0-.25,.18-.38,.56-.38h11.48Zm-1.93,4.9v-2.87h-7.63v2.87h7.63Zm0,4.94v-2.87h-7.63v2.87h7.63Zm9.98,4.24c.35,0,.56,.14,.56,.42v12.71c0,.28-.21,.42-.56,.42h-1.37c-.28,0-.38-.14-.38-.42v-.8h-8.61v.95c0,.28-.21,.42-.56,.42h-1.37c-.28,0-.42-.14-.42-.42v-12.85c0-.28,.14-.42,.42-.42h12.29Zm-1.75,5.08v-3.01h-8.61v3.01h8.61Zm0,5.18v-3.15h-8.61v3.15h8.61Zm9.28-24.33c.46,0,.7,.14,.7,.38v26.81c0,1.09-.53,1.96-1.58,2.59-.98,.49-2.21,.8-3.75,.98-.28,0-.42-.14-.46-.42-.07-.49-.32-1.22-.81-2.2,0-.14,.11-.17,.32-.17,1.82,0,2.87-.14,3.22-.42,.38-.28,.59-.7,.59-1.33v-14.32h-9.73c-.35,0-.52-.18-.52-.56v-10.96c0-.25,.17-.38,.52-.38h11.48Zm-1.75,4.9v-2.87h-7.81v2.87h7.81Zm0,4.94v-2.87h-7.81v2.87h7.81Z"/>
      <path class="cls-1" d="M301.74,94.18c0,.21-.11,.32-.28,.32-.42,.07-.66,.17-.8,.38-.88,2.49-1.75,4.59-2.59,6.27v22.86c0,.28-.21,.42-.56,.42h-1.37c-.38,0-.56-.14-.56-.42v-18.8c-.77,1.05-1.71,2.31-2.87,3.75-.28,0-.49-.1-.7-.31-.35-.28-.73-.6-1.08-.88-.17-.14-.25-.28-.25-.46,.91-1.12,1.86-2.34,2.84-3.64,1.22-1.68,2.31-3.54,3.22-5.6,.77-1.82,1.4-3.64,1.86-5.39,.07-.14,.14-.25,.28-.25,1.89,1.01,2.87,1.61,2.87,1.75Zm9.03,1.92v-3.29c0-.25,.04-.38,.14-.38l2.45,.21c.35,.07,.56,.17,.56,.32,0,.24-.1,.38-.31,.42-.28,.14-.38,.35-.38,.7v2.03h9.31c.28,0,.42,.21,.42,.56v1.09c0,.38-.14,.56-.42,.56h-9.31v3.54h7.66c.35,0,.56,.14,.56,.42v10.92c0,.28-.21,.42-.56,.42h-1.37c-.38,0-.56-.14-.56-.42v-1.61h-6.02c-.04,.14-.07,.25-.07,.35-.28,1.75-.77,3.22-1.47,4.48-.35,.63-.74,1.26-1.23,1.89,.53,.28,1.08,.56,1.71,.77,.81,.38,2.1,.84,3.92,1.37,1.19,.31,2.56,.63,4.17,.91,.74,.07,1.61,.21,2.66,.35,.28,0,.45,.04,.45,.14,0,.21-.14,.38-.35,.56-.42,.49-.8,.95-1.19,1.4-.17,.21-.38,.35-.66,.35-2.45-.42-4.59-.94-6.44-1.5-1.68-.56-3.04-1.05-4.06-1.5-.7-.32-1.29-.63-1.86-.98-1.36,1.33-2.87,2.45-4.55,3.29-1.19,.56-1.96,.84-2.38,.84-.21,0-.31-.14-.38-.35-.35-.63-.66-1.16-.98-1.64-.21-.11-.28-.18-.28-.21,0-.18,.04-.25,.17-.25,1.5-.32,2.73-.74,3.71-1.3,.98-.56,1.86-1.15,2.56-1.82-1.12-.84-2.28-1.93-3.43-3.19,0-.25,.74-.6,2.21-1.08,1.05,1.12,2.03,1.96,2.87,2.55,.49-.59,.88-1.22,1.22-1.92,.53-.91,.88-1.96,1.02-3.15,0-.11,.03-.21,.07-.35h-5.6v.81c0,.28-.21,.42-.56,.42h-1.37c-.35,0-.53-.14-.53-.42v-9.98c0-.35,.18-.56,.53-.56h7.95v-3.54h-8.75c-.28,0-.42-.18-.42-.56v-1.09c0-.35,.14-.56,.42-.56h8.75Zm-.1,13.27c.07-.77,.1-1.58,.1-2.45v-2.87h-6.02v5.32h5.92Zm2.56-2.45c0,.91-.04,1.75-.07,2.45h5.81v-5.32h-5.74v2.87Z"/>
      <path class="cls-1" d="M355.64,93.94c.46,0,.7,.17,.7,.53v26.18c0,1.08-.6,1.92-1.72,2.56-1.09,.46-2.49,.77-4.17,.94-.28,0-.42-.14-.46-.42-.04-.49-.28-1.22-.77-2.17,0-.14,.11-.21,.35-.21,2.03,0,3.25-.11,3.61-.38,.42-.28,.67-.7,.67-1.33v-5.6h-8.89v9.17c0,.24-.17,.38-.52,.38h-1.37c-.39,0-.56-.14-.56-.38v-9.17h-9.28c-.07,.32-.11,.6-.14,.88-.28,2-.84,3.99-1.68,5.95-.45,1.19-1.08,2.31-1.89,3.43-.17,0-.28-.04-.35-.07-.38-.38-.81-.7-1.26-.95-.14-.14-.17-.31-.17-.49,.7-1.01,1.37-2.34,1.93-4.09,.56-1.82,.98-3.71,1.26-5.74,.25-2.1,.38-4.66,.38-7.67v-10.82c0-.35,.17-.53,.53-.53h23.8Zm-13.13,17.89v-6.83h-8.75v.28c0,2.52-.1,4.72-.25,6.55h9Zm0-9v-6.72h-8.75v6.72h8.75Zm2.45,0h8.89v-6.72h-8.89v6.72Zm8.89,9v-6.83h-8.89v6.83h8.89Z"/>
      <path class="cls-1" d="M373.73,93.8c0,.25-.17,.35-.49,.35-.35,0-.49,.11-.49,.32-.67,1.22-1.51,2.59-2.52,4.1-.35,.56-.7,1.05-1.05,1.47,2.66-.25,5.36-.59,8.02-1.01-.38-1.02-.8-2.03-1.29-3.05,0-.14,.59-.49,1.79-1.08,.77,1.61,1.37,3.08,1.85,4.41,.42,1.26,.81,2.56,1.16,3.92,0,.1-.73,.35-2.21,.7-.1-.74-.31-1.61-.59-2.63-3.43,.56-7.21,1.05-11.34,1.47-.21,0-.38,.1-.49,.31-.11,.39-.28,.56-.56,.56s-.84-1.05-1.75-3.15c.91-.07,1.79-.14,2.7-.21,1.01-1.61,1.92-3.26,2.77-5.01,.42-.91,.73-1.82,1.01-2.7,0-.07,.07-.14,.21-.14,2.17,.7,3.29,1.16,3.29,1.37Zm4.66,11.06c.42,0,.66,.21,.66,.56v16.63c0,.7-.45,1.22-1.37,1.64-.91,.28-2.03,.45-3.43,.6-.25,0-.38-.14-.42-.42-.07-.49-.32-1.23-.81-2.17,0-.1,.07-.14,.28-.14,1.54,0,2.49-.11,2.77-.25,.35-.14,.53-.38,.53-.74v-2.31h-8.09v5.74c0,.28-.18,.42-.53,.42h-1.37c-.38,0-.56-.14-.56-.42v-18.59c0-.35,.17-.56,.56-.56h11.76Zm-1.79,5.6v-3.39h-8.09v3.39h8.09Zm0,5.6v-3.39h-8.09v3.39h8.09Zm17.47-18.8c-.74,.49-1.54,.98-2.42,1.4-1.12,.53-2.27,.98-3.5,1.37-.88,.28-1.96,.59-3.22,.88v2.45c0,1.02,.63,1.5,1.93,1.5h3.67c1.33,0,2.1-.14,2.38-.49,.31-.21,.7-1.19,1.19-2.94,.28,.49,.77,.91,1.44,1.29,.28,.14,.46,.28,.46,.49-.63,2-1.12,3.08-1.47,3.29-.35,.49-1.09,.7-2.21,.7h-5.74c-2.73,0-4.1-.8-4.1-2.49v-11.76c0-.25,.07-.39,.28-.39l2.31,.28c.28,.07,.42,.14,.42,.25,0,.25-.11,.38-.25,.42-.21,.04-.32,.17-.32,.42v4.73c1.05-.25,2.03-.53,2.94-.84,1.16-.38,2.24-.91,3.29-1.54,.77-.42,1.47-.95,2.1-1.51,.04,0,.07-.03,.14-.03,.14,0,.24,.1,.38,.31,1.01,1.26,1.54,1.93,1.54,2,0,.21-.11,.28-.28,.28l-.8-.14c-.07,0-.14,.04-.17,.07Zm.38,16.42c-.77,.49-1.58,.91-2.49,1.33-1.16,.53-2.38,.98-3.68,1.33-.91,.28-2.03,.56-3.36,.84v3.01c0,1.01,.63,1.5,1.93,1.5h3.67c1.33,0,2.1-.17,2.38-.52,.31-.28,.7-1.33,1.19-3.19,.28,.49,.77,.91,1.44,1.29,.28,.14,.46,.28,.46,.49-.63,2.1-1.12,3.29-1.47,3.5-.35,.49-1.09,.74-2.21,.74h-5.74c-2.73,0-4.1-.84-4.1-2.45v-12.46c0-.25,.07-.39,.28-.39l2.31,.28c.28,.07,.42,.14,.42,.25,0,.25-.11,.38-.25,.42-.21,.04-.32,.17-.32,.42v4.87c1.12-.24,2.17-.52,3.12-.8,1.23-.38,2.38-.88,3.47-1.47,.77-.42,1.5-.95,2.13-1.51h.18c.1,0,.25,.11,.38,.32,1.01,1.26,1.54,1.92,1.54,2,0,.21-.1,.28-.28,.28l-.84-.14c-.07,0-.1,.04-.17,.07Z"/>
      <path class="cls-1" d="M403.27,124.15c0,.28-.17,.42-.53,.42h-1.37c-.38,0-.56-.14-.56-.42v-29.82c0-.24,.17-.38,.56-.38h9.84c.38,0,.67,.07,.88,.17,.59,.46,.91,.77,.91,.91l-4.13,8.82c-.07,.21-.11,.35-.11,.49s.07,.31,.21,.49c1.05,1.12,1.92,2.48,2.69,4.09,.7,1.65,1.05,3.29,1.05,4.97,0,1.23-.25,2.28-.67,3.19-.49,.95-1.19,1.61-2.1,1.96-.59,.42-1.58,.6-2.98,.6-.63,0-.91-.18-.91-.6-.14-.84-.32-1.43-.6-1.86,0-.28,.14-.42,.42-.42l1.65,.28c.98,0,1.68-.32,2.1-.98,.42-.52,.63-1.26,.63-2.17,0-1.19-.32-2.52-.88-3.99-.74-1.61-1.82-3.22-3.26-4.76-.17-.14-.25-.28-.25-.42,0-.1,.04-.28,.11-.49l4.2-8.26h-6.93v28.18Zm25.59-30.21c.35,0,.56,.14,.56,.38v26.67h2.45c.28,0,.42,.21,.42,.56v1.09c0,.35-.14,.56-.42,.56h-19.95c-.28,0-.42-.21-.42-.56v-1.09c0-.35,.14-.56,.42-.56h3.68v-26.53c0-.35,.17-.53,.56-.53h12.71Zm-1.93,8.89v-6.72h-8.89v6.72h8.89Zm0,8.75v-6.58h-8.89v6.58h8.89Zm0,9.42v-7.25h-8.89v7.25h8.89Z"/>
      <path class="cls-1" d="M4.52,146.7v-5.6c0-.66-.07-1.19-.14-1.54-.1-.25-.14-.46-.14-.67,0-.14,.21-.25,.7-.25l2.76,.35c.25,.14,.39,.25,.39,.32,0,.21-.14,.32-.42,.32-.46,.21-.66,.73-.66,1.61v5.46h2.59c.28,0,.42,.21,.42,.56v1.09c0,.38-.14,.56-.42,.56h-2.59v7.14c.98-.56,1.92-1.12,2.83-1.71,.04-.07,.1-.11,.17-.11,.14,0,.25,.11,.25,.28,0,1.19-.07,1.82-.14,1.89-1.05,.73-2.1,1.4-3.12,2.03v10.15c0,1.61-1.26,2.45-3.71,2.45H1.92c-.21,0-.28-.21-.28-.59-.1-.46-.31-.98-.66-1.58,0-.21,.07-.28,.28-.28,.63,.18,1.23,.28,1.75,.28,.98,0,1.51-.42,1.51-1.22v-7.74c-.81,.49-1.58,.91-2.31,1.29-.35,.67-.63,.98-.84,.98s-.66-.95-1.37-2.87c1.26-.42,2.76-1.05,4.52-1.96v-8.44H.7c-.28,0-.42-.17-.42-.56v-1.09c0-.35,.14-.56,.42-.56h3.82Zm18.73-7.53c0,.31-.1,.49-.32,.52-.24,.04-.35,.28-.35,.7v4.13h2c1.08-1.54,2.07-3.12,2.94-4.8l2.03,1.26c.28,.14,.42,.32,.42,.53,0,.14-.17,.17-.49,.17-.25,.07-1.05,1.02-2.45,2.84h3.75c.35,0,.56,.14,.56,.38v6.16c0,.28-.21,.42-.56,.42h-1.36c-.28,0-.39-.14-.39-.42v-4.51H13.55v4.51c0,.28-.21,.42-.56,.42h-1.37c-.28,0-.38-.14-.38-.42v-6.16c0-.25,.1-.38,.38-.38h3.96c-.14-.25-.28-.49-.42-.77-.56-.98-1.26-1.96-2.17-2.94,0-.14,.59-.49,1.79-1.08,.84,1.05,1.54,2.03,2.1,2.91,.38,.63,.73,1.26,1.01,1.89h2.24v-5.36c0-.25,.17-.39,.53-.39,1.71,0,2.59,.14,2.59,.39Zm6.16,17.78c.35,0,.56,.14,.56,.42v12.85c0,.28-.21,.42-.56,.42h-1.37c-.28,0-.42-.14-.42-.42v-.95H15.05v.95c0,.28-.21,.42-.56,.42h-1.37c-.28,0-.38-.14-.38-.42v-12.71c0-.35,.1-.56,.38-.56H29.4Zm-2.03-8.61c.35,0,.52,.14,.52,.42v6.16c0,.28-.17,.39-.52,.39H15.19c-.38,0-.56-.11-.56-.39v-6.16c0-.28,.17-.42,.56-.42h12.18Zm-7.25,13.83v-3.01h-5.08v3.01h5.08Zm0,5.04v-3.01h-5.08v3.01h5.08Zm5.46-16.66h-8.61v2.59h8.61v-2.59Zm-3.15,11.62h5.18v-3.01h-5.18v3.01Zm5.18,5.04v-3.01h-5.18v3.01h5.18Z"/>
      <path class="cls-1" d="M54.32,139.04c0,.35-.14,.53-.35,.53-.21,.04-.31,.28-.31,.74v1.75h12.99c.35,0,.52,.14,.52,.42v7.11c0,.28-.17,.42-.52,.42h-1.37c-.38,0-.56-.14-.56-.42v-5.32h-25.31v5.32c0,.28-.17,.42-.52,.42h-1.37c-.38,0-.56-.14-.56-.42v-6.97c0-.35,.18-.56,.56-.56h13.65v-3.01c0-.25,.17-.38,.56-.38,1.72,0,2.59,.14,2.59,.38Zm0,7c0,.32-.14,.49-.35,.49-.21,.07-.31,.31-.31,.73v4.9h9.14c.35,0,.56,.14,.56,.42v14.35c0,1.19-.21,2-.56,2.34-.11,.56-1.61,1.08-4.52,1.65-.45,0-.66-.17-.66-.53-.1-.42-.28-1.08-.56-1.96,2.49-.14,3.78-.63,3.85-1.5v-1.37h-16.98v5.08c0,.25-.17,.38-.52,.38h-1.37c-.39,0-.56-.14-.56-.38v-17.92c0-.35,.17-.56,.56-.56h9.14v-6.13c0-.28,.17-.42,.56-.42,1.72,0,2.59,.14,2.59,.42Zm-9.31,.25c.91,1.22,1.72,2.52,2.49,3.85,0,.35-.1,.52-.25,.52-.84,.56-1.47,.84-1.96,.84-.77-1.68-1.47-3.12-2.17-4.24,0-.24,.49-.59,1.5-1.09,.21,0,.32,.04,.38,.11Zm15.89,11.52v-3.43h-16.98v3.43h16.98Zm0,5.6v-3.43h-16.98v3.43h16.98Zm.77-16.49c.28,.14,.46,.32,.46,.49,0,.14-.11,.21-.28,.25-.25,0-.38,.1-.45,.28-.67,1.44-1.3,2.56-1.92,3.33-.17,.17-.28,.25-.35,.25-.17,0-.35-.07-.56-.25-.42-.21-.84-.39-1.23-.56-.21-.07-.28-.1-.28-.14s.03-.11,.1-.21c.63-.7,1.09-1.29,1.4-1.82,.42-.67,.77-1.37,1.01-2.07,.04-.17,.11-.28,.21-.28l1.89,.74Z"/>
      <path class="cls-1" d="M82.92,148.63c0,.25-.11,.35-.25,.35-.42,.07-.7,.25-.84,.46-1.23,3.85-2.42,6.76-3.61,8.68-.67,1.19-1.79,2.91-3.36,5.15-.28,0-.56-.1-.77-.35-.35-.32-.74-.63-1.16-.98-.21-.14-.28-.28-.28-.46,.84-1.12,1.68-2.31,2.52-3.61,1.08-1.61,2.03-3.46,2.84-5.5,.7-1.79,1.22-3.54,1.64-5.25,0-.17,.07-.28,.14-.28,2.06,1.02,3.12,1.61,3.12,1.79Zm8.61-9.42c.28,.18,.42,.32,.42,.39,0,.28-.17,.38-.46,.38-.52,.21-.77,.8-.77,1.82v25.83c0,1.89-1.37,2.87-4.1,2.87h-3.29c-.21,0-.28-.25-.28-.7-.11-.49-.32-1.08-.67-1.75,0-.28,.07-.42,.28-.42,1.33,.28,2.55,.42,3.67,.42s1.65-.42,1.65-1.26v-25.13c0-.8-.07-1.43-.14-1.85-.11-.28-.14-.56-.14-.77,0-.14,.21-.25,.7-.25l3.12,.42Zm7.21,8.12c.53,2.38,1.12,4.45,1.79,6.16,.98,2.8,2.28,5.46,3.82,8.05,.14,.25,.21,.42,.21,.49,0,.21-.8,.67-2.34,1.36-.21,0-.32-.07-.39-.24-1.85-3.4-3.15-6.3-3.92-8.68-.7-1.96-1.26-4.03-1.72-6.27,0-.21,.77-.56,2.35-1.08,.07,0,.14,.07,.21,.21Z"/>
      <path class="cls-1" d="M115.08,142.47v-3.15c0-.17,.14-.28,.42-.28,1.61,0,2.45,.14,2.45,.42s-.11,.46-.25,.46c-.21,.04-.28,.25-.28,.63v1.93h6.02c.14,0,.25,.14,.25,.42v1.08c0,.38-.1,.56-.25,.56h-6.02v2.87h4.76c.35,0,.56,.14,.56,.38v12.6c0,.28-.21,.38-.56,.38h-4.76v3.15h6.41c.18,0,.28,.14,.28,.42v1.09c0,.39-.1,.56-.28,.56h-6.41v4.24c0,.28-.21,.42-.56,.42h-1.37c-.28,0-.42-.14-.42-.42v-4.24h-5.88c-.17,0-.25-.17-.25-.56v-1.09c0-.28,.07-.42,.25-.42h5.88v-3.15h-4.9c-.38,0-.56-.1-.56-.38v-12.6c0-.25,.17-.38,.56-.38h4.9v-2.87h-5.46c-.21,0-.28-.18-.28-.56v-1.08c0-.28,.07-.42,.28-.42h5.46Zm0,10.68v-3.71h-3.12v3.71h3.12Zm0,2.03h-3.12v3.57h3.12v-3.57Zm2.34-2.03h3.01v-3.71h-3.01v3.71Zm3.01,2.03h-3.01v3.57h3.01v-3.57Zm9.1-10.54c.21,.14,.32,.28,.32,.42,0,.25-.14,.35-.39,.35-.42,0-.73,.21-.94,.63-.67,1.33-1.44,2.7-2.28,4.1-.14,.17-.21,.31-.21,.42,0,.14,.03,.25,.17,.35,1.33,1.47,2.45,3.12,3.36,4.97,0,.25-.07,.38-.17,.42l-.81,.77c-.17,.14-.35,.17-.52,.17-.11,0-.21-.11-.28-.35-1.37-2.34-2.66-4.17-3.85-5.42-.25-.21-.35-.42-.35-.67,0-.21,.07-.46,.24-.66,1.23-1.96,2.14-4.13,2.73-6.44,.07-.35,.21-.52,.42-.52l2.56,1.47Zm10.29,13.97c.17,0,.28,.14,.28,.42v1.08c0,.38-.11,.56-.28,.56h-5.88v7.11h7c.14,0,.25,.1,.25,.38v1.12c0,.35-.11,.53-.25,.53h-16.42c-.21,0-.28-.17-.28-.53v-1.12c0-.28,.07-.38,.28-.38h6.97v-7.11h-5.74c-.21,0-.28-.18-.28-.56v-1.08c0-.28,.07-.42,.28-.42h14.07Zm.56-18.45c.17,0,.28,.14,.28,.38v1.12c0,.35-.1,.53-.28,.53h-15.58c-.21,0-.28-.17-.28-.53v-1.12c0-.24,.07-.38,.28-.38h15.58Zm-5.53,4.59c.21,.14,.35,.31,.35,.46,0,.21-.14,.31-.39,.31-.42,0-.73,.21-.94,.63-.63,1.26-1.37,2.56-2.21,3.89-.14,.14-.18,.28-.18,.38,0,.14,.04,.25,.18,.35,1.26,1.4,2.27,3.01,3.12,4.83,0,.25-.07,.39-.21,.42l-.77,.77c-.17,.14-.35,.17-.53,.17-.1,0-.21-.1-.28-.35-1.3-2.28-2.49-4.06-3.61-5.32-.25-.21-.35-.42-.35-.63s.07-.42,.25-.63c1.16-1.89,2.03-3.99,2.62-6.23,.07-.35,.21-.53,.42-.53l2.52,1.47Zm5.6,0c.21,.14,.35,.31,.35,.46,0,.21-.17,.31-.46,.31-.46,0-.81,.21-1.05,.56-.73,1.19-1.58,2.45-2.52,3.71-.14,.14-.21,.25-.21,.35,0,.14,.03,.28,.17,.38,1.33,1.54,2.45,3.25,3.36,5.22,0,.25-.07,.38-.17,.42l-.81,.77c-.17,.14-.35,.18-.52,.18-.11,0-.21-.11-.28-.39-1.4-2.42-2.66-4.31-3.85-5.64-.28-.21-.38-.46-.38-.67s.1-.42,.31-.63c1.37-1.86,2.38-3.85,3.05-5.99,.1-.35,.28-.53,.49-.53l2.52,1.47Z"/>
      <path class="cls-1" d="M172.27,139.32c.35,0,.56,.14,.56,.42v12.71c0,.28-.21,.42-.56,.42h-13.48c-.66,1.09-1.37,2-2.07,2.73-.21,.21-.35,.42-.49,.56h19.6c.25,0,.38,.14,.38,.38-.07,3.78-.25,6.44-.56,8.05-.35,1.96-.88,3.4-1.51,4.38-.59,1.01-2.17,1.54-4.76,1.54-1.26,0-1.93-.28-1.96-.77-.1-.56-.35-1.22-.77-1.96v-.28c.98,.28,1.89,.42,2.73,.42,1.43,0,2.34-.35,2.76-1.05,.49-.53,.88-1.58,1.16-3.15,.28-1.16,.49-3.01,.63-5.53h-4.66c-.84,1.68-1.68,3.18-2.52,4.52-1.12,1.54-2.31,2.94-3.57,4.13-1.22,1.26-2.66,2.41-4.34,3.54-.28,0-.53-.07-.66-.21-.56-.28-1.16-.56-1.72-.84-.25,0-.35-.07-.35-.17,2.17-1.4,3.96-2.77,5.29-4.1,1.33-1.26,2.35-2.49,3.12-3.68,.53-.7,1.12-1.75,1.82-3.18h-4.69c-.95,1.4-1.89,2.7-2.87,3.82-1.29,1.33-2.7,2.49-4.17,3.54-1.43,1.12-3.12,2.1-5.04,3.05-.32,0-.53-.07-.66-.21-.59-.28-1.19-.56-1.75-.84-.21,0-.32-.04-.32-.17,2.52-1.19,4.55-2.35,6.09-3.5,1.54-1.08,2.73-2.13,3.61-3.15,.59-.56,1.26-1.4,2-2.52h-4.38c-.14,.14-.25,.21-.32,.28-1.12,.91-2.38,1.72-3.75,2.49-1.68,.91-2.63,1.33-2.87,1.33-.17,0-.31-.14-.45-.46-.35-.38-.74-.8-1.16-1.26-.21-.21-.28-.35-.28-.46,1.82-.63,3.36-1.26,4.66-1.96,1.29-.7,2.59-1.65,3.85-2.77,.59-.56,1.33-1.4,2.21-2.52h-4.83c-.39,0-.56-.14-.56-.42v-12.71c0-.28,.17-.42,.56-.42h21.04Zm-1.93,5.6v-3.4h-17.22v3.4h17.22Zm0,2.21h-17.22v3.54h17.22v-3.54Z"/>
      <path class="cls-1" d="M189,155.03c.35,0,.52,.14,.52,.42v9.03c0,.7,.14,1.22,.39,1.58,.17,.38,.45,.67,.88,.8,.49,.28,1.12,.49,1.82,.56,.91,.14,1.96,.21,3.08,.21h7.32c2.87,0,6.23-.32,10.08-.98,.14-.07,.32-.11,.53-.11,.17,0,.28,.04,.28,.11-.31,.91-.52,1.86-.67,2.83-.07,.39-.24,.6-.59,.6h-16.94c-.84,0-1.65-.07-2.42-.14-.8-.14-1.57-.28-2.31-.46-.66-.25-1.29-.52-1.86-.88-.38-.31-.8-.84-1.22-1.54l-.14-.14c-.14,0-.25,.04-.25,.1-2.31,1.68-3.61,2.8-3.82,3.4-.07,.14-.17,.21-.31,.21s-.6-.59-1.33-1.79c-.14-.21-.18-.42-.18-.7,1.33-.56,3.01-1.54,5.04-3.01,.1-.07,.17-.28,.17-.67v-7.25h-4.38c-.28,0-.42-.17-.42-.56v-1.09c0-.35,.14-.56,.42-.56h6.3Zm-1.79-6.58c.94,.74,1.75,1.4,2.45,1.96,0,.04-.07,.14-.18,.28-.7,.98-1.05,1.47-1.05,1.47-1.05-.91-2.17-1.72-3.36-2.49-.98-.63-1.75-1.05-2.38-1.33,0-.11,.35-.63,1.08-1.54,.1-.14,.21-.25,.28-.25,1.26,.7,2.31,1.33,3.15,1.89Zm.73-7.95c.91,.63,1.72,1.19,2.41,1.68,0,.07-.07,.17-.17,.32-.7,.98-1.05,1.47-1.05,1.47-1.05-.77-2.14-1.5-3.29-2.17-.95-.49-1.72-.88-2.35-1.12,0-.11,.35-.63,1.08-1.54,.11-.14,.21-.25,.28-.25,1.26,.59,2.28,1.12,3.08,1.61Zm11.17-.49c0,.21-.1,.31-.24,.31-.39,.04-.63,.14-.74,.35-.49,1.16-.95,2.17-1.4,3.01h5.18c.42-.49,.74-.94,.95-1.3,.56-.88,1.09-1.96,1.58-3.29,.03-.21,.14-.32,.28-.32,1.89,.84,2.87,1.3,2.87,1.37,0,.11-.14,.17-.42,.25-.42,.07-.7,.32-.88,.67-.46,.88-.98,1.75-1.54,2.62h7.63c.25,0,.38,.21,.38,.56v1.08c0,.38-.14,.56-.38,.56h-7.39v3.96h6.55c.28,0,.42,.21,.42,.56v1.09c0,.35-.14,.52-.42,.52h-6.55v3.99h6.55c.28,0,.42,.18,.42,.53v1.12c0,.35-.14,.53-.42,.53h-6.55v3.85h8.05c.28,0,.42,.17,.42,.52v1.12c0,.35-.14,.53-.42,.53h-16.66v1.08c0,.28-.21,.42-.56,.42h-1.37c-.38,0-.56-.14-.56-.42v-17.43c-.63,.74-1.4,1.58-2.31,2.55-.25,0-.46-.1-.66-.31-.35-.25-.67-.53-1.01-.81-.18-.1-.25-.24-.25-.38,.77-.8,1.58-1.68,2.38-2.59,.98-1.16,1.89-2.45,2.66-3.92,.63-1.26,1.16-2.52,1.54-3.75,0-.17,.07-.28,.14-.28,1.82,.91,2.73,1.47,2.73,1.65Zm3.4,5.88h-6.12v3.96h6.12v-3.96Zm0,10.12v-3.99h-6.12v3.99h6.12Zm0,6.02v-3.85h-6.12v3.85h6.12Z"/>
      <path class="cls-1" d="M233.91,143.17h-7.42c-.28,0-.42-.17-.42-.56v-1.37c0-.28,.14-.42,.42-.42h9.42c.35,0,.56,.25,.56,.7-.21,2.1-.28,3.71-.28,4.8,0,2.1,.18,4.06,.56,5.92,.35,1.58,1.08,3.26,2.17,5.04,1.23,2.21,2.63,4.09,4.24,5.67,2.2,2.17,4.76,3.85,7.67,4.97,0,.17-.07,.35-.17,.53-.53,.46-.98,.95-1.37,1.5-.14,.17-.35,.28-.63,.28-2.52-1.4-4.9-3.15-7.18-5.32-1.89-1.86-3.5-3.99-4.83-6.44-1.09-2.17-1.82-4.13-2.24-5.95-.35,1.33-.77,2.49-1.22,3.5-.7,1.65-1.54,3.33-2.56,5.01-.98,1.75-2.13,3.22-3.4,4.41-1.26,1.33-2.48,2.31-3.64,3.08-1.12,.67-2.28,1.29-3.54,1.85-.21,0-.35-.1-.49-.25-.42-.52-.81-1.01-1.19-1.43-.14-.14-.21-.28-.21-.38,0-.14,.07-.28,.21-.39,1.4-.42,2.62-.98,3.75-1.68,1.12-.77,2.1-1.58,3.01-2.49,1.29-1.26,2.45-2.77,3.5-4.52,.95-1.4,1.79-3.08,2.52-5.04,.63-1.44,1.19-2.98,1.61-4.62,.38-1.54,.73-3.19,1.05-5,0-.42,.04-.91,.11-1.4Z"/>
      <path class="cls-1" d="M271.99,157.13c-.56,.98-1.29,1.82-2.24,2.45l-.91-1.01c1.4-1.01,2.17-2.35,2.35-3.99h-2.59v-4.2h4.2v3.85c0,.98-.28,1.93-.81,2.91Z"/>
      <path class="cls-1" d="M321.16,145.62c.28,0,.42,.21,.42,.56v1.09c0,.35-.14,.53-.42,.53h-8.75v19.29h9.84c.28,0,.42,.21,.42,.56v1.08c0,.35-.14,.56-.42,.56h-30.35c-.28,0-.42-.21-.42-.56v-1.08c0-.35,.14-.56,.42-.56h9.98v-19.29h-8.61c-.28,0-.42-.17-.42-.53v-1.09c0-.35,.14-.56,.42-.56h27.9Zm-22.68,12.25c.63,1.68,1.16,3.5,1.61,5.39,0,.11-.84,.38-2.45,.8-.21-1.26-.59-2.8-1.19-4.69-.7-2.1-1.58-4.24-2.62-6.37,0-.17,.66-.6,2.03-1.23,1.05,2.21,1.92,4.24,2.62,6.09Zm3.22-15.86c.66,.88,1.22,1.79,1.68,2.77,0,.1-.77,.35-2.31,.7-.21-.59-.63-1.33-1.26-2.24-.7-1.01-1.61-2.03-2.73-3.08,0-.17,.63-.59,1.92-1.26,1.12,1.16,2,2.21,2.7,3.12Zm8.26,25.06v-19.29h-5.64v19.29h5.64Zm6.58-27.3c.35,.14,.52,.32,.52,.53,0,.14-.14,.24-.38,.31-.35,0-.56,.14-.63,.38-.88,1.79-1.75,3.19-2.62,4.17-.21,.21-.39,.31-.49,.31-.17,0-.39-.07-.63-.24-.49-.25-.98-.46-1.4-.67-.21-.07-.28-.14-.28-.18,0-.07,.04-.14,.14-.25,.84-.84,1.51-1.61,1.96-2.31,.63-.84,1.08-1.68,1.4-2.56,.07-.25,.18-.38,.32-.38l2.1,.88Zm4.24,12.85c.35,.14,.52,.31,.52,.52,0,.35-.17,.56-.46,.7-.38,0-.63,.28-.7,.77-1.05,3.71-2.07,6.62-3.08,8.65-.25,.45-.42,.67-.56,.67-.17,0-.38-.07-.63-.25-.49-.21-.98-.46-1.4-.67-.21-.07-.28-.1-.28-.17,0-.11,.04-.28,.17-.49,.98-1.75,1.75-3.29,2.28-4.62,.74-1.72,1.29-3.43,1.65-5.18,.1-.49,.25-.77,.42-.77l2.07,.84Z"/>
      <path class="cls-1" d="M338.7,140.82c0,.21-.1,.32-.28,.32-.42,.04-.7,.17-.81,.38-1.05,2.56-2.1,4.66-3.15,6.3v22.68c0,.28-.21,.42-.56,.42h-1.37c-.39,0-.56-.14-.56-.42v-19.36c-.8,.98-1.82,2.1-3.01,3.36-.28,0-.49-.1-.7-.31-.35-.28-.74-.6-1.08-.91-.18-.11-.25-.25-.25-.42,1.01-1.05,2.03-2.21,3.08-3.39,1.33-1.54,2.52-3.29,3.5-5.18,.84-1.68,1.54-3.33,2.03-4.97,.04-.17,.14-.28,.28-.28,1.89,1.02,2.87,1.61,2.87,1.79Zm18.17-.28c.35,0,.56,.14,.56,.42v11.76c0,.28-.21,.42-.56,.42h-1.37c-.35,0-.52-.14-.52-.42v-1.5h-5.22v5.08h9.31c.28,0,.42,.17,.42,.53v1.08c0,.38-.14,.56-.42,.56h-8.82c1.05,1.47,1.96,2.63,2.76,3.4,1.02,1.12,2.24,2.17,3.68,3.08,1.19,.77,2.38,1.36,3.61,1.71,0,.21-.14,.32-.35,.38-.49,.49-.91,.95-1.22,1.4-.14,.17-.28,.28-.35,.28-1.82-.95-3.33-1.89-4.45-2.87-1.33-1.08-2.42-2.27-3.33-3.54-.28-.35-.56-.7-.84-1.08v9.28c0,.28-.17,.42-.53,.42h-1.37c-.38,0-.56-.14-.56-.42v-8.72c-.38,.49-.74,.91-1.02,1.26-.98,1.19-2.03,2.24-3.15,3.22-1.33,1.08-2.62,1.96-3.92,2.73-.28,0-.46-.1-.59-.24-.46-.42-.91-.84-1.33-1.19-.07-.14-.11-.28-.11-.35,1.23-.59,2.24-1.19,3.04-1.79,1.16-.73,2.35-1.79,3.61-3.15,.7-.77,1.72-2.03,2.98-3.82h-8.26c-.28,0-.42-.17-.42-.56v-1.08c0-.35,.14-.53,.42-.53h8.75v-5.08h-5.08v1.64c0,.28-.18,.42-.53,.42h-1.37c-.38,0-.56-.14-.56-.42v-11.76c0-.35,.18-.56,.56-.56h16.52Zm-1.89,8.51v-6.3h-12.74v6.3h12.74Z"/>
      <path class="cls-1" d="M369.08,146.28v-4.76c0-.67-.07-1.19-.14-1.54-.11-.25-.14-.46-.14-.66,0-.17,.21-.28,.7-.28l2.73,.38c.25,.14,.38,.25,.38,.32,0,.21-.14,.32-.38,.32-.49,.21-.7,.73-.7,1.61v4.62h3.85c.25,0,.38,.21,.38,.56v1.08c0,.39-.14,.56-.38,.56h-3.85v7.04c1.12-.49,2.21-1.05,3.26-1.61,.04-.07,.1-.11,.17-.11,.17,0,.28,.11,.28,.28,0,1.19-.07,1.82-.14,1.92-1.22,.63-2.41,1.26-3.57,1.82v9.94c0,1.61-1.22,2.45-3.67,2.45l-2.49-.14c-.21,0-.28-.21-.28-.6-.11-.46-.32-.98-.67-1.58,0-.21,.07-.28,.28-.28,1.05,.28,2,.42,2.87,.42,.98,0,1.5-.42,1.5-1.26v-7.81c-1.16,.56-2.31,1.05-3.43,1.54-.35,.63-.59,.95-.8,.95s-.66-.95-1.37-2.87c1.47-.38,3.29-1.02,5.39-1.93,.07-.03,.14-.07,.21-.1v-8.09h-4.52c-.28,0-.42-.17-.42-.56v-1.08c0-.35,.14-.56,.42-.56h4.52Zm15.3-2.73v-4.1c0-.28,.17-.42,.56-.42,1.72,0,2.59,.14,2.59,.42,0,.32-.14,.49-.35,.53-.21,.04-.31,.28-.31,.7v2.87h6.69c.28,0,.42,.21,.42,.56v1.08c0,.38-.14,.56-.42,.56h-6.69v4.8h8.61c.28,0,.42,.17,.42,.52v1.09c0,.38-.14,.56-.42,.56h-4.24v4.1h3.54c.28,0,.42,.21,.42,.56v1.08c0,.39-.14,.56-.42,.56h-3.54v8.75c0,1.71-1.43,2.59-4.24,2.59l-2.34-.14c-.18,0-.25-.25-.25-.67-.07-.53-.25-1.12-.56-1.79v-.14c1.05,.28,2.03,.42,3.01,.42,1.26,0,1.89-.42,1.89-1.26v-7.77h-12.15c-.28,0-.42-.17-.42-.56v-1.08c0-.35,.14-.56,.42-.56h12.15v-4.1h-12.43c-.28,0-.42-.17-.42-.56v-1.09c0-.35,.14-.52,.42-.52h8.05v-4.8h-6.55c-.28,0-.42-.17-.42-.56v-1.08c0-.35,.14-.56,.42-.56h6.55Zm-2.31,18.66c.74,.73,1.37,1.4,1.93,2,0,.07-.07,.14-.18,.28-.7,1.01-1.05,1.5-1.05,1.5-.84-.95-1.75-1.82-2.66-2.62-.77-.63-1.37-1.05-1.86-1.33,0-.14,.35-.63,1.05-1.54,.1-.14,.21-.24,.31-.24,.98,.7,1.82,1.36,2.45,1.96Z"/>
      <path class="cls-1" d="M406.28,149.57c0,4.34-.21,7.81-.63,10.36-.28,2.1-.84,4.24-1.64,6.34-.42,1.26-1.05,2.49-1.82,3.67-.17,0-.28-.04-.35-.07-.38-.35-.8-.67-1.26-.95-.14-.14-.17-.28-.17-.49,.7-1.05,1.33-2.52,1.89-4.41,.53-1.96,.91-4.03,1.16-6.2,.25-2.24,.39-5,.39-8.26v-9.28c0-.28,.17-.42,.56-.42h24.89c.35,0,.53,.14,.53,.42v6.69c0,.38-.18,.56-.53,.56h-23v2.03Zm23.94,.7c.17,0,.28,.14,.28,.38v1.12c0,.35-.1,.53-.28,.53h-13.48c-1.19,2.13-2.14,3.71-2.77,4.76,3.64-.28,7.46-.63,11.45-1.05-.56-.84-1.12-1.64-1.65-2.34,0-.21,.49-.59,1.51-1.08,.21,0,.35,.07,.42,.14,1.68,2.07,3.25,4.27,4.66,6.58,0,.35-.1,.52-.25,.52-.84,.56-1.47,.84-1.96,.84-.53-.98-1.05-1.89-1.54-2.73-2.31,.28-4.52,.52-6.65,.74v3.6h8.61c.17,0,.28,.14,.28,.42v1.08c0,.38-.11,.56-.28,.56h-8.61v3.57h11.48c.17,0,.28,.11,.28,.39v1.12c0,.35-.11,.52-.28,.52h-25.41c-.21,0-.28-.17-.28-.52v-1.12c0-.28,.07-.39,.28-.39h11.48v-3.57h-8.51c-.17,0-.25-.17-.25-.56v-1.08c0-.28,.07-.42,.25-.42h8.51v-3.36c-2.52,.28-4.94,.49-7.25,.63-.25,0-.42,.17-.53,.49-.07,.6-.25,.88-.59,.88-.28,0-.81-1.12-1.51-3.4,.56,0,1.61-.07,3.19-.21,.14,0,.28,0,.42-.04,.11-.14,.21-.32,.32-.49,.98-1.61,1.86-3.12,2.62-4.48h-5.99c-.21,0-.28-.17-.28-.53v-1.12c0-.25,.07-.38,.28-.38h22.02Zm-23.94-4.8h21.07v-3.57h-21.07v3.57Z"/>
      <path class="cls-1" d="M15.16,191.97c-.21-1.26-.31-2.62-.35-4.1h-5.36c-.28,0-.42-.17-.42-.56v-1.08c0-.35,.14-.56,.42-.56h6.97c.35,0,.56,.14,.56,.42,0,2.17,.14,4.13,.45,5.88h11.17c.42,0,.67,.17,.67,.53v21.39c0,.84-.52,1.54-1.5,2.07-.95,.35-2.17,.63-3.68,.77-.28,0-.42-.14-.46-.42-.03-.49-.28-1.23-.77-2.17,0-.14,.1-.17,.31-.17,1.75,0,2.77-.1,3.08-.32,.35-.21,.56-.52,.56-1.01v-6.27c-.07,.04-.1,.07-.14,.07-.42,.38-.84,.77-1.23,1.19-.17,.14-.42,.21-.7,.21-.91-.35-1.92-1.08-3.12-2.27-1.64-1.54-2.87-3.12-3.64-4.76-.7-1.19-1.26-2.45-1.68-3.82-.28,.59-.59,1.12-.88,1.58-.84,1.54-1.71,2.91-2.59,4.1-1.05,1.26-2.17,2.45-3.39,3.57-1.54,1.26-2.38,1.89-2.59,1.89s-.35-.14-.49-.49c-.38-.42-.8-.91-1.26-1.4-.07-.07-.14-.11-.17-.18v10.54c0,.28-.21,.42-.56,.42h-1.37c-.35,0-.52-.14-.52-.42v-24.08c0-.35,.17-.53,.52-.53H15.16Zm-6.13,10.92c1.16-1.05,2.31-2.42,3.5-4.06,.63-1.05,1.47-2.59,2.45-4.69H4.94v11.55c1.61-.91,2.98-1.82,4.09-2.8Zm10.78-3.54c.81,1.54,1.93,2.91,3.4,4.13,.98,.88,2.14,1.61,3.4,2.21,.07,.07,.14,.1,.21,.14v-11.69h-8.93c.46,2.07,1.09,3.82,1.92,5.22Z"/>
      <path class="cls-1" d="M64.02,203.88c.28,0,.42,.17,.42,.53v1.12c0,.35-.14,.52-.42,.52h-9.98v7.67h13.41c.28,0,.42,.17,.42,.56v1.08c0,.35-.14,.52-.42,.52h-29.68c-.28,0-.39-.17-.39-.52v-1.08c0-.39,.11-.56,.39-.56h13.83v-7.67h-9.84c-.28,0-.42-.17-.42-.52v-1.12c0-.35,.14-.53,.42-.53h22.26Zm-9.56-18.06c0,.31-.14,.49-.35,.52-.25,.04-.35,.28-.35,.7v1.79h12.6c.35,0,.53,.14,.53,.42v5.6c0,.28-.17,.42-.53,.42h-1.37c-.38,0-.56-.14-.56-.42v-3.85h-7.53v6.44c0,1.01,.63,1.5,1.93,1.5h3.96c.88,0,1.5-.1,1.86-.38,.42-.17,.67-.77,.8-1.82,.04-.14,.14-.25,.35-.25,.66,.42,1.36,.63,2.13,.67,.28,.04,.45,.17,.45,.42-.45,1.54-1.05,2.59-1.79,3.12-.46,.39-1.26,.56-2.45,.56h-6.55c-2.1,0-3.15-.77-3.15-2.31v-7.95h-5.6l1.65,.73c.25,.14,.38,.32,.38,.53,0,.14-.14,.17-.42,.17-.25,0-.42,.14-.53,.35-.7,1.4-1.37,2.55-2,3.43-.91,1.33-1.92,2.45-3.08,3.36-1.05,.84-2.24,1.58-3.54,2.28-.84,.42-1.5,.7-2.07,.91-.35,0-.56-.07-.59-.25-.32-.59-.7-1.19-1.16-1.79,1.05-.35,2.1-.8,3.15-1.37,1.19-.7,2.31-1.47,3.33-2.38,1.01-.84,1.89-1.82,2.66-3.01,.56-.84,1.05-1.85,1.5-2.97h-8.05v4.38c0,.28-.21,.42-.56,.42h-1.37c-.35,0-.53-.14-.53-.42v-5.99c0-.35,.17-.56,.53-.56h13.13v-3.01c0-.28,.17-.42,.56-.42,1.71,0,2.59,.14,2.59,.42Z"/>
      <path class="cls-1" d="M79.7,185.74c.21,.21,.35,.35,.35,.49,0,.21-.1,.35-.24,.38-.25,0-.39,.11-.46,.32-.07,.21-.14,.38-.18,.52h22.51c.14,0,.25,.14,.25,.42v1.09c0,.35-.11,.52-.25,.52h-23.28c-.14,.35-.28,.63-.38,.84-.46,.88-.91,1.68-1.4,2.41-.53,.7-1.05,1.29-1.61,1.82-.32,0-.56-.04-.77-.11-.46-.17-.91-.35-1.33-.53-.17-.07-.25-.1-.25-.17,0-.1,.04-.17,.11-.25,.88-.8,1.65-1.82,2.35-3.04,.38-.66,.73-1.4,1.05-2.21,.31-.84,.63-1.89,.95-3.19,.07-.14,.14-.21,.21-.21l2.38,.88Zm.8,17.75c.35,.74,.7,1.5,.98,2.28h2.28v-6.55c0-.17,.14-.28,.42-.28,1.61,0,2.45,.14,2.45,.42s-.1,.42-.28,.46c-.21,.04-.28,.25-.28,.63v5.32h1.54c.91-.95,1.61-1.79,2.1-2.49,.7-.98,1.26-1.96,1.61-2.94,.11-.28,.21-.46,.35-.46l1.89,.77c.28,.14,.46,.32,.46,.49s-.14,.32-.42,.39c-.38,0-.63,.14-.7,.42-.77,1.54-1.5,2.83-2.21,3.82h4.55c.17,0,.28,.14,.28,.42v1.09c0,.38-.1,.56-.28,.56h-8.68c.91,.95,1.75,1.68,2.45,2.21,.98,.84,2.21,1.58,3.64,2.24,1.16,.59,2.35,1.01,3.54,1.3,0,.17-.1,.28-.28,.35-.49,.46-.88,.88-1.19,1.29-.14,.18-.25,.28-.28,.28-1.85-.74-3.33-1.47-4.45-2.24-1.33-.84-2.45-1.71-3.36-2.7-.21-.17-.38-.35-.56-.56v6.72c0,.28-.18,.42-.53,.42h-1.37c-.28,0-.42-.14-.42-.42v-6.93c-.56,.63-1.09,1.12-1.54,1.54-.98,.91-2,1.71-3.08,2.49-1.33,.8-2.59,1.5-3.85,2.06-.28,0-.49-.07-.63-.21-.46-.46-.91-.84-1.33-1.19-.07-.18-.1-.28-.1-.35,1.19-.46,2.21-.91,3.01-1.33,1.12-.56,2.31-1.37,3.57-2.38,.63-.53,1.54-1.4,2.66-2.59h-8.02c-.21,0-.28-.17-.28-.56v-1.09c0-.28,.07-.42,.28-.42h4.69c-.14-.35-.32-.74-.49-1.12-.49-1.09-1.09-2.17-1.86-3.26,0-.14,.56-.49,1.75-1.08,.81,1.16,1.47,2.21,1.96,3.19Zm20.06-7.56c.17,.03,.35,.14,.56,.28,.35,.63,.56,1.05,.56,1.23-.77,1.61-1.29,3.15-1.5,4.55-.28,1.29-.42,2.55-.42,3.78,0,2.55,.28,4.51,.88,5.91,.52,1.19,1.01,1.75,1.43,1.75,.28,0,.46-.14,.56-.49,.17-.32,.38-1.3,.63-2.98,.07-.14,.17-.21,.31-.21s.25,.07,.32,.21c.38,.38,.77,.7,1.12,.91,.14,.07,.21,.25,.21,.49-.56,2.17-1.22,3.75-1.92,4.76-.35,.49-.77,.74-1.23,.74-.74,0-1.47-.49-2.21-1.43-.84-1.05-1.44-2.38-1.79-4.03-.42-1.79-.63-3.67-.63-5.63s.46-4.55,1.43-7.63h-22.93c-.28,0-.39-.18-.39-.56v-1.09c0-.35,.11-.56,.39-.56h24.61Zm-1.5-4.1c.17,0,.28,.14,.28,.42v1.08c0,.35-.1,.53-.28,.53h-19.95c-.21,0-.28-.17-.28-.53v-1.08c0-.28,.07-.42,.28-.42h19.95Z"/>
      <path class="cls-1" d="M113.82,196.31c.98,.63,1.82,1.19,2.52,1.68,0,.04-.07,.14-.21,.28-.77,1.08-1.16,1.61-1.19,1.61-1.05-.81-2.13-1.54-3.33-2.24-.98-.56-1.79-.95-2.41-1.16,0-.14,.35-.63,1.08-1.54,.1-.14,.21-.25,.28-.25,1.33,.59,2.42,1.12,3.25,1.61Zm3.26,6.06c.56,1.26,.88,1.96,.88,2.03,0,.21-.07,.38-.17,.52-1.19,2.66-2.31,4.94-3.36,6.83-.6,1.05-1.3,2.21-2.1,3.46-.17,.32-.25,.74-.25,1.23,0,.28-.11,.42-.25,.42-.21,0-.95-.74-2.24-2.21-.14-.07-.21-.21-.25-.38,0-.21,.04-.39,.17-.49,.7-.66,1.4-1.5,2.14-2.52,.98-1.4,1.92-2.98,2.87-4.73,.8-1.5,1.5-2.91,2.1-4.16,.07-.17,.17-.28,.25-.28,.1,0,.17,.11,.21,.28Zm-1.58-15.16c.98,.63,1.79,1.23,2.45,1.75,0,.03-.07,.14-.17,.31-.77,1.08-1.16,1.61-1.19,1.61-1.05-.84-2.14-1.65-3.26-2.34-.94-.56-1.71-.98-2.34-1.23,0-.11,.35-.63,1.08-1.54,.11-.14,.21-.25,.28-.25,1.26,.63,2.31,1.19,3.15,1.68Zm9.17,15.4c0,.25-.11,.38-.32,.38-.28,.17-.38,.45-.38,.88v2.31c0,.91-.07,1.96-.17,3.08-.14,1.19-.42,2.28-.84,3.25-.38,.95-.91,1.79-1.54,2.56-.49,.63-1.22,1.3-2.21,2.07-.14,0-.28-.11-.38-.32-.35-.38-.74-.7-1.12-.98-.21-.14-.28-.25-.28-.35,1.02-.8,1.71-1.47,2.1-1.96,.42-.53,.8-1.12,1.08-1.82s.53-1.58,.7-2.7c.14-.91,.21-1.86,.21-2.84v-3.68c0-.28,.04-.42,.14-.42,2,.28,3.01,.46,3.01,.53Zm6.97-17.08c0,.32-.14,.49-.35,.53-.25,.03-.35,.28-.35,.7v2.49h9.31c.28,0,.42,.18,.42,.53v1.12c0,.35-.14,.53-.42,.53h-12.81c1.4,.49,2.14,.8,2.14,.98,0,.25-.17,.35-.46,.35-.35,0-.49,.1-.49,.31-.63,1.02-1.4,2.17-2.38,3.47-.32,.42-.63,.8-.95,1.16,3.36-.28,6.69-.67,10.01-1.08-.63-.95-1.19-1.82-1.75-2.59,0-.21,.49-.59,1.5-1.09,.21,0,.32,.07,.39,.14,1.89,2.42,3.64,4.97,5.21,7.67,0,.35-.1,.53-.25,.53-.84,.56-1.47,.84-1.96,.84-.67-1.23-1.29-2.38-1.92-3.47-4.38,.6-9.21,1.12-14.53,1.61-.28,0-.49,.14-.63,.35-.1,.28-.28,.42-.56,.42-.25,0-.77-.95-1.61-2.87,1.19-.07,2.35-.14,3.54-.25,.98-1.37,1.86-2.8,2.66-4.31,.35-.74,.67-1.47,.91-2.17h-6.58c-.28,0-.42-.18-.42-.53v-1.12c0-.35,.14-.53,.42-.53h8.75v-3.71c0-.28,.17-.42,.56-.42,1.72,0,2.59,.14,2.59,.42Zm-1.23,17.08c0,.35-.14,.52-.35,.52-.25,.07-.35,.32-.35,.74v12.43c0,.28-.17,.42-.52,.42h-1.37c-.39,0-.56-.14-.56-.42v-13.69c0-.25,.17-.39,.56-.39,1.71,0,2.59,.14,2.59,.39Zm5.6,0c0,.21-.1,.42-.28,.7v9.98c0,.38,.07,.56,.28,.56h2.21c.46,0,.91-1.05,1.37-3.15l2.17,1.36c-.77,2.73-1.75,4.1-2.87,4.1h-3.82c-1.19,0-1.79-.56-1.79-1.64v-12.01c0-.28,.07-.42,.28-.42,1.61,.14,2.45,.32,2.45,.53Z"/>
      <path class="cls-1" d="M152.6,201.25c.35,0,.52,.14,.52,.42v9.03c0,.84,.14,1.43,.39,1.85,.17,.42,.45,.77,.88,.98,.49,.28,1.12,.49,1.82,.63,.91,.14,1.96,.21,3.08,.21h7.42c2.87,0,6.3-.31,10.26-.95,.14-.07,.31-.14,.52-.14,.14,0,.25,.07,.25,.14-.28,.91-.49,1.86-.63,2.84-.07,.38-.25,.59-.59,.59h-17.22c-.84,0-1.65-.07-2.42-.21-.8-.14-1.57-.32-2.31-.53-.66-.28-1.29-.59-1.86-1.01-.38-.35-.8-.98-1.22-1.82l-.14-.14c-.14,0-.25,.04-.25,.1-2.31,1.79-3.61,3.01-3.82,3.64-.07,.14-.17,.25-.31,.25s-.6-.6-1.33-1.79c-.14-.21-.18-.46-.18-.7,1.33-.63,3.01-1.68,5.04-3.22,.1-.07,.17-.31,.17-.73v-7.25h-4.38c-.28,0-.42-.17-.42-.56v-1.08c0-.35,.14-.56,.42-.56h6.3Zm-1.79-6.37c.94,.7,1.75,1.33,2.45,1.89,0,.04-.07,.14-.18,.28-.7,.98-1.05,1.47-1.05,1.47-1.05-.88-2.17-1.68-3.36-2.42-.98-.6-1.75-1.02-2.38-1.26,0-.14,.35-.63,1.09-1.54,.1-.14,.21-.25,.28-.25,1.26,.66,2.31,1.26,3.15,1.82Zm.67-7.46c.91,.63,1.68,1.19,2.34,1.68,0,.04-.07,.14-.17,.28-.7,1.01-1.05,1.5-1.05,1.5-1.02-.77-2.1-1.5-3.22-2.17-.91-.53-1.68-.91-2.28-1.12,0-.14,.35-.63,1.08-1.54,.11-.14,.21-.25,.28-.25,1.23,.59,2.24,1.12,3.01,1.61Zm21.63-1.33c.32,0,.53,.07,.63,.14,.49,.35,.74,.63,.74,.8l-6.9,4.73c.56,.28,1.05,.53,1.54,.74,0,.07-.07,.14-.17,.28-.18,.25-.32,.42-.42,.56h6.09c.42,0,.66,.25,.66,.67v16.56c0,.7-.46,1.23-1.37,1.58-.84,.32-1.96,.53-3.29,.63-.28,0-.42-.1-.42-.38-.07-.46-.32-1.16-.8-2.1,0-.07,.07-.1,.28-.1,1.54,0,2.49-.07,2.77-.25,.35-.14,.53-.38,.53-.77v-2.55h-5.88v5.88c0,.28-.21,.38-.56,.38h-1.37c-.38,0-.56-.11-.56-.38v-5.88h-5.46v5.6c0,.28-.21,.42-.56,.42h-1.37c-.28,0-.38-.14-.38-.42v-18.34c0-.35,.1-.53,.38-.53h8.96c-.98-.45-2-.88-2.98-1.26-1.37-.49-2.49-.88-3.36-1.09,0-.11,.32-.56,.95-1.4,.07-.14,.17-.21,.28-.21,1.71,.52,3.12,1.01,4.24,1.43l4.13-2.7h-12.32c-.28,0-.42-.17-.42-.52v-1.08c0-.28,.14-.42,.42-.42h16Zm-8.51,12.85v-3.43h-5.46v3.43h5.46Zm0,5.6v-3.54h-5.46v3.54h5.46Zm2.49-5.6h5.88v-3.43h-5.88v3.43Zm0,5.6h5.88v-3.54h-5.88v3.54Z"/>
      <path class="cls-1" d="M201.22,204.44c-.95,.94-2.07,1.4-3.36,1.4s-2.45-.46-3.36-1.4c-.95-.91-1.4-2.03-1.4-3.36s.46-2.42,1.4-3.36c.91-.91,2.03-1.4,3.36-1.4s2.42,.49,3.36,1.4c.91,.94,1.4,2.06,1.4,3.36s-.49,2.45-1.4,3.36Zm-.91-5.81c-.7-.67-1.5-1.01-2.45-1.01s-1.79,.35-2.45,1.01c-.7,.7-1.01,1.51-1.01,2.45s.31,1.79,1.01,2.45c.67,.7,1.47,1.01,2.45,1.01s1.75-.31,2.45-1.01c.67-.67,1.02-1.47,1.02-2.45s-.35-1.75-1.02-2.45Z"/>
    </g>
  </g>
</svg>