<?xml version="1.0" encoding="utf-8"?>
<!-- Generator: Adobe Illustrator 27.0.0, SVG Export Plug-In . SVG Version: 6.00 Build 0)  -->
<svg version="1.1" id="圖層_1" xmlns="http://www.w3.org/2000/svg" xmlns:xlink="http://www.w3.org/1999/xlink" x="0px" y="0px"
	 viewBox="0 0 863.8 187.7" style="enable-background:new 0 0 863.8 187.7;" xml:space="preserve">
<style type="text/css">
	.st0{fill:#FFF100;}
</style>
<g>
	<g id="_圖層_2">
		<g id="_圖層_1-2">
			<g>
				<g>
					<path class="st0" d="M405,50.2c-0.6,0.6-1.4,1-2.9,1.3c-1,12.9-2.9,18.8-6.8,21.4c-2.4,1.6-5.2,2.3-9.1,2.3
						c0-2.6-0.2-4.8-1.1-6c-1-1.4-2.6-2.3-5.2-2.9v-0.8c2.1,0.2,5.5,0.3,6.9,0.3c1,0,1.6-0.1,2.2-0.6c1.5-1.2,2.9-6.3,3.7-15.3
						h-39.2c-4.6,4.5-9.9,8.7-16.2,12l-0.6-0.6c10.7-9.2,18.5-22,23.5-34.6h-17.4l-0.6-2H361c2.2-5.8,3.9-11.5,5-16.7l12.5,3.8
						c-0.3,0.8-0.9,1.4-2.8,1.4c-1.3,3.7-2.9,7.6-4.8,11.5h8.1l3.4-3.8l8.1,5.9c-0.6,0.6-1.2,0.9-2.5,1l-1.8,7.6l2.7-3.1l7.8,5.8
						c-0.6,0.6-1.1,0.8-2.5,1l-1.5,7.8l3.9-3.6L405,50.2L405,50.2z M350.9,53.7c4.8,9.8,2.2,16.8-1.9,19c-2.9,1.6-6.4,0.6-7.5-2.5
						c-0.9-3,0.9-5.2,3.4-6.4c2.7-1.5,5.5-5.4,5.1-10L350.9,53.7L350.9,53.7z M346.5,9.3c22,1.9,13.3,18.8,4.5,12.2
						c-0.4-4.3-2.6-8.9-5-11.9L346.5,9.3z M363.3,38.1c-2.3,3.4-4.9,6.7-7.8,9.8h28.7l1.9-9.8H363.3L363.3,38.1z M358.4,53.8
						c15.8,9.7,4.1,22.6-1.9,14.1c1.5-4.7,1.8-9.8,1.1-13.9L358.4,53.8L358.4,53.8z M370,26.7c-1.5,3.1-3.4,6.3-5.4,9.5H377l2.4-9.5
						H370z M367,53.2c18.8,4.5,10.1,18.7,2.9,12.2c0-4.1-1.7-8.8-3.6-11.9L367,53.2z M376.7,51.9c18.4-0.6,12.6,14.1,5,9.5
						c-0.6-3.4-3.1-7.1-5.5-9.1C376.2,52.3,376.7,51.9,376.7,51.9z"/>
					<path class="st0" d="M445.6,73.1c0,0.5-2.9,2.2-7.8,2.2h-1.8V64c-4.6,1.7-10.4,3.8-17.6,6.2c-0.4,0.9-1.3,1.5-2,1.6L412,61.5
						c1.5-0.1,3.6-0.1,6.1-0.2V38.4h-6.6l-0.6-2h51.5l3.1-4.3c-1.7,0.6-5,1.4-7.3,1.4h-1.8V15.4h-26V32c0,0.9-4.5,3-8.5,3h-1.4V9.5
						l10.5,4h24.8l4.4-4.8l9.2,6.9c-0.4,0.6-1.3,1.3-2.7,1.5v13.5l0.8-1c0,0,5.7,4.7,9,7.8c-0.2,0.8-1,1.1-2,1.1h-28.7L445.6,73.1
						L445.6,73.1z M427.6,38.4v6h8.5v-6H427.6z M427.6,52.6h8.5v-6.2h-8.5V52.6z M427.6,60.7c2.7-0.1,5.5-0.3,8.5-0.6v-5.6h-8.5
						V60.7z M449.7,17.3c0,0,3.5,2.5,5.8,4.5c-0.2,0.8-0.8,1.1-1.8,1.1h-20.8l-0.6-2h14.2L449.7,17.3L449.7,17.3z M432.3,28.2h14.2
						l3.1-3.6c0,0,3.5,2.5,5.8,4.5c-0.2,0.8-0.8,1.1-1.8,1.1h-20.8L432.3,28.2L432.3,28.2z M475.1,46.6c-0.4,0.8-1,1-2.6,1.3
						c-1.5,5-3.8,9.7-7.1,13.8c3.9,1.6,8.3,2.7,12.7,3.6V66c-4.1,1.1-6.9,4.3-8.1,9.2c-4.3-2-8-4.3-11-7.1
						c-3.7,2.9-8.2,5.3-13.5,7.2l-0.4-0.7c4.2-3,7.5-6.9,10.1-11.1c-2.9-4.3-4.9-9.7-6.2-17h-2.5l-0.6-2h15l5.2-5.3L475.1,46.6
						L475.1,46.6z M449.9,46.4c1.8,4.8,4.6,8.3,8,11.1c1.5-3.6,2.5-7.3,3.2-11.1H449.9z"/>
					<path class="st0" d="M550.4,31.2c-0.6,0.6-1.3,0.8-2.7,0.8c-1.9,1.5-4.8,3.4-7.6,4.6c5.7,5.5-0.2,13.1-6.2,8.4
						c-0.3-4.4-2.7-9.3-5.2-12.5l0.6-0.3c3.8,0.6,6.7,1.6,8.8,2.9c0.2-1.5,0.3-3.3,0.4-4.8h-45.8c1,4.6-0.2,7.9-2.4,9.2
						c-2.2,1.4-5.6,0.5-6.5-2.3c-0.8-2.8,0.9-4.9,3.3-6c1.5-1.3,3.1-4.2,2.3-7l0.9-0.1c0.8,1.5,1.4,2.8,1.8,4.1H523
						c1.8-3.4,3.6-8,4.6-11.6c-11.1,0.7-24.7,1-36.5,0.5L491,16c14.6-1.4,33.3-4.9,43.1-7.9l7.6,8.1c-0.8,0.6-2.5,0.6-4.7-0.4
						c-2.2,0.2-4.5,0.4-6.9,0.6l9.1,3.4c-0.3,0.8-1.2,1.3-2.7,1.1c-2.7,2.2-7.1,5-11.3,7.3h12.6l4.5-4.6L550.4,31.2L550.4,31.2z
						 M538.8,55.5c-0.6,0.8-1.3,1-3.1,1.1c-2.2,2.7-4.7,5-7.5,7.1c6.2,0.7,12.8,1,19.2,0.9v0.9c-4.3,1.3-6.6,4.7-7.4,9.6
						c-8.7-1-16.6-2.5-23.5-5.2c-9,3.4-19.7,5-31.5,5.2l-0.2-0.9c9.4-1.6,18-4.1,25.1-7.5c-2.8-1.6-5.3-3.4-7.6-5.6
						c-4.3,2.3-9.2,4.1-13.9,5.1l-0.4-0.8c3.6-2.2,7.3-5.2,10.4-8.6c-1.5-2-2.9-4.2-4.1-6.6l0.7-0.6c1.5,2,3.2,3.6,5.2,5.1
						c2.2-2.7,4.1-5.3,5.3-7.8c-3.5-0.6-4.3-2.3-4.3-6.3v-9.4l10.1,0.8c-0.1,0.9-0.8,1.5-2.1,1.8v5c0,0.8,0.2,1,2.2,1h6.2
						c2.2,0,4.2,0,5.1-0.1c0.8,0,1.5-0.1,1.9-0.6c0.7-0.7,1.6-2.3,2.7-4.7h0.7l0.3,4.7c2.2,0.8,2.8,1.7,2.8,3.2
						c0,3.3-3.1,4.8-14.4,4.8h-8.2l9.3,2.6c-0.3,0.7-1,1.2-2.3,1.1c-0.4,0.6-0.9,1-1.5,1.6h11l5.6-4.8
						C530.8,47.8,538.8,55.5,538.8,55.5z M498.7,32.2c2.9,7.5,0.6,12.8-2.9,14.3c-2.5,1-5.8,0.1-6.6-2.8c-0.6-2.7,1.1-4.7,3.5-5.7
						c2.3-0.8,5-3.2,5.1-5.9C497.8,32.2,498.7,32.2,498.7,32.2z M496.1,17.9c17.6,1.8,9,14.6,2,8.8c0.1-3.1-1.2-6.4-2.6-8.5
						L496.1,17.9z M512.1,54.6c-1.5,1.3-3.3,2.7-5.2,3.9c3.4,1.5,7,2.6,11,3.5c2.9-2.2,5.2-4.6,7.1-7.4H512.1z M509.4,17.4
						c17.6,2.2,8.8,15.1,1.9,9.1c0.1-3.1-1-6.6-2.5-8.8L509.4,17.4z M512.4,30.6c17.4-0.5,10.6,13,3.4,8.3c-0.4-2.9-2.2-6.1-3.9-7.9
						C511.8,30.9,512.4,30.6,512.4,30.6z"/>
					<path class="st0" d="M619.8,63.8c2.7,5,3.2,7.7,1.7,9c-4.1,3.6-10.8,0-14.1-3.2c-2.6-2.5-4.8-5.2-6.7-8.2
						c-5.7,5.3-12.9,9.9-22,13l-0.5-0.8c8-4.9,14.3-11.5,18.9-18.6c-4.2-9-6.1-19-6.9-29.8h-17.9V36h6.3l4.7-4.5l8,6.7
						c-0.5,0.6-1.3,1-2.7,1.3c-0.4,15.5-1.3,20.4-4.6,22.9c-2.1,1.5-4.7,2.3-8.4,2.3c0-2.7-0.1-4.9-1-6.2c-0.8-1.3-2-2.1-4.2-2.7
						v-0.3c-2,7.3-6.2,14.6-14.8,20l-0.5-0.5c6.6-10.9,7.1-24.9,7.1-36.8V19.2l11.6,3.9h16.3c-0.3-4.8-0.4-9.6-0.4-14.5l12.5,1.2
						c-0.1,0.9-0.7,1.8-2.5,2c-0.1,3.7-0.1,7.5,0.1,11.3h7.7l2.4-3c-0.5-0.1-1-0.3-1.5-0.6c-1-3.2-3.7-6.7-6.1-8.7l0.5-0.4
						c12.5-1.5,14.6,4.6,12.2,7.8c2,1.6,5,3.9,7.1,5.7c-0.2,0.8-1,1.1-2,1.1h-20.2c0.4,6.4,1.3,12.7,3.2,18.4
						c1.8-4.3,3.2-8.8,4.1-13.1l12.8,4.3c-0.3,0.8-0.9,1.4-2.7,1.3c-2.3,5.9-5.4,11.8-9.5,17.4c1.6,2.5,3.5,4.6,5.7,6.6
						c1,1,1.5,1,2.4-0.1c1.3-1.8,3.6-5.8,5.1-9l0.6,0.2L619.8,63.8L619.8,63.8z M572.3,38v0.1c0,5-0.2,11-1.8,16.9
						c1.4,0.1,3.8,0.2,5,0.2c0.9,0,1.4-0.1,1.8-0.5c1.1-1,1.6-5.8,1.9-16.7H572.3z"/>
					<path class="st0" d="M693.4,63.3c2,1.1,2.5,2.2,2.5,4c0,3.5-2.7,5.5-10.2,5.5h-3.4c-6.1,0-7-1.9-7-7.6V49.8
						c-2.5,10.2-7.6,18.6-18.3,25.3l-0.7-1c9.5-11.7,11.3-25.6,11.6-43h-3.3l-0.1-0.5c-0.5,0.5-1.3,1-2.6,1.3v11.6
						c-0.1,0.5-4.8,2-7.7,2h-1.6v-2.7H652v21.6c0,6.1-1.3,10-10.8,10.7c-0.1-2.9-0.3-5-1.1-6.4c-0.7-1.3-1.8-2.3-4.8-2.8v-0.9
						c0,0,4.9,0.3,6.1,0.3c0.9,0,1.2-0.5,1.2-1.2V53.2c-3.6,6.4-8.5,10.9-14,13.9l-0.8-0.6c2.7-4.5,5.1-11.5,6.3-18.5l8.5,2.8v-8h-1
						v0.8c0,0.8-3.9,2.7-7.6,2.7h-1.3V24.8l9.2,3.6h10l4.1-4.5l8.3,6.2l-0.3-0.9h3.8c0.1-6.4-0.1-13.2-0.1-20.6l12.5,1.1
						c-0.2,1.1-0.9,1.8-2.6,2c-0.1,6.2-0.1,12-0.2,17.4h5.4l3.7-4.9c-1.3,0-2.7-0.5-4.1-1.8c0.1-3.8-1.2-7.8-2.7-10.7l0.6-0.3
						c13.1,2.9,12.2,10.5,8,12.4c1.7,1.3,5,4.1,7.3,6.1c-0.1,0.8-0.9,1.1-2,1.1h-9.3v31.3c0,0.9,0.1,1.3,1,1.3h1.3
						c0.5,0,0.9,0,1.3-0.1c0.5,0,0.9-0.1,1.3-0.8c0.7-1.3,1.9-5.5,3-9.4h0.7C693.1,53.3,693.4,63.3,693.4,63.3z M629.5,22.7l-0.6-2
						H654l4.7-6.5c0,0,5.4,4.4,8.5,7.4c-0.2,0.8-1,1.1-2,1.1L629.5,22.7L629.5,22.7z M640.2,8.6c20.5-0.1,13.2,15.8,4.6,10.4
						c-0.7-3.6-3-7.6-5.1-10L640.2,8.6z M652.6,40.8V30.3h-11.1v10.5H652.6z M653.6,48.8c17.2,6,7.8,18.8,1.3,12
						c0.3-4.1-0.8-8.5-2-11.8C652.9,49.1,653.6,48.8,653.6,48.8z"/>
					<path class="st0" d="M736.8,73.1c0,0.5-2.9,2.2-7.8,2.2h-1.8V64c-4.6,1.7-10.4,3.8-17.6,6.2c-0.4,0.9-1.3,1.5-2,1.6l-4.5-10.2
						c1.5-0.1,3.6-0.1,6.1-0.2V38.4h-6.7l-0.6-2h51.5l3.2-4.3c-1.7,0.6-5,1.4-7.3,1.4h-1.8V15.4h-26V32c0,0.9-4.5,3-8.5,3h-1.4V9.5
						l10.5,4H747l4.4-4.8l9.2,6.9c-0.4,0.6-1.3,1.3-2.7,1.5v13.5l0.8-1c0,0,5.7,4.7,9,7.8c-0.2,0.8-1,1.1-2,1.1h-28.7L736.8,73.1
						L736.8,73.1z M718.8,38.4v6h8.5v-6H718.8z M718.8,52.6h8.5v-6.2h-8.5V52.6z M718.8,60.7c2.7-0.1,5.5-0.3,8.5-0.6v-5.6h-8.5
						V60.7z M740.9,17.3c0,0,3.5,2.5,5.8,4.5c-0.2,0.8-0.8,1.1-1.8,1.1h-20.8l-0.6-2h14.2L740.9,17.3L740.9,17.3z M723.5,28.2h14.2
						l3.2-3.6c0,0,3.5,2.5,5.8,4.5c-0.2,0.8-0.8,1.1-1.8,1.1h-20.8L723.5,28.2L723.5,28.2z M766.3,46.6c-0.4,0.8-1,1-2.6,1.3
						c-1.5,5-3.8,9.7-7.1,13.8c3.9,1.6,8.3,2.7,12.7,3.6V66c-4.1,1.1-6.9,4.3-8.1,9.2c-4.3-2-8-4.3-11-7.1
						c-3.7,2.9-8.2,5.3-13.5,7.2l-0.4-0.7c4.2-3,7.5-6.9,10.1-11.1c-2.9-4.3-4.9-9.7-6.2-17h-2.5l-0.6-2h15l5.2-5.3L766.3,46.6
						L766.3,46.6z M741.1,46.4c1.8,4.8,4.6,8.3,8,11.1c1.5-3.6,2.5-7.3,3.2-11.1H741.1L741.1,46.4z"/>
					<path class="st0" d="M830,45.5c0,0,6,4.5,9.5,7.5c-0.2,0.8-1,1.1-2,1.1H811c-2.3,10.1-8.8,17.1-35.4,21.1l-0.3-1
						c17.2-5.5,22.6-11.8,24.4-20.1h-21.4l-0.6-2h22.3c0.4-2.6,0.6-5.5,0.6-8.5l13.9,0.9c-0.1,1-0.8,1.8-2.5,2
						c-0.2,2-0.4,3.8-0.8,5.6h13.3C824.7,52.1,830,45.5,830,45.5z M801.4,41.1v-8.5h-18.2l-0.6-2h18.8v-7.9h-21.8l-0.6-2h15.8
						c-0.5-0.2-1-0.6-1.5-0.9c-0.3-3.9-2.2-8-4.3-10.6l0.5-0.4c15.6,0.6,15.3,9.4,10.6,11.8h11.1c1.3-3.6,2.4-8.6,3-12l13.1,2.6
						c-0.3,0.9-1,1.5-2.7,1.5c-2.7,2.4-7,5.5-11.1,7.9h10l5-6.4c0,0,5.7,4.3,9.2,7.2c-0.2,0.8-1,1.1-2,1.1h-23.3v7.9h7.3l4.8-5.9
						c0,0,5.4,3.9,8.7,6.7c-0.2,0.8-1,1.1-2,1.1h-18.8v8.5h12.2l5.2-6.8c0,0,5.9,4.5,9.3,7.6c-0.1,0.8-1,1.1-2,1.1h-60.9l-0.6-2
						L801.4,41.1L801.4,41.1z M812.3,56.3c32.8,0.6,30.3,21.4,19.2,17.9c-4.5-6.2-13-13.3-19.7-17.4L812.3,56.3z"/>
					<path class="st0" d="M68.6,138.7c0,0,4.6,3.4,7.5,5.7c-0.2,0.8-0.9,1.1-1.9,1.1H63.2c-0.9,2.9-2.3,5.7-4.8,8.1
						c21.1,4.9,11.4,14,4.3,10.6c-2.7-1.9-6.4-4-11.1-5.9c-5.5,2.7-13.3,5-24.9,6.8l-0.4-1.1c8.7-2.6,14.7-5.3,18.8-8.2
						c-4.1-1.4-8.5-2.7-13.3-3.7h-0.1c1-1.6,2.4-4.1,3.7-6.6h-7.2l-0.6-2h8.7c1.9-3.9,3.6-7.8,4.4-10.1l11.5,3.4
						c-0.3,0.8-0.9,1.4-3.2,1.3c-0.7,1.5-1.6,3.4-2.6,5.3h7.1c0.3-1.5,0.6-3.1,0.7-4.7c-0.9,0.6-1.8,1.1-2.8,1.6l-0.7-0.8
						c2.2-3.1,4.1-7.8,5.1-11.4c-0.7,0.1-1.4,0.2-2.1,0.2h-1.1V105c-0.5,0.4-1.2,0.8-2.2,0.9v19c-0.1,0.5-3.8,1.9-6.2,1.9h-1.3v-1.3
						h-5v0.6c0,0.3-0.5,0.7-1.3,1.1l6.4,3.3c-0.3,0.7-1,1.1-2.6,0.9c-2.8,3.5-7.1,7.4-12,9.9l-0.7-0.8c2.6-3.4,4.8-8.3,6-12.3
						c-0.6,0.1-1.3,0.2-2,0.2h-0.6c1.8,4.6-2.1,8-5.3,4.8c0.1-2.5-0.6-5.5-1.5-8.1V162c0,0.9-3.8,3.1-7.1,3.1h-1.7v-25.6
						c-2,3.2-4.3,6.2-6.9,8.9l-0.9-0.8c3.9-8.1,5.9-19,7-29.3H9l-0.6-2h7.5v-18l11.3,1.1c-0.1,1-0.7,1.7-2.6,2v12.7l2-3.4
						c0,0,2.2,2.2,4.3,4.5V99.8l7.6,3.1h4.1l3.4-3.7l6.8,5.2v-4.5l7.6,3.1h3.7l3.5-3.8l7.5,5.7c-0.4,0.5-1.4,1.1-2.7,1.3V125
						c-0.1,0.5-3.8,1.9-6.3,1.9h-1.3v-1.3h-4.6v0.7c0,0.3-0.6,0.8-1.5,1.2l6.3,3.3c-0.3,0.7-0.9,1.1-2.6,0.9
						c-1.4,1.8-3.3,3.7-5.5,5.5l9.9,0.7c-0.1,1-0.8,1.8-2.4,1.9c-0.2,1.3-0.5,2.7-0.8,3.9h0.9L68.6,138.7L68.6,138.7z M24.7,122
						c3.3,1.7,5.2,3.6,6.3,5.4v-9h-6.3V122z M38.3,104.9v5h5v-5H38.3z M38.3,111.9v4.9h5v-4.9H38.3z M43.3,123.6v-4.8h-5v4.8H43.3z
						 M41.9,127.1c15.3-1.5,10.4,11,3.8,7.2c-0.4-2.5-2.4-5.3-4.3-6.7C41.3,127.6,41.9,127.2,41.9,127.1z M45.7,145.6
						c-1,2.1-2.2,4.2-3.2,5.9c2.5,0.1,4.8,0.4,6.9,0.6c1.8-2,3-4.3,3.8-6.6C53.2,145.6,45.7,145.6,45.7,145.6z M60.3,105v5h4.6v-5
						H60.3z M64.9,116.8v-4.9h-4.6v4.9H64.9z M64.9,123.6v-4.8h-4.6v4.8H64.9z M62.6,127.1c16.7-0.6,11.7,13,4.8,8.9
						c-0.4-3.1-2.8-6.6-5.4-8.4L62.6,127.1z"/>
					<path class="st0" d="M107.3,102.2c0,0,5,4.3,7.9,7.1c-0.2,0.8-1,1.1-2,1.1h-11.2l0.7,5.7c-1.4,1.9-5.2,2.7-9.7,2.5l-0.9-8.3
						H81.4l-0.6-2h11.1l-1-9.4l12.2,0.8c-0.1,0.9-0.6,1.7-2.1,2l0.8,6.6h1.1C102.9,108.4,107.3,102.1,107.3,102.2z M81.3,145.1
						c6.4-5.9,13.8-15.9,18.1-26.5l12.8,5.5c-0.3,0.8-1.3,1.4-3,1.2c-2,2.6-4,4.9-6.2,7l2.9,1.1c-0.2,0.6-0.8,1.1-2.2,1.3v27.9
						c-0.1,0.7-4.2,2.4-8,2.4h-1.8v-25.5c-3.9,2.5-7.9,4.6-12,6.2C81.8,145.7,81.3,145.1,81.3,145.1z M143.3,152.8
						c2.6,1.1,3.3,2.2,3.3,4.1c0,4.2-3.6,6.1-15.6,6.1h-6.7c-8,0-10.2-1.7-10.2-8.5v-34.6l12.3,1.1c-0.1,0.9-0.7,1.6-2.4,1.8v12.7
						h7.3l4.8-6.9c0,0,5.5,4.6,8.6,7.7c-0.2,0.8-1,1.1-2,1.1h-18.7v14.3c0,1.3,0.6,1.7,2.5,1.7h5.6c1.7,0,3.3,0,4.3-0.1
						c0.9-0.1,1.5-0.3,2.1-1c1-1.3,2.3-4.8,3.8-9h0.7L143.3,152.8L143.3,152.8z M140.5,102.1c0,0,5,4.3,7.9,7.1
						c-0.1,0.8-0.9,1.1-1.9,1.1h-14l-1,6.5c-1.8,1.4-5.8,2-10,1.2l1.1-7.7h-5.5l-0.6-2h6.3l1.3-9.4l12,2.2c-0.2,0.8-0.8,1.6-2.7,1.8
						l-0.8,5.5h3.3L140.5,102.1L140.5,102.1z"/>
					<path class="st0" d="M167.9,126.5c0,12-0.6,27.9-13.6,38.3l-0.7-0.4c5.2-11.2,5.3-25.3,5.3-37.9v-22.3l10.4,3.6h18.2
						c-0.7-3.4-2.9-6.9-5-9l0.5-0.3c13.7-0.8,14.6,6.5,11,9.3h13.3l4.7-6.4c0,0,5.2,4.3,8.3,7.3c-0.2,0.8-1,1.1-2,1.1h-50.4
						L167.9,126.5L167.9,126.5z M199,152c-5.7,2.7-14,6.1-26.6,10.6c-0.4,0.9-1.1,1.5-1.9,1.7l-4.8-9.2c3.4-0.3,9.4-1,16.7-1.9
						c0.8-3.1,1.7-7.3,2.2-10.2l0.3,0.1V141h-7.7v1c0,0.4-1.5,1.3-3.3,1.8c12.7,4.7,4,14.1-1.1,8.4c0.4-2.7,0-5.8-0.8-8.1
						c-0.4,0.1-0.7,0.1-1.1,0.1h-1.1v-16.1l7.6,3h6.8l3.5-3.7l6.8,5c-0.3-1.3-0.6-2.7-1-3.9l0.8-0.3c16.6,8.5,7.4,21.8,1,14.8
						c0.4-3.2,0-6.6-0.6-9.9c-0.4,0.4-1.1,0.6-1.8,0.8v7.6c-0.1,0.5-4.1,1.8-6.6,1.8h-0.4l8.3,2.7c-0.3,0.8-1.1,1.4-2.7,1.3
						c-1.5,1.6-3.9,3.6-6.2,5.5c4.2-0.6,8.8-1.2,13.4-1.8L199,152L199,152z M215.9,117.7c0,0,3.7,4.1,5.6,6.6
						c-0.1,0.8-0.8,1.1-1.8,1.1h-6.2V155c0,6-1.3,9.2-11.3,10.1c-0.2-2.7-0.6-4.7-1.8-6c-1.2-1.3-2.7-2.2-6.4-2.9v-0.9
						c0,0,7.7,0.5,9.2,0.5c1.1,0,1.5-0.4,1.5-1.2v-29.2h-8.1l0.1,0.1c-0.1,0.8-0.8,1.1-1.8,1.1h-25.4l-0.6-2h7.9v-5.5h-7.8l-0.6-2
						h8.4v-6.8l11.1,0.9c-0.1,0.9-0.6,1.5-2.3,1.8v4.1h1.3l3.7-4.8c0,0,4.3,3.3,6.9,5.6c-0.2,0.8-0.9,1.1-1.9,1.1h-9.9v5.5h1.1
						l3.6-4.9c0,0,2.4,2.2,4.7,4.2l-0.1-0.6h9.8v-12.2l11.3,1.1c-0.1,1.1-0.8,1.7-2.5,1.9v7.8L215.9,117.7L215.9,117.7z
						 M184.9,139.1v-6h-7.7v6H184.9z"/>
					<path class="st0" d="M285.3,137.2c0,0,5.9,5.4,9.2,8.8c-0.2,0.8-1,1.1-2,1.1h-45.6l11.7,5.6c-0.5,0.9-1.7,1.4-4.2,1.2
						c-5.9,4.7-15.9,8.8-26.6,11.1l-0.3-0.6c7.8-4.3,15.2-11.6,18.7-17.2h-18.8l-0.6-2h13.9V99.8l11.1,4.1h18.5l4.8-5.1l9,7.2
						c-0.5,0.6-1.3,1.2-2.8,1.5v36L285.3,137.2L285.3,137.2z M250.8,105.8v8.6h20.2v-8.6H250.8L250.8,105.8z M270.9,116.4h-20.2v8.1
						h20.2V116.4z M250.8,126.4v8.3h20.2v-8.3H250.8z M250.8,145.2h20.2v-8.6h-20.2V145.2z M263.8,149.1c41.7,3,24.2,22.3,16,14
						c-2.5-3.8-7.4-9.3-16.2-13.2L263.8,149.1z"/>
					<path class="st0" d="M309,140.9c4.8-2.4,7.1-5.8,8.1-10c-4.2-1.6-7.9-3.5-7.9-7.6c0-3.2,2.5-6,6.2-6s6.6,2.7,6.6,7.7
						c0,6.6-3.2,14.5-11.9,18.3L309,140.9L309,140.9z"/>
					<path class="st0" d="M351,149.9c5.2,3.5,13.9,4.4,30.4,4.4c8.1,0,14.8-0.1,22.8-0.6v0.8c-4,0.8-6.3,4.6-6.8,8.5h-19.7
						c-16,0-21.8-3-27.5-10.2c-1-1.5-1.9-1.3-2.5,0.1c-1,2.2-2.1,5.6-3.4,9.4c0.2,0.7-0.1,1.1-0.6,1.4l-6.4-9.6
						c3.6-1.5,8.8-4.6,10.6-5c2-4.4,3.6-9.9,4.2-14.6h-2.8l-2.8,2.7l-7.5-5.1c0.7-0.5,1.8-1.1,2.9-1.5c2.3-3.2,5.2-7.8,7.1-11h-9.8
						l-0.6-2h10.6l4-4l7.8,7.1c-0.6,0.7-2,1.1-3.6,1.2c-1.9,2.9-4.8,7.4-7.1,10.6h1.4l4.5-4.5l6.3,4.9v-21.6l9.7,3.7h3.2v-5.6h-16.4
						l-0.6-2h16.9v-9l11.9,1.1c-0.1,1-0.6,1.8-2.6,2v5.9h3.4l4.9-6.1c0,0,5.5,4.1,8.9,6.9c-0.2,0.8-1,1.1-2,1.1h-15.2v5.6h2.7
						l4.3-4.6l8.8,6.7c-0.4,0.6-1.3,1.2-2.8,1.5v17.3c-0.1,0.3-1.3,1-2.9,1.5c1.8,1.3,5.3,4,7.7,5.9c-0.1,0.8-1,1.1-2,1.1h-15.8v6.6
						c0,0.9-4.1,2.9-7.6,2.9h-1.8v-9.5h-15.9l-0.6-2h16.5v-6.7h-3.7v1.4c0,0.8-4.1,2.9-7.8,2.9h-1.3v-5c-0.3,0.1-0.6,0.1-0.9,0.1
						c-1.9,5-5.8,10.3-10.8,14.5L351,149.9L351,149.9z M340.6,99.9c21.6,0.8,13.6,17.4,4.8,11.4c-0.6-4.1-2.9-8.3-5.3-11.1
						L340.6,99.9L340.6,99.9z M371.5,117v7.2h3.7V117H371.5z M375.2,133.8v-7.6h-3.7v7.6H375.2z M384.5,117v7.2h3.4V117H384.5z
						 M388,126.2h-3.4v7.6h3.4C388,133.8,388,126.2,388,126.2z M391.9,138.1c-0.8,0.2-1.6,0.3-2.4,0.3H388v-2.6h-3.4v6.7h3.9
						L391.9,138.1L391.9,138.1z"/>
					<path class="st0" d="M454.6,127.6c-5.4,4.1-11.7,7.8-19,10.7l4.2,0.3c-0.1,1-0.8,1.6-2.3,1.8v1.8H457l4.8-6.3
						c0,0,5.4,4.3,8.5,7.1c-0.2,0.8-1,1.1-2,1.1h-30.9v7.8c0,1.1,0.5,1.4,3.8,1.4h12.2c3.5,0,7.2,0,9-0.1c1.5-0.1,2.4-0.4,3.1-1
						c1-1.1,2.4-3.2,4.2-6.9h0.7l0.2,6.9c3.4,1,4.3,2,4.3,3.9c0,4.5-4,5.9-22.4,5.9h-11.8c-10,0-13.2-1.1-13.2-8.1v-12.9
						c-5.2,1.5-10.8,2.8-16.9,3.6l-0.4-1c13-3.8,23.7-9.4,32.2-16.2h-31.1l-0.6-2h21.3v-12.4h-14l-0.6-2h14.6V98.6l12.4,1
						c-0.1,0.9-0.6,1.5-2.2,1.8v9.9h3.6l4.8-6.3c0,0,4.2,3.3,7.4,6c2.2-3.2,4-6.4,5.5-9.7l11.3,6.3c-0.4,0.7-1.2,1.1-2.9,0.8
						c-3.7,6.2-8.6,12.1-14.8,17.3h6l4.8-6.3c0,0,5.5,4.3,8.8,7.1c-0.2,0.8-1,1.1-2,1.1L454.6,127.6L454.6,127.6z M444.9,125.6
						c4.5-3.8,8.3-8.1,11.5-12.4h-14.1v12.4H444.9L444.9,125.6z"/>
					<path class="st0" d="M515.2,107.5c-0.3,0.8-1.3,1.4-3,1.3c-6.8,14-16,22.6-27.5,28.3l-0.6-0.6c7-7.8,14.2-20.7,17.6-34.2
						L515.2,107.5z M524.8,137.1c30.4,10.7,21.1,35.3,9.7,25.6c-0.3-2.8-1-5.7-1.8-8.5c-8.8,2.9-20.8,6.2-35.9,9.2
						c-0.8,1.1-1.8,1.8-2.7,2.1l-4.1-12.9c0,0,2.5-0.6,3.4-1.3c5.2-4,13.4-19.2,15.5-28.1l14.3,5.1c-0.3,0.8-1.2,1.4-2.7,1.5
						c-5,7.7-14.7,17.5-23,23.2c8.6-0.1,21.4-0.5,34.3-1.5c-1.9-5-4.5-9.9-7.6-14L524.8,137.1z M532.7,103.1c-1,1.2-3.7,1.8-7,2
						c3.4,9.9,12.1,17.9,23.8,21.4l-0.1,0.8c-4.3,1.8-7.8,6-9,10.3c-9.3-7.2-14.4-18.4-16.4-33.1h-8.6l-0.6-2h7.2l2.9-4.8
						L532.7,103.1L532.7,103.1z"/>
					<path class="st0" d="M623.3,108.7c-0.6,0.7-1.5,1-3.2,1.1c-2.7,4.6-7.1,11.8-11.2,16.6c8.6,4.5,12.2,12.2,12.2,18.2
						c0,7.2-3.1,12-12,12c0-2.7-0.3-6.8-1-8.1c-0.6-1-1.6-1.8-3.2-2.2v-0.8h4.3c0.6,0,1-0.1,1.4-0.4c0.9-0.6,1.4-1.6,1.4-3.6
						c0-5-1.3-10.6-4.9-15.1c1-4.9,2.2-13.7,2.7-19.5h-5.3v55c0,0.7-2.9,2.9-7.8,2.9h-1.8v-40c-0.3,0.1-0.6,0.1-0.9,0.1h-13.2
						c-2.1,2.4-4.4,4.8-6.9,7.1h5.1l4.2-4.6l8.5,6.5c-0.4,0.5-1.3,1.1-2.6,1.4v26.2c-0.1,0.5-4.7,2.2-7.8,2.2h-1.6v-6.2h-8.1v4.3
						c0,0.6-2.8,2.6-7.4,2.6h-1.7v-24c-2.2,1.4-4.6,2.7-7.1,3.8l-0.6-0.8c2.7-2,5.2-4.1,7.7-6.4v-8.8l6.1,2.2c1.5-1.9,3-3.8,4.5-5.7
						h-17.3l-0.6-2h11.2v-10.7h-8.9l-0.6-2h9.5V99.2l12,1c-0.1,1-0.6,1.7-2.6,2v8.1l3.6-5.4c0,0,1.6,1.5,3.4,3.2
						c1-2.4,2-4.7,2.7-6.9l9.4,4.6v-5.5l10.6,4.8h3.6l4.8-4.8L623.3,108.7L623.3,108.7z M571.6,134.1v9.9h8.1v-9.9H571.6z
						 M579.7,155.8V146h-8.1v9.8H579.7z M575.8,112.4v8.5c1.8-2.8,3.4-5.7,4.9-8.5H575.8z M588.8,117.6c0,0,3.5,2.9,6.1,5.4v-15.9
						c-0.5,0.1-1.1,0.2-2,0.1c-2.7,5.2-6.2,10.6-10.4,16h2.3L588.8,117.6z"/>
					<path class="st0" d="M650.3,138.6c0,0.8-4.3,2.7-7.8,2.7h-1.8v-13c-3.2,4-7.2,7.6-11.9,10.6l-0.7-0.7c5.2-6.7,8.4-16.4,10-25.7
						h-8.3l-0.6-2h11.5v-12l11.9,1.1c-0.1,0.8-0.6,1.5-2.3,1.8v8.8l4-5.9c0,0,4.8,4.3,7.6,7.1c-0.2,0.8-0.9,1.1-1.9,1.1h-9.7v5
						c17.9,3.8,9.6,17.7,2.3,11.6c-0.1-2.9-1-6.2-2.3-8.8L650.3,138.6L650.3,138.6z M638.6,142.7c4.8,9.3,2.8,16.1-1.1,18.3
						c-2.8,1.6-6.5,0.5-7.6-2.8c-0.8-3.1,1-5.5,3.7-6.6c2.2-1.4,4.8-4.9,4.3-8.8L638.6,142.7L638.6,142.7z M678.9,153.4
						c2.9,1.1,3.6,2.2,3.6,3.9c0,4.2-3.8,5.5-17.8,5.5h-8.6c-8.8,0-10.8-1.4-10.8-7.8v-13.4l12.4,0.9c-0.1,0.9-0.8,1.5-2.2,1.8v8.9
						c0,0.9,0.3,1.2,2.5,1.2h8c2.2,0,4.6,0,5.8-0.1s1.7-0.3,2.3-1c0.9-1.2,2.2-3.6,4-7.6h0.6L678.9,153.4L678.9,153.4z M659,139.3
						c1,0.2,2,0.4,2.9,0.6v-39.1l9.8,3.8h8.7l4.4-4.9l9.1,6.9c-0.5,0.6-1.3,1.2-2.8,1.5v29.3c-0.1,0.6-5,2.4-8.3,2.4H681v-4.5h-9.7
						v1.8c0,1-3.9,3.1-7.8,3.1c14.3,4.8,6.2,17.4-1,11.2c-0.1-4.3-2-8.8-4.1-12L659,139.3L659,139.3z M671.4,106.6v7.6h9.7v-7.6
						H671.4z M681,123.7v-7.4h-9.7v7.4H681z M681,133.6v-8h-9.7v8H681z M679.2,141.9c23.1,5.3,13.9,23.7,5.1,16.1
						c-0.1-5.5-2.5-11.6-5.7-15.8L679.2,141.9z"/>
					<path class="st0" d="M757.8,98.2c0,0,6.7,5,10.6,8.4c-0.2,0.8-1,1.1-2.2,1.1h-27.7v12.1c34.8,5,29.4,28,17.4,22.2
						c-4-7.1-11-14.8-17.4-20.4v40.5c0,0.7-3.4,3-8.8,3h-2v-57.4H702l-0.6-2H752L757.8,98.2L757.8,98.2z"/>
					<path class="st0" d="M788.1,126.5c0,12-0.6,27.9-13.7,38.3l-0.7-0.4c5.2-11.2,5.3-25.3,5.3-37.9v-22.3l10.4,3.6h18.2
						c-0.7-3.4-2.9-6.9-5-9l0.5-0.3c13.7-0.8,14.6,6.5,11,9.3h13.3l4.7-6.4c0,0,5.2,4.3,8.3,7.3c-0.2,0.8-1,1.1-2,1.1h-50.4
						L788.1,126.5L788.1,126.5z M819.2,152c-5.7,2.7-14,6.1-26.6,10.6c-0.4,0.9-1.1,1.5-1.9,1.7l-4.8-9.2c3.4-0.3,9.5-1,16.7-1.9
						c0.8-3.1,1.7-7.3,2.2-10.2l0.3,0.1V141h-7.7v1c0,0.4-1.5,1.3-3.3,1.8c12.7,4.7,4,14.1-1.1,8.4c0.4-2.7,0-5.8-0.8-8.1
						c-0.3,0.1-0.7,0.1-1,0.1h-1v-16.1l7.6,3h6.8l3.5-3.7l6.8,5c-0.3-1.3-0.6-2.7-1-3.9l0.8-0.3c16.6,8.5,7.4,21.8,1,14.8
						c0.3-3.2,0-6.6-0.6-9.9c-0.4,0.4-1,0.6-1.8,0.8v7.6c-0.1,0.5-4.1,1.8-6.6,1.8h-0.3l8.3,2.7c-0.3,0.8-1.1,1.4-2.7,1.3
						c-1.5,1.6-3.8,3.6-6.2,5.5c4.2-0.6,8.8-1.2,13.4-1.8L819.2,152L819.2,152z M836.1,117.7c0,0,3.7,4.1,5.6,6.6
						c-0.1,0.8-0.8,1.1-1.8,1.1h-6.2V155c0,6-1.3,9.2-11.3,10.1c-0.2-2.7-0.6-4.7-1.8-6c-1.2-1.3-2.7-2.2-6.4-2.9v-0.9
						c0,0,7.7,0.5,9.2,0.5c1.1,0,1.5-0.4,1.5-1.2v-29.2h-8.1l0.1,0.1c-0.1,0.8-0.8,1.1-1.8,1.1h-25.4l-0.6-2h7.9v-5.5h-7.8l-0.6-2
						h8.4v-6.8l11.1,0.9c-0.1,0.9-0.6,1.5-2.3,1.8v4.1h1.3l3.7-4.8c0,0,4.3,3.3,6.9,5.6c-0.2,0.8-0.9,1.1-1.9,1.1h-9.9v5.5h1.1
						l3.6-4.9c0,0,2.5,2.2,4.7,4.2l-0.1-0.6h9.8v-12.2l11.3,1.1c-0.1,1.1-0.8,1.7-2.5,1.9v7.8L836.1,117.7L836.1,117.7z
						 M805.1,139.1v-6h-7.7v6H805.1z"/>
				</g>
			</g>
		</g>
	</g>
</g>
</svg>
