<?xml version="1.0" encoding="utf-8"?>
<!-- Generator: Adobe Illustrator 27.0.0, SVG Export Plug-In . SVG Version: 6.00 Build 0)  -->
<svg version="1.1" id="圖層_1" xmlns="http://www.w3.org/2000/svg" xmlns:xlink="http://www.w3.org/1999/xlink" x="0px" y="0px"
	 viewBox="0 0 460.6 187.4" style="enable-background:new 0 0 460.6 187.4;" xml:space="preserve">
<style type="text/css">
	.st0{fill:#FFF100;}
</style>
<g>
	<g id="_圖層_2">
		<g id="_圖層_1-2">
			<g>
				<g>
					<path class="st0" d="M73.4,67.8c0,0,5.9,5.3,9.1,8.7c-0.2,0.8-1,1.1-2,1.1H15.9l-0.6-2h14.1c2-7.3,4.3-17.6,6.4-27.7H23.7
						L23,46h13.2c1.4-6.9,2.7-13.6,3.7-19H20.1l-0.6-2h43.7l5.4-7.4c0,0,6.2,5,9.7,8.3c-0.2,0.8-1.1,1.1-2.1,1.1H50.6
						c-1,5.5-2.3,12.2-3.8,19h9.5l4.8-5l9,7c-0.4,0.6-1.3,1.1-2.7,1.5v26.2h0.8C68.2,75.6,73.4,67.8,73.4,67.8z M46.4,48
						C44.3,58,42,68.3,40.1,75.6H57V48C57,48,46.4,48,46.4,48z"/>
					<path class="st0" d="M149.7,58c0,0,3.9,3.1,6.2,5.2c-0.2,0.8-0.9,1.1-1.8,1.1h-9.3c-0.7,2.2-1.7,4.3-3.4,6.2
						c19.7,4,8.5,13.9,0.5,10.5c-2.1-1.6-5.2-3.3-8.9-5c-5.3,2.2-13,4.1-24.3,5.5l-0.3-1.1c8.5-2.2,14.4-4.4,18.5-6.8
						c-3.9-1.3-8.3-2.5-13-3.4l0.1-0.1c1.1-1.5,2.4-3.6,3.6-5.9h-7.8l-0.6-2h9.5c0.8-1.5,1.5-2.9,2.2-4.3c-1.1,0.9-4.3,2.2-7.3,2.2
						h-1.2V42.6l1.8,0.6v-9.5h-2.2L112,34c-0.1,0.8-0.8,1.1-1.8,1.1H104v3.4c13.2,6.3,6.2,16.6,1.3,11.5c0.3-2.9-0.3-6.4-1.3-9.2
						v37.9c0,0.9-3.7,3-6.9,3h-1.6V56.2c-1.9,3.2-4.1,6.2-6.7,9L88,64.4c3.8-8.1,5.8-19,6.9-29.3h-6.1l-0.6-2h7.2v-18l11.1,1.1
						c-0.1,1-0.7,1.7-2.6,2v14.6l2.7-4.4c0,0,2,1.9,3.6,3.8l-0.1-0.4h3.8V21.6l9.1,3.5h3.6v-9.5l11.8,1c-0.1,1-0.6,1.7-2.5,2v6.4
						h3.3l3.7-3.9l7.6,5.6c-0.3,0.4-1,0.8-2,1v3l2.2-3.2c0,0,3.2,2.9,5,5c-0.2,0.8-0.8,1.1-1.8,1.1h-5.5v7.1c0,0.3-1,0.9-2.3,1.4
						l7.7,5.7c-0.4,0.4-1.1,0.9-2.2,1.2v6.4c-0.1,0.6-4.4,2.4-7.4,2.4H143v-2h-16l7.1,1.3c-0.2,0.8-0.8,1.6-3.2,1.8
						c-0.6,1-1.2,2.2-2,3.4h6.4c0.4-1.5,0.5-3,0.6-4.6l12,0.9c-0.1,0.9-0.8,1.7-2.4,1.9c-0.1,0.6-0.2,1.2-0.4,1.8h1L149.7,58
						L149.7,58z M122.9,41.8c0,0.6-2.9,2.2-5.9,2.5l4.7,1.8h5.2v-5.6h-3.9C122.9,40.5,122.9,41.8,122.9,41.8z M126.8,54.1v-6h-5.7v6
						H126.8z M121.1,57.6l0.7-1.6h-0.7V57.6z M122.9,31.9h3.9v-4.8h-3.9V31.9z M122.9,33.8v4.8h3.9v-4.8
						C126.8,33.8,122.9,33.8,122.9,33.8z M127.9,64.4c-1.1,1.6-2,3.3-3,4.7c2.7,0.1,5,0.2,7.2,0.3c1.4-1.6,2.2-3.3,2.9-5H127.9z
						 M136.1,27.1v4.8h3.9v-4.8H136.1z M139.9,33.8h-3.9v4.8h3.9C139.9,38.6,139.9,33.8,139.9,33.8z M145.9,42.5
						c-1.4,0.5-3,0.9-4.3,0.9h-1.6v-2.9h-3.9v5.6h6.3L145.9,42.5z M143,54.1v-6h-6.9v6H143z"/>
					<path class="st0" d="M228.1,32.2c-0.4,0.6-1.3,1.2-2.8,1.5v27.2c-0.1,0.6-4.5,2.7-7.7,2.7H216v-4.8h-4.6v20
						c0,1-4.1,3.3-7.6,3.3H202V58.7h-4.6V61c0,0.9-4,3-7.9,3h-1.4v-9c-1.1,2.1-4.1,3.1-6.8,0.8c-0.1-2.1-0.8-4.4-1.7-6.4V79
						c0,0.6-3,2.8-7.7,2.8h-1.7V55.3c-2.9,2.5-6,4.7-9.3,6.4l-0.6-0.6c7.6-8.1,13.7-19.2,16.2-28.6h-14.8l-0.6-2h15l5.1-4.9l6.9,6.6
						v-6l9.8,3.9h4.1V15.2l12,1.2c-0.1,1-0.6,1.7-2.6,2v11.9h3.9l4.2-4.6L228.1,32.2L228.1,32.2z M168.2,15.1
						c20.4,2.6,10.3,17.4,2.4,10.6c-0.1-3.8-1.5-7.6-2.9-10.3L168.2,15.1L168.2,15.1z M179.6,45.7c5,1.3,7.5,3.4,8.5,5.4V34.6
						c-0.4,0.1-1,0.1-1.6,0.2C184.7,38.4,182.4,42.1,179.6,45.7L179.6,45.7z M197.4,32.2V43h4.6V32.2H197.4z M202,56.8V44.9h-4.6
						v11.8H202z M211.4,32.2V43h4.6V32.2H211.4z M216,56.8V44.9h-4.6v11.8H216z"/>
					<path class="st0" d="M246.3,58.5v7.1c0,0.7-2.9,3.1-7.6,3.1H237V18.5l10.2,3.8h5l4.3-4.8l8.6,6.7c-0.5,0.6-1.4,1.2-2.8,1.5
						v35.9c-0.1,0.7-4.5,3-7.9,3h-1.5v-6.2C252.9,58.5,246.3,58.5,246.3,58.5z M246.3,24.2v15.1h6.6V24.2H246.3z M252.9,56.5V41.3
						h-6.6v15.2H252.9z M300.3,22.9c-0.5,0.6-1.4,1.2-2.9,1.5v46.4c0,6.4-1.5,10-12.5,11c-0.3-3.2-0.8-5.4-2.1-6.8
						c-1.4-1.5-3.1-2.5-7.4-3.3v-0.9c0,0,9,0.5,10.8,0.5c1.3,0,1.6-0.5,1.6-1.5V54.6h-11.5c-1.7,10.6-7.1,20.6-23.6,27.1l-0.6-0.6
						c13.6-10.4,15.5-23.2,15.5-37.8V17.1l10.9,3.7h8.6l4.3-4.9L300.3,22.9L300.3,22.9z M287.8,52.7v-14h-10.7v4.6
						c0,3.1-0.1,6.2-0.5,9.4H287.8L287.8,52.7z M277.1,22.8v13.9h10.7V22.8H277.1z"/>
					<path class="st0" d="M344.5,61.5c2.9,6,2.5,10.8,0.4,12.6c-1.3,1.1-3.4,1.1-4.7-0.2v5c0,0.5-2.3,2-6.2,2h-1.4V66.6
						c-0.3,0.1-0.6,0.2-1,0.2H328v4.3l4.5-0.5l0.1,0.8c-2.3,1.7-6.1,4.2-11.3,7.4c-0.4,0.9-1.1,1.5-1.9,1.6l-3.2-8.3
						c1.3-0.1,3.5-0.2,6.1-0.5v-4.9h-3.1l-0.6-2h3.7v-4.3c-1.1,0.1-2.2,0.1-3.1,0.1l-0.4-0.8c2.8-1.5,7-4.5,9-6.1h-7.6l-0.6-2h2.8
						V31.3h-2.2l-0.6-2h17.1l2.5-3.4h-19.7v16.9c0,12-0.4,28-12.6,38.7l-0.8-0.5c4.5-11.3,4.5-25.7,4.5-38.2V20.5l10.1,3.5h19.2
						c-0.7-3.1-2.9-6.4-4.8-8.3l0.5-0.4c13-0.9,14.1,5.9,10.9,8.8h13.9l4.6-6.4c0,0,5.2,4.3,8.3,7.2c-0.2,0.8-0.9,1.1-2,1.1h-30.4
						c1.3,1,3.2,2.8,4.6,4.2c-0.2,0.8-0.8,1.1-1.8,1.1h-3.8v38c0.4-0.6,1-1,1.6-1.3c1.3-1.2,2.4-4.2,1.7-6.5L344.5,61.5L344.5,61.5z
						 M329.3,62c0,0,1.8,1.5,3.2,3v-5.1c-0.5,0.2-1.2,0.2-1.9-0.4c-0.7,0.1-1.6,0.3-2.7,0.4v3.9L329.3,62L329.3,62z M328.4,53.8
						l4.1,6v-6H328.4z M329.2,31.3V37h3.3v-5.7H329.2z M329.2,44.8h3.3v-5.9h-3.3V44.8z M329.2,51.8h3.3v-5h-3.3V51.8z M371.2,51.7
						c-0.1,0.3-1.1,0.8-2.5,1.2c1.5,1.1,3.6,2.8,5.1,4.1c-0.1,0.8-0.8,1.1-1.8,1.1h-30.7l-0.6-2h22.8l2.2-2.7h-2v-1.1H349
						c0,0.6-2.9,2-5.7,2h-0.9V36l6.9,2.8h2.7v-4.7h-10.4l-0.6-2H352v-5.7l10.5,0.8c-0.1,0.9-0.6,1.5-2.2,1.8v3h2.2l3.7-5.1
						c0,0,4.2,3.5,6.7,6c-0.2,0.8-0.9,1.1-1.9,1.1h-10.8v4.7h2.7l3.4-3.6l7.1,5.2c-0.3,0.5-1.1,1-2.2,1.2V51.7z M365.6,73
						c1.8,0.7,2.2,1.5,2.2,2.8c0,2.7-2.5,4.2-10.1,4.2h-4.3c-5.4,0-6.2-1.4-6.2-5.7V59.8l8.9,0.8c-0.1,0.9-0.8,1.5-2,1.8v10.1
						c0,0.7,0.1,0.9,1.3,0.9h5.7c0.5,0,0.9-0.1,1.3-0.5c0.6-0.7,1.4-2.7,2.2-5h0.8L365.6,73L365.6,73z M349,50.5h1.9v-9.7H349V50.5z
						 M355.3,40.8v9.7h2.1v-9.7H355.3z M356.3,58.5c13.8,4.9,5.9,14.9,0.8,9.6c0.4-3.2-0.4-6.9-1.6-9.2
						C355.5,58.9,356.3,58.5,356.3,58.5z M363.6,50.5v-9.7h-2v9.7H363.6z M365,60.3c14.4,6.2,6.8,17.1,1.4,11.6
						c0.3-3.8-0.8-8.2-2.2-11.3L365,60.3L365,60.3z"/>
					<path class="st0" d="M76.8,150.7c-0.4,0.6-1.1,1.1-2.7,0.7c-3,1.4-7.1,2.8-11.2,3.9c5.6,3.3,12.5,5,19.5,6.2l-0.1,0.8
						c-4,1-6.7,4.2-7.8,9c-11.5-4.7-19.2-11.2-23-25.4c-2.4,2-5.2,3.9-8.4,5.4v8.6c3.3-0.8,6.9-1.6,10.4-2.5l0.1,0.7
						c-3,2.7-9.1,7.6-16.7,12.7c-0.6,0.8-1.1,1.3-1.8,1.7l-6-9.1c3.5-2,4.1-2.8,4.1-4.3v-4c-5.4,1.7-11.4,2.9-17.8,3.9l-0.3-0.8
						c9.9-3.2,18.3-8.3,23.6-13.7H16.5l-0.6-2H47c-0.5-0.2-1-0.4-1.5-0.8c-0.1-1.7-0.8-3.4-1.7-4.9c-1.5,0.6-4,1.2-6.3,1.2h-1.7
						v-12.3h-5c-0.8,5.9-3.9,11.5-13.3,15.2l-0.8-0.9c4.6-4.5,5.2-9.4,5.4-14.3h-4.4l-0.6-2h18.8v-5.5h-6.4l-2.7,3.7l-8.8-4.4
						c0.6-0.8,1.7-1.6,2.7-2.3v-8.3l10.3,1c-0.1,0.8-0.6,1.4-2,1.6v6.7h6.9v-10.8l12.2,1.1c-0.1,1-0.6,1.7-2.6,2v25.3
						c1.2,0,2.2,0.1,3.1,0.3l-0.4-1.6h8.8v-13.1H46.6l-0.6-2h10.9v-12l12.7,1c-0.1,1.1-0.6,1.8-2.5,2v9h1.4l4.8-6
						c0,0,5.3,4.1,8.5,6.9c-0.1,0.8-0.9,1.1-2,1.1H67.1v13.1h0.8l4.6-5.8c0,0,5.2,3.9,8.3,6.6c-0.1,0.8-0.9,1.1-2,1.1H50.1
						c5.7,1.8,4.4,6.8,0.8,8.1h17.3l4.8-6.6c0,0,5.5,4.4,8.6,7.4c-0.2,0.8-1,1.1-2,1.1h-12L76.8,150.7L76.8,150.7z M52.7,144.8
						c1.8,3.5,4.3,6.3,7.3,8.5c2.8-2.9,5.5-6.4,7.1-8.9H53.1C53.1,144.4,52.7,144.8,52.7,144.8z"/>
					<path class="st0" d="M88.4,122c20.4,0.9,12.8,16.7,4.5,10.9c-0.5-3.9-2.7-8-5-10.6C87.9,122.3,88.4,122,88.4,122z M111,117.9
						c-2.5,8.5-6.9,24.2-7.7,28.2c-0.6,2.4-1.1,5.1-1.1,6.9c0.1,4.1,3.5,6.1,3.3,12.5c-0.1,3.7-2.9,6.3-6.9,6.3
						c-1.8,0-3.9-0.8-4.7-3.6c1.5-7.2,1.3-14.1-0.5-15.3c-1-0.6-2.2-1.1-3.7-1.1v-1.3h3.2c1.1,0,1.5,0,2.3-1.5
						c1.1-1.8,6-12.3,14.7-31.4L111,117.9L111,117.9z M93.5,106.9c21.3-0.3,15,16.2,6.1,11.2c-1.1-3.9-4.1-8.2-6.6-10.8
						C93,107.3,93.5,106.9,93.5,106.9z M132.4,162.7c-0.5,0.8-1.8,1.3-4.1,1.1c-5,3.6-13.7,6.8-22.5,8.3l-0.3-0.7
						c5.9-3.4,11.8-9,14.8-13.4c-1.1,0.6-3.3,1.1-6.2,1.1h-1.5v-27.7l9.4,3.6h17.9l4.2-4.8l7.8,5.9c-0.4,0.6-1.1,1.1-2.7,1.4v18.5
						c0,0.4-2.9,1.9-7.5,1.9h-1.6v-2.4h-18.9v1.6L132.4,162.7L132.4,162.7z M148.1,122.1c0,0,4.5,3.6,7.1,6.2
						c-0.2,0.8-0.9,1.1-1.9,1.1h-43.1l-0.6-2h34.5L148.1,122.1z M111.3,113.7h6.7v-8.1l11.2,1c-0.1,0.9-0.7,1.7-2.6,2v5.2h7.6v-8.1
						l11.2,1c-0.1,0.9-0.7,1.7-2.6,2v5.2h0.1l3.9-5.5c0,0,4.4,3.8,6.9,6.4c-0.1,0.8-0.9,1.1-1.8,1.1h-9v8.9c0,0.6-3.8,1.8-7.1,1.8
						h-1.5v-3.8h-7.6v2c0,0.6-3.8,1.8-7.1,1.8H118v-10.6h-6.2C111.9,115.6,111.3,113.7,111.3,113.7z M121.3,136.8v7.4h5.1v-7.4
						H121.3z M126.4,153.5v-7.4h-5.1v7.4H126.4z M126.6,115.6v4.9h7.6v-4.9H126.6z M132.5,158.6c25.8-2.5,24.4,15.4,14.6,13.1
						c-3.5-4.3-10.1-9.7-15.1-12.5L132.5,158.6z M135,136.8v7.4h5.2v-7.4H135z M140.2,153.5v-7.4H135v7.4H140.2z"/>
					<path class="st0" d="M185.5,114.2c0,0,4.3,3.5,6.9,5.9c-0.1,0.8-0.9,1.1-1.9,1.1h-28.7l-0.6-2h20.4L185.5,114.2L185.5,114.2z
						 M201.9,116c0,5.7-1.4,15.4-13.6,20.9c0.6,0.5,1.1,0.9,1.5,1.3c-0.2,0.8-0.9,1.1-1.9,1.1h-23.2l-0.6-2h15.2l3.7-4.8
						c0,0,2,1.5,4.1,3.3c5.3-6.2,5.9-13.9,5.9-19.9v-9l10.4,3.6h4l4.3-4.7l7.8,6.2c-0.4,0.5-1.3,0.8-2.5,1.1v10c0,0.7,0.2,1,1,1h2.8
						c0.4,0,1.3-0.1,1.7-0.1c0.5-0.1,1.3-0.2,1.8-0.3h0.6l0.4,0.1c2,1,2.6,1.9,2.6,3.5c0,3.4-2.9,5.2-9.8,5.2h-3.3
						c-5.9,0-6.6-1.8-6.6-7.1v-12.9h-6.2L201.9,116L201.9,116z M179.3,128.2l3.7-4.8c0,0,4.2,3.3,6.7,5.7c-0.2,0.8-0.9,1.1-1.9,1.1
						h-23.2l-0.6-2L179.3,128.2L179.3,128.2z M179.5,168.1v-4h-5.9v4.2c0,0.8-3.7,2.7-7.4,2.7H165v-27.9l8.9,3.5h5l3.9-4.1l8,6
						c-0.4,0.5-1.2,1-2.4,1.3v16c-0.1,0.6-4.3,2.4-7.2,2.4L179.5,168.1L179.5,168.1z M168.3,106.6c20.9-0.7,13,15.7,4.2,9.9
						c-0.5-3.6-2.6-7.3-4.6-9.6C167.9,107,168.3,106.7,168.3,106.6z M179.5,162.2v-13.6h-5.9v13.6H179.5z M223.7,140.3
						c-0.5,0.8-1.2,1.1-2.9,1.2c-2.3,5.7-5.5,10.9-9.9,15.3c5,2.4,10.6,3.9,16.4,5l-0.1,0.8c-4,0.9-6.8,4-8.1,8.6
						c-5.8-2.4-10.7-5.2-14.6-9.1c-6.2,4.3-14,7.6-23.7,9.6l-0.4-0.8c8.3-3.3,15-8,20-13.6c-3-4.5-5.3-10.1-6.8-17.5h-2.8l-0.6-2
						H210l5.2-5L223.7,140.3L223.7,140.3z M194.8,139.7c2,5.5,5.2,9.7,9.3,12.9c2.7-3.9,4.8-8.3,6.2-12.9H194.8z"/>
					<path class="st0" d="M263.6,113.4c0,0,4.9,3.8,7.8,6.5c-0.1,0.8-0.9,1.1-1.9,1.1h-35.1l-0.6-2h25.3
						C259.2,119.1,263.6,113.4,263.6,113.4z M255.7,128.1l4.3-5.6c0,0,4.9,3.8,7.8,6.4c-0.2,0.8-0.9,1.1-1.9,1.1h-27.8l-0.6-2
						L255.7,128.1L255.7,128.1z M260,131.7c0,0,4.9,3.8,7.8,6.4c-0.2,0.8-0.9,1.1-1.9,1.1h-27.8l-0.6-2h18.1L260,131.7L260,131.7z
						 M260.1,142.6l8.4,6.4c-0.4,0.5-1.3,1.1-2.7,1.4v15.5c-0.1,0.6-4.5,2.4-7.6,2.4h-1.5v-4.1h-9v4c0,0.8-3.9,2.8-7.6,2.8h-1.3
						v-27.4l9.2,3.6h8L260.1,142.6L260.1,142.6z M243.8,106c21.6-0.6,13.5,16.4,4.5,10.4c-0.6-3.8-2.7-7.7-4.9-10.1L243.8,106z
						 M256.7,162.1V149h-9v13.2H256.7z M293.2,125.4c0,0,5.2,4.2,8.2,7c-0.2,0.8-1,1.1-2,1.1h-11.8v34.6c0,1-4.3,3.4-8,3.4h-1.9
						v-38.1h-10.3l-0.6-2h10.9v-25.8l12.5,1.2c-0.1,1-0.6,1.8-2.6,2v22.5h1L293.2,125.4L293.2,125.4z"/>
					<path class="st0" d="M347.6,135.9c-0.5,0.6-1.3,0.9-2.8,0.6c7.4,2.8,18.9,4,29.1,3.6l-0.1,0.8c-3.6,1.1-6.4,4.6-7.1,9.3
						c-11.3-2-19.2-5.7-24.6-12.1l-1.3,0.9l8.8,6.3c-0.1,0.2-0.4,0.4-0.6,0.4l8.7,7.4c-0.4,0.5-1.3,0.6-2.5,0.2
						c-9.2,5.5-27,10.3-42.6,10.3l-0.3-0.9c13.5-2.9,29-10.2,36.2-16.9c-0.4,0-0.8-0.1-1.3-0.2c-7.3,5-21.6,9.8-34,10.9l-0.4-0.9
						c9.4-3.1,19.9-9.5,25.8-15.2c-9.6,5.9-19.7,8.8-31.4,10.3l-0.3-0.9c10.1-3.6,18.5-8.7,25.8-16.4c-0.6-0.2-1.3-0.5-2-1
						c-0.1-0.4-0.1-0.7-0.2-1.1c-3.9,2.2-10.1,5.3-17.5,8.4c-0.4,0.5-0.8,0.8-1.3,1.1l-3.8-9.2c0,0,1.5-0.3,2.2-0.6
						c2.8-1.4,6.4-6.1,8.3-9.3l-2.3-5.8c0,0,1.6-0.2,2.6-0.6c6.1-1.5,14.6-8,17.3-11.3l11.8,5.3c-0.3,0.7-1.2,1.2-2.8,1
						c-4.1,2.1-10.6,4.2-16.9,5.8c6.9-0.2,15.8-0.5,25-0.8c-1.9-2-3.9-3.8-5.7-5.2l0.5-0.5c23.2-0.3,20,16.3,10.9,12.9
						c-1-1.9-2.7-3.9-4.4-5.9l-3.5,1l7.9,5c-0.3,0.5-1.1,0.9-2.4,0.6c-2.5,1.4-6,3.1-9.3,4.2c3.5,0.1,7.8,0,12.3,0
						c-0.4-1.3-1-2.6-1.5-3.6l0.7-0.3c15.8,4.7,8,16.2,2.1,10.7c-0.1-1.5-0.3-2.9-0.7-4.4c-3.8,1.3-9,3.1-14.7,4.8L347.6,135.9
						L347.6,135.9z M309.7,169.5c18.6-1.5,39.7-8.8,49.1-16.7l8.6,8.8c-0.5,0.5-1.3,0.6-2.6,0.1c-11.8,6.6-34.5,11-55,8.8
						L309.7,169.5L309.7,169.5z M328.3,127.5c-0.4,0.5-1.3,0.8-2.6,0.3c-1.9,1.1-4.5,2.4-7.4,3.5c3.6-0.4,7.7-0.8,11.9-1.3
						c-0.7-2.2-1.8-4.4-2.9-5.9l0.6-0.3c6.9,0.8,9.5,3.6,9.7,6l3.5,2.2l-2.4-4.8c0,0,1.3-0.3,2-0.6c2.3-1.2,5.1-5,6.8-8
						c-6.3,1.6-14.3,3.5-23.6,5.5C324.1,123.9,328.3,127.5,328.3,127.5z"/>
					<path class="st0" d="M437,120.3c0,0,5.2,4.3,8.3,7.3c-0.2,0.8-1,1.1-2,1.1h-21.8c-5,3.5-10.5,6.8-16.5,9.8h21l4.6-6.3
						c0,0,5.2,4.3,8.3,7.1c-0.1,0.8-0.9,1.1-2,1.1h-22.7c-0.8,2.6-2,6.2-2.9,8.8h12.3l4.8-4.4l8.3,6.8c-0.6,0.6-1.3,1.1-2.8,1.3
						c-1.1,9-3.1,14.5-6.9,16.7c-2.4,1.5-5.2,2.1-9.9,2.1c0-2.5-0.3-4.8-1.7-6.1c-1.4-1.5-4.2-2.6-7.6-3.3v-0.8
						c3.6,0.3,9.1,0.6,10.6,0.6c1.1,0,1.8-0.1,2.4-0.5c1.3-0.9,2.5-4.8,3.2-10.4h-13l-3.4,4.1l-9-5c0.6-0.6,1.6-1.3,2.6-1.8
						c0.8-2.4,1.8-5.7,2.5-8.1h-2.9c-6.9,3.2-14.4,5.9-22.2,7.9l-0.4-0.8c10.9-4.9,21.3-11.6,30.1-18.8H381l-0.6-2h21.2v-9.4h-15.4
						l-0.6-2h16v-9.9l12.7,1c-0.1,0.9-0.5,1.5-2.2,1.8v7.1h0.9l4.3-5.9c0,0,3.3,2.8,6,5.3c2.5-2.7,4.6-5.4,6.4-7.9l11.5,6.6
						c-0.4,0.7-1.2,1.1-2.9,0.8c-3.7,4.1-8.5,8.3-14,12.5h8L437,120.3L437,120.3z M412.1,117.4v8.4c3.2-2.8,6.2-5.6,8.8-8.4H412.1z"
						/>
				</g>
			</g>
		</g>
	</g>
</g>
</svg>
