<?xml version="1.0" encoding="UTF-8"?>
<svg id="_圖層_2" data-name="圖層 2" xmlns="http://www.w3.org/2000/svg" viewBox="0 0 783.39 136.96">
  <defs>
    <style>
      .cls-1 {
        fill: #fff;
        opacity: .7;
      }

      .cls-2 {
        fill: #231815;
      }
    </style>
  </defs>
  <g id="_圖層_1-2" data-name="圖層 1">
    <rect class="cls-1" width="783.39" height="136.96" rx="30" ry="30"/>
    <g>
      <path class="cls-2" d="M23.25,44.88s2.14,1.89,3.33,3.22c-.07,.39-.42,.56-.91,.56H13.21l-.28-1.02h8.44l1.89-2.76Zm-9.42-11.03l-.28-1.01h6.06l1.82-2.59s2.03,1.82,3.15,3.04c-.1,.39-.46,.56-.91,.56H13.84Zm22.19,3.92c-.11,.46-.53,.81-1.37,.81-.04,.35-.07,.7-.11,1.08,.88,6.72,3.68,12.01,11.1,15.19l-.04,.42c-1.75,.35-2.76,1.33-3.08,3.4-5.53-3.4-7.56-9.59-8.37-16.28-1.05,6.2-3.71,12.04-14.81,16.35l-.38-.56c10.78-6.27,11.9-13.44,12.22-21.53l4.83,1.12Zm-13.3,4.27c2.38-3.85,4.45-9.77,5.22-15.82l4.97,1.16c-.11,.46-.53,.8-1.33,.8-.53,1.86-1.16,3.54-1.86,5.11h10.71l1.93-1.96,3.43,3.29c-.28,.28-.66,.38-1.44,.42-1.15,2.38-3.33,5.67-5.29,7.7l-.38-.25c.77-2.27,1.57-5.74,2-8.19h-11.41c-1.61,3.33-3.64,6.06-6.09,8.05l-.46-.32Z"/>
      <path class="cls-2" d="M74.15,28.6c.42,13.51,2.03,21.6,8.33,26.18l-.07,.42c-1.5,.35-2.52,1.58-2.94,3.46-3.61-3.75-5.04-10.54-5.64-19.6-.66,8.02-2.83,14.81-10.81,19.71l-.42-.53c1.65-1.47,2.94-2.98,4.03-4.62h-12.15l-1.09,1.75-3.5-2.14c.24-.28,.63-.63,1.01-.88V27.16l3.85,1.96h8.16l1.96-2.62s2.21,1.82,3.54,3.08c-.11,.38-.46,.56-.95,.56h-6.2v6.2h2.49l1.51-1.61,2.87,2.49c-.24,.28-.7,.53-1.26,.63v7.84c-.07,.14-1.33,.7-2.55,.7h-.63v-1.61h-2.42v7.84h1.44l1.86-2.55s1.51,1.33,2.7,2.49c4.03-7.07,3.61-15.86,3.64-26.29l4.52,.46c-.07,.52-.38,.88-1.26,.98v.91Zm-15.96,7.74v-6.2h-3.99v6.2h3.99Zm5.5,1.01h-9.49v6.41h9.49v-6.41Zm-5.5,15.26v-7.84h-3.99v7.84h3.99Z"/>
      <path class="cls-2" d="M107.33,48.69l-.04,5.78c-2.35,1.33-4.87,1.96-7.74,1.96-7.7,0-13.23-5.22-13.23-13.51s5.81-13.55,13.3-13.55c2.49,0,4.9,.56,7.35,1.89v5.84h-2.03l-1.19-5.36c-1.19-.59-2.38-.84-3.64-.84-5.25,0-9.31,4.13-9.31,12.01s3.81,11.9,9.24,11.9c1.37,0,2.7-.21,4.03-.84l1.19-5.29h2.07Z"/>
      <path class="cls-2" d="M140.09,53.38s2.52,1.89,4.03,3.25c-.1,.39-.46,.56-.98,.56h-31.26l-.28-1.02h14.35v-10.47h-10.26l-.28-1.01h10.54v-8.96h-11.73l-.31-1.02h22.61l2.14-2.73s2.45,1.82,3.99,3.19c-.11,.38-.49,.56-.98,.56h-12.11v8.96h5.67l2.13-2.63s2.35,1.79,3.82,3.08c-.07,.39-.46,.56-.98,.56h-10.64v10.47h8.33l2.21-2.8Zm-17.82-26.99c11.38,1.26,9.59,8.86,5.74,6.9-1.01-2.38-3.74-5.04-6.02-6.58l.28-.32Z"/>
      <path class="cls-2" d="M160.28,26.74c-.11,.49-.38,.84-1.29,.98v29.68c0,.46-1.37,1.37-2.52,1.37h-.6v-14h-2.45c-.14,5.74-.73,10.57-5.07,13.9l-.46-.52c2.45-3.64,2.48-8.19,2.48-13.37h-2.13l-.31-1.01h7.95v-5.64h-2.91l-1.12,1.47-3.43-1.89c.32-.28,.84-.67,1.33-.95v-8.68l4.27,.8c-.07,.38-.46,.63-1.33,.77v7.46h3.19v-10.85l4.41,.49Zm17.15,5.85c-.11,.42-.53,.73-1.26,.73-.21,.53-.42,1.02-.67,1.47,3.01,.98,3.39,2.84,2.73,3.75,.56,.42,1.86,1.44,2.77,2.24-.11,.38-.42,.56-.91,.56h-20.72l-.28-1.02h8.71v-9.17h-7.46l-.25-1.01h7.7v-3.99l4.24,.39c-.07,.52-.38,.88-1.3,1.01v2.59h4.27l1.71-2.21s2,1.54,3.22,2.66c-.11,.38-.46,.56-.95,.56h-8.26v9.17h5.63l1.05-1.29c-.38,.07-.8-.04-1.26-.38-.11-.91-.6-1.93-1.23-2.77-.91,1.61-2.06,2.94-3.39,3.89l-.53-.35c1.22-1.96,2.17-4.79,2.55-7.81l3.85,.98Zm-10.82-.11c-.14,.42-.53,.74-1.3,.74-.21,.59-.45,1.12-.7,1.64,4.8,2.17,2.35,5.78,.42,3.99,.04-.95-.38-2.1-.91-3.01-1.01,1.75-2.31,3.19-3.78,4.16l-.49-.35c1.4-2,2.48-4.97,2.9-8.19l3.85,1.01Zm9.98,9.59l2.97,2.28c-.24,.28-.6,.49-1.33,.59v12.53c0,.17-1.05,.8-2.45,.8h-.49v-1.79h-11.52v1.43c0,.21-.91,.77-2.35,.77h-.49v-16.24l3.22,1.26h10.99l1.44-1.65Zm-1.3,13.41v-10.75h-11.52v10.75h11.52Zm-.94-7.84c-.14,.21-.56,.42-1.02,.53v4.97c-.04,.25-1.16,.77-1.89,.77h-.35v-1.19h-3.22v.84c0,.17-.77,.74-1.93,.74h-.35v-8.37l2.45,1.05h2.76l1.12-1.12,2.42,1.79Zm-3.26,4.06v-3.71h-3.22v3.71h3.22Z"/>
      <path class="cls-2" d="M212.96,26.67s2.48,1.82,3.95,3.12c-.11,.38-.45,.56-.95,.56h-13.55c-1.22,1.75-2.73,3.75-3.96,5.18h12.18l1.71-2.03,3.36,2.66c-.25,.31-.63,.56-1.44,.7v20.55c0,.25-1.23,.95-2.91,.95h-.56v-2.52h-20.58v1.89c0,.25-1.01,.91-2.73,.91h-.56v-24.57l3.71,1.47h6.62c.21-1.43,.49-3.5,.7-5.18h-13.16l-.31-1.02h26.29l2.17-2.66Zm-22.72,28.14h4.55v-18.27h-4.55v18.27Zm12.85-18.27h-5.18v5.32h5.18v-5.32Zm-5.18,11.76h5.18v-5.42h-5.18v5.42Zm0,6.51h5.18v-5.5h-5.18v5.5Zm8.3-18.27v18.27h4.62v-18.27h-4.62Z"/>
      <path class="cls-2" d="M229.27,36.4c-.14,.35-.46,.56-1.09,.67v20.72c-.04,.25-1.33,.98-2.62,.98h-.6v-18.8c-1.29,1.68-2.66,3.18-4.13,4.45l-.49-.32c2.91-4.34,5.85-11.13,7.39-17.85l4.8,1.47c-.17,.42-.56,.7-1.37,.7-.98,2.66-2.13,5.15-3.43,7.39l1.54,.6Zm13.76,8.26c-.21,2.94-.95,5.46-2.45,7.53,3.57,1.79,8.19,2.66,13.2,2.83v.42c-1.37,.38-2.45,1.61-2.7,3.25-5.22-.74-9.21-2.17-12.22-4.62-2.24,2.03-5.53,3.61-10.12,4.69l-.25-.53c4.1-1.5,6.93-3.36,8.72-5.78-1.37-1.5-2.49-3.33-3.33-5.46l.49-.28c.91,1.61,2.24,2.98,3.85,4.13,.94-1.82,1.43-3.85,1.57-6.2h-4.97v1.09c0,.28-1.44,1.01-2.77,1.01h-.42v-12.01l3.36,1.4h4.83v-3.71h-8.86l-.28-1.01h9.14v-5.11l4.52,.46c-.07,.49-.35,.84-1.26,.98v3.68h4.45l2.1-2.7s2.31,1.82,3.75,3.15c-.11,.38-.45,.56-.95,.56h-9.35v3.71h4.55l1.64-1.79,3.43,2.62c-.24,.28-.77,.59-1.44,.77v7.77c-.04,.25-1.64,.95-2.73,.95h-.56v-1.82h-4.97Zm-3.19-1.02v-6.48h-5.01v6.48h5.01Zm3.26-6.48v6.48h4.9v-6.48h-4.9Z"/>
      <path class="cls-2" d="M288,29.79c-.28,.32-.84,.67-1.64,.81v23.77c0,2.38-.49,3.78-4.62,4.13-.11-.98-.31-1.82-.77-2.31-.56-.52-1.37-.91-3.01-1.16v-.52s3.54,.28,4.27,.28c.63,0,.8-.28,.8-.77v-7.49h-7.91v10.92c0,.21-1.02,.94-2.7,.94h-.56v-11.87h-7.6c-.66,4.41-2.38,8.79-6.72,12.08l-.46-.31c3.88-5.22,4.31-11.94,4.31-18.59v-12.22l3.81,1.4h17.43l1.64-1.92,3.71,2.83Zm-16.14,15.72v-7.39h-7.18v1.54c0,1.89-.04,3.85-.28,5.85h7.46Zm-7.18-15.61v7.21h7.18v-7.21h-7.18Zm10.43,0v7.21h7.91v-7.21h-7.91Zm7.91,15.61v-7.39h-7.91v7.39h7.91Z"/>
      <path class="cls-2" d="M293.67,34.3c8.09,1.16,5.6,7,2.62,4.94-.31-1.65-1.64-3.57-2.94-4.69l.32-.25Zm10.12-1.75c-1.44,4.31-4.06,12.29-4.52,14.11-.31,1.12-.56,2.28-.53,3.15,.04,1.75,1.23,3.25,1.12,6.23-.07,1.65-.98,2.66-2.42,2.66-.7,0-1.33-.53-1.5-1.75,.56-3.68,.38-6.76-.42-7.28-.49-.35-.98-.49-1.75-.56v-.7h1.54c.49,0,.6-.04,.98-.7q.66-1.29,6.86-15.33l.63,.17Zm-7.7-6.06c8.51,1.4,6.02,7.32,2.98,5.29-.46-1.75-2-3.78-3.29-5.04l.31-.25Zm28.18,28.04s1.61,1.68,2.49,2.8c-.11,.38-.42,.56-.91,.56h-25.2l-.28-1.02h3.54v-13.34l3.36,1.37h12.36l1.44-1.89,3.64,2.56c-.25,.35-.7,.56-1.61,.7v10.22l1.19-1.96Zm-16.17-12.36c0,.25-1.02,.84-2.63,.84h-.52v-15.79l3.54,1.37h10.43l1.51-1.79,3.19,2.38c-.24,.31-.6,.52-1.37,.63v11.94c0,.17-1.09,.8-2.66,.8h-.56v-1.79h-10.92v1.4Zm-1.19,14.7h2.59v-10.96h-2.59v10.96Zm1.19-27.27v10.15h10.92v-10.15h-10.92Zm8.05,1.5c-.14,.35-.39,.59-1.23,.59-.28,.81-.66,1.61-1.12,2.42,5.98,1.4,4.52,5.36,2.31,4.13-.49-1.08-1.65-2.49-2.77-3.46-1.09,1.61-2.59,3.01-4.59,3.85l-.28-.49c2.41-1.89,3.61-5.18,3.96-8.12l3.71,1.08Zm-1.44,14.81h-2.62v10.96h2.62v-10.96Zm2.59,0v10.96h2.66v-10.96h-2.66Z"/>
      <path class="cls-2" d="M334.12,50.79v3.29c0,.25-.95,.98-2.41,.98h-.49V28.32l3.36,1.5h2.77l1.51-1.75,3.22,2.55c-.21,.28-.77,.6-1.47,.74v21.18c-.04,.24-1.44,.94-2.45,.94h-.46v-2.7h-3.57Zm0-19.99v9.03h3.57v-9.03h-3.57Zm3.57,18.97v-8.93h-3.57v8.93h3.57Zm22.51-3.19c-.28,.35-.63,.42-1.44,.49-1.05,2.17-2.48,4.1-4.23,5.78,2.38,1.23,5.21,2.07,8.22,2.62v.39c-1.29,.28-2.17,1.26-2.52,2.73-3.08-.98-5.67-2.31-7.77-4.13-2.83,2-6.44,3.46-10.88,4.34l-.25-.56c3.92-1.22,7.14-3.01,9.59-5.25-1.33-1.51-2.45-3.33-3.26-5.5-1.89,4.45-4.9,8.09-9.8,10.82l-.31-.39c4.9-4.03,7.38-9.24,8.51-15.12h-4.59l-.28-1.01h5.04c.18-1.16,.31-2.28,.38-3.47h-3.78l-.28-1.01h10.99c.73-1.93,1.68-4.87,2.38-7.46l4.06,1.43c-.17,.39-.59,.7-1.33,.63-1.29,1.85-2.8,3.85-4.13,5.39h1.33l1.79-2.28s2.03,1.58,3.25,2.73c-.1,.39-.46,.56-.91,.56h-10.05c-.14,1.19-.31,2.34-.56,3.47h8.26l1.86-2.38s2.06,1.65,3.32,2.84c-.11,.39-.42,.56-.95,.56h-12.71c-.25,.98-.49,1.89-.81,2.8h6.97l1.82-1.71,3.04,2.7Zm.18-17.33c-.32,.28-1.05,.32-2-.1-4.03,.7-10.29,1.22-15.82,1.12l-.07-.59c5.14-.67,11.48-2.31,14.74-3.64l3.15,3.22Zm-16.94,1.86c6.97,2.45,4.38,7.32,1.93,5.32-.21-1.68-1.33-3.75-2.31-5.11l.38-.21Zm4.66,15.51c1.05,1.96,2.48,3.57,4.27,4.87,1.26-1.47,2.27-3.08,2.97-4.87h-7.25Zm.63-16.17c6.65,2.91,3.71,7.7,1.37,5.5-.11-1.79-.98-3.89-1.79-5.32l.42-.17Z"/>
      <path class="cls-2" d="M368.88,38.5c3.64,1.05,6.51,2.73,7.74,4.76,.49,.77,.73,1.75,.63,2.59-.14,.74-.63,1.4-1.58,1.4-.77,0-1.3-.49-1.79-1.58-1.02-2.1-2.7-4.45-5.36-6.65l.35-.53Z"/>
      <path class="cls-2" d="M385.58,43.79c4.87-2,9.28-5.04,12.22-8.09h-10.61l-.31-1.02h14.46c-.28-.1-.53-.28-.77-.56-.52-1.19-1.75-2.59-3.85-3.64l.24-.49c3.68,.28,5.6,1.08,6.44,1.96,1.29-.91,2.77-2.03,3.82-2.94h-16.84l-.31-1.02h17.78l2.13-1.96,3.43,3.29c-.28,.28-.7,.35-1.47,.38-2,.98-5.36,2.17-8.05,2.94,.35,.88-.28,1.72-1.15,2.03h8.99l2.03-1.92,3.43,3.25c-.28,.28-.66,.35-1.4,.39-1.64,1.22-4.58,2.62-6.76,3.39l-.35-.28c.91-1.02,2.1-2.52,2.91-3.82h-6.79v4.73c0,2.06-.56,3.05-4.52,3.33-.07-.77-.24-1.37-.67-1.72-.46-.31-1.22-.63-2.8-.84l-.04-.49s3.19,.25,3.92,.25c.6,0,.73-.21,.73-.59v-3.64c-3.78,3.4-9.45,5.95-15.58,7.53l-.28-.46Zm.14,13.3c3.12-1.68,6.58-4.79,8.89-8.65l3.57,2.55c-.25,.32-.77,.53-1.47,.25-2.97,3.29-6.93,5.29-10.68,6.37l-.32-.53Zm28-12.95s2.28,1.75,3.75,3.01c-.11,.38-.46,.56-.98,.56h-13.34v10.08c0,.32-1.51,.91-2.8,.91h-.63v-10.99h-13.27l-.28-1.01h13.55v-2.7l4.73,.49c-.07,.46-.38,.81-1.29,.95v1.26h8.51l2.06-2.56Zm-8.16,5.01c12.74,2.59,11.69,9.49,7.98,8.02-1.71-2.42-5.6-5.74-8.3-7.7l.31-.31Z"/>
      <path class="cls-2" d="M435.38,35.11s2.1,1.75,3.33,2.98c-.07,.38-.42,.56-.95,.56h-5.95v2.27c8.47,2.91,5.88,8.37,3.12,6.23-.38-1.72-1.82-3.78-3.12-5.36v15.96c-.04,.25-1.12,1.02-2.7,1.02h-.56v-13.86c-1.72,3.08-3.92,5.81-6.72,8.16l-.42-.42c2.94-3.78,4.97-9,6.16-14h-5.5l-.28-1.02h6.76v-6.48c-2.24,.38-4.52,.67-6.72,.84l-.14-.52c4.45-1.19,10.01-3.54,12.85-5.15l3.64,3.29c-.35,.31-1.08,.35-2.06,0-1.19,.35-2.7,.67-4.31,.98v7.04h1.72l1.85-2.52Zm18.1-2.34c-.21,.31-.8,.59-1.54,.77v21.63c-.07,.21-1.68,.88-2.8,.88h-.53v-3.61h-6.27v3.04c0,.39-1.29,1.19-2.7,1.19h-.56V30.38l3.43,1.47h5.74l1.68-1.86,3.54,2.77Zm-4.87,18.66v-18.55h-6.27v18.55h6.27Z"/>
      <path class="cls-2" d="M473.53,33.6c-.24,.28-.77,.56-1.47,.74v21.11c-.04,.28-1.58,.98-2.66,.98h-.49v-2.7h-6.2v2.7c0,.35-1.19,1.12-2.52,1.12h-.53V31.29l3.22,1.47h.63c.31-1.86,.73-4.55,.98-6.48l4.83,1.16c-.18,.56-.63,.8-1.4,.8-.84,1.33-2.06,3.12-3.04,4.52h3.68l1.61-1.82,3.36,2.66Zm-10.81,.17v8.72h6.2v-8.72h-6.2Zm6.2,18.94v-9.21h-6.2v9.21h6.2Zm21.7-19.11c-.28,.32-.7,.53-1.5,.63-.25,13.58-.8,20.62-2.59,22.65-1.12,1.29-2.62,1.82-4.65,1.82,0-1.08-.18-1.92-.73-2.41-.6-.56-2-1.05-3.61-1.33l.03-.56c1.65,.17,4.1,.35,4.94,.35,.7,0,.98-.11,1.37-.46,1.3-1.26,1.72-8.61,1.96-20.58h-7.35c-1.61,2.91-3.5,5.46-5.6,7.35l-.49-.32c2.06-3.54,4.1-9.1,5.15-14.46l4.65,1.37c-.14,.42-.56,.73-1.33,.73-.53,1.51-1.15,2.94-1.86,4.31h6.44l1.89-2,3.29,2.91Zm-14.98,6.27c9.45,3.33,6.37,10.12,3.19,7.46-.28-2.42-1.96-5.36-3.5-7.25l.32-.21Z"/>
      <path class="cls-2" d="M498.62,50.79v3.29c0,.25-.95,.98-2.41,.98h-.49V28.32l3.36,1.5h2.77l1.51-1.75,3.22,2.55c-.21,.28-.77,.6-1.47,.74v21.18c-.04,.24-1.44,.94-2.45,.94h-.46v-2.7h-3.57Zm0-19.99v9.03h3.57v-9.03h-3.57Zm3.57,18.97v-8.93h-3.57v8.93h3.57Zm22.51-3.19c-.28,.35-.63,.42-1.44,.49-1.05,2.17-2.48,4.1-4.23,5.78,2.38,1.23,5.21,2.07,8.22,2.62v.39c-1.29,.28-2.17,1.26-2.52,2.73-3.08-.98-5.67-2.31-7.77-4.13-2.83,2-6.44,3.46-10.88,4.34l-.25-.56c3.92-1.22,7.14-3.01,9.59-5.25-1.33-1.51-2.45-3.33-3.26-5.5-1.89,4.45-4.9,8.09-9.8,10.82l-.31-.39c4.9-4.03,7.38-9.24,8.51-15.12h-4.59l-.28-1.01h5.04c.18-1.16,.31-2.28,.38-3.47h-3.78l-.28-1.01h10.99c.73-1.93,1.68-4.87,2.38-7.46l4.06,1.43c-.17,.39-.59,.7-1.33,.63-1.29,1.85-2.8,3.85-4.13,5.39h1.33l1.79-2.28s2.03,1.58,3.25,2.73c-.1,.39-.46,.56-.91,.56h-10.05c-.14,1.19-.31,2.34-.56,3.47h8.26l1.86-2.38s2.06,1.65,3.32,2.84c-.11,.39-.42,.56-.95,.56h-12.71c-.25,.98-.49,1.89-.81,2.8h6.97l1.82-1.71,3.04,2.7Zm.18-17.33c-.32,.28-1.05,.32-2-.1-4.03,.7-10.29,1.22-15.82,1.12l-.07-.59c5.14-.67,11.48-2.31,14.74-3.64l3.15,3.22Zm-16.94,1.86c6.97,2.45,4.38,7.32,1.93,5.32-.21-1.68-1.33-3.75-2.31-5.11l.38-.21Zm4.66,15.51c1.05,1.96,2.48,3.57,4.27,4.87,1.26-1.47,2.27-3.08,2.97-4.87h-7.25Zm.63-16.17c6.65,2.91,3.71,7.7,1.37,5.5-.11-1.79-.98-3.89-1.79-5.32l.42-.17Z"/>
      <path class="cls-2" d="M561.31,54.05c1.5,.42,1.99,.63,1.99,1.33,0,1.58-1.47,2.59-7.98,2.59h-13.13c-4.69,0-6.89-1.12-6.89-4.9v-14.95c-1.44,1.22-2.94,2.31-4.48,3.19l-.35-.35c3.99-3.46,7.91-9.7,9.77-14.91l4.87,1.26c-.14,.38-.46,.56-1.37,.49-.46,.84-.98,1.68-1.54,2.52h6.76l1.93-1.89,3.32,2.94c-.28,.28-.7,.35-1.4,.42-1.4,1.4-3.54,3.4-5.53,4.66h8.05l1.68-1.85,3.57,2.73c-.24,.31-.8,.63-1.54,.77v9.35c-.04,.25-1.68,.91-2.77,.91h-.56v-2.31h-17.15v7.14c0,1.33,1.16,1.64,3.5,1.64h12.95c2.2,0,3.22-.14,3.85-.98,.6-.77,1.44-3.12,2-4.97h.42l.04,5.18Zm-19.85-22.72c-1.12,1.58-2.42,3.12-3.82,4.59l1.37,.52h7.39c.91-1.4,1.96-3.54,2.59-5.11h-7.53Zm-2.91,13.69h6.86v-7.56h-6.86v7.56Zm10.08-7.56v7.56h7.07v-7.56h-7.07Z"/>
      <path class="cls-2" d="M577.48,31.05s1.79,1.37,2.9,2.42c-.11,.38-.42,.56-.95,.56h-11.97l-.28-1.01h8.75l1.54-1.96Zm-2.49,6.37l1.47-1.82s1.57,1.29,2.59,2.28c-.07,.38-.42,.56-.88,.56h-9.45l-.28-1.01h6.54Zm-6.27,5.53l-.28-1.01h6.54l1.47-1.82s1.57,1.29,2.59,2.28c-.07,.38-.42,.56-.88,.56h-9.45Zm9.52,13.16c-.04,.28-1.44,.94-2.45,.94h-.46v-1.64h-3.74v2.07c0,.28-1.26,.94-2.45,.94h-.46v-13.34l3.05,1.29h3.25l1.47-1.58,3.12,2.38c-.21,.25-.7,.53-1.33,.67v8.26Zm-8.02-29.26c8.02,1.02,5.39,6.86,2.35,4.8-.35-1.58-1.61-3.47-2.66-4.62l.31-.17Zm5.11,27.55v-7h-3.74v7h3.74Zm24.33-24.68c-.21,.25-.77,.56-1.5,.7v24.33c0,2.24-.42,3.61-4.17,3.99-.11-.98-.28-1.75-.74-2.24-.52-.49-1.22-.88-2.76-1.08v-.53s3.19,.25,3.92,.25c.6,0,.73-.25,.73-.74v-13.51h-11.38l-.14-.53v.46c0,5.95-.11,13.06-4.94,17.92l-.46-.32c2.52-4.94,2.55-11.38,2.55-17.57v-13.34l3.36,1.33h10.64l1.47-1.79,3.39,2.66Zm-16.03,.14v4.83h4.38v-4.31l3.71,.42c-.07,.42-.35,.73-1.12,.88v3.01h1.61l1.3-1.85s.84,.73,1.64,1.5v-4.48h-11.52Zm4.38,10.01v-4.17h-4.3l-.07-.25v4.41h4.38Zm-.46,11.24v1.33c0,.21-1.05,.74-2.1,.74h-.35v-10.92l2.62,1.12h2.9l1.26-1.36,2.8,2.13c-.21,.25-.7,.53-1.29,.63v7.18c-.04,.25-1.29,.77-2.06,.77h-.38v-1.61h-3.4Zm0-6.72v5.71h3.4v-5.71h-3.4Zm5.88-6.48s.88,.8,1.71,1.61v-3.82h-4.55v4.17h1.47l1.37-1.96Z"/>
      <path class="cls-2" d="M603.87,34.51c8.61,.59,6.51,6.86,3.32,4.97-.53-1.68-2.17-3.57-3.64-4.69l.32-.28Zm10.61-1.01c-1.4,4.13-4.1,11.73-4.55,13.44-.31,1.08-.56,2.24-.53,3.12,.04,1.71,1.26,3.12,1.12,6.02-.04,1.64-1.02,2.66-2.49,2.66-.73,0-1.4-.53-1.57-1.75,.56-3.61,.38-6.55-.42-7.11-.49-.31-1.02-.45-1.75-.52v-.7h1.57c.46,0,.63,0,.98-.7q.73-1.26,7.04-14.6l.6,.14Zm-7.56-6.72c8.89,.73,6.89,7.14,3.54,5.32-.56-1.79-2.35-3.82-3.85-5.04l.32-.28Zm29.37,7.49c-.24,.32-.66,.56-1.47,.7v22.19c0,.21-1.12,.95-2.59,.95h-.53v-2.56h-13.47v2.03c0,.25-.95,.88-2.49,.88h-.53v-26.15l3.43,1.33h4.62v-7.39l4.34,.46c-.11,.45-.35,.8-1.19,.95v5.99h5.11l1.61-1.86,3.15,2.49Zm-18.06,.38v9h5.04v-9h-5.04Zm0,19.88h5.04v-9.87h-5.04v9.87Zm8.19-19.88v9h5.29v-9h-5.29Zm5.29,19.88v-9.87h-5.29v9.87h5.29Z"/>
      <path class="cls-2" d="M640.2,34.37c8.26,1.15,5.74,7.07,2.77,5.04-.35-1.71-1.79-3.67-3.08-4.76l.32-.28Zm10.04-.53c-1.26,3.96-3.54,11.31-3.96,12.95-.28,1.05-.53,2.24-.49,3.08,.07,1.72,1.29,3.19,1.16,6.2-.07,1.64-1.05,2.7-2.45,2.7-.73,0-1.37-.56-1.54-1.82,.56-3.61,.42-6.69-.39-7.21-.46-.35-1.01-.46-1.75-.53v-.73h1.54c.46,0,.63,0,.98-.7q.7-1.26,6.3-14.07l.59,.14Zm-7.63-7.28c8.89,1.26,6.69,7.49,3.43,5.53-.56-1.86-2.31-3.99-3.75-5.29l.31-.25Zm20.37,12.92c-.14,.42-.63,.63-1.68,.59,2.66,1.96,7.66,3.22,11.27,3.61l-.1,.46c-1.23,.67-1.93,1.61-2.14,2.8-3.71-1.12-7.35-3.54-9.73-6.3-3.12,2.55-7.91,5.39-12.95,6.9l-.28-.42c4.3-2.24,8.86-6.34,10.92-9.17v-3.22c-2.38,2.41-5.53,4.38-9.06,5.81l-.32-.49c3.33-2.17,6.16-5.25,7.88-8.37h-6.72l-.28-1.02h8.51v-4.41l4.55,.42c-.07,.49-.35,.84-1.29,.98v3.01h4.52l1.93-2.31s2.1,1.57,3.46,2.76c-.11,.38-.46,.56-.95,.56h-8.96v.8c11.38,1.86,10.43,8.54,6.86,7.14-1.37-2.13-4.38-4.73-6.86-6.41v4.34c0,.21-.91,.56-1.86,.7l3.29,1.23Zm5.92,8.33c-.21,.31-.77,.52-1.47,.28-1.29,.91-2.77,1.82-4.06,2.49,9.21,1.68,8.47,7.28,5.11,6.23-1.44-1.82-4.41-4.06-6.93-5.57v3.68c0,2.24-.46,3.46-4.3,3.78-.07-.88-.21-1.58-.7-2-.46-.38-1.22-.74-2.73-.98v-.49s3.26,.21,3.92,.21c.52,0,.66-.14,.66-.6v-3.75c-1.75,1.33-4.03,3.04-6.96,5.11-.07,.46-.32,.81-.63,.98l-2.28-3.19c1.71-.53,5.71-2.1,9.87-3.78v-6.48l4.38,.42c-.1,.49-.46,.77-1.22,.88v5.29l.38,.04c1.05-1.19,2.38-3.04,3.57-4.83l3.4,2.28Zm-17.22-1.68c7.49,.81,4.94,5.95,2.24,4.03-.31-1.33-1.47-2.87-2.55-3.75l.31-.28Z"/>
      <path class="cls-2" d="M681.08,46.13c2.06-1.19,3.01-2.7,3.46-4.52-1.82-.8-2.97-1.68-2.97-3.19,0-1.26,.88-2.34,2.41-2.34s2.66,1.16,2.66,3.33c0,2.66-1.26,6.06-4.97,7.84l-.59-1.12Z"/>
      <path class="cls-2" d="M725.22,45.43s1.96,1.65,3.08,2.84c-.07,.35-.42,.52-.91,.52h-4.2v5.64c0,2.42-.52,3.85-4.9,4.27-.14-1.08-.35-1.89-.91-2.45-.63-.53-1.5-.95-3.43-1.23v-.52s4.17,.31,5.01,.31c.7,0,.88-.25,.88-.8v-5.22h-16.59v8.93c0,.25-1.09,1.05-2.77,1.05h-.56v-9.98h-4.45l-.31-.98h4.76v-14.39l3.78,1.5h5.99v-4.55h-13.09l-.32-1.01h24.96l2.03-2.59s2.42,1.75,3.89,3.04c-.11,.38-.49,.56-.95,.56h-13.16v4.55h6.41l1.68-1.96,3.81,2.87c-.28,.35-.91,.7-1.75,.88v11.1h.32l1.71-2.38Zm-21.98-9.49v5.32h6.44v-5.32h-6.44Zm0,11.87h6.44v-5.53h-6.44v5.53Zm9.8-11.87v5.32h6.79v-5.32h-6.79Zm6.79,11.87v-5.53h-6.79v5.53h6.79Z"/>
      <path class="cls-2" d="M747.9,34.76s2.14,1.82,3.4,3.08c-.11,.38-.46,.53-.95,.53h-6.86v2.52c9.21,3.33,6.51,9.56,3.57,7.18-.42-2.1-2.03-4.62-3.57-6.44v16.17c0,.25-1.08,.95-2.66,.95h-.56v-14.67c-2.17,3.5-5.08,6.55-8.54,9l-.42-.42c3.64-3.78,6.44-9.14,8.05-14.28h-6.79l-.28-.98h7.98v-5.99c-2.59,.38-5.32,.7-7.95,.88l-.11-.53c5.11-1.22,11.27-3.64,14.42-5.5l3.82,3.46c-.38,.32-1.16,.35-2.17,0-1.37,.39-3.01,.77-4.8,1.12v6.55h2.52l1.89-2.62Zm7.11,15.58c0,.32-1.37,.98-2.52,.98h-.56V29.16l4.38,.46c-.11,.49-.38,.84-1.29,.98v19.74Zm8.93-23.03c-.07,.49-.42,.84-1.23,.98v26.11c0,2.42-.52,3.82-4.65,4.2-.11-1.01-.31-1.79-.84-2.34-.6-.53-1.47-.91-3.22-1.19v-.49s3.88,.28,4.62,.28c.63,0,.84-.21,.84-.74V26.85l4.48,.46Z"/>
      <path class="cls-2" d="M43.8,74.01c-.28,.32-.84,.67-1.65,.81v23.77c0,2.38-.49,3.78-4.62,4.13-.1-.98-.32-1.82-.77-2.31-.56-.52-1.37-.91-3.01-1.16v-.52s3.54,.28,4.27,.28c.63,0,.81-.28,.81-.77v-7.49h-7.91v10.92c0,.21-1.01,.94-2.7,.94h-.56v-11.87h-7.6c-.67,4.41-2.38,8.79-6.72,12.08l-.46-.31c3.89-5.22,4.31-11.94,4.31-18.59v-12.22l3.81,1.4h17.43l1.65-1.92,3.71,2.83Zm-16.14,15.72v-7.39h-7.18v1.54c0,1.89-.04,3.85-.28,5.85h7.46Zm-7.18-15.61v7.21h7.18v-7.21h-7.18Zm10.43,0v7.21h7.91v-7.21h-7.91Zm7.91,15.61v-7.39h-7.91v7.39h7.91Z"/>
      <path class="cls-2" d="M81.53,73.55c-.24,.32-.8,.59-1.47,.74v27.3c-.03,.28-1.54,1.08-2.69,1.08h-.49v-2h-22.58v1.12c0,.42-1.22,1.19-2.62,1.19h-.53v-31.75l3.43,1.47h21.95l1.65-1.82,3.36,2.66Zm-4.65,26.11v-25.94h-22.58v25.94h22.58Zm-21.49-1.37c2.73-1.12,5.6-3.26,6.97-4.87l3.46,2.1c-.24,.35-.77,.46-1.68,.28-1.96,1.19-5.29,2.41-8.54,3.01l-.21-.52Zm5.25-4.45c0,.28-1.26,.91-2.42,.91h-.46v-13.48l3.01,1.29h9.48l1.37-1.47,2.94,2.21c-.18,.24-.6,.49-1.16,.59v9.66c-.04,.25-1.47,.84-2.41,.84h-.45v-1.16h-9.91v.59Zm1.19-12.95c0,.25-1.26,.88-2.38,.88h-.42v-6.96l2.98,1.22h7.04l1.4-1.44,2.9,2.21c-.17,.21-.59,.49-1.15,.56v3.33c-.04,.21-1.51,.77-2.38,.77h-.46v-1.08h-7.53v.52Zm-1.19,2.66v2.21h9.91v-2.21h-9.91Zm9.91,5.43v-2.21h-9.91v2.21h9.91Zm0,3.29v-2.28h-9.91v2.28h9.91Zm-8.72-15.23v2.31h7.53v-2.31h-7.53Zm4.87,17.19c13.13,.77,8.26,6.23,5.78,3.99-1.08-1.19-3.01-2.52-5.95-3.47l.17-.52Z"/>
      <path class="cls-2" d="M98.02,88.92c-.28,.24-.7,.45-1.4,.56-.49,7.25-1.47,10.96-3.12,12.22-.98,.8-2.24,1.19-3.78,1.19,0-.88-.11-1.64-.56-2.03-.45-.42-1.4-.8-2.52-1.01v-.53c1.15,.07,3.01,.21,3.68,.21,.6,0,.88-.07,1.22-.35,.95-.77,1.71-4.17,2.13-10.15h-4.13l-1.12,1.37-2.94-1.96c.31-.25,.77-.53,1.22-.74,.28-2.38,.63-6.27,.66-8.47l3.43,1.47h2.94v-7h-7.14l-.31-.98h7.11l1.51-1.71,3.32,2.55c-.24,.28-.8,.59-1.54,.77v8.12c-.04,.21-1.51,.77-2.45,.77h-.49v-1.5h-3.74c-.14,1.89-.39,4.41-.6,6.3h3.99l1.61-1.65,3.01,2.56Zm18.52-15.47c-.42,.31-1.12,.31-1.96-.11-3.01,.59-7.53,1.23-11.66,1.5v7.88c0,6.27-.49,14.6-7,20.3l-.46-.42c3.99-5.95,4.45-13.23,4.45-19.92v-9.73l3.01,.98c3.85-.94,8.09-2.49,10.46-3.57l3.15,3.08Zm-6.96,18.59c5.78,6.06,3.57,11.41,1.51,9.14,.03-1.02-.11-2.1-.32-3.22-1.08,.7-2.59,1.61-4.1,2.56-.24,.52-.63,.88-.91,1.01l-1.82-3.19c1.54-.77,1.79-1.05,1.79-1.79v-21.07l3.75,.38c-.07,.42-.35,.74-1.05,.84v20.76c.7-.14,1.44-.31,2.14-.46-.38-1.71-.95-3.43-1.47-4.79l.49-.17Zm3.19-16.73c.42,9.7,1.96,19.36,5.85,24.12l-.14,.31c-1.33,.53-1.96,1.68-2.21,3.12-3.5-5.53-4.13-16.73-4.27-27.41l.77-.14Z"/>
      <path class="cls-2" d="M134.66,87.87c-.24,.32-.6,.42-1.33,.45-.88,2.59-2.62,5.32-5.01,7.42,.18,.07,.35,.17,.56,.35,2.91,2.63,7.04,3.12,14.32,3.12,4.1,0,7.49-.04,11.69-.25v.46c-1.37,.28-2.17,1.4-2.35,2.73h-10.43c-7.35,0-10.57-1.22-13.65-4.93-.49-.56-.84-.49-1.12,.03-.63,1.08-1.75,3.05-2.55,4.66,.11,.31,.04,.52-.21,.73l-2.45-3.29c1.4-.88,3.46-2.62,4.69-3.36,1.47-2.21,2.66-5.25,3.25-7.91h-2.83l-1.16,1.02-2.7-2.07c.32-.21,.88-.46,1.37-.59,1.19-1.65,2.73-4.1,3.71-5.88h-5.57l-.31-1.02h6.16l1.54-1.58,3.12,2.8c-.35,.38-1.12,.56-2.03,.56-.98,1.58-2.52,3.99-3.71,5.74h2.24l1.75-1.68,3.01,2.49Zm-10.54-16.98c8.89,1.16,6.51,7.63,3.22,5.6-.46-1.89-2.1-4.06-3.54-5.36l.32-.25Zm13.69,6.37c-1.05,1.85-2.31,3.5-3.75,4.69l-.52-.28c1.29-2.59,2.41-6.44,2.94-10.15l4.38,1.23c-.14,.42-.56,.73-1.29,.73-.35,.95-.77,1.89-1.22,2.77h3.61v-5.81l4.45,.42c-.07,.49-.38,.84-1.26,.98v4.41h2.1l1.86-2.38s2.1,1.61,3.39,2.84c-.1,.38-.46,.56-.95,.56h-6.4v5.29h3.64l1.89-2.45s2.21,1.71,3.5,2.91c-.11,.38-.45,.56-.91,.56h-19.95l-.28-1.01h8.93v-5.29h-4.13Zm10.15,20.13v-2.24h-9.35v1.64c0,.28-1.44,.98-2.73,.98h-.49v-12.36l3.4,1.4h8.86l1.54-1.68,3.32,2.52c-.21,.25-.73,.56-1.4,.7v8.09c-.04,.28-1.57,.95-2.62,.95h-.53Zm0-3.26v-6.3h-9.35v6.3h9.35Z"/>
      <path class="cls-2" d="M158.39,90.32c3.36-2.76,4.38-6.16,4.66-9.45h-4.1l-.28-1.01h4.41c.04-.45,.04-.95,.04-1.4v-4.45h-3.36l-.28-1.01h12.88l1.82-2.21s2.03,1.54,3.32,2.66c-.11,.38-.49,.56-.98,.56h-3.78v5.85h.45l1.75-2.41s2.06,1.68,3.26,2.87c-.11,.38-.46,.56-.95,.56h-4.52v8.37c-.04,.17-1.02,.81-2.62,.81h-.49v-9.17h-3.57c-.38,3.5-1.89,7.28-7.32,9.84l-.35-.39Zm28.98,8.09s2.31,1.79,3.68,3.05c-.11,.38-.46,.56-.98,.56h-31.15l-.28-1.01h14.46v-6.44h-10.92l-.28-1.01h11.2v-4.97l4.66,.42c-.07,.49-.35,.84-1.29,.98v3.57h6.05l2-2.49s2.21,1.68,3.57,2.94c-.11,.38-.46,.56-.98,.56h-10.64v6.44h8.86l2.06-2.59Zm-21.21-19.95c0,.45,0,.91-.04,1.4h3.5v-5.85h-3.46v4.45Zm15.58,6.34c0,.28-1.37,.88-2.49,.88h-.56v-13.16l4.27,.38c-.07,.46-.35,.77-1.22,.91v10.99Zm.24,2.03s2.87,.21,3.5,.21c.49,0,.63-.17,.63-.59v-15.51l4.38,.42c-.07,.49-.42,.77-1.19,.91v14.35c0,2.34-.46,3.64-4.17,3.99-.11-.98-.24-1.75-.63-2.24-.46-.49-1.16-.8-2.52-1.05v-.49Z"/>
      <path class="cls-2" d="M210.44,77.82c-.24,.28-.77,.56-1.47,.74v21.11c-.04,.28-1.57,.98-2.66,.98h-.49v-2.7h-6.2v2.7c0,.35-1.19,1.12-2.52,1.12h-.53v-26.25l3.22,1.47h.63c.32-1.86,.74-4.55,.98-6.48l4.83,1.16c-.17,.56-.63,.8-1.4,.8-.84,1.33-2.06,3.12-3.04,4.52h3.68l1.61-1.82,3.36,2.66Zm-10.82,.17v8.72h6.2v-8.72h-6.2Zm6.2,18.94v-9.21h-6.2v9.21h6.2Zm21.7-19.11c-.28,.32-.7,.53-1.51,.63-.24,13.58-.8,20.62-2.59,22.65-1.12,1.29-2.62,1.82-4.66,1.82,0-1.08-.17-1.92-.73-2.41-.6-.56-2-1.05-3.61-1.33l.04-.56c1.64,.17,4.1,.35,4.94,.35,.7,0,.98-.11,1.37-.45,1.29-1.26,1.71-8.61,1.96-20.58h-7.35c-1.61,2.91-3.5,5.46-5.6,7.35l-.49-.32c2.06-3.54,4.09-9.1,5.14-14.46l4.66,1.37c-.14,.42-.56,.73-1.33,.73-.53,1.51-1.16,2.94-1.86,4.31h6.44l1.89-2,3.29,2.91Zm-14.98,6.27c9.45,3.33,6.37,10.12,3.19,7.46-.28-2.42-1.96-5.36-3.5-7.25l.31-.21Z"/>
      <path class="cls-2" d="M263.08,98.44c1.01,.38,1.22,.77,1.22,1.47,0,1.44-1.37,2.1-6.96,2.1h-3.5c-3.25,0-3.99-.7-3.99-3.22v-15.37h-5.07c-.53,9.66-3.08,16.14-13.48,19.64l-.21-.46c7.98-4.51,9.7-10.61,9.91-19.18h-9.14l-.28-.98h26.11l2.21-2.76s2.45,1.89,3.92,3.19c-.11,.38-.45,.56-.98,.56h-9.62v14.53c0,.63,.21,.81,1.4,.81h2.97c1.26,0,2.24,0,2.73-.04,.42-.04,.6-.14,.77-.56,.38-.7,.91-2.97,1.47-5.5h.42l.11,5.78Zm-27.58-23.7l-.28-1.02h19.43l2.1-2.62s2.38,1.79,3.81,3.08c-.1,.39-.46,.56-.95,.56h-24.12Z"/>
      <path class="cls-2" d="M280.4,97.25c-.25,.35-.56,.46-1.29,.28-2.45,1.82-6.69,3.75-10.78,4.76l-.32-.45c3.36-1.75,6.97-4.69,8.72-6.93l3.68,2.34Zm16.17-17.78s2.17,1.68,3.5,2.87c-.11,.38-.46,.56-.95,.56h-15.79l2.21,1.61c-.21,.32-.73,.53-1.57,.21-1.71,.7-4.38,1.51-7.11,2.1,2.59-.07,5.81-.21,9.17-.38,1.68-.84,3.08-1.65,4.1-2.31l3.57,2.52c-.24,.28-.77,.52-1.61,.21-3.89,1.71-10.96,3.85-17.26,5.25,4.45-.07,11.27-.28,18.52-.56-1.05-1.09-2.28-2.1-3.36-2.77l.32-.31c10.54,1.36,9.21,8.3,5.78,6.65-.42-.91-1.16-1.89-2-2.84-2.35,.31-5.25,.67-8.47,1.05v5.99c0,2.24-.53,3.5-4.2,3.82-.04-.84-.18-1.58-.6-2-.42-.46-1.02-.8-2.45-1.01v-.49s2.7,.21,3.36,.21c.46,0,.6-.21,.6-.56v-5.6c-2.94,.35-6.2,.67-9.66,.95-.21,.35-.49,.56-.77,.67l-1.4-3.46s.88-.07,1.37-.21c3.43-.7,7.63-2.17,11.2-3.78-2.7,.42-5.81,.91-9.14,1.37-.21,.21-.38,.35-.59,.42l-1.23-2.94,.91-.18c2.77-.56,6.23-2.31,8.3-3.61h-12.88l-.32-1.01h14.18v-3.01h-10.71l-.28-1.01h10.99v-3.01h-11.97l-.31-1.01h12.29v-3.4l4.58,.42c-.07,.49-.35,.84-1.29,1.02v1.96h7.56l1.93-2.28s2.21,1.58,3.54,2.73c-.07,.38-.46,.56-.91,.56h-12.11v3.01h6.62l1.75-2.1s2.06,1.44,3.32,2.56c-.07,.38-.42,.56-.95,.56h-10.75v3.01h9.1l1.89-2.42Zm-8.96,16.07c12.25,.7,12.08,7.63,8.37,6.69-1.79-2.24-5.78-4.9-8.65-6.3l.28-.38Z"/>
      <path class="cls-2" d="M308.79,90.35c2.07-1.19,3.01-2.7,3.46-4.52-1.82-.8-2.97-1.68-2.97-3.19,0-1.26,.88-2.34,2.42-2.34s2.66,1.16,2.66,3.33c0,2.66-1.26,6.06-4.97,7.84l-.6-1.12Z"/>
      <path class="cls-2" d="M331.57,80.62c-.14,.35-.45,.56-1.09,.67v20.72c-.04,.25-1.33,.98-2.62,.98h-.6v-18.8c-1.29,1.68-2.66,3.18-4.13,4.45l-.49-.32c2.91-4.34,5.85-11.13,7.39-17.85l4.8,1.47c-.17,.42-.56,.7-1.37,.7-.98,2.66-2.13,5.15-3.43,7.39l1.54,.6Zm13.76,8.26c-.21,2.94-.95,5.46-2.45,7.53,3.57,1.79,8.19,2.66,13.2,2.83v.42c-1.37,.38-2.45,1.61-2.7,3.25-5.22-.74-9.21-2.17-12.22-4.62-2.24,2.03-5.53,3.61-10.12,4.69l-.25-.53c4.1-1.5,6.93-3.36,8.72-5.78-1.37-1.5-2.49-3.33-3.33-5.46l.49-.28c.91,1.61,2.24,2.98,3.85,4.13,.94-1.82,1.43-3.85,1.57-6.2h-4.97v1.08c0,.28-1.44,1.01-2.77,1.01h-.42v-12.01l3.36,1.4h4.83v-3.71h-8.86l-.28-1.01h9.14v-5.11l4.52,.46c-.07,.49-.35,.84-1.26,.98v3.68h4.45l2.1-2.7s2.31,1.82,3.75,3.15c-.11,.38-.45,.56-.95,.56h-9.35v3.71h4.55l1.64-1.79,3.43,2.62c-.24,.28-.77,.59-1.44,.77v7.77c-.04,.25-1.64,.95-2.73,.95h-.56v-1.82h-4.97Zm-3.19-1.02v-6.48h-5.01v6.48h5.01Zm3.26-6.48v6.48h4.9v-6.48h-4.9Z"/>
      <path class="cls-2" d="M388.27,92.87s2.42,1.79,3.92,3.12c-.1,.38-.45,.56-.98,.56h-13.83v5.6c0,.21-1.09,.84-2.84,.84h-.6v-6.44h-14.32l-.31-1.01h14.63v-3.47h-6.23v.84c0,.31-1.47,1.05-2.8,1.05h-.49v-13.65c-.38,.1-.8,.17-1.19,.17h-.46v-9.35l3.29,1.37h4.72l1.54-1.68,3.36,2.49c-.21,.25-.73,.53-1.4,.67v5.01c-.04,.25-1.57,.88-2.62,.88h-.53v-1.26h-5.21v.91c0,.17-.46,.46-1.12,.7l3.18,1.3h15.26l1.68-1.75,3.43,2.63c-.21,.21-.7,.49-1.4,.63v9.42c-.04,.25-1.64,1.01-2.8,1.01h-.56v-1.37h-6.23v3.47h8.75l2.13-2.66Zm-22.33-19.39v4.13h5.21v-4.13h-5.21Zm1.79,9.03v3.71h6.23v-3.71h-6.23Zm6.23,8.54v-3.82h-6.23v3.82h6.23Zm6.55-11.87c0,.28-1.44,.98-2.77,.98h-.46v-9.07l3.39,1.4h4.69l1.5-1.72,3.43,2.52c-.25,.25-.77,.56-1.44,.7v5.04c-.04,.25-1.61,.91-2.66,.91h-.53v-1.37h-5.18v.59Zm-3.12,3.33v3.71h6.23v-3.71h-6.23Zm6.23,8.54v-3.82h-6.23v3.82h6.23Zm-3.12-17.57v4.13h5.18v-4.13h-5.18Z"/>
      <path class="cls-2" d="M406.09,75.26s1.79,1.37,2.9,2.42c-.11,.38-.42,.56-.95,.56h-11.97l-.28-1.01h8.75l1.54-1.96Zm-2.49,6.37l1.47-1.82s1.57,1.29,2.59,2.28c-.07,.38-.42,.56-.88,.56h-9.45l-.28-1.01h6.54Zm-6.27,5.53l-.28-1.01h6.54l1.47-1.82s1.57,1.29,2.59,2.28c-.07,.38-.42,.56-.88,.56h-9.45Zm9.52,13.16c-.04,.28-1.44,.94-2.45,.94h-.45v-1.64h-3.74v2.07c0,.28-1.26,.94-2.45,.94h-.45v-13.34l3.05,1.29h3.25l1.47-1.58,3.12,2.38c-.21,.25-.7,.53-1.33,.67v8.26Zm-8.02-29.26c8.02,1.02,5.39,6.86,2.35,4.8-.35-1.58-1.61-3.47-2.66-4.62l.31-.17Zm5.11,27.55v-7h-3.74v7h3.74Zm24.33-24.68c-.21,.25-.77,.56-1.5,.7v24.33c0,2.24-.42,3.61-4.17,3.99-.11-.98-.28-1.75-.74-2.24-.52-.49-1.22-.88-2.76-1.08v-.53s3.19,.25,3.92,.25c.6,0,.73-.25,.73-.74v-13.51h-11.38l-.14-.53v.46c0,5.95-.11,13.06-4.94,17.92l-.46-.32c2.52-4.94,2.55-11.38,2.55-17.57v-13.34l3.36,1.33h10.64l1.47-1.79,3.39,2.66Zm-16.03,.14v4.83h4.38v-4.31l3.71,.42c-.07,.42-.35,.73-1.12,.88v3.01h1.61l1.29-1.85s.84,.73,1.64,1.5v-4.48h-11.52Zm4.38,10.01v-4.16h-4.3l-.07-.25v4.41h4.38Zm-.45,11.24v1.33c0,.21-1.05,.74-2.1,.74h-.35v-10.92l2.62,1.12h2.9l1.26-1.36,2.8,2.13c-.21,.25-.7,.53-1.29,.63v7.18c-.04,.25-1.3,.77-2.06,.77h-.38v-1.61h-3.4Zm0-6.72v5.71h3.4v-5.71h-3.4Zm5.88-6.48s.88,.8,1.71,1.61v-3.82h-4.55v4.16h1.47l1.37-1.96Z"/>
      <path class="cls-2" d="M447.74,77.82c-.24,.28-.77,.56-1.47,.74v21.11c-.04,.28-1.58,.98-2.66,.98h-.49v-2.7h-6.2v2.7c0,.35-1.19,1.12-2.52,1.12h-.53v-26.25l3.22,1.47h.63c.31-1.86,.73-4.55,.98-6.48l4.83,1.16c-.18,.56-.63,.8-1.4,.8-.84,1.33-2.06,3.12-3.04,4.52h3.68l1.61-1.82,3.36,2.66Zm-10.81,.17v8.72h6.2v-8.72h-6.2Zm6.2,18.94v-9.21h-6.2v9.21h6.2Zm21.7-19.11c-.28,.32-.7,.53-1.5,.63-.25,13.58-.8,20.62-2.59,22.65-1.12,1.29-2.62,1.82-4.65,1.82,0-1.08-.18-1.92-.73-2.41-.6-.56-2-1.05-3.61-1.33l.03-.56c1.65,.17,4.1,.35,4.94,.35,.7,0,.98-.11,1.37-.45,1.3-1.26,1.72-8.61,1.96-20.58h-7.35c-1.61,2.91-3.5,5.46-5.6,7.35l-.49-.32c2.06-3.54,4.1-9.1,5.15-14.46l4.65,1.37c-.14,.42-.56,.73-1.33,.73-.53,1.51-1.15,2.94-1.86,4.31h6.44l1.89-2,3.29,2.91Zm-14.98,6.27c9.45,3.33,6.37,10.12,3.19,7.46-.28-2.42-1.96-5.36-3.5-7.25l.32-.21Z"/>
      <path class="cls-2" d="M480.99,70.96c-.11,.49-.39,.84-1.3,.98v29.68c0,.46-1.37,1.37-2.52,1.37h-.6v-14h-2.45c-.14,5.74-.74,10.57-5.08,13.9l-.46-.52c2.45-3.64,2.49-8.19,2.49-13.37h-2.14l-.31-1.01h7.95v-5.64h-2.9l-1.12,1.47-3.43-1.89c.31-.28,.84-.67,1.33-.95v-8.68l4.27,.8c-.07,.38-.45,.63-1.33,.77v7.46h3.19v-10.85l4.41,.49Zm17.15,5.85c-.11,.42-.53,.73-1.26,.73-.21,.53-.42,1.02-.66,1.47,3.01,.98,3.39,2.83,2.73,3.75,.56,.42,1.86,1.44,2.77,2.24-.11,.38-.42,.56-.91,.56h-20.72l-.28-1.02h8.72v-9.17h-7.46l-.24-1.01h7.7v-3.99l4.23,.39c-.07,.52-.38,.88-1.29,1.01v2.59h4.27l1.71-2.21s1.99,1.54,3.22,2.66c-.11,.38-.45,.56-.95,.56h-8.26v9.17h5.64l1.05-1.29c-.38,.07-.8-.04-1.26-.38-.11-.91-.6-1.93-1.22-2.77-.91,1.61-2.07,2.94-3.4,3.89l-.52-.35c1.22-1.96,2.17-4.79,2.55-7.81l3.85,.98Zm-10.82-.11c-.14,.42-.52,.74-1.29,.74-.21,.59-.46,1.12-.7,1.64,4.79,2.17,2.35,5.78,.42,3.99,.04-.95-.38-2.1-.91-3.01-1.02,1.75-2.31,3.19-3.78,4.16l-.49-.35c1.4-2,2.49-4.97,2.91-8.19l3.85,1.01Zm9.98,9.59l2.97,2.28c-.24,.28-.59,.49-1.33,.59v12.53c0,.17-1.05,.8-2.45,.8h-.49v-1.79h-11.52v1.43c0,.21-.91,.77-2.35,.77h-.49v-16.24l3.22,1.26h10.99l1.44-1.65Zm-1.29,13.41v-10.75h-11.52v10.75h11.52Zm-.95-7.84c-.14,.21-.56,.42-1.02,.53v4.97c-.04,.25-1.15,.77-1.89,.77h-.35v-1.19h-3.22v.84c0,.17-.77,.74-1.93,.74h-.35v-8.37l2.45,1.05h2.77l1.12-1.12,2.42,1.79Zm-3.26,4.06v-3.71h-3.22v3.71h3.22Z"/>
      <path class="cls-2" d="M533.66,70.89s2.48,1.82,3.96,3.12c-.11,.38-.46,.56-.95,.56h-13.55c-1.22,1.75-2.73,3.75-3.95,5.18h12.18l1.71-2.03,3.36,2.66c-.25,.31-.63,.56-1.44,.7v20.55c0,.25-1.23,.95-2.91,.95h-.56v-2.52h-20.58v1.89c0,.25-1.01,.91-2.73,.91h-.56v-24.57l3.71,1.47h6.62c.21-1.43,.49-3.5,.7-5.18h-13.16l-.31-1.02h26.29l2.17-2.66Zm-22.72,28.14h4.55v-18.27h-4.55v18.27Zm12.85-18.27h-5.18v5.32h5.18v-5.32Zm-5.18,11.76h5.18v-5.42h-5.18v5.42Zm0,6.51h5.18v-5.5h-5.18v5.5Zm8.3-18.27v18.27h4.62v-18.27h-4.62Z"/>
      <path class="cls-2" d="M573.67,88.22c-.28,.35-.84,.45-1.75,.49-5.71,8.47-14.42,12.67-28.98,14.21l-.17-.53c11.87-2.7,20.06-6.62,25.13-14.39h-8.68c-1.33,.88-2.73,1.75-4.24,2.55,7.6,.98,6.09,6.79,2.84,5.25-.63-1.68-2.48-3.43-4.2-4.55-2.73,1.33-5.71,2.49-8.86,3.29l-.21-.46c6.65-2.8,12.57-7.45,15.58-11.34-4.66,2.91-10.54,4.94-17.96,6.09l-.28-.53c9.7-2.76,16.94-6.72,21.67-12.78h-8.29c-1.05,.74-2.17,1.44-3.36,2.1,6.51,.49,5.5,5.39,2.56,4.34-.7-1.26-2.35-2.69-3.89-3.64-2.35,1.22-4.94,2.28-7.63,3.04l-.24-.42c5.56-2.7,10.78-7.18,13.2-10.61l5.15,1.33c-.18,.42-.63,.66-1.75,.63-.77,.73-1.65,1.47-2.62,2.2h7.31l1.93-1.82,3.5,3.01c-.28,.32-.84,.42-1.75,.49-1.96,2.38-4.27,4.48-7.04,6.23l5.04,1.23c-.18,.42-.67,.66-1.75,.63-.98,.91-2.1,1.82-3.32,2.73h7.6l1.96-1.86,3.54,3.05Z"/>
      <path class="cls-2" d="M603.14,85.1l2.59-3.54s2.94,2.45,4.73,4.13c-.11,.42-.53,.56-1.09,.56h-30.98l-.35-1.15h25.1Z"/>
      <path class="cls-2" d="M617.87,93.4c1.19,3.64,.8,6.41-.24,7.7-.7,.91-2.35,1.05-2.91,0-.49-.95-.04-1.89,.77-2.52,.95-.94,2-3.22,1.82-5.18h.56Zm-3.08-4.8s.8-.17,1.19-.42c1.86-1.29,4.1-3.64,6.09-6.16-1.47,.49-3.19,1.05-5.08,1.58-.25,.46-.56,.74-.91,.88l-1.54-3.88s.7-.14,1.02-.35c2.17-1.89,5.01-7,5.95-9.77l4.17,2.28c-.14,.31-.6,.52-1.26,.46-1.68,2.28-4.55,5.36-7.21,7.45,1.65,0,3.75,0,5.92-.03,1.26-1.72,2.35-3.36,2.98-4.66l3.92,2.59c-.18,.31-.7,.56-1.4,.38-2.24,2.83-6.72,6.9-10.71,9.59,1.99-.1,4.72-.31,7.63-.56-.38-1.23-.95-2.45-1.44-3.36l.42-.17c6.9,3.64,3.99,8.79,1.58,6.44-.04-.63-.14-1.29-.32-2-2.2,.8-5.29,1.82-8.64,2.83-.28,.38-.6,.63-.91,.77l-1.44-3.89Zm6.37,3.85c5.18,4.62,1.82,9.38-.25,6.76,.42-2.17,.18-4.8-.24-6.65l.49-.1Zm3.78-.91c6.44,3.29,3.22,8.3,.98,5.88,.14-1.89-.6-4.2-1.4-5.71l.42-.17Zm10.61,1.68c-.18,.35-.49,.56-1.33,.46-1.47,2.49-3.92,5.85-6.86,8.02l-.38-.35c2.06-2.83,3.81-7.18,4.48-10.05l4.1,1.92Zm5.39-10.26c7.91,3.96,4.87,9.59,2.24,7.07-.07-.84-.31-1.82-.66-2.77-.91,.25-1.96,.56-3.15,.88v10.71c0,2.24-.53,3.78-4.13,4.13-.07-.95-.21-1.75-.63-2.24-.46-.49-1.16-.84-2.7-1.05v-.52s3.04,.21,3.71,.21c.56,0,.7-.21,.7-.63v-9.84c-1.47,.42-3.04,.8-4.69,1.19-.31,.42-.66,.7-1.01,.81l-1.33-3.85s.88-.14,1.26-.35c1.99-1.26,4.38-3.46,6.54-5.81-1.54,.56-3.43,1.23-5.46,1.86-.24,.42-.56,.7-.88,.84l-1.54-3.75s.73-.17,1.05-.38c2.38-1.82,5.5-6.76,6.62-9.42l4.16,2.2c-.17,.32-.59,.56-1.3,.46-1.82,2.24-5.01,5.25-7.84,7.25,1.71-.04,3.96-.18,6.27-.32,1.5-1.79,2.83-3.54,3.61-4.87l3.64,2.76c-.21,.28-.7,.49-1.4,.28-2.42,2.7-7.25,6.65-11.55,9.28,2.49-.14,6.02-.35,9.73-.63-.49-1.22-1.09-2.42-1.68-3.33l.42-.17Zm-.03,8.54c9.17,4.34,6.33,11.03,3.32,8.4-.35-2.69-2.17-5.95-3.68-8.16l.35-.25Z"/>
      <path class="cls-2" d="M653.85,84.23c1.93,7.7-4.76,6.48-2.62,3.61,1.05-.59,1.92-1.89,2.13-3.64l.49,.03Zm22.23,8.12c-1.61,2.24-3.74,4.1-6.34,5.57,3.75,1.12,8.26,1.72,13.79,1.89l-.04,.42c-1.23,.38-2.03,1.29-2.21,2.66-6.16-.59-10.68-1.75-14.21-3.64-4.48,2-9.94,3.22-15.89,3.85l-.18-.49c5.39-1.01,10.26-2.52,14.07-4.55-1.82-1.23-3.4-2.77-4.83-4.52-2.49,1.89-5.46,3.57-8.51,4.52l-.28-.42c3.57-2.03,7.18-5.57,9.1-9.03-.28,0-.63-.14-.95-.46-.04-1.47-.73-3.36-1.33-4.48l.49-.21c3.15,1.86,3.32,3.92,2.62,4.76l1.22,.42v-7.35l2.91,1.22h3.01l1.12-1.12,2.34,1.79c-.14,.17-.46,.35-.84,.42v4.41c-.04,.25-1.26,.73-2.03,.73h-.38v-1.26h-3.64v.74c0,.17-.6,.63-1.47,.77l1.71,.56c-.14,.35-.42,.49-1.33,.35-.35,.49-.8,.95-1.29,1.44h13.72l1.93-2.31s2.13,1.58,3.5,2.77c-.1,.38-.46,.56-.95,.56h-4.87Zm-24.75-10.75s.56-.14,.8-.28c1.33-.8,2.87-2.27,4.2-3.75-.95,.28-2.06,.63-3.15,.95-.17,.25-.38,.38-.56,.45l-1.16-2.62s.49-.14,.7-.25c1.54-1.08,3.46-4.2,4.13-5.78l3.4,2c-.18,.31-.6,.52-1.29,.38-1.16,1.19-2.87,2.66-4.55,3.75,1.05,0,2.28-.07,3.46-.1,.74-.88,1.33-1.72,1.71-2.38l3.05,2.21c-.21,.28-.67,.49-1.4,.28-1.51,1.54-4.03,3.54-6.51,5.04,1.44-.04,3.26-.14,5.11-.21-.28-.91-.7-1.79-1.09-2.42l.42-.17c5.29,2.59,2.91,6.34,1.05,4.59,0-.39-.07-.84-.18-1.26-1.57,.42-4.03,1.12-6.47,1.68-.18,.25-.38,.42-.6,.49l-1.08-2.59Zm4.62,2.31c4.24,3.46,1.44,6.9-.14,4.9,.24-1.58,0-3.5-.35-4.76l.49-.14Zm5.74,8.44c-.24,.21-.46,.42-.73,.63,1.61,1.61,3.64,2.94,6.06,3.96,2.03-1.33,3.71-2.84,4.83-4.59h-10.15Zm-.24-17.15l-.28-1.02h8.4l1.26-1.5s1.44,1.12,2.35,1.96c-.11,.39-.42,.56-.88,.56h-10.85Zm8.16,.49s1.29,.94,2.1,1.75c-.11,.38-.42,.56-.84,.56h-8.12l-.28-1.01h5.98l1.16-1.29Zm0,2.73s1.29,.98,2.1,1.79c-.11,.39-.42,.56-.84,.56h-8.12l-.28-1.02h5.98l1.16-1.33Zm-5.08-8.19c6.02,.8,3.75,5.04,1.51,3.43-.18-1.16-1.05-2.45-1.86-3.19l.35-.25Zm.6,13.3v2.94h3.64v-2.94h-3.64Zm8.93,.56c2.03,7-4.24,5.74-2.13,2.94,.84-.46,1.47-1.58,1.61-2.98l.53,.04Zm-2.17-7.56s.49-.11,.7-.25c1.61-1.12,3.61-4.31,4.3-5.92l3.29,1.96c-.17,.28-.6,.52-1.26,.38-1.15,1.26-3.01,2.84-4.76,3.99,1.05-.04,2.31-.07,3.61-.14,.8-1.05,1.5-2.03,1.96-2.73l3.01,2.13c-.17,.28-.66,.49-1.33,.32-1.57,1.58-4.2,3.61-6.76,5.15,1.47,0,3.4-.07,5.32-.14-.42-.91-.91-1.75-1.4-2.42l.42-.21c5.6,2.45,3.5,6.3,1.57,4.66-.04-.39-.14-.84-.31-1.26-1.61,.42-4.2,1.08-6.62,1.61-.18,.21-.35,.35-.53,.42l-1.15-2.59s.56-.14,.8-.28c1.26-.74,2.66-2.03,3.92-3.4-.98,.32-2.03,.66-3.08,.95-.18,.21-.38,.35-.56,.42l-1.15-2.66Zm4.34,7.11c4.3,3.19,1.71,6.62,.11,4.73,.17-1.5-.18-3.36-.6-4.59l.49-.14Zm2.9-.35c5.22,2.66,3.05,6.33,1.26,4.69-.14-1.47-.95-3.33-1.68-4.48l.42-.21Z"/>
      <path class="cls-2" d="M686.82,89.23c3.36-4.45,6.86-11.62,8.72-18.76l4.97,1.61c-.14,.42-.6,.73-1.4,.67-1.05,2.7-2.28,5.15-3.68,7.39l1.54,.56c-.1,.32-.42,.53-1.08,.66v20.55c-.04,.28-1.44,1.05-2.73,1.05h-.63v-18.66c-1.64,2.07-3.36,3.78-5.25,5.25l-.46-.32Zm31.64,9.24c1.09,.42,1.44,.8,1.44,1.43,0,1.54-1.68,2.07-8.64,2.07h-4.48c-3.71,0-5.01-.73-5.01-3.61v-27.23l4.45,.49c-.07,.45-.38,.84-1.26,.98v10.33h8.71l1.79-2.45s2.1,1.72,3.36,2.91c-.11,.39-.45,.56-.95,.56h-12.92v13.58c0,1.05,.42,1.4,2.24,1.4h4.27c1.79,0,3.19,0,3.82-.11,.49-.04,.8-.14,1.05-.49,.38-.59,.98-2.45,1.58-4.76h.42l.14,4.9Z"/>
      <path class="cls-2" d="M726.06,86.71c0-2.73,2.24-4.94,4.97-4.94s4.94,2.21,4.94,4.94-2.21,4.97-4.94,4.97-4.97-2.24-4.97-4.97Zm1.26,0c0,2.03,1.65,3.71,3.71,3.71s3.68-1.68,3.68-3.71-1.64-3.67-3.68-3.67-3.71,1.64-3.71,3.67Z"/>
    </g>
  </g>
</svg>