<?xml version="1.0" encoding="UTF-8"?>
<svg id="_圖層_2" data-name="圖層 2" xmlns="http://www.w3.org/2000/svg" viewBox="0 0 386.55 281.9">
  <defs>
    <style>
      .cls-1 {
        fill: #b47b5b;
      }
    </style>
  </defs>
  <g id="_圖層_1-2" data-name="圖層 1">
    <g>
      <path class="cls-1" d="M3.29,8.33c-.73,.77-1.5,1.47-2.24,2.03l-.49-.35C2.28,7.63,4.03,3.92,5.01,.1l3.82,1.37c-.14,.42-.6,.7-1.33,.66-.42,.84-.88,1.68-1.4,2.49l.46,.17h6.3l1.43-1.75s1.65,1.26,2.66,2.2c-.07,.39-.38,.56-.88,.56h-4.3v3.01h1.01l1.26-1.58s1.19,.95,2.07,1.79c1.47-2.28,2.77-5.57,3.47-8.93l3.85,1.26c-.11,.42-.53,.73-1.3,.7-.38,.84-.8,1.72-1.26,2.52l.53,.21h7.04l1.44-1.75s1.68,1.26,2.73,2.2c-.11,.39-.42,.56-.91,.56h-4.73v3.01h1.22l1.26-1.64s1.54,1.15,2.45,2.1c-.07,.39-.38,.56-.88,.56h-4.06v3.15h1.22l1.3-1.65s1.5,1.16,2.45,2.1c-.11,.38-.42,.56-.91,.56h-4.06v3.08h1.96l1.47-1.89s1.75,1.33,2.8,2.34c-.11,.39-.42,.56-.91,.56h-11.31v.38c0,.25-.95,.95-2.38,.95h-.49V8.37c-.63,.66-1.29,1.26-2,1.79l-.46-.31h-3.88v3.15h1.01l1.26-1.61s1.44,1.16,2.35,2.07c-.11,.38-.42,.56-.88,.56h-3.75v3.08h1.58l1.43-1.82s1.68,1.26,2.7,2.27c-.1,.39-.42,.56-.91,.56H6.13v.56c0,.21-.95,.91-2.35,.91h-.49V8.33Zm25.83,13.2c-.28,.31-.7,.42-1.65,.46-1.89,2.06-4.16,3.82-6.83,5.25,4.03,1.05,8.47,1.61,12.99,1.82l-.04,.46c-1.47,.38-2.38,1.5-2.73,3.15-5.11-.67-9.8-1.82-13.72-3.71-4.62,1.93-10.08,3.12-16.03,3.68l-.21-.56c5.01-.95,9.8-2.45,13.9-4.41-2.66-1.61-4.87-3.71-6.51-6.3H2.35l-.32-1.01H23.81l2.17-1.86,3.15,3.05ZM6.13,5.81v3.01h2.98v-3.01h-2.98Zm2.98,4.03h-2.98v3.15h2.98v-3.15Zm0,4.17h-2.98v3.08h2.98v-3.08ZM8.19,.1c6.69,1.05,4.2,5.92,1.75,4.03-.14-1.33-1.12-2.91-2.07-3.78l.32-.25Zm1.01,21.25c2,2.1,4.83,3.75,8.16,4.94,2.41-1.43,4.51-3.12,6.09-4.94H9.21ZM20.97,5.81v3.01h3.25v-3.01h-3.25Zm3.25,4.03h-3.25v3.15h3.25v-3.15Zm0,4.17h-3.25v3.08h3.25v-3.08ZM23.32,.07c6.69,1.05,4.16,5.95,1.71,4.03-.1-1.29-1.08-2.87-2.06-3.78l.35-.25Z"/>
      <path class="cls-1" d="M67.42,9.7s2.07,1.65,3.33,2.84c-.11,.38-.46,.56-.95,.56h-2.87V31.75c0,.17-.95,.91-2.45,.91h-.53V13.09h-3.47v3.05c0,5.95-.42,12.43-6.41,16.66l-.49-.42c.74-.84,1.33-1.82,1.79-2.8h-13.41l-1.01,1.54-2.98-1.96c.25-.28,.63-.56,1.01-.8V1.05l3.78,.38c-.07,.42-.35,.7-1.05,.84v3.26c.14-.04,.46-.11,.6-.17,1.09-.91,2.24-3.68,2.62-5.01l3.05,1.58c-.14,.32-.56,.59-1.3,.49-.8,1.05-1.96,2.31-3.01,3.29h2.66c.38-.74,.7-1.37,.94-1.89l2.38,1.43c1.09-.91,2.24-3.64,2.66-4.94l3.01,1.61c-.14,.28-.52,.56-1.22,.45-.84,1.05-2.03,2.28-3.08,3.26,.73,0,1.64,0,2.49-.04,.52-.84,.94-1.61,1.22-2.24l2.8,1.79c-.18,.28-.63,.52-1.3,.38-1.22,1.58-3.22,3.61-5.08,5.15,.88-.04,2-.04,3.15-.11-.25-.7-.63-1.33-.98-1.82l.42-.21c3.82,1.85,3.08,4.51,1.79,4.51,.56,.42,1.33,1.05,1.89,1.58-.1,.39-.42,.56-.91,.56h-4.31l2.77,1.5c-.14,.28-.56,.56-1.26,.46-.77,.91-1.82,2.07-2.84,3.01,.7,0,1.44-.04,2.21-.07,.49-.8,.88-1.58,1.12-2.17l2.84,1.82c-.17,.28-.63,.52-1.33,.38-1.05,1.43-2.8,3.29-4.48,4.73,.88-.07,2-.14,3.12-.21-.17-.74-.46-1.47-.77-1.96l.45-.17c3.96,2.59,1.86,5.67,.46,4.13,.04-.39,.04-.81,0-1.23-.88,.39-2.24,.91-3.43,1.4-.21,.46-.49,.77-.8,.91l-1.33-2.91s.59-.11,.8-.21c.84-.7,1.79-1.93,2.59-3.22-.56,.25-1.16,.53-1.75,.77-.21,.38-.49,.63-.74,.73l-1.16-2.7h-.1c-1.12,1.47-3.01,3.43-4.73,4.9,.84,0,1.92-.04,3.01-.11-.17-.67-.42-1.29-.67-1.75l.46-.14c3.92,2.52,1.79,5.5,.38,3.99,.07-.39,.04-.81,0-1.26-.91,.39-2.24,.88-3.39,1.3-.18,.31-.39,.49-.6,.59l-1.29-2.77s.56-.1,.77-.21c.94-.77,1.96-2.1,2.87-3.46l-1.96,.88c-.21,.31-.42,.49-.67,.59l-1.05-2.38v8.19h10.89l1.33-1.61s1.01,.81,1.92,1.58c1.5-3.71,1.68-7.98,1.68-12.43V2.87l3.01,1.01c2.31-1.16,4.83-2.66,6.2-3.71l3.64,3.08c-.35,.32-1.01,.35-1.96,.04-2.03,.59-5.08,1.26-7.95,1.61v7.18h5.08l1.85-2.38Zm-25.69-3.96V14.18h11.73l1.29-1.58c0-.42-.07-.84-.17-1.22-.88,.31-2.24,.77-3.43,1.19-.17,.35-.42,.56-.67,.67l-1.33-2.8s.59-.14,.8-.25c.95-.74,2-2.07,2.91-3.46-.63,.21-1.3,.49-2,.73-.21,.39-.46,.63-.73,.74l-.95-2.17c-.07,0-.17-.04-.32-.04-1.16,1.54-3.15,3.64-4.94,5.11,.81-.04,1.89-.04,3.01-.07-.21-.66-.53-1.29-.8-1.75l.45-.21c4.34,2.52,2.17,5.81,.66,4.24,.04-.46,0-.94-.1-1.43-.84,.35-2.1,.8-3.22,1.19-.21,.39-.46,.6-.7,.7l-1.33-2.91s.6-.14,.81-.25c1.01-.8,2.1-2.34,3.01-3.85-.67,.25-1.47,.56-2.21,.84-.21,.28-.46,.49-.7,.59l-1.09-2.45Zm7.95,13.93c1.01-1.08,2.03-3.29,2.38-4.48h-10.33v4.83c.17-.04,.46-.1,.56-.17,1.16-.84,2.38-3.4,2.8-4.58l2.87,1.54c-.14,.31-.56,.56-1.29,.49-.77,.88-1.86,1.96-2.87,2.8,.7,0,1.54-.04,2.38-.07,.42-.73,.77-1.43,1.02-1.96l2.49,1.61Z"/>
      <path class="cls-1" d="M88.74,11.31c-.25,.32-.6,.46-1.37,.49-1.65,6.79-5.11,13.58-12.53,17.64l-.35-.42c5.25-4.31,8.19-11.06,9.42-17.68h-8.33l-.31-1.01h8.44l1.86-1.86,3.19,2.83Zm17.92-2.34c-.21,.35-.56,.49-1.33,.35-2.1,1.89-5.39,4.45-8.65,6.41,2.98,5.04,7,8.12,11.06,10.26l-.14,.35c-1.43,.25-2.48,1.37-3.01,2.94-5.74-4.52-9.84-10.43-11.8-21.95V28.32c0,2.52-.56,3.99-4.9,4.38-.14-1.08-.38-1.89-.98-2.45-.63-.53-1.5-.95-3.47-1.23v-.53s4.24,.32,5.11,.32c.63,0,.84-.21,.84-.74V.25l4.66,.49c-.11,.49-.35,.81-1.26,.95v3.15c.73,4.03,1.92,7.35,3.46,10.15,2.38-2.73,4.94-6.3,6.27-8.61l4.13,2.59Z"/>
      <path class="cls-1" d="M124.06,4.73s1.89,1.47,3.01,2.55c-.07,.38-.42,.56-.88,.56h-14.07l-.28-1.02h10.61l1.61-2.1Zm7.14,.67c0,2.94-.63,7.53-6.34,10.29,.25,.17,.46,.38,.63,.56-.11,.38-.42,.56-.91,.56h-10.96l-.28-1.02h7.74l1.58-2s1.12,.91,2.17,1.82l-.28-.35c3.22-3.01,3.64-6.72,3.64-9.87V1.19l3.54,1.37h3.82l1.61-1.68,3.01,2.52c-.21,.24-.66,.42-1.29,.52v6.41c0,.38,.11,.52,.6,.52h1.12c.42,0,.84,0,1.05-.04h.63c.21-.03,.49-.1,.74-.14h.31l.14,.04c.8,.31,1.08,.59,1.08,1.19,0,1.19-1.05,1.82-4.31,1.82h-1.75c-2.28,0-2.59-.67-2.59-2.55V3.57h-4.69v1.82Zm-10.12,5.88l1.58-1.96s1.75,1.37,2.84,2.42c-.11,.39-.42,.56-.91,.56h-10.96l-.28-1.02h7.74Zm3.39,18.83c-.03,.25-1.47,.91-2.45,.91h-.49v-1.79h-4.76v2.03c0,.32-1.3,.98-2.52,.98h-.42v-13.23l3.08,1.33h4.27l1.5-1.61,3.19,2.45c-.21,.25-.74,.53-1.4,.66v8.26ZM115.84,.52c8.16,1.12,5.43,7.14,2.31,5.01-.32-1.65-1.54-3.64-2.63-4.8l.32-.21Zm5.71,27.69v-6.86h-4.76v6.86h4.76Zm20.9-10.92c-.28,.35-.63,.45-1.43,.49-1.26,2.98-2.98,5.64-5.29,7.88,2.63,1.65,5.71,2.73,9.17,3.47l-.04,.38c-1.4,.21-2.38,1.22-2.83,2.8-3.36-1.19-6.13-2.7-8.4-4.83-2.91,2.24-6.62,3.99-11.27,5.15l-.28-.53c4.1-1.54,7.42-3.64,10.05-6.27-1.82-2.24-3.18-5.04-4.06-8.58h-1.86l-.32-1.02h11.48l1.96-1.82,3.12,2.87Zm-13.72-.03c1.08,2.83,2.76,5.11,4.9,6.93,1.68-2.1,2.97-4.45,3.85-6.93h-8.75Z"/>
      <path class="cls-1" d="M163.38,4.38s2.07,1.58,3.33,2.77c-.07,.38-.46,.56-.94,.56h-16.59l-.25-1.01h12.67l1.79-2.31Zm-3.43,6.79l1.75-2.21s1.96,1.5,3.15,2.66c-.11,.38-.45,.56-.91,.56h-12.95l-.28-1.01h9.24Zm1.75,2.31s1.96,1.51,3.15,2.66c-.11,.38-.45,.56-.91,.56h-12.95l-.28-1.01h9.24l1.75-2.21Zm.07,5.25l3.29,2.49c-.21,.28-.74,.56-1.44,.7v8.16c-.04,.25-1.5,.91-2.56,.91h-.49v-1.92h-6.16v2.1c0,.28-1.33,.98-2.59,.98h-.42v-13.09l3.15,1.33h5.67l1.54-1.65ZM154.35,.25c8.23,1.15,5.32,7.49,2.17,5.25-.17-1.79-1.37-3.85-2.49-5.08l.31-.17Zm6.23,27.83v-6.69h-6.16v6.69h6.16Zm17.92-17.61s2.13,1.71,3.36,2.91c-.11,.38-.42,.56-.91,.56h-6.93V31.33c0,.38-1.44,1.22-2.63,1.22h-.67V13.93h-5.99l-.28-1.01h6.27V.28l4.55,.46c-.07,.49-.35,.88-1.26,1.02V12.92h2.59l1.89-2.45Z"/>
      <path class="cls-1" d="M190.61,20.06c2.07-1.19,3.01-2.7,3.46-4.52-1.82-.8-2.97-1.68-2.97-3.18,0-1.26,.88-2.35,2.42-2.35s2.66,1.16,2.66,3.33c0,2.66-1.26,6.06-4.97,7.84l-.59-1.12Z"/>
      <path class="cls-1" d="M233.81,3.33s2.38,1.79,3.89,3.08c-.11,.38-.49,.56-.98,.56h-16.98c-.84,1.54-1.79,3.04-2.87,4.58l.91,.32h10.96l1.68-1.93,3.71,2.84c-.28,.35-.84,.67-1.65,.8v14.88c0,2.38-.52,3.82-4.69,4.2-.1-1.08-.31-1.93-.84-2.42-.56-.53-1.37-.95-3.08-1.19v-.53s3.71,.25,4.48,.25c.63,0,.77-.21,.77-.73v-4.41h-12.25c-.59,3.26-2,6.62-5.53,9.14l-.35-.35c2.66-4.06,2.84-9.17,2.84-13.86v-3.33c-2.21,2.31-4.76,4.38-7.77,5.95l-.31-.38c4.59-3.61,8.02-8.72,10.26-13.83h-9.52l-.25-1.02h10.22c.84-2,1.5-4.03,2-5.95l4.87,1.47c-.17,.38-.46,.63-1.4,.63-.49,1.26-1.05,2.52-1.68,3.85h11.45l2.13-2.62Zm-4.69,19.29v-4.41h-11.9v.35c0,1.26-.03,2.62-.21,4.06h12.11Zm-11.9-9.73v4.31h11.9v-4.31h-11.9Z"/>
      <path class="cls-1" d="M251.67,10.19c-.17,.38-.63,.67-1.33,.56-2,3.4-4.73,5.95-7.6,7.49l-.42-.38c2.03-2.14,4.03-5.64,5.21-9.38l4.13,1.71Zm5.74,5.64c-.14,.42-.59,.74-1.43,.67-.35,1.33-.81,3.08-1.82,5.04,5.64,4.83,3.88,9.35,.91,7.46-.56-1.43-1.51-3.05-2.63-4.59-1.92,2.66-4.83,5.5-9.49,8.12l-.42-.56c4.13-3.33,6.65-6.72,8.16-9.77-1.54-1.86-3.25-3.57-4.79-4.94l.38-.28c2.21,.88,3.99,1.82,5.46,2.8,.77-2.1,1.12-3.96,1.26-5.39l4.41,1.44Zm-14.53-8.12l-.28-.98h13.58l1.89-2.49s2.17,1.71,3.47,2.91c-.11,.38-.45,.56-.95,.56h-17.71Zm4.76-7.35c8.96,1.23,6.44,7.98,3.04,5.81-.38-1.96-1.92-4.2-3.36-5.57l.32-.25Zm4.97,8.4c9.31,1.47,7.42,8.12,4.09,6.27-.59-2.1-2.66-4.59-4.41-5.99l.32-.28Zm20.16,.31c-.7,5.39-2,10.19-4.62,14.21,1.89,2.7,4.34,4.87,7.53,6.51l-.11,.35c-1.5,.28-2.49,1.09-2.94,2.56-2.62-1.89-4.62-4.34-6.09-7.21-2.48,2.94-5.81,5.43-10.33,7.28l-.32-.38c4.34-2.62,7.35-5.88,9.45-9.59-1.16-2.98-1.93-6.3-2.42-9.91-1.05,2.21-2.28,4.17-3.68,5.85l-.49-.28c2-4.73,3.61-11.66,4.2-18.24l4.8,.98c-.1,.49-.53,.81-1.26,.84-.45,2.1-1.02,4.09-1.65,6.02h5.43l1.92-2.49s2.17,1.71,3.5,2.94c-.11,.38-.46,.56-.95,.56h-2Zm-8.26,0c-.32,.88-.67,1.72-1.02,2.52,.67,3.29,1.65,6.27,3.01,8.93,1.47-3.5,2.31-7.32,2.7-11.45h-4.69Z"/>
      <path class="cls-1" d="M293.29,3.99c-.28,.28-.77,.38-1.61,.42-1.19,2.13-3.4,5.81-5.08,7.88,3.64,2.45,5.08,5.64,5.08,8.37,0,3.26-1.26,5.15-4.94,5.22,0-.98-.18-2.2-.46-2.62-.28-.32-.84-.59-1.61-.74v-.46h2.13c.39,0,.6-.04,.84-.17,.52-.32,.8-.98,.8-2.13,0-2.38-.7-4.97-2.73-7.35,.74-2.17,1.82-6.16,2.41-8.89h-3.82V31.64c0,.25-1.01,1.05-2.62,1.05h-.56V1.09l3.64,1.4h3.15l1.86-1.79,3.5,3.29Zm16.91,24.12s1.71,1.68,2.66,2.8c-.1,.38-.42,.56-.88,.56h-22.89l-.28-1.01h5.29V1.68l3.43,1.37h7.42l1.47-1.92,3.71,2.7c-.25,.35-.73,.56-1.61,.67V30.45h.18l1.5-2.35Zm-13.02-24.05v7.7h8.16V4.06h-8.16Zm8.16,8.68h-8.16v8.16h8.16V12.74Zm-8.16,17.71h8.16v-8.54h-8.16v8.54Z"/>
      <path class="cls-1" d="M329.56,3.99c-.28,.31-.74,.38-1.54,.42-1.12,2.07-3.12,5.78-4.66,7.84,3.29,2.45,4.62,5.57,4.62,8.26,.04,3.36-1.16,5.08-4.59,5.18,0-.91-.14-2.03-.42-2.45-.25-.32-.8-.56-1.5-.7v-.53h1.96c.35,0,.56-.03,.81-.17,.46-.28,.7-.95,.7-2.13,0-2.38-.63-4.97-2.45-7.35,.67-2.17,1.65-6.13,2.17-8.79h-3.57V31.61c0,.28-.98,1.05-2.49,1.05h-.53V1.16l3.47,1.4h2.91l1.79-1.79,3.33,3.22Zm19.81,12.46c-.24,.25-.77,.56-1.5,.7v11.8c0,2.21-.42,3.47-3.82,3.78-.04-.95-.17-1.65-.52-2.1-.35-.46-.98-.84-2.14-1.02v-.49s2.24,.14,2.83,.14c.49,0,.63-.17,.63-.63v-5.39c-.14,.21-.39,.32-.77,.32h-4.62v7.11c0,.14-.95,.67-2.35,.67h-.49v-7.77h-4.06l-.28-1.02h6.54c.53-1.79,1.09-4.24,1.3-5.53l3.46,1.22c-.07,.32-.45,.7-1.19,.66-.6,.91-1.65,2.35-2.73,3.64h1.89l1.16-1.58s1.3,1.05,2.14,1.92v-6.3h-13.2v15.09c0,.17-.98,.95-2.56,.95h-.53V14.14l3.54,1.43h12.39l1.44-1.68,3.43,2.55Zm-19.99-12.81l-.28-1.01h14.63l1.82-2.35s2.1,1.61,3.36,2.8c-.07,.38-.46,.56-.94,.56h-18.59Zm13.3,10.26v-1.44h-8.68v.91c0,.25-1.37,.95-2.56,.95h-.46V5.25l3.19,1.33h8.19l1.47-1.58,3.19,2.38c-.21,.25-.7,.52-1.33,.63v5.08c-.04,.25-1.54,.81-2.52,.81h-.49Zm-8.72,3.25c5.43,2.21,3.01,6.2,1.02,4.41-.04-1.4-.77-3.12-1.47-4.2l.46-.21Zm8.72-5.67v-3.92h-8.68v3.92h8.68Z"/>
      <path class="cls-1" d="M382.07,.91s2.49,1.82,3.92,3.18c-.07,.39-.42,.56-.91,.56h-13.44v4.94h7.88l1.61-1.86,3.57,2.77c-.25,.28-.77,.59-1.5,.7V28.56c0,2.31-.49,3.64-4.55,3.99-.1-.94-.25-1.71-.74-2.21-.52-.49-1.26-.91-2.87-1.12v-.49s3.29,.21,4.06,.21c.59,0,.77-.21,.77-.7V14.46c-.21,.04-.46,0-.74-.1-1.92,1.36-4.13,2.76-5.92,3.6l-.42-.42c1.26-1.33,3.01-3.61,4.59-5.78l2.49,1.86v-3.01h-8.23V30.8c0,.25-1.05,.98-2.73,.98h-.6V10.61h-8.51V31.5c0,.35-1.33,1.12-2.7,1.12h-.52V8.09l3.5,1.5h8.23V4.66h-14.21l-.28-1.02h26.15l2.1-2.73Zm-22.19,22.86c1.68-.63,4.62-2.07,7.28-3.68l.21,.38c-1.12,1.4-2.66,3.33-4.72,5.53-.04,.42-.25,.8-.56,.98l-2.21-3.22Zm.77-11.2c8.54,1.22,6.37,7.11,3.36,5.25-.56-1.75-2.27-3.82-3.67-5.01l.31-.24Zm11.97,7.6c9.31,1.71,7.53,7.7,4.45,5.95-.77-1.96-3.01-4.27-4.76-5.64l.32-.31Z"/>
      <path class="cls-1" d="M14.67,55.52c-.25,.32-.6,.46-1.37,.49-1.65,6.79-5.11,13.58-12.53,17.64l-.35-.42c5.25-4.31,8.19-11.06,9.42-17.68H1.51l-.31-1.01H9.63l1.86-1.86,3.19,2.83Zm17.92-2.34c-.21,.35-.56,.49-1.33,.35-2.1,1.89-5.39,4.45-8.65,6.41,2.98,5.04,7,8.12,11.06,10.26l-.14,.35c-1.43,.25-2.48,1.37-3.01,2.94-5.74-4.52-9.84-10.43-11.8-21.95v21c0,2.52-.56,3.99-4.9,4.38-.14-1.09-.38-1.89-.98-2.45-.63-.53-1.5-.95-3.47-1.23v-.53s4.24,.32,5.11,.32c.63,0,.84-.21,.84-.74v-27.83l4.66,.49c-.11,.49-.35,.81-1.26,.95v3.15c.73,4.03,1.92,7.35,3.46,10.15,2.38-2.73,4.94-6.3,6.27-8.61l4.13,2.59Z"/>
      <path class="cls-1" d="M42.47,64.27c2.07-1.19,3.01-2.7,3.46-4.52-1.82-.8-2.97-1.68-2.97-3.18,0-1.26,.88-2.35,2.41-2.35s2.66,1.16,2.66,3.33c0,2.66-1.26,6.06-4.97,7.84l-.59-1.12Z"/>
      <path class="cls-1" d="M75.06,55.87c1.22,6.54,5.15,13.27,15.23,17.54l-.07,.39c-1.75,.31-2.83,1.26-3.22,3.15-8.82-5.11-11.55-13.62-12.53-20.58-1.01,8.3-4.38,15.47-16.77,20.58l-.38-.56c9.98-5.71,12.85-12.6,13.65-20.51h-12.99l-.32-1.02h13.37c.28-3.29,.24-6.76,.24-10.36l4.97,.49c-.1,.53-.42,.88-1.26,1.02-.07,3.04-.11,6.02-.35,8.86h8.86l2.28-2.87s2.59,1.96,4.13,3.33c-.1,.38-.49,.56-.98,.56h-13.86Z"/>
      <path class="cls-1" d="M108.49,51.39c-.25,.25-.77,.56-1.51,.7v13.86c0,2.03-.31,3.15-2.94,3.43,0-.8-.07-1.54-.32-1.96-.21-.42-.56-.67-1.26-.84v9.38c-.04,.21-1.09,.88-2.24,.88h-.42v-25.27h-1.75v17.47c0,.28-1.05,.95-2.24,.95h-.38v-20.69l2.8,1.29h1.33v-6.02l4.41,.42c-.04,.49-.35,.84-1.23,.98v4.62h1.3l1.29-1.58,3.15,2.38Zm-6.02,14.67c.24,.04,1.15,.11,1.47,.11,.35,0,.46-.14,.46-.53v-14.07h-1.92v14.49Zm5.88-17.89l-.28-1.01h13.69l1.92-2.49s2.13,1.71,3.43,2.94c-.11,.38-.46,.56-.95,.56h-17.82Zm18.87,14.42c-.21,.31-.56,.52-1.33,.63v12.71c0,.21-1.09,.81-2.7,.81h-.53v-2.14h-11.1v1.47c0,.25-.95,.84-2.52,.84h-.56v-16.28l3.5,1.37h10.54l1.58-1.82,3.12,2.42Zm-6.27-2.7v-1.54h-7.77v1.15c0,.21-.98,.81-2.59,.81h-.56v-10.36l3.54,1.4h7.28l1.58-1.79,3.15,2.34c-.21,.28-.56,.49-1.3,.6v6.65c0,.14-1.08,.74-2.73,.74h-.59Zm-9.38,3.12v4.69h4.13v-4.69h-4.13Zm0,10.61h4.13v-4.9h-4.13v4.9Zm9.38-16.28v-5.01h-7.77v5.01h7.77Zm-2.45,5.67v4.69h4.16v-4.69h-4.16Zm4.16,10.61v-4.9h-4.16v4.9h4.16Z"/>
      <path class="cls-1" d="M144.34,58.57c-1.33,.8-2.98,1.82-5.01,2.94v11.31c0,2.38-.45,3.71-4.2,4.1-.07-.98-.21-1.79-.67-2.31-.46-.53-1.16-.88-2.55-1.09v-.53s2.91,.21,3.57,.21c.56,0,.7-.17,.7-.63v-9.31c-.91,.52-1.89,1.05-2.94,1.58-.11,.46-.42,.84-.81,.94l-1.37-4.09c1.05-.21,2.87-.67,5.11-1.26v-6.86h-4.45l-.28-1.02h4.72v-8.16l4.45,.46c-.07,.49-.42,.84-1.3,.98v6.72h.67l1.61-2.38s1.89,1.65,2.94,2.83c-.1,.39-.42,.56-.91,.56h-4.31v5.99c1.58-.46,3.22-.95,4.87-1.43l.14,.46Zm10.5,14.42c.77,.07,1.61,.11,2.52,.11,1.58,0,5.29,0,7.11-.04v.46c-1.01,.21-1.47,1.37-1.5,2.7h-5.78c-5.04,0-8.02-1.33-9.73-6.69-1.47,3.57-3.75,5.92-6.79,7.42l-.42-.39c3.08-3.04,5.04-7.49,5.29-13.37l4.59,.84c-.14,.46-.49,.77-1.29,.84-.25,1.33-.59,2.56-.98,3.64,.95,2,2.17,3.15,3.82,3.82v-10.99h-8.12l-.28-1.01h15.26l1.92-2.38s2.17,1.65,3.43,2.84c-.11,.38-.46,.56-.95,.56h-8.09v4.97h2.8l1.89-2.52s2.17,1.75,3.43,2.94c-.11,.38-.46,.56-.91,.56h-7.21v5.71Zm-6.06-15.12c0,.31-1.37,1.05-2.73,1.05h-.45v-13.62l3.36,1.4h8.54l1.58-1.75,3.43,2.59c-.21,.28-.74,.59-1.47,.74v9.17c-.04,.24-1.61,.94-2.7,.94h-.53v-1.68h-9.03v1.16Zm0-10.15v3.54h9.03v-3.54h-9.03Zm9.03,8.02v-3.5h-9.03v3.5h9.03Z"/>
      <path class="cls-1" d="M197.44,56.5s2.28,1.82,3.71,3.15c-.11,.38-.45,.56-.98,.56h-7.53v15.47c0,.42-1.47,1.23-2.73,1.23h-.63v-16.7h-8.47c-.32,6.16-2.07,12.67-10.85,16.7l-.28-.39c6.09-4.62,7.56-10.29,7.81-16.31h-8.72l-.28-1.01h9.03v-9.31c-2.52,.53-5.15,.95-7.67,1.19l-.14-.53c5.15-1.37,11.38-3.92,14.49-5.85l3.54,2.94c-.32,.32-1.02,.35-2,.04-1.36,.49-3.04,.98-4.9,1.44v10.08h8.44v-14.49l4.62,.49c-.07,.49-.35,.84-1.26,.98v13.02h2.7l2.1-2.7Z"/>
      <path class="cls-1" d="M215.61,49.64c-2.59,3.78-5.92,6.44-9.49,8.19l-.38-.35c3.29-2.87,6.54-7.7,8.3-13.2l4.66,2.07c-.17,.38-.6,.67-1.4,.53-.32,.59-.66,1.19-1.01,1.75h15.09l2.07-2.52s2.21,1.65,3.71,2.98c-.1,.38-.46,.56-.98,.56h-20.55Zm21.88,23.8c.88,1.29,1.05,2.17,.56,2.8-.98,1.16-2.8,.52-4.13-.56-2.66-1.82-4.06-5.36-4.76-9.59-.14,.25-.46,.38-.88,.38h-8.61v9.42c0,.35-1.4,.98-2.52,.98h-.63v-10.4h-9.42l-.28-1.01h9.7v-7.46l4.31,.45c-.07,.42-.35,.74-1.16,.88v6.13h4.59l1.75-2.14s1.89,1.4,3.12,2.52c-.42-2.66-.59-5.6-.66-8.54h-18.73l-.32-1.01h18.66l1.75-1.89,3.54,2.77c-.25,.25-.73,.49-1.43,.56-.11,5.36,.63,12.53,3.64,14.49,.42,.28,.6,.21,.77-.18,.38-.98,.8-2.13,1.12-3.36l.38,.07-.35,4.69Zm-30.17,1.72c1.68-1.65,3.57-4.45,4.9-7.35l3.88,2c-.21,.35-.7,.63-1.43,.45-1.96,2.38-4.55,4.24-7,5.29l-.35-.38Zm2.62-16.35c7.63,2.27,4.73,7.6,2.07,5.36-.25-1.72-1.44-3.82-2.42-5.15l.35-.21Zm19.18-6.41l1.89-2.34s2.2,1.61,3.54,2.8c-.11,.38-.42,.56-.91,.56h-19.53l-.28-1.02h15.3Zm-8.26,16.07c9.59,1.51,7.67,8.23,4.31,6.27-.7-2.1-2.87-4.55-4.62-5.99l.32-.28Zm6.51-8.12c-.17,.38-.59,.66-1.33,.52-1.54,1.44-3.33,2.94-4.76,3.96l-.49-.35c.77-1.43,1.79-3.75,2.66-5.92l3.92,1.79Z"/>
      <path class="cls-1" d="M247.78,49.96c.17,2.45-.73,4.1-1.85,4.83-1.02,.66-2.49,.56-2.94-.52-.35-1.02,.28-1.89,1.15-2.35,1.33-.7,2.63-2.62,2.52-4.76l.53-.04c.21,.67,.38,1.26,.49,1.85h22.23l1.79-1.89,3.25,3.12c-.28,.28-.63,.35-1.33,.42-.91,1.08-2.52,2.59-3.75,3.47l-.39-.25c.25-1.05,.53-2.63,.63-3.89h-22.33Zm7.91,13.62c-1.68,0-2.77-.1-3.36-.49-2.77,1.05-5.74,1.89-8.86,2.45l-.21-.56c2.87-.84,5.64-1.92,8.19-3.15-.04-.28-.07-.63-.07-.98v-8.37l4.06,.38c-.07,.45-.38,.77-1.08,.88v6.51c4.66-2.73,8.4-6.02,10.71-9.42l3.5,2.35c-.24,.31-.59,.42-1.4,.17-2.28,2.7-5.67,5.36-9.84,7.53h3.39c1.89,0,3.47-.04,4.1-.07,.49-.04,.74-.11,.95-.39,.35-.46,.77-1.58,1.26-3.04h.39l.14,3.12c.98,.32,1.26,.67,1.26,1.23,0,1.36-1.37,1.85-8.33,1.85h-4.8Zm-6.97-9.45c1.33,3.89,.04,6.44-1.54,7.35-1.02,.63-2.42,.42-2.84-.63-.32-1.01,.31-1.85,1.22-2.31,1.29-.6,2.66-2.38,2.62-4.41h.53Zm18.69,11.9l4.62,.42c-.07,.49-.38,.84-1.29,.98v8.82c0,.28-1.47,.84-2.77,.84h-.56v-2.24h-16.73l-1.19,1.61-3.64-2.03c.31-.32,.84-.7,1.33-.98v-7.35l4.58,.46c-.07,.53-.42,.88-1.33,1.01v6.27h6.76v-9.35l4.48,.42c-.07,.46-.31,.77-1.16,.91v8.02h6.9v-7.81Zm-11.73-15.65c7.32,1.16,4.87,6.76,2.13,4.8-.14-1.61-1.33-3.47-2.49-4.55l.35-.25Zm.14-6.13c8.09,.07,5.53,6.37,2.31,4.31-.25-1.47-1.4-3.15-2.56-4.09l.25-.21Zm11.76,10.36c9.28,2.38,6.51,9.17,3.36,6.72-.25-2.28-2-4.87-3.71-6.44l.35-.28Z"/>
      <path class="cls-1" d="M306.49,52.69c.35-.88,.73-2.2,1.01-3.29h-5.81v3.81c0,.39,.07,.53,1.09,.53h2.77c1.05,0,2.07,0,2.49-.04,.31,0,.7-.04,.88-.07,.25-.04,.63-.11,.91-.18h.28l.18,.04c.94,.28,1.19,.63,1.19,1.19,0,1.19-1.05,1.61-6.3,1.61h-3.22c-3.01,0-3.47-.63-3.47-2.63v-4.27h-6.16l2.91,2.03c-.17,.39-.63,.6-1.65,.49-2.84,2.66-7.11,4.83-12.95,5.67l-.21-.45c4.97-1.71,8.86-4.8,10.82-7.74h-7c.17,2.24-.77,3.81-1.89,4.41-1.05,.53-2.38,.31-2.76-.81-.32-1.01,.38-1.79,1.29-2.24,1.22-.59,2.34-2.21,2.13-4.06l.56-.04c.25,.59,.42,1.19,.53,1.71h11.31l-.14-.1c-.07-1.4-.98-2.98-2.03-3.85l.28-.25c5.32,.31,5.64,3.12,4.31,4.2h9.56l1.89-1.86,3.29,3.12c-.25,.28-.63,.35-1.33,.42-1.08,.94-2.94,2.13-4.34,2.87l-.38-.25Zm.42,4.03l3.22,2.52c-.25,.28-.63,.52-1.4,.67v15.72c0,.18-1.16,.84-2.73,.84h-.56v-1.96h-19.15v1.5c0,.25-.98,.88-2.59,.88h-.52v-19.67l3.54,1.4h5.04c.39-1.22,.88-3.08,1.19-4.27l4.66,1.15c-.17,.49-.66,.74-1.4,.74-.77,.7-1.85,1.61-2.76,2.38h11.87l1.61-1.89Zm-1.47,16.77v-13.86h-19.15v13.86h19.15Zm-1.16-10.12c-.21,.35-.52,.53-1.29,.38-.7,1.05-1.61,2.07-2.66,3.01,4.66,3.47,3.08,6.37,.88,5.15-.67-.95-1.68-2.1-3.08-3.33-2.59,1.86-5.78,3.33-9.35,4.2l-.25-.49c3.01-1.19,5.74-3.04,7.88-5.11-.88-.67-1.79-1.33-2.84-2-1.68,1.23-3.64,2.28-5.71,3.01l-.32-.49c1.54-.95,3.01-2.2,4.27-3.57-1.12-.63-2.28-1.26-3.5-1.82l.25-.53c1.5,.38,2.94,.81,4.2,1.26,.88-1.09,1.61-2.14,2.1-3.15l3.43,1.71c-.21,.35-.49,.53-1.29,.38-.53,.63-1.16,1.3-1.86,1.93,1.12,.49,2.1,.98,2.98,1.43,1.05-1.22,1.89-2.52,2.49-3.75l3.67,1.75Z"/>
      <path class="cls-1" d="M330.36,48.14c-.28,.32-.73,.42-1.58,.45-1.16,2.17-3.33,6.06-5.04,8.23,3.88,2.56,5.39,5.78,5.43,8.58,0,3.43-1.33,5.18-5.11,5.32,0-.91-.17-2.1-.46-2.49-.28-.35-.94-.59-1.79-.73v-.49h2.56c.38,0,.59-.07,.84-.21,.56-.35,.84-1.02,.84-2.21,0-2.52-.84-5.18-3.18-7.67,.73-2.24,1.85-6.41,2.49-9.21h-4.13v28.11c0,.24-.98,1.09-2.56,1.09h-.56v-31.64l3.57,1.44h3.5l1.82-1.79,3.36,3.22Zm15.68,.45s2.21,1.75,3.47,3.05c-.11,.38-.42,.56-.91,.56h-11.27c-.07,1.82-.17,3.57-.35,5.25h5.99l1.82-1.86,3.25,2.8c-.25,.32-.7,.49-1.43,.63-.39,9.49-1.23,14.67-3.01,16.28-1.08,1.01-2.52,1.47-4.38,1.47,0-1.01-.14-1.85-.66-2.31-.56-.53-1.93-.98-3.36-1.26l.04-.52c1.47,.14,3.88,.31,4.69,.31,.59,0,.91-.1,1.26-.38,1.12-1.02,1.75-6.13,2.13-14.14h-6.48c-1.01,7.98-3.75,14.28-11.9,18.45l-.28-.39c7.6-6.23,8.96-14.35,9.03-24.33h-5.67l-.28-1.01h16.38l1.92-2.59Zm-11.34-4.13c8.75,2.31,5.25,8.72,2.17,5.95-.07-1.92-1.26-4.27-2.52-5.71l.35-.24Z"/>
      <path class="cls-1" d="M367.54,55.52c-.25,.32-.6,.46-1.37,.49-1.65,6.79-5.11,13.58-12.53,17.64l-.35-.42c5.25-4.31,8.19-11.06,9.42-17.68h-8.33l-.31-1.01h8.44l1.86-1.86,3.19,2.83Zm17.92-2.34c-.21,.35-.56,.49-1.33,.35-2.1,1.89-5.39,4.45-8.65,6.41,2.98,5.04,7,8.12,11.06,10.26l-.14,.35c-1.43,.25-2.48,1.37-3.01,2.94-5.74-4.52-9.84-10.43-11.8-21.95v21c0,2.52-.56,3.99-4.9,4.38-.14-1.09-.38-1.89-.98-2.45-.63-.53-1.5-.95-3.47-1.23v-.53s4.24,.32,5.11,.32c.63,0,.84-.21,.84-.74v-27.83l4.66,.49c-.11,.49-.35,.81-1.26,.95v3.15c.73,4.03,1.92,7.35,3.46,10.15,2.38-2.73,4.94-6.3,6.27-8.61l4.13,2.59Z"/>
      <path class="cls-1" d="M3.82,95.64c1.19,3.85,.7,6.79-.28,8.23-.7,.95-2.1,1.19-2.7,.35-.52-.74-.17-1.64,.56-2.31,.91-1.12,1.92-3.85,1.82-6.27h.59Zm6.37-6.54c-.11,.49-.35,.84-1.3,.98v30.03c0,.35-1.36,1.02-2.55,1.02h-.66v-32.52l4.52,.49Zm-.56,5.46c5.99,2.94,3.19,7.35,1.08,5.32,0-1.72-.73-3.85-1.5-5.15l.42-.18Zm20.79,21.74s2.21,1.82,3.57,3.08c-.07,.38-.46,.56-.94,.56H11.45l-.28-1.01h9.42v-10.5h-6.62l-.28-1.01h6.9v-8.51h-4.52c-1.12,2.66-2.55,5.01-4.24,6.79l-.52-.25c1.71-3.75,3.12-9.21,3.64-14.49l4.41,1.16c-.14,.42-.53,.77-1.29,.77-.42,1.75-.95,3.43-1.58,5h4.09v-9l4.45,.46c-.07,.49-.31,.8-1.12,.91v7.63h3.75l1.92-2.52s2.17,1.71,3.47,2.97c-.11,.39-.45,.56-.95,.56h-8.19v8.51h3.05l1.86-2.52s2.13,1.72,3.36,2.98c-.11,.38-.42,.56-.91,.56h-7.35v10.5h4.52l2-2.63Z"/>
      <path class="cls-1" d="M42.47,108.49c2.07-1.19,3.01-2.7,3.46-4.52-1.82-.8-2.97-1.68-2.97-3.18,0-1.26,.88-2.35,2.41-2.35s2.66,1.16,2.66,3.33c0,2.66-1.26,6.06-4.97,7.84l-.59-1.12Z"/>
      <path class="cls-1" d="M85.67,91.76s2.38,1.79,3.89,3.08c-.11,.38-.49,.56-.98,.56h-16.98c-.84,1.54-1.79,3.04-2.87,4.58l.91,.32h10.96l1.68-1.93,3.71,2.84c-.28,.35-.84,.66-1.65,.8v14.88c0,2.38-.52,3.82-4.69,4.2-.1-1.08-.31-1.93-.84-2.41-.56-.53-1.37-.95-3.08-1.19v-.53s3.71,.25,4.48,.25c.63,0,.77-.21,.77-.73v-4.41h-12.25c-.59,3.26-2,6.62-5.53,9.14l-.35-.35c2.66-4.06,2.84-9.17,2.84-13.86v-3.33c-2.21,2.31-4.76,4.38-7.77,5.95l-.31-.38c4.59-3.61,8.02-8.72,10.26-13.83h-9.52l-.25-1.02h10.22c.84-2,1.5-4.03,2-5.95l4.87,1.47c-.17,.38-.45,.63-1.4,.63-.49,1.26-1.05,2.52-1.68,3.85h11.45l2.13-2.62Zm-4.69,19.29v-4.41h-11.9v.35c0,1.26-.04,2.62-.21,4.06h12.11Zm-11.9-9.73v4.31h11.9v-4.31h-11.9Z"/>
      <path class="cls-1" d="M103.52,98.62c-.17,.38-.63,.66-1.33,.56-2,3.4-4.73,5.95-7.6,7.49l-.42-.38c2.03-2.14,4.03-5.64,5.21-9.38l4.13,1.71Zm5.74,5.64c-.14,.42-.59,.74-1.43,.67-.35,1.33-.81,3.08-1.82,5.04,5.64,4.83,3.88,9.35,.91,7.46-.56-1.43-1.51-3.05-2.63-4.59-1.92,2.66-4.83,5.5-9.49,8.12l-.42-.56c4.13-3.33,6.65-6.72,8.16-9.77-1.54-1.86-3.25-3.57-4.79-4.94l.38-.28c2.21,.88,3.99,1.82,5.46,2.8,.77-2.1,1.12-3.96,1.26-5.39l4.41,1.44Zm-14.53-8.12l-.28-.98h13.58l1.89-2.49s2.17,1.71,3.47,2.91c-.11,.38-.46,.56-.95,.56h-17.71Zm4.76-7.35c8.96,1.23,6.44,7.98,3.04,5.81-.38-1.96-1.92-4.2-3.36-5.57l.32-.25Zm4.97,8.4c9.31,1.47,7.42,8.12,4.09,6.27-.59-2.1-2.66-4.59-4.41-5.99l.32-.28Zm20.16,.31c-.7,5.39-2,10.19-4.62,14.21,1.89,2.7,4.34,4.87,7.53,6.51l-.11,.35c-1.5,.28-2.49,1.09-2.94,2.56-2.62-1.89-4.62-4.34-6.09-7.21-2.48,2.94-5.81,5.43-10.33,7.28l-.32-.38c4.34-2.62,7.35-5.88,9.45-9.59-1.16-2.98-1.93-6.3-2.41-9.91-1.05,2.21-2.28,4.17-3.68,5.85l-.49-.28c2-4.73,3.61-11.66,4.2-18.24l4.8,.98c-.1,.49-.53,.81-1.26,.84-.46,2.1-1.02,4.09-1.65,6.02h5.43l1.92-2.49s2.17,1.71,3.5,2.94c-.11,.38-.46,.56-.95,.56h-2Zm-8.26,0c-.32,.88-.67,1.72-1.02,2.52,.66,3.29,1.65,6.27,3.01,8.93,1.47-3.5,2.31-7.32,2.7-11.45h-4.69Z"/>
      <path class="cls-1" d="M145.14,92.42c-.28,.28-.77,.38-1.61,.42-1.19,2.13-3.4,5.81-5.08,7.88,3.64,2.45,5.08,5.64,5.08,8.37,0,3.26-1.26,5.15-4.94,5.22,0-.98-.18-2.21-.46-2.62-.28-.32-.84-.59-1.61-.74v-.46h2.13c.39,0,.6-.04,.84-.17,.52-.32,.8-.98,.8-2.13,0-2.38-.7-4.97-2.73-7.35,.74-2.17,1.82-6.16,2.42-8.89h-3.82v28.14c0,.25-1.01,1.05-2.62,1.05h-.56v-31.61l3.64,1.4h3.15l1.86-1.79,3.5,3.29Zm16.91,24.12s1.71,1.68,2.66,2.8c-.1,.38-.42,.56-.88,.56h-22.89l-.28-1.01h5.29v-28.77l3.43,1.37h7.42l1.47-1.92,3.71,2.7c-.25,.35-.73,.56-1.61,.66v25.97h.18l1.5-2.35Zm-13.02-24.05v7.7h8.16v-7.7h-8.16Zm8.16,8.68h-8.16v8.16h8.16v-8.16Zm-8.16,17.71h8.16v-8.54h-8.16v8.54Z"/>
      <path class="cls-1" d="M201.64,96.34c-.28,.28-.67,.32-1.37,.39-.77,.63-2,1.54-3.05,2.13l1.02,.77c-.21,.28-.53,.49-1.26,.59v5.43c0,.1-1.01,.67-2.55,.67h-.53v-1.23h-8.72v.91c0,.21-.91,.77-2.49,.77h-.49v-9.1l3.36,1.37h8.19l1.43-1.68,1.23,.91c.21-.63,.46-1.44,.63-2.1h-15.23c.07,1.68-.56,2.91-1.4,3.43-.77,.52-2.1,.38-2.49-.6-.17-.45-.1-.88,.07-1.22h-2.2v6.2c1.29-.38,2.62-.8,3.95-1.26l.11,.42c-1.05,.74-2.42,1.65-4.06,2.73v11.24c0,2.34-.46,3.67-4.1,4.03-.07-.95-.25-1.75-.67-2.24-.46-.53-1.16-.88-2.52-1.08v-.53s2.87,.21,3.5,.21c.56,0,.7-.17,.7-.63v-9.07c-.77,.46-1.58,.95-2.45,1.47-.11,.46-.42,.84-.77,.94l-1.54-3.92c.95-.21,2.66-.7,4.76-1.33v-7.18h-3.96l-.28-1.02h4.24v-8.16l4.38,.46c-.1,.49-.46,.84-1.29,.95v6.75h.25l1.58-2.48s1.08,1.05,2,2.1c.66-.63,1.26-1.61,1.22-2.55h.56c.14,.49,.28,.94,.35,1.36h6.16v-6.41l4.27,.38c-.07,.46-.35,.81-1.23,.95v5.08h5.95l1.71-1.71,3.01,2.87Zm-4.52,10.08l3.08,2.42c-.25,.31-.56,.49-1.29,.63v10.75c0,.17-1.09,.74-2.7,.74h-.56v-1.89h-12.5v1.26c0,.21-.98,.81-2.59,.81h-.53v-14.28l3.5,1.4h12.01l1.58-1.82Zm-15.51-16.98c6.97,1.61,4.24,6.65,1.71,4.69-.14-1.58-1.12-3.36-2.07-4.45l.35-.25Zm1.54,19.81v3.78h4.8v-3.78h-4.8Zm0,8.79h4.8v-3.99h-4.8v3.99Zm10.75-13.97v-4.03h-8.72v4.03h8.72Zm-3.12,5.18v3.78h4.87v-3.78h-4.87Zm4.87,8.79v-3.99h-4.87v3.99h4.87Zm3.43-27.13c-.21,.35-.63,.63-1.37,.52-1.33,1.33-2.94,2.59-4.31,3.4l-.49-.35c.7-1.26,1.58-3.33,2.21-5.25l3.96,1.68Z"/>
      <path class="cls-1" d="M218.48,107.12c-.25,.25-.67,.46-1.37,.56-.35,6.62-1.12,10.57-2.66,11.87-.95,.8-2.28,1.16-4.03,1.16,0-.84-.14-1.61-.7-2.03-.56-.49-1.93-.91-3.36-1.16l.04-.53c1.5,.11,4.03,.32,4.76,.32,.63,0,.95-.07,1.23-.32,.88-.74,1.43-4.31,1.75-9.77h-4.66l-1.16,1.33-2.91-1.93c.32-.25,.74-.52,1.19-.73,.31-2.42,.63-6.3,.7-8.47l3.46,1.44h3.15v-6.97h-7.7l-.31-1.01h7.67l1.54-1.72,3.33,2.56c-.25,.32-.77,.63-1.54,.77v8.12c-.04,.21-1.51,.77-2.49,.77h-.49v-1.5h-3.95c-.14,1.85-.39,4.45-.63,6.34h4.45l1.64-1.64,3.05,2.55Zm12.95,4.94c9.31,4.2,6.62,10.89,3.5,8.33-.17-1.19-.63-2.45-1.26-3.71-3.33,.88-7.7,1.82-13.55,3.08-.21,.45-.59,.7-.94,.77l-1.82-3.78c1.79-.04,4.83-.21,8.47-.46v-5.95h-3.82v1.54c0,.25-1.26,.91-2.45,.91h-.42v-11.59l3.08,1.29h3.61v-4.34c-1.68,.35-3.47,.67-5.29,1.02-.24,.38-.56,.63-.84,.73l-1.58-3.75s.7-.14,1.02-.28c2.49-1.43,5.7-5.42,6.9-7.53l4.06,2.17c-.17,.32-.6,.56-1.29,.42-1.82,1.72-5.01,3.92-7.84,5.46,2.83-.1,7.11-.35,11.69-.63-.88-1.23-1.96-2.31-3.01-3.12l.31-.28c9.7,1.92,7.56,8.89,4.34,6.79-.17-.84-.56-1.68-1.09-2.52-1.26,.28-2.77,.59-4.38,.95v4.9h3.64l1.44-1.54,3.15,2.34c-.21,.25-.67,.53-1.29,.63v7.32c-.04,.25-1.54,.8-2.49,.8h-.49v-1.71h-3.96v5.74l4.38-.31c-.66-1.3-1.44-2.52-2.17-3.5l.38-.21Zm-5.6-2.73v-5.81h-3.82v5.81h3.82Zm3.01-5.81v5.81h3.96v-5.81h-3.96Z"/>
      <path class="cls-1" d="M274.63,117.49c.7,1.79,.77,3.01,.18,3.4-1.37,.88-2.84-.25-3.85-1.75-3.26-4.38-3.29-16.35-3.12-26.74h-18.38v7.53c0,6.44-.39,15.16-6.48,21.14l-.49-.28c3.43-6.27,3.71-13.93,3.71-20.83v-10.01l3.78,1.44h17.43l1.82-1.96,3.5,2.98c-.25,.25-.74,.53-1.58,.67-.49,7.25-.32,19.39,1.86,22.33,.28,.39,.42,.32,.59-.17,.42-1.26,.8-2.59,1.16-3.92l.38,.07-.53,6.13Zm-11.66-6.09c8.33,4.34,5.29,10.61,2.49,7.88-.03-1.05-.31-2.13-.7-3.25-3.33,.8-7.81,1.75-13.83,2.97-.21,.45-.59,.7-.98,.77l-1.72-3.85c1.86-.04,5.01-.14,8.86-.35v-5.81h-3.22v1.4c0,.25-1.16,.84-2.24,.84h-.38v-11.8l2.8,1.19h3.05v-4.55h-6.51l-.28-1.01h12.36l1.58-2.28s1.82,1.61,2.84,2.73c-.1,.38-.42,.56-.88,.56h-6.16v4.55h2.91l1.33-1.37,2.7,2.1c-.14,.24-.56,.45-1.09,.56v7.67c0,.21-1.33,.77-2.24,.77h-.42v-1.36h-3.18v5.67l4.45-.28c-.56-1.29-1.23-2.55-1.89-3.54l.38-.21Zm-5.88-2.66v-6.34h-3.22v6.34h3.22Zm2.94-6.34v6.34h3.18v-6.34h-3.18Z"/>
      <path class="cls-1" d="M284.71,103.38c.14,2.24-.81,3.78-1.93,4.38-1.05,.53-2.42,.28-2.76-.8-.32-1.08,.35-1.89,1.29-2.31,1.22-.56,2.38-2.21,2.21-4.03l.56-.04c.24,.63,.42,1.23,.52,1.79h22.4l1.75-1.75,3.15,3.01c-.28,.28-.66,.31-1.37,.35-1.05,.84-2.91,2.1-4.24,2.8l-.42-.25c.35-.84,.84-2.1,1.19-3.15h-22.37Zm23.7,6.09c-.28,.31-.59,.42-1.29,.14-1.68,.63-4.13,1.29-6.65,1.82,2.35,3.04,6.72,4.59,11.24,5.29v.39c-1.29,.35-2.13,1.4-2.52,3.01-4.48-1.71-7.74-4.2-9.52-8.51-.56,.11-1.12,.21-1.65,.28,1.54,3.15,1.26,6.48,0,7.91-.63,.91-2.03,1.26-4.17,1.26-.04-.91-.25-1.47-.7-1.86-.38-.31-1.47-.66-2.59-.91v-.49c1.19,.1,3.39,.21,4.13,.21,.38,0,.63-.04,.81-.28,.46-.56,.7-1.79,.59-3.29-4.31,2.34-10.33,4.41-15.82,5.36l-.21-.56c5.57-1.54,11.8-4.55,15.44-7.63-.07-.28-.18-.56-.28-.8-3.75,1.96-9.24,3.75-14.14,4.52l-.21-.6c4.73-1.22,10.12-3.61,13.16-6.09-.1-.14-.21-.28-.35-.45-3.47,1.47-7.77,2.48-12.11,3.04l-.25-.53c3.85-.98,7.6-2.45,10.36-4.06h-5.46l-.28-1.01h14.49l1.79-2.14s1.96,1.47,3.22,2.59c-.1,.38-.46,.56-.95,.56h-7.7c-.7,.42-1.44,.81-2.24,1.16,1.4,1.02,2.41,2.21,3.12,3.47,2.66-1.26,5.81-3.15,7.46-4.41l3.29,2.63Zm-28.04-16.94h15.44c-.14-.07-.28-.14-.42-.21-.28-1.33-1.44-2.8-2.45-3.57l.25-.28c5.88-.03,5.92,3.26,4.27,4.06h8.44l2-2.62s2.31,1.79,3.71,3.08c-.11,.39-.46,.56-.95,.56h-30l-.28-1.02Zm21.63,8.89v-1.05h-12.18v.42c0,.28-1.5,.98-2.8,.98h-.46v-7.6l3.47,1.37h11.66l1.54-1.61,3.29,2.41c-.17,.25-.63,.49-1.22,.63v3.6c-.04,.25-1.68,.84-2.73,.84h-.56Zm0-2.07v-2.8h-12.18v2.8h12.18Z"/>
      <path class="cls-1" d="M345.03,89.34s2.49,1.82,3.92,3.18c-.07,.39-.42,.56-.91,.56h-13.44v4.94h7.88l1.61-1.86,3.57,2.77c-.25,.28-.77,.59-1.5,.7v17.36c0,2.31-.49,3.64-4.55,3.99-.1-.94-.25-1.71-.74-2.21-.52-.49-1.26-.91-2.87-1.12v-.49s3.29,.21,4.06,.21c.59,0,.77-.21,.77-.7v-13.79c-.21,.04-.46,0-.74-.1-1.92,1.36-4.13,2.76-5.92,3.6l-.42-.42c1.26-1.33,3.01-3.61,4.59-5.78l2.49,1.86v-3.01h-8.23v20.2c0,.25-1.05,.98-2.73,.98h-.6v-21.18h-8.51v20.9c0,.35-1.33,1.12-2.7,1.12h-.52v-24.54l3.5,1.5h8.23v-4.94h-14.21l-.28-1.02h26.15l2.1-2.73Zm-22.19,22.86c1.68-.63,4.62-2.07,7.28-3.68l.21,.38c-1.12,1.4-2.66,3.33-4.72,5.53-.04,.42-.25,.8-.56,.98l-2.21-3.22Zm.77-11.2c8.54,1.22,6.37,7.11,3.36,5.25-.56-1.75-2.27-3.82-3.67-5.01l.31-.24Zm11.97,7.6c9.31,1.71,7.53,7.7,4.45,5.95-.77-1.96-3.01-4.27-4.76-5.64l.32-.31Z"/>
      <path class="cls-1" d="M359.21,107.79c-.35,4.69-1.5,9.7-5.25,13.44l-.46-.38c2.59-5.43,2.7-12.22,2.7-18.38v-11.03l2.87,.95c2.66-1.23,5.53-2.8,7.14-3.89l3.5,2.98c-.35,.35-1.01,.35-2,.04-2.1,.59-5.32,1.37-8.37,1.82v4.27h5.36l1.58-1.68,3.36,2.56c-.21,.28-.73,.59-1.47,.74v9.84c-.04,.21-1.58,.84-2.62,.84h-.49v-2.1h-5.85Zm.14-9.17v3.96c0,1.33,0,2.73-.1,4.2h5.81v-8.16h-5.71Zm23.8-.8s2.1,1.71,3.4,2.94c-.11,.38-.46,.56-.95,.56h-3.5v18.62c0,.21-1.05,.95-2.73,.95h-.6v-19.57h-4.41c-.04,6.55-.95,14.63-9.17,19.85l-.42-.42c5.5-5.71,6.37-12.85,6.37-19.78v-10.01l3.39,1.16c2.94-1.12,6.02-2.62,7.77-3.64l3.75,3.36c-.38,.31-1.12,.35-2.1-.04-2.45,.56-6.12,1.12-9.59,1.47v7.04h6.9l1.89-2.49Z"/>
      <path class="cls-1" d="M29.97,144.9l3.19,3.12c-.25,.25-.63,.32-1.29,.35-1.05,.98-2.83,2.34-4.1,3.15l-.38-.21c.28-.94,.63-2.38,.88-3.57h-9.42v4.45h5.15l1.61-1.89,3.71,2.8c-.25,.32-.8,.67-1.61,.81v5.71c0,2.07-.53,3.22-4.34,3.57-.07-.88-.21-1.58-.59-2.03-.46-.42-1.12-.77-2.56-.98v-.49s2.77,.21,3.46,.21c.56,0,.7-.21,.7-.66v-6.02h-5.53v11.2c-.04,.21-1.08,.98-2.73,.98h-.56v-12.18h-5.39v9.14c0,.28-1.44,1.02-2.73,1.02h-.49v-12.64l3.5,1.47h5.11v-4.45H5.95c.14,2.1-.6,3.68-2.1,4.38-2.31,1.08-3.89-1.68-1.33-3.01,.98-.49,2.24-1.96,2.34-4.2-.91,.38-1.96,.77-3.15,1.12l-.28-.42c3.75-1.71,4.9-4.2,5.15-6.69H1.65l-.28-1.02H6.62v-4.79l4.17,.42c-.07,.46-.32,.77-1.12,.88v3.5h2.7v-4.73l4.13,.42c-.07,.46-.35,.77-1.23,.91v3.4h3.22v-4.73l4.17,.42c-.07,.46-.38,.77-1.23,.91v3.4h2.56v-4.79l3.99,.38c-.07,.45-.38,.77-1.05,.84v3.57h1.86l1.61-2.45s1.89,1.72,2.94,2.91c-.1,.38-.45,.56-.91,.56h-5.5v2.7c0,.38,.07,.49,.63,.49h2.28c.17,0,.46,0,.63-.03,.21,0,.49-.07,.7-.14h.32l.17,.07c.8,.32,1.08,.59,1.08,1.16,0,1.12-1.16,1.58-4.38,1.58h-1.79c-2.28,0-2.59-.67-2.59-2.49v-3.33h-2.56v5.71c0,.25-1.29,.77-2.38,.77h-.56v-1.54h-3.22v1.08c0,.25-1.26,.77-2.35,.77h-.56v-6.79h-2.77c-.28,2.13-1.33,4.27-4.52,5.88h.28c.25,.67,.38,1.3,.49,1.93H28.08l1.89-1.82Zm-14.7-5.99v3.92h3.22v-3.92h-3.22Z"/>
      <path class="cls-1" d="M64.62,141.86c-.1,.45-.52,.77-1.26,.77-.32,1.05-.7,2-1.12,2.91,7.81,2.59,5.6,8.19,2.59,6.2-.45-1.68-1.82-3.6-3.15-5.15-1.19,2.17-2.7,3.85-4.48,5.08,3.19,4.1,7.91,7.18,12.71,8.58l-.07,.38c-1.33,.28-2.38,1.33-2.8,2.94-5.53-2.66-9.63-7.32-12.04-13.86v14.42c0,.42-1.43,1.26-2.7,1.26h-.66v-11.48c-3.5,3.92-8.65,7.6-14.25,9.77l-.28-.52c6.09-3.29,11.87-9.35,14.53-15.86v-7.63h-13.65l-.32-1.01h13.97v-5.71l4.66,.49c-.1,.49-.35,.84-1.29,.98v4.24h8.33l2.13-2.62s2.38,1.79,3.85,3.08c-.1,.38-.46,.56-.95,.56h-13.37v8.47c.49,1.01,1.09,2,1.75,2.91,1.72-2.59,2.94-6.23,3.43-10.26l4.45,1.09Zm-16.03,.24c-.11,.42-.56,.74-1.29,.7-.35,.95-.77,1.86-1.19,2.73,6.02,2.38,3.4,6.86,.91,4.83-.17-1.16-.81-2.49-1.58-3.64-1.68,2.87-3.78,5.04-6.27,6.55l-.46-.35c2.49-2.83,4.62-7.21,5.5-12.11l4.38,1.29Z"/>
      <path class="cls-1" d="M89.08,140.18c-.24,.28-.77,.56-1.47,.74v21.11c-.04,.28-1.58,.98-2.66,.98h-.49v-2.7h-6.2v2.7c0,.35-1.19,1.12-2.52,1.12h-.53v-26.25l3.22,1.47h.63c.32-1.86,.74-4.55,.98-6.48l4.83,1.16c-.17,.56-.63,.8-1.4,.8-.84,1.33-2.06,3.12-3.04,4.52h3.68l1.61-1.82,3.36,2.66Zm-10.82,.17v8.72h6.2v-8.72h-6.2Zm6.2,18.94v-9.21h-6.2v9.21h6.2Zm21.7-19.11c-.28,.32-.7,.53-1.5,.63-.25,13.58-.8,20.62-2.59,22.65-1.12,1.3-2.62,1.82-4.66,1.82,0-1.08-.17-1.92-.73-2.42-.6-.56-2-1.05-3.61-1.33l.03-.56c1.65,.17,4.1,.35,4.94,.35,.7,0,.98-.11,1.37-.46,1.3-1.26,1.72-8.61,1.96-20.58h-7.35c-1.61,2.91-3.5,5.46-5.6,7.35l-.49-.32c2.06-3.54,4.09-9.1,5.15-14.46l4.66,1.37c-.14,.42-.56,.73-1.33,.73-.53,1.51-1.16,2.94-1.86,4.31h6.44l1.89-2,3.29,2.91Zm-14.98,6.27c9.45,3.33,6.37,10.12,3.19,7.46-.28-2.42-1.96-5.36-3.5-7.25l.32-.21Z"/>
      <path class="cls-1" d="M138.4,133.56s2.49,1.82,3.92,3.18c-.07,.39-.42,.56-.91,.56h-13.44v4.94h7.88l1.61-1.86,3.57,2.77c-.25,.28-.77,.59-1.5,.7v17.36c0,2.31-.49,3.64-4.55,3.99-.1-.94-.25-1.71-.74-2.2-.52-.49-1.26-.91-2.87-1.12v-.49s3.29,.21,4.06,.21c.59,0,.77-.21,.77-.7v-13.79c-.21,.04-.46,0-.74-.1-1.92,1.37-4.13,2.76-5.92,3.61l-.42-.42c1.26-1.33,3.01-3.61,4.59-5.78l2.49,1.86v-3.01h-8.23v20.2c0,.25-1.05,.98-2.73,.98h-.6v-21.18h-8.51v20.9c0,.35-1.33,1.12-2.7,1.12h-.52v-24.54l3.5,1.5h8.23v-4.94h-14.21l-.28-1.02h26.15l2.1-2.73Zm-22.19,22.86c1.68-.63,4.62-2.07,7.28-3.68l.21,.38c-1.12,1.4-2.66,3.33-4.72,5.53-.04,.42-.25,.8-.56,.98l-2.21-3.22Zm.77-11.2c8.54,1.22,6.37,7.11,3.36,5.25-.56-1.75-2.27-3.82-3.67-5.01l.31-.24Zm11.97,7.6c9.31,1.71,7.53,7.7,4.45,5.95-.77-1.96-3.01-4.27-4.76-5.64l.32-.31Z"/>
      <path class="cls-1" d="M160.27,143.96c-.25,.32-.6,.46-1.37,.49-1.65,6.79-5.11,13.58-12.53,17.64l-.35-.42c5.25-4.31,8.19-11.06,9.42-17.68h-8.33l-.31-1.01h8.44l1.86-1.86,3.19,2.83Zm17.92-2.34c-.21,.35-.56,.49-1.33,.35-2.1,1.89-5.39,4.45-8.65,6.41,2.98,5.04,7,8.12,11.06,10.26l-.14,.35c-1.43,.25-2.48,1.37-3.01,2.94-5.74-4.52-9.84-10.43-11.8-21.95v21c0,2.52-.56,3.99-4.9,4.38-.14-1.09-.38-1.89-.98-2.45-.63-.53-1.5-.95-3.47-1.23v-.53s4.24,.32,5.11,.32c.63,0,.84-.21,.84-.74v-27.83l4.66,.49c-.11,.49-.35,.81-1.26,.95v3.15c.73,4.03,1.92,7.35,3.46,10.15,2.38-2.73,4.94-6.3,6.27-8.61l4.13,2.59Z"/>
      <path class="cls-1" d="M185.4,149.07c0-2.73,2.24-4.94,4.97-4.94s4.94,2.21,4.94,4.94-2.2,4.97-4.94,4.97-4.97-2.24-4.97-4.97Zm1.26,0c0,2.03,1.65,3.71,3.71,3.71s3.67-1.68,3.67-3.71-1.64-3.67-3.67-3.67-3.71,1.64-3.71,3.67Z"/>
    </g>
    <g>
      <path class="cls-1" d="M30.85,213.75c1.09,.35,1.37,.81,1.37,1.44,0,1.26-.91,1.79-4.73,1.89l3.61,2.84c-.25,.28-.63,.56-1.4,.7v15.65c0,.21-1.37,.98-3.36,.98h-.7v-2.03H7.43v1.51c0,.25-1.19,.98-3.19,.98h-.67v-19.85c-.77,.17-1.58,.31-2.41,.42l-.21-.42c4.8-1.82,8.68-5.11,10.57-7.91H5.05c.32,2.42-.67,4.1-1.92,4.69-1.19,.56-2.7,.17-3.05-1.12-.35-1.26,.49-2.13,1.54-2.59,1.19-.56,2.31-2.07,2.13-3.82l.49-.04c.28,.67,.49,1.26,.63,1.86H15.45l-.04-.04c.04-1.47-.74-3.08-1.75-3.92l.25-.21c5.85,.04,6.27,2.87,4.83,4.17h8.82l2.17-2.17,3.82,3.57c-.28,.28-.66,.39-1.37,.45-1.29,.91-3.43,2.03-5.08,2.66l-.32-.21c.32-.91,.7-2.21,.95-3.29h-4.8v3.54c0,.39,.07,.53,.95,.53h2.38c.84,0,1.71,0,2.13-.04,.32,0,.77-.04,.98-.07,.25-.04,.66-.11,.98-.18h.32l.17,.04Zm-3.46,3.33c-.49,.04-1.02,.04-1.61,.04h-3.05c-3.25,0-3.78-.74-3.78-3.08v-4.1h-6.16l3.46,2.38c-.21,.42-.73,.67-1.82,.59-2.42,2.1-5.99,3.89-10.54,4.87l3.96,1.5h4.59c.32-1.26,.7-3.08,.91-4.38l5.46,1.29c-.17,.56-.66,.81-1.44,.81-.84,.63-2.03,1.54-3.01,2.27h11.1l1.93-2.21Zm-1.75,17.12v-13.9H7.43v13.9H25.63Zm-.63-9.98c-.21,.35-.52,.53-1.33,.42-.66,.94-1.47,1.89-2.41,2.8,4.45,3.57,2.45,6.76,.07,5.32-.6-.91-1.51-2-2.73-3.22-2.62,1.79-5.81,3.22-9.49,4.03l-.25-.46c3.05-1.29,5.71-3.12,7.88-5.25-.74-.63-1.54-1.26-2.38-1.86-1.65,1.19-3.61,2.21-5.71,2.91l-.31-.46c1.54-.98,2.97-2.31,4.16-3.75-1.05-.7-2.21-1.33-3.43-1.96l.21-.46c1.54,.38,2.94,.8,4.17,1.23,.77-1.02,1.4-2.07,1.82-3.01l3.88,1.96c-.17,.35-.49,.49-1.29,.39-.46,.56-1.01,1.12-1.65,1.68,.91,.38,1.72,.77,2.42,1.16,.91-1.16,1.64-2.28,2.21-3.47l4.16,2Z"/>
      <path class="cls-1" d="M66.9,215.75c-.21,.28-.67,.56-1.37,.74v9.77c-.07,.21-2.21,.95-3.61,.95h-.74v-2.66h-16c-.56,4.9-2.45,9.84-8.58,13.27l-.35-.39c4.41-5.08,4.9-11.52,4.9-17.89v-11.83l4.97,1.58c5.46-1.19,11.34-3.12,14.53-4.79l4.51,4.41c-.42,.31-1.26,.42-2.45-.07-4.45,.91-11.13,1.54-17.29,1.54v4.41h15.4l1.96-2.14,4.1,3.12Zm-5.71,7.81v-7.77h-15.75v3.85c0,1.26-.03,2.59-.14,3.92h15.89Z"/>
      <path class="cls-1" d="M78.66,217.08v19.15c0,.52-1.47,1.5-3.22,1.5h-.66v-31.92l4.06,1.75h4.59l1.72-1.89,3.64,2.77c-.21,.25-.63,.53-1.3,.67v8.54c-.04,.28-1.82,1.08-3.04,1.08h-.67v-1.65h-5.11Zm0-8.51v3.22h5.11v-3.22h-5.11Zm5.11,7.53v-3.33h-5.11v3.33h5.11Zm10.33,11.59v7.49c-.04,.18-1.05,.81-2.8,.81h-.63v-8.3h-3.19c-.38,3.08-1.75,6.44-6.9,8.65l-.35-.38c2.91-2.42,3.71-5.39,3.92-8.26h-4.1l-.28-1.02h4.45v-5.04h-3.36l-.28-.98h12.67l1.82-2.38s2.1,1.65,3.33,2.83c-.07,.35-.42,.53-.91,.53h-3.4v5.04h.1l1.75-2.38s1.96,1.65,3.12,2.83c-.11,.39-.46,.56-.95,.56h-4.03Zm-3.43-1.02v-5.04h-3.08v3.96c0,.35,0,.7-.04,1.08h3.12Zm14.67-18.17c-.25,.28-.74,.59-1.44,.7v23.84c0,2.77-.56,4.31-4.8,4.69-.1-1.3-.24-2.28-.63-2.84-.45-.63-1.05-1.05-2.45-1.33v-.46s2.62,.14,3.26,.14c.52,0,.67-.21,.67-.67v-15.51h-5.32v.25c0,.35-1.64,1.16-3.22,1.16h-.56v-12.5l3.92,1.58h4.83l1.82-2.14,3.92,3.08Zm-10.71,.07v3.22h5.32v-3.22h-5.32Zm5.32,7.53v-3.33h-5.32v3.33h5.32Z"/>
      <path class="cls-1" d="M140.4,211.41c-.35,.38-.95,.8-1.93,1.01v22.09c-.07,.28-2.21,1.23-3.78,1.23h-.63v-3.96h-16.59v3.15c0,.52-1.82,1.58-3.64,1.58h-.74v-28.07l4.73,1.92h15.79l2.21-2.59,4.59,3.64Zm-6.34,19.39v-19.46h-16.59v19.46h16.59Z"/>
      <path class="cls-1" d="M177.71,224.64c-.24,.35-.67,.38-1.33,.17-1.26,.67-3.75,1.68-6.16,2.34,2.31,3.01,5.36,5.18,8.79,6.34l-.07,.38c-1.37,.39-2.56,1.61-3.01,3.5-5.46-3.15-8.23-8.4-9.66-16.59h-2.73v11.48c1.68-.35,3.61-.8,5.46-1.29l.11,.42c-1.47,1.05-4.34,3.08-7.74,5.11-.31,.7-.84,1.12-1.26,1.33l-2-4.31c1.29-.67,1.5-1.02,1.5-1.89v-22.33c-.28,.14-.7,.17-1.26,.21-1.23,2.17-3.43,5.85-5.29,8.02,4.03,2.35,5.71,5.81,5.71,8.65,0,3.46-1.4,5.53-5.5,5.6,0-1.12-.14-2.7-.45-3.22-.25-.38-.84-.7-1.68-.88v-.46h2.28c.35,0,.56-.04,.77-.17,.49-.32,.8-.91,.8-1.96,0-2.45-.77-5.15-2.77-7.49,.63-2.24,1.47-6.44,1.93-9.21h-3.12v28.11c0,.28-1.16,1.22-3.12,1.22h-.66v-31.96l4.24,1.64h2.42l2.1-2.06,3.61,3.39v-3.05l4.38,1.79h7.11l1.89-2.07,3.85,2.98c-.21,.28-.67,.56-1.4,.74v11.87c0,.17-.7,.56-1.54,.84l3.81,2.8Zm-6.27-11.2v-4.97h-7.91v4.97h7.91Zm-7.91,6.33h7.91v-5.32h-7.91v5.32Zm3.36,1.02c.63,2.03,1.58,3.92,2.7,5.53,1.19-1.29,2.52-3.01,3.36-4.24-.32,.07-.6,.1-.84,.1h-.67v-1.4h-4.55Z"/>
      <path class="cls-1" d="M199.13,213.96s2.31,1.82,3.71,3.08c-.11,.39-.49,.56-.98,.56h-7.88v4.06h2.7l1.68-1.93,3.85,2.84c-.21,.25-.7,.59-1.44,.73v7.28c0,2.45-.45,3.85-4.13,4.17,0-1.08-.07-1.96-.35-2.52-.21-.46-.59-.88-1.54-1.09v-.49s1.29,.1,1.75,.1c.42,0,.53-.17,.53-.56v-7.56h-3.05v13.69c0,.42-1.64,1.33-3.08,1.33h-.74v-15.02h-3.01v11.13c0,.35-1.61,1.16-3.08,1.16h-.56v-14.81l3.85,1.54h2.8v-4.06h-7.91l-.28-1.02h8.19v-4.51h-3.71c-1.05,1.54-2.2,2.91-3.47,3.99l-.49-.28c1.01-2.49,2-6.3,2.52-9.84l5.01,1.4c-.14,.46-.56,.73-1.33,.77-.49,1.05-1.02,2.03-1.61,2.98h3.08v-5.99l5.08,.49c-.11,.52-.35,.88-1.26,1.01v4.48h2.45l1.96-2.66s2.27,1.82,3.61,3.08c-.07,.38-.46,.56-.95,.56h-7.07v4.51h3.15l2-2.62Zm7.88,14.91c0,.35-1.54,1.08-2.87,1.08h-.67v-22.44l4.73,.46c-.07,.49-.35,.8-1.19,.95v19.95Zm7.84-22.93c-.1,.53-.46,.84-1.29,.98v26.15c0,2.7-.56,4.24-4.9,4.62-.11-1.22-.28-2.1-.81-2.73-.52-.59-1.26-1.01-2.94-1.26v-.49s3.46,.21,4.2,.21c.56,0,.74-.17,.74-.63v-27.37l5,.53Z"/>
      <path class="cls-1" d="M241.83,220.37c11.41,2.17,10.05,7.39,7,6.41-1.92-1.75-6.44-4.48-11.83-6.41h-3.71c-2,2.13-4.79,4.09-8.65,5.67l1.68,.7h3.47l1.79-1.86,3.64,2.73c-.21,.28-.67,.56-1.3,.7v7.88c-.04,.28-1.89,1.08-3.12,1.08h-.66v-1.82h-3.96v1.26c0,.35-1.61,1.19-3.15,1.19h-.52v-11.06c-1.16,.42-2.38,.77-3.68,1.09l-.17-.42c4.62-1.93,7.88-4.45,10.12-7.14h-9.07l-.28-.98h10.12c.88-1.19,1.58-2.42,2.1-3.61-.35,.11-.7,.14-1.02,.14h-.63v-1.29h-4.69v1.12c0,.32-1.61,1.08-3.15,1.08h-.53v-11.41l3.82,1.54h4.2l1.71-1.89,3.64,2.77c-.14,.24-.63,.52-1.26,.67v6.41c0,.1-.31,.28-.73,.49l3.96,1.33c-.17,.49-.67,.7-1.44,.59-.42,.67-.84,1.37-1.4,2.07h7.84c-.18-.04-.35-.11-.56-.21-.38-1.16-1.5-2.45-2.55-3.29-.6,.25-1.37,.42-2.1,.42h-.53v-10.89l3.89,1.54h4.38l1.79-2,3.82,2.91c-.21,.28-.73,.6-1.43,.74v6.44c-.04,.25-1.96,.91-3.19,.91h-.63v-1.33h-4.87v.53s-.04,.07-.07,.14c5.29,.11,5.01,3.57,3.04,4.1h2l2.17-2.7s2.45,1.82,3.92,3.12c-.1,.38-.46,.56-.98,.56h-8.23Zm-11.83-6.76v-5.67h-4.69v5.67h4.69Zm-3.82,14.14v6.72h3.96v-6.72h-3.96Zm19.36-2.98l3.82,2.87c-.21,.28-.7,.59-1.44,.77v8.09c-.04,.24-1.96,.94-3.19,.94h-.63v-2h-4.24v1.08c0,.32-1.61,1.16-3.22,1.16h-.52v-12.5l3.92,1.54h3.71l1.79-1.96Zm-1.44,9.7v-6.72h-4.24v6.72h4.24Zm-4.13-26.53v5.67h4.87v-5.67h-4.87Z"/>
      <path class="cls-1" d="M11.7,281.2l-.81,.7c-5.78-5.08-8.79-10.64-8.79-17.96s3.01-12.88,8.79-17.92l.81,.7c-4.66,6.09-5.95,10.75-5.95,17.22s1.47,11.27,5.95,17.26Z"/>
      <path class="cls-1" d="M47.12,273.01c1.09,.46,1.33,.91,1.33,1.71,0,1.65-1.44,2.42-7.32,2.42h-3.61c-3.54,0-4.34-.74-4.34-3.5v-10.61h-2.55c-.95,7.88-4.83,12.71-14.88,14.98l-.17-.46c7.6-3.26,10.12-7.84,10.61-14.53h-2.49v1.15c-.03,.28-1.22,1.3-3.39,1.3h-.6v-18.38l4.06,1.29c1.58-1.16,3.22-2.56,4.1-3.5l4.1,3.36c-.42,.35-1.12,.38-2.14,.07-1.54,.46-3.89,.95-6.13,1.33v5.57h2.1l1.79-2.42s2.1,1.65,3.33,2.84c-.07,.38-.46,.56-.95,.56h-6.27v5.81h16.21v-5.81h-6.09l-.31-.98h6.41v-5.81h-6.62l-.32-1.01h6.58l1.92-2.14,3.96,3.08c-.21,.28-.67,.63-1.4,.77v13.97c-.04,.28-2.07,1.05-3.47,1.05h-.66v-2.1h-2.73v9.63c0,.52,.18,.7,1.26,.7h3.12c1.08,0,2.1,0,2.55-.04,.49-.04,.66-.14,.88-.53,.39-.63,.95-2.34,1.65-4.52h.38l.11,4.73Z"/>
      <path class="cls-1" d="M80.55,272.8s2.49,1.96,3.89,3.33c-.07,.39-.42,.56-.91,.56h-31.05l-.28-.98h13.86v-3.43h-10.22l-.28-1.01h10.5v-3.43h-5.01v.6c0,.38-1.85,1.26-3.57,1.26h-.56v-12.64l4.38,1.72h13.86l1.93-2.1,4.09,3.08c-.25,.28-.73,.56-1.43,.7v7.6c-.04,.25-2.17,.98-3.5,.98h-.73v-1.19h-5.18v3.43h5.32l2.03-2.31s2.28,1.58,3.64,2.77c-.07,.38-.42,.56-.91,.56h-10.08v3.43h8.05l2.17-2.91Zm-28.25-17.33h10.89c-.35-.1-.74-.31-1.09-.63-.04-1.54-.66-3.19-1.33-4.31h-6.23l-.28-1.01h14.21c-.46-.07-.95-.25-1.4-.59-.07-1.4-.91-2.98-1.79-3.82l.25-.21c7.04,.17,5.99,4.3,3.54,4.62h7.42l2.17-2.73s2.45,1.86,3.99,3.19c-.11,.38-.49,.56-.98,.56h-8.12l4.06,.95c-.14,.42-.49,.7-1.29,.7-1.01,.98-2.45,2.24-3.85,3.29h5.71l2.21-2.87s2.49,1.93,3.96,3.33c-.1,.39-.46,.56-.94,.56h-30.84l-.25-1.02Zm8.75,4.31v3.08h5.01v-3.08h-5.01Zm5.01,7.07v-3.01h-5.01v3.01h5.01Zm-3.82-16.31c4.94,1.26,4.2,4.34,2.28,4.94h6.48c.52-1.47,1.05-3.43,1.33-4.94h-10.08Zm8.09,9.24v3.08h5.18v-3.08h-5.18Zm5.18,7.07v-3.01h-5.18v3.01h5.18Z"/>
      <path class="cls-1" d="M93.32,251.9c.42,2.49-.21,4.27-1.3,5.11-1.01,.84-2.84,.59-3.39-.74-.46-1.29,.25-2.35,1.29-2.94,1.05-.74,2.21-2.66,1.96-4.52h.49c.31,.74,.56,1.4,.74,2.07h10.92c-.28-.14-.6-.32-.88-.56,.07-1.79-.84-3.78-2.07-4.94l.25-.24c7.42,.49,7.21,4.62,5.04,5.74h8.75l2.17-2.17,3.82,3.6c-.28,.28-.63,.39-1.37,.42-1.26,1.26-3.47,2.91-5.15,3.85l-.28-.24c.35-1.19,.8-3.01,1.01-4.45h-22.02Zm23.28,6.09s2.55,1.89,4.13,3.26c-.1,.38-.49,.56-.98,.56h-7.11c-.8,3.33-2.13,6.2-4.48,8.65,13.55,3.67,8.26,9,4.55,7-1.82-1.4-4.41-2.94-7.67-4.45-3.54,2.28-8.54,3.92-15.68,4.9l-.21-.42c5.81-1.5,9.91-3.46,12.81-5.81-2.73-1.08-5.74-2.13-9.1-3.04,.94-1.65,2.21-4.2,3.4-6.83h-7l-.32-1.01h7.77c1.33-3.08,2.56-6.06,3.05-7.74l5.71,1.72c-.14,.38-.46,.73-1.58,.7-.67,1.33-1.57,3.26-2.59,5.32h6.83c.21-1.4,.35-2.84,.42-4.34l6.06,1.16c-.11,.56-.56,.84-1.37,.8-.11,.81-.25,1.61-.39,2.38h1.54l2.21-2.8Zm-15.82,3.82c-1.19,2.31-2.45,4.69-3.61,6.65,2.66,.32,4.97,.67,7.04,1.09,2-2.35,3.08-4.9,3.71-7.74h-7.14Z"/>
      <path class="cls-1" d="M145.86,247.49c-.39,.46-1.51,.77-2.94,.84,2.59,3.22,8.93,6.58,15.19,8.05v.42c-1.82,.53-3.26,2.17-3.75,3.85-5.08-2.83-9.98-7.32-12.29-12.22-3.54,5.88-10.08,10.78-17.33,13.58l-.21-.35c5.32-3.36,10.22-8.58,12.36-13.44h-5.81l-.32-1.02h10.19l1.29-2.1,3.61,2.38Zm6.9,25.34s2.55,1.96,4.13,3.36c-.1,.38-.46,.56-.98,.56h-29.51l-.28-.98h12.74v-7.49h-9.03l-.28-.98h9.31v-6.69h-7.74l-.28-1.01h14.67l2.07-2.56s2.35,1.75,3.82,3.01c-.11,.38-.49,.56-.98,.56h-7.25v6.69h4.69l2.17-2.77s2.42,1.89,3.92,3.19c-.07,.38-.46,.56-.95,.56h-9.84v7.49h7.28l2.31-2.94Z"/>
      <path class="cls-1" d="M175.43,249.21c-.28,.32-.74,.46-1.58,.49-1.22,2.14-3.36,5.85-5.18,8.05,3.99,2.42,5.57,5.78,5.6,8.65,0,3.46-1.4,5.46-5.39,5.53,0-1.08-.17-2.56-.46-3.05-.28-.39-.84-.7-1.68-.88v-.45h2.31c.35,0,.52-.04,.77-.21,.49-.28,.77-.91,.77-2.03,0-2.42-.77-5.11-2.8-7.46,.63-2.28,1.5-6.48,2-9.24h-3.46v28.11c0,.28-1.16,1.22-3.12,1.22h-.7v-31.96l4.31,1.64h2.7l2.06-2,3.85,3.57Zm14.98-.1s2.49,2.03,3.89,3.43c-.07,.38-.49,.56-.98,.56h-10.71c-.07,1.79-.17,3.54-.35,5.22h5l2.17-2.14,3.71,3.15c-.28,.32-.74,.53-1.5,.67-.39,9.91-1.23,14.67-3.19,16.31-1.19,1.05-2.66,1.51-4.76,1.51,.04-1.23-.14-2.21-.63-2.73-.59-.63-1.86-1.16-3.29-1.47v-.46c1.43,.11,3.71,.28,4.48,.28,.59,0,.91-.1,1.26-.38,1.12-.95,1.75-5.74,2.1-13.76h-5.5c-1.05,7.91-3.85,14.56-12.22,18.62l-.25-.31c7.25-6.37,8.47-14.95,8.47-24.5h-5.22l-.28-1.01h9.73c-.49-.11-.98-.35-1.47-.81,.1-2.03-.81-4.34-2-5.85l.28-.17c7.6,1.58,6.65,6.3,4.1,6.83h4.94l2.21-2.98Z"/>
      <path class="cls-1" d="M230.66,263.52c-1.33,.35-2.28,1.44-2.7,3.15-2.91-2.17-4.34-4.94-5.04-9.63-.56,.18-1.12,.35-1.68,.49,1.44,3.19,1.16,6.51-.14,8.02-.74,.88-2.1,1.19-4.1,1.23-.14,.32-.42,.56-1.09,.67v2.77h4.97l2.17-2.73s2.38,1.82,3.82,3.15c-.11,.38-.42,.56-.91,.56h-10.05v4.13h8.16l2.17-2.77s2.45,1.89,3.96,3.22c-.1,.38-.46,.56-.98,.56h-31.5l-.28-1.01h14.35v-4.13h-10.12l-.28-.98h10.4v-4.13l4.87,.38c-.07-.8-.28-1.33-.67-1.71-.42-.35-1.43-.74-2.55-.98v-.38c-1.19,.42-2.38,.77-3.54,1.02l-.21-.49c3.29-1.4,6.72-3.99,8.79-6.76l-.03-.04c-2.42,1.47-5.74,2.73-8.79,3.43,.04,.17,.04,.35,.04,.52,0,2.63-1.19,4.1-4.73,4.2,0-.84-.14-2.07-.42-2.52-.25-.32-.77-.56-1.47-.7v-.49h2.07c.35,0,.56-.04,.74-.14,.31-.25,.49-.59,.49-1.29,0-1.86-.8-3.4-2.55-5.01,.49-1.61,1.19-4.24,1.61-6.16h-2.77v18.73c0,.25-1.12,1.08-2.94,1.08h-.63v-22.4l4.03,1.58h2.07l1.96-1.82,3.36,3.36c-.28,.28-.77,.38-1.58,.38-1.08,1.44-2.73,3.75-4.27,5.15,3.05,1.33,4.52,3.15,4.94,4.97,2.8-1.33,5.85-3.64,7.67-5.85l-.17-.28c-2.45,1.29-5.43,2.27-8.54,2.97l-.28-.52c2.87-1.16,5.39-2.87,7.21-4.66h-5.92l-.28-1.01h10.33c.67-1.65,1.33-3.85,1.75-5.46l5.04,1.4c-.14,.42-.56,.7-1.33,.67-1.09,1.02-2.8,2.35-4.38,3.4h3.64l1.86-2.35s2.1,1.61,3.4,2.8c-.11,.38-.46,.56-.95,.56h-8.33c-.66,.63-1.5,1.19-2.34,1.75,1.22,.94,2.17,2.1,2.83,3.29,1.61-1.23,3.64-2.98,5.29-4.55l2.8,3.22c-.35,.28-.74,.28-1.4-.07-1.22,.6-2.59,1.12-3.88,1.58,1.26,3.4,3.88,5.22,7.07,6.27v.38Zm-18.03-18.34c7.84,1.33,4.58,7.14,1.54,4.76-.11-1.61-.98-3.43-1.86-4.55l.32-.21Zm5.63,18.06c.32-.46,.56-1.33,.6-2.38-1.54,.95-3.36,1.79-5.22,2.45,1.19,.07,3.19,.21,3.85,.21,.38,0,.63-.03,.77-.28Z"/>
      <path class="cls-1" d="M263.95,267.55c-.21,.35-.53,.52-1.29,.31-1.47,.77-3.61,1.61-5.71,2.24,2.91,1.79,6.41,2.83,10.05,3.5l-.04,.39c-1.68,.38-2.8,1.68-3.29,3.64-6.02-2.27-10.29-5.67-12.43-12.39-1.23,1.08-2.63,2-4.24,2.83v4.69c1.68-.42,3.57-.98,5.5-1.58l.11,.39c-1.58,1.19-4.55,3.57-8.19,5.95-.25,.35-.53,.59-.77,.77l-2.56-3.75c1.61-.98,1.89-1.3,1.89-1.96v-2.77c-2.77,.98-5.81,1.72-9.1,2.28l-.17-.46c5.08-1.64,9.45-4.24,12.25-7h-11.69l-.28-.98h15.86c-.28-.07-.56-.21-.84-.38-.14-.88-.56-1.79-1.08-2.59-.46,.35-1.79,.77-3.05,.77h-.7v-6.06h-3.15c-.38,2.8-1.75,5.57-6.16,7.39l-.42-.46c2.45-2.17,2.87-4.59,2.94-6.93h-2.49l-.32-1.02h9.59v-2.83h-3.92l-1.19,1.65-3.82-2.03c.32-.35,.84-.77,1.33-1.05v-4.3l4.52,.45c-.07,.42-.35,.74-1.05,.84v3.43h4.13v-5.42l5.22,.45c-.07,.49-.35,.84-1.29,.98v12.78c5.5,.28,4.97,3.75,2.97,4.34h9.59l2.13-2.87s2.42,1.96,3.85,3.29c-.11,.38-.49,.56-.98,.56h-13.83l-.07,.07c.98,1.86,2.35,3.36,4.03,4.59,1.58-1.47,3.19-3.29,4.03-4.55l4.13,2.8Zm-9.24-16.66v-5.78l5.39,.42c-.07,.52-.31,.88-1.26,1.01v4.34h1.92l2.14-2.66s2.34,1.82,3.78,3.08c-.07,.38-.42,.56-.95,.56h-6.9v6.58h1.64l2.07-2.55s2.31,1.75,3.71,3.01c-.07,.38-.42,.56-.95,.56h-15.37l-.28-1.02h5.04v-6.58h-5.74l-.28-.98h6.02Z"/>
      <path class="cls-1" d="M299.3,272.7s2.52,1.85,4.13,3.18c-.1,.39-.49,.56-.98,.56h-31.54l-.31-1.02h5.95v-17.29l4.41,1.68h2.98c.07-.8,.14-1.75,.21-2.7h-13.13l-.28-.98h13.51c.07-.98,.14-1.92,.17-2.73l5.71,.7c-.11,.59-.56,.91-1.37,1.01l-.42,1.01h8.16l1.16-1.4c-.25,.04-.49,.07-.7,.07h-.7v-1.54h-18.52v.84c0,.35-1.79,1.19-3.36,1.19h-.56v-9.7l4.24,1.65h17.85l1.86-1.96,3.85,2.91c-.17,.25-.67,.56-1.37,.7v4.9c0,.07-.24,.25-.63,.38,.88,.63,2.14,1.58,3.08,2.38-.1,.38-.45,.56-.94,.56h-13.79c-.42,.91-.84,1.89-1.19,2.7h5.78l1.79-2.31,4.38,3.01c-.25,.38-.67,.59-1.58,.74v14.04l2.17-2.59Zm-21.56-20.44h3.64v-3.99h-3.64v3.99Zm2.87,8.58v2.97h12.25v-2.97h-12.25Zm12.25,3.96h-12.25v2.8h12.25v-2.8Zm-12.25,3.82v2.76h12.25v-2.76h-12.25Zm0,6.83h12.25v-3.05h-12.25v3.05Zm4.38-27.16v3.99h3.82v-3.99h-3.82Zm11.27,3.99v-3.99h-3.82v3.99h3.82Z"/>
      <path class="cls-1" d="M306.89,246.72l.77-.7c5.81,5.08,8.82,10.64,8.82,17.92s-3.01,12.92-8.82,17.96l-.77-.7c4.66-6.09,5.95-10.75,5.95-17.26s-1.51-11.24-5.95-17.22Z"/>
    </g>
  </g>
</svg>