<?xml version="1.0" encoding="utf-8"?>
<!-- Generator: Adobe Illustrator 27.0.0, SVG Export Plug-In . SVG Version: 6.00 Build 0)  -->
<svg version="1.1" id="圖層_1" xmlns="http://www.w3.org/2000/svg" xmlns:xlink="http://www.w3.org/1999/xlink" x="0px" y="0px"
	 viewBox="0 0 595.2 187" style="enable-background:new 0 0 595.2 187;" xml:space="preserve">
<style type="text/css">
	.st0{fill:#FFF100;}
</style>
<g>
	<g id="_圖層_2">
		<g id="_圖層_1-2">
			<g>
				<g>
					<path class="st0" d="M45.8,18.8c31.1,5.9,24.8,27.6,14.1,21.1c-0.9-2.5-2.3-5-3.8-7.6c-9.9,2.4-24.4,5.2-42.3,8.2
						c-0.8,0.9-1.8,1.5-2.7,1.8L8.1,30.7c0,0,2.2-0.4,3.2-1C18,26.7,28.1,14.8,31.1,8l13.8,5.2c-0.3,0.8-1.1,1.4-2.7,1.3
						c-5.5,5.5-15.6,12-24.6,16.2c9.2,0,22.8-0.2,37.1-0.6c-2.9-4.1-6.2-7.9-9.5-10.9C45.2,19.2,45.8,18.8,45.8,18.8z M54,40.5
						l10,7.7c-0.5,0.6-1.5,1.4-3.2,1.8v22c-0.1,0.5-5.5,2.2-9,2.2H50V68H26.1v3.2c0,1.1-4.8,3.4-9.2,3.4h-1.5v-33l11.3,4.3h22.5
						C49.1,45.9,54,40.5,54,40.5z M50,66.1V47.9H26.1v18.2C26.1,66.1,50,66.1,50,66.1z"/>
					<path class="st0" d="M141.1,40.1c-0.5,0.8-1.1,1-2.9,1.3c-2.2,6.5-5.4,12.5-9.9,17.6c4.8,3,10.4,4.9,16.5,6.4l-0.1,0.8
						c-4.3,0.9-7.4,4-8.8,8.8c-5.6-2.8-10.2-5.9-13.7-10.4c-5.6,4.4-12.7,7.9-21.6,10.2l-0.4-0.8c7.7-3.8,13.8-9,18.3-15.1
						c-2.5-4.9-4.3-11.1-5.3-19.3h-0.9c-0.3,11.8-2.9,26.4-20,35.3L92,74.3c5.4-5.9,8.2-12.6,9.7-19.5c-4.1,3.4-10.2,7.9-18.6,13.3
						c-0.3,0.9-1.1,1.8-1.9,2l-4.4-11.1c1.7-0.3,4.5-1,7.8-1.8V38h-6.2l-0.6-2h6.7V18.5h-6.6l-0.6-2h14.9l4.7-6.6
						c0,0,5.3,4.5,8.3,7.4c-0.1,0.3-0.2,0.5-0.3,0.7l8.8,3h3.4V8.3l12.3,1c-0.1,1.1-0.6,1.8-2.5,2v9.7h4l5-5l8.5,8.1
						c-0.6,0.6-1.3,0.8-2.7,1c-2.9,2.7-7.7,6.2-11.6,8.1l-0.5-0.3c0.8-2.8,1.4-6.8,1.9-9.9h-4.6v14.6h0.2l5.2-5.1
						C132.5,32.6,141.1,40.1,141.1,40.1z M94.4,18.5v17l3.4-5.7c0,0,3.1,3.1,5.3,5.7V18.5C103.1,18.5,94.4,18.5,94.4,18.5z
						 M94.4,54.8c2.4-0.6,5-1.3,7.6-2c0.8-4.9,1.1-9.9,1.1-14.8c-0.2,0.1-0.4,0.1-0.7,0.1h-8V54.8z M112.5,37.7h4.8V23h-4.8V37.7z
						 M114.6,39.6c1.5,6.1,4.1,10.7,7.5,14.3c2.5-4.5,4.4-9.2,5.7-14.3C127.8,39.6,114.6,39.6,114.6,39.6z"/>
					<path class="st0" d="M159.9,39.1c3-0.9,6.1-1.3,9.4-1.3c11.8,0,19.1,5.4,19.1,15c0,10.7-8.7,16.5-20.6,16.5
						c-9.8,0-15.8-4.8-16.3-12.5c0.8-2.1,2.7-3.2,4.6-3.2c2.9,0,4.5,1.5,5,5.7l1,6.9c1.1,0.4,2.2,0.6,3.8,0.6
						c6.4,0,10.6-4.8,10.6-12.8s-3.8-12.5-10-12.5c-2.9,0-5.4,0.3-8.1,1.2l-2-1.3l1.7-23.5h28.5v8.6h-25.8
						C160.8,26.6,159.9,39.1,159.9,39.1z"/>
					<path class="st0" d="M234.3,44.4h-16.9v17.7h-4.1V44.4h-17v-3.8h17V23.2h4.1v17.3h16.9C234.3,40.5,234.3,44.4,234.3,44.4z"/>
					<path class="st0" d="M251.1,39.1c3-0.9,6.1-1.3,9.5-1.3c11.8,0,19.1,5.4,19.1,15c0,10.7-8.7,16.5-20.6,16.5
						c-9.8,0-15.8-4.8-16.3-12.5c0.8-2.1,2.7-3.2,4.6-3.2c2.9,0,4.5,1.5,5,5.7l1,6.9c1.1,0.4,2.2,0.6,3.8,0.6
						c6.4,0,10.6-4.8,10.6-12.8s-3.8-12.5-10-12.5c-2.9,0-5.4,0.3-8.1,1.2l-2-1.3l1.7-23.5h28.5v8.6H252L251.1,39.1L251.1,39.1z"/>
					<path class="st0" d="M353.9,43.8l-0.1,1c-2.9,2.4-4.4,5.2-4.8,8.6c-6.2-2.9-12.4-8.3-16.6-13.6c-5,4.8-12.9,9.7-21.6,12.2
						l-0.5-0.6c5.9-4.2,11.5-11.3,14.6-16.9c-0.9,0.2-2,0.3-3.2,0.4c-0.1-1.5-0.1-2.5-0.6-3.1c-0.4-0.4-0.8-1.2-2.8-1.5v-0.6
						l-2.7,2.1c-0.2,0.9-0.8,1.5-1.5,1.8l-3.8-7.3c2.2-0.4,6.9-1.5,11.9-2.7v-8.5h-9.7c-0.4,0.4-1.3,0.9-2.3,1.1v49
						c0,5.5-1,8.3-9.1,9.1c-0.1-2.4-0.4-4.4-1.1-5.5c-0.8-1.1-1.9-2-4.4-2.4v-1c0,0,4.7,0.3,5.7,0.3s1.3-0.4,1.3-1.3V44.7
						c-0.5,1.3-1.1,2.7-1.8,4.3c-0.1,0.8-0.6,1.8-1.3,2.1l-2.1-4.3c-0.6,9.8-2.8,20.3-10.3,28.2l-0.8-0.5c4.1-11.5,3.9-26,3.9-39.1
						V9.9l8.8,3.2h3.1l3.4-4l6.8,5.3l-0.4-1.3h9.8l3.4-3.8l7.6,5.5c-0.4,0.5-1.3,1.1-2.5,1.3v12.5c0,1.8-0.2,3.1-1,4l8.5,4.1
						c-0.4,0.9-1.3,1.5-3.5,1.4C339.1,41.3,347.8,43.1,353.9,43.8L353.9,43.8z M297.6,35.3c0,2.5,0,5.1-0.1,7.8
						c1.3-0.6,3.1-1.5,5-2.5v-7.8c-0.8,0.3-1.8,0.3-2.8,0c-0.5-0.9-1.3-1.9-2.2-2.8V35.3z M297.6,15.1v11.2c2.2-0.1,3.9,0.4,5,1
						V15.1C302.6,15.1,297.6,15.1,297.6,15.1z M310.2,72.7c12.7-3.4,23.5-8.3,32.6-17.4l9.8,6.7c-0.6,0.8-1.5,0.9-3.1,0.5
						c-12.2,7.4-24.6,10.3-39,11.3L310.2,72.7z M311.8,16.9c13.8-2.2,10.9,9,4.8,6.5c-0.9-2.2-3.4-4.8-5.3-5.9
						C311.3,17.5,311.8,16.9,311.8,16.9z M313,64.1c8.8-3.4,16.3-8.5,22.5-15.5l8.8,5.7c-0.5,0.7-1.3,0.8-2.8,0.6
						c-8.3,5.5-17.9,8.8-28.1,10.4C313.4,65.1,313,64,313,64.1z M338.9,47c-0.5,0.7-1.1,0.8-2.7,0.6c-6.2,4.7-14,8-22,9.9l-0.6-1.1
						c6.6-3.4,12.2-8.4,16.7-14.6L338.9,47z M322.2,26.6c-1,0.9-2.2,1.8-3.6,2.9c0.6,0.1,2,0.1,2.6,0.1c0.8,0,1-0.5,1-1
						C322.2,28.6,322.2,26.6,322.2,26.6z M332.8,15.1l-0.6-2h9.1l3.4-3.8l7.6,5.6c-0.4,0.5-1.3,1.1-2.5,1.3v13.2
						c0,4.4-0.9,6.2-8.3,6.9c0-1.7-0.1-2.9-0.6-3.6c-0.4-0.6-0.9-1.3-2.8-1.7V30c0,0,2,0.2,2.9,0.2s1-0.5,1-1v-2.7
						c-1.6,1.4-3.6,3-6,4.8c-0.2,0.9-0.8,1.5-1.4,1.7l-4.4-6.6c2.3-0.5,6.9-1.5,11.8-2.9v-8.4L332.8,15.1L332.8,15.1z M331.4,17.4
						c13.4-2.4,10.6,8.6,4.5,6.2c-0.8-2.1-3.2-4.5-5-5.7L331.4,17.4z"/>
					<path class="st0" d="M400.7,11.8c-0.4,1-1.3,1.5-3.7,1.7c6.3,8.4,19.2,12.1,29.3,14.1v1.1c-4.3,1.3-6.9,5.8-7.6,9.6
						c-10.3-5-18.9-12.5-22.8-23.9C389.3,25.3,374.5,36,360,41l-0.4-0.8c12.1-7.6,24.1-22.1,26.7-32.1L400.7,11.8L400.7,11.8z
						 M408.5,43.1l9.7,7.4c-0.5,0.6-1.4,1.3-2.9,1.6v19.6c-0.1,0.5-5.5,2.2-9,2.2h-1.8v-5.4h-22.8v2.9c0,1-4.8,3.3-9.2,3.3H371V44.1
						l11.3,4.3h21.5L408.5,43.1L408.5,43.1z M399.8,29.3c0,0,6,4.7,9.6,7.9c-0.2,0.8-1,1.1-2,1.1h-30.2l-0.6-2h17.9L399.8,29.3z
						 M404.5,66.6V50.3h-22.8v16.3H404.5z"/>
					<path class="st0" d="M496.1,40.1c-0.5,0.8-1.1,1-2.9,1.3c-2.2,6.5-5.4,12.5-9.9,17.6c4.8,3,10.4,4.9,16.5,6.4l-0.1,0.8
						c-4.3,0.9-7.4,4-8.8,8.8c-5.6-2.8-10.1-5.9-13.6-10.4c-5.6,4.4-12.7,7.9-21.6,10.2l-0.4-0.8c7.7-3.8,13.8-9,18.3-15.1
						c-2.5-4.9-4.3-11.1-5.3-19.3h-0.9c-0.3,11.8-2.9,26.4-20,35.3l-0.6-0.6c5.4-5.9,8.2-12.6,9.7-19.5c-4.1,3.4-10.2,7.9-18.5,13.3
						c-0.3,0.9-1,1.8-1.9,2l-4.4-11.1c1.7-0.3,4.5-1,7.8-1.8V38h-6.2l-0.6-2h6.7V18.5H433l-0.6-2h14.9l4.7-6.6c0,0,5.3,4.5,8.3,7.4
						c-0.1,0.3-0.2,0.5-0.4,0.7l8.8,3h3.4V8.3l12.3,1c-0.1,1.1-0.6,1.8-2.5,2v9.7h4l5-5l8.5,8.1c-0.6,0.6-1.3,0.8-2.7,1
						c-2.9,2.7-7.7,6.2-11.5,8.1l-0.5-0.3c0.8-2.8,1.4-6.8,1.9-9.9H482v14.6h0.2l5.2-5.1L496.1,40.1L496.1,40.1z M449.4,18.5v17
						l3.4-5.7c0,0,3.1,3.1,5.3,5.7V18.5C458.1,18.5,449.4,18.5,449.4,18.5z M449.4,54.8c2.5-0.6,5-1.3,7.6-2
						c0.8-4.9,1.1-9.9,1.1-14.8c-0.2,0.1-0.4,0.1-0.7,0.1h-8L449.4,54.8L449.4,54.8z M467.5,37.7h4.8V23h-4.8V37.7z M469.6,39.6
						c1.5,6.1,4.1,10.7,7.5,14.3c2.5-4.5,4.4-9.2,5.7-14.3H469.6z"/>
					<path class="st0" d="M521.4,54.7c2.4-0.7,4.8-1.4,7.2-2.2l0.1,0.6c-3.3,3.4-8.8,8.6-17.1,15.2c-0.2,1-0.9,1.8-1.8,2.1
						l-5.3-10.9c1.6-0.4,4.2-1,7.4-2V37.9H506l-0.6-2h6.4V17.7h-6.4l-0.6-2h13.2l4.5-6.2c0,0,5.1,4.2,8.1,7.1
						c-0.1,0.1-0.1,0.3-0.2,0.4h15.1c-0.3-0.1-0.7-0.4-1-0.6c-0.2-2.9-1.8-6.1-3.4-7.9l0.5-0.4c13.7-0.7,13.4,6.6,9.2,8.9h7.7
						l4.7-6.1c0,0,5.2,4.1,8.3,6.9c-0.2,0.8-1,1.1-2,1.1h-40.7l-0.3-1.3h-7.3v16.9l2.5-4.3c0,0,3.8,4,5.7,6.5
						c-0.2,0.8-0.8,1.1-1.8,1.1h-6.4L521.4,54.7L521.4,54.7z M572.5,48.3c-0.4,0.6-1.3,1.3-2.8,1.5v14.8c0,5.7-1.4,8.9-11.2,9.7
						c-0.2-2.7-0.5-4.8-1.5-6.1c-1-1.2-2.3-2.2-5.7-2.8v-0.9c0,0,6.2,0.4,7.9,0.4c1,0,1.3-0.5,1.3-1.3v-3.4c-0.5,3-3.6,4.6-6.4,2
						c0-1.5-0.3-3.2-0.6-4.8c-2.4,1.6-5.6,3.6-10,6c-0.4,1-1.2,1.5-2,1.6l-3.5-7.6v14.5c0,0.6-2.7,2.5-7.3,2.5h-1.6V48.3h-1.9l-1-2
						h2.9v-4.2l9,4.2h6c0.2-2.5,0.5-4.8,0.6-6.7h-4.7l-2.2,3.6l-8.3-4.5c0.3-0.6,1-1.3,1.6-1.8V20.1l11,1c-0.1,0.8-0.8,1.4-2.6,1.7
						v1.8l0.3-0.4c3.1,0.1,5.7,0.4,7.8,0.9c0.8-1.9,1.5-3.9,1.9-5.7l8.9,3.6v-2.7l10.6,0.9c-0.1,0.8-0.5,1.3-2,1.5v17.7
						c0,0.3-1.4,1-3.2,1.4L572.5,48.3L572.5,48.3z M538,55.8c1.3,0,2.9,0,4.9-0.1c0.3-2.4,0.6-4.9,0.9-7.4H538V55.8z M558.6,24
						c-0.4,0.3-1,0.4-2,0.4c-0.7,1.2-1.5,2.4-2.5,3.5c5.5,4,3.2,9.7-1.9,8.2c-0.8-1.1-1.9-2.3-3.2-3.5c-2.5,1.8-5.5,3.4-8.9,4.4
						l-0.5-0.8v1.5h19L558.6,24L558.6,24z M539.6,36c2.4-1.8,4.3-4.1,6-6.6c-2-1.7-4.1-3.2-6-4.4V36z M551.2,49.8
						c6.3,2.5,8.9,6,9.3,8.8V48.3H550c-1.4,2.5-2.9,5-4.3,7.3c2.2-0.1,4.7-0.1,7.1-0.2c-0.6-2-1.5-3.8-2.4-5.3L551.2,49.8z
						 M554.5,39.6c-1,2-2.2,4.3-3.5,6.7h8.8l3.7-4.2c-1,0.2-2.2,0.3-3.3,0.3h-1.6v-2.9H554.5L554.5,39.6z"/>
					<path class="st0" d="M214.1,115.4c20.1,1.1,12.2,16.3,4.1,10.6c-0.6-3.7-2.7-7.7-4.6-10.3L214.1,115.4L214.1,115.4z
						 M235.1,112.1c-2.2,8.1-6.1,23-6.9,26.8c-0.5,2.4-1,5-0.9,6.8c0.2,4.1,3.4,6.3,3.2,12.9c-0.1,3.8-2.9,6.3-6.7,6.3
						c-1.8,0-3.8-0.9-4.4-3.7c1.5-7.5,1.2-14.6-0.5-15.8c-1.1-0.7-2.2-1.1-3.7-1.2V143h3.1c1.1,0,1.4,0,2.2-1.4
						c1.1-1.8,5.6-11.7,13.5-29.8L235.1,112.1L235.1,112.1z M219.5,99.2c21.2,1.6,12.9,17.6,4.3,11.5c-0.6-4-2.9-8.3-4.8-11.1
						C219,99.5,219.5,99.2,219.5,99.2z M267.8,126.1l9,6.8c-0.5,0.6-1.4,1.2-2.9,1.5v19.5c0,6-1.3,9.3-11.3,10.1
						c-0.1-2.9-0.4-5.1-1.3-6.4c-1-1.3-2.2-2.3-5.3-2.9v-0.9c0,0,5.8,0.4,7.1,0.4c1,0,1.3-0.5,1.3-1.3v-4.4h-17.6
						c-0.6,6.1-3.4,12.3-13.5,16.5l-0.5-0.6c4.6-5.5,4.7-12.8,4.7-19.9v-17.3l10.9,3.7h15.3L267.8,126.1L267.8,126.1z M272,117.4
						c0,0,5.5,4.3,8.7,7.1c-0.2,0.8-1,1.1-2,1.1h-45.1l-0.6-2h16.6v-6.7h-12.1l-0.6-2h12.7v-6.3h-14.1l-0.6-2h14.7v-8.6l12.1,1
						c-0.1,0.9-0.6,1.5-2.3,1.8v5.8h6.1l4.8-6.2c0,0,5.4,4.2,8.5,7.1c-0.1,0.8-0.9,1.1-2,1.1h-17.4v6.3h4.8l4.4-5.7c0,0,5,3.9,8,6.6
						c-0.2,0.8-1,1.1-2,1.1h-15.3v6.7h7.8L272,117.4L272,117.4z M264.3,146.4v-5.9h-17.4v3.8c0,0.7,0,1.4-0.1,2.1H264.3z
						 M246.9,132.8v5.8h17.4v-5.8H246.9z"/>
					<path class="st0" d="M344.8,116.4c0,0,5.7,4.8,9,7.9c-0.1,0.8-1,1.1-2,1.1H347v36.7c-0.1,0.6-3,2.7-8.1,2.7h-1.8v-39.3h-4.7
						v2.7c0,12.7-1.3,27.5-18.8,36.6l-0.6-0.7c8.8-10.3,9.7-23.4,9.7-36.2v-1.7c-0.3,0.1-0.6,0.1-1,0.1h-12.8v8.2h1.7l3.9-5.5
						c0,0,4.4,3.8,7,6.4c-0.2,0.8-0.9,1.1-1.9,1.1h-10.7v2.9l0.2-0.1c17.1,6.4,8.8,19.7,2.4,13.4c0.2-4.1-1-8.6-2.6-12v21.8
						c0,0.5-2.9,2.2-7.8,2.2h-1.8v-18.2c-2.7,4.6-6.6,9.7-11.5,13.2l-0.7-0.7c3.1-5.9,5.1-14.8,5.7-20.5l6.4,2.9v-4.8h-10.6l-0.6-2
						h11.1v-8.2h-12l-0.6-2h10.5c-0.8-0.3-1.7-0.8-2.5-1.6c0.2-3.9-0.9-8.3-2-11.6h-4.3l-0.6-2h13.3c-0.5-0.3-1-0.6-1.5-1
						c0-3.5-1.5-7.2-3.1-9.6l0.5-0.3c13.7,1.2,13.4,8.7,9.2,10.9h3.6l4-5.5c0,0,4.5,3.8,7.2,6.4c-0.2,0.8-0.9,1.1-1.9,1.1h-9.3
						l9.2,2.8c-0.3,0.8-1,1.4-2.6,1.3c-2.2,2.7-5.5,6.2-8.9,9.1h4.4l4.1-5.8c0,0,3.8,3.2,6.5,5.8v-20.3l9.5,2.9
						c4.1-2.7,8.3-6.2,10.6-8.8l10.1,8.1c-0.8,0.8-2.3,1-4.7,0.3c-3.9,1.3-9.9,2.4-15.8,3.2v13.7h7.4L344.8,116.4L344.8,116.4z
						 M294.1,111.2c11.1,4.6,9.6,11.9,5.6,13.2h5.7c1.1-4,2-9.2,2.6-13.2C308,111.2,294.1,111.2,294.1,111.2z"/>
					<path class="st0" d="M394.6,116.2c-2,0.7-4,1.4-6.2,2.1c-0.9,8.9-2.6,17.4-6.2,25c14.1,8.4,5,16.7-1.1,12.7
						c-1-1.7-2.2-3.4-3.6-5c-4.1,5.4-9.7,10.1-17.4,13.7l-0.7-0.6c6.2-5.1,10.5-11.3,13.4-18c-3.7-3.5-7.9-6.6-11.8-8.9
						c0.9-3.1,2-7.6,2.9-12.3l-1.2,0.3c-0.5,0.9-1.3,1.5-2.2,1.6l-1.6-9.9c1.7,0.1,3.9,0.1,6.6,0c1.3-7.4,2.5-14.6,2.8-18.5
						l11.8,1.8c-0.2,0.8-0.6,1.6-2.8,1.8c-0.6,3.6-1.7,8.9-2.9,14.6l4.4-0.2c0.1-2.6,0.1-5.1,0-7.6l12.8,2.2c-0.3,1.1-1,1.8-2.7,1.9
						l-0.2,3c2-0.1,3.9-0.3,5.9-0.5L394.6,116.2z M375.1,139.9c1.9-6,2.9-12.4,3.4-18.6c-1.8,0.5-3.6,0.9-5.5,1.4
						c-1.2,5.4-2.5,10.8-3.8,15.2C371.4,138.6,373.3,139.2,375.1,139.9z M418,123.2c0,0,5.5,4.6,8.7,7.6c-0.2,0.8-1,1.1-2,1.1h-14.6
						v21.8c0,6.6-1.4,10.1-11.8,11.1c-0.2-3.1-0.5-5.4-1.5-6.9c-1-1.5-2.4-2.5-5.8-3.1v-0.9c0,0,6.7,0.4,8.1,0.4
						c0.9,0,1.3-0.4,1.3-1.1v-21.3h-12.1l-0.6-2h12.7v-11.8l6.5,0.6c1.4-3.6,2.9-8.3,3.9-11.7h-20.5l-0.6-2h20.9l5.2-5l8.6,7.6
						c-0.6,0.6-1.3,0.8-2.9,1c-3.1,2.9-7.8,7.1-12.1,10.3l3.2,0.3c-0.1,1.1-0.8,1.7-2.5,1.9v8.8h2.9L418,123.2L418,123.2z"/>
					<path class="st0" d="M459.8,116.7c-0.6,0.7-1.4,0.9-3.1,1.1c-1.5,3.3-3.6,6.8-6,10.1c15,5.2,7.4,17.1,0.9,11.5
						c-0.1-2-0.6-4.3-1.3-6.3v28.7c0,0.6-2.9,2.8-7.6,2.8H441v-26.1c-2.8,2.4-5.8,4.6-9,6.3l-0.6-0.6c7.4-8.2,13.1-19.3,15.5-28.6
						h-13.4l-0.6-2h13.6l5-4.9L459.8,116.7L459.8,116.7z M439.6,98.6c19.8,2.6,9.2,16.6,1.6,9.7c0.1-3.4-1-6.9-2.1-9.4L439.6,98.6
						L439.6,98.6z M497.4,153.5c2,1.1,2.4,2.2,2.4,3.9c0,3.5-2.8,5.5-10.6,5.5h-3.8c-6.5,0-7.3-1.9-7.3-7.7v-17.4h-1.4
						c-1,10.6-4.3,20.6-22.5,27.1l-0.7-0.8c10.4-7.2,12.2-15.1,12.7-23c-1.3,0.4-2.7,0.6-4.1,0.6h-1.5v-41.4l10,3.9h13.4l4.3-4.8
						l8.8,6.8c-0.5,0.6-1.4,1.2-2.8,1.5v30.7c-0.1,0.5-3.7,2-6.7,2.3v12.2c0,0.8,0.1,1.1,1,1.1h3.3c0.6,0,0.9-0.2,1.3-0.8
						c0.6-1.1,1.8-4.4,3.2-8.5h0.7L497.4,153.5L497.4,153.5z M470.3,106.1v8.7h14.5v-8.7H470.3z M484.8,116.8h-14.5v8.1h14.5V116.8z
						 M470.3,135.8h14.5v-9h-14.5V135.8z"/>
					<path class="st0" d="M573.2,128.4c-0.6,0.6-1.3,0.8-2.7,0.9c-2.6,3.4-7,8.1-10.6,10.9l-0.6-0.4c0.6-3.6,1.1-8.7,1.4-12.5h-3.4
						v25.3c0,6.6-1.7,11.3-12.3,12.1c-0.1-3.4-0.6-5.9-1.8-7.4c-1.1-1.5-2.6-2.7-6.6-3.4v-0.8c0,0,7.7,0.4,9.3,0.4
						c1,0,1.4-0.4,1.4-1.2v-25.1h-7.6v2c-0.1,0.7-4.5,3.1-8,3.1h-1.6v-2.9h-2.9v9.5h2.4l4.4-6.3c0,0,5,4.3,7.9,7.1
						c-0.2,0.8-1,1.1-2,1.1h-12.7v7.8c4.6-0.7,9.5-1.5,14.4-2.3l0.1,0.8c-6,3.4-15.4,8-30,13.9c-0.4,1-1.2,1.6-2.1,1.8l-5-11.1
						c2.9-0.3,7.7-0.9,13.5-1.8v-9.1h-11.2l-0.6-2h11.8v-9.5h-2.9v2.9c0,0.8-3.6,2.7-7.1,2.7h-1.3v-34.2l8.8,3.5h13.6l4.3-4.7
						l7.4,5.7l-0.3-1h16.7l5.3-5.1l8.8,8.3c-0.6,0.6-1.3,0.8-2.8,0.9c-3,2.1-7.5,4.4-11.8,6.2c5.4,4.8,0.8,12.2-5.5,8.9
						c-1.4-4.4-5.1-9.2-8.5-12l0.5-0.4c4.5-0.1,8,0.6,10.4,1.7c1.4-2.2,2.7-4.5,3.7-6.5h-15.1c-0.4,0.6-1.3,1.2-2.8,1.5v17.4h20.2
						l4.9-4.9L573.2,128.4L573.2,128.4z M515.4,106.3v9.7h2.9v-9.7H515.4z M518.3,127.4v-9.5h-2.9v9.5H518.3z M527.2,106.3v9.7h2.9
						v-9.7H527.2z M530.1,127.4v-9.5h-2.9v9.5H530.1z"/>
				</g>
			</g>
		</g>
	</g>
</g>
</svg>
