<?xml version="1.0" encoding="utf-8"?>
<!-- Generator: Adobe Illustrator 27.0.0, SVG Export Plug-In . SVG Version: 6.00 Build 0)  -->
<svg version="1.1" id="圖層_1" xmlns="http://www.w3.org/2000/svg" xmlns:xlink="http://www.w3.org/1999/xlink" x="0px" y="0px"
	 viewBox="0 0 309.6 181.2" style="enable-background:new 0 0 309.6 181.2;" xml:space="preserve">
<style type="text/css">
	.st0{fill:#FFF100;}
</style>
<g>
	<g id="_圖層_2">
		<g id="_圖層_1-2">
			<g>
				<g>
					<path class="st0" d="M71,42.4c-0.8,6.2-2.6,12-5.5,17c3.1,2.2,6.8,4.1,11.2,5.4l-0.1,0.7c-4.1,1.5-6,4.4-6.7,9.2
						c-3.9-2.3-6.8-5.3-9.1-8.9c-3.4,3.6-7.7,6.6-13.3,9L46.8,74c5-4,8.5-8.8,10.8-14c-1.4-3.4-2.5-7.3-3.3-11.4
						c-1.8,2.5-3.7,4.5-6,6.2l-0.8-0.6c1-2.8,2-6.2,2.7-9.8h-3.6v28.2c-0.1,0.4-2.5,2.1-6.6,2.1h-1.5v-9.3
						c-3.4,1.5-7.6,3.2-12.9,5.2c-0.4,0.9-1.1,1.4-1.9,1.6l-4.1-8.4c1.4-0.1,3.4-0.1,5.8-0.3V44.4h-2.2C22.9,54,20.9,66.6,9.7,74.6
						l-0.6-0.5C13.6,64,13.7,51,13.7,40.7V24.8l4.8,1.6V9.7l9.4,3.6h3.8l4.1-4.6l7.9,5.8c-0.4,0.6-1,1-2.6,1.3v8.6
						c0,0.3-2.7,1.5-7.4,1.5h-1.7V24h-4.7v1c0,0.6-2.7,1.8-7.2,1.8h-0.4l5.1,1.8h37.5l2.7-3.3c-1.3,0.3-2.9,0.5-4.9,0.5h-1.7V24h-5
						v1c0,0.6-2.7,1.9-7.2,1.9h-1.6V9.7l9.5,3.6h4.1l4.1-4.6l7.9,5.8c-0.4,0.6-1,1-2.5,1.3v7.4c1.5,1,5.6,4.1,8.4,6.3
						c-0.2,0.8-1,1.1-2,1.1H51.9l11.5,2.2c-0.3,0.9-1,1.5-2.7,1.7c-0.6,2.1-1.3,4.1-2,5.9h4.6l4.5-6.2c0,0,5.1,4.2,8.1,7
						c-0.2,0.8-0.9,1.1-2,1.1L71,42.4L71,42.4z M31.7,42.5v-5.4h-7.1l-0.6-2h14l3.4-4.5H23.3v11.9L31.7,42.5L31.7,42.5z M27.1,15.2
						V22h4.7v-6.8C31.8,15.2,27.1,15.2,27.1,15.2z M38.6,44.4h-5.3v4.8h5.3C38.6,49.3,38.6,44.4,38.6,44.4z M38.6,51.2h-5.3v5h5.3
						C38.6,56.2,38.6,51.2,38.6,51.2z M38.6,62.6v-4.4h-5.3V63C33.3,63,38.6,62.6,38.6,62.6z M40.5,42.5l4.1-5.4h-4.1V42.5z
						 M44.9,37.1c0.8,0.7,3.4,2.9,5.7,4.9c0.6-3.7,0.8-7.6,0.9-11.4h-8.2c1.5,1.3,4.4,3.5,6.4,5.3c-0.2,0.8-1,1.1-2,1.1L44.9,37.1
						L44.9,37.1z M58.3,22.1v-6.8h-5v6.8H58.3z M57.9,42.4c-0.7,1.5-1.5,3-2.3,4.3c1.1,2.7,2.5,5.1,4.1,7.2c1-3.7,1.5-7.5,1.8-11.5
						L57.9,42.4L57.9,42.4z"/>
					<path class="st0" d="M122.1,55.7c-0.5,0.9-1.6,1.4-3.9,1.2c-3.6,2.7-9.8,5.1-16.5,6.4c5.2,0.8,12.1,1.1,21.5,1.1
						c8.3,0,14.9-0.1,23-0.6v0.8c-4,0.8-6.3,4.7-6.8,8.5h-19.9c-16.5,0-22.2-2.8-27.8-10c-1.1-1.5-1.9-1.3-2.5,0.1
						c-0.9,2.2-1.8,5.4-3.1,9.1c0.2,0.7-0.1,1.1-0.6,1.4L79,64.1c3-1.3,7.3-3.7,9.5-4.6c2.2-4.3,3.9-10.3,4.6-15.4h-2.7l-2.5,2.6
						l-7-4.6c0.6-0.5,1.6-1,2.6-1.4c1.8-3.3,4.1-8.2,5.5-11.6h-7.8l-0.6-2h8.3l3.7-3.7l7.4,6.7c-0.6,0.6-1.9,1-3.4,1.1
						c-1.4,3-3.7,7.6-5.4,10.9h1.6l4.3-4.3l7.5,5.9c-0.4,0.6-1.1,0.8-2.5,1c-1.9,5-5.8,10.5-10.8,14.6c0.5,0.1,0.8,0.3,1.4,0.7
						c2.1,1.4,4.8,2.4,8.5,3l-0.2-0.5c4.2-3,8.1-8.1,9.9-11.9h-9.5l-0.6-2h9.1v-7.2h-5.3l-0.6-2h5.9v-7.2l10.8,0.9
						c-0.1,0.8-0.5,1.3-2,1.6v4.6h5v-7.2l10.8,0.9c-0.1,0.8-0.5,1.4-2,1.6v3.6l2.8-3.4c0,0,4.1,3.1,6.7,5.3
						c-0.1,0.8-0.8,1.1-1.8,1.1h-7.6v7.1l4.6-5.7c0,0,5.3,3.9,8.5,6.6c-0.2,0.8-1,1.1-2,1.1h-32.1L122.1,55.7L122.1,55.7z M82.5,9.5
						c20.8,1.8,12.4,17.6,4.1,11.4c-0.3-4-2.5-8.3-4.6-11.1L82.5,9.5L82.5,9.5z M121,27.5c-3.1,1.5-9.1,4.1-15.7,6.7
						c-0.6,0.8-1.3,1.4-2,1.7l-3.4-7.6c1.6-1,1.8-1.7,1.8-3.1V8.7l9.1,3.4h2.4l3.3-3.4l6.4,4.8V8.8l8.8,3.4h1.8l3.4-3.6l7.2,5.3
						c-0.4,0.4-1.2,0.9-2.3,1.2v6.5c-0.1,0.6-3.8,2.1-6.2,2.1h-1.3v-1.8h-3.4V25c0,0.8,0.2,1.1,1.3,1.1h2.8c0.9,0,2,0,2.5-0.1
						c0.4,0,1.3-0.1,1.7-0.1c0.5-0.1,1.3-0.2,1.8-0.4h0.6l0.4,0.1c2,0.9,2.6,1.5,2.6,2.8c0,2.7-2.8,3.7-10.6,3.7h-4.3
						c-5.8,0-6.7-1.5-6.7-6V14.3c-0.4,0.3-1.1,0.6-1.8,0.7v6.6c-0.1,0.6-3.7,2.1-6,2.1h-1.3v-1.8h-4v5.3c3.4-0.1,7.3-0.4,11.2-0.6
						L121,27.5L121,27.5z M113.7,19.9v-5.8h-4v5.8H113.7z M118.5,48.8h5v-7.2h-5V48.8z M123.4,51.6c32.8,2,16.1,17.2,9.5,10
						c-1.5-2.7-4.8-6.5-9.9-9.3C123,52.4,123.4,51.6,123.4,51.6z M130.7,14.1v5.8h3.4v-5.8H130.7z"/>
					<path class="st0" d="M176.5,38.8c-0.4,0.8-1.1,1-2.6,1.3c-1,6.8-2.7,13.3-6,19.2c7.7,3.5,18.1,4.3,32.3,4.3
						c3.4,0,11.6,0,15.9-0.1v0.8c-3.8,0.8-5.6,4.5-5.8,8.4h-10.8c-16.4,0-27.6-1.6-35.3-8.1c-3.5,4.1-8.2,7.6-14.5,10.2l-0.5-0.8
						c5-3.7,8.4-8.5,10.8-13.9c-3.4-4.4-5.9-10.3-7.8-18.1l0.6-0.3c2.2,6,5.2,10.4,8.9,13.5c1.6-5.2,2.5-10.8,2.9-16.6h-2.3l-2.7,3
						l-8.3-4.9c0.6-0.6,1.5-1.1,2.5-1.6c2.5-4.7,6-12.6,7.8-17.5h-11.2l-0.6-2h11.6l4-4l7.9,7.2c-0.5,0.6-1.5,0.9-2.7,1.1
						c-1.8,4.3-5.3,11.9-7.6,16.8h1.1l4.4-4.7L176.5,38.8L176.5,38.8z M211.1,19c0,0,4.1,4.3,6.2,7c-0.2,0.8-0.9,1.1-1.9,1.1h-8v9.5
						c-0.1,0.3-1.3,0.9-3.1,1.3c1.5,1.3,5.1,4.1,7.4,6.2c-0.2,0.8-0.9,1.1-2,1.1h-15.6v7.3h6.1l5-6.4c0,0,5.8,4.3,9.2,7.2
						c-0.2,0.8-1.1,1.1-2,1.1h-18.2v6c0,0.7-4,2.4-7.7,2.4h-1.9v-8.4h-12.8l-0.6-2h13.3v-7.3h-9.8l-0.6-2h10.4v-7.2h-9.1l-0.6-2h9.8
						V27h-14l-0.6-2h14.5v-7h-10.2l-0.6-2h10.8V8.2l12.2,1.1c-0.1,1.1-0.6,1.8-2.6,2v4.8h3.4l4.1-4.4l8.5,6.4
						c-0.4,0.5-1.3,1.1-2.7,1.4V25h0.1L211.1,19L211.1,19z M194.1,25.1h4.1v-6.9h-4.1C194.1,18.1,194.1,25.1,194.1,25.1z M198.2,27
						h-4.1v7.1h4.1V27z M202.9,38.2c-1.1,0.3-2.2,0.4-3.2,0.4h-1.5v-2.5h-4.1v7.2h5.1L202.9,38.2z"/>
					<path class="st0" d="M280.9,19c0,0,4.4,4.4,6.5,7.2c-0.2,0.8-0.9,1.1-1.8,1.1h-8.1v36.7c0,6.4-1.6,9.8-12.6,10.7
						c-0.3-2.9-0.7-5.1-2.1-6.4c-1.3-1.4-2.9-2.4-7.1-3.1v-0.9c0,0,8.6,0.6,10.4,0.6c1.1,0,1.5-0.4,1.5-1.3V42.2
						c-6,7.9-14.1,14.5-23.8,19.6l-0.6-0.7c9.6-8.6,17.3-22,21-33.7h-11.3l-0.3-1.1c-0.3,0.7-1,1-1.9,1h-9.9v5.6
						c18.9,4.8,9.8,19.1,2.5,12.3c0.1-3.7-1-7.7-2.5-10.8v37.6c0,0.8-4.1,2.7-7.9,2.7h-2V47.9c-3.1,4.1-6.9,7.7-11.2,10.8l-0.8-0.7
						c6-8.1,9.6-19.6,11.4-30.7h-9.3l-0.6-2h10.4V8.3l12.4,1.2c-0.1,1.1-0.6,1.8-2.6,2v13.8h0.2l4.1-6c0,0,4.7,4.1,7.4,6.8l-0.2-0.7
						h15.2V8.1L280,9.3c-0.1,1-0.8,1.7-2.6,2v13.6L280.9,19L280.9,19z"/>
					<path class="st0" d="M31,113.9c-0.3,0.6-0.8,1.1-2.2,1.3v41c-0.1,0.7-4.2,2.8-8.1,2.8h-1.9v-37.4c-3.1,3.2-6.4,5.8-10.1,8.2
						L8,129.2c6-8.8,11.9-23.1,14.6-37l14,4.3c-0.3,0.9-1.2,1.5-2.9,1.5c-2.2,5.3-4.6,10-7.4,14.1L31,113.9L31,113.9z M73.5,148.5
						c2.9,4.8,3.2,7.4,1.8,8.8c-3.8,3.8-10.5,0.6-14-2.4c-10.7-9.3-15.2-22-17-36.6l-13,1.5l-0.8-1.8l13.6-1.6
						c-0.8-7.2-1-14.9-1-22.9L55.8,95c-0.1,0.9-0.8,1.8-2.5,2c-0.1,6.2-0.1,12.4,0.5,18.2l6-0.7l4.8-7.5c0,0,6.7,3.7,10.9,6.4
						c-0.1,0.8-0.9,1.3-1.9,1.5l-19.6,2.3c1.3,11.6,4.8,21.6,13.2,28c1.1,1,1.6,1,2.4-0.1c1.3-1.9,3.7-6,5.2-9.1l0.6,0.1L73.5,148.5
						L73.5,148.5z M57.7,94.6c20.8-0.1,14.2,16,5.6,10.9c-0.9-3.8-3.7-7.9-6.1-10.4L57.7,94.6L57.7,94.6z"/>
					<path class="st0" d="M101.2,113.9c-0.3,0.6-0.8,1.1-2.2,1.3v41c-0.1,0.7-4.2,2.8-8.1,2.8H89v-37.4c-3.1,3.2-6.4,5.8-10.1,8.2
						l-0.7-0.6c6-8.8,11.9-23.1,14.6-37l14,4.3c-0.3,0.9-1.2,1.5-2.9,1.5c-2.2,5.3-4.6,10-7.4,14.1L101.2,113.9L101.2,113.9z
						 M143.7,148.5c2.9,4.8,3.2,7.4,1.8,8.8c-3.8,3.8-10.5,0.6-14-2.4c-10.7-9.3-15.2-22-17.1-36.6l-13.1,1.5l-0.8-1.8l13.6-1.6
						c-0.8-7.2-1.1-14.9-1.1-22.9l12.8,1.5c-0.1,0.9-0.8,1.8-2.5,2c-0.1,6.2-0.1,12.4,0.5,18.2l6-0.7l4.8-7.5c0,0,6.7,3.7,10.9,6.4
						c-0.1,0.8-0.9,1.3-1.9,1.5l-19.6,2.3c1.3,11.6,4.8,21.6,13.2,28c1.1,1,1.6,1,2.4-0.1c1.3-1.9,3.6-6,5.2-9.1l0.6,0.1
						L143.7,148.5L143.7,148.5z M127.9,94.6c20.8-0.1,14.2,16,5.6,10.9c-0.9-3.8-3.6-7.9-6.1-10.4L127.9,94.6L127.9,94.6z"/>
					<path class="st0" d="M150.1,108.5c19.5,2.8,11.2,17.5,3.5,11.4c-0.2-3.9-2-8.3-4.1-11.1L150.1,108.5L150.1,108.5z M170,107.4
						c-2.2,7.8-5.8,22.1-6.6,25.8c-0.5,2.3-1,4.8-0.9,6.7c0.2,4,3.4,6.3,3.2,12.8c-0.1,3.7-2.9,6.2-6.6,6.2c-1.7,0-3.6-1-4.4-3.7
						c1.5-7.4,1.2-14.5-0.5-15.6c-1-0.7-2.1-1.1-3.6-1.2V137h3.2c1.1,0,1.4,0,2.2-1.4c1-1.7,5.4-11.2,13-28.5L170,107.4L170,107.4z
						 M154.9,93.1c20.4,2.9,12.3,18.1,4.2,12.1c-0.6-4.1-2.8-8.6-4.8-11.7L154.9,93.1z M216.6,120.3c-0.4,0.5-1.1,1-2.3,1.3v27
						c0,6.1-1.3,9.5-10.7,10.3c-0.1-2.9-0.4-5.2-1.3-6.5c-0.8-1.4-2-2.3-4.9-2.9v-0.9c0,0,5.3,0.3,6.5,0.3c1,0,1.3-0.4,1.3-1.3v-6.9
						c-0.6,1.3-0.9,2.8-1.1,4.2c-1.8-2-3.3-5.9-3.9-9c-1,2.5-2.8,5.3-5.1,7.5v13c0,0.5-2.6,2.2-7,2.2h-1.6v-17.3
						c-0.4,1.1-0.7,2.4-0.8,3.5c-1.5-1.9-2.7-5.6-3.2-8.7c-0.8,2.8-2.7,5.8-5,7.9v12c0,1-3.6,3-7.3,3h-1.3v-44.3l9.2,3.7h8.5v-7.7
						h-1.2v2.3c0,0.6-3.9,1.9-7.4,1.9h-1.5v-12.5h-7.8l-0.6-2h8.4v-8.3l11.5,1c-0.1,1-0.7,1.7-2.6,2v5.3h11.1v-8.3l11.6,1
						c-0.1,1-0.6,1.7-2.6,2v5.4h0.2l3.9-5.8c0,0,4.4,4,6.9,6.7c-0.2,0.8-0.9,1.1-1.9,1.1h-9.1v9.9c0,0.6-3.9,1.9-7.4,1.9h-1.5v-3.5
						h-1.3v7.7h9.4l3.9-4.3L216.6,120.3L216.6,120.3z M182.7,128.6c0.5,3.2,1.8,5.5,3.7,7.4v-15.6h-9.1v21.7
						c1.8-3.7,3.3-9.1,3.7-13.5v-0.8h-3.2l-0.4-2h2.7l1.6-2.5l4.1,3.1c-0.5,0.6-1.6,1.2-3.2,1.4V128.6z M196.3,108.8v-6.3h-11.1v6.3
						H196.3z M200.4,128.5c0.7,3.2,2.3,5.5,4.7,7.5v-15.6h-10v5.4h2.7l1.6-2.5l4.4,3.2c-0.6,0.6-1.8,1.2-3.4,1.4L200.4,128.5
						L200.4,128.5z M198.7,127.8h-3.6v12.7c1.6-3.6,3.1-8.3,3.6-12.1C198.7,128.4,198.7,127.8,198.7,127.8z"/>
					<path class="st0" d="M277,105.7c0,0,5.5,4,8.8,6.8c-0.2,0.8-1,1.1-2,1.1h-14.7l8.6,6.4c-0.4,0.6-1.3,1.2-2.8,1.5v14.3
						c-0.1,0.6-4.9,2.5-8.2,2.5h-1.8v-2.7H241v0.7c0,0.8-4.4,2.9-8.4,2.9h-1.4c3.2,8.3,0.5,14.2-3.4,15.9c-2.8,1.3-6.3,0.1-7.2-2.9
						c-0.7-2.9,1.1-5.1,3.6-6.1c2.7-1.1,5.8-4,5.8-7.6h0.8l0.3,0.7V114l10.3,3.9h22.7l4-4.3h-46.8l-0.6-2h20.9
						c-0.6-0.2-1.2-0.6-1.8-1c-0.1-3-1.5-6.2-2.9-8.1l0.5-0.3c13.8,0.1,12.8,7.7,8.4,9.5h11.7c0.6-2.8,1.3-6.6,1.8-9.5h-33.5l-0.6-2
						h24.6c-1-3-3.4-6-5.5-7.7l0.4-0.4c13.5-2.1,15.1,5,11.9,8.1H268l4.8-6c0,0,5.5,4,8.8,6.8c-0.2,0.8-1,1.1-2,1.1h-16.6l8.7,2.3
						c-0.2,0.8-1,1.5-2.6,1.4c-2.4,1.6-5.9,3.9-9.3,5.8h12.2L277,105.7L277,105.7z M269.2,148.3c2.6,0.9,3.3,2,3.3,3.6
						c0,3.9-3.6,5.3-17.3,5.3h-8.6c-8.3,0-10.2-1.3-10.2-7.3v-11.2l11.5,0.8c-0.1,1-0.8,1.5-2.2,1.8v6.7c0,0.8,0.2,1.1,2.5,1.1h8.1
						c2.5,0,5,0,6.1-0.1s1.6-0.3,2.2-1c0.9-1.1,2-3.4,3.6-7.1h0.7L269.2,148.3L269.2,148.3z M241,119.9v5.9h23.9v-5.9H241z
						 M264.9,133.7v-5.9H241v5.9H264.9z M249.2,136.8c18.7,0.8,11.4,15.2,3.9,9.8c-0.4-3.4-2.4-7.2-4.4-9.5L249.2,136.8z
						 M271.2,138.6c21.5,3.7,13.7,20.5,5.4,14c-0.3-4.8-2.9-10.2-6-13.6L271.2,138.6z"/>
				</g>
			</g>
		</g>
	</g>
</g>
</svg>
