<?xml version="1.0" encoding="utf-8"?>
<!-- Generator: Adobe Illustrator 27.0.0, SVG Export Plug-In . SVG Version: 6.00 Build 0)  -->
<svg version="1.1" id="圖層_1" xmlns="http://www.w3.org/2000/svg" xmlns:xlink="http://www.w3.org/1999/xlink" x="0px" y="0px"
	 viewBox="0 0 526.1 161" style="enable-background:new 0 0 526.1 161;" xml:space="preserve">
<style type="text/css">
	.st0{fill:#FFF100;}
</style>
<g>
	<g id="_圖層_2">
		<g id="_圖層_1-2">
			<g>
				<g>
					<path class="st0" d="M36.2,35.3c-1,1.3-2.9,1.6-4.5-0.1c0.1-2.5-0.5-5.5-1.5-7.9V71c0,0.7-3.3,2.2-6.3,2.2h-1.6V39
						c-0.2,1.2-0.5,2.1-1,2.9c-1.2,2.1-4.3,2.3-5.6,0.4c-1.1-1.8-0.4-3.7,1.2-5c1.3-1.8,2.9-6.4,2.4-10.4h0.9
						c1.1,2.8,1.8,5.3,2.1,7.5V15.8l10.1,1c-0.1,0.9-0.5,1.5-2.2,1.8v7.1l0.1-0.1c3.1,1.5,5,3.2,5.9,4.8V25l7.4,2.9h17l3.1-3.3H32.9
						l-0.5-1.7h16.6c-0.2-0.1-0.4-0.2-0.5-0.4c0-2.7-1.3-5.5-2.7-7.2l0.4-0.3c10.8,0.2,11.1,5.7,8.2,7.9h7.3l4.1-5.6
						c0,0,4.6,3.8,7.3,6.3c-0.2,0.7-0.8,1-1.7,1H64l6.5,4.8c-0.3,0.4-1.1,0.9-2.2,1.1v7.2c-0.1,0.4-3.7,1.6-5.9,1.6h-1.3v-1.2h-18
						c-0.4,0.6-3.3,1.9-6,1.9h-1C36.2,40.1,36.2,35.3,36.2,35.3z M70.7,57.2c-0.3,0.5-0.9,0.8-2.3,0.4c-1.5,0.7-4.2,1.6-6.7,2.5
						c3.4,2.1,7.3,3.7,11.2,4.5l-0.1,0.7c-2.8,0.7-4.8,3.1-5.6,6.9c-6.8-3.7-10.9-9.4-13.4-17.8c-1.6,0.9-3.4,1.8-5.3,2.6v6.3
						c2.4-0.5,5-1.1,7.6-1.7l0.2,0.7c-2.4,1.8-7.2,5.3-12.6,8.8c-0.6,1.3-1.5,2-2.4,2.4l-3.5-7.5c2.7-1.3,3.1-1.9,3.1-3v-3.5
						c-3.1,0.8-6.4,1.4-9.9,1.8l-0.4-0.6c7.6-2.7,14.1-7.3,17.5-11.5v-1.8c-2.8,1.8-6.3,4.1-10.8,6.7c-0.2,0.8-0.8,1.4-1.5,1.6
						l-3-7.3c2-0.3,5.6-1,9.7-1.9c-2-1.6-5.7-3.9-8.3-4.9l0.4-0.7c10.7-3.1,13.2,2.7,10.8,5l2.7-0.6v-6.1l9.4,0.8
						c-0.1,0.6-0.4,1.2-1.8,1.3v3.1h1.7c3.3-1.8,7.6-4.4,9.4-5.8l3.6,6.3c-0.4,0.3-1,0.2-1.8-0.4c-1,0.2-2.6,0.4-4.5,0.6
						c11.1,2.4,6.9,9.2,2.8,7.6c-2.4-1.8-7.2-4.2-11.2-6v2.3c0,0.2-0.8,0.6-2,1l5.9,1.8c-0.4,0.8-1.3,1.2-3.5,1.2
						c-0.4,0.3-0.8,0.5-1.3,0.8c1.2,1.6,2.5,3.1,4.2,4.5c1.4-2.3,2.8-4.9,3.6-6.5L70.7,57.2L70.7,57.2z M43.3,29.5v7h2.1v-7H43.3z
						 M51.4,29.5v7h1.9v-7H51.4z M59.4,29.5v7h1.8v-7H59.4z"/>
					<path class="st0" d="M125,24c0,0,5.4,4.3,8.7,7.1c-0.2,0.7-0.9,1-1.8,1h-22.1v14.6h6.5l4.1-4.6l8.5,6.5
						c-0.4,0.5-1.3,1.2-2.7,1.5v20.6c-0.1,0.5-4.7,2.1-7.7,2.1h-1.6v-5.3H93.6v2.8c0,0.9-4.1,3-7.9,3h-1.3V43l9.8,3.7h6.2V32.1H77.8
						l-0.5-1.7h23V15.8l11.6,0.9c-0.1,0.9-0.5,1.5-2.2,1.8v11.9h10.4L125,24L125,24z M93.6,48.4v17.3h23.3V48.4H93.6z"/>
					<path class="st0" d="M188.8,36.1c0,0,3.3,3.3,5.1,5.4c-0.2,0.7-0.7,1-1.6,1h-5.6V64c0,5.6-1.1,8.5-9.6,9.2
						c-0.1-2.6-0.4-4.5-1.1-5.8c-0.8-1.2-1.8-2.1-4.4-2.6v-0.8c0,0,4.9,0.3,5.9,0.3c0.9,0,1.1-0.2,1.1-0.8v-21h-9.2l-0.2-0.6
						c-0.4,0.5-3,1.6-5.3,1.9c1.3,1,3.3,2.5,4.8,3.9c-0.2,0.7-0.8,1-1.6,1H150l-0.5-1.7h10l2.5-3.1h-0.7v-2.1h-12.5v2.1
						c0,3-0.1,6.3-0.5,9.9h13l3.3-4c0,0,3.7,2.8,6,4.8c-0.2,0.7-0.8,1-1.6,1H162v16.4c-0.1,0.3-2.2,1.4-5.9,1.4h-1.3V60.9
						c-0.2,0.1-0.5,0.1-0.7,0.1c-2.3,4.8-5.6,8.5-9.3,10.8l-0.8-0.5c1.9-3.4,3.5-8.7,4.2-13.9l6.6,1.9v-3.8h-6.4l-0.2-0.8
						c-1.1,6.7-3.8,13.7-10.5,18.9l-0.5-0.4c4-8.8,4.1-20,4.1-29.2V29.3l8.9,3.1h10.8l3.4-3.7l7.2,5.3c-0.3,0.4-1,1-2.2,1.2v5.7h9.4
						V29.9l10.3,0.9c-0.1,0.9-0.7,1.5-2.1,1.6v7.1L188.8,36.1L188.8,36.1z M137.6,22.4h9.6l-0.7-6.3l10.5,0.7c0,0.7-0.5,1.3-1.7,1.7
						l0.5,3.9h1l3.6-5.1c0,0,4.1,3.5,6.4,5.8c-0.1,0.7-0.8,1-1.6,1h-9l0.5,4c-1.2,1.7-4.5,2.4-8.4,2.2l-0.7-6.2H138L137.6,22.4
						L137.6,22.4z M161.3,40.1v-6h-12.5v6H161.3z M163.1,57.7c14,4.7,6.2,15.2,1,9.7c0.4-3.2-0.5-6.9-1.6-9.4
						C162.5,57.9,163.1,57.7,163.1,57.7z M167.1,22.4h5.6l0.9-6.3l10.4,1.6c-0.1,0.7-0.6,1.5-2.3,1.6l-0.5,3h2.2l3.6-5.1
						c0,0,4.1,3.5,6.4,5.8c-0.1,0.7-0.8,1-1.6,1h-10.8l-0.5,3.6c-1.6,1.2-5.1,1.8-8.6,1.1l0.7-4.7h-4.8L167.1,22.4L167.1,22.4z
						 M169.3,45.3c14.6,5.7,7.5,17,2,11.6c0.2-3.9-1.1-8.2-2.6-11.3L169.3,45.3z"/>
					<path class="st0" d="M203.3,55.4c2.7,6.3,2.7,11.2,0.8,13.7c-1.4,1.8-5.1,1.6-6.3-0.9c-1-2.2,0.1-4.3,1.9-5.6
						c1.3-1.3,3.2-4.6,2.8-7.3L203.3,55.4L203.3,55.4z M248.3,32.4c0,0,4.2,3.8,6.5,6.2c-0.2,0.7-0.8,1-1.7,1h-13.7V64
						c0,4.8-1.1,7.9-8.9,8.5c-0.1-2.2-0.2-3.9-0.9-4.9c-0.6-1-1.5-1.8-4-2.2v-0.8c0,0,4.1,0.2,5.1,0.2c0.9,0,1-0.4,1-1V39.6h-12.3
						l-0.5-1.7h16.3l1.5-4.3H229l-2.8,3.2l-5.9-3.8c-0.4,0.4-1.1,0.7-2.2,0.4c-3.2,4.2-9.4,10-14.8,13.9c2.8-0.1,6.4-0.3,10.2-0.6
						c-0.2-2.1-0.6-4-1.1-5.7l0.7-0.2c13.7,6.5,5.5,16.9,0.4,11.1c0.1-0.9,0.2-1.8,0.2-2.8c-3.1,1.6-7.3,3.5-11.9,5.4
						c-0.4,0.5-1,0.8-1.4,1l-2.6-8.2c0,0,1.6-0.3,2.2-0.8c2.3-1.8,5.1-5.4,7.5-9.3c-1.4,0.7-2.8,1.3-4.4,2c-0.5,0.8-1,1.3-1.7,1.6
						l-3.4-8c0,0,1.3-0.4,1.9-0.8c2.5-2.7,5.9-11.4,6.8-16l9.3,4.5c-0.2,0.5-0.9,1-2,0.9c-2.6,3.7-7.1,8.5-11,11.6
						c2,0,4.4,0,6.8-0.1c1-2,1.9-3.9,2.4-5.5l7,4.7c0.5-0.4,1.4-0.9,2.2-1.3c2-4.4,4.7-11.6,5.6-14.8l10,1.6
						c-0.2,0.8-0.9,1.6-2.5,1.6l-1.2,3.1h6.8l3.3-3.6l7.1,5.7c-0.5,0.5-1.1,0.7-2.4,0.9L243.5,38h1.2L248.3,32.4L248.3,32.4z
						 M206.8,54.8c10.9,7.6,3.7,16.8-0.5,11.4c0.7-3.7,0.4-8-0.2-11.2L206.8,54.8L206.8,54.8z M231.1,53.5c-1.3,2.4-3.6,6.2-6.9,11
						c-0.1,0.8-0.5,1.6-1.3,1.9l-3.9-5.8c0.4,3.6-3,5.9-5.7,3c0.4-3.4-0.6-7.4-1.8-10l0.7-0.3c3.1,1.5,5,3.2,6,4.8
						c2.6-0.9,7.8-3,12.8-5.1L231.1,53.5L231.1,53.5z M221.6,42.2c15,2.6,7.9,13.9,2.1,8.8c0.1-3-1.1-6.4-2.7-8.5L221.6,42.2
						L221.6,42.2z M237.2,32l2.8-7.9h-7.5c-1.1,2.7-2.3,5.6-3.3,7.9H237.2z M240.8,54c19.7,1,13.2,16.6,6.1,11.1
						c-1.3-3.2-3.7-7.6-6.5-10.7L240.8,54L240.8,54z M240.8,51.8c1.7-3.1,4.1-8.6,5.2-11.5l8.5,6c-0.3,0.5-0.9,0.7-2.3,0.4
						c-2.4,1.6-7.7,4-10.9,5.6L240.8,51.8L240.8,51.8z"/>
					<path class="st0" d="M327.6,63c2.2,0.9,2.7,1.9,2.7,3.6c0,3.4-2.8,5.1-13.2,5.1h-5.9c-6.8,0-8.4-1.4-8.4-7.1V46.8h-2.5
						c-1.6,13.7-8.8,22.7-27.1,26.5l-0.2-0.7c13-5.9,17.2-14.5,17.9-25.8h-2.3v1.8c-0.1,0.6-2.6,2.7-7.2,2.7l-1.3,0.1V18.9l7.9,2.5
						c2.2-2.1,4.5-4.5,5.8-6.1l8.2,6.9c-0.9,0.7-2.2,0.7-4.1,0.1c-2.4,0.4-5.9,1-9.4,1.3v9.9h1.5l3.5-4.7c0,0,3.9,3.2,6.2,5.4
						c-0.1,0.7-0.8,1-1.6,1h-9.5v9.8h25.3v-9.8h-9.3l-0.5-1.7h9.9v-10h-10.3l-0.5-1.7h10.2l3.9-4.3l7.9,6c-0.4,0.5-1.1,1.1-2.4,1.3
						v23.6c-0.1,0.5-4.4,2.1-7.3,2.1h-1.5v-3.9h-2.5v15.6c0,0.9,0.3,1.2,1.9,1.2h4.8c1.5,0,2.9,0,3.7-0.1c0.9-0.1,1.2-0.2,1.7-0.9
						c0.8-1.2,1.9-4,3.3-7.9h0.6L327.6,63L327.6,63z"/>
					<path class="st0" d="M377.1,65.2l5-6.3c0,0,5.6,4.2,9,7.1c-0.2,0.7-0.9,1-1.8,1h-55.4l-0.5-1.7L377.1,65.2L377.1,65.2z
						 M374,23.2l4.9-6.2c0,0,5.6,4.2,8.9,7c-0.2,0.7-0.9,1-1.8,1h-48.9l-0.5-1.7H374L374,23.2z M370,43.2l4.8-6c0,0,5.3,4,8.6,6.7
						c-0.2,0.7-0.9,1-1.8,1H341l-0.5-1.7H370L370,43.2z"/>
					<path class="st0" d="M421.5,23.4c-0.3,0.7-1.1,1.2-2.6,1.1C413,36.6,405,44.1,395.1,49l-0.5-0.5c6-6.8,12.3-17.9,15.2-29.5
						L421.5,23.4L421.5,23.4z M429.8,49.1c26.2,9.2,18.2,30.5,8.4,22.1c-0.2-2.4-0.9-4.9-1.6-7.3c-7.6,2.5-18,5.3-31,7.9
						c-0.7,0.9-1.5,1.5-2.4,1.8l-3.6-11.2c0,0,2.2-0.5,3-1.2c4.5-3.5,11.5-16.6,13.4-24.2l12.3,4.4c-0.3,0.7-1,1.2-2.4,1.3
						c-4.3,6.7-12.7,15.1-19.8,20.1c7.4-0.1,18.5-0.4,29.6-1.3c-1.6-4.3-3.9-8.6-6.5-12.1L429.8,49.1L429.8,49.1z M436.6,19.6
						c-0.9,1-3.2,1.6-6,1.8c2.9,8.5,10.5,15.5,20.6,18.5l-0.1,0.7c-3.8,1.5-6.8,5.2-7.7,8.9c-8-6.2-12.5-15.9-14.1-28.6h-7.4
						l-0.5-1.7h6.2l2.5-4.1L436.6,19.6L436.6,19.6z"/>
					<path class="st0" d="M510.8,22.4c-0.4,0.5-1.1,1-2.4,1.3v46.4c-0.1,0.6-4.1,2.7-7.4,2.7h-1.4v-5h-34.3v2.1
						c0,1.1-3.5,3.2-7.1,3.2h-1.5V17l9.3,3.7h33l4-4.5L510.8,22.4L510.8,22.4z M465.3,66.1h9.4l-3.3-5.3c2-1.3,2.3-1.8,2.3-2.8v-1.9
						c-2.4,1-5,1.9-7.7,2.5l-0.5-0.9c4.5-2.1,8.3-5.2,10.9-8.5h-0.5c-0.7,0.7-3.5,1.8-5.8,1.8h-1V37.3l7.3,2.8h12.4l3-3.1l6.2,4.5
						c-0.2,0.4-0.8,0.7-1.6,0.9v6.2c0,0.2-0.5,0.4-1.1,0.7l4.3,3.8V36.3c-0.3,0.2-0.6,0.2-1,0.2H466l-0.5-1.7h13.2v-4.3h-10.2
						l-0.5-1.7h10.6v-5.4l9.4,0.8c-0.1,0.7-0.4,1.1-1.7,1.4v3.2h2.7l3.3-3.9c0,0,3.7,2.7,6,4.7c-0.1,0.7-0.7,1-1.6,1h-10.4v4.3h4.2
						l3.4-4.2c0,0,3.3,2.4,5.7,4.4V22.4h-34.3L465.3,66.1L465.3,66.1z M499.6,66.1V53.3c-0.3,0.4-0.9,0.5-2,0.1
						c-1.1,0.4-2.7,0.8-4.4,1.3c9.7,5,5.8,12,1.3,9.4c-1.5-2.8-5.9-7.9-11.8-11.8l0.4-0.8c2.7,0.5,5.1,1.2,7,1.9
						c1-1,1.9-2.2,2.7-3.3c-0.8,0.2-1.6,0.3-2.3,0.3h-1.3v-1.2h-4.7c-1.1,1.3-2.5,2.4-4.1,3.5v5.9c2.1-0.5,4.4-1.2,6.6-1.9l0.2,0.7
						c-2.1,1.6-6.6,5-11.4,8.2c-0.2,0.2-0.4,0.4-0.6,0.6L499.6,66.1L499.6,66.1z M489.3,41.8h-13.2v5.7h13.2V41.8z"/>
					<path class="st0" d="M15.9,103.2c18.8-0.1,12.6,14.6,4.8,9.9c-0.7-3.5-3-7.2-5.3-9.6L15.9,103.2L15.9,103.2z M33.4,108.2
						c-1.7,5-4.7,14.1-5.3,16.6c-0.4,1.7-0.9,3.8-0.9,5.2c0.2,3.4,3,5.1,2.8,10.5c-0.1,3.3-2.7,5.4-6.1,5.4c-1.6,0-3.3-0.9-3.9-3.1
						c1.2-6.4,1-12.2-0.5-13.1c-0.9-0.5-1.8-0.9-3.1-1v-1h2.8c1,0,1.3,0,2.2-1.1c1-1.3,4.7-7.5,11.1-18.5L33.4,108.2L33.4,108.2z
						 M19,89.7c19.5-0.4,13.9,14.8,5.7,10.2c-1.1-3.6-3.8-7.4-6.2-9.9L19,89.7L19,89.7z M40.3,104.7l10.6,1
						c-0.1,0.8-0.5,1.4-2.1,1.6v8.9c-0.1,11-3.1,23.7-20.2,29.5l-0.4-0.5c10.8-7.7,12.1-19.1,12.1-29L40.3,104.7L40.3,104.7z
						 M74.2,96.9c-0.5,0.5-1.1,0.7-2.4,0.8c-2.2,2.2-6.1,5.3-9.1,7.1l-0.4-0.4c0.4-2.4,0.8-5.8,1-8.5H40.4c0.9,4.7-0.4,8.1-2.5,9.7
						c-2.2,1.6-5.6,0.8-6.6-1.9c-0.9-2.7,0.5-4.7,2.8-5.8c1.8-1.3,3.9-4.7,3.4-8.1l0.7-0.1c0.8,1.6,1.5,3.1,1.8,4.5h22.7L67,90
						L74.2,96.9L74.2,96.9z M71,135.8c1.8,1,2.2,1.9,2.2,3.3c0,3.1-2.7,4.8-9.5,4.8h-3.5c-5.4,0-6.5-1.6-6.5-6.6v-32.4l10,0.9
						c-0.1,0.8-0.6,1.4-2,1.6v27.6c0,0.9,0.2,1.1,1.1,1.1h3.4c0.5,0,0.8-0.1,1.2-0.7c0.7-1.1,1.8-4.5,2.7-7.8h0.6L71,135.8L71,135.8
						z"/>
					<path class="st0" d="M130.1,116.1c0,0,2.8,2.4,4.5,4.2c-0.1,0.7-0.7,1-1.5,1h-5.6v5.3c-0.1,0.4-3.5,1.6-5.7,1.6h-1.2v-1.6
						h-19.5l-0.5-1.7h20.1v-3.6H99.1l-0.5-1.7h22v-3.8h-18.8l-0.5-1.7h18.8l2.5-2.7H98.3l-0.3-1.1c-0.2,0.1-0.4,0.1-0.5,0.1H91v1.9
						c12.9,6.2,6.2,16.1,1.3,11c0.1-2.7-0.5-5.8-1.3-8.4v28.7c-0.1,0.5-2.5,2.2-6.2,2.2h-1.4v-19c-1.9,3.1-4.2,6-6.8,8.6l-0.7-0.6
						c3.2-6.7,5.1-16,6.2-24.4h-5.2l-0.5-1.7h7V97.8c-2.4,0.2-4.8,0.4-7.1,0.5l-0.2-0.6c5.1-2.4,11.4-6.4,14.6-9.1l8.3,7.5
						c-0.8,0.6-2.2,0.7-4.2,0c-1.2,0.2-2.4,0.5-3.8,0.7v10.9l2.5-3.7c0,0,3.5,3.2,5.5,5.4c0,0.1-0.1,0.2-0.1,0.3h11.4v-4.1h-9.5
						l-0.5-1.7h17.6c0.8-2.4,1.5-5.7,2.1-8.9c-6.6,0.3-14.2,0.3-20.9-0.1l-0.1-0.9c8.9-1.2,20.4-4,26.4-6.2l6.4,6.9
						c-0.7,0.6-2.1,0.5-3.9-0.2c-1.3,0.1-2.7,0.2-4.2,0.3l5.4,1.7c-0.2,0.7-1,1.3-2.3,1.2c-1.9,2.4-4.2,4.6-6.5,6.2h2.1l3-4
						c0,0,3.4,2.8,5.4,4.7c-0.1,0.7-0.7,1-1.6,1h-0.4c1.2,1,3.7,3.2,5.3,4.8c-0.2,0.7-0.8,1-1.6,1h-8.3l5.6,4.2
						c-0.3,0.4-1,0.8-1.9,1v2.9h0.1L130.1,116.1L130.1,116.1z M100.4,128.4c2.5,6.2,2.2,11,0.2,13.2c-1.4,1.6-4.7,1.4-5.9-0.8
						c-0.9-2.1,0.1-4,1.9-5.2c1.3-1.3,3.2-4.5,2.8-7.3L100.4,128.4L100.4,128.4z M100.6,95.7c14,1.9,5.8,11.2,0.6,6.2
						c0.2-2.2-0.4-4.5-1.1-6C100.1,96,100.6,95.7,100.6,95.7z M124.5,137c1.9,0.8,2.3,1.6,2.3,2.8c0,2.9-2.6,4.2-11.2,4.2h-5.1
						c-5.9,0-6.8-1.3-6.8-5.8v-10.5l9,0.7c-0.1,0.8-0.7,1.3-1.8,1.4v6.6c0,0.7,0.1,0.9,1.5,0.9h7.6c0.7-0.1,1.1-0.2,1.5-0.5
						c0.5-0.6,1.4-2.1,2.3-4.2h0.6C124.2,132.7,124.5,137,124.5,137z M109.2,95.6c14,1,6.7,11.2,1.2,6.5c0.2-2.2-0.6-4.7-1.7-6.2
						L109.2,95.6z M112.7,127c14,2.3,7.6,12.6,2.2,8.2c-0.1-2.8-1.4-5.9-2.7-7.9C112.2,127.3,112.7,127,112.7,127z M117.8,109.7h6.7
						l2.9-4.1h-9.6V109.7z M123.6,128.7c15.7,3.1,9.2,15.2,3.2,10.2c-0.1-3.4-1.8-7.4-3.8-9.9L123.6,128.7z"/>
					<path class="st0" d="M192.3,136.7c1.9,4.5,2.3,7.3,0.9,8.2c-3.8,2.7-9.1-0.9-11.2-3.8c-3.6-5-6-10.5-7.6-16.6
						c-2.5,1.3-5.2,2.3-8,3.1l-0.5-0.6c2.7-1.7,5.3-3.9,7.6-6.4c-1-4.8-1.6-9.9-1.9-15.1c-0.3,0.2-0.7,0.3-1.2,0.3h-21.1l-0.5-1.7
						h12.6l3.8-4.8c0,0,3.8,2.9,6.4,5.1c-0.1-2.1-0.2-4.2-0.2-6.3h-23.3v11.1c0,10.5-0.4,26.3-10.8,36.5l-0.6-0.4
						c3.8-11,3.8-24.9,3.8-36.1V93.4l8.8,3.1h22.1c-0.1-2.7-0.1-5.4-0.1-8.2l9.6,1c-0.1-0.3-0.2-0.6-0.3-0.8l0.6-0.2
						c4.8,1,6.3,3,6,4.5l0.9-1.3c0,0,3.9,3.4,6.2,5.7c-0.2,0.7-0.8,1-1.6,1h-13c0,4.4,0.1,8.8,0.5,13c1.4-2.8,2.6-5.9,3.4-9.2
						l10.1,4c-0.4,0.8-1.1,1.3-2.5,1.1c-2.6,5.6-5.8,9.7-9.5,12.9c1.2,5.1,3.1,9.7,6.1,13.2c0.7,1,1.1,1,1.7-0.1
						c1-1.6,2.7-4.8,3.9-7.5l0.6,0.1L192.3,136.7L192.3,136.7z M148.6,128.3c2.5,5.9,2.2,10.5,0.4,12.5c-1.3,1.4-4.3,1.3-5.3-0.7
						c-0.9-1.9,0.1-3.7,1.9-4.8c1.2-1.3,2.6-4.5,2.1-7L148.6,128.3L148.6,128.3z M157.6,122.7c0,0.6-3.3,2.2-6.4,2.2h-1v-18l7.7,3
						h4.1l3.3-3.4l6.8,5c-0.2,0.4-0.9,0.8-1.9,1v8.9c-0.1,0.4-3.9,1.7-6.3,1.7h-1.3v-2.6h-4.8L157.6,122.7L157.6,122.7z
						 M168.8,137.3c1.6,0.7,1.9,1.4,1.9,2.6c0,2.5-2.3,4-9.4,4h-4.1c-5,0-5.7-1.3-5.7-5.3v-12.9l8,0.7c-0.1,0.8-0.7,1.3-1.8,1.5v9
						c0,0.7,0.2,0.9,1.3,0.9h2.9c1.2,0,2.1,0,2.5-0.1c0.6,0,0.8-0.1,1.1-0.7c0.5-0.9,1.3-3.5,2.3-6.6h0.7L168.8,137.3L168.8,137.3z
						 M157.6,111.6v7.3h4.8v-7.3H157.6z M159.4,123.5c12.4,5.2,5.3,14.6,0.7,9.6c0.4-3.1-0.3-6.8-1.4-9.3L159.4,123.5L159.4,123.5z
						 M169.3,127.2c13,6.8,6.6,17.1,1.8,12.1c0.1-3.9-1.1-8.5-2.5-11.8C168.6,127.4,169.3,127.2,169.3,127.2z M186,94.4
						c-1.3,0.8-3.2,0.8-4.7-0.7c0.1-1,0.1-2.1-0.1-3.1c-0.4,0.2-0.9,0.4-1.5,0.5c-0.1,1.8-0.1,3.6-0.1,5.4h5L186,94.4L186,94.4z"/>
					<path class="st0" d="M255.4,112c-0.5,0.5-1.1,0.7-2.4,0.8c-2.7,1.8-7.2,4.2-10.5,5.5l-0.4-0.4c0.6-1.9,1.3-4.7,1.8-6.9h-36.3
						c0.9,4.8-0.9,8.3-3.4,9.5c-2.4,1.3-5.4,0.2-6.3-2.5c-0.7-2.7,1-4.6,3.3-5.6c2-1.2,4-4.1,3.5-7.4l0.7-0.1c0.8,1.5,1.4,3,1.8,4.3
						h27.1c1.6-3.9,3.1-9.1,4-12.7l11.5,3.8c-0.3,0.7-1,1.2-2.4,1.1c-2.7,2.2-6.8,5.3-10.9,7.8h7l4.3-4.3L255.4,112L255.4,112z
						 M245.2,121.1c-0.5,0.7-1.1,0.9-2.7,1.1c-2.5,4.2-5.6,7.9-9.4,10.9c6.7,2.1,14.3,3,21.9,3.4l-0.1,0.8c-3.9,1-6.3,4.1-7.3,8.5
						c-8.3-1.6-15.5-4.1-21.2-8.2c-7.6,4.3-17,7-28.3,8.2l-0.2-0.7c9.4-2.5,17.5-6.4,23.9-11.4c-3.4-3.5-6.2-7.9-8.1-13.6h-6.2
						l-0.5-1.7h25.8l5-4.5L245.2,121.1L245.2,121.1z M208.1,98h-7.6l-0.1-1c13.9-1.8,32-5.6,41.3-8.8l7.4,7.6
						c-0.7,0.6-2.2,0.6-4.3-0.2c-5.9,0.8-13.5,1.4-21.6,1.9c14.5,4.2,6.1,15.6-0.2,9.6c0.2-3.3-0.8-6.9-2-9.5
						c-4.1,0.2-8.2,0.4-12.2,0.4c16.5,3.1,8.1,15.5,1.4,9.6c0.1-3.3-1.1-6.9-2.5-9.4L208.1,98L208.1,98z M214.7,120.2
						c2.6,4.3,6.4,7.6,11,9.9c2.9-3,5.3-6.3,7.1-9.9L214.7,120.2L214.7,120.2z"/>
					<path class="st0" d="M297.3,105.2c-0.1,0.7-0.5,1.3-2,1.5v37c0,0.6-3.5,2.1-6.6,2.1h-1.6v-18.3h-2c-0.5,6.9-2.8,13.7-11.3,18.1
						l-0.7-0.8c4-5.4,4.3-11.4,4.4-17.4H274l-0.5-1.7h13.7V119h-3.3l-2.4,3.4l-8-4c0.5-0.7,1.5-1.4,2.3-2.1v-11.3l9.4,0.9
						c-0.1,0.7-0.5,1.2-1.7,1.4v9.9h3.6v-13.1L297.3,105.2L297.3,105.2z M273.6,96h8.3l-0.9-7.3l10.5,0.7c0,0.7-0.5,1.3-1.7,1.7
						l0.6,4.9h1.9l3.8-5.4c0,0,4.3,3.7,6.8,6.1c-0.2,0.7-0.9,1-1.7,1h-10.5l0.5,4c-1.2,1.7-4.4,2.4-8.3,2.2l-0.7-6.2h-8L273.6,96
						L273.6,96z M315.8,120.7v19.7h1.9l4.1-5.7c0,0,4.7,3.8,7.4,6.4c-0.2,0.7-0.9,1-1.7,1h-30.1l-0.5-1.7h10.3v-19.7h-11l-0.5-1.7
						h11.5v-14.6l10.6,0.9c-0.1,0.8-0.5,1.3-2,1.6V119h1.6l4.3-6c0,0,4.9,4.1,7.7,6.7c-0.2,0.7-0.9,1-1.8,1L315.8,120.7L315.8,120.7
						z M303.2,96h5.2l1-7.3l10.4,1.9c-0.2,0.7-0.7,1.4-2.4,1.5l-0.6,3.9h2l3.8-5.4c0,0,4.3,3.7,6.7,6.1c-0.1,0.7-0.8,1-1.6,1h-11.1
						l-0.7,4.7c-1.6,1.2-5,1.8-8.6,1.1l0.9-5.7h-4.5L303.2,96L303.2,96z"/>
					<path class="st0" d="M389.9,95c-0.4,0.6-1.1,1-2.4,1.3v46.4c-0.1,0.6-4.1,2.7-7.4,2.7h-1.4v-5h-34.3v2.1c0,1.1-3.5,3.2-7.1,3.2
						h-1.5V89.6l9.3,3.7h33l4-4.5L389.9,95L389.9,95z M344.4,138.7h9.4l-3.3-5.3c2-1.3,2.3-1.8,2.3-2.8v-1.9c-2.4,1-5,1.9-7.7,2.5
						l-0.5-0.9c4.5-2.1,8.3-5.2,10.9-8.5H355c-0.7,0.7-3.5,1.8-5.8,1.8h-1v-13.6l7.3,2.8h12.4l3-3.1l6.2,4.5
						c-0.2,0.4-0.8,0.7-1.6,0.9v6.2c0,0.2-0.5,0.4-1.1,0.7l4.3,3.8v-16.9c-0.3,0.2-0.6,0.2-1,0.2H345l-0.5-1.7h13.2v-4.3h-10.2
						l-0.5-1.7h10.6V96l9.4,0.8c-0.1,0.7-0.4,1.2-1.7,1.4v3.2h2.7l3.3-3.9c0,0,3.7,2.7,6,4.7c-0.1,0.7-0.7,1-1.6,1h-10.4v4.3h4.2
						l3.4-4.2c0,0,3.3,2.4,5.7,4.4V94.9h-34.3L344.4,138.7L344.4,138.7z M378.7,138.7v-12.9c-0.3,0.4-0.9,0.5-2,0.1
						c-1.1,0.4-2.7,0.8-4.4,1.3c9.7,5,5.8,12,1.3,9.4c-1.5-2.8-5.9-7.9-11.8-11.8l0.4-0.8c2.7,0.5,5.1,1.2,7,1.9
						c1-1,1.9-2.2,2.7-3.3c-0.8,0.2-1.6,0.3-2.3,0.3h-1.3v-1.2h-4.7c-1.1,1.3-2.5,2.4-4.1,3.4v5.9c2.1-0.5,4.4-1.2,6.6-1.9l0.2,0.7
						c-2.1,1.6-6.6,5-11.4,8.2c-0.2,0.2-0.4,0.4-0.6,0.6L378.7,138.7L378.7,138.7z M368.3,114.4h-13.2v5.7h13.2V114.4z"/>
					<path class="st0" d="M443.1,99.8c0,0,4.7,3.4,7.6,5.9c-0.2,0.7-0.9,1-1.8,1h-12.7l7.4,5.5c-0.4,0.5-1.1,1-2.4,1.3v12.3
						c-0.1,0.5-4.2,2.2-7.1,2.2h-1.5v-2.4H412v0.6c0,0.7-3.8,2.5-7.3,2.5h-1.2c2.8,7.1,0.4,12.2-3,13.7c-2.4,1.1-5.4,0.1-6.2-2.5
						c-0.6-2.5,1-4.4,3.1-5.3c2.4-0.9,5-3.4,5-6.6h0.7l0.2,0.6V107l8.9,3.4H432l3.5-3.8h-40.3l-0.5-1.7h18c-0.5-0.2-1-0.5-1.5-0.8
						c-0.1-2.6-1.3-5.4-2.5-7l0.4-0.3c11.9,0.1,11.1,6.6,7.2,8.2h10.1c0.5-2.4,1.1-5.7,1.5-8.2h-28.9l-0.5-1.7h21.2
						c-0.9-2.6-2.9-5.2-4.8-6.7l0.4-0.4c11.7-1.8,13,4.3,10.2,7h9.9l4.2-5.1c0,0,4.7,3.4,7.6,5.9c-0.2,0.7-0.9,1-1.7,1h-14.3l7.5,2
						c-0.2,0.7-0.9,1.3-2.2,1.2c-2.1,1.4-5.1,3.4-8,5h10.5L443.1,99.8L443.1,99.8z M436.3,136.6c2.2,0.8,2.8,1.7,2.8,3.1
						c0,3.3-3.1,4.5-14.9,4.5h-7.4c-7.1,0-8.8-1.1-8.8-6.3v-9.6l9.9,0.7c-0.1,0.9-0.7,1.3-1.9,1.5v5.8c0,0.7,0.2,1,2.2,1h7
						c2.1,0,4.3,0,5.3-0.1s1.4-0.2,1.9-0.9c0.8-0.9,1.8-2.9,3.1-6.1h0.6L436.3,136.6L436.3,136.6z M412,112.1v5.1h20.6v-5.1H412z
						 M432.6,124v-5.1H412v5.1H432.6z M419.1,126.6c16.1,0.7,9.9,13.1,3.3,8.5c-0.4-3-2.1-6.2-3.8-8.2L419.1,126.6L419.1,126.6z
						 M438.1,128.3c18.6,3.2,11.8,17.7,4.7,12.1c-0.2-4.2-2.5-8.8-5.1-11.7L438.1,128.3z"/>
					<path class="st0" d="M504.3,119.5c-0.4,0.5-1,0.8-2.4,0.5c-2.8,0.8-6.5,1.8-10.3,2.6c3.8,7.6,11.6,11.1,19.3,13.3l-0.1,0.7
						c-3.3,0.8-5.6,3.5-6.7,7.6c-7.1-4.7-11.5-10.5-13.7-21.3c-0.9,0.2-1.8,0.3-2.7,0.5c3.6,7.7,2.5,16.1-1.3,19.8
						c-2,2-5.6,2.5-10.3,2.5c0-2.5-0.5-4.2-1.4-5.4c-0.7-0.9-2.2-1.7-4.4-2.4c-5,1.6-10.3,2.9-15.7,3.6l-0.3-0.9
						c10.1-3,20.3-9.2,26.3-15.9c-6.9,3.5-16.1,6.5-24.7,7.9l-0.3-0.8c8-2.9,16.8-8.2,22.2-13.4c-6,2.7-13.3,4.7-21.2,5.9l-0.3-0.7
						c7.6-2.5,14.3-6.7,18.6-10.8h-4.6v0.9c0,0.5-2.5,2.4-6.9,2.4H462v-10.5c-2.4,1.3-5,2.4-7.6,3.4l-0.4-0.5
						c7.4-5.4,14-14.2,16.8-20.3l11.8,2.3c-0.2,0.8-1,1.2-3,1.3c-0.9,1.1-1.9,2.2-3.1,3.3h10.2l4-4.1l7,6c-0.5,0.5-1.1,0.7-2.4,0.8
						c-3,1.6-6.8,3.2-10.4,4.3h10l3.7-3.9l7.7,5.6c-0.4,0.5-1,1-2.2,1.2v8c0,0.4-3,1.6-5.6,2L504.3,119.5L504.3,119.5z M474.6,96.9
						c-1.7,1.5-3.6,3-5.6,4.5l2.3,0.8h11.1c1.4-1.5,2.9-3.6,3.9-5.3H474.6L474.6,96.9z M470.5,111.2h8.3v-7.3h-8.3V111.2z
						 M480,137.1c0.7-0.7,1.3-2.1,1.6-3.8c-2.9,1.4-6.1,2.8-9.5,4.1c2.3,0.2,4.9,0.3,6,0.3C478.9,137.7,479.5,137.6,480,137.1
						L480,137.1z M486.8,112.9c-1.2,1.2-2.7,2.2-4.2,3.1c1.8,1.7,3.1,3.6,4.2,5.4c3.1-2.3,6.5-5.2,8.6-7.3v-1.3L486.8,112.9
						L486.8,112.9z M486.9,103.9v7.3h8.5v-7.3H486.9z"/>
				</g>
			</g>
		</g>
	</g>
</g>
</svg>
