<?xml version="1.0" encoding="UTF-8"?>
<svg id="_圖層_2" data-name="圖層 2" xmlns="http://www.w3.org/2000/svg" viewBox="0 0 783.39 181.17">
  <defs>
    <style>
      .cls-1 {
        fill: #fff;
        opacity: .7;
      }

      .cls-2 {
        fill: #231815;
      }
    </style>
  </defs>
  <g id="_圖層_1-2" data-name="圖層 1">
    <rect class="cls-1" width="783.39" height="181.17" rx="30" ry="30"/>
    <g>
      <path class="cls-2" d="M43.52,46.38s1.72,1.58,2.66,2.7c-.07,.38-.42,.56-.88,.56H13.07l-.28-1.02h3.78l-.53-20.44,3.29,1.12c1.23-1.16,2.49-2.45,3.08-3.19l2.91,2.77c-.25,.25-.6,.28-1.12,.04-1.05,.46-3.08,1.23-5.01,1.71l.14,4.97h1.33l1.3-1.82s1.43,1.29,2.27,2.28c-.1,.38-.42,.56-.88,.56h-3.99l.14,5.63h1.4l1.33-1.92s1.47,1.4,2.35,2.38c-.07,.39-.42,.56-.88,.56h-4.17l.14,5.36h19.01l.14-5.36h-3.75l-.32-1.02h4.06l.14-5.63h-3.4l-.32-1.02h3.75l.1-5.53h-4.24l-.32-1.02h4.24l1.47-1.79,3.22,2.7c-.25,.32-.56,.42-1.26,.53l-.42,18.13h.21l1.5-2.24Zm-30.24,11.94c4.03-2,8.16-5.6,9.94-8.23l4.55,2.03c-.21,.42-.74,.6-1.79,.49-2.73,2.35-7.53,4.8-12.46,6.16l-.25-.46Zm16.03-19.08c-.11,.42-.49,.77-1.23,.8-.8,2.91-2.07,5.74-3.64,7.63l-.56-.28c.8-2.38,1.4-5.78,1.61-8.96l3.82,.8Zm-5.08-3.12c.32-.25,.81-.53,1.26-.74,.38-2.59,.8-6.86,.84-8.89l3.96,.59c-.07,.38-.38,.81-1.22,.88-.07,.74-.14,1.61-.25,2.49h2.42l1.4-1.89s1.54,1.4,2.45,2.34c-.07,.38-.42,.56-.88,.56h-5.5c-.14,1.47-.31,2.97-.49,4.24h2.91l1.43-1.47,2.8,2.31c-.25,.28-.66,.42-1.37,.53-.21,6.37-.74,8.96-1.96,9.98-.81,.67-1.86,.95-3.08,.95,0-.77-.07-1.44-.46-1.79-.35-.35-1.01-.63-1.85-.81v-.56c.84,.07,2.13,.14,2.7,.14,.49,0,.7-.04,.94-.25,.6-.56,.98-2.91,1.16-8.02h-3.04l-1.19,1.4-2.98-2Zm8.51,14.67c17.15,2.73,11.66,10.26,8.54,7.14-1.4-2.06-4.2-4.66-8.72-6.62l.17-.53Z"/>
      <path class="cls-2" d="M76.25,34.55c.35-.88,.74-2.21,1.01-3.29h-5.81v3.81c0,.39,.07,.53,1.09,.53h2.76c1.05,0,2.07,0,2.49-.04,.32,0,.7-.04,.88-.07,.25-.04,.63-.11,.91-.18h.28l.17,.04c.95,.28,1.19,.63,1.19,1.19,0,1.19-1.05,1.61-6.3,1.61h-3.22c-3.01,0-3.46-.63-3.46-2.63v-4.27h-6.16l2.91,2.03c-.17,.39-.63,.6-1.64,.49-2.84,2.66-7.11,4.83-12.95,5.67l-.21-.46c4.97-1.71,8.86-4.8,10.82-7.74h-7c.17,2.24-.77,3.81-1.89,4.41-1.05,.53-2.38,.31-2.77-.81-.31-1.01,.39-1.79,1.3-2.24,1.22-.59,2.34-2.2,2.13-4.06l.56-.04c.25,.59,.42,1.19,.52,1.71h11.31l-.14-.1c-.07-1.4-.98-2.98-2.03-3.85l.28-.25c5.32,.31,5.64,3.12,4.31,4.2h9.56l1.89-1.86,3.29,3.12c-.25,.28-.63,.35-1.33,.42-1.08,.94-2.94,2.13-4.34,2.87l-.38-.25Zm.42,4.03l3.22,2.52c-.25,.28-.63,.52-1.4,.67v15.72c0,.18-1.16,.84-2.73,.84h-.56v-1.96h-19.15v1.5c0,.25-.98,.88-2.59,.88h-.53v-19.67l3.54,1.4h5.04c.38-1.22,.88-3.08,1.19-4.27l4.66,1.15c-.17,.49-.67,.74-1.4,.74-.77,.7-1.86,1.61-2.77,2.38h11.87l1.61-1.89Zm-1.47,16.77v-13.86h-19.15v13.86h19.15Zm-1.16-10.12c-.21,.35-.53,.53-1.29,.38-.7,1.05-1.61,2.07-2.66,3.01,4.66,3.47,3.08,6.37,.88,5.15-.67-.95-1.68-2.1-3.08-3.33-2.59,1.86-5.78,3.33-9.35,4.2l-.25-.49c3.01-1.19,5.74-3.04,7.88-5.11-.88-.67-1.79-1.33-2.83-2-1.68,1.23-3.64,2.28-5.71,3.01l-.31-.49c1.54-.95,3.01-2.21,4.27-3.57-1.12-.63-2.27-1.26-3.5-1.82l.25-.53c1.51,.38,2.94,.81,4.2,1.26,.88-1.09,1.61-2.14,2.1-3.15l3.43,1.71c-.21,.35-.49,.53-1.3,.38-.52,.63-1.15,1.3-1.85,1.93,1.12,.49,2.1,.98,2.97,1.43,1.05-1.22,1.89-2.52,2.49-3.75l3.68,1.75Z"/>
      <path class="cls-2" d="M101.58,30.56l3.29,3.04c-.25,.35-.59,.49-1.4,.56-1.64,10.29-5.18,19.71-17.4,24.61l-.35-.46c5.64-3.26,9.21-7.95,11.45-13.48-.56,.59-1.58,.7-2.59-.07-.35-1.79-1.65-3.82-3.01-5.32-1.54,2.38-3.29,4.41-5.36,6.06l-.45-.32c3.29-4.55,5.95-11.45,6.96-18.9l4.83,1.12c-.14,.46-.53,.77-1.33,.77-.38,1.54-.84,2.98-1.33,4.34h4.79l1.89-1.96Zm-7.07,2.97c-.7,1.86-1.5,3.54-2.45,5.11,4.2,1.19,5.64,3.25,5.64,4.83,1.12-3.12,1.82-6.48,2.24-9.94h-5.43Zm15.4,3.89c11.52,3.33,9.35,10.75,5.6,8.4-.91-2.49-3.4-5.36-5.6-7.46v19.39c0,.35-1.44,1.08-2.7,1.08h-.66V26.53l4.66,.49c-.11,.49-.35,.84-1.3,.98v9.42Z"/>
      <path class="cls-2" d="M151.18,49.32s2.2,1.68,3.61,2.83c-.11,.39-.42,.56-.91,.56h-13.79v5.21c0,.28-1.51,.84-2.77,.84h-.63v-6.06h-14.21l-.28-1.02h14.49v-2.66l1.89,.17c2.14-1.61,3.75-4.2,4.52-6.41h-11.97l3.22,1.5c-.21,.35-.49,.56-1.29,.46-.28,.39-.59,.81-.95,1.16,6.27,.95,4.1,5.43,1.5,3.89-.35-.98-1.29-2.2-2.24-3.08-1.79,1.86-4.3,3.61-7.14,4.62l-.31-.42c2.87-2,5.32-5.36,6.44-8.12h-6.06l-.32-1.02h13.72c-.07-.07-.14-.14-.21-.21-.14-.73-.49-1.82-1.12-2.66-.56,.56-1.61,.95-3.54,1.05-.07-.7-.17-1.3-.59-1.61-.42-.32-1.02-.63-2.45-.81v-.49s2.7,.17,3.33,.17c.56,0,.7-.21,.7-.63v-2.45c-2.1,1.01-4.79,2.41-8.16,3.95-.14,.42-.42,.77-.81,.88l-1.4-3.29c1.85-.32,5.99-1.3,10.36-2.45v-4.34h-10.54l-.32-1.01h10.5l1.5-1.79,3.5,2.66c-.21,.25-.77,.56-1.47,.7v7.35c0,.52-.04,1.01-.17,1.4,3.85,.6,3.92,2.7,2.91,3.57h7.63l1.82-2.06c-.42,.07-.91,.14-1.44,.17-.07-.66-.17-1.26-.56-1.61-.42-.31-.98-.63-2.38-.8v-.49s2.56,.17,3.19,.17c.56,0,.67-.21,.67-.63v-2.77c-2.1,1.08-4.83,2.42-8.23,3.96-.14,.45-.46,.77-.8,.88l-1.33-3.33c1.79-.28,5.95-1.3,10.36-2.42v-3.96h-9.73l-.32-1.01h9.7l1.54-1.79,3.5,2.66c-.21,.25-.73,.59-1.47,.7v7.28c0,1.5-.32,2.49-2.38,2.94,.53,.35,2.21,1.58,3.36,2.55-.07,.39-.46,.56-.95,.56h-8.09l3.4,1.47c-.21,.35-.49,.56-1.26,.46-.25,.35-.52,.7-.84,1.05,6.86,.52,5.64,5.29,2.87,4.17-.7-1.12-2.28-2.38-3.71-3.33-1.12,1.05-2.52,1.96-4.13,2.7l.91,.07c-.07,.38-.28,.67-.98,.8v1.5h9.14l1.96-2.38Zm-26.04-19.32c6.34-.74,6.2,4.52,3.68,3.54-.91-.98-2.24-2.31-3.89-3.12l.21-.42Zm14.6,.04c6.16-.88,6.06,4.27,3.57,3.33-.84-.91-2.1-2.17-3.78-2.87l.21-.46Z"/>
      <path class="cls-2" d="M161.71,48.93c1.16,3.5,.81,6.2-.14,7.49-.67,.88-2.24,1.05-2.8,.07-.46-.84-.07-1.82,.73-2.41,.88-.91,1.82-3.22,1.61-5.15h.59Zm-2.97-4.45s.77-.14,1.05-.38c1.54-1.33,3.4-3.75,4.94-6.2-1.05,.38-2.28,.84-3.54,1.22-.25,.35-.53,.6-.81,.74l-1.5-3.64s.67-.17,.95-.38c1.71-1.89,3.89-6.9,4.58-9.56l4.03,2c-.14,.31-.52,.59-1.22,.52-1.4,2.28-3.85,5.46-6.06,7.56,1.26,.04,2.87,.04,4.48,0,.74-1.3,1.37-2.52,1.75-3.5l3.64,2.45c-.17,.28-.66,.49-1.29,.35-1.82,2.66-5.25,6.37-8.4,8.89,1.75-.07,4.1-.25,6.62-.42-.28-1.33-.7-2.62-1.19-3.64l.42-.17c6.34,3.99,3.22,8.89,.98,6.44,.04-.52,0-1.08-.07-1.64-1.92,.67-4.52,1.54-7.25,2.34-.25,.35-.52,.56-.84,.67l-1.26-3.64Zm5.39,3.92c4.73,4.48,1.64,8.96-.25,6.55,.38-2.07,.17-4.66-.25-6.44l.49-.1Zm14.11,.07c-1.05,1.19-2.63,3.08-4.9,5.39-.04,.46-.25,.88-.6,1.01l-2.21-3.15c.38,1.96-1.12,3.15-2.38,1.86,.1-1.89-.63-4.24-1.4-5.74l.42-.17c2.03,1.29,3.01,2.66,3.29,3.85,1.4-.53,4.55-1.96,7.6-3.43l.18,.39Zm9.8-11.97s2,1.68,3.19,2.91c-.11,.38-.46,.56-.95,.56h-8.37v14.7c0,2.13-.46,3.5-3.99,3.82-.04-.88-.17-1.58-.59-1.96-.42-.45-1.09-.77-2.49-.98v-.53s2.77,.21,3.4,.21c.56,0,.7-.17,.7-.59v-14.67h-7.81l-.28-1.02h10.36l.91-2.76h-6.41l-1.4,1.4-3.05-2.28c.38-.28,.98-.56,1.54-.77,1.12-2.42,2.59-6.3,3.15-8.19l4.2,.77c-.1,.46-.46,.8-1.43,.8-.18,.56-.42,1.19-.7,1.89h5.88l1.44-1.54,2.98,2.55c-.25,.28-.6,.39-1.26,.42l-2.55,7.7h1.79l1.75-2.45Zm-15.37,5.04c7.25,2.17,4.51,7.28,2,5.18-.18-1.68-1.33-3.75-2.38-4.97l.39-.21Zm9.8-6.37l1.43-4.34h-6.27c-.59,1.51-1.26,3.08-1.79,4.34h6.62Zm7.91,8.16c-.18,.28-.53,.38-1.23,.21-1.33,.94-4.03,2.52-5.74,3.5l-.32-.35c1.19-1.61,2.87-4.34,3.78-5.88l3.5,2.52Zm-6.93,5.08c9.45,1.33,7.77,8.37,4.66,6.3-1.02-1.82-2.63-4.38-4.9-5.95l.24-.35Z"/>
      <path class="cls-2" d="M223.77,37.63s2.13,1.58,3.43,2.77c-.11,.38-.46,.56-.95,.56h-30.56l-.28-.98h15.23l-.21-.11c-.28-1.01-1.26-2.13-2.1-2.7l.28-.25c4.94-.52,4.94,2.35,3.43,3.05h9.87l1.86-2.35Zm-10.85,11.8v5.32c0,2.28-.59,3.67-4.45,4.03-.04-.98-.21-1.72-.67-2.17-.42-.46-1.16-.84-2.73-1.05v-.49s3.12,.21,3.82,.21c.53,0,.7-.21,.7-.59v-5.25h-4.52v.56c0,.17-.59,.53-1.4,.74l3.67,1.75c-.17,.35-.46,.52-1.26,.38-2.17,2.03-6.16,4.13-10.12,5.11l-.28-.42c2.91-1.68,5.85-4.48,7.42-6.69-.31,.07-.63,.11-.91,.11h-.46v-9l3.54,1.43h11.94l1.65-1.79,3.54,2.66c-.25,.25-.77,.56-1.47,.7v4.87c-.04,.24-1.72,.8-2.8,.8h-.56v-1.23h-4.66Zm-8.72-11.83c0,.35-1.47,1.02-2.8,1.02h-.49v-11.8l3.5,1.44h13.76l1.65-1.79,3.5,2.66c-.25,.28-.77,.59-1.47,.74v7.39c-.04,.21-1.68,.84-2.77,.84h-.56v-1.4h-14.32v.91Zm0-8.33v2.66h14.32v-2.66h-14.32Zm14.32,6.41v-2.73h-14.32v2.73h14.32Zm-13.44,12.74h12.5v-3.99h-12.5v3.99Zm10.4,2.91c12.99,.88,10.64,8.23,7.21,6.44-.98-1.58-3.64-4.17-7.39-5.95l.17-.49Z"/>
      <path class="cls-2" d="M236.72,56.04v1.26c0,.21-.91,.91-2.35,.91h-.49v-10.64c-.7,.77-1.43,1.47-2.17,2.07l-.49-.32c1.5-2.28,3.01-5.78,3.89-9.31l3.75,1.3c-.17,.38-.59,.7-1.33,.67-.25,.49-.53,1.01-.8,1.5l.46,.17h7.7l1.5-1.82s1.65,1.3,2.73,2.28c-.1,.38-.42,.56-.91,.56h-5.11v2.73h1.47l1.4-1.75s1.54,1.23,2.56,2.21c-.11,.39-.42,.56-.91,.56h-4.52v2.77h1.47l1.4-1.68s1.58,1.19,2.56,2.14c-.07,.38-.42,.56-.88,.56h-4.55v2.83h1.96l1.58-1.92s1.75,1.33,2.87,2.38c-.11,.39-.42,.56-.91,.56h-11.87Zm-5.25-26.6h4.73v-3.36l3.99,.38c-.07,.42-.35,.7-1.12,.8v4.94c0,.21-1.3,.7-2.31,.7h-.56v-2.45h-4.45l-.28-1.01Zm6.72,3.46l2.52,1.93c-.17,.21-.63,.46-1.12,.56v4.34c0,.21-1.19,.7-1.96,.7h-.35v-1.12h-2.28v.8c0,.17-.73,.74-1.92,.74h-.38v-7.88l2.76,1.16h1.54l1.19-1.23Zm-.91,5.39v-3.15h-2.28v3.15h2.28Zm-.56,6.37v2.73h3.57v-2.73h-3.57Zm3.57,3.75h-3.57v2.77h3.57v-2.77Zm0,3.78h-3.57v2.83h3.57v-2.83Zm-.28-12.39c.42,.11,.8,.21,1.19,.35v-7.18l2.8,1.16h1.54l1.19-1.23,2.59,1.96c-.17,.21-.63,.46-1.15,.53v4.16c0,.25-1.23,.74-1.96,.74h-.38v-.98h-2.28v.42c0,.14-.59,.63-1.58,.73,2.98,1.58,.6,4.17-1.26,2.59-.07-1.05-.63-2.31-1.09-3.08l.38-.18Zm23.49,15.16c.77,.35,.88,.7,.88,1.26,0,1.12-.98,1.75-4.03,1.75h-1.61c-2.17,0-2.45-.7-2.45-2.52v-8.82h-1.37c-.25,6.06-1.92,9.66-7.74,11.94l-.17-.49c3.92-2.66,4.76-5.74,4.9-10.08-.42,.17-.98,.28-1.68,.28l-.46-.04V30.35c-.14,.07-.31,.1-.52,.1h-4.69v1.65c0,.25-1.3,.7-2.35,.7h-.56v-6.76l3.99,.38c-.07,.42-.35,.74-1.08,.84v2.17h1.75l1.37-1.79s1.19,.94,2.1,1.85v-2.76l3.36,1.37h5.46l1.58-1.82,3.08,2.45c-.25,.31-.63,.52-1.43,.67v17.4c0,.17-1.09,.84-2.59,.84h-.04v7.04c0,.38,.07,.53,.53,.53h1.71c.25-.04,.32-.07,.45-.35,.25-.49,.67-2.24,1.08-3.96h.42l.1,4.06Zm-19.95-19.81v3.15h2.28v-3.15h-2.28Zm9.17-6.02v5.22h6.02v-5.22h-6.02Zm6.02,10.82v-4.59h-6.02v4.59h6.02Zm-6.02,1.01v4.66h6.02v-4.66h-6.02Z"/>
      <path class="cls-2" d="M279.28,32.31s1.93,1.68,3.01,2.87c-.11,.38-.46,.56-.95,.56h-4.66v3.12c8.05,2.87,5.39,8.3,2.7,6.09-.32-1.71-1.54-3.82-2.7-5.36v18.17c0,.35-1.4,1.02-2.59,1.02h-.67v-15.47c-1.47,2.8-3.36,5.32-5.64,7.49l-.46-.42c2.66-3.99,4.52-9.42,5.57-14.63h-4.59l-.28-1.02h5.39v-8.4l4.52,.49c-.07,.53-.35,.84-1.26,.98v6.93h.94l1.65-2.42Zm20.69-2.28c-.25,.32-.77,.59-1.44,.74v26.53c-.04,.28-1.61,1.12-2.87,1.12h-.49v-3.25h-8.96v2.13c0,.46-1.26,1.26-2.73,1.26h-.56V27.69l3.46,1.51h8.44l1.71-1.89,3.43,2.73Zm-13.76,.14v7.18h8.96v-7.18h-8.96Zm0,8.19v7.25h8.96v-7.25h-8.96Zm8.96,15.79v-7.53h-8.96v7.53h8.96Z"/>
      <path class="cls-2" d="M333.85,41.86s2.17,1.68,3.54,2.91c-.1,.39-.45,.56-.95,.56h-9.2v9.1c0,2.35-.6,4.03-4.83,4.34-.07-1.02-.35-1.82-.95-2.31-.67-.53-1.58-.91-3.57-1.16v-.52s4.31,.31,5.25,.31c.67,0,.88-.28,.88-.77v-9h-9.1v4.66c-.07,.25-1.54,.95-2.63,.95h-.49v-3.12h-3.39v3.92c0,.35-1.19,1.09-2.52,1.09h-.46V29.58l3.12,1.4h2.91l1.58-1.75,2.87,2.24-.07-.35c5.64-.95,12.57-3.01,16.07-4.69l3.46,3.33c-.31,.32-1.08,.32-2.06-.07-1.68,.38-3.78,.73-6.06,1.05v13.58h4.66l1.96-2.45Zm-22.05,4.94v-14.81h-3.39v14.81h3.39Zm12.22-2.49v-13.16c-2.59,.25-5.29,.46-7.84,.53l.17,.14c-.25,.28-.77,.59-1.43,.74v11.76h9.1Zm-6.83-10.61c7.67,4.94,4.27,11.27,1.54,8.4,.1-2.7-.95-5.92-2-8.23l.46-.17Zm11.66,9c.88-2.41,1.89-6.27,2.59-9.63l4.58,1.51c-.17,.42-.59,.73-1.33,.7-1.5,2.8-3.46,5.71-5.36,7.7l-.49-.28Z"/>
      <path class="cls-2" d="M369.48,27.62s2.21,1.75,3.54,2.97c-.11,.39-.45,.56-.95,.56h-25.73v9.56c1.75-2.31,3.5-5.85,4.55-9.49l3.78,1.33c-.14,.38-.56,.67-1.3,.63-.56,1.09-1.15,2.1-1.85,3.04l.98,.39c-.1,.31-.45,.56-1.05,.66v10.78c-.07,.21-1.26,.84-2.31,.84h-.52v-9.21c-.67,.59-1.33,1.16-2,1.65l-.28-.21c0,5.88-.39,13.06-5.6,17.89l-.49-.28c2.87-5.18,3.01-11.83,3.01-18.06v-11.94l3.6,1.43h11.2c-.25-.03-.49-.14-.73-.28-.35-1.3-1.54-2.84-2.56-3.68l.32-.25c6.12,.07,5.78,3.75,3.82,4.2h8.65l1.92-2.55Zm-20.34,21.67c1.19,3.75-.04,6.37-1.5,7.25-.95,.59-2.24,.49-2.66-.45-.32-.91,.25-1.72,1.12-2.17,1.19-.73,2.52-2.59,2.49-4.62h.56Zm18.2,5.5c1.05,.35,1.33,.73,1.33,1.3,0,1.43-1.5,1.75-8.26,1.75h-4.62c-3.61,0-4.34-.56-4.34-2.77v-6.33l4.38,.38c-.07,.42-.38,.77-1.05,.84v4.62c0,.49,.14,.6,1.58,.6h4.38c1.75,0,3.22,0,3.78-.04,.52-.04,.7-.14,.91-.46,.38-.53,.84-1.82,1.4-3.57h.42l.11,3.68Zm-7.63-22.33c-.14,.42-.53,.74-1.29,.67-.35,.63-.7,1.23-1.12,1.86l.14,.04h5.43c-.14-.07-.32-.14-.46-.25-.21-1.16-1.05-2.49-1.79-3.26l.35-.21c4.52,.56,4.38,3.12,3.05,3.71h3.5l1.5-1.82s1.75,1.29,2.8,2.28c-.07,.38-.42,.56-.88,.56h-6.34v2.63h2.49l1.4-1.65s1.54,1.19,2.55,2.1c-.1,.38-.42,.56-.91,.56h-5.53v2.62h2.56l1.4-1.64s1.54,1.19,2.52,2.1c-.07,.39-.42,.56-.88,.56h-5.6v2.8h3.64l1.47-1.71s1.68,1.22,2.73,2.17c-.1,.39-.38,.56-.88,.56h-14.6v.42c0,.25-.91,1.05-2.34,1.05h-.49v-9.84c-.63,.56-1.26,1.09-1.89,1.5l-.49-.35c1.54-2.03,3.12-5.32,4.03-8.68l3.92,1.22Zm-2.73,3.57v2.63h4.87v-2.63h-4.87Zm4.87,3.64h-4.87v2.62h4.87v-2.62Zm0,3.64h-4.87v2.8h4.87v-2.8Zm-3.82,4.73c7.39,2,4.58,7.39,2.03,5.18-.07-1.68-1.26-3.75-2.38-4.94l.35-.25Zm8.72,.94c8.82,2.38,6.23,8.82,3.18,6.51-.24-2.17-1.92-4.69-3.54-6.23l.35-.28Z"/>
      <path class="cls-2" d="M381.58,46.13c2.07-1.19,3.01-2.7,3.46-4.52-1.82-.8-2.97-1.68-2.97-3.18,0-1.26,.88-2.35,2.41-2.35s2.66,1.16,2.66,3.33c0,2.66-1.26,6.06-4.97,7.84l-.59-1.12Z"/>
      <path class="cls-2" d="M412.94,36.3c-.88,.21-1.82,.42-2.87,.67-.38,4.52-1.29,8.79-3.29,12.5,7.14,4.38,4.24,7.95,1.68,6.44-.77-1.23-1.96-2.56-3.33-3.85-2.03,2.73-4.9,5-8.89,6.76l-.38-.39c3.46-2.13,5.88-4.83,7.56-7.91-2.03-1.72-4.31-3.22-6.27-4.38,.59-1.75,1.26-4.31,1.92-7.04l-1.43,.24c-.25,.46-.63,.7-1.02,.77l-1.12-3.68c1.02,0,2.45-.03,4.16-.1,.88-3.85,1.65-7.7,1.93-9.98l4.52,.7c-.14,.42-.35,.81-1.4,.88-.38,2.07-1.05,5.11-1.82,8.3l3.99-.17c.07-1.22,.07-2.45,.07-3.67l4.69,.8c-.14,.59-.59,.88-1.37,.95-.04,.56-.07,1.16-.1,1.75l2.73-.14,.04,.56Zm-6.12,1.33c-1.37,.28-2.84,.59-4.48,.91-.74,2.77-1.51,5.57-2.28,7.84,1.75,.63,3.22,1.26,4.45,1.86,1.37-3.29,2.03-6.86,2.31-10.61Zm21.11-5.25c-.24,.31-.8,.59-1.54,.77v21.74c-.04,.32-1.61,1.16-2.8,1.16h-.56v-3.05h-6.44v2.73c0,.39-1.26,1.19-2.7,1.19h-.56V29.96l3.39,1.54h5.95l1.71-1.96,3.54,2.84Zm-4.9,19.6v-19.5h-6.44v19.5h6.44Z"/>
      <path class="cls-2" d="M463.91,29.93c-.25,.28-.73,.6-1.47,.74v24.05c0,2.31-.6,3.71-5.04,4.1-.14-.95-.38-1.68-1.01-2.17-.74-.49-1.75-.91-3.82-1.16v-.52s4.66,.31,5.64,.31c.73,0,.95-.28,.95-.88V30.07h-21.28v27.48c0,.42-1.26,1.23-2.7,1.23h-.56V27.55l3.54,1.5h20.65l1.61-1.85,3.5,2.73Zm-9.91,2.28s2.21,1.61,3.54,2.8c-.11,.38-.45,.56-.95,.56h-16.42l-.28-1.01h12.25l1.86-2.35Zm.91,18.55c-.03,.28-1.58,.98-2.66,.98h-.52v-3.15h-6.69v2.94c0,.28-1.37,.98-2.63,.98h-.49v-14l3.29,1.37h6.2l1.54-1.61,3.26,2.45c-.18,.25-.67,.53-1.3,.63v9.42Zm-3.18-3.15v-6.72h-6.69v6.72h6.69Z"/>
      <path class="cls-2" d="M493.94,40.88l2.59-3.54s2.94,2.45,4.73,4.13c-.1,.42-.53,.56-1.08,.56h-30.98l-.35-1.15h25.1Z"/>
      <path class="cls-2" d="M537.69,34.09c-.28,.31-.66,.38-1.37,.42-1.01,.95-2.8,2.28-4.1,2.98l-.42-.25c.35-.84,.77-2.24,1.05-3.36h-21.81v6.97c0,5.46-.28,13.02-5.64,18.03l-.38-.31c2.62-5.25,2.76-11.9,2.76-17.68v-9.42l3.78,1.4h7.53v-6.62l4.58,.38c-.07,.49-.35,.84-1.26,.98v2.07h5.74l2-2.52s2.27,1.75,3.64,2.98c-.07,.38-.42,.56-.95,.56h-10.43v2.17h10.33l1.75-1.79,3.19,3.01Zm-13.79,11.8c-.24,.32-.59,.42-1.36,.49-.95,2.77-2.31,5.15-4.34,7.14,2.28,1.54,5.22,1.89,9.28,1.89,2.31,0,7.63,0,10.15-.07v.46c-1.08,.21-1.64,1.26-1.64,2.45h-8.65c-4.83,0-8.16-.77-10.54-3.54-2.1,1.68-4.83,2.98-8.26,3.89l-.28-.56c3.15-1.23,5.64-2.83,7.46-4.87-.63-1.12-1.16-2.45-1.61-4.06-.95,1.4-2.03,2.7-3.25,3.71l-.46-.31c1.96-2.7,3.4-7.32,3.96-11.1l3.99,.88c-.14,.39-.38,.56-1.26,.49-.25,.74-.53,1.47-.84,2.21h3.18l1.65-1.54,2.83,2.45Zm-.66-11.24c-.03,.42-.38,.74-1.01,.84v1.75l3.89-.35,1.47-2.24s2.03,1.3,3.29,2.24c-.03,.39-.38,.63-.84,.66l-7.81,.7v1.29c0,.46,.1,.6,1.33,.6h3.75c1.4,0,2.8-.04,3.33-.04,.35-.04,.7-.07,.91-.11,.28-.03,.7-.1,.95-.17h.35l.17,.04c.95,.32,1.26,.56,1.26,1.16,0,1.29-1.26,1.58-7.32,1.58h-3.99c-3.26,0-3.85-.56-3.85-2.62v-1.44l-6.51,.63-.38-.98,6.9-.63v-3.29l4.13,.38Zm-7.46,11.34c-.35,.8-.77,1.61-1.23,2.38,.56,1.54,1.26,2.77,2.07,3.71,1.37-1.79,2.31-3.82,2.94-6.09h-3.78Zm16.03,7.56c-2,0-2.21-.63-2.21-2.28v-5.67h-2.59v.74c0,2.17-.6,5.67-5.39,7.74l-.32-.46c2.59-2.28,2.87-5.01,2.87-7.28v-3.04l3.33,1.29h1.79l1.47-1.54,2.8,2.34c-.25,.25-.59,.42-1.19,.53v4.8c0,.35,.07,.42,.42,.42h1.19c.18,0,.35-.04,.49-.21,.18-.25,.53-1.19,.81-2.14h.38l.1,2.17c.74,.31,.91,.59,.91,1.08,0,1.08-1.01,1.5-3.54,1.5h-1.33Z"/>
      <path class="cls-2" d="M569.89,27.9s2.45,1.79,3.96,3.08c-.11,.38-.46,.56-.98,.56h-30.7l-.28-1.01h15.12c-.42-1.58-1.92-3.29-3.25-4.27l.28-.25c6.13,.1,6.76,3.33,5.39,4.52h8.26l2.21-2.62Zm-.04,13.58l3.57,2.7c-.21,.25-.74,.56-1.47,.7v9.98c0,2.24-.52,3.57-4.48,3.92-.1-1.02-.24-1.72-.73-2.21-.45-.49-1.23-.88-2.8-1.09v-.49s3.15,.21,3.96,.21c.59,0,.73-.25,.73-.7v-10.22h-21.28v13.37c0,.28-1.43,1.05-2.76,1.05h-.53v-16.87l3.57,1.44h20.65l1.58-1.79Zm-6.65,.42v-1.5h-10.64v.8c0,.28-1.47,1.02-2.8,1.02h-.45v-9.35l3.46,1.4h10.08l1.61-1.75,3.54,2.62c-.25,.28-.77,.6-1.47,.74v5.22c-.04,.21-1.72,.8-2.77,.8h-.56Zm1.02,12.08c-.04,.25-1.58,.91-2.59,.91h-.53v-1.71h-6.62v1.26c0,.28-1.4,.95-2.62,.95h-.46v-9.7l3.22,1.33h6.16l1.51-1.54,3.22,2.35c-.21,.28-.67,.56-1.3,.7v5.46Zm-1.02-14.6v-4.09h-10.64v4.09h10.64Zm-2.1,12.78v-4.13h-6.62v4.13h6.62Z"/>
      <path class="cls-2" d="M580.87,49.04c1.23,3.64,.84,6.41-.1,7.77-.66,.91-2.24,1.12-2.87,.18-.46-.84-.07-1.79,.7-2.42,.91-1.01,1.93-3.43,1.72-5.53h.56Zm-2.7-4.45s.81-.17,1.12-.38c1.71-1.33,3.82-3.89,5.53-6.44-1.26,.45-2.8,.98-4.34,1.47-.25,.35-.53,.59-.81,.7l-1.54-3.71s.7-.14,.98-.35c1.86-1.92,4.17-6.93,4.94-9.59l4.1,2.06c-.18,.32-.56,.56-1.26,.49-1.43,2.28-4.09,5.46-6.41,7.56,1.43,0,3.33,0,5.29-.04,.81-1.37,1.51-2.63,1.96-3.64l3.71,2.52c-.17,.28-.67,.49-1.33,.35-1.93,2.66-5.71,6.44-9.14,9,1.85-.11,4.38-.28,6.93-.46-.39-1.26-.95-2.52-1.44-3.43l.42-.17c6.51,3.54,3.82,8.44,1.54,6.3-.04-.56-.1-1.19-.28-1.79-1.96,.7-4.73,1.65-7.7,2.52-.28,.38-.59,.63-.95,.73l-1.33-3.71Zm5.71,3.85c5.15,4.48,1.89,9.21-.14,6.69,.35-2.14,.07-4.76-.35-6.55l.49-.14Zm3.4-.63c6.12,2.62,3.43,7.32,1.22,5.29,0-1.71-.8-3.78-1.65-5.08l.42-.21Zm22.86-8.3c-.24,.35-.63,.46-1.43,.56-1.02,4.03-2.59,7.7-5.15,10.89,2.07,2.06,4.55,3.71,7.28,4.9l-.1,.38c-1.37,.11-2.45,1.01-3.08,2.52-2.42-1.58-4.38-3.43-6.02-5.78-2.45,2.38-5.63,4.31-9.73,5.71l-.28-.49c3.71-1.82,6.62-4.27,8.79-7.14-1.68-3.12-2.87-6.9-3.57-11.55h-.53c-.56,7.28-2.21,13.97-7.42,19.25l-.56-.49c5.32-8.19,5.18-18.48,5.22-28.46h-2.59l-.32-1.02h11.94l1.4-1.57,3.15,2.52c-.28,.28-.59,.39-1.23,.46l-1.19,8.3h.46l1.85-1.79,3.12,2.8Zm-13.48-9.7c-.04,2.94-.07,5.85-.28,8.68h5.22l1.19-8.68h-6.12Zm.88,9.7c.84,3.78,2.28,6.93,4.27,9.45,1.75-2.83,2.87-6.05,3.57-9.45h-7.84Z"/>
      <path class="cls-2" d="M626.83,43.65c-.24,.35-.59,.46-1.33,.49-.84,2.49-2.49,5.18-4.73,7.32,.14,.07,.32,.18,.49,.32,2.91,2.62,6.97,3.12,14.18,3.12,4.06,0,7.49-.04,11.62-.25v.46c-1.4,.28-2.17,1.4-2.38,2.73h-10.33c-7.28,0-10.47-1.26-13.55-4.94-.46-.56-.84-.49-1.16,.07-.63,1.05-1.85,3.01-2.73,4.66,.1,.28,0,.53-.25,.7l-2.41-3.29c1.5-.94,3.75-2.7,5-3.39,1.33-2.24,2.38-5.18,2.87-7.74h-2.84l-1.16,1.05-2.73-2.13c.32-.21,.84-.46,1.37-.63,1.23-1.65,2.77-4.06,3.78-5.85h-5.6l-.31-1.02h6.06l1.58-1.61,3.15,2.87c-.35,.35-1.02,.52-1.89,.56-.98,1.58-2.59,3.99-3.82,5.74h2.24l1.79-1.75,3.08,2.52Zm-10.61-16.98c8.89,1.16,6.51,7.63,3.22,5.6-.46-1.89-2.1-4.06-3.54-5.36l.32-.25Zm9.59,19.74c1.01-.53,1.19-.81,1.19-1.44v-15.58l2.59,.56c1.29-1.29,2.66-2.76,3.47-3.71l3.75,2.34c-.14,.28-.49,.42-1.26,.25-1.3,.67-3.57,1.61-5.6,2.38v13.76c1.26-.56,2.62-1.22,4.03-1.92l.21,.38c-1.02,1.08-3.05,3.26-5.36,5.46-.28,.74-.77,1.19-1.19,1.4l-1.82-3.89Zm12.36-15.54h3.46l1.4-1.71,3.36,2.52c-.25,.31-.77,.59-1.47,.73v13.48c0,2.24-.42,3.47-3.82,3.82-.07-.91-.21-1.68-.56-2.13-.38-.49-1.01-.81-2.24-1.02v-.52s2.42,.17,3.01,.17c.52,0,.66-.17,.66-.63v-13.69h-4.06v20.93c0,.21-.95,.98-2.49,.98h-.49V29.54l3.22,1.33Z"/>
      <path class="cls-2" d="M674.54,52.89h-14.98v.77c0,.35-1.4,1.08-2.73,1.08h-.49v-11.48c-1.89,.28-3.75,.49-5.67,.67l-.11-.67c1.92-.28,3.85-.66,5.78-1.08v-2.21c-1.37,.46-2.8,.84-4.24,1.12l-.25-.49c3.05-1.29,6.34-3.71,7.88-5.46l3.61,2.14c-.25,.35-.8,.46-1.71,.28-1.3,.81-3.15,1.65-5.15,2.38l3.33,1.4h.04c1.89-.49,3.71-1.05,5.46-1.61v-5.18h-8.3l-.28-1.02h15.75l1.72-1.92s1.92,1.33,3.12,2.38c-.11,.39-.46,.56-.95,.56h-7.88v4.03c3.15-1.23,5.88-2.56,7.81-3.82l3.33,2.45c-.31,.35-.94,.42-1.96,.1-3.04,1.47-7.07,2.87-11.59,4.03h8.16l1.58-1.72,3.33,2.56c-.21,.25-.67,.52-1.3,.67v10.12c-.04,.28-1.64,1.01-2.73,1.01h-.56v-1.09Zm-23.66,5.25c4.66-1.09,9.77-3.36,12.25-5.25l3.67,2.7c-.28,.32-.94,.38-1.89,.14-3.33,1.44-8.79,2.63-13.9,2.94l-.14-.52Zm4.69-26.92c.14,2.13-.7,3.64-1.75,4.3-.94,.56-2.34,.42-2.76-.63-.32-.98,.28-1.82,1.16-2.28,1.22-.59,2.34-2.27,2.17-4.06l.56-.04c.21,.59,.39,1.16,.49,1.68h11.34c-.25-.07-.49-.21-.77-.42-.04-1.29-.91-2.77-1.89-3.57l.28-.25c5.92,.17,5.57,3.57,3.75,4.24h10.26l1.79-1.82,3.15,3.05c-.28,.28-.67,.35-1.33,.38-.95,1.01-2.52,2.42-3.82,3.22l-.39-.25c.28-.98,.6-2.42,.81-3.57h-23.03Zm6.09,11.13c-.7,.14-1.4,.28-2.1,.42v2.14h14.98v-2.56h-12.88Zm-2.1,6.02h14.98v-2.45h-14.98v2.45Zm14.98,3.5v-2.49h-14.98v2.49h14.98Zm-5.74,1.96c19.11,.14,13.27,6.58,9.84,4.31-1.96-1.3-5.29-2.8-9.98-3.78l.14-.52Z"/>
      <path class="cls-2" d="M706.49,27.34c-.14,.42-.56,.59-1.61,.7,3.29,3.08,9.49,5.29,14.74,6.41v.53c-1.43,.38-2.41,1.79-2.62,3.08-1.29-.49-2.56-1.05-3.78-1.71l2.55,1.96c-.14,.14-.52,.35-.98,.46v6.83c-.04,.25-1.54,.88-2.52,.88h-.53v-1.09h-16.91v.42c0,.1-.17,.35-.49,.56l3.36,1.37h11.06l1.5-1.58,3.19,2.35c-.18,.21-.53,.45-1.05,.56v8.61c-.03,.28-1.64,1.01-2.8,1.01h-.56v-1.68h-11.55v.77c0,.32-1.44,1.05-2.84,1.05h-.46v-12.36c-.42,.25-1.05,.49-1.82,.49h-.53v-9.73c-1.47,.66-2.98,1.26-4.45,1.75l-.21-.49c5.78-2.76,12.36-8.47,14.04-12.39l5.25,1.26Zm6.37,8.79c-3.64-2-6.75-4.69-8.54-7.7-2.34,2.87-6.62,5.92-11.24,8.19l2.21,.91h16.21l1.37-1.4Zm-18.03,8.23h7v-5.85h-7v5.85Zm1.71-5.46c5.95,2.35,3.19,6.51,1.16,4.52,0-1.43-.8-3.22-1.54-4.3l.38-.21Zm.95,9.8v3.15h11.55v-3.15h-11.55Zm11.55,7.28v-3.12h-11.55v3.12h11.55Zm-2.76-23.35s1.79,1.37,2.87,2.38c-.11,.38-.42,.56-.88,.56h-10.19l-.28-1.01h6.86l1.61-1.93Zm5.46,11.73v-5.85h-7.04v5.85h1.33c.67-1.58,1.43-3.82,1.86-5.46l3.67,1.23c-.14,.42-.59,.7-1.33,.63-.8,1.09-2.07,2.45-3.29,3.61h4.79Z"/>
      <path class="cls-2" d="M732.32,49.11c8.19,3.19,5.46,9.14,2.66,6.83-.14-.98-.53-2.13-1.05-3.22-1.65,1.19-3.99,2.94-6.62,4.69-.25,.52-.63,.88-.98,1.05l-1.72-3.33c1.02-.59,1.19-.84,1.19-1.58v-16.84c-.74,.74-1.5,1.4-2.24,2l-.38-.31c2.34-3.29,4.45-8.96,5.18-12.53l5,1.08c-.1,.42-.46,.67-1.37,.77v.04c9.03,2.98,5.32,8.02,3.05,6.02-.42-1.54-1.58-3.71-3.29-5.5-.88,1.92-2.24,4.06-3.81,6.02h3.43l1.51-1.96s1.75,1.37,2.84,2.42c-.07,.38-.42,.56-.88,.56h-7.07l-.17-.59c-.53,.7-1.16,1.37-1.79,1.96l3.12,1.3h4.2l1.44-1.51,2.98,2.28c-.17,.21-.6,.46-1.16,.56v7.98c-.04,.28-1.47,.91-2.45,.91h-.49v-1.02h-4.66v6.62c1.43-.53,3.12-1.16,4.83-1.79-.52-1.02-1.12-2-1.68-2.77l.38-.14Zm-3.54-7.18h4.66v-3.01h-4.66v3.01Zm4.66,4.24v-3.22h-4.66v3.22h4.66Zm18.17-10.75c.1-.8,.25-2.1,.35-3.19h-11.1c.1,1.33-.17,2.35-.67,3.01l2.8,1.22h6.48l1.47-1.54,3.08,2.35c-.21,.25-.66,.52-1.26,.63v6.55c-.04,.21-1.54,.77-2.49,.77h-.49v-1.43h-6.97v3.92h7.67l1.5-1.61,3.12,2.41c-.17,.25-.67,.53-1.3,.67v8.12c-.04,.25-1.5,.84-2.49,.84h-.49v-2.24h-8.02v1.71c0,.31-1.19,1.05-2.52,1.05h-.49v-23.07l-.04,.04c-.81,.53-2.1,.46-2.45-.56-.32-.91,.21-1.71,1.05-2.2,.7-.56,1.44-2.03,1.23-3.25h.56c.21,.56,.38,1.08,.49,1.61h10.99l1.71-1.79,3.12,3.01c-.25,.28-.63,.35-1.29,.38-.84,.84-2.24,2.1-3.15,2.8l-.42-.21Zm-8.79,2.07v5.29h6.97v-5.29h-6.97Zm0,11.24v6.16h8.02v-6.16h-8.02Zm.98-22.75c7.74,1.08,4.62,6.83,1.68,4.55-.07-1.54-1.05-3.29-2-4.34l.32-.21Z"/>
      <path class="cls-2" d="M764.49,46.13c2.07-1.19,3.01-2.7,3.46-4.52-1.82-.8-2.97-1.68-2.97-3.18,0-1.26,.88-2.35,2.41-2.35s2.66,1.16,2.66,3.33c0,2.66-1.26,6.06-4.97,7.84l-.59-1.12Z"/>
      <path class="cls-2" d="M18.04,82.55v19.22c0,.42-1.16,1.23-2.66,1.23h-.56v-31.5l3.4,1.51h5.53l1.47-1.61,3.22,2.42c-.21,.25-.67,.53-1.3,.63v8.72c-.03,.28-1.54,.98-2.59,.98h-.49v-1.58h-6.02Zm0-8.54v3.22h6.02v-3.22h-6.02Zm6.02,7.53v-3.33h-6.02v3.33h6.02Zm9.77,11.55v7.56c0,.17-.95,.74-2.38,.74h-.52v-8.3h-3.85c-.35,3.04-1.75,6.41-6.69,8.61l-.35-.42c3.08-2.42,4.03-5.36,4.27-8.19h-4.34l-.28-.98h4.66c.04-.38,.04-.8,.04-1.19v-3.82h-3.64l-.28-1.02h13.09l1.68-2.17s1.89,1.5,3.05,2.62c-.07,.38-.42,.56-.91,.56h-3.54v5h.56l1.61-2.17s1.82,1.5,2.94,2.59c-.11,.39-.45,.56-.95,.56h-4.16Zm-2.91-.98v-5h-3.71v3.82c0,.38,0,.77-.04,1.19h3.75Zm14.11-18.27c-.25,.28-.81,.59-1.47,.74v24.33c0,2.38-.46,3.71-4.2,4.1-.07-1.02-.21-1.86-.59-2.31-.45-.53-1.09-.91-2.45-1.16v-.49s2.73,.18,3.29,.18,.7-.21,.7-.66v-16h-6.27v.38c0,.28-1.37,.98-2.66,.98h-.46v-12.29l3.25,1.37h5.78l1.54-1.86,3.54,2.7Zm-10.99,.17v3.22h6.27v-3.22h-6.27Zm6.27,7.53v-3.33h-6.27v3.33h6.27Z"/>
      <path class="cls-2" d="M54.47,81.39v20.37c0,.42-1.19,1.23-2.66,1.23h-.56v-31.57l3.4,1.5h5.74l1.47-1.61,3.19,2.42c-.17,.25-.67,.53-1.29,.63v7.66c-.04,.28-1.54,.91-2.56,.91h-.52v-1.54h-6.2Zm0-7.46v2.66h6.2v-2.66h-6.2Zm6.2,6.44v-2.8h-6.2v2.8h6.2Zm-4.97,7.21c6.16,.21,4.2,4.76,1.82,3.26-.25-1.08-1.23-2.35-2.1-2.98l.28-.28Zm25.69-13.83c-.25,.28-.77,.6-1.44,.74v24.5c0,2.34-.46,3.64-4.13,3.96-.07-.95-.21-1.75-.56-2.24-.35-.42-.84-.77-1.82-.98v.6c-.04,.21-1.37,.77-2.24,.77h-.46v-1.47h-5.04v1.01c0,.21-1.16,.84-2.28,.84h-.38v-9.31l2.83,1.16h.98v-3.33h-4.87l-.07-.28c-.67,1.79-1.47,3.85-1.68,4.45-.24,.7-.45,1.5-.42,2.1,0,.98,.84,1.79,.8,3.33-.04,.98-.63,1.68-1.92,1.68-.53,0-.98-.42-1.09-1.09,.32-2.28,.14-3.5-.49-3.82-.39-.21-.77-.31-1.37-.38v-.74h1.5c.38,0,.46,0,.8-.56q.53-.81,3.96-7.04l.6,.17-.42,1.16h4.66v-2.98c-1.47,.14-3.01,.28-4.41,.32l-.18-.63c3.26-.67,7.32-2,9.35-2.98l2.55,2.52c-.35,.32-.95,.28-1.71-.07-.84,.17-1.82,.35-2.91,.49v3.33h1.86l1.54-1.89s1.68,1.37,2.73,2.34c-.11,.38-.42,.56-.88,.56h-5.25v3.33h.95l1.26-1.29,2.73,2.03c-.14,.21-.56,.42-1.05,.52v4.59c.73,.04,2.17,.14,2.59,.14,.53,0,.63-.21,.63-.66v-17.26h-6.48v.46c0,.32-1.33,.95-2.66,.95h-.42v-11.2l3.25,1.33h5.95l1.58-1.86,3.5,2.7Zm-23.84,9.63c6.16,.42,4.13,4.87,1.79,3.4-.25-1.12-1.19-2.42-2.1-3.12l.32-.28Zm13.2,15.23v-4.27h-5.04v4.27h5.04Zm-.56-24.68v2.66h6.48v-2.66h-6.48Zm6.48,6.44v-2.8h-6.48v2.8h6.48Z"/>
      <path class="cls-2" d="M98.61,79.15c-.31,.32-.74,.38-1.54,.46-.8,1.86-1.96,3.78-3.33,5.67,7.11,2.49,4.69,7.35,2.13,5.39-.28-1.37-1.22-2.94-2.17-4.2v15.4c0,.21-1.05,1.05-2.56,1.05h-.56v-13.93c-1.5,1.58-3.15,2.98-4.87,4.1l-.39-.35c3.61-3.71,6.93-9.28,8.33-13.79h-7.42l-.31-1.01h7.6l1.89-1.82,3.19,3.04Zm-9.1-8.58c7.95,1.96,4.69,7.39,1.92,5.01-.17-1.61-1.29-3.57-2.24-4.8l.32-.21Zm28.28,28.35c.8,.38,.94,.77,.94,1.37,0,1.22-1.08,1.89-5,1.89h-2.21c-2.59,0-2.98-.73-2.98-2.76v-9.38h-1.68c-.45,4.97-1.89,9.73-10.5,12.95l-.42-.53c6.58-3.71,7.28-8.09,7.46-12.43h-.28v.94c0,.35-1.33,1.08-2.7,1.08h-.49v-20.55l3.36,1.47h8.79l1.61-1.82,3.36,2.66c-.25,.28-.77,.59-1.47,.74v16.21c-.03,.25-1.58,.95-2.62,.95h-.53v-1.68h-.73v8.61c0,.42,.1,.56,.77,.56h1.58c.63,0,1.16,0,1.44-.04,.28,0,.38-.07,.56-.39,.25-.56,.7-2.42,1.23-4.38h.42l.11,4.52Zm-14.67-24.92v4.34h9.31v-4.34h-9.31Zm0,9.49h9.31v-4.13h-9.31v4.13Zm0,5.53h9.31v-4.52h-9.31v4.52Z"/>
      <path class="cls-2" d="M155.42,85c-.28,.28-.67,.35-1.37,.38-1.12,1.75-3.19,4.1-4.9,5.57l-.38-.28c.63-1.65,1.37-4.06,1.82-5.92h-3.26v13.72c0,2.42-.59,4.13-4.76,4.48-.07-1.05-.28-1.93-.84-2.45-.59-.56-1.5-.98-3.36-1.23v-.49s4.03,.25,4.87,.25c.6,0,.81-.17,.81-.67v-13.62h-5.81v1.37c-.04,.28-1.54,1.12-2.7,1.12h-.53v-1.54h-2.98v4.87h2.35l1.75-2.34s2,1.64,3.15,2.8c-.1,.38-.46,.56-.91,.56h-6.34v4.66c2.38-.42,4.97-.91,7.6-1.4l.1,.49c-3.29,1.44-8.05,3.29-14.98,5.71-.17,.46-.49,.74-.88,.88l-1.96-4.03c1.5-.18,4.03-.6,7.07-1.12v-5.18h-5.92l-.28-1.02h6.2v-4.87h-2.91v1.47c0,.32-1.23,.95-2.45,.95h-.42v-16.24l3.04,1.29h8.4l1.61-1.71,3.29,2.52-.25-.84h10.05l2-1.86,3.29,3.15c-.28,.25-.7,.35-1.44,.38-1.44,1.23-3.82,2.73-5.95,3.89,2.91,2.35,1.44,5.46-.94,4.2-.84-2.24-3.43-4.76-5.6-6.06l.31-.31c2.35,.28,4.06,.84,5.29,1.54,1.01-1.23,2.1-2.7,2.87-3.92h-9.56v-.03c-.28,.25-.74,.49-1.4,.63v9h12.15l1.85-1.82,3.19,3.08Zm-29.33-10.82v4.8h2.91v-4.8h-2.91Zm2.91,10.5v-4.72h-2.91v4.72h2.91Zm3.04-10.5v4.8h2.98v-4.8h-2.98Zm2.98,10.5v-4.72h-2.98v4.72h2.98Z"/>
      <path class="cls-2" d="M189.12,90.6s1.71,1.58,2.66,2.7c-.07,.38-.42,.56-.88,.56h-32.24l-.28-1.02h3.78l-.52-20.44,3.29,1.12c1.23-1.16,2.49-2.45,3.08-3.19l2.91,2.77c-.25,.25-.59,.28-1.12,.04-1.05,.46-3.08,1.23-5,1.71l.14,4.97h1.33l1.29-1.82s1.44,1.29,2.28,2.28c-.1,.38-.42,.56-.88,.56h-3.99l.14,5.63h1.4l1.33-1.92s1.47,1.4,2.35,2.38c-.07,.39-.42,.56-.88,.56h-4.17l.14,5.36h19.01l.14-5.36h-3.75l-.32-1.02h4.06l.14-5.63h-3.39l-.32-1.02h3.75l.11-5.53h-4.24l-.32-1.02h4.24l1.47-1.79,3.22,2.7c-.25,.32-.56,.42-1.26,.53l-.42,18.13h.21l1.5-2.24Zm-30.24,11.94c4.03-2,8.16-5.6,9.94-8.23l4.55,2.03c-.21,.42-.73,.6-1.79,.49-2.73,2.35-7.53,4.8-12.46,6.16l-.25-.46Zm16.03-19.08c-.11,.42-.49,.77-1.23,.8-.8,2.91-2.07,5.74-3.64,7.63l-.56-.28c.8-2.38,1.4-5.78,1.61-8.96l3.82,.8Zm-5.08-3.12c.32-.25,.81-.53,1.26-.74,.38-2.59,.8-6.86,.84-8.89l3.96,.59c-.07,.38-.38,.81-1.22,.88-.07,.74-.14,1.61-.25,2.49h2.42l1.4-1.89s1.54,1.4,2.45,2.34c-.07,.38-.42,.56-.88,.56h-5.5c-.14,1.47-.31,2.97-.49,4.24h2.91l1.44-1.47,2.8,2.31c-.25,.28-.67,.42-1.37,.53-.21,6.37-.74,8.96-1.96,9.98-.8,.67-1.85,.95-3.08,.95,0-.77-.07-1.44-.46-1.79-.35-.35-1.01-.63-1.86-.81v-.56c.84,.07,2.14,.14,2.7,.14,.49,0,.7-.04,.95-.25,.6-.56,.98-2.91,1.16-8.02h-3.04l-1.19,1.4-2.98-2Zm8.51,14.67c17.15,2.73,11.66,10.26,8.54,7.14-1.4-2.06-4.2-4.66-8.72-6.62l.17-.53Z"/>
      <path class="cls-2" d="M223.42,97.88s2.35,1.79,3.82,3.04c-.1,.38-.45,.56-.98,.56h-30.66l-.32-1.01h14.14v-5.22h-10.22l-.28-1.01h10.5v-4.97l4.69,.38c-.04,.53-.32,.84-1.19,.98v3.61h5.22l2-2.45s2.24,1.68,3.68,2.91c-.11,.38-.46,.56-.95,.56h-9.94v5.22h8.4l2.1-2.59Zm-23.1-21.74c.14,2.34-.74,3.96-1.86,4.69-.98,.66-2.45,.52-2.87-.56-.39-1.01,.25-1.89,1.12-2.34,1.29-.67,2.55-2.56,2.45-4.59l.52-.04c.25,.63,.39,1.26,.49,1.82h11.34c-.32-.04-.63-.17-.95-.38-.25-1.5-1.4-3.19-2.59-4.1l.28-.25c6.65,.07,6.13,4.34,3.92,4.73h10.12l1.82-1.86,3.22,3.12c-.28,.28-.63,.39-1.33,.42-.88,1.08-2.31,2.59-3.5,3.43l-.39-.21c.18-1.05,.39-2.62,.49-3.88h-22.3Zm-.98,11.13s.74-.11,1.08-.28c2.62-1.05,6.06-4.03,7.81-6.02h-8.02l-.28-1.01h17.15l1.89-2.24s2.14,1.54,3.47,2.7c-.07,.38-.46,.56-.91,.56h-11.31l2.73,1.44c-.17,.31-.63,.56-1.37,.42-2.06,1.47-5.57,3.33-8.79,4.58,3.88-.04,9.84-.17,16.1-.42-1.08-1.29-2.31-2.49-3.36-3.36l.35-.28c10.47,2.35,8.79,9.07,5.36,7.25-.38-.91-1.01-1.89-1.75-2.87-4.24,.7-10.4,1.61-17.64,2.45-.28,.49-.63,.8-.98,.95l-1.54-3.85Z"/>
      <path class="cls-2" d="M262.69,79.99c-.18,.28-.74,.6-1.44,.7v18.1c0,2.45-.56,3.89-4.9,4.31-.17-1.08-.38-1.89-.98-2.42-.66-.56-1.61-1.01-3.54-1.26v-.53s4.2,.32,5.22,.32c.63,0,.8-.28,.8-.81v-7.32c-1.12,.38-2.13,1.4-2.49,2.45-3.82-2.56-6.06-6.13-7.39-10.85-1.43,4.06-4.09,8.16-9.94,11.03l-.39-.46c4.83-3.85,7-8.96,7.81-13.13h-8.09v21.67c0,.38-1.37,1.19-2.8,1.19h-.56v-25.38l3.67,1.5h9.45c-.32-1.79-.56-3.75-.74-5.81h-5.71l-.32-.98h5.18l1.26-1.86,3.29,2.38c-.46,.49-1.44,.77-2.73,.88,.28,1.89,.63,3.68,1.16,5.39h9l1.58-1.85,3.57,2.73Zm-13.79,.14c1.61,4.58,4.34,8.33,8.96,10.54v-10.54h-8.96Z"/>
      <path class="cls-2" d="M285.44,81.95c1.22,6.54,5.15,13.27,15.23,17.54l-.07,.39c-1.75,.31-2.83,1.26-3.22,3.15-8.82-5.11-11.55-13.62-12.53-20.58-1.01,8.3-4.38,15.47-16.77,20.58l-.38-.56c9.98-5.71,12.85-12.6,13.65-20.51h-12.99l-.32-1.02h13.37c.28-3.29,.24-6.76,.24-10.36l4.97,.49c-.1,.53-.42,.88-1.26,1.02-.07,3.04-.11,6.02-.35,8.86h8.86l2.28-2.87s2.59,1.96,4.13,3.33c-.1,.38-.49,.56-.98,.56h-13.86Z"/>
      <path class="cls-2" d="M311.65,92.66c1.58-.46,3.19-.95,4.83-1.44l.14,.45c-2.14,1.4-5.29,3.47-9.77,5.99-.14,.46-.42,.81-.8,.95l-2.03-3.96c.95-.21,2.52-.59,4.45-1.12v-12.04h-4.06l-.28-1.02h4.34v-9.24l4.48,.45c-.1,.49-.38,.84-1.29,.98v7.81h1.09l1.58-2.45s1.82,1.71,2.8,2.91c-.07,.38-.42,.56-.91,.56h-4.55v11.17Zm23.7,5.78c1.16,.38,1.47,.74,1.47,1.33,0,1.58-1.72,2.07-9.31,2.03h-5.04c-3.85,0-5.15-.66-5.15-3.5v-13.34l-3.12,1.37-.7-.8,3.82-1.65v-8.58l4.38,.49c-.07,.46-.42,.84-1.22,.95v5.78l3.75-1.65v-10.5l4.34,.45c-.11,.49-.39,.84-1.3,.98v7.74l4.1-1.75,.07-.04,1.64-1.68,2.98,3.08c-.28,.28-.67,.42-1.4,.46-.8,4.13-2.38,10.12-4.41,14.07l-.46-.25c.84-4.34,1.4-10.36,1.61-14.56l-4.13,1.79v14.11c0,.35-1.33,1.05-2.49,1.05h-.56v-13.83l-3.75,1.65v13.9c0,1.02,.42,1.37,2.31,1.37h4.94c2.1,0,3.64-.04,4.38-.11,.56-.03,.88-.17,1.16-.52,.38-.63,.94-2.45,1.58-4.9h.42l.1,5.08Z"/>
      <path class="cls-2" d="M354.7,70.71s2.07,1.61,3.26,2.8c-.11,.39-.38,.56-.91,.56h-5.18v5.04h.84l1.54-1.71,3.15,2.56c-.21,.28-.73,.56-1.43,.7v20.62c-.04,.28-1.44,.95-2.45,.95h-.46v-2.24h-8.47v1.86c0,.31-1.09,1.01-2.35,1.01h-.46v-25.06l2.98,1.33h.95v-5.04h-4.8l-.28-1.02h12.32l1.75-2.34Zm-1.64,28.25v-9.66c-.28,.04-.63,.04-1.02,.04h-.88c-1.43,0-1.68-.53-1.68-1.75v-7.45h-1.4v1.43c0,2.63-.25,6.58-3.47,9.28l-.03-.04v8.16h8.47Zm-8.47-18.83v9.63c1.58-2.73,1.61-5.78,1.61-8.19v-1.43h-1.61Zm5.71,11.1s1.33,1.12,2.17,2c-.1,.39-.42,.56-.88,.56h-5.95l-.28-1.02h3.75l1.19-1.54Zm-.8-17.15h-1.4v5.04h1.4v-5.04Zm1.96,6.06v6.76c0,.35,.07,.46,.32,.46h1.29v-7.21h-1.61Zm20.83,18.17c.98,.35,1.22,.73,1.22,1.33,0,1.37-1.43,2-7.17,2h-3.75c-3.19,0-3.96-.7-3.96-3.08v-17.12l3.54,1.4h5.67v-8.72h-8.93l-.32-1.02h8.86l1.64-1.82,3.54,2.7c-.24,.32-.88,.67-1.68,.84v11.41c-.04,.21-1.58,.84-2.59,.84h-.52v-3.22h-6.13v13.97c0,.63,.21,.88,1.5,.88h3.33c1.47,0,2.59-.04,3.05-.07,.45-.04,.63-.14,.8-.52,.35-.63,.84-2.7,1.37-5.01h.46l.07,5.22Z"/>
      <path class="cls-2" d="M407.42,98.26c1.5,.42,2,.63,2,1.33,0,1.58-1.47,2.59-7.98,2.59h-13.13c-4.69,0-6.9-1.12-6.9-4.9v-14.95c-1.44,1.22-2.94,2.31-4.48,3.19l-.35-.35c3.99-3.46,7.91-9.7,9.77-14.91l4.87,1.26c-.14,.38-.46,.56-1.37,.49-.46,.84-.98,1.68-1.54,2.52h6.76l1.92-1.89,3.33,2.94c-.28,.28-.7,.35-1.4,.42-1.4,1.4-3.54,3.4-5.53,4.66h8.05l1.68-1.85,3.57,2.73c-.25,.32-.81,.63-1.54,.77v9.35c-.04,.25-1.68,.91-2.77,.91h-.56v-2.31h-17.15v7.14c0,1.33,1.16,1.64,3.5,1.64h12.95c2.21,0,3.22-.14,3.85-.98,.59-.77,1.43-3.12,2-4.97h.42l.04,5.18Zm-19.85-22.72c-1.12,1.58-2.42,3.12-3.82,4.59l1.37,.52h7.39c.91-1.4,1.96-3.54,2.59-5.11h-7.53Zm-2.91,13.69h6.86v-7.56h-6.86v7.56Zm10.08-7.56v7.56h7.07v-7.56h-7.07Z"/>
      <path class="cls-2" d="M417.99,90.35c2.07-1.19,3.01-2.7,3.46-4.52-1.82-.8-2.97-1.68-2.97-3.18,0-1.26,.88-2.35,2.41-2.35s2.66,1.16,2.66,3.33c0,2.66-1.26,6.06-4.97,7.84l-.59-1.12Z"/>
      <path class="cls-2" d="M461.32,90.56s2.03,1.79,3.19,3.05c-.11,.38-.46,.56-.95,.56h-30.63l-.28-1.01h5.5v-7.35h-3.99l-.31-1.01h4.3v-6.44c-1.61,1.5-3.25,2.8-5,3.82l-.42-.39c2.38-2.59,4.97-6.93,6.62-11.41l4.66,1.89c-.17,.38-.63,.67-1.4,.59-.59,.91-1.22,1.79-1.89,2.63h17.19l1.93-2.52s2.17,1.71,3.5,2.98c-.11,.38-.45,.56-.95,.56h-22.51c-.46,.56-.95,1.12-1.47,1.65l4.1,.42c-.07,.42-.38,.8-1.29,.95v5.29h2.87v-6.65l4.2,.42c-.07,.49-.38,.8-1.29,.95v5.29h2.91v-6.55l4.17,.42c-.07,.49-.35,.84-1.26,.98v5.15h2.84v-6.62l4.31,.45c-.07,.49-.38,.84-1.29,.98v5.18h.28l1.82-2.45s2.06,1.68,3.29,2.91c-.07,.38-.45,.56-.95,.56h-4.45v7.35h.95l1.75-2.59Zm-22.58,4.38c1.01,4.3-.74,6.97-2.52,7.88-1.16,.63-2.73,.45-3.15-.74-.35-1.05,.35-1.93,1.33-2.41,1.61-.63,3.61-2.42,3.78-4.76l.56,.04Zm2.45-1.79h2.87v-7.35h-2.87v7.35Zm2.06,2.13c5.95,4.31,2.03,9.52-.24,6.55,.46-2.14,.24-4.62-.18-6.41l.42-.14Zm3.71-9.49v7.35h2.91v-7.35h-2.91Zm2.56,9.31c8.09,3.29,5.15,9.52,2.27,7-.1-2.31-1.4-5.01-2.7-6.79l.42-.21Zm3.25-9.31v7.35h2.84v-7.35h-2.84Zm4.24,9.03c9.77,2.94,7.04,10.15,3.71,7.67-.39-2.56-2.31-5.57-4.06-7.42l.35-.25Z"/>
      <path class="cls-2" d="M479.62,75.26s1.79,1.37,2.87,2.42c-.11,.38-.42,.56-.91,.56h-12.71l-.28-1.01h9.49l1.54-1.96Zm-2.84,6.37l1.44-1.82s1.65,1.29,2.66,2.28c-.11,.38-.42,.56-.91,.56h-9.77l-.28-1.02h6.86Zm1.54,2.66s1.61,1.33,2.63,2.31c-.07,.38-.42,.56-.88,.56h-9.87l-.28-1.01h6.93l1.47-1.86Zm-.07,4.73l3.12,2.38c-.21,.25-.7,.53-1.33,.66v8.26c-.04,.28-1.47,.94-2.45,.94h-.49v-1.64h-3.85v2.06c0,.28-1.26,.95-2.49,.95h-.42v-13.34l3.04,1.29h3.4l1.47-1.58Zm-6.2-17.99c8.05,1.05,5.39,6.9,2.35,4.83-.35-1.58-1.61-3.47-2.62-4.62l.28-.21Zm5.04,27.58v-7h-3.85v7h3.85Zm24.68-18.17l-.07,.46c-1.33,.6-2.24,1.47-2.49,2.73-3.5-2.28-6.51-6.13-8.3-10.12-2.21,3.75-5.92,8.09-10.29,10.68l-.35-.32c3.61-3.46,7-9.56,8.26-13.58l4.38,1.71c-.14,.38-.56,.63-1.5,.67,2.03,3.54,6.62,6.34,10.36,7.77Zm-4.97,3.68l3.22,2.42c-.21,.25-.7,.49-1.33,.63v12.29c0,2.1-.35,3.19-3.36,3.47-.03-.8-.1-1.5-.38-1.89-.25-.38-.67-.7-1.58-.88v-.49s1.47,.07,1.93,.07c.42,0,.49-.17,.49-.56v-5.64h-2.1v5.81c0,.14-.74,.67-1.89,.67h-.35v-6.48h-2.03v6.51c-.04,.14-.77,.67-1.89,.67h-.35v-7.18h-2.21v8.33c0,.31-1.23,.98-2.45,.98h-.46v-18.48l3.08,1.33h10.33l1.33-1.58Zm-4.31-4.97s1.96,1.54,3.15,2.66c-.1,.39-.46,.56-.95,.56h-9.56l-.28-1.02h5.99l1.65-2.21Zm-5.32,13.37v-5.81h-2.21v5.81h2.21Zm4.27,0v-5.81h-2.03v5.81h2.03Zm4.34,0v-5.81h-2.1v5.81h2.1Z"/>
      <path class="cls-2" d="M514.76,89.86v11.73c0,.32-.98,1.37-2.52,1.37h-.53v-13.09h-6.41l-.28-1.01h6.69v-4.24h-5.11l-.28-1.02h7.56c.56-2.07,1.23-4.94,1.58-7l4.24,1.22c-.14,.42-.56,.74-1.26,.7-.95,1.47-2.38,3.46-3.75,5.08h1.22l1.65-2.13s1.89,1.5,3.04,2.59c-.1,.39-.42,.56-.91,.56h-4.94v4.24h2.31l1.71-2.24s1.89,1.58,3.08,2.7c-.11,.38-.45,.56-.95,.56h-6.16Zm-9.73,10.12c1.47-2.62,2.45-6.27,2.84-8.79l3.71,1.51c-.14,.35-.52,.46-1.12,.35-.91,2.31-2.87,5.29-5.04,7.35l-.38-.42Zm.88-23.59l-.28-1.01h10.47l1.75-2.24s2,1.54,3.26,2.7c-.11,.38-.46,.56-.95,.56h-14.25Zm1.96,.39c6.58,3.15,3.57,8.16,1.19,5.81,0-1.82-.81-4.1-1.61-5.64l.42-.17Zm2.28-6.58c7.18,1.5,4.16,6.58,1.54,4.45-.14-1.47-1.05-3.18-1.89-4.24l.35-.21Zm5.57,21.42c7.56,3.15,4.55,8.58,1.96,6.2-.1-2-1.26-4.41-2.34-5.99l.38-.21Zm21.32,7.74c.74,.32,.84,.67,.84,1.23,0,1.05-.95,1.68-4.16,1.68h-1.79c-2.2,0-2.52-.67-2.52-2.45v-8.75h-1.54c-.56,6.23-3.19,9.73-9.84,11.76l-.21-.53c4.62-2.35,6.27-5.36,6.72-9.7-.46,.21-1.08,.35-1.86,.35h-.49v-21.28l3.5,1.4h6.27l1.61-1.92,3.19,2.56c-.25,.28-.63,.52-1.43,.63v17.12c0,.18-1.12,.88-2.66,.88h-.46v6.79c0,.38,.07,.49,.6,.49h2.13c.25-.04,.35-.11,.49-.38,.25-.53,.63-2.42,1.05-4.31h.45l.11,4.45Zm-11.76-25.27v4.58h6.83v-4.58h-6.83Zm6.83,10.26v-4.66h-6.83v4.66h6.83Zm-6.83,1.01v4.69h6.83v-4.69h-6.83Z"/>
      <path class="cls-2" d="M569.19,84.51c-.28,.35-.63,.45-1.51,.53-1.33,3.64-3.18,6.9-5.78,9.7,3.5,2.48,7.81,4.03,12.67,4.97l-.07,.42c-1.54,.24-2.59,1.29-3.12,2.87-4.66-1.4-8.47-3.43-11.45-6.41-3.22,2.77-7.39,4.94-12.78,6.34l-.28-.49c4.76-1.85,8.58-4.45,11.45-7.63-1.89-2.49-3.36-5.5-4.38-9.21-1.89,6.58-5.39,12.74-12.11,16.87l-.45-.28c6.97-6.02,9.66-14.95,10.57-23.91h-9.73l-.28-.98h10.12c.21-2.27,.32-4.55,.35-6.79l5.25,.28c-.07,.53-.35,.88-1.47,1.02-.14,1.79-.32,3.64-.56,5.5h11.97l2.13-2.76s2.49,1.89,3.96,3.19c-.11,.38-.49,.56-.98,.56h-17.22c-.25,1.71-.56,3.43-.95,5.11h9.42l2-1.86,3.22,2.98Zm-14.84-.1c1.16,3.57,3.01,6.41,5.46,8.65,1.92-2.59,3.36-5.5,4.3-8.65h-9.77Z"/>
      <path class="cls-2" d="M605.27,79.5c-.1,.46-.52,.77-1.26,.77-.32,1.05-.7,2-1.12,2.91,7.81,2.59,5.6,8.19,2.59,6.2-.46-1.68-1.82-3.61-3.15-5.15-1.19,2.17-2.7,3.85-4.48,5.08,3.19,4.1,7.91,7.18,12.71,8.58l-.07,.38c-1.33,.28-2.38,1.33-2.8,2.94-5.53-2.66-9.63-7.32-12.04-13.86v14.42c0,.42-1.43,1.26-2.7,1.26h-.67v-11.48c-3.5,3.92-8.65,7.6-14.25,9.77l-.28-.52c6.09-3.29,11.87-9.35,14.53-15.86v-7.63h-13.65l-.31-1.01h13.97v-5.71l4.66,.49c-.1,.49-.35,.84-1.29,.98v4.24h8.33l2.13-2.62s2.38,1.79,3.85,3.08c-.1,.38-.46,.56-.95,.56h-13.37v8.47c.49,1.01,1.09,2,1.75,2.91,1.72-2.59,2.94-6.23,3.43-10.26l4.45,1.09Zm-16.03,.24c-.11,.42-.56,.74-1.29,.7-.35,.95-.77,1.86-1.19,2.73,6.02,2.38,3.4,6.86,.91,4.83-.17-1.16-.81-2.49-1.58-3.64-1.68,2.87-3.78,5.04-6.27,6.55l-.45-.35c2.49-2.83,4.62-7.21,5.5-12.11l4.38,1.29Z"/>
      <path class="cls-2" d="M643.84,74.63s2.07,1.68,3.29,2.91c-.07,.39-.45,.56-.91,.56h-9.98c-.07,2.13-.14,4.27-.31,6.23h4.97l1.82-1.79,3.25,2.73c-.25,.28-.7,.49-1.44,.59-.35,9.66-1.08,14.04-2.76,15.58-1.02,.98-2.38,1.4-4.03,1.4,0-1.01-.14-1.85-.6-2.31-.46-.53-1.5-.91-2.73-1.19l.03-.53c1.12,.14,3.08,.25,3.78,.25,.56,0,.84-.07,1.15-.35,.98-.91,1.58-5.32,1.86-13.37h-5.43c-.73,7.18-2.76,13.13-9.07,17.57l-.35-.38c5.92-6.72,6.55-14.84,6.41-24.43h-3.68v-.04h-14.63l-.28-.98h11.06l1.72-2.17s1.47,1.12,2.62,2.17h12.39l1.82-2.45Zm-18.27,4.87s1.79,1.4,2.91,2.48c-.07,.39-.42,.56-.91,.56h-11.48l-.28-1.02h8.12l1.65-2.03Zm0,4.48s1.79,1.43,2.91,2.52c-.07,.39-.42,.56-.91,.56h-11.48l-.28-1.02h8.12l1.65-2.06Zm1.86,16.35c-.04,.25-1.51,.91-2.52,.91h-.49v-1.79h-5.08v2.1c0,.32-1.33,.98-2.56,.98h-.42v-13.23l3.12,1.33h4.59l1.5-1.65,3.22,2.49c-.21,.25-.7,.53-1.37,.67v8.19Zm-8.75-29.58c8.19,1.12,5.36,7.25,2.24,5.08-.25-1.68-1.44-3.71-2.56-4.9l.32-.17Zm5.74,27.69v-6.79h-5.08v6.79h5.08Zm9.1-27.83c8.54,1.12,5.84,7.98,2.73,5.6,0-1.92-1.37-4.17-3.04-5.32l.32-.28Z"/>
      <path class="cls-2" d="M653.18,82.72c3.64,1.05,6.51,2.73,7.74,4.76,.49,.77,.73,1.75,.63,2.59-.14,.74-.63,1.4-1.58,1.4-.77,0-1.29-.49-1.79-1.58-1.02-2.1-2.7-4.45-5.36-6.65l.35-.53Z"/>
      <path class="cls-2" d="M674.78,76.14c.14,2.31-.77,3.92-1.89,4.66-1.02,.66-2.45,.52-2.91-.56-.35-1.01,.28-1.89,1.19-2.31,1.26-.7,2.59-2.52,2.49-4.59l.53-.04c.21,.63,.38,1.26,.49,1.82h11.45c-.32-.04-.66-.17-.98-.38-.25-1.5-1.4-3.19-2.56-4.1l.28-.25c6.62,.07,6.09,4.34,3.92,4.73h10.08l1.82-1.82,3.22,3.08c-.28,.28-.63,.35-1.3,.42-.95,.98-2.56,2.31-3.78,3.08l-.35-.25c.21-.95,.46-2.35,.63-3.5h-22.33Zm24.75,8.93c-.25,.28-.56,.42-1.33,.17-1.96,1.01-4.9,2.17-7.88,3.12,2.21,4.69,6.83,7.63,11.8,9.17l-.07,.38c-1.3,.21-2.28,1.26-2.8,2.84-4.66-2.59-7.95-6.27-9.66-12.18-.74,.21-1.47,.38-2.13,.59,2.45,4.9,2.06,10.36,.25,12.46-.81,.98-2.31,1.4-4.59,1.4-.04-.98-.28-1.65-.77-2.1-.45-.42-1.64-.84-3.01-1.12v-.49c1.44,.14,3.85,.28,4.69,.28,.49,0,.8-.07,1.01-.35,.67-.91,1.02-2.83,.91-5.11-4.06,2.98-9.87,5.6-15.58,6.93l-.25-.56c5.81-2.1,11.83-6.13,15.12-10.47-.11-.46-.25-.91-.42-1.33-3.5,2.42-8.75,4.9-13.65,6.27l-.17-.49c4.45-2.03,9.45-5.64,12.25-9-.17-.32-.42-.67-.66-.98-3.22,1.89-7.04,3.43-10.99,4.48l-.28-.49c4.27-1.82,8.33-4.66,11.1-7.32h-7.35l-.28-1.01h17.26l1.93-2.38s2.17,1.65,3.46,2.84c-.07,.38-.46,.56-.91,.56h-9.38c-1.12,1.05-2.42,2-3.85,2.91,1.61,1.3,2.87,2.8,3.78,4.41,3.26-1.85,6.9-4.51,8.82-6.33l3.64,2.91Z"/>
      <path class="cls-2" d="M723.95,71.62c-.07,.49-.35,.84-1.26,.98,.77,13.2,3.99,21.74,16.03,26.67l-.07,.39c-1.72,.31-2.87,1.36-3.33,3.18-9.1-4.9-11.94-13.09-12.88-24.01-.63,8.75-3.15,17.75-16.03,24.12l-.42-.53c13.3-9.07,13.06-20.37,13.09-31.29l4.87,.49Z"/>
      <path class="cls-2" d="M742.82,83.98c.84-.07,2-.21,3.43-.39v-10.08h-3.08l-.28-1.01h13.23l1.86-2.28s2.1,1.58,3.4,2.73c-.11,.38-.46,.56-.95,.56h-2.7v12.85c0,.14-.98,.74-2.56,.74h-.56v-3.75c-2.24,.81-5.22,1.86-9.07,3.12-.21,.46-.49,.7-.84,.81l-1.89-3.29Zm10.57,7.39c-.17,.42-.63,.7-1.4,.63-.25,.56-.53,1.08-.81,1.58,6.9,2.83,4.62,7.81,1.96,5.78-.35-1.5-1.43-3.33-2.59-4.76-1.92,2.8-4.45,4.69-7.25,5.88l-.38-.42c2.73-2.17,5.11-5.78,6.27-10.29l4.2,1.61Zm17.29-3.15c-.35,.28-1.09,.28-2.07-.14-2.34,.35-5.25,.66-8.33,.91v13.06c0,.17-1.05,.95-2.7,.95h-.63v-13.76c-3.57,.25-7.28,.35-10.71,.32l-.1-.63c7.32-.7,16.59-2.35,21.49-3.82l3.05,3.12Zm-21.39-14.7v2.56h5.32v-2.56h-5.32Zm0,5.99h5.32v-2.42h-5.32v2.42Zm0,3.67c1.68-.17,3.46-.42,5.32-.7v-1.96h-5.32v2.66Zm25.1-8.54c-.28,.35-.6,.42-1.4,.49-.74,1.68-1.72,3.19-2.98,4.55,5.57,3.61,3.68,7.07,1.29,5.74-.7-1.01-1.85-2.31-3.46-3.71-2.17,1.75-4.9,3.19-8.23,4.16l-.24-.49c2.8-1.3,5.08-3.05,6.86-5.04-1.68-1.37-3.64-2.7-5.85-3.89l.25-.49c2.91,.77,5.25,1.58,7.07,2.45,.74-1.19,1.37-2.38,1.82-3.67h-9.42l-.31-1.02h9.73l1.82-1.75,3.05,2.66Zm-4.66,15.93c-.14,.42-.56,.74-1.33,.7-.17,.49-.38,.91-.59,1.37,1.33,2.31,3.75,3.99,6.2,4.73l-.04,.38c-1.12,.28-1.85,1.19-2.21,2.73-2.1-1.5-3.54-3.78-4.45-6.9-1.65,3.01-3.85,5.18-6.44,6.55l-.46-.35c2.34-2.38,4.27-6.13,5.15-10.5l4.16,1.29Z"/>
      <path class="cls-2" d="M32.39,115.77c-.14,.42-.56,.59-1.61,.7,3.29,3.08,9.49,5.29,14.74,6.41v.53c-1.43,.38-2.42,1.79-2.62,3.08-1.29-.49-2.55-1.05-3.78-1.71l2.56,1.96c-.14,.14-.53,.35-.98,.46v6.83c-.04,.25-1.54,.88-2.52,.88h-.52v-1.08H20.73v.42c0,.1-.17,.35-.49,.56l3.36,1.37h11.06l1.5-1.58,3.19,2.35c-.17,.21-.53,.45-1.05,.56v8.61c-.04,.28-1.65,1.01-2.8,1.01h-.56v-1.68h-11.55v.77c0,.32-1.43,1.05-2.83,1.05h-.46v-12.36c-.42,.25-1.05,.49-1.82,.49h-.53v-9.73c-1.47,.66-2.97,1.26-4.45,1.75l-.21-.49c5.78-2.76,12.36-8.47,14.04-12.39l5.25,1.26Zm6.37,8.79c-3.64-2-6.76-4.69-8.54-7.7-2.35,2.87-6.62,5.92-11.24,8.19l2.21,.91h16.21l1.37-1.4Zm-18.03,8.23h7v-5.85h-7v5.85Zm1.71-5.46c5.95,2.35,3.19,6.51,1.16,4.52,0-1.43-.8-3.22-1.54-4.3l.38-.21Zm.95,9.8v3.15h11.55v-3.15h-11.55Zm11.55,7.28v-3.12h-11.55v3.12h11.55Zm-2.77-23.35s1.79,1.37,2.87,2.38c-.1,.38-.42,.56-.88,.56h-10.19l-.28-1.01h6.86l1.61-1.93Zm5.46,11.73v-5.85h-7.04v5.85h1.33c.67-1.58,1.44-3.82,1.86-5.46l3.67,1.23c-.14,.42-.59,.7-1.33,.63-.8,1.09-2.06,2.45-3.29,3.61h4.8Z"/>
      <path class="cls-2" d="M53.99,134.57c2.06-1.19,3.01-2.7,3.46-4.52-1.82-.8-2.98-1.68-2.98-3.18,0-1.26,.88-2.35,2.42-2.35s2.66,1.16,2.66,3.33c0,2.66-1.26,6.06-4.97,7.84l-.59-1.12Z"/>
      <path class="cls-2" d="M80.37,118.01s1.02,.88,2,1.79c.7-1.33,1.3-2.62,1.79-3.89l3.92,1.89c-.25,.38-.59,.56-1.47,.38-1.37,2.66-3.19,5.46-5.46,8.19h1.82l1.68-2.31s2,1.61,3.19,2.73c-.1,.38-.46,.56-.95,.56h-6.58c-1.19,1.33-2.49,2.63-3.92,3.85h4.48l1.58-1.71,3.33,2.55c-.21,.25-.73,.56-1.4,.7v12.88c-.04,.21-1.58,.88-2.66,.88h-.49v-2.7h-6.27v2.2c0,.28-.98,.95-2.52,.95h-.53v-12.36c-1.22,.8-2.52,1.54-3.88,2.21l-.35-.38c1.47-.98,2.91-2.07,4.24-3.26v-3.25l2.42,.95c1.08-1.12,2.13-2.28,3.08-3.5h-9.1l-.28-.98h6.41v-5.08h-5.11l-.28-1.01h5.39v-5.36l4.45,.42c-.07,.49-.38,.84-1.3,.98v3.96h1.19l1.61-2.28Zm-5.15,14.18l-.28,.21v4.55h6.27v-4.76h-5.99Zm5.99,10.61v-4.83h-6.27v4.83h6.27Zm-3.05-16.42c1.26-1.68,2.38-3.36,3.36-5.08h-3.96v5.08h.59Zm23.1-7.32c-.28,.32-.77,.42-1.61,.42-1.22,2.35-3.54,6.41-5.29,8.72,4.2,2.7,5.81,6.09,5.81,8.96,0,3.5-1.4,5.39-5.43,5.53,0-.98-.17-2.17-.46-2.59-.31-.35-1.05-.59-1.92-.73v-.53h2.83c.38,0,.6-.04,.88-.21,.6-.35,.95-1.01,.95-2.28,0-2.62-.98-5.43-3.54-8.09,.77-2.34,1.96-6.72,2.66-9.66h-4.8v27.55c0,.25-1.01,1.02-2.62,1.02h-.56v-31.33l3.64,1.75h4.17l1.85-1.79,3.43,3.25Z"/>
      <path class="cls-2" d="M117.12,126.34l3.43,2.62c-.25,.25-.77,.59-1.51,.7v13.44c0,2.28-.42,3.57-3.88,3.89-.04-.95-.18-1.72-.56-2.21-.38-.49-.98-.88-2.17-1.05v-.52s2.28,.17,2.91,.17c.53,0,.63-.21,.63-.63v-4.52c-1.44,.91-3.08,1.89-5.01,2.8-.1,.46-.42,.74-.77,.84l-.81-1.75c-.56,2.63-1.75,5.25-4.45,7.25l-.38-.38c2.21-3.57,2.31-8.09,2.31-12.29v-7.98l3.5,1.37h5.25l1.5-1.75Zm-1.89-7.11c8.82,2.73,6.09,9.21,3.12,6.79-.07-.77-.35-1.61-.7-2.45-2.59,.7-6.27,1.68-10.36,2.52-.25,.38-.56,.59-.84,.74l-1.51-3.68s.63-.14,.95-.32c2.14-1.58,4.87-5.95,5.81-8.3l4.41,1.79c-.17,.31-.56,.59-1.26,.56-1.68,1.92-4.45,4.45-6.97,6.2,2.38-.07,5.74-.21,9.31-.42-.63-1.19-1.51-2.31-2.31-3.19l.35-.24Zm-5.39,15.47c0,1.19-.03,2.52-.17,3.82,1.79-.31,4.06-.8,6.3-1.47v-7.95h-6.13v3.15c6.02-1.82,7.35,3.47,4.45,3.12-1.05-.81-2.56-1.58-4.45-2v1.33Zm16.14-4.97c-3.12,0-3.71-.67-3.71-2.94v-11.8l4.34,.42c-.04,.45-.39,.77-1.09,.88v4.03h4.73l1.72-2.21s1.89,1.54,3.04,2.66c-.1,.38-.42,.56-.91,.56h-8.58v4.76c0,.53,.14,.7,1.26,.7h2.94c1.12,0,2.24-.04,2.66-.04,.28-.04,.7-.07,.91-.11,.25,0,.66-.1,.94-.17h.32l.17,.04c.98,.38,1.33,.7,1.33,1.33,0,1.33-1.37,1.89-6.72,1.89h-3.36Zm9.17,13.23c.98,.35,1.23,.73,1.23,1.33,0,1.4-1.4,2-6.83,2h-3.43c-3.19,0-3.85-.7-3.85-3.01v-12.74l4.41,.42c-.07,.46-.38,.77-1.12,.88v3.64h5.11l1.68-2.21s1.92,1.54,3.08,2.66c-.1,.38-.42,.56-.91,.56h-8.96v6.06c0,.56,.17,.73,1.33,.73h2.98c1.23,0,2.28-.04,2.66-.04,.42-.03,.63-.14,.84-.38,.32-.46,.81-1.89,1.26-3.43h.38l.14,3.54Z"/>
      <path class="cls-2" d="M152.44,140.87v5.57c0,.17-1.02,.74-2.63,.74h-.56v-6.3h-7.91l-.28-1.01h8.19v-3.43h-2.66v.46c0,.21-1.02,.95-2.56,.95h-.52v-11.2l3.54,1.4h7.95l1.54-1.68,3.33,2.52c-.21,.28-.74,.56-1.4,.7v6.79c-.04,.28-1.54,.98-2.59,.98h-.52v-.91h-2.91v3.43h3.99l1.82-2.24s2.1,1.54,3.33,2.7c-.11,.38-.46,.56-.91,.56h-8.23Zm-.21-16.14c.46-1.5,.94-3.47,1.22-4.97h-7.63c5.74,2.35,2.59,6.55,.45,4.31,.07-1.44-.52-3.15-1.12-4.24l.14-.07h-3.15l-.28-1.01h8.37c-.18-.07-.35-.17-.53-.32-.17-1.4-1.09-2.94-1.86-3.85l.32-.25c5.32,.74,5.15,3.68,3.57,4.41h3.5l1.79-2.24s2.07,1.54,3.36,2.7c-.1,.38-.46,.56-.94,.56h-5.11l3.33,.88c-.14,.42-.56,.74-1.29,.7-.8,.98-2.03,2.28-3.19,3.4h3.26l1.79-2.24s2.03,1.58,3.25,2.7c-.1,.38-.46,.56-.91,.56h-19.08l-.28-1.01h11.03Zm-5.64,4.31v2.62h8.75v-2.62h-8.75Zm8.75,6.37v-2.73h-8.75v2.73h8.75Zm18.69,.84c-.25,.38-.59,.49-1.43,.38-4.06,5.43-9.17,8.61-15.61,10.64l-.21-.56c5.39-2.8,9.63-6.72,12.78-12.74l4.48,2.28Zm-13.79-2c3.46-2.49,6.27-6.02,8.4-10.22l4.34,2.38c-.21,.38-.56,.49-1.33,.35-2.91,3.5-6.83,6.23-11.1,8.02l-.31-.52Zm12.04-16.49c-.25,.38-.53,.46-1.29,.32-2.59,2.55-6.13,4.87-9.59,6.41l-.35-.53c2.8-2.24,5.22-5.39,7.11-8.72l4.13,2.52Z"/>
      <path class="cls-2" d="M177.57,136.6s.59-.14,.84-.28c1.23-.91,2.59-2.55,3.78-4.24-.84,.32-1.79,.63-2.7,.91-.21,.42-.46,.7-.7,.81l-1.51-2.91s.53-.11,.77-.25c1.09-.7,2.38-2.63,3.08-4.06-.35,.14-.8,.21-1.37,.21h-.49v-11.59l3.19,1.29h7.98l1.4-1.61,2.87,2.21c-.21,.32-.56,.49-1.29,.63v8.02c0,.14-.88,.67-2.13,.74l1.64,.77c-.14,.35-.56,.63-1.29,.52-.88,.98-2.17,2.1-3.36,3.01l2.84-.07c.46-.84,.88-1.61,1.09-2.21l3.22,1.93c-.14,.28-.59,.56-1.29,.42-1.33,1.71-3.57,4.03-5.67,5.67,1.19-.03,2.73-.14,4.31-.25-.25-.94-.63-1.89-.98-2.55l.42-.17c5.29,3.18,2.76,7.21,.91,5.25,.04-.52-.04-1.05-.14-1.58-1.29,.39-2.97,.91-4.62,1.4-.17,.32-.38,.53-.63,.63l-1.4-2.91s.59-.1,.8-.25c1.05-.88,2.21-2.42,3.19-4.03-.74,.25-1.5,.53-2.31,.77-.17,.42-.42,.67-.7,.8l-1.19-2.28-.17-.07c-1.4,1.61-3.68,3.78-5.92,5.36,1.16-.04,2.62-.14,4.1-.25-.25-.88-.53-1.72-.84-2.35l.49-.17c4.83,3.19,2.42,6.9,.7,5.08,0-.52-.04-1.08-.14-1.68-1.29,.46-3.01,1.01-4.66,1.5-.18,.32-.42,.53-.63,.63l-1.47-2.83Zm3.08,3.01c1.37,3.5,.7,6.09-.52,7.07-.81,.67-2.1,.67-2.56-.28-.35-.88,.14-1.71,.95-2.24,.98-.73,1.82-2.7,1.54-4.52l.59-.03Zm9.91-13.48v-.88h-8.47v.66l2.91,1.37c-.14,.31-.56,.56-1.3,.46-.98,1.01-2.45,2.24-3.82,3.15,.91,0,2.03-.04,3.19-.11,.52-.8,.98-1.61,1.26-2.21l2.24,1.92c1.22-.91,2.52-3.54,3.01-4.83l.98,.46Zm-8.47-8.61v2.98h8.47v-2.98h-8.47Zm8.47,3.99h-8.47v2.73h8.47v-2.73Zm-7.18,18.24c5.11,4.1,1.89,8.61-.04,6.16,.39-1.96,.07-4.38-.42-6.02l.46-.14Zm3.61-.17c6.06,3.33,3.19,8.05,1.01,5.81,.11-1.86-.63-4.13-1.47-5.6l.46-.21Zm3.96-.6c6.37,2.38,3.75,7.11,1.51,5.08,0-1.61-.95-3.64-1.89-4.83l.38-.25Zm1.89,7.81c2.41-1.68,4.8-4.48,5.88-6.79l3.82,1.96c-.18,.32-.53,.38-1.16,.25-1.65,1.96-5.04,4.06-8.23,5.08l-.32-.49Zm13.97-31.96s2.13,1.68,3.46,2.91c-.1,.39-.45,.56-.95,.56h-5.78c-.8,1.37-1.75,2.83-2.62,3.92h4.17l1.51-1.61,3.04,2.42c-.17,.25-.67,.49-1.23,.59v15.68c-.03,.25-1.5,.91-2.52,.91h-.49v-1.29h-6.62v.7c0,.31-1.19,1.01-2.42,1.01h-.49v-19.78l3.08,1.37h.77c.14-1.08,.25-2.62,.35-3.92h-5.22l-.28-1.02h10.29l1.93-2.45Zm-8.02,8.4v4.13h6.62v-4.13h-6.62Zm0,9.35h6.62v-4.2h-6.62v4.2Zm6.62,5.32v-4.3h-6.62v4.3h6.62Zm-2.38,2.31c9.45,2.17,7.49,8.51,4.27,6.65-.67-2.21-2.83-4.79-4.55-6.37l.28-.28Z"/>
      <path class="cls-2" d="M242.39,141.81s2.52,1.89,4.03,3.25c-.1,.39-.46,.56-.98,.56h-31.26l-.28-1.02h14.35v-10.47h-10.26l-.28-1.01h10.54v-8.96h-11.73l-.32-1.02h22.61l2.14-2.73s2.45,1.82,3.99,3.19c-.11,.38-.49,.56-.98,.56h-12.11v8.96h5.67l2.13-2.63s2.35,1.79,3.82,3.08c-.07,.38-.46,.56-.98,.56h-10.64v10.47h8.33l2.21-2.8Zm-17.82-26.99c11.38,1.26,9.59,8.86,5.74,6.9-1.01-2.38-3.75-5.04-6.02-6.58l.28-.32Z"/>
      <path class="cls-2" d="M268.25,115.84c-.07,.49-.35,.84-1.26,.98,.77,13.2,3.99,21.74,16.03,26.67l-.07,.39c-1.72,.31-2.87,1.36-3.33,3.18-9.1-4.9-11.94-13.09-12.88-24.01-.63,8.75-3.15,17.75-16.03,24.12l-.42-.53c13.3-9.07,13.06-20.37,13.09-31.29l4.87,.49Z"/>
      <path class="cls-2" d="M313.23,123.51c-1.37,5.78-3.85,10.68-7.84,14.6,3.99,2.77,8.79,4.62,14.04,5.78l-.1,.42c-1.68,.17-2.94,1.22-3.57,2.91-5.01-1.54-9.28-3.82-12.71-7-4.06,3.15-9.35,5.53-16.14,7.04l-.24-.49c6.23-2.07,11.03-4.9,14.6-8.37-3.33-3.75-5.74-8.61-7.07-14.88h-6.97l-.28-.98h25.94l2.21-2.87s2.45,1.92,3.92,3.29c-.1,.38-.45,.56-.98,.56h-4.8Zm-18.34,0c1.58,5.46,4.41,9.66,8.19,12.85,3.15-3.67,5.08-8.02,6.02-12.85h-14.21Zm4.48-8.75c9.84,1.82,7.25,8.86,3.78,6.51-.49-2.17-2.38-4.72-4.1-6.27l.32-.24Z"/>
      <path class="cls-2" d="M352.92,141.08s2,1.61,3.26,2.8c-.11,.38-.46,.56-.95,.56h-13.06v1.79c0,.21-.98,.95-2.49,.95h-.56v-19.78c-.28,.42-.6,.81-.91,1.19,.21,.21,.42,.38,.59,.56-.1,.39-.42,.56-.91,.56h-.59c-.21,.21-.42,.46-.59,.67l-.39-.35,.18-.31h-2.1v13.58c0,2.17-.53,3.61-4.24,3.92-.07-.88-.21-1.58-.67-2.03-.53-.46-1.26-.81-2.84-1.02v-.49s3.22,.25,3.92,.25c.59,0,.77-.21,.77-.73v-8.58c-1.89,3.96-4.55,7.39-7.88,10.22l-.42-.42c3.08-3.96,5.32-9.52,6.62-14.7h-2.49l-1.22,1.43-2.98-1.96c.31-.25,.74-.52,1.19-.74,.63-2.87,1.4-7.67,1.68-10.26h-2.24l-.25-1.01h7.98v-.04h2.24l1.65-2.14s1.89,1.54,3.08,2.63c-.1,.38-.45,.56-.91,.56h-3.01v10.54h.14l1.51-2s.59,.46,1.29,1.08c1.79-4.24,2.94-9.45,3.43-13.06l4.73,1.22c-.14,.38-.42,.67-1.29,.67-.46,1.5-1.05,3.15-1.82,4.94l.28,.11h8.05l1.71-2.28s2.03,1.58,3.22,2.73c-.1,.38-.46,.56-.95,.56h-5.71v6.13h1.5l1.61-2.24s1.92,1.54,3.04,2.7c-.1,.38-.45,.56-.95,.56h-5.21v6.13h1.58l1.61-2.28s1.92,1.58,3.05,2.73c-.07,.38-.42,.56-.91,.56h-5.32v6.44h2.13l1.79-2.35Zm-21.56-12.36v-10.54h-2.55c-.35,2.77-1.12,7.46-1.68,10.54h4.24Zm10.82-6.02v6.13h3.92v-6.13h-3.92Zm3.92,7.14h-3.92v6.13h3.92v-6.13Zm-3.92,13.58h3.92v-6.44h-3.92v6.44Zm3.54-28.56c7.6,2.42,4.17,7.98,1.51,5.43,.04-1.79-.88-3.89-1.86-5.22l.35-.21Z"/>
      <path class="cls-2" d="M390.79,124.21c-.18,.28-.74,.6-1.44,.7v18.1c0,2.45-.56,3.89-4.9,4.31-.17-1.08-.38-1.89-.98-2.42-.67-.56-1.61-1.01-3.54-1.26v-.53s4.2,.32,5.22,.32c.63,0,.8-.28,.8-.81v-7.32c-1.12,.38-2.13,1.4-2.49,2.45-3.82-2.56-6.06-6.13-7.39-10.85-1.43,4.06-4.09,8.16-9.94,11.03l-.39-.46c4.83-3.85,7-8.96,7.81-13.13h-8.09v21.67c0,.38-1.37,1.19-2.8,1.19h-.56v-25.38l3.67,1.5h9.45c-.32-1.79-.56-3.75-.74-5.81h-5.71l-.32-.98h5.18l1.26-1.86,3.29,2.38c-.46,.49-1.44,.77-2.73,.88,.28,1.89,.63,3.68,1.16,5.39h9l1.58-1.85,3.57,2.73Zm-13.79,.14c1.61,4.58,4.34,8.33,8.96,10.54v-10.54h-8.96Z"/>
      <path class="cls-2" d="M396,123.05c8.26,1.01,5.67,6.9,2.66,4.83-.38-1.65-1.75-3.47-2.98-4.55l.32-.28Zm9.73-3.22c-1.29,4.66-3.75,13.23-4.17,15.09-.28,1.22-.49,2.45-.49,3.36,.07,1.71,1.33,3.15,1.19,6.16-.07,1.68-.98,2.77-2.41,2.77-.77,0-1.4-.56-1.58-1.82,.56-3.57,.38-6.69-.42-7.21-.46-.35-.98-.46-1.75-.53v-.73h1.54c.49,0,.59,0,.94-.74q.63-1.33,6.55-16.45l.59,.11Zm-7.98-4.9c8.93,1.22,6.34,7.53,3.12,5.36-.46-1.79-2.03-3.85-3.43-5.08l.32-.28Zm30.59,9.84c-.07,.46-.35,.8-1.23,.95v20.48c0,.35-1.37,1.02-2.49,1.02h-.59v-2.38h-15.47l-1.12,1.54-3.47-1.96c.28-.28,.81-.66,1.3-.95v-19.64l4.38,.46c-.11,.53-.46,.88-1.33,1.02v18.52h15.72v-18.59c-.11,0-.21-.04-.32-.07-1.19,1.19-3.36,3.19-5.46,4.66v.21c7.7,3.92,5.6,9.03,3.01,7.04-.38-1.75-1.71-3.92-3.01-5.71v7.91c0,2.1-.49,3.26-4.03,3.57-.07-.8-.21-1.47-.63-1.82-.46-.38-1.19-.7-2.59-.91v-.52s2.87,.21,3.57,.21c.59,0,.74-.14,.74-.63v-7.63c-.95,1.37-2.17,3.12-3.64,5.11,.04,.46-.11,.91-.42,1.16l-2.31-2.87c1.12-.7,3.68-2.56,6.37-4.55v-9.28l1.82,.21c1.36-1.19,3.04-2.7,4.27-3.85h-14.32l-.28-.98h15.3l1.93-1.79,2.97,3.01c-.28,.28-.7,.35-1.43,.39-1.71,.88-4.55,2.24-6.9,3.36l.67,.07c-.11,.42-.39,.7-1.08,.81v6.27c1.29-2.03,2.7-4.66,3.33-6.09l2.73,1.86,4.03,.42Zm-18.38-2.03c7.07,3.43,4.62,8.68,2.24,6.55-.11-2.03-1.47-4.69-2.63-6.34l.39-.21Z"/>
      <path class="cls-2" d="M434.85,130.93c0-2.73,2.24-4.94,4.97-4.94s4.94,2.21,4.94,4.94-2.21,4.97-4.94,4.97-4.97-2.24-4.97-4.97Zm1.26,0c0,2.03,1.65,3.71,3.71,3.71s3.67-1.68,3.67-3.71-1.64-3.67-3.67-3.67-3.71,1.64-3.71,3.67Z"/>
    </g>
  </g>
</svg>