<?xml version="1.0" encoding="UTF-8"?>
<svg id="_圖層_2" data-name="圖層 2" xmlns="http://www.w3.org/2000/svg" viewBox="0 0 277.76 150.7">
  <defs>
    <style>
      .cls-1 {
        fill: #b47b5b;
      }
    </style>
  </defs>
  <g id="_圖層_1-2" data-name="圖層 1">
    <g>
      <path class="cls-1" d="M56.84,52.48s6.1,4.98,9.61,8.28c-.21,.77-.98,1.12-2.03,1.12H14.46l-2.88,4.84L1.69,61.18c.56-.7,1.4-1.54,2.25-2.25V2.46l10.94,4H50.31L54.95,0s5.33,4.35,8.42,7.3c-.21,.77-.98,1.12-1.96,1.12H13.9V59.92H51.51l5.33-7.44Zm-18.66,4.42V30.31h-7.72c-.21,8.56-2.03,20.14-14.59,27.22l-.56-.77c5.4-8.56,5.68-19.43,5.68-28.42V13.54l9.19,2.95c7.16-1.96,15.01-4.98,19.36-7.37l9.33,9.12c-.91,.77-2.67,.91-4.98,0-6.03,.7-15.29,.77-23.43,.21v9.89h18.59l4.84-5.96s5.47,4,8.84,6.8c-.21,.77-.98,1.12-1.96,1.12h-12.98v24.28c0,.49-2.88,2.31-7.86,2.31h-1.75Z"/>
      <path class="cls-1" d="M79.43,20.84c6.38,12.98,4.91,21.96,1.26,27.15-2.53,3.93-7.16,3.93-9.68,1.19-1.96-2.46-1.4-5.47,.7-7.65,3.51-3.09,7.09-11.3,6.95-20.63l.77-.07Zm20.28-6.95c-.07,.91-.7,1.68-2.46,1.89V50.72c0,1.68,.91,2.18,3.58,2.18h7.93c2.39,0,4.56-.07,5.89-.14,1.19-.07,1.96-.35,2.6-1.19,1.12-1.54,2.6-5.26,4.42-10.45h.7l.28,10.88c2.95,1.19,3.79,2.38,3.79,4.35,0,4.63-4,6.88-18.73,6.88h-8.42c-9.12,0-12.21-1.54-12.21-9.33V12.7l12.63,1.19Zm7.65,7.23c-1.19-6.88-5.12-14.31-9.26-19.64l.56-.42c27.15,6.95,18.87,27.85,8.7,20.07Zm19.08,28.21c-.07-7.23-1.54-18.17-6.95-26.24l.56-.49c29.19,16.21,14.03,37.4,6.38,26.73Z"/>
      <path class="cls-1" d="M201.71,34.1c-.84,6.24-2.6,12-5.54,17.05,3.09,2.24,6.81,4.07,11.16,5.4l-.14,.7c-4.14,1.54-6.03,4.42-6.74,9.19-3.86-2.32-6.81-5.33-9.12-8.91-3.37,3.58-7.72,6.59-13.26,8.98l-.49-.77c5.05-4,8.49-8.77,10.8-14.03-1.4-3.44-2.46-7.3-3.3-11.44-1.75,2.46-3.72,4.49-5.96,6.17l-.84-.56c1.05-2.81,1.96-6.17,2.67-9.75h-3.58v28.2c-.07,.42-2.46,2.11-6.59,2.11h-1.47v-9.33c-3.37,1.47-7.58,3.16-12.91,5.19-.42,.91-1.12,1.4-1.89,1.61l-4.14-8.42c1.4-.07,3.37-.14,5.75-.28v-19.08h-2.18c-.28,9.61-2.32,22.17-13.54,30.17l-.56-.49c4.49-10.1,4.56-23.08,4.56-33.4v-15.86l4.77,1.61V1.4l9.4,3.58h3.79l4.07-4.56,7.86,5.75c-.42,.63-1.05,.98-2.6,1.26V16c0,.28-2.74,1.54-7.44,1.54h-1.68v-1.82h-4.7v1.05c0,.56-2.67,1.82-7.16,1.82h-.35l5.12,1.75h37.47l2.74-3.3c-1.26,.28-2.88,.49-4.91,.49h-1.68v-1.82h-4.98v.98c0,.56-2.67,1.89-7.23,1.89h-1.61V1.4l9.54,3.58h4.07l4.14-4.63,7.93,5.82c-.42,.63-.98,.98-2.53,1.26v7.44c1.47,1.05,5.61,4.07,8.42,6.31-.21,.77-.98,1.12-2.03,1.12h-22.17l11.51,2.24c-.28,.91-1.05,1.54-2.67,1.68-.56,2.1-1.26,4.07-1.96,5.89h4.56l4.49-6.17s5.12,4.21,8.07,7.02c-.21,.77-.91,1.12-1.96,1.12h-2.95Zm-39.29,.07v-5.4h-7.09l-.56-1.96h13.96l3.44-4.49h-18.17v11.86h8.42Zm-4.56-27.22v6.8h4.7V6.95h-4.7Zm11.44,29.19h-5.26v4.84h5.26v-4.84Zm0,6.81h-5.26v4.98h5.26v-4.98Zm0,11.37v-4.42h-5.26v4.84l5.26-.42Zm1.89-20.14l4.07-5.4h-4.07v5.4Zm4.49-5.4c.77,.7,3.44,2.88,5.68,4.91,.56-3.72,.84-7.58,.91-11.37h-8.21c1.54,1.26,4.42,3.51,6.38,5.33-.21,.77-.98,1.12-1.96,1.12h-2.81Zm13.4-15.01V6.95h-4.98v6.8h4.98Zm-.42,20.35c-.7,1.54-1.47,2.95-2.32,4.28,1.12,2.67,2.46,5.12,4.14,7.23,.98-3.65,1.54-7.51,1.82-11.51h-3.65Z"/>
      <path class="cls-1" d="M232.86,9.12s4.14,3.3,6.59,5.61c-.21,.77-.91,1.12-1.89,1.12h-26.66l-.56-1.96h18.87l3.65-4.77Zm-5.68,13.75l3.51-4.56s4,3.16,6.38,5.4c-.21,.77-.91,1.12-1.89,1.12h-21.68l-.56-1.96h14.24Zm3.51,4.56s4,3.16,6.38,5.4c-.21,.77-.91,1.12-1.89,1.12h-21.68l-.56-1.96h14.24l3.51-4.56Zm5.12,32.83c-.07,.56-4.21,2.39-7.16,2.39h-1.54v-3.79h-4.84v4.35c0,.77-3.72,2.67-7.3,2.67h-1.26v-28.2l8.84,3.44h3.93l3.86-4.07,7.86,5.89c-.35,.49-1.19,1.05-2.39,1.26v16.07ZM216.44,1.4c20.7-.77,12.84,15.51,4.14,9.82-.49-3.51-2.53-7.23-4.56-9.47l.42-.35Zm10.66,55.5v-13.82h-4.84v13.82h4.84Zm42.66-2.03c.91,.77,5.33,4.56,8,7.23-.14,.77-.91,1.12-1.89,1.12h-40.55l-.56-1.96h15.72v-6.38h-11.44l-.56-1.96h12v-5.82h-12l-.56-1.96h12.56v-7.51h-4.35v1.96c0,.7-3.79,2.53-7.16,2.53h-1.19V22.45l8.77,3.37h3.93v-5.12c-1.26,.63-4.21,1.4-6.95,1.4h-1.54V11.01h-5.26l-.49-1.89h5.75V0l11.72,.98c-.14,.98-.63,1.68-2.6,1.96v6.17h7.51V0l11.79,.98c-.14,.98-.63,1.68-2.6,1.96V7.79l2.95-4.42s4.35,3.93,6.74,6.52c-.21,.77-.91,1.12-1.82,1.12h-7.86v8.56c0,.56-4,1.82-7.65,1.82h-.56v4.42h3.79l3.93-4.21,8.28,6.1c-.42,.49-1.26,1.05-2.53,1.33v9.05c-.07,.35-2.03,1.05-4.14,1.47,.98,.91,4.7,4.07,6.95,6.38-.21,.77-.91,1.12-1.89,1.12h-14.38v5.82h4l4-5.75s4.63,3.93,7.3,6.6c-.21,.77-.91,1.12-1.89,1.12h-3.23Zm-19.29-19.22v-7.86h-4.35v7.86h4.35Zm.63-24.63v7.16h7.51v-7.16h-7.51Zm8.49,16.77v7.86h4.49v-7.86h-4.49Zm0,17.33h5.05l3.79-5.4c-.98,.14-1.96,.28-2.81,.28h-1.54v-2.38h-4.49v7.51Zm5.47,16.14l4.49-6.38h-9.96v6.38h5.47Z"/>
      <path class="cls-1" d="M66.66,99.06c-.56,.63-1.26,.84-2.81,.91-2.95,2.6-8.07,5.96-12.07,7.86l-.42-.42c.77-2.67,1.54-6.53,2.03-9.54H10.53c1.12,5.26-.07,9.12-2.39,11.01-2.32,1.89-6.6,1.05-7.86-2.24-.98-3.09,.63-5.54,3.23-6.88,1.89-1.4,4.42-4.91,4-8.28h.84c.7,1.54,1.26,3.02,1.68,4.42H29.55c-.49-.28-.98-.63-1.4-.98,.42-3.79-.7-7.79-3.02-10.1l.35-.35c16,0,16.14,8.35,11.51,11.44h15.86l5.12-5.05,8.7,8.21Zm-10.38,10.52s5.75,4.21,9.26,7.16c-.21,.77-.98,1.12-2.03,1.12h-14.1c-1.47,6.38-3.86,12-8.07,16.77,27.5,7.09,14.66,19.5,6.17,15.01-3.23-2.67-7.86-5.68-13.75-8.63-7.23,4.56-17.47,7.86-32.06,9.68l-.35-.77c11.51-3.23,19.57-7.44,25.12-12.21-5.26-2.25-11.3-4.35-17.89-6.1,1.82-3.37,4.21-8.49,6.45-13.75H1.41l-.56-1.96H15.87c2.67-6.31,5.05-12.49,5.89-15.79l13.54,3.86c-.21,.77-.84,1.47-3.23,1.47-1.26,2.67-3.02,6.38-5.05,10.45h11.09c.42-2.88,.63-5.82,.7-8.77l14.45,2.53c-.21,1.12-1.05,1.75-2.74,1.75-.21,1.54-.42,3.02-.7,4.49h1.4l5.05-6.31Zm-30.17,8.28c-2.32,4.56-4.77,9.33-7.09,13.26,4.56,.42,8.63,.91,12.28,1.47,3.51-4.49,5.47-9.47,6.45-14.73h-11.65Z"/>
      <path class="cls-1" d="M79.43,105.02c6.38,12.98,4.91,21.96,1.26,27.15-2.53,3.93-7.16,3.93-9.68,1.19-1.96-2.46-1.4-5.47,.7-7.65,3.51-3.09,7.09-11.3,6.95-20.63l.77-.07Zm20.28-6.95c-.07,.91-.7,1.68-2.46,1.89v34.94c0,1.68,.91,2.18,3.58,2.18h7.93c2.39,0,4.56-.07,5.89-.14,1.19-.07,1.96-.35,2.6-1.19,1.12-1.54,2.6-5.26,4.42-10.45h.7l.28,10.88c2.95,1.19,3.79,2.38,3.79,4.35,0,4.63-4,6.88-18.73,6.88h-8.42c-9.12,0-12.21-1.54-12.21-9.33v-41.18l12.63,1.19Zm7.65,7.23c-1.19-6.88-5.12-14.31-9.26-19.64l.56-.42c27.15,6.95,18.87,27.85,8.7,20.07Zm19.08,28.21c-.07-7.23-1.54-18.17-6.95-26.24l.56-.49c29.19,16.21,14.03,37.4,6.38,26.73Z"/>
      <path class="cls-1" d="M202.2,114.29c-.42,.56-1.12,.91-2.74,.49-4.42,1.61-10.31,3.23-16.49,4.63,4.7,9.47,14.1,14.24,23.43,17.19l-.14,.77c-3.79,.84-6.59,3.93-8,8.63-8.56-5.89-13.96-13.19-16.84-26.24-1.54,.28-3.09,.63-4.63,.91,5.89,9.96,5.47,21.89,1.82,26.66-1.96,2.53-6.03,3.37-11.58,3.37-.07-2.81-.63-4.84-1.75-6.24-.91-1.12-3.02-2.17-5.96-3.02v-.7c2.95,.28,7.37,.56,9.05,.56,.98,0,1.75-.14,2.1-.77,.56-1.12,1.05-3.09,1.19-5.47-8.35,4.7-19.29,8.7-30.31,10.52l-.42-.91c11.72-4.21,23.43-12.7,29.96-21.4l-.07-.49c-7.3,4.42-17.68,8.7-27.43,11.08l-.35-.77c8.63-4.28,17.89-12.21,23.29-19.22-6.59,3.58-14.45,6.38-22.52,8.35l-.42-.77c8.07-3.93,15.43-10.1,20.28-15.5h-12l-.56-1.96h32.27l4.91-6.24s2.74,2.1,5.54,4.35c.14-1.89,.14-4.28,.14-6.24h-41.96c.63,5.19-1.12,8.84-3.72,10.45-2.46,1.54-6.24,.7-7.3-2.38-.91-2.95,.84-5.19,3.3-6.31,2.32-1.26,5.19-4.49,5.12-8h.84c.63,1.47,1.05,2.95,1.4,4.28h18.8c-.28-.14-.49-.28-.77-.42-.28-3.37-2.25-6.8-4.56-8.7l.42-.35c15.44-1.89,15.44,6.81,10.8,9.47h16.84l4.77-4.84,8.35,7.86c-.56,.63-1.26,.84-2.74,.91-2.1,1.75-5.61,3.93-8.56,5.33,.77,.56,1.4,1.12,2.03,1.68-.14,.77-.98,1.12-1.96,1.12h-17.68c-2.25,2.25-4.98,4.35-8.07,6.24,2.53,1.96,4.63,4.28,6.24,6.66,6.24-3.93,13.05-9.4,16.63-12.91l9.96,8.35Z"/>
      <path class="cls-1" d="M275.87,91.76c-.49,.63-1.33,1.19-2.81,1.54v53.81c-.07,.7-4.77,3.09-8.56,3.09h-1.61v-5.75h-39.78v2.39c0,1.26-4,3.72-8.28,3.72h-1.68V85.45l10.8,4.28h38.24l4.7-5.19,8.98,7.23Zm-52.76,50.73h10.94l-3.79-6.1c2.32-1.47,2.67-2.03,2.67-3.3v-2.24c-2.81,1.19-5.82,2.17-8.98,2.95l-.56-1.05c5.19-2.46,9.61-6.03,12.63-9.89h-.63c-.84,.77-4,2.03-6.74,2.03h-1.12v-15.79l8.42,3.23h14.38l3.51-3.58,7.23,5.26c-.28,.42-.91,.84-1.89,1.05v7.16c0,.21-.56,.49-1.26,.77l4.98,4.42v-19.58c-.35,.21-.7,.28-1.19,.28h-37.82l-.56-1.96h15.29v-4.98h-11.79l-.56-1.96h12.35v-6.24l10.87,.91c-.07,.77-.49,1.33-1.96,1.61v3.72h3.16l3.79-4.56s4.28,3.09,6.95,5.4c-.14,.77-.84,1.12-1.82,1.12h-12.07v4.98h4.84l3.93-4.84s3.79,2.81,6.6,5.12v-14.73h-39.78v50.8Zm39.78,0v-14.95c-.35,.49-1.05,.63-2.32,.14-1.26,.49-3.16,.98-5.12,1.47,11.23,5.82,6.74,13.89,1.47,10.95-1.75-3.3-6.88-9.12-13.68-13.75l.49-.91c3.16,.63,5.89,1.33,8.14,2.17,1.12-1.19,2.25-2.6,3.16-3.79-.91,.21-1.89,.35-2.67,.35h-1.47v-1.33h-5.4c-1.33,1.47-2.95,2.81-4.77,4v6.81c2.39-.63,5.05-1.4,7.72-2.17l.21,.84c-2.46,1.89-7.72,5.75-13.26,9.47-.21,.28-.49,.49-.7,.7h28.2Zm-12-28.21h-15.3v6.6h15.3v-6.6Z"/>
    </g>
  </g>
</svg>