<?xml version="1.0" encoding="UTF-8"?>
<svg id="_圖層_2" data-name="圖層 2" xmlns="http://www.w3.org/2000/svg" viewBox="0 0 783.39 133.43">
  <defs>
    <style>
      .cls-1 {
        fill: #fff;
        opacity: .7;
      }

      .cls-2 {
        fill: #231815;
      }
    </style>
  </defs>
  <g id="_圖層_1-2" data-name="圖層 1">
    <rect class="cls-1" width="783.39" height="133.43" rx="30" ry="30"/>
    <g>
      <path class="cls-2" d="M29.07,37.73c1.23,6.54,5.15,13.27,15.23,17.54l-.07,.39c-1.75,.31-2.84,1.26-3.22,3.15-8.82-5.11-11.55-13.62-12.53-20.58-1.02,8.3-4.38,15.47-16.77,20.58l-.38-.56c9.98-5.71,12.85-12.6,13.65-20.51H11.99l-.31-1.02h13.37c.28-3.29,.25-6.76,.25-10.36l4.97,.49c-.11,.53-.42,.88-1.26,1.02-.07,3.04-.1,6.02-.35,8.86h8.86l2.28-2.87s2.59,1.96,4.13,3.33c-.1,.38-.49,.56-.98,.56h-13.86Z"/>
      <path class="cls-2" d="M76.4,26.67s2.49,1.82,3.96,3.12c-.11,.38-.46,.56-.95,.56h-13.55c-1.22,1.75-2.73,3.75-3.95,5.18h12.18l1.71-2.03,3.36,2.66c-.25,.31-.63,.56-1.44,.7v20.55c0,.25-1.22,.95-2.91,.95h-.56v-2.52h-20.58v1.89c0,.25-1.02,.91-2.73,.91h-.56v-24.57l3.71,1.47h6.62c.21-1.43,.49-3.5,.7-5.18h-13.16l-.31-1.02h26.29l2.17-2.66Zm-22.72,28.14h4.55v-18.27h-4.55v18.27Zm12.85-18.27h-5.18v5.32h5.18v-5.32Zm-5.18,11.76h5.18v-5.42h-5.18v5.42Zm0,6.51h5.18v-5.5h-5.18v5.5Zm8.3-18.27v18.27h4.62v-18.27h-4.62Z"/>
      <path class="cls-2" d="M96.31,40.53c-1.22,.77-2.76,1.75-4.62,2.87v11.34c0,2.34-.45,3.67-4.1,4.03-.07-.95-.25-1.75-.66-2.24-.46-.53-1.15-.88-2.52-1.08v-.53s2.87,.21,3.5,.21c.56,0,.7-.17,.7-.63v-9.31c-.84,.46-1.72,.95-2.62,1.47-.14,.45-.42,.8-.81,.95l-1.5-3.92c.98-.21,2.77-.7,4.94-1.33v-6.93h-4.13l-.28-1.02h4.41v-8.16l4.38,.46c-.1,.49-.46,.84-1.3,.95v6.75h.46l1.61-2.48s1.75,1.75,2.73,2.94c-.11,.39-.42,.56-.91,.56h-3.89v6.06c1.44-.42,2.98-.91,4.48-1.37l.14,.42Zm11.59,4.38c2.07,3.75,5.78,6.75,9.42,8.19l-.07,.32c-1.3,.31-2.24,1.33-2.7,2.97-3.43-2.38-5.88-6.23-7.35-11.24v12.67c0,.32-1.44,.91-2.62,.91h-.6v-10.08c-2.49,3.25-5.99,5.92-10.26,7.88l-.35-.49c4.09-2.8,7.18-6.86,8.96-11.13h-6.86l-.25-1.02h8.75v-4.31l4.41,.42c-.07,.46-.35,.81-1.19,.95v2.94h4.34l1.93-2.52s2.13,1.75,3.46,2.98c-.1,.38-.45,.56-.94,.56h-8.09Zm7.67-15.33c-.35,.32-1.05,.35-2.03-.07-4.38,.84-11.38,1.58-17.33,1.68l-.14-.6c5.57-.84,12.6-2.66,16.17-4.17l3.33,3.15Zm-18.48,3.15c7.42,3.19,4.06,8.72,1.44,6.13,.03-1.96-.91-4.38-1.82-5.95l.38-.17Zm6.16-1.08c7.39,3.12,4.06,8.65,1.4,6.09,0-2-.88-4.34-1.79-5.92l.39-.17Zm5.6,8.86c1.19-2.24,2.52-5.88,3.43-9.21l4.38,1.58c-.18,.42-.6,.7-1.33,.63-1.72,2.84-3.92,5.53-5.99,7.28l-.49-.28Z"/>
      <path class="cls-2" d="M152.17,54.26c.98,.38,1.19,.77,1.19,1.47,0,1.44-1.33,2.1-7.07,2.1h-3.64c-3.25,0-4.03-.7-4.03-3.19v-13.69h-4.17c-.7,9-3.71,14.77-13.9,17.82l-.18-.46c7.88-3.96,9.94-9.49,10.26-17.36h-9.77l-.31-1.01h14.49v-13.69l4.73,.46c-.07,.49-.38,.84-1.29,.98v12.25h8.72l2.13-2.63s2.38,1.79,3.82,3.08c-.1,.38-.46,.56-.98,.56h-10.15v12.85c0,.63,.17,.8,1.37,.8h3.19c1.26,0,2.31,0,2.8-.07,.46-.04,.59-.14,.8-.53,.35-.74,.88-3.01,1.47-5.57h.38l.14,5.81Zm-28.04-25.83c10.22,4.45,7.14,11.97,3.64,9.03-.35-2.94-2.21-6.44-4.03-8.79l.39-.25Zm26.88,1.93c-.17,.38-.67,.63-1.44,.52-2.31,2.84-5.11,5.64-7.67,7.49l-.38-.35c1.4-2.34,3.36-6.3,4.8-9.8l4.69,2.14Z"/>
      <path class="cls-2" d="M172.47,33.6c-.24,.28-.77,.56-1.47,.74v21.11c-.04,.28-1.58,.98-2.66,.98h-.49v-2.7h-6.2v2.7c0,.35-1.19,1.12-2.52,1.12h-.53V31.29l3.22,1.47h.63c.32-1.86,.74-4.55,.98-6.48l4.83,1.16c-.17,.56-.63,.8-1.4,.8-.84,1.33-2.06,3.12-3.04,4.52h3.68l1.61-1.82,3.36,2.66Zm-10.82,.17v8.72h6.2v-8.72h-6.2Zm6.2,18.94v-9.21h-6.2v9.21h6.2Zm21.7-19.11c-.28,.32-.7,.53-1.5,.63-.25,13.58-.8,20.62-2.59,22.65-1.12,1.29-2.62,1.82-4.66,1.82,0-1.09-.17-1.92-.73-2.42-.6-.56-2-1.05-3.61-1.33l.03-.56c1.65,.17,4.1,.35,4.94,.35,.7,0,.98-.11,1.37-.46,1.3-1.26,1.72-8.61,1.96-20.58h-7.35c-1.61,2.91-3.5,5.46-5.6,7.35l-.49-.32c2.06-3.54,4.09-9.1,5.15-14.46l4.66,1.37c-.14,.42-.56,.73-1.33,.73-.53,1.51-1.16,2.94-1.86,4.31h6.44l1.89-2,3.29,2.91Zm-14.98,6.27c9.45,3.33,6.37,10.12,3.19,7.46-.28-2.42-1.96-5.36-3.5-7.25l.32-.21Z"/>
      <path class="cls-2" d="M201.59,38.33c7.25,2.77,4.55,7.74,2.07,5.57-.21-1.47-1.12-3.29-2.07-4.66v18.45c0,.38-1.33,1.09-2.49,1.09h-.63v-15.02c-1.29,2.62-2.94,4.97-4.97,7l-.49-.42c2.56-4.06,4.1-9.45,4.97-14.74h-4.34l-.28-1.01h5.11v-8.47l4.38,.46c-.07,.53-.35,.84-1.26,.98v7.04h1.01l1.72-2.35s1.85,1.65,2.98,2.8c-.07,.38-.42,.56-.91,.56h-4.8v2.73Zm22.72-6.62c-.28,.31-.66,.42-1.51,.49-1.29,2.56-2.97,4.97-5.11,7.04,2.42,1.4,5.32,2.52,8.72,3.25l-.07,.39c-1.36,.42-2.1,1.33-2.34,2.91-.74-.28-1.47-.56-2.14-.88l1.96,1.5c-.25,.31-.6,.49-1.33,.63v10.54c0,.17-1.12,.8-2.7,.8h-.56v-2.1h-7.84v1.61c0,.21-.98,.8-2.55,.8h-.53v-13.44c-1.37,.59-2.83,1.08-4.34,1.5l-.28-.52c4.13-1.72,7.67-4.1,10.47-6.93-1.33-1.51-2.41-3.22-3.36-5.11-1.5,2.07-3.22,3.78-5.11,5.04l-.46-.35c2.34-2.94,4.62-7.67,5.74-12.6l4.45,1.5c-.14,.42-.56,.74-1.33,.66-.35,.74-.7,1.5-1.08,2.24h6.3l1.89-1.79,3.12,2.8Zm-3.85,12.53c-1.82-.98-3.36-2.03-4.73-3.29-1.82,1.51-3.96,2.77-6.37,3.85l2.45,1.02h7.28l1.37-1.58Zm-7.98-12.57c-.38,.63-.77,1.22-1.15,1.79,1.12,1.61,2.52,3.08,4.17,4.38,1.61-1.92,2.91-3.99,3.85-6.16h-6.86Zm6.76,23.59v-8.44h-7.84v8.44h7.84Z"/>
      <path class="cls-2" d="M261.65,41.13c-.25,.28-.66,.53-1.37,.6-.21,9.52-.7,14.14-2.24,15.68-1.01,.91-2.34,1.37-4.13,1.37,0-.98-.11-1.79-.59-2.28-.56-.53-1.82-.95-3.19-1.23l.04-.52c1.29,.14,3.57,.31,4.3,.31,.6,0,.88-.1,1.16-.38,.84-.84,1.19-5.53,1.37-13.44h-19.36c-.21,5.99-1.4,12.78-7.42,17.47l-.42-.28c4.06-5.74,4.51-12.95,4.51-19.85v-11.13l3.89,1.43h15.47l1.65-1.75,3.5,2.62c-.25,.28-.77,.6-1.47,.74v6.58c-.04,.24-1.68,.84-2.77,.84h-.56v-1.93h-16.35v4.24h18.97l1.79-1.86,3.22,2.76Zm-23.98-11.24v5.08h16.35v-5.08h-16.35Zm14.42,23.03c-.04,.28-1.58,.95-2.59,.95h-.56v-1.68h-6.09v2.14c0,.31-1.37,.98-2.62,.98h-.42v-11.87l3.22,1.37h5.64l1.47-1.54,3.08,2.31c-.17,.25-.59,.49-1.12,.59v6.76Zm-3.15-1.75v-5.36h-6.09v5.36h6.09Z"/>
      <path class="cls-2" d="M270.82,46.13c2.07-1.19,3.01-2.7,3.46-4.52-1.82-.8-2.97-1.68-2.97-3.18,0-1.26,.88-2.35,2.42-2.35s2.66,1.16,2.66,3.33c0,2.66-1.26,6.06-4.97,7.84l-.59-1.12Z"/>
      <path class="cls-2" d="M295.21,31.05s1.72,1.4,2.84,2.45c-.11,.38-.46,.56-.95,.56h-11.8l-.28-1.01h8.58l1.61-2Zm-2.45,6.41l1.44-1.86s1.65,1.33,2.66,2.31c-.11,.38-.42,.56-.91,.56h-9.31l-.28-1.01h6.41Zm1.44,2.66s1.65,1.29,2.66,2.28c-.11,.38-.42,.56-.91,.56h-9.31l-.28-1.01h6.41l1.44-1.82Zm20.83,5.43s1.71,1.37,2.8,2.34c-.07,.39-.42,.56-.88,.56h-3.92l2.8,2.17c-.14,.25-.46,.35-1.19,.14-.91,.46-2.56,1.02-3.89,1.51,1.89,1.43,4.24,2.49,6.76,3.01l-.04,.39c-1.08,.28-1.96,1.22-2.28,2.66-4.34-1.79-7.14-4.97-8.65-9.87-.66,.7-1.4,1.26-2.24,1.86v4.41c1.22-.38,2.59-.81,3.96-1.26l.14,.46c-1.12,.84-3.5,2.59-5.99,4.27-.25,.32-.56,.56-.84,.67l-1.47-3.15c1.22-.56,1.4-.8,1.4-1.4v-2.38c-1.54,.74-3.22,1.37-4.97,1.82l-.31-.52c2.62-1.23,4.87-2.91,6.48-4.76h-5.71l-.25-.88c-.21,.1-.49,.21-.77,.28v8.26c-.04,.28-1.44,.94-2.45,.94h-.45v-1.64h-3.5v2.06c0,.28-1.26,.95-2.49,.95h-.42v-13.3l3.04,1.26h3.01l1.47-1.54,3.12,2.34c-.07,.07-.17,.18-.28,.25h4.59v-2.38h-3.47l-.28-1.02h3.75v-2.17h-4.2l-.28-.98h4.48v-2.38l3.82,.38c-.04,.42-.32,.7-.98,.81v1.19h3.68l-.04-2c-.11,.04-.25,.04-.35,.04h-.35v-6.97l2.52,1.09h2.62l1.19-1.26,2.62,2c-.17,.21-.63,.46-1.19,.56v3.64c-.04,.24-1.22,.73-2,.73h-.35v-.63h-3.08v.14c0,.07-.25,.25-.6,.35l2.59,.28c-.04,.35-.28,.63-.81,.73v1.3h1.72l1.43-1.82s1.68,1.26,2.7,2.24c-.1,.38-.42,.56-.91,.56h-4.94v2.17h1.05l1.36-1.68s1.54,1.19,2.49,2.13c-.07,.39-.38,.56-.88,.56h-4.03v2.38h2.56l1.54-1.89Zm-26.95-18.69c8.05,1.05,5.39,6.9,2.35,4.83-.35-1.61-1.61-3.47-2.7-4.62l.35-.21Zm5.01,27.55v-7h-3.5v7h3.5Zm3.71-24.19h9.31c-.25-.07-.49-.21-.77-.38-.14-1.33-1.05-2.83-1.89-3.71l.31-.24c5.46,.59,5.04,3.82,3.29,4.34h5.57l1.75-2.13s2,1.47,3.19,2.59c-.11,.38-.45,.56-.88,.56h-19.57l-.32-1.02Zm6.9,8.51v-.67h-2.94v.46c0,.17-1.05,.7-2,.7h-.35v-7.25l2.49,1.09h2.52l1.22-1.23,2.56,1.92c-.17,.25-.59,.49-1.16,.6v3.64c-.04,.24-1.19,.73-1.96,.73h-.38Zm0-1.68v-2.98h-2.94v2.98h2.94Zm.77,7h3.68v-2.17h-3.68v2.17Zm0,1.02v2.35h2.56v.03h1.12v-2.38h-3.68Zm2.87,3.4c.7,1.19,1.61,2.24,2.66,3.19,.91-.98,1.96-2.28,2.66-3.19h-5.32Zm2.42-14.39v3.01h3.08v-3.01h-3.08Z"/>
      <path class="cls-2" d="M350.48,40.74s2.1,1.61,3.36,2.8c-.07,.38-.42,.56-.91,.56h-16c1.05,2.35,2.52,4.34,4.41,6.02,1.92-1.92,4.06-4.27,5.22-5.88l3.71,2.34c-.21,.28-.59,.32-1.16,.17-1.61,1.12-4.45,2.73-6.93,4.06,2.87,2.17,6.55,3.61,10.71,4.2l-.03,.42c-1.3,.35-2.35,1.47-2.7,3.12-7.63-2.14-11.76-6.58-13.93-14.46h-4.87v10.36c2-.49,4.34-1.08,6.72-1.71l.14,.46c-1.75,1.08-5.04,3.08-8.82,5.11-.25,.31-.49,.49-.7,.63l-2.06-3.71c1.36-.7,1.58-.98,1.58-1.64v-9.49h-6.27l-.28-1.01h7.11v-16l3.78,1.5h12.04l1.89-2.31s2.17,1.61,3.43,2.76c-.11,.39-.46,.56-.91,.56h-17.01v3.82h11.38l1.68-2.14s1.96,1.47,3.19,2.59c-.1,.38-.46,.56-.95,.56h-15.3v3.92h11.41l1.71-2.17s1.96,1.47,3.15,2.62c-.07,.38-.42,.56-.91,.56h-15.37v3.71h16.63l1.86-2.35Z"/>
      <path class="cls-2" d="M386.67,35.49s2.28,1.79,3.64,2.97c-.11,.39-.46,.56-.98,.56h-11.55c-2.03,1.5-4.27,2.98-6.65,4.34h9.87l1.65-1.75,3.47,2.63c-.21,.28-.74,.59-1.44,.73v12.67c-.07,.25-1.68,.88-2.8,.88h-.52v-2.28h-11.97v1.44c0,.35-1.33,1.09-2.73,1.09h-.52v-12.81c-2.66,1.22-5.46,2.34-8.37,3.22l-.25-.53c2.98-1.26,5.85-2.77,8.61-4.45v-2.28l2.17,.88c1.82-1.19,3.57-2.45,5.22-3.78h-15.09l-.28-.98h12.08v-5.36h-8.44l-.28-1.01h8.72v-5.46l4.45,.38c-.07,.46-.32,.77-1.09,.91v4.17h2.7l1.92-2.49s1.79,1.37,3.12,2.55c1.4-1.54,2.59-3.08,3.61-4.55l3.89,2.8c-.32,.32-.7,.42-1.54,.14-2.13,2.62-4.9,5.32-8.19,7.91h5.6l2-2.55Zm-17.29,8.89v4.73h11.97v-4.73h-11.97Zm11.97,10.85v-5.11h-11.97v5.11h11.97Zm-6.62-17.19c2.1-1.75,4.03-3.54,5.71-5.36h-6.86v5.36h1.15Z"/>
      <path class="cls-2" d="M404.69,41.48c-.14,.35-.46,.56-1.08,.66v15.58c-.07,.25-1.47,.98-2.73,.98h-.63v-14.28c-1.75,1.58-3.64,2.94-5.85,4.13l-.35-.38c4.55-3.64,7.91-8.75,10.19-13.93h-8.89l-.32-1.01h9.63c1.02-2.42,1.75-4.8,2.28-7.07l5.04,1.37c-.14,.42-.45,.66-1.37,.7-.56,1.65-1.26,3.29-2.1,5.01h11.8l2.17-2.66s2.38,1.82,3.85,3.12c-.07,.38-.46,.56-.95,.56h-17.36c-1.22,2.31-2.73,4.66-4.55,6.79l1.22,.46Zm18.38,11.62s2.28,1.75,3.75,3.01c-.1,.38-.46,.56-.98,.56h-21.21l-.28-1.01h8.51v-10.68h-6.69l-.28-1.01h6.97v-8.19l4.48,.46c-.04,.46-.32,.77-1.12,.91v6.83h2.8l1.96-2.45s2.21,1.68,3.5,2.91c-.07,.38-.45,.56-.91,.56h-7.35v10.68h4.76l2.1-2.56Z"/>
      <path class="cls-2" d="M455.48,28.6c.42,13.51,2.03,21.6,8.33,26.18l-.07,.42c-1.5,.35-2.52,1.58-2.94,3.46-3.61-3.75-5.04-10.54-5.64-19.6-.66,8.02-2.84,14.81-10.82,19.71l-.42-.53c1.65-1.47,2.94-2.98,4.03-4.62h-12.15l-1.08,1.75-3.5-2.14c.25-.28,.63-.63,1.02-.88V27.16l3.85,1.96h8.16l1.96-2.62s2.2,1.82,3.54,3.08c-.11,.38-.46,.56-.95,.56h-6.2v6.2h2.49l1.51-1.61,2.87,2.49c-.25,.28-.7,.53-1.26,.63v7.84c-.07,.14-1.33,.7-2.55,.7h-.63v-1.61h-2.42v7.84h1.44l1.86-2.55s1.5,1.33,2.7,2.49c4.03-7.07,3.61-15.86,3.64-26.29l4.52,.46c-.07,.53-.38,.88-1.26,.98v.91Zm-15.96,7.74v-6.2h-3.99v6.2h3.99Zm5.5,1.01h-9.49v6.41h9.49v-6.41Zm-5.5,15.26v-7.84h-3.99v7.84h3.99Z"/>
      <path class="cls-2" d="M495.56,53.66s2.34,1.79,3.81,3.05c-.1,.38-.45,.56-.98,.56h-30.66l-.32-1.01h14.14v-5.22h-10.22l-.28-1.01h10.5v-4.97l4.69,.38c-.04,.53-.32,.84-1.19,.98v3.61h5.22l2-2.45s2.24,1.68,3.68,2.91c-.11,.38-.46,.56-.95,.56h-9.94v5.22h8.4l2.1-2.59Zm-23.1-21.74c.14,2.34-.74,3.96-1.86,4.69-.98,.66-2.45,.52-2.87-.56-.39-1.01,.25-1.89,1.12-2.34,1.29-.67,2.55-2.56,2.45-4.59l.52-.04c.25,.63,.39,1.26,.49,1.82h11.34c-.32-.04-.63-.17-.95-.38-.25-1.5-1.4-3.19-2.59-4.1l.28-.25c6.65,.07,6.13,4.34,3.92,4.73h10.12l1.82-1.86,3.22,3.12c-.28,.28-.63,.39-1.33,.42-.88,1.08-2.31,2.59-3.5,3.43l-.39-.21c.17-1.05,.39-2.62,.49-3.88h-22.3Zm-.98,11.13s.74-.11,1.08-.28c2.62-1.05,6.06-4.03,7.81-6.02h-8.02l-.28-1.01h17.15l1.89-2.24s2.14,1.54,3.47,2.7c-.07,.38-.46,.56-.91,.56h-11.31l2.73,1.44c-.17,.31-.63,.56-1.37,.42-2.06,1.47-5.57,3.33-8.79,4.58,3.88-.04,9.84-.17,16.1-.42-1.09-1.29-2.31-2.49-3.36-3.36l.35-.28c10.47,2.35,8.79,9.07,5.36,7.25-.38-.91-1.01-1.89-1.75-2.87-4.24,.7-10.4,1.61-17.64,2.45-.28,.49-.63,.8-.98,.95l-1.54-3.85Z"/>
      <path class="cls-2" d="M533.01,53.63s2.24,1.79,3.57,3.08c-.11,.38-.46,.56-.95,.56h-20.51l-.28-1.01h9.17v-5.99h-6.76l-.28-1.02h7.04v-5.88h-3.54v1.61c0,.35-1.26,1.05-2.52,1.05h-.49v-5.29c-.28,.14-.66,.17-1.12,.04-.84,.84-1.86,1.68-2.94,2.35,5.32,2.55,3.12,6.62,.7,4.79-.38-1.58-1.61-3.36-2.73-4.76v14.56c0,.25-1.01,1.02-2.52,1.02h-.53v-14c-1.44,1.37-2.98,2.66-4.59,3.64l-.38-.38c3.61-3.4,7-8.79,8.51-13.09h-7.84l-.31-1.01h8.05l1.85-1.79,3.05,2.97c-.32,.28-.74,.35-1.54,.42-.88,1.89-2.17,3.92-3.75,5.85v.98c.39,.11,.77,.25,1.12,.38,.77-1.12,1.65-2.73,2.28-4.3l2.7,1.89v-12.57l3.22,1.4h9.56l1.58-1.75,3.33,2.59c-.21,.28-.77,.56-1.47,.7v13.83c-.04,.18-1.54,.84-2.56,.84h-.52v-1.96h-3.57v5.88h2.73l1.96-2.52s2.13,1.72,3.43,2.98c-.07,.38-.46,.56-.95,.56h-7.17v5.99h4.03l1.96-2.62Zm-26.32-27.13c8.47,1.12,5.92,7.32,2.73,5.25-.42-1.75-1.82-3.82-3.01-5.04l.28-.21Zm13.79,3.61v5.71h3.54v-5.71h-3.54Zm3.54,12.25v-5.53h-3.54v5.53h3.54Zm3.01-12.25v5.71h3.57v-5.71h-3.57Zm3.57,12.25v-5.53h-3.57v5.53h3.57Z"/>
      <path class="cls-2" d="M544.52,46.13c2.07-1.19,3.01-2.7,3.46-4.52-1.82-.8-2.97-1.68-2.97-3.18,0-1.26,.88-2.35,2.42-2.35s2.66,1.16,2.66,3.33c0,2.66-1.26,6.06-4.97,7.84l-.59-1.12Z"/>
      <path class="cls-2" d="M566.04,47.53c-.17,.38-.59,.7-1.37,.67-1.43,2.98-3.43,5.39-5.67,6.97l-.45-.32c1.37-2.13,2.66-5.36,3.33-8.68l4.16,1.37Zm-6.93-14.49l-.28-1.02h13.2l1.89-2.52s2.21,1.72,3.5,2.98c-.1,.38-.46,.56-.94,.56h-17.36Zm10.15,10.4v11.2c0,2.28-.53,3.78-4.1,4.1-.07-.95-.17-1.71-.56-2.21-.42-.49-1.09-.84-2.45-1.05v-.49s2.66,.21,3.29,.21c.53,0,.67-.21,.67-.63v-11.13h-2.07v.77c0,.28-1.33,.91-2.55,.91h-.46v-10.43l3.18,1.33h6.65l1.54-1.64,3.29,2.45c-.21,.28-.74,.59-1.4,.7v6.41c-.04,.25-1.58,.8-2.59,.8h-.49v-1.3h-1.96Zm-5.22-1.01h7.18v-5.39h-7.18v5.39Zm.66-16.17c7.88,1.16,5.32,6.9,2.35,4.9-.32-1.58-1.61-3.5-2.7-4.66l.35-.25Zm5.99,20.13c7.32,3.15,4.17,8.44,1.65,6.02-.04-1.92-1.09-4.27-2.07-5.81l.42-.21Zm20.06,8.19c.84,.39,1.01,.77,1.01,1.4,0,1.19-1.08,1.86-4.76,1.86h-2c-2.45,0-2.87-.77-2.87-2.8l-.04-17.78h-.14c-.38,9.07-1.96,16.35-9.87,21.56l-.42-.56c5.64-5.5,6.9-12.43,7.14-21h-2.87l-.28-1.02h3.15c.07-3.12,.04-6.41,.04-9.98l4.55,.46c-.11,.53-.42,.88-1.26,1.01-.04,2.98-.04,5.85-.14,8.51h4.31l1.85-2.42s2.17,1.68,3.47,2.87c-.11,.39-.46,.56-.95,.56h-5.46v16.91c0,.49,.1,.67,.77,.67h1.23c.56,0,1.01,0,1.26-.03,.25,0,.42-.07,.56-.42,.28-.59,.77-3.08,1.19-5.21h.42l.11,5.42Zm-6.44-26.64c7.53,2.17,4.55,7.39,1.92,5.18-.17-1.68-1.3-3.67-2.31-4.97l.39-.21Z"/>
      <path class="cls-2" d="M623.83,26.43s2.49,1.86,3.99,3.15c-.11,.38-.49,.56-.98,.56h-4.45v24.12c0,2.42-.67,4.17-5.36,4.52-.07-1.05-.42-1.93-1.12-2.45-.77-.53-1.89-.91-4.27-1.26v-.49s5.36,.35,6.41,.35c.74,0,.98-.25,.98-.84V30.14h-23.56l-.31-1.02h26.46l2.21-2.7Zm-11.06,22.96c-.04,.25-1.61,.91-2.7,.91h-.53v-2.8h-7.14v3.15c0,.32-1.3,1.05-2.66,1.05h-.49v-17.01l3.33,1.44h6.62l1.61-1.79,3.43,2.62c-.25,.28-.74,.59-1.47,.74v11.69Zm-3.22-2.91v-9.35h-7.14v9.35h7.14Z"/>
      <path class="cls-2" d="M648.71,47.36c-3.36,2-8.02,4.66-14.67,7.7-.14,.42-.46,.81-.84,.95l-1.92-3.96c1.16-.25,2.91-.7,4.97-1.3l-.35-22.61,4.62,.35c-.04,.49-.32,.88-1.26,1.01l.32,20.27c2.8-.88,5.95-1.86,9-2.87l.14,.45Zm13.23-18.62c-.07,.52-.49,.95-1.33,1.01-.32,7.46-.84,13.76-4.48,18.83,10.75,4.62,8.61,11.66,4.9,9.35-1.01-2.62-3.43-5.81-5.67-8.3-3.04,3.67-7.88,6.72-15.75,9.14l-.32-.6c16.38-7.35,17.4-16.38,17.68-29.93l4.97,.49Zm-18.38,3.43c10.82,3.57,8.26,10.71,4.73,8.23-.74-2.63-3.15-5.88-5.08-8.02l.35-.21Z"/>
      <path class="cls-2" d="M699.5,54.88c1.01,1.92,1.19,2.94,.63,3.36-1.4,1.16-3.85-.38-5.11-1.96-2.31-2.8-3.92-6.23-5.01-10.15-1.54,1.08-3.29,1.93-5.11,2.59l-.35-.46c1.75-1.05,3.46-2.42,5-4.06-.84-3.82-1.29-7.95-1.47-12.29h-14.49v6.58c0,5.71-.25,14-5.32,19.6l-.46-.32c2.63-5.85,2.8-13.09,2.8-19.29v-9l3.5,1.4h13.9c-.04-1.58-.07-3.15-.07-4.8l4.55,.49-.07-.07,.35-.25c5.95,1.16,3.46,5,1.37,3.33-.17-1.05-.91-2.21-1.61-2.94-.07,.42-.38,.77-1.26,.91-.04,1.12-.04,2.21,0,3.33h4.66l1.65-2.24s1.85,1.58,2.97,2.7c-.1,.38-.45,.56-.91,.56h-8.37c.07,3.04,.31,6.12,.8,9,1.3-2,2.38-4.3,3.12-6.86l4.24,1.68c-.17,.42-.59,.7-1.37,.59-1.43,3.22-3.22,5.74-5.36,7.74,.91,3.61,2.31,6.76,4.45,9.1,.49,.59,.7,.59,1.02-.11,.45-.88,1.19-2.55,1.71-4.03l.42,.07-.8,5.78Zm-25.06-5.81c1.09,3.33,.67,5.95-.21,7.11-.63,.7-1.96,.91-2.49,.14-.42-.77-.04-1.61,.7-2.17,.84-.91,1.61-3.15,1.37-5.08h.63Zm10.5-16.14s1.89,1.47,3.12,2.59c-.11,.39-.45,.56-.95,.56h-12.36l-.28-1.02h8.72l1.75-2.13Zm-6.65,13.16c0,.25-1.33,.91-2.52,.91h-.42v-9.84l3.08,1.26h4.76l1.47-1.54,3.15,2.38c-.17,.25-.7,.52-1.29,.63v5.43c-.04,.25-1.54,.8-2.49,.8h-.53v-1.33h-5.21v1.29Zm8.12,8.96c.77,.28,.95,.63,.95,1.12,0,1.08-1.08,1.65-5.43,1.65h-2.7c-2.52,0-2.94-.59-2.94-2.35v-7.63l3.61,.35c-.03,.46-.38,.77-1.01,.88v5.74c0,.42,.1,.53,.98,.53h2.24c1.05,0,1.82,0,2.13-.04,.32,0,.42-.07,.59-.38,.28-.49,.63-2.03,1.05-3.75h.42l.1,3.88Zm-8.12-15.61v4.34h5.21v-4.34h-5.21Zm1.92,7.14c6.3,3.22,3.54,7.84,1.4,5.71,.04-1.79-.91-4.06-1.82-5.46l.42-.25Zm6.55,2.07c6.65,3.89,4.03,8.96,1.71,6.79-.04-2.17-1.12-4.83-2.17-6.58l.46-.21Z"/>
      <path class="cls-2" d="M709.54,38.78c.24,2.49-.7,4.2-1.89,4.83-1.09,.66-2.45,.42-2.87-.63-.35-1.09,.31-1.92,1.22-2.42,1.3-.7,2.42-2.62,2.17-4.76l.52-.04c.32,.7,.53,1.4,.66,2.03h16.24c1.22-2.13,2.52-5.11,3.25-7.28l4.76,1.58c-.14,.42-.56,.7-1.37,.63-1.33,1.54-3.5,3.54-5.64,5.08h5.53l1.89-1.89,3.33,3.15c-.28,.28-.66,.35-1.37,.38-1.19,1.12-3.25,2.62-4.83,3.5l-.35-.25c.46-1.05,1.05-2.66,1.43-3.92h-22.72Zm22.09,5.67c-.28,.35-.66,.46-1.54,.52-1.65,2.73-3.78,5.08-6.41,7.04,3.92,1.68,8.51,2.62,13.3,3.15l-.07,.42c-1.5,.35-2.52,1.5-2.97,3.22-4.97-1.02-9.35-2.59-12.88-5.04-4.31,2.49-9.66,4.17-16.1,5.01l-.17-.53c5.6-1.33,10.43-3.36,14.25-6.06-2.31-2.07-4.17-4.66-5.5-7.88h-3.89l-.31-.98h16.87l2.21-1.93,3.22,3.05Zm1.82-15.02c-.38,.35-1.12,.35-2.1-.11-6.44,.98-16.35,1.89-24.82,2.03l-.11-.67c8.12-.84,18.41-2.8,23.84-4.45l3.19,3.19Zm-23,2.06c7.88,2.21,4.69,7.88,1.82,5.46-.1-1.82-1.19-3.89-2.17-5.22l.35-.25Zm3.85,12.81c1.58,2.66,3.89,4.76,6.69,6.37,2.17-1.86,3.92-3.99,5.18-6.37h-11.87Zm3.89-13.41c7.63,2.7,4.2,8.33,1.47,5.81,0-1.96-.91-4.17-1.85-5.64l.38-.17Z"/>
      <path class="cls-2" d="M770.69,36.89c-.21,.28-.74,.6-1.44,.74v9.84c-.07,.21-1.82,.84-2.91,.84h-.56v-2.38h-17.15c-.53,4.76-2.28,9.56-7.74,12.92l-.42-.38c4.45-4.94,5.01-11.17,5.01-17.5v-11.76l4.17,1.37c5.81-1.05,12.08-2.87,15.47-4.55l3.78,3.64c-.38,.28-1.12,.35-2.17-.07-4.55,1.01-11.41,1.82-17.85,1.92v4.52h16.56l1.64-1.85,3.61,2.73Zm-4.9,8.02v-7.88h-16.91v3.96c0,1.29-.03,2.59-.14,3.92h17.05Z"/>
      <path class="cls-2" d="M27.22,74.77l3.29,3.04c-.24,.35-.59,.49-1.4,.56-1.65,10.29-5.18,19.71-17.4,24.61l-.35-.46c5.64-3.26,9.21-7.95,11.45-13.48-.56,.59-1.58,.7-2.59-.07-.35-1.79-1.64-3.82-3.01-5.32-1.54,2.38-3.29,4.41-5.36,6.06l-.46-.32c3.29-4.55,5.95-11.45,6.97-18.9l4.83,1.12c-.14,.46-.53,.77-1.33,.77-.39,1.54-.84,2.98-1.33,4.34h4.8l1.89-1.96Zm-7.07,2.97c-.7,1.86-1.51,3.54-2.45,5.11,4.2,1.19,5.64,3.25,5.64,4.83,1.12-3.12,1.82-6.48,2.24-9.94h-5.43Zm15.4,3.89c11.52,3.33,9.35,10.75,5.6,8.4-.91-2.49-3.39-5.36-5.6-7.46v19.39c0,.35-1.43,1.08-2.69,1.08h-.67v-32.31l4.66,.49c-.1,.49-.35,.84-1.3,.98v9.42Z"/>
      <path class="cls-2" d="M63.27,77.82c-.25,.28-.77,.56-1.47,.74v21.11c-.04,.28-1.58,.98-2.66,.98h-.49v-2.7h-6.2v2.7c0,.35-1.19,1.12-2.52,1.12h-.52v-26.25l3.22,1.47h.63c.31-1.86,.74-4.55,.98-6.48l4.83,1.16c-.17,.56-.63,.8-1.4,.8-.84,1.33-2.07,3.12-3.05,4.52h3.68l1.61-1.82,3.36,2.66Zm-10.82,.17v8.72h6.2v-8.72h-6.2Zm6.2,18.94v-9.21h-6.2v9.21h6.2Zm21.7-19.11c-.28,.32-.7,.53-1.51,.63-.24,13.58-.8,20.62-2.59,22.65-1.12,1.29-2.62,1.82-4.66,1.82,0-1.09-.17-1.92-.74-2.42-.59-.56-2-1.05-3.61-1.33l.04-.56c1.65,.17,4.1,.35,4.94,.35,.7,0,.98-.11,1.37-.46,1.29-1.26,1.71-8.61,1.96-20.58h-7.35c-1.61,2.91-3.5,5.46-5.6,7.35l-.49-.32c2.07-3.54,4.1-9.1,5.15-14.46l4.66,1.37c-.14,.42-.56,.73-1.33,.73-.52,1.51-1.16,2.94-1.85,4.31h6.44l1.89-2,3.29,2.91Zm-14.98,6.27c9.45,3.33,6.37,10.12,3.18,7.46-.28-2.42-1.96-5.36-3.5-7.25l.32-.21Z"/>
      <path class="cls-2" d="M97.25,74.28c-.25,.31-.77,.42-1.58,.42-1.12,2.07-3.22,5.67-4.83,7.7,3.19,2.38,4.45,5.42,4.45,8.05,.04,3.18-1.16,4.94-4.52,5.04,0-.91-.14-2.03-.38-2.42-.25-.35-.81-.59-1.47-.7v-.49h1.75c.38,0,.59-.04,.84-.17,.46-.28,.74-.95,.74-2.1,0-2.24-.53-4.79-2.24-7.11,.7-2.17,1.79-5.99,2.38-8.65h-3.75v28.14c0,.25-1.02,1.02-2.56,1.02h-.53v-31.57l3.54,1.4h3.08l1.79-1.68,3.29,3.12Zm6.23,12.5c-.49,1.02-1.12,1.96-1.85,2.83h10.47l1.68-1.64,3.05,2.55c-.28,.28-.7,.45-1.44,.56-.52,6.16-1.64,9.59-3.36,10.85-1.01,.74-2.31,1.09-3.78,1.05,.04-.84-.1-1.58-.52-2.03-.42-.46-1.33-.81-2.45-1.02l.04-.52c1.05,.07,2.87,.21,3.57,.21,.56,0,.88-.07,1.23-.32,.91-.74,1.82-3.75,2.28-8.68h-1.58c-2.17,5.53-6.37,9.66-12.88,12.43l-.35-.56c4.87-2.83,8.16-7,9.94-11.87h-1.79c-2.38,4.17-6.37,7.49-11.34,9.87l-.38-.53c3.67-2.38,6.69-5.81,8.58-9.35h-1.82c-1.86,2-4.2,3.64-6.97,5.01l-.32-.53c2.94-2.17,5.22-5.18,6.55-8.33h-4.83l-.28-1.01h16.94l1.86-2.45s2.07,1.68,3.33,2.91c-.11,.38-.42,.56-.95,.56h-12.6Zm-2.48-3.12c0,.25-.91,.8-2.45,.8h-.52v-13.23l3.36,1.37h8.33l1.43-1.71,3.08,2.28c-.24,.28-.56,.53-1.33,.63v9.35c0,.14-1.05,.77-2.52,.77h-.56v-1.33h-8.82v1.08Zm0-10.08v3.54h8.82v-3.54h-8.82Zm8.82,8.02v-3.5h-8.82v3.5h8.82Z"/>
      <path class="cls-2" d="M152.17,98.47c.98,.38,1.19,.77,1.19,1.47,0,1.44-1.33,2.1-7.07,2.1h-3.64c-3.25,0-4.03-.7-4.03-3.19v-13.69h-4.17c-.7,9-3.71,14.77-13.9,17.82l-.18-.46c7.88-3.96,9.94-9.49,10.26-17.36h-9.77l-.31-1.01h14.49v-13.69l4.73,.46c-.07,.49-.38,.84-1.29,.98v12.25h8.72l2.13-2.63s2.38,1.79,3.82,3.08c-.1,.38-.46,.56-.98,.56h-10.15v12.85c0,.63,.17,.8,1.37,.8h3.19c1.26,0,2.31,0,2.8-.07,.46-.04,.59-.14,.8-.53,.35-.74,.88-3.01,1.47-5.57h.38l.14,5.81Zm-28.04-25.83c10.22,4.45,7.14,11.97,3.64,9.03-.35-2.94-2.21-6.44-4.03-8.79l.39-.25Zm26.88,1.93c-.17,.38-.67,.63-1.44,.52-2.31,2.84-5.11,5.64-7.67,7.49l-.38-.35c1.4-2.34,3.36-6.3,4.8-9.8l4.69,2.14Z"/>
      <path class="cls-2" d="M187.56,90.6s1.71,1.58,2.66,2.7c-.07,.38-.42,.56-.88,.56h-32.24l-.28-1.02h3.78l-.52-20.44,3.29,1.12c1.23-1.16,2.49-2.45,3.08-3.19l2.91,2.77c-.25,.25-.59,.28-1.12,.04-1.05,.46-3.08,1.23-5,1.71l.14,4.97h1.33l1.29-1.82s1.44,1.29,2.28,2.28c-.1,.38-.42,.56-.88,.56h-3.99l.14,5.63h1.4l1.33-1.92s1.47,1.4,2.35,2.38c-.07,.39-.42,.56-.88,.56h-4.17l.14,5.36h19.01l.14-5.36h-3.75l-.32-1.02h4.06l.14-5.63h-3.39l-.32-1.02h3.75l.11-5.53h-4.24l-.32-1.02h4.24l1.47-1.79,3.22,2.7c-.25,.32-.56,.42-1.26,.53l-.42,18.13h.21l1.5-2.24Zm-30.24,11.94c4.03-2,8.16-5.6,9.94-8.23l4.55,2.03c-.21,.42-.73,.6-1.79,.49-2.73,2.35-7.53,4.8-12.46,6.16l-.25-.46Zm16.03-19.08c-.11,.42-.49,.77-1.23,.8-.8,2.91-2.07,5.74-3.64,7.63l-.56-.28c.8-2.38,1.4-5.78,1.61-8.96l3.82,.8Zm-5.08-3.12c.32-.25,.81-.53,1.26-.74,.38-2.59,.8-6.86,.84-8.89l3.96,.59c-.07,.38-.38,.81-1.22,.88-.07,.74-.14,1.61-.25,2.49h2.42l1.4-1.89s1.54,1.4,2.45,2.34c-.07,.38-.42,.56-.88,.56h-5.5c-.14,1.47-.31,2.97-.49,4.24h2.91l1.44-1.47,2.8,2.31c-.25,.28-.67,.42-1.37,.53-.21,6.37-.74,8.96-1.96,9.98-.8,.67-1.85,.95-3.08,.95,0-.77-.07-1.44-.46-1.79-.35-.35-1.01-.63-1.86-.81v-.56c.84,.07,2.14,.14,2.7,.14,.49,0,.7-.04,.95-.25,.6-.56,.98-2.91,1.16-8.02h-3.04l-1.19,1.4-2.98-2Zm8.51,14.67c17.15,2.73,11.66,10.26,8.54,7.14-1.4-2.06-4.2-4.66-8.72-6.62l.17-.53Z"/>
      <path class="cls-2" d="M222.42,93.54s2.2,1.68,3.61,2.83c-.11,.39-.42,.56-.91,.56h-13.79v5.21c0,.28-1.51,.84-2.77,.84h-.63v-6.06h-14.21l-.28-1.02h14.49v-2.66l1.89,.17c2.14-1.61,3.75-4.2,4.52-6.41h-11.97l3.22,1.5c-.21,.35-.49,.56-1.3,.46-.28,.39-.59,.81-.95,1.16,6.27,.95,4.1,5.43,1.5,3.89-.35-.98-1.29-2.21-2.24-3.08-1.79,1.86-4.3,3.61-7.14,4.62l-.31-.42c2.87-2,5.32-5.36,6.44-8.12h-6.06l-.32-1.02h13.72c-.07-.07-.14-.14-.21-.21-.14-.73-.49-1.82-1.12-2.66-.56,.56-1.61,.95-3.54,1.05-.07-.7-.17-1.3-.59-1.61-.42-.32-1.02-.63-2.45-.81v-.49s2.7,.17,3.33,.17c.56,0,.7-.21,.7-.63v-2.45c-2.1,1.01-4.8,2.42-8.16,3.95-.14,.42-.42,.77-.8,.88l-1.4-3.29c1.85-.32,5.99-1.3,10.36-2.45v-4.34h-10.54l-.32-1.01h10.5l1.5-1.79,3.5,2.66c-.21,.25-.77,.56-1.47,.7v7.35c0,.52-.04,1.01-.17,1.4,3.85,.6,3.92,2.7,2.91,3.57h7.63l1.82-2.06c-.42,.07-.91,.14-1.44,.17-.07-.66-.17-1.26-.56-1.61-.42-.31-.98-.63-2.38-.8v-.49s2.56,.17,3.19,.17c.56,0,.67-.21,.67-.63v-2.77c-2.1,1.09-4.83,2.42-8.23,3.96-.14,.45-.46,.77-.8,.88l-1.33-3.33c1.79-.28,5.95-1.3,10.36-2.42v-3.96h-9.73l-.32-1.01h9.7l1.54-1.79,3.5,2.66c-.21,.25-.73,.59-1.47,.7v7.28c0,1.5-.32,2.49-2.38,2.94,.52,.35,2.21,1.58,3.36,2.55-.07,.39-.45,.56-.94,.56h-8.09l3.4,1.47c-.21,.35-.49,.56-1.26,.46-.25,.35-.52,.7-.84,1.05,6.86,.52,5.64,5.29,2.87,4.17-.7-1.12-2.28-2.38-3.71-3.33-1.12,1.05-2.52,1.96-4.13,2.7l.91,.07c-.07,.38-.28,.67-.98,.8v1.5h9.14l1.96-2.38Zm-26.04-19.32c6.34-.74,6.2,4.52,3.68,3.54-.91-.98-2.24-2.31-3.89-3.12l.21-.42Zm14.6,.04c6.16-.88,6.06,4.27,3.57,3.33-.84-.91-2.1-2.17-3.78-2.87l.21-.46Z"/>
      <path class="cls-2" d="M232.95,93.15c1.16,3.5,.81,6.2-.14,7.49-.66,.88-2.24,1.05-2.8,.07-.45-.84-.07-1.82,.73-2.42,.88-.91,1.82-3.22,1.61-5.15h.59Zm-2.97-4.45s.77-.14,1.05-.38c1.54-1.33,3.4-3.75,4.94-6.2-1.05,.38-2.28,.84-3.54,1.22-.25,.35-.53,.6-.81,.74l-1.5-3.64s.67-.17,.95-.38c1.71-1.89,3.89-6.9,4.59-9.56l4.03,2c-.14,.31-.52,.59-1.22,.52-1.4,2.28-3.85,5.46-6.06,7.56,1.26,.04,2.87,.04,4.48,0,.74-1.3,1.37-2.52,1.75-3.5l3.64,2.45c-.17,.28-.66,.49-1.29,.35-1.82,2.66-5.25,6.37-8.4,8.89,1.75-.07,4.1-.25,6.62-.42-.28-1.33-.7-2.62-1.19-3.64l.42-.17c6.34,3.99,3.22,8.89,.98,6.44,.04-.52,0-1.08-.07-1.64-1.92,.67-4.52,1.54-7.25,2.34-.25,.35-.52,.56-.84,.67l-1.26-3.64Zm5.39,3.92c4.73,4.48,1.64,8.96-.25,6.55,.38-2.07,.17-4.66-.25-6.44l.49-.1Zm14.11,.07c-1.05,1.19-2.63,3.08-4.9,5.39-.04,.46-.25,.88-.6,1.01l-2.21-3.15c.38,1.96-1.12,3.15-2.38,1.86,.1-1.89-.63-4.24-1.4-5.74l.42-.17c2.03,1.29,3.01,2.66,3.29,3.85,1.4-.53,4.55-1.96,7.6-3.43l.18,.39Zm9.8-11.97s2,1.68,3.19,2.91c-.11,.38-.46,.56-.95,.56h-8.37v14.7c0,2.13-.46,3.5-3.99,3.82-.04-.88-.17-1.58-.59-1.96-.42-.45-1.09-.77-2.49-.98v-.53s2.77,.21,3.4,.21c.56,0,.7-.17,.7-.59v-14.67h-7.81l-.28-1.02h10.36l.91-2.76h-6.41l-1.4,1.4-3.05-2.28c.38-.28,.98-.56,1.54-.77,1.12-2.41,2.59-6.3,3.15-8.19l4.2,.77c-.1,.46-.46,.8-1.43,.8-.18,.56-.42,1.19-.7,1.89h5.88l1.44-1.54,2.98,2.55c-.25,.28-.6,.39-1.26,.42l-2.55,7.7h1.79l1.75-2.45Zm-15.37,5.04c7.25,2.17,4.51,7.28,2,5.18-.18-1.68-1.33-3.75-2.38-4.97l.39-.21Zm9.8-6.37l1.43-4.34h-6.27c-.59,1.51-1.26,3.08-1.79,4.34h6.62Zm7.91,8.16c-.18,.28-.53,.38-1.23,.21-1.33,.94-4.03,2.52-5.74,3.5l-.32-.35c1.19-1.61,2.87-4.34,3.78-5.88l3.5,2.52Zm-6.93,5.08c9.45,1.33,7.77,8.37,4.66,6.3-1.02-1.82-2.63-4.38-4.9-5.95l.24-.35Z"/>
      <path class="cls-2" d="M270.82,90.35c2.07-1.19,3.01-2.7,3.46-4.52-1.82-.8-2.97-1.68-2.97-3.18,0-1.26,.88-2.35,2.42-2.35s2.66,1.16,2.66,3.33c0,2.66-1.26,6.06-4.97,7.84l-.59-1.12Z"/>
      <path class="cls-2" d="M297.94,79.15c-.31,.32-.74,.38-1.54,.46-.8,1.86-1.96,3.78-3.33,5.67,7.11,2.49,4.69,7.35,2.13,5.39-.28-1.37-1.22-2.94-2.17-4.2v15.4c0,.21-1.05,1.05-2.56,1.05h-.56v-13.93c-1.5,1.58-3.15,2.98-4.87,4.1l-.39-.35c3.61-3.71,6.93-9.28,8.33-13.79h-7.42l-.31-1.01h7.6l1.89-1.82,3.19,3.04Zm-9.1-8.58c7.95,1.96,4.69,7.39,1.92,5.01-.17-1.61-1.29-3.57-2.24-4.8l.32-.21Zm28.28,28.35c.8,.38,.94,.77,.94,1.37,0,1.22-1.08,1.89-5,1.89h-2.21c-2.59,0-2.98-.73-2.98-2.76v-9.38h-1.68c-.45,4.97-1.89,9.73-10.5,12.95l-.42-.53c6.58-3.71,7.28-8.09,7.46-12.43h-.28v.94c0,.35-1.33,1.08-2.7,1.08h-.49v-20.55l3.36,1.47h8.79l1.61-1.82,3.36,2.66c-.25,.28-.77,.59-1.47,.74v16.21c-.03,.25-1.58,.95-2.62,.95h-.53v-1.68h-.73v8.61c0,.42,.1,.56,.77,.56h1.58c.63,0,1.16,0,1.44-.04,.28,0,.38-.07,.56-.39,.25-.56,.7-2.42,1.23-4.38h.42l.11,4.52Zm-14.67-24.92v4.34h9.31v-4.34h-9.31Zm0,9.49h9.31v-4.13h-9.31v4.13Zm0,5.53h9.31v-4.52h-9.31v4.52Z"/>
      <path class="cls-2" d="M354.75,85c-.28,.28-.66,.35-1.37,.38-1.12,1.75-3.19,4.1-4.9,5.57l-.38-.28c.63-1.65,1.37-4.06,1.82-5.92h-3.26v13.72c0,2.42-.59,4.13-4.76,4.48-.07-1.05-.28-1.93-.84-2.45-.59-.56-1.5-.98-3.36-1.23v-.49s4.03,.25,4.87,.25c.6,0,.81-.17,.81-.67v-13.62h-5.81v1.37c-.04,.28-1.54,1.12-2.7,1.12h-.53v-1.54h-2.98v4.87h2.35l1.75-2.34s2,1.64,3.15,2.8c-.1,.38-.46,.56-.91,.56h-6.34v4.66c2.38-.42,4.97-.91,7.6-1.4l.1,.49c-3.29,1.44-8.05,3.29-14.98,5.71-.17,.46-.49,.74-.88,.88l-1.96-4.03c1.5-.18,4.03-.6,7.07-1.12v-5.18h-5.92l-.28-1.02h6.2v-4.87h-2.91v1.47c0,.32-1.22,.95-2.45,.95h-.42v-16.24l3.04,1.29h8.4l1.61-1.71,3.29,2.52-.25-.84h10.05l2-1.86,3.29,3.15c-.28,.25-.7,.35-1.44,.38-1.44,1.23-3.82,2.73-5.95,3.89,2.91,2.35,1.43,5.46-.95,4.2-.84-2.24-3.43-4.76-5.6-6.06l.31-.31c2.35,.28,4.06,.84,5.29,1.54,1.01-1.23,2.1-2.7,2.87-3.92h-9.56v-.03c-.28,.25-.74,.49-1.4,.63v9h12.15l1.85-1.82,3.19,3.08Zm-29.33-10.82v4.8h2.91v-4.8h-2.91Zm2.91,10.5v-4.72h-2.91v4.72h2.91Zm3.04-10.5v4.8h2.98v-4.8h-2.98Zm2.98,10.5v-4.72h-2.98v4.72h2.98Z"/>
      <path class="cls-2" d="M375.61,90.28c-.38,2.35-1.22,4.41-2.76,6.27,4.66,2.03,10.85,2.77,17.5,2.91v.42c-1.4,.42-2.28,1.5-2.56,3.12-6.72-.67-12.36-2.03-16.49-4.94-2.63,2.21-6.72,3.88-13.02,5.04l-.17-.49c5.6-1.79,9.14-3.71,11.31-6.12-1.29-1.23-2.38-2.66-3.29-4.38l.46-.38c.98,1.4,2.28,2.56,3.82,3.54,.98-1.47,1.58-3.12,1.89-4.97h-6.2v1.09c0,.31-1.44,1.05-2.77,1.05h-.49v-15.37l3.5,1.44h6.27v-3.99h-13.69l-.28-1.02h25.13l2.14-2.62s2.48,1.79,3.92,3.08c-.07,.39-.45,.56-.91,.56h-12.99v3.99h6.34l1.64-1.75,3.47,2.62c-.21,.28-.74,.6-1.44,.74v11.2c-.03,.25-1.71,.91-2.8,.91h-.53v-1.93h-7Zm-9.52-10.78v4.3h6.51v-4.3h-6.51Zm6.34,9.77c.14-1.02,.17-2.1,.17-3.26v-1.19h-6.51v4.45h6.34Zm10.19,0v-4.45h-6.69v1.08c0,1.16-.07,2.28-.17,3.36h6.86Zm-6.69-9.77v4.3h6.69v-4.3h-6.69Z"/>
      <path class="cls-2" d="M399.09,75.3c.07,1.75-.63,2.98-1.58,3.5-.95,.49-2.28,.28-2.66-.81-.28-1.01,.35-1.82,1.23-2.24,1.05-.49,2.03-1.82,1.85-3.19h.56c.25,.6,.38,1.19,.49,1.72h11.38c-.35-.07-.7-.21-1.05-.49-.03-1.29-.77-2.7-1.54-3.54l.32-.21c5.74,.46,4.97,3.85,3.01,4.24h11.2l1.68-1.75,3.01,2.94c-.25,.24-.63,.31-1.33,.35-.81,.74-2.24,1.68-3.29,2.21,.49,.42,1.05,.91,1.51,1.37-.11,.38-.42,.56-.88,.56h-7.32v1.68c0,.21-1.33,.63-2.38,.63h-.66v-6.41l4.06,.42c-.04,.38-.28,.67-1.02,.77v1.89h3.64l1.64-2.03s.39,.32,.95,.77c.21-.67,.45-1.58,.63-2.38h-23.45Zm26.04,24.05c.95,.35,1.19,.7,1.19,1.23,0,1.22-1.16,1.61-7.07,1.61h-3.85c-3.25,0-3.85-.59-3.85-2.62v-5.25h-2.73c-.88,4.1-2.98,7.18-13.41,8.96l-.32-.52c8.05-2.21,9.8-5.15,10.43-8.44h-2.94v.67c0,.32-1.36,1.05-2.69,1.05h-.49v-14.63l3.46,1.4h14.42l1.61-1.68,3.29,2.52c-.21,.25-.67,.53-1.29,.63v9.94c-.04,.25-1.65,.88-2.7,.88h-.56v-.77h-2.91v4.87c0,.42,.14,.52,1.33,.52h3.43c1.33,0,2.52,0,3.05-.03,.42-.04,.6-.11,.77-.42,.35-.56,.77-2,1.29-3.82h.46l.07,3.92Zm-20.09-17.19v-2.38h-6.23l-.31-1.01h6.55v-2.98l3.99,.42c-.07,.39-.32,.66-.98,.77v4.73c0,.17-1.33,.49-2.34,.49l-.66-.04Zm-2.45,1.64v2.52h15.05v-2.52h-15.05Zm15.05,3.54h-15.05v2.34h15.05v-2.34Zm-15.05,5.95h15.05v-2.59h-15.05v2.59Zm14.11,2.31c6.83-.28,5.46,4.8,2.8,3.54-.45-1.19-1.89-2.56-3.08-3.22l.28-.31Z"/>
      <path class="cls-2" d="M436.86,83.91c0,5.99-.28,13.72-5.85,18.97l-.46-.31c2.91-5.43,3.08-12.36,3.08-18.66v-10.99l3.75,1.44h10.29l-.07-.04c-.35-1.37-1.61-2.91-2.59-3.78l.28-.25c5.74,0,6.06,3.04,4.55,4.06h8.19l1.93-2.52s2.17,1.75,3.5,2.97c-.1,.39-.46,.56-.95,.56h-25.66v8.54Zm-1.54,18.48c3.78-1.19,8.02-3.54,10.08-5.29l3.54,2.59c-.31,.32-.95,.39-1.86,.14-2.8,1.26-7.28,2.55-11.62,3.04l-.14-.49Zm24.75-19.6s2.07,1.61,3.36,2.77c-.1,.38-.45,.56-.94,.56h-25.1l-.28-1.01h21.14l1.82-2.31Zm-7.63,1.65v-1.3h-6.9v.81c0,.21-1.26,.63-2.28,.63h-.63v-4.76h-4.24l-.28-1.01h4.52v-2.98l3.99,.42c-.07,.38-.31,.7-1.09,.8v1.75h6.9v-2.94l3.99,.42c-.07,.38-.35,.7-1.12,.8v1.72h1.4l1.72-2.21s2.03,1.5,3.25,2.66c-.07,.38-.42,.56-.91,.56h-5.46v3.99c0,.21-1.26,.63-2.24,.63h-.63Zm3.75,13.65v-1.23h-13.37v.7c0,.32-1.4,.98-2.62,.98h-.49v-11.97l3.33,1.4h12.88l1.5-1.61,3.15,2.38c-.17,.25-.59,.49-1.12,.6v7.84c-.04,.25-1.64,.91-2.7,.91h-.56Zm-13.37-9.1v2.8h5.11v-2.8h-5.11Zm0,6.86h5.11v-3.05h-5.11v3.05Zm9.63-13.72v-2.31h-6.9v2.31h6.9Zm-2.14,15.93c17.61,.91,11.55,6.72,8.4,4.59-1.65-1.26-4.69-2.94-8.54-4.09l.14-.49Zm.84-9.07v2.8h5.04v-2.8h-5.04Zm5.04,6.86v-3.05h-5.04v3.05h5.04Z"/>
      <path class="cls-2" d="M469.69,86.71c0-2.73,2.24-4.94,4.97-4.94s4.94,2.21,4.94,4.94-2.21,4.97-4.94,4.97-4.97-2.24-4.97-4.97Zm1.26,0c0,2.03,1.65,3.71,3.71,3.71s3.67-1.68,3.67-3.71-1.64-3.67-3.67-3.67-3.71,1.64-3.71,3.67Z"/>
    </g>
  </g>
</svg>