<?xml version="1.0" encoding="utf-8"?>
<!-- Generator: Adobe Illustrator 27.0.0, SVG Export Plug-In . SVG Version: 6.00 Build 0)  -->
<svg version="1.1" id="圖層_1" xmlns="http://www.w3.org/2000/svg" xmlns:xlink="http://www.w3.org/1999/xlink" x="0px" y="0px"
	 viewBox="0 0 748.6 191.9" style="enable-background:new 0 0 748.6 191.9;" xml:space="preserve">
<style type="text/css">
	.st0{opacity:0.4;fill:#FFFFFF;enable-background:new    ;}
	.st1{fill:#FFFFFF;}
</style>
<g>
	<g id="_圖層_2">
		<g id="_圖層_1-2">
			<path class="st0" d="M34.7,1.8h674.9c16.6,0,30,13.4,30,30v130.2c0,16.6-13.4,30-30,30H34.7c-16.6,0-30-13.4-30-30V31.8
				C4.7,15.2,18.1,1.8,34.7,1.8z"/>
			<g>
				<g>
					<path class="st1" d="M44.1,38.5c0,0,2.5,1.8,4,3c-0.1,0.4-0.5,0.6-1,0.6H33.6v5.2c0,0.3-1.9,0.9-3.5,0.9h-0.7v-6.1H15.5l-0.3-1
						h14.2v-2.6l2.2,0.2c2-1.7,3.5-4.2,4.2-6.5H24.2l3.5,1.6c-0.2,0.3-0.5,0.6-1.3,0.5c-0.3,0.4-0.6,0.8-1,1.1
						c6.5,0.6,3.8,5.6,0.8,3.7c-0.2-1-0.9-2-1.6-2.8c-1.9,1.9-4.5,3.6-7.5,4.6l-0.3-0.4c2.9-2.1,5.1-5.5,6.2-8.3h-5.7l-0.3-1h13.4
						c-0.1-0.1-0.2-0.2-0.3-0.3c-0.1-0.6-0.3-1.6-0.7-2.4c-0.7,0.5-1.9,0.8-3.9,1c-0.1-0.8-0.2-1.5-0.6-1.9c-0.4-0.4-1-0.7-2.4-0.9
						v-0.5c0,0,2.6,0.2,3.2,0.2c0.5,0,0.6-0.2,0.6-0.6v-2.2c-1.9,1.1-4.4,2.5-7.6,4.1c-0.1,0.5-0.5,0.8-0.9,0.9l-1.5-3.8
						c1.8-0.3,5.7-1.1,9.9-2.2v-4.3H16.2l-0.3-1h10.2l1.8-2l4,3c-0.2,0.3-0.7,0.6-1.4,0.7V26c0,0.6,0,1.1-0.2,1.5
						c3.9,0.6,3.9,2.7,2.8,3.7h7.1l1.7-1.9c-0.4,0.1-0.8,0.1-1.2,0.1c-0.1-0.8-0.2-1.5-0.6-1.9c-0.4-0.4-0.9-0.7-2.3-0.9v-0.5
						c0,0,2.4,0.2,3,0.2c0.5,0,0.6-0.2,0.6-0.6v-2.5c-2,1.1-4.4,2.5-7.5,4c-0.1,0.4-0.5,0.8-0.9,0.9l-1.4-3.9
						c1.7-0.3,5.7-1.2,9.8-2.1v-3.9h-9.2l-0.3-1H41l1.8-2l4,3c-0.2,0.3-0.7,0.6-1.4,0.7v7.1c0,1.6-0.3,2.7-2.5,3.2
						c0.8,0.6,2.3,1.7,3.5,2.5c-0.1,0.4-0.5,0.6-1,0.6h-8.3l3.6,1.6c-0.2,0.3-0.5,0.6-1.3,0.5c-0.2,0.3-0.5,0.6-0.7,0.9
						c6.9,0.1,5.3,5.5,2.1,4.1c-0.6-1.1-1.9-2.3-3-3.2c-1.2,1.2-2.7,2.1-4.5,2.8l1.4,0.1c-0.1,0.4-0.3,0.7-1,0.8v1.4H42L44.1,38.5
						L44.1,38.5z M18,19.2c6.7-1.4,6.4,4.6,3.5,3.5c-0.9-1-2.2-2.3-3.8-3.1L18,19.2L18,19.2z M32.7,19.2c6.4-1.4,6.1,4.4,3.3,3.3
						c-0.8-0.9-2-2.2-3.5-2.9C32.5,19.7,32.7,19.2,32.7,19.2z"/>
					<path class="st1" d="M54.4,38.1c1.4,3.6,1.2,6.3,0.1,7.7c-0.7,1-2.6,1-3.2-0.2c-0.5-1,0-2.1,0.9-2.8c0.8-0.9,1.9-3,1.6-4.8
						L54.4,38.1L54.4,38.1z M51.3,33.6c0,0,0.8-0.2,1.2-0.4c1.5-1.2,3.2-3.5,4.7-5.9c-0.9,0.4-2,0.8-3.1,1.2
						c-0.2,0.4-0.6,0.7-0.9,0.8l-1.7-4.1c0,0,0.7-0.2,1-0.4c1.6-1.8,3.7-6.8,4.2-9.4l4.7,2.2c-0.1,0.4-0.5,0.6-1.2,0.5
						c-1.5,2.2-4,5.2-6.2,7.2c1.2,0,2.7,0,4.3,0c0.7-1.3,1.2-2.4,1.6-3.4l4.2,2.8c-0.2,0.3-0.6,0.5-1.3,0.4
						c-1.9,2.5-5.4,6.1-8.5,8.5c1.7-0.1,3.9-0.2,6.3-0.4c-0.2-1.3-0.5-2.5-0.9-3.5l0.4-0.1c7.1,3.9,3.2,9.3,0.6,6.4
						c0-0.5,0-1.1,0-1.6c-1.8,0.8-4.4,1.8-7.1,2.7c-0.2,0.3-0.5,0.5-0.8,0.6L51.3,33.6L51.3,33.6z M56.7,37.7
						c5.5,4.5,1.9,9.3-0.3,6.6c0.3-2.1,0.2-4.7-0.2-6.5L56.7,37.7L56.7,37.7z M70.8,37.4c-0.9,1.3-2.4,3.3-4.5,5.8
						c0,0.5-0.3,0.9-0.7,1.1l-2.2-3.2c0.3,2-1.4,3.3-2.8,1.8c0.1-1.9-0.5-4.3-1.3-5.8l0.4-0.2c1.9,1,3,2.3,3.4,3.4
						c1.5-0.6,4.5-1.8,7.5-3.2L70.8,37.4z M80.7,25.3c0,0,2.2,1.9,3.5,3.2c-0.1,0.4-0.4,0.6-1,0.6H75v14.5c0,2.4-0.6,4-4.6,4.3
						c0-1-0.2-1.9-0.6-2.4c-0.4-0.5-1-0.9-2.4-1.1v-0.5c0,0,2.6,0.2,3.2,0.2c0.5,0,0.7-0.2,0.7-0.6V29.1h-7.5l-0.3-1h10l0.9-2.7
						h-5.5l-1.5,1.6l-3.6-2.5c0.4-0.3,0.9-0.6,1.5-0.8c1.2-2.5,2.7-6.5,3.2-8.3l4.9,0.8c-0.1,0.5-0.5,0.8-1.4,0.8
						c-0.2,0.6-0.4,1.2-0.7,1.9h5l1.6-1.8l3.5,2.9c-0.3,0.3-0.6,0.4-1.3,0.5l-2.5,7.5h1.3L80.7,25.3L80.7,25.3z M65.2,30.6
						c7.9,1.9,4.6,7.6,1.7,5.1c-0.1-1.7-1-3.7-2-4.9L65.2,30.6L65.2,30.6z M74.7,24.5l1.5-4.4h-5.4c-0.6,1.5-1.3,3.1-1.8,4.4H74.7z
						 M76.2,37.5c10.3,1,7.7,9,4.1,6.4c-0.9-1.8-2.4-4.4-4.4-6.1L76.2,37.5L76.2,37.5z M76,36c1.1-1.7,2.6-4.6,3.4-6.2l4.2,2.9
						C83.4,33,83,33.1,82.3,33c-1.4,1-4.2,2.5-6,3.4L76,36L76,36z"/>
					<path class="st1" d="M118,35.5c0,0,1.8,1.7,2.8,2.9c-0.1,0.4-0.4,0.6-0.9,0.6H87.3l-0.3-1h3.8l-0.5-20.7l3.7,1.1
						c1.1-1.1,2.1-2.4,2.6-3.1l3.3,3.4c-0.2,0.2-0.6,0.2-1.2,0c-1,0.4-2.8,0.9-4.6,1.3l0.1,5H95l1.4-2c0,0,1.4,1.4,2.3,2.4
						c0.3-0.2,0.6-0.4,1-0.6c0.4-2.6,0.8-6.9,0.9-9l4.5,0.6c-0.1,0.4-0.4,0.8-1.3,1c0,0.7-0.1,1.6-0.2,2.6h1.9l1.5-2.2
						c0,0,1.7,1.5,2.7,2.6c-0.1,0.4-0.4,0.6-0.9,0.6h-5.4c-0.1,1.5-0.3,2.9-0.5,4.2h2.3l1.6-1.6l3.1,2.6c-0.2,0.3-0.7,0.4-1.4,0.5
						c-0.2,6.4-0.8,8.9-2.2,9.9c-0.8,0.7-1.9,1-3.3,1c0-0.9-0.1-1.7-0.5-2.1c-0.3-0.4-1-0.7-1.8-0.9v-0.5c0.8,0.1,2,0.1,2.6,0.1
						c0.5,0,0.7-0.1,0.9-0.3c0.6-0.5,1-2.8,1.2-7.7h-2.5l-1.3,1.5l-3.2-2c-0.2,0.2-0.5,0.4-0.8,0.4h-3.7l0.1,5.7h0.8l1.4-2.1
						c0,0,1.6,1.5,2.4,2.5c0,0.4-0.3,0.6-0.8,0.6h-3.8l0.1,5.4h18.1l0.1-5.4h-3.2l-0.3-1h3.5l0.1-5.7H110l-0.3-1h3.2l0.1-5.6h-3.8
						l-0.3-1h3.8l1.7-2.1l3.8,3.1c-0.2,0.3-0.6,0.5-1.3,0.6l-0.4,18.1h0.1L118,35.5L118,35.5z M87.5,47.8c4-2.2,8-5.8,9.7-8.7
						l5.4,2.4c-0.2,0.5-0.8,0.7-2,0.6c-2.8,2.4-7.7,4.8-13,6.1L87.5,47.8L87.5,47.8z M103.9,28.6c-0.1,0.4-0.5,0.7-1.3,0.8
						c-0.9,2.9-2.2,5.7-3.8,7.6l-0.6-0.2c0.7-2.4,1.2-5.9,1.4-9L103.9,28.6L103.9,28.6z M107.1,40c18.5,2.1,11.7,10.9,8.1,7.2
						c-1.3-2.1-3.8-4.7-8.3-6.8L107.1,40z"/>
					<path class="st1" d="M150.4,27.6c0,0.1-0.1,0.1-0.3,0.2c0.6,0.4,2.3,1.7,3.4,2.7c-0.1,0.4-0.5,0.6-0.9,0.6h-11.3v2.8h8.8
						l2.1-2.5c0,0,2.3,1.7,3.7,2.9c-0.1,0.4-0.5,0.6-0.9,0.6h-31.4l-0.3-1h14V31h-10.9l-0.3-1h11.2v-2.7h-9.8l-0.3-1h10.1v-2.9
						h-13.7l-0.3-1h14v-2.8h-9.6l-0.3-1h9.9v-3.2l5.4,0.5c-0.1,0.5-0.4,0.8-1.3,1v1.8h4.8l1.8-2l3.8,2.9c-0.2,0.2-0.7,0.5-1.3,0.7
						v2.3h0.8l1.8-2.4c0,0,2,1.7,3.2,2.8c-0.1,0.4-0.4,0.5-0.9,0.5h-4.8L150.4,27.6L150.4,27.6z M148,35.2l4,3
						c-0.2,0.3-0.7,0.6-1.4,0.8v8c0,0.2-2.1,1-3.4,1h-0.7v-1.9h-13.7v0.8c0,0.4-1.8,1.3-3.5,1.3h-0.6V35.6l4.3,1.7h13.1L148,35.2z
						 M132.7,38.3V41h13.7v-2.8H132.7z M146.4,45.1v-3h-13.7v3H146.4z M141.4,22.4h5.1v-2.8h-5.1V22.4z M141.4,26.3h5.1v-2.9h-5.1
						V26.3z M149.6,28.1c-0.7,0.3-1.7,0.6-2.5,0.6h-0.7v-1.4h-5.1V30h6.6L149.6,28.1L149.6,28.1z"/>
					<path class="st1" d="M177.6,24.5v1c15.4,1.2,15.3,9.7,10.7,8.6c-2.3-2.7-6.9-5.9-10.7-7.8v5.6c0,0.2-1.3,1-3.3,1h-0.7v-6.2
						c-3.4,3.5-8.4,6.3-14.2,8.2l-0.3-0.5c4.7-2.5,8.7-6.3,11.2-9.9h-10.4l-0.3-1h14v-3.4c-3.8,0.2-7.8,0.4-11.4,0.4l-0.1-0.6
						c7.5-0.9,17.1-2.9,22-4.6l3.7,3.7c-0.4,0.3-1.2,0.4-2.3-0.1c-2.2,0.4-5,0.6-7.8,0.9v3.7h8.2l2.2-2.7c0,0,2.4,1.8,3.9,3.1
						c-0.1,0.4-0.5,0.6-1,0.6L177.6,24.5L177.6,24.5z M183.1,32l4,3c-0.2,0.3-0.7,0.6-1.4,0.7V47c0,0.3-2.1,1-3.4,1h-0.7v-2.3h-11.8
						v1.1c0,0.4-1.8,1.3-3.4,1.3h-0.6V32.4l4.3,1.7h11.2L183.1,32L183.1,32z M169.8,35.1v4.2h11.8v-4.2H169.8z M181.5,44.8v-4.5
						h-11.8v4.5H181.5z"/>
					<path class="st1" d="M228.6,35.9c-0.3,0.2-0.7,0.5-1.4,0.6c-0.5,6.2-1.6,9.4-3.3,10.6c-1.1,0.8-2.5,1.2-4.2,1.2
						c0-1.1-0.1-2-0.6-2.6c-0.5-0.6-1.4-1-2.7-1.3V44c1.1,0.1,3.1,0.2,3.8,0.2c0.6,0,0.8-0.1,1.2-0.3c0.8-0.7,1.6-3.4,2.1-8h-20.6
						c-2.1,2.1-4.7,4.1-7.5,5.7l-0.4-0.3c5.5-4.5,9.4-10.8,12-17h-9.1l-0.3-1h9.8c1.1-2.8,1.9-5.6,2.5-8.1l5.4,1.6
						c-0.1,0.4-0.5,0.7-1.4,0.7c-0.6,1.9-1.4,3.9-2.4,5.9h5l1.5-1.6l3.4,2.6c-0.3,0.3-0.6,0.4-1.2,0.5l-1,4.3h0.6l1.5-1.6l3.4,2.6
						c-0.3,0.3-0.6,0.4-1.2,0.5l-0.8,4.5h0.5l2-1.9L228.6,35.9L228.6,35.9z M202,38c1.9,4.6,0.5,7.7-1.4,8.8
						c-1.3,0.7-2.8,0.4-3.3-0.9c-0.4-1.2,0.4-2.2,1.4-2.7c1.4-0.7,2.9-2.7,2.8-5.2L202,38L202,38z M200.2,15.6
						c9.7,1.5,6.2,8.8,2.5,6c-0.2-2.1-1.5-4.3-2.8-5.8L200.2,15.6L200.2,15.6z M207.7,29.9c-1.1,1.7-2.4,3.4-3.9,4.9H219l0.9-4.9
						L207.7,29.9L207.7,29.9z M205.8,38c6.7,4.7,1.9,10.4-0.6,6.9c0.6-2.3,0.6-4.8,0.2-6.8L205.8,38L205.8,38z M211,24.2
						c-0.8,1.6-1.6,3.2-2.7,4.8h7.1l1.1-4.8H211L211,24.2z M210.2,37.7c8.2,2.4,4.7,8.6,1.6,5.9c0-2-0.9-4.2-1.9-5.7L210.2,37.7
						L210.2,37.7z M215,37c8.3,0.3,5.9,6.5,2.6,4.6c-0.4-1.6-1.7-3.4-2.9-4.4L215,37L215,37z"/>
					<path class="st1" d="M264.5,19.9c-0.3,0.4-0.7,0.5-1.5,0.5c-1.1,2.4-3,6.3-4.7,8.7c4,2.6,5.6,6.1,5.6,9.1
						c0,3.6-1.4,5.6-5.3,5.7c0-1-0.2-2.6-0.5-3.1c-0.2-0.4-0.8-0.6-1.6-0.8v-0.5h2.4c0.3,0,0.5,0,0.7-0.2c0.5-0.3,0.7-0.9,0.7-2.2
						c0-2.6-0.8-5.5-2.8-8c0.5-2.4,1.2-6.8,1.6-9.8h-2.9V47c0,0.3-1.1,1.2-3,1.2h-0.6V42c-0.1,0.1-0.4,0.2-0.7,0.2h-3.3v5.1
						c0,0.2-1.4,0.9-2.4,0.9h-0.6v-6h-2l-0.9,1l-2.7-1.7c0.2-0.2,0.6-0.5,0.9-0.6c0.4-1.8,0.9-4.5,1.1-6.1h-0.2
						c-0.2,0-0.4,0.1-0.7,0.1c-1.1,5.4-3.4,10.4-9.4,13.3l-0.3-0.5c2.4-1.8,4.1-4.1,5.1-6.7c-0.4,0.1-0.8,0-1.3-0.2
						c-0.2-0.9-0.9-1.9-1.6-2.6c-0.6,0.7-1.2,1.4-1.9,2l-0.5-0.3c1.4-2.6,2.6-6.4,3.1-10.3l4.1,1c-0.1,0.5-0.5,0.8-1.3,0.8
						c-0.2,0.7-0.5,1.4-0.8,2.1h1.6l1.6-1.6l2.1,1.9h4v-3.5l4,0.4c-0.1,0.4-0.3,0.7-0.9,0.8v2.4h0.1l1.2-1.7c0,0,1.4,1.2,2.2,2.1
						c-0.1,0.4-0.4,0.6-0.9,0.6h-2.6v6.4h0.6l1.3-1.9c0,0,1.3,1.2,2.1,2.1V16.8l4.1,1.6h2.1l2-2L264.5,19.9L264.5,19.9z M239.9,25.5
						v-2.2h-7.5l-0.3-1h7.7v-6.6l4.8,0.5c-0.1,0.5-0.3,0.8-1.2,1v5.2h3.6l1.7-2.1c0,0,1.9,1.5,3.1,2.6c-0.1,0.4-0.5,0.6-0.9,0.6
						h-7.6v6.9c0,0.4-1.6,1-3,1h-0.6v-5.1c-0.1,0-0.3,0-0.5-0.1c-1.9,1.4-4.6,3-7.2,4l-0.3-0.3c1.4-1.5,3.1-4,3.9-5.9L239.9,25.5
						L239.9,25.5z M233.9,16.7c7.7,1.1,4.5,6.6,1.6,4.4c-0.1-1.5-1.1-3.2-1.9-4.3L233.9,16.7z M235.7,34.5c-0.5,1-1,1.9-1.6,2.8
						c1.7,0.2,2.6,0.8,3,1.5c0.4-1.4,0.7-2.8,0.9-4.3H235.7z M245.5,41.1v-6.4h-0.8c-0.3,1.8-0.8,4.5-1.2,6.4H245.5z M243.9,24.7
						c8.7-0.8,8.4,6.3,5,4.9c-1.2-1.4-3-3.4-5.2-4.5L243.9,24.7L243.9,24.7z M244.3,21.1c0.6-1.1,1.3-3,2-4.8l4.2,1.9
						c-0.2,0.4-0.7,0.7-1.4,0.5c-1.4,1-3.1,2.1-4.4,2.7L244.3,21.1L244.3,21.1z"/>
					<path class="st1" d="M272,35.8c2.2-1.2,3.3-2.8,3.8-4.8c-2-0.8-3.5-1.7-3.5-3.4c0-1.4,1.1-2.7,2.8-2.7s3,1.3,3,3.6
						c0,2.9-1.4,6.6-5.4,8.4L272,35.8L272,35.8z"/>
					<path class="st1" d="M306.3,19.7c-0.8,2-1.9,4.1-3.1,6l2.2,0.8c-0.1,0.3-0.4,0.6-1.1,0.7v20.1c0,0.2-1.9,0.9-3.4,0.9h-0.8V30
						c-3.8,4.6-8.6,8.8-14.1,11.6l-0.3-0.3c7-5.7,13-14.3,15.2-21.7h-14.4l-0.3-1h25.2l2.5-3.2c0,0,2.9,2.2,4.6,3.6
						c-0.1,0.4-0.5,0.6-1,0.6L306.3,19.7L306.3,19.7z M305.7,28.6c15.9,3.4,14.1,12.9,9.4,10.6c-1.9-3.5-6.3-7.7-9.7-10.3
						L305.7,28.6z"/>
					<path class="st1" d="M321.5,47.9c4.5-3.2,8.9-8.2,10.9-11.9l5.1,2.7c-0.2,0.3-0.5,0.6-1.3,0.5c-3,3.3-8.4,7.1-14.4,9.1
						C321.7,48.3,321.5,47.9,321.5,47.9z M331,34.8c0,0.5-1.9,1.4-3.7,1.4h-0.7V17l4.6,1.8h14.2l2-2.2l4.1,3.1
						c-0.2,0.3-0.6,0.6-1.4,0.8v14.1c0,0.3-2.2,1.1-3.6,1.1h-0.7v-2.3H331L331,34.8L331,34.8z M331,19.8v12.7h14.8V19.8
						C345.8,19.8,331,19.8,331,19.8z M341.4,36.7c15.6,3.4,13.4,13.2,8.7,10.6c-1.6-3.6-5.6-7.8-9-10.4L341.4,36.7L341.4,36.7z"/>
					<path class="st1" d="M371,32.9c-0.2,0.3-0.5,0.4-1.3,0.5c-1,2.5-2.8,5.2-5.2,7.3c0.1,0,0.3,0.1,0.5,0.2
						c2.7,2.2,6.9,2.8,14.5,2.7c4.1,0,7.5,0,11.5-0.2v0.4c-1.7,0.3-2.6,1.8-2.8,3.4h-10c-7.5,0-10.6-1.4-13.6-5.1
						c-0.5-0.6-0.9-0.6-1.2,0.1c-0.6,1-1.6,2.9-2.4,4.7c0.1,0.3-0.1,0.6-0.3,0.7l-2.7-4c1.6-0.8,4.1-2.5,5.2-3
						c1.2-2.2,2.1-5,2.5-7.5h-2l-1.3,1.2L359,32c0.4-0.2,0.9-0.5,1.4-0.7c1.2-1.6,2.7-4,3.6-5.7h-5.4l-0.3-1h5.8l1.8-1.8l3.5,3.2
						c-0.3,0.4-1,0.5-1.9,0.6c-0.9,1.5-2.4,3.9-3.6,5.5h1.4l2-2.1L371,32.9L371,32.9z M359.6,15.9c10,0.5,7,8.1,3.1,5.6
						c-0.4-1.9-2-4.1-3.4-5.4L359.6,15.9z M368.8,41.8c2.7-4.5,2.8-10.2,2.8-15.2v-8.5l3.9,1.2c3.1-1.2,6.6-2.9,8.5-4.1l4.1,3.9
						c-0.4,0.4-1.2,0.4-2.2,0c-2.6,0.5-6.5,1-10.2,1.3v6.3h7.8l2.2-2.9c0,0,2.5,2,4.1,3.4c-0.1,0.4-0.5,0.6-1,0.6h-5.2V42
						c0,0.2-1.3,0.9-3.3,0.9h-0.7V27.6h-3.8c-0.1,4.7-0.8,10.7-6.4,14.6L368.8,41.8L368.8,41.8z"/>
					<path class="st1" d="M423.5,42.7c0,0,2.5,2,4,3.3c-0.1,0.4-0.5,0.6-1,0.6h-19l-0.3-1h2.8V19.2h-1.3l-0.1-0.2
						c-0.2,0.2-0.6,0.4-1.2,0.5v8.3c0,0.2-1.8,0.9-3,0.9H404v5.1h0.7l1.6-2.5c0,0,1.9,1.8,2.9,2.9c-0.1,0.4-0.4,0.6-0.9,0.6H404v6.9
						c1.6-0.3,3.3-0.6,5-1l0.1,0.5c-2.9,1.4-7.2,3.4-13.3,5.8c-0.2,0.5-0.6,0.8-1,0.9l-1.5-4.5c0.5-0.1,1.2-0.2,2.1-0.3V30.6
						l3.9,0.4c0,0.3-0.2,0.6-0.8,0.7v11.1l2-0.3V27.2h-1.3v1c0,0.3-1.1,1-2.9,1h-0.6V16.4l4,1.6h4.1l1.7-1.9l3.3,2.5l-0.1-0.4h12.4
						l2.1-2.8c0,0,2.4,1.9,3.8,3.2c-0.1,0.4-0.5,0.6-1,0.6h-11.9v7h6.2l1.9-2l3.9,3c-0.2,0.3-0.7,0.6-1.4,0.7v9.7
						c0,0.3-1.9,1.1-3.3,1.1h-0.7v-2.1h-6.5v9h7.2L423.5,42.7L423.5,42.7z M399.1,26.2h4.9v-7.3h-4.9V26.2z M414.1,27.2v8.4h6.5
						v-8.4C420.6,27.2,414.1,27.2,414.1,27.2z"/>
					<path class="st1" d="M448,26.9c1.2,6.5,5.3,12.9,15.1,16.9l-0.1,0.4c-2.1,0.4-3.4,1.7-3.8,4.1c-8.2-5-10.8-13.5-11.7-20.5
						c-1,8.3-4.5,15.5-17.3,20.5l-0.3-0.5c9.7-5.9,12.5-12.8,13.2-20.8h-12.6l-0.3-1h13c0.2-3.3,0.2-6.8,0.2-10.4l5.9,0.6
						c-0.1,0.5-0.4,0.9-1.3,1c-0.1,3-0.1,6-0.4,8.9h7.9l2.6-3.2c0,0,2.8,2.1,4.6,3.6c-0.1,0.4-0.5,0.6-1,0.6L448,26.9L448,26.9z"/>
					<path class="st1" d="M498.3,18.8c-0.2,0.3-0.7,0.6-1.4,0.8v27.1c0,0.3-2,1.3-3.5,1.3h-0.6v-2.7h-20.9v1.3
						c0,0.5-1.6,1.5-3.4,1.5h-0.7V16.1l4.4,1.8h20.2l2-2.2L498.3,18.8L498.3,18.8z M492.7,44.3V18.9h-20.9v25.5h5.7l-1.8-2.7
						c1.1-0.7,1.3-1,1.3-1.5v-1.6c-1.5,0.6-3,1.2-4.7,1.6l-0.3-0.6c2.8-1.2,5.3-3,7-4.9h-1.1v0.1c0,0.3-1.5,1-2.9,1h-0.5V28l3.5,1.4
						h8.3l1.5-1.6l3.2,2.4c-0.2,0.2-0.5,0.4-1,0.5v3.8c0,0.1-0.1,0.1-0.3,0.2l2.3,2c-0.2,0.3-0.5,0.3-1.1,0.1
						c-0.7,0.3-1.8,0.7-2.9,1c5.7,2.9,3.8,6.5,1.5,5.2c-1-1.7-3.9-4.5-7.5-6.7l0.2-0.5c1.8,0.4,3.2,0.8,4.5,1.3
						c0.6-0.7,1.3-1.5,1.9-2.2c-0.5,0.1-1,0.2-1.4,0.2h-0.6v-0.7h-3.6c-0.8,0.8-1.8,1.5-2.8,2.2v1.9h0v1.8c1.3-0.4,2.9-0.8,4.4-1.3
						l0.1,0.5c-1.3,0.8-3.9,2.6-6.6,4.3c-0.1,0.2-0.3,0.3-0.5,0.5L492.7,44.3L492.7,44.3z M489.3,24c0,0,2,1.5,3.3,2.6
						c-0.1,0.4-0.5,0.6-1,0.6h-19.1l-0.3-1h8.1v-2.6h-6.3l-0.3-1h6.6v-3.1L485,20c0,0.4-0.3,0.7-1,0.8v1.9h2.4l1.7-2
						c0,0,2,1.4,3.1,2.5c-0.1,0.4-0.4,0.6-0.9,0.6H484v2.6h3.5L489.3,24L489.3,24z M486.6,30.4h-8.7v3.2h8.7V30.4z"/>
					<path class="st1" d="M504.4,23.9c-0.7,0.7-1.5,1.2-2.3,1.8l-0.5-0.4c1.8-2.3,3.5-6.2,4.5-10l3.8,1.4c-0.2-0.4-0.5-0.7-0.8-1
						l0.3-0.2c7.4,0.8,4.3,6.2,1.5,4c0-0.7-0.3-1.5-0.7-2.2c-0.2,0.2-0.6,0.4-1.1,0.3c-0.4,0.9-0.9,1.7-1.4,2.5l0.6,0.2h5.5l1.7-1.9
						c0,0,1.8,1.4,2.9,2.4c-0.1,0.4-0.4,0.6-0.9,0.6h-4.1v3h0.5l1.4-1.8c0,0,1.1,1,2.1,1.8c1.4-2.3,2.7-5.6,3.4-8.9l4.4,1.4
						c-0.1,0.5-0.6,0.7-1.3,0.7c-0.4,0.9-0.9,1.8-1.4,2.5l0.7,0.3h6.2l1.6-2c0,0,1.9,1.4,3,2.4c-0.1,0.4-0.4,0.6-0.9,0.6h-4.5v3h0.7
						l1.5-1.9c0,0,1.7,1.3,2.7,2.3c-0.1,0.4-0.4,0.6-0.9,0.6h-4v3.1h0.7l1.5-1.9c0,0,1.7,1.3,2.7,2.3c-0.1,0.4-0.4,0.6-0.9,0.6h-4
						v3.2h1.3l1.7-2.2c0,0,2,1.5,3.1,2.6c-0.1,0.4-0.4,0.6-0.9,0.6h-11v0.3c0,0.3-1.1,1.1-2.9,1.1h-0.6v-11c-0.6,0.6-1.3,1.1-2,1.5
						l-0.3-0.2h-3.6v3.1h0.5l1.4-1.8c0,0,1.6,1.3,2.6,2.2c-0.1,0.4-0.4,0.6-0.9,0.6h-3.6v3.1h0.9l1.6-2.1c0,0,1.9,1.4,3,2.5
						c-0.1,0.4-0.4,0.6-0.9,0.6h-10.1V34c0,0.2-1.1,1-2.8,1h-0.6L504.4,23.9L504.4,23.9z M530.5,37.1c-0.2,0.3-0.7,0.5-1.6,0.5
						c-1.7,1.9-3.8,3.6-6.1,4.9c3.8,0.8,8.1,1.2,12.2,1.3v0.5c-1.8,0.5-2.8,1.9-3.2,3.9c-5-0.7-9.5-1.8-13.3-3.6
						c-4.7,1.9-10.2,3.1-16.2,3.5l-0.2-0.5c4.9-1,9.7-2.6,13.7-4.6c-2.5-1.7-4.6-3.7-6.1-6.3h-6l-0.3-1h21.1l2.6-2.1L530.5,37.1
						L530.5,37.1z M507.9,21.2v3h2.3v-3H507.9z M510.2,25.2h-2.3v3.1h2.3V25.2z M510.2,29.3h-2.3v3.2h2.3
						C510.2,32.5,510.2,29.4,510.2,29.3z M510.5,36.7c2,2.1,4.8,3.6,8.1,4.7c2.2-1.4,4.1-2.9,5.5-4.7H510.5z M522.8,21.2v3h2.5v-3
						H522.8z M525.3,25.2h-2.5v3.1h2.5V25.2z M525.3,29.3h-2.5v3.2h2.5C525.3,32.5,525.3,29.4,525.3,29.3z M524.7,15.3
						c7.4,0.8,4.3,6.2,1.5,4c-0.1-1.4-0.9-2.9-1.8-3.8L524.7,15.3L524.7,15.3z"/>
					<path class="st1" d="M549.3,19.8c0,0,2.1,1.6,3.3,2.8c-0.1,0.4-0.5,0.6-1,0.6h-13.4l-0.3-1h9.4L549.3,19.8L549.3,19.8z
						 M568.7,29.3c0,0,1.9,1.7,2.9,2.8c-0.1,0.4-0.4,0.6-0.9,0.6h-20l-0.2-0.6c-0.1,0.1-0.3,0.1-0.5,0.1h-10.4l-0.3-1h7l1.6-2.1
						c0,0,1.9,1.4,3,2.5l0,0.1h3.5c0.4-1.9,0.9-4.3,1.3-6.7h-3.6l-0.3-1h4.2c0.3-1.7,0.6-3.3,0.8-4.7h-5l-0.3-1h13.1l2-2.7
						c0,0,2.3,1.9,3.6,3.2c-0.1,0.4-0.5,0.6-1,0.6h-8.6c-0.2,1.4-0.5,3-0.8,4.7h3.2l1.8-1.9l3.6,2.7c-0.2,0.3-0.7,0.5-1.3,0.7v6.2
						h0.1L568.7,29.3L568.7,29.3z M546.4,26.7l1.6-2.1c0,0,1.9,1.4,3,2.5c-0.1,0.4-0.5,0.6-0.9,0.6h-10.4l-0.3-1L546.4,26.7
						L546.4,26.7z M547.9,33.9l3.5,2.7c-0.2,0.2-0.6,0.5-1.3,0.7v8.2c0,0.3-1.8,1-3,1h-0.6v-1.8h-3.3v2.1c0,0.3-1.5,1.1-3,1.1h-0.5
						V34.2l3.7,1.5h2.8L547.9,33.9z M541.3,16c9.1,0.4,5.8,7.4,2.2,4.9c-0.3-1.7-1.4-3.6-2.5-4.8L541.3,16L541.3,16z M546.6,43.6
						v-6.9h-3.3v6.9H546.6z M565.8,33.9l3.8,2.9c-0.2,0.3-0.7,0.6-1.4,0.7v9.1c0,0.2-2,1-3.3,1h-0.6v-1.9h-7.7v1
						c0,0.3-1.7,1.2-3.3,1.2h-0.6V34.3l4,1.6h7.2C564,35.9,565.8,33.9,565.8,33.9z M564.4,44.8v-7.9h-7.7v7.9H564.4z M559.6,25
						c-0.5,2.5-1,4.9-1.4,6.7h5.1V25H559.6L559.6,25z"/>
					<path class="st1" d="M606.6,18.6c-0.2,0.3-0.7,0.6-1.4,0.8v27.3c-0.1,0.3-1.8,1.3-3.3,1.3h-0.6v-2.5h-21.8v1.3
						c0,0.5-1.5,1.4-3.2,1.4h-0.6V16l4.1,1.7H601l1.9-2.1L606.6,18.6L606.6,18.6z M601.3,44.4V18.8h-21.8v25.7
						C579.5,44.4,601.3,44.4,601.3,44.4z M590.5,36.1c-1.6,1-4,2.5-7.5,4.3c-0.2,0.4-0.5,0.7-0.9,0.8l-2-4c1.8-0.2,6.1-0.8,10.3-1.5
						L590.5,36.1L590.5,36.1z M600.8,28c-0.2,0.4-0.6,0.7-1.4,0.6c-1,2.8-2.3,5.1-3.8,7.1c0.5,1,1.1,2,1.9,2.7
						c0.4,0.5,0.6,0.4,0.8-0.1c0.4-0.7,1-2.2,1.4-3.5l0.4,0.1l-0.6,4.8c0.9,1.6,1.1,2.4,0.6,2.9c-1.2,1.3-3.5,0.1-4.6-1.1
						c-0.9-1-1.7-2.1-2.3-3.2c-2.3,2.2-5,3.8-8,5l-0.3-0.4c2.7-1.7,5.2-4,7.2-6.9c-0.9-2.3-1.5-4.9-1.8-7.7c-0.1,0.2-0.5,0.4-1,0.5
						v5.2c0,0.2-1.4,1-2.4,1h-0.5v-1.1h-2.1v0.8c0,0.2-1.3,0.9-2.4,0.9h-0.4v-9.2l2.9,1.2h1.8l1.3-1.4l2.8,2.1
						c-0.1-1-0.2-2.1-0.3-3.2h-9.5l-0.3-1h9.7c-0.1-1.5-0.1-3.1-0.1-4.7l4.7,0.8c-0.1,0.4-0.4,0.8-1.2,0.9c0,1,0,2,0,3h2.8l0.8-1
						l-0.1-0.1c-0.3-1.2-1.3-2.6-2.2-3.3l0.3-0.2c4.7,0.2,5,2.5,4,3.5c0.6,0.5,1.3,1.1,1.9,1.6c-0.1,0.4-0.5,0.6-0.9,0.6h-6.4
						c0.1,2.5,0.4,5,0.9,7.2c0.9-1.9,1.6-3.9,2.1-6L600.8,28L600.8,28z M586.5,32.8v-4.3h-2.1v4.3H586.5z"/>
					<path class="st1" d="M642.3,24c-0.2,0.3-0.7,0.6-1.4,0.8v11.5c0,0.3-2.2,1-3.6,1h-0.7v-2.9h-7.9v12.2c0,0.5-1.9,1.5-3.6,1.5
						h-0.8V34.4h-7.8v2.1c0,0.4-1.9,1.4-3.7,1.4H612V21.2l4.7,1.8h7.5v-7.7l5.7,0.5c-0.1,0.5-0.3,0.9-1.3,1V23h7.6l2-2.2L642.3,24
						L642.3,24z M624.2,33.4v-9.4h-7.8v9.4H624.2z M636.5,33.4v-9.4h-7.9v9.4H636.5z"/>
					<path class="st1" d="M648.4,27.7c3.8,0.9,7.2,2.7,8.4,4.8c0.5,0.8,0.7,1.8,0.5,2.7c-0.2,0.8-0.8,1.5-1.8,1.5
						c-0.8,0-1.5-0.4-2-1.6c-0.9-2-2.6-4.6-5.4-6.9L648.4,27.7L648.4,27.7z"/>
					<path class="st1" d="M664.7,23.5c8.5,1.5,5.3,7.8,2.1,5.3c-0.2-1.8-1.3-3.8-2.4-5.1L664.7,23.5z M673.3,23.6
						c-1,3.8-2.8,10.6-3.1,12.2c-0.2,1.1-0.4,2.2-0.4,3.1c0.1,1.8,1.4,3.2,1.3,6.4c-0.1,1.7-1.2,2.8-2.7,2.8c-0.7,0-1.5-0.5-1.7-1.8
						c0.6-3.8,0.5-7-0.3-7.6c-0.5-0.3-1-0.5-1.8-0.6v-0.7h1.5c0.5,0,0.6,0,1-0.7c0.4-0.8,2.3-5.3,5.6-13.4L673.3,23.6L673.3,23.6z
						 M666.6,15.6c9.1,1.4,6,8,2.6,5.6c-0.4-1.9-1.8-4-2.9-5.4L666.6,15.6L666.6,15.6z M697.4,18.9c-0.2,0.3-0.7,0.6-1.4,0.7v24.1
						c0,2.6-0.5,4.1-4.5,4.4c-0.1-1.2-0.2-2.1-0.6-2.6c-0.4-0.5-1-1-2.4-1.2v-0.5c0,0,2.7,0.2,3.3,0.2c0.6,0,0.7-0.2,0.7-0.7v-8.8
						h-3.1c-0.4,5.1-1.9,10.1-7.5,13.7l-0.4-0.3c1.9-2.1,3-4.5,3.7-7h-4.4v6.4c0,0.2-1.1,0.8-2.9,0.8h-0.6v-7.2h-5.5l-0.3-1h5.8
						v-4.2h-0.3v0c0,0.3-1.4,1-2.7,1h-0.5v-13l3.4,1.4h0.1v-3.8h-4l-0.3-1h4.3v-4.9l4.6,0.4c0,0.4-0.3,0.7-1,0.8v3.7h0.7l1.7-2.6
						c0,0,1.9,1.8,3,3c-0.1,0.4-0.5,0.6-0.9,0.6h-4.5v3.8h0.8l1.4-1.6l2.7,2.7c-0.2,0.3-0.7,0.5-1.2,0.6v8.7
						c-0.1,0.2-1.4,0.8-2.7,0.8H681v-0.7h-0.3v4.2h0.7l1.7-2.7c0,0,1.3,1.2,2.3,2.3c0.6-2.8,0.7-5.9,0.7-9.1V16.6l3.9,1.5h2.1l1.7-2
						L697.4,18.9L697.4,18.9z M676.8,26.2V30h4.2v-3.7C681,26.2,676.8,26.2,676.8,26.2z M676.8,34.7h4.2V31h-4.2V34.7z M692.4,33.5
						v-6.9h-3v3.7c0,1,0,2.1-0.1,3.2H692.4z M689.4,19.1v6.6h3v-6.6C692.4,19.1,689.4,19.1,689.4,19.1z"/>
					<path class="st1" d="M729,25.4c0,0,2.7,2.1,4.2,3.5c-0.1,0.4-0.5,0.6-1,0.6h-30.8l-0.3-1h18.1c0.9-2.1,1.9-5.1,2.4-7.2h-12.1
						c8.5,2.8,4.5,9.4,1.2,6.3c-0.1-2.2-1-4.5-1.9-6.3l0.1,0h-5.8l-0.3-1h14.2c-0.3-0.1-0.6-0.2-1-0.5c-0.2-1.6-1.3-3.3-2.2-4.3
						l0.3-0.2c7.1,0.2,6.4,4.3,4,4.9h7.4l2.3-2.9c0,0,2.6,2,4.1,3.4c-0.1,0.4-0.5,0.6-0.9,0.6h-8.4l4.7,1.5
						c-0.1,0.4-0.6,0.7-1.3,0.6c-1.4,1.5-3.7,3.6-5.8,5.2h6.7L729,25.4L729,25.4z M724.7,30.8l4.1,3.2c-0.2,0.3-0.7,0.6-1.4,0.8
						v11.8c0,0.3-2.1,1.4-3.6,1.4H723v-2.5h-11.9v1.3c0,0.4-1.8,1.3-3.5,1.3h-0.6V31.2l4.4,1.8h11.3L724.7,30.8L724.7,30.8z
						 M711.1,34v4.7H723V34H711.1z M723,44.5v-4.8h-11.9v4.8C711.1,44.5,723,44.5,723,44.5z"/>
					<path class="st1" d="M47.8,73.1c-0.2,0.3-0.7,0.6-1.4,0.8v27.3c-0.1,0.3-1.8,1.3-3.3,1.3h-0.6v-2.5H20.6v1.3
						c0,0.5-1.5,1.4-3.1,1.4h-0.6V70.4l4.1,1.7h21.2L44,70L47.8,73.1L47.8,73.1z M42.5,98.9V73.2H20.6v25.7H42.5z M31.6,90.5
						c-1.6,1-4,2.5-7.5,4.3c-0.2,0.4-0.5,0.7-0.9,0.8l-2-4c1.9-0.2,6.1-0.8,10.3-1.5L31.6,90.5L31.6,90.5z M42,82.4
						c-0.2,0.4-0.6,0.7-1.4,0.6c-1,2.8-2.3,5.2-3.8,7.1c0.5,1,1.1,2,1.9,2.7c0.4,0.5,0.6,0.4,0.8-0.1c0.4-0.7,1-2.2,1.4-3.5l0.4,0.1
						l-0.6,4.8c0.9,1.6,1.1,2.4,0.6,2.9c-1.2,1.3-3.5,0.1-4.6-1.1c-0.9-1-1.7-2.1-2.3-3.2c-2.3,2.2-5,3.8-8,5l-0.3-0.4
						c2.7-1.7,5.2-4,7.2-6.9c-0.9-2.3-1.5-4.9-1.8-7.7c-0.1,0.2-0.5,0.4-1,0.5v5.2c0,0.2-1.4,0.9-2.4,0.9h-0.5v-1.1h-2.1V89
						c0,0.2-1.3,0.9-2.4,0.9h-0.4v-9.2l2.9,1.2h1.8l1.3-1.4l2.8,2.1c-0.1-1.1-0.2-2.1-0.3-3.2h-9.5l-0.3-1h9.7
						c-0.1-1.5-0.1-3.1-0.1-4.7l4.7,0.8c-0.1,0.4-0.4,0.8-1.2,0.9c0,1,0,2,0,3h2.8l0.8-1l-0.1-0.1c-0.3-1.2-1.3-2.6-2.2-3.3l0.3-0.2
						c4.7,0.2,5,2.5,4,3.5c0.6,0.5,1.3,1.1,1.8,1.6c-0.1,0.4-0.5,0.6-0.9,0.6h-6.4c0.1,2.5,0.4,5,1,7.2c0.9-1.9,1.6-3.8,2.1-6
						L42,82.4L42,82.4z M27.6,87.2v-4.3h-2.1v4.3H27.6z"/>
					<path class="st1" d="M62.8,80c-0.1,0.4-0.5,0.7-1.4,0.7c-1.9,5-5.2,11.4-10.6,15.5l-0.3-0.3c3.5-5.1,5.7-12.7,6.5-17.9
						C56.9,78,62.8,80,62.8,80z M70.6,70.8c-0.1,0.5-0.4,0.8-1.3,1v25.7c0,2.9-0.7,4.7-6,5.2c-0.1-1.4-0.4-2.4-1.1-3
						c-0.7-0.7-1.6-1.2-3.8-1.5v-0.5c0,0,4.8,0.3,5.7,0.3c0.7,0,0.9-0.2,0.9-0.7V70.2L70.6,70.8L70.6,70.8z M78.6,94.1
						c-0.6-5-3.4-10.8-6.2-15.2l0.4-0.2C87.1,86.9,83.5,98.5,78.6,94.1z"/>
					<path class="st1" d="M114.6,70.9c0,0,2.2,1.8,3.6,3c-0.1,0.4-0.4,0.6-0.9,0.6h-10.8c-1.6,1.6-3.4,2.8-5.3,3.7l-0.4-0.3
						c0.7-0.9,1.5-2.2,2.1-3.6c-0.2,0.1-0.4,0.2-0.7,0.2h-9.2c-2,2.8-4.4,4.9-6.9,6.3l-0.4-0.3c1.9-2.5,3.9-6.7,5-10.8l5.3,1.5
						c-0.1,0.5-0.5,0.7-1.3,0.7c-0.3,0.6-0.6,1.1-0.9,1.6h4.5l1.8-2.4c0,0,2,1.7,3.2,2.8c0.6-1.3,1.1-2.8,1.5-4.2l5.2,2
						c-0.2,0.4-0.6,0.7-1.4,0.6c-0.2,0.4-0.6,0.8-0.9,1.2h5.2L114.6,70.9L114.6,70.9z M114.3,88.5c0,0,2.3,1.8,3.6,3.1
						c-0.1,0.4-0.4,0.6-0.9,0.6h-8v5.8c0,2.8-0.6,4.3-5.2,4.8c-0.1-1.3-0.3-2.2-0.8-2.8c-0.6-0.6-1.3-1.1-3-1.3v-0.4
						c0,0,3.6,0.2,4.3,0.2c0.5,0,0.7-0.1,0.7-0.6v-5.6H87l-0.3-1h18.2v-3.4l5.2,0.5c-0.1,0.5-0.4,0.8-1.2,0.9v2h3.3L114.3,88.5
						L114.3,88.5z M88.5,81.5h11.3v-3.3l5,0.4c-0.1,0.4-0.2,0.7-1,0.8v2.1h7l1.9-2.4c0,0,2.1,1.7,3.4,2.9c-0.1,0.4-0.5,0.6-0.9,0.6
						h-11.3v3.8h5.4l2-2.6c0,0,2.3,1.8,3.6,3c-0.1,0.4-0.5,0.6-0.9,0.6H90.3l-0.3-1h9.8v-3.8h-11L88.5,81.5L88.5,81.5z M92.8,92.7
						c9.5,0.8,6.4,8,2.8,5.5c-0.2-1.9-1.7-4-3.1-5.3C92.6,92.9,92.8,92.7,92.8,92.7z M94.1,75.1c7.3,0.8,4.2,6,1.4,3.8
						c-0.1-1.3-0.9-2.8-1.7-3.7L94.1,75.1z M107.3,75c7.7,0.4,4.6,6.1,1.6,3.9c-0.1-1.3-1-2.9-1.9-3.7L107.3,75L107.3,75z"/>
					<path class="st1" d="M147.8,82c0,0.1-0.1,0.1-0.3,0.2c0.6,0.4,2.3,1.7,3.4,2.7c-0.1,0.4-0.5,0.6-0.9,0.6h-11.3v2.8h8.8l2.1-2.4
						c0,0,2.3,1.7,3.7,2.9c-0.1,0.4-0.5,0.6-0.9,0.6H121l-0.3-1h14v-2.8h-10.9l-0.3-1h11.2v-2.7h-9.8l-0.3-1h10.1v-2.9H121l-0.3-1
						h14V74h-9.6l-0.3-1h9.9v-3.2l5.4,0.5c-0.1,0.5-0.4,0.8-1.3,1V73h4.8l1.8-2l3.8,2.9c-0.2,0.2-0.7,0.5-1.3,0.7v2.3h0.8l1.8-2.4
						c0,0,2,1.7,3.2,2.8c-0.1,0.3-0.4,0.5-0.9,0.5h-4.8L147.8,82L147.8,82z M145.4,89.7l4,3c-0.2,0.3-0.7,0.6-1.4,0.8v8.1
						c0,0.2-2.1,0.9-3.4,0.9h-0.7v-1.9h-13.7v0.8c0,0.4-1.8,1.3-3.5,1.3h-0.6V90.1l4.3,1.7h13.1C143.5,91.7,145.4,89.7,145.4,89.7z
						 M130.1,92.7v2.8h13.7v-2.8H130.1z M143.8,99.5v-3h-13.7v3H143.8z M138.7,76.8h5.1V74h-5.1V76.8z M138.7,80.7h5.1v-2.9h-5.1
						V80.7z M147,82.5c-0.7,0.3-1.7,0.6-2.5,0.6h-0.7v-1.4h-5.1v2.7h6.6L147,82.5L147,82.5z"/>
					<path class="st1" d="M174.1,78.9v1c15.4,1.2,15.3,9.7,10.7,8.6c-2.3-2.7-6.9-5.9-10.7-7.8v5.6c0,0.2-1.3,1.1-3.3,1.1h-0.7v-6.2
						c-3.4,3.5-8.4,6.3-14.2,8.2l-0.3-0.5c4.7-2.5,8.7-6.3,11.2-9.9h-10.4l-0.3-1h14v-3.4c-3.8,0.2-7.8,0.4-11.4,0.3l-0.1-0.6
						c7.5-0.9,17.1-2.9,22-4.6l3.7,3.7c-0.4,0.3-1.2,0.3-2.3-0.1c-2.2,0.3-5,0.6-7.8,0.9v3.7h8.2l2.2-2.7c0,0,2.4,1.8,3.9,3.1
						c-0.1,0.4-0.5,0.6-1,0.6L174.1,78.9L174.1,78.9z M179.6,86.4l4,3c-0.2,0.3-0.7,0.6-1.4,0.7v11.3c0,0.3-2.1,1.1-3.4,1.1H178
						v-2.3h-11.8v1.1c0,0.4-1.8,1.3-3.4,1.3h-0.6V86.8l4.3,1.7h11.2L179.6,86.4L179.6,86.4z M166.2,89.5v4.2H178v-4.2H166.2z
						 M178,99.2v-4.5h-11.8v4.5H178z"/>
					<path class="st1" d="M200,81c7.5,2.5,4.1,8.2,1.2,5.6c-0.1-1.3-0.6-2.8-1.2-4v18.8c0,0.4-1.6,1.2-3.1,1.2h-0.8V88.2
						c-1.4,2.4-3.1,4.4-5.2,6.3l-0.4-0.4c2.6-4,4.2-9.6,5-14.9h-4.2l-0.3-1h5.1v-8.5l5.2,0.5c-0.1,0.5-0.4,0.9-1.3,1v7h0.1l1.8-2.5
						c0,0,2,1.8,3.2,3c-0.1,0.4-0.4,0.6-0.9,0.6H200L200,81L200,81z M219.9,86.5h-0.5c-0.7,2.3-1.5,5.3-4.3,8.3
						c2.7,1.9,5.9,3.2,9.4,4.1l-0.1,0.3c-1.6,0.3-2.8,1.5-3.4,3.3c-3.3-1.4-6-3.2-8.1-5.7c-2.5,2.1-6.2,4.1-11.3,5.9l-0.3-0.5
						c4.7-2.6,7.9-5.2,10-7.7c-1.4-2.3-2.4-5.1-3.1-8.5l0.5-0.2c0.8,2.8,2.2,5.1,4,7c2-3.1,2.7-6,2.9-8.5l4,1.3
						c-0.8-2.4-2.5-5-4.1-6.8l0.3-0.2c11.4,3.1,8.3,11.5,4.2,8.5L219.9,86.5L219.9,86.5z M202.9,89.3c2-2.7,3.9-6.9,5-11.2l5.1,2
						c-0.2,0.4-0.6,0.7-1.4,0.6c-2.1,4-4.9,7-8.3,9L202.9,89.3L202.9,89.3z M204.1,77.4l-0.3-1h14.1l2.2-2.9c0,0,2.4,2,3.9,3.3
						c-0.1,0.4-0.4,0.6-0.9,0.6C223,77.4,204.1,77.4,204.1,77.4z M209.9,69.8c9.5,1.7,5.7,8.9,2,5.9c-0.1-2.1-1.2-4.3-2.3-5.7
						L209.9,69.8z"/>
					<path class="st1" d="M258.4,73.2c-0.2,0.3-0.7,0.6-1.4,0.8v27.1c0,0.3-2,1.3-3.5,1.3h-0.6v-2.7h-20.9v1.3
						c0,0.5-1.6,1.5-3.4,1.5h-0.7V70.5l4.4,1.8h20.2l2-2.2L258.4,73.2z M252.8,98.8V73.3h-20.9v25.4h5.7l-1.8-2.7
						c1.1-0.7,1.3-1,1.3-1.5v-1.6c-1.5,0.6-3.1,1.2-4.7,1.6l-0.3-0.6c2.8-1.2,5.3-3,7-4.9H238v0.1c0,0.3-1.5,0.9-2.9,0.9h-0.5v-7.7
						l3.5,1.4h8.3l1.5-1.6l3.2,2.4c-0.2,0.2-0.5,0.4-1,0.5v3.8c0,0.1-0.1,0.1-0.3,0.2l2.3,2c-0.2,0.3-0.5,0.3-1.1,0.1
						c-0.7,0.3-1.8,0.7-2.9,1.1c5.7,2.9,3.8,6.5,1.5,5.2c-1-1.7-3.9-4.4-7.5-6.7l0.2-0.5c1.8,0.4,3.2,0.8,4.4,1.3
						c0.6-0.7,1.3-1.5,1.9-2.2c-0.5,0.1-1,0.2-1.4,0.2h-0.6V89h-3.6c-0.8,0.8-1.8,1.5-2.8,2.2v1.9h0v1.8c1.3-0.4,2.9-0.8,4.4-1.3
						l0.1,0.5c-1.3,0.8-3.9,2.6-6.6,4.3c-0.1,0.2-0.3,0.3-0.4,0.5L252.8,98.8L252.8,98.8z M249.4,78.5c0,0,2,1.5,3.2,2.6
						c-0.1,0.4-0.4,0.6-0.9,0.6h-19.1l-0.3-1h8.1v-2.6h-6.3l-0.3-1h6.6V74l4.7,0.4c0,0.4-0.3,0.7-1,0.8v1.9h2.4l1.7-2
						c0,0,2,1.4,3.1,2.4c-0.1,0.4-0.4,0.6-0.9,0.6h-6.3v2.6h3.5L249.4,78.5L249.4,78.5z M246.7,84.8H238V88h8.7V84.8z"/>
					<path class="st1" d="M265.9,90.2c2.2-1.2,3.3-2.8,3.8-4.8c-2-0.8-3.5-1.7-3.5-3.4c0-1.4,1.1-2.7,2.8-2.7s3,1.3,3,3.6
						c0,2.9-1.4,6.6-5.4,8.4L265.9,90.2L265.9,90.2z"/>
					<path class="st1" d="M297.1,89.6c-0.4,2.4-1.1,4.6-2.6,6.4c4.7,1.8,10.7,2.3,16.9,2.2v0.4c-1.7,0.6-2.7,1.9-3,3.9
						c-6.4-0.7-11.8-1.9-15.8-4.8c-2.7,2.1-6.9,3.8-13.3,4.8l-0.2-0.4c5.7-1.8,9.1-3.8,11.2-6.3c-1.2-1.3-2.3-2.7-3.1-4.5l0.4-0.3
						c1,1.4,2.2,2.5,3.8,3.4c0.9-1.5,1.4-3.1,1.6-5h-5.4v0.9c0,0.4-1.8,1.3-3.5,1.3h-0.6V76.2l4.3,1.7h5.3v-3.9h-13.3l-0.3-1h24.4
						l2.5-3c0,0,2.7,2,4.4,3.4c-0.1,0.4-0.5,0.6-1,0.6h-12.6v3.9h5.4l1.9-2.1l4,3c-0.2,0.3-0.6,0.6-1.4,0.7v11c0,0.3-2.1,1-3.4,1
						h-0.7v-2L297.1,89.6L297.1,89.6z M287.7,78.9v4.3h5.6v-4.3H287.7z M293.1,88.6c0.1-0.9,0.1-1.8,0.1-2.8v-1.7h-5.6v4.4H293.1
						L293.1,88.6z M303.1,88.6v-4.4h-5.8v1.6c0,1,0,2-0.1,2.9C297.2,88.6,303.1,88.6,303.1,88.6z M297.4,78.9v4.3h5.8v-4.3H297.4z"
						/>
					<path class="st1" d="M342.1,72.8c0,0,2.7,2,4.4,3.5c-0.1,0.4-0.5,0.6-1,0.6h-16.8c-0.8,1.5-1.7,3-2.8,4.4l1.2,0.4h9.7l1.9-2.3
						l4.2,3.2c-0.2,0.3-0.8,0.7-1.6,0.8v14.3c0,2.8-0.6,4.4-5.4,4.8c-0.1-1.4-0.3-2.3-0.9-3c-0.6-0.6-1.3-1.1-3.1-1.4v-0.5
						c0,0,3.7,0.2,4.5,0.2c0.6,0,0.8-0.2,0.8-0.7v-4h-11.1c-0.6,3.4-2.2,6.9-6.4,9.4l-0.3-0.3c2.6-4,2.8-9,2.8-13.7v-3.1
						c-2.2,2.1-4.7,4-7.7,5.5l-0.3-0.3c4.5-3.6,7.8-8.8,9.9-13.9H315l-0.3-1h9.9c0.8-2.1,1.5-4.2,2-6.1l5.7,1.7
						c-0.1,0.4-0.5,0.7-1.4,0.7c-0.5,1.3-1,2.5-1.7,3.8h10.4L342.1,72.8L342.1,72.8z M337.1,92.2v-4.3h-10.8v0.7
						c0,1.2,0,2.3-0.2,3.6L337.1,92.2L337.1,92.2z M326.4,82.6v4.3h10.8v-4.3H326.4z"/>
					<path class="st1" d="M367.2,81.3c1.2,6.5,5.3,12.9,15.1,16.9l-0.1,0.4c-2.1,0.4-3.4,1.7-3.8,4.1c-8.2-5-10.8-13.5-11.7-20.5
						c-1,8.3-4.5,15.5-17.3,20.5l-0.3-0.5c9.7-5.9,12.5-12.8,13.2-20.8h-12.6l-0.3-1h13c0.2-3.3,0.2-6.8,0.2-10.4l5.9,0.6
						c-0.1,0.5-0.4,0.9-1.3,1c-0.1,3.1-0.1,6-0.4,8.9h7.9l2.6-3.2c0,0,2.8,2.1,4.6,3.6c-0.1,0.4-0.5,0.6-1,0.6L367.2,81.3
						L367.2,81.3z"/>
					<path class="st1" d="M413.2,88.3c-0.2,0.3-0.7,0.6-1.5,0.8v12.5c0,0.2-2.2,1-3.6,1h-0.7V88.4h-13c-0.7,5.8-3.1,11.1-9.2,14.2
						l-0.3-0.3c4.7-4.8,5.7-11.4,5.7-18.3V70.7l5.5,0.5c-0.1,0.5-0.4,0.9-1.3,1v7.6h11.4V69.8l5.6,0.4c-0.1,0.5-0.3,0.9-1.3,1.1v7.9
						c0.4,0.3,0.8,0.7,1.1,1.1c-0.1,0.4-0.4,0.6-0.9,0.6h-16V84c0,1.1-0.1,2.3-0.2,3.4h12.6l2-2.2L413.2,88.3L413.2,88.3z"/>
					<path class="st1" d="M448.4,92.9c0,0,2.5,1.8,4,3.1c-0.1,0.4-0.5,0.6-1,0.6h-13.5v5.2c0,0.3-1.9,0.9-3.5,0.9h-0.7v-6.1h-13.9
						l-0.3-1h14.2v-2.6l2.2,0.2c2-1.7,3.5-4.2,4.2-6.5h-11.6l3.5,1.6c-0.2,0.3-0.5,0.6-1.3,0.5c-0.3,0.4-0.6,0.8-1,1.1
						c6.5,0.6,3.8,5.6,0.8,3.7c-0.2-0.9-0.9-2-1.6-2.8c-1.9,1.9-4.5,3.6-7.5,4.6l-0.3-0.4c2.9-2.1,5.1-5.5,6.2-8.3h-5.7l-0.3-1h13.4
						c-0.1-0.1-0.2-0.2-0.3-0.3c-0.1-0.6-0.3-1.6-0.7-2.4c-0.7,0.5-1.9,0.8-3.9,1c-0.1-0.8-0.2-1.5-0.6-1.9c-0.4-0.3-1-0.7-2.4-0.9
						v-0.5c0,0,2.6,0.2,3.2,0.2c0.5,0,0.6-0.2,0.6-0.6v-2.2c-1.9,1.1-4.4,2.5-7.6,4.1c-0.1,0.5-0.5,0.8-0.9,0.9l-1.5-3.8
						c1.8-0.3,5.7-1.2,9.9-2.2v-4.3h-10.2l-0.3-1h10.2l1.8-2l4,3c-0.2,0.3-0.7,0.6-1.4,0.7v7.2c0,0.6,0,1.1-0.2,1.5
						c3.9,0.6,3.9,2.7,2.8,3.7h7.1l1.7-1.9c-0.4,0.1-0.8,0.1-1.2,0.1c-0.1-0.8-0.2-1.5-0.6-1.9c-0.4-0.3-0.9-0.7-2.3-0.9v-0.5
						c0,0,2.4,0.2,3,0.2c0.5,0,0.6-0.2,0.6-0.6v-2.5c-2,1.1-4.4,2.5-7.5,4c-0.1,0.4-0.5,0.8-0.9,0.9l-1.4-3.8
						c1.7-0.3,5.7-1.2,9.8-2.1v-3.9h-9.2l-0.3-1h9.2l1.8-2l4,3c-0.2,0.3-0.7,0.6-1.4,0.7v7.1c0,1.6-0.4,2.7-2.5,3.2
						c0.8,0.6,2.4,1.7,3.5,2.6c-0.1,0.4-0.5,0.6-1,0.6h-8.3l3.6,1.6c-0.2,0.3-0.5,0.6-1.3,0.5c-0.2,0.3-0.5,0.6-0.7,0.9
						c6.9,0.1,5.3,5.5,2.1,4.1c-0.6-1.1-1.9-2.3-3-3.2c-1.2,1.2-2.7,2.1-4.5,2.8l1.4,0.1c-0.1,0.4-0.3,0.7-1,0.8v1.4h8.3L448.4,92.9
						L448.4,92.9z M422.2,73.6c6.7-1.4,6.4,4.6,3.5,3.5c-0.9-1-2.2-2.3-3.8-3.1L422.2,73.6L422.2,73.6z M436.9,73.7
						c6.4-1.4,6.1,4.4,3.3,3.3c-0.8-0.9-2-2.2-3.5-2.9L436.9,73.7z"/>
					<path class="st1" d="M457.8,92.6c1.4,3.6,1.2,6.3,0.1,7.7c-0.7,0.9-2.6,1-3.2-0.2c-0.5-1.1,0-2.1,0.9-2.8
						c0.8-0.9,1.9-3,1.6-4.8L457.8,92.6L457.8,92.6z M454.7,88c0,0,0.8-0.2,1.2-0.4c1.5-1.2,3.2-3.5,4.7-5.8c-0.9,0.4-2,0.8-3.1,1.2
						c-0.2,0.4-0.6,0.7-0.9,0.8l-1.7-4.1c0,0,0.7-0.2,1-0.4c1.6-1.8,3.7-6.8,4.2-9.4l4.7,2.2c-0.1,0.3-0.5,0.6-1.2,0.5
						c-1.5,2.2-4,5.2-6.2,7.2c1.2,0,2.7,0,4.3,0c0.7-1.3,1.2-2.4,1.6-3.4l4.2,2.8c-0.2,0.3-0.6,0.5-1.3,0.3
						c-1.9,2.6-5.4,6.1-8.5,8.5c1.7-0.1,3.9-0.2,6.3-0.4c-0.2-1.3-0.5-2.5-0.9-3.5l0.4-0.1c7.1,3.8,3.2,9.3,0.6,6.4
						c0-0.5,0-1.1,0-1.6c-1.9,0.8-4.4,1.8-7.1,2.7c-0.2,0.3-0.5,0.5-0.8,0.6L454.7,88L454.7,88z M460.1,92.1
						c5.5,4.5,1.9,9.3-0.3,6.6c0.4-2.1,0.2-4.7-0.2-6.5L460.1,92.1L460.1,92.1z M474.2,91.8c-0.9,1.3-2.4,3.3-4.5,5.8
						c0,0.5-0.3,0.9-0.7,1.1l-2.2-3.2c0.3,2-1.4,3.3-2.8,1.8c0.1-1.9-0.5-4.3-1.3-5.8l0.4-0.2c1.9,1.1,3,2.3,3.4,3.4
						c1.5-0.6,4.5-1.8,7.5-3.2L474.2,91.8L474.2,91.8z M484,79.7c0,0,2.2,1.9,3.5,3.2c-0.1,0.4-0.5,0.6-1,0.6h-8.2V98
						c0,2.4-0.6,3.9-4.5,4.3c0-1.1-0.2-1.9-0.6-2.4c-0.4-0.5-1-0.9-2.5-1.1v-0.5c0,0,2.6,0.2,3.2,0.2c0.5,0,0.7-0.2,0.7-0.6V83.5
						h-7.5l-0.3-1h10l0.9-2.7h-5.5l-1.5,1.6l-3.6-2.4c0.4-0.3,1-0.6,1.5-0.8c1.1-2.4,2.7-6.5,3.2-8.3l4.9,0.8
						c-0.1,0.4-0.5,0.8-1.4,0.8c-0.2,0.6-0.5,1.2-0.7,1.9h5l1.6-1.8l3.5,2.9c-0.3,0.3-0.6,0.4-1.3,0.5l-2.5,7.5h1.3L484,79.7
						L484,79.7z M468.6,85.1c7.9,1.9,4.5,7.6,1.7,5.2c-0.1-1.7-1-3.7-2-4.9L468.6,85.1L468.6,85.1z M478.1,78.9l1.5-4.4h-5.4
						c-0.6,1.5-1.3,3.2-1.8,4.4H478.1z M479.6,91.9c10.3,1,7.7,9,4.1,6.4c-0.9-1.8-2.4-4.4-4.4-6.1L479.6,91.9L479.6,91.9z
						 M479.4,90.4c1.1-1.7,2.6-4.6,3.4-6.2l4.2,2.9c-0.2,0.3-0.5,0.4-1.3,0.2c-1.4,0.9-4.2,2.4-6,3.4L479.4,90.4L479.4,90.4z"/>
					<path class="st1" d="M504.6,73.9c-0.2,0.4-0.6,0.7-1.5,0.6c-3.1,6.7-7.4,11.1-12.7,14l-0.4-0.3c3.5-3.7,7.1-9.9,8.9-16.5
						L504.6,73.9L504.6,73.9z M510.7,89c13.5,6.1,9.8,16.7,5,12.7c-0.2-1.4-0.5-2.9-1-4.3c-4.6,1.4-10.9,2.9-18.6,4.4
						c-0.4,0.5-0.8,0.8-1.2,0.9l-1.8-5.4c0,0,1-0.2,1.5-0.6c2.8-2.5,6.9-10.3,8.1-14.7l6,2.3c-0.2,0.4-0.6,0.7-1.4,0.7
						c-2.4,3.9-7,9.3-11.1,12.5c4.4-0.1,11.2-0.6,18.1-1.2c-1-2.6-2.5-5-4-7.1L510.7,89L510.7,89z M514,71.9
						c-0.5,0.6-1.7,0.8-3.1,0.9c1.6,5,5.8,9.4,11.7,11.4l-0.1,0.4c-1.8,0.6-3.2,2.3-3.7,4c-4.9-3.5-7.7-9-8.8-16.1h-4.1l-0.3-1h3.4
						l1.4-2.2L514,71.9L514,71.9z"/>
					<path class="st1" d="M557.2,73.2c-0.2,0.3-0.7,0.6-1.4,0.8v27.1c0,0.3-2,1.3-3.5,1.3h-0.6v-2.7h-20.9v1.3
						c0,0.5-1.6,1.5-3.4,1.5h-0.7V70.5l4.4,1.8h20.2l2-2.2L557.2,73.2L557.2,73.2z M551.6,98.8V73.3h-20.9v25.4h5.7l-1.8-2.7
						c1.1-0.7,1.3-1,1.3-1.5v-1.6c-1.5,0.6-3,1.2-4.7,1.6l-0.3-0.6c2.8-1.2,5.3-3,7-4.9h-1.1v0.1c0,0.3-1.5,0.9-2.9,0.9h-0.5v-7.7
						l3.5,1.4h8.3l1.5-1.6l3.2,2.4c-0.2,0.2-0.5,0.4-1,0.5v3.8c0,0.1-0.1,0.1-0.3,0.2l2.3,2c-0.2,0.3-0.5,0.3-1.1,0.1
						c-0.7,0.3-1.8,0.7-2.9,1.1c5.7,2.9,3.8,6.5,1.5,5.2c-1-1.7-3.8-4.4-7.5-6.7l0.2-0.5c1.8,0.4,3.2,0.8,4.5,1.3
						c0.6-0.7,1.3-1.5,1.9-2.2c-0.5,0.1-1,0.2-1.4,0.2h-0.6V89H542c-0.8,0.8-1.8,1.5-2.8,2.2v1.9h0v1.8c1.3-0.4,2.9-0.8,4.4-1.3
						l0.1,0.5c-1.3,0.8-3.9,2.6-6.6,4.3c-0.1,0.2-0.3,0.3-0.5,0.5L551.6,98.8L551.6,98.8z M548.2,78.5c0,0,2,1.5,3.2,2.6
						c-0.1,0.4-0.5,0.6-0.9,0.6h-19.1l-0.3-1h8.1v-2.6H533l-0.3-1h6.6V74l4.7,0.4c0,0.4-0.3,0.7-1,0.8v1.9h2.4l1.7-2
						c0,0,2,1.4,3.2,2.4c-0.1,0.4-0.4,0.6-0.9,0.6H543v2.6h3.5L548.2,78.5L548.2,78.5z M545.5,84.8h-8.7V88h8.7V84.8z"/>
					<path class="st1" d="M590.9,89.9c0,0,1.8,1.7,2.8,2.9c-0.1,0.4-0.4,0.6-0.9,0.6h-32.7l-0.3-1h3.8L563,71.7l3.7,1.1
						c1-1.1,2.1-2.4,2.6-3.2l3.3,3.4c-0.2,0.2-0.6,0.2-1.2,0c-1,0.3-2.8,0.9-4.6,1.3l0.1,5h0.8l1.4-2c0,0,1.4,1.4,2.3,2.4
						c0.3-0.2,0.6-0.4,1-0.6c0.4-2.6,0.8-6.9,0.9-9l4.5,0.6c-0.1,0.4-0.4,0.8-1.3,0.9c0,0.7-0.1,1.6-0.2,2.6h1.9l1.5-2.2
						c0,0,1.7,1.5,2.7,2.6c-0.1,0.4-0.4,0.6-0.9,0.6h-5.4c-0.1,1.5-0.3,2.9-0.5,4.2h2.3l1.7-1.7l3.1,2.6c-0.2,0.3-0.7,0.4-1.4,0.5
						c-0.2,6.4-0.8,8.9-2.2,9.9c-0.8,0.7-1.9,1-3.3,1c0-0.9-0.1-1.7-0.5-2.1c-0.3-0.4-1-0.7-1.9-0.9v-0.5c0.8,0.1,2,0.1,2.6,0.1
						c0.5,0,0.7-0.1,0.9-0.3c0.6-0.5,1-2.8,1.2-7.7h-2.5l-1.3,1.5l-3.2-2c-0.2,0.2-0.5,0.3-0.8,0.3H567l0.1,5.7h0.8l1.4-2.1
						c0,0,1.6,1.5,2.4,2.5c0,0.4-0.3,0.6-0.8,0.6h-3.8l0.1,5.4h18.1l0.1-5.4h-3.2l-0.3-1h3.5l0.1-5.7h-2.8l-0.3-1h3.2l0.1-5.6H582
						l-0.3-1h3.8l1.7-2.1l3.8,3.1c-0.2,0.3-0.6,0.5-1.3,0.6l-0.4,18.1h0.1L590.9,89.9L590.9,89.9z M560.3,102.2c4-2.2,8-5.8,9.7-8.7
						l5.4,2.4c-0.2,0.5-0.8,0.7-2,0.6c-2.8,2.4-7.7,4.8-13,6.1L560.3,102.2z M576.8,83c-0.1,0.4-0.5,0.7-1.3,0.8
						c-0.9,2.9-2.2,5.7-3.8,7.6l-0.6-0.2c0.7-2.4,1.2-5.9,1.4-9L576.8,83L576.8,83z M579.9,94.4c18.5,2.1,11.7,10.9,8.1,7.2
						c-1.3-2.1-3.8-4.7-8.3-6.8L579.9,94.4z"/>
					<path class="st1" d="M607.2,87.4c-0.2,0.2-0.6,0.2-1.1,0.2c-0.8,2.5-2.5,5.3-4.7,7.4c0.2,0.1,0.3,0.2,0.6,0.3
						c2.8,2.2,7,2.8,14.6,2.7c4.1,0,7.5,0,11.6-0.2v0.4c-1.7,0.3-2.6,1.8-2.8,3.4h-10.2c-7.6,0-10.7-1.4-13.7-5.1
						c-0.5-0.6-0.9-0.6-1.2,0.1c-0.6,1.1-1.5,2.9-2.3,4.7c0.1,0.3,0,0.5-0.3,0.7l-2.8-4c1.7-0.8,4-2.6,5.2-3.1
						c1.1-2.2,2-5.2,2.4-7.7h-2.1l-1.2,1.1l-3-2.2c0.3-0.2,0.9-0.5,1.4-0.7c1.1-1.6,2.6-3.9,3.6-5.6h-5.2l-0.3-1h5.7l1.6-1.6l3.3,3
						c-0.3,0.3-0.9,0.5-1.7,0.6c-0.9,1.5-2.5,3.9-3.6,5.6h1.5l1.8-1.9l3.1,2.4v-7.9l3.8,1.5h2.7v-2.5h-7.3l-0.3-1h7.6v-3.3l5,0.5
						c-0.1,0.5-0.4,0.8-1.3,1v1.8h2.8l1.9-2.3l0.2,0.1c0.1-0.6,0.1-1.3,0.2-1.9h-13.7c0,1.9-0.8,3.2-1.9,3.6
						c-1.1,0.5-2.6,0.1-2.9-1.2c-0.3-1.2,0.5-2.1,1.6-2.5c1-0.5,2.1-1.7,2-3.1h0.5c0.3,0.7,0.5,1.4,0.6,2.1h13.6l1.9-2l3.5,3.3
						c-0.3,0.3-0.6,0.3-1.3,0.4c-0.7,0.6-1.8,1.4-2.7,2.1c0.7,0.5,1.5,1.2,2.2,1.7c-0.1,0.4-0.5,0.6-1,0.6h-7.5v2.5h2.6l1.8-1.9
						l3.7,2.8c-0.2,0.2-0.7,0.6-1.4,0.7v7.7c0,0.1-0.3,0.3-0.6,0.5c0.5,0.4,2.4,1.8,3.6,2.9c-0.1,0.4-0.5,0.6-1,0.6h-8.6v2.9
						c0,0.3-1.6,1.1-3,1.1h-0.7v-4.1h-7.8l-0.3-1h8.1v-3h-2.9v0.6c0,0.4-1.6,1.2-3.1,1.2h-0.5L607.2,87.4L607.2,87.4z M597.3,70
						c9.1,1.6,5.7,8.2,2.3,5.6c-0.2-1.9-1.4-4-2.6-5.4L597.3,70z M610.8,81.6v3.1h2.9v-3.1H610.8z M613.7,88.8v-3.1h-2.9v3.1H613.7z
						 M617.4,81.6v3.1h2.9v-3.1H617.4z M620.4,85.7h-2.9v3.1h2.9V85.7z M623.1,90.6c-0.6,0.2-1.4,0.4-2.1,0.4h-0.6v-1.2h-2.9v3h3.8
						L623.1,90.6L623.1,90.6z"/>
					<path class="st1" d="M648.4,96.4c-3.3,1.3-8,2.9-15.1,5c-0.2,0.4-0.6,0.7-1,0.8l-1.8-4.8c1.5-0.1,4-0.2,7.1-0.5V94h-6.3l-0.3-1
						h6.6v-3.2H635v0.6c0,0.3-1.1,0.9-2.9,0.9h-0.6V78.7l3.9,1.5h2.2v-2.6h-6.9l-0.3-1h7.2V74c-2.4,0.1-4.8,0.2-7.1,0.2l-0.1-0.6
						c4.9-0.9,11.3-2.7,14.5-4l3.5,3.6c-0.4,0.3-1.2,0.3-2.2-0.1c-1.5,0.2-3.2,0.4-5.2,0.6v2.9h2.6l2-2.4c0,0,2.2,1.7,3.6,2.9
						c-0.1,0.4-0.4,0.5-1,0.5h-7.2v2.6h2.6l1.7-2l3.4,2.6c-0.2,0.3-0.5,0.5-1.3,0.6v8.4c0,0.2-1.2,0.8-3,0.8h-0.7v-0.8h-2.7v3.2h2
						l1.9-2.3c0,0,2.1,1.6,3.4,2.7c-0.1,0.4-0.5,0.6-0.9,0.6h-6.4v2.6c2.3-0.2,4.7-0.4,7.2-0.7L648.4,96.4L648.4,96.4z M635,81.2
						v3.3h2.6v-3.3H635z M637.6,88.8v-3.3H635v3.3H637.6z M641.1,81.2v3.3h2.7v-3.3H641.1z M643.8,88.8v-3.3h-2.7v3.3H643.8z
						 M663.5,79.6c-0.2,0.3-0.7,0.6-1.5,0.7c-0.2,13.9-0.6,18.5-2.4,20.4c-1.1,1.2-2.6,1.7-4.4,1.7c0-1.3-0.1-2.1-0.5-2.7
						c-0.5-0.6-1.4-1-2.6-1.3v-0.5c1,0.1,2.6,0.2,3.3,0.2c0.5,0,0.8-0.1,1.2-0.4c1.1-1.1,1.4-6.4,1.6-18h-3.2
						c-0.2,10.5-1.4,18-10.5,23.1l-0.4-0.5c6.1-5.6,7-12.8,7.1-22.5h-3.1l-0.3-1h3.4c0-2.6,0-5.4,0-8.4l5.2,0.5
						c-0.1,0.5-0.5,0.9-1.3,1c0,2.4,0,4.8-0.1,6.9h2.8l2.1-2.1L663.5,79.6L663.5,79.6z"/>
					<path class="st1" d="M696.6,73.4c-0.2,0.3-0.8,0.7-1.6,0.8v23.2c0,2.8-0.6,4.3-5.2,4.8c-0.1-1.3-0.3-2.2-0.8-2.8
						c-0.5-0.6-1.3-1.1-3-1.4v-0.5c0,0,3.4,0.2,4.1,0.2c0.6,0,0.8-0.2,0.8-0.7v-6.9h-7V101c0,0.2-1.2,1.1-3.3,1.1h-0.7v-12h-6.7
						c-0.7,4.5-2.5,8.9-7.3,12.2l-0.4-0.3c3.8-5.3,4.1-12.1,4.1-18.7V70.8l4.7,1.7h16.3l2-2.3C692.5,70.2,696.6,73.5,696.6,73.4z
						 M679.8,89.1v-7.5h-6.3v1.6c0,1.9,0,3.8-0.3,5.8L679.8,89.1L679.8,89.1z M673.6,73.5v7.2h6.3v-7.2H673.6z M683.9,73.5v7.2h7
						v-7.2H683.9z M690.9,89.1v-7.5h-7v7.5H690.9z"/>
					<path class="st1" d="M731.9,97.4c1.3,0.4,1.6,0.9,1.6,1.6c0,1.9-1.8,2.4-9.5,2.4h-4.8c-4.2,0-5.6-0.7-5.6-3.9v-13l-3,1.3
						l-0.7-0.8l3.7-1.6v-2.8c-0.2,0.1-0.4,0.2-0.7,0.2h-4.5v10.8c1.5-0.4,3.2-0.8,4.8-1.3l0.1,0.4c-2,1.5-5.2,3.8-9.8,6.6
						c-0.1,0.4-0.5,0.8-0.9,1l-2.3-4.7c0.9-0.2,2.4-0.5,4.2-0.9V80.9h-3.8l-0.3-1h4.1v-9.3l5.2,0.5c-0.1,0.5-0.3,0.9-1.3,1v7.9h0.8
						l1.7-2.8c0,0,1.7,1.7,2.7,3v-5.3l5.1,0.6c0,0.4-0.4,0.8-1.2,0.9v5.6l3-1.3V69.8l5.1,0.5c-0.1,0.5-0.3,0.8-1.3,1v7.7l3.5-1.6
						l1.8-1.8l3.4,3.5c-0.3,0.3-0.6,0.4-1.4,0.5c-0.9,4-2.6,9.8-4.7,13.6l-0.4-0.2c0.7-4.3,1.2-10.3,1.3-14.3l-3.4,1.5v14
						c0,0.4-1.7,1.1-3.1,1.1h-0.7V81.6l-3,1.3v13.6c0,1,0.5,1.3,2.2,1.3h4.7c1.8,0,3.3,0,4-0.1c0.6,0,0.9-0.2,1.2-0.5
						c0.5-0.7,1-2.4,1.8-4.8h0.4L731.9,97.4L731.9,97.4z"/>
					<path class="st1" d="M355.3,144.7c2.2-1.2,3.3-2.8,3.8-4.8c-2-0.8-3.5-1.7-3.5-3.4c0-1.4,1.1-2.7,2.8-2.7s3,1.3,3,3.6
						c0,2.9-1.4,6.6-5.4,8.4L355.3,144.7L355.3,144.7z"/>
					<path class="st1" d="M401.4,144.7c-0.3,0.2-0.7,0.5-1.4,0.6c-0.5,6.2-1.6,9.4-3.3,10.6c-1.1,0.8-2.5,1.2-4.2,1.2
						c0-1.1-0.1-2-0.6-2.6c-0.5-0.6-1.4-1-2.7-1.3v-0.5c1.2,0.1,3.1,0.2,3.8,0.2c0.6,0,0.8-0.1,1.2-0.3c0.8-0.7,1.6-3.4,2.1-8h-20.5
						c-2.1,2.1-4.7,4.1-7.5,5.7l-0.4-0.3c5.5-4.4,9.4-10.8,12-17.1h-9.1l-0.3-1h9.8c1.1-2.8,1.9-5.6,2.5-8.1l5.4,1.6
						c-0.1,0.4-0.5,0.7-1.4,0.7c-0.6,1.9-1.4,3.8-2.4,5.8h5l1.5-1.6l3.4,2.6c-0.3,0.3-0.6,0.4-1.2,0.5l-1,4.3h0.6l1.5-1.6l3.4,2.6
						c-0.3,0.3-0.6,0.4-1.2,0.5l-0.8,4.4h0.5l2-1.9L401.4,144.7L401.4,144.7z M374.8,146.9c1.9,4.6,0.5,7.7-1.4,8.8
						c-1.3,0.7-2.8,0.4-3.3-0.9c-0.4-1.2,0.4-2.2,1.4-2.7c1.4-0.7,2.9-2.7,2.8-5.1L374.8,146.9L374.8,146.9z M373,124.4
						c9.7,1.5,6.2,8.8,2.5,6c-0.2-2.1-1.5-4.3-2.8-5.8L373,124.4L373,124.4z M380.5,138.8c-1.1,1.7-2.5,3.4-3.9,4.9h15.2l0.9-4.9
						H380.5L380.5,138.8z M378.6,146.8c6.7,4.7,1.9,10.4-0.6,6.9c0.6-2.3,0.6-4.8,0.2-6.8L378.6,146.8L378.6,146.8z M383.8,133
						c-0.8,1.6-1.6,3.2-2.7,4.8h7.1l1.1-4.8H383.8z M383,146.5c8.2,2.4,4.7,8.6,1.6,5.9c0-2-0.9-4.2-1.9-5.7L383,146.5z
						 M387.9,145.9c8.3,0.3,5.9,6.6,2.6,4.6c-0.4-1.6-1.7-3.4-2.9-4.4L387.9,145.9L387.9,145.9z"/>
					<path class="st1" d="M432.5,128.9c-0.2,0.3-0.7,0.6-1.4,0.7v25.6c0,0.3-2.1,1.4-3.8,1.4h-0.7v-3.2h-13.8v1.9
						c0,0.6-1.7,1.6-3.6,1.6h-0.7V126l4.6,1.9h13.2l2.1-2.3L432.5,128.9L432.5,128.9z M412.8,128.9v11h13.8v-11H412.8z M426.6,152.3
						v-11.4h-13.8v11.4H426.6z"/>
					<path class="st1" d="M471,132.4c-0.3,0.3-0.6,0.4-1.3,0.4c-1.3,0.9-3.4,2.1-5,2.8l-0.3-0.2c0.3-0.9,0.6-2.3,0.8-3.4h-21.5
						c0.2,2.5-0.7,4.2-2,4.9c-1.2,0.7-2.8,0.4-3.2-1c-0.4-1.3,0.4-2.3,1.5-2.8c1.3-0.7,2.5-2.3,2.4-4.2l0.5,0
						c0.3,0.8,0.5,1.5,0.7,2.2h8.9v-6.8l5.3,0.5c0,0.4-0.3,0.7-1.2,0.9v5.4h2c0.8-1.9,1.6-4.5,2.1-6.4l5.6,1.9
						c-0.2,0.4-0.6,0.7-1.4,0.6c-1.3,1.2-3.4,2.7-5.4,3.9h5.5l2.2-2.2L471,132.4L471,132.4z M464,142.9l4,3
						c-0.2,0.3-0.7,0.6-1.4,0.7v4.6c0,2.5-0.6,4-4.9,4.4c-0.1-1.2-0.2-2.1-0.6-2.7c-0.4-0.5-1-1-2.4-1.2v-0.4c0,0,2.5,0.2,3.3,0.2
						c0.5,0,0.6-0.2,0.6-0.6v-4.9h-6.2v9.8c0,0.3-1.2,1.4-3.3,1.4h-0.7v-11.1h-6v8.5c0,0.4-1.8,1.3-3.4,1.3h-0.6v-12.5l4.3,1.7h5.6
						v-3.6h-3.1v0.7c0,0.4-1.8,1.2-3.4,1.2h-0.5v-9.9l4.2,1.6h10l1.8-2l3.9,2.8c-0.2,0.2-0.7,0.6-1.3,0.7v5.1c0,0.2-2.1,0.9-3.4,0.9
						h-0.7v-1.3h-3.4v3.6h5.9L464,142.9L464,142.9z M444.3,124.7c9.1,1.2,5.6,8.1,2.1,5.4c-0.1-1.9-1.2-3.9-2.4-5.2L444.3,124.7
						L444.3,124.7z M449.2,140.3h10.6V136h-10.6V140.3z"/>
					<path class="st1" d="M505.4,131.2c-0.2,0.2-0.6,0.5-1.2,0.6v9.7c0,0.2-1.9,1-3.2,1h-0.5l3,2.3c-0.2,0.3-0.7,0.6-1.4,0.7v10.5
						c0,0.2-2,1-3.3,1h-0.6v-2.1h-8v1.1c0,0.4-1.6,1.2-3.3,1.2h-0.6v-14c-0.3,0.1-0.7,0.1-1,0.1h-0.6v-7.8c-0.2,0.1-0.4,0.2-0.7,0.2
						h-3.6v10.3c1.5-0.4,3.1-0.7,4.7-1.1l0.1,0.4c-2,1.4-4.9,3.5-9.4,6.1c-0.2,0.4-0.5,0.8-1,0.9l-2.1-4.8c0.8-0.1,2.1-0.4,3.8-0.7
						v-11.1h-3.4l-0.3-1h3.7v-9.6l5.1,0.5c-0.1,0.5-0.3,0.8-1.3,1v8.2h0.1l1.6-2.8c0,0,1.6,1.7,2.6,2.9v-5.9l3.9,1.6h7.3
						c0.6-1.9,1.2-4.3,1.6-6.1l5.6,1.4c-0.1,0.4-0.6,0.7-1.4,0.7c-1.2,1.1-3.2,2.7-4.9,4h2.9l1.8-1.8L505.4,131.2L505.4,131.2z
						 M487.6,124.4c8.8,1,5.7,7.6,2.3,5.3c-0.3-1.8-1.5-3.8-2.6-5.1L487.6,124.4L487.6,124.4z M500.3,142.2v-1.4h-11.8v1.1
						c0,0.2-0.4,0.5-1,0.7l2.8,1.1h7.4l1.8-2L500.3,142.2L500.3,142.2z M488.6,131.3v8.5h4.3v-8.5H488.6z M489.1,132.8
						c5.9,2.7,3.2,6.9,1.1,4.9c0-1.6-0.8-3.5-1.5-4.7L489.1,132.8L489.1,132.8z M498.2,148.6v-3.9h-8v3.9H498.2z M498.2,153.7v-4h-8
						v4H498.2z M496.1,131.3v8.5h4.2v-5.3c-0.1,0-0.3,0-0.5,0c-0.8,1.2-1.7,2.7-2.6,3.7l-0.6-0.2c0.4-1.4,0.8-3.5,1.2-5.4l2.6,1
						v-2.3L496.1,131.3L496.1,131.3z"/>
					<path class="st1" d="M508.2,132.3c8.9,1.1,5.7,7.8,2.3,5.2c-0.2-1.8-1.4-3.8-2.6-5L508.2,132.3z M518.1,130.8
						c-1.2,4.1-3.3,11.6-3.8,13.4c-0.2,1.1-0.5,2.4-0.5,3.3c0.1,1.9,1.5,3.1,1.4,6.2c-0.1,1.8-1.2,2.9-2.9,2.9
						c-0.8,0-1.6-0.5-1.9-1.8c0.7-3.6,0.5-6.9-0.3-7.5c-0.5-0.4-1-0.5-1.8-0.6v-0.7h1.6c0.5,0,0.6,0,1-0.7c0.5-0.9,2.6-5.8,6.5-14.8
						L518.1,130.8L518.1,130.8z M510.7,124.6c9.4,0.7,6.6,7.7,2.9,5.5c-0.5-1.9-2-4-3.2-5.2L510.7,124.6L510.7,124.6z M531.4,134.9
						c2.3,2.7,6.4,4.6,10.1,5.4l-0.1,0.4c-1.4,0.3-2.5,1.6-3,3.5c-3.7-1.9-6.3-5-8-9.4h-3.1c-2.4,4.3-6.3,7.7-12.4,9.9l-0.2-0.4
						c4.1-2.5,6.9-5.7,8.5-9.5h-5.5l-0.3-1h6.1c0.7-1.8,1.2-3.8,1.5-5.8H519l-0.3-1h14l2.1-2.9c0,0,2.4,2,3.8,3.3
						c-0.1,0.4-0.5,0.6-1,0.6h-7.9c-0.4,2.1-1,4-1.9,5.8h7l2.2-3c0,0,2.5,2,4,3.4c-0.1,0.4-0.5,0.6-1,0.6L531.4,134.9L531.4,134.9z
						 M522.2,143.5c2.4,11.1-7.9,9.3-4.7,5.5c1.9-0.7,3.7-2.4,4.2-5.5L522.2,143.5L522.2,143.5z M529.8,140.1
						c-0.1,0.5-0.4,0.8-1.2,0.9v11.5c0,2.7-0.6,4.2-4.9,4.6c-0.1-1.2-0.3-2.1-0.8-2.7c-0.5-0.6-1.3-1-2.9-1.3v-0.5
						c0,0,3.4,0.2,4.1,0.2c0.5,0,0.7-0.2,0.7-0.6v-12.6L529.8,140.1L529.8,140.1z M530.2,144.2c7.5,4.2,3.8,10.4,1,7.4
						c0.2-2.4-0.6-5.2-1.4-7.3L530.2,144.2z M534,143.4c10,3.6,6.9,11.1,3.5,8.3c-0.2-2.7-2.1-6-3.9-8.1L534,143.4L534,143.4z"/>
					<path class="st1" d="M570.3,136.4c0,0.1-0.1,0.1-0.3,0.2c0.6,0.4,2.3,1.7,3.4,2.7c-0.1,0.4-0.5,0.6-0.9,0.6h-11.3v2.8h8.8
						l2.1-2.4c0,0,2.3,1.6,3.7,2.9c-0.1,0.4-0.5,0.6-0.9,0.6h-31.4l-0.3-1h14v-2.8h-10.9l-0.3-1h11.2v-2.7h-9.8l-0.3-1h10.1v-2.9
						h-13.7l-0.3-1h14v-2.8h-9.6l-0.3-1h9.9v-3.2l5.4,0.5c-0.1,0.5-0.3,0.8-1.3,1v1.8h4.8l1.8-2l3.8,2.9c-0.2,0.2-0.7,0.5-1.3,0.7
						v2.3h0.8l1.8-2.4c0,0,2,1.7,3.2,2.8c-0.1,0.4-0.4,0.5-0.9,0.5h-4.8L570.3,136.4L570.3,136.4z M567.9,144.1l4,3
						c-0.2,0.3-0.7,0.6-1.4,0.8v8.1c0,0.2-2.1,0.9-3.4,0.9h-0.7v-1.9h-13.7v0.8c0,0.4-1.8,1.3-3.5,1.3h-0.6v-12.5l4.3,1.7H566
						L567.9,144.1L567.9,144.1z M552.6,147.1v2.8h13.7v-2.8H552.6z M566.3,153.9v-3h-13.7v3H566.3z M561.2,131.2h5.1v-2.8h-5.1
						V131.2z M561.2,135.1h5.1v-2.9h-5.1V135.1z M569.5,136.9c-0.7,0.3-1.7,0.6-2.5,0.6h-0.7v-1.4h-5.1v2.7h6.6L569.5,136.9
						L569.5,136.9z"/>
					<path class="st1" d="M596.5,133.4v1c15.4,1.2,15.3,9.7,10.7,8.6c-2.3-2.7-6.9-5.9-10.7-7.8v5.6c0,0.2-1.3,1.1-3.3,1.1h-0.7
						v-6.2c-3.4,3.5-8.4,6.3-14.2,8.2l-0.3-0.5c4.7-2.5,8.7-6.3,11.2-9.9h-10.4l-0.3-1h14v-3.4c-3.8,0.2-7.8,0.4-11.5,0.4l-0.1-0.6
						c7.5-0.9,17.1-2.9,22-4.6l3.7,3.7c-0.4,0.3-1.2,0.3-2.3-0.1c-2.2,0.4-5,0.6-7.8,0.9v3.7h8.2l2.2-2.7c0,0,2.4,1.8,3.9,3.1
						c-0.1,0.4-0.5,0.6-1,0.6L596.5,133.4L596.5,133.4z M601.9,140.9l4,3c-0.2,0.3-0.7,0.6-1.4,0.7v11.3c0,0.3-2.1,1.1-3.4,1.1h-0.7
						v-2.4h-11.8v1.1c0,0.4-1.8,1.3-3.4,1.3h-0.6v-15.8l4.3,1.7H600L601.9,140.9L601.9,140.9z M588.6,143.9v4.2h11.8v-4.2H588.6z
						 M600.4,153.6v-4.5h-11.8v4.5H600.4z"/>
					<path class="st1" d="M643.9,144.3c0,0,1.8,1.7,2.8,2.9c-0.1,0.4-0.4,0.6-0.9,0.6h-32.7l-0.3-1h3.8l-0.5-20.7l3.7,1.1
						c1-1.1,2.1-2.4,2.6-3.2l3.3,3.4c-0.2,0.2-0.6,0.2-1.2,0c-1,0.3-2.8,0.9-4.6,1.3l0.1,5h0.8l1.4-2c0,0,1.4,1.4,2.3,2.4
						c0.3-0.2,0.6-0.4,1-0.6c0.4-2.6,0.8-6.9,0.9-9l4.5,0.6c-0.1,0.4-0.4,0.8-1.3,0.9c0,0.7-0.1,1.6-0.2,2.6h1.9l1.5-2.2
						c0,0,1.7,1.5,2.7,2.6c-0.1,0.4-0.4,0.6-0.9,0.6h-5.4c-0.1,1.5-0.3,2.9-0.5,4.2h2.3l1.7-1.6l3.1,2.6c-0.2,0.3-0.7,0.4-1.4,0.5
						c-0.2,6.4-0.8,8.9-2.2,9.9c-0.8,0.7-1.9,1-3.3,1c0-0.9-0.1-1.7-0.5-2.1c-0.3-0.4-1-0.7-1.9-0.9v-0.5c0.8,0.1,2,0.1,2.6,0.1
						c0.5,0,0.7-0.1,0.9-0.3c0.6-0.5,1-2.8,1.2-7.7H629l-1.3,1.5l-3.2-2c-0.2,0.2-0.5,0.4-0.8,0.4h-3.7l0.1,5.7h0.8l1.4-2.1
						c0,0,1.6,1.5,2.4,2.5c0,0.4-0.3,0.6-0.8,0.6h-3.8l0.1,5.4h18.1l0.1-5.4h-3.2l-0.3-1h3.5l0.1-5.7h-2.8l-0.3-1h3.2l0.1-5.6h-3.8
						l-0.3-1h3.8l1.7-2.1l3.8,3.1c-0.2,0.3-0.6,0.5-1.3,0.6l-0.4,18.1h0.1L643.9,144.3L643.9,144.3z M613.4,156.6
						c4-2.2,8-5.9,9.7-8.7l5.4,2.4c-0.2,0.4-0.8,0.7-2,0.6c-2.8,2.4-7.7,4.8-13,6.1L613.4,156.6L613.4,156.6z M629.8,137.4
						c-0.1,0.4-0.5,0.7-1.3,0.8c-0.9,2.9-2.2,5.7-3.8,7.6l-0.6-0.2c0.7-2.4,1.2-5.9,1.4-9L629.8,137.4L629.8,137.4z M633,148.8
						c18.5,2.1,11.7,10.9,8.1,7.2c-1.3-2.1-3.8-4.7-8.3-6.8L633,148.8z"/>
					<path class="st1" d="M647.9,155c3.4-1.6,7.2-4.7,9.7-8.4l4.7,3c-0.2,0.4-0.7,0.5-1.5,0.4c-3.3,3.3-8.6,5-12.8,5.4L647.9,155z
						 M676.7,142.1c0,0,2.6,2,4.2,3.3c-0.1,0.4-0.5,0.6-1,0.6h-13.1v10c0,0.3-1.9,1.1-3.6,1.1h-0.8V146h-14l-0.3-1h14.3v-3.1
						l5.7,0.5c-0.1,0.5-0.3,0.8-1.3,0.9v1.7h7.6L676.7,142.1L676.7,142.1z M648.2,139.3c0,0,0.7-0.2,1-0.4c1.3-1.1,2.9-3.2,4.2-5.4
						c-0.9,0.4-1.9,0.9-2.8,1.4c-0.2,0.2-0.4,0.4-0.6,0.5l-1.6-3.5c0,0,0.6-0.2,0.8-0.4c1.4-1.4,3.1-5.3,3.6-7.4l4.5,2
						c-0.1,0.3-0.6,0.6-1.2,0.5c-1.3,1.7-3.3,3.8-5.1,5.2c1-0.1,2.2-0.1,3.5-0.2c0.6-1.1,1-2.1,1.4-2.9l3.5,2.1V127l3.4,1.4
						c0.1-1.2,0.2-3,0.2-4.2l4.6,0.6c-0.1,0.6-0.5,0.9-1.3,0.9c-0.6,0.7-1.6,1.8-2.3,2.7h2l1.6-1.7l3.3,2.5
						c-0.2,0.2-0.6,0.5-1.2,0.6v10.9c0,0.2-1.7,0.9-2.9,0.9h-0.6v-1.4h-3.7v0.9c0,0.3-1.4,1.1-2.8,1.1h-0.5v-10.7
						c-0.2,0.1-0.5,0.1-0.8,0c-1.7,2.3-4.7,5.4-7.5,7.6c1.4-0.1,3.2-0.3,5.1-0.4c-0.2-1.2-0.5-2.3-0.8-3.2l0.4-0.1
						c5.9,3.8,2.6,8.6,0.4,6.1c0.1-0.6,0.1-1.2,0-1.8c-1.5,0.7-3.5,1.6-5.7,2.4c-0.2,0.4-0.5,0.6-0.7,0.7L648.2,139.3L648.2,139.3z
						 M662.6,129.4v4.4h3.7v-4.4H662.6z M666.3,139.3v-4.5h-3.7v4.5H666.3z M668.4,148.7c13.2-1.8,13.5,7.9,8.7,6.4
						c-2-2-5.2-4.6-8.8-6L668.4,148.7z M681.1,131.2c-0.2,0.3-0.6,0.6-1.3,0.5c-1.7,2.3-4.5,5.3-7.2,7.5c1.4-0.1,3.1-0.2,4.9-0.4
						c-0.2-1.2-0.5-2.3-0.7-3.2l0.4-0.1c6.1,3.9,2.7,8.6,0.5,6.1c0-0.6,0-1.3,0-1.9c-1.4,0.7-3.4,1.6-5.5,2.5
						c-0.2,0.4-0.5,0.6-0.8,0.8l-1.6-3.5c0,0,0.7-0.2,1-0.4c1.3-1.1,2.8-3.2,4.1-5.4c-0.9,0.4-1.9,0.9-2.8,1.3
						c-0.2,0.3-0.5,0.5-0.7,0.6l-1.5-3.6c0,0,0.6-0.1,0.8-0.3c1.3-1.4,3.1-5.3,3.6-7.4l4.5,2c-0.1,0.3-0.5,0.6-1.2,0.6
						c-1.3,1.7-3.3,3.7-5.2,5.2c1-0.1,2.2-0.1,3.5-0.2c0.6-1.1,1-2.1,1.3-2.9L681.1,131.2L681.1,131.2z"/>
					<path class="st1" d="M683.2,132.4c9.5,0.4,6.8,7.6,3.1,5.3c-0.5-1.9-2-3.9-3.4-5L683.2,132.4L683.2,132.4z M694.2,131.6
						c-1.4,4-4,11.5-4.5,13.2c-0.3,1.2-0.6,2.4-0.6,3.3c0.1,1.8,1.5,3,1.4,6.1c-0.1,1.8-1.3,2.9-3,2.9c-0.8,0-1.6-0.5-1.9-1.8
						c0.7-3.7,0.5-6.8-0.3-7.4c-0.5-0.4-1.1-0.5-1.9-0.6v-0.6h1.7c0.5,0,0.7,0,1.1-0.7c0.5-0.9,3.1-5.7,7.5-14.6L694.2,131.6
						L694.2,131.6z M685.8,124.8c9.8,0.4,7.3,7.7,3.4,5.6c-0.6-1.9-2.3-4.1-3.7-5.3L685.8,124.8L685.8,124.8z M712.3,132.7
						c0,0,2.5,2.1,4,3.5c-0.1,0.4-0.5,0.6-1,0.6h-9.1v6.7h2.9l1.9-2.1l4,3c-0.2,0.3-0.7,0.6-1.4,0.7v10.5c0,0.3-2,1.2-3.4,1.2h-0.7
						v-2.9h-10.6v1.8c0,0.4-1.8,1.3-3.5,1.3h-0.5v-15.2l4.2,1.7h2.9v-6.7h-8.9l-0.3-1h9.1v-5.9c-2.8,0.3-5.8,0.5-8.5,0.6l-0.1-0.5
						c5.9-1.2,13.4-3.5,17.3-5.3l4.1,3.9c-0.4,0.3-1.2,0.4-2.3-0.1c-1.8,0.4-3.9,0.7-6.3,1v6.4h3.9L712.3,132.7L712.3,132.7z
						 M698.9,144.4v8.4h10.6v-8.4H698.9z"/>
					<path class="st1" d="M720.8,140.6c0-2.7,2.2-4.9,5-4.9s4.9,2.2,4.9,4.9s-2.2,5-4.9,5S720.8,143.3,720.8,140.6z M722.1,140.6
						c0,2,1.6,3.7,3.7,3.7s3.7-1.7,3.7-3.7s-1.7-3.7-3.7-3.7S722.1,138.6,722.1,140.6z"/>
				</g>
			</g>
		</g>
	</g>
</g>
</svg>
