<?xml version="1.0" encoding="UTF-8"?>
<svg id="_圖層_2" data-name="圖層 2" xmlns="http://www.w3.org/2000/svg" viewBox="0 0 380.1 32.97">
  <defs>
    <style>
      .cls-1 {
        fill: #b47b5b;
      }
    </style>
  </defs>
  <g id="_圖層_1-2" data-name="圖層 1">
    <g>
      <path class="cls-1" d="M2.73,8.58c-.73,.66-1.5,1.22-2.27,1.75l-.45-.35C1.79,7.63,3.5,3.82,4.48,0l3.82,1.37c-.25-.39-.53-.74-.81-1.02l.32-.25c7.39,.77,4.3,6.23,1.47,4.03-.04-.73-.31-1.54-.67-2.24-.25,.21-.63,.35-1.16,.32-.42,.88-.91,1.68-1.43,2.49l.63,.21h5.53l1.65-1.92s1.79,1.36,2.94,2.38c-.07,.38-.42,.56-.91,.56h-4.1v2.98h.46l1.44-1.82s1.12,.95,2.1,1.82c1.44-2.31,2.73-5.6,3.4-8.89l4.41,1.4c-.14,.46-.59,.73-1.29,.7-.42,.91-.88,1.75-1.37,2.52l.67,.28h6.16l1.61-1.96s1.85,1.37,3.01,2.42c-.1,.38-.42,.56-.91,.56h-4.48v2.98h.66l1.47-1.89s1.68,1.33,2.7,2.34c-.07,.38-.39,.56-.88,.56h-3.96v3.15h.66l1.51-1.89s1.64,1.33,2.7,2.31c-.11,.38-.42,.56-.91,.56h-3.96v3.15h1.26l1.71-2.17s1.96,1.5,3.12,2.59c-.07,.38-.42,.56-.91,.56h-10.99v.31c0,.28-1.09,1.09-2.91,1.09h-.63V8.58c-.63,.59-1.29,1.08-1.96,1.54l-.28-.21h-3.61v3.15h.46l1.44-1.79s1.61,1.26,2.59,2.21c-.1,.38-.42,.56-.88,.56h-3.61v3.15h.88l1.61-2.07s1.89,1.4,3.01,2.49c-.07,.38-.42,.56-.91,.56H6.2v.49c0,.24-1.09,1.05-2.84,1.05h-.63V8.58Zm26.11,13.2c-.25,.35-.66,.46-1.61,.49-1.71,1.93-3.75,3.57-6.13,4.94,3.85,.84,8.09,1.23,12.25,1.33v.46c-1.79,.53-2.8,1.89-3.19,3.92-4.97-.67-9.52-1.75-13.34-3.61-4.69,1.92-10.22,3.08-16.24,3.54l-.17-.46c4.94-1.05,9.66-2.59,13.69-4.62-2.49-1.65-4.59-3.71-6.13-6.34H1.96l-.32-1.01H22.75l2.56-2.14,3.54,3.5ZM6.2,5.92v2.98h2.31v-2.98h-2.31Zm2.31,3.99h-2.31v3.15h2.31v-3.15Zm0,4.13h-2.31v3.15h2.31v-3.15Zm.35,7.39c2,2.07,4.83,3.61,8.12,4.69,2.21-1.4,4.06-2.94,5.5-4.69H8.86ZM21.14,5.92v2.98h2.49v-2.98h-2.49Zm2.49,3.99h-2.49v3.15h2.49v-3.15Zm0,4.13h-2.49v3.15h2.49v-3.15ZM23.03,.04c7.42,.77,4.34,6.23,1.5,3.99-.07-1.37-.91-2.91-1.79-3.78l.28-.21Z"/>
      <path class="cls-1" d="M66.26,9.38s2.31,1.89,3.68,3.19c-.11,.38-.46,.56-.95,.56h-2.66V31.85c0,.21-1.12,1.05-2.98,1.05h-.63V13.13h-2.94v2.62c0,5.99-.42,12.81-6.93,17.22l-.42-.39c.74-.98,1.33-2.03,1.82-3.15h-12.95l-1.12,1.75-3.43-2.17c.25-.28,.63-.63,1.05-.91V.91l4.2,.46c-.07,.38-.32,.63-.95,.73v3.29c.14-.07,.31-.14,.42-.17,1.01-.91,2.1-3.61,2.45-4.9l3.36,1.65c-.14,.32-.53,.59-1.23,.53-.84,.98-2.03,2.17-3.12,3.08h2.49c.32-.66,.6-1.26,.81-1.71l2.21,1.4c.07-.03,.14-.07,.21-.1,1.01-.88,2.21-3.61,2.59-4.94l3.33,1.75c-.14,.32-.56,.56-1.26,.46-.84,.98-2.03,2.17-3.15,3.08,.74,0,1.58,0,2.31-.04,.49-.84,.91-1.61,1.16-2.21l2.62,1.75V2.76l3.54,1.12c2.17-1.26,4.41-2.8,5.71-3.88l4.2,3.54c-.42,.38-1.16,.42-2.17,.07-1.96,.52-4.9,1.08-7.74,1.43v7.07h4.41l2.07-2.73Zm-25.2-3.29v4.69c.14-.04,.63-.18,.8-.28,.98-.74,2.03-2.24,2.91-3.75-.63,.28-1.37,.59-2.07,.91-.21,.28-.42,.49-.67,.59l-.98-2.17Zm7.07,.14c-1.22,1.5-3.22,3.47-5,4.83,.77,0,1.75,0,2.73-.03-.14-.6-.38-1.16-.63-1.58l.46-.21c4.55,2.42,2.07,5.78,.42,4.06,.04-.42,.04-.84-.04-1.3-.8,.39-1.96,.88-2.94,1.3-.21,.35-.46,.56-.7,.67l-1.37-3.12v3.33h11.17l1.22-1.54c0-.42-.07-.88-.17-1.33-.8,.39-2.03,.91-3.08,1.37-.21,.28-.46,.49-.7,.6l-1.37-3.05s.63-.14,.84-.25c.91-.67,1.89-1.96,2.73-3.25-.52,.21-1.16,.49-1.71,.74-.21,.42-.49,.67-.77,.77l-.88-1.96-.21-.04Zm4.62,20.44s.98,.84,1.92,1.68c1.4-3.88,1.58-8.23,1.58-12.67v-.77c-.17,.17-.42,.25-.74,.25h-4.24l2.84,1.5c-.18,.28-.56,.56-1.3,.49-.77,.91-1.82,2.07-2.91,2.98,.66-.04,1.37-.04,2.07-.07,.46-.8,.84-1.58,1.09-2.17l3.08,2c-.17,.32-.63,.53-1.3,.38-1.12,1.4-2.91,3.15-4.55,4.52,.8-.04,1.75-.07,2.76-.14-.14-.67-.35-1.33-.59-1.79l.49-.21c4.06,2.59,1.68,5.71,.25,4.03,.03-.39,.03-.77,0-1.19-.81,.38-2,.95-3.12,1.44-.24,.49-.52,.8-.84,.94l-1.37-3.15s.63-.1,.88-.24c.74-.6,1.58-1.72,2.38-2.87l-1.54,.77c-.21,.35-.45,.56-.7,.67l-1.16-2.59c-1.16,1.43-2.94,3.25-4.62,4.62,.77,0,1.71-.04,2.7-.07-.14-.67-.35-1.26-.56-1.68l.46-.21c4.06,2.55,1.68,5.6,.21,3.96,.04-.35,.04-.74,0-1.12-.84,.42-2.03,.91-3.01,1.37-.21,.28-.39,.42-.6,.53l-1.26-2.8v3.4h10.29l1.4-1.75Zm-11.69-6.83c.14-.04,.35-.07,.46-.14,1.09-.81,2.21-3.33,2.59-4.55h-3.04v4.69Zm0,5.08c.17-.07,.56-.18,.73-.25,.88-.7,1.86-2,2.66-3.29-.53,.28-1.16,.6-1.75,.88-.17,.28-.38,.46-.59,.56l-1.05-2.35v4.45Zm7.56-5.32c.95-1.01,1.89-3.22,2.28-4.45h-6.72l3.12,1.65c-.17,.28-.56,.59-1.29,.49-.77,.88-1.86,1.89-2.87,2.7,.67,0,1.4,0,2.17-.04,.38-.7,.74-1.37,.95-1.89l2.38,1.54Zm4.38-9.14c-.24-.59-.52-1.19-.84-1.61-.63,.6-1.29,1.16-1.96,1.68,.8,0,1.79-.04,2.8-.07Zm3.26-4.9c-.25,.07-.53,.11-.95,.04-.77,.95-1.89,2.1-3.04,3.19l.35-.14c3.64,1.65,3.26,4.06,2.1,4.41,.49,.42,1.09,.94,1.54,1.36V5.57Z"/>
      <path class="cls-1" d="M87.33,11.34c-.25,.35-.6,.49-1.37,.56-1.61,6.86-5.15,13.62-12.88,17.61l-.31-.38c5.11-4.34,7.88-11.2,9-17.82h-7.84l-.32-1.01h7.91l2.1-2.17,3.71,3.22Zm18.06-2.31c-.21,.35-.56,.56-1.4,.42-2.13,1.82-5.39,4.24-8.68,6.12,2.94,4.9,6.93,7.81,10.89,9.73l-.17,.38c-1.71,.32-3.01,1.79-3.57,3.71-5.57-4.55-9.14-10.33-10.85-21.77V27.79c0,2.97-.66,4.62-5.67,5.04-.14-1.37-.38-2.31-.98-2.97-.67-.67-1.54-1.12-3.57-1.47v-.49s4.31,.28,5.18,.28c.63,0,.84-.21,.84-.66V.04l5.46,.56c-.11,.49-.35,.81-1.26,.95v3.61c.7,3.82,1.82,6.93,3.22,9.56,2.24-2.8,4.59-6.48,5.74-8.72l4.83,3.05Z"/>
      <path class="cls-1" d="M111.9,12.39c3.82,.88,7.18,2.66,8.44,4.79,.49,.8,.7,1.82,.49,2.66-.18,.77-.77,1.51-1.86,1.51-.84,0-1.5-.42-2-1.58-.88-1.96-2.62-4.59-5.36-6.93l.28-.45Z"/>
      <path class="cls-1" d="M154.32,28.49l2.59-3.29s2.87,2.21,4.66,3.71c-.1,.38-.49,.56-1.01,.56h-31.78l-.28-.98h25.83Zm-1.72-24.22l2.52-3.19s2.84,2.17,4.55,3.64c-.11,.38-.53,.56-1.02,.56h-28l-.28-1.01h22.23Zm-2.66,11.52l2.45-3.04s2.77,2.07,4.45,3.5c-.1,.39-.49,.56-1.01,.56h-22.82l-.28-1.02h17.22Z"/>
      <path class="cls-1" d="M192.4,16.7l3.71,2.84c-.21,.25-.63,.52-1.22,.67v11.34c-.04,.25-1.96,1.02-3.26,1.02h-.7v-1.93h-8.33v.95c0,.38-1.68,1.29-3.29,1.29h-.59v-15.65h-.04l-1.82-3.99c1.02-.56,1.16-.88,1.16-1.58V4.45c-.28,.14-.59,.17-1.12,.17-1.19,2.14-3.33,5.85-5.08,8.02,3.68,2.38,5.29,5.81,5.29,8.68,0,3.39-1.29,5.42-5.21,5.46,0-1.08-.14-2.55-.42-3.08-.24-.35-.77-.63-1.5-.84v8.82c0,.25-1.16,1.19-3.08,1.19h-.66V.95l4.24,1.61h2.07l2.07-2.03,3.43,3.26V.17l5.04,.49c-.07,.38-.39,.7-1.33,.88V6.37h1.01l1.61-2.24s1.79,1.58,2.84,2.7c-.07,.39-.42,.56-.91,.56h-4.55v4.79c1.43-.35,2.94-.73,4.52-1.12l.1,.42c-1.26,.98-3.68,2.84-6.55,4.69-.28,.42-.59,.73-.88,.91l3.85,1.58h1.01c.21-1.23,.46-3.12,.6-4.41l5.08,1.33c-.17,.56-.63,.81-1.4,.77-.73,.66-1.75,1.58-2.59,2.31h5.15l1.79-1.96Zm-20.48,5.71c.35,0,.53-.07,.77-.17,.46-.32,.7-.95,.7-2,0-2.45-.67-5.15-2.45-7.49,.63-2.31,1.43-6.44,1.86-9.21h-2.84V22.4h1.96Zm10.68-2.77v4.2h8.33v-4.2h-8.33Zm8.33,9.98v-4.8h-8.33v4.8h8.33Zm5.81-17.57c.91,.42,1.16,.8,1.16,1.44,0,1.43-1.37,1.92-5.15,1.92h-2.1c-2.8,0-3.26-.77-3.26-3.01V.21l4.8,.42c-.07,.49-.38,.8-1.09,.91V6.37h1.68l1.54-2.24s1.82,1.58,2.87,2.7c-.07,.39-.42,.56-.91,.56h-5.18v4.27c0,.46,.07,.63,.7,.63h1.37c.49,0,.98,0,1.22-.04,.28,0,.49-.07,.7-.28,.32-.38,.74-1.64,1.12-2.91h.38l.14,2.98Z"/>
      <path class="cls-1" d="M232.79,28.18c1.23,2.1,1.4,3.25,.81,3.82-1.65,1.61-4.52,.11-6.09-1.33-5.67-5.15-7.67-12.78-8.3-21.7h-17.47l-.32-1.02h17.71c-.14-2.49-.21-5.08-.21-7.74l5.53,.56c-.07,.46-.38,.88-1.26,1.02-.04,2.07-.04,4.13,.07,6.16h3.99l1.65-1.96c-.28-.04-.56-.14-.84-.28-.59-1.5-2.17-3.25-3.4-4.2l.25-.28c6.55-.35,7.11,3.19,5.53,4.41,.91,.67,2.45,1.85,3.57,2.76-.11,.39-.53,.56-1.02,.56h-9.7c.46,7.35,2.06,13.93,6.65,17.61,.49,.49,.77,.49,1.08-.1,.56-.95,1.54-2.8,2.17-4.31l.39,.07-.81,5.95Zm-19.88-2.52c2.34-.46,4.87-.95,7.42-1.47l.1,.46c-3.25,1.61-7.98,3.75-15.19,6.55-.17,.49-.52,.77-.88,.91l-2.66-4.45c1.5-.21,4.03-.67,7.07-1.22V16h-5.84l-.28-.98h10.71l2.21-2.84s2.45,1.93,3.95,3.26c-.1,.38-.45,.56-.94,.56h-5.67v9.66Z"/>
      <path class="cls-1" d="M251.97,4.13c-.28,.32-.74,.46-1.58,.49-1.22,2.14-3.36,5.85-5.18,8.05,3.99,2.42,5.57,5.78,5.6,8.65,0,3.46-1.4,5.46-5.39,5.53,0-1.08-.17-2.56-.46-3.04-.28-.39-.84-.7-1.68-.88v-.45h2.31c.35,0,.52-.03,.77-.21,.49-.28,.77-.91,.77-2.03,0-2.41-.77-5.11-2.8-7.45,.63-2.28,1.5-6.48,2-9.24h-3.46V31.64c0,.28-1.16,1.22-3.12,1.22h-.7V.91l4.31,1.64h2.69l2.07-2,3.85,3.57Zm14.98-.1s2.49,2.03,3.89,3.43c-.07,.38-.49,.56-.98,.56h-10.71c-.07,1.79-.17,3.54-.35,5.22h5l2.17-2.14,3.71,3.15c-.28,.32-.74,.53-1.5,.67-.39,9.91-1.23,14.67-3.19,16.31-1.19,1.05-2.66,1.51-4.76,1.51,.04-1.23-.14-2.21-.63-2.73-.59-.63-1.86-1.16-3.29-1.47v-.45c1.43,.1,3.71,.28,4.48,.28,.59,0,.91-.1,1.26-.38,1.12-.95,1.75-5.74,2.1-13.76h-5.5c-1.05,7.91-3.85,14.56-12.22,18.62l-.25-.31c7.25-6.37,8.47-14.95,8.47-24.5h-5.22l-.28-1.01h9.73c-.49-.11-.98-.35-1.47-.81,.1-2.03-.81-4.34-2-5.85l.28-.17c7.6,1.58,6.65,6.3,4.1,6.83h4.94l2.21-2.98Z"/>
      <path class="cls-1" d="M288.23,11.34c-.25,.35-.6,.49-1.37,.56-1.61,6.86-5.15,13.62-12.88,17.61l-.31-.38c5.11-4.34,7.88-11.2,9-17.82h-7.84l-.32-1.01h7.91l2.1-2.17,3.71,3.22Zm18.06-2.31c-.21,.35-.56,.56-1.4,.42-2.13,1.82-5.39,4.24-8.68,6.12,2.94,4.9,6.93,7.81,10.89,9.73l-.17,.38c-1.71,.32-3.01,1.79-3.57,3.71-5.57-4.55-9.14-10.33-10.85-21.77V27.79c0,2.97-.66,4.62-5.67,5.04-.14-1.37-.38-2.31-.98-2.97-.67-.67-1.54-1.12-3.57-1.47v-.49s4.31,.28,5.18,.28c.63,0,.84-.21,.84-.66V.04l5.46,.56c-.11,.49-.35,.81-1.26,.95v3.61c.7,3.82,1.82,6.93,3.22,9.56,2.24-2.8,4.59-6.48,5.74-8.72l4.83,3.05Z"/>
      <path class="cls-1" d="M322.56,4.55s2,1.58,3.22,2.73c-.07,.39-.46,.56-.95,.56h-14.14l-.28-1.02h10.4l1.75-2.28Zm7.63,.77c0,2.87-.63,7.6-6.51,10.33,.21,.21,.46,.42,.67,.63-.11,.38-.46,.56-.95,.56h-11.27l-.28-1.02h7.7l1.68-2.13s.98,.77,1.96,1.58c2.94-3.05,3.33-6.86,3.33-9.94V.98l4.31,1.58h2.98l1.85-2,3.4,2.8c-.21,.25-.63,.42-1.26,.52v5.78c0,.35,.1,.49,.56,.49h1.82c.21,0,.56-.04,.74-.04,.21-.04,.56-.11,.8-.14h.32l.14,.04c.84,.42,1.16,.77,1.16,1.47,0,1.4-1.19,2.17-4.55,2.17h-1.68c-2.62,0-2.94-.74-2.94-3.01V3.54h-3.95v1.79Zm-10.64,5.99l1.68-2.2s1.89,1.54,3.08,2.66c-.1,.39-.46,.56-.95,.56h-11.2l-.28-1.02h7.67Zm.28,19.81v-1.89h-3.95v2.1c0,.35-1.54,1.16-3.05,1.16h-.52v-13.58l3.71,1.51h3.5l1.68-1.79,3.57,2.66c-.21,.25-.67,.52-1.33,.67v8.12c-.04,.28-1.79,1.05-3.01,1.05h-.59Zm-5.67-30.59c9.24,.46,5.92,7.46,2.21,5.01-.25-1.75-1.4-3.64-2.45-4.8l.24-.21Zm5.67,27.72v-6.86h-3.95v6.86h3.95Zm21.46-10.92c-.25,.35-.63,.45-1.47,.53-1.23,2.98-2.91,5.57-5.15,7.81,2.55,1.44,5.57,2.38,8.75,3.01l-.04,.38c-1.61,.35-2.8,1.58-3.33,3.47-3.15-1.19-5.81-2.63-7.95-4.69-2.97,2.24-6.83,3.88-11.55,4.97l-.21-.45c4.09-1.61,7.46-3.78,10.01-6.51-1.68-2.24-2.94-5.04-3.75-8.65h-1.68l-.31-1.01h10.78l2.24-2.14,3.64,3.29Zm-14.04-.14c1.05,2.84,2.66,5.01,4.76,6.69,1.54-2.03,2.7-4.24,3.5-6.69h-8.26Z"/>
      <path class="cls-1" d="M361.41,4.13s2.24,1.75,3.61,3.01c-.07,.38-.46,.56-.95,.56h-17.05l-.28-1.01h12.67l2-2.56Zm-3.71,7.11l1.96-2.49s2.21,1.68,3.5,2.91c-.1,.38-.46,.56-.95,.56h-13.37l-.28-.98h9.14Zm1.96,2.06s2.21,1.68,3.5,2.91c-.1,.39-.46,.56-.95,.56h-13.37l-.28-1.02h9.14l1.96-2.45Zm.07,5.32l3.71,2.8c-.21,.25-.7,.56-1.4,.7v7.95c-.04,.28-1.86,1.05-3.12,1.05h-.63v-2h-5.39v2.07c0,.35-1.61,1.19-3.15,1.19h-.53v-13.41l3.82,1.54h4.9l1.79-1.89ZM352,.25c9.42,.49,5.99,7.81,2.21,5.21-.25-1.85-1.37-3.82-2.49-5.04l.28-.17Zm6.3,27.9v-6.65h-5.39v6.65h5.39Zm18.1-17.96s2.31,1.89,3.71,3.19c-.11,.38-.49,.56-.98,.56h-6.44V31.29c0,.45-1.75,1.44-3.29,1.44h-.77V13.93h-5.6l-.28-1.02h5.88V.21l5.36,.53c-.11,.49-.35,.88-1.29,1.01V12.92h1.68l2.03-2.73Z"/>
    </g>
  </g>
</svg>