<?xml version="1.0" encoding="UTF-8"?>
<svg id="_圖層_2" data-name="圖層 2" xmlns="http://www.w3.org/2000/svg" viewBox="0 0 747 128.35">
  <defs>
    <style>
      .cls-1 {
        fill: #fff;
        opacity: .7;
      }

      .cls-2 {
        fill: #231815;
      }
    </style>
  </defs>
  <g id="_圖層_1-2" data-name="圖層 1">
    <rect class="cls-1" width="747" height="128.35" rx="30" ry="30"/>
    <g>
      <path class="cls-2" d="M26.62,34.97c-.28,.28-.73,.35-1.54,.42-.88,1.86-2.07,3.78-3.54,5.67v.56c7.04,2.24,4.72,6.97,2.27,5.15-.32-1.33-1.29-2.94-2.27-4.17v14.95c0,.25-1.05,1.09-2.59,1.09h-.56v-14.04c-1.65,1.65-3.43,3.12-5.29,4.27l-.39-.35c3.89-3.64,7.39-9.24,8.96-13.79H13.35l-.32-1.01h8.51l1.92-1.86,3.15,3.12Zm-9.62-8.72c8.16,1.96,5,7.6,2.17,5.25-.28-1.71-1.47-3.75-2.49-5.04l.32-.21Zm28.6,7.98c-.21,.28-.74,.56-1.47,.7v14.04c-.04,.28-1.54,1.02-2.59,1.02h-.49v-2.42h-4.03v10.05c0,.38-1.37,1.19-2.52,1.19h-.6v-11.24h-4.03v1.68c0,.32-1.29,1.02-2.62,1.02h-.49V31.96l3.33,1.44h3.82v-7.21l4.38,.46c-.07,.49-.35,.84-1.26,.98v5.78h3.68l1.57-1.79,3.33,2.62Zm-15.72,.14v5.36h4.03v-5.36h-4.03Zm4.03,12.18v-5.81h-4.03v5.81h4.03Zm3.12-12.18v5.36h4.03v-5.36h-4.03Zm4.03,12.18v-5.81h-4.03v5.81h4.03Z"/>
      <path class="cls-2" d="M53.91,48.06v3.43c0,.25-1.01,1.08-2.62,1.08h-.52V27.93l3.57,1.4h4.59l1.61-1.79,3.32,2.62c-.21,.28-.77,.56-1.47,.74v18.94c-.03,.31-1.5,1.12-2.62,1.12h-.49v-2.91h-5.36Zm0-17.71v7.74h5.36v-7.74h-5.36Zm5.36,16.7v-7.98h-5.36v7.98h5.36Zm22.3-17.5c-.25,.32-.81,.6-1.47,.74v24.26c0,2.38-.53,3.82-4.83,4.24-.14-1.05-.38-1.82-.98-2.31-.67-.56-1.64-.95-3.61-1.23v-.52s4.41,.28,5.29,.28c.7,0,.91-.21,.91-.81v-8.37h-8.05c-.84,5-3.26,9.7-9.94,12.95l-.42-.35c6.51-4.97,7.6-11.2,7.6-18.52v-12.6l3.71,1.4h6.76l1.54-1.82,3.5,2.66Zm-4.69,15.26v-7.11h-7.63v2.17c0,1.65-.07,3.29-.28,4.94h7.91Zm-7.63-15.09v6.97h7.63v-6.97h-7.63Z"/>
      <path class="cls-2" d="M100.99,34.02v23.56c0,.17-.88,.8-2.21,.8h-.49v-13.72h-6.86l-.31-1.02h1.82v-9.63h-1.37l-.28-1.01h8.37l1.4-1.79h-10.19v8.4c0,5.81-.14,13.69-4.87,19.11l-.49-.32c2.34-5.57,2.38-12.57,2.38-18.8v-10.78l3.5,1.37h11.69c-.1-.04-.17-.07-.28-.14-.42-1.33-1.68-2.87-2.73-3.78l.31-.25c5.74,.14,5.92,3.36,4.31,4.16h8.12l1.89-2.52s2.21,1.75,3.47,2.98c-.11,.38-.38,.56-.91,.56h-16.07c.35,.28,1.68,1.4,2.52,2.24-.07,.38-.42,.56-.84,.56h-1.89Zm-10.22,13.58c1.86-.63,4.41-1.93,5.56-2.63l1.96,2.45c-.21,.18-.56,.18-.95-.07-.49,.1-1.19,.21-1.93,.31v2.52l.91-1.23s1.16,1.02,1.86,1.82c-.07,.35-.35,.53-.8,.53h-1.96v2.59l2.63-.35,.07,.53c-1.33,.67-3.39,1.64-6.23,2.8-.17,.46-.49,.7-.84,.77l-1.33-3.12c.77-.04,2.03-.18,3.5-.35v-2.87h-2.06l-.28-1.01h2.34v-2.38c-.77,.07-1.57,.14-2.31,.14l-.14-.46Zm7.53-13.58h-2.87v2.45h2.87v-2.45Zm0,3.47h-2.87v2.59h2.87v-2.59Zm0,6.16v-2.55h-2.87v2.55h2.87Zm5.6,5.92c1.12,2.94,.63,5.08-.35,5.95-.66,.6-1.89,.67-2.34-.17-.32-.77,.1-1.54,.88-2,.8-.63,1.47-2.35,1.22-3.78h.6Zm12.85-5.32c-.04,.14-.53,.38-1.12,.56,.56,.42,1.79,1.33,2.63,2.1-.07,.38-.42,.56-.88,.56h-15.68l-.28-1.01h12.32l1.29-1.47c-.18,.04-.35,.04-.49,.04h-.46v-.67h-8.89v.42c0,.21-1.09,.74-2.1,.74h-.35v-8.68l2.62,1.12h2.66v-2.38h-5.63l-.28-1.01h5.91v-3.05l4.1,.39c-.07,.49-.38,.8-1.22,.94v1.72h2.52l1.61-2.1s1.79,1.47,2.9,2.56c-.11,.38-.42,.56-.91,.56h-6.12v2.38h2.9l1.33-1.33,2.77,2.06c-.14,.25-.59,.49-1.15,.6v4.97Zm-2.35,10.92c.77,.25,.95,.52,.95,1.01,0,1.08-1.02,1.58-4.97,1.58h-2.52c-2.35,0-2.7-.56-2.7-2.24v-6.93l3.5,.38c-.07,.42-.42,.74-1.02,.84v5.11c0,.38,.11,.49,.88,.49h2.03c.88,0,1.61-.04,1.89-.04,.25,0,.42-.07,.56-.25,.25-.35,.6-1.4,.88-2.56h.42l.11,2.59Zm-9.21-11.83h1.61v-4.38h-1.61v4.38Zm3.5-4.38v4.38h1.86v-4.38h-1.86Zm.56,8.75c5.91,2.62,3.08,7.11,1.05,5.01,.14-1.61-.63-3.57-1.47-4.76l.42-.25Zm4.83-4.38v-4.38h-1.71v4.38h1.71Zm0,5.53c6.41,3.19,3.71,7.88,1.5,5.78-.03-1.86-.98-4.13-1.92-5.57l.42-.21Z"/>
      <path class="cls-2" d="M134.31,30.8s1.89,1.47,3.01,2.55c-.07,.38-.42,.56-.88,.56h-14.07l-.28-1.02h10.61l1.61-2.1Zm7.14,.67c0,2.94-.63,7.53-6.34,10.29,.25,.17,.46,.38,.63,.56-.11,.38-.42,.56-.91,.56h-10.96l-.28-1.02h7.74l1.57-2s1.12,.91,2.17,1.82l-.28-.35c3.22-3.01,3.64-6.72,3.64-9.87v-4.2l3.54,1.37h3.81l1.61-1.68,3.01,2.52c-.21,.24-.67,.42-1.29,.52v6.41c0,.38,.11,.52,.6,.52h1.12c.42,0,.84,0,1.05-.04h.63c.21-.03,.49-.1,.74-.14h.31l.14,.04c.8,.31,1.08,.59,1.08,1.19,0,1.19-1.05,1.82-4.3,1.82h-1.75c-2.28,0-2.59-.67-2.59-2.55v-7.6h-4.69v1.82Zm-10.12,5.88l1.57-1.96s1.75,1.37,2.84,2.42c-.11,.39-.42,.56-.91,.56h-10.96l-.28-1.02h7.74Zm3.39,18.83c-.04,.25-1.47,.91-2.45,.91h-.49v-1.79h-4.76v2.03c0,.32-1.29,.98-2.52,.98h-.42v-13.23l3.08,1.33h4.27l1.51-1.61,3.19,2.45c-.21,.25-.74,.53-1.4,.67v8.26Zm-8.65-29.58c8.16,1.12,5.43,7.14,2.31,5.01-.31-1.65-1.54-3.64-2.62-4.8l.31-.21Zm5.71,27.69v-6.86h-4.76v6.86h4.76Zm20.9-10.92c-.28,.35-.63,.45-1.44,.49-1.26,2.98-2.97,5.64-5.29,7.88,2.62,1.65,5.71,2.73,9.17,3.47l-.04,.38c-1.4,.21-2.38,1.22-2.83,2.8-3.36-1.19-6.13-2.7-8.4-4.83-2.91,2.24-6.62,3.99-11.27,5.15l-.28-.53c4.1-1.54,7.42-3.64,10.05-6.27-1.82-2.24-3.19-5.04-4.06-8.58h-1.86l-.31-1.02h11.48l1.96-1.82,3.12,2.87Zm-13.72-.03c1.08,2.83,2.76,5.11,4.9,6.93,1.68-2.1,2.97-4.45,3.85-6.93h-8.75Z"/>
      <path class="cls-2" d="M187.62,53.87s2.28,1.64,3.71,2.91c-.07,.38-.46,.56-.95,.56h-31.29l-.31-1.01h6.12v-16.94l3.61,1.47h3.68c.11-.77,.21-1.72,.31-2.66h-13.09l-.32-1.02h13.51l.25-2.52,4.87,.67c-.11,.49-.56,.81-1.33,.91l-.35,.95h9.06l1.23-1.43c-.32,.07-.67,.1-.95,.1h-.56v-1.5h-19.36v.95c0,.28-1.47,.98-2.73,.98h-.46v-9.42l3.46,1.44h18.73l1.61-1.72,3.4,2.56c-.21,.28-.74,.56-1.44,.7v5.15c0,.07-.14,.17-.38,.28,.77,.56,2.1,1.54,3.01,2.38-.11,.38-.46,.56-.91,.56h-14.11c-.38,.91-.8,1.85-1.15,2.66h6.96l1.58-2.03,3.78,2.73c-.24,.35-.66,.56-1.57,.7v14.07h.35l2.03-2.45Zm-22.16-20.55h4.34v-4.03h-4.34v4.03Zm2.73,8.54v2.94h13.62v-2.94h-13.62Zm13.62,3.96h-13.62v2.73h13.62v-2.73Zm-13.62,3.75v2.7h13.62v-2.7h-13.62Zm0,6.76h13.62v-3.05h-13.62v3.05Zm4.59-27.02v4.03h4.52v-4.03h-4.52Zm12.04,4.03v-4.03h-4.55v4.03h4.55Z"/>
      <path class="cls-2" d="M210.79,40.39c-.28,.28-.7,.49-1.44,.59-.31,10.5-1.01,14.63-2.62,16.14-.98,.95-2.24,1.37-3.78,1.37,0-.98-.11-1.75-.49-2.17-.42-.49-1.29-.84-2.31-1.09v-.52c.98,.07,2.55,.21,3.22,.21,.56,0,.8-.11,1.12-.38,.98-.91,1.54-5.15,1.79-14h-3.85c-.6,7.07-2.31,13.51-7.42,18.31l-.38-.35c4.24-6.9,4.73-15.51,4.52-24.19h-3.85l-.28-.98h12.01l1.82-2.49s2.17,1.72,3.39,2.91c-.11,.39-.42,.56-.91,.56h-8.58c-.04,1.79-.11,3.5-.24,5.22h3.46l1.68-1.79,3.15,2.66Zm-10.71-14.11c8.61,2.13,5.6,8.58,2.52,6.12-.21-2.03-1.57-4.45-2.83-5.91l.31-.21Zm27.93,12.88l-.07,.46c-1.29,.56-2.21,1.44-2.45,2.66-2.94-3.08-4.97-7.95-6.12-12.88-1.79,4.73-4.87,10.05-9.21,13.41l-.39-.28c3.36-4.41,5.85-11.41,6.62-16.38l4.83,1.09c-.11,.42-.46,.67-1.37,.8,1.4,4.69,4.76,8.79,8.16,11.13Zm-16.14,9.87c15.3,2.62,14.39,11.06,10.08,9.28-1.99-3.12-6.72-6.83-10.33-8.93l.25-.35Zm3.12-9.1c9.66,1.01,8.05,7.46,4.62,5.88-.91-1.93-3.19-4.24-4.94-5.6l.31-.28Z"/>
      <path class="cls-2" d="M259.96,26.67s2.48,1.82,3.96,3.12c-.11,.38-.46,.56-.95,.56h-13.55c-1.22,1.75-2.73,3.75-3.96,5.18h12.18l1.71-2.03,3.36,2.66c-.25,.31-.63,.56-1.44,.7v20.55c0,.25-1.23,.95-2.91,.95h-.56v-2.52h-20.58v1.89c0,.25-1.01,.91-2.73,.91h-.56v-24.57l3.71,1.47h6.62c.21-1.43,.49-3.5,.7-5.18h-13.16l-.31-1.02h26.29l2.17-2.66Zm-22.72,28.14h4.55v-18.27h-4.55v18.27Zm12.85-18.27h-5.18v5.32h5.18v-5.32Zm-5.18,11.76h5.18v-5.42h-5.18v5.42Zm0,6.51h5.18v-5.5h-5.18v5.5Zm8.3-18.27v18.27h4.62v-18.27h-4.62Z"/>
      <path class="cls-2" d="M272.03,32.48c.28,2.21-.56,3.71-1.64,4.31-.98,.56-2.24,.42-2.62-.59-.31-.98,.31-1.72,1.19-2.17,1.09-.63,2.07-2.34,1.79-4.17l.56-.04c.25,.56,.42,1.12,.56,1.65h10.36v-2.21h-9.77l-.28-1.01h19.01l1.75-2.17s2.03,1.5,3.29,2.62c-.1,.38-.45,.56-.94,.56h-9.8v2.21h10.43l1.75-1.79,3.19,3.04c-.28,.28-.66,.35-1.33,.38-.95,1.12-2.52,2.63-3.78,3.5l-.39-.25c.28-1.05,.6-2.63,.81-3.89h-3.15l1.79,2.73c-.25,.14-.6,.1-.98-.21-1.37,.35-4.66,.84-7.14,.98l-.14-.46c1.96-.77,4.97-2.24,6.34-3.04h-7.39v6.76c0,.17-1.05,.74-2.7,.74h-.56v-7.49h-10.19Zm5.71,21.74c1.68-.25,3.43-.49,5.25-.77l.11,.53c-2.73,1.02-6.58,2.42-12.11,4.1-.18,.46-.53,.74-.88,.8l-1.75-3.5c.59-.04,1.37-.14,2.28-.25v-6.16l3.29,.32c-.04,.38-.28,.63-.88,.74v4.83l2-.31v-7.98h-1.44v.17c0,.21-1.26,.81-2.35,.81h-.38v-7.84l2.87,1.22h4.87l1.33-1.47,2.94,2.24c-.17,.21-.66,.49-1.22,.59v4.13c-.04,.25-1.44,.8-2.31,.8h-.46v-.67h-1.15v2.87h.66l1.47-1.79s1.61,1.26,2.59,2.24c-.07,.39-.38,.56-.88,.56h-3.85v3.78Zm-5.5-16.84c1.61-.14,5.18-.56,8.68-1.05l.07,.53c-1.47,.66-3.67,1.61-6.65,2.76-.14,.42-.45,.67-.8,.74l-1.3-2.98Zm.7-3.88c7.88-1.16,8.4,2.97,6.09,2.87-1.44-.84-4.2-1.89-6.27-2.31l.17-.56Zm5.95,12.04v-3.64h-5.29v3.64h5.29Zm18.8-3.22c-.24,.32-.63,.42-1.47,.45-1.01,1.4-2.24,2.62-3.74,3.78,2.17,.74,4.65,1.19,7.14,1.44l-.04,.38c-1.09,.32-1.75,1.19-2.03,2.49-.74-.17-1.44-.38-2.14-.59l1.4,1.05c-.14,.21-.56,.45-1.05,.53v5.57c-.04,.28-1.51,.88-2.49,.88h-.53v-1.26h-5.74v.49c0,.25-.95,1.02-2.42,1.02h-.52v-7.7c-.77,.25-1.58,.46-2.42,.67l-.24-.52c2.7-1.05,5.25-2.42,7.38-4.13-1.02-.84-1.93-1.86-2.66-2.94-1.19,1.37-2.59,2.62-4.1,3.54l-.42-.35c1.89-1.96,3.64-5.32,4.41-8.09l3.92,.77c-.07,.35-.35,.52-1.22,.49-.21,.39-.46,.81-.73,1.19h5.18l1.71-1.61,2.8,2.49Zm-4.2,7.28c-1.12-.46-2.17-.98-3.15-1.61-1.26,.8-2.66,1.5-4.17,2.07l1.29,.52h5.01l1.02-.98Zm-6.86-12.92c9.21-.63,9.59,3.78,7.11,3.54-1.61-.95-4.94-2.35-7.32-2.98l.21-.56Zm.66,5.78c-.21,.24-.42,.52-.63,.77,.95,.98,2.17,1.75,3.54,2.42,1.09-.98,2.03-2.06,2.77-3.18h-5.67Zm5.46,13.55v-4.41h-5.74v4.41h5.74Z"/>
      <path class="cls-2" d="M336.58,43.33c-.21,.31-.6,.38-1.29,.42-1.09,.88-2.94,2.13-4.24,2.83l-.38-.21c.35-.84,.8-2.17,1.05-3.25h-22.51c-.04,2-.98,3.36-2.07,3.92-1.01,.53-2.34,.32-2.73-.77-.31-1.01,.35-1.79,1.26-2.2,1.22-.52,2.55-1.96,2.52-3.64h.56c.21,.59,.31,1.19,.38,1.68h22.47l1.82-1.82,3.15,3.05Zm-4.24,11.38s2.17,1.5,3.57,2.7c-.11,.38-.46,.56-.95,.56h-29.44l-.31-1.01h13.37v-2.94h-9.8l-.32-1.02h10.12v-2.52c-2.28,.25-4.69,.52-7.28,.77-.24,.39-.6,.63-.91,.7l-1.05-3.25s.53-.07,.84-.18c1.47-.35,3.22-1.47,4.48-2.42h-4.34l-.28-1.01h16.03l1.61-1.72s1.82,1.19,3.01,2.17c-.11,.38-.42,.56-.91,.56h-10.71c-1.79,.98-4.2,2.03-6.44,2.8,3.5-.04,8.68-.14,14.25-.32-.8-.56-1.79-1.12-2.8-1.58l.17-.52c9.28,.31,8.47,5.32,5.99,4.83,.7,.53,1.89,1.4,2.73,2.13-.11,.39-.46,.56-.95,.56h-9.94v2.94h8.29l1.96-2.24Zm-26.36-25.59h12.64v-2.98l4.79,.42c-.07,.49-.35,.84-1.29,.95v1.61h7.35l1.99-2.28s2.21,1.58,3.68,2.73c-.11,.38-.49,.56-.98,.56h-12.04v2.42h5.36l1.82-2.14s2.17,1.47,3.54,2.59c-.11,.38-.46,.56-.98,.56h-23.24l-.31-1.01h10.33v-2.42h-12.39l-.24-1.02Zm21.28,12.11v-1.16h-13.51v.42c0,.28-1.61,1.05-3.01,1.05h-.49v-7.35l3.71,1.44h12.95l1.68-1.75,3.54,2.62c-.21,.25-.67,.53-1.3,.67v3.19c-.03,.25-1.82,.88-2.94,.88h-.63Zm0-2.17v-2.42h-13.51v2.42h13.51Zm-4.03,11.69c-.07,.46-.31,.77-1.15,.91v1.33h5.78l1.75-2.06c-.38-.49-.98-.98-1.68-1.58-2.45,.31-5.5,.66-8.96,1.09l4.27,.31Z"/>
      <path class="cls-2" d="M356.04,33.6c-.24,.28-.77,.56-1.47,.74v21.11c-.04,.28-1.57,.98-2.66,.98h-.49v-2.7h-6.2v2.7c0,.35-1.19,1.12-2.52,1.12h-.53V31.29l3.22,1.47h.63c.32-1.86,.74-4.55,.98-6.48l4.83,1.16c-.17,.56-.63,.8-1.4,.8-.84,1.33-2.06,3.12-3.04,4.52h3.68l1.61-1.82,3.36,2.66Zm-10.82,.17v8.72h6.2v-8.72h-6.2Zm6.2,18.94v-9.21h-6.2v9.21h6.2Zm21.7-19.11c-.28,.32-.7,.53-1.51,.63-.24,13.58-.8,20.62-2.59,22.65-1.12,1.29-2.62,1.82-4.66,1.82,0-1.08-.17-1.92-.73-2.42-.6-.56-2-1.05-3.61-1.33l.04-.56c1.64,.17,4.1,.35,4.94,.35,.7,0,.98-.11,1.37-.46,1.29-1.26,1.71-8.61,1.96-20.58h-7.35c-1.61,2.91-3.5,5.46-5.6,7.35l-.49-.32c2.06-3.54,4.09-9.1,5.14-14.46l4.66,1.37c-.14,.42-.56,.73-1.33,.73-.53,1.51-1.16,2.94-1.86,4.31h6.44l1.89-2,3.29,2.91Zm-14.98,6.27c9.45,3.33,6.37,10.12,3.19,7.46-.28-2.42-1.96-5.36-3.5-7.25l.31-.21Z"/>
      <path class="cls-2" d="M385.72,36.4c-.11,.31-.42,.52-1.05,.67v20.62c-.07,.28-1.43,1.05-2.73,1.05h-.59v-18.83c-1.4,1.75-2.91,3.36-4.52,4.69l-.46-.32c2.97-4.3,6.12-11.27,7.74-18.03l4.94,1.5c-.18,.46-.6,.74-1.4,.74-1.02,2.66-2.17,5.08-3.5,7.32l1.58,.6Zm20.23,16.45s2.38,1.86,3.81,3.19c-.1,.38-.46,.56-.95,.56h-22.93l-.28-1.01h12.39c1.5-5.57,2.97-13.09,3.67-18.48l5.01,1.16c-.11,.49-.49,.84-1.33,.88-1.37,4.55-3.85,11.2-6.65,16.45h5.15l2.1-2.73Zm-19.39-18.34h16.66l2.06-2.62s2.31,1.79,3.68,3.08c-.11,.38-.46,.56-.95,.56h-21.21l-.25-1.01Zm2.97,3.15c9.77,10.29,5.04,18.76,2.63,14.98-.14-3.71-.74-10.19-3.12-14.74l.49-.25Zm4.24-11.34c9.07,2.8,5.92,9.59,2.66,6.9-.21-2.28-1.64-4.97-3.01-6.69l.35-.21Z"/>
      <path class="cls-2" d="M442.42,53.87s2.28,1.64,3.71,2.91c-.07,.38-.45,.56-.95,.56h-31.29l-.31-1.01h6.12v-16.94l3.61,1.47h3.68c.11-.77,.21-1.72,.31-2.66h-13.09l-.32-1.02h13.51l.25-2.52,4.87,.67c-.11,.49-.56,.81-1.33,.91l-.35,.95h9.06l1.23-1.43c-.32,.07-.67,.1-.95,.1h-.56v-1.5h-19.36v.95c0,.28-1.47,.98-2.73,.98h-.46v-9.42l3.46,1.44h18.73l1.61-1.72,3.4,2.56c-.21,.28-.74,.56-1.44,.7v5.15c0,.07-.14,.17-.38,.28,.77,.56,2.1,1.54,3.01,2.38-.11,.38-.46,.56-.91,.56h-14.11c-.38,.91-.8,1.85-1.15,2.66h6.96l1.58-2.03,3.78,2.73c-.24,.35-.66,.56-1.57,.7v14.07h.35l2.03-2.45Zm-22.16-20.55h4.34v-4.03h-4.34v4.03Zm2.73,8.54v2.94h13.62v-2.94h-13.62Zm13.62,3.96h-13.62v2.73h13.62v-2.73Zm-13.62,3.75v2.7h13.62v-2.7h-13.62Zm0,6.76h13.62v-3.05h-13.62v3.05Zm4.59-27.02v4.03h4.52v-4.03h-4.52Zm12.04,4.03v-4.03h-4.55v4.03h4.55Z"/>
      <path class="cls-2" d="M454.39,46.13c2.07-1.19,3.01-2.7,3.46-4.52-1.82-.8-2.97-1.68-2.97-3.18,0-1.26,.88-2.35,2.42-2.35s2.66,1.16,2.66,3.33c0,2.66-1.26,6.06-4.97,7.84l-.6-1.12Z"/>
      <path class="cls-2" d="M497.47,30.35s2.38,1.79,3.85,3.08c-.11,.38-.46,.56-.98,.56h-31.36l-.31-.98h18.69c1.09-2,2.28-4.76,2.94-6.76l4.9,1.29c-.14,.42-.56,.7-1.37,.7-1.29,1.44-3.4,3.29-5.36,4.76h6.93l2.07-2.66Zm-15.65,5.5l3.46,2.66c-.21,.28-.77,.6-1.47,.7v15.61c0,2.28-.46,3.54-3.96,3.85-.07-.95-.21-1.68-.56-2.17-.38-.46-.95-.81-2.13-1.02v-.49s2.24,.17,2.87,.17c.49,0,.63-.25,.63-.66v-5.01h-5.71c-.31,3.47-1.4,7-5.08,9.59l-.38-.35c2.35-3.5,2.45-8.05,2.45-12.57v-9.98l3.71,1.43h4.66l1.51-1.79Zm-1.16,12.64v-4.59h-5.56v2.24c0,.74,0,1.54-.04,2.35h5.6Zm-5.56-9.84v4.24h5.56v-4.24h-5.56Zm1.01-12.29c8.82,1.44,6.13,8.02,2.84,5.74-.31-1.93-1.82-4.13-3.15-5.5l.31-.25Zm14.35,25.34c0,.28-1.33,.84-2.48,.84h-.56v-15.58l4.34,.46c-.07,.46-.35,.84-1.29,.95v13.34Zm3.85-15.68l4.41,.42c-.11,.53-.42,.84-1.26,.95v17.29c0,2.38-.53,3.68-4.52,4.03-.11-.91-.32-1.65-.84-2.17-.56-.49-1.4-.84-3.12-1.08v-.53s3.78,.25,4.52,.25c.63,0,.8-.17,.8-.66v-18.48Z"/>
      <path class="cls-2" d="M533.7,30.77s2.38,1.82,3.88,3.12c-.11,.38-.49,.56-.98,.56h-17.15c-.14,2.07-.31,4.06-.63,5.95h9.35l1.86-1.82,3.29,2.77c-.28,.28-.73,.49-1.5,.59-.42,8.51-1.37,13.76-3.19,15.37-1.15,.95-2.59,1.4-4.55,1.4,0-1.01-.14-1.86-.7-2.28-.63-.56-2.17-1.05-3.75-1.33l.04-.53c1.68,.14,4.38,.35,5.18,.35,.7,0,1.02-.07,1.4-.38,1.12-.98,1.86-5.95,2.24-13.13h-9.8c-1.33,7.56-4.62,13.65-12.81,17.5l-.28-.38c7.95-6.06,9.8-14.25,10.05-24.08h-10.19l-.28-1.01h26.39l2.14-2.66Zm-15.86-4.73c9.59,1.82,6.86,8.75,3.46,6.41-.46-2.13-2.21-4.62-3.74-6.16l.28-.25Z"/>
      <path class="cls-2" d="M559.14,37.73c1.22,6.54,5.15,13.27,15.23,17.54l-.07,.39c-1.75,.31-2.83,1.26-3.22,3.15-8.82-5.11-11.55-13.62-12.53-20.58-1.01,8.3-4.38,15.47-16.77,20.58l-.38-.56c9.97-5.71,12.85-12.6,13.65-20.51h-12.99l-.31-1.02h13.37c.28-3.29,.24-6.76,.24-10.36l4.97,.49c-.1,.53-.42,.88-1.26,1.02-.07,3.04-.11,6.02-.35,8.86h8.86l2.28-2.87s2.59,1.96,4.13,3.33c-.11,.38-.49,.56-.98,.56h-13.86Z"/>
      <path class="cls-2" d="M606.46,26.67s2.48,1.82,3.96,3.12c-.11,.38-.46,.56-.95,.56h-13.55c-1.22,1.75-2.73,3.75-3.96,5.18h12.18l1.71-2.03,3.36,2.66c-.25,.31-.63,.56-1.44,.7v20.55c0,.25-1.23,.95-2.91,.95h-.56v-2.52h-20.58v1.89c0,.25-1.01,.91-2.73,.91h-.56v-24.57l3.71,1.47h6.62c.21-1.43,.49-3.5,.7-5.18h-13.16l-.31-1.02h26.29l2.17-2.66Zm-22.72,28.14h4.55v-18.27h-4.55v18.27Zm12.85-18.27h-5.18v5.32h5.18v-5.32Zm-5.18,11.76h5.18v-5.42h-5.18v5.42Zm0,6.51h5.18v-5.5h-5.18v5.5Zm8.3-18.27v18.27h4.62v-18.27h-4.62Z"/>
      <path class="cls-2" d="M621.62,31.54h-7.18l-.28-1.01h7.32l-.63-4.2,4.34,.24c-.04,.46-.28,.81-.98,.98l.46,2.98h.98l1.75-2.38s2.06,1.68,3.25,2.84c-.1,.38-.42,.56-.91,.56h-4.9l.46,2.91c-.46,.66-1.64,.95-3.12,.95l-.56-3.85Zm-6.3,7.98c7.98,.77,5.81,6.41,2.83,4.62-.46-1.5-1.92-3.33-3.15-4.34l.32-.28Zm10.43-1.33c-1.37,3.08-4.16,9.1-4.65,10.4-.32,.95-.63,1.96-.6,2.73,.04,1.44,1.19,2.56,1.09,5.04-.07,1.43-.98,2.34-2.49,2.34-.7,0-1.33-.49-1.54-1.54,.49-3.15,.31-5.46-.46-5.95-.46-.28-.98-.42-1.68-.46v-.73h1.65c.49,0,.63,0,1.05-.63q.81-1.09,7.07-11.38l.56,.18Zm-8.29-3.92c8.4,.67,6.58,6.3,3.46,4.8-.77-1.47-2.48-3.4-3.78-4.55l.31-.25Zm25.76,3.43c-.28,.35-.66,.46-1.54,.49-1.33,1.85-3.01,3.57-5.01,5.04,2.97,1.19,6.3,1.96,9.56,2.38v.42c-1.29,.31-2.1,1.26-2.42,2.76-1.22-.31-2.42-.7-3.57-1.12l2.35,1.75c-.18,.25-.6,.49-1.16,.6v7.67c-.04,.24-1.64,.84-2.66,.84h-.56v-1.96h-7.98v1.19c0,.25-1.05,1.02-2.66,1.02h-.56v-10.47c-1.4,.49-2.87,.91-4.34,1.26l-.28-.53c3.78-1.4,7.35-3.36,10.29-5.71-1.22-1.05-2.31-2.28-3.19-3.68-1.54,1.71-3.36,3.26-5.32,4.31l-.38-.35c2.59-2.38,4.97-6.58,6.05-10.15l4.34,1.33c-.14,.35-.45,.49-1.33,.38-.28,.49-.63,.98-.98,1.5h6.27l1.96-1.75,3.12,2.77Zm-3.99,9.56c-1.71-.67-3.29-1.5-4.72-2.49-1.82,1.16-3.85,2.17-6.02,3.01l2.21,.88h7.21l1.33-1.4Zm-8.09-9.56c-.31,.46-.7,.91-1.08,1.33,1.12,1.16,2.52,2.21,4.1,3.04,1.5-1.37,2.76-2.83,3.78-4.38h-6.79Zm7.07,17.85v-5.88h-7.98v5.88h7.98Zm5.67-27.41s1.96,1.68,3.22,2.84c-.11,.38-.46,.56-.95,.56h-7.77l-.53,3.22c-.59,.46-1.89,.63-3.25,.35l.56-3.57h-3.43l-.28-1.01h3.85l.67-4.24,4.3,.91c-.11,.45-.46,.8-1.33,.8l-.38,2.52h3.5l1.82-2.38Z"/>
      <path class="cls-2" d="M658.15,48.45c1.58-.45,3.19-.95,4.83-1.44l.14,.46c-2.13,1.4-5.29,3.47-9.77,5.99-.14,.46-.42,.81-.8,.95l-2.03-3.95c.95-.21,2.52-.59,4.45-1.12v-12.04h-4.06l-.28-1.02h4.34v-9.24l4.48,.46c-.1,.49-.38,.84-1.29,.98v7.81h1.09l1.57-2.45s1.82,1.71,2.8,2.91c-.07,.38-.42,.56-.91,.56h-4.55v11.17Zm23.7,5.78c1.16,.38,1.47,.74,1.47,1.33,0,1.58-1.71,2.07-9.31,2.03h-5.04c-3.85,0-5.14-.67-5.14-3.5v-13.34l-3.12,1.37-.7-.8,3.82-1.65v-8.58l4.38,.49c-.07,.45-.42,.84-1.22,.95v5.78l3.74-1.65v-10.5l4.34,.46c-.11,.49-.39,.84-1.3,.98v7.74l4.1-1.75,.07-.04,1.64-1.68,2.98,3.08c-.28,.28-.67,.42-1.4,.46-.8,4.13-2.38,10.12-4.41,14.07l-.46-.25c.84-4.34,1.4-10.36,1.61-14.56l-4.13,1.79v14.11c0,.35-1.33,1.05-2.48,1.05h-.56v-13.83l-3.74,1.65v13.9c0,1.02,.42,1.37,2.31,1.37h4.94c2.1,0,3.64-.04,4.38-.11,.56-.03,.88-.17,1.15-.52,.38-.63,.95-2.45,1.58-4.9h.42l.1,5.08Z"/>
      <path class="cls-2" d="M713.95,34.55c.35-.88,.73-2.21,1.01-3.29h-5.81v3.81c0,.39,.07,.53,1.09,.53h2.77c1.05,0,2.06,0,2.48-.04,.31,0,.7-.04,.88-.07,.25-.04,.63-.11,.91-.18h.28l.18,.04c.95,.28,1.19,.63,1.19,1.19,0,1.19-1.05,1.61-6.3,1.61h-3.22c-3.01,0-3.47-.63-3.47-2.63v-4.27h-6.16l2.91,2.03c-.18,.39-.63,.6-1.65,.49-2.83,2.66-7.11,4.83-12.95,5.67l-.21-.45c4.97-1.71,8.86-4.8,10.82-7.74h-7c.18,2.24-.77,3.81-1.89,4.41-1.05,.53-2.38,.31-2.76-.81-.32-1.01,.38-1.79,1.29-2.24,1.22-.59,2.34-2.21,2.13-4.06l.56-.04c.24,.59,.42,1.19,.53,1.71h11.3l-.14-.1c-.07-1.4-.98-2.98-2.03-3.85l.28-.25c5.32,.31,5.64,3.12,4.31,4.2h9.56l1.89-1.86,3.29,3.12c-.24,.28-.63,.35-1.33,.42-1.09,.94-2.94,2.13-4.34,2.87l-.38-.25Zm.42,4.03l3.22,2.52c-.24,.28-.63,.52-1.4,.67v15.72c0,.18-1.16,.84-2.73,.84h-.56v-1.96h-19.15v1.5c0,.25-.98,.88-2.59,.88h-.52v-19.67l3.54,1.4h5.04c.39-1.22,.88-3.08,1.19-4.27l4.65,1.15c-.17,.49-.66,.74-1.4,.74-.77,.7-1.85,1.61-2.76,2.38h11.87l1.61-1.89Zm-1.47,16.77v-13.86h-19.15v13.86h19.15Zm-1.16-10.12c-.21,.35-.52,.53-1.29,.38-.7,1.05-1.61,2.07-2.66,3.01,4.66,3.47,3.08,6.37,.88,5.15-.66-.95-1.68-2.1-3.08-3.33-2.59,1.86-5.78,3.33-9.35,4.2l-.24-.49c3.01-1.19,5.74-3.04,7.88-5.11-.88-.67-1.79-1.33-2.84-2-1.68,1.23-3.64,2.28-5.71,3.01l-.31-.49c1.54-.95,3.01-2.21,4.27-3.57-1.12-.63-2.28-1.26-3.5-1.82l.25-.53c1.5,.38,2.94,.81,4.2,1.26,.88-1.09,1.61-2.14,2.1-3.15l3.43,1.71c-.21,.35-.49,.53-1.29,.38-.53,.63-1.16,1.3-1.86,1.93,1.12,.49,2.1,.98,2.97,1.43,1.05-1.22,1.89-2.52,2.49-3.75l3.67,1.75Z"/>
      <path class="cls-2" d="M728.09,46.13c2.06-1.19,3.01-2.7,3.46-4.52-1.82-.8-2.97-1.68-2.97-3.18,0-1.26,.88-2.35,2.41-2.35s2.66,1.16,2.66,3.33c0,2.66-1.26,6.06-4.97,7.84l-.59-1.12Z"/>
      <path class="cls-2" d="M25.08,84.75c-1.23,.77-2.77,1.75-4.62,2.87v11.34c0,2.34-.46,3.67-4.1,4.03-.07-.95-.24-1.75-.66-2.24-.46-.53-1.16-.88-2.52-1.09v-.53s2.87,.21,3.5,.21c.56,0,.7-.17,.7-.63v-9.31c-.84,.46-1.71,.95-2.62,1.47-.14,.46-.42,.8-.81,.95l-1.5-3.92c.98-.21,2.77-.7,4.94-1.33v-6.93h-4.13l-.28-1.02h4.41v-8.16l4.38,.46c-.1,.49-.46,.84-1.29,.95v6.75h.46l1.61-2.48s1.75,1.75,2.73,2.94c-.1,.39-.42,.56-.91,.56h-3.88v6.06c1.44-.42,2.98-.91,4.48-1.37l.14,.42Zm11.59,4.38c2.06,3.75,5.78,6.75,9.42,8.19l-.07,.32c-1.29,.31-2.24,1.33-2.7,2.97-3.43-2.38-5.88-6.23-7.35-11.24v12.67c0,.32-1.43,.91-2.63,.91h-.59v-10.08c-2.49,3.25-5.99,5.91-10.26,7.88l-.35-.49c4.1-2.8,7.18-6.86,8.96-11.13h-6.86l-.25-1.02h8.75v-4.31l4.41,.42c-.07,.46-.35,.81-1.19,.95v2.94h4.34l1.92-2.52s2.14,1.75,3.47,2.98c-.11,.38-.45,.56-.95,.56h-8.09Zm7.67-15.33c-.35,.32-1.05,.35-2.03-.07-4.38,.84-11.38,1.58-17.33,1.68l-.14-.6c5.57-.84,12.6-2.66,16.17-4.17l3.33,3.15Zm-18.48,3.15c7.42,3.19,4.06,8.72,1.44,6.13,.04-1.96-.91-4.38-1.82-5.95l.38-.17Zm6.16-1.08c7.39,3.12,4.06,8.65,1.4,6.09,0-2-.88-4.34-1.79-5.92l.38-.17Zm5.6,8.86c1.19-2.24,2.52-5.88,3.43-9.21l4.38,1.58c-.17,.42-.59,.7-1.33,.63-1.71,2.83-3.92,5.53-5.98,7.28l-.49-.28Z"/>
      <path class="cls-2" d="M80.94,98.47c.98,.38,1.19,.77,1.19,1.47,0,1.44-1.33,2.1-7.07,2.1h-3.64c-3.25,0-4.03-.7-4.03-3.19v-13.69h-4.16c-.7,9-3.71,14.77-13.9,17.82l-.17-.46c7.88-3.96,9.94-9.49,10.26-17.36h-9.77l-.32-1.01h14.49v-13.69l4.73,.46c-.07,.49-.38,.84-1.3,.98v12.25h8.71l2.13-2.63s2.38,1.79,3.82,3.08c-.11,.38-.46,.56-.98,.56h-10.15v12.85c0,.63,.17,.8,1.37,.8h3.19c1.26,0,2.31,0,2.8-.07,.46-.04,.6-.14,.8-.53,.35-.74,.88-3.01,1.47-5.57h.38l.14,5.81Zm-28.04-25.83c10.22,4.45,7.14,11.97,3.64,9.03-.35-2.94-2.21-6.44-4.03-8.79l.39-.25Zm26.88,1.93c-.18,.38-.67,.63-1.44,.52-2.31,2.84-5.11,5.64-7.67,7.49l-.38-.35c1.4-2.34,3.36-6.3,4.79-9.8l4.69,2.14Z"/>
      <path class="cls-2" d="M115.13,84.16c-.24,.38-.63,.46-1.47,.52-1.44,3.99-3.5,7.49-6.44,10.4,3.15,2.21,6.83,3.82,10.82,4.87l-.11,.39c-1.44,.17-2.52,1.15-3.08,2.66-3.78-1.47-7.04-3.43-9.7-6.09-3.5,2.77-8.05,4.79-13.97,6.02l-.28-.49c5.25-1.71,9.42-4.2,12.56-7.35-2.38-2.91-4.2-6.55-5.32-11.03h-1.92c-1.09,7.35-3.64,13.72-9.98,18.48l-.35-.32c6.44-7.7,7.6-17.43,7.56-28.07h-6.02l-.31-1.01h17.89l1.47-1.65,3.32,2.59c-.24,.31-.56,.42-1.22,.49l-1.15,8.47h2.41l2.03-1.89,3.25,3.01Zm-18.13-10.01c-.11,3.08-.25,6.06-.63,8.89h7.7l1.12-8.89h-8.19Zm1.86,9.91c1.29,3.78,3.46,6.86,6.2,9.31,2.28-2.7,3.88-5.81,4.94-9.31h-11.13Z"/>
      <path class="cls-2" d="M134.7,87.87c-.24,.32-.6,.42-1.33,.46-.84,2.49-2.42,5.25-4.66,7.35,.14,.07,.28,.18,.46,.32,2.91,2.62,6.97,3.12,14.18,3.12,4.06,0,7.46-.04,11.62-.25v.46c-1.4,.28-2.17,1.4-2.38,2.73h-10.33c-7.28,0-10.46-1.26-13.55-4.94-.46-.56-.84-.49-1.15,.07-.63,1.05-1.86,3.01-2.73,4.66,.11,.28,0,.53-.24,.7l-2.42-3.29c1.64-1.01,4.17-3.01,5.25-3.57,1.26-2.17,2.2-5.11,2.59-7.6h-2.8l-1.16,1.05-2.73-2.14c.32-.21,.88-.46,1.37-.59,1.23-1.61,2.77-4.03,3.78-5.81h-5.6l-.31-1.02h6.06l1.57-1.61,3.15,2.87c-.35,.35-1.08,.52-1.89,.56-1.01,1.54-2.59,3.95-3.81,5.67h2.21l1.75-1.72,3.12,2.52Zm-10.57-16.98c8.89,1.16,6.51,7.67,3.19,5.6-.42-1.89-2.07-4.06-3.5-5.36l.32-.25Zm10.39,2.38l-.31-1.01h13.41l1.89-1.82,3.19,3.04c-.31,.28-.67,.35-1.44,.39-1.57,1.01-4.34,2.2-6.65,3.04,1.61,.98,1.51,2.1,.77,2.7h3.01l1.47-1.71,3.36,2.59c-.21,.25-.77,.56-1.47,.7v13.13c0,2.1-.42,3.22-3.71,3.54-.04-.81-.14-1.51-.45-1.93-.31-.38-.84-.73-1.96-.91v-.52s1.96,.17,2.52,.17c.49,0,.6-.17,.6-.63v-3.26h-3.99v5.64c-.04,.17-.91,.74-2.38,.74h-.46v-6.37h-4.13v5.99c0,.28-1.26,1.01-2.55,1.01h-.49v-19.57l3.26,1.4h5.04c-.1-.07-.17-.14-.24-.21-.98-1.26-2.8-2.66-5.53-3.71l.18-.53c2.97,.25,5.01,.7,6.27,1.26,1.15-.91,2.48-2.13,3.43-3.15h-12.6Zm3.26,7.35v3.99h4.13v-3.99h-4.13Zm4.13,9.14v-4.13h-4.13v4.13h4.13Zm2.84-9.14v3.99h3.99v-3.99h-3.99Zm3.99,9.14v-4.13h-3.99v4.13h3.99Z"/>
      <path class="cls-2" d="M190.63,99.35c.7,1.79,.77,3.01,.18,3.4-1.37,.88-2.84-.25-3.85-1.75-3.26-4.38-3.29-16.35-3.12-26.74h-18.38v7.53c0,6.44-.38,15.16-6.47,21.14l-.49-.28c3.43-6.27,3.71-13.93,3.71-20.83v-10.01l3.78,1.44h17.43l1.82-1.96,3.5,2.98c-.24,.25-.73,.53-1.57,.67-.49,7.25-.32,19.39,1.86,22.33,.28,.39,.42,.32,.59-.17,.42-1.26,.8-2.59,1.16-3.92l.38,.07-.53,6.13Zm-11.66-6.09c8.33,4.34,5.29,10.61,2.48,7.88-.04-1.05-.31-2.13-.7-3.25-3.33,.8-7.81,1.75-13.83,2.97-.21,.46-.6,.7-.98,.77l-1.71-3.85c1.86-.04,5.01-.14,8.86-.35v-5.81h-3.22v1.4c0,.25-1.15,.84-2.24,.84h-.38v-11.8l2.8,1.19h3.04v-4.55h-6.51l-.28-1.01h12.36l1.57-2.28s1.82,1.61,2.84,2.73c-.11,.38-.42,.56-.88,.56h-6.16v4.55h2.9l1.33-1.37,2.7,2.1c-.14,.24-.56,.46-1.09,.56v7.67c0,.21-1.33,.77-2.24,.77h-.42v-1.36h-3.18v5.67l4.45-.28c-.56-1.29-1.23-2.55-1.89-3.54l.38-.21Zm-5.88-2.66v-6.34h-3.22v6.34h3.22Zm2.94-6.34v6.34h3.18v-6.34h-3.18Z"/>
      <path class="cls-2" d="M225.59,91.16c-.24,.31-.6,.46-1.37,.17-2.17,1.12-5.46,2.45-8.65,3.43,3.22,2.45,7.42,3.92,12.15,4.69l-.04,.42c-1.47,.28-2.48,1.37-2.9,2.97-7.7-2.34-12.71-6.37-14.95-14.74h-5.6v10.36c2.41-.59,5.32-1.37,8.26-2.17l.14,.45c-2.21,1.22-6.09,3.36-10.71,5.6-.28,.28-.56,.52-.8,.63l-1.65-3.5c1.19-.59,1.4-.91,1.4-1.75v-24.01l3.82,1.65h13.34l1.68-1.82,3.5,2.73c-.24,.28-.73,.56-1.47,.7v11.45c-.04,.28-1.68,1.01-2.8,1.01h-.56v-1.33h-7.84c1.01,2.49,2.45,4.52,4.38,6.09,2.55-1.75,5.53-4.27,7.11-5.88l3.57,2.84Zm-7.21-9.98v-4.8h-14.14v4.8h14.14Zm-14.14,5.92h14.14v-4.9h-14.14v4.9Zm4.17-16.8c7.7,1.08,4.83,6.62,1.89,4.51-.24-1.47-1.29-3.22-2.21-4.3l.32-.21Z"/>
      <path class="cls-2" d="M247.75,79.36c-.95,.28-2,.56-3.08,.84-.42,4.55-1.29,9-3.15,12.85,6.3,4.13,3.61,7.42,1.22,6.02-.66-1.05-1.64-2.21-2.77-3.33-1.96,2.91-4.69,5.36-8.44,7.28l-.38-.39c3.22-2.34,5.5-5.25,7.07-8.51-1.99-1.71-4.2-3.36-6.09-4.52,.56-1.71,1.19-4.34,1.79-7.07l-1.05,.17c-.21,.46-.6,.7-.98,.77l-.95-3.64c.91,0,2.14,0,3.54-.07,.73-3.67,1.37-7.32,1.57-9.45l4.45,.81c-.14,.38-.35,.74-1.4,.8-.31,1.93-.88,4.69-1.5,7.63,1.22-.07,2.52-.14,3.88-.25,.07-1.26,.07-2.59,.07-3.85l4.69,.84c-.14,.52-.56,.84-1.37,.91-.04,.63-.07,1.22-.1,1.85,.98-.1,1.92-.17,2.9-.28l.07,.56Zm-8.51,12.36c1.22-3.33,1.86-7,2.13-10.71-1.33,.31-2.77,.63-4.34,.95-.63,2.76-1.37,5.6-2.07,7.88,1.68,.63,3.08,1.26,4.27,1.89Zm21.49-8.26s2.13,1.71,3.39,2.94c-.1,.38-.45,.56-.95,.56h-7.6v11.87c0,2.38-.49,3.82-4.48,4.2-.1-1.05-.28-1.86-.8-2.38-.53-.52-1.33-.91-2.97-1.16v-.49s3.57,.24,4.3,.24c.56,0,.74-.17,.74-.63v-11.66h-7l-.28-1.01h7.28v-5.81l2.41,.25c1.09-1.65,2.28-3.99,3.05-5.6h-11.38l-.31-1.02h11.76l1.93-1.89,3.29,3.01c-.28,.28-.67,.35-1.44,.38-1.51,1.44-3.88,3.68-5.99,5.22l1.12,.11c-.07,.49-.42,.8-1.23,.91v4.45h3.26l1.89-2.49Z"/>
    </g>
  </g>
</svg>