<?xml version="1.0" encoding="UTF-8"?>
<svg id="_圖層_2" data-name="圖層 2" xmlns="http://www.w3.org/2000/svg" viewBox="0 0 603.52 174.13">
  <defs>
    <style>
      .cls-1 {
        fill: #fff;
        opacity: .7;
      }

      .cls-2 {
        fill: #231815;
      }
    </style>
  </defs>
  <g id="_圖層_1-2" data-name="圖層 1">
    <rect class="cls-1" width="603.52" height="174.13" rx="30" ry="30"/>
    <g>
      <path class="cls-2" d="M32.59,53.84c2.17,.7,4.83,.84,8.23,.84,3.12,0,10.54,0,13.83-.11v.46c-1.26,.28-1.86,1.4-1.92,2.63h-12.01c-7.88,0-11.97-1.51-14.39-8.51-.77,3.54-2.1,7-4.48,9.52l-.42-.35c2.31-4.52,3.05-11.55,2.94-17.01l4.2,.84c-.14,.53-.53,.84-1.33,.88-.14,1.54-.35,3.25-.67,4.94,.81,1.92,1.79,3.29,3.01,4.31v-12.78l4.13,.45c-.11,.42-.35,.74-1.12,.84v4.17h1.22l1.65-2.27s1.85,1.61,2.94,2.73c-.11,.39-.45,.56-.95,.56h-4.87v7.88Zm-3.68-16.21v-4.94h-5.57l-.28-1.01h5.85v-5.46l4.34,.42c-.04,.46-.32,.77-1.16,.91v4.13h1.47l1.75-2.24s1.96,1.54,3.19,2.7c-.1,.38-.45,.56-.95,.56h-5.46v4.94h1.89l1.75-2.38s2,1.54,3.22,2.73c2.42-2.87,2.91-5.95,3.08-8.68h-4.62l-.32-1.01h12.6l1.68-1.65,3.12,2.56c-.28,.28-.67,.45-1.37,.56-.25,5.25-.77,7.95-2.14,8.93-.88,.67-2.06,.98-3.61,.98,0-.88-.1-1.68-.59-2.07-.46-.45-1.54-.84-2.7-1.05v-.53c1.16,.11,3.12,.25,3.75,.25,.56,0,.81-.07,1.05-.28,.59-.52,.91-2.76,1.12-6.69h-4.52c-.49,4.1-2.1,8.61-8.93,11.8l-.45-.49c.88-.63,1.61-1.29,2.28-2-.11,.04-.18,.04-.28,.04h-15.72l-.28-1.02h6.79Zm20.09,15.51v-2.35h-7.04v1.86c0,.25-1.4,.98-2.7,.98h-.49v-13.27l3.36,1.37h6.51l1.64-1.75,3.4,2.62c-.21,.25-.73,.56-1.43,.7v8.75c-.04,.31-1.58,1.08-2.7,1.08h-.56Zm0-3.36v-7.04h-7.04v7.04h7.04Z"/>
      <path class="cls-2" d="M75.93,37.73c1.22,6.54,5.15,13.27,15.23,17.54l-.07,.39c-1.75,.31-2.83,1.26-3.22,3.15-8.82-5.11-11.55-13.62-12.53-20.58-1.01,8.3-4.38,15.47-16.77,20.58l-.38-.56c9.98-5.71,12.85-12.6,13.65-20.51h-12.99l-.32-1.02h13.37c.28-3.29,.25-6.76,.25-10.36l4.97,.49c-.1,.53-.42,.88-1.26,1.02-.07,3.04-.11,6.02-.35,8.86h8.86l2.28-2.87s2.59,1.96,4.13,3.33c-.1,.38-.49,.56-.98,.56h-13.86Z"/>
      <path class="cls-2" d="M112.36,46.06c-.38,2.35-1.22,4.41-2.76,6.27,4.66,2.03,10.85,2.77,17.5,2.91v.42c-1.4,.42-2.28,1.5-2.56,3.12-6.72-.67-12.36-2.03-16.49-4.94-2.63,2.21-6.72,3.88-13.02,5.04l-.17-.49c5.6-1.79,9.14-3.71,11.31-6.12-1.29-1.23-2.38-2.66-3.29-4.38l.46-.38c.98,1.4,2.28,2.56,3.82,3.54,.98-1.47,1.58-3.12,1.89-4.97h-6.2v1.09c0,.31-1.44,1.05-2.77,1.05h-.49v-15.37l3.5,1.44h6.27v-3.99h-13.69l-.28-1.02h25.13l2.14-2.62s2.48,1.79,3.92,3.08c-.07,.39-.46,.56-.91,.56h-12.99v3.99h6.34l1.64-1.75,3.47,2.62c-.21,.28-.74,.6-1.44,.74v11.2c-.03,.25-1.71,.91-2.8,.91h-.53v-1.93h-7Zm-9.52-10.78v4.3h6.51v-4.3h-6.51Zm6.34,9.77c.14-1.02,.17-2.1,.17-3.26v-1.19h-6.51v4.45h6.34Zm10.19,0v-4.45h-6.69v1.08c0,1.16-.07,2.28-.17,3.36h6.86Zm-6.69-9.77v4.3h6.69v-4.3h-6.69Z"/>
      <path class="cls-2" d="M162.1,39.34c-.25,.32-.56,.49-1.37,.28-2.13,1.54-5.46,3.54-8.65,5.11,2.7,5.01,6.79,8.37,11.97,10.57l-.1,.35c-1.47,.1-2.66,1.01-3.33,2.49-7.21-4.31-11.03-10.96-12.36-22.75-1.47,2.1-3.33,4.1-5.5,5.88v12.36c2.38-.74,5.43-1.65,8.4-2.63l.14,.46c-2.13,1.37-6.02,3.85-10.54,6.34-.28,.56-.67,.91-1.01,1.08l-2.1-3.96c1.44-.77,1.68-1.12,1.68-1.79v-9.42c-2.49,1.54-5.18,2.91-8.12,3.96l-.28-.49c5.74-3.05,10.57-7.95,13.44-12.6h-12.81l-.28-1.02h26.11l2.1-2.59s2.42,1.75,3.85,3.04c-.07,.38-.46,.56-.98,.56h-13.55c.56,3.61,1.54,6.76,2.87,9.38,2.38-2.28,5.08-5.39,6.41-7.35l3.99,2.73Zm-17.85-12.99c8.72,2.07,5.67,8.54,2.52,6.06-.17-2.03-1.54-4.38-2.87-5.85l.35-.21Z"/>
      <path class="cls-2" d="M172.63,38.54v18.97c0,.46-1.19,1.26-2.73,1.26h-.56V27.27l3.43,1.51h5.67l1.47-1.61,3.25,2.41c-.21,.25-.7,.53-1.33,.63v9.28c-.04,.21-1.58,.88-2.59,.88h-.49v-1.82h-6.13Zm0-8.75v3.36h6.13v-3.36h-6.13Zm6.13,7.77v-3.46h-6.13v3.46h6.13Zm11.48,16.77c-.04,.28-1.58,.98-2.62,.98h-.49v-2h-7.11v1.4c0,.31-1.29,.98-2.59,.98h-.46v-14.46l3.19,1.37h6.62l1.54-1.65,3.22,2.41c-.21,.28-.7,.56-1.29,.67v10.29Zm-10.22-10.75v3.78h7.11v-3.78h-7.11Zm7.11,8.75v-3.99h-7.11v3.99h7.11Zm12.32-22.72c-.25,.28-.77,.59-1.44,.74v24.22c0,2.42-.49,3.82-4.45,4.17-.11-1.02-.28-1.86-.7-2.38-.53-.49-1.26-.88-2.83-1.16v-.53s3.22,.25,3.88,.25,.77-.25,.77-.74v-15.65h-6.37v.7c0,.31-1.37,1.05-2.7,1.05h-.46v-12.88l3.33,1.37h5.85l1.57-1.86,3.54,2.7Zm-11.13,.17v3.36h6.37v-3.36h-6.37Zm6.37,7.77v-3.46h-6.37v3.46h6.37Z"/>
      <path class="cls-2" d="M208.47,46.13c2.07-1.19,3.01-2.7,3.46-4.52-1.82-.8-2.97-1.68-2.97-3.18,0-1.26,.88-2.35,2.42-2.35s2.66,1.16,2.66,3.33c0,2.66-1.26,6.06-4.97,7.84l-.59-1.12Z"/>
      <path class="cls-2" d="M242.73,30.52c-.8,1.89-1.82,3.78-2.97,5.64l1.96,.73c-.11,.32-.42,.56-1.08,.66v20.41c-.04,.21-1.51,.81-2.73,.81h-.63v-19.01c-3.82,4.97-8.79,9.45-14.42,12.67l-.35-.38c7.14-5.57,13.3-14.07,15.75-21.53h-14.95l-.28-1.02h25.69l2.27-2.8s2.49,1.89,4.06,3.25c-.1,.39-.46,.56-.98,.56h-11.34Zm-.35,8.79c15.3,4.27,14.04,12.64,9.98,10.64-1.89-3.46-6.72-7.77-10.33-10.29l.35-.35Z"/>
      <path class="cls-2" d="M258.8,58.38c4.55-2.97,8.93-7.81,11.03-11.45l4.34,2.27c-.25,.35-.56,.53-1.37,.39-2.87,3.29-8.05,7.11-13.69,9.21l-.32-.42Zm8.68-12.46c0,.35-1.47,1.16-2.91,1.16h-.56V28l3.71,1.54h15.51l1.71-1.89,3.57,2.76c-.24,.28-.73,.56-1.47,.74v14.46c-.04,.25-1.75,.98-2.91,.98h-.56v-2.28h-16.1v1.61Zm0-15.37v12.78h16.1v-12.78h-16.1Zm11.38,16.94c14.53,4.24,12.95,12.78,8.89,10.61-1.58-3.54-5.81-7.77-9.24-10.29l.35-.32Z"/>
      <path class="cls-2" d="M323.83,29.4s2.38,1.79,3.89,3.08c-.11,.38-.49,.56-.98,.56h-16.98c-.84,1.54-1.79,3.05-2.87,4.58l.91,.32h10.96l1.68-1.93,3.71,2.84c-.28,.35-.84,.66-1.65,.8v14.88c0,2.38-.52,3.82-4.69,4.2-.1-1.08-.31-1.93-.84-2.42-.56-.53-1.37-.95-3.08-1.19v-.53s3.71,.25,4.48,.25c.63,0,.77-.21,.77-.73v-4.41h-12.25c-.59,3.26-2,6.62-5.53,9.14l-.35-.35c2.66-4.06,2.84-9.17,2.84-13.86v-3.33c-2.21,2.31-4.76,4.38-7.77,5.95l-.31-.38c4.58-3.61,8.02-8.72,10.26-13.83h-9.52l-.25-1.02h10.22c.84-2,1.5-4.03,2-5.95l4.87,1.47c-.17,.38-.45,.63-1.4,.63-.49,1.26-1.05,2.52-1.68,3.85h11.45l2.13-2.62Zm-4.69,19.29v-4.41h-11.9v.35c0,1.26-.04,2.62-.21,4.06h12.11Zm-11.9-9.73v4.31h11.9v-4.31h-11.9Z"/>
      <path class="cls-2" d="M331.7,45.01c3.36-4.45,6.86-11.62,8.72-18.76l4.97,1.61c-.14,.42-.6,.73-1.4,.67-1.05,2.7-2.28,5.15-3.68,7.39l1.54,.56c-.1,.32-.42,.53-1.09,.67v20.55c-.04,.28-1.43,1.05-2.73,1.05h-.63v-18.66c-1.65,2.07-3.36,3.78-5.25,5.25l-.46-.32Zm31.64,9.24c1.09,.42,1.44,.8,1.44,1.43,0,1.54-1.68,2.07-8.65,2.07h-4.48c-3.71,0-5.01-.73-5.01-3.61V26.92l4.45,.49c-.07,.46-.38,.84-1.26,.98v10.33h8.72l1.79-2.45s2.1,1.72,3.36,2.91c-.11,.38-.46,.56-.95,.56h-12.92v13.58c0,1.05,.42,1.4,2.24,1.4h4.27c1.79,0,3.18,0,3.82-.11,.49-.04,.8-.14,1.05-.49,.38-.6,.98-2.45,1.58-4.76h.42l.14,4.9Z"/>
      <path class="cls-2" d="M381.47,26.74c-.11,.49-.35,.84-1.29,.98v29.89c0,.38-1.37,1.19-2.56,1.19h-.59v-13.97h-2.98c-.17,5.43-.84,10.47-5.22,13.97l-.46-.49c2.45-3.85,2.56-8.58,2.59-13.48h-2.45l-.28-1.02h8.79v-5.32h-3.75l-1.12,1.54-3.5-1.96c.32-.32,.84-.7,1.33-.95v-9.03l4.17,.42c-.07,.49-.39,.77-1.12,.91v8.05h3.99v-11.24l4.45,.49Zm16.7,7.21s1.96,1.71,3.08,2.91c-.07,.38-.42,.56-.91,.56h-4.55c-.53,4.73-1.61,9.14-4.03,12.81,9.63,5.43,6.44,9.7,3.54,7.98-1.12-1.82-3.08-3.82-5.29-5.7-2.17,2.52-5.15,4.66-9.14,6.23l-.39-.35c3.4-2,5.88-4.55,7.7-7.35-2.07-1.61-4.2-3.08-6.09-4.17,.63-2.28,1.37-5.85,2.03-9.45h-3.19l-.28-1.01h3.64c.74-3.99,1.3-7.95,1.51-10.22l4.76,.67c-.1,.42-.31,.81-1.33,.88-.35,2.14-.91,5.32-1.61,8.68h4.76c.14-1.79,.17-3.57,.14-5.39l5,.8c-.1,.59-.56,.91-1.37,.95-.07,1.22-.14,2.45-.25,3.64h.49l1.75-2.45Zm-10.71,3.46c-.73,3.4-1.54,6.97-2.31,9.77,1.58,.56,2.97,1.16,4.2,1.75,1.71-3.5,2.59-7.42,2.97-11.52h-4.87Z"/>
      <path class="cls-2" d="M412.45,37.63c6.2,2.03,3.61,6.3,1.37,4.41-.1-1.12-.7-2.45-1.37-3.5v19.15c0,.38-1.29,1.15-2.38,1.15h-.63v-14.91c-1.19,2.49-2.66,4.76-4.52,6.79l-.49-.42c2.38-4.06,3.75-9.42,4.52-14.6h-3.85l-.28-1.02h4.62v-8.58l4.27,.46c-.11,.53-.39,.84-1.26,.98v7.14h.49l1.58-2.31s1.86,1.61,2.94,2.76c-.11,.38-.45,.56-.95,.56h-4.06v1.92Zm14,7.81c-1.58,.91-3.99,2-6.09,2.73,2.42-.04,5.81-.14,9.45-.28-.74-.63-1.44-1.19-2.1-1.61l.32-.31c7.91,.56,7,5.78,4.2,4.69-.32-.59-.91-1.29-1.58-1.96l-3.12,.52v3.33h3.01l1.51-1.86s1.79,1.3,2.87,2.31c-.07,.39-.42,.56-.91,.56h-6.48v2.94h4.9l1.71-2.17s1.96,1.5,3.12,2.62c-.1,.38-.42,.56-.88,.56h-21.67l-.28-1.01h9.98v-2.94h-7.49l-.28-1.01h7.77v-2.8c-1.54,.25-3.19,.49-4.83,.7-.28,.46-.63,.7-.98,.77l-1.05-3.43s.56-.07,.84-.14c1.33-.31,2.83-1.37,3.82-2.2h-3.82l-.28-1.01h11.03l1.4-1.58s1.47,.98,2.52,1.86c.17-.63,.38-1.51,.56-2.24h-15.33c0,1.15-.42,2.17-1.29,2.76-1.72,1.12-3.36-.91-1.44-2.34,.63-.46,1.54-1.68,1.65-3.08h.53c.24,.56,.38,1.12,.49,1.65h15.26l1.51-1.47,2.66,2.55c-.25,.28-.63,.32-1.3,.35-.73,.73-2.13,1.92-2.97,2.52l-.39-.17c-.14,.14-.38,.21-.67,.21h-5.88Zm-10.82-15.65h8.75v-3.71l4.24,.38c-.04,.46-.32,.77-1.12,.91v2.42h4.94l1.68-2.03s1.89,1.44,3.05,2.49c-.07,.38-.42,.56-.91,.56h-8.75v2.24h3.82l1.47-1.89s1.72,1.37,2.8,2.35c-.07,.38-.42,.56-.91,.56h-17.12l-.28-1.01h7.11v-2.24h-8.47l-.28-1.02Zm14.98,11.06v-1.02h-9.07v.39c0,.21-.91,.88-2.35,.88h-.49v-6.76l3.05,1.22h8.58l1.37-1.4,2.91,2.13c-.14,.25-.59,.49-1.12,.59v3.01c-.04,.28-1.43,.95-2.38,.95h-.49Zm0-2.03v-2.24h-9.07v2.24h9.07Z"/>
      <path class="cls-2" d="M445.77,46.13c2.07-1.19,3.01-2.7,3.46-4.52-1.82-.8-2.97-1.68-2.97-3.18,0-1.26,.88-2.35,2.42-2.35s2.66,1.16,2.66,3.33c0,2.66-1.26,6.06-4.97,7.84l-.59-1.12Z"/>
      <path class="cls-2" d="M477.73,37.73c1.22,6.54,5.15,13.27,15.23,17.54l-.07,.39c-1.75,.31-2.84,1.26-3.22,3.15-8.82-5.11-11.55-13.62-12.53-20.58-1.01,8.3-4.38,15.47-16.77,20.58l-.38-.56c9.98-5.71,12.85-12.6,13.65-20.51h-12.99l-.32-1.02h13.37c.28-3.29,.24-6.76,.24-10.36l4.97,.49c-.1,.53-.42,.88-1.26,1.02-.07,3.04-.11,6.02-.35,8.86h8.86l2.28-2.87s2.59,1.96,4.13,3.33c-.1,.38-.49,.56-.98,.56h-13.86Z"/>
      <path class="cls-2" d="M527.5,39.34c-.25,.32-.56,.49-1.37,.28-2.13,1.54-5.46,3.54-8.65,5.11,2.7,5.01,6.79,8.37,11.97,10.57l-.1,.35c-1.47,.1-2.66,1.01-3.33,2.49-7.21-4.31-11.03-10.96-12.36-22.75-1.47,2.1-3.33,4.1-5.5,5.88v12.36c2.38-.74,5.43-1.65,8.4-2.63l.14,.46c-2.13,1.37-6.02,3.85-10.54,6.34-.28,.56-.67,.91-1.01,1.08l-2.1-3.96c1.44-.77,1.68-1.12,1.68-1.79v-9.42c-2.48,1.54-5.18,2.91-8.12,3.96l-.28-.49c5.74-3.05,10.57-7.95,13.44-12.6h-12.81l-.28-1.02h26.11l2.1-2.59s2.42,1.75,3.85,3.04c-.07,.38-.45,.56-.98,.56h-13.55c.56,3.61,1.54,6.76,2.87,9.38,2.38-2.28,5.08-5.39,6.41-7.35l3.99,2.73Zm-17.85-12.99c8.72,2.07,5.67,8.54,2.52,6.06-.17-2.03-1.54-4.38-2.87-5.85l.35-.21Z"/>
      <path class="cls-2" d="M556.72,50.58c6.16,.63,7.14,2.59,6.48,3.64,.7,.56,1.68,1.4,2.41,2.1-.07,.38-.46,.56-.91,.56h-17.61l-1.23,1.65-3.57-2.03c.32-.32,.91-.74,1.47-1.02v-19.85c-.14,.07-.35,.11-.56,.11h-3.29v2.48c5.92,3.19,3.46,7.49,1.4,5.6-.07-1.43-.74-3.18-1.4-4.62v18.45c0,.35-1.23,1.08-2.28,1.08h-.59v-14.53c-1.05,2.31-2.35,4.38-3.89,6.3l-.49-.42c2.1-4.03,3.33-9.24,3.96-14.35h-3.43l-.28-1.02h4.13v-8.61l4.17,.46c-.1,.53-.38,.84-1.29,.98v7.18h.04l1.5-2.13s1.29,1.19,2.31,2.24v-7.56l3.5,1.44h12.43l1.75-2.31s2.03,1.58,3.22,2.73c-.11,.38-.46,.56-.91,.56h-16.91v26.18h13.86l.67-.91c-.31-.07-.67-.25-.95-.56-.63-1.05-1.96-2.34-3.92-3.33l.21-.49Zm5.88-14.07s-.11,.14-.25,.21c.59,.46,1.71,1.4,2.49,2.14-.07,.38-.42,.56-.91,.56h-16.35l-.28-1.01h7.14v-1.96h-2.84v.56c0,.21-1.16,.8-2.21,.8h-.39v-6.62l2.77,1.16h2.66v-2.45l3.85,.38c-.07,.46-.35,.77-1.16,.88v1.19h2.52l1.29-1.3,2.73,2.03c-.17,.21-.59,.42-1.09,.53v2.91Zm-15.23,18.06c2.17-1.05,4.55-2.97,5.7-4.3l3.4,2.24c-.32,.35-.84,.42-1.71,.21-1.68,.91-4.52,1.89-7.18,2.34l-.21-.49Zm12.46-3.6v-1.09h-8.16v.77c0,.25-1.26,.84-2.38,.84h-.42v-11.8l2.98,1.22h7.67l1.4-1.43,2.87,2.17c-.17,.25-.56,.49-1.12,.56v7.95c-.03,.21-1.43,.81-2.38,.81h-.46Zm-5.39-15.54v-2.07h-2.84v2.07h2.84Zm-2.77,6.51v1.65h8.16v-1.65h-8.16Zm8.16,2.66h-8.16v1.65h8.16v-1.65Zm0,4.27v-1.61h-8.16v1.61h8.16Zm-2.7-15.51v2.07h2.8v-2.07h-2.8Zm3.26,5.04l1.05-1.33c-.35,.1-.74,.17-1.05,.17h-.46v-.81h-2.8v1.96h3.26Z"/>
      <path class="cls-2" d="M573.87,46.13c2.07-1.19,3.01-2.7,3.46-4.52-1.82-.8-2.97-1.68-2.97-3.18,0-1.26,.88-2.35,2.42-2.35s2.66,1.16,2.66,3.33c0,2.66-1.26,6.06-4.97,7.84l-.59-1.12Z"/>
      <path class="cls-2" d="M51.77,97.6s2.52,1.89,4.03,3.25c-.1,.39-.46,.56-.98,.56H23.56l-.28-1.02h14.35v-10.47h-10.26l-.28-1.01h10.54v-8.96h-11.73l-.32-1.02h22.61l2.14-2.73s2.45,1.82,3.99,3.19c-.11,.38-.49,.56-.98,.56h-12.11v8.96h5.67l2.13-2.63s2.35,1.79,3.82,3.08c-.07,.38-.46,.56-.98,.56h-10.64v10.47h8.33l2.21-2.8Zm-17.82-26.99c11.38,1.26,9.59,8.86,5.74,6.9-1.01-2.38-3.75-5.04-6.02-6.58l.28-.32Z"/>
      <path class="cls-2" d="M77.64,71.62c-.07,.49-.35,.84-1.26,.98,.77,13.2,3.99,21.74,16.03,26.67l-.07,.39c-1.72,.31-2.87,1.36-3.33,3.18-9.1-4.9-11.94-13.09-12.88-24.01-.63,8.75-3.15,17.75-16.03,24.12l-.42-.53c13.3-9.07,13.06-20.37,13.09-31.29l4.87,.49Z"/>
      <path class="cls-2" d="M111.52,77.82c-.24,.28-.77,.56-1.47,.74v21.11c-.04,.28-1.58,.98-2.66,.98h-.49v-2.7h-6.2v2.7c0,.35-1.19,1.12-2.52,1.12h-.53v-26.25l3.22,1.47h.63c.32-1.86,.74-4.55,.98-6.48l4.83,1.16c-.17,.56-.63,.8-1.4,.8-.84,1.33-2.06,3.12-3.04,4.52h3.68l1.61-1.82,3.36,2.66Zm-10.82,.17v8.72h6.2v-8.72h-6.2Zm6.2,18.94v-9.21h-6.2v9.21h6.2Zm21.7-19.11c-.28,.32-.7,.53-1.5,.63-.25,13.58-.8,20.62-2.59,22.65-1.12,1.29-2.62,1.82-4.66,1.82,0-1.09-.17-1.92-.73-2.42-.6-.56-2-1.05-3.61-1.33l.03-.56c1.65,.17,4.1,.35,4.94,.35,.7,0,.98-.11,1.37-.46,1.3-1.26,1.72-8.61,1.96-20.58h-7.35c-1.61,2.91-3.5,5.46-5.6,7.35l-.49-.32c2.06-3.54,4.09-9.1,5.15-14.46l4.66,1.37c-.14,.42-.56,.73-1.33,.73-.53,1.51-1.16,2.94-1.86,4.31h6.44l1.89-2,3.29,2.91Zm-14.98,6.27c9.45,3.33,6.37,10.12,3.19,7.46-.28-2.42-1.96-5.36-3.5-7.25l.32-.21Z"/>
      <path class="cls-2" d="M140.67,84.3v17.64c0,.35-1.23,.98-2.31,.98h-.59v-15.3h-.07c-1.44,3.22-3.25,6.97-4.97,9.63l-.56-.21c.84-2.97,2.03-7.67,2.94-11.48l2.66,.94v-2.21h-5.08l-.28-1.01h5.36v-12.88l4.2,.46c-.1,.49-.38,.88-1.29,.98v11.45h.91l1.64-2.14s1.79,1.51,2.91,2.59c-.07,.38-.42,.56-.91,.56h-4.55Zm-7.39-10.85c6.41,5,3.75,10.29,1.4,7.84,0-2.45-1.02-5.53-1.89-7.67l.49-.17Zm8.19,12.71c6.93,5.04,4.17,10.64,1.68,8.12-.07-2.52-1.16-5.71-2.14-7.95l.46-.17Zm20.41-5.46s2.03,1.58,3.29,2.73c-.1,.38-.46,.56-.94,.56h-17.89l-.28-1.02h7.04v-3.29h-4.79l-.28-1.02h5.08v-3.05h-6.2l-.25-.88c-.21,.21-.56,.35-1.08,.31-1.16,2.17-2.59,4.8-3.89,6.62l-.59-.28c.56-2.1,1.37-5.46,2-8.3l3.78,1.29c-.04,.07-.07,.14-.1,.21h6.33v-4.2l4.31,.42c-.07,.46-.35,.77-1.16,.91v2.87h2.94l1.79-2.24s2.03,1.58,3.26,2.7c-.11,.39-.46,.56-.95,.56h-7.04v3.05h2.24l1.65-2.03s1.89,1.44,3.04,2.49c-.1,.39-.46,.56-.94,.56h-5.99v3.29h3.89l1.75-2.28Zm-1.71,4.1l3.4,2.52c-.25,.28-.77,.56-1.47,.7v10.85c0,2.21-.46,3.47-4.06,3.85-.07-.98-.25-1.71-.66-2.17-.46-.49-1.16-.84-2.52-1.05v-.52s2.87,.21,3.5,.21c.56,0,.7-.21,.7-.66v-3.01h-8.33c-.38,2.84-1.61,5.71-5.67,7.67l-.35-.38c2.83-2.7,3.08-6.2,3.08-9.84v-7.84l3.57,1.33h7.35l1.47-1.65Zm-1.12,9.7v-3.01h-8.19v1.44c0,.49,0,1.05-.03,1.58h8.23Zm-8.19-7.04v3.01h8.19v-3.01h-8.19Z"/>
      <path class="cls-2" d="M171.65,92.66c1.16,3.4,.88,6.06,0,7.28-.63,.88-2.1,1.05-2.7,.18-.42-.84-.07-1.75,.7-2.38,.84-.91,1.65-3.19,1.4-5.08h.59Zm-2.56-4.13s.77-.14,1.02-.35c1.43-1.33,3.12-3.82,4.48-6.27-.91,.35-1.96,.77-3.05,1.16-.24,.46-.56,.73-.88,.88l-1.47-3.5s.67-.17,.91-.35c1.58-1.92,3.54-6.86,4.16-9.45l3.92,1.82c-.14,.35-.53,.63-1.23,.56-1.33,2.28-3.54,5.39-5.57,7.53,1.12,.04,2.49,.04,3.89,0,.59-1.23,1.12-2.35,1.43-3.22l3.64,1.93c-.17,.28-.56,.56-1.26,.45-1.72,2.7-4.8,6.41-7.67,8.93,1.47-.04,3.36-.17,5.32-.28-.25-1.26-.67-2.52-1.09-3.43l.42-.17c5.46,3.71,2.77,7.98,.84,5.95,.04-.42,0-.88-.03-1.33-1.58,.56-3.61,1.29-5.74,1.96-.28,.38-.63,.59-.95,.7l-1.12-3.5Zm5.01,3.68c4.52,4.03,1.5,8.26-.28,5.99,.39-1.92,.21-4.27-.21-5.85l.49-.14Zm2.73-.66c5.22,2.38,2.77,6.3,.84,4.55,0-1.44-.59-3.26-1.26-4.38l.42-.17Zm13.83,4.69c-2.13,1.05-5.25,2.52-9.63,4.31-.17,.46-.53,.73-.88,.84l-1.68-3.85c.98-.1,2.62-.32,4.62-.59v-6.16h-3.33l-.28-1.01h3.61v-5.5l3.85,.35c-.07,.46-.35,.77-1.19,.88v4.27h.59l1.4-1.86s1.58,1.29,2.52,2.31c-.11,.38-.42,.56-.91,.56h-3.61v5.74c1.54-.21,3.15-.46,4.8-.74l.1,.46Zm-11.48-21.63l-.28-1.01h8.02l1.5-2s1.75,1.4,2.8,2.45c-.07,.38-.42,.56-.91,.56h-5.71l2.59,1.26c-.14,.31-.53,.56-1.23,.49-1.12,1.71-3.01,3.92-4.69,5.5,1.58-.1,3.75-.25,5.92-.42-.39-1.33-.98-2.59-1.47-3.57l.42-.17c6.16,3.75,3.61,8.3,1.47,6.27,0-.56-.11-1.12-.21-1.72-1.54,.63-3.85,1.54-6.3,2.35-.21,.32-.46,.53-.7,.63l-1.44-3.43s.6-.1,.84-.28c1.29-1.33,2.83-4.76,3.5-6.9h-4.13Zm22.4,4.38c-.24,.35-.59,.46-1.33,.56-.63,5.08-1.64,10.12-4.06,14.49,1.61,2.66,3.5,4.9,5.71,6.62l-.14,.32c-1.23,0-2.31,.66-2.98,1.89-1.65-1.82-3.05-3.92-4.2-6.37-1.86,2.52-4.38,4.69-7.74,6.48l-.42-.46c3.22-2.28,5.57-5.08,7.21-8.3-.91-2.41-1.61-5.08-2.14-8.02-.52,.91-1.09,1.68-1.68,2.45l-.56-.28c.66-1.44,1.26-3.08,1.79-4.9-.24-1.75-.42-3.61-.56-5.6l.67-.28c.14,1.29,.32,2.52,.53,3.71,.88-3.36,1.54-7.04,1.89-10.68l4.1,.81c-.11,.46-.49,.8-1.26,.88-.42,2-.91,3.92-1.47,5.78h2.28l1.54-1.65,2.83,2.56Zm-6.96,.1c-.67,1.93-1.37,3.82-2.24,5.46,.66,2.52,1.43,4.83,2.45,6.97,1.5-3.85,2.27-8.09,2.66-12.43h-2.87Z"/>
      <path class="cls-2" d="M217.43,101.62c0,.42-1.43,1.33-2.62,1.33h-.59v-11.2c-1.65,1.01-3.78,2.34-6.06,3.67-.28,.45-.66,.74-.98,.88l-1.58-3.43c1.12-.59,1.29-.88,1.29-1.58v-17.29l4.31,.46c-.07,.49-.38,.8-1.19,.91v16.38c1.26-.35,2.73-.74,4.2-1.19v-20.06l4.45,.46c-.07,.49-.35,.84-1.23,.98v29.68Zm17.26-22.05c-.8,5.57-2.34,10.5-5.29,14.6,2.28,2.41,5.25,4.24,9,5.6l-.11,.35c-1.61,.35-2.62,1.26-3.04,2.83-3.29-1.61-5.78-3.85-7.7-6.55-2.49,2.66-5.78,4.94-10.05,6.62l-.28-.42c3.96-2.31,6.9-5.18,9-8.4-1.65-3.04-2.73-6.69-3.47-10.75-1.22,2.28-2.62,4.2-4.17,5.88l-.46-.28c2.28-4.73,4.2-11.76,4.94-18.62l5.04,1.08c-.14,.46-.52,.77-1.33,.84-.52,2.17-1.15,4.27-1.89,6.23h7.84l1.96-2.56s2.17,1.75,3.5,2.98c-.07,.38-.46,.56-.95,.56h-2.56Zm-10.15,0c-.38,.98-.77,1.93-1.22,2.77,.91,3.71,2.24,6.93,4.24,9.66,1.96-3.75,2.98-7.91,3.4-12.43h-6.41Z"/>
      <path class="cls-2" d="M273.33,99.8c.95,1.37,1.09,2,.7,2.45-.95,1.19-3.04,.21-4.34-.91-1.43-1.16-2.55-2.59-3.46-4.2-2.14,2.55-4.76,4.45-7.88,5.88l-.38-.42c1.75-1.22,3.36-2.66,4.8-4.34-.1,.04-.21,.04-.35,.04h-7.39l-.95,1.43-2.77-1.89c.21-.21,.63-.53,1.02-.77v-15.44l2.87,1.4h3.71l1.4-1.79s1.54,1.26,2.52,2.21c-.07-.88-.11-1.71-.14-2.62h-11.66v6.65c0,4.8-.25,11.24-4.8,15.54l-.49-.35c1.93-3.5,2.42-7.67,2.56-11.73h-1.89c-.21,3.68-.94,7.77-4.24,10.78l-.56-.52c2.1-3.19,2.34-6.97,2.41-10.26h-1.86l-.31-1.01h6.44c.04-.84,.04-1.68,.04-2.49v-.88h-2.24l-.95,1.47-2.77-1.89c.21-.25,.63-.53,1.02-.77v-6.62l3.85,.42c-.11,.42-.39,.7-1.44,.88v5.5h2.52v-7.04l3.18,1.29h11.13c-.04-.91-.07-1.82-.07-2.73l4.06,.45c-.04,.42-.35,.81-1.19,.95v1.33h4.03l1.65-2.13s1.86,1.47,2.94,2.59c-.07,.38-.42,.56-.91,.56h-7.67c.07,3.82,.42,7.53,1.37,10.71,1.08-2.52,1.92-5.39,2.38-8.58l4.1,1.33c-.14,.42-.56,.74-1.37,.7-.95,3.82-2.24,7-3.92,9.66,.77,1.58,1.79,2.94,3.08,3.99,.45,.42,.67,.42,.91-.17,.42-.77,.98-2.28,1.4-3.57l.38,.07-.49,4.83Zm-31.29-25.97h6.48l-.42-3.36,4.34,.31c-.03,.42-.31,.77-1.01,.98l.28,2.07h1.79l1.61-2.17s1.89,1.5,3.01,2.62c-.07,.38-.42,.56-.91,.56h-5.39l.32,2.24c-.46,.63-1.65,.91-3.12,.88l-.39-3.12h-6.34l-.25-1.01Zm14.46,13.79v-3.57h-1.75v3.57h1.75Zm3.19,1.02h-4.94v3.64h4.94v-3.64Zm-3.19,8.65v-3.99h-1.75v3.99h1.75Zm4.2-1.86s1.54,1.3,2.52,2.24c.7-.84,1.33-1.79,1.93-2.73-1.33-3.29-2-7.11-2.31-11.34-.14,.32-.42,.46-.88,.46h-3.26v3.57h.7l1.19-1.22,2.59,1.92c-.17,.25-.63,.49-1.15,.56v4.55c-.04,.21-1.23,.74-1.96,.74h-.38v-.88h-.98v3.99h.56l1.44-1.86Zm-1.93-21.6h4.52l.53-3.4,4.34,.77c-.1,.42-.42,.77-1.33,.84l-.31,1.79h2.73l1.65-2.17s1.89,1.5,3.01,2.62c-.11,.38-.46,.56-.91,.56h-6.65l-.14,.74c5.95,.46,3.96,4.76,1.65,3.33-.21-.98-.98-2.1-1.75-2.8l-.03,.14c-.6,.49-1.89,.67-3.22,.35l.28-1.75h-4.06l-.28-1.01Z"/>
      <path class="cls-2" d="M282.67,90.35c2.07-1.19,3.01-2.7,3.46-4.52-1.82-.8-2.97-1.68-2.97-3.18,0-1.26,.88-2.35,2.42-2.35s2.66,1.16,2.66,3.33c0,2.66-1.26,6.06-4.97,7.84l-.59-1.12Z"/>
      <path class="cls-2" d="M327.61,98.12c1.43,.45,1.85,.81,1.85,1.54,0,1.92-2.13,2.38-12.71,2.38h-7.14c-5.08,0-7.07-.63-7.07-4.27v-13.79l-5.15,1.33-.6-.91,5.74-1.47v-9.17l4.66,.49c-.04,.46-.42,.84-1.26,.98v6.79l6.34-1.68v-9.87l4.62,.46c-.1,.49-.38,.84-1.29,.98v7.56l6.02-1.54h-.17l2.07-2.14,3.29,3.5c-.28,.28-.67,.42-1.43,.49-.91,4.1-2.73,9.94-5.04,13.83l-.42-.25c.88-4.34,1.47-10.26,1.68-14.39l-5.99,1.58v13.9c0,.35-1.47,1.05-2.7,1.05h-.63v-14.07l-6.34,1.65v13.93c0,1.4,.74,1.86,3.54,1.86h7.53c3.01,0,5.36-.07,6.44-.17,.84-.07,1.23-.28,1.54-.74,.53-.8,1.19-2.49,2.14-5.74h.42l.07,5.92Z"/>
      <path class="cls-2" d="M361.98,70.64s2.49,1.86,3.99,3.15c-.11,.38-.49,.56-.98,.56h-4.45v24.12c0,2.42-.66,4.17-5.36,4.52-.07-1.05-.42-1.93-1.12-2.45-.77-.53-1.89-.91-4.27-1.26v-.49s5.36,.35,6.41,.35c.74,0,.98-.25,.98-.84v-23.94h-23.56l-.31-1.02h26.46l2.2-2.7Zm-11.06,22.96c-.04,.25-1.61,.91-2.7,.91h-.53v-2.8h-7.14v3.15c0,.32-1.29,1.05-2.66,1.05h-.49v-17.01l3.33,1.44h6.62l1.61-1.79,3.43,2.62c-.25,.28-.74,.59-1.47,.74v11.69Zm-3.22-2.91v-9.35h-7.14v9.35h7.14Z"/>
      <path class="cls-2" d="M386.86,91.58c-3.36,2-8.02,4.66-14.67,7.7-.14,.42-.46,.81-.84,.95l-1.92-3.96c1.16-.25,2.91-.7,4.97-1.3l-.35-22.61,4.62,.35c-.04,.49-.32,.88-1.26,1.01l.32,20.27c2.8-.88,5.95-1.86,9-2.87l.14,.45Zm13.23-18.62c-.07,.52-.49,.95-1.33,1.01-.32,7.46-.84,13.76-4.48,18.83,10.75,4.62,8.61,11.66,4.9,9.35-1.01-2.62-3.43-5.81-5.67-8.3-3.04,3.67-7.88,6.72-15.75,9.14l-.32-.6c16.38-7.35,17.4-16.38,17.68-29.93l4.97,.49Zm-18.38,3.43c10.82,3.57,8.26,10.71,4.73,8.23-.74-2.63-3.15-5.88-5.08-8.02l.35-.21Z"/>
      <path class="cls-2" d="M410.94,77.15c.32,2.35-.38,4.03-1.37,4.83-.95,.77-2.52,.67-3.01-.49-.42-1.05,.17-2,1.08-2.49,1.12-.81,2.21-2.8,1.92-4.83h.56c.28,.7,.49,1.33,.63,1.96h12.04c-.35-.07-.74-.28-1.16-.6-.1-1.75-1.22-3.78-2.52-4.94l.28-.25c7.21,.91,6.55,5.29,4.27,5.78h9.59l1.93-1.93,3.36,3.26c-.28,.28-.67,.35-1.33,.38-1.08,1.22-2.98,2.83-4.48,3.78l-.32-.21c.32-1.16,.77-2.87,1.05-4.27h-22.54Zm23.66,6.37s2.31,1.68,3.71,2.91c-.11,.38-.46,.56-.95,.56h-7.18c-.84,3.43-2.28,6.41-4.79,8.86,13.3,3.78,9,8.44,5.74,6.69-2.03-1.47-4.83-3.08-8.4-4.59-3.46,2.28-8.4,3.96-15.44,4.97l-.21-.46c5.88-1.44,10.08-3.29,13.06-5.6-2.77-1.08-5.88-2.1-9.24-3.01,.98-1.65,2.28-4.24,3.54-6.86h-7.25l-.25-1.01h7.95c1.4-2.98,2.63-5.95,3.15-7.63l4.83,1.54c-.17,.38-.46,.7-1.5,.63-.67,1.4-1.61,3.36-2.7,5.46h7.91c.28-1.37,.42-2.77,.53-4.27l5.11,1.05c-.17,.56-.63,.8-1.37,.8-.1,.81-.25,1.61-.42,2.42h2.14l2.03-2.45Zm-16.45,3.46c-1.16,2.35-2.49,4.73-3.68,6.65,2.98,.46,5.5,.88,7.7,1.37,2.2-2.31,3.5-5.04,4.2-8.02h-8.23Z"/>
      <path class="cls-2" d="M447.27,81.04c2.14,6.27,.88,10.64-.63,12.81-.98,1.54-2.7,1.92-3.64,1.01-.74-.77-.49-1.92,.28-2.8,1.79-1.75,3.5-6.23,3.43-10.99l.56-.04Zm8.68-3.82c-.04,.46-.39,.84-1.23,.95v18.69c0,.91,.38,1.19,2.14,1.19h4.55c1.86,0,3.33-.04,3.99-.07,.56-.07,.84-.21,1.05-.63,.42-.74,1.01-2.91,1.68-5.67h.42l.11,5.92c1.12,.42,1.44,.8,1.44,1.47,0,1.65-1.68,2.31-8.93,2.31h-4.72c-3.85,0-5.04-.7-5.04-3.57v-21.04l4.55,.46Zm5.46,3.33c-.67-3.15-3.12-6.93-5.21-9.49l.38-.25c11.1,4.62,8.47,12.46,4.83,9.73Zm10.5,13.69c-.38-3.29-1.5-8.61-4.45-12.25l.35-.28c11.27,7.35,7,16.1,4.09,12.53Z"/>
      <path class="cls-2" d="M494.42,77.82c-.24,.28-.77,.56-1.47,.74v21.11c-.04,.28-1.58,.98-2.66,.98h-.49v-2.7h-6.2v2.7c0,.35-1.19,1.12-2.52,1.12h-.53v-26.25l3.22,1.47h.63c.32-1.86,.74-4.55,.98-6.48l4.83,1.16c-.17,.56-.63,.8-1.4,.8-.84,1.33-2.06,3.12-3.04,4.52h3.68l1.61-1.82,3.36,2.66Zm-10.82,.17v8.72h6.2v-8.72h-6.2Zm6.2,18.94v-9.21h-6.2v9.21h6.2Zm21.7-19.11c-.28,.32-.7,.53-1.5,.63-.25,13.58-.8,20.62-2.59,22.65-1.12,1.29-2.62,1.82-4.66,1.82,0-1.09-.17-1.92-.73-2.42-.6-.56-2-1.05-3.61-1.33l.03-.56c1.65,.17,4.1,.35,4.94,.35,.7,0,.98-.11,1.37-.46,1.3-1.26,1.72-8.61,1.96-20.58h-7.35c-1.61,2.91-3.5,5.46-5.6,7.35l-.49-.32c2.06-3.54,4.09-9.1,5.15-14.46l4.66,1.37c-.14,.42-.56,.73-1.33,.73-.53,1.51-1.16,2.94-1.86,4.31h6.44l1.89-2,3.29,2.91Zm-14.98,6.27c9.45,3.33,6.37,10.12,3.19,7.46-.28-2.42-1.96-5.36-3.5-7.25l.32-.21Z"/>
      <path class="cls-2" d="M531.17,84.61c-.25,.28-.66,.49-1.44,.59-.28,10.61-1.01,14.77-2.59,16.28-1.02,.95-2.35,1.37-3.82,1.37,0-.98-.07-1.75-.49-2.17-.42-.49-1.3-.84-2.31-1.08v-.53c.98,.07,2.56,.21,3.22,.21,.53,0,.8-.1,1.12-.38,.98-.91,1.54-5.18,1.79-14.14h-4.2c-.53,7.04-2.03,13.37-6.9,18.24l-.39-.32c3.99-6.93,4.45-15.33,4.27-23.98h-3.82l-.28-1.01h11.9l1.89-2.45s2.1,1.71,3.36,2.91c-.11,.38-.42,.56-.91,.56h-8.86c-.04,1.72-.11,3.4-.21,5.04h3.82l1.72-1.79,3.12,2.66Zm-10.54-13.9c8.33,2.34,5.5,8.3,2.49,5.99-.32-1.89-1.68-4.27-2.84-5.78l.35-.21Zm24.78,8.75c-.77,5.39-2.24,10.22-5,14.25,1.96,2.62,4.58,4.73,7.84,6.3l-.11,.32c-1.54,.31-2.55,1.15-2.98,2.73-2.84-1.89-4.9-4.27-6.51-7.14-2.52,2.87-5.92,5.25-10.43,7.07l-.28-.42c4.27-2.56,7.32-5.71,9.45-9.28-1.29-3.22-2.13-6.86-2.73-10.85-1.16,2.03-2.45,3.82-3.96,5.25l-.45-.28c2.17-4.27,3.99-10.64,4.62-16.94l4.97,1.01c-.1,.45-.52,.81-1.29,.84-.56,2.21-1.23,4.24-1.96,6.12h6.12l1.93-2.52s2.24,1.71,3.54,2.97c-.07,.38-.45,.56-.95,.56h-1.82Zm-9.24,0c-.28,.67-.6,1.33-.91,1.92,.7,3.61,1.82,6.83,3.36,9.66,1.71-3.54,2.62-7.42,3.04-11.59h-5.5Z"/>
      <path class="cls-2" d="M562.14,85.7c-.14,.35-.46,.56-1.08,.67v15.58c-.07,.25-1.47,.98-2.73,.98h-.63v-14.28c-1.75,1.58-3.64,2.94-5.85,4.13l-.35-.38c4.55-3.64,7.91-8.75,10.19-13.93h-8.89l-.32-1.01h9.63c1.02-2.41,1.75-4.8,2.28-7.07l5.04,1.37c-.14,.42-.46,.66-1.37,.7-.56,1.65-1.26,3.29-2.1,5.01h11.8l2.17-2.66s2.38,1.82,3.85,3.12c-.07,.38-.45,.56-.95,.56h-17.36c-1.22,2.31-2.73,4.66-4.55,6.79l1.22,.46Zm18.38,11.62s2.28,1.75,3.75,3.01c-.1,.38-.46,.56-.98,.56h-21.21l-.28-1.01h8.51v-10.68h-6.69l-.28-1.01h6.97v-8.19l4.48,.46c-.04,.46-.32,.77-1.12,.91v6.83h2.8l1.96-2.45s2.21,1.68,3.5,2.91c-.07,.38-.46,.56-.91,.56h-7.35v10.68h4.76l2.1-2.56Z"/>
      <path class="cls-2" d="M158.17,128.51v17.64c0,.35-1.23,.98-2.31,.98h-.59v-15.3h-.07c-1.44,3.22-3.25,6.97-4.97,9.63l-.56-.21c.84-2.97,2.03-7.66,2.94-11.48l2.66,.94v-2.21h-5.08l-.28-1.01h5.36v-12.88l4.2,.46c-.1,.49-.38,.88-1.29,.98v11.45h.91l1.64-2.14s1.79,1.51,2.91,2.59c-.07,.38-.42,.56-.91,.56h-4.55Zm-7.39-10.85c6.41,5,3.75,10.29,1.4,7.84,0-2.45-1.02-5.53-1.89-7.67l.49-.17Zm8.19,12.71c6.93,5.04,4.17,10.64,1.68,8.12-.07-2.52-1.16-5.71-2.14-7.95l.46-.17Zm20.41-5.46s2.03,1.58,3.29,2.73c-.1,.38-.46,.56-.94,.56h-17.89l-.28-1.02h7.04v-3.29h-4.79l-.28-1.02h5.08v-3.04h-6.2l-.25-.88c-.21,.21-.56,.35-1.08,.31-1.16,2.17-2.59,4.8-3.89,6.62l-.59-.28c.56-2.1,1.37-5.46,2-8.3l3.78,1.29c-.04,.07-.07,.14-.1,.21h6.33v-4.2l4.31,.42c-.07,.46-.35,.77-1.16,.91v2.87h2.94l1.79-2.24s2.03,1.58,3.26,2.7c-.11,.39-.46,.56-.95,.56h-7.04v3.04h2.24l1.65-2.03s1.89,1.44,3.04,2.49c-.1,.39-.46,.56-.94,.56h-5.99v3.29h3.89l1.75-2.28Zm-1.71,4.1l3.4,2.52c-.25,.28-.77,.56-1.47,.7v10.85c0,2.21-.46,3.47-4.06,3.85-.07-.98-.25-1.71-.66-2.17-.46-.49-1.16-.84-2.52-1.05v-.52s2.87,.21,3.5,.21c.56,0,.7-.21,.7-.66v-3.01h-8.33c-.38,2.84-1.61,5.71-5.67,7.67l-.35-.38c2.83-2.7,3.08-6.2,3.08-9.84v-7.84l3.57,1.33h7.35l1.47-1.65Zm-1.12,9.7v-3.01h-8.19v1.44c0,.49,0,1.05-.03,1.58h8.23Zm-8.19-7.04v3.01h8.19v-3.01h-8.19Z"/>
      <path class="cls-2" d="M198.7,130.58l3.43,2.62c-.21,.28-.74,.56-1.44,.7v11.41c-.03,.28-1.61,1.02-2.73,1.02h-.49v-2.73h-6.09v2.31c0,.32-1.37,1.02-2.73,1.02h-.49v-15.96l3.4,1.37h5.57l1.58-1.75Zm-1.22,12.01v-9.24h-6.09v9.24h6.09Zm-.42-13.58c0,.28-1.47,1.05-2.87,1.05h-.49v-14.49l3.54,1.44h10.64l1.68-1.79,3.46,2.66c-.21,.28-.7,.59-1.43,.73v10.22c-.04,.25-1.65,.98-2.8,.98h-.56v-2.73h-11.17v1.92Zm0-10.99v8.09h11.17v-8.09h-11.17Zm21.6,15.19c-.21,.28-.73,.56-1.43,.74v11.69c-.04,.25-1.68,.91-2.77,.91h-.53v-2.94h-6.37v2.38c0,.32-1.33,1.02-2.7,1.02h-.49v-16.03l3.36,1.37h5.85l1.65-1.75,3.43,2.62Zm-4.73,9.38v-9.24h-6.37v9.24h6.37Z"/>
      <path class="cls-2" d="M251.24,118.78s2.49,1.82,3.96,3.08c-.07,.38-.46,.56-.95,.56h-13.3c-1.08,1.47-2.38,3.08-3.54,4.2h8.37l1.71-1.89,3.54,2.73c-.25,.28-.73,.59-1.47,.74v17.75c-.04,.25-1.68,.98-2.87,.98h-.56v-2.35h-14.32v1.37c0,.39-1.4,1.16-2.87,1.16h-.53v-22.02l3.64,1.54h4.1c.14-1.19,.25-2.84,.35-4.2h-13.44l-.31-.98h18.69c1.02-2,2.1-4.76,2.66-6.72l4.87,1.26c-.11,.38-.53,.7-1.33,.67-1.22,1.44-3.22,3.33-5.08,4.8h6.48l2.21-2.66Zm-21.04-3.96c8.79,2,5.88,8.3,2.73,5.99-.35-2-1.79-4.27-3.05-5.74l.31-.25Zm1.61,12.78v4.52h14.32v-4.52h-14.32Zm0,10.15h14.32v-4.62h-14.32v4.62Zm14.32,5.81v-4.8h-14.32v4.8h14.32Z"/>
      <path class="cls-2" d="M270.84,124.91l2.98,2.28c-.17,.21-.59,.46-1.16,.56v7.98c-.04,.28-1.5,.91-2.49,.91h-.49v-1.02h-5.36v6.62c1.47-.49,3.15-1.12,4.94-1.79-.49-1.16-1.05-2.24-1.61-3.08l.38-.18c8.02,3.71,5.04,9.56,2.28,7.04-.07-.95-.35-1.89-.7-2.91-1.75,1.19-4.17,2.87-6.79,4.55-.25,.52-.63,.84-.95,1.01l-1.71-3.36c1.01-.59,1.19-.84,1.19-1.54v-16.84c-.74,.74-1.51,1.4-2.24,2l-.39-.31c2.35-3.29,4.45-8.96,5.18-12.57l5.01,1.09c-.11,.45-.45,.7-1.37,.8,9.91,3.12,6.06,8.51,3.57,6.37-.53-1.61-1.89-3.96-3.82-5.85-.88,1.89-2.21,4.06-3.82,6.06h3.57l1.54-2s1.75,1.4,2.84,2.45c-.07,.38-.42,.56-.91,.56h-7.21l-.17-.59c-.53,.7-1.16,1.37-1.79,1.96l3.12,1.3h4.9l1.47-1.51Zm-6.51,5.46h5.36v-3.01h-5.36v3.01Zm5.36,4.24v-3.22h-5.36v3.22h5.36Zm14.39-13.06v4.83h2.91l1.44-1.61,3.25,2.41c-.21,.28-.73,.56-1.37,.7v11.48c0,2.2-.38,3.43-3.5,3.75,0-.91-.1-1.68-.38-2.17-.28-.45-.74-.77-1.68-.95v-.56s1.58,.14,2.07,.14c.42,0,.53-.17,.53-.56v-11.62h-3.26v18.8c0,.25-1.01,.98-2.42,.98h-.49v-19.78h-3.04v15.09c0,.21-.91,.91-2.31,.91h-.49v-17.75l.32-.46,2.91,1.19h2.62v-4.83h-2.94c-1.26,2.1-2.73,3.82-4.45,5.15l-.46-.35c1.75-2.84,3.29-7.21,3.92-11.66l4.62,1.33c-.17,.42-.59,.74-1.37,.74-.49,1.33-1.05,2.59-1.68,3.78h7.39l2.07-2.7s2.27,1.82,3.67,3.15c-.1,.38-.46,.56-.98,.56h-6.9Z"/>
      <path class="cls-2" d="M319.42,139.01c6.16,.63,7.14,2.59,6.48,3.64,.7,.56,1.68,1.4,2.42,2.1-.07,.38-.46,.56-.91,.56h-17.61l-1.23,1.65-3.57-2.03c.32-.32,.91-.74,1.47-1.02v-19.85c-.14,.07-.35,.11-.56,.11h-3.29v2.48c5.92,3.19,3.46,7.49,1.4,5.6-.07-1.43-.74-3.18-1.4-4.62v18.45c0,.35-1.23,1.08-2.28,1.08h-.59v-14.53c-1.05,2.31-2.35,4.38-3.89,6.3l-.49-.42c2.1-4.03,3.33-9.24,3.96-14.35h-3.43l-.28-1.02h4.13v-8.61l4.17,.46c-.1,.53-.38,.84-1.29,.98v7.18h.04l1.5-2.13s1.29,1.19,2.31,2.24v-7.56l3.5,1.44h12.43l1.75-2.31s2.03,1.58,3.22,2.73c-.11,.38-.46,.56-.91,.56h-16.91v26.18h13.86l.67-.91c-.31-.07-.67-.25-.95-.56-.63-1.05-1.96-2.34-3.92-3.33l.21-.49Zm5.88-14.07s-.11,.14-.25,.21c.59,.46,1.71,1.4,2.49,2.14-.07,.38-.42,.56-.91,.56h-16.35l-.28-1.01h7.14v-1.96h-2.83v.56c0,.21-1.16,.8-2.21,.8h-.39v-6.62l2.77,1.16h2.66v-2.45l3.85,.38c-.07,.46-.35,.77-1.16,.88v1.19h2.52l1.29-1.3,2.73,2.03c-.17,.21-.59,.42-1.08,.53v2.91Zm-15.23,18.06c2.17-1.05,4.55-2.97,5.71-4.3l3.4,2.24c-.32,.35-.84,.42-1.71,.21-1.68,.91-4.52,1.89-7.18,2.34l-.21-.49Zm12.46-3.6v-1.09h-8.16v.77c0,.25-1.26,.84-2.38,.84h-.42v-11.8l2.98,1.22h7.66l1.4-1.43,2.87,2.17c-.17,.25-.56,.49-1.12,.56v7.95c-.03,.21-1.43,.81-2.38,.81h-.46Zm-5.39-15.54v-2.07h-2.83v2.07h2.83Zm-2.77,6.51v1.65h8.16v-1.65h-8.16Zm8.16,2.66h-8.16v1.65h8.16v-1.65Zm0,4.27v-1.61h-8.16v1.61h8.16Zm-2.7-15.51v2.07h2.8v-2.07h-2.8Zm3.26,5.04l1.05-1.33c-.35,.1-.74,.17-1.05,.17h-.46v-.81h-2.8v1.96h3.26Z"/>
      <path class="cls-2" d="M361.46,142.06s2.24,1.79,3.57,3.08c-.11,.38-.45,.56-.95,.56h-20.51l-.28-1.01h9.17v-5.99h-6.76l-.28-1.02h7.04v-5.88h-3.54v1.61c0,.35-1.26,1.05-2.52,1.05h-.49v-5.29c-.28,.14-.66,.17-1.12,.04-.84,.84-1.86,1.68-2.94,2.35,5.32,2.55,3.12,6.62,.7,4.79-.38-1.58-1.61-3.36-2.73-4.76v14.56c0,.25-1.01,1.02-2.52,1.02h-.53v-14c-1.44,1.37-2.98,2.66-4.59,3.64l-.38-.38c3.61-3.4,7-8.79,8.51-13.09h-7.84l-.31-1.01h8.05l1.85-1.79,3.05,2.97c-.32,.28-.74,.35-1.54,.42-.88,1.89-2.17,3.92-3.75,5.85v.98c.39,.11,.77,.25,1.12,.38,.77-1.12,1.65-2.73,2.28-4.3l2.7,1.89v-12.57l3.22,1.4h9.56l1.58-1.75,3.33,2.59c-.21,.28-.77,.56-1.47,.7v13.83c-.04,.18-1.54,.84-2.56,.84h-.52v-1.96h-3.57v5.88h2.73l1.96-2.52s2.13,1.72,3.43,2.98c-.07,.38-.46,.56-.95,.56h-7.17v5.99h4.03l1.96-2.62Zm-26.32-27.13c8.47,1.12,5.92,7.32,2.73,5.25-.42-1.75-1.82-3.82-3.01-5.04l.28-.21Zm13.79,3.61v5.71h3.54v-5.71h-3.54Zm3.54,12.25v-5.53h-3.54v5.53h3.54Zm3.01-12.25v5.71h3.57v-5.71h-3.57Zm3.57,12.25v-5.53h-3.57v5.53h3.57Z"/>
      <path class="cls-2" d="M372.97,134.57c2.07-1.19,3.01-2.7,3.46-4.52-1.82-.8-2.97-1.68-2.97-3.18,0-1.26,.88-2.35,2.42-2.35s2.66,1.16,2.66,3.33c0,2.66-1.26,6.06-4.97,7.84l-.59-1.12Z"/>
      <path class="cls-2" d="M394.32,129.42c-1.92,1.82-4.34,3.33-7.07,4.52l-.35-.56c2.87-1.85,5.18-4.45,6.65-7.18h-2v.32c0,.25-1.22,.77-2.34,.77h-.38v-7.53l2.91,1.19h2.59v-2.14h-6.44l-.28-1.01h6.72v-3.22l4.17,.39c-.07,.49-.35,.8-1.19,.91v1.92h2.8l1.68-2.07s1.89,1.44,3.08,2.52c-.11,.38-.42,.56-.91,.56h-6.65v2.14h2.62l1.33-1.33,2.77,2.07c-.18,.17-.56,.42-1.05,.49v3.99c-.03,.28-1.37,.84-2.31,.84h-.46v-.81h-2.91v1.12l.07-.07c8.16,.38,6.65,5.88,3.75,4.48-.66-1.4-2.38-3.05-3.82-3.99v5.36c0,.31-1.3,.91-2.38,.91h-.59v-4.59Zm21.77,13.37s2.17,1.68,3.54,2.91c-.11,.39-.45,.56-.98,.56h-30.91l-.31-1.02h6.51v-7.14l4.38,.39c-.07,.45-.31,.77-1.16,.91v5.84h4.73v-9.14h-11.94l-.28-1.01h22.19l1.79-2.28s2.1,1.58,3.36,2.73c-.11,.38-.45,.56-.95,.56h-10.96v3.75h5.29l1.89-2.38s2.1,1.65,3.4,2.84c-.11,.38-.46,.56-.95,.56h-9.63v4.38h9.03l1.96-2.45Zm-24.54-17.61h2.77v-3.25h-2.77v3.25Zm5.74-3.25v3.25h2.91v-3.25h-2.91Zm19.67-1.02c-.81,2.62-2.1,4.87-3.85,6.76,1.89,1.3,4.24,2.28,7.11,2.94l-.07,.38c-1.26,.42-1.93,1.3-2.14,2.84-2.91-1.09-5.04-2.62-6.72-4.51-2.31,1.85-5.25,3.25-8.89,4.27l-.21-.46c3.36-1.47,5.95-3.29,7.84-5.5-1.05-1.58-1.86-3.33-2.52-5.25-.98,1.26-2.1,2.31-3.29,3.18l-.49-.35c1.75-2.56,3.29-6.44,4.03-10.47l4.31,1.26c-.14,.42-.56,.74-1.33,.74-.46,1.12-.98,2.17-1.54,3.15h5.6l1.85-2.42s2,1.65,3.26,2.87c-.11,.38-.46,.56-.95,.56h-2Zm-8.4,0c-.17,.28-.35,.53-.56,.8,.8,1.65,1.86,3.12,3.15,4.38,1.05-1.58,1.79-3.29,2.24-5.18h-4.83Z"/>
      <path class="cls-2" d="M429.46,129.56c-1.19,2.21-3.01,3.96-5.57,5.25l-.24-.46c3.08-2.56,4.27-5.85,4.59-9.8h-3.08l-.32-1.02h8.12l1.4-1.4,2.73,2.21c-.25,.25-.63,.42-1.3,.52-.14,4.24-.59,5.99-1.64,6.72-.7,.49-1.61,.74-2.8,.74,.04-.66-.04-1.33-.38-1.68-.32-.35-.84-.56-1.5-.7v-.39Zm16.7,2.91l4.41,.42c-.07,.42-.31,.73-1.05,.84v12.6c0,.28-1.5,.91-2.77,.91h-.59v-5.85h-13.16c-1.02,2.45-3.4,4.62-8.4,6.02l-.28-.42c5.15-2.45,6.12-6.06,6.12-9.52v-5.01l4.48,.45c-.1,.46-.35,.77-1.16,.88v2h12.39v-3.33Zm-21.63-13.48h15.47c-.14-.07-.28-.14-.42-.21-.42-1.54-1.85-3.26-3.15-4.2l.28-.25c6.48,.18,6.55,3.85,4.8,4.66h7.88l2.21-2.59s2.45,1.75,3.99,3.05c-.11,.38-.46,.56-.98,.56h-29.75l-.31-1.01Zm6.62,5.57c-.32,1.82-.77,3.43-1.5,4.83,.66,.04,1.58,.11,2.07,.11,.38,0,.63-.07,.8-.21,.35-.35,.63-1.72,.77-4.73h-2.14Zm15.02,15.82v-3.57h-12.39v.7c-.03,.98-.14,1.92-.42,2.87h12.81Zm-10.33-20.02c5.81,1.61,3.29,5.6,1.23,3.82-.07-1.19-.88-2.73-1.61-3.61l.38-.21Zm9.94,1.15c-.07,.28-.53,.63-1.23,.53-.73,.8-2,2.07-3.29,3.19l1.01,.1c-.07,.39-.31,.67-1.01,.81v7.39c0,.25-1.26,.77-2.31,.77h-.56v-9.35l2,.21c.74-1.65,1.54-3.85,1.92-5.08l3.47,1.43Zm8.82,2.24c-.31,.32-.91,.28-1.71-.03-.74,.21-1.68,.42-2.7,.63,1.12,3.12,3.5,5.21,6.44,6.41l-.03,.38c-1.12,.25-1.96,1.16-2.31,2.59-2.77-2.14-4.17-5.08-4.83-9.28-.84,.18-1.75,.28-2.62,.39v4.72c1.05-.35,2.24-.73,3.4-1.15l.14,.46c-.91,.73-2.91,2.27-4.9,3.71-.25,.38-.56,.63-.84,.77l-1.33-2.8c.88-.46,.98-.67,.98-1.19v-5.95l2.84,.32c1.89-.77,3.75-1.75,4.87-2.52l2.62,2.55Z"/>
      <path class="cls-2" d="M489.17,141.67s2.38,2,3.78,3.36c-.11,.39-.45,.56-.98,.56h-31.64l-.31-1.02h7.21v-28.32l3.67,1.47h10.75l1.61-2.03,3.82,2.77c-.25,.38-.7,.56-1.54,.7v25.41h1.5l2.14-2.91Zm-18.59-22.96v7.74h11.45v-7.74h-11.45Zm11.45,8.72h-11.45v7.95h11.45v-7.95Zm-11.45,17.15h11.45v-8.19h-11.45v8.19Z"/>
      <path class="cls-2" d="M514.12,126.17c1.22,6.54,5.15,13.27,15.23,17.54l-.07,.39c-1.75,.31-2.83,1.26-3.22,3.15-8.82-5.11-11.55-13.62-12.53-20.58-1.01,8.3-4.38,15.47-16.77,20.58l-.38-.56c9.98-5.71,12.85-12.6,13.65-20.51h-12.99l-.32-1.02h13.37c.28-3.29,.25-6.76,.25-10.36l4.97,.49c-.1,.53-.42,.88-1.26,1.02-.07,3.04-.11,6.02-.35,8.86h8.86l2.28-2.87s2.59,1.96,4.13,3.33c-.1,.38-.49,.56-.98,.56h-13.86Z"/>
      <path class="cls-2" d="M542.93,119.94c-2.59,3.78-5.92,6.44-9.49,8.19l-.38-.35c3.29-2.87,6.54-7.7,8.3-13.2l4.66,2.07c-.17,.38-.6,.66-1.4,.53-.32,.59-.66,1.19-1.01,1.75h15.09l2.07-2.52s2.2,1.65,3.71,2.98c-.1,.38-.46,.56-.98,.56h-20.55Zm21.88,23.8c.88,1.29,1.05,2.17,.56,2.8-.98,1.16-2.8,.52-4.13-.56-2.66-1.82-4.06-5.36-4.76-9.59-.14,.25-.46,.38-.88,.38h-8.61v9.42c0,.35-1.4,.98-2.52,.98h-.63v-10.4h-9.42l-.28-1.01h9.7v-7.46l4.31,.46c-.07,.42-.35,.74-1.16,.88v6.13h4.59l1.75-2.14s1.89,1.4,3.12,2.52c-.42-2.66-.59-5.6-.67-8.54h-18.73l-.32-1.01h18.66l1.75-1.89,3.54,2.77c-.25,.25-.73,.49-1.43,.56-.11,5.36,.63,12.53,3.64,14.49,.42,.28,.6,.21,.77-.18,.38-.98,.8-2.13,1.12-3.36l.38,.07-.35,4.69Zm-30.17,1.72c1.68-1.65,3.57-4.45,4.9-7.35l3.88,2c-.21,.35-.7,.63-1.43,.46-1.96,2.38-4.55,4.24-7,5.29l-.35-.38Zm2.62-16.35c7.63,2.27,4.73,7.6,2.07,5.36-.25-1.72-1.44-3.82-2.42-5.15l.35-.21Zm19.18-6.41l1.89-2.34s2.21,1.61,3.54,2.8c-.11,.38-.42,.56-.91,.56h-19.53l-.28-1.02h15.3Zm-8.26,16.07c9.59,1.51,7.67,8.23,4.31,6.27-.7-2.1-2.87-4.55-4.62-5.99l.32-.28Zm6.51-8.12c-.17,.38-.59,.67-1.33,.52-1.54,1.44-3.33,2.94-4.76,3.96l-.49-.35c.77-1.43,1.79-3.75,2.66-5.92l3.92,1.79Z"/>
      <path class="cls-2" d="M571.84,130.93c0-2.73,2.24-4.94,4.97-4.94s4.94,2.21,4.94,4.94-2.21,4.97-4.94,4.97-4.97-2.24-4.97-4.97Zm1.26,0c0,2.03,1.65,3.71,3.71,3.71s3.67-1.68,3.67-3.71-1.64-3.67-3.67-3.67-3.71,1.64-3.71,3.67Z"/>
    </g>
  </g>
</svg>