<?xml version="1.0" encoding="UTF-8"?>
<svg id="_圖層_2" data-name="圖層 2" xmlns="http://www.w3.org/2000/svg" viewBox="0 0 464.13 110.28">
  <defs>
    <style>
      .cls-1 {
        fill: #b37a5c;
      }
    </style>
  </defs>
  <g id="_圖層_1-2" data-name="圖層 1">
    <g>
      <path class="cls-1" d="M73.42,7.91V2.84h-5.21l-.25-.81h5.15l1.26-1.37,2.72,2.07c-.2,.22-.64,.48-1.23,.59v6.47c-.06,.17-1.26,.62-2.04,.62h-.39v-1.71h-2.52c-.08,1.46-.25,3.39-.42,4.84h2.86l1.32-1.32,2.44,2.04c-.2,.22-.56,.36-1.15,.45-.28,6.33-1.01,9.41-2.3,10.5-.78,.67-1.79,.95-3.02,.92,0-.67-.08-1.26-.45-1.6-.36-.36-1.12-.67-2.02-.81v-.45c.9,.08,2.38,.2,2.91,.2,.45,0,.7-.08,.95-.28,.76-.64,1.29-3.53,1.6-8.85h-3.05l-.9,1.06-2.32-1.54c.25-.2,.59-.42,.95-.59,.25-1.85,.48-4.87,.5-6.55l2.74,1.18h1.88Zm7.06,1.29h8.32l1.15-1.37,2.44,1.85c-.17,.22-.45,.42-1.04,.5v7.5c0,.11-.84,.59-2.04,.59h-.42v-1.09h-3.16v3.14h3.64l1.48-1.85s1.65,1.29,2.69,2.21c-.06,.31-.36,.45-.76,.45h-7.06v4.4c0,.17-.78,.67-2.02,.67h-.42v-5.07h-7l-.22-.81h7.22v-3.14h-3.11v.7c0,.2-.73,.64-1.96,.64h-.42V8.1l2.69,1.09Zm-.81-7.2h2.18l1.01-1.2,2.18,1.68c-.17,.2-.45,.36-.98,.45V7.29c0,.11-.76,.56-1.76,.56h-.36v-1.06h-2.58v.76c0,.14-.67,.56-1.71,.56h-.36V.99l2.38,1.01Zm2.27,3.98V2.81h-2.58v3.16h2.58Zm1.34,4.03h-3.11v2.77h3.11v-2.77Zm0,3.58h-3.11v2.77h3.11v-2.77Zm4.4-11.62h2.1l1.06-1.21,2.18,1.68c-.17,.2-.42,.36-.98,.45V7.26c0,.11-.76,.56-1.82,.56h-.36v-1.01h-2.49v.67c0,.17-.7,.59-1.76,.59h-.34V.96l2.41,1.01Zm1.2,10.81v-2.77h-3.16v2.77h3.16Zm0,3.58v-2.77h-3.16v2.77h3.16Zm.98-10.36V2.78h-2.49v3.22h2.49Z"/>
      <path class="cls-1" d="M99.85,5.86c.98,3.08,.56,5.46-.22,6.58-.53,.76-1.68,.95-2.16,.28-.42-.59-.14-1.32,.45-1.85,.76-.87,1.57-3.08,1.46-5.04l.48,.03Zm5.1-5.24c-.08,.39-.28,.67-1.04,.78V25.44c0,.28-1.06,.84-2.04,.84h-.53V.26l3.61,.36Zm.42,8.6c0-1.34-.59-3.02-1.2-4.09l.36-.14c4.76,2.35,2.52,5.91,.84,4.23Zm6.94-6.19c-.11,.36-.42,.62-1.06,.62-.34,1.4-.76,2.74-1.26,4h3.28V.49l3.56,.34c-.06,.39-.25,.64-.9,.73V7.66h3.02l1.51-2.02s1.74,1.37,2.77,2.38c-.08,.31-.36,.45-.76,.45h-6.55v6.83h2.44l1.48-2.07s1.71,1.43,2.69,2.41c-.06,.31-.36,.45-.73,.45h-5.88v8.4h3.61l1.6-2.1s1.79,1.46,2.86,2.46c-.06,.31-.36,.45-.76,.45h-17.28l-.22-.81h7.53v-8.4h-5.26l-.22-.78h5.49v-6.83h-3.61c-.9,2.16-2.04,4.03-3.39,5.46l-.42-.22c1.37-2.97,2.49-7.34,2.91-11.56l3.56,.9Z"/>
      <path class="cls-1" d="M142.66,.71c-.08,.42-.34,.7-1.01,.81-.06,2.44-.08,4.82-.31,7.08h7.08l1.82-2.29s2.04,1.57,3.3,2.66c-.06,.31-.36,.45-.78,.45h-11.09c1.01,5.24,4.14,10.61,12.18,14.03l-.06,.31c-1.4,.22-2.3,.98-2.58,2.55-7.03-4.09-9.21-10.87-10-16.46-.84,6.61-3.53,12.35-13.44,16.44l-.31-.45c8.01-4.56,10.28-10.08,10.92-16.41h-10.39l-.25-.81h10.7c.22-2.63,.2-5.38,.2-8.26l4,.36Z"/>
      <path class="cls-1" d="M168.78,7.29c-.08,.31-.34,.45-.73,.45h-3.84v2.24c5.8,2.18,3.64,6.13,1.62,4.42-.17-1.2-.9-2.63-1.62-3.72v14.73c0,.31-1.06,.9-1.99,.9h-.5V14.26c-1.04,2.07-2.38,3.95-4,5.6l-.36-.34c2.02-3.25,3.3-7.59,3.98-11.79h-3.5l-.22-.78h4.12V.15l3.5,.36c-.06,.42-.28,.67-1.01,.79V6.96h.81l1.34-1.9s1.51,1.32,2.41,2.24Zm5.4-5.26c-.28,.62-.56,1.2-.87,1.79h5.04l1.54-1.43,2.46,2.24c-.22,.28-.5,.34-1.2,.39-1.01,2.07-2.38,3.98-4.09,5.66,1.93,1.12,4.26,1.99,6.97,2.58l-.06,.28c-1.06,.36-1.68,1.12-1.88,2.35-.59-.22-1.18-.45-1.71-.67l1.57,1.2c-.2,.22-.48,.39-1.06,.5v8.43c0,.14-.87,.62-2.16,.62h-.45v-1.68h-6.24v1.29c0,.17-.76,.64-2.07,.64h-.42V15.5c-1.09,.45-2.24,.84-3.47,1.18l-.22-.42c3.3-1.37,6.13-3.28,8.37-5.54-1.06-1.23-1.93-2.6-2.66-4.09-1.2,1.65-2.6,3.02-4.09,4.03l-.36-.25c1.88-2.38,3.67-6.13,4.59-10.11l3.56,1.23c-.14,.31-.48,.56-1.09,.5Zm1.34,10c-1.48,1.18-3.19,2.24-5.12,3.11l1.99,.78h5.8l1.09-1.26c-1.46-.76-2.69-1.65-3.75-2.63Zm-.22-2.52c1.29-1.51,2.3-3.14,3.02-4.87h-5.46c-.28,.48-.56,.95-.87,1.4,.87,1.32,1.96,2.46,3.3,3.47Zm3,13.97v-6.75h-6.24v6.75h6.24Z"/>
      <path class="cls-1" d="M191.35,1.19l3.14,1.18h12.35l1.29-1.43,2.83,2.1c-.2,.22-.59,.48-1.15,.59v5.26c-.03,.2-1.4,.67-2.24,.67h-.45v-1.54h-13.05v3.39h15.15l1.43-1.46,2.58,2.18c-.2,.22-.53,.42-1.09,.47-.17,7.62-.56,11.31-1.79,12.54-.78,.76-1.9,1.09-3.3,1.09,0-.81-.08-1.46-.48-1.85-.45-.39-1.46-.73-2.55-.95l.03-.42c1.06,.11,2.86,.25,3.44,.25,.48,0,.7-.08,.92-.31,.7-.67,.95-4.42,1.09-10.75h-15.46c-.17,4.79-1.12,10.22-5.96,14l-.34-.25c3.25-4.59,3.61-10.36,3.61-15.85V1.19Zm15.76,6.05V3.15h-13.05V7.24h13.05Zm-11.37,6.75l2.6,1.09h4.48l1.18-1.23,2.49,1.85c-.14,.2-.48,.39-.92,.48v5.4c-.03,.22-1.26,.76-2.07,.76h-.45v-1.34h-4.84v1.74c0,.22-1.09,.76-2.13,.76h-.34V13.98Zm7.31,6.19v-4.28h-4.84v4.28h4.84Z"/>
      <path class="cls-1" d="M221.12,16.22c1.74-.87,2.77-1.68,3.25-3.25-1.88-.81-2.6-1.65-2.6-2.69,0-1.15,.87-2.1,2.16-2.1,.73,0,1.26,.17,1.79,.67,.31,.7,.39,1.15,.39,1.93,0,3.19-1.79,5.29-4.62,6.24l-.36-.81Z"/>
      <path class="cls-1" d="M236.99,3.88h8.51v-1.43h-7.87l-.22-.81h15.46L254.21,.01s1.51,1.15,2.49,1.99c-.08,.31-.36,.45-.76,.45h-7.81v1.43h8.15l1.4-1.43,2.49,2.41c-.2,.22-.5,.25-1.06,.31-.73,.84-2.04,2.02-3.05,2.69l-.31-.2c.22-.78,.5-2.02,.7-2.97h-1.99l1.18,1.93c-.17,.11-.45,.08-.76-.17-1.09,.2-3.75,.48-5.74,.53l-.11-.39c1.46-.45,3.56-1.32,4.79-1.9h-5.68v4.9c0,.14-.84,.59-2.18,.59h-.45V4.69h-8.34c.22,1.68-.34,2.88-1.12,3.36-.76,.45-1.76,.31-2.1-.5-.22-.78,.25-1.4,.95-1.76,.81-.53,1.46-1.88,1.18-3.22l.45-.03c.22,.48,.36,.92,.48,1.34Zm22.62,21.2c-.08,.31-.36,.45-.73,.45h-23.88l-.25-.81h10.84v-6.92h-9.16l-.22-.81h17.92l1.2-1.37v-.36h-2.27v.42c0,.17-.87,.59-1.65,.59h-.31v-6.3l2.1,.9h1.9l.98-1.06,2.18,1.65c-.14,.17-.5,.39-.95,.45v3.44c-.03,.17-.67,.45-1.26,.53l1.93,1.48c-.06,.31-.36,.45-.73,.45h-9.13v6.92h7.76l1.32-1.71s1.48,1.2,2.41,2.07Zm-17.89-5.57l-.5,.92c5.1,1.04,3.53,4.62,1.6,3.36-.25-.95-1.12-2.04-1.99-2.8-1.18,1.65-2.74,2.77-4.48,3.44l-.34-.34c1.71-1.32,3.14-3.47,3.81-6.16l2.97,1.09c-.14,.34-.48,.56-1.06,.48Zm-5.29-3.05h-.28v-6.47l2.04,.87h2.16l.95-1.01,2.07,1.6c-.11,.14-.45,.34-.87,.39v3.61c-.03,.2-1.01,.62-1.62,.62h-.31v-.81h-2.49v.59c0,.17-.84,.62-1.65,.62Zm7.95-8.99l.06,.42c-1.2,.48-2.97,1.2-5.35,2.04-.14,.36-.39,.56-.64,.62l-.95-2.27c1.23-.11,4.09-.45,6.89-.81Zm-1.09,.03c-1.23-.59-3.61-1.37-5.38-1.65l.14-.5c6.52-.84,6.97,2.24,5.24,2.16Zm-5.21,4.17v2.77h2.49v-2.77h-2.49Zm5.8,4.59h-.28v-6.27l2.07,.87h2.13l.95-1.01,2.1,1.6c-.14,.14-.48,.34-.9,.39v3.56c-.03,.2-1.01,.62-1.62,.62h-.31v-.76h-2.49v.42c0,.17-.84,.59-1.65,.59Zm1.65-4.59v2.77h2.49v-2.77h-2.49Zm8.29,7.76c-.17,.36-.36,.73-.56,1.04,4.76,1.01,3.36,4.37,1.51,3.19-.28-.87-1.09-1.88-1.9-2.58-1.01,1.48-2.32,2.55-3.78,3.25l-.34-.31c1.37-1.37,2.52-3.56,3.11-6.08l3,.98c-.11,.31-.45,.56-1.04,.5Zm.81-9.27c-1.26-.7-3.86-1.74-5.68-2.18l.14-.48c7.11-.39,7.39,2.83,5.54,2.66Zm-1.57,1.51v2.77h2.27v-2.77h-2.27Z"/>
      <path class="cls-1" d="M266.78,10.85c-.39-1.37-1.74-2.88-2.88-3.75l.22-.25c6.92,.5,5.24,5.52,2.66,4Zm-.39,6.8q.62-1.01,5.82-11.79l.48,.11c-1.18,3.3-3.39,9.49-3.81,10.86-.25,.87-.45,1.82-.45,2.52,.06,1.37,1.04,2.46,.95,4.82-.06,1.34-.87,2.16-2.04,2.16-.59,0-1.12-.45-1.29-1.43,.48-2.88,.34-5.26-.31-5.68-.39-.28-.84-.37-1.43-.42v-.56h1.29c.36,0,.48-.03,.78-.59Zm2.69-12.68c-.48-1.43-1.9-3.08-3.11-4.03l.25-.22c7.11,.59,5.52,5.74,2.86,4.26Zm4.34,9.41l2.8,1.15h3.08v-5.46h-7.34l-.22-.81h7.56V4.38c-2.32,.25-4.73,.45-7,.53l-.08-.45c4.84-.84,10.89-2.58,13.97-3.95l2.8,2.66c-.31,.25-.87,.25-1.68-.06-1.48,.31-3.3,.64-5.29,.9v5.24h3.75l1.6-2.13s1.82,1.46,2.91,2.49c-.08,.31-.36,.45-.76,.45h-7.5v5.46h3.02l1.32-1.46,2.8,2.13c-.2,.22-.59,.48-1.18,.59v8.46c-.03,.22-1.32,.81-2.21,.81h-.45v-2.18h-9.27v1.46c0,.28-1.15,.87-2.24,.87h-.39V14.38Zm11.9,1.96h-9.27v6.72h9.27v-6.72Z"/>
      <path class="cls-1" d="M314.83,2.67l1.71-2.13s1.96,1.46,3.16,2.46c-.06,.31-.36,.45-.76,.45h-10.39v3.22h5.04l1.32-1.43,2.8,2.13c-.17,.22-.59,.48-1.15,.59v8.93c-.03,.2-1.37,.7-2.24,.7h-.45v-1.51h-5.57c-.31,1.88-.95,3.56-2.21,5.01,3.75,1.62,8.71,2.21,14,2.32v.31c-1.12,.34-1.82,1.23-2.04,2.52-5.38-.53-9.86-1.62-13.16-3.95-2.13,1.76-5.4,3.14-10.44,4.06l-.17-.42c4.51-1.43,7.36-2.97,9.07-4.9-1.04-.98-1.9-2.13-2.63-3.5l.36-.31c.78,1.12,1.82,2.07,3.05,2.83,.81-1.18,1.26-2.49,1.51-3.98h-4.93v.84c0,.25-1.15,.84-2.24,.84h-.39V5.5l2.83,1.18h4.98V3.46h-10.95l-.22-.78h20.1Zm-8.93,8.23v-3.42h-5.18v3.42h5.18Zm-.14,4.37c.11-.81,.14-1.68,.14-2.6v-.95h-5.18v3.56h5.04Zm8.12-3.56h-5.32v.87c0,.92-.03,1.82-.14,2.69h5.46v-3.56Zm-5.32-4.23v3.42h5.32v-3.42h-5.32Z"/>
      <path class="cls-1" d="M326.42,10.85c-.25-1.32-1.26-2.8-2.27-3.64l.25-.22c6.44,.84,4.4,5.52,2.02,3.86Zm.2,6.61q.53-.98,4.98-11.48l.48,.11c-.98,3.25-2.83,9.24-3.19,10.58-.2,.87-.36,1.76-.36,2.46,.06,1.37,1.01,2.55,.9,4.93-.06,1.32-.78,2.13-1.9,2.13-.56,0-1.06-.48-1.18-1.43,.45-2.88,.31-5.32-.34-5.74-.36-.25-.76-.36-1.37-.42v-.56h1.23c.36,0,.48,0,.76-.59Zm1.99-12.71c-.36-1.37-1.57-2.97-2.58-3.95l.22-.2c6.78,1.04,4.82,5.77,2.35,4.14Zm3.11,4.48l2.58,1.09h4.84v-2.91h-1.46v1.06c0,.2-1.04,.64-1.99,.64h-.42V4.02h-3.95l-.22-.81h4.17V.24l3.44,.31c-.06,.39-.31,.67-1.04,.78v1.88h5.29V.21l3.47,.31c-.06,.42-.31,.67-1.04,.79v1.9h1.26l1.34-1.88s1.57,1.29,2.44,2.24c-.06,.31-.34,.45-.73,.45h-4.31v4.17c0,.22-1.06,.64-2.02,.64h-.42v-1.43h-1.48v2.91h4.96l1.15-1.34,2.66,1.99c-.17,.22-.56,.42-1.09,.53v11.59c0,1.79-.36,2.88-3.25,3.16-.08-.81-.2-1.46-.53-1.82-.36-.39-.92-.67-2.02-.87v-.42s2.3,.17,2.8,.17c.42,0,.56-.17,.56-.53v-3.25c-.28,.42-.48,.98-.56,1.51-.87-.76-1.65-2.3-1.96-3.72-.5,1.34-1.51,2.72-2.72,3.56v4.4c0,.17-.73,.7-1.93,.7h-.42v-6.55c-.31,.42-.53,1.06-.64,1.62-.78-.73-1.43-2.16-1.68-3.58-.48,1.46-1.51,2.83-2.69,3.58l-.03-.03v4.4c0,.28-.95,.87-1.99,.87h-.39V9.22Zm4.84,3.36l1.62,1.23c-.2,.22-.62,.45-1.26,.53v.39c.25,1.76,1.01,3.02,2.21,3.86v-7.48h-5.04v9.46c1.01-1.23,1.93-3.61,2.18-5.82v-.48h-1.46l-.14-.81h1.26l.62-.9Zm6.41-5.99v-2.58h-5.29v2.58h5.29Zm.95,5.96l1.68,1.26c-.2,.22-.67,.45-1.29,.53v.34c.31,1.71,1.18,2.91,2.41,3.78v-7.34h-5.24v9.07c.95-1.34,1.88-3.53,2.16-5.49v-.42h-1.6l-.14-.81h1.4l.62-.92Z"/>
      <path class="cls-1" d="M357,24.88c-.87,.48-1.96,.36-2.27-.45-.25-.78,.22-1.43,.95-1.79,1.15-.53,2.49-2.02,2.58-3.78h.42c.9,3.16-.39,5.32-1.68,6.02Zm21.34-21.45c-.08,.31-.36,.45-.76,.45h-6.19l3.08,.92c-.11,.34-.48,.56-1.06,.5-.76,.73-1.93,1.65-3.02,2.38h5.32l1.6-1.93s1.79,1.34,2.88,2.3c-.08,.31-.36,.45-.76,.45h-24.47l-.22-.81h9.02c-.31-.03-.64-.14-.95-.39-.11-1.09-.87-2.41-1.54-3.16l.28-.17c4.73,.64,4.06,3.56,2.46,3.72h5.52c.45-1.12,.95-2.66,1.26-3.81h-13.89l-.22-.78h10.16c-.42-1.06-1.57-2.21-2.58-2.86l.22-.22c4.51-.2,5.1,2.16,4.17,3.08h5.24l1.57-1.96s1.76,1.34,2.88,2.29Zm-18.96,15.26h-.39V9.14l2.77,1.12h10.98l1.29-1.4,2.8,2.1c-.2,.22-.62,.45-1.18,.59v6.1c-.03,.2-1.32,.76-2.18,.76h-.45v-.95h-11.42v.42c0,.22-1.15,.81-2.21,.81Zm4.31,1.06v3.19c0,.34,.08,.45,1.26,.45h3.61c1.46,0,2.69-.03,3.14-.06,.42-.03,.56-.08,.73-.36,.28-.42,.64-1.46,1.06-2.88h.31l.08,2.97c.81,.28,1.04,.56,1.04,1.04,0,1.12-1.12,1.51-6.58,1.51h-3.75c-2.83,0-3.42-.42-3.42-2.18v-4.65l3.36,.31c-.06,.34-.31,.59-.84,.67Zm-2.1-8.68v2.38h11.42v-2.38h-11.42Zm11.42,5.57v-2.38h-11.42v2.38h11.42Zm-4.93,5.4c-.22-1.4-1.37-2.97-2.41-3.86l.28-.22c6.16,1.12,4.34,5.63,2.13,4.09Zm9.44,2.04c-.25-1.76-1.65-3.84-3-5.07l.28-.22c7.14,1.99,5.15,7.11,2.72,5.29Z"/>
      <path class="cls-1" d="M390.49,9.31c2.18,0,3.95,1.76,3.95,3.95s-1.76,3.98-3.95,3.98-3.98-1.79-3.98-3.98,1.79-3.95,3.98-3.95Zm0,6.92c1.62,0,2.94-1.34,2.94-2.97s-1.32-2.94-2.94-2.94-2.97,1.32-2.97,2.94,1.32,2.97,2.97,2.97Z"/>
      <path class="cls-1" d="M5.07,50.33H.7l-.25-.81H5.12l1.29-1.29,2.58,2.32c-.28,.28-.92,.42-1.65,.45-.87,1.34-2.32,3.56-3.42,5.07h1.82l1.43-1.43,2.46,2.16c-.17,.25-.45,.34-1.06,.36-.5,1.76-1.26,3.53-2.3,5.21,1.99,2.32,4.93,2.66,9.94,2.66,2.27,0,7.78,0,10.16-.05v.34c-1.01,.22-1.51,1.2-1.54,2.32h-8.68c-5.35,0-8.32-.95-10.28-4.65-1.4,2.04-3.22,3.89-5.6,5.32l-.28-.37c3.08-2.8,5.01-7.06,5.85-11.06H3.56l-.87,.73-2.1-1.6c.28-.2,.7-.39,1.12-.5,1.04-1.46,2.49-3.64,3.36-5.18Zm-.08-3.28c-.45-1.6-1.96-3.47-3.22-4.56l.25-.2c7.28,1.06,5.63,6.3,2.97,4.76Zm14.11,8.34h-3c-.67,4.26-2.86,6.94-7.28,8.62l-.17-.39c3.28-2.04,4.48-4.7,4.84-8.23h-2.97l-.25-.81h8.74l1.04-1.2,2.46,1.93c-.2,.22-.64,.39-1.18,.48l-.76,1.99h1.57l1.23-1.2,2.35,1.93c-.17,.2-.5,.34-1.06,.42-.28,2.46-.9,4.09-1.99,4.79-.67,.39-1.65,.64-2.8,.62,0-.59-.11-1.18-.5-1.54-.42-.34-1.34-.62-2.35-.78l.03-.42c1.04,.08,2.83,.22,3.36,.22,.45,0,.7-.06,.9-.2,.39-.28,.78-1.37,1.01-3.02h-1.82l-1.06,1.04-2.27-1.74c.31-.2,.78-.39,1.23-.53l.7-1.96Zm-2.8-1.65h-.42v-3.36c-1.79,1.74-4.2,3.11-6.94,4.12l-.25-.42c2.41-1.4,4.4-3.36,5.66-5.46h-5.32l-.22-.81h7.08v-2.49c-1.96,.17-3.98,.25-5.88,.25l-.08-.45c4.03-.59,9.07-1.9,11.7-2.94l2.49,2.35c-.28,.22-.81,.25-1.54-.06-1.2,.22-2.66,.45-4.23,.62v2.72h3.11l1.46-1.82s1.71,1.26,2.74,2.18c-.08,.31-.36,.45-.76,.45h-6.55v.36c8.99,1.68,7.36,6.1,5.1,4.96-.78-1.01-2.72-2.74-5.1-4.17v3.42c0,.11-.78,.56-2.04,.56Z"/>
      <path class="cls-1" d="M39.42,63.91h-.39v-7.9c-.17,.22-.45,.28-1.01,.34-.5,1.96-1.26,4-2.38,5.91,2.07,2.38,5.18,2.74,10.44,2.74,2.3,0,7.78,0,10.16-.06v.37c-.92,.2-1.4,1.04-1.43,2.02h-8.79c-5.57,0-8.65-.87-10.78-4.45-1.18,1.85-2.69,3.53-4.65,4.87l-.31-.34c2.72-2.97,4.45-7.34,5.12-11.34h-1.54l-.84,.81-2.13-1.54c.25-.2,.64-.36,1.01-.5,.84-1.46,1.93-3.7,2.6-5.24h-3.84l-.25-.81h4.06l1.09-1.15,2.3,2.07c-.22,.22-.62,.34-1.12,.39-.64,1.37-1.76,3.58-2.63,5.15h1.15l1.4-1.4,2.35,2.02v-4.96l2.38,1.01v-8.96l2.58,1.06h5.4l1.12-1.46,2.83,1.99c-.22,.31-.56,.45-1.26,.53v6.92h.73l.78-1.2,1.88,2.21c-.2,.2-.62,.42-1.06,.48v8.23c0,1.57-.42,2.49-3,2.66,0-.73-.11-1.12-.34-1.48-.25-.39-.78-.64-1.68-.81v-.36s1.34,.08,2.16,.08c.31,0,.42-.08,.42-.34v-8.65h-10.56v10.28c0,.25-1.01,.81-1.99,.81Zm-5.43-16.66c-.28-1.51-1.46-3.28-2.49-4.28l.25-.2c6.64,1.15,4.7,6.08,2.24,4.48Zm9.52,14.62h-.31v-7.76l2.18,.95h2.52l1.01-1.06,2.13,1.62c-.11,.17-.45,.36-.84,.42v4.59c-.03,.2-1.04,.67-1.74,.67h-.34v-1.04h-2.86v.95c0,.17-.9,.64-1.76,.64Zm4.42-14.7h1.76v-2.32h-5.99v7.17h1.9v-5.8l2.32,.95Zm.2,8.71h-2.86v3.58h2.86v-3.58Zm-.56-3.86h2.13v-4.03h-2.13v4.03Z"/>
      <path class="cls-1" d="M71.9,43.55v10.36c3.19,.42,3.42,2.21,2.58,3h7.53l1.57-2.02s1.76,1.4,2.8,2.38c-.08,.31-.36,.45-.73,.45h-11.51l-.2,.22c.81,1.62,1.99,2.91,3.39,3.98,1.43-1.15,2.91-2.72,3.7-3.72l2.88,1.93c-.2,.28-.45,.39-1.04,.22-1.2,.7-3.02,1.48-4.76,2.07,2.3,1.48,5.18,2.38,8.26,2.91l-.03,.31c-1.12,.25-1.88,1.12-2.21,2.41-5.15-1.68-8.79-4.4-10.64-9.69-1.01,.98-2.24,1.82-3.64,2.58v3.98l5.04-1.32,.11,.36c-1.43,.87-4.12,2.52-7.17,4.17-.08,.11-.17,.17-.25,.22l-1.74-2.49c1.2-.73,1.4-.98,1.4-1.43v-2.29c-2.04,.84-4.34,1.48-6.75,1.99l-.17-.42c4.12-1.4,7.7-3.56,9.94-5.99h-9.58l-.22-.81h12.07c-.14-.7-.53-1.48-1.01-2.1-.39,.2-1.09,.39-1.74,.39h-.45v-4.45h-3.14c-.25,2.04-1.15,4.06-4.56,5.4l-.36-.39c2.07-1.54,2.38-3.28,2.46-5.01h-2.13l-.25-.81h7.98v-2.32h-3.58l-.9,1.18-2.66-1.51c.25-.25,.64-.56,1.04-.76v-3.61l3.22,.34c-.06,.39-.31,.62-.92,.7v2.86h3.81v-4.37l3.58,.36c-.06,.39-.28,.64-1.04,.76Zm14.14,3.75c-.06,.31-.34,.45-.76,.45h-5.49v5.18h1.37l1.51-1.88s1.71,1.29,2.74,2.24c-.08,.31-.36,.45-.76,.45h-11.31l-.22-.81h3.98v-5.18h-4.48l-.22-.81h4.7v-4.54l3.7,.34c-.06,.39-.28,.67-1.01,.78v3.42h1.93l1.54-1.93s1.71,1.32,2.77,2.3Z"/>
      <path class="cls-1" d="M92.76,53.07c-.28-1.32-1.46-2.83-2.52-3.7l.25-.2c6.66,.64,4.76,5.49,2.27,3.89Zm.03,6.55q.56-1.04,5.49-12.38l.48,.14c-1.12,3.47-3.16,9.88-3.53,11.34-.22,.9-.42,1.85-.42,2.55,.03,1.4,1.04,2.49,.95,4.87-.06,1.32-.81,2.16-2.02,2.16-.59,0-1.12-.45-1.26-1.4,.45-2.86,.31-5.29-.34-5.71-.36-.25-.81-.36-1.4-.42v-.56h1.26c.36,0,.48-.03,.78-.59Zm1.88-12.91c-.45-1.43-1.85-3.03-2.97-3.92l.22-.22c7.03,.48,5.38,5.57,2.74,4.14Zm10.61,18.28c-1.88,1.32-5.18,2.63-8.4,3.25l-.14-.34c2.63-1.23,5.38-3.44,6.64-5.07l3.36,1.88c-.2,.31-.67,.42-1.46,.28Zm11.48-13.66c-.08,.31-.36,.45-.76,.45h-17.7l-.22-.81h14.67l1.4-1.85s1.6,1.29,2.6,2.21Zm-.39-5.88c-.08,.31-.36,.45-.76,.45h-4.2v3.72c0,.2-1.01,.62-1.93,.62h-.42v-1.23h-4.48v.67c0,.2-1.01,.64-1.93,.64h-.42v-4.42h-3.58l-.22-.81h3.81v-2.83l3.39,.31c-.06,.39-.31,.67-1.04,.78v1.74h4.48v-2.83l3.39,.31c-.06,.39-.31,.67-1.04,.78v1.74h1.15l1.37-1.79s1.51,1.26,2.44,2.16Zm-13.86,8.4h8.9l1.18-1.37,2.41,1.85c-.17,.22-.45,.42-1.04,.5v7.64c0,.14-.84,.62-2.04,.62h-.39v-1.12h-9.32v.87c0,.2-.73,.64-1.96,.64h-.39v-10.7l2.66,1.06Zm-.31,.81v2.77h3.42v-2.77h-3.42Zm3.42,3.58h-3.42v2.91h3.42v-2.91Zm3.44-12.35h-4.48v2.3h4.48v-2.3Zm5.63,22.09c-1.51-1.37-4.68-3.25-6.89-4.17l.2-.34c9.35-.25,9.6,4.93,6.69,4.51Zm-6.72-10.56h3.56v-2.77h-3.56v2.77Zm3.56,3.72v-2.91h-3.56v2.91h3.56Z"/>
      <path class="cls-1" d="M132.75,47.7c-.06,.31-.34,.45-.73,.45h-11.12l-.22-.81h8.32l1.34-1.71s1.48,1.2,2.41,2.07Zm-1.34,3.75c-.08,.31-.36,.45-.76,.45h-8.74l-.22-.81h6.19l1.23-1.6s1.43,1.12,2.3,1.96Zm0,3.72c-.08,.31-.36,.45-.76,.45h-8.74l-.22-.81h6.19l1.23-1.57s1.43,1.09,2.3,1.93Zm-8.99,12.91h-.34v-10.61l2.49,1.06h3.39l1.18-1.29,2.58,1.96c-.17,.2-.59,.39-1.12,.5v6.64c-.03,.2-1.18,.73-1.99,.73h-.39v-1.57h-3.78v1.79c0,.22-1.01,.78-2.02,.78Zm3.08-21.53c-.22-1.32-1.18-2.91-2.04-3.84l.25-.17c6.5,.9,4.31,5.71,1.79,4Zm2.72,12.8h-3.78v5.35h3.78v-5.35Zm5.21-3.42h-1.48l-.25-.81h9.21l1.54-1.46,2.52,2.3c-.22,.28-.5,.36-1.18,.39-1.01,2.44-2.41,4.56-4.28,6.38,1.99,1.26,4.4,2.1,7.03,2.66l-.03,.31c-1.09,.2-1.88,1.01-2.27,2.24-2.58-.92-4.73-2.1-6.44-3.75-2.32,1.76-5.26,3.11-8.93,4l-.22-.39c3.22-1.2,5.88-2.88,7.95-4.96-1.43-1.79-2.49-4.06-3.16-6.92Zm.14-12.85l2.86,1.09h2.91l1.26-1.34,2.44,2.02c-.2,.2-.53,.34-1.04,.39v5.15c0,.31,.06,.42,.48,.42h.9c.34,0,.67,0,.84-.03h.5c.17-.03,.39-.08,.56-.11h.28l.11,.03c.62,.25,.87,.48,.87,.95,0,.95-.84,1.46-3.47,1.46h-1.37c-1.85,0-2.1-.53-2.1-2.04v-6.08h-3.61v1.43c0,2.38-.48,6.08-5.07,8.29l-.25-.34c2.58-2.44,2.91-5.43,2.91-7.95v-3.33Zm7.39,12.85h-6.97c.81,2.32,2.13,4.17,3.84,5.6,1.37-1.68,2.41-3.55,3.14-5.6Z"/>
      <path class="cls-1" d="M164.64,47.7c-.08,.31-.36,.45-.76,.45h-12.85l-.22-.81h9.74l1.43-1.85s1.65,1.26,2.66,2.21Zm-1.37,3.64c-.06,.31-.34,.45-.73,.45h-10.3l-.22-.81h7.34l1.37-1.76s1.6,1.23,2.55,2.13Zm0,3.67c-.06,.31-.34,.45-.73,.45h-10.3l-.22-.81h7.34l1.37-1.76s1.6,1.2,2.55,2.13Zm-10.53,12.85h-.36v-10.5l2.55,1.06h4.51l1.23-1.34,2.66,2.02c-.2,.22-.59,.45-1.15,.56v6.52c-.03,.2-1.23,.73-2.07,.73h-.39v-1.51h-4.9v1.65c0,.25-1.06,.81-2.07,.81Zm3.81-21.25c-.17-1.46-1.12-3.08-1.99-4.06l.22-.17c6.64,.95,4.28,6.02,1.76,4.23Zm3.16,12.63h-4.9v5.35h4.9v-5.35Zm10.78-15.71v8.79h1.88l1.46-1.93s1.71,1.34,2.72,2.29c-.06,.31-.36,.45-.76,.45h-5.29v14.08c0,.31-1.12,.95-2.13,.95h-.5v-15.04h-4.48l-.22-.81h4.7v-9.97l3.67,.39c-.08,.39-.28,.67-1.04,.78Z"/>
      <path class="cls-1" d="M201.1,48.96l.95,.53c-.11,.22-.42,.42-.98,.34-.84,.84-2.04,1.88-3.22,2.58,1.34-.03,3.25-.08,5.24-.17-.5-.78-1.04-1.48-1.54-2.04l.31-.17c6.38,1.93,4.48,6.1,2.35,4.56-.14-.53-.42-1.12-.73-1.68-1.46,.45-3.56,1.06-5.74,1.62l-.03,.03c2.77,1.76,6.22,3.11,9.27,3.78l-.06,.31c-1.01,.2-1.79,1.01-2.1,2.21-4.28-1.6-8.15-4.48-10.53-8.26-3.58,4.17-7.98,6.94-13.19,8.76l-.2-.45c3.3-1.74,6.3-3.95,8.82-6.86l-.08-.31c-1.6,.56-3.81,1.32-6.19,2.02-.14,.22-.31,.36-.48,.45l-1.34-2.72s.48-.11,.67-.22c1.37-.78,3.02-3.25,3.61-4.48l1.15,.64-1.2-2.44s.5-.08,.78-.22c1.96-.78,4.56-3.42,5.49-4.76l3.44,1.51c-.11,.28-.48,.53-1.09,.42-1.43,1.04-3.72,2.27-5.82,3.14,2.44-.06,5.96-.22,9.66-.42-.84-.84-1.79-1.62-2.6-2.18l.25-.25c6.75,.7,6.92,4.48,5.12,4.73Zm1.18,14.31c-3.98,2.94-11.65,5.04-18.56,5.1l-.11-.45c6.41-.87,13.66-3.61,17.14-6.92l2.55,2.21c-.17,.22-.53,.28-1.01,.06Zm-7.48-11.28l-.14,.14c.64,.67,1.4,1.32,2.24,1.9l-.98-1.79s.39-.11,.62-.22c.95-.76,2.07-3.11,2.41-4.23l.81,.45-.81-.95c-2.72,.62-6.69,1.46-11.26,2.18l-.2,.22,1.4,.79c-.14,.25-.48,.45-1.04,.34-.95,.87-2.38,1.88-3.75,2.66l5.24-.45c-.34-.67-.73-1.32-1.09-1.79l.31-.2c1.23,.37,2.04,.84,2.55,1.34,.56-.76,1.12-1.57,1.62-2.41l3.19,1.76c-.2,.31-.48,.39-1.12,.25Zm3.75,8.18c-2.86,2.21-8.37,4.26-13.22,4.93l-.17-.42c4.28-1.29,9.3-3.95,11.76-6.5l2.6,1.88c-.17,.25-.53,.28-.98,.11Zm-2.72-2.94c-2.21,1.85-6.47,3.78-10.16,4.65l-.22-.39c3.16-1.37,6.83-3.89,8.62-6.08l2.69,1.68c-.14,.25-.48,.28-.92,.14Z"/>
      <path class="cls-1" d="M236.8,51.2c-.06,.31-.34,.45-.73,.45h-9.27c-1.82,1.32-3.84,2.55-5.99,3.7h9.49l1.51-1.96s1.71,1.34,2.72,2.32c-.06,.31-.36,.45-.76,.45h-10.05l-1.09,3.33h6.94l1.4-1.34,2.55,2.1c-.22,.22-.53,.36-1.12,.42-.45,3.42-1.34,5.91-2.72,6.8-.81,.56-1.93,.81-3.39,.81,0-.7-.11-1.34-.62-1.74-.5-.39-1.71-.76-3-.98l.03-.39c1.37,.11,3.7,.28,4.31,.28,.5,0,.78-.06,1.06-.25,.67-.42,1.29-2.38,1.68-4.9h-7.2l-1.09,1.15-2.55-1.71c.28-.2,.7-.42,1.09-.59,.34-.95,.73-2.13,.95-3h-1.76c-2.66,1.29-5.52,2.44-8.51,3.28l-.2-.39c4.59-1.88,8.96-4.51,12.68-7.39h-11.87l-.25-.81h9.21v-3.72h-6.64l-.22-.81h6.86v-4l3.64,.34c-.03,.36-.25,.62-.9,.7v2.97h2.13l1.4-1.9s1.4,1.15,2.35,2.07c1.12-1.18,2.07-2.35,2.88-3.5l3.28,2.04c-.2,.28-.5,.39-1.15,.2-1.57,1.88-3.61,3.81-6.02,5.63h4.73l1.48-1.99s1.68,1.37,2.69,2.35Zm-13.78-4.09v3.72h1.2c1.48-1.2,2.86-2.46,4.09-3.72h-5.29Z"/>
      <path class="cls-1" d="M244.22,58.22c1.74-.87,2.77-1.68,3.25-3.25-1.88-.81-2.6-1.65-2.6-2.69,0-1.15,.87-2.1,2.16-2.1,.73,0,1.26,.17,1.79,.67,.31,.7,.39,1.15,.39,1.93,0,3.19-1.79,5.29-4.62,6.24l-.36-.81Z"/>
      <path class="cls-1" d="M278.35,45.01c-.14-.84-.73-1.79-1.32-2.38-.03,.34-.31,.62-.98,.73v2.63h3.64l1.26-1.74s1.37,1.23,2.18,2.1c-.06,.31-.34,.45-.7,.45h-6.38c.08,2.32,.22,4.65,.56,6.86,.95-1.54,1.74-3.28,2.27-5.18l3.42,1.37c-.14,.34-.5,.56-1.12,.48-1.06,2.46-2.44,4.42-4.06,5.96,.7,3.02,1.79,5.66,3.5,7.59,.36,.5,.53,.5,.78-.06,.36-.7,.95-2.07,1.34-3.19l.34,.06-.59,4.59c.78,1.48,.9,2.24,.5,2.55-1.09,.9-2.97-.31-3.95-1.57-1.85-2.3-3.11-5.12-3.95-8.29-1.34,.95-2.83,1.68-4.42,2.24l-.28-.34c1.54-.92,3.02-2.13,4.31-3.61-.62-2.91-.95-6.1-1.09-9.46h-11.98v5.26c0,4.59-.22,11.23-4.4,15.65l-.36-.22c2.13-4.68,2.24-10.47,2.24-15.43v-7.2l2.94,1.12h11.54l-.06-3.81,3.44,.39,.25-.22c4.76,.9,2.77,4,1.12,2.66Zm-16.24,21.34c-.53,.59-1.62,.76-2.04,.03-.34-.62,0-1.32,.62-1.76,.64-.67,1.29-2.41,1.12-3.86h.48c.87,2.66,.56,4.7-.17,5.6Zm10.67-16.66c-.08,.31-.36,.45-.76,.45h-9.18l-.22-.81h6.27l1.37-1.74s1.54,1.23,2.52,2.1Zm-9.24,9.27h-.34v-7.42l2.46,1.01h3.5l1.18-1.23,2.55,1.88c-.14,.2-.56,.42-1.04,.5v4c-.03,.2-1.23,.64-2.02,.64h-.39v-1.15h-3.89v1.04c0,.2-1.06,.73-2.02,.73Zm2.3,1.62v4.62c0,.34,.08,.42,.76,.42h1.82c.81,0,1.43,0,1.65-.03,.25,0,.34-.06,.48-.31,.2-.39,.5-1.62,.81-2.97h.36l.08,3.05c.59,.25,.7,.5,.7,.9,0,.9-.84,1.4-4.23,1.4h-2.18c-1.99,0-2.32-.48-2.32-1.9v-6.13l2.88,.28c-.03,.36-.31,.62-.81,.67Zm3.61-7.22h-3.89v3.02h3.89v-3.02Zm-1.09,9.8c-.11-1.4-1.04-3.19-1.93-4.26l.34-.2c5.32,2.24,3.39,6.02,1.6,4.45Zm5.15,2.55c-.03-1.74-.9-3.86-1.74-5.26l.34-.17c5.35,3.11,3.22,7.2,1.4,5.43Z"/>
      <path class="cls-1" d="M310.52,46.94c-.11,.31-.45,.53-1.06,.48-1.09,1.2-2.83,2.8-4.51,4.06h4.4l1.51-1.51,2.66,2.52c-.22,.22-.5,.28-1.06,.34-.98,.87-2.63,2.07-3.89,2.77l-.28-.2c.36-.84,.84-2.1,1.15-3.11h-18.17c.2,1.96-.53,3.33-1.48,3.86-.87,.5-1.99,.34-2.32-.53-.28-.87,.25-1.54,1.01-1.93,1.04-.56,1.93-2.1,1.71-3.81h.45c.22,.56,.39,1.09,.5,1.6h12.99c1.01-1.71,2.02-4.09,2.58-5.8l3.84,1.26Zm-5.91,8.93l1.74-1.51,2.6,2.46c-.22,.28-.53,.36-1.26,.39-1.32,2.18-3.02,4.06-5.12,5.63,3.14,1.34,6.8,2.1,10.64,2.52l-.03,.34c-1.26,.28-2.07,1.2-2.41,2.58-3.98-.81-7.48-2.07-10.3-4.03-3.42,2.02-7.7,3.36-12.88,4.03l-.14-.42c4.48-1.09,8.34-2.71,11.42-4.87-1.88-1.65-3.36-3.72-4.42-6.3h-3.11l-.25-.81h13.52Zm5.77-11.06c-.31,.25-.87,.25-1.68-.08-5.15,.78-13.08,1.51-19.85,1.6l-.08-.5c6.5-.67,14.73-2.27,19.04-3.58l2.58,2.58Zm-16.91,5.99c-.11-1.43-.95-3.14-1.76-4.17l.25-.2c6.33,1.76,3.78,6.33,1.51,4.37Zm1.62,5.88c1.23,2.13,3.08,3.81,5.32,5.1,1.74-1.48,3.14-3.19,4.14-5.1h-9.46Zm4.26-6.08c0-1.54-.73-3.33-1.46-4.51l.28-.14c6.13,2.18,3.39,6.69,1.18,4.65Z"/>
      <path class="cls-1" d="M321.02,45.32h9.07c-.28-.06-.56-.17-.84-.39-.03-1.01-.62-2.16-1.2-2.83l.25-.17c4.62,.36,3.98,3.14,2.35,3.39h8.99l1.34-1.37,2.44,2.32c-.2,.2-.5,.25-1.06,.28-.64,.59-1.79,1.34-2.69,1.76l1.26,1.09c-.08,.31-.36,.45-.73,.45h-5.85v1.34c0,.14-1.06,.48-1.93,.48h-.5v-5.1l3.25,.34c-.03,.31-.22,.53-.81,.59v1.54h2.94l1.29-1.62,.76,.62c.17-.53,.34-1.26,.48-1.9h-18.7c.06,1.4-.5,2.38-1.26,2.77-.76,.42-1.85,.25-2.13-.62-.22-.84,.28-1.46,1.01-1.79,.81-.39,1.6-1.46,1.46-2.52h.45c.2,.48,.31,.92,.39,1.34Zm1.04,17.39h-.39v-11.7l2.8,1.15h11.17l1.26-1.34,2.66,2.02c-.17,.2-.53,.42-1.04,.5v7.95c-.03,.2-1.34,.7-2.18,.7h-.45v-.76h-2.3v3.97c0,.37,.11,.42,1.06,.42h5.15c.36-.03,.48-.11,.64-.36,.28-.42,.62-1.57,1.04-3h.34l.08,3.08c.76,.28,.95,.59,.95,1.01,0,.95-.95,1.29-5.68,1.29h-3.05c-2.6,0-3.11-.48-3.11-2.1v-4.31h-2.1c-.7,3.33-2.32,5.82-10.75,7.28l-.28-.42c6.55-1.82,7.9-4.2,8.37-6.86h-2.02v.67c0,.22-1.09,.81-2.18,.81Zm6.3-15.23v3.78c0,.14-1.01,.39-1.88,.39h-.53v-1.96h-5.29l-.25-.78h5.54v-2.35l3.22,.31c-.06,.31-.25,.53-.81,.62Zm-4.12,5.49v1.96h11.65v-1.96h-11.65Zm0,4.73h11.65v-1.96h-11.65v1.96Zm0,2.72h11.65v-1.9h-11.65v1.9Zm13.02,4.73c-.39-.92-1.51-2.02-2.46-2.55l.22-.25c5.46-.22,4.37,3.81,2.24,2.8Z"/>
      <path class="cls-1" d="M351.43,68.22h-.42v-11.17c-1.15,1.09-2.41,2.07-3.67,2.86l-.31-.28c2.94-2.77,5.71-7.03,6.97-10.5h-6.22l-.25-.81h6.41l1.48-1.43,2.49,2.41c-.25,.22-.59,.28-1.23,.34-.76,1.54-1.85,3.19-3.16,4.76v.87l.98,.39c.67-.9,1.37-2.18,1.99-3.53l2.41,1.76c-.2,.25-.62,.39-1.12,.2-.76,.73-1.65,1.4-2.58,1.9,1.37,.76,2.07,1.62,2.32,2.38,2.77-3.05,4.84-7.56,5.57-10.86l3.86,1.32c-.08,.34-.36,.56-1.12,.59,1.57,2.8,5.07,5.26,7.98,6.58l-.06,.34c-.98,.56-1.62,1.32-1.82,2.35-2.63-1.99-5.04-5.29-6.44-8.54-1.15,2.35-2.91,4.84-5.18,6.83l1.6,.7h5.66l1.26-1.34,2.6,1.99c-.17,.2-.56,.39-1.06,.5v8.46c-.03,.2-1.26,.76-2.13,.76h-.42v-2.02h-6.02v1.34c0,.22-1.06,.78-2.1,.78h-.39v-10.33c-.53,.42-1.09,.78-1.68,1.12,.08,1.2-1.01,1.93-2.16,1.06-.22-1.32-1.12-2.86-1.96-4v11.4c0,.22-.87,.84-2.1,.84Zm.7-21.45c-.25-1.46-1.29-3.13-2.24-4.17l.25-.17c6.8,1.26,4.48,6.16,1.99,4.34Zm11.34-2.49c-1.43,2.66-3.36,4.82-5.46,6.22l-.36-.25c1.32-1.85,2.63-4.84,3.42-7.81l3.5,1.37c-.14,.31-.48,.53-1.09,.48Zm-1.65,14.17v6.75h6.02v-6.75h-6.02Zm8.2-9.13c-.45-2.16-2.21-4.84-3.67-6.61l.31-.2c7.98,3.25,5.96,8.82,3.36,6.8Z"/>
      <path class="cls-1" d="M383.18,43.5l2.94,1.18h8.62l1.26-1.62,3.08,2.24c-.2,.28-.59,.42-1.26,.53v20.33h1.2l1.71-2.3s1.9,1.57,3.05,2.66c-.08,.31-.39,.45-.78,.45h-25.34l-.25-.81h5.77v-22.65Zm11.84,8.15v-6.16h-9.16v6.16h9.16Zm-9.16,7.14h9.16v-6.36h-9.16v6.36Zm9.16,7.36v-6.58h-9.16v6.58h9.16Z"/>
      <path class="cls-1" d="M410.31,53.16c-.42-1.37-1.74-2.91-2.88-3.78l.22-.22c7.06,.39,5.32,5.54,2.66,4Zm-.34,6.58q.59-.9,5.1-9.13l.48,.14c-.98,2.55-2.86,7.31-3.22,8.4-.22,.76-.42,1.62-.42,2.27,.06,1.34,1.04,2.46,.95,4.79-.06,1.32-.9,2.13-2.04,2.13-.59,0-1.09-.48-1.23-1.4,.45-2.91,.31-5.26-.34-5.68-.36-.25-.81-.36-1.4-.42v-.56h1.29c.39,0,.5,0,.84-.53Zm2.16-12.71c-.48-1.46-1.88-3.11-3.08-4.06l.25-.2c7.25,.45,5.57,5.77,2.83,4.26Zm9.77,3.61v4.17c-.06,4.84-1.18,10.42-8.2,13.3l-.25-.34c5.1-3.36,5.85-8.46,5.85-13.02v-5.21l3.56,.34c-.06,.39-.25,.67-.95,.76Zm-3.72-5.85h11.45l1.48-1.51,2.63,2.55c-.22,.2-.53,.25-1.09,.28-.81,1.09-2.27,2.66-3.33,3.56l-.34-.17c.28-1.04,.62-2.66,.81-3.89h-11.48c.17,1.85-.39,3.19-1.18,3.84-.76,.62-1.96,.56-2.38-.31-.34-.81,.11-1.54,.87-2.02,.87-.64,1.76-2.32,1.62-3.97h.45c.22,.59,.39,1.12,.48,1.65Zm9.74,5.85v13.69c0,.42,.11,.59,.64,.59h1.18c.56,0,.92-.03,1.15-.06,.2,0,.34-.05,.48-.34,.2-.42,.62-2.27,.95-3.92h.31l.11,4.09c.67,.34,.81,.62,.81,1.09,0,1.04-.92,1.54-3.98,1.54h-1.71c-2.04,0-2.44-.62-2.44-2.3v-15.48l3.42,.36c-.03,.36-.31,.64-.92,.73Z"/>
      <path class="cls-1" d="M447.47,50.97c-.08,.31-.34,.45-.73,.45h-3.05v1.06c5.1,2.63,3.14,6.3,1.37,4.73-.11-1.2-.73-2.69-1.37-3.84v14.17c-.03,.2-.81,.76-1.99,.76h-.42v-11.03c-.98,1.93-2.21,3.7-3.7,5.24l-.36-.34c1.76-3,2.86-6.97,3.5-10.75h-2.91l-.22-.81h3.7v-4.73c-1.23,.22-2.49,.39-3.67,.5l-.11-.36c2.46-.92,5.52-2.55,7.06-3.64l2.86,2.46c-.31,.28-.84,.31-1.6,0-.62,.2-1.34,.36-2.13,.56v5.21h.28l1.26-1.74s1.4,1.2,2.24,2.1Zm-.11,15.43c-.73,.53-1.88,.48-2.21-.31-.28-.7,.17-1.34,.84-1.74,.98-.53,2.16-1.9,2.24-3.39l.45,.03c.7,2.77-.25,4.68-1.32,5.4Zm15.12-16.88c-.08,.31-.34,.45-.73,.45h-5.74v1.88h3.98l1.23-1.48s1.43,1.04,2.3,1.85c-.06,.31-.34,.45-.7,.45h-15.37l-.22-.81h6.27v-1.88h-5.1l-.22-.81h8.71c.62-1.15,1.23-2.86,1.68-4.51-1.76,.2-3.75,.36-5.8,.5,5.04,.98,2.83,4.62,.9,3.02-.03-1.01-.62-2.18-1.23-2.86l.22-.17c-1.74,.08-3.47,.14-5.15,.14l-.08-.5c4.42-.5,9.94-1.65,12.88-2.6l2.18,2.27c-.28,.22-.78,.22-1.48-.11l-2.18,.28,2.77,1.01c-.14,.31-.48,.53-1.04,.5-.81,1.18-1.82,2.24-2.83,3.02h1.57l1.12-1.51s1.29,1.09,2.07,1.88Zm1.65,7.34c-.08,.31-.34,.45-.7,.45h-2.32v2.74c0,.17-1.23,.59-2.02,.59h-.39v-.87h-10.05l-.25-.81h10.3v-1.65h-11.2l-.22-.81h11.42v-1.6h-9.86l-.25-.81h9.88l1.15-1.2,2.41,1.82c-.14,.2-.48,.39-.92,.45v1.34h.2l1.01-1.4s1.15,1.01,1.82,1.76Zm-14.84-8.48c-.08-.95-.67-2.02-1.18-2.66l.28-.17c5.1,.87,2.77,4.34,.9,2.83Zm3.14,13.19v3.25c0,.31,.08,.39,.87,.39h2.27c.95,0,1.74,0,2.04-.03,.28,0,.42-.06,.56-.22,.2-.28,.5-1.09,.81-2.07h.34l.08,2.1c.67,.25,.87,.5,.87,.95,0,.98-.98,1.43-4.93,1.43h-2.58c-2.27,0-2.63-.48-2.63-2.02v-4.76l3.11,.31c-.03,.34-.31,.59-.81,.67Zm2.94,2.21c-.17-1.15-1.04-2.58-1.79-3.42l.28-.17c5.24,1.37,3.36,5.01,1.51,3.58Zm6.27,2.13c-.17-1.57-1.37-3.42-2.58-4.48l.31-.22c6.44,1.62,4.54,6.38,2.27,4.71Z"/>
      <path class="cls-1" d="M158.56,85.86c-.67,1.06-1.65,2.49-2.44,3.61h2.91l1.29-1.46,2.69,2.13c-.17,.22-.62,.45-1.18,.56v16.88c-.03,.22-1.23,.81-2.13,.81h-.39v-2.16h-4.93v2.16c0,.28-.95,.9-2.04,.9h-.42v-21l2.58,1.18h.5c.25-1.48,.59-3.64,.78-5.15l3.86,.92c-.11,.42-.48,.62-1.09,.62Zm-4.17,4.42v6.97h4.93v-6.97h-4.93Zm0,15.15h4.93v-7.36h-4.93v7.36Zm14.5-19.46c-.45,1.2-.95,2.35-1.51,3.44h5.15l1.48-1.6,2.66,2.32c-.22,.25-.56,.42-1.2,.48-.2,10.89-.64,16.52-2.07,18.14-.9,1.01-2.1,1.46-3.72,1.46,0-.9-.14-1.57-.59-1.96-.48-.45-1.6-.84-2.88-1.06l.03-.45c1.32,.14,3.28,.28,3.98,.28,.53,0,.76-.08,1.06-.36,1.04-.98,1.37-6.89,1.54-16.44h-5.85c-1.29,2.35-2.8,4.37-4.48,5.91l-.36-.25c1.65-2.86,3.28-7.28,4.09-11.59l3.75,1.12c-.11,.31-.45,.56-1.06,.56Zm-1.65,15.15c-.22-1.96-1.57-4.28-2.8-5.8l.28-.2c7.53,2.69,5.1,8.12,2.52,5.99Z"/>
      <path class="cls-1" d="M206.84,92.75c-.08,.31-.39,.45-.78,.45h-25.12l-.22-.81h11.62v-3.72h-8.51l-.22-.81h8.74v-3.58l3.72,.31c-.06,.36-.28,.62-.92,.73v2.55h4.26l1.65-2.07s1.9,1.43,3.08,2.44c-.08,.31-.36,.45-.76,.45h-8.23v3.72h6.86l1.71-2.1s1.93,1.43,3.14,2.46Zm-17,5.66h6.1c.64-1.57,1.23-3.67,1.6-5.18l3.92,.84c-.08,.34-.42,.59-1.04,.59-.84,1.12-2.27,2.58-3.64,3.75h3.28l1.65-2.04s1.9,1.4,3.05,2.41c-.08,.31-.36,.45-.76,.45h-8.88v4.4h6.19l1.71-2.07s1.88,1.4,3.08,2.44c-.08,.31-.36,.45-.78,.45h-10.19v5.21c0,.14-.87,.64-2.3,.64h-.5v-5.85h-10.5l-.25-.81h10.75v-4.4h-8.9l-.22-.81h6.47c-.36-.03-.78-.2-1.18-.56-.03-1.51-.73-3.22-1.48-4.37l.28-.14c5.32,1.6,4.37,4.98,2.55,5.07Z"/>
      <path class="cls-1" d="M215.24,110.22h-.45v-11.2c-1.26,1.18-2.63,2.24-4.06,3.11l-.31-.28c3.11-2.86,5.99-7.22,7.28-10.81h-6.41l-.25-.81h6.58l1.54-1.46,2.52,2.44c-.25,.25-.59,.28-1.26,.36-.73,1.57-1.82,3.19-3.11,4.76v.14c5.54,2.27,3.67,5.96,1.76,4.45-.2-1.18-1.01-2.55-1.76-3.64v12.04c0,.22-.84,.9-2.07,.9Zm.56-21.64c-.22-1.43-1.18-3.08-2.02-4.12l.28-.17c6.58,1.6,4.06,6.16,1.74,4.28Zm21.06-1.74c-.08,.31-.36,.45-.76,.45h-14.92l-.22-.81h11.54l1.54-1.99s1.76,1.37,2.83,2.35Zm-15.09,23.41h-.39v-13.19l2.6,1.09h8.79l1.29-1.4,2.72,2.1c-.17,.22-.62,.45-1.18,.56v9.94c-.03,.17-1.29,.7-2.1,.7h-.42v-1.62h-9.24v.98c0,.28-1.04,.84-2.07,.84Zm1.4-13.69h-.36v-7.76l2.6,1.06h6.13l1.26-1.37,2.74,2.07c-.2,.22-.62,.45-1.18,.56v4.42c-.03,.17-1.32,.64-2.13,.64h-.42v-.98h-6.55v.59c0,.2-1.09,.76-2.1,.76Zm.67,2.41v3.78h3.53v-3.78h-3.53Zm3.53,8.68v-4.09h-3.53v4.09h3.53Zm-2.1-16.97v3.72h6.55v-3.72h-6.55Zm4.37,12.07h3.44v-3.78h-3.44v3.78Zm3.44,4.9v-4.09h-3.44v4.09h3.44Z"/>
      <path class="cls-1" d="M245.34,85.89l2.97,1.26h11.42l1.43-1.6,2.86,2.29c-.2,.25-.56,.48-1.12,.59v20.5c-.06,.25-1.4,.95-2.44,.95h-.45v-2.46h-11.9v1.6c0,.36-1.09,1.06-2.3,1.06h-.48v-24.19Zm14.67,2.07h-11.9v8.74h11.9v-8.74Zm-11.9,9.55v9.13h11.9v-9.13h-11.9Z"/>
      <path class="cls-1" d="M293.1,85.92c-.14,.31-.48,.5-1.09,.45-.95,.95-2.46,2.18-3.92,3.19h4.79l1.54-1.54,2.69,2.58c-.22,.22-.5,.28-1.06,.31-.9,.81-2.46,1.85-3.61,2.46l-.31-.2c.31-.76,.64-1.9,.87-2.83h-17.67c.11,1.99-.64,3.33-1.57,3.89-.87,.53-2.02,.39-2.38-.5-.28-.87,.25-1.54,1.01-1.93,1.04-.59,2.1-2.13,2.02-3.81h.42c.2,.56,.34,1.06,.42,1.57h7.42v-5.26l3.64,.31c-.03,.36-.28,.64-.95,.73v4.23h1.9c.76-1.48,1.62-3.53,2.1-4.98l3.75,1.34Zm-18.45,13.72l2.83,1.18h5.18v-2.88h-3.19v.67c0,.22-1.18,.78-2.24,.78h-.36v-7.67l2.74,1.12h8.79l1.26-1.34,2.66,2.02c-.14,.2-.53,.42-1.01,.5v4.31c-.03,.17-1.37,.67-2.21,.67h-.42v-1.06h-3.42v2.88h5.32l1.23-1.43,2.86,2.1c-.17,.22-.59,.48-1.18,.59v3.89c0,1.76-.39,2.83-3.5,3.11-.06-.78-.17-1.4-.53-1.79-.34-.36-.92-.67-2.1-.84v-.39s2.32,.14,2.97,.14c.42,0,.53-.14,.53-.5v-4.09h-5.6v7.7c0,.2-.81,.92-2.16,.92h-.45v-8.62h-5.38v6.72c0,.22-1.18,.78-2.24,.78h-.39v-9.46Zm3.28-10.7c-.11-1.43-1.12-3.13-2.16-4.12l.28-.2c6.55,1.26,4.26,6.16,1.88,4.31Zm10.75,8.18v-3.47h-9.21v3.47h9.21Z"/>
      <path class="cls-1" d="M307.19,93.31c2.18,0,3.95,1.76,3.95,3.95s-1.76,3.98-3.95,3.98-3.98-1.79-3.98-3.98,1.79-3.95,3.98-3.95Zm0,6.92c1.62,0,2.94-1.34,2.94-2.97s-1.32-2.94-2.94-2.94-2.97,1.32-2.97,2.94,1.32,2.97,2.97,2.97Z"/>
    </g>
  </g>
</svg>