<?xml version="1.0" encoding="utf-8"?>
<!-- Generator: Adobe Illustrator 27.0.0, SVG Export Plug-In . SVG Version: 6.00 Build 0)  -->
<svg version="1.1" id="圖層_1" xmlns="http://www.w3.org/2000/svg" xmlns:xlink="http://www.w3.org/1999/xlink" x="0px" y="0px"
	 viewBox="0 0 607.4 187" style="enable-background:new 0 0 607.4 187;" xml:space="preserve">
<style type="text/css">
	.st0{fill:#FFF100;}
</style>
<g>
	<g id="_圖層_2">
		<g id="_圖層_1-2">
			<g>
				<g>
					<path class="st0" d="M363.3,62.3c2.6,1.1,3.1,2.3,3.1,4.3c0,4.1-3.4,6.1-15.1,6.1h-6.4c-8,0-9.9-1.8-9.9-8.5v-26h-6
						c-1.3,17.2-7.7,30.5-29.1,36.4l-0.3-0.7c14.3-8.7,17.6-21.2,17.9-35.7h-17.3l-0.6-2h27.9V8.2l13.1,1.1c-0.1,1-0.6,1.7-2.6,2
						v25.1h13.5l5.3-6.7c0,0,6,4.5,9.6,7.6c-0.2,0.8-1,1.1-2,1.1h-19v23.2c0,1.1,0.4,1.5,2.2,1.5h5c1.5,0,2.9,0,3.9-0.1
						s1.3-0.3,1.9-1c1-1.5,2.3-5.2,4.1-10.1h0.6L363.3,62.3L363.3,62.3z M306.3,12.9c25.1,6.7,15.3,26.7,5.6,18.3
						c-0.3-6.3-2.9-13-6.2-17.9L306.3,12.9z M362.7,18c-0.4,0.8-1.4,1.4-3.1,1.2c-5.2,5.6-11.4,10.7-17.2,14.2l-0.6-0.5
						c2.2-5,5.2-13.4,7.5-20.7L362.7,18z"/>
					<path class="st0" d="M378.9,53.7c2.6,6.9,2.5,12.2,0.5,14.9c-1.4,2-5.1,2-6.4-0.5c-1.1-2.2-0.1-4.3,1.9-5.7
						c1.4-1.6,3.4-5.5,3-8.8C377.8,53.7,378.9,53.7,378.9,53.7z M440.6,37.9c-0.3,0.8-1,1.3-2.8,1.3c-1.6,5.2-3.8,10.7-6.9,16
						c0.7,2.2,1.5,4.3,2.7,6c0.6,1.2,1,1.1,1.5-0.1c1-1.8,2.5-5.3,3.5-8.3l0.8,0.1L438,65c1.8,4.6,2.2,7.3,0.8,8.3
						c-3.7,2.7-8.6-1-10.6-4.1c-1.2-1.9-2.2-3.9-3-6.1c-3.9,4.5-8.8,8.5-14.8,11.5l-0.6-0.8c5.8-4.4,10.2-10.2,13.6-16.5
						c-0.3-0.8-0.5-1.8-0.7-2.7c-0.4,0.4-0.8,0.6-1.5,0.6h-6v4.5l6.3-0.8l0.1,0.8c-4.5,2.5-11.5,5.8-21.8,10.2
						c-0.4,0.9-1.1,1.5-2,1.8l-4-9.8c-1.1,0.6-2.6,0.4-4-0.8c0.1-3-1.3-6.7-2.7-8.9l0.8-0.3c9.1,2.9,8.7,8.5,6,10
						c1.3-0.1,3.2-0.2,5.5-0.5v-6.1H395l-0.6-2h5.2V47h-4.4l-0.6-2h5v-6.2h-4.3l-0.6-2h4.9v-5.5h-5.2l-0.5-1.7
						c-3.4,4.6-9.2,10.7-14.5,14.9c2.5-0.1,5.4-0.3,8.4-0.6c-0.3-2-0.7-3.8-1.2-5.2l0.8-0.3c12.8,6.7,5.3,16.4,0.6,11.1
						c0.1-0.8,0.1-1.8,0.1-2.7c-2.7,1.4-6.1,3-9.7,4.5c-0.7,1-1.5,1.6-2.3,1.8l-2.5-8.8c0,0,1.7-0.3,2.3-0.8
						c2.6-2.2,5.6-6.9,8.1-11.7c-1.5,0.8-3.3,1.8-5.1,2.6c-0.5,0.8-1.1,1.5-1.8,1.8l-3.7-8.8c0,0,1.4-0.4,2-0.8
						c2.4-3.1,5.5-12.9,6.2-18.1l10.4,4.6c-0.3,0.7-1,1.2-2.3,1.1c-2.8,4.3-7.3,10-11.3,13.6c2.2,0.1,4.9,0.1,7.7,0
						c0.9-2.1,1.7-4,2.2-5.6l7.8,5.5c2.4-5.6,3.7-13.6,4.1-18.8l8.9,3.9c-0.3,0.8-0.9,1.2-2.6,1.1c-0.6,1.5-1.5,3.1-2.3,4.7
						c2.7,0.9,4.1,2.2,4.7,3.3c1.3-4.5,2-9.4,2.2-12.9l8.8,3.7v-4l11,1.2c-0.1,0.9-0.8,1.8-2.6,2l-0.1,1.9
						c11.3,3.4,8.8,10.9,4.7,10.9c1.3,1.1,4.3,3.7,6.3,5.6c-0.2,0.8-0.9,1.1-1.9,1.1h-9.2c0.1,4.4,0.3,8.5,0.6,12.4c0.9-3,1.5-6,2-9
						L440.6,37.9L440.6,37.9z M382.7,53.2c11.4,8.5,4.1,18.1-0.3,12.6c0.6-4.1,0.1-8.9-0.6-12.4L382.7,53.2z M420,29.4l-0.1-3.2
						c-1,1.8-3.7,2.5-5.9,0.4c0.1-1.5-0.3-3.1-0.7-4.7c-1.8,2.7-3.8,5.2-6.2,7.3l-0.7-0.7c0.4-0.8,0.8-1.8,1.2-2.7
						c-1.3,0.6-2.9,0.6-4.4-0.8c0.1-1.3-0.1-2.7-0.4-3.9c-1.8,2.7-3.7,5.5-6.1,7.8l-0.1-0.1c-0.5,0.4-1.3,0.6-2.2,0.4l-0.3,0.4
						L420,29.4L420,29.4z M408.1,60.5V31.3h-1.8v29.3L408.1,60.5z M417.7,13.9c-0.7,1.6-1.6,3.4-2.6,5.2c2.7,1,4.2,2.4,4.8,3.7v-9.5
						C419.5,13.8,418.9,14,417.7,13.9z M418,33.4c0,0,1,1,2.2,2.2c-0.1-1.4-0.1-2.8-0.1-4.3h-4.9v5.5h0.4
						C415.6,36.9,418,33.4,418,33.4z M415.2,45h0.2l2.2-3.3c0,0,1.8,1.7,3.4,3.3c-0.2-2-0.4-4.1-0.6-6.2h-5.2L415.2,45L415.2,45z
						 M418.2,49.6c0,0,2.4,2.1,4.1,3.9c-0.4-2.2-0.8-4.5-1.1-6.9c-0.3,0.2-0.7,0.3-1.1,0.3h-4.9v6.3h0.4L418.2,49.6L418.2,49.6z
						 M431.9,24.5c-0.7-0.1-1.4-0.6-2.1-1.2c0.1-2.5-0.6-5.3-1.5-7.6c-0.1,4.7-0.2,9.2-0.2,13.6h0.3L431.9,24.5z"/>
					<path class="st0" d="M476.2,8.3c0,0,5.3,4.4,8.5,7.3c-0.2,0.8-1,1.1-2,1.1h-22.5l10.7,2.4c-0.2,0.8-0.9,1.4-2.2,1.5
						c-3.6,3.6-9.3,7.6-14.3,10.1c4.9-0.1,11.9-0.5,19.2-0.8c-1-2.9-2.6-5.7-4.3-7.8l0.6-0.4c21.8,5,13.5,22.2,5.2,15.3
						c-0.1-1.6-0.3-3.3-0.8-4.9c-3.3,1.3-7.5,2.9-12.3,4.5l9.7,0.8c-0.1,0.9-0.5,1.5-2.2,1.8v7.8h1.5l4.5-6.6c0,0,5.2,4.5,8.1,7.4
						c-0.2,0.8-1,1.1-2,1.1h-12.2v9.7c4.8-0.6,9.8-1.3,14.8-2l0.1,0.8c-6.3,3.4-16.2,7.9-31.7,13.8c-0.5,0.9-1.3,1.5-2.2,1.8
						l-4.6-11.8c2.9-0.2,7.8-0.7,13.7-1.4V49h-12.2l-0.6-2h12.7v-9.5c-2,0.6-4.1,1.3-6.2,2c-0.6,0.8-1.2,1.3-1.9,1.7l-4.4-10.7
						c0,0,1.8-0.3,2.5-0.7c3-2,7.1-9.1,8.4-13.1H447l-0.6-2h25.1C471.5,14.8,476.2,8.3,476.2,8.3z M494.7,56.3c0,0.7-4,2.5-7.4,2.5
						h-1.7V13.9l11.6,1.1c-0.1,1-0.6,1.7-2.5,2V56.3L494.7,56.3z M511.6,10c-0.1,1.1-0.8,1.8-2.5,2V64c0,6.5-1.5,10.1-12.1,11
						c-0.3-3.1-0.7-5.3-1.9-6.8c-1.3-1.5-2.8-2.5-6.6-3.2V64c0,0,7.9,0.5,9.6,0.5c1.1,0,1.5-0.4,1.5-1.3V8.9
						C499.5,8.9,511.6,10,511.6,10z"/>
					<path class="st0" d="M553,25.6c-0.2,0.8-0.8,1.3-2.6,1.3c-1.4,2.7-3.2,5.9-5.2,9.1l4,1.5c-0.2,0.6-0.8,1.1-2.2,1.3v33.5
						c-0.1,0.6-4.1,2.4-7.7,2.4h-1.8v-29c-1,1-2.1,2.1-3.2,3l-0.7-0.6c3.8-7.8,6.7-19.2,7.7-26.5h-7.3v16.2
						c0,11.9-0.8,27.4-15.4,37.3l-0.6-0.5c5.6-10.8,5.8-24.6,5.8-36.8V15.7l11.6,3.9h15.8l-0.2-0.1c-0.7-4.1-3.1-8.3-5.5-11l0.4-0.4
						c15.6-0.1,16.5,8.3,12.5,11.5h12.7l4.8-6.6c0,0,5.5,4.5,8.6,7.5c-0.2,0.8-1,1.1-2,1.1h-39.9L553,25.6L553,25.6z M577.8,28.8
						c0,0,4.5,4.6,6.7,7.6c-0.2,0.8-0.9,1.1-1.9,1.1h-7.9v26c0,6.6-1.5,10.2-12.3,11.1c-0.2-3.2-0.6-5.4-1.9-6.9
						c-1.3-1.5-2.8-2.5-6.7-3.2v-0.9c0,0,8.1,0.5,9.7,0.5c1.1,0,1.5-0.3,1.5-1.2V37.5h-15.2l-0.6-2h15.8V22.1l12.2,1
						c-0.1,1-0.8,1.7-2.5,2v9.1L577.8,28.8L577.8,28.8z M551.8,40.6c19.2,6.8,9.6,21.6,2.2,14.2c0.1-4.8-1.3-9.9-2.8-13.9
						L551.8,40.6z"/>
					<path class="st0" d="M22,149.6c5.2,3.5,13.9,4.4,30.4,4.4c8.1,0,14.8-0.1,22.8-0.6v0.8c-4,0.8-6.3,4.6-6.8,8.5H48.8
						c-16,0-21.8-3-27.5-10.2c-1-1.5-1.9-1.3-2.5,0.1c-1,2.2-2.1,5.6-3.4,9.4c0.2,0.7-0.1,1.1-0.6,1.4l-6.4-9.6
						c3.6-1.5,8.8-4.6,10.6-5c2-4.4,3.6-9.9,4.2-14.6h-2.8l-2.8,2.7l-7.5-5.1c0.7-0.5,1.8-1.1,2.9-1.5c2.3-3.2,5.3-7.8,7.1-11h-9.8
						l-0.6-2h10.6l4-4l7.8,7.1c-0.6,0.7-2,1.1-3.6,1.2c-1.9,2.9-4.8,7.4-7.1,10.6h1.4l4.5-4.5l6.3,4.9V111l9.7,3.7h3.2v-5.6H29.9
						l-0.6-2h16.9v-9l11.9,1.1c-0.1,1-0.6,1.8-2.6,2v5.9h3.4l4.9-6.1c0,0,5.5,4.1,8.9,6.9c-0.2,0.8-1,1.1-2,1.1H55.6v5.6h2.7
						l4.3-4.6l8.7,6.7c-0.4,0.6-1.3,1.2-2.8,1.5v17.3c-0.1,0.3-1.3,1-2.9,1.5c1.8,1.3,5.3,4,7.7,5.9c-0.1,0.8-1,1.1-2,1.1H55.5v6.6
						c0,0.9-4.1,2.9-7.6,2.9h-1.8v-9.5H30.3l-0.6-2h16.5v-6.7h-3.7v1.4c0,0.8-4.1,2.9-7.8,2.9h-1.3v-5c-0.3,0.1-0.6,0.1-0.9,0.1
						c-1.9,5-5.8,10.3-10.8,14.5C21.7,149.3,22,149.6,22,149.6z M11.6,99.6c21.6,0.8,13.6,17.4,4.8,11.4c-0.6-4.1-2.9-8.3-5.3-11.1
						C11.1,99.9,11.6,99.6,11.6,99.6z M42.5,116.6v7.2h3.7v-7.2H42.5z M46.2,133.4v-7.6h-3.7v7.6H46.2z M55.5,116.6v7.2H59v-7.2
						H55.5z M59,125.8h-3.4v7.6H59C59,133.4,59,125.8,59,125.8z M63,137.7c-0.8,0.2-1.6,0.3-2.4,0.3H59v-2.6h-3.4v6.7h3.8
						C59.4,142.1,63,137.7,63,137.7z"/>
					<path class="st0" d="M88.6,144.3c3.2,7.5,3.2,13.2,0.9,16.1c-1.7,2.1-6,1.8-7.4-1.1c-1.2-2.6,0-5,2.3-6.6
						c1.5-1.5,3.8-5.3,3.3-8.4L88.6,144.3L88.6,144.3z M81.8,135.1c0,0,1.9-0.4,2.7-1c3.1-2.1,6.9-6.7,10.2-11.5
						c-2.1,1-4.5,2.1-7,3.2c-0.5,0.8-1.1,1.4-1.8,1.7l-4.1-9.5c0,0,1.6-0.4,2.3-0.9c3.2-3.1,7.6-13.2,8.7-18.7l11,5.5
						c-0.3,0.6-1.1,1.1-2.4,1c-3.2,4.2-8.8,9.8-13.7,13.4c2.8,0,6.2,0,9.8-0.1c1.5-2.5,2.7-4.8,3.4-6.8l9.8,6.7
						c-0.3,0.6-1.3,1.1-2.7,0.7c-4,4.8-11.8,11.7-18.9,16.2c3.5-0.2,7.8-0.5,12.3-0.8c-0.6-2.1-1.4-4.1-2.2-5.8l0.7-0.4
						c16.2,5.8,8.6,17.9,2.4,12.2c0-1.2-0.1-2.4-0.4-3.6c-3.8,1.9-9,4.3-15,6.7c-0.6,0.7-1.3,1.3-2,1.5L81.8,135.1L81.8,135.1z
						 M94,143.5c14,8.9,4.6,20.3-0.8,13.4c0.9-4.4,0.6-9.4-0.1-13.2L94,143.5L94,143.5z M101,142.4c16.4,5.2,8.8,17.7,2.7,12
						c0.1-4-1.5-8.6-3.4-11.7L101,142.4L101,142.4z M131.8,114.5V127h2.5l4.5-5.9c0,0,5,4,8.1,6.7c-0.1,0.8-0.9,1.1-1.9,1.1h-34.2
						l-0.6-2H122v-12.5h-12.5l-0.6-2H122V98.7l12.3,1c-0.1,1-0.6,1.7-2.5,2v10.8h3.4l4.6-6c0,0,5.2,4.1,8.3,6.9
						c-0.2,0.8-1,1.1-2,1.1C146.2,114.5,131.8,114.5,131.8,114.5z M137.8,131.9l8.3,6.4c-0.5,0.6-1.1,1.1-2.7,1.4v22.7
						c0,0.4-3,2-8.1,2h-1.8v-5.9h-11.9v4.3c0,0.6-2.9,2.2-7.6,2.2h-1.7v-31.7l10.1,3.8h10.8L137.8,131.9L137.8,131.9z M133.6,156.6
						V139h-11.9v17.6L133.6,156.6L133.6,156.6z"/>
					<path class="st0" d="M213.2,113.1c0,0,5.3,4.5,8.4,7.5c-0.1,0.8-0.9,1.1-2,1.1h-10.8v22.1c0,0.8-4.4,2.8-8.3,2.8h-1.8V141h-7.4
						v4.4c0,0.8-4.3,2.9-8.1,2.9h-1.8v-26.6h-7.1V157h30.1l5.4-7.4c0,0,6,5,9.6,8.3c-0.2,0.8-1.1,1.1-2.1,1.1h-42.5l-2.9,4.9
						l-10-5.5c0.6-0.8,1.4-1.6,2.2-2.3v-34.4h-9.5l-0.6-2H164v-19.6l12.7,1.2c-0.2,1.1-0.8,1.8-2.5,2v16.4h7.1V98.6l12.5,1.1
						c-0.1,1-0.6,1.8-2.6,2v18h7.4v-20l12.7,1.1c-0.1,1-0.6,1.8-2.6,2v16.3L213.2,113.1L213.2,113.1z M198.7,121.7h-7.4v17.4h7.4
						V121.7z"/>
					<path class="st0" d="M267.6,128.1c5.7,5.4,16.3,7.6,25.6,8.3l-0.1,0.8c-3.6,1.1-6,4.4-6.9,9.2c-4.1-1.6-7.8-3.6-11-5.9v21.7
						c0,0.6-4.6,2.4-8,2.4h-2v-29.1l5.2,0.4c-1.9-2.2-3.5-4.8-4.8-7.9h-5.2c-2.2,3.2-5.2,6-8.8,8.4l5.6,0.5
						c-0.1,0.9-0.6,1.6-2.2,1.8v5.9c-0.2,8.3-4.3,16.7-26.3,20.2l-0.4-0.6c14.4-5.1,16.7-12.5,16.7-19.7v-4.5
						c-5.2,2.3-11.3,4.1-18.1,5.4l-0.4-0.8c9.8-3.7,17.2-9.7,21.5-16.5h-2.6v0.7c0,1-4.3,3.2-8.5,3.2h-1.5V98.7l10.6,4.1h27.9
						l4.4-4.9l9.2,6.9c-0.4,0.6-1.3,1.3-2.7,1.5v22.4c-0.1,0.6-5.1,2.3-8.4,2.3h-1.8v-2.9H267.6z M245.6,104.8v9.5h9.4v-9.5
						C255,104.8,245.6,104.8,245.6,104.8z M245.6,126.2h9.4v-9.9h-9.4V126.2z M264.8,104.8v9.5h10.1v-9.5
						C274.9,104.8,264.8,104.8,264.8,104.8z M274.9,126.2v-9.9h-10.1v9.9H274.9z"/>
					<path class="st0" d="M299.6,114.9c20.2,0.7,12.8,16.3,4.5,10.8c-0.6-3.8-2.8-7.8-5-10.4L299.6,114.9L299.6,114.9z M325.2,108.3
						c-3.1,9.2-8.7,26.3-9.7,30.5c-0.6,2.5-1.3,5.2-1.2,7.1c0.1,3.8,3.4,5.7,3.2,11.6c-0.1,3.6-2.9,6-7,6c-1.9,0-3.9-0.8-4.7-3.5
						c1.3-6.8,1-13.1-0.6-14.2c-1-0.6-2.3-1.1-3.8-1.2v-1.2h3.4c1.2,0,1.5,0,2.4-1.5c1.2-1.9,6.9-13.2,17.1-33.9L325.2,108.3
						L325.2,108.3z M304.9,99.8c21.6-0.6,15.6,16.1,6.6,11.3c-1.3-4-4.5-8.3-7.1-10.9L304.9,99.8L304.9,99.8z M362.7,133.9
						c-0.5,0.8-1.2,1.1-2.9,1.2c-2.7,5.9-6.3,11.1-11.1,15.5c5.3,1.8,11.4,2.7,17.9,3.2v0.8c-4.4,1.3-7.3,4.6-8.5,9.7
						c-6.9-1.9-12.7-4.2-17.2-7.9c-6.6,3.9-14.6,6.7-24.4,8.3L316,164c8.1-2.9,14.9-7,20.3-12c-3.6-4.6-6.1-10.6-7.7-18.9h-6.3
						l-0.6-2h26.5l5.6-5.2L362.7,133.9L362.7,133.9z M319.6,129.6c5.4-7.7,9.5-19,10.3-31.4l13.6,3.2c-0.3,1-1.1,1.6-2.7,1.7
						c-0.3,0.9-0.6,1.8-0.8,2.6h11.2l4.8-4.3l8.3,6.7c-0.6,0.6-1.4,1-2.8,1.2c-1,8.8-2.9,13.9-6.6,16c-2.3,1.4-5,2-9.2,2
						c0-2.5-0.3-4.8-1.4-6.1c-1.3-1.4-3.4-2.4-6.4-3.1v-0.8c2.8,0.2,7.3,0.5,8.7,0.5c1.1,0,1.7-0.1,2.2-0.5c1.2-0.8,2.2-4.3,3-9.7
						h-12.4c-4.2,11-10.4,17.9-19,22.5L319.6,129.6L319.6,129.6z M329.8,133.1c2.2,6.5,6.1,11,11.1,14c3.4-4.2,6-8.9,7.6-14H329.8z"
						/>
					<path class="st0" d="M428,103.8c0,0,6.3,4.6,10.1,7.8c-0.2,0.8-1,1.1-2.1,1.1h-33c-1.5,2.9-3.4,5.7-5.5,8.5l2.9,1h16.4l4.6-5.2
						l9.5,7.3c-0.5,0.7-1.5,1.4-3.1,1.7v27.3c0,6.6-1.5,10.3-12.6,11.3c-0.3-3.4-0.6-5.7-1.8-7.3s-2.7-2.7-6.4-3.4v-0.8
						c0,0,7.6,0.4,9.2,0.4c1.1,0,1.4-0.5,1.4-1.4v-7h-19.2c-1.1,7.1-4.6,14.6-14.7,19.7l-0.4-0.5c5.1-7.8,5.3-17.9,5.3-27.2v-5.7
						c-4.3,3.8-9.2,7.2-15,9.9l-0.6-0.6c8.7-7.4,14.9-17.7,19-27.9h-17.7l-0.6-2h19c1.7-4.5,2.9-8.8,3.9-12.8l13.5,3.8
						c-0.3,0.8-0.8,1.4-2.7,1.5c-1,2.4-2.1,5-3.4,7.5h18.3L428,103.8z M417.7,143.2v-8.7H399v2.6c0,2-0.1,4-0.3,6.1H417.7z
						 M399,124.2v8.3h18.7v-8.3H399z"/>
					<path class="st0" d="M504.4,152.8c0,0,5.7,4.3,9,7.4c-0.2,0.8-1,1.1-2,1.1h-38.7l-0.6-2h5.9v-53.2h-2.3V106
						c-0.5,0.3-1,0.6-1.9,0.8v16c-0.1,0.6-3.9,1.9-6.7,2v10.6h0.7l3.6-5.7c0,0,4.1,4,6.2,6.6c-0.1,0.8-0.8,1.1-1.8,1.1h-8.6v13.1
						c3.1-0.6,6.4-1.1,9.7-1.7l0.1,0.8c-5.7,3.1-14.6,7.6-27.4,12.9c-0.4,0.9-1.2,1.6-2.1,1.8l-3.4-10.4c1-0.1,2.4-0.3,3.9-0.5
						v-25.1l8.6,0.8c-0.1,0.6-0.4,1.1-1.4,1.2v22.1l3.1-0.5V122h-1.4v1.4c0,0.6-2.7,2.4-7.1,2.4h-1.5V100l9.5,3.6h6.5l3.9-4.2l7,5.3
						l-0.1-0.6h23.7l4.8-6.2c0,0,5.3,4.2,8.5,7.1c-0.2,0.8-1,1.1-2,1.1h-22.4v14.1h9.7l4.3-4.8l9,6.8c-0.5,0.6-1.3,1.2-2.8,1.5v19
						c-0.1,0.6-4.8,2.6-8.1,2.6h-1.7v-4.3h-10.4v18.3h11.6L504.4,152.8L504.4,152.8z M465.1,120v-14.5h-8.1V120H465.1z M487.8,122.1
						V139h10.4v-16.9H487.8z"/>
					<path class="st0" d="M547.1,131.5l7.4,5.5c-0.3,0.4-1.1,0.9-2.2,1.1v16.6c0,5.4-1.1,8.4-9.4,9.1c-0.1-2.4-0.3-4.4-1.2-5.6
						c-0.8-1.1-1.9-2-4.5-2.4v-1c0,0,4.8,0.3,6,0.3c1,0,1.2-0.4,1.2-1.2v-6c-0.3,3.1-3.6,4.8-6,2c0.1-0.7,0.1-1.4,0.1-2.1
						c-1.7,1.3-3.8,2.8-6.5,4.6c-0.4,0.9-1.2,1.4-2,1.5l-2.6-5.9v13.9c0,0.5-2.3,2.2-6.2,2.2h-1.3v-26.9h-1.3l-1-2h2.2V132l8.5,3.2
						h3c0.1-2.3,0.3-4.5,0.3-6.3h-2.9l-2.3,3.8l-7.3-4.6c0.5-0.6,1.3-1.3,2.2-1.9v-15.8l9.6,1c-0.2,1-0.8,1.7-2.6,2v2.4h-0.1v9
						c1.7-1.9,3.4-4.3,4.9-7.1c-1.4-1.5-2.9-2.7-4.3-3.7l0.6-0.6c2,0.1,3.8,0.4,5.4,0.8c0.6-1.5,1.3-3.1,1.8-4.7l7.6,3.4v-2.7
						l8.8,0.8c-0.1,0.6-0.5,1.1-1.8,1.4v17c0,0.6-3.2,1.8-5.7,1.8h-1.3v-2.3h-3.5c-0.8,1.9-1.7,4.1-2.7,6.3h5.8L547.1,131.5
						L547.1,131.5z M518.1,106.8h14.4c-0.3-0.2-0.6-0.3-1-0.6c0-2.8-1.2-5.8-2.5-7.5l0.5-0.3c12.3,0.1,12.2,6.3,8.5,8.5h3.8l4.5-5.7
						c0,0,5.1,3.8,8.2,6.5c-0.2,0.8-1,1.1-2,1.1h-33.9L518.1,106.8L518.1,106.8z M530.6,144.9c0.2-2.4,0.4-5.1,0.6-7.7h-3.8v7.8
						L530.6,144.9L530.6,144.9z M531.7,126.9L531.7,126.9l9.8-0.1v0.1h2.7v-12.9c-0.5,0.2-1.1,0.3-1.9,0.2c-0.6,0.9-1.2,1.8-1.9,2.5
						c4.6,3.8,1.8,9.3-2.7,7.2c-0.3-0.9-1-1.9-1.6-2.9c-2.3,1.9-4.8,3.4-7.2,4.6l-0.6-0.6v1.8H531.7L531.7,126.9z M537.6,138.8
						c4.7,2.5,6.5,5.5,6.7,7.9v-9.6H537c-1.2,2.6-2.5,5.2-3.6,7.6c1.5,0,3.2-0.1,4.9-0.1c-0.3-2-0.8-4-1.5-5.5L537.6,138.8
						L537.6,138.8z M579,152.8c0,0,4.1,3.7,6.3,6.2c-0.1,0.8-0.8,1.1-1.8,1.1h-19.4v1.8c0,0.6-2.7,2.5-7.1,2.5h-1.5v-40.7
						c-0.8,1.2-1.8,2.3-2.7,3.4l-1-0.5c2.3-7.5,4.2-18.3,4.8-28.1l9.7,2.2c-0.1-0.4-0.3-0.8-0.4-1.3l0.6-0.3
						c17.8,5.2,7.6,17.9,1,11.1c0.2-2.7-0.2-5.5-0.8-8c-0.4,0.2-1,0.4-1.8,0.4c-1,3.4-2.1,6.7-3.4,9.8l3.4,1.3h9.5l3.6-4.8
						c0,0,4.1,3.4,6.5,5.7c-0.2,0.8-0.9,1.1-1.9,1.1h-6.9v10.9l2.6-3.9c0,0,3.6,3.4,5.6,5.6c-0.2,0.8-0.8,1.1-1.8,1.1h-6.4v11.8
						l2.9-4.3c0,0,3.6,3.4,5.6,5.6c-0.1,0.8-0.8,1.1-1.8,1.1h-6.7v13.9L579,152.8z M564.1,115.8v11.8h3.7v-11.8H564.1z M567.8,129.5
						h-3.7v12.2h3.7V129.5z M564.1,158.2h3.7v-14.4h-3.7V158.2z"/>
				</g>
			</g>
		</g>
	</g>
</g>
</svg>
