<?xml version="1.0" encoding="utf-8"?>
<!-- Generator: Adobe Illustrator 27.0.0, SVG Export Plug-In . SVG Version: 6.00 Build 0)  -->
<svg version="1.1" id="圖層_1" xmlns="http://www.w3.org/2000/svg" xmlns:xlink="http://www.w3.org/1999/xlink" x="0px" y="0px"
	 viewBox="0 0 691.7 161" style="enable-background:new 0 0 691.7 161;" xml:space="preserve">
<style type="text/css">
	.st0{fill:#FFF100;}
</style>
<g>
	<g id="_圖層_2">
		<g id="_圖層_1-2">
			<g>
				<g>
					<path class="st0" d="M58.2,24.5l-0.4,2.8l6.7,5c-0.3,0.4-1,0.9-2.1,1.2v13.1c-0.1,0.6-4,2.4-7,2.4h-1.5v-2.3h-6.6v4.9h11.1
						l3.5-4l7.9,5.9c-0.4,0.5-1.2,1.1-2.4,1.3v10.3c0,4.8-1.3,7.5-10.3,8.2c-0.2-2.4-0.4-4-1.4-5.1c-1-1-2.1-1.9-5.3-2.4V65
						c0,0,5.9,0.4,7.4,0.4c0.8,0,1.2-0.4,1.2-1.2v-2.4c-0.8,2.2-3.6,3.5-6.3,1.4c0-0.9-0.2-1.8-0.4-2.7C47.7,62,41.7,63.8,34,65.9
						c-0.4,0.7-1.2,1.2-1.9,1.3l-3-8.8c2.2,0.1,5.8,0.1,10,0.1v-5.2H28v17.6c0,0.5-2.5,2.3-6.6,2.3h-1.5V53.2h-2.7l-0.5-1.7h3.3
						v-3.3l4.5,1.6V27.2l2,0.8L26,24.5H15.8l-0.5-1.7h10.4L25,16.1l10.5,0.7c0,0.7-0.5,1.3-1.7,1.7l0.5,4.2h0.1l3.6-5.2
						c0,0,4.1,3.6,6.5,5.9c-0.2,0.7-0.8,1-1.7,1h-8.4l0.4,2.9c-0.8,1.1-2.6,1.8-4.9,2.1l3.1,1.1h20.1l1.9-2c-1.7,0.4-3.9,0.4-6.1,0
						l0.6-4.1h-4.2L45,22.8h4.9l1-6.6l10.4,1.7c-0.1,0.7-0.6,1.5-2.3,1.6l-0.5,3.4h2.5l3.6-5.2c0,0,4.2,3.6,6.5,5.9
						c-0.1,0.7-0.8,1-1.6,1L58.2,24.5L58.2,24.5z M39.1,46.6h-6.5v0.8c0,0.8-3.7,2.6-7.1,2.6h-0.9l4.1,1.5h10.3L39.1,46.6L39.1,46.6
						z M32.6,32.3v5.6h6.5v-5.6H32.6z M32.6,44.9h6.5v-5.4h-6.5V44.9z M47.3,32.3v5.6h6.6v-5.6H47.3z M53.9,44.9v-5.4h-6.6v5.4H53.9
						z M47.3,53.2v5.1l4-0.1c-0.7-1.4-1.5-2.7-2.4-3.6l0.5-0.4c6.1,0.7,8.8,2.9,9.5,5.1v-6.2L47.3,53.2L47.3,53.2z"/>
					<path class="st0" d="M89.8,52.8c2.3-0.7,4.7-1.3,7.1-2.1l0.2,0.5c-3.3,3.1-8.8,7.7-16.9,13.4c-0.2,0.8-0.8,1.6-1.6,1.8L74.3,57
						c1.5-0.4,4-1,7-1.8v-19h-5.8L75,34.5h6.3V18.1L92,19c-0.1,0.9-0.5,1.5-2.2,1.8v12.9l2.8-5c0,0,3.8,4.1,5.6,6.7
						c-0.1,0.7-0.8,1-1.6,1h-6.8V52.8z M125.4,41.8c0,0,5.1,4.1,8.1,6.8c-0.2,0.7-0.9,1-1.8,1h-14.9v22.1c-0.1,0.5-2.7,2.4-7.1,2.4
						h-1.6V49.6H93.3l-0.5-1.7h15.2V23.6H95.1l-0.5-1.7h25.6l4.2-5.8c0,0,4.8,3.9,7.6,6.5c-0.2,0.7-0.9,1-1.8,1h-13.4v24.2h4.1
						L125.4,41.8L125.4,41.8z M97.6,26.9c16.3,9,8,22.9,1.4,15.8c0.4-5.2-0.7-10.9-2.1-15.5C96.9,27.2,97.6,26.9,97.6,26.9z
						 M117.9,44.4c1.2-4.6,2.5-11.8,3.1-18l10.9,3.3c-0.3,0.8-1.1,1.3-2.5,1.3c-3,5.4-6.7,10.4-10.8,13.8L117.9,44.4L117.9,44.4z"/>
					<path class="st0" d="M186.3,17.1c0,0,4.5,3.8,7.2,6.3c-0.2,0.7-0.9,1-1.7,1H148v14.8c0,10.6-0.4,24.6-12.3,33.7l-0.5-0.4
						c4.4-9.8,4.5-22.4,4.5-33.3V19.4l9.7,3.3h14.3c-0.4-2.7-2.1-5.4-3.6-6.9l0.4-0.3c12.1-1.6,12.6,4.8,9.2,7.2h12.6L186.3,17.1
						L186.3,17.1z M186.2,36.4c0,0,4.3,3.3,6.8,5.6c-0.2,0.7-0.8,1-1.6,1h-8.5l6.4,4.7c-0.3,0.4-0.9,0.8-1.9,1v13
						c-0.1,0.5-4.3,1.9-6.9,1.9h-1.5v-1.9h-17.3l7.9,6c-0.6,0.6-1.8,0.8-3.8,0.3c-5.4,2.3-14,4.3-22.2,5.1l-0.2-0.7
						c6.7-2.5,14.2-7.1,18-10.7h-2.1v0.8c0,0.7-3.6,2.4-6.9,2.4h-1.1V43h-2.6l-0.5-1.7h34.4L186.2,36.4L186.2,36.4z M165.1,26
						c-0.1,0.6-0.5,1.1-1.8,1.3v3.5h8.5v-5.7L181,26c-0.1,0.6-0.5,1.1-1.8,1.3v3.5h1.3l3.6-4.7c0,0,4.1,3.1,6.5,5.4
						c-0.1,0.7-0.8,1-1.6,1h-9.8v7c0,0.3-3.2,1.1-5.9,1.1h-1.6v-2.4h-8.5v1.7c0,0.3-3.2,1-5.9,1h-1.6v-8.3h-5.6l-0.5-1.7h6.1v-5.6
						L165.1,26L165.1,26z M181.4,43h-29.7l8,3.1h18.8C178.4,46.1,181.4,43,181.4,43z M164.9,47.8h-5.7v5h5.7V47.8z M159.2,60.1h5.7
						v-5.6h-5.7V60.1z M163.3,32.5v3.9h8.5v-3.9H163.3z M169.6,64.2c36.4,0.2,20,12.9,12.9,7.9c-2.4-1.9-7.3-5-13.1-7.2L169.6,64.2
						L169.6,64.2z M173.4,47.8v5h5.6v-5H173.4z M178.9,60.1v-5.6h-5.6v5.6H178.9z"/>
					<path class="st0" d="M207.2,35v35c0,1.1-3.1,3.1-6.9,3.1H199V17l8.6,3.6h6.6l3.5-3.7l7.1,5.3c-0.3,0.4-1,0.9-2.1,1.1v12.9
						c-0.1,0.5-3.9,2.1-6.5,2.1h-1.4V35L207.2,35L207.2,35z M207.2,22.2v4.6h7.6v-4.6H207.2z M214.8,33.4v-4.8h-7.6v4.8H214.8z
						 M208,46.2c13.1-0.4,7.9,9.8,2.4,6.2c-0.2-2.1-1.5-4.5-2.9-5.8L208,46.2L208,46.2z M252.6,22.3c-0.4,0.5-1.2,1-2.4,1.3v40.3
						c0,5.6-1.1,8.6-9.7,9.3c-0.1-2.7-0.4-4.7-1.1-5.9c-0.4-0.7-0.8-1.2-1.5-1.7v1.8c-0.1,0.4-3.3,1.6-5.3,1.6h-1.1v-2.7h-5V68
						c0,0.5-2.9,2-5.6,2h-0.9V53.5l5.6,2.2v-5.1h-6.5c-0.9,2.7-1.9,5.6-2.2,6.5c-0.4,1.1-0.7,2.5-0.6,3.5c0,1.8,2.1,2.9,1.9,5.8
						c-0.1,1.8-1.4,3.1-4.5,3.1c-1.1,0-2.2-0.7-2.5-2c0.5-3.6,0.4-6-0.7-6.7c-0.7-0.4-1.3-0.5-2.4-0.7v-1.2h2.7c0.9,0,1,0,1.7-0.9
						c0.7-1,3-4.8,7.1-11.4l0.9,0.2l-0.6,1.8h5.9v-4.8c-2.2,0.2-4.5,0.2-6.6,0.2c-1,1.4-3.1,2.1-5.3,0.7c-0.2-2.1-1.5-4.5-2.9-5.8
						l0.5-0.4c6.6-0.2,8.6,2.3,8.2,4.4c5-1.5,10.9-4.1,14-5.9l5.8,5.9c-0.7,0.5-1.9,0.5-3.5-0.2c-1.1,0.2-2.4,0.4-3.7,0.5v5.4h1.1
						l3.1-3.9c0,0,3.4,2.7,5.5,4.7c-0.2,0.7-0.8,1-1.6,1h-8.1v4.5l1.8-1.9l5.8,4.3c-0.2,0.4-0.8,0.7-1.6,0.9v5.4
						c1.1,0.1,2.3,0.1,2.8,0.1c0.9,0,1.1-0.4,1.1-1.1V35h-7.8v0.7c0,0.7-3.5,2.4-6.8,2.4H226V17.4l8.2,3.1h6.9l3.8-4.3L252.6,22.3
						L252.6,22.3z M231.4,64.6v-6.7h-5v6.7H231.4z M233.9,22.2v4.6h7.8v-4.6H233.9z M241.7,33.4v-4.8h-7.8v4.8H241.7z"/>
					<path class="st0" d="M299.2,23.4c-0.3,0.7-1.1,1.2-2.6,1.1c-5.9,12.1-13.9,19.5-23.8,24.5l-0.5-0.5c6-6.8,12.3-17.9,15.2-29.5
						L299.2,23.4z M307.4,49.1c26.2,9.2,18.2,30.5,8.4,22.1c-0.2-2.4-0.9-4.9-1.6-7.3c-7.6,2.5-18,5.3-31,7.9
						c-0.7,0.9-1.5,1.5-2.4,1.8l-3.6-11.2c0,0,2.2-0.5,3-1.2c4.5-3.5,11.5-16.6,13.4-24.2l12.3,4.4c-0.3,0.7-1,1.2-2.4,1.3
						c-4.3,6.7-12.7,15.1-19.8,20.1c7.4-0.1,18.5-0.4,29.6-1.3c-1.6-4.3-3.9-8.6-6.5-12.1L307.4,49.1L307.4,49.1z M314.3,19.6
						c-0.9,1-3.2,1.6-6,1.8c2.9,8.5,10.5,15.5,20.6,18.5l-0.1,0.7c-3.8,1.5-6.8,5.2-7.7,8.9c-8-6.2-12.5-15.9-14.1-28.6h-7.4
						l-0.5-1.7h6.2l2.5-4.1L314.3,19.6L314.3,19.6z"/>
					<path class="st0" d="M374,42.2l5.6-8c0,0,6.3,5.5,9.9,9c-0.2,0.7-0.9,1-1.9,1h-55l-0.5-1.9L374,42.2L374,42.2z"/>
					<path class="st0" d="M420.1,23.4c-0.3,0.7-1.1,1.2-2.6,1.1c-5.9,12.1-13.9,19.5-23.8,24.5l-0.5-0.5c6-6.8,12.3-17.9,15.2-29.5
						L420.1,23.4z M428.4,49.1c26.2,9.2,18.2,30.5,8.4,22.1c-0.2-2.4-0.9-4.9-1.6-7.3c-7.6,2.5-18,5.3-31,7.9
						c-0.7,0.9-1.5,1.5-2.4,1.8l-3.6-11.2c0,0,2.2-0.5,3-1.2c4.5-3.5,11.5-16.6,13.4-24.2l12.3,4.4c-0.3,0.7-1,1.2-2.4,1.3
						c-4.3,6.7-12.7,15.1-19.8,20.1c7.4-0.1,18.5-0.4,29.6-1.3c-1.6-4.3-3.9-8.6-6.5-12.1L428.4,49.1L428.4,49.1z M435.2,19.6
						c-0.9,1-3.2,1.6-6,1.8c2.9,8.5,10.5,15.5,20.6,18.5l-0.1,0.7c-3.8,1.5-6.8,5.2-7.7,8.9c-8-6.2-12.5-15.9-14.1-28.6h-7.4
						l-0.5-1.7h6.2l2.5-4.1L435.2,19.6L435.2,19.6z"/>
					<path class="st0" d="M509.4,22.4c-0.4,0.5-1.1,1-2.4,1.3v46.4c-0.1,0.6-4.1,2.7-7.4,2.7h-1.4v-5h-34.3v2.1
						c0,1.1-3.5,3.2-7.1,3.2h-1.5V17l9.3,3.7h33l4-4.5L509.4,22.4L509.4,22.4z M464,66.1h9.4l-3.3-5.3c2-1.3,2.3-1.8,2.3-2.8v-1.9
						c-2.4,1-5,1.9-7.7,2.5l-0.5-0.9c4.5-2.1,8.3-5.2,10.9-8.5h-0.5c-0.7,0.7-3.5,1.8-5.8,1.8h-1V37.3l7.3,2.8h12.4l3-3.1l6.2,4.5
						c-0.2,0.4-0.8,0.7-1.6,0.9v6.2c0,0.2-0.5,0.4-1.1,0.7l4.3,3.8V36.3c-0.3,0.2-0.6,0.2-1,0.2h-32.6l-0.5-1.7h13.2v-4.3h-10.2
						l-0.5-1.7h10.6v-5.4l9.4,0.8c-0.1,0.7-0.4,1.1-1.7,1.4v3.2h2.7l3.3-3.9c0,0,3.7,2.7,6,4.7c-0.1,0.7-0.7,1-1.6,1H485v4.3h4.2
						l3.4-4.2c0,0,3.3,2.4,5.7,4.4V22.4H464L464,66.1L464,66.1z M498.2,66.1V53.3c-0.3,0.4-0.9,0.5-2,0.1c-1.1,0.4-2.7,0.8-4.4,1.3
						c9.7,5,5.8,12,1.3,9.4c-1.5-2.8-5.9-7.9-11.8-11.8l0.4-0.8c2.7,0.5,5.1,1.2,7,1.9c1-1,1.9-2.2,2.7-3.3
						c-0.8,0.2-1.6,0.3-2.3,0.3h-1.3v-1.2h-4.7c-1.1,1.3-2.5,2.4-4.1,3.5v5.9c2.1-0.5,4.4-1.2,6.6-1.9l0.2,0.7
						c-2.1,1.6-6.6,5-11.4,8.2c-0.2,0.2-0.4,0.4-0.6,0.6L498.2,66.1L498.2,66.1z M487.9,41.8h-13.2v5.7h13.2V41.8z"/>
					<path class="st0" d="M73.2,111.6c-0.5,0.5-1.1,0.7-2.4,0.8c-2.5,1.3-6.6,3.2-9.7,4.4c1.3,3.6-2.7,7.1-6.7,4.6
						c-0.4-1.2-1.5-2.9-2.8-4.8c-5.4,1.2-12.6,2.7-20.7,4.1c-0.2,0.3-0.4,0.6-0.6,0.8l5.1,2.1c-0.3,0.7-1.2,1.2-2.5,1.1
						c-0.6,0.8-1.2,1.5-1.9,2.2h10v-7.5l11,0.9c-0.1,0.8-0.5,1.4-2.2,1.8v4.8h6.8l4-4.9c0,0,4.6,3.3,7.4,5.6c-0.1,0.7-0.8,1-1.7,1
						H49.7v5.6h11.2l4-5.3c0,0,4.5,3.6,7.1,6.1c-0.2,0.7-0.8,1-1.7,1H49.7v7.6c0,0.5-3.8,1.9-7.3,1.9h-1.5v-9.6H16.1l-0.5-1.7h3.9
						l-0.3-0.2c2.3-3.4,4.6-8.9,5.9-14.4l3.3,1.3l-2.4-6.1c0,0,1.7-0.2,2.5-0.6c2.4-0.7,5-1.9,7.6-3.4H24.7c0.9,4.8-0.9,8.1-3.5,9.2
						c-2.4,1.1-5.4,0.1-6.1-2.7c-0.7-2.7,1-4.5,3.3-5.4c1.9-0.9,4-3.4,3.6-6.3l0.7-0.1c0.6,1.3,1.1,2.4,1.4,3.6h5.1l-2.5-6.3
						c0,0,1.1-0.2,1.7-0.4c2.7-0.7,6-3.2,8.1-5.3H16.9l-0.5-1.7h21.9l0.2-0.2l0.7,0.2h1.2c-0.2-0.1-0.4-0.2-0.5-0.4
						c0.1-2.4-0.8-5-2.1-6.3l0.4-0.3c11.1-0.5,11.3,4.8,8.3,6.9h12l4.3-5.8c0,0,5,3.9,7.9,6.5c-0.2,0.7-0.8,1-1.8,1H43.6l3.7,1.4
						c-0.2,0.6-1,1.2-2.4,1c-2.6,1.4-6.5,2.7-10.2,3.8c3.7-0.1,8.3-0.1,12.9-0.2c2.4-1.9,4.3-3.7,5.6-5.2l8.7,4.5
						c-0.4,0.6-1.3,1.1-2.7,0.8c-2.7,1.9-6.5,4-10.7,6h13.5l4.2-4.1L73.2,111.6L73.2,111.6z M40.9,128.6H29.1
						c-2.7,2.4-5.7,4.2-8.8,5.6h20.6V128.6z M39.1,109c2.3-1.4,4.5-2.9,6.5-4.4c-3.6,0.9-8.5,2.1-14,3.3c-0.2,0.4-0.5,0.8-0.8,1.1
						L39.1,109L39.1,109z M47.8,111.3c6.8,0.2,10.6,2,12.3,4c0.7-1.4,1.4-3.1,1.9-4.6H44.8c-3.4,1.5-7,2.9-10.3,4.1
						c4.3-0.1,9.7-0.1,15.5-0.2c-0.8-0.9-1.6-1.8-2.5-2.6L47.8,111.3L47.8,111.3z"/>
					<path class="st0" d="M124.1,116c0,0,5.4,3.9,8.7,6.7c-0.2,0.7-0.9,1-1.8,1h-22.2v11.3c0,6.1-1.8,10.2-12.8,10.9
						c-0.2-3.1-0.8-5.3-2.4-6.7c-1.5-1.3-3.2-2.4-7.9-3.1v-0.7c0,0,10,0.5,12,0.5c1,0,1.4-0.5,1.4-1.2v-11H75.3l-0.5-1.7h24.3v-11.1
						H78.3l-0.5-1.7h21.3v-9.6c-6.9,0.4-14.2,0.6-20.8,0.4l-0.1-0.8C92,97,109,92.4,117.6,88.4l8.8,8.6c-0.7,0.6-2.3,0.8-4.7-0.1
						c-3.8,0.7-8.2,1.4-13,1.9v10.3h8.8l4.7-5.8c0,0,5.3,3.9,8.5,6.5c-0.2,0.7-0.9,1-1.8,1h-20.1v11.1h10.6L124.1,116L124.1,116z"/>
					<path class="st0" d="M189.1,114.4c-0.4,0.5-1,0.8-2.4,0.4c-3.8,1.4-8.9,2.8-14.2,4c4.1,8.2,12.1,12.3,20.2,14.8l-0.1,0.7
						c-3.3,0.7-5.7,3.4-6.9,7.4c-7.4-5.1-12-11.4-14.5-22.6c-1.3,0.2-2.7,0.5-4,0.8c5.1,8.6,4.7,18.9,1.6,23
						c-1.7,2.2-5.2,2.9-10,2.9c-0.1-2.4-0.5-4.2-1.5-5.4c-0.8-1-2.6-1.9-5.1-2.6v-0.6c2.5,0.2,6.4,0.5,7.8,0.5
						c0.9,0,1.5-0.1,1.8-0.7c0.5-1,0.9-2.7,1-4.7c-7.2,4.1-16.6,7.5-26.1,9.1l-0.4-0.8c10.1-3.6,20.2-10.9,25.8-18.4l-0.1-0.4
						c-6.3,3.8-15.2,7.5-23.6,9.6l-0.3-0.7c7.4-3.7,15.4-10.5,20.1-16.6c-5.7,3.1-12.5,5.5-19.4,7.2l-0.4-0.7
						c6.9-3.4,13.3-8.7,17.5-13.4h-10.3l-0.5-1.7h27.8l4.2-5.4c0,0,2.4,1.8,4.8,3.8c0.1-1.6,0.1-3.7,0.1-5.4h-36.2
						c0.5,4.5-1,7.6-3.2,9c-2.1,1.3-5.4,0.6-6.3-2.1c-0.8-2.5,0.7-4.5,2.8-5.4c2-1.1,4.5-3.9,4.4-6.9h0.7c0.5,1.3,0.9,2.5,1.2,3.7
						h16.2c-0.2-0.1-0.4-0.2-0.7-0.4c-0.2-2.9-1.9-5.9-3.9-7.5l0.4-0.3c13.3-1.6,13.3,5.9,9.3,8.2h14.5l4.1-4.2l7.2,6.8
						c-0.5,0.5-1.1,0.7-2.4,0.8c-1.8,1.5-4.8,3.4-7.4,4.6c0.7,0.5,1.2,1,1.8,1.4c-0.1,0.7-0.9,1-1.7,1h-15.2
						c-1.9,1.9-4.3,3.8-6.9,5.4c2.2,1.7,4,3.7,5.4,5.8c5.4-3.4,11.2-8.1,14.3-11.1L189.1,114.4L189.1,114.4z"/>
					<path class="st0" d="M228.3,90.3c-0.1,0.9-0.7,1.4-2.2,1.7c1.3,23.8,7.1,37,27.6,43.5l-0.1,0.7c-4.4,0.9-7.1,4.2-8.1,9
						c-14.6-7.5-18.6-21.7-19.9-41.6c-1.1,16-5.7,31.4-28.8,42.1l-0.6-0.8c21.2-16.8,20.4-36.2,20.4-55.8L228.3,90.3L228.3,90.3z"/>
					<path class="st0" d="M256.5,103.2c17,1,10.1,13.9,3.2,8.9c-0.4-3.1-2.1-6.5-3.6-8.7C256,103.4,256.5,103.1,256.5,103.2z
						 M310.4,126.6c-0.4,0.7-1,0.8-2.5,1c-2.2,3.3-5,6.1-8.2,8.4c4.2,0.7,8.6,1,13.2,1.1v0.7c-3.3,1.1-5.3,3.9-6.1,7.9
						c-5.9-1.1-11.1-2.7-15.5-5.1c-6.5,2.7-14.3,4.3-23.1,4.9L268,145c-0.9,0.5-2,0.9-3.2,0.9c-1.5,0-3.2-0.7-3.8-3.2
						c1.3-6.4,1-12.6-0.4-13.6c-0.9-0.6-1.9-0.9-3.2-1v-1.1h2.7c1,0,1.2,0,1.9-1.3c0.8-1.6,4.7-11,11.7-28.2l0.9,0.2
						c-2,7.7-5.3,21.8-6,25.4c-0.4,2.2-0.9,4.5-0.8,6.1c0.1,3.5,2.9,5.5,2.7,11.2c-0.1,1.8-0.8,3.3-2.1,4.3c7-1.7,13.1-4.1,18.2-7.3
						c-3.4-2.8-6.1-6.6-8-11.6h-5.1l-0.5-1.7h25l3.5-3.1h-20.7v0.2c0,0.5-2.4,1.7-6.5,1.7h-1.5v-17.1l3.8,1.4V89l8.3,3.1h13.5
						l3.7-4.1l7,5.1c-0.4,0.5-0.9,0.9-2.2,1.2v11.1c0,0.1-0.2,0.2-0.5,0.4l5.9,4.3c-0.4,0.5-0.9,0.9-2.2,1.2v9.6
						c0,0.2-1.7,1-4.7,1.3L310.4,126.6L310.4,126.6z M260.9,89c18.1,1.4,10.8,15.1,3.5,9.8c-0.5-3.4-2.3-7-3.9-9.5L260.9,89
						L260.9,89z M277.4,107.6l3.9,1.4h20.2l2.2-2.5c-1,0.2-2.2,0.3-3.6,0.3h-1.5V93.8h-14.3v12.1c0,0.5-2.4,1.7-6.4,1.7L277.4,107.6
						L277.4,107.6z M279.8,125.9c2.7,3.8,6.8,6.3,11.6,8c2.7-2.4,4.9-5,6.5-8H279.8z M280.7,119.3h2.9v-8.7h-2.9V119.3z M285.5,99.9
						l-0.4-1.7h6.4l2.3-3.6c0,0,2.7,2.6,4,4.3c-0.1,0.7-0.7,1-1.5,1H285.5L285.5,99.9z M285.5,106.1l-0.4-1.7h6.4l2.3-3.6
						c0,0,2.7,2.6,4,4.3c-0.1,0.7-0.7,1-1.5,1H285.5L285.5,106.1z M292.7,110.7h-3.3v8.7h3.3V110.7z M298.6,119.4h3.1v-8.7h-3.1
						V119.4z"/>
					<path class="st0" d="M365.9,104.7c0,0,5.3,3.9,8.5,6.6c-0.2,0.7-0.9,1-1.8,1h-54.9l-0.5-1.7h9.4V92.8l10.3,0.8
						c-0.1,0.7-0.5,1.3-2,1.5v15.4h6.5V88.3l11.1,0.8c-0.1,0.9-0.5,1.4-2.2,1.8v8.3h5.7l4.8-5.9c0,0,5.3,3.9,8.6,6.6
						c-0.2,0.7-0.9,1-1.8,1h-17.4v9.6h11L365.9,104.7L365.9,104.7z M350.1,128.7c3.3-3.4,6.2-7.5,8.6-12.4l10.3,5.9
						c-0.5,0.7-1.4,0.9-3,0.7c-13.1,17.4-27.9,21.7-47.9,23l-0.1-0.8c11-2.8,21-6.5,29.2-13.7c-1.5,0.7-3.5,1.2-5.1,1.2h-0.9v-19.3
						l11,0.7c-0.1,0.8-0.4,1.4-2.2,1.8L350.1,128.7L350.1,128.7z M340,120c-0.3,0.6-0.9,1-2.3,0.9c-4.2,5.1-10.8,10.6-18.8,13.7
						l-0.4-0.6c5.1-5.3,9.4-13.6,11.2-19.4L340,120L340,120z"/>
					<path class="st0" d="M427.3,128.5c0,0,4.7,3.3,7.7,5.7c-0.2,0.7-0.9,1-1.7,1h-22.9v8.9c0,0.5-4,1.8-7.4,1.8h-1.6v-10.6h-23.5
						l-0.5-1.7h24v-4.1c-1.3,1.3-3.6,1.9-5.9,0.4c-0.1-1.4-0.7-3-1.4-4.2c-3.5,3.3-8.2,6.1-13.5,7.7l-0.5-0.7
						c4.8-3.8,8.5-9.7,10.3-14.7h-9.1l-0.5-1.7h22.4c-0.3-0.2-0.5-0.5-0.8-0.8c0-1-0.2-2.2-0.5-3.5c-1.4,0.8-3.6,1.3-7,1.5
						c-0.1-1.8-0.2-3.1-1-3.9c-0.7-0.7-1.5-1.4-4-1.8V107c0,0,4.2,0.2,5.2,0.2c0.9,0,1-0.4,1-1v-3.3c-3,1.9-7,4.3-11.8,7.1
						c-0.3,0.8-0.9,1.4-1.6,1.6l-3-7.7c2.9-0.4,9.4-1.6,16.4-3.1v-7.3h-17l-0.5-1.7h16.9l3.6-4.1l7.7,5.8c-0.4,0.5-1.1,1-2.4,1.3v12
						c0,1.1-0.1,2-0.4,2.8c6.9,1.1,6.6,4.8,4.4,6.7h11.3l2.7-3.1c-0.5,0.1-1.1,0.1-1.8,0.2c-0.1-1.8-0.2-3.1-0.9-3.9
						c-0.6-0.7-1.3-1.4-3.8-1.8v-0.7c0,0,3.8,0.2,4.7,0.2c0.8,0,1-0.4,1-1v-3.4c-3,1.9-6.8,4.1-11.4,6.7c-0.3,0.8-0.9,1.4-1.6,1.6
						l-2.8-7.8c2.8-0.4,9.1-1.6,15.8-3v-6.7h-14.8l-0.5-1.7h14.8l3.6-4.1l7.8,5.8c-0.4,0.5-1.1,1.1-2.4,1.3v11.7c0,3-0.7,5-4.5,6
						c1.6,1.2,4.2,3,6,4.4c-0.2,0.7-0.9,1-1.8,1h-14.9l6.9,3.1c-0.3,0.6-0.9,1-2.2,0.9c-0.3,0.4-0.5,0.7-0.9,1.1
						c12-0.7,8.2,9.7,2,6.9c-0.7-1.8-2.2-3.9-3.6-5.3c-2.2,2.1-5,3.8-8.2,5l3.2,0.2c-0.1,0.7-0.4,1.1-1.7,1.4v2.2h12.7L427.3,128.5
						L427.3,128.5z M382,95.3c12.3-3.8,11.5,8.2,5.7,5.9c-1.4-1.6-3.6-3.8-6-5.3L382,95.3L382,95.3z M399.7,121
						c-0.3,0.6-0.9,1-2.2,0.8c-0.5,0.7-1,1.3-1.6,1.9c6.5,0.1,7.4,3.3,5.9,5.3l4.1,0.4c3.3-3,5.4-7.6,6.5-11.5h-19.1L399.7,121
						L399.7,121z M407.5,95.3c11.7-3.8,10.7,7.9,5.1,5.6c-1.1-1.6-3.1-3.8-5.4-4.9C407.2,96,407.5,95.3,407.5,95.3z"/>
					<path class="st0" d="M443.9,127.9c2.7,6.4,2.7,11.2,0.8,13.7c-1.4,1.8-5.1,1.6-6.3-0.9c-1-2.2,0.1-4.3,1.9-5.6
						c1.3-1.3,3.2-4.6,2.8-7.3L443.9,127.9L443.9,127.9z M488.9,105c0,0,4.2,3.8,6.5,6.2c-0.2,0.7-0.8,1-1.7,1h-13.7v24.4
						c0,4.8-1.1,7.9-9,8.5c-0.1-2.2-0.2-3.9-0.9-4.9c-0.6-1-1.5-1.8-4-2.2v-0.8c0,0,4,0.2,5.1,0.2c0.9,0,1-0.4,1-1v-24.2h-12.3
						l-0.5-1.7h16.3l1.5-4.3h-7.6l-2.8,3.2l-5.9-3.8c-0.4,0.4-1.1,0.7-2.2,0.4c-3.2,4.2-9.4,10-14.8,13.8c2.8-0.1,6.4-0.3,10.2-0.6
						c-0.2-2.1-0.6-4.1-1.1-5.7l0.7-0.2c13.7,6.5,5.5,16.9,0.4,11.1c0.1-0.9,0.2-1.8,0.2-2.8c-3.1,1.6-7.3,3.5-11.9,5.4
						c-0.4,0.5-1,0.8-1.5,1l-2.6-8.2c0,0,1.6-0.3,2.2-0.8c2.3-1.8,5.1-5.4,7.5-9.3c-1.4,0.7-2.8,1.3-4.4,2c-0.5,0.8-1,1.3-1.7,1.6
						l-3.4-8c0,0,1.3-0.4,1.9-0.8c2.5-2.7,5.9-11.4,6.8-16l9.3,4.5c-0.2,0.5-0.9,1-2,0.9c-2.6,3.7-7.1,8.5-11,11.6
						c2,0,4.4,0,6.8-0.1c1-2,1.9-3.9,2.4-5.5l7,4.7c0.5-0.4,1.4-0.9,2.2-1.3c2-4.3,4.7-11.6,5.6-14.8l10,1.6
						c-0.2,0.8-0.9,1.6-2.5,1.6l-1.2,3.1h6.8l3.3-3.6l7.1,5.7c-0.5,0.5-1.1,0.7-2.4,0.8l-4.4,12.6h1.2L488.9,105L488.9,105z
						 M447.3,127.3c10.9,7.6,3.7,16.8-0.5,11.4c0.7-3.7,0.4-8-0.2-11.2L447.3,127.3L447.3,127.3z M471.6,126.1
						c-1.3,2.4-3.6,6.2-7,11c-0.1,0.9-0.5,1.6-1.3,1.9l-3.9-5.8c0.4,3.6-3,5.9-5.7,3c0.4-3.4-0.6-7.4-1.8-10l0.7-0.3
						c3.1,1.4,5,3.2,6,4.8c2.6-0.9,7.8-3,12.8-5.1L471.6,126.1L471.6,126.1z M462.1,114.8c15,2.6,7.9,13.9,2.1,8.8
						c0.1-3-1.1-6.4-2.7-8.5L462.1,114.8z M477.8,104.5l2.8-7.9H473c-1.1,2.7-2.3,5.6-3.3,7.9H477.8L477.8,104.5z M481.4,126.5
						c19.6,1,13.2,16.6,6.1,11.1c-1.3-3.2-3.7-7.6-6.5-10.7L481.4,126.5L481.4,126.5z M481.3,124.4c1.7-3.1,4-8.7,5.2-11.5l8.5,6
						c-0.3,0.5-0.9,0.7-2.3,0.4c-2.4,1.6-7.7,4.1-10.9,5.6L481.3,124.4L481.3,124.4z"/>
					<path class="st0" d="M528.6,103.8c-1.7,0.6-3.5,1.2-5.4,1.8c-0.8,7.7-2.2,15.1-5.4,21.6c12.2,7.3,4.3,14.4-1,11
						c-0.8-1.4-1.9-2.9-3.1-4.4c-3.6,4.7-8.4,8.7-15.1,11.9l-0.6-0.5c5.3-4.4,9.1-9.8,11.6-15.5c-3.2-3-6.8-5.7-10.2-7.7
						c0.8-2.7,1.7-6.5,2.5-10.6l-1,0.2c-0.4,0.8-1.1,1.3-1.9,1.4l-1.4-8.6c1.5,0.1,3.4,0.1,5.7,0c1.1-6.4,2.1-12.6,2.4-16l10.2,1.5
						c-0.2,0.7-0.5,1.4-2.4,1.6c-0.5,3.1-1.5,7.7-2.5,12.6l3.8-0.2c0.1-2.2,0.1-4.4,0-6.6l11.1,1.9c-0.2,1-0.9,1.5-2.4,1.6l-0.2,2.6
						c1.7-0.1,3.4-0.3,5.1-0.4L528.6,103.8L528.6,103.8z M511.7,124.3c1.6-5.2,2.5-10.7,3-16.1c-1.5,0.4-3.1,0.8-4.7,1.2
						c-1,4.7-2.2,9.3-3.3,13.1C508.5,123.1,510.2,123.7,511.7,124.3L511.7,124.3z M548.8,109.9c0,0,4.7,3.9,7.5,6.5
						c-0.2,0.7-0.8,1-1.7,1H542v18.9c0,5.7-1.2,8.8-10.2,9.6c-0.2-2.7-0.4-4.7-1.3-6c-0.9-1.3-2.1-2.2-5-2.7v-0.8c0,0,5.8,0.4,7,0.4
						c0.8,0,1.1-0.3,1.1-0.9v-18.4h-10.5l-0.5-1.7h11v-10.2l5.6,0.5c1.2-3.1,2.5-7.2,3.4-10.1h-17.7l-0.5-1.7h18l4.5-4.3l7.4,6.6
						c-0.5,0.5-1.2,0.7-2.5,0.8c-2.7,2.5-6.8,6.2-10.5,8.9l2.8,0.2c-0.1,0.9-0.7,1.4-2.1,1.6v7.6h2.5L548.8,109.9L548.8,109.9z"/>
					<path class="st0" d="M576.9,125.8v-3.9h-6.5c-0.7,8.5-3.2,17.5-11.4,24l-0.6-0.6c4.1-9.7,4.2-22.1,4.2-32.8V93.1l6.7,2.1
						c3.9-2.4,7.9-5.1,10.1-7.1l8.4,7.3c-0.8,0.7-2.2,0.7-4.2,0.1c-3.3,0.8-8.1,1.6-12.9,2.1v6.9h5.6l3.6-4l7.5,5.7
						c-0.4,0.5-1.2,1.1-2.4,1.3V124c-0.1,0.4-4.1,1.8-6.7,1.8H576.9L576.9,125.8z M576.9,120.2v-14.1h-6.2v6.7c0,2.4,0,4.8-0.2,7.4
						H576.9z M609.6,103.7c0,0,4.5,3.7,7.1,6.2c-0.2,0.7-0.8,1-1.7,1h-4.7v31.9c0,0.5-2.6,2.3-7.1,2.3h-1.6v-34.2h-5
						c0,11.5-1.4,26.2-17.8,34.9l-0.5-0.7c8.8-10.2,9.9-22.9,9.9-34.7v-18l8.1,2.5c4.3-2.4,8.8-5.2,11.3-7.2l8.7,7.9
						c-0.8,0.7-2.3,0.7-4.3,0c-3.9,0.8-9.6,1.6-15.3,2.1v11.4h9.1L609.6,103.7L609.6,103.7z"/>
					<path class="st0" d="M639.5,115.8c-0.2,0.6-0.8,1-1.9,1.2v26.2c-0.1,0.6-3.8,2.3-7.2,2.3h-1.7v-22.4c-2.8,2.2-5.9,4.1-9.2,5.8
						l-0.5-0.5c7.7-6.8,13.1-16.3,16.6-25.6h-14.7l-0.5-1.7h15.8c1.6-4.5,2.8-8.9,3.6-12.9l12.2,3.1c-0.2,0.7-0.7,1.3-2.3,1.4
						c-1,2.7-2.2,5.6-3.6,8.5h16.3l4.9-6.2c0,0,5.5,4.2,8.8,6.9c-0.2,0.7-0.8,1-1.8,1h-29.1c-2.2,4.2-4.8,8.3-8.1,12.2L639.5,115.8
						L639.5,115.8z M668.2,134.1c0,0,5.2,3.9,8.4,6.6c-0.2,0.7-0.9,1-1.8,1h-36.3L638,140h12.3v-18.6H640l-0.5-1.7h10.8v-14.3
						l10.8,0.9c-0.1,0.8-0.5,1.3-1.9,1.6v11.8h1.6l4.3-5.4c0,0,4.8,3.6,7.7,6.2c-0.1,0.7-0.8,1-1.7,1h-12V140h4.3L668.2,134.1
						L668.2,134.1z"/>
				</g>
			</g>
		</g>
	</g>
</g>
</svg>
