<?xml version="1.0" encoding="UTF-8"?>
<svg id="_圖層_2" data-name="圖層 2" xmlns="http://www.w3.org/2000/svg" viewBox="0 0 260.32 318.3">
  <defs>
    <style>
      .cls-1 {
        fill: #3a3a3a;
      }
    </style>
  </defs>
  <g id="_圖層_1-2" data-name="圖層 1">
    <g>
      <path class="cls-1" d="M30.17,23.97c-.1,.35-.42,.51-.86,.51h-12.38v4.8c0,.22-1.73,.83-3.17,.83h-.67v-5.63H.29l-.26-.93H13.09v-1.92c-.51,.45-1.34,.61-2.24,.13-.32-.93-1.15-1.98-1.95-2.75-1.79,1.7-4.29,3.1-7.2,3.81l-.22-.42c2.85-1.63,4.99-4.51,5.98-7.14H2.02l-.29-.9H13.57l-.03-.03c-.03-.58-.22-1.47-.64-2.21-.64,.32-1.6,.54-3.07,.64-.1-.77-.19-1.34-.54-1.7-.38-.35-.9-.64-2.21-.83v-.42s2.37,.16,2.91,.16c.48,0,.58-.22,.58-.58v-1.89c-1.7,.99-3.94,2.24-6.78,3.71-.13,.38-.42,.7-.74,.8l-1.79-3.42c1.63-.29,5.38-1.09,9.31-2.02V2.75H1.25l-.29-.9H10.43l1.41-1.6,3.62,2.69c-.19,.26-.64,.51-1.31,.64v6.05c0,.67-.06,1.22-.35,1.66,3.04,.54,3.3,2.14,2.56,3.07h6.53l1.47-1.73-.96,.1c-.06-.8-.13-1.41-.48-1.76-.38-.32-.86-.64-2.11-.83v-.42s2.18,.13,2.72,.13c.45,0,.54-.19,.54-.54v-2.05c-1.7,.96-3.9,2.18-6.72,3.58-.13,.42-.42,.74-.74,.83l-1.73-3.46c1.63-.26,5.31-1.02,9.18-1.95V2.75H15.68l-.29-.9h8.54l1.44-1.6,3.65,2.69c-.22,.26-.64,.54-1.31,.64v5.95c0,1.5-.32,2.46-2.37,2.91,.74,.51,2.11,1.5,3.1,2.3-.06,.35-.42,.51-.9,.51h-7.65l3.33,1.5c-.19,.32-.45,.51-1.18,.45-.22,.32-.48,.61-.77,.93,6.88-.22,5.38,4.9,2.43,3.65-.58-1.06-1.89-2.37-2.98-3.1-1.25,1.12-2.88,2.11-4.7,2.75l1.79,.16c-.06,.35-.26,.61-.9,.74v1.22h7.87l1.92-2.5s2.18,1.7,3.46,2.91ZM6.24,6.85c-.83-.86-2.05-2.02-3.55-2.78l.19-.35c6.21-1.34,6.05,4.19,3.36,3.14Zm4.32,10.21c-.26,.38-.54,.77-.9,1.15,3.65,.13,4.38,1.95,3.74,3.04l1.15,.1c2.08-1.54,3.62-3.97,4.35-6.08H8.58l3.17,1.38c-.16,.29-.42,.51-1.18,.42ZM19.58,6.69c-.74-.83-1.89-1.98-3.36-2.59l.16-.38c6.02-1.41,5.82,3.97,3.2,2.98Z"/>
      <path class="cls-1" d="M35.84,28.29c-.7,.9-2.37,.93-2.94-.13-.48-.96-.03-1.89,.83-2.5,.9-.83,2.02-2.82,1.98-4.61h.48c1.09,3.42,.67,5.98-.35,7.23Zm5.7-9.09c.03-.51-.03-1.02-.1-1.54-1.66,.67-3.9,1.57-6.27,2.4-.26,.35-.54,.58-.86,.67l-1.25-3.78s.77-.16,1.09-.42c1.28-1.12,2.85-3.2,4.19-5.41l-2.85,1.15c-.22,.35-.48,.58-.77,.7l-1.57-3.74s.67-.13,.93-.35c1.44-1.6,3.33-6.14,3.87-8.61l4.26,2.05c-.13,.29-.48,.54-1.06,.48-1.34,2.08-3.68,4.8-5.73,6.59h3.97c.86-1.57,1.6-3.07,2.02-4.26l3.81,2.59c-.16,.26-.61,.45-1.22,.32-1.73,2.59-5.18,6.37-8.29,8.89l5.54-.35c-.26-1.15-.64-2.27-1.02-3.2l.35-.13c6.72,3.33,3.42,8.42,.96,5.92Zm-3.58,7.94c.29-2.08,0-4.58-.42-6.37l.45-.13c4.93,4.35,1.92,8.93-.03,6.5Zm6.05-3.74c1.57-.7,3.9-1.76,6.21-2.88l.13,.29c-.9,1.22-2.34,3.17-4.38,5.6-.03,.45-.26,.83-.58,.99l-1.66-2.3c-.45,.58-1.28,.67-2.05,0-.06-1.6-.96-3.62-1.82-4.86l.38-.19c2.43,.96,3.49,2.24,3.78,3.36Zm18.88-10.88c-.1,.35-.38,.51-.83,.51h-7.33v13.21c0,2.27-.51,3.71-4.22,4.03-.03-1.02-.16-1.79-.51-2.24-.38-.48-.96-.86-2.24-1.06v-.45s2.37,.19,2.94,.19c.48,0,.58-.22,.58-.58V13.02h-7.36l-.26-.9h9.54l.9-2.62h-5.15l-1.34,1.47-3.17-2.27c.32-.26,.83-.51,1.34-.7,1.02-2.24,2.4-5.89,2.91-7.62l4.42,.77c-.1,.38-.45,.8-1.31,.8l-.64,1.66h4.61l1.5-1.63,3.2,2.66c-.26,.26-.58,.35-1.22,.42l-2.37,7.07h1.15l1.73-2.56s2.02,1.76,3.14,2.94Zm-15.61,6.59c-.35-1.6-1.7-3.49-2.94-4.58l.29-.22c7.94,.9,5.63,6.72,2.66,4.8Zm7.14-10.53l1.38-4.03h-4.99c-.58,1.38-1.18,2.88-1.7,4.03h5.31Zm4.96,18.17c-.86-1.79-2.24-4.29-4.1-6.02l.22-.29c9.44,1.63,7.01,8.67,3.87,6.3Zm2.02-10.27c-1.31,.9-4.03,2.27-5.7,3.1l-.26-.29c1.06-1.57,2.56-4.26,3.36-5.7l3.74,2.72c-.16,.26-.51,.35-1.15,.16Z"/>
      <path class="cls-1" d="M76.35,9.21c.22-.19,.51-.35,.77-.48,.32-2.37,.7-6.37,.74-8.19l4.13,.51c-.1,.38-.38,.77-1.15,.83l-.19,2.4h1.28l1.38-1.98s1.57,1.44,2.46,2.4c-.06,.35-.38,.51-.8,.51h-4.42l-.38,3.78h1.7l1.5-1.5,2.82,2.3c-.22,.26-.58,.42-1.22,.51-.22,5.79-.74,8.06-1.98,9.02-.77,.61-1.79,.9-2.98,.9,0-.8-.06-1.5-.42-1.89-.29-.35-.8-.64-1.5-.8-.58,.93-1.18,1.73-1.89,2.4l-.48-.29c.83-2.14,1.41-5.28,1.63-8.26l3.9,.86c-.1,.42-.45,.7-1.15,.74-.48,1.47-1.06,2.85-1.73,4.06l1.89,.06c.42,0,.61-.06,.83-.22,.54-.48,.9-2.53,1.06-7.01h-1.89l-1.15,1.44-2.82-1.73c-.1,.19-.32,.26-.61,.26h-3.33l.13,5.18h.77l1.25-1.89s1.44,1.34,2.27,2.3c-.1,.35-.38,.51-.8,.51h-3.46l.13,4.67h15.81l.13-4.9h-2.91l-.29-.93h3.23l.1-5.22h-2.59l-.29-.9h2.91l.1-4.9h-3.46l-.29-.93h3.42l1.54-1.89,3.49,2.82c-.26,.32-.54,.42-1.22,.54l-.38,16.29h.16l1.41-2.24s1.66,1.57,2.56,2.62c-.1,.35-.42,.51-.83,.51h-29.44l-.26-.9h3.65l-.48-18.69,3.42,.99c.96-1.02,1.92-2.21,2.4-2.85l3.01,3.04c-.22,.26-.61,.26-1.06,.03-.9,.32-2.62,.8-4.26,1.12l.13,4.64h.74l1.22-1.82s1.28,1.18,2.05,2.11Zm1.25,15.55c-2.53,2.18-6.98,4.26-11.71,5.44l-.16-.35c3.55-1.98,6.98-5.38,8.48-7.94l5.22,2.27c-.26,.42-.74,.64-1.82,.58Zm13.05,4.38c-1.18-1.89-3.49-4.35-7.68-6.14l.16-.42c17.34,1.82,10.85,10.02,7.52,6.56Z"/>
      <path class="cls-1" d="M111.33,10.24v-2.66h-12.58l-.26-.93h12.83v-2.59h-8.74l-.29-.93h9.02V.19l4.9,.45c-.06,.45-.32,.77-1.18,.9v1.6h4.32l1.66-1.76,3.46,2.59c-.19,.22-.58,.48-1.22,.61v2.08h.74l1.63-2.18s1.82,1.54,2.91,2.59c-.06,.35-.38,.51-.83,.51h-4.45v3.81c0,.06-.1,.13-.22,.19,.45,.35,2.05,1.57,3.14,2.46-.1,.35-.42,.51-.86,.51h-10.27v2.56h8.03l1.86-2.27s2.11,1.54,3.42,2.66c-.1,.35-.42,.51-.86,.51h-28.67l-.29-.9h12.8v-2.56h-9.98l-.29-.9h10.27v-2.53h-8.93l-.26-.9h9.18Zm-7.87,8.51l3.97,1.54h11.94l1.73-1.89,3.65,2.75c-.19,.26-.61,.54-1.28,.67v7.36c-.03,.22-1.92,.86-3.14,.86h-.64v-1.73h-12.51v.7c0,.35-1.66,1.15-3.17,1.15h-.54v-11.42Zm16.22,2.46h-12.51v2.53h12.51v-2.53Zm0,3.42h-12.51v2.75h12.51v-2.75Zm0-17.98v-2.59h-4.64v2.59h4.64Zm-4.64,3.58h4.64v-2.66h-4.64v2.66Zm6.02,3.42l1.54-1.86c-.61,.29-1.54,.58-2.27,.58h-.64v-1.25h-4.64v2.53h6.02Z"/>
      <path class="cls-1" d="M155.04,3.46c-1.92,.29-4.22,.58-6.72,.83v3.39h6.98l2.11-2.78s2.43,1.89,3.87,3.17c-.1,.35-.45,.51-.9,.51h-12.06v.96c13.44,.9,13.31,8.54,9.18,7.52-1.98-2.3-5.89-5.02-9.18-6.69v4.99c-.03,.19-1.18,.99-3.14,.99h-.67v-6.08c-1.82,2.08-4.26,3.9-7.07,5.38l3.65,1.47h10.65l1.7-1.92,3.62,2.75c-.19,.26-.61,.54-1.25,.67v10.53c-.03,.22-1.89,.93-3.14,.93h-.61v-2.18h-11.2v1.06c0,.38-1.6,1.22-3.14,1.22h-.58V15.81c-1.76,.9-3.68,1.7-5.7,2.37l-.22-.38c4-2.27,7.39-5.82,9.47-9.21h-8.61l-.26-.9h12.67v-3.07c-3.58,.26-7.36,.38-10.81,.38l-.06-.54c6.88-.8,15.55-2.69,20.06-4.29l3.39,3.39c-.35,.29-1.09,.32-2.05-.1Zm-14.17,14.56v4h11.2v-4h-11.2Zm11.2,8.99v-4.1h-11.2v4.1h11.2Z"/>
      <path class="cls-1" d="M182.3,1.44c-.13,.42-.42,.64-1.31,.64-.58,1.73-1.28,3.52-2.11,5.34h4.58l1.34-1.47,3.17,2.37c-.26,.29-.54,.38-1.12,.45l-.93,3.9h.51l1.34-1.47,3.04,2.37c-.26,.26-.51,.35-1.09,.42l-.74,4.1h.48l1.79-1.76,3.26,2.69c-.26,.26-.64,.45-1.31,.54-.48,5.63-1.41,8.54-3.07,9.73-.99,.7-2.27,1.02-3.84,1.02,0-.99-.13-1.86-.54-2.3-.45-.54-1.31-.93-2.46-1.15v-.45c1.06,.1,2.82,.19,3.42,.19,.54,0,.8-.06,1.12-.26,.77-.61,1.47-3.17,1.89-7.36h-18.75c-1.98,1.98-4.26,3.78-6.91,5.25l-.32-.29c4.99-4.1,8.58-9.86,10.98-15.58h-8.32l-.29-.93h8.99c.99-2.56,1.76-5.09,2.3-7.42l4.9,1.44Zm-12.1,19.52c1.76,4.19,.45,7.07-1.25,8.03-1.15,.67-2.62,.38-3.04-.77-.38-1.12,.32-2.02,1.28-2.5,1.31-.7,2.69-2.56,2.56-4.74l.45-.03Zm.61-14.97c-.22-1.89-1.38-3.97-2.53-5.31l.29-.19c8.86,1.38,5.63,8,2.24,5.5Zm15.74,7.58h-11.14c-1.06,1.57-2.24,3.07-3.58,4.51h13.89l.83-4.51Zm-13.44,13.66c.54-2.05,.51-4.42,.16-6.18l.38-.13c6.18,4.35,1.82,9.54-.54,6.3Zm10.43-18.88h-5.12c-.7,1.44-1.54,2.91-2.43,4.32h6.5l1.06-4.32Zm-4.45,17.66c-.03-1.76-.86-3.84-1.76-5.22l.32-.16c7.52,2.21,4.26,7.87,1.44,5.38Zm5.41-1.73c-.32-1.44-1.57-3.07-2.66-4l.26-.22c7.55,.26,5.38,6.02,2.4,4.22Z"/>
      <path class="cls-1" d="M216.06,17.37c-.1,.35-.38,.51-.8,.51h-2.59v5.57h.35l1.18-1.73s1.25,1.12,2.05,2.02V1.66l3.52,1.38h2.62l1.76-1.76,3.36,3.14c-.22,.29-.67,.38-1.41,.38-1.12,2.14-3.07,5.86-4.7,7.97,3.9,2.4,5.47,5.54,5.47,8.32,0,3.3-1.28,5.02-5.06,5.12,0-.93-.13-2.18-.45-2.56-.26-.35-.86-.61-1.7-.77v-.42h2.59c.32,0,.51-.06,.7-.22,.51-.29,.8-.86,.8-2.05,0-2.46-.93-4.99-3.17-7.33,.64-2.18,1.5-6.24,2.02-8.93h-3.14V29.28c0,.26-.99,1.02-2.66,1.02h-.58v-6.24c-.1,.22-.32,.32-.67,.32h-2.91v4.83c0,.29-1.22,.83-2.21,.83h-.58v-5.66h-1.86l-.8,.83-2.34-1.47c.22-.19,.54-.42,.9-.58,.35-1.57,.77-3.84,.96-5.28h-.64l-.1-.38-.26,.03c-.93,5.09-3.07,9.86-8.64,12.7l-.29-.45c2.34-1.76,3.87-4.06,4.83-6.62-.38,.13-.83,.1-1.34-.22-.1-.64-.48-1.38-.93-1.95-.7,.96-1.47,1.82-2.3,2.53l-.45-.29c1.41-2.53,2.56-6.24,3.07-10.01l3.81,.93c-.13,.42-.48,.67-1.22,.7l-.51,1.47h1.06l1.44-1.5,2.53,2.18h3.07v-3.23l3.68,.35c-.06,.35-.26,.61-.9,.7v2.18h.26l1.12-1.54s1.28,1.09,2.02,1.92Zm-.42-10.4c-.1,.35-.38,.51-.83,.51h-6.62v1.06l.13-.22c8.06-.13,7.39,6.27,4.35,4.83-1.02-1.38-2.53-3.26-4.48-4.48v5.15c0,.29-1.41,.93-2.69,.93h-.54v-4.86c-.19,.03-.45,0-.8-.06-1.66,1.47-4.29,3.23-6.78,4.19l-.29-.29c1.44-1.47,3.14-3.97,3.97-5.95l3.9,1.63v-1.92h-7.36l-.26-.93h7.62V.29l4.42,.42c-.06,.42-.32,.74-1.18,.86V6.56h3.04l1.54-1.95s1.76,1.38,2.88,2.37Zm-14.43-1.31c-.32-1.47-1.5-3.23-2.53-4.22l.26-.22c7.52,.86,5.12,6.33,2.27,4.45Zm1.09,15.58c.35-1.31,.61-2.66,.77-4.03h-1.63c-.42,.99-.9,1.95-1.44,2.82,1.28,.22,1.98,.7,2.3,1.22Zm7.58,2.21v-5.57h-.77c-.26,1.54-.7,3.87-1.09,5.57h1.86Zm3.52-20.48c-1.28,1.06-2.82,2.14-4.06,2.82l-.42-.29c.54-1.12,1.28-2.98,1.92-4.74l3.81,1.7c-.16,.35-.58,.61-1.25,.51Z"/>
      <path class="cls-1" d="M233.54,19.07c2.02-.99,3.26-1.98,3.87-3.78-2.4-.99-3.42-2.08-3.42-3.46,0-1.54,1.18-2.75,2.82-2.75,.96,0,1.66,.19,2.37,.8,.38,.96,.48,1.54,.48,2.53,0,3.9-2.21,6.56-5.7,7.58l-.42-.93Z"/>
      <path class="cls-1" d="M23.39,51.55l2.3-2.91s2.62,1.98,4.19,3.33c-.06,.35-.45,.51-.9,.51h-9.12c-.93,1.66-2.05,3.26-3.36,4.8l1.38,.51c-.1,.29-.35,.48-.96,.58v18.97c-.06,.22-1.76,.86-3.14,.86h-.7v-17.41c-3.68,3.3-8.13,6.11-12.9,8.06l-.19-.32c6.4-4.06,12.26-10.43,14.56-16.06H.54l-.26-.93H23.39Zm3.04,16.32c-1.73-2.94-5.6-6.43-8.67-8.48l.26-.29c14.05,2.27,12.7,10.62,8.42,8.77Z"/>
      <path class="cls-1" d="M47.17,69.57c-.19,.32-.51,.51-1.25,.42-2.78,3.07-7.71,6.53-13.18,8.32l-.22-.32c4.19-2.88,8.06-7.46,9.89-10.88l4.77,2.46Zm-9.92-19.87l4.19,1.66h12.99l1.82-1.98,3.78,2.88c-.22,.26-.64,.51-1.28,.67v12.93c-.03,.22-2.02,.99-3.33,.99h-.67v-2.05h-13.54v1.28c0,.38-1.73,1.28-3.36,1.28h-.61v-17.66Zm17.5,14.17v-11.58h-13.54v11.58h13.54Zm3.87,13.63c-1.47-3.3-5.12-7.14-8.22-9.44l.29-.26c14.27,3.04,12.35,12.06,7.94,9.7Z"/>
      <path class="cls-1" d="M71.2,56.74h-4.93l-.29-.93h5.28l1.63-1.63,3.23,2.94c-.32,.32-.93,.48-1.7,.51-.86,1.44-2.37,3.74-3.46,5.34h1.41l1.89-1.92,3.33,2.82c-.19,.32-.51,.42-1.22,.48-.74,2.53-1.86,5.06-3.49,7.39,2.3,2.14,5.7,2.46,11.39,2.46,2.53,0,8.7-.03,11.39-.06v.35c-1.25,.32-1.82,1.54-1.86,2.88h-9.6c-6.14,0-9.6-.99-11.9-4.86-1.6,2.08-3.62,3.94-6.14,5.41l-.29-.38c3.49-3.46,5.7-8.77,6.66-13.63h-2.02l-1.15,1.06-2.94-2.11c.32-.19,.77-.45,1.25-.61,1.12-1.54,2.59-3.87,3.52-5.5Zm-.64-2.72c-.51-1.76-2.02-3.78-3.36-4.9l.22-.22c9.28,.06,6.85,7.2,3.14,5.12Zm24.7,4.93c-.1,.35-.45,.51-.9,.51h-4.32v12.86c0,.13-1.15,.8-3.04,.8h-.67v-13.66h-4.42c-.03,4.35-.58,9.98-6.11,13.54l-.32-.35c2.59-4,2.78-9.06,2.78-13.6v-8.06l3.52,1.09c2.98-1.12,6.18-2.66,7.97-3.78l3.74,3.49c-.42,.32-1.12,.32-2.08-.03-2.43,.51-6.08,1.02-9.5,1.28v5.54h7.62l2.02-2.66s2.34,1.79,3.71,3.04Z"/>
      <path class="cls-1" d="M113.25,75.84v-24.09h-1.18l-.06-.26c-.19,.19-.58,.42-1.09,.51v7.58c-.03,.22-1.66,.8-2.72,.8h-.51v4.7h.7l1.5-2.33s1.73,1.63,2.69,2.75c-.06,.32-.38,.48-.83,.48h-4.06v6.34l4.64-.86,.06,.38c-2.66,1.31-6.59,3.14-12.16,5.38-.16,.38-.48,.7-.86,.8l-1.41-4.06,1.89-.26v-11.55l3.52,.32c-.03,.29-.22,.54-.74,.61v10.14l1.76-.29v-13.89h-1.22v.86c0,.22-1.02,.96-2.66,.96h-.58v-11.71l3.65,1.44h3.71l1.57-1.7,3.04,2.3-.1-.38h11.33l1.95-2.5s2.18,1.7,3.52,2.91c-.1,.35-.42,.51-.86,.51h-10.85v6.4h5.63l1.7-1.89,3.58,2.75c-.22,.26-.64,.51-1.31,.64v8.86c-.03,.29-1.79,1.06-3.04,1.06h-.61v-1.95h-5.95v8.22h6.59l2.02-2.62s2.3,1.76,3.68,3.01c-.1,.35-.42,.51-.9,.51h-17.38l-.26-.9h2.59Zm-10.08-24.35v6.62h4.45v-6.62h-4.45Zm13.73,7.58v7.65h5.95v-7.65h-5.95Z"/>
      <path class="cls-1" d="M148.96,48.83c-.1,.51-.42,.8-1.18,.93-.06,2.82-.1,5.54-.32,8.13h7.23l2.34-2.94s2.62,1.98,4.22,3.33c-.1,.35-.45,.51-.93,.51h-12.58c1.12,5.95,4.83,11.81,13.79,15.42l-.06,.35c-1.95,.38-3.1,1.54-3.46,3.71-7.46-4.51-9.86-12.25-10.75-18.69-.96,7.62-4.16,14.14-15.77,18.69l-.29-.48c8.93-5.38,11.42-11.71,12.13-19.01h-11.55l-.26-.9h11.87c.22-3.01,.19-6.21,.19-9.54l5.38,.48Z"/>
      <path class="cls-1" d="M166.5,78.21h-.64v-29.63l4.03,1.7h18.49l1.82-2.05,3.58,2.88c-.22,.29-.64,.54-1.31,.67v25.02c-.03,.32-1.79,1.22-3.17,1.22h-.61v-2.4h-19.13v1.15c0,.51-1.47,1.44-3.07,1.44Zm3.07-3.52h19.13v-23.52h-19.13v23.52Zm3.04-8.06h-.45v-7.14l3.23,1.28h7.1l1.38-1.44,2.94,2.14c-.16,.19-.48,.42-.93,.48v3.46c0,.06-.16,.19-.42,.29l2.37,2.14c-.19,.22-.48,.29-1.06,.06-.61,.26-1.57,.54-2.53,.8,4.96,2.59,2.98,6.08,.7,4.77-.83-1.47-3.26-4.03-6.43-6.08l.22-.42c1.63,.29,2.98,.67,4.1,1.12,.64-.67,1.31-1.47,1.86-2.11-.48,.13-.99,.22-1.41,.22h-.54v-.61h-2.94c-.74,.8-1.63,1.5-2.66,2.11v3.17l4-1.06,.13,.42c-1.15,.74-3.46,2.24-5.92,3.68-.19,.32-.45,.58-.67,.7l-1.66-2.5c.99-.64,1.15-.9,1.15-1.38v-1.5c-1.34,.58-2.82,1.06-4.32,1.44l-.29-.48c2.66-1.15,4.96-2.78,6.53-4.61h-.86v.1c0,.26-1.41,.93-2.62,.93Zm7.81-13.47v1.7h2.37l1.57-1.89s1.76,1.31,2.88,2.3c-.1,.35-.38,.51-.83,.51h-5.98v2.18h3.58l1.6-1.98s1.86,1.38,3.01,2.4c-.1,.35-.38,.51-.83,.51h-17.5l-.26-.93h7.07v-2.18h-5.6l-.26-.93h5.86v-2.82l4.22,.38c-.03,.35-.22,.61-.9,.74Zm-5.18,8.54v2.98h7.52v-2.98h-7.52Z"/>
      <path class="cls-1" d="M211.97,52.74c-.1,.35-.38,.51-.83,.51h-3.78v2.72h.42l1.31-1.66s1.12,.93,2.05,1.73c1.22-2.11,2.27-4.93,2.88-7.84l4.06,1.31c-.13,.42-.54,.67-1.22,.64-.32,.7-.67,1.34-1.06,1.95l.54,.22h3.49c-.29-.06-.58-.19-.86-.42-.06-1.25-.83-2.69-1.63-3.49l.29-.19c5.25,.51,4.67,3.68,2.98,4.1h1.25l1.5-1.76s1.7,1.22,2.75,2.18c-.06,.35-.38,.51-.83,.51h-4.1v2.78h.58l1.38-1.73s1.54,1.22,2.46,2.11c-.06,.35-.35,.51-.8,.51h-3.62v2.85h.58l1.38-1.73s1.57,1.22,2.5,2.11c-.06,.35-.38,.51-.83,.51h-3.62v2.78h1.15l1.57-1.98s1.79,1.38,2.85,2.37c-.1,.35-.38,.51-.83,.51h-9.98v.64c0,.22-.99,.99-2.66,.99h-.54v-10.05c-.61,.58-1.25,1.06-1.89,1.5l-.42-.32,.16-.26h-3.23v2.78h.42l1.31-1.66s1.47,1.18,2.4,2.08c-.1,.35-.38,.51-.8,.51h-3.33v2.88h.77l1.5-1.92s1.73,1.31,2.78,2.3c-.1,.35-.42,.51-.86,.51h-9.18v.77c0,.22-.99,.96-2.59,.96h-.58v-10.11c-.7,.64-1.41,1.22-2.14,1.7l-.42-.32c1.6-2.18,3.17-5.63,4.06-9.15l3.49,1.25c-.22-.35-.48-.7-.74-.96l.29-.19c4.96,.51,4.74,3.39,3.23,4.03h.77l1.47-1.76s1.66,1.25,2.75,2.18Zm-7.68,15.04h-5.92l-.29-.9h18.91l2.34-1.95,3.26,3.17c-.26,.32-.61,.42-1.5,.45-1.47,1.66-3.23,3.07-5.25,4.29,3.55,.77,7.46,1.12,11.3,1.22v.38c-1.57,.48-2.5,1.73-2.85,3.58-4.54-.61-8.7-1.6-12.16-3.3-4.35,1.89-9.5,3.01-15.17,3.46l-.16-.48c4.64-.99,9.09-2.46,12.8-4.42-2.18-1.41-3.97-3.23-5.31-5.5Zm-.83-17.54c-.35,.67-.74,1.31-1.12,1.92l.42,.16h2.98c-.22-.06-.42-.19-.64-.35-.03-.67-.29-1.41-.64-2.08-.16,.26-.51,.38-.99,.35Zm.93,3.01h-2.02v2.72h2.02v-2.72Zm0,3.62h-2.02v2.78h2.02v-2.78Zm0,3.71h-2.02v2.88h2.02v-2.88Zm12.38,7.2h-11.68c1.7,1.79,4.16,3.1,7.01,4.06,1.86-1.22,3.42-2.56,4.67-4.06Zm1.38-14.53h-2.21v2.78h2.21v-2.78Zm0,3.68h-2.21v2.85h2.21v-2.85Zm0,3.74h-2.21v2.78h2.21v-2.78Z"/>
      <path class="cls-1" d="M242.98,54.82c-.06,.35-.38,.51-.83,.51h-12.22l-.26-.93h8.61l1.66-2.18s1.89,1.5,3.04,2.59Zm-1.54,8.35h3.23c.38-1.7,.8-3.9,1.22-6.11h-3.23l-.29-.93h3.68l.74-4.38h-4.61l-.26-.9h11.97l1.82-2.46s2.05,1.7,3.26,2.85c-.06,.35-.42,.51-.86,.51h-7.78l-.77,4.38h2.85l1.63-1.7,3.26,2.46c-.19,.26-.61,.48-1.22,.61v5.66h.06l1.54-2.18s1.66,1.54,2.62,2.56c-.06,.35-.35,.51-.8,.51h-18.24l-.13-.42c-.13,.06-.29,.1-.48,.1h-9.5l-.26-.93h6.43l1.47-1.89s1.63,1.25,2.62,2.24Zm.06-4.26c-.1,.35-.38,.51-.83,.51h-9.5l-.26-.93h6.43l1.47-1.89s1.7,1.31,2.69,2.3Zm-9.76,19.2h-.48v-12.48l3.36,1.34h2.59l1.54-1.63,3.2,2.43c-.19,.22-.61,.48-1.18,.58v7.49c-.03,.22-1.6,.93-2.69,.93h-.58v-1.63h-3.01v1.95c0,.29-1.41,1.02-2.75,1.02Zm2.94-24.89c-.26-1.54-1.28-3.26-2.24-4.32l.26-.16c8.29,.35,5.31,6.69,1.98,4.48Zm2.82,14.69h-3.01v6.33h3.01v-6.33Zm6.37,10.11h-.51v-12.48l3.71,1.47h6.18l1.66-1.82,3.55,2.66c-.22,.26-.67,.54-1.31,.67v8.35c-.06,.22-1.82,.86-2.98,.86h-.61v-1.76h-6.66v.93c0,.35-1.54,1.12-3.04,1.12Zm3.04-10.11v7.17h6.66v-7.17h-6.66Zm1.18-4.74h4.64v-6.11h-3.36c-.42,2.24-.9,4.45-1.28,6.11Z"/>
      <path class="cls-1" d="M1.57,96.86l3.81,1.57H24.7l1.73-1.95,3.46,2.78c-.22,.26-.67,.51-1.31,.67v24.96c-.06,.29-1.7,1.15-3.01,1.15h-.54v-2.3H5.06v1.18c0,.45-1.38,1.34-2.91,1.34h-.58v-29.41Zm23.45,2.46H5.06v23.52H25.02v-23.52Zm-9.98,15.52l.06,.38c-1.44,.93-3.65,2.24-6.82,3.9-.16,.42-.45,.7-.8,.8l-1.79-3.71c1.66-.16,5.5-.74,9.34-1.38Zm-8.1-8.64l2.69,1.12h1.6l1.22-1.25,2.5,1.89c-.1-.96-.19-1.95-.26-2.94H6.05l-.26-.9H14.66c-.1-1.38-.13-2.82-.13-4.26l4.22,.74c-.06,.38-.38,.74-1.09,.77l.03,2.75h2.53l.74-.96-.16-.06c-.29-1.09-1.22-2.34-1.98-3.01l.29-.26c4.22,.19,4.61,2.33,3.65,3.2,.54,.45,1.18,.99,1.66,1.47-.1,.35-.38,.51-.83,.51h-5.86c.13,2.33,.38,4.58,.9,6.62,.8-1.66,1.44-3.52,1.92-5.5l4.03,1.66c-.19,.38-.58,.64-1.31,.54-.93,2.56-2.08,4.7-3.46,6.53,.48,.93,1.02,1.76,1.73,2.46,.35,.42,.51,.38,.77-.1,.35-.67,.9-2.02,1.31-3.17l.35,.1-.51,4.35c.86,1.47,.99,2.24,.58,2.72-1.15,1.15-3.2,.06-4.22-.99-.83-.9-1.54-1.89-2.14-2.98-2.08,2.02-4.54,3.46-7.33,4.54l-.32-.38c2.46-1.57,4.77-3.68,6.62-6.33-.86-2.14-1.38-4.51-1.66-7.07-.13,.16-.48,.35-.9,.42v4.74c-.03,.26-1.28,.86-2.18,.86h-.45v-.96h-1.98v.77c0,.19-1.12,.77-2.18,.77h-.35v-8.42Zm4.51,5.98v-3.97h-1.98v3.97h1.98Z"/>
      <path class="cls-1" d="M49.82,97.66v5.6h6.91l1.79-1.98,3.78,2.88c-.19,.26-.64,.54-1.28,.67v10.56c-.03,.22-2.02,.93-3.33,.93h-.67v-2.66h-7.2v11.17c0,.45-1.73,1.41-3.23,1.41h-.77v-12.58h-7.14v1.86c0,.42-1.73,1.31-3.36,1.31h-.58v-15.23l4.26,1.66h6.82v-7.04l5.18,.51c-.06,.45-.32,.8-1.18,.93Zm-4,15.07v-8.54h-7.14v8.54h7.14Zm11.2-8.54h-7.2v8.54h7.2v-8.54Z"/>
      <path class="cls-1" d="M75.55,111.9c.45,.74,.64,1.66,.45,2.43-.16,.7-.7,1.38-1.7,1.38-.77,0-1.38-.38-1.82-1.44-.8-1.79-2.4-4.19-4.9-6.34l.26-.42c3.49,.8,6.56,2.43,7.71,4.38Z"/>
      <path class="cls-1" d="M84.42,108.58c-.19-1.66-1.18-3.52-2.18-4.67l.29-.19c7.78,1.38,4.83,7.14,1.89,4.86Zm.38,7.26q.61-1.09,5.12-12.19l.54,.13c-.93,3.39-2.53,9.66-2.85,11.17-.19,.96-.38,2.02-.35,2.78,.06,1.73,1.31,3.01,1.18,5.89-.06,1.57-1.06,2.59-2.5,2.59-.67,0-1.38-.48-1.57-1.66,.58-3.39,.45-6.43-.26-6.91-.42-.32-.93-.45-1.6-.51v-.64h1.38c.45,0,.58,0,.9-.64Zm1.86-14.27c-.38-1.76-1.6-3.65-2.66-4.93l.29-.19c8.32,1.31,5.47,7.33,2.37,5.12Zm4.06,2.43l3.1,1.28h.16v-3.42h-3.74l-.26-.9h4v-4.51l4.16,.38c-.03,.38-.29,.64-.96,.77v3.36h.61l1.54-2.34s1.79,1.63,2.78,2.72c-.06,.35-.38,.51-.83,.51h-4.1v3.42h.74l1.31-1.47,2.46,2.43c-.22,.22-.67,.45-1.18,.54v7.97c-.03,.16-1.22,.74-2.46,.74h-.58v-.64h-.32v3.81h.61l1.54-2.43s1.18,1.12,2.18,2.14c.54-2.62,.64-5.44,.64-8.38v-12.64l3.58,1.38h1.86l1.57-1.82,3.36,2.62c-.22,.26-.67,.51-1.28,.64v22.01c0,2.37-.48,3.71-4.13,4.06-.1-1.09-.22-1.95-.58-2.43-.38-.48-.96-.86-2.21-1.09v-.45s2.43,.16,2.98,.16c.51,0,.61-.19,.61-.61v-8.03h-2.82c-.35,4.67-1.76,9.25-6.88,12.48l-.35-.29c1.7-1.92,2.72-4.06,3.36-6.4h-4.03v5.79c0,.16-.99,.74-2.62,.74h-.58v-6.53h-5.02l-.26-.93h5.28v-3.81h-.26c0,.29-1.28,.96-2.56,.96h-.42v-11.81Zm6.75,5.6v-3.39h-3.78v3.39h3.78Zm-3.78,4.35h3.78v-3.46h-3.78v3.46Zm11.49-7.33v3.33c0,.99,0,1.95-.06,2.94h2.75v-6.27h-2.69Zm0-7.01v6.08h2.69v-6.08h-2.69Z"/>
      <path class="cls-1" d="M143.74,101.06c-.1,.35-.42,.51-.9,.51h-7.65l4.29,1.34c-.13,.38-.48,.64-1.22,.54-1.28,1.41-3.39,3.3-5.31,4.74h6.08l2.11-2.78s2.43,1.89,3.9,3.17c-.1,.35-.45,.51-.9,.51h-28.22l-.26-.9h16.51c.86-1.92,1.76-4.64,2.24-6.62h-11.07c7.84,2.56,4.13,8.58,1.06,5.76-.06-1.98-.9-4.16-1.76-5.73l.06-.03h-5.31l-.26-.93h13.06c-.35-.06-.67-.22-1.02-.45-.22-1.41-1.15-2.98-1.98-3.9l.26-.19c6.56,.19,5.86,4.1,3.65,4.54h6.85l2.05-2.62s2.34,1.79,3.74,3.04Zm-22.14,25.12h-.54v-15.42l4,1.6h10.34l1.86-2.02,3.78,2.91c-.22,.26-.67,.54-1.34,.67v10.85c-.03,.32-1.86,1.25-3.3,1.25h-.64v-2.24h-10.94v1.18c0,.38-1.6,1.22-3.2,1.22Zm3.2-12.9v4.26h10.94v-4.26h-10.94Zm10.94,5.15h-10.94v4.42h10.94v-4.42Z"/>
      <path class="cls-1" d="M149.57,96.86l3.81,1.57h19.33l1.73-1.95,3.46,2.78c-.22,.26-.67,.51-1.31,.67v24.96c-.06,.29-1.7,1.15-3.01,1.15h-.54v-2.3h-19.97v1.18c0,.45-1.38,1.34-2.91,1.34h-.58v-29.41Zm23.45,2.46h-19.97v23.52h19.97v-23.52Zm-9.98,15.52l.06,.38c-1.44,.93-3.65,2.24-6.82,3.9-.16,.42-.45,.7-.8,.8l-1.79-3.71c1.66-.16,5.5-.74,9.34-1.38Zm-8.1-8.64l2.69,1.12h1.6l1.22-1.25,2.5,1.89c-.1-.96-.19-1.95-.26-2.94h-8.64l-.26-.9h8.86c-.1-1.38-.13-2.82-.13-4.26l4.22,.74c-.06,.38-.38,.74-1.09,.77l.03,2.75h2.53l.74-.96-.16-.06c-.29-1.09-1.22-2.34-1.98-3.01l.29-.26c4.22,.19,4.61,2.33,3.65,3.2,.54,.45,1.18,.99,1.66,1.47-.1,.35-.38,.51-.83,.51h-5.86c.13,2.33,.38,4.58,.9,6.62,.8-1.66,1.44-3.52,1.92-5.5l4.03,1.66c-.19,.38-.58,.64-1.31,.54-.93,2.56-2.08,4.7-3.46,6.53,.48,.93,1.02,1.76,1.73,2.46,.35,.42,.51,.38,.77-.1,.35-.67,.9-2.02,1.31-3.17l.35,.1-.51,4.35c.86,1.47,.99,2.24,.58,2.72-1.15,1.15-3.2,.06-4.22-.99-.83-.9-1.54-1.89-2.14-2.98-2.08,2.02-4.54,3.46-7.33,4.54l-.32-.38c2.46-1.57,4.77-3.68,6.62-6.33-.86-2.14-1.38-4.51-1.66-7.07-.13,.16-.48,.35-.9,.42v4.74c-.03,.26-1.28,.86-2.18,.86h-.45v-.96h-1.98v.77c0,.19-1.12,.77-2.18,.77h-.35v-8.42Zm4.51,5.98v-3.97h-1.98v3.97h1.98Z"/>
      <path class="cls-1" d="M192.16,106.24c-.13,.35-.42,.58-1.22,.58-1.86,4.06-5.12,9.06-10.05,12.13l-.26-.29c3.26-4,5.44-10.11,6.27-14.46l5.25,2.05Zm7.17-9.06c-.1,.45-.38,.77-1.18,.9v23.36c0,2.75-.67,4.32-5.6,4.77-.16-1.31-.42-2.21-1.12-2.85-.7-.61-1.63-1.06-3.78-1.41v-.42s4.77,.29,5.7,.29c.64,0,.83-.22,.83-.67v-24.48l5.15,.51Zm7.39,20.03c-.64-4.19-3.36-8.96-5.98-12.42l.35-.19c13.18,6.21,10.05,16.22,5.63,12.61Z"/>
      <path class="cls-1" d="M222.11,98.21l-.8,1.34h3.84l1.6-2.14s1.86,1.5,2.94,2.56c.51-1.25,.99-2.62,1.31-4.03l4.74,1.79c-.13,.38-.54,.64-1.28,.58-.29,.45-.61,.86-.93,1.25h4.74l1.79-2.3s2.05,1.57,3.26,2.72c-.1,.35-.42,.51-.86,.51h-9.76c-1.38,1.41-2.98,2.5-4.61,3.23l-.35-.29c.67-.9,1.34-2.08,1.92-3.39-.1,.32-.38,.45-.8,.45h-8.16c-1.86,2.59-4.06,4.51-6.34,5.86l-.35-.32c1.73-2.34,3.49-6.08,4.42-9.89l4.9,1.47c-.1,.38-.51,.64-1.22,.61Zm21.15,17.92c-.1,.35-.42,.51-.9,.51h-7.01v5.41c0,2.5-.58,3.74-4.8,4.13-.1-1.06-.26-1.86-.7-2.34-.48-.48-1.18-.9-2.78-1.12v-.42s3.3,.22,3.94,.22c.48,0,.64-.16,.64-.54v-5.34h-16.77l-.26-.93h17.02v-2.85l4.77,.42c-.06,.45-.38,.7-1.06,.8v1.63h2.72l1.86-2.43s2.05,1.66,3.33,2.85Zm-1.47-8.61c-.1,.35-.42,.51-.86,.51h-10.4v3.42h4.96l1.82-2.33s2.02,1.6,3.26,2.72c-.1,.35-.42,.51-.86,.51h-21.89l-.26-.9h9.31v-3.42h-10.21l-.26-.9h10.46v-3.2l4.54,.42c-.03,.35-.22,.61-.9,.74v2.05h6.43l1.7-2.21s1.95,1.5,3.14,2.59Zm-18.62,15.55c-.35-1.98-1.86-4.19-3.36-5.44l.26-.22c9.6,.83,6.75,8.06,3.1,5.66Zm-.54-18.3c-.1-1.22-.9-2.62-1.63-3.42l.29-.22c6.78,.8,3.9,5.66,1.34,3.65Zm12.45,.13c-.13-1.28-.96-2.78-1.86-3.62l.26-.19c7.23,.54,4.38,5.86,1.6,3.81Z"/>
      <path class="cls-1" d="M12.93,154.24v-2.66H.35l-.26-.93H12.93v-2.59H4.19l-.29-.93H12.93v-2.94l4.9,.45c-.06,.45-.32,.77-1.18,.9v1.6h4.32l1.66-1.76,3.46,2.59c-.19,.22-.58,.48-1.22,.61v2.08h.74l1.63-2.18s1.82,1.54,2.91,2.59c-.06,.35-.38,.51-.83,.51h-4.45v3.81c0,.06-.1,.13-.22,.19,.45,.35,2.05,1.57,3.14,2.46-.1,.35-.42,.51-.86,.51h-10.27v2.56h8.03l1.86-2.27s2.11,1.54,3.42,2.66c-.1,.35-.42,.51-.86,.51H.42l-.29-.9H12.93v-2.56H2.94l-.29-.9H12.93v-2.53H4l-.26-.9H12.93Zm-7.87,8.51l3.97,1.54h11.94l1.73-1.89,3.65,2.75c-.19,.26-.61,.54-1.28,.67v7.36c-.03,.22-1.92,.86-3.14,.86h-.64v-1.73H8.77v.7c0,.35-1.66,1.15-3.17,1.15h-.54v-11.42Zm16.22,2.46H8.77v2.53h12.51v-2.53Zm0,3.42H8.77v2.75h12.51v-2.75Zm0-17.98v-2.59h-4.64v2.59h4.64Zm-4.64,3.58h4.64v-2.66h-4.64v2.66Zm6.02,3.42l1.54-1.86c-.61,.29-1.54,.58-2.27,.58h-.64v-1.25h-4.64v2.53h6.02Z"/>
      <path class="cls-1" d="M56.64,147.46c-1.92,.29-4.22,.58-6.72,.83v3.39h6.98l2.11-2.78s2.43,1.89,3.87,3.17c-.1,.35-.45,.51-.9,.51h-12.06v.96c13.44,.9,13.31,8.54,9.18,7.52-1.98-2.3-5.89-5.02-9.18-6.69v4.99c-.03,.19-1.18,.99-3.14,.99h-.67v-6.08c-1.82,2.08-4.26,3.9-7.07,5.38l3.65,1.47h10.65l1.7-1.92,3.62,2.75c-.19,.26-.61,.54-1.25,.67v10.53c-.03,.22-1.89,.93-3.14,.93h-.61v-2.18h-11.2v1.06c0,.38-1.6,1.22-3.14,1.22h-.58v-14.37c-1.76,.9-3.68,1.7-5.7,2.37l-.22-.38c4-2.27,7.39-5.82,9.47-9.21h-8.61l-.26-.9h12.67v-3.07c-3.58,.26-7.36,.38-10.81,.38l-.06-.54c6.88-.8,15.55-2.69,20.06-4.29l3.39,3.39c-.35,.29-1.09,.32-2.05-.1Zm-14.17,14.56v4h11.2v-4h-11.2Zm11.2,8.99v-4.1h-11.2v4.1h11.2Z"/>
      <path class="cls-1" d="M78.56,152.35c-.1,.35-.38,.51-.83,.51h-3.74v1.63c6.85,2.3,3.74,7.46,1.09,5.15-.06-1.18-.51-2.56-1.09-3.71v17.21c0,.35-1.5,1.15-2.85,1.15h-.7v-13.18c-1.28,2.11-2.85,4.03-4.77,5.73l-.38-.35c2.34-3.68,3.81-8.74,4.61-13.63h-3.94l-.26-.93,4.74,.03v-7.81l4.74,.45c-.06,.48-.32,.8-1.18,.93v6.4h.06l1.6-2.3s1.86,1.6,2.91,2.72Zm13.66,7.55l-.1-.38h-.45c-.58,2.11-1.41,4.83-3.9,7.55,2.4,1.73,5.34,2.88,8.54,3.68l-.06,.32c-1.47,.29-2.53,1.41-3.04,3.07-3.04-1.28-5.5-2.91-7.42-5.22-2.34,1.89-5.63,3.74-10.4,5.38l-.29-.48c4.32-2.3,7.2-4.7,9.15-7.01-1.28-2.11-2.21-4.67-2.85-7.84l.48-.22c.77,2.59,2.02,4.7,3.62,6.37,1.86-2.78,2.46-5.47,2.69-7.81l3.65,1.22c-.77-2.27-2.3-4.61-3.78-6.21l.29-.22c10.46,2.85,7.55,10.5,3.87,7.81Zm-7.65-5.73c-1.92,3.68-4.54,6.43-7.58,8.16l-.35-.29c1.79-2.4,3.58-6.3,4.54-10.24l4.67,1.82c-.16,.38-.58,.61-1.28,.54Zm11.33-3.49c-.1,.35-.42,.51-.86,.51h-17.34l-.26-.9h12.9l1.98-2.62s2.27,1.79,3.58,3.01Zm-11.04-1.02c-.06-1.89-1.06-3.94-2.08-5.25l.29-.16c8.67,1.54,5.12,8.09,1.79,5.41Z"/>
      <path class="cls-1" d="M100.9,174.21h-.64v-29.63l4.03,1.7h18.49l1.82-2.05,3.58,2.88c-.22,.29-.64,.54-1.31,.67v25.02c-.03,.32-1.79,1.22-3.17,1.22h-.61v-2.4h-19.13v1.15c0,.51-1.47,1.44-3.07,1.44Zm3.07-3.52h19.13v-23.52h-19.13v23.52Zm3.04-8.06h-.45v-7.14l3.23,1.28h7.1l1.38-1.44,2.94,2.14c-.16,.19-.48,.42-.93,.48v3.46c0,.06-.16,.19-.42,.29l2.37,2.14c-.19,.22-.48,.29-1.06,.06-.61,.26-1.57,.54-2.53,.8,4.96,2.59,2.98,6.08,.7,4.77-.83-1.47-3.26-4.03-6.43-6.08l.22-.42c1.63,.29,2.98,.67,4.1,1.12,.64-.67,1.31-1.47,1.86-2.11-.48,.13-.99,.22-1.41,.22h-.54v-.61h-2.94c-.74,.8-1.63,1.5-2.66,2.11v3.17l4-1.06,.13,.42c-1.15,.74-3.46,2.24-5.92,3.68-.19,.32-.45,.58-.67,.7l-1.66-2.5c.99-.64,1.15-.9,1.15-1.38v-1.5c-1.34,.58-2.82,1.06-4.32,1.44l-.29-.48c2.66-1.15,4.96-2.78,6.53-4.61h-.86v.1c0,.26-1.41,.93-2.62,.93Zm7.81-13.47v1.7h2.37l1.57-1.89s1.76,1.31,2.88,2.3c-.1,.35-.38,.51-.83,.51h-5.98v2.18h3.58l1.6-1.98s1.86,1.38,3.01,2.4c-.1,.35-.38,.51-.83,.51h-17.5l-.26-.93h7.07v-2.18h-5.6l-.26-.93h5.86v-2.82l4.22,.38c-.03,.35-.22,.61-.9,.74Zm-5.18,8.54v2.98h7.52v-2.98h-7.52Z"/>
      <path class="cls-1" d="M135.14,163.07c2.02-.99,3.26-1.98,3.87-3.78-2.4-.99-3.42-2.08-3.42-3.46,0-1.54,1.18-2.75,2.82-2.75,.96,0,1.66,.19,2.37,.8,.38,.96,.48,1.54,.48,2.53,0,3.9-2.21,6.56-5.7,7.58l-.42-.93Z"/>
      <path class="cls-1" d="M171.17,147.14l2.21-2.72s2.53,1.86,4.06,3.1c-.1,.35-.45,.51-.9,.51h-11.55v3.62h4.93l1.76-1.92,3.65,2.78c-.22,.26-.64,.54-1.31,.67v10.08c-.03,.22-1.89,.9-3.14,.9h-.64v-1.79h-5.47c-.32,2.18-.99,4.16-2.4,5.86,4.29,1.6,9.79,2.08,15.49,2.08l.03,.38c-1.57,.51-2.46,1.73-2.75,3.55-5.89-.61-10.78-1.76-14.46-4.32-2.46,1.95-6.27,3.42-12.16,4.38l-.16-.38c5.18-1.66,8.35-3.49,10.24-5.76-1.15-1.12-2.11-2.46-2.91-4.06l.38-.32c.9,1.25,2.05,2.27,3.46,3.1,.8-1.34,1.25-2.82,1.5-4.51h-4.93v.8c0,.35-1.6,1.18-3.14,1.18h-.54v-14.27l3.94,1.57h4.86v-3.62h-12.16l-.26-.9h22.37Zm-9.95,9.34v-3.9h-5.12v3.9h5.12Zm-.1,4.96c.06-.8,.1-1.63,.1-2.53v-1.54h-5.12v4.06h5.02Zm9.12-4.06h-5.25v1.44c0,.9-.03,1.79-.13,2.62h5.38v-4.06Zm-5.25-4.8v3.9h5.25v-3.9h-5.25Z"/>
      <path class="cls-1" d="M210.53,150.11c-.1,.35-.45,.51-.93,.51h-15.36c-.74,1.44-1.57,2.88-2.56,4.29l1.09,.35h8.9l1.76-2.05,3.84,2.94c-.22,.32-.74,.61-1.44,.74v12.93c0,2.53-.61,4.03-4.96,4.45-.13-1.25-.29-2.14-.8-2.75-.51-.58-1.25-.99-2.88-1.28v-.45s3.42,.19,4.13,.19c.54,0,.7-.19,.7-.64v-3.68h-10.11c-.51,3.14-1.92,6.4-5.82,8.77l-.26-.29c2.37-3.65,2.53-8.26,2.53-12.51v-2.62c-1.92,2.02-4.22,3.81-6.88,5.22l-.32-.32c4.1-3.49,7.07-8.45,8.99-13.28h-8.42l-.26-.9h9.02c.7-1.95,1.28-3.84,1.66-5.63l5.25,1.44c-.13,.35-.38,.61-1.25,.64-.42,1.15-.9,2.34-1.47,3.55h9.57l2.24-2.78s2.5,1.86,4.03,3.17Zm-8.51,14.62v-3.87h-9.82v.77c0,.99-.03,2.02-.16,3.1h9.98Zm-9.82-4.8h9.82v-3.74h-9.82v3.74Z"/>
      <path class="cls-1" d="M231.36,144.83c-.1,.51-.42,.8-1.18,.93-.06,2.82-.1,5.54-.32,8.13h7.23l2.34-2.94s2.62,1.98,4.22,3.33c-.1,.35-.45,.51-.93,.51h-12.58c1.12,5.95,4.83,11.81,13.79,15.42l-.06,.35c-1.95,.38-3.1,1.54-3.46,3.71-7.46-4.51-9.86-12.25-10.75-18.69-.96,7.62-4.16,14.14-15.77,18.69l-.29-.48c8.93-5.38,11.42-11.71,12.13-19.01h-11.55l-.26-.9h11.87c.22-3.01,.19-6.21,.19-9.54l5.38,.48Z"/>
      <path class="cls-1" d="M9.63,194.18v7.29h10.37v-9.15l5.12,.42c-.06,.48-.32,.77-1.22,.93v7.23l1.02,.99c-.06,.35-.38,.51-.8,.51H9.63v2.59c0,1.12-.06,2.21-.16,3.3h11.74l1.79-1.98,3.78,2.88c-.22,.26-.67,.51-1.34,.67v11.17c-.06,.22-1.98,.9-3.23,.9h-.67v-12.7H9.34c-.7,5.38-2.91,10.17-8.48,13.09l-.29-.29c4.32-4.48,5.25-10.59,5.25-17.02v-12.22l4.96,.48c-.06,.45-.32,.8-1.15,.93Z"/>
      <path class="cls-1" d="M62.97,215.97c-.1,.35-.42,.51-.86,.51h-12.38v4.8c0,.22-1.73,.83-3.17,.83h-.67v-5.63h-12.8l-.26-.93h13.06v-1.92c-.51,.45-1.34,.61-2.24,.13-.32-.93-1.15-1.98-1.95-2.75-1.79,1.7-4.29,3.1-7.2,3.81l-.22-.42c2.85-1.63,4.99-4.51,5.98-7.14h-5.44l-.29-.9h11.84l-.03-.03c-.03-.58-.22-1.47-.64-2.21-.64,.32-1.6,.54-3.07,.64-.1-.77-.19-1.34-.54-1.7-.38-.35-.9-.64-2.21-.83v-.42s2.37,.16,2.91,.16c.48,0,.58-.22,.58-.58v-1.89c-1.7,.99-3.94,2.24-6.78,3.71-.13,.38-.42,.7-.74,.8l-1.79-3.42c1.63-.29,5.38-1.09,9.31-2.02v-3.84h-9.31l-.29-.9h9.47l1.41-1.6,3.62,2.69c-.19,.26-.64,.51-1.31,.64v6.05c0,.67-.06,1.22-.35,1.66,3.04,.54,3.3,2.14,2.56,3.07h6.53l1.47-1.73-.96,.1c-.06-.8-.13-1.41-.48-1.76-.38-.32-.86-.64-2.11-.83v-.42s2.18,.13,2.72,.13c.45,0,.54-.19,.54-.54v-2.05c-1.7,.96-3.9,2.18-6.72,3.58-.13,.42-.42,.74-.74,.83l-1.73-3.46c1.63-.26,5.31-1.02,9.18-1.95v-3.52h-8.38l-.29-.9h8.54l1.44-1.6,3.65,2.69c-.22,.26-.64,.54-1.31,.64v5.95c0,1.5-.32,2.46-2.37,2.91,.74,.51,2.11,1.5,3.1,2.3-.06,.35-.42,.51-.9,.51h-7.65l3.33,1.5c-.19,.32-.45,.51-1.18,.45-.22,.32-.48,.61-.77,.93,6.88-.22,5.38,4.9,2.43,3.65-.58-1.06-1.89-2.37-2.98-3.1-1.25,1.12-2.88,2.11-4.7,2.75l1.79,.16c-.06,.35-.26,.61-.9,.74v1.22h7.87l1.92-2.5s2.18,1.7,3.46,2.91Zm-23.93-17.12c-.83-.86-2.05-2.02-3.55-2.78l.19-.35c6.21-1.34,6.05,4.19,3.36,3.14Zm4.32,10.21c-.26,.38-.54,.77-.9,1.15,3.65,.13,4.38,1.95,3.74,3.04l1.15,.1c2.08-1.54,3.62-3.97,4.35-6.08h-10.33l3.17,1.38c-.16,.29-.42,.51-1.18,.42Zm9.02-10.37c-.74-.83-1.89-1.98-3.36-2.59l.16-.38c6.02-1.41,5.82,3.97,3.2,2.98Z"/>
      <path class="cls-1" d="M68.64,220.29c-.7,.9-2.37,.93-2.94-.13-.48-.96-.03-1.89,.83-2.5,.9-.83,2.02-2.82,1.98-4.61h.48c1.09,3.42,.67,5.98-.35,7.23Zm5.7-9.09c.03-.51-.03-1.02-.1-1.54-1.66,.67-3.9,1.57-6.27,2.4-.26,.35-.54,.58-.86,.67l-1.25-3.78s.77-.16,1.09-.42c1.28-1.12,2.85-3.2,4.19-5.41l-2.85,1.15c-.22,.35-.48,.58-.77,.7l-1.57-3.74s.67-.13,.93-.35c1.44-1.6,3.33-6.14,3.87-8.61l4.26,2.05c-.13,.29-.48,.54-1.06,.48-1.34,2.08-3.68,4.8-5.73,6.59h3.97c.86-1.57,1.6-3.07,2.02-4.26l3.81,2.59c-.16,.26-.61,.45-1.22,.32-1.73,2.59-5.18,6.37-8.29,8.89l5.54-.35c-.26-1.15-.64-2.27-1.02-3.2l.35-.13c6.72,3.33,3.42,8.42,.96,5.92Zm-3.58,7.94c.29-2.08,0-4.58-.42-6.37l.45-.13c4.93,4.35,1.92,8.93-.03,6.5Zm6.05-3.74c1.57-.7,3.9-1.76,6.21-2.88l.13,.29c-.9,1.22-2.34,3.17-4.38,5.6-.03,.45-.26,.83-.58,.99l-1.66-2.3c-.45,.58-1.28,.67-2.05,0-.06-1.6-.96-3.62-1.82-4.86l.38-.19c2.43,.96,3.49,2.24,3.78,3.36Zm18.88-10.88c-.1,.35-.38,.51-.83,.51h-7.33v13.21c0,2.27-.51,3.71-4.22,4.03-.03-1.02-.16-1.79-.51-2.24-.38-.48-.96-.86-2.24-1.06v-.45s2.37,.19,2.94,.19c.48,0,.58-.22,.58-.58v-13.12h-7.36l-.26-.9h9.54l.9-2.62h-5.15l-1.34,1.47-3.17-2.27c.32-.26,.83-.51,1.34-.7,1.02-2.24,2.4-5.89,2.91-7.62l4.42,.77c-.1,.38-.45,.8-1.31,.8l-.64,1.66h4.61l1.5-1.63,3.2,2.66c-.26,.26-.58,.35-1.22,.42l-2.37,7.07h1.15l1.73-2.56s2.02,1.76,3.14,2.94Zm-15.61,6.59c-.35-1.6-1.7-3.49-2.94-4.58l.29-.22c7.94,.9,5.63,6.72,2.66,4.8Zm7.14-10.53l1.38-4.03h-4.99c-.58,1.38-1.18,2.88-1.7,4.03h5.31Zm4.96,18.17c-.86-1.79-2.24-4.29-4.1-6.02l.22-.29c9.44,1.63,7.01,8.67,3.87,6.3Zm2.02-10.27c-1.31,.9-4.03,2.27-5.7,3.1l-.26-.29c1.06-1.57,2.56-4.26,3.36-5.7l3.74,2.72c-.16,.26-.51,.35-1.15,.16Z"/>
      <path class="cls-1" d="M110.66,196.64c-3.01,6.21-7.17,10.17-12.19,12.73l-.35-.29c3.46-3.33,6.98-8.96,8.74-15.07l5.15,2.08c-.16,.38-.58,.64-1.34,.54Zm11.52,24.73c-.26-1.41-.77-2.91-1.41-4.35-4,1.31-9.41,2.82-16.09,4.26-.32,.48-.7,.8-1.12,.93l-1.63-4.9s.99-.22,1.34-.54c2.4-2.3,6.02-9.38,7.04-13.38l5.47,2.02c-.16,.38-.54,.64-1.25,.61-2.11,3.62-6.24,8.45-9.79,11.42,3.78-.19,9.63-.7,15.55-1.41-1.06-2.14-2.46-4.22-3.87-5.89l.35-.19c12.93,5.15,9.79,14.88,5.41,11.42Zm-4.86-29.47l3.33,2.27c-.42,.48-1.5,.74-2.85,.83,1.5,4.61,5.44,8.61,11.04,10.46l-.1,.38c-1.63,.58-2.94,2.11-3.36,3.68-4.7-3.17-7.39-8.16-8.42-14.75h-3.71l-.29-.93h3.14l1.22-1.95Z"/>
      <path class="cls-1" d="M133.7,222.21h-.64v-29.63l4.03,1.7h18.49l1.82-2.05,3.58,2.88c-.22,.29-.64,.54-1.31,.67v25.02c-.03,.32-1.79,1.22-3.17,1.22h-.61v-2.4h-19.13v1.15c0,.51-1.47,1.44-3.07,1.44Zm3.07-3.52h19.13v-23.52h-19.13v23.52Zm3.04-8.06h-.45v-7.14l3.23,1.28h7.1l1.38-1.44,2.94,2.14c-.16,.19-.48,.42-.93,.48v3.46c0,.06-.16,.19-.42,.29l2.37,2.14c-.19,.22-.48,.29-1.06,.06-.61,.26-1.57,.54-2.53,.8,4.96,2.59,2.98,6.08,.7,4.77-.83-1.47-3.26-4.03-6.43-6.08l.22-.42c1.63,.29,2.98,.67,4.1,1.12,.64-.67,1.31-1.47,1.86-2.11-.48,.13-.99,.22-1.41,.22h-.54v-.61h-2.94c-.74,.8-1.63,1.5-2.66,2.11v3.17l4-1.06,.13,.42c-1.15,.74-3.46,2.24-5.92,3.68-.19,.32-.45,.58-.67,.7l-1.66-2.5c.99-.64,1.15-.9,1.15-1.38v-1.5c-1.34,.58-2.82,1.06-4.32,1.44l-.29-.48c2.66-1.15,4.96-2.78,6.53-4.61h-.86v.1c0,.26-1.41,.93-2.62,.93Zm7.81-13.47v1.7h2.37l1.57-1.89s1.76,1.31,2.88,2.3c-.1,.35-.38,.51-.83,.51h-5.98v2.18h3.58l1.6-1.98s1.86,1.38,3.01,2.4c-.1,.35-.38,.51-.83,.51h-17.5l-.26-.93h7.07v-2.18h-5.6l-.26-.93h5.86v-2.82l4.22,.38c-.03,.35-.22,.61-.9,.74Zm-5.18,8.54v2.98h7.52v-2.98h-7.52Z"/>
      <path class="cls-1" d="M174.75,201.21c.22-.19,.51-.35,.77-.48,.32-2.37,.7-6.37,.74-8.19l4.13,.51c-.1,.38-.38,.77-1.15,.83l-.19,2.4h1.28l1.38-1.98s1.57,1.44,2.46,2.4c-.06,.35-.38,.51-.8,.51h-4.42l-.38,3.78h1.7l1.5-1.5,2.82,2.3c-.22,.26-.58,.42-1.22,.51-.22,5.79-.74,8.06-1.98,9.02-.77,.61-1.79,.9-2.98,.9,0-.8-.06-1.5-.42-1.89-.29-.35-.8-.64-1.5-.8-.58,.93-1.18,1.73-1.89,2.4l-.48-.29c.83-2.14,1.41-5.28,1.63-8.26l3.9,.86c-.1,.42-.45,.7-1.15,.74-.48,1.47-1.06,2.85-1.73,4.06l1.89,.06c.42,0,.61-.06,.83-.22,.54-.48,.9-2.53,1.06-7.01h-1.89l-1.15,1.44-2.82-1.73c-.1,.19-.32,.26-.61,.26h-3.33l.13,5.18h.77l1.25-1.89s1.44,1.34,2.27,2.3c-.1,.35-.38,.51-.8,.51h-3.46l.13,4.67h15.81l.13-4.9h-2.91l-.29-.93h3.23l.1-5.22h-2.59l-.29-.9h2.91l.1-4.9h-3.46l-.29-.93h3.42l1.54-1.89,3.49,2.82c-.26,.32-.54,.42-1.22,.54l-.38,16.29h.16l1.41-2.24s1.66,1.57,2.56,2.62c-.1,.35-.42,.51-.83,.51h-29.44l-.26-.9h3.65l-.48-18.69,3.42,.99c.96-1.02,1.92-2.21,2.4-2.85l3.01,3.04c-.22,.26-.61,.26-1.06,.03-.9,.32-2.62,.8-4.26,1.12l.13,4.64h.74l1.22-1.82s1.28,1.18,2.05,2.11Zm1.25,15.55c-2.53,2.18-6.98,4.26-11.71,5.44l-.16-.35c3.55-1.98,6.98-5.38,8.48-7.94l5.22,2.27c-.26,.42-.74,.64-1.82,.58Zm13.05,4.38c-1.18-1.89-3.49-4.35-7.68-6.14l.16-.42c17.34,1.82,10.85,10.02,7.52,6.56Z"/>
      <path class="cls-1" d="M208.38,211.97h-.48v-3.39c-.19,.16-.48,.22-.99,.26-.67,2.24-1.76,4.54-3.2,6.69,2.37,2.34,5.82,2.69,11.62,2.69,2.56,0,8.8,0,11.52-.06v.38c-1.25,.32-1.86,1.54-1.89,2.88h-9.73c-6.27,0-9.76-.99-12.06-5.06-1.57,2.14-3.55,4.1-5.92,5.63l-.32-.35c3.04-3.49,5.34-8.67,6.3-13.22h-1.92l-1.09,1.02-2.78-2.02c.29-.19,.77-.42,1.25-.58,1.06-1.6,2.4-3.97,3.23-5.63h-4.67l-.29-.9h4.99l1.54-1.54,2.98,2.72c-.29,.29-.86,.45-1.54,.51-.83,1.47-2.21,3.81-3.26,5.47h1.44l1.86-1.89,2.94,2.53v-7.42l3.46,1.41h2.46v-2.18h-6.62l-.26-.9h6.88v-3.04l4.54,.45c-.1,.45-.32,.77-1.18,.9v1.7h2.59l1.79-2.14,.26,.19,.26-1.92h-12.61c.1,1.79-.64,3.07-1.63,3.55-.99,.48-2.34,.19-2.69-.93-.29-1.09,.42-1.92,1.38-2.3,.93-.51,1.92-1.76,1.79-3.1l.48-.03c.29,.67,.48,1.31,.58,1.92h12.48l1.79-1.82,3.14,3.01c-.26,.26-.58,.35-1.22,.38-.64,.61-1.63,1.44-2.59,2.11l1.89,1.47c-.06,.35-.42,.51-.83,.51h-6.85v2.18h2.4l1.6-1.73,3.33,2.56c-.19,.22-.67,.51-1.31,.64v6.88c-.03,.22-1.63,.93-2.75,.93h-.54v-.86h-2.72v2.82h3.58l1.86-2.34s2.11,1.57,3.42,2.72c-.06,.35-.42,.51-.86,.51h-8v2.75c0,.32-1.44,1.02-2.75,1.02h-.61v-3.78h-7.33l-.26-.9h7.58v-2.82h-2.66v.38c0,.29-1.44,1.06-2.78,1.06Zm-7.46-14.33c-.22-1.76-1.31-3.74-2.43-4.96l.32-.19c8.29,1.44,5.18,7.49,2.11,5.15Zm10.24,5.41v2.85h2.66v-2.85h-2.66Zm0,3.74v2.85h2.66v-2.85h-2.66Zm6.02-.9h2.72v-2.85h-2.72v2.85Zm0,3.74h2.72v-2.85h-2.72v2.85Z"/>
      <path class="cls-1" d="M230.72,200.38l3.55,1.38h1.98v-2.3h-6.27l-.26-.93h6.53v-2.43c-2.14,.13-4.38,.22-6.43,.22l-.1-.51c4.51-.83,10.3-2.43,13.31-3.65l3.23,3.3c-.38,.29-1.09,.29-1.98-.1-1.34,.19-3.01,.35-4.77,.51v2.66h2.4l1.82-2.24s2.05,1.54,3.3,2.66c-.06,.35-.42,.51-.86,.51h-6.66v2.3h2.37l1.57-1.79,3.1,2.34c-.19,.29-.51,.48-1.22,.58v7.68c0,.13-1.09,.74-2.75,.74h-.61v-.74h-2.46v2.94h1.89l1.7-2.08s1.92,1.44,3.14,2.5c-.1,.32-.42,.48-.9,.48h-5.82v2.43l6.62-.64,.06,.42c-2.98,1.18-7.36,2.69-13.85,4.61-.19,.42-.54,.67-.93,.74l-1.6-4.38c1.34-.06,3.65-.22,6.43-.48v-2.69h-5.79l-.26-.9h6.05v-2.94h-2.34v.54c0,.26-.99,.8-2.66,.8h-.54v-11.52Zm5.54,2.3h-2.34v3.01h2.34v-3.01Zm-2.34,3.94v3.04h2.34v-3.04h-2.34Zm8.06-.93v-3.01h-2.46v3.01h2.46Zm-2.46,3.97h2.46v-3.04h-2.46v3.04Zm14.02-16.57c-.1,.48-.42,.77-1.18,.9l-.06,6.34h2.53l1.92-1.95,3.26,2.85c-.22,.26-.64,.51-1.34,.58-.22,12.74-.61,16.99-2.24,18.65-1.02,1.09-2.4,1.54-4,1.54,.03-1.18-.06-1.98-.45-2.5-.42-.51-1.25-.93-2.34-1.18v-.45c.96,.06,2.4,.16,3.01,.16,.51,0,.77-.1,1.09-.38,.96-.93,1.25-5.79,1.44-16.38h-2.88c-.19,9.57-1.31,16.42-9.6,21.05l-.35-.48c5.57-5.09,6.37-11.65,6.46-20.57h-2.85l-.29-.93h3.14l-.03-7.71,4.77,.48Z"/>
      <path class="cls-1" d="M3.78,241.22l4.29,1.5h14.94l1.76-2.08,3.78,2.98c-.22,.29-.7,.58-1.44,.74v21.21c0,2.53-.54,3.94-4.8,4.32-.1-1.15-.26-2.05-.7-2.59-.51-.54-1.15-.96-2.72-1.22v-.45s3.1,.22,3.78,.22c.54,0,.7-.26,.7-.67v-6.33h-6.43v9.95c0,.26-1.12,1.02-3.04,1.02h-.67v-10.97H7.1c-.64,4.1-2.34,8.13-6.75,11.13l-.35-.26c3.49-4.86,3.78-11.04,3.78-17.09v-11.42Zm3.71,11.39c0,1.7-.03,3.52-.26,5.31h5.98v-6.82H7.49v1.5Zm5.73-2.4v-6.56H7.49v6.56h5.73Zm10.14-6.56h-6.43v6.56h6.43v-6.56Zm-6.43,7.46v6.82h6.43v-6.82h-6.43Z"/>
      <path class="cls-1" d="M44.77,249.79v-4.99l4.64,.48c-.03,.42-.35,.77-1.12,.86v5.09l2.75-1.22v-9.82l4.61,.45c-.06,.45-.32,.77-1.18,.9v6.98l3.17-1.38,.1-.03,1.63-1.66,3.04,3.17c-.26,.29-.61,.38-1.28,.45-.74,3.14-2.14,7.71-3.87,10.78l-.35-.19c.42-3.52,.67-8.26,.7-11.46l-3.14,1.34v12.77c0,.32-1.47,1.06-2.78,1.06h-.64v-12.35l-2.75,1.22v12.51c0,.9,.42,1.18,2.02,1.18h4.32c1.63,0,2.94-.03,3.58-.06,.51-.03,.86-.16,1.12-.51,.42-.61,.99-2.21,1.66-4.42h.35l.13,4.58c1.15,.42,1.5,.8,1.5,1.44,0,1.7-1.66,2.27-8.67,2.27h-4.38c-3.81,0-5.15-.67-5.15-3.62v-11.87l-2.78,1.22-.61-.7,3.39-1.47v-2.82c-.06,.29-.38,.42-.74,.42h-3.94v9.92l4.35-1.15,.1,.35c-1.86,1.41-4.74,3.46-8.99,5.98-.13,.45-.42,.77-.8,.9l-2.11-4.29c.86-.16,2.21-.48,3.87-.86v-10.85h-3.39l-.26-.9h3.65v-8.58l4.77,.45c-.1,.45-.32,.77-1.18,.9v7.23h.54l1.5-2.56s1.73,1.73,2.62,2.88Z"/>
      <path class="cls-1" d="M69.54,259.07c2.02-.99,3.26-1.98,3.87-3.78-2.4-.99-3.42-2.08-3.42-3.46,0-1.54,1.18-2.75,2.82-2.75,.96,0,1.66,.19,2.37,.8,.38,.96,.48,1.54,.48,2.53,0,3.9-2.21,6.56-5.7,7.58l-.42-.93Z"/>
      <path class="cls-1" d="M100.7,241.44c-.13,.42-.42,.64-1.31,.64-.58,1.73-1.28,3.52-2.11,5.34h4.58l1.34-1.47,3.17,2.37c-.26,.29-.54,.38-1.12,.45l-.93,3.9h.51l1.34-1.47,3.04,2.37c-.26,.26-.51,.35-1.09,.42l-.74,4.1h.48l1.79-1.76,3.26,2.69c-.26,.26-.64,.45-1.31,.54-.48,5.63-1.41,8.54-3.07,9.73-.99,.7-2.27,1.02-3.84,1.02,0-.99-.13-1.86-.54-2.3-.45-.54-1.31-.93-2.46-1.15v-.45c1.06,.1,2.82,.19,3.42,.19,.54,0,.8-.06,1.12-.26,.77-.61,1.47-3.17,1.89-7.36h-18.75c-1.98,1.98-4.26,3.78-6.91,5.25l-.32-.29c4.99-4.1,8.58-9.86,10.98-15.58h-8.32l-.29-.93h8.99c.99-2.56,1.76-5.09,2.3-7.42l4.9,1.44Zm-12.1,19.52c1.76,4.19,.45,7.07-1.25,8.03-1.15,.67-2.62,.38-3.04-.77-.38-1.12,.32-2.02,1.28-2.5,1.31-.7,2.69-2.56,2.56-4.74l.45-.03Zm.61-14.97c-.22-1.89-1.38-3.97-2.53-5.31l.29-.19c8.86,1.38,5.63,8,2.24,5.5Zm15.74,7.58h-11.14c-1.06,1.57-2.24,3.07-3.58,4.51h13.89l.83-4.51Zm-13.44,13.66c.54-2.05,.51-4.42,.16-6.18l.38-.13c6.18,4.35,1.82,9.54-.54,6.3Zm10.43-18.88h-5.12c-.7,1.44-1.54,2.91-2.43,4.32h6.5l1.06-4.32Zm-4.45,17.66c-.03-1.76-.86-3.84-1.76-5.22l.32-.16c7.52,2.21,4.26,7.87,1.44,5.38Zm5.41-1.73c-.32-1.44-1.57-3.07-2.66-4l.26-.22c7.55,.26,5.38,6.02,2.4,4.22Z"/>
      <path class="cls-1" d="M120.16,241.92l4.22,1.73h12.06l1.89-2.11,3.78,2.98c-.22,.29-.64,.54-1.28,.67v23.36c-.06,.32-1.95,1.25-3.42,1.25h-.64v-2.91h-12.67v1.7c0,.51-1.57,1.47-3.26,1.47h-.67v-28.13Zm16.61,2.62h-12.67v10.05h12.67v-10.05Zm-12.67,10.98v10.46h12.67v-10.46h-12.67Z"/>
      <path class="cls-1" d="M173.76,242.27c-.16,.38-.58,.61-1.25,.58-1.22,1.02-3.1,2.43-4.86,3.55h4.93l2.05-2.05,3.55,3.33c-.29,.29-.61,.35-1.25,.38-1.15,.86-3.14,1.95-4.58,2.56l-.29-.19c.26-.83,.54-2.11,.74-3.14h-19.65c.19,2.3-.67,3.87-1.82,4.51-1.12,.61-2.59,.29-3.01-.96-.32-1.18,.42-2.08,1.44-2.53,1.12-.61,2.34-2.18,2.21-3.9l.45-.03c.29,.7,.48,1.38,.61,2.02h8.1v-6.18l4.83,.42c-.03,.42-.26,.7-1.06,.83v4.93h1.79c.7-1.73,1.5-4.1,1.95-5.79l5.12,1.66Zm-21.73,15.33l3.94,1.54h5.15v-3.26h-2.88v.67c0,.29-1.63,1.09-3.14,1.09h-.51v-9.02l3.84,1.5h9.15l1.66-1.76,3.49,2.59c-.16,.22-.58,.48-1.12,.61v4.7c-.03,.19-1.92,.83-3.07,.83h-.64v-1.22h-3.14v3.26h5.38l1.63-1.86,3.68,2.72c-.19,.26-.64,.54-1.31,.67v4.22c0,2.34-.51,3.71-4.48,4.03-.06-1.09-.16-1.89-.54-2.43-.35-.48-.93-.93-2.21-1.15v-.42s2.3,.16,2.98,.16c.45,0,.58-.19,.58-.54v-4.48h-5.7v8.93c0,.22-1.12,1.25-3.01,1.25h-.64v-10.17h-5.44v7.81c0,.32-1.63,1.12-3.1,1.12h-.54v-11.39Zm3.58-11.97c-.1-1.7-1.12-3.62-2.21-4.77l.29-.19c8.29,1.12,5.09,7.42,1.92,4.96Zm12.29,9.34v-3.94h-9.66v3.94h9.66Z"/>
      <path class="cls-1" d="M191.62,249.73v-5.38l3.62,1.44h6.69c.48-1.7,1.09-4,1.47-5.6l5.09,1.31c-.13,.42-.51,.67-1.22,.64-1.12,.99-2.91,2.46-4.48,3.65h2.72l1.57-1.66,3.3,2.5c-.16,.19-.54,.42-1.06,.51v8.83c-.03,.22-1.79,.9-2.91,.9h-.45l2.72,2.05c-.19,.26-.64,.54-1.28,.67v9.6c-.03,.22-1.82,.86-3.01,.86h-.61v-1.95h-7.23v1.02c0,.32-1.5,1.12-2.98,1.12h-.51v-12.86c-.29,.06-.61,.1-.93,.1h-.51v-7.17c-.13,.13-.35,.19-.61,.19h-3.36v9.44l4.29-.93,.1,.32c-1.76,1.31-4.51,3.2-8.58,5.54-.13,.42-.45,.74-.83,.83l-1.95-4.38,3.46-.64v-10.17h-3.1l-.26-.9h3.36v-8.8l4.7,.45c-.06,.45-.29,.74-1.18,.86v7.49h.06l1.5-2.53s1.47,1.54,2.4,2.66Zm4.61-4.51c-.29-1.63-1.38-3.49-2.37-4.64l.29-.19c8.03,.96,5.22,6.94,2.08,4.83Zm-2.11,11.81l2.62,1.06h6.72l1.7-1.82,.64,.48v-1.28h-10.78v.93c0,.16-.35,.42-.9,.64Zm4.86-10.3h-3.97v7.81h3.97v-7.81Zm-2.5,5.92c-.03-1.41-.74-3.2-1.41-4.35l.38-.16c5.41,2.43,2.94,6.34,1.02,4.51Zm7.3,6.37h-7.23v3.55h7.23v-3.55Zm0,4.48h-7.23v3.71h7.23v-3.71Zm2.02-16.77h-3.87v7.81h3.87v-4.86l-.48,.03c-.67,1.12-1.54,2.43-2.34,3.42l-.54-.26c.29-1.25,.67-3.23,.99-4.96l2.37,.96v-2.14Z"/>
      <path class="cls-1" d="M215.87,252.45c-.22-1.66-1.28-3.46-2.37-4.61l.29-.19c8.16,1.06,5.18,7.07,2.08,4.8Zm.42,7.2q.67-1.18,5.98-13.54l.51,.16c-1.12,3.71-3.04,10.62-3.42,12.29-.22,1.02-.42,2.14-.42,2.98,.06,1.73,1.38,2.88,1.28,5.73-.06,1.6-1.12,2.66-2.66,2.66-.74,0-1.47-.48-1.73-1.66,.61-3.33,.45-6.34-.26-6.85-.45-.29-.96-.45-1.66-.51v-.61h1.44c.45,0,.58,0,.93-.64Zm2.46-14.08c-.45-1.7-1.82-3.58-2.98-4.77l.26-.19c8.67,.67,6.08,7.04,2.72,4.96Zm17.44-2.56l1.92-2.62s2.21,1.79,3.49,3.01c-.1,.35-.42,.51-.86,.51h-7.2c-.42,1.89-.99,3.62-1.76,5.25h6.34l1.98-2.72s2.27,1.86,3.62,3.14c-.1,.35-.45,.51-.9,.51h-7.87c2.11,2.4,5.86,4.16,9.25,4.9l-.06,.35c-1.31,.35-2.3,1.47-2.69,3.3-3.42-1.79-5.79-4.61-7.3-8.54h-2.85c-2.21,3.97-5.82,7.04-11.29,9.02l-.19-.38c3.78-2.3,6.24-5.25,7.78-8.64h-4.96l-.26-.93h5.6c.64-1.66,1.06-3.42,1.31-5.25h-5.63l-.26-.9h12.8Zm-9.66,14.91c2.21,10.08-7.2,8.51-4.29,4.93,1.7-.64,3.39-2.21,3.84-4.96l.45,.03Zm7.04-3.2c-.1,.48-.42,.74-1.12,.83v10.5c0,2.43-.51,3.81-4.45,4.16-.1-1.09-.26-1.92-.7-2.46-.48-.51-1.15-.86-2.66-1.12v-.45s3.14,.19,3.74,.19c.51,0,.64-.16,.64-.51v-11.55l4.54,.42Zm1.18,10.62c.19-2.21-.51-4.83-1.31-6.66l.38-.16c6.78,3.87,3.49,9.47,.93,6.82Zm5.79,.06c-.19-2.53-1.86-5.54-3.55-7.42l.32-.22c9.12,3.26,6.34,10.21,3.23,7.65Z"/>
      <path class="cls-1" d="M12.93,298.24v-2.66H.35l-.26-.93H12.93v-2.59H4.19l-.29-.93H12.93v-2.94l4.9,.45c-.06,.45-.32,.77-1.18,.9v1.6h4.32l1.66-1.76,3.46,2.59c-.19,.22-.58,.48-1.22,.61v2.08h.74l1.63-2.18s1.82,1.54,2.91,2.59c-.06,.35-.38,.51-.83,.51h-4.45v3.81c0,.06-.1,.13-.22,.19,.45,.35,2.05,1.57,3.14,2.46-.1,.35-.42,.51-.86,.51h-10.27v2.56h8.03l1.86-2.27s2.11,1.54,3.42,2.66c-.1,.35-.42,.51-.86,.51H.42l-.29-.9H12.93v-2.56H2.94l-.29-.9H12.93v-2.53H4l-.26-.9H12.93Zm-7.87,8.51l3.97,1.54h11.94l1.73-1.89,3.65,2.75c-.19,.26-.61,.54-1.28,.67v7.36c-.03,.22-1.92,.86-3.14,.86h-.64v-1.73H8.77v.7c0,.35-1.66,1.15-3.17,1.15h-.54v-11.42Zm16.22,2.46H8.77v2.53h12.51v-2.53Zm0,3.42H8.77v2.75h12.51v-2.75Zm0-17.98v-2.59h-4.64v2.59h4.64Zm-4.64,3.58h4.64v-2.66h-4.64v2.66Zm6.02,3.42l1.54-1.86c-.61,.29-1.54,.58-2.27,.58h-.64v-1.25h-4.64v2.53h6.02Z"/>
      <path class="cls-1" d="M56.64,291.46c-1.92,.29-4.22,.58-6.72,.83v3.39h6.98l2.11-2.78s2.43,1.89,3.87,3.17c-.1,.35-.45,.51-.9,.51h-12.06v.96c13.44,.9,13.31,8.54,9.18,7.52-1.98-2.3-5.89-5.02-9.18-6.69v4.99c-.03,.19-1.18,.99-3.14,.99h-.67v-6.08c-1.82,2.08-4.26,3.9-7.07,5.38l3.65,1.47h10.65l1.7-1.92,3.62,2.75c-.19,.26-.61,.54-1.25,.67v10.53c-.03,.22-1.89,.93-3.14,.93h-.61v-2.18h-11.2v1.06c0,.38-1.6,1.22-3.14,1.22h-.58v-14.37c-1.76,.9-3.68,1.7-5.7,2.37l-.22-.38c4-2.27,7.39-5.82,9.47-9.21h-8.61l-.26-.9h12.67v-3.07c-3.58,.26-7.36,.38-10.81,.38l-.06-.54c6.88-.8,15.55-2.69,20.06-4.29l3.39,3.39c-.35,.29-1.09,.32-2.05-.1Zm-14.17,14.56v4h11.2v-4h-11.2Zm11.2,8.99v-4.1h-11.2v4.1h11.2Z"/>
      <path class="cls-1" d="M76.35,297.21c.22-.19,.51-.35,.77-.48,.32-2.37,.7-6.37,.74-8.19l4.13,.51c-.1,.38-.38,.77-1.15,.83l-.19,2.4h1.28l1.38-1.98s1.57,1.44,2.46,2.4c-.06,.35-.38,.51-.8,.51h-4.42l-.38,3.78h1.7l1.5-1.5,2.82,2.3c-.22,.26-.58,.42-1.22,.51-.22,5.79-.74,8.06-1.98,9.02-.77,.61-1.79,.9-2.98,.9,0-.8-.06-1.5-.42-1.89-.29-.35-.8-.64-1.5-.8-.58,.93-1.18,1.73-1.89,2.4l-.48-.29c.83-2.14,1.41-5.28,1.63-8.26l3.9,.86c-.1,.42-.45,.7-1.15,.74-.48,1.47-1.06,2.85-1.73,4.06l1.89,.06c.42,0,.61-.06,.83-.22,.54-.48,.9-2.53,1.06-7.01h-1.89l-1.15,1.44-2.82-1.73c-.1,.19-.32,.26-.61,.26h-3.33l.13,5.18h.77l1.25-1.89s1.44,1.34,2.27,2.3c-.1,.35-.38,.51-.8,.51h-3.46l.13,4.67h15.81l.13-4.9h-2.91l-.29-.93h3.23l.1-5.22h-2.59l-.29-.9h2.91l.1-4.9h-3.46l-.29-.93h3.42l1.54-1.89,3.49,2.82c-.26,.32-.54,.42-1.22,.54l-.38,16.29h.16l1.41-2.24s1.66,1.57,2.56,2.62c-.1,.35-.42,.51-.83,.51h-29.44l-.26-.9h3.65l-.48-18.69,3.42,.99c.96-1.02,1.92-2.21,2.4-2.85l3.01,3.04c-.22,.26-.61,.26-1.06,.03-.9,.32-2.62,.8-4.26,1.12l.13,4.64h.74l1.22-1.82s1.28,1.18,2.05,2.11Zm1.25,15.55c-2.53,2.18-6.98,4.26-11.71,5.44l-.16-.35c3.55-1.98,6.98-5.38,8.48-7.94l5.22,2.27c-.26,.42-.74,.64-1.82,.58Zm13.05,4.38c-1.18-1.89-3.49-4.35-7.68-6.14l.16-.42c17.34,1.82,10.85,10.02,7.52,6.56Z"/>
      <path class="cls-1" d="M110.05,311.61c-3.26,2.82-8.13,4.48-11.81,5.06l-.16-.38c3.04-1.6,6.62-4.51,9.09-7.87l4.26,2.88c-.26,.35-.64,.48-1.38,.32Zm-4.54-7.65c.06-.54,.06-1.12,0-1.7-1.28,.58-3.07,1.38-4.9,2.14-.19,.38-.45,.61-.74,.74l-1.44-3.23s.64-.16,.9-.35c1.18-1.02,2.62-3.01,3.81-4.99l-2.46,1.18c-.19,.29-.42,.51-.64,.61l-1.44-3.2s.51-.13,.77-.32c1.25-1.22,2.78-4.83,3.23-6.72l4.06,1.79c-.13,.29-.48,.54-1.12,.48-1.15,1.5-2.94,3.39-4.58,4.74l3.1-.19c.51-.96,.93-1.89,1.22-2.66l3.68,2.21c-.16,.29-.58,.51-1.22,.38-.77,1.09-1.86,2.34-3.07,3.58l.22-.06c5.57,3.33,2.66,7.78,.61,5.57Zm22.94,3.78c-.1,.35-.45,.51-.9,.51h-11.97v9.02c0,.32-1.73,.96-3.3,.96h-.7v-9.98h-12.8l-.26-.93h13.05v-3.01l5.18,.48c-.06,.42-.32,.74-1.18,.86v1.66h6.88l2.11-2.66s2.4,1.79,3.87,3.07Zm-23.07-6.34c-.19-1.02-.48-2.02-.83-2.78-1.12,1.12-2.34,2.24-3.49,3.17l4.32-.38Zm4.03,3.2h-.45v-13.73l2.85,1.22c.1-1.22,.16-2.85,.19-4.03l4.26,.58c-.1,.51-.48,.77-1.18,.83-.54,.8-1.41,1.86-2.08,2.72h1.63l1.44-1.57,3.01,2.3c-.16,.22-.54,.42-1.06,.54v9.79c-.03,.19-1.57,.86-2.59,.86h-.54v-1.54h-2.94v1.06c0,.32-1.28,.96-2.53,.96Zm2.53-11.52v3.78h2.94v-3.78h-2.94Zm2.94,4.7h-2.94v3.9h2.94v-3.9Zm10.14,18.62c-1.79-2.05-4.8-4.61-8.16-6.08l.13-.35c12.51-.86,12.45,8,8.03,6.43Zm.74-12.51c.03-.61-.03-1.25-.13-1.89-1.22,.61-3.04,1.47-4.9,2.27-.22,.42-.48,.67-.77,.8l-1.47-3.23s.64-.16,.9-.32c1.12-1.02,2.46-2.94,3.58-4.93l-2.24,1.06c-.19,.35-.45,.58-.7,.67l-1.47-3.26s.51-.1,.77-.29c1.25-1.22,2.78-4.86,3.23-6.72l4.13,1.79c-.13,.29-.48,.54-1.09,.48-1.18,1.57-3.01,3.46-4.7,4.8l2.94-.19c.51-.99,.9-1.92,1.15-2.69l3.71,2.21c-.16,.26-.54,.48-1.18,.38-1.41,2.05-4,4.86-6.4,6.82l4.38-.42c-.19-1.02-.48-2.02-.8-2.82l.42-.13c5.7,3.42,2.75,7.87,.64,5.6Z"/>
      <path class="cls-1" d="M134.18,300.64c-.45-1.66-1.86-3.49-3.1-4.61l.26-.22c8.67,.38,6.21,6.91,2.85,4.83Zm-.16,7.55q.77-1.18,6.88-13.34l.51,.16c-1.34,3.68-3.68,10.5-4.13,12.13-.29,1.02-.54,2.14-.51,2.98,.03,1.66,1.34,2.75,1.25,5.54-.06,1.63-1.15,2.66-2.75,2.66-.74,0-1.5-.48-1.76-1.63,.58-3.33,.45-6.21-.32-6.72-.45-.32-.99-.48-1.66-.54v-.58h1.47c.51,0,.64,0,1.02-.64Zm2.85-14.3c-.54-1.73-2.08-3.68-3.39-4.86l.26-.22c8.96,.38,6.69,7.04,3.14,5.09Zm5.12,10.43l3.87,1.54h2.66v-6.18h-8.06l-.26-.9h8.32v-5.44c-2.59,.22-5.28,.42-7.78,.48l-.1-.45c5.44-1.09,12.32-3.23,15.81-4.9l3.74,3.58c-.38,.29-1.12,.32-2.11-.03-1.6,.32-3.58,.61-5.73,.86v5.89h3.55l2.02-2.75s2.3,1.86,3.65,3.14c-.1,.35-.45,.51-.9,.51h-8.32v6.18h2.66l1.79-1.92,3.62,2.75c-.22,.26-.64,.58-1.31,.7v9.54c-.03,.26-1.86,1.06-3.1,1.06h-.64v-2.62h-9.7v1.63c0,.35-1.6,1.15-3.14,1.15h-.54v-13.82Zm13.38,2.43h-9.7v7.71h9.7v-7.71Z"/>
      <path class="cls-1" d="M171.1,298.72c2.5,0,4.51,2.02,4.51,4.51s-2.02,4.54-4.51,4.54-4.54-2.05-4.54-4.54,2.05-4.51,4.54-4.51Zm0,7.9c1.86,0,3.36-1.54,3.36-3.39s-1.5-3.36-3.36-3.36-3.39,1.5-3.39,3.36,1.5,3.39,3.39,3.39Z"/>
    </g>
  </g>
</svg>