<?xml version="1.0" encoding="UTF-8"?>
<svg id="_圖層_2" data-name="圖層 2" xmlns="http://www.w3.org/2000/svg" viewBox="0 0 493.78 110.07">
  <defs>
    <style>
      .cls-1 {
        fill: #b37a5c;
      }
    </style>
  </defs>
  <g id="_圖層_1-2" data-name="圖層 1">
    <g>
      <path class="cls-1" d="M137.49,2.74c-.08,.31-.36,.45-.73,.45h-19.77V23.66h16.91l1.68-2.24s1.88,1.54,3,2.6c-.08,.31-.36,.45-.76,.45h-20.61l-.87,1.37-2.8-1.71c.2-.22,.5-.5,.81-.7V1.2l3,1.18h15.99l1.46-1.96s1.68,1.34,2.69,2.32Zm-.45,8.68c-.08,.31-.36,.45-.76,.45h-5.8v9.8c0,.17-.81,.73-2.13,.73h-.45V11.87h-4.7c-.06,3.33-.62,7.76-4.87,10.64l-.28-.34c2.38-3.25,2.6-7.28,2.6-10.81V5.74l2.52,.81c3.33-.62,7.11-1.65,9.18-2.49l2.66,2.58c-.31,.28-.87,.28-1.62-.03-2.66,.39-6.61,.67-10.19,.64v3.84h9.44l1.54-1.9s1.76,1.29,2.86,2.24Z"/>
      <path class="cls-1" d="M145.98,18.73c-.78,1.2-2.18,1.54-2.91,.78-.59-.62-.39-1.54,.2-2.24,1.46-1.4,2.83-4.96,2.77-8.76l.42-.03c1.68,5.01,.73,8.51-.48,10.25Zm6.44-12.54v14.95c0,.7,.31,.95,1.68,.95h3.67c1.48,0,2.63-.03,3.19-.08,.48-.03,.67-.17,.87-.48,.31-.59,.78-2.32,1.32-4.54h.34l.08,4.73c.9,.31,1.12,.62,1.12,1.18,0,1.32-1.29,1.85-7.11,1.85h-3.81c-3.05,0-4-.53-4-2.86V5.07l3.64,.36c-.06,.37-.31,.67-.98,.76Zm5.35,1.88c-.56-2.49-2.49-5.54-4.17-7.56l.31-.2c8.9,3.7,6.78,9.97,3.86,7.76Zm8.37,10.95c-.31-2.6-1.18-6.86-3.53-9.77l.28-.22c9.02,5.85,5.57,12.88,3.25,10Z"/>
      <path class="cls-1" d="M184.03,4.14c-.06,.31-.34,.45-.73,.45h-3.75v12.12l5.63-.95,.06,.37c-2.24,1.12-5.57,2.58-10.5,4.45-.14,.34-.42,.59-.73,.7l-1.54-3.53c.95-.11,2.49-.31,4.37-.59V4.59h-3.89l-.22-.81h7.25l1.43-1.82s1.68,1.26,2.63,2.18Zm14.84-1.04c-.08,.31-.36,.45-.78,.45h-7.62c-.62,2.07-1.74,5.49-2.52,7.73h6.13l1.51-1.51,2.66,2.27c-.2,.25-.56,.42-1.18,.48-.45,6.44-1.37,11-2.94,12.35-.95,.81-2.16,1.09-4,1.09,.03-.76-.14-1.34-.67-1.76-.59-.45-2.04-.84-3.5-1.09l.03-.39c1.62,.14,4.26,.34,4.98,.34,.59,0,.84-.06,1.18-.34,1.04-.81,1.76-5.15,2.18-10.61h-6.44l-1.12,1.26-2.69-1.79c.28-.22,.73-.48,1.15-.64,.78-2.1,1.82-5.46,2.3-7.36h-3.75l-.22-.81h10.84l1.57-2.07s1.82,1.43,2.91,2.44Z"/>
      <path class="cls-1" d="M215.47,6.58c-.08,.31-.34,.45-.73,.45h-3.56v1.57h2.16l1.18-1.32s1.34,.95,2.21,1.68c-.08,.31-.36,.45-.73,.45h-2.94v.95c0,.25,.06,.34,.31,.34h1.09c.11,0,.28,0,.39-.03,.11,0,.34-.06,.45-.08h.25l.11,.03c.53,.17,.73,.31,.73,.67,0,.73-.59,.95-2.63,.95,.34,.22,1.26,.84,1.9,1.43-.06,.31-.34,.45-.7,.45h-4v1.4l4.79-.48,.03,.45c-2.3,.73-5.35,1.57-9.6,2.44-.14,.34-.39,.53-.67,.59l-1.29-2.58c1.06,0,2.69-.11,4.56-.25v-1.57h-3.19l-.22-.81h3.42v-1.99l2.44,.25c-.08-.22-.11-.53-.11-.9v-1.26h-1.6c-.67,1.76-2.07,3.02-5.29,3.72l-.36-.42c2.13-.64,3-1.9,3.36-3.3h-2.74l-.22-.81h4.68v-1.57h-3.5l-.22-.81h3.72v-1.46l-.48,.03h-.5v-1.76h-4.59l-.22-.81h4.82V0l3.53,.34c-.06,.31-.25,.56-.84,.62v1.26h1.88l1.18-1.54s1.4,1.09,2.24,1.9c-.08,.31-.34,.45-.7,.45h-4.59v1.15c0,.08-.28,.22-.67,.36l1.99,.2c-.06,.31-.25,.5-.76,.59v.9h1.01l1.15-1.34s1.29,.98,2.13,1.71Zm12.85,13.86c-.08,.31-.36,.45-.76,.45h-12.77l1.62,.67c-.11,.28-.53,.53-1.32,.36-1.32,.5-3.22,1.04-5.1,1.43,3-.03,7.17-.14,11.65-.25-.7-.5-1.48-1.04-2.3-1.51l.17-.39c9.02,1.01,7.48,5.68,5.1,4.62-.42-.53-1.15-1.26-2.13-2.04-3.61,.48-8.68,1.12-14.56,1.68-.2,.22-.39,.39-.59,.48l-1.12-2.71s.53-.06,.78-.11c1.85-.31,4.09-1.37,5.54-2.21h-8.48l-.22-.81h20.24l1.48-1.71s1.65,1.2,2.74,2.07Zm-4.34-2.55c-.08,.31-.36,.45-.76,.45h-13.69l-.22-.81h10.56l1.43-1.68s1.65,1.18,2.69,2.04Zm-13.02-5.66v1.06h1.54l.98-1.06h-.76c-.59,0-.95-.06-1.2-.22-.11,.11-.28,.17-.56,.22Zm7.87-1.82c.11-.7,.17-1.43,.2-2.21h-2.18l-.25-.81h2.44l.03-2.66,1.29,.11v-1.82h-3.58l-.22-.81h3.81V0l3.53,.34c-.06,.31-.25,.56-.81,.62v1.26h2.16l1.29-1.79s1.54,1.26,2.41,2.16c-.06,.31-.31,.45-.7,.45h-5.15v1.34c0,.17-.87,.5-1.74,.59l.9,.08c-.06,.34-.31,.62-.9,.7l-.06,1.65h1.74l1.2-1.23,2.27,1.85c-.17,.17-.59,.34-1.01,.39-.14,2.49,.14,5.54,1.06,6.41,.17,.14,.25,.11,.39-.14,.22-.53,.5-1.29,.73-2.04l.34,.05-.25,2.74c.5,.62,.7,1.12,.42,1.57-.5,.84-1.82,.5-2.6-.11-1.85-1.57-2.21-4.93-2.27-8.68h-2.04c-.06,1.09-.17,2.1-.42,3.05,3.08,1.71,1.93,4.12,.36,3.28-.2-.39-.53-.9-1.01-1.46-.87,1.68-2.38,3.08-5.1,4.17l-.31-.45c2.3-1.37,3.36-3.08,3.84-5.15-.56-.42-1.18-.84-1.88-1.23l.2-.42c.73,.11,1.34,.25,1.9,.42Z"/>
      <path class="cls-1" d="M236.25,15.99c1.74-.87,2.77-1.68,3.25-3.25-1.88-.81-2.6-1.65-2.6-2.69,0-1.15,.87-2.1,2.16-2.1,.73,0,1.26,.17,1.79,.67,.31,.7,.39,1.15,.39,1.93,0,3.19-1.79,5.29-4.62,6.24l-.36-.81Z"/>
      <path class="cls-1" d="M251.15,6.24l2.97,1.18h5.29c.17-1.15,.39-2.8,.56-4.14h-10.53l-.25-.78h21.03l1.76-2.16s1.93,1.46,3.16,2.49c-.08,.31-.39,.45-.78,.45h-10.78c-1.01,1.4-2.21,3-3.22,4.14h9.74l1.37-1.62,2.69,2.13c-.2,.25-.53,.45-1.15,.56V24.92c0,.17-.98,.78-2.32,.78h-.45v-2.04h-16.44v1.48c0,.22-.84,.76-2.18,.76h-.48V6.24Zm6.27,16.6V8.23h-3.61v14.62h3.61Zm2.49-10.36h4.14v-4.26h-4.14v4.26Zm0,5.15h4.14v-4.34h-4.14v4.34Zm0,5.21h4.14v-4.4h-4.14v4.4Zm10.33-14.62h-3.67v14.62h3.67V8.23Z"/>
      <path class="cls-1" d="M281.25,6.24l2.97,1.18h5.29c.17-1.15,.39-2.8,.56-4.14h-10.53l-.25-.78h21.03l1.76-2.16s1.93,1.46,3.16,2.49c-.08,.31-.39,.45-.78,.45h-10.78c-1.01,1.4-2.21,3-3.22,4.14h9.74l1.37-1.62,2.69,2.13c-.2,.25-.53,.45-1.15,.56V24.92c0,.17-.98,.78-2.32,.78h-.45v-2.04h-16.44v1.48c0,.22-.84,.76-2.18,.76h-.48V6.24Zm6.27,16.6V8.23h-3.61v14.62h3.61Zm2.49-10.36h4.14v-4.26h-4.14v4.26Zm0,5.15h4.14v-4.34h-4.14v4.34Zm0,5.21h4.14v-4.4h-4.14v4.4Zm10.33-14.62h-3.67v14.62h3.67V8.23Z"/>
      <path class="cls-1" d="M318.65,1.2c-.14,.34-.48,.59-1.12,.56-.78,2.1-1.71,4.06-2.74,5.85l1.37,.5c-.08,.25-.34,.45-.84,.53V25.2c-.06,.22-1.15,.81-2.21,.81h-.48V10.86c-1.04,1.37-2.16,2.58-3.36,3.61l-.36-.25c2.3-3.44,4.65-8.85,5.91-14.2l3.84,1.18Zm6.58,20.08c-.25,.28-.53,.36-1.2,.17-2.38,2.21-5.29,3.78-7.92,4.59l-.22-.39c2.04-1.43,4.48-3.89,6.24-6.61l3.11,2.24Zm-5.96-20.61l2.94,1.15h6.97l1.37-1.46,2.69,2.13c-.2,.22-.62,.45-1.18,.56v14.87h.14l1.23-1.74s1.43,1.23,2.24,2.1c-.08,.31-.34,.45-.7,.45h-18.54l-.22-.81h3.05V.67Zm10.19,5.12V2.63h-7.62v3.16h7.62Zm-7.62,4h7.62v-3.19h-7.62v3.19Zm0,4.06h7.62v-3.25h-7.62v3.25Zm7.62,4.06v-3.25h-7.62v3.25h7.62Zm2.88,7.81c-.92-2.04-3.36-4.51-5.26-5.99l.25-.22c9.44,1.88,8.01,7.79,5.01,6.22Z"/>
      <path class="cls-1" d="M354.52,15.76c-.06,.31-.34,.45-.73,.45h-5.46v4.65l6.8-1.12,.08,.39c-3,1.2-7.34,2.74-13.58,4.68-.17,.36-.45,.59-.76,.67l-1.4-3.33c1.32-.14,3.53-.45,6.24-.9v-5.04h-5.4l-.22-.81h5.63v-4.06l3.58,.31c-.06,.39-.28,.64-.98,.73v3.02h2.02l1.51-2.04s1.68,1.43,2.66,2.41Zm.73-12.82c-.06,.31-.36,.45-.76,.45h-8.76l3.22,1.01c-.11,.28-.42,.53-1.01,.5-1.34,1.51-3.61,3.39-5.54,4.65,2.1-.08,5.43-.31,8.99-.56-.59-1.26-1.48-2.46-2.35-3.33l.31-.2c7.45,2.55,5.29,8.01,2.83,6.02-.06-.59-.22-1.23-.5-1.88-2.32,.62-5.63,1.51-9.35,2.32-.2,.34-.42,.53-.67,.64l-1.37-3.19s.59-.08,.81-.22c1.57-1.06,3.5-4.09,4.23-5.77h-5.4l-.22-.81h11.28l1.51-2.02s1.74,1.4,2.77,2.38Zm3.44,.7v15.51c0,.25-1.06,.78-1.99,.78h-.48V2.55l3.5,.34c-.08,.39-.31,.67-1.04,.76Zm5.46-2.07V22.74c0,1.9-.39,3.05-3.61,3.36-.08-.84-.25-1.46-.67-1.88-.45-.42-1.12-.73-2.44-.92v-.42s2.94,.22,3.53,.22c.5,0,.64-.17,.64-.59V.42l3.58,.36c-.06,.42-.34,.67-1.04,.78Z"/>
      <path class="cls-1" d="M375.52,9.07c2.18,0,3.95,1.76,3.95,3.95s-1.76,3.98-3.95,3.98-3.98-1.79-3.98-3.98,1.79-3.95,3.98-3.95Zm0,6.92c1.62,0,2.94-1.34,2.94-2.97s-1.32-2.94-2.94-2.94-2.97,1.32-2.97,2.94,1.32,2.97,2.97,2.97Z"/>
      <path class="cls-1" d="M3.95,61.57l-.28-18.06,3.7,.31c-.03,.39-.22,.67-.98,.78l.25,16.18c2.24-.64,4.73-1.46,7.2-2.27l.11,.37c-2.69,1.6-6.41,3.72-11.73,6.19-.11,.31-.36,.62-.67,.73l-1.54-3.19c.92-.2,2.3-.56,3.95-1.04Zm20.55-17.58c-.06,.42-.39,.76-1.06,.81-.25,5.96-.67,10.98-3.56,15.06,8.57,3.7,6.86,9.32,3.89,7.48-.81-2.1-2.74-4.65-4.54-6.64-2.41,2.94-6.3,5.38-12.6,7.31l-.25-.48c13.1-5.88,13.92-13.1,14.11-23.94l4,.39Zm-10.92,9.35c-.62-2.13-2.52-4.7-4.06-6.44l.28-.2c8.65,2.88,6.61,8.6,3.78,6.64Z"/>
      <path class="cls-1" d="M45.92,42.73c-.08,.34-.39,.62-1.04,.64-.73,1.06-1.88,2.41-3.02,3.53h7.45l1.4-1.6,2.91,2.32c-.2,.22-.62,.47-1.23,.62v18.73c-.03,.25-1.37,.92-2.35,.92h-.45v-2.02h-12.18v1.06c0,.34-1.09,1.01-2.3,1.01h-.45v-22.32l2.97,1.26h3.16c.39-1.51,.7-3.47,.87-4.87l4.26,.7Zm-8.51,4.98v5.12h12.18v-5.12h-12.18Zm0,11.2h12.18v-5.29h-12.18v5.29Zm0,6.16h12.18v-5.38h-12.18v5.38Z"/>
      <path class="cls-1" d="M70.08,43.18c-.14,.36-.5,.62-1.12,.59-.92,2.46-2.04,4.73-3.33,6.75l1.76,.67c-.08,.22-.34,.42-.84,.5v15.51c-.06,.22-1.15,.81-2.18,.81h-.5v-14.98c-1.06,1.37-2.21,2.58-3.44,3.61l-.36-.25c2.41-3.44,4.87-8.93,6.19-14.39l3.84,1.18Zm5.07,22.79v-8.68h-6.08l-.22-.78h6.3v-7.2h-6.8l-.2-.81h13.41l1.62-2.07s1.82,1.43,2.94,2.44c-.08,.31-.36,.45-.76,.45h-7.36v7.2h3.3l1.51-1.96s1.76,1.34,2.8,2.32c-.08,.31-.36,.42-.76,.42h-6.86v8.68h4.03l1.71-2.16s1.93,1.48,3.08,2.52c-.08,.31-.36,.45-.78,.45h-18.34l-.22-.81h7.67Zm1.6-18.54c-.67-1.71-2.52-3.75-4.03-4.96l.25-.22c8.06,1.2,6.55,6.69,3.78,5.18Z"/>
      <path class="cls-1" d="M106.09,42.9c-.11,.36-.36,.56-1.15,.53-.5,1.54-1.12,3.14-1.85,4.76h4.65l1.04-1.12,2.35,1.85c-.2,.22-.45,.31-.95,.36l-.78,3.53h.9l1.06-1.12,2.27,1.85c-.2,.2-.45,.28-.9,.34l-.67,3.67h.98l1.34-1.32,2.52,2.07c-.2,.2-.56,.36-1.12,.42-.42,4.7-1.32,7.48-2.69,8.46-.81,.62-1.88,.9-3.14,.9,0-.73-.11-1.37-.48-1.71-.39-.39-1.23-.67-2.24-.87v-.42c.98,.08,2.66,.2,3.22,.2,.48,0,.73-.05,1.01-.25,.7-.56,1.4-2.94,1.76-6.66h-16.97c-1.65,1.65-3.53,3.16-5.68,4.42l-.31-.31c4.45-3.5,7.64-8.46,9.77-13.47h-7.56l-.22-.81h8.12c.87-2.16,1.51-4.31,1.99-6.36l3.72,1.06Zm-10.19,17.39c1.23,3.44,0,5.74-1.34,6.52-.9,.53-2.04,.42-2.38-.42-.31-.79,.2-1.46,.92-1.88,1.2-.62,2.44-2.24,2.38-4.23h.42Zm.98-13.36c-.22-1.57-1.37-3.42-2.41-4.56l.28-.17c6.89,1.57,4.62,6.61,2.13,4.73Zm13.55,6.66h-10.3c-.92,1.37-1.93,2.69-3.08,3.95h12.66l.73-3.95Zm-11.73,11.96c.39-1.71,.25-3.78-.08-5.26l.36-.11c4.62,3.7,1.48,7.76-.28,5.38Zm9.1-16.55h-5.07c-.62,1.29-1.32,2.55-2.1,3.81h6.27l.9-3.81Zm-3.98,15.46c-.03-1.48-.84-3.25-1.65-4.4l.31-.17c5.85,2.1,3.44,6.44,1.34,4.56Zm4.79-1.43c-.31-1.2-1.48-2.6-2.46-3.39l.25-.22c5.99,.56,4.45,4.96,2.21,3.61Z"/>
      <path class="cls-1" d="M130.23,49.2c-.08,.31-.34,.45-.73,.45h-3.05v1.96c5.35,2.35,3.36,6.05,1.51,4.45-.11-1.21-.81-2.72-1.51-3.81v14.84c0,.31-1.04,.92-1.9,.92h-.48v-11.7c-.87,1.88-1.96,3.58-3.28,5.12l-.42-.34c1.76-3.19,2.74-7.39,3.3-11.45h-2.8l-.22-.81h3.42v-6.89l3.39,.34c-.06,.42-.28,.67-1.01,.78v5.77h.25l1.26-1.85s1.46,1.29,2.27,2.21Zm4.59,13.27c-1.29,1.68-3.42,3.58-5.88,4.7l-.28-.34c1.76-1.68,3.33-4.37,4-6.27l3.19,1.6c-.14,.28-.39,.42-1.04,.31Zm7.81-8.32v-.73h-9.91v.95c0,.22-1.01,.73-1.93,.73h-.31v-8.54l2.41,1.01h1.79v-2.86h-4.98l-.22-.81h12.96l1.48-1.9s1.71,1.32,2.72,2.27c-.06,.31-.34,.45-.76,.45h-5.26v2.86h1.74l1.18-1.29,2.6,1.96c-.2,.22-.62,.45-1.18,.56v4.96c-.03,.17-1.2,.59-1.96,.59h-.11c.53,.39,1.57,1.18,2.32,1.82-.08,.31-.36,.45-.76,.45h-13.08l-.22-.81h9.88l1.48-1.74,.11,.08Zm4.17,5.24c-.08,.31-.36,.45-.76,.45h-6.89v7.56c0,.11-.81,.59-2.13,.59h-.45v-8.15h-6.83l-.22-.81h13.05l1.48-1.82s1.68,1.26,2.74,2.18Zm-14.08-11v4.23h1.96v-4.23h-1.96Zm5.91-3.67h-1.96v2.86h1.96v-2.86Zm-1.96,3.67v4.23h1.96v-4.23h-1.96Zm7.48,18.03c-.62-1.76-2.52-3.84-4-5.07l.25-.22c7.95,1.62,6.38,6.89,3.75,5.29Zm-3.53-13.8h2.02v-4.23h-2.02v4.23Z"/>
      <path class="cls-1" d="M176.74,60.73c-.08,.31-.36,.45-.78,.45h-10.89v5.91c0,.25-1.2,.73-2.21,.73h-.5v-6.64h-11.26l-.25-.81h11.51v-2.35c-.34,.22-.92,.39-1.65,.39h-.48v-8.79c-.87,.92-1.79,1.71-2.77,2.35l-.36-.28c1.82-2.24,3.56-5.79,4.51-9.55l3.53,1.23c-.11,.34-.48,.56-1.09,.53-.31,.7-.64,1.34-1.01,1.99l.08,.03h4l-.2-.11c-.11-1.18-.9-2.58-1.68-3.36l.25-.2c4.09,.64,4.31,2.88,3.33,3.67h2.63l1.51-1.88s1.76,1.29,2.8,2.24c-.08,.31-.36,.45-.73,.45h-5.91v2.46h1.76l1.37-1.74s1.57,1.2,2.58,2.1c-.08,.31-.36,.45-.76,.45h-4.96v2.58h1.82l1.37-1.76s1.54,1.23,2.52,2.13c-.06,.31-.36,.45-.73,.45h-4.98v2.69h2.83l1.46-1.93s1.71,1.34,2.74,2.3c-.08,.31-.36,.45-.76,.45h-12.57v.7l-.06,.08,3.11,.31c-.06,.31-.25,.53-.81,.64v1.74h6.94l1.68-2.07s1.9,1.43,3.05,2.44Zm-22.99-11.56c-.31-1.12-1.4-2.41-2.35-3.14l.25-.2c6.13,.22,4.45,4.7,2.1,3.33Zm.28,3.14q.62-.76,5.32-7.34l.45,.17c-1.01,1.9-3.19,5.91-3.56,6.75-.28,.64-.5,1.34-.5,1.88,.03,.98,.87,1.85,.78,3.61-.06,1.04-.67,1.68-1.9,1.68-.5,0-.95-.39-1.09-1.15,.34-2.3,.22-3.89-.39-4.2-.36-.22-.78-.31-1.29-.36v-.56h1.32c.42,0,.53,0,.87-.48Zm2.38-6.55c-.36-1.12-1.48-2.46-2.44-3.19l.22-.22c6.19,.17,4.62,4.76,2.21,3.42Zm6.41,3.44h3.78v-2.46h-3.78v2.46Zm0,3.39h3.78v-2.58h-3.78v2.58Zm0,3.5h3.78v-2.69h-3.78v2.69Z"/>
      <path class="cls-1" d="M184.1,57.99c1.74-.87,2.77-1.68,3.25-3.25-1.88-.81-2.6-1.65-2.6-2.69,0-1.15,.87-2.1,2.16-2.1,.73,0,1.26,.17,1.79,.67,.31,.7,.39,1.15,.39,1.93,0,3.19-1.79,5.29-4.62,6.24l-.36-.81Z"/>
      <path class="cls-1" d="M201.68,54.94v-5.6h-4.42l-.22-.81h4.65v-6.52l3.61,.36c-.06,.39-.31,.67-1.01,.78v5.38h1.06l1.34-1.93s1.54,1.34,2.41,2.3c-.06,.31-.34,.45-.7,.45h-4.12v4.84l4.82-1.48,.11,.34c-1.29,.73-2.94,1.68-4.93,2.74v8.65c0,2.02-.39,3.25-3.72,3.58-.08-.95-.25-1.62-.67-2.1-.45-.48-1.18-.76-2.55-.98v-.42s3.05,.2,3.7,.2c.5,0,.64-.17,.64-.56v-7l-3.28,1.62c-.11,.34-.36,.64-.67,.76l-1.18-3.19c1.04-.22,2.88-.73,5.12-1.4Zm17.02-9.55l1.62-2.13s1.82,1.46,2.91,2.49c-.08,.31-.36,.45-.76,.45h-4.65v17.89c0,1.96-.53,3.39-4.23,3.67-.06-.9-.34-1.6-.9-2.02-.59-.45-1.43-.76-3.25-1.01v-.42s4.09,.28,4.9,.28c.56,0,.73-.2,.73-.62v-17.78h-8.12l-.22-.81h11.96Z"/>
      <path class="cls-1" d="M231.95,50.09h-4.37l-.25-.81h4.68l1.29-1.29,2.58,2.32c-.28,.28-.92,.42-1.65,.45-.87,1.34-2.32,3.56-3.42,5.07h1.82l1.43-1.43,2.46,2.16c-.17,.25-.45,.34-1.06,.36-.5,1.76-1.26,3.53-2.3,5.21,1.99,2.32,4.93,2.66,9.94,2.66,2.27,0,7.78,0,10.16-.06v.34c-1.01,.22-1.51,1.2-1.54,2.32h-8.68c-5.35,0-8.32-.95-10.28-4.65-1.4,2.04-3.22,3.89-5.6,5.32l-.28-.36c3.08-2.8,5.01-7.06,5.85-11.06h-2.3l-.87,.73-2.1-1.6c.28-.2,.7-.39,1.12-.5,1.04-1.46,2.49-3.64,3.36-5.18Zm-.08-3.28c-.45-1.6-1.96-3.47-3.22-4.56l.25-.2c7.28,1.06,5.63,6.3,2.97,4.76Zm9.1-2.6c-.31,.84-.67,1.65-1.06,2.44h3.08v-4.65l3.56,.34c-.06,.39-.31,.67-1.01,.78v3.53h1.88l1.46-1.9s1.71,1.29,2.72,2.27c-.06,.31-.34,.45-.76,.45h-5.29v4.31h3.02l1.54-1.96s1.76,1.34,2.83,2.32c-.08,.31-.36,.45-.78,.45h-15.93l-.22-.81h7v-4.31h-3.53c-.84,1.48-1.85,2.8-2.97,3.78l-.39-.25c1.04-2.1,1.96-5.29,2.38-8.34l3.53,.98c-.11,.34-.45,.59-1.04,.59Zm-2.58,19.63h-.39v-9.86l2.74,1.12h6.8l1.26-1.37,2.69,2.04c-.17,.22-.56,.45-1.09,.53v6.58c-.03,.2-1.29,.76-2.16,.76h-.45v-1.68h-7.2v1.09c0,.22-1.12,.78-2.21,.78Zm2.21-7.92v5.24h7.2v-5.24h-7.2Z"/>
      <path class="cls-1" d="M283.22,54.21c-.08,.34-.42,.45-.87,.45h-24.81l-.25-.92h20.05l2.1-2.86s2.35,1.99,3.78,3.33Z"/>
      <path class="cls-1" d="M301.11,43.12v1.6h4.7l1.6-2.02s1.82,1.4,2.94,2.38c-.08,.31-.36,.45-.76,.45h-8.48v1.68h7.95l1.43-1.43,2.55,2.41c-.22,.22-.53,.28-1.09,.31-.78,.81-2.24,1.96-3.28,2.63l-.34-.2c.28-.76,.64-1.96,.87-2.91h-16.97v5.6c0,4.42-.25,10.44-4.62,14.48l-.36-.22c2.24-4.23,2.38-9.55,2.38-14.22v-7.59l3.02,1.15h5.77v-5.18l3.7,.34c-.06,.39-.28,.64-1.01,.76Zm-3.95,11.93c-.2,.64-.39,1.26-.64,1.9h2.3l1.29-1.29,2.3,2.02c-.2,.25-.48,.34-1.09,.37-.64,2.27-1.62,4.17-3.11,5.74,1.74,1.2,4.09,1.48,7.25,1.48,1.82,0,6.08,0,8.04-.03v.36c-.84,.17-1.32,.98-1.32,1.96h-6.83c-3.81,0-6.44-.59-8.26-2.77-1.76,1.4-4.09,2.44-7.2,3.08l-.17-.42c2.88-.92,4.96-2.24,6.47-3.92-.53-.9-.98-1.99-1.34-3.28-.78,1.23-1.74,2.35-2.86,3.25l-.36-.25c1.71-2.21,2.88-6.05,3.33-9.27l3.22,.67c-.06,.31-.28,.45-1.01,.39Zm3.78-5.71v1.12l3.56-.34,1.18-1.76s1.62,1.04,2.6,1.76c-.03,.34-.31,.5-.67,.53l-6.66,.64v1.12c0,.34,.08,.42,1.06,.42h5.63c.28-.06,.59-.06,.76-.08,.22-.03,.53-.08,.76-.14h.25l.14,.03c.81,.25,1.06,.48,1.06,.9,0,1.06-1.06,1.29-5.88,1.29h-3.19c-2.63,0-3.11-.45-3.11-2.07v-1.23l-5.4,.53-.31-.81,5.71-.53v-2.35l3.33,.31c-.03,.34-.31,.59-.81,.67Zm-4.06,13.27c.98-1.4,1.62-3,2.04-4.84h-2.77c-.28,.64-.59,1.26-.92,1.88,.48,1.23,1.01,2.21,1.65,2.97Zm6.19-7l2.66,1.06h1.09l1.18-1.23,2.24,1.9c-.17,.17-.48,.31-.92,.39v3.86c0,.28,.03,.37,.28,.37h.76c.14-.03,.25-.03,.36-.17,.17-.22,.42-.95,.67-1.74h.31l.08,1.74c.56,.25,.67,.47,.67,.9,0,.84-.76,1.18-2.69,1.18h-.95c-1.57,0-1.74-.53-1.74-1.82v-4.56h-1.74v.59c0,1.76-.48,4.59-4.59,6.19l-.25-.36c2.3-1.79,2.58-4,2.58-5.82v-2.46Z"/>
      <path class="cls-1" d="M327.71,47.8c-.08,.31-.36,.45-.76,.45h-9.46l-.22-.81h6.89l1.26-1.6s1.4,1.12,2.3,1.96Zm-.98,3.53c-.08,.31-.34,.45-.73,.45h-7.45l-.22-.81h5.12l1.15-1.46s1.32,1.04,2.13,1.82Zm0,3.64c-.08,.31-.34,.45-.73,.45h-7.45l-.22-.81h5.12l1.15-1.48s1.32,1.06,2.13,1.85Zm-7.81,12.96h-.34v-10.7l2.44,1.04h2.41l1.18-1.26,2.49,1.9-.08,.06h3.67v-1.9h-2.91l-.22-.81h3.14v-1.74h-3.5l-.22-.81h3.72v-1.88l3.08,.31c-.03,.31-.25,.53-.78,.62v.95h2.91v-1.57h-.39v-5.57l1.99,.87h2.07l.95-1.01,2.07,1.6c-.14,.17-.5,.37-.95,.42v2.94c-.03,.17-.95,.56-1.54,.56h-.31v-.48h-2.41v.11c0,.06-.2,.2-.5,.34l1.93,.2c-.03,.28-.2,.48-.67,.56v1.04h1.23l1.15-1.43s1.34,1.01,2.16,1.79c-.08,.31-.34,.45-.73,.45h-3.81v1.74h.7l1.06-1.34s1.26,.95,2.02,1.71c-.06,.31-.31,.45-.7,.45h-3.08v1.9h1.9l1.23-1.48s1.4,1.06,2.27,1.85c-.06,.31-.34,.45-.73,.45h-2.74l2.04,1.6c-.11,.2-.39,.28-.95,.11-.73,.36-2.07,.84-3.16,1.2,1.57,1.18,3.5,2.02,5.57,2.44l-.03,.28c-.9,.25-1.6,1.01-1.85,2.18-3.47-1.43-5.68-3.89-6.94-7.81h-.22c-.56,.59-1.23,1.12-1.99,1.6v3.42l3.28-1.01,.14,.36c-.95,.7-2.91,2.13-5.01,3.47-.2,.22-.39,.36-.59,.45l-1.18-2.55c.98-.42,1.15-.64,1.15-1.09v-1.9c-1.26,.56-2.66,1.04-4.12,1.4l-.17-.31v2.44c-.03,.22-1.15,.73-1.96,.73h-.39v-1.43h-2.77v1.79c0,.22-.98,.78-1.99,.78Zm2.63-21.59c-.25-1.26-1.26-2.77-2.1-3.7l.25-.17c6.44,.84,4.31,5.49,1.85,3.86Zm2.13,12.74h-2.77v5.46h2.77v-5.46Zm3.16,.7l-.17-.59c-.17,.08-.39,.17-.64,.22v4.06c2.16-.95,4.03-2.24,5.35-3.7h-4.54Zm8.46-14.62h4.2l1.37-1.71s1.6,1.18,2.55,2.07c-.08,.31-.36,.45-.73,.45h-15.62l-.22-.81h7.39c-.14-.06-.31-.14-.48-.25-.11-1.06-.84-2.32-1.54-3.02l.28-.17c4.26,.45,4.09,2.91,2.8,3.44Zm-6.78,7.2h-.28v-5.8l1.99,.87h2.04l.95-.98,2.07,1.54c-.14,.2-.53,.39-.95,.45v2.94c-.03,.17-.95,.56-1.57,.56h-.28v-.5h-2.38v.37c0,.14-.81,.56-1.6,.56Zm1.6-4.12v2.38h2.38v-2.38h-2.38Zm5.77,6.27h-2.91v1.74h2.91v-1.74Zm0,2.55h-2.91v1.9h2.91v-1.9Zm3.5,2.72h-4c.5,.9,1.2,1.71,2.02,2.44,.64-.73,1.43-1.71,1.99-2.44Zm-2.02-11.54v2.41h2.41v-2.41h-2.41Z"/>
      <path class="cls-1" d="M360.25,43.6l.98-1.57,2.74,1.82c-.31,.37-1.12,.56-2.13,.64,2.04,2.69,7.06,5.63,12.07,7l-.03,.34c-1.18,.31-2.16,1.34-2.49,2.46-4.23-2.3-8.34-5.88-10.3-9.77-2.86,4.62-8.01,8.51-13.61,10.84l-.2-.34c4.37-2.66,8.4-6.78,10.3-10.64h-5.15l-.25-.79h8.06Zm-1.29,22.74v-5.99h-7.45l-.22-.81h7.67v-5.29h-6.5l-.22-.81h12.26l1.46-1.82s1.71,1.26,2.77,2.18c-.08,.31-.36,.45-.76,.45h-6.22v5.29h4.37l1.51-1.93s1.76,1.34,2.86,2.3c-.08,.31-.36,.45-.76,.45h-7.98v5.99h6.55l1.65-2.1s1.85,1.43,3,2.44c-.08,.31-.36,.45-.78,.45h-23.44l-.22-.78h10.44Z"/>
      <path class="cls-1" d="M381.61,45.78h9.21c-.28-.03-.56-.11-.84-.31-.2-1.21-1.12-2.58-2.07-3.28l.22-.2c5.4,.06,4.87,3.56,3.05,3.78h8.18l1.46-1.46,2.6,2.46c-.22,.2-.53,.25-1.06,.28-.73,.81-2.02,1.88-3.02,2.52l-.28-.2c.17-.76,.39-1.9,.5-2.8h-17.84c.08,1.85-.64,3.11-1.51,3.7-.81,.53-1.99,.42-2.35-.45-.28-.81,.2-1.48,.95-1.88,1.04-.56,2.07-2.02,1.99-3.64h.45c.17,.5,.31,1.01,.36,1.46Zm18.23,4.37c-.06,.31-.36,.45-.76,.45h-7.53c-.87,.84-1.9,1.62-3.05,2.35,1.29,1.01,2.3,2.21,3.02,3.47,2.58-1.48,5.52-3.58,7.06-5.04l2.94,2.32c-.22,.25-.48,.34-1.06,.14-1.6,.81-3.92,1.74-6.33,2.49,1.79,3.75,5.49,6.05,9.44,7.31l-.06,.31c-1.06,.17-1.85,.98-2.24,2.27-3.72-2.04-6.36-5.01-7.73-9.72l-1.71,.5c1.99,3.86,1.68,8.23,.22,9.94-.67,.78-1.88,1.12-3.7,1.09-.03-.78-.25-1.32-.64-1.68-.34-.31-1.29-.67-2.35-.9l-.03-.39c1.15,.11,3.08,.22,3.75,.22,.39,0,.64-.06,.81-.28,.53-.73,.81-2.21,.73-4.03-3.25,2.38-7.9,4.45-12.43,5.49l-.2-.45c4.62-1.65,9.41-4.9,12.1-8.34l-.36-1.06c-2.8,1.93-7,3.92-10.89,4.98l-.17-.39c3.58-1.6,7.56-4.48,9.8-7.17l-.53-.76c-2.55,1.51-5.6,2.72-8.76,3.56l-.22-.39c3.42-1.46,6.64-3.7,8.85-5.85h-5.88l-.22-.81h13.83l1.54-1.9s1.71,1.32,2.77,2.27Z"/>
      <path class="cls-1" d="M433.83,65.02l-.06,.34c-1.4,.22-2.32,1.06-2.69,2.55-7.22-3.89-9.49-10.42-10.25-19.1-.53,6.97-2.58,14.11-12.85,19.21l-.34-.45c10.64-7.25,10.44-16.3,10.47-25.03l3.92,.39c-.06,.39-.31,.67-1.01,.79,.59,10.55,3.16,17.39,12.8,21.31Z"/>
      <path class="cls-1" d="M453.57,44.52c-.2,.28-.48,.42-1.18,.31-1.09,2.1-2.55,4.37-4.37,6.52h1.46l1.37-1.85s1.57,1.29,2.52,2.21c-.08,.28-.36,.42-.73,.42h-5.29c-.92,1.06-1.96,2.1-3.08,3.08h3.53l1.26-1.37,2.66,2.04c-.17,.22-.59,.45-1.12,.56v10.28c-.03,.2-1.26,.73-2.13,.73h-.39v-2.16h-5.01v1.76c0,.2-.78,.78-2.02,.78h-.42v-9.88c-.98,.64-2.02,1.23-3.11,1.76l-.28-.34c1.18-.79,2.32-1.65,3.39-2.58v-2.63l1.93,.76c.9-.9,1.71-1.82,2.49-2.8h-7.31l-.22-.79h5.1v-4.06h-4.06l-.22-.81h4.28v-4.26l3.58,.31c-.06,.39-.31,.67-1.04,.78v3.16h.95l1.29-1.82,1.6,1.43c.56-1.06,1.04-2.1,1.43-3.11l3.14,1.54Zm-10.28,11.51l-.22,.2v3.61h5.01v-3.81h-4.79Zm-.22,8.48h5.01v-3.86h-5.01v3.86Zm2.1-13.16h.48c1.01-1.34,1.9-2.69,2.69-4.06h-3.16v4.06Zm8.48-8.43l2.94,1.4h3.3l1.48-1.43,2.74,2.6c-.22,.25-.59,.34-1.26,.36-1.01,1.85-2.86,5.1-4.26,6.94,3.36,2.16,4.65,4.87,4.65,7.2,.03,2.77-1.12,4.31-4.34,4.42,0-.78-.11-1.76-.36-2.1-.25-.28-.81-.48-1.54-.59v-.42h2.27c.31,0,.48-.03,.7-.17,.48-.28,.76-.81,.76-1.85,0-2.07-.78-4.31-2.83-6.41,.62-1.9,1.57-5.4,2.13-7.76h-3.81v22.01c0,.22-.81,.87-2.16,.87h-.42v-25.09Z"/>
      <path class="cls-1" d="M478.55,50.99c-.06-.59-.25-1.2-.5-1.85-1.99,.56-4.76,1.26-7.84,1.9l-.31,.31,2.55,1.01h4.42l1.18-1.4,2.72,2.07c-.17,.22-.62,.45-1.18,.56v11.2c0,1.79-.34,2.86-3.11,3.11-.03-.78-.14-1.4-.42-1.79-.34-.36-.81-.64-1.76-.81v-.42s1.85,.14,2.35,.14c.39,0,.5-.17,.5-.5v-4.56c-1.09,.84-2.41,1.76-3.98,2.66-.11,.36-.36,.62-.64,.73l-.78-1.71c-.36,2.32-1.32,4.7-3.64,6.5l-.31-.31c1.74-2.91,1.82-6.61,1.82-10.05v-6.21l-.06,.03-1.23-2.97s.53-.14,.78-.25c1.62-1.2,3.75-4.62,4.45-6.41l3.56,1.37c-.11,.28-.45,.5-1.01,.45-1.32,1.54-3.53,3.5-5.54,4.87,1.85-.06,4.4-.14,7.11-.28-.53-.98-1.23-1.9-1.88-2.63l.28-.2c7.08,2.21,4.87,7.39,2.46,5.46Zm-1.4,8.15v-5.96h-5.15v2.38c4.93-1.51,6.02,2.8,3.7,2.52-.87-.67-2.13-1.32-3.7-1.62v1.32c0,.84-.03,1.74-.08,2.66,1.48-.25,3.44-.7,5.24-1.29Zm7.56-15.76v3.08h4.28l1.34-1.79s1.54,1.26,2.44,2.16c-.06,.31-.34,.45-.7,.45h-7.36v3.72c0,.42,.11,.53,1.04,.53h2.46c.92,0,1.85,0,2.21-.03,.25-.03,.56-.03,.73-.06,.2-.03,.5-.08,.73-.17h.28l.14,.06c.76,.28,1.04,.53,1.04,1.01,0,1.09-1.06,1.48-5.4,1.48h-2.77c-2.49,0-3-.5-3-2.3v-9.16l3.42,.34c-.03,.36-.31,.62-.87,.67Zm.08,12.38v3h4.2l1.43-1.88s1.6,1.32,2.55,2.24c-.08,.31-.36,.45-.76,.45h-7.42v4.73c0,.45,.14,.59,1.09,.59h2.55c1.04,0,1.93-.03,2.3-.06,.31-.03,.5-.08,.64-.31,.25-.36,.64-1.57,1.04-2.91h.31l.08,3.02c.78,.28,.98,.56,.98,1.06,0,1.12-1.09,1.54-5.57,1.54h-2.88c-2.58,0-3.14-.5-3.14-2.38v-10.13l3.5,.34c-.06,.34-.34,.62-.9,.7Z"/>
      <path class="cls-1" d="M101.22,88.56h9.63c-.31-.06-.62-.22-.95-.48-.08-1.4-.98-3.02-1.99-3.95l.22-.2c5.8,.73,5.21,4.28,3.36,4.62h7.7l1.57-1.51,2.69,2.58c-.22,.2-.53,.25-1.06,.28-.9,.98-2.41,2.3-3.61,3.05l-.25-.2c.28-.9,.64-2.29,.87-3.39h-18.03c.25,1.88-.31,3.22-1.09,3.86-.76,.62-2.02,.53-2.44-.39-.31-.81,.14-1.57,.92-2.02,.87-.62,1.74-2.21,1.51-3.81l.45-.03c.22,.56,.39,1.06,.5,1.57Zm22.01,8.01c-.06,.31-.36,.45-.76,.45h-5.94c-.64,2.8-1.76,5.24-3.81,7.25,10.81,3.11,7.31,6.86,4.68,5.4-1.6-1.2-3.86-2.49-6.69-3.75-2.77,1.88-6.69,3.28-12.32,4.09l-.17-.39c4.7-1.15,8.04-2.69,10.39-4.56-2.07-.84-4.37-1.62-6.86-2.32,.78-1.37,1.79-3.53,2.72-5.71h-6.22l-.25-.81h6.83c.95-2.3,1.82-4.54,2.21-5.85l3.86,1.2c-.08,.28-.36,.56-1.2,.5-.45,1.09-1.12,2.55-1.88,4.14h5.82c.2-1.12,.31-2.3,.36-3.53l4.12,.81c-.11,.42-.53,.64-1.09,.64-.08,.7-.2,1.4-.34,2.07h1.96l1.62-1.99s1.82,1.34,2.94,2.35Zm-9.74,.45h-6.02c-.92,1.93-1.96,3.95-2.88,5.54,2.13,.34,3.98,.7,5.57,1.06,1.79-1.93,2.77-4.14,3.33-6.61Z"/>
      <path class="cls-1" d="M130.93,102.73c-.78,1.2-2.18,1.54-2.91,.78-.59-.62-.39-1.54,.2-2.24,1.46-1.4,2.83-4.96,2.77-8.76l.42-.03c1.68,5.01,.73,8.51-.48,10.25Zm6.44-12.54v14.95c0,.7,.31,.95,1.68,.95h3.67c1.48,0,2.63-.03,3.19-.08,.48-.03,.67-.17,.87-.48,.31-.59,.78-2.32,1.32-4.54h.34l.08,4.73c.9,.31,1.12,.62,1.12,1.18,0,1.32-1.29,1.85-7.11,1.85h-3.81c-3.05,0-4-.53-4-2.86v-16.83l3.64,.36c-.06,.37-.31,.67-.98,.76Zm5.35,1.88c-.56-2.49-2.49-5.54-4.17-7.56l.31-.2c8.9,3.7,6.78,9.97,3.86,7.76Zm8.37,10.95c-.31-2.6-1.18-6.86-3.53-9.77l.28-.22c9.02,5.85,5.57,12.88,3.25,10Z"/>
      <path class="cls-1" d="M165.93,97.64c.39,.62,.59,1.4,.5,2.07-.11,.59-.5,1.12-1.26,1.12-.62,0-1.04-.39-1.43-1.26-.81-1.68-2.16-3.56-4.28-5.32l.28-.42c2.91,.84,5.21,2.18,6.19,3.81Z"/>
      <path class="cls-1" d="M187.57,90.16c-.08,.31-.36,.45-.76,.45h-7.08c-.03,1.34-.08,2.69-.17,4h3.05l1.37-1.4,2.52,2.1c-.22,.25-.56,.42-1.15,.48-.25,8.48-.81,11.82-2.1,13.05-.78,.76-1.85,1.06-3.05,1.06,0-.76-.06-1.37-.39-1.74-.34-.36-1.01-.67-1.88-.87l.03-.42c.78,.06,2.04,.17,2.55,.17,.45,0,.67-.08,.92-.31,.78-.7,1.23-4.14,1.43-11.31h-3.36c-.42,5.63-1.65,10.72-5.54,14.62l-.28-.28c3.19-5.52,3.53-12.24,3.39-19.15h-3.02l-.22-.81h9.52l1.51-1.96s1.68,1.37,2.72,2.32Zm-7.53-1.12c-.28-1.57-1.34-3.44-2.3-4.65l.28-.17c6.69,1.88,4.42,6.64,2.02,4.82Zm12.35-3.56c-.42,1.76-.95,3.39-1.54,4.9h4.87l1.54-2.04s1.79,1.43,2.83,2.41c-.06,.31-.34,.45-.73,.45h-1.48c-.59,4.31-1.76,8.18-4,11.4,1.6,2.1,3.64,3.78,6.27,5.01l-.08,.28c-1.23,.25-2.04,.95-2.38,2.18-2.24-1.48-3.92-3.42-5.18-5.71-2.04,2.3-4.76,4.2-8.37,5.66l-.22-.31c3.42-2.04,5.88-4.56,7.59-7.42-1.06-2.58-1.74-5.52-2.18-8.71-.9,1.62-1.96,3.05-3.19,4.23l-.36-.22c1.76-3.42,3.19-8.51,3.7-13.55l3.98,.81c-.08,.36-.39,.62-1.04,.64Zm-2.63,7.28c.59,2.86,1.46,5.46,2.72,7.7,1.34-2.8,2.07-5.94,2.41-9.27h-4.4l-.73,1.57Z"/>
      <path class="cls-1" d="M207.23,102.73c-.78,1.2-2.18,1.54-2.91,.78-.59-.62-.39-1.54,.2-2.24,1.46-1.4,2.83-4.96,2.77-8.76l.42-.03c1.68,5.01,.73,8.51-.48,10.25Zm6.44-12.54v14.95c0,.7,.31,.95,1.68,.95h3.67c1.48,0,2.63-.03,3.19-.08,.48-.03,.67-.17,.87-.48,.31-.59,.78-2.32,1.32-4.54h.34l.08,4.73c.9,.31,1.12,.62,1.12,1.18,0,1.32-1.29,1.85-7.11,1.85h-3.81c-3.05,0-4-.53-4-2.86v-16.83l3.64,.36c-.06,.37-.31,.67-.98,.76Zm5.35,1.88c-.56-2.49-2.49-5.54-4.17-7.56l.31-.2c8.9,3.7,6.78,9.97,3.86,7.76Zm8.37,10.95c-.31-2.6-1.18-6.86-3.53-9.77l.28-.22c9.02,5.85,5.57,12.88,3.25,10Z"/>
      <path class="cls-1" d="M241.95,85.62c-.67,1.06-1.65,2.49-2.44,3.61h2.91l1.29-1.46,2.69,2.13c-.17,.22-.62,.45-1.18,.56v16.88c-.03,.22-1.23,.81-2.13,.81h-.39v-2.16h-4.93v2.16c0,.28-.95,.9-2.04,.9h-.42v-21l2.58,1.18h.5c.25-1.48,.59-3.64,.78-5.15l3.86,.92c-.11,.42-.48,.62-1.09,.62Zm-4.17,4.42v6.97h4.93v-6.97h-4.93Zm0,15.15h4.93v-7.36h-4.93v7.36Zm14.5-19.46c-.45,1.2-.95,2.35-1.51,3.44h5.15l1.48-1.6,2.66,2.32c-.22,.25-.56,.42-1.2,.48-.2,10.89-.64,16.52-2.07,18.14-.9,1.01-2.1,1.46-3.72,1.46,0-.9-.14-1.57-.59-1.96-.48-.45-1.6-.84-2.88-1.06l.03-.45c1.32,.14,3.28,.28,3.98,.28,.53,0,.76-.08,1.06-.36,1.04-.98,1.37-6.89,1.54-16.44h-5.85c-1.29,2.35-2.8,4.37-4.48,5.91l-.36-.25c1.65-2.86,3.28-7.28,4.09-11.59l3.75,1.12c-.11,.31-.45,.56-1.06,.56Zm-1.65,15.15c-.22-1.96-1.57-4.29-2.8-5.8l.28-.2c7.53,2.69,5.1,8.12,2.52,5.99Z"/>
      <path class="cls-1" d="M290.22,92.51c-.08,.31-.39,.45-.78,.45h-25.12l-.22-.81h11.62v-3.72h-8.51l-.22-.81h8.74v-3.58l3.72,.31c-.06,.36-.28,.62-.92,.73v2.55h4.26l1.65-2.07s1.9,1.43,3.08,2.44c-.08,.31-.36,.45-.76,.45h-8.23v3.72h6.86l1.71-2.1s1.93,1.43,3.14,2.46Zm-17,5.66h6.1c.64-1.57,1.23-3.67,1.6-5.18l3.92,.84c-.08,.34-.42,.59-1.04,.59-.84,1.12-2.27,2.58-3.64,3.75h3.28l1.65-2.04s1.9,1.4,3.05,2.41c-.08,.31-.36,.45-.76,.45h-8.88v4.4h6.19l1.71-2.07s1.88,1.4,3.08,2.44c-.08,.31-.36,.45-.78,.45h-10.19v5.21c0,.14-.87,.64-2.3,.64h-.5v-5.85h-10.5l-.25-.81h10.75v-4.4h-8.9l-.22-.81h6.47c-.36-.03-.78-.2-1.18-.56-.03-1.51-.73-3.22-1.48-4.37l.28-.14c5.32,1.6,4.37,4.98,2.55,5.07Z"/>
      <path class="cls-1" d="M298.62,109.98h-.45v-11.2c-1.26,1.18-2.63,2.24-4.06,3.11l-.31-.28c3.11-2.86,5.99-7.22,7.28-10.81h-6.41l-.25-.81h6.58l1.54-1.46,2.52,2.44c-.25,.25-.59,.28-1.26,.36-.73,1.57-1.82,3.19-3.11,4.76v.14c5.54,2.27,3.67,5.96,1.76,4.45-.2-1.18-1.01-2.55-1.76-3.64v12.04c0,.22-.84,.9-2.07,.9Zm.56-21.64c-.22-1.43-1.18-3.08-2.02-4.12l.28-.17c6.58,1.6,4.06,6.16,1.74,4.28Zm21.06-1.74c-.08,.31-.36,.45-.76,.45h-14.92l-.22-.81h11.54l1.54-1.99s1.76,1.37,2.83,2.35Zm-15.09,23.41h-.39v-13.19l2.6,1.09h8.79l1.29-1.4,2.72,2.1c-.17,.22-.62,.45-1.18,.56v9.94c-.03,.17-1.29,.7-2.1,.7h-.42v-1.62h-9.24v.98c0,.28-1.04,.84-2.07,.84Zm1.4-13.69h-.36v-7.76l2.6,1.06h6.13l1.26-1.37,2.74,2.07c-.2,.22-.62,.45-1.18,.56v4.42c-.03,.17-1.32,.64-2.13,.64h-.42v-.98h-6.55v.59c0,.2-1.09,.76-2.1,.76Zm.67,2.41v3.78h3.53v-3.78h-3.53Zm3.53,8.68v-4.09h-3.53v4.09h3.53Zm-2.1-16.97v3.72h6.55v-3.72h-6.55Zm4.37,12.07h3.44v-3.78h-3.44v3.78Zm3.44,4.9v-4.09h-3.44v4.09h3.44Z"/>
      <path class="cls-1" d="M337.51,87.78c-.08,.31-.36,.45-.73,.45h-4.03v2.1c0,.2-1.18,.64-2.13,.64h-.5v-2.74h-5.38l-.22-.81h5.6v-3.39l3.44,.31c-.06,.31-.25,.53-.81,.62v2.46h.92l1.37-1.9s1.57,1.34,2.46,2.27Zm-2.77,4.48v17c0,.25-1.12,.78-2.1,.78h-.53v-8.12h-2.38c-.22,3.05-1.04,6.08-4.79,8.15l-.34-.39c2.32-2.35,2.58-5.07,2.63-7.76h-1.93l-.25-.81h7.06v-3.16h-2.97l-.9,1.23-2.77-1.54c.22-.25,.64-.56,1.04-.76v-5.32l3.33,.34c-.06,.39-.31,.62-.92,.73v4.51h3.19v-5.96l3.61,.36c-.08,.36-.28,.64-.98,.73Zm8.54,0v4.96h2.18l1.57-2.13s1.82,1.46,2.88,2.49c-.08,.31-.36,.45-.76,.45h-5.88v9.6h1.82l1.57-2.07s1.76,1.43,2.83,2.44c-.08,.31-.36,.45-.76,.45h-12.94l-.22-.81h4.98v-9.6h-5.18l-.22-.81h5.4v-6.02l3.58,.36c-.06,.36-.25,.59-.87,.7Zm7.11-4.48c-.06,.31-.34,.45-.73,.45h-5.71v1.82c0,.22-1.2,.67-2.16,.67h-.5v-2.49h-2.97l-.22-.81h3.19v-3.39l3.44,.31c-.06,.31-.25,.53-.78,.62v2.46h2.44l1.43-1.93s1.62,1.37,2.58,2.3Z"/>
      <path class="cls-1" d="M356.61,110.01h-.45v-25.59l2.86,1.26h16.94l1.37-1.51,2.77,2.21c-.2,.25-.62,.45-1.18,.56v21.95c-.03,.25-1.29,.92-2.27,.92h-.42v-1.96h-17.44v1.12c0,.36-1.01,1.04-2.18,1.04Zm2.18-23.52v20.55h17.44v-20.55h-17.44Zm2.97,13.58h-.34v-6.19l2.41,1.01h7.03l1.09-1.12,2.27,1.71c-.14,.17-.45,.36-.84,.42v3.16s-.03,.06-.14,.11l1.88,1.71c-.17,.2-.42,.25-.92,.05-.59,.28-1.51,.64-2.38,.98,4.4,2.24,2.97,4.98,1.2,4-.84-1.32-3.16-3.47-6.13-5.18l.2-.42c1.51,.34,2.77,.73,3.78,1.15,.62-.64,1.32-1.4,1.85-2.04-.39,.14-.87,.25-1.26,.25h-.36v-.56h-3.28c-.7,.73-1.54,1.37-2.52,1.96v2.88l3.81-1.09,.11,.42c-1.04,.59-3.08,1.82-5.21,2.97-.14,.28-.34,.48-.5,.56l-1.34-1.88c.81-.56,.95-.78,.95-1.15v-1.62c-1.23,.56-2.58,1.01-3.98,1.37l-.25-.45c2.46-1.01,4.65-2.41,6.19-3.98h-1.37v.28c0,.2-1.04,.67-1.93,.67Zm6.69-11.96v1.51h2.52l1.26-1.54s1.4,1.09,2.32,1.9c-.08,.31-.34,.45-.73,.45h-5.38v1.96h3.7l1.32-1.6s1.46,1.12,2.38,1.96c-.08,.31-.34,.45-.73,.45h-15.51l-.22-.81h6.64v-1.96h-5.21l-.22-.81h5.43v-2.46l3.22,.31c-.03,.34-.22,.56-.78,.64Zm-4.76,7.59v2.6h7.39v-2.6h-7.39Z"/>
      <path class="cls-1" d="M390.57,93.07c2.18,0,3.95,1.76,3.95,3.95s-1.76,3.98-3.95,3.98-3.98-1.79-3.98-3.98,1.79-3.95,3.98-3.95Zm0,6.92c1.62,0,2.94-1.34,2.94-2.97s-1.32-2.94-2.94-2.94-2.97,1.32-2.97,2.94,1.32,2.97,2.97,2.97Z"/>
    </g>
  </g>
</svg>