<?xml version="1.0" encoding="UTF-8"?>
<svg id="_圖層_2" data-name="圖層 2" xmlns="http://www.w3.org/2000/svg" viewBox="0 0 772.43 124.43">
  <defs>
    <style>
      .cls-1 {
        fill: #fff;
        opacity: .7;
      }

      .cls-2 {
        fill: #231815;
      }
    </style>
  </defs>
  <g id="_圖層_1-2" data-name="圖層 1">
    <rect class="cls-1" x="0" width="772.43" height="124.43" rx="30" ry="30"/>
    <g>
      <path class="cls-2" d="M44.9,46.1s2.24,1.75,3.57,2.98c-.11,.38-.45,.56-.95,.56h-12.78v5c0,2.42-.56,3.75-4.69,4.1-.14-.98-.31-1.71-.88-2.24-.56-.49-1.43-.88-3.18-1.12v-.53s3.95,.28,4.69,.28c.59,0,.73-.17,.73-.63v-4.87h-13.41l-.28-1.02h13.69v-3.25l3.08,.28c1.19-.88,2.7-2.1,3.75-3.15h-9.17c-4.03,2.1-8.44,3.92-13.09,5.25l-.25-.53c3.29-1.33,6.51-2.94,9.56-4.73h-2.28l-.31-1.01h4.24c1.68-1.02,3.26-2.1,4.76-3.22h-15.23l-.28-1.01h12.15v-4.94h-8.96l-.28-1.02h9.24v-5.04l4.48,.42c-.07,.46-.35,.77-1.12,.91v3.71h3.36l1.96-2.45s1.58,1.23,2.87,2.35c1.19-1.23,2.24-2.45,3.15-3.64l3.75,2.94c-.32,.32-.7,.42-1.51,.07-2.03,2.21-4.66,4.48-7.67,6.69h5.29l2-2.56s2.24,1.75,3.61,3.01c-.11,.38-.46,.56-.95,.56h-11.41c-1.61,1.12-3.36,2.21-5.22,3.22h7.84l1.86-1.79,3.12,2.98c-.31,.28-.7,.35-1.47,.38-1.5,.95-4.1,2.03-6.34,2.77-.07,.49-.46,.73-1.19,.84v1.96h8.19l1.96-2.52Zm-11.83-8.86c2.1-1.61,4.03-3.29,5.71-4.94h-7.07v4.94h1.37Z"/>
      <path class="cls-2" d="M62.19,45.64v11.73c0,.32-.98,1.37-2.52,1.37h-.52v-13.09h-6.41l-.28-1.01h6.69v-4.24h-5.11l-.28-1.02h7.56c.56-2.07,1.23-4.94,1.58-7l4.24,1.22c-.14,.42-.56,.74-1.26,.7-.94,1.47-2.38,3.46-3.75,5.08h1.23l1.64-2.13s1.89,1.5,3.05,2.59c-.11,.39-.42,.56-.91,.56h-4.94v4.24h2.31l1.72-2.24s1.89,1.58,3.08,2.7c-.11,.38-.46,.56-.95,.56h-6.16Zm-9.73,10.12c1.47-2.62,2.45-6.27,2.84-8.79l3.71,1.51c-.14,.35-.52,.45-1.12,.35-.91,2.31-2.87,5.29-5.04,7.35l-.39-.42Zm.88-23.59l-.28-1.01h10.47l1.75-2.24s2,1.54,3.25,2.7c-.1,.38-.45,.56-.94,.56h-14.25Zm1.96,.39c6.58,3.15,3.57,8.16,1.19,5.81,0-1.82-.8-4.1-1.61-5.64l.42-.17Zm2.28-6.58c7.18,1.5,4.17,6.58,1.54,4.45-.14-1.47-1.05-3.18-1.89-4.24l.35-.21Zm5.57,21.42c7.56,3.15,4.55,8.58,1.96,6.2-.11-2-1.26-4.41-2.35-5.99l.39-.21Zm21.32,7.74c.74,.32,.84,.67,.84,1.23,0,1.05-.95,1.68-4.17,1.68h-1.79c-2.21,0-2.52-.67-2.52-2.45v-8.75h-1.54c-.56,6.23-3.18,9.73-9.84,11.76l-.21-.53c4.62-2.35,6.27-5.36,6.72-9.7-.46,.21-1.08,.35-1.86,.35h-.49V27.44l3.5,1.4h6.27l1.61-1.92,3.19,2.56c-.25,.28-.63,.52-1.44,.63v17.12c0,.18-1.12,.88-2.66,.88h-.46v6.79c0,.38,.07,.49,.59,.49h2.14c.25-.04,.35-.11,.49-.38,.24-.53,.63-2.42,1.05-4.31h.45l.1,4.45Zm-11.76-25.27v4.58h6.83v-4.58h-6.83Zm6.83,10.26v-4.66h-6.83v4.66h6.83Zm-6.83,1.01v4.69h6.83v-4.69h-6.83Z"/>
      <path class="cls-2" d="M96.14,39.03c0,6.2-.46,14.25-7,19.6l-.46-.31c3.78-5.64,4.2-12.71,4.2-19.29v-10.43l3.08,1.19c6.72-.77,14.91-2.24,19.36-3.54l3.25,3.33c-.38,.32-1.12,.32-2.13-.1-5.32,.63-13.34,1.08-20.3,1.05v2.42h18.13l1.58-1.71,3.47,2.55c-.21,.28-.7,.56-1.37,.7v4.94c-.04,.25-1.68,.91-2.8,.91h-.56v-1.37h-18.45v.07Zm20.97,2.49s2.06,1.58,3.36,2.76c-.11,.39-.49,.56-.95,.56h-13.16c-.11,1.19-.28,2.31-.56,3.46h7.56l1.75-1.64,3.18,2.62c-.21,.28-.66,.45-1.37,.53-.38,4.09-1.19,6.79-2.66,7.74-.98,.63-2.28,.98-3.92,.98,0-.91-.14-1.75-.63-2.21-.53-.49-1.79-.91-3.19-1.12v-.49c1.4,.1,3.75,.28,4.45,.28,.59,0,.91-.07,1.19-.25,.63-.49,1.15-2.52,1.47-5.43h-8.16c-1.15,3.61-3.96,6.93-10.92,9.42l-.35-.53c7.49-4.03,8.23-8.75,8.4-13.37h-5.53l-.28-1.02h11.27c-.28-.03-.59-.14-.91-.35-.32-1.29-1.33-2.8-2.14-3.68l.32-.21c5.95,.39,5.29,3.96,3.29,4.24h6.65l1.82-2.31Zm-20.97-7.56v3.99h18.45v-3.99h-18.45Z"/>
      <path class="cls-2" d="M153.82,53.38s2.52,1.89,4.03,3.25c-.1,.39-.45,.56-.98,.56h-31.26l-.28-1.02h14.35v-10.47h-10.26l-.28-1.01h10.54v-8.96h-11.73l-.32-1.02h22.61l2.14-2.73s2.45,1.82,3.99,3.19c-.11,.38-.49,.56-.98,.56h-12.11v8.96h5.67l2.13-2.63s2.35,1.79,3.82,3.08c-.07,.38-.46,.56-.98,.56h-10.64v10.47h8.33l2.2-2.8Zm-17.82-26.99c11.38,1.26,9.59,8.86,5.74,6.9-1.01-2.38-3.75-5.04-6.02-6.58l.28-.32Z"/>
      <path class="cls-2" d="M174.02,26.74c-.11,.49-.39,.84-1.3,.98v29.68c0,.46-1.37,1.37-2.52,1.37h-.6v-14h-2.45c-.14,5.74-.74,10.57-5.08,13.9l-.46-.52c2.45-3.64,2.49-8.19,2.49-13.37h-2.14l-.31-1.01h7.95v-5.64h-2.91l-1.12,1.47-3.43-1.89c.31-.28,.84-.67,1.33-.95v-8.68l4.27,.8c-.07,.38-.45,.63-1.33,.77v7.46h3.19v-10.85l4.41,.49Zm17.15,5.85c-.11,.42-.53,.73-1.26,.73-.21,.53-.42,1.02-.66,1.47,3.01,.98,3.39,2.83,2.73,3.75,.56,.42,1.86,1.44,2.77,2.24-.11,.38-.42,.56-.91,.56h-20.72l-.28-1.02h8.72v-9.17h-7.46l-.25-1.01h7.7v-3.99l4.24,.39c-.07,.52-.38,.88-1.29,1.01v2.59h4.27l1.71-2.21s2,1.54,3.22,2.66c-.11,.39-.46,.56-.95,.56h-8.26v9.17h5.64l1.05-1.29c-.38,.07-.8-.04-1.26-.38-.11-.91-.6-1.93-1.23-2.77-.91,1.61-2.07,2.94-3.4,3.89l-.52-.35c1.22-1.96,2.17-4.8,2.55-7.81l3.85,.98Zm-10.82-.11c-.14,.42-.52,.74-1.3,.74-.21,.59-.45,1.12-.7,1.64,4.8,2.17,2.35,5.78,.42,3.99,.04-.95-.38-2.1-.91-3.01-1.01,1.75-2.31,3.19-3.78,4.17l-.49-.35c1.4-2,2.49-4.97,2.91-8.19l3.85,1.01Zm9.98,9.59l2.97,2.28c-.24,.28-.59,.49-1.33,.59v12.53c0,.18-1.05,.81-2.45,.81h-.49v-1.79h-11.52v1.43c0,.21-.91,.77-2.35,.77h-.49v-16.24l3.22,1.26h10.99l1.44-1.65Zm-1.29,13.41v-10.75h-11.52v10.75h11.52Zm-.95-7.84c-.14,.21-.56,.42-1.02,.53v4.97c-.04,.25-1.16,.77-1.89,.77h-.35v-1.19h-3.22v.84c0,.17-.77,.74-1.93,.74h-.35v-8.37l2.45,1.05h2.77l1.12-1.12,2.42,1.79Zm-3.26,4.06v-3.71h-3.22v3.71h3.22Z"/>
      <path class="cls-2" d="M226.69,26.67s2.49,1.82,3.96,3.12c-.1,.38-.46,.56-.95,.56h-13.55c-1.23,1.75-2.73,3.75-3.96,5.18h12.18l1.72-2.03,3.36,2.66c-.25,.31-.63,.56-1.44,.7v20.55c0,.25-1.23,.95-2.91,.95h-.56v-2.52h-20.58v1.89c0,.25-1.01,.91-2.73,.91h-.56v-24.57l3.71,1.47h6.62c.21-1.43,.49-3.5,.7-5.18h-13.16l-.32-1.02h26.29l2.17-2.66Zm-22.72,28.14h4.55v-18.27h-4.55v18.27Zm12.85-18.27h-5.18v5.32h5.18v-5.32Zm-5.18,11.76h5.18v-5.42h-5.18v5.42Zm0,6.51h5.18v-5.5h-5.18v5.5Zm8.3-18.27v18.27h4.62v-18.27h-4.62Z"/>
      <path class="cls-2" d="M251.61,47.36c-3.36,2-8.02,4.66-14.67,7.7-.14,.42-.46,.81-.84,.95l-1.92-3.96c1.16-.25,2.91-.7,4.97-1.3l-.35-22.61,4.62,.35c-.04,.49-.32,.88-1.26,1.01l.32,20.27c2.8-.88,5.95-1.86,9-2.87l.14,.45Zm13.23-18.62c-.07,.52-.49,.95-1.33,1.01-.32,7.46-.84,13.76-4.48,18.83,10.75,4.62,8.61,11.66,4.9,9.35-1.01-2.62-3.43-5.81-5.67-8.3-3.04,3.67-7.88,6.72-15.75,9.14l-.32-.6c16.38-7.35,17.4-16.38,17.68-29.93l4.97,.49Zm-18.38,3.43c10.82,3.57,8.26,10.71,4.73,8.23-.74-2.63-3.15-5.88-5.08-8.02l.35-.21Z"/>
      <path class="cls-2" d="M282.76,32.8c-.39,2.13-.84,4.17-1.37,6.06,7.53,4.87,4.52,10.78,1.64,8.05-.17-2.14-1.08-4.62-2.03-6.72-2.03,6.76-5.11,12.08-9.42,16l-.42-.35c3.96-5.88,6.83-13.86,8.02-23.03h-7.63l-.28-1.02h8.05c.21-1.82,.38-3.67,.45-5.6l5.04,.63c-.14,.49-.49,.84-1.33,.91-.17,1.4-.35,2.73-.56,4.06h14.14l2.1-2.62s2.45,1.82,3.96,3.08c-.11,.38-.49,.56-.98,.56h-19.39Zm19.39,7.53c-.17,.35-.53,.53-1.37,.38-1.75,1.75-4.48,4.17-7.21,5.92,1.61,4.1,4.55,6.83,9.63,8.58l-.07,.42c-1.54,.28-2.49,1.19-2.8,2.98-6.09-2.94-8.19-8.47-8.96-16.73-.59,7.39-2.98,13.09-14.74,16.84l-.35-.56c12.36-5.46,11.87-13.13,11.9-23.94l4.66,.46c-.11,.46-.42,.84-1.23,.95,.21,4.1,.7,7.49,1.68,10.29,1.71-2.59,3.6-6.06,4.51-8.16l4.34,2.59Z"/>
      <path class="cls-2" d="M337.75,54.05c1.5,.42,2,.63,2,1.33,0,1.58-1.47,2.59-7.98,2.59h-13.13c-4.69,0-6.9-1.12-6.9-4.9v-14.95c-1.44,1.22-2.94,2.31-4.48,3.19l-.35-.35c3.99-3.46,7.91-9.7,9.77-14.91l4.87,1.26c-.14,.38-.46,.56-1.37,.49-.46,.84-.98,1.68-1.54,2.52h6.76l1.92-1.89,3.33,2.94c-.28,.28-.7,.35-1.4,.42-1.4,1.4-3.54,3.4-5.53,4.66h8.05l1.68-1.85,3.57,2.73c-.25,.32-.81,.63-1.54,.77v9.35c-.04,.25-1.68,.91-2.77,.91h-.56v-2.31h-17.15v7.14c0,1.33,1.16,1.64,3.5,1.64h12.95c2.21,0,3.22-.14,3.85-.98,.59-.77,1.43-3.12,2-4.97h.42l.04,5.18Zm-19.85-22.72c-1.12,1.58-2.42,3.12-3.82,4.59l1.37,.52h7.39c.91-1.4,1.96-3.54,2.59-5.11h-7.53Zm-2.91,13.69h6.86v-7.56h-6.86v7.56Zm10.08-7.56v7.56h7.07v-7.56h-7.07Z"/>
      <path class="cls-2" d="M357.35,50.86c-.25,.32-.56,.49-1.3,.32-2.52,2.24-6.86,4.76-11.24,6.16l-.32-.42c3.54-2.21,7.25-5.74,9.03-8.37l3.82,2.31Zm10.15-10.71c9.07,3.88,6.27,10.47,3.26,7.91-.11-.95-.39-1.89-.77-2.87-2.07,.35-4.52,.77-7.35,1.23v8.33c0,2.28-.59,3.71-4.55,4.03-.07-.95-.21-1.72-.67-2.17-.46-.42-1.16-.8-2.8-1.05v-.49s3.15,.21,3.88,.21c.56,0,.7-.17,.7-.59v-7.74c-2.7,.42-5.64,.84-8.79,1.29-.25,.42-.53,.7-.84,.84l-1.79-3.75s.95-.11,1.44-.32c3.12-1.19,7-3.4,10.36-5.67-2.45,.56-5.39,1.23-8.58,1.86-.21,.32-.45,.56-.7,.67l-1.71-3.54s.73-.07,1.09-.25c3.57-1.37,8.33-5.18,10.22-7.28-4.1,1.29-8.93,2.55-13.37,3.29l-.17-.53c6.09-1.82,13.72-5.11,17.43-7.53l3.5,2.7c-.31,.38-.98,.42-1.96,.1-1.47,.63-3.33,1.26-5.29,1.93l3.6,2.17c-.21,.32-.67,.56-1.43,.35-2.28,1.58-6.3,3.71-10.05,5.15,2.52-.14,5.88-.35,9.49-.6,2.03-1.47,3.71-2.91,4.8-4.03l3.71,2.73c-.17,.32-.73,.53-1.54,.28-3.54,2.59-10.71,6.2-16.91,8.61,4.24-.17,10.85-.59,17.92-1.01-.7-1.5-1.61-2.94-2.52-4.03l.38-.25Zm-2.66,8.54c12.85,2.55,11.59,10.08,7.77,8.33-1.5-2.73-5.29-6.06-8.05-7.98l.28-.35Z"/>
      <path class="cls-2" d="M384.4,40.6c-.7,2.31-1.96,4.55-4.2,6.37l-.38-.38c2.42-4.03,2.55-9,2.55-13.13v-5.71l3.4,1.37h5.67l1.43-1.58,3.15,2.38c-.21,.25-.7,.49-1.29,.63v5.18c-.04,.21-1.54,.8-2.49,.8h-.49v-1.5h-6.55c0,.73-.07,1.54-.17,2.31l2.55,1.02h3.99l1.4-1.47,3.04,2.24c-.17,.25-.63,.49-1.19,.6v5.88c0,.21-1.51,.84-2.45,.84h-.53v-1.12h-4.52v1.19c0,.21-.95,.91-2.45,.91h-.49v-6.83Zm24.75,13.3s2.17,1.65,3.54,2.84c-.1,.38-.46,.56-.95,.56h-31.4l-.28-1.01h14.7v-4.76h-10.92l-.28-1.01h11.2v-4.76l4.34,.42c-.07,.42-.35,.74-1.12,.88v3.47h6.09l1.82-2.24s2.1,1.54,3.4,2.7c-.07,.38-.42,.56-.95,.56h-10.36v4.76h9.21l1.96-2.38Zm-23.91-23.77v3.88h6.51v-3.88h-6.51Zm2.1,9.24v4.94h4.52v-4.94h-4.52Zm17.54-1.47v3.78h2.1l1.54-1.96s1.79,1.37,2.87,2.41c-.07,.38-.42,.56-.88,.56h-5.64v4.38c-.04,.14-.98,.7-2.52,.7h-.53v-5.08h-4.9l-.28-1.01h5.18v-3.78h-6.09l-.28-1.02h8.72c.63-1.58,1.37-3.71,1.79-5.29l4.2,1.12c-.14,.42-.56,.7-1.33,.7-.91,1.05-2.28,2.38-3.61,3.46h2.87l1.61-2.03s1.82,1.44,2.91,2.49c-.07,.39-.38,.56-.88,.56h-6.86Zm-8.3-6.55l-.28-1.01h10.89l1.64-2.1s1.86,1.47,2.98,2.56c-.07,.38-.42,.56-.91,.56h-14.32Zm1.54,.32c6.93,1.33,4.1,6.54,1.47,4.41-.07-1.47-.94-3.15-1.85-4.2l.38-.21Zm2.38-5.57c6.86,.46,4.45,5.6,1.75,3.85-.25-1.29-1.19-2.76-2.1-3.61l.35-.25Z"/>
      <path class="cls-2" d="M419.79,49.04c1.19,3.57,.8,6.27-.17,7.56-.7,.84-2.28,1.02-2.87,.04-.42-.88-.03-1.82,.77-2.45,.91-.95,1.89-3.22,1.68-5.15h.59Zm-3.01-4.45s.81-.17,1.12-.38c1.68-1.33,3.71-3.85,5.43-6.41-1.22,.46-2.66,.95-4.2,1.44-.25,.35-.53,.59-.81,.7l-1.54-3.71s.7-.14,.98-.35c1.86-1.92,4.16-6.93,4.94-9.59l4.1,2.06c-.18,.32-.56,.56-1.26,.49-1.47,2.28-4.06,5.46-6.41,7.56,1.43,0,3.22,0,5.11-.04,.84-1.37,1.54-2.63,1.96-3.64l3.75,2.52c-.18,.28-.67,.49-1.3,.35-1.96,2.66-5.71,6.44-9.07,9,1.92-.11,4.58-.28,7.35-.49-.42-1.26-.98-2.49-1.5-3.4l.42-.17c6.65,3.64,3.96,8.61,1.64,6.41-.03-.67-.14-1.33-.31-2.03-2.03,.73-4.97,1.71-8.16,2.66-.28,.38-.59,.63-.91,.73l-1.33-3.71Zm5.85,3.85c4.9,4.69,1.47,9.28-.49,6.65,.46-2.13,.35-4.73,0-6.55l.49-.1Zm3.43-.7c6.02,3.19,3.01,7.84,.88,5.6,.14-1.82-.56-4.03-1.3-5.43l.42-.17Zm22.33,7.6c.84,1.61,1.05,2.49,.42,3.04-1.33,1.12-3.43-.1-4.62-1.54-3.22-3.71-4.8-9.14-5.53-15.19h-5.08v12.36c1.75-.63,3.82-1.47,5.88-2.31l.17,.42c-1.5,1.16-4.24,3.33-7.39,5.5-.17,.59-.56,1.01-.88,1.22l-2.03-3.22c1.05-.74,1.23-1.02,1.23-1.79V28.81l3.29,1.75c3.99-1.16,8.61-2.91,11.1-4.17l3.33,3.08c-.39,.35-1.09,.35-2.03-.04-1.44,.31-3.19,.67-5.11,1.01-.14,3.26-.07,6.79,.31,10.19h2.49l1.71-2.38s1.96,1.68,3.12,2.84c-.1,.38-.45,.56-.94,.56h-6.23c.7,5.04,2.1,9.59,4.55,12.11,.38,.46,.7,.46,.95-.14,.42-.84,1.05-2.38,1.5-3.71l.39,.07-.6,5.36Zm-9.87-14.7c-.31-3.12-.46-6.44-.49-9.77-1.5,.21-2.97,.39-4.45,.53v9.24h4.94Z"/>
      <path class="cls-2" d="M479.88,34.2c.28-.8,.63-1.96,.84-2.97h-6.2v3.33c0,.42,.07,.52,1.05,.52h2.8c1.05,0,2.1,0,2.55-.03,.28,0,.67-.04,.84-.07,.25-.04,.59-.07,.88-.17h.31l.14,.07c.94,.28,1.22,.56,1.22,1.09,0,1.08-.8,1.47-4.58,1.58,.7,.56,1.85,1.47,2.7,2.24-.11,.38-.46,.56-.95,.56h-5.92v5.11h3.85l1.96-2.59s2.21,1.79,3.5,3.04c-.07,.38-.42,.56-.91,.56h-8.4v8.37c0,2.17-.59,3.5-4.73,3.82-.07-.88-.28-1.58-.88-1.96-.52-.42-1.43-.8-3.29-1.01v-.49s3.99,.25,4.8,.25c.63,0,.84-.21,.84-.67v-6.79c-4.38,4.62-11.17,8.12-19.04,10.19l-.25-.53c6.62-2.66,12.53-6.86,16.07-11.17h-7.95l-1.3,1.4-3.01-2.1c.31-.25,.84-.53,1.33-.74,.53-1.4,1.12-3.29,1.44-4.69h-3.15l-.32-1.01h21.18l1.44-1.79h-3.96c-2.98,0-3.43-.6-3.43-2.56v-3.75h-6.23l2.66,1.82c-.21,.38-.74,.59-1.75,.49-2.7,2.1-7.21,4.52-12.01,5.64l-.28-.42c3.67-1.68,7.81-5.08,9.91-7.53h-6.41c.11,2.06-.7,3.5-1.68,4.13-1.01,.56-2.34,.42-2.76-.67-.32-1.01,.31-1.82,1.22-2.28,1.16-.67,2.14-2.45,1.89-4.3l.53-.04c.31,.73,.56,1.47,.67,2.13h11.97c-.25-.07-.52-.21-.77-.38-.18-1.29-1.02-2.77-1.82-3.61l.31-.21c5.64,.49,5.22,3.61,3.43,4.2h10.29l1.86-1.89,3.29,3.15c-.25,.28-.63,.35-1.33,.38-1.01,.91-2.8,2-4.13,2.59l-.35-.25Zm-7.56,6.13h-9.38c-.49,1.54-1.16,3.57-1.72,5.11h11.1v-5.11Z"/>
      <path class="cls-2" d="M516.81,54.96v-6.79h-3.54l-.32-1.01h3.85v-5.39h-3.82l-.32-1.02h3.78l1.58-1.75,3.29,2.59c-.25,.28-.77,.6-1.47,.74v14.91c-.04,.24-1.54,.91-2.59,.91h-.46v-2.17h-12.99v1.75c-.04,.21-.91,1.02-2.59,1.02h-.42v-18.55c-1.08,.77-2.45,1.75-4.1,2.83v11.45c0,2.38-.46,3.82-4.03,4.17-.1-1.05-.25-1.89-.66-2.42s-1.09-.88-2.42-1.12v-.53s2.73,.21,3.36,.21c.53,0,.7-.18,.7-.63v-9.1c-.77,.49-1.58,.98-2.38,1.5-.11,.46-.42,.84-.81,.98l-1.43-3.75c.94-.28,2.59-.84,4.62-1.54v-6.96h-4.06l-.28-1.02h4.34v-8.05l4.31,.45c-.07,.49-.42,.84-1.26,.95v6.65h.49l1.5-2.31s1.75,1.65,2.73,2.77c-.1,.38-.42,.56-.91,.56h-3.82v5.88c1.3-.46,2.66-.94,3.99-1.43l.17,.42-.07,.04,2.17,.59c.95-.84,1.89-1.86,2.38-2.41l3.5,2.24v-4.06h-8.4l-.28-1.02h8.68v-5.21h-6.65l-.28-1.02h13.16l1.82-2.38s2.07,1.65,3.29,2.83c-.11,.39-.42,.56-.95,.56h-7.25v5.21h4.62l1.86-2.59s2.21,1.79,3.5,3.04c-.11,.39-.46,.56-.95,.56h-9.03v18.41h4.8Zm-12.99,0h5.04v-14.28c-.17,.24-.56,.28-1.09,.14-.66,.21-1.65,.46-2.77,.7-.17,.25-.56,.46-1.19,.52v5.22h1.22l1.23-1.82s1.4,1.29,2.24,2.28c-.07,.38-.39,.56-.88,.56h-3.82v6.69Z"/>
      <path class="cls-2" d="M553.07,34.09l.04-.11c-.28,.21-.7,.39-1.29,.46l-.07,1.75h1.47l1.71-1.96s1.92,1.33,3.19,2.41c-.11,.39-.46,.56-.95,.56h-5.46c-.03,1.19-.1,2.49-.21,3.5-.14,.07-.31,.18-.46,.21l3.15,2.45c-.17,.25-.56,.49-1.12,.56v9.17c-.03,.25-1.64,.88-2.73,.88h-.56v-.7h-11.73l3.22,2.24c-.32,.35-.91,.46-1.86,.17-2.97,1.47-7.95,2.7-12.74,3.05l-.14-.53c4.1-1.05,8.47-3.12,10.82-4.94h-3.22v.11c0,.31-1.47,1.01-2.77,1.01h-.49v-13.27l3.47,1.44h15.12l1.51-1.61c-.63,.21-1.44,.28-2.56,.14l.07-.6h-13.65l-1.05,1.19-3.08-1.86c.28-.25,.74-.52,1.16-.73,.11-.56,.17-1.19,.28-1.89h-5.71l-.28-1.01h6.12c.21-1.65,.35-3.43,.42-4.62l3.61,1.37h12.25l1.3-1.58,3.25,2.42c.21-.88,.46-2,.63-2.97h-23.31c.14,2.06-.63,3.5-1.61,4.09-.95,.56-2.31,.42-2.7-.63-.32-.98,.28-1.75,1.12-2.17,1.16-.6,2.17-2.24,2-3.92l.56-.04c.21,.6,.39,1.12,.49,1.65h11.24c-.25-.1-.53-.25-.77-.46,.14-1.12-.38-2.41-1.09-3.08l.32-.21c5.08,.17,4.66,3.08,2.97,3.75h10.57l1.75-1.79,3.12,3.01c-.25,.28-.63,.35-1.33,.38-.88,.95-2.38,2.21-3.61,2.91l-.39-.21Zm-18.94,9.49v2.17h15.65v-2.17h-15.65Zm0,3.18v2.21h15.65v-2.21h-15.65Zm15.65,5.5v-2.28h-15.65v2.28h15.65Zm-9.7-12.78c.07-.67,.18-1.44,.25-2.28h-5.25c-.11,.8-.25,1.58-.35,2.28h5.36Zm-4.59-5.53c-.07,.7-.17,1.43-.28,2.24h5.18c.07-.81,.1-1.54,.17-2.24h-5.08Zm13.09,5.53c.07-.77,.11-1.5,.18-2.28h-5.53c-.07,.84-.14,1.61-.21,2.28h5.57Zm.21-3.29c.04-.81,.07-1.54,.11-2.24h-5.43c-.04,.7-.1,1.47-.14,2.24h5.46Zm-4.87,17.75c18.06,.46,12.6,6.58,9.42,4.38-1.86-1.33-5.08-2.84-9.56-3.85l.14-.53Z"/>
      <path class="cls-2" d="M580.58,35.49c2.94,7.14,8.61,13.02,14.25,15.82l-.14,.38c-1.37,.18-2.56,1.23-3.12,2.87-5.29-3.78-9.28-10.19-11.59-18.66v21.6c0,.39-1.47,1.26-2.77,1.26h-.66v-18.24c-3.12,5.95-7.88,11.06-14.14,14.74l-.38-.42c5.85-4.83,10.4-12.32,12.6-19.36h-11.8l-.31-1.02h14.04v-8.26l4.69,.49c-.07,.49-.32,.84-1.26,.98v6.79h8.26l2.2-2.76s2.49,1.89,3.99,3.22c-.07,.38-.46,.56-.98,.56h-12.88Z"/>
      <path class="cls-2" d="M601.68,48.72c1.16,3.54,.81,6.2-.14,7.53-.66,.84-2.24,1.01-2.8,.04-.45-.84-.07-1.79,.74-2.42,.88-.88,1.82-3.19,1.61-5.15h.59Zm-2.8-4.2s.77-.17,1.08-.38c1.58-1.37,3.5-3.89,5.04-6.37-1.05,.42-2.34,.88-3.67,1.33-.28,.45-.59,.73-.95,.88l-1.5-3.68s.7-.14,.98-.35c1.82-1.93,4.17-6.93,4.9-9.59l4.03,2.03c-.14,.32-.56,.53-1.26,.49-1.43,2.28-3.96,5.39-6.27,7.49,1.33,.04,2.98,.04,4.62,0,.77-1.3,1.4-2.52,1.79-3.5l3.6,2.45c-.17,.28-.63,.53-1.29,.39-1.82,2.62-5.29,6.34-8.47,8.86,1.75-.1,3.99-.25,6.41-.42-.39-1.29-.95-2.56-1.51-3.54l.46-.17c6.3,3.54,3.71,8.33,1.47,6.23,0-.49-.07-1.05-.21-1.58-1.86,.66-4.38,1.54-7.11,2.34-.25,.35-.56,.6-.88,.7l-1.26-3.61Zm5.64,3.68c4.97,4.45,1.71,9.07-.25,6.58,.42-2.1,.21-4.69-.25-6.44l.49-.14Zm3.18-.59c5.99,2.83,3.4,7.39,1.23,5.42,0-1.71-.84-3.88-1.65-5.21l.42-.21Zm22.68-2c-.17,.28-.7,.49-1.29,.21-.98,.66-2.7,1.68-4.31,2.55,1.89,2.38,4.24,3.96,6.41,5.01l-.07,.38c-1.19,.25-2.07,1.29-2.45,2.77-3.22-2.8-5.43-6.16-6.72-11.94v10.15c0,2.17-.53,3.67-4.13,3.99-.07-.91-.21-1.68-.67-2.1-.49-.45-1.19-.84-2.73-1.05v-.53s3.12,.25,3.78,.25c.56,0,.73-.21,.73-.63v-8.58c-.17,.04-.38,.07-.63,.07-1.29,4.38-4.1,8.58-9.1,11.1l-.32-.46c3.47-2.73,5.53-6.83,6.41-10.92h-4.1l-.32-1.01h4.27l1.61-1.65,2.17,1.82v-3.75h-3.36v.94c0,.25-.91,.81-2.38,.81h-.53v-13.76l3.29,1.33h1.85c.21-1.29,.49-3.22,.66-4.58l4.76,.8c-.14,.53-.59,.81-1.37,.88-.7,.84-1.89,2-2.8,2.91h5.85l1.47-1.71,2.98,2.31c-.21,.28-.56,.49-1.29,.63v9.98c0,.18-1.05,.77-2.49,.77h-.53v-1.29h-3.12v1.29c.56,2,1.37,3.67,2.34,5.08,1.05-1.54,2.24-3.57,2.73-4.73l3.36,2.66Zm-14.81-13.97v3.78h9.49v-3.78h-9.49Zm9.49,8.65v-3.85h-9.49v3.85h9.49Z"/>
      <path class="cls-2" d="M645.08,27.65c-.14,.42-.56,.7-1.37,.7-.84,2.77-1.89,5.43-3.04,7.81l1.79,.67c-.11,.35-.46,.56-1.09,.67v20.37c-.04,.25-1.33,.91-2.49,.91h-.56v-18.41c-.98,1.54-2.07,2.94-3.19,4.13l-.49-.24c2.38-4.55,4.69-11.41,5.85-18.03l4.59,1.44Zm19.11,4.13c-.95,2.31-2.38,4.24-4.17,5.88,2.17,.77,4.66,1.33,7.56,1.68l-.07,.39c-1.26,.46-2,1.4-2.21,2.94-3.15-.74-5.67-1.82-7.63-3.22-2.66,1.68-5.88,2.83-9.66,3.71l-.21-.49c3.36-1.12,6.16-2.63,8.3-4.45-1.5-1.33-2.7-2.87-3.71-4.66-1.61,1.86-3.36,3.33-5.25,4.48l-.35-.31v14.11c0,.28-1.29,.91-2.41,.91h-.56V31.82l4.13,.38c-.07,.46-.35,.77-1.16,.91v4.48c2.28-2.62,4.69-6.93,6.09-11.41l4.31,1.72c-.17,.38-.59,.67-1.37,.59-.42,.8-.88,1.54-1.37,2.28h7.49l1.85-2.49s2.14,1.71,3.36,2.94c-.1,.38-.46,.56-.94,.56h-2.03Zm-18.8,24.85c2.52-2.34,4.66-6.06,5.6-8.75l4.06,1.79c-.18,.39-.49,.56-1.3,.49-1.64,2.45-4.62,5.25-8.02,6.9l-.35-.42Zm13.23-10.12v11.31c0,.32-1.4,.91-2.63,.91h-.56v-12.22h-7.04l-.28-1.01h7.32v-3.85l4.48,.42c-.07,.49-.38,.84-1.29,.98v2.45h3.01l1.82-2.28s2.1,1.58,3.36,2.73c-.11,.38-.46,.56-.91,.56h-7.28Zm-4.87-14.74c-.28,.38-.52,.74-.8,1.08,1.19,1.51,2.8,2.77,4.76,3.78,1.33-1.43,2.34-3.04,2.97-4.87h-6.93Zm5.74,16.77c10.15,2.87,7.81,9.84,4.52,7.53-.63-2.49-2.91-5.46-4.87-7.25l.35-.28Z"/>
      <path class="cls-2" d="M675.92,46.13c2.07-1.19,3.01-2.7,3.46-4.52-1.82-.8-2.97-1.68-2.97-3.18,0-1.26,.88-2.35,2.42-2.35s2.66,1.16,2.66,3.33c0,2.66-1.26,6.06-4.97,7.84l-.59-1.12Z"/>
      <path class="cls-2" d="M697.26,40.99c-1.92,1.82-4.34,3.33-7.07,4.52l-.35-.56c2.87-1.85,5.18-4.45,6.65-7.18h-2v.32c0,.25-1.22,.77-2.34,.77h-.39v-7.53l2.91,1.19h2.59v-2.14h-6.44l-.28-1.01h6.72v-3.22l4.17,.39c-.07,.49-.35,.8-1.19,.91v1.92h2.8l1.68-2.07s1.89,1.44,3.08,2.52c-.11,.38-.42,.56-.91,.56h-6.65v2.14h2.62l1.33-1.33,2.77,2.07c-.18,.17-.56,.42-1.05,.49v3.99c-.03,.28-1.37,.84-2.31,.84h-.46v-.81h-2.91v1.12l.07-.07c8.16,.38,6.65,5.88,3.75,4.48-.67-1.4-2.38-3.05-3.82-3.99v5.36c0,.31-1.3,.91-2.38,.91h-.59v-4.59Zm21.77,13.37s2.17,1.68,3.54,2.91c-.11,.39-.45,.56-.98,.56h-30.91l-.31-1.02h6.51v-7.14l4.38,.39c-.07,.45-.31,.77-1.16,.91v5.84h4.73v-9.14h-11.94l-.28-1.01h22.19l1.79-2.28s2.1,1.58,3.36,2.73c-.11,.38-.45,.56-.95,.56h-10.96v3.75h5.29l1.89-2.38s2.1,1.65,3.4,2.84c-.11,.38-.46,.56-.95,.56h-9.63v4.38h9.03l1.96-2.45Zm-24.54-17.61h2.77v-3.25h-2.77v3.25Zm5.74-3.25v3.25h2.91v-3.25h-2.91Zm19.67-1.02c-.81,2.62-2.1,4.87-3.85,6.76,1.89,1.29,4.24,2.28,7.11,2.94l-.07,.38c-1.26,.42-1.93,1.3-2.14,2.83-2.91-1.08-5.04-2.62-6.72-4.51-2.31,1.85-5.25,3.25-8.89,4.27l-.21-.46c3.36-1.47,5.95-3.29,7.84-5.5-1.05-1.58-1.86-3.33-2.52-5.25-.98,1.26-2.1,2.31-3.29,3.18l-.49-.35c1.75-2.56,3.29-6.44,4.03-10.47l4.31,1.26c-.14,.42-.56,.74-1.33,.74-.46,1.12-.98,2.17-1.54,3.15h5.6l1.85-2.42s2,1.65,3.26,2.87c-.11,.38-.46,.56-.95,.56h-2Zm-8.4,0c-.17,.28-.35,.53-.56,.8,.8,1.65,1.86,3.12,3.15,4.38,1.05-1.58,1.79-3.29,2.24-5.18h-4.83Z"/>
      <path class="cls-2" d="M729.39,38.92c.14,1.37-.17,2.42-.74,2.94-.59,.53-1.71,.56-2.13-.21-.32-.74,.07-1.47,.8-1.96,.6-.53,1.12-1.96,.91-3.05l.6,.04c.17,.42,.28,.84,.38,1.23h.49v-10.47l2.66,1.15h3.96l1.26-1.61,3.12,2.24c-.28,.35-.74,.56-1.61,.67v7.84l1.16-1.16,1.96,1.89v-9.49l2.98,1.22h1.5v-3.92l2.94,.35c-.07,.38-.35,.66-.98,.77v2.8h1.86v-3.92l3.01,.35c-.07,.42-.31,.7-1.01,.81v2.76h1.86l1.29-1.5,2.77,2.1c-.25,.28-.6,.49-1.3,.59v8.47c0,.11-.28,.28-.73,.46,.63,.49,1.71,1.33,2.52,2.03-.07,.38-.42,.56-.91,.56h-16.63l-.28-1.02h13.27l1.12-1.33c-.18,.04-.39,.04-.6,.04h-.42v-.7h-9.66v.42c0,.21-.84,.74-2.17,.74h-.42v-1.96c-.25,.07-.53,.1-.91,.14-.53,.7-1.4,1.75-1.96,2.34l-.56-.24c.11-.56,.25-1.58,.38-2.42h-9.77Zm11.06,3.89c-.21,.25-.74,.53-1.37,.67v11.76c0,1.93-.39,2.98-3.4,3.26-.07-.7-.17-1.29-.53-1.68-.38-.38-.98-.63-2.13-.8v-.56s2.31,.17,2.87,.17c.49,0,.63-.17,.63-.63v-5.22c-.74,.7-1.65,1.54-2.66,2.45-.07,.42-.32,.77-.67,.91l-1.23-2.38c-.35,2.84-1.43,5.78-4.79,7.91l-.42-.42c2.52-3.01,2.73-6.79,2.73-10.5v-7l3.15,1.33h3.57l1.22-1.5,3.01,2.24Zm-8.47-4.9h1.51v-6.27l2.24,1.01h1.01v-3.04h-4.76v8.3Zm.18,9.84c0,.77-.04,1.54-.11,2.38,1.02-.28,2.73-.84,4.48-1.47v-1.68c-.17,.49-.77,.81-1.54,.6-.63-.6-1.79-1.3-2.84-1.79v1.96Zm0-4.66v1.89c2.84-.28,4.09,.49,4.38,1.26v-3.15h-4.38Zm3.08-5.18h1.5v-4.24h-1.5v4.24Zm20.9,16.1s2.03,1.5,3.25,2.62c-.1,.39-.46,.56-.95,.56h-18.27l-.28-1.02h6.76c-.35-.07-.7-.25-1.01-.56-.04-1.12-.42-2.41-.88-3.43-.28,.07-.66,.11-1.05,.11h-.46v-8.75l3.19,1.29h6.23l1.37-1.58,2.87,2.17c-.21,.28-.52,.45-1.22,.6v5.15c0,.14-.88,.63-2.1,.7l2,.7c-.14,.39-.59,.66-1.33,.6-.7,.88-1.82,2-2.94,3.01h3.12l1.72-2.17Zm-11.34-22.79v3.25h1.89v-3.25h-1.89Zm1.89,4.27h-1.89v3.39h1.89v-3.39Zm-.63,16.03c0,.07-.11,.17-.28,.32,3.54,1.68,2.83,4.06,1.37,4.34h3.04c.63-1.5,1.33-3.43,1.72-4.9l.88,.32v-.7h-6.72v.63Zm0-5.67v4.03h6.72v-4.03h-6.72Zm2.59-14.63v3.25h1.86v-3.25h-1.86Zm0,7.67h1.86v-3.39h-1.86v3.39Zm3.85-7.67v3.25h1.96v-3.25h-1.96Zm1.96,7.67v-3.39h-1.96v3.39h1.96Z"/>
      <path class="cls-2" d="M48.61,76.98c-.25,.31-.63,.38-1.37,.42-1.08,1.22-3.01,2.91-4.55,3.85l-.35-.25c.35-1.19,.81-2.91,1.09-4.31h-5.53v4.9c0,.95,.04,.95,1.09,.95h5.5c.24,0,.59,0,.98-.14h.31l.17,.03c1.16,.42,1.33,.63,1.33,1.12,0,1.26-.77,1.82-4.03,1.82h-4.69c-3.57,0-3.92-.38-3.92-3.75v-4.94h-13.02c.28,2.59-.63,4.34-1.82,5.08-1.09,.7-2.52,.53-2.98-.59-.38-1.05,.28-1.92,1.19-2.42,1.33-.81,2.52-2.91,2.24-5.18l.52-.04c.32,.74,.52,1.47,.7,2.14h10.85c-.35-.07-.77-.28-1.16-.6-.07-1.68-.98-3.61-1.96-4.79l.31-.18c6.62,1.09,5.81,5.11,3.61,5.57h10.12l1.92-1.96,3.43,3.26Zm-16.77,2.07c-.14,.42-.52,.66-1.58,.66-2.35,3.75-5.88,6.51-12.43,7.53l-.24-.42c5.85-2.49,8.65-5.92,9.87-9.94l4.38,2.17Zm11.94,18.59s2.28,1.79,3.61,3.12c-.11,.38-.46,.56-.98,.56H18.06l-.32-1.01h12.78v-10.92h-8.58l-.28-1.02h16.7l1.93-2.45s2.1,1.68,3.36,2.91c-.07,.38-.46,.56-.94,.56h-8.75v10.92h7.81l2.03-2.66Z"/>
      <path class="cls-2" d="M57.68,82.76v18.97c0,.46-1.19,1.26-2.73,1.26h-.56v-31.5l3.43,1.51h5.67l1.47-1.61,3.26,2.42c-.21,.25-.7,.53-1.33,.63v9.28c-.04,.21-1.58,.88-2.59,.88h-.49v-1.82h-6.13Zm0-8.75v3.36h6.13v-3.36h-6.13Zm6.13,7.77v-3.46h-6.13v3.46h6.13Zm11.48,16.77c-.04,.28-1.58,.98-2.62,.98h-.49v-2h-7.11v1.4c0,.31-1.29,.98-2.59,.98h-.46v-14.46l3.19,1.37h6.62l1.54-1.65,3.22,2.41c-.21,.28-.7,.56-1.3,.67v10.29Zm-10.22-10.75v3.78h7.11v-3.78h-7.11Zm7.11,8.75v-3.99h-7.11v3.99h7.11Zm12.32-22.72c-.25,.28-.77,.59-1.43,.74v24.22c0,2.42-.49,3.82-4.45,4.17-.1-1.02-.28-1.86-.7-2.38-.53-.49-1.26-.88-2.84-1.16v-.53s3.22,.25,3.89,.25c.63,0,.77-.25,.77-.74v-15.65h-6.37v.7c0,.31-1.37,1.05-2.7,1.05h-.46v-12.88l3.33,1.37h5.85l1.58-1.86,3.54,2.7Zm-11.13,.17v3.36h6.37v-3.36h-6.37Zm6.37,7.77v-3.46h-6.37v3.46h6.37Z"/>
      <path class="cls-2" d="M119.35,98.26c1.5,.42,2,.63,2,1.33,0,1.58-1.47,2.59-7.98,2.59h-13.13c-4.69,0-6.9-1.12-6.9-4.9v-14.95c-1.44,1.22-2.94,2.31-4.48,3.19l-.35-.35c3.99-3.46,7.91-9.7,9.77-14.91l4.87,1.26c-.14,.38-.46,.56-1.37,.49-.46,.84-.98,1.68-1.54,2.52h6.76l1.92-1.89,3.33,2.94c-.28,.28-.7,.35-1.4,.42-1.4,1.4-3.54,3.4-5.53,4.66h8.05l1.68-1.85,3.57,2.73c-.25,.32-.81,.63-1.54,.77v9.35c-.04,.25-1.68,.91-2.77,.91h-.56v-2.31h-17.15v7.14c0,1.33,1.16,1.64,3.5,1.64h12.95c2.21,0,3.22-.14,3.85-.98,.59-.77,1.43-3.12,2-4.97h.42l.04,5.18Zm-19.85-22.72c-1.12,1.58-2.42,3.12-3.82,4.59l1.37,.52h7.39c.91-1.4,1.96-3.54,2.59-5.11h-7.53Zm-2.91,13.69h6.86v-7.56h-6.86v7.56Zm10.08-7.56v7.56h7.07v-7.56h-7.07Z"/>
      <path class="cls-2" d="M136.71,90.42c9.7,1.75,7.46,8.26,4.2,6.16-.59-2-2.52-4.16-4.2-5.57v11.03c0,.35-1.4,.95-2.59,.95h-.63v-10.01c-2.03,2.94-4.8,5.46-8.12,7.46l-.38-.49c3.36-3.01,5.81-7.39,7.21-11.69h-6.2l-.28-.98h7.77v-4.38l4.45,.46c-.07,.46-.35,.77-1.22,.91v3.01h2.8l1.82-2.35s2.03,1.65,3.29,2.77c-.07,.38-.46,.56-.91,.56h-7v2.17Zm7.46-16.59c-.35,.31-1.05,.35-2.06-.07-4.06,1.02-10.47,1.89-16.14,2.03l-.11-.53c5.25-.98,11.59-3.01,14.84-4.69l3.46,3.26Zm-17.5,3.01c7,2.77,3.99,8.05,1.47,5.74,.07-1.89-.91-4.13-1.86-5.53l.38-.21Zm5.5-.91c6.86,2.76,3.82,8.02,1.33,5.74,.11-1.89-.77-4.13-1.71-5.57l.38-.17Zm5.39,7.11c1.01-1.82,2.2-4.73,3.01-7.46l4.17,1.79c-.17,.35-.67,.59-1.37,.53-1.54,2.13-3.47,4.2-5.36,5.46l-.45-.31Zm20.79,8.51c-.21,.38-.59,.49-1.44,.38-4.13,5.64-9.35,9.03-15.96,11.1l-.25-.56c5.6-2.87,9.94-6.9,13.16-13.2l4.48,2.28Zm-15.16-1.61c4.03-2.52,7.53-6.09,10.19-10.47l4.24,2.49c-.21,.35-.56,.45-1.33,.31-3.5,3.64-7.98,6.41-12.81,8.19l-.28-.53Zm.1-9.35c3.71-2.45,7.14-5.85,9.8-9.7l4.1,2.56c-.28,.35-.59,.42-1.37,.28-3.43,3.08-7.81,5.67-12.22,7.39l-.32-.52Z"/>
      <path class="cls-2" d="M178.81,91.58c-3.36,2-8.02,4.66-14.67,7.7-.14,.42-.46,.81-.84,.95l-1.92-3.96c1.16-.25,2.91-.7,4.97-1.3l-.35-22.61,4.62,.35c-.04,.49-.32,.88-1.26,1.01l.32,20.27c2.8-.88,5.95-1.86,9-2.87l.14,.45Zm13.23-18.62c-.07,.52-.49,.95-1.33,1.01-.32,7.46-.84,13.76-4.48,18.83,10.75,4.62,8.61,11.66,4.9,9.35-1.01-2.62-3.43-5.81-5.67-8.3-3.04,3.67-7.88,6.72-15.75,9.14l-.32-.6c16.38-7.35,17.4-16.38,17.68-29.93l4.97,.49Zm-18.38,3.43c10.82,3.57,8.26,10.71,4.73,8.23-.74-2.63-3.15-5.88-5.08-8.02l.35-.21Z"/>
      <path class="cls-2" d="M198.37,78.84c8.19,1.09,5.74,6.93,2.73,4.93-.38-1.68-1.82-3.57-3.05-4.69l.31-.24Zm32.27-4.59c-.21,.28-.59,.35-1.29,.38-1.01,.98-2.83,2.56-3.96,3.43l-.39-.21c.21-.95,.56-2.59,.84-3.85h-14.91c.53,5.57-3.22,5.88-3.92,4.24-.98,4.03-2.77,11.13-3.12,12.74-.21,1.08-.35,2.24-.35,3.12,.07,1.72,1.33,3.19,1.19,6.23-.07,1.64-1.05,2.7-2.49,2.7-.7,0-1.37-.56-1.54-1.79,.56-3.57,.42-6.72-.35-7.25-.46-.35-.98-.46-1.71-.53v-.74h1.5c.42,0,.6,0,.91-.73q.63-1.23,5.43-14.11l.46,.07c-.07-.42,.07-.98,.53-1.58,1.29-.8,2.2-2.48,2.34-5.42h.53c.21,.73,.35,1.4,.46,2.03h14.88l1.82-1.82,3.15,3.08Zm-29.93-3.4c8.51,1.65,5.74,7.53,2.73,5.29-.39-1.75-1.82-3.78-3.05-5.04l.32-.25Zm18.69,18.45c2.42,3.99,6.79,7.25,10.75,8.82l-.07,.39c-1.33,.25-2.35,1.29-2.8,2.97-3.57-2.42-6.41-6.3-8.26-11.24v11.76c0,.35-1.44,.98-2.62,.98h-.63v-9.87c-2.49,3.5-6.02,6.37-10.15,8.58l-.38-.49c3.85-3.05,7-7.53,8.79-11.9h-7.11l-.28-1.02h9.14v-4.52l4.48,.46c-.11,.46-.35,.81-1.23,.91v3.15h5.46l1.89-2.55s2.24,1.75,3.57,3.01c-.1,.39-.45,.56-.94,.56h-9.59Zm-1.89-13.93c-.07,.38-.35,.74-1.09,.84-.32,3.68-.81,7.21-8.47,9.56l-.42-.53c5.67-2.73,5.71-6.23,5.81-10.26l4.17,.38Zm6.51,.17c-.04,.42-.39,.7-.98,.81v4.66c0,.42,.07,.52,.74,.52h3.15c.21,0,.49-.03,.63-.07,.21,0,.53-.07,.74-.14h.31l.14,.04c.8,.32,1.08,.56,1.08,1.12,0,1.12-1.08,1.54-4.76,1.54h-2.17c-2.38,0-2.7-.63-2.7-2.41v-6.44l3.82,.38Z"/>
      <path class="cls-2" d="M264.95,98.26c1.5,.42,2,.63,2,1.33,0,1.58-1.47,2.59-7.98,2.59h-13.13c-4.69,0-6.9-1.12-6.9-4.9v-14.95c-1.44,1.22-2.94,2.31-4.48,3.19l-.35-.35c3.99-3.46,7.91-9.7,9.77-14.91l4.87,1.26c-.14,.38-.46,.56-1.37,.49-.45,.84-.98,1.68-1.54,2.52h6.76l1.92-1.89,3.33,2.94c-.28,.28-.7,.35-1.4,.42-1.4,1.4-3.54,3.4-5.53,4.66h8.05l1.68-1.85,3.57,2.73c-.25,.32-.81,.63-1.54,.77v9.35c-.04,.25-1.68,.91-2.77,.91h-.56v-2.31h-17.15v7.14c0,1.33,1.16,1.64,3.5,1.64h12.95c2.21,0,3.22-.14,3.85-.98,.59-.77,1.43-3.12,2-4.97h.42l.04,5.18Zm-19.85-22.72c-1.12,1.58-2.42,3.12-3.82,4.59l1.37,.52h7.39c.91-1.4,1.96-3.54,2.59-5.11h-7.53Zm-2.91,13.69h6.86v-7.56h-6.86v7.56Zm10.08-7.56v7.56h7.07v-7.56h-7.07Z"/>
      <path class="cls-2" d="M284.55,95.08c-.25,.32-.56,.49-1.3,.32-2.52,2.24-6.86,4.76-11.24,6.16l-.32-.42c3.54-2.21,7.25-5.74,9.03-8.37l3.82,2.31Zm10.15-10.71c9.07,3.88,6.27,10.47,3.26,7.91-.11-.95-.39-1.89-.77-2.87-2.07,.35-4.52,.77-7.35,1.23v8.33c0,2.28-.59,3.71-4.55,4.03-.07-.95-.21-1.72-.66-2.17-.46-.42-1.16-.8-2.8-1.05v-.49s3.15,.21,3.88,.21c.56,0,.7-.17,.7-.59v-7.74c-2.7,.42-5.64,.84-8.79,1.29-.25,.42-.53,.7-.84,.84l-1.79-3.75s.95-.11,1.44-.32c3.12-1.19,7-3.4,10.36-5.67-2.45,.56-5.39,1.23-8.58,1.86-.21,.32-.46,.56-.7,.67l-1.71-3.54s.73-.07,1.09-.25c3.57-1.37,8.33-5.18,10.22-7.28-4.1,1.29-8.93,2.55-13.37,3.29l-.17-.53c6.09-1.82,13.72-5.11,17.43-7.53l3.5,2.7c-.31,.38-.98,.42-1.96,.1-1.47,.63-3.33,1.26-5.29,1.93l3.6,2.17c-.21,.32-.67,.56-1.43,.35-2.28,1.58-6.3,3.71-10.05,5.15,2.52-.14,5.88-.35,9.49-.6,2.03-1.47,3.71-2.91,4.8-4.03l3.71,2.73c-.17,.32-.73,.53-1.54,.28-3.54,2.59-10.71,6.2-16.91,8.61,4.24-.17,10.85-.59,17.92-1.01-.7-1.5-1.61-2.94-2.52-4.03l.38-.25Zm-2.66,8.54c12.85,2.55,11.59,10.08,7.77,8.33-1.5-2.73-5.29-6.06-8.05-7.98l.28-.35Z"/>
      <path class="cls-2" d="M340.27,90.84c-.28,.25-.7,.46-1.43,.53-.49,5.92-1.61,9.35-3.33,10.61-1.02,.7-2.35,1.05-3.92,1.05,0-.84-.14-1.65-.59-2.1-.49-.49-1.58-.88-2.8-1.08v-.56c1.19,.14,3.33,.28,4.06,.28,.59,0,.91-.07,1.23-.32,.88-.7,1.75-3.67,2.21-8.33h-21.21c-2.06,2.06-4.41,3.96-7.11,5.53l-.38-.38c5.57-4.38,9.56-10.57,12.22-16.84h-9.45l-.32-1.02h10.19c1.08-2.7,1.92-5.39,2.52-7.95l4.62,1.33c-.18,.46-.49,.7-1.47,.67-.63,1.92-1.37,3.92-2.28,5.95h5.78l1.33-1.4,2.94,2.31c-.25,.28-.56,.39-1.19,.42l-1.02,4.41h1.19l1.29-1.37,2.84,2.28c-.25,.28-.56,.38-1.16,.46l-.81,4.59h1.23l1.71-1.68,3.12,2.62Zm-26.25,2.45c1.5,4.34-.04,7.21-1.68,8.19-1.12,.7-2.59,.56-3.01-.52-.38-.98,.25-1.86,1.19-2.35,1.5-.77,3.05-2.8,2.98-5.29l.53-.04Zm-1.44-22.58c8.61,1.92,5.78,8.23,2.66,5.92-.32-2-1.68-4.27-3.01-5.71l.35-.21Zm6.72,14.25c-1.16,1.72-2.42,3.36-3.85,4.94h15.82l.91-4.94h-12.88Zm-1.44,8.23c5.74,4.62,1.86,9.7-.35,6.72,.49-2.17,.32-4.72-.11-6.62l.46-.11Zm4.66-13.97c-.74,1.58-1.61,3.19-2.59,4.73h7.91l1.05-4.73h-6.37Zm-.28,13.62c7.28,2.59,4.31,8.05,1.68,5.71-.07-1.82-1.05-4.06-2.06-5.5l.38-.21Zm4.9-.56c7.49,.67,5.57,6.12,2.73,4.48-.39-1.51-1.79-3.29-3.05-4.27l.32-.21Z"/>
      <path class="cls-2" d="M372.22,97.6s2.52,1.89,4.03,3.25c-.1,.39-.45,.56-.98,.56h-31.26l-.28-1.02h14.35v-10.47h-10.26l-.28-1.01h10.54v-8.96h-11.73l-.32-1.02h22.61l2.14-2.73s2.45,1.82,3.99,3.19c-.11,.38-.49,.56-.98,.56h-12.11v8.96h5.67l2.13-2.63s2.35,1.79,3.82,3.08c-.07,.38-.46,.56-.98,.56h-10.64v10.47h8.33l2.21-2.8Zm-17.82-26.99c11.38,1.26,9.59,8.86,5.74,6.9-1.01-2.38-3.75-5.04-6.02-6.58l.28-.32Z"/>
      <path class="cls-2" d="M384.72,90.35c2.07-1.19,3.01-2.7,3.46-4.52-1.82-.8-2.97-1.68-2.97-3.18,0-1.26,.88-2.35,2.42-2.35s2.66,1.16,2.66,3.33c0,2.66-1.26,6.06-4.97,7.84l-.59-1.12Z"/>
      <path class="cls-2" d="M407.5,80.62c-.14,.35-.45,.56-1.09,.67v20.72c-.03,.25-1.33,.98-2.62,.98h-.59v-18.8c-1.29,1.68-2.66,3.18-4.13,4.45l-.49-.32c2.91-4.34,5.85-11.13,7.39-17.85l4.8,1.47c-.17,.42-.56,.7-1.37,.7-.98,2.66-2.13,5.15-3.43,7.39l1.54,.6Zm13.76,8.26c-.21,2.94-.95,5.46-2.45,7.53,3.57,1.79,8.19,2.66,13.2,2.83v.42c-1.37,.38-2.45,1.61-2.7,3.25-5.21-.74-9.21-2.17-12.22-4.62-2.24,2.03-5.53,3.61-10.12,4.69l-.25-.53c4.1-1.5,6.93-3.36,8.72-5.78-1.37-1.5-2.49-3.33-3.33-5.46l.49-.28c.91,1.61,2.24,2.98,3.85,4.13,.94-1.82,1.43-3.85,1.58-6.2h-4.97v1.08c0,.28-1.44,1.01-2.77,1.01h-.42v-12.01l3.36,1.4h4.83v-3.71h-8.86l-.28-1.01h9.14v-5.11l4.52,.46c-.07,.49-.35,.84-1.26,.98v3.68h4.45l2.1-2.7s2.31,1.82,3.75,3.15c-.11,.38-.45,.56-.95,.56h-9.35v3.71h4.55l1.64-1.79,3.43,2.62c-.25,.28-.77,.59-1.44,.77v7.77c-.04,.25-1.64,.95-2.73,.95h-.56v-1.82h-4.97Zm-3.19-1.02v-6.48h-5v6.48h5Zm3.26-6.48v6.48h4.9v-6.48h-4.9Z"/>
      <path class="cls-2" d="M442.64,83.25c0,6.2-.46,14.25-7,19.6l-.46-.31c3.78-5.64,4.2-12.71,4.2-19.29v-10.43l3.08,1.19c6.72-.77,14.91-2.24,19.36-3.54l3.25,3.33c-.38,.32-1.12,.32-2.13-.1-5.32,.63-13.34,1.08-20.3,1.05v2.42h18.13l1.58-1.71,3.47,2.55c-.21,.28-.7,.56-1.37,.7v4.94c-.04,.25-1.68,.91-2.8,.91h-.56v-1.37h-18.45v.07Zm20.97,2.49s2.06,1.58,3.36,2.76c-.11,.39-.49,.56-.95,.56h-13.16c-.11,1.19-.28,2.31-.56,3.46h7.56l1.75-1.64,3.18,2.62c-.21,.28-.66,.46-1.37,.53-.38,4.09-1.19,6.79-2.66,7.74-.98,.63-2.28,.98-3.92,.98,0-.91-.14-1.75-.63-2.21-.53-.49-1.79-.91-3.19-1.12v-.49c1.4,.1,3.75,.28,4.45,.28,.59,0,.91-.07,1.19-.25,.63-.49,1.15-2.52,1.47-5.43h-8.16c-1.15,3.61-3.96,6.93-10.92,9.42l-.35-.53c7.49-4.03,8.23-8.75,8.4-13.37h-5.53l-.28-1.02h11.27c-.28-.03-.59-.14-.91-.35-.32-1.29-1.33-2.8-2.14-3.68l.32-.21c5.95,.39,5.29,3.96,3.29,4.24h6.65l1.82-2.31Zm-20.97-7.56v3.99h18.45v-3.99h-18.45Z"/>
      <path class="cls-2" d="M476.97,82.76v18.97c0,.46-1.19,1.26-2.73,1.26h-.56v-31.5l3.43,1.51h5.67l1.47-1.61,3.25,2.42c-.21,.25-.7,.53-1.33,.63v9.28c-.04,.21-1.58,.88-2.59,.88h-.49v-1.82h-6.13Zm0-8.75v3.36h6.13v-3.36h-6.13Zm6.13,7.77v-3.46h-6.13v3.46h6.13Zm11.48,16.77c-.04,.28-1.58,.98-2.62,.98h-.49v-2h-7.11v1.4c0,.31-1.29,.98-2.59,.98h-.46v-14.46l3.19,1.37h6.62l1.54-1.65,3.22,2.41c-.21,.28-.7,.56-1.29,.67v10.29Zm-10.22-10.75v3.78h7.11v-3.78h-7.11Zm7.11,8.75v-3.99h-7.11v3.99h7.11Zm12.32-22.72c-.25,.28-.77,.59-1.44,.74v24.22c0,2.42-.49,3.82-4.45,4.17-.11-1.02-.28-1.86-.7-2.38-.53-.49-1.26-.88-2.84-1.16v-.53s3.22,.25,3.88,.25,.77-.25,.77-.74v-15.65h-6.37v.7c0,.31-1.36,1.05-2.7,1.05h-.46v-12.88l3.33,1.37h5.85l1.58-1.86,3.54,2.7Zm-11.13,.17v3.36h6.37v-3.36h-6.37Zm6.37,7.77v-3.46h-6.37v3.46h6.37Z"/>
      <path class="cls-2" d="M515.19,92.31c1.54-.35,3.15-.73,4.76-1.15l.14,.42c-2.03,1.26-5.04,3.15-9.31,5.46-.14,.46-.46,.74-.84,.88l-1.89-4.06c.88-.14,2.28-.45,3.99-.84v-11.41h-3.61l-.28-1.01h3.88v-9.42l4.45,.46c-.1,.49-.38,.84-1.29,.94v8.02h.28l1.58-2.41s1.75,1.71,2.73,2.87c-.07,.38-.42,.56-.91,.56h-3.68v10.71Zm24.96-15.09c-.21,.21-.66,.49-1.26,.59v9.7c-.03,.25-1.57,.88-2.59,.88h-.56v-1.44h-12.78v1.08c0,.18-.35,.39-.88,.6l2.76,1.16h8.4l1.58-1.72,3.36,2.56c-.21,.28-.7,.56-1.4,.7v10.57c-.04,.24-1.61,.88-2.66,.88h-.53v-2.07h-8.96v1.19c0,.31-1.33,1.01-2.66,1.01h-.46v-14.11c-.35,.11-.74,.17-1.12,.17l-.49,.04v-14l3.26,1.36h8.12c.6-1.82,1.37-4.24,1.86-5.99l4.8,1.37c-.14,.42-.6,.7-1.37,.67-1.09,1.12-2.8,2.7-4.38,3.96h3.19l1.54-1.61,3.22,2.45Zm-17.47-6.62c7.88,1.47,5.32,7.21,2.38,5.18-.31-1.68-1.58-3.71-2.73-4.94l.35-.25Zm.28,15.33h5.08v-8.54h-5.08v8.54Zm.77-7.04c5.78,2.7,3.43,6.72,1.44,4.94-.07-1.5-1.02-3.5-1.86-4.73l.42-.21Zm.91,11.9v3.85h8.96v-3.85h-8.96Zm8.96,8.89v-4.03h-8.96v4.03h8.96Zm2.14-13.76v-5.46c-.21,.14-.53,.21-.88,.17-.8,1.26-1.75,2.73-2.62,3.75l-.63-.25c.42-1.37,.98-3.5,1.44-5.36l2.7,1.05v-2.45h-5.01v8.54h5.01Z"/>
      <path class="cls-2" d="M544.77,78.59c8.16,1.08,5.67,6.97,2.66,4.9-.32-1.65-1.68-3.54-2.98-4.66l.32-.25Zm9.63-1.47c-1.29,4.17-3.61,11.83-4.06,13.62-.25,1.09-.46,2.21-.46,3.12,.07,1.75,1.26,3.22,1.16,6.2-.07,1.64-.98,2.7-2.45,2.7-.74,0-1.4-.56-1.58-1.79,.59-3.61,.38-6.72-.39-7.25-.49-.35-.98-.46-1.71-.53v-.7h1.5c.46,0,.6,0,.98-.7q.66-1.3,6.41-14.81l.6,.14Zm-7.21-6.3c8.68,.95,6.48,7.04,3.29,5.18-.56-1.75-2.21-3.71-3.57-4.94l.28-.25Zm20.41,10.36c2.34,2.87,6.44,5.11,10.12,6.13l-.07,.35c-1.22,.28-2.1,1.3-2.49,2.91-3.71-1.96-6.65-5.15-8.44-9.38h-3.5c-2.31,4.38-6.12,7.7-12.01,9.94l-.25-.42c4.34-2.52,7.18-5.74,8.89-9.52h-5.6l-.28-1.01h6.33c.7-1.82,1.19-3.75,1.47-5.81h-6.51l-.28-1.02h14.6l1.89-2.49s2.17,1.75,3.46,2.94c-.1,.38-.46,.56-.95,.56h-8.4c-.46,2.1-1.05,4.03-1.86,5.81h7.95l1.96-2.59s2.21,1.79,3.54,3.05c-.1,.38-.46,.56-.95,.56h-8.65Zm-9.07,8.82c1.72,10.47-7.42,8.96-4.73,5.67,1.86-.77,3.68-2.62,4.17-5.74l.56,.07Zm2.94-4.13l4.31,.42c-.07,.49-.42,.77-1.23,.88v11.76c0,2.34-.49,3.67-4.34,4.03-.11-.98-.25-1.71-.77-2.21-.49-.53-1.33-.88-2.94-1.12v-.53s3.54,.25,4.24,.25c.56,0,.73-.17,.73-.63v-12.85Zm4.97,4.62c6.72,4.34,3.57,10.01,1.09,7.42,.21-2.34-.59-5.29-1.54-7.25l.46-.18Zm3.96-.73c9.38,3.78,6.79,10.78,3.75,8.3-.25-2.7-2.24-5.99-4.17-8.05l.42-.25Z"/>
      <path class="cls-2" d="M588.66,84.44c6.37,3.22,3.78,7.88,1.51,5.78-.11-1.54-.77-3.33-1.51-4.73v16.56c-.04,.25-1.01,.98-2.49,.98h-.49v-12.6c-1.23,2.38-2.7,4.62-4.52,6.58l-.46-.42c2.21-3.85,3.54-8.96,4.34-13.83h-3.82l-.28-1.01h4.73v-6.76c-1.58,.28-3.15,.52-4.69,.67l-.18-.49c3.08-1.16,6.9-3.19,8.82-4.55l3.57,3.08c-.38,.35-1.05,.38-2,.03-.74,.21-1.65,.42-2.56,.66v7.35h.39l1.54-2.14s1.82,1.47,2.87,2.59c-.11,.38-.46,.56-.91,.56h-3.89v1.68Zm6.09,9.45c1.05,3.43,.35,5.88-.74,6.97-.73,.74-2.21,.84-2.73-.07-.42-.81,.03-1.68,.84-2.24,1.01-.77,2.13-2.77,2.03-4.66h.59Zm16.98-7.25s1.47,1.22,2.38,2.17c-.07,.38-.42,.56-.88,.56h-2.87v3.39c-.03,.21-1.4,.7-2.31,.7h-.46v-.98h-12.81l-.32-1.02h13.13v-2.1h-14.28l-.28-1.02h14.56v-2.07h-12.43l-.28-1.01h12.43l1.33-1.4,2.87,2.17c-.17,.21-.59,.46-1.16,.56v1.75h.04l1.33-1.71Zm-6.51-7.53c.6-1.47,1.19-3.57,1.51-5.64-3.89,.35-8.65,.56-12.85,.49l-.07-.63c5.29-.53,11.94-1.89,15.47-2.94l2.77,2.87c-.35,.32-1.05,.28-1.92-.1-.91,.1-1.93,.21-3.01,.31l3.64,1.16c-.14,.39-.56,.7-1.3,.7-.91,1.37-2.03,2.73-3.15,3.78h1.33l1.4-1.89s1.68,1.33,2.7,2.34c-.1,.39-.42,.56-.91,.56h-6.86v2.49h5.32l1.58-2.03s1.79,1.43,2.84,2.49c-.07,.38-.42,.56-.88,.56h-19.39l-.28-1.01h7.84v-2.49h-5.81l-.28-1.02h10.33Zm-10.26-4.58c6.37,1.4,3.26,5.6,1.02,3.61-.07-1.19-.74-2.59-1.37-3.4l.35-.21Zm13.76,24.64c.84,.31,1.09,.63,1.09,1.16,0,1.22-1.19,1.75-6.37,1.75h-3.36c-2.87,0-3.36-.56-3.36-2.52v-6.16l3.85,.38c-.04,.42-.38,.7-1.01,.8v4.38c0,.42,.1,.49,1.16,.49h5.71c.38-.03,.56-.1,.74-.31,.28-.38,.66-1.4,1.05-2.62h.38l.14,2.66Zm-8.82-25.03c6.55,1.23,3.75,5.85,1.37,3.89-.07-1.3-.88-2.77-1.71-3.64l.35-.25Zm1.89,18.83c6.58,1.93,4.06,6.58,1.75,4.69-.17-1.5-1.19-3.36-2.14-4.45l.39-.25Zm6.62,1.12c7.56,2.14,5.04,7.74,2.45,5.67-.14-1.89-1.47-4.13-2.76-5.39l.31-.28Z"/>
      <path class="cls-2" d="M645.99,98.02s2.49,1.86,3.95,3.19c-.1,.38-.49,.56-.98,.56h-31.26l-.31-1.01h14.42v-3.99h-11.38l-.32-1.02h11.69v-3.61h-6.55v.7c0,.32-1.47,1.09-2.83,1.09h-.49v-13.55l3.57,1.5h6.3v-3.26h-13.51l-.28-1.01h13.79v-3.01c-3.82,.28-7.81,.42-11.55,.42l-.07-.63c7.77-.7,17.5-2.41,22.65-3.99l3.01,3.08c-.35,.32-1.09,.32-2.07-.14-2.45,.38-5.39,.74-8.58,1.02v3.25h8.44l2.03-2.45s2.31,1.68,3.71,2.91c-.11,.38-.49,.56-.95,.56h-13.23v3.26h6.34l1.64-1.82,3.54,2.66c-.25,.28-.74,.56-1.47,.7v9.07c-.04,.21-1.68,.91-2.8,.91h-.56v-1.26h-6.69v3.61h6.97l1.89-2.34s2.24,1.61,3.61,2.8c-.1,.38-.45,.56-.94,.56h-11.52v3.99h8.61l2.17-2.73Zm-20.72-15.16v3.57h6.55v-3.57h-6.55Zm6.55,8.26v-3.68h-6.55v3.68h6.55Zm3.4-8.26v3.57h6.69v-3.57h-6.69Zm6.69,8.26v-3.68h-6.69v3.68h6.69Z"/>
      <path class="cls-2" d="M660.03,77.15c-.21,2.28-1.3,5.15-5.67,6.9l-.32-.49c2.77-2.31,3.05-5.15,3.05-7.56v-4.06l3.5,1.08c2.42-.8,4.97-1.82,6.44-2.55l2.87,2.83c-.39,.32-1.05,.28-1.89-.07-2.03,.35-5.11,.7-7.91,.84v2.07h6.23l1.64-2.03s1.89,1.43,3.01,2.49c-.07,.38-.42,.56-.91,.56h-3.78v4.52c-.04,.17-.98,.74-2.52,.74h-.53v-5.25h-3.22Zm-5.32,25.27c4.34-1.16,9.21-3.57,11.55-5.43l3.67,2.7c-.31,.35-.94,.42-1.89,.14-3.15,1.4-8.37,2.7-13.16,3.12l-.18-.53Zm28.11-28.46s2,1.51,3.19,2.63c-.07,.38-.42,.56-.91,.56h-4.59v4.45c-.04,.11-.59,.49-1.58,.66l2.84,2.14c-.21,.25-.7,.52-1.3,.63v11.73c-.03,.24-1.68,.88-2.76,.88h-.56v-1.44h-13.69v1.05c0,.28-1.43,1.05-2.8,1.05h-.53v-16.17l3.54,1.43h13.13l1.16-1.22h-.56v-5.18h-3.19c-.35,2-1.64,4.38-5.88,5.81l-.32-.46c2.98-2.13,3.33-4.69,3.33-6.9v-3.75l3.26,.98c2.52-.73,5.18-1.68,6.76-2.38l2.87,2.91c-.39,.32-1.05,.28-1.89-.11-2.03,.28-5.11,.6-7.98,.74v2.14h6.72l1.75-2.17Zm-19.36,10.61v2.83h13.69v-2.83h-13.69Zm0,3.82v2.87h13.69v-2.87h-13.69Zm13.69,6.79v-2.91h-13.69v2.91h13.69Zm-5.18,2.66c18.13,.52,12.22,6.93,8.89,4.58-1.72-1.33-4.8-2.98-9.03-4.09l.14-.49Z"/>
      <path class="cls-2" d="M721.7,99.1c1.01,1.92,1.19,2.94,.63,3.36-1.4,1.16-3.85-.38-5.11-1.96-2.31-2.8-3.92-6.23-5.01-10.15-1.54,1.08-3.29,1.93-5.11,2.59l-.35-.46c1.75-1.05,3.46-2.42,5-4.06-.84-3.82-1.29-7.95-1.47-12.29h-14.49v6.58c0,5.71-.25,14-5.32,19.6l-.46-.32c2.63-5.85,2.8-13.09,2.8-19.29v-9l3.5,1.4h13.9c-.04-1.58-.07-3.15-.07-4.8l4.55,.49-.07-.07,.35-.25c5.95,1.16,3.46,5,1.37,3.33-.17-1.05-.91-2.21-1.61-2.94-.07,.42-.38,.77-1.26,.91-.04,1.12-.04,2.21,0,3.33h4.66l1.65-2.24s1.85,1.58,2.97,2.7c-.1,.38-.45,.56-.91,.56h-8.37c.07,3.04,.31,6.12,.8,9,1.3-2,2.38-4.3,3.12-6.86l4.24,1.68c-.17,.42-.59,.7-1.37,.59-1.43,3.22-3.22,5.74-5.36,7.74,.91,3.61,2.31,6.76,4.45,9.1,.49,.59,.7,.59,1.02-.11,.45-.88,1.19-2.55,1.71-4.03l.42,.07-.8,5.78Zm-25.06-5.81c1.09,3.33,.67,5.95-.21,7.11-.63,.7-1.96,.91-2.49,.14-.42-.77-.04-1.61,.7-2.17,.84-.91,1.61-3.15,1.37-5.08h.63Zm10.5-16.14s1.89,1.47,3.12,2.59c-.11,.39-.45,.56-.95,.56h-12.36l-.28-1.02h8.72l1.75-2.13Zm-6.65,13.16c0,.25-1.33,.91-2.52,.91h-.42v-9.84l3.08,1.26h4.76l1.47-1.54,3.15,2.38c-.17,.25-.7,.52-1.29,.63v5.43c-.04,.25-1.54,.8-2.49,.8h-.53v-1.33h-5.21v1.29Zm8.12,8.96c.77,.28,.95,.63,.95,1.12,0,1.08-1.09,1.65-5.43,1.65h-2.7c-2.52,0-2.94-.59-2.94-2.35v-7.63l3.61,.35c-.03,.46-.38,.77-1.01,.88v5.74c0,.42,.1,.53,.98,.53h2.24c1.05,0,1.82,0,2.13-.04,.32,0,.42-.07,.59-.38,.28-.49,.63-2.03,1.05-3.75h.42l.1,3.88Zm-8.12-15.61v4.34h5.21v-4.34h-5.21Zm1.92,7.14c6.3,3.22,3.54,7.84,1.4,5.71,.04-1.79-.91-4.06-1.82-5.46l.42-.25Zm6.55,2.07c6.65,3.89,4.03,8.96,1.71,6.79-.04-2.17-1.12-4.83-2.17-6.58l.46-.21Z"/>
      <path class="cls-2" d="M729.19,86.71c0-2.73,2.24-4.94,4.97-4.94s4.94,2.21,4.94,4.94-2.21,4.97-4.94,4.97-4.97-2.24-4.97-4.97Zm1.26,0c0,2.03,1.65,3.71,3.71,3.71s3.67-1.68,3.67-3.71-1.64-3.67-3.67-3.67-3.71,1.64-3.71,3.67Z"/>
    </g>
  </g>
</svg>