<?xml version="1.0" encoding="UTF-8"?>
<svg id="_圖層_2" data-name="圖層 2" xmlns="http://www.w3.org/2000/svg" viewBox="0 0 610.62 171.99">
  <defs>
    <style>
      .cls-1 {
        fill: #e50012;
      }

      .cls-2 {
        fill: #231815;
      }
    </style>
  </defs>
  <g id="_圖層_1-2" data-name="圖層 1">
    <g>
      <path class="cls-2" d="M146.07,21.18l-.3-19.44,3.51,.3c-.03,.42-.27,.69-1.05,.81l.27,17.55c2.43-.78,5.16-1.68,7.86-2.64l.12,.42c-2.94,1.65-6.99,3.87-12.57,6.45-.09,.33-.36,.66-.66,.78l-1.47-3c.96-.24,2.49-.66,4.29-1.23ZM167.82,2.22c-.09,.45-.45,.78-1.17,.87-.27,6.3-.75,11.64-3.93,16.05,9.06,4.32,7.59,9.9,4.74,8.1-.9-2.28-3.24-5.16-5.34-7.35-2.52,3.15-6.57,5.79-13.08,7.95l-.3-.57c13.95-6.21,15.03-14.04,15.27-25.44l3.81,.39Zm-11.19,9.9c-.69-2.22-2.97-4.98-4.68-6.78l.3-.21c8.85,3.27,7.08,8.79,4.38,6.99Z"/>
      <path class="cls-2" d="M182.94,7.74c-.09,.33-.36,.48-.78,.48h-2.76v2.13c4.92,2.76,3.21,6.18,1.5,4.74-.15-1.14-.81-2.55-1.5-3.69v15.57c0,.27-.93,.84-1.74,.84h-.45V14.7c-.9,2.22-2.1,4.26-3.6,6.09l-.42-.36c1.89-3.45,2.97-7.83,3.6-12.21h-2.97l-.24-.87h3.63V.09l3.27,.33c-.06,.45-.3,.72-1.08,.84V7.35l1.26-1.74s1.41,1.26,2.28,2.13Zm18.39,8.64c-.09,.33-.36,.48-.78,.48h-7.17c.33,1.71,.81,3.18,1.44,4.44,.9-1.11,1.68-2.31,2.34-3.69l2.67,1.62c-.18,.3-.48,.42-1.11,.24-.81,1.32-1.77,2.49-2.82,3.48,.66,.81,1.47,1.44,2.4,1.89,.51,.3,.66,.24,.9-.27,.36-.81,.84-2.28,1.23-3.57l.36,.03-.39,4.47c.87,.93,.96,1.32,.78,1.74-.57,1.08-2.28,.51-3.66-.21-1.32-.63-2.4-1.53-3.27-2.67-2.1,1.56-4.5,2.61-7.02,3.24l-.21-.45c2.25-.96,4.44-2.34,6.3-4.2-.93-1.68-1.56-3.72-2.01-6.09h-3.45c-.06,.75-.15,1.53-.3,2.31,5.01,1.32,3.45,4.98,1.41,3.66-.21-.87-.87-1.86-1.62-2.64-.69,2.73-2.25,5.37-5.79,7.47l-.39-.45c3.63-3.18,4.14-6.99,4.26-10.35h-2.91l-.24-.9h8.88c-.45-2.85-.63-6.12-.72-9.75-.18,.18-.48,.27-.93,.21-1.11,1.68-3.06,3.99-4.86,5.67l3.63-.33c-.21-.78-.51-1.53-.81-2.1l.39-.15c4.11,2.7,2.16,5.82,.69,4.32,0-.45-.03-.93-.12-1.41-1.02,.39-2.49,.96-3.9,1.47-.15,.3-.36,.51-.54,.6l-1.23-2.37s.48-.15,.69-.24c.99-.9,2.1-2.55,3-4.17l-2.01,.78c-.15,.36-.36,.6-.6,.69l-1.26-2.49s.48-.12,.66-.24c1.17-1.14,2.55-4.26,3.03-5.79l2.85,1.29c-.15,.27-.48,.51-1.11,.45-.87,1.38-2.34,3.12-3.69,4.41l2.7-.18c.39-.75,.75-1.47,.96-2.04l2.46,1.35-.03-5.64,3.3,.39c-.03,.39-.33,.72-1.08,.84-.09,5.52-.06,10.47,.6,14.43h4.41l1.29-1.56s1.47,1.11,2.4,1.98Zm-2.19-3.09c0-.54-.09-1.11-.27-1.71-.96,.36-2.43,.9-3.84,1.35l-.09,.18,.27-.18c3.93,.9,2.34,3.69,.87,2.58-.09-.84-.66-1.8-1.17-2.34-.18,.27-.36,.45-.54,.54l-1.17-2.43s.48-.12,.66-.21c.84-.78,1.8-2.16,2.61-3.54l-1.8,.69c-.18,.42-.39,.66-.63,.78l-1.17-2.37s.42-.15,.57-.24c1.02-1.11,2.13-4.14,2.49-5.64l2.91,1.29c-.12,.27-.45,.54-1.05,.48-.78,1.23-1.95,2.79-3.06,3.99l2.34-.15c.42-.78,.75-1.53,.99-2.1l2.61,1.65c-.15,.24-.54,.42-1.11,.3-1.05,1.53-2.79,3.54-4.41,5.01l3.51-.3c-.24-.6-.54-1.17-.84-1.62l.39-.18c4.41,2.37,2.46,5.7,.93,4.17Z"/>
      <path class="cls-2" d="M208.62,18.18V9.21h-3.24l-.24-.87h3.48V.54l3.42,.36c-.06,.42-.3,.72-1.08,.81v6.63h.39l1.38-2.04s1.5,1.44,2.4,2.43c-.09,.33-.39,.48-.81,.48h-3.36v8.01l4.08-1.65,.15,.33c-1.89,1.38-4.65,3.42-8.37,5.79-.06,.36-.3,.72-.6,.84l-1.47-2.91c.81-.27,2.19-.78,3.87-1.44Zm20.01-5.1l1.56-1.92s1.74,1.32,2.82,2.31c-.09,.33-.36,.48-.81,.48h-11.61c-.45,.84-.96,1.65-1.53,2.4h9.9l1.32-1.29,2.46,2.04c-.21,.24-.6,.36-1.2,.45-.42,5.31-1.29,8.34-2.67,9.36-.81,.66-1.89,.93-3.09,.93,0-.66-.09-1.26-.48-1.62-.39-.36-1.26-.63-2.22-.78v-.48c1.02,.06,2.67,.21,3.27,.21,.51,0,.75-.06,1.05-.3,.72-.63,1.44-3.24,1.83-7.65h-1.92c-1.65,4.65-4.83,8.13-9.84,10.59l-.3-.45c3.84-2.55,6.33-6.06,7.62-10.14h-1.98c-2.1,3.87-5.61,6.9-10.14,8.97l-.33-.45c3.57-2.16,6.33-5.16,8.07-8.52h-2.1c-1.77,2.01-4.11,3.63-6.9,4.92l-.33-.45c3-1.98,5.31-4.77,6.72-7.74h-4.35l-.24-.87h15.42ZM216.57,.69l2.46,1.05h7.65l1.26-1.35,2.67,2.04c-.21,.21-.66,.48-1.26,.6v7.77c-.03,.21-1.17,.81-1.98,.81h-.39v-1.23h-8.1v.87c0,.21-1.02,.75-1.98,.75h-.33V.69Zm10.41,4.89V2.61h-8.1v2.97h8.1Zm-8.1,3.93h8.1v-3.06h-8.1v3.06Z"/>
      <path class="cls-2" d="M252.9,.99c-.12,.39-.39,.57-1.23,.54-.51,1.68-1.17,3.42-1.95,5.16h5.43l.99-1.08,2.22,1.83c-.21,.21-.48,.3-.99,.33l-.84,3.9h1.35l.99-1.11,2.19,1.83c-.24,.21-.48,.27-.96,.33l-.72,4.02h1.47l1.26-1.29,2.46,2.04c-.21,.21-.6,.36-1.2,.42-.45,4.92-1.44,7.98-2.85,9.03-.84,.63-1.95,.93-3.21,.93,0-.63-.12-1.26-.51-1.59-.42-.36-1.41-.66-2.49-.81v-.51c1.11,.12,3.03,.24,3.63,.24,.54,0,.81-.06,1.14-.27,.78-.63,1.56-3.33,1.98-7.32h-18.6c-1.71,1.71-3.63,3.3-5.85,4.62l-.33-.33c4.8-3.72,8.28-9,10.59-14.34h-8.31l-.24-.87h8.91c.93-2.28,1.62-4.53,2.13-6.69l3.54,.99Zm-10.62,18.81c1.08,3.57-.3,5.85-1.62,6.66-.9,.54-2.04,.51-2.37-.27-.3-.72,.15-1.35,.87-1.74,1.32-.69,2.67-2.49,2.67-4.62l.45-.03Zm1.35-14.46c-.27-1.62-1.56-3.6-2.7-4.8l.33-.18c6.75,1.92,4.71,6.72,2.37,4.98Zm14.37,7.17h-11.46c-.96,1.47-2.04,2.88-3.27,4.23h13.98l.75-4.23Zm-12.54,12.81c.36-1.77,.12-4.02-.27-5.55l.39-.12c4.44,3.9,1.56,7.89-.12,5.67Zm9.75-17.76h-5.88c-.66,1.38-1.41,2.76-2.25,4.11h7.2l.93-4.11Zm-4.35,16.59c-.06-1.56-.93-3.42-1.83-4.62l.36-.18c5.7,2.31,3.48,6.54,1.47,4.8Zm5.16-1.5c-.36-1.23-1.65-2.73-2.73-3.57l.27-.24c6,.87,4.59,5.07,2.46,3.81Z"/>
      <path class="cls-2" d="M269.64,.87l2.49,1.17h19.32l1.26-1.44,2.67,2.1c-.21,.24-.69,.48-1.29,.63V26.73c-.03,.21-1.14,.84-1.98,.84h-.36v-1.65h-19.83v1.02c0,.33-.87,.9-1.89,.9h-.39V.87Zm22.11,2.01h-19.83V25.05h19.83V2.88Zm-9.9,18.63c-.21,.27-.66,.36-1.38,.21-1.65,.99-4.53,2.1-7.29,2.61l-.21-.48c2.43-.9,5.01-2.64,6.27-3.96l2.61,1.62Zm-6.69-12.03l2.28,.99h8.73l1.08-1.14,2.31,1.74c-.15,.21-.54,.42-.99,.51v8.4c-.03,.18-1.11,.66-1.8,.66h-.36v-.96h-9.12v.54c0,.21-.93,.69-1.8,.69h-.33V9.48Zm1.08-5.58l2.25,.93h6.6l1.08-1.11,2.31,1.74c-.15,.18-.54,.42-.99,.48v2.91c-.03,.18-1.11,.63-1.8,.63h-.33v-.9h-7.02v.45c0,.18-.96,.66-1.8,.66h-.3V3.9Zm10.17,7.44h-9.12v1.86h9.12v-1.86Zm-9.12,2.76v1.89h9.12v-1.89h-9.12Zm0,2.76v1.95h9.12v-1.95h-9.12Zm8.07-11.16h-7.02v2.04h7.02v-2.04Zm2.91,18.21c-1.02-1.05-2.85-2.13-5.49-2.91l.15-.51c10.77,.81,7.29,5.07,5.34,3.42Z"/>
      <path class="cls-2" d="M302.73,20.04c-.78,1.2-2.13,1.65-2.82,.99-.57-.57-.36-1.44,.18-2.13,1.59-1.56,3.03-5.49,2.97-9.6h.51c1.53,5.28,.36,9-.84,10.74Zm6.84-13.32V23.07c0,.78,.33,1.05,1.89,1.05h4.08c1.77,0,3.09-.03,3.69-.12,.51-.03,.69-.15,.87-.48,.3-.63,.78-2.58,1.29-4.98h.36l.09,5.19c.84,.3,1.08,.57,1.08,1.08,0,1.23-1.32,1.68-7.5,1.68h-4.23c-3.09,0-4.02-.54-4.02-2.79V5.55l3.42,.39c-.03,.39-.3,.69-1.02,.78Zm6.15,1.92c-.6-2.58-2.82-5.88-4.62-7.98l.33-.21c8.94,4.26,7.05,10.26,4.29,8.19Zm9.21,11.67c-.42-2.73-1.44-7.26-4.02-10.26l.3-.27c8.82,6.09,6,13.17,3.72,10.53Z"/>
      <path class="cls-2" d="M332.88,4.59l2.61,1.17h5.76c.69-1.71,1.41-3.93,1.86-5.55l3.87,.96c-.15,.36-.48,.6-1.14,.6-.87,1.17-2.1,2.7-3.36,3.99h11.85l1.2-1.41,2.76,2.13c-.18,.21-.69,.48-1.29,.6V24.54c0,1.83-.39,2.94-3.75,3.27-.12-.75-.33-1.35-.81-1.74-.51-.39-1.38-.69-2.94-.9v-.48s3.57,.27,4.38,.27c.57,0,.75-.21,.75-.69V6.63h-19.38V26.91c0,.3-.96,.9-1.98,.9h-.39V4.59Zm6.45,5.49l2.37,1.05h6.09l1.2-1.32,2.64,1.98c-.21,.24-.66,.51-1.26,.63v8.58c-.03,.21-1.17,.75-1.95,.75h-.33v-2.43h-6.51v2.49c0,.24-.99,.75-1.89,.75h-.36V10.08Zm8.76,8.34v-6.42h-6.51v6.42h6.51Z"/>
      <path class="cls-2" d="M371.25,1.74c-.33,1.32-.72,2.55-1.14,3.75h4.59l1.44-1.47,2.55,2.34c-.24,.3-.54,.36-1.23,.42-1.44,8.76-4.56,16.77-14.64,21.03l-.3-.39c7.89-4.53,11.19-12.3,12.39-21.03h-5.13c-.63,1.59-1.32,3.06-2.1,4.38,7.08,2.1,5.13,6.96,2.73,5.22-.39-1.56-1.74-3.36-3.09-4.62-1.26,2.04-2.73,3.78-4.41,5.16l-.42-.3c2.91-3.78,5.28-9.6,6.24-15.99l3.66,.87c-.12,.39-.45,.66-1.14,.63Zm11.64-.03V9.81c9.6,3,8.19,8.85,5.31,7.11-.84-2.1-3.24-4.62-5.31-6.36V27.09c0,.3-1.02,.84-1.95,.84h-.48V.48l3.54,.39c-.09,.42-.33,.72-1.11,.84Z"/>
      <path class="cls-2" d="M395.25,6.87l2.16,.96h1.77v-2.61h-4.71l-.24-.84h4.95V.18l3.24,.3c-.06,.39-.3,.66-.99,.78v3.12h1.56l1.44-1.83s1.59,1.26,2.58,2.19c-.06,.33-.39,.48-.81,.48h-4.77v2.61h1.62l1.11-1.2,2.34,1.8c-.18,.21-.63,.45-1.14,.57v8.91c-.03,.24-1.02,.78-1.74,.78h-.3v-1.47h-1.89v3.63h1.53l1.41-1.8s1.47,1.11,2.46,2.04v-7.26l2.61,1.05h8.7l1.14-1.35,2.49,1.86c-.21,.27-.54,.45-1.17,.54v10.95c0,.15-.84,.66-1.98,.66h-.39v-1.53h-9.15v1.17c0,.15-.69,.66-1.89,.66h-.36v-6.33c-.12,.15-.33,.21-.57,.21h-4.83v5.43c0,.15-.75,.69-1.86,.69h-.39v-6.12h-4.95l-.24-.87h5.19v-3.63h-1.92v1.11c0,.18-.87,.66-1.68,.66h-.33V6.87Zm4.08,1.83h-2.07v3.36h2.07v-3.36Zm-2.07,4.23v3.45h2.07v-3.45h-2.07Zm6.06-.87v-3.36h-2.04v3.36h2.04Zm-2.04,4.32h2.04v-3.45h-2.04v3.45Zm16.11-13.86l1.53-1.92s1.71,1.35,2.79,2.31c-.09,.33-.39,.48-.81,.48h-14.01l-.24-.87h10.74Zm-9.33,2.43l2.61,1.05h6.24l1.11-1.32,2.4,1.83c-.18,.24-.45,.39-1.08,.48v5.73c0,.15-.84,.6-1.95,.6h-.39v-1.44h-6.66v1.08c0,.18-.72,.66-1.92,.66h-.36V4.95Zm4.53,15.06v-4.26h-3.51v4.26h3.51Zm-3.51,5.1h3.51v-4.26h-3.51v4.26Zm7.92-14.1V6.87h-6.66v4.14h6.66Zm1.23,4.74h-3.6v4.26h3.6v-4.26Zm-3.6,5.1v4.26h3.6v-4.26h-3.6Z"/>
      <path class="cls-2" d="M435.36,.75c-.09,.45-.48,.72-1.11,.75-.48,.78-1.26,1.86-1.83,2.67h3.3l1.11-1.38,2.67,2.07c-.21,.21-.69,.48-1.29,.6v7.41l2.04,1.02c-.18,.3-.45,.45-1.17,.33l-.87,1.32v9.24c0,1.71-.36,2.79-3.3,3.09-.09-.69-.27-1.29-.66-1.65-.45-.36-1.17-.63-2.49-.81v-.48s2.91,.24,3.54,.24c.57,0,.72-.18,.72-.66v-6.21c-2.67,3.03-6.27,6-10.44,7.95l-.27-.36c3.69-2.37,6.96-5.79,9.33-9.21-1.95,.57-4.38,1.23-7.41,2.01-.15,.36-.51,.57-.81,.63l-.96-2.91,2.58-.15V3.12l2.52,1.05h.6c.18-1.11,.39-2.79,.54-3.99l3.66,.57Zm-5.16,7.23h5.82v-2.94h-5.82v2.94Zm0,3.87h5.82v-3h-5.82v3Zm0,4.26l5.1-.42,.72-1.14v-1.83h-5.82v3.39ZM450.48,.9c-.06,.42-.36,.72-1.08,.81V7.98h.45l1.38-2.01s1.56,1.41,2.49,2.4c-.09,.33-.36,.48-.78,.48h-3.54v15.69c0,1.86-.39,3-3.63,3.33-.09-.81-.3-1.41-.72-1.8-.48-.39-1.29-.66-2.73-.9v-.45s3.27,.24,3.96,.24c.54,0,.72-.15,.72-.63V8.85h-7.86l-.24-.87h8.1V.51l3.48,.39Zm-8.13,17.19c.12-2.16-.93-4.8-1.92-6.57l.36-.18c6.36,3.84,3.75,9,1.56,6.75Z"/>
      <path class="cls-2" d="M460.41,16.92c1.86-.93,2.94-1.8,3.42-3.45-1.86-.87-2.49-1.68-2.49-2.64,0-1.11,.81-1.98,2.04-1.98,.69,0,1.23,.15,1.74,.63,.3,.69,.39,1.14,.39,1.92,0,3.24-1.83,5.28-4.71,6.36l-.39-.84Z"/>
      <path class="cls-2" d="M19.89,57.3c-1.32,1.53-2.76,2.82-4.26,3.84l-.42-.33c2.73-2.88,5.46-7.68,6.99-12.75l3.54,1.29c-.15,.36-.54,.6-1.2,.54-.45,1.02-.93,1.98-1.44,2.88h14.07l1.41-1.41,2.58,2.16c-.24,.24-.6,.42-1.23,.51-.24,8.94-.81,13.2-2.22,14.58-.84,.87-2.01,1.23-3.3,1.2,0-.75-.06-1.38-.45-1.77-.39-.36-1.32-.66-2.34-.87l.03-.48c1.02,.12,2.67,.24,3.21,.24,.51,0,.78-.09,1.05-.36,.87-.84,1.35-5.13,1.56-12.9h-14.91c-.63,1.05-1.32,2.01-2.04,2.91l2.13,.87h6.66l1.26-1.35,2.7,2.07c-.21,.24-.66,.45-1.29,.6v7.02c-.03,.24-1.2,.75-1.98,.75h-.39v-1.71h-7.35v7.08c0,.96,.45,1.29,2.94,1.29h6.87c3,0,5.22-.06,6.21-.15,.69-.06,.93-.24,1.17-.6,.39-.75,.84-2.22,1.5-4.89h.33l.06,5.07c1.02,.3,1.38,.57,1.38,1.05,0,1.41-1.62,1.74-10.77,1.74h-6.66c-4.08,0-5.4-.48-5.4-3.06v-15.06Zm9.72,1.02h-7.35v5.64h7.35v-5.64Z"/>
      <path class="cls-2" d="M46.83,60.75l-.21-.42c5.04-2.73,10.98-8.49,12.51-12.48l4.05,.96c-.12,.36-.48,.54-1.29,.6,2.76,3.36,7.89,6.03,12.84,7.71l-.03,.45c-1.08,.24-1.86,1.17-2.07,2.1-4.74-2.22-9.15-5.79-11.28-9.9-2.88,4.05-8.85,8.64-14.52,10.98Zm5.34,15.06h-.39v-11.64l2.67,1.14h7.08c1.23-1.32,2.58-3.3,3.39-4.98h-12.3l-.27-.87h12.84l1.5-1.23,2.28,1.89c-.21,.27-.54,.36-1.2,.36-1.11,1.71-3,3.51-5.1,4.83h4.08l1.29-1.44,2.82,2.16c-.21,.24-.66,.48-1.29,.6v8.28c-.03,.21-1.29,.69-2.1,.69h-.42v-1.95h-12.81v1.35c0,.27-1.05,.81-2.07,.81Zm14.88-9.63h-12.81v6.57h12.81v-6.57Zm-.96-9.69c-.09,.33-.39,.48-.78,.48h-9.36l-.24-.87h6.33l1.44-1.68s1.59,1.17,2.61,2.07Z"/>
      <path class="cls-1" d="M88.14,50.37c-.12,.33-.48,.6-1.17,.6-.6,1.59-1.29,3.09-2.07,4.5h5.85v-7.2l3.66,.36c-.09,.42-.33,.72-1.08,.84v6h6.18l1.71-2.07s1.86,1.38,3.06,2.49c-.09,.33-.36,.45-.81,.45h-10.14v7.62h5.13l1.68-2.1s1.95,1.47,3.12,2.49c-.06,.33-.39,.48-.81,.48h-9.12v8.82h7.8l1.74-2.16s1.95,1.47,3.18,2.55c-.09,.33-.39,.48-.84,.48h-26.67l-.27-.87h12.48v-8.82h-8.79l-.24-.87h9.03v-7.62h-6.33c-1.71,2.88-3.72,5.31-5.97,7.08l-.39-.3c2.55-3.27,5.04-8.52,6.39-13.92l3.69,1.17Z"/>
      <path class="cls-1" d="M112.89,59.31c-.48-1.38-1.98-2.94-3.27-3.81l.27-.27c6.9,.63,5.46,5.49,3,4.08Zm-.63,7.47q.63-1.05,6.09-12.75l.54,.12c-1.29,3.63-3.78,10.38-4.23,11.82-.27,.93-.48,1.89-.45,2.64,.03,1.41,.96,2.67,.87,5.16-.06,1.35-.78,2.16-1.95,2.16-.57,0-1.02-.51-1.14-1.5,.45-3.09,.3-5.52-.39-5.94-.39-.3-.87-.39-1.5-.45v-.63h1.35c.39,0,.51-.03,.81-.63Zm2.97-13.74c-.48-1.47-2.07-3.18-3.39-4.14l.27-.24c7.11,.78,5.67,5.79,3.12,4.38Zm4.59,10.29l2.55,1.08h3.87v-5.88h-8.04l-.24-.87h8.28v-5.34c-2.52,.3-5.13,.54-7.62,.66l-.09-.51c5.22-.84,11.7-2.58,15.06-4.02l2.67,2.52c-.33,.24-.9,.27-1.71-.03-1.65,.36-3.66,.72-5.88,1.05v5.67h4.5l1.59-2.07s1.8,1.44,2.91,2.46c-.09,.33-.39,.48-.81,.48h-8.19v5.88h3.75l1.26-1.38,2.7,2.07c-.21,.24-.63,.51-1.26,.63v9.15c-.03,.21-1.2,.75-2.01,.75h-.39v-2.28h-10.53v1.62c0,.24-1.02,.81-2.01,.81h-.36v-12.45Zm12.9,1.95h-10.53v7.2h10.53v-7.2Z"/>
      <path class="cls-1" d="M148.95,49.5v6.21h.27l1.38-1.98s1.62,1.38,2.52,2.37c-.09,.33-.36,.48-.78,.48h-3.39v5.82l3.9-1.5,.12,.39-4.02,2.58v11.1c0,.33-.96,.87-1.83,.87h-.45v-10.56l-2.85,1.68c-.06,.39-.27,.69-.57,.81l-1.71-2.76c1.05-.3,2.91-.96,5.13-1.77v-6.66h-2.46c-.63,2.34-1.41,4.53-2.43,6.18l-.51-.21c.9-3.09,1.44-7.41,1.62-11.37l3.24,.54c-.09,.39-.39,.66-1.08,.72-.18,1.08-.39,2.19-.63,3.27h2.25v-7.41l3.36,.36c-.06,.42-.3,.72-1.08,.84Zm20.61,14.19c-.09,.33-.39,.48-.81,.48h-4.77v8.73c0,1.74-.45,2.79-3.75,3.06-.12-.66-.3-1.17-.81-1.53-.57-.36-1.41-.6-3.03-.84v-.42s3.75,.27,4.47,.27c.6,0,.78-.21,.78-.66v-8.61h-10.17l-.24-.87h10.41v-2.82l3.39,.33c-.06,.45-.36,.69-1.05,.78v1.71h1.53l1.44-1.86s1.59,1.29,2.61,2.25Zm-.63-10.26c-.06,.33-.36,.48-.78,.48h-7.11v4.53h3.12l1.44-1.86s1.62,1.29,2.64,2.25c-.06,.33-.36,.48-.78,.48h-14.19l-.24-.87h5.67v-4.53h-6.36l-.24-.87h6.6v-4.89l3.33,.33c-.06,.39-.3,.66-.99,.75v3.81h3.69l1.5-1.89s1.68,1.32,2.7,2.28Zm-12.96,17.37c-.42-1.65-1.92-3.72-3.09-5.01l.3-.21c6.9,2.28,5.07,6.81,2.79,5.22Z"/>
      <path class="cls-1" d="M198.96,50.58c-.09,.33-.36,.48-.78,.48h-21.3v20.16c0,1.32,.63,1.8,3.6,1.8h7.62c3.21,0,5.85-.06,6.78-.12,.57-.06,1.02-.12,1.41-.18,.33-.03,.84-.15,1.29-.33h.36l.18,.03c1.2,.24,1.5,.54,1.5,1.02,0,1.26-1.86,1.5-11.73,1.47h-7.17c-4.41,0-6.06-.54-6.09-3.39v-20.46h-1.14l-.27-.87h21.48l1.53-1.95s1.68,1.35,2.73,2.34Zm-19.53,21.15h-.3v-9.84l2.22,.96h3.21l1.08-1.11,2.28,1.74c-.15,.18-.54,.42-.99,.45v6.57c-.03,.21-1.08,.66-1.8,.66h-.33v-1.56h-3.6v1.44c0,.21-.9,.69-1.77,.69Zm5.37-8.01h-3.6v5.01h3.6v-5.01Zm-2.61-2.37h-.33v-9l2.46,1.05h6.93l1.2-1.26,2.55,1.92c-.18,.21-.6,.42-1.14,.54v5.67c-.03,.18-1.2,.66-1.95,.66h-.36v-1.29h-7.38v.99c0,.21-1.02,.72-1.98,.72Zm9.36-7.08h-7.38v4.5h7.38v-4.5Zm-2.01,17.04h-.33v-9.42l2.25,.96h3.21l1.11-1.17,2.4,1.83c-.18,.18-.6,.39-1.08,.48v6.39c-.03,.18-1.11,.66-1.8,.66h-.36v-1.44h-3.63v1.02c0,.21-.9,.69-1.77,.69Zm5.4-7.59h-3.63v5.01h3.63v-5.01Z"/>
      <path class="cls-1" d="M212.73,62.7c.42,.63,.69,1.44,.6,2.16-.06,.6-.45,1.14-1.17,1.14-.6,0-.99-.42-1.41-1.35-.93-1.89-2.34-3.72-4.59-5.55l.33-.45c3.03,.99,5.16,2.37,6.24,4.05Z"/>
      <path class="cls-1" d="M223.29,59.28c-.39-1.29-1.65-2.76-2.76-3.63l.27-.24c6.57,.75,4.86,5.4,2.49,3.87Zm-.3,7.2q.51-1.02,5.19-12.63l.54,.12c-1.08,3.57-3.12,10.23-3.48,11.7-.21,.93-.39,1.89-.39,2.61,.03,1.41,.99,2.73,.87,5.25-.06,1.35-.75,2.19-1.83,2.19-.57,0-1.02-.48-1.14-1.5,.45-3.06,.3-5.61-.36-6.03-.39-.3-.84-.39-1.44-.45v-.63h1.29c.36,0,.48,0,.75-.63Zm2.31-14.04c-.42-1.41-1.83-2.97-3-3.87l.27-.27c6.9,.93,5.16,5.67,2.73,4.14Zm19.44,2.28l.3-2.4h-13.11c.15,4.38-4.35,3.18-2.55,.93,.87-.48,1.56-1.59,1.74-3.15l.45,.03c.12,.48,.21,.93,.27,1.32h6.48c-.21-.03-.42-.15-.66-.33-.06-1.08-.81-2.4-1.59-3.12l.3-.21c4.35,.63,3.99,3.3,2.61,3.66h5.82l1.26-1.32,2.31,2.28c-.21,.21-.54,.24-1.11,.27-.51,.69-1.5,1.83-2.13,2.43l-.36-.15c-.06,.27-.33,.36-.69,.36h-4.86v3.12c1.8-.9,3.36-1.83,4.47-2.73l2.58,1.77c-.24,.3-.72,.36-1.5,.15-1.77,1.02-4.08,2.04-6.69,2.94h5.04l1.17-1.35,2.43,1.89c-.21,.24-.51,.39-1.14,.51v9.03c0,.15-.84,.63-1.98,.63h-.39v-.84h-9.66v.75c0,.18-.72,.66-1.92,.66h-.36v-9.42c-1.32,.27-2.67,.48-4.02,.66l-.18-.54c1.41-.27,2.82-.63,4.2-1.05v-1.83c-.99,.42-2.07,.78-3.12,1.02l-.21-.42c2.19-1.02,4.47-2.94,5.49-4.32l2.73,1.41c-.15,.33-.6,.42-1.35,.3-.81,.63-2.01,1.32-3.33,1.92l2.4,.99h.27c.99-.36,1.95-.72,2.85-1.11v-4.14h-5.04l-.24-.9h9.57l1.26-1.56s1.29,1.05,2.19,1.86Zm-7.65,18.15c-2.07,1.23-5.58,2.43-9.15,2.88l-.15-.48c3.18-.99,6.45-2.88,8.01-4.44l2.73,1.89c-.21,.27-.72,.33-1.44,.15Zm-3.54-9.21h9.66v-2.19h-8.04l-1.62,.42v1.77Zm9.66,2.97v-2.1h-9.66v2.1h9.66Zm0,2.94v-2.04h-9.66v2.04h9.66Zm2.28,5.67c-1.14-1.17-3.21-2.55-6.12-3.57l.15-.48c11.88,1.35,8.07,5.85,5.97,4.05Z"/>
      <path class="cls-1" d="M254.97,59.16c-.39-1.29-1.71-2.73-2.82-3.57l.27-.24c6.6,.63,4.95,5.25,2.55,3.81Zm-.27,7.44q.51-1.08,5.4-13.17l.54,.15c-1.14,3.72-3.27,10.62-3.63,12.15-.24,.93-.45,1.92-.42,2.67,.03,1.41,.99,2.73,.87,5.25-.06,1.35-.72,2.19-1.89,2.19-.57,0-1.02-.51-1.14-1.5,.48-3.06,.3-5.61-.36-6.03-.39-.3-.84-.39-1.47-.45v-.63h1.32c.36,0,.48-.03,.78-.63Zm2.55-14.01c-.42-1.41-1.89-3-3.09-3.9l.27-.27c6.99,.9,5.28,5.7,2.82,4.17Zm22.77,.03c-.06,.33-.39,.48-.81,.48h-14.1c-.39,.63-.78,1.29-1.2,1.92l2.31,1.11h8.04l1.32-1.41,2.49,2.1c-.21,.27-.6,.42-1.26,.48-.06,2.1-.12,3.99-.18,5.67h.42l1.26-1.95s1.47,1.38,2.28,2.34c-.06,.33-.36,.48-.78,.48h-3.24c-.12,2.55-.3,4.56-.54,6.18h.33l1.2-1.8s1.44,1.29,2.28,2.19c-.09,.33-.36,.48-.75,.48h-3.18c-.33,1.92-.78,3.09-1.35,3.72-.84,.96-2.04,1.26-3.36,1.26,0-.63-.06-1.17-.45-1.53-.39-.36-1.32-.63-2.34-.81v-.51c1.05,.09,2.7,.21,3.3,.21,.54,0,.81-.06,1.08-.36,.3-.3,.57-.96,.78-1.98h-9.96l-.99,1.17-2.46-1.68c.27-.24,.69-.48,1.11-.63,.33-1.56,.69-3.66,1.02-5.91h-3.42l-.24-.87h3.78c.36-2.52,.69-5.07,.87-7.08-1.05,1.38-2.25,2.64-3.54,3.63l-.36-.27c2.19-2.64,4.08-7.26,4.89-11.04l3.63,1.08c-.12,.33-.39,.45-1.11,.33-.33,.84-.72,1.71-1.2,2.58h10.17l1.5-1.98s1.71,1.38,2.76,2.4Zm-5.7,11.22h-9.75c-.33,2.22-.72,4.44-1.05,6.18h10.2c.27-1.5,.45-3.54,.6-6.18Zm.24-6.84h-9.06c-.18,1.65-.48,3.81-.81,5.97h9.69c.06-1.77,.15-3.75,.18-5.97Zm-5.28,11.76c-.3-1.32-1.5-3.06-2.49-4.05l.33-.24c5.79,1.92,4.05,5.7,2.16,4.29Zm.57-6.87c-.36-1.2-1.56-2.82-2.52-3.75l.33-.24c5.61,1.68,4.05,5.28,2.19,3.99Z"/>
      <path class="cls-1" d="M288.18,56.07h-4.02l-.27-.87h4.29l1.08-1.14,2.25,2.01c-.24,.24-.78,.39-1.38,.45-.69,1.5-1.89,3.9-2.79,5.61h2.04l1.29-1.29,2.25,2.01c-.21,.27-.51,.33-1.17,.39-.57,2.01-1.41,4.14-2.61,6.18,2.25,2.88,5.61,3.27,11.43,3.27,2.46,0,8.34,0,10.92-.06v.42c-.87,.15-1.32,.87-1.38,1.77h-9.63c-6.03,0-9.33-.87-11.67-4.83-1.23,1.95-2.79,3.75-4.71,5.25l-.36-.42c2.82-3.09,4.86-7.71,5.73-11.82h-2.37l-.87,.78-1.89-1.56c.27-.15,.72-.36,1.11-.48,.87-1.56,2.01-3.96,2.73-5.67Zm-.51-2.73c-.27-1.56-1.5-3.42-2.61-4.53l.3-.21c6.45,1.65,4.56,6.3,2.31,4.74Zm13.86,.24c.6-1.65,1.08-3.51,1.35-5.4l3.24,.84c-.12,.33-.48,.6-1.11,.6-.36,1.05-.75,2.04-1.23,2.94h3.66l1.38-1.74s1.56,1.23,2.52,2.13c-.09,.33-.36,.48-.78,.48h-7.26c-.78,1.32-1.65,2.43-2.67,3.27l-.45-.3c.42-.72,.84-1.56,1.2-2.46-.12,.12-.3,.18-.54,.18h-4.89c-.03,1.38-.09,2.73-.18,4.02h2.01l1.17-1.23,2.28,1.89c-.21,.24-.57,.39-1.17,.45-.15,7.02-.39,10.2-1.5,11.28-.57,.54-1.26,.72-2.1,.78,0-.42-.15-.99-.45-1.26s-1.02-.54-1.77-.66l.03-.51c.75,.06,1.92,.15,2.34,.15,.27,0,.39-.06,.54-.24,.51-.63,.75-3.6,.93-9.78h-2.37c-.39,4.68-1.47,8.73-4.44,12.06l-.33-.36c2.79-4.8,3.03-10.32,2.85-16.59h-2.28l-.24-.87h6.96l1.17-1.59s1.32,1.08,2.13,1.92Zm-6.09-1.2c-.15-1.35-.99-3-1.68-4.05l.33-.15c5.43,2.07,3.24,5.82,1.35,4.2Zm16.02,10.44c-.06,.33-.33,.48-.75,.48h-4.2v5.43c0,1.68-.3,2.58-2.79,2.85-.06-.63-.12-1.14-.45-1.47-.33-.3-.87-.54-1.83-.69v-.45s2.1,.18,2.52,.18c.39,0,.51-.15,.51-.54v-5.31h-3.66l-.24-.87h3.9v-3.09l.93,.09c.48-.69,.99-1.59,1.38-2.34h-4.83l-.27-.87h5.16l1.2-1.26,2.22,2.07c-.24,.18-.6,.24-1.17,.27-.72,.66-1.74,1.53-2.76,2.25l1.23,.12c-.09,.42-.36,.66-1.05,.72v2.04h1.53l1.2-1.62s1.41,1.14,2.22,2.01Z"/>
      <path class="cls-1" d="M329.28,54.96c-.09,.33-.39,.48-.78,.48h-5.28v3.24h1.53l1.14-1.23,2.52,1.89c-.18,.21-.6,.42-1.14,.54v5.31c-.03,.21-1.14,.66-1.86,.66h-.36v-1.23h-5.94v1.38c0,.21-.96,.72-1.89,.72h-.33v-9.06l2.37,1.02h1.71v-3.24h-5.4l-.24-.9h5.64v-3.54h-4.38l-.24-.9h7.95l1.41-1.71s1.59,1.2,2.58,2.13c-.09,.33-.39,.48-.78,.48h-4.29v3.54h2.07l1.38-1.71s1.62,1.2,2.61,2.13Zm-11.34,19.11c-.81,.54-1.92,.57-2.28-.18-.27-.69,.18-1.35,.87-1.74,1.23-.66,2.61-2.43,2.73-4.53l.48,.03c.84,3.39-.54,5.61-1.8,6.42Zm1.17-14.52v4.2h5.94v-4.2h-5.94Zm5.67,8.4v4.65c0,.42,.15,.54,1.5,.54h4.14c1.74,0,3.15,0,3.69-.06,.45,0,.6-.09,.78-.39,.3-.45,.63-1.59,1.08-3.15h.36l.06,3.27c.84,.27,1.05,.51,1.05,.96,0,1.11-1.14,1.32-7.2,1.32h-4.26c-3,0-3.6-.42-3.6-2.16v-6.03l3.3,.33c-.03,.36-.33,.63-.9,.72Zm5.73,2.94c-.39-1.41-1.86-3.15-3.06-4.14l.3-.24c6.54,1.47,4.92,5.82,2.76,4.38Zm.15-4.71h-.36v-15.54l2.43,1.08h1.26c.21-1.11,.48-2.73,.63-3.84l3.81,.66c-.12,.45-.51,.69-1.14,.69-.57,.72-1.44,1.71-2.16,2.49h3.45l1.2-1.32,2.55,2.01c-.15,.21-.63,.42-1.17,.54v12.21c-.03,.21-1.17,.72-1.95,.72h-.36v-1.56h-6.27v1.05c0,.27-.93,.81-1.92,.81Zm1.92-13.56v2.82h6.27v-2.82h-6.27Zm6.27,6.78v-3.09h-6.27v3.09h6.27Zm0,4.02v-3.15h-6.27v3.15h6.27Zm1.77,9.81c-.42-1.95-2.22-4.26-3.78-5.58l.3-.24c7.56,2.13,5.94,7.44,3.48,5.82Z"/>
      <path class="cls-1" d="M372.96,50.58c-.09,.33-.36,.48-.78,.48h-21.3v20.16c0,1.32,.63,1.8,3.6,1.8h7.62c3.21,0,5.85-.06,6.78-.12,.57-.06,1.02-.12,1.41-.18,.33-.03,.84-.15,1.29-.33h.36l.18,.03c1.2,.24,1.5,.54,1.5,1.02,0,1.26-1.86,1.5-11.73,1.47h-7.17c-4.41,0-6.06-.54-6.09-3.39v-20.46h-1.14l-.27-.87h21.48l1.53-1.95s1.68,1.35,2.73,2.34Zm-19.53,21.15h-.3v-9.84l2.22,.96h3.21l1.08-1.11,2.28,1.74c-.15,.18-.54,.42-.99,.45v6.57c-.03,.21-1.08,.66-1.8,.66h-.33v-1.56h-3.6v1.44c0,.21-.9,.69-1.77,.69Zm5.37-8.01h-3.6v5.01h3.6v-5.01Zm-2.61-2.37h-.33v-9l2.46,1.05h6.93l1.2-1.26,2.55,1.92c-.18,.21-.6,.42-1.14,.54v5.67c-.03,.18-1.2,.66-1.95,.66h-.36v-1.29h-7.38v.99c0,.21-1.02,.72-1.98,.72Zm9.36-7.08h-7.38v4.5h7.38v-4.5Zm-2.01,17.04h-.33v-9.42l2.25,.96h3.21l1.11-1.17,2.4,1.83c-.18,.18-.6,.39-1.08,.48v6.39c-.03,.18-1.11,.66-1.8,.66h-.36v-1.44h-3.63v1.02c0,.21-.9,.69-1.77,.69Zm5.4-7.59h-3.63v5.01h3.63v-5.01Z"/>
      <path class="cls-1" d="M386.73,62.7c.42,.63,.69,1.44,.6,2.16-.06,.6-.45,1.14-1.17,1.14-.6,0-.99-.42-1.41-1.35-.93-1.89-2.34-3.72-4.59-5.55l.33-.45c3.03,.99,5.16,2.37,6.24,4.05Z"/>
      <path class="cls-1" d="M397.17,74.31c-.57,.75-1.8,1.02-2.28,.3-.39-.63-.09-1.35,.51-1.89,.87-.93,1.74-3.27,1.59-5.34h.54c.93,3.27,.45,5.76-.36,6.93Zm6.69-8.22c0-.6-.12-1.26-.27-1.95-1.71,.54-4.11,1.26-6.69,1.95-.21,.33-.48,.54-.78,.63l-1.02-2.88s.63-.15,.87-.33c1.35-1.2,2.97-3.3,4.38-5.43l-3.39,.96c-.21,.33-.45,.54-.69,.63l-1.17-2.91s.57-.12,.78-.3c1.56-1.68,3.57-5.94,4.23-8.25l3.15,1.59c-.12,.27-.48,.48-1.05,.42-1.23,2.04-3.36,4.83-5.31,6.69h4.2c.9-1.47,1.65-2.85,2.1-3.93l2.88,2.04c-.18,.24-.6,.42-1.17,.27-1.62,2.49-4.8,6.12-7.68,8.55l6.15-.42c-.33-1.11-.81-2.19-1.26-3.03l.39-.18c5.16,3.54,3.15,7.62,1.35,5.88Zm-4.08,7.14c.36-1.95,.18-4.41-.15-6.12l.42-.09c3.9,4.23,1.35,8.28-.27,6.21Zm4.47-1.47c-.09-1.71-1.05-3.87-1.95-5.22l.36-.18c5.4,2.97,3.45,7.08,1.59,5.4Zm18.69,1.8c-.09,.33-.39,.48-.81,.48h-17.13l-.24-.9h7.41v-7.14h-5.34l-.24-.87h10.95l1.35-1.68s1.5,1.17,2.46,2.07c-.09,.33-.36,.48-.78,.48h-5.97v7.14h3.99l1.53-1.98s1.74,1.41,2.82,2.4Zm-.84-22.89c-.06,.33-.36,.48-.78,.48h-15.51l-.24-.87h12.36l1.47-1.86s1.68,1.29,2.7,2.25Zm-11.55,2.7c-.78,.87-2.88,3.03-4.17,4.26,6.57,3.33,4.11,7.29,2.25,5.82-.27-1.5-1.35-4.05-3.06-5.76,.93-1.62,2.49-4.62,2.91-5.7l2.97,1.05c-.12,.27-.39,.42-.9,.33Zm4.71,.15c-.78,.84-2.88,2.91-4.2,4.05,6.72,3.09,4.32,7.05,2.43,5.64-.33-1.5-1.5-3.96-3.21-5.55,.9-1.56,2.46-4.47,2.91-5.52l2.97,1.08c-.12,.24-.39,.42-.9,.3Zm4.98,.12c-.81,.78-3,2.73-4.35,3.81,7.02,2.88,4.71,6.84,2.73,5.49-.39-1.5-1.71-3.87-3.54-5.4,.93-1.5,2.61-4.29,3.09-5.34l2.94,1.11c-.09,.24-.39,.42-.87,.33Z"/>
      <path class="cls-1" d="M438.15,72.93c-2.67,1.26-7.17,2.46-11.31,2.94l-.15-.48c3.75-1.05,8.01-3.09,10.08-4.68l2.94,2.1c-.24,.3-.75,.36-1.56,.12Zm-.93-15.24c-.15-.57-.45-1.2-.81-1.8-1.2,.63-2.82,1.5-4.65,2.43l2.4,1.05h12.63l1.02-1.08c0-.57-.12-1.08-.42-1.41-.33-.3-1.08-.54-1.92-.66l.03-.51c.81,.09,2.22,.18,2.73,.18,.42,0,.66-.03,.84-.21,.42-.39,.69-1.89,.87-4.65h-3.96c-.42,3-1.71,5.94-7.29,8.01l-.36-.45c4.14-2.31,4.95-4.98,5.13-7.56h-3.75l-.27-.87h10.26l1.2-1.23,2.4,1.95c-.21,.21-.54,.36-1.11,.42-.21,3.78-.66,5.64-1.71,6.39-.51,.39-1.23,.6-2.04,.69l2.19,1.65c-.18,.21-.6,.45-1.14,.54v10.2c-.03,.18-1.23,.72-2.01,.72h-.39v-1.2h-13.11v.9c0,.24-1.02,.78-2.01,.78h-.36v-13.56l-2.04,.99c-.18,.3-.42,.51-.66,.6l-1.11-2.34c.99-.48,1.11-.69,1.11-1.17v-6.63l2.7,.9c2.13-.78,4.41-1.83,5.58-2.55l2.1,2.1c-.18,.21-.51,.18-.93-.03-1.53,.42-4.5,1.05-7.2,1.35v5.19l4.89-1.47c-.69-.96-1.53-1.86-2.28-2.49l.33-.24c6.9,1.74,5.43,6.48,3.12,5.07Zm-3.24,2.55v2.49h13.11v-2.49h-13.11Zm13.11,5.82v-2.46h-13.11v2.46h13.11Zm0,3.36v-2.49h-13.11v2.49h13.11Zm3.18,6.03c-1.65-1.23-4.56-2.61-8.46-3.6l.09-.48c15.18,.87,10.98,5.85,8.37,4.08Z"/>
      <path class="cls-1" d="M470.73,57.3v2.4h5.01v-3.39l3.21,.33c-.03,.36-.27,.63-.93,.72v2.34h1.59l1.41-1.86s1.62,1.29,2.61,2.25c-.06,.33-.36,.48-.75,.48h-4.86v4.05h3.12l1.53-2.01s1.74,1.41,2.79,2.4c-.09,.33-.39,.48-.81,.48h-11.25c.78,1.77,1.95,3.21,3.39,4.35,1.47-1.29,3.21-2.97,4.11-3.99l2.73,1.95c-.21,.27-.48,.36-1.11,.18-1.29,.66-3.24,1.59-5.04,2.34,2.22,1.53,5.04,2.49,8.28,3.03l-.06,.36c-1.02,.21-1.74,.99-2.04,2.16-5.64-1.74-9.18-4.68-10.92-10.38h-3.51v7.2c1.44-.45,3.21-.99,4.98-1.59l.12,.42c-1.23,.78-3.6,2.31-6.18,3.81-.18,.3-.39,.54-.6,.66l-1.71-2.7c.93-.57,1.08-.81,1.08-1.29v-6.51h-3.75l-.06-.18c-.66,3.72-2.13,7.5-5.16,10.5l-.42-.3c3.36-5.46,3.75-12.15,3.75-18.27v-8.43l2.85,1.17h16.29l1.23-1.35,2.7,2.04c-.21,.24-.69,.48-1.29,.6v4.95c-.03,.18-1.2,.63-1.98,.63h-.36v-1.11h-17.01v1.47c0,2.25-.06,4.8-.48,7.41h5.19v-4.05h-4.2l-.24-.87h4.44v-3.42l3.24,.3c-.06,.39-.3,.63-.93,.72Zm9.99-2.43v-4.02h-17.01v4.02h17.01Zm-4.98,5.7h-5.01v4.05h5.01v-4.05Z"/>
      <path class="cls-1" d="M494.97,71.43h-.36v-11.25l2.52,1.08h12.21l1.2-1.29,2.58,1.95c-.18,.21-.6,.45-1.14,.54v8.04c-.03,.21-1.2,.72-1.98,.72h-.36v-1.08h-2.55v2.76c0,.36,.12,.42,1.11,.42h2.88c1.17,0,2.22,0,2.64-.03,.33-.03,.45-.09,.6-.33,.27-.42,.6-1.5,.96-2.85h.36l.09,2.91c.69,.27,.87,.51,.87,.93,0,.9-.87,1.17-5.67,1.17h-3.21c-2.55,0-2.97-.39-2.97-1.95v-3.03h-2.46c-1.44,4.05-5.88,5.31-12.36,5.7l-.12-.48c5.43-.81,8.61-2.13,9.72-5.22h-2.58v.51c0,.24-1.02,.78-1.98,.78Zm8.16-20.97c-.09,.33-.39,.48-.78,.48h-4.17v2.04h1.29l1.05-1.08,2.28,1.71c-.18,.18-.57,.39-1.05,.48v2.52c-.03,.21-1.05,.63-1.71,.63h-.33v-.51h-1.53v2.16h1.56l1.23-1.47s1.41,1.05,2.31,1.86c-.09,.33-.36,.48-.78,.48h-8.7l-.78,1.2-2.43-1.56c.21-.24,.54-.48,.87-.69v-9.93l2.25,1.29h5.85l1.26-1.56s1.41,1.11,2.31,1.95Zm-9.54,2.52h2.64v-2.04h-2.64v2.04Zm6.12,2.88v-1.98h-6.12v1.98h6.12Zm-6.12,3.03h2.64v-2.16h-2.64v2.16Zm3.36,3.24v1.8h12.69v-1.8h-12.69Zm0,4.44h12.69v-1.74h-12.69v1.74Zm0,2.67h12.69v-1.8h-12.69v1.8Zm19.59-17.88c-.09,.33-.36,.48-.75,.48h-9.42c-1.08,1.32-2.37,2.4-3.66,3.12l-.42-.33c1.38-1.5,2.73-3.96,3.54-6.6l3.12,1.2c-.12,.3-.48,.54-1.11,.48-.24,.45-.51,.87-.81,1.26h5.76l1.32-1.62s1.5,1.14,2.43,2.01Zm-12.51,9.06h-.27v-6.03l1.95,.87h7.17l1.02-1.05,2.22,1.68c-.15,.18-.57,.39-1.05,.48v3.39c-.03,.18-.99,.6-1.62,.6h-.3v-.78h-7.59v.3c0,.15-.81,.54-1.53,.54Zm10.14-6.81c-.09,.33-.33,.48-.75,.48h-7.74l-.24-.9h5.73l1.02-1.23s1.23,.93,1.98,1.65Zm-7.02,2.52h-1.59v2.55h1.59v-2.55Zm3.09,0h-1.71v2.55h1.71v-2.55Zm2.91,2.55v-2.55h-1.53v2.55h1.53Z"/>
      <path class="cls-1" d="M523.14,75.84h-.42v-27.18l2.61,1.2h18.69l1.32-1.44,2.7,2.16c-.21,.27-.69,.45-1.29,.6v23.58c-.03,.21-1.17,.84-2.04,.84h-.39v-1.95h-19.23v1.23c0,.36-.87,.96-1.95,.96Zm1.95-25.08v22.02h19.23v-22.02h-19.23Zm3.42,14.61h-.3v-6.6l2.25,.99h8.13l1.05-1.11,2.25,1.71c-.12,.18-.51,.39-.93,.45v3.48l1.86,1.74c-.15,.21-.42,.24-.93,.03-.69,.36-1.71,.84-2.67,1.29,4.74,2.4,3.45,5.04,1.71,4.14-.99-1.41-3.66-3.69-6.99-5.43l.21-.48c1.71,.42,3.09,.87,4.2,1.35,.75-.72,1.56-1.62,2.19-2.37-.36,.18-.93,.36-1.35,.36h-.36v-.63h-3.99c-.81,.78-1.77,1.5-2.85,2.13v3.18l4.26-1.23,.15,.45c-1.14,.6-3.36,1.89-5.64,3.03-.12,.27-.3,.45-.45,.54l-1.38-1.8c.87-.6,1.02-.81,1.02-1.2v-1.92c-1.38,.6-2.85,1.11-4.38,1.53l-.3-.51c2.73-1.05,5.19-2.52,6.93-4.2h-1.89v.45c0,.18-.93,.63-1.8,.63Zm7.05-12.96v1.62h3.06l1.26-1.53s1.41,1.08,2.34,1.92c-.09,.33-.36,.48-.78,.48h-5.88v2.16h4.41l1.29-1.59s1.5,1.11,2.43,1.98c-.09,.33-.39,.48-.81,.48h-16.74l-.24-.87h7.47v-2.16h-5.82l-.24-.87h6.06v-2.61l3.06,.3c-.06,.36-.27,.6-.87,.69Zm-5.25,8.22v2.79h8.52v-2.79h-8.52Z"/>
      <path class="cls-1" d="M578.46,50.58c-.09,.33-.36,.48-.78,.48h-21.3v20.16c0,1.32,.63,1.8,3.6,1.8h7.62c3.21,0,5.85-.06,6.78-.12,.57-.06,1.02-.12,1.41-.18,.33-.03,.84-.15,1.29-.33h.36l.18,.03c1.2,.24,1.5,.54,1.5,1.02,0,1.26-1.86,1.5-11.73,1.47h-7.17c-4.41,0-6.06-.54-6.09-3.39v-20.46h-1.14l-.27-.87h21.48l1.53-1.95s1.68,1.35,2.73,2.34Zm-19.53,21.15h-.3v-9.84l2.22,.96h3.21l1.08-1.11,2.28,1.74c-.15,.18-.54,.42-.99,.45v6.57c-.03,.21-1.08,.66-1.8,.66h-.33v-1.56h-3.6v1.44c0,.21-.9,.69-1.77,.69Zm5.37-8.01h-3.6v5.01h3.6v-5.01Zm-2.61-2.37h-.33v-9l2.46,1.05h6.93l1.2-1.26,2.55,1.92c-.18,.21-.6,.42-1.14,.54v5.67c-.03,.18-1.2,.66-1.95,.66h-.36v-1.29h-7.38v.99c0,.21-1.02,.72-1.98,.72Zm9.36-7.08h-7.38v4.5h7.38v-4.5Zm-2.01,17.04h-.33v-9.42l2.25,.96h3.21l1.11-1.17,2.4,1.83c-.18,.18-.6,.39-1.08,.48v6.39c-.03,.18-1.11,.66-1.8,.66h-.36v-1.44h-3.63v1.02c0,.21-.9,.69-1.77,.69Zm5.4-7.59h-3.63v5.01h3.63v-5.01Z"/>
      <path class="cls-2" d="M592.23,62.7c.42,.63,.69,1.44,.6,2.16-.06,.6-.45,1.14-1.17,1.14-.6,0-.99-.42-1.41-1.35-.93-1.89-2.34-3.72-4.59-5.55l.33-.45c3.03,.99,5.16,2.37,6.24,4.05Z"/>
      <path class="cls-2" d="M47.37,96.87c-.09,.36-.45,.66-1.11,.69-.69,1.11-1.77,2.52-2.91,3.75h8.22l1.32-1.5,2.79,2.22c-.21,.24-.66,.51-1.29,.63v20.19c-.06,.24-1.26,.87-2.16,.87h-.36v-2.07h-13.68v1.2c0,.33-.93,.93-2.01,.93h-.42v-23.67l2.67,1.2h3.9c.45-1.56,.84-3.63,1.02-5.13l4.02,.69Zm-9.18,5.31v5.46h13.68v-5.46h-13.68Zm0,11.97h13.68v-5.64h-13.68v5.64Zm0,6.6h13.68v-5.73h-13.68v5.73Z"/>
      <path class="cls-2" d="M65.25,101.91l2.64,1.17h7.11v-6.66l3.54,.39c-.09,.42-.33,.72-1.08,.84v5.43h7.2l1.35-1.59,3,2.34c-.24,.3-.81,.6-1.56,.75v18.24c-.03,.21-1.23,.78-2.07,.78h-.36v-2.31h-17.37v1.68c0,.3-.93,.87-1.98,.87h-.42v-21.93Zm2.4,2.04v7.56h7.35v-7.56h-7.35Zm7.35,8.4h-7.35v8.07h7.35v-8.07Zm2.46-.84h7.56v-7.56h-7.56v7.56Zm7.56,8.91v-8.07h-7.56v8.07h7.56Z"/>
      <path class="cls-2" d="M105.9,120.93c-2.67,1.26-7.17,2.46-11.31,2.94l-.15-.48c3.75-1.05,8.01-3.09,10.08-4.68l2.94,2.1c-.24,.3-.75,.36-1.56,.12Zm-.93-15.24c-.15-.57-.45-1.2-.81-1.8-1.2,.63-2.82,1.5-4.65,2.43l2.4,1.05h12.63l1.02-1.08c0-.57-.12-1.08-.42-1.41-.33-.3-1.08-.54-1.92-.66l.03-.51c.81,.09,2.22,.18,2.73,.18,.42,0,.66-.03,.84-.21,.42-.39,.69-1.89,.87-4.65h-3.96c-.42,3-1.71,5.94-7.29,8.01l-.36-.45c4.14-2.31,4.95-4.98,5.13-7.56h-3.75l-.27-.87h10.26l1.2-1.23,2.4,1.95c-.21,.21-.54,.36-1.11,.42-.21,3.78-.66,5.64-1.71,6.39-.51,.39-1.23,.6-2.04,.69l2.19,1.65c-.18,.21-.6,.45-1.14,.54v10.2c-.03,.18-1.23,.72-2.01,.72h-.39v-1.2h-13.11v.9c0,.24-1.02,.78-2.01,.78h-.36v-13.56l-2.04,.99c-.18,.3-.42,.51-.66,.6l-1.11-2.34c.99-.48,1.11-.69,1.11-1.17v-6.63l2.7,.9c2.13-.78,4.41-1.83,5.58-2.55l2.1,2.1c-.18,.21-.51,.18-.93-.03-1.53,.42-4.5,1.05-7.2,1.35v5.19l4.89-1.47c-.69-.96-1.53-1.86-2.28-2.49l.33-.24c6.9,1.74,5.43,6.48,3.12,5.07Zm-3.24,2.55v2.49h13.11v-2.49h-13.11Zm13.11,5.82v-2.46h-13.11v2.46h13.11Zm0,3.36v-2.49h-13.11v2.49h13.11Zm3.18,6.03c-1.65-1.23-4.56-2.61-8.46-3.6l.09-.48c15.18,.87,10.98,5.85,8.37,4.08Z"/>
      <path class="cls-2" d="M134.76,111.39h13.47l1.35-1.38,2.55,2.16c-.21,.24-.6,.39-1.23,.45-.6,5.1-1.83,8.94-3.45,10.14-.96,.72-2.22,1.05-3.66,1.02,0-.66-.12-1.32-.6-1.68-.48-.39-1.77-.75-3.03-.93l.03-.51c1.35,.15,3.75,.33,4.44,.33,.63,0,.93-.06,1.29-.33,1.02-.75,1.98-4.08,2.52-8.37h-3c-2.13,5.31-6.36,9.21-12.87,11.7l-.27-.45c5.07-2.61,8.52-6.57,10.29-11.25h-2.85c-2.49,3.9-6.6,7.08-11.52,9.21l-.3-.45c3.69-2.22,6.93-5.46,8.97-8.76h-3.09c-2.13,1.86-4.8,3.66-7.68,4.83l-.3-.36c3.57-2.22,6.87-5.94,8.46-8.79h-.99v.78c0,.24-1.05,.78-2.04,.78h-.36v-12.6l2.58,1.11h11.88l1.26-1.41,2.73,2.1c-.21,.24-.66,.48-1.29,.6v9.21c-.03,.18-1.23,.72-2.01,.72h-.39v-1.29h-10.14l2.61,.72c-.12,.33-.48,.54-1.35,.54-.57,.69-1.23,1.44-2.01,2.16Zm10.89-12.51h-12.36v3.63h12.36v-3.63Zm-12.36,4.5v3.72h12.36v-3.72h-12.36Z"/>
      <path class="cls-2" d="M159.75,106.98c-.36-1.38-1.74-2.97-2.91-3.84l.24-.27c6.69,.99,4.98,5.61,2.67,4.11Zm-.33,7.62q.54-1.02,5.13-11.64l.51,.12-.96,3h4.98v-4.08h-4.62l-.24-.87h4.86v-4.74l3.36,.33c-.06,.42-.36,.72-1.11,.81v3.6h4.47v-4.74l3.45,.33c-.06,.42-.36,.72-1.11,.81v3.6h2.07l1.47-1.95s1.65,1.35,2.7,2.34c-.09,.33-.39,.48-.81,.48h-5.43v4.08h2.55l1.5-1.98s1.74,1.41,2.73,2.37c-.03,.33-.33,.48-.78,.48h-6.75c1.8,2.58,4.89,4.59,7.86,5.55l-.06,.33c-.93,.18-1.65,.96-1.98,2.19-1.56-.87-2.91-2.07-4.05-3.57l-.45,.12v5.34c-.03,.15-1.2,.51-1.89,.51h-.36v-1.44h-6.48v4.44c0,.57,.18,.75,1.65,.75h4.11c1.77,0,3.15-.03,3.72-.09,.45-.03,.63-.12,.81-.42,.27-.54,.66-2.07,1.08-3.93h.36l.12,4.08c.81,.24,1.02,.51,1.02,.96,0,1.11-1.17,1.5-7.26,1.5h-4.23c-2.97,0-3.69-.48-3.69-2.37v-8.67c-1.47,1.35-3.15,2.52-5.1,3.51l-.3-.48c2.97-2.16,5.25-5.13,6.6-8.31h-4.89l-.06-.24c-.96,3-2.04,6.24-2.28,7.17-.24,.87-.39,1.8-.39,2.52,.06,1.41,.93,2.76,.84,5.25-.06,1.32-.75,2.16-1.83,2.16-.57,0-1.02-.51-1.11-1.53,.45-3.09,.3-5.55-.36-6-.39-.27-.81-.39-1.47-.45v-.63h1.32c.36,0,.48,0,.78-.6Zm2.58-13.71c-.39-1.47-1.83-3.18-3.06-4.2l.3-.24c6.87,1.23,5.13,5.97,2.76,4.44Zm15.3,8.43l.81,.6c-.54-.9-1.02-1.89-1.41-2.97h-5.07c-.54,1.14-1.23,2.22-2.01,3.21l.75,.3h5.82l1.11-1.14Zm-.84,2.01h-6.48v3.78h6.48v-3.78Zm-.66-5.25v-4.08h-4.47v4.08h4.47Z"/>
      <path class="cls-2" d="M214.71,98.58c-.09,.33-.36,.48-.78,.48h-21.3v20.16c0,1.32,.63,1.8,3.6,1.8h7.62c3.21,0,5.85-.06,6.78-.12,.57-.06,1.02-.12,1.41-.18,.33-.03,.84-.15,1.29-.33h.36l.18,.03c1.2,.24,1.5,.54,1.5,1.02,0,1.26-1.86,1.5-11.73,1.47h-7.17c-4.41,0-6.06-.54-6.09-3.39v-20.46h-1.14l-.27-.87h21.48l1.53-1.95s1.68,1.35,2.73,2.34Zm-19.53,21.15h-.3v-9.84l2.22,.96h3.21l1.08-1.11,2.28,1.74c-.15,.18-.54,.42-.99,.45v6.57c-.03,.21-1.08,.66-1.8,.66h-.33v-1.56h-3.6v1.44c0,.21-.9,.69-1.77,.69Zm5.37-8.01h-3.6v5.01h3.6v-5.01Zm-2.61-2.37h-.33v-9l2.46,1.05h6.93l1.2-1.26,2.55,1.92c-.18,.21-.6,.42-1.14,.54v5.67c-.03,.18-1.2,.66-1.95,.66h-.36v-1.29h-7.38v.99c0,.21-1.02,.72-1.98,.72Zm9.36-7.08h-7.38v4.5h7.38v-4.5Zm-2.01,17.04h-.33v-9.42l2.25,.96h3.21l1.11-1.17,2.4,1.83c-.18,.18-.6,.39-1.08,.48v6.39c-.03,.18-1.11,.66-1.8,.66h-.36v-1.44h-3.63v1.02c0,.21-.9,.69-1.77,.69Zm5.4-7.59h-3.63v5.01h3.63v-5.01Z"/>
      <path class="cls-2" d="M228.48,110.7c.42,.63,.69,1.44,.6,2.16-.06,.6-.45,1.14-1.17,1.14-.6,0-.99-.42-1.41-1.35-.93-1.89-2.34-3.72-4.59-5.55l.33-.45c3.03,.99,5.16,2.37,6.24,4.05Z"/>
      <path class="cls-2" d="M245.94,103.74c-.09,.33-.36,.48-.78,.48h-2.76v2.13c4.92,2.76,3.21,6.18,1.5,4.74-.15-1.14-.81-2.55-1.5-3.69v15.57c0,.27-.93,.84-1.74,.84h-.45v-13.11c-.9,2.22-2.1,4.26-3.6,6.09l-.42-.36c1.89-3.45,2.97-7.83,3.6-12.21h-2.97l-.24-.87h3.63v-7.26l3.27,.33c-.06,.45-.3,.72-1.08,.84v6.09l1.26-1.74s1.41,1.26,2.28,2.13Zm18.39,8.64c-.09,.33-.36,.48-.78,.48h-7.17c.33,1.71,.81,3.18,1.44,4.44,.9-1.11,1.68-2.31,2.34-3.69l2.67,1.62c-.18,.3-.48,.42-1.11,.24-.81,1.32-1.77,2.49-2.82,3.48,.66,.81,1.47,1.44,2.4,1.89,.51,.3,.66,.24,.9-.27,.36-.81,.84-2.28,1.23-3.57l.36,.03-.39,4.47c.87,.93,.96,1.32,.78,1.74-.57,1.08-2.28,.51-3.66-.21-1.32-.63-2.4-1.53-3.27-2.67-2.1,1.56-4.5,2.61-7.02,3.24l-.21-.45c2.25-.96,4.44-2.34,6.3-4.2-.93-1.68-1.56-3.72-2.01-6.09h-3.45c-.06,.75-.15,1.53-.3,2.31,5.01,1.32,3.45,4.98,1.41,3.66-.21-.87-.87-1.86-1.62-2.64-.69,2.73-2.25,5.37-5.79,7.47l-.39-.45c3.63-3.18,4.14-6.99,4.26-10.35h-2.91l-.24-.9h8.88c-.45-2.85-.63-6.12-.72-9.75-.18,.18-.48,.27-.93,.21-1.11,1.68-3.06,3.99-4.86,5.67l3.63-.33c-.21-.78-.51-1.53-.81-2.1l.39-.15c4.11,2.7,2.16,5.82,.69,4.32,0-.45-.03-.93-.12-1.41-1.02,.39-2.49,.96-3.9,1.47-.15,.3-.36,.51-.54,.6l-1.23-2.37s.48-.15,.69-.24c.99-.9,2.1-2.55,3-4.17l-2.01,.78c-.15,.36-.36,.6-.6,.69l-1.26-2.49s.48-.12,.66-.24c1.17-1.14,2.55-4.26,3.03-5.79l2.85,1.29c-.15,.27-.48,.51-1.11,.45-.87,1.38-2.34,3.12-3.69,4.41l2.7-.18c.39-.75,.75-1.47,.96-2.04l2.46,1.35-.03-5.64,3.3,.39c-.03,.39-.33,.72-1.08,.84-.09,5.52-.06,10.47,.6,14.43h4.41l1.29-1.56s1.47,1.11,2.4,1.98Zm-2.19-3.09c0-.54-.09-1.11-.27-1.71-.96,.36-2.43,.9-3.84,1.35l-.09,.18,.27-.18c3.93,.9,2.34,3.69,.87,2.58-.09-.84-.66-1.8-1.17-2.34-.18,.27-.36,.45-.54,.54l-1.17-2.43s.48-.12,.66-.21c.84-.78,1.8-2.16,2.61-3.54l-1.8,.69c-.18,.42-.39,.66-.63,.78l-1.17-2.37s.42-.15,.57-.24c1.02-1.11,2.13-4.14,2.49-5.64l2.91,1.29c-.12,.27-.45,.54-1.05,.48-.78,1.23-1.95,2.79-3.06,3.99l2.34-.15c.42-.78,.75-1.53,.99-2.1l2.61,1.65c-.15,.24-.54,.42-1.11,.3-1.05,1.53-2.79,3.54-4.41,5.01l3.51-.3c-.24-.6-.54-1.17-.84-1.62l.39-.18c4.41,2.37,2.46,5.7,.93,4.17Z"/>
      <path class="cls-2" d="M271.62,114.18v-8.97h-3.24l-.24-.87h3.48v-7.8l3.42,.36c-.06,.42-.3,.72-1.08,.81v6.63h.39l1.38-2.04s1.5,1.44,2.4,2.43c-.09,.33-.39,.48-.81,.48h-3.36v8.01l4.08-1.65,.15,.33c-1.89,1.38-4.65,3.42-8.37,5.79-.06,.36-.3,.72-.6,.84l-1.47-2.91c.81-.27,2.19-.78,3.87-1.44Zm20.01-5.1l1.56-1.92s1.74,1.32,2.82,2.31c-.09,.33-.36,.48-.81,.48h-11.61c-.45,.84-.96,1.65-1.53,2.4h9.9l1.32-1.29,2.46,2.04c-.21,.24-.6,.36-1.2,.45-.42,5.31-1.29,8.34-2.67,9.36-.81,.66-1.89,.93-3.09,.93,0-.66-.09-1.26-.48-1.62-.39-.36-1.26-.63-2.22-.78v-.48c1.02,.06,2.67,.21,3.27,.21,.51,0,.75-.06,1.05-.3,.72-.63,1.44-3.24,1.83-7.65h-1.92c-1.65,4.65-4.83,8.13-9.84,10.59l-.3-.45c3.84-2.55,6.33-6.06,7.62-10.14h-1.98c-2.1,3.87-5.61,6.9-10.14,8.97l-.33-.45c3.57-2.16,6.33-5.16,8.07-8.52h-2.1c-1.77,2.01-4.11,3.63-6.9,4.92l-.33-.45c3-1.98,5.31-4.77,6.72-7.74h-4.35l-.24-.87h15.42Zm-12.06-12.39l2.46,1.05h7.65l1.26-1.35,2.67,2.04c-.21,.21-.66,.48-1.26,.6v7.77c-.03,.21-1.17,.81-1.98,.81h-.39v-1.23h-8.1v.87c0,.21-1.02,.75-1.98,.75h-.33v-11.31Zm10.41,4.89v-2.97h-8.1v2.97h8.1Zm-8.1,3.93h8.1v-3.06h-8.1v3.06Z"/>
      <path class="cls-2" d="M324.81,113.91c.51,.42,1.53,1.23,2.25,1.89-.09,.33-.39,.48-.81,.48h-6.57v4.35c0,1.83-.39,2.88-3.66,3.21-.09-.72-.27-1.32-.72-1.68-.48-.39-1.32-.66-2.85-.87v-.45s3.54,.24,4.2,.24c.54,0,.72-.18,.72-.57v-4.23h-17.28l-.27-.87h17.55v-2.28l3.33,.33c-.09,.45-.36,.66-1.02,.78v1.17h3.27l.78-.99c-.3-.03-.6-.15-.9-.42-.36-.57-.9-1.14-1.65-1.68-4.32,.45-10.11,.9-18.03,1.47-.21,.36-.54,.54-.81,.6l-1.29-2.73c2.28,.06,6.27,.06,11.1,.03v-2.28h-5.67v.54c0,.21-.99,.69-1.95,.69h-.33v-9.51l2.46,1.05h5.49v-2.22h-11.37l-.27-.87h11.64v-2.94l3.42,.36c-.09,.42-.36,.72-1.11,.84v1.74h7.44l1.5-1.95s1.71,1.35,2.76,2.34c-.09,.33-.39,.48-.78,.48h-10.92v2.22h5.76l1.14-1.29,2.58,1.92c-.18,.24-.63,.48-1.17,.6v6.12c-.03,.21-1.17,.75-1.92,.75h-.36v-.87h-6.03v2.25l5.67-.03c-.72-.42-1.56-.81-2.55-1.17l.18-.45c6.63,.69,7.65,2.88,7.05,3.9Zm-15.81,7.56c-.63-1.5-2.49-3.27-4.05-4.2l.27-.3c7.68,.57,6.42,5.82,3.78,4.5Zm3.15-16.11v-2.34h-5.67v2.34h5.67Zm-5.67,3.18h5.67v-2.31h-5.67v2.31Zm7.98-5.52v2.34h6.03v-2.34h-6.03Zm0,3.21v2.31h6.03v-2.31h-6.03Z"/>
      <path class="cls-2" d="M334.74,97.26l2.82,1.14h15.51l1.26-1.53,2.88,2.22c-.21,.27-.72,.57-1.38,.69v20.67c0,1.83-.39,2.94-3.6,3.24-.09-.75-.27-1.38-.66-1.74-.48-.39-1.23-.66-2.64-.87v-.48s3.12,.27,3.75,.27c.57,0,.72-.24,.72-.69v-6.72h-7.23v9.33c0,.18-.78,.75-1.98,.75h-.42v-10.08h-6.96c-.57,3.75-1.95,7.47-5.46,10.29l-.42-.3c3.42-4.47,3.81-10.14,3.81-15.87v-10.32Zm2.4,10.29c0,1.62-.03,3.33-.24,5.04h6.87v-6.3h-6.63v1.26Zm6.63-2.16v-6.15h-6.63v6.15h6.63Zm9.63-6.15h-7.23v6.15h7.23v-6.15Zm-7.23,7.05v6.3h7.23v-6.3h-7.23Z"/>
      <path class="cls-2" d="M388.71,98.58c-.09,.33-.36,.48-.78,.48h-21.3v20.16c0,1.32,.63,1.8,3.6,1.8h7.62c3.21,0,5.85-.06,6.78-.12,.57-.06,1.02-.12,1.41-.18,.33-.03,.84-.15,1.29-.33h.36l.18,.03c1.2,.24,1.5,.54,1.5,1.02,0,1.26-1.86,1.5-11.73,1.47h-7.17c-4.41,0-6.06-.54-6.09-3.39v-20.46h-1.14l-.27-.87h21.48l1.53-1.95s1.68,1.35,2.73,2.34Zm-19.53,21.15h-.3v-9.84l2.22,.96h3.21l1.08-1.11,2.28,1.74c-.15,.18-.54,.42-.99,.45v6.57c-.03,.21-1.08,.66-1.8,.66h-.33v-1.56h-3.6v1.44c0,.21-.9,.69-1.77,.69Zm5.37-8.01h-3.6v5.01h3.6v-5.01Zm-2.61-2.37h-.33v-9l2.46,1.05h6.93l1.2-1.26,2.55,1.92c-.18,.21-.6,.42-1.14,.54v5.67c-.03,.18-1.2,.66-1.95,.66h-.36v-1.29h-7.38v.99c0,.21-1.02,.72-1.98,.72Zm9.36-7.08h-7.38v4.5h7.38v-4.5Zm-2.01,17.04h-.33v-9.42l2.25,.96h3.21l1.11-1.17,2.4,1.83c-.18,.18-.6,.39-1.08,.48v6.39c-.03,.18-1.11,.66-1.8,.66h-.36v-1.44h-3.63v1.02c0,.21-.9,.69-1.77,.69Zm5.4-7.59h-3.63v5.01h3.63v-5.01Z"/>
      <path class="cls-2" d="M402.48,110.7c.42,.63,.69,1.44,.6,2.16-.06,.6-.45,1.14-1.17,1.14-.6,0-.99-.42-1.41-1.35-.93-1.89-2.34-3.72-4.59-5.55l.33-.45c3.03,.99,5.16,2.37,6.24,4.05Z"/>
      <path class="cls-2" d="M412.47,99.3l2.46,1.05h.36c.21-1.17,.45-2.94,.6-4.17l3.36,.63c-.09,.42-.45,.66-1.11,.69-.48,.84-1.23,1.98-1.86,2.85h2.76l1.02-1.26,2.49,1.92c-.18,.21-.6,.42-1.14,.51v7.35l2.04-.27,.06,.48-2.1,.57v11.34c0,1.62-.33,2.52-2.94,2.76-.03-.57-.18-1.08-.48-1.38-.36-.33-.93-.54-1.98-.69v-.48s2.22,.18,2.7,.18c.45,0,.6-.18,.6-.6v-10.59c-1.44,.36-3.03,.69-4.77,1.02-.06,4.32-.45,9.18-3.69,12.66l-.45-.27c1.8-3.45,2.04-7.74,2.07-12.03l-.84,.15c-.15,.36-.42,.6-.72,.66l-.66-2.46,2.22-.12v-10.5Zm6.84,1.92h-4.77v8.4l4.77-.51v-7.89Zm-2.79,6.66c-.09-1.26-.39-3.63-1.41-5.22l.42-.24c4.32,3.54,2.16,7.08,.99,5.46Zm.06,9.6c-.03-1.35-.24-3.93-1.2-5.67l.45-.24c4.2,4.05,1.86,7.56,.75,5.91Zm8.4-12.21l2.64,1.08h3.69l1.23-1.35,2.43,2.1c-.18,.21-.54,.36-1.14,.45v12.9c0,.33,.06,.48,.45,.48h.81c.3,0,.6,0,.75-.03,.15,0,.24-.06,.36-.33,.18-.45,.57-2.55,.87-4.26h.36l.12,4.44c.6,.27,.72,.51,.72,.93,0,.9-.84,1.38-3.33,1.38h-1.32c-1.71,0-2.01-.6-2.01-2.04v-13.8h-4.41v4.92c0,3.93-.48,8.73-5.73,11.88l-.33-.36c3.36-3.27,3.84-7.38,3.84-11.49v-6.9Zm13.23-3c-.09,.33-.39,.48-.78,.48h-14.82l-.24-.87h11.49l1.56-2.04s1.77,1.41,2.79,2.43Zm-9.48-1.11c-.15-1.65-1.26-3.66-2.37-4.83l.33-.21c6.36,2.07,4.26,6.78,2.04,5.04Z"/>
      <path class="cls-2" d="M446.46,100.47h8.91l-.42-.27c-.06-1.38-.96-3.03-1.83-4.02l.3-.18c4.71,.99,4.65,3.78,3.33,4.47h8.82l1.5-1.53,2.64,2.55c-.21,.24-.54,.3-1.14,.33-.84,1.05-2.37,2.52-3.57,3.39l-.36-.21c.36-.99,.78-2.49,1.05-3.66h-5.37v4.59c0,.78,.03,.78,.96,.78h5.07c.18,0,.45,0,.81-.09h.24l.18,.03c.84,.27,.99,.36,.99,.75,0,.87-.54,1.23-3.21,1.23h-4.32c-2.82,0-3.09-.24-3.09-2.7v-4.59h-11.37c.24,2.22-.6,3.72-1.56,4.35-.84,.6-1.98,.54-2.37-.27-.3-.81,.18-1.5,.9-1.89,1.17-.69,2.19-2.58,1.95-4.62l.48-.03c.21,.57,.36,1.08,.48,1.59Zm23.04,21.39c-.09,.33-.39,.48-.81,.48h-25.44l-.27-.87h11.58v-8.61h-7.89l-.24-.87h15.48l1.5-1.89s1.71,1.32,2.76,2.28c-.09,.33-.36,.48-.81,.48h-8.34v8.61h7.95l1.62-2.07s1.8,1.41,2.91,2.46Zm-25.89-11.43l-.24-.45c5.13-1.95,7.5-4.8,8.64-8.4l3.24,1.62c-.12,.33-.42,.54-1.26,.54-1.95,3.27-4.74,5.7-10.38,6.69Z"/>
      <path class="cls-2" d="M501.24,107.46c-.09,.33-.39,.48-.81,.48h-22.08v2.4c0,3.72-.33,9.54-4.62,13.47l-.39-.33c2.49-4.11,2.73-9.06,2.73-13.14v-4.38l2.73,1.08h17.94l1.56-1.95s1.8,1.35,2.94,2.37Zm-7.17-5.37c-.75,.51-1.71,.99-2.79,1.47,3.9,1.83,3.12,3.66,1.59,3.21-.9-.66-2.28-1.44-3.99-2.25-2.7,.96-5.82,1.77-8.73,2.19l-.21-.48c2.31-.6,4.8-1.5,7.05-2.52-1.89-.78-4.05-1.53-6.36-2.1l.12-.51c3.6,.42,6.3,.99,8.28,1.62,1.38-.75,2.61-1.5,3.51-2.25h-16.56l-.27-.87h11.34c-.24-1.23-1.32-2.58-2.31-3.3l.3-.24c4.26,.33,4.68,2.7,3.72,3.54h7.59l1.53-1.92s1.8,1.32,2.88,2.31c-.09,.33-.36,.48-.81,.48h-7.14l2.37,1.47c-.21,.27-.48,.36-1.11,.15Zm3.54,15.39c-.06,.33-.36,.48-.78,.48h-6.36v3.9h5.91l1.56-1.95s1.83,1.35,2.94,2.34c-.09,.33-.39,.48-.81,.48h-21.72l-.27-.87h10.05v-3.9h-5.91l-.24-.87h6.15v-3.78h-5.16c-.96,1.5-2.13,2.79-3.36,3.69l-.42-.27c1.35-1.89,2.58-4.83,3.27-7.89l3.21,.99c-.15,.33-.51,.6-1.14,.57-.3,.69-.63,1.38-.99,2.01h4.59v-3.87l3.33,.33c-.06,.39-.27,.66-.99,.75v2.79h3.69l1.53-1.83s1.65,1.23,2.76,2.25c-.09,.33-.39,.48-.81,.48h-7.17v3.78h3.03l1.44-1.77s1.65,1.23,2.67,2.16Z"/>
      <path class="cls-2" d="M515.22,118.23c-2.79,2.34-6.9,3.96-10.08,4.65l-.15-.45c2.79-1.26,6.15-3.6,8.64-6.39l2.73,2.01c-.24,.27-.54,.36-1.14,.18Zm17.34-15.57c-.09,.33-.39,.48-.81,.48h-8.22l2.64,.81c-.15,.33-.51,.57-1.14,.51-.78,.81-1.95,1.8-3.09,2.61h4.98l1.47-1.8s1.68,1.26,2.7,2.19c-.06,.33-.36,.48-.75,.48h-10.35v2.76h5.46l1.41-1.68s1.56,1.17,2.58,2.07c-.09,.33-.39,.48-.81,.48h-8.64v2.73h8.1l1.5-1.86s1.74,1.29,2.82,2.25c-.09,.33-.39,.48-.81,.48h-11.61v8.04c0,.15-.75,.66-2.01,.66h-.39v-8.7h-11.61l-.27-.87h11.88v-2.73h-8.73l-.24-.87h8.97v-2.76h-10.2l-.24-.87h7.41l-.39-.24c-.09-1.2-.96-2.7-1.77-3.51l.27-.18h-7.05l-.27-.87h9.96v-6.06l3.12,.3c-.06,.39-.3,.66-.96,.75v5.01h2.88v-6.06l3.18,.3c-.06,.39-.3,.66-.96,.75v5.01h.93c1.14-1.59,2.4-3.84,3.15-5.55l3.18,1.17c-.18,.3-.57,.51-1.2,.45-1.05,1.23-2.7,2.73-4.29,3.93h3.96l1.5-1.8s1.68,1.23,2.76,2.19Zm-21.33-1.17c-.21-1.5-1.41-3.3-2.55-4.35l.3-.24c6.27,1.8,4.35,6.21,2.25,4.59Zm11.67,1.65h-10.05c3.93,1.05,3.84,3.36,2.76,3.93h5.37c.72-1.17,1.44-2.7,1.92-3.93Zm6.06,19.05c-1.41-1.5-4.05-3.42-7.56-5.01l.15-.45c14.01,2.61,9.69,7.56,7.41,5.46Z"/>
      <path class="cls-2" d="M562.71,98.58c-.09,.33-.36,.48-.78,.48h-21.3v20.16c0,1.32,.63,1.8,3.6,1.8h7.62c3.21,0,5.85-.06,6.78-.12,.57-.06,1.02-.12,1.41-.18,.33-.03,.84-.15,1.29-.33h.36l.18,.03c1.2,.24,1.5,.54,1.5,1.02,0,1.26-1.86,1.5-11.73,1.47h-7.17c-4.41,0-6.06-.54-6.09-3.39v-20.46h-1.14l-.27-.87h21.48l1.53-1.95s1.68,1.35,2.73,2.34Zm-19.53,21.15h-.3v-9.84l2.22,.96h3.21l1.08-1.11,2.28,1.74c-.15,.18-.54,.42-.99,.45v6.57c-.03,.21-1.08,.66-1.8,.66h-.33v-1.56h-3.6v1.44c0,.21-.9,.69-1.77,.69Zm5.37-8.01h-3.6v5.01h3.6v-5.01Zm-2.61-2.37h-.33v-9l2.46,1.05h6.93l1.2-1.26,2.55,1.92c-.18,.21-.6,.42-1.14,.54v5.67c-.03,.18-1.2,.66-1.95,.66h-.36v-1.29h-7.38v.99c0,.21-1.02,.72-1.98,.72Zm9.36-7.08h-7.38v4.5h7.38v-4.5Zm-2.01,17.04h-.33v-9.42l2.25,.96h3.21l1.11-1.17,2.4,1.83c-.18,.18-.6,.39-1.08,.48v6.39c-.03,.18-1.11,.66-1.8,.66h-.36v-1.44h-3.63v1.02c0,.21-.9,.69-1.77,.69Zm5.4-7.59h-3.63v5.01h3.63v-5.01Z"/>
      <path class="cls-2" d="M576.48,110.7c.42,.63,.69,1.44,.6,2.16-.06,.6-.45,1.14-1.17,1.14-.6,0-.99-.42-1.41-1.35-.93-1.89-2.34-3.72-4.59-5.55l.33-.45c3.03,.99,5.16,2.37,6.24,4.05Z"/>
      <path class="cls-2" d="M11.58,155.46c-.06,.33-.36,.48-.78,.48h-3.69v15.15c0,.27-.9,.75-1.74,.75h-.45v-13.05h-.3c-1.05,3-2.52,6.12-4.14,8.31l-.48-.27c.96-2.43,2.01-6.24,2.61-9.6l2.31,.69v-1.98H.51l-.24-.87H4.92v-10.92l3.27,.39c-.09,.42-.3,.69-1.08,.81v9.72h.84l1.29-1.68s1.44,1.2,2.34,2.07Zm-9.09-2.25c-.06-2.07-1.05-4.83-1.89-6.66l.42-.15c5.19,4.44,3.3,8.64,1.47,6.81Zm7.05,11.31c-.12-2.1-1.23-4.86-2.13-6.72l.39-.15c5.76,4.29,3.69,8.79,1.74,6.87Zm1.77-17.07c-.93,2.01-2.16,4.41-3.21,6.03l-.51-.21c.54-1.89,1.23-4.86,1.8-7.35l3.03,.96c-.12,.33-.48,.6-1.11,.57Zm2.31,9.03l2.7,1.08h6.69l1.11-1.32,2.7,2.01c-.21,.24-.69,.48-1.29,.6v9.78c0,1.68-.36,2.73-3.18,3-.09-.69-.24-1.26-.63-1.62-.39-.36-1.05-.63-2.25-.81v-.45s2.67,.18,3.21,.18c.48,0,.63-.18,.63-.57v-3.03h-7.56c-.33,2.46-1.41,4.92-4.77,6.66l-.3-.36c2.64-2.43,2.94-5.52,2.94-8.76v-6.39Zm13.95-8.43c-.09,.33-.39,.48-.81,.48h-6.27v2.49h2.34l1.32-1.62s1.47,1.14,2.4,2.01c-.09,.33-.39,.48-.81,.48h-5.25v2.76h3.78l1.41-1.8s1.62,1.26,2.61,2.19c-.09,.33-.39,.48-.81,.48H11.82l-.24-.87h6.6v-2.76h-4.71l-.24-.87h4.95v-2.49h-5.64l-.24-.87h5.88v-3.51l3.3,.33c-.06,.42-.3,.66-.99,.75v2.43h3.09l1.41-1.77s1.59,1.26,2.58,2.16Zm-4.26,16.41v-2.67h-7.41v1.08l-.06,1.59h7.47Zm-7.41-3.54h7.41v-2.46h-7.41v2.46Z"/>
      <path class="cls-2" d="M33.75,169.71c-.57,.72-1.71,.93-2.16,.27-.36-.6-.06-1.32,.54-1.8,.84-.84,1.71-2.97,1.62-4.86l.51,.03c.81,3.06,.3,5.28-.51,6.36Zm5.22-8.07c0-.48-.06-.99-.15-1.53-1.35,.45-3.21,1.08-5.1,1.68-.24,.36-.51,.6-.81,.69l-.93-2.79s.6-.12,.81-.3c1.23-1.23,2.67-3.33,3.87-5.43l-2.73,.9c-.18,.39-.45,.63-.72,.72l-1.14-2.76s.57-.12,.75-.3c1.38-1.71,3.12-5.91,3.69-8.16l3.09,1.41c-.15,.3-.51,.54-1.08,.48-1.08,1.98-2.94,4.74-4.65,6.63h3.39c.69-1.26,1.23-2.46,1.59-3.39l2.85,1.62c-.15,.27-.54,.48-1.14,.36-1.44,2.43-4.11,5.85-6.6,8.25l4.68-.33c-.27-1.08-.69-2.1-1.11-2.88l.39-.15c4.53,3.27,2.61,6.87,1.05,5.28Zm-2.91,6.75c.3-1.71,.06-3.93-.36-5.37l.45-.12c3.6,3.72,1.32,7.26-.09,5.49Zm3.27-2.1c-.03-1.2-.69-2.76-1.29-3.69l.39-.18c4.2,2.07,2.4,5.22,.9,3.87Zm4.71,.45v-5.28h-2.73l-.24-.87h2.97v-4.71l3.09,.3c-.03,.39-.3,.66-.99,.72v3.69h.75l1.08-1.5s1.2,1.11,1.92,1.89c-.06,.33-.36,.48-.75,.48h-3v4.83l3.75-.87,.12,.42c-1.8,.9-4.38,2.16-7.89,3.75-.15,.36-.39,.63-.69,.72l-1.41-2.76c.87-.12,2.31-.42,4.02-.81Zm3.81-11.01c-.03-.57-.12-1.2-.3-1.83-1.38,.57-3.42,1.32-5.55,2.01-.18,.36-.45,.6-.69,.69l-1.14-2.73s.51-.09,.72-.24c1.2-1.23,2.61-4.17,3.24-6h-3.63l-.24-.87h7.2l1.2-1.56s1.38,1.11,2.25,1.95c-.09,.33-.39,.48-.78,.48h-4.92l2.04,.99c-.15,.24-.48,.48-1.08,.42-.93,1.47-2.49,3.36-3.93,4.77l5.1-.54c-.33-1.08-.81-2.1-1.26-2.88l.42-.15c4.8,3.36,3,7.08,1.35,5.49Zm6.99-10.05c-.27,1.41-.6,2.79-.99,4.14h2.01l1.23-1.32,2.28,2.07c-.21,.3-.51,.39-1.17,.42-.54,4.5-1.44,9-3.57,12.9,1.38,2.55,3.06,4.71,5.1,6.3l-.15,.24c-.87-.03-1.65,.42-2.16,1.26-1.59-1.65-2.88-3.66-3.93-5.97-1.59,2.34-3.75,4.44-6.69,6.09l-.36-.39c2.82-2.07,4.83-4.68,6.3-7.62-.75-2.01-1.35-4.23-1.77-6.66-.48,.87-1.02,1.68-1.56,2.43l-.48-.24c.6-1.29,1.17-2.79,1.68-4.38-.27-1.74-.45-3.57-.57-5.49l.63-.24c.12,1.32,.27,2.58,.48,3.84,.75-2.76,1.32-5.76,1.65-8.73l3.18,.66c-.12,.36-.45,.63-1.14,.69Zm1.23,5.01h-2.46c-.54,1.8-1.2,3.48-1.92,5.04,.48,2.16,1.14,4.2,1.95,6.06,1.32-3.45,2.04-7.23,2.43-11.1Z"/>
      <path class="cls-2" d="M88.08,159.66c-.09,.33-.39,.48-.78,.48h-18.39c-.03,.66-.06,1.41-.15,2.16h17.46l1.44-1.74s1.59,1.2,2.61,2.13c-.09,.33-.36,.48-.78,.48h-3.54l2.34,1.77c-.18,.21-.48,.24-.87,.09-1.02,.51-2.88,1.32-4.65,1.89,2.28,1.17,5.1,1.83,8.22,2.19v.36c-.99,.24-1.65,.99-1.89,2.16-5.55-1.35-9.24-3.63-11.19-8.46h-3.87v5.28l5.01-1.47,.15,.42c-1.32,.78-3.81,2.22-6.51,3.69-.21,.39-.51,.63-.75,.75l-1.32-2.64c.93-.45,1.08-.69,1.08-1.17v-4.86h-3.09c-.48,2.94-1.77,6.21-5.1,8.58l-.33-.33c2.94-3.78,3.3-8.37,3.3-12.15v-4.02l.72,.3v-9.78l2.49,1.08h3.54v-2.64l3.18,.33c-.06,.36-.27,.6-.93,.69v1.62h3.57v-2.64l3.21,.33c-.06,.36-.3,.66-.99,.72v1.59h3.24l1.26-1.35,2.67,2.04c-.18,.24-.66,.48-1.26,.6v6.48l.09-.12s1.65,1.32,2.64,2.28c-.09,.33-.39,.48-.81,.48h-20.19v2.01h15.27l1.38-1.68s1.53,1.2,2.52,2.07Zm-20.49-3.96l1.74,.69h16.53l1.2-1.59c-.24,.21-1.2,.57-1.86,.57h-.39v-.81h-15.3v.39c0,.24-.96,.75-1.92,.75Zm5.64-5.43v-2.55h-3.72v2.55h3.72Zm0,3.42v-2.55h-3.72v2.55h3.72Zm2.25-5.97v2.55h3.57v-2.55h-3.57Zm3.57,3.42h-3.57v2.55h3.57v-2.55Zm6.84,12.03h-7.29c.84,1.38,2.01,2.46,3.45,3.33,1.41-1.02,3.06-2.52,3.84-3.33Zm-4.62-15.45v2.55h3.54v-2.55h-3.54Zm3.54,3.42h-3.54v2.55h3.54v-2.55Z"/>
      <path class="cls-2" d="M104.97,166.23c-2.79,2.34-6.9,3.96-10.08,4.65l-.15-.45c2.79-1.26,6.15-3.6,8.64-6.39l2.73,2.01c-.24,.27-.54,.36-1.14,.18Zm17.34-15.57c-.09,.33-.39,.48-.81,.48h-8.22l2.64,.81c-.15,.33-.51,.57-1.14,.51-.78,.81-1.95,1.8-3.09,2.61h4.98l1.47-1.8s1.68,1.26,2.7,2.19c-.06,.33-.36,.48-.75,.48h-10.35v2.76h5.46l1.41-1.68s1.56,1.17,2.58,2.07c-.09,.33-.39,.48-.81,.48h-8.64v2.73h8.1l1.5-1.86s1.74,1.29,2.82,2.25c-.09,.33-.39,.48-.81,.48h-11.61v8.04c0,.15-.75,.66-2.01,.66h-.39v-8.7h-11.61l-.27-.87h11.88v-2.73h-8.73l-.24-.87h8.97v-2.76h-10.2l-.24-.87h7.41l-.39-.24c-.09-1.2-.96-2.7-1.77-3.51l.27-.18h-7.05l-.27-.87h9.96v-6.06l3.12,.3c-.06,.39-.3,.66-.96,.75v5.01h2.88v-6.06l3.18,.3c-.06,.39-.3,.66-.96,.75v5.01h.93c1.14-1.59,2.4-3.84,3.15-5.55l3.18,1.17c-.18,.3-.57,.51-1.2,.45-1.05,1.23-2.7,2.73-4.29,3.93h3.96l1.5-1.8s1.68,1.23,2.76,2.19Zm-21.33-1.17c-.21-1.5-1.41-3.3-2.55-4.35l.3-.24c6.27,1.8,4.35,6.21,2.25,4.59Zm11.67,1.65h-10.05c3.93,1.05,3.84,3.36,2.76,3.93h5.37c.72-1.17,1.44-2.7,1.92-3.93Zm6.06,19.05c-1.41-1.5-4.05-3.42-7.56-5.01l.15-.45c14.01,2.61,9.69,7.56,7.41,5.46Z"/>
      <path class="cls-2" d="M133.56,151.02c1.11-1.29,2.04-2.67,2.7-4.14h-7.86l-.27-.87h8.16l1.53-1.41,2.46,2.19c-.24,.27-.54,.36-1.26,.36-1.38,2.7-3.54,5.04-6.42,6.9h2.73l1.02-1.17,2.07,1.95c-.21,.21-.63,.42-1.11,.51v4.62c-.03,.12-.96,.54-1.83,.54h-.45v-1.14h-3.87c-.12,.96-.33,2.16-.51,3.09h4.29l1.23-1.26,2.4,1.98c-.21,.21-.6,.36-1.2,.42-.33,4.05-1.17,6.57-2.4,7.5-.78,.51-1.83,.78-3.03,.78,0-.6-.12-1.17-.54-1.47-.42-.36-1.41-.66-2.46-.81l.03-.51c1.11,.12,3,.24,3.6,.24,.48,0,.75-.06,1.02-.24,.63-.51,1.23-2.55,1.56-5.76h-4.44l-1.05,1.14-2.31-1.74c.33-.21,.78-.42,1.2-.57,.27-1.44,.6-3.6,.69-4.83l2.64,1.14h3.15v-3.51h-3.96c-1.41,.75-2.97,1.38-4.68,1.89l-.24-.42c2.4-1.08,4.53-2.52,6.27-4.2-.3,0-.6-.09-.93-.33-.24-1.2-1.41-2.58-2.46-3.33l.24-.24c3.21,.36,4.29,1.68,4.29,2.7Zm11.67,14.85c.81-.93,1.5-1.92,2.01-2.97h-8.16l-.27-.87h8.52l1.5-1.38,2.46,2.16c-.24,.27-.57,.36-1.26,.39-.75,1.29-1.68,2.49-2.82,3.57,4.95,2.61,4.41,5.43,2.28,4.77-.9-1.02-2.34-2.22-3.99-3.39-2.25,1.65-5.1,2.91-8.46,3.75l-.21-.45c2.82-1.05,5.25-2.52,7.17-4.32-1.44-.96-2.94-1.83-4.2-2.46l.27-.39c2.04,.48,3.75,1.02,5.16,1.59Zm-1.23-17.64c1.17-1.11,2.52-2.7,3.21-3.69l2.61,1.86c-.18,.27-.45,.39-1.11,.15-1.05,.69-2.67,1.53-4.2,2.19,.84,.81,1.83,1.56,2.85,2.25,1.11-1.08,2.4-2.7,3.03-3.69l2.67,1.89c-.21,.27-.48,.36-1.14,.15-.99,.63-2.49,1.44-3.9,2.04,1.92,1.17,4.08,2.07,6.27,2.67l-.06,.3c-.99,.18-1.77,.93-2.13,2.07-1.08-.45-2.13-.99-3.09-1.59-.21,.15-.57,.24-.96,.3v3.27c0,.27,.06,.36,.45,.36h.81c.33,0,.63,.03,.81,0,.12,0,.3,0,.42-.03,.15,0,.39-.06,.54-.09h.24l.12,.03c.63,.21,.87,.39,.87,.84,0,.87-.78,1.14-3.27,1.14h-1.29c-1.68,0-1.92-.51-1.92-1.8v-3.96h-3.21v.9c0,1.86-.48,4.53-4.53,6.09l-.3-.39c2.34-1.71,2.58-3.81,2.58-5.67v-3l2.64,1.2h2.55l.96-.99c-2.61-2.19-4.62-5.04-5.79-8.67l.45-.27c.66,1.53,1.65,2.91,2.82,4.14Z"/>
      <path class="cls-2" d="M170.73,153.3v2.4h5.01v-3.39l3.21,.33c-.03,.36-.27,.63-.93,.72v2.34h1.59l1.41-1.86s1.62,1.29,2.61,2.25c-.06,.33-.36,.48-.75,.48h-4.86v4.05h3.12l1.53-2.01s1.74,1.41,2.79,2.4c-.09,.33-.39,.48-.81,.48h-11.25c.78,1.77,1.95,3.21,3.39,4.35,1.47-1.29,3.21-2.97,4.11-3.99l2.73,1.95c-.21,.27-.48,.36-1.11,.18-1.29,.66-3.24,1.59-5.04,2.34,2.22,1.53,5.04,2.49,8.28,3.03l-.06,.36c-1.02,.21-1.74,.99-2.04,2.16-5.64-1.74-9.18-4.68-10.92-10.38h-3.51v7.2c1.44-.45,3.21-.99,4.98-1.59l.12,.42c-1.23,.78-3.6,2.31-6.18,3.81-.18,.3-.39,.54-.6,.66l-1.71-2.7c.93-.57,1.08-.81,1.08-1.29v-6.51h-3.75l-.06-.18c-.66,3.72-2.13,7.5-5.16,10.5l-.42-.3c3.36-5.46,3.75-12.15,3.75-18.27v-8.43l2.85,1.17h16.29l1.23-1.35,2.7,2.04c-.21,.24-.69,.48-1.29,.6v4.95c-.03,.18-1.2,.63-1.98,.63h-.36v-1.11h-17.01v1.47c0,2.25-.06,4.8-.48,7.41h5.19v-4.05h-4.2l-.24-.87h4.44v-3.42l3.24,.3c-.06,.39-.3,.63-.93,.72Zm9.99-2.43v-4.02h-17.01v4.02h17.01Zm-4.98,5.7h-5.01v4.05h5.01v-4.05Z"/>
      <path class="cls-2" d="M215.46,146.58c-.09,.33-.36,.48-.78,.48h-21.3v20.16c0,1.32,.63,1.8,3.6,1.8h7.62c3.21,0,5.85-.06,6.78-.12,.57-.06,1.02-.12,1.41-.18,.33-.03,.84-.15,1.29-.33h.36l.18,.03c1.2,.24,1.5,.54,1.5,1.02,0,1.26-1.86,1.5-11.73,1.47h-7.17c-4.41,0-6.06-.54-6.09-3.39v-20.46h-1.14l-.27-.87h21.48l1.53-1.95s1.68,1.35,2.73,2.34Zm-19.53,21.15h-.3v-9.84l2.22,.96h3.21l1.08-1.11,2.28,1.74c-.15,.18-.54,.42-.99,.45v6.57c-.03,.21-1.08,.66-1.8,.66h-.33v-1.56h-3.6v1.44c0,.21-.9,.69-1.77,.69Zm5.37-8.01h-3.6v5.01h3.6v-5.01Zm-2.61-2.37h-.33v-9l2.46,1.05h6.93l1.2-1.26,2.55,1.92c-.18,.21-.6,.42-1.14,.54v5.67c-.03,.18-1.2,.66-1.95,.66h-.36v-1.29h-7.38v.99c0,.21-1.02,.72-1.98,.72Zm9.36-7.08h-7.38v4.5h7.38v-4.5Zm-2.01,17.04h-.33v-9.42l2.25,.96h3.21l1.11-1.17,2.4,1.83c-.18,.18-.6,.39-1.08,.48v6.39c-.03,.18-1.11,.66-1.8,.66h-.36v-1.44h-3.63v1.02c0,.21-.9,.69-1.77,.69Zm5.4-7.59h-3.63v5.01h3.63v-5.01Z"/>
      <path class="cls-2" d="M229.23,158.7c.42,.63,.69,1.44,.6,2.16-.06,.6-.45,1.14-1.17,1.14-.6,0-.99-.42-1.41-1.35-.93-1.89-2.34-3.72-4.59-5.55l.33-.45c3.03,.99,5.16,2.37,6.24,4.05Z"/>
      <path class="cls-2" d="M246.69,151.74c-.09,.33-.36,.48-.78,.48h-2.76v2.13c4.92,2.76,3.21,6.18,1.5,4.74-.15-1.14-.81-2.55-1.5-3.69v15.57c0,.27-.93,.84-1.74,.84h-.45v-13.11c-.9,2.22-2.1,4.26-3.6,6.09l-.42-.36c1.89-3.45,2.97-7.83,3.6-12.21h-2.97l-.24-.87h3.63v-7.26l3.27,.33c-.06,.45-.3,.72-1.08,.84v6.09l1.26-1.74s1.41,1.26,2.28,2.13Zm18.39,8.64c-.09,.33-.36,.48-.78,.48h-7.17c.33,1.71,.81,3.18,1.44,4.44,.9-1.11,1.68-2.31,2.34-3.69l2.67,1.62c-.18,.3-.48,.42-1.11,.24-.81,1.32-1.77,2.49-2.82,3.48,.66,.81,1.47,1.44,2.4,1.89,.51,.3,.66,.24,.9-.27,.36-.81,.84-2.28,1.23-3.57l.36,.03-.39,4.47c.87,.93,.96,1.32,.78,1.74-.57,1.08-2.28,.51-3.66-.21-1.32-.63-2.4-1.53-3.27-2.67-2.1,1.56-4.5,2.61-7.02,3.24l-.21-.45c2.25-.96,4.44-2.34,6.3-4.2-.93-1.68-1.56-3.72-2.01-6.09h-3.45c-.06,.75-.15,1.53-.3,2.31,5.01,1.32,3.45,4.98,1.41,3.66-.21-.87-.87-1.86-1.62-2.64-.69,2.73-2.25,5.37-5.79,7.47l-.39-.45c3.63-3.18,4.14-6.99,4.26-10.35h-2.91l-.24-.9h8.88c-.45-2.85-.63-6.12-.72-9.75-.18,.18-.48,.27-.93,.21-1.11,1.68-3.06,3.99-4.86,5.67l3.63-.33c-.21-.78-.51-1.53-.81-2.1l.39-.15c4.11,2.7,2.16,5.82,.69,4.32,0-.45-.03-.93-.12-1.41-1.02,.39-2.49,.96-3.9,1.47-.15,.3-.36,.51-.54,.6l-1.23-2.37s.48-.15,.69-.24c.99-.9,2.1-2.55,3-4.17l-2.01,.78c-.15,.36-.36,.6-.6,.69l-1.26-2.49s.48-.12,.66-.24c1.17-1.14,2.55-4.26,3.03-5.79l2.85,1.29c-.15,.27-.48,.51-1.11,.45-.87,1.38-2.34,3.12-3.69,4.41l2.7-.18c.39-.75,.75-1.47,.96-2.04l2.46,1.35-.03-5.64,3.3,.39c-.03,.39-.33,.72-1.08,.84-.09,5.52-.06,10.47,.6,14.43h4.41l1.29-1.56s1.47,1.11,2.4,1.98Zm-2.19-3.09c0-.54-.09-1.11-.27-1.71-.96,.36-2.43,.9-3.84,1.35l-.09,.18,.27-.18c3.93,.9,2.34,3.69,.87,2.58-.09-.84-.66-1.8-1.17-2.34-.18,.27-.36,.45-.54,.54l-1.17-2.43s.48-.12,.66-.21c.84-.78,1.8-2.16,2.61-3.54l-1.8,.69c-.18,.42-.39,.66-.63,.78l-1.17-2.37s.42-.15,.57-.24c1.02-1.11,2.13-4.14,2.49-5.64l2.91,1.29c-.12,.27-.45,.54-1.05,.48-.78,1.23-1.95,2.79-3.06,3.99l2.34-.15c.42-.78,.75-1.53,.99-2.1l2.61,1.65c-.15,.24-.54,.42-1.11,.3-1.05,1.53-2.79,3.54-4.41,5.01l3.51-.3c-.24-.6-.54-1.17-.84-1.62l.39-.18c4.41,2.37,2.46,5.7,.93,4.17Z"/>
      <path class="cls-2" d="M272.37,162.18v-8.97h-3.24l-.24-.87h3.48v-7.8l3.42,.36c-.06,.42-.3,.72-1.08,.81v6.63h.39l1.38-2.04s1.5,1.44,2.4,2.43c-.09,.33-.39,.48-.81,.48h-3.36v8.01l4.08-1.65,.15,.33c-1.89,1.38-4.65,3.42-8.37,5.79-.06,.36-.3,.72-.6,.84l-1.47-2.91c.81-.27,2.19-.78,3.87-1.44Zm20.01-5.1l1.56-1.92s1.74,1.32,2.82,2.31c-.09,.33-.36,.48-.81,.48h-11.61c-.45,.84-.96,1.65-1.53,2.4h9.9l1.32-1.29,2.46,2.04c-.21,.24-.6,.36-1.2,.45-.42,5.31-1.29,8.34-2.67,9.36-.81,.66-1.89,.93-3.09,.93,0-.66-.09-1.26-.48-1.62-.39-.36-1.26-.63-2.22-.78v-.48c1.02,.06,2.67,.21,3.27,.21,.51,0,.75-.06,1.05-.3,.72-.63,1.44-3.24,1.83-7.65h-1.92c-1.65,4.65-4.83,8.13-9.84,10.59l-.3-.45c3.84-2.55,6.33-6.06,7.62-10.14h-1.98c-2.1,3.87-5.61,6.9-10.14,8.97l-.33-.45c3.57-2.16,6.33-5.16,8.07-8.52h-2.1c-1.77,2.01-4.11,3.63-6.9,4.92l-.33-.45c3-1.98,5.31-4.77,6.72-7.74h-4.35l-.24-.87h15.42Zm-12.06-12.39l2.46,1.05h7.65l1.26-1.35,2.67,2.04c-.21,.21-.66,.48-1.26,.6v7.77c-.03,.21-1.17,.81-1.98,.81h-.39v-1.23h-8.1v.87c0,.21-1.02,.75-1.98,.75h-.33v-11.31Zm10.41,4.89v-2.97h-8.1v2.97h8.1Zm-8.1,3.93h8.1v-3.06h-8.1v3.06Z"/>
      <path class="cls-2" d="M308.76,144.6c-.09,.45-.3,.72-1.08,.84v5.88h1.02l1.38-1.92s1.56,1.35,2.46,2.31c-.09,.33-.36,.48-.78,.48h-4.08v2.7c6.75,2.55,4.83,6.9,2.7,5.25-.36-1.5-1.59-3.33-2.7-4.65v15.54c0,.3-.99,.81-1.86,.81h-.48v-13.92c-1.29,2.67-2.97,5.13-5.01,7.2l-.39-.39c2.31-3.45,3.96-8.1,4.89-12.54h-4.11l-.24-.87h4.86v-7.08l3.42,.36Zm4.5,.84l2.52,1.14h7.92l1.29-1.44,2.73,2.16c-.21,.24-.69,.48-1.32,.6v22.8c-.03,.21-1.14,.84-2.04,.84h-.36v-2.7h-8.37v1.86c0,.36-.87,.96-1.95,.96h-.42v-26.22Zm10.74,8.13v-6.12h-8.37v6.12h8.37Zm-8.37,7.11h8.37v-6.24h-8.37v6.24Zm0,7.32h8.37v-6.45h-8.37v6.45Z"/>
      <path class="cls-2" d="M338.31,171.87h-.33v-9.96c-1.98,1.14-4.08,2.1-6.18,2.82l-.18-.45c5.25-2.4,11.01-7.47,12.54-11.25l3.96,.9c-.09,.36-.45,.54-1.26,.6,2.64,3.15,7.92,5.76,12.84,7.05l-.06,.48c-1.02,.27-1.8,1.17-1.98,2.07-4.89-1.89-9.27-5.37-11.34-9.24-1.62,2.25-4.38,4.62-7.59,6.57l1.77,.75h10.08l1.2-1.26,2.52,1.92c-.18,.21-.57,.42-1.08,.51v7.59c-.03,.18-1.2,.69-1.98,.69h-.39v-1.89h-10.53v1.32c0,.24-1.02,.78-2.01,.78Zm-2.34-23.73h19.41l1.41-1.41,2.52,2.43c-.21,.21-.54,.27-1.11,.3-.78,.93-2.13,2.22-3.18,2.97l-.33-.21c.27-.84,.6-2.13,.84-3.18h-19.47c.09,2.01-.69,3.36-1.59,3.99-.81,.54-1.98,.51-2.34-.27-.3-.78,.15-1.44,.84-1.83,1.17-.6,2.28-2.34,2.16-4.23l.48-.03c.18,.51,.27,1.02,.36,1.47Zm6.66,3.69c-1.74,2.01-4.98,4.38-8.37,5.67l-.3-.36c2.76-1.83,5.46-4.8,6.72-7.08l3.06,1.44c-.18,.3-.45,.42-1.11,.33Zm-2.31,11.25v5.82h10.53v-5.82h-10.53Zm4.98-15.33c-.21-1.23-1.26-2.67-2.28-3.42l.27-.24c6.3,.45,4.44,5.22,2.01,3.66Zm8.85,8.79c-1.11-1.95-4.05-4.32-6.3-5.55l.27-.3c9.45,1.32,8.85,6.99,6.03,5.85Z"/>
      <path class="cls-2" d="M390.99,155.46c-.09,.33-.39,.48-.81,.48h-22.08v2.4c0,3.72-.33,9.54-4.62,13.47l-.39-.33c2.49-4.11,2.73-9.06,2.73-13.14v-4.38l2.73,1.08h17.94l1.56-1.95s1.8,1.35,2.94,2.37Zm-7.17-5.37c-.75,.51-1.71,.99-2.79,1.47,3.9,1.83,3.12,3.66,1.59,3.21-.9-.66-2.28-1.44-3.99-2.25-2.7,.96-5.82,1.77-8.73,2.19l-.21-.48c2.31-.6,4.8-1.5,7.05-2.52-1.89-.78-4.05-1.53-6.36-2.1l.12-.51c3.6,.42,6.3,.99,8.28,1.62,1.38-.75,2.61-1.5,3.51-2.25h-16.56l-.27-.87h11.34c-.24-1.23-1.32-2.58-2.31-3.3l.3-.24c4.26,.33,4.68,2.7,3.72,3.54h7.59l1.53-1.92s1.8,1.32,2.88,2.31c-.09,.33-.36,.48-.81,.48h-7.14l2.37,1.47c-.21,.27-.48,.36-1.11,.15Zm3.54,15.39c-.06,.33-.36,.48-.78,.48h-6.36v3.9h5.91l1.56-1.95s1.83,1.35,2.94,2.34c-.09,.33-.39,.48-.81,.48h-21.72l-.27-.87h10.05v-3.9h-5.91l-.24-.87h6.15v-3.78h-5.16c-.96,1.5-2.13,2.79-3.36,3.69l-.42-.27c1.35-1.89,2.58-4.83,3.27-7.89l3.21,.99c-.15,.33-.51,.6-1.14,.57-.3,.69-.63,1.38-.99,2.01h4.59v-3.87l3.33,.33c-.06,.39-.27,.66-.99,.75v2.79h3.69l1.53-1.83s1.65,1.23,2.76,2.25c-.09,.33-.39,.48-.81,.48h-7.17v3.78h3.03l1.44-1.77s1.65,1.23,2.67,2.16Z"/>
      <path class="cls-2" d="M404.97,166.23c-2.79,2.34-6.9,3.96-10.08,4.65l-.15-.45c2.79-1.26,6.15-3.6,8.64-6.39l2.73,2.01c-.24,.27-.54,.36-1.14,.18Zm17.34-15.57c-.09,.33-.39,.48-.81,.48h-8.22l2.64,.81c-.15,.33-.51,.57-1.14,.51-.78,.81-1.95,1.8-3.09,2.61h4.98l1.47-1.8s1.68,1.26,2.7,2.19c-.06,.33-.36,.48-.75,.48h-10.35v2.76h5.46l1.41-1.68s1.56,1.17,2.58,2.07c-.09,.33-.39,.48-.81,.48h-8.64v2.73h8.1l1.5-1.86s1.74,1.29,2.82,2.25c-.09,.33-.39,.48-.81,.48h-11.61v8.04c0,.15-.75,.66-2.01,.66h-.39v-8.7h-11.61l-.27-.87h11.88v-2.73h-8.73l-.24-.87h8.97v-2.76h-10.2l-.24-.87h7.41l-.39-.24c-.09-1.2-.96-2.7-1.77-3.51l.27-.18h-7.05l-.27-.87h9.96v-6.06l3.12,.3c-.06,.39-.3,.66-.96,.75v5.01h2.88v-6.06l3.18,.3c-.06,.39-.3,.66-.96,.75v5.01h.93c1.14-1.59,2.4-3.84,3.15-5.55l3.18,1.17c-.18,.3-.57,.51-1.2,.45-1.05,1.23-2.7,2.73-4.29,3.93h3.96l1.5-1.8s1.68,1.23,2.76,2.19Zm-21.33-1.17c-.21-1.5-1.41-3.3-2.55-4.35l.3-.24c6.27,1.8,4.35,6.21,2.25,4.59Zm11.67,1.65h-10.05c3.93,1.05,3.84,3.36,2.76,3.93h5.37c.72-1.17,1.44-2.7,1.92-3.93Zm6.06,19.05c-1.41-1.5-4.05-3.42-7.56-5.01l.15-.45c14.01,2.61,9.69,7.56,7.41,5.46Z"/>
      <path class="cls-2" d="M452.46,146.58c-.09,.33-.36,.48-.78,.48h-21.3v20.16c0,1.32,.63,1.8,3.6,1.8h7.62c3.21,0,5.85-.06,6.78-.12,.57-.06,1.02-.12,1.41-.18,.33-.03,.84-.15,1.29-.33h.36l.18,.03c1.2,.24,1.5,.54,1.5,1.02,0,1.26-1.86,1.5-11.73,1.47h-7.17c-4.41,0-6.06-.54-6.09-3.39v-20.46h-1.14l-.27-.87h21.48l1.53-1.95s1.68,1.35,2.73,2.34Zm-19.53,21.15h-.3v-9.84l2.22,.96h3.21l1.08-1.11,2.28,1.74c-.15,.18-.54,.42-.99,.45v6.57c-.03,.21-1.08,.66-1.8,.66h-.33v-1.56h-3.6v1.44c0,.21-.9,.69-1.77,.69Zm5.37-8.01h-3.6v5.01h3.6v-5.01Zm-2.61-2.37h-.33v-9l2.46,1.05h6.93l1.2-1.26,2.55,1.92c-.18,.21-.6,.42-1.14,.54v5.67c-.03,.18-1.2,.66-1.95,.66h-.36v-1.29h-7.38v.99c0,.21-1.02,.72-1.98,.72Zm9.36-7.08h-7.38v4.5h7.38v-4.5Zm-2.01,17.04h-.33v-9.42l2.25,.96h3.21l1.11-1.17,2.4,1.83c-.18,.18-.6,.39-1.08,.48v6.39c-.03,.18-1.11,.66-1.8,.66h-.36v-1.44h-3.63v1.02c0,.21-.9,.69-1.77,.69Zm5.4-7.59h-3.63v5.01h3.63v-5.01Z"/>
      <path class="cls-2" d="M465.06,145.68l-.75,1.32h4.5l1.29-1.65s1.47,1.17,2.37,2.04c-.09,.33-.39,.48-.75,.48h-7.98c-1.53,2.22-3.36,4.05-5.25,5.28l-.39-.36c1.8-1.98,3.66-5.31,4.74-8.76l3.33,1.14c-.12,.3-.48,.57-1.11,.51Zm20.13,16.89c-.09,.33-.36,.48-.78,.48h-6.78v5.64c0,1.8-.39,2.85-3.69,3.15-.12-.72-.3-1.26-.72-1.62-.51-.33-1.32-.63-2.88-.84v-.42s3.51,.24,4.17,.24c.57,0,.75-.18,.75-.6v-5.55h-16.35l-.27-.87h16.62v-2.67l3.42,.36c-.09,.42-.36,.66-1.05,.75v1.56h3.45l1.44-1.83s1.65,1.29,2.67,2.22Zm-1.2-8.1c-.09,.33-.39,.48-.81,.48h-10.35v3.15h5.58l1.47-1.8s1.65,1.26,2.67,2.22c-.06,.33-.36,.48-.81,.48h-20.16l-.24-.9h9.12v-3.15h-10.2l-.27-.9h10.47v-2.82l3.21,.33c-.03,.36-.24,.6-.84,.69v1.8h7.29l1.35-1.65s1.53,1.17,2.52,2.07Zm-16.65,14.49c-.48-1.68-2.22-3.72-3.72-4.86l.27-.24c7.74,1.44,6.03,6.72,3.45,5.1Zm-.9-17.01c-.21-1.11-1.2-2.46-2.1-3.18l.3-.24c5.43,1.05,3.66,4.8,1.8,3.42Zm9.87-6.21c-.27,.45-.54,.87-.84,1.26h5.58l1.44-1.83s1.62,1.26,2.61,2.22c-.06,.33-.33,.48-.78,.48h-9.54c-1.08,1.32-2.34,2.4-3.63,3.15l-.39-.3c1.29-1.56,2.61-4.11,3.42-6.75l3.27,1.29c-.12,.33-.51,.57-1.14,.48Zm1.95,6.27c-.24-1.14-1.32-2.52-2.31-3.27l.3-.24c5.76,.9,4.05,4.95,2.01,3.51Z"/>
      <path class="cls-2" d="M499.83,151.2c-1.02,8.31-3.75,15.81-10.14,20.58l-.36-.3c5.07-4.95,7.41-13.05,7.89-21.51l3.81,.75c-.09,.36-.33,.51-1.2,.48Zm6.6-6.12l3.09,2.28c-.42,.48-1.32,.75-2.55,.84,1.08,8.85,3.6,16.92,10.35,20.97l-.15,.36c-1.17,.33-2.13,1.29-2.55,2.31-5.88-5.01-7.71-13.08-8.55-24.18h-3.63l-.27-.87h3.09l1.17-1.71Z"/>
      <path class="cls-2" d="M536.7,144.63c-.09,.42-.36,.75-1.08,.84-.06,2.61-.09,5.13-.33,7.59h8.13l1.77-2.22s2.04,1.53,3.27,2.64c-.06,.33-.39,.48-.81,.48h-11.94c1.08,5.64,4.35,11.52,13.11,15.39l-.03,.33c-1.32,.18-2.13,.81-2.43,2.22-7.95-4.5-10.32-11.73-11.19-17.73-.84,7.05-3.66,13.23-14.13,17.7l-.33-.51c8.67-4.77,11.19-10.68,11.91-17.4h-11.34l-.27-.9h11.7c.24-2.79,.21-5.73,.21-8.79l3.78,.36Z"/>
      <path class="cls-2" d="M554.64,171.84h-.42v-27.18l2.61,1.2h18.69l1.32-1.44,2.7,2.16c-.21,.27-.69,.45-1.29,.6v23.58c-.03,.21-1.17,.84-2.04,.84h-.39v-1.95h-19.23v1.23c0,.36-.87,.96-1.95,.96Zm1.95-25.08v22.02h19.23v-22.02h-19.23Zm3.42,14.61h-.3v-6.6l2.25,.99h8.13l1.05-1.11,2.25,1.71c-.12,.18-.51,.39-.93,.45v3.48l1.86,1.74c-.15,.21-.42,.24-.93,.03-.69,.36-1.71,.84-2.67,1.29,4.74,2.4,3.45,5.04,1.71,4.14-.99-1.41-3.66-3.69-6.99-5.43l.21-.48c1.71,.42,3.09,.87,4.2,1.35,.75-.72,1.56-1.62,2.19-2.37-.36,.18-.93,.36-1.35,.36h-.36v-.63h-3.99c-.81,.78-1.77,1.5-2.85,2.13v3.18l4.26-1.23,.15,.45c-1.14,.6-3.36,1.89-5.64,3.03-.12,.27-.3,.45-.45,.54l-1.38-1.8c.87-.6,1.02-.81,1.02-1.2v-1.92c-1.38,.6-2.85,1.11-4.38,1.53l-.3-.51c2.73-1.05,5.19-2.52,6.93-4.2h-1.89v.45c0,.18-.93,.63-1.8,.63Zm7.05-12.96v1.62h3.06l1.26-1.53s1.41,1.08,2.34,1.92c-.09,.33-.36,.48-.78,.48h-5.88v2.16h4.41l1.29-1.59s1.5,1.11,2.43,1.98c-.09,.33-.39,.48-.81,.48h-16.74l-.24-.87h7.47v-2.16h-5.82l-.24-.87h6.06v-2.61l3.06,.3c-.06,.36-.27,.6-.87,.69Zm-5.25,8.22v2.79h8.52v-2.79h-8.52Z"/>
      <path class="cls-2" d="M609.96,146.58c-.09,.33-.36,.48-.78,.48h-21.3v20.16c0,1.32,.63,1.8,3.6,1.8h7.62c3.21,0,5.85-.06,6.78-.12,.57-.06,1.02-.12,1.41-.18,.33-.03,.84-.15,1.29-.33h.36l.18,.03c1.2,.24,1.5,.54,1.5,1.02,0,1.26-1.86,1.5-11.73,1.47h-7.17c-4.41,0-6.06-.54-6.09-3.39v-20.46h-1.14l-.27-.87h21.48l1.53-1.95s1.68,1.35,2.73,2.34Zm-19.53,21.15h-.3v-9.84l2.22,.96h3.21l1.08-1.11,2.28,1.74c-.15,.18-.54,.42-.99,.45v6.57c-.03,.21-1.08,.66-1.8,.66h-.33v-1.56h-3.6v1.44c0,.21-.9,.69-1.77,.69Zm5.37-8.01h-3.6v5.01h3.6v-5.01Zm-2.61-2.37h-.33v-9l2.46,1.05h6.93l1.2-1.26,2.55,1.92c-.18,.21-.6,.42-1.14,.54v5.67c-.03,.18-1.2,.66-1.95,.66h-.36v-1.29h-7.38v.99c0,.21-1.02,.72-1.98,.72Zm9.36-7.08h-7.38v4.5h7.38v-4.5Zm-2.01,17.04h-.33v-9.42l2.25,.96h3.21l1.11-1.17,2.4,1.83c-.18,.18-.6,.39-1.08,.48v6.39c-.03,.18-1.11,.66-1.8,.66h-.36v-1.44h-3.63v1.02c0,.21-.9,.69-1.77,.69Zm5.4-7.59h-3.63v5.01h3.63v-5.01Z"/>
    </g>
  </g>
</svg>