<?xml version="1.0" encoding="UTF-8"?>
<svg id="_圖層_2" data-name="圖層 2" xmlns="http://www.w3.org/2000/svg" xmlns:xlink="http://www.w3.org/1999/xlink" viewBox="0 0 653.73 120.97">
  <defs>
    <style>
      .cls-1 {
        fill: #fff;
      }

      .cls-2 {
        filter: url(#drop-shadow-1);
      }

      .cls-3 {
        fill: #fff000;
      }

      .cls-4 {
        filter: url(#drop-shadow-2);
      }
    </style>
    <filter id="drop-shadow-1" filterUnits="userSpaceOnUse">
      <feOffset dx="0" dy="0"/>
      <feGaussianBlur result="blur" stdDeviation="5.08"/>
      <feFlood flood-color="#231815" flood-opacity=".95"/>
      <feComposite in2="blur" operator="in"/>
      <feComposite in="SourceGraphic"/>
    </filter>
    <filter id="drop-shadow-2" filterUnits="userSpaceOnUse">
      <feOffset dx="0" dy="0"/>
      <feGaussianBlur result="blur-2" stdDeviation="5.08"/>
      <feFlood flood-color="#231815" flood-opacity=".95"/>
      <feComposite in2="blur-2" operator="in"/>
      <feComposite in="SourceGraphic"/>
    </filter>
  </defs>
  <g id="_圖層_1-2" data-name="圖層 1">
    <g class="cls-2">
      <path class="cls-3" d="M38.87,84.47c-.3,.39-.86,.73-1.72,.95v33.45c-.09,.43-2.75,1.81-4.94,1.81h-.9v-3.4H5.72v1.46c0,.73-2.32,2.15-4.77,2.15H0v-40.08l6.19,2.45H30.87l2.71-3.01,5.29,4.21Zm-7.57,31.6v-19.87c-.3,.26-.82,.39-1.5,.3-1.25,3.48-2.84,6.41-4.64,8.86,.47,.95,1.03,1.81,1.68,2.54,.43,.56,.65,.52,.99-.09,.56-.95,1.38-2.79,1.98-4.34l.43,.13-.73,6.02c1.2,2.28,1.42,3.53,.73,4.26-1.85,1.81-4.9,.17-6.23-1.33-.9-1.08-1.68-2.19-2.36-3.4-2.84,2.54-6.19,4.39-10.06,5.72l-.39-.47c3.35-2.11,6.45-4.99,8.9-8.6-1.08-2.92-1.72-6.11-2.06-9.5-.22,.09-.43,.17-.69,.22v6.23c0,.34-1.98,1.29-3.4,1.29h-.69v-1.25h-1.68v.77c0,.3-1.76,1.2-3.4,1.2h-.56v-11.48l4.13,1.68h1.2l1.81-1.85,3.18,2.36c-.13-1.12-.21-2.28-.26-3.44H6.79l-.34-1.2h11.18c-.09-1.85-.13-3.7-.13-5.63l6.49,1.07c-.09,.52-.52,.99-1.5,1.07v3.48h2.15l1.33-1.76c-.39-1.42-1.29-2.88-2.06-3.74l.39-.26c6.41,.13,6.49,3.57,4.64,4.69,.65,.52,1.29,1.07,1.81,1.59-.13,.47-.56,.69-1.16,.69h-7.05c.09,2.71,.3,5.33,.77,7.74,.86-2.02,1.55-4.26,2.02-6.62l5.98,2.54v-11.22H5.72v31.6H31.3Zm-12.99-10.71c-1.63,1.38-4.26,3.35-8.08,5.89-.22,.6-.65,.99-1.16,1.12l-2.71-5.89c2.11-.17,7.05-.82,11.91-1.55l.04,.43Zm-5.07-9.2h-1.68v5.42h1.68v-5.42Z"/>
      <path class="cls-3" d="M82.52,98.57c-.26,.34-.69,.56-1.68,.3-2.71,.99-6.32,1.98-10.1,2.84,2.88,5.8,8.64,8.73,14.36,10.53l-.09,.47c-2.32,.52-4.04,2.41-4.9,5.29-5.25-3.61-8.56-8.08-10.32-16.08-.95,.17-1.89,.39-2.84,.56,3.61,6.11,3.35,13.42,1.12,16.34-1.2,1.55-3.7,2.06-7.09,2.06-.04-1.72-.39-2.97-1.08-3.83-.56-.69-1.85-1.33-3.65-1.85v-.43c1.81,.17,4.51,.34,5.55,.34,.6,0,1.07-.09,1.29-.47,.34-.69,.65-1.89,.73-3.35-5.12,2.88-11.82,5.33-18.58,6.45l-.26-.56c7.18-2.58,14.36-7.78,18.36-13.11l-.04-.3c-4.47,2.71-10.84,5.33-16.81,6.79l-.21-.47c5.29-2.62,10.96-7.48,14.28-11.78-4.04,2.19-8.86,3.91-13.8,5.12l-.26-.47c4.95-2.41,9.46-6.19,12.43-9.5h-7.35l-.34-1.2h19.78l3.01-3.83s1.68,1.29,3.4,2.67c.09-1.16,.09-2.62,.09-3.83h-25.71c.39,3.18-.69,5.42-2.28,6.41-1.5,.95-3.83,.43-4.47-1.46-.56-1.81,.52-3.18,2.02-3.87,1.42-.77,3.18-2.75,3.14-4.9h.52c.39,.9,.65,1.81,.86,2.62h11.52c-.17-.09-.3-.17-.47-.26-.17-2.06-1.38-4.17-2.79-5.33l.26-.21c9.46-1.16,9.46,4.17,6.62,5.8h10.32l2.92-2.97,5.12,4.82c-.34,.39-.77,.52-1.68,.56-1.29,1.07-3.44,2.41-5.25,3.27,.47,.34,.86,.69,1.25,1.03-.09,.47-.6,.69-1.2,.69h-10.84c-1.38,1.38-3.05,2.67-4.94,3.83,1.55,1.2,2.84,2.62,3.83,4.08,3.83-2.41,8-5.76,10.19-7.91l6.11,5.12Z"/>
      <path class="cls-3" d="M94.47,108.33c2.06,4.77,2.06,8.43,.73,10.45-.99,1.42-3.65,1.33-4.6-.39-.77-1.55-.09-3.05,1.25-4,.95-1.12,2.36-3.78,2.06-6.06h.56Zm-3.53-5.63s1.16-.26,1.68-.6c1.89-1.29,4.26-4.08,6.23-7.05-1.29,.6-2.75,1.29-4.3,1.93-.3,.52-.69,.86-1.12,1.03l-2.49-5.85s.99-.26,1.42-.56c1.98-1.89,4.64-8.13,5.33-11.48l6.75,3.4c-.17,.39-.69,.65-1.46,.6-1.98,2.58-5.38,6.02-8.39,8.21,1.72,0,3.83,0,6.02-.04,.9-1.55,1.63-2.97,2.06-4.17l6.02,4.13c-.21,.39-.77,.64-1.63,.43-2.45,2.97-7.27,7.18-11.61,9.93,2.15-.13,4.82-.3,7.57-.47-.34-1.29-.86-2.54-1.33-3.57l.43-.22c9.98,3.57,5.29,11.01,1.51,7.48,0-.73-.09-1.5-.26-2.24-2.32,1.16-5.55,2.67-9.2,4.13-.34,.43-.77,.77-1.2,.9l-2.02-5.93Zm6.88,5.12c8.81,5.33,3.18,12.47-.17,8.3,.43-2.71,.17-5.8-.34-8.13l.52-.17Zm33.54-11.05c-.26,.47-.69,.65-1.72,.77-1.2,4.69-3.05,9.07-5.93,12.81,2.49,2.15,5.33,3.74,8.38,5.07l-.13,.47c-2.49,.34-4.51,2.11-5.55,4.95-2.49-1.98-4.56-4.13-6.19-6.75-3.18,2.84-7.31,5.16-12.6,6.75l-.3-.47c4.77-2.54,8.34-5.98,10.96-9.98-1.5-3.61-2.54-8.08-3.14-13.89h-.21c-.65,9.5-2.75,17.84-10.02,24.34l-.56-.6c1.12-2.06,2.02-4.17,2.71-6.32-.86,.65-2.15,.73-3.4-.34,0-2.11-.95-4.6-2.02-6.19l.43-.22c3.66,.9,5.33,2.45,5.76,3.91,2.02-8.08,1.76-16.98,1.76-26.36h-2.45l-.39-1.2h13.07l2.19-2.58,5.38,3.91c-.34,.43-.73,.56-1.59,.69l-1.03,8.26,1.51-1.5,5.07,4.47Zm-16.08-12.04c-.04,3.65-.09,7.18-.26,10.58h3.96l1.16-10.58h-4.86Zm.56,11.78c.9,4.26,2.45,7.61,4.51,10.28,1.55-3.18,2.62-6.66,3.27-10.28h-7.78Z"/>
      <path class="cls-3" d="M174.54,106.31s2.19,2.15,3.35,3.57c-.13,.47-.52,.69-1.12,.69h-16.47l6.19,3.7c-.22,.39-.65,.64-1.63,.52-2.97,2.54-7.78,4.86-12.86,5.98l-.3-.43c3.48-2.54,6.71-6.66,8.21-9.76h-5.33l-.34-1.2h3.35v-14.71h-2.36l-.34-1.2h2.71v-2.71c-1.55,1.29-3.22,2.36-4.94,3.27l-.43-.34c.64-.99,1.29-2.15,1.89-3.44h-7.31c0,2.19,.04,4.34,0,6.49h1.85l2.88-2.84,4.86,4.17c-.3,.39-.86,.69-1.81,.82-.43,13.59-1.2,17.84-3.53,19.82-1.46,1.25-3.22,1.81-5.55,1.81,0-1.76-.09-3.01-.6-3.78-.52-.69-1.2-1.25-2.36-1.63-1.38,2.15-3.22,4.13-5.63,5.8l-.3-.39c5.55-8.81,4.82-19.52,4.34-30.27h-3.66l-.34-1.2h11.35l2.71-3.74s2.11,1.72,3.83,3.27c1.07-2.67,2.02-5.68,2.58-8.69l7.95,2.75c-.17,.56-.77,.9-1.76,.86-.56,1.03-1.2,1.98-1.85,2.84h7.44l3.14-4.3s3.53,2.88,5.55,4.82c-.13,.47-.6,.69-1.2,.69h-15.87c-.43,.52-.82,.99-1.29,1.42l4.77,.43c-.09,.47-.34,.82-1.2,.99v3.1h3.96v-4.69l6.71,.6c-.04,.47-.3,.82-1.2,.99v3.1h.13l1.68-2.49s1.94,1.76,3.05,3.01c-.09,.47-.52,.69-1.07,.69h-3.78v14.71h.09l1.89-3.05Zm-33.28-26.14c12.21,1.93,6.84,11.14,2.06,7.18-.09-2.45-1.2-5.16-2.41-6.97l.34-.21Zm5.5,17.76c-.22,6.11-.99,11.82-3.83,16.55,.99,.09,2.11,.13,2.75,.13,.6,0,.95-.13,1.29-.43,1.2-1.03,1.76-5.68,2.11-16.25h-2.32Zm16.34-3.27v4.04h3.96v-4.04h-3.96Zm0,9.37h3.96v-4.13h-3.96v4.13Zm0,5.33h3.96v-4.13h-3.96v4.13Zm3.31,1.85c14.79,.86,11.78,11.7,6.19,8.81-1.16-3.05-4.04-6.45-6.54-8.51l.34-.3Z"/>
      <path class="cls-3" d="M221.84,115.21s1.89,2.15,2.84,3.53c-.09,.47-.52,.69-1.07,.69h-26.7l-.04-.17c-.77,.82-2.11,1.33-4.39,1.55-.09-1.46-.26-2.62-.69-3.27-.47-.69-1.16-1.16-2.67-1.46v-.6s2.79,.17,3.48,.17c.6,0,.73-.26,.73-.77v-4.73c-.77,1.16-2.15,1.42-2.84,.04,.26-1.81,.3-5.12-.69-7.52-.09,6.32-.77,13.24-6.54,18.23l-.56-.34c2.45-4.82,2.75-10.92,2.79-16.98l-.64,.17c-.26,.56-.77,.9-1.29,.99l-1.16-5.25c.82,0,1.89,0,3.1-.04v-14.71l4.04,1.5c.13-1.76,.22-4.3,.26-6.11l6.84,1.42c-.17,.69-.73,1.03-1.72,1.07-.99,1.12-2.49,2.75-3.66,3.96h1.68l2.02-2.32,4.21,3.23v-5.93l4.99,2.36h2.45l2.28-2.97s2.58,2.02,4.17,3.48c-.13,.47-.56,.69-1.16,.69h-3.78v3.87l1.33-1.33,3.61,2.71c-.17,.22-.65,.52-1.25,.65v5.55c-.04,.3-1.94,1.03-3.14,1.03h-.56v3.96h.3l1.94-3.14s2.24,2.19,3.44,3.66c-.09,.47-.52,.69-1.07,.69h-8.9l-1.16,1.55-4.39-2.06c.21-.3,.56-.65,.9-.99v-2.11l-1.29,.47v15.74c0,1.16-.09,2.11-.39,2.88h2.28v-14.23l4.99,1.93h10.19l2.06-2.67,5.07,3.48c-.3,.47-.82,.69-1.94,.86v10.62h.04l1.63-3.01Zm-32.03-27.43v1.55l.17-.09c1.76,1.25,2.8,2.54,3.35,3.74v-5.2h-3.53Zm0,11.44c1.12-.09,2.32-.17,3.53-.26v-2.06c-.73,1.12-2.06,1.42-2.84,.09,.13-1.55,.09-4.3-.69-6.45v8.69Zm.6,3.1c1.5,1.2,2.41,2.45,2.92,3.53v-4.64c-1.12,.34-2.28,.73-3.53,1.12v.26l.6-.26Zm8.77-14.53c-.26,.26-.73,.47-1.29,.6v10.15l1.29-.13v-10.62Zm4.43,1.63h1.25v-4.3h-1.25v4.3Zm0,6.19h4.43v-4.99h-4.43v4.99Zm1.25,5.93v-4.73h-1.25v4.73h1.25Zm-.52,16.68h1.16v-11.09h-1.16v11.09Zm6.11-11.09h-1.33v11.09h1.33v-11.09Zm1.55-10.84c1.46-4,2.62-9.8,3.01-15.18l6.58,1.68c-.17,.56-.69,.95-1.63,.99-.65,1.98-1.38,3.87-2.24,5.63h1.2l1.85-2.71s2.06,1.94,3.27,3.23c-.13,.47-.52,.69-1.12,.69h-5.85c-1.29,2.32-2.75,4.34-4.47,5.98l-.6-.3Zm7.7,.09s2.49,2.36,3.87,3.91c-.09,.47-.52,.69-1.12,.69h-9.33l-.34-1.2h4.73l2.19-3.4Zm-5.55,10.75v11.09h1.25v-11.09h-1.25Z"/>
      <path class="cls-3" d="M247.55,84.98s3.01,2.36,4.82,4c-.09,.47-.56,.69-1.16,.69h-21.59l-.34-1.2h15.57l2.71-3.48Zm-4.9,9.07l2.67-3.44s3.01,2.32,4.77,3.96c-.13,.47-.56,.69-1.16,.69h-17.07l-.34-1.2h11.14Zm2.67,2.19s3.01,2.32,4.77,3.96c-.13,.47-.56,.69-1.16,.69h-17.07l-.34-1.2h11.14l2.67-3.44Zm.04,6.67l5.16,3.91c-.26,.3-.77,.69-1.63,.86v9.5c-.04,.34-2.75,1.46-4.64,1.46h-.95v-2.54h-5.5v2.45c0,.52-2.41,1.72-4.69,1.72h-.77v-16.86l5.63,2.19h4.9l2.49-2.71Zm-9.98-22.45c13.29-.39,8.3,10.06,2.75,6.41-.34-2.32-1.68-4.73-3.01-6.19l.26-.22Zm7.91,34.44v-8.08h-5.5v8.08h5.5Zm22.4-22.57s3.18,2.58,5.03,4.3c-.13,.47-.6,.69-1.2,.69h-7.22v21.28c0,.6-2.62,2.11-4.95,2.11h-1.16v-23.39h-6.32l-.34-1.2h6.66v-15.82l7.7,.73c-.09,.6-.39,1.07-1.59,1.25v13.85h.6l2.79-3.78Z"/>
      <path class="cls-3" d="M301.52,110.78v-22.14c-.13,.04-.26,.04-.39,.04h-3.61v3.74c0,.22-.82,.65-1.81,.99,.9,.73,2.41,1.85,3.48,2.79-.13,.47-.56,.69-1.16,.69h-2.06c.95,.69,2.88,2.15,4.21,3.31-.13,.47-.6,.69-1.2,.69h-4.08l4.04,3.01c-.17,.26-.64,.56-1.33,.73v7.22c-.04,.34-2.67,1.25-4.34,1.25h-.95v-.82h-9.5v.17c0,.34-1.55,1.42-4.17,1.42h-.9v-12.99h-1.89l-.34-1.2h9.16v-2.79h-7.65l-.34-1.2h8v-2.84h-6.71l-.39-1.2h7.09v-2.97h-8.77l-.34-1.2h9.12v-2.88h-6.58l-.39-1.2h6.97v-3.22l6.49,.56c-.09,.52-.34,.86-1.2,1.03v1.63h2.11l2.19-2.24,4.43,3.31c-.17,.22-.56,.47-1.16,.6v2.41h.04l1.68-2.45s1.25,1.16,2.28,2.24v-3.44l6.66,.6c-.09,.56-.39,.95-1.42,1.12v23.78c0,.43-2.28,1.46-4.26,1.46h-.99Zm-25.93,3.91c4.34-.09,14.45-.52,25.07-1.16l.04,.56c-4.43,1.59-11.01,3.4-21.11,5.89-.3,.56-.77,.9-1.29,.99l-2.71-6.28Zm18.15-13.8h-15.44l5.07,1.89h8.56l1.81-1.89Zm-10.92,5.93h2.28v-2.84h-2.28v2.84Zm0,4.26h2.28v-3.05h-2.28v3.05Zm7.14-23.61h2.45v-2.88h-2.45v2.88Zm2.45,1.2h-2.45v2.97h2.45v-2.97Zm1.55,5.16c-.22,.04-.43,.04-.65,.04h-.9v-1.03h-2.45v2.84h2.49l1.5-1.85Zm1.2,3.05h-5.2v2.79h2.92l2.28-2.79Zm-5.2,9.93h2.36v-2.84h-2.36v2.84Zm2.36,4.26v-3.05h-2.36v3.05h2.36Zm24.04-29.71c-.09,.65-.52,1.03-1.59,1.2v31.69c0,3.87-.86,5.98-7.22,6.58-.17-1.85-.43-3.14-1.2-4-.77-.9-1.76-1.5-4.17-1.94v-.56s5.03,.3,6.06,.3c.73,0,.95-.26,.95-.77v-33.2l7.18,.69Z"/>
      <path class="cls-3" d="M335.57,120.46c7.44-6.58,11.09-18.7,11.74-31.39l8.6,1.55c-.13,.52-.47,.82-1.72,.82-2.28,13.37-7.14,23.18-18.32,29.33l-.3-.3Zm30.49-35.47c-.73,.82-2.36,1.29-4.56,1.46,1.76,12.43,6.06,22.57,15.69,27.65l-.26,.56c-2.8,1.03-5.07,3.7-5.93,6.28-7.57-7.35-9.8-18.62-10.66-35.47h-6.02l-.39-1.2h4.94l2.02-3.05,5.16,3.78Z"/>
      <path class="cls-3" d="M404.5,94.4c1.46,7.87,6.71,15.39,18.32,19.69l-.04,.52c-3.18,.65-5.03,2.71-5.55,6.32-9.03-5.8-12.13-16.34-13.24-24.94-1.38,10.36-5.8,19.05-21.89,24.94l-.34-.56c11.7-7.52,14.83-16.08,15.69-25.97h-14.96l-.34-1.2h15.39c.26-4.08,.21-8.38,.21-12.94l8.56,.77c-.13,.69-.56,1.07-1.59,1.25-.09,3.78-.13,7.44-.43,10.92h8.3l3.57-4.51s4,3.01,6.41,5.03c-.13,.47-.65,.69-1.29,.69h-16.77Z"/>
      <path class="cls-3" d="M446.12,98.87c-1.29,1.12-2.92,2.45-5.07,4v15.91c0,.6-2.49,2.02-4.64,2.02h-1.12v-13.97c-.73,.47-1.46,.95-2.24,1.46-.17,.56-.6,1.03-1.12,1.2l-3.83-6.45c1.5-.3,4.08-.95,7.18-1.72v-8.86h-2.02c-1.08,3.53-2.49,6.75-4.3,9.2l-.65-.3c.82-4.69,1.2-11.22,1.12-16.81l5.85,.95v-5.33l7.35,.73c-.09,.6-.39,1.03-1.59,1.2v7.61l1.42-2.45s2.71,2.75,4.04,4.51c-.09,.47-.52,.69-1.12,.69h-4.34v7.4c1.63-.47,3.31-.9,4.99-1.38l.09,.39Zm-10.84-7.61v-4.64c-.17,.04-.39,.09-.64,.13-.3,1.55-.65,3.05-1.03,4.51h1.68Zm28.98,7.7s3.14,2.54,4.99,4.26c-.09,.47-.56,.69-1.16,.69h-6.58v10.49c0,3.96-1.03,6.02-7.95,6.58-.17-1.81-.43-3.05-1.33-3.91-.9-.86-1.94-1.46-4.69-1.94v-.52s5.93,.34,7.01,.34c.69,0,.9-.22,.9-.77v-10.28h-12.21l-.34-1.2h12.56v-5.46l7.52,.65c-.09,.65-.52,.99-1.46,1.12v3.66l2.75-3.7Zm-20.34-11.05h8.08v-7.91l7.4,.6c-.04,.56-.34,.95-1.38,1.12v6.19h2.28l2.97-3.91s3.4,2.62,5.42,4.43c-.13,.47-.6,.69-1.25,.69h-9.42v6.58h1.5l2.84-3.74s3.23,2.54,5.16,4.26c-.09,.47-.56,.69-1.2,.69h-20.64l-.34-1.2h6.66v-6.58h-7.74l-.34-1.2Zm1.38,16.51c13.24,2.11,8.56,12,3.35,8.3-.56-2.84-2.24-5.89-3.7-8.08l.34-.22Z"/>
      <path class="cls-3" d="M510.8,114.09c2.88,.47,3.57,1.38,3.57,2.32,0,2.75-3.01,3.27-17.72,3.27h-8.94c-7.52,0-11.09-.69-11.09-6.11v-29.11h-1.42l-.34-1.2h30.06l2.88-3.87s3.23,2.62,5.16,4.39c-.13,.47-.6,.69-1.2,.69h-29.41v28.29c0,1.94,1.29,2.45,4.73,2.45h10.02c2.97,0,5.89-.09,7.22-.17,.86-.04,2.11-.22,2.88-.3,.73-.09,1.81-.34,2.92-.73h.43l.26,.09Zm-19.39-.77v-2.15h-2.19v1.76c0,.43-2.19,1.5-4.26,1.5h-.69v-14.92l5.07,2.02h1.68l2.24-2.32,4.56,3.4c-.21,.26-.69,.6-1.38,.73v8.77c-.04,.3-2.54,1.2-4.17,1.2h-.86Zm9.46-16.81h-7.14v1.12c0,.52-2.62,1.76-4.99,1.76h-.82v-13.8l6.02,2.28h6.49l2.58-2.75,5.29,3.96c-.26,.3-.73,.65-1.55,.82v7.4c-.04,.3-3.01,1.29-4.86,1.29h-1.03v-2.06Zm-9.46,13.46v-7.22h-2.19v7.22h2.19Zm9.46-14.66v-6.24h-7.14v6.24h7.14Zm4.9,17.84v-1.98h-2.36v1.03c0,.47-2.24,1.55-4.3,1.55h-.73v-14.23l5.2,2.02h1.81l2.28-2.36,4.64,3.48c-.21,.26-.69,.56-1.38,.69v8.56c-.04,.3-2.62,1.25-4.26,1.25h-.9Zm0-3.18v-7.22h-2.36v7.22h2.36Z"/>
      <path class="cls-3" d="M556.16,91.13s3.53,2.92,5.55,4.86c-.09,.47-.6,.69-1.2,.69h-3.01v22.53c-.04,.34-1.85,1.63-4.99,1.63h-1.12v-24.17h-2.88v1.68c0,7.78-.77,16.9-11.52,22.49l-.39-.43c5.42-6.32,5.93-14.36,5.93-22.23v-1.03c-.17,.04-.39,.09-.6,.09h-7.87v5.03h1.03l2.41-3.4s2.71,2.32,4.3,3.91c-.13,.47-.56,.69-1.16,.69h-6.58v1.76l.13-.04c10.49,3.96,5.42,12.13,1.46,8.26,.13-2.49-.6-5.29-1.59-7.4v13.42c0,.3-1.76,1.33-4.82,1.33h-1.07v-11.18c-1.68,2.84-4.04,5.93-7.05,8.08l-.43-.43c1.94-3.61,3.14-9.07,3.53-12.6l3.96,1.76v-2.97h-6.49l-.34-1.2h6.84v-5.03h-7.4l-.34-1.2h6.45c-.52-.17-1.03-.47-1.5-.99,.13-2.41-.56-5.12-1.25-7.09h-2.67l-.34-1.2h8.17c-.3-.17-.6-.34-.9-.6,0-2.15-.9-4.43-1.89-5.89l.3-.22c8.43,.73,8.21,5.33,5.68,6.71h2.24l2.45-3.4s2.79,2.32,4.43,3.91c-.13,.47-.56,.69-1.16,.69h-5.72l5.63,1.72c-.17,.52-.65,.86-1.59,.77-1.33,1.63-3.4,3.78-5.46,5.59h2.71l2.54-3.57s2.32,1.98,4,3.57v-12.47l5.8,1.81c2.54-1.68,5.07-3.83,6.49-5.38l6.23,4.94c-.52,.47-1.42,.6-2.88,.17-2.41,.77-6.06,1.5-9.67,1.94v8.43h4.56l3.1-4.34Zm-31.17-3.18c6.84,2.79,5.89,7.31,3.44,8.08h3.53c.69-2.45,1.25-5.68,1.59-8.08h-8.56Z"/>
      <path class="cls-3" d="M583.6,91.3c-.39,.43-.86,.56-1.89,.69-.95,2.02-2.19,4.17-3.7,6.19,9.2,3.22,4.56,10.49,.56,7.05-.09-1.25-.39-2.62-.82-3.87v17.63c0,.34-1.81,1.72-4.64,1.72h-1.07v-16.04c-1.72,1.46-3.57,2.79-5.5,3.87l-.34-.34c4.51-5.03,8.04-11.87,9.5-17.59h-8.26l-.39-1.2h8.34l3.1-3.01,5.12,4.9Zm-12.43-11.09c12.17,1.59,5.63,10.19,.99,5.93,.09-2.11-.6-4.26-1.29-5.76l.3-.17Zm35.47,33.71c1.25,.65,1.46,1.33,1.46,2.41,0,2.15-1.72,3.35-6.54,3.35h-2.32c-4,0-4.47-1.16-4.47-4.73v-10.71h-.86c-.6,6.49-2.67,12.64-13.8,16.64l-.43-.52c6.36-4.43,7.52-9.29,7.83-14.15-.77,.22-1.63,.39-2.49,.39h-.9v-25.41l6.15,2.41h8.21l2.62-2.92,5.37,4.17c-.3,.34-.86,.73-1.72,.9v18.83c-.09,.3-2.28,1.2-4.13,1.42v7.48c0,.52,.09,.69,.65,.69h2.02c.39,0,.56-.13,.82-.52,.39-.69,1.12-2.71,1.98-5.2h.43l.13,5.46Zm-16.64-29.11v5.33h8.9v-5.33h-8.9Zm8.9,6.54h-8.9v4.99h8.9v-4.99Zm-8.9,11.7h8.9v-5.5h-8.9v5.5Z"/>
      <path class="cls-3" d="M637.99,98.4c3.53,3.31,10.02,4.64,15.74,5.12l-.04,.52c-2.24,.69-3.7,2.71-4.26,5.68-2.54-.99-4.82-2.19-6.75-3.65v13.33c0,.39-2.84,1.5-4.9,1.5h-1.2v-17.89l3.22,.26c-1.16-1.38-2.15-2.97-2.92-4.86h-3.22c-1.38,1.98-3.22,3.7-5.42,5.16l3.44,.3c-.04,.56-.39,.99-1.38,1.12v3.61c-.13,5.07-2.62,10.23-16.17,12.38l-.21-.39c8.86-3.14,10.28-7.7,10.28-12.08v-2.75c-3.18,1.42-6.92,2.54-11.09,3.31l-.26-.52c6.02-2.28,10.58-5.93,13.2-10.15h-1.59v.43c0,.6-2.67,1.98-5.2,1.98h-.9v-20.47l6.54,2.49h17.11l2.71-3.01,5.63,4.26c-.26,.34-.77,.77-1.68,.95v13.76c-.04,.34-3.14,1.42-5.16,1.42h-1.07v-1.81h-4.43Zm-13.54-14.36v5.85h5.76v-5.85h-5.76Zm0,13.16h5.76v-6.11h-5.76v6.11Zm11.78-13.16v5.85h6.19v-5.85h-6.19Zm6.19,13.16v-6.11h-6.19v6.11h6.19Z"/>
    </g>
    <g class="cls-4">
      <path class="cls-1" d="M221.6,35.53c2.43,5.67,2.38,9.99,.7,12.26-1.24,1.62-4.54,1.4-5.62-.81-.92-1.94,.05-3.83,1.73-4.97,1.13-1.19,2.86-4.1,2.48-6.48h.7Zm40.18-20.47s3.73,3.35,5.78,5.56c-.16,.59-.7,.86-1.51,.86h-12.26v21.76c0,4.32-.97,7.02-7.99,7.56-.05-2-.22-3.46-.81-4.37-.54-.92-1.35-1.62-3.56-2v-.7s3.62,.22,4.54,.22c.76,0,.92-.32,.92-.86V21.49h-11.02l-.43-1.51h14.53l1.35-3.83h-6.8l-2.54,2.86-5.29-3.35c-.32,.32-1.03,.59-1.94,.38-2.86,3.78-8.37,8.96-13.23,12.37,2.48-.11,5.72-.27,9.13-.54-.16-1.84-.54-3.62-.97-5.08l.59-.22c12.2,5.78,4.91,15.12,.32,9.88,.11-.81,.16-1.62,.16-2.48-2.81,1.4-6.53,3.13-10.64,4.81-.38,.43-.86,.7-1.3,.86l-2.32-7.29s1.4-.27,1.94-.7c2.05-1.57,4.54-4.86,6.7-8.32-1.24,.59-2.54,1.19-3.89,1.78-.43,.7-.92,1.13-1.51,1.4l-3.02-7.18s1.19-.32,1.73-.7c2.27-2.38,5.29-10.15,6.05-14.31l8.32,4c-.22,.49-.76,.86-1.78,.81-2.32,3.29-6.32,7.61-9.83,10.37,1.78,0,3.89,0,6.1-.05,.92-1.78,1.67-3.51,2.16-4.91l6.26,4.21c.49-.38,1.24-.81,1.94-1.13,1.78-3.89,4.21-10.37,4.97-13.18l8.96,1.46c-.16,.7-.76,1.4-2.27,1.4l-1.08,2.81h6.05l2.92-3.19,6.32,5.08c-.43,.49-.97,.65-2.11,.76l-3.94,11.23h1.08l3.24-4.91Zm-37.1,19.93c9.77,6.8,3.29,14.96-.49,10.15,.59-3.29,.38-7.13-.16-9.99l.65-.16Zm21.71-1.08c-1.19,2.11-3.19,5.51-6.21,9.83-.05,.76-.49,1.46-1.13,1.73l-3.51-5.18c.38,3.19-2.65,5.24-5.08,2.7,.32-3.02-.54-6.59-1.62-8.96l.59-.27c2.75,1.3,4.43,2.86,5.35,4.32,2.32-.81,6.97-2.7,11.45-4.59l.16,.43Zm-8.53-10.15c13.39,2.32,7.02,12.42,1.89,7.88,.11-2.7-.97-5.72-2.38-7.61l.49-.27Zm13.99-9.13l2.48-7.02h-6.7c-.97,2.43-2.05,5.02-2.92,7.02h7.13Zm3.24,19.66c17.55,.92,11.83,14.85,5.45,9.94-1.19-2.86-3.29-6.8-5.78-9.56l.32-.38Zm-.05-1.89c1.51-2.81,3.62-7.72,4.64-10.26l7.56,5.35c-.27,.43-.81,.65-2.05,.38-2.16,1.46-6.91,3.62-9.72,5.02l-.43-.49Z"/>
      <path class="cls-1" d="M326.42,16.42c-3.51,1.03-5.78,4.81-6.32,7.99-7.61-4.16-14.53-10.1-17.5-19.33-3.35,5.29-9.07,10.53-15.55,14.8h15.44l3.62-4.59s4.05,3.08,6.53,5.24c-.16,.59-.76,.86-1.51,.86h-7.94v7.72h8.05l3.89-5.13s4.48,3.46,7.13,5.78c-.16,.59-.76,.86-1.57,.86h-17.5v17.28h9.56l4.32-5.62s4.91,3.73,7.83,6.26c-.16,.59-.81,.86-1.62,.86h-47.57l-.43-1.51h19.76V30.62h-16.58l-.43-1.51h17.01v-7.72h-7.88l-.38-1.35c-4.1,2.7-8.48,4.97-12.69,6.53l-.32-.54c9.23-6.37,18.9-18.14,20.9-26.03l11.72,3.08c-.22,.81-.97,1.13-2.97,1.35,4.97,6.64,15.44,9.5,23.06,11.12l-.05,.86Zm-42.98,16.2c15.93,5.51,7.34,17.71,1.19,11.29,.27-3.89-.54-7.83-1.67-11.07l.49-.22Zm21.92,13.01c.92-3.24,2.21-8.69,3.19-13.39l10.04,3.56c-.22,.7-.97,1.13-2.21,1.08-3.19,3.46-7.02,6.86-10.42,9.13l-.59-.38Z"/>
      <path class="cls-1" d="M375.5,41.36s5.02,3.78,8.05,6.32c-.16,.59-.76,.86-1.62,.86h-49.19l-.43-1.51h21.11V30.51h-14.09l-.43-1.51h14.53V15.12h-8.21c-3.51,5.83-7.83,10.26-12.96,13.55l-.54-.38c3.83-6.43,7.56-16.47,9.02-26.24l10.91,3.13c-.22,.7-.92,1.19-2.21,1.19-1.03,2.59-2.11,5.02-3.35,7.24h7.34V.54l10.64,.97c-.11,.81-.49,1.35-2,1.57V13.61h6.59l4.27-5.24s4.7,3.35,7.72,5.89c-.16,.59-.76,.86-1.62,.86h-16.96v13.88h4.97l4.32-5.4s4.91,3.62,7.88,6.05c-.16,.59-.76,.86-1.57,.86h-15.61v16.52h8.96l4.48-5.67Z"/>
      <path class="cls-1" d="M390.46,13.07c16.25,.27,10.96,12.91,4.32,8.75-.65-3.08-2.75-6.37-4.7-8.42l.38-.32Zm44.93,.16s4.32,3.56,6.8,5.94c-.11,.59-.76,.86-1.51,.86h-13.55v10.26h2.86l3.51-3.78,7.02,5.35c-.38,.43-1.03,.97-2.16,1.19v15.88c-.05,.49-3.78,2.05-6.43,2.05h-1.35v-4.64h-14.42v2.59c0,.7-3.35,2.38-6.59,2.38h-1.08V27.22l7.99,3.08h2.65v-10.26h-13.01l-.38-1.35c-1.84,5.45-3.67,11.34-4.21,13.28-.49,1.78-.97,3.83-.92,5.24,.11,3.08,2.7,4.59,2.54,9.45-.11,2.92-2.38,4.86-5.51,4.86-1.4,0-3.02-.7-3.62-2.81,1.13-5.67,.92-10.91-.38-11.77-.81-.54-1.78-.86-2.92-.97v-.92h2.54c.92,0,1.19,0,1.89-1.08q1.46-2.05,12.1-22.09l.76,.22c-.65,1.78-1.4,4.05-2.21,6.43h13.34V9.67c-4.27,.32-8.69,.54-12.74,.59l-.11-.7c8.96-2.11,20.52-6.05,26.35-8.96l7.4,7.13c-.7,.54-2.05,.59-3.94-.11-2.54,.43-5.62,.86-8.96,1.3v9.61h4.43l3.83-5.29ZM394.51,1.24c16.85,.05,12.04,12.96,5.08,9.07-.97-3.13-3.4-6.59-5.45-8.75l.38-.32Zm21.65,30.56v13.01h14.42v-13.01h-14.42Z"/>
    </g>
  </g>
</svg>