<?xml version="1.0" encoding="UTF-8"?>
<svg id="_圖層_2" data-name="圖層 2" xmlns="http://www.w3.org/2000/svg" viewBox="0 0 1483.83 100.96">
  <defs>
    <style>
      .cls-1 {
        fill: #fff;
      }

      .cls-2 {
        fill: #e60012;
      }

      .cls-3 {
        fill: #231815;
      }
    </style>
  </defs>
  <g id="_圖層_1-2" data-name="圖層 1">
    <rect class="cls-1" y="0" width="1483.83" height="100.96" rx="26.41" ry="26.41"/>
    <g>
      <path class="cls-3" d="M79.5,31.29c-3.43,1.96-8.16,4.52-14.67,7.53-.1,.42-.46,.81-.81,.95l-1.71-3.5c1.15-.28,2.91-.77,5.04-1.44l-.35-22.68,4.06,.35c-.03,.49-.31,.84-1.19,.98l.31,20.48c2.8-.91,5.99-2,9.14-3.08l.17,.42Zm13.2-18.59c-.1,.53-.52,.91-1.36,.98-.28,7.39-.88,13.62-4.59,18.76,10.57,5.08,8.86,11.55,5.53,9.45-1.05-2.66-3.78-6.06-6.23-8.58-2.98,3.68-7.7,6.72-15.26,9.24l-.35-.63c16.31-7.28,17.54-16.38,17.85-29.68l4.41,.45Zm-18.13,3.4c10.29,3.85,8.26,10.26,5.11,8.12-.84-2.56-3.47-5.78-5.5-7.84l.38-.28Z"/>
      <path class="cls-3" d="M104.88,22.19c5.71,3.19,3.71,7.18,1.71,5.53-.17-1.3-.91-2.91-1.71-4.27v18.1c0,.35-1.12,1.02-2.03,1.02h-.53v-15.3c-1.09,2.59-2.45,4.97-4.2,7.14l-.52-.45c2.24-3.99,3.5-9.14,4.24-14.25h-3.5l-.28-1.02h4.27V10.18l3.78,.42c-.07,.52-.35,.84-1.23,.98v7.07l1.4-1.96s1.65,1.44,2.66,2.45c-.1,.39-.42,.56-.91,.56h-3.15v2.49Zm24.47,17.61c1.05,1.05,1.16,1.47,.91,1.96-.67,1.26-2.63,.63-4.24-.24-1.51-.7-2.77-1.75-3.78-3.05-2.56,1.93-5.46,3.19-8.51,3.96l-.24-.52c2.7-1.12,5.39-2.8,7.67-5.08-1.12-1.96-1.89-4.34-2.35-7.07h-4.52c-.07,.91-.18,1.82-.35,2.73,5.85,1.54,4.03,5.74,1.68,4.27-.28-1.02-1.05-2.17-1.93-3.08-.81,3.22-2.63,6.37-6.86,8.82l-.52-.52c4.45-3.78,5.04-8.26,5.18-12.22h-3.01l-.28-1.02h10.43c-.56-3.29-.77-7.07-.88-11.31-.25,.14-.56,.24-.98,.18-1.29,1.96-3.61,4.66-5.74,6.62,1.19-.11,2.62-.25,4.16-.39-.24-.91-.59-1.79-.94-2.42l.46-.18c4.8,3.15,2.49,6.76,.84,5.01,0-.52-.03-1.05-.17-1.64-1.16,.49-2.84,1.09-4.52,1.68-.21,.39-.46,.66-.7,.77l-1.44-2.77s.56-.14,.77-.28c1.23-1.09,2.59-3.01,3.68-4.94-.7,.28-1.58,.63-2.42,.91-.21,.46-.46,.74-.73,.88l-1.47-2.94s.56-.14,.77-.25c1.47-1.4,3.19-4.97,3.78-6.79l3.26,1.54c-.14,.28-.52,.6-1.23,.53-1.09,1.58-2.84,3.61-4.48,5.08,.95-.03,2.1-.1,3.22-.21,.49-.88,.91-1.68,1.19-2.35l2.7,1.47c-.07-2.07-.07-4.24-.07-6.51l3.85,.46c-.07,.46-.39,.88-1.26,1.02-.11,6.44-.07,12.25,.7,16.84h5.15l1.5-1.82s1.68,1.3,2.77,2.28c-.07,.39-.42,.56-.91,.56h-8.3c.38,1.96,.95,3.71,1.65,5.15,1.05-1.23,1.96-2.66,2.7-4.2l3.12,1.93c-.24,.35-.56,.45-1.33,.28-.94,1.51-2.03,2.8-3.18,3.96,.8,.91,1.68,1.65,2.8,2.17,.59,.32,.77,.28,1.05-.35,.42-.95,.98-2.66,1.4-4.17l.42,.03-.46,5.25Zm-8.96-21.84s.49-.14,.7-.28c1.19-1.33,2.59-4.87,3.05-6.69l3.36,1.54c-.14,.28-.53,.6-1.23,.53-.95,1.47-2.42,3.4-3.78,4.83,.88-.04,1.89-.11,2.87-.17,.56-1.02,.98-1.93,1.26-2.66l3.01,1.96c-.18,.28-.6,.49-1.23,.35-1.23,1.75-3.26,4.13-5.18,5.88,1.16-.11,2.59-.21,4.1-.39-.28-.7-.63-1.37-.98-1.89l.42-.18c5.15,2.73,2.87,6.62,1.12,4.83,0-.63-.11-1.33-.31-1.96-1.16,.39-2.84,.98-4.55,1.54l-.07,.18,.32-.21c4.8,1.12,2.66,4.45,.91,2.98-.07-.98-.63-2.07-1.26-2.7-.21,.31-.42,.56-.67,.66l-1.33-2.8s.6-.14,.77-.28c.94-.88,2.06-2.42,3.01-4.03-.7,.28-1.47,.56-2.21,.84-.21,.46-.46,.77-.73,.91l-1.37-2.8Z"/>
      <path class="cls-3" d="M145.25,28.7c-2.21,1.57-5.43,3.96-9.77,6.72-.07,.42-.35,.8-.7,.98l-1.68-3.4c.91-.32,2.52-.91,4.48-1.68v-10.5h-3.75l-.28-.98h4.03V10.74l4.03,.42c-.07,.49-.39,.84-1.26,.95v7.74h.49l1.54-2.38s1.79,1.68,2.77,2.84c-.1,.35-.46,.52-.88,.52h-3.92v9.38c1.5-.6,3.12-1.26,4.73-1.96l.17,.46Zm6.3-2.31c-.52,.98-1.12,1.93-1.79,2.8h11.59l1.51-1.51,2.87,2.38c-.28,.28-.66,.45-1.4,.56-.46,6.2-1.51,9.66-3.08,10.89-.98,.74-2.2,1.08-3.6,1.08,0-.77-.14-1.47-.56-1.86-.46-.42-1.51-.77-2.59-.95v-.59c1.15,.1,3.12,.25,3.78,.25,.6,0,.88-.07,1.23-.32,.88-.74,1.72-3.82,2.14-8.89h-2.21c-1.93,5.39-5.64,9.45-11.52,12.29l-.31-.53c4.45-2.94,7.32-7,8.89-11.76h-2.35c-2.45,4.45-6.55,8.02-11.83,10.47l-.38-.56c4.13-2.52,7.42-6.02,9.42-9.91h-2.45c-2.1,2.31-4.8,4.2-8.02,5.67l-.35-.49c3.47-2.31,6.16-5.57,7.81-9.03h-5.11l-.28-1.02h18.03l1.79-2.24s2.03,1.54,3.29,2.7c-.1,.39-.46,.56-.91,.56h-13.58Zm-2-3.15c0,.28-1.19,.84-2.28,.84h-.42V10.91l2.87,1.23h8.93l1.47-1.58,3.12,2.42c-.25,.25-.77,.56-1.47,.66v9.07c-.04,.28-1.33,.98-2.31,.98h-.46v-1.47h-9.45v1.02Zm0-10.05v3.47h9.45v-3.47h-9.45Zm9.45,8.02v-3.57h-9.45v3.57h9.45Z"/>
      <path class="cls-3" d="M201.51,30.52c-.28,.25-.7,.42-1.4,.49-.52,5.74-1.68,9.31-3.29,10.54-.98,.74-2.31,1.09-3.75,1.09,0-.77-.17-1.44-.63-1.86-.46-.42-1.65-.77-2.87-.98v-.56c1.26,.14,3.54,.28,4.24,.28,.59,0,.91-.07,1.29-.31,.95-.74,1.86-3.89,2.31-8.54h-21.7c-1.96,2-4.24,3.82-6.79,5.36l-.39-.38c5.6-4.31,9.66-10.47,12.32-16.7h-9.66l-.32-1.02h10.4c1.09-2.66,1.89-5.29,2.48-7.81l4.13,1.16c-.14,.46-.46,.66-1.4,.63-.63,1.96-1.37,3.99-2.28,6.02h6.3l1.19-1.26,2.56,2.14c-.25,.25-.56,.35-1.12,.39l-1.02,4.55h1.58l1.19-1.26,2.52,2.07c-.28,.28-.52,.35-1.12,.42l-.8,4.69h1.65l1.54-1.51,2.84,2.38Zm-25.94,2.7c1.19,4.17-.39,6.83-1.96,7.77-1.02,.63-2.35,.6-2.77-.28-.35-.88,.21-1.61,1.02-2.1,1.54-.74,3.12-2.84,3.12-5.36l.6-.03Zm-1.26-22.72c7.88,2.31,5.5,7.88,2.8,5.88-.35-1.93-1.82-4.24-3.15-5.64l.35-.25Zm6.2,14.21c-1.12,1.72-2.38,3.36-3.81,4.94h16.28l.88-4.94h-13.34Zm-1.12,8.33c5.15,4.59,1.82,9.21-.17,6.62,.46-2.07,.17-4.69-.28-6.48l.45-.14Zm4.38-14.11c-.77,1.61-1.64,3.22-2.62,4.8h8.4l1.08-4.8h-6.86Zm.04,13.76c6.62,2.7,4.06,7.63,1.75,5.57-.07-1.75-1.12-3.96-2.17-5.36l.42-.21Zm4.9-.6c6.97,1.02,5.32,5.88,2.84,4.45-.42-1.47-1.89-3.19-3.19-4.17l.35-.28Z"/>
      <path class="cls-3" d="M236.06,13.29c-.21,.28-.77,.53-1.47,.7v27.3c-.04,.25-1.33,.95-2.28,.95h-.42v-1.89h-23.17v1.19c0,.35-.98,1.05-2.17,1.05h-.49V11.16l2.91,1.33h22.58l1.44-1.68,3.08,2.49Zm-4.17,26.04V13.5h-23.17v25.83h23.17Zm-21.91-1.4c2.8-1.05,5.85-3.12,7.28-4.62l3.05,1.89c-.25,.32-.77,.39-1.61,.21-1.92,1.19-5.29,2.45-8.47,3.05l-.25-.53Zm5.01-4.24c0,.25-1.09,.81-2.1,.81h-.38v-13.34l2.66,1.15h10.22l1.23-1.36,2.66,2.1c-.17,.25-.56,.49-1.12,.56v9.8c-.04,.25-1.29,.77-2.1,.77h-.42v-1.12h-10.64v.63Zm1.23-13.06c0,.21-1.09,.77-2.07,.77h-.38v-6.76l2.62,1.09h7.74l1.26-1.3,2.66,2.03c-.17,.21-.63,.49-1.16,.56v3.43c-.03,.18-1.3,.66-2.07,.66h-.39v-.98h-8.23v.49Zm-1.23,2.7v2.17h10.64v-2.17h-10.64Zm10.64,5.43v-2.21h-10.64v2.21h10.64Zm0,3.29v-2.28h-10.64v2.28h10.64Zm-9.42-15.26v2.35h8.23v-2.35h-8.23Zm5.39,17.26c12.53,.91,8.47,5.88,6.2,3.92-1.16-1.19-3.29-2.45-6.37-3.4l.18-.52Z"/>
      <path class="cls-3" d="M244.29,20.96c1.79,6.2,.38,10.54-1.02,12.53-.91,1.4-2.45,1.96-3.29,1.15-.66-.66-.42-1.64,.25-2.49,1.82-1.82,3.5-6.37,3.47-11.17l.6-.03Zm8.19-3.92c-.04,.46-.35,.84-1.19,.95v19.04c0,.91,.35,1.23,2.21,1.23h4.73c2.1,0,3.68-.03,4.34-.11,.6-.04,.77-.21,.98-.6,.39-.74,.91-3.01,1.51-5.81h.46l.07,6.06c1.05,.35,1.29,.7,1.29,1.26,0,1.44-1.54,1.96-8.79,1.96h-4.94c-3.57,0-4.66-.67-4.66-3.26V16.62l3.99,.42Zm5.99,3.19c-.73-3.01-3.29-6.86-5.43-9.31l.42-.25c10.4,4.94,8.19,12.01,5.01,9.56Zm10.75,13.55c-.49-3.15-1.71-8.4-4.73-11.9l.38-.31c10.26,7.11,6.97,15.3,4.34,12.22Z"/>
      <path class="cls-3" d="M306.78,17.67c-.21,.25-.77,.56-1.47,.7v20.37c0,2.14-.49,3.43-4.41,3.82-.11-.91-.35-1.58-.95-2.03-.6-.45-1.58-.84-3.43-1.05v-.56s4.17,.31,5.11,.31c.7,0,.91-.24,.91-.84V17.84h-22.65v23.66c0,.35-1.09,1.05-2.28,1.05h-.49V15.5l3.01,1.37h6.72c.84-2,1.72-4.59,2.24-6.51l4.45,1.12c-.14,.42-.56,.74-1.29,.7-1.02,1.37-2.45,3.22-3.96,4.69h13.9l1.37-1.68,3.22,2.49Zm-9.24,16.94c-.04,.21-1.33,.84-2.24,.84h-.42v-2.8h-7.63v2.91c0,.28-1.12,.88-2.17,.88h-.42v-14.56l2.77,1.23h7.11l1.44-1.58,3.04,2.38c-.24,.25-.77,.53-1.47,.7v10.01Zm-2.66-3.01v-7.53h-7.63v7.53h7.63Z"/>
      <path class="cls-3" d="M326.25,14.8l2.98,2.77c-.25,.32-.6,.42-1.4,.49-1.71,10.19-5.32,19.53-17.08,24.54l-.35-.49c9.21-5.29,13.06-14.39,14.46-24.54h-5.99c-.73,1.86-1.58,3.57-2.49,5.15,8.23,2.42,6.02,8.09,3.19,6.06-.42-1.82-2.03-3.89-3.61-5.36-1.47,2.38-3.19,4.38-5.11,5.99l-.49-.31c3.36-4.45,6.16-11.24,7.28-18.69l4.27,.98c-.14,.45-.52,.8-1.37,.77-.38,1.54-.84,3.01-1.33,4.41h5.39l1.65-1.75Zm7.88,6.79c11.2,3.5,9.56,10.29,6.23,8.26-1.02-2.45-3.82-5.36-6.23-7.42v19.29c0,.35-1.19,.98-2.24,.98h-.6V10.67l4.1,.46c-.07,.49-.35,.84-1.26,.98v9.49Z"/>
      <path class="cls-3" d="M378.1,28.07c-.24,.28-.59,.49-1.33,.63v12.78c0,.18-.98,.74-2.31,.74h-.42v-1.79h-10.68v1.37c0,.21-.84,.77-2.24,.77h-.42v-7.32c-.18,.14-.39,.21-.66,.21h-5.64v6.3c0,.18-.84,.81-2.17,.81h-.42v-7.11h-5.78l-.28-1.02h6.06v-4.24h-2.24v1.3c0,.21-1.02,.77-2,.77h-.39v-14.14l2.52,1.12h2.1v-3.01h-5.5l-.28-1.05h5.78v-4.9l3.78,.38c-.07,.46-.38,.77-1.19,.91v3.61h1.86l1.65-2.1s1.89,1.47,3.01,2.59c-.07,.39-.46,.56-.91,.56h-5.6v3.01h1.93l1.26-1.4,2.73,2.14c-.17,.25-.7,.53-1.33,.63v10.36c-.04,.28-1.16,.95-2,.95h-.35v-1.72h-2.24v4.24h1.82l1.64-2.1s1.68,1.3,2.84,2.35v-8.44l3.05,1.23h10.15l1.33-1.57,2.87,2.17Zm-28.53-7.81v3.89h2.38v-3.89h-2.38Zm0,8.93h2.38v-3.99h-2.38v3.99Zm4.66-8.93v3.89h2.42v-3.89h-2.42Zm2.42,8.93v-3.99h-2.42v3.99h2.42Zm4.13-15.12l-.28-1.02h12.57l1.75-2.24s2.03,1.58,3.22,2.73c-.11,.35-.42,.53-.91,.53h-16.35Zm11.8,11.59v-1.65h-7.77v1.23c0,.21-.88,.77-2.2,.77h-.42V15.88l3.01,1.23h7.28l1.33-1.51,2.77,2.1c-.21,.28-.52,.45-1.26,.56v6.69c0,.18-.98,.7-2.24,.7h-.49Zm-9.21,2.84v4.97h4.06v-4.97h-4.06Zm0,10.92h4.06v-4.97h-4.06v4.97Zm9.21-16.42v-4.87h-7.77v4.87h7.77Zm-2.77,5.5v4.97h4.24v-4.97h-4.24Zm4.24,10.92v-4.97h-4.24v4.97h4.24Z"/>
      <path class="cls-3" d="M395.95,25.13l2.41,1.19c-.21,.35-.56,.53-1.4,.39-.31,.49-.66,1.02-1.02,1.54v10.78c0,2.03-.39,3.22-3.85,3.57-.1-.8-.28-1.47-.73-1.86-.52-.42-1.37-.77-2.91-.98v-.56s3.4,.28,4.13,.28c.63,0,.81-.25,.81-.77v-7.25c-3.12,3.54-7.25,7-12.11,9.31l-.35-.45c4.27-2.77,8.09-6.76,10.85-10.71-2.28,.63-5.11,1.4-8.65,2.28-.17,.45-.56,.7-.91,.77l-1.12-3.4c.74-.04,1.75-.07,3.01-.18V13.75l2.94,1.23h.7c.21-1.29,.49-3.26,.63-4.66l4.24,.67c-.11,.52-.53,.84-1.26,.88-.6,.91-1.51,2.17-2.17,3.12h3.85l1.33-1.57,3.08,2.42c-.25,.24-.81,.56-1.51,.67v8.65Zm-9.35-9.14v3.43h6.79v-3.43h-6.79Zm6.79,4.45h-6.79v3.54h6.79v-3.54Zm-6.79,8.47c1.82-.14,3.85-.32,5.99-.49,.28-.42,.56-.88,.81-1.29v-2.17h-6.79v3.96Zm24.54-11.83s1.82,1.65,2.91,2.8c-.11,.39-.46,.56-.91,.56h-4.13v18.31c0,2.17-.46,3.47-4.2,3.85-.14-.91-.35-1.57-.88-2.03-.56-.49-1.47-.84-3.19-1.09v-.53s3.85,.28,4.62,.28c.67,0,.84-.21,.84-.74V20.44h-9.17l-.28-1.02h9.45V10.7l4.06,.46c-.07,.49-.42,.84-1.26,.95v7.32h.49l1.65-2.35Zm-12.18,6.3c7.42,4.41,4.38,10.43,1.86,7.84,.11-2.52-1.09-5.6-2.28-7.67l.42-.17Z"/>
      <path class="cls-3" d="M421.13,29.82c1.93-1.19,2.87-2.63,3.29-4.34-1.75-.84-2.66-1.75-2.66-3.01,0-1.12,.77-2.14,2.21-2.14s2.41,1.09,2.41,3.19c0,2.45-1.12,5.71-4.66,7.42l-.6-1.12Z"/>
      <path class="cls-3" d="M464.89,38.85c1.19,.35,1.54,.66,1.54,1.23,0,1.61-1.86,2-12.5,2h-7.81c-4.73,0-6.27-.53-6.27-3.54V20.96c-1.54,1.75-3.22,3.29-4.97,4.48l-.46-.39c3.15-3.36,6.34-8.96,8.09-14.91l4.1,1.54c-.17,.42-.59,.7-1.33,.63-.52,1.19-1.12,2.31-1.71,3.4h16.45l1.61-1.68,3.01,2.56c-.28,.24-.7,.46-1.44,.52-.28,10.43-.94,15.44-2.59,17.05-.98,.98-2.31,1.44-3.85,1.4,0-.91-.07-1.58-.53-2.03-.42-.46-1.5-.8-2.7-1.05l.04-.56c1.16,.11,3.05,.28,3.75,.28,.59,0,.88-.11,1.23-.42,.98-.95,1.54-5.99,1.82-15.05h-17.43c-.73,1.23-1.54,2.35-2.38,3.4l2.49,1.01h7.81l1.47-1.57,3.12,2.38c-.21,.28-.77,.6-1.47,.74v8.23c-.04,.21-1.44,.84-2.31,.84h-.46v-2h-8.61v8.26c0,1.12,.53,1.47,3.43,1.47h8.02c3.5,0,6.13-.03,7.25-.14,.84-.11,1.12-.28,1.4-.74,.42-.81,.94-2.56,1.68-5.67h.46l.07,5.92Zm-22.3-16.7v6.58h8.61v-6.58h-8.61Z"/>
      <path class="cls-3" d="M489.01,11.3c-.07,.42-.52,.6-1.47,.66,3.22,4.13,9.21,7.42,15.05,9.56l-.04,.52c-1.26,.28-2.17,1.33-2.38,2.38-5.6-2.7-10.78-7.11-13.23-12.04-3.36,4.9-10.36,10.47-16.98,13.34l-.28-.49c5.88-3.33,12.88-10.26,14.67-15.09l4.66,1.15Zm5.43,18.24l3.22,2.42c-.25,.32-.81,.6-1.54,.77v8.89c-.03,.21-1.43,.77-2.38,.77h-.45v-2.14h-14.39v1.4c0,.28-1.23,.91-2.38,.91h-.38v-12.67l2.98,1.26h8.37c1.36-1.61,2.91-3.99,3.75-6.02h-14.81l-.31-1.05h15.4l1.71-1.44,2.63,2.21c-.25,.32-.6,.39-1.33,.42-1.26,2.03-3.36,4.27-5.78,5.88h4.2l1.5-1.61Zm-1.15,9.66v-7.04h-14.39v7.04h14.39Zm-3.99-21.14s1.86,1.33,3.05,2.38c-.11,.38-.46,.56-.88,.56h-10.96l-.28-1.02h7.42l1.65-1.93Z"/>
      <path class="cls-2" d="M533.9,37.52s2.35,1.72,3.71,2.98c-.11,.38-.42,.56-.91,.56h-31.12l-.28-1.02h14.49v-10.29h-10.26l-.25-1.02h10.5v-8.86h-7.39c-2,3.36-4.34,6.16-6.9,8.19l-.49-.32c2.98-3.82,5.88-9.94,7.46-16.21l4.27,1.33c-.14,.42-.56,.74-1.33,.7-.7,1.85-1.54,3.61-2.42,5.25h6.79V10.39l4.27,.46c-.11,.49-.39,.84-1.26,.98v7h7.25l1.96-2.38s2.14,1.58,3.61,2.87c-.1,.38-.49,.56-.98,.56h-11.83v8.86h5.99l1.96-2.45s2.28,1.72,3.64,2.91c-.1,.39-.45,.56-.91,.56h-10.68v10.29h9.1l2-2.52Z"/>
      <path class="cls-2" d="M540.8,18.55c8.02,.74,6.34,6.37,3.47,4.76-.53-1.61-2.31-3.43-3.78-4.45l.32-.31Zm10.47-1.26c-1.5,4.24-4.41,12.11-4.9,13.76-.31,1.12-.6,2.24-.6,3.15,.07,1.58,1.19,3.08,1.05,5.99-.07,1.54-.91,2.52-2.24,2.52-.66,0-1.23-.63-1.37-1.75,.56-3.57,.35-6.44-.42-6.93-.49-.35-1.05-.45-1.75-.52v-.74h1.58c.46,0,.56-.03,.95-.74q.7-1.23,7.11-14.91l.6,.18Zm-7.88-6.41c8.26,.91,6.58,6.72,3.64,5.15-.6-1.75-2.41-3.71-3.96-4.87l.31-.28Zm26.39,8.09s2.14,1.65,3.36,2.87c-.07,.39-.46,.56-.91,.56h-9.56v6.86h4.38l1.51-1.61,3.15,2.42c-.25,.28-.81,.59-1.51,.74v10.64c-.04,.25-1.37,.91-2.35,.91h-.46v-2.66h-12.32v1.89c0,.28-1.16,.91-2.31,.91h-.42v-14.49l2.94,1.26h4.55v-6.86h-9.35l-.28-1.05h9.63v-6.2c-2.91,.35-5.99,.63-8.86,.77l-.14-.6c6.13-.98,13.69-3.01,17.61-4.66l3.08,2.94c-.35,.24-1.05,.28-2-.07-1.93,.42-4.27,.84-6.86,1.23v6.58h5.29l1.82-2.38Zm-14.7,11.31v8.4h12.32v-8.4h-12.32Z"/>
      <path class="cls-2" d="M589.91,26c-1.37,.77-3.01,1.68-4.94,2.73v12.81c0,.35-1.16,1.02-2.14,1.02h-.52v-12.36c-1.09,.52-2.28,1.12-3.5,1.75-.1,.42-.42,.77-.77,.91l-1.82-3.33c1.26-.28,3.43-.91,6.09-1.72v-7.7h-2.91c-.7,2.73-1.65,5.25-2.84,7.25l-.56-.28c1.02-3.61,1.68-8.65,1.89-13.23l3.78,.6c-.11,.42-.49,.81-1.26,.84-.21,1.3-.46,2.59-.77,3.82h2.66V10.42l3.96,.46c-.1,.49-.39,.84-1.3,.98v7.25h.74l1.61-2.31s1.86,1.61,2.91,2.77c-.07,.38-.42,.56-.91,.56h-4.34v6.93c1.54-.49,3.15-.98,4.8-1.51l.14,.46Zm16,.31s1.86,1.51,3.01,2.63c-.07,.39-.42,.56-.91,.56h-5.53v9.63c0,2.07-.52,3.26-4.41,3.57-.1-.77-.31-1.37-.88-1.75-.66-.42-1.68-.74-3.57-.98v-.49s4.38,.28,5.25,.28c.66,0,.88-.21,.88-.74v-9.52h-12.22l-.28-1.05h12.5v-3.82l3.96,.42c-.07,.49-.42,.77-1.23,.91v2.49h1.75l1.68-2.14Zm-17.92-10.05h7.98v-5.99l3.85,.35c-.07,.45-.35,.77-1.16,.91v4.73h4.73l1.71-2.17s1.96,1.51,3.15,2.63c-.1,.39-.46,.56-.91,.56h-8.68v5.43h4.06l1.64-2.14s1.93,1.51,3.12,2.59c-.07,.38-.42,.56-.91,.56h-16.98l-.28-1.02h6.65v-5.43h-7.7l-.28-1.02Zm2.42,14.28c8.16,2.77,6.06,8.16,3.4,6.3-.56-2-2.35-4.52-3.75-6.06l.35-.25Z"/>
      <path class="cls-2" d="M640.96,38.64c1.4,.25,1.75,.63,1.75,1.15,0,1.51-2.14,1.75-13.65,1.75h-8.4c-5.11,0-7.04-.63-7.04-3.99V13.68h-1.36l-.28-1.02h25.06l1.72-2.24s2,1.58,3.19,2.7c-.1,.39-.42,.56-.88,.56h-24.89v23.56c0,1.54,.73,2.1,4.2,2.1h8.93c3.75,0,6.83-.07,7.91-.18,.67-.04,1.23-.11,1.65-.18,.35-.07,.95-.21,1.51-.39h.42l.17,.03Zm-15.4-1.44v-1.65h-4.45v1.51c0,.25-1.05,.81-2.07,.81h-.35v-11.48l2.56,1.16h4.03l1.26-1.3,2.63,2c-.18,.24-.63,.49-1.16,.6v7.63c-.04,.24-1.26,.74-2.07,.74h-.38Zm0-2.66v-5.99h-4.45v5.99h4.45Zm8.26-10.68h-8.65v1.09c0,.21-1.19,.81-2.27,.81h-.39V15.43l2.84,1.23h8.16l1.4-1.44,2.98,2.21c-.21,.24-.74,.52-1.33,.67v6.41c-.04,.25-1.4,.77-2.28,.77h-.46v-1.4Zm0-1.05v-5.11h-8.65v5.11h8.65Zm3.61,14.28v-1.54h-4.52v1.05c0,.25-1.09,.77-2.1,.77h-.35v-10.99l2.59,1.16h4.06l1.29-1.4,2.77,2.14c-.21,.25-.7,.53-1.26,.63v7.42c-.04,.21-1.3,.77-2.1,.77h-.39Zm0-2.56v-5.99h-4.52v5.99h4.52Z"/>
      <path class="cls-2" d="M649.4,22.54c3.54,1.16,6.02,2.77,7.28,4.73,.49,.74,.81,1.68,.7,2.52-.07,.7-.53,1.33-1.37,1.33-.7,0-1.16-.49-1.65-1.58-1.08-2.21-2.73-4.34-5.36-6.48l.39-.52Z"/>
      <path class="cls-2" d="M664.77,18.76c7.6,.91,5.6,6.3,2.87,4.55-.46-1.54-1.96-3.26-3.19-4.27l.32-.28Zm9.59-3.54c-1.37,4.69-3.96,13.44-4.41,15.33-.28,1.12-.49,2.31-.46,3.22,.04,1.65,1.16,3.15,1.02,6.13-.07,1.57-.84,2.56-2.14,2.56-.7,0-1.19-.6-1.29-1.75,.52-3.57,.31-6.51-.46-7.04-.49-.35-.98-.45-1.72-.53v-.74h1.51c.45,0,.56-.03,.88-.77q.6-1.26,6.44-16.56l.63,.14Zm-7.56-4.8c8.05,1.09,6.02,6.62,3.19,4.87-.52-1.68-2.1-3.47-3.5-4.55l.31-.31Zm10.26,16.52c-1.68,.31-3.36,.63-5.11,.84l-.14-.63c1.75-.32,3.5-.77,5.25-1.3v-2.17c-1.3,.56-2.66,1.05-4.06,1.4l-.25-.49c2.66-1.23,5.5-3.57,6.72-5.22l3.19,1.65c-.21,.39-.74,.49-1.58,.35-.95,.74-2.31,1.54-3.85,2.21l2.87,1.19h.21c1.12-.42,2.21-.84,3.29-1.3v-4.87h-5.85l-.28-1.02h11.17l1.47-1.82s1.65,1.3,2.7,2.28c-.07,.39-.38,.56-.88,.56h-5.74v3.68c2.14-1.05,3.92-2.14,5.25-3.19l3.01,2.07c-.28,.31-.84,.39-1.75,.18-2.06,1.23-4.76,2.38-7.81,3.43h5.99l1.37-1.54,2.84,2.14c-.25,.28-.6,.49-1.33,.6v10.57c0,.17-.98,.73-2.31,.73h-.46v-.98h-11.27v.91c0,.21-.88,.7-2.21,.7h-.45v-10.96Zm-3.85,14.98c3.57-1.16,7.25-3.43,8.96-5.25l3.22,2.17c-.24,.32-.77,.38-1.68,.17-2.31,1.47-6.27,2.87-10.33,3.43l-.18-.53Zm4.48-26.78c.1,4.9-5.01,3.54-2.94,.91,1.02-.56,1.82-1.79,2-3.5l.52,.03c.17,.53,.28,1.05,.35,1.54h7.56c-.24-.07-.52-.18-.77-.39-.07-1.26-.94-2.8-1.82-3.64l.35-.24c5.04,.77,4.62,3.85,3.01,4.27h6.83l1.47-1.51,2.7,2.63c-.28,.24-.66,.31-1.33,.35-.66,.63-1.79,1.68-2.56,2.24l-.49-.21c.1-.59,.28-1.61,.42-2.49h-15.3Zm3.99,10.64c-.63,.18-1.3,.35-1.96,.53v2.07h11.27v-2.59h-9.31Zm-1.96,6.06h11.27v-2.45h-11.27v2.45Zm11.27,3.43v-2.42h-11.27v2.42h11.27Zm-4.41,1.89c13.86,1.58,9.42,6.83,6.97,4.73-1.33-1.37-3.75-2.98-7.14-4.2l.18-.53Z"/>
      <path class="cls-2" d="M700.27,18.68c7.67,.74,5.78,6.16,2.98,4.48-.45-1.51-2-3.22-3.29-4.2l.32-.28Zm9.59-2.07c-1.33,4.38-3.82,12.43-4.27,14.18-.25,1.09-.49,2.24-.45,3.15,0,1.61,1.12,3.15,1.02,6.09-.07,1.54-.88,2.56-2.17,2.56-.7,0-1.19-.6-1.36-1.75,.56-3.57,.35-6.51-.42-7.04-.45-.35-.98-.46-1.71-.52v-.74h1.54c.46,0,.56-.04,.91-.74q.63-1.26,6.3-15.33l.63,.14Zm-7.25-6.06c8.12,1.05,6.16,6.69,3.33,4.9-.52-1.68-2.2-3.5-3.64-4.59l.32-.32Zm27.83,14.77s1.72,1.61,2.7,2.73c-.1,.39-.42,.56-.91,.56h-3.82c-.14,2.94-.35,5.29-.63,7.14h.38l1.44-2.07s1.65,1.47,2.62,2.52c-.1,.39-.42,.56-.91,.56h-3.68c-.38,2.24-.88,3.64-1.58,4.34-.98,1.12-2.35,1.47-3.89,1.51,0-.77-.1-1.4-.56-1.79-.46-.42-1.54-.77-2.73-.98l.04-.6c1.23,.14,3.15,.28,3.85,.28,.63,0,.94-.1,1.26-.46,.32-.35,.63-1.09,.91-2.31h-11.59l-1.23,1.37-2.84-1.96c.35-.25,.84-.53,1.33-.74,.39-1.79,.77-4.24,1.16-6.83h-4.03l-.25-1.05h4.45c.42-2.94,.81-5.95,1.02-8.33-1.26,1.65-2.62,3.15-4.17,4.34l-.42-.35c2.59-3.08,4.76-8.47,5.74-12.92l4.17,1.29c-.14,.39-.46,.53-1.26,.42-.39,.98-.88,1.96-1.4,2.98h11.83l1.79-2.28s2,1.58,3.22,2.73c-.1,.39-.46,.56-.95,.56h-16.45c-.46,.77-.91,1.54-1.4,2.24l2.7,1.33h9.38l1.54-1.68,2.87,2.49c-.25,.31-.7,.49-1.47,.59-.07,2.45-.14,4.66-.21,6.58h.49l1.47-2.24Zm-5.32,10.43c.28-1.72,.52-4.1,.66-7.14h-11.38c-.38,2.56-.77,5.11-1.15,7.14h11.87Zm-9.59-15.16c-.24,1.93-.56,4.45-.94,6.97h11.27c.1-2.03,.18-4.38,.25-6.97h-10.57Zm1.86,8.75c6.76,2.17,4.76,6.58,2.56,4.97-.35-1.58-1.79-3.57-2.91-4.76l.35-.21Zm.63-7.67c6.55,1.96,4.76,6.13,2.59,4.62-.42-1.4-1.82-3.29-2.98-4.34l.38-.28Z"/>
      <path class="cls-2" d="M745.99,27.54c-.24,.31-.59,.42-1.33,.46-.59,2.42-1.93,5.25-3.89,7.42,.21,.03,.39,.14,.63,.35,3.01,2.8,7.11,3.22,14.42,3.22,4.27,0,7.74,0,12.11-.21v.45c-1.23,.25-1.89,1.16-2.06,2.28h-10.96c-7.49,0-10.82-1.02-13.9-4.66-.49-.56-.81-.49-1.09,0-.56,1.05-1.58,2.94-2.24,4.41,.14,.28,.11,.49-.14,.74l-2.28-2.77c1.29-.95,3.22-2.87,4.31-3.61,1.33-2.14,2.24-5.22,2.62-7.81h-2.7l-1.02,.91-2.17-1.79c.31-.25,.84-.45,1.29-.6,.95-1.68,2.21-4.2,3.01-5.99h-4.55l-.32-1.02h4.9l1.23-1.33,2.63,2.35c-.28,.28-.91,.49-1.61,.53-.81,1.58-2.1,4.13-3.12,5.92h2.21l1.51-1.44,2.48,2.17Zm-8.4-16.8c7.35,2.21,4.97,7.49,2.42,5.53-.21-1.79-1.58-3.99-2.8-5.29l.38-.25Zm6.9,6.55l-.28-1.02h7.95l1.4-1.86s1.61,1.3,2.56,2.31c-.07,.39-.42,.56-.88,.56h-5.67c-.03,1.51-.03,2.94-.14,4.38h2.31l1.33-1.44,2.66,2.21c-.25,.28-.67,.46-1.37,.56-.18,8.58-.53,12.43-1.79,13.65-.66,.63-1.47,.88-2.45,.94,0-.53-.14-1.16-.49-1.44-.32-.31-1.12-.63-1.89-.8l.03-.6c.74,.11,2.07,.18,2.49,.18,.31,0,.46-.03,.63-.24,.67-.84,.98-4.38,1.15-11.97h-2.66c-.42,5.5-1.54,10.26-4.94,14.21l-.38-.42c3.08-5.6,3.25-12.01,3.01-19.22h-2.59Zm2.87-6.97c6.3,2.42,3.78,6.79,1.61,4.9-.21-1.51-1.19-3.5-1.96-4.69l.35-.21Zm7.42,9.59c1.44-2.35,2.66-5.92,3.19-9.56l3.71,.91c-.14,.42-.52,.74-1.26,.77-.42,1.23-.91,2.31-1.44,3.4h3.96l1.58-2s1.82,1.4,2.94,2.49c-.11,.39-.42,.56-.91,.56h-8.16c-.88,1.47-1.93,2.77-3.08,3.78l-.52-.35Zm1.33,14.95s2.42,.17,2.94,.17c.49,0,.63-.14,.63-.59v-5.99h-4.45l-.28-1.02h4.73v-4.17l1.19,.14c.66-.81,1.33-1.86,1.86-2.77h-6.09l-.31-1.02h6.51l1.37-1.4,2.59,2.35c-.25,.25-.66,.28-1.33,.35-.95,.77-2.31,1.82-3.64,2.59l1.44,.14c-.07,.49-.42,.77-1.23,.88v2.91h1.12l1.4-1.89s1.65,1.33,2.62,2.35c-.07,.39-.42,.56-.91,.56h-4.24v6.13c0,1.96-.35,3.01-3.22,3.29-.07-.7-.17-1.3-.56-1.65-.35-.39-.98-.66-2.14-.8v-.56Z"/>
      <path class="cls-2" d="M778.2,17.56v-4.13h-5.53l-.28-1.05h9.56l1.61-2s1.82,1.4,2.98,2.49c-.1,.39-.42,.56-.91,.56h-4.8v4.13h2.49l1.61-2.03s1.89,1.4,3.05,2.49c-.11,.39-.46,.56-.95,.56h-6.2v3.89h1.79l1.37-1.44,2.91,2.17c-.21,.24-.73,.52-1.33,.66v6.34c-.04,.21-1.33,.74-2.17,.74h-.42v-1.3h-7v1.51c0,.24-1.16,.8-2.21,.8h-.39v-10.71l2.77,1.23h2.07v-3.89h-6.72l-.28-1.02h7Zm-2.1,15.68c.94,3.82-.6,6.34-2.03,7.25-.88,.56-2.14,.63-2.56-.18-.32-.77,.21-1.54,.98-1.96,1.37-.77,2.94-2.8,3.05-5.15l.56,.03Zm-.14-9.77v5.15h7v-5.15h-7Zm20.06,15.58c.94,.28,1.23,.56,1.23,1.09,0,1.3-1.37,1.58-8.82,1.58h-5.32c-3.61,0-4.38-.49-4.38-2.56v-6.83l3.89,.42c-.07,.39-.42,.74-1.09,.84v5.18c0,.52,.18,.67,1.93,.67h5.15c2.21,0,3.99-.04,4.62-.07,.59-.03,.73-.14,.98-.46,.31-.53,.77-1.82,1.29-3.64h.42l.11,3.78Zm-10.29-7.39c7.6,1.82,5.64,6.83,3.18,5.11-.45-1.65-2.14-3.68-3.54-4.83l.35-.28Zm5.22-.88c0,.28-1.09,.88-2.24,.88h-.42V13.33l2.83,1.23h1.47c.21-1.23,.56-3.05,.74-4.27l4.41,.77c-.14,.53-.59,.81-1.29,.84-.66,.77-1.65,1.79-2.49,2.66h4.2l1.4-1.47,2.98,2.28c-.21,.24-.74,.52-1.37,.67v14.53c-.04,.25-1.37,.81-2.24,.81h-.46v-1.75h-7.53v1.19Zm0-15.19v3.61h7.53v-3.61h-7.53Zm7.53,8.26v-3.64h-7.53v3.64h7.53Zm0,4.73v-3.68h-7.53v3.68h7.53Zm-2.14,4.31c8.61,2.66,6.55,8.72,3.78,6.76-.38-2.24-2.38-4.94-4.17-6.48l.39-.28Z"/>
      <path class="cls-2" d="M835.83,38.64c1.4,.25,1.75,.63,1.75,1.15,0,1.51-2.13,1.75-13.65,1.75h-8.4c-5.11,0-7.04-.63-7.04-3.99V13.68h-1.37l-.28-1.02h25.06l1.71-2.24s2,1.58,3.19,2.7c-.11,.39-.42,.56-.88,.56h-24.89v23.56c0,1.54,.74,2.1,4.2,2.1h8.93c3.75,0,6.83-.07,7.91-.18,.66-.04,1.22-.11,1.65-.18,.35-.07,.94-.21,1.5-.39h.42l.17,.03Zm-15.4-1.44v-1.65h-4.45v1.51c0,.25-1.05,.81-2.07,.81h-.35v-11.48l2.55,1.16h4.03l1.26-1.3,2.62,2c-.17,.24-.63,.49-1.16,.6v7.63c-.04,.24-1.26,.74-2.07,.74h-.38Zm0-2.66v-5.99h-4.45v5.99h4.45Zm8.26-10.68h-8.65v1.09c0,.21-1.19,.81-2.28,.81h-.38V15.43l2.83,1.23h8.16l1.4-1.44,2.98,2.21c-.21,.24-.74,.52-1.33,.67v6.41c-.04,.25-1.4,.77-2.28,.77h-.46v-1.4Zm0-1.05v-5.11h-8.65v5.11h8.65Zm3.61,14.28v-1.54h-4.52v1.05c0,.25-1.09,.77-2.1,.77h-.35v-10.99l2.59,1.16h4.06l1.3-1.4,2.76,2.14c-.21,.25-.7,.53-1.26,.63v7.42c-.04,.21-1.3,.77-2.1,.77h-.38Zm0-2.56v-5.99h-4.52v5.99h4.52Z"/>
      <path class="cls-2" d="M844.27,22.54c3.54,1.16,6.02,2.77,7.28,4.73,.49,.74,.8,1.68,.7,2.52-.07,.7-.53,1.33-1.37,1.33-.7,0-1.16-.49-1.65-1.58-1.08-2.21-2.73-4.34-5.36-6.48l.38-.52Z"/>
      <path class="cls-2" d="M862.72,33c1.09,3.54,.56,6.2-.35,7.42-.63,.81-2,1.05-2.56,.25-.42-.74-.07-1.61,.59-2.21,.98-.98,1.89-3.4,1.72-5.46h.59Zm-2.8-4.38s.7-.18,.98-.39c1.71-1.44,3.75-3.96,5.5-6.44-1.26,.39-2.8,.88-4.38,1.26-.21,.35-.49,.56-.77,.67l-1.37-3.36s.66-.14,.94-.35c1.89-1.96,4.31-6.97,5.08-9.63l3.67,1.82c-.17,.31-.56,.59-1.22,.52-1.47,2.35-3.99,5.64-6.3,7.81,1.44,.03,3.29,.03,5.15,0,.88-1.4,1.61-2.7,2.07-3.75l3.36,2.28c-.17,.28-.67,.49-1.29,.35-1.96,2.73-5.64,6.62-8.93,9.24,2-.1,4.76-.31,7.67-.52-.42-1.3-1.01-2.63-1.54-3.57l.42-.21c6.02,3.75,3.68,8.3,1.61,6.34-.04-.56-.14-1.19-.28-1.82-2.03,.63-5.04,1.58-8.33,2.45-.24,.38-.56,.63-.88,.74l-1.15-3.43Zm5.95,3.75c4.48,4.55,1.58,8.93-.21,6.65,.35-2.1,.1-4.76-.32-6.51l.53-.14Zm3.4-.7c5.85,3.36,3.43,7.95,1.37,5.99,.04-1.89-.88-4.27-1.79-5.85l.42-.14Zm19.88,6.3s2.07,1.61,3.25,2.77c-.07,.39-.42,.56-.88,.56h-19.95l-.28-1.01h8.89v-8.16h-6.48l-.28-1.05h12.99l1.61-2s1.79,1.4,2.91,2.49c-.1,.39-.42,.56-.91,.56h-7v8.16h4.38l1.75-2.31Zm-16.63-23.7l-.28-1.02h14.39l1.72-2.17s1.96,1.51,3.18,2.63c-.07,.39-.45,.56-.94,.56h-18.06Zm7,2.21c-.14,.31-.46,.52-1.05,.42-.95,1.05-3.33,3.68-4.83,5.22,7.7,3.99,4.69,8.75,2.56,7-.28-1.86-1.54-4.87-3.5-6.93,1.09-2,2.8-5.57,3.29-6.86l3.54,1.16Zm5.46,.21c-.11,.32-.42,.52-1.02,.39-.95,1.02-3.4,3.54-4.94,4.97,7.88,3.75,5.04,8.47,2.8,6.76-.32-1.79-1.72-4.76-3.75-6.65,1.09-1.93,2.91-5.39,3.4-6.65l3.5,1.19Zm5.85,.18c-.14,.31-.45,.49-1.05,.39-.95,.95-3.5,3.36-5,4.73,8.16,3.5,5.42,8.26,3.08,6.58-.38-1.75-1.96-4.66-4.1-6.48,1.12-1.82,3.01-5.25,3.54-6.48l3.54,1.26Z"/>
      <path class="cls-2" d="M895.49,42.03c4.34-1.19,9.31-3.61,11.73-5.43l3.43,2.42c-.28,.35-.88,.42-1.79,.14-3.19,1.47-8.4,2.87-13.2,3.4l-.17-.53Zm5.71-19.53c-.8,.42-1.64,.84-2.49,1.26-.21,.35-.52,.6-.77,.7l-1.33-2.7c1.16-.56,1.33-.84,1.33-1.36V12.28l3.25,1.09c2.45-.95,5.15-2.21,6.55-3.01l2.42,2.45c-.21,.25-.63,.21-1.09-.03-1.82,.49-5.36,1.26-8.51,1.65v6.34c1.65-.45,3.64-1.08,5.64-1.72-.63-1.19-1.5-2.31-2.31-3.12l.38-.25c7.42,2.38,5.36,7.67,2.84,5.85-.07-.6-.28-1.16-.56-1.79-1.26,.67-2.97,1.58-4.87,2.56l2.49,1.05h14.74l1.44-1.51c-.04-.59-.17-1.12-.49-1.44-.38-.32-1.29-.6-2.24-.77l.04-.56c.95,.11,2.59,.18,3.19,.18,.52,0,.77-.03,.98-.24,.53-.42,.88-2.24,1.09-5.57h-4.94c-.49,3.64-2.03,7.28-9.03,9.8l-.45-.53c5.39-2.84,6.3-6.13,6.55-9.28h-4.34l-.32-1.02h12.22l1.43-1.4,2.8,2.24c-.25,.25-.67,.42-1.33,.49-.25,4.48-.81,6.72-2,7.6-.67,.49-1.61,.8-2.66,.88l2.55,1.93c-.21,.24-.7,.52-1.33,.63v11.9c-.04,.21-1.4,.81-2.34,.81h-.46v-1.37h-15.3v1.05c0,.25-1.19,.88-2.31,.88h-.46v-15.54Zm2.77,1.86v2.91h15.3v-2.91h-15.3Zm15.3,6.79v-2.87h-15.3v2.87h15.3Zm0,3.96v-2.94h-15.3v2.94h15.3Zm-6.06,2.28c17.68,1.02,12.81,6.83,9.77,4.76-1.92-1.44-5.32-3.08-9.91-4.24l.14-.53Z"/>
      <path class="cls-2" d="M960.54,33.21c-.25,.31-.59,.42-1.33,.18-1.47,.8-3.71,1.89-5.85,2.77,2.59,1.82,5.88,2.91,9.63,3.54l-.07,.42c-1.16,.24-1.96,1.15-2.35,2.49-6.55-2-10.71-5.43-12.74-12.08h-4.06v8.37c1.72-.49,3.75-1.12,5.78-1.82l.14,.49c-1.44,.95-4.2,2.7-7.25,4.48-.17,.32-.42,.56-.66,.7l-2-3.12c1.12-.7,1.29-.95,1.29-1.47v-7.63h-4.41l-.07-.21c-.77,4.34-2.45,8.72-5.99,12.22l-.53-.32c3.96-6.41,4.38-14.18,4.38-21.32V11.12l3.33,1.3h19.01l1.44-1.54,3.15,2.35c-.25,.28-.81,.56-1.51,.74v5.74c-.03,.21-1.4,.74-2.27,.74h-.46v-1.33h-19.85v1.75c0,2.63-.07,5.6-.56,8.65h6.06v-4.73h-4.87l-.28-1.02h5.15v-3.99l3.78,.31c-.07,.46-.35,.74-1.09,.91v2.77h5.84v-3.96l3.75,.35c-.04,.45-.32,.74-1.08,.91v2.7h1.82l1.68-2.17s1.89,1.51,3.04,2.63c-.07,.39-.42,.56-.91,.56h-5.63v4.73h3.67l1.75-2.35s2.03,1.61,3.22,2.8c-.07,.39-.42,.56-.91,.56h-13.16c.95,2.07,2.34,3.75,4.03,5.08,1.71-1.47,3.67-3.47,4.76-4.62l3.18,2.24Zm-23.24-19.78v4.66h19.85v-4.66h-19.85Zm8.19,16.07h5.84v-4.73h-5.84v4.73Z"/>
      <path class="cls-2" d="M996.56,39.37c.84,.31,1.05,.59,1.05,1.05,0,1.09-1.05,1.44-6.76,1.44h-3.75c-2.98,0-3.47-.52-3.47-2.28v-3.29h-2.98c-1.68,4.52-6.65,5.85-13.83,6.23l-.14-.56c5.99-.88,9.49-2.28,10.75-5.67h-2.87v.63c0,.28-1.19,.91-2.28,.91h-.42v-13.13l2.91,1.26h14.25l1.4-1.47,2.98,2.24c-.21,.25-.7,.53-1.3,.63v9.38c-.03,.24-1.4,.84-2.31,.84h-.42v-1.3h-3.05v2.94c0,.42,.11,.49,1.29,.49h3.43c1.4,0,2.62,0,3.12-.04,.42,0,.56-.1,.74-.38,.28-.49,.66-1.68,1.12-3.29h.42l.11,3.36Zm-26.71-13.97l-2.77-1.86c.21-.24,.59-.52,.98-.77V10.95l2.62,1.47h6.76l1.47-1.79s1.65,1.3,2.7,2.24c-.07,.39-.42,.56-.91,.56h-4.76v2.56h1.58l1.22-1.29,2.66,2c-.21,.25-.67,.49-1.22,.6v2.94c-.04,.21-1.19,.74-1.96,.74h-.38v-.63h-1.89v2.63h1.96l1.4-1.68s1.64,1.19,2.66,2.14c-.11,.38-.39,.56-.84,.56h-10.33l-.95,1.43Zm3.82-9.42v-2.56h-3.15v2.56h3.15Zm-3.15,1.02v2.31h7.32v-2.31h-7.32Zm3.15,3.33h-3.15v2.63h3.15v-2.63Zm.91,6.65v2.03h14.81v-2.03h-14.81Zm14.81,3.05h-14.81v2h14.81v-2Zm-14.81,5.25h14.81v-2.24h-14.81v2.24Zm6.3-17.57c1.58-1.75,3.12-4.52,4.03-7.53l3.67,1.4c-.14,.39-.59,.67-1.33,.6-.28,.46-.59,.95-.95,1.4h7.04l1.54-1.86s1.75,1.3,2.84,2.31c-.07,.39-.42,.56-.91,.56h-11.27c-1.26,1.47-2.73,2.7-4.2,3.54l-.45-.42Zm13.13,7v-1.12h-9.17v.52c0,.21-.95,.67-1.75,.67h-.35v-7.21l2.28,1.02h8.68l1.19-1.23,2.59,1.96c-.21,.21-.67,.49-1.23,.59v4.1c-.04,.21-1.16,.7-1.89,.7h-.35Zm-1.58-9.98s1.44,1.05,2.31,1.89c-.11,.39-.39,.56-.88,.56h-9.1l-.28-1.02h6.72l1.23-1.44Zm-7.6,7.81h2v-2.91h-2v2.91Zm3.61-2.91v2.91h1.96v-2.91h-1.96Zm5.57,2.91v-2.91h-1.96v2.91h1.96Z"/>
      <path class="cls-2" d="M1032.87,13.26c-.24,.32-.8,.56-1.5,.7v27.3c-.04,.28-1.37,1.05-2.38,1.05h-.42v-2.31h-22.47v1.47c0,.39-1.05,1.12-2.24,1.12h-.53V11.09l3.05,1.37h21.84l1.51-1.68,3.15,2.49Zm-4.3,.21h-22.47v25.52h22.47V13.47Zm-9.21,21.32c-1.33,.7-3.96,2.24-6.58,3.64-.14,.24-.35,.46-.52,.56l-1.58-2.14c.98-.66,1.15-.91,1.15-1.4v-2.38c-1.61,.7-3.29,1.26-5.11,1.75l-.31-.6c3.12-1.19,5.95-2.87,8.02-4.8h-2.31v.53c0,.21-1.12,.7-2.07,.7h-.35v-7.63l2.59,1.09h9.8l1.22-1.23,2.62,1.93c-.17,.21-.59,.49-1.12,.56v3.96l2.1,1.96c-.17,.25-.46,.28-1.09,.04-.8,.45-2.03,1.09-3.15,1.61,5.6,2.8,4.27,5.78,2.31,4.8-1.23-1.61-4.38-4.27-8.33-6.34l.25-.52c1.92,.49,3.54,1.05,4.83,1.65,.88-.84,1.86-1.89,2.56-2.73-.46,.21-1.05,.39-1.54,.39h-.39v-.74h-4.9c-.91,.91-2.03,1.68-3.25,2.42v3.92c1.47-.42,3.22-.95,5-1.51l.14,.53Zm5.6-15.68s1.75,1.3,2.8,2.31c-.1,.38-.42,.56-.91,.56h-19.53l-.28-1.02h8.93v-2.56h-6.93l-.28-1.05h7.21v-3.01l3.57,.35c-.07,.42-.32,.7-1.01,.8v1.86h3.46l1.47-1.75s1.64,1.26,2.73,2.24c-.1,.39-.42,.56-.91,.56h-6.75v2.56h4.94l1.5-1.86Zm-12.85,9.28h10.26v-3.26h-10.26v3.26Z"/>
      <path class="cls-2" d="M1066.09,38.64c1.4,.25,1.75,.63,1.75,1.15,0,1.51-2.13,1.75-13.65,1.75h-8.4c-5.11,0-7.04-.63-7.04-3.99V13.68h-1.37l-.28-1.02h25.06l1.71-2.24s2,1.58,3.19,2.7c-.11,.39-.42,.56-.88,.56h-24.89v23.56c0,1.54,.74,2.1,4.2,2.1h8.93c3.75,0,6.83-.07,7.91-.18,.66-.04,1.22-.11,1.65-.18,.35-.07,.94-.21,1.5-.39h.42l.17,.03Zm-15.4-1.44v-1.65h-4.45v1.51c0,.25-1.05,.81-2.07,.81h-.35v-11.48l2.55,1.16h4.03l1.26-1.3,2.62,2c-.17,.24-.63,.49-1.16,.6v7.63c-.04,.24-1.26,.74-2.07,.74h-.38Zm0-2.66v-5.99h-4.45v5.99h4.45Zm8.26-10.68h-8.65v1.09c0,.21-1.19,.81-2.28,.81h-.38V15.43l2.84,1.23h8.16l1.4-1.44,2.98,2.21c-.21,.24-.74,.52-1.33,.67v6.41c-.04,.25-1.4,.77-2.28,.77h-.45v-1.4Zm0-1.05v-5.11h-8.65v5.11h8.65Zm3.61,14.28v-1.54h-4.52v1.05c0,.25-1.08,.77-2.1,.77h-.35v-10.99l2.59,1.16h4.06l1.3-1.4,2.76,2.14c-.21,.25-.7,.53-1.26,.63v7.42c-.04,.21-1.29,.77-2.1,.77h-.38Zm0-2.56v-5.99h-4.52v5.99h4.52Z"/>
      <path class="cls-3" d="M1074.54,22.54c3.54,1.16,6.02,2.77,7.28,4.73,.49,.74,.8,1.68,.7,2.52-.07,.7-.53,1.33-1.37,1.33-.7,0-1.16-.49-1.65-1.58-1.09-2.21-2.73-4.34-5.36-6.48l.38-.52Z"/>
      <path class="cls-3" d="M1118.61,17.11c-.25,.28-.77,.6-1.51,.77v23.56c-.07,.28-1.47,1.02-2.49,1.02h-.42v-2.42h-15.96v1.4c0,.35-1.09,1.09-2.38,1.09h-.49V14.9l3.12,1.4h4.55c.56-1.82,1.02-4.24,1.23-5.99l4.62,.8c-.1,.42-.49,.77-1.22,.81-.84,1.3-2.1,2.98-3.4,4.38h9.56l1.54-1.79,3.26,2.59Zm-20.37,.18v6.44h15.96v-6.44h-15.96Zm0,7.42v6.55h15.96v-6.55h-15.96Zm15.96,14.28v-6.69h-15.96v6.69h15.96Z"/>
      <path class="cls-3" d="M1156.18,19.25c-.28,.35-.98,.7-1.86,.88v21.25c-.04,.28-1.4,.95-2.42,.95h-.42v-2.7h-20.23v1.93c0,.35-1.12,1.02-2.31,1.02h-.49V17l3.04,1.37h8.3v-7.77l4.13,.45c-.11,.49-.39,.84-1.26,.98v6.34h8.4l1.61-1.86,3.5,2.73Zm-24.92,.14v8.79h8.54v-8.79h-8.54Zm0,19.22h8.54v-9.38h-8.54v9.38Zm11.41-19.22v8.79h8.82v-8.79h-8.82Zm8.82,19.22v-9.38h-8.82v9.38h8.82Z"/>
      <path class="cls-3" d="M1161.16,42.03c4.34-1.19,9.31-3.61,11.73-5.43l3.43,2.42c-.28,.35-.88,.42-1.79,.14-3.19,1.47-8.4,2.87-13.2,3.4l-.17-.53Zm5.7-19.53c-.8,.42-1.64,.84-2.49,1.26-.21,.35-.52,.6-.77,.7l-1.33-2.7c1.16-.56,1.33-.84,1.33-1.36V12.28l3.25,1.09c2.45-.95,5.15-2.21,6.55-3.01l2.42,2.45c-.21,.25-.63,.21-1.09-.03-1.82,.49-5.36,1.26-8.51,1.65v6.34c1.65-.45,3.64-1.08,5.64-1.72-.63-1.19-1.5-2.31-2.31-3.12l.39-.25c7.42,2.38,5.36,7.67,2.84,5.85-.07-.6-.28-1.16-.56-1.79-1.26,.67-2.97,1.58-4.87,2.56l2.49,1.05h14.74l1.44-1.51c-.04-.59-.17-1.12-.49-1.44-.38-.32-1.29-.6-2.24-.77l.04-.56c.95,.11,2.59,.18,3.19,.18,.52,0,.77-.03,.98-.24,.53-.42,.88-2.24,1.09-5.57h-4.94c-.49,3.64-2.03,7.28-9.03,9.8l-.46-.53c5.39-2.84,6.3-6.13,6.55-9.28h-4.34l-.32-1.02h12.22l1.43-1.4,2.8,2.24c-.25,.25-.66,.42-1.33,.49-.25,4.48-.81,6.72-2,7.6-.66,.49-1.61,.8-2.66,.88l2.55,1.93c-.21,.24-.7,.52-1.33,.63v11.9c-.04,.21-1.4,.81-2.34,.81h-.46v-1.37h-15.3v1.05c0,.25-1.19,.88-2.31,.88h-.46v-15.54Zm2.77,1.86v2.91h15.3v-2.91h-15.3Zm15.3,6.79v-2.87h-15.3v2.87h15.3Zm0,3.96v-2.94h-15.3v2.94h15.3Zm-6.06,2.28c17.68,1.02,12.81,6.83,9.77,4.76-1.92-1.44-5.32-3.08-9.91-4.24l.14-.53Z"/>
      <path class="cls-3" d="M1227.11,28.98c-.28,.25-.73,.45-1.47,.53-.7,5.92-2.1,10.43-4.03,11.87-1.09,.77-2.56,1.19-4.24,1.16,0-.81-.17-1.54-.7-1.96-.56-.46-2.07-.88-3.54-1.09v-.59c1.58,.14,4.38,.38,5.21,.38,.7,0,1.05-.07,1.51-.38,1.16-.88,2.31-4.8,2.94-9.8h-3.47c-2.56,6.2-7.42,10.78-15.05,13.69l-.31-.56c5.95-3.08,9.94-7.67,12.04-13.13h-3.33c-2.91,4.55-7.74,8.3-13.48,10.78l-.38-.52c4.34-2.59,8.12-6.41,10.54-10.26h-3.64c-2.49,2.21-5.6,4.31-9,5.64l-.28-.35c4.13-2.66,7.98-6.97,9.84-10.29h-1.19v.91c0,.28-1.19,.91-2.35,.91h-.42V11.19l2.98,1.3h13.86l1.5-1.61,3.15,2.45c-.25,.28-.77,.52-1.47,.66v10.75c-.04,.21-1.47,.84-2.38,.84h-.46v-1.51h-11.9l3.12,.84c-.14,.39-.52,.63-1.54,.63-.66,.8-1.47,1.68-2.34,2.52h15.68l1.61-1.58,2.97,2.49Zm-22.02-15.47v4.2h14.42v-4.2h-14.42Zm0,9.56h14.42v-4.34h-14.42v4.34Z"/>
      <path class="cls-3" d="M1231.53,18.12c7.74,1.19,5.81,6.55,3.12,4.8-.46-1.61-2.03-3.43-3.43-4.48l.32-.32Zm23.73,4.76c2.03,3.05,5.63,5.36,9.1,6.48l-.07,.39c-1.09,.21-1.92,1.12-2.27,2.52-1.82-1.02-3.43-2.38-4.76-4.13-.17,.07-.35,.1-.53,.14v6.2c-.04,.21-1.4,.63-2.2,.63h-.42v-1.68h-7.56v5.18c0,.66,.21,.84,1.96,.84h4.76c2.1,0,3.67,0,4.34-.07,.53-.03,.77-.18,.95-.53,.35-.6,.8-2.38,1.26-4.52h.42l.14,4.69c.95,.32,1.19,.63,1.19,1.16,0,1.3-1.4,1.72-8.47,1.72h-4.94c-3.46,0-4.3-.53-4.3-2.73v-10.08c-1.68,1.57-3.68,2.94-5.92,4.06l-.35-.56c3.46-2.49,6.09-5.99,7.66-9.7h-5.71l-.07-.24c-1.12,3.5-2.34,7.25-2.66,8.3-.25,1.05-.49,2.14-.45,2.98,.04,1.65,1.12,3.22,1.02,6.09-.11,1.58-.91,2.52-2.14,2.52-.7,0-1.19-.6-1.29-1.75,.52-3.57,.35-6.48-.42-7-.49-.35-.98-.46-1.72-.53v-.74h1.51c.46,0,.59,0,.94-.7q.63-1.19,5.99-13.58l.59,.14-1.12,3.5h5.81v-4.8h-5.43l-.28-.98h5.71v-5.53l3.85,.39c-.04,.49-.35,.84-1.26,.95v4.2h5.21v-5.53l3.99,.39c-.07,.49-.38,.84-1.26,.95v4.2h2.41l1.72-2.28s1.96,1.61,3.12,2.73c-.11,.39-.42,.53-.91,.53h-6.34v4.8h3.01l1.71-2.28s2.03,1.58,3.19,2.73c-.07,.39-.42,.56-.88,.56h-7.84Zm-21.25-12.25c8.05,1.44,6.02,6.97,3.22,5.18-.46-1.75-2.13-3.71-3.54-4.9l.31-.28Zm22.02,15.68c-.63-1.05-1.19-2.21-1.64-3.43h-5.92c-.63,1.33-1.44,2.59-2.35,3.75l.88,.39h6.83l1.29-1.37,.91,.66Zm-1.92,6.09v-4.41h-7.56v4.41h7.56Zm-5.99-15.33v4.8h5.21v-4.8h-5.21Z"/>
      <path class="cls-3" d="M1296.36,38.64c1.4,.25,1.75,.63,1.75,1.15,0,1.51-2.13,1.75-13.65,1.75h-8.4c-5.11,0-7.04-.63-7.04-3.99V13.68h-1.37l-.28-1.02h25.06l1.71-2.24s2,1.58,3.19,2.7c-.11,.39-.42,.56-.88,.56h-24.89v23.56c0,1.54,.74,2.1,4.2,2.1h8.93c3.75,0,6.83-.07,7.91-.18,.66-.04,1.22-.11,1.65-.18,.35-.07,.94-.21,1.5-.39h.42l.17,.03Zm-15.4-1.44v-1.65h-4.45v1.51c0,.25-1.05,.81-2.07,.81h-.35v-11.48l2.55,1.16h4.03l1.26-1.3,2.62,2c-.17,.24-.63,.49-1.16,.6v7.63c-.04,.24-1.26,.74-2.07,.74h-.38Zm0-2.66v-5.99h-4.45v5.99h4.45Zm8.26-10.68h-8.65v1.09c0,.21-1.19,.81-2.28,.81h-.38V15.43l2.84,1.23h8.16l1.4-1.44,2.98,2.21c-.21,.24-.74,.52-1.33,.67v6.41c-.04,.25-1.4,.77-2.28,.77h-.45v-1.4Zm0-1.05v-5.11h-8.65v5.11h8.65Zm3.61,14.28v-1.54h-4.52v1.05c0,.25-1.08,.77-2.1,.77h-.35v-10.99l2.59,1.16h4.06l1.3-1.4,2.76,2.14c-.21,.25-.7,.53-1.26,.63v7.42c-.04,.21-1.29,.77-2.1,.77h-.38Zm0-2.56v-5.99h-4.52v5.99h4.52Z"/>
      <path class="cls-3" d="M1304.8,22.54c3.54,1.16,6.02,2.77,7.28,4.73,.49,.74,.8,1.68,.7,2.52-.07,.7-.53,1.33-1.37,1.33-.7,0-1.16-.49-1.65-1.58-1.09-2.21-2.73-4.34-5.36-6.48l.38-.52Z"/>
      <path class="cls-3" d="M1327,22.19c5.71,3.19,3.71,7.18,1.72,5.53-.18-1.3-.91-2.91-1.72-4.27v18.1c0,.35-1.12,1.02-2.03,1.02h-.52v-15.3c-1.09,2.59-2.45,4.97-4.2,7.14l-.52-.45c2.24-3.99,3.5-9.14,4.24-14.25h-3.5l-.28-1.02h4.27V10.18l3.78,.42c-.07,.52-.35,.84-1.23,.98v7.07l1.4-1.96s1.65,1.44,2.66,2.45c-.1,.39-.42,.56-.91,.56h-3.15v2.49Zm24.47,17.61c1.05,1.05,1.16,1.47,.91,1.96-.66,1.26-2.62,.63-4.24-.24-1.5-.7-2.77-1.75-3.78-3.05-2.56,1.93-5.46,3.19-8.51,3.96l-.25-.52c2.7-1.12,5.39-2.8,7.67-5.08-1.12-1.96-1.89-4.34-2.35-7.07h-4.52c-.07,.91-.17,1.82-.35,2.73,5.85,1.54,4.03,5.74,1.68,4.27-.28-1.02-1.05-2.17-1.92-3.08-.8,3.22-2.62,6.37-6.86,8.82l-.53-.52c4.45-3.78,5.04-8.26,5.18-12.22h-3.01l-.28-1.02h10.43c-.56-3.29-.77-7.07-.88-11.31-.25,.14-.56,.24-.98,.18-1.29,1.96-3.61,4.66-5.74,6.62,1.19-.11,2.62-.25,4.16-.39-.25-.91-.59-1.79-.95-2.42l.46-.18c4.8,3.15,2.49,6.76,.84,5.01,0-.52-.04-1.05-.18-1.64-1.15,.49-2.84,1.09-4.51,1.68-.21,.39-.46,.66-.7,.77l-1.44-2.77s.56-.14,.77-.28c1.22-1.09,2.59-3.01,3.67-4.94-.7,.28-1.58,.63-2.42,.91-.21,.46-.45,.74-.74,.88l-1.47-2.94s.56-.14,.77-.25c1.47-1.4,3.19-4.97,3.78-6.79l3.25,1.54c-.14,.28-.53,.6-1.22,.53-1.09,1.58-2.84,3.61-4.48,5.08,.94-.03,2.1-.1,3.22-.21,.49-.88,.91-1.68,1.19-2.35l2.7,1.47c-.07-2.07-.07-4.24-.07-6.51l3.85,.46c-.07,.46-.38,.88-1.26,1.02-.11,6.44-.07,12.25,.7,16.84h5.15l1.51-1.82s1.68,1.3,2.76,2.28c-.07,.39-.42,.56-.91,.56h-8.3c.39,1.96,.95,3.71,1.65,5.15,1.05-1.23,1.96-2.66,2.7-4.2l3.12,1.93c-.25,.35-.56,.45-1.33,.28-.95,1.51-2.03,2.8-3.19,3.96,.81,.91,1.68,1.65,2.8,2.17,.59,.32,.77,.28,1.05-.35,.42-.95,.98-2.66,1.4-4.17l.42,.03-.46,5.25Zm-8.96-21.84s.49-.14,.7-.28c1.19-1.33,2.59-4.87,3.04-6.69l3.36,1.54c-.14,.28-.52,.6-1.22,.53-.95,1.47-2.42,3.4-3.78,4.83,.88-.04,1.89-.11,2.87-.17,.56-1.02,.98-1.93,1.26-2.66l3.01,1.96c-.17,.28-.6,.49-1.23,.35-1.22,1.75-3.25,4.13-5.18,5.88,1.16-.11,2.59-.21,4.1-.39-.28-.7-.63-1.37-.98-1.89l.42-.18c5.15,2.73,2.87,6.62,1.12,4.83,0-.63-.11-1.33-.32-1.96-1.16,.39-2.84,.98-4.55,1.54l-.07,.18,.31-.21c4.8,1.12,2.66,4.45,.91,2.98-.07-.98-.63-2.07-1.26-2.7-.21,.31-.42,.56-.66,.66l-1.33-2.8s.59-.14,.77-.28c.95-.88,2.07-2.42,3.01-4.03-.7,.28-1.47,.56-2.21,.84-.21,.46-.46,.77-.74,.91l-1.37-2.8Z"/>
      <path class="cls-3" d="M1367.37,28.7c-2.21,1.57-5.43,3.96-9.77,6.72-.07,.42-.35,.8-.7,.98l-1.68-3.4c.91-.32,2.52-.91,4.48-1.68v-10.5h-3.75l-.28-.98h4.03V10.74l4.03,.42c-.07,.49-.38,.84-1.26,.95v7.74h.49l1.54-2.38s1.79,1.68,2.77,2.84c-.11,.35-.46,.52-.88,.52h-3.92v9.38c1.5-.6,3.12-1.26,4.73-1.96l.17,.46Zm6.3-2.31c-.53,.98-1.12,1.93-1.79,2.8h11.59l1.5-1.51,2.87,2.38c-.28,.28-.66,.45-1.4,.56-.46,6.2-1.5,9.66-3.08,10.89-.98,.74-2.21,1.08-3.61,1.08,0-.77-.14-1.47-.56-1.86-.46-.42-1.5-.77-2.59-.95v-.59c1.16,.1,3.12,.25,3.78,.25,.59,0,.88-.07,1.23-.32,.88-.74,1.71-3.82,2.13-8.89h-2.2c-1.93,5.39-5.64,9.45-11.52,12.29l-.31-.53c4.45-2.94,7.32-7,8.89-11.76h-2.35c-2.45,4.45-6.54,8.02-11.83,10.47l-.38-.56c4.13-2.52,7.42-6.02,9.42-9.91h-2.45c-2.1,2.31-4.8,4.2-8.02,5.67l-.35-.49c3.47-2.31,6.16-5.57,7.81-9.03h-5.11l-.28-1.02h18.03l1.79-2.24s2.03,1.54,3.29,2.7c-.1,.39-.46,.56-.91,.56h-13.58Zm-2-3.15c0,.28-1.19,.84-2.28,.84h-.42V10.91l2.87,1.23h8.93l1.47-1.58,3.12,2.42c-.25,.25-.77,.56-1.47,.66v9.07c-.03,.28-1.33,.98-2.31,.98h-.46v-1.47h-9.45v1.02Zm0-10.05v3.47h9.45v-3.47h-9.45Zm9.45,8.02v-3.57h-9.45v3.57h9.45Z"/>
      <path class="cls-3" d="M1412.21,26.46c7.74,.8,8.93,3.4,8.16,4.55,.67,.53,1.85,1.47,2.66,2.21-.11,.39-.42,.56-.91,.56h-7.7v5.08c0,2.14-.46,3.36-4.24,3.71-.11-.84-.35-1.47-.88-1.89-.56-.46-1.54-.81-3.33-1.05v-.52s4.13,.28,4.94,.28c.63,0,.84-.21,.84-.7v-4.9h-20.2l-.25-1.02h20.44v-2.66l3.85,.39c-.07,.49-.42,.73-1.19,.88v1.4h3.82l.91-1.19c-.35-.03-.7-.18-1.01-.49-.46-.63-1.09-1.3-1.96-1.93-5.04,.53-11.76,1.05-21.04,1.72-.21,.39-.59,.6-.95,.67l-1.5-3.19c2.7,.07,7.35,.07,12.95,.03v-2.63h-6.62v.63c0,.24-1.16,.84-2.24,.84h-.38v-11.13l2.84,1.19h6.41v-2.56h-13.27l-.31-1.05h13.58v-3.4l3.96,.42c-.07,.49-.42,.84-1.26,.98v2h8.68l1.75-2.24s2,1.61,3.22,2.73c-.1,.39-.46,.56-.94,.56h-12.71v2.56h6.72l1.37-1.44,2.98,2.21c-.17,.28-.7,.56-1.37,.7v7.14c-.04,.24-1.33,.88-2.24,.88h-.38v-1.02h-7.07v2.63c2.1-.03,4.31-.03,6.55-.07-.8-.46-1.79-.91-2.87-1.29l.21-.56Zm-14.63,8.12c8.93,.67,7.49,6.79,4.41,5.25-.77-1.79-2.94-3.85-4.73-4.94l.31-.32Zm1.44-16.24v2.66h6.62v-2.66h-6.62Zm6.62,6.41v-2.7h-6.62v2.7h6.62Zm2.7-6.41v2.66h7.07v-2.66h-7.07Zm7.07,6.41v-2.7h-7.07v2.7h7.07Z"/>
      <path class="cls-3" d="M284.84,65.71c-.28,.31-.88,.67-1.68,.81v24.12c0,2.14-.42,3.4-4.13,3.78-.11-.91-.32-1.57-.81-2.03-.52-.42-1.44-.77-3.08-1.02v-.56s3.68,.32,4.38,.32,.84-.28,.84-.8v-7.81h-8.44v10.85c0,.21-.88,.88-2.31,.88h-.49v-11.73h-8.12c-.63,4.38-2.24,8.68-6.3,11.94l-.52-.31c3.99-5.22,4.45-11.83,4.45-18.52v-12.04l3.26,1.33h18.1l1.47-1.79,3.4,2.59Zm-15.72,15.75v-7.39h-7.7v1.51c0,1.89-.04,3.89-.28,5.88h7.98Zm-7.7-15.58v7.18h7.7v-7.18h-7.7Zm10.5,0v7.18h8.44v-7.18h-8.44Zm8.44,15.58v-7.39h-8.44v7.39h8.44Z"/>
      <path class="cls-3" d="M318.79,90.64c1.4,.25,1.75,.63,1.75,1.15,0,1.51-2.14,1.75-13.65,1.75h-8.4c-5.11,0-7.04-.63-7.04-3.99v-23.87h-1.36l-.28-1.02h25.06l1.72-2.24s2,1.58,3.19,2.7c-.1,.39-.42,.56-.88,.56h-24.89v23.56c0,1.54,.73,2.1,4.2,2.1h8.93c3.75,0,6.83-.07,7.91-.18,.67-.04,1.23-.11,1.65-.18,.35-.07,.95-.21,1.51-.39h.42l.17,.03Zm-15.4-1.44v-1.65h-4.45v1.51c0,.25-1.05,.81-2.07,.81h-.35v-11.48l2.56,1.16h4.03l1.26-1.3,2.63,2c-.18,.24-.63,.49-1.16,.6v7.63c-.04,.24-1.26,.74-2.07,.74h-.38Zm0-2.66v-5.99h-4.45v5.99h4.45Zm8.26-10.68h-8.65v1.09c0,.21-1.19,.81-2.27,.81h-.39v-10.33l2.84,1.23h8.16l1.4-1.44,2.98,2.21c-.21,.24-.74,.52-1.33,.67v6.41c-.04,.25-1.4,.77-2.28,.77h-.46v-1.4Zm0-1.05v-5.11h-8.65v5.11h8.65Zm3.61,14.28v-1.54h-4.52v1.05c0,.25-1.08,.77-2.1,.77h-.35v-10.99l2.59,1.16h4.06l1.3-1.4,2.77,2.14c-.21,.25-.7,.53-1.26,.63v7.42c-.04,.21-1.3,.77-2.1,.77h-.38Zm0-2.56v-5.99h-4.52v5.99h4.52Z"/>
      <path class="cls-3" d="M326.83,74.54c3.54,1.16,6.02,2.77,7.28,4.73,.49,.74,.81,1.68,.7,2.52-.07,.7-.53,1.33-1.37,1.33-.7,0-1.16-.49-1.65-1.58-1.09-2.21-2.73-4.34-5.36-6.48l.39-.52Z"/>
      <path class="cls-3" d="M354.48,91.37c0,1.86-.38,2.87-3.36,3.15-.03-.63-.21-1.23-.59-1.58-.39-.35-1.05-.6-2.28-.77v-.56s2.56,.21,3.15,.21c.56,0,.7-.21,.7-.67v-12.53c-1.75,.42-3.64,.81-5.74,1.19-.07,5.08-.56,10.75-4.2,14.77l-.56-.35c2.1-3.96,2.38-8.96,2.42-13.97l-.95,.18c-.17,.42-.56,.7-.88,.77l-.77-2.87c.7-.03,1.58-.07,2.59-.14v-12.22l2.77,1.19h.52c.25-1.37,.53-3.47,.7-4.9l3.92,.77c-.11,.49-.52,.77-1.29,.81-.6,.98-1.44,2.31-2.17,3.33h3.33l1.19-1.47,2.87,2.24c-.25,.21-.73,.49-1.37,.63v8.51l2.31-.31,.07,.59c-.73,.21-1.54,.42-2.38,.67v13.34Zm-8.12-13.37c1.75-.18,3.71-.39,5.74-.63v-9.17h-5.74v9.8Zm1.26-8.4c5.15,4.1,2.52,8.26,1.15,6.37-.1-1.47-.46-4.2-1.64-6.09l.49-.28Zm.31,10.68c5.04,4.73,2.2,8.86,.94,6.9-.07-1.58-.35-4.62-1.47-6.65l.52-.25Zm25.17,10.71c.74,.31,.84,.56,.84,1.05,0,.98-.95,1.54-3.71,1.54h-1.47c-1.96,0-2.28-.7-2.28-2.28v-16.1h-5.53v5.74c0,4.55-.56,10.12-6.3,13.83l-.42-.39c3.68-3.85,4.17-8.65,4.17-13.44v-8.02l3.01,1.26h4.76l1.37-1.54,2.8,2.42c-.21,.25-.63,.46-1.33,.53v15.02c0,.45,.07,.6,.49,.6h1.61c.17-.03,.31-.07,.42-.42,.21-.53,.67-3.01,1.02-4.97h.46l.1,5.18Zm-17.4-21.7h13.27l1.82-2.42s2.03,1.68,3.26,2.87c-.07,.39-.42,.56-.91,.56h-17.15l-.28-1.02Zm4.9-6.9c7.91,2.38,5.67,8.05,3.01,6.02-.31-1.96-1.89-4.34-3.4-5.78l.39-.25Z"/>
      <path class="cls-3" d="M409.02,68.72c-.25,.28-.63,.35-1.33,.39-.98,1.23-2.77,2.94-4.2,3.96l-.35-.25c.39-1.15,.88-2.91,1.19-4.27h-6.27v5.11c0,.91,.04,.91,1.12,.91h5.92c.21,0,.52,0,.95-.1h.28l.21,.03c1.02,.31,1.16,.49,1.16,.94,0,1.05-.66,1.51-3.75,1.51h-5.04c-3.26,0-3.57-.31-3.57-3.29v-5.11h-13.23c.21,2.49-.73,4.17-1.85,4.87-.98,.7-2.31,.63-2.77-.35-.35-.88,.24-1.68,1.05-2.14,1.37-.84,2.56-3.01,2.28-5.39l.56-.03c.28,.74,.45,1.36,.6,2h22.23l1.75-1.75,3.08,2.98Zm-17.05,2c-.14,.42-.52,.66-1.5,.63-2.28,3.68-5.6,6.44-12.01,7.53l-.28-.46c5.88-2.28,8.68-5.53,10.01-9.59l3.78,1.89Zm12.46,18.8s2.14,1.68,3.4,2.91c-.11,.39-.46,.56-.98,.56h-28.14l-.32-1.02h12.92v-10.82h-8.65l-.28-1.01h16.84l1.71-2.21s2.03,1.54,3.22,2.66c-.11,.39-.45,.56-.91,.56h-9.07v10.82h8.4l1.85-2.45Zm-14.14-27.58c7.53,1.75,4.52,7.28,1.79,5.01-.1-1.65-1.12-3.64-2.1-4.8l.31-.21Z"/>
      <path class="cls-3" d="M417.97,78.91c0,4.31-.45,11.13-5.85,15.65l-.42-.35c3.22-4.8,3.57-10.54,3.57-15.3v-5.15l3.22,1.3h19.99l1.86-2.31s2.1,1.61,3.43,2.77c-.11,.39-.46,.56-.94,.56h-24.85v2.84Zm22.68-14.7s2.1,1.54,3.36,2.7c-.1,.38-.42,.56-.91,.56h-7.84l2.17,1.44c-.25,.31-.56,.42-1.3,.18-.98,.63-2.21,1.26-3.57,1.82,4.97,2.17,4.06,4.55,2.14,4.03-1.12-.84-2.91-1.86-5.18-2.84-3.47,1.16-7.46,2.1-11.2,2.59l-.21-.53c2.98-.73,6.2-1.79,9.1-3.05-2.1-.84-4.52-1.65-7.07-2.28l.18-.59c4.03,.39,7.11,1.02,9.49,1.68,1.58-.81,3.05-1.65,4.17-2.45h-20.55l-.31-1.05h14.7c-.35-1.54-1.68-3.22-2.94-4.17l.32-.28c5.25,.49,5.74,3.4,4.62,4.45h9.07l1.79-2.2Zm-.21,25.8s2.1,1.54,3.43,2.73c-.1,.39-.46,.56-.94,.56h-25.34l-.32-1.05h11.73v-4.73h-6.9l-.28-1.02h7.18v-4.2h-5.78c-1.16,1.75-2.52,3.26-3.96,4.31l-.49-.31c1.54-2.21,3.05-5.6,3.82-9.17l3.75,1.16c-.18,.39-.6,.7-1.33,.66-.35,.84-.77,1.58-1.19,2.35h5.18v-4.55l3.92,.39c-.07,.49-.35,.81-1.16,.91v3.26h4.31l1.75-2.14s1.96,1.43,3.22,2.59c-.1,.39-.46,.56-.91,.56h-8.37v4.2h3.71l1.68-2.1s1.93,1.47,3.12,2.56c-.11,.39-.42,.56-.91,.56h-7.6v4.73h6.86l1.82-2.24Z"/>
      <path class="cls-3" d="M446.78,93.09c3.29-1.58,7.28-4.34,10.15-7.67l3.15,2.31c-.25,.31-.6,.42-1.33,.21-3.26,2.84-8.02,4.83-11.76,5.64l-.21-.49Zm28.88-26.15s1.96,1.44,3.22,2.52c-.1,.39-.46,.56-.94,.56h-9.87l3.36,.98c-.14,.42-.6,.7-1.37,.63-.77,.98-2.03,2.1-3.33,3.08h5.43l1.72-2.07s1.96,1.44,3.15,2.52c-.11,.38-.46,.56-.88,.56h-11.9v3.22h5.88l1.65-1.96s1.82,1.37,3.01,2.42c-.1,.38-.42,.56-.95,.56h-9.59v3.43h9.17l1.82-2.17s1.96,1.51,3.26,2.63c-.11,.39-.46,.56-.95,.56h-13.3v9.42c-.04,.18-.91,.77-2.35,.77h-.46v-10.19h-13.55l-.31-1.02h13.86v-3.43h-10.19l-.28-1.02h10.47v-3.22h-11.9l-.32-1.02h8.72c-.17-.07-.31-.17-.49-.31-.1-1.4-1.15-3.12-2.1-4.1l.39-.24c4.8,1.26,4.66,4.03,3.33,4.66h6.34c.84-1.4,1.68-3.26,2.24-4.69h-20.2l-.28-1.02h11.62v-6.65l3.64,.35c-.07,.46-.35,.77-1.12,.88v5.43h3.33v-6.65l3.68,.35c-.07,.46-.35,.77-1.12,.91v5.39h1.19c1.16-1.68,2.49-4.13,3.29-5.95l3.71,1.33c-.21,.38-.67,.63-1.4,.52-1.16,1.26-2.91,2.87-4.62,4.1h4.55l1.75-2.07Zm-24.08-3.78c7.25,2.07,5.01,7.21,2.56,5.29-.25-1.72-1.65-3.82-2.94-5.01l.39-.28Zm14.39,23.14c16.63,3.47,11.87,9.1,9.21,6.79-1.79-1.89-5.04-4.27-9.42-6.27l.21-.52Z"/>
      <path class="cls-3" d="M511.29,90.64c1.4,.25,1.75,.63,1.75,1.15,0,1.51-2.14,1.75-13.65,1.75h-8.4c-5.11,0-7.04-.63-7.04-3.99v-23.87h-1.36l-.28-1.02h25.06l1.72-2.24s2,1.58,3.19,2.7c-.1,.39-.42,.56-.88,.56h-24.89v23.56c0,1.54,.73,2.1,4.2,2.1h8.93c3.75,0,6.83-.07,7.91-.18,.67-.04,1.23-.11,1.65-.18,.35-.07,.95-.21,1.51-.39h.42l.17,.03Zm-15.4-1.44v-1.65h-4.45v1.51c0,.25-1.05,.81-2.07,.81h-.35v-11.48l2.56,1.16h4.03l1.26-1.3,2.63,2c-.18,.24-.63,.49-1.16,.6v7.63c-.04,.24-1.26,.74-2.07,.74h-.38Zm0-2.66v-5.99h-4.45v5.99h4.45Zm8.26-10.68h-8.65v1.09c0,.21-1.19,.81-2.27,.81h-.39v-10.33l2.84,1.23h8.16l1.4-1.44,2.98,2.21c-.21,.24-.74,.52-1.33,.67v6.41c-.04,.25-1.4,.77-2.28,.77h-.46v-1.4Zm0-1.05v-5.11h-8.65v5.11h8.65Zm3.61,14.28v-1.54h-4.52v1.05c0,.25-1.08,.77-2.1,.77h-.35v-10.99l2.59,1.16h4.06l1.3-1.4,2.77,2.14c-.21,.25-.7,.53-1.26,.63v7.42c-.04,.21-1.3,.77-2.1,.77h-.38Zm0-2.56v-5.99h-4.52v5.99h4.52Z"/>
      <path class="cls-3" d="M519.33,74.54c3.54,1.16,6.02,2.77,7.28,4.73,.49,.74,.81,1.68,.7,2.52-.07,.7-.53,1.33-1.37,1.33-.7,0-1.16-.49-1.65-1.58-1.09-2.21-2.73-4.34-5.36-6.48l.39-.52Z"/>
      <path class="cls-3" d="M542.22,76.04v17.64c0,.31-1.08,.91-2,.91h-.53v-15.26c-.14,.03-.28,.03-.46,.03-1.33,3.15-3.08,6.9-4.66,9.52l-.6-.24c.84-2.87,2.1-7.46,3.01-11.2l2.7,.95v-2.35h-5.15l-.28-1.05h5.43v-12.71l3.78,.42c-.1,.49-.35,.84-1.26,.98v11.31h1.12l1.54-1.93s1.72,1.37,2.77,2.42c-.1,.38-.42,.56-.88,.56h-4.55Zm-7.04-10.85c6.06,5.08,3.75,10.01,1.61,7.84-.07-2.42-1.23-5.57-2.1-7.67l.49-.18Zm7.91,12.78c6.62,5.08,4.2,10.29,1.93,8.05-.1-2.49-1.33-5.67-2.38-7.84l.46-.21Zm-.31-4.83c.63-2.14,1.47-5.5,2.14-8.3l3.47,1.16c-.18,.42-.56,.7-1.3,.67-1.09,2.24-2.48,4.9-3.71,6.72l-.6-.25Zm19.18,3.57l3.15,2.31c-.24,.28-.8,.6-1.5,.73v11.13c0,2-.42,3.19-3.68,3.5-.1-.81-.25-1.47-.7-1.89-.39-.42-1.16-.74-2.52-.91v-.56s2.94,.21,3.61,.21c.53,0,.7-.18,.7-.67v-3.19h-8.96c-.39,2.77-1.54,5.53-5.32,7.46l-.35-.39c2.91-2.7,3.22-6.2,3.22-9.8v-7.67l3.08,1.23h7.98l1.3-1.51Zm1.75-3.99s1.86,1.47,3.01,2.56c-.1,.39-.42,.56-.94,.56h-17.78l-.28-1.05h7.35v-3.26h-5.04l-.25-1.02h5.29v-3.05h-6.48l-.28-1.02h6.76v-4.17l3.82,.35c-.07,.49-.35,.77-1.12,.91v2.91h3.33l1.65-2.07s1.85,1.47,2.98,2.52c-.1,.38-.42,.56-.88,.56h-7.07v3.05h2.66l1.51-1.89s1.72,1.33,2.8,2.35c-.1,.39-.42,.56-.91,.56h-6.06v3.26h4.34l1.61-2.07Zm-2.7,13.62v-3.01h-8.82v1.3c0,.52,0,1.12-.04,1.72h8.86Zm-8.82-7.07v3.05h8.82v-3.05h-8.82Z"/>
      <path class="cls-3" d="M571.97,84.51c1.05,3.36,.67,5.99-.18,7.18-.59,.81-1.89,1.05-2.45,.32-.42-.7-.07-1.54,.6-2.14,.84-.95,1.65-3.4,1.4-5.36h.63Zm-2.49-4.13s.66-.14,.91-.35c1.47-1.4,3.19-3.92,4.62-6.34-.91,.35-2.1,.74-3.26,1.09-.25,.42-.56,.74-.88,.84l-1.29-3.22s.63-.14,.84-.32c1.68-2,3.71-6.93,4.34-9.52l3.61,1.65c-.18,.31-.6,.63-1.26,.56-1.26,2.35-3.43,5.57-5.43,7.74,1.12,.03,2.56,0,3.99,0,.66-1.26,1.23-2.38,1.58-3.33l3.29,1.86c-.17,.31-.63,.59-1.29,.46-1.68,2.7-4.76,6.44-7.56,9,1.51-.07,3.43-.18,5.53-.32-.28-1.26-.77-2.59-1.23-3.57l.49-.18c5.08,3.85,2.73,7.95,.95,6.06,.04-.42,0-.88-.07-1.37-1.61,.53-3.71,1.16-5.88,1.75-.25,.39-.56,.63-.91,.74l-1.08-3.22Zm5.04,3.61c4.06,4.13,1.29,8.16-.28,6.09,.39-1.93,.21-4.38-.21-5.95l.49-.14Zm2.7-.56c4.76,2.56,2.56,6.2,.81,4.55,.03-1.47-.6-3.26-1.23-4.41l.42-.14Zm13.65,4.69c-2.17,.98-5.36,2.35-9.77,4.03-.14,.42-.46,.7-.84,.81l-1.54-3.4c1.05-.1,2.77-.39,4.83-.7v-6.37h-3.4l-.28-1.02h3.68v-5.5l3.54,.35c-.07,.46-.39,.77-1.19,.88v4.27h.81l1.26-1.68s1.51,1.19,2.38,2.14c-.11,.38-.42,.56-.88,.56h-3.57v5.99c1.54-.25,3.22-.56,4.87-.84l.1,.49Zm-11.27-21.77l-.28-1.02h8.16l1.4-1.79s1.61,1.26,2.59,2.24c-.07,.38-.39,.56-.88,.56h-5.74l2.45,1.19c-.14,.32-.56,.56-1.23,.53-1.12,1.72-2.91,3.99-4.59,5.67,1.65-.1,3.89-.28,6.13-.53-.42-1.33-.98-2.63-1.54-3.61l.46-.18c5.71,3.85,3.5,8.12,1.61,6.3-.03-.56-.14-1.16-.31-1.79-1.54,.63-3.96,1.51-6.48,2.28-.25,.31-.49,.52-.77,.63l-1.3-3.19s.6-.1,.81-.28c1.37-1.44,2.98-4.9,3.64-7.04h-4.13Zm22.19,4.31c-.28,.35-.63,.46-1.37,.53-.6,5.15-1.65,10.15-4.1,14.49,1.61,2.77,3.57,5.11,5.78,6.86l-.14,.28c-1.09-.03-2.03,.56-2.59,1.65-1.79-1.86-3.22-4.03-4.45-6.58-1.86,2.59-4.41,4.87-7.81,6.69l-.38-.46c3.22-2.24,5.6-5.08,7.28-8.3-.95-2.38-1.68-5.08-2.28-7.95-.52,.95-1.09,1.86-1.68,2.66l-.59-.28c.66-1.47,1.29-3.12,1.85-4.9-.28-1.82-.52-3.68-.67-5.64l.7-.28c.14,1.3,.32,2.59,.56,3.82,.91-3.43,1.58-7.14,1.96-10.82l3.71,.74c-.1,.45-.49,.8-1.23,.84-.39,1.96-.88,3.92-1.44,5.78h2.8l1.44-1.51,2.63,2.38Zm-7.14,.14c-.63,1.93-1.33,3.71-2.07,5.39,.63,2.63,1.5,5.01,2.56,7.25,1.58-3.85,2.41-8.16,2.84-12.64h-3.33Z"/>
      <path class="cls-3" d="M633.58,86.82c-.17,.25-.52,.28-1.05,.1-1.23,.63-3.4,1.51-5.5,2.14,2.7,1.37,6.06,2.14,9.77,2.56v.39c-1.12,.28-1.89,1.19-2.21,2.49-6.55-1.51-10.96-4.13-13.3-9.73h-4.48v6.06c1.64-.53,3.57-1.12,5.53-1.79l.17,.46c-1.47,.88-4.2,2.66-7.21,4.38-.24,.53-.63,.88-.94,1.02l-1.54-3.05c1.09-.56,1.3-.84,1.3-1.37v-5.71h-3.75c-.59,3.4-2.14,7.18-6.13,9.87l-.35-.42c3.54-4.34,3.99-9.63,3.99-14v-4.66l.94,.39v-11.76l2.91,1.26h4.17v-3.12l3.71,.38c-.07,.42-.35,.74-1.09,.88v1.86h4.16v-3.12l3.75,.42c-.04,.42-.35,.74-1.12,.84v1.86h3.85l1.47-1.58,3.12,2.38c-.21,.28-.77,.59-1.47,.73v7.77c.35,.28,1.96,1.58,2.98,2.56-.1,.39-.45,.56-.94,.56h-23.59v2.38h16.77l1.61-1.96s1.82,1.36,2.94,2.42c-.1,.39-.42,.56-.91,.56h-20.41c-.03,.77-.1,1.61-.21,2.49h20.48l1.68-2s1.86,1.36,3.05,2.45c-.1,.38-.46,.56-.91,.56h-12.71c1.02,1.58,2.42,2.87,4.1,3.85,1.65-1.12,3.61-2.8,4.55-3.75l2.84,1.96Zm-24.68-10.89l2.27,.91h19.39l1.4-1.82c-.49,.24-1.37,.52-2,.52h-.46v-1.23h-18.03v.77c0,.24-1.19,.84-2.27,.84h-.32Zm2.59-9.49v2.91h4.41v-2.91h-4.41Zm4.41,6.86v-2.94h-4.41v2.94h4.41Zm2.63-6.86v2.91h4.16v-2.91h-4.16Zm0,6.86h4.16v-2.94h-4.16v2.94Zm6.79-6.86v2.91h4.2v-2.91h-4.2Zm4.2,3.92h-4.2v2.94h4.2v-2.94Z"/>
      <path class="cls-3" d="M639.28,93.09c3.29-1.58,7.28-4.34,10.15-7.67l3.15,2.31c-.25,.31-.6,.42-1.33,.21-3.26,2.84-8.02,4.83-11.76,5.64l-.21-.49Zm28.88-26.15s1.96,1.44,3.22,2.52c-.1,.39-.46,.56-.94,.56h-9.87l3.36,.98c-.14,.42-.6,.7-1.37,.63-.77,.98-2.03,2.1-3.33,3.08h5.43l1.72-2.07s1.96,1.44,3.15,2.52c-.11,.38-.46,.56-.88,.56h-11.9v3.22h5.88l1.65-1.96s1.82,1.37,3.01,2.42c-.1,.38-.42,.56-.95,.56h-9.59v3.43h9.17l1.82-2.17s1.96,1.51,3.26,2.63c-.11,.39-.46,.56-.95,.56h-13.3v9.42c-.04,.18-.91,.77-2.35,.77h-.46v-10.19h-13.55l-.31-1.02h13.86v-3.43h-10.19l-.28-1.02h10.47v-3.22h-11.9l-.32-1.02h8.72c-.17-.07-.31-.17-.49-.31-.1-1.4-1.15-3.12-2.1-4.1l.39-.24c4.8,1.26,4.66,4.03,3.33,4.66h6.34c.84-1.4,1.68-3.26,2.24-4.69h-20.2l-.28-1.02h11.62v-6.65l3.64,.35c-.07,.46-.35,.77-1.12,.88v5.43h3.33v-6.65l3.68,.35c-.07,.46-.35,.77-1.12,.91v5.39h1.19c1.16-1.68,2.49-4.13,3.29-5.95l3.71,1.33c-.21,.38-.67,.63-1.4,.52-1.16,1.26-2.91,2.87-4.62,4.1h4.55l1.75-2.07Zm-24.08-3.78c7.25,2.07,5.01,7.21,2.56,5.29-.25-1.72-1.65-3.82-2.94-5.01l.39-.28Zm14.39,23.14c16.63,3.47,11.87,9.1,9.21,6.79-1.79-1.89-5.04-4.27-9.42-6.27l.21-.52Z"/>
      <path class="cls-3" d="M688.39,84.76c-.25,.28-.67,.46-1.37,.53-.31,4.8-1.08,7.53-2.38,8.54-.88,.63-2,.95-3.43,.95,0-.7-.11-1.4-.6-1.75-.49-.42-1.65-.74-2.84-.91v-.6c1.29,.1,3.47,.28,4.13,.28,.56,0,.8-.07,1.08-.28,.63-.52,1.16-2.84,1.47-6.58h-4.73l-1.19,1.37-2.66-2.03c.35-.25,.91-.53,1.44-.7,.32-1.68,.7-4.2,.8-5.67l3.01,1.29h3.12v-4.34h-4.24c-1.75,1.02-3.75,1.93-5.88,2.66l-.31-.49c2.87-1.37,5.46-3.29,7.6-5.43-.42,.14-.95,.1-1.5-.25-.35-1.4-1.79-3.01-3.08-3.85l.28-.28c4.45,.25,5.5,2.28,5.11,3.5,1.44-1.58,2.62-3.33,3.43-5.08h-9.24l-.32-1.02h9.63l1.79-1.61,2.83,2.52c-.28,.31-.63,.42-1.47,.46-1.61,2.98-4.06,5.67-7.25,7.84h2.98l1.15-1.33,2.38,2.24c-.25,.24-.73,.52-1.29,.59v5.39c-.07,.1-1.12,.63-2.07,.63h-.52v-1.16h-3.96c-.17,1.19-.42,2.56-.66,3.71h4.55l1.4-1.44,2.8,2.28Zm12.11-3.08l2.84,2.49c-.28,.31-.67,.39-1.5,.42-.91,1.44-2.07,2.73-3.43,3.96,5.92,3.15,5.18,6.37,2.7,5.57-1.08-1.16-2.8-2.59-4.76-3.99-2.7,1.93-5.99,3.43-9.73,4.45l-.31-.53c3.12-1.23,5.99-3.05,8.37-5.11-1.65-1.12-3.33-2.14-4.76-2.87l.32-.42c2.31,.56,4.31,1.19,5.92,1.86,.94-1.05,1.79-2.1,2.41-3.22h-9.38l-.31-1.02h9.91l1.75-1.58Zm5.25-13.62c-.25,.32-.52,.46-1.26,.25-1.16,.8-2.87,1.79-4.52,2.56,2.17,1.3,4.62,2.28,7.07,2.98l-.07,.39c-1.19,.18-2.07,1.05-2.49,2.38-1.26-.53-2.45-1.16-3.54-1.82-.28,.18-.67,.32-1.16,.39v3.75c0,.35,.07,.46,.49,.46h1.89c.14,0,.38,0,.49-.03,.18-.04,.46-.07,.63-.1h.31l.14,.03c.7,.25,.98,.45,.98,.95,0,1.02-.88,1.33-3.78,1.33h-1.51c-1.96,0-2.24-.59-2.24-2.07v-4.62h-4.13v1.08c0,2.14-.56,5.22-5.29,7.04l-.31-.49c2.7-1.96,3.01-4.38,3.01-6.51v-3.36l3.05,1.23h3.36l1.16-1.12c-3.08-2.59-5.5-5.95-6.83-10.19l.52-.32c.81,1.86,2,3.54,3.43,5.01,1.4-1.37,2.98-3.26,3.71-4.41l3.15,1.96c-.25,.35-.52,.49-1.29,.28-1.23,.84-3.08,1.93-4.9,2.8,.98,.95,2.1,1.79,3.22,2.49,1.36-1.33,2.8-3.15,3.54-4.27l3.15,2Z"/>
      <path class="cls-3" d="M739.42,85.21c-.25,.31-.6,.42-1.33,.18-1.47,.8-3.71,1.89-5.85,2.77,2.59,1.82,5.88,2.91,9.63,3.54l-.07,.42c-1.16,.24-1.96,1.15-2.35,2.49-6.55-2-10.71-5.43-12.74-12.08h-4.06v8.37c1.72-.49,3.75-1.12,5.78-1.82l.14,.49c-1.44,.95-4.2,2.7-7.25,4.48-.17,.32-.42,.56-.66,.7l-2-3.12c1.12-.7,1.29-.95,1.29-1.47v-7.63h-4.41l-.07-.21c-.77,4.34-2.45,8.72-5.99,12.22l-.52-.32c3.96-6.41,4.38-14.18,4.38-21.32v-9.77l3.33,1.3h19.01l1.44-1.54,3.15,2.35c-.25,.28-.81,.56-1.5,.74v5.74c-.04,.21-1.4,.74-2.28,.74h-.46v-1.33h-19.85v1.75c0,2.63-.07,5.6-.56,8.65h6.06v-4.73h-4.87l-.28-1.02h5.15v-3.99l3.78,.31c-.07,.46-.35,.74-1.09,.91v2.77h5.85v-3.96l3.75,.35c-.04,.45-.32,.74-1.09,.91v2.7h1.82l1.68-2.17s1.89,1.51,3.05,2.63c-.07,.39-.42,.56-.91,.56h-5.64v4.73h3.68l1.75-2.35s2.03,1.61,3.22,2.8c-.07,.39-.42,.56-.91,.56h-13.16c.94,2.07,2.35,3.75,4.03,5.08,1.71-1.47,3.68-3.47,4.76-4.62l3.19,2.24Zm-23.24-19.78v4.66h19.85v-4.66h-19.85Zm8.19,16.07h5.85v-4.73h-5.85v4.73Z"/>
      <path class="cls-3" d="M773.79,90.64c1.4,.25,1.75,.63,1.75,1.15,0,1.51-2.14,1.75-13.65,1.75h-8.4c-5.11,0-7.04-.63-7.04-3.99v-23.87h-1.36l-.28-1.02h25.06l1.72-2.24s2,1.58,3.19,2.7c-.1,.39-.42,.56-.88,.56h-24.89v23.56c0,1.54,.73,2.1,4.2,2.1h8.93c3.75,0,6.83-.07,7.91-.18,.67-.04,1.23-.11,1.65-.18,.35-.07,.95-.21,1.51-.39h.42l.17,.03Zm-15.4-1.44v-1.65h-4.45v1.51c0,.25-1.05,.81-2.07,.81h-.35v-11.48l2.56,1.16h4.03l1.26-1.3,2.63,2c-.18,.24-.63,.49-1.16,.6v7.63c-.04,.24-1.26,.74-2.07,.74h-.38Zm0-2.66v-5.99h-4.45v5.99h4.45Zm8.26-10.68h-8.65v1.09c0,.21-1.19,.81-2.27,.81h-.39v-10.33l2.84,1.23h8.16l1.4-1.44,2.98,2.21c-.21,.24-.74,.52-1.33,.67v6.41c-.04,.25-1.4,.77-2.28,.77h-.46v-1.4Zm0-1.05v-5.11h-8.65v5.11h8.65Zm3.61,14.28v-1.54h-4.52v1.05c0,.25-1.08,.77-2.1,.77h-.35v-10.99l2.59,1.16h4.06l1.3-1.4,2.77,2.14c-.21,.25-.7,.53-1.26,.63v7.42c-.04,.21-1.3,.77-2.1,.77h-.38Zm0-2.56v-5.99h-4.52v5.99h4.52Z"/>
      <path class="cls-3" d="M781.83,74.54c3.54,1.16,6.02,2.77,7.28,4.73,.49,.74,.81,1.68,.7,2.52-.07,.7-.53,1.33-1.37,1.33-.7,0-1.16-.49-1.65-1.58-1.09-2.21-2.73-4.34-5.36-6.48l.39-.52Z"/>
      <path class="cls-3" d="M803.64,74.19c5.71,3.19,3.71,7.18,1.72,5.53-.18-1.3-.91-2.91-1.72-4.27v18.1c0,.35-1.12,1.02-2.03,1.02h-.53v-15.3c-1.09,2.59-2.45,4.97-4.2,7.14l-.52-.45c2.24-3.99,3.5-9.14,4.24-14.25h-3.5l-.28-1.02h4.27v-8.51l3.78,.42c-.07,.52-.35,.84-1.23,.98v7.07l1.4-1.96s1.65,1.44,2.66,2.45c-.1,.39-.42,.56-.91,.56h-3.15v2.49Zm24.47,17.61c1.05,1.05,1.16,1.47,.91,1.96-.66,1.26-2.62,.63-4.24-.24-1.5-.7-2.77-1.75-3.78-3.05-2.56,1.93-5.46,3.19-8.51,3.96l-.25-.52c2.7-1.12,5.39-2.8,7.67-5.08-1.12-1.96-1.89-4.34-2.35-7.07h-4.52c-.07,.91-.17,1.82-.35,2.73,5.85,1.54,4.03,5.74,1.68,4.27-.28-1.02-1.05-2.17-1.92-3.08-.81,3.22-2.62,6.37-6.86,8.82l-.53-.52c4.45-3.78,5.04-8.26,5.18-12.22h-3.01l-.28-1.02h10.43c-.56-3.29-.77-7.07-.88-11.31-.25,.14-.56,.24-.98,.18-1.29,1.96-3.61,4.66-5.74,6.62,1.19-.11,2.62-.25,4.16-.39-.25-.91-.59-1.79-.95-2.42l.46-.18c4.8,3.15,2.49,6.76,.84,5.01,0-.52-.04-1.05-.18-1.64-1.15,.49-2.83,1.09-4.51,1.68-.21,.39-.46,.66-.7,.77l-1.44-2.77s.56-.14,.77-.28c1.22-1.09,2.59-3.01,3.67-4.94-.7,.28-1.58,.63-2.42,.91-.21,.46-.45,.74-.74,.88l-1.47-2.94s.56-.14,.77-.25c1.47-1.4,3.19-4.97,3.78-6.79l3.25,1.54c-.14,.28-.53,.6-1.23,.53-1.08,1.58-2.83,3.61-4.48,5.08,.95-.03,2.1-.1,3.22-.21,.49-.88,.91-1.68,1.19-2.35l2.7,1.47c-.07-2.07-.07-4.24-.07-6.51l3.85,.46c-.07,.46-.38,.88-1.26,1.02-.11,6.44-.07,12.25,.7,16.84h5.15l1.51-1.82s1.68,1.3,2.76,2.28c-.07,.39-.42,.56-.91,.56h-8.3c.39,1.96,.95,3.71,1.65,5.15,1.05-1.23,1.96-2.66,2.7-4.2l3.12,1.93c-.25,.35-.56,.45-1.33,.28-.95,1.51-2.03,2.8-3.19,3.96,.81,.91,1.68,1.65,2.8,2.17,.59,.32,.77,.28,1.05-.35,.42-.95,.98-2.66,1.4-4.17l.42,.03-.46,5.25Zm-8.96-21.84s.49-.14,.7-.28c1.19-1.33,2.59-4.87,3.04-6.69l3.36,1.54c-.14,.28-.52,.6-1.22,.53-.95,1.47-2.42,3.4-3.78,4.83,.88-.04,1.89-.11,2.87-.17,.56-1.02,.98-1.93,1.26-2.66l3.01,1.96c-.17,.28-.6,.49-1.23,.35-1.22,1.75-3.25,4.13-5.18,5.88,1.16-.11,2.59-.21,4.1-.39-.28-.7-.63-1.37-.98-1.89l.42-.18c5.15,2.73,2.87,6.62,1.12,4.83,0-.63-.11-1.33-.32-1.96-1.16,.39-2.84,.98-4.55,1.54l-.07,.18,.31-.21c4.8,1.12,2.66,4.45,.91,2.98-.07-.98-.63-2.07-1.26-2.7-.21,.31-.42,.56-.66,.66l-1.33-2.8s.59-.14,.77-.28c.95-.88,2.07-2.42,3.01-4.03-.7,.28-1.47,.56-2.21,.84-.21,.46-.46,.77-.74,.91l-1.37-2.8Z"/>
      <path class="cls-3" d="M843.61,80.7c-2.21,1.57-5.43,3.96-9.77,6.72-.07,.42-.35,.8-.7,.98l-1.68-3.4c.91-.32,2.52-.91,4.48-1.68v-10.5h-3.75l-.28-.98h4.03v-9.1l4.03,.42c-.07,.49-.38,.84-1.26,.95v7.74h.49l1.54-2.38s1.79,1.68,2.77,2.84c-.11,.35-.46,.52-.88,.52h-3.92v9.38c1.5-.6,3.12-1.26,4.73-1.96l.17,.46Zm6.3-2.31c-.53,.98-1.12,1.93-1.79,2.8h11.59l1.51-1.51,2.87,2.38c-.28,.28-.66,.45-1.4,.56-.46,6.2-1.5,9.66-3.08,10.89-.98,.74-2.2,1.08-3.61,1.08,0-.77-.14-1.47-.56-1.86-.46-.42-1.5-.77-2.59-.95v-.59c1.16,.1,3.12,.25,3.78,.25,.59,0,.88-.07,1.22-.32,.88-.74,1.72-3.82,2.14-8.89h-2.21c-1.93,5.39-5.64,9.45-11.52,12.29l-.31-.53c4.45-2.94,7.32-7,8.89-11.76h-2.35c-2.45,4.45-6.54,8.02-11.83,10.47l-.38-.56c4.13-2.52,7.42-6.02,9.42-9.91h-2.45c-2.1,2.31-4.8,4.2-8.02,5.67l-.35-.49c3.47-2.31,6.16-5.57,7.81-9.03h-5.11l-.28-1.02h18.03l1.79-2.24s2.03,1.54,3.29,2.7c-.1,.39-.46,.56-.91,.56h-13.58Zm-2-3.15c0,.28-1.19,.84-2.28,.84h-.42v-13.16l2.87,1.23h8.93l1.47-1.58,3.12,2.42c-.25,.25-.77,.56-1.47,.66v9.07c-.04,.28-1.33,.98-2.31,.98h-.46v-1.47h-9.45v1.02Zm0-10.05v3.47h9.45v-3.47h-9.45Zm9.45,8.02v-3.57h-9.45v3.57h9.45Z"/>
      <path class="cls-3" d="M878.19,68.41s1.82,1.58,2.91,2.7c-.11,.39-.46,.56-.95,.56h-4.76v3.15c7.88,2.98,5.67,8.09,3.15,6.13-.42-1.72-1.85-3.89-3.15-5.43v18.1c0,.35-1.12,.95-2.13,.95h-.59v-16.21c-1.51,3.15-3.43,5.99-5.81,8.37l-.49-.39c2.73-4.03,4.62-9.49,5.71-14.67h-4.76l-.28-1.02h5.64v-8.3l4.03,.46c-.11,.53-.39,.84-1.3,.98v6.86h1.23l1.58-2.24Zm20.55-2.49c-.21,.32-.77,.6-1.47,.74v26.6c-.04,.21-1.37,.98-2.38,.98h-.42v-3.15h-9.8v2.21c0,.35-1.01,1.05-2.28,1.05h-.49v-30.56l2.94,1.37h9.28l1.47-1.72,3.15,2.49Zm-14.07,.18v7.18h9.8v-7.18h-9.8Zm0,8.19v7.28h9.8v-7.28h-9.8Zm9.8,15.79v-7.49h-9.8v7.49h9.8Z"/>
      <path class="cls-3" d="M920.82,73.7c-.14,.42-.56,.6-1.47,.7,3.08,3.68,9.24,6.72,14.98,8.23l-.04,.53c-1.23,.31-2.17,1.4-2.38,2.45-5.71-2.24-10.82-6.27-13.2-10.78-1.92,2.63-5.15,5.36-8.82,7.63l2.03,.88h11.76l1.4-1.47,2.94,2.28c-.21,.21-.66,.49-1.26,.6v8.86c-.03,.24-1.4,.81-2.31,.81h-.45v-2.21h-12.29v1.58c0,.21-1.19,.84-2.31,.84h-.42v-11.62c-2.31,1.33-4.76,2.49-7.18,3.29l-.28-.49c6.2-2.84,12.92-8.75,14.67-13.16l4.62,1.09Zm-14.07-5.74c.14,2.38-.81,3.99-1.89,4.66-.95,.67-2.28,.63-2.7-.31-.35-.84,.17-1.61,.98-2.07,1.37-.73,2.66-2.77,2.52-5.01h.56c.21,.6,.35,1.19,.42,1.72h22.65l1.65-1.68,2.94,2.87c-.25,.25-.67,.31-1.33,.39-.84,1.09-2.42,2.56-3.64,3.43l-.42-.25c.31-.98,.73-2.52,.98-3.75h-22.72Zm-2.45,9.45c3.22-2.1,6.37-5.57,7.84-8.19l3.57,1.65c-.21,.35-.49,.49-1.3,.39-2,2.35-5.81,5.11-9.77,6.62l-.35-.46Zm7.42,6.97v6.76h12.29v-6.76h-12.29Zm3.46-22.12c7.32,.53,5.15,6.02,2.35,4.24-.25-1.4-1.47-3.08-2.66-3.99l.32-.24Zm5.6,7.63c11.03,1.58,10.4,8.19,7.07,6.86-1.33-2.31-4.76-5.04-7.39-6.51l.32-.35Z"/>
      <path class="cls-3" d="M942.97,78.91c0,4.31-.45,11.13-5.85,15.65l-.42-.35c3.22-4.8,3.57-10.54,3.57-15.3v-5.15l3.22,1.3h19.99l1.85-2.31s2.1,1.61,3.43,2.77c-.1,.39-.46,.56-.95,.56h-24.85v2.84Zm22.68-14.7s2.1,1.54,3.36,2.7c-.11,.38-.42,.56-.91,.56h-7.84l2.17,1.44c-.25,.31-.56,.42-1.29,.18-.98,.63-2.21,1.26-3.57,1.82,4.97,2.17,4.06,4.55,2.14,4.03-1.12-.84-2.91-1.86-5.18-2.84-3.47,1.16-7.46,2.1-11.2,2.59l-.21-.53c2.97-.73,6.2-1.79,9.1-3.05-2.1-.84-4.52-1.65-7.07-2.28l.17-.59c4.03,.39,7.11,1.02,9.49,1.68,1.58-.81,3.05-1.65,4.17-2.45h-20.55l-.32-1.05h14.7c-.35-1.54-1.68-3.22-2.94-4.17l.32-.28c5.25,.49,5.74,3.4,4.62,4.45h9.07l1.79-2.2Zm-.21,25.8s2.1,1.54,3.43,2.73c-.11,.39-.46,.56-.95,.56h-25.34l-.32-1.05h11.73v-4.73h-6.9l-.28-1.02h7.18v-4.2h-5.78c-1.16,1.75-2.52,3.26-3.96,4.31l-.49-.31c1.54-2.21,3.04-5.6,3.82-9.17l3.75,1.16c-.17,.39-.59,.7-1.33,.66-.35,.84-.77,1.58-1.19,2.35h5.18v-4.55l3.92,.39c-.07,.49-.35,.81-1.16,.91v3.26h4.3l1.75-2.14s1.96,1.43,3.22,2.59c-.1,.39-.46,.56-.91,.56h-8.37v4.2h3.71l1.68-2.1s1.92,1.47,3.12,2.56c-.11,.39-.42,.56-.91,.56h-7.6v4.73h6.86l1.82-2.24Z"/>
      <path class="cls-3" d="M971.78,93.09c3.29-1.58,7.28-4.34,10.15-7.67l3.15,2.31c-.25,.31-.6,.42-1.33,.21-3.25,2.84-8.02,4.83-11.76,5.64l-.21-.49Zm28.88-26.15s1.96,1.44,3.22,2.52c-.11,.39-.46,.56-.95,.56h-9.87l3.36,.98c-.14,.42-.59,.7-1.37,.63-.77,.98-2.03,2.1-3.33,3.08h5.43l1.71-2.07s1.96,1.44,3.15,2.52c-.11,.38-.46,.56-.88,.56h-11.9v3.22h5.88l1.64-1.96s1.82,1.37,3.01,2.42c-.11,.38-.42,.56-.95,.56h-9.59v3.43h9.17l1.82-2.17s1.96,1.51,3.25,2.63c-.1,.39-.46,.56-.94,.56h-13.3v9.42c-.04,.18-.91,.77-2.35,.77h-.46v-10.19h-13.55l-.32-1.02h13.86v-3.43h-10.19l-.28-1.02h10.47v-3.22h-11.9l-.32-1.02h8.72c-.17-.07-.32-.17-.49-.31-.1-1.4-1.16-3.12-2.1-4.1l.38-.24c4.8,1.26,4.66,4.03,3.33,4.66h6.34c.84-1.4,1.68-3.26,2.24-4.69h-20.2l-.28-1.02h11.62v-6.65l3.64,.35c-.07,.46-.35,.77-1.12,.88v5.43h3.33v-6.65l3.68,.35c-.07,.46-.35,.77-1.12,.91v5.39h1.19c1.16-1.68,2.49-4.13,3.29-5.95l3.71,1.33c-.21,.38-.67,.63-1.4,.52-1.16,1.26-2.91,2.87-4.62,4.1h4.55l1.75-2.07Zm-24.08-3.78c7.25,2.07,5,7.21,2.55,5.29-.25-1.72-1.65-3.82-2.94-5.01l.39-.28Zm14.39,23.14c16.63,3.47,11.87,9.1,9.21,6.79-1.79-1.89-5.04-4.27-9.42-6.27l.21-.52Z"/>
      <path class="cls-3" d="M1036.29,90.64c1.4,.25,1.75,.63,1.75,1.15,0,1.51-2.13,1.75-13.65,1.75h-8.4c-5.11,0-7.04-.63-7.04-3.99v-23.87h-1.37l-.28-1.02h25.06l1.71-2.24s2,1.58,3.19,2.7c-.11,.39-.42,.56-.88,.56h-24.89v23.56c0,1.54,.74,2.1,4.2,2.1h8.93c3.75,0,6.83-.07,7.91-.18,.67-.04,1.22-.11,1.65-.18,.35-.07,.94-.21,1.5-.39h.42l.17,.03Zm-15.4-1.44v-1.65h-4.45v1.51c0,.25-1.05,.81-2.07,.81h-.35v-11.48l2.55,1.16h4.03l1.26-1.3,2.62,2c-.17,.24-.63,.49-1.16,.6v7.63c-.04,.24-1.26,.74-2.07,.74h-.38Zm0-2.66v-5.99h-4.45v5.99h4.45Zm8.26-10.68h-8.65v1.09c0,.21-1.19,.81-2.28,.81h-.38v-10.33l2.84,1.23h8.16l1.4-1.44,2.98,2.21c-.21,.24-.74,.52-1.33,.67v6.41c-.04,.25-1.4,.77-2.28,.77h-.46v-1.4Zm0-1.05v-5.11h-8.65v5.11h8.65Zm3.61,14.28v-1.54h-4.52v1.05c0,.25-1.08,.77-2.1,.77h-.35v-10.99l2.59,1.16h4.06l1.3-1.4,2.76,2.14c-.21,.25-.7,.53-1.26,.63v7.42c-.04,.21-1.29,.77-2.1,.77h-.38Zm0-2.56v-5.99h-4.52v5.99h4.52Z"/>
      <path class="cls-3" d="M1048.6,66.62c-1.82,2.63-4.06,4.8-6.27,6.2l-.49-.38c2.21-2.38,4.48-6.27,5.84-10.4l3.82,1.37c-.1,.38-.52,.7-1.29,.63-.28,.49-.59,1.02-.91,1.54h5.6l1.51-1.93s1.71,1.37,2.76,2.42c-.1,.39-.42,.56-.91,.56h-9.66Zm22.09,14.56s1.96,1.47,3.12,2.59c-.11,.39-.42,.56-.91,.56h-8.05v6.51c0,2.17-.49,3.43-4.34,3.78-.14-.88-.31-1.54-.8-1.96-.59-.46-1.58-.81-3.36-1.05v-.52s4.06,.28,4.87,.28c.66,0,.84-.18,.84-.7v-6.34h-18.87l-.25-1.01h19.11v-3.22l3.99,.39c-.11,.53-.42,.81-1.19,.91v1.93h4.16l1.68-2.14Zm-10.43-10.33c-.07,.42-.28,.7-1.01,.81v2.17h8.16l1.61-1.93s1.79,1.37,2.94,2.38c-.1,.38-.46,.56-.95,.56h-11.76v3.64h6.51l1.65-2.1s1.96,1.44,3.12,2.56c-.07,.39-.42,.56-.88,.56h-23.31l-.28-1.02h10.47v-3.64h-11.83l-.32-1.02h12.15v-3.33l3.75,.35Zm-10.68,14.04c8.19,1.89,6.13,7.67,3.33,5.74-.38-1.86-2.13-4.17-3.67-5.46l.35-.28Zm.56-17.61c6.02,1.02,3.99,5.29,1.82,3.71-.21-1.19-1.26-2.66-2.17-3.43l.35-.28Zm20.76-3.82s1.92,1.43,3.08,2.56c-.1,.39-.45,.56-.91,.56h-11.17c-1.33,1.54-2.84,2.84-4.38,3.71l-.46-.35c1.54-1.86,3.12-4.8,4.06-7.88l3.82,1.54c-.17,.39-.59,.67-1.36,.56-.25,.46-.56,.95-.91,1.4h6.58l1.65-2.1Zm-7.21,3.82c6.37,.84,4.41,5.43,2.07,3.85-.25-1.3-1.4-2.77-2.42-3.54l.35-.31Z"/>
      <path class="cls-3" d="M1076.81,94.17c5.88-5.74,8.68-15.23,9.17-25.1l4.45,.88c-.14,.42-.42,.63-1.37,.6-1.22,9.66-4.38,18.41-11.8,24.01l-.46-.39Zm23.52-28.11c-.53,.56-1.54,.88-2.98,.98,1.26,10.36,4.17,19.88,12.04,24.64l-.17,.42c-1.26,.31-2.31,1.36-2.77,2.49-6.96-5.81-9.14-15.23-10.12-28.18h-4.24l-.31-1.05h3.61l1.33-1.96,3.61,2.66Z"/>
      <path class="cls-3" d="M1129.21,73.7c1.23,6.58,5.04,13.48,15.26,17.99l-.04,.42c-1.5,.21-2.49,.91-2.83,2.52-9.24-5.22-12.01-13.62-13.02-20.62-1.02,8.19-4.31,15.4-16.45,20.58l-.42-.56c10.12-5.6,13.02-12.46,13.9-20.34h-13.27l-.24-1.01h13.62c.28-3.26,.25-6.72,.25-10.29l4.34,.46c-.1,.53-.38,.88-1.19,.98-.07,3.05-.11,5.99-.39,8.86h9.45l2.07-2.59s2.42,1.82,3.82,3.05c-.07,.39-.46,.56-.91,.56h-13.93Z"/>
      <path class="cls-3" d="M1178.46,65.26c-.25,.32-.81,.56-1.51,.7v27.3c-.04,.28-1.37,1.05-2.38,1.05h-.42v-2.31h-22.47v1.47c0,.39-1.05,1.12-2.24,1.12h-.53v-31.5l3.05,1.37h21.84l1.51-1.68,3.15,2.49Zm-4.31,.21h-22.47v25.52h22.47v-25.52Zm-9.21,21.32c-1.33,.7-3.96,2.24-6.58,3.64-.14,.24-.35,.46-.52,.56l-1.58-2.14c.98-.66,1.15-.91,1.15-1.4v-2.38c-1.61,.7-3.29,1.26-5.11,1.75l-.31-.6c3.12-1.19,5.95-2.87,8.02-4.8h-2.31v.53c0,.21-1.12,.7-2.07,.7h-.35v-7.63l2.59,1.09h9.8l1.22-1.23,2.62,1.93c-.17,.21-.59,.49-1.12,.56v3.96l2.1,1.96c-.17,.25-.46,.28-1.09,.04-.81,.45-2.03,1.09-3.15,1.61,5.6,2.8,4.27,5.78,2.31,4.8-1.23-1.61-4.38-4.27-8.33-6.34l.25-.52c1.92,.49,3.54,1.05,4.83,1.65,.88-.84,1.86-1.89,2.56-2.73-.46,.21-1.05,.39-1.54,.39h-.39v-.74h-4.9c-.91,.91-2.03,1.68-3.25,2.42v3.92c1.47-.42,3.22-.95,5-1.51l.14,.53Zm5.6-15.68s1.75,1.3,2.8,2.31c-.1,.38-.42,.56-.91,.56h-19.53l-.28-1.02h8.93v-2.56h-6.93l-.28-1.05h7.21v-3.01l3.57,.35c-.07,.42-.32,.7-1.01,.8v1.86h3.46l1.47-1.75s1.64,1.26,2.73,2.24c-.1,.39-.42,.56-.91,.56h-6.75v2.56h4.94l1.5-1.86Zm-12.85,9.28h10.26v-3.26h-10.26v3.26Z"/>
      <path class="cls-3" d="M1211.29,90.64c1.4,.25,1.75,.63,1.75,1.15,0,1.51-2.13,1.75-13.65,1.75h-8.4c-5.11,0-7.04-.63-7.04-3.99v-23.87h-1.37l-.28-1.02h25.06l1.71-2.24s2,1.58,3.19,2.7c-.11,.39-.42,.56-.88,.56h-24.89v23.56c0,1.54,.74,2.1,4.2,2.1h8.93c3.75,0,6.83-.07,7.91-.18,.67-.04,1.22-.11,1.65-.18,.35-.07,.94-.21,1.5-.39h.42l.17,.03Zm-15.4-1.44v-1.65h-4.45v1.51c0,.25-1.05,.81-2.07,.81h-.35v-11.48l2.55,1.16h4.03l1.26-1.3,2.62,2c-.17,.24-.63,.49-1.16,.6v7.63c-.04,.24-1.26,.74-2.07,.74h-.38Zm0-2.66v-5.99h-4.45v5.99h4.45Zm8.26-10.68h-8.65v1.09c0,.21-1.19,.81-2.28,.81h-.38v-10.33l2.84,1.23h8.16l1.4-1.44,2.98,2.21c-.21,.24-.74,.52-1.33,.67v6.41c-.04,.25-1.4,.77-2.28,.77h-.46v-1.4Zm0-1.05v-5.11h-8.65v5.11h8.65Zm3.61,14.28v-1.54h-4.52v1.05c0,.25-1.08,.77-2.1,.77h-.35v-10.99l2.59,1.16h4.06l1.3-1.4,2.76,2.14c-.21,.25-.7,.53-1.26,.63v7.42c-.04,.21-1.29,.77-2.1,.77h-.38Zm0-2.56v-5.99h-4.52v5.99h4.52Z"/>
      <path class="cls-3" d="M1219.27,78.46c0-2.73,2.21-4.9,4.94-4.9s4.9,2.17,4.9,4.9-2.17,4.94-4.9,4.94-4.94-2.2-4.94-4.94Zm1.19,0c0,2.03,1.68,3.75,3.75,3.75s3.71-1.72,3.71-3.75-1.68-3.71-3.71-3.71-3.75,1.68-3.75,3.71Z"/>
    </g>
  </g>
</svg>