<?xml version="1.0" encoding="UTF-8"?>
<svg id="_圖層_2" data-name="圖層 2" xmlns="http://www.w3.org/2000/svg" viewBox="0 0 479.41 52.95">
  <defs>
    <style>
      .cls-1 {
        fill: #fff100;
      }
    </style>
  </defs>
  <g id="_圖層_1-2" data-name="圖層 1">
    <g>
      <path class="cls-1" d="M53.06,46.44c-.17,.62-.79,.9-1.63,.9H.45l-.45-1.63H41.44l4.16-5.22s4.66,3.54,7.47,5.95Zm-3.03-38.8c-.17,.62-.79,.9-1.63,.9H3.48l-.51-1.63H38.69l3.99-5.05s4.6,3.42,7.36,5.78Zm-4.55,18.47c-.17,.62-.79,.9-1.63,.9H7.24l-.45-1.63h27.63l3.99-4.88s4.38,3.31,7.08,5.62Z"/>
      <path class="cls-1" d="M76.98,3.03c-.22,.67-.95,1.18-2.3,1.12-1.68,4.21-3.59,8.03-5.78,11.46l3.37,1.24c-.22,.51-.73,.84-1.8,1.01V50.87c-.06,.51-2.75,1.91-5.28,1.91h-1.24V22.35c-2.47,2.87-5.17,5.34-8.03,7.47l-.67-.45c4.89-7.02,9.83-18.25,12.24-29.31l9.49,2.97Zm14.94-1.01c-.11,.67-.62,1.35-2.02,1.57-.06,5,.06,9.94,.56,14.66l7.19-.84,3.31-5.22s4.66,2.64,7.58,4.55c-.06,.67-.67,1.07-1.46,1.18l-16.4,1.91c1.29,9.83,4.49,18.42,11.57,23.47,.9,.84,1.35,.84,1.91-.11,.95-1.52,2.58-4.61,3.65-7.02l.56,.11-1.29,9.43c2.08,3.26,2.36,4.94,1.4,5.9-2.41,2.58-7.13,.34-9.94-1.85-8.65-7.02-12.58-17.24-14.26-29.2l-11.46,1.29-.56-1.46,11.85-1.4c-.73-5.67-.95-11.73-.95-18.02l8.76,1.07Zm7.02,8.31c-.84-2.81-3.31-6.01-5.33-7.97l.45-.34c14.99,.67,10.78,11.79,4.89,8.31Z"/>
      <path class="cls-1" d="M115.84,1.85l6.96,2.86h31.33l3.03-3.48,6.35,4.94c-.39,.45-1.12,.96-2.3,1.18V45.43c0,4.32-1.12,6.79-9.21,7.52-.22-1.96-.62-3.37-1.68-4.32-1.24-.9-2.75-1.63-6.23-2.13v-.73s7.52,.45,9.15,.45c1.18,0,1.46-.45,1.46-1.35V6.29h-32.46V50.37c0,.84-2.53,2.47-5.33,2.47h-1.07V1.85Zm27.23,11.73l3.43-4.32s3.87,2.92,6.23,5c-.17,.62-.73,.9-1.57,.9h-25.77l-.45-1.57h18.14Zm-15.33,5.9l6.35,2.53h8.09l2.86-3.09,6.01,4.55c-.34,.39-1.01,.84-2.02,1.01v14.82c-.06,.45-3.14,1.8-5.22,1.8h-1.07v-5.22h-8.87v4.61c0,.5-2.7,1.91-5.22,1.91h-.9V19.48Zm14.99,14.77v-10.61h-8.87v10.61h8.87Z"/>
      <path class="cls-1" d="M214.16,3.65c-.22,.67-.9,1.07-2.13,1.07-2.3,2.02-5.95,4.83-9.32,6.96h8.59l3.59-3.59,6.29,5.9c-.51,.45-1.07,.62-2.25,.67-2.02,1.52-5.39,3.42-8.03,4.6l1.4,1.07c-.34,.39-1.01,.9-2.02,1.07v9.94c-.06,.39-3.26,1.52-5.33,1.52h-1.07v-2.19h-6.06v7.75h7.81l3.43-4.49s3.93,3.09,6.23,5.22c-.17,.62-.79,.9-1.52,.9h-15.95v9.04h12.8l3.54-4.6s3.93,3.14,6.29,5.33c-.11,.62-.73,.9-1.52,.9h-48.68l-.51-1.63h21.62v-9.04h-15.72l-.45-1.63h16.17v-7.75h-5.9v1.24c0,.56-2.81,1.91-5.39,1.91h-.84V16.34l6.57,2.58h17.52l2.86-3.14,3.76,2.81c.62-1.57,1.18-3.65,1.63-5.33h-34.42c.51,3.99-1.01,6.79-3.03,7.8-2.02,1.07-4.49,.39-5.17-1.8-.62-2.13,.79-3.65,2.58-4.44,1.85-1.07,3.71-3.76,3.26-6.85l.73-.05c.62,1.35,1.07,2.58,1.35,3.76h14.32V0l8.65,.73c-.06,.73-.45,1.23-1.85,1.46V11.68h3.26c1.4-3.14,2.86-7.53,3.65-10.56l9.27,2.53Zm-32.62,6.85c-.34-3.2-2.41-6.68-4.32-8.87l.51-.34c14.99,2.25,9.55,13.42,3.82,9.21Zm22.35,18.59v-8.59h-18.42v8.59h18.42Z"/>
      <path class="cls-1" d="M244.03,26.45c0,2.47-1.97,4.44-4.44,4.44s-4.44-1.96-4.44-4.44,1.97-4.44,4.44-4.44,4.44,1.96,4.44,4.44Z"/>
      <path class="cls-1" d="M279.4,46.89c0-2.53-.56-5.22-1.4-7.86-2.92,2.58-6.96,6.06-11.79,9.66-.45,1.07-1.18,1.8-1.8,2.13l-4.1-7.19c1.57-1.07,1.8-1.57,1.8-2.98V2.02l6.91,2.7h8.25l2.98-3.26,6.18,4.77c-.39,.45-1.18,.9-2.3,1.12V28.24c-.11,.39-3.14,1.63-5.22,1.63h-1.07v-3.31h-9.6v14.49l9.15-3.82c-.95-2.41-2.08-4.72-3.31-6.68l.62-.34c16.4,8.82,10.56,22.29,4.72,16.68Zm-11.17-32.18h9.6V6.35h-9.6V14.71Zm9.6,10.22v-8.59h-9.6v8.59h9.6Zm11.17,27.85h-1.07V2.02l6.46,2.81h7.13l2.81-3.26,6.12,4.72c-.34,.45-1.12,.84-2.19,1.07v28.13c0,4.44-.84,6.96-7.58,7.64-.11-2.13-.34-3.76-1.01-4.66-.67-1.07-1.68-1.74-3.93-2.19v-.79s4.27,.28,5.22,.28c.9,0,1.12-.34,1.12-1.07V6.4h-7.97V50.48c0,.79-2.25,2.3-5.11,2.3Z"/>
      <path class="cls-1" d="M332.8,2.7V50.54c0,.67-2.64,2.19-5,2.19h-1.18V28.97h-2.75c-.28,9.38-1.46,17.63-9.1,23.3l-.73-.79c3.93-6.4,3.93-14.15,3.93-22.52h-3.48l-.51-1.57h12.63v-7.13h-3.82l-1.63,2.08-5.9-2.81c.34-.45,.84-.96,1.4-1.4V4.27l7.92,.79c-.11,.62-.62,1.07-2.13,1.29v12.3h4.16V.28l8.25,.84c-.11,.79-.56,1.35-2.08,1.57Zm17.63,.34c-.84,1.01-1.74,2.02-2.75,3.03h9.71l3.2-3.2,6.12,5.05c-.39,.5-1.24,.73-2.64,.84-6.12,8.87-15.39,15.44-30.15,18.7l-.45-.73c6.35-2.64,11.68-5.95,16-9.94-.56,.06-1.24-.06-1.97-.39-.79-2.02-2.86-4.38-4.89-5.95-2.58,1.97-5.45,3.71-8.25,4.89l-.51-.56c3.99-3.37,8.14-9.6,10.05-14.71l8.7,2.25c-.22,.56-.67,.84-2.19,.73Zm-4.77,11.85l.11,.67c-1.68,1.35-4.38,3.54-8.03,6.12-.22,.73-.67,1.24-1.24,1.4l-2.98-5.67c2.25-.34,7.3-1.4,12.13-2.53Zm21.84,14.43c-.11,.62-.73,.9-1.46,.9h-7.69v14.94c0,4.38-1.01,6.85-8.65,7.52-.22-1.96-.62-3.37-1.57-4.32-1.01-.96-2.41-1.69-5.62-2.19v-.73s6.91,.45,8.25,.45c.95,0,1.29-.34,1.29-1.07v-14.6h-17.86l-.45-1.63h18.31v-7.86l8.25,.73c-.11,.84-.67,1.29-1.97,1.46v5.67h1.12l2.92-4.77s3.37,3.31,5.11,5.5Zm-26.39,12.47c-.34-3.26-2.41-7.02-4.55-9.43l.51-.34c14.71,3.09,9.43,13.93,4.04,9.77Zm2.92-32.4c6.01,.45,7.97,3.2,7.69,5.22,2.02-2.13,3.76-4.49,5.28-6.96h-10.95l-2.02,1.74Z"/>
      <path class="cls-1" d="M421.8,28.86c-.11,.62-.73,.9-1.52,.9h-14.6v14.32c0,.84,.28,1.12,1.91,1.12h4.89c1.68,0,3.26-.06,3.99-.06,.73-.06,1.01-.22,1.4-.84,.62-1.01,1.46-3.76,2.64-7.24h.56l.17,7.58c1.8,.67,2.19,1.46,2.19,2.7,0,2.7-2.3,3.99-11.68,3.99h-5.62c-5.78,0-7.02-1.23-7.02-5.62v-15.95h-5.95c-.95,10.56-3.54,18.7-22.35,23.08l-.45-.73c13.48-6.12,15.22-13.7,15.67-22.35h-12.86l-.45-1.63h39.25l3.48-4.27s3.99,2.92,6.35,5Zm-42.51-19.26h34.31l3.48-3.54,6.12,5.84c-.39,.45-1.01,.56-2.19,.62-2.02,1.96-5.5,4.55-8.25,6.01l-.51-.34c.62-1.96,1.29-4.77,1.68-6.96h-34.37c.51,4.15-.9,7.02-2.92,8.37-1.91,1.29-5.11,.62-5.9-1.85-.67-2.3,.67-4.04,2.64-5,1.91-1.01,4.32-3.65,4.16-6.46h.73c.45,1.18,.79,2.3,1.01,3.31Zm33.3,10.05c-.11,.62-.73,.9-1.52,.9h-29.65l-.45-1.63h22.07l3.37-4.16s3.82,2.81,6.18,4.88Zm-17.41-11.17c-.06-2.92-1.63-6.18-3.76-7.97l.39-.34c16.45,.17,10,13.14,3.37,8.31Z"/>
      <path class="cls-1" d="M449.26,46.61V10.56h-18.42l-.45-1.63h34.25l4.04-5.17s4.55,3.48,7.3,5.9c-.17,.62-.79,.9-1.63,.9h-17.91V46.61h11.57l4.04-5.22s4.6,3.54,7.36,5.95c-.17,.62-.73,.9-1.63,.9h-50.65l-.45-1.63h22.57Z"/>
    </g>
  </g>
</svg>