<?xml version="1.0" encoding="UTF-8"?>
<svg id="_圖層_2" data-name="圖層 2" xmlns="http://www.w3.org/2000/svg" viewBox="0 0 592.21 48.33">
  <defs>
    <style>
      .cls-1 {
        fill: #fff;
      }
    </style>
  </defs>
  <g id="_圖層_1-2" data-name="圖層 1">
    <path class="cls-1" d="M495.25,23.17c-.15,.54-.74,.79-1.58,.79h-45.06l-.45-1.58h34.36l4.6-6.54s5.15,4.51,8.12,7.33Z"/>
    <g>
      <path class="cls-1" d="M28.27,1.88c-.15,.79-.64,1.24-1.83,1.44-.1,4.36-.15,8.57-.5,12.58h9.56l4.11-5.2s4.6,3.46,7.38,5.79c-.15,.54-.74,.79-1.49,.79H26.19c1.68,9.06,7.72,17.72,21.09,22.68l-.05,.59c-3.66,.74-5.79,3.12-6.39,7.28-10.4-6.68-13.96-18.81-15.25-28.72-1.58,11.93-6.68,21.93-25.2,28.72l-.4-.64c13.47-8.67,17.08-18.52,18.07-29.91H.84l-.4-1.39H18.17c.3-4.71,.25-9.66,.25-14.9l9.85,.89Z"/>
      <path class="cls-1" d="M53.53,47.68h-1.19V1.14l7.63,3.02h26.99l3.32-3.66,6.34,5.1c-.35,.45-.94,.84-1.98,1.09V45.26c-.05,.54-3.37,2.18-6.04,2.18h-1.14v-4.06h-28.07v1.63c0,.94-2.82,2.67-5.84,2.67ZM75.81,8.81v2.62h2.62l2.67-3.22s3.02,2.18,4.9,3.81c-.1,.54-.59,.79-1.29,.79h-1.68c.64,.45,2.77,2.03,4.41,3.42V5.54h-28.07v29.46c3.71-1.78,6.83-4.41,8.96-7.18h-.3c-.45,.54-2.67,1.44-4.65,1.44h-.79v-11.14l5.94,2.28h9.16l2.48-2.53,5.1,3.71c-.2,.3-.64,.59-1.34,.74v5.05c0,.15-.5,.4-1.19,.64l4.16,3.71c-.25,.35-.74,.5-1.68,.15-.79,.25-2.03,.5-3.32,.74,7.28,4.06,3.61,10.05-.4,7.67-.69-1.54-2.28-3.76-4.56-6.04l.15,.59c-1.73,1.24-5.2,3.71-9.01,6.09-.25,.45-.59,.79-.94,1.04h20.3V17.33c-.2,.1-.5,.15-.79,.15h-26.69l-.4-1.39h9.95v-3.27h-7.92l-.4-1.39h8.32V7.03l7.67,.64c-.05,.54-.35,.94-1.39,1.14Zm-9.9,24.96c-1.98,.84-4.11,1.54-6.34,2.08l-.2-.39v6.54h7.33l-2.67-4.21c1.63-1.04,1.88-1.48,1.88-2.33v-1.68Zm2.38-11.98v4.65h9.8v-4.65h-9.8Zm10.65,9.55c.84-.94,1.68-1.98,2.38-2.87-.74,.15-1.53,.3-2.18,.3h-1.04v-.94h-3.02c-1.04,1.14-2.23,2.18-3.66,3.12v4.7l5.55-1.39c-1.24-1.29-2.67-2.57-4.26-3.71l.35-.59c2.33,.35,4.26,.84,5.89,1.38Zm-3.12-18.52v3.27h4.26l2.67-3.27h-6.93Z"/>
      <path class="cls-1" d="M144.15,5.05c-.15,.54-.69,.79-1.39,.79h-33.87V38.42c0,2.23,1.49,2.82,5.45,2.82h11.54c3.42,0,6.78-.1,8.32-.2,.99-.05,2.43-.25,3.32-.35,.84-.1,2.08-.4,3.37-.84h.5l.3,.1c3.32,.54,4.11,1.58,4.11,2.67,0,3.17-3.47,3.76-20.4,3.76h-10.3c-8.67,0-12.77-.79-12.77-7.03V5.84h-1.63l-.4-1.38h34.61l3.32-4.46s3.71,3.02,5.94,5.05Zm-32.23,35.3h-.79V23.17l5.84,2.33h1.93l2.57-2.67,5.25,3.91c-.25,.3-.79,.69-1.58,.84v10.1c-.05,.35-2.92,1.39-4.8,1.39h-.99v-2.47h-2.53v2.03c0,.5-2.53,1.73-4.9,1.73Zm4.36-17.33h-.94V7.13l6.93,2.62h7.48l2.97-3.17,6.09,4.55c-.3,.35-.84,.74-1.78,.94v8.52c-.05,.35-3.47,1.49-5.6,1.49h-1.19v-2.38h-8.22v1.29c0,.59-3.02,2.03-5.74,2.03Zm3.07,3.86h-2.53v8.32h2.53v-8.32Zm10.89-15.75h-8.22v7.18h8.22v-7.18Zm-2.03,28.42h-.84V23.17l5.99,2.33h2.08l2.62-2.72,5.35,4.01c-.25,.3-.79,.64-1.58,.79v9.85c-.05,.35-3.02,1.44-4.9,1.44h-1.04v-2.28h-2.72v1.19c0,.54-2.57,1.78-4.95,1.78Zm7.67-12.68h-2.72v8.32h2.72v-8.32Z"/>
      <path class="cls-1" d="M166.88,5.94V1.68l6.29,2.43h13.86l2.67-2.92,5.69,4.26c-.3,.39-.99,.84-1.98,1.04v7.97c0,.1-.25,.3-.64,.45,1.19,.84,2.77,2.08,3.96,3.07-.15,.54-.64,.79-1.39,.79h-29.41l-.4-1.39h22.83l1.19-1.48-1.04,.1h-.99v-1.73h-14.71v.94c0,.49-2.67,1.78-5.1,1.78h-.84V7.28c-.2,.05-.45,.1-.69,.1h-5.3v12.92h.15l2.33-4.01s2.67,2.82,4.06,4.6c-.15,.54-.59,.79-1.29,.79h-5.25v11.83l5.84-1.83,.1,.45c-2.53,2.48-6.68,6.24-12.97,10.99-.15,.64-.64,1.29-1.29,1.49l-3.76-7.72c1.19-.25,3.07-.79,5.35-1.44v-13.77h-4.16l-.4-1.39h4.56V7.38h-4.51l-.4-1.39h9.36l3.22-4.41s2.92,2.38,5.05,4.36Zm2.67,25.5h-.79v-11.83l6.14,2.38h10.4l2.72-2.97,5.79,4.31c-.3,.4-.99,.84-2.03,1.04v5.05c0,.2-.74,.64-1.68,1.04l5.45,4.01c-.35,.45-.74,.49-1.73,.3-1.58,.59-3.81,1.34-5.84,1.88,2.62,1.98,5.74,3.42,8.96,4.16l-.1,.54c-2.28,.64-3.96,2.72-4.6,5.84-5.64-3.22-8.71-8.17-10.45-15.85-1.19,1.14-2.48,2.18-3.96,3.17v5.5l4.85-1.24,.1,.54c-1.73,1.39-5.1,4.16-9.11,6.93-.5,1.04-1.24,1.73-1.88,2.08l-3.12-6.09c2.57-1.19,2.97-1.68,2.97-2.62v-1.73c-2.97,1.34-6.24,2.43-9.7,3.27l-.35-.59c5.84-2.72,10.84-6.88,13.96-11.04h-.89v.2c0,.49-2.72,1.73-5.1,1.73Zm3.27-25.95v7.38h2.08V5.5h-2.08Zm1.83,17.88v4.75h11.14v-4.75h-11.14Zm4.41-17.88v7.38h2.13V5.5h-2.13Zm7.77,25.7h-1.04v-1.68h-2.38l-.79,.94c.94,1.78,2.18,3.37,3.66,4.75,.99-1.34,1.93-2.92,2.77-4.36-.74,.2-1.54,.35-2.23,.35Zm-1.44-25.7v7.38h2.13V5.5h-2.13Z"/>
      <path class="cls-1" d="M243.69,5.05c-.15,.54-.69,.79-1.39,.79h-33.87V38.42c0,2.23,1.49,2.82,5.45,2.82h11.54c3.42,0,6.78-.1,8.32-.2,.99-.05,2.43-.25,3.32-.35,.84-.1,2.08-.4,3.37-.84h.5l.3,.1c3.32,.54,4.11,1.58,4.11,2.67,0,3.17-3.47,3.76-20.4,3.76h-10.3c-8.67,0-12.77-.79-12.77-7.03V5.84h-1.63l-.4-1.38h34.61l3.32-4.46s3.71,3.02,5.94,5.05Zm-32.23,35.3h-.79V23.17l5.84,2.33h1.93l2.57-2.67,5.25,3.91c-.25,.3-.79,.69-1.58,.84v10.1c-.05,.35-2.92,1.39-4.8,1.39h-.99v-2.47h-2.53v2.03c0,.5-2.53,1.73-4.9,1.73Zm4.36-17.33h-.94V7.13l6.93,2.62h7.48l2.97-3.17,6.09,4.55c-.3,.35-.84,.74-1.78,.94v8.52c-.05,.35-3.47,1.49-5.6,1.49h-1.19v-2.38h-8.22v1.29c0,.59-3.02,2.03-5.74,2.03Zm3.07,3.86h-2.53v8.32h2.53v-8.32Zm10.89-15.75h-8.22v7.18h8.22v-7.18Zm-2.03,28.42h-.84V23.17l5.99,2.33h2.08l2.62-2.72,5.35,4.01c-.25,.3-.79,.64-1.58,.79v9.85c-.05,.35-3.02,1.44-4.9,1.44h-1.04v-2.28h-2.72v1.19c0,.54-2.57,1.78-4.95,1.78Zm7.67-12.68h-2.72v8.32h2.72v-8.32Z"/>
      <path class="cls-1" d="M296.33,6.19c-.15,.54-.74,.79-1.49,.79h-14.16V15.84h4.8l3.52-3.96,6.14,4.85c-.35,.49-.89,.89-2.08,1.14v27.18c0,.35-2.33,1.78-6.04,1.78h-1.29v-4.55h-26.59v3.02c0,.45-2.13,1.73-5.69,1.73h-1.29V13.07l7.53,2.77h4.11V6.98h-14.46l-.4-1.38h36.24l3.91-4.9s4.51,3.27,7.23,5.5Zm-25.85,11.04c-.05,6.44-1.04,14.01-10.99,18.72l-.35-.4c4.26-5.2,4.65-11.88,4.65-18.32h-4.65v23.67h26.59v-7.92c-1.09,.25-2.43,.35-4.11,.35h-2.53c-4.36,0-5-1.34-5-5.35v-10.75h-3.61Zm3.61-10.25h-3.61V15.84h3.61V6.98Zm11.64,10.25h-5.05v8.86c0,.69,.15,.89,.74,.89h2.23c.3,0,.94-.05,1.29-.1l.79-.15v-9.51Z"/>
      <path class="cls-1" d="M300.69,1.98l6.73,2.53h4.01l2.77-2.97,5.69,4.31c-.25,.35-.84,.74-1.78,.94v10.89c-.05,.35-2.92,1.39-4.9,1.44v6.83l2.67-4.36s3.12,3.07,4.75,5.05c-.05,.1-.05,.2-.15,.2,3.07-2.08,5.74-4.55,7.97-7.33-1.09-1.68-2.03-3.52-2.87-5.45-2.33,2.47-4.95,4.41-7.92,5.94l-.5-.4c3.52-4.46,6.64-11.49,7.97-18.91l8.67,2.77c-.25,.64-.84,1.09-2.03,1.04-.5,1.14-1.04,2.23-1.63,3.27h3.91l3.52-3.42,5.79,5.1c-.35,.54-.84,.69-2.03,.84-1.49,3.32-3.52,6.39-6.04,9.11,3.17,1.48,6.88,2.57,11.09,3.32l-.1,.54c-2.82,1.09-4.11,3.17-4.56,6.54l-2.13-.89,2.92,2.23c-.35,.45-.79,.74-1.93,.94v14.11c0,.3-2.13,1.39-5.79,1.39h-1.29v-3.62h-6.98v2.33c0,.45-2.03,1.48-5.45,1.48h-1.24v-10.84c-3.91,2.33-9.66,5.45-17.78,9.26-.25,.64-.79,1.19-1.39,1.34l-2.87-7.13,2.67-.45V22.13l6.09,.54c-.05,.4-.3,.74-.99,.84v15.5l1.53-.3V17.78h-.35v.35c0,.39-1.88,1.68-5,1.68h-1.09V1.98Zm6.09,3.91v10.5h5.15V5.89h-5.15Zm13.07,23.27c-1.39,.49-2.82,.89-4.31,1.29l-.3-.59c1.53-.74,3.02-1.58,4.41-2.48l-.35,.05h-6.09v10l6.64-1.39v-6.88Zm2.13-.79l5.1,1.88h6.24l2.82-3.17c-1.88-1.14-3.47-2.47-4.85-4.01-2.67,2.08-5.79,3.86-9.31,5.3Zm11.54,14.21v-10.94h-6.98v10.94h6.98Zm-4.16-33.42c-.84,1.34-1.68,2.53-2.62,3.66,1.04,1.39,2.38,2.67,3.86,3.81,1.54-2.38,2.72-4.85,3.61-7.48h-4.85Z"/>
      <path class="cls-1" d="M378.43,3.66c-.25,.45-.74,.54-1.63,.35-.45,.54-.94,1.09-1.58,1.63,2.33,1.93,.99,4.65-1.58,3.91-.4-.5-.89-1.09-1.49-1.63-1.53,.94-3.22,1.83-4.85,2.48-.1,.4-.5,.59-1.09,.59h-4.41l.05,3.86h.15l1.98-2.62s2.23,1.83,3.57,3.22c-.1,.54-.59,.79-1.24,.79h-4.41l.1,3.62h19.36l.1-3.62h-3.22l-.45-1.39h3.76l.15-3.86h-3.22l-.45-1.39h3.71l.15-3.91h-3.96l-.45-1.39h3.96l2.48-2.97,6.04,4.46c-.4,.45-.79,.64-1.78,.79l-.45,11.83,2.03-1.98,5.89,5.64c-.4,.39-.84,.54-1.88,.59-2.18,1.04-5.79,2.67-8.12,3.52l-.35-.3,1.19-4.65h-30.45c.54,3.02-.3,5.45-2.82,6.44-4.31,1.68-7.08-4.11-2.28-6.54,1.49-.64,2.67-2.43,2.53-5.05l.54-.05c.74,1.29,1.34,2.57,1.68,3.81h.1l-.4-16.69,5,.84c1.44-1.19,2.82-2.53,3.56-3.32l4.26,3.17c1.29-.05,2.43,.05,3.37,.25,.69-1.04,1.29-2.13,1.68-3.07l5.15,2.62Zm-1.58,22.03l3.71-3.52,6.14,5.4c-.45,.45-.89,.59-1.98,.64-2.08,.74-4.8,1.68-7.53,2.48-.15,.69-.64,1.04-1.63,1.19v2.18h8.81l3.47-4.75s3.91,3.22,6.19,5.35c-.15,.54-.69,.79-1.44,.79h-17.03v4.36c0,4.7-1.04,7.23-8.71,7.92-.2-2.28-.45-3.81-1.29-4.95-.89-1.04-1.93-1.78-4.65-2.28v-.64s5.69,.35,6.78,.35c.64,0,.89-.2,.89-.74v-4.01h-18.42l-.4-1.39h18.82v-4.11l4.9,.39c.99-1.09,1.98-2.28,2.82-3.27h-16.59l-.45-1.39h17.58Zm-14.9-16.09l1.93-2.47s1.63,1.29,2.92,2.47c1.14-.99,2.28-2.18,3.32-3.42-.69-.5-1.39-.99-1.98-1.39l-.69-.15c-1.34,.4-3.52,.84-5.79,1.14l.1,3.81h.2Zm17.18,2.72c-.25,.5-.79,.6-1.63,.4-.5,.64-1.09,1.29-1.83,1.93,2.43,2.23,.84,5.2-1.93,4.16-.35-.59-.79-1.19-1.39-1.83-1.88,1.09-4.06,2.03-6.14,2.58l-.4-.69c1.63-.99,3.22-2.38,4.6-3.81-.94-.89-1.98-1.63-2.87-2.23l.45-.45c1.63,0,3.02,.2,4.21,.49,.69-.99,1.29-2.03,1.73-3.02l5.2,2.47Z"/>
      <path class="cls-1" d="M417.51,19.81V1.04l10.2,.94c-.1,.89-.54,1.54-2.28,1.78V19.81h8.12l4.21-5.84s4.75,3.91,7.48,6.44c-.15,.54-.74,.79-1.49,.79h-18.32v23.52c0,.74-3.32,2.67-6.54,2.67h-1.39V21.19h-18.86l-.4-1.38h19.26Z"/>
      <path class="cls-1" d="M513.08,5.25c-.25,.5-.69,.79-1.93,.64-1.49,1.48-3.42,3.12-5.55,4.65l7.87,4.26c-.25,.5-.69,.84-1.93,.74-1.24,1.59-2.77,3.42-4.51,5.25l3.76,1.38c-.2,.45-.59,.79-1.53,.94v22.33c-.05,.59-2.67,2.33-5.64,2.33h-1.29V25.45c-1.58,1.38-3.22,2.72-4.9,3.91l-.45-.39c3.22-5.3,6.59-13.12,8.07-18.02-2.23,1.58-4.7,3.07-7.23,4.26l-.45-.45c3.27-4.06,6.54-10.25,7.92-14.11l7.77,4.61Zm12.53,16.34c-.1,.69-.45,1.19-1.83,1.39v5.35h.4l2.92-4.01s3.32,2.72,5.25,4.6c-.15,.54-.64,.79-1.34,.79h-7.23v5.54l8.76-1.34,.1,.49c-3.56,2.18-8.96,5.05-17.48,8.91-.3,.64-.84,1.09-1.44,1.24l-3.86-7.53,7.13-.89v-6.44h-5.5l-.4-1.39h5.89v-7.38l8.62,.64Zm-.2-19.06c-.1,.64-.4,1.09-1.58,1.29v6.09h.45l2.82-3.86s3.22,2.62,5.1,4.46c-.15,.54-.64,.79-1.34,.79h-7.03v7.87h.84l2.97-4.06,2.38,2.03h5.99l3.32-4.61s3.76,3.12,5.99,5.2c-.15,.54-.69,.79-1.39,.79h-2.72v20.95c0,4.55-1.24,7.72-8.96,8.27-.15-2.28-.5-3.96-1.44-5-.89-1.04-2.03-1.83-5.1-2.33v-.59s6.14,.35,7.43,.35c.79,0,1.04-.35,1.04-.89V18.52h-2.57l1.34,1.24c-.15,.54-.64,.79-1.34,.79h-21.24l-.4-1.39h7.08v-7.87h-5.69l-.4-1.39h6.09V1.83l8.37,.69Zm10,3.37l3.17-4.36s3.61,2.97,5.69,4.95c-.15,.54-.64,.79-1.39,.79h-12.73l-.4-1.39h5.64Z"/>
      <path class="cls-1" d="M553.79,46.1h-1.24V5.4l8.32,3.22h20.15l3.71-4.31,7.48,5.94c-.5,.59-1.29,1.24-2.72,1.54v30.95c-.1,.54-3.81,2.13-6.68,2.13h-1.14v-5.74h-21.39v4.21c0,.94-3.22,2.77-6.49,2.77Zm27.88-36.1h-21.39v27.73h21.39V10Z"/>
    </g>
  </g>
</svg>