<?xml version="1.0" encoding="utf-8"?>
<!-- Generator: Adobe Illustrator 27.0.0, SVG Export Plug-In . SVG Version: 6.00 Build 0)  -->
<svg version="1.1" id="圖層_1" xmlns="http://www.w3.org/2000/svg" xmlns:xlink="http://www.w3.org/1999/xlink" x="0px" y="0px"
	 viewBox="0 0 1541 107.3" style="enable-background:new 0 0 1541 107.3;" xml:space="preserve">
<style type="text/css">
	.st0{fill:#FFFFFF;}
	.st1{fill:#FFF100;}
</style>
<g>
	<g id="_圖層_2">
		<g id="_圖層_1-2">
			<g>
				<g>
					<path class="st0" d="M23.1,68.5c3.6,8.3,3.5,14.7,1,18c-1.8,2.4-6.6,2.1-8.2-1.2c-1.4-2.8,0.1-5.6,2.5-7.3
						c1.7-1.7,4.2-6,3.6-9.5H23.1L23.1,68.5z M82,38.5c0,0,5.5,4.9,8.5,8.2c-0.2,0.9-1,1.3-2.2,1.3h-18v31.9
						c0,6.3-1.4,10.3-11.7,11.1c-0.1-2.9-0.3-5.1-1.2-6.4c-0.8-1.3-2-2.4-5.2-2.9v-1c0,0,5.3,0.3,6.7,0.3c1.1,0,1.3-0.5,1.3-1.3
						V47.9H44l-0.6-2.2h21.3l2-5.6h-10l-3.7,4.2l-7.8-4.9c-0.5,0.5-1.5,0.9-2.8,0.5C38.1,45.4,30,53,22.9,58
						c3.6-0.2,8.4-0.4,13.4-0.8c-0.2-2.7-0.8-5.3-1.4-7.4l0.9-0.3C53.6,58,42.9,71.7,36.2,64c0.2-1.2,0.2-2.4,0.2-3.6
						c-4.1,2.1-9.6,4.6-15.6,7.1c-0.5,0.6-1.3,1-1.9,1.3L15.5,58c0,0,2.1-0.4,2.9-1c3-2.3,6.6-7.1,9.8-12.2
						c-1.8,0.9-3.7,1.7-5.7,2.6c-0.6,1-1.4,1.7-2.2,2.1l-4.4-10.5c0,0,1.7-0.5,2.5-1c3.3-3.5,7.8-14.9,8.9-21l12.2,5.9
						c-0.3,0.7-1.1,1.3-2.6,1.2c-3.4,4.8-9.3,11.2-14.4,15.2c2.6,0,5.7,0,9-0.1c1.3-2.6,2.5-5.2,3.2-7.2l9.2,6.2
						c0.7-0.5,1.8-1.2,2.8-1.7c2.6-5.7,6.2-15.2,7.3-19.3L67,19.2c-0.2,1-1.1,2.1-3.3,2.1l-1.6,4.1H71l4.3-4.7l9.3,7.4
						c-0.6,0.7-1.4,1-3.1,1.1l-5.8,16.5h1.6L82,38.5L82,38.5z M27.6,67.7c14.3,10,4.8,21.9-0.7,14.9c0.9-4.8,0.5-10.4-0.2-14.7
						C26.6,67.9,27.6,67.7,27.6,67.7z M59.4,66.1c-1.7,3.1-4.7,8.1-9.1,14.4c-0.1,1.1-0.7,2.1-1.7,2.5l-5.2-7.6
						c0.5,4.7-3.9,7.7-7.4,4c0.5-4.4-0.8-9.7-2.4-13.2l0.9-0.4c4,1.9,6.5,4.2,7.8,6.3c3.4-1.2,10.2-4,16.8-6.7L59.4,66.1L59.4,66.1z
						 M46.9,51.2c19.6,3.4,10.3,18.2,2.8,11.6c0.2-4-1.4-8.4-3.5-11.2L46.9,51.2L46.9,51.2z M67.4,37.8l3.6-10.3h-9.8
						c-1.4,3.6-3,7.4-4.3,10.3H67.4L67.4,37.8z M72.2,66.7c25.7,1.3,17.3,21.8,8,14.6c-1.7-4.2-4.8-10-8.5-14L72.2,66.7L72.2,66.7z
						 M72.1,63.9c2.2-4.1,5.3-11.3,6.8-15L90,56.7c-0.4,0.6-1.2,1-3,0.5c-3.2,2.1-10.1,5.3-14.2,7.4L72.1,63.9L72.1,63.9z"/>
					<path class="st0" d="M170.9,40.4c-5.1,1.5-8.5,7-9.3,11.7c-11.2-6.1-21.3-14.8-25.7-28.4c-4.9,7.8-13.3,15.4-22.8,21.7h22.6
						l5.3-6.7c0,0,5.9,4.5,9.6,7.7c-0.2,0.9-1.1,1.3-2.2,1.3h-11.6v11.3h11.8l5.7-7.5c0,0,6.6,5.1,10.4,8.5
						c-0.2,0.9-1.1,1.3-2.3,1.3h-25.7v25.3h14l6.3-8.2c0,0,7.2,5.5,11.5,9.2c-0.2,0.9-1.2,1.3-2.4,1.3H96.5l-0.6-2.2h29V61.3h-24.3
						L99.9,59h25V47.7h-11.6l-0.6-2c-6,4-12.4,7.3-18.6,9.6l-0.5-0.8c13.5-9.3,27.7-26.6,30.7-38.2l17.2,4.5c-0.3,1.2-1.4,1.7-4.4,2
						c7.3,9.7,22.6,13.9,33.8,16.3L170.9,40.4L170.9,40.4z M107.8,64.2c23.4,8.1,10.8,26,1.7,16.6c0.4-5.7-0.8-11.5-2.5-16.2
						L107.8,64.2L107.8,64.2z M140,83.3c1.4-4.8,3.2-12.8,4.7-19.6l14.7,5.2c-0.3,1-1.4,1.7-3.2,1.6c-4.7,5.1-10.3,10.1-15.3,13.4
						L140,83.3z"/>
					<path class="st0" d="M236.9,77c0,0,7.4,5.5,11.8,9.3c-0.2,0.9-1.1,1.3-2.4,1.3h-72.1l-0.6-2.2h31V61.1h-20.7l-0.6-2.2h21.3
						V38.5h-12c-5.1,8.5-11.5,15-19,19.9l-0.8-0.5c5.6-9.4,11.1-24.1,13.2-38.5l16,4.6c-0.3,1-1.4,1.7-3.2,1.7
						c-1.5,3.8-3.1,7.4-4.9,10.6h10.8V17.2l15.6,1.4c-0.2,1.2-0.7,2-2.9,2.3v15.4h9.7l6.3-7.7c0,0,6.9,4.9,11.3,8.6
						c-0.2,0.9-1.1,1.3-2.4,1.3h-24.9v20.4h7.3l6.3-7.9c0,0,7.2,5.3,11.6,8.9c-0.2,0.9-1.1,1.3-2.3,1.3h-22.9v24.2h13.1L236.9,77
						L236.9,77z"/>
					<path class="st0" d="M252.9,35.5c23.8,0.4,16.1,18.9,6.3,12.8c-1-4.5-4-9.3-6.9-12.3C252.3,36,252.9,35.5,252.9,35.5z
						 M318.8,35.8c0,0,6.3,5.2,10,8.7c-0.2,0.9-1.1,1.3-2.2,1.3h-19.9v15h4.2l5.1-5.5l10.3,7.8c-0.5,0.6-1.5,1.4-3.2,1.7v23.3
						c-0.1,0.7-5.5,3-9.4,3h-2v-6.8h-21.1v3.8c0,1-4.9,3.5-9.7,3.5h-1.6V56.3l11.7,4.5h3.9v-15h-19.1l-0.5-2
						c-2.7,8-5.4,16.6-6.2,19.5c-0.7,2.6-1.4,5.6-1.4,7.7c0.2,4.5,4,6.7,3.7,13.9c-0.2,4.3-3.5,7.1-8.1,7.1c-2.1,0-4.4-1-5.3-4.1
						c1.7-8.3,1.4-16-0.5-17.3c-1.2-0.8-2.6-1.3-4.3-1.4v-1.3h3.7c1.4,0,1.7,0,2.8-1.6c1.4-2,7.3-12.8,17.7-32.4l1.1,0.3
						c-1,2.6-2.1,5.9-3.2,9.4h19.6v-13c-6.3,0.5-12.8,0.8-18.7,0.9l-0.2-1c13.1-3.1,30.1-8.9,38.6-13.1l10.9,10.5
						c-1,0.8-3,0.9-5.8-0.2c-3.7,0.6-8.2,1.3-13.1,1.9v14.1h6.5L318.8,35.8L318.8,35.8z M258.8,18.2c24.7,0.1,17.7,19,7.4,13.3
						c-1.4-4.6-5-9.7-8-12.8L258.8,18.2L258.8,18.2z M290.6,63v19.1h21.1V63C311.7,63,290.6,63,290.6,63z"/>
					<path class="st0" d="M353.1,58.7h23v5.8h-23C353.1,64.5,353.1,58.7,353.1,58.7z"/>
					<path class="st1" d="M476.3,24.8c-0.5,0.7-1.6,1.4-3.2,1.7v61.6c-0.2,0.8-5.1,3.3-9.1,3.3h-1.7v-6.3h-47.1v2.7
						c0,1.3-4.3,4-8.8,4h-1.7V18l11.4,4.5h45.5l5-5.5L476.3,24.8L476.3,24.8z M462.4,83V46.4c-0.5,0.5-1.5,0.7-2.8,0.5
						c-2.3,6.4-5.2,11.8-8.5,16.3c0.9,1.7,1.9,3.3,3.1,4.7c0.8,1,1.2,0.9,1.8-0.2c1-1.7,2.5-5.2,3.6-8l0.8,0.2l-1.4,11.1
						c2.2,4.2,2.6,6.5,1.4,7.8c-3.4,3.3-9,0.3-11.5-2.4c-1.7-2-3.1-4-4.4-6.3c-5.2,4.7-11.4,8.1-18.5,10.5l-0.7-0.9
						c6.2-3.9,11.9-9.2,16.4-15.8c-2-5.4-3.2-11.2-3.8-17.5c-0.4,0.2-0.8,0.3-1.3,0.4v11.5c0,0.6-3.6,2.4-6.3,2.4h-1.3v-2.3H426v1.4
						c0,0.5-3.2,2.2-6.3,2.2h-1V41l7.6,3.1h2.2l3.3-3.4l5.9,4.4c-0.2-2.1-0.4-4.2-0.5-6.3h-20l-0.6-2.2h20.6
						c-0.2-3.4-0.2-6.8-0.2-10.4l12,2c-0.2,1-1,1.8-2.8,2v6.4h4l2.5-3.2c-0.7-2.6-2.4-5.3-3.8-6.9l0.7-0.5c11.8,0.2,12,6.6,8.5,8.6
						c1.2,1,2.4,2,3.3,2.9c-0.2,0.9-1,1.3-2.1,1.3h-13c0.2,5,0.5,9.8,1.4,14.2c1.6-3.7,2.9-7.8,3.7-12.2l11,4.7V24.8h-47.1V83H462.4
						L462.4,83z M438.5,63.2c-3,2.5-7.8,6.2-14.9,10.8c-0.4,1.1-1.2,1.8-2.1,2.1l-5-10.8c3.9-0.3,13-1.5,21.9-2.8L438.5,63.2
						L438.5,63.2z M429.1,46.3H426v10h3.1V46.3z"/>
					<path class="st1" d="M550.8,50.7c-0.5,0.6-1.3,1-3.1,0.5c-5,1.8-11.6,3.6-18.6,5.2c5.3,10.7,15.9,16.1,26.5,19.4l-0.2,0.9
						c-4.3,0.9-7.4,4.4-9,9.7c-9.7-6.7-15.8-14.9-19-29.6c-1.7,0.3-3.5,0.7-5.2,1c6.7,11.2,6.2,24.7,2.1,30.1
						c-2.2,2.8-6.8,3.8-13.1,3.8c-0.1-3.2-0.7-5.5-2-7.1c-1-1.3-3.4-2.4-6.7-3.4v-0.8c3.3,0.3,8.3,0.6,10.2,0.6c1.1,0,2-0.2,2.4-0.9
						c0.6-1.3,1.2-3.5,1.3-6.2c-9.4,5.3-21.8,9.8-34.2,11.9l-0.5-1c13.2-4.8,26.5-14.3,33.8-24.2l-0.1-0.5c-8.2,5-20,9.8-31,12.5
						l-0.4-0.9c9.7-4.8,20.2-13.8,26.3-21.7c-7.4,4-16.3,7.2-25.4,9.4l-0.5-0.9c9.1-4.4,17.4-11.4,22.9-17.5h-13.5l-0.6-2.2h36.4
						l5.5-7c0,0,3.1,2.4,6.3,4.9c0.2-2.1,0.2-4.8,0.2-7h-47.4c0.7,5.9-1.3,10-4.2,11.8c-2.8,1.7-7,0.8-8.2-2.7c-1-3.3,1-5.9,3.7-7.1
						c2.6-1.4,5.9-5.1,5.8-9h1c0.7,1.7,1.2,3.3,1.6,4.8h21.2c-0.3-0.2-0.5-0.3-0.9-0.5c-0.3-3.8-2.5-7.7-5.1-9.8l0.5-0.4
						c17.4-2.1,17.4,7.7,12.2,10.7h19l5.4-5.5l9.4,8.9c-0.6,0.7-1.4,1-3.1,1c-2.4,2-6.3,4.4-9.7,6c0.9,0.6,1.6,1.3,2.3,1.9
						c-0.2,0.9-1.1,1.3-2.2,1.3h-20c-2.5,2.5-5.6,4.9-9.1,7c2.8,2.2,5.2,4.8,7,7.5c7-4.4,14.7-10.6,18.8-14.6L550.8,50.7L550.8,50.7
						z"/>
					<path class="st1" d="M566.8,68.7c3.8,8.8,3.8,15.5,1.3,19.2c-1.8,2.6-6.7,2.4-8.5-0.7c-1.4-2.8-0.2-5.6,2.3-7.4
						c1.7-2.1,4.4-7,3.8-11.2H566.8L566.8,68.7z M560.4,58.3c0,0,2.1-0.5,3.1-1.1c3.5-2.4,7.8-7.5,11.5-13c-2.4,1.1-5.1,2.4-7.9,3.6
						c-0.5,1-1.3,1.6-2.1,1.9l-4.6-10.8c0,0,1.8-0.5,2.6-1c3.6-3.5,8.5-15,9.8-21.1l12.4,6.3c-0.3,0.7-1.3,1.2-2.7,1.1
						c-3.6,4.8-9.9,11.1-15.4,15.1c3.2,0,7,0,11.1-0.1c1.7-2.8,3-5.5,3.8-7.7l11.1,7.6c-0.4,0.7-1.4,1.2-3,0.8
						c-4.5,5.5-13.4,13.2-21.4,18.3c4-0.2,8.9-0.5,13.9-0.9c-0.6-2.4-1.6-4.7-2.5-6.6l0.8-0.4c18.4,6.6,9.7,20.3,2.8,13.8
						c0-1.3-0.2-2.8-0.5-4.1c-4.3,2.1-10.2,4.9-17,7.6c-0.6,0.8-1.4,1.4-2.2,1.7L560.4,58.3L560.4,58.3z M573,67.8
						c16.2,9.8,5.9,23-0.3,15.3c0.8-5,0.3-10.7-0.6-15L573,67.8L573,67.8z M634.8,47.4c-0.5,0.9-1.3,1.2-3.2,1.4
						c-2.2,8.6-5.6,16.7-10.9,23.6c4.6,4,9.8,6.9,15.4,9.3l-0.2,0.9c-4.6,0.6-8.3,3.9-10.2,9.1c-4.6-3.6-8.4-7.6-11.4-12.4
						c-5.9,5.2-13.5,9.5-23.2,12.4l-0.5-0.9c8.8-4.7,15.4-11,20.2-18.4c-2.8-6.7-4.7-14.9-5.8-25.6h-0.4
						c-1.2,17.5-5.1,32.9-18.5,44.8l-1-1.1c2.1-3.8,3.7-7.7,5-11.6c-1.6,1.2-4,1.3-6.3-0.6c0-3.9-1.7-8.5-3.7-11.4l0.8-0.4
						c6.7,1.7,9.8,4.5,10.6,7.2c3.7-14.9,3.2-31.3,3.2-48.5h-4.5l-0.7-2.2h24.1l4-4.8l9.9,7.2c-0.6,0.8-1.3,1-2.9,1.3l-1.9,15.2
						l2.8-2.8L634.8,47.4L634.8,47.4z M605.2,25.2c-0.1,6.7-0.2,13.2-0.5,19.5h7.3l2.1-19.5C614.1,25.2,605.2,25.2,605.2,25.2z
						 M606.2,46.9c1.7,7.8,4.5,14,8.3,18.9c2.8-5.9,4.8-12.3,6-18.9H606.2z"/>
					<path class="st1" d="M708.4,65c0,0,4,4,6.2,6.6c-0.2,0.9-1,1.3-2.1,1.3h-30.3l11.4,6.8c-0.4,0.7-1.2,1.2-3,0.9
						c-5.5,4.7-14.3,8.9-23.7,11l-0.5-0.8c6.4-4.7,12.3-12.3,15.1-18h-9.8l-0.6-2.2h6.2V43.5h-4.4l-0.6-2.2h5v-5
						c-2.8,2.4-5.9,4.4-9.1,6l-0.8-0.6c1.2-1.8,2.4-4,3.5-6.3h-13.5c0,4,0.1,8,0,12h3.4l5.3-5.2l9,7.7c-0.5,0.7-1.6,1.3-3.3,1.5
						c-0.8,25-2.2,32.9-6.5,36.5c-2.7,2.3-5.9,3.3-10.2,3.3c0-3.2-0.2-5.5-1.1-7c-1-1.3-2.2-2.3-4.4-3c-2.5,4-5.9,7.6-10.4,10.7
						l-0.5-0.7c10.2-16.2,8.9-36,8-55.8h-6.7l-0.6-2.2h20.9l5-6.9c0,0,3.9,3.2,7,6c2-4.9,3.7-10.5,4.8-16l14.7,5.1
						c-0.3,1-1.4,1.7-3.2,1.6c-1,1.9-2.2,3.6-3.4,5.2h13.7l5.8-7.9c0,0,6.5,5.3,10.2,8.9c-0.2,0.9-1.1,1.3-2.2,1.3h-29.2
						c-0.8,1-1.5,1.8-2.4,2.6l8.8,0.8c-0.2,0.9-0.6,1.5-2.2,1.8v5.7h7.3v-8.6l12.3,1.1c-0.1,0.9-0.5,1.5-2.2,1.8v5.7h0.2l3.1-4.6
						c0,0,3.6,3.2,5.6,5.5c-0.2,0.9-1,1.3-2,1.3h-7v27.1h0.2L708.4,65L708.4,65z M647.1,16.8c22.5,3.6,12.6,20.5,3.8,13.2
						c-0.2-4.5-2.2-9.5-4.4-12.8L647.1,16.8z M657.2,49.5c-0.4,11.2-1.8,21.8-7,30.5c1.8,0.2,3.9,0.2,5.1,0.2c1.1,0,1.7-0.2,2.4-0.8
						c2.2-1.9,3.2-10.4,3.9-29.9C661.5,49.5,657.2,49.5,657.2,49.5z M687.3,43.5V51h7.3v-7.4H687.3z M687.3,60.8h7.3v-7.6h-7.3V60.8
						z M687.3,70.6h7.3V63h-7.3V70.6z M693.4,74c27.2,1.6,21.7,21.5,11.4,16.2c-2.1-5.6-7.4-11.9-12-15.7L693.4,74L693.4,74z"/>
					<path class="st1" d="M789.5,81.4c0,0,3.5,4,5.2,6.5c-0.2,0.9-1,1.3-2,1.3h-49.2l-0.1-0.3c-1.4,1.5-3.9,2.4-8.1,2.8
						c-0.2-2.7-0.5-4.8-1.3-6c-0.9-1.3-2.1-2.1-4.9-2.7v-1.1c0,0,5.2,0.3,6.4,0.3c1.1,0,1.3-0.5,1.3-1.4V72c-1.4,2.1-4,2.6-5.2,0.1
						c0.5-3.3,0.5-9.4-1.3-13.9c-0.2,11.6-1.4,24.4-12,33.6l-1-0.6c4.5-8.9,5.1-20.1,5.2-31.3l-1.2,0.3c-0.5,1-1.4,1.7-2.4,1.8
						l-2.1-9.7c1.5,0,3.5,0,5.7-0.1V25.2l7.4,2.8c0.2-3.2,0.4-7.9,0.5-11.2l12.6,2.6c-0.3,1.3-1.3,1.9-3.2,2
						c-1.8,2.1-4.6,5.1-6.7,7.3h3.1l3.7-4.3l7.8,5.9V19.4l9.2,4.4h4.5l4.2-5.5c0,0,4.8,3.7,7.7,6.4c-0.2,0.9-1,1.3-2.1,1.3h-7v7.1
						l2.5-2.5l6.7,5c-0.3,0.4-1.2,1-2.3,1.2V47c-0.1,0.5-3.6,1.9-5.8,1.9h-1v7.3h0.5l3.6-5.8c0,0,4.1,4,6.3,6.7
						c-0.2,0.9-1,1.3-2,1.3h-16.4l-2.1,2.8l-8.1-3.8c0.4-0.5,1-1.2,1.7-1.8v-3.9l-2.4,0.9v29c0,2.1-0.2,3.9-0.7,5.3h4.2V60.7
						l9.2,3.6h18.8l3.8-4.9l9.3,6.4c-0.5,0.9-1.5,1.3-3.6,1.6v19.6h0.1L789.5,81.4L789.5,81.4z M730.5,30.9v2.8l0.3-0.2
						c3.2,2.3,5.2,4.7,6.2,6.9v-9.6L730.5,30.9L730.5,30.9z M730.5,51.9c2.1-0.2,4.3-0.3,6.5-0.5v-3.8c-1.3,2.1-3.8,2.6-5.2,0.2
						c0.2-2.8,0.2-7.9-1.3-11.9L730.5,51.9L730.5,51.9z M731.7,57.6c2.8,2.2,4.4,4.5,5.4,6.5v-8.5c-2.1,0.6-4.2,1.3-6.5,2.1v0.5
						C730.5,58.1,731.7,57.6,731.7,57.6z M747.8,30.9c-0.5,0.5-1.3,0.9-2.4,1.1v18.7l2.4-0.2V30.9z M756,33.9h2.3v-7.9H756V33.9z
						 M756,45.3h8.2v-9.2H756V45.3z M758.3,56.2v-8.7H756v8.7H758.3z M757.3,86.9h2.1V66.5h-2.1V86.9z M768.6,66.5h-2.5v20.4h2.5
						V66.5z M771.4,46.5c2.7-7.4,4.8-18.1,5.5-28l12.1,3.1c-0.3,1-1.3,1.7-3,1.8c-1.2,3.6-2.5,7.1-4.1,10.4h2.2l3.4-5
						c0,0,3.8,3.6,6,5.9c-0.2,0.9-1,1.3-2.1,1.3h-10.8c-2.4,4.3-5.1,8-8.2,11L771.4,46.5L771.4,46.5z M785.6,46.7
						c0,0,4.6,4.4,7.1,7.2c-0.2,0.9-1,1.3-2.1,1.3h-17.2l-0.6-2.2h8.7C781.6,53,785.6,46.7,785.6,46.7z M775.4,66.5v20.4h2.3V66.5
						H775.4z"/>
					<path class="st1" d="M831,25.7c0,0,5.5,4.4,8.9,7.4c-0.2,0.9-1,1.3-2.1,1.3h-39.8l-0.6-2.2H826L831,25.7L831,25.7z M821.9,42.4
						l4.9-6.3c0,0,5.5,4.3,8.8,7.3c-0.2,0.9-1,1.3-2.1,1.3h-31.4l-0.6-2.2H821.9L821.9,42.4z M826.8,46.5c0,0,5.5,4.3,8.8,7.3
						c-0.2,0.9-1,1.3-2.1,1.3h-31.4l-0.6-2.2h20.5L826.8,46.5L826.8,46.5z M826.9,58.7l9.5,7.2c-0.5,0.6-1.4,1.3-3,1.6V85
						c-0.1,0.6-5.1,2.7-8.5,2.7h-1.7V83H813v4.5c0,0.9-4.4,3.2-8.6,3.2h-1.4v-31l10.4,4h9L826.9,58.7L826.9,58.7z M808.6,17.4
						c24.5-0.7,15.3,18.5,5.1,11.8c-0.6-4.3-3.1-8.7-5.5-11.4L808.6,17.4L808.6,17.4z M823.1,80.8V65.9H813v14.9H823.1z M864.4,39.2
						c0,0,5.9,4.8,9.3,7.9c-0.2,0.9-1.1,1.3-2.2,1.3h-13.3v39.2c0,1.1-4.8,3.9-9.1,3.9h-2.1V48.4h-11.6l-0.6-2.2h12.3V17.1l14.2,1.4
						c-0.2,1.1-0.7,2-2.9,2.3v25.5h1.1L864.4,39.2L864.4,39.2z"/>
					<path class="st1" d="M924.4,73.2V32.4c-0.2,0.1-0.5,0.1-0.7,0.1h-6.7v6.9c0,0.4-1.5,1.2-3.3,1.8c1.7,1.3,4.4,3.4,6.4,5.2
						c-0.2,0.9-1,1.3-2.1,1.3h-3.8c1.7,1.3,5.3,4,7.8,6.1c-0.2,0.9-1.1,1.3-2.2,1.3h-7.5l7.4,5.5c-0.3,0.5-1.2,1-2.5,1.3v13.3
						c-0.1,0.6-4.9,2.3-8,2.3h-1.7V76H890v0.3c0,0.6-2.8,2.6-7.7,2.6h-1.7V55h-3.5l-0.6-2.2h16.9v-5.2h-14.1l-0.6-2.2h14.7v-5.2H881
						l-0.7-2.2h13.1v-5.5h-16.2l-0.6-2.2h16.8V25h-12.1l-0.7-2.2h12.8v-5.9l12,1c-0.2,1-0.6,1.6-2.2,1.9v3h3.9l4-4.1l8.2,6.1
						c-0.3,0.4-1,0.9-2.1,1.1v4.4h0.1l3.1-4.5c0,0,2.3,2.1,4.2,4.1v-6.3l12.3,1.1c-0.2,1-0.7,1.7-2.6,2.1v43.8
						c0,0.8-4.2,2.7-7.8,2.7L924.4,73.2L924.4,73.2z M876.7,80.4c8-0.2,26.6-0.9,46.2-2.1l0.1,1c-8.2,2.9-20.3,6.3-38.9,10.8
						c-0.5,1-1.4,1.7-2.4,1.8L876.7,80.4z M910.1,55h-28.4l9.3,3.5h15.8L910.1,55L910.1,55z M890,66h4.2v-5.2H890V66z M890,73.8h4.2
						v-5.6H890V73.8z M903.1,30.3h4.5V25h-4.5V30.3z M907.6,32.5h-4.5V38h4.5V32.5z M910.5,42c-0.4,0.1-0.8,0.1-1.2,0.1h-1.7v-1.9
						h-4.5v5.2h4.6L910.5,42L910.5,42z M912.7,47.7h-9.6v5.2h5.4L912.7,47.7z M903.1,65.9h4.4v-5.2h-4.4V65.9z M907.5,73.8v-5.6
						h-4.4v5.6H907.5z M951.7,19.1c-0.2,1.2-1,1.9-2.9,2.2v58.4c0,7.1-1.6,11-13.3,12.1c-0.3-3.4-0.8-5.8-2.2-7.4
						c-1.4-1.7-3.2-2.8-7.7-3.6v-1c0,0,9.3,0.6,11.2,0.6c1.3,0,1.7-0.5,1.7-1.4V17.8L951.7,19.1L951.7,19.1z"/>
					<path class="st1" d="M975.3,91.1c13.7-12.1,20.4-34.5,21.6-57.8l15.8,2.8c-0.2,1-0.9,1.5-3.2,1.5c-4.2,24.6-13.2,42.7-33.7,54
						L975.3,91.1L975.3,91.1z M1031.4,25.7c-1.3,1.5-4.4,2.4-8.4,2.7c3.2,22.9,11.2,41.6,28.9,50.9l-0.5,1
						c-5.2,1.9-9.3,6.8-10.9,11.6c-13.9-13.5-18.1-34.3-19.6-65.3h-11.1l-0.7-2.2h9.1l3.7-5.6L1031.4,25.7L1031.4,25.7z"/>
					<path class="st1" d="M1096.3,43.1c2.7,14.5,12.3,28.4,33.7,36.3l-0.1,0.9c-5.9,1.2-9.3,5-10.2,11.6
						c-16.6-10.7-22.3-30.1-24.4-45.9c-2.5,19.1-10.7,35.1-40.3,45.9l-0.6-1c21.5-13.9,27.3-29.6,28.9-47.8h-27.6l-0.6-2.2h28.3
						c0.5-7.5,0.4-15.4,0.4-23.8l15.8,1.4c-0.2,1.3-1,2-2.9,2.3c-0.2,7-0.2,13.7-0.8,20.1h15.3l6.6-8.3c0,0,7.4,5.5,11.8,9.3
						c-0.2,0.9-1.2,1.3-2.4,1.3L1096.3,43.1L1096.3,43.1z"/>
					<path class="st1" d="M1167,51.3c-2.4,2.1-5.4,4.5-9.3,7.4v29.3c0,1.1-4.6,3.7-8.6,3.7h-2.1V65.9c-1.3,0.9-2.7,1.7-4.1,2.7
						c-0.3,1-1.1,1.9-2.1,2.2l-7.1-11.9c2.8-0.5,7.5-1.7,13.2-3.2V39.5h-3.7c-2,6.5-4.6,12.4-7.9,17l-1.2-0.5
						c1.5-8.6,2.2-20.7,2.1-31l10.8,1.7v-9.8l13.5,1.4c-0.2,1.1-0.7,1.9-2.9,2.2v14l2.6-4.5c0,0,5,5.1,7.4,8.3
						c-0.2,0.9-0.9,1.3-2.1,1.3h-8v13.6c3-0.9,6.1-1.7,9.2-2.5L1167,51.3L1167,51.3z M1147.1,37.3v-8.5c-0.3,0.1-0.7,0.2-1.2,0.2
						c-0.6,2.9-1.2,5.6-1.9,8.3L1147.1,37.3L1147.1,37.3z M1200.4,51.5c0,0,5.8,4.7,9.2,7.8c-0.2,0.9-1,1.3-2.1,1.3h-12.1v19.3
						c0,7.3-1.9,11.1-14.7,12.1c-0.3-3.3-0.8-5.6-2.5-7.2c-1.7-1.6-3.6-2.7-8.6-3.6v-0.9c0,0,10.9,0.6,12.9,0.6
						c1.3,0,1.7-0.4,1.7-1.4V60.6h-22.5l-0.6-2.2h23.1V48.3l13.9,1.2c-0.2,1.2-0.9,1.8-2.7,2.1v6.7L1200.4,51.5L1200.4,51.5z
						 M1163,31.1h14.9V16.5l13.6,1.1c-0.1,1-0.6,1.7-2.5,2.1v11.4h4.2l5.5-7.2c0,0,6.3,4.8,10,8.2c-0.2,0.9-1.1,1.3-2.3,1.3h-17.3
						v12.1h2.8l5.2-6.9c0,0,5.9,4.7,9.5,7.8c-0.2,0.9-1,1.3-2.2,1.3h-38l-0.6-2.2h12.3V33.3h-14.2L1163,31.1L1163,31.1z
						 M1165.5,61.5c24.4,3.9,15.8,22.1,6.2,15.3c-1-5.2-4.1-10.8-6.8-14.9L1165.5,61.5L1165.5,61.5z"/>
					<path class="st1" d="M1280.2,79.3c5.3,0.9,6.6,2.5,6.6,4.3c0,5.1-5.5,6-32.6,6h-16.5c-13.9,0-20.4-1.3-20.4-11.2V24.8h-2.6
						l-0.6-2.2h55.4l5.3-7.1c0,0,5.9,4.8,9.5,8.1c-0.2,0.9-1.1,1.3-2.2,1.3h-54.2v52.1c0,3.6,2.4,4.5,8.7,4.5h18.4
						c5.5,0,10.8-0.2,13.3-0.3c1.6-0.1,3.9-0.4,5.3-0.6c1.3-0.2,3.3-0.6,5.4-1.3h0.8L1280.2,79.3L1280.2,79.3z M1244.5,77.9v-4h-4
						v3.2c0,0.8-4,2.8-7.8,2.8h-1.3V52.5l9.3,3.7h3.1l4.1-4.3l8.4,6.3c-0.4,0.5-1.3,1.1-2.5,1.3v16.2c-0.1,0.6-4.7,2.2-7.7,2.2
						L1244.5,77.9L1244.5,77.9z M1261.9,46.9h-13.2V49c0,1-4.8,3.2-9.2,3.2h-1.5V26.8l11.1,4.2h12l4.8-5.1l9.7,7.3
						c-0.5,0.5-1.3,1.2-2.8,1.5v13.6c-0.1,0.5-5.5,2.4-8.9,2.4h-1.9V46.9z M1244.5,71.7V58.4h-4v13.3H1244.5z M1261.9,44.7V33.3
						h-13.2v11.5H1261.9z M1270.9,77.6V74h-4.4v1.9c0,0.9-4.1,2.8-7.9,2.8h-1.3V52.5l9.6,3.7h3.3l4.2-4.4l8.6,6.4
						c-0.4,0.5-1.3,1-2.5,1.3v15.8c-0.1,0.6-4.8,2.3-7.8,2.3L1270.9,77.6L1270.9,77.6z M1270.9,71.7V58.4h-4.4v13.3H1270.9z"/>
					<path class="st1" d="M1357.8,37c0,0,6.5,5.4,10.2,9c-0.2,0.9-1.1,1.3-2.2,1.3h-5.5v41.5c-0.1,0.6-3.4,3-9.2,3h-2.1V47.2h-5.3
						v3.1c0,14.3-1.4,31.1-21.2,41.4l-0.7-0.8c10-11.6,10.9-26.5,10.9-40.9v-1.9c-0.3,0.1-0.7,0.2-1.1,0.2h-14.5v9.3h1.9l4.4-6.3
						c0,0,5,4.3,7.9,7.2c-0.2,0.9-1,1.3-2.1,1.3h-12.1V63l0.2-0.1c19.3,7.3,10,22.3,2.7,15.2c0.2-4.6-1.1-9.7-2.9-13.6v24.7
						c0,0.6-3.2,2.4-8.9,2.4h-2V71.1c-3.1,5.2-7.4,10.9-13,14.9l-0.8-0.8c3.6-6.7,5.8-16.7,6.5-23.2l7.3,3.2v-5.5h-12l-0.6-2.2h12.6
						v-9.3h-13.6l-0.6-2.2h11.9c-0.9-0.3-1.9-0.9-2.8-1.8c0.2-4.4-1-9.4-2.3-13.1h-4.9l-0.6-2.2h15.1c-0.6-0.3-1.1-0.6-1.7-1.1
						c0-4-1.7-8.2-3.5-10.9l0.6-0.4c15.5,1.4,15.1,9.8,10.4,12.4h4.1l4.5-6.3c0,0,5.2,4.3,8.2,7.2c-0.2,0.9-1,1.3-2.1,1.3h-10.5
						l10.4,3.2c-0.3,1-1.2,1.6-2.9,1.4c-2.5,3-6.3,7-10.1,10.3h5l4.7-6.6c0,0,4.3,3.6,7.4,6.6v-23l10.7,3.3c4.7-3.1,9.3-7,12-9.9
						l11.5,9.1c-0.9,0.9-2.6,1.1-5.3,0.3c-4.4,1.4-11.2,2.8-17.8,3.6V45h8.4L1357.8,37L1357.8,37z M1300.4,31.2
						c12.6,5.2,10.8,13.5,6.3,14.9h6.5c1.3-4.5,2.3-10.5,2.9-14.9H1300.4z"/>
					<path class="st1" d="M1402.4,37.3c-0.7,0.8-1.6,1-3.5,1.3c-1.7,3.7-4,7.7-6.8,11.4c16.9,5.9,8.4,19.3,1,13
						c-0.2-2.3-0.7-4.8-1.5-7.1v32.5c0,0.6-3.3,3.2-8.6,3.2h-2V62c-3.2,2.7-6.6,5.2-10.1,7.1l-0.6-0.6c8.3-9.3,14.8-21.9,17.5-32.4
						h-15.2l-0.7-2.2h15.4l5.7-5.5L1402.4,37.3L1402.4,37.3z M1379.5,16.9c22.4,2.9,10.4,18.8,1.8,10.9c0.2-3.9-1.1-7.8-2.4-10.6
						L1379.5,16.9L1379.5,16.9z M1444.8,79c2.3,1.2,2.7,2.5,2.7,4.4c0,4-3.2,6.2-12,6.2h-4.3c-7.4,0-8.2-2.1-8.2-8.7V61.2h-1.6
						c-1.1,12-4.9,23.3-25.4,30.7l-0.8-0.9c11.7-8.2,13.9-17.1,14.4-26.1c-1.4,0.4-3,0.7-4.6,0.7h-1.7V18.7l11.3,4.4h15.1l4.8-5.4
						l9.9,7.7c-0.6,0.6-1.6,1.4-3.2,1.7v34.7c-0.2,0.5-4.2,2.2-7.6,2.6v13.8c0,0.9,0.2,1.3,1.2,1.3h3.7c0.7,0,1-0.2,1.5-0.9
						c0.7-1.3,2.1-5,3.6-9.6h0.8L1444.8,79L1444.8,79z M1414.2,25.4v9.8h16.4v-9.8H1414.2z M1430.6,37.4h-16.4v9.2h16.4V37.4z
						 M1414.2,59h16.4V48.8h-16.4V59z"/>
					<path class="st1" d="M1496.6,50.4c6.5,6.1,18.4,8.5,29,9.4l-0.1,1c-4.1,1.3-6.8,5-7.8,10.5c-4.7-1.8-8.9-4-12.4-6.7v24.6
						c0,0.7-5.2,2.8-9,2.8h-2.2V58.9l5.9,0.5c-2.1-2.5-4-5.5-5.4-9h-5.9c-2.5,3.6-5.9,6.8-10,9.5l6.3,0.5c-0.1,1-0.7,1.8-2.5,2.1
						v6.7c-0.2,9.3-4.8,18.8-29.8,22.8l-0.4-0.7c16.3-5.8,18.9-14.2,18.9-22.2V64c-5.9,2.6-12.8,4.7-20.4,6.1l-0.5-0.9
						c11.1-4.2,19.5-10.9,24.3-18.7h-2.9v0.8c0,1.1-4.9,3.6-9.6,3.6h-1.7V17.2l12,4.6h31.5l5-5.5l10.4,7.8c-0.5,0.6-1.4,1.4-3.1,1.7
						v25.3c-0.1,0.6-5.8,2.6-9.5,2.6h-2v-3.3L1496.6,50.4L1496.6,50.4z M1471.7,24v10.8h10.6V24H1471.7z M1471.7,48.2h10.6V36.9
						h-10.6V48.2z M1493.4,24v10.8h11.4V24H1493.4z M1504.8,48.2V36.9h-11.4v11.2H1504.8z"/>
				</g>
			</g>
		</g>
	</g>
</g>
</svg>
