<?xml version="1.0" encoding="UTF-8"?>
<svg id="_圖層_2" data-name="圖層 2" xmlns="http://www.w3.org/2000/svg" viewBox="0 0 525.31 87.09">
  <defs>
    <style>
      .cls-1 {
        fill: #fff;
      }
    </style>
  </defs>
  <g id="_圖層_1-2" data-name="圖層 1">
    <g>
      <path class="cls-1" d="M15.28,87.09C5.09,75.58,0,61.4,0,44.54S5.09,13.51,15.28,1.4h9.06C14.3,13.96,9.29,28.32,9.29,44.49s5.02,30.28,15.06,42.6H15.28Z"/>
      <path class="cls-1" d="M23.67,37.64c0-12.26,2.1-21.56,6.29-27.9C34.15,3.4,40.23,.22,48.19,.22c15.18,0,22.76,11.92,22.76,35.75,0,11.66-2.07,20.64-6.22,26.96-4.15,6.31-10.16,9.46-18.03,9.46s-13.34-2.97-17.22-8.93c-3.88-5.95-5.82-14.56-5.82-25.83Zm10.77-.41c0,17.79,4.31,26.69,12.94,26.69s12.76-9.07,12.76-27.23-4.16-27.95-12.49-27.95c-8.81,0-13.21,9.5-13.21,28.49Z"/>
      <path class="cls-1" d="M75.88,58.47c4.78,3.64,10.19,5.45,16.23,5.45,4.48,0,8.05-1.09,10.73-3.27,2.67-2.18,4.01-5.13,4.01-8.86,0-8.21-5.98-12.31-17.94-12.31h-5.95v-8.52h5.59c10.67,0,16-3.83,16-11.5,0-7.15-4.07-10.73-12.22-10.73-4.81,0-9.41,1.62-13.79,4.87V4.15C83.13,1.53,88.57,.22,94.86,.22s10.93,1.53,14.76,4.58c3.83,3.05,5.75,7.16,5.75,12.33,0,9.17-4.66,15.01-13.97,17.54v.18c4.93,.48,8.88,2.25,11.86,5.3,2.98,3.05,4.46,6.8,4.46,11.25,0,6.49-2.35,11.62-7.05,15.37-4.7,3.76-10.83,5.63-18.37,5.63-6.82,0-12.29-1.22-16.41-3.65v-10.28Z"/>
      <path class="cls-1" d="M119.7,87.09c10.07-12.26,15.1-26.46,15.1-42.6s-5.05-30.47-15.15-43.1h9.11c10.25,12.14,15.37,26.52,15.37,43.14s-5.14,31.01-15.42,42.55h-9.02Z"/>
      <path class="cls-1" d="M152.21,58.47c4.78,3.64,10.19,5.45,16.23,5.45,4.48,0,8.05-1.09,10.73-3.27,2.67-2.18,4.01-5.13,4.01-8.86,0-8.21-5.98-12.31-17.94-12.31h-5.95v-8.52h5.59c10.67,0,16-3.83,16-11.5,0-7.15-4.07-10.73-12.22-10.73-4.81,0-9.41,1.62-13.79,4.87V4.15c4.6-2.61,10.04-3.92,16.32-3.92s10.93,1.53,14.76,4.58c3.83,3.05,5.75,7.16,5.75,12.33,0,9.17-4.66,15.01-13.97,17.54v.18c4.93,.48,8.88,2.25,11.86,5.3,2.98,3.05,4.46,6.8,4.46,11.25,0,6.49-2.35,11.62-7.05,15.37-4.7,3.76-10.83,5.63-18.37,5.63-6.82,0-12.29-1.22-16.41-3.65v-10.28Z"/>
      <path class="cls-1" d="M214.28,34.53c-8.26-3.7-12.4-9.22-12.4-16.59,0-5.32,2.06-9.6,6.18-12.85,4.12-3.25,9.21-4.87,15.28-4.87,5.68,0,10.45,1.52,14.31,4.55,3.86,3.04,5.79,7.08,5.79,12.13,0,7.69-4.36,13.55-13.07,17.58v.18c10.1,3.61,15.15,9.77,15.15,18.48,0,6.13-2.21,10.87-6.63,14.22s-10.32,5.03-17.72,5.03c-6.25,0-11.42-1.68-15.51-5.05-4.09-3.37-6.13-7.84-6.13-13.43,0-8.75,4.91-15.15,14.74-19.21v-.18Zm7.75,4.73c-8.08,3.21-12.13,7.92-12.13,14.11,0,3.24,1.2,5.85,3.61,7.82,2.4,1.97,5.47,2.95,9.2,2.95s6.62-.96,8.95-2.88c2.33-1.92,3.49-4.51,3.49-7.75,0-6.4-4.37-11.15-13.12-14.24Zm11-21.28c0-2.91-.92-5.22-2.77-6.92s-4.32-2.55-7.42-2.55-5.43,.9-7.46,2.71c-2.03,1.8-3.04,4.04-3.04,6.72,0,5.47,3.43,9.6,10.28,12.4,6.94-2.88,10.41-7,10.41-12.35Z"/>
      <path class="cls-1" d="M252.42,59.37c4.81,3.04,9.74,4.55,14.79,4.55,4.51,0,8.17-1.23,11-3.7s4.24-5.8,4.24-10.01c0-8.71-5.59-13.07-16.77-13.07-2.64,0-6.36,.22-11.13,.68V1.4h35.48V10.5h-25.96V28.67c2.61-.15,4.58-.23,5.91-.23,7.15,0,12.82,1.85,16.99,5.54,4.18,3.7,6.27,8.84,6.27,15.42,0,7-2.31,12.58-6.94,16.75-4.63,4.16-10.8,6.24-18.53,6.24-6.61,0-11.72-.98-15.33-2.93v-10.1Z"/>
      <path class="cls-1" d="M327.49,47.78h-26.6v-7.84h26.6v7.84Z"/>
      <path class="cls-1" d="M378.02,71.22h-41.11v-8.83h15.28V11.95l-15.69,4.24V6.9l26.28-6.9V62.39h15.24v8.83Z"/>
      <path class="cls-1" d="M427.48,71.22h-41.11v-8.83h15.28V11.95l-15.69,4.24V6.9l26.28-6.9V62.39h15.24v8.83Z"/>
      <path class="cls-1" d="M446.64,34.53c-8.26-3.7-12.4-9.22-12.4-16.59,0-5.32,2.06-9.6,6.18-12.85,4.12-3.25,9.21-4.87,15.28-4.87,5.68,0,10.45,1.52,14.31,4.55,3.86,3.04,5.79,7.08,5.79,12.13,0,7.69-4.36,13.55-13.07,17.58v.18c10.1,3.61,15.15,9.77,15.15,18.48,0,6.13-2.21,10.87-6.63,14.22-4.42,3.35-10.32,5.03-17.72,5.03-6.25,0-11.42-1.68-15.51-5.05-4.09-3.37-6.13-7.84-6.13-13.43,0-8.75,4.91-15.15,14.74-19.21v-.18Zm7.75,4.73c-8.08,3.21-12.13,7.92-12.13,14.11,0,3.24,1.2,5.85,3.61,7.82,2.4,1.97,5.47,2.95,9.2,2.95s6.62-.96,8.95-2.88c2.33-1.92,3.49-4.51,3.49-7.75,0-6.4-4.37-11.15-13.12-14.24Zm11-21.28c0-2.91-.92-5.22-2.77-6.92s-4.32-2.55-7.42-2.55-5.43,.9-7.46,2.71c-2.03,1.8-3.04,4.04-3.04,6.72,0,5.47,3.43,9.6,10.28,12.4,6.94-2.88,10.41-7,10.41-12.35Z"/>
      <path class="cls-1" d="M483.48,58.47c4.78,3.64,10.19,5.45,16.23,5.45,4.48,0,8.05-1.09,10.73-3.27,2.67-2.18,4.01-5.13,4.01-8.86,0-8.21-5.98-12.31-17.94-12.31h-5.95v-8.52h5.59c10.67,0,16-3.83,16-11.5,0-7.15-4.07-10.73-12.22-10.73-4.81,0-9.41,1.62-13.79,4.87V4.15c4.6-2.61,10.04-3.92,16.32-3.92s10.93,1.53,14.76,4.58c3.83,3.05,5.75,7.16,5.75,12.33,0,9.17-4.66,15.01-13.97,17.54v.18c4.93,.48,8.88,2.25,11.86,5.3,2.98,3.05,4.46,6.8,4.46,11.25,0,6.49-2.35,11.62-7.05,15.37-4.7,3.76-10.83,5.63-18.37,5.63-6.82,0-12.29-1.22-16.41-3.65v-10.28Z"/>
    </g>
  </g>
</svg>