<?xml version="1.0" encoding="UTF-8"?>
<svg id="_圖層_2" data-name="圖層 2" xmlns="http://www.w3.org/2000/svg" viewBox="0 0 670.56 71.58">
  <defs>
    <style>
      .cls-1 {
        fill: #fff;
      }
    </style>
  </defs>
  <g id="_圖層_1-2" data-name="圖層 1">
    <g>
      <path class="cls-1" d="M13.07,25.9V13.37H1.77l-.61-1.91H12.32l3.95-4.43,8.17,6.13v-4.49l7.69,3h2.38l3.34-3.81,6.26,4.7v-4.08l7.9,3.06h2.31l3.47-3.88,6.74,5.04c-.41,.54-1.02,.95-2.45,1.22v10.14c0,.27-2.04,1.36-5.45,1.5l6.26,4.7c-.41,.61-1.02,1.09-2.59,1.36v17.84c0,.34-2.72,1.77-7.29,1.77h-1.63v-2.72h-4.29v8.38h5.24l4.49-5.65s5.04,3.81,8.1,6.47c-.14,.75-.89,1.09-1.91,1.09h-15.93v10.28c0,.48-2.66,2.04-7.08,2.04h-1.57v-12.32h-15.66l-.54-1.91h16.2v-8.38h-4.15v1.57c0,.54-2.66,1.91-7.01,1.91h-1.5V26.38h-1.36V13.85c-.54,.48-1.43,.95-2.66,1.16v14.98c-.14,.41-4.49,1.84-7.22,1.84h-1.5v-4.02h-2.72c-.14,3.47-.48,8.3-.82,11.78h3.68l4.36-4.15,7.42,6.26c-.48,.54-1.36,.95-2.79,1.22-.75,16.27-2.18,22.88-5.72,25.67-2.18,1.7-4.83,2.52-8.65,2.45,0-2.45-.2-4.43-1.16-5.51-1.02-1.23-2.72-2.18-5.24-2.72v-.88c2.18,.21,5.72,.41,7.01,.41,1.02,0,1.63-.2,2.18-.61,1.63-1.43,2.66-7.76,3.27-20.22h-4.15l-2.52,3.13-7.22-3.95c.54-.54,1.23-1.09,1.97-1.57,.61-4.83,1.09-13.14,1.09-17.5l9.06,4.29h.95Zm38.26-1.36c0,.54-2.25,1.7-5.92,1.7h-1.29V13.1c-.34,.41-.95,.75-2.11,.95v10.14c0,.27-2.31,1.5-5.99,1.5h-1.29v-2.79h-3.27v1.84c0,.41-1.43,1.22-3.95,1.5l7.49,2.86h16.14l3.4-3.88v-2.31h-3.2v1.63Zm-16.61-3.54v-7.42h-3.27v7.42h3.27Zm3.74,10.01h-4.15v7.08h4.15v-7.08Zm0,8.99h-4.15v6.61h4.15v-6.61Zm12.94-1.91v-7.08h-4.29v7.08h4.29Zm0,8.51v-6.61h-4.29v6.61h4.29Zm3.13-25.6v-7.56h-3.2v7.56h3.2Z"/>
      <path class="cls-1" d="M73.19,19.77c3.34,7.97,2.79,14.09,.61,17.16-1.57,2.11-4.97,2.25-6.33,.07-1.16-1.97-.27-4.09,1.5-5.52,1.7-2.04,3.68-7.15,3.2-11.71h1.02Zm20.49,3.47c.61-3.95,1.09-8.03,1.29-11.98l10.76,2.93V7.24l12.05,1.09c-.14,.95-.54,1.57-2.18,1.84v15.39h3.88l4.63-6.4s5.24,4.29,8.31,7.22c-.2,.75-.95,1.09-1.91,1.09h-14.91v16.75h3.06l4.49-6.47s5.04,4.36,7.9,7.29c-.2,.75-.95,1.09-1.91,1.09h-13.55v21.04h4.7l4.9-6.74s5.51,4.49,8.71,7.56c-.14,.75-.95,1.09-1.91,1.09h-42.21l-.54-1.91h16.48v-21.04h-11.51l-.54-1.91h12.05V27.46h-5.86c-2.59,5.52-5.79,10.21-9.8,13.82l-.82-.48c1.36-3.61,2.59-8.04,3.54-12.8-1.29,1.16-3.4,1.29-5.17-.54,.2-2.93-.68-6.26-1.7-8.65v49.84c0,.75-3.95,2.59-7.56,2.59h-1.91V6.63l11.98,1.16c-.14,.95-.61,1.7-2.52,1.97v8.31l.48-.21c4.22,1.5,6.47,3.47,7.29,5.38Zm10.21-7.35c-.89,3.47-1.97,6.67-3.2,9.67h5.04V15.41c-.41,.34-1.02,.48-1.84,.48Z"/>
      <path class="cls-1" d="M181.77,12.46h-25.11l-1.4,9.96c1.4-.2,2.59-.2,4.19-.2,6.18,0,12.46,1.4,17.04,4.68,4.88,3.29,7.87,8.67,7.87,16.24,0,12.06-10.36,22.72-27.8,22.72-7.87,0-14.45-1.79-18.04-3.69l2.69-11.36c2.89,1.39,8.77,3.19,14.65,3.19,6.28,0,12.96-2.99,12.96-9.87s-5.28-10.76-18.24-10.76c-3.59,0-6.08,.2-8.77,.6L146.09,0h35.68V12.46Z"/>
      <path class="cls-1" d="M192.92,42.33c-.08-10.21,4.42-14.25,10.59-14.25,3.73,0,6.32,1.22,10.67,3.66,3.35,1.83,5.41,2.97,7.24,2.97s2.9-1.6,3.12-6.17h7.24c.46,10.9-4.34,14.4-10.13,14.4-3.66,0-6.55-1.37-10.67-3.66-3.35-1.98-5.41-3.2-7.24-3.2s-3.28,1.29-3.58,6.25h-7.24Z"/>
      <path class="cls-1" d="M285.69,0V9.57l-26.71,55.21h-16.04l26.71-52.12v-.2h-29.7V0h45.74Z"/>
      <path class="cls-1" d="M298,11.6l9.4,3.2c12.46-1.91,27.51-5.31,35.54-8.1l8.71,8.85c-.89,.68-2.59,.75-4.97-.21-10.01,1.02-25.74,1.43-39.01,.95v4.77h31.59l4.29-4.7,9.06,6.74c-.41,.54-1.23,1.16-2.66,1.43v8.04c-.07,.54-4.97,2.25-8.24,2.25h-1.77v-2.38h-32.27c0,12.05-.68,28.32-14.91,38.6l-.54-.41c5.58-11.3,5.79-25.74,5.79-38.13V11.6Zm56.71,30.78c-.2,.75-.95,1.09-1.91,1.09h-24.51c-.27,2.25-.54,4.49-1.09,6.67h11.57l4.77-4.36,8.17,6.67c-.48,.61-1.29,1.02-2.66,1.22-.82,8.44-2.31,12.94-5.72,14.91-2.18,1.29-4.83,1.91-8.85,1.91,0-2.59-.2-4.83-1.29-6.13s-2.93-2.31-5.72-2.93v-.75c2.38,.2,6.2,.41,7.49,.41,1.02,0,1.5-.14,1.97-.41,1.02-.75,1.77-3.75,2.31-8.65h-12.6c-2.45,7.49-8.31,14.23-23.42,18.93l-.54-.82c13.62-8.31,14.23-17.5,14.5-26.69h-7.08l-.54-1.91h18.45l-.61-.34c-.41-2.72-2.11-5.58-3.4-7.15l.41-.34c13.07-1.29,12.87,5.72,8.85,7.83h9.26l4.29-5.58s4.9,3.74,7.9,6.4Zm-14.77-11.85v-7.56h-32.27v7.56h32.27Z"/>
      <path class="cls-1" d="M385.01,38.9c0,3.4-2.72,6.13-6.13,6.13s-6.13-2.72-6.13-6.13,2.72-6.13,6.13-6.13,6.13,2.72,6.13,6.13Z"/>
      <path class="cls-1" d="M428.86,33.12c-.14,.75-.82,1.09-1.77,1.09h-8.24v3.61l.48-.14c16.14,9.33,8.71,22.67,2.45,16.27,.07-4.9-1.36-10.55-2.93-15.05v29.82c0,.68-3.54,2.31-6.67,2.31h-1.7v-24.78c-2.66,5.52-5.79,10.69-9.19,14.64l-.95-.48c1.77-6.2,3.74-15.86,4.9-24.1l5.24,1.77v-3.88h-9.06l-.54-1.91h9.6v-7.15c-.54,3.74-3.74,5.52-6.6,2.45,.34-5.17-1.02-11.37-2.52-15.86l.89-.27c5.51,3.81,7.83,8.04,8.24,11.44V6.43l10.89,1.09c-.2,.95-.68,1.7-2.52,1.91v22.88l3.61-5.04s4.08,3.47,6.4,5.86Zm0-18.72c-2.72,4.7-5.99,10.14-8.99,13.96l-1.02-.41c.75-4.49,1.91-11.98,2.79-17.97l9.87,2.93c-.27,.89-1.16,1.5-2.66,1.5Zm2.86,19.06l10.42,3.54h9.4l3.81-4.36,8.37,6.26c-.48,.54-1.36,1.16-2.79,1.43v21.04c0,5.65-1.23,8.85-10.55,9.6-.2-2.72-.48-4.7-1.43-5.99-.95-1.23-2.18-2.18-5.31-2.72v-.88s5.99,.34,7.28,.34c1.02,0,1.29-.48,1.29-1.29v-6.6h-11.57c-.61,6.47-3.4,13.34-14.71,17.77l-.48-.54c5.79-5.86,6.26-13.48,6.26-21.04v-16.54Zm33.5-18.18c-.2,.75-.95,1.09-1.91,1.09h-13.14v5.52h2.25l4.08-5.31s4.56,3.61,7.29,6.13c-.14,.75-.89,1.09-1.84,1.09h-11.78v6.47h3.81l4.43-5.79s5.04,3.88,8.03,6.61c-.2,.75-.95,1.09-1.91,1.09h-36.29l-.54-1.91h13.21v-6.47h-9.74l-.54-1.91h10.28v-5.52h-10.89l-.54-1.91h11.44V6.5l11.44,.95c-.14,.88-.54,1.5-2.18,1.77v5.24h2.72l4.36-5.72s4.97,3.88,7.97,6.54Zm-13,36.63v-5.72h-11.44v3.81l-.07,1.91h11.51Zm-11.44-7.62h11.44v-5.38h-11.44v5.38Z"/>
      <path class="cls-1" d="M532.89,21.81c-.2,.75-.89,1.09-1.84,1.09h-8.24v11.78l3.34-4.77s3.95,3.4,6.2,5.79c-.14,.75-.82,1.09-1.77,1.09h-7.76v12.05l3.34-4.77s3.95,3.4,6.2,5.79c-.14,.75-.82,1.09-1.77,1.09h-7.76v12.39l3.88-5.24s4.49,3.74,7.15,6.26c-.2,.75-.89,1.09-1.84,1.09h-20.22v3.27c0,.54-2.45,2.31-6.47,2.31h-1.36V33.66c-.82,1.22-1.7,2.38-2.66,3.47l-.34-.27v24.92c0,5.31-.95,8.1-8.78,8.85-.14-2.38-.41-4.29-1.16-5.31-.75-1.16-1.84-1.91-4.29-2.38v-.95s4.63,.27,5.65,.27,1.23-.41,1.23-1.22v-25.12l-.61,.07h-13.28l-.48-1.91h3.74v-9.06h-3.27l-.48-1.91h3.74V14.67l7.56,.82c-.14,.68-.48,1.16-1.63,1.36v5.79l1.7-2.86s1.7,1.77,3,3.4V13.03h-14.43v19.2c0,11.92,.14,27.71-8.92,38.88l-.95-.48c3.13-11.37,2.72-25.87,2.72-38.4V8.06l8.31,3.06h12.66l3.34-3.88,7.15,5.58c-.41,.48-1.29,1.02-2.52,1.29v21.24c2.79-8.85,4.09-21.11,4.29-28.8l8.37,2.11-.95-2.11,.68-.34c16.75,5.17,8.24,17.84,1.91,11.64,.14-2.31-.2-4.77-.89-7.01l-.54,.07c-.82,2.79-1.77,5.99-3.06,9.33l1.91,.75h9.53l3.81-5.24s4.36,3.61,6.88,6.06Zm-47.39,19.06h1.5l2.18-2.11,4.36,3.34c-.2,.34-.82,.68-1.57,.82v13.96c0,.48-2.31,1.5-3.81,1.5h-.75v-2.93h-2.59v3.27c0,.34-1.43,1.43-3.68,1.43h-.68v-21.38l5.04,2.11Zm1.91,1.91h-2.59v10.76h2.59v-10.76Zm6.2-9.12v-8.85c-.27,.14-.61,.2-1.02,.2h-3.68v9.06l2.04-3.4,2.66,3Zm22.2,1.22v-11.98h-4.02v11.98h4.02Zm0,14.16v-12.26h-4.02v12.26h4.02Zm0,14.5v-12.6h-4.02v12.6h4.02Z"/>
      <path class="cls-1" d="M601.04,48.91c-.2,.75-1.02,1.09-1.97,1.09h-26.01c-2.25,9.74-8.44,17.02-34.45,21.11l-.34-.88c16.61-5.86,21.92-12.26,23.69-20.22h-21.72l-.54-1.91h22.67c.34-2.38,.54-4.9,.61-7.56l13.68,1.23c-.2,.95-.89,1.7-2.52,1.84l-.68,4.49h13.21l5.04-6.47s5.79,4.36,9.33,7.29Zm.34-10.42c-.2,.75-1.02,1.09-1.97,1.09h-60.19l-.54-1.91h24.78v-7.76h-17.7l-.54-1.91h18.25v-7.69h-21.11l-.54-1.91h15.39c-.54-.21-1.02-.54-1.5-.88-.27-3.81-2.11-7.76-4.15-10.28l.48-.34c15.18,.54,14.91,9.12,10.35,11.51h10.89c1.16-3.54,2.25-8.38,2.86-11.71l12.73,2.52c-.27,.88-.95,1.5-2.59,1.5-2.59,2.31-6.81,5.31-10.76,7.69h9.74l4.9-6.2s5.58,4.15,8.92,7.01c-.2,.75-.95,1.09-1.97,1.09h-22.81v7.69h7.08l4.63-5.72s5.24,3.81,8.44,6.54c-.2,.75-.95,1.09-1.91,1.09h-18.25v7.76h12.94l5.04-6.6s5.72,4.43,9.12,7.42Zm-9.6,31.73c-4.36-5.58-12.39-11.98-18.72-15.52l.41-.54c30.91-1.22,29.21,18.93,18.31,16.07Z"/>
      <path class="cls-1" d="M632.5,67.09v-9.12h-19l-.54-1.91h19.54v-6.88l12.32,.95c-.14,.96-.54,1.63-2.45,1.91v4.02h8.31l4.63-5.99s5.17,4.02,8.31,6.81c-.2,.75-.95,1.09-1.91,1.09h-19.34v9.12h14.3l4.7-6.13s5.38,4.15,8.58,6.95c-.2,.75-.95,1.09-1.97,1.09h-62.16l-.54-1.91h27.23Zm-13.34-24.44v-4.36h-10.76l-.54-1.91h11.3v-5.86h-2.52v1.5c0,.48-2.45,2.25-6.6,2.25h-1.43V8.13l8.92,3.34h11.92l3.74-3.95,7.22,5.38-.48-1.43h16.82l4.49-4.36,7.63,7.22c-.61,.54-1.29,.75-2.72,.82-2.66,1.43-6.74,3.2-10.35,4.49,1.97,2.04,1.84,4.63,.48,6.2h2.31l4.36-4.43,7.63,7.22c-.54,.61-1.23,.82-2.66,.88-2.52,2.52-6.74,5.92-10.01,7.9l-.54-.41c.61-2.52,1.29-6.33,1.7-9.26h-2.93v14.23c0,5.58-1.29,8.99-10.48,9.67-.14-2.59-.34-4.49-1.23-5.65-.82-1.16-1.97-2.04-5.11-2.59v-.88s5.51,.34,6.74,.34c.95,0,1.23-.41,1.23-1.09v-14.03h-8.03l-.61-1.91h11.51c-1.36-3.27-4.29-6.74-6.81-8.78l.48-.48c4.43-.21,7.63,.48,9.74,1.5,1.02-1.5,2.11-3.2,2.93-4.7h-15.8c-.34,.48-1.23,.95-2.31,1.16v15.86c-.07,.34-1.91,1.29-4.02,1.91,1.5,1.09,4.29,3.2,6.2,4.9-.14,.75-.89,1.09-1.84,1.09h-11.03v3.88l11.98-.82,.07,.88c-5.65,2.31-14.03,5.11-26.96,8.99-.48,.88-1.23,1.43-1.97,1.57l-4.49-9.53c2.79-.07,7.35-.27,12.87-.61Zm-2.52-22.74h2.52v-6.54h-2.52v6.54Zm0,8.71h2.52v-6.81h-2.52v6.81Zm11.03-15.25v6.54h2.45v-6.54h-2.45Zm0,8.44v6.81h2.45v-6.81h-2.45Zm3.88,10.89h-1.43v-2.18h-2.45v5.86h1.7l3-3.74-.82,.07Z"/>
    </g>
  </g>
</svg>