<?xml version="1.0" encoding="UTF-8"?>
<svg id="_圖層_2" data-name="圖層 2" xmlns="http://www.w3.org/2000/svg" viewBox="0 0 406.4 133.31">
  <defs>
    <style>
      .cls-1 {
        fill: #fff;
      }
    </style>
  </defs>
  <g id="_圖層_1-2" data-name="圖層 1">
    <path class="cls-1" d="M39.74,21.95v6.53h7.87l4.54-6.34s5.12,4.29,8.13,7.1c-.19,.7-.9,1.02-1.86,1.02h-18.69v8.77h3.84l4.03-4.42,8.26,6.27c-.38,.51-1.22,1.09-2.56,1.41v15.68c-.06,.58-4.42,2.37-7.49,2.37h-1.6v-4.48H25.53v1.98c0,.83-3.9,2.75-7.49,2.75h-1.28v-25.09l9.28,3.52h4.61v-8.77H15.87c-.83,10.75-3.97,22.85-15.36,31.04l-.51-.38c6.34-11.97,6.78-27.2,6.78-40.06V.64l10.75,4.22h26.49L48.06,.38l8.51,6.4c-.38,.51-1.15,1.09-2.5,1.34v12.09c-.13,.45-4.8,1.92-7.74,1.92h-1.66v-3.71H16.19v2.43c0,2.37,0,4.93-.19,7.62h14.65v-9.09l11.2,.9c-.13,.83-.51,1.41-2.11,1.66Zm4.93-5.31V6.66H16.19v9.98h28.48Zm-19.13,24.19v13.25h18.69v-13.25H25.53Z"/>
    <path class="cls-1" d="M103.61,2.94v5.44h10.43l4.42-5.57s4.93,3.78,7.94,6.34c-.19,.7-.9,1.02-1.86,1.02h-20.93v5.7h6.78l4.22-5.25s4.74,3.52,7.62,6.02c-.19,.7-.9,1.02-1.79,1.02h-16.83v5.89h13.31l4.42-5.63s4.99,3.78,8.06,6.4c-.19,.7-.9,1.02-1.86,1.02h-57.85l-.51-1.79h25.15v-5.89h-16.77l-.51-1.79h17.28v-5.7h-20.61l-.51-1.79h21.12V.19l11.58,.9c-.13,.9-.51,1.54-2.3,1.86Zm-22.72,23.29l10.62,3.58h16.51l4.03-4.48,8.38,6.4c-.38,.51-1.15,1.09-2.5,1.34v18.37c0,5.31-1.54,8.32-11.58,9.09-.19-2.56-.58-4.42-1.73-5.63-1.15-1.09-2.43-2.05-6.14-2.69v-.77s7.17,.51,8.9,.51c.96,0,1.28-.51,1.28-1.28v-4.35h-19.52c-1.66,5.44-5.7,11.07-15.55,14.65l-.38-.51c6.91-6.53,7.68-15.04,7.68-22.21v-12.03Zm27.77,18.3v-5.57h-18.49c-.06,1.73-.19,3.58-.58,5.57h19.07Zm-18.49-7.36h18.49v-5.57h-18.49v5.57Z"/>
    <path class="cls-1" d="M144.19,39.36V20.29h-5.7l-.51-1.79h6.21V1.41l11.33,.96c-.13,.9-.58,1.54-2.37,1.86v14.14l3.39-6.14s2.5,2.75,4.54,5.25l8.06,3.2h3.78v-7.68h-14.65l-.51-1.79h15.17V.83l10.62,1.02c-.06,.7-.45,1.22-1.79,1.47v7.87h5.18l1.22-1.6c-.38-.19-.77-.38-1.22-.7-.06-2.5-1.41-5.25-2.88-6.72l.45-.38c8.7-.26,10.5,3.39,9.28,5.89,1.66,1.28,3.78,2.94,5.31,4.29-.19,.7-.9,1.02-1.79,1.02h-15.55v7.68h4.42l4.1-4.67,8.58,6.59c-.51,.58-1.41,1.22-2.88,1.54v27.01c0,5.89-1.09,9.02-9.73,9.73-.06-2.88-.19-4.99-.7-6.27-.51-1.28-1.22-2.24-3.26-2.69v-.83s2.75,.19,3.65,.19c.77,0,.96-.45,.96-1.09v-6.02h-5.12v12.93c0,.83-3.9,3.01-7.04,3.01h-1.79v-15.93h-4.67v14.33c0,.58-2.69,2.62-7.17,2.62h-1.66v-24.13c-3.71,3.07-9.41,7.42-17.21,12.54-.32,.9-1.02,1.66-1.86,1.92l-3.78-10.43,7.62-1.66Zm15.23-19.07h-6.27v16.89l6.27-1.66v-15.23Zm8.83,2.18v8.96h4.67v-8.96h-4.67Zm0,10.75v9.15h4.67v-9.15h-4.67Zm13.5-1.79h5.12v-8.96h-5.12v8.96Zm0,10.94h5.12v-9.15h-5.12v9.15Z"/>
    <path class="cls-1" d="M267.39,14.01c-.19,.7-.9,1.02-1.86,1.02h-58.62l-.51-1.79h34.43c1.47-3.97,2.94-9.21,3.78-12.86l12.54,3.01c-.19,.83-.9,1.34-2.43,1.34-2.82,2.43-7.55,5.82-11.78,8.51h10.56l4.93-6.4s5.63,4.29,8.96,7.17Zm-56.12,4.35l10.05,3.39h4.61l3.84-4.35,8,6.21c-.38,.51-1.22,1.09-2.56,1.34v26.75c0,5.5-1.15,8.51-9.6,9.22-.06-2.62-.26-4.54-.9-5.82-.58-1.15-1.41-2.11-3.65-2.56v-.83s3.33,.26,4.48,.26c.83,0,1.02-.45,1.02-1.09v-7.36h-6.85c-.77,6.4-3.33,12.8-12.1,17.41l-.51-.45c4.1-6.33,4.16-14.65,4.16-22.85V18.37Zm13.5-6.85c-.64-3.84-2.88-7.81-5.06-10.43l.38-.32c20.73,.38,13.18,16.51,4.67,10.75Zm1.79,30.21v-8.64h-6.59v4.54c0,1.34,0,2.69-.13,4.1h6.72Zm-6.59-10.43h6.59v-7.74h-6.59v7.74Zm27.9-8.51v23.68c0,.58-3.65,1.92-6.85,1.92h-1.47V20.03l10.69,.96c-.13,.83-.58,1.54-2.37,1.79Zm13.38-2.24v30.85c0,5.82-1.34,8.96-11.01,9.73-.19-2.69-.58-4.61-1.66-5.95-1.09-1.22-2.43-2.18-5.95-2.82v-.77s7.17,.38,8.58,.38c.96,0,1.28-.26,1.28-1.02V17.85l11.01,.96c-.13,.96-.77,1.54-2.24,1.73Z"/>
    <path class="cls-1" d="M295.93,33.6v25.28c-.13,.58-3.97,2.24-7.55,2.24h-1.73v-23.61c-3.58,2.37-7.3,4.29-11.07,5.82l-.51-.64c5.76-5.31,12.42-14.46,16.32-24.06l11.58,4.86c-.32,.77-1.22,1.34-2.75,1.15-1.79,2.37-3.65,4.54-5.63,6.46l3.33,1.22c-.19,.64-.77,1.02-1.98,1.28Zm11.07-24.13c-.19,.7-.9,1.02-1.79,1.02h-9.86v6.08c0,.51-4.22,1.92-7.55,1.92h-1.66V10.5h-10.11l-.51-1.79h10.62V1.02l10.75,.9c-.06,.58-.38,1.02-1.54,1.22v5.57h.38l4.03-5.76s4.61,3.9,7.23,6.53Zm8,12.86v10.56h6.14l4.61-6.59s5.25,4.42,8.26,7.36c-.19,.7-.9,1.02-1.86,1.02h-17.15v14.08c0,1.15,.51,1.54,2.3,1.54h5.18c1.6,0,3.14,0,3.97-.06,.9-.06,1.47-.26,1.98-.9,.83-1.22,2.11-4.35,3.46-8.19h.64l.26,8.51c2.37,1.09,3.01,2.11,3.01,3.78,0,3.84-3.33,5.57-14.33,5.57h-6.21c-7.36,0-9.34-1.54-9.34-7.81V19.65l11.26,1.02c-.06,.83-.64,1.47-2.18,1.66Zm21.63-12.86c-.13,.7-.83,1.02-1.73,1.02h-11.84v6.21c0,.51-4.29,1.86-7.55,1.86h-1.73V10.5h-5.7l-.51-1.79h6.21V1.09l10.82,.9c-.06,.58-.38,1.02-1.54,1.22v5.5h2.3l4.03-5.76s4.61,3.9,7.23,6.53Z"/>
    <path class="cls-1" d="M348.8,60.99h-1.54V.83l9.86,3.9h34.88l4.29-4.74,8.19,6.59c-.45,.58-1.22,1.09-2.56,1.41V57.85c-.06,.7-4.35,2.82-7.81,2.82h-1.47v-5.25h-36.29v2.11c0,1.22-3.65,3.46-7.55,3.46Zm28.8-50.24v3.39h3.39l3.46-4.16s3.9,2.82,6.34,4.93c-.13,.7-.77,1.02-1.66,1.02h-2.18c.83,.58,3.58,2.62,5.7,4.42V6.53h-36.29V44.6c4.8-2.3,8.83-5.7,11.58-9.28h-.38c-.58,.7-3.46,1.86-6.02,1.86h-1.02v-14.4l7.68,2.94h11.84l3.2-3.26,6.59,4.8c-.26,.38-.83,.77-1.73,.96v6.53c0,.19-.64,.51-1.54,.83l5.38,4.8c-.32,.45-.96,.64-2.18,.19-1.02,.32-2.62,.64-4.29,.96,9.41,5.25,4.67,12.99-.51,9.92-.9-1.98-2.94-4.86-5.89-7.81l.19,.77c-2.24,1.6-6.72,4.8-11.65,7.87-.32,.58-.77,1.02-1.22,1.34h26.24V21.76c-.26,.13-.64,.19-1.02,.19h-34.49l-.51-1.79h12.86v-4.22h-10.24l-.51-1.79h10.75v-5.7l9.92,.83c-.06,.7-.45,1.22-1.79,1.47Zm-12.8,32.25c-2.56,1.09-5.31,1.98-8.19,2.69l-.26-.51v8.45h9.47l-3.46-5.44c2.11-1.34,2.43-1.92,2.43-3.01v-2.18Zm3.07-15.49v6.02h12.67v-6.02h-12.67Zm13.76,12.35c1.09-1.22,2.18-2.56,3.07-3.71-.96,.19-1.98,.38-2.82,.38h-1.34v-1.22h-3.9c-1.34,1.47-2.88,2.82-4.74,4.03v6.08l7.17-1.79c-1.6-1.66-3.46-3.33-5.5-4.8l.45-.77c3.01,.45,5.5,1.09,7.62,1.79Zm-4.03-23.93v4.22h5.5l3.46-4.22h-8.96Z"/>
    <path class="cls-1" d="M10.75,122.49h-1.34v-26.56l9.79,3.71h23.17l3.9-4.29H1.41l-.51-1.79H47.1l4.86-6.02s5.44,4.03,8.83,6.78c-.19,.7-.96,1.02-1.92,1.02h-12.16l8.26,6.21c-.45,.51-1.22,1.09-2.56,1.34v16.06c-.06,.45-4.8,1.98-7.81,1.98h-1.6v-2.18H18.69v.83c0,.83-4.16,2.88-7.94,2.88Zm16,4.29c-5.95,3.39-15.93,5.76-25.66,6.53l-.19-.7c7.87-3.01,15.87-8.64,19.65-13.18l10.43,6.66c-.64,.77-1.92,1.15-4.22,.7Zm32.13-46.08c-.19,.7-.9,1.02-1.86,1.02h-11.84v8.64c0,.58-4.03,1.79-7.74,1.79h-1.54v-2.88h-10.82v1.66c0,.58-3.97,1.79-7.55,1.79h-1.54v-11.01H4.29l-.51-1.79H16v-7.62l11.46,.96c-.13,.83-.58,1.54-2.37,1.79v4.86h10.82v-7.62l11.58,.96c-.06,.83-.51,1.54-2.3,1.79v4.86h.64l4.61-5.76s5.25,3.84,8.45,6.53Zm-32.7,20.74h-7.49v6.78h7.49v-6.78Zm-7.49,8.58v6.98h7.49v-6.98h-7.49Zm17.21-28.29h-10.82v5.76h10.82v-5.76Zm11.71,49.79c-2.37-2.82-6.98-6.78-14.65-9.34l.19-.64c39.68-.19,22.59,16.83,14.46,9.98Zm-4.61-23.29v-6.78h-7.74v6.78h7.74Zm-7.74,8.77h7.74v-6.98h-7.74v6.98Z"/>
    <path class="cls-1" d="M83.97,95.68h18.3l4.29-5.44s4.8,3.65,7.74,6.21c-.19,.7-.9,1.02-1.79,1.02h-9.41v9.15h9.54l4.61-6.08s5.31,4.1,8.45,6.85c-.19,.7-.9,1.02-1.86,1.02h-20.73v20.48h11.33l5.12-6.66s5.82,4.42,9.28,7.42c-.19,.7-.96,1.02-1.92,1.02h-56.38l-.51-1.79h23.42v-20.48h-19.65l-.51-1.79h20.16v-9.15h-9.34l-.45-1.6c-4.86,3.2-10.05,5.89-15.04,7.74l-.38-.64c10.94-7.55,22.4-21.5,24.77-30.85l13.89,3.65c-.26,.96-1.15,1.34-3.52,1.6,5.89,7.87,18.3,11.26,27.33,13.18l-.06,1.02c-4.16,1.22-6.85,5.7-7.49,9.47-9.02-4.93-17.21-11.97-20.73-22.91-3.97,6.27-10.75,12.48-18.43,17.54Zm-2.88,28.48c.32-4.61-.64-9.28-1.98-13.12l.58-.26c18.88,6.53,8.7,20.99,1.41,13.38Zm40.25-9.6c-.26,.83-1.15,1.34-2.62,1.28-3.78,4.1-8.32,8.13-12.35,10.82l-.7-.45c1.09-3.84,2.62-10.3,3.78-15.87l11.9,4.22Z"/>
    <path class="cls-1" d="M141.06,97.47c-.38-3.33-2.18-6.85-3.84-9.15l.45-.32c18.05,1.09,10.69,14.72,3.39,9.47Zm2.37,14.33q1.34-2.5,12.35-29.82l.96,.26c-2.11,8.13-5.63,23.1-6.34,26.88-.45,2.3-.9,4.74-.83,6.46,.13,3.71,3.07,5.82,2.88,11.84-.06,3.39-2.5,5.76-6.02,5.76-1.6,0-3.39-.77-4.03-3.39,1.34-6.78,1.09-13.38-.45-14.4-.9-.64-1.98-.96-3.39-1.09v-1.15h2.88c1.02,0,1.28,0,1.98-1.34Zm2.62-28.41c-.51-3.65-2.43-7.42-4.16-10.05l.45-.32c19.2,1.54,11.46,16,3.71,10.37Zm51.84-1.92c-.19,.7-.9,1.02-1.79,1.02h-27.84c-.9,1.34-1.86,2.69-2.88,3.97l5.25,2.56h12.22l4.48-4.48,7.3,6.46c-.51,.58-1.41,1.02-2.88,1.28l-.32,10.3,2.24-3.84s3.71,3.9,5.57,6.4c-.13,.7-.77,1.02-1.66,1.02h-6.27c-.19,4.67-.51,8.45-.83,11.52l2.43-4.16s3.52,3.65,5.38,5.95c-.19,.7-.83,1.02-1.66,1.02h-6.46c-.83,5.44-2.05,8.13-3.84,9.86-2.3,2.24-5.31,2.75-9.02,2.75,0-2.24-.13-3.9-.9-4.99-.9-1.28-2.18-1.98-4.48-2.62v-.77c1.79,.13,4.42,.26,5.7,.26,.96,0,1.6-.26,2.18-.77,.64-.58,1.15-1.79,1.66-3.71h-16.51l-2.88,3.71-7.81-4.29c.51-.51,1.28-1.09,2.05-1.54,.7-3.2,1.41-7.55,2.05-12.22h-5.57l-.51-1.79h6.27c.58-4.1,1.09-8.32,1.47-12.16-1.92,1.79-3.9,3.33-6.08,4.67l-.51-.45c4.16-5.7,7.62-15.81,8.96-24l11.78,3.2c-.26,.7-.77,1.02-2.43,.83-.7,1.41-1.47,2.82-2.37,4.22h16.38l4.35-6.02s4.93,4.03,7.81,6.78Zm-14.91,24.7h-16.25c-.7,4.54-1.34,9.09-1.98,12.54h17.02c.51-2.88,.9-7.04,1.22-12.54Zm.58-15.36h-14.85c-.38,3.58-1.02,8.51-1.73,13.57h16.13c.19-3.84,.32-8.38,.45-13.57Zm-10.69,25.66c-.06-3.14-1.6-6.72-3.26-8.96l.58-.32c15.42,2.62,8.64,14.14,2.69,9.28Zm1.02-14.53c-.45-2.94-2.24-6.34-3.71-8.51l.58-.32c14.91,2.18,8.96,13.12,3.14,8.83Z"/>
    <path class="cls-1" d="M241.85,75.01v11.71h9.66v-11.71l11.65,.96c-.13,.83-.58,1.54-2.37,1.79v11.9c0,.13-.13,.19-.45,.38,1.66,1.34,4.29,3.58,6.08,5.31-.19,.7-.9,1.02-1.79,1.02h-42.36v9.66c0,8.38-1.28,19.97-15.55,26.69l-.38-.45c5.95-7.68,6.46-17.66,6.46-26.24v-15.04l10.82,3.58h30.85l2.69-3.65c-1.28,.19-2.69,.38-4.1,.38h-1.54v-2.82h-28.16l-2.69,3.9-9.15-4.48c.64-.77,1.54-1.6,2.43-2.24v-10.82l11.46,1.09c-.13,.96-.64,1.6-2.37,1.86v8.9h9.6v-14.4l11.52,.83c-.13,.9-.58,1.54-2.3,1.86Zm21.05,28.48c-.19,.7-.9,1.02-1.79,1.02h-14.46v10.43h8l4.29-5.89s4.8,3.97,7.62,6.66c-.19,.7-.9,1.02-1.79,1.02h-18.11v14.33c0,.45-2.88,1.98-7.81,1.98h-1.79v-16.32h-14.33l-.51-1.79h14.85v-10.43h-11.71l-.51-1.79h26.49l4.1-5.7s4.74,3.84,7.49,6.46Z"/>
    <path class="cls-1" d="M312.83,75.33c-.26,.77-.83,1.28-2.56,1.28-1.22,3.39-2.62,6.91-4.35,10.5h7.42l3.14-3.46,7.42,5.44c-.51,.58-1.09,.83-2.3,.96l-1.66,6.91,2.5-2.82,7.17,5.31c-.51,.58-1.02,.77-2.24,.96l-1.34,7.17,3.52-3.33,7.42,6.14c-.51,.51-1.28,.96-2.62,1.15-.96,11.84-2.69,17.21-6.21,19.58-2.18,1.47-4.8,2.11-8.32,2.11,0-2.37-.19-4.42-1.02-5.5-.96-1.28-2.37-2.11-4.74-2.69v-.77c1.92,.19,5.06,.32,6.27,.32,.96,0,1.47-.13,2.05-.51,1.41-1.09,2.62-5.76,3.39-14.02h-35.84c-4.22,4.16-9.09,7.94-14.85,11.01l-.58-.58c9.79-8.38,16.89-20.16,21.5-31.61h-15.87l-.58-1.79h17.21c2.05-5.31,3.58-10.5,4.61-15.23l11.46,3.46Zm-25.34,38.21c4.42,8.96,2.05,15.36-1.73,17.41-2.62,1.47-5.89,.51-6.85-2.3-.83-2.75,.83-4.8,3.14-5.89,2.5-1.34,5.06-4.93,4.67-9.15l.77-.06Zm.06-29.37c-.38-3.97-2.37-8.13-4.54-10.88l.45-.32c20.16,1.73,12.16,17.21,4.1,11.2Zm32.13,15.17h-20.8c-2.11,3.07-4.48,6.08-7.17,8.96h26.24l1.73-8.96Zm-27.01,27.26c1.34-4.29,1.6-8.96,1.02-12.73l.7-.19c14.46,8.9,3.78,20.67-1.73,12.93Zm20.86-37.69h-8.51c-1.41,2.88-3.07,5.82-4.93,8.64h11.26l2.18-8.64Zm-8.58,35.39c0-3.78-1.54-8-3.26-10.88l.58-.32c17.15,4.1,9.28,17.09,2.69,11.2Zm10.69-3.65c-.58-3.07-2.82-6.46-4.99-8.32l.45-.38c16.83-.51,11.52,12.86,4.54,8.7Z"/>
    <path class="cls-1" d="M382.72,106.94v-31.61l8.19,3.07h3.71l4.03-3.97,7.74,7.04c-.45,.64-1.28,.9-2.82,.9-2.37,4.22-6.27,11.26-9.86,15.55,8.06,4.42,11.39,11.01,11.39,16.64,0,6.72-2.75,10.56-10.75,10.69,0-2.18-.32-5.38-.96-6.33-.51-.77-1.41-1.34-2.88-1.73v13.7c0,.58-2.37,2.43-6.4,2.43h-1.41v-12.03c-.19,.06-.45,.13-.77,.13h-5.5v9.34c0,.58-2.94,1.79-5.25,1.79h-1.34v-11.14h-3.07l-1.6,1.79-5.31-2.94c.38-.38,1.02-.9,1.6-1.22,.7-3.14,1.54-7.87,1.86-10.82h-1.02l-.19-.58h-.06c-1.79,10.24-6.21,19.84-17.6,25.47l-.51-.83c4.54-3.58,7.49-8.19,9.28-13.44-.83,.32-1.92,.19-3.01-.51-.13-1.09-.58-2.3-1.22-3.33-1.41,1.92-3.01,3.52-4.67,4.93l-.9-.51c2.75-5.31,4.86-13.06,5.63-20.8l8.64,2.05c-.26,.83-.96,1.41-2.43,1.47l-1.02,2.94h1.09l3.2-3.33,5.57,4.67h5.76v-6.66l8.19,.77c-.13,.64-.45,1.09-1.6,1.28v4.61h.13l2.3-3.33s2.37,2.11,3.84,3.84Zm-.58-20.86c-.19,.7-.83,1.02-1.73,1.02h-12.74v1.47c16.64-.9,14.33,13.25,7.42,9.79-1.73-2.43-4.35-5.82-7.42-8.26v9.79c0,.64-3.46,2.11-6.53,2.11h-1.34v-9.86l-.45-.06c-2.69,2.18-6.46,4.67-10.3,6.53-1.34,.64-2.69,1.28-4.03,1.73l-.51-.45c2.62-3.07,5.76-8.38,7.23-12.48l8.06,3.33v-3.65h-14.21l-.51-1.79h14.72v-12.86l10.18,.9c-.13,.83-.58,1.47-2.3,1.73v10.24h4.8l3.39-4.29s3.84,2.94,6.27,5.06Zm-30.27-2.43c-.51-3.2-2.62-6.78-4.61-8.9l.51-.38c16.57,1.09,10.75,13.69,4.1,9.28Zm2.75,30.53c.51-2.37,.9-4.8,1.15-7.29h-2.24c-.83,2.05-1.86,3.97-2.94,5.7,1.98,.26,3.26,.83,4.03,1.6Zm15.23,5.44v-11.39h-1.02c-.45,3.14-1.34,7.94-2.05,11.39h3.07Zm8.19-41.34c-2.75,1.98-5.95,4.16-8.58,5.5l-.83-.45c.9-2.37,2.05-6.33,3.14-9.92l8.83,3.71c-.32,.77-1.15,1.28-2.56,1.15Zm4.67,41.21v-11.9c-.19,.45-.64,.64-1.34,.64h-4.93v11.39h.26l2.43-3.71s1.98,1.86,3.58,3.58Zm7.81-3.14h4.42c.64,0,.96-.13,1.34-.38,.9-.58,1.41-1.6,1.41-3.71,0-4.8-1.6-9.86-5.57-14.14,1.09-4.48,2.43-12.54,3.07-17.92h-4.67v36.16Z"/>
  </g>
</svg>