<?xml version="1.0" encoding="UTF-8"?>
<svg id="_圖層_2" data-name="圖層 2" xmlns="http://www.w3.org/2000/svg" viewBox="0 0 703.38 139.35">
  <defs>
    <style>
      .cls-1 {
        fill: #fff100;
      }
    </style>
  </defs>
  <g id="_圖層_1-2" data-name="圖層 1">
    <g>
      <path class="cls-1" d="M237.7,2.97v5.49h10.53l4.46-5.62s4.97,3.81,8.01,6.4c-.19,.71-.9,1.03-1.87,1.03h-21.13v5.75h6.85l4.26-5.3s4.78,3.55,7.69,6.07c-.19,.71-.9,1.03-1.81,1.03h-16.99v5.94h13.44l4.46-5.69s5.04,3.81,8.14,6.46c-.19,.71-.9,1.03-1.87,1.03h-58.4l-.52-1.81h25.39v-5.94h-16.93l-.52-1.81h17.44v-5.75h-20.8l-.52-1.81h21.32V.19l11.69,.9c-.13,.9-.52,1.55-2.33,1.87Zm-22.94,23.52l10.72,3.62h16.67l4.07-4.52,8.46,6.46c-.39,.52-1.16,1.1-2.52,1.36v18.54c0,5.36-1.55,8.4-11.69,9.17-.19-2.58-.58-4.46-1.74-5.68-1.16-1.1-2.45-2.07-6.2-2.71v-.78s7.24,.52,8.98,.52c.97,0,1.29-.52,1.29-1.29v-4.39h-19.7c-1.68,5.49-5.75,11.18-15.7,14.79l-.39-.52c6.98-6.59,7.75-15.18,7.75-22.42v-12.15Zm28.04,18.48v-5.62h-18.67c-.06,1.74-.19,3.62-.58,5.62h19.25Zm-18.67-7.43h18.67v-5.62h-18.67v5.62Z"/>
      <path class="cls-1" d="M273.81,39.73V20.48h-5.75l-.52-1.81h6.27V1.42l11.44,.97c-.13,.91-.58,1.55-2.39,1.87v14.28l3.42-6.2s2.52,2.78,4.59,5.3l8.14,3.23h3.81v-7.75h-14.79l-.52-1.81h15.31V.84l10.72,1.03c-.06,.71-.45,1.23-1.81,1.49v7.95h5.23l1.23-1.62c-.39-.19-.78-.39-1.23-.71-.06-2.52-1.42-5.3-2.91-6.78l.45-.39c8.79-.26,10.6,3.42,9.37,5.94,1.68,1.29,3.81,2.97,5.36,4.33-.19,.71-.9,1.03-1.81,1.03h-15.7v7.75h4.46l4.13-4.72,8.66,6.65c-.52,.58-1.42,1.23-2.91,1.55v27.26c0,5.94-1.1,9.11-9.82,9.82-.06-2.91-.19-5.04-.71-6.33s-1.23-2.26-3.29-2.71v-.84s2.78,.19,3.68,.19c.78,0,.97-.45,.97-1.1v-6.07h-5.17v13.05c0,.84-3.94,3.04-7.11,3.04h-1.81v-16.09h-4.72v14.47c0,.58-2.71,2.65-7.24,2.65h-1.68v-24.36c-3.75,3.1-9.5,7.49-17.38,12.66-.32,.9-1.03,1.68-1.87,1.94l-3.81-10.53,7.69-1.68Zm15.38-19.25h-6.33v17.06l6.33-1.68v-15.38Zm8.92,2.2v9.04h4.72v-9.04h-4.72Zm0,10.85v9.24h4.72v-9.24h-4.72Zm13.63-1.81h5.17v-9.04h-5.17v9.04Zm0,11.05h5.17v-9.24h-5.17v9.24Z"/>
      <path class="cls-1" d="M354.89,8.4l.97,.71-.26,10.53v20.61c0,3.94,.06,8.08,.13,12.15l8.66,1.16v2h-28.75v-2l9.24-1.16,.13-12.15V14.08l-7.62,.71v-2.39l17.51-4.01Z"/>
      <path class="cls-1" d="M390.74,3.62h4.46l-19.58,63.64h-4.52L390.74,3.62Z"/>
      <path class="cls-1" d="M400.69,49.75c3.55-3.88,7.3-7.56,10.47-10.85,7.37-7.56,10.27-11.95,10.27-18.67,0-6.07-3.04-9.88-8.01-9.88-.78,0-1.62,.06-2.46,.26l-1.42,6.4c-.71,4.39-2.84,5.43-4.85,5.43-1.87,0-3.42-1.03-4.2-2.71,.58-7.49,7.88-11.56,16.54-11.56,10.21,0,14.92,5.36,14.92,12.66,0,6.72-5.49,12.6-17.83,20.67-2.2,1.55-5.04,3.81-8.01,6.14h26.94v7.95h-32.37v-5.81Z"/>
      <path class="cls-1" d="M460.7,4c-.26,.84-1.1,1.36-2.58,1.36-1.87,4.97-4.07,9.5-6.46,13.57l3.36,1.23c-.19,.65-.71,1.03-2,1.29V59.11c-.13,.65-3.81,2.58-7.36,2.58h-1.68V29.4c-2,2.26-4.2,4.26-6.46,6.14l-.71-.45c4.46-8.59,9.11-22.22,11.31-34.76l12.6,3.68Zm-.45,22.74l-1.62,.13h-1.23V9.24l9.3,3.49h1.68V7.69h-9.95l-.52-1.81h28.23l4.72-5.88s5.36,3.94,8.66,6.65c-.19,.71-.97,1.03-1.87,1.03h-11.82v5.04h1.74l3.81-4.07,7.95,5.88c-.26,.39-.9,.84-2,1.1v8.21c-.06,.45-3.1,1.42-5.81,1.81l5.23,3.94c-.32,.45-1.03,1.03-2.26,1.29v18.03c-.06,.52-4.01,2.07-6.98,2.26,21.38,3.1,7.75,14.99,1.68,8.79-1.62-2.65-4.91-6.27-10.66-8.79l.26-.71c2.45,.06,4.59,.19,6.53,.39v-2.65h-16.28v.9l.26-.32,10.53,5.75c-.58,.77-1.81,1.23-4.01,.9-4.78,2.84-13.37,5.17-21.19,6.2l-.26-.65c5.04-2.65,10.34-6.91,13.57-10.53-1.42,.78-3.94,1.68-6.4,1.68h-1.29V26.75Zm5.94-2.46c0,.32-.84,.91-2.07,1.42l5.3,2.07h15.25l3.49-3.75h-21.97v.26Zm2.2-9.75h-2.2v7.69h2.2v-7.69Zm16.93,19.32v-4.26h-16.28v4.26h16.28Zm-16.28,6.2h16.28v-4.39h-16.28v4.39Zm16.28,6.33v-4.52h-16.28v4.52h16.28Zm-9.37-33.66h2.33V7.69h-2.33v5.04Zm2.33,9.5v-7.69h-2.33v7.69h2.33Zm9.88,0v-7.69h-2.33v7.69h2.33Z"/>
      <path class="cls-1" d="M0,78.81l9.3,3.68H46.13l4.07-4.52,7.95,6.33c-.45,.58-1.29,1.1-2.58,1.42v50.26c-.13,.65-4.13,2.71-7.43,2.71h-1.36v-4.33H8.59v1.68c0,1.1-3.49,3.23-7.17,3.23H0v-60.47Zm46.77,5.49H8.59v48.26H46.77v-48.26Zm-12.34,37.86v-2.13h-13.44l8.59,4.91c-.52,.71-1.62,1.03-3.62,.71-3.62,2.33-9.76,4.39-16.02,5.36l-.32-.78c3.55-2,7.17-5.23,9.5-8.14-1.23,.58-3.04,1.1-4.78,1.1h-1.1v-25.71l2.26,.9v-12.6l7.82,2.97h8.53l3.29-3.49,6.98,5.1c-.32,.45-1.03,.9-2.07,1.1v5.69c0,.19-.65,.45-1.55,.78l5.75,4.33c-.32,.45-1.03,.91-2.07,1.1v17.12c-.06,.45-3.36,1.74-5.81,1.87,17.06,2.52,5.36,12.47,.26,7.11-1.23-2.26-3.75-4.97-8.14-6.85l.26-.78c2.13,0,4.01,.13,5.69,.32Zm-11.44-25.58v1.03c0,.45-2.07,1.55-4.46,2l2.65,1.03h12.66l1.87-2c-.65,.13-1.36,.19-1.94,.19h-1.36v-2.26h-9.43Zm11.44,5.88h-13.57v3.94h13.57v-3.94Zm-13.57,5.75v4.07h13.57v-4.07h-13.57Zm0,5.88v4.13h13.57v-4.13h-13.57Zm11.56-23.52h-9.43v4.2h9.43v-4.2Z"/>
      <path class="cls-1" d="M65.51,103.23c-.19-3.62-1.87-7.62-3.75-10.21l.52-.32c17.96,2.58,10.27,16.15,3.23,10.53Zm2.13,14.47q1.42-2.39,11.95-26.23l.97,.19c-2,7.17-5.36,20.35-6.07,23.71-.45,2.13-.9,4.46-.84,6.14,.19,3.68,3.1,5.81,2.91,11.82-.13,3.42-2.65,5.75-6.07,5.75-1.55,0-3.36-.91-4.01-3.42,1.36-6.85,1.1-13.37-.45-14.41-.9-.65-1.94-.97-3.36-1.1v-1.16h2.91c1.03,0,1.29,0,2.07-1.29Zm2.91-28.1c-.52-3.81-2.58-7.95-4.39-10.79l.52-.32c18.8,2.65,11.31,16.67,3.88,11.11Zm8.92,8.92l8.46,3.36h7.82v-7.04h-1.1v2.13c0,.52-3.55,1.74-6.78,1.74h-1.42v-11.5h-7.17l-.52-1.81h7.69v-7.62l10.6,.9c-.13,.91-.65,1.55-2.39,1.81v4.91h10.21v-7.69l10.66,.9c-.13,.9-.58,1.55-2.39,1.81v4.97h.19l3.62-5.36s4.07,3.68,6.33,6.14c-.19,.71-.84,1.03-1.74,1.03h-8.4v9.11c0,.52-3.62,1.74-6.85,1.74h-1.42v-3.23h-1.16v7.04h8.66l3.55-4.01,7.56,5.75c-.32,.45-1.03,.9-2.13,1.16v24.87c0,5.62-1.16,8.72-9.88,9.5-.13-2.71-.39-4.78-1.16-6.01-.78-1.29-1.87-2.13-4.52-2.71v-.84s4.91,.26,6.01,.26c.9,0,1.16-.39,1.16-1.16v-6.33c-.52,1.23-.84,2.58-.97,3.88-1.68-1.81-3.04-5.43-3.62-8.27-.9,2.33-2.58,4.91-4.65,6.91v11.95c0,.45-2.39,2.07-6.46,2.07h-1.49v-15.89c-.39,1.03-.65,2.2-.78,3.23-1.42-1.74-2.52-5.17-2.97-8.01-.78,2.58-2.52,5.36-4.59,7.3v11.05c0,.91-3.29,2.78-6.72,2.78h-1.23v-40.83Zm12.02,7.88l3.81,2.84c-.45,.58-1.49,1.1-2.97,1.29v.71c.45,2.91,1.62,5.04,3.42,6.78v-14.34h-8.33v19.96c1.62-3.42,3.04-8.4,3.42-12.47v-.71h-2.97l-.32-1.81h2.46l1.49-2.26Zm13.37-13.37v-5.81h-10.21v5.81h10.21Zm2.84,13.31l4.01,2.91c-.52,.58-1.62,1.1-3.1,1.29v.58c.65,2.97,2.13,5.04,4.33,6.85v-14.28h-9.24v4.97h2.52l1.49-2.33Zm-4.01,15.83c1.49-3.36,2.84-7.62,3.36-11.11v-.58h-3.36v11.69Z"/>
      <path class="cls-1" d="M156.27,78.62l9.5,6.85c-1.36,1.62-4.91,2.52-9.24,2.91v1.74c1.87,19.51,12.28,31.53,31.46,39.54l-.19,.65c-4.65,.71-7.56,3.68-9.24,8.92-7.36-4.46-16.41-16.09-19.77-27.65-5.1,11.31-16.99,22.16-32.04,27.52l-.32-.52c14.02-7.95,26.75-28.56,28.1-49.04l-.06-3.36h-15.18l-.52-1.81h13.89l3.62-5.75Z"/>
      <path class="cls-1" d="M216.22,134.18v-19.77h-17.57l-.52-1.81h18.09v-16.47h-20.42l-.52-1.81h39.99l5.1-6.53s5.81,4.33,9.3,7.3c-.19,.71-.97,1.03-1.94,1.03h-21.19v16.47h6.78l4.97-6.33s5.62,4.2,8.98,7.11c-.13,.71-.9,1.03-1.87,1.03h-18.86v19.77h10.79l5.3-6.72s5.94,4.46,9.56,7.5c-.19,.71-.97,1.03-1.94,1.03h-58.73l-.52-1.81h25.2Zm2.91-42.06c-1.68-4.91-5.56-10.08-9.24-13.31l.39-.39c24.74,.06,18.74,19.06,8.85,13.7Z"/>
      <path class="cls-1" d="M317.26,102.59c-.32,.84-.97,1.23-2.65,1.16-1.94,5.75-4.13,10.72-6.78,15.05,.9,2.46,2.07,4.78,3.42,6.78,.65,1.1,1.03,1.03,1.68-.06,.97-1.68,2.52-4.91,3.68-7.69l.65,.13-1.55,11.56c1.81,4.72,2.26,7.62,.78,8.59-4.07,2.52-9.3-1.49-11.18-4.59-1.29-2.2-2.46-4.52-3.42-6.91-4.65,4.97-10.34,8.79-17.44,11.76l-.52-.9c6.65-4.52,11.82-9.95,15.83-16.99-1.36-4.52-2.2-9.37-2.78-14.34-.39,.19-.9,.39-1.49,.45-.26,12.86-.78,18.41-3.55,20.67-1.68,1.29-3.81,1.68-6.4,1.74,0-1.68-.19-3.42-.84-4.39-.58-.91-1.62-1.81-3.1-2.39-2.26,6.27-6.65,12.27-14.99,16.67l-.52-.52c5.94-6.72,8.2-14.73,9.04-22.68-3.29,2.97-7.95,6.85-14.21,11.44-.26,.9-.97,1.68-1.81,1.94l-4.33-10.34,6.53-1.55v-19.19h-5.04l-.52-1.81h5.56v-17.25l11.11,.97c-.13,.91-.58,1.55-2.39,1.81v12.99l2.46-4.46,3.1,3.55v-5.23l9.76,3.36h10.66c-.13-4.26-.19-8.66-.19-13.18l10.79,1.1c0,.32-.13,.65-.39,.97,11.76-.13,10.72,6.98,6.53,8.27,1.42,1.1,3.1,2.46,4.39,3.62-.19,.71-.84,1.03-1.81,1.03h-11.11c.06,4.78,.32,9.5,.97,13.89,.84-2.58,1.62-5.43,2.26-8.4l9.82,3.36Zm-47.23,12.34l5.3-1.49c.19-2.71,.26-5.36,.26-8.01v-7.43h-5.56v16.93Zm14.02-9.5c0,4.85-.26,10.4-2.13,15.89l3.42,.13c.45,0,.71-.06,.97-.39,.9-1.16,1.23-5.75,1.36-15.76h-3.62v.13Zm3.04-1.94l3.94-3.81,5.75,4.72c-.32-3.42-.58-6.98-.71-10.66h-12.02v9.75h3.04Zm21.26-15.12c-.45-2.46-1.94-5.17-3.23-6.91l-.84,.19c-.06,3.36-.13,6.85-.13,10.27h1.62l2.71-3.49-.13-.06Z"/>
      <path class="cls-1" d="M330.18,122.16c-2.33,3.62-6.59,3.62-8.85,1.1-1.87-2.26-1.36-5.04,.65-7.04,3.17-2.84,6.53-10.4,6.33-18.99l.71-.06c5.88,11.95,4.59,20.22,1.16,25Zm15.25-29.65v32.17c0,1.55,.84,2,3.29,2h7.3c2.2,0,4.2-.07,5.43-.13,1.1-.06,1.81-.32,2.39-1.1,1.03-1.42,2.39-4.85,4.07-9.63h.65l.26,10.01c2.71,1.1,3.49,2.2,3.49,4,0,4.26-3.68,6.33-17.25,6.33h-7.75c-8.4,0-11.24-1.42-11.24-8.59v-37.92l11.63,1.1c-.06,.84-.65,1.55-2.26,1.74Zm9.3,4.91c-1.1-6.33-4.72-13.18-8.53-18.09l.52-.39c25,6.4,17.38,25.65,8.01,18.48Zm17.57,25.97c-.06-6.66-1.42-16.73-6.4-24.16l.52-.45c26.88,14.92,12.92,34.43,5.88,24.62Z"/>
      <path class="cls-1" d="M429.47,82.88c-1.1,2.71-2.39,5.23-3.68,7.62h8.08l4.85-4.91,7.82,6.98c-.52,.65-1.36,1.1-2.91,1.36-.45,27.13-1.23,37.6-5.04,41.54-2.52,2.52-5.49,3.62-10.34,3.62,0-3.04-.39-5.17-1.55-6.46-1.23-1.42-3.62-2.58-6.98-3.29l.06-.78c3.1,.26,7.49,.52,9.17,.52,1.1,0,1.74-.26,2.39-.84,2.33-2.07,2.91-13.95,3.29-35.92h-9.95c-3.36,5.56-7.3,10.08-11.82,13.63l-.39-.26v26.17c-.06,.58-4.26,2.39-7.3,2.39h-1.42v-5.1h-7.95v4.46c0,.97-3.29,2.97-7.04,2.97h-1.36v-49.36l8.14,3.36c.32-3.62,.65-8.72,.78-12.4l12.47,2.97c-.32,1.16-1.23,1.62-2.78,1.62-1.94,2.26-4.85,5.56-7.17,8.01h4.26l4.01-4.46,7.95,6.27c-.45,.58-1.29,1.1-2.58,1.42v10.79c3.04-6.85,6.14-17.25,7.56-26.75l12.02,3.49c-.26,.84-1.1,1.36-2.58,1.36Zm-33.66,9.69v16.02h7.95v-16.02h-7.95Zm0,34.76h7.95v-16.93h-7.95v16.93Zm25.07-10.08c-.13-4.65-2-9.69-4.26-13.31l.52-.32c20.42,4.72,11.69,20.54,3.75,13.63Z"/>
      <path class="cls-1" d="M475.53,97.48v39.41c0,.71-4.01,2.33-7.37,2.33h-1.81v-19.58h-2.46c-.65,7.43-3.29,14.6-13.11,19.38l-.65-.84c4.85-5.81,5.23-12.15,5.3-18.54h-3.75l-.58-1.81h15.25v-7.24h-4.13l-2.58,3.68-8.53-4.26c.58-.71,1.55-1.55,2.45-2.2v-12.08l10.08,.97c-.13,.78-.58,1.29-1.81,1.49v10.59h4.52v-13.96l11.24,1.03c-.13,.78-.52,1.42-2.07,1.62Zm5.75-10.66c-.13,.71-.84,1.03-1.74,1.03h-8.72v4.59c0,.52-4.26,1.87-7.49,1.87h-1.68v-6.46h-10.85l-.52-1.81h11.37v-8.21l10.72,.91c-.13,.58-.39,1.03-1.55,1.23v6.07h.13l3.75-5.68s4.26,3.88,6.59,6.46Zm14.47,10.85v11.69h1.49l4.59-6.4s5.23,4.33,8.27,7.17c-.19,.71-.9,1.03-1.87,1.03h-12.47v22.22h1.36l4.39-6.07s4.97,4.07,7.88,6.85c-.19,.71-.9,1.03-1.81,1.03h-30.95l-.52-1.81h10.08v-22.22h-9.76l-.52-1.81h10.27v-14.41l11.69,.97c-.13,.9-.52,1.49-2.13,1.74Zm14.86-10.85c-.19,.71-.9,1.03-1.81,1.03h-11.95v4.26c0,.52-4.26,1.87-7.56,1.87h-1.68v-6.14h-5.1l-.52-1.81h5.62v-8.21l10.79,.91c-.13,.58-.39,1.03-1.55,1.23v6.07h2.52l4.01-5.75s4.59,3.94,7.24,6.53Z"/>
      <path class="cls-1" d="M518.81,139.09h-1.55v-60.73l9.95,3.94h35.21l4.33-4.78,8.27,6.65c-.45,.58-1.23,1.1-2.58,1.42v50.33c-.06,.71-4.39,2.84-7.88,2.84h-1.49v-5.3h-36.63v2.13c0,1.23-3.68,3.49-7.62,3.49Zm29.07-50.72v3.42h3.42l3.49-4.2s3.94,2.84,6.4,4.97c-.13,.71-.78,1.03-1.68,1.03h-2.2c.84,.58,3.62,2.65,5.75,4.46v-13.95h-36.63v38.44c4.85-2.33,8.92-5.75,11.69-9.37h-.39c-.58,.71-3.49,1.87-6.07,1.87h-1.03v-14.54l7.75,2.97h11.95l3.23-3.29,6.65,4.85c-.26,.39-.84,.78-1.74,.97v6.59c0,.19-.65,.52-1.55,.84l5.43,4.84c-.32,.45-.97,.65-2.2,.19-1.03,.32-2.65,.65-4.33,.97,9.5,5.3,4.72,13.12-.52,10.01-.9-2-2.97-4.91-5.94-7.88l.19,.78c-2.26,1.62-6.78,4.85-11.76,7.95-.32,.58-.78,1.03-1.23,1.36h26.49v-32.17c-.26,.13-.65,.19-1.03,.19h-34.82l-.52-1.81h12.99v-4.26h-10.34l-.52-1.81h10.85v-5.75l10.01,.84c-.06,.71-.45,1.23-1.81,1.49Zm-12.92,32.56c-2.58,1.1-5.36,2-8.27,2.71l-.26-.52v8.53h9.56l-3.49-5.49c2.13-1.36,2.45-1.94,2.45-3.04v-2.2Zm3.1-15.63v6.07h12.79v-6.07h-12.79Zm13.89,12.47c1.1-1.23,2.2-2.58,3.1-3.75-.97,.19-2,.39-2.84,.39h-1.36v-1.23h-3.94c-1.36,1.49-2.91,2.84-4.78,4.07v6.14l7.24-1.81c-1.62-1.68-3.49-3.36-5.56-4.85l.45-.77c3.04,.45,5.56,1.1,7.69,1.81Zm-4.07-24.16v4.26h5.56l3.49-4.26h-9.04Z"/>
      <path class="cls-1" d="M586.58,105.82v-16.54l8.92,3.42h27.13l3.81-4.07,7.88,5.88c-.39,.45-1.1,.97-2.33,1.23v8.59c-.06,.58-4.26,2.26-7.17,2.26h-1.55v-1.94h-28.3v.52c0,.71-3.81,2.52-7.24,2.52h-.45l.52,1.49h40.44l4.39-4.39,7.49,7.17c-.52,.58-1.1,.71-2.45,.84-2.39,1.81-6.27,4.39-9.3,6.01l.32,.26c-.58,.65-1.55,.9-3.23,1.03-8.14,10.98-20.74,17.31-43.03,19.06l-.32-.78c8.59-2.26,15.83-5.17,21.71-8.98-1.03,.13-2.13,0-3.36-.65-.45-1.87-1.62-3.88-2.91-5.43-4.01,2.46-8.72,4.59-13.83,6.01l-.45-.52c7.17-4.78,12.99-12.08,15.57-17.83h-10.66c.78,4.65-.65,8.01-2.97,9.43-2.26,1.42-5.81,.52-6.78-2.46-.78-2.78,.9-4.91,3.29-5.94,1.81-1.16,4.13-3.94,3.81-6.78h.78l.26,.58Zm19.45-26.1v9.95c0,.45-3.49,1.55-6.33,1.55h-1.36v-5.43h-18.8l-.58-1.81h19.38v-6.53l9.5,.84c-.13,.65-.52,1.23-1.81,1.42Zm-11.05,14.79v8.33h4.13v-8.33h-4.13Zm11.95,32.63c3.29-2.52,6.01-5.43,8.2-8.72h-10.85c-1.03,.9-2.13,1.74-3.29,2.58,6.01,.45,7.17,3.81,5.94,6.14Zm-.71-10.53h9.43l4.46-4.39,7.37,5.88c.45-2.07,.97-4.85,1.29-7.11h-27.2l9.88,2.07c-.26,.84-1.03,1.36-3.23,1.42l-2,2.13Zm.45-22.09v8.33h4.46v-8.33h-4.46Zm13.18-14.79v4.26h8.79l4.07-5.81s4.65,3.94,7.3,6.59c-.19,.71-.9,1.03-1.81,1.03h-18.35v3.29c0,.45-3.49,1.55-6.33,1.55h-1.42v-13.18l9.56,.84c-.06,.65-.45,1.23-1.81,1.42Zm-1.1,23.13h4.52v-8.33h-4.52v8.33Z"/>
      <path class="cls-1" d="M673.85,89.6c-.19,.71-.84,1.03-1.74,1.03h-8.92v4.65c16.54,3.55,8.85,16.34,2.13,10.66-.06-2.71-.97-5.68-2.13-8.14v16.99c0,.71-3.94,2.46-7.24,2.46h-1.62v-12.02c-2.97,3.68-6.65,6.98-10.98,9.75l-.65-.65c4.78-6.2,7.75-15.12,9.24-23.71h-7.69l-.52-1.81h10.6v-11.11l10.98,1.03c-.13,.77-.58,1.36-2.13,1.62v8.08l3.68-5.43s4.46,3.94,6.98,6.59Zm-22.55,45.81c-2.52,1.49-6.01,.45-6.98-2.58-.84-2.91,.9-5.04,3.36-6.14,2.13-1.29,4.39-4.52,3.94-8.08l.71-.06c4.46,8.53,2.58,14.86-1.03,16.86Zm16.54-15.44v8.21c0,.84,.26,1.1,2.33,1.1h7.43c2.07,0,4.26,0,5.36-.06,1.1-.07,1.55-.26,2.13-.91,.84-1.1,2-3.29,3.68-7.04h.58l.19,7.17c2.65,.97,3.29,2,3.29,3.62,0,3.88-3.55,5.04-16.41,5.04h-7.95c-8.08,0-10.01-1.29-10.01-7.17v-12.4l11.44,.84c-.13,.84-.71,1.42-2.07,1.62Zm6.01-3.94v-36.12l9.04,3.55h8.01l4.07-4.52,8.4,6.4c-.45,.52-1.23,1.1-2.58,1.42v27.07c-.06,.52-4.59,2.26-7.69,2.26h-1.55v-4.13h-8.92v1.62c0,.9-3.62,2.84-7.3,2.91,13.31,4.46,5.81,16.02-.9,10.34-.13-3.94-1.81-8.14-3.75-11.05l.52-.32,2.65,.58Zm17.7-30.75h-8.92v7.04h8.92v-7.04Zm0,8.85h-8.92v6.85h8.92v-6.85Zm0,8.66h-8.92v7.37h8.92v-7.37Zm3.04,29.91c-.06-5.1-2.26-10.72-5.23-14.54l.52-.32c21.32,4.91,12.86,21.84,4.72,14.86Z"/>
    </g>
  </g>
</svg>