<?xml version="1.0" encoding="UTF-8"?>
<svg id="_圖層_2" data-name="圖層 2" xmlns="http://www.w3.org/2000/svg" viewBox="0 0 1010.34 80.99">
  <defs>
    <style>
      .cls-1 {
        fill: #fff;
      }
    </style>
  </defs>
  <g id="_圖層_1-2" data-name="圖層 1">
    <g>
      <path class="cls-1" d="M52.39,29.11v8.61h10.38l5.99-8.35s6.75,5.65,10.71,9.37c-.25,.93-1.18,1.35-2.45,1.35h-24.63v11.56h5.06l5.32-5.82,10.88,8.27c-.51,.67-1.6,1.43-3.37,1.86v20.67c-.08,.76-5.82,3.12-9.87,3.12h-2.11v-5.91h-24.63v2.62c0,1.1-5.15,3.63-9.87,3.63h-1.69V46.99l12.23,4.64h6.07v-11.56H20.92c-1.1,14.17-5.23,30.12-20.25,40.92l-.67-.51c8.35-15.78,8.94-35.86,8.94-52.81V1.01l14.17,5.57H58.04L63.36,.67l11.22,8.44c-.51,.68-1.52,1.43-3.29,1.77v15.95c-.17,.59-6.33,2.53-10.21,2.53h-2.19v-4.89H21.34v3.21c0,3.12,0,6.5-.25,10.04h19.32v-11.98l14.76,1.18c-.17,1.1-.67,1.86-2.78,2.19Zm6.5-7V8.94H21.34v13.16H58.89Zm-25.23,31.89v17.46h24.63v-17.46h-24.63Z"/>
      <path class="cls-1" d="M130.27,4.05v7.17h13.75l5.82-7.34s6.5,4.98,10.46,8.35c-.25,.93-1.18,1.35-2.45,1.35h-27.59v7.51h8.94l5.57-6.92s6.24,4.64,10.04,7.93c-.25,.93-1.18,1.35-2.36,1.35h-22.19v7.76h17.55l5.82-7.42s6.58,4.98,10.63,8.44c-.25,.93-1.18,1.35-2.45,1.35H85.55l-.67-2.36h33.16v-7.76h-22.1l-.67-2.36h22.78v-7.51h-27.17l-.67-2.36h27.84V.42l15.27,1.18c-.17,1.18-.67,2.02-3.04,2.45Zm-29.95,30.71l14,4.72h21.77l5.32-5.91,11.05,8.44c-.51,.67-1.52,1.43-3.29,1.77v24.21c0,7-2.02,10.97-15.27,11.98-.25-3.38-.76-5.82-2.28-7.42-1.52-1.43-3.21-2.7-8.1-3.54v-1.01s9.45,.67,11.73,.67c1.27,0,1.69-.67,1.69-1.69v-5.74h-25.73c-2.19,7.17-7.51,14.59-20.5,19.32l-.51-.67c9.11-8.61,10.12-19.83,10.12-29.27v-15.86Zm36.61,24.13v-7.34h-24.38c-.08,2.28-.25,4.72-.76,7.34h25.14Zm-24.38-9.7h24.38v-7.34h-24.38v7.34Z"/>
      <path class="cls-1" d="M177.43,52.05V26.91h-7.51l-.67-2.36h8.18V2.03l14.93,1.27c-.17,1.18-.76,2.02-3.12,2.45V24.38l4.47-8.1s3.29,3.63,5.99,6.92l10.63,4.22h4.98v-10.12h-19.32l-.67-2.36h19.99V1.27l14,1.35c-.08,.93-.59,1.6-2.36,1.94V14.93h6.83l1.6-2.11c-.51-.25-1.01-.51-1.6-.93-.08-3.29-1.86-6.92-3.8-8.86l.59-.51c11.47-.34,13.84,4.47,12.23,7.76,2.19,1.69,4.98,3.88,7,5.65-.25,.93-1.18,1.35-2.36,1.35h-20.5v10.12h5.82l5.4-6.16,11.31,8.69c-.67,.76-1.86,1.6-3.8,2.02v35.6c0,7.76-1.43,11.9-12.82,12.82-.08-3.8-.25-6.58-.93-8.27s-1.6-2.95-4.3-3.54v-1.1s3.63,.25,4.81,.25c1.01,0,1.27-.59,1.27-1.43v-7.93h-6.75v17.04c0,1.1-5.15,3.97-9.28,3.97h-2.36v-21.01h-6.16v18.9c0,.76-3.54,3.46-9.45,3.46h-2.19v-31.81c-4.89,4.05-12.4,9.79-22.69,16.54-.42,1.18-1.35,2.19-2.45,2.53l-4.98-13.75,10.04-2.19Zm20.08-25.14h-8.27v22.27l8.27-2.19V26.91Zm11.64,2.87v11.81h6.16v-11.81h-6.16Zm0,14.17v12.06h6.16v-12.06h-6.16Zm17.8-2.36h6.75v-11.81h-6.75v11.81Zm0,14.43h6.75v-12.06h-6.75v12.06Z"/>
      <path class="cls-1" d="M333.52,18.65c-.25,.93-1.18,1.35-2.45,1.35h-77.28l-.67-2.36h45.39c1.94-5.23,3.88-12.15,4.98-16.96l16.54,3.97c-.25,1.1-1.18,1.77-3.21,1.77-3.71,3.21-9.96,7.68-15.52,11.22h13.92l6.5-8.44s7.42,5.65,11.81,9.45Zm-73.99,5.74l13.25,4.47h6.07l5.06-5.74,10.55,8.18c-.51,.67-1.6,1.43-3.37,1.77v35.27c0,7.25-1.52,11.22-12.65,12.15-.08-3.46-.34-5.99-1.18-7.68-.76-1.52-1.86-2.78-4.81-3.37v-1.1s4.39,.34,5.91,.34c1.1,0,1.35-.59,1.35-1.43v-9.7h-9.03c-1.01,8.44-4.39,16.87-15.95,22.95l-.68-.59c5.4-8.35,5.48-19.32,5.48-30.12V24.38Zm17.8-9.03c-.84-5.06-3.8-10.29-6.66-13.75l.51-.42c27.33,.51,17.38,21.77,6.16,14.17Zm2.36,39.82v-11.39h-8.69v5.99c0,1.77,0,3.54-.17,5.4h8.86Zm-8.69-13.75h8.69v-10.21h-8.69v10.21Zm36.78-11.22v31.22c0,.76-4.81,2.53-9.03,2.53h-1.94V26.58l14.09,1.27c-.17,1.1-.76,2.03-3.12,2.36Zm17.63-2.95v40.67c0,7.68-1.77,11.81-14.51,12.82-.25-3.54-.76-6.07-2.19-7.85-1.43-1.6-3.21-2.87-7.85-3.71v-1.01s9.45,.51,11.31,.51c1.27,0,1.69-.34,1.69-1.35V23.71l14.51,1.27c-.17,1.27-1.01,2.02-2.95,2.28Z"/>
      <path class="cls-1" d="M364.82,44.46v33.32c-.17,.76-5.23,2.95-9.96,2.95h-2.28v-31.13c-4.72,3.12-9.62,5.65-14.6,7.68l-.67-.84c7.59-7,16.37-19.07,21.51-31.72l15.27,6.41c-.42,1.01-1.6,1.77-3.63,1.52-2.36,3.12-4.81,5.99-7.42,8.52l4.39,1.6c-.25,.84-1.01,1.35-2.62,1.69Zm14.6-31.81c-.25,.93-1.18,1.35-2.36,1.35h-12.99v8.01c0,.67-5.57,2.53-9.96,2.53h-2.19V14h-13.33l-.67-2.36h14V1.52l14.17,1.18c-.08,.76-.51,1.35-2.02,1.6v7.34h.51l5.32-7.59s6.07,5.15,9.53,8.61Zm10.55,16.96v13.92h8.1l6.07-8.69s6.92,5.82,10.88,9.7c-.25,.93-1.18,1.35-2.45,1.35h-22.61v18.56c0,1.52,.67,2.02,3.04,2.02h6.83c2.11,0,4.13,0,5.23-.08,1.18-.08,1.94-.34,2.62-1.18,1.1-1.6,2.78-5.74,4.56-10.8h.84l.34,11.22c3.12,1.43,3.97,2.78,3.97,4.98,0,5.06-4.39,7.34-18.9,7.34h-8.18c-9.7,0-12.32-2.02-12.32-10.29V26.07l14.85,1.35c-.08,1.1-.84,1.94-2.87,2.19Zm28.52-16.96c-.17,.93-1.1,1.35-2.28,1.35h-15.61v8.18c0,.67-5.65,2.45-9.96,2.45h-2.28V14h-7.51l-.67-2.36h8.18V1.6l14.26,1.18c-.08,.76-.51,1.35-2.02,1.6v7.25h3.04l5.32-7.59s6.07,5.15,9.53,8.61Z"/>
      <path class="cls-1" d="M428.19,80.57h-2.02V1.27l12.99,5.15h45.98l5.65-6.24,10.8,8.69c-.59,.76-1.6,1.43-3.37,1.86V76.44c-.08,.93-5.74,3.71-10.29,3.71h-1.94v-6.92h-47.84v2.78c0,1.6-4.81,4.56-9.96,4.56ZM466.15,14.34v4.47h4.47l4.56-5.48s5.15,3.71,8.35,6.5c-.17,.93-1.01,1.35-2.19,1.35h-2.87c1.1,.76,4.72,3.46,7.51,5.82V8.77h-47.84V58.97c6.33-3.04,11.64-7.51,15.27-12.23h-.51c-.76,.93-4.56,2.45-7.93,2.45h-1.35V30.2l10.12,3.88h15.61l4.22-4.3,8.69,6.33c-.34,.51-1.1,1.01-2.28,1.27v8.61c0,.25-.84,.67-2.02,1.1l7.09,6.33c-.42,.59-1.27,.84-2.87,.25-1.35,.42-3.46,.84-5.65,1.27,12.4,6.92,6.16,17.13-.67,13.08-1.18-2.62-3.88-6.41-7.76-10.29l.25,1.01c-2.95,2.11-8.86,6.33-15.35,10.38-.42,.76-1.01,1.35-1.6,1.77h34.59V28.85c-.34,.17-.84,.25-1.35,.25h-45.47l-.67-2.36h16.96v-5.57h-13.5l-.67-2.36h14.17v-7.51l13.08,1.1c-.08,.93-.59,1.6-2.36,1.94Zm-16.87,42.52c-3.37,1.43-7,2.62-10.8,3.54l-.34-.67v11.14h12.49l-4.56-7.17c2.78-1.77,3.21-2.53,3.21-3.96v-2.87Zm4.05-20.42v7.93h16.7v-7.93h-16.7Zm18.14,16.28c1.43-1.6,2.87-3.37,4.05-4.89-1.27,.25-2.62,.51-3.71,.51h-1.77v-1.6h-5.15c-1.77,1.94-3.8,3.71-6.24,5.31v8.01l9.45-2.36c-2.11-2.19-4.56-4.39-7.26-6.33l.59-1.01c3.97,.59,7.26,1.43,10.04,2.36Zm-5.32-31.55v5.57h7.26l4.56-5.57h-11.81Z"/>
      <path class="cls-1" d="M520.4,66.73h-1.77V31.72l12.91,4.89h30.54l5.15-5.65h-59.14l-.67-2.36h60.91l6.41-7.93s7.17,5.32,11.64,8.94c-.25,.93-1.27,1.35-2.53,1.35h-16.03l10.88,8.18c-.59,.67-1.6,1.43-3.37,1.77v21.18c-.08,.59-6.33,2.62-10.29,2.62h-2.11v-2.87h-32.06v1.1c0,1.1-5.48,3.8-10.46,3.8Zm21.09,5.65c-7.85,4.47-21.01,7.59-33.83,8.61l-.25-.93c10.38-3.96,20.92-11.39,25.9-17.38l13.75,8.77c-.84,1.01-2.53,1.52-5.57,.93Zm42.35-60.74c-.25,.93-1.18,1.35-2.45,1.35h-15.61v11.39c0,.76-5.32,2.36-10.21,2.36h-2.02v-3.8h-14.26v2.19c0,.76-5.23,2.36-9.96,2.36h-2.02V12.99h-15.44l-.67-2.36h16.11V.59l15.1,1.27c-.17,1.1-.76,2.02-3.12,2.36v6.41h14.26V.59l15.27,1.27c-.08,1.1-.67,2.02-3.04,2.36v6.41h.84l6.07-7.59s6.92,5.06,11.14,8.61Zm-43.11,27.33h-9.87v8.94h9.87v-8.94Zm-9.87,11.3v9.2h9.87v-9.2h-9.87Zm22.69-37.29h-14.26v7.59h14.26v-7.59Zm15.44,65.64c-3.12-3.71-9.2-8.94-19.32-12.32l.25-.84c52.31-.25,29.78,22.19,19.07,13.16Zm-6.07-30.71v-8.94h-10.21v8.94h10.21Zm-10.21,11.56h10.21v-9.2h-10.21v9.2Z"/>
      <path class="cls-1" d="M610.6,31.38h24.13l5.65-7.17s6.33,4.81,10.21,8.18c-.25,.93-1.18,1.35-2.36,1.35h-12.4v12.06h12.57l6.07-8.01s7,5.4,11.14,9.03c-.25,.93-1.18,1.35-2.45,1.35h-27.33v27h14.93l6.75-8.77s7.68,5.82,12.23,9.79c-.25,.93-1.27,1.35-2.53,1.35h-74.33l-.67-2.36h30.88v-27h-25.9l-.67-2.36h26.58v-12.06h-12.32l-.59-2.11c-6.41,4.22-13.25,7.76-19.83,10.21l-.51-.84c14.43-9.96,29.53-28.35,32.65-40.66l18.31,4.81c-.34,1.27-1.52,1.77-4.64,2.11,7.76,10.38,24.13,14.85,36.02,17.38l-.08,1.35c-5.48,1.6-9.03,7.51-9.87,12.49-11.9-6.5-22.69-15.78-27.33-30.2-5.23,8.27-14.17,16.45-24.3,23.12Zm-3.8,37.54c.42-6.07-.84-12.23-2.62-17.29l.76-.34c24.89,8.61,11.47,27.67,1.86,17.63Zm53.07-12.65c-.34,1.1-1.52,1.77-3.46,1.69-4.98,5.4-10.97,10.71-16.28,14.26l-.93-.59c1.43-5.06,3.46-13.58,4.98-20.92l15.69,5.57Z"/>
      <path class="cls-1" d="M679.53,33.75c-.51-4.39-2.87-9.03-5.06-12.06l.59-.42c23.79,1.43,14.09,19.4,4.47,12.49Zm3.12,18.9q1.77-3.29,16.28-39.31l1.27,.34c-2.78,10.71-7.42,30.46-8.35,35.43-.59,3.04-1.18,6.24-1.1,8.52,.17,4.89,4.05,7.68,3.8,15.61-.08,4.47-3.29,7.59-7.93,7.59-2.11,0-4.47-1.01-5.32-4.47,1.77-8.94,1.43-17.63-.59-18.98-1.18-.84-2.62-1.27-4.47-1.43v-1.52h3.8c1.35,0,1.69,0,2.62-1.77Zm3.46-37.46c-.67-4.81-3.21-9.79-5.48-13.25l.59-.42c25.31,2.03,15.1,21.09,4.89,13.67Zm68.34-2.53c-.25,.93-1.18,1.35-2.36,1.35h-36.7c-1.18,1.77-2.45,3.54-3.8,5.23l6.92,3.38h16.11l5.91-5.91,9.62,8.52c-.67,.76-1.86,1.35-3.8,1.69l-.42,13.58,2.95-5.06s4.89,5.15,7.34,8.44c-.17,.93-1.01,1.35-2.19,1.35h-8.27c-.25,6.16-.67,11.14-1.1,15.19l3.21-5.48s4.64,4.81,7.09,7.85c-.25,.93-1.1,1.35-2.19,1.35h-8.52c-1.1,7.17-2.7,10.71-5.06,12.99-3.04,2.95-7,3.63-11.9,3.63,0-2.95-.17-5.15-1.18-6.58-1.18-1.69-2.87-2.62-5.91-3.46v-1.01c2.36,.17,5.82,.34,7.51,.34,1.27,0,2.11-.34,2.87-1.01,.84-.76,1.52-2.36,2.19-4.89h-21.77l-3.8,4.89-10.29-5.65c.67-.67,1.69-1.43,2.7-2.03,.93-4.22,1.86-9.96,2.7-16.11h-7.34l-.67-2.36h8.27c.76-5.4,1.43-10.97,1.94-16.03-2.53,2.36-5.15,4.39-8.01,6.16l-.67-.59c5.48-7.51,10.04-20.84,11.81-31.64l15.52,4.22c-.34,.93-1.01,1.35-3.21,1.1-.93,1.86-1.94,3.71-3.12,5.57h21.6l5.74-7.93s6.5,5.32,10.29,8.94Zm-19.66,32.57h-21.43c-.93,5.99-1.77,11.98-2.62,16.54h22.44c.67-3.8,1.18-9.28,1.6-16.54Zm.76-20.25h-19.57c-.51,4.72-1.35,11.22-2.28,17.89h21.26c.25-5.06,.42-11.05,.59-17.89Zm-14.09,33.83c-.08-4.13-2.11-8.86-4.3-11.81l.76-.42c20.33,3.46,11.39,18.64,3.54,12.23Zm1.35-19.15c-.59-3.88-2.95-8.35-4.89-11.22l.76-.42c19.66,2.87,11.81,17.29,4.13,11.64Z"/>
      <path class="cls-1" d="M806.08,4.13v15.44h12.74V4.13l15.35,1.27c-.17,1.1-.76,2.03-3.12,2.36v15.69c0,.17-.17,.25-.59,.51,2.19,1.77,5.65,4.72,8.01,7-.25,.93-1.18,1.35-2.36,1.35h-55.85v12.74c0,11.05-1.69,26.32-20.5,35.18l-.51-.59c7.85-10.12,8.52-23.29,8.52-34.59V25.23l14.26,4.72h40.66l3.54-4.81c-1.69,.25-3.54,.51-5.4,.51h-2.02v-3.71h-37.12l-3.54,5.15-12.06-5.91c.84-1.01,2.02-2.11,3.21-2.95V3.97l15.1,1.43c-.17,1.27-.84,2.11-3.12,2.45v11.73h12.65V.59l15.19,1.1c-.17,1.18-.76,2.02-3.04,2.45Zm27.76,37.54c-.25,.93-1.18,1.35-2.36,1.35h-19.07v13.75h10.55l5.65-7.76s6.33,5.23,10.04,8.77c-.25,.93-1.18,1.35-2.36,1.35h-23.88v18.9c0,.59-3.8,2.62-10.29,2.62h-2.36v-21.51h-18.9l-.67-2.36h19.57v-13.75h-15.44l-.67-2.36h34.93l5.4-7.51s6.24,5.06,9.87,8.52Z"/>
      <path class="cls-1" d="M893.32,4.56c-.34,1.01-1.1,1.69-3.37,1.69-1.6,4.47-3.46,9.11-5.74,13.84h9.79l4.13-4.56,9.79,7.17c-.67,.76-1.43,1.1-3.04,1.27l-2.19,9.11,3.29-3.71,9.45,7c-.67,.76-1.35,1.01-2.95,1.27l-1.77,9.45,4.64-4.39,9.79,8.1c-.67,.68-1.69,1.27-3.46,1.52-1.27,15.61-3.54,22.7-8.18,25.82-2.87,1.94-6.33,2.78-10.97,2.78,0-3.12-.25-5.82-1.35-7.26-1.27-1.69-3.12-2.78-6.24-3.54v-1.01c2.53,.25,6.66,.42,8.27,.42,1.27,0,1.94-.17,2.7-.67,1.86-1.43,3.46-7.59,4.47-18.48h-47.24c-5.57,5.48-11.98,10.46-19.57,14.51l-.76-.76c12.91-11.05,22.27-26.58,28.35-41.68h-20.92l-.76-2.36h22.69c2.7-7,4.72-13.84,6.07-20.08l15.1,4.56Zm-33.41,50.37c5.82,11.81,2.7,20.25-2.28,22.95-3.46,1.94-7.76,.67-9.03-3.04-1.1-3.63,1.1-6.33,4.13-7.76,3.29-1.77,6.66-6.5,6.16-12.06l1.01-.08Zm.08-38.72c-.51-5.23-3.12-10.71-5.99-14.34l.59-.42c26.58,2.28,16.03,22.69,5.4,14.76Zm42.35,20h-27.42c-2.78,4.05-5.91,8.01-9.45,11.81h34.59l2.28-11.81Zm-35.6,35.94c1.77-5.65,2.11-11.81,1.35-16.79l.93-.25c19.07,11.73,4.98,27.25-2.28,17.04Zm27.5-49.69h-11.22c-1.86,3.8-4.05,7.68-6.5,11.39h14.85l2.87-11.39Zm-11.31,46.65c0-4.98-2.02-10.55-4.3-14.34l.76-.42c22.61,5.4,12.23,22.53,3.54,14.76Zm14.09-4.81c-.76-4.05-3.71-8.52-6.58-10.97l.59-.51c22.19-.67,15.19,16.96,5.99,11.47Z"/>
      <path class="cls-1" d="M979.13,46.23V4.56l10.8,4.05h4.89l5.32-5.23,10.21,9.28c-.59,.84-1.69,1.18-3.71,1.18-3.12,5.57-8.27,14.85-12.99,20.5,10.63,5.82,15.02,14.51,15.02,21.94,0,8.86-3.63,13.92-14.17,14.09,0-2.87-.42-7.09-1.27-8.35-.67-1.01-1.86-1.77-3.8-2.28v18.05c0,.76-3.12,3.21-8.44,3.21h-1.86v-15.86c-.25,.08-.59,.17-1.01,.17h-7.26v12.32c0,.76-3.88,2.36-6.92,2.36h-1.77v-14.68h-4.05l-2.11,2.36-7-3.88c.51-.51,1.35-1.18,2.11-1.6,.93-4.13,2.02-10.38,2.45-14.26h-1.35l-.25-.76h-.08c-2.36,13.5-8.18,26.15-23.2,33.58l-.67-1.1c5.99-4.72,9.87-10.8,12.23-17.72-1.1,.42-2.53,.25-3.97-.67-.17-1.43-.76-3.04-1.6-4.39-1.86,2.53-3.97,4.64-6.16,6.5l-1.18-.67c3.63-7,6.41-17.21,7.42-27.42l11.39,2.7c-.34,1.1-1.27,1.86-3.21,1.94l-1.35,3.88h1.43l4.22-4.39,7.34,6.16h7.59v-8.77l10.8,1.01c-.17,.84-.59,1.43-2.11,1.69v6.07h.17l3.04-4.39s3.12,2.78,5.06,5.06Zm-.76-27.5c-.25,.93-1.1,1.35-2.28,1.35h-16.79v1.94c21.94-1.18,18.9,17.46,9.79,12.91-2.28-3.21-5.74-7.68-9.79-10.88v12.91c0,.84-4.56,2.78-8.61,2.78h-1.77v-12.99l-.59-.08c-3.54,2.87-8.52,6.16-13.58,8.61-1.77,.84-3.54,1.69-5.32,2.28l-.67-.59c3.46-4.05,7.59-11.05,9.53-16.45l10.63,4.39v-4.81h-18.73l-.67-2.36h19.4V.76l13.41,1.18c-.17,1.1-.76,1.94-3.04,2.28v13.5h6.33l4.47-5.65s5.06,3.88,8.27,6.67Zm-39.91-3.21c-.67-4.22-3.46-8.94-6.07-11.73l.67-.51c21.85,1.43,14.17,18.05,5.4,12.23Zm3.63,40.24c.67-3.12,1.18-6.33,1.52-9.62h-2.95c-1.1,2.7-2.45,5.23-3.88,7.51,2.62,.34,4.3,1.1,5.32,2.11Zm20.08,7.17v-15.02h-1.35c-.59,4.13-1.77,10.46-2.7,15.02h4.05Zm10.8-54.5c-3.63,2.62-7.85,5.48-11.31,7.26l-1.1-.59c1.18-3.12,2.7-8.35,4.13-13.08l11.64,4.89c-.42,1.01-1.52,1.69-3.37,1.52Zm6.16,54.33v-15.69c-.25,.59-.84,.84-1.77,.84h-6.5v15.02h.34l3.21-4.89s2.62,2.45,4.72,4.72Zm10.29-4.13h5.82c.84,0,1.27-.17,1.77-.51,1.18-.76,1.86-2.11,1.86-4.89,0-6.33-2.11-12.99-7.34-18.65,1.43-5.91,3.21-16.54,4.05-23.62h-6.16V58.63Z"/>
    </g>
  </g>
</svg>